<svg xmlns="http://www.w3.org/2000/svg" height="512pt" version="1.1" viewBox="0 0 512 512" width="512pt">
<path d="M 0.00 0.00 L 512.00 0.00 L 512.00 512.00 L 0.00 512.00 L 0.00 0.00 Z" fill="transparent" opacity="1.00" stroke="transparent" stroke-width="0.25" data-index="0" style="opacity: 1;"></path>
<path d="M 272.44 69.46 C 286.40 56.32 306.12 50.68 325.00 51.20 C 337.46 51.03 349.68 53.80 362.06 54.66 C 365.20 54.85 368.34 55.17 371.45 55.63 C 371.56 57.57 372.17 59.65 371.21 61.48 C 362.57 80.71 350.67 98.77 334.85 112.85 C 320.17 125.90 300.89 134.54 281.00 133.82 C 271.85 134.05 262.93 131.52 254.48 128.24 C 254.09 137.57 255.35 146.84 256.42 156.08 C 277.01 142.95 301.50 135.74 325.97 136.48 C 338.90 136.94 351.83 139.83 363.54 145.38 C 388.69 157.07 408.24 179.76 417.00 205.97 C 425.03 228.96 424.75 253.82 422.39 277.77 C 417.84 317.44 406.43 356.44 387.91 391.87 C 378.97 408.53 368.79 424.87 355.05 438.04 C 346.37 446.59 336.04 453.87 324.29 457.45 C 308.01 462.93 289.41 460.85 274.53 452.38 C 268.01 448.84 262.94 442.01 255.00 441.72 C 247.81 441.64 242.43 447.05 236.91 450.87 C 221.81 460.62 202.28 463.13 185.19 457.58 C 169.74 453.05 157.14 442.19 146.65 430.37 C 128.90 409.58 116.51 384.83 106.54 359.55 C 93.63 325.21 85.53 288.77 85.07 252.00 C 84.78 226.83 90.30 200.82 105.03 180.01 C 118.25 161.02 137.73 145.91 160.30 140.04 C 184.31 133.35 210.22 136.57 233.08 145.87 C 238.00 147.92 242.69 150.44 247.56 152.59 C 246.60 142.18 245.90 131.73 246.57 121.27 C 247.22 107.94 249.93 94.41 246.85 81.17 C 246.27 77.51 244.39 74.27 243.35 70.76 C 242.65 68.09 245.28 65.62 247.90 66.25 C 249.91 66.02 250.75 68.10 251.57 69.53 C 254.99 76.58 255.98 84.50 256.49 92.23 C 260.52 83.85 265.56 75.81 272.44 69.46 Z" fill="#063a60" opacity="1.00" stroke="#063a60" stroke-width="0.25" data-index="1" style="fill: rgb(6, 58, 96); opacity: 1;"></path>
<path d="M 283.78 70.76 C 298.91 60.13 318.34 57.91 336.32 59.91 C 344.57 60.95 352.81 62.17 361.08 63.13 C 359.29 68.28 356.15 72.80 353.49 77.52 C 344.02 93.14 331.49 107.28 315.66 116.65 C 299.00 126.32 277.52 129.01 259.67 121.10 C 286.94 100.96 317.98 86.59 349.39 74.19 C 352.19 73.25 353.25 69.04 350.78 67.17 C 349.23 65.50 346.85 66.47 345.08 67.15 C 324.09 75.42 303.53 84.86 283.81 95.84 C 274.90 100.79 266.52 106.63 257.91 112.08 C 262.09 96.22 269.91 80.26 283.78 70.76 Z" fill="#91e9fe" opacity="1.00" stroke="#91e9fe" stroke-width="0.25" data-index="2" style="fill: rgb(40, 200, 101); opacity: 1; visibility: visible;"></path>
<path d="M 136.19 160.21 C 153.71 147.99 175.87 142.90 197.01 145.36 C 215.68 146.99 233.51 153.88 249.53 163.40 C 250.48 168.91 252.05 174.28 252.90 179.81 C 242.15 176.76 231.69 172.57 222.05 166.91 C 218.48 164.85 215.16 161.27 210.63 162.51 C 209.76 164.85 208.69 168.08 211.48 169.58 C 230.09 182.46 252.38 190.16 275.01 191.26 C 278.49 191.51 281.96 191.05 285.35 190.26 C 285.49 188.26 285.59 186.25 285.71 184.25 C 282.07 182.34 277.89 182.88 273.94 182.78 C 269.99 182.78 266.05 182.35 262.16 181.69 C 260.60 175.99 258.59 170.35 258.21 164.42 C 273.99 154.26 291.98 147.28 310.73 145.39 C 330.86 142.84 351.92 147.07 369.21 157.78 C 389.42 170.15 404.35 190.58 410.60 213.38 C 415.75 230.05 416.09 247.71 415.23 264.99 C 411.85 310.35 398.88 355.10 376.86 394.93 C 370.78 405.24 364.56 415.57 356.54 424.52 C 345.86 437.09 332.05 448.23 315.41 451.22 C 300.50 453.38 283.91 450.96 272.25 440.76 C 267.43 436.66 261.49 433.44 255.01 433.50 C 247.97 433.34 241.45 436.78 236.19 441.21 C 223.75 451.59 206.18 453.92 190.71 450.50 C 178.98 447.91 168.78 440.99 160.27 432.74 C 151.35 424.17 143.88 414.21 137.31 403.76 C 112.09 362.25 97.73 314.50 93.75 266.20 C 92.86 249.06 93.05 231.58 97.82 214.96 C 103.72 193.01 117.33 173.03 136.19 160.21 Z" fill="#fdaeb3" opacity="1.00" stroke="#fdaeb3" stroke-width="0.25" data-index="3" style="fill: rgb(200, 45, 45); opacity: 1; visibility: visible;"></path>
<path d="M 170.38 172.50 C 175.60 171.84 181.07 171.29 186.20 172.81 C 191.29 174.23 192.26 182.10 187.95 184.93 C 185.44 186.28 182.50 186.31 179.75 186.75 C 169.47 187.92 159.12 191.33 151.21 198.21 C 144.95 203.72 139.20 210.07 135.73 217.74 C 133.85 221.62 132.81 225.89 130.57 229.59 C 128.66 232.83 123.89 232.51 120.97 231.00 C 117.95 228.34 118.45 223.86 119.41 220.36 C 124.05 202.92 135.53 187.09 151.69 178.69 C 157.53 175.64 163.90 173.62 170.38 172.50 Z" fill="#ffffff" opacity="1.00" stroke="#ffffff" stroke-width="0.25" data-index="4" style="fill: rgb(255, 255, 255); stroke: rgb(255, 255, 255);"></path>
</svg>