<?xml version="1.0" encoding="utf-8"?>
<svg xmlns="http://www.w3.org/2000/svg" height="512pt" version="1.1" viewBox="0 0 512 512" width="512pt">
<path d="M 0.00 0.00 L 512.00 0.00 L 512.00 512.00 L 0.00 512.00 L 0.00 0.00 Z" fill="transparent" opacity="1.00" stroke="transparent" stroke-width="0.25"/>
<path d="M 209.41 84.86 C 211.06 71.90 222.87 61.06 235.97 60.69 C 249.97 60.67 263.97 60.70 277.97 60.69 C 291.78 60.42 304.51 72.23 305.60 85.94 C 305.96 91.35 305.64 96.78 305.73 102.20 C 323.88 106.25 341.58 113.97 355.41 126.63 C 375.61 144.70 385.54 172.21 385.29 198.96 C 385.21 216.37 385.37 233.77 385.24 251.18 C 392.05 255.61 396.23 263.19 397.62 271.08 C 399.92 283.23 400.39 295.63 401.10 307.96 C 401.86 329.37 400.73 350.82 398.29 372.09 C 396.67 383.15 395.18 394.39 391.13 404.87 C 390.07 407.94 387.74 410.23 385.61 412.57 C 384.99 414.65 385.40 416.91 385.13 419.06 C 383.82 429.62 377.87 440.05 368.23 445.06 C 363.87 447.40 358.91 448.27 354.05 448.92 C 333.78 451.11 313.35 450.41 293.01 451.24 C 267.00 451.45 240.98 451.59 214.97 451.08 C 198.62 450.54 182.23 450.76 165.92 449.34 C 158.36 448.50 150.37 447.55 144.04 442.95 C 135.19 436.47 129.93 425.46 130.18 414.53 C 126.85 411.01 123.26 407.42 122.19 402.49 C 116.58 382.82 114.86 362.28 114.21 341.92 C 112.98 325.62 113.88 309.25 114.90 292.97 C 116.00 282.91 116.21 272.50 120.11 263.02 C 122.16 258.04 126.19 254.29 130.37 251.06 C 130.39 231.38 130.28 211.70 130.42 192.01 C 131.66 170.32 139.60 148.52 154.47 132.44 C 168.63 116.70 188.38 106.89 208.89 102.46 C 209.32 96.60 208.76 90.70 209.41 84.86 Z" fill="#063759" opacity="1.00" stroke="#063759" stroke-width="0.25"/>
<path d="M 216.78 82.55 C 219.24 73.89 227.90 67.28 236.95 67.48 C 250.61 67.52 264.28 67.50 277.94 67.50 C 287.00 67.32 295.70 73.91 298.17 82.59 C 299.37 88.57 298.72 94.72 298.82 100.78 C 295.63 100.32 292.45 99.79 289.26 99.37 C 288.95 93.40 290.28 86.97 287.58 81.40 C 284.90 77.36 279.56 76.22 275.01 76.52 C 262.32 76.59 249.64 76.50 236.95 76.55 C 232.36 76.35 227.52 79.21 226.39 83.85 C 225.03 88.92 225.86 94.24 225.67 99.42 C 222.40 99.92 219.14 100.44 215.86 100.84 C 215.84 94.74 215.25 88.52 216.78 82.55 Z" fill="#5cdefd" opacity="1.00" stroke="#5cdefd" stroke-width="0.25"/>
<path d="M 234.44 83.48 C 248.95 83.46 263.46 83.46 277.97 83.46 C 279.53 83.36 280.90 84.18 282.30 84.76 C 282.50 89.38 282.45 94.00 282.47 98.63 C 271.34 97.97 260.19 96.88 249.04 97.64 C 243.44 97.78 237.86 98.30 232.27 98.65 C 232.41 94.75 232.23 90.84 232.40 86.93 C 232.19 85.38 233.56 84.49 234.44 83.48 Z" fill="#feffff" opacity="1.00" stroke="#feffff" stroke-width="0.25"/>
<path d="M 234.03 106.19 C 249.10 104.40 264.34 104.55 279.44 105.86 C 290.73 107.02 302.06 108.65 312.92 112.07 C 316.73 118.31 321.05 124.22 324.87 130.45 C 324.52 130.25 323.83 129.85 323.48 129.66 C 302.58 120.82 279.61 117.70 257.03 118.15 C 234.16 117.78 211.03 121.62 190.07 130.98 C 193.89 124.61 198.10 118.48 202.24 112.32 C 212.52 108.98 223.28 107.20 234.03 106.19 Z" fill="#feffff" opacity="1.00" stroke="#feffff" stroke-width="0.25"/>
<path d="M 159.63 137.66 C 168.63 127.99 179.83 120.40 192.06 115.42 C 187.42 123.19 182.39 130.76 177.51 138.38 C 161.83 149.00 147.98 163.84 142.79 182.45 C 139.79 192.74 141.24 203.49 141.78 214.00 C 143.61 234.33 145.36 254.68 147.15 275.02 C 147.57 278.57 145.30 281.67 144.78 285.10 C 143.36 295.35 143.97 305.72 143.77 316.03 C 143.89 348.40 143.18 380.79 144.75 413.13 C 144.90 416.79 146.06 420.31 147.59 423.61 C 151.40 429.07 156.63 433.60 163.02 435.74 C 168.08 437.75 173.58 437.76 178.93 438.13 C 210.62 438.83 242.32 438.62 274.02 438.64 C 296.33 438.53 318.66 438.81 340.95 437.89 C 348.73 437.86 356.75 435.83 362.71 430.60 C 368.31 425.97 371.99 418.94 372.05 411.62 C 373.15 385.44 372.60 359.23 372.74 333.03 C 372.67 319.55 372.89 306.06 372.60 292.59 C 372.66 287.95 371.24 283.50 370.83 278.92 C 372.09 257.29 373.69 235.67 375.04 214.04 C 375.76 202.03 376.54 189.63 372.60 178.05 C 366.73 162.27 354.71 149.54 341.13 139.96 C 339.41 138.67 337.33 137.67 336.23 135.73 C 331.94 128.81 327.25 122.13 323.01 115.18 C 339.01 121.72 353.69 132.28 363.19 146.91 C 373.76 162.42 377.79 181.43 378.27 199.95 C 378.36 271.31 378.31 342.68 378.30 414.04 C 378.59 423.15 374.52 432.63 366.89 437.86 C 362.65 440.29 357.75 441.20 352.99 441.97 C 337.07 444.12 320.98 443.24 304.98 444.09 C 273.67 444.25 242.35 444.23 211.04 444.09 C 195.70 443.26 180.29 443.98 165.00 442.22 C 157.99 441.32 150.42 440.10 145.19 434.87 C 140.12 429.66 136.96 422.32 137.29 414.99 C 137.32 343.41 137.29 271.84 137.34 200.26 C 137.15 177.70 144.33 154.57 159.63 137.66 Z" fill="#fcffff" opacity="1.00" stroke="#fcffff" stroke-width="0.25"/>
<path d="M 238.96 125.92 C 262.66 124.19 287.00 124.97 309.81 132.21 C 324.43 137.11 338.19 144.89 349.43 155.51 C 360.45 166.43 369.07 181.00 368.72 196.96 C 368.16 221.92 365.58 246.78 364.50 271.72 C 360.62 268.62 355.92 266.73 351.02 265.97 C 337.79 263.86 324.35 264.38 311.01 263.82 C 269.72 263.45 228.41 263.22 187.13 264.24 C 175.81 264.75 163.68 264.20 153.54 270.10 C 152.05 250.38 150.35 230.68 148.56 210.99 C 148.18 203.99 146.92 196.92 148.27 189.95 C 150.24 176.32 158.09 164.21 168.00 154.93 C 187.01 136.79 213.15 128.03 238.96 125.92 Z" fill="#ffffff" opacity="1.00" stroke="#ffffff" stroke-width="0.25"/>
<path d="M 252.07 159.01 C 252.95 157.70 254.82 158.07 255.67 159.23 C 262.28 165.99 268.76 172.89 275.47 179.56 C 279.03 183.32 282.94 186.78 285.92 191.04 C 275.34 202.00 264.52 212.74 253.95 223.71 C 242.89 213.28 232.41 202.24 221.73 191.41 C 222.40 189.96 223.21 188.54 224.37 187.42 C 233.66 178.00 242.76 168.40 252.07 159.01 Z" fill="#05365a" opacity="1.00" stroke="#05365a" stroke-width="0.25"/>
<path d="M 249.27 172.99 C 248.67 169.71 252.13 168.21 254.00 166.19 C 255.65 168.24 258.62 169.97 258.16 173.00 C 258.12 184.69 258.10 196.38 258.13 208.07 C 258.54 211.12 255.57 212.90 253.96 215.03 C 252.14 212.93 248.66 211.39 249.27 208.10 C 249.26 196.40 249.25 184.70 249.27 172.99 Z" fill="#fcffff" opacity="1.00" stroke="#fcffff" stroke-width="0.25"/>
<path d="M 231.55 188.79 C 234.09 186.03 236.89 183.53 239.60 180.94 C 239.64 187.44 239.66 193.94 239.51 200.45 C 236.47 197.45 233.29 194.56 230.47 191.35 C 229.82 190.32 231.00 189.50 231.55 188.79 Z" fill="#f8ffff" opacity="1.00" stroke="#f8ffff" stroke-width="0.25"/>
<path d="M 267.85 181.03 C 271.01 184.36 275.07 187.09 277.11 191.31 C 274.07 194.20 271.16 197.22 268.08 200.06 C 267.51 193.73 267.95 187.37 267.85 181.03 Z" fill="#f9feff" opacity="1.00" stroke="#f9feff" stroke-width="0.25"/>
<path d="M 123.26 281.46 C 123.97 273.83 125.47 265.91 130.20 259.66 C 130.56 266.07 130.32 272.50 130.36 278.92 C 127.88 279.41 125.50 280.30 123.26 281.46 Z" fill="#f9feff" opacity="1.00" stroke="#f9feff" stroke-width="0.25"/>
<path d="M 385.43 260.50 C 390.24 266.34 390.99 274.14 392.12 281.33 C 389.92 280.22 387.62 279.32 385.29 278.53 C 385.32 272.52 385.15 266.50 385.43 260.50 Z" fill="#f7ffff" opacity="1.00" stroke="#f7ffff" stroke-width="0.25"/>
<path d="M 173.57 271.95 C 206.00 270.28 238.49 270.77 270.95 270.70 C 294.96 270.68 318.99 270.68 342.96 272.06 C 349.66 272.66 357.46 273.23 362.04 278.85 C 366.38 283.85 365.62 290.88 365.79 297.02 C 365.74 331.35 366.13 365.69 365.62 400.02 C 365.28 405.64 365.92 411.41 364.32 416.89 C 361.93 423.37 355.90 427.77 349.55 429.93 C 348.27 430.69 346.81 430.67 345.42 430.35 C 347.80 429.32 350.67 429.57 352.63 427.62 C 357.96 423.95 358.25 416.87 358.56 411.02 C 360.42 369.44 361.23 327.76 359.11 286.18 C 359.10 280.60 354.42 276.01 348.94 275.66 C 336.29 274.60 323.58 275.52 310.90 275.50 C 285.95 275.39 261.00 276.69 236.04 275.92 C 227.36 275.49 218.67 275.59 209.98 275.51 C 196.61 275.62 183.23 274.79 169.87 275.40 C 165.46 275.48 160.87 277.54 158.79 281.58 C 157.44 284.17 157.47 287.13 157.36 289.97 C 155.77 326.62 156.33 363.34 157.90 399.97 C 158.63 407.03 158.11 414.25 159.85 421.18 C 160.50 424.15 162.80 426.26 164.98 428.18 C 166.97 428.78 169.31 428.97 170.77 430.60 C 168.34 431.11 166.07 430.11 164.05 428.86 C 158.27 425.85 152.34 421.13 151.84 414.10 C 150.07 382.13 150.80 350.07 150.66 318.05 C 150.89 307.99 150.41 297.90 151.27 287.87 C 151.60 283.42 153.23 278.63 157.16 276.14 C 161.91 272.71 167.96 272.50 173.57 271.95 Z" fill="#faffff" opacity="1.00" stroke="#faffff" stroke-width="0.25"/>
<path d="M 164.64 284.53 C 167.34 281.80 171.50 282.31 174.99 282.10 C 204.65 282.24 234.29 283.01 263.94 283.13 C 286.94 282.61 309.94 282.55 332.94 282.11 C 339.21 282.23 345.70 281.40 351.72 283.59 C 352.17 285.34 352.47 287.13 352.51 288.94 C 352.91 303.75 353.50 318.56 353.47 333.38 C 290.08 334.84 226.65 334.79 163.27 333.27 C 163.15 320.17 163.43 307.08 163.81 293.99 C 163.99 290.83 164.03 287.63 164.64 284.53 Z" fill="#fefffe" opacity="1.00" stroke="#fefffe" stroke-width="0.25"/>
<path d="M 122.43 290.50 C 124.70 288.43 127.41 286.93 130.35 286.08 C 130.41 323.41 130.33 360.73 130.39 398.06 C 130.38 399.80 130.29 401.54 130.05 403.27 C 125.69 390.32 124.09 376.64 122.71 363.11 C 120.80 338.97 120.09 314.63 122.43 290.50 Z" fill="#feffff" opacity="1.00" stroke="#feffff" stroke-width="0.25"/>
<path d="M 385.28 393.97 C 385.41 358.02 385.09 322.06 385.47 286.11 C 388.44 287.59 392.35 288.94 392.93 292.74 C 395.18 318.78 394.02 345.00 391.12 370.95 C 389.91 380.45 388.47 389.99 385.70 399.18 C 385.46 397.45 385.25 395.71 385.28 393.97 Z" fill="#fcffff" opacity="1.00" stroke="#fcffff" stroke-width="0.25"/>
<path d="M 175.46 306.66 C 181.84 303.66 190.02 307.26 192.74 313.59 C 195.38 319.91 192.99 328.37 186.51 331.30 C 181.10 334.20 174.06 332.42 170.30 327.70 C 164.88 321.09 167.31 309.81 175.46 306.66 Z" fill="#063759" opacity="1.00" stroke="#063759" stroke-width="0.25"/>
<path d="M 174.20 315.45 C 176.68 310.45 184.83 310.72 187.18 315.69 C 188.33 318.86 188.00 322.99 185.01 325.04 C 182.55 327.30 179.03 326.50 176.21 325.50 C 173.65 322.90 172.22 318.81 174.20 315.45 Z" fill="#fcfffd" opacity="1.00" stroke="#fcfffd" stroke-width="0.25"/>
<path d="M 277.02 341.59 C 302.57 341.67 328.11 340.97 353.66 340.39 C 353.24 365.25 352.70 390.12 351.36 414.95 C 351.29 418.35 349.98 422.77 346.13 423.49 C 334.29 426.18 322.03 425.34 309.98 426.10 C 268.66 426.61 227.32 426.90 186.02 425.30 C 180.81 424.93 175.52 424.73 170.45 423.37 C 166.93 422.31 165.63 418.23 165.58 414.92 C 164.28 390.07 162.93 365.19 163.27 340.29 C 201.17 341.70 239.10 341.65 277.02 341.59 Z" fill="#ffffff" opacity="1.00" stroke="#ffffff" stroke-width="0.25"/>
<path d="M 298.56 358.81 C 299.10 358.52 300.18 357.94 300.72 357.65 C 314.19 357.80 327.65 357.62 341.12 357.73 C 341.38 358.24 341.91 359.25 342.17 359.75 C 342.09 373.16 342.21 386.57 342.13 399.98 C 342.03 404.48 342.53 409.03 341.53 413.46 C 327.58 413.48 313.63 413.61 299.68 413.37 C 299.43 413.10 298.92 412.56 298.67 412.29 C 298.34 394.47 298.56 376.63 298.56 358.81 Z" fill="#063659" opacity="1.00" stroke="#063659" stroke-width="0.25"/>
<path d="M 305.50 406.36 C 305.43 392.50 305.28 378.64 305.53 364.79 C 315.48 364.83 325.43 364.89 335.38 364.80 C 335.33 378.65 335.35 392.49 335.40 406.34 C 325.43 406.36 315.46 406.25 305.50 406.36 Z" fill="#fefeff" opacity="1.00" stroke="#fefeff" stroke-width="0.25"/>
<path d="M 311.59 397.23 C 311.60 396.05 311.64 394.87 311.68 393.70 C 317.64 393.62 323.60 393.55 329.56 393.65 C 329.55 394.85 329.53 396.07 329.51 397.28 C 323.54 397.33 317.56 397.26 311.59 397.23 Z" fill="#0f3857" opacity="1.00" stroke="#0f3857" stroke-width="0.25"/>
</svg>