<?xml version="1.0" encoding="utf-8"?>
<svg xmlns="http://www.w3.org/2000/svg" height="512pt" version="1.1" viewBox="0 0 512 512" width="512pt">
<path d="M 0.00 0.00 L 512.00 0.00 L 512.00 512.00 L 0.00 512.00 L 0.00 0.00 Z" fill="transparent" opacity="1.00" stroke="transparent" stroke-width="0.25"/>
<path d="M 424.42 126.38 C 426.88 124.94 429.92 125.43 432.40 126.56 C 436.40 128.27 440.67 129.97 443.58 133.35 C 445.82 135.93 445.79 139.75 444.56 142.77 C 439.96 154.61 434.44 166.05 429.63 177.80 C 426.43 185.32 423.21 192.95 421.80 201.05 C 420.90 207.05 422.87 212.90 424.53 218.58 C 426.95 226.49 428.72 234.70 428.58 243.01 C 429.06 261.24 421.86 278.57 413.38 294.35 C 407.09 305.35 399.79 315.83 390.91 324.91 C 376.13 339.21 358.57 350.46 339.88 358.94 C 316.93 369.35 292.71 376.88 268.02 381.89 C 234.52 388.61 199.69 385.94 166.76 377.48 C 153.05 374.10 139.67 369.26 127.14 362.73 C 103.56 350.11 83.70 330.59 70.70 307.21 C 67.48 303.15 64.84 297.45 67.65 292.45 C 70.46 286.84 74.92 280.24 81.96 280.34 C 115.10 279.09 147.92 285.34 181.00 286.12 C 201.32 286.40 221.84 284.42 241.28 278.27 C 272.49 268.42 301.67 252.53 327.59 232.62 C 336.74 225.51 345.35 217.73 353.36 209.37 C 359.58 202.85 367.38 198.04 375.64 194.58 C 379.42 192.90 383.57 191.57 386.49 188.49 C 391.07 183.89 394.28 178.19 397.82 172.82 C 405.59 159.92 412.60 146.58 419.29 133.10 C 420.63 130.63 421.80 127.77 424.42 126.38 Z" fill="#083458" opacity="1.00" stroke="#083458" stroke-width="0.25"/>
<path d="M 424.88 135.93 C 425.92 134.10 427.12 131.25 429.75 132.32 C 433.18 133.61 436.87 135.18 439.20 138.13 C 438.93 141.60 437.08 144.67 435.81 147.85 C 429.86 161.62 423.42 175.21 418.47 189.39 C 416.50 194.88 415.23 200.63 415.29 206.49 C 413.51 206.34 411.72 206.16 409.95 205.96 C 406.21 205.53 402.51 204.87 398.82 204.15 C 397.89 205.05 396.97 205.95 396.08 206.89 C 396.32 205.08 396.97 203.26 396.68 201.43 C 395.41 200.18 393.91 199.20 392.45 198.21 C 391.04 197.28 389.62 196.37 388.21 195.45 C 391.45 192.27 394.59 188.94 397.14 185.17 C 407.50 169.41 416.41 152.76 424.88 135.93 Z" fill="#80d344" opacity="1.00" stroke="#80d344" stroke-width="0.25"/>
<path d="M 363.92 208.78 C 370.92 202.61 380.26 200.12 388.21 195.45 C 389.62 196.37 391.04 197.28 392.45 198.21 C 389.55 206.31 386.18 214.30 381.59 221.60 C 372.07 235.49 359.81 247.30 346.40 257.41 C 325.54 273.58 302.63 287.10 278.32 297.37 C 256.66 306.40 233.82 313.34 210.28 314.70 C 203.77 314.90 197.26 314.87 190.75 314.72 C 172.84 313.81 155.34 309.18 138.38 303.59 C 125.86 299.81 113.87 294.53 101.55 290.18 C 101.53 289.59 101.49 288.42 101.48 287.83 C 106.06 288.04 110.66 288.12 115.25 287.74 C 119.59 287.60 123.92 288.16 128.24 288.62 C 130.29 288.97 132.37 289.25 134.46 289.29 C 144.01 289.62 153.43 291.48 162.98 291.73 C 173.29 292.65 183.65 292.52 193.99 292.47 C 219.23 291.79 244.15 285.56 267.20 275.37 C 292.75 264.48 316.71 249.88 338.18 232.25 C 343.43 228.26 347.73 223.17 352.94 219.13 C 357.36 216.56 360.87 212.83 363.92 208.78 Z" fill="#fed322" opacity="1.00" stroke="#fed322" stroke-width="0.25"/>
<path d="M 396.08 206.89 C 396.97 205.95 397.89 205.05 398.82 204.15 C 402.51 204.87 406.21 205.53 409.95 205.96 C 411.50 217.02 412.31 228.64 408.26 239.29 C 404.01 250.15 396.86 259.53 389.51 268.47 C 382.94 276.84 375.60 284.61 367.58 291.60 C 358.87 298.35 350.10 305.11 340.50 310.58 C 321.32 321.11 301.24 330.23 280.14 336.18 C 266.64 340.57 252.67 343.34 238.57 344.81 C 224.82 347.05 210.84 346.50 196.97 346.21 C 180.91 345.24 164.86 343.55 149.16 339.94 C 139.61 337.54 129.80 336.13 120.59 332.50 C 110.56 329.43 101.68 323.74 92.97 318.05 C 88.95 315.18 84.98 312.11 80.27 310.44 L 79.57 310.15 C 79.47 309.23 79.31 308.33 79.11 307.43 C 81.99 306.47 85.44 305.98 87.33 303.32 C 89.39 300.21 90.34 296.54 91.80 293.13 C 105.07 297.69 117.97 303.27 131.26 307.79 C 145.01 312.64 159.11 316.51 173.44 319.19 C 185.50 321.24 197.80 320.96 209.99 320.77 C 221.76 320.62 233.32 318.13 244.73 315.45 C 286.78 304.31 325.72 282.82 359.09 255.10 C 364.59 250.65 369.64 245.67 374.47 240.51 C 381.19 232.73 387.91 224.71 392.23 215.29 C 393.61 212.53 394.48 209.53 396.08 206.89 Z" fill="#fed322" opacity="1.00" stroke="#fed322" stroke-width="0.25"/>
<path d="M 409.95 205.96 C 411.72 206.16 413.51 206.34 415.29 206.49 C 416.86 217.51 421.89 227.80 422.33 239.02 C 423.69 256.14 417.59 272.78 409.78 287.72 C 402.50 301.42 393.64 314.67 381.66 324.71 C 363.26 341.51 340.56 352.81 317.29 361.25 C 307.23 365.33 296.69 368.03 286.29 371.07 C 265.02 376.63 243.05 380.42 221.00 379.46 C 195.11 377.73 169.25 373.16 144.89 364.03 C 127.86 357.08 111.83 347.28 98.89 334.12 C 91.86 326.96 84.87 319.41 80.27 310.44 C 84.98 312.11 88.95 315.18 92.97 318.05 C 101.68 323.74 110.56 329.43 120.59 332.50 C 129.80 336.13 139.61 337.54 149.16 339.94 C 164.86 343.55 180.91 345.24 196.97 346.21 C 210.84 346.50 224.82 347.05 238.57 344.81 C 252.67 343.34 266.64 340.57 280.14 336.18 C 301.24 330.23 321.32 321.11 340.50 310.58 C 350.10 305.11 358.87 298.35 367.58 291.60 C 375.60 284.61 382.94 276.84 389.51 268.47 C 396.86 259.53 404.01 250.15 408.26 239.29 C 412.31 228.64 411.50 217.02 409.95 205.96 Z" fill="#fdb025" opacity="1.00" stroke="#fdb025" stroke-width="0.25"/>
<path d="M 352.94 219.13 C 355.88 215.03 359.50 211.28 363.92 208.78 C 360.87 212.83 357.36 216.56 352.94 219.13 Z" fill="#c8be59" opacity="1.00" stroke="#c8be59" stroke-width="0.25"/>
<path d="M 92.74 286.41 C 95.33 286.27 97.93 286.25 100.52 286.47 C 104.69 286.90 108.89 286.96 113.07 287.13 C 113.62 287.28 114.70 287.59 115.25 287.74 C 110.66 288.12 106.06 288.04 101.48 287.83 C 101.49 288.42 101.53 289.59 101.55 290.18 C 98.50 289.22 95.44 288.17 92.74 286.41 Z" fill="#a9aa5d" opacity="1.00" stroke="#a9aa5d" stroke-width="0.25"/>
<path d="M 100.52 286.47 C 104.61 285.66 109.29 284.86 113.07 287.13 C 108.89 286.96 104.69 286.90 100.52 286.47 Z" fill="#2d401c" opacity="1.00" stroke="#2d401c" stroke-width="0.25"/>
<path d="M 128.24 288.62 C 129.71 287.14 133.99 287.01 134.46 289.29 C 132.37 289.25 130.29 288.97 128.24 288.62 Z" fill="#4d561e" opacity="1.00" stroke="#4d561e" stroke-width="0.25"/>
<path d="M 190.75 314.72 C 197.26 314.87 203.77 314.90 210.28 314.70 C 207.49 317.15 203.38 315.85 199.99 316.19 C 196.98 315.77 193.15 317.01 190.75 314.72 Z" fill="#2e401f" opacity="1.00" stroke="#2e401f" stroke-width="0.25"/>
<path d="M 185.79 321.50 C 195.55 320.70 205.40 320.74 215.16 321.47 C 210.52 322.59 205.72 322.30 200.99 322.35 C 195.92 322.31 190.78 322.62 185.79 321.50 Z" fill="#c1bc62" opacity="1.00" stroke="#c1bc62" stroke-width="0.25"/>
</svg>