<?xml version="1.0" encoding="utf-8"?>
<svg xmlns="http://www.w3.org/2000/svg" height="512pt" version="1.1" viewBox="0 0 512 512" width="512pt">
<path d="M 0.00 0.00 L 512.00 0.00 L 512.00 512.00 L 0.00 512.00 L 0.00 0.00 Z" fill="transparent" opacity="1.00" stroke="transparent" stroke-width="0.25"/>
<path d="M 148.85 138.52 C 152.56 136.08 157.24 133.64 161.72 135.37 C 163.65 135.97 162.71 138.57 162.28 139.94 C 160.13 143.58 157.14 146.62 154.34 149.76 C 157.01 173.16 168.01 195.63 184.92 212.03 C 190.05 216.84 195.91 221.02 202.50 223.57 C 205.25 224.78 208.29 224.29 211.18 224.10 C 212.44 217.42 214.81 211.00 217.64 204.84 C 218.48 203.27 219.13 201.47 220.60 200.37 C 223.35 198.17 226.49 196.15 228.11 192.91 C 228.87 190.39 226.95 188.14 226.05 185.93 C 224.24 182.69 223.97 178.53 220.84 176.15 C 220.64 175.37 220.46 174.59 220.31 173.81 C 221.81 169.71 220.58 165.44 220.19 161.27 C 220.76 160.92 221.90 160.23 222.47 159.88 C 224.96 169.50 229.95 178.32 236.55 185.71 C 240.67 184.97 244.83 184.21 249.02 184.86 C 256.13 173.50 260.11 160.47 261.49 147.19 C 261.97 147.23 262.92 147.31 263.40 147.35 C 264.36 148.94 265.39 150.50 266.33 152.12 C 266.17 153.26 265.93 154.38 265.71 155.52 C 265.17 154.62 264.62 153.73 264.06 152.86 L 263.95 153.55 C 262.60 159.27 263.56 165.17 262.93 170.97 C 262.77 176.31 260.87 181.34 259.55 186.46 C 259.14 187.60 259.38 188.77 259.82 189.86 C 260.29 190.15 261.25 190.72 261.73 191.01 C 263.47 192.25 264.91 193.83 266.49 195.26 C 266.88 195.30 267.66 195.39 268.05 195.44 L 268.78 195.73 L 269.35 196.17 C 269.05 196.62 268.45 197.51 268.15 197.96 C 272.26 203.78 274.39 210.66 276.69 217.33 C 280.23 216.88 283.80 216.49 287.37 216.79 C 287.38 219.94 286.83 223.04 285.93 226.05 C 285.48 225.21 285.04 224.38 284.62 223.53 C 285.00 221.83 285.35 220.13 285.66 218.42 C 283.01 218.89 279.97 218.84 278.01 220.97 C 275.19 224.01 270.82 224.02 266.99 224.32 C 259.85 224.88 252.88 222.01 245.74 223.07 C 235.16 223.91 226.44 231.22 215.94 232.35 C 211.67 232.77 207.90 230.39 204.29 228.48 C 208.39 238.51 215.64 247.50 225.34 252.56 C 236.24 258.36 249.92 258.48 260.96 252.99 C 271.85 247.52 280.56 237.57 283.90 225.78 L 284.11 225.80 C 285.57 226.95 287.42 226.99 289.14 226.42 C 302.43 222.69 313.50 213.51 321.92 202.82 C 330.59 191.59 336.78 178.57 340.97 165.05 C 341.45 163.56 341.63 162.01 341.87 160.48 C 337.09 157.31 332.91 152.95 330.32 147.82 C 332.01 144.65 335.98 145.02 338.96 145.61 C 342.49 146.40 345.37 148.62 348.14 150.81 C 360.70 149.91 373.30 148.06 385.93 148.97 C 425.07 150.37 464.68 164.42 492.99 192.08 C 494.79 194.09 497.52 195.78 497.80 198.70 C 482.50 195.74 465.74 198.90 453.25 208.46 C 448.34 211.88 445.12 217.20 442.88 222.65 C 441.38 226.04 441.75 229.87 440.35 233.27 C 434.38 230.78 427.56 231.63 421.63 233.79 C 411.33 238.35 403.76 247.91 400.32 258.49 C 396.75 270.28 397.44 282.76 398.50 294.88 C 395.35 294.74 392.83 292.69 389.92 291.77 C 384.92 289.98 379.26 289.32 374.16 291.04 C 367.76 293.32 364.64 299.82 361.63 305.40 C 357.64 314.16 354.80 323.62 354.23 333.27 C 353.78 333.41 352.88 333.70 352.42 333.84 C 352.19 332.65 351.89 331.49 351.53 330.34 C 345.83 322.21 336.93 316.24 327.03 314.81 C 320.92 314.00 315.17 317.05 310.58 320.79 C 303.14 326.94 296.68 334.26 291.49 342.40 C 290.23 344.57 290.46 347.20 289.88 349.58 C 287.13 364.19 285.63 379.00 283.54 393.70 C 283.09 393.67 282.19 393.60 281.74 393.57 C 276.89 386.41 273.90 378.21 271.16 370.07 C 263.49 375.61 259.37 384.54 256.29 393.20 C 255.94 393.40 255.24 393.80 254.89 394.00 C 250.24 385.36 243.56 377.62 234.55 373.37 C 232.10 381.61 230.05 390.10 225.80 397.66 C 225.26 398.72 224.34 399.49 223.46 400.26 C 220.84 388.26 219.59 375.99 217.03 363.99 C 211.39 351.02 206.63 337.57 199.20 325.47 C 194.96 318.97 189.18 312.92 181.58 310.54 C 170.67 306.71 157.83 310.34 149.82 318.47 C 149.45 318.01 149.08 317.55 148.71 317.10 C 150.63 307.70 149.63 297.10 143.92 289.13 C 139.76 284.08 133.51 280.74 126.95 280.41 C 115.80 279.66 104.95 284.24 96.28 290.99 C 95.79 288.39 97.10 285.88 97.58 283.38 C 100.34 272.48 101.50 260.78 98.05 249.89 C 96.23 243.89 92.06 238.61 86.53 235.61 C 83.47 233.87 79.92 233.46 76.58 232.52 C 79.75 224.35 78.35 214.33 72.41 207.75 C 68.40 203.35 62.77 200.68 56.94 199.72 C 44.49 197.71 31.76 200.03 19.95 204.08 C 16.31 205.21 13.01 207.31 9.21 207.91 C 10.10 204.34 12.53 201.48 14.43 198.42 C 27.77 177.68 46.97 160.68 69.42 150.39 C 90.46 140.85 113.84 136.42 136.90 137.80 C 140.87 137.88 144.94 139.32 148.85 138.52 Z" fill="#043051" opacity="1.00" stroke="#043051" stroke-width="0.25"/>
<path d="M 54.63 160.61 C 81.49 143.53 114.52 136.57 146.04 140.59 C 145.55 142.38 144.41 143.85 143.17 145.19 C 138.46 145.00 133.73 145.13 129.06 145.77 C 108.22 148.28 87.33 152.52 68.08 161.12 C 53.48 168.04 40.16 177.41 27.71 187.65 C 24.38 190.27 21.85 193.81 18.25 196.09 C 27.80 181.93 40.43 170.04 54.63 160.61 Z" fill="#70b0dc" opacity="1.00" stroke="#70b0dc" stroke-width="0.25"/>
<path d="M 82.99 158.86 C 101.13 153.31 120.06 150.73 138.97 149.79 C 140.23 149.71 141.47 149.99 142.70 150.18 C 140.54 150.47 139.10 152.20 137.74 153.72 C 117.26 176.73 98.19 201.00 80.16 225.96 C 80.30 218.74 78.64 210.99 73.18 205.87 C 66.23 198.62 55.65 196.80 46.02 197.14 C 34.76 197.22 23.96 200.73 13.37 204.14 C 21.37 194.55 31.34 186.80 41.51 179.63 C 54.26 170.80 67.96 163.03 82.99 158.86 Z" fill="#72b1dd" opacity="1.00" stroke="#72b1dd" stroke-width="0.25"/>
<path d="M 218.23 152.03 C 218.58 150.68 220.46 150.78 221.01 151.96 C 221.52 154.60 221.76 157.28 222.47 159.88 C 221.90 160.23 220.76 160.92 220.19 161.27 C 220.58 165.44 221.81 169.71 220.31 173.81 C 219.83 171.64 219.41 169.46 218.97 167.29 C 218.65 163.82 218.61 160.33 218.39 156.86 C 217.19 160.23 216.18 163.67 215.18 167.11 C 213.17 175.32 209.21 184.42 213.34 192.61 C 214.79 196.04 218.42 197.45 221.90 197.77 C 223.41 195.83 225.05 194.00 226.81 192.28 C 224.63 186.98 221.93 181.83 220.84 176.15 C 223.97 178.53 224.24 182.69 226.05 185.93 C 226.95 188.14 228.87 190.39 228.11 192.91 C 226.49 196.15 223.35 198.17 220.60 200.37 C 218.61 198.87 215.90 198.69 214.08 196.91 C 209.72 192.47 208.61 185.83 209.76 179.88 C 211.52 170.33 214.28 160.91 218.23 152.03 Z" fill="#11263a" opacity="1.00" stroke="#11263a" stroke-width="0.25"/>
<path d="M 266.33 152.12 C 270.09 158.24 272.79 164.96 274.96 171.78 C 276.73 177.11 276.42 182.88 274.80 188.19 C 274.62 188.36 274.25 188.71 274.07 188.88 C 272.59 184.18 274.49 179.25 273.29 174.52 C 271.67 167.87 268.79 161.60 265.71 155.52 C 265.93 154.38 266.17 153.26 266.33 152.12 Z" fill="#243e50" opacity="1.00" stroke="#243e50" stroke-width="0.25"/>
<path d="M 264.06 152.86 C 264.62 153.73 265.17 154.62 265.71 155.52 C 268.79 161.60 271.67 167.87 273.29 174.52 C 274.49 179.25 272.59 184.18 274.07 188.88 C 274.20 191.85 271.60 194.03 269.86 196.15 L 268.78 195.73 L 268.05 195.44 C 268.93 193.69 270.44 192.40 271.73 190.97 C 272.10 189.42 272.56 187.91 273.01 186.39 C 273.34 177.42 271.72 168.09 266.14 160.82 C 265.57 166.35 265.34 171.92 264.61 177.44 C 264.04 182.04 262.51 186.45 261.73 191.01 C 261.25 190.72 260.29 190.15 259.82 189.86 C 264.76 178.49 265.19 165.73 263.95 153.55 L 264.06 152.86 Z" fill="#e8aa98" opacity="1.00" stroke="#e8aa98" stroke-width="0.25"/>
<path d="M 355.94 154.78 C 362.31 154.84 368.61 153.82 374.97 153.72 C 404.89 152.40 434.94 159.21 461.87 172.15 C 473.88 178.19 484.96 186.21 494.15 196.05 C 478.59 194.60 461.77 198.20 449.92 208.88 C 444.02 214.04 440.40 221.45 439.38 229.18 C 428.98 215.83 418.81 202.18 406.90 190.08 C 394.14 176.94 379.18 165.84 362.47 158.25 C 360.21 157.25 357.84 156.40 355.94 154.78 Z" fill="#72b1dd" opacity="1.00" stroke="#72b1dd" stroke-width="0.25"/>
<path d="M 262.93 170.97 C 263.56 165.17 262.60 159.27 263.95 153.55 C 265.19 165.73 264.76 178.49 259.82 189.86 C 259.38 188.77 259.14 187.60 259.55 186.46 C 260.87 181.34 262.77 176.31 262.93 170.97 Z" fill="#19262a" opacity="1.00" stroke="#19262a" stroke-width="0.25"/>
<path d="M 215.18 167.11 C 216.18 163.67 217.19 160.23 218.39 156.86 C 218.61 160.33 218.65 163.82 218.97 167.29 C 218.62 166.78 217.93 165.74 217.59 165.22 C 216.78 165.85 215.98 166.47 215.18 167.11 Z" fill="#e8aa98" opacity="1.00" stroke="#e8aa98" stroke-width="0.25"/>
<path d="M 138.25 162.19 C 139.63 160.87 141.16 159.72 142.80 158.74 C 135.45 174.46 130.04 191.02 125.80 207.82 C 120.70 226.53 117.62 245.89 110.02 263.83 C 106.69 270.67 103.52 277.63 99.31 283.99 C 102.53 271.98 103.68 258.69 98.95 246.92 C 95.63 238.71 88.03 232.44 79.17 231.32 C 83.71 222.52 90.01 214.78 96.12 207.04 C 109.54 191.52 123.15 176.10 138.25 162.19 Z" fill="#72b1dd" opacity="1.00" stroke="#72b1dd" stroke-width="0.25"/>
<path d="M 266.14 160.82 C 271.72 168.09 273.34 177.42 273.01 186.39 C 272.56 187.91 272.10 189.42 271.73 190.97 C 270.44 192.40 268.93 193.69 268.05 195.44 C 267.66 195.39 266.88 195.30 266.49 195.26 C 264.91 193.83 263.47 192.25 261.73 191.01 C 262.51 186.45 264.04 182.04 264.61 177.44 C 265.34 171.92 265.57 166.35 266.14 160.82 Z" fill="#f89171" opacity="1.00" stroke="#f89171" stroke-width="0.25"/>
<path d="M 148.71 164.03 C 152.07 177.69 156.45 191.23 163.71 203.37 C 176.27 224.31 194.98 241.42 216.47 252.88 C 210.47 268.19 206.54 284.44 206.68 300.97 C 206.88 318.57 210.67 335.86 214.60 352.93 C 208.70 340.68 204.41 327.24 195.03 317.04 C 187.74 309.31 176.52 305.41 166.05 307.73 C 160.64 308.53 156.07 311.64 151.31 314.09 C 151.88 305.91 151.27 297.18 146.82 290.05 C 142.33 283.15 134.32 278.48 126.03 278.50 C 117.21 278.06 108.54 280.99 100.93 285.27 C 108.52 272.33 114.79 258.59 118.74 244.10 C 125.45 219.50 130.66 194.30 141.46 171.05 C 139.59 186.77 141.20 202.89 146.12 217.94 C 149.34 228.06 155.46 237.70 164.83 243.11 C 172.60 247.50 181.27 250.23 190.04 251.74 C 189.83 249.98 188.00 249.89 186.65 249.48 C 177.20 247.16 167.65 243.44 160.73 236.35 C 151.60 226.14 148.39 212.24 146.67 199.01 C 145.75 187.35 145.77 175.42 148.71 164.03 Z" fill="#72b1dd" opacity="1.00" stroke="#72b1dd" stroke-width="0.25"/>
<path d="M 341.42 186.59 C 344.26 179.26 346.33 171.67 348.69 164.18 C 352.21 177.47 352.66 191.40 351.74 205.06 C 351.08 217.71 348.16 230.30 342.75 241.78 C 338.91 249.94 331.52 256.38 322.79 258.77 C 315.36 261.10 307.55 261.75 299.88 262.79 L 299.29 264.01 C 310.27 263.86 321.59 262.38 331.51 257.41 C 340.50 252.66 345.63 243.32 349.24 234.21 C 356.35 213.67 357.73 191.43 354.53 170.00 C 362.50 181.36 367.50 194.46 371.70 207.59 C 375.88 220.03 378.54 232.91 382.30 245.47 C 385.66 258.42 389.80 271.15 393.21 284.09 C 393.97 286.78 395.00 289.39 395.94 292.03 C 388.68 288.92 380.27 286.42 372.60 289.66 C 364.99 293.35 361.24 301.51 358.09 308.90 C 355.46 315.23 353.80 321.91 352.65 328.66 C 345.93 320.15 336.18 313.14 325.01 312.83 C 316.31 312.79 309.44 318.92 303.54 324.59 C 299.56 328.12 296.60 332.60 292.81 336.31 C 294.38 324.67 296.07 312.89 294.86 301.12 C 293.72 283.15 287.43 265.95 279.63 249.87 C 293.86 245.82 306.67 237.55 316.73 226.76 C 327.66 215.29 335.86 201.38 341.42 186.59 Z" fill="#72b1dd" opacity="1.00" stroke="#72b1dd" stroke-width="0.25"/>
<path d="M 360.09 164.14 C 365.91 167.36 372.24 169.57 377.82 173.23 C 401.78 187.52 422.52 207.25 438.05 230.41 C 429.06 228.63 419.29 231.31 412.34 237.28 C 404.11 244.28 398.44 254.26 396.84 264.97 C 395.45 271.65 395.77 278.48 395.60 285.26 C 393.26 280.13 392.32 274.52 390.93 269.10 C 385.53 244.68 381.46 219.94 374.32 195.94 C 370.92 184.79 365.92 174.20 360.09 164.14 Z" fill="#72b1dd" opacity="1.00" stroke="#72b1dd" stroke-width="0.25"/>
<path d="M 215.18 167.11 C 215.98 166.47 216.78 165.85 217.59 165.22 C 217.93 165.74 218.62 166.78 218.97 167.29 C 219.41 169.46 219.83 171.64 220.31 173.81 C 220.46 174.59 220.64 175.37 220.84 176.15 C 221.93 181.83 224.63 186.98 226.81 192.28 C 225.05 194.00 223.41 195.83 221.90 197.77 C 218.42 197.45 214.79 196.04 213.34 192.61 C 209.21 184.42 213.17 175.32 215.18 167.11 Z" fill="#f69274" opacity="1.00" stroke="#f69274" stroke-width="0.25"/>
<path d="M 256.31 205.48 C 260.39 204.08 264.79 206.74 265.72 210.87 C 267.31 215.23 265.18 221.62 260.04 222.21 C 256.93 221.99 252.96 221.49 251.70 218.12 C 250.59 213.56 251.68 207.64 256.31 205.48 Z" fill="#f8ffff" opacity="1.00" stroke="#f8ffff" stroke-width="0.25"/>
<path d="M 228.40 206.58 C 231.73 204.13 236.91 205.58 238.82 209.17 C 241.86 213.53 242.04 221.54 236.15 223.51 C 232.30 225.94 226.61 224.19 225.03 219.88 C 223.23 215.39 223.68 209.11 228.40 206.58 Z" fill="#fcffff" opacity="1.00" stroke="#fcffff" stroke-width="0.25"/>
<path d="M 255.42 210.66 C 257.22 209.91 260.00 210.07 260.74 212.23 C 262.78 214.94 260.31 219.05 256.97 218.53 C 252.91 218.71 251.69 212.08 255.42 210.66 Z" fill="#072c4b" opacity="1.00" stroke="#072c4b" stroke-width="0.25"/>
<path d="M 231.23 216.76 C 228.84 213.03 234.41 208.38 237.61 211.48 C 240.15 213.05 239.25 216.02 238.35 218.30 C 235.96 219.42 232.39 219.69 231.23 216.76 Z" fill="#082e4a" opacity="1.00" stroke="#082e4a" stroke-width="0.25"/>
<path d="M 278.01 220.97 C 279.97 218.84 283.01 218.89 285.66 218.42 C 285.35 220.13 285.00 221.83 284.62 223.53 C 284.54 223.96 284.37 224.80 284.29 225.22 L 284.11 225.80 L 283.90 225.78 C 280.56 237.57 271.85 247.52 260.96 252.99 C 249.92 258.48 236.24 258.36 225.34 252.56 C 215.64 247.50 208.39 238.51 204.29 228.48 C 207.90 230.39 211.67 232.77 215.94 232.35 C 226.44 231.22 235.16 223.91 245.74 223.07 C 252.88 222.01 259.85 224.88 266.99 224.32 C 270.82 224.02 275.19 224.01 278.01 220.97 Z" fill="#c1edfe" opacity="1.00" stroke="#c1edfe" stroke-width="0.25"/>
<path d="M 241.15 229.82 C 240.75 227.54 243.53 227.26 245.10 226.70 C 248.36 226.32 252.16 225.53 254.99 227.69 C 253.58 230.08 252.05 233.26 248.93 233.58 C 246.12 233.21 242.75 232.37 241.15 229.82 Z" fill="#042e50" opacity="1.00" stroke="#042e50" stroke-width="0.25"/>
<path d="M 259.55 227.30 C 260.05 227.36 261.04 227.49 261.53 227.55 C 261.15 230.78 259.69 233.75 257.25 235.92 C 257.51 239.90 257.93 244.14 256.12 247.84 C 254.67 251.84 249.33 253.68 245.75 251.36 C 241.61 249.11 240.84 243.99 240.28 239.77 L 239.92 239.35 C 236.49 237.78 231.77 234.43 233.06 230.20 C 235.32 233.45 237.57 237.42 241.96 237.94 C 249.00 239.30 259.54 235.81 259.55 227.30 Z" fill="#19262a" opacity="1.00" stroke="#19262a" stroke-width="0.25"/>
<path d="M 242.05 240.53 C 246.71 240.26 251.23 239.08 255.75 238.01 C 255.69 241.22 255.76 244.59 254.29 247.54 C 252.78 250.12 248.98 251.55 246.42 249.60 C 243.30 247.70 243.09 243.66 242.05 240.53 Z" fill="#f36633" opacity="1.00" stroke="#f36633" stroke-width="0.25"/>
<path d="M 242.99 258.87 C 253.34 259.09 263.63 255.07 271.29 248.13 C 280.11 269.78 286.34 293.60 281.86 317.02 C 279.92 327.66 275.31 338.81 265.84 344.84 C 258.36 349.79 248.18 348.92 240.79 344.21 C 232.65 338.42 226.40 329.93 223.36 320.40 C 216.12 299.12 219.53 276.08 225.63 254.98 C 231.22 257.02 236.93 259.09 242.99 258.87 Z" fill="#c3eeff" opacity="1.00" stroke="#c3eeff" stroke-width="0.25"/>
<path d="M 238.67 345.38 C 246.72 350.85 257.36 351.47 266.12 347.34 C 266.95 354.31 269.06 361.03 270.59 367.86 C 263.19 373.61 258.02 381.91 255.39 390.85 C 250.59 382.73 243.82 375.63 235.13 371.71 C 236.08 362.90 238.36 354.27 238.67 345.38 Z" fill="#74b3de" opacity="1.00" stroke="#74b3de" stroke-width="0.25"/>
</svg>