<?xml version="1.0" encoding="utf-8"?>
<svg xmlns="http://www.w3.org/2000/svg" height="512pt" version="1.1" viewBox="0 0 512 512" width="512pt">
<path d="M 0.00 0.00 L 512.00 0.00 L 512.00 512.00 L 0.00 512.00 L 0.00 0.00 Z" fill="transparent" opacity="1.00" stroke="transparent" stroke-width="0.25"/>
<path d="M 124.47 165.38 C 130.65 159.69 139.78 157.17 147.92 159.61 C 153.36 161.22 158.75 164.00 162.19 168.65 C 166.18 173.71 169.41 179.75 169.72 186.31 C 165.50 188.59 160.46 190.20 155.61 189.69 C 154.10 185.60 153.43 181.01 150.23 177.78 C 146.00 173.31 137.31 172.28 133.37 177.63 C 131.60 180.03 130.69 183.02 130.42 185.97 C 129.63 202.45 130.71 219.01 129.72 235.46 C 131.04 236.15 132.54 236.23 134.00 236.20 C 151.32 236.11 168.65 236.67 185.98 236.53 C 232.33 236.73 278.70 237.51 325.04 236.16 C 335.35 236.10 345.66 235.56 355.97 236.08 C 363.63 236.45 371.32 236.39 378.96 235.65 C 383.65 235.14 388.57 236.85 391.89 240.21 C 395.86 245.68 397.11 253.74 393.34 259.63 C 391.96 260.65 390.51 261.55 388.97 262.31 C 388.35 262.35 387.11 262.44 386.49 262.49 C 384.95 271.82 382.70 281.04 379.57 289.98 C 374.26 306.51 367.07 322.60 356.78 336.67 C 354.32 340.15 350.90 342.91 348.82 346.65 C 356.59 347.00 364.77 346.30 372.17 349.00 C 368.21 350.03 364.11 350.33 360.04 350.46 C 327.70 351.66 295.34 351.06 262.99 351.16 C 238.00 351.08 213.01 351.25 188.02 351.06 C 172.39 350.27 156.73 350.61 141.09 350.08 C 136.92 349.65 132.61 350.01 128.54 348.93 L 127.74 347.97 C 132.75 346.82 137.88 346.65 142.98 346.20 C 134.81 341.73 127.90 335.22 121.48 328.53 C 105.21 310.47 96.62 286.67 93.22 262.89 C 89.77 262.58 85.38 261.62 84.38 257.74 C 82.46 250.36 84.83 240.82 92.19 237.31 C 98.49 233.80 105.78 236.53 112.56 235.87 C 112.53 221.60 112.50 207.33 112.55 193.06 C 113.04 182.85 116.75 172.35 124.47 165.38 Z" fill="#0b334d" opacity="1.00" stroke="#0b334d" stroke-width="0.25"/>
<path d="M 126.36 170.38 C 130.69 165.54 137.39 162.68 143.89 163.76 C 149.76 164.91 155.67 167.60 159.29 172.54 C 161.59 175.86 163.67 179.42 164.71 183.37 C 162.73 183.86 160.75 184.38 158.77 184.88 C 157.42 178.58 153.37 172.16 146.93 170.18 C 142.29 168.52 136.84 168.85 132.80 171.81 C 127.28 175.54 125.73 182.72 125.68 188.97 C 125.52 204.54 125.34 220.12 125.44 235.68 C 122.82 236.55 120.05 236.11 117.35 236.07 C 117.37 222.04 117.28 208.00 117.36 193.96 C 117.79 185.48 120.04 176.45 126.36 170.38 Z" fill="#87e5fd" opacity="1.00" stroke="#87e5fd" stroke-width="0.25"/>
<path d="M 172.10 200.90 C 173.71 199.50 175.33 198.11 176.95 196.73 C 177.47 198.51 177.99 200.30 178.54 202.08 C 177.58 203.74 176.61 205.39 175.65 207.05 C 174.43 205.02 173.25 202.97 172.10 200.90 Z" fill="#87e5fd" opacity="1.00" stroke="#87e5fd" stroke-width="0.25"/>
<path d="M 146.68 208.43 C 148.24 206.61 149.76 204.77 151.26 202.90 C 152.08 204.59 153.06 206.23 153.52 208.06 C 153.19 210.07 151.99 211.79 151.17 213.62 C 150.82 213.65 150.11 213.72 149.75 213.76 C 148.82 211.93 147.80 210.15 146.68 208.43 Z" fill="#87e5fd" opacity="1.00" stroke="#87e5fd" stroke-width="0.25"/>
<path d="M 181.24 212.78 C 182.24 211.71 183.49 210.89 184.87 210.39 C 186.58 210.71 186.56 212.87 187.13 214.18 C 187.73 215.93 185.66 217.08 184.87 218.39 C 183.29 216.91 180.81 215.24 181.24 212.78 Z" fill="#deeff8" opacity="1.00" stroke="#deeff8" stroke-width="0.25"/>
<path d="M 166.16 216.61 C 167.84 217.76 169.70 218.99 170.42 221.01 C 170.51 223.49 168.33 225.25 167.10 227.18 C 164.56 226.03 163.67 223.21 162.41 220.96 C 163.64 219.49 164.89 218.04 166.16 216.61 Z" fill="#deeff8" opacity="1.00" stroke="#deeff8" stroke-width="0.25"/>
<path d="M 154.36 224.33 C 156.40 223.96 157.71 225.33 158.79 226.85 C 157.79 228.15 156.82 229.48 155.85 230.80 C 154.92 228.76 154.08 226.62 154.36 224.33 Z" fill="#87e5fd" opacity="1.00" stroke="#87e5fd" stroke-width="0.25"/>
<path d="M 90.79 244.42 C 92.67 241.25 96.54 240.25 99.99 240.22 C 113.97 241.11 127.99 241.16 142.00 241.16 C 198.68 241.13 255.36 242.65 312.04 241.37 C 326.70 241.46 341.35 240.25 356.01 240.98 C 364.31 241.56 372.63 240.87 380.92 240.38 C 384.64 240.20 388.39 242.37 389.90 245.80 C 391.24 248.93 390.78 252.44 390.52 255.73 C 389.16 256.56 387.82 257.64 386.14 257.65 C 370.48 259.29 354.69 257.86 339.00 259.20 C 293.02 259.61 247.04 260.72 201.05 260.37 C 183.37 259.84 165.68 260.36 147.99 260.06 C 128.51 259.31 108.92 259.72 89.54 257.47 C 87.47 253.35 88.59 248.27 90.79 244.42 Z" fill="#87e5fd" opacity="1.00" stroke="#87e5fd" stroke-width="0.25"/>
<path d="M 98.14 263.14 C 131.38 265.03 164.69 264.92 197.98 264.88 C 214.64 265.32 231.30 265.10 247.96 265.12 C 285.08 264.51 322.22 264.59 359.33 263.35 C 358.55 266.12 357.74 268.90 356.52 271.52 C 352.86 279.16 350.20 287.30 345.48 294.40 C 335.99 310.87 323.28 326.51 305.70 334.68 C 292.62 341.68 277.75 343.61 263.36 346.18 C 250.50 346.20 237.61 346.28 224.75 346.19 C 220.90 345.12 217.00 344.17 213.00 343.92 C 201.73 343.08 190.66 340.71 179.64 338.29 C 166.65 334.38 153.47 330.80 141.26 324.73 C 134.53 321.20 127.35 318.39 121.22 313.82 C 118.97 312.18 116.52 310.84 113.94 309.82 L 113.27 309.53 C 110.52 303.67 107.68 297.83 105.23 291.84 C 102.23 282.46 99.08 272.99 98.14 263.14 Z" fill="#ffffff" opacity="1.00" stroke="#ffffff" stroke-width="0.25"/>
<path d="M 359.33 263.35 C 366.79 263.31 374.26 263.30 381.72 262.75 C 378.60 278.70 373.61 294.23 367.15 309.13 C 360.77 322.92 352.69 336.21 341.26 346.41 C 315.29 346.04 289.31 346.93 263.36 346.18 C 277.75 343.61 292.62 341.68 305.70 334.68 C 323.28 326.51 335.99 310.87 345.48 294.40 C 350.20 287.30 352.86 279.16 356.52 271.52 C 357.74 268.90 358.55 266.12 359.33 263.35 Z" fill="#deeff8" opacity="1.00" stroke="#deeff8" stroke-width="0.25"/>
<path d="M 113.94 309.82 C 116.52 310.84 118.97 312.18 121.22 313.82 C 127.35 318.39 134.53 321.20 141.26 324.73 C 153.47 330.80 166.65 334.38 179.64 338.29 C 190.66 340.71 201.73 343.08 213.00 343.92 C 217.00 344.17 220.90 345.12 224.75 346.19 C 201.50 346.94 178.24 345.37 154.98 345.73 C 151.95 346.09 149.16 344.81 146.70 343.20 C 133.34 334.92 121.64 323.58 113.94 309.82 Z" fill="#deeff8" opacity="1.00" stroke="#deeff8" stroke-width="0.25"/>
</svg>