<?xml version="1.0" encoding="utf-8"?>
<svg xmlns="http://www.w3.org/2000/svg" height="512pt" version="1.1" viewBox="0 0 512 512" width="512pt">
<path d="M 0.00 0.00 L 512.00 0.00 L 512.00 512.00 L 0.00 512.00 L 0.00 0.00 Z" fill="transparent" opacity="1.00" stroke="transparent" stroke-width="0.25"/>
<path d="M 194.95 108.96 C 196.83 96.26 209.20 86.12 222.03 86.96 C 230.52 88.07 238.22 93.78 241.76 101.58 C 257.54 97.17 274.70 100.37 289.05 107.82 C 292.39 100.02 300.60 94.57 309.13 94.94 C 317.12 96.07 325.37 100.40 329.07 107.84 C 334.84 118.66 330.09 133.56 319.08 139.01 C 321.75 146.01 324.07 153.22 324.78 160.72 C 327.32 160.66 329.85 160.89 332.33 161.49 C 333.37 163.48 333.55 165.70 333.44 167.91 C 332.85 168.92 332.29 169.95 331.71 170.97 C 336.76 182.87 334.87 197.17 327.76 207.84 C 325.43 212.04 321.75 215.14 318.45 218.52 C 318.39 218.83 318.29 219.46 318.23 219.77 C 334.37 234.41 346.87 253.61 351.97 274.92 C 354.48 286.18 354.42 298.31 350.31 309.19 C 348.53 313.76 344.10 319.25 338.60 316.70 C 337.01 317.96 335.37 319.16 333.63 320.20 C 334.40 324.78 334.92 329.41 334.87 334.06 C 340.25 336.81 344.60 341.04 349.30 344.74 C 350.34 345.79 351.86 345.71 353.22 345.95 C 356.10 341.41 362.20 340.97 366.93 342.35 C 371.41 343.41 374.83 346.92 376.80 350.96 C 380.42 350.66 383.37 353.35 383.73 356.89 C 385.58 368.70 378.66 379.71 371.03 388.08 C 375.43 387.52 378.97 390.13 381.45 393.47 C 387.04 394.18 393.05 394.78 397.44 398.74 C 398.70 402.05 398.41 406.11 395.50 408.46 C 389.51 414.28 380.54 413.58 372.90 414.89 C 371.33 416.67 370.59 419.08 368.75 420.64 C 366.95 422.25 364.50 422.70 362.22 423.14 C 351.20 424.89 339.98 424.34 328.94 423.06 C 316.35 421.62 303.55 422.00 291.11 424.52 C 270.35 428.68 249.21 433.19 227.92 431.28 C 215.44 430.14 203.59 424.89 190.93 425.17 C 179.83 424.70 169.08 428.41 157.98 428.10 C 148.92 427.90 139.10 426.83 131.72 421.06 C 128.43 418.50 126.27 414.80 125.08 410.84 C 118.84 409.90 112.30 409.37 106.52 406.67 C 103.80 405.61 103.53 401.46 105.94 399.95 C 108.36 398.16 111.09 396.86 113.81 395.62 C 126.08 390.36 139.50 387.60 152.85 387.99 C 153.07 388.03 153.50 388.11 153.72 388.15 C 149.46 386.07 145.50 382.76 144.08 378.09 C 141.30 369.45 144.94 359.79 151.62 353.99 C 149.29 331.91 152.21 309.80 154.84 287.89 C 158.30 262.97 162.30 237.95 170.42 214.06 C 173.71 205.04 177.46 196.14 182.45 187.92 C 183.19 182.62 183.18 177.21 184.12 171.92 C 186.61 156.83 192.35 142.05 201.81 129.95 C 196.61 124.37 193.41 116.63 194.95 108.96 Z" fill="#053252" opacity="1.00" stroke="#053252" stroke-width="0.25"/>
<path d="M 200.96 115.99 C 198.44 104.32 209.31 92.60 220.97 93.26 C 224.43 93.29 227.56 95.07 230.49 96.74 C 234.69 99.76 236.59 104.76 238.66 109.30 C 252.03 103.78 267.40 105.39 280.54 110.80 C 301.40 119.34 317.13 139.72 318.96 162.34 C 314.71 163.44 310.41 164.60 305.98 164.50 C 299.28 164.69 292.63 163.37 285.93 163.81 C 284.27 163.44 284.33 165.50 283.81 166.47 C 290.74 167.85 297.83 168.31 304.81 169.27 C 306.98 176.13 311.07 183.01 317.94 185.99 C 317.40 190.97 315.69 196.40 311.57 199.56 C 305.00 202.91 296.89 200.94 291.03 196.97 C 287.50 194.68 285.43 190.70 285.16 186.55 C 284.27 186.55 283.39 186.56 282.51 186.58 C 281.47 193.05 286.05 198.80 291.44 201.75 C 298.31 205.77 307.65 207.07 314.51 202.39 C 319.45 198.43 320.98 191.80 321.70 185.82 C 323.87 183.77 325.92 181.58 327.98 179.41 C 329.81 190.91 325.90 203.32 317.14 211.12 C 308.72 219.67 297.22 224.21 285.87 227.36 C 276.47 230.05 266.68 230.73 256.97 231.40 C 253.15 231.54 249.32 231.24 245.53 230.70 C 244.74 231.43 243.97 232.18 243.20 232.93 C 247.54 235.83 252.90 236.23 257.97 236.57 C 276.96 237.42 296.00 232.24 312.48 222.91 C 329.97 237.98 343.39 258.75 347.02 281.79 C 348.10 290.16 347.84 298.90 344.97 306.90 C 344.30 309.10 342.64 310.70 340.77 311.92 C 340.35 308.68 340.22 305.41 339.53 302.22 C 338.43 302.19 337.34 302.17 336.25 302.15 C 335.45 306.19 335.15 310.31 334.24 314.34 C 332.36 314.44 330.48 314.48 328.61 314.48 C 323.02 310.46 328.28 303.14 325.30 298.07 C 324.67 298.50 323.40 299.36 322.77 299.79 C 321.60 303.37 320.66 307.42 317.26 309.59 C 312.71 309.83 308.12 306.86 306.81 302.46 C 305.65 297.51 308.76 293.13 310.47 288.74 C 309.64 287.95 308.80 287.16 307.96 286.39 C 306.21 287.87 304.89 289.76 303.75 291.73 C 302.17 291.77 300.58 291.73 299.00 291.61 C 298.63 291.06 297.87 289.97 297.50 289.42 C 296.86 281.93 300.89 275.32 303.81 268.74 C 308.28 259.71 313.04 249.22 309.34 239.09 C 308.47 239.52 307.26 239.49 306.64 240.31 C 306.32 243.71 306.80 247.20 305.79 250.53 C 303.18 259.79 297.90 267.97 294.24 276.81 C 272.03 266.67 251.78 251.57 237.22 231.84 C 232.10 225.42 228.31 218.09 223.37 211.56 C 222.59 209.95 220.66 210.46 219.23 210.21 C 219.45 211.53 219.46 212.92 220.01 214.16 C 231.97 239.25 252.02 260.09 275.96 274.03 C 281.20 277.18 286.56 280.27 292.42 282.12 C 292.67 286.02 291.73 290.52 294.50 293.76 C 296.12 296.04 299.01 296.53 301.57 297.01 C 301.54 300.07 300.94 303.39 302.54 306.18 C 303.75 308.87 306.00 310.83 308.04 312.88 C 291.32 321.98 271.42 322.97 252.87 320.69 C 234.42 318.26 216.15 312.69 200.36 302.68 C 193.27 297.91 186.37 292.52 181.49 285.41 C 178.15 280.98 175.57 276.08 173.11 271.14 C 172.49 271.54 171.25 272.36 170.63 272.76 C 175.08 289.23 187.96 302.18 202.28 310.77 C 224.23 323.26 249.87 328.80 275.02 327.79 C 287.67 327.05 300.72 324.52 311.45 317.46 C 313.78 314.76 317.42 314.83 320.56 313.81 C 321.63 317.04 324.28 319.10 327.35 320.30 C 330.73 336.87 328.29 355.16 318.10 368.99 C 306.01 385.23 284.97 392.62 265.24 392.26 C 265.61 384.81 264.14 376.77 258.60 371.37 C 256.98 367.86 253.91 365.44 249.92 365.36 C 246.97 360.04 239.69 361.10 234.98 363.18 C 232.23 362.11 229.32 362.24 226.44 362.33 C 215.25 348.92 197.01 339.66 179.37 343.96 C 179.20 346.18 180.89 347.76 183.07 347.44 C 197.82 346.92 211.86 354.34 221.70 365.00 C 215.99 368.96 210.81 375.05 211.41 382.45 C 212.54 382.53 213.67 382.60 214.80 382.67 C 215.89 379.02 217.16 375.33 219.97 372.60 C 220.26 373.14 220.84 374.21 221.13 374.75 C 221.79 374.72 223.10 374.67 223.75 374.65 C 224.14 372.61 224.33 370.55 224.47 368.49 C 226.99 367.76 229.58 367.31 232.19 367.07 C 232.79 369.13 233.18 371.26 233.93 373.29 C 234.73 373.34 236.33 373.43 237.13 373.47 C 237.52 371.41 237.93 369.34 238.38 367.29 C 240.45 367.02 242.52 366.80 244.60 366.64 C 244.83 369.29 244.69 371.96 244.66 374.62 C 245.74 374.68 246.82 374.74 247.91 374.81 C 248.59 373.20 249.26 371.59 249.92 369.98 C 251.15 370.57 252.37 371.20 253.60 371.83 C 253.10 374.43 252.55 377.02 252.45 379.67 C 254.20 379.58 255.76 378.90 257.25 378.03 C 259.91 381.94 259.91 386.94 260.13 391.49 C 254.44 387.51 249.64 382.06 242.94 379.65 C 237.17 377.70 230.51 378.13 225.26 381.31 C 219.97 384.66 216.04 390.56 216.12 396.97 C 215.71 402.53 217.60 407.95 220.34 412.71 C 208.11 406.96 195.94 401.06 183.79 395.14 C 178.71 392.49 173.52 389.55 170.15 384.76 C 166.04 378.82 162.27 372.50 160.39 365.47 C 156.16 350.34 156.48 334.41 157.73 318.89 C 160.71 287.74 164.67 256.47 173.13 226.27 C 176.65 213.29 181.78 200.75 188.50 189.09 C 189.51 175.34 191.40 161.30 197.58 148.79 C 200.38 142.83 203.43 136.84 208.00 132.03 C 208.10 132.31 208.31 132.89 208.41 133.17 C 208.99 132.92 210.17 132.42 210.75 132.17 C 210.56 130.67 211.10 128.65 209.44 127.82 C 205.35 125.01 201.69 121.09 200.96 115.99 Z" fill="#feffff" opacity="1.00" stroke="#feffff" stroke-width="0.25"/>
<path d="M 294.33 110.96 C 295.95 106.14 300.11 102.46 305.10 101.49 C 313.18 100.22 322.37 105.10 324.79 113.15 C 327.17 121.03 323.24 130.05 316.03 133.91 C 314.85 131.92 313.61 129.97 312.35 128.04 C 315.45 125.10 318.49 121.46 318.47 116.95 C 318.62 114.05 317.63 110.49 314.62 109.44 C 311.69 108.88 308.29 108.82 305.76 110.63 C 303.72 112.03 302.07 113.90 300.28 115.59 C 298.33 114.00 296.35 112.45 294.33 110.96 Z" fill="#fcfeff" opacity="1.00" stroke="#fcfeff" stroke-width="0.25"/>
<path d="M 214.31 104.36 C 218.27 102.07 223.33 103.70 226.39 106.76 C 228.62 108.97 231.28 111.57 230.67 115.02 C 226.20 116.05 223.21 119.52 220.11 122.59 C 216.70 123.31 214.02 120.34 212.02 118.01 C 208.81 113.94 209.61 106.96 214.31 104.36 Z" fill="#033152" opacity="1.00" stroke="#033152" stroke-width="0.25"/>
<path d="M 297.63 149.63 C 299.80 148.60 302.05 148.59 304.20 149.69 C 305.30 152.62 306.12 155.92 304.96 158.97 C 304.22 160.79 302.10 161.81 300.23 161.08 C 295.35 159.81 296.61 153.30 297.63 149.63 Z" fill="#033050" opacity="1.00" stroke="#033050" stroke-width="0.25"/>
<path d="M 259.90 163.26 C 256.31 159.75 257.30 152.93 261.67 150.46 C 262.57 150.49 264.37 150.54 265.27 150.56 C 265.78 151.01 266.81 151.89 267.33 152.34 C 267.56 154.92 267.56 157.51 267.48 160.10 C 266.02 162.82 263.00 165.03 259.90 163.26 Z" fill="#063355" opacity="1.00" stroke="#063355" stroke-width="0.25"/>
<path d="M 238.93 169.20 C 243.63 167.23 249.17 166.95 253.86 169.11 C 255.93 169.97 256.58 172.34 257.78 174.05 C 254.77 179.23 248.42 180.47 242.95 181.15 C 239.83 181.29 235.79 180.34 234.63 177.05 C 233.76 173.82 235.89 170.34 238.93 169.20 Z" fill="#fd9e7e" opacity="1.00" stroke="#fd9e7e" stroke-width="0.25"/>
<path d="M 334.71 340.87 C 338.12 343.41 341.39 346.14 344.60 348.94 C 342.17 350.60 340.25 352.94 339.99 355.97 C 336.79 358.61 337.82 362.88 339.08 366.24 C 342.36 368.22 342.36 363.64 342.14 361.52 C 343.36 361.58 344.58 361.64 345.82 361.68 C 345.46 359.39 345.22 357.09 345.31 354.78 C 347.09 353.72 348.78 352.14 351.01 352.31 C 353.71 352.15 355.65 354.45 357.92 355.58 C 358.50 355.24 359.66 354.56 360.25 354.22 C 360.32 353.71 360.47 352.69 360.55 352.18 C 359.62 350.60 358.71 349.02 357.86 347.41 C 360.84 347.06 364.01 346.79 366.85 348.02 C 368.77 348.99 370.19 350.69 371.75 352.14 C 363.61 354.65 356.29 359.34 350.02 365.04 C 344.94 369.64 341.01 375.78 339.92 382.63 C 339.27 386.60 340.04 390.60 340.63 394.54 C 330.17 391.65 319.61 389.19 309.22 386.09 C 324.01 375.87 333.38 358.73 334.71 340.87 Z" fill="#feffff" opacity="1.00" stroke="#feffff" stroke-width="0.25"/>
<path d="M 362.17 363.10 C 367.08 360.17 372.44 357.56 378.26 357.25 C 378.87 368.80 372.37 379.54 363.83 386.82 C 358.86 391.17 352.65 394.44 345.94 394.66 C 345.45 389.35 344.37 383.66 346.73 378.62 C 349.88 371.83 355.89 366.90 362.17 363.10 Z" fill="#fefefd" opacity="1.00" stroke="#fefefd" stroke-width="0.25"/>
<path d="M 149.63 365.75 C 150.55 363.91 151.68 362.18 153.06 360.65 C 154.90 369.20 158.19 377.39 162.99 384.71 C 158.81 383.32 153.79 382.88 150.95 379.08 C 147.78 375.37 148.52 370.11 149.63 365.75 Z" fill="#fbffff" opacity="1.00" stroke="#fbffff" stroke-width="0.25"/>
<path d="M 364.34 364.33 C 366.73 362.80 369.54 361.36 372.42 362.56 C 374.19 364.42 373.56 367.20 373.78 369.53 C 371.56 371.10 368.89 373.55 365.99 372.24 C 363.29 370.65 364.72 366.92 364.34 364.33 Z" fill="#fb9f81" opacity="1.00" stroke="#fb9f81" stroke-width="0.25"/>
<path d="M 348.24 383.44 C 347.62 377.41 352.48 372.32 358.19 371.25 C 362.79 374.24 360.09 380.76 356.76 383.67 C 355.24 385.56 352.79 385.57 350.59 385.61 C 349.81 384.88 349.03 384.15 348.24 383.44 Z" fill="#fc9d7e" opacity="1.00" stroke="#fc9d7e" stroke-width="0.25"/>
<path d="M 222.19 393.52 C 224.55 386.49 232.58 382.70 239.60 384.67 C 247.08 386.86 252.13 393.20 257.93 397.99 C 256.60 402.97 253.28 407.12 249.89 410.89 C 245.05 415.99 236.56 418.95 230.24 414.80 C 225.30 411.87 223.03 406.33 221.69 401.02 C 222.46 401.98 223.23 402.95 224.01 403.92 C 226.17 403.00 229.19 402.87 230.36 400.50 C 231.19 397.54 230.83 393.64 227.90 391.94 C 225.95 390.48 223.75 392.36 222.19 393.52 Z" fill="#fefffd" opacity="1.00" stroke="#fefffd" stroke-width="0.25"/>
<path d="M 263.98 398.42 C 277.15 399.31 290.07 395.71 302.06 390.56 C 306.13 391.19 310.10 392.55 314.17 393.32 C 307.24 394.10 300.23 393.46 293.33 394.72 C 293.35 395.34 293.40 396.59 293.43 397.21 C 303.25 395.65 313.19 396.81 323.07 396.36 C 329.33 397.23 335.22 399.92 341.53 400.70 C 346.80 402.01 351.91 399.77 356.97 398.62 C 362.85 398.44 368.78 398.92 374.53 400.22 C 375.95 400.58 377.40 400.46 378.84 400.32 C 378.34 399.69 377.33 398.42 376.82 397.79 C 371.76 396.19 366.39 396.14 361.14 396.09 C 363.42 394.72 365.62 393.21 367.79 391.67 C 370.42 391.83 373.04 392.12 375.65 392.54 C 376.76 394.06 377.59 395.91 379.19 397.01 C 383.90 398.12 389.42 397.41 393.39 400.68 C 394.75 403.02 393.11 405.72 390.99 406.90 C 384.99 409.94 378.09 409.53 371.66 410.86 C 368.63 411.61 367.77 414.92 366.12 417.14 C 364.85 418.53 362.85 418.62 361.14 419.02 C 345.76 421.31 330.34 418.21 314.95 417.91 C 292.93 417.56 271.90 425.36 250.06 426.80 C 236.53 428.61 222.84 426.84 209.79 423.11 C 199.38 420.72 188.53 419.85 177.96 421.64 C 165.15 423.71 151.50 425.29 139.12 420.42 C 133.62 418.31 129.85 413.36 128.05 407.89 C 121.62 405.70 114.54 405.98 108.34 403.03 C 124.39 393.70 143.63 390.45 162.00 392.26 C 165.00 392.67 168.53 391.76 170.99 393.99 C 177.53 399.12 185.34 402.14 192.78 405.67 C 191.96 405.66 190.31 405.63 189.48 405.62 C 174.32 405.05 158.78 404.03 143.96 407.95 C 144.16 408.47 144.56 409.53 144.77 410.05 C 147.88 409.94 150.91 409.13 153.99 408.74 C 167.74 407.07 181.63 407.84 195.39 409.02 C 197.66 409.27 200.04 409.36 202.08 410.53 C 209.79 414.54 217.82 417.91 226.06 420.68 C 232.57 422.77 240.08 423.82 246.33 420.35 C 255.11 416.00 260.56 407.29 263.98 398.42 Z" fill="#feffff" opacity="1.00" stroke="#feffff" stroke-width="0.25"/>
<path d="M 241.00 393.00 C 242.99 391.58 245.77 390.90 248.11 391.85 C 251.54 394.04 251.91 400.20 248.38 402.48 C 246.25 404.08 243.23 403.99 240.79 403.24 C 239.82 401.95 239.12 400.50 238.34 399.11 C 239.16 397.06 239.55 394.72 241.00 393.00 Z" fill="#fc9e7c" opacity="1.00" stroke="#fc9e7c" stroke-width="0.25"/>
<path d="M 222.19 393.52 C 223.75 392.36 225.95 390.48 227.90 391.94 C 230.83 393.64 231.19 397.54 230.36 400.50 C 229.19 402.87 226.17 403.00 224.01 403.92 C 223.23 402.95 222.46 401.98 221.69 401.02 C 221.67 398.52 221.35 395.93 222.19 393.52 Z" fill="#faa080" opacity="1.00" stroke="#faa080" stroke-width="0.25"/>
<path d="M 130.28 397.95 C 143.10 395.00 156.56 395.37 169.47 397.47 C 169.49 398.10 169.52 399.36 169.54 399.99 C 163.67 400.30 157.87 398.78 152.00 398.77 C 144.91 398.42 137.88 399.51 130.86 400.25 C 130.64 399.49 130.45 398.72 130.28 397.95 Z" fill="#082d45" opacity="1.00" stroke="#082d45" stroke-width="0.25"/>
<path d="M 287.67 402.51 C 292.76 401.61 297.93 401.19 303.10 400.99 C 304.61 400.78 306.10 401.25 307.28 402.20 C 303.70 404.68 299.10 404.00 295.01 404.56 C 285.69 405.47 276.31 405.87 266.98 404.92 C 266.73 404.52 266.24 403.71 265.99 403.30 L 266.18 403.35 C 274.55 405.82 283.37 404.68 291.92 404.17 C 296.25 403.64 300.66 403.69 304.92 402.68 L 304.74 402.30 C 304.40 402.12 303.73 401.76 303.40 401.58 C 298.14 401.58 292.92 402.45 287.67 402.51 Z" fill="#778c9b" opacity="1.00" stroke="#778c9b" stroke-width="0.25"/>
<path d="M 287.67 402.51 C 292.92 402.45 298.14 401.58 303.40 401.58 C 303.73 401.76 304.40 402.12 304.74 402.30 L 304.92 402.68 C 300.66 403.69 296.25 403.64 291.92 404.17 C 283.37 404.68 274.55 405.82 266.18 403.35 C 267.99 402.55 269.96 402.37 271.93 402.51 C 277.17 402.76 282.42 402.70 287.67 402.51 Z" fill="#09253b" opacity="1.00" stroke="#09253b" stroke-width="0.25"/>
<path d="M 143.96 407.95 C 158.78 404.03 174.32 405.05 189.48 405.62 C 191.66 406.33 193.57 407.66 195.39 409.02 C 181.63 407.84 167.74 407.07 153.99 408.74 C 150.91 409.13 147.88 409.94 144.77 410.05 C 144.56 409.53 144.16 408.47 143.96 407.95 Z" fill="#0a2c41" opacity="1.00" stroke="#0a2c41" stroke-width="0.25"/>
<path d="M 282.92 408.53 C 300.65 409.66 318.40 407.92 335.96 405.57 C 341.91 404.95 348.00 403.98 353.92 405.43 C 353.88 405.99 353.81 407.12 353.78 407.68 C 341.11 407.00 328.65 409.96 316.06 410.70 C 303.41 412.09 290.66 411.75 277.97 411.20 C 271.61 410.54 265.41 412.46 259.10 412.37 C 259.43 411.93 260.08 411.04 260.41 410.60 C 267.52 407.81 275.41 408.08 282.92 408.53 Z" fill="#092b44" opacity="1.00" stroke="#092b44" stroke-width="0.25"/>
</svg>