<svg xmlns="http://www.w3.org/2000/svg" height="512pt" version="1.1" viewBox="0 0 512 512" width="512pt">
<path d="M 0.00 0.00 L 512.00 0.00 L 512.00 512.00 L 0.00 512.00 L 0.00 0.00 Z" fill="transparent" opacity="1.00" stroke="transparent" stroke-width="0.25" data-index="0" style="opacity: 1;"></path>
<path d="M 122.78 259.85 C 125.43 257.43 129.97 258.12 132.11 260.91 C 134.91 263.66 133.58 267.99 131.93 271.01 C 135.54 270.44 138.96 269.01 142.60 268.57 C 156.54 267.65 170.44 269.77 184.08 272.45 C 187.93 273.30 191.91 273.92 195.44 275.79 C 195.45 277.24 195.45 278.70 195.44 280.17 C 195.12 280.37 194.49 280.77 194.17 280.96 C 192.10 282.30 189.85 283.43 187.36 283.66 C 188.61 281.99 189.84 280.32 191.08 278.65 C 182.34 276.47 173.43 275.05 164.52 273.75 C 156.13 272.84 147.50 271.73 139.17 273.67 C 126.45 277.09 114.53 283.12 103.90 290.85 C 99.01 294.48 94.02 298.13 90.23 302.97 C 93.25 306.92 97.65 309.43 102.31 310.97 C 117.90 316.24 134.63 316.13 150.87 315.46 C 150.37 311.27 149.14 306.93 146.02 303.90 C 141.91 299.96 136.55 297.74 131.44 295.42 C 131.46 294.36 131.48 293.30 131.49 292.24 C 138.05 292.18 143.67 296.48 148.57 300.39 C 152.47 303.30 153.64 308.20 154.89 312.63 C 166.30 305.48 176.50 296.54 185.25 286.31 C 185.25 288.89 184.26 291.28 183.18 293.58 C 184.72 294.27 186.29 295.01 188.02 295.02 C 205.37 295.37 222.77 294.30 240.09 295.57 C 238.38 296.60 236.11 297.20 235.23 299.19 C 231.99 305.09 226.94 309.74 223.66 315.62 C 222.70 317.16 222.79 319.04 222.60 320.77 C 221.79 325.11 221.55 329.53 221.89 333.93 C 222.49 342.88 222.42 351.86 222.84 360.83 C 242.30 360.68 261.77 360.48 281.23 360.68 C 282.65 360.67 284.08 360.69 285.50 360.70 C 337.24 360.74 388.98 360.75 440.72 360.69 C 440.77 351.11 440.76 341.52 440.75 331.94 C 440.96 329.84 439.62 328.13 438.56 326.47 C 438.15 326.45 437.34 326.41 436.94 326.39 C 436.79 324.98 436.69 323.58 436.52 322.19 L 436.36 321.13 C 437.23 320.96 438.97 320.64 439.84 320.47 C 439.94 320.14 440.14 319.47 440.24 319.14 C 441.47 310.93 440.36 302.49 440.86 294.19 C 438.07 289.95 440.03 284.07 444.84 282.43 C 448.69 282.10 451.88 284.45 453.55 287.77 C 453.46 289.14 453.36 290.52 453.24 291.90 C 452.58 292.81 452.26 293.82 452.27 294.94 C 452.33 333.23 452.22 371.52 452.32 409.81 C 459.56 409.81 466.80 409.80 474.04 409.79 C 475.57 409.73 477.07 410.08 478.55 410.51 C 478.54 411.49 478.55 412.48 478.57 413.47 C 475.14 414.59 471.52 414.03 467.99 414.12 C 460.08 414.02 452.15 414.28 444.25 414.04 C 443.04 413.59 441.85 413.10 440.67 412.62 C 440.67 411.68 440.69 410.74 440.71 409.80 C 440.71 403.61 440.94 397.42 440.61 391.24 C 437.88 389.07 434.23 389.98 431.03 389.87 C 377.02 390.15 323.01 389.89 269.00 390.04 C 207.66 389.85 146.31 390.17 84.97 389.94 C 82.99 389.98 81.12 390.67 79.26 391.25 C 78.99 391.32 78.45 391.47 78.18 391.54 C 78.10 397.61 78.34 403.68 78.14 409.74 C 77.95 410.46 77.57 411.90 77.38 412.61 C 73.01 413.08 68.63 412.93 64.25 412.78 C 57.61 412.80 50.97 413.15 44.33 412.87 C 44.46 411.83 44.59 410.81 44.72 409.79 C 52.25 409.77 59.77 409.90 67.30 409.73 C 66.92 374.17 67.26 338.59 67.13 303.02 C 66.96 299.06 67.92 294.79 65.75 291.20 C 65.73 290.38 65.69 288.72 65.67 287.89 C 67.06 285.50 68.97 282.80 71.99 282.61 C 75.14 282.16 77.58 284.71 79.11 287.14 C 93.37 281.59 107.42 275.49 121.87 270.44 C 119.63 267.34 119.29 262.18 122.78 259.85 Z" fill="#0b375c" opacity="1.00" stroke="#0b375c" stroke-width="0.25" data-index="1" style="opacity: 1;"></path>
<path d="M 139.17 273.67 C 147.50 271.73 156.13 272.84 164.52 273.75 C 173.43 275.05 182.34 276.47 191.08 278.65 C 189.84 280.32 188.61 281.99 187.36 283.66 C 186.66 284.54 185.96 285.43 185.25 286.31 C 176.50 296.54 166.30 305.48 154.89 312.63 C 153.64 308.20 152.47 303.30 148.57 300.39 C 143.67 296.48 138.05 292.18 131.49 292.24 C 131.48 293.30 131.46 294.36 131.44 295.42 C 136.55 297.74 141.91 299.96 146.02 303.90 C 149.14 306.93 150.37 311.27 150.87 315.46 C 134.63 316.13 117.90 316.24 102.31 310.97 C 97.65 309.43 93.25 306.92 90.23 302.97 C 94.02 298.13 99.01 294.48 103.90 290.85 C 114.53 283.12 126.45 277.09 139.17 273.67 Z" fill="#a8eaff" opacity="1.00" stroke="#a8eaff" stroke-width="0.25" data-index="2"></path>
<path d="M 78.41 292.52 C 92.78 286.40 107.36 280.82 121.88 275.06 C 111.94 279.49 103.06 285.86 94.55 292.57 C 91.54 295.00 88.81 297.76 86.35 300.75 C 85.67 306.79 91.25 310.72 96.01 313.09 C 96.91 313.80 99.07 313.84 98.63 315.41 C 91.33 320.33 83.51 325.03 78.44 332.46 C 77.91 322.66 78.35 312.83 78.10 303.02 C 78.23 299.52 77.36 295.94 78.41 292.52 Z" fill="#c7714b" opacity="1.00" stroke="#c7714b" stroke-width="0.25" data-index="3"></path>
<path d="M 187.36 283.66 C 189.85 283.43 192.10 282.30 194.17 280.96 C 192.01 285.47 188.48 289.10 185.03 292.63 C 200.71 293.25 216.40 292.64 232.08 292.97 C 234.47 292.87 236.86 292.80 239.25 292.61 C 240.72 290.98 242.60 289.47 244.91 289.44 C 256.60 288.96 268.29 288.62 279.99 288.39 C 286.90 288.36 294.09 287.95 300.62 290.61 C 301.87 291.04 302.63 292.16 302.96 293.40 C 337.60 293.49 372.24 293.39 406.87 293.45 C 412.06 293.62 417.52 293.46 422.31 295.73 C 426.64 298.74 429.52 303.31 432.52 307.55 C 435.02 311.46 438.28 314.90 440.24 319.14 C 440.14 319.47 439.94 320.14 439.84 320.47 C 438.97 320.64 437.23 320.96 436.36 321.13 C 432.93 315.24 428.88 309.73 424.79 304.28 C 422.97 301.92 420.85 299.44 417.84 298.67 C 414.60 298.01 411.28 297.76 407.98 297.71 C 372.53 297.68 337.08 297.77 301.64 297.67 C 298.35 305.46 295.56 313.49 293.36 321.65 C 293.70 321.76 294.40 321.98 294.74 322.09 C 342.00 322.17 389.26 321.97 436.52 322.19 C 436.69 323.58 436.79 324.98 436.94 326.39 C 388.58 326.32 340.23 326.30 291.88 326.40 C 289.70 337.82 287.58 349.26 285.50 360.70 C 284.08 360.69 282.65 360.67 281.23 360.68 C 283.57 346.91 285.95 333.11 289.47 319.59 C 291.72 310.96 295.36 302.81 298.05 294.33 C 289.87 292.09 281.30 292.64 272.93 292.87 C 263.93 293.65 254.88 293.06 245.89 293.96 C 242.18 294.04 240.27 297.63 237.94 299.95 C 232.36 306.51 226.71 313.17 222.60 320.77 C 222.79 319.04 222.70 317.16 223.66 315.62 C 226.94 309.74 231.99 305.09 235.23 299.19 C 236.11 297.20 238.38 296.60 240.09 295.57 C 222.77 294.30 205.37 295.37 188.02 295.02 C 186.29 295.01 184.72 294.27 183.18 293.58 C 184.26 291.28 185.25 288.89 185.25 286.31 C 185.96 285.43 186.66 284.54 187.36 283.66 Z" fill="#0b3758" opacity="1.00" stroke="#0b3758" stroke-width="0.25" data-index="4"></path>
<path d="M 245.89 293.96 C 254.88 293.06 263.93 293.65 272.93 292.87 C 281.30 292.64 289.87 292.09 298.05 294.33 C 295.36 302.81 291.72 310.96 289.47 319.59 C 285.95 333.11 283.57 346.91 281.23 360.68 C 261.77 360.48 242.30 360.68 222.84 360.83 C 222.42 351.86 222.49 342.88 221.89 333.93 C 221.55 329.53 221.79 325.11 222.60 320.77 C 226.71 313.17 232.36 306.51 237.94 299.95 C 240.27 297.63 242.18 294.04 245.89 293.96 Z" fill="#fefffe" opacity="1.00" stroke="#fefffe" stroke-width="0.25" data-index="5"></path>
<path d="M 180.58 297.41 C 193.44 297.28 206.32 297.13 219.17 297.49 C 211.69 305.44 204.05 313.27 197.05 321.64 C 195.37 321.85 193.67 321.99 191.98 321.98 C 164.99 322.20 137.99 322.08 110.99 322.10 C 106.02 322.03 100.99 322.45 96.07 321.49 C 99.20 320.23 102.18 318.56 104.69 316.28 C 119.10 320.19 134.20 320.56 149.03 319.97 C 152.49 320.00 155.11 317.52 157.83 315.76 C 165.91 310.31 173.90 304.56 180.58 297.41 Z" fill="#89e7ff" opacity="1.00" stroke="#89e7ff" stroke-width="0.25" data-index="6"></path>
<path d="M 224.78 297.37 C 228.02 297.33 231.26 297.35 234.50 297.37 C 230.90 301.82 227.03 306.06 223.86 310.84 C 221.24 314.21 218.91 317.91 218.06 322.15 C 212.94 321.90 207.82 322.31 202.71 321.90 C 209.46 313.21 217.73 305.81 224.78 297.37 Z" fill="#89e6fe" opacity="1.00" stroke="#89e6fe" stroke-width="0.25" data-index="7"></path>
<path d="M 293.36 321.65 C 295.56 313.49 298.35 305.46 301.64 297.67 C 337.08 297.77 372.53 297.68 407.98 297.71 C 411.28 297.76 414.60 298.01 417.84 298.67 C 420.85 299.44 422.97 301.92 424.79 304.28 C 428.88 309.73 432.93 315.24 436.36 321.13 L 436.52 322.19 C 389.26 321.97 342.00 322.17 294.74 322.09 C 294.40 321.98 293.70 321.76 293.36 321.65 Z" fill="#edfbfe" opacity="1.00" stroke="#edfbfe" stroke-width="0.25" data-index="8"></path>
<path d="M 90.52 326.46 C 125.90 326.18 161.28 326.42 196.66 326.35 C 197.79 337.75 198.09 349.21 198.69 360.65 C 159.32 360.81 119.95 360.77 80.58 360.69 C 81.03 353.08 79.79 345.32 81.48 337.82 C 82.79 332.96 86.44 329.20 90.52 326.46 Z" fill="#89e7ff" opacity="1.00" stroke="#89e7ff" stroke-width="0.25" data-index="9"></path>
<path d="M 201.45 326.34 C 206.86 326.34 212.27 326.39 217.68 326.40 C 217.30 337.86 218.39 349.29 218.48 360.74 C 213.24 360.69 207.99 360.85 202.75 360.60 C 202.75 349.17 201.77 337.76 201.45 326.34 Z" fill="#eefbff" opacity="1.00" stroke="#eefbff" stroke-width="0.25" data-index="10"></path>
<path d="M 291.88 326.40 C 340.23 326.30 388.58 326.32 436.94 326.39 C 437.34 326.41 438.15 326.45 438.56 326.47 C 439.62 328.13 440.96 329.84 440.75 331.94 C 440.76 341.52 440.77 351.11 440.72 360.69 C 388.98 360.75 337.24 360.74 285.50 360.70 C 287.58 349.26 289.70 337.82 291.88 326.40 Z" fill="#fefefe" opacity="1.00" stroke="#fefefe" stroke-width="0.25" data-index="11"></path>
<path d="M 79.26 391.25 C 81.12 390.67 82.99 389.98 84.97 389.94 C 146.31 390.17 207.66 389.85 269.00 390.04 C 323.01 389.89 377.02 390.15 431.03 389.87 C 434.23 389.98 437.88 389.07 440.61 391.24 C 387.06 391.53 333.50 391.27 279.94 391.37 C 213.05 391.28 146.15 391.51 79.26 391.25 Z" fill="#072742" opacity="1.00" stroke="#072742" stroke-width="0.25" data-index="12"></path>
<path d="M 78.18 391.54 C 78.45 391.47 78.99 391.32 79.26 391.25 C 146.15 391.51 213.05 391.28 279.94 391.37 C 333.50 391.27 387.06 391.53 440.61 391.24 C 440.94 397.42 440.71 403.61 440.71 409.80 C 319.85 409.76 199.00 409.89 78.14 409.74 C 78.34 403.68 78.10 397.61 78.18 391.54 Z" fill="#ffffff" opacity="1.00" stroke="#ffffff" stroke-width="0.25" data-index="13" style="opacity: 1; visibility: visible;"></path>
<path d="M 42.76 414.14 C 40.23 414.15 40.44 411.09 41.69 409.69 C 42.45 409.71 43.96 409.76 44.72 409.79 C 44.59 410.81 44.46 411.83 44.33 412.87 C 50.97 413.15 57.61 412.80 64.25 412.78 C 68.63 412.93 73.01 413.08 77.38 412.61 C 77.57 411.90 77.95 410.46 78.14 409.74 C 199.00 409.89 319.85 409.76 440.71 409.80 C 440.69 410.74 440.67 411.68 440.67 412.62 C 441.85 413.10 443.04 413.59 444.25 414.04 C 310.42 414.23 176.59 414.04 42.76 414.14 Z" fill="#0e395a" opacity="1.00" stroke="#0e395a" stroke-width="0.25" data-index="14" style="opacity: 1; visibility: visible;"></path>
</svg>