<svg xmlns="http://www.w3.org/2000/svg" height="512pt" version="1.1" viewBox="0 0 512 512" width="512pt">
<path d="M 0.00 0.00 L 512.00 0.00 L 512.00 512.00 L 0.00 512.00 L 0.00 0.00 Z" fill="transparent" opacity="1.00" stroke="transparent" stroke-width="0.25" data-index="0" style="opacity: 1; visibility: visible;"></path>
<path d="M 283.74 73.73 C 287.52 73.23 291.71 71.80 295.31 73.73 C 297.02 74.85 298.88 76.59 298.64 78.84 C 298.45 83.10 296.30 86.90 294.76 90.78 C 293.10 94.19 296.29 97.99 294.32 101.36 C 292.16 105.57 288.20 108.44 285.14 111.95 C 300.64 102.61 316.59 93.90 333.55 87.50 C 341.60 84.41 349.55 80.96 357.95 78.88 C 360.42 78.30 363.02 77.86 365.54 78.46 C 367.53 80.19 368.55 82.76 370.46 84.58 C 373.94 85.53 378.56 81.99 381.37 85.46 C 381.77 87.72 381.73 90.03 381.86 92.31 C 386.99 91.62 392.27 90.65 397.40 91.79 C 402.32 92.92 405.55 98.11 405.21 103.00 C 404.25 107.60 401.36 111.47 399.67 115.81 C 401.28 116.97 403.39 117.72 404.48 119.47 C 405.97 125.17 401.47 129.77 400.15 135.00 C 403.47 133.97 406.53 132.00 410.01 131.59 C 413.92 131.99 416.27 136.29 415.88 139.96 C 415.65 145.08 417.68 150.47 415.37 155.35 C 412.64 161.96 408.26 167.86 406.67 174.93 C 416.24 171.63 425.48 165.95 435.91 166.32 C 439.38 166.23 440.17 170.89 439.48 173.55 C 437.62 179.12 433.04 183.15 429.99 188.05 C 432.57 190.81 435.40 193.32 438.48 195.52 C 440.63 196.74 439.87 199.61 439.44 201.57 C 438.07 205.85 435.66 209.70 434.04 213.88 C 440.66 211.97 446.86 208.13 453.92 208.12 C 455.30 207.85 456.79 208.71 456.86 210.21 C 456.73 212.90 455.27 215.29 454.39 217.78 C 455.50 219.68 457.38 221.50 457.11 223.89 C 456.87 226.46 456.40 229.01 456.04 231.57 C 459.39 231.20 463.92 229.20 466.25 232.73 C 467.54 237.46 466.34 242.59 463.55 246.56 C 458.18 254.43 450.32 260.13 444.37 267.51 C 448.41 268.01 452.33 265.92 456.33 266.69 C 460.36 268.25 460.36 273.62 458.83 276.96 C 453.77 285.91 445.37 292.11 438.07 299.07 C 429.76 306.46 421.11 313.45 412.64 320.65 C 405.37 326.75 396.78 331.26 390.36 338.38 C 379.46 350.48 367.33 361.44 354.69 371.69 C 343.66 380.69 331.29 387.82 318.92 394.79 C 307.02 400.99 294.76 406.50 282.92 412.83 C 280.27 414.09 277.66 415.99 274.58 415.78 C 269.84 415.32 265.76 418.44 262.35 421.34 C 252.91 430.60 242.84 439.18 232.74 447.71 C 230.55 449.69 227.70 450.56 224.87 451.13 C 224.19 448.91 223.45 446.72 222.81 444.49 C 215.24 450.01 206.71 454.30 197.66 456.74 C 192.77 458.22 187.55 459.35 182.45 458.38 C 180.75 457.60 179.26 455.91 179.39 453.94 C 179.22 450.40 179.65 446.87 179.81 443.35 C 175.32 442.58 169.81 442.05 167.18 437.76 C 165.72 433.94 166.14 429.71 165.76 425.71 C 159.46 425.13 155.60 431.89 149.34 432.02 C 149.32 428.03 149.62 424.05 150.15 420.10 C 146.79 420.56 143.46 421.53 140.05 421.33 C 136.89 420.78 136.79 417.19 136.30 414.69 C 135.39 414.68 134.48 414.66 133.58 414.66 C 132.82 407.80 136.34 401.54 140.20 396.18 C 143.69 391.47 147.13 386.73 150.52 381.95 C 146.09 381.47 140.86 380.45 138.90 375.86 C 137.75 371.29 139.39 366.67 140.65 362.31 C 138.41 360.26 136.16 358.23 133.92 356.19 C 130.54 358.07 127.28 360.21 123.68 361.66 C 119.98 363.16 115.91 362.33 112.06 362.86 C 107.44 364.55 103.71 369.38 98.33 368.42 C 94.65 367.57 90.89 366.44 87.74 364.30 C 85.68 362.04 86.64 358.54 86.14 355.74 C 81.58 356.02 76.78 357.25 72.33 355.80 C 69.01 353.53 69.49 348.28 65.79 346.24 C 63.05 343.56 58.91 344.60 55.67 343.19 C 52.99 339.65 55.88 335.38 57.39 331.98 C 55.11 329.01 50.93 325.95 52.73 321.71 C 56.80 311.51 63.53 302.72 70.13 294.06 C 69.03 291.40 67.95 288.73 66.90 286.05 C 62.03 289.85 57.17 295.87 50.28 294.69 C 46.61 292.87 43.49 289.94 40.86 286.83 C 39.22 279.58 46.31 274.80 48.92 268.86 C 48.90 264.72 47.37 260.31 49.44 256.40 C 52.47 250.61 57.36 246.11 61.43 241.07 C 60.09 239.01 58.09 236.76 59.15 234.12 C 60.65 229.25 63.10 224.71 65.17 220.06 C 68.50 215.47 73.40 212.21 76.29 207.23 C 79.49 201.91 84.72 198.42 88.74 193.84 C 93.62 185.38 98.62 176.55 106.43 170.41 C 111.36 166.27 116.39 162.18 122.02 159.02 C 125.70 156.92 130.05 156.12 133.42 153.47 C 137.55 150.23 141.98 147.37 145.98 143.95 C 163.01 129.12 181.78 116.26 201.89 105.96 C 210.96 101.92 219.22 96.32 228.29 92.25 C 245.84 83.66 264.59 77.52 283.74 73.73 Z" fill="#73dcfc" opacity="1.00" stroke="#73dcfc" stroke-width="0.25" data-index="1" style="opacity: 1; visibility: visible; fill: rgb(115, 220, 252);"></path>
<path d="M 409.10 176.06 C 417.51 172.06 426.57 168.53 436.06 169.18 C 434.22 174.18 430.23 177.87 426.53 181.52 C 425.27 182.83 423.57 183.49 421.90 184.08 C 422.02 178.98 427.93 176.81 429.00 171.95 C 425.23 174.06 422.06 177.01 418.82 179.82 C 413.24 184.77 406.89 188.88 400.09 191.96 C 401.92 186.26 402.75 178.54 409.10 176.06 Z" fill="#ffffff" opacity="1.00" stroke="#ffffff" stroke-width="0.25" data-index="2" style="opacity: 1; visibility: visible; fill: rgb(115, 220, 252); stroke: rgb(115, 220, 252);"></path>
<path d="M 440.86 214.67 C 444.88 212.37 449.40 211.13 454.04 211.21 C 452.65 214.60 450.28 217.41 447.45 219.69 C 445.30 217.95 443.11 216.27 440.86 214.67 Z" fill="#ffffff" opacity="1.00" stroke="#ffffff" stroke-width="0.25" data-index="3" style="visibility: visible; opacity: 1; fill: rgb(115, 220, 252);"></path>
<path d="M 448.42 270.16 C 451.01 269.83 453.61 269.58 456.23 269.49 C 458.61 276.30 452.02 281.49 447.94 285.94 C 434.73 297.78 421.63 309.91 406.79 319.72 C 409.74 313.68 415.07 309.39 419.77 304.77 C 428.55 296.24 437.90 288.24 445.80 278.85 C 447.81 276.41 447.91 273.13 448.42 270.16 Z" fill="#ffffff" opacity="1.00" stroke="#ffffff" stroke-width="0.25" data-index="4" style="opacity: 1; visibility: visible; fill: rgb(115, 220, 252);"></path>
<path d="M 349.41 369.47 C 355.64 365.07 361.40 360.02 367.88 355.98 C 362.44 362.20 355.77 367.16 349.31 372.25 C 343.16 376.57 337.04 381.17 329.99 383.95 C 336.30 378.91 343.10 374.51 349.41 369.47 Z" fill="#ffffff" opacity="1.00" stroke="#ffffff" stroke-width="0.25" data-index="5" style="opacity: 1; visibility: visible; fill: rgb(115, 220, 252);"></path>
</svg>