<?xml version="1.0" encoding="utf-8"?>
<svg xmlns="http://www.w3.org/2000/svg" height="512pt" version="1.1" viewBox="0 0 512 512" width="512pt">
<path d="M 0.00 0.00 L 512.00 0.00 L 512.00 512.00 L 0.00 512.00 L 0.00 0.00 Z" fill="transparent" opacity="1.00" stroke="transparent" stroke-width="0.25"/>
<path d="M 196.86 81.51 C 219.02 73.84 242.78 72.73 266.03 73.39 C 288.08 73.50 310.35 78.46 329.58 89.48 C 343.96 97.88 356.70 109.36 366.00 123.22 C 370.81 124.29 375.90 125.30 380.75 123.83 C 386.50 122.41 391.43 118.95 396.00 115.32 C 396.64 115.69 397.93 116.44 398.58 116.82 C 400.79 130.08 397.62 144.13 390.20 155.34 C 395.95 155.93 401.79 155.25 407.50 156.34 C 407.72 157.04 408.15 158.44 408.37 159.14 C 404.33 168.82 398.86 177.95 392.07 185.95 C 393.50 207.68 390.87 229.62 384.19 250.34 C 390.45 253.53 395.72 258.83 398.26 265.44 C 400.86 272.68 399.49 280.72 396.43 287.59 C 393.07 294.42 388.38 300.86 381.77 304.87 C 376.19 308.33 369.41 310.03 362.90 308.70 C 357.01 326.71 344.83 342.70 328.64 352.64 C 319.75 358.16 310.09 362.78 299.84 365.07 C 315.67 373.05 328.42 386.19 337.80 401.09 C 344.60 411.71 349.91 423.27 353.67 435.31 C 364.69 435.39 375.72 435.06 386.73 435.48 C 386.76 436.83 386.78 438.18 386.78 439.54 C 384.88 439.90 382.96 440.23 381.02 440.22 C 299.34 440.21 217.67 440.21 135.99 440.22 C 133.37 440.23 130.75 440.04 128.14 439.75 C 127.82 439.22 127.17 438.16 126.85 437.63 C 127.58 436.37 128.12 434.66 129.93 434.92 C 138.41 434.68 146.90 434.97 155.39 434.81 C 158.80 421.77 164.60 409.41 172.09 398.22 C 182.81 382.93 197.06 368.98 215.06 362.86 C 198.95 356.23 183.28 347.48 171.38 334.53 C 164.69 327.11 158.98 318.71 155.05 309.51 C 145.27 311.10 135.10 308.72 127.02 302.99 C 112.14 293.42 107.74 270.41 119.00 256.50 C 119.96 255.27 121.01 254.10 122.06 252.94 C 119.90 245.20 116.88 237.71 115.12 229.84 C 109.01 205.44 108.53 178.90 117.54 155.15 C 114.96 157.27 113.71 162.16 109.70 161.37 C 108.57 146.58 116.29 130.91 129.25 123.35 C 123.99 117.23 120.94 109.00 121.99 100.90 C 122.88 92.15 127.78 84.12 134.52 78.61 C 136.09 77.18 138.19 76.74 140.22 76.44 C 141.43 80.82 142.30 85.42 144.90 89.25 C 148.95 95.70 156.61 99.45 164.15 99.23 C 165.06 98.83 165.93 98.36 166.77 97.82 C 175.47 90.30 186.02 85.19 196.86 81.51 Z" fill="#072c4d" opacity="1.00" stroke="#072c4d" stroke-width="0.25"/>
<path d="M 215.99 81.39 C 230.80 78.43 245.94 77.92 261.01 78.23 C 283.42 77.69 306.31 81.98 325.97 93.09 C 339.78 101.00 352.22 111.57 361.36 124.66 C 363.10 127.79 366.96 127.99 370.11 128.47 C 375.63 129.00 381.52 129.28 386.69 126.93 C 389.47 125.70 391.99 124.00 394.47 122.27 C 395.20 136.51 389.74 150.72 380.22 161.25 C 378.60 163.02 377.11 164.90 375.83 166.92 C 379.74 166.00 382.15 162.57 385.48 160.63 C 391.18 160.01 396.95 160.80 402.68 160.51 C 398.40 169.25 393.55 177.87 386.88 185.03 C 381.70 190.79 374.97 195.07 367.71 197.70 C 356.55 201.46 344.71 202.71 332.98 202.61 C 320.65 202.83 308.19 202.77 296.14 199.88 C 289.91 198.57 283.96 196.27 278.11 193.80 C 263.15 187.73 251.09 176.15 235.77 170.81 C 232.25 169.69 227.75 168.82 224.94 171.91 C 221.37 177.83 222.69 185.08 223.48 191.57 C 224.19 198.53 226.71 205.11 227.95 211.97 C 217.53 209.28 207.94 204.19 198.28 199.60 C 191.98 196.70 186.21 192.77 179.92 189.87 C 178.83 189.28 176.24 189.07 176.46 190.96 C 176.41 197.66 177.38 204.60 174.83 211.00 C 170.87 223.91 161.27 233.92 151.31 242.57 C 147.03 242.31 142.69 241.96 138.45 242.74 C 133.94 243.75 130.10 246.50 126.18 248.81 C 116.32 223.97 112.18 196.31 118.00 169.99 C 119.12 164.86 120.46 159.77 122.04 154.76 C 123.17 150.41 127.16 147.56 128.17 143.16 C 122.93 143.23 119.08 146.89 115.37 150.08 C 117.48 141.12 122.98 132.92 130.73 127.89 C 134.16 126.84 137.88 128.01 141.42 127.76 C 139.89 124.91 136.65 123.91 134.28 121.96 C 128.91 117.71 126.46 110.63 126.26 103.97 C 126.20 95.54 130.84 87.94 136.76 82.28 C 138.95 88.71 142.35 94.98 147.99 99.00 C 153.29 103.01 160.28 104.57 166.80 103.36 C 169.48 102.01 171.60 99.80 174.05 98.09 C 186.54 89.41 201.16 84.32 215.99 81.39 Z" fill="#734d44" opacity="1.00" stroke="#734d44" stroke-width="0.25"/>
<path d="M 227.53 176.62 C 227.93 176.08 228.73 175.01 229.13 174.47 C 239.97 175.58 248.77 182.65 257.82 188.05 C 271.18 196.67 286.00 203.56 301.88 205.72 C 322.31 208.51 343.22 208.05 363.45 203.95 C 364.26 227.30 364.22 250.67 363.18 274.02 C 361.99 288.05 361.13 302.52 355.28 315.54 C 347.45 333.45 331.64 346.72 314.46 355.29 C 292.05 365.70 266.51 368.58 242.15 365.21 C 219.67 361.68 197.57 352.80 180.47 337.53 C 170.30 328.39 162.26 316.95 157.15 304.27 C 141.23 308.68 121.19 299.02 118.00 282.04 C 116.49 274.99 117.12 267.19 121.21 261.08 C 126.44 253.55 134.49 247.09 144.00 246.73 C 148.14 246.41 151.97 248.34 156.01 248.75 C 158.60 248.44 156.51 245.63 156.36 244.13 C 170.68 232.49 182.63 215.19 181.40 195.99 C 195.52 203.51 209.75 211.06 224.94 216.21 C 228.17 217.18 231.51 218.61 234.94 217.70 C 231.10 204.34 225.98 190.81 227.53 176.62 Z" fill="#ffc9b4" opacity="1.00" stroke="#ffc9b4" stroke-width="0.25"/>
<path d="M 368.26 202.55 C 375.40 200.03 381.91 196.08 387.51 190.99 C 388.28 210.23 385.52 229.53 379.76 247.89 C 376.03 247.56 372.33 246.94 368.65 246.23 C 368.57 231.67 368.25 217.11 368.26 202.55 Z" fill="#734d44" opacity="1.00" stroke="#734d44" stroke-width="0.25"/>
<path d="M 208.22 224.19 C 213.56 223.40 219.22 223.67 224.19 225.93 C 226.81 227.28 229.39 229.85 229.26 233.00 C 228.70 237.26 224.00 239.77 219.99 239.24 C 214.89 238.61 210.14 236.32 204.98 235.96 C 199.35 235.40 194.23 238.22 188.89 239.44 C 187.61 239.83 185.37 239.64 185.23 237.96 C 184.54 235.56 186.51 233.55 188.25 232.23 C 194.05 227.86 201.06 225.23 208.22 224.19 Z" fill="#072c4d" opacity="1.00" stroke="#072c4d" stroke-width="0.25"/>
<path d="M 292.00 229.15 C 296.43 226.29 301.97 226.34 307.05 225.91 C 316.36 226.00 326.47 227.06 334.00 233.07 C 335.69 234.24 335.64 236.28 335.62 238.12 C 334.98 238.52 333.71 239.31 333.07 239.71 C 325.82 238.29 318.47 235.73 311.00 237.21 C 305.79 237.73 300.40 240.34 295.22 238.42 C 292.11 236.82 288.79 232.21 292.00 229.15 Z" fill="#072c4d" opacity="1.00" stroke="#072c4d" stroke-width="0.25"/>
<path d="M 191.46 233.93 C 199.84 228.02 210.90 226.10 220.88 228.29 C 223.04 228.64 224.42 230.48 225.96 231.84 C 225.17 233.14 224.39 234.45 223.61 235.76 C 217.17 236.05 211.44 232.36 205.04 232.31 C 200.44 231.99 195.99 233.40 191.46 233.93 Z" fill="#734d44" opacity="1.00" stroke="#734d44" stroke-width="0.25"/>
<path d="M 293.57 231.52 C 301.15 229.21 309.25 229.12 317.06 230.09 C 322.18 230.84 327.78 232.02 331.25 236.21 C 325.43 234.09 319.24 233.03 313.04 233.44 C 306.56 233.48 300.02 237.30 293.73 234.17 C 293.68 233.29 293.62 232.40 293.57 231.52 Z" fill="#734d44" opacity="1.00" stroke="#734d44" stroke-width="0.25"/>
<path d="M 368.52 251.00 C 377.46 251.57 387.06 255.04 391.96 263.00 C 396.35 269.72 395.37 278.51 392.32 285.56 C 387.51 296.41 376.67 305.88 364.13 304.47 C 367.66 286.89 368.43 268.90 368.52 251.00 Z" fill="#ffc9b4" opacity="1.00" stroke="#ffc9b4" stroke-width="0.25"/>
<path d="M 205.41 257.65 C 209.14 255.39 214.32 256.80 216.59 260.46 C 220.64 265.99 219.37 276.13 212.04 278.20 C 205.90 280.13 199.60 274.08 200.10 267.96 C 199.68 263.83 201.76 259.67 205.41 257.65 Z" fill="#072c4d" opacity="1.00" stroke="#072c4d" stroke-width="0.25"/>
<path d="M 304.49 257.73 C 310.47 254.10 317.81 259.59 318.19 266.00 C 319.63 272.55 313.91 279.74 306.99 278.43 C 297.63 276.64 296.36 262.03 304.49 257.73 Z" fill="#072c4d" opacity="1.00" stroke="#072c4d" stroke-width="0.25"/>
<path d="M 258.00 268.65 C 258.53 268.63 259.59 268.59 260.11 268.56 C 264.05 273.09 267.83 278.01 269.75 283.76 C 270.72 286.32 269.92 289.04 269.53 291.63 C 264.20 296.35 257.05 293.27 251.21 291.45 C 251.06 290.58 250.89 289.72 250.80 288.84 C 255.65 288.14 260.18 291.41 265.13 290.44 C 265.46 289.94 266.13 288.92 266.46 288.41 C 266.32 284.93 265.17 281.57 263.28 278.66 C 261.41 275.39 258.38 272.59 258.00 268.65 Z" fill="#072c4d" opacity="1.00" stroke="#072c4d" stroke-width="0.25"/>
<path d="M 223.79 300.13 C 227.83 302.39 231.58 305.17 235.80 307.11 C 251.59 314.23 270.39 315.81 286.49 308.73 C 289.92 307.31 292.52 304.09 296.41 303.82 C 297.52 312.23 294.28 320.53 290.22 327.74 C 284.79 337.19 274.61 343.74 263.75 344.73 C 245.61 346.78 227.20 333.58 223.60 315.64 C 222.70 310.58 221.15 304.93 223.79 300.13 Z" fill="#072c4d" opacity="1.00" stroke="#072c4d" stroke-width="0.25"/>
<path d="M 226.44 306.22 C 238.76 315.52 254.93 318.67 270.10 317.47 C 278.11 316.93 285.78 314.18 292.64 310.11 C 291.87 312.76 291.09 315.41 290.22 318.03 C 280.35 325.85 267.16 327.85 254.93 326.38 C 245.31 325.15 235.69 322.12 227.86 316.23 C 227.43 312.88 226.65 309.59 226.44 306.22 Z" fill="#ffffff" opacity="1.00" stroke="#ffffff" stroke-width="0.25"/>
<path d="M 230.99 323.51 C 231.51 323.56 232.55 323.67 233.06 323.72 C 244.82 330.43 258.82 331.69 272.05 330.15 C 277.17 329.49 281.77 326.80 286.92 326.34 C 286.45 326.72 285.50 327.47 285.03 327.85 C 275.39 343.33 251.29 344.77 238.42 332.60 C 235.48 329.97 233.01 326.89 230.99 323.51 Z" fill="#f5542d" opacity="1.00" stroke="#f5542d" stroke-width="0.25"/>
<path d="M 207.84 370.89 C 212.80 368.79 217.68 366.18 223.04 365.30 C 227.37 365.83 231.48 367.45 235.80 368.06 C 235.22 373.92 234.90 380.15 237.66 385.57 C 240.73 392.46 247.42 397.90 255.07 398.53 C 263.32 399.64 271.60 394.43 275.04 387.02 C 277.82 381.70 277.90 375.42 276.70 369.65 C 282.62 369.04 288.50 368.05 294.29 366.63 C 302.84 372.38 309.64 380.54 314.69 389.47 C 321.99 403.79 325.51 419.66 328.42 435.37 C 323.84 435.38 319.26 435.34 314.68 435.35 C 312.98 422.73 310.63 410.22 308.15 397.74 C 306.71 396.14 303.66 396.31 304.20 399.01 C 305.96 411.15 308.64 423.17 309.98 435.38 C 274.90 435.34 239.82 435.35 204.74 435.38 C 206.21 422.85 207.71 410.32 209.25 397.80 C 209.02 397.16 208.57 395.87 208.34 395.22 C 207.42 395.30 206.50 395.39 205.59 395.48 C 202.96 408.64 201.46 422.01 200.30 435.37 C 197.00 435.35 193.69 435.35 190.39 435.38 C 193.18 413.23 198.27 391.15 207.84 370.89 Z" fill="#9ceaff" opacity="1.00" stroke="#9ceaff" stroke-width="0.25"/>
<path d="M 239.37 372.97 C 239.50 371.24 239.49 369.11 241.36 368.23 C 241.83 374.42 240.98 381.52 245.46 386.53 C 250.54 393.23 261.84 393.95 267.40 387.53 C 271.30 382.71 270.13 376.11 270.98 370.40 C 274.46 373.69 273.35 378.84 272.13 382.92 C 270.15 389.32 264.12 395.11 257.06 394.57 C 250.98 394.64 245.07 391.16 242.09 385.88 C 239.66 382.07 239.23 377.38 239.37 372.97 Z" fill="#734d44" opacity="1.00" stroke="#734d44" stroke-width="0.25"/>
<path d="M 244.69 369.57 C 252.37 370.59 260.12 370.72 267.86 370.56 C 268.13 376.45 267.50 382.62 263.70 387.40 C 260.25 389.24 256.06 390.39 252.40 388.37 C 245.43 385.23 244.09 376.39 244.69 369.57 Z" fill="#ffc9b4" opacity="1.00" stroke="#ffc9b4" stroke-width="0.25"/>
<path d="M 192.69 381.78 C 194.55 380.05 196.69 378.65 199.02 377.63 C 196.96 387.53 191.80 396.76 191.25 406.98 C 191.07 405.61 190.89 404.26 190.71 402.90 C 190.60 405.26 190.48 407.65 189.90 409.96 C 187.90 418.08 186.97 426.40 185.59 434.63 C 177.09 434.57 168.59 434.64 160.10 434.51 C 166.33 414.63 176.74 395.51 192.69 381.78 Z" fill="#f5542d" opacity="1.00" stroke="#f5542d" stroke-width="0.25"/>
<path d="M 317.17 383.72 C 318.12 384.56 319.08 385.39 320.05 386.22 C 321.07 387.10 322.12 387.90 323.20 388.72 C 323.76 390.22 323.26 391.64 321.83 392.54 C 327.62 406.00 330.59 420.43 333.29 434.76 C 338.11 434.83 342.93 434.84 347.75 434.76 C 344.80 424.78 339.79 415.65 335.21 406.38 C 335.15 405.84 335.03 404.76 334.96 404.22 C 338.41 410.35 342.01 416.43 344.53 423.01 C 346.25 427.27 348.39 431.48 348.71 436.15 C 343.14 436.20 337.57 436.27 332.00 436.01 C 330.06 423.03 327.48 410.04 322.69 397.78 C 321.01 393.02 318.44 388.62 317.17 383.72 Z" fill="#734d44" opacity="1.00" stroke="#734d44" stroke-width="0.25"/>
<path d="M 320.05 386.22 C 322.14 387.54 325.34 388.50 325.04 391.57 C 328.56 396.40 332.56 400.97 335.21 406.38 C 339.79 415.65 344.80 424.78 347.75 434.76 C 342.93 434.84 338.11 434.83 333.29 434.76 C 330.59 420.43 327.62 406.00 321.83 392.54 C 323.26 391.64 323.76 390.22 323.20 388.72 C 322.12 387.90 321.07 387.10 320.05 386.22 Z" fill="#f5542d" opacity="1.00" stroke="#f5542d" stroke-width="0.25"/>
</svg>