<?xml version="1.0" encoding="utf-8"?>
<svg xmlns="http://www.w3.org/2000/svg" height="512pt" version="1.1" viewBox="0 0 512 512" width="512pt">
<path d="M 0.00 0.00 L 512.00 0.00 L 512.00 512.00 L 0.00 512.00 L 0.00 0.00 Z" fill="transparent" opacity="1.00" stroke="transparent" stroke-width="0.25"/>
<path d="M 306.44 113.65 C 314.61 112.91 322.83 112.31 331.03 112.98 C 344.07 113.83 357.26 115.09 369.71 119.29 C 383.37 124.01 395.19 132.66 406.27 141.72 C 417.47 151.10 428.89 161.08 435.42 174.44 C 442.52 187.64 443.87 203.77 438.92 217.93 C 435.29 227.97 429.81 237.61 421.60 244.61 C 414.88 250.04 407.62 254.77 400.17 259.12 C 366.60 279.95 331.31 297.83 297.62 318.45 C 287.14 325.17 276.44 331.50 265.57 337.56 C 246.96 348.94 227.56 358.95 208.53 369.60 C 183.50 384.03 153.05 389.20 124.76 383.11 C 108.74 379.90 93.71 371.35 83.29 358.70 C 70.12 342.22 64.99 320.74 64.56 299.99 C 63.72 280.82 70.71 262.30 79.72 245.71 C 90.67 225.06 105.90 206.82 123.61 191.63 C 149.79 169.92 180.23 154.07 211.21 140.37 C 241.61 127.47 273.47 117.12 306.44 113.65 Z" fill="#0b3a5f" opacity="1.00" stroke="#0b3a5f" stroke-width="0.25"/>
<path d="M 279.20 123.77 C 301.85 118.09 325.67 116.57 348.81 120.10 C 360.21 121.83 371.88 124.47 381.51 131.14 C 380.03 131.11 378.55 131.15 377.08 131.18 C 376.17 136.18 375.63 141.27 374.15 146.14 C 370.97 156.12 365.80 165.35 359.87 173.94 C 355.41 180.30 348.43 184.12 341.73 187.66 C 329.08 194.55 314.77 196.98 301.20 201.33 C 285.52 207.10 270.52 214.62 256.08 223.01 C 238.34 232.84 222.58 245.94 208.62 260.59 C 202.93 266.83 195.88 271.64 188.37 275.42 C 178.44 280.61 165.52 279.26 156.81 272.23 C 150.58 267.77 146.72 260.97 141.39 255.60 C 137.42 251.62 133.83 246.85 128.51 244.63 C 122.75 242.76 116.96 245.92 111.15 245.71 C 109.93 245.67 109.07 244.66 108.10 244.05 C 110.65 245.17 113.48 244.92 116.14 244.37 C 130.56 241.39 145.41 240.55 160.09 241.66 C 164.12 242.16 168.13 242.83 172.20 242.95 C 161.72 237.18 149.74 234.95 138.01 233.31 C 124.69 231.92 110.87 231.87 97.99 235.99 C 98.31 236.51 98.93 237.56 99.25 238.08 C 95.48 240.40 91.65 242.80 87.26 243.72 C 100.60 219.05 121.15 198.95 143.87 182.83 C 145.46 183.39 147.05 183.97 148.57 184.70 C 150.74 186.07 152.70 187.93 155.20 188.68 C 157.12 188.92 159.07 188.77 161.00 188.72 C 192.73 187.52 224.51 190.46 255.70 196.26 C 261.88 197.67 268.02 199.43 274.34 200.15 C 263.92 193.78 252.56 189.11 241.18 184.76 C 224.32 178.47 206.68 174.05 188.71 172.63 C 179.10 171.98 169.45 172.31 159.85 172.91 C 181.69 159.41 204.99 148.35 228.89 138.99 C 235.22 136.79 241.37 133.99 247.85 132.27 C 250.73 134.02 252.04 138.37 255.95 138.13 C 280.61 139.24 305.37 142.68 328.90 150.35 C 333.78 152.06 338.51 154.23 343.46 155.77 C 338.01 149.52 330.54 145.54 323.36 141.64 C 315.36 137.35 307.10 133.58 298.59 130.42 C 292.27 127.78 285.45 126.60 279.20 123.77 Z" fill="#fed192" opacity="1.00" stroke="#fed192" stroke-width="0.25"/>
<path d="M 276.13 124.06 C 277.12 123.90 278.20 123.33 279.20 123.77 C 285.45 126.60 292.27 127.78 298.59 130.42 C 307.10 133.58 315.36 137.35 323.36 141.64 C 330.54 145.54 338.01 149.52 343.46 155.77 C 338.51 154.23 333.78 152.06 328.90 150.35 C 329.35 150.08 330.26 149.53 330.71 149.26 C 324.13 146.48 317.87 142.82 310.89 141.08 C 302.21 138.76 293.39 137.02 284.60 135.18 C 274.99 133.19 265.05 133.28 255.54 130.90 C 257.00 129.82 258.55 128.78 260.36 128.39 C 265.64 127.02 270.90 125.59 276.13 124.06 Z" fill="#523c3a" opacity="1.00" stroke="#523c3a" stroke-width="0.25"/>
<path d="M 377.08 131.18 C 378.55 131.15 380.03 131.11 381.51 131.14 C 385.46 132.48 389.16 134.87 392.05 137.88 C 394.63 143.89 397.22 150.12 397.36 156.76 C 397.63 168.33 396.50 180.01 393.17 191.13 C 391.06 199.08 387.14 206.55 381.69 212.72 C 377.46 217.26 372.23 220.74 366.95 223.94 C 356.80 229.93 344.93 231.49 333.79 234.75 C 325.25 237.28 316.33 238.99 308.51 243.44 C 293.86 251.51 281.95 263.50 270.09 275.10 C 261.39 283.71 253.96 294.38 242.37 299.35 C 233.70 302.80 224.17 302.95 214.97 302.96 C 209.29 302.97 203.46 303.74 198.36 306.39 C 190.32 310.62 183.11 316.29 176.74 322.74 C 169.74 329.32 162.43 336.51 152.76 338.76 C 143.42 340.89 133.50 340.47 124.32 337.78 C 118.08 335.90 111.54 333.88 106.73 329.26 C 101.39 324.37 98.29 317.65 96.10 310.87 C 93.75 303.42 88.93 296.85 87.96 288.96 C 85.63 276.84 87.80 264.50 90.63 252.67 C 91.85 249.20 88.50 246.81 86.58 244.44 L 86.17 244.00 L 87.26 243.72 C 91.65 242.80 95.48 240.40 99.25 238.08 C 101.39 239.24 103.52 240.44 105.48 241.90 C 106.35 242.62 107.22 243.33 108.10 244.05 C 109.07 244.66 109.93 245.67 111.15 245.71 C 116.96 245.92 122.75 242.76 128.51 244.63 C 133.83 246.85 137.42 251.62 141.39 255.60 C 146.72 260.97 150.58 267.77 156.81 272.23 C 165.52 279.26 178.44 280.61 188.37 275.42 C 195.88 271.64 202.93 266.83 208.62 260.59 C 222.58 245.94 238.34 232.84 256.08 223.01 C 270.52 214.62 285.52 207.10 301.20 201.33 C 314.77 196.98 329.08 194.55 341.73 187.66 C 348.43 184.12 355.41 180.30 359.87 173.94 C 365.80 165.35 370.97 156.12 374.15 146.14 C 375.63 141.27 376.17 136.18 377.08 131.18 Z" fill="#fda355" opacity="1.00" stroke="#fda355" stroke-width="0.25"/>
<path d="M 392.05 137.88 C 401.90 144.09 410.51 152.08 418.75 160.27 C 429.25 171.10 437.06 185.56 436.55 200.99 C 436.81 208.44 434.16 215.56 431.27 222.29 C 428.26 228.56 424.50 234.61 419.31 239.32 C 410.49 247.25 399.94 252.80 389.85 258.91 C 361.75 274.66 333.87 290.80 306.05 307.04 C 295.12 313.34 284.76 320.58 273.68 326.64 C 264.03 331.95 254.77 337.93 245.10 343.21 C 236.06 348.55 226.63 353.20 217.60 358.55 C 209.55 362.89 201.66 367.56 193.28 371.26 C 176.84 378.16 158.79 381.15 141.00 380.06 C 123.23 378.66 104.60 373.25 91.91 360.09 C 77.05 345.96 71.27 324.92 70.13 305.02 C 67.85 283.58 76.00 262.66 86.58 244.44 C 88.50 246.81 91.85 249.20 90.63 252.67 C 87.80 264.50 85.63 276.84 87.96 288.96 C 88.93 296.85 93.75 303.42 96.10 310.87 C 98.29 317.65 101.39 324.37 106.73 329.26 C 111.54 333.88 118.08 335.90 124.32 337.78 C 133.50 340.47 143.42 340.89 152.76 338.76 C 162.43 336.51 169.74 329.32 176.74 322.74 C 183.11 316.29 190.32 310.62 198.36 306.39 C 203.46 303.74 209.29 302.97 214.97 302.96 C 224.17 302.95 233.70 302.80 242.37 299.35 C 253.96 294.38 261.39 283.71 270.09 275.10 C 281.95 263.50 293.86 251.51 308.51 243.44 C 316.33 238.99 325.25 237.28 333.79 234.75 C 344.93 231.49 356.80 229.93 366.95 223.94 C 372.23 220.74 377.46 217.26 381.69 212.72 C 387.14 206.55 391.06 199.08 393.17 191.13 C 396.50 180.01 397.63 168.33 397.36 156.76 C 397.22 150.12 394.63 143.89 392.05 137.88 Z" fill="#cb8058" opacity="1.00" stroke="#cb8058" stroke-width="0.25"/>
<path d="M 226.39 152.85 C 225.91 150.79 228.31 148.46 230.32 149.66 C 234.11 151.95 234.93 157.08 234.15 161.14 C 230.09 160.29 226.98 156.95 226.39 152.85 Z" fill="#ffffff" opacity="1.00" stroke="#ffffff" stroke-width="0.25"/>
<path d="M 322.45 169.44 C 326.05 167.38 330.91 170.62 330.57 174.64 C 329.03 177.29 325.82 179.54 322.68 178.35 C 318.91 177.26 319.08 170.94 322.45 169.44 Z" fill="#ffffff" opacity="1.00" stroke="#ffffff" stroke-width="0.25"/>
<path d="M 143.32 182.64 C 149.28 180.20 154.07 175.57 159.85 172.91 C 169.45 172.31 179.10 171.98 188.71 172.63 C 206.68 174.05 224.32 178.47 241.18 184.76 C 252.56 189.11 263.92 193.78 274.34 200.15 C 268.02 199.43 261.88 197.67 255.70 196.26 C 256.05 195.99 256.75 195.45 257.11 195.18 C 248.76 192.55 240.43 189.78 231.82 188.14 C 219.67 185.62 207.32 184.31 195.00 182.91 C 185.04 181.76 174.99 181.99 164.98 182.08 C 159.44 182.21 153.57 181.85 148.57 184.70 C 147.05 183.97 145.46 183.39 143.87 182.83 L 143.32 182.64 Z" fill="#523c3a" opacity="1.00" stroke="#523c3a" stroke-width="0.25"/>
<path d="M 148.57 184.70 C 153.57 181.85 159.44 182.21 164.98 182.08 C 174.99 181.99 185.04 181.76 195.00 182.91 C 207.32 184.31 219.67 185.62 231.82 188.14 C 240.43 189.78 248.76 192.55 257.11 195.18 C 256.75 195.45 256.05 195.99 255.70 196.26 C 224.51 190.46 192.73 187.52 161.00 188.72 C 159.07 188.77 157.12 188.92 155.20 188.68 C 152.70 187.93 150.74 186.07 148.57 184.70 Z" fill="#0b3a5f" opacity="1.00" stroke="#0b3a5f" stroke-width="0.25"/>
<path d="M 351.10 201.13 C 351.19 199.10 353.86 200.17 355.10 199.93 C 354.77 201.30 354.52 202.71 354.03 204.05 C 352.97 204.77 351.62 204.27 350.46 204.31 C 350.62 203.51 350.94 201.92 351.10 201.13 Z" fill="#fed192" opacity="1.00" stroke="#fed192" stroke-width="0.25"/>
<path d="M 154.37 203.28 C 158.61 202.66 161.39 208.17 161.02 211.82 C 160.74 214.76 157.42 214.09 155.45 213.49 C 151.02 212.52 150.36 205.14 154.37 203.28 Z" fill="#ffffff" opacity="1.00" stroke="#ffffff" stroke-width="0.25"/>
<path d="M 324.43 213.28 C 324.62 211.01 327.49 211.50 329.07 210.92 C 328.77 212.79 328.46 214.65 328.13 216.51 C 326.53 216.15 323.42 215.63 324.43 213.28 Z" fill="#fed192" opacity="1.00" stroke="#fed192" stroke-width="0.25"/>
<path d="M 208.13 222.14 C 208.83 218.53 212.64 217.26 215.85 216.96 C 216.58 219.69 217.43 222.63 216.36 225.40 C 215.61 227.86 212.84 229.91 210.25 228.88 C 207.16 228.48 207.63 224.37 208.13 222.14 Z" fill="#ffffff" opacity="1.00" stroke="#ffffff" stroke-width="0.25"/>
<path d="M 97.99 235.99 C 110.87 231.87 124.69 231.92 138.01 233.31 C 149.74 234.95 161.72 237.18 172.20 242.95 C 168.13 242.83 164.12 242.16 160.09 241.66 C 160.21 241.35 160.46 240.74 160.59 240.44 C 154.81 239.11 148.99 237.67 143.02 237.81 C 133.71 238.01 124.36 237.41 115.08 238.40 C 111.63 238.71 108.45 240.20 105.48 241.90 C 103.52 240.44 101.39 239.24 99.25 238.08 C 98.93 237.56 98.31 236.51 97.99 235.99 Z" fill="#523c3a" opacity="1.00" stroke="#523c3a" stroke-width="0.25"/>
<path d="M 105.48 241.90 C 108.45 240.20 111.63 238.71 115.08 238.40 C 124.36 237.41 133.71 238.01 143.02 237.81 C 148.99 237.67 154.81 239.11 160.59 240.44 C 160.46 240.74 160.21 241.35 160.09 241.66 C 145.41 240.55 130.56 241.39 116.14 244.37 C 113.48 244.92 110.65 245.17 108.10 244.05 C 107.22 243.33 106.35 242.62 105.48 241.90 Z" fill="#0b3a5f" opacity="1.00" stroke="#0b3a5f" stroke-width="0.25"/>
<path d="M 129.33 266.49 C 132.19 265.86 133.71 269.39 134.37 271.62 C 135.29 274.05 133.85 276.57 131.59 277.60 C 125.50 278.91 122.98 267.64 129.33 266.49 Z" fill="#ffffff" opacity="1.00" stroke="#ffffff" stroke-width="0.25"/>
<path d="M 187.07 284.03 C 188.67 284.16 190.27 284.28 191.88 284.43 C 191.48 285.49 191.75 286.97 190.74 287.71 C 189.47 287.87 188.21 287.98 186.94 288.05 C 186.98 286.71 187.02 285.37 187.07 284.03 Z" fill="#fed192" opacity="1.00" stroke="#fed192" stroke-width="0.25"/>
<path d="M 123.13 304.13 C 124.49 304.11 125.85 304.10 127.21 304.10 C 127.46 306.53 125.93 307.92 123.59 307.82 C 123.43 306.59 123.28 305.36 123.13 304.13 Z" fill="#fed192" opacity="1.00" stroke="#fed192" stroke-width="0.25"/>
</svg>