<svg xmlns="http://www.w3.org/2000/svg" height="512pt" version="1.1" viewBox="0 0 512 512" width="512pt">
<path d="M 0.00 0.00 L 512.00 0.00 L 512.00 512.00 L 0.00 512.00 L 0.00 0.00 Z" fill="transparent" opacity="1.00" stroke="transparent" stroke-width="0.25" data-index="0" style="opacity: 1;"></path>
<path d="M 229.20 50.65 C 239.76 40.02 253.91 32.58 269.04 31.77 C 285.34 31.05 301.89 37.04 313.85 48.19 C 319.48 53.11 323.62 59.42 327.63 65.67 C 340.39 60.04 355.21 58.72 368.45 63.53 C 380.18 67.90 391.01 75.51 398.07 85.96 C 402.71 93.07 404.41 101.64 404.26 110.03 C 413.30 113.42 419.85 121.80 422.15 131.04 C 423.33 136.79 423.11 142.80 421.64 148.48 C 434.88 153.03 446.90 161.35 455.08 172.80 C 463.57 185.06 468.33 200.04 467.58 214.99 C 466.75 230.36 459.32 244.79 448.54 255.58 C 438.88 266.28 425.41 273.56 411.00 275.04 C 406.01 275.91 401.05 274.57 396.09 274.32 C 386.03 280.21 376.44 286.99 367.25 294.19 C 356.49 302.76 347.40 313.17 339.13 324.12 C 333.02 332.64 326.82 341.46 324.21 351.78 C 320.86 362.25 322.73 373.35 323.49 384.07 C 326.36 412.14 330.63 440.06 333.27 468.15 C 333.14 469.25 332.93 470.34 332.66 471.43 C 314.55 478.13 295.14 480.25 275.97 481.19 C 257.89 481.44 239.69 480.93 221.87 477.56 C 219.08 477.01 216.10 476.70 213.72 475.00 C 215.10 465.71 216.79 456.45 217.65 447.09 C 219.06 435.43 218.83 423.66 218.37 411.95 C 216.78 387.14 207.87 363.44 196.46 341.57 C 186.58 321.70 172.66 303.51 154.44 290.62 C 153.11 289.45 151.70 290.92 150.44 291.43 C 135.59 300.02 117.78 301.99 100.97 300.10 C 92.32 298.84 83.70 296.36 76.21 291.76 C 67.89 287.01 61.45 279.66 56.17 271.79 C 45.13 255.62 41.90 234.87 45.61 215.82 C 47.81 204.32 50.49 192.59 56.76 182.53 C 63.84 170.59 74.98 160.96 88.01 156.09 C 84.93 143.44 86.01 129.76 91.78 118.02 C 100.87 98.21 121.30 84.54 142.81 82.28 C 148.01 81.50 153.20 82.73 158.42 82.19 C 162.58 70.13 169.86 58.61 181.13 52.11 C 195.48 43.66 214.41 42.84 229.20 50.65 Z" fill="#07315b" opacity="1.00" stroke="#07315b" stroke-width="0.25" data-index="1" style="opacity: 1; visibility: visible;"></path>
<path d="M 230.89 59.75 C 240.68 48.90 253.92 39.86 268.96 39.34 C 282.27 38.30 295.54 43.11 305.95 51.26 C 314.07 57.83 320.30 66.50 324.56 76.00 C 335.29 69.30 348.46 66.50 360.90 69.27 C 371.01 71.56 380.12 77.25 387.43 84.50 C 392.70 89.99 396.44 97.30 396.61 105.01 C 396.67 108.35 396.49 111.68 396.45 115.01 C 403.55 117.14 410.50 121.34 413.53 128.41 C 417.45 136.31 415.17 145.31 412.39 153.17 C 421.50 156.18 430.63 159.77 438.18 165.83 C 449.11 174.01 456.00 186.66 459.08 199.79 C 462.57 214.79 458.68 231.10 449.20 243.18 C 443.65 250.19 437.22 256.75 429.47 261.32 C 420.85 265.94 410.83 268.95 401.01 267.12 C 397.50 266.54 394.59 264.39 391.92 262.19 C 390.51 261.23 389.06 259.58 387.18 260.27 C 384.33 262.33 382.38 265.44 379.37 267.32 C 374.32 270.81 367.87 271.03 361.96 270.60 C 351.08 269.61 340.65 264.76 332.72 257.27 C 330.40 255.04 328.58 252.34 326.08 250.30 C 322.63 252.05 319.79 254.95 316.02 256.07 C 308.25 258.44 298.81 255.65 294.39 248.64 C 292.10 245.23 291.96 241.00 291.46 237.06 C 291.05 237.17 290.23 237.39 289.82 237.50 C 282.73 249.64 271.63 260.74 257.36 263.49 C 250.41 265.07 243.14 263.29 236.98 259.95 C 235.07 259.12 233.22 257.78 231.09 257.77 C 228.31 259.35 225.98 261.58 223.25 263.24 C 211.73 270.28 196.90 271.63 184.31 266.74 C 180.59 265.36 178.30 261.95 175.24 259.64 C 173.28 258.44 172.18 261.02 171.15 262.22 C 161.15 277.46 145.05 288.93 126.96 292.04 C 111.09 294.79 93.84 293.43 79.69 285.28 C 66.06 276.42 56.45 261.80 53.12 245.94 C 49.58 230.93 52.40 215.32 56.79 200.81 C 60.54 188.47 67.80 176.89 78.59 169.56 C 84.95 164.93 92.40 162.14 99.96 160.15 C 97.59 156.50 94.98 152.80 94.30 148.39 C 91.97 136.02 96.12 123.22 103.19 113.07 C 113.22 99.12 129.85 90.31 146.98 89.44 C 152.48 89.11 158.01 89.45 163.45 90.42 C 165.54 84.68 167.18 78.70 170.42 73.45 C 175.15 65.68 182.06 58.91 190.72 55.72 C 198.41 52.93 206.85 51.89 214.92 53.53 C 220.62 54.49 225.70 57.37 230.89 59.75 Z" fill="#3cab4b" opacity="1.00" stroke="#3cab4b" stroke-width="0.25" data-index="2" style="opacity: 1;"></path>
<path d="M 242.21 105.19 C 244.74 103.37 250.29 102.61 250.43 106.97 C 250.51 111.88 244.78 113.02 241.00 113.65 C 240.53 113.13 239.57 112.07 239.09 111.54 C 239.42 109.15 239.61 106.23 242.21 105.19 Z" fill="#07315b" opacity="1.00" stroke="#07315b" stroke-width="0.25" data-index="3"></path>
<path d="M 252.02 115.95 C 258.71 114.81 265.80 116.85 272.19 114.08 C 274.31 112.70 276.25 114.65 278.04 115.63 C 277.45 117.74 277.31 120.10 276.07 121.96 C 274.40 124.17 271.37 123.45 269.00 123.56 C 259.09 123.38 248.48 122.62 239.42 127.41 C 235.35 129.31 234.04 133.97 230.93 136.85 C 228.24 138.11 224.79 137.37 222.76 135.22 C 221.13 133.74 221.49 131.33 221.11 129.37 C 223.18 129.04 225.26 128.72 227.34 128.41 C 232.70 120.14 242.58 116.62 252.02 115.95 Z" fill="#07315b" opacity="1.00" stroke="#07315b" stroke-width="0.25" data-index="4"></path>
<path d="M 305.57 157.36 C 307.64 154.48 311.18 155.84 313.42 157.69 C 313.49 159.99 313.58 162.29 313.68 164.60 C 320.12 165.90 327.09 165.71 332.94 169.10 C 337.97 171.86 340.85 177.04 344.28 181.42 C 346.53 177.43 347.89 173.02 350.03 168.98 C 351.28 166.52 354.46 167.55 356.66 167.35 C 356.71 170.15 356.74 173.03 355.56 175.64 C 353.46 180.62 351.81 186.06 348.01 190.06 C 346.27 192.11 342.40 192.82 340.77 190.31 C 337.42 185.69 335.52 179.80 330.49 176.59 C 323.36 172.06 314.52 173.48 306.64 171.54 C 305.86 166.88 304.68 162.08 305.57 157.36 Z" fill="#07315b" opacity="1.00" stroke="#07315b" stroke-width="0.25" data-index="5"></path>
<path d="M 167.91 176.58 C 171.82 166.21 185.39 160.69 195.02 166.76 C 194.33 168.75 193.59 170.73 192.77 172.68 C 188.59 172.63 184.00 171.89 180.29 174.32 C 174.53 177.40 174.26 185.76 168.08 188.30 C 161.79 188.76 158.59 180.99 159.74 175.72 C 161.06 171.47 166.15 173.95 167.91 176.58 Z" fill="#07315b" opacity="1.00" stroke="#07315b" stroke-width="0.25" data-index="6" style="opacity: 1;"></path>
<path d="M 257.41 270.97 C 269.80 269.01 280.49 261.40 288.56 252.09 C 289.58 254.30 290.68 256.56 290.71 259.06 C 292.06 276.40 293.70 293.75 293.66 311.16 C 293.25 314.50 297.62 314.22 298.82 311.93 C 310.21 296.60 318.86 279.39 326.04 261.75 C 330.95 265.15 335.49 269.11 340.77 271.96 C 338.55 278.78 335.98 285.47 333.46 292.18 C 331.84 296.59 329.33 300.81 329.29 305.63 C 331.39 305.54 333.85 306.12 335.52 304.47 C 345.94 296.01 356.40 287.58 366.44 278.65 C 371.22 278.13 375.89 276.93 380.44 275.39 C 368.52 283.57 356.89 292.35 347.06 303.01 C 336.65 314.59 326.81 326.93 319.95 340.99 C 317.81 345.63 315.73 350.39 314.73 355.43 C 313.77 363.27 315.02 371.14 315.62 378.96 C 318.25 408.11 322.74 437.06 325.63 466.18 C 292.01 475.45 256.42 475.49 222.14 470.18 C 223.32 460.27 225.00 450.41 225.53 440.42 C 227.04 420.22 225.96 399.57 220.15 380.06 C 217.39 370.56 213.99 361.25 209.77 352.30 C 200.53 331.30 188.68 310.97 171.66 295.31 C 168.25 291.95 164.25 289.26 160.90 285.85 C 161.31 283.89 163.15 282.80 164.45 281.46 C 168.45 278.01 171.70 273.83 174.90 269.65 C 177.15 271.21 179.67 272.41 181.66 274.31 C 183.33 276.80 184.22 279.71 185.68 282.33 C 190.27 290.76 196.36 298.23 202.32 305.72 C 209.62 314.73 216.66 324.00 224.73 332.34 C 225.88 333.87 227.88 333.63 229.56 333.85 C 229.08 328.25 227.02 322.98 225.41 317.65 C 221.03 303.52 214.75 290.09 208.56 276.68 C 214.20 275.33 219.85 273.70 224.87 270.73 C 227.41 269.25 229.74 267.39 232.44 266.20 C 236.89 276.62 240.75 287.29 245.11 297.75 C 249.20 307.56 252.34 317.86 257.83 327.02 C 259.19 326.22 261.35 325.83 261.49 323.92 C 263.02 315.04 262.69 305.95 262.28 296.99 C 261.77 288.14 259.27 279.59 257.41 270.97 Z" fill="#8cd440" opacity="1.00" stroke="#8cd440" stroke-width="0.25" data-index="7" style="opacity: 1;"></path>

<path d="M 241.86 269.73 C 244.54 270.46 247.26 271.02 249.97 271.62 C 250.89 276.46 252.46 281.14 253.40 285.98 C 254.60 291.88 254.98 297.91 255.30 303.91 C 251.43 292.28 245.98 281.26 241.86 269.73 Z" fill="#ffffff" opacity="1.00" stroke="#ffffff" stroke-width="0.25" data-index="9" style="visibility: hidden; opacity: 1;"></path>

<path d="M 191.12 276.55 C 194.26 276.93 197.44 277.08 200.57 277.56 C 206.24 287.76 210.46 298.67 215.06 309.37 C 206.45 298.95 196.98 288.87 191.12 276.55 Z" fill="#ffffff" opacity="1.00" stroke="#ffffff" stroke-width="0.25" data-index="11" style="opacity: 1; visibility: hidden;"></path>
</svg>