<?xml version="1.0" encoding="utf-8"?>
<svg xmlns="http://www.w3.org/2000/svg" height="512pt" version="1.1" viewBox="0 0 512 512" width="512pt">
<path d="M 0.00 0.00 L 512.00 0.00 L 512.00 512.00 L 401.24 512.00 C 408.92 495.39 412.29 477.14 414.13 459.04 C 416.72 423.19 414.66 387.09 409.30 351.59 C 407.94 344.02 407.04 336.24 403.98 329.13 C 402.93 326.40 399.42 326.75 397.05 326.26 C 395.77 319.38 392.73 312.25 395.12 305.27 C 399.24 290.23 398.49 274.45 396.48 259.15 C 404.09 260.74 411.14 264.82 418.99 265.17 C 425.16 264.84 427.43 256.90 425.04 252.04 C 423.57 248.98 420.07 248.02 417.11 247.10 C 410.23 245.15 403.45 242.91 396.68 240.67 C 396.23 236.81 396.26 231.81 392.30 229.73 C 388.91 228.08 385.23 229.61 382.44 231.69 C 382.53 227.14 383.24 221.17 378.87 218.27 C 375.52 216.04 371.52 217.75 368.68 219.95 C 367.11 217.42 365.30 214.23 361.88 214.27 C 357.62 213.48 354.74 217.11 352.32 219.97 C 350.48 218.56 348.72 216.05 346.09 216.72 C 342.83 217.66 341.58 221.19 339.91 223.78 C 336.10 223.30 332.20 223.15 328.52 224.42 C 325.14 225.64 321.65 224.45 318.36 223.55 C 313.36 222.20 308.46 220.52 303.49 219.07 C 303.62 215.61 304.07 212.18 304.63 208.77 C 305.96 208.23 307.30 207.69 308.63 207.14 C 308.84 202.60 308.50 198.07 308.26 193.54 C 313.61 191.44 320.06 189.25 322.48 183.51 C 324.10 178.94 320.56 175.30 317.43 172.55 C 311.36 167.18 308.31 159.04 308.43 151.03 C 308.50 140.23 307.48 129.47 307.40 118.68 C 320.48 114.17 332.27 105.66 340.32 94.37 C 343.70 89.27 346.67 83.41 346.69 77.15 C 346.99 74.83 344.29 72.40 342.11 73.76 C 335.22 76.68 327.19 76.70 320.36 73.58 C 304.70 67.05 294.60 52.65 281.68 42.32 C 264.62 27.99 242.34 19.76 219.98 20.83 C 199.66 22.31 179.75 29.38 163.07 41.11 C 157.45 45.02 152.67 49.96 147.94 54.89 C 144.81 51.28 142.12 47.03 137.92 44.56 C 135.32 43.82 133.07 46.00 132.66 48.44 C 130.93 57.00 132.33 65.81 133.62 74.33 C 128.76 77.03 123.65 79.73 120.34 84.36 C 112.51 94.05 111.10 107.00 110.62 119.01 C 110.67 142.07 115.81 164.76 122.24 186.79 C 126.90 201.49 131.96 216.17 139.29 229.79 C 140.72 232.68 142.99 235.10 144.21 238.09 C 143.70 240.56 143.58 243.58 141.32 245.17 C 138.19 247.43 137.46 251.47 135.77 254.72 C 126.35 275.06 118.18 295.97 111.57 317.40 C 103.36 343.52 97.08 370.49 96.09 397.95 C 94.18 426.79 101.79 455.03 109.56 482.51 C 112.53 492.33 115.13 502.26 118.37 512.00 L 0.00 512.00 L 0.00 0.00 Z" fill="transparent" opacity="1.00" stroke="transparent" stroke-width="0.25"/>
<path d="M 163.07 41.11 C 179.75 29.38 199.66 22.31 219.98 20.83 C 242.34 19.76 264.62 27.99 281.68 42.32 C 294.60 52.65 304.70 67.05 320.36 73.58 C 327.19 76.70 335.22 76.68 342.11 73.76 C 344.29 72.40 346.99 74.83 346.69 77.15 C 346.67 83.41 343.70 89.27 340.32 94.37 C 332.27 105.66 320.48 114.17 307.40 118.68 C 307.48 129.47 308.50 140.23 308.43 151.03 C 308.31 159.04 311.36 167.18 317.43 172.55 C 320.56 175.30 324.10 178.94 322.48 183.51 C 320.06 189.25 313.61 191.44 308.26 193.54 C 308.50 198.07 308.84 202.60 308.63 207.14 C 307.30 207.69 305.96 208.23 304.63 208.77 C 304.07 212.18 303.62 215.61 303.49 219.07 C 308.46 220.52 313.36 222.20 318.36 223.55 C 321.65 224.45 325.14 225.64 328.52 224.42 C 332.20 223.15 336.10 223.30 339.91 223.78 C 341.58 221.19 342.83 217.66 346.09 216.72 C 348.72 216.05 350.48 218.56 352.32 219.97 C 354.74 217.11 357.62 213.48 361.88 214.27 C 365.30 214.23 367.11 217.42 368.68 219.95 C 371.52 217.75 375.52 216.04 378.87 218.27 C 383.24 221.17 382.53 227.14 382.44 231.69 C 385.23 229.61 388.91 228.08 392.30 229.73 C 396.26 231.81 396.23 236.81 396.68 240.67 C 403.45 242.91 410.23 245.15 417.11 247.10 C 420.07 248.02 423.57 248.98 425.04 252.04 C 427.43 256.90 425.16 264.84 418.99 265.17 C 411.14 264.82 404.09 260.74 396.48 259.15 C 398.49 274.45 399.24 290.23 395.12 305.27 C 392.73 312.25 395.77 319.38 397.05 326.26 C 399.42 326.75 402.93 326.40 403.98 329.13 C 407.04 336.24 407.94 344.02 409.30 351.59 C 414.66 387.09 416.72 423.19 414.13 459.04 C 412.29 477.14 408.92 495.39 401.24 512.00 L 398.00 512.00 C 407.11 492.68 410.39 471.23 411.62 450.08 C 413.19 424.68 411.73 399.19 409.20 373.90 C 407.40 359.01 405.92 343.89 401.25 329.57 C 395.99 329.20 390.72 329.43 385.46 329.73 C 370.04 330.96 354.55 332.14 339.36 335.20 C 333.15 368.82 329.13 402.81 324.72 436.70 C 323.98 440.45 326.47 443.73 326.89 447.36 C 328.01 454.46 330.22 461.41 330.50 468.62 C 328.98 468.03 327.89 466.85 327.65 465.22 C 325.95 458.64 324.85 451.93 323.53 445.27 C 323.33 443.52 321.88 442.41 320.68 441.33 C 308.75 432.00 298.21 420.90 289.37 408.61 C 289.82 408.11 290.72 407.10 291.18 406.60 C 300.11 418.16 309.85 429.32 321.57 438.14 C 322.33 433.46 323.01 428.74 323.26 424.00 C 320.32 419.02 315.94 415.01 313.01 410.00 C 308.87 402.98 301.99 398.32 296.91 392.09 C 283.70 376.65 276.94 357.20 267.49 339.50 C 260.17 325.66 250.95 312.94 241.43 300.55 C 237.79 296.23 234.48 291.51 230.01 288.00 C 210.17 274.07 188.07 263.63 165.21 255.70 C 157.50 253.04 149.84 250.18 141.90 248.29 C 125.61 283.11 112.19 319.42 104.24 357.09 C 101.58 369.90 99.81 382.90 99.23 395.98 C 97.18 421.86 102.94 447.54 109.87 472.31 C 113.35 485.64 117.50 498.78 121.37 512.00 L 118.37 512.00 C 115.13 502.26 112.53 492.33 109.56 482.51 C 101.79 455.03 94.18 426.79 96.09 397.95 C 97.08 370.49 103.36 343.52 111.57 317.40 C 118.18 295.97 126.35 275.06 135.77 254.72 C 137.46 251.47 138.19 247.43 141.32 245.17 C 143.58 243.58 143.70 240.56 144.21 238.09 C 142.99 235.10 140.72 232.68 139.29 229.79 C 131.96 216.17 126.90 201.49 122.24 186.79 C 115.81 164.76 110.67 142.07 110.62 119.01 C 111.10 107.00 112.51 94.05 120.34 84.36 C 123.65 79.73 128.76 77.03 133.62 74.33 C 132.33 65.81 130.93 57.00 132.66 48.44 C 133.07 46.00 135.32 43.82 137.92 44.56 C 142.12 47.03 144.81 51.28 147.94 54.89 C 152.67 49.96 157.45 45.02 163.07 41.11 Z" fill="#092238" opacity="1.00" stroke="#092238" stroke-width="0.25"/>
<path d="M 196.18 28.06 C 203.67 26.14 211.26 24.41 218.98 23.77 C 239.69 22.50 260.55 29.38 276.90 42.07 C 283.54 47.74 290.26 53.38 296.29 59.72 C 303.23 66.59 311.19 72.50 319.95 76.84 C 327.77 80.14 336.29 78.48 344.25 76.74 C 343.57 85.02 339.11 92.57 333.09 98.13 C 326.23 105.98 317.23 111.76 307.58 115.57 C 292.11 120.90 275.19 121.30 259.25 117.91 C 253.05 117.12 247.20 114.51 240.94 114.19 C 236.16 114.11 231.67 116.22 227.73 118.75 C 223.63 121.42 221.79 126.36 221.09 131.00 C 219.88 139.91 218.82 148.90 219.45 157.90 C 219.95 165.04 220.64 172.42 218.38 179.34 C 217.56 181.67 216.11 184.82 213.09 184.17 C 210.52 183.05 208.62 180.71 207.83 178.05 C 204.73 168.39 206.02 157.68 201.47 148.43 C 199.03 143.45 193.41 140.73 188.00 140.93 C 180.67 140.68 174.08 145.17 169.75 150.77 C 167.93 153.10 167.36 156.11 167.19 158.99 C 166.83 165.98 168.78 173.24 173.34 178.66 C 176.20 182.46 180.18 185.17 183.32 188.70 C 184.87 190.62 187.03 192.92 185.79 195.56 C 182.86 204.80 178.45 213.67 171.97 220.95 C 165.62 229.10 155.38 233.58 145.18 233.96 C 143.00 230.98 141.09 227.81 139.62 224.43 C 130.17 204.63 123.89 183.50 118.75 162.24 C 115.52 146.05 112.76 129.55 113.81 112.99 C 114.48 106.21 115.62 99.38 118.09 93.01 C 121.90 86.02 127.54 79.06 135.77 77.44 C 136.62 67.50 132.66 57.28 136.07 47.56 C 141.11 48.83 142.96 54.30 146.47 57.56 C 148.50 58.37 150.17 56.75 151.55 55.51 C 156.58 50.84 160.96 45.34 167.00 41.89 C 176.29 36.46 185.65 30.74 196.18 28.06 Z" fill="#59484e" opacity="1.00" stroke="#59484e" stroke-width="0.25"/>
<path d="M 224.66 128.60 C 227.20 119.40 238.28 115.22 246.90 118.00 C 262.11 122.39 278.17 124.24 293.90 121.91 C 297.44 121.31 300.94 120.42 304.52 119.96 C 304.85 130.33 305.54 140.68 305.52 151.05 C 305.47 158.87 308.28 166.69 313.43 172.58 C 315.75 175.35 318.97 177.53 320.31 181.00 C 318.51 187.55 311.00 189.64 305.25 191.40 C 305.35 196.13 306.05 200.82 306.18 205.54 C 301.09 204.04 295.84 203.23 290.65 202.15 C 283.38 200.50 276.21 198.46 268.96 196.75 C 264.19 198.70 263.02 204.50 262.08 209.04 C 261.29 215.07 262.27 222.69 267.85 226.22 C 277.42 231.41 288.32 233.10 298.83 235.42 C 296.87 246.18 287.71 254.52 277.36 257.22 C 260.57 261.66 242.53 257.08 228.14 247.91 C 225.44 246.23 223.11 243.90 220.02 242.93 C 220.30 244.42 220.65 246.01 222.00 246.93 C 227.01 251.04 232.89 253.90 238.76 256.54 C 236.20 265.99 233.44 275.41 230.34 284.70 C 204.58 266.85 175.21 254.87 145.21 246.28 C 145.53 242.99 146.51 239.82 147.60 236.71 C 155.50 235.56 163.73 233.31 169.68 227.69 C 178.85 219.44 184.55 208.13 188.38 196.57 C 189.64 196.57 190.90 196.56 192.17 196.53 C 190.36 193.21 188.23 190.07 185.90 187.09 C 183.03 183.29 178.65 180.98 175.84 177.12 C 171.54 171.82 168.92 164.87 169.84 158.00 C 171.36 149.27 180.63 143.74 189.01 143.72 C 194.40 143.53 198.49 148.13 200.10 152.87 C 202.93 161.50 202.87 170.77 205.39 179.46 C 206.49 183.24 209.54 187.36 213.95 186.87 C 217.19 187.10 219.69 184.30 220.67 181.48 C 222.51 176.26 222.98 170.66 222.71 165.17 C 222.06 152.99 221.75 140.53 224.66 128.60 Z" fill="#febba0" opacity="1.00" stroke="#febba0" stroke-width="0.25"/>
<path d="M 280.44 129.60 C 283.03 129.41 286.36 128.33 288.39 130.55 C 291.17 133.23 289.81 139.16 285.61 139.36 C 276.45 140.73 267.28 142.07 258.11 143.40 C 256.20 143.63 254.27 143.95 252.35 143.65 C 248.93 142.32 248.15 137.16 250.76 134.73 C 252.47 133.77 254.46 133.55 256.36 133.21 C 264.38 131.97 272.42 130.87 280.44 129.60 Z" fill="#052746" opacity="1.00" stroke="#052746" stroke-width="0.25"/>
<path d="M 349.01 151.05 C 353.80 148.31 358.19 143.94 364.07 144.01 C 363.67 145.20 363.63 146.69 362.39 147.36 C 357.01 151.18 350.84 153.67 345.37 157.35 C 342.02 159.62 338.72 161.98 335.14 163.90 C 334.83 163.40 334.21 162.40 333.90 161.90 C 337.66 156.73 343.85 154.48 349.01 151.05 Z" fill="#e9f0f0" opacity="1.00" stroke="#e9f0f0" stroke-width="0.25"/>
<path d="M 274.34 155.25 C 280.19 153.26 285.15 160.90 281.63 165.65 C 279.49 169.53 273.30 169.83 270.79 166.20 C 267.58 162.68 269.51 156.05 274.34 155.25 Z" fill="#032746" opacity="1.00" stroke="#032746" stroke-width="0.25"/>
<path d="M 347.44 165.52 C 354.16 163.41 360.86 161.03 367.87 160.08 C 367.71 161.18 367.56 162.27 367.41 163.37 C 358.51 165.59 350.05 169.51 340.95 170.83 C 340.73 167.11 344.76 166.55 347.44 165.52 Z" fill="#e7f0f0" opacity="1.00" stroke="#e7f0f0" stroke-width="0.25"/>
<path d="M 348.03 176.15 C 356.30 176.27 364.62 176.84 372.77 178.24 C 372.77 178.92 372.76 180.28 372.76 180.96 C 368.76 181.85 364.75 180.67 360.77 180.32 C 356.66 179.95 352.54 179.90 348.44 179.52 C 348.30 178.40 348.16 177.27 348.03 176.15 Z" fill="#ebf0f2" opacity="1.00" stroke="#ebf0f2" stroke-width="0.25"/>
<path d="M 237.13 180.29 C 237.88 180.23 239.38 180.10 240.13 180.03 C 240.11 182.10 239.94 184.20 238.86 186.02 C 237.99 185.68 237.12 185.35 236.25 185.02 C 236.54 183.44 236.84 181.87 237.13 180.29 Z" fill="#f38e7a" opacity="1.00" stroke="#f38e7a" stroke-width="0.25"/>
<path d="M 267.83 202.04 C 268.09 201.36 268.61 200.00 268.87 199.32 C 279.13 202.63 289.71 204.74 300.25 206.94 C 301.97 207.11 302.84 208.19 302.34 209.94 C 295.52 209.99 289.01 207.80 282.42 206.35 C 277.47 205.24 272.61 203.73 267.83 202.04 Z" fill="#f6feff" opacity="1.00" stroke="#f6feff" stroke-width="0.25"/>
<path d="M 264.36 215.72 C 264.35 211.66 265.73 206.34 269.96 204.89 C 268.63 208.78 265.75 211.87 264.36 215.72 Z" fill="#edfeff" opacity="1.00" stroke="#edfeff" stroke-width="0.25"/>
<path d="M 269.13 211.58 C 269.94 209.65 270.87 204.51 273.73 206.91 C 273.18 209.42 272.20 212.03 269.13 211.58 Z" fill="#edfeff" opacity="1.00" stroke="#edfeff" stroke-width="0.25"/>
<path d="M 275.47 207.16 C 277.68 207.67 279.86 208.28 282.05 208.89 C 281.65 210.21 281.25 211.53 280.85 212.85 C 278.59 212.46 276.34 212.00 274.13 211.39 C 274.56 209.98 275.01 208.56 275.47 207.16 Z" fill="#f9fafe" opacity="1.00" stroke="#f9fafe" stroke-width="0.25"/>
<path d="M 282.99 213.57 C 283.18 211.71 283.37 209.54 285.51 208.96 C 285.63 210.56 285.71 212.15 285.79 213.76 C 285.09 213.71 283.69 213.62 282.99 213.57 Z" fill="#edfeff" opacity="1.00" stroke="#edfeff" stroke-width="0.25"/>
<path d="M 287.76 210.25 C 289.76 210.64 291.75 211.09 293.74 211.51 C 293.71 212.96 293.67 214.40 293.63 215.85 C 291.57 215.37 289.51 214.85 287.46 214.37 C 287.53 213.34 287.69 211.28 287.76 210.25 Z" fill="#f5feff" opacity="1.00" stroke="#f5feff" stroke-width="0.25"/>
<path d="M 295.52 212.33 C 296.00 212.28 296.96 212.20 297.44 212.15 C 297.48 213.74 297.52 215.33 297.58 216.93 C 297.07 216.80 296.04 216.54 295.53 216.41 C 295.53 215.04 295.53 213.68 295.52 212.33 Z" fill="#edfeff" opacity="1.00" stroke="#edfeff" stroke-width="0.25"/>
<path d="M 299.39 212.17 C 299.90 212.30 300.92 212.56 301.42 212.69 C 301.43 214.37 301.43 216.05 301.47 217.74 C 300.98 217.77 300.00 217.82 299.51 217.85 C 299.48 215.95 299.43 214.06 299.39 212.17 Z" fill="#edfeff" opacity="1.00" stroke="#edfeff" stroke-width="0.25"/>
<path d="M 267.79 213.91 C 278.11 214.11 288.10 217.30 298.00 219.98 C 307.11 222.40 315.72 226.91 325.20 227.76 C 329.75 227.32 334.23 225.26 338.85 226.76 C 337.22 230.30 335.68 233.88 334.07 237.44 C 324.18 230.47 312.18 227.76 300.87 224.03 C 290.95 220.67 280.74 218.33 270.45 216.46 C 269.33 216.15 266.22 215.71 267.79 213.91 Z" fill="#6bdcfc" opacity="1.00" stroke="#6bdcfc" stroke-width="0.25"/>
<path d="M 265.06 217.21 C 266.28 217.69 267.48 218.19 268.69 218.70 C 268.24 219.53 267.32 221.20 266.87 222.03 C 266.19 220.45 265.58 218.85 265.06 217.21 Z" fill="#9de7fb" opacity="1.00" stroke="#9de7fb" stroke-width="0.25"/>
<path d="M 353.64 224.45 C 354.69 221.04 357.13 217.38 360.95 216.89 C 363.20 216.68 365.51 218.66 365.56 220.93 C 365.95 229.65 362.13 238.02 362.50 246.71 C 362.90 247.02 363.70 247.62 364.11 247.93 C 366.65 240.48 366.92 232.50 369.07 224.96 C 370.06 221.40 373.89 218.97 377.46 220.54 C 380.27 222.82 379.67 226.80 379.68 230.00 C 379.67 235.69 378.75 241.34 378.72 247.03 C 378.46 248.52 380.46 250.49 381.53 248.58 C 383.61 243.57 382.85 237.59 385.90 232.97 C 388.17 229.98 392.98 232.23 393.33 235.61 C 394.10 241.03 393.59 246.54 393.66 252.00 C 393.33 263.37 396.11 274.63 395.06 286.00 C 394.62 294.29 393.11 302.49 390.88 310.48 C 376.40 311.81 361.96 313.54 347.58 315.71 C 345.70 310.72 344.83 305.39 342.57 300.54 C 339.81 294.44 336.90 288.32 335.47 281.74 C 333.54 273.64 333.81 265.26 333.64 256.99 C 333.48 247.43 336.24 238.06 340.50 229.56 C 342.25 226.30 343.30 222.58 345.75 219.74 C 347.85 218.18 349.74 221.19 350.07 223.02 C 350.66 230.64 345.85 237.65 346.64 245.29 C 347.85 244.88 348.64 244.09 349.01 242.92 C 350.89 236.85 351.95 230.57 353.64 224.45 Z" fill="#febb9f" opacity="1.00" stroke="#febb9f" stroke-width="0.25"/>
<path d="M 270.31 219.21 C 273.11 219.49 275.87 220.03 278.58 220.79 C 277.75 222.90 276.91 225.01 275.98 227.08 C 273.52 226.17 271.15 225.05 268.84 223.82 C 269.32 222.28 269.82 220.74 270.31 219.21 Z" fill="#99e8fc" opacity="1.00" stroke="#99e8fc" stroke-width="0.25"/>
<path d="M 280.22 221.19 C 281.40 221.30 282.60 221.41 283.79 221.51 C 283.62 224.06 282.80 226.49 281.84 228.84 C 280.59 228.52 279.34 228.19 278.10 227.86 C 278.63 225.58 279.37 223.37 280.22 221.19 Z" fill="#a1e5f9" opacity="1.00" stroke="#a1e5f9" stroke-width="0.25"/>
<path d="M 286.15 222.27 C 288.67 222.99 291.16 223.79 293.63 224.70 C 292.94 226.77 292.26 228.85 291.60 230.93 C 289.03 230.77 286.50 230.28 284.02 229.61 C 284.45 227.09 285.24 224.65 286.15 222.27 Z" fill="#9de7fb" opacity="1.00" stroke="#9de7fb" stroke-width="0.25"/>
<path d="M 295.43 225.35 C 296.02 225.36 297.21 225.37 297.81 225.38 C 297.59 227.56 297.27 229.74 296.82 231.89 C 295.65 231.73 294.48 231.57 293.32 231.39 C 294.05 229.38 294.76 227.37 295.43 225.35 Z" fill="#b3f2fe" opacity="1.00" stroke="#b3f2fe" stroke-width="0.25"/>
<path d="M 300.29 227.00 C 304.45 227.63 308.31 229.37 312.31 230.60 C 319.52 232.93 327.03 235.20 332.90 240.20 C 331.78 246.74 330.39 253.32 330.83 260.01 C 331.38 268.23 330.75 276.64 333.26 284.62 C 335.71 295.08 342.67 304.09 343.86 314.89 C 342.63 320.10 343.61 325.48 343.13 330.77 C 341.58 332.24 339.05 332.00 337.40 333.38 C 336.28 334.21 336.32 335.79 335.94 337.00 C 331.00 364.24 327.49 391.71 324.08 419.16 C 317.89 413.77 314.82 405.76 308.87 400.14 C 303.35 394.97 297.83 389.65 293.81 383.19 C 286.72 373.00 281.49 361.71 276.34 350.47 C 266.42 329.28 253.14 309.78 237.98 292.01 C 236.48 289.96 233.94 288.34 233.30 285.88 C 235.64 276.50 238.99 267.39 241.30 258.00 C 251.52 260.98 262.27 263.00 272.91 261.06 C 286.27 259.56 298.83 249.45 301.49 236.00 C 302.14 234.18 300.07 233.10 299.19 231.84 C 299.56 230.23 299.93 228.61 300.29 227.00 Z" fill="#fefefe" opacity="1.00" stroke="#fefefe" stroke-width="0.25"/>
<path d="M 396.67 243.81 C 403.35 245.37 409.77 247.84 416.38 249.68 C 418.89 250.56 422.25 251.16 423.14 254.11 C 423.82 256.39 423.43 259.07 421.99 261.00 C 420.01 263.19 416.81 262.48 414.33 261.75 C 408.39 259.93 402.47 258.07 396.57 256.13 C 396.53 252.02 396.51 247.91 396.67 243.81 Z" fill="#65dcfc" opacity="1.00" stroke="#65dcfc" stroke-width="0.25"/>
<path d="M 141.90 248.29 C 149.84 250.18 157.50 253.04 165.21 255.70 C 188.07 263.63 210.17 274.07 230.01 288.00 C 234.48 291.51 237.79 296.23 241.43 300.55 C 250.95 312.94 260.17 325.66 267.49 339.50 C 276.94 357.20 283.70 376.65 296.91 392.09 C 301.99 398.32 308.87 402.98 313.01 410.00 C 315.94 415.01 320.32 419.02 323.26 424.00 C 323.01 428.74 322.33 433.46 321.57 438.14 C 309.85 429.32 300.11 418.16 291.18 406.60 C 278.45 389.23 266.44 371.38 254.40 353.54 C 248.46 344.88 242.63 336.12 236.10 327.88 C 230.56 320.85 225.19 313.59 218.54 307.55 C 217.39 306.38 215.87 305.75 214.35 305.25 C 215.52 309.97 220.10 312.44 222.90 316.10 C 247.55 345.09 266.07 378.60 289.37 408.61 C 298.21 420.90 308.75 432.00 320.68 441.33 C 321.88 442.41 323.33 443.52 323.53 445.27 C 324.85 451.93 325.95 458.64 327.65 465.22 C 327.89 466.85 328.98 468.03 330.50 468.62 C 330.22 461.41 328.01 454.46 326.89 447.36 C 326.47 443.73 323.98 440.45 324.72 436.70 C 329.13 402.81 333.15 368.82 339.36 335.20 C 354.55 332.14 370.04 330.96 385.46 329.73 C 390.72 329.43 395.99 329.20 401.25 329.57 C 405.92 343.89 407.40 359.01 409.20 373.90 C 411.73 399.19 413.19 424.68 411.62 450.08 C 410.39 471.23 407.11 492.68 398.00 512.00 L 232.62 512.00 C 216.35 502.35 199.33 493.98 182.19 485.98 C 179.91 484.81 177.43 484.12 174.86 484.05 C 175.45 485.10 175.82 486.45 177.11 486.86 C 194.07 494.35 210.63 502.77 226.70 512.00 L 121.37 512.00 C 117.50 498.78 113.35 485.64 109.87 472.31 C 102.94 447.54 97.18 421.86 99.23 395.98 C 99.81 382.90 101.58 369.90 104.24 357.09 C 112.19 319.42 125.61 283.11 141.90 248.29 Z" fill="#ffffff" opacity="1.00" stroke="#ffffff" stroke-width="0.25"/>
<path d="M 214.35 305.25 C 215.87 305.75 217.39 306.38 218.54 307.55 C 225.19 313.59 230.56 320.85 236.10 327.88 C 242.63 336.12 248.46 344.88 254.40 353.54 C 266.44 371.38 278.45 389.23 291.18 406.60 C 290.72 407.10 289.82 408.11 289.37 408.61 C 266.07 378.60 247.55 345.09 222.90 316.10 C 220.10 312.44 215.52 309.97 214.35 305.25 Z" fill="#041b31" opacity="1.00" stroke="#041b31" stroke-width="0.25"/>
<path d="M 346.27 318.55 C 361.28 316.90 376.22 314.60 391.28 313.44 C 392.43 317.74 393.21 322.13 393.83 326.53 C 377.80 326.79 361.88 328.84 345.99 330.78 C 345.66 326.70 345.85 322.61 346.27 318.55 Z" fill="#fdfefd" opacity="1.00" stroke="#fdfefd" stroke-width="0.25"/>
<path d="M 174.86 484.05 C 177.43 484.12 179.91 484.81 182.19 485.98 C 199.33 493.98 216.35 502.35 232.62 512.00 L 226.70 512.00 C 210.63 502.77 194.07 494.35 177.11 486.86 C 175.82 486.45 175.45 485.10 174.86 484.05 Z" fill="#041b30" opacity="1.00" stroke="#041b30" stroke-width="0.25"/>
</svg>