<svg xmlns="http://www.w3.org/2000/svg" height="512pt" version="1.1" viewBox="0 0 512 512" width="512pt">
<path d="M 0.00 0.00 L 512.00 0.00 L 512.00 512.00 L 0.00 512.00 L 0.00 0.00 Z" fill="transparent" opacity="1.00" stroke="transparent" stroke-width="0.25" data-index="0" style="opacity: 1;"></path>
<path d="M 233.48 170.52 C 234.39 169.52 235.65 169.22 236.96 169.35 C 265.33 169.39 293.70 169.41 322.07 169.34 C 323.31 169.38 324.74 169.24 325.67 170.25 C 329.87 173.76 333.91 177.46 338.09 180.99 C 339.12 181.96 340.51 182.32 341.92 182.19 C 354.97 182.10 368.02 182.18 381.08 182.15 C 391.46 182.16 401.12 187.46 408.37 194.60 C 418.10 194.31 428.24 197.71 434.58 205.36 C 440.17 211.58 444.50 220.94 441.21 229.20 C 438.97 229.74 436.55 230.80 434.39 229.41 C 430.39 227.62 429.39 222.97 428.11 219.22 C 426.69 214.06 422.10 210.77 417.76 208.14 C 421.11 219.22 423.43 230.59 426.11 241.85 C 427.04 246.21 428.33 250.55 428.34 255.05 C 428.45 274.71 428.14 294.37 428.57 314.02 C 428.56 317.17 428.74 320.92 426.06 323.13 C 424.71 324.52 422.76 324.69 420.94 324.73 C 402.65 325.00 384.37 324.34 366.08 324.63 C 364.11 329.81 360.04 333.72 355.82 337.12 C 394.31 337.15 432.80 337.13 471.30 337.13 C 471.23 339.47 471.20 341.82 471.19 344.17 C 327.84 344.19 184.49 344.21 41.14 344.16 C 40.99 341.83 40.88 339.50 40.76 337.18 C 69.85 337.07 98.93 337.17 128.02 337.13 C 133.38 337.10 138.75 337.30 144.10 336.86 C 139.79 334.39 136.46 330.62 134.20 326.24 C 122.46 326.03 110.72 326.26 98.99 326.07 C 93.01 323.83 86.50 325.32 80.30 324.55 C 75.52 320.86 75.80 314.19 77.19 308.95 C 78.22 305.38 82.06 303.95 85.48 304.09 C 85.50 275.06 85.47 246.04 85.49 217.01 C 85.40 211.10 86.81 205.24 89.13 199.84 C 94.21 189.39 105.35 182.36 116.96 182.17 C 126.41 182.17 135.86 182.05 145.32 182.28 C 147.02 179.70 148.13 175.33 152.03 175.73 C 159.74 175.62 167.46 175.72 175.18 175.76 C 176.88 177.76 178.09 180.12 179.83 182.09 C 193.02 182.35 206.22 181.91 219.41 182.32 C 224.33 178.67 228.68 174.33 233.48 170.52 Z" fill="#085381" opacity="1.00" stroke="#085381" stroke-width="0.25" data-index="1" style="opacity: 1; visibility: visible;"></path>
<path d="M 237.28 176.47 C 246.31 176.12 255.37 176.50 264.41 176.28 C 264.67 177.77 264.03 180.34 265.99 180.84 C 269.71 181.60 273.57 181.09 277.35 181.21 L 277.09 182.12 C 261.51 182.23 245.93 182.13 230.35 182.14 C 232.65 180.27 234.62 177.85 237.28 176.47 Z" fill="#fbffff" opacity="1.00" stroke="#fbffff" stroke-width="0.25" data-index="2"></path>
<path d="M 295.55 176.30 C 303.70 176.40 311.85 176.35 320.01 176.32 C 324.00 175.90 326.30 179.92 329.01 182.16 C 311.70 182.18 294.40 182.13 277.09 182.12 L 277.35 181.21 C 277.76 179.59 277.81 177.91 277.98 176.27 C 279.25 176.29 280.51 176.30 281.78 176.32 C 281.85 177.81 282.04 179.28 282.37 180.73 C 286.67 181.60 291.15 181.37 295.44 180.49 C 295.48 179.09 295.52 177.69 295.55 176.30 Z" fill="#faffff" opacity="1.00" stroke="#faffff" stroke-width="0.25" data-index="3"></path>
<path d="M 151.92 180.55 C 158.78 180.52 165.65 180.55 172.52 180.47 L 172.54 182.18 C 165.61 182.06 158.68 182.10 151.75 182.12 L 151.92 180.55 Z" fill="#dbffff" opacity="1.00" stroke="#dbffff" stroke-width="0.25" data-index="4"></path>
<path d="M 101.05 196.04 C 105.78 191.47 112.55 189.65 118.99 189.59 C 205.99 189.60 292.99 189.56 379.99 189.61 C 395.05 189.33 407.91 201.22 412.10 215.13 C 415.80 227.50 417.93 240.26 421.07 252.77 C 421.37 255.93 421.33 259.12 421.37 262.29 C 373.47 262.27 325.57 262.16 277.67 262.34 C 277.72 241.97 277.82 221.58 277.63 201.21 C 259.56 201.16 241.50 201.14 223.44 201.22 C 223.34 221.57 223.32 241.92 223.47 262.27 C 179.84 262.25 136.20 262.25 92.57 262.27 C 92.73 245.98 92.19 229.66 92.89 213.39 C 93.99 207.04 95.94 200.35 101.05 196.04 Z" fill="#ffffff" opacity="1.00" stroke="#ffffff" stroke-width="0.25" data-index="5"></path>
<path d="M 412.49 200.64 C 417.15 199.89 421.71 202.13 425.58 204.52 C 432.52 208.94 436.53 216.83 437.59 224.83 C 437.07 224.52 436.02 223.90 435.50 223.59 C 433.16 217.18 430.69 210.19 424.64 206.30 C 421.13 203.26 415.98 203.62 412.49 200.64 Z" fill="#f5ffff" opacity="1.00" stroke="#f5ffff" stroke-width="0.25" data-index="6"></path>
<path d="M 223.44 201.22 C 241.50 201.14 259.56 201.16 277.63 201.21 C 277.82 221.58 277.72 241.97 277.67 262.34 C 325.57 262.16 373.47 262.27 421.37 262.29 C 421.33 259.12 421.37 255.93 421.07 252.77 C 423.11 255.65 423.07 259.60 421.84 262.79 C 418.69 263.86 415.33 263.87 412.04 263.93 C 371.69 264.09 331.34 263.87 290.99 263.99 C 285.72 264.23 280.44 263.99 275.24 263.12 C 275.33 265.64 275.52 268.16 275.88 270.66 C 276.32 270.43 277.21 269.95 277.66 269.71 C 277.78 284.74 277.78 299.76 277.64 314.78 C 259.57 314.83 241.51 314.90 223.44 314.75 C 223.31 299.75 223.32 284.76 223.45 269.76 C 179.79 269.64 136.12 269.87 92.46 269.64 L 90.70 269.57 C 92.85 268.17 94.97 266.65 97.38 265.74 C 100.54 264.98 103.82 265.49 107.03 265.45 C 139.69 265.37 172.35 265.49 205.00 265.43 C 209.48 265.32 214.14 266.15 218.44 264.47 C 216.62 264.21 214.81 263.98 212.98 263.91 C 174.34 264.11 135.69 263.93 97.05 264.00 C 94.69 264.16 91.81 263.39 91.22 260.76 C 90.51 254.87 91.15 248.91 90.94 243.00 C 91.17 233.06 90.53 223.07 91.40 213.17 C 91.77 213.22 92.51 213.33 92.89 213.39 C 92.19 229.66 92.73 245.98 92.57 262.27 C 136.20 262.25 179.84 262.25 223.47 262.27 C 223.32 241.92 223.34 221.57 223.44 201.22 Z" fill="#0a4a73" opacity="1.00" stroke="#0a4a73" stroke-width="0.25" data-index="7"></path>
<path d="M 226.88 219.04 C 226.91 214.23 226.64 209.41 227.24 204.63 C 235.21 204.80 243.19 204.68 251.17 204.73 C 251.10 240.31 251.19 275.88 251.13 311.46 C 243.03 311.24 234.94 311.38 226.84 311.38 C 226.89 280.60 226.86 249.82 226.88 219.04 Z" fill="#f9ffff" opacity="1.00" stroke="#f9ffff" stroke-width="0.25" data-index="8"></path>
<path d="M 254.55 204.73 C 261.11 204.72 267.67 204.75 274.24 204.72 C 274.26 240.30 274.19 275.87 274.24 311.44 C 267.70 311.30 261.17 311.31 254.63 311.41 C 254.53 275.85 254.67 240.29 254.55 204.73 Z" fill="#fbffff" opacity="1.00" stroke="#fbffff" stroke-width="0.25" data-index="9"></path>
<path d="M 290.47 211.58 C 292.23 210.83 294.10 210.41 296.02 210.51 C 307.86 210.57 319.69 210.47 331.53 210.59 C 332.21 211.30 332.90 212.00 333.60 212.71 C 334.11 223.80 333.70 234.91 333.85 246.01 C 333.65 248.16 334.23 251.04 331.94 252.29 C 328.99 252.91 325.95 252.55 322.97 252.63 C 312.95 252.54 302.93 252.74 292.93 252.54 C 290.60 252.63 289.86 249.88 289.84 248.03 C 289.73 238.68 289.93 229.32 289.81 219.97 C 289.73 217.16 290.02 214.35 290.47 211.58 Z" fill="#085180" opacity="1.00" stroke="#085180" stroke-width="0.25" data-index="10"></path>
<path d="M 106.43 212.71 C 107.17 211.99 107.90 211.27 108.64 210.56 C 121.77 210.52 134.90 210.51 148.03 210.58 C 148.82 211.38 149.62 212.19 150.43 212.99 C 150.63 223.66 150.37 234.34 150.51 245.02 C 150.40 247.43 150.99 250.29 149.01 252.15 C 147.40 252.70 145.67 252.59 143.99 252.64 C 132.06 252.58 120.13 252.65 108.21 252.58 C 105.58 250.05 106.33 246.23 106.21 242.96 C 106.33 232.87 106.10 222.79 106.43 212.71 Z" fill="#09517f" opacity="1.00" stroke="#09517f" stroke-width="0.25" data-index="11"></path>
<path d="M 167.42 216.97 C 167.46 214.87 167.32 212.42 169.13 210.95 C 170.72 210.48 172.39 210.56 174.04 210.52 C 185.43 210.53 196.83 210.54 208.23 210.51 C 208.81 210.82 209.97 211.44 210.56 211.75 C 211.65 215.42 211.27 219.26 211.30 223.02 C 211.27 231.37 211.36 239.72 211.28 248.06 C 211.41 249.79 210.18 251.16 209.43 252.60 C 196.60 252.59 183.76 252.72 170.93 252.55 C 168.35 252.98 167.31 250.13 167.46 248.03 C 167.42 237.68 167.48 227.32 167.42 216.97 Z" fill="#095482" opacity="1.00" stroke="#095482" stroke-width="0.25" data-index="12"></path>
<path d="M 232.87 211.87 C 233.11 211.60 233.57 211.05 233.81 210.77 C 237.55 210.48 241.32 210.50 245.07 210.78 C 246.88 211.91 246.16 214.18 246.31 215.95 C 246.25 244.16 246.21 272.37 246.35 300.58 C 241.86 301.39 237.25 301.40 232.77 300.54 C 232.91 270.99 232.68 241.42 232.87 211.87 Z" fill="#0c456c" opacity="1.00" stroke="#0c456c" stroke-width="0.25" data-index="13"></path>
<path d="M 257.78 215.97 C 257.76 214.15 258.15 212.37 258.50 210.60 C 261.80 210.60 265.15 210.44 268.41 211.15 C 268.40 240.98 268.39 270.81 268.42 300.65 C 265.11 301.24 261.74 301.22 258.39 301.19 C 258.14 299.47 257.87 297.75 257.83 296.01 C 257.82 269.33 257.93 242.65 257.78 215.97 Z" fill="#0a496c" opacity="1.00" stroke="#0a496c" stroke-width="0.25" data-index="14"></path>
<path d="M 350.87 215.94 C 350.78 213.55 351.92 210.04 354.95 210.59 C 367.00 210.47 379.05 210.51 391.10 210.56 C 393.49 210.29 394.95 212.88 394.75 214.98 C 394.84 226.01 394.80 237.04 394.74 248.06 C 395.01 250.24 393.56 252.87 391.09 252.59 C 378.15 252.64 365.20 252.68 352.27 252.53 C 351.54 250.76 350.74 248.95 350.84 246.99 C 350.86 236.64 350.81 226.29 350.87 215.94 Z" fill="#0a517f" opacity="1.00" stroke="#0a517f" stroke-width="0.25" data-index="15"></path>
<path d="M 235.56 213.58 C 238.19 213.62 240.82 213.64 243.46 213.63 C 243.39 241.84 243.40 270.05 243.46 298.26 C 240.83 298.21 238.20 298.09 235.58 297.86 C 235.70 269.77 235.69 241.67 235.56 213.58 Z" fill="#feffff" opacity="1.00" stroke="#feffff" stroke-width="0.25" data-index="16"></path>
<path d="M 260.72 213.58 C 262.33 213.61 263.94 213.65 265.56 213.68 C 265.44 241.92 265.59 270.16 265.49 298.40 C 263.88 298.19 262.29 297.96 260.70 297.74 C 260.85 269.68 260.80 241.63 260.72 213.58 Z" fill="#f6ffff" opacity="1.00" stroke="#f6ffff" stroke-width="0.25" data-index="17"></path>
<path d="M 112.71 217.19 C 123.10 217.06 133.50 217.13 143.89 217.12 C 143.87 226.78 143.91 236.43 143.89 246.09 C 133.48 246.11 123.08 246.11 112.67 246.09 C 112.75 236.45 112.68 226.82 112.71 217.19 Z" fill="#feffff" opacity="1.00" stroke="#feffff" stroke-width="0.25" data-index="18"></path>
<path d="M 173.77 217.20 C 184.10 217.08 194.44 217.06 204.77 217.20 C 204.79 226.74 204.70 236.29 204.76 245.84 C 194.43 246.19 184.05 246.37 173.73 245.71 C 173.87 236.21 173.84 226.70 173.77 217.20 Z" fill="#feffff" opacity="1.00" stroke="#feffff" stroke-width="0.25" data-index="19"></path>
<path d="M 295.07 218.22 C 295.37 217.90 295.97 217.25 296.27 216.92 C 296.40 226.69 296.47 236.48 296.21 246.26 C 293.67 243.87 295.16 240.02 294.96 236.97 C 295.64 230.73 294.30 224.41 295.07 218.22 Z" fill="#124a6c" opacity="1.00" stroke="#124a6c" stroke-width="0.25" data-index="20"></path>
<path d="M 296.27 216.92 C 306.63 217.37 317.02 217.02 327.39 217.13 C 327.30 226.79 327.31 236.45 327.41 246.11 C 317.01 246.18 306.60 245.88 296.21 246.26 C 296.47 236.48 296.40 226.69 296.27 216.92 Z" fill="#ffffff" opacity="1.00" stroke="#ffffff" stroke-width="0.25" data-index="21"></path>
<path d="M 357.38 217.16 C 367.75 217.08 378.12 217.10 388.49 217.16 C 388.49 226.71 388.39 236.26 388.51 245.82 C 378.15 246.40 367.76 245.97 357.39 246.08 C 357.40 236.44 357.42 226.80 357.38 217.16 Z" fill="#feffff" opacity="1.00" stroke="#feffff" stroke-width="0.25" data-index="22"></path>
<path d="M 92.46 269.64 C 136.12 269.87 179.79 269.64 223.45 269.76 C 223.32 284.76 223.31 299.75 223.44 314.75 C 241.51 314.90 259.57 314.83 277.64 314.78 C 277.78 299.76 277.78 284.74 277.66 269.71 C 325.55 269.81 373.44 269.69 421.33 269.79 C 421.17 281.35 421.33 292.91 421.28 304.47 C 413.09 304.57 404.90 304.49 396.71 304.50 C 396.55 299.66 392.45 295.83 393.16 290.90 C 393.42 288.54 394.97 286.63 396.40 284.84 C 399.90 283.47 403.67 283.33 407.38 283.27 C 407.87 283.26 408.84 283.25 409.33 283.24 C 409.39 288.81 409.05 294.38 409.42 299.94 C 409.96 302.37 414.32 301.63 414.23 299.17 C 414.24 293.43 414.34 287.69 414.19 281.96 C 414.26 279.78 412.21 278.16 410.12 278.43 C 404.60 278.51 398.45 277.36 393.56 280.60 C 388.67 284.25 386.33 291.13 388.40 296.94 C 389.39 299.62 390.60 302.22 391.24 305.01 C 390.79 305.39 389.88 306.13 389.43 306.50 C 389.20 310.16 389.12 313.82 389.18 317.49 C 385.65 317.51 382.14 317.52 378.62 317.53 C 378.67 309.38 376.58 300.98 371.49 294.48 C 364.18 284.35 351.49 278.30 339.00 279.40 C 323.86 280.21 310.06 291.28 305.81 305.79 C 304.56 309.87 304.19 314.15 304.06 318.40 C 267.87 318.43 231.69 318.40 195.50 318.45 L 195.47 317.92 C 195.26 308.84 192.64 299.48 186.45 292.62 C 177.96 282.13 163.41 277.13 150.26 280.14 C 135.14 283.16 122.87 296.50 120.97 311.78 C 120.64 313.95 120.51 316.15 120.35 318.35 C 116.10 318.34 111.86 318.31 107.61 318.38 C 107.56 313.77 108.93 307.63 103.99 304.96 C 100.29 303.84 96.21 304.68 92.37 304.33 L 92.43 303.21 C 92.66 292.27 92.56 281.32 92.47 270.37 L 92.46 269.64 Z" fill="#ffffff" opacity="1.00" stroke="#ffffff" stroke-width="0.25" data-index="23"></path>
<path d="M 91.04 279.00 C 91.19 276.11 90.38 272.76 92.47 270.37 C 92.56 281.32 92.66 292.27 92.43 303.21 L 91.52 304.63 C 90.58 296.12 91.34 287.54 91.04 279.00 Z" fill="#09456a" opacity="1.00" stroke="#09456a" stroke-width="0.25" data-index="24"></path>
<path d="M 150.26 280.14 C 163.41 277.13 177.96 282.13 186.45 292.62 C 192.64 299.48 195.26 308.84 195.47 317.92 C 194.18 318.08 192.88 318.25 191.59 318.42 C 191.23 310.91 189.45 303.23 184.94 297.08 C 178.93 288.97 169.21 283.40 159.01 283.41 C 149.61 283.03 140.22 287.01 133.81 293.86 C 127.48 300.15 124.48 309.18 124.33 317.98 C 123.57 317.96 122.04 317.92 121.28 317.90 C 121.13 315.86 120.93 313.82 120.97 311.78 C 122.87 296.50 135.14 283.16 150.26 280.14 Z" fill="#0f5179" opacity="1.00" stroke="#0f5179" stroke-width="0.25" data-index="25"></path>
<path d="M 394.64 285.38 C 397.72 280.67 403.91 281.96 408.68 282.09 L 407.38 283.27 C 403.67 283.33 399.90 283.47 396.40 284.84 L 394.64 285.38 Z" fill="#0f4767" opacity="1.00" stroke="#0f4767" stroke-width="0.25" data-index="26"></path>
<path d="M 133.81 293.86 C 140.22 287.01 149.61 283.03 159.01 283.41 C 169.21 283.40 178.93 288.97 184.94 297.08 C 189.45 303.23 191.23 310.91 191.59 318.42 C 189.30 318.44 187.00 318.43 184.71 318.41 C 185.04 311.98 184.23 305.17 180.24 299.88 C 175.42 292.56 166.70 288.09 157.97 288.11 C 148.20 287.93 138.57 293.74 134.21 302.49 C 131.39 307.30 130.94 312.99 131.19 318.44 C 128.89 318.49 126.60 318.50 124.30 318.50 L 124.33 317.98 C 124.48 309.18 127.48 300.15 133.81 293.86 Z" fill="#f9feff" opacity="1.00" stroke="#f9feff" stroke-width="0.25" data-index="27"></path>
<path d="M 323.62 288.62 C 333.82 282.00 347.71 281.54 358.20 287.78 C 368.69 293.64 374.90 305.68 374.70 317.56 C 372.55 317.54 370.40 317.52 368.26 317.53 C 368.47 311.28 367.35 304.79 363.60 299.63 C 358.62 292.37 349.76 287.89 340.96 288.12 C 331.74 288.02 322.81 293.44 318.28 301.41 C 315.04 306.47 314.36 312.63 314.60 318.51 C 312.42 318.49 310.24 318.47 308.07 318.47 C 307.68 306.73 313.52 294.81 323.62 288.62 Z" fill="#f9ffff" opacity="1.00" stroke="#f9ffff" stroke-width="0.25" data-index="28"></path>
<path d="M 399.13 286.03 C 401.97 284.74 404.56 286.77 406.81 288.25 C 406.85 288.81 406.93 289.91 406.97 290.46 C 406.87 292.30 406.69 294.14 406.38 295.97 C 404.70 298.52 401.56 298.55 398.84 298.62 C 396.66 296.96 395.17 294.70 394.54 292.04 C 395.28 289.57 396.31 286.69 399.13 286.03 Z" fill="#244d5e" opacity="1.00" stroke="#244d5e" stroke-width="0.25" data-index="29"></path>
<path d="M 397.31 291.72 C 398.66 290.37 399.71 287.84 402.08 288.50 C 404.44 289.13 404.49 291.89 404.49 293.87 C 403.89 294.32 402.70 295.21 402.10 295.66 C 400.95 295.24 399.81 294.82 398.68 294.40 C 398.33 293.73 397.65 292.39 397.31 291.72 Z" fill="#f17324" opacity="1.00" stroke="#f17324" stroke-width="0.25" data-index="30"></path>
<path d="M 406.97 290.46 C 409.35 290.82 408.56 295.80 406.38 295.97 C 406.69 294.14 406.87 292.30 406.97 290.46 Z" fill="#a1cee6" opacity="1.00" stroke="#a1cee6" stroke-width="0.25" data-index="31"></path>
<path d="M 152.83 299.97 C 162.16 296.32 173.82 303.86 173.53 314.04 C 173.98 322.80 165.73 330.92 156.91 329.74 C 147.80 329.53 140.64 319.78 142.92 311.02 C 144.09 305.95 148.07 301.88 152.83 299.97 Z" fill="#f8ffff" opacity="1.00" stroke="#f8ffff" stroke-width="0.25" data-index="32"></path>
<path d="M 336.59 299.80 C 345.83 296.60 357.07 303.90 356.77 313.89 C 357.63 322.93 348.83 331.03 339.91 329.77 C 330.82 329.30 324.06 319.49 326.41 310.81 C 327.56 305.61 331.68 301.58 336.59 299.80 Z" fill="#f7ffff" opacity="1.00" stroke="#f7ffff" stroke-width="0.25" data-index="33"></path>
<path d="M 155.42 304.56 C 161.77 302.56 169.10 308.31 168.42 314.99 C 168.23 320.75 162.68 325.46 156.97 324.72 C 150.52 324.49 146.03 317.05 148.17 311.15 C 149.38 307.97 152.15 305.49 155.42 304.56 Z" fill="#09527f" opacity="1.00" stroke="#09527f" stroke-width="0.25" data-index="34"></path>
<path d="M 338.44 304.61 C 345.62 302.14 353.80 309.52 351.49 316.93 C 350.02 324.41 339.38 327.49 334.23 321.84 C 328.48 316.87 331.07 306.44 338.44 304.61 Z" fill="#0b5381" opacity="1.00" stroke="#0b5381" stroke-width="0.25" data-index="35"></path>
<path d="M 395.68 310.44 C 397.63 308.49 400.54 309.08 403.02 308.99 C 409.79 309.33 416.57 308.62 423.34 309.13 C 422.86 309.47 421.91 310.14 421.43 310.47 C 412.85 310.48 404.26 310.48 395.68 310.44 Z" fill="#074569" opacity="1.00" stroke="#074569" stroke-width="0.25" data-index="36" style="opacity: 1;"></path>
<path d="M 82.78 310.66 C 88.96 310.37 95.15 310.56 101.34 310.61 C 101.35 312.96 101.34 315.31 101.33 317.66 C 95.17 318.32 88.90 318.45 82.75 317.58 C 82.75 315.27 82.75 312.96 82.78 310.66 Z" fill="#f8ffff" opacity="1.00" stroke="#f8ffff" stroke-width="0.25" data-index="37"></path>
<path d="M 153.64 315.17 C 152.38 310.57 159.86 308.07 161.82 312.18 C 163.45 314.62 161.47 317.05 159.83 318.79 C 157.21 318.87 154.13 318.24 153.64 315.17 Z" fill="#f7ffff" opacity="1.00" stroke="#f7ffff" stroke-width="0.25" data-index="38"></path>
<path d="M 337.17 314.00 C 336.92 311.08 340.51 309.53 342.94 310.31 C 345.85 311.15 346.68 315.40 344.56 317.45 C 343.46 318.95 341.26 318.35 339.69 318.84 C 338.47 317.46 336.69 316.09 337.17 314.00 Z" fill="#f5ffff" opacity="1.00" stroke="#f5ffff" stroke-width="0.25" data-index="39"></path>
<path d="M 395.68 310.44 C 404.26 310.48 412.85 310.48 421.43 310.47 L 422.20 310.45 C 422.17 312.83 422.15 315.21 422.15 317.59 C 413.25 318.52 404.24 318.21 395.31 317.70 C 395.29 315.27 395.30 312.86 395.38 310.44 L 395.68 310.44 Z" fill="#fbffff" opacity="1.00" stroke="#fbffff" stroke-width="0.25" data-index="40" style="opacity: 1;"></path>
<path d="M 181.91 326.20 C 226.29 326.04 270.67 326.13 315.04 326.16 C 318.17 325.41 318.92 328.82 320.48 330.70 C 322.23 333.29 324.86 335.06 327.22 337.04 C 275.67 337.22 224.11 337.14 172.55 337.08 C 176.31 334.07 179.75 330.56 181.91 326.20 Z" fill="#feffff" opacity="1.00" stroke="#feffff" stroke-width="0.25" data-index="41" style="opacity: 1; visibility: visible;"></path>
</svg>