<?xml version="1.0" encoding="utf-8"?>
<svg xmlns="http://www.w3.org/2000/svg" height="512pt" version="1.1" viewBox="0 0 512 512" width="512pt">
<path d="M 0.00 0.00 L 512.00 0.00 L 512.00 512.00 L 0.00 512.00 L 0.00 0.00 Z" fill="transparent" opacity="1.00" stroke="transparent" stroke-width="0.25"/>
<path d="M 37.20 104.16 C 42.94 97.28 52.49 95.43 60.99 94.82 C 84.30 94.13 107.27 101.03 127.89 111.53 C 141.39 118.81 154.24 127.31 166.19 136.93 C 184.57 152.40 202.24 168.89 217.35 187.63 C 223.86 195.38 230.28 203.26 235.82 211.75 C 236.26 211.62 237.14 211.36 237.58 211.23 C 233.83 207.01 233.04 200.49 236.88 196.04 C 223.70 174.59 206.76 155.78 193.34 134.51 C 191.01 130.22 186.79 125.29 189.61 120.25 C 193.75 121.54 195.78 125.58 197.96 128.98 C 203.33 138.80 208.55 148.75 215.00 157.93 C 223.25 170.11 232.60 181.55 240.31 194.11 C 243.39 193.38 246.72 192.82 249.69 194.28 C 263.87 176.13 279.41 158.92 297.19 144.21 C 301.56 141.07 306.17 137.16 311.88 137.36 C 311.85 139.40 312.11 141.81 310.24 143.17 C 306.16 146.61 301.41 149.13 296.95 152.04 C 279.93 163.87 265.70 179.29 253.41 195.90 C 257.68 200.00 257.78 207.29 253.16 211.16 C 253.93 212.01 254.70 212.87 255.47 213.73 C 264.41 202.59 273.19 191.30 282.84 180.76 C 292.36 170.28 303.10 160.97 314.28 152.31 C 345.49 127.70 383.17 110.60 422.89 106.50 C 430.93 105.81 439.13 105.19 447.06 107.10 C 452.32 108.23 457.67 111.12 459.99 116.21 C 462.83 121.73 461.74 128.27 459.83 133.91 C 450.56 154.72 437.41 173.47 426.66 193.50 C 417.79 208.44 414.82 225.79 408.62 241.82 C 404.33 252.39 392.92 257.98 382.10 259.10 C 368.88 259.94 356.37 254.51 343.36 253.31 C 351.01 256.05 358.71 259.00 365.27 263.92 C 375.35 271.59 384.03 282.13 386.56 294.82 C 388.64 303.20 385.92 311.67 384.07 319.83 C 381.69 329.12 379.81 338.73 375.00 347.14 C 371.59 352.83 367.54 358.17 362.57 362.58 C 352.52 371.97 342.41 381.35 331.42 389.65 C 326.31 393.54 319.58 394.02 314.16 397.31 C 310.77 399.32 307.16 401.45 303.09 401.41 C 298.59 401.26 294.11 399.32 291.09 395.95 C 285.35 389.61 281.16 382.07 277.35 374.48 C 268.47 356.44 264.55 336.58 258.39 317.58 C 256.03 324.12 255.22 331.40 251.24 337.25 C 249.26 340.01 245.01 338.56 243.98 335.65 C 240.04 326.93 238.61 317.34 237.09 307.97 C 227.62 328.96 216.19 348.99 207.12 370.17 C 203.57 377.26 200.59 384.97 194.64 390.47 C 191.35 393.95 186.62 395.66 181.94 396.15 C 177.95 396.19 174.33 394.25 170.55 393.25 C 164.22 391.41 157.32 390.91 151.62 387.33 C 144.60 382.33 140.79 374.28 134.99 368.09 C 127.94 360.78 120.94 353.41 113.57 346.42 C 109.73 342.79 106.46 338.52 104.28 333.70 C 99.83 323.67 96.56 313.01 95.77 302.03 C 95.35 292.59 99.80 283.73 105.56 276.54 C 116.39 262.93 131.18 253.05 146.86 245.84 C 137.70 246.49 128.66 248.16 119.76 250.36 C 110.17 252.35 99.35 253.97 90.49 248.70 C 81.94 243.17 77.02 233.65 73.79 224.29 C 70.64 213.68 69.70 202.57 66.93 191.86 C 64.91 183.26 61.59 175.06 57.89 167.06 C 50.10 153.24 39.30 140.93 34.63 125.52 C 32.65 118.49 32.27 110.12 37.20 104.16 Z" fill="#032949" opacity="1.00" stroke="#032949" stroke-width="0.25"/>
<path d="M 62.48 101.07 C 63.76 100.53 65.03 99.99 66.31 99.46 C 69.38 100.75 69.83 106.32 66.02 106.55 C 62.81 107.08 62.41 103.37 62.48 101.07 Z" fill="#ffffff" opacity="1.00" stroke="#ffffff" stroke-width="0.25"/>
<path d="M 53.56 112.02 C 53.09 108.71 56.20 106.68 58.80 105.48 C 60.51 106.67 62.14 107.99 63.53 109.55 C 63.13 110.85 62.72 112.15 62.32 113.45 C 60.48 114.24 58.59 114.91 56.70 115.55 C 55.64 114.47 53.24 113.92 53.56 112.02 Z" fill="#ffffff" opacity="1.00" stroke="#ffffff" stroke-width="0.25"/>
<path d="M 421.31 112.43 C 423.03 111.16 425.05 112.50 426.29 113.80 C 426.44 115.43 426.17 118.27 423.99 118.28 C 420.76 119.10 419.02 114.43 421.31 112.43 Z" fill="#ffffff" opacity="1.00" stroke="#ffffff" stroke-width="0.25"/>
<path d="M 40.44 113.35 C 41.40 113.32 42.35 113.28 43.31 113.26 C 43.30 113.81 43.26 114.93 43.25 115.49 C 42.70 115.53 41.60 115.61 41.05 115.65 C 40.85 114.88 40.64 114.12 40.44 113.35 Z" fill="#ffffff" opacity="1.00" stroke="#ffffff" stroke-width="0.25"/>
<path d="M 102.54 117.60 C 101.45 115.21 103.44 112.39 106.05 112.80 C 109.39 113.84 112.05 116.44 113.10 119.79 C 112.63 120.22 111.70 121.09 111.23 121.52 C 108.20 120.68 104.68 120.13 102.54 117.60 Z" fill="#ffffff" opacity="1.00" stroke="#ffffff" stroke-width="0.25"/>
<path d="M 121.55 118.35 C 122.68 116.96 124.24 116.32 126.01 116.32 C 126.38 116.86 127.12 117.95 127.48 118.49 C 127.47 118.99 127.45 119.99 127.43 120.50 C 127.09 121.03 126.39 122.09 126.04 122.62 C 124.35 122.50 122.79 121.94 121.58 120.73 C 121.57 120.13 121.55 118.95 121.55 118.35 Z" fill="#ffffff" opacity="1.00" stroke="#ffffff" stroke-width="0.25"/>
<path d="M 426.50 120.16 C 428.11 119.07 429.88 118.30 431.76 117.82 C 433.45 119.25 435.06 120.78 436.39 122.55 C 436.02 123.90 435.68 125.24 435.36 126.60 C 431.98 129.07 426.63 127.24 425.56 123.16 C 425.88 122.16 426.19 121.16 426.50 120.16 Z" fill="#ffffff" opacity="1.00" stroke="#ffffff" stroke-width="0.25"/>
<path d="M 452.38 120.67 C 452.98 120.64 454.19 120.58 454.79 120.55 C 454.78 121.50 454.78 122.45 454.79 123.41 C 454.19 123.37 453.00 123.31 452.41 123.27 C 452.39 122.41 452.38 121.54 452.38 120.67 Z" fill="#ffffff" opacity="1.00" stroke="#ffffff" stroke-width="0.25"/>
<path d="M 92.52 127.99 C 92.50 125.66 92.74 122.63 95.14 121.52 C 101.57 120.20 108.54 121.80 113.77 125.76 C 113.41 127.97 113.06 131.38 110.12 131.40 C 104.74 131.90 98.82 132.86 93.76 130.49 C 93.45 129.86 92.83 128.62 92.52 127.99 Z" fill="#ffffff" opacity="1.00" stroke="#ffffff" stroke-width="0.25"/>
<path d="M 62.45 124.52 C 66.97 123.64 71.90 130.54 67.84 133.94 C 66.27 135.28 63.84 136.12 61.93 135.00 C 57.82 133.22 58.18 125.81 62.45 124.52 Z" fill="#ffffff" opacity="1.00" stroke="#ffffff" stroke-width="0.25"/>
<path d="M 379.01 125.89 C 381.17 123.63 384.92 123.76 386.50 126.61 C 386.22 127.34 385.66 128.81 385.38 129.54 C 382.67 130.85 379.87 132.16 376.83 132.43 C 373.72 130.45 377.14 127.34 379.01 125.89 Z" fill="#ffffff" opacity="1.00" stroke="#ffffff" stroke-width="0.25"/>
<path d="M 40.12 130.74 C 40.36 129.03 41.28 127.64 42.60 126.56 C 43.37 126.88 44.91 127.51 45.68 127.82 C 45.75 129.01 45.81 130.20 45.88 131.39 C 44.58 131.86 43.28 132.31 41.97 132.73 C 41.51 132.23 40.59 131.24 40.12 130.74 Z" fill="#ffffff" opacity="1.00" stroke="#ffffff" stroke-width="0.25"/>
<path d="M 132.40 131.09 C 132.49 129.44 132.10 127.45 133.79 126.43 C 136.05 125.57 138.71 127.64 138.25 130.06 C 137.68 131.41 136.23 131.89 135.11 132.65 C 134.43 132.26 133.08 131.48 132.40 131.09 Z" fill="#ffffff" opacity="1.00" stroke="#ffffff" stroke-width="0.25"/>
<path d="M 446.86 131.67 C 448.01 131.69 449.17 131.72 450.34 131.77 C 450.33 132.76 450.32 133.75 450.32 134.75 C 449.08 134.74 447.86 134.71 446.64 134.68 C 446.70 133.67 446.78 132.67 446.86 131.67 Z" fill="#ffffff" opacity="1.00" stroke="#ffffff" stroke-width="0.25"/>
<path d="M 374.35 138.00 C 376.52 133.77 381.60 132.74 385.89 132.19 C 389.08 132.14 393.11 131.53 395.33 134.41 C 395.86 136.25 395.62 138.19 395.58 140.08 C 394.77 140.91 393.96 141.75 393.17 142.60 C 388.31 143.13 383.45 142.49 378.59 142.42 C 376.56 141.61 375.26 139.92 374.35 138.00 Z" fill="#ffffff" opacity="1.00" stroke="#ffffff" stroke-width="0.25"/>
<path d="M 353.47 133.85 C 354.10 133.66 355.36 133.27 355.99 133.08 C 356.63 133.28 357.89 133.68 358.53 133.88 C 358.59 135.26 358.61 136.64 358.62 138.02 C 357.74 138.46 356.86 138.89 355.99 139.32 C 355.11 138.90 354.24 138.48 353.38 138.05 C 353.37 136.65 353.40 135.25 353.47 133.85 Z" fill="#ffffff" opacity="1.00" stroke="#ffffff" stroke-width="0.25"/>
<path d="M 75.18 139.67 C 78.64 135.66 84.19 134.87 89.18 134.81 C 91.02 135.13 93.41 135.56 94.24 137.49 C 95.35 140.24 94.70 143.26 94.46 146.11 C 90.16 150.69 83.46 152.18 77.49 150.48 C 75.14 147.36 74.93 143.42 75.18 139.67 Z" fill="#ffffff" opacity="1.00" stroke="#ffffff" stroke-width="0.25"/>
<path d="M 47.75 139.04 C 47.79 137.38 49.36 137.36 50.56 137.05 C 50.56 137.82 50.55 139.36 50.54 140.13 C 49.60 139.80 48.66 139.44 47.75 139.04 Z" fill="#ffffff" opacity="1.00" stroke="#ffffff" stroke-width="0.25"/>
<path d="M 424.61 137.29 C 426.72 137.06 428.80 137.45 430.66 138.50 C 431.84 141.39 432.24 145.59 429.04 147.33 C 425.67 148.85 422.19 147.00 420.33 144.12 C 420.83 141.32 422.56 139.14 424.61 137.29 Z" fill="#ffffff" opacity="1.00" stroke="#ffffff" stroke-width="0.25"/>
<path d="M 126.38 142.61 C 127.70 141.12 129.83 141.42 131.61 141.20 C 132.47 144.12 130.24 146.90 127.17 146.47 C 125.09 146.56 125.24 143.68 126.38 142.61 Z" fill="#ffffff" opacity="1.00" stroke="#ffffff" stroke-width="0.25"/>
<path d="M 442.99 142.66 C 444.05 142.71 445.12 142.75 446.19 142.80 C 447.69 144.68 447.89 146.82 446.36 148.77 C 444.41 148.52 442.63 147.75 441.24 146.35 C 441.79 145.10 442.37 143.87 442.99 142.66 Z" fill="#ffffff" opacity="1.00" stroke="#ffffff" stroke-width="0.25"/>
<path d="M 166.14 145.06 C 167.87 142.26 171.23 144.54 172.22 146.74 C 173.99 148.72 173.62 151.37 173.21 153.77 C 169.94 151.93 166.80 148.83 166.14 145.06 Z" fill="#ffffff" opacity="1.00" stroke="#ffffff" stroke-width="0.25"/>
<path d="M 62.55 146.22 C 64.22 146.21 65.89 146.26 67.55 146.36 C 67.81 147.83 68.53 149.31 68.20 150.82 C 67.49 152.12 66.07 152.76 64.98 153.67 C 63.77 152.62 62.38 151.67 61.62 150.21 C 61.87 148.86 62.18 147.53 62.55 146.22 Z" fill="#ffffff" opacity="1.00" stroke="#ffffff" stroke-width="0.25"/>
<path d="M 127.14 154.07 C 131.84 152.36 134.29 147.35 138.99 145.76 C 143.44 145.29 147.39 147.83 151.16 149.82 C 167.33 158.19 180.86 170.62 194.38 182.61 C 206.25 193.71 217.60 205.38 227.74 218.09 C 227.01 219.27 226.28 220.46 225.55 221.64 C 204.88 214.62 185.34 204.59 166.69 193.32 C 155.01 185.96 144.59 176.81 134.49 167.43 C 130.76 163.90 126.65 159.65 127.14 154.07 Z" fill="#77e4fd" opacity="1.00" stroke="#77e4fd" stroke-width="0.25"/>
<path d="M 157.37 148.32 C 157.78 147.60 158.58 146.16 158.99 145.45 C 163.47 146.08 169.06 149.72 168.42 154.79 C 164.28 153.71 160.21 151.57 157.37 148.32 Z" fill="#ffffff" opacity="1.00" stroke="#ffffff" stroke-width="0.25"/>
<path d="M 393.13 156.08 C 391.99 152.68 392.67 147.26 396.87 146.46 C 402.49 145.69 409.44 146.40 413.18 151.18 C 413.90 154.06 412.94 156.99 412.32 159.80 C 409.42 163.51 404.19 162.90 400.22 161.50 C 397.48 160.41 393.91 159.34 393.13 156.08 Z" fill="#ffffff" opacity="1.00" stroke="#ffffff" stroke-width="0.25"/>
<path d="M 356.60 150.26 C 359.74 150.24 363.30 151.94 362.75 155.63 C 360.96 155.71 358.75 156.10 357.43 154.55 C 355.91 153.60 356.71 151.70 356.60 150.26 Z" fill="#ffffff" opacity="1.00" stroke="#ffffff" stroke-width="0.25"/>
<path d="M 103.75 151.79 C 110.11 149.26 115.97 153.97 121.35 156.70 C 123.82 163.02 128.06 168.40 132.77 173.20 C 120.03 173.81 107.28 175.01 94.81 177.75 C 92.37 175.13 88.98 171.82 91.10 167.94 C 94.14 161.88 97.60 155.18 103.75 151.79 Z" fill="#77e4fd" opacity="1.00" stroke="#77e4fd" stroke-width="0.25"/>
<path d="M 317.69 160.04 C 314.87 156.10 318.83 151.10 322.98 150.41 C 323.40 151.08 324.26 152.41 324.68 153.08 C 322.65 155.68 320.28 158.00 317.69 160.04 Z" fill="#ffffff" opacity="1.00" stroke="#ffffff" stroke-width="0.25"/>
<path d="M 56.43 152.28 C 57.60 150.66 59.54 153.08 58.33 154.26 C 57.08 155.66 55.10 153.52 56.43 152.28 Z" fill="#ffffff" opacity="1.00" stroke="#ffffff" stroke-width="0.25"/>
<path d="M 320.82 162.04 C 321.18 157.16 325.87 154.39 329.87 152.57 C 330.55 152.91 331.91 153.60 332.59 153.95 C 331.95 155.16 332.15 157.09 330.74 157.74 C 327.54 159.39 324.34 161.20 320.82 162.04 Z" fill="#ffffff" opacity="1.00" stroke="#ffffff" stroke-width="0.25"/>
<path d="M 342.52 156.25 C 345.45 154.95 349.21 153.74 351.95 156.11 C 354.64 158.95 357.30 161.86 360.69 163.90 C 359.07 170.97 352.65 175.06 347.56 179.55 C 334.22 191.09 319.37 200.89 303.39 208.37 C 292.05 214.12 280.29 219.17 268.03 222.56 C 266.28 223.72 262.56 221.45 264.71 219.66 C 273.98 208.34 284.49 198.06 295.49 188.43 C 303.58 180.73 312.70 174.25 321.69 167.65 C 328.14 163.03 335.31 159.54 342.52 156.25 Z" fill="#77e4fd" opacity="1.00" stroke="#77e4fd" stroke-width="0.25"/>
<path d="M 435.80 154.91 C 436.85 155.64 437.89 156.35 438.96 157.08 C 437.88 157.29 436.79 157.49 435.71 157.69 C 435.73 156.99 435.78 155.60 435.80 154.91 Z" fill="#ffffff" opacity="1.00" stroke="#ffffff" stroke-width="0.25"/>
<path d="M 72.10 160.98 C 70.67 158.32 72.32 155.71 75.12 155.12 C 77.85 156.70 77.91 159.67 77.48 162.44 C 75.63 162.53 72.86 163.37 72.10 160.98 Z" fill="#ffffff" opacity="1.00" stroke="#ffffff" stroke-width="0.25"/>
<path d="M 137.89 158.06 C 139.79 158.72 141.69 159.42 143.58 160.14 C 143.63 160.75 143.74 161.95 143.80 162.55 C 141.82 161.06 139.83 159.59 137.89 158.06 Z" fill="#ffffff" opacity="1.00" stroke="#ffffff" stroke-width="0.25"/>
<path d="M 420.42 158.68 C 422.40 157.39 424.65 157.24 426.58 158.72 C 426.68 160.80 426.40 162.87 425.28 164.68 C 423.72 164.35 421.42 164.95 420.66 163.11 C 420.32 161.66 420.45 160.15 420.42 158.68 Z" fill="#ffffff" opacity="1.00" stroke="#ffffff" stroke-width="0.25"/>
<path d="M 58.23 161.94 C 59.05 160.79 59.85 159.61 60.83 158.59 C 62.31 158.71 63.59 159.52 64.91 160.13 C 64.76 162.14 65.00 165.81 61.96 165.45 C 59.76 166.10 59.32 163.15 58.23 161.94 Z" fill="#ffffff" opacity="1.00" stroke="#ffffff" stroke-width="0.25"/>
<path d="M 104.84 162.33 C 105.72 159.73 108.64 159.58 110.91 159.35 C 114.36 159.17 118.45 159.16 120.68 162.28 C 115.40 162.13 110.12 161.98 104.84 162.33 Z" fill="#ffffff" opacity="1.00" stroke="#ffffff" stroke-width="0.25"/>
<path d="M 365.93 165.98 C 371.33 163.48 377.20 159.79 383.36 161.82 C 389.48 165.79 393.59 172.30 396.23 178.98 C 397.62 182.79 393.70 185.26 391.46 187.63 C 379.30 183.44 366.22 183.53 353.56 182.21 C 357.74 176.84 363.05 172.28 365.93 165.98 Z" fill="#77e4fd" opacity="1.00" stroke="#77e4fd" stroke-width="0.25"/>
<path d="M 412.53 173.42 C 412.24 171.05 411.16 166.22 415.02 166.58 C 417.12 166.09 417.64 168.87 418.68 170.08 C 417.36 172.47 415.47 174.29 412.53 173.42 Z" fill="#ffffff" opacity="1.00" stroke="#ffffff" stroke-width="0.25"/>
<path d="M 429.30 171.04 C 428.68 168.88 430.34 167.55 431.93 166.54 C 432.52 166.86 433.69 167.50 434.28 167.82 C 434.59 168.36 435.23 169.42 435.55 169.95 C 435.03 171.14 434.53 172.33 434.03 173.53 C 432.22 173.58 429.05 173.64 429.30 171.04 Z" fill="#ffffff" opacity="1.00" stroke="#ffffff" stroke-width="0.25"/>
<path d="M 333.40 183.36 C 339.39 178.16 345.63 173.17 352.64 169.38 C 352.59 169.94 352.48 171.08 352.43 171.65 C 347.51 175.65 342.22 179.19 337.26 183.15 C 328.33 190.20 319.29 197.54 308.63 201.80 C 310.15 200.25 311.81 198.83 313.67 197.70 C 320.62 193.47 327.25 188.70 333.40 183.36 Z" fill="#ffffff" opacity="1.00" stroke="#ffffff" stroke-width="0.25"/>
<path d="M 365.45 172.10 C 367.19 169.55 370.47 170.17 373.11 170.18 C 375.79 170.24 378.56 170.79 380.59 172.68 C 375.54 172.49 370.50 172.19 365.45 172.10 Z" fill="#ffffff" opacity="1.00" stroke="#ffffff" stroke-width="0.25"/>
<path d="M 333.61 173.68 C 335.26 172.39 337.18 171.52 339.18 170.93 C 337.58 173.37 335.62 175.57 333.22 177.24 C 327.72 181.22 322.02 184.97 315.95 188.01 C 316.49 186.69 317.21 185.40 318.43 184.59 C 323.41 180.85 328.63 177.42 333.61 173.68 Z" fill="#ffffff" opacity="1.00" stroke="#ffffff" stroke-width="0.25"/>
<path d="M 66.80 172.27 C 68.04 172.30 69.27 172.34 70.51 172.38 C 71.70 174.41 71.39 176.60 70.34 178.61 C 68.78 178.44 66.69 178.90 65.99 177.05 C 64.46 175.59 66.29 173.75 66.80 172.27 Z" fill="#ffffff" opacity="1.00" stroke="#ffffff" stroke-width="0.25"/>
<path d="M 77.39 175.69 C 78.75 175.30 80.11 174.92 81.48 174.54 C 84.32 176.28 86.10 180.08 84.10 183.10 C 82.11 185.34 79.36 183.51 77.43 182.25 C 77.22 180.06 77.23 177.87 77.39 175.69 Z" fill="#ffffff" opacity="1.00" stroke="#ffffff" stroke-width="0.25"/>
<path d="M 306.74 182.98 C 310.14 179.43 314.31 175.80 319.47 175.60 C 315.45 178.41 311.31 181.13 306.74 182.98 Z" fill="#ffffff" opacity="1.00" stroke="#ffffff" stroke-width="0.25"/>
<path d="M 421.41 178.85 C 422.28 178.46 423.16 178.07 424.04 177.67 C 424.76 178.10 425.48 178.53 426.22 178.95 C 426.66 180.06 427.12 181.17 427.58 182.29 C 426.47 183.41 425.27 185.14 423.44 184.43 C 420.65 183.99 421.44 180.85 421.41 178.85 Z" fill="#ffffff" opacity="1.00" stroke="#ffffff" stroke-width="0.25"/>
<path d="M 101.98 180.50 C 113.93 178.26 126.14 177.91 138.27 177.68 C 144.32 183.29 150.60 188.61 156.95 193.88 C 140.63 195.25 124.46 198.60 108.87 203.60 C 105.24 204.58 101.79 206.79 97.95 206.61 C 94.08 204.12 91.15 199.76 91.47 195.01 C 91.23 188.79 95.12 181.10 101.98 180.50 Z" fill="#77e4fd" opacity="1.00" stroke="#77e4fd" stroke-width="0.25"/>
<path d="M 365.50 180.16 C 373.62 178.03 382.23 179.69 390.44 180.66 C 390.54 181.19 390.75 182.25 390.86 182.78 C 382.42 181.71 373.87 181.66 365.50 180.16 Z" fill="#ffffff" opacity="1.00" stroke="#ffffff" stroke-width="0.25"/>
<path d="M 403.68 183.90 C 405.32 183.29 407.15 181.66 408.90 182.92 C 414.16 184.89 410.24 194.09 405.20 192.09 C 402.11 190.47 402.53 186.64 403.68 183.90 Z" fill="#ffffff" opacity="1.00" stroke="#ffffff" stroke-width="0.25"/>
<path d="M 107.50 189.06 C 110.63 187.00 114.47 187.58 118.00 187.58 C 121.64 187.78 125.58 187.53 128.78 189.60 C 121.70 189.76 114.50 190.41 107.50 189.06 Z" fill="#ffffff" opacity="1.00" stroke="#ffffff" stroke-width="0.25"/>
<path d="M 345.33 188.06 C 347.44 186.16 350.45 186.79 353.04 186.72 C 361.85 187.24 370.69 187.57 379.42 189.03 C 382.73 189.62 386.28 189.89 389.21 191.69 C 396.29 197.15 396.63 209.84 388.99 214.95 C 386.50 216.86 383.55 214.76 381.02 214.05 C 364.05 207.31 346.10 203.40 327.99 201.41 C 334.06 197.35 339.61 192.58 345.33 188.06 Z" fill="#77e4fd" opacity="1.00" stroke="#77e4fd" stroke-width="0.25"/>
<path d="M 69.56 188.42 C 70.12 188.41 71.23 188.40 71.79 188.39 C 71.81 188.95 71.85 190.08 71.87 190.64 C 71.30 190.61 70.15 190.55 69.57 190.53 C 69.57 190.00 69.56 188.95 69.56 188.42 Z" fill="#ffffff" opacity="1.00" stroke="#ffffff" stroke-width="0.25"/>
<path d="M 418.36 188.58 C 419.76 188.64 421.17 188.71 422.58 188.79 C 422.70 190.40 422.77 192.01 422.79 193.63 C 421.27 193.64 419.75 193.59 418.25 193.51 C 418.23 191.86 418.28 190.22 418.36 188.58 Z" fill="#ffffff" opacity="1.00" stroke="#ffffff" stroke-width="0.25"/>
<path d="M 172.05 189.88 C 181.65 193.18 191.13 197.36 199.25 203.53 C 195.47 203.77 192.57 201.05 189.38 199.51 C 183.62 196.28 177.32 193.92 172.05 189.88 Z" fill="#ffffff" opacity="1.00" stroke="#ffffff" stroke-width="0.25"/>
<path d="M 76.62 192.60 C 77.35 191.79 78.13 191.02 78.95 190.31 C 79.62 191.34 81.58 192.33 80.66 193.84 C 80.51 195.42 78.78 195.36 77.63 195.82 C 77.28 194.75 76.83 193.71 76.62 192.60 Z" fill="#ffffff" opacity="1.00" stroke="#ffffff" stroke-width="0.25"/>
<path d="M 289.93 198.94 C 293.52 195.66 296.78 191.44 301.82 190.45 C 297.45 195.83 291.87 200.07 287.35 205.32 C 282.92 209.60 279.28 214.59 275.18 219.16 C 274.91 217.67 274.78 216.08 275.91 214.89 C 280.20 209.25 284.70 203.74 289.93 198.94 Z" fill="#ffffff" opacity="1.00" stroke="#ffffff" stroke-width="0.25"/>
<path d="M 102.14 197.39 C 110.84 195.86 119.84 193.84 128.66 195.64 C 119.94 197.51 111.00 198.11 102.24 199.79 C 102.21 199.19 102.17 197.99 102.14 197.39 Z" fill="#ffffff" opacity="1.00" stroke="#ffffff" stroke-width="0.25"/>
<path d="M 348.22 196.39 C 351.06 196.33 353.90 196.29 356.74 196.28 C 356.73 196.60 356.70 197.23 356.68 197.55 C 353.88 197.54 351.08 197.53 348.28 197.52 C 348.27 197.24 348.24 196.68 348.22 196.39 Z" fill="#ffffff" opacity="1.00" stroke="#ffffff" stroke-width="0.25"/>
<path d="M 115.51 206.22 C 129.95 201.83 144.92 198.72 160.04 198.19 C 162.24 197.84 164.13 199.00 165.84 200.21 C 183.32 212.06 202.59 220.88 221.62 229.87 C 210.57 232.18 199.30 233.61 188.00 233.45 C 166.81 233.39 145.42 233.51 124.61 237.98 C 119.16 238.98 113.60 240.61 108.02 239.56 C 104.94 238.91 103.00 236.18 101.03 233.96 C 96.58 228.84 96.23 220.66 100.28 215.21 C 103.79 210.12 109.84 207.92 115.51 206.22 Z" fill="#77e4fd" opacity="1.00" stroke="#77e4fd" stroke-width="0.25"/>
<path d="M 416.51 201.15 C 418.12 200.68 418.66 201.26 418.11 202.90 C 416.51 203.37 415.97 202.79 416.51 201.15 Z" fill="#77e4fd" opacity="1.00" stroke="#77e4fd" stroke-width="0.25"/>
<path d="M 112.39 210.26 C 122.84 206.24 133.74 202.88 145.02 202.48 C 149.89 202.38 155.06 201.98 159.52 204.33 C 146.12 204.47 132.37 204.87 119.69 209.74 C 117.33 210.35 114.59 212.25 112.39 210.26 Z" fill="#ffffff" opacity="1.00" stroke="#ffffff" stroke-width="0.25"/>
<path d="M 358.91 204.43 C 367.89 203.50 376.80 205.35 385.62 206.79 C 385.61 207.69 385.59 208.61 385.58 209.52 C 376.85 206.96 367.57 207.20 358.91 204.43 Z" fill="#ffffff" opacity="1.00" stroke="#ffffff" stroke-width="0.25"/>
<path d="M 84.28 205.23 C 84.87 205.26 86.05 205.31 86.64 205.33 C 86.61 205.87 86.55 206.94 86.52 207.48 C 85.98 207.49 84.89 207.53 84.34 207.55 C 84.33 206.97 84.30 205.81 84.28 205.23 Z" fill="#ffffff" opacity="1.00" stroke="#ffffff" stroke-width="0.25"/>
<path d="M 403.21 206.66 C 404.59 205.31 406.45 205.20 408.28 205.26 C 408.22 206.71 408.06 208.14 407.83 209.57 C 406.84 209.60 405.84 209.63 404.86 209.66 C 404.30 208.65 403.75 207.65 403.21 206.66 Z" fill="#ffffff" opacity="1.00" stroke="#ffffff" stroke-width="0.25"/>
<path d="M 73.37 206.59 C 74.61 206.54 75.85 206.51 77.10 206.49 C 77.53 207.29 77.95 208.08 78.38 208.88 C 77.96 209.67 77.53 210.46 77.11 211.26 C 75.89 211.34 74.66 211.40 73.43 211.46 C 73.34 209.84 73.30 208.21 73.37 206.59 Z" fill="#ffffff" opacity="1.00" stroke="#ffffff" stroke-width="0.25"/>
<path d="M 319.64 207.60 C 323.03 205.36 327.25 206.13 331.07 206.29 C 344.38 207.61 357.56 210.47 370.19 214.87 C 375.24 216.74 380.60 218.72 384.17 222.95 C 388.02 227.26 389.02 234.00 386.16 239.10 C 384.16 242.71 381.49 246.83 377.10 247.57 C 369.94 248.58 363.04 245.82 356.11 244.51 C 339.58 241.39 322.77 239.89 305.96 239.40 C 292.36 238.63 278.60 237.39 265.67 232.79 C 284.31 225.86 302.33 217.39 319.64 207.60 Z" fill="#77e4fd" opacity="1.00" stroke="#77e4fd" stroke-width="0.25"/>
<path d="M 114.32 216.36 C 124.19 212.83 134.34 209.35 144.96 209.40 C 144.29 212.71 140.48 211.99 138.06 212.69 C 128.98 213.80 120.34 216.83 111.51 219.05 C 112.28 218.00 112.95 216.72 114.32 216.36 Z" fill="#ffffff" opacity="1.00" stroke="#ffffff" stroke-width="0.25"/>
<path d="M 340.15 214.93 C 340.27 214.35 340.50 213.20 340.62 212.62 C 347.30 213.36 354.00 214.32 360.40 216.50 C 364.89 218.13 370.01 218.93 373.46 222.53 C 371.46 222.46 369.47 222.13 367.57 221.47 C 358.67 218.39 349.41 216.54 340.15 214.93 Z" fill="#ffffff" opacity="1.00" stroke="#ffffff" stroke-width="0.25"/>
<path d="M 86.03 216.94 C 85.92 214.85 88.04 215.32 89.44 215.11 C 89.38 216.26 89.31 217.41 89.24 218.57 C 88.12 218.15 86.54 218.27 86.03 216.94 Z" fill="#ffffff" opacity="1.00" stroke="#ffffff" stroke-width="0.25"/>
<path d="M 408.51 215.40 C 410.17 215.45 412.79 214.47 413.21 216.85 C 414.20 219.09 411.54 219.88 410.02 220.62 C 409.57 220.20 408.67 219.37 408.23 218.95 C 408.30 217.76 408.40 216.58 408.51 215.40 Z" fill="#ffffff" opacity="1.00" stroke="#ffffff" stroke-width="0.25"/>
<path d="M 147.45 217.69 C 155.73 216.63 164.15 215.55 172.49 216.66 C 169.17 219.12 164.83 218.37 160.97 218.88 C 153.76 219.27 146.60 220.44 139.37 220.58 C 141.44 218.32 144.62 218.11 147.45 217.69 Z" fill="#ffffff" opacity="1.00" stroke="#ffffff" stroke-width="0.25"/>
<path d="M 75.50 219.38 C 77.16 219.03 78.86 219.04 80.53 219.39 C 80.42 220.84 81.34 222.87 79.71 223.79 C 78.60 225.08 76.87 223.64 75.50 223.61 C 75.47 222.19 75.47 220.78 75.50 219.38 Z" fill="#ffffff" opacity="1.00" stroke="#ffffff" stroke-width="0.25"/>
<path d="M 398.23 220.78 C 399.30 220.68 400.38 220.58 401.46 220.50 C 401.39 221.60 401.31 222.69 401.22 223.80 C 399.41 223.65 398.38 222.58 398.23 220.78 Z" fill="#ffffff" opacity="1.00" stroke="#ffffff" stroke-width="0.25"/>
<path d="M 166.54 226.08 C 174.03 224.29 181.78 224.25 189.44 224.40 C 189.49 224.99 189.60 226.16 189.66 226.75 C 181.96 226.52 174.14 227.66 166.54 226.08 Z" fill="#ffffff" opacity="1.00" stroke="#ffffff" stroke-width="0.25"/>
<path d="M 317.91 225.81 C 329.32 226.32 340.98 226.71 351.98 230.11 C 351.29 230.39 349.92 230.95 349.23 231.23 C 341.88 229.74 334.41 229.06 326.97 228.25 C 323.87 227.83 320.36 228.06 317.91 225.81 Z" fill="#ffffff" opacity="1.00" stroke="#ffffff" stroke-width="0.25"/>
<path d="M 90.65 227.20 C 91.94 227.60 93.43 227.78 94.36 228.88 C 94.80 230.50 94.67 232.21 94.72 233.89 C 93.36 233.57 91.20 234.32 90.73 232.52 C 89.72 230.88 90.49 228.95 90.65 227.20 Z" fill="#ffffff" opacity="1.00" stroke="#ffffff" stroke-width="0.25"/>
<path d="M 129.04 231.84 C 136.78 230.35 144.43 228.22 152.31 227.57 C 149.27 228.96 146.09 229.99 142.85 230.76 C 134.21 232.80 125.64 235.31 116.80 236.38 C 115.02 236.63 113.27 236.13 111.57 235.66 C 117.27 233.87 123.24 233.21 129.04 231.84 Z" fill="#ffffff" opacity="1.00" stroke="#ffffff" stroke-width="0.25"/>
<path d="M 403.40 228.36 C 404.98 228.34 406.57 228.39 408.16 228.51 C 408.33 229.46 408.50 230.40 408.68 231.35 C 408.34 231.90 407.66 232.99 407.32 233.53 C 406.06 233.45 404.81 233.37 403.56 233.29 C 403.43 231.65 403.38 230.00 403.40 228.36 Z" fill="#ffffff" opacity="1.00" stroke="#ffffff" stroke-width="0.25"/>
<path d="M 84.49 233.38 C 86.02 233.43 87.76 232.92 89.08 233.95 C 89.47 235.40 89.34 236.91 89.38 238.40 C 87.74 238.56 86.10 238.63 84.46 238.65 C 84.35 236.89 84.36 235.13 84.49 233.38 Z" fill="#ffffff" opacity="1.00" stroke="#ffffff" stroke-width="0.25"/>
<path d="M 328.55 233.64 C 332.11 233.44 335.58 234.36 339.02 235.19 C 350.50 237.53 361.96 239.97 373.57 241.60 C 371.27 244.58 367.20 242.78 364.10 242.57 C 352.18 239.95 339.89 238.34 328.55 233.64 Z" fill="#ffffff" opacity="1.00" stroke="#ffffff" stroke-width="0.25"/>
<path d="M 389.07 236.50 C 390.06 236.58 391.06 236.64 392.05 236.82 C 392.56 238.54 392.94 240.29 393.63 241.96 C 394.62 240.54 395.81 239.31 397.20 238.27 C 398.79 239.65 401.07 241.93 399.07 244.01 C 396.56 246.56 393.99 242.95 392.07 241.44 C 390.13 242.86 388.59 241.24 387.65 239.75 C 388.01 238.93 388.72 237.31 389.07 236.50 Z" fill="#ffffff" opacity="1.00" stroke="#ffffff" stroke-width="0.25"/>
<path d="M 95.70 243.46 C 94.33 241.65 96.85 240.44 97.88 239.31 C 98.77 240.17 99.66 241.04 100.54 241.92 C 100.04 242.86 99.54 243.80 99.05 244.75 C 97.89 244.45 96.12 244.95 95.70 243.46 Z" fill="#ffffff" opacity="1.00" stroke="#ffffff" stroke-width="0.25"/>
<path d="M 199.94 246.76 C 207.09 246.34 214.11 244.58 221.28 244.58 C 205.51 250.03 188.99 253.24 172.43 255.09 C 161.79 255.84 151.16 256.74 140.66 258.65 C 147.20 253.07 155.04 247.97 163.94 247.88 C 175.94 247.62 188.00 248.43 199.94 246.76 Z" fill="#fb8023" opacity="1.00" stroke="#fb8023" stroke-width="0.25"/>
<path d="M 263.62 244.23 C 269.09 245.43 274.11 248.07 279.53 249.49 C 293.30 253.76 307.73 255.05 322.04 256.09 C 333.59 256.82 343.03 264.16 352.15 270.52 C 337.68 266.68 322.43 267.78 307.94 264.05 C 297.51 261.80 287.70 257.46 278.18 252.74 C 273.19 250.16 267.97 247.85 263.62 244.23 Z" fill="#fb8023" opacity="1.00" stroke="#fb8023" stroke-width="0.25"/>
<path d="M 388.26 246.46 C 389.85 246.98 391.04 248.06 391.75 249.58 C 391.38 250.14 390.65 251.27 390.28 251.83 C 388.10 252.02 386.70 250.93 386.24 248.84 C 386.75 248.24 387.76 247.06 388.26 246.46 Z" fill="#ffffff" opacity="1.00" stroke="#ffffff" stroke-width="0.25"/>
<path d="M 205.99 252.96 C 211.92 251.81 217.74 250.05 223.77 249.36 C 222.25 255.86 218.43 261.45 214.78 266.91 C 207.61 276.24 200.03 285.62 189.98 292.00 C 183.20 296.47 175.81 302.01 167.18 300.70 C 167.29 297.90 167.34 295.00 168.61 292.44 C 175.43 277.58 188.14 266.85 199.51 255.57 C 201.12 253.68 203.72 253.47 205.99 252.96 Z" fill="#fb8023" opacity="1.00" stroke="#fb8023" stroke-width="0.25"/>
<path d="M 265.08 254.11 C 270.98 253.73 276.17 256.85 281.54 258.75 C 284.67 260.01 288.29 260.69 290.57 263.41 C 297.55 270.80 305.50 277.27 311.68 285.39 C 316.98 291.98 322.63 299.40 322.61 308.26 C 321.41 308.63 320.21 309.00 319.01 309.38 C 315.16 308.44 311.35 307.14 308.06 304.87 C 291.29 294.22 276.10 280.02 267.17 262.04 C 265.81 259.61 265.22 256.87 265.08 254.11 Z" fill="#fb8023" opacity="1.00" stroke="#fb8023" stroke-width="0.25"/>
<path d="M 169.05 258.68 C 176.28 258.51 183.28 256.26 190.52 256.26 C 184.90 258.20 179.69 261.19 173.95 262.80 C 169.20 264.12 164.73 266.23 160.12 267.94 C 150.52 271.36 141.00 275.16 132.04 280.05 C 129.96 281.20 127.81 282.21 125.61 283.10 C 124.97 277.51 126.18 271.39 130.30 267.33 C 133.62 263.74 138.57 262.61 143.11 261.41 C 151.59 259.21 160.40 259.48 169.05 258.68 Z" fill="#fb8023" opacity="1.00" stroke="#fb8023" stroke-width="0.25"/>
<path d="M 203.33 286.38 C 212.14 277.60 219.60 267.61 226.85 257.54 C 225.57 263.90 221.59 269.25 218.97 275.09 C 212.67 288.82 206.55 302.67 201.75 317.00 C 198.59 328.26 195.31 339.52 193.09 351.01 C 191.61 358.31 191.13 365.83 189.07 373.01 C 187.16 373.80 184.94 373.58 182.92 373.40 C 178.44 372.10 176.32 367.52 173.40 364.29 C 170.25 365.04 166.55 366.56 163.55 364.55 C 160.15 362.63 159.25 358.46 158.57 354.93 C 159.05 352.26 160.46 349.88 161.54 347.43 C 169.73 330.88 179.58 315.21 189.97 299.97 C 193.34 294.46 198.83 290.86 203.33 286.38 Z" fill="#fb8023" opacity="1.00" stroke="#fb8023" stroke-width="0.25"/>
<path d="M 142.59 277.75 C 158.05 270.98 173.93 265.13 190.11 260.33 C 184.04 265.87 178.95 272.38 173.21 278.22 C 166.75 281.11 159.87 283.12 153.67 286.65 C 143.95 291.99 134.51 297.95 125.95 305.02 C 124.66 306.05 123.36 307.10 121.91 307.90 C 120.36 306.88 120.55 304.77 120.33 303.16 C 120.22 299.02 119.97 294.24 122.86 290.90 C 128.08 284.76 135.49 281.22 142.59 277.75 Z" fill="#fb8023" opacity="1.00" stroke="#fb8023" stroke-width="0.25"/>
<path d="M 158.80 264.65 C 160.48 264.19 162.22 264.55 163.93 264.65 C 155.52 269.00 146.31 271.39 137.54 274.86 C 137.48 274.35 137.36 273.32 137.30 272.80 C 144.41 269.96 151.38 266.67 158.80 264.65 Z" fill="#ffffff" opacity="1.00" stroke="#ffffff" stroke-width="0.25"/>
<path d="M 298.01 264.37 C 312.15 269.49 327.32 269.40 342.01 271.57 C 349.43 273.03 357.99 274.69 362.51 281.42 C 365.40 285.32 364.76 290.40 364.41 294.94 C 359.35 293.18 355.17 289.70 350.29 287.58 C 339.86 282.99 329.41 278.42 318.77 274.34 C 311.79 271.17 304.30 268.88 298.01 264.37 Z" fill="#fb8023" opacity="1.00" stroke="#fb8023" stroke-width="0.25"/>
<path d="M 200.94 273.96 C 203.49 269.94 207.02 266.55 211.26 264.35 C 208.33 268.05 204.71 271.15 200.94 273.96 Z" fill="#ffffff" opacity="1.00" stroke="#ffffff" stroke-width="0.25"/>
<path d="M 213.04 299.01 C 217.93 287.75 224.16 277.09 228.26 265.49 C 229.30 270.54 231.68 275.59 230.44 280.85 C 223.53 312.47 212.24 343.29 195.77 371.21 C 196.35 359.70 197.07 348.13 199.85 336.91 C 203.08 323.91 207.15 311.07 213.04 299.01 Z" fill="#fb8023" opacity="1.00" stroke="#fb8023" stroke-width="0.25"/>
<path d="M 262.86 264.88 C 271.04 278.01 281.43 289.68 293.05 299.86 C 297.14 303.22 299.91 307.79 302.72 312.21 C 309.63 323.47 316.74 334.66 322.26 346.70 C 324.34 351.41 327.29 355.80 328.41 360.88 C 328.55 364.59 326.66 368.41 323.46 370.36 C 320.43 371.38 317.33 370.01 314.36 369.39 C 311.12 372.60 309.14 377.96 304.03 378.51 C 301.65 379.02 299.62 377.63 297.75 376.40 C 296.56 364.44 293.92 352.67 291.13 340.99 C 286.54 321.65 280.16 302.65 271.19 284.88 C 268.17 278.35 263.57 272.24 262.86 264.88 Z" fill="#fb8023" opacity="1.00" stroke="#fb8023" stroke-width="0.25"/>
<path d="M 116.04 269.00 C 117.46 267.52 119.27 266.97 121.27 267.47 C 121.36 268.43 121.44 269.39 121.54 270.36 C 121.04 270.74 120.05 271.51 119.56 271.90 C 118.29 271.05 117.12 270.08 116.04 269.00 Z" fill="#ffffff" opacity="1.00" stroke="#ffffff" stroke-width="0.25"/>
<path d="M 302.57 271.02 C 310.68 273.33 318.31 276.94 326.07 280.19 C 334.05 283.14 341.82 286.59 349.51 290.23 C 353.97 292.35 358.39 294.67 362.25 297.79 C 367.55 302.10 368.33 310.64 364.27 316.04 C 350.65 306.45 337.88 295.19 322.20 289.03 C 319.66 287.97 316.95 286.95 315.27 284.65 C 311.29 279.86 306.80 275.56 302.57 271.02 Z" fill="#fb8023" opacity="1.00" stroke="#fb8023" stroke-width="0.25"/>
<path d="M 365.74 273.48 C 367.68 271.85 369.43 275.63 367.03 276.23 C 365.58 276.56 364.75 274.41 365.74 273.48 Z" fill="#ffffff" opacity="1.00" stroke="#ffffff" stroke-width="0.25"/>
<path d="M 156.05 279.55 C 160.50 277.39 165.10 275.46 169.96 274.44 C 166.45 276.49 162.52 277.66 158.87 279.42 C 158.16 279.45 156.76 279.52 156.05 279.55 Z" fill="#ffffff" opacity="1.00" stroke="#ffffff" stroke-width="0.25"/>
<path d="M 261.63 275.76 C 265.17 283.17 268.97 290.47 271.98 298.12 C 280.76 318.49 289.96 339.58 289.95 362.18 C 283.96 352.37 279.18 341.89 274.51 331.41 C 266.91 313.85 262.12 294.92 261.63 275.76 Z" fill="#fb8023" opacity="1.00" stroke="#fb8023" stroke-width="0.25"/>
<path d="M 110.36 281.97 C 110.06 279.54 113.39 278.09 115.16 279.65 C 117.68 280.90 115.73 283.75 115.31 285.70 C 113.12 285.70 109.86 284.82 110.36 281.97 Z" fill="#ffffff" opacity="1.00" stroke="#ffffff" stroke-width="0.25"/>
<path d="M 342.27 280.27 C 347.59 279.64 351.97 283.11 356.64 285.00 C 356.45 285.81 356.27 286.63 356.09 287.46 C 351.81 284.42 346.54 283.29 342.27 280.27 Z" fill="#ffffff" opacity="1.00" stroke="#ffffff" stroke-width="0.25"/>
<path d="M 370.87 281.37 C 373.11 280.97 375.29 281.33 376.00 283.77 C 375.77 284.49 375.30 285.91 375.07 286.63 C 373.65 286.65 372.23 286.64 370.82 286.61 C 370.44 285.75 370.06 284.88 369.69 284.03 C 370.08 283.14 370.48 282.25 370.87 281.37 Z" fill="#ffffff" opacity="1.00" stroke="#ffffff" stroke-width="0.25"/>
<path d="M 149.04 292.03 C 155.87 287.97 163.31 285.14 170.69 282.26 C 170.45 282.55 169.97 283.14 169.73 283.43 C 166.95 289.41 162.87 295.29 163.57 302.23 C 152.96 310.48 143.98 320.60 135.81 331.21 C 130.89 329.61 125.69 327.75 122.16 323.78 C 119.38 319.60 120.47 313.48 124.00 310.04 C 131.58 303.04 140.33 297.51 149.04 292.03 Z" fill="#fb8023" opacity="1.00" stroke="#fb8023" stroke-width="0.25"/>
<path d="M 320.09 291.35 C 326.90 294.70 334.19 297.23 340.33 301.79 C 347.67 306.77 354.60 312.29 361.39 317.98 C 361.53 322.41 362.71 327.06 361.16 331.36 C 359.20 334.81 355.65 336.89 352.31 338.81 C 345.92 330.14 339.75 321.05 331.27 314.23 C 329.45 312.68 327.62 311.15 325.83 309.58 C 326.64 302.90 322.95 297.06 320.09 291.35 Z" fill="#fb8023" opacity="1.00" stroke="#fb8023" stroke-width="0.25"/>
<path d="M 373.73 294.82 C 375.37 293.80 377.97 292.24 379.45 294.34 C 381.54 296.12 379.80 300.11 377.02 299.51 C 374.38 299.72 374.39 296.55 373.73 294.82 Z" fill="#ffffff" opacity="1.00" stroke="#ffffff" stroke-width="0.25"/>
<path d="M 342.50 294.18 C 349.56 295.38 354.72 301.04 360.38 304.99 C 360.47 305.58 360.65 306.76 360.74 307.34 C 358.08 306.13 355.67 304.46 353.52 302.50 C 350.09 299.40 345.89 297.32 342.50 294.18 Z" fill="#ffffff" opacity="1.00" stroke="#ffffff" stroke-width="0.25"/>
<path d="M 165.55 304.77 C 173.33 305.99 180.38 301.85 187.00 298.40 C 176.41 314.50 166.96 331.30 157.10 347.84 C 156.18 349.34 155.29 350.90 154.06 352.18 C 149.85 351.77 145.06 351.34 141.96 348.09 C 138.36 344.74 137.73 339.44 137.71 334.79 C 141.38 327.79 147.10 322.09 152.22 316.13 C 156.02 311.66 160.59 307.89 165.55 304.77 Z" fill="#fb8023" opacity="1.00" stroke="#fb8023" stroke-width="0.25"/>
<path d="M 105.64 300.78 C 106.90 300.37 108.15 299.94 109.41 299.51 C 111.89 301.05 112.27 303.61 111.65 306.30 C 109.74 307.20 107.68 307.61 105.57 307.58 C 104.20 305.37 104.19 302.96 105.64 300.78 Z" fill="#ffffff" opacity="1.00" stroke="#ffffff" stroke-width="0.25"/>
<path d="M 138.56 315.65 C 144.36 309.72 149.87 302.62 157.93 299.77 C 152.95 305.57 147.05 310.49 141.41 315.62 C 140.70 315.63 139.27 315.64 138.56 315.65 Z" fill="#ffffff" opacity="1.00" stroke="#ffffff" stroke-width="0.25"/>
<path d="M 302.48 306.63 C 309.70 308.83 316.42 315.00 324.45 312.63 C 333.84 318.83 341.26 327.47 347.24 336.92 C 350.37 341.20 348.36 346.98 346.19 351.24 C 343.66 356.30 337.35 356.53 332.53 357.66 C 326.16 347.49 320.89 336.69 314.67 326.44 C 310.77 319.74 306.52 313.25 302.48 306.63 Z" fill="#fb8023" opacity="1.00" stroke="#fb8023" stroke-width="0.25"/>
<path d="M 175.63 328.50 C 178.67 322.50 182.47 316.85 186.79 311.70 C 186.20 314.22 184.91 316.49 183.40 318.57 C 180.93 321.97 178.77 325.65 175.63 328.50 Z" fill="#ffffff" opacity="1.00" stroke="#ffffff" stroke-width="0.25"/>
<path d="M 158.17 327.14 C 161.52 322.39 163.95 316.47 169.31 313.59 C 167.18 319.26 163.12 323.92 160.04 329.08 C 156.75 333.75 154.15 338.90 150.41 343.25 C 151.08 337.17 155.25 332.30 158.17 327.14 Z" fill="#ffffff" opacity="1.00" stroke="#ffffff" stroke-width="0.25"/>
<path d="M 374.06 313.95 C 375.91 313.00 377.81 313.93 379.60 314.51 C 380.08 316.48 379.97 318.49 379.59 320.48 C 377.51 320.77 375.06 321.21 373.51 319.39 C 372.94 317.63 372.87 315.47 374.06 313.95 Z" fill="#ffffff" opacity="1.00" stroke="#ffffff" stroke-width="0.25"/>
<path d="M 182.54 331.62 C 184.81 327.53 186.40 322.93 189.81 319.60 C 189.09 323.76 187.01 327.48 185.16 331.22 C 183.00 335.35 181.19 339.71 178.35 343.44 C 178.12 339.07 180.70 335.36 182.54 331.62 Z" fill="#ffffff" opacity="1.00" stroke="#ffffff" stroke-width="0.25"/>
<path d="M 314.06 319.83 C 317.75 323.60 320.37 328.22 323.33 332.55 C 325.13 335.20 326.73 338.11 326.88 341.40 C 323.66 338.44 321.13 334.81 319.14 330.93 C 317.05 327.43 315.00 323.84 314.06 319.83 Z" fill="#ffffff" opacity="1.00" stroke="#ffffff" stroke-width="0.25"/>
<path d="M 292.83 321.09 C 296.09 327.74 301.30 333.93 301.91 341.55 C 297.78 335.94 295.52 329.29 292.62 323.03 C 292.67 322.54 292.78 321.57 292.83 321.09 Z" fill="#ffffff" opacity="1.00" stroke="#ffffff" stroke-width="0.25"/>
<path d="M 113.19 328.27 C 113.97 326.21 116.41 326.55 118.17 326.38 C 118.87 327.54 119.58 328.72 120.27 329.90 C 119.91 330.95 119.55 332.00 119.20 333.06 C 118.66 333.43 117.59 334.18 117.05 334.55 C 115.84 334.13 114.64 333.71 113.44 333.29 C 113.03 331.64 111.98 329.85 113.19 328.27 Z" fill="#ffffff" opacity="1.00" stroke="#ffffff" stroke-width="0.25"/>
<path d="M 181.32 349.39 C 183.54 345.03 185.59 340.54 188.59 336.63 C 188.76 340.44 186.88 343.80 185.16 347.04 C 182.91 351.19 181.25 355.67 178.35 359.44 C 178.02 355.80 179.78 352.54 181.32 349.39 Z" fill="#ffffff" opacity="1.00" stroke="#ffffff" stroke-width="0.25"/>
<path d="M 363.49 345.59 C 361.59 343.47 361.39 338.84 364.98 338.51 C 368.19 337.81 370.09 341.01 369.90 343.82 C 368.28 345.82 365.87 346.02 363.49 345.59 Z" fill="#ffffff" opacity="1.00" stroke="#ffffff" stroke-width="0.25"/>
<path d="M 124.49 341.54 C 126.11 341.78 128.47 340.67 129.44 342.45 C 130.91 344.76 129.05 348.71 126.03 347.19 C 123.21 346.67 124.57 343.51 124.49 341.54 Z" fill="#ffffff" opacity="1.00" stroke="#ffffff" stroke-width="0.25"/>
<path d="M 312.30 346.02 C 311.59 344.17 311.37 342.20 311.31 340.25 C 313.34 343.17 314.97 346.34 316.48 349.55 C 318.92 354.69 321.75 359.78 322.74 365.46 C 322.27 365.45 321.31 365.45 320.83 365.45 C 317.51 359.19 314.71 352.67 312.30 346.02 Z" fill="#ffffff" opacity="1.00" stroke="#ffffff" stroke-width="0.25"/>
<path d="M 169.53 342.29 C 170.06 342.29 171.13 342.28 171.66 342.28 C 169.37 346.81 166.97 351.30 164.07 355.48 C 163.56 355.51 162.53 355.56 162.02 355.59 C 164.03 350.89 166.76 346.57 169.53 342.29 Z" fill="#ffffff" opacity="1.00" stroke="#ffffff" stroke-width="0.25"/>
<path d="M 334.19 342.16 C 337.38 343.97 339.61 346.91 340.83 350.34 C 340.33 350.41 339.34 350.55 338.84 350.63 C 337.13 347.90 335.39 345.16 334.19 342.16 Z" fill="#ffffff" opacity="1.00" stroke="#ffffff" stroke-width="0.25"/>
<path d="M 130.23 354.39 C 130.66 354.20 131.53 353.81 131.97 353.62 C 132.41 353.81 133.30 354.20 133.75 354.39 C 133.75 355.50 133.74 356.62 133.72 357.74 C 132.56 357.74 131.40 357.73 130.24 357.72 C 130.23 356.61 130.22 355.50 130.23 354.39 Z" fill="#ffffff" opacity="1.00" stroke="#ffffff" stroke-width="0.25"/>
<path d="M 352.62 356.71 C 353.39 356.76 354.17 356.82 354.95 356.87 C 355.39 357.46 356.27 358.64 356.71 359.22 C 356.39 361.85 354.30 363.14 351.75 362.68 C 351.28 361.38 350.83 360.08 350.40 358.77 C 351.13 358.08 351.87 357.40 352.62 356.71 Z" fill="#ffffff" opacity="1.00" stroke="#ffffff" stroke-width="0.25"/>
<path d="M 139.77 358.64 C 141.16 358.43 142.56 358.22 143.97 358.05 C 144.50 359.06 145.03 360.08 145.56 361.11 C 144.91 361.90 144.26 362.70 143.61 363.50 C 143.10 363.50 142.06 363.50 141.54 363.50 C 141.03 363.15 140.02 362.44 139.51 362.09 C 139.59 360.94 139.68 359.79 139.77 358.64 Z" fill="#ffffff" opacity="1.00" stroke="#ffffff" stroke-width="0.25"/>
<path d="M 302.37 364.20 C 302.79 364.32 303.65 364.55 304.07 364.67 C 304.63 367.60 305.26 370.51 305.65 373.47 C 305.21 373.42 304.33 373.32 303.89 373.27 C 303.43 370.24 302.83 367.23 302.37 364.20 Z" fill="#ffffff" opacity="1.00" stroke="#ffffff" stroke-width="0.25"/>
<path d="M 341.25 368.87 C 341.70 367.49 341.96 365.15 343.94 365.39 C 346.98 364.75 346.84 368.33 346.62 370.33 C 345.41 370.41 344.21 370.50 343.00 370.58 C 342.41 370.00 341.83 369.43 341.25 368.87 Z" fill="#ffffff" opacity="1.00" stroke="#ffffff" stroke-width="0.25"/>
<path d="M 154.70 374.99 C 155.64 374.05 156.71 373.26 157.76 372.46 C 158.40 372.73 159.68 373.27 160.32 373.54 C 160.62 374.23 161.20 375.59 161.49 376.28 C 160.79 377.35 160.12 378.44 159.26 379.41 C 156.66 380.08 153.88 377.69 154.70 374.99 Z" fill="#ffffff" opacity="1.00" stroke="#ffffff" stroke-width="0.25"/>
<path d="M 334.75 377.36 C 335.98 377.36 337.24 377.33 338.46 377.63 C 338.20 378.80 337.77 379.91 337.36 381.04 C 336.72 380.80 335.43 380.34 334.78 380.10 C 334.77 379.18 334.75 378.27 334.75 377.36 Z" fill="#ffffff" opacity="1.00" stroke="#ffffff" stroke-width="0.25"/>
<path d="M 168.87 380.48 C 170.07 381.07 171.70 381.24 172.35 382.57 C 172.40 383.93 171.79 385.19 171.44 386.48 C 170.16 386.49 168.90 386.52 167.63 386.53 C 167.18 385.09 166.76 383.64 166.41 382.17 C 167.03 381.75 168.26 380.90 168.87 380.48 Z" fill="#ffffff" opacity="1.00" stroke="#ffffff" stroke-width="0.25"/>
<path d="M 189.64 380.49 C 190.42 380.56 191.21 380.64 192.00 380.72 C 192.45 381.85 192.90 382.99 193.35 384.13 C 192.89 385.04 192.42 385.95 191.96 386.88 C 190.50 386.76 189.05 386.62 187.60 386.45 C 187.49 384.93 187.42 383.42 187.38 381.91 C 187.94 381.55 189.07 380.85 189.64 380.49 Z" fill="#ffffff" opacity="1.00" stroke="#ffffff" stroke-width="0.25"/>
<path d="M 321.35 382.19 C 321.76 381.49 322.58 380.10 322.99 379.41 C 324.33 379.42 325.67 379.51 327.01 379.69 C 327.68 381.01 327.67 382.52 327.77 383.97 C 327.01 384.37 325.48 385.16 324.72 385.56 C 323.31 384.74 322.15 383.61 321.35 382.19 Z" fill="#ffffff" opacity="1.00" stroke="#ffffff" stroke-width="0.25"/>
<path d="M 177.42 385.86 C 178.38 385.75 179.34 385.64 180.31 385.54 C 180.84 385.90 181.91 386.61 182.44 386.97 C 182.40 388.14 182.34 389.31 182.29 390.49 C 180.65 390.64 179.01 390.70 177.37 390.67 C 177.32 389.06 177.33 387.46 177.42 385.86 Z" fill="#ffffff" opacity="1.00" stroke="#ffffff" stroke-width="0.25"/>
<path d="M 312.34 385.21 C 314.38 385.26 316.28 385.91 317.69 387.44 C 317.27 388.85 316.84 390.25 316.39 391.66 C 315.09 391.66 313.79 391.65 312.49 391.65 C 311.39 389.57 311.17 387.30 312.34 385.21 Z" fill="#ffffff" opacity="1.00" stroke="#ffffff" stroke-width="0.25"/>
<path d="M 296.15 386.36 C 299.01 385.11 301.79 388.57 300.02 391.04 C 298.75 393.83 293.89 391.85 294.68 389.02 C 294.76 387.97 295.52 387.13 296.15 386.36 Z" fill="#ffffff" opacity="1.00" stroke="#ffffff" stroke-width="0.25"/>
<path d="M 303.66 392.48 C 304.44 392.48 305.99 392.49 306.77 392.50 C 306.90 393.42 307.07 394.35 307.11 395.29 C 306.23 395.88 305.25 396.30 304.30 396.76 C 303.73 395.39 303.54 393.94 303.66 392.48 Z" fill="#ffffff" opacity="1.00" stroke="#ffffff" stroke-width="0.25"/>
</svg>