<svg xmlns="http://www.w3.org/2000/svg" height="512pt" version="1.1" viewBox="0 0 512 512" width="512pt">
<path d="M 0.00 0.00 L 512.00 0.00 L 512.00 512.00 L 0.00 512.00 L 0.00 0.00 Z" fill="transparent" opacity="1.00" stroke="transparent" stroke-width="0.25" data-index="0" style="opacity: 1;"></path>
<path d="M 325.89 157.69 C 330.22 156.53 334.47 154.66 339.02 154.70 C 344.67 156.87 350.16 159.52 355.44 162.49 C 364.12 166.86 373.09 170.64 382.23 173.91 C 396.62 179.12 410.57 185.58 423.82 193.23 C 427.67 195.23 425.74 199.95 425.02 203.19 C 421.60 215.11 420.01 227.44 419.52 239.80 C 419.18 252.83 418.20 265.85 418.67 278.89 C 418.82 283.96 420.13 288.91 420.25 293.98 C 420.42 295.97 418.54 297.14 417.12 298.13 C 408.79 303.01 400.30 307.67 391.31 311.23 C 369.78 319.33 347.94 326.54 326.28 334.26 C 273.69 352.32 221.83 372.53 168.58 388.65 C 166.58 389.06 164.27 390.23 162.43 388.76 C 158.99 386.57 155.23 385.00 151.43 383.56 C 146.01 381.30 141.06 378.07 136.17 374.83 C 119.72 363.20 104.36 350.10 89.59 336.40 C 86.94 333.74 84.06 331.07 82.61 327.54 C 81.99 323.70 82.42 319.78 82.35 315.91 C 82.70 292.93 81.44 269.99 81.26 247.02 C 81.22 241.16 80.88 235.26 81.66 229.45 C 82.80 226.33 86.60 225.93 89.37 225.11 C 110.22 219.37 130.87 212.90 151.64 206.86 C 177.61 199.57 203.53 192.09 229.49 184.73 C 261.60 175.66 293.80 166.86 325.89 157.69 Z" fill="#314d65" opacity="1.00" stroke="#314d65" stroke-width="0.25" data-index="1" style="opacity: 1;"></path>
<path d="M 231.92 190.01 C 267.01 179.78 302.36 170.31 337.08 158.85 C 338.84 158.18 340.48 159.32 342.02 160.02 C 347.41 162.86 352.51 166.18 357.80 169.18 C 372.77 177.52 388.42 184.52 403.63 192.40 C 406.38 193.77 409.04 195.30 411.55 197.08 C 402.84 199.80 393.82 201.42 385.12 204.20 C 345.84 215.57 306.99 228.40 268.10 241.04 C 247.22 247.44 226.35 253.81 205.60 260.61 C 190.60 265.34 175.56 270.00 160.96 275.86 C 158.80 276.70 156.18 277.37 154.19 275.76 C 139.89 266.65 126.00 256.87 112.83 246.18 C 106.02 240.99 98.95 236.15 92.01 231.13 C 99.37 229.58 106.82 228.31 114.01 226.06 C 136.54 219.39 159.11 212.86 181.48 205.65 C 198.35 200.62 214.92 194.64 231.92 190.01 Z" fill="#ffec8c" opacity="1.00" stroke="#ffec8c" stroke-width="0.25" data-index="2" style="opacity: 1; visibility: visible; fill: rgb(255, 236, 140);"></path>
<path d="M 340.27 166.19 C 342.63 165.70 344.68 167.39 346.72 168.30 C 346.72 168.95 346.72 170.24 346.72 170.89 C 344.07 172.22 341.42 170.64 338.94 169.71 C 339.33 168.56 338.95 166.80 340.27 166.19 Z" fill="#fef7d4" opacity="1.00" stroke="#fef7d4" stroke-width="0.25" data-index="3" style="visibility: visible; fill: rgb(255, 236, 140); stroke: rgb(255, 236, 140); opacity: 1;"></path>
<path d="M 303.16 184.13 C 308.28 178.87 315.86 174.56 323.39 176.69 C 325.21 177.87 325.10 180.16 323.69 181.63 C 319.34 186.94 313.28 192.13 306.02 191.91 C 304.32 191.91 302.62 191.85 300.93 191.80 C 300.35 188.97 300.84 186.04 303.16 184.13 Z" fill="#ffffff" opacity="1.00" stroke="#ffffff" stroke-width="0.25" data-index="4" style="visibility: visible; fill: rgb(255, 236, 140); stroke: rgb(255, 236, 140); opacity: 1;"></path>
<path d="M 336.99 192.96 C 336.92 188.56 341.45 186.21 345.12 185.21 C 347.05 184.64 349.15 186.85 347.78 188.62 C 344.86 191.21 340.97 193.03 336.99 192.96 Z" fill="#fef7d4" opacity="1.00" stroke="#fef7d4" stroke-width="0.25" data-index="5" style="visibility: visible; fill: rgb(255, 236, 140); stroke: rgb(255, 236, 140); opacity: 1;"></path>
<path d="M 365.11 195.03 C 366.89 193.30 369.13 192.53 371.55 193.40 C 371.65 194.54 371.75 195.68 371.86 196.83 C 370.06 197.36 368.21 197.70 366.34 197.87 C 365.93 196.92 365.52 195.97 365.11 195.03 Z" fill="#fef7d4" opacity="1.00" stroke="#fef7d4" stroke-width="0.25" data-index="6" style="visibility: visible; fill: rgb(255, 236, 140); opacity: 1;"></path>
<path d="M 376.78 213.66 C 390.89 209.29 404.50 202.90 419.16 200.55 C 419.13 206.44 418.04 212.24 417.00 218.01 C 413.82 238.52 411.32 259.22 411.52 280.01 C 411.28 285.52 412.03 291.07 411.39 296.56 C 409.81 298.75 406.58 299.08 404.25 300.28 C 388.80 306.93 372.34 310.65 356.63 316.56 C 345.88 320.01 335.36 324.13 324.65 327.71 C 293.16 339.14 261.55 350.24 230.30 362.29 C 213.70 368.69 197.00 374.83 180.02 380.12 C 174.74 381.74 169.60 383.90 164.14 384.85 C 162.72 380.30 164.50 375.68 164.59 371.08 C 164.91 362.15 164.67 353.19 163.67 344.30 C 162.45 325.16 159.51 306.17 158.02 287.05 C 157.81 284.77 157.87 282.48 158.08 280.21 C 172.51 274.81 187.44 270.97 202.11 266.30 C 243.00 254.09 283.82 241.62 324.81 229.75 C 342.17 224.51 359.74 219.90 376.78 213.66 Z" fill="#fef7d4" opacity="1.00" stroke="#fef7d4" stroke-width="0.25" data-index="7" style="opacity: 1; visibility: visible; fill: rgb(254, 247, 212);"></path>
<path d="M 260.81 207.96 C 260.71 203.13 265.94 201.08 270.05 201.64 C 272.25 201.37 276.58 202.73 274.73 205.61 C 270.26 207.12 265.54 208.05 260.81 207.96 Z" fill="#fef7d4" opacity="1.00" stroke="#fef7d4" stroke-width="0.25" data-index="8" style="visibility: visible; fill: rgb(255, 236, 140); stroke: rgb(255, 236, 140); opacity: 1;"></path>
<path d="M 310.24 214.48 C 312.13 214.14 313.24 215.77 314.38 216.98 C 312.23 220.47 308.06 221.32 304.49 222.65 C 299.92 224.32 294.95 224.05 290.20 223.54 C 290.11 221.57 290.95 219.61 292.92 218.91 C 298.41 216.59 304.26 214.80 310.24 214.48 Z" fill="#fef7d4" opacity="1.00" stroke="#fef7d4" stroke-width="0.25" data-index="9" style="visibility: visible; fill: rgb(255, 236, 140); opacity: 1;"></path>
<path d="M 212.88 224.89 C 217.63 222.82 223.20 221.99 228.07 224.20 C 228.43 231.37 219.06 235.29 213.05 233.07 C 209.36 231.83 209.61 226.51 212.88 224.89 Z" fill="#fef7d4" opacity="1.00" stroke="#fef7d4" stroke-width="0.25" data-index="10" style="visibility: visible; fill: rgb(255, 236, 140); stroke: rgb(255, 236, 140); opacity: 1;"></path>
<path d="M 164.23 230.34 C 164.90 228.91 166.52 228.57 167.82 227.97 C 168.72 230.08 169.39 233.50 166.72 234.62 C 164.40 235.53 162.90 231.99 164.23 230.34 Z" fill="#fef7d4" opacity="1.00" stroke="#fef7d4" stroke-width="0.25" data-index="11" style="visibility: visible; fill: rgb(255, 236, 140); stroke: rgb(255, 236, 140); opacity: 1;"></path>
<path d="M 256.18 230.18 C 256.07 227.63 259.18 228.35 260.80 228.05 C 261.18 229.88 262.71 232.35 260.76 233.79 C 258.64 236.35 255.33 232.66 256.18 230.18 Z" fill="#fef7d4" opacity="1.00" stroke="#fef7d4" stroke-width="0.25" data-index="12" style="visibility: visible; fill: rgb(255, 236, 140); stroke: rgb(255, 236, 140); opacity: 1;"></path>
<path d="M 145.95 230.94 C 147.39 228.55 151.57 230.06 150.79 232.87 C 149.58 235.96 147.50 239.10 144.16 240.14 C 143.43 236.97 143.29 233.28 145.95 230.94 Z" fill="#fef7d4" opacity="1.00" stroke="#fef7d4" stroke-width="0.25" data-index="13" style="visibility: visible; fill: rgb(255, 236, 140); stroke: rgb(255, 236, 140); opacity: 1;"></path>
<path d="M 85.22 231.80 C 89.26 234.33 92.65 237.72 96.46 240.56 C 114.03 255.64 133.55 268.21 152.24 281.80 C 154.04 282.93 153.21 285.22 153.37 286.97 C 152.56 308.66 154.08 330.33 155.51 351.96 C 155.60 360.73 156.95 369.50 156.18 378.28 C 153.07 377.08 150.22 375.34 147.43 373.54 C 134.20 364.63 121.83 354.55 109.33 344.65 C 103.89 340.48 98.74 335.89 94.47 330.50 C 92.82 328.27 90.09 326.60 89.33 323.88 C 88.43 308.96 88.99 293.99 88.49 279.06 C 87.73 267.31 87.20 255.56 86.17 243.83 C 85.61 239.84 85.17 235.83 85.22 231.80 Z" fill="#ffec8c" opacity="1.00" stroke="#ffec8c" stroke-width="0.25" data-index="14" style="opacity: 1; visibility: visible; fill: rgb(255, 236, 140);"></path>
<path d="M 340.63 248.39 C 338.93 241.95 342.74 234.34 349.03 231.94 C 349.17 232.99 350.38 234.35 349.37 235.29 C 347.62 237.17 346.28 239.37 345.93 241.96 C 348.16 240.47 350.19 238.56 352.85 237.86 C 352.23 242.55 349.83 247.14 346.03 250.00 C 344.16 251.50 341.10 250.98 340.63 248.39 Z" fill="#ffec8c" opacity="1.00" stroke="#ffec8c" stroke-width="0.25" data-index="15" style="visibility: visible; fill: rgb(254, 247, 212); stroke: rgb(254, 247, 212); opacity: 1;"></path>
<path d="M 113.59 238.60 C 115.19 237.65 116.96 238.74 118.13 239.86 C 120.86 242.57 123.40 245.55 125.16 249.00 C 121.84 251.35 118.23 248.47 116.11 245.90 C 114.47 243.95 112.11 241.25 113.59 238.60 Z" fill="#fef7d4" opacity="1.00" stroke="#fef7d4" stroke-width="0.25" data-index="16" style="visibility: visible; fill: rgb(255, 236, 140); stroke: rgb(255, 236, 140); opacity: 1;"></path>
<path d="M 378.43 243.38 C 379.60 243.19 380.78 243.07 381.98 243.03 C 381.75 244.61 381.84 246.42 380.62 247.65 C 377.01 252.38 372.20 257.58 372.94 263.98 C 376.63 263.19 380.21 261.65 384.05 261.87 C 383.97 262.57 383.80 263.96 383.71 264.66 C 379.02 265.96 374.39 268.77 369.35 267.69 C 367.20 267.19 367.76 264.61 367.78 262.98 C 369.33 255.55 373.62 249.10 378.43 243.38 Z" fill="#ffec8c" opacity="1.00" stroke="#ffec8c" stroke-width="0.25" data-index="17" style="visibility: visible; fill: rgb(254, 247, 212); stroke: rgb(254, 247, 212); opacity: 1;"></path>
<path d="M 174.40 247.52 C 180.39 247.00 186.45 246.92 192.43 247.54 C 194.63 248.00 197.50 248.11 198.67 250.38 C 199.50 252.68 197.32 254.48 195.49 255.38 C 186.38 259.54 176.17 261.15 166.21 260.55 C 163.51 260.09 159.96 260.25 158.37 257.59 C 157.56 254.62 159.68 251.56 162.41 250.53 C 166.22 248.90 170.31 248.04 174.40 247.52 Z" fill="#ffffff" opacity="1.00" stroke="#ffffff" stroke-width="0.25" data-index="18" style="opacity: 1; visibility: visible; fill: rgb(255, 236, 140); stroke: rgb(255, 236, 140);"></path>
<path d="M 306.73 269.75 C 310.12 267.42 312.82 263.80 317.04 262.94 C 318.23 267.15 313.91 269.09 311.21 271.21 C 307.29 274.03 303.20 278.02 297.93 277.06 C 299.85 273.57 303.78 272.17 306.73 269.75 Z" fill="#ffec8c" opacity="1.00" stroke="#ffec8c" stroke-width="0.25" data-index="19" style="visibility: visible; fill: rgb(254, 247, 212); stroke: rgb(254, 247, 212); opacity: 1;"></path>
<path d="M 248.25 266.26 C 249.44 264.88 251.39 265.27 253.00 265.06 C 253.00 268.26 250.23 270.17 248.46 272.47 C 246.06 275.12 244.07 279.03 240.02 279.14 C 240.12 277.68 239.80 276.04 240.87 274.84 C 243.05 271.76 245.47 268.82 248.25 266.26 Z" fill="#ffec8c" opacity="1.00" stroke="#ffec8c" stroke-width="0.25" data-index="20" style="visibility: visible; fill: rgb(254, 247, 212); stroke: rgb(254, 247, 212); opacity: 1;"></path>
<path d="M 104.65 273.00 C 104.27 270.99 106.87 268.66 108.68 270.13 C 111.83 271.93 112.75 275.75 113.25 279.08 C 113.76 280.75 111.91 281.64 111.02 282.70 C 107.94 280.26 105.43 276.91 104.65 273.00 Z" fill="#fef7d4" opacity="1.00" stroke="#fef7d4" stroke-width="0.25" data-index="21" style="visibility: visible; fill: rgb(255, 236, 140); stroke: rgb(255, 236, 140); opacity: 1;"></path>
<path d="M 418.67 278.89 C 424.01 279.97 428.19 283.67 433.03 285.91 C 437.34 287.98 441.93 290.25 444.59 294.42 C 445.93 297.39 444.17 300.88 441.77 302.74 C 433.61 308.73 423.89 311.86 414.57 315.52 C 394.72 322.62 374.47 328.54 354.55 335.43 C 345.53 338.33 336.72 341.85 327.72 344.83 C 314.25 349.95 301.07 355.86 287.37 360.38 C 250.60 373.95 213.81 387.56 176.44 399.40 C 166.55 401.83 155.56 404.95 145.84 400.26 C 125.26 389.86 107.79 374.54 90.72 359.27 C 86.43 354.54 81.02 350.98 77.02 345.97 C 72.62 341.67 68.64 336.96 65.02 331.99 C 63.99 330.34 62.75 328.39 63.31 326.37 C 64.55 324.57 66.57 323.53 68.37 322.39 C 72.86 319.89 77.42 317.44 82.35 315.91 C 82.42 319.78 81.99 323.70 82.61 327.54 C 84.06 331.07 86.94 333.74 89.59 336.40 C 104.36 350.10 119.72 363.20 136.17 374.83 C 141.06 378.07 146.01 381.30 151.43 383.56 C 155.23 385.00 158.99 386.57 162.43 388.76 C 164.27 390.23 166.58 389.06 168.58 388.65 C 221.83 372.53 273.69 352.32 326.28 334.26 C 347.94 326.54 369.78 319.33 391.31 311.23 C 400.30 307.67 408.79 303.01 417.12 298.13 C 418.54 297.14 420.42 295.97 420.25 293.98 C 420.13 288.91 418.82 283.96 418.67 278.89 Z" fill="#b3e7fb" opacity="1.00" stroke="#b3e7fb" stroke-width="0.25" data-index="22" style="opacity: 1;"></path>
<path d="M 131.28 288.82 C 132.49 284.34 138.45 286.29 140.64 289.00 C 138.41 291.92 133.29 292.03 131.28 288.82 Z" fill="#fef7d4" opacity="1.00" stroke="#fef7d4" stroke-width="0.25" data-index="23" style="visibility: visible; fill: rgb(255, 236, 140); stroke: rgb(255, 236, 140); opacity: 1;"></path>
<path d="M 184.32 287.24 C 188.83 287.70 193.36 287.93 197.87 288.43 C 199.32 288.52 200.67 289.20 201.65 290.27 C 202.33 292.04 200.20 292.42 198.92 292.54 C 193.95 292.41 188.87 291.78 184.30 289.71 C 184.31 289.09 184.31 287.86 184.32 287.24 Z" fill="#ffec8c" opacity="1.00" stroke="#ffec8c" stroke-width="0.25" data-index="24" style="visibility: visible; fill: rgb(254, 247, 212); stroke: rgb(254, 247, 212); opacity: 1;"></path>
<path d="M 366.73 299.72 C 369.95 296.98 374.20 294.21 378.61 295.45 C 379.87 295.89 381.45 296.45 381.90 297.86 C 379.21 299.28 375.89 298.61 373.24 300.19 C 370.81 301.34 369.01 303.39 367.46 305.52 C 366.87 305.59 365.70 305.73 365.11 305.79 C 365.22 303.70 364.75 301.12 366.73 299.72 Z" fill="#ffec8c" opacity="1.00" stroke="#ffec8c" stroke-width="0.25" data-index="25" style="visibility: visible; fill: rgb(254, 247, 212); stroke: rgb(254, 247, 212); opacity: 1;"></path>
<path d="M 112.20 299.11 C 113.40 297.92 115.07 299.19 116.23 299.80 C 119.67 302.27 122.96 305.28 124.91 309.09 C 125.30 311.17 123.19 312.70 121.32 311.74 C 117.88 310.05 115.27 307.08 112.72 304.29 C 111.40 303.00 111.09 300.60 112.20 299.11 Z" fill="#fef7d4" opacity="1.00" stroke="#fef7d4" stroke-width="0.25" data-index="26" style="visibility: visible; fill: rgb(255, 236, 140); stroke: rgb(255, 236, 140); opacity: 1;"></path>
<path d="M 302.02 309.88 C 302.66 304.87 306.84 301.27 310.99 298.90 C 313.75 304.29 307.57 310.62 302.02 309.88 Z" fill="#ffec8c" opacity="1.00" stroke="#ffec8c" stroke-width="0.25" data-index="27" style="visibility: visible; fill: rgb(254, 247, 212); stroke: rgb(254, 247, 212); opacity: 1;"></path>
<path d="M 330.04 312.94 C 330.77 307.54 336.68 303.28 342.09 304.24 C 340.81 307.41 337.69 309.11 335.12 311.10 C 333.68 312.30 331.84 312.70 330.04 312.94 Z" fill="#ffec8c" opacity="1.00" stroke="#ffec8c" stroke-width="0.25" data-index="28" style="opacity: 1; visibility: visible; fill: rgb(254, 247, 212); stroke: rgb(254, 247, 212);"></path>
<path d="M 235.96 308.96 C 242.13 306.21 249.74 304.68 255.89 308.33 C 254.21 312.64 252.40 317.91 247.62 319.56 C 242.89 321.14 237.58 322.00 232.79 320.20 C 231.64 319.78 230.17 319.30 230.10 317.84 C 229.08 313.79 232.58 310.44 235.96 308.96 Z" fill="#ffec8c" opacity="1.00" stroke="#ffec8c" stroke-width="0.25" data-index="29" style="visibility: visible; fill: rgb(254, 247, 212); stroke: rgb(254, 247, 212); opacity: 1;"></path>
<path d="M 243.34 310.43 C 246.47 309.73 249.78 309.51 252.92 310.27 C 253.04 310.72 253.26 311.60 253.37 312.04 C 248.40 315.26 242.25 319.03 236.12 317.02 C 234.11 316.76 234.53 314.63 235.97 313.94 C 238.10 312.20 240.68 311.06 243.34 310.43 Z" fill="#fef7d4" opacity="1.00" stroke="#fef7d4" stroke-width="0.25" data-index="30" style="visibility: visible; fill: rgb(254, 247, 212); stroke: rgb(254, 247, 212); opacity: 1;"></path>
<path d="M 96.26 312.22 C 99.44 311.51 103.65 311.19 105.83 314.14 C 108.20 316.46 107.94 321.46 104.42 322.51 C 99.91 323.73 94.62 320.66 93.79 315.97 C 93.57 314.32 94.92 312.94 96.26 312.22 Z" fill="#fef7d4" opacity="1.00" stroke="#fef7d4" stroke-width="0.25" data-index="31" style="visibility: visible; fill: rgb(255, 236, 140); stroke: rgb(255, 236, 140); opacity: 1;"></path>
<path d="M 305.81 318.17 C 309.86 317.32 314.21 317.94 317.62 320.37 C 318.36 322.46 315.81 323.15 314.24 322.71 C 311.15 322.15 306.68 321.87 305.81 318.17 Z" fill="#ffec8c" opacity="1.00" stroke="#ffec8c" stroke-width="0.25" data-index="32" style="visibility: visible; fill: rgb(254, 247, 212); stroke: rgb(254, 247, 212); opacity: 1;"></path>
<path d="M 139.39 320.28 C 141.16 319.82 142.79 320.84 143.58 322.40 C 144.84 324.76 146.26 327.97 144.36 330.39 C 138.94 332.80 135.40 323.36 139.39 320.28 Z" fill="#fef7d4" opacity="1.00" stroke="#fef7d4" stroke-width="0.25" data-index="33" style="visibility: visible; fill: rgb(255, 236, 140); opacity: 1;"></path>
<path d="M 199.85 352.24 C 197.12 346.15 201.15 338.16 207.91 337.01 C 208.98 341.25 203.72 342.99 203.93 347.00 C 203.75 348.62 203.70 350.26 203.64 351.89 C 202.44 351.95 200.74 353.41 199.85 352.24 Z" fill="#ffec8c" opacity="1.00" stroke="#ffec8c" stroke-width="0.25" data-index="34" style="opacity: 1; visibility: visible; fill: rgb(254, 247, 212); stroke: rgb(254, 247, 212);"></path>
<path d="M 134.66 350.64 C 138.46 349.26 143.09 354.22 140.96 357.99 C 137.04 358.87 131.98 354.48 134.66 350.64 Z" fill="#fef7d4" opacity="1.00" stroke="#fef7d4" stroke-width="0.25" data-index="35" style="visibility: visible; fill: rgb(255, 236, 140); opacity: 1;"></path>
</svg>