<svg xmlns="http://www.w3.org/2000/svg" height="512pt" version="1.1" viewBox="0 0 512 512" width="512pt">
<path d="M 0.00 0.00 L 512.00 0.00 L 512.00 512.00 L 0.00 512.00 L 0.00 0.00 Z" fill="transparent" opacity="1.00" stroke="transparent" stroke-width="0.25" data-index="0" style="opacity: 1;"></path>
<path d="M 172.54 142.73 C 178.58 140.29 184.33 144.17 189.86 146.14 C 203.62 151.27 217.27 156.68 230.90 162.14 C 254.65 171.84 279.48 178.91 302.44 190.49 C 308.64 194.01 315.46 196.20 321.89 199.26 C 336.41 205.24 350.64 211.87 365.06 218.08 C 384.39 226.33 403.56 235.07 421.95 245.27 C 427.29 248.65 433.31 250.94 438.35 254.79 C 440.17 255.89 440.06 259.22 437.98 260.01 C 433.99 262.37 430.02 265.43 428.47 269.98 C 427.06 274.78 428.21 280.51 432.14 283.82 C 434.03 285.52 436.85 287.07 436.74 290.00 C 436.73 292.82 432.83 294.07 433.60 297.07 C 435.70 300.46 438.66 303.66 438.66 307.91 C 439.59 314.78 434.62 320.19 431.98 326.03 C 430.42 329.51 428.57 333.14 428.64 337.05 C 429.51 339.29 431.97 340.60 432.52 343.01 C 434.09 348.29 427.66 351.64 428.61 356.94 C 427.99 363.20 434.11 367.05 434.28 373.11 C 433.49 378.38 427.00 377.38 423.09 377.43 C 406.83 376.43 390.48 375.37 374.46 372.30 C 355.69 367.32 336.26 365.66 316.94 364.53 C 300.90 363.86 284.91 362.43 268.91 361.26 C 245.30 359.02 221.53 358.62 198.01 355.49 C 178.85 353.41 160.02 349.22 141.05 345.98 C 141.80 345.43 142.55 344.89 143.31 344.36 C 152.84 346.17 162.36 348.03 171.91 349.74 C 201.93 355.61 232.55 356.74 262.98 358.94 C 285.32 361.08 307.72 362.23 330.11 363.64 C 342.79 364.79 355.55 365.88 367.93 368.99 C 380.37 372.31 393.26 373.28 406.03 374.51 C 413.64 374.93 421.26 376.14 428.90 375.58 C 430.42 375.53 432.33 374.91 432.32 373.05 C 432.79 368.79 428.72 366.11 427.70 362.29 C 426.78 359.06 426.27 355.53 427.46 352.30 C 428.24 350.01 430.11 348.29 430.89 346.01 C 431.95 341.82 426.47 340.11 426.80 336.00 C 427.74 327.98 433.01 321.46 436.16 314.25 C 437.22 311.14 437.11 307.67 436.23 304.53 C 434.57 301.03 430.36 297.79 432.56 293.51 C 433.60 292.04 435.58 290.46 434.47 288.46 C 431.64 285.38 427.60 282.95 426.60 278.60 C 425.87 274.50 425.69 269.78 428.22 266.23 C 430.70 262.66 434.07 259.78 437.94 257.79 C 437.12 257.10 436.23 256.49 435.12 256.51 C 430.08 255.80 425.00 255.62 419.94 255.12 C 408.94 253.66 397.98 251.93 387.04 250.08 C 387.76 249.46 388.49 248.85 389.23 248.24 C 399.63 250.05 410.05 252.08 420.60 252.81 C 424.72 254.19 429.23 253.49 433.51 254.20 C 431.09 251.83 427.79 250.78 424.98 249.00 C 397.35 232.97 367.46 221.50 338.47 208.25 C 328.88 204.25 319.42 199.93 309.79 196.02 C 299.76 191.43 290.08 186.03 279.64 182.37 C 261.28 175.26 242.61 168.96 224.40 161.44 C 209.99 155.55 195.32 150.32 180.93 144.41 C 177.72 143.05 174.08 143.65 171.03 145.14 C 165.27 148.02 159.42 150.74 153.76 153.83 C 137.13 163.07 118.37 167.97 102.37 178.40 C 94.37 183.13 87.30 189.27 80.91 195.99 C 85.77 196.75 90.48 198.30 95.08 200.00 L 95.20 200.28 C 95.22 200.54 95.25 201.06 95.27 201.33 C 89.99 200.62 85.06 198.27 79.76 197.56 C 77.53 202.17 76.30 207.17 75.83 212.26 C 75.41 211.99 74.58 211.44 74.16 211.17 C 74.74 206.50 75.94 201.89 77.75 197.54 C 80.77 192.13 86.28 188.90 90.52 184.57 C 100.84 176.53 112.32 169.98 124.52 165.27 C 132.35 161.90 140.22 158.63 147.92 154.96 C 156.06 150.77 164.06 146.22 172.54 142.73 Z" fill="#1a2c2c" opacity="1.00" stroke="#1a2c2c" stroke-width="0.25" data-index="1" style="opacity: 1;"></path>
<path d="M 171.03 145.14 C 174.08 143.65 177.72 143.05 180.93 144.41 C 195.32 150.32 209.99 155.55 224.40 161.44 C 242.61 168.96 261.28 175.26 279.64 182.37 C 290.08 186.03 299.76 191.43 309.79 196.02 C 319.42 199.93 328.88 204.25 338.47 208.25 C 367.46 221.50 397.35 232.97 424.98 249.00 C 427.79 250.78 431.09 251.83 433.51 254.20 C 429.23 253.49 424.72 254.19 420.60 252.81 C 422.28 252.73 423.98 252.69 425.67 252.53 C 418.32 251.92 410.94 251.79 403.76 249.93 C 397.69 250.40 392.14 247.24 386.10 247.69 L 385.26 247.58 C 384.28 244.95 381.27 245.42 379.04 245.11 C 376.45 245.01 373.62 244.34 371.30 245.86 C 369.16 245.72 367.03 245.53 364.91 245.26 C 366.37 245.52 367.47 245.15 368.22 244.14 C 363.98 243.61 359.51 242.14 355.35 243.78 C 353.52 243.58 351.69 243.34 349.86 243.17 C 348.72 240.98 345.91 241.49 344.04 242.28 C 343.65 242.16 342.88 241.91 342.49 241.79 C 338.73 238.12 332.83 240.42 328.34 238.60 C 324.49 236.75 320.05 237.79 316.13 236.15 C 312.58 234.73 308.71 235.59 305.03 235.01 C 297.22 233.17 289.25 232.07 281.34 230.75 C 272.27 228.59 262.95 227.69 253.88 225.56 C 247.80 225.72 242.10 223.09 236.02 223.32 C 232.57 223.44 229.52 221.32 226.07 221.42 C 219.97 221.60 214.17 219.05 208.07 219.35 C 202.59 219.59 197.37 217.45 191.90 217.45 C 186.51 217.49 181.40 215.41 176.02 215.34 C 172.60 215.16 169.51 213.37 166.07 213.32 C 161.90 213.33 157.96 210.92 153.78 212.05 L 153.38 211.97 C 148.43 207.80 141.57 210.48 135.93 208.39 C 132.74 207.23 129.34 207.54 126.04 207.15 C 122.38 205.89 118.59 204.22 114.64 205.33 C 114.11 205.19 113.06 204.92 112.54 204.78 C 111.14 202.60 108.35 202.55 106.13 201.79 C 102.54 201.02 98.91 198.68 95.20 200.28 L 95.08 200.00 C 90.48 198.30 85.77 196.75 80.91 195.99 C 87.30 189.27 94.37 183.13 102.37 178.40 C 118.37 167.97 137.13 163.07 153.76 153.83 C 159.42 150.74 165.27 148.02 171.03 145.14 Z" fill="#ffd167" opacity="1.00" stroke="#ffd167" stroke-width="0.25" data-index="2"></path>
<path d="M 169.81 171.91 C 170.53 169.09 174.59 169.76 176.89 169.33 C 180.93 169.70 185.41 167.59 189.09 169.84 C 182.62 169.45 176.10 170.45 169.81 171.91 Z" fill="#fae69f" opacity="1.00" stroke="#fae69f" stroke-width="0.25" data-index="3"></path>
<path d="M 169.81 171.91 C 176.10 170.45 182.62 169.45 189.09 169.84 C 189.61 170.10 190.63 170.63 191.14 170.90 C 191.45 172.62 190.95 174.28 190.12 175.79 C 181.05 187.04 166.70 194.64 152.01 193.16 C 147.95 192.55 142.95 191.42 141.41 187.04 C 140.95 183.91 144.14 182.37 146.43 181.17 C 153.95 177.44 161.70 174.13 169.81 171.91 Z" fill="#1e2a18" opacity="1.00" stroke="#1e2a18" stroke-width="0.25" data-index="4"></path>
<path d="M 163.87 175.66 C 172.04 173.03 180.61 171.24 189.23 171.71 C 189.88 173.31 188.33 174.46 187.64 175.70 C 185.27 178.99 181.89 181.36 178.70 183.80 C 180.99 179.49 186.93 177.67 187.63 172.57 C 179.54 171.66 171.90 175.41 163.87 175.66 Z" fill="#ffffff" opacity="1.00" stroke="#ffffff" stroke-width="0.25" data-index="5"></path>
<path d="M 163.87 175.66 C 171.90 175.41 179.54 171.66 187.63 172.57 C 186.93 177.67 180.99 179.49 178.70 183.80 C 177.66 184.77 176.49 185.71 175.12 186.15 C 170.85 186.44 167.20 189.06 162.95 189.44 C 160.30 189.73 157.69 190.38 155.03 190.63 C 151.13 191.04 147.70 188.86 144.20 187.54 C 144.34 186.42 144.49 185.29 144.71 184.18 C 150.85 180.86 157.23 177.82 163.87 175.66 Z" fill="#ffe59b" opacity="1.00" stroke="#ffe59b" stroke-width="0.25" data-index="6"></path>
<path d="M 152.01 193.16 C 166.70 194.64 181.05 187.04 190.12 175.79 C 190.83 178.76 187.84 180.36 186.11 182.19 C 180.53 186.84 174.42 191.44 167.11 192.82 C 159.90 195.49 151.55 195.54 144.42 192.48 C 141.47 190.92 139.29 186.99 140.77 183.74 C 141.62 181.55 144.29 180.81 146.43 181.17 C 144.14 182.37 140.95 183.91 141.41 187.04 C 142.95 191.42 147.95 192.55 152.01 193.16 Z" fill="#fae69f" opacity="1.00" stroke="#fae69f" stroke-width="0.25" data-index="7"></path>
<path d="M 147.07 190.00 C 144.47 189.43 141.62 186.11 144.71 184.18 C 144.49 185.29 144.34 186.42 144.20 187.54 C 147.70 188.86 151.13 191.04 155.03 190.63 C 157.69 190.38 160.30 189.73 162.95 189.44 C 167.20 189.06 170.85 186.44 175.12 186.15 C 166.75 190.79 156.34 193.11 147.07 190.00 Z" fill="#ffffff" opacity="1.00" stroke="#ffffff" stroke-width="0.25" data-index="8"></path>
<path d="M 261.40 192.26 C 263.81 191.76 265.64 193.17 267.04 194.96 C 269.12 195.05 271.28 195.22 273.22 194.26 C 274.26 195.15 275.94 195.99 275.63 197.64 C 273.90 200.61 270.15 199.52 267.34 199.50 L 266.97 198.37 C 269.17 198.01 273.34 199.48 273.95 196.42 C 273.48 196.36 272.56 196.23 272.09 196.16 C 270.11 195.55 267.78 195.32 265.86 196.23 C 265.47 196.09 264.68 195.80 264.29 195.65 C 264.08 195.01 263.66 193.71 263.45 193.06 C 261.55 192.86 261.10 194.43 262.27 195.75 C 262.89 197.54 264.86 197.88 266.45 198.34 C 264.75 198.63 262.56 199.29 261.26 197.74 C 259.47 196.33 260.75 193.92 261.40 192.26 Z" fill="#fae69f" opacity="1.00" stroke="#fae69f" stroke-width="0.25" data-index="9"></path>
<path d="M 230.03 196.07 C 233.60 194.35 237.86 192.29 241.75 194.31 L 241.70 195.56 C 235.76 193.25 229.99 197.55 225.25 200.71 C 225.24 198.00 228.09 197.14 230.03 196.07 Z" fill="#ffe7a0" opacity="1.00" stroke="#ffe7a0" stroke-width="0.25" data-index="10"></path>
<path d="M 262.27 195.75 C 261.10 194.43 261.55 192.86 263.45 193.06 C 263.66 193.71 264.08 195.01 264.29 195.65 C 264.68 195.80 265.47 196.09 265.86 196.23 C 267.76 197.09 270.32 197.53 272.09 196.16 C 272.56 196.23 273.48 196.36 273.95 196.42 C 273.34 199.48 269.17 198.01 266.97 198.37 L 266.45 198.34 C 264.86 197.88 262.89 197.54 262.27 195.75 Z" fill="#1f230c" opacity="1.00" stroke="#1f230c" stroke-width="0.25" data-index="11"></path>
<path d="M 225.25 200.71 C 229.99 197.55 235.76 193.25 241.70 195.56 C 243.37 200.56 241.03 207.20 236.02 209.40 C 233.07 210.30 229.89 210.52 226.96 209.46 C 225.29 208.65 223.86 207.49 222.54 206.22 C 221.75 203.81 223.53 202.08 225.25 200.71 Z" fill="#1e2a18" opacity="1.00" stroke="#1e2a18" stroke-width="0.25" data-index="12"></path>
<path d="M 265.86 196.23 C 267.78 195.32 270.11 195.55 272.09 196.16 C 270.32 197.53 267.76 197.09 265.86 196.23 Z" fill="#94e7fc" opacity="1.00" stroke="#94e7fc" stroke-width="0.25" data-index="13"></path>
<path d="M 233.62 198.26 C 235.54 196.83 237.97 196.44 240.31 196.81 C 240.44 198.31 240.43 199.82 240.27 201.33 C 239.77 199.94 239.15 198.60 238.36 197.35 C 236.84 197.91 235.27 198.55 233.62 198.26 Z" fill="#ffffff" opacity="1.00" stroke="#ffffff" stroke-width="0.25" data-index="14"></path>
<path d="M 75.83 212.26 C 76.30 207.17 77.53 202.17 79.76 197.56 C 85.06 198.27 89.99 200.62 95.27 201.33 C 95.25 201.06 95.22 200.54 95.20 200.28 C 98.91 198.68 102.54 201.02 106.13 201.79 C 108.35 202.55 111.14 202.60 112.54 204.78 C 107.39 203.47 102.23 202.16 97.23 200.37 C 96.58 200.93 95.94 201.49 95.31 202.05 C 107.08 205.17 118.78 208.80 130.86 210.59 C 134.84 211.24 138.90 211.35 142.83 212.33 C 146.04 215.04 150.51 213.94 154.24 215.28 C 158.67 216.99 163.48 216.20 168.09 216.79 C 186.41 220.74 205.22 221.31 223.66 224.51 C 225.31 225.48 227.03 226.54 229.03 226.38 C 234.47 226.09 239.53 228.71 244.96 228.47 C 248.72 228.29 252.12 230.34 255.86 230.39 C 260.66 230.43 265.12 232.59 269.94 232.57 C 278.13 234.51 286.45 235.94 294.80 236.94 C 299.64 238.98 305.02 237.91 309.90 239.78 C 312.80 240.84 315.94 240.05 318.90 240.74 C 324.87 242.64 331.19 242.71 337.25 244.21 C 342.96 244.03 348.27 246.63 353.98 246.49 C 359.02 246.69 363.81 248.91 368.92 248.40 C 373.41 247.91 377.51 250.30 381.94 250.38 C 386.36 250.47 390.60 251.93 394.99 252.31 C 397.37 252.49 399.76 252.78 402.06 253.52 C 406.31 255.13 411.00 253.72 415.27 255.37 C 421.29 257.54 427.83 255.41 433.94 257.00 C 434.02 257.45 434.18 258.35 434.26 258.80 C 431.67 260.66 429.04 262.58 427.40 265.39 C 424.51 268.61 425.74 273.14 425.53 277.05 C 425.38 282.30 429.88 285.88 433.43 289.06 C 433.17 290.54 432.90 292.03 432.56 293.51 C 430.36 297.79 434.57 301.03 436.23 304.53 C 437.11 307.67 437.22 311.14 436.16 314.25 C 433.01 321.46 427.74 327.98 426.80 336.00 C 426.47 340.11 431.95 341.82 430.89 346.01 C 430.11 348.29 428.24 350.01 427.46 352.30 C 426.27 355.53 426.78 359.06 427.70 362.29 C 428.72 366.11 432.79 368.79 432.32 373.05 C 432.33 374.91 430.42 375.53 428.90 375.58 C 421.26 376.14 413.64 374.93 406.03 374.51 C 393.26 373.28 380.37 372.31 367.93 368.99 C 355.55 365.88 342.79 364.79 330.11 363.64 C 307.72 362.23 285.32 361.08 262.98 358.94 C 232.55 356.74 201.93 355.61 171.91 349.74 L 171.29 348.72 C 166.55 347.74 161.70 347.42 157.05 345.97 C 151.86 345.05 146.52 343.50 141.25 344.58 L 141.24 344.42 L 141.70 343.94 C 135.88 343.39 130.08 342.58 124.32 341.69 C 122.30 340.04 119.51 340.60 117.13 339.97 C 110.65 339.38 104.31 337.87 97.96 336.49 C 93.40 334.82 88.82 333.21 84.04 332.26 C 81.45 332.02 80.16 329.68 78.84 327.77 C 76.79 317.44 75.84 306.92 75.06 296.43 C 76.06 281.66 74.94 266.81 75.58 252.01 C 75.77 241.36 75.29 230.69 76.15 220.06 C 76.31 217.45 76.06 214.85 75.83 212.26 Z" fill="#ffe59e" opacity="1.00" stroke="#ffe59e" stroke-width="0.25" data-index="15" style="opacity: 1;"></path>
<path d="M 223.73 204.16 C 226.76 201.89 229.82 198.96 233.62 198.26 C 235.27 198.55 236.84 197.91 238.36 197.35 C 239.15 198.60 239.77 199.94 240.27 201.33 C 239.59 209.24 226.89 210.98 223.73 204.16 Z" fill="#fee39b" opacity="1.00" stroke="#fee39b" stroke-width="0.25" data-index="16"></path>
<path d="M 95.31 202.05 C 95.94 201.49 96.58 200.93 97.23 200.37 C 102.23 202.16 107.39 203.47 112.54 204.78 C 113.06 204.92 114.11 205.19 114.64 205.33 C 127.30 208.86 140.45 209.85 153.38 211.97 L 153.78 212.05 C 160.88 213.56 168.04 214.85 175.15 216.32 C 190.97 218.99 207.00 220.04 222.86 222.43 C 246.35 225.47 269.68 229.59 292.97 233.94 C 309.46 236.63 325.95 239.38 342.49 241.79 C 342.88 241.91 343.65 242.16 344.04 242.28 C 345.85 243.18 347.87 243.27 349.86 243.17 C 351.69 243.34 353.52 243.58 355.35 243.78 C 358.53 244.30 361.72 244.78 364.91 245.26 C 367.03 245.53 369.16 245.72 371.30 245.86 C 375.95 246.45 380.63 246.79 385.26 247.58 L 386.10 247.69 L 388.01 247.99 C 387.22 248.57 386.44 249.15 385.67 249.74 C 378.79 248.29 371.76 248.02 364.81 247.12 C 329.24 242.13 293.81 236.21 258.49 229.67 C 246.93 227.65 235.26 226.28 223.66 224.51 C 205.22 221.31 186.41 220.74 168.09 216.79 C 159.66 215.36 151.29 213.55 142.83 212.33 C 138.90 211.35 134.84 211.24 130.86 210.59 C 118.78 208.80 107.08 205.17 95.31 202.05 Z" fill="#1e2a18" opacity="1.00" stroke="#1e2a18" stroke-width="0.25" data-index="17"></path>
<path d="M 114.64 205.33 C 118.59 204.22 122.38 205.89 126.04 207.15 C 129.34 207.54 132.74 207.23 135.93 208.39 C 141.57 210.48 148.43 207.80 153.38 211.97 C 140.45 209.85 127.30 208.86 114.64 205.33 Z" fill="#fae69f" opacity="1.00" stroke="#fae69f" stroke-width="0.25" data-index="18"></path>
<path d="M 226.96 209.46 C 229.89 210.52 233.07 210.30 236.02 209.40 C 235.87 209.63 235.58 210.09 235.44 210.32 C 232.81 210.44 230.16 210.48 227.54 210.28 C 227.40 210.08 227.10 209.66 226.96 209.46 Z" fill="#ffffff" opacity="1.00" stroke="#ffffff" stroke-width="0.25" data-index="19"></path>
<path d="M 153.78 212.05 C 157.96 210.92 161.90 213.33 166.07 213.32 C 169.51 213.37 172.60 215.16 176.02 215.34 C 181.40 215.41 186.51 217.49 191.90 217.45 C 197.37 217.45 202.59 219.59 208.07 219.35 C 214.17 219.05 219.97 221.60 226.07 221.42 C 229.52 221.32 232.57 223.44 236.02 223.32 C 242.10 223.09 247.80 225.72 253.88 225.56 C 262.95 227.69 272.27 228.59 281.34 230.75 C 289.25 232.07 297.22 233.17 305.03 235.01 C 308.71 235.59 312.58 234.73 316.13 236.15 C 320.05 237.79 324.49 236.75 328.34 238.60 C 332.83 240.42 338.73 238.12 342.49 241.79 C 325.95 239.38 309.46 236.63 292.97 233.94 C 269.68 229.59 246.35 225.47 222.86 222.43 C 207.00 220.04 190.97 218.99 175.15 216.32 C 168.04 214.85 160.88 213.56 153.78 212.05 Z" fill="#fae69f" opacity="1.00" stroke="#fae69f" stroke-width="0.25" data-index="20"></path>
<path d="M 73.98 212.09 C 74.56 212.79 75.14 213.50 75.71 214.22 C 74.67 229.13 75.54 244.09 74.86 259.00 C 75.00 271.47 74.00 283.99 75.06 296.43 C 75.84 306.92 76.79 317.44 78.84 327.77 C 79.28 329.54 79.37 332.01 81.58 332.53 C 95.40 337.23 109.71 340.70 124.32 341.69 C 130.08 342.58 135.88 343.39 141.70 343.94 L 141.24 344.42 C 140.90 344.74 140.23 345.38 139.90 345.69 C 126.63 343.17 112.95 343.28 99.86 339.74 C 94.52 338.43 89.29 336.74 83.97 335.35 C 81.49 334.46 78.03 333.67 77.66 330.52 C 74.86 317.19 73.76 303.58 72.80 290.03 C 72.78 271.01 73.60 252.00 73.37 232.98 C 73.24 226.01 73.54 219.04 73.98 212.09 Z" fill="#142321" opacity="1.00" stroke="#142321" stroke-width="0.25" data-index="21"></path>
<path d="M 142.83 212.33 C 151.29 213.55 159.66 215.36 168.09 216.79 C 163.48 216.20 158.67 216.99 154.24 215.28 C 150.51 213.94 146.04 215.04 142.83 212.33 Z" fill="#ffffff" opacity="1.00" stroke="#ffffff" stroke-width="0.25" data-index="22"></path>
<path d="M 313.39 219.95 C 317.18 218.68 321.26 218.47 325.14 217.47 C 328.54 217.76 332.35 217.75 335.19 219.89 C 337.62 222.46 336.08 226.71 333.68 228.79 C 332.09 230.91 329.27 230.99 326.92 231.66 C 321.06 233.21 314.68 233.22 309.03 230.86 C 306.35 229.65 304.44 226.91 305.23 223.89 C 304.94 220.30 309.96 220.71 312.32 221.13 C 310.42 221.73 308.51 222.30 306.58 222.79 C 306.30 224.64 305.76 227.12 307.77 228.23 C 314.09 232.97 322.53 231.37 329.61 229.54 C 332.71 228.64 334.51 225.71 335.53 222.84 C 334.22 219.34 330.19 219.02 327.00 218.97 C 322.64 219.09 318.31 219.77 314.05 220.66 L 313.39 219.95 Z" fill="#fae69f" opacity="1.00" stroke="#fae69f" stroke-width="0.25" data-index="23"></path>
<path d="M 314.05 220.66 C 318.31 219.77 322.64 219.09 327.00 218.97 C 330.19 219.02 334.22 219.34 335.53 222.84 C 334.51 225.71 332.71 228.64 329.61 229.54 C 322.53 231.37 314.09 232.97 307.77 228.23 C 305.76 227.12 306.30 224.64 306.58 222.79 C 308.51 222.30 310.42 221.73 312.32 221.13 C 312.76 221.01 313.62 220.78 314.05 220.66 Z" fill="#1f230c" opacity="1.00" stroke="#1f230c" stroke-width="0.25" data-index="24"></path>
<path d="M 313.94 222.55 C 318.17 221.28 322.61 221.24 326.98 220.77 C 329.25 221.09 332.18 220.83 333.52 223.11 C 332.50 225.17 331.19 227.17 328.92 227.99 C 329.98 226.35 331.21 224.74 331.60 222.78 C 330.11 222.46 328.64 221.62 327.08 221.95 C 322.73 222.68 318.32 222.31 313.94 222.55 Z" fill="#ffffff" opacity="1.00" stroke="#ffffff" stroke-width="0.25" data-index="25"></path>
<path d="M 313.94 222.55 C 318.32 222.31 322.73 222.68 327.08 221.95 C 328.64 221.62 330.11 222.46 331.60 222.78 C 331.21 224.74 329.98 226.35 328.92 227.99 L 328.16 227.96 C 322.48 228.17 316.64 229.41 311.16 227.11 C 308.92 226.76 310.26 224.25 311.14 223.22 C 311.84 223.05 313.24 222.71 313.94 222.55 Z" fill="#fee596" opacity="1.00" stroke="#fee596" stroke-width="0.25" data-index="26"></path>
<path d="M 308.12 224.49 C 309.12 224.07 310.13 223.64 311.14 223.22 C 310.26 224.25 308.92 226.76 311.16 227.11 C 316.64 229.41 322.48 228.17 328.16 227.96 C 323.83 228.93 319.37 230.02 314.91 229.25 C 312.39 228.30 308.00 228.04 308.12 224.49 Z" fill="#ffffff" opacity="1.00" stroke="#ffffff" stroke-width="0.25" data-index="27"></path>
<path d="M 223.66 224.51 C 235.26 226.28 246.93 227.65 258.49 229.67 C 293.81 236.21 329.24 242.13 364.81 247.12 C 371.76 248.02 378.79 248.29 385.67 249.74 C 386.44 249.15 387.22 248.57 388.01 247.99 L 386.10 247.69 C 392.14 247.24 397.69 250.40 403.76 249.93 C 410.94 251.79 418.32 251.92 425.67 252.53 C 423.98 252.69 422.28 252.73 420.60 252.81 C 410.05 252.08 399.63 250.05 389.23 248.24 C 388.49 248.85 387.76 249.46 387.04 250.08 C 397.98 251.93 408.94 253.66 419.94 255.12 C 425.00 255.62 430.08 255.80 435.12 256.51 C 436.23 256.49 437.12 257.10 437.94 257.79 C 434.07 259.78 430.70 262.66 428.22 266.23 C 425.69 269.78 425.87 274.50 426.60 278.60 C 427.60 282.95 431.64 285.38 434.47 288.46 C 435.58 290.46 433.60 292.04 432.56 293.51 C 432.90 292.03 433.17 290.54 433.43 289.06 C 429.88 285.88 425.38 282.30 425.53 277.05 C 425.74 273.14 424.51 268.61 427.40 265.39 C 429.04 262.58 431.67 260.66 434.26 258.80 C 434.18 258.35 434.02 257.45 433.94 257.00 C 427.83 255.41 421.29 257.54 415.27 255.37 C 411.00 253.72 406.31 255.13 402.06 253.52 C 399.76 252.78 397.37 252.49 394.99 252.31 C 390.60 251.93 386.36 250.47 381.94 250.38 C 377.51 250.30 373.41 247.91 368.92 248.40 C 363.81 248.91 359.02 246.69 353.98 246.49 C 348.27 246.63 342.96 244.03 337.25 244.21 C 331.19 242.71 324.87 242.64 318.90 240.74 C 315.94 240.05 312.80 240.84 309.90 239.78 C 305.02 237.91 299.64 238.98 294.80 236.94 C 286.45 235.94 278.13 234.51 269.94 232.57 C 265.12 232.59 260.66 230.43 255.86 230.39 C 252.12 230.34 248.72 228.29 244.96 228.47 C 239.53 228.71 234.47 226.09 229.03 226.38 C 227.03 226.54 225.31 225.48 223.66 224.51 Z" fill="#ffffff" opacity="1.00" stroke="#ffffff" stroke-width="0.25" data-index="28"></path>
<path d="M 96.28 228.50 C 99.47 228.42 101.89 230.99 103.61 233.38 C 105.26 236.75 102.27 239.88 99.66 241.62 C 97.04 243.69 93.43 243.44 90.39 242.63 C 85.42 240.22 86.56 233.17 90.00 229.96 C 91.94 228.99 94.16 228.77 96.28 228.50 Z" fill="#e9e2b0" opacity="1.00" stroke="#e9e2b0" stroke-width="0.25" data-index="29"></path>
<path d="M 92.44 230.52 C 95.56 229.34 98.95 230.62 101.25 232.83 C 102.77 233.79 103.08 236.34 101.64 237.51 C 99.30 240.45 95.43 242.05 91.71 241.17 C 86.98 239.68 88.39 231.97 92.44 230.52 Z" fill="#152620" opacity="1.00" stroke="#152620" stroke-width="0.25" data-index="30"></path>
<path d="M 94.18 239.72 C 88.31 240.45 90.05 230.90 95.03 231.55 C 98.01 231.28 103.64 235.93 98.75 237.61 C 98.43 236.27 98.61 234.50 97.21 233.72 C 95.80 232.97 93.19 232.71 92.69 234.71 C 91.74 236.53 93.61 238.11 94.18 239.72 Z" fill="#e4e3bb" opacity="1.00" stroke="#e4e3bb" stroke-width="0.25" data-index="31"></path>
<path d="M 92.69 234.71 C 93.19 232.71 95.80 232.97 97.21 233.72 C 98.61 234.50 98.43 236.27 98.75 237.61 L 98.82 238.13 C 97.37 238.90 95.85 239.60 94.18 239.72 C 93.61 238.11 91.74 236.53 92.69 234.71 Z" fill="#ffe192" opacity="1.00" stroke="#ffe192" stroke-width="0.25" data-index="32"></path>
<path d="M 156.47 254.79 C 153.08 247.18 162.17 238.23 169.65 241.64 C 172.16 243.18 172.17 246.51 171.45 249.04 C 169.80 251.76 167.62 254.17 165.13 256.15 C 162.52 258.32 157.95 258.19 156.47 254.79 Z" fill="#1a2c2c" opacity="1.00" stroke="#1a2c2c" stroke-width="0.25" data-index="33" style="opacity: 1;"></path>
<path d="M 169.65 241.64 C 172.67 240.53 172.20 244.91 173.32 246.65 C 172.09 251.33 168.71 254.92 164.85 257.64 C 162.98 259.01 160.56 258.34 158.43 258.44 C 157.36 257.43 155.99 256.48 156.47 254.79 C 157.95 258.19 162.52 258.32 165.13 256.15 C 167.62 254.17 169.80 251.76 171.45 249.04 C 172.17 246.51 172.16 243.18 169.65 241.64 Z" fill="#ffffff" opacity="1.00" stroke="#ffffff" stroke-width="0.25" data-index="34"></path>
<path d="M 344.04 242.28 C 345.91 241.49 348.72 240.98 349.86 243.17 C 347.87 243.27 345.85 243.18 344.04 242.28 Z" fill="#a39d73" opacity="1.00" stroke="#a39d73" stroke-width="0.25" data-index="35"></path>
<path d="M 163.25 243.26 C 165.37 242.02 169.02 242.38 169.85 245.01 C 170.81 247.14 169.14 249.31 167.94 250.97 C 165.84 253.28 163.45 256.23 159.96 255.94 C 154.98 252.51 158.36 244.93 163.25 243.26 Z" fill="#94e7fc" opacity="1.00" stroke="#94e7fc" stroke-width="0.25" data-index="36" style="visibility: visible; fill: rgb(255, 229, 158); opacity: 1;"></path>
<path d="M 222.58 243.64 C 222.97 243.58 223.75 243.46 224.14 243.40 C 223.76 246.27 228.63 245.97 227.70 248.89 C 225.61 247.71 222.05 246.66 222.58 243.64 Z" fill="#1c1f16" opacity="1.00" stroke="#1c1f16" stroke-width="0.25" data-index="37"></path>
<path d="M 355.35 243.78 C 359.51 242.14 363.98 243.61 368.22 244.14 C 367.47 245.15 366.37 245.52 364.91 245.26 C 361.72 244.78 358.53 244.30 355.35 243.78 Z" fill="#edd588" opacity="1.00" stroke="#edd588" stroke-width="0.25" data-index="38"></path>
<path d="M 371.30 245.86 C 373.62 244.34 376.45 245.01 379.04 245.11 C 381.27 245.42 384.28 244.95 385.26 247.58 C 380.63 246.79 375.95 246.45 371.30 245.86 Z" fill="#f0d682" opacity="1.00" stroke="#f0d682" stroke-width="0.25" data-index="39"></path>
<path d="M 294.30 249.51 C 298.37 249.35 302.77 249.26 306.31 251.60 C 309.33 255.97 307.07 262.28 302.47 264.57 C 300.34 266.44 297.45 266.37 294.99 267.49 C 293.15 266.19 290.88 266.58 288.81 266.09 C 287.12 265.30 285.93 263.80 284.65 262.50 C 284.59 260.89 284.25 259.35 283.41 257.98 C 284.91 255.09 287.56 250.96 291.31 251.81 C 288.47 252.99 286.24 255.33 284.69 257.93 C 284.75 261.78 288.01 265.43 291.90 265.73 C 297.81 266.69 304.45 263.38 306.50 257.64 C 308.04 251.11 299.16 249.59 294.49 250.69 L 294.30 249.51 Z" fill="#ffffff" opacity="1.00" stroke="#ffffff" stroke-width="0.25" data-index="40" style="opacity: 1;"></path>
<path d="M 294.49 250.69 C 299.16 249.59 308.04 251.11 306.50 257.64 C 304.45 263.38 297.81 266.69 291.90 265.73 C 288.01 265.43 284.75 261.78 284.69 257.93 C 286.24 255.33 288.47 252.99 291.31 251.81 C 292.35 251.40 293.41 251.03 294.49 250.69 Z" fill="#1f230c" opacity="1.00" stroke="#1f230c" stroke-width="0.25" data-index="41" style="opacity: 1;"></path>
<path d="M 286.49 258.95 C 289.16 252.73 297.46 250.72 303.29 253.59 C 303.69 254.00 304.50 254.83 304.91 255.25 C 304.41 263.94 289.44 268.12 286.49 258.95 Z" fill="#ffffff" opacity="1.00" stroke="#ffffff" stroke-width="0.25" data-index="42"></path>
<path d="M 291.91 254.89 C 295.18 252.16 299.77 253.51 303.38 254.80 C 304.58 259.10 299.53 260.95 296.55 262.56 C 293.91 265.21 290.38 262.22 288.49 260.19 C 287.10 257.47 289.92 255.98 291.91 254.89 Z" fill="#ffe69c" opacity="1.00" stroke="#ffe69c" stroke-width="0.25" data-index="43"></path>
<path d="M 385.55 271.45 C 388.40 268.01 393.38 269.35 396.99 267.57 C 400.27 268.00 403.60 270.32 403.47 273.96 C 404.51 280.46 397.96 286.95 391.51 285.38 C 386.01 283.27 385.21 276.56 385.55 271.45 Z" fill="#ffffff" opacity="1.00" stroke="#ffffff" stroke-width="0.25" data-index="44" style="opacity: 1;"></path>
<path d="M 387.69 270.70 C 391.54 270.16 395.44 268.29 399.36 269.62 C 402.91 271.42 403.40 276.43 401.34 279.52 C 399.71 281.65 397.69 283.65 395.03 284.39 C 391.93 284.98 388.99 282.92 387.73 280.19 C 387.24 277.06 386.09 273.70 387.69 270.70 Z" fill="#152620" opacity="1.00" stroke="#152620" stroke-width="0.25" data-index="45" style="opacity: 1;"></path>
<path d="M 388.81 272.18 C 392.45 271.89 396.68 269.45 399.96 272.09 C 402.59 276.62 398.04 283.00 393.08 282.55 C 388.59 281.44 388.65 275.88 388.81 272.18 Z" fill="#97e8fe" opacity="1.00" stroke="#97e8fe" stroke-width="0.25" data-index="46" style="opacity: 1; visibility: visible; fill: rgb(255, 229, 158);"></path>
<path d="M 208.56 276.79 C 210.28 276.53 212.13 276.74 213.62 275.66 C 215.04 276.54 216.51 277.34 218.04 278.01 C 221.22 282.76 219.25 290.53 213.52 292.30 C 210.85 293.10 208.53 291.26 206.17 290.36 C 203.65 289.45 203.32 285.35 200.37 285.60 C 201.74 284.67 201.39 282.84 201.63 281.43 C 203.49 279.31 205.85 277.64 208.56 276.79 Z" fill="#ffffff" opacity="1.00" stroke="#ffffff" stroke-width="0.25" data-index="47"></path>
<path d="M 208.90 277.71 C 212.34 276.79 216.67 277.39 218.35 280.95 C 219.20 284.31 217.99 288.24 215.05 290.19 C 213.06 291.12 210.79 290.73 208.69 290.53 C 206.64 288.76 204.64 286.92 202.46 285.31 C 201.34 281.10 206.20 279.58 208.90 277.71 Z" fill="#1f230c" opacity="1.00" stroke="#1f230c" stroke-width="0.25" data-index="48"></path>
<path d="M 203.82 283.15 C 205.92 281.47 208.18 279.75 210.87 279.18 C 213.75 278.37 217.44 280.69 216.85 283.94 C 216.24 285.68 215.75 287.98 213.75 288.61 C 209.60 290.48 205.71 286.45 203.82 283.15 Z" fill="#fae69f" opacity="1.00" stroke="#fae69f" stroke-width="0.25" data-index="49"></path>
<path d="M 104.97 284.93 C 107.31 282.53 111.15 283.04 113.68 284.88 C 113.10 285.45 112.53 286.01 111.96 286.58 C 111.53 284.37 108.81 285.03 107.34 285.48 C 102.80 287.36 102.57 293.00 101.72 297.14 C 101.37 299.01 101.30 300.96 101.73 302.84 C 102.10 304.91 102.73 306.95 103.93 308.70 C 108.45 305.63 112.43 301.28 114.11 296.00 C 114.75 293.47 115.50 290.36 113.53 288.18 C 114.02 287.54 114.52 286.90 115.03 286.28 C 115.39 287.24 116.11 289.14 116.47 290.09 C 117.33 297.65 112.45 304.37 106.86 308.88 C 105.45 310.22 103.48 309.90 101.78 309.46 C 100.43 305.44 98.99 301.26 99.85 296.96 C 100.90 292.74 101.20 287.78 104.97 284.93 Z" fill="#152620" opacity="1.00" stroke="#152620" stroke-width="0.25" data-index="50"></path>
<path d="M 339.56 286.13 L 340.47 286.54 C 340.61 289.61 341.25 293.12 339.26 295.76 C 334.27 294.45 330.37 290.96 325.79 288.89 L 324.82 288.58 C 324.71 289.16 324.48 290.33 324.37 290.91 C 324.34 290.07 324.33 289.24 324.31 288.41 C 330.15 287.33 333.47 294.39 339.35 293.56 C 339.52 291.09 339.57 288.61 339.56 286.13 Z" fill="#ffffff" opacity="1.00" stroke="#ffffff" stroke-width="0.25" data-index="51"></path>
<path d="M 340.47 286.54 C 340.99 286.46 342.02 286.30 342.54 286.22 C 342.32 289.97 343.68 295.66 339.16 297.35 C 334.02 296.31 329.04 293.45 325.38 289.99 L 325.79 288.89 C 330.37 290.96 334.27 294.45 339.26 295.76 C 341.25 293.12 340.61 289.61 340.47 286.54 Z" fill="#1d2f19" opacity="1.00" stroke="#1d2f19" stroke-width="0.25" data-index="52"></path>
<path d="M 116.47 290.09 C 116.73 292.89 116.73 295.72 116.32 298.50 C 114.99 302.40 111.81 305.21 109.46 308.48 C 107.48 309.86 105.05 311.76 102.55 311.37 C 98.22 308.35 99.69 302.62 99.40 298.14 C 99.51 297.85 99.74 297.26 99.85 296.96 C 98.99 301.26 100.43 305.44 101.78 309.46 C 103.48 309.90 105.45 310.22 106.86 308.88 C 112.45 304.37 117.33 297.65 116.47 290.09 Z" fill="#ffffff" opacity="1.00" stroke="#ffffff" stroke-width="0.25" data-index="53"></path>
<path d="M 273.34 295.50 C 275.61 295.42 277.86 296.38 280.04 297.01 C 279.96 297.37 279.82 298.08 279.74 298.43 C 277.62 298.29 275.61 297.51 273.54 297.10 C 272.48 297.32 272.04 295.36 273.34 295.50 Z" fill="#1f230c" opacity="1.00" stroke="#1f230c" stroke-width="0.25" data-index="54"></path>
<path d="M 101.73 302.84 C 101.30 300.96 101.37 299.01 101.72 297.14 C 103.41 298.42 103.36 301.52 101.73 302.84 Z" fill="#ffffff" opacity="1.00" stroke="#ffffff" stroke-width="0.25" data-index="55"></path>
<path d="M 236.66 316.74 C 239.47 313.66 243.84 314.52 247.55 314.64 C 251.19 316.36 254.53 319.09 256.00 322.96 C 253.36 320.25 250.57 317.57 247.19 315.84 C 241.87 313.79 235.57 317.35 233.52 322.36 C 231.90 327.95 237.04 332.45 241.78 334.16 C 246.92 335.55 252.44 335.92 257.64 334.60 C 258.07 333.08 258.43 331.54 258.27 329.95 C 258.85 331.75 258.44 333.66 258.43 335.52 C 253.22 337.74 247.46 335.77 242.09 335.39 C 238.30 334.23 234.77 331.75 232.96 328.14 C 231.47 324.02 232.67 319.00 236.66 316.74 Z" fill="#ffffff" opacity="1.00" stroke="#ffffff" stroke-width="0.25" data-index="56"></path>
<path d="M 168.34 317.40 C 172.43 313.52 178.56 315.55 183.27 316.95 C 183.50 317.34 183.96 318.13 184.19 318.53 L 183.39 319.64 C 178.90 316.75 171.85 315.57 167.96 320.03 L 167.55 320.61 C 166.10 325.33 168.74 331.54 174.02 332.22 C 179.63 332.79 185.56 331.99 190.70 329.67 C 191.20 327.96 190.49 326.27 189.40 324.98 C 188.11 323.52 186.73 322.15 185.20 320.96 C 184.80 320.61 184.00 319.93 183.61 319.59 L 184.19 318.53 C 184.52 318.57 185.18 318.65 185.51 318.69 C 188.67 321.69 192.22 324.73 193.45 329.09 C 193.09 329.60 192.37 330.61 192.01 331.12 C 186.43 333.64 180.09 334.75 174.01 334.07 C 166.49 333.57 162.16 322.21 168.34 317.40 Z" fill="#152620" opacity="1.00" stroke="#152620" stroke-width="0.25" data-index="57" style="opacity: 1;"></path>
<path d="M 233.52 322.36 C 235.57 317.35 241.87 313.79 247.19 315.84 C 250.57 317.57 253.36 320.25 256.00 322.96 C 257.12 325.15 257.64 327.58 258.27 329.95 C 258.43 331.54 258.07 333.08 257.64 334.60 C 252.44 335.92 246.92 335.55 241.78 334.16 C 237.04 332.45 231.90 327.95 233.52 322.36 Z" fill="#1e2a18" opacity="1.00" stroke="#1e2a18" stroke-width="0.25" data-index="58"></path>
<path d="M 167.96 320.03 C 171.85 315.57 178.90 316.75 183.39 319.64 L 184.19 318.53 L 183.61 319.59 C 184.00 319.93 184.80 320.61 185.20 320.96 C 181.77 320.00 178.58 318.00 174.97 317.87 C 172.56 318.32 170.27 319.24 167.96 320.03 Z" fill="#ffffff" opacity="1.00" stroke="#ffffff" stroke-width="0.25" data-index="59" style="opacity: 1;"></path>
<path d="M 183.27 316.95 C 184.62 316.12 185.50 316.52 185.91 318.15 L 185.51 318.69 C 185.18 318.65 184.52 318.57 184.19 318.53 C 183.96 318.13 183.50 317.34 183.27 316.95 Z" fill="#ffffff" opacity="1.00" stroke="#ffffff" stroke-width="0.25" data-index="60"></path>
<path d="M 235.62 327.16 C 233.41 320.77 241.32 315.42 246.96 317.73 C 242.13 317.75 234.37 320.75 236.80 326.89 C 240.86 332.80 248.97 332.77 255.40 332.41 C 255.58 329.91 255.54 327.41 255.18 324.94 C 255.83 327.31 256.29 329.73 256.73 332.16 C 255.34 333.97 252.99 333.29 251.03 333.44 C 245.40 333.43 238.97 332.18 235.62 327.16 Z" fill="#ffffff" opacity="1.00" stroke="#ffffff" stroke-width="0.25" data-index="61" style="opacity: 1;"></path>
<path d="M 167.96 320.03 C 170.27 319.24 172.56 318.32 174.97 317.87 C 178.58 318.00 181.77 320.00 185.20 320.96 C 186.73 322.15 188.11 323.52 189.40 324.98 C 189.40 326.38 189.40 327.78 189.41 329.19 C 185.36 330.38 181.28 331.94 176.97 331.59 C 171.07 332.30 167.10 325.92 167.55 320.61 L 167.96 320.03 Z" fill="#ffe59d" opacity="1.00" stroke="#ffe59d" stroke-width="0.25" data-index="62"></path>
<path d="M 236.80 326.89 C 234.37 320.75 242.13 317.75 246.96 317.73 C 249.86 319.90 252.96 322.07 255.18 324.94 C 255.54 327.41 255.58 329.91 255.40 332.41 C 248.97 332.77 240.86 332.80 236.80 326.89 Z" fill="#ffe69e" opacity="1.00" stroke="#ffe69e" stroke-width="0.25" data-index="63" style="opacity: 1;"></path>
<path d="M 103.66 324.95 C 103.82 323.57 103.45 320.94 105.58 321.22 C 105.42 323.72 105.32 326.23 105.31 328.74 C 102.96 328.98 103.69 326.43 103.66 324.95 Z" fill="#1c1f16" opacity="1.00" stroke="#1c1f16" stroke-width="0.25" data-index="64"></path>
<path d="M 174.02 332.22 C 168.74 331.54 166.10 325.33 167.55 320.61 C 167.10 325.92 171.07 332.30 176.97 331.59 C 181.28 331.94 185.36 330.38 189.41 329.19 C 189.40 327.78 189.40 326.38 189.40 324.98 C 190.49 326.27 191.20 327.96 190.70 329.67 C 185.56 331.99 179.63 332.79 174.02 332.22 Z" fill="#ffffff" opacity="1.00" stroke="#ffffff" stroke-width="0.25" data-index="65"></path>
<path d="M 401.37 323.60 C 403.57 322.69 405.98 322.80 408.30 323.01 C 408.70 324.45 409.11 326.44 407.65 327.48 C 406.07 329.07 403.72 328.56 401.73 328.44 C 400.47 327.12 399.73 324.94 401.37 323.60 Z" fill="#1e2a18" opacity="1.00" stroke="#1e2a18" stroke-width="0.25" data-index="66"></path>
<path d="M 402.36 325.44 C 403.67 324.65 405.27 324.70 406.74 324.45 C 406.68 324.95 406.56 325.96 406.50 326.47 C 405.15 326.48 401.78 327.89 402.36 325.44 Z" fill="#ffffff" opacity="1.00" stroke="#ffffff" stroke-width="0.25" data-index="67"></path>
<path d="M 302.15 325.02 C 304.87 323.44 309.43 325.62 309.49 328.99 C 310.11 334.07 301.06 337.01 299.07 331.93 C 297.75 329.23 300.17 326.59 302.15 325.02 Z" fill="#152620" opacity="1.00" stroke="#152620" stroke-width="0.25" data-index="68"></path>
<path d="M 302.56 326.57 C 304.47 326.17 307.56 326.61 307.55 329.11 C 307.88 331.98 304.33 332.70 302.16 332.86 C 302.57 330.78 302.39 328.67 302.56 326.57 Z" fill="#ffffff" opacity="1.00" stroke="#ffffff" stroke-width="0.25" data-index="69"></path>
<path d="M 78.84 327.77 C 80.16 329.68 81.45 332.02 84.04 332.26 C 88.82 333.21 93.40 334.82 97.96 336.49 C 104.31 337.87 110.65 339.38 117.13 339.97 C 119.51 340.60 122.30 340.04 124.32 341.69 C 109.71 340.70 95.40 337.23 81.58 332.53 C 79.37 332.01 79.28 329.54 78.84 327.77 Z" fill="#ffffff" opacity="1.00" stroke="#ffffff" stroke-width="0.25" data-index="70"></path>
<path d="M 304.11 328.30 C 305.55 327.16 306.52 329.62 305.36 330.47 C 303.94 331.79 302.56 329.10 304.11 328.30 Z" fill="#ffd167" opacity="1.00" stroke="#ffd167" stroke-width="0.25" data-index="71"></path>
<path d="M 300.12 329.21 C 303.32 329.51 298.69 332.30 300.12 329.21 Z" fill="#50667a" opacity="1.00" stroke="#50667a" stroke-width="0.25" data-index="72"></path>
<path d="M 367.24 333.49 C 371.01 333.74 374.78 333.41 378.54 333.64 C 381.65 334.81 384.17 337.07 386.42 339.47 C 386.09 342.12 387.88 346.13 385.26 347.85 C 387.35 344.47 386.30 340.17 383.13 337.89 C 379.39 333.86 373.56 333.68 368.52 334.73 C 368.20 334.42 367.56 333.80 367.24 333.49 Z" fill="#ffffff" opacity="1.00" stroke="#ffffff" stroke-width="0.25" data-index="73"></path>
<path d="M 368.52 334.73 C 373.56 333.68 379.39 333.86 383.13 337.89 C 386.30 340.17 387.35 344.47 385.26 347.85 C 382.29 351.43 377.16 351.18 372.95 350.96 C 367.84 350.86 362.23 347.31 361.57 341.97 C 361.46 338.04 365.46 336.11 368.52 334.73 Z" fill="#1e2a18" opacity="1.00" stroke="#1e2a18" stroke-width="0.25" data-index="74" style="opacity: 1;"></path>
<path d="M 363.38 340.92 C 365.25 337.40 369.52 336.21 373.25 336.19 C 371.01 337.89 368.20 338.43 365.80 339.77 C 363.40 341.24 365.08 344.00 366.48 345.51 C 371.17 349.28 379.56 349.98 383.46 345.06 C 384.77 340.01 377.74 340.06 376.26 336.33 C 379.66 337.33 383.26 339.49 384.50 343.00 C 384.82 345.01 383.72 347.09 382.11 348.25 C 377.74 349.58 373.15 349.40 368.75 348.37 C 366.21 346.65 362.99 344.43 363.38 340.92 Z" fill="#ffffff" opacity="1.00" stroke="#ffffff" stroke-width="0.25" data-index="75"></path>
<path d="M 373.25 336.19 C 373.94 336.11 375.31 335.97 376.00 335.90 L 376.26 336.33 C 377.74 340.06 384.77 340.01 383.46 345.06 C 379.56 349.98 371.17 349.28 366.48 345.51 C 365.08 344.00 363.40 341.24 365.80 339.77 C 368.20 338.43 371.01 337.89 373.25 336.19 Z" fill="#ffe7a0" opacity="1.00" stroke="#ffe7a0" stroke-width="0.25" data-index="76" style="opacity: 1;"></path>
</svg>