<?xml version="1.0" encoding="utf-8"?>
<svg xmlns="http://www.w3.org/2000/svg" height="512pt" version="1.1" viewBox="0 0 512 512" width="512pt">
<path d="M 0.00 0.00 L 512.00 0.00 L 512.00 512.00 L 0.00 512.00 L 0.00 0.00 Z" fill="transparent" opacity="1.00" stroke="transparent" stroke-width="0.25"/>
<path d="M 298.64 115.60 C 301.09 112.27 306.31 112.14 309.44 114.60 C 312.40 116.56 313.75 119.97 314.97 123.15 C 317.84 120.65 320.87 117.42 324.99 117.53 C 329.27 117.22 332.07 121.48 333.04 125.15 C 334.37 131.18 333.07 137.37 331.39 143.19 C 337.51 144.90 343.43 147.58 348.49 151.46 C 350.38 152.82 350.97 155.66 350.00 157.72 C 346.82 163.13 341.47 166.75 337.22 171.13 C 338.33 175.17 339.26 179.37 338.39 183.56 C 337.18 187.38 333.05 190.31 328.99 189.39 C 327.18 188.73 325.52 187.75 323.80 186.90 C 323.03 200.61 322.96 214.38 324.34 228.05 C 325.66 248.64 330.88 269.32 327.18 289.94 C 324.20 306.91 316.57 323.91 302.69 334.68 C 294.17 341.41 283.92 345.46 273.53 348.25 C 272.19 353.65 270.27 358.89 269.17 364.35 C 278.48 367.13 287.21 371.51 295.48 376.55 C 298.67 378.69 302.88 381.21 301.68 385.73 C 296.11 387.31 290.45 384.39 284.74 385.01 C 287.11 387.59 290.18 390.71 288.18 394.48 C 281.18 394.31 274.98 390.58 268.50 388.36 C 263.01 386.52 257.69 383.98 251.95 383.01 C 255.16 385.47 259.23 387.03 261.56 390.50 C 262.70 391.71 261.97 393.28 261.78 394.69 C 256.19 395.31 250.62 393.79 245.01 394.49 C 247.58 396.88 250.59 399.56 249.81 403.47 C 247.98 403.71 246.06 404.53 244.27 403.65 C 233.17 399.27 222.38 394.04 211.01 390.37 C 207.33 392.38 203.43 394.86 199.06 394.47 C 197.08 394.18 196.01 391.79 197.04 390.10 C 198.54 385.70 203.11 383.91 206.29 381.03 C 206.30 377.51 206.67 373.79 205.53 370.41 C 202.60 367.21 201.10 363.15 199.88 359.06 C 193.14 356.68 186.61 353.47 181.12 348.86 C 169.48 339.21 160.99 326.38 153.96 313.15 C 147.84 301.39 142.43 289.08 139.92 275.99 C 139.55 274.80 139.71 273.20 138.53 272.44 C 134.95 269.78 131.38 266.73 129.63 262.52 C 128.84 259.85 128.99 256.30 131.55 254.63 C 133.63 253.34 136.07 252.81 138.39 252.10 C 135.50 242.53 133.39 232.41 134.59 222.38 C 135.33 217.57 137.24 212.57 141.67 210.00 C 140.51 204.12 138.87 198.05 140.04 192.04 C 140.95 187.71 146.09 184.45 150.16 186.88 C 156.41 192.10 159.99 199.65 165.21 205.80 C 168.14 209.17 170.47 213.31 174.51 215.52 C 184.38 221.41 195.15 225.67 206.08 229.13 C 216.00 232.34 226.92 233.00 236.98 230.00 C 240.64 228.86 242.24 225.01 244.07 222.00 C 255.66 200.36 262.55 176.59 273.83 154.80 C 276.98 149.19 281.01 144.04 285.77 139.70 C 283.03 137.72 279.41 136.16 278.44 132.61 C 277.19 129.36 278.35 125.32 281.46 123.58 C 286.01 120.52 291.70 121.45 296.83 121.84 C 297.27 119.73 297.23 117.37 298.64 115.60 Z" fill="#063b62" opacity="1.00" stroke="#063b62" stroke-width="0.25"/>
<path d="M 292.98 144.97 C 298.93 139.87 308.14 137.61 315.19 141.80 C 318.23 143.60 321.82 145.07 323.79 148.17 C 323.26 155.60 321.40 162.89 318.58 169.78 C 315.35 177.44 315.65 185.88 314.92 194.00 C 313.86 216.76 316.94 239.42 319.42 262.00 C 321.32 278.93 319.27 296.79 310.85 311.84 C 307.45 317.55 303.58 323.13 298.39 327.36 C 290.96 333.55 281.76 337.07 272.58 339.73 C 260.66 342.97 248.44 344.88 236.23 346.57 C 234.75 346.57 233.76 347.82 233.20 349.05 C 231.18 353.27 230.56 358.09 228.07 362.10 C 225.38 365.20 220.88 365.71 217.02 365.84 C 214.58 365.69 211.74 366.01 209.82 364.18 C 208.06 360.42 207.91 356.01 205.61 352.48 C 202.14 350.42 197.97 349.80 194.47 347.74 C 183.23 341.68 174.90 331.45 168.18 320.82 C 160.13 307.76 153.03 293.88 149.12 278.97 C 150.41 277.20 152.18 275.83 153.39 273.99 C 153.18 271.71 150.80 270.87 149.15 269.79 C 144.77 267.39 140.76 264.21 137.75 260.19 C 142.19 260.02 146.65 260.22 151.05 259.48 C 149.16 254.84 146.31 250.61 145.14 245.69 C 142.89 237.08 140.91 227.62 144.12 219.00 C 145.08 215.76 149.28 216.75 151.33 214.82 C 150.25 208.72 147.79 202.84 147.75 196.54 C 150.91 199.72 153.07 203.68 155.72 207.26 C 160.80 214.37 166.77 221.28 174.70 225.28 C 184.88 230.77 195.65 235.21 206.79 238.34 C 215.29 240.67 224.29 241.37 233.02 240.05 C 238.17 239.04 243.59 237.21 247.01 233.00 C 253.68 224.61 257.37 214.44 261.72 204.77 C 267.34 190.82 272.70 176.75 279.19 163.18 C 282.29 156.15 287.14 149.93 292.98 144.97 Z" fill="#fefffe" opacity="1.00" stroke="#fefffe" stroke-width="0.25"/>
<path d="M 309.43 148.44 C 312.94 147.13 317.29 150.03 316.70 153.92 C 316.74 158.18 311.41 160.17 308.12 158.05 C 304.71 155.86 305.29 149.49 309.43 148.44 Z" fill="#083c63" opacity="1.00" stroke="#083c63" stroke-width="0.25"/>
<path d="M 331.34 151.80 C 335.02 152.75 338.49 154.33 341.85 156.08 C 338.59 160.03 334.35 163.22 329.42 164.73 C 329.51 160.35 330.66 156.11 331.34 151.80 Z" fill="#f7fcfd" opacity="1.00" stroke="#f7fcfd" stroke-width="0.25"/>
<path d="M 289.21 200.32 C 290.65 195.74 292.18 190.20 296.80 187.87 C 296.58 192.73 294.58 199.19 289.21 200.32 Z" fill="#d77036" opacity="1.00" stroke="#d77036" stroke-width="0.25"/>
<path d="M 278.01 200.12 C 279.14 197.04 279.29 192.31 283.32 191.67 C 283.51 194.79 283.11 198.33 280.70 200.58 C 279.79 200.46 278.90 200.31 278.01 200.12 Z" fill="#dc7944" opacity="1.00" stroke="#dc7944" stroke-width="0.25"/>
<path d="M 301.76 202.69 C 303.27 199.61 303.54 195.39 306.91 193.68 C 307.53 198.81 306.60 205.56 301.91 208.51 C 299.31 207.43 301.32 204.52 301.76 202.69 Z" fill="#e6733f" opacity="1.00" stroke="#e6733f" stroke-width="0.25"/>
<path d="M 272.02 202.05 C 272.14 199.39 272.76 196.72 274.83 194.89 C 275.07 197.67 274.40 200.37 272.02 202.05 Z" fill="#d77036" opacity="1.00" stroke="#d77036" stroke-width="0.25"/>
<path d="M 285.28 218.97 C 285.55 214.09 287.50 209.23 290.98 205.76 C 293.08 210.68 290.83 217.63 285.28 218.97 Z" fill="#e36f37" opacity="1.00" stroke="#e36f37" stroke-width="0.25"/>
<path d="M 277.24 216.79 C 276.89 212.59 279.47 208.91 282.14 205.94 C 284.03 208.65 282.75 211.88 281.66 214.61 C 280.86 216.19 279.09 218.42 277.24 216.79 Z" fill="#e56f38" opacity="1.00" stroke="#e56f38" stroke-width="0.25"/>
<path d="M 307.99 212.13 C 308.59 212.26 309.80 212.52 310.40 212.64 C 311.47 216.31 311.08 220.10 309.88 223.68 C 309.23 223.70 307.93 223.73 307.28 223.75 C 306.69 219.86 306.53 215.85 307.99 212.13 Z" fill="#e37034" opacity="1.00" stroke="#e37034" stroke-width="0.25"/>
<path d="M 292.75 217.48 C 293.09 215.91 294.89 215.56 296.05 214.81 C 297.07 219.52 295.66 224.44 292.96 228.34 C 291.92 224.82 291.93 221.04 292.75 217.48 Z" fill="#e17034" opacity="1.00" stroke="#e17034" stroke-width="0.25"/>
<path d="M 159.89 230.11 C 158.23 227.79 155.67 225.13 156.69 222.05 C 158.83 224.67 160.36 227.79 162.92 230.06 C 164.88 231.99 167.59 232.80 169.95 234.10 C 166.11 237.05 162.33 232.87 159.89 230.11 Z" fill="#0c3555" opacity="1.00" stroke="#0c3555" stroke-width="0.25"/>
<path d="M 152.94 234.61 C 156.57 237.13 159.32 240.91 163.57 242.55 C 165.90 243.90 169.39 244.15 170.35 247.05 C 163.35 245.88 154.36 242.48 152.94 234.61 Z" fill="#0c3555" opacity="1.00" stroke="#0c3555" stroke-width="0.25"/>
<path d="M 154.22 250.79 C 153.18 249.82 153.19 248.39 153.48 247.11 C 155.68 248.76 157.79 250.65 160.44 251.54 C 162.86 252.67 166.24 252.97 167.08 255.97 C 162.26 257.10 157.17 254.57 154.22 250.79 Z" fill="#0c3555" opacity="1.00" stroke="#0c3555" stroke-width="0.25"/>
<path d="M 192.04 254.06 C 201.88 252.10 211.77 249.59 221.85 249.65 C 221.17 252.59 218.04 253.45 215.66 254.62 C 201.23 260.27 185.50 261.12 170.80 265.84 C 178.98 270.76 189.08 269.66 198.09 271.84 C 196.59 274.27 193.48 273.87 191.03 274.19 C 183.10 274.24 175.15 272.93 167.66 270.34 C 165.97 269.69 164.20 269.06 162.85 267.82 C 161.73 265.54 163.65 263.53 165.59 262.62 C 173.78 258.14 183.04 256.22 192.04 254.06 Z" fill="#093c60" opacity="1.00" stroke="#093c60" stroke-width="0.25"/>
<path d="M 234.94 258.10 C 238.81 260.58 243.02 262.35 247.51 263.36 C 247.70 263.74 248.06 264.51 248.24 264.89 C 243.06 265.17 237.07 263.26 234.94 258.10 Z" fill="#0c3555" opacity="1.00" stroke="#0c3555" stroke-width="0.25"/>
<path d="M 225.32 269.53 C 229.14 270.37 232.81 271.77 236.39 273.34 C 232.80 275.43 226.96 273.37 225.32 269.53 Z" fill="#0c3555" opacity="1.00" stroke="#0c3555" stroke-width="0.25"/>
<path d="M 168.15 275.25 C 168.79 275.22 170.09 275.16 170.74 275.13 C 171.00 277.28 171.10 279.45 171.57 281.58 C 175.30 286.20 181.31 288.03 186.87 289.35 C 191.58 290.49 196.43 290.48 201.24 290.54 C 201.01 291.03 200.55 292.00 200.31 292.49 C 192.54 295.07 184.01 293.90 176.32 291.51 C 177.60 294.48 179.13 297.35 181.02 299.99 C 184.19 304.39 187.14 309.22 191.83 312.20 C 200.98 318.25 212.15 320.73 223.00 320.90 C 233.94 321.23 245.36 316.93 252.15 308.11 C 258.42 301.18 260.24 291.71 262.00 282.85 C 262.30 280.15 264.93 278.99 267.37 279.39 C 268.83 285.38 267.23 291.51 265.40 297.23 C 262.29 306.96 256.56 316.31 247.75 321.84 C 237.38 328.84 224.13 329.79 212.09 327.66 C 199.84 325.57 187.39 320.49 179.53 310.45 C 174.58 303.70 169.65 296.54 167.92 288.20 C 166.97 283.94 166.69 279.43 168.15 275.25 Z" fill="#073c62" opacity="1.00" stroke="#073c62" stroke-width="0.25"/>
<path d="M 212.50 278.81 C 215.51 280.73 218.28 283.52 222.08 283.66 C 223.11 283.67 226.97 284.14 224.69 285.55 C 219.73 286.97 213.54 284.13 212.50 278.81 Z" fill="#0c3555" opacity="1.00" stroke="#0c3555" stroke-width="0.25"/>
<path d="M 209.23 305.11 C 215.30 304.34 221.11 302.36 227.11 301.21 C 226.28 304.67 222.36 305.48 219.51 306.69 C 211.96 309.20 203.05 310.84 195.69 306.97 C 200.04 305.47 204.74 305.97 209.23 305.11 Z" fill="#103d5c" opacity="1.00" stroke="#103d5c" stroke-width="0.25"/>
<path d="M 232.98 308.01 C 236.93 305.86 239.58 301.86 243.81 300.17 C 242.93 304.49 239.55 307.69 236.04 310.05 C 231.78 312.88 226.75 315.22 221.51 314.41 C 224.29 310.69 229.32 310.46 232.98 308.01 Z" fill="#103b5a" opacity="1.00" stroke="#103b5a" stroke-width="0.25"/>
<path d="M 235.31 364.35 C 237.29 360.96 238.28 357.11 240.07 353.62 C 241.95 357.21 243.87 360.78 245.96 364.26 C 246.94 367.72 247.30 371.38 247.32 374.98 C 246.34 376.49 245.03 377.75 243.85 379.11 C 239.11 377.21 234.38 375.22 229.38 374.10 C 228.33 369.40 233.39 367.82 235.31 364.35 Z" fill="#fcfefe" opacity="1.00" stroke="#fcfefe" stroke-width="0.25"/>
<path d="M 254.05 364.58 C 256.45 364.47 258.85 364.30 261.25 364.10 C 261.57 366.06 260.84 368.88 263.13 369.86 C 268.92 372.94 275.55 374.16 281.14 377.65 C 276.00 376.52 270.97 374.57 265.63 374.70 C 267.70 377.54 270.97 379.12 273.24 381.78 C 267.28 379.66 261.45 377.10 255.22 375.85 C 254.97 372.07 254.52 368.32 254.05 364.58 Z" fill="#fbfefe" opacity="1.00" stroke="#fbfefe" stroke-width="0.25"/>
<path d="M 214.11 372.42 C 216.65 372.43 219.20 372.35 221.74 372.20 C 222.05 374.32 221.32 377.22 223.41 378.62 C 228.60 382.09 235.01 383.20 240.15 386.79 C 235.62 386.12 231.33 384.16 226.68 384.25 C 228.68 386.94 231.87 388.32 234.08 390.80 C 227.32 388.71 221.17 384.78 214.09 383.70 C 214.39 379.95 214.32 376.18 214.11 372.42 Z" fill="#fbfefd" opacity="1.00" stroke="#fbfefd" stroke-width="0.25"/>
</svg>