<svg xmlns="http://www.w3.org/2000/svg" height="512pt" version="1.1" viewBox="0 0 512 512" width="512pt"><defs>
                <linearGradient id="grad-28" gradientTransform="rotate(101 0.5 0.5)">
                
                        <stop stop-color="#ffbb67" offset="0"></stop>
                    ,
                        <stop stop-color="#171e31" offset="0.3333333333333333"></stop>
                    ,
                        <stop stop-color="#e89249" offset="0.6666666666666666"></stop>
                    
                </linearGradient>
          </defs><defs>
                <linearGradient id="grad-27" gradientTransform="rotate(95 0.5 0.5)">
                
                        <stop stop-color="#171e31" offset="0"></stop>
                    ,
                        <stop stop-color="#e89249" offset="0.3333333333333333"></stop>
                    ,
                        <stop stop-color="#e89249" offset="0.6666666666666666"></stop>
                    
                </linearGradient>
          </defs>

<path d="M 379.14 49.12 C 380.54 49.25 381.98 49.26 383.37 49.63 C 386.94 53.28 387.15 58.86 386.45 63.63 C 384.84 72.17 376.21 77.39 375.20 86.16 C 374.15 90.57 375.77 94.89 376.91 99.10 C 377.59 100.64 376.51 102.01 375.92 103.35 C 373.75 103.23 371.44 102.69 370.53 100.46 C 366.07 91.66 367.67 80.33 373.62 72.59 C 376.33 68.78 379.74 64.86 379.79 59.92 C 379.99 56.26 377.35 52.69 379.14 49.12 Z" fill="#75bee3" opacity="1.00" stroke="#75bee3" stroke-width="0.25" data-index="1" style="visibility: hidden; opacity: 1;"></path>

<path d="M 417.36 98.32 C 419.70 96.66 423.94 98.54 422.69 101.68 C 421.23 104.61 416.91 105.71 416.59 109.38 C 416.11 115.76 416.84 122.66 413.26 128.35 C 409.17 134.69 401.48 138.36 394.09 138.80 C 390.50 139.45 390.00 134.06 392.79 132.79 C 397.34 130.80 402.97 130.40 406.25 126.22 C 410.49 120.97 408.77 113.84 409.78 107.68 C 410.85 103.71 413.63 100.11 417.36 98.32 Z" fill="#73bde4" opacity="1.00" stroke="#73bde4" stroke-width="0.25" data-index="3" style="visibility: hidden; opacity: 1;"></path>
<path d="M 319.06 132.11 C 326.59 127.48 336.72 126.26 344.74 130.35 C 350.65 133.42 352.28 140.72 357.95 144.04 C 361.78 146.55 365.25 150.01 366.58 154.50 C 369.10 163.03 366.04 172.61 359.68 178.68 C 353.89 184.39 345.46 185.80 337.74 186.98 C 333.37 187.78 328.75 187.19 324.53 188.69 C 314.37 194.46 305.15 201.70 296.49 209.49 C 295.86 210.19 295.27 210.91 294.73 211.68 C 314.55 221.83 334.44 232.29 356.00 238.29 C 357.78 239.07 359.39 237.68 360.91 236.95 C 374.05 229.92 385.69 220.54 397.48 211.53 C 398.77 210.49 400.19 209.55 401.16 208.18 C 405.35 199.21 402.54 188.67 406.83 179.74 C 409.85 172.50 416.39 166.71 424.02 164.80 C 428.24 163.98 432.85 165.04 436.11 167.89 C 438.03 169.67 439.17 172.11 440.96 174.00 C 444.73 174.94 449.01 175.15 451.89 178.12 C 456.23 182.04 455.55 188.54 458.88 193.08 C 463.09 199.41 464.00 207.44 462.59 214.81 C 461.48 221.84 457.81 228.85 451.50 232.50 C 444.37 236.77 435.84 237.76 427.68 237.43 C 420.96 259.74 414.88 282.27 407.21 304.29 C 400.10 322.93 391.14 341.54 376.54 355.52 C 364.25 368.10 348.29 376.10 332.61 383.59 C 305.38 396.56 275.62 402.59 247.56 413.37 C 225.05 421.23 202.50 429.89 178.66 432.71 C 159.08 435.16 138.59 433.67 120.38 425.63 C 107.65 420.30 96.62 411.72 86.50 402.49 C 75.24 392.39 66.57 379.75 59.60 366.41 C 53.89 354.40 49.33 341.50 49.16 328.06 C 48.43 312.27 53.10 296.61 61.13 283.12 C 68.12 271.75 76.17 261.05 85.47 251.47 C 90.74 244.45 97.62 238.90 104.48 233.51 C 110.36 228.84 116.68 224.74 123.34 221.28 C 126.44 218.38 128.42 214.46 131.41 211.43 C 140.28 200.63 151.80 191.98 164.75 186.71 C 174.72 182.97 185.32 181.05 195.93 180.43 C 221.56 179.45 247.10 176.62 272.38 172.31 C 282.85 170.44 293.45 168.08 302.90 163.00 C 306.01 161.58 305.98 157.73 306.82 154.88 C 308.75 146.48 311.17 136.91 319.06 132.11 Z" fill="#171e31" opacity="1.00" stroke="#171e31" stroke-width="0.25" data-index="4" style="opacity: 1; visibility: visible; display: block;"></path>
<path d="M 320.39 139.41 C 325.91 134.80 334.22 133.28 340.90 136.08 C 345.72 138.17 347.16 143.79 350.97 147.02 C 354.41 150.13 359.24 152.50 360.42 157.39 C 361.90 165.23 357.56 174.06 350.04 177.10 C 342.74 180.11 334.75 180.50 326.97 180.98 C 322.79 181.18 319.54 184.02 316.15 186.11 C 308.52 191.00 300.96 196.10 294.39 202.38 C 292.32 204.37 290.14 206.24 287.95 208.09 C 272.70 201.57 257.11 195.55 240.76 192.49 C 230.18 190.62 219.41 190.07 208.69 190.76 C 208.34 189.37 208.01 187.99 207.69 186.59 C 225.69 186.12 243.53 183.55 261.35 181.16 C 273.86 179.03 286.57 177.19 298.45 172.53 C 302.56 170.88 306.91 169.28 310.21 166.22 C 314.42 157.63 313.33 146.60 320.39 139.41 Z" fill="#e79149" opacity="1.00" stroke="#e79149" stroke-width="0.25" data-index="5" style="opacity: 1;"></path>
<path d="M 325.06 144.07 C 325.30 142.66 326.82 142.46 327.89 141.95 C 328.77 146.72 327.09 151.51 325.10 155.79 C 324.67 155.50 323.80 154.94 323.37 154.65 C 323.19 151.06 324.02 147.48 325.06 144.07 Z" fill="#261519" opacity="1.00" stroke="#261519" stroke-width="0.25" data-index="6"></path>
<path d="M 337.92 168.06 C 338.01 164.03 342.17 162.30 344.91 160.11 C 345.32 160.60 346.15 161.59 346.57 162.08 C 344.39 164.80 341.90 168.48 337.92 168.06 Z" fill="#23171b" opacity="1.00" stroke="#23171b" stroke-width="0.25" data-index="7" style="opacity: 1;"></path>
<path d="M 421.24 173.25 C 424.26 171.48 428.24 170.73 431.40 172.63 C 433.79 174.63 434.54 177.99 436.97 179.98 C 439.13 180.91 441.53 181.08 443.83 181.46 L 443.94 182.09 C 444.29 184.31 444.86 186.50 445.71 188.59 C 441.87 190.40 437.30 191.09 434.12 194.08 C 434.22 194.45 434.43 195.19 434.53 195.56 C 438.77 196.12 442.67 193.69 446.68 192.68 C 447.17 197.70 448.98 202.61 448.49 207.72 C 448.09 212.04 447.26 216.42 445.28 220.32 C 442.85 224.53 438.79 227.45 434.92 230.23 C 431.36 230.49 427.79 230.15 424.23 230.22 C 418.66 240.13 417.59 251.75 412.85 261.96 C 410.50 265.42 408.46 269.07 406.78 272.90 C 400.74 285.31 394.06 297.55 385.22 308.21 C 372.96 321.50 359.41 334.26 342.67 341.65 C 327.92 347.46 311.72 350.63 295.91 348.16 C 282.35 346.11 271.24 335.09 257.04 336.17 C 250.61 336.78 243.41 337.86 238.68 342.69 C 236.20 346.14 234.27 351.12 236.58 355.14 C 231.38 354.18 225.39 354.58 221.16 350.86 C 216.48 346.66 215.55 339.94 216.21 334.00 C 216.49 326.75 221.03 320.39 220.74 313.07 C 219.11 313.45 217.23 313.62 216.19 315.12 C 211.18 321.15 206.35 327.33 201.42 333.42 C 198.46 337.24 193.69 338.93 190.37 342.36 C 186.41 346.13 184.85 351.60 183.92 356.82 C 172.93 358.97 164.11 366.98 157.95 375.97 C 154.19 381.34 150.62 387.57 144.27 390.19 C 139.81 392.17 134.62 391.84 130.26 389.75 C 125.58 387.74 122.25 383.77 118.72 380.27 C 115.96 377.42 112.40 375.20 110.69 371.47 C 115.85 365.97 115.65 357.52 113.13 350.86 C 109.92 342.55 104.33 334.55 95.94 330.89 C 90.98 328.51 85.18 328.95 80.17 330.92 C 79.46 323.91 77.67 317.06 76.84 310.07 C 75.48 299.42 75.83 288.41 79.07 278.12 C 80.34 274.17 81.38 270.15 82.21 266.08 C 85.31 261.07 89.46 256.76 93.59 252.59 C 100.11 245.72 107.46 239.68 115.11 234.11 C 133.49 222.26 152.96 211.97 173.54 204.50 C 195.30 197.08 219.00 195.58 241.59 199.71 C 263.37 204.00 283.75 213.31 303.24 223.68 C 310.26 227.42 317.62 230.48 324.57 234.31 C 310.73 232.89 296.88 235.60 283.05 234.12 C 275.36 233.98 266.26 232.32 260.07 238.09 C 256.51 240.69 256.17 246.00 258.55 249.50 C 261.08 253.29 265.09 255.66 268.58 258.47 C 273.58 262.44 278.05 267.18 281.15 272.80 C 280.77 274.07 279.05 275.44 279.99 276.79 C 282.25 278.58 285.44 277.87 287.90 276.88 C 298.48 272.79 308.31 267.03 318.86 262.85 C 328.56 258.49 338.60 254.94 348.26 250.50 C 361.19 245.10 373.48 238.10 384.63 229.61 C 391.90 224.28 399.46 219.23 405.97 212.98 C 411.22 204.89 410.05 194.75 411.76 185.66 C 413.38 180.64 416.42 175.72 421.24 173.25 Z" fill="#ffbb67" opacity="1.00" stroke="#ffbb67" stroke-width="0.25" data-index="8" style="opacity: 1; display: block;"></path>
<path d="M 420.79 183.65 C 423.20 180.60 425.43 175.71 429.98 176.07 C 429.28 180.00 425.63 182.34 423.06 185.07 C 422.00 186.66 418.95 185.24 420.79 183.65 Z" fill="#1c130c" opacity="1.00" stroke="#1c130c" stroke-width="0.25" data-index="9"></path>
<path d="M 443.94 182.09 C 445.67 182.33 447.54 182.96 448.27 184.73 C 450.02 188.45 450.50 192.71 452.85 196.17 C 457.19 202.50 457.18 210.81 454.89 217.89 C 453.60 221.80 450.83 225.20 447.25 227.23 C 443.44 229.19 439.12 229.73 434.92 230.23 C 438.79 227.45 442.85 224.53 445.28 220.32 C 447.26 216.42 448.09 212.04 448.49 207.72 C 448.98 202.61 447.17 197.70 446.68 192.68 C 446.57 191.27 446.25 189.89 445.71 188.59 C 444.86 186.50 444.29 184.31 443.94 182.09 Z" fill="#e6904a" opacity="1.00" stroke="#e6904a" stroke-width="0.25" data-index="10"></path>
<path d="M 161.65 195.61 C 175.81 188.24 192.09 187.55 207.69 186.59 C 208.01 187.99 208.34 189.37 208.69 190.76 C 200.76 191.46 192.79 192.20 185.02 194.05 C 171.90 197.14 159.34 202.27 147.37 208.40 C 145.36 209.44 143.26 210.30 141.12 211.04 C 146.57 204.29 154.14 199.72 161.65 195.61 Z" fill="#df8f4d" opacity="1.00" stroke="#df8f4d" stroke-width="0.25" data-index="11"></path>
<path d="M 434.12 194.08 C 437.30 191.09 441.87 190.40 445.71 188.59 C 446.25 189.89 446.57 191.27 446.68 192.68 C 442.67 193.69 438.77 196.12 434.53 195.56 C 434.43 195.19 434.22 194.45 434.12 194.08 Z" fill="#221a1d" opacity="1.00" stroke="#221a1d" stroke-width="0.25" data-index="12"></path>
<path d="M 184.30 221.30 C 190.77 217.75 197.40 213.31 205.02 213.15 C 204.89 213.76 204.63 214.98 204.50 215.59 C 197.27 220.08 189.44 223.59 182.47 228.51 C 156.27 246.43 133.87 270.80 121.10 300.08 C 120.85 300.46 120.34 301.22 120.09 301.60 C 115.60 299.49 118.44 293.32 119.91 289.87 C 134.34 261.59 156.87 237.36 184.30 221.30 Z" fill="#181f2f" opacity="1.00" stroke="#181f2f" stroke-width="0.25" data-index="13"></path>
<path d="M 206.38 230.45 C 208.34 229.91 210.75 230.34 211.59 232.42 C 212.66 236.38 207.13 239.45 204.20 236.80 C 201.96 234.78 203.39 230.78 206.38 230.45 Z" fill="#fdfcf2" opacity="1.00" stroke="#fdfcf2" stroke-width="0.25" data-index="14"></path>
<path d="M 260.07 238.09 C 266.26 232.32 275.36 233.98 283.05 234.12 C 296.88 235.60 310.73 232.89 324.57 234.31 C 332.46 237.04 340.13 240.45 348.00 243.30 C 342.96 246.19 337.31 247.71 332.00 250.02 C 324.11 253.47 315.98 256.39 308.28 260.26 C 299.16 264.28 290.39 269.06 281.15 272.80 C 278.05 267.18 273.58 262.44 268.58 258.47 C 265.09 255.66 261.08 253.29 258.55 249.50 C 256.17 246.00 256.51 240.69 260.07 238.09 Z" fill="#e9934a" opacity="1.00" stroke="#e9934a" stroke-width="0.25" data-index="15"></path>
<path d="M 120.42 241.47 C 123.87 240.14 127.47 243.44 126.27 247.00 C 124.18 253.54 119.89 259.25 114.86 263.86 C 112.49 266.11 109.57 268.32 106.08 267.84 C 103.15 268.16 102.17 264.62 102.44 262.30 C 103.06 257.07 106.23 252.55 109.75 248.79 C 112.73 245.67 116.08 242.46 120.42 241.47 Z" fill="#fefefc" opacity="1.00" stroke="#fefefc" stroke-width="0.25" data-index="16"></path>
<path d="M 170.43 254.28 C 172.67 252.82 175.30 253.79 177.60 254.50 C 177.67 256.45 177.79 258.72 176.13 260.11 C 173.99 261.53 171.13 262.12 168.65 261.36 C 166.57 259.22 167.78 255.36 170.43 254.28 Z" fill="#fefef3" opacity="1.00" stroke="#fefef3" stroke-width="0.25" data-index="17"></path>
<path d="M 406.78 272.90 C 408.46 269.07 410.50 265.42 412.85 261.96 C 412.46 266.06 410.97 269.93 409.79 273.85 C 404.00 294.06 397.56 314.41 386.37 332.38 C 381.70 339.52 376.58 346.48 370.17 352.16 C 360.90 361.02 349.66 367.46 338.29 373.22 C 328.93 377.79 319.47 382.21 309.62 385.65 C 291.14 392.21 272.19 397.33 253.63 403.65 C 228.34 412.82 202.95 423.03 176.01 426.06 C 159.11 427.54 141.59 426.87 125.71 420.34 C 113.08 415.75 102.45 407.28 92.35 398.66 C 81.82 389.60 73.78 378.03 66.95 366.03 C 61.37 354.79 56.55 342.75 56.16 330.05 C 55.41 318.50 57.34 306.71 62.14 296.15 C 65.32 288.46 70.05 281.56 74.75 274.74 C 77.13 271.77 78.92 268.18 82.21 266.08 C 81.38 270.15 80.34 274.17 79.07 278.12 C 75.83 288.41 75.48 299.42 76.84 310.07 C 77.67 317.06 79.46 323.91 80.17 330.92 C 72.75 338.70 72.09 350.97 76.68 360.35 C 79.71 366.26 83.85 371.93 89.66 375.36 C 96.59 379.11 105.02 376.19 110.69 371.47 C 112.40 375.20 115.96 377.42 118.72 380.27 C 122.25 383.77 125.58 387.74 130.26 389.75 C 134.62 391.84 139.81 392.17 144.27 390.19 C 150.62 387.57 154.19 381.34 157.95 375.97 C 164.11 366.98 172.93 358.97 183.92 356.82 C 182.63 367.02 182.49 378.50 188.77 387.21 C 195.11 395.40 205.91 397.66 215.56 399.32 C 224.15 400.33 233.84 402.76 241.61 397.57 C 245.78 395.25 248.32 390.78 248.13 386.00 C 248.00 380.73 251.23 376.17 251.37 370.99 C 251.21 367.20 249.76 363.49 247.48 360.48 C 244.84 357.19 240.58 355.88 236.58 355.14 C 234.27 351.12 236.20 346.14 238.68 342.69 C 243.41 337.86 250.61 336.78 257.04 336.17 C 271.24 335.09 282.35 346.11 295.91 348.16 C 311.72 350.63 327.92 347.46 342.67 341.65 C 359.41 334.26 372.96 321.50 385.22 308.21 C 394.06 297.55 400.74 285.31 406.78 272.90 Z" fill="#e89249" opacity="1.00" stroke="#e89249" stroke-width="0.25" data-index="18" style="opacity: 1; display: block;"></path>
<path d="M 91.59 273.45 C 93.15 271.05 97.39 270.32 99.26 272.70 C 100.79 276.30 100.19 281.47 96.41 283.41 C 94.75 284.41 92.96 283.36 91.37 282.78 C 91.39 279.67 91.04 276.53 91.59 273.45 Z" fill="#fdfdf7" opacity="1.00" stroke="#fdfdf7" stroke-width="0.25" data-index="19"></path>
<path d="M 148.59 273.62 C 150.40 271.57 153.35 271.43 155.74 272.43 C 156.28 277.12 151.65 280.86 147.14 279.85 C 147.25 277.73 146.66 275.12 148.59 273.62 Z" fill="#fefdf5" opacity="1.00" stroke="#fefdf5" stroke-width="0.25" data-index="20"></path>
<path d="M 136.33 297.40 C 138.16 294.71 141.74 295.30 144.51 295.53 C 144.54 297.48 145.32 300.04 143.36 301.36 C 141.27 302.96 138.65 302.08 136.37 301.52 C 136.29 300.15 135.94 298.75 136.33 297.40 Z" fill="#fdfef6" opacity="1.00" stroke="#fdfef6" stroke-width="0.25" data-index="21"></path>

<path d="M 80.17 330.92 C 85.18 328.95 90.98 328.51 95.94 330.89 C 104.33 334.55 109.92 342.55 113.13 350.86 C 115.65 357.52 115.85 365.97 110.69 371.47 C 105.02 376.19 96.59 379.11 89.66 375.36 C 83.85 371.93 79.71 366.26 76.68 360.35 C 72.09 350.97 72.75 338.70 80.17 330.92 Z" fill="#171e2f" opacity="1.00" stroke="#171e2f" stroke-width="0.25" data-index="23" style="opacity: 1;"></path>
<path d="M 204.08 340.08 C 207.27 337.25 209.40 333.50 211.70 329.96 C 211.37 337.05 210.69 344.84 214.99 350.98 C 218.44 356.75 225.37 358.37 231.34 360.19 C 228.61 362.23 225.67 364.67 222.03 364.41 C 213.20 364.27 206.42 357.41 197.90 356.03 C 195.51 355.69 193.11 356.19 190.74 356.51 C 191.47 353.51 191.73 350.18 193.76 347.72 C 196.86 344.74 200.96 343.04 204.08 340.08 Z" fill="#fdba66" opacity="1.00" stroke="#fdba66" stroke-width="0.25" data-index="24" style="opacity: 1;"></path>
<path d="M 85.29 336.33 C 89.07 335.27 93.09 336.63 96.28 338.71 C 102.32 342.65 105.99 349.35 107.80 356.18 C 108.84 359.95 108.48 364.57 105.30 367.25 C 101.32 370.46 95.00 371.71 90.82 368.16 C 83.94 362.52 78.97 353.45 80.48 344.36 C 80.81 341.18 82.08 337.62 85.29 336.33 Z" fill="#854e47" opacity="1.00" stroke="#854e47" stroke-width="0.25" data-index="25" style="opacity: 1;"></path>
<path d="M 190.74 356.51 C 193.11 356.19 195.51 355.69 197.90 356.03 C 206.42 357.41 213.20 364.27 222.03 364.41 C 225.67 364.67 228.61 362.23 231.34 360.19 C 235.96 360.57 241.42 361.71 243.56 366.37 C 246.20 370.50 244.25 375.33 242.44 379.34 C 240.67 382.92 243.26 387.97 239.72 390.68 C 237.34 392.79 234.20 394.02 231.01 393.89 C 223.28 393.80 215.62 392.52 208.07 390.91 C 202.36 389.60 196.38 387.04 193.05 381.98 C 188.91 374.20 189.18 364.95 190.74 356.51 Z" fill="#e89249" opacity="1.00" stroke="#e89249" stroke-width="0.25" data-index="26" style="opacity: 1; display: block;"></path>
<path d="M319.06,132.11c7.53,-4.63 17.66,-5.85 25.68,-1.76c5.91,3.07 7.54,10.37 13.21,13.69c3.83,2.51 7.3,5.97 8.63,10.46c2.52,8.53 -0.54,18.11 -6.9,24.18c-5.79,5.71 -14.22,7.12 -21.94,8.3c-4.37,0.8 -8.99,0.21 -13.21,1.71c-10.16,5.77 -19.38,13.01 -28.04,20.8c-0.63,0.7 -1.22,1.42 -1.76,2.19c19.82,10.15 39.71,20.61 61.27,26.61c1.78,0.78 3.39,-0.61 4.91,-1.34c13.14,-7.03 24.78,-16.41 36.57,-25.42c1.29,-1.04 2.71,-1.98 3.68,-3.35c4.19,-8.97 1.38,-19.51 5.67,-28.44c3.02,-7.24 9.56,-13.03 17.19,-14.94c4.22,-0.82 8.83,0.24 12.09,3.09c1.92,1.78 3.06,4.22 4.85,6.11c3.77,0.94 8.05,1.15 10.93,4.12c4.34,3.92 3.66,10.42 6.99,14.96c4.21,6.33 5.12,14.36 3.71,21.73c-1.11,7.03 -4.78,14.04 -11.09,17.69c-7.13,4.27 -15.66,5.26 -23.82,4.93c-6.72,22.31 -12.8,44.84 -20.47,66.86c-7.11,18.64 -16.07,37.25 -30.67,51.23c-12.29,12.58 -28.25,20.58 -43.93,28.07c-27.23,12.97 -56.99,19 -85.05,29.78c-22.51,7.86 -45.06,16.52 -68.9,19.34c-19.58,2.45 -40.07,0.96 -58.28,-7.08c-12.73,-5.33 -23.76,-13.91 -33.88,-23.14c-11.26,-10.1 -19.93,-22.74 -26.9,-36.08c-5.71,-12.01 -10.27,-24.91 -10.44,-38.35c-0.73,-15.79 3.94,-31.45 11.97,-44.94c6.99,-11.37 15.04,-22.07 24.34,-31.65c5.27,-7.02 12.15,-12.57 19.01,-17.96c5.88,-4.67 12.2,-8.77 18.86,-12.23c3.1,-2.9 5.08,-6.82 8.07,-9.85c8.87,-10.8 20.39,-19.45 33.34,-24.72c9.97,-3.74 20.57,-5.66 31.18,-6.28c25.63,-0.98 51.17,-3.81 76.45,-8.12c10.47,-1.87 21.07,-4.23 30.52,-9.31c3.11,-1.42 3.08,-5.27 3.92,-8.12c1.93,-8.4 4.35,-17.97 12.24,-22.77z" id="path-4 1" fill="url(#grad-27)" fill-rule="nonzero" stroke="url(#grad-27)" stroke-width="0.25" stroke-linecap="butt" stroke-linejoin="miter" stroke-miterlimit="10" stroke-dasharray="" stroke-dashoffset="0" font-family="none" font-weight="none" font-size="none" text-anchor="none" style="mix-blend-mode: normal; opacity: 1; display: none;" data-index="27"></path><path d="M319.06,132.11c7.53,-4.63 17.66,-5.85 25.68,-1.76c5.91,3.07 7.54,10.37 13.21,13.69c3.83,2.51 7.3,5.97 8.63,10.46c2.52,8.53 -0.54,18.11 -6.9,24.18c-5.79,5.71 -14.22,7.12 -21.94,8.3c-4.37,0.8 -8.99,0.21 -13.21,1.71c-10.16,5.77 -19.38,13.01 -28.04,20.8c-0.63,0.7 -1.22,1.42 -1.76,2.19c19.82,10.15 39.71,20.61 61.27,26.61c1.78,0.78 3.39,-0.61 4.91,-1.34c13.14,-7.03 24.78,-16.41 36.57,-25.42c1.29,-1.04 2.71,-1.98 3.68,-3.35c4.19,-8.97 1.38,-19.51 5.67,-28.44c3.02,-7.24 9.56,-13.03 17.19,-14.94c4.22,-0.82 8.83,0.24 12.09,3.09c1.92,1.78 3.06,4.22 4.85,6.11c3.77,0.94 8.05,1.15 10.93,4.12c4.34,3.92 3.66,10.42 6.99,14.96c4.21,6.33 5.12,14.36 3.71,21.73c-1.11,7.03 -4.78,14.04 -11.09,17.69c-7.13,4.27 -15.66,5.26 -23.82,4.93c-6.72,22.31 -12.8,44.84 -20.47,66.86c-7.11,18.64 -16.07,37.25 -30.67,51.23c-12.29,12.58 -28.25,20.58 -43.93,28.07c-27.23,12.97 -56.99,19 -85.05,29.78c-22.51,7.86 -45.06,16.52 -68.9,19.34c-19.58,2.45 -40.07,0.96 -58.28,-7.08c-12.73,-5.33 -23.76,-13.91 -33.88,-23.14c-11.26,-10.1 -19.93,-22.74 -26.9,-36.08c-5.71,-12.01 -10.27,-24.91 -10.44,-38.35c-0.73,-15.79 3.94,-31.45 11.97,-44.94c6.99,-11.37 15.04,-22.07 24.34,-31.65c5.27,-7.02 12.15,-12.57 19.01,-17.96c5.88,-4.67 12.2,-8.77 18.86,-12.23c3.1,-2.9 5.08,-6.82 8.07,-9.85c8.87,-10.8 20.39,-19.45 33.34,-24.72c9.97,-3.74 20.57,-5.66 31.18,-6.28c25.63,-0.98 51.17,-3.81 76.45,-8.12c10.47,-1.87 21.07,-4.23 30.52,-9.31c3.11,-1.42 3.08,-5.27 3.92,-8.12c1.93,-8.4 4.35,-17.97 12.24,-22.77z" id="path-8 1" fill="url(#grad-28)" fill-rule="nonzero" stroke="url(#grad-28)" stroke-width="0.25" stroke-linecap="butt" stroke-linejoin="miter" stroke-miterlimit="10" stroke-dasharray="" stroke-dashoffset="0" font-family="none" font-weight="none" font-size="none" text-anchor="none" style="mix-blend-mode: normal; opacity: 1; display: none;" data-index="28"></path></svg>