<svg xmlns="http://www.w3.org/2000/svg" height="512pt" version="1.1" viewBox="0 0 512 512" width="512pt"><defs>
                <linearGradient id="grad-29" gradientTransform="rotate(11 0.5 0.5)">
                
                        <stop stop-color="#fdeacd" offset="0"></stop>
                    ,
                        <stop stop-color="#fdeacd" offset="0.25"></stop>
                    ,
                        <stop stop-color="#fdeacd" offset="0.5"></stop>
                    ,
                        <stop stop-color="#fdeacd" offset="0.75"></stop>
                    
                </linearGradient>
          </defs><defs>
                <linearGradient id="grad-28" gradientTransform="rotate(6 0.5 0.5)">
                
                        <stop stop-color="#fdeacd" offset="0"></stop>
                    ,
                        <stop stop-color="#fdeacd" offset="0.2"></stop>
                    ,
                        <stop stop-color="#fdeacd" offset="0.4"></stop>
                    ,
                        <stop stop-color="#fdeacd" offset="0.6"></stop>
                    ,
                        <stop stop-color="#ba603d" offset="0.8"></stop>
                    
                </linearGradient>
          </defs><defs>
                <linearGradient id="grad-27" gradientTransform="rotate(93 0.5 0.5)">
                
                        <stop stop-color="#fdeacd" offset="0"></stop>
                    ,
                        <stop stop-color="#fdeacd" offset="0.3333333333333333"></stop>
                    ,
                        <stop stop-color="#fdeacd" offset="0.6666666666666666"></stop>
                    
                </linearGradient>
          </defs><defs>
                <linearGradient id="grad-26" gradientTransform="rotate(76 0.5 0.5)">
                
                        <stop stop-color="#fdeacd" offset="0"></stop>
                    ,
                        <stop stop-color="#fdeacd" offset="0.5"></stop>
                    
                </linearGradient>
          </defs>

<path d="M 255.69 53.66 C 256.91 52.96 258.32 53.31 259.65 53.31 C 259.98 55.93 259.56 58.69 257.64 60.65 C 253.16 65.62 248.13 70.67 246.43 77.37 C 245.51 82.18 245.60 87.14 246.03 91.99 C 246.66 98.86 250.61 104.88 255.15 109.85 C 259.25 113.84 264.28 116.69 268.71 120.29 C 272.35 123.30 276.78 125.49 279.70 129.28 C 284.85 138.22 284.81 149.11 282.90 158.98 C 282.38 161.01 282.65 163.11 283.58 164.98 C 273.78 164.21 263.95 163.82 254.13 164.05 C 253.34 164.07 251.76 164.11 250.97 164.13 C 256.69 162.62 261.75 158.35 263.52 152.64 C 263.89 147.75 262.24 142.93 260.66 138.37 C 258.56 132.12 251.74 129.91 247.35 125.64 C 237.93 116.39 230.43 103.60 231.95 89.95 C 233.06 81.31 236.61 72.92 242.17 66.18 C 246.01 61.39 250.08 56.43 255.69 53.66 Z" fill="#e2f4fd" opacity="1.00" stroke="#e2f4fd" stroke-width="0.25" data-index="1"></path>
<path d="M 278.92 100.01 C 282.67 99.77 285.97 101.96 287.93 105.03 C 290.90 109.67 294.94 113.44 298.13 117.91 C 300.18 120.89 304.19 121.90 305.79 125.25 C 307.67 128.44 308.36 132.21 307.76 135.87 C 306.74 142.68 307.35 149.72 305.26 156.36 C 304.18 159.98 303.25 163.65 302.56 167.37 C 302.21 167.33 301.49 167.25 301.13 167.22 C 296.69 166.76 292.29 165.96 287.87 165.40 C 288.53 165.14 289.85 164.61 290.51 164.35 C 292.57 156.07 293.31 147.53 293.92 139.04 C 294.60 129.07 292.56 118.53 286.71 110.27 C 284.32 106.68 279.44 104.66 278.92 100.01 Z" fill="#e5f5fc" opacity="1.00" stroke="#e5f5fc" stroke-width="0.25" data-index="2"></path>
<path d="M 181.23 178.23 C 203.37 169.34 227.17 164.91 250.97 164.13 C 251.76 164.11 253.34 164.07 254.13 164.05 C 250.52 167.55 246.87 171.03 243.94 175.14 C 243.04 175.25 242.15 175.37 241.26 175.49 C 221.62 177.24 201.99 181.17 183.80 188.93 C 169.13 195.23 154.62 204.11 146.06 218.00 C 140.21 227.68 140.22 240.07 145.43 250.03 C 147.50 240.70 153.52 232.76 161.23 227.29 C 160.67 232.48 154.94 234.41 152.56 238.61 C 149.50 243.61 145.55 250.25 148.95 256.01 C 152.43 259.85 156.21 263.43 160.11 266.85 C 169.87 274.84 181.41 280.32 193.19 284.62 C 209.56 290.05 226.57 293.81 243.83 294.66 C 255.87 295.87 268.02 295.82 280.06 294.58 C 298.07 293.78 315.73 289.36 332.71 283.49 C 346.19 278.12 359.54 271.29 369.64 260.65 C 372.89 257.41 371.86 252.32 371.65 248.21 C 371.06 244.59 370.38 240.99 370.01 237.34 C 373.59 241.55 375.26 246.89 376.01 252.28 C 381.69 243.72 383.04 232.41 379.11 222.87 C 374.57 211.61 364.95 203.36 354.83 197.16 C 337.52 186.16 317.36 181.15 297.48 177.17 C 297.09 177.08 296.32 176.88 295.93 176.79 C 298.25 173.95 300.00 170.70 301.13 167.22 C 301.49 167.25 302.21 167.33 302.56 167.37 C 322.74 170.65 342.75 176.94 360.22 187.76 C 371.05 194.23 380.43 203.14 386.91 214.01 C 395.32 210.25 404.83 208.55 413.93 210.49 C 426.86 212.64 438.01 222.46 442.11 234.86 C 445.55 244.60 444.61 255.31 441.90 265.11 C 434.84 289.29 414.17 308.79 389.78 314.88 C 384.42 316.35 378.86 316.57 373.42 317.47 C 371.45 319.72 370.51 322.63 369.15 325.25 C 355.13 353.91 331.45 378.74 301.27 390.20 C 269.83 401.79 233.13 399.05 204.26 381.77 C 189.65 373.23 177.34 361.15 167.25 347.65 C 146.63 319.41 135.99 284.72 133.68 250.05 C 132.91 246.00 131.31 242.12 131.13 237.95 C 129.71 224.35 135.93 210.93 145.39 201.41 C 155.30 190.97 168.10 183.80 181.23 178.23 Z" fill="#05395d" opacity="1.00" stroke="#05395d" stroke-width="0.25" data-index="3" style="opacity: 1;"></path>
<path d="M 254.13 164.05 C 263.95 163.82 273.78 164.21 283.58 164.98 C 285.01 165.10 286.44 165.24 287.87 165.40 C 292.29 165.96 296.69 166.76 301.13 167.22 C 300.00 170.70 298.25 173.95 295.93 176.79 C 290.32 175.37 284.48 175.81 278.76 175.37 C 267.17 174.46 255.54 174.83 243.94 175.14 C 246.87 171.03 250.52 167.55 254.13 164.05 Z" fill="#c3dce8" opacity="1.00" stroke="#c3dce8" stroke-width="0.25" data-index="4"></path>
<path d="M 241.26 175.49 C 242.15 175.37 243.04 175.25 243.94 175.14 C 255.54 174.83 267.17 174.46 278.76 175.37 C 284.48 175.81 290.32 175.37 295.93 176.79 C 296.32 176.88 297.09 177.08 297.48 177.17 C 291.48 182.30 286.57 188.52 281.46 194.49 C 279.50 196.73 278.51 199.56 277.66 202.35 C 277.23 202.33 276.38 202.28 275.95 202.26 C 269.62 201.92 263.28 201.95 256.95 201.87 C 253.89 201.84 250.84 201.97 247.79 202.10 C 241.26 202.38 234.73 202.87 228.25 203.75 C 227.78 203.81 226.84 203.94 226.37 204.00 C 229.04 198.18 230.46 191.67 234.64 186.64 C 237.38 183.27 239.83 179.63 241.26 175.49 Z" fill="#eaf7fe" opacity="1.00" stroke="#eaf7fe" stroke-width="0.25" data-index="5"></path>
<path d="M 183.80 188.93 C 201.99 181.17 221.62 177.24 241.26 175.49 C 239.83 179.63 237.38 183.27 234.64 186.64 C 230.46 191.67 229.04 198.18 226.37 204.00 C 203.48 207.18 179.93 213.08 161.23 227.29 C 153.52 232.76 147.50 240.70 145.43 250.03 C 140.22 240.07 140.21 227.68 146.06 218.00 C 154.62 204.11 169.13 195.23 183.80 188.93 Z" fill="#fefefe" opacity="1.00" stroke="#fefefe" stroke-width="0.25" data-index="6"></path>
<path d="M 281.46 194.49 C 286.57 188.52 291.48 182.30 297.48 177.17 C 317.36 181.15 337.52 186.16 354.83 197.16 C 364.95 203.36 374.57 211.61 379.11 222.87 C 383.04 232.41 381.69 243.72 376.01 252.28 C 375.26 246.89 373.59 241.55 370.01 237.34 C 365.12 230.12 357.62 225.22 350.20 220.91 C 328.03 208.80 302.65 203.99 277.66 202.35 C 278.51 199.56 279.50 196.73 281.46 194.49 Z" fill="#fefffe" opacity="1.00" stroke="#fefffe" stroke-width="0.25" data-index="7" style="opacity: 1;"></path>
<path d="M 228.25 203.75 C 234.73 202.87 241.26 202.38 247.79 202.10 C 247.41 203.34 247.04 204.60 246.68 205.85 C 244.87 207.06 242.75 207.46 240.60 207.41 C 236.45 207.64 232.36 208.40 228.27 209.06 L 228.27 207.99 C 228.27 206.57 228.26 205.16 228.25 203.75 Z" fill="#c9dae2" opacity="1.00" stroke="#c9dae2" stroke-width="0.25" data-index="8"></path>
<path d="M 247.79 202.10 C 250.84 201.97 253.89 201.84 256.95 201.87 C 257.11 202.69 257.43 204.32 257.59 205.14 C 254.01 205.93 250.33 205.92 246.68 205.85 C 247.04 204.60 247.41 203.34 247.79 202.10 Z" fill="#113753" opacity="1.00" stroke="#113753" stroke-width="0.25" data-index="9"></path>
<path d="M 256.95 201.87 C 263.28 201.95 269.62 201.92 275.95 202.26 C 275.32 203.44 274.68 204.61 274.07 205.80 C 268.69 206.30 263.29 206.40 257.89 206.40 C 257.81 206.08 257.67 205.45 257.59 205.14 C 257.43 204.32 257.11 202.69 256.95 201.87 Z" fill="#c3d8e1" opacity="1.00" stroke="#c3d8e1" stroke-width="0.25" data-index="10"></path>
<path d="M 275.95 202.26 C 276.38 202.28 277.23 202.33 277.66 202.35 C 302.65 203.99 328.03 208.80 350.20 220.91 C 357.62 225.22 365.12 230.12 370.01 237.34 C 370.38 240.99 371.06 244.59 371.65 248.21 C 366.93 236.02 355.61 228.23 344.38 222.59 C 328.33 214.70 310.79 210.31 293.13 207.98 C 286.68 207.23 280.23 206.34 273.73 206.49 L 274.07 205.80 C 274.68 204.61 275.32 203.44 275.95 202.26 Z" fill="#0d3650" opacity="1.00" stroke="#0d3650" stroke-width="0.25" data-index="11" style="opacity: 1;"></path>
<path d="M 161.23 227.29 C 179.93 213.08 203.48 207.18 226.37 204.00 C 226.84 203.94 227.78 203.81 228.25 203.75 C 228.26 205.16 228.27 206.57 228.27 207.99 C 214.32 209.43 200.60 212.81 187.41 217.52 C 174.37 222.86 161.00 229.84 152.85 241.77 C 150.02 245.97 149.44 251.10 148.95 256.01 C 145.55 250.25 149.50 243.61 152.56 238.61 C 154.94 234.41 160.67 232.48 161.23 227.29 Z" fill="#0c3551" opacity="1.00" stroke="#0c3551" stroke-width="0.25" data-index="12"></path>
<path d="M 240.60 207.41 C 242.75 207.46 244.87 207.06 246.68 205.85 C 250.33 205.92 254.01 205.93 257.59 205.14 C 257.67 205.45 257.81 206.08 257.89 206.40 C 259.86 214.01 263.52 221.35 269.30 226.78 C 270.46 228.05 272.16 228.39 273.76 228.77 C 272.41 225.34 270.03 222.03 270.38 218.17 C 270.75 214.11 272.12 210.21 273.73 206.49 C 280.23 206.34 286.68 207.23 293.13 207.98 C 310.79 210.31 328.33 214.70 344.38 222.59 C 355.61 228.23 366.93 236.02 371.65 248.21 C 371.86 252.32 372.89 257.41 369.64 260.65 C 359.54 271.29 346.19 278.12 332.71 283.49 C 315.73 289.36 298.07 293.78 280.06 294.58 C 268.02 295.82 255.87 295.87 243.83 294.66 C 226.57 293.81 209.56 290.05 193.19 284.62 C 181.41 280.32 169.87 274.84 160.11 266.85 C 156.21 263.43 152.43 259.85 148.95 256.01 C 149.44 251.10 150.02 245.97 152.85 241.77 C 161.00 229.84 174.37 222.86 187.41 217.52 C 200.60 212.81 214.32 209.43 228.27 207.99 L 228.27 209.06 C 228.30 216.93 228.96 225.22 233.08 232.13 C 237.22 224.38 233.67 213.90 240.60 207.41 Z" fill="#ba603d" opacity="1.00" stroke="#ba603d" stroke-width="0.25" data-index="13" style="opacity: 1; display: block;"></path>
<path d="M 257.89 206.40 C 263.29 206.40 268.69 206.30 274.07 205.80 L 273.73 206.49 C 272.12 210.21 270.75 214.11 270.38 218.17 C 270.03 222.03 272.41 225.34 273.76 228.77 C 272.16 228.39 270.46 228.05 269.30 226.78 C 263.52 221.35 259.86 214.01 257.89 206.40 Z" fill="#e5d8d6" opacity="1.00" stroke="#e5d8d6" stroke-width="0.25" data-index="14"></path>
<path d="M 228.27 209.06 C 232.36 208.40 236.45 207.64 240.60 207.41 C 233.67 213.90 237.22 224.38 233.08 232.13 C 228.96 225.22 228.30 216.93 228.27 209.06 Z" fill="#e8d7d1" opacity="1.00" stroke="#e8d7d1" stroke-width="0.25" data-index="15"></path>
<path d="M 292.44 221.34 C 292.61 218.52 295.86 218.33 298.00 218.74 C 309.93 220.45 322.02 223.93 331.81 231.21 C 335.85 234.12 338.81 238.20 341.54 242.31 C 339.53 243.21 337.47 243.99 335.51 245.01 C 326.86 233.10 311.86 228.53 298.04 225.89 C 295.72 225.34 291.73 224.60 292.44 221.34 Z" fill="#fdeacd" opacity="1.00" stroke="#fdeacd" stroke-width="0.25" data-index="16" style="opacity: 1; display: none;"></path>
<path d="M 390.32 222.08 C 397.49 218.76 405.76 217.38 413.51 219.28 C 422.42 221.26 430.40 227.77 433.45 236.46 C 437.10 246.13 435.89 256.98 432.40 266.51 C 423.68 289.33 401.38 306.38 376.96 308.32 C 378.70 303.21 379.99 297.87 382.16 292.96 C 391.48 290.01 400.51 285.51 407.24 278.24 C 414.63 270.78 419.80 260.64 419.63 249.98 C 419.64 244.25 418.07 238.20 414.07 233.94 C 410.50 230.11 404.48 228.48 399.61 230.67 C 396.34 231.85 394.26 234.77 391.94 237.18 C 391.88 232.10 391.40 227.04 390.32 222.08 Z" fill="#fdfefe" opacity="1.00" stroke="#fdfefe" stroke-width="0.25" data-index="17"></path>
<path d="M 194.08 224.05 C 201.22 222.23 208.35 219.36 215.86 220.16 C 215.92 221.41 215.96 222.66 215.99 223.92 C 210.43 226.47 204.18 226.60 198.42 228.48 C 188.98 231.40 179.29 235.07 172.25 242.27 C 169.51 244.84 168.41 248.51 167.19 251.94 C 164.22 250.93 163.48 247.16 164.51 244.50 C 166.27 239.71 170.28 236.20 174.41 233.43 C 180.51 229.46 186.98 225.87 194.08 224.05 Z" fill="#764336" opacity="1.00" stroke="#764336" stroke-width="0.25" data-index="18"></path>
<path d="M 400.66 239.68 C 402.55 237.56 406.39 237.51 408.18 239.80 C 410.58 242.59 411.11 246.45 411.31 250.00 C 411.33 257.91 407.53 265.46 402.12 271.09 C 397.31 276.45 391.23 280.65 384.50 283.23 C 386.42 273.99 388.00 264.67 388.76 255.26 C 390.51 254.90 392.45 254.98 394.04 254.04 C 396.39 249.33 397.09 243.74 400.66 239.68 Z" fill="#fefefe" opacity="1.00" stroke="#fefefe" stroke-width="0.25" data-index="19"></path>
<path d="M 341.54 242.31 C 342.76 244.65 343.93 247.11 344.10 249.79 C 344.24 253.59 344.32 257.40 344.20 261.21 C 343.99 262.15 343.76 263.09 343.52 264.03 C 342.76 261.64 342.28 259.11 341.00 256.93 C 339.92 255.42 337.78 255.71 336.17 255.30 C 334.76 252.16 333.26 248.13 335.51 245.01 C 337.47 243.99 339.53 243.21 341.54 242.31 Z" fill="#fdb937" opacity="1.00" stroke="#fdb937" stroke-width="0.25" data-index="20" style="opacity: 1; visibility: visible; fill: rgb(253, 234, 205); display: none;"></path>
<path d="M 344.10 249.79 C 345.45 251.90 347.15 254.17 346.78 256.84 C 346.63 258.62 345.22 259.88 344.20 261.21 C 344.32 257.40 344.24 253.59 344.10 249.79 Z" fill="#de8d38" opacity="1.00" stroke="#de8d38" stroke-width="0.25" data-index="21" style="opacity: 1; visibility: visible; fill: rgb(253, 234, 205); display: none;"></path>
<path d="M 336.17 255.30 C 337.78 255.71 339.92 255.42 341.00 256.93 C 342.28 259.11 342.76 261.64 343.52 264.03 C 339.48 270.00 333.06 273.67 326.68 276.66 C 323.85 277.79 320.74 279.14 317.64 278.40 C 315.80 277.21 315.73 273.88 317.82 272.89 C 321.66 270.30 326.34 268.99 329.71 265.71 C 332.64 262.80 334.40 258.98 336.17 255.30 Z" fill="#fec312" opacity="1.00" stroke="#fec312" stroke-width="0.25" data-index="22" style="opacity: 1; visibility: visible; fill: rgb(253, 234, 205); display: none;"></path>
<path d="M 331.19 295.30 C 347.94 289.54 364.35 281.19 376.71 268.24 C 370.88 301.58 356.95 334.51 332.32 358.32 C 319.03 370.96 302.45 380.38 284.41 384.11 C 263.44 388.53 241.08 386.84 221.23 378.65 C 201.52 370.32 185.12 355.40 173.24 337.77 C 159.20 317.26 150.65 293.33 146.55 268.91 C 166.81 288.67 194.68 298.18 222.02 303.02 C 258.31 308.61 296.25 307.28 331.19 295.30 Z" fill="#ffffff" opacity="1.00" stroke="#ffffff" stroke-width="0.25" data-index="23" style="opacity: 1;"></path>

<path d="M 112.34 326.45 C 119.17 324.80 126.22 328.44 129.72 334.32 C 136.75 345.01 134.27 358.45 137.75 370.22 C 142.42 386.26 155.27 398.12 168.43 407.57 C 184.94 418.83 203.47 427.08 222.78 432.20 C 247.16 439.03 272.85 440.95 297.99 438.22 C 312.35 437.14 326.57 433.62 341.04 434.68 C 346.42 435.09 352.11 437.04 355.56 441.39 C 358.80 445.66 357.51 452.15 353.17 455.16 C 347.20 459.32 339.97 461.11 333.01 462.91 C 302.40 469.48 270.92 471.74 239.67 470.30 C 211.03 468.29 182.43 463.91 155.11 454.89 C 134.78 447.86 114.89 438.58 98.25 424.75 C 90.06 417.43 82.32 409.15 78.05 398.88 C 72.27 386.42 71.99 371.33 77.94 358.88 C 81.50 350.71 87.29 343.80 93.79 337.80 C 99.09 332.84 104.92 327.66 112.34 326.45 Z" fill="#97e9ff" opacity="1.00" stroke="#97e9ff" stroke-width="0.25" data-index="25" style="opacity: 1; visibility: hidden;"></path>
<path d="M292.44,221.34c0.17,-2.82 3.42,-3.01 5.56,-2.6c11.93,1.71 24.02,5.19 33.81,12.47c4.04,2.91 7,6.99 9.73,11.1c1.22,2.34 2.39,4.8 2.56,7.48c0.14,3.8 0.22,7.61 0.1,11.42c-0.21,0.94 -0.44,1.88 -0.68,2.82c-0.76,-2.39 -1.24,-4.92 -2.52,-7.1c-1.08,-1.51 -3.22,-1.22 -4.83,-1.63c-1.41,-3.14 -2.91,-7.17 -0.66,-10.29c-8.65,-11.91 -23.65,-16.48 -37.47,-19.12c-2.32,-0.55 -6.31,-1.29 -5.6,-4.55zM341.54,242.31c-2.01,0.9 -4.07,1.68 -6.03,2.7c1.96,-1.02 4.02,-1.8 6.03,-2.7z" id="path-16 1" fill="url(#grad-26)" fill-rule="nonzero" stroke="url(#grad-26)" stroke-width="0.25" stroke-linecap="butt" stroke-linejoin="miter" stroke-miterlimit="10" stroke-dasharray="" stroke-dashoffset="0" font-family="none" font-weight="none" font-size="none" text-anchor="none" style="mix-blend-mode: normal; opacity: 1; display: none;" data-index="26"></path><path d="M292.44,221.34c0.17,-2.82 3.42,-3.01 5.56,-2.6c11.93,1.71 24.02,5.19 33.81,12.47c4.04,2.91 7,6.99 9.73,11.1c1.22,2.34 2.39,4.8 2.56,7.48c0.14,3.8 0.22,7.61 0.1,11.42c-0.21,0.94 -0.44,1.88 -0.68,2.82c-4.04,5.97 -10.46,9.64 -16.84,12.63c-2.83,1.13 -5.94,2.48 -9.04,1.74c-1.84,-1.19 -1.91,-4.52 0.18,-5.51c3.84,-2.59 8.52,-3.9 11.89,-7.18c2.93,-2.91 4.69,-6.73 6.46,-10.41c-1.41,-3.14 -2.91,-7.17 -0.66,-10.29c-8.65,-11.91 -23.65,-16.48 -37.47,-19.12c-2.32,-0.55 -6.31,-1.29 -5.6,-4.55zM343.52,264.03c-0.76,-2.39 -1.24,-4.92 -2.52,-7.1c1.28,2.18 1.76,4.71 2.52,7.1z" fill="url(#grad-27)" fill-rule="nonzero" stroke="url(#grad-27)" stroke-width="0.25" stroke-linecap="butt" stroke-linejoin="miter" stroke-miterlimit="10" stroke-dasharray="" stroke-dashoffset="0" font-family="none" font-weight="none" font-size="none" text-anchor="none" style="mix-blend-mode: normal; opacity: 1; display: none;" data-index="27"></path><path d="M240.6,207.41c2.15,0.05 4.27,-0.35 6.08,-1.56c3.65,0.07 7.33,0.08 10.91,-0.71c0.08,0.31 0.22,0.94 0.3,1.26c1.97,7.61 5.63,14.95 11.41,20.38c1.16,1.27 2.86,1.61 4.46,1.99c-1.35,-3.43 -3.73,-6.74 -3.38,-10.6c0.37,-4.06 1.74,-7.96 3.35,-11.68c6.5,-0.15 12.95,0.74 19.4,1.49c17.66,2.33 35.2,6.72 51.25,14.61c11.23,5.64 22.55,13.43 27.27,25.62c0.21,4.11 1.24,9.2 -2.01,12.44c-10.1,10.64 -23.45,17.47 -36.93,22.84c-16.98,5.87 -34.64,10.29 -52.65,11.09c-12.04,1.24 -24.19,1.29 -36.23,0.08c-17.26,-0.85 -34.27,-4.61 -50.64,-10.04c-11.78,-4.3 -23.32,-9.78 -33.08,-17.77c-3.9,-3.42 -7.68,-7 -11.16,-10.84c0.49,-4.91 1.07,-10.04 3.9,-14.24c8.15,-11.93 21.52,-18.91 34.56,-24.25c13.19,-4.71 26.91,-8.09 40.86,-9.53v1.07c0.03,7.87 0.69,16.16 4.81,23.07c4.14,-7.75 0.59,-18.23 7.52,-24.72z" id="path-13 1" fill="url(#grad-28)" fill-rule="nonzero" stroke="url(#grad-28)" stroke-width="0.25" stroke-linecap="butt" stroke-linejoin="miter" stroke-miterlimit="10" stroke-dasharray="" stroke-dashoffset="0" font-family="none" font-weight="none" font-size="none" text-anchor="none" style="mix-blend-mode: normal; opacity: 1; display: none;" data-index="28"></path><path d="M292.44,221.34c0.17,-2.82 3.42,-3.01 5.56,-2.6c11.93,1.71 24.02,5.19 33.81,12.47c4.04,2.91 7,6.99 9.73,11.1c1.22,2.34 2.39,4.8 2.56,7.48c1.35,2.11 3.05,4.38 2.68,7.05c-0.15,1.78 -1.56,3.04 -2.58,4.37c-0.21,0.94 -0.44,1.88 -0.68,2.82c-4.04,5.97 -10.46,9.64 -16.84,12.63c-2.83,1.13 -5.94,2.48 -9.04,1.74c-1.84,-1.19 -1.91,-4.52 0.18,-5.51c3.84,-2.59 8.52,-3.9 11.89,-7.18c2.93,-2.91 4.69,-6.73 6.46,-10.41c-1.41,-3.14 -2.91,-7.17 -0.66,-10.29c-8.65,-11.91 -23.65,-16.48 -37.47,-19.12c-2.32,-0.55 -6.31,-1.29 -5.6,-4.55z" fill="url(#grad-29)" fill-rule="nonzero" stroke="url(#grad-29)" stroke-width="0.25" stroke-linecap="butt" stroke-linejoin="miter" stroke-miterlimit="10" stroke-dasharray="" stroke-dashoffset="0" font-family="none" font-weight="none" font-size="none" text-anchor="none" style="mix-blend-mode: normal; opacity: 1;" data-index="29"></path></svg>