<?xml version="1.0" encoding="utf-8"?>
<svg xmlns="http://www.w3.org/2000/svg" height="512pt" version="1.1" viewBox="0 0 512 512" width="512pt">
<path d="M 0.00 0.00 L 512.00 0.00 L 512.00 512.00 L 0.00 512.00 L 0.00 0.00 Z" fill="transparent" opacity="1.00" stroke="transparent" stroke-width="0.25"/>
<path d="M 313.15 32.16 C 314.27 30.90 315.98 31.49 317.40 31.67 C 317.22 38.68 313.25 44.91 309.93 50.86 C 307.55 53.94 305.52 57.27 303.15 60.35 C 303.62 58.45 304.10 56.56 304.76 54.72 C 304.92 54.42 305.24 53.82 305.40 53.51 C 308.34 48.59 310.83 43.41 312.72 37.99 C 309.92 41.98 307.00 45.89 303.72 49.51 C 279.97 78.39 259.45 110.03 244.12 144.18 C 242.38 148.75 238.03 153.31 240.29 158.43 C 242.87 166.05 244.81 173.85 246.91 181.61 C 247.20 181.12 247.76 180.16 248.04 179.68 C 248.38 180.40 249.05 181.85 249.38 182.57 C 249.52 182.88 249.79 183.51 249.93 183.82 C 246.27 186.61 247.00 191.60 248.95 195.19 C 249.18 195.30 249.64 195.52 249.87 195.63 C 249.87 196.11 249.85 197.08 249.84 197.56 C 249.94 200.76 250.71 203.87 251.49 206.96 L 251.61 207.44 C 252.12 210.38 252.52 213.33 252.89 216.29 C 253.02 216.96 253.27 218.30 253.40 218.96 L 254.07 219.42 C 254.36 219.61 254.94 220.00 255.22 220.20 C 255.30 221.46 255.38 222.74 255.42 224.02 C 255.43 224.39 255.46 225.15 255.47 225.53 C 255.49 228.40 255.74 231.26 255.99 234.13 C 256.19 236.29 256.38 238.47 256.94 240.59 C 257.22 241.83 257.52 243.08 257.81 244.32 C 257.87 244.57 257.99 245.07 258.05 245.32 C 258.50 248.65 258.96 251.98 259.74 255.26 C 259.78 255.44 259.86 255.79 259.90 255.97 C 259.97 257.57 260.01 259.17 260.05 260.78 C 259.93 261.40 259.70 262.64 259.58 263.26 L 258.46 265.06 C 255.08 242.98 251.34 220.94 246.85 199.05 C 245.98 194.80 244.90 190.60 243.63 186.46 C 237.55 158.30 225.51 130.70 205.03 109.99 C 200.35 105.49 195.58 101.05 190.46 97.05 C 190.55 97.48 190.74 98.35 190.84 98.78 C 196.58 105.53 199.19 114.20 203.53 121.82 C 205.33 127.30 207.53 132.65 209.05 138.23 C 217.76 168.81 217.41 201.42 211.56 232.50 C 210.39 232.01 209.21 231.51 208.04 231.02 C 209.25 226.06 210.51 221.09 211.02 216.00 C 212.66 192.67 212.09 168.99 206.91 146.10 C 203.37 130.79 196.85 116.38 189.43 102.60 C 187.06 98.70 184.89 94.67 183.28 90.38 C 182.01 86.93 179.34 83.71 179.80 79.86 C 182.47 78.33 183.87 81.24 184.96 83.14 C 187.44 87.42 189.84 92.03 194.10 94.82 C 203.15 101.26 211.69 108.58 218.62 117.31 C 227.03 126.83 232.67 138.33 237.96 149.77 C 240.81 141.81 245.19 134.53 248.82 126.92 C 254.55 115.81 260.68 104.91 267.40 94.37 C 278.31 77.28 291.07 61.48 303.59 45.56 C 307.02 41.27 309.37 36.17 313.15 32.16 Z" fill="#053551" opacity="1.00" stroke="#053551" stroke-width="0.25"/>
<path d="M 318.76 35.57 C 320.02 35.76 322.50 35.04 322.35 37.06 C 324.25 58.43 327.04 79.74 327.92 101.20 C 327.45 99.72 326.91 98.27 326.40 96.81 C 326.03 99.55 325.41 102.26 324.58 104.90 C 323.83 96.54 323.60 88.14 322.99 79.77 C 322.30 67.96 321.18 56.19 320.29 44.40 C 320.13 44.39 319.82 44.36 319.67 44.35 C 319.58 54.50 319.41 64.65 318.98 74.79 C 318.58 78.85 318.44 82.92 318.37 86.99 C 318.27 92.99 317.19 98.95 317.35 104.96 C 317.64 109.81 318.22 114.72 317.62 119.56 C 316.58 115.82 317.64 111.02 316.84 106.91 C 316.54 116.95 315.19 126.94 315.16 137.00 C 315.14 142.42 313.41 147.63 313.13 153.03 C 312.00 167.58 310.34 182.08 308.31 196.53 C 304.46 226.55 299.68 256.52 291.69 285.74 C 286.83 303.47 280.41 320.79 272.11 337.19 C 270.87 339.69 269.43 342.07 267.84 344.35 C 267.82 342.98 267.80 341.61 267.77 340.24 C 268.54 337.52 271.52 333.81 267.62 332.10 C 267.60 331.75 267.56 331.05 267.54 330.70 L 267.67 330.97 L 268.43 332.31 C 269.73 332.22 271.48 332.61 272.02 330.99 C 273.96 327.67 275.26 324.04 276.83 320.54 L 277.24 319.64 C 278.42 316.92 279.29 314.09 280.36 311.33 C 280.50 311.01 280.78 310.37 280.92 310.05 C 282.20 307.25 283.06 304.28 283.98 301.35 C 284.17 300.74 284.38 300.13 284.59 299.53 C 285.63 296.66 286.46 293.73 287.23 290.78 C 287.33 290.43 287.52 289.74 287.62 289.39 C 288.53 286.35 289.24 283.26 289.92 280.17 L 290.14 279.29 C 286.35 279.20 282.56 279.28 278.78 279.22 L 278.69 278.33 C 282.65 278.48 286.60 278.58 290.56 278.67 C 291.16 276.44 291.84 274.22 292.52 272.02 C 293.95 268.87 294.26 265.43 294.63 262.03 C 295.20 259.14 295.67 256.24 296.00 253.31 C 296.11 252.96 296.32 252.26 296.42 251.91 C 297.17 249.59 297.75 247.23 298.18 244.84 C 298.40 243.59 298.58 242.32 298.78 241.07 C 299.20 238.45 299.51 235.82 299.92 233.21 C 300.00 232.78 300.17 231.91 300.25 231.47 C 300.53 230.02 300.81 228.57 301.10 227.12 C 301.43 225.51 301.77 223.91 302.05 222.29 C 302.43 219.45 302.60 216.59 302.77 213.73 C 301.08 213.62 299.39 213.51 297.71 213.40 C 298.13 213.14 298.96 212.61 299.37 212.35 C 300.71 212.47 302.04 212.57 303.38 212.65 C 303.58 210.13 303.83 207.61 304.06 205.10 L 303.86 204.94 L 304.25 204.94 C 304.64 203.11 304.74 201.24 304.98 199.38 L 305.12 198.39 C 305.49 195.77 305.72 193.13 306.05 190.51 C 306.09 190.21 306.17 189.60 306.22 189.29 C 306.46 187.51 306.68 185.72 306.96 183.95 C 307.03 183.53 307.17 182.70 307.24 182.29 C 307.52 180.28 307.69 178.25 307.78 176.23 L 307.79 175.40 C 306.48 175.06 305.17 174.76 303.85 174.51 C 305.29 174.58 306.73 174.63 308.18 174.66 C 308.26 172.16 308.39 169.64 309.00 167.21 C 309.62 164.91 309.72 162.54 309.75 160.18 C 310.65 153.78 310.42 147.30 311.54 140.93 C 311.61 140.49 311.74 139.61 311.80 139.17 C 312.05 137.80 312.15 136.42 312.11 135.03 L 312.14 133.67 C 312.14 128.74 313.01 123.87 313.11 118.95 C 313.34 116.70 313.62 114.45 313.84 112.20 L 313.93 111.10 C 314.25 108.27 314.41 105.43 314.59 102.60 C 314.62 102.16 314.70 101.30 314.74 100.86 C 314.79 100.46 314.88 99.65 314.93 99.24 C 316.04 94.79 316.00 90.19 314.96 85.72 C 314.96 85.54 314.96 85.17 314.96 84.98 C 315.85 81.17 315.42 77.24 314.44 73.48 L 314.65 72.89 C 315.21 73.12 316.32 73.58 316.87 73.81 C 316.79 73.13 316.63 71.77 316.54 71.09 C 316.34 66.06 316.73 61.02 316.90 56.00 C 317.83 49.21 316.77 42.21 318.76 35.57 Z" fill="#0b343a" opacity="1.00" stroke="#0b343a" stroke-width="0.25"/>
<path d="M 303.72 49.51 C 307.00 45.89 309.92 41.98 312.72 37.99 C 310.83 43.41 308.34 48.59 305.40 53.51 C 305.49 52.18 305.55 50.84 305.62 49.51 C 305.14 49.51 304.19 49.51 303.72 49.51 Z" fill="#7ec96d" opacity="1.00" stroke="#7ec96d" stroke-width="0.25"/>
<path d="M 319.67 44.35 C 319.82 44.36 320.13 44.39 320.29 44.40 C 321.18 56.19 322.30 67.96 322.99 79.77 C 322.88 83.82 322.65 87.86 322.49 91.91 C 321.59 85.23 322.33 78.37 320.58 71.80 C 319.96 76.54 319.78 81.31 319.42 86.07 C 319.31 82.31 319.11 78.55 318.98 74.79 C 319.41 64.65 319.58 54.50 319.67 44.35 Z" fill="#7ec96d" opacity="1.00" stroke="#7ec96d" stroke-width="0.25"/>
<path d="M 303.72 49.51 C 304.19 49.51 305.14 49.51 305.62 49.51 C 305.55 50.84 305.49 52.18 305.40 53.51 C 305.24 53.82 304.92 54.42 304.76 54.72 C 303.56 56.90 302.35 59.08 301.16 61.26 C 299.08 64.78 297.23 68.44 295.39 72.09 C 285.15 91.40 275.88 111.21 267.54 131.41 C 261.23 147.57 254.67 163.64 248.04 179.68 C 247.76 180.16 247.20 181.12 246.91 181.61 C 244.81 173.85 242.87 166.05 240.29 158.43 C 238.03 153.31 242.38 148.75 244.12 144.18 C 259.45 110.03 279.97 78.39 303.72 49.51 Z" fill="#7ed340" opacity="1.00" stroke="#7ed340" stroke-width="0.25"/>
<path d="M 303.15 60.35 C 305.52 57.27 307.55 53.94 309.93 50.86 C 308.81 53.36 307.46 55.75 306.26 58.21 C 307.77 58.07 309.66 56.59 311.06 57.86 C 312.53 59.33 314.76 60.71 314.76 63.04 C 315.01 64.50 313.51 65.33 312.87 66.43 C 313.93 68.10 315.14 69.68 316.54 71.09 C 316.63 71.77 316.79 73.13 316.87 73.81 C 316.32 73.58 315.21 73.12 314.65 72.89 C 314.20 72.40 313.74 71.92 313.28 71.45 C 313.07 71.61 312.65 71.93 312.44 72.09 C 311.20 69.66 310.17 67.14 309.18 64.59 C 308.75 64.52 307.89 64.37 307.46 64.29 C 306.92 65.29 306.39 66.29 305.86 67.30 C 305.72 67.57 305.44 68.11 305.30 68.38 C 304.94 68.02 304.21 67.30 303.85 66.94 C 303.07 66.20 302.29 65.46 301.51 64.73 C 301.94 63.47 302.37 62.20 302.80 60.94 C 302.39 61.02 301.57 61.18 301.16 61.26 C 302.35 59.08 303.56 56.90 304.76 54.72 C 304.10 56.56 303.62 58.45 303.15 60.35 Z" fill="#033359" opacity="1.00" stroke="#033359" stroke-width="0.25"/>
<path d="M 301.16 61.26 C 301.57 61.18 302.39 61.02 302.80 60.94 C 302.37 62.20 301.94 63.47 301.51 64.73 C 302.29 65.46 303.07 66.20 303.85 66.94 L 302.76 67.01 C 302.10 67.27 301.46 67.58 300.84 67.92 C 300.41 68.18 299.57 68.70 299.14 68.96 C 299.00 69.58 298.72 70.81 298.58 71.42 C 298.51 71.66 298.37 72.15 298.30 72.39 C 297.33 72.29 296.35 72.19 295.39 72.09 C 297.23 68.44 299.08 64.78 301.16 61.26 Z" fill="#003939" opacity="1.00" stroke="#003939" stroke-width="0.25"/>
<path d="M 307.46 64.29 C 307.89 64.37 308.75 64.52 309.18 64.59 C 310.17 67.14 311.20 69.66 312.44 72.09 C 311.59 72.11 309.90 72.15 309.05 72.17 L 307.88 72.21 C 307.08 72.29 306.29 72.41 305.51 72.56 L 304.06 72.86 C 303.98 72.48 303.82 71.72 303.74 71.34 C 303.22 71.37 302.19 71.44 301.68 71.47 L 301.00 71.72 C 300.40 71.65 299.18 71.50 298.58 71.42 C 298.72 70.81 299.00 69.58 299.14 68.96 C 299.57 68.70 300.41 68.18 300.84 67.92 C 300.71 68.31 300.47 69.08 300.34 69.47 C 300.88 69.44 301.95 69.40 302.48 69.38 C 302.55 68.78 302.69 67.60 302.76 67.01 L 303.85 66.94 C 304.21 67.30 304.94 68.02 305.30 68.38 C 305.43 68.74 305.69 69.46 305.82 69.82 C 307.25 69.70 310.02 71.41 309.94 68.68 C 308.67 67.97 307.26 67.62 305.86 67.30 C 306.39 66.29 306.92 65.29 307.46 64.29 Z" fill="#1c372c" opacity="1.00" stroke="#1c372c" stroke-width="0.25"/>
<path d="M 300.84 67.92 C 301.46 67.58 302.10 67.27 302.76 67.01 C 302.69 67.60 302.55 68.78 302.48 69.38 C 301.95 69.40 300.88 69.44 300.34 69.47 C 300.47 69.08 300.71 68.31 300.84 67.92 Z" fill="#ffffff" opacity="1.00" stroke="#ffffff" stroke-width="0.25"/>
<path d="M 305.30 68.38 C 305.44 68.11 305.72 67.57 305.86 67.30 C 307.26 67.62 308.67 67.97 309.94 68.68 C 310.02 71.41 307.25 69.70 305.82 69.82 C 305.69 69.46 305.43 68.74 305.30 68.38 Z" fill="#e4c152" opacity="1.00" stroke="#e4c152" stroke-width="0.25"/>
<path d="M 298.30 72.39 C 298.37 72.15 298.51 71.66 298.58 71.42 C 299.18 71.50 300.40 71.65 301.00 71.72 C 299.54 73.92 298.27 76.44 295.66 77.48 C 296.63 75.83 297.54 74.15 298.30 72.39 Z" fill="#e4c152" opacity="1.00" stroke="#e4c152" stroke-width="0.25"/>
<path d="M 301.68 71.47 C 302.19 71.44 303.22 71.37 303.74 71.34 C 303.82 71.72 303.98 72.48 304.06 72.86 C 302.52 74.76 300.34 73.88 301.68 71.47 Z" fill="#a9a463" opacity="1.00" stroke="#a9a463" stroke-width="0.25"/>
<path d="M 313.28 71.45 C 313.74 71.92 314.20 72.40 314.65 72.89 L 314.44 73.48 C 312.70 76.82 312.73 80.82 314.44 84.17 C 311.19 85.71 308.32 87.92 305.05 89.39 C 302.71 88.98 300.88 87.37 298.97 86.09 C 299.44 83.77 299.79 81.42 300.05 79.07 C 300.46 77.93 301.66 76.67 301.04 75.41 C 299.74 75.46 299.15 77.03 298.81 78.07 C 297.77 80.55 297.94 83.24 298.37 85.84 C 297.29 85.60 296.20 85.41 295.11 85.25 C 294.14 87.12 293.66 89.18 293.06 91.19 C 296.01 92.43 298.97 93.67 301.95 94.86 C 302.59 93.84 303.23 92.82 303.88 91.80 C 304.60 92.59 305.32 93.38 306.04 94.17 C 309.29 94.00 312.20 92.63 314.73 90.66 C 314.81 89.01 314.87 87.36 314.96 85.72 C 316.00 90.19 316.04 94.79 314.93 99.24 C 313.53 98.40 312.48 98.62 311.78 99.92 C 312.34 101.24 313.33 101.55 314.74 100.86 C 314.70 101.30 314.62 102.16 314.59 102.60 C 313.00 102.74 311.41 102.89 309.83 103.07 C 310.18 100.43 310.49 97.79 310.77 95.14 C 308.21 95.41 305.39 94.93 303.04 96.14 C 302.28 97.81 302.08 99.65 301.83 101.44 C 302.41 101.72 303.55 102.29 304.12 102.58 C 304.27 102.89 304.56 103.51 304.71 103.82 C 303.53 103.56 302.35 103.31 301.18 103.06 C 301.03 104.97 300.18 106.98 300.78 108.87 C 303.38 111.58 307.14 109.98 310.25 109.40 C 311.48 109.95 312.71 110.50 313.93 111.10 L 313.84 112.20 C 311.55 111.97 309.28 111.63 306.98 111.66 C 305.57 113.41 305.47 115.81 305.08 117.95 C 304.99 119.38 304.27 121.19 305.70 122.22 C 307.03 122.84 308.45 123.19 309.83 123.69 C 310.73 124.06 311.63 124.43 312.53 124.81 C 309.55 124.63 306.58 124.25 303.59 124.08 C 305.14 127.37 308.81 128.09 312.03 128.72 C 311.87 128.98 311.56 129.50 311.41 129.76 C 309.04 128.89 306.55 128.40 304.03 128.29 C 303.90 129.98 303.79 131.68 303.69 133.38 C 305.16 133.44 306.63 133.50 308.10 133.55 C 308.62 133.57 309.64 133.61 310.15 133.63 C 310.65 133.64 311.64 133.66 312.14 133.67 L 312.11 135.03 L 311.58 134.95 C 309.36 134.55 307.13 134.30 304.88 134.29 C 304.44 134.47 303.55 134.83 303.11 135.00 C 303.08 136.30 303.07 137.60 303.08 138.90 C 304.80 139.04 306.51 139.17 308.24 139.24 C 309.00 139.23 310.52 139.20 311.28 139.19 L 311.80 139.17 C 311.74 139.61 311.61 140.49 311.54 140.93 C 308.61 140.67 305.69 140.42 302.78 140.12 C 302.34 141.49 301.90 142.86 301.45 144.23 C 304.49 144.68 308.00 144.34 310.45 146.55 C 307.71 146.14 305.02 145.49 302.31 144.93 C 302.12 146.63 301.94 148.33 301.76 150.04 C 304.25 150.68 308.09 149.91 309.73 151.80 C 306.74 152.39 303.70 151.97 300.70 151.74 C 300.31 153.97 299.75 156.19 299.64 158.47 C 300.90 159.45 302.57 159.55 304.09 159.84 C 305.60 160.01 307.13 160.12 308.66 160.18 L 309.75 160.18 C 309.72 162.54 309.62 164.91 309.00 167.21 C 309.15 165.21 309.19 163.22 309.24 161.22 C 305.97 161.02 302.70 160.90 299.43 161.04 C 299.00 163.27 298.58 165.50 298.17 167.73 C 301.44 168.07 305.04 167.61 307.96 169.46 C 304.78 169.57 301.60 169.37 298.43 169.29 C 298.35 170.82 298.27 172.35 298.19 173.89 C 300.07 174.10 301.96 174.30 303.85 174.51 C 305.17 174.76 306.48 175.06 307.79 175.40 L 307.78 176.23 C 304.50 175.94 301.22 175.59 297.96 175.18 C 297.64 177.41 297.34 179.63 297.05 181.86 C 300.43 182.14 303.83 182.25 307.24 182.29 C 307.17 182.70 307.03 183.53 306.96 183.95 C 303.36 183.82 299.79 183.16 296.19 183.20 C 295.49 184.84 295.19 186.66 295.57 188.42 C 299.07 189.10 302.66 189.09 306.22 189.29 C 306.17 189.60 306.09 190.21 306.05 190.51 C 302.92 190.40 299.81 190.08 296.69 190.16 C 296.17 190.30 295.13 190.58 294.62 190.72 C 294.44 192.93 294.26 195.14 294.13 197.35 C 297.77 197.91 301.44 198.27 305.12 198.39 L 304.98 199.38 C 300.98 199.31 296.98 199.15 292.98 199.23 C 293.23 200.18 293.48 201.13 293.75 202.08 C 293.95 202.67 294.34 203.85 294.54 204.44 C 297.64 204.63 300.76 204.61 303.86 204.94 L 304.06 205.10 C 300.59 206.65 296.71 205.71 293.05 205.75 C 292.24 203.14 291.48 199.87 288.05 199.88 L 288.78 199.04 L 288.86 198.95 C 289.50 198.66 290.77 198.07 291.40 197.78 C 292.34 192.88 293.97 188.02 293.97 183.01 C 290.09 180.74 285.09 182.00 281.44 179.44 C 285.97 179.33 290.36 180.68 294.87 180.85 C 296.33 179.31 296.08 176.77 296.72 174.80 C 292.48 172.82 287.66 172.72 283.07 172.65 C 281.23 174.53 279.99 177.33 281.18 179.90 C 280.03 181.77 278.94 183.68 277.94 185.63 L 277.73 186.09 C 276.62 188.99 278.21 191.75 279.63 194.21 C 280.36 195.57 281.14 196.90 281.89 198.26 C 281.01 197.64 280.16 196.98 279.35 196.27 C 278.96 195.78 278.16 194.80 277.76 194.30 C 275.01 196.59 275.02 200.10 276.40 203.14 L 276.95 204.62 C 276.50 204.45 275.60 204.10 275.15 203.93 C 274.96 203.38 274.58 202.30 274.39 201.75 C 274.32 201.30 274.19 200.41 274.12 199.96 C 274.04 199.35 273.89 198.12 273.81 197.51 C 270.03 196.95 266.28 196.22 262.56 195.33 C 260.44 197.17 260.11 200.02 261.62 202.40 C 262.76 202.87 263.94 203.24 265.15 203.53 C 267.30 203.95 269.46 204.29 271.62 204.69 C 276.35 205.60 281.15 206.21 285.87 207.24 C 287.47 207.57 289.10 207.81 290.74 207.94 L 291.95 206.65 L 292.70 206.71 C 292.47 207.59 292.01 209.36 291.78 210.24 C 294.20 211.29 296.74 212.05 299.37 212.35 C 298.96 212.61 298.13 213.14 297.71 213.40 C 295.55 213.28 293.38 213.01 291.22 213.25 C 290.20 215.73 288.73 219.05 290.51 221.46 C 294.31 222.17 298.20 222.06 302.05 222.29 C 301.77 223.91 301.43 225.51 301.10 227.12 C 301.20 226.33 301.41 224.75 301.51 223.95 L 300.63 223.88 C 296.89 223.35 293.09 222.72 289.32 223.30 C 288.14 225.63 289.01 228.16 289.49 230.55 C 293.08 230.74 296.67 231.08 300.25 231.47 C 300.17 231.91 300.00 232.78 299.92 233.21 C 296.97 232.76 294.04 232.27 291.07 232.06 C 290.62 232.07 289.72 232.08 289.27 232.09 C 287.88 234.23 286.70 236.50 285.59 238.80 C 287.03 239.02 288.47 239.25 289.91 239.47 C 292.88 239.94 295.83 240.50 298.78 241.07 C 298.58 242.32 298.40 243.59 298.18 244.84 C 298.13 244.35 298.03 243.38 297.98 242.89 C 294.31 241.27 290.22 241.17 286.27 241.06 C 285.27 243.71 283.15 246.96 285.45 249.56 C 288.57 251.80 292.78 251.35 296.42 251.91 C 296.32 252.26 296.11 252.96 296.00 253.31 C 292.31 253.48 288.72 252.55 285.07 252.22 C 281.78 253.10 280.22 256.51 281.37 259.67 C 285.78 260.47 290.29 260.79 294.63 262.03 C 294.26 265.43 293.95 268.87 292.52 272.02 L 292.19 270.86 C 288.10 270.00 283.96 269.53 279.81 269.14 C 278.82 272.09 278.36 275.21 278.69 278.33 L 278.78 279.22 C 282.56 279.28 286.35 279.20 290.14 279.29 L 289.92 280.17 C 286.15 280.24 282.20 279.31 278.56 280.56 C 276.04 282.12 275.83 285.25 277.28 287.63 C 280.27 289.76 284.17 289.13 287.62 289.39 C 287.52 289.74 287.33 290.43 287.23 290.78 C 284.16 290.50 281.10 289.99 278.02 290.04 C 275.34 291.71 276.09 295.22 275.99 297.88 C 278.81 298.63 281.69 299.17 284.59 299.53 C 284.38 300.13 284.17 300.74 283.98 301.35 C 281.19 300.64 278.41 299.93 275.64 299.19 C 274.49 300.72 273.21 302.19 272.43 303.97 C 272.50 305.58 272.81 307.17 273.06 308.77 C 275.68 309.21 278.30 309.64 280.92 310.05 C 280.78 310.37 280.50 311.01 280.36 311.33 C 277.07 311.15 273.06 309.65 270.46 312.50 C 268.48 314.02 270.19 316.55 270.34 318.52 C 272.64 318.89 274.93 319.27 277.24 319.64 L 276.83 320.54 C 276.35 320.52 275.38 320.48 274.89 320.47 C 273.70 320.38 272.51 320.29 271.32 320.20 C 269.31 323.48 266.36 326.80 267.67 330.97 L 267.54 330.70 C 266.59 324.54 265.12 318.42 265.86 312.14 C 266.38 312.36 267.42 312.79 267.94 313.01 C 269.25 311.69 270.56 310.37 271.87 309.06 C 271.49 307.77 271.11 306.48 270.74 305.19 C 269.09 304.89 267.44 304.60 265.79 304.31 C 265.78 306.29 265.78 308.27 265.82 310.25 C 265.64 307.72 265.58 305.19 265.51 302.66 C 267.10 302.95 268.68 303.26 270.27 303.59 C 271.99 301.46 273.57 299.19 274.44 296.57 L 274.80 295.68 C 274.53 295.25 273.99 294.38 273.72 293.95 L 273.44 293.55 C 270.72 293.26 267.98 293.23 265.25 293.16 C 265.31 296.15 265.31 299.14 265.46 302.13 C 263.42 298.67 264.27 294.63 264.45 290.86 C 267.96 290.75 271.48 290.67 274.99 290.63 C 275.42 288.33 276.16 285.61 274.26 283.74 C 270.85 282.50 267.20 282.15 263.66 281.47 C 263.64 281.03 263.61 280.14 263.59 279.70 C 267.72 280.31 271.79 281.21 275.89 281.97 C 276.63 279.18 277.23 276.36 277.76 273.52 C 272.96 271.47 267.70 271.65 262.62 272.16 C 262.65 274.16 262.70 276.16 262.74 278.17 C 261.83 273.14 263.03 267.57 259.58 263.26 C 259.70 262.64 259.93 261.40 260.05 260.78 C 260.54 262.28 261.39 263.61 262.60 264.66 C 262.64 261.53 262.14 258.32 259.90 255.97 C 259.86 255.79 259.78 255.44 259.74 255.26 C 261.08 255.27 262.43 255.29 263.77 255.34 C 263.35 257.54 263.44 259.79 263.87 261.99 C 266.71 262.12 269.55 262.18 272.39 262.33 L 272.72 262.39 C 275.04 262.61 278.20 264.46 279.70 261.77 C 280.05 259.36 280.37 256.12 278.11 254.51 C 274.31 253.36 270.45 252.37 266.50 251.96 C 266.32 252.34 265.94 253.11 265.76 253.49 C 265.26 253.95 264.27 254.88 263.77 255.34 C 264.79 252.74 265.56 250.01 265.04 247.20 C 264.41 247.04 263.15 246.71 262.52 246.55 C 261.80 246.37 260.37 245.99 259.65 245.80 C 259.25 245.68 258.45 245.44 258.05 245.32 C 257.99 245.07 257.87 244.57 257.81 244.32 C 258.61 244.29 260.19 244.24 260.98 244.21 C 262.07 245.31 264.26 246.19 265.32 244.56 C 266.97 243.05 267.11 240.71 267.70 238.69 C 264.06 237.77 260.42 236.87 256.77 236.01 C 256.81 237.53 256.86 239.06 256.94 240.59 C 256.38 238.47 256.19 236.29 255.99 234.13 C 259.63 235.02 263.21 236.49 267.00 236.53 C 270.59 235.86 269.68 231.99 269.73 229.34 C 264.89 228.42 260.00 227.54 255.47 225.53 C 255.46 225.15 255.43 224.39 255.42 224.02 C 259.77 225.44 264.33 228.04 269.02 226.81 C 272.28 225.66 271.31 221.89 270.88 219.28 C 266.97 218.35 263.05 217.15 258.99 217.23 C 257.11 217.05 256.32 219.07 255.22 220.20 C 254.94 220.00 254.36 219.61 254.07 219.42 C 254.33 219.15 254.83 218.60 255.09 218.32 C 256.36 215.51 256.37 212.22 255.47 209.30 C 254.62 208.12 252.77 208.17 251.61 207.44 L 251.49 206.96 C 254.01 206.80 256.96 206.91 258.46 204.46 C 260.19 203.09 259.34 200.90 259.17 199.09 C 256.06 198.53 252.95 198.01 249.84 197.56 C 249.85 197.08 249.87 196.11 249.87 195.63 C 252.90 196.23 255.97 196.80 259.07 196.79 C 262.16 194.99 261.37 191.56 260.43 188.77 C 256.77 187.76 253.15 186.67 249.56 185.45 C 246.81 188.14 248.61 191.92 248.95 195.19 C 247.00 191.60 246.27 186.61 249.93 183.82 C 252.04 184.45 254.18 185.01 256.30 185.64 C 256.72 185.82 257.55 186.17 257.97 186.35 C 258.99 186.71 260.02 187.06 261.07 187.39 C 262.29 185.16 262.61 182.69 262.18 180.20 C 260.75 180.02 259.33 179.83 257.92 179.62 L 257.41 179.53 C 255.77 179.18 254.14 178.75 252.52 178.35 L 252.32 176.88 C 253.15 177.05 254.80 177.37 255.63 177.54 C 258.65 178.12 262.14 179.24 264.62 176.74 C 264.99 175.21 265.31 173.63 265.11 172.06 C 261.98 170.48 258.52 169.69 255.38 168.14 L 255.79 167.09 C 259.21 168.25 262.71 169.13 266.26 169.80 C 266.80 167.31 267.18 164.79 267.41 162.25 C 264.44 161.66 261.50 160.95 258.59 160.11 L 259.11 158.89 C 262.52 159.21 266.93 161.90 269.54 158.45 C 269.91 156.68 269.10 154.91 268.83 153.18 C 267.25 152.93 265.68 152.69 264.10 152.44 C 263.67 152.10 262.80 151.41 262.36 151.06 C 264.44 151.18 266.52 151.38 268.61 151.42 C 268.86 151.11 269.37 150.49 269.63 150.18 C 269.81 149.91 270.16 149.38 270.33 149.11 C 271.00 147.76 271.60 146.37 272.21 145.00 C 272.43 145.22 272.87 145.65 273.09 145.87 C 272.73 147.41 272.38 148.95 272.04 150.50 C 276.10 151.09 280.15 151.77 284.13 152.79 C 286.05 150.81 285.54 148.06 285.39 145.57 C 282.18 145.06 278.95 144.71 275.71 144.47 C 274.55 143.58 273.81 142.31 273.01 141.12 C 273.57 139.00 274.03 136.87 274.55 134.74 C 274.17 134.32 273.41 133.47 273.03 133.04 L 272.42 132.38 C 273.04 132.24 274.27 131.95 274.88 131.81 C 275.53 130.02 276.08 128.19 276.52 126.35 C 276.11 126.16 275.28 125.79 274.86 125.60 C 275.38 125.50 276.43 125.29 276.96 125.19 L 277.10 124.50 C 277.38 122.92 277.59 121.34 277.87 119.77 L 278.18 118.70 C 278.82 116.53 279.46 114.36 280.20 112.23 C 281.23 111.90 282.29 111.64 283.36 111.41 C 286.87 110.54 291.89 112.76 293.93 108.80 C 294.60 107.49 294.44 105.93 294.68 104.51 C 292.41 103.14 289.70 99.45 286.95 101.95 C 285.15 104.46 284.23 107.47 283.13 110.33 L 281.80 109.62 C 283.15 106.69 284.11 103.61 285.16 100.57 C 286.32 99.74 288.42 99.62 288.64 97.91 C 289.25 96.27 288.20 94.82 287.37 93.52 C 287.51 93.45 287.80 93.33 287.94 93.27 C 290.69 92.88 291.85 90.67 292.30 88.17 C 292.85 87.07 293.48 86.00 294.18 84.98 C 296.02 82.98 297.33 80.12 295.51 77.65 C 295.55 77.61 295.62 77.52 295.66 77.48 C 298.27 76.44 299.54 73.92 301.00 71.72 L 301.68 71.47 C 300.34 73.88 302.52 74.76 304.06 72.86 L 305.51 72.56 C 304.45 73.94 303.42 75.35 302.44 76.79 C 302.29 77.33 301.98 78.42 301.83 78.97 C 301.47 81.17 301.38 83.41 301.26 85.65 C 302.04 86.26 302.84 86.86 303.64 87.45 C 304.93 88.16 306.27 87.11 307.50 86.78 C 310.73 83.66 309.22 78.86 308.13 75.13 L 308.05 74.19 C 308.01 73.70 307.92 72.71 307.88 72.21 L 309.05 72.17 C 309.59 74.17 310.05 76.18 310.58 78.19 C 311.45 76.23 311.98 74.17 312.44 72.09 C 312.65 71.93 313.07 71.61 313.28 71.45 Z" fill="#524007" opacity="1.00" stroke="#524007" stroke-width="0.25"/>
<path d="M 267.54 131.41 C 275.88 111.21 285.15 91.40 295.39 72.09 C 296.35 72.19 297.33 72.29 298.30 72.39 C 297.54 74.15 296.63 75.83 295.66 77.48 C 295.62 77.52 295.55 77.61 295.51 77.65 C 293.65 79.50 292.55 81.92 292.18 84.51 L 294.18 84.98 C 293.48 86.00 292.85 87.07 292.30 88.17 C 292.33 87.34 292.39 85.69 292.42 84.86 C 289.42 86.65 288.73 90.16 287.94 93.27 C 287.80 93.33 287.51 93.45 287.37 93.52 C 285.63 95.53 284.90 98.13 284.12 100.62 C 282.09 103.52 280.72 106.79 279.56 110.12 C 280.12 109.99 281.24 109.75 281.80 109.62 L 283.13 110.33 L 283.36 111.41 C 282.29 111.64 281.23 111.90 280.20 112.23 C 277.05 112.59 276.79 116.40 275.40 118.62 C 276.10 118.64 277.49 118.68 278.18 118.70 L 277.87 119.77 C 276.75 120.03 275.62 120.28 274.50 120.53 C 274.08 121.75 273.68 122.98 273.27 124.21 C 274.23 124.28 276.15 124.43 277.10 124.50 L 276.96 125.19 C 276.43 125.29 275.38 125.50 274.86 125.60 C 274.35 125.58 273.33 125.54 272.82 125.52 C 271.98 127.09 271.15 128.66 270.31 130.23 C 271.01 130.95 271.72 131.66 272.42 132.38 L 273.03 133.04 C 272.20 132.88 270.55 132.54 269.72 132.38 C 268.17 135.62 266.95 139.00 266.02 142.47 C 268.42 142.69 272.15 144.53 273.01 141.12 C 273.81 142.31 274.55 143.58 275.71 144.47 C 275.18 144.45 274.11 144.39 273.58 144.37 C 273.46 144.74 273.21 145.49 273.09 145.87 C 272.87 145.65 272.43 145.22 272.21 145.00 C 270.02 144.47 267.81 144.08 265.60 143.66 C 264.32 146.03 263.18 148.49 262.36 151.06 C 262.80 151.41 263.67 152.10 264.10 152.44 C 263.51 152.37 262.32 152.23 261.73 152.16 C 260.86 154.41 260.02 156.66 259.11 158.89 L 258.59 160.11 C 257.61 162.42 256.69 164.75 255.79 167.09 L 255.38 168.14 C 255.00 169.03 254.59 169.91 254.21 170.81 L 253.84 171.73 C 253.17 173.40 252.58 175.10 252.32 176.88 L 252.52 178.35 C 252.29 178.39 251.82 178.48 251.59 178.52 C 250.81 179.85 250.10 181.21 249.38 182.57 C 249.05 181.85 248.38 180.40 248.04 179.68 C 254.67 163.64 261.23 147.57 267.54 131.41 Z" fill="#1c372c" opacity="1.00" stroke="#1c372c" stroke-width="0.25"/>
<path d="M 305.51 72.56 C 306.29 72.41 307.08 72.29 307.88 72.21 C 307.92 72.71 308.01 73.70 308.05 74.19 C 306.16 75.02 304.29 75.89 302.44 76.79 C 303.42 75.35 304.45 73.94 305.51 72.56 Z" fill="#e4c152" opacity="1.00" stroke="#e4c152" stroke-width="0.25"/>
<path d="M 309.05 72.17 C 309.90 72.15 311.59 72.11 312.44 72.09 C 311.98 74.17 311.45 76.23 310.58 78.19 C 310.05 76.18 309.59 74.17 309.05 72.17 Z" fill="#d1ad49" opacity="1.00" stroke="#d1ad49" stroke-width="0.25"/>
<path d="M 320.58 71.80 C 322.33 78.37 321.59 85.23 322.49 91.91 C 322.65 87.86 322.88 83.82 322.99 79.77 C 323.60 88.14 323.83 96.54 324.58 104.90 C 324.73 122.27 324.87 139.65 324.41 157.03 C 323.69 173.35 323.02 189.68 322.02 205.99 C 320.51 223.67 319.90 241.44 317.12 258.99 C 314.30 278.56 310.96 298.15 304.95 317.02 C 300.92 331.19 294.40 344.69 285.49 356.44 C 279.47 363.56 272.29 370.35 263.15 373.09 C 266.96 364.01 267.64 354.08 267.84 344.35 C 269.43 342.07 270.87 339.69 272.11 337.19 C 280.41 320.79 286.83 303.47 291.69 285.74 C 299.68 256.52 304.46 226.55 308.31 196.53 C 310.34 182.08 312.00 167.58 313.13 153.03 C 313.41 147.63 315.14 142.42 315.16 137.00 C 315.19 126.94 316.54 116.95 316.84 106.91 C 317.64 111.02 316.58 115.82 317.62 119.56 C 318.22 114.72 317.64 109.81 317.35 104.96 C 317.19 98.95 318.27 92.99 318.37 86.99 C 318.44 82.92 318.58 78.85 318.98 74.79 C 319.11 78.55 319.31 82.31 319.42 86.07 C 319.78 81.31 319.96 76.54 320.58 71.80 Z" fill="#7fd441" opacity="1.00" stroke="#7fd441" stroke-width="0.25"/>
<path d="M 302.44 76.79 C 304.29 75.89 306.16 75.02 308.05 74.19 L 308.13 75.13 C 307.82 79.01 307.54 82.89 307.50 86.78 C 306.27 87.11 304.93 88.16 303.64 87.45 C 301.32 85.22 301.55 81.91 301.83 78.97 C 301.98 78.42 302.29 77.33 302.44 76.79 Z" fill="#fdbb11" opacity="1.00" stroke="#fdbb11" stroke-width="0.25"/>
<path d="M 314.44 84.17 C 312.73 80.82 312.70 76.82 314.44 73.48 C 315.42 77.24 315.85 81.17 314.96 84.98 C 314.96 85.17 314.96 85.54 314.96 85.72 C 314.87 87.36 314.81 89.01 314.73 90.66 C 312.20 92.63 309.29 94.00 306.04 94.17 C 305.32 93.38 304.60 92.59 303.88 91.80 C 303.23 92.82 302.59 93.84 301.95 94.86 C 298.97 93.67 296.01 92.43 293.06 91.19 C 293.66 89.18 294.14 87.12 295.11 85.25 C 296.20 85.41 297.29 85.60 298.37 85.84 C 297.94 83.24 297.77 80.55 298.81 78.07 C 299.12 78.32 299.74 78.82 300.05 79.07 C 299.79 81.42 299.44 83.77 298.97 86.09 C 300.88 87.37 302.71 88.98 305.05 89.39 C 308.32 87.92 311.19 85.71 314.44 84.17 Z" fill="#e4c152" opacity="1.00" stroke="#e4c152" stroke-width="0.25"/>
<path d="M 298.81 78.07 C 299.15 77.03 299.74 75.46 301.04 75.41 C 301.66 76.67 300.46 77.93 300.05 79.07 C 299.74 78.82 299.12 78.32 298.81 78.07 Z" fill="#ffffff" opacity="1.00" stroke="#ffffff" stroke-width="0.25"/>
<path d="M 308.13 75.13 C 309.22 78.86 310.73 83.66 307.50 86.78 C 307.54 82.89 307.82 79.01 308.13 75.13 Z" fill="#e3bf49" opacity="1.00" stroke="#e3bf49" stroke-width="0.25"/>
<path d="M 292.18 84.51 C 292.55 81.92 293.65 79.50 295.51 77.65 C 297.33 80.12 296.02 82.98 294.18 84.98 L 292.18 84.51 Z" fill="#e4c152" opacity="1.00" stroke="#e4c152" stroke-width="0.25"/>
<path d="M 311.08 78.31 C 312.62 79.12 312.22 82.22 311.69 83.74 C 310.31 82.85 310.49 79.83 311.08 78.31 Z" fill="#c5b260" opacity="1.00" stroke="#c5b260" stroke-width="0.25"/>
<path d="M 301.26 85.65 C 301.38 83.41 301.47 81.17 301.83 78.97 C 301.55 81.91 301.32 85.22 303.64 87.45 C 302.84 86.86 302.04 86.26 301.26 85.65 Z" fill="#ffffff" opacity="1.00" stroke="#ffffff" stroke-width="0.25"/>
<path d="M 287.94 93.27 C 288.73 90.16 289.42 86.65 292.42 84.86 C 292.39 85.69 292.33 87.34 292.30 88.17 C 291.85 90.67 290.69 92.88 287.94 93.27 Z" fill="#e4c152" opacity="1.00" stroke="#e4c152" stroke-width="0.25"/>
<path d="M 294.78 90.89 C 294.96 89.34 294.43 85.99 297.05 86.62 C 299.13 87.55 300.91 88.99 302.75 90.29 C 302.40 91.18 302.05 92.06 301.70 92.95 C 299.39 92.28 297.08 91.58 294.78 90.89 Z" fill="#ffaf0e" opacity="1.00" stroke="#ffaf0e" stroke-width="0.25"/>
<path d="M 311.34 87.42 C 312.63 86.80 313.53 87.87 313.80 89.05 C 312.34 90.96 309.86 91.79 307.93 93.15 C 307.10 92.46 306.24 91.80 305.36 91.19 C 307.54 90.23 309.44 88.83 311.34 87.42 Z" fill="#ffb60c" opacity="1.00" stroke="#ffb60c" stroke-width="0.25"/>
<path d="M 292.38 93.35 C 293.93 93.63 295.48 93.91 297.04 94.19 C 295.38 94.20 293.65 94.17 292.17 95.03 C 288.36 97.44 292.71 100.34 294.72 102.17 C 293.00 100.72 289.74 99.85 290.37 97.00 C 290.16 95.42 291.33 94.30 292.38 93.35 Z" fill="#ffffff" opacity="1.00" stroke="#ffffff" stroke-width="0.25"/>
<path d="M 311.92 96.86 C 310.94 94.67 313.62 93.36 315.04 92.30 C 315.01 94.01 314.98 95.73 314.94 97.44 C 314.19 97.30 312.68 97.01 311.92 96.86 Z" fill="#cdb85d" opacity="1.00" stroke="#cdb85d" stroke-width="0.25"/>
<path d="M 284.12 100.62 C 284.90 98.13 285.63 95.53 287.37 93.52 C 288.20 94.82 289.25 96.27 288.64 97.91 C 288.42 99.62 286.32 99.74 285.16 100.57 C 284.11 103.61 283.15 106.69 281.80 109.62 C 281.24 109.75 280.12 109.99 279.56 110.12 C 280.72 106.79 282.09 103.52 284.12 100.62 Z" fill="#e6bb2c" opacity="1.00" stroke="#e6bb2c" stroke-width="0.25"/>
<path d="M 292.17 95.03 C 293.65 94.17 295.38 94.20 297.04 94.19 C 298.53 94.45 299.42 95.17 299.71 96.36 C 299.80 96.95 299.97 98.15 300.06 98.75 L 299.71 99.64 C 298.69 102.27 297.79 104.98 296.33 107.40 C 295.83 105.69 296.20 103.46 294.72 102.17 C 292.71 100.34 288.36 97.44 292.17 95.03 Z" fill="#feb713" opacity="1.00" stroke="#feb713" stroke-width="0.25"/>
<path d="M 303.04 96.14 C 305.39 94.93 308.21 95.41 310.77 95.14 C 310.49 97.79 310.18 100.43 309.83 103.07 C 311.41 102.89 313.00 102.74 314.59 102.60 C 314.41 105.43 314.25 108.27 313.93 111.10 C 312.71 110.50 311.48 109.95 310.25 109.40 C 307.14 109.98 303.38 111.58 300.78 108.87 C 300.18 106.98 301.03 104.97 301.18 103.06 C 302.35 103.31 303.53 103.56 304.71 103.82 L 304.52 104.25 C 303.88 104.59 302.61 105.27 301.97 105.61 C 302.28 106.74 302.27 108.04 303.03 109.01 C 304.83 109.40 306.68 109.19 308.51 109.18 C 308.39 104.80 309.16 100.47 309.22 96.10 C 307.31 96.81 304.46 96.40 303.48 98.53 C 302.58 99.89 303.68 101.30 304.12 102.58 C 303.55 102.29 302.41 101.72 301.83 101.44 C 302.08 99.65 302.28 97.81 303.04 96.14 Z" fill="#e4c152" opacity="1.00" stroke="#e4c152" stroke-width="0.25"/>
<path d="M 299.71 96.36 C 301.40 95.50 301.89 99.23 300.06 98.75 C 299.97 98.15 299.80 96.95 299.71 96.36 Z" fill="#cdb960" opacity="1.00" stroke="#cdb960" stroke-width="0.25"/>
<path d="M 303.48 98.53 C 304.46 96.40 307.31 96.81 309.22 96.10 C 309.16 100.47 308.39 104.80 308.51 109.18 C 306.68 109.19 304.83 109.40 303.03 109.01 C 302.27 108.04 302.28 106.74 301.97 105.61 C 302.61 105.27 303.88 104.59 304.52 104.25 L 304.71 103.82 C 304.56 103.51 304.27 102.89 304.12 102.58 C 303.68 101.30 302.58 99.89 303.48 98.53 Z" fill="#fbb812" opacity="1.00" stroke="#fbb812" stroke-width="0.25"/>
<path d="M 190.46 97.05 C 195.58 101.05 200.35 105.49 205.03 109.99 C 205.40 111.07 205.79 112.15 206.19 113.22 C 203.31 110.73 200.63 108.02 197.65 105.65 C 199.32 111.15 203.22 115.94 203.53 121.82 C 199.19 114.20 196.58 105.53 190.84 98.78 C 190.74 98.35 190.55 97.48 190.46 97.05 Z" fill="#7ec96d" opacity="1.00" stroke="#7ec96d" stroke-width="0.25"/>
<path d="M 326.40 96.81 C 326.91 98.27 327.45 99.72 327.92 101.20 C 331.01 137.40 328.66 173.79 326.04 209.96 C 324.26 232.54 321.83 255.09 318.25 277.46 C 313.28 303.84 307.83 331.16 292.65 353.84 C 285.70 363.69 276.93 372.95 265.46 377.37 C 266.31 387.08 259.01 395.69 250.44 399.25 C 249.39 403.08 249.56 407.10 248.96 411.01 C 247.32 423.74 245.78 436.53 243.07 449.08 C 239.67 450.12 236.06 449.51 232.61 449.15 C 224.05 447.78 215.40 446.14 207.46 442.56 C 206.28 441.80 204.48 441.38 204.07 439.88 C 204.06 438.22 204.47 436.60 204.83 435.01 C 208.04 422.69 210.69 410.22 214.56 398.08 C 215.16 396.10 215.90 394.13 216.01 392.04 C 214.42 389.67 212.04 387.84 210.94 385.14 C 208.12 378.85 208.01 371.59 209.45 364.94 C 197.30 351.80 193.95 333.22 193.71 315.91 C 192.99 286.97 200.45 258.71 208.04 231.02 C 209.21 231.51 210.39 232.01 211.56 232.50 C 207.11 258.97 201.07 285.25 198.90 312.05 C 197.55 328.94 200.10 347.47 211.72 360.58 C 218.35 368.92 228.35 374.63 239.04 375.42 C 244.58 375.81 250.27 375.90 255.69 374.52 C 258.40 373.94 258.67 370.66 259.54 368.52 C 263.46 356.79 263.46 344.21 263.64 331.98 C 263.88 309.55 260.87 287.30 258.46 265.06 L 259.58 263.26 C 263.03 267.57 261.83 273.14 262.74 278.17 C 262.96 278.55 263.38 279.32 263.59 279.70 C 263.61 280.14 263.64 281.03 263.66 281.47 C 263.70 284.61 264.24 287.72 264.45 290.86 C 264.27 294.63 263.42 298.67 265.46 302.13 C 265.47 302.26 265.50 302.53 265.51 302.66 C 265.58 305.19 265.64 307.72 265.82 310.25 C 265.83 310.72 265.85 311.66 265.86 312.14 C 265.12 318.42 266.59 324.54 267.54 330.70 C 267.56 331.05 267.60 331.75 267.62 332.10 C 267.47 334.81 267.53 337.53 267.77 340.24 C 267.80 341.61 267.82 342.98 267.84 344.35 C 267.64 354.08 266.96 364.01 263.15 373.09 C 272.29 370.35 279.47 363.56 285.49 356.44 C 294.40 344.69 300.92 331.19 304.95 317.02 C 310.96 298.15 314.30 278.56 317.12 258.99 C 319.90 241.44 320.51 223.67 322.02 205.99 C 323.02 189.68 323.69 173.35 324.41 157.03 C 324.87 139.65 324.73 122.27 324.58 104.90 C 325.41 102.26 326.03 99.55 326.40 96.81 Z" fill="#053652" opacity="1.00" stroke="#053652" stroke-width="0.25"/>
<path d="M 311.78 99.92 C 312.48 98.62 313.53 98.40 314.93 99.24 C 314.88 99.65 314.79 100.46 314.74 100.86 C 313.33 101.55 312.34 101.24 311.78 99.92 Z" fill="#b8b27c" opacity="1.00" stroke="#b8b27c" stroke-width="0.25"/>
<path d="M 296.33 107.40 C 297.79 104.98 298.69 102.27 299.71 99.64 C 301.54 102.27 298.21 104.92 298.70 107.83 C 297.99 107.93 296.56 108.12 295.85 108.21 L 296.33 107.40 Z" fill="#c9ad45" opacity="1.00" stroke="#c9ad45" stroke-width="0.25"/>
<path d="M 286.95 101.95 C 289.70 99.45 292.41 103.14 294.68 104.51 C 294.44 105.93 294.60 107.49 293.93 108.80 C 291.89 112.76 286.87 110.54 283.36 111.41 L 283.13 110.33 C 284.23 107.47 285.15 104.46 286.95 101.95 Z" fill="#e4c152" opacity="1.00" stroke="#e4c152" stroke-width="0.25"/>
<path d="M 284.98 109.70 C 285.84 107.35 286.14 104.56 288.03 102.75 C 290.68 101.89 292.25 104.69 293.96 106.17 C 292.80 107.54 292.24 110.17 289.97 109.79 C 288.30 109.85 286.64 109.76 284.98 109.70 Z" fill="#ffbb16" opacity="1.00" stroke="#ffbb16" stroke-width="0.25"/>
<path d="M 309.15 104.38 C 309.81 104.27 311.13 104.06 311.78 103.95 C 311.89 105.76 311.96 107.57 312.00 109.39 C 310.30 108.29 309.31 106.36 309.15 104.38 Z" fill="#6e540e" opacity="1.00" stroke="#6e540e" stroke-width="0.25"/>
<path d="M 197.65 105.65 C 200.63 108.02 203.31 110.73 206.19 113.22 C 205.79 112.15 205.40 111.07 205.03 109.99 C 225.51 130.70 237.55 158.30 243.63 186.46 C 242.95 191.82 244.96 196.96 246.02 202.13 C 251.72 231.62 257.32 261.12 259.81 291.08 C 261.07 297.84 261.38 304.71 261.55 311.57 C 262.82 326.71 262.50 341.95 260.95 357.05 C 260.18 360.83 259.17 364.61 259.54 368.52 C 258.67 370.66 258.40 373.94 255.69 374.52 C 250.27 375.90 244.58 375.81 239.04 375.42 C 228.35 374.63 218.35 368.92 211.72 360.58 C 211.80 357.80 209.65 355.82 208.33 353.61 C 201.09 341.88 199.41 327.64 200.48 314.12 C 200.59 299.87 203.74 285.94 205.84 271.91 C 209.72 250.69 214.01 229.53 216.62 208.12 C 216.72 194.99 217.24 181.83 216.35 168.72 C 214.60 157.66 213.77 146.21 209.43 135.77 C 209.33 136.39 209.14 137.62 209.05 138.23 C 207.53 132.65 205.33 127.30 203.53 121.82 C 203.22 115.94 199.32 111.15 197.65 105.65 Z" fill="#7fd441" opacity="1.00" stroke="#7fd441" stroke-width="0.25"/>
<path d="M 294.19 110.18 C 298.12 108.72 301.50 111.28 304.89 112.90 C 303.92 114.57 303.18 116.80 301.05 117.30 C 298.59 117.66 296.11 117.40 293.65 117.29 C 293.55 114.91 293.68 112.52 294.19 110.18 Z" fill="#e4c152" opacity="1.00" stroke="#e4c152" stroke-width="0.25"/>
<path d="M 295.23 115.86 C 294.32 114.06 294.90 111.51 296.86 110.70 C 299.10 111.36 301.21 112.38 303.34 113.33 C 301.83 116.06 297.97 117.04 295.23 115.86 Z" fill="#ffba12" opacity="1.00" stroke="#ffba12" stroke-width="0.25"/>
<path d="M 275.40 118.62 C 276.79 116.40 277.05 112.59 280.20 112.23 C 279.46 114.36 278.82 116.53 278.18 118.70 C 277.49 118.68 276.10 118.64 275.40 118.62 Z" fill="#e4c152" opacity="1.00" stroke="#e4c152" stroke-width="0.25"/>
<path d="M 305.08 117.95 C 305.47 115.81 305.57 113.41 306.98 111.66 C 309.28 111.63 311.55 111.97 313.84 112.20 C 313.62 114.45 313.34 116.70 313.11 118.95 C 312.56 118.66 311.45 118.07 310.89 117.78 C 311.12 119.07 311.36 120.36 311.60 121.65 C 311.16 122.16 310.27 123.18 309.83 123.69 C 308.45 123.19 307.03 122.84 305.70 122.22 C 304.27 121.19 304.99 119.38 305.08 117.95 Z" fill="#f6b11d" opacity="1.00" stroke="#f6b11d" stroke-width="0.25"/>
<path d="M 281.77 112.53 C 285.18 112.45 288.59 112.42 292.01 112.56 C 292.03 114.43 292.05 116.31 292.07 118.19 C 288.18 118.40 284.28 118.31 280.41 118.03 C 280.86 116.20 281.33 114.37 281.77 112.53 Z" fill="#e4c152" opacity="1.00" stroke="#e4c152" stroke-width="0.25"/>
<path d="M 282.00 116.98 C 282.16 112.48 290.35 112.10 291.38 115.97 C 289.40 118.61 284.96 116.95 282.00 116.98 Z" fill="#ffb812" opacity="1.00" stroke="#ffb812" stroke-width="0.25"/>
<path d="M 292.52 119.49 C 296.33 118.71 300.32 119.15 304.07 117.97 C 303.70 121.49 303.04 124.96 302.41 128.44 C 299.22 127.07 295.61 126.99 292.48 125.58 C 291.34 123.73 291.99 121.43 292.52 119.49 Z" fill="#e4c152" opacity="1.00" stroke="#e4c152" stroke-width="0.25"/>
<path d="M 310.89 117.78 C 311.45 118.07 312.56 118.66 313.11 118.95 C 313.01 123.87 312.14 128.74 312.14 133.67 C 311.64 133.66 310.65 133.64 310.15 133.63 C 310.26 132.94 310.47 131.57 310.57 130.88 C 308.66 130.64 306.75 130.39 304.85 130.15 C 305.91 131.30 306.98 132.45 308.10 133.55 C 306.63 133.50 305.16 133.44 303.69 133.38 C 303.79 131.68 303.90 129.98 304.03 128.29 C 306.55 128.40 309.04 128.89 311.41 129.76 C 311.56 129.50 311.87 128.98 312.03 128.72 C 308.81 128.09 305.14 127.37 303.59 124.08 C 306.58 124.25 309.55 124.63 312.53 124.81 C 311.63 124.43 310.73 124.06 309.83 123.69 C 310.27 123.18 311.16 122.16 311.60 121.65 C 311.36 120.36 311.12 119.07 310.89 117.78 Z" fill="#e9b629" opacity="1.00" stroke="#e9b629" stroke-width="0.25"/>
<path d="M 274.50 120.53 C 275.62 120.28 276.75 120.03 277.87 119.77 C 277.59 121.34 277.38 122.92 277.10 124.50 C 276.15 124.43 274.23 124.28 273.27 124.21 C 273.68 122.98 274.08 121.75 274.50 120.53 Z" fill="#e4be46" opacity="1.00" stroke="#e4be46" stroke-width="0.25"/>
<path d="M 279.60 125.71 C 278.22 124.72 278.50 121.00 279.84 120.01 C 279.93 120.44 280.12 121.30 280.21 121.73 C 280.18 122.37 280.11 123.64 280.08 124.28 C 279.96 124.64 279.72 125.35 279.60 125.71 Z" fill="#baa85a" opacity="1.00" stroke="#baa85a" stroke-width="0.25"/>
<path d="M 279.84 120.01 C 283.42 119.64 287.03 119.86 290.61 120.09 C 290.58 121.97 290.57 123.85 290.56 125.73 C 286.93 126.36 283.24 126.12 279.60 125.71 C 279.72 125.35 279.96 124.64 280.08 124.28 C 282.85 125.59 286.05 125.82 288.98 124.90 C 289.58 123.61 289.91 120.99 287.89 120.81 C 285.31 120.06 282.66 120.94 280.21 121.73 C 280.12 121.30 279.93 120.44 279.84 120.01 Z" fill="#e4c152" opacity="1.00" stroke="#e4c152" stroke-width="0.25"/>
<path d="M 293.31 121.32 C 296.56 120.27 300.02 120.21 303.40 120.41 C 302.38 122.37 301.75 124.48 301.38 126.66 C 298.59 125.43 294.14 125.85 292.64 122.93 C 292.81 122.53 293.14 121.72 293.31 121.32 Z" fill="#ffb312" opacity="1.00" stroke="#ffb312" stroke-width="0.25"/>
<path d="M 280.21 121.73 C 282.66 120.94 285.31 120.06 287.89 120.81 C 289.91 120.99 289.58 123.61 288.98 124.90 C 286.05 125.82 282.85 125.59 280.08 124.28 C 280.11 123.64 280.18 122.37 280.21 121.73 Z" fill="#fdb613" opacity="1.00" stroke="#fdb613" stroke-width="0.25"/>
<path d="M 270.31 130.23 C 271.15 128.66 271.98 127.09 272.82 125.52 C 273.33 125.54 274.35 125.58 274.86 125.60 C 275.28 125.79 276.11 126.16 276.52 126.35 C 276.08 128.19 275.53 130.02 274.88 131.81 C 274.27 131.95 273.04 132.24 272.42 132.38 C 271.72 131.66 271.01 130.95 270.31 130.23 Z" fill="#f4b92a" opacity="1.00" stroke="#f4b92a" stroke-width="0.25"/>
<path d="M 291.16 128.03 C 291.60 126.43 292.13 126.40 292.75 127.96 C 292.35 127.98 291.56 128.01 291.16 128.03 Z" fill="#a9a870" opacity="1.00" stroke="#a9a870" stroke-width="0.25"/>
<path d="M 276.06 133.67 C 276.60 131.73 277.01 129.71 277.96 127.93 C 281.52 126.86 285.28 127.72 288.88 128.07 C 288.95 130.21 289.03 132.35 289.09 134.49 C 284.74 135.37 280.35 134.43 276.06 133.67 Z" fill="#fdb415" opacity="1.00" stroke="#fdb415" stroke-width="0.25"/>
<path d="M 290.30 127.94 L 291.16 128.03 C 291.56 128.01 292.35 127.98 292.75 127.96 C 295.95 127.56 299.23 128.64 302.07 130.08 C 303.10 131.92 302.13 133.99 301.86 135.90 C 298.55 135.04 295.16 134.45 291.95 133.28 C 289.69 132.53 290.69 129.70 290.30 127.94 Z" fill="#e4c152" opacity="1.00" stroke="#e4c152" stroke-width="0.25"/>
<path d="M 292.18 129.07 C 295.34 128.28 298.71 130.40 301.44 131.92 C 301.29 132.37 300.99 133.28 300.84 133.74 C 297.78 133.83 291.35 133.53 292.18 129.07 Z" fill="#ffb80b" opacity="1.00" stroke="#ffb80b" stroke-width="0.25"/>
<path d="M 304.85 130.15 C 306.75 130.39 308.66 130.64 310.57 130.88 C 310.47 131.57 310.26 132.94 310.15 133.63 C 309.64 133.61 308.62 133.57 308.10 133.55 C 306.98 132.45 305.91 131.30 304.85 130.15 Z" fill="#f3b71a" opacity="1.00" stroke="#f3b71a" stroke-width="0.25"/>
<path d="M 266.02 142.47 C 266.95 139.00 268.17 135.62 269.72 132.38 C 270.55 132.54 272.20 132.88 273.03 133.04 C 273.41 133.47 274.17 134.32 274.55 134.74 C 274.03 136.87 273.57 139.00 273.01 141.12 C 272.15 144.53 268.42 142.69 266.02 142.47 Z" fill="#e4c152" opacity="1.00" stroke="#e4c152" stroke-width="0.25"/>
<path d="M 268.47 136.54 C 269.62 135.71 270.76 134.88 271.92 134.06 C 273.92 136.98 272.36 142.45 268.23 141.97 C 268.30 140.16 268.38 138.35 268.47 136.54 Z" fill="#f9b912" opacity="1.00" stroke="#f9b912" stroke-width="0.25"/>
<path d="M 290.01 134.97 C 293.71 134.89 297.40 136.14 300.88 137.37 C 302.44 138.86 301.51 141.54 299.39 141.80 C 299.46 140.58 299.55 139.36 299.65 138.14 C 296.74 137.36 293.80 136.68 290.84 136.09 C 290.88 137.27 290.92 138.46 290.97 139.65 C 293.53 139.85 296.27 139.77 298.49 141.31 C 295.39 141.32 292.30 141.20 289.23 140.93 C 289.44 138.97 288.49 136.56 290.01 134.97 Z" fill="#d8b84b" opacity="1.00" stroke="#d8b84b" stroke-width="0.25"/>
<path d="M 303.11 135.00 C 303.55 134.83 304.44 134.47 304.88 134.29 C 304.75 134.97 304.48 136.32 304.35 137.00 C 305.63 137.76 306.91 138.53 308.24 139.24 C 306.51 139.17 304.80 139.04 303.08 138.90 C 303.07 137.60 303.08 136.30 303.11 135.00 Z" fill="#d1b850" opacity="1.00" stroke="#d1b850" stroke-width="0.25"/>
<path d="M 304.88 134.29 C 307.13 134.30 309.36 134.55 311.58 134.95 C 310.76 136.31 310.66 137.72 311.28 139.19 C 310.52 139.20 309.00 139.23 308.24 139.24 C 306.91 138.53 305.63 137.76 304.35 137.00 C 304.48 136.32 304.75 134.97 304.88 134.29 Z" fill="#f6b41d" opacity="1.00" stroke="#f6b41d" stroke-width="0.25"/>
<path d="M 311.58 134.95 L 312.11 135.03 C 312.15 136.42 312.05 137.80 311.80 139.17 L 311.28 139.19 C 310.66 137.72 310.76 136.31 311.58 134.95 Z" fill="#b6a152" opacity="1.00" stroke="#b6a152" stroke-width="0.25"/>
<path d="M 209.43 135.77 C 213.77 146.21 214.60 157.66 216.35 168.72 C 217.24 181.83 216.72 194.99 216.62 208.12 C 214.01 229.53 209.72 250.69 205.84 271.91 C 203.74 285.94 200.59 299.87 200.48 314.12 C 199.41 327.64 201.09 341.88 208.33 353.61 C 209.65 355.82 211.80 357.80 211.72 360.58 C 200.10 347.47 197.55 328.94 198.90 312.05 C 201.07 285.25 207.11 258.97 211.56 232.50 C 217.41 201.42 217.76 168.81 209.05 138.23 C 209.14 137.62 209.33 136.39 209.43 135.77 Z" fill="#7ec96d" opacity="1.00" stroke="#7ec96d" stroke-width="0.25"/>
<path d="M 275.01 142.83 C 273.89 140.34 275.49 137.57 276.59 135.33 C 280.23 135.94 283.89 136.47 287.56 136.94 C 287.43 139.41 287.72 142.29 286.05 144.32 C 282.39 143.68 278.62 143.52 275.01 142.83 Z" fill="#fbb51a" opacity="1.00" stroke="#fbb51a" stroke-width="0.25"/>
<path d="M 290.84 136.09 C 293.80 136.68 296.74 137.36 299.65 138.14 C 299.55 139.36 299.46 140.58 299.39 141.80 L 298.49 141.31 C 296.27 139.77 293.53 139.85 290.97 139.65 C 290.92 138.46 290.88 137.27 290.84 136.09 Z" fill="#ffb215" opacity="1.00" stroke="#ffb215" stroke-width="0.25"/>
<path d="M 302.78 140.12 C 305.69 140.42 308.61 140.67 311.54 140.93 C 310.42 147.30 310.65 153.78 309.75 160.18 L 308.66 160.18 C 308.67 157.90 308.68 155.62 308.70 153.34 C 306.59 153.30 304.48 153.27 302.38 153.23 C 302.03 154.50 301.70 155.76 301.39 157.04 C 302.26 158.00 303.15 158.93 304.09 159.84 C 302.57 159.55 300.90 159.45 299.64 158.47 C 299.75 156.19 300.31 153.97 300.70 151.74 C 303.70 151.97 306.74 152.39 309.73 151.80 C 308.09 149.91 304.25 150.68 301.76 150.04 C 301.94 148.33 302.12 146.63 302.31 144.93 C 305.02 145.49 307.71 146.14 310.45 146.55 C 308.00 144.34 304.49 144.68 301.45 144.23 C 301.90 142.86 302.34 141.49 302.78 140.12 Z" fill="#edbd22" opacity="1.00" stroke="#edbd22" stroke-width="0.25"/>
<path d="M 217.09 142.04 C 218.31 142.29 219.32 143.00 219.73 144.21 C 222.25 149.50 225.01 154.94 225.32 160.90 C 223.32 160.09 223.12 157.83 222.42 156.10 C 220.90 151.31 218.60 146.83 217.09 142.04 Z" fill="#003939" opacity="1.00" stroke="#003939" stroke-width="0.25"/>
<path d="M 287.16 150.04 C 287.30 147.61 286.30 143.99 289.03 142.72 C 292.35 142.52 295.71 142.64 299.02 143.02 C 301.63 144.27 299.86 147.78 300.02 150.01 C 295.74 150.46 291.43 150.55 287.16 150.04 Z" fill="#e1bb48" opacity="1.00" stroke="#e1bb48" stroke-width="0.25"/>
<path d="M 262.36 151.06 C 263.18 148.49 264.32 146.03 265.60 143.66 C 267.81 144.08 270.02 144.47 272.21 145.00 C 271.60 146.37 271.00 147.76 270.33 149.11 C 269.81 147.39 269.47 144.87 267.08 145.20 C 264.87 145.55 265.07 147.99 264.77 149.68 C 266.38 149.87 268.00 150.03 269.63 150.18 C 269.37 150.49 268.86 151.11 268.61 151.42 C 266.52 151.38 264.44 151.18 262.36 151.06 Z" fill="#e4c152" opacity="1.00" stroke="#e4c152" stroke-width="0.25"/>
<path d="M 289.08 144.24 C 292.36 144.31 295.64 144.33 298.92 144.32 C 299.04 145.77 299.65 147.41 298.66 148.70 C 295.61 149.70 292.23 149.64 289.12 148.95 C 287.77 147.58 288.62 145.78 289.08 144.24 Z" fill="#ffb613" opacity="1.00" stroke="#ffb613" stroke-width="0.25"/>
<path d="M 264.77 149.68 C 265.07 147.99 264.87 145.55 267.08 145.20 C 269.47 144.87 269.81 147.39 270.33 149.11 C 270.16 149.38 269.81 149.91 269.63 150.18 C 268.00 150.03 266.38 149.87 264.77 149.68 Z" fill="#ffb01b" opacity="1.00" stroke="#ffb01b" stroke-width="0.25"/>
<path d="M 273.58 144.37 C 274.11 144.39 275.18 144.45 275.71 144.47 C 278.95 144.71 282.18 145.06 285.39 145.57 C 285.54 148.06 286.05 150.81 284.13 152.79 C 280.15 151.77 276.10 151.09 272.04 150.50 C 272.38 148.95 272.73 147.41 273.09 145.87 C 273.21 145.49 273.46 144.74 273.58 144.37 Z" fill="#e4c152" opacity="1.00" stroke="#e4c152" stroke-width="0.25"/>
<path d="M 275.05 146.20 C 278.25 146.15 282.38 145.46 284.67 148.27 C 284.75 149.75 283.69 151.41 282.02 151.12 C 279.19 150.58 276.29 150.10 273.63 148.96 C 273.82 147.88 274.29 146.97 275.05 146.20 Z" fill="#ffb410" opacity="1.00" stroke="#ffb410" stroke-width="0.25"/>
<path d="M 302.97 147.08 C 305.08 147.25 307.12 147.83 309.05 148.73 C 307.03 148.53 303.37 150.04 302.97 147.08 Z" fill="#f4b113" opacity="1.00" stroke="#f4b113" stroke-width="0.25"/>
<path d="M 264.10 152.44 C 265.68 152.69 267.25 152.93 268.83 153.18 C 269.10 154.91 269.91 156.68 269.54 158.45 C 266.93 161.90 262.52 159.21 259.11 158.89 C 260.02 156.66 260.86 154.41 261.73 152.16 C 262.32 152.23 263.51 152.37 264.10 152.44 Z" fill="#e4c152" opacity="1.00" stroke="#e4c152" stroke-width="0.25"/>
<path d="M 270.16 152.02 C 274.70 151.64 279.33 153.23 283.76 154.29 C 283.65 156.68 283.01 158.98 282.08 161.17 C 280.67 160.85 279.27 160.54 277.87 160.20 C 279.15 159.98 280.42 159.74 281.70 159.49 C 281.72 158.08 282.22 156.60 281.73 155.24 C 278.43 153.71 274.68 153.08 271.09 153.74 L 270.27 153.82 C 270.24 153.37 270.19 152.47 270.16 152.02 Z" fill="#e4c152" opacity="1.00" stroke="#e4c152" stroke-width="0.25"/>
<path d="M 285.18 157.60 C 285.13 155.60 284.72 152.81 287.03 151.89 C 291.02 151.48 295.03 151.88 299.02 152.14 C 298.74 153.98 298.75 155.97 297.73 157.61 C 293.58 158.32 289.35 157.55 285.18 157.60 Z" fill="#e4c152" opacity="1.00" stroke="#e4c152" stroke-width="0.25"/>
<path d="M 271.09 153.74 C 274.68 153.08 278.43 153.71 281.73 155.24 C 282.22 156.60 281.72 158.08 281.70 159.49 C 280.42 159.74 279.15 159.98 277.87 160.20 C 276.52 160.05 274.67 160.10 273.84 158.84 C 273.15 157.77 272.41 156.70 271.33 156.01 L 270.00 154.99 L 271.09 153.74 Z" fill="#ffb617" opacity="1.00" stroke="#ffb617" stroke-width="0.25"/>
<path d="M 285.78 155.97 C 286.83 151.38 292.54 152.53 296.01 152.92 C 298.41 153.41 296.76 156.13 296.39 157.57 C 292.82 157.37 289.14 157.38 285.78 155.97 Z" fill="#fdb617" opacity="1.00" stroke="#fdb617" stroke-width="0.25"/>
<path d="M 302.38 153.23 C 304.48 153.27 306.59 153.30 308.70 153.34 C 308.68 155.62 308.67 157.90 308.66 160.18 C 307.13 160.12 305.60 160.01 304.09 159.84 C 303.15 158.93 302.26 158.00 301.39 157.04 C 301.70 155.76 302.03 154.50 302.38 153.23 Z" fill="#fdb718" opacity="1.00" stroke="#fdb718" stroke-width="0.25"/>
<path d="M 261.52 155.98 C 262.71 152.46 266.45 154.90 268.63 155.85 C 268.73 160.61 261.88 159.92 261.52 155.98 Z" fill="#ffb817" opacity="1.00" stroke="#ffb817" stroke-width="0.25"/>
<path d="M 271.33 156.01 C 272.41 156.70 273.15 157.77 273.84 158.84 C 272.25 160.22 269.89 157.45 271.33 156.01 Z" fill="#d6b456" opacity="1.00" stroke="#d6b456" stroke-width="0.25"/>
<path d="M 284.04 159.07 C 288.92 159.18 293.79 159.38 298.67 159.53 C 297.91 161.61 297.21 163.72 296.56 165.84 C 296.06 165.76 295.06 165.60 294.56 165.52 C 291.86 165.08 289.12 164.99 286.39 164.98 C 283.47 164.90 283.49 161.15 284.04 159.07 Z" fill="#e4c152" opacity="1.00" stroke="#e4c152" stroke-width="0.25"/>
<path d="M 255.79 167.09 C 256.69 164.75 257.61 162.42 258.59 160.11 C 261.50 160.95 264.44 161.66 267.41 162.25 C 267.18 164.79 266.80 167.31 266.26 169.80 C 262.71 169.13 259.21 168.25 255.79 167.09 Z" fill="#e4c152" opacity="1.00" stroke="#e4c152" stroke-width="0.25"/>
<path d="M 269.12 160.09 C 273.50 160.56 277.94 161.28 282.03 162.94 C 282.00 163.79 281.94 165.49 281.91 166.35 C 279.99 161.53 274.05 162.58 269.94 161.28 C 270.30 162.95 269.94 165.34 271.97 166.02 C 275.03 167.38 278.45 167.47 281.68 168.21 C 281.72 168.64 281.82 169.51 281.87 169.94 C 277.49 168.67 272.89 167.93 268.71 166.10 C 268.58 164.09 268.88 162.08 269.12 160.09 Z" fill="#e4c152" opacity="1.00" stroke="#e4c152" stroke-width="0.25"/>
<path d="M 284.92 160.25 C 288.41 160.39 291.95 160.03 295.39 160.71 C 297.34 160.83 296.32 164.01 294.98 164.34 C 292.16 164.51 289.30 164.17 286.60 163.36 C 285.04 163.13 284.98 161.49 284.92 160.25 Z" fill="#feb413" opacity="1.00" stroke="#feb413" stroke-width="0.25"/>
<path d="M 269.94 161.28 C 274.05 162.58 279.99 161.53 281.91 166.35 C 281.85 166.81 281.73 167.74 281.68 168.21 C 278.45 167.47 275.03 167.38 271.97 166.02 C 269.94 165.34 270.30 162.95 269.94 161.28 Z" fill="#ffb812" opacity="1.00" stroke="#ffb812" stroke-width="0.25"/>
<path d="M 299.43 161.04 C 302.70 160.90 305.97 161.02 309.24 161.22 C 309.19 163.22 309.15 165.21 309.00 167.21 C 308.39 169.64 308.26 172.16 308.18 174.66 C 306.73 174.63 305.29 174.58 303.85 174.51 C 301.96 174.30 300.07 174.10 298.19 173.89 C 298.27 172.35 298.35 170.82 298.43 169.29 C 301.60 169.37 304.78 169.57 307.96 169.46 C 305.04 167.61 301.44 168.07 298.17 167.73 C 298.58 165.50 299.00 163.27 299.43 161.04 Z" fill="#e4c152" opacity="1.00" stroke="#e4c152" stroke-width="0.25"/>
<path d="M 258.92 162.06 C 261.27 162.31 263.62 162.62 265.95 163.03 C 265.82 164.60 265.69 166.18 265.57 167.76 C 263.12 167.70 260.53 167.90 258.29 166.72 C 257.61 165.22 258.74 163.59 258.92 162.06 Z" fill="#ffb614" opacity="1.00" stroke="#ffb614" stroke-width="0.25"/>
<path d="M 300.53 162.52 C 302.91 162.43 305.29 162.37 307.67 162.33 C 307.65 163.85 307.63 165.37 307.63 166.90 C 305.10 166.76 302.56 166.75 300.04 167.01 C 300.20 165.51 300.36 164.02 300.53 162.52 Z" fill="#ffb60d" opacity="1.00" stroke="#ffb60d" stroke-width="0.25"/>
<path d="M 286.39 164.98 C 289.12 164.99 291.86 165.08 294.56 165.52 L 295.05 167.22 C 291.58 166.87 288.09 166.68 284.63 166.26 C 285.07 165.94 285.95 165.30 286.39 164.98 Z" fill="#98750c" opacity="1.00" stroke="#98750c" stroke-width="0.25"/>
<path d="M 283.17 166.09 C 283.54 166.14 284.26 166.22 284.63 166.26 C 288.09 166.68 291.58 166.87 295.05 167.22 C 297.18 167.55 296.50 170.39 296.96 171.91 C 292.32 172.19 287.69 171.59 283.14 170.67 C 283.15 169.14 283.16 167.62 283.17 166.09 Z" fill="#e4c152" opacity="1.00" stroke="#e4c152" stroke-width="0.25"/>
<path d="M 254.21 170.81 C 254.59 169.91 255.00 169.03 255.38 168.14 C 258.52 169.69 261.98 170.48 265.11 172.06 C 265.31 173.63 264.99 175.21 264.62 176.74 C 264.15 175.38 263.70 174.02 263.26 172.66 C 260.41 171.38 257.38 170.23 254.21 170.81 Z" fill="#e4c152" opacity="1.00" stroke="#e4c152" stroke-width="0.25"/>
<path d="M 267.76 170.26 C 266.77 168.39 269.48 167.91 270.64 168.41 C 273.96 169.30 277.31 170.20 280.44 171.66 C 280.82 173.17 280.13 174.71 279.98 176.22 L 278.96 176.24 C 277.72 176.19 277.09 176.79 277.09 178.03 C 274.13 177.36 270.97 176.86 268.40 175.17 C 268.20 173.53 267.99 171.89 267.76 170.26 Z" fill="#fbb815" opacity="1.00" stroke="#fbb815" stroke-width="0.25"/>
<path d="M 284.80 169.01 C 287.11 166.12 291.57 168.43 294.77 168.29 C 295.14 169.23 295.51 170.16 295.88 171.10 C 292.18 170.87 288.06 170.95 284.80 169.01 Z" fill="#fdb20f" opacity="1.00" stroke="#fdb20f" stroke-width="0.25"/>
<path d="M 254.21 170.81 C 257.38 170.23 260.41 171.38 263.26 172.66 C 263.70 174.02 264.15 175.38 264.62 176.74 C 262.14 179.24 258.65 178.12 255.63 177.54 C 254.98 175.62 254.34 173.70 253.84 171.73 L 254.21 170.81 Z" fill="#ffb611" opacity="1.00" stroke="#ffb611" stroke-width="0.25"/>
<path d="M 268.40 175.17 C 266.20 175.42 265.87 170.71 267.76 170.26 C 267.99 171.89 268.20 173.53 268.40 175.17 Z" fill="#dfbb58" opacity="1.00" stroke="#dfbb58" stroke-width="0.25"/>
<path d="M 228.38 171.25 C 228.66 171.28 229.24 171.32 229.53 171.35 C 230.68 174.85 231.32 178.57 230.89 182.26 C 228.57 179.19 227.89 175.00 228.38 171.25 Z" fill="#1b5f1a" opacity="1.00" stroke="#1b5f1a" stroke-width="0.25"/>
<path d="M 299.00 172.01 C 301.30 170.93 304.30 169.82 306.67 171.24 C 307.15 172.65 306.61 173.35 305.04 173.34 C 302.92 173.87 300.70 173.36 299.00 172.01 Z" fill="#ffb60c" opacity="1.00" stroke="#ffb60c" stroke-width="0.25"/>
<path d="M 252.32 176.88 C 252.58 175.10 253.17 173.40 253.84 171.73 C 254.34 173.70 254.98 175.62 255.63 177.54 C 254.80 177.37 253.15 177.05 252.32 176.88 Z" fill="#e4c152" opacity="1.00" stroke="#e4c152" stroke-width="0.25"/>
<path d="M 281.18 179.90 C 279.99 177.33 281.23 174.53 283.07 172.65 C 287.66 172.72 292.48 172.82 296.72 174.80 C 296.08 176.77 296.33 179.31 294.87 180.85 C 290.36 180.68 285.97 179.33 281.44 179.44 C 285.09 182.00 290.09 180.74 293.97 183.01 C 293.97 188.02 292.34 192.88 291.40 197.78 C 290.77 198.07 289.50 198.66 288.86 198.95 C 291.82 194.89 291.65 189.58 293.23 184.96 C 291.30 182.59 287.84 182.52 285.03 182.29 C 282.14 181.83 279.98 184.00 277.94 185.63 C 278.94 183.68 280.03 181.77 281.18 179.90 Z" fill="#e4c152" opacity="1.00" stroke="#e4c152" stroke-width="0.25"/>
<path d="M 284.15 174.11 C 287.11 174.25 290.06 174.54 293.02 174.77 C 295.79 174.36 296.18 178.90 293.67 179.50 C 289.71 179.71 285.48 179.55 282.14 177.16 C 282.74 176.10 283.41 175.08 284.15 174.11 Z" fill="#feb911" opacity="1.00" stroke="#feb911" stroke-width="0.25"/>
<path d="M 297.96 175.18 C 301.22 175.59 304.50 175.94 307.78 176.23 C 307.69 178.25 307.52 180.28 307.24 182.29 C 303.83 182.25 300.43 182.14 297.05 181.86 C 297.34 179.63 297.64 177.41 297.96 175.18 Z" fill="#e4c152" opacity="1.00" stroke="#e4c152" stroke-width="0.25"/>
<path d="M 277.09 178.03 C 277.09 176.79 277.72 176.19 278.96 176.24 C 279.22 177.77 278.60 178.37 277.09 178.03 Z" fill="#d0b14c" opacity="1.00" stroke="#d0b14c" stroke-width="0.25"/>
<path d="M 263.34 179.81 C 264.43 178.67 265.53 177.54 266.64 176.42 C 270.32 177.91 274.11 179.12 277.99 180.01 C 277.61 182.74 276.64 188.01 272.76 186.21 C 274.75 185.14 276.01 183.35 276.45 181.14 C 273.11 180.44 269.51 177.56 266.11 179.00 C 262.62 181.47 267.40 183.88 269.26 185.41 C 267.55 184.99 265.87 184.48 264.22 183.89 C 263.93 182.53 263.63 181.16 263.34 179.81 Z" fill="#e4c152" opacity="1.00" stroke="#e4c152" stroke-width="0.25"/>
<path d="M 298.70 176.66 C 300.77 176.67 302.89 176.41 304.93 176.93 C 307.23 177.11 306.79 180.56 305.13 181.32 C 303.02 181.49 300.90 181.27 298.80 181.14 C 298.76 179.65 298.73 178.15 298.70 176.66 Z" fill="#fab515" opacity="1.00" stroke="#fab515" stroke-width="0.25"/>
<path d="M 251.59 178.52 C 251.82 178.48 252.29 178.39 252.52 178.35 C 254.14 178.75 255.77 179.18 257.41 179.53 C 255.22 179.74 253.08 180.29 251.22 181.48 C 252.91 182.86 254.60 184.26 256.30 185.64 C 254.18 185.01 252.04 184.45 249.93 183.82 C 249.79 183.51 249.52 182.88 249.38 182.57 C 250.10 181.21 250.81 179.85 251.59 178.52 Z" fill="#e4c152" opacity="1.00" stroke="#e4c152" stroke-width="0.25"/>
<path d="M 266.11 179.00 C 269.51 177.56 273.11 180.44 276.45 181.14 C 276.01 183.35 274.75 185.14 272.76 186.21 C 271.58 186.04 270.32 186.00 269.26 185.41 C 267.40 183.88 262.62 181.47 266.11 179.00 Z" fill="#feb816" opacity="1.00" stroke="#feb816" stroke-width="0.25"/>
<path d="M 251.22 181.48 C 253.08 180.29 255.22 179.74 257.41 179.53 L 257.92 179.62 C 259.16 180.80 261.78 181.71 260.96 183.89 C 260.70 185.30 258.92 185.54 257.97 186.35 C 257.55 186.17 256.72 185.82 256.30 185.64 C 254.60 184.26 252.91 182.86 251.22 181.48 Z" fill="#feb815" opacity="1.00" stroke="#feb815" stroke-width="0.25"/>
<path d="M 257.92 179.62 C 259.33 179.83 260.75 180.02 262.18 180.20 C 262.61 182.69 262.29 185.16 261.07 187.39 C 260.02 187.06 258.99 186.71 257.97 186.35 C 258.92 185.54 260.70 185.30 260.96 183.89 C 261.78 181.71 259.16 180.80 257.92 179.62 Z" fill="#d8bb4a" opacity="1.00" stroke="#d8bb4a" stroke-width="0.25"/>
<path d="M 277.94 185.63 C 279.98 184.00 282.14 181.83 285.03 182.29 C 287.84 182.52 291.30 182.59 293.23 184.96 C 291.65 189.58 291.82 194.89 288.86 198.95 L 288.78 199.04 C 288.04 199.83 287.31 200.63 286.60 201.44 C 283.44 201.85 279.86 202.87 276.98 201.00 C 275.09 198.85 277.69 197.29 279.35 196.27 C 280.16 196.98 281.01 197.64 281.89 198.26 C 281.14 196.90 280.36 195.57 279.63 194.21 C 278.35 191.69 277.64 188.92 277.73 186.09 L 277.94 185.63 Z" fill="#ffb814" opacity="1.00" stroke="#ffb814" stroke-width="0.25"/>
<path d="M 296.19 183.20 C 299.79 183.16 303.36 183.82 306.96 183.95 C 306.68 185.72 306.46 187.51 306.22 189.29 C 302.66 189.09 299.07 189.10 295.57 188.42 C 295.19 186.66 295.49 184.84 296.19 183.20 Z" fill="#f7b61d" opacity="1.00" stroke="#f7b61d" stroke-width="0.25"/>
<path d="M 248.95 195.19 C 248.61 191.92 246.81 188.14 249.56 185.45 C 253.15 186.67 256.77 187.76 260.43 188.77 C 261.37 191.56 262.16 194.99 259.07 196.79 C 255.97 196.80 252.90 196.23 249.87 195.63 C 249.64 195.52 249.18 195.30 248.95 195.19 Z" fill="#fdb616" opacity="1.00" stroke="#fdb616" stroke-width="0.25"/>
<path d="M 263.45 193.74 C 263.12 191.25 260.60 187.45 264.00 186.08 C 264.55 186.10 265.66 186.13 266.21 186.15 C 263.85 187.31 263.39 190.23 264.77 192.34 C 267.87 194.26 272.16 195.27 275.48 193.22 C 274.80 188.78 270.08 188.49 266.61 187.47 L 267.37 186.86 C 270.38 187.37 275.21 187.08 275.93 190.97 C 277.10 192.94 275.54 194.86 273.98 195.99 C 270.41 195.55 266.94 194.58 263.45 193.74 Z" fill="#e4c152" opacity="1.00" stroke="#e4c152" stroke-width="0.25"/>
<path d="M 266.21 186.15 C 266.67 186.19 267.58 186.28 268.03 186.32 L 267.37 186.86 L 266.61 187.47 C 270.08 188.49 274.80 188.78 275.48 193.22 C 272.16 195.27 267.87 194.26 264.77 192.34 C 263.39 190.23 263.85 187.31 266.21 186.15 Z" fill="#fdb710" opacity="1.00" stroke="#fdb710" stroke-width="0.25"/>
<path d="M 279.63 194.21 C 278.21 191.75 276.62 188.99 277.73 186.09 C 277.64 188.92 278.35 191.69 279.63 194.21 Z" fill="#ffffff" opacity="1.00" stroke="#ffffff" stroke-width="0.25"/>
<path d="M 246.02 202.13 C 244.96 196.96 242.95 191.82 243.63 186.46 C 244.90 190.60 245.98 194.80 246.85 199.05 C 251.34 220.94 255.08 242.98 258.46 265.06 C 260.87 287.30 263.88 309.55 263.64 331.98 C 263.46 344.21 263.46 356.79 259.54 368.52 C 259.17 364.61 260.18 360.83 260.95 357.05 C 262.50 341.95 262.82 326.71 261.55 311.57 C 261.38 304.71 261.07 297.84 259.81 291.08 C 257.32 261.12 251.72 231.62 246.02 202.13 Z" fill="#7ec96d" opacity="1.00" stroke="#7ec96d" stroke-width="0.25"/>
<path d="M 230.37 188.07 C 232.55 187.84 232.39 190.23 232.66 191.72 C 229.97 192.81 230.55 189.67 230.37 188.07 Z" fill="#1c372c" opacity="1.00" stroke="#1c372c" stroke-width="0.25"/>
<path d="M 294.62 190.72 C 295.13 190.58 296.17 190.30 296.69 190.16 C 294.33 191.82 294.50 194.79 294.13 197.35 C 294.26 195.14 294.44 192.93 294.62 190.72 Z" fill="#ffffff" opacity="1.00" stroke="#ffffff" stroke-width="0.25"/>
<path d="M 296.69 190.16 C 299.81 190.08 302.92 190.40 306.05 190.51 C 305.72 193.13 305.49 195.77 305.12 198.39 C 301.44 198.27 297.77 197.91 294.13 197.35 C 294.50 194.79 294.33 191.82 296.69 190.16 Z" fill="#fdb818" opacity="1.00" stroke="#fdb818" stroke-width="0.25"/>
<path d="M 276.40 203.14 C 275.02 200.10 275.01 196.59 277.76 194.30 C 278.16 194.80 278.96 195.78 279.35 196.27 C 277.69 197.29 275.09 198.85 276.98 201.00 C 279.86 202.87 283.44 201.85 286.60 201.44 C 287.31 200.63 288.04 199.83 288.78 199.04 L 288.05 199.88 C 291.48 199.87 292.24 203.14 293.05 205.75 C 296.71 205.71 300.59 206.65 304.06 205.10 C 303.83 207.61 303.58 210.13 303.38 212.65 C 302.04 212.57 300.71 212.47 299.37 212.35 C 296.74 212.05 294.20 211.29 291.78 210.24 C 292.01 209.36 292.47 207.59 292.70 206.71 L 291.95 206.65 C 291.40 205.32 290.91 203.97 290.25 202.71 C 289.19 202.52 288.10 202.56 287.04 202.59 C 283.49 202.88 279.95 203.08 276.40 203.14 Z" fill="#e4c152" opacity="1.00" stroke="#e4c152" stroke-width="0.25"/>
<path d="M 261.62 202.40 C 260.11 200.02 260.44 197.17 262.56 195.33 C 266.28 196.22 270.03 196.95 273.81 197.51 C 273.89 198.12 274.04 199.35 274.12 199.96 C 270.44 198.31 266.51 197.22 262.46 197.18 C 262.37 197.87 262.18 199.25 262.08 199.94 C 263.11 201.13 264.13 202.33 265.15 203.53 C 263.94 203.24 262.76 202.87 261.62 202.40 Z" fill="#e4c152" opacity="1.00" stroke="#e4c152" stroke-width="0.25"/>
<path d="M 262.46 197.18 C 266.51 197.22 270.44 198.31 274.12 199.96 C 274.19 200.41 274.32 201.30 274.39 201.75 C 273.48 202.74 272.55 203.72 271.62 204.69 C 269.46 204.29 267.30 203.95 265.15 203.53 C 264.13 202.33 263.11 201.13 262.08 199.94 C 262.18 199.25 262.37 197.87 262.46 197.18 Z" fill="#feb612" opacity="1.00" stroke="#feb612" stroke-width="0.25"/>
<path d="M 249.84 197.56 C 252.95 198.01 256.06 198.53 259.17 199.09 C 259.34 200.90 260.19 203.09 258.46 204.46 C 256.96 206.91 254.01 206.80 251.49 206.96 C 250.71 203.87 249.94 200.76 249.84 197.56 Z" fill="#f8b518" opacity="1.00" stroke="#f8b518" stroke-width="0.25"/>
<path d="M 292.98 199.23 C 296.98 199.15 300.98 199.31 304.98 199.38 C 304.74 201.24 304.64 203.11 304.25 204.94 L 303.86 204.94 C 300.76 204.61 297.64 204.63 294.54 204.44 C 297.34 204.35 300.29 204.99 303.00 204.02 C 304.57 203.24 304.18 200.99 304.85 199.67 C 301.17 199.45 297.48 199.36 293.80 199.68 C 293.79 200.28 293.76 201.48 293.75 202.08 C 293.48 201.13 293.23 200.18 292.98 199.23 Z" fill="#ffffff" opacity="1.00" stroke="#ffffff" stroke-width="0.25"/>
<path d="M 293.80 199.68 C 297.48 199.36 301.17 199.45 304.85 199.67 C 304.18 200.99 304.57 203.24 303.00 204.02 C 300.29 204.99 297.34 204.35 294.54 204.44 C 294.34 203.85 293.95 202.67 293.75 202.08 C 293.76 201.48 293.79 200.28 293.80 199.68 Z" fill="#e9b629" opacity="1.00" stroke="#e9b629" stroke-width="0.25"/>
<path d="M 295.37 201.41 C 297.42 200.17 301.23 200.31 303.21 201.94 C 302.67 204.03 299.65 203.15 298.01 203.34 C 297.15 203.29 293.61 202.67 295.37 201.41 Z" fill="#fbb310" opacity="1.00" stroke="#fbb310" stroke-width="0.25"/>
<path d="M 274.39 201.75 C 274.58 202.30 274.96 203.38 275.15 203.93 C 275.60 204.10 276.50 204.45 276.95 204.62 C 279.87 205.33 282.90 204.86 285.86 204.76 C 285.86 205.38 285.87 206.62 285.87 207.24 C 281.15 206.21 276.35 205.60 271.62 204.69 C 272.55 203.72 273.48 202.74 274.39 201.75 Z" fill="#cbb258" opacity="1.00" stroke="#cbb258" stroke-width="0.25"/>
<path d="M 287.04 202.59 C 288.10 202.56 289.19 202.52 290.25 202.71 C 290.91 203.97 291.40 205.32 291.95 206.65 L 290.74 207.94 C 289.10 207.81 287.47 207.57 285.87 207.24 C 285.87 206.62 285.86 205.38 285.86 204.76 C 286.15 204.22 286.74 203.13 287.04 202.59 Z" fill="#fdb20f" opacity="1.00" stroke="#fdb20f" stroke-width="0.25"/>
<path d="M 276.40 203.14 C 279.95 203.08 283.49 202.88 287.04 202.59 C 286.74 203.13 286.15 204.22 285.86 204.76 C 282.90 204.86 279.87 205.33 276.95 204.62 L 276.40 203.14 Z" fill="#8c6706" opacity="1.00" stroke="#8c6706" stroke-width="0.25"/>
<path d="M 257.18 207.99 C 258.16 206.47 259.44 205.10 260.96 204.13 C 265.18 204.82 269.33 205.88 273.56 206.47 C 272.53 209.94 273.31 214.44 271.11 217.28 C 266.70 216.63 262.22 216.18 257.88 215.17 C 257.28 212.83 257.03 210.39 257.18 207.99 Z" fill="#e4c152" opacity="1.00" stroke="#e4c152" stroke-width="0.25"/>
<path d="M 258.04 209.00 C 259.00 207.94 259.94 206.85 261.03 205.91 C 264.53 206.40 268.23 206.23 271.59 207.26 C 272.06 210.08 271.71 212.96 271.02 215.72 C 267.23 215.25 263.16 215.91 259.60 214.35 C 258.64 212.73 258.46 210.81 258.04 209.00 Z" fill="#feb914" opacity="1.00" stroke="#feb914" stroke-width="0.25"/>
<path d="M 292.76 208.16 C 295.75 206.01 299.44 206.60 302.84 207.07 C 302.39 208.55 302.53 210.49 301.06 211.43 C 297.99 211.44 294.75 210.66 292.76 208.16 Z" fill="#ffb816" opacity="1.00" stroke="#ffb816" stroke-width="0.25"/>
<path d="M 251.61 207.44 C 252.77 208.17 254.62 208.12 255.47 209.30 C 256.37 212.22 256.36 215.51 255.09 218.32 C 254.67 217.31 253.93 216.64 252.89 216.29 C 252.52 213.33 252.12 210.38 251.61 207.44 Z" fill="#f3bc29" opacity="1.00" stroke="#f3bc29" stroke-width="0.25"/>
<path d="M 273.96 215.82 C 274.17 212.93 273.99 209.95 274.86 207.16 C 278.90 207.18 282.91 207.91 286.90 208.50 C 288.56 208.48 289.65 209.66 290.59 210.85 C 289.66 212.44 289.15 214.36 287.78 215.64 C 283.18 215.86 278.56 215.47 273.96 215.82 Z" fill="#fcb71a" opacity="1.00" stroke="#fcb71a" stroke-width="0.25"/>
<path d="M 234.63 213.43 C 235.10 213.41 236.06 213.37 236.53 213.35 C 237.22 216.45 237.73 219.60 238.62 222.66 C 238.08 222.69 237.02 222.76 236.49 222.79 C 235.84 219.68 235.23 216.55 234.63 213.43 Z" fill="#003939" opacity="1.00" stroke="#003939" stroke-width="0.25"/>
<path d="M 291.22 213.25 C 293.38 213.01 295.55 213.28 297.71 213.40 C 299.39 213.51 301.08 213.62 302.77 213.73 C 302.60 216.59 302.43 219.45 302.05 222.29 C 298.20 222.06 294.31 222.17 290.51 221.46 C 288.73 219.05 290.20 215.73 291.22 213.25 Z" fill="#fcb817" opacity="1.00" stroke="#fcb817" stroke-width="0.25"/>
<path d="M 252.89 216.29 C 253.93 216.64 254.67 217.31 255.09 218.32 C 254.83 218.60 254.33 219.15 254.07 219.42 L 253.40 218.96 C 253.27 218.30 253.02 216.96 252.89 216.29 Z" fill="#8c8860" opacity="1.00" stroke="#8c8860" stroke-width="0.25"/>
<path d="M 255.22 220.20 C 256.32 219.07 257.11 217.05 258.99 217.23 C 263.05 217.15 266.97 218.35 270.88 219.28 C 271.31 221.89 272.28 225.66 269.02 226.81 C 264.33 228.04 259.77 225.44 255.42 224.02 C 255.38 222.74 255.30 221.46 255.22 220.20 Z" fill="#fcb617" opacity="1.00" stroke="#fcb617" stroke-width="0.25"/>
<path d="M 272.77 224.08 C 272.57 221.87 271.45 218.91 273.97 217.55 C 278.63 216.93 283.35 217.24 288.03 217.31 C 287.82 220.11 288.36 223.16 287.03 225.76 C 282.24 226.50 277.60 224.00 272.77 224.08 Z" fill="#fcb612" opacity="1.00" stroke="#fcb612" stroke-width="0.25"/>
<path d="M 289.32 223.30 C 293.09 222.72 296.89 223.35 300.63 223.88 C 297.30 224.15 293.95 224.17 290.65 224.68 C 289.75 226.03 290.76 227.81 290.77 229.30 C 293.49 229.33 296.20 229.35 298.91 229.35 C 299.17 228.46 299.67 226.69 299.92 225.81 C 300.13 227.69 300.19 229.58 300.25 231.47 C 296.67 231.08 293.08 230.74 289.49 230.55 C 289.01 228.16 288.14 225.63 289.32 223.30 Z" fill="#e4c152" opacity="1.00" stroke="#e4c152" stroke-width="0.25"/>
<path d="M 290.65 224.68 C 293.95 224.17 297.30 224.15 300.63 223.88 L 301.51 223.95 C 301.41 224.75 301.20 226.33 301.10 227.12 C 300.81 228.57 300.53 230.02 300.25 231.47 C 300.19 229.58 300.13 227.69 299.92 225.81 C 299.67 226.69 299.17 228.46 298.91 229.35 C 296.20 229.35 293.49 229.33 290.77 229.30 C 290.76 227.81 289.75 226.03 290.65 224.68 Z" fill="#feb914" opacity="1.00" stroke="#feb914" stroke-width="0.25"/>
<path d="M 255.47 225.53 C 260.00 227.54 264.89 228.42 269.73 229.34 C 269.68 231.99 270.59 235.86 267.00 236.53 C 263.21 236.49 259.63 235.02 255.99 234.13 C 255.74 231.26 255.49 228.40 255.47 225.53 Z" fill="#fab517" opacity="1.00" stroke="#fab517" stroke-width="0.25"/>
<path d="M 271.40 234.77 C 271.57 231.86 269.37 227.32 273.02 225.88 C 277.07 225.64 280.98 227.12 285.00 227.36 C 285.38 228.85 287.18 230.42 286.11 231.98 C 285.13 233.65 283.51 234.79 282.09 236.06 C 278.51 235.73 274.93 235.41 271.40 234.77 Z" fill="#fcb717" opacity="1.00" stroke="#fcb717" stroke-width="0.25"/>
<path d="M 285.00 227.36 C 286.24 227.61 287.24 228.22 288.00 229.21 C 287.94 231.83 286.46 234.06 285.01 236.14 C 284.28 236.12 282.82 236.08 282.09 236.06 C 283.51 234.79 285.13 233.65 286.11 231.98 C 287.18 230.42 285.38 228.85 285.00 227.36 Z" fill="#d9b83f" opacity="1.00" stroke="#d9b83f" stroke-width="0.25"/>
<path d="M 289.27 232.09 C 289.72 232.08 290.62 232.07 291.07 232.06 C 290.04 233.68 289.03 235.29 288.01 236.91 C 288.64 237.76 289.28 238.62 289.91 239.47 C 288.47 239.25 287.03 239.02 285.59 238.80 C 286.70 236.50 287.88 234.23 289.27 232.09 Z" fill="#d8b445" opacity="1.00" stroke="#d8b445" stroke-width="0.25"/>
<path d="M 291.07 232.06 C 294.04 232.27 296.97 232.76 299.92 233.21 C 299.51 235.82 299.20 238.45 298.78 241.07 C 295.83 240.50 292.88 239.94 289.91 239.47 C 289.28 238.62 288.64 237.76 288.01 236.91 C 289.03 235.29 290.04 233.68 291.07 232.06 Z" fill="#fab81c" opacity="1.00" stroke="#fab81c" stroke-width="0.25"/>
<path d="M 256.77 236.01 C 260.42 236.87 264.06 237.77 267.70 238.69 C 267.11 240.71 266.97 243.05 265.32 244.56 C 263.91 243.98 262.47 243.86 260.98 244.21 C 260.19 244.24 258.61 244.29 257.81 244.32 C 257.52 243.08 257.22 241.83 256.94 240.59 C 256.86 239.06 256.81 237.53 256.77 236.01 Z" fill="#fbb514" opacity="1.00" stroke="#fbb514" stroke-width="0.25"/>
<path d="M 268.77 243.05 C 268.96 240.96 267.74 238.04 269.96 236.71 C 274.65 236.16 279.53 236.82 284.10 237.89 C 285.76 240.19 283.90 242.69 282.71 244.71 C 278.01 244.82 273.33 244.21 268.77 243.05 Z" fill="#e4c152" opacity="1.00" stroke="#e4c152" stroke-width="0.25"/>
<path d="M 270.06 238.15 C 274.04 238.47 278.03 238.43 282.00 238.83 C 284.41 239.62 283.02 243.11 280.97 243.13 C 277.87 243.37 274.41 243.97 271.54 242.52 C 269.83 241.75 270.44 239.61 270.06 238.15 Z" fill="#ffb812" opacity="1.00" stroke="#ffb812" stroke-width="0.25"/>
<path d="M 286.27 241.06 C 290.22 241.17 294.31 241.27 297.98 242.89 C 298.03 243.38 298.13 244.35 298.18 244.84 C 297.75 247.23 297.17 249.59 296.42 251.91 C 292.78 251.35 288.57 251.80 285.45 249.56 C 283.15 246.96 285.27 243.71 286.27 241.06 Z" fill="#feb716" opacity="1.00" stroke="#feb716" stroke-width="0.25"/>
<path d="M 260.98 244.21 C 262.47 243.86 263.91 243.98 265.32 244.56 C 264.26 246.19 262.07 245.31 260.98 244.21 Z" fill="#d3b256" opacity="1.00" stroke="#d3b256" stroke-width="0.25"/>
<path d="M 266.37 248.42 C 265.44 246.81 266.87 243.61 268.97 244.45 C 273.39 245.70 277.95 246.31 282.54 246.43 C 282.99 247.88 283.43 249.34 283.88 250.79 C 282.81 251.75 281.74 252.72 280.69 253.69 C 278.32 253.07 275.96 252.40 273.65 251.59 C 276.06 251.55 278.47 251.75 280.87 251.52 C 281.98 250.83 281.68 249.13 282.16 248.04 C 277.39 246.66 272.42 246.40 267.49 246.13 C 267.91 248.68 270.31 249.88 272.18 251.28 C 270.14 250.77 267.17 250.86 266.37 248.42 Z" fill="#e4c152" opacity="1.00" stroke="#e4c152" stroke-width="0.25"/>
<path d="M 242.46 245.57 C 242.94 245.50 243.91 245.36 244.40 245.29 C 244.38 247.81 244.39 250.33 244.40 252.85 C 243.99 252.81 243.17 252.74 242.76 252.71 C 242.44 250.34 242.50 247.95 242.46 245.57 Z" fill="#003939" opacity="1.00" stroke="#003939" stroke-width="0.25"/>
<path d="M 258.05 245.32 C 258.45 245.44 259.25 245.68 259.65 245.80 C 259.81 248.70 260.32 251.57 261.12 254.36 C 264.59 252.98 263.56 249.24 262.52 246.55 C 263.15 246.71 264.41 247.04 265.04 247.20 C 265.56 250.01 264.79 252.74 263.77 255.34 C 262.43 255.29 261.08 255.27 259.74 255.26 C 258.96 251.98 258.50 248.65 258.05 245.32 Z" fill="#e4c152" opacity="1.00" stroke="#e4c152" stroke-width="0.25"/>
<path d="M 259.65 245.80 C 260.37 245.99 261.80 246.37 262.52 246.55 C 263.56 249.24 264.59 252.98 261.12 254.36 C 260.32 251.57 259.81 248.70 259.65 245.80 Z" fill="#ffb60c" opacity="1.00" stroke="#ffb60c" stroke-width="0.25"/>
<path d="M 267.49 246.13 C 272.42 246.40 277.39 246.66 282.16 248.04 C 281.68 249.13 281.98 250.83 280.87 251.52 C 278.47 251.75 276.06 251.55 273.65 251.59 C 273.40 251.60 272.89 251.60 272.63 251.60 L 272.18 251.28 C 270.31 249.88 267.91 248.68 267.49 246.13 Z" fill="#ffb514" opacity="1.00" stroke="#ffb514" stroke-width="0.25"/>
<path d="M 266.50 251.96 C 270.45 252.37 274.31 253.36 278.11 254.51 C 278.24 256.70 279.97 259.32 278.26 261.23 C 276.49 261.89 274.58 262.10 272.72 262.39 L 272.39 262.33 C 269.96 261.58 267.47 261.03 264.97 260.62 C 265.06 258.22 265.28 255.84 265.76 253.49 C 265.94 253.11 266.32 252.34 266.50 251.96 Z" fill="#fdb715" opacity="1.00" stroke="#fdb715" stroke-width="0.25"/>
<path d="M 281.37 259.67 C 280.22 256.51 281.78 253.10 285.07 252.22 C 288.72 252.55 292.31 253.48 296.00 253.31 C 295.67 256.24 295.20 259.14 294.63 262.03 C 290.29 260.79 285.78 260.47 281.37 259.67 Z" fill="#fab919" opacity="1.00" stroke="#fab919" stroke-width="0.25"/>
<path d="M 263.77 255.34 C 264.27 254.88 265.26 253.95 265.76 253.49 C 265.28 255.84 265.06 258.22 264.97 260.62 C 267.47 261.03 269.96 261.58 272.39 262.33 C 269.55 262.18 266.71 262.12 263.87 261.99 C 263.44 259.79 263.35 257.54 263.77 255.34 Z" fill="#d8b540" opacity="1.00" stroke="#d8b540" stroke-width="0.25"/>
<path d="M 278.11 254.51 C 280.37 256.12 280.05 259.36 279.70 261.77 C 278.20 264.46 275.04 262.61 272.72 262.39 C 274.58 262.10 276.49 261.89 278.26 261.23 C 279.97 259.32 278.24 256.70 278.11 254.51 Z" fill="#e4c152" opacity="1.00" stroke="#e4c152" stroke-width="0.25"/>
<path d="M 259.90 255.97 C 262.14 258.32 262.64 261.53 262.60 264.66 C 261.39 263.61 260.54 262.28 260.05 260.78 C 260.01 259.17 259.97 257.57 259.90 255.97 Z" fill="#c6b65e" opacity="1.00" stroke="#c6b65e" stroke-width="0.25"/>
<path d="M 279.01 264.98 C 282.25 259.72 289.16 261.97 293.82 263.76 C 293.60 265.56 293.38 267.37 293.17 269.18 C 288.87 268.61 284.43 268.50 280.29 267.13 C 279.97 266.59 279.33 265.52 279.01 264.98 Z" fill="#fbb618" opacity="1.00" stroke="#fbb618" stroke-width="0.25"/>
<path d="M 264.29 263.97 C 267.68 263.10 271.28 263.95 274.67 264.51 C 270.85 265.04 267.01 265.34 263.18 265.70 C 263.45 265.27 264.01 264.40 264.29 263.97 Z" fill="#e9b943" opacity="1.00" stroke="#e9b943" stroke-width="0.25"/>
<path d="M 274.67 264.51 C 275.14 264.45 276.07 264.33 276.54 264.27 L 276.55 264.41 C 276.73 266.25 276.95 268.08 277.17 269.92 C 272.95 269.75 268.73 269.67 264.52 269.66 C 264.31 269.06 263.90 267.85 263.69 267.25 L 263.18 265.70 C 267.01 265.34 270.85 265.04 274.67 264.51 Z" fill="#ffb416" opacity="1.00" stroke="#ffb416" stroke-width="0.25"/>
<path d="M 277.17 269.92 C 276.95 268.08 276.73 266.25 276.55 264.41 C 279.36 265.47 279.25 269.70 277.27 271.48 C 272.53 271.13 267.78 270.60 263.00 270.81 C 263.09 269.29 263.20 267.77 263.34 266.26 L 263.69 267.25 C 263.90 267.85 264.31 269.06 264.52 269.66 C 268.73 269.67 272.95 269.75 277.17 269.92 Z" fill="#c8ab47" opacity="1.00" stroke="#c8ab47" stroke-width="0.25"/>
<path d="M 248.12 270.05 C 249.75 269.52 250.29 270.07 249.75 271.71 C 248.12 272.24 247.58 271.69 248.12 270.05 Z" fill="#24710f" opacity="1.00" stroke="#24710f" stroke-width="0.25"/>
<path d="M 278.69 278.33 C 278.36 275.21 278.82 272.09 279.81 269.14 C 283.96 269.53 288.10 270.00 292.19 270.86 L 292.52 272.02 C 291.84 274.22 291.16 276.44 290.56 278.67 C 286.60 278.58 282.65 278.48 278.69 278.33 Z" fill="#fcb816" opacity="1.00" stroke="#fcb816" stroke-width="0.25"/>
<path d="M 262.62 272.16 C 267.70 271.65 272.96 271.47 277.76 273.52 C 277.23 276.36 276.63 279.18 275.89 281.97 C 271.79 281.21 267.72 280.31 263.59 279.70 C 263.38 279.32 262.96 278.55 262.74 278.17 C 262.70 276.16 262.65 274.16 262.62 272.16 Z" fill="#fcb719" opacity="1.00" stroke="#fcb719" stroke-width="0.25"/>
<path d="M 278.56 280.56 C 282.20 279.31 286.15 280.24 289.92 280.17 C 289.24 283.26 288.53 286.35 287.62 289.39 C 284.17 289.13 280.27 289.76 277.28 287.63 C 275.83 285.25 276.04 282.12 278.56 280.56 Z" fill="#fbb714" opacity="1.00" stroke="#fbb714" stroke-width="0.25"/>
<path d="M 263.66 281.47 C 267.20 282.15 270.85 282.50 274.26 283.74 C 276.16 285.61 275.42 288.33 274.99 290.63 C 271.48 290.67 267.96 290.75 264.45 290.86 C 264.24 287.72 263.70 284.61 263.66 281.47 Z" fill="#fab918" opacity="1.00" stroke="#fab918" stroke-width="0.25"/>
<path d="M 275.99 297.88 C 276.09 295.22 275.34 291.71 278.02 290.04 C 281.10 289.99 284.16 290.50 287.23 290.78 C 286.46 293.73 285.63 296.66 284.59 299.53 C 281.69 299.17 278.81 298.63 275.99 297.88 Z" fill="#fbb616" opacity="1.00" stroke="#fbb616" stroke-width="0.25"/>
<path d="M 265.25 293.16 C 267.98 293.23 270.72 293.26 273.44 293.55 L 273.72 293.95 C 271.02 293.58 268.29 293.50 265.57 293.43 C 265.57 296.51 265.62 299.58 265.51 302.66 C 265.50 302.53 265.47 302.26 265.46 302.13 C 265.31 299.14 265.31 296.15 265.25 293.16 Z" fill="#ffffff" opacity="1.00" stroke="#ffffff" stroke-width="0.25"/>
<path d="M 265.57 293.43 C 268.29 293.50 271.02 293.58 273.72 293.95 C 273.99 294.38 274.53 295.25 274.80 295.68 C 272.15 294.88 269.41 294.51 266.64 294.54 C 266.74 297.32 265.83 301.25 269.40 302.13 C 271.00 300.20 272.70 298.37 274.44 296.57 C 273.57 299.19 271.99 301.46 270.27 303.59 C 268.68 303.26 267.10 302.95 265.51 302.66 C 265.62 299.58 265.57 296.51 265.57 293.43 Z" fill="#e4c152" opacity="1.00" stroke="#e4c152" stroke-width="0.25"/>
<path d="M 266.64 294.54 C 269.41 294.51 272.15 294.88 274.80 295.68 L 274.44 296.57 C 272.70 298.37 271.00 300.20 269.40 302.13 C 265.83 301.25 266.74 297.32 266.64 294.54 Z" fill="#ffb713" opacity="1.00" stroke="#ffb713" stroke-width="0.25"/>
<path d="M 272.43 303.97 C 273.21 302.19 274.49 300.72 275.64 299.19 C 278.41 299.93 281.19 300.64 283.98 301.35 C 283.06 304.28 282.20 307.25 280.92 310.05 C 278.30 309.64 275.68 309.21 273.06 308.77 C 272.81 307.17 272.50 305.58 272.43 303.97 Z" fill="#fab818" opacity="1.00" stroke="#fab818" stroke-width="0.25"/>
<path d="M 265.79 304.31 C 267.44 304.60 269.09 304.89 270.74 305.19 C 271.11 306.48 271.49 307.77 271.87 309.06 C 270.56 310.37 269.25 311.69 267.94 313.01 C 267.42 312.79 266.38 312.36 265.86 312.14 C 265.85 311.66 265.83 310.72 265.82 310.25 C 265.78 308.27 265.78 306.29 265.79 304.31 Z" fill="#d8b34c" opacity="1.00" stroke="#d8b34c" stroke-width="0.25"/>
<path d="M 267.12 305.79 C 268.22 306.34 269.71 306.60 270.21 307.92 C 269.99 309.68 268.25 310.25 266.95 311.07 C 266.93 309.30 266.98 307.54 267.12 305.79 Z" fill="#f6b310" opacity="1.00" stroke="#f6b310" stroke-width="0.25"/>
<path d="M 270.46 312.50 C 273.06 309.65 277.07 311.15 280.36 311.33 C 279.29 314.09 278.42 316.92 277.24 319.64 C 274.93 319.27 272.64 318.89 270.34 318.52 C 270.19 316.55 268.48 314.02 270.46 312.50 Z" fill="#fab81e" opacity="1.00" stroke="#fab81e" stroke-width="0.25"/>
<path d="M 266.51 314.01 C 268.98 315.86 270.49 321.44 266.89 323.07 C 266.64 320.06 266.50 317.03 266.51 314.01 Z" fill="#c7b263" opacity="1.00" stroke="#c7b263" stroke-width="0.25"/>
<path d="M 271.32 320.20 C 272.51 320.29 273.70 320.38 274.89 320.47 C 273.66 324.84 272.35 329.53 268.43 332.31 L 267.67 330.97 C 266.36 326.80 269.31 323.48 271.32 320.20 Z" fill="#f7b513" opacity="1.00" stroke="#f7b513" stroke-width="0.25"/>
<path d="M 274.89 320.47 C 275.38 320.48 276.35 320.52 276.83 320.54 C 275.26 324.04 273.96 327.67 272.02 330.99 C 271.48 332.61 269.73 332.22 268.43 332.31 C 272.35 329.53 273.66 324.84 274.89 320.47 Z" fill="#e4c152" opacity="1.00" stroke="#e4c152" stroke-width="0.25"/>
<path d="M 267.77 340.24 C 267.53 337.53 267.47 334.81 267.62 332.10 C 271.52 333.81 268.54 337.52 267.77 340.24 Z" fill="#e4c152" opacity="1.00" stroke="#e4c152" stroke-width="0.25"/>
<path d="M 212.26 368.05 C 217.55 372.53 223.50 376.33 230.11 378.51 C 240.36 381.51 251.36 381.00 261.62 378.35 C 262.20 383.40 258.64 387.58 256.08 391.56 C 253.51 393.91 250.57 396.22 246.98 396.57 C 237.31 397.65 227.29 395.13 219.31 389.57 C 212.81 384.74 211.01 375.67 212.26 368.05 Z" fill="#7ed340" opacity="1.00" stroke="#7ed340" stroke-width="0.25"/>
<path d="M 219.31 389.57 C 227.29 395.13 237.31 397.65 246.98 396.57 C 250.57 396.22 253.51 393.91 256.08 391.56 C 256.84 394.27 254.13 395.25 252.32 396.42 C 247.03 399.97 240.38 397.21 234.61 399.20 C 229.67 398.35 225.08 396.26 220.48 394.37 C 220.43 392.70 219.94 391.10 219.31 389.57 Z" fill="#003939" opacity="1.00" stroke="#003939" stroke-width="0.25"/>
<path d="M 219.70 394.05 L 220.48 394.37 C 225.08 396.26 229.67 398.35 234.61 399.20 C 238.47 400.11 242.44 400.34 246.39 400.19 C 243.75 415.36 241.75 430.63 239.62 445.87 C 229.51 445.48 219.55 443.26 209.93 440.23 C 210.06 438.17 210.14 436.10 210.49 434.08 C 213.49 420.72 216.87 407.45 219.70 394.05 Z" fill="#7fd441" opacity="1.00" stroke="#7fd441" stroke-width="0.25"/>
</svg>