<svg xmlns="http://www.w3.org/2000/svg" height="512pt" version="1.1" viewBox="0 0 512 512" width="512pt">

<path d="M 109.53 88.39 C 112.08 84.61 117.20 83.36 121.17 85.72 C 132.34 91.72 144.36 96.45 156.95 98.27 C 162.97 93.38 169.91 89.05 177.85 88.49 C 188.41 87.14 199.60 91.21 206.40 99.49 C 209.34 102.97 210.96 107.29 212.63 111.47 C 222.26 112.96 232.08 114.30 241.80 112.79 C 245.57 112.35 249.86 111.21 253.16 113.75 C 256.08 115.43 257.54 119.15 256.23 122.33 C 253.89 128.43 249.62 133.60 245.04 138.17 C 253.58 146.00 265.69 149.00 277.05 148.10 C 295.97 146.62 313.08 136.85 331.95 135.00 C 346.15 133.29 361.29 137.40 371.84 147.26 C 380.31 154.99 385.03 165.90 387.74 176.85 C 392.63 196.49 393.92 216.80 394.88 236.95 C 395.59 247.99 395.42 259.06 395.41 270.12 C 402.43 274.87 403.59 284.21 404.16 291.99 C 403.86 299.79 403.47 307.73 401.17 315.25 C 398.61 311.26 398.62 306.30 397.37 301.85 C 396.60 307.26 395.94 312.70 395.00 318.08 C 394.87 319.62 394.06 320.93 393.09 322.09 C 390.14 316.11 387.89 309.81 385.54 303.58 C 384.64 307.89 384.70 312.41 382.99 316.52 C 380.42 312.47 380.01 307.59 379.09 303.00 C 378.03 295.76 377.75 288.20 379.72 281.08 C 380.88 276.90 383.48 273.38 386.12 270.02 C 386.56 254.34 385.23 238.66 384.44 223.01 C 384.22 218.60 383.83 214.19 383.22 209.82 C 378.25 256.02 371.34 301.97 365.24 348.03 C 363.55 360.02 361.73 372.00 360.04 383.99 C 359.30 388.79 358.80 393.66 357.26 398.29 C 351.65 400.05 345.74 400.69 339.91 401.18 C 336.97 400.92 336.04 398.21 335.46 395.75 C 328.81 396.40 322.12 396.87 315.43 396.54 C 314.06 370.38 314.79 344.16 313.84 317.99 C 314.20 313.17 312.37 307.72 315.66 303.60 C 316.83 302.09 318.76 303.23 320.16 303.67 C 320.44 304.91 320.71 306.16 320.98 307.41 C 323.54 307.42 327.02 308.18 328.01 304.99 C 329.66 298.89 327.77 292.48 326.42 286.49 C 310.76 289.27 295.00 291.52 279.24 293.65 L 277.67 293.78 C 270.23 329.90 264.48 366.37 260.48 403.03 C 260.28 405.15 260.34 407.38 259.37 409.34 C 257.97 410.68 255.95 410.95 254.14 411.40 C 248.14 412.59 241.59 413.92 235.82 411.14 C 231.71 381.85 229.25 352.35 225.84 322.96 C 225.33 320.08 225.80 316.91 224.46 314.24 C 224.55 343.68 229.18 372.86 232.17 402.07 C 232.06 404.67 229.04 404.98 227.06 405.31 C 218.04 405.85 209.01 406.65 199.96 406.45 C 197.45 406.73 197.35 403.78 196.97 402.09 C 188.29 357.10 179.02 312.23 169.99 267.31 C 169.41 264.64 169.48 261.70 167.76 259.42 C 163.66 253.19 161.30 246.01 159.73 238.77 C 144.76 236.93 130.11 230.39 119.63 219.39 C 110.11 209.41 106.21 194.41 109.90 181.09 C 114.60 162.35 124.58 145.55 133.97 128.85 C 125.28 126.51 117.58 120.59 113.56 112.48 C 109.98 105.06 108.56 96.58 109.53 88.39 Z" fill="#043557" opacity="1.00" stroke="#043557" stroke-width="0.25" data-index="1" style="opacity: 1;"></path>
<path d="M 118.42 94.53 C 127.70 100.71 138.47 104.08 149.24 106.57 C 145.75 111.03 142.70 115.82 139.31 120.37 C 133.47 119.31 127.64 116.71 124.06 111.79 C 120.21 106.87 119.40 100.50 118.42 94.53 Z" fill="#fdfeff" opacity="1.00" stroke="#fdfeff" stroke-width="0.25" data-index="2"></path>
<path d="M 168.32 102.17 C 177.22 96.07 190.69 96.59 198.20 104.71 C 203.34 110.57 204.76 118.54 206.02 125.98 C 208.92 146.81 209.09 168.03 206.54 188.90 C 181.93 174.73 153.63 166.49 125.12 167.16 C 130.55 153.60 138.08 140.98 145.73 128.57 C 152.19 118.99 158.37 108.56 168.32 102.17 Z" fill="#fdfeff" opacity="1.00" stroke="#fdfeff" stroke-width="0.25" data-index="3"></path>
<path d="M 215.10 121.35 C 225.31 123.53 235.81 123.75 246.13 122.29 C 243.13 126.16 240.20 130.29 236.00 132.97 C 230.59 136.86 223.84 138.13 217.33 138.60 C 216.48 132.86 215.89 127.09 215.10 121.35 Z" fill="#fdfeff" opacity="1.00" stroke="#fdfeff" stroke-width="0.25" data-index="4"></path>
<path d="M 148.31 146.95 C 147.97 141.13 154.95 137.87 159.77 140.42 C 161.39 142.32 163.48 144.28 163.36 147.01 C 163.69 150.11 161.49 152.50 159.43 154.49 C 157.11 154.78 154.76 154.80 152.43 154.53 C 150.22 152.55 147.72 150.26 148.31 146.95 Z" fill="#043557" opacity="1.00" stroke="#043557" stroke-width="0.25" data-index="5"></path>
<path d="M 217.58 148.24 C 224.15 147.63 230.70 146.51 236.85 144.04 C 247.94 154.59 263.82 159.62 278.97 157.91 C 289.72 156.87 300.02 153.44 310.27 150.25 C 319.86 147.12 329.73 144.08 339.94 144.46 C 349.80 144.63 360.40 148.32 366.22 156.70 C 370.62 163.69 372.58 171.95 373.42 180.09 C 374.46 193.70 373.56 207.37 372.04 220.91 C 368.59 253.67 363.45 286.23 359.26 318.91 C 356.14 339.24 353.90 359.71 350.43 379.97 C 348.45 380.45 346.53 379.89 344.65 379.32 C 344.11 358.48 343.31 337.62 341.07 316.87 C 337.71 287.75 330.94 258.98 320.75 231.49 C 319.91 229.42 319.23 227.09 317.42 225.65 C 315.80 224.95 313.60 224.87 312.41 226.37 C 310.48 228.25 311.34 231.18 311.90 233.47 C 316.01 248.05 321.36 262.35 324.01 277.31 C 309.14 279.37 294.34 282.00 279.44 283.83 C 279.81 277.95 282.85 271.74 280.23 266.06 C 278.62 266.37 276.45 265.74 275.42 267.39 C 273.28 270.14 272.91 273.76 271.99 277.03 C 262.17 314.80 257.01 353.55 251.43 392.11 C 248.90 392.32 246.33 392.61 243.82 392.04 C 243.33 391.03 242.96 389.97 242.79 388.87 C 240.36 365.60 237.70 342.34 235.30 319.06 C 233.93 308.35 233.50 297.53 232.06 286.84 C 231.53 283.51 227.65 284.09 225.63 285.62 C 225.50 286.22 225.24 287.41 225.11 288.01 C 207.99 287.18 192.06 277.68 181.74 264.22 C 176.01 256.93 172.21 248.32 169.49 239.51 C 180.49 239.22 192.21 237.18 200.78 229.74 C 209.11 222.30 212.67 211.15 214.77 200.51 C 217.88 183.28 218.24 165.68 217.58 148.24 Z" fill="#fdfeff" opacity="1.00" stroke="#fdfeff" stroke-width="0.25" data-index="6" style="opacity: 1;"></path>
<path d="M 178.66 152.09 C 181.22 150.10 184.55 147.63 187.91 149.26 C 192.47 150.48 194.29 156.36 192.19 160.31 C 191.35 162.51 189.02 163.43 187.14 164.52 C 183.67 164.49 179.73 163.18 178.37 159.68 C 177.27 157.20 178.19 154.58 178.66 152.09 Z" fill="#043557" opacity="1.00" stroke="#043557" stroke-width="0.25" data-index="7"></path>
<path d="M 330.47 160.47 C 335.15 157.54 341.52 156.56 346.34 159.74 C 351.66 162.95 351.84 170.84 348.56 175.59 C 342.18 184.45 328.03 186.57 319.65 179.36 C 314.55 175.16 312.71 168.06 313.67 161.69 C 315.51 161.15 317.90 159.60 319.39 161.63 C 320.98 165.13 320.78 169.51 323.72 172.34 C 328.46 177.12 337.05 176.19 341.53 171.48 C 343.07 170.28 342.47 168.13 342.72 166.44 C 339.21 164.29 335.53 167.45 331.92 166.28 C 329.68 165.20 330.61 162.41 330.47 160.47 Z" fill="#043557" opacity="1.00" stroke="#043557" stroke-width="0.25" data-index="8"></path>
<path d="M 292.28 174.35 C 295.26 172.79 298.26 174.30 299.87 177.02 C 307.70 190.85 304.51 210.09 291.97 220.11 C 288.14 223.45 283.06 225.24 278.01 225.38 C 272.50 225.45 267.16 221.31 266.15 215.84 C 264.89 210.46 267.50 205.11 271.07 201.22 C 273.25 198.90 275.38 195.27 279.14 196.17 C 281.72 196.31 281.91 199.20 281.41 201.18 C 279.23 204.60 275.26 206.82 274.10 210.89 C 273.46 212.58 273.45 214.79 274.84 216.12 C 278.56 218.48 283.17 216.66 286.46 214.38 C 296.51 206.68 299.55 191.42 293.30 180.42 C 292.07 178.61 292.08 176.44 292.28 174.35 Z" fill="#043557" opacity="1.00" stroke="#043557" stroke-width="0.25" data-index="9"></path>
<path d="M 121.62 206.37 C 116.13 197.28 117.61 186.12 120.70 176.47 C 150.48 175.49 180.51 183.74 205.72 199.62 C 202.93 208.59 200.51 218.77 192.22 224.37 C 182.26 230.16 170.17 230.44 159.03 229.03 C 144.31 226.72 129.53 219.45 121.62 206.37 Z" fill="#f35c2d" opacity="1.00" stroke="#f35c2d" stroke-width="0.25" data-index="10"></path>
<path d="M 130.38 183.97 C 132.24 183.83 134.80 182.72 135.99 184.80 C 137.09 189.81 137.60 194.94 138.17 200.03 C 138.42 201.85 138.12 203.71 137.31 205.37 C 136.34 206.98 134.21 206.21 132.67 206.52 C 130.15 199.29 130.08 191.53 130.38 183.97 Z" fill="#043557" opacity="1.00" stroke="#043557" stroke-width="0.25" data-index="11"></path>
<path d="M 186.58 200.40 C 187.77 200.44 188.97 200.48 190.16 200.52 C 190.56 201.18 191.34 202.49 191.74 203.14 C 189.05 207.48 184.89 210.58 181.87 214.64 C 180.24 216.37 178.82 219.43 175.94 218.59 C 173.39 218.37 172.83 215.14 174.24 213.38 C 177.53 208.35 182.31 204.55 186.58 200.40 Z" fill="#043557" opacity="1.00" stroke="#043557" stroke-width="0.25" data-index="12"></path>
<path d="M 182.41 279.03 C 186.15 282.45 190.05 285.75 194.49 288.25 C 201.96 320.27 208.62 352.62 211.54 385.41 C 208.95 385.73 206.34 385.83 203.74 385.81 C 196.96 350.15 189.29 314.66 182.41 279.03 Z" fill="#fdfeff" opacity="1.00" stroke="#fdfeff" stroke-width="0.25" data-index="13"></path>
<path d="M 279.24 293.65 C 295.00 291.52 310.76 289.27 326.42 286.49 C 327.77 292.48 329.66 298.89 328.01 304.99 C 327.02 308.18 323.54 307.42 320.98 307.41 C 320.71 306.16 320.44 304.91 320.16 303.67 C 320.05 301.54 317.48 302.20 316.08 302.21 C 314.27 302.37 313.75 304.47 313.51 305.95 C 313.33 308.91 312.16 311.66 311.17 314.42 C 309.03 314.51 306.25 315.46 304.86 313.23 C 301.92 309.30 300.49 304.50 298.38 300.12 C 293.42 300.09 291.44 305.52 288.41 308.56 C 287.00 311.32 282.41 311.51 280.98 308.71 C 279.06 303.94 279.47 298.68 279.24 293.65 Z" fill="#f35c2d" opacity="1.00" stroke="#f35c2d" stroke-width="0.25" data-index="14"></path>
</svg>