<?xml version="1.0" encoding="utf-8"?>
<svg xmlns="http://www.w3.org/2000/svg" height="512pt" version="1.1" viewBox="0 0 512 512" width="512pt">
<path d="M 0.00 0.00 L 512.00 0.00 L 512.00 512.00 L 0.00 512.00 L 0.00 0.00 Z" fill="transparent" opacity="1.00" stroke="transparent" stroke-width="0.25"/>
<path d="M 163.98 120.21 C 168.57 118.59 173.53 117.73 178.38 118.55 C 178.85 122.23 176.88 125.41 174.94 128.34 C 164.49 144.25 165.92 166.15 176.36 181.72 C 176.77 181.65 177.60 181.52 178.01 181.46 C 188.05 170.38 195.23 156.80 198.80 142.29 C 200.33 142.54 202.14 142.29 203.21 143.68 C 208.75 149.00 212.38 156.24 213.60 163.80 C 217.21 184.18 211.47 205.76 199.11 222.24 C 193.75 229.19 186.70 235.09 178.29 237.91 C 178.32 239.32 178.35 240.74 178.39 242.16 C 184.99 242.06 190.29 246.43 195.98 249.12 C 199.58 251.21 203.30 253.10 207.07 254.87 C 214.26 247.70 223.05 242.00 232.86 239.18 C 232.75 237.84 232.64 236.50 232.51 235.17 C 225.56 234.40 221.26 226.42 224.12 220.12 C 226.64 212.95 237.82 211.88 241.92 218.16 C 245.57 223.16 243.87 230.65 238.63 233.88 C 238.81 234.67 239.15 236.25 239.32 237.04 C 250.51 235.37 262.04 234.74 273.15 237.37 C 273.36 236.19 273.57 235.01 273.79 233.83 C 269.74 231.05 267.25 225.82 269.21 221.03 C 271.05 215.13 278.41 212.30 283.85 215.10 C 290.16 218.09 291.14 227.57 286.16 232.22 C 284.56 233.81 282.35 234.46 280.26 235.13 C 280.01 236.47 279.77 237.82 279.54 239.17 C 289.17 242.23 298.21 247.43 305.15 254.85 C 312.89 251.61 319.87 246.84 327.53 243.44 C 329.61 242.44 331.92 242.28 334.17 242.06 C 334.22 240.69 334.27 239.32 334.32 237.95 C 322.11 234.05 313.16 223.75 307.16 212.83 C 298.79 197.06 295.69 178.43 299.38 160.90 C 300.96 153.68 305.31 147.34 310.64 142.33 C 311.96 142.66 314.22 141.95 314.26 143.97 C 316.18 151.38 318.96 158.59 322.76 165.26 C 326.44 171.36 330.12 177.62 335.48 182.44 C 343.80 170.24 347.04 154.39 342.79 140.10 C 341.31 134.23 337.86 129.20 334.98 123.98 C 333.97 122.30 334.29 120.32 334.42 118.48 C 339.26 117.68 344.17 118.73 348.75 120.30 C 360.89 124.51 371.26 132.90 379.04 143.01 C 397.46 166.02 397.79 202.09 378.54 224.69 C 373.42 230.84 366.52 235.41 358.94 237.95 C 358.51 243.96 357.65 249.94 356.39 255.83 C 348.52 258.51 341.58 263.22 333.95 266.42 C 328.63 267.27 323.28 268.12 318.22 270.08 C 319.39 272.04 320.73 273.89 322.03 275.77 C 329.03 273.73 335.81 271.04 342.70 268.67 C 352.73 264.66 363.40 262.50 374.09 261.16 C 376.16 255.11 377.18 248.46 381.21 243.30 C 387.97 233.92 394.84 224.59 400.05 214.22 C 400.65 214.26 401.86 214.35 402.46 214.39 C 402.92 214.86 403.83 215.82 404.28 216.29 C 405.46 219.68 407.32 223.15 406.29 226.84 C 404.26 237.06 402.42 247.32 400.19 257.49 C 399.74 260.46 396.84 261.94 394.92 263.92 C 389.64 268.58 385.53 274.38 380.60 279.37 C 372.81 281.29 365.08 283.57 357.55 286.41 C 348.41 288.65 338.75 288.49 329.77 291.45 C 329.61 292.16 329.28 293.57 329.12 294.28 C 340.76 294.13 352.37 294.96 363.97 295.88 C 375.64 296.95 387.33 298.59 398.57 302.00 C 402.37 303.22 406.46 304.69 408.92 308.04 C 410.75 310.76 411.52 313.99 412.43 317.10 C 413.87 322.20 415.21 327.59 414.15 332.90 C 411.64 346.61 406.72 359.86 399.82 371.98 C 396.59 377.59 393.19 383.34 388.28 387.66 C 387.59 387.25 386.20 386.43 385.51 386.02 C 386.90 375.83 389.51 365.85 391.02 355.68 C 392.97 342.77 394.49 329.74 394.36 316.67 C 390.62 317.35 386.89 318.63 383.04 318.22 C 372.70 317.32 362.31 317.50 351.94 317.61 C 350.61 317.65 349.32 317.26 348.07 316.88 C 339.08 313.91 329.89 311.43 320.51 310.05 C 319.26 311.96 317.94 313.83 316.55 315.65 C 322.50 317.28 328.58 318.36 334.53 320.00 C 347.90 323.40 360.40 329.42 372.79 335.35 C 376.62 336.83 377.20 341.26 377.57 344.82 C 378.30 352.51 379.87 360.20 379.34 367.95 C 377.05 380.47 373.81 392.92 368.41 404.49 C 366.62 408.65 364.64 412.88 361.20 415.95 C 360.52 415.74 359.16 415.34 358.49 415.13 C 357.90 405.06 359.22 394.97 358.71 384.89 C 358.27 378.88 356.34 373.06 356.15 367.03 C 356.45 360.41 357.38 353.83 358.30 347.28 C 351.47 346.44 344.33 347.65 337.75 345.23 C 324.62 341.34 311.39 337.74 298.01 334.83 C 294.21 333.64 290.61 335.94 286.91 336.47 C 264.21 341.09 240.32 340.71 217.97 334.46 C 203.24 336.82 188.88 341.25 174.51 345.22 C 168.03 347.49 161.07 346.63 154.35 347.22 C 154.85 353.87 155.93 360.46 156.34 367.11 C 155.96 373.47 154.10 379.65 153.62 386.00 C 153.46 393.66 153.97 401.32 154.25 408.98 C 154.39 411.32 153.99 413.64 153.40 415.91 C 152.60 415.71 151.01 415.31 150.21 415.12 C 146.70 411.07 144.66 406.03 142.59 401.16 C 138.67 391.82 136.12 382.00 133.85 372.16 C 132.36 365.92 133.42 359.49 133.90 353.21 C 134.54 348.64 134.71 344.00 135.82 339.52 C 136.95 336.54 140.08 335.13 142.72 333.76 C 151.00 329.93 159.29 326.09 167.89 323.01 C 176.98 319.98 186.30 317.68 195.72 315.98 C 194.43 314.00 193.11 312.04 191.83 310.06 C 181.69 311.56 171.80 314.35 162.07 317.48 C 151.36 317.76 140.60 317.22 129.91 318.20 C 125.97 318.66 122.12 317.52 118.30 316.75 C 117.95 333.60 120.53 350.36 123.52 366.90 C 124.56 373.35 126.60 379.64 126.83 386.21 C 126.27 386.55 125.17 387.23 124.62 387.57 C 120.72 385.39 118.58 381.34 116.12 377.79 C 107.07 363.24 100.19 347.02 97.93 329.95 C 98.06 323.15 99.74 316.34 102.35 310.07 C 105.50 303.66 113.18 302.16 119.44 300.41 C 140.20 295.56 161.67 294.52 182.93 294.25 C 182.75 293.16 182.57 292.07 182.40 290.99 C 174.18 289.68 166.01 288.04 157.72 287.17 C 149.76 285.06 142.22 281.41 134.03 280.12 C 130.77 279.91 129.37 276.61 127.36 274.54 C 123.24 270.01 119.52 265.04 114.53 261.41 C 112.57 260.25 112.39 257.88 111.92 255.90 C 109.88 245.94 107.86 235.99 106.00 226.00 C 105.48 223.91 106.29 221.86 106.66 219.84 C 107.57 218.02 108.44 216.19 109.42 214.41 C 110.12 214.36 111.51 214.25 112.21 214.20 C 117.52 224.65 124.46 234.08 131.32 243.54 C 135.40 248.65 136.17 255.33 138.55 261.24 C 156.56 262.90 173.26 270.19 190.21 275.94 C 191.49 274.09 192.79 272.25 194.17 270.48 C 189.22 267.78 183.58 267.33 178.14 266.43 C 170.60 263.10 163.64 258.54 155.87 255.70 C 154.80 249.79 154.10 243.84 153.48 237.87 C 147.68 235.72 141.92 232.99 137.40 228.66 C 127.47 219.44 121.76 206.30 120.10 192.97 C 117.60 175.56 122.44 157.26 133.16 143.32 C 141.17 133.14 151.48 124.25 163.98 120.21 Z" fill="#093153" opacity="1.00" stroke="#093153" stroke-width="0.25"/>
<path d="M 142.90 139.97 C 150.70 132.15 160.50 125.39 171.70 124.06 C 166.76 131.03 163.25 139.34 163.19 147.99 C 163.06 155.02 162.84 162.20 164.75 169.05 C 166.68 174.16 168.68 179.25 171.03 184.20 C 170.36 182.09 169.63 180.01 168.97 177.90 C 170.56 181.57 172.23 185.22 174.44 188.57 C 175.73 188.53 177.02 188.49 178.31 188.46 C 187.00 180.94 192.23 170.57 198.42 161.10 C 198.44 160.27 198.49 158.61 198.52 157.78 C 198.89 158.70 199.27 159.63 199.65 160.55 C 199.56 159.78 199.39 158.23 199.30 157.46 L 200.26 157.48 C 200.77 155.77 201.31 154.06 201.81 152.35 C 202.54 152.42 203.27 152.48 204.01 152.55 C 212.02 167.34 210.59 185.50 204.85 200.82 C 201.06 210.49 195.73 219.91 187.70 226.68 C 175.26 237.75 155.10 236.62 142.49 226.41 C 138.73 223.14 135.96 218.94 133.13 214.88 C 131.34 210.42 128.50 206.26 128.14 201.35 C 127.67 200.69 127.21 200.04 126.74 199.39 C 126.08 193.91 125.08 188.46 124.64 182.96 C 124.93 166.99 131.48 151.20 142.90 139.97 Z" fill="#f3452a" opacity="1.00" stroke="#f3452a" stroke-width="0.25"/>
<path d="M 340.88 124.16 C 347.68 124.68 353.79 128.13 359.51 131.57 C 370.72 139.54 379.99 150.69 384.46 163.81 C 390.04 179.96 388.51 198.47 380.20 213.42 C 375.14 222.51 367.12 230.51 356.85 233.29 C 353.14 233.35 349.47 232.41 346.24 230.60 C 334.49 224.20 324.09 214.87 317.66 203.03 C 308.97 188.16 307.71 169.81 311.28 153.24 C 316.75 166.23 323.62 179.17 334.48 188.47 C 335.59 188.50 336.71 188.53 337.83 188.57 C 341.65 182.80 345.10 176.72 347.25 170.11 C 347.82 167.69 348.46 165.28 349.24 162.92 C 349.84 156.31 350.06 149.62 349.10 143.04 C 347.36 136.36 345.05 129.75 340.88 124.16 Z" fill="#f3452a" opacity="1.00" stroke="#f3452a" stroke-width="0.25"/>
<path d="M 306.25 157.09 C 307.16 154.35 308.96 152.07 311.03 150.11 C 311.16 150.95 311.30 151.79 311.43 152.64 L 311.28 153.24 C 307.71 169.81 308.97 188.16 317.66 203.03 C 324.09 214.87 334.49 224.20 346.24 230.60 C 349.47 232.41 353.14 233.35 356.85 233.29 C 347.83 235.64 337.82 234.70 329.58 230.31 C 314.45 220.80 306.56 203.13 303.73 186.06 C 303.27 176.40 302.28 166.20 306.25 157.09 Z" fill="#a22c24" opacity="1.00" stroke="#a22c24" stroke-width="0.25"/>
<path d="M 232.04 218.01 C 236.66 216.50 241.43 221.50 239.93 226.09 C 238.97 231.04 231.34 232.78 228.53 228.52 C 225.73 225.03 227.53 219.01 232.04 218.01 Z" fill="#ffffff" opacity="1.00" stroke="#ffffff" stroke-width="0.25"/>
<path d="M 275.50 218.73 C 279.82 215.45 286.45 219.83 285.43 225.05 C 285.54 230.51 278.21 232.69 274.50 229.51 C 271.05 226.84 271.77 220.81 275.50 218.73 Z" fill="#ffffff" opacity="1.00" stroke="#ffffff" stroke-width="0.25"/>
<path d="M 232.09 223.65 C 233.90 222.92 235.83 222.85 237.66 223.55 C 237.30 224.85 237.92 226.77 236.63 227.61 C 235.40 228.88 233.67 227.85 232.26 227.61 C 232.19 226.29 232.13 224.97 232.09 223.65 Z" fill="#093153" opacity="1.00" stroke="#093153" stroke-width="0.25"/>
<path d="M 277.32 223.76 C 279.61 222.63 281.90 222.50 283.67 224.59 C 282.80 226.24 282.44 228.89 279.97 228.47 C 277.79 227.84 277.50 225.69 277.32 223.76 Z" fill="#093153" opacity="1.00" stroke="#093153" stroke-width="0.25"/>
<path d="M 111.34 224.06 C 113.03 227.22 115.07 230.17 117.30 232.97 C 117.34 233.23 117.43 233.76 117.48 234.02 C 118.08 238.61 119.95 242.89 122.12 246.94 C 125.74 253.71 129.14 260.63 133.61 266.90 L 133.67 266.99 C 133.11 268.30 132.55 269.61 132.01 270.93 C 126.75 266.02 121.96 260.65 116.71 255.73 C 115.75 245.05 112.30 234.75 111.34 224.06 Z" fill="#a22c24" opacity="1.00" stroke="#a22c24" stroke-width="0.25"/>
<path d="M 389.88 240.62 C 393.62 235.03 397.70 229.66 400.89 223.72 C 399.85 234.67 397.18 245.40 395.11 256.18 C 390.54 260.98 385.27 265.16 381.30 270.56 C 380.96 270.54 380.27 270.51 379.92 270.50 C 379.48 268.91 379.03 267.33 378.54 265.77 C 378.99 264.16 379.42 262.56 379.80 260.94 C 380.15 259.59 380.51 258.25 380.87 256.91 C 381.22 255.93 381.56 254.95 381.90 253.97 L 382.39 253.15 C 382.44 252.56 382.53 251.39 382.58 250.81 C 384.82 247.28 387.29 243.90 389.88 240.62 Z" fill="#f3452a" opacity="1.00" stroke="#f3452a" stroke-width="0.25"/>
<path d="M 122.12 246.94 C 119.95 242.89 118.08 238.61 117.48 234.02 C 122.46 240.65 128.65 246.88 130.92 255.07 C 132.27 258.89 133.91 262.75 133.61 266.90 C 129.14 260.63 125.74 253.71 122.12 246.94 Z" fill="#f3452a" opacity="1.00" stroke="#f3452a" stroke-width="0.25"/>
<path d="M 158.51 239.51 C 163.48 239.54 168.44 239.56 173.41 239.56 C 173.45 240.06 173.53 241.08 173.57 241.58 C 168.89 242.16 163.99 242.35 159.83 244.82 C 159.40 243.04 158.96 241.27 158.51 239.51 Z" fill="#a22c24" opacity="1.00" stroke="#a22c24" stroke-width="0.25"/>
<path d="M 338.71 239.62 C 343.69 239.48 348.69 239.61 353.68 239.37 C 353.57 241.27 353.46 243.18 353.36 245.09 C 351.55 244.35 349.78 243.57 348.07 242.64 C 344.90 241.97 340.20 243.49 338.71 239.62 Z" fill="#a22c24" opacity="1.00" stroke="#a22c24" stroke-width="0.25"/>
<path d="M 231.15 245.21 C 246.06 239.80 262.71 239.44 277.85 244.14 C 285.36 246.64 292.73 250.11 298.57 255.57 C 307.31 263.25 313.78 273.01 320.42 282.46 C 322.46 285.86 326.11 289.76 323.86 293.96 C 317.17 308.43 306.41 321.35 292.35 329.13 C 290.81 329.93 289.19 330.60 287.47 330.86 C 274.50 332.47 261.35 331.15 248.63 328.40 C 235.04 325.76 221.58 321.50 209.78 314.14 C 203.33 310.30 197.72 305.28 192.03 300.43 C 189.51 297.13 187.63 293.18 187.34 289.00 C 194.21 279.09 200.91 268.99 209.02 260.03 C 215.30 253.69 222.68 248.20 231.15 245.21 Z" fill="#f3452a" opacity="1.00" stroke="#f3452a" stroke-width="0.25"/>
<path d="M 327.91 249.08 C 333.48 246.06 340.03 247.62 346.04 247.72 C 341.02 247.34 335.93 248.83 332.08 252.12 C 328.29 255.20 325.78 259.51 322.15 262.76 C 319.84 264.07 317.26 264.76 314.78 265.65 C 312.96 263.42 311.13 261.19 309.31 258.96 C 315.53 255.71 321.68 252.31 327.91 249.08 Z" fill="#a22c24" opacity="1.00" stroke="#a22c24" stroke-width="0.25"/>
<path d="M 161.35 250.63 C 165.89 246.44 172.33 247.77 177.95 247.52 C 181.36 247.24 184.40 248.95 187.28 250.54 C 192.47 253.37 197.60 256.34 202.93 258.91 C 201.18 261.22 199.42 263.52 197.56 265.74 C 193.98 264.36 190.43 262.79 186.62 262.12 C 183.42 261.42 179.94 261.76 177.01 260.07 C 171.91 257.31 166.83 254.50 161.54 252.10 C 161.50 251.73 161.40 251.00 161.35 250.63 Z" fill="#f3452a" opacity="1.00" stroke="#f3452a" stroke-width="0.25"/>
<path d="M 332.08 252.12 C 335.93 248.83 341.02 247.34 346.04 247.72 C 347.63 248.61 349.06 249.75 350.55 250.80 C 350.57 251.15 350.62 251.85 350.64 252.20 C 344.85 254.74 339.44 258.03 333.78 260.82 C 329.98 261.81 325.98 261.84 322.15 262.76 C 325.78 259.51 328.29 255.20 332.08 252.12 Z" fill="#f3452a" opacity="1.00" stroke="#f3452a" stroke-width="0.25"/>
<path d="M 224.91 264.73 C 229.07 261.79 231.59 267.40 235.12 268.67 C 239.54 270.97 243.57 265.90 248.08 266.66 C 251.04 267.73 253.63 270.24 256.99 269.83 C 260.35 269.90 262.80 267.08 266.00 266.56 C 269.85 266.93 273.18 269.97 277.15 269.34 C 280.95 267.98 282.55 263.05 287.02 263.20 C 286.72 267.93 282.47 270.89 278.62 272.83 C 274.25 274.73 270.28 270.70 265.98 270.52 C 262.93 271.59 260.25 273.52 257.12 274.36 C 253.48 274.80 250.56 272.20 247.80 270.26 C 244.07 270.97 240.69 273.14 236.88 273.38 C 231.78 272.59 228.18 268.38 224.91 264.73 Z" fill="#093153" opacity="1.00" stroke="#093153" stroke-width="0.25"/>
<path d="M 138.01 266.54 C 148.53 268.00 158.99 270.33 168.91 274.19 C 174.38 275.96 179.59 278.56 185.28 279.60 C 185.06 281.35 184.76 283.08 184.49 284.83 C 184.76 284.34 185.28 283.36 185.54 282.88 C 185.83 281.67 186.14 280.47 186.46 279.27 C 186.73 281.87 185.46 284.03 183.74 285.83 C 175.58 284.56 167.50 282.81 159.27 282.01 C 151.63 279.97 144.46 276.30 136.56 275.09 C 137.38 272.30 137.74 269.42 138.01 266.54 Z" fill="#f3452a" opacity="1.00" stroke="#f3452a" stroke-width="0.25"/>
<path d="M 349.29 272.12 C 357.29 269.21 365.72 267.84 374.09 266.53 C 374.51 269.42 375.11 272.29 375.73 275.15 C 366.18 276.57 357.72 282.14 348.00 282.63 C 341.33 283.16 334.91 285.37 328.22 285.62 C 327.21 283.94 326.21 282.27 325.23 280.59 C 333.22 277.68 341.32 275.07 349.29 272.12 Z" fill="#f3452a" opacity="1.00" stroke="#f3452a" stroke-width="0.25"/>
<path d="M 326.86 299.54 C 332.56 299.48 338.27 299.67 343.96 300.16 C 363.63 300.85 383.62 302.44 402.34 308.96 C 395.61 310.47 388.98 313.21 381.97 312.69 C 373.98 312.20 365.98 312.16 357.98 312.28 C 354.19 312.39 350.37 311.96 346.78 310.72 C 339.18 308.19 331.31 306.64 323.44 305.25 C 324.59 303.35 325.72 301.44 326.86 299.54 Z" fill="#a22c24" opacity="1.00" stroke="#a22c24" stroke-width="0.25"/>
<path d="M 109.49 308.94 C 133.89 300.75 159.89 300.40 185.33 299.50 C 186.26 301.46 187.19 303.40 188.13 305.35 C 182.08 306.43 176.03 307.55 170.12 309.27 C 165.78 310.41 161.54 312.26 156.98 312.26 C 148.62 312.27 140.26 312.05 131.91 312.62 C 124.25 313.30 116.82 310.80 109.49 308.94 Z" fill="#f3452a" opacity="1.00" stroke="#f3452a" stroke-width="0.25"/>
<path d="M 192.03 300.43 C 197.72 305.28 203.33 310.30 209.78 314.14 C 221.58 321.50 235.04 325.76 248.63 328.40 C 261.35 331.15 274.50 332.47 287.47 330.86 C 284.04 331.87 280.54 332.61 276.99 333.00 C 262.67 334.68 248.11 334.83 233.83 332.70 C 229.34 331.87 224.65 331.49 220.53 329.36 C 208.39 322.89 198.33 312.63 192.03 300.43 Z" fill="#a22c24" opacity="1.00" stroke="#a22c24" stroke-width="0.25"/>
<path d="M 105.63 312.81 C 108.37 313.21 111.04 314.02 113.48 315.35 C 112.76 334.39 116.23 353.21 118.38 372.05 C 118.06 370.95 117.75 369.86 117.43 368.78 C 110.95 358.90 107.25 347.51 104.25 336.17 C 102.17 328.38 104.48 320.52 105.63 312.81 Z" fill="#a22c24" opacity="1.00" stroke="#a22c24" stroke-width="0.25"/>
<path d="M 399.52 315.45 C 401.60 314.36 403.80 313.56 406.11 313.14 C 406.85 316.37 407.65 319.60 408.42 322.83 L 410.00 322.18 C 409.72 327.88 409.41 333.61 408.11 339.18 C 408.34 334.56 408.81 329.95 409.54 325.38 C 409.00 324.69 408.47 324.00 407.93 323.32 C 409.44 328.82 408.10 334.49 407.18 339.96 C 404.59 350.92 400.27 361.49 394.40 371.11 C 394.40 368.61 394.44 366.10 395.01 363.66 C 396.99 354.46 398.13 345.10 398.71 335.71 C 399.76 329.01 399.68 322.21 399.52 315.45 Z" fill="#a22c24" opacity="1.00" stroke="#a22c24" stroke-width="0.25"/>
<path d="M 105.62 323.93 C 105.49 320.52 105.09 315.78 108.30 313.63 C 109.64 314.34 110.95 315.13 112.26 315.91 C 112.35 323.59 112.34 331.30 113.41 338.92 C 113.95 342.69 113.93 346.51 113.55 350.29 C 109.04 342.21 107.04 332.99 105.62 323.93 Z" fill="#f3452a" opacity="1.00" stroke="#f3452a" stroke-width="0.25"/>
<path d="M 163.17 330.49 C 175.12 325.57 187.84 323.01 200.45 320.42 C 204.33 323.74 208.08 327.22 212.24 330.19 C 197.84 332.68 183.87 337.04 169.86 341.07 C 161.08 341.67 152.02 342.60 143.41 340.20 C 143.50 339.89 143.68 339.28 143.78 338.97 C 150.36 336.42 156.60 333.08 163.17 330.49 Z" fill="#f3452a" opacity="1.00" stroke="#f3452a" stroke-width="0.25"/>
<path d="M 300.79 330.09 C 304.71 327.20 308.09 323.65 311.95 320.70 C 316.72 320.86 321.28 322.55 325.95 323.42 C 341.05 326.65 355.33 332.65 369.16 339.38 C 363.32 342.80 356.39 341.47 349.97 341.56 C 345.91 341.61 341.83 341.20 337.98 339.86 C 325.80 335.84 313.32 332.81 300.79 330.09 Z" fill="#a22c24" opacity="1.00" stroke="#a22c24" stroke-width="0.25"/>
<path d="M 139.81 344.15 C 143.09 344.64 146.31 345.50 149.44 346.60 C 149.88 353.77 151.05 360.91 151.25 368.09 C 149.76 378.21 148.15 388.31 148.02 398.57 C 146.64 396.36 145.38 394.06 144.65 391.55 C 142.57 384.81 140.62 378.03 139.01 371.16 C 137.08 362.19 139.72 353.16 139.81 344.15 Z" fill="#a22c24" opacity="1.00" stroke="#a22c24" stroke-width="0.25"/>
<path d="M 362.65 347.95 C 365.55 346.11 368.65 344.39 372.12 343.98 C 373.66 348.61 373.76 353.57 373.52 358.40 C 372.74 353.66 371.88 348.93 371.08 344.19 C 366.70 353.78 365.80 364.54 366.49 374.94 C 366.72 380.72 367.76 386.46 367.52 392.26 C 366.70 395.05 365.60 397.74 364.73 400.51 C 364.04 395.72 363.66 390.88 363.73 386.04 C 363.84 378.30 360.81 370.81 361.73 363.04 C 362.35 358.04 362.72 353.00 362.65 347.95 Z" fill="#a22c24" opacity="1.00" stroke="#a22c24" stroke-width="0.25"/>
<path d="M 143.51 345.87 C 145.12 346.25 146.73 346.65 148.35 347.05 C 149.11 355.99 151.05 365.03 149.43 373.99 C 148.56 379.12 147.81 384.27 147.06 389.43 C 145.28 374.95 146.30 360.24 143.51 345.87 Z" fill="#f3452a" opacity="1.00" stroke="#f3452a" stroke-width="0.25"/>
<path d="M 366.49 374.94 C 365.80 364.54 366.70 353.78 371.08 344.19 C 371.88 348.93 372.74 353.66 373.52 358.40 C 374.10 363.25 374.04 368.21 372.95 372.99 C 371.34 379.47 369.91 386.01 367.52 392.26 C 367.76 386.46 366.72 380.72 366.49 374.94 Z" fill="#f3452a" opacity="1.00" stroke="#f3452a" stroke-width="0.25"/>
</svg>