<svg xmlns="http://www.w3.org/2000/svg" height="512pt" version="1.1" viewBox="0 0 512 512" width="512pt">

<path d="M 215.52 91.22 C 216.80 91.47 218.13 91.87 218.85 93.06 C 226.02 102.32 228.30 115.24 224.57 126.37 C 220.96 137.68 212.31 146.30 206.44 156.39 C 203.09 161.90 201.90 168.68 203.21 175.00 C 203.70 176.77 202.70 178.36 202.02 179.92 C 198.63 177.04 197.15 172.66 195.84 168.55 C 192.77 158.37 194.65 147.08 200.09 138.03 C 205.91 127.55 216.13 118.67 216.54 105.91 C 217.32 100.93 215.16 96.17 215.52 91.22 Z" fill="#95e7fe" opacity="1.00" stroke="#95e7fe" stroke-width="0.25" data-index="1" style="opacity: 1; visibility: hidden;"></path>

<path d="M 246.25 93.36 C 249.01 93.33 250.92 95.54 252.34 97.64 C 255.61 103.16 257.38 109.55 257.34 115.97 C 256.77 126.37 250.66 135.37 244.04 143.00 C 238.89 148.45 233.93 154.59 232.12 162.02 C 230.93 166.67 232.20 171.39 232.81 176.02 C 232.27 175.91 231.19 175.69 230.65 175.58 C 226.14 167.57 225.09 158.01 227.05 149.10 C 230.26 138.49 236.77 129.24 243.99 120.97 C 247.11 117.37 248.54 112.66 249.36 108.05 C 250.09 102.92 248.25 97.97 246.25 93.36 Z" fill="#95e7fe" opacity="1.00" stroke="#95e7fe" stroke-width="0.25" data-index="3" style="opacity: 1; visibility: hidden;"></path>

<path d="M 130.36 198.47 C 140.53 193.77 152.00 194.61 162.90 194.20 C 203.27 194.14 243.63 194.22 283.99 194.18 C 297.99 194.26 311.99 193.95 325.98 194.63 C 334.29 195.26 343.39 196.23 349.77 202.18 C 353.25 205.38 354.21 210.24 354.37 214.77 C 365.64 209.72 378.82 209.64 390.35 213.85 C 401.66 218.11 410.78 227.23 415.80 238.13 C 422.33 252.79 423.17 269.84 418.19 285.08 C 414.48 297.07 406.94 307.41 398.43 316.44 C 378.27 336.33 351.93 349.76 324.09 354.78 C 319.49 363.05 313.47 370.41 307.12 377.38 C 306.61 377.61 305.58 378.07 305.07 378.29 C 307.01 378.73 309.00 378.92 311.00 378.86 C 327.63 378.77 344.26 378.97 360.88 378.75 C 357.37 393.32 343.56 403.67 329.19 406.10 C 318.17 407.60 307.02 407.17 295.93 407.31 C 259.97 407.40 224.01 407.43 188.05 407.33 C 174.32 407.12 160.50 407.82 146.85 406.03 C 132.88 403.68 119.34 393.32 117.00 378.79 C 134.20 378.82 151.40 379.00 168.59 378.71 C 155.62 365.39 145.99 349.13 138.88 332.02 C 127.10 302.48 121.54 270.72 120.46 239.02 C 120.52 229.75 120.42 220.47 120.52 211.20 C 120.57 205.33 125.34 200.76 130.36 198.47 Z" fill="#053354" opacity="1.00" stroke="#053354" stroke-width="0.25" data-index="5" style="opacity: 1;"></path>
<path d="M 131.28 208.16 C 133.58 202.95 139.75 201.35 144.97 201.37 C 205.64 201.35 266.31 201.36 326.97 201.36 C 331.31 201.45 336.03 201.53 339.79 203.99 C 341.64 205.43 343.80 207.34 343.60 209.94 C 343.63 220.13 343.65 230.32 343.55 240.52 C 333.08 241.05 322.58 240.40 312.11 240.94 C 313.32 239.82 313.43 238.21 313.54 236.66 C 312.84 236.04 312.15 235.41 311.47 234.79 C 251.38 234.90 191.29 234.87 131.20 234.80 C 131.18 225.92 131.02 217.03 131.28 208.16 Z" fill="#95e7fe" opacity="1.00" stroke="#95e7fe" stroke-width="0.25" data-index="6" style="opacity: 1;"></path>
<path d="M 354.57 226.87 C 367.36 219.20 385.51 219.88 396.75 230.23 C 406.39 238.47 410.58 251.58 410.49 263.98 C 410.96 277.77 405.69 291.34 396.97 301.90 C 380.60 321.68 357.44 335.48 332.66 341.79 C 332.44 342.02 332.01 342.48 331.79 342.71 C 331.72 342.26 331.59 341.36 331.52 340.91 C 334.09 336.47 335.29 331.41 337.79 326.95 C 350.58 323.08 362.36 316.11 372.63 307.62 C 383.83 298.67 393.56 286.50 395.77 271.96 C 397.51 261.96 395.48 250.42 387.62 243.41 C 378.95 234.57 363.60 234.99 354.30 242.63 C 354.35 237.37 354.33 232.11 354.57 226.87 Z" fill="#ffffff" opacity="1.00" stroke="#ffffff" stroke-width="0.25" data-index="7"></path>
<path d="M 312.11 240.94 C 322.58 240.40 333.08 241.05 343.55 240.52 C 342.70 266.31 338.36 292.08 330.14 316.57 C 323.07 336.82 313.08 356.53 297.90 371.93 C 295.85 374.41 293.05 376.10 291.01 378.56 C 288.68 378.91 286.31 378.88 283.96 378.86 C 267.57 378.81 251.18 378.91 234.78 378.81 C 230.00 375.30 224.40 373.02 220.00 368.96 C 201.52 353.85 189.98 331.98 183.20 309.43 C 177.23 289.51 173.91 268.77 173.17 248.00 C 173.17 245.72 171.99 243.10 173.54 241.10 C 215.36 241.16 257.18 241.11 299.00 241.13 C 303.37 241.08 307.74 241.29 312.11 240.94 Z" fill="#ffffff" opacity="1.00" stroke="#ffffff" stroke-width="0.25" data-index="8" style="opacity: 1;"></path>
<path d="M 131.27 241.19 C 145.36 241.08 159.45 241.22 173.54 241.10 C 171.99 243.10 173.17 245.72 173.17 248.00 C 173.91 268.77 177.23 289.51 183.20 309.43 C 189.98 331.98 201.52 353.85 220.00 368.96 C 224.40 373.02 230.00 375.30 234.78 378.81 C 217.87 378.97 200.95 378.83 184.04 378.90 C 174.14 370.77 165.97 360.65 159.51 349.62 C 149.24 332.65 142.65 313.69 138.11 294.46 C 134.25 276.95 131.78 259.11 131.27 241.19 Z" fill="#95e7fe" opacity="1.00" stroke="#95e7fe" stroke-width="0.25" data-index="9" style="opacity: 1;"></path>
<path d="M 363.76 245.24 C 372.01 242.36 381.79 246.39 386.04 253.92 C 390.60 261.30 390.05 270.83 386.80 278.62 C 381.15 292.02 369.93 302.21 357.80 309.79 C 352.49 312.96 347.10 316.37 341.01 317.83 C 347.60 296.62 352.14 274.71 353.50 252.52 C 356.37 249.42 359.61 246.47 363.76 245.24 Z" fill="#ffffff" opacity="1.00" stroke="#ffffff" stroke-width="0.25" data-index="10" style="opacity: 1; visibility: visible;"></path>
<path d="M 131.82 385.29 C 138.19 384.70 144.60 384.93 150.99 384.90 C 193.98 384.91 236.97 384.90 279.96 384.91 C 292.80 385.07 305.66 384.59 318.49 385.13 C 313.48 390.26 307.49 394.53 300.52 396.52 C 252.01 396.58 203.48 396.51 154.96 396.55 C 146.12 396.57 137.05 392.55 131.82 385.29 Z" fill="#95e7fe" opacity="1.00" stroke="#95e7fe" stroke-width="0.25" data-index="11" style="opacity: 1;"></path>
<path d="M 318.49 385.13 L 318.79 384.85 C 322.55 384.94 326.31 384.85 330.06 384.99 C 327.90 389.54 323.90 392.71 319.58 395.09 C 320.17 395.46 321.36 396.21 321.96 396.59 C 314.81 396.58 307.67 396.63 300.52 396.52 C 307.49 394.53 313.48 390.26 318.49 385.13 Z" fill="#ffffff" opacity="1.00" stroke="#ffffff" stroke-width="0.25" data-index="12"></path>
<path d="M 330.06 384.99 C 335.02 384.80 339.99 384.90 344.96 384.91 C 340.21 392.56 330.59 395.99 321.96 396.59 C 321.36 396.21 320.17 395.46 319.58 395.09 C 323.90 392.71 327.90 389.54 330.06 384.99 Z" fill="#95e7fe" opacity="1.00" stroke="#95e7fe" stroke-width="0.25" data-index="13"></path>
</svg>