<svg xmlns="http://www.w3.org/2000/svg" height="512pt" version="1.1" viewBox="0 0 512 512" width="512pt"><defs>
                <linearGradient id="grad-11" gradientTransform="rotate(325 0.5 0.5)">
                
                        <stop stop-color="#9a6953" offset="0"></stop>
                    ,
                        <stop stop-color="#9a6953" offset="0.5"></stop>
                    
                </linearGradient>
          </defs>
<path d="M 0.00 0.00 L 512.00 0.00 L 512.00 512.00 L 0.00 512.00 L 0.00 0.00 Z" fill="transparent" opacity="1.00" stroke="transparent" stroke-width="0.25" data-index="0" style="opacity: 1;"></path>
<path d="M 124.38 190.90 C 132.30 180.64 139.99 170.20 147.90 159.92 C 219.65 159.76 291.40 159.81 363.15 159.90 C 367.68 164.70 371.24 170.49 375.49 175.61 C 378.82 180.35 382.82 184.68 385.80 189.59 C 385.34 190.60 385.01 191.66 384.67 192.71 C 384.03 191.58 383.54 190.08 381.96 190.17 C 380.74 186.66 377.54 184.33 375.67 181.18 C 370.98 175.48 366.96 169.27 362.13 163.68 C 360.82 163.19 359.37 163.51 358.02 163.42 C 288.45 163.51 218.87 163.36 149.29 163.49 C 142.49 171.71 136.70 180.78 129.64 188.77 C 128.82 189.51 128.00 190.26 127.28 191.10 C 127.33 192.00 127.40 192.91 127.45 193.82 C 126.78 194.02 125.45 194.43 124.78 194.64 C 124.68 193.70 124.48 191.83 124.38 190.90 Z" fill="#0c293d" opacity="1.00" stroke="#0c293d" stroke-width="0.25" data-index="1"></path>
<path d="M 149.29 163.49 C 218.87 163.36 288.45 163.51 358.02 163.42 C 359.37 163.51 360.82 163.19 362.13 163.68 C 366.96 169.27 370.98 175.48 375.67 181.18 C 377.54 184.33 380.74 186.66 381.96 190.17 C 298.24 190.46 214.52 190.01 130.80 190.37 C 130.51 189.97 129.93 189.17 129.64 188.77 C 136.70 180.78 142.49 171.71 149.29 163.49 Z" fill="#9a6953" opacity="1.00" stroke="#9a6953" stroke-width="0.25" data-index="2" style="opacity: 1; visibility: visible; fill: rgb(154, 105, 83); display: none;"></path>
<path d="M 180.22 174.09 C 182.01 173.55 182.62 174.05 182.06 175.61 C 180.38 176.10 179.76 175.60 180.22 174.09 Z" fill="#f5d3bd" opacity="1.00" stroke="#f5d3bd" stroke-width="0.25" data-index="3" style="visibility: visible; fill: rgb(154, 105, 83); stroke: rgb(154, 105, 83); opacity: 1;"></path>
<path d="M 172.20 180.80 C 171.93 179.35 172.48 178.71 173.85 178.89 C 188.07 179.27 202.35 178.58 216.54 179.35 C 213.67 180.36 210.64 180.61 207.65 181.01 C 195.84 181.03 184.01 181.15 172.20 180.80 Z" fill="#fce1d7" opacity="1.00" stroke="#fce1d7" stroke-width="0.25" data-index="4" style="opacity: 1; visibility: visible; fill: rgb(154, 105, 83); display: none;"></path>
<path d="M 216.54 179.35 C 232.88 179.25 249.23 179.59 265.58 179.47 C 265.52 179.94 265.40 180.87 265.33 181.33 C 246.11 181.04 226.87 181.21 207.65 181.01 C 210.64 180.61 213.67 180.36 216.54 179.35 Z" fill="#ffffff" opacity="1.00" stroke="#ffffff" stroke-width="0.25" data-index="5" style="visibility: visible; fill: rgb(154, 105, 83); opacity: 1; stroke: rgb(154, 105, 83);"></path>
<path d="M 127.28 191.10 C 128.00 190.26 128.82 189.51 129.64 188.77 C 129.93 189.17 130.51 189.97 130.80 190.37 C 214.52 190.01 298.24 190.46 381.96 190.17 C 383.54 190.08 384.03 191.58 384.67 192.71 C 385.01 191.66 385.34 190.60 385.80 189.59 L 386.09 189.17 C 387.34 190.77 387.72 192.81 386.75 194.67 C 383.12 194.95 379.48 194.79 375.84 194.84 C 375.72 204.44 375.83 214.06 375.83 223.67 L 374.90 223.39 C 373.63 223.54 372.76 224.59 371.76 225.26 C 371.42 225.14 370.74 224.92 370.40 224.80 C 368.27 224.19 366.03 224.71 363.86 224.58 C 361.58 224.15 359.38 223.29 357.05 223.12 C 287.35 223.14 217.65 223.10 147.95 223.12 C 144.63 222.94 141.03 221.41 138.14 223.81 C 137.66 223.79 136.71 223.76 136.23 223.74 C 135.74 214.12 136.50 204.40 135.80 194.82 C 132.13 194.79 128.45 194.94 124.78 194.64 C 125.45 194.43 126.78 194.02 127.45 193.82 C 127.40 192.91 127.33 192.00 127.28 191.10 Z" fill="#072d49" opacity="1.00" stroke="#072d49" stroke-width="0.25" data-index="6" style="opacity: 1;"></path>
<path d="M 141.77 198.99 C 141.92 197.49 141.12 195.67 142.57 194.61 C 144.37 194.93 146.20 194.88 148.03 194.87 C 221.05 194.88 294.08 194.88 367.10 194.87 C 367.71 194.80 368.93 194.66 369.54 194.60 C 370.14 203.30 369.75 212.09 369.76 220.83 C 293.78 220.87 217.81 220.94 141.83 220.79 C 141.63 213.55 141.78 206.25 141.77 198.99 Z" fill="#91e7fe" opacity="1.00" stroke="#91e7fe" stroke-width="0.25" data-index="7" style="opacity: 1;"></path>
<path d="M 138.14 223.81 C 141.03 221.41 144.63 222.94 147.95 223.12 C 217.65 223.10 287.35 223.14 357.05 223.12 C 359.38 223.29 361.58 224.15 363.86 224.58 C 363.85 262.04 363.86 299.49 363.86 336.95 C 363.96 340.84 363.58 344.78 364.20 348.65 C 366.26 348.61 368.34 348.80 370.39 348.46 C 370.29 307.24 370.26 266.02 370.40 224.80 C 370.74 224.92 371.42 225.14 371.76 225.26 C 372.76 224.59 373.63 223.54 374.90 223.39 C 374.72 223.80 374.35 224.63 374.17 225.05 C 374.28 266.46 374.08 307.87 374.28 349.27 C 374.08 349.89 373.68 351.13 373.49 351.75 C 369.53 352.28 365.42 352.37 361.48 351.70 C 361.33 351.09 361.04 349.87 360.89 349.26 C 360.87 309.14 360.96 269.01 360.87 228.89 C 361.18 227.36 361.06 225.87 360.61 224.38 C 358.75 224.78 356.86 224.54 354.99 224.59 C 300.31 224.62 245.64 224.59 190.97 224.60 C 177.76 224.47 164.53 224.87 151.34 224.41 C 150.91 266.04 151.25 307.69 151.18 349.32 C 150.99 349.90 150.60 351.07 150.41 351.65 C 146.53 352.43 142.43 351.77 138.45 351.71 C 137.96 349.16 138.18 346.57 138.15 344.00 C 138.13 303.93 138.13 263.87 138.14 223.81 Z" fill="#03253e" opacity="1.00" stroke="#03253e" stroke-width="0.25" data-index="8" style="opacity: 1;"></path>
<path d="M 141.81 224.41 C 143.91 224.57 146.02 224.60 148.13 224.60 C 148.17 263.42 148.15 302.23 148.15 341.04 C 148.18 343.48 147.88 345.93 148.33 348.35 C 146.19 349.02 143.83 348.66 141.62 348.50 C 141.93 307.14 141.56 265.76 141.81 224.41 Z" fill="#9bb7cc" opacity="1.00" stroke="#9bb7cc" stroke-width="0.25" data-index="9" style="opacity: 1;"></path>
<path d="M 363.86 224.58 C 366.03 224.71 368.27 224.19 370.40 224.80 C 370.26 266.02 370.29 307.24 370.39 348.46 C 368.34 348.80 366.26 348.61 364.20 348.65 C 363.58 344.78 363.96 340.84 363.86 336.95 C 363.86 299.49 363.85 262.04 363.86 224.58 Z" fill="#9bb7ca" opacity="1.00" stroke="#9bb7ca" stroke-width="0.25" data-index="10"></path>
<path d="M149.29,163.49c69.58,-0.13 139.16,0.02 208.73,-0.07c1.35,0.09 2.8,-0.23 4.11,0.26c4.83,5.59 8.85,11.8 13.54,17.5c1.87,3.15 5.07,5.48 6.29,8.99c-83.72,0.29 -167.44,-0.16 -251.16,0.2c-0.29,-0.4 -0.87,-1.2 -1.16,-1.6c7.06,-7.99 12.85,-17.06 19.65,-25.28z" id="path-4 1" fill="url(#grad-11)" fill-rule="nonzero" stroke="url(#grad-11)" stroke-width="0.25" stroke-linecap="butt" stroke-linejoin="miter" stroke-miterlimit="10" stroke-dasharray="" stroke-dashoffset="0" font-family="none" font-weight="none" font-size="none" text-anchor="none" style="mix-blend-mode: normal; opacity: 1;" data-index="11"></path></svg>