<?xml version="1.0" encoding="utf-8"?>
<svg xmlns="http://www.w3.org/2000/svg" height="512pt" version="1.1" viewBox="0 0 512 512" width="512pt">
<path d="M 0.00 0.00 L 512.00 0.00 L 512.00 512.00 L 0.00 512.00 L 0.00 0.00 Z" fill="transparent" opacity="1.00" stroke="transparent" stroke-width="0.25"/>
<path d="M 223.00 115.76 C 231.62 108.71 242.88 104.64 254.02 105.11 C 258.37 105.07 262.02 107.62 265.99 108.84 C 274.13 109.13 282.31 112.03 288.05 117.97 C 293.60 122.95 297.14 129.73 299.16 136.82 C 303.16 150.63 305.92 165.12 313.48 177.56 C 315.79 181.10 318.44 184.68 322.11 186.90 C 331.74 187.00 341.45 185.24 351.05 186.88 C 353.87 187.22 356.51 189.23 357.32 191.99 C 358.61 199.00 356.77 206.13 357.65 213.14 C 359.99 219.11 363.47 224.57 366.89 229.98 C 370.86 236.42 376.27 241.95 379.41 248.90 C 383.10 257.44 381.63 267.77 376.35 275.33 C 371.38 282.48 363.74 287.43 355.48 289.95 C 354.87 297.94 355.30 305.97 354.85 313.98 C 354.60 326.50 353.96 339.02 354.07 351.55 C 362.35 351.40 370.64 351.22 378.91 351.69 C 379.40 355.72 380.39 360.03 378.92 363.96 C 376.98 368.21 371.58 367.21 367.82 367.89 C 367.79 380.69 367.80 393.50 367.83 406.30 C 281.48 406.52 195.13 406.18 108.78 406.46 C 108.73 393.57 108.73 380.68 108.77 367.80 C 104.83 367.09 98.56 368.11 97.40 362.97 C 96.88 359.37 96.02 354.28 98.79 351.54 C 105.97 351.18 113.17 351.59 120.36 351.39 C 113.71 327.65 107.85 303.69 101.59 279.85 C 100.71 278.06 102.52 276.76 103.50 275.58 C 105.35 273.85 107.11 271.19 109.96 271.48 C 128.96 271.47 147.96 271.44 166.96 271.53 C 168.32 271.76 168.76 270.18 169.39 269.32 C 178.58 252.87 181.76 233.56 192.60 217.96 C 197.00 211.37 204.49 207.45 212.26 206.51 C 205.76 188.85 201.55 169.77 204.12 150.92 C 205.99 137.50 212.26 124.29 223.00 115.76 Z" fill="#42667a" opacity="1.00" stroke="#42667a" stroke-width="0.25"/>
<path d="M 247.25 107.59 C 252.14 106.42 257.82 106.98 261.97 109.99 C 263.95 111.54 266.55 111.01 268.87 111.28 C 278.61 111.99 287.26 118.37 292.33 126.48 C 296.40 132.58 297.71 139.92 299.68 146.85 C 303.23 159.71 306.67 173.16 315.31 183.68 C 320.36 189.77 327.78 193.15 335.09 195.70 C 340.23 197.46 345.71 199.33 349.41 203.53 C 352.57 207.30 355.62 211.84 354.98 217.02 C 353.78 261.81 352.77 306.61 351.73 351.41 C 346.15 351.27 340.56 351.33 334.98 351.55 C 337.65 350.48 340.54 349.73 342.84 347.93 C 346.14 344.50 346.70 339.48 347.54 335.01 C 349.82 317.07 349.00 298.94 348.82 280.93 C 349.20 278.93 351.70 278.01 352.08 275.98 C 353.11 270.15 352.22 264.19 351.51 258.38 C 349.52 247.39 347.08 236.40 343.17 225.91 C 340.26 218.05 332.08 213.51 324.12 212.42 C 317.44 211.18 310.75 212.81 304.11 213.45 C 297.64 214.08 290.56 212.78 285.64 208.27 C 281.51 204.12 279.27 198.55 277.54 193.05 C 276.55 190.48 277.99 187.86 278.48 185.34 C 280.99 185.14 283.78 185.53 285.95 183.96 C 290.34 180.90 291.47 174.77 290.29 169.83 C 289.61 166.62 286.35 164.05 283.02 164.76 C 280.65 165.02 279.53 167.40 277.99 168.89 C 276.66 167.99 275.12 167.33 274.09 166.05 C 275.41 164.25 276.04 162.04 277.47 160.31 C 275.78 160.08 274.10 159.85 272.41 159.63 C 270.71 158.33 269.32 154.70 266.88 155.82 C 265.90 159.46 267.07 163.21 267.80 166.80 C 266.68 165.51 266.11 163.28 264.16 163.12 C 260.15 163.45 256.11 164.11 252.10 163.41 C 242.92 162.61 232.94 160.66 226.33 153.68 C 223.57 151.15 222.50 147.45 220.65 144.32 C 218.68 143.41 219.19 145.89 218.94 147.04 C 218.66 151.23 220.14 155.28 221.26 159.26 C 217.55 157.42 214.61 154.53 211.75 151.61 C 211.14 151.36 209.91 150.87 209.30 150.63 C 209.57 154.80 210.35 158.99 212.23 162.76 C 213.74 166.11 216.50 169.02 216.65 172.87 C 217.86 183.82 220.64 195.33 228.21 203.72 C 234.43 210.01 242.71 215.76 252.04 214.11 C 252.45 215.54 252.87 216.97 253.29 218.41 C 252.02 218.42 250.75 218.43 249.49 218.45 C 249.24 218.98 248.75 220.03 248.50 220.56 C 240.24 223.14 230.29 223.37 223.19 217.76 C 216.28 212.06 213.13 203.30 210.63 194.98 C 205.02 175.64 202.58 153.96 210.76 134.97 C 211.03 135.80 211.58 137.46 211.85 138.29 C 215.34 133.65 218.50 128.72 222.61 124.59 C 229.50 117.22 238.51 112.39 247.25 107.59 Z" fill="#80e6fe" opacity="1.00" stroke="#80e6fe" stroke-width="0.25"/>
<path d="M 210.76 134.97 C 217.33 120.52 231.23 109.22 247.25 107.59 C 238.51 112.39 229.50 117.22 222.61 124.59 C 218.50 128.72 215.34 133.65 211.85 138.29 C 211.58 137.46 211.03 135.80 210.76 134.97 Z" fill="#ffffff" opacity="1.00" stroke="#ffffff" stroke-width="0.25"/>
<path d="M 221.14 150.19 C 226.37 159.82 237.63 164.08 248.00 165.10 C 246.34 165.89 244.49 167.79 246.38 169.42 C 254.56 170.22 263.14 165.59 270.83 170.18 C 270.25 166.43 269.42 162.72 268.43 159.05 C 270.02 160.24 271.86 161.03 273.55 162.08 C 272.99 163.39 272.08 164.58 271.88 166.02 C 272.62 169.08 275.92 170.14 278.48 171.23 C 277.30 183.01 275.42 196.52 265.51 204.36 C 259.43 208.91 251.92 213.78 243.98 211.59 C 237.36 209.56 231.79 204.85 227.49 199.54 C 220.64 189.69 219.06 177.38 217.87 165.73 C 217.34 165.75 216.28 165.78 215.74 165.80 C 214.46 162.25 213.12 158.72 211.91 155.15 C 214.74 157.93 217.91 160.42 221.74 161.66 C 219.95 161.66 218.16 161.71 216.39 161.78 C 216.64 163.42 217.09 165.88 219.23 165.97 C 223.52 166.83 227.76 167.99 232.08 168.69 C 234.62 169.21 234.09 166.52 234.34 164.94 C 231.29 163.88 228.17 163.07 225.03 162.36 C 223.69 158.32 222.13 154.34 221.14 150.19 Z" fill="#fdebdf" opacity="1.00" stroke="#fdebdf" stroke-width="0.25"/>
<path d="M 281.28 168.24 C 282.41 166.79 284.48 167.23 286.06 166.80 C 289.44 170.98 289.55 177.79 285.58 181.61 C 283.98 183.49 281.27 182.82 279.12 183.17 C 280.00 178.22 279.96 173.10 281.28 168.24 Z" fill="#fdebdf" opacity="1.00" stroke="#fdebdf" stroke-width="0.25"/>
<path d="M 224.22 172.11 C 226.12 170.64 229.90 171.32 230.19 173.95 C 230.88 176.57 227.69 178.97 225.35 177.59 C 222.93 176.87 223.39 173.88 224.22 172.11 Z" fill="#42667a" opacity="1.00" stroke="#42667a" stroke-width="0.25"/>
<path d="M 252.31 173.29 C 253.89 171.54 257.77 172.26 258.03 174.84 C 258.93 177.27 256.44 180.05 253.93 179.25 C 251.24 178.91 250.39 174.96 252.31 173.29 Z" fill="#42667a" opacity="1.00" stroke="#42667a" stroke-width="0.25"/>
<path d="M 235.66 184.56 C 237.09 181.74 237.91 178.08 241.09 176.71 C 240.12 180.84 237.99 184.54 236.48 188.48 C 239.12 188.68 241.77 188.86 244.41 189.17 C 242.95 192.46 238.80 190.70 236.01 190.57 C 233.24 189.73 234.95 186.39 235.66 184.56 Z" fill="#42667a" opacity="1.00" stroke="#42667a" stroke-width="0.25"/>
<path d="M 325.69 189.21 C 333.08 188.63 340.52 188.06 347.92 188.63 C 350.66 188.84 354.22 189.49 355.13 192.55 C 355.94 197.60 355.22 202.72 354.91 207.78 C 352.81 204.36 350.56 200.82 347.01 198.72 C 340.56 194.14 332.37 193.35 325.69 189.21 Z" fill="#80e6fe" opacity="1.00" stroke="#80e6fe" stroke-width="0.25"/>
<path d="M 247.09 197.50 C 249.50 196.69 251.68 195.35 253.94 194.20 C 254.12 197.45 250.79 198.57 248.29 199.42 C 244.62 200.47 240.69 200.66 236.94 200.00 C 235.79 199.99 235.19 199.41 235.14 198.26 C 239.09 197.65 243.19 198.66 247.09 197.50 Z" fill="#42667a" opacity="1.00" stroke="#42667a" stroke-width="0.25"/>
<path d="M 267.99 205.00 C 271.22 202.10 273.61 198.42 275.81 194.72 C 276.81 198.39 280.18 202.30 277.90 206.09 C 273.84 214.20 266.03 220.16 257.36 222.60 C 256.37 219.55 254.94 216.65 254.16 213.52 C 259.02 211.14 264.03 208.78 267.99 205.00 Z" fill="#fdebdf" opacity="1.00" stroke="#fdebdf" stroke-width="0.25"/>
<path d="M 280.47 205.21 C 283.79 210.74 289.72 214.54 296.12 215.31 C 304.11 216.82 312.03 213.90 320.02 214.15 C 325.25 214.58 330.65 215.73 334.97 218.87 C 339.31 221.87 341.80 226.90 342.89 231.95 C 344.24 247.05 343.52 262.25 343.38 277.39 C 332.95 273.95 321.66 272.81 310.89 275.29 C 308.16 276.21 308.33 272.76 308.54 271.07 C 309.66 258.39 312.00 245.46 318.02 234.11 C 319.80 230.29 323.61 228.09 325.74 224.53 C 322.48 224.60 320.60 227.40 318.63 229.55 C 313.83 235.33 311.93 242.79 309.82 249.85 C 307.88 257.43 306.55 265.23 306.41 273.07 C 306.10 275.43 308.15 276.81 309.57 278.32 C 310.21 281.58 310.09 284.97 310.23 288.29 C 309.72 293.18 306.68 297.18 304.22 301.25 C 299.68 308.87 292.40 314.21 286.78 320.96 C 285.25 321.55 283.65 321.93 281.98 322.11 C 283.18 322.67 284.27 323.85 285.74 323.50 C 294.69 322.75 303.67 322.10 312.54 320.66 C 319.04 320.11 324.95 323.64 331.14 325.05 C 331.00 324.57 330.71 323.62 330.57 323.15 C 325.16 320.54 319.26 318.91 313.29 318.20 C 312.75 315.50 312.42 312.75 312.53 310.00 C 312.73 299.08 312.27 288.16 311.98 277.24 C 321.89 275.03 332.24 276.14 341.86 279.14 C 341.21 290.89 339.96 302.61 337.77 314.17 C 336.66 320.48 336.28 327.65 331.48 332.46 C 327.02 336.36 320.80 336.96 315.18 337.78 C 307.58 338.49 300.01 339.87 292.36 339.60 C 291.29 332.51 287.57 325.51 280.74 322.53 C 279.15 324.71 276.42 324.08 274.20 323.52 C 269.59 322.27 265.38 319.95 260.91 318.33 C 259.96 317.71 258.26 317.77 257.97 316.47 C 253.98 294.48 254.62 271.91 257.80 249.86 C 258.18 243.74 260.55 238.02 261.62 232.02 C 261.97 235.11 261.48 238.41 262.68 241.34 C 264.50 242.81 266.38 240.70 267.05 239.07 C 270.99 231.46 274.56 223.33 274.80 214.63 C 276.85 211.59 279.28 208.75 280.47 205.21 Z" fill="#ffffff" opacity="1.00" stroke="#ffffff" stroke-width="0.25"/>
<path d="M 193.33 220.42 C 197.62 213.57 205.21 209.38 213.15 208.46 C 215.94 212.75 218.59 217.40 222.98 220.27 C 226.76 223.09 231.49 224.08 236.09 224.45 C 237.55 230.50 240.02 236.25 243.03 241.68 C 243.55 241.07 244.07 240.47 244.60 239.87 C 241.70 235.09 239.63 229.90 238.14 224.54 C 241.58 224.26 245.03 223.83 248.38 222.96 C 246.25 229.75 246.78 237.09 244.60 243.82 C 245.18 243.75 246.34 243.60 246.91 243.53 C 248.48 239.95 248.11 235.89 248.45 232.08 C 249.69 237.30 250.48 242.81 253.22 247.51 C 253.90 247.74 255.26 248.19 255.94 248.42 C 252.51 270.95 251.76 294.08 255.93 316.57 C 250.86 317.21 247.12 321.04 242.37 322.59 C 237.64 324.07 235.88 329.05 233.54 332.91 C 229.80 315.79 225.53 298.78 221.40 281.75 C 220.63 278.89 220.03 275.95 218.73 273.28 C 216.59 270.70 212.89 271.70 209.98 271.56 C 210.25 260.27 212.74 249.18 215.79 238.35 C 215.25 238.38 214.16 238.44 213.61 238.47 C 210.21 249.24 208.29 260.47 207.71 271.74 C 206.41 271.46 205.04 271.38 203.82 270.82 C 195.16 266.04 186.07 261.26 176.07 260.21 C 181.79 246.94 185.59 232.74 193.33 220.42 Z" fill="#ffffff" opacity="1.00" stroke="#ffffff" stroke-width="0.25"/>
<path d="M 262.48 223.20 C 266.22 221.31 269.73 219.00 272.78 216.12 C 271.87 224.45 268.36 232.25 264.23 239.45 C 264.26 233.97 263.35 228.58 262.48 223.20 Z" fill="#ffffff" opacity="1.00" stroke="#ffffff" stroke-width="0.25"/>
<path d="M 357.24 217.84 C 362.00 227.11 368.07 235.60 374.23 243.97 C 379.43 250.94 380.58 260.48 377.45 268.56 C 373.86 278.14 364.86 284.53 355.46 287.70 C 356.14 264.41 356.64 241.12 357.24 217.84 Z" fill="#80e6fe" opacity="1.00" stroke="#80e6fe" stroke-width="0.25"/>
<path d="M 250.29 222.18 C 253.53 223.97 257.19 224.49 260.86 224.28 C 260.20 231.87 257.74 239.21 255.33 246.40 C 252.28 242.15 251.91 236.76 250.67 231.83 C 249.83 228.67 249.93 225.40 250.29 222.18 Z" fill="#80e6fe" opacity="1.00" stroke="#80e6fe" stroke-width="0.25"/>
<path d="M 342.89 231.95 C 346.84 245.58 350.89 259.61 350.30 273.93 C 350.49 277.86 346.28 278.57 343.38 277.39 C 343.52 262.25 344.24 247.05 342.89 231.95 Z" fill="#80e6fe" opacity="1.00" stroke="#80e6fe" stroke-width="0.25"/>
<path d="M 263.30 265.09 C 263.73 262.87 266.23 263.04 267.99 262.86 C 277.42 262.67 287.21 261.76 296.25 265.08 C 296.40 274.98 295.10 284.91 292.74 294.53 C 292.20 296.01 291.99 298.28 290.08 298.57 C 282.84 300.30 275.25 300.94 267.89 299.75 C 265.79 299.27 263.13 298.82 262.28 296.53 C 260.23 290.91 260.88 284.80 261.02 278.95 C 261.49 274.30 261.80 269.54 263.30 265.09 Z" fill="#42667a" opacity="1.00" stroke="#42667a" stroke-width="0.25"/>
<path d="M 170.77 271.54 C 172.24 268.33 173.82 265.18 175.66 262.17 C 184.78 263.27 193.05 267.49 201.11 271.64 C 191.00 271.46 180.88 271.58 170.77 271.54 Z" fill="#ffffff" opacity="1.00" stroke="#ffffff" stroke-width="0.25"/>
<path d="M 265.23 265.32 C 274.87 264.67 284.80 263.88 294.22 266.57 C 293.87 276.63 293.04 286.90 289.69 296.45 C 282.02 298.33 273.70 299.25 266.03 296.99 C 263.56 296.67 263.73 293.79 263.25 291.93 C 262.49 283.04 263.08 273.99 265.23 265.32 Z" fill="#ffffff" opacity="1.00" stroke="#ffffff" stroke-width="0.25"/>
<path d="M 104.84 277.29 C 106.47 276.01 107.63 273.54 109.96 273.61 C 143.69 273.46 177.43 273.72 211.16 273.73 C 213.93 273.48 214.27 276.89 215.11 278.78 C 214.10 279.01 213.10 279.24 212.09 279.47 C 210.72 277.99 209.23 276.35 206.98 276.69 C 172.93 276.89 138.89 277.01 104.84 277.29 Z" fill="#ffffff" opacity="1.00" stroke="#ffffff" stroke-width="0.25"/>
<path d="M 215.11 272.67 C 216.16 274.01 217.60 275.18 217.88 276.96 C 222.17 292.64 225.68 308.53 229.49 324.34 C 230.41 328.33 231.66 332.28 231.90 336.39 C 231.21 334.97 230.37 333.61 230.08 332.04 C 225.93 314.72 221.70 297.42 217.52 280.11 C 216.92 277.56 216.00 275.12 215.11 272.67 Z" fill="#ffffff" opacity="1.00" stroke="#ffffff" stroke-width="0.25"/>
<path d="M 103.45 279.25 C 137.65 279.06 171.86 278.98 206.07 278.88 C 209.27 278.20 210.32 281.53 210.85 283.99 C 216.51 306.44 222.26 328.89 227.47 351.46 C 197.99 351.32 168.50 351.48 139.02 350.99 C 133.99 350.73 128.77 351.67 123.88 350.19 C 121.47 349.63 121.25 346.92 120.59 344.98 C 115.04 323.03 109.37 301.10 103.45 279.25 Z" fill="#80e6fe" opacity="1.00" stroke="#80e6fe" stroke-width="0.25"/>
<path d="M 212.09 279.47 C 213.10 279.24 214.10 279.01 215.11 278.78 C 219.24 297.48 224.21 315.98 228.52 334.64 C 229.77 339.83 230.19 345.62 233.69 349.91 C 234.25 349.35 235.37 348.24 235.94 347.69 C 240.55 347.42 245.28 348.94 249.73 347.19 C 252.93 349.24 256.53 347.40 260.00 347.70 C 265.40 348.13 270.89 347.23 276.20 348.64 C 276.04 349.30 275.71 350.63 275.54 351.29 C 260.25 351.43 244.96 351.18 229.67 351.39 C 225.08 331.88 220.25 312.42 215.32 292.99 C 214.20 288.50 212.82 284.06 212.09 279.47 Z" fill="#80e6fe" opacity="1.00" stroke="#80e6fe" stroke-width="0.25"/>
<path d="M 341.86 279.14 C 343.45 279.56 345.04 279.96 346.63 280.37 C 347.03 298.93 347.54 317.61 345.14 336.07 C 344.54 340.49 343.59 346.00 338.79 347.74 C 323.41 353.27 306.40 351.54 291.09 346.65 C 291.58 344.31 292.01 341.96 292.36 339.60 C 300.01 339.87 307.58 338.49 315.18 337.78 C 320.80 336.96 327.02 336.36 331.48 332.46 C 336.28 327.65 336.66 320.48 337.77 314.17 C 339.96 302.61 341.21 290.89 341.86 279.14 Z" fill="#80e6fe" opacity="1.00" stroke="#80e6fe" stroke-width="0.25"/>
<path d="M 310.23 288.29 L 310.43 288.26 C 310.47 298.45 310.30 308.65 310.78 318.84 C 302.81 319.82 294.83 320.94 286.78 320.96 C 292.40 314.21 299.68 308.87 304.22 301.25 C 306.68 297.18 309.72 293.18 310.23 288.29 Z" fill="#80e6fe" opacity="1.00" stroke="#80e6fe" stroke-width="0.25"/>
<path d="M 163.80 309.46 C 165.34 308.33 166.82 307.10 168.49 306.16 C 168.02 307.69 167.47 309.19 166.84 310.67 L 166.25 310.14 C 166.26 310.80 166.28 312.10 166.29 312.76 C 163.49 312.60 158.82 309.71 157.29 313.53 C 156.43 316.52 158.96 319.20 161.29 320.74 C 163.93 320.11 166.82 321.01 169.27 319.58 C 168.27 317.33 167.28 315.08 166.31 312.82 C 166.72 312.56 167.52 312.04 167.93 311.78 C 170.09 313.50 170.25 316.66 171.09 319.14 C 170.52 323.07 166.30 323.39 163.15 322.79 C 157.22 323.33 152.31 315.20 156.52 310.57 C 158.57 308.89 161.40 309.98 163.80 309.46 Z" fill="#42667a" opacity="1.00" stroke="#42667a" stroke-width="0.25"/>
<path d="M 166.25 310.14 L 166.84 310.67 C 167.11 310.95 167.65 311.50 167.93 311.78 C 167.52 312.04 166.72 312.56 166.31 312.82 C 167.28 315.08 168.27 317.33 169.27 319.58 C 166.82 321.01 163.93 320.11 161.29 320.74 C 158.96 319.20 156.43 316.52 157.29 313.53 C 158.82 309.71 163.49 312.60 166.29 312.76 C 166.28 312.10 166.26 310.80 166.25 310.14 Z" fill="#ffffff" opacity="1.00" stroke="#ffffff" stroke-width="0.25"/>
<path d="M 240.44 325.98 C 244.97 323.80 249.53 321.63 253.87 319.05 C 261.77 319.29 268.17 325.01 275.92 325.99 C 278.56 326.46 281.34 326.20 283.90 327.09 C 288.16 330.72 289.70 336.54 290.13 341.93 C 284.97 342.72 279.58 342.64 274.81 340.30 C 275.35 339.66 276.43 338.39 276.97 337.75 C 271.70 335.99 268.91 341.78 265.99 344.97 C 265.05 346.62 261.88 346.26 262.04 344.12 C 262.70 340.53 265.14 337.65 266.78 334.49 C 266.25 334.51 265.20 334.56 264.67 334.59 C 262.16 337.32 260.03 340.40 257.26 342.92 C 258.22 343.75 259.20 344.56 260.16 345.41 C 258.68 345.42 257.19 345.49 255.76 345.03 C 254.18 346.28 251.28 346.82 251.59 343.88 C 253.11 339.74 256.28 336.45 257.78 332.30 C 257.39 332.11 256.61 331.72 256.23 331.53 C 253.07 335.73 251.08 340.72 247.66 344.73 C 246.67 346.21 244.82 345.87 243.31 345.87 C 242.72 339.22 248.83 334.31 249.08 327.74 C 247.08 329.93 245.44 332.63 242.49 333.65 C 239.83 336.23 238.69 340.23 235.43 342.27 C 233.61 343.45 231.40 340.84 232.55 339.12 C 234.74 334.51 237.46 330.12 240.44 325.98 Z" fill="#fdebdf" opacity="1.00" stroke="#fdebdf" stroke-width="0.25"/>
<path d="M 233.97 345.40 C 236.23 344.30 238.23 342.80 240.19 341.24 C 240.35 342.81 240.59 344.37 241.27 345.82 C 238.83 345.69 236.40 345.53 233.97 345.40 Z" fill="#80e6fe" opacity="1.00" stroke="#80e6fe" stroke-width="0.25"/>
<path d="M 268.81 345.59 C 269.64 343.97 270.67 342.48 271.72 341.00 C 273.42 341.91 275.11 342.82 276.80 343.78 C 276.64 344.47 276.49 345.16 276.34 345.86 C 273.82 345.84 271.31 345.83 268.81 345.59 Z" fill="#ffffff" opacity="1.00" stroke="#ffffff" stroke-width="0.25"/>
<path d="M 276.80 343.78 C 280.69 344.40 284.64 344.61 288.58 344.28 C 288.47 345.67 288.07 347.63 289.76 348.28 C 293.03 349.60 296.51 350.34 299.89 351.37 C 292.83 351.14 285.77 351.34 278.71 351.42 C 278.31 349.41 277.66 347.46 276.34 345.86 C 276.49 345.16 276.64 344.47 276.80 343.78 Z" fill="#80e6fe" opacity="1.00" stroke="#80e6fe" stroke-width="0.25"/>
<path d="M 99.51 353.50 C 149.33 353.13 199.15 353.56 248.98 353.36 C 291.60 353.41 334.23 353.33 376.85 353.37 C 377.38 356.72 378.46 360.44 376.68 363.61 C 375.29 365.76 372.26 365.18 370.06 365.66 C 323.43 368.16 276.71 369.24 230.00 368.97 C 191.12 369.06 152.24 367.80 113.41 365.91 C 109.31 365.76 105.15 365.71 101.16 364.66 C 97.74 362.06 99.39 357.12 99.51 353.50 Z" fill="#ffffff" opacity="1.00" stroke="#ffffff" stroke-width="0.25"/>
<path d="M 110.78 404.19 C 110.60 392.13 110.69 380.06 110.67 368.00 C 121.11 368.05 131.49 369.27 141.93 369.22 C 216.56 372.12 291.32 371.61 365.91 367.99 C 365.85 380.05 365.95 392.11 365.83 404.17 C 280.81 404.20 195.79 404.15 110.78 404.19 Z" fill="#ffffff" opacity="1.00" stroke="#ffffff" stroke-width="0.25"/>
</svg>