<?xml version="1.0" encoding="utf-8"?>
<svg xmlns="http://www.w3.org/2000/svg" height="512pt" version="1.1" viewBox="0 0 512 512" width="512pt">
<path d="M 0.00 0.00 L 512.00 0.00 L 512.00 512.00 L 327.31 512.00 C 330.21 483.06 331.56 453.97 331.20 424.89 C 334.07 424.34 336.94 423.71 339.81 423.09 C 339.83 412.49 337.91 402.02 336.47 391.55 C 334.43 377.29 331.07 363.27 328.61 349.08 C 332.33 348.11 336.05 346.58 338.56 343.53 C 343.37 337.90 345.72 330.68 348.20 323.83 C 354.83 302.20 357.33 279.48 357.62 256.92 C 357.67 238.87 356.35 220.73 352.47 203.07 C 351.33 197.72 350.07 191.96 346.00 187.98 C 340.57 182.57 332.96 180.43 326.11 177.43 C 328.52 168.62 332.70 160.18 333.20 150.94 C 333.40 144.78 329.26 139.81 324.96 135.93 C 321.79 133.16 319.60 129.22 319.61 124.94 C 319.54 115.93 324.39 107.25 322.34 98.18 C 320.78 92.06 314.14 89.00 312.65 82.84 C 309.93 72.90 308.38 62.53 303.71 53.23 C 296.53 39.12 282.71 28.36 267.03 25.58 C 257.91 23.83 247.84 24.82 240.06 30.22 C 227.11 27.74 214.45 36.30 208.55 47.43 C 203.30 57.86 200.39 69.42 199.62 81.05 C 199.10 89.13 200.71 97.40 198.41 105.31 C 197.22 110.12 194.92 114.92 195.77 119.99 C 197.29 127.50 205.56 131.28 206.93 138.90 C 209.02 145.50 205.67 151.84 203.47 157.89 C 201.53 162.73 204.20 167.55 205.86 172.02 C 192.64 174.22 179.01 179.76 170.84 190.86 C 165.08 198.27 163.06 207.64 160.78 216.54 C 155.22 238.97 147.75 260.85 141.30 283.03 C 138.82 292.73 135.27 303.02 138.47 313.00 C 140.52 319.71 143.42 326.77 149.17 331.13 C 156.43 335.57 165.28 335.59 173.50 336.37 C 167.81 355.54 163.22 375.07 159.87 394.79 C 159.15 400.31 157.73 405.90 158.36 411.49 C 161.16 413.21 164.26 414.35 167.22 415.74 C 165.45 447.85 168.13 480.04 171.16 512.00 L 0.00 512.00 L 0.00 0.00 Z" fill="transparent" opacity="1.00" stroke="transparent" stroke-width="0.25"/>
<path d="M 240.06 30.22 C 247.84 24.82 257.91 23.83 267.03 25.58 C 282.71 28.36 296.53 39.12 303.71 53.23 C 308.38 62.53 309.93 72.90 312.65 82.84 C 314.14 89.00 320.78 92.06 322.34 98.18 C 324.39 107.25 319.54 115.93 319.61 124.94 C 319.60 129.22 321.79 133.16 324.96 135.93 C 329.26 139.81 333.40 144.78 333.20 150.94 C 332.70 160.18 328.52 168.62 326.11 177.43 C 332.96 180.43 340.57 182.57 346.00 187.98 C 350.07 191.96 351.33 197.72 352.47 203.07 C 356.35 220.73 357.67 238.87 357.62 256.92 C 357.33 279.48 354.83 302.20 348.20 323.83 C 345.72 330.68 343.37 337.90 338.56 343.53 C 336.05 346.58 332.33 348.11 328.61 349.08 C 331.07 363.27 334.43 377.29 336.47 391.55 C 337.91 402.02 339.83 412.49 339.81 423.09 C 336.94 423.71 334.07 424.34 331.20 424.89 C 331.56 453.97 330.21 483.06 327.31 512.00 L 324.54 512.00 C 327.24 483.25 329.21 454.35 328.26 425.46 C 306.37 429.00 284.21 431.06 262.02 430.70 C 258.18 430.58 254.23 430.65 250.54 429.42 C 249.55 427.82 249.82 425.85 249.71 424.06 C 249.74 407.61 249.36 391.17 249.19 374.72 C 241.37 374.82 233.56 374.40 225.80 373.43 C 225.25 384.55 223.78 395.60 223.23 406.72 C 222.56 413.68 222.65 420.70 221.57 427.62 C 203.81 426.76 186.19 422.82 169.64 416.36 C 168.53 448.30 170.89 480.21 173.78 512.00 L 171.16 512.00 C 168.13 480.04 165.45 447.85 167.22 415.74 C 164.26 414.35 161.16 413.21 158.36 411.49 C 157.73 405.90 159.15 400.31 159.87 394.79 C 163.22 375.07 167.81 355.54 173.50 336.37 C 165.28 335.59 156.43 335.57 149.17 331.13 C 143.42 326.77 140.52 319.71 138.47 313.00 C 135.27 303.02 138.82 292.73 141.30 283.03 C 147.75 260.85 155.22 238.97 160.78 216.54 C 163.06 207.64 165.08 198.27 170.84 190.86 C 179.01 179.76 192.64 174.22 205.86 172.02 C 204.20 167.55 201.53 162.73 203.47 157.89 C 205.67 151.84 209.02 145.50 206.93 138.90 C 205.56 131.28 197.29 127.50 195.77 119.99 C 194.92 114.92 197.22 110.12 198.41 105.31 C 200.71 97.40 199.10 89.13 199.62 81.05 C 200.39 69.42 203.30 57.86 208.55 47.43 C 214.45 36.30 227.11 27.74 240.06 30.22 Z" fill="#042f4f" opacity="1.00" stroke="#042f4f" stroke-width="0.25"/>
<path d="M 242.40 31.38 C 246.25 29.18 250.50 27.60 254.98 27.46 C 275.43 25.39 295.54 39.00 303.08 57.76 C 306.78 66.32 307.85 75.69 310.75 84.50 C 312.61 90.12 318.49 93.31 320.08 99.02 C 322.11 109.72 314.77 120.15 318.30 130.81 C 320.73 136.28 326.32 139.39 329.27 144.51 C 331.68 149.73 330.35 155.66 328.80 160.93 C 327.15 166.17 325.82 171.55 323.43 176.52 C 319.99 175.33 316.53 174.21 313.05 173.11 C 309.08 166.08 301.57 162.25 293.93 160.60 C 292.63 155.55 290.81 150.30 291.94 145.03 C 293.20 139.05 296.36 133.67 297.77 127.73 C 298.58 124.34 297.82 120.87 297.58 117.45 C 298.45 114.40 301.24 112.07 301.78 108.80 C 303.37 102.49 301.27 93.87 293.99 92.41 C 293.77 89.49 293.61 86.57 293.48 83.64 C 283.23 80.21 272.43 78.15 262.81 73.05 C 255.45 69.13 250.31 62.40 245.46 55.83 C 244.04 57.99 243.50 60.52 243.04 63.03 C 242.08 68.72 237.73 73.28 232.72 75.82 C 226.28 79.07 219.34 81.14 212.61 83.70 C 212.18 85.85 211.75 87.99 211.30 90.14 C 208.71 91.40 205.65 92.54 204.34 95.34 C 200.57 102.97 202.91 112.70 209.33 118.16 L 209.36 118.66 C 209.33 125.81 213.51 132.03 214.33 139.01 C 214.55 145.88 209.90 152.05 210.78 159.00 C 211.53 162.18 213.56 164.84 215.23 167.58 C 214.16 168.79 213.08 170.00 212.01 171.22 C 211.17 171.30 209.49 171.47 208.65 171.56 C 206.48 167.58 204.24 163.07 205.61 158.43 C 207.01 154.30 209.50 150.46 209.76 146.00 C 210.35 140.32 208.88 134.29 204.93 130.04 C 202.19 126.64 198.40 123.53 197.74 118.97 C 197.58 111.66 202.32 105.32 202.38 98.03 C 202.53 88.75 201.59 79.35 203.50 70.18 C 205.17 60.87 208.02 51.43 213.77 43.79 C 218.07 38.14 224.32 33.98 231.31 32.57 C 234.96 31.88 238.96 33.12 242.40 31.38 Z" fill="#654844" opacity="1.00" stroke="#654844" stroke-width="0.25"/>
<path d="M 245.91 60.13 C 251.07 67.54 258.07 73.82 266.48 77.29 C 274.53 80.61 282.96 82.98 291.42 84.98 C 291.88 98.41 292.02 112.33 286.94 125.01 C 283.08 134.03 276.64 142.25 267.85 146.85 C 259.84 151.21 250.06 151.54 241.43 148.98 C 229.51 144.73 220.69 133.98 216.95 122.10 C 213.53 110.28 212.39 97.72 214.46 85.54 C 222.82 81.64 232.61 80.17 239.51 73.59 C 243.33 70.13 245.29 65.16 245.91 60.13 Z" fill="#fbc7ae" opacity="1.00" stroke="#fbc7ae" stroke-width="0.25"/>
<path d="M 235.43 80.65 C 236.84 80.54 238.60 80.00 239.64 81.31 C 239.94 82.41 239.93 83.51 239.60 84.60 C 233.23 87.02 226.31 87.48 219.78 89.36 C 219.19 89.06 218.01 88.47 217.42 88.17 C 217.52 87.38 217.72 85.80 217.82 85.01 C 223.66 83.47 229.46 81.70 235.43 80.65 Z" fill="#042f4f" opacity="1.00" stroke="#042f4f" stroke-width="0.25"/>
<path d="M 259.55 83.15 C 258.94 80.95 260.85 79.28 262.98 79.77 C 269.31 80.70 275.62 82.30 281.57 84.63 C 283.90 85.36 283.74 87.87 283.61 89.84 C 278.18 89.46 273.14 87.23 267.85 86.13 C 265.05 85.31 261.80 85.21 259.55 83.15 Z" fill="#042f4f" opacity="1.00" stroke="#042f4f" stroke-width="0.25"/>
<path d="M 208.34 93.53 C 209.05 93.43 210.48 93.23 211.19 93.13 C 210.80 101.21 211.90 109.20 212.92 117.19 C 204.09 113.37 202.06 100.48 208.34 93.53 Z" fill="#fbc7ae" opacity="1.00" stroke="#fbc7ae" stroke-width="0.25"/>
<path d="M 226.65 101.33 C 226.39 98.86 225.30 94.47 228.97 94.18 C 232.34 92.95 234.82 96.58 233.57 99.56 C 232.72 102.72 228.99 101.51 226.65 101.33 Z" fill="#042f4f" opacity="1.00" stroke="#042f4f" stroke-width="0.25"/>
<path d="M 266.25 96.13 C 267.23 93.90 269.83 94.48 271.78 94.24 C 273.26 96.24 274.59 99.36 272.13 101.20 C 269.09 104.66 263.69 99.62 266.25 96.13 Z" fill="#292424" opacity="1.00" stroke="#292424" stroke-width="0.25"/>
<path d="M 293.84 94.20 C 297.35 96.18 300.26 99.66 299.84 103.94 C 300.51 109.77 296.86 115.12 291.91 117.85 C 293.23 110.04 294.04 102.14 293.84 94.20 Z" fill="#fbc7ae" opacity="1.00" stroke="#fbc7ae" stroke-width="0.25"/>
<path d="M 267.38 100.90 C 267.58 99.12 266.51 96.23 269.04 95.68 C 271.50 94.04 272.20 98.05 271.78 99.72 C 270.39 100.34 268.92 100.74 267.38 100.90 Z" fill="#042f4f" opacity="1.00" stroke="#042f4f" stroke-width="0.25"/>
<path d="M 248.12 97.49 C 248.60 97.31 249.55 96.94 250.02 96.75 C 248.86 102.50 246.16 107.74 244.22 113.24 C 246.34 113.73 248.46 114.21 250.59 114.66 C 250.55 115.19 250.49 116.25 250.46 116.79 C 247.79 116.44 245.17 115.85 242.58 115.13 C 242.34 113.10 242.36 111.00 243.27 109.12 C 244.94 105.27 246.19 101.22 248.12 97.49 Z" fill="#292424" opacity="1.00" stroke="#292424" stroke-width="0.25"/>
<path d="M 211.31 117.86 C 215.28 124.67 217.23 132.62 222.13 138.94 C 226.84 144.58 233.17 148.48 239.43 152.16 C 235.28 155.14 229.97 155.84 225.90 158.95 C 222.23 161.68 218.82 164.74 215.23 167.58 C 213.56 164.84 211.53 162.18 210.78 159.00 C 209.90 152.05 214.55 145.88 214.33 139.01 C 213.51 132.03 209.33 125.81 209.36 118.66 C 209.84 118.46 210.82 118.06 211.31 117.86 Z" fill="#292424" opacity="1.00" stroke="#292424" stroke-width="0.25"/>
<path d="M 290.39 123.50 C 291.55 120.31 294.73 118.82 297.58 117.45 C 297.82 120.87 298.58 124.34 297.77 127.73 C 296.36 133.67 293.20 139.05 291.94 145.03 C 290.81 150.30 292.63 155.55 293.93 160.60 C 291.87 160.48 289.53 160.64 288.31 158.64 C 285.82 155.35 282.18 153.40 279.07 150.82 C 277.95 148.46 278.33 145.71 278.13 143.17 C 283.91 137.79 287.19 130.56 290.39 123.50 Z" fill="#292424" opacity="1.00" stroke="#292424" stroke-width="0.25"/>
<path d="M 252.02 127.58 C 257.25 127.57 261.76 124.82 265.86 121.87 C 265.91 126.41 260.58 127.69 257.41 129.56 C 252.65 130.05 247.76 130.62 243.09 129.21 C 240.75 128.19 237.20 127.44 237.17 124.21 C 241.85 126.24 246.78 128.33 252.02 127.58 Z" fill="#292424" opacity="1.00" stroke="#292424" stroke-width="0.25"/>
<path d="M 243.09 129.21 C 247.76 130.62 252.65 130.05 257.41 129.56 C 257.87 129.56 258.79 129.56 259.25 129.56 C 258.59 130.39 257.89 131.20 257.17 131.98 C 254.45 135.23 249.26 135.74 245.95 133.10 C 244.91 131.87 244.01 130.53 243.09 129.21 Z" fill="#ffffff" opacity="1.00" stroke="#ffffff" stroke-width="0.25"/>
<path d="M 245.95 133.10 C 249.26 135.74 254.45 135.23 257.17 131.98 C 257.40 132.55 257.87 133.68 258.11 134.25 C 254.23 137.58 248.44 137.68 244.31 134.74 C 244.44 134.16 244.68 132.99 244.81 132.41 L 245.95 133.10 Z" fill="#292424" opacity="1.00" stroke="#292424" stroke-width="0.25"/>
<path d="M 273.94 145.60 C 274.37 145.48 275.23 145.24 275.67 145.12 C 275.64 149.83 275.99 154.53 276.41 159.22 C 276.25 161.43 278.47 162.50 279.72 163.95 C 271.38 174.34 263.34 185.02 256.64 196.56 C 253.37 201.97 250.64 207.70 247.21 213.03 C 243.62 197.32 241.22 181.36 238.40 165.50 C 240.86 165.57 243.33 165.36 245.67 164.52 C 246.60 160.59 246.40 156.52 246.42 152.52 C 256.10 154.69 266.20 151.51 273.94 145.60 Z" fill="#fbc7ae" opacity="1.00" stroke="#fbc7ae" stroke-width="0.25"/>
<path d="M 278.57 155.04 C 284.62 156.82 288.19 162.38 291.23 167.49 C 296.82 178.28 296.39 190.72 297.31 202.49 C 290.93 202.39 284.05 205.51 278.30 201.40 C 276.91 204.55 279.64 207.75 280.39 210.82 C 277.67 216.10 273.20 221.68 274.70 227.94 C 264.43 237.21 257.56 250.19 255.72 263.90 C 255.86 265.94 254.65 269.01 256.96 270.17 C 260.17 270.78 263.00 268.50 265.95 267.65 C 262.01 274.52 255.90 279.93 252.51 287.15 C 252.73 274.63 254.62 262.14 257.95 250.07 C 264.92 228.25 272.84 206.72 278.93 184.63 C 280.90 177.02 283.40 168.90 281.49 161.05 C 280.80 160.78 279.42 160.24 278.73 159.96 C 278.66 158.32 278.60 156.68 278.57 155.04 Z" fill="#ffffff" opacity="1.00" stroke="#ffffff" stroke-width="0.25"/>
<path d="M 231.73 160.67 C 234.28 158.55 237.28 157.08 240.33 155.82 C 240.13 157.88 239.92 159.94 239.65 161.99 C 237.99 162.88 236.18 163.90 236.08 166.03 C 233.64 176.82 232.79 187.90 231.71 198.89 C 229.49 221.87 228.16 244.95 228.58 268.04 C 228.52 273.16 229.02 278.31 228.39 283.41 C 224.83 276.54 223.47 268.78 221.29 261.41 C 217.12 247.16 214.13 232.61 210.97 218.12 C 209.79 213.42 208.89 208.65 208.23 203.85 C 213.33 201.44 218.62 199.36 223.51 196.53 C 224.43 195.88 226.74 194.29 225.01 193.24 C 220.82 190.94 216.44 188.98 212.10 186.98 C 211.96 183.80 214.23 181.37 215.70 178.77 C 219.79 171.74 225.51 165.84 231.73 160.67 Z" fill="#ffffff" opacity="1.00" stroke="#ffffff" stroke-width="0.25"/>
<path d="M 291.33 163.14 C 297.69 163.30 303.97 165.91 308.41 170.49 C 312.81 175.08 312.94 182.17 311.40 188.00 C 309.83 195.34 305.22 201.44 302.19 208.18 C 302.68 210.76 304.81 212.70 305.77 215.14 C 309.12 223.36 307.25 233.02 302.04 240.06 C 300.85 239.07 299.66 238.07 298.47 237.07 C 301.05 233.15 303.66 228.91 303.65 224.06 C 304.13 219.00 301.77 213.40 296.86 211.38 C 293.60 210.00 288.92 209.34 286.47 212.50 C 283.30 216.41 281.96 221.38 280.33 226.05 C 278.90 225.76 277.48 225.47 276.06 225.17 C 278.69 217.97 282.11 210.35 289.11 206.42 C 292.15 205.01 295.59 205.44 298.84 205.49 C 303.68 196.78 310.00 187.34 308.18 176.89 C 306.45 170.80 299.50 169.33 294.26 167.60 C 293.27 166.11 292.30 164.63 291.33 163.14 Z" fill="#59cbfd" opacity="1.00" stroke="#59cbfd" stroke-width="0.25"/>
<path d="M 205.89 184.37 C 210.18 178.49 213.67 171.37 220.29 167.74 C 216.76 172.87 212.90 177.79 210.21 183.45 C 209.70 185.52 207.31 184.17 205.89 184.37 Z" fill="#59cbfd" opacity="1.00" stroke="#59cbfd" stroke-width="0.25"/>
<path d="M 261.98 192.39 C 267.40 184.22 272.97 176.10 279.45 168.73 C 277.98 182.12 273.28 194.88 269.16 207.62 C 266.67 202.60 263.72 197.75 261.98 192.39 Z" fill="#59cbfd" opacity="1.00" stroke="#59cbfd" stroke-width="0.25"/>
<path d="M 295.56 170.64 C 299.91 171.79 305.57 173.73 306.13 178.97 C 306.63 186.18 302.90 192.76 299.81 199.02 C 299.33 189.46 298.47 179.80 295.56 170.64 Z" fill="#ffffff" opacity="1.00" stroke="#ffffff" stroke-width="0.25"/>
<path d="M 186.21 181.22 C 193.41 177.17 201.58 175.47 209.56 173.66 C 209.52 173.98 209.45 174.61 209.42 174.92 C 207.13 178.07 204.88 181.25 202.42 184.27 C 203.03 184.71 204.23 185.61 204.84 186.05 C 197.60 207.25 197.71 230.20 201.45 252.08 C 198.39 254.18 195.52 256.95 195.15 260.87 C 193.08 269.22 203.22 276.54 210.78 272.85 C 218.08 270.21 218.83 260.00 214.40 254.54 C 212.87 252.78 210.64 251.91 208.57 250.97 C 206.90 238.34 206.11 225.49 207.30 212.77 C 211.61 236.12 217.38 259.20 224.36 281.90 C 221.50 281.59 218.66 281.11 215.80 280.84 C 214.12 281.27 213.27 282.98 212.15 284.14 C 203.52 280.56 194.59 277.77 185.56 275.41 C 187.66 262.29 191.25 249.34 191.59 235.99 C 192.00 226.87 191.50 217.60 188.99 208.79 C 188.85 207.32 187.23 207.34 186.18 206.87 C 186.79 211.95 188.39 216.87 188.58 222.01 C 189.81 234.07 188.29 246.23 185.85 258.05 C 184.66 263.47 184.18 269.05 182.31 274.31 C 180.07 269.61 176.31 265.90 172.55 262.41 C 171.65 261.43 170.31 261.26 169.09 260.97 C 169.72 263.91 172.30 265.67 174.19 267.78 C 176.67 270.28 178.58 273.24 180.48 276.18 C 178.51 277.53 176.81 279.20 174.93 280.66 C 169.11 279.02 162.98 277.09 156.93 278.87 C 157.47 279.29 158.55 280.14 159.09 280.56 C 163.85 280.80 168.57 281.50 173.16 282.80 C 172.36 284.33 171.52 285.84 170.55 287.27 C 167.38 286.54 164.12 285.68 160.86 286.37 L 159.92 288.25 C 163.22 288.83 166.54 289.28 169.88 289.63 C 169.72 291.04 169.56 292.46 169.41 293.88 C 163.95 292.71 158.16 292.05 152.76 293.83 C 152.63 294.40 152.36 295.55 152.23 296.12 C 159.15 295.04 166.27 295.46 172.86 297.91 C 171.12 302.63 167.14 306.00 165.15 310.60 C 167.23 311.58 168.18 309.55 169.29 308.40 C 170.78 306.50 172.33 304.64 174.08 302.96 C 184.15 307.37 192.81 314.91 203.77 317.17 C 203.76 318.28 203.76 319.39 203.76 320.51 C 204.04 320.90 204.60 321.69 204.88 322.09 C 213.01 324.19 221.29 325.75 229.37 328.05 C 223.14 330.12 216.50 330.28 210.06 331.28 C 193.44 332.86 176.56 335.07 159.94 332.32 C 154.96 331.42 149.59 329.65 146.82 325.07 C 141.45 316.63 138.12 306.09 140.85 296.16 C 146.44 272.05 155.38 248.89 161.41 224.90 C 163.88 216.36 165.25 207.44 168.92 199.29 C 172.44 191.55 178.70 185.16 186.21 181.22 Z" fill="#ffffff" opacity="1.00" stroke="#ffffff" stroke-width="0.25"/>
<path d="M 236.21 176.99 C 236.05 175.57 236.89 174.40 237.57 173.25 C 238.04 179.93 239.56 186.44 240.64 193.03 C 238.54 195.48 236.59 198.06 234.42 200.46 C 234.50 192.59 236.36 184.85 236.21 176.99 Z" fill="#59cbfd" opacity="1.00" stroke="#59cbfd" stroke-width="0.25"/>
<path d="M 314.33 176.09 C 322.66 179.10 331.20 181.74 339.01 186.01 C 341.92 187.55 344.31 189.84 346.42 192.34 C 350.80 202.73 351.69 214.10 353.27 225.15 C 356.43 255.94 355.11 287.45 347.23 317.47 C 344.67 325.87 342.23 334.67 336.73 341.68 C 332.50 346.99 325.14 347.19 318.93 347.24 C 299.88 346.51 281.21 341.70 263.51 334.79 C 245.14 327.45 225.40 324.87 206.37 319.85 C 207.14 308.95 209.40 298.08 213.70 288.00 C 214.45 286.44 215.19 284.88 215.92 283.32 C 232.45 285.64 248.91 288.56 265.14 292.49 C 271.73 293.78 278.18 295.87 284.87 296.64 C 286.20 295.79 287.61 294.93 289.25 294.90 C 297.05 294.50 304.92 295.44 312.48 297.37 C 318.04 298.75 322.28 302.88 325.97 307.03 C 327.64 308.89 328.97 311.25 331.52 312.06 C 331.50 310.50 331.04 309.11 330.14 307.90 C 326.08 302.04 320.37 297.40 313.87 294.50 C 319.86 292.12 326.94 292.40 332.51 295.75 C 334.54 296.84 336.26 298.91 338.81 298.49 C 336.98 293.99 332.08 292.46 328.01 290.68 L 327.76 290.60 C 326.06 290.07 324.30 289.79 322.59 289.35 C 325.12 287.07 327.68 284.60 331.05 283.66 C 333.25 282.97 336.78 281.85 335.20 278.81 C 333.32 278.43 331.41 278.24 329.50 278.27 L 329.53 277.85 C 332.25 277.17 334.95 276.40 337.55 275.34 C 338.27 273.47 339.09 271.17 336.77 270.09 C 333.24 268.66 329.26 268.93 325.52 268.48 C 330.73 267.23 336.13 266.23 340.72 263.29 C 340.71 261.76 340.69 260.23 340.63 258.71 C 337.80 257.94 334.89 257.48 331.95 257.56 C 335.44 256.71 338.30 253.64 337.54 249.85 C 336.93 249.57 335.72 248.99 335.11 248.71 C 329.95 249.64 324.92 251.28 320.30 253.77 C 320.34 247.88 319.30 241.80 321.16 236.09 C 322.37 231.86 324.35 227.91 326.39 224.04 C 325.94 223.62 325.05 222.77 324.60 222.35 C 317.39 233.28 314.99 246.46 311.88 258.97 C 304.26 266.06 299.13 275.61 290.95 282.08 C 283.91 283.39 277.52 286.67 271.60 290.56 C 265.97 290.84 260.56 288.40 255.04 287.48 C 259.19 281.23 264.13 275.55 268.25 269.28 C 271.70 272.66 275.20 276.02 279.16 278.83 C 286.24 274.02 290.25 266.04 293.76 258.49 C 295.73 254.46 295.59 249.88 294.60 245.61 C 295.80 244.08 297.03 242.58 298.23 241.05 C 299.02 241.46 300.61 242.27 301.41 242.68 C 304.56 242.02 305.91 238.83 307.20 236.24 C 311.21 227.50 311.10 216.23 304.52 208.74 C 308.01 201.66 312.60 194.92 314.18 187.06 C 314.90 183.44 314.59 179.73 314.33 176.09 Z" fill="#ffffff" opacity="1.00" stroke="#ffffff" stroke-width="0.25"/>
<path d="M 205.86 190.90 C 206.32 189.32 207.25 187.94 208.23 186.63 C 208.97 190.03 207.49 193.29 206.85 196.57 C 203.40 214.67 204.08 233.23 205.91 251.47 L 203.70 251.48 C 200.44 231.43 200.01 210.53 205.86 190.90 Z" fill="#59cbfd" opacity="1.00" stroke="#59cbfd" stroke-width="0.25"/>
<path d="M 208.57 200.89 C 209.35 196.99 210.18 193.10 211.49 189.34 C 214.87 191.31 218.39 193.02 221.82 194.88 C 217.29 196.62 212.94 198.79 208.57 200.89 Z" fill="#ffffff" opacity="1.00" stroke="#ffffff" stroke-width="0.25"/>
<path d="M 241.08 196.24 C 242.45 203.45 244.05 210.62 245.12 217.89 C 242.18 240.04 241.35 262.41 241.13 284.73 C 237.95 284.23 234.77 283.66 231.58 283.22 C 230.74 257.46 231.04 231.61 233.51 205.94 C 236.27 202.90 238.85 199.69 241.08 196.24 Z" fill="#59cbfd" opacity="1.00" stroke="#59cbfd" stroke-width="0.25"/>
<path d="M 260.10 195.81 C 262.69 200.88 265.15 206.03 268.35 210.77 C 263.83 224.67 258.72 238.38 254.69 252.44 C 251.64 263.58 250.61 275.12 249.54 286.58 C 247.60 286.08 245.65 285.65 243.71 285.19 C 244.09 263.76 245.15 242.33 247.11 220.98 C 247.27 219.12 247.75 217.28 248.78 215.70 C 252.73 209.17 256.08 202.30 260.10 195.81 Z" fill="#59cbfd" opacity="1.00" stroke="#59cbfd" stroke-width="0.25"/>
<path d="M 281.11 205.45 C 282.64 205.87 284.17 206.31 285.71 206.73 C 284.58 207.38 283.47 208.05 282.33 208.67 C 281.83 207.63 281.50 206.53 281.11 205.45 Z" fill="#ffffff" opacity="1.00" stroke="#ffffff" stroke-width="0.25"/>
<path d="M 288.33 213.45 C 292.94 211.31 298.86 213.72 300.55 218.54 C 303.00 224.66 299.96 231.16 296.36 236.13 C 296.49 237.19 296.63 238.25 296.77 239.32 C 295.78 240.27 294.82 241.26 293.86 242.24 C 291.96 234.39 290.11 226.52 287.66 218.82 C 286.83 216.99 287.78 215.19 288.33 213.45 Z" fill="#ffffff" opacity="1.00" stroke="#ffffff" stroke-width="0.25"/>
<path d="M 282.05 228.32 C 283.08 225.51 284.10 222.70 285.01 219.86 C 288.07 228.05 289.70 236.65 291.54 245.16 C 282.37 255.14 271.06 263.32 258.25 267.91 C 257.94 261.23 260.04 254.78 262.86 248.82 C 266.08 240.97 271.58 234.33 277.65 228.52 C 279.12 228.46 280.58 228.39 282.05 228.32 Z" fill="#ffffff" opacity="1.00" stroke="#ffffff" stroke-width="0.25"/>
<path d="M 269.54 266.09 C 277.81 260.94 285.73 255.18 292.39 248.02 C 292.62 250.97 293.01 254.12 291.61 256.87 C 288.55 263.80 284.84 270.68 279.24 275.90 C 275.99 272.67 271.90 270.08 269.54 266.09 Z" fill="#ffffff" opacity="1.00" stroke="#ffffff" stroke-width="0.25"/>
<path d="M 311.32 263.97 C 317.70 257.33 326.02 252.43 335.24 251.17 C 334.84 252.64 334.07 254.00 332.61 254.64 C 325.76 258.26 318.77 261.76 311.32 263.97 Z" fill="#fbc7ae" opacity="1.00" stroke="#fbc7ae" stroke-width="0.25"/>
<path d="M 203.60 253.71 C 206.30 253.13 209.62 253.02 211.64 255.25 C 214.91 257.83 215.40 262.49 214.31 266.25 C 211.93 271.69 204.11 273.24 199.86 269.12 C 194.77 264.77 197.35 255.48 203.60 253.71 Z" fill="#59cbfd" opacity="1.00" stroke="#59cbfd" stroke-width="0.25"/>
<path d="M 203.24 255.26 C 205.14 254.04 207.47 254.36 209.60 254.31 C 210.02 255.48 210.46 256.64 210.91 257.80 C 209.72 257.03 208.56 256.17 207.25 255.60 C 204.73 256.12 201.62 256.88 200.71 259.66 C 199.31 262.22 200.54 265.01 201.66 267.41 C 203.48 267.72 205.30 268.50 207.18 268.18 C 210.04 267.18 211.66 264.46 213.48 262.23 C 214.33 268.58 206.09 272.15 201.39 268.62 C 197.07 265.21 198.42 257.55 203.24 255.26 Z" fill="#042f4f" opacity="1.00" stroke="#042f4f" stroke-width="0.25"/>
<path d="M 203.12 265.20 C 200.16 263.03 201.99 257.06 205.96 258.09 C 208.60 258.21 209.26 261.03 209.70 263.12 C 209.18 263.69 208.16 264.83 207.64 265.40 C 206.13 265.39 204.60 265.53 203.12 265.20 Z" fill="#042f4f" opacity="1.00" stroke="#042f4f" stroke-width="0.25"/>
<path d="M 203.81 260.17 C 204.55 258.69 205.40 258.64 206.37 260.03 C 205.61 261.49 204.76 261.54 203.81 260.17 Z" fill="#59cbfd" opacity="1.00" stroke="#59cbfd" stroke-width="0.25"/>
<path d="M 319.44 263.50 C 325.62 261.61 332.01 259.96 338.53 260.17 C 338.47 260.68 338.35 261.71 338.30 262.22 C 330.10 265.72 321.28 267.50 313.14 271.15 C 311.42 271.97 308.96 272.45 309.07 274.86 C 313.42 273.88 317.40 271.45 321.93 271.30 C 326.81 271.14 331.89 270.79 336.52 272.68 C 331.04 276.46 324.00 275.95 317.87 277.89 C 312.26 280.98 308.98 286.84 306.32 292.44 C 305.98 292.61 305.30 292.95 304.96 293.12 C 297.58 291.94 290.08 292.25 282.65 292.49 C 282.66 291.52 282.68 290.56 282.69 289.61 C 291.89 287.33 297.35 279.11 303.56 272.69 C 307.60 267.84 313.72 265.65 319.44 263.50 Z" fill="#fbc7ae" opacity="1.00" stroke="#fbc7ae" stroke-width="0.25"/>
<path d="M 183.89 277.51 C 193.32 279.90 202.57 283.04 211.64 286.58 C 208.45 293.64 206.29 301.19 205.11 308.84 C 202.60 306.72 200.43 303.78 197.05 303.10 C 189.97 301.70 182.62 301.13 175.95 298.18 C 175.79 297.61 175.46 296.46 175.29 295.89 C 174.03 295.38 172.77 294.88 171.51 294.37 C 172.27 288.84 175.14 283.87 179.19 280.08 C 180.25 278.99 181.96 279.78 183.28 279.60 C 183.43 279.08 183.74 278.03 183.89 277.51 Z" fill="#fbc7ae" opacity="1.00" stroke="#fbc7ae" stroke-width="0.25"/>
<path d="M 325.05 279.06 C 326.51 278.69 328.00 278.47 329.50 278.27 C 331.41 278.24 333.32 278.43 335.20 278.81 C 336.78 281.85 333.25 282.97 331.05 283.66 C 327.68 284.60 325.12 287.07 322.59 289.35 C 324.30 289.79 326.06 290.07 327.76 290.60 C 322.14 290.66 316.38 289.50 310.84 291.14 C 310.32 291.23 309.81 291.32 309.30 291.42 C 311.82 287.63 313.79 283.26 318.01 281.04 C 320.16 279.78 322.61 279.36 325.05 279.06 Z" fill="#fbc7ae" opacity="1.00" stroke="#fbc7ae" stroke-width="0.25"/>
<path d="M 174.62 298.82 C 174.98 299.96 175.30 301.11 175.61 302.27 C 183.14 302.87 190.34 305.61 197.93 305.94 C 199.85 307.70 201.98 309.32 203.43 311.51 C 203.76 313.37 203.67 315.28 203.77 317.17 C 192.81 314.91 184.15 307.37 174.08 302.96 C 174.27 302.58 174.67 301.82 174.87 301.43 C 174.80 300.78 174.68 299.48 174.62 298.82 Z" fill="#fbc7ae" opacity="1.00" stroke="#fbc7ae" stroke-width="0.25"/>
<path d="M 218.08 333.29 C 221.22 332.45 224.52 332.44 227.65 331.56 C 227.20 333.47 226.76 335.40 226.35 337.33 C 209.71 338.43 193.04 340.15 176.35 339.26 C 176.31 338.55 176.25 337.13 176.21 336.42 C 181.15 336.43 186.09 336.43 191.02 336.18 C 197.34 335.34 203.71 334.61 210.09 334.26 C 212.69 333.51 215.40 333.45 218.08 333.29 Z" fill="#fbc7ae" opacity="1.00" stroke="#fbc7ae" stroke-width="0.25"/>
<path d="M 251.40 333.22 C 254.86 334.63 258.44 335.74 261.91 337.15 C 263.56 337.79 265.21 338.46 266.87 339.12 C 268.62 339.53 270.28 340.28 272.04 340.71 C 273.31 341.26 274.62 341.74 275.91 342.28 C 276.44 342.37 277.50 342.57 278.03 342.66 C 279.64 343.26 281.29 343.74 282.89 344.36 C 283.55 344.40 284.85 344.49 285.50 344.54 L 285.46 345.25 C 288.35 345.62 291.18 346.34 293.99 347.13 C 295.95 347.47 297.95 347.63 299.89 348.11 C 303.85 348.67 307.79 349.55 311.82 349.52 L 311.45 350.88 C 311.95 350.74 312.95 350.45 313.45 350.31 L 313.47 351.22 C 314.65 351.53 315.83 351.88 317.00 352.27 C 318.16 352.32 319.33 352.40 320.50 352.50 L 320.45 353.27 C 322.64 353.65 324.82 354.09 327.01 354.55 L 326.87 354.56 C 306.72 357.25 286.33 352.09 267.92 344.10 C 262.44 341.63 257.03 338.97 251.32 337.04 C 251.36 335.76 251.38 334.49 251.40 333.22 Z" fill="#fbc7ae" opacity="1.00" stroke="#fbc7ae" stroke-width="0.25"/>
<path d="M 229.73 336.88 C 235.98 336.80 242.21 336.38 248.45 336.27 C 248.53 343.00 248.62 349.73 248.78 356.46 C 241.84 356.55 234.97 355.47 228.13 354.39 C 228.46 348.53 229.25 342.72 229.73 336.88 Z" fill="#59cbfd" opacity="1.00" stroke="#59cbfd" stroke-width="0.25"/>
<path d="M 176.35 339.26 C 193.04 340.15 209.71 338.43 226.35 337.33 L 227.16 337.27 C 223.94 366.40 220.91 395.57 219.51 424.85 C 199.15 423.74 179.24 418.11 160.60 410.00 C 163.17 385.99 169.23 362.55 175.25 339.22 L 176.35 339.26 Z" fill="#ffffff" opacity="1.00" stroke="#ffffff" stroke-width="0.25"/>
<path d="M 251.32 337.04 C 257.03 338.97 262.44 341.63 267.92 344.10 C 286.33 352.09 306.72 357.25 326.87 354.56 C 331.13 376.63 335.58 398.72 337.37 421.16 C 318.62 424.62 299.67 427.17 280.60 427.79 C 271.23 428.42 261.80 428.40 252.44 427.45 C 252.28 397.31 251.35 367.18 251.32 337.04 Z" fill="#ffffff" opacity="1.00" stroke="#ffffff" stroke-width="0.25"/>
<path d="M 227.65 357.09 C 234.63 358.40 241.71 358.84 248.80 359.23 C 248.79 363.38 249.01 367.52 249.31 371.67 C 241.66 371.96 233.99 371.60 226.43 370.43 C 226.72 365.97 227.33 361.55 227.65 357.09 Z" fill="#59cbfd" opacity="1.00" stroke="#59cbfd" stroke-width="0.25"/>
<path d="M 178.83 366.58 C 187.47 366.87 195.94 368.90 204.32 370.91 C 204.51 371.80 204.70 372.69 204.88 373.59 C 200.80 374.80 196.57 373.85 192.47 373.29 C 187.31 372.37 181.89 371.84 177.27 369.14 C 177.66 368.50 178.44 367.22 178.83 366.58 Z" fill="#042f4f" opacity="1.00" stroke="#042f4f" stroke-width="0.25"/>
<path d="M 287.98 370.93 C 297.96 370.17 307.76 367.99 317.71 367.09 C 317.60 368.59 316.88 369.82 315.32 370.13 C 307.73 372.40 299.85 373.71 291.97 374.43 C 289.94 374.73 287.98 374.28 286.22 373.27 C 286.66 372.69 287.54 371.52 287.98 370.93 Z" fill="#042f4f" opacity="1.00" stroke="#042f4f" stroke-width="0.25"/>
<path d="M 223.23 406.72 C 223.78 395.60 225.25 384.55 225.80 373.43 C 233.56 374.40 241.37 374.82 249.19 374.72 C 249.36 391.17 249.74 407.61 249.71 424.06 C 249.82 425.85 249.55 427.82 250.54 429.42 C 254.23 430.65 258.18 430.58 262.02 430.70 C 284.21 431.06 306.37 429.00 328.26 425.46 C 329.21 454.35 327.24 483.25 324.54 512.00 L 249.92 512.00 C 249.63 490.64 248.49 469.31 247.53 447.97 C 247.47 446.22 247.25 444.39 245.99 443.07 C 241.63 437.83 238.12 431.97 234.26 426.37 C 233.68 426.41 232.51 426.49 231.92 426.54 C 233.99 431.34 238.15 435.40 238.06 440.93 C 239.51 464.60 240.76 488.29 241.36 512.00 L 173.78 512.00 C 170.89 480.21 168.53 448.30 169.64 416.36 C 186.19 422.82 203.81 426.76 221.57 427.62 C 222.65 420.70 222.56 413.68 223.23 406.72 Z" fill="#59cbfd" opacity="1.00" stroke="#59cbfd" stroke-width="0.25"/>
<path d="M 234.81 375.80 C 235.48 375.78 236.83 375.75 237.51 375.73 C 237.41 384.80 236.51 393.84 236.75 402.93 C 236.70 409.62 237.48 416.29 237.52 422.99 C 235.31 423.38 235.11 421.30 234.81 419.90 C 233.40 405.23 234.07 390.49 234.81 375.80 Z" fill="#042f4f" opacity="1.00" stroke="#042f4f" stroke-width="0.25"/>
<path d="M 231.92 426.54 C 232.51 426.49 233.68 426.41 234.26 426.37 C 238.12 431.97 241.63 437.83 245.99 443.07 C 247.25 444.39 247.47 446.22 247.53 447.97 C 248.49 469.31 249.63 490.64 249.92 512.00 L 241.36 512.00 C 240.76 488.29 239.51 464.60 238.06 440.93 C 238.15 435.40 233.99 431.34 231.92 426.54 Z" fill="#042f4f" opacity="1.00" stroke="#042f4f" stroke-width="0.25"/>
</svg>