<?xml version="1.0" encoding="utf-8"?>
<svg xmlns="http://www.w3.org/2000/svg" height="512pt" version="1.1" viewBox="0 0 512 512" width="512pt">
<path d="M 0.00 0.00 L 512.00 0.00 L 512.00 512.00 L 0.00 512.00 L 0.00 0.00 Z" fill="transparent" opacity="1.00" stroke="transparent" stroke-width="0.25"/>
<path d="M 223.96 41.70 C 248.06 34.42 275.06 37.48 296.85 50.10 C 299.05 51.40 301.48 53.79 304.06 51.87 C 307.06 53.26 308.77 56.20 310.73 58.70 C 317.06 52.79 326.64 49.90 335.02 52.71 C 345.48 56.17 353.29 65.27 356.60 75.59 C 359.69 84.75 358.73 95.03 363.59 103.63 C 366.03 107.63 369.33 111.41 373.80 113.16 C 376.56 114.28 379.55 114.44 382.48 114.72 C 382.78 116.62 383.09 118.93 381.02 119.98 C 371.24 126.33 357.76 124.98 348.23 118.76 C 344.05 116.25 341.03 112.38 337.71 108.91 C 339.41 121.26 338.68 133.93 335.74 146.04 C 343.24 153.81 342.31 167.27 334.66 174.60 C 331.97 177.44 328.28 179.11 324.48 179.78 C 322.78 187.38 321.01 195.18 316.76 201.82 C 315.62 203.70 313.96 205.15 312.15 206.35 C 311.31 206.26 310.49 206.19 309.66 206.13 C 309.57 204.63 309.23 203.07 309.82 201.63 C 312.43 194.04 314.23 186.07 314.43 178.02 C 306.83 192.69 292.93 203.38 277.73 209.34 C 293.05 215.49 306.83 224.97 319.05 235.98 C 322.23 239.31 326.20 241.96 328.58 245.99 C 325.88 248.38 323.00 250.54 320.16 252.76 C 324.65 259.22 327.69 266.52 331.65 273.29 C 338.28 285.61 344.88 297.95 351.69 310.17 C 352.66 312.08 355.09 312.34 356.79 313.34 C 363.60 316.21 369.90 320.55 374.25 326.59 C 375.08 328.27 374.50 330.23 374.48 332.02 C 373.59 332.77 372.72 333.53 371.86 334.30 C 366.42 334.92 362.45 329.50 356.98 330.35 C 354.69 330.67 352.00 331.78 351.06 334.05 C 350.87 338.63 352.08 343.34 350.80 347.86 C 349.68 352.05 343.39 353.85 340.39 350.63 C 338.54 348.95 338.51 346.31 337.94 344.07 C 337.00 339.65 335.60 334.99 332.08 331.91 C 328.01 328.14 324.11 324.21 320.15 320.33 C 328.29 336.66 336.87 352.78 346.69 368.17 C 345.41 369.49 343.93 370.61 342.20 371.26 C 329.83 376.58 316.59 379.65 303.33 381.75 C 303.06 410.60 303.16 439.46 303.29 468.31 C 327.01 468.25 350.72 468.20 374.44 468.36 C 374.72 469.04 375.30 470.41 375.59 471.09 C 375.19 471.64 374.40 472.72 374.00 473.27 C 293.30 473.32 212.60 473.29 131.90 473.29 C 128.84 473.80 128.92 470.49 129.27 468.45 C 153.43 468.09 177.60 468.22 201.76 468.39 C 202.50 458.64 202.08 448.81 201.95 439.04 C 201.79 420.15 201.54 401.27 201.32 382.38 C 187.36 379.82 173.18 377.31 160.09 371.62 C 157.88 371.15 158.23 368.56 159.27 367.16 C 165.22 355.93 170.58 344.42 176.00 332.93 C 177.38 330.07 178.10 326.82 180.25 324.40 C 178.73 324.49 178.04 326.09 176.97 326.97 C 173.98 330.31 169.89 332.86 168.09 337.12 C 166.19 341.32 165.88 345.99 164.40 350.33 C 161.52 353.01 156.63 352.89 154.16 349.78 C 151.62 345.21 153.09 339.77 153.08 334.82 C 152.85 332.32 150.15 331.14 148.05 330.52 C 142.89 329.18 138.85 333.74 133.98 334.35 C 132.18 334.65 130.93 333.02 129.50 332.24 C 129.51 330.37 128.95 328.37 129.74 326.61 C 135.03 318.91 143.87 315.01 151.95 311.07 C 162.26 292.73 172.16 274.15 181.85 255.47 C 179.08 252.92 174.34 251.83 173.11 248.07 C 177.76 242.41 183.31 237.56 188.61 232.53 C 199.59 223.42 211.11 214.05 224.97 209.86 C 214.29 205.11 204.12 198.94 196.09 190.33 C 197.98 194.63 201.75 198.75 200.60 203.78 C 197.34 203.77 195.05 201.31 193.15 198.97 C 188.81 193.24 185.14 186.99 182.41 180.33 C 176.73 180.69 170.73 179.34 166.42 175.44 C 159.52 169.35 157.40 158.58 161.45 150.33 C 162.39 148.39 164.49 146.66 163.72 144.29 C 162.19 135.55 161.26 126.70 161.60 117.82 C 158.54 124.26 154.97 130.43 151.79 136.81 C 150.40 139.49 148.69 142.27 145.91 143.70 C 144.58 143.86 142.55 143.60 142.47 141.91 C 142.00 137.93 143.19 133.98 143.08 129.99 C 142.92 124.75 142.45 119.46 140.82 114.45 C 137.75 103.74 132.13 93.38 132.90 81.93 C 133.38 68.14 144.65 56.21 157.78 53.12 C 165.19 51.25 172.76 54.02 179.08 57.81 C 179.67 56.67 180.25 55.52 180.83 54.37 C 185.32 52.96 187.20 58.16 189.88 60.69 C 199.46 51.74 211.48 45.55 223.96 41.70 Z" fill="#062a49" opacity="1.00" stroke="#062a49" stroke-width="0.25"/>
<path d="M 237.90 42.88 C 250.67 41.50 263.81 41.95 276.15 45.80 C 284.57 48.15 292.36 52.26 299.84 56.69 C 299.39 59.66 297.09 62.30 297.54 65.35 C 299.90 68.41 303.66 69.99 306.12 72.96 C 307.61 75.22 306.96 78.30 308.39 80.57 C 309.79 82.55 312.13 80.82 313.96 80.56 C 316.39 83.95 318.51 87.64 321.55 90.54 C 324.11 91.89 325.92 89.33 326.89 87.35 C 335.68 104.32 336.20 124.52 332.20 142.90 C 330.27 141.77 328.37 140.60 326.50 139.39 C 326.40 131.89 326.71 124.37 326.31 116.88 C 326.95 115.55 324.00 114.37 324.01 115.96 C 322.76 120.52 323.40 125.33 323.23 129.99 C 322.42 141.66 324.34 153.38 322.68 165.02 C 322.58 175.02 320.41 184.98 316.31 194.10 C 317.11 185.74 318.66 177.42 318.33 168.98 C 317.72 152.92 314.00 137.09 314.21 120.99 C 314.23 112.78 313.74 104.35 316.59 96.49 C 313.15 95.51 311.37 99.32 308.94 100.99 C 298.47 109.18 285.05 112.71 271.96 113.48 C 257.15 114.19 242.15 107.91 232.74 96.36 C 231.26 94.47 229.67 92.65 227.93 90.99 C 225.83 93.54 227.64 96.67 228.67 99.25 C 230.56 103.72 234.19 107.02 237.23 110.69 C 234.77 109.96 232.29 109.15 230.11 107.75 C 220.85 101.91 212.51 94.34 206.77 84.93 C 204.57 88.06 206.14 92.06 205.50 95.59 C 203.23 109.98 198.30 124.31 189.41 135.99 C 189.46 132.21 189.52 128.44 189.43 124.67 C 188.57 124.65 187.71 124.63 186.85 124.59 C 180.64 139.77 184.29 156.45 186.88 172.00 C 187.62 178.31 190.91 183.91 191.93 190.15 C 185.83 180.70 181.13 170.32 178.56 159.35 C 175.89 146.31 174.51 132.66 177.31 119.52 C 177.75 118.45 176.80 117.74 176.23 117.00 C 172.32 123.99 173.83 132.38 173.33 140.04 C 171.49 140.93 169.66 141.82 167.83 142.72 C 164.56 128.25 164.91 113.03 168.34 98.62 C 169.03 98.57 170.41 98.49 171.10 98.45 C 172.69 96.77 174.98 95.33 175.30 92.84 C 175.80 90.40 176.56 88.02 177.61 85.75 C 180.07 85.68 183.09 85.64 184.33 83.06 C 184.48 81.05 183.68 79.14 183.18 77.22 C 186.95 74.60 190.86 71.93 193.58 68.16 C 193.66 66.45 193.04 64.83 192.65 63.20 C 205.62 52.61 221.19 45.01 237.90 42.88 Z" fill="#734d48" opacity="1.00" stroke="#734d48" stroke-width="0.25"/>
<path d="M 304.24 54.28 C 308.29 58.60 311.40 63.70 313.44 69.27 C 316.67 69.35 317.95 72.13 319.85 74.19 C 323.97 75.53 328.39 75.50 332.68 75.76 C 332.65 76.16 332.60 76.96 332.57 77.35 C 328.83 80.81 325.53 84.70 323.02 89.14 C 319.70 85.63 317.65 81.17 314.44 77.58 C 312.84 78.09 311.23 78.53 309.60 78.90 C 309.45 76.88 309.34 74.86 309.22 72.84 C 306.08 69.78 302.63 67.06 299.33 64.16 C 300.87 60.82 302.45 57.49 304.24 54.28 Z" fill="#87e5fe" opacity="1.00" stroke="#87e5fe" stroke-width="0.25"/>
<path d="M 313.02 61.70 C 317.81 57.92 323.85 55.25 330.06 56.03 C 339.11 56.87 346.29 63.83 350.58 71.41 C 355.05 79.37 354.57 88.77 356.70 97.41 C 359.23 105.73 364.35 114.29 373.05 117.18 C 373.21 117.41 373.54 117.86 373.70 118.09 C 367.00 120.48 359.71 119.26 353.33 116.51 C 346.50 112.56 340.87 106.56 337.22 99.60 C 335.52 94.13 333.30 88.82 330.37 83.89 C 332.74 81.24 338.29 77.35 334.17 73.79 C 329.74 73.30 325.28 73.13 320.92 72.15 C 319.90 69.23 317.45 67.45 314.72 66.26 C 314.15 64.74 313.58 63.22 313.02 61.70 Z" fill="#734d48" opacity="1.00" stroke="#734d48" stroke-width="0.25"/>
<path d="M 155.24 58.14 C 162.35 55.22 170.60 56.97 176.55 61.63 C 175.66 65.05 174.93 68.51 174.18 71.96 C 172.68 72.47 171.01 72.71 169.77 73.76 C 168.16 75.54 168.05 78.41 165.89 79.73 C 163.24 81.58 160.72 83.61 158.34 85.79 C 158.32 87.61 158.31 89.43 158.30 91.25 C 160.35 93.04 162.37 94.88 164.34 96.76 C 162.84 100.83 162.33 105.19 160.75 109.24 C 156.82 118.42 151.50 126.93 147.35 136.00 C 147.75 125.98 145.90 115.85 142.51 106.42 C 139.55 98.60 136.55 90.54 136.82 82.04 C 137.07 71.18 145.56 62.03 155.24 58.14 Z" fill="#734d48" opacity="1.00" stroke="#734d48" stroke-width="0.25"/>
<path d="M 176.14 73.52 C 177.89 67.60 179.09 61.33 182.66 56.15 C 185.73 59.84 188.98 63.38 192.02 67.10 C 188.53 70.55 184.61 73.59 180.43 76.16 C 180.71 78.37 181.17 80.54 181.64 82.71 C 179.72 82.68 177.80 82.63 175.88 82.55 C 174.41 87.38 173.09 92.37 170.18 96.58 C 166.16 95.05 163.05 91.99 160.27 88.83 C 163.37 84.39 168.40 81.68 171.03 76.87 C 172.10 74.91 175.51 75.86 176.14 73.52 Z" fill="#87e5fe" opacity="1.00" stroke="#87e5fe" stroke-width="0.25"/>
<path d="M 208.53 92.09 C 214.32 99.44 221.52 105.72 229.59 110.46 C 234.29 112.98 239.12 115.77 244.58 115.99 C 244.46 116.95 244.34 117.91 244.22 118.87 C 231.33 117.13 219.94 109.50 211.50 99.87 C 209.02 106.80 207.98 114.22 204.75 120.90 C 202.03 126.51 199.52 132.32 195.47 137.13 C 195.39 135.55 195.34 133.97 195.32 132.39 C 202.35 120.03 207.56 106.40 208.53 92.09 Z" fill="#fb8f7e" opacity="1.00" stroke="#fb8f7e" stroke-width="0.25"/>
<path d="M 231.35 98.81 C 239.92 108.93 252.72 115.20 265.94 116.06 C 282.54 116.80 299.66 112.13 312.59 101.42 C 311.02 108.92 311.34 116.62 311.39 124.23 C 310.76 118.26 311.11 112.27 311.59 106.31 C 298.63 114.82 283.24 118.83 267.93 120.18 C 259.96 120.01 251.59 118.84 244.79 114.39 C 240.19 109.30 234.37 105.15 231.35 98.81 Z" fill="#fb8f7e" opacity="1.00" stroke="#fb8f7e" stroke-width="0.25"/>
<path d="M 204.75 120.90 C 207.98 114.22 209.02 106.80 211.50 99.87 C 219.94 109.50 231.33 117.13 244.22 118.87 C 244.34 117.91 244.46 116.95 244.58 115.99 L 244.79 114.39 C 251.59 118.84 259.96 120.01 267.93 120.18 C 283.24 118.83 298.63 114.82 311.59 106.31 C 311.11 112.27 310.76 118.26 311.39 124.23 C 312.05 134.46 313.17 144.65 314.48 154.82 C 314.76 159.12 316.12 163.55 314.86 167.80 C 310.31 179.16 302.65 189.32 292.68 196.48 C 278.92 206.50 261.44 211.06 244.53 209.63 C 227.04 207.89 210.14 199.74 198.41 186.56 C 196.24 184.01 193.52 181.48 193.03 178.00 C 192.36 173.07 190.57 168.41 188.83 163.78 C 186.70 156.70 186.57 149.25 185.78 141.96 C 185.51 139.82 185.82 137.68 186.32 135.61 C 186.45 137.26 186.58 138.91 186.71 140.56 C 191.05 139.93 192.56 135.18 195.32 132.39 C 195.34 133.97 195.39 135.55 195.47 137.13 C 199.52 132.32 202.03 126.51 204.75 120.90 Z" fill="#fecdb3" opacity="1.00" stroke="#fecdb3" stroke-width="0.25"/>
<path d="M 203.32 130.05 C 207.06 124.27 214.27 121.52 220.93 121.28 C 226.67 121.19 232.67 121.64 237.91 124.15 C 240.21 125.15 241.27 127.91 240.13 130.16 C 238.33 132.33 235.35 131.42 233.13 130.59 C 227.74 128.86 222.80 125.04 216.90 125.57 C 213.04 126.23 209.47 128.28 206.96 131.28 C 205.51 131.57 203.97 131.75 203.32 130.05 Z" fill="#062a49" opacity="1.00" stroke="#062a49" stroke-width="0.25"/>
<path d="M 267.59 122.98 C 277.50 120.18 289.57 120.03 297.53 127.52 C 298.89 128.31 298.55 129.93 298.74 131.25 C 298.20 131.29 297.10 131.36 296.56 131.40 C 293.26 128.63 289.56 125.49 285.00 125.54 C 277.60 125.42 271.85 131.72 264.45 131.53 C 263.78 130.79 263.10 130.06 262.43 129.33 C 262.48 128.53 262.58 126.94 262.63 126.15 C 264.08 124.81 265.60 123.44 267.59 122.98 Z" fill="#062a49" opacity="1.00" stroke="#062a49" stroke-width="0.25"/>
<path d="M 276.51 142.48 C 280.94 138.23 289.82 139.77 291.57 146.00 C 294.00 151.71 289.51 159.34 283.02 158.87 C 278.62 159.23 275.22 155.82 273.52 152.11 C 273.53 148.74 273.38 144.65 276.51 142.48 Z" fill="#062a49" opacity="1.00" stroke="#062a49" stroke-width="0.25"/>
<path d="M 216.53 141.72 C 219.63 140.50 223.46 140.65 226.11 142.83 C 230.70 146.20 231.08 154.02 226.53 157.61 C 222.75 161.42 215.88 160.46 212.86 156.17 C 209.01 151.70 210.86 143.68 216.53 141.72 Z" fill="#062a49" opacity="1.00" stroke="#062a49" stroke-width="0.25"/>
<path d="M 283.76 142.35 C 285.76 142.09 287.86 142.28 288.98 144.20 C 288.70 145.34 288.44 146.47 288.18 147.61 C 286.70 147.70 285.22 147.72 283.74 147.67 C 283.34 146.75 282.93 145.83 282.52 144.92 C 282.94 144.06 283.35 143.21 283.76 142.35 Z" fill="#ffffff" opacity="1.00" stroke="#ffffff" stroke-width="0.25"/>
<path d="M 221.30 143.49 C 222.05 143.27 223.54 142.85 224.29 142.64 C 225.81 143.69 226.66 145.21 226.77 147.07 C 226.32 147.49 225.42 148.34 224.97 148.76 C 223.87 148.63 222.78 148.50 221.69 148.37 C 220.80 146.81 220.74 145.16 221.30 143.49 Z" fill="#ffffff" opacity="1.00" stroke="#ffffff" stroke-width="0.25"/>
<path d="M 166.66 149.75 C 168.38 147.22 171.02 145.58 173.52 143.91 C 174.72 154.93 176.61 165.93 180.96 176.19 C 175.73 176.30 170.19 174.34 167.04 169.99 C 162.50 164.32 162.23 155.56 166.66 149.75 Z" fill="#fecdb3" opacity="1.00" stroke="#fecdb3" stroke-width="0.25"/>
<path d="M 325.78 144.01 C 332.02 146.20 336.94 152.21 336.79 159.00 C 337.22 166.57 331.81 173.58 324.67 175.75 C 325.91 165.21 325.80 154.60 325.78 144.01 Z" fill="#fecdb3" opacity="1.00" stroke="#fecdb3" stroke-width="0.25"/>
<path d="M 249.70 148.97 C 250.00 148.47 250.59 147.48 250.88 146.98 C 254.11 150.52 257.12 154.35 259.22 158.68 C 260.05 160.31 259.09 161.91 258.24 163.29 C 255.10 164.39 251.78 164.71 248.48 164.63 C 248.39 164.07 248.21 162.96 248.12 162.40 C 250.92 161.90 253.75 161.51 256.58 161.22 C 256.44 156.28 251.58 153.27 249.70 148.97 Z" fill="#062a49" opacity="1.00" stroke="#062a49" stroke-width="0.25"/>
<path d="M 201.47 162.69 C 205.10 161.98 209.43 161.86 212.13 164.85 C 215.50 167.31 216.41 172.02 214.75 175.75 C 211.82 182.90 199.70 183.69 196.46 176.40 C 193.12 171.52 196.11 164.54 201.47 162.69 Z" fill="#fb8f7e" opacity="1.00" stroke="#fb8f7e" stroke-width="0.25"/>
<path d="M 293.38 162.53 C 296.79 161.90 300.66 162.19 303.31 164.66 C 307.58 167.98 307.44 174.99 303.55 178.56 C 298.69 183.80 288.66 181.77 286.39 174.94 C 284.11 169.78 288.02 163.53 293.38 162.53 Z" fill="#fb8f7e" opacity="1.00" stroke="#fb8f7e" stroke-width="0.25"/>
<path d="M 256.97 173.99 C 260.65 173.48 264.10 172.03 267.73 171.32 C 267.66 178.15 266.07 185.80 260.56 190.38 C 255.52 194.81 247.38 194.76 242.17 190.65 C 236.90 186.47 234.35 179.63 234.13 173.05 C 241.67 174.22 249.36 175.34 256.97 173.99 Z" fill="#062a49" opacity="1.00" stroke="#062a49" stroke-width="0.25"/>
<path d="M 237.17 176.16 C 246.28 178.51 255.76 177.54 264.75 175.14 C 264.49 178.88 263.06 182.35 261.32 185.61 C 259.59 187.56 257.44 189.03 255.26 190.42 C 252.02 190.57 248.50 191.19 245.55 189.47 C 240.58 186.96 238.27 181.31 237.17 176.16 Z" fill="#fb8f7e" opacity="1.00" stroke="#fb8f7e" stroke-width="0.25"/>
<path d="M 230.44 211.29 C 232.83 211.92 235.25 212.45 237.69 212.82 C 237.86 217.63 238.70 223.00 242.63 226.27 C 247.61 230.59 255.79 230.16 260.28 225.31 C 263.63 222.05 263.71 217.12 264.16 212.79 C 265.51 212.64 266.86 212.48 268.21 212.33 C 268.52 212.06 269.15 211.51 269.46 211.24 C 269.50 219.70 268.29 228.13 267.67 236.57 C 256.01 236.50 244.35 236.46 232.69 236.38 C 232.04 228.01 231.01 219.67 230.44 211.29 Z" fill="#ffffff" opacity="1.00" stroke="#ffffff" stroke-width="0.25"/>
<path d="M 272.28 211.75 C 276.68 213.59 281.22 215.13 285.36 217.53 C 288.46 230.19 291.81 242.79 294.76 255.49 C 296.24 262.30 297.90 269.11 298.39 276.07 C 266.71 281.97 233.90 282.37 202.22 276.29 C 202.27 269.76 204.23 263.48 205.59 257.14 C 208.39 244.26 212.28 231.63 214.90 218.73 C 219.03 216.29 223.42 214.13 228.11 213.05 C 228.51 221.80 229.30 230.54 230.45 239.22 C 243.73 239.12 257.00 239.34 270.28 239.39 C 271.00 230.18 271.61 220.97 272.28 211.75 Z" fill="#87e5fe" opacity="1.00" stroke="#87e5fe" stroke-width="0.25"/>
<path d="M 241.54 213.60 C 247.61 214.22 253.76 214.60 259.83 213.66 C 259.73 216.24 259.31 218.79 258.42 221.21 C 258.32 221.21 258.11 221.19 258.00 221.19 C 253.05 220.83 248.03 221.43 243.14 220.36 C 243.03 220.35 242.81 220.31 242.70 220.29 C 242.23 218.08 241.77 215.86 241.54 213.60 Z" fill="#fb8f7e" opacity="1.00" stroke="#fb8f7e" stroke-width="0.25"/>
<path d="M 288.42 219.12 C 300.01 225.56 310.65 233.65 320.15 242.89 C 321.05 243.73 321.73 244.77 322.39 245.81 C 314.81 251.03 307.57 256.75 299.87 261.79 C 298.78 261.37 298.89 260.09 298.60 259.16 C 295.56 245.73 292.11 232.38 288.42 219.12 Z" fill="#ffffff" opacity="1.00" stroke="#ffffff" stroke-width="0.25"/>
<path d="M 179.36 247.19 C 189.19 237.13 200.05 228.10 211.83 220.39 C 208.34 234.60 204.44 248.69 201.26 262.97 C 193.89 258.17 186.37 253.56 179.24 248.42 C 179.27 248.11 179.33 247.49 179.36 247.19 Z" fill="#ffffff" opacity="1.00" stroke="#ffffff" stroke-width="0.25"/>
<path d="M 243.14 220.36 C 248.03 221.43 253.05 220.83 258.00 221.19 C 255.07 226.77 245.63 226.04 243.14 220.36 Z" fill="#fecdb3" opacity="1.00" stroke="#fecdb3" stroke-width="0.25"/>
<path d="M 220.51 239.64 C 226.18 237.69 232.64 243.19 231.37 249.11 C 230.75 255.61 221.70 258.38 217.29 253.77 C 212.52 249.75 214.54 241.26 220.51 239.64 Z" fill="#062a49" opacity="1.00" stroke="#062a49" stroke-width="0.25"/>
<path d="M 275.15 240.21 C 278.57 238.40 283.27 239.43 285.58 242.56 C 288.83 246.24 287.56 252.93 283.08 255.04 C 279.49 256.76 274.61 256.09 272.28 252.64 C 269.19 248.70 270.64 242.40 275.15 240.21 Z" fill="#062a49" opacity="1.00" stroke="#062a49" stroke-width="0.25"/>
<path d="M 217.56 245.89 C 218.69 241.60 225.32 240.75 227.68 244.39 C 229.52 246.67 228.74 250.08 227.16 252.31 C 223.81 254.16 219.62 253.54 217.42 250.27 C 217.41 248.80 217.45 247.34 217.56 245.89 Z" fill="#ffffff" opacity="1.00" stroke="#ffffff" stroke-width="0.25"/>
<path d="M 275.95 242.56 C 278.34 242.29 281.58 241.47 283.21 243.82 C 285.52 246.11 284.70 249.79 283.17 252.29 C 279.81 254.13 275.89 253.38 273.43 250.46 C 273.42 248.63 273.44 246.80 273.54 244.97 C 274.35 244.18 275.15 243.38 275.95 242.56 Z" fill="#ffffff" opacity="1.00" stroke="#ffffff" stroke-width="0.25"/>
<path d="M 300.35 266.62 C 306.02 263.01 311.37 258.93 316.93 255.14 C 317.93 256.95 318.96 258.76 319.98 260.56 C 316.43 264.85 311.91 268.14 307.76 271.79 C 306.06 273.33 303.99 274.33 301.86 275.10 C 301.59 272.23 301.08 269.40 300.35 266.62 Z" fill="#fb8f7e" opacity="1.00" stroke="#fb8f7e" stroke-width="0.25"/>
<path d="M 183.42 262.14 C 184.16 260.72 184.97 259.34 185.75 257.94 C 188.76 259.91 191.90 261.70 194.73 263.95 C 196.07 265.07 197.38 266.25 198.69 267.42 C 198.67 269.33 198.64 271.23 198.60 273.15 C 192.85 270.46 189.12 264.95 183.42 262.14 Z" fill="#fb8f7e" opacity="1.00" stroke="#fb8f7e" stroke-width="0.25"/>
<path d="M 307.76 271.79 C 311.91 268.14 316.43 264.85 319.98 260.56 C 328.46 276.81 337.34 292.86 346.05 309.00 C 347.42 311.12 348.12 314.12 350.66 315.15 C 358.18 318.67 366.34 322.29 371.01 329.53 C 367.51 330.23 365.01 326.90 361.75 326.28 C 355.88 324.23 349.12 327.17 346.49 332.75 C 346.50 336.98 347.29 341.18 347.11 345.41 C 347.11 347.33 345.22 347.97 343.84 348.80 C 341.97 344.43 341.90 339.51 339.78 335.23 C 337.91 330.47 333.61 327.44 330.07 324.00 C 325.21 319.19 320.22 314.49 315.82 309.25 C 313.81 306.91 312.93 303.89 311.77 301.09 C 308.43 292.44 304.51 283.99 301.86 275.10 C 303.99 274.33 306.06 273.33 307.76 271.79 Z" fill="#fecdb3" opacity="1.00" stroke="#fecdb3" stroke-width="0.25"/>
<path d="M 183.42 262.14 C 189.12 264.95 192.85 270.46 198.60 273.15 C 198.64 271.23 198.67 269.33 198.69 267.42 C 197.38 266.25 196.07 265.07 194.73 263.95 C 196.38 265.00 198.05 266.04 199.75 267.03 C 199.50 270.44 199.51 273.95 198.29 277.19 C 193.81 289.38 189.29 301.57 184.27 313.54 C 181.72 316.86 178.34 319.44 175.48 322.49 C 171.32 326.87 165.79 330.40 163.65 336.31 C 161.99 340.35 161.96 344.87 160.06 348.83 C 154.66 346.78 157.65 340.25 157.37 336.00 C 158.11 332.09 155.07 328.87 151.98 327.01 C 148.08 324.89 143.23 325.53 139.40 327.46 C 137.35 328.39 135.44 330.21 133.01 329.55 C 137.96 321.51 147.28 318.34 155.16 314.12 C 164.86 296.97 174.08 279.51 183.42 262.14 Z" fill="#fecdb3" opacity="1.00" stroke="#fecdb3" stroke-width="0.25"/>
<path d="M 201.94 279.30 C 204.34 279.38 206.73 279.68 209.09 280.17 C 207.00 288.64 202.69 296.44 200.97 305.01 C 201.56 304.91 202.74 304.72 203.33 304.62 C 206.40 296.90 209.19 289.06 211.93 281.22 C 214.85 281.32 217.77 281.55 220.69 281.77 C 219.49 293.78 215.86 305.48 215.20 317.55 C 215.73 317.49 216.79 317.36 217.32 317.29 C 219.50 305.65 221.84 294.03 223.72 282.34 C 226.30 282.50 228.87 282.66 231.45 282.84 C 231.37 288.74 230.85 294.63 230.67 300.53 C 231.58 300.51 232.48 300.50 233.39 300.50 C 233.62 294.75 233.82 289.00 234.27 283.26 C 237.70 283.30 241.14 283.40 244.57 283.48 C 243.91 296.16 242.92 308.84 242.48 321.54 C 243.37 321.49 244.27 321.43 245.16 321.37 C 246.01 308.73 246.41 296.05 247.42 283.42 C 251.83 283.45 256.25 283.42 260.67 283.26 C 262.03 295.16 262.84 307.12 264.43 318.99 C 264.99 319.20 266.11 319.63 266.67 319.84 C 266.36 307.57 264.36 295.41 263.51 283.18 C 267.14 282.82 270.78 282.59 274.43 282.45 C 274.74 288.19 275.83 293.85 276.46 299.56 C 277.07 299.59 278.29 299.65 278.90 299.68 C 278.88 293.76 277.44 287.98 277.24 282.08 C 280.17 281.62 283.12 281.37 286.09 281.28 C 287.36 290.48 289.36 299.56 290.68 308.75 C 291.63 308.71 292.58 308.67 293.53 308.66 C 292.00 299.26 290.28 289.89 288.57 280.53 C 291.76 279.90 294.93 279.26 298.09 278.48 C 306.30 299.56 314.83 320.58 325.59 340.51 C 327.52 344.09 329.44 347.67 331.22 351.33 C 309.50 358.12 286.68 360.54 264.00 360.74 C 233.57 360.57 203.21 356.29 173.83 348.37 C 180.34 333.59 187.16 318.94 192.88 303.83 C 195.92 295.66 199.50 287.68 201.94 279.30 Z" fill="#87e5fe" opacity="1.00" stroke="#87e5fe" stroke-width="0.25"/>
<path d="M 170.22 355.24 C 171.03 353.67 171.84 352.11 172.68 350.57 C 199.10 358.25 226.52 362.22 253.99 363.30 C 280.36 364.03 307.17 361.80 332.34 353.53 C 333.47 354.85 334.58 356.20 335.45 357.72 C 316.45 364.74 296.07 366.98 275.97 368.29 C 240.33 369.50 204.47 365.21 170.22 355.24 Z" fill="#ffffff" opacity="1.00" stroke="#ffffff" stroke-width="0.25"/>
<path d="M 168.98 357.54 C 206.49 368.69 246.03 372.99 285.05 370.43 C 302.65 369.14 320.13 365.95 336.87 360.33 C 338.15 362.57 339.44 364.82 340.73 367.06 C 321.45 375.46 300.30 378.33 279.52 380.22 C 259.94 381.77 240.24 381.63 220.67 380.07 C 201.30 378.19 181.66 375.44 163.47 368.21 C 165.53 364.78 167.41 361.23 168.98 357.54 Z" fill="#87e5fe" opacity="1.00" stroke="#87e5fe" stroke-width="0.25"/>
<path d="M 206.46 382.22 C 206.79 382.49 207.46 383.02 207.79 383.28 C 218.98 384.19 230.15 385.46 241.39 385.46 C 241.39 402.82 241.09 420.19 241.20 437.55 C 232.48 438.16 223.74 437.54 215.02 438.06 C 212.15 438.25 209.27 438.07 206.42 437.76 C 206.42 423.51 206.17 409.26 206.13 395.01 C 206.12 390.76 205.04 386.34 206.46 382.22 Z" fill="#fecdb3" opacity="1.00" stroke="#fecdb3" stroke-width="0.25"/>
<path d="M 284.38 384.22 C 289.07 383.49 293.83 383.31 298.50 382.43 C 298.48 401.08 298.56 419.73 298.49 438.38 C 287.46 438.18 276.42 438.21 265.38 438.33 C 265.10 424.68 264.72 411.04 264.64 397.39 C 275.46 397.53 286.21 395.79 297.02 395.48 C 297.71 391.50 297.78 387.45 297.44 383.43 C 293.13 384.16 288.75 384.46 284.38 384.22 Z" fill="#fecdb3" opacity="1.00" stroke="#fecdb3" stroke-width="0.25"/>
<path d="M 284.38 384.22 C 288.75 384.46 293.13 384.16 297.44 383.43 C 297.78 387.45 297.71 391.50 297.02 395.48 C 286.21 395.79 275.46 397.53 264.64 397.39 C 264.60 393.38 264.55 389.37 264.49 385.37 C 271.13 385.13 277.73 384.24 284.38 384.22 Z" fill="#fb8f7e" opacity="1.00" stroke="#fb8f7e" stroke-width="0.25"/>
<path d="M 206.42 384.35 C 213.02 383.79 219.44 385.66 226.02 385.54 C 230.49 386.21 235.00 386.80 239.54 386.27 C 240.89 389.67 240.80 393.43 240.28 397.00 C 239.49 398.75 237.53 398.40 235.98 398.38 C 226.53 397.49 217.04 397.46 207.61 396.33 C 206.16 392.49 206.07 388.39 206.42 384.35 Z" fill="#fb8f7e" opacity="1.00" stroke="#fb8f7e" stroke-width="0.25"/>
<path d="M 245.81 385.54 C 250.57 385.29 255.34 385.40 260.11 385.42 C 260.12 401.30 260.49 417.16 260.57 433.04 C 261.14 444.86 258.98 456.56 258.38 468.33 C 254.73 468.27 251.08 468.24 247.44 468.31 C 247.05 459.21 246.09 450.15 245.49 441.08 C 245.53 422.56 245.96 404.05 245.81 385.54 Z" fill="#ffffff" opacity="1.00" stroke="#ffffff" stroke-width="0.25"/>
<path d="M 206.53 443.53 C 207.75 442.46 209.44 442.96 210.91 442.84 C 221.00 442.79 231.09 442.60 241.18 442.49 C 241.45 447.39 241.87 452.27 242.27 457.16 C 239.16 453.21 235.18 449.62 230.14 448.50 C 221.15 445.81 210.53 450.34 206.57 458.93 C 206.52 453.80 206.47 448.66 206.53 443.53 Z" fill="#87e5fe" opacity="1.00" stroke="#87e5fe" stroke-width="0.25"/>
<path d="M 264.13 456.65 C 264.17 452.01 264.67 447.39 264.88 442.76 C 276.13 442.74 287.38 442.97 298.62 442.63 C 298.73 447.66 298.77 452.70 298.71 457.74 C 294.64 449.80 284.52 446.14 276.10 448.41 C 271.20 449.50 267.18 452.80 264.13 456.65 Z" fill="#87e5fe" opacity="1.00" stroke="#87e5fe" stroke-width="0.25"/>
<path d="M 221.81 451.07 C 231.59 449.10 241.65 456.62 243.01 466.42 C 230.84 466.37 218.68 466.44 206.51 466.35 C 208.19 458.92 213.91 451.97 221.81 451.07 Z" fill="#ffffff" opacity="1.00" stroke="#ffffff" stroke-width="0.25"/>
<path d="M 274.88 451.68 C 279.38 450.71 284.18 450.25 288.49 452.25 C 294.33 454.66 298.38 460.21 299.41 466.38 C 287.29 466.42 275.17 466.37 263.05 466.40 C 263.96 459.70 268.95 454.49 274.88 451.68 Z" fill="#ffffff" opacity="1.00" stroke="#ffffff" stroke-width="0.25"/>
</svg>