<svg xmlns="http://www.w3.org/2000/svg" height="512pt" version="1.1" viewBox="0 0 512 512" width="512pt">
<path d="M 0.00 0.00 L 512.00 0.00 L 512.00 512.00 L 0.00 512.00 L 0.00 0.00 Z" fill="transparent" opacity="1.00" stroke="transparent" stroke-width="0.25" data-index="0" style="opacity: 1;"></path>
<path d="M 164.63 39.60 C 165.51 38.29 166.72 37.26 167.90 36.24 C 173.99 40.28 178.96 45.73 183.80 51.13 C 202.00 71.94 209.09 101.07 205.22 128.18 C 205.88 128.34 207.18 128.67 207.83 128.83 C 209.63 125.41 212.51 120.02 217.18 121.65 C 219.25 124.57 218.17 128.28 219.46 131.39 C 220.87 131.26 222.28 131.20 223.69 131.20 C 224.20 131.87 224.72 132.54 225.25 133.21 C 230.43 111.40 242.97 92.13 257.51 75.38 C 263.18 68.45 269.32 61.91 275.41 55.35 C 277.70 53.15 279.80 50.28 283.12 49.66 C 286.02 51.89 286.25 55.85 287.27 59.09 C 290.37 73.56 289.34 88.55 287.50 103.12 C 286.09 114.63 282.34 126.03 275.39 135.42 C 269.52 143.32 262.79 150.94 254.16 155.88 C 256.05 160.42 258.94 164.58 260.49 169.33 C 264.43 181.10 264.59 193.85 262.71 206.03 C 263.71 207.10 264.42 208.47 264.07 209.99 C 263.81 213.46 263.75 216.94 263.60 220.43 C 264.87 220.87 266.15 221.32 267.44 221.76 C 267.86 225.33 265.59 228.47 265.26 231.96 C 267.41 233.23 269.16 235.02 270.71 236.96 C 270.34 237.58 269.60 238.81 269.23 239.43 C 268.71 239.64 267.67 240.06 267.15 240.28 C 268.11 243.84 268.80 247.46 268.77 251.17 C 276.82 254.14 285.50 255.67 294.09 254.72 C 304.14 254.32 314.00 250.11 324.11 252.10 C 338.18 254.35 349.05 265.62 355.02 277.99 C 360.12 282.85 365.55 287.71 368.95 294.02 C 376.53 306.81 381.05 321.23 383.52 335.83 C 384.18 339.59 384.49 343.42 385.46 347.12 C 392.11 347.93 397.46 353.76 398.86 360.15 C 399.74 364.54 404.77 367.24 404.33 372.04 C 404.04 372.62 403.47 373.78 403.18 374.36 C 399.89 375.33 396.37 374.55 393.83 372.26 C 393.93 376.00 393.54 379.72 393.27 383.45 C 392.38 384.68 391.38 385.85 390.00 386.56 C 384.62 384.92 382.40 379.23 378.40 375.91 C 377.53 378.60 376.43 382.58 372.93 382.55 C 370.15 380.70 370.67 376.93 369.96 374.07 C 368.47 365.66 368.53 355.59 374.85 349.07 C 374.10 334.82 369.90 321.05 365.47 307.58 C 365.33 314.05 365.99 320.53 365.45 327.00 C 364.01 343.74 360.28 360.22 359.58 377.03 C 359.43 386.70 359.50 396.39 360.21 406.03 C 360.90 420.70 362.85 435.33 361.99 450.04 C 361.70 454.21 361.87 458.52 360.37 462.50 C 356.17 464.33 351.52 464.67 347.03 465.20 C 339.13 465.62 331.02 465.84 323.34 463.63 C 322.67 459.04 324.19 454.59 324.92 450.11 C 328.29 432.88 328.67 415.00 325.69 397.68 C 324.80 417.63 323.38 437.62 319.88 457.29 C 309.45 460.58 297.63 460.50 287.54 456.06 C 287.35 452.25 289.65 449.00 290.56 445.42 C 294.45 434.39 295.81 422.49 294.44 410.87 C 292.32 396.69 286.25 383.57 281.94 370.01 C 280.81 368.60 278.33 369.78 276.67 369.51 C 272.97 378.88 273.13 389.15 273.83 399.04 C 274.43 405.25 275.69 411.39 277.74 417.30 C 282.38 433.77 284.50 450.95 284.30 468.05 C 284.50 469.75 283.28 471.18 281.64 471.44 C 272.64 473.81 263.39 475.81 254.03 475.54 C 249.80 475.42 245.26 475.45 241.45 473.38 C 241.45 471.14 241.45 468.90 241.48 466.67 C 241.98 466.85 242.98 467.19 243.48 467.36 C 243.95 469.06 244.34 470.79 244.73 472.52 C 256.89 473.67 269.56 473.65 281.04 468.97 C 283.34 464.31 282.39 458.62 281.38 453.67 C 280.48 454.96 279.58 456.26 278.69 457.55 C 273.65 458.13 268.80 460.59 263.65 459.62 C 258.53 458.82 253.29 459.99 248.22 458.90 C 247.86 458.56 247.13 457.87 246.76 457.53 C 257.44 459.53 268.29 457.60 278.74 455.22 C 278.06 437.82 272.54 421.12 269.39 404.11 C 267.29 391.07 268.82 377.53 273.23 365.11 C 276.65 355.90 277.16 346.07 278.51 336.46 C 280.10 335.27 281.88 334.99 283.64 335.98 C 284.77 341.44 283.43 346.98 282.42 352.35 C 281.61 356.06 280.80 359.78 279.72 363.42 C 290.01 362.41 300.45 360.42 309.78 355.81 C 317.64 351.86 323.08 344.44 326.03 336.30 C 327.47 333.66 328.03 330.68 328.69 327.77 C 329.29 327.46 330.49 326.82 331.10 326.50 C 333.63 327.85 332.89 330.83 332.55 333.15 C 330.39 343.10 326.05 353.32 317.21 359.08 C 320.63 366.29 324.42 373.38 326.64 381.08 C 333.28 402.76 335.77 426.41 329.57 448.49 C 337.64 450.52 346.17 449.53 354.27 448.12 C 355.35 447.70 357.61 447.88 357.29 446.10 C 357.07 425.74 354.09 405.47 354.69 385.09 C 355.15 372.35 356.78 359.70 358.56 347.09 C 360.38 332.32 362.50 317.20 359.36 302.46 C 357.00 291.35 352.74 280.33 345.49 271.47 C 338.54 263.34 328.56 257.08 317.63 256.82 C 308.65 256.83 299.96 259.49 291.04 260.09 C 280.86 260.86 270.15 259.17 261.43 253.62 C 256.85 250.73 253.77 246.13 251.09 241.54 C 249.42 244.47 247.52 247.26 245.44 249.91 C 230.15 266.37 205.86 271.74 184.29 267.65 C 183.95 275.08 183.53 282.52 183.82 289.96 C 184.33 302.32 184.75 314.86 188.30 326.80 C 189.97 331.61 191.82 336.71 195.86 340.08 C 206.49 349.32 219.25 356.01 232.85 359.67 C 232.33 353.44 231.07 347.16 231.87 340.91 C 231.98 340.46 232.21 339.57 232.33 339.12 C 233.33 339.24 234.34 339.37 235.35 339.50 C 240.27 364.67 242.99 390.23 245.16 415.77 C 244.54 418.87 243.97 421.98 243.46 425.11 C 242.63 420.38 243.41 415.51 242.35 410.82 C 241.78 408.06 239.62 406.06 238.47 403.56 C 237.85 404.00 237.23 404.44 236.61 404.89 C 234.94 391.60 233.16 378.33 231.57 365.03 C 216.91 362.26 203.03 355.15 192.05 345.08 C 195.62 359.81 202.20 373.55 206.88 387.92 C 210.23 399.56 213.20 411.43 213.74 423.58 C 212.77 428.77 213.30 434.16 211.47 439.20 C 211.24 447.34 206.87 455.44 209.16 463.57 C 208.86 463.89 208.26 464.53 207.96 464.85 C 203.98 464.30 206.41 459.67 206.46 457.04 C 211.68 430.98 207.90 403.79 198.63 379.08 C 193.56 366.06 188.92 352.78 186.61 338.96 C 179.92 327.52 178.03 314.03 177.43 300.98 C 177.05 289.48 177.16 277.92 178.56 266.49 C 166.42 263.46 154.37 256.85 148.27 245.49 C 145.18 239.72 145.23 232.73 148.02 226.87 C 148.19 214.94 150.81 203.24 153.92 191.77 C 158.33 176.25 163.72 160.83 171.83 146.81 C 172.35 144.95 170.17 144.04 169.25 142.78 C 157.72 129.99 152.45 112.78 150.76 95.94 C 149.27 76.37 153.42 55.93 164.63 39.60 Z" fill="#042b48" opacity="1.00" stroke="#042b48" stroke-width="0.25" data-index="1" style="opacity: 1;"></path>
<path d="M 157.56 70.92 C 159.33 60.43 162.97 50.23 168.68 41.24 C 170.88 44.08 173.73 46.28 176.33 48.72 C 182.38 54.55 187.37 61.46 191.12 68.98 C 196.06 80.15 199.32 92.03 200.84 104.15 C 202.81 115.83 200.80 127.71 197.46 138.94 C 197.12 141.72 193.72 143.20 194.50 146.22 C 195.22 146.23 196.67 146.25 197.39 146.26 C 197.53 149.35 201.33 148.76 203.51 149.40 C 203.81 153.62 203.40 158.41 205.87 162.03 C 207.14 164.43 210.71 163.92 212.09 161.89 C 214.19 158.91 214.93 155.28 216.56 152.07 C 217.89 153.15 219.40 153.62 221.10 153.46 C 221.40 152.96 222.01 151.97 222.31 151.47 C 222.79 149.60 221.91 146.81 224.31 146.03 C 225.11 148.45 225.71 153.43 229.49 151.57 C 229.26 141.52 229.80 131.24 233.83 121.88 C 240.88 105.94 250.09 90.83 261.90 77.96 C 267.84 70.22 275.55 63.91 281.14 55.91 C 281.40 56.04 281.93 56.29 282.19 56.42 C 286.04 69.53 284.93 83.49 283.53 96.90 C 282.34 108.32 280.03 119.95 273.90 129.84 C 268.33 138.63 261.35 146.78 252.46 152.33 C 249.26 154.38 245.51 155.17 242.11 156.78 C 242.19 157.48 242.34 158.88 242.42 159.58 C 245.17 160.03 247.70 158.80 250.29 158.12 C 251.11 159.40 252.05 160.62 252.71 162.00 C 254.16 168.93 256.04 175.84 256.23 182.96 C 256.50 193.95 256.99 205.38 252.87 215.80 C 249.84 222.75 246.78 229.87 241.49 235.44 C 238.17 239.66 233.27 242.03 229.25 245.45 C 228.91 244.90 228.57 244.35 228.25 243.80 C 225.71 233.98 218.43 225.95 209.56 221.27 C 199.20 214.95 186.87 212.82 174.90 212.95 C 167.26 213.45 159.46 215.34 153.29 220.07 C 156.58 195.20 164.34 170.72 176.85 148.92 C 177.31 148.74 178.23 148.37 178.70 148.19 C 178.67 146.11 176.98 144.69 175.91 143.08 C 172.12 137.78 168.23 132.53 165.34 126.66 C 156.89 109.56 153.82 89.69 157.56 70.92 Z" fill="#feffff" opacity="1.00" stroke="#feffff" stroke-width="0.25" data-index="2" style="opacity: 1; visibility: visible; fill: rgb(196, 196, 217);"></path>
<path d="M 161.30 91.32 C 160.29 78.59 162.16 65.39 167.90 53.90 C 169.68 54.25 171.61 54.61 172.84 56.10 C 178.29 62.67 182.59 70.13 186.21 77.85 C 193.24 90.30 193.34 105.25 191.08 119.01 C 189.61 127.43 187.28 135.68 184.57 143.77 C 184.18 143.92 183.41 144.22 183.02 144.37 C 178.94 140.99 175.96 136.54 172.90 132.28 L 174.41 132.37 C 174.85 132.55 175.73 132.91 176.17 133.09 C 176.28 133.17 176.50 133.34 176.60 133.42 C 177.79 134.32 178.99 135.22 180.20 136.11 C 183.79 131.68 184.36 125.79 185.40 120.38 C 186.20 116.64 186.51 112.81 186.56 108.98 C 186.67 101.79 187.20 94.38 184.77 87.48 C 182.64 81.39 179.99 75.44 176.58 69.96 C 174.29 65.76 172.13 61.16 168.09 58.36 C 167.80 58.13 167.20 57.67 166.91 57.44 C 165.03 62.87 163.22 68.36 162.37 74.05 C 161.47 79.77 161.81 85.57 161.30 91.32 Z" fill="#072843" opacity="1.00" stroke="#072843" stroke-width="0.25" data-index="3" style="opacity: 1;"></path>
<path d="M 162.37 74.05 C 163.22 68.36 165.03 62.87 166.91 57.44 C 167.20 57.67 167.80 58.13 168.09 58.36 C 167.27 63.00 165.31 67.36 164.62 72.04 C 162.13 88.42 164.24 105.48 170.40 120.84 C 172.13 124.23 173.24 128.10 176.01 130.82 C 176.05 131.39 176.13 132.52 176.17 133.09 C 175.73 132.91 174.85 132.55 174.41 132.37 L 172.84 131.82 C 165.79 119.54 161.65 105.49 161.30 91.32 C 161.81 85.57 161.47 79.77 162.37 74.05 Z" fill="#13223c" opacity="1.00" stroke="#13223c" stroke-width="0.25" data-index="4" style="opacity: 1;"></path>
<path d="M 168.09 58.36 C 172.13 61.16 174.29 65.76 176.58 69.96 C 176.27 73.69 178.66 76.71 180.10 79.93 C 183.28 86.84 185.75 94.31 185.48 102.01 C 185.72 108.14 184.58 114.27 185.40 120.38 C 184.36 125.79 183.79 131.68 180.20 136.11 C 178.99 135.22 177.79 134.32 176.60 133.42 C 176.50 133.34 176.28 133.17 176.17 133.09 C 176.13 132.52 176.05 131.39 176.01 130.82 C 173.24 128.10 172.13 124.23 170.40 120.84 C 164.24 105.48 162.13 88.42 164.62 72.04 C 165.31 67.36 167.27 63.00 168.09 58.36 Z" fill="#f35b31" opacity="1.00" stroke="#f35b31" stroke-width="0.25" data-index="5" style="opacity: 1;"></path>
<path d="M 176.58 69.96 C 179.99 75.44 182.64 81.39 184.77 87.48 C 187.20 94.38 186.67 101.79 186.56 108.98 C 186.51 112.81 186.20 116.64 185.40 120.38 C 184.58 114.27 185.72 108.14 185.48 102.01 C 185.75 94.31 183.28 86.84 180.10 79.93 C 178.66 76.71 176.27 73.69 176.58 69.96 Z" fill="#c5604a" opacity="1.00" stroke="#c5604a" stroke-width="0.25" data-index="6"></path>
<path d="M 273.48 71.76 C 275.23 70.51 279.05 69.17 279.77 72.19 C 280.83 77.58 280.81 83.28 279.74 88.65 C 278.68 84.13 279.39 79.51 279.14 74.94 C 278.88 73.72 277.63 74.28 276.82 74.13 C 273.44 77.35 270.79 81.21 268.04 84.94 C 262.41 92.92 257.36 101.48 254.75 110.97 C 251.76 121.99 250.13 133.36 249.47 144.75 C 250.02 144.62 251.12 144.34 251.67 144.20 C 251.68 145.21 251.69 146.21 251.70 147.22 L 251.70 147.55 C 249.22 149.35 246.58 151.00 243.55 151.67 C 243.18 150.81 242.93 149.92 242.79 149.01 C 244.69 133.95 246.08 118.65 251.11 104.22 C 255.76 91.84 262.65 79.74 273.48 71.76 Z" fill="#052a47" opacity="1.00" stroke="#052a47" stroke-width="0.25" data-index="7"></path>
<path d="M 276.82 74.13 C 277.63 74.28 278.88 73.72 279.14 74.94 C 279.39 79.51 278.68 84.13 279.74 88.65 C 279.74 91.05 279.28 93.42 278.80 95.77 C 276.82 104.80 274.01 113.61 270.91 122.31 C 270.75 122.66 270.42 123.35 270.26 123.70 C 266.80 129.13 263.77 134.82 259.72 139.87 C 257.52 142.77 254.81 145.31 251.70 147.22 C 251.69 146.21 251.68 145.21 251.67 144.20 C 266.53 131.80 272.29 112.33 275.95 94.07 C 276.87 87.51 278.65 80.68 276.82 74.13 Z" fill="#1c252f" opacity="1.00" stroke="#1c252f" stroke-width="0.25" data-index="8"></path>
<path d="M 268.04 84.94 C 270.79 81.21 273.44 77.35 276.82 74.13 C 278.65 80.68 276.87 87.51 275.95 94.07 C 272.29 112.33 266.53 131.80 251.67 144.20 C 251.12 144.34 250.02 144.62 249.47 144.75 C 250.13 133.36 251.76 121.99 254.75 110.97 C 257.36 101.48 262.41 92.92 268.04 84.94 Z" fill="#f15c32" opacity="1.00" stroke="#f15c32" stroke-width="0.25" data-index="9"></path>
<path d="M 270.91 122.31 C 274.01 113.61 276.82 104.80 278.80 95.77 C 277.70 104.93 275.37 114.21 270.91 122.31 Z" fill="#94acbc" opacity="1.00" stroke="#94acbc" stroke-width="0.25" data-index="10"></path>
<path d="M 214.37 124.25 C 216.20 127.51 215.24 131.36 215.84 134.90 C 217.77 134.73 219.70 134.57 221.64 134.40 C 221.60 135.64 221.56 136.89 221.52 138.14 C 222.71 138.71 223.89 139.31 225.06 139.93 C 223.66 140.98 222.20 141.95 220.67 142.81 C 219.90 144.64 219.58 146.60 219.36 148.57 C 217.73 148.68 215.35 147.49 214.36 149.34 C 212.67 153.16 210.97 156.99 209.17 160.77 C 206.25 157.09 206.71 152.27 206.22 147.91 C 204.57 145.88 201.81 145.52 199.37 145.40 C 200.14 143.40 201.62 141.82 202.68 140.00 C 202.13 137.15 203.66 134.67 204.42 132.03 C 206.00 132.19 207.47 132.78 208.88 133.49 C 210.83 130.48 211.87 126.92 214.37 124.25 Z" fill="#684343" opacity="1.00" stroke="#684343" stroke-width="0.25" data-index="11" style="opacity: 1;"></path>
<path d="M 259.72 139.87 C 263.77 134.82 266.80 129.13 270.26 123.70 C 269.10 127.96 266.46 131.59 264.05 135.22 C 262.74 136.87 261.73 138.95 259.72 139.87 Z" fill="#6e8998" opacity="1.00" stroke="#6e8998" stroke-width="0.25" data-index="12"></path>
<path d="M 176.17 133.09 C 176.28 133.17 176.50 133.34 176.60 133.42 C 176.50 133.34 176.28 133.17 176.17 133.09 Z" fill="#32222d" opacity="1.00" stroke="#32222d" stroke-width="0.25" data-index="13"></path>
<path d="M 252.71 162.00 C 256.47 166.81 257.35 173.16 258.24 179.03 C 259.33 194.84 256.95 210.87 251.70 225.81 C 247.35 238.24 239.09 249.72 227.28 255.96 C 228.15 251.95 228.69 247.90 228.25 243.80 C 228.57 244.35 228.91 244.90 229.25 245.45 C 233.27 242.03 238.17 239.66 241.49 235.44 C 246.78 229.87 249.84 222.75 252.87 215.80 C 256.99 205.38 256.50 193.95 256.23 182.96 C 256.04 175.84 254.16 168.93 252.71 162.00 Z" fill="#a5edfe" opacity="1.00" stroke="#a5edfe" stroke-width="0.25" data-index="14" style="opacity: 1; visibility: visible; fill: rgb(130, 130, 140);"></path>
<path d="M 176.66 163.91 C 182.01 162.39 188.78 161.18 193.52 164.79 C 193.49 166.46 194.15 169.02 191.95 169.66 C 187.76 170.81 183.28 170.45 178.98 170.40 C 175.57 170.63 173.95 165.80 176.66 163.91 Z" fill="#052d4c" opacity="1.00" stroke="#052d4c" stroke-width="0.25" data-index="15"></path>
<path d="M 222.50 174.42 C 219.73 173.12 220.10 168.89 223.08 168.14 C 228.12 167.55 232.24 171.33 236.01 174.11 C 238.16 175.49 237.91 178.09 237.17 180.21 C 231.61 181.11 227.03 176.97 222.50 174.42 Z" fill="#042b48" opacity="1.00" stroke="#042b48" stroke-width="0.25" data-index="16"></path>
<path d="M 175.93 182.96 C 177.99 181.38 180.90 182.13 182.50 183.99 C 184.11 189.26 181.97 194.75 178.19 198.49 C 176.40 198.90 174.57 198.92 172.77 198.59 C 168.69 193.76 171.24 186.35 175.93 182.96 Z" fill="#022b49" opacity="1.00" stroke="#022b49" stroke-width="0.25" data-index="17"></path>
<path d="M 220.07 193.14 C 221.53 190.27 225.97 189.15 228.14 191.86 C 231.05 195.21 230.49 200.20 229.38 204.20 C 227.99 207.60 223.37 209.24 220.58 206.50 C 217.65 202.71 218.09 197.28 220.07 193.14 Z" fill="#042948" opacity="1.00" stroke="#042948" stroke-width="0.25" data-index="18" style="opacity: 1;"></path>
<path d="M 159.73 201.80 C 161.81 199.99 164.60 200.07 167.14 200.64 C 169.31 202.55 170.04 205.24 169.36 208.04 C 168.58 208.73 167.81 209.44 167.05 210.16 C 164.38 210.92 161.56 210.34 159.72 208.18 C 158.83 206.15 159.44 203.89 159.73 201.80 Z" fill="#ee6035" opacity="1.00" stroke="#ee6035" stroke-width="0.25" data-index="19"></path>
<path d="M 231.53 218.59 C 234.10 215.63 239.44 216.41 240.72 220.23 C 242.35 222.65 240.54 225.22 239.22 227.27 C 236.11 228.15 232.61 227.95 230.58 225.14 C 230.46 222.97 229.64 220.22 231.53 218.59 Z" fill="#f05f37" opacity="1.00" stroke="#f05f37" stroke-width="0.25" data-index="20" style="opacity: 1;"></path>
<path d="M 260.45 217.01 C 259.97 220.36 261.32 223.42 264.35 225.05 C 263.56 226.98 262.43 228.87 262.40 231.01 C 261.97 233.51 264.51 234.95 265.62 236.87 C 265.81 238.65 264.05 239.70 263.20 241.06 C 264.55 243.51 266.32 246.19 264.83 249.03 C 260.26 247.39 257.04 243.30 254.79 239.15 C 253.41 236.73 254.93 234.06 255.69 231.71 C 257.68 226.94 258.76 221.88 260.45 217.01 Z" fill="#654240" opacity="1.00" stroke="#654240" stroke-width="0.25" data-index="21" style="opacity: 1;"></path>
<path d="M 170.60 219.84 C 183.24 217.63 196.44 220.91 207.10 227.87 C 212.66 231.94 218.43 236.47 221.14 243.01 C 223.64 248.88 222.09 256.98 216.05 260.03 C 210.40 262.51 204.07 262.71 197.99 262.90 C 185.33 262.92 172.12 260.83 161.38 253.72 C 155.67 249.69 150.06 243.59 151.02 236.05 C 152.23 226.51 162.09 221.49 170.60 219.84 Z" fill="#feffff" opacity="1.00" stroke="#feffff" stroke-width="0.25" data-index="22" style="opacity: 1;"></path>
<path d="M 161.65 228.51 C 162.33 226.85 164.65 227.28 165.95 227.86 C 169.16 230.63 169.87 235.14 169.28 239.15 C 168.20 240.57 166.47 241.29 164.84 240.24 C 161.65 237.44 159.52 232.55 161.65 228.51 Z" fill="#052c4b" opacity="1.00" stroke="#052c4b" stroke-width="0.25" data-index="23"></path>
<path d="M 198.47 246.16 C 197.66 240.47 203.83 235.65 209.22 237.45 C 213.49 243.16 203.37 251.18 198.47 246.16 Z" fill="#022a4a" opacity="1.00" stroke="#022a4a" stroke-width="0.25" data-index="24" style="opacity: 1;"></path>
<path d="M 245.44 249.91 C 247.52 247.26 249.42 244.47 251.09 241.54 C 253.77 246.13 256.85 250.73 261.43 253.62 C 270.15 259.17 280.86 260.86 291.04 260.09 C 299.96 259.49 308.65 256.83 317.63 256.82 C 328.56 257.08 338.54 263.34 345.49 271.47 C 352.74 280.33 357.00 291.35 359.36 302.46 C 362.50 317.20 360.38 332.32 358.56 347.09 C 356.78 359.70 355.15 372.35 354.69 385.09 C 354.09 405.47 357.07 425.74 357.29 446.10 C 357.61 447.88 355.35 447.70 354.27 448.12 C 346.17 449.53 337.64 450.52 329.57 448.49 C 335.77 426.41 333.28 402.76 326.64 381.08 C 324.42 373.38 320.63 366.29 317.21 359.08 C 326.05 353.32 330.39 343.10 332.55 333.15 C 332.89 330.83 333.63 327.85 331.10 326.50 C 330.49 326.82 329.29 327.46 328.69 327.77 C 328.03 330.68 327.47 333.66 326.03 336.30 C 314.08 346.67 298.36 353.00 282.42 352.35 C 283.43 346.98 284.77 341.44 283.64 335.98 C 281.88 334.99 280.10 335.27 278.51 336.46 C 277.16 346.07 276.65 355.90 273.23 365.11 C 268.82 377.53 267.29 391.07 269.39 404.11 C 272.54 421.12 278.06 437.82 278.74 455.22 C 268.29 457.60 257.44 459.53 246.76 457.53 C 246.51 443.60 246.22 429.66 245.16 415.77 C 242.99 390.23 240.27 364.67 235.35 339.50 C 234.34 339.37 233.33 339.24 232.33 339.12 C 232.21 339.57 231.98 340.46 231.87 340.91 C 231.21 344.91 231.73 348.99 231.39 353.03 C 220.57 351.65 212.04 343.81 205.21 335.87 C 200.99 330.51 197.18 324.63 194.99 318.14 C 193.56 311.22 192.77 303.87 194.80 296.98 C 195.50 294.01 197.99 292.04 199.99 289.93 C 205.35 284.57 212.41 281.53 218.77 277.59 C 229.36 270.27 239.06 261.19 245.44 249.91 Z" fill="#ffffff" opacity="1.00" stroke="#ffffff" stroke-width="0.25" data-index="25" style="opacity: 1; visibility: visible; fill: rgb(196, 196, 217);"></path>
<path d="M 184.29 267.65 C 205.86 271.74 230.15 266.37 245.44 249.91 C 239.06 261.19 229.36 270.27 218.77 277.59 C 212.41 281.53 205.35 284.57 199.99 289.93 C 197.99 292.04 195.50 294.01 194.80 296.98 C 192.77 303.87 193.56 311.22 194.99 318.14 C 197.18 324.63 200.99 330.51 205.21 335.87 C 212.04 343.81 220.57 351.65 231.39 353.03 C 231.73 348.99 231.21 344.91 231.87 340.91 C 231.07 347.16 232.33 353.44 232.85 359.67 C 219.25 356.01 206.49 349.32 195.86 340.08 C 191.82 336.71 189.97 331.61 188.30 326.80 C 184.75 314.86 184.33 302.32 183.82 289.96 C 183.53 282.52 183.95 275.08 184.29 267.65 Z" fill="#a8ecfe" opacity="1.00" stroke="#a8ecfe" stroke-width="0.25" data-index="26" style="opacity: 1; visibility: visible; fill: rgb(130, 130, 140);"></path>
<path d="M 359.16 285.17 C 364.06 290.85 368.76 296.97 371.12 304.19 C 372.99 308.90 374.84 313.64 376.04 318.57 C 378.08 318.61 377.41 320.04 376.73 321.18 C 379.86 332.34 381.63 343.82 383.39 355.27 C 382.50 355.30 380.73 355.36 379.85 355.39 C 378.07 337.89 375.25 320.19 368.03 304.00 C 365.05 297.73 361.83 291.58 359.16 285.17 Z" fill="#aceeff" opacity="1.00" stroke="#aceeff" stroke-width="0.25" data-index="27" style="opacity: 1; visibility: visible; fill: rgb(130, 130, 140);"></path>
<path d="M 282.42 352.35 C 298.36 353.00 314.08 346.67 326.03 336.30 C 323.08 344.44 317.64 351.86 309.78 355.81 C 300.45 360.42 290.01 362.41 279.72 363.42 C 280.80 359.78 281.61 356.06 282.42 352.35 Z" fill="#a7ecfe" opacity="1.00" stroke="#a7ecfe" stroke-width="0.25" data-index="28" style="opacity: 1; visibility: visible; fill: rgb(130, 130, 140);"></path>
<path d="M 206.88 387.92 C 202.20 373.55 195.62 359.81 192.05 345.08 C 203.03 355.15 216.91 362.26 231.57 365.03 C 233.16 378.33 234.94 391.60 236.61 404.89 C 238.43 419.35 239.45 433.89 239.67 448.46 C 230.88 450.87 221.72 452.64 212.58 451.61 C 213.98 442.35 214.73 432.91 213.74 423.58 C 213.20 411.43 210.23 399.56 206.88 387.92 Z" fill="#a8ecff" opacity="1.00" stroke="#a8ecff" stroke-width="0.25" data-index="29" style="opacity: 1; visibility: visible; fill: rgb(130, 130, 140);"></path>
<path d="M 385.84 350.94 C 388.38 351.41 390.72 352.62 392.50 354.50 C 394.84 356.29 394.87 359.45 395.89 361.98 C 396.84 365.40 400.20 367.77 400.08 371.55 C 396.03 371.54 394.74 364.90 390.39 366.53 C 390.51 371.65 391.05 376.86 390.08 381.93 C 384.13 379.64 382.32 372.23 376.88 369.24 C 376.01 371.88 375.34 374.57 374.56 377.24 C 373.38 372.61 372.59 367.73 372.59 362.94 C 373.50 359.63 372.81 355.43 375.61 352.96 C 376.71 355.53 376.34 359.93 379.94 360.37 C 381.79 360.28 383.55 359.64 385.33 359.21 C 385.67 356.46 385.52 353.68 385.84 350.94 Z" fill="#684342" opacity="1.00" stroke="#684342" stroke-width="0.25" data-index="30" style="opacity: 1;"></path>
<path d="M 286.22 368.48 C 295.17 367.32 304.08 365.31 312.26 361.39 C 315.16 368.26 319.01 374.80 321.25 381.91 C 321.88 402.42 320.59 423.00 317.41 443.27 C 310.43 445.14 303.12 444.70 296.07 443.48 C 297.98 433.79 300.39 423.96 299.24 414.01 C 297.78 398.11 290.61 383.64 286.22 368.48 Z" fill="#a8ecff" opacity="1.00" stroke="#a8ecff" stroke-width="0.25" data-index="31" style="opacity: 1; visibility: visible; fill: rgb(130, 130, 140);"></path>
<path d="M 236.61 404.89 C 237.23 404.44 237.85 404.00 238.47 403.56 C 239.62 406.06 241.78 408.06 242.35 410.82 C 243.41 415.51 242.63 420.38 243.46 425.11 C 243.97 421.98 244.54 418.87 245.16 415.77 C 246.22 429.66 246.51 443.60 246.76 457.53 C 247.13 457.87 247.86 458.56 248.22 458.90 C 253.29 459.99 258.53 458.82 263.65 459.62 C 268.80 460.59 273.65 458.13 278.69 457.55 C 279.58 456.26 280.48 454.96 281.38 453.67 C 282.39 458.62 283.34 464.31 281.04 468.97 C 269.56 473.65 256.89 473.67 244.73 472.52 C 244.34 470.79 243.95 469.06 243.48 467.36 C 242.98 467.19 241.98 466.85 241.48 466.67 C 230.27 468.20 218.57 468.60 207.61 465.22 L 207.96 464.85 C 208.26 464.53 208.86 463.89 209.16 463.57 C 206.87 455.44 211.24 447.34 211.47 439.20 C 213.30 434.16 212.77 428.77 213.74 423.58 C 214.73 432.91 213.98 442.35 212.58 451.61 C 221.72 452.64 230.88 450.87 239.67 448.46 C 239.45 433.89 238.43 419.35 236.61 404.89 Z" fill="#012b4b" opacity="1.00" stroke="#012b4b" stroke-width="0.25" data-index="32" style="opacity: 1;"></path>
</svg>