<?xml version="1.0" encoding="utf-8"?>
<svg xmlns="http://www.w3.org/2000/svg" height="512pt" version="1.1" viewBox="0 0 512 512" width="512pt">
<path d="M 0.00 0.00 L 512.00 0.00 L 512.00 512.00 L 0.00 512.00 L 0.00 0.00 Z" fill="transparent" opacity="1.00" stroke="transparent" stroke-width="0.25"/>
<path d="M 155.13 114.58 C 174.06 108.28 196.15 116.08 208.30 131.56 C 215.79 141.33 215.95 154.23 216.92 165.96 C 217.66 172.63 216.90 179.48 218.47 186.04 C 220.65 193.79 225.77 200.22 230.81 206.31 C 233.43 209.34 235.45 212.90 238.49 215.54 C 241.77 215.72 244.84 214.28 247.94 213.43 C 255.86 210.90 264.31 210.24 272.55 211.20 C 289.08 212.68 304.40 219.96 318.14 228.91 C 334.62 239.60 353.20 247.99 372.98 249.61 C 383.29 250.39 393.53 248.26 403.48 245.74 C 406.96 244.81 411.05 244.84 413.39 248.01 C 413.65 251.00 413.48 254.05 412.21 256.83 C 406.60 271.21 398.41 284.38 390.42 297.53 C 385.38 305.00 380.12 312.35 374.00 318.97 C 360.66 332.45 342.68 340.19 324.54 344.76 C 315.10 346.88 305.49 348.55 295.79 348.70 C 296.49 359.92 297.33 371.21 296.08 382.43 C 302.09 382.32 308.02 383.49 314.03 383.28 C 343.38 383.36 372.65 385.36 401.93 387.06 C 405.20 387.37 408.57 387.35 411.67 388.57 C 411.51 388.98 411.20 389.78 411.04 390.18 C 396.38 391.16 381.68 391.41 367.02 392.30 C 341.33 392.53 315.62 392.79 289.94 391.74 C 288.29 393.11 286.41 394.65 284.09 394.25 C 273.70 393.22 263.19 392.68 252.77 393.59 C 247.40 396.86 241.62 400.82 235.09 400.61 C 232.62 400.61 231.75 398.40 231.54 396.30 C 224.02 394.67 216.44 397.15 208.90 396.64 C 206.32 396.54 204.20 394.91 202.25 393.40 C 185.55 394.78 168.77 394.81 152.02 394.46 C 145.45 394.08 138.55 394.08 132.44 391.32 C 132.43 390.83 132.43 389.84 132.42 389.34 C 139.96 385.28 148.76 386.59 156.97 386.39 C 173.27 386.18 189.52 384.70 205.81 384.18 C 212.90 380.46 220.85 378.98 228.60 377.28 C 233.94 376.24 239.22 374.84 244.64 374.25 C 244.94 364.63 245.33 355.02 245.70 345.42 C 228.76 342.44 211.62 338.16 196.77 329.19 C 185.03 321.19 174.78 311.12 165.75 300.19 C 156.05 288.41 149.71 273.38 150.18 257.96 C 150.32 245.03 154.82 232.69 159.61 220.85 C 162.42 212.84 166.61 205.28 168.43 196.95 C 169.02 191.10 168.09 185.22 167.66 179.39 C 163.10 179.05 158.36 178.81 154.18 176.75 C 149.69 174.89 146.88 170.71 144.08 166.96 C 135.18 169.96 126.21 172.82 117.05 174.93 C 113.45 175.84 109.66 177.34 105.93 176.07 C 105.42 175.10 104.96 174.11 104.54 173.10 C 105.27 171.15 105.93 169.06 107.45 167.54 C 114.12 160.17 122.87 154.57 132.42 151.79 C 122.31 148.30 111.21 145.44 103.63 137.38 C 99.60 132.98 96.27 126.12 99.74 120.44 C 104.00 118.17 107.97 121.79 111.83 123.24 C 120.22 126.61 129.27 128.89 138.36 128.49 C 142.15 122.08 147.97 116.84 155.13 114.58 Z" fill="#053050" opacity="1.00" stroke="#053050" stroke-width="0.25"/>
<path d="M 150.10 129.93 C 151.75 124.39 157.94 122.59 162.98 121.58 C 173.67 120.10 184.68 123.34 193.57 129.30 C 199.68 133.40 204.24 139.78 205.89 146.97 C 207.45 153.86 207.66 160.95 208.24 167.96 C 208.81 175.29 208.14 182.86 210.59 189.92 C 214.13 200.45 221.42 209.02 228.38 217.44 C 231.27 220.60 234.30 224.76 239.08 224.59 C 244.94 224.47 250.17 221.32 255.93 220.52 C 267.30 218.06 278.98 220.65 289.81 224.25 C 301.09 228.10 310.84 235.11 321.04 241.06 C 336.23 250.17 353.21 256.66 370.91 258.47 C 382.09 259.28 393.31 257.63 404.08 254.67 C 394.20 273.92 384.00 293.27 370.05 309.95 C 361.81 319.63 350.61 326.29 338.87 330.89 C 325.15 336.17 310.56 339.33 295.84 339.71 C 268.46 341.07 240.72 337.38 214.85 328.20 C 203.94 324.63 194.63 317.51 186.41 309.67 C 180.68 303.71 174.50 298.11 169.80 291.25 C 161.75 279.62 156.97 265.05 159.41 250.88 C 161.11 239.39 166.27 228.89 170.12 218.06 C 172.82 211.19 176.36 204.47 177.16 197.04 C 177.71 188.60 176.18 180.21 175.11 171.87 C 174.59 171.60 173.55 171.05 173.03 170.77 C 166.47 170.87 158.93 171.01 153.85 166.13 C 148.98 161.07 145.92 154.03 146.23 146.95 C 146.16 141.04 148.45 135.50 150.10 129.93 Z" fill="#ffffff" opacity="1.00" stroke="#ffffff" stroke-width="0.25"/>
<path d="M 104.44 125.28 C 104.76 125.75 105.39 126.69 105.70 127.16 C 108.41 127.85 110.78 129.36 113.33 130.44 C 122.04 133.72 131.23 136.23 140.62 135.49 C 140.20 139.24 139.39 142.96 139.37 146.75 C 136.01 146.62 132.59 146.50 129.44 145.20 C 121.16 142.43 111.99 139.82 106.49 132.51 C 104.71 130.52 104.42 127.83 104.44 125.28 Z" fill="#f4612d" opacity="1.00" stroke="#f4612d" stroke-width="0.25"/>
<path d="M 155.64 134.92 C 155.83 132.35 158.27 131.01 160.00 129.49 C 162.59 129.33 165.23 129.42 167.60 130.62 C 169.99 133.50 170.15 137.60 167.44 140.32 C 165.17 141.47 162.70 143.03 160.09 141.90 C 157.02 141.27 155.08 137.93 155.64 134.92 Z" fill="#053050" opacity="1.00" stroke="#053050" stroke-width="0.25"/>
<path d="M 132.07 157.40 C 134.68 156.19 137.21 154.49 140.19 154.47 C 140.32 156.01 140.48 157.54 140.70 159.07 C 140.97 159.87 141.51 161.47 141.79 162.27 C 131.57 165.00 121.68 169.29 111.12 170.50 C 113.54 168.51 115.60 165.50 118.96 165.25 C 118.52 165.14 117.63 164.93 117.19 164.82 C 117.67 164.70 118.64 164.46 119.12 164.35 C 120.05 163.46 120.98 162.58 121.92 161.71 C 121.31 162.56 120.68 163.40 120.06 164.24 C 123.62 161.25 127.99 159.54 132.07 157.40 Z" fill="#f4612d" opacity="1.00" stroke="#f4612d" stroke-width="0.25"/>
<path d="M 203.37 249.29 C 204.79 249.57 206.75 248.86 207.73 250.20 C 209.69 252.01 208.62 254.78 207.97 256.94 C 203.26 270.71 208.31 286.49 218.51 296.47 C 229.43 307.35 244.41 312.90 259.15 316.37 C 268.04 318.58 277.31 318.85 286.30 317.11 C 286.55 311.03 281.20 306.67 279.76 301.04 C 279.15 298.84 280.64 296.29 283.08 296.38 C 286.74 298.16 288.06 302.38 290.91 305.05 C 293.57 308.16 297.41 309.72 300.76 311.91 C 300.77 313.71 300.69 315.52 300.49 317.32 C 298.47 317.68 296.40 318.04 294.40 317.39 C 294.36 319.34 294.05 321.28 293.26 323.08 C 286.82 326.66 279.29 327.59 272.04 327.18 C 254.91 325.90 238.16 320.34 223.46 311.50 C 214.17 305.37 205.88 297.15 201.43 286.80 C 197.83 277.47 196.38 266.96 199.26 257.23 C 199.98 254.29 201.24 251.48 203.37 249.29 Z" fill="#053050" opacity="1.00" stroke="#053050" stroke-width="0.25"/>
<path d="M 249.56 378.34 C 249.69 367.65 250.07 356.98 250.32 346.29 C 252.72 346.56 255.10 347.01 257.41 347.70 C 257.54 351.55 257.50 355.41 257.81 359.26 C 258.83 367.55 258.14 375.91 258.31 384.24 C 256.89 385.25 255.40 386.17 253.78 386.81 C 248.89 388.89 244.51 391.99 239.55 393.91 C 239.92 392.15 238.88 390.72 237.06 390.64 C 227.71 389.72 218.29 390.63 208.93 390.59 C 209.87 389.39 210.73 387.98 212.20 387.37 C 224.11 382.37 237.22 381.79 249.56 378.34 Z" fill="#f4612d" opacity="1.00" stroke="#f4612d" stroke-width="0.25"/>
<path d="M 262.78 347.58 C 267.74 347.82 272.67 348.54 277.65 348.65 C 277.60 357.42 276.44 366.13 276.52 374.90 C 272.25 375.72 268.19 377.35 263.92 378.14 C 263.68 367.95 263.49 357.75 262.78 347.58 Z" fill="#ffffff" opacity="1.00" stroke="#ffffff" stroke-width="0.25"/>
<path d="M 282.66 349.78 C 283.18 349.49 284.23 348.91 284.75 348.62 C 285.58 348.66 287.25 348.74 288.09 348.77 C 288.73 348.97 290.00 349.37 290.63 349.58 C 290.44 359.69 290.74 369.82 290.64 379.94 C 289.16 382.48 287.37 384.85 286.20 387.57 C 278.72 387.59 270.99 388.32 263.73 386.23 C 269.94 384.17 275.51 380.69 281.51 378.17 C 281.72 368.69 281.46 359.21 282.66 349.78 Z" fill="#f4612d" opacity="1.00" stroke="#f4612d" stroke-width="0.25"/>
</svg>