<?xml version="1.0" encoding="utf-8"?>
<svg xmlns="http://www.w3.org/2000/svg" height="512pt" version="1.1" viewBox="0 0 512 512" width="512pt">
<path d="M 0.00 0.00 L 512.00 0.00 L 512.00 512.00 L 0.00 512.00 L 0.00 0.00 Z" fill="transparent" opacity="1.00" stroke="transparent" stroke-width="0.25"/>
<path d="M 184.68 105.68 C 202.27 93.36 223.67 87.49 244.94 86.31 C 252.92 86.18 260.91 86.01 268.88 86.52 C 291.43 88.74 313.90 96.87 330.88 112.22 C 346.48 127.10 355.21 148.53 355.53 170.01 C 355.94 184.63 353.26 199.78 345.31 212.28 C 337.39 225.89 323.66 235.21 309.03 240.36 C 322.51 245.11 335.56 252.06 345.45 262.55 C 358.58 275.97 365.92 294.40 367.59 312.95 C 370.06 335.64 364.78 359.20 352.47 378.47 C 340.12 398.17 319.78 412.13 297.65 418.66 C 281.97 423.67 265.39 425.30 249.00 424.99 C 228.60 424.52 207.81 421.03 189.61 411.41 C 173.36 403.30 159.43 390.30 150.81 374.26 C 142.19 358.73 138.86 340.65 139.18 323.01 C 138.85 303.23 145.20 283.16 157.86 267.84 C 163.23 260.80 170.50 255.57 177.91 250.88 C 183.52 247.29 189.81 245.03 195.73 242.02 C 186.48 237.97 177.27 233.20 170.33 225.68 C 155.96 211.53 150.05 190.77 150.52 171.00 C 151.04 157.67 153.81 144.12 160.50 132.44 C 166.49 121.91 174.76 112.66 184.68 105.68 Z" fill="#4cc5fe" opacity="1.00" stroke="#4cc5fe" stroke-width="0.25"/>
<path d="M 243.38 137.47 C 253.78 135.27 265.48 136.38 274.30 142.69 C 281.79 148.02 285.62 156.97 287.08 165.79 C 288.72 177.45 287.73 189.78 282.50 200.46 C 278.78 208.17 271.62 214.21 263.24 216.17 C 249.56 219.70 233.17 214.99 225.24 202.82 C 218.04 191.52 217.24 177.55 218.78 164.58 C 220.11 157.25 223.15 149.86 228.86 144.86 C 232.95 141.20 238.00 138.60 243.38 137.47 Z" fill="#ffffff" opacity="1.00" stroke="#ffffff" stroke-width="0.25"/>
<path d="M 246.53 273.73 C 256.39 272.53 266.93 273.11 275.68 278.29 C 285.28 282.86 291.45 292.32 294.79 302.10 C 298.54 315.16 298.53 329.24 295.36 342.41 C 292.49 354.50 284.86 365.98 273.39 371.36 C 262.42 376.28 249.57 376.61 238.25 372.69 C 227.69 368.87 219.10 360.20 215.27 349.66 C 209.23 333.81 208.88 315.69 214.69 299.71 C 219.27 285.91 232.21 275.69 246.53 273.73 Z" fill="#ffffff" opacity="1.00" stroke="#ffffff" stroke-width="0.25"/>
</svg>