<?xml version="1.0" encoding="utf-8"?>
<svg xmlns="http://www.w3.org/2000/svg" height="512pt" version="1.1" viewBox="0 0 512 512" width="512pt">
<path d="M 0.00 0.00 L 512.00 0.00 L 512.00 512.00 L 0.00 512.00 L 0.00 0.00 Z" fill="transparent" opacity="1.00" stroke="transparent" stroke-width="0.25"/>
<path d="M 302.14 73.24 C 310.48 70.62 319.14 68.18 327.98 68.62 C 343.19 69.66 358.97 68.80 373.43 74.49 C 379.72 76.98 387.00 79.08 390.98 84.99 C 371.75 76.61 350.92 72.17 330.01 71.26 C 324.90 71.42 318.87 71.17 315.22 75.39 C 311.52 77.36 307.11 77.51 303.28 79.24 C 296.69 81.52 291.08 85.73 285.05 89.11 C 281.63 91.19 276.83 89.69 274.10 93.10 C 267.96 99.59 260.84 105.48 256.85 113.66 C 257.94 113.21 259.02 112.73 260.12 112.29 C 256.73 119.97 253.70 127.80 250.64 135.61 C 246.55 146.37 246.77 158.05 245.98 169.36 C 243.49 165.68 245.85 160.62 243.40 156.83 C 242.14 166.64 244.46 176.51 247.33 185.84 C 249.05 191.18 250.07 196.91 253.42 201.57 C 258.77 209.36 264.00 217.53 271.54 223.43 C 274.72 226.29 279.25 227.93 281.29 231.87 C 277.66 235.08 272.66 236.16 269.15 239.52 C 269.78 239.73 271.05 240.13 271.68 240.34 C 267.59 244.08 262.90 247.08 258.79 250.79 C 252.48 256.71 247.67 264.01 243.50 271.54 C 240.78 276.56 237.43 281.31 235.77 286.82 C 234.70 290.01 234.29 293.57 232.08 296.26 C 230.71 297.98 229.56 299.91 229.10 302.09 C 226.85 311.30 224.68 320.72 225.47 330.27 C 226.06 337.56 225.22 345.46 228.79 352.12 C 228.53 342.68 226.06 333.23 227.43 323.78 C 229.01 334.67 229.32 345.83 232.67 356.41 C 233.24 359.10 235.46 362.07 233.42 364.65 C 234.00 368.74 236.15 372.58 238.60 375.89 C 238.85 375.21 239.35 373.84 239.61 373.16 C 247.09 382.92 252.84 394.65 263.38 401.59 C 270.38 405.07 276.22 410.58 283.61 413.28 C 292.39 417.08 301.28 420.66 310.40 423.53 C 314.47 424.84 318.80 425.11 322.82 426.57 C 322.07 427.27 321.33 427.97 320.59 428.68 C 323.06 431.17 326.85 431.18 330.11 431.58 C 339.62 431.95 349.23 431.04 358.41 428.44 C 372.04 425.52 385.36 421.37 398.37 416.41 C 401.75 414.97 404.78 412.86 407.86 410.88 C 406.05 414.06 402.66 415.72 399.86 417.87 C 386.06 427.43 369.65 432.01 353.42 435.49 C 345.74 437.27 337.79 436.69 329.97 436.68 C 305.74 436.45 281.28 428.13 262.89 412.14 C 254.54 405.83 247.84 397.68 241.73 389.27 C 238.02 384.48 234.40 379.53 232.14 373.87 C 223.00 354.79 219.26 333.28 220.54 312.22 C 223.55 293.31 229.86 274.63 240.75 258.77 C 246.06 250.36 252.74 242.60 261.18 237.21 C 264.89 234.39 269.01 232.23 273.00 229.86 C 268.91 225.33 263.52 222.13 259.52 217.49 C 254.48 211.46 250.16 204.70 247.83 197.14 C 242.56 182.72 240.72 167.29 240.54 152.01 C 241.16 144.69 241.79 136.60 246.70 130.73 C 248.31 128.73 249.12 126.27 249.89 123.87 C 252.81 114.39 257.98 105.79 263.87 97.88 C 273.89 86.12 287.91 78.68 302.14 73.24 Z" fill="#56bbf0" opacity="1.00" stroke="#56bbf0" stroke-width="0.25"/>
<path d="M 315.22 75.39 C 318.87 71.17 324.90 71.42 330.01 71.26 C 350.92 72.17 371.75 76.61 390.98 84.99 C 394.60 86.45 398.30 88.07 401.04 90.96 C 405.20 95.14 411.26 97.32 414.21 102.69 C 415.89 106.03 418.16 109.00 420.08 112.19 C 420.53 114.06 420.64 115.99 421.13 117.85 C 424.77 130.33 428.99 142.87 429.29 156.01 C 429.33 166.53 428.41 177.17 425.40 187.29 C 423.38 194.32 421.34 201.73 416.27 207.24 C 412.71 211.05 409.59 215.25 405.96 218.99 C 401.29 223.16 398.25 228.72 393.79 233.08 C 396.93 236.47 401.37 238.18 404.92 241.07 C 409.80 245.17 415.31 248.62 419.53 253.45 C 423.41 258.62 427.27 263.82 430.78 269.24 C 432.45 272.16 436.28 273.09 437.47 276.37 C 439.90 282.19 444.17 287.12 445.77 293.30 C 448.34 302.05 450.11 311.19 449.83 320.34 C 448.95 318.65 448.72 316.75 448.38 314.92 C 447.86 320.53 448.77 326.20 447.84 331.80 L 446.99 331.98 C 446.58 325.16 446.85 318.27 445.35 311.56 C 443.95 304.97 443.19 298.11 440.13 292.02 C 441.50 305.00 445.89 317.74 444.75 330.91 C 444.37 336.21 444.23 341.51 444.06 346.81 C 444.79 345.89 445.50 344.96 446.24 344.05 C 445.49 351.14 441.91 357.47 440.43 364.39 C 438.60 373.13 433.21 380.40 429.19 388.19 C 427.06 391.86 425.27 396.11 421.42 398.33 C 417.70 400.46 414.66 403.49 411.99 406.81 C 410.73 408.28 409.39 409.69 407.86 410.88 C 404.78 412.86 401.75 414.97 398.37 416.41 C 385.36 421.37 372.04 425.52 358.41 428.44 C 349.23 431.04 339.62 431.95 330.11 431.58 C 326.85 431.18 323.06 431.17 320.59 428.68 C 321.33 427.97 322.07 427.27 322.82 426.57 C 318.80 425.11 314.47 424.84 310.40 423.53 C 301.28 420.66 292.39 417.08 283.61 413.28 C 276.22 410.58 270.38 405.07 263.38 401.59 C 252.84 394.65 247.09 382.92 239.61 373.16 C 239.35 373.84 238.85 375.21 238.60 375.89 C 236.15 372.58 234.00 368.74 233.42 364.65 C 235.46 362.07 233.24 359.10 232.67 356.41 C 229.32 345.83 229.01 334.67 227.43 323.78 C 226.06 333.23 228.53 342.68 228.79 352.12 C 225.22 345.46 226.06 337.56 225.47 330.27 C 224.68 320.72 226.85 311.30 229.10 302.09 C 229.56 299.91 230.71 297.98 232.08 296.26 C 234.29 293.57 234.70 290.01 235.77 286.82 C 237.43 281.31 240.78 276.56 243.50 271.54 C 247.67 264.01 252.48 256.71 258.79 250.79 C 262.90 247.08 267.59 244.08 271.68 240.34 C 271.05 240.13 269.78 239.73 269.15 239.52 C 272.66 236.16 277.66 235.08 281.29 231.87 C 279.25 227.93 274.72 226.29 271.54 223.43 C 264.00 217.53 258.77 209.36 253.42 201.57 C 250.07 196.91 249.05 191.18 247.33 185.84 C 244.46 176.51 242.14 166.64 243.40 156.83 C 245.85 160.62 243.49 165.68 245.98 169.36 C 246.77 158.05 246.55 146.37 250.64 135.61 C 253.70 127.80 256.73 119.97 260.12 112.29 C 259.02 112.73 257.94 113.21 256.85 113.66 C 260.84 105.48 267.96 99.59 274.10 93.10 C 276.83 89.69 281.63 91.19 285.05 89.11 C 291.08 85.73 296.69 81.52 303.28 79.24 C 307.11 77.51 311.52 77.36 315.22 75.39 Z" fill="#269be0" opacity="1.00" stroke="#269be0" stroke-width="0.25"/>
<path d="M 130.83 77.83 C 140.96 75.04 151.72 75.10 162.09 76.39 C 164.55 76.58 167.10 76.66 169.34 77.82 C 168.85 78.23 167.87 79.05 167.38 79.47 C 169.84 82.41 173.24 84.67 174.73 88.34 C 177.54 94.58 176.63 101.63 178.60 108.09 C 179.54 101.19 177.42 94.30 178.46 87.44 C 179.99 88.44 180.76 90.11 181.06 91.86 C 181.59 102.90 181.23 113.96 181.30 125.01 C 181.07 141.67 181.69 158.35 180.77 175.01 C 180.49 182.73 181.07 190.47 180.25 198.17 C 179.60 204.43 180.01 210.73 179.96 217.00 C 179.74 228.35 180.04 239.70 180.66 251.03 C 181.41 258.43 181.03 265.86 180.86 273.28 C 180.23 273.08 179.60 272.89 178.98 272.69 C 178.58 279.75 179.16 286.83 178.65 293.89 C 177.72 304.22 177.99 314.61 177.15 324.96 C 176.85 348.97 177.57 373.00 176.73 397.01 C 176.52 402.23 177.48 407.50 176.61 412.69 C 175.23 415.89 171.61 417.03 169.21 419.28 C 168.50 420.64 168.18 422.16 167.71 423.62 C 167.24 422.90 166.75 422.19 166.26 421.49 C 162.35 422.45 160.09 426.59 156.04 427.25 C 153.82 427.58 151.77 428.48 149.88 429.68 C 149.25 428.77 148.71 427.80 148.14 426.86 C 148.01 427.69 147.76 429.35 147.63 430.18 C 147.51 429.59 147.25 428.41 147.12 427.81 C 146.40 427.69 145.68 427.61 144.95 427.57 C 143.57 427.44 141.60 427.29 141.10 425.75 C 140.78 422.84 140.76 419.88 140.00 417.05 C 139.18 415.04 137.59 413.48 136.62 411.55 C 135.57 406.55 136.88 401.33 135.72 396.34 C 134.59 394.44 131.94 394.09 130.50 392.41 C 129.56 390.43 129.82 388.15 129.82 386.04 C 131.09 368.04 129.49 349.97 130.71 331.97 C 130.79 330.20 131.14 328.46 131.62 326.77 C 131.99 329.76 132.02 332.78 132.38 335.77 C 133.46 335.85 134.55 335.85 135.64 335.76 C 136.47 324.19 135.41 312.58 135.81 300.99 C 134.78 278.01 135.11 254.99 134.74 232.00 C 134.94 221.39 134.53 210.77 134.91 200.17 C 134.16 201.23 133.44 202.30 132.68 203.36 C 131.01 197.41 132.79 191.04 130.71 185.17 C 128.48 179.02 128.80 172.42 128.77 165.99 C 128.82 160.03 128.48 154.05 129.23 148.12 C 129.72 143.49 130.83 138.64 129.15 134.11 C 115.13 143.57 105.37 158.88 89.28 165.27 C 84.53 167.48 78.68 167.04 74.64 170.71 C 73.18 172.27 70.98 171.35 69.32 170.71 C 68.04 170.12 66.26 169.40 66.44 167.68 C 67.91 168.07 69.37 168.54 70.82 169.02 C 67.89 165.95 64.18 163.78 61.23 160.72 C 60.03 160.03 58.59 159.96 57.29 159.52 C 55.97 155.47 57.16 151.19 57.48 147.08 C 57.56 145.65 58.61 144.57 59.25 143.36 C 61.22 140.18 61.97 136.31 64.49 133.46 C 69.97 128.29 75.74 123.40 81.44 118.47 C 92.04 110.49 101.16 100.78 111.53 92.53 C 117.90 87.55 122.67 80.12 130.83 77.83 Z" fill="#269be0" opacity="1.00" stroke="#269be0" stroke-width="0.25"/>
<path d="M 303.72 80.84 C 309.22 78.67 315.03 77.06 320.97 76.90 C 320.17 78.43 317.97 77.96 316.55 78.48 C 308.49 79.62 301.49 84.01 294.01 86.87 C 296.45 83.79 300.25 82.40 303.72 80.84 Z" fill="#56bbf0" opacity="1.00" stroke="#56bbf0" stroke-width="0.25"/>
<path d="M 169.34 77.82 C 173.95 78.39 177.75 83.08 178.46 87.44 C 177.42 94.30 179.54 101.19 178.60 108.09 C 176.63 101.63 177.54 94.58 174.73 88.34 C 173.24 84.67 169.84 82.41 167.38 79.47 C 167.87 79.05 168.85 78.23 169.34 77.82 Z" fill="#56bbf0" opacity="1.00" stroke="#56bbf0" stroke-width="0.25"/>
<path d="M 181.06 91.86 C 182.10 94.44 181.60 97.29 181.69 100.00 C 181.64 120.67 181.67 141.34 181.68 162.01 C 182.17 167.66 182.78 173.31 182.56 178.99 C 182.85 206.00 182.43 233.01 183.12 260.00 C 183.26 294.00 183.31 328.00 183.23 362.00 C 183.30 366.56 182.06 371.05 182.33 375.63 C 183.07 387.94 183.13 400.28 182.38 412.59 C 181.86 418.40 177.20 422.48 173.19 426.19 C 168.31 429.16 162.26 430.10 156.61 429.47 C 154.55 429.01 153.21 431.18 151.31 431.41 C 149.43 431.21 147.59 430.75 145.80 430.15 C 145.59 429.51 145.17 428.22 144.95 427.57 C 145.68 427.61 146.40 427.69 147.12 427.81 C 147.25 428.41 147.51 429.59 147.63 430.18 C 147.76 429.35 148.01 427.69 148.14 426.86 C 148.71 427.80 149.25 428.77 149.88 429.68 C 151.77 428.48 153.82 427.58 156.04 427.25 C 160.09 426.59 162.35 422.45 166.26 421.49 C 166.75 422.19 167.24 422.90 167.71 423.62 C 168.18 422.16 168.50 420.64 169.21 419.28 C 171.61 417.03 175.23 415.89 176.61 412.69 C 177.48 407.50 176.52 402.23 176.73 397.01 C 177.57 373.00 176.85 348.97 177.15 324.96 C 177.99 314.61 177.72 304.22 178.65 293.89 C 179.16 286.83 178.58 279.75 178.98 272.69 C 179.60 272.89 180.23 273.08 180.86 273.28 C 181.03 265.86 181.41 258.43 180.66 251.03 C 180.04 239.70 179.74 228.35 179.96 217.00 C 180.01 210.73 179.60 204.43 180.25 198.17 C 181.07 190.47 180.49 182.73 180.77 175.01 C 181.69 158.35 181.07 141.67 181.30 125.01 C 181.23 113.96 181.59 102.90 181.06 91.86 Z" fill="#56bbf0" opacity="1.00" stroke="#56bbf0" stroke-width="0.25"/>
<path d="M 114.11 102.65 C 118.12 100.64 121.48 97.38 125.88 96.12 C 123.98 103.59 116.37 106.44 111.13 111.12 C 107.62 113.59 104.72 117.51 100.15 117.95 C 102.03 115.52 104.52 113.52 105.75 110.63 C 107.28 107.20 109.77 104.27 112.51 101.76 C 112.91 101.98 113.71 102.43 114.11 102.65 Z" fill="#56bbf0" opacity="1.00" stroke="#56bbf0" stroke-width="0.25"/>
<path d="M 274.38 98.48 C 275.83 98.10 276.90 99.64 277.55 100.73 C 275.05 102.83 272.29 104.62 269.94 106.91 C 268.00 108.66 266.47 110.94 264.06 112.08 C 264.67 108.86 267.16 106.59 269.13 104.15 C 270.82 102.22 272.31 100.05 274.38 98.48 Z" fill="#56bbf0" opacity="1.00" stroke="#56bbf0" stroke-width="0.25"/>
<path d="M 376.17 106.05 C 381.04 107.28 386.33 108.39 390.09 111.97 C 395.11 116.06 397.52 122.28 399.70 128.17 C 400.52 130.59 401.46 133.51 399.87 135.83 C 397.93 134.49 397.17 132.03 395.94 130.10 C 392.68 123.70 388.99 117.24 383.23 112.75 C 380.75 110.68 377.56 109.15 376.17 106.05 Z" fill="#56bbf0" opacity="1.00" stroke="#56bbf0" stroke-width="0.25"/>
<path d="M 324.21 114.18 C 330.73 112.45 337.47 110.09 344.28 111.47 C 347.78 111.86 350.60 114.23 353.99 115.00 C 358.79 116.12 363.77 116.73 368.33 118.71 C 369.43 119.29 371.15 119.94 370.73 121.50 C 368.64 121.95 366.13 122.94 366.63 125.56 C 368.61 128.17 371.53 130.16 372.60 133.41 C 374.51 139.27 378.08 144.43 379.78 150.37 C 380.67 153.44 380.37 156.70 381.09 159.80 C 384.73 156.53 383.57 151.36 383.62 147.05 L 384.10 146.51 C 389.57 154.81 389.48 165.42 386.63 174.65 C 385.44 176.82 388.30 178.79 386.87 180.86 C 384.45 186.14 381.70 191.39 377.64 195.63 C 375.36 197.94 373.30 200.79 370.12 201.91 C 371.99 196.48 378.72 194.46 380.27 188.87 C 376.49 191.11 373.91 194.81 370.28 197.25 C 366.06 200.13 361.34 202.21 357.30 205.36 C 355.09 207.16 352.36 208.02 349.70 208.91 C 347.42 209.49 346.76 212.62 344.28 212.72 C 338.37 213.50 332.74 210.93 327.53 208.50 C 319.13 204.07 310.09 200.50 302.90 194.11 C 299.54 191.28 298.00 187.03 295.42 183.58 C 293.09 180.41 290.46 177.23 289.74 173.24 C 287.57 162.97 287.25 151.62 292.24 142.09 C 294.80 136.77 296.50 130.26 301.67 126.84 C 300.21 129.24 298.22 131.42 297.65 134.26 C 299.25 133.35 300.68 131.47 302.73 132.02 C 306.69 123.16 314.93 116.71 324.21 114.18 Z" fill="#56bbf0" opacity="1.00" stroke="#56bbf0" stroke-width="0.25"/>
<path d="M 103.98 120.07 C 106.78 116.86 109.97 113.60 114.03 112.08 C 111.81 115.83 107.78 118.17 103.98 120.07 Z" fill="#56bbf0" opacity="1.00" stroke="#56bbf0" stroke-width="0.25"/>
<path d="M 421.13 117.85 C 423.16 119.42 423.68 122.09 424.73 124.30 C 427.31 130.23 429.93 136.26 430.54 142.78 C 430.77 146.41 433.50 149.31 433.61 152.94 C 433.85 158.57 434.40 164.33 432.93 169.86 C 431.63 174.70 430.70 179.63 429.60 184.52 C 429.08 186.99 426.61 188.30 425.57 190.49 C 425.52 194.33 426.98 198.14 426.22 201.98 C 425.05 205.23 422.45 207.69 421.03 210.82 C 418.42 216.85 414.07 221.88 409.66 226.65 C 408.51 227.91 407.41 229.28 406.91 230.93 C 410.71 233.98 415.32 235.82 419.13 238.87 C 423.84 242.12 426.94 247.13 431.69 250.34 C 438.87 255.95 440.62 265.28 443.66 273.33 C 449.26 282.65 452.44 293.23 454.02 303.94 C 454.90 310.19 453.83 316.53 454.59 322.77 C 456.07 327.98 456.03 333.47 455.65 338.84 C 453.90 349.44 449.63 359.39 446.60 369.65 C 444.30 377.19 439.37 383.50 434.74 389.74 C 430.62 395.50 425.55 400.55 420.06 405.01 C 417.87 407.03 414.72 406.55 411.99 406.81 C 414.66 403.49 417.70 400.46 421.42 398.33 C 425.27 396.11 427.06 391.86 429.19 388.19 C 433.21 380.40 438.60 373.13 440.43 364.39 C 441.91 357.47 445.49 351.14 446.24 344.05 C 445.50 344.96 444.79 345.89 444.06 346.81 C 444.23 341.51 444.37 336.21 444.75 330.91 C 445.89 317.74 441.50 305.00 440.13 292.02 C 443.19 298.11 443.95 304.97 445.35 311.56 C 446.85 318.27 446.58 325.16 446.99 331.98 L 447.84 331.80 C 448.77 326.20 447.86 320.53 448.38 314.92 C 448.72 316.75 448.95 318.65 449.83 320.34 C 450.11 311.19 448.34 302.05 445.77 293.30 C 444.17 287.12 439.90 282.19 437.47 276.37 C 436.28 273.09 432.45 272.16 430.78 269.24 C 427.27 263.82 423.41 258.62 419.53 253.45 C 415.31 248.62 409.80 245.17 404.92 241.07 C 401.37 238.18 396.93 236.47 393.79 233.08 C 398.25 228.72 401.29 223.16 405.96 218.99 C 409.59 215.25 412.71 211.05 416.27 207.24 C 421.34 201.73 423.38 194.32 425.40 187.29 C 428.41 177.17 429.33 166.53 429.29 156.01 C 428.99 142.87 424.77 130.33 421.13 117.85 Z" fill="#56bbf0" opacity="1.00" stroke="#56bbf0" stroke-width="0.25"/>
<path d="M 322.42 122.59 C 328.58 122.11 334.83 122.38 341.03 122.43 C 349.15 123.50 357.33 125.51 364.59 129.44 C 367.71 130.95 369.50 134.01 371.22 136.88 C 375.63 143.45 377.95 151.23 379.31 158.95 C 379.81 171.39 374.45 183.88 365.31 192.32 C 363.17 194.07 362.29 196.70 360.90 198.98 C 352.23 205.92 340.39 204.60 330.05 204.09 C 323.74 202.33 316.63 202.00 311.41 197.62 C 309.41 196.31 309.04 193.81 308.02 191.83 C 306.00 187.80 302.65 184.65 300.33 180.81 C 297.20 174.79 294.52 167.75 296.95 160.99 C 299.22 155.70 297.48 149.75 299.52 144.43 C 303.82 134.49 312.29 126.42 322.42 122.59 Z" fill="#ffffff" opacity="1.00" stroke="#ffffff" stroke-width="0.25"/>
<path d="M 89.28 165.27 C 105.37 158.88 115.13 143.57 129.15 134.11 C 130.83 138.64 129.72 143.49 129.23 148.12 C 128.48 154.05 128.82 160.03 128.77 165.99 C 128.80 172.42 128.48 179.02 130.71 185.17 C 132.79 191.04 131.01 197.41 132.68 203.36 C 133.44 202.30 134.16 201.23 134.91 200.17 C 134.53 210.77 134.94 221.39 134.74 232.00 C 135.11 254.99 134.78 278.01 135.81 300.99 C 135.41 312.58 136.47 324.19 135.64 335.76 C 134.55 335.85 133.46 335.85 132.38 335.77 C 132.02 332.78 131.99 329.76 131.62 326.77 C 131.14 328.46 130.79 330.20 130.71 331.97 C 129.49 349.97 131.09 368.04 129.82 386.04 C 129.82 388.15 129.56 390.43 130.50 392.41 C 131.94 394.09 134.59 394.44 135.72 396.34 C 136.88 401.33 135.57 406.55 136.62 411.55 C 137.59 413.48 139.18 415.04 140.00 417.05 C 140.76 419.88 140.78 422.84 141.10 425.75 C 135.29 425.32 132.65 419.38 129.83 415.13 C 127.38 402.26 129.58 388.99 127.92 376.00 C 127.58 344.00 127.56 311.99 127.67 279.99 C 128.36 268.99 128.35 257.98 127.69 246.99 C 127.62 225.66 126.94 204.33 127.13 183.00 C 127.70 169.70 127.73 156.39 127.60 143.09 C 121.55 146.22 117.75 152.30 112.41 156.41 C 105.61 161.56 101.30 169.48 93.65 173.57 C 86.64 177.78 77.70 177.81 70.26 174.72 C 67.05 173.32 63.67 171.66 61.82 168.52 C 62.79 168.69 63.76 168.86 64.73 169.03 C 64.54 168.06 64.35 167.08 64.17 166.11 C 64.92 166.31 65.65 166.59 66.34 166.95 L 66.44 167.68 C 66.26 169.40 68.04 170.12 69.32 170.71 C 70.98 171.35 73.18 172.27 74.64 170.71 C 78.68 167.04 84.53 167.48 89.28 165.27 Z" fill="#56bbf0" opacity="1.00" stroke="#56bbf0" stroke-width="0.25"/>
<path d="M 139.19 144.43 L 139.76 144.19 C 139.56 149.82 140.95 155.35 140.70 160.98 C 140.78 190.00 141.52 219.08 138.92 248.01 C 138.58 251.69 138.98 255.57 137.33 259.00 C 137.14 254.61 137.31 250.21 137.68 245.83 C 138.55 236.91 138.08 227.93 138.41 218.99 C 139.37 207.35 139.46 195.66 139.12 184.00 C 138.98 170.81 139.52 157.62 139.19 144.43 Z" fill="#56bbf0" opacity="1.00" stroke="#56bbf0" stroke-width="0.25"/>
<path d="M 261.08 198.08 C 263.68 200.16 265.20 203.18 267.07 205.86 C 269.63 209.60 273.13 212.74 274.76 217.06 C 271.43 215.67 269.20 212.73 267.04 209.98 C 264.34 206.44 261.66 202.61 261.08 198.08 Z" fill="#56bbf0" opacity="1.00" stroke="#56bbf0" stroke-width="0.25"/>
<path d="M 167.34 199.96 C 168.12 201.86 167.82 203.96 167.92 205.96 C 168.65 229.97 166.78 253.95 166.59 277.95 C 166.17 283.97 165.73 289.98 165.67 296.01 C 164.49 290.16 165.32 283.96 165.17 277.98 C 164.98 264.61 166.44 251.30 166.34 237.93 C 167.30 225.30 166.91 212.61 167.34 199.96 Z" fill="#56bbf0" opacity="1.00" stroke="#56bbf0" stroke-width="0.25"/>
<path d="M 170.19 209.32 L 170.81 209.35 C 170.52 217.91 171.28 226.46 170.87 235.02 C 172.26 249.64 171.69 264.35 171.69 279.02 C 171.95 286.99 170.14 294.87 170.81 302.86 C 169.19 301.85 171.20 298.55 169.20 298.09 C 168.82 304.72 168.46 311.35 167.95 317.97 C 167.63 320.35 168.26 323.20 166.38 325.06 C 165.81 312.43 166.87 299.83 167.48 287.23 C 168.77 279.52 167.88 271.69 168.85 263.96 C 169.94 252.66 168.71 241.27 169.76 229.96 C 170.11 223.09 170.37 216.20 170.19 209.32 Z" fill="#56bbf0" opacity="1.00" stroke="#56bbf0" stroke-width="0.25"/>
<path d="M 289.99 213.58 C 291.83 213.78 293.60 213.46 295.25 212.61 C 297.73 213.11 299.64 215.00 301.71 216.34 C 305.02 218.98 309.76 219.93 311.83 223.96 C 308.55 225.24 304.91 223.51 301.96 222.04 C 297.88 219.37 293.49 217.03 289.99 213.58 Z" fill="#56bbf0" opacity="1.00" stroke="#56bbf0" stroke-width="0.25"/>
<path d="M 400.01 239.84 C 405.45 242.47 409.44 247.17 413.93 251.07 C 416.97 254.65 420.63 257.78 423.02 261.86 C 418.20 258.10 414.40 253.24 409.89 249.14 C 406.78 245.83 402.55 243.68 400.01 239.84 Z" fill="#56bbf0" opacity="1.00" stroke="#56bbf0" stroke-width="0.25"/>
<path d="M 128.98 243.34 L 129.78 243.09 C 129.87 248.72 130.09 254.34 130.63 259.96 C 131.17 266.29 130.06 272.56 129.63 278.86 L 129.13 278.48 C 128.96 271.00 129.34 263.51 129.00 256.03 C 128.88 251.80 128.43 247.55 128.98 243.34 Z" fill="#269be0" opacity="1.00" stroke="#269be0" stroke-width="0.25"/>
<path d="M 382.31 250.35 C 383.17 249.91 384.07 249.57 385.01 249.34 C 388.32 250.61 391.00 253.08 393.72 255.28 C 397.27 257.89 396.84 262.91 399.66 266.12 C 396.08 264.68 393.44 261.76 390.23 259.73 C 386.86 257.41 382.73 254.84 382.31 250.35 Z" fill="#56bbf0" opacity="1.00" stroke="#56bbf0" stroke-width="0.25"/>
<path d="M 319.44 259.27 C 323.90 257.73 328.08 254.78 333.00 255.07 C 345.75 255.58 358.01 260.43 368.52 267.50 C 370.01 269.03 370.69 271.28 372.55 272.47 C 375.28 274.38 378.25 275.99 380.69 278.30 C 383.34 280.73 385.05 283.95 387.22 286.79 C 388.91 289.13 391.19 291.18 391.85 294.11 C 384.95 286.69 379.12 278.02 370.31 272.65 C 364.64 268.35 357.37 266.85 352.00 262.12 C 348.19 259.70 343.30 260.76 339.02 260.68 C 331.85 261.46 324.26 260.30 317.53 263.43 C 310.94 265.97 305.44 270.58 300.31 275.32 C 297.52 277.81 296.21 281.38 294.43 284.58 C 293.19 287.26 289.54 287.54 288.38 290.30 C 283.54 300.11 280.01 310.73 279.29 321.70 C 279.15 323.66 278.94 325.63 278.36 327.53 C 277.66 318.81 279.88 310.36 280.94 301.80 C 277.17 305.87 276.43 311.69 275.71 316.97 C 275.06 325.20 276.66 333.41 278.66 341.36 C 280.42 348.45 284.54 354.56 288.26 360.74 C 289.73 363.17 291.60 365.40 293.96 367.02 C 300.01 371.21 306.14 375.44 313.11 377.98 C 322.88 382.12 333.65 382.26 344.08 382.84 C 349.77 383.13 355.52 382.18 360.74 379.86 C 366.99 377.10 373.51 374.36 378.45 369.48 C 383.49 364.53 386.52 358.05 389.96 351.99 C 396.57 340.12 399.39 326.36 398.70 312.83 C 401.22 316.68 401.60 321.46 401.91 325.93 C 402.21 329.50 401.58 333.37 403.40 336.64 C 403.80 337.70 404.63 338.67 404.62 339.85 C 403.47 349.23 398.88 357.79 393.17 365.16 C 387.79 370.14 382.37 375.19 376.24 379.24 C 366.60 384.17 356.18 388.21 345.25 388.60 C 338.79 391.37 331.68 390.32 324.97 389.20 C 321.01 388.52 317.20 387.18 313.50 385.66 C 310.47 384.56 308.98 381.38 306.17 379.92 C 302.02 377.48 298.69 373.98 295.15 370.78 C 287.29 364.20 280.79 355.95 276.06 346.86 C 273.20 341.63 272.76 335.58 270.85 330.02 C 269.89 327.10 268.67 324.14 268.94 321.00 C 269.31 313.55 270.86 306.21 273.18 299.13 C 274.39 295.54 276.02 291.89 279.05 289.46 C 279.65 290.86 280.01 292.35 280.42 293.82 C 285.52 288.62 287.87 281.66 291.46 275.50 C 293.88 271.07 299.20 270.22 303.41 268.34 C 308.76 265.34 313.60 261.35 319.44 259.27 Z" fill="#56bbf0" opacity="1.00" stroke="#56bbf0" stroke-width="0.25"/>
<path d="M 317.53 263.43 C 324.26 260.30 331.85 261.46 339.02 260.68 C 343.30 260.76 348.19 259.70 352.00 262.12 C 357.37 266.85 364.64 268.35 370.31 272.65 C 379.12 278.02 384.95 286.69 391.85 294.11 C 396.02 299.41 397.55 306.33 398.70 312.83 C 399.39 326.36 396.57 340.12 389.96 351.99 C 386.52 358.05 383.49 364.53 378.45 369.48 C 373.51 374.36 366.99 377.10 360.74 379.86 C 355.52 382.18 349.77 383.13 344.08 382.84 C 333.65 382.26 322.88 382.12 313.11 377.98 C 306.14 375.44 300.01 371.21 293.96 367.02 C 291.60 365.40 289.73 363.17 288.26 360.74 C 284.54 354.56 280.42 348.45 278.66 341.36 C 276.66 333.41 275.06 325.20 275.71 316.97 C 276.43 311.69 277.17 305.87 280.94 301.80 C 279.88 310.36 277.66 318.81 278.36 327.53 C 278.94 325.63 279.15 323.66 279.29 321.70 C 280.01 310.73 283.54 300.11 288.38 290.30 C 289.54 287.54 293.19 287.26 294.43 284.58 C 296.21 281.38 297.52 277.81 300.31 275.32 C 305.44 270.58 310.94 265.97 317.53 263.43 Z" fill="#ffffff" opacity="1.00" stroke="#ffffff" stroke-width="0.25"/>
<path d="M 417.18 297.00 C 419.05 300.33 419.99 304.06 421.13 307.68 C 422.34 311.70 423.75 315.73 423.88 319.97 C 421.72 317.35 421.23 313.92 420.36 310.75 C 419.28 306.17 417.08 301.80 417.18 297.00 Z" fill="#56bbf0" opacity="1.00" stroke="#56bbf0" stroke-width="0.25"/>
<path d="M 273.78 307.57 C 274.09 305.40 274.79 303.24 276.47 301.75 C 275.82 305.30 274.77 308.78 274.27 312.37 C 273.16 319.54 273.83 326.80 273.75 334.01 C 272.62 332.19 272.63 329.99 272.43 327.94 C 271.86 321.12 272.69 314.29 273.78 307.57 Z" fill="#269be0" opacity="1.00" stroke="#269be0" stroke-width="0.25"/>
<path d="M 410.47 329.35 C 410.81 329.34 411.48 329.31 411.81 329.29 C 410.78 337.64 409.57 346.18 405.78 353.80 C 402.95 359.17 400.65 364.94 396.42 369.42 C 392.78 374.59 386.98 377.35 381.93 380.87 C 373.97 385.41 365.30 389.50 355.98 389.80 C 358.23 388.01 361.10 387.47 363.78 386.63 C 368.62 385.17 373.42 383.41 377.72 380.70 C 383.72 376.84 390.10 373.23 394.71 367.64 C 397.22 364.49 399.69 361.27 401.89 357.89 C 405.67 348.70 409.34 339.32 410.47 329.35 Z" fill="#56bbf0" opacity="1.00" stroke="#56bbf0" stroke-width="0.25"/>
<path d="M 269.07 340.10 C 271.89 342.80 273.14 346.61 275.11 349.89 C 277.70 354.52 281.68 358.46 282.86 363.79 C 276.38 363.25 272.51 357.33 270.01 351.98 C 268.99 350.31 270.18 348.59 270.54 346.94 C 270.20 344.63 269.41 342.41 269.07 340.10 Z" fill="#56bbf0" opacity="1.00" stroke="#56bbf0" stroke-width="0.25"/>
<path d="M 369.85 379.62 C 374.87 374.40 380.12 368.98 386.94 366.15 C 384.65 370.29 380.86 373.32 377.28 376.30 C 375.17 378.12 372.57 379.19 369.85 379.62 Z" fill="#269be0" opacity="1.00" stroke="#269be0" stroke-width="0.25"/>
<path d="M 332.96 385.43 C 339.81 384.93 346.68 385.13 353.54 385.25 L 353.80 385.78 C 350.52 385.80 347.23 385.74 343.97 386.17 C 340.32 386.49 336.32 387.39 332.96 385.43 Z" fill="#269be0" opacity="1.00" stroke="#269be0" stroke-width="0.25"/>
<path d="M 323.19 420.31 C 331.76 419.24 340.39 418.16 349.04 418.28 C 344.92 421.08 339.74 420.83 334.99 420.86 C 331.17 420.75 327.36 420.94 323.55 420.80 L 323.19 420.31 Z" fill="#56bbf0" opacity="1.00" stroke="#56bbf0" stroke-width="0.25"/>
</svg>