<svg xmlns="http://www.w3.org/2000/svg" height="512pt" version="1.1" viewBox="0 0 512 512" width="512pt">
<path d="M 0.00 0.00 L 512.00 0.00 L 512.00 512.00 L 0.00 512.00 L 0.00 0.00 Z" fill="transparent" opacity="1.00" stroke="transparent" stroke-width="0.25" data-index="0" style="opacity: 1;"></path>
<path d="M 279.10 111.86 C 285.73 112.59 292.28 113.84 298.83 115.05 C 330.04 120.16 361.21 125.54 392.41 130.68 C 394.20 131.20 396.54 130.90 397.88 132.34 C 398.06 135.73 395.69 138.50 394.34 141.42 C 385.19 159.61 376.21 177.88 367.11 196.09 C 378.52 207.29 389.20 219.19 400.46 230.52 C 404.07 234.43 408.04 238.02 411.47 242.09 C 411.43 242.53 411.35 243.42 411.31 243.86 C 396.54 252.75 381.39 261.03 366.32 269.42 C 365.81 291.28 366.24 313.16 366.10 335.02 C 366.35 336.53 364.56 337.05 363.60 337.76 C 330.34 356.20 297.32 375.05 264.02 393.42 C 261.86 392.57 259.66 391.81 257.52 390.93 C 220.94 374.54 184.05 358.83 147.43 342.55 C 146.12 341.99 146.65 340.15 146.40 339.03 C 146.42 324.65 146.44 310.27 146.41 295.89 C 146.38 272.97 146.55 250.04 146.32 227.13 C 138.07 222.07 130.69 215.77 122.83 210.16 C 114.06 203.91 105.39 197.51 96.47 191.48 C 95.15 190.71 94.38 189.42 93.89 188.01 C 97.71 188.70 101.09 190.69 104.61 192.21 C 113.70 196.15 122.85 199.92 131.91 203.93 C 124.44 196.78 116.78 189.82 109.02 182.98 C 107.78 182.43 106.15 179.01 108.83 179.76 C 120.24 182.86 131.49 186.51 142.84 189.82 C 133.62 172.95 123.84 156.39 114.27 139.71 C 113.42 137.96 111.98 136.29 112.09 134.25 C 113.13 133.29 114.70 133.42 115.99 133.06 C 146.52 127.84 177.03 122.47 207.54 117.16 C 209.33 117.03 211.96 115.87 212.83 118.16 C 223.01 134.99 233.55 151.62 243.65 168.51 C 243.89 168.50 244.36 168.48 244.60 168.47 C 255.90 149.49 267.65 130.76 279.10 111.86 Z" fill="#28445c" opacity="1.00" stroke="#28445c" stroke-width="0.25" data-index="1" style="opacity: 1;"></path>
<path d="M 253.71 159.69 C 262.61 144.84 271.81 130.18 280.79 115.38 C 318.52 121.51 356.19 128.09 393.93 134.20 C 391.62 140.23 388.35 145.81 385.54 151.60 C 378.22 166.33 370.74 180.98 363.69 195.83 C 334.24 189.51 304.68 183.73 275.23 177.40 C 265.78 175.50 256.39 173.25 246.90 171.55 C 248.57 167.27 251.45 163.65 253.71 159.69 Z" fill="#cae0f1" opacity="1.00" stroke="#cae0f1" stroke-width="0.25" data-index="2"></path>
<path d="M 123.98 135.02 C 152.83 130.20 181.60 124.78 210.48 120.16 C 220.60 137.56 231.49 154.49 241.94 171.69 C 216.30 178.26 190.79 185.35 165.16 191.98 C 161.46 192.82 157.63 194.74 153.82 193.34 C 151.22 192.42 147.75 192.34 146.53 189.42 C 136.57 171.77 126.38 154.26 116.34 136.66 C 118.83 135.89 121.41 135.47 123.98 135.02 Z" fill="#ffffff" opacity="1.00" stroke="#ffffff" stroke-width="0.25" data-index="3" style="opacity: 1;"></path>
<path d="M 237.92 176.01 C 239.26 175.69 240.63 175.45 242.01 175.27 C 240.44 177.97 239.77 181.04 238.89 184.00 C 235.83 194.90 232.10 205.62 229.60 216.67 C 227.10 215.59 224.50 214.77 221.90 213.96 C 203.52 208.32 185.13 202.70 166.73 197.12 C 165.71 196.83 164.80 196.27 163.90 195.72 C 188.65 189.44 213.25 182.60 237.92 176.01 Z" fill="#ffffff" opacity="1.00" stroke="#ffffff" stroke-width="0.25" data-index="4" style="opacity: 1;"></path>
<path d="M 242.01 175.27 L 242.41 174.64 C 242.54 191.76 242.23 208.89 242.53 226.02 C 238.00 223.21 233.80 219.92 229.60 216.67 C 232.10 205.62 235.83 194.90 238.89 184.00 C 239.77 181.04 240.44 177.97 242.01 175.27 Z" fill="#cae0f1" opacity="1.00" stroke="#cae0f1" stroke-width="0.25" data-index="5"></path>
<path d="M 245.73 174.69 C 275.73 180.71 305.61 187.35 335.63 193.32 C 343.15 195.27 351.06 195.86 358.34 198.68 C 326.66 213.35 294.80 227.63 262.91 241.85 C 257.42 238.18 252.42 233.84 247.20 229.80 C 245.14 228.62 245.81 225.98 245.63 224.02 C 245.77 207.58 245.54 191.13 245.73 174.69 Z" fill="#cae0f1" opacity="1.00" stroke="#cae0f1" stroke-width="0.25" data-index="6"></path>
<path d="M 116.94 185.34 C 153.13 196.51 189.42 207.35 225.62 218.52 C 228.85 219.57 231.28 222.08 234.01 224.01 C 242.82 230.52 251.45 237.25 260.09 243.97 C 255.05 246.97 250.24 250.45 244.89 252.87 C 241.68 252.62 238.67 251.29 235.60 250.43 C 208.98 242.38 182.29 234.55 155.75 226.27 C 151.59 224.89 146.91 224.48 143.44 221.55 C 133.17 213.52 122.21 206.37 112.13 198.11 C 118.65 201.87 125.80 204.30 132.59 207.51 C 134.98 208.36 137.52 209.93 140.13 209.16 L 140.45 208.11 C 136.75 203.04 131.34 199.51 126.99 195.01 C 123.82 191.59 119.88 188.96 116.94 185.34 Z" fill="#cae0f1" opacity="1.00" stroke="#cae0f1" stroke-width="0.25" data-index="7" style="opacity: 1;"></path>
<path d="M 347.29 207.42 C 353.52 204.98 359.22 201.16 365.66 199.35 C 373.88 207.46 381.72 215.96 389.84 224.18 C 395.71 230.16 401.21 236.52 407.42 242.17 C 403.10 245.48 398.11 247.73 393.45 250.51 C 362.72 268.02 331.64 284.91 300.80 302.24 C 297.03 297.49 294.26 292.06 290.83 287.09 C 282.90 274.38 274.91 261.71 266.96 249.01 C 266.05 247.59 265.43 246.01 264.96 244.39 C 292.59 232.50 319.81 219.66 347.29 207.42 Z" fill="#ffffff" opacity="1.00" stroke="#ffffff" stroke-width="0.25" data-index="8"></path>
<path d="M 149.81 227.99 C 177.58 236.34 205.33 244.71 233.09 253.12 C 237.05 254.25 240.89 255.93 244.98 256.51 C 251.26 253.99 256.42 249.30 262.74 246.88 C 263.39 251.22 263.26 255.62 263.22 260.00 C 263.22 303.16 263.30 346.32 263.14 389.49 C 245.82 382.45 228.91 374.42 211.66 367.21 C 191.46 358.46 171.35 349.49 151.15 340.78 C 149.02 340.15 149.94 337.67 149.70 336.05 C 149.82 300.03 149.60 264.01 149.81 227.99 Z" fill="#cae0f1" opacity="1.00" stroke="#cae0f1" stroke-width="0.25" data-index="9" style="opacity: 1;"></path>
<path d="M 266.48 254.85 C 267.04 255.49 267.58 256.15 268.08 256.85 C 277.72 272.52 287.77 287.93 297.36 303.63 C 297.88 304.46 298.50 305.22 299.21 305.90 C 300.74 306.11 302.06 305.03 303.39 304.45 C 317.49 296.56 331.66 288.82 345.75 280.91 C 351.10 278.23 356.08 274.86 361.62 272.55 C 362.06 275.14 363.59 278.97 360.41 280.43 C 351.34 285.85 341.77 290.37 332.55 295.52 C 314.28 305.28 296.11 315.25 277.73 324.81 C 274.11 326.95 270.40 328.96 266.46 330.45 C 266.36 305.25 266.43 280.05 266.48 254.85 Z" fill="#cae0f1" opacity="1.00" stroke="#cae0f1" stroke-width="0.25" data-index="10" style="opacity: 1;"></path>
<path d="M 361.43 271.63 C 362.35 272.17 362.76 272.97 362.67 274.03 C 362.72 294.21 362.73 314.40 362.67 334.59 C 333.00 350.85 303.63 367.62 274.10 384.13 C 271.60 385.61 269.13 387.20 266.36 388.15 C 266.47 368.92 266.30 349.68 266.46 330.45 C 270.40 328.96 274.11 326.95 277.73 324.81 C 296.11 315.25 314.28 305.28 332.55 295.52 C 341.77 290.37 351.34 285.85 360.41 280.43 C 363.59 278.97 362.06 275.14 361.62 272.55 L 361.43 271.63 Z" fill="#ffffff" opacity="1.00" stroke="#ffffff" stroke-width="0.25" data-index="11" style="opacity: 1;"></path>

</svg>