<svg xmlns="http://www.w3.org/2000/svg" height="512pt" version="1.1" viewBox="0 0 512 512" width="512pt">

<path d="M 242.89 114.88 C 246.51 110.36 252.93 111.42 258.06 111.26 C 285.10 112.74 311.29 121.79 335.10 134.38 C 337.86 135.96 340.64 137.53 343.46 139.03 C 349.78 141.96 355.49 145.93 361.51 149.36 C 364.47 151.55 364.67 155.45 365.28 158.77 C 367.52 174.26 369.26 189.83 372.01 205.25 C 372.59 207.50 371.92 209.78 370.43 211.52 C 357.44 227.44 343.82 242.84 330.47 258.47 C 301.67 293.52 270.75 326.77 241.23 361.20 C 235.67 368.30 230.50 375.71 224.32 382.30 C 222.84 384.24 220.24 384.37 218.03 383.97 C 211.92 383.53 206.50 380.45 201.01 378.03 C 183.66 370.63 166.20 363.47 148.27 357.59 C 139.41 354.16 130.47 350.94 121.73 347.22 C 116.47 344.89 110.61 342.82 106.86 338.24 C 103.14 316.56 97.66 295.01 96.80 272.93 C 96.62 269.91 98.89 267.73 100.31 265.32 C 102.15 262.25 104.69 259.70 107.01 257.00 C 118.33 245.32 129.29 233.30 140.89 221.89 C 153.16 208.49 166.26 195.91 178.78 182.77 C 187.04 173.39 196.18 164.84 204.58 155.59 C 217.10 141.79 230.19 128.52 242.89 114.88 Z" fill="#103352" opacity="1.00" stroke="#103352" stroke-width="0.25" data-index="1" style="opacity: 1;"></path>
<path d="M 241.78 120.78 C 243.65 118.60 245.44 116.15 248.13 114.93 C 251.36 114.29 254.69 114.42 257.97 114.48 C 278.63 115.90 299.05 121.24 317.72 130.21 C 332.35 136.43 346.94 143.20 359.93 152.46 C 359.10 155.96 356.17 158.27 354.04 160.99 C 324.93 197.38 293.87 232.13 263.13 267.13 C 252.91 279.53 241.11 290.52 231.01 303.03 C 225.67 309.28 220.77 316.05 214.27 321.18 C 210.78 322.66 206.94 320.99 203.42 320.40 C 189.19 317.73 176.36 310.74 162.77 306.06 C 146.25 298.67 129.95 290.42 115.42 279.55 C 111.95 277.01 108.40 274.59 104.82 272.23 C 102.97 271.20 103.11 268.79 102.42 267.04 C 106.49 261.02 111.68 255.91 116.81 250.81 C 130.42 236.75 144.04 222.72 157.75 208.77 C 171.45 194.14 185.60 179.95 199.43 165.45 C 208.57 155.27 218.28 145.62 227.67 135.67 C 232.38 130.72 237.46 126.10 241.78 120.78 Z" fill="#fd95c6" opacity="1.00" stroke="#fd95c6" stroke-width="0.25" data-index="2" style="opacity: 1;"></path>

<path d="M 374.21 136.20 C 376.67 134.13 379.19 131.26 382.68 131.34 C 383.96 132.19 383.92 133.98 383.11 135.14 C 378.66 141.90 373.35 148.06 368.92 154.84 C 369.52 156.23 370.39 157.56 370.59 159.09 C 370.28 161.00 369.47 162.81 369.31 164.74 C 369.88 166.45 371.79 167.10 373.08 168.16 C 373.07 169.69 373.05 171.22 373.03 172.75 C 375.79 171.78 379.09 171.48 381.01 168.99 C 384.14 165.41 387.93 162.24 392.43 160.54 C 395.59 159.85 398.72 161.29 401.89 161.25 C 406.13 158.34 408.82 152.02 414.88 153.07 C 415.06 157.45 413.88 161.85 411.51 165.54 C 406.19 173.11 399.42 179.52 393.90 186.94 C 396.28 192.32 391.48 196.61 388.49 200.48 C 368.56 225.18 348.18 249.51 328.02 274.02 C 297.83 309.68 266.42 344.35 232.75 376.77 C 230.34 379.16 227.47 381.03 224.32 382.30 C 230.50 375.71 235.67 368.30 241.23 361.20 C 270.75 326.77 301.67 293.52 330.47 258.47 C 343.82 242.84 357.44 227.44 370.43 211.52 C 371.92 209.78 372.59 207.50 372.01 205.25 C 369.26 189.83 367.52 174.26 365.28 158.77 C 364.67 155.45 364.47 151.55 361.51 149.36 C 365.15 144.44 369.85 140.46 374.21 136.20 Z" fill="#65b5fe" opacity="1.00" stroke="#65b5fe" stroke-width="0.25" data-index="4" style="opacity: 1; visibility: hidden;"></path>
<path d="M 357.12 162.15 C 358.33 160.31 359.66 158.55 361.02 156.81 C 362.42 161.63 362.68 166.66 363.46 171.60 C 364.89 183.11 367.18 194.51 368.29 206.06 C 368.78 209.71 365.19 211.72 363.15 214.14 C 338.81 242.15 315.42 270.99 290.68 298.66 C 275.86 316.13 260.35 333.02 245.43 350.43 C 237.92 358.64 230.17 366.68 223.45 375.58 C 222.98 375.64 222.04 375.77 221.57 375.84 C 220.29 364.82 218.57 353.85 217.33 342.83 C 216.71 336.72 215.11 330.70 215.36 324.53 C 217.41 323.26 219.36 321.81 221.04 320.06 C 231.83 308.82 241.78 296.81 252.46 285.47 C 272.45 262.46 292.41 239.41 312.70 216.67 C 322.32 204.99 332.34 193.65 341.85 181.88 C 346.67 175.09 352.56 169.13 357.12 162.15 Z" fill="#65b5fe" opacity="1.00" stroke="#65b5fe" stroke-width="0.25" data-index="5" style="opacity: 1; visibility: visible; fill: rgb(253, 149, 198);"></path>
<path d="M 101.37 277.09 C 106.48 277.99 110.34 281.75 114.60 284.41 C 134.13 297.01 154.54 308.57 176.49 316.41 C 187.15 320.69 198.27 324.17 209.69 325.66 C 211.17 331.27 211.78 337.05 212.42 342.80 C 213.72 354.92 215.40 367.01 216.80 379.13 C 211.89 379.25 207.61 376.38 203.19 374.63 C 192.37 369.52 181.16 365.30 170.08 360.79 C 155.46 355.56 140.72 350.61 126.49 344.39 C 121.12 342.18 114.85 340.73 110.89 336.26 C 107.88 321.58 105.17 306.83 102.97 292.00 C 102.36 287.04 101.19 282.12 101.37 277.09 Z" fill="#ffffff" opacity="1.00" stroke="#ffffff" stroke-width="0.25" data-index="6" style="opacity: 1; visibility: visible; fill: rgb(253, 149, 198);"></path>
</svg>