<svg xmlns="http://www.w3.org/2000/svg" height="512pt" version="1.1" viewBox="0 0 512 512" width="512pt">

<path d="M 98.97 31.33 C 103.60 30.98 108.28 29.45 112.92 30.43 C 116.97 32.09 118.20 37.02 118.10 41.01 C 117.85 46.89 117.44 52.77 117.27 58.66 C 120.79 59.31 125.02 59.38 127.49 62.39 C 129.21 65.01 128.39 68.38 127.05 70.97 C 124.96 74.59 120.66 75.84 117.77 78.65 C 114.68 81.77 113.10 86.00 110.29 89.35 C 107.92 92.07 104.61 93.75 101.22 94.84 C 101.15 119.71 103.30 144.52 106.40 169.17 C 107.99 182.73 109.73 196.34 109.59 210.02 C 109.44 213.75 110.34 217.48 112.31 220.66 C 117.84 229.57 123.88 238.15 129.74 246.85 C 131.12 245.90 132.52 244.97 133.95 244.10 C 142.01 252.06 149.51 260.55 157.55 268.53 C 158.45 269.58 159.77 270.48 159.99 271.95 C 159.23 273.14 158.28 274.19 157.35 275.26 C 171.01 287.44 184.42 300.29 200.44 309.39 C 208.56 313.72 217.32 317.36 226.60 318.00 C 226.49 309.62 226.50 301.25 226.54 292.87 C 213.60 286.89 203.86 275.52 198.04 262.69 C 191.79 262.42 185.22 260.97 180.41 256.72 C 173.11 250.64 170.49 239.06 175.64 230.84 C 176.44 229.27 178.44 227.69 177.30 225.78 C 172.71 213.68 169.00 201.07 168.72 188.04 C 166.88 184.74 163.75 182.25 162.14 178.76 C 156.03 166.95 155.13 153.11 156.52 140.09 C 157.13 135.30 157.86 130.28 160.65 126.20 C 163.25 126.06 164.89 128.02 165.93 130.17 C 169.70 137.01 176.97 142.18 184.94 142.24 C 192.96 142.49 199.83 137.80 206.82 134.56 C 218.32 128.86 230.93 124.07 243.99 124.91 C 254.33 125.56 264.14 129.70 272.79 135.23 C 275.25 136.68 277.15 139.04 279.68 140.29 C 289.94 136.20 302.48 135.68 312.02 141.84 C 318.04 145.45 321.08 152.12 323.43 158.43 C 326.71 167.84 327.07 177.94 326.75 187.81 C 326.36 201.49 322.32 214.74 317.60 227.48 C 316.90 229.18 318.42 230.70 318.87 232.27 C 322.98 241.83 318.17 253.54 309.20 258.40 C 305.25 259.98 301.14 261.21 296.89 261.58 C 292.05 273.08 283.83 283.31 273.23 289.97 C 271.56 290.67 272.29 292.64 272.12 294.03 C 272.17 302.23 272.12 310.43 272.10 318.64 C 282.28 317.31 291.93 313.21 300.55 307.73 C 315.27 298.40 328.18 286.61 340.98 274.86 C 339.76 273.07 335.92 271.29 337.86 268.79 C 343.35 262.32 349.12 256.08 354.82 249.80 C 357.48 246.98 359.68 243.55 362.94 241.42 C 364.92 242.02 366.34 243.62 367.93 244.87 C 372.07 239.00 376.16 233.09 380.16 227.11 C 383.59 221.87 388.08 216.64 388.12 210.02 C 388.66 193.59 391.52 177.36 393.71 161.10 C 397.33 139.25 399.28 117.16 400.34 95.05 C 397.73 94.06 395.07 92.97 393.03 91.01 C 389.70 87.81 387.98 83.41 385.16 79.82 C 382.52 76.37 377.76 75.30 375.40 71.57 C 373.78 68.95 372.84 65.40 374.77 62.66 C 377.18 59.67 381.39 59.43 384.94 59.23 C 384.92 52.80 384.39 46.37 384.43 39.94 C 384.48 36.32 385.98 32.17 389.55 30.67 C 393.66 29.59 397.85 31.01 401.96 31.49 C 409.43 31.96 416.69 33.89 424.04 35.22 C 428.15 35.78 432.06 38.70 432.85 42.93 C 434.67 50.82 434.49 59.00 435.20 67.03 C 435.96 76.76 433.61 86.29 432.88 95.93 C 434.46 119.92 436.01 143.96 435.75 168.02 C 435.10 186.08 434.85 204.38 430.83 222.08 C 424.77 241.96 414.64 260.30 404.22 278.18 C 406.43 280.16 408.60 282.20 410.79 284.21 C 409.92 287.22 407.70 289.51 405.90 291.98 C 400.29 299.38 394.54 306.68 389.17 314.26 C 388.13 314.47 387.11 314.73 386.10 315.03 C 369.92 334.85 351.75 353.02 332.39 369.74 C 332.41 400.17 332.49 430.60 331.75 461.02 C 331.19 472.45 331.77 483.94 330.51 495.32 C 275.04 500.20 219.12 501.35 163.62 496.24 C 164.12 454.14 166.33 412.09 169.46 370.11 C 151.10 353.62 133.69 336.09 117.02 317.88 C 115.33 318.53 112.93 320.89 111.64 318.48 C 105.91 311.48 100.08 304.55 94.31 297.59 C 92.49 295.41 90.30 293.47 89.06 290.88 C 90.02 287.11 94.32 285.53 95.96 282.17 C 85.99 263.90 75.44 245.68 69.21 225.70 C 66.10 216.14 65.69 206.00 65.13 196.04 C 63.18 162.99 65.92 129.92 69.12 97.04 C 69.47 93.68 68.67 90.36 68.28 87.05 C 66.16 73.80 67.37 60.33 68.75 47.08 C 69.27 44.10 69.43 40.78 71.56 38.43 C 74.04 35.25 78.32 34.63 82.04 34.04 C 87.69 33.20 93.23 31.58 98.97 31.33 Z" fill="#062e52" opacity="1.00" stroke="#062e52" stroke-width="0.25" data-index="1" style="opacity: 1;"></path>
<path d="M 391.34 34.43 C 393.46 34.79 395.58 35.19 397.71 35.58 C 395.10 39.50 394.76 44.25 394.45 48.81 C 392.80 48.60 390.42 49.28 389.72 47.24 C 388.63 42.99 387.80 37.80 391.34 34.43 Z" fill="#feab8d" opacity="1.00" stroke="#feab8d" stroke-width="0.25" data-index="2"></path>
<path d="M 104.06 35.50 C 106.84 35.27 111.11 33.07 112.69 36.48 C 114.13 40.10 113.38 44.31 112.02 47.86 C 110.81 48.86 109.09 48.27 107.65 48.44 C 107.63 44.39 107.18 40.33 105.53 36.59 C 105.16 36.32 104.43 35.77 104.06 35.50 Z" fill="#feab8d" opacity="1.00" stroke="#feab8d" stroke-width="0.25" data-index="3"></path>
<path d="M 90.25 36.66 C 94.13 36.60 99.78 34.67 101.94 39.17 C 103.56 43.04 102.59 47.44 102.53 51.52 C 100.59 52.23 98.55 52.56 96.50 52.70 C 95.77 46.93 94.77 40.80 90.25 36.66 Z" fill="#feab8d" opacity="1.00" stroke="#feab8d" stroke-width="0.25" data-index="4"></path>
<path d="M 400.87 38.99 C 403.19 35.00 408.37 36.78 412.00 37.38 C 408.12 41.17 406.70 46.59 406.37 51.84 C 404.81 53.91 402.33 52.65 400.26 52.42 C 399.36 48.05 398.75 43.09 400.87 38.99 Z" fill="#feab8d" opacity="1.00" stroke="#feab8d" stroke-width="0.25" data-index="5"></path>
<path d="M 73.53 45.00 C 74.24 37.62 86.13 36.27 89.28 42.67 C 91.65 47.42 91.16 53.27 89.23 58.10 C 88.24 58.29 87.26 58.47 86.27 58.65 C 83.59 54.42 83.00 49.47 82.15 44.66 C 80.69 44.36 78.28 45.01 78.57 46.90 C 78.88 51.84 80.17 56.92 82.93 61.07 C 84.70 63.69 88.14 62.36 90.71 62.24 C 94.47 63.77 98.55 64.06 102.55 64.30 C 97.62 66.44 92.99 69.35 89.03 72.98 C 87.37 74.51 88.60 76.65 89.72 78.05 C 93.76 74.63 97.92 71.29 102.75 69.05 C 109.21 65.81 116.68 61.40 124.03 64.60 C 124.60 70.64 118.19 72.30 114.61 75.61 C 110.38 80.13 108.53 87.06 102.45 89.70 C 98.81 91.84 93.94 89.18 90.64 91.73 C 90.56 92.40 90.40 93.73 90.32 94.39 C 92.42 94.66 94.51 94.91 96.61 95.18 C 97.11 112.83 97.69 130.50 99.56 148.07 C 101.52 167.37 104.66 186.57 105.26 205.99 C 105.40 210.91 104.93 216.14 107.41 220.61 C 113.06 230.95 120.47 240.26 126.55 250.30 C 117.95 259.45 109.38 268.65 100.45 277.48 C 99.50 278.64 98.13 277.22 97.75 276.27 C 88.35 259.63 79.31 242.62 73.38 224.39 C 70.63 216.19 70.29 207.49 69.71 198.94 C 68.75 174.26 68.90 149.51 71.22 124.91 C 71.81 116.73 72.54 108.56 73.35 100.41 C 74.38 90.86 71.26 81.51 71.54 71.97 C 71.75 62.96 72.33 53.94 73.53 45.00 Z" fill="#feab8d" opacity="1.00" stroke="#feab8d" stroke-width="0.25" data-index="6"></path>
<path d="M 416.53 39.76 C 419.48 38.74 422.84 39.21 425.65 40.48 C 427.82 41.51 428.80 43.96 429.18 46.20 C 430.71 60.83 431.87 75.72 428.94 90.26 C 427.82 97.16 429.03 104.11 429.40 111.01 C 430.61 130.96 431.73 150.94 431.30 170.94 C 430.43 184.65 430.24 198.41 428.39 212.04 C 427.08 221.29 423.75 230.10 420.04 238.63 C 414.50 251.17 407.89 263.19 401.17 275.12 C 391.08 266.15 380.94 257.22 371.03 248.05 C 375.56 241.26 380.51 234.75 384.87 227.84 C 387.98 222.88 392.01 218.02 392.29 211.90 C 393.30 191.69 396.70 171.71 399.60 151.71 C 402.41 133.10 403.86 114.30 404.57 95.51 C 407.19 95.30 412.84 95.90 411.28 91.66 C 407.02 90.80 402.31 91.82 398.42 89.42 C 393.30 86.84 391.79 80.83 388.17 76.80 C 385.51 73.68 381.39 72.26 378.84 69.05 C 378.19 67.68 378.43 66.08 378.26 64.62 C 381.17 64.04 384.21 63.27 387.13 64.23 C 395.98 66.80 404.27 71.39 411.01 77.69 C 413.68 78.57 414.40 76.00 413.33 74.03 C 409.62 69.92 404.76 67.01 399.76 64.74 C 403.31 64.64 406.91 64.43 410.27 63.18 C 413.08 61.77 416.79 65.03 419.05 62.06 C 422.63 57.46 423.81 51.29 423.66 45.55 C 422.70 45.56 420.77 45.56 419.81 45.56 C 419.73 50.57 418.25 55.39 415.82 59.75 C 414.07 58.62 412.14 57.35 411.72 55.14 C 410.94 49.73 411.25 42.86 416.53 39.76 Z" fill="#feab8d" opacity="1.00" stroke="#feab8d" stroke-width="0.25" data-index="7"></path>

<path d="M 283.25 48.19 C 285.01 48.62 286.77 49.10 288.52 49.61 C 288.54 52.09 288.58 54.62 287.75 57.00 C 283.01 71.72 278.57 86.53 274.19 101.36 C 272.03 102.66 269.63 101.94 267.39 101.31 C 266.90 95.77 269.48 90.71 270.85 85.50 C 273.10 77.55 275.46 69.63 278.07 61.80 C 279.68 57.22 280.37 52.23 283.25 48.19 Z" fill="#1dcbfa" opacity="1.00" stroke="#1dcbfa" stroke-width="0.25" data-index="9" style="visibility: hidden; opacity: 1;"></path>
<path d="M 106.79 52.81 C 108.98 53.09 111.18 52.94 113.31 52.37 C 113.06 54.76 112.96 57.18 112.45 59.53 C 109.73 61.03 106.75 61.96 103.87 63.08 C 103.79 62.45 103.64 61.17 103.56 60.53 C 100.43 59.97 97.30 59.51 94.14 59.20 C 94.19 58.18 94.24 57.17 94.29 56.15 C 98.68 57.33 104.53 57.67 106.79 52.81 Z" fill="#feab8d" opacity="1.00" stroke="#feab8d" stroke-width="0.25" data-index="10"></path>
<path d="M 389.20 52.48 C 391.38 53.40 393.74 53.55 396.09 53.38 C 396.25 53.87 396.58 54.85 396.75 55.33 C 399.92 57.51 404.03 58.26 407.56 56.41 C 408.01 57.43 408.47 58.46 408.92 59.49 C 405.56 60.21 402.13 60.54 398.71 60.89 C 398.64 61.60 398.49 63.02 398.42 63.73 C 395.56 62.27 392.57 61.07 389.50 60.15 C 389.38 57.59 389.29 55.04 389.20 52.48 Z" fill="#feab8d" opacity="1.00" stroke="#feab8d" stroke-width="0.25" data-index="11"></path>

<path d="M 326.19 82.15 C 328.23 80.31 330.95 81.92 332.68 83.39 C 332.62 85.64 331.83 87.74 330.17 89.30 C 322.77 97.47 315.31 105.57 307.74 113.57 C 305.88 115.36 304.24 118.53 301.16 117.71 C 298.31 117.80 298.30 114.54 298.20 112.49 C 307.63 102.48 316.67 92.07 326.19 82.15 Z" fill="#1dcbfa" opacity="1.00" stroke="#1dcbfa" stroke-width="0.25" data-index="13" style="visibility: hidden; opacity: 1;"></path>

<path d="M 125.36 98.68 C 126.97 97.87 128.48 95.90 130.46 96.57 C 132.19 97.73 133.37 99.51 134.57 101.17 C 138.36 106.75 142.32 112.20 146.39 117.58 C 147.54 119.21 149.15 120.89 148.54 123.08 C 148.44 124.94 146.14 125.54 145.05 126.76 C 141.03 124.96 139.07 120.90 136.55 117.58 C 133.26 112.85 129.51 108.44 126.40 103.59 C 125.39 102.16 125.58 100.33 125.36 98.68 Z" fill="#1dcbfa" opacity="1.00" stroke="#1dcbfa" stroke-width="0.25" data-index="15" style="visibility: hidden; opacity: 1;"></path>

<path d="M 368.51 128.64 C 372.14 126.54 375.75 123.33 380.27 124.39 C 380.76 126.01 381.26 127.64 381.75 129.27 C 375.99 133.82 369.39 137.14 363.27 141.18 C 355.46 145.43 348.04 150.40 340.13 154.48 C 338.95 153.99 337.76 153.50 336.58 153.03 C 336.53 150.92 335.58 148.13 337.95 146.92 C 348.07 140.75 358.37 134.81 368.51 128.64 Z" fill="#1dcbfa" opacity="1.00" stroke="#1dcbfa" stroke-width="0.25" data-index="17" style="visibility: hidden; opacity: 1;"></path>
<path d="M 206.70 139.58 C 218.00 134.01 230.12 128.83 243.00 129.47 C 251.78 129.66 260.12 133.06 267.66 137.33 C 271.69 139.56 274.97 142.85 278.75 145.44 C 286.20 142.20 294.59 140.53 302.60 142.55 C 307.77 143.85 312.66 146.93 315.34 151.64 C 320.71 160.03 322.08 170.22 322.41 179.98 C 322.99 195.29 319.39 210.50 313.75 224.63 C 310.56 222.82 307.17 221.43 303.69 220.31 C 303.40 206.24 300.81 192.03 294.43 179.40 C 293.15 179.51 291.88 179.63 290.62 179.75 L 290.64 178.17 C 287.83 181.17 285.12 184.38 281.44 186.34 C 281.08 186.16 280.36 185.80 280.00 185.62 C 280.79 185.23 282.35 184.45 283.14 184.06 C 281.13 179.30 275.50 178.69 271.05 177.85 C 260.78 175.93 250.22 175.90 239.90 177.45 C 229.04 178.76 218.99 183.46 209.36 188.39 C 201.36 192.49 191.72 193.77 183.16 190.72 C 173.27 187.71 165.54 179.15 162.91 169.23 C 159.71 157.56 159.42 145.01 162.34 133.25 C 167.24 140.38 174.92 146.56 183.96 146.54 C 192.12 146.99 199.71 143.36 206.70 139.58 Z" fill="#784c43" opacity="1.00" stroke="#784c43" stroke-width="0.25" data-index="18" style="opacity: 1;"></path>

<path d="M 357.48 172.27 C 360.80 171.99 364.00 170.97 367.28 170.41 C 368.03 171.37 368.80 172.33 369.58 173.29 C 369.42 175.14 369.10 177.38 367.08 178.13 C 361.10 180.45 354.79 181.79 348.70 183.81 C 345.79 184.88 342.68 184.75 339.67 184.31 C 339.69 182.54 339.30 180.69 339.84 178.98 C 342.59 176.22 346.79 176.16 350.29 174.92 C 353.05 174.34 355.99 172.58 358.78 173.97 C 358.38 173.38 357.92 172.82 357.48 172.27 Z" fill="#1dcbfa" opacity="1.00" stroke="#1dcbfa" stroke-width="0.25" data-index="20" style="visibility: hidden; opacity: 1;"></path>

<path d="M 281.44 186.34 C 285.12 184.38 287.83 181.17 290.64 178.17 L 290.62 179.75 C 290.61 180.30 290.59 181.40 290.58 181.95 C 295.28 190.18 297.28 199.58 298.43 208.90 C 300.49 226.61 299.28 245.25 292.03 261.73 C 286.38 274.19 276.28 285.20 263.19 289.85 C 249.04 295.41 232.20 292.89 220.01 283.91 C 211.57 277.79 205.40 268.97 201.30 259.47 C 193.50 239.78 192.77 218.23 193.57 197.33 C 198.25 196.61 203.06 196.16 207.46 194.25 C 214.00 191.41 220.19 187.77 226.93 185.39 C 236.52 182.00 246.77 180.39 256.93 180.81 C 264.73 181.51 273.10 181.34 280.00 185.62 C 280.36 185.80 281.08 186.16 281.44 186.34 Z" fill="#feab8d" opacity="1.00" stroke="#feab8d" stroke-width="0.25" data-index="22"></path>
<path d="M 173.39 191.25 C 178.49 194.01 184.00 195.81 189.57 197.35 C 188.79 205.23 188.13 213.20 189.46 221.07 C 186.71 221.91 183.98 222.80 181.27 223.76 C 177.86 213.15 173.52 202.57 173.39 191.25 Z" fill="#784c43" opacity="1.00" stroke="#784c43" stroke-width="0.25" data-index="23"></path>
<path d="M 261.59 195.52 C 263.76 193.36 266.97 195.15 269.41 195.81 C 276.71 198.49 284.50 200.05 291.33 203.88 C 291.35 206.74 291.06 210.42 287.95 211.62 C 285.44 211.72 283.12 210.65 280.79 209.89 C 274.12 207.48 267.38 205.25 260.60 203.15 C 259.68 200.63 259.49 197.53 261.59 195.52 Z" fill="#062e52" opacity="1.00" stroke="#062e52" stroke-width="0.25" data-index="24"></path>
<path d="M 205.62 202.34 C 212.70 199.67 219.88 197.27 226.99 194.70 C 232.17 193.28 234.95 202.53 229.75 204.12 C 221.86 207.19 213.73 209.65 205.75 212.51 C 203.23 211.35 200.88 208.94 201.56 205.92 C 201.44 203.70 204.07 203.12 205.62 202.34 Z" fill="#062e52" opacity="1.00" stroke="#062e52" stroke-width="0.25" data-index="25"></path>

<path d="M 341.96 212.00 C 339.33 210.94 340.78 207.69 340.57 205.56 C 346.82 204.66 352.99 206.42 358.80 208.56 C 358.43 210.60 359.25 213.30 357.19 214.64 C 352.03 215.06 346.71 214.02 341.96 212.00 Z" fill="#1dcbfa" opacity="1.00" stroke="#1dcbfa" stroke-width="0.25" data-index="27" style="visibility: hidden; opacity: 1;"></path>
<path d="M 242.59 212.30 C 244.42 213.13 246.16 214.24 246.97 216.18 C 249.69 221.43 253.09 226.88 252.74 233.03 C 252.86 234.72 251.55 236.18 249.94 236.46 C 246.92 236.88 243.61 236.59 241.12 234.70 C 239.76 234.08 239.81 230.21 241.89 230.77 C 244.15 231.21 246.33 231.95 248.54 232.56 C 247.73 227.30 245.35 222.55 242.97 217.87 C 241.89 216.16 242.31 214.16 242.59 212.30 Z" fill="#062e52" opacity="1.00" stroke="#062e52" stroke-width="0.25" data-index="28"></path>
<path d="M 265.74 216.00 C 267.33 214.85 268.87 213.16 271.02 213.38 C 275.50 212.82 278.75 218.20 277.02 222.12 C 276.35 224.94 273.20 225.56 270.92 226.57 C 267.80 225.60 265.45 223.32 264.67 220.10 C 265.04 218.73 265.40 217.37 265.74 216.00 Z" fill="#062e52" opacity="1.00" stroke="#062e52" stroke-width="0.25" data-index="29"></path>
<path d="M 215.79 221.08 C 214.72 216.35 220.22 211.89 224.53 214.35 C 228.38 215.72 228.76 220.31 227.57 223.67 C 226.42 224.62 225.29 225.58 224.17 226.54 C 220.47 227.14 216.21 225.14 215.79 221.08 Z" fill="#062e52" opacity="1.00" stroke="#062e52" stroke-width="0.25" data-index="30"></path>
<path d="M 178.05 235.90 C 179.55 230.79 184.20 226.77 189.48 226.02 C 190.51 236.86 192.50 247.60 195.83 257.97 C 190.30 257.51 184.46 255.58 181.00 250.99 C 177.42 246.92 176.51 241.00 178.05 235.90 Z" fill="#feab8d" opacity="1.00" stroke="#feab8d" stroke-width="0.25" data-index="31"></path>
<path d="M 299.06 256.75 C 301.81 246.44 303.75 235.87 303.81 225.18 C 309.20 226.06 313.76 230.20 315.34 235.40 C 316.48 240.67 315.57 246.69 311.65 250.64 C 308.43 254.25 303.72 255.95 299.06 256.75 Z" fill="#feab8d" opacity="1.00" stroke="#feab8d" stroke-width="0.25" data-index="32"></path>
<path d="M 221.53 241.45 C 233.36 241.07 245.19 242.15 257.03 241.86 C 262.57 241.90 268.15 241.49 273.64 242.42 C 273.91 251.69 273.67 261.59 268.79 269.79 C 264.26 277.72 255.10 282.59 246.03 282.32 C 237.08 281.89 229.13 275.75 225.31 267.84 C 221.54 259.61 221.17 250.35 221.53 241.45 Z" fill="#062e52" opacity="1.00" stroke="#062e52" stroke-width="0.25" data-index="33"></path>
<path d="M 225.67 245.47 C 240.29 246.52 254.95 246.56 269.60 246.40 C 269.50 247.97 269.41 249.54 269.33 251.11 C 254.77 251.65 240.16 251.48 225.70 249.67 C 225.69 248.62 225.68 246.52 225.67 245.47 Z" fill="#ffffff" opacity="1.00" stroke="#ffffff" stroke-width="0.25" data-index="34"></path>
<path d="M 342.11 270.12 C 349.21 262.55 356.07 254.76 362.99 247.06 C 365.67 247.96 367.32 250.77 369.50 252.53 C 379.10 260.90 388.36 269.66 397.91 278.11 C 400.29 280.43 403.03 282.44 405.03 285.14 C 404.29 287.44 402.44 289.17 401.07 291.13 C 396.24 297.19 391.71 303.48 387.01 309.66 C 372.11 296.40 357.21 283.14 342.11 270.12 Z" fill="#7fe5fe" opacity="1.00" stroke="#7fe5fe" stroke-width="0.25" data-index="35" style="opacity: 1;"></path>
<path d="M 94.02 290.88 C 106.75 276.85 120.35 263.63 133.20 249.70 C 140.62 256.86 147.48 264.59 154.71 271.95 C 141.06 285.99 127.30 299.94 113.87 314.21 C 107.25 306.43 100.87 298.46 94.02 290.88 Z" fill="#7fe5fe" opacity="1.00" stroke="#7fe5fe" stroke-width="0.25" data-index="36" style="opacity: 1;"></path>
<path d="M 226.20 254.35 C 230.16 254.38 234.09 254.89 238.02 255.34 C 248.24 256.01 258.48 255.55 268.70 255.51 C 268.23 261.93 265.69 268.39 260.66 272.60 C 255.18 277.72 246.61 279.29 239.73 276.28 C 231.42 272.36 226.68 263.28 226.20 254.35 Z" fill="#f2532e" opacity="1.00" stroke="#f2532e" stroke-width="0.25" data-index="37"></path>
<path d="M 295.61 315.66 C 313.82 305.97 328.75 291.46 344.14 278.00 C 346.67 279.30 348.60 281.46 350.76 283.26 C 361.50 292.89 372.47 302.25 383.10 312.00 C 367.63 330.67 350.70 348.11 332.42 364.03 C 331.80 358.64 333.17 352.94 331.14 347.79 C 329.46 347.07 327.48 347.91 327.65 349.93 C 328.09 397.05 328.02 444.20 326.52 491.31 C 297.95 493.22 269.33 495.19 240.68 494.84 C 241.34 442.74 242.66 390.66 243.73 338.57 C 251.63 339.92 260.72 339.63 267.08 334.12 C 270.41 331.43 271.51 327.13 272.23 323.12 C 280.38 322.04 288.38 319.61 295.61 315.66 Z" fill="#7fe5fe" opacity="1.00" stroke="#7fe5fe" stroke-width="0.25" data-index="38" style="opacity: 1;"></path>

<path d="M 119.89 314.09 C 131.46 302.20 142.75 290.02 154.62 278.43 C 162.96 286.42 171.73 293.96 180.67 301.26 C 194.00 311.74 209.29 320.98 226.52 322.62 C 227.26 325.55 227.83 328.70 229.87 331.07 C 232.30 334.20 235.96 335.90 239.50 337.46 C 238.22 390.05 236.93 442.64 236.30 495.25 C 222.20 494.51 208.05 494.83 193.96 493.76 C 185.34 493.65 176.78 492.70 168.17 492.35 C 168.69 456.87 170.40 421.41 172.85 386.01 C 173.69 374.23 175.03 362.48 175.61 350.69 C 174.28 350.61 172.95 350.54 171.62 350.48 C 170.81 355.18 170.64 359.95 170.17 364.69 C 154.54 350.81 139.57 336.10 125.51 320.61 C 123.61 318.47 121.15 316.72 119.89 314.09 Z" fill="#7fe5fe" opacity="1.00" stroke="#7fe5fe" stroke-width="0.25" data-index="40"></path>
<path d="M 230.86 294.40 C 242.78 298.78 256.10 297.98 267.69 292.97 C 267.82 301.99 267.76 311.00 267.75 320.02 C 267.71 323.69 267.46 327.88 264.57 330.53 C 260.75 334.25 255.06 334.77 250.00 334.66 C 244.51 334.45 238.69 333.27 234.38 329.65 C 231.30 327.08 231.12 322.74 230.88 319.05 C 230.80 310.83 230.70 302.61 230.86 294.40 Z" fill="#feab8d" opacity="1.00" stroke="#feab8d" stroke-width="0.25" data-index="41"></path>

<path d="M 76.02 335.03 C 82.56 333.54 88.87 331.05 95.54 330.20 C 96.23 330.97 96.93 331.75 97.64 332.52 C 97.78 334.69 97.40 336.81 95.60 338.23 C 85.25 340.36 75.26 344.13 64.79 345.75 C 64.00 344.99 63.21 344.23 62.42 343.48 C 62.75 341.77 61.96 339.11 64.15 338.42 C 67.97 336.86 72.07 336.19 76.02 335.03 Z" fill="#1dcbfa" opacity="1.00" stroke="#1dcbfa" stroke-width="0.25" data-index="43" style="visibility: hidden; opacity: 1;"></path>
<path d="M 252.10 350.80 C 248.59 349.43 248.62 343.60 252.11 342.25 C 254.27 340.86 256.64 342.54 258.18 344.07 C 259.08 346.22 258.17 348.43 257.42 350.47 C 255.68 350.68 253.77 351.77 252.10 350.80 Z" fill="#062e52" opacity="1.00" stroke="#062e52" stroke-width="0.25" data-index="44"></path>

<path d="M 116.08 355.33 C 118.70 354.27 121.55 354.31 124.32 354.61 C 124.37 356.75 124.38 358.90 124.36 361.05 C 115.60 363.96 106.78 366.70 97.85 369.07 C 95.87 369.56 93.75 370.07 91.73 369.45 C 89.37 367.67 89.70 362.84 93.02 362.34 C 100.55 359.55 108.48 357.95 116.08 355.33 Z" fill="#1dcbfa" opacity="1.00" stroke="#1dcbfa" stroke-width="0.25" data-index="46" style="visibility: hidden; opacity: 1;"></path>
<path d="M 249.05 367.81 C 250.81 365.67 253.88 362.94 256.59 365.34 C 258.90 366.63 258.60 369.35 258.65 371.60 C 257.01 372.88 255.16 374.38 252.91 373.76 C 249.94 373.58 249.49 370.10 249.05 367.81 Z" fill="#062e52" opacity="1.00" stroke="#062e52" stroke-width="0.25" data-index="47"></path>

<path d="M 121.44 407.30 C 128.07 400.98 134.52 394.45 141.41 388.40 C 142.83 388.98 144.24 389.56 145.65 390.16 C 145.67 391.83 145.68 393.52 145.67 395.20 C 139.06 401.08 132.83 407.36 126.34 413.37 C 124.73 415.06 121.94 414.30 120.66 412.61 C 120.01 410.88 119.83 408.56 121.44 407.30 Z" fill="#1dcbfa" opacity="1.00" stroke="#1dcbfa" stroke-width="0.25" data-index="49" style="opacity: 1; visibility: hidden;"></path>
<path d="M 249.30 415.76 C 251.55 412.25 256.41 412.41 258.78 415.69 C 258.49 417.78 258.78 420.38 256.61 421.57 C 254.38 423.84 251.43 421.73 249.56 420.10 C 249.48 418.65 249.39 417.20 249.30 415.76 Z" fill="#062e52" opacity="1.00" stroke="#062e52" stroke-width="0.25" data-index="50"></path>
<path d="M 251.47 444.37 C 255.23 441.10 260.83 447.07 257.99 450.89 C 255.87 454.07 251.16 453.03 249.25 450.18 C 249.49 448.07 249.32 445.54 251.47 444.37 Z" fill="#062e52" opacity="1.00" stroke="#062e52" stroke-width="0.25" data-index="51"></path>
<path d="M 251.37 473.43 C 253.98 471.05 257.09 473.60 258.80 475.75 C 258.87 478.63 257.38 482.37 253.86 481.78 C 249.41 482.24 247.81 475.66 251.37 473.43 Z" fill="#062e52" opacity="1.00" stroke="#062e52" stroke-width="0.25" data-index="52"></path>
</svg>