<svg xmlns="http://www.w3.org/2000/svg" height="512pt" version="1.1" viewBox="0 0 512 512" width="512pt">
<path d="M 0.00 0.00 L 512.00 0.00 L 512.00 512.00 L 0.00 512.00 L 0.00 0.00 Z" fill="transparent" opacity="1.00" stroke="transparent" stroke-width="0.25" data-index="0" style="opacity: 1;"></path>
<path d="M 369.78 163.73 C 371.57 163.23 373.32 162.36 375.22 162.45 C 377.82 163.93 379.69 166.31 381.74 168.44 C 383.84 168.34 385.95 168.27 388.06 168.22 C 390.15 165.73 392.25 161.91 396.12 162.64 C 400.29 163.03 400.32 168.06 400.53 171.23 C 404.92 172.91 409.39 174.85 412.64 178.37 C 414.90 180.57 415.46 183.99 417.97 186.00 C 421.01 188.58 424.43 190.69 427.67 193.02 C 427.62 196.62 424.29 198.29 421.17 198.65 C 420.22 201.54 417.30 202.47 414.78 203.55 C 415.32 206.28 415.61 209.11 414.71 211.80 C 409.82 212.36 405.66 209.49 401.30 207.83 C 396.77 205.98 391.93 204.98 387.07 204.57 C 386.11 209.41 383.16 213.88 383.62 218.95 C 384.28 230.09 381.13 240.99 377.49 251.40 C 382.99 258.31 388.77 265.03 393.66 272.42 C 398.75 279.55 403.18 287.28 409.51 293.44 C 416.23 298.38 424.58 300.28 431.95 304.02 C 427.72 311.63 418.33 314.97 409.99 314.69 C 407.35 314.44 403.83 315.35 402.21 312.60 C 397.17 305.04 392.80 296.99 387.33 289.70 C 382.79 283.79 376.45 279.76 370.24 275.83 C 365.14 272.21 359.23 269.70 354.81 265.18 C 351.00 261.40 349.00 256.27 347.50 251.23 C 343.56 252.61 339.48 253.54 335.41 254.45 C 334.91 264.61 334.70 274.81 333.45 284.91 C 333.15 289.17 329.31 291.67 326.42 294.26 C 317.56 301.12 309.90 309.48 303.72 318.82 C 301.59 321.68 299.77 324.81 299.01 328.34 C 341.36 328.68 383.74 328.39 426.05 330.60 C 429.36 330.73 432.65 331.29 435.88 332.05 C 424.41 334.45 412.59 334.25 400.95 335.25 C 352.35 337.43 303.70 338.15 255.06 338.79 C 221.73 339.24 188.37 339.42 155.04 338.59 C 132.69 338.41 110.34 337.61 88.03 336.28 C 82.35 335.62 76.50 335.69 71.04 333.81 C 79.55 331.86 88.34 331.62 97.03 331.20 C 106.00 330.45 115.01 330.48 124.00 330.15 C 134.23 329.72 144.47 329.38 154.72 329.45 C 158.59 318.96 155.32 307.74 155.05 296.95 C 152.29 301.20 149.44 305.40 146.54 309.56 C 143.30 314.13 141.63 319.87 137.17 323.52 C 133.92 322.57 130.83 321.17 128.08 319.20 C 129.10 314.56 131.18 310.29 133.06 305.97 C 136.47 298.82 139.52 291.50 143.25 284.50 C 145.77 279.78 147.64 274.35 151.86 270.83 C 161.05 264.89 172.09 262.81 181.46 257.20 C 182.89 256.42 183.93 255.12 184.40 253.56 C 187.44 244.80 189.08 235.63 190.55 226.50 C 178.16 239.04 164.86 250.86 149.55 259.74 C 135.85 267.91 120.13 273.93 103.93 272.72 C 93.05 272.13 81.84 267.87 74.92 259.15 C 68.04 250.67 65.16 238.24 69.90 228.06 C 71.42 224.21 74.18 220.60 78.19 219.17 C 83.38 216.84 90.32 220.31 91.33 225.94 C 92.17 230.22 88.25 233.09 86.79 236.70 C 84.20 241.97 86.51 248.66 91.19 251.91 C 97.22 256.14 104.69 258.11 112.02 257.90 C 123.53 258.03 134.36 253.01 143.83 246.87 C 157.70 238.04 169.46 226.45 181.53 215.40 C 186.83 210.99 192.50 207.06 197.95 202.84 C 202.70 199.08 208.09 195.95 214.04 194.58 C 223.82 192.06 233.95 193.85 243.82 194.65 C 260.46 196.58 277.26 197.26 294.00 196.30 C 301.27 195.63 308.59 194.24 315.20 191.00 C 320.57 188.67 324.91 184.59 330.15 182.02 C 335.75 179.38 342.06 179.80 348.04 178.87 C 355.08 177.92 361.80 175.50 368.45 173.09 C 367.66 169.86 367.82 166.53 369.78 163.73 Z" fill="#043155" opacity="1.00" stroke="#043155" stroke-width="0.25" data-index="1" style="opacity: 1;"></path>
<path d="M 371.38 166.49 C 372.97 166.42 374.56 166.35 376.17 166.30 C 376.30 166.69 376.57 167.47 376.70 167.86 C 379.01 170.13 381.32 172.42 383.75 174.57 C 384.86 174.50 385.97 174.43 387.09 174.35 C 386.25 173.38 385.41 172.40 384.58 171.43 C 390.29 171.33 395.87 172.74 401.23 174.61 C 405.16 176.90 409.91 178.81 411.91 183.22 C 413.13 185.91 415.03 188.19 417.56 189.74 C 419.35 193.33 419.08 197.61 416.39 200.68 C 411.59 200.20 407.89 197.11 404.38 194.11 C 404.41 191.97 404.47 189.82 404.39 187.68 C 402.34 189.90 400.40 192.98 401.92 196.05 C 404.58 200.83 407.84 205.44 412.29 208.72 C 408.81 207.59 405.36 206.33 402.09 204.68 C 396.44 203.17 390.59 200.90 384.68 202.32 C 383.36 206.66 381.82 210.93 380.25 215.19 C 375.90 224.28 371.18 233.76 362.76 239.77 C 356.98 243.53 350.66 246.53 344.05 248.51 L 344.62 249.03 C 342.71 249.32 340.81 249.71 338.95 250.21 C 337.99 250.33 337.04 250.45 336.10 250.58 C 338.23 245.77 340.09 240.86 341.84 235.90 C 342.58 233.42 343.28 230.94 343.92 228.43 C 343.44 228.53 342.49 228.73 342.02 228.83 C 341.42 230.28 340.79 231.70 340.19 233.15 C 337.73 239.09 334.49 244.73 332.68 250.92 C 330.93 259.49 331.88 268.31 330.82 276.97 C 330.32 281.19 331.51 286.68 327.35 289.41 C 316.06 297.73 306.05 308.29 292.77 313.49 C 292.28 313.14 291.32 312.43 290.84 312.08 C 290.70 311.54 290.42 310.45 290.28 309.90 C 296.51 305.71 302.76 301.44 307.98 296.00 C 310.92 292.94 314.31 290.08 316.14 286.17 C 317.12 283.23 316.56 280.06 315.99 277.09 C 314.58 272.74 313.41 268.33 312.19 263.93 C 310.40 256.16 307.26 248.57 307.34 240.49 C 318.44 230.94 330.92 222.70 339.81 210.87 C 340.90 209.49 341.30 207.72 341.84 206.09 C 339.34 206.41 337.61 208.21 336.17 210.08 C 327.30 221.32 315.13 229.21 304.60 238.70 C 303.52 242.85 304.51 247.22 304.83 251.44 C 303.05 251.16 301.30 250.82 299.52 250.57 C 299.42 249.99 299.32 249.41 299.22 248.84 C 287.58 248.82 276.22 245.68 265.49 241.39 C 256.80 237.93 247.13 236.34 237.95 238.77 C 236.46 239.48 234.96 240.17 233.46 240.87 C 234.87 235.77 236.67 230.48 235.25 225.17 C 233.53 229.04 232.19 233.07 231.22 237.19 C 228.26 247.04 224.50 256.82 218.15 265.03 C 208.56 277.95 193.89 285.91 178.81 290.68 C 175.58 292.70 172.18 294.90 170.44 298.43 C 168.43 302.58 168.36 307.30 167.73 311.78 C 167.38 317.81 166.46 323.78 166.30 329.82 C 164.34 329.73 162.38 329.62 160.43 329.52 C 160.79 316.34 159.10 303.22 157.65 290.15 C 161.69 287.85 165.30 284.89 168.60 281.63 C 176.01 274.92 182.32 266.86 186.35 257.67 C 188.58 252.99 189.67 247.90 191.19 242.98 C 192.14 237.69 193.16 232.42 194.13 227.14 C 194.85 222.91 196.50 218.88 196.79 214.57 C 195.81 214.64 194.84 214.71 193.87 214.78 C 193.57 215.87 193.28 216.96 192.98 218.06 C 192.38 222.49 187.86 224.13 185.14 227.07 C 182.81 229.34 181.32 233.05 177.49 232.92 C 177.92 229.33 178.50 225.75 178.47 222.13 C 181.00 219.45 184.40 218.14 188.08 218.31 C 188.66 217.49 189.24 216.67 189.82 215.86 C 189.27 215.25 188.72 214.63 188.18 214.02 C 196.57 209.55 202.88 201.67 212.12 198.73 C 220.86 196.22 230.07 197.47 239.00 197.77 C 241.47 199.25 244.04 200.83 246.91 201.29 C 248.52 200.55 249.93 199.02 251.87 199.32 C 257.21 199.45 262.49 200.38 267.83 200.51 C 268.14 201.54 268.45 202.57 268.76 203.60 C 271.04 203.63 273.33 203.58 275.63 203.51 C 275.65 202.78 275.70 201.33 275.73 200.61 C 279.76 200.52 283.80 200.53 287.84 200.47 C 287.73 201.81 287.64 203.15 287.56 204.50 C 290.38 204.67 293.21 204.71 296.04 204.58 C 295.49 203.10 295.09 201.45 293.72 200.47 C 300.95 199.19 308.41 198.47 315.17 195.36 C 320.35 192.63 325.10 189.19 330.07 186.10 C 335.43 182.77 341.95 183.85 347.88 182.69 C 352.74 182.10 357.42 180.63 362.09 179.23 C 363.35 178.70 364.61 178.19 365.87 177.68 C 367.50 177.12 369.13 176.56 370.78 176.08 C 372.01 177.55 373.02 179.49 375.00 180.08 C 377.55 181.10 380.08 179.67 382.40 178.69 C 375.68 179.28 370.49 172.93 371.38 166.49 Z" fill="#feb01c" opacity="1.00" stroke="#feb01c" stroke-width="0.25" data-index="2"></path>
<path d="M 373.20 169.16 C 373.97 169.22 375.52 169.34 376.30 169.41 C 378.23 171.56 379.81 174.07 379.79 177.09 C 375.73 176.46 374.13 172.65 373.20 169.16 Z" fill="#043155" opacity="1.00" stroke="#043155" stroke-width="0.25" data-index="3"></path>
<path d="M 400.28 178.09 C 401.51 178.32 402.76 178.56 404.01 178.78 C 406.88 179.93 409.34 181.85 410.32 184.89 C 409.18 184.68 408.04 184.46 406.90 184.25 C 404.68 183.35 402.55 182.28 400.42 181.20 C 400.36 180.16 400.31 179.13 400.28 178.09 Z" fill="#043155" opacity="1.00" stroke="#043155" stroke-width="0.25" data-index="4"></path>
<path d="M 349.30 189.33 C 349.72 187.30 349.90 184.87 351.84 183.63 C 353.08 183.97 354.32 184.33 355.56 184.72 C 355.62 185.86 355.69 187.00 355.76 188.15 C 355.09 188.46 353.77 189.09 353.11 189.41 C 352.15 189.39 350.25 189.35 349.30 189.33 Z" fill="#043155" opacity="1.00" stroke="#043155" stroke-width="0.25" data-index="5"></path>
<path d="M 360.26 188.81 C 360.73 187.36 361.21 185.91 361.70 184.47 C 362.80 184.52 365.02 184.62 366.12 184.67 C 365.48 185.92 364.79 187.15 364.06 188.35 C 362.81 188.64 361.52 188.68 360.26 188.81 Z" fill="#043155" opacity="1.00" stroke="#043155" stroke-width="0.25" data-index="6"></path>
<path d="M 124.04 187.95 C 127.54 186.58 131.36 187.20 135.02 187.10 C 152.94 187.38 170.86 187.64 188.76 188.23 C 188.74 188.58 188.70 189.28 188.68 189.63 C 171.46 189.56 154.24 189.51 137.04 188.85 C 132.71 188.68 128.26 189.20 124.04 187.95 Z" fill="#043155" opacity="1.00" stroke="#043155" stroke-width="0.25" data-index="7"></path>
<path d="M 330.76 191.32 C 332.68 189.75 334.10 186.27 337.10 187.23 C 339.79 187.29 340.63 190.21 340.88 192.40 C 337.47 192.73 333.88 193.07 330.76 191.32 Z" fill="#043155" opacity="1.00" stroke="#043155" stroke-width="0.25" data-index="8"></path>
<path d="M 380.50 191.49 C 383.17 188.41 383.21 194.98 380.38 193.10 C 380.41 192.70 380.47 191.89 380.50 191.49 Z" fill="#043155" opacity="1.00" stroke="#043155" stroke-width="0.25" data-index="9"></path>
<path d="M 363.48 193.61 C 365.11 193.16 366.73 192.71 368.39 192.35 C 367.73 193.77 367.05 195.18 366.33 196.58 C 365.25 196.65 364.17 196.72 363.09 196.80 C 363.22 195.73 363.35 194.67 363.48 193.61 Z" fill="#043155" opacity="1.00" stroke="#043155" stroke-width="0.25" data-index="10"></path>
<path d="M 321.77 194.31 C 324.51 194.63 328.67 195.68 327.70 199.38 C 325.65 201.50 322.60 200.08 320.20 199.49 C 320.70 197.75 321.24 196.03 321.77 194.31 Z" fill="#043155" opacity="1.00" stroke="#043155" stroke-width="0.25" data-index="11"></path>
<path d="M 347.36 199.20 C 346.64 196.83 348.78 195.46 350.10 193.91 C 351.56 195.93 352.69 198.19 352.88 200.72 C 350.97 200.57 348.76 200.81 347.36 199.20 Z" fill="#043155" opacity="1.00" stroke="#043155" stroke-width="0.25" data-index="12"></path>
<path d="M 94.39 196.92 C 100.25 196.32 106.15 196.77 112.03 196.58 C 130.71 196.52 149.39 196.44 168.06 196.53 L 168.03 197.78 C 147.72 198.66 127.37 198.50 107.04 198.44 C 102.82 198.19 98.23 199.14 94.39 196.92 Z" fill="#043155" opacity="1.00" stroke="#043155" stroke-width="0.25" data-index="13"></path>
<path d="M 334.21 199.53 C 336.27 198.38 338.60 198.15 340.92 198.13 C 340.74 199.13 340.55 200.12 340.37 201.12 C 339.78 201.44 338.60 202.09 338.01 202.41 C 337.20 202.39 335.59 202.37 334.78 202.35 C 334.63 201.65 334.35 200.23 334.21 199.53 Z" fill="#043155" opacity="1.00" stroke="#043155" stroke-width="0.25" data-index="14"></path>
<path d="M 225.98 199.58 C 228.20 199.46 230.42 199.47 232.64 199.54 C 232.65 200.37 232.66 201.19 232.66 202.02 C 231.22 203.12 229.81 204.25 228.42 205.40 C 227.99 205.41 227.12 205.41 226.69 205.41 C 225.97 204.80 225.25 204.20 224.54 203.60 C 224.58 203.21 224.67 202.42 224.72 202.03 C 225.04 201.42 225.67 200.19 225.98 199.58 Z" fill="#043155" opacity="1.00" stroke="#043155" stroke-width="0.25" data-index="15"></path>
<path d="M 308.22 200.55 C 310.24 200.46 312.26 200.44 314.29 200.48 C 314.36 201.41 314.44 202.33 314.52 203.26 C 313.67 204.46 312.83 205.67 311.99 206.87 C 310.52 204.90 309.16 202.83 308.22 200.55 Z" fill="#043155" opacity="1.00" stroke="#043155" stroke-width="0.25" data-index="16"></path>
<path d="M 373.24 200.55 C 375.45 199.17 375.70 203.66 373.66 203.83 C 372.03 203.72 372.22 201.31 373.24 200.55 Z" fill="#043155" opacity="1.00" stroke="#043155" stroke-width="0.25" data-index="17"></path>
<path d="M 212.87 202.55 C 213.68 202.54 214.50 202.53 215.32 202.52 C 216.07 203.22 216.84 203.92 217.61 204.62 C 217.48 205.47 217.35 206.33 217.23 207.19 C 215.35 207.64 213.46 208.09 211.58 208.50 C 211.54 207.62 211.48 205.85 211.45 204.97 C 211.81 204.36 212.51 203.15 212.87 202.55 Z" fill="#043155" opacity="1.00" stroke="#043155" stroke-width="0.25" data-index="18"></path>
<path d="M 255.02 204.82 C 256.28 204.29 257.63 204.04 258.96 203.71 C 259.28 204.27 259.92 205.40 260.24 205.96 C 260.61 206.62 260.98 207.29 261.35 207.95 C 260.52 208.74 259.70 209.54 258.88 210.34 C 257.07 210.35 255.27 210.32 253.47 210.28 C 253.61 208.40 252.80 205.77 255.02 204.82 Z" fill="#043155" opacity="1.00" stroke="#043155" stroke-width="0.25" data-index="19"></path>
<path d="M 367.69 203.67 C 368.25 203.60 369.37 203.46 369.92 203.39 C 369.78 204.68 369.64 205.97 369.50 207.27 C 369.01 207.33 368.04 207.46 367.55 207.53 C 367.59 206.24 367.64 204.95 367.69 203.67 Z" fill="#043155" opacity="1.00" stroke="#043155" stroke-width="0.25" data-index="20"></path>
<path d="M 244.82 204.84 C 245.79 204.66 246.77 204.49 247.76 204.32 C 247.64 206.16 247.53 208.00 247.39 209.84 C 246.44 209.00 245.49 208.14 244.55 207.30 C 244.63 206.47 244.72 205.65 244.82 204.84 Z" fill="#043155" opacity="1.00" stroke="#043155" stroke-width="0.25" data-index="21"></path>
<path d="M 357.69 203.56 C 359.49 203.53 361.29 203.54 363.09 203.59 C 362.11 206.24 359.51 206.59 357.08 206.76 C 357.23 205.96 357.54 204.36 357.69 203.56 Z" fill="#043155" opacity="1.00" stroke="#043155" stroke-width="0.25" data-index="22"></path>
<path d="M 117.29 206.03 C 120.81 205.14 124.46 205.47 128.05 205.60 C 132.52 205.83 137.07 205.71 141.44 206.88 C 138.06 207.95 134.47 207.29 131.00 207.38 C 126.42 207.15 121.65 207.73 117.29 206.03 Z" fill="#043155" opacity="1.00" stroke="#043155" stroke-width="0.25" data-index="23"></path>
<path d="M 323.50 205.56 C 325.35 205.47 327.20 205.42 329.05 205.42 C 327.80 207.52 326.68 210.20 323.68 209.63 C 323.60 208.27 323.55 206.91 323.50 205.56 Z" fill="#043155" opacity="1.00" stroke="#043155" stroke-width="0.25" data-index="24"></path>
<path d="M 202.56 207.48 C 203.98 207.09 205.54 206.29 206.65 207.77 C 206.80 209.26 206.68 210.76 206.64 212.26 C 205.22 212.85 203.78 213.41 202.32 213.93 C 202.37 211.78 202.48 209.63 202.56 207.48 Z" fill="#043155" opacity="1.00" stroke="#043155" stroke-width="0.25" data-index="25"></path>
<path d="M 301.78 207.43 C 302.56 207.46 303.35 207.50 304.13 207.56 C 305.08 209.71 305.70 211.99 305.74 214.36 C 303.23 214.54 300.71 214.61 298.20 214.57 C 299.36 212.17 300.55 209.79 301.78 207.43 Z" fill="#043155" opacity="1.00" stroke="#043155" stroke-width="0.25" data-index="26"></path>
<path d="M 268.46 208.64 C 271.45 208.22 274.48 208.23 277.50 208.38 C 277.49 209.36 277.48 210.34 277.47 211.33 C 274.96 212.24 272.33 212.70 269.67 212.73 C 269.22 211.38 268.81 210.02 268.46 208.64 Z" fill="#043155" opacity="1.00" stroke="#043155" stroke-width="0.25" data-index="27"></path>
<path d="M 285.72 210.86 C 288.24 210.33 290.77 209.68 293.37 209.83 C 293.56 211.84 291.98 213.36 290.46 214.40 C 288.71 215.30 287.00 213.95 285.40 213.36 C 285.51 212.52 285.61 211.69 285.72 210.86 Z" fill="#043155" opacity="1.00" stroke="#043155" stroke-width="0.25" data-index="28"></path>
<path d="M 229.74 210.75 C 231.78 210.48 233.82 210.24 235.87 210.06 C 236.06 213.01 234.46 215.00 231.83 216.05 C 230.99 215.12 230.16 214.21 229.33 213.30 C 229.46 212.45 229.60 211.60 229.74 210.75 Z" fill="#043155" opacity="1.00" stroke="#043155" stroke-width="0.25" data-index="29"></path>
<path d="M 317.32 210.51 C 318.50 210.47 319.68 210.43 320.86 210.40 C 320.74 211.65 320.63 212.91 320.52 214.17 C 319.49 214.72 318.47 215.29 317.45 215.85 C 317.38 214.07 317.34 212.29 317.32 210.51 Z" fill="#043155" opacity="1.00" stroke="#043155" stroke-width="0.25" data-index="30"></path>
<path d="M 342.55 212.04 C 343.47 212.78 344.45 213.44 345.55 213.91 C 345.49 215.28 345.44 216.66 345.39 218.03 C 344.66 218.55 343.20 219.57 342.47 220.08 C 342.34 217.40 342.36 214.71 342.55 212.04 Z" fill="#043155" opacity="1.00" stroke="#043155" stroke-width="0.25" data-index="31"></path>
<path d="M 220.25 217.87 C 220.10 215.62 220.47 213.42 222.03 211.68 C 222.74 213.12 223.44 214.59 224.10 216.06 C 223.14 216.51 221.22 217.42 220.25 217.87 Z" fill="#043155" opacity="1.00" stroke="#043155" stroke-width="0.25" data-index="32"></path>
<path d="M 210.89 216.00 C 211.16 215.50 211.69 214.50 211.95 214.00 C 213.51 215.51 215.05 217.02 216.52 218.61 C 216.22 219.34 215.61 220.80 215.30 221.52 C 213.02 222.18 210.66 222.54 208.30 222.76 C 209.20 220.52 210.10 218.28 210.89 216.00 Z" fill="#043155" opacity="1.00" stroke="#043155" stroke-width="0.25" data-index="33"></path>
<path d="M 253.87 220.38 C 254.78 218.61 255.76 216.88 256.76 215.15 C 258.71 215.61 260.65 216.14 262.58 216.71 C 262.55 218.27 262.51 219.82 262.47 221.38 C 259.55 221.75 256.51 221.92 253.87 220.38 Z" fill="#043155" opacity="1.00" stroke="#043155" stroke-width="0.25" data-index="34"></path>
<path d="M 310.79 217.57 C 311.32 217.56 312.39 217.56 312.92 217.55 C 312.09 219.24 311.23 220.91 310.36 222.58 C 309.38 222.54 308.41 222.51 307.45 222.49 C 307.46 222.00 307.48 221.01 307.49 220.52 C 308.59 219.54 309.69 218.55 310.79 217.57 Z" fill="#043155" opacity="1.00" stroke="#043155" stroke-width="0.25" data-index="35"></path>
<path d="M 292.49 220.38 C 294.33 219.61 295.87 221.14 297.33 222.01 C 295.07 223.32 292.61 224.23 290.04 224.63 C 290.63 223.11 290.31 220.55 292.49 220.38 Z" fill="#043155" opacity="1.00" stroke="#043155" stroke-width="0.25" data-index="36"></path>
<path d="M 274.03 220.24 C 277.02 219.91 279.62 221.27 281.95 222.96 C 280.86 225.63 278.68 227.16 275.74 226.85 C 274.89 224.73 274.24 222.52 274.03 220.24 Z" fill="#043155" opacity="1.00" stroke="#043155" stroke-width="0.25" data-index="37"></path>
<path d="M 198.30 221.90 C 200.10 222.31 201.90 222.78 203.66 223.35 C 203.57 224.37 203.38 226.40 203.29 227.42 C 201.72 227.48 200.15 227.53 198.59 227.58 C 198.47 225.68 198.38 223.79 198.30 221.90 Z" fill="#043155" opacity="1.00" stroke="#043155" stroke-width="0.25" data-index="38"></path>
<path d="M 223.48 223.53 C 225.47 222.83 227.49 222.26 229.54 221.74 C 229.52 223.28 229.52 224.83 229.51 226.38 C 228.40 227.52 227.25 228.62 226.08 229.69 C 225.28 229.15 224.49 228.60 223.71 228.06 C 223.62 226.55 223.55 225.04 223.48 223.53 Z" fill="#043155" opacity="1.00" stroke="#043155" stroke-width="0.25" data-index="39"></path>
<path d="M 380.59 221.46 C 380.82 228.52 379.01 235.36 377.23 242.12 C 376.18 245.14 374.84 248.11 372.23 250.10 C 375.36 254.44 378.94 258.42 382.34 262.55 C 389.06 271.00 394.86 280.12 401.25 288.82 C 403.74 291.91 406.37 294.98 409.58 297.37 C 414.79 300.77 420.81 302.66 426.14 305.88 C 424.55 307.01 422.96 308.15 421.38 309.30 C 420.27 309.61 419.16 309.93 418.07 310.26 C 416.69 310.27 415.32 310.29 413.95 310.31 C 409.25 308.87 404.53 306.94 400.82 303.63 C 395.39 296.56 391.62 288.14 384.75 282.24 C 378.00 276.42 370.29 271.85 362.71 267.22 C 359.07 264.85 354.95 262.00 354.21 257.39 C 361.57 252.47 364.02 243.30 370.51 237.56 C 375.16 233.15 378.12 227.30 380.59 221.46 Z" fill="#feb01c" opacity="1.00" stroke="#feb01c" stroke-width="0.25" data-index="40"></path>
<path d="M 180.57 224.08 C 182.45 223.95 185.74 220.55 186.04 224.73 C 184.20 224.60 182.38 224.41 180.57 224.08 Z" fill="#043155" opacity="1.00" stroke="#043155" stroke-width="0.25" data-index="41"></path>
<path d="M 261.52 231.22 C 261.43 228.59 261.55 225.88 263.80 224.12 C 264.59 224.91 265.52 225.51 266.57 225.93 C 266.14 227.74 265.71 229.54 265.33 231.36 C 264.38 231.33 262.48 231.26 261.52 231.22 Z" fill="#043155" opacity="1.00" stroke="#043155" stroke-width="0.25" data-index="42"></path>
<path d="M 74.78 228.27 C 76.17 228.50 77.74 228.25 78.99 228.96 C 80.48 230.44 81.48 232.32 82.67 234.04 C 82.30 236.96 80.93 239.51 78.10 240.66 C 77.58 240.31 76.55 239.59 76.04 239.23 C 74.93 237.26 73.64 235.39 72.17 233.67 C 72.94 231.82 73.86 230.04 74.78 228.27 Z" fill="#feb01c" opacity="1.00" stroke="#feb01c" stroke-width="0.25" data-index="43"></path>
<path d="M 208.33 228.50 C 209.96 228.59 211.60 228.70 213.23 228.80 C 213.27 229.52 213.30 230.23 213.32 230.95 C 212.50 232.57 211.72 234.21 210.97 235.86 C 206.79 235.73 207.17 231.25 208.33 228.50 Z" fill="#043155" opacity="1.00" stroke="#043155" stroke-width="0.25" data-index="44"></path>
<path d="M 165.28 238.51 C 165.07 233.59 169.43 228.93 174.42 229.14 C 174.44 230.93 174.44 232.73 174.45 234.53 C 172.18 237.29 168.95 239.07 165.28 238.51 Z" fill="#feb01c" opacity="1.00" stroke="#feb01c" stroke-width="0.25" data-index="45"></path>
<path d="M 197.71 233.60 C 199.01 234.57 200.32 235.53 201.61 236.52 C 201.62 237.49 201.63 239.41 201.63 240.37 C 200.41 241.15 199.19 241.94 197.90 242.61 C 194.75 240.56 197.13 236.42 197.71 233.60 Z" fill="#043155" opacity="1.00" stroke="#043155" stroke-width="0.25" data-index="46"></path>
<path d="M 220.41 239.55 C 221.55 238.07 222.71 236.61 223.91 235.18 C 224.33 235.62 225.18 236.51 225.61 236.96 C 225.22 238.55 224.81 240.15 224.41 241.75 C 223.21 241.57 222.02 241.39 220.84 241.21 C 220.73 240.79 220.52 239.96 220.41 239.55 Z" fill="#043155" opacity="1.00" stroke="#043155" stroke-width="0.25" data-index="47"></path>
<path d="M 235.47 241.98 C 244.94 237.33 255.94 239.86 265.37 243.30 C 276.27 247.51 287.79 250.46 299.52 250.57 C 301.30 250.82 303.05 251.16 304.83 251.44 L 305.38 251.52 C 305.74 253.01 306.11 254.50 306.48 256.00 C 294.29 256.92 281.89 256.67 269.97 253.75 C 262.03 252.09 254.71 248.43 247.59 244.67 C 243.88 242.63 239.64 242.08 235.47 241.98 Z" fill="#ffffff" opacity="1.00" stroke="#ffffff" stroke-width="0.25" data-index="48"></path>
<path d="M 212.34 241.28 C 213.34 241.37 214.34 241.46 215.34 241.55 C 216.18 243.30 217.36 245.22 216.47 247.21 C 215.29 248.84 213.17 248.30 211.47 248.54 C 211.47 246.09 211.69 243.64 212.34 241.28 Z" fill="#043155" opacity="1.00" stroke="#043155" stroke-width="0.25" data-index="49"></path>
<path d="M 153.04 247.18 C 154.36 242.52 159.57 241.44 163.75 241.14 C 162.33 244.55 161.43 250.35 156.59 249.95 C 156.58 249.40 156.55 248.29 156.54 247.74 C 155.67 247.60 153.91 247.32 153.04 247.18 Z" fill="#feb01c" opacity="1.00" stroke="#feb01c" stroke-width="0.25" data-index="50"></path>
<path d="M 201.35 245.37 C 202.75 245.42 204.14 245.48 205.54 245.56 C 205.62 247.61 205.64 249.65 205.59 251.70 C 204.78 251.36 203.17 250.68 202.37 250.34 C 201.98 248.69 201.64 247.03 201.35 245.37 Z" fill="#043155" opacity="1.00" stroke="#043155" stroke-width="0.25" data-index="51"></path>
<path d="M 248.02 248.01 C 265.65 258.77 287.10 261.39 307.37 259.64 C 309.48 268.09 313.45 276.27 313.53 285.10 C 310.09 289.37 305.95 293.02 301.98 296.79 C 297.17 301.29 291.43 304.55 286.25 308.58 C 286.76 315.55 289.08 322.31 292.42 328.43 C 251.42 328.50 210.43 328.45 169.45 328.92 C 170.32 320.58 170.80 312.18 172.05 303.88 C 172.69 298.83 176.73 294.79 181.47 293.26 C 192.34 289.38 203.27 284.81 211.99 277.02 C 214.82 274.73 217.22 271.59 220.90 270.64 C 223.73 269.72 226.45 268.49 229.17 267.28 C 233.25 264.72 237.65 262.48 240.97 258.91 C 244.03 255.79 246.22 251.96 248.02 248.01 Z" fill="#ffffff" opacity="1.00" stroke="#ffffff" stroke-width="0.25" data-index="52" style="opacity: 1; visibility: visible;"></path>
<path d="M 78.91 249.48 C 80.66 249.38 82.42 249.35 84.17 249.35 C 85.31 251.16 86.44 252.97 87.55 254.80 C 87.68 257.47 87.67 260.15 87.49 262.83 C 82.86 261.97 79.37 258.82 76.43 255.35 C 77.27 253.40 78.10 251.44 78.91 249.48 Z" fill="#feb01c" opacity="1.00" stroke="#feb01c" stroke-width="0.25" data-index="53"></path>
<path d="M 135.50 255.03 C 139.45 253.01 143.38 250.63 147.91 250.22 C 147.76 254.13 146.04 257.72 143.49 260.63 C 142.76 260.38 141.29 259.89 140.55 259.65 C 140.17 258.62 139.78 257.60 139.40 256.58 C 138.71 256.55 137.32 256.49 136.63 256.46 C 136.25 255.98 135.87 255.50 135.50 255.03 Z" fill="#feb01c" opacity="1.00" stroke="#feb01c" stroke-width="0.25" data-index="54"></path>
<path d="M 315.35 252.53 C 315.80 252.54 316.70 252.56 317.15 252.57 C 317.67 253.55 318.19 254.53 318.72 255.52 C 319.17 255.81 320.07 256.40 320.52 256.70 C 320.40 257.99 320.28 259.28 320.17 260.58 C 319.36 260.61 318.55 260.63 317.75 260.66 C 315.96 258.31 315.29 255.45 315.35 252.53 Z" fill="#043155" opacity="1.00" stroke="#043155" stroke-width="0.25" data-index="55"></path>
<path d="M 192.79 259.49 C 192.22 257.20 191.66 254.91 191.27 252.58 C 193.56 252.44 195.86 252.35 198.17 252.32 C 197.65 254.75 196.97 257.15 196.22 259.52 C 195.07 259.51 193.93 259.50 192.79 259.49 Z" fill="#043155" opacity="1.00" stroke="#043155" stroke-width="0.25" data-index="56"></path>
<path d="M 202.18 263.82 C 202.75 260.47 203.88 256.65 207.64 255.79 C 208.50 257.64 209.30 259.52 210.04 261.42 C 207.61 262.78 204.97 263.65 202.18 263.82 Z" fill="#043155" opacity="1.00" stroke="#043155" stroke-width="0.25" data-index="57"></path>
<path d="M 103.20 260.43 C 105.16 261.63 107.11 262.84 109.08 264.00 C 109.39 264.47 110.00 265.41 110.31 265.88 C 110.37 266.72 110.42 267.57 110.47 268.43 C 106.76 269.58 102.87 269.60 99.03 269.36 C 97.98 268.93 96.92 268.51 95.87 268.11 C 95.69 267.57 95.34 266.51 95.16 265.98 C 97.72 263.96 100.45 262.18 103.20 260.43 Z" fill="#feb01c" opacity="1.00" stroke="#feb01c" stroke-width="0.25" data-index="58"></path>
<path d="M 117.34 265.88 C 118.72 263.97 119.90 261.74 122.09 260.62 C 124.65 259.98 127.14 261.28 129.61 261.76 C 129.62 262.65 129.64 263.55 129.66 264.44 C 128.45 265.31 127.23 266.18 126.00 267.03 C 123.69 267.76 121.35 268.39 118.95 268.74 C 118.55 268.03 117.74 266.60 117.34 265.88 Z" fill="#feb01c" opacity="1.00" stroke="#feb01c" stroke-width="0.25" data-index="59"></path>
<path d="M 165.84 267.78 C 171.03 265.90 176.03 263.57 181.00 261.20 C 177.65 267.19 173.33 272.65 168.39 277.41 C 164.80 279.31 160.54 279.39 156.67 280.54 C 153.82 285.55 153.60 291.57 150.50 296.45 C 147.36 301.65 144.09 306.79 140.73 311.86 C 139.83 311.44 138.92 311.03 138.03 310.61 C 137.29 310.51 135.82 310.31 135.09 310.22 C 136.77 304.06 140.27 298.66 142.92 292.91 C 145.81 286.91 148.51 280.75 152.26 275.23 C 155.90 271.42 161.31 270.20 165.84 267.78 Z" fill="#feb01c" opacity="1.00" stroke="#feb01c" stroke-width="0.25" data-index="60"></path>
<path d="M 192.62 267.23 C 193.85 267.30 195.08 267.38 196.31 267.47 C 196.40 268.49 196.49 269.51 196.59 270.54 C 194.59 271.55 192.48 272.32 190.32 272.91 C 191.04 270.99 191.81 269.10 192.62 267.23 Z" fill="#043155" opacity="1.00" stroke="#043155" stroke-width="0.25" data-index="61"></path>
<path d="M 179.86 271.75 C 180.99 271.56 182.13 271.37 183.26 271.18 C 183.40 273.21 183.61 275.24 183.53 277.28 C 181.98 279.32 179.07 278.44 176.87 278.82 C 177.47 276.30 178.58 273.97 179.86 271.75 Z" fill="#043155" opacity="1.00" stroke="#043155" stroke-width="0.25" data-index="62"></path>
<path d="M 320.19 276.29 C 320.30 273.59 321.90 271.59 324.51 271.02 C 324.60 272.85 324.64 274.69 324.62 276.52 C 323.14 276.46 321.66 276.38 320.19 276.29 Z" fill="#043155" opacity="1.00" stroke="#043155" stroke-width="0.25" data-index="63"></path>
<path d="M 77.81 309.70 C 83.80 308.53 89.95 309.11 96.01 308.95 C 103.59 309.18 111.24 308.35 118.76 309.54 C 117.28 310.23 115.70 310.77 114.04 310.70 C 105.01 310.73 95.98 310.58 86.95 310.52 C 83.90 310.44 80.76 310.65 77.81 309.70 Z" fill="#043155" opacity="1.00" stroke="#043155" stroke-width="0.25" data-index="64"></path>
<path d="M 230.40 310.68 C 230.48 310.39 230.65 309.80 230.74 309.51 C 244.82 309.76 258.95 309.05 273.01 309.87 C 271.55 310.91 269.82 311.41 268.04 311.29 C 255.49 311.24 242.94 311.10 230.40 310.68 Z" fill="#043155" opacity="1.00" stroke="#043155" stroke-width="0.25" data-index="65"></path>
<path d="M 71.84 316.36 C 82.54 316.34 93.25 316.29 103.95 316.69 C 105.99 316.77 107.96 317.36 109.90 317.96 C 97.26 318.95 84.56 317.71 71.89 318.10 C 71.88 317.67 71.85 316.80 71.84 316.36 Z" fill="#043155" opacity="1.00" stroke="#043155" stroke-width="0.25" data-index="66"></path>
<path d="M 223.21 317.41 C 225.85 315.74 229.11 316.46 232.06 316.29 C 240.34 316.47 248.68 315.93 256.90 317.10 C 252.85 318.91 248.32 317.99 244.03 318.14 C 237.10 317.76 230.07 318.71 223.21 317.41 Z" fill="#043155" opacity="1.00" stroke="#043155" stroke-width="0.25" data-index="67"></path>
<path d="M 268.74 321.15 C 271.56 320.77 274.42 320.83 277.26 320.79 C 277.32 321.14 277.44 321.86 277.50 322.22 C 274.56 322.15 271.41 322.70 268.74 321.15 Z" fill="#043155" opacity="1.00" stroke="#043155" stroke-width="0.25" data-index="68"></path>
</svg>