<?xml version="1.0" encoding="utf-8"?>
<svg xmlns="http://www.w3.org/2000/svg" height="512pt" version="1.1" viewBox="0 0 512 512" width="512pt">
<path d="M 0.00 0.00 L 512.00 0.00 L 512.00 512.00 L 0.00 512.00 L 0.00 0.00 Z" fill="transparent" opacity="1.00" stroke="transparent" stroke-width="0.25"/>
<path d="M 318.14 87.97 C 319.75 84.59 325.46 86.92 323.49 90.50 C 316.16 102.18 307.96 113.33 300.46 124.90 C 299.19 124.74 297.82 124.55 297.54 123.04 C 298.08 121.00 299.23 119.22 300.32 117.45 C 306.27 107.63 312.04 97.69 318.14 87.97 Z" fill="#043356" opacity="1.00" stroke="#043356" stroke-width="0.25"/>
<path d="M 269.52 93.42 C 270.50 93.23 271.45 92.74 272.47 92.78 C 273.97 93.57 274.50 95.34 274.47 96.94 C 274.62 104.17 275.55 111.37 275.51 118.60 C 274.60 118.61 272.79 118.61 271.89 118.62 C 270.67 111.01 269.97 103.33 268.84 95.71 C 269.01 95.14 269.35 93.99 269.52 93.42 Z" fill="#043356" opacity="1.00" stroke="#043356" stroke-width="0.25"/>
<path d="M 249.66 120.58 C 250.20 120.51 251.28 120.37 251.82 120.30 C 254.48 123.09 258.53 125.15 259.48 129.13 C 258.84 129.48 257.56 130.18 256.91 130.54 C 253.86 128.35 250.79 126.10 248.52 123.07 C 248.80 122.45 249.38 121.20 249.66 120.58 Z" fill="#043356" opacity="1.00" stroke="#043356" stroke-width="0.25"/>
<path d="M 310.62 132.80 C 321.79 129.34 332.85 125.52 344.09 122.33 C 344.71 122.74 345.96 123.58 346.58 124.00 C 346.51 125.77 346.45 127.81 344.33 128.24 C 336.02 130.78 327.52 132.69 319.12 134.93 C 316.37 135.49 313.67 136.59 310.84 136.51 C 309.03 135.60 309.93 134.13 310.62 132.80 Z" fill="#043356" opacity="1.00" stroke="#043356" stroke-width="0.25"/>
<path d="M 263.55 140.62 C 266.58 134.54 273.00 129.58 280.06 130.20 C 285.32 130.26 290.03 133.91 292.28 138.52 C 295.53 144.99 295.92 152.38 296.87 159.43 C 298.83 181.89 298.26 204.46 298.25 226.98 C 297.59 239.48 298.16 252.00 297.78 264.51 C 303.95 268.43 310.82 271.10 316.98 275.03 C 320.60 277.34 321.48 281.90 322.11 285.84 C 323.10 294.64 321.26 303.44 319.47 312.03 C 315.27 329.75 308.63 346.74 302.53 363.86 C 302.09 365.14 301.46 366.45 301.73 367.86 C 303.49 383.95 305.13 400.06 306.39 416.20 C 274.43 422.11 241.54 421.52 209.44 417.06 C 209.43 400.34 209.79 383.62 210.15 366.92 C 206.96 363.67 203.16 361.02 200.46 357.30 C 193.96 349.24 190.53 339.21 188.30 329.22 C 185.76 316.29 185.30 303.05 185.45 289.91 C 185.96 278.35 187.46 265.59 195.96 256.91 C 201.02 251.24 208.90 249.69 216.17 249.50 C 216.93 244.09 218.35 238.36 222.52 234.51 C 225.18 231.40 229.20 230.20 232.88 228.79 C 239.93 227.69 247.09 228.70 253.68 231.35 C 255.19 209.28 256.19 187.17 258.39 165.15 C 259.18 156.85 259.65 148.16 263.55 140.62 Z" fill="#043356" opacity="1.00" stroke="#043356" stroke-width="0.25"/>
<path d="M 273.66 141.60 C 275.92 139.67 279.13 138.47 281.92 140.09 C 284.75 142.25 285.48 146.00 286.18 149.29 C 289.02 167.02 288.82 185.04 288.88 202.95 C 288.78 221.88 288.87 240.81 288.43 259.73 C 277.50 253.40 264.75 248.71 251.97 250.97 C 247.69 251.84 242.87 253.62 240.90 257.86 C 238.38 262.40 239.42 267.93 241.62 272.37 C 244.83 278.30 250.30 282.57 255.88 286.14 C 259.26 288.32 263.31 289.87 265.53 293.44 C 271.21 301.12 273.04 310.63 275.70 319.60 C 277.23 323.32 278.92 328.06 283.22 329.21 C 283.44 323.80 282.04 318.53 281.33 313.20 C 279.76 304.51 278.40 295.73 275.75 287.28 C 275.24 285.44 273.69 284.10 271.92 283.54 C 265.09 281.19 257.74 278.76 253.02 272.96 C 250.19 269.96 248.12 266.10 248.35 261.87 C 254.64 258.33 262.46 259.05 269.14 261.03 C 277.16 263.75 284.61 267.88 292.03 271.92 C 298.84 275.26 305.41 279.09 312.01 282.84 C 312.82 285.83 313.55 288.92 313.16 292.04 C 311.70 308.61 306.35 324.49 301.15 340.18 C 298.32 347.71 295.83 355.36 293.11 362.93 C 291.64 366.86 292.94 371.08 293.21 375.11 C 294.19 386.21 295.62 397.29 296.27 408.42 C 277.70 411.38 258.76 410.96 240.00 410.50 C 233.12 410.48 226.32 409.32 219.45 409.11 C 219.24 408.11 219.08 407.12 218.96 406.13 C 219.26 394.09 219.29 382.05 219.35 370.01 C 226.84 371.27 234.83 371.99 241.99 368.86 C 245.46 367.48 249.54 365.16 249.87 361.02 C 240.77 363.78 230.77 364.85 221.66 361.53 C 215.36 359.51 209.91 355.18 206.36 349.61 C 199.00 339.25 196.86 326.34 195.62 313.98 C 194.94 304.66 194.11 295.27 195.20 285.95 C 195.75 277.88 197.04 268.86 203.01 262.90 C 208.43 257.63 216.51 259.93 223.13 258.17 C 226.79 254.29 224.18 248.31 226.64 243.78 C 230.25 238.08 237.77 236.82 243.92 238.36 C 250.03 239.84 256.52 240.40 262.58 238.34 C 263.94 213.20 265.54 188.07 267.69 162.98 C 268.54 155.64 269.10 147.75 273.66 141.60 Z" fill="#ffffff" opacity="1.00" stroke="#ffffff" stroke-width="0.25"/>
<path d="M 189.88 179.72 C 191.05 179.58 192.22 179.45 193.39 179.31 C 195.75 183.21 197.28 187.52 199.23 191.64 C 202.47 199.84 206.66 207.65 209.41 216.05 C 208.76 216.47 207.47 217.33 206.83 217.75 C 205.88 216.82 204.75 216.01 204.27 214.73 C 199.15 203.80 193.43 193.15 188.57 182.10 C 188.90 181.51 189.56 180.31 189.88 179.72 Z" fill="#043356" opacity="1.00" stroke="#043356" stroke-width="0.25"/>
<path d="M 157.89 189.54 C 159.69 189.24 161.91 189.02 162.86 190.98 C 171.43 202.89 179.65 215.06 187.73 227.31 C 188.74 228.53 188.78 230.09 188.69 231.59 C 187.24 231.72 185.41 232.14 184.59 230.54 C 177.49 220.96 170.08 211.60 162.98 202.01 C 160.65 198.75 157.72 195.81 156.31 191.99 C 156.70 191.37 157.49 190.15 157.89 189.54 Z" fill="#043356" opacity="1.00" stroke="#043356" stroke-width="0.25"/>
<path d="M 145.69 228.41 C 146.28 228.34 147.45 228.20 148.04 228.13 C 155.30 233.40 162.06 239.35 169.02 245.03 C 170.72 246.02 171.44 248.56 169.25 249.49 C 165.47 248.53 162.72 245.43 159.55 243.30 C 154.54 239.22 148.58 236.13 144.42 231.12 C 144.74 230.44 145.38 229.09 145.69 228.41 Z" fill="#043356" opacity="1.00" stroke="#043356" stroke-width="0.25"/>
<path d="M 121.44 263.27 C 120.71 260.71 121.32 256.54 124.98 257.63 C 138.29 261.66 151.72 265.48 164.71 270.44 C 164.62 271.50 164.52 272.56 164.42 273.63 C 159.23 273.90 154.38 271.78 149.36 270.85 C 140.06 268.31 130.62 266.24 121.44 263.27 Z" fill="#043356" opacity="1.00" stroke="#043356" stroke-width="0.25"/>
<path d="M 129.50 293.51 C 139.78 293.22 150.06 292.05 160.34 292.45 C 161.15 293.63 160.69 294.91 160.26 296.12 C 150.39 297.40 140.45 298.12 130.58 299.49 C 128.10 298.28 127.84 295.54 129.50 293.51 Z" fill="#043356" opacity="1.00" stroke="#043356" stroke-width="0.25"/>
</svg>