<?xml version="1.0" encoding="utf-8"?>
<svg xmlns="http://www.w3.org/2000/svg" height="512pt" version="1.1" viewBox="0 0 512 512" width="512pt">
<path d="M 0.00 0.00 L 512.00 0.00 L 512.00 512.00 L 0.00 512.00 L 0.00 0.00 Z" fill="transparent" opacity="1.00" stroke="transparent" stroke-width="0.25"/>
<path d="M 223.15 102.25 C 236.37 95.86 250.25 89.86 265.04 88.58 C 265.48 89.24 266.35 90.57 266.79 91.24 C 264.66 93.67 262.04 95.54 259.49 97.49 C 249.05 106.87 239.93 118.89 237.83 133.11 C 237.23 138.46 236.73 144.43 239.93 149.10 C 241.14 150.82 242.66 152.98 245.01 152.89 C 250.93 152.92 256.89 152.27 262.76 153.24 C 280.91 155.73 298.67 160.41 316.09 166.00 C 344.86 175.25 372.41 187.92 398.93 202.36 C 416.46 185.98 435.50 170.84 457.01 160.01 C 464.52 156.44 472.17 152.54 480.55 151.60 C 480.02 156.55 477.08 160.69 475.00 165.08 C 465.72 184.29 457.12 203.86 449.94 223.97 C 449.24 226.37 447.59 228.87 448.53 231.43 C 449.87 235.75 452.05 239.74 453.97 243.81 C 461.82 260.49 470.40 276.85 480.15 292.50 C 465.08 293.45 450.58 287.53 437.67 280.30 C 424.16 272.31 411.71 262.72 399.14 253.36 C 394.67 260.65 389.79 267.71 384.22 274.22 C 376.58 284.00 366.06 290.84 356.54 298.53 C 353.87 308.93 351.16 319.35 347.48 329.44 C 344.88 336.76 342.64 344.25 339.14 351.21 C 326.82 346.07 317.98 335.38 310.87 324.47 C 278.06 339.05 242.20 348.37 206.10 346.56 C 208.23 358.47 212.89 369.72 218.26 380.50 C 222.07 387.57 226.53 394.27 230.09 401.47 C 222.29 401.87 214.73 399.24 207.62 396.32 C 183.75 386.26 165.10 364.20 160.08 338.66 C 143.36 334.13 127.52 326.88 112.32 318.67 C 96.46 309.71 81.03 299.76 67.44 287.57 C 54.98 276.18 45.43 262.07 36.40 247.92 C 43.82 237.66 53.12 228.89 62.86 220.86 C 89.48 198.95 120.82 183.40 153.32 172.27 C 155.33 171.66 155.89 169.40 156.89 167.80 C 163.07 155.54 169.95 143.43 179.19 133.18 C 191.66 120.14 207.00 110.14 223.15 102.25 Z" fill="#043459" opacity="1.00" stroke="#043459" stroke-width="0.25"/>
<path d="M 225.67 114.75 C 229.18 111.81 233.27 107.24 238.27 108.64 C 234.42 111.15 230.59 115.15 225.67 114.75 Z" fill="#ffffff" opacity="1.00" stroke="#ffffff" stroke-width="0.25"/>
<path d="M 215.39 112.40 C 216.78 111.21 218.54 110.74 220.32 110.48 C 218.69 113.74 215.42 115.49 212.65 117.62 C 202.45 125.31 192.81 133.80 184.45 143.47 C 181.99 146.13 180.07 149.29 177.17 151.52 C 177.28 150.01 176.96 148.29 178.20 147.14 C 188.72 133.73 201.65 122.40 215.39 112.40 Z" fill="#ffffff" opacity="1.00" stroke="#ffffff" stroke-width="0.25"/>
<path d="M 213.52 123.56 C 216.12 121.42 218.59 118.81 222.01 118.03 C 221.16 121.47 217.75 123.09 215.40 125.39 C 212.55 127.55 210.26 130.74 206.56 131.44 C 207.71 127.95 211.00 125.98 213.52 123.56 Z" fill="#ffffff" opacity="1.00" stroke="#ffffff" stroke-width="0.25"/>
<path d="M 221.07 129.07 C 222.21 128.11 223.73 128.23 225.12 128.09 C 223.40 131.05 220.28 132.62 217.73 134.74 C 213.88 137.86 210.04 141.02 206.63 144.63 C 204.51 146.82 202.70 149.49 199.73 150.62 C 200.17 148.92 200.70 147.19 202.03 145.95 C 207.77 139.69 214.10 133.94 221.07 129.07 Z" fill="#ffffff" opacity="1.00" stroke="#ffffff" stroke-width="0.25"/>
<path d="M 215.53 147.75 C 216.75 143.12 222.02 141.89 225.59 139.52 C 225.65 140.21 225.76 141.60 225.82 142.29 C 222.43 144.18 219.26 146.54 215.53 147.75 Z" fill="#ffffff" opacity="1.00" stroke="#ffffff" stroke-width="0.25"/>
<path d="M 223.60 158.72 C 236.82 157.03 250.25 154.61 263.57 156.70 C 289.61 160.32 314.83 168.30 339.32 177.67 C 359.90 186.08 380.14 195.49 399.49 206.43 C 402.08 213.99 403.66 222.00 403.93 230.00 C 404.24 236.33 402.38 242.64 399.04 247.99 C 393.07 257.20 387.16 266.56 379.65 274.63 C 373.46 281.86 365.66 287.40 358.17 293.16 C 333.51 311.55 305.35 324.98 276.01 334.04 C 250.49 341.67 223.50 345.55 196.91 342.38 C 170.07 339.57 143.85 331.58 119.96 319.04 C 100.44 308.74 81.55 296.78 65.57 281.43 C 55.72 271.32 47.56 259.71 40.13 247.74 C 57.10 227.11 78.94 211.08 102.12 198.10 C 139.73 177.62 181.24 164.65 223.60 158.72 Z" fill="#86e6ff" opacity="1.00" stroke="#86e6ff" stroke-width="0.25"/>
<path d="M 449.91 177.07 C 451.64 176.05 453.45 175.19 455.33 174.46 C 454.82 177.93 451.29 179.05 448.74 180.76 C 438.96 186.84 429.39 193.28 420.01 199.97 C 418.68 200.96 417.11 201.53 415.55 202.04 C 416.26 198.89 419.33 197.49 421.67 195.71 C 430.87 189.18 440.23 182.86 449.91 177.07 Z" fill="#ffffff" opacity="1.00" stroke="#ffffff" stroke-width="0.25"/>
<path d="M 423.14 205.44 C 433.15 201.03 443.16 196.59 453.51 193.01 C 453.60 193.60 453.79 194.77 453.88 195.35 C 446.16 198.41 438.49 201.59 430.85 204.82 C 426.82 206.52 422.91 208.72 418.51 209.29 C 419.50 207.42 421.21 206.20 423.14 205.44 Z" fill="#ffffff" opacity="1.00" stroke="#ffffff" stroke-width="0.25"/>
<path d="M 419.63 218.75 C 428.71 218.14 437.76 217.19 446.84 216.57 C 446.78 217.27 446.67 218.66 446.62 219.36 C 435.68 219.56 424.83 221.15 413.92 221.80 C 412.37 221.82 410.87 221.59 409.40 221.09 C 412.43 219.08 416.14 219.10 419.63 218.75 Z" fill="#ffffff" opacity="1.00" stroke="#ffffff" stroke-width="0.25"/>
<path d="M 127.04 221.50 C 130.68 222.60 133.79 224.89 136.41 227.59 C 145.15 235.86 150.00 247.99 149.68 260.00 C 150.02 273.92 145.30 288.35 135.18 298.18 C 130.02 303.14 123.38 307.35 115.99 307.24 C 112.03 307.10 106.75 304.78 107.37 300.01 C 107.99 292.69 114.79 288.17 120.19 284.14 C 123.12 282.41 123.45 278.79 124.33 275.84 C 114.29 281.80 102.67 285.11 90.97 284.75 C 82.68 284.53 73.97 283.29 66.86 278.75 C 68.42 278.24 70.04 277.29 71.67 278.19 C 84.92 282.91 99.82 283.02 113.02 278.04 C 120.81 275.34 127.67 270.02 132.11 263.07 C 137.79 254.65 138.58 243.46 135.01 234.06 C 133.26 229.33 129.39 225.88 127.04 221.50 Z" fill="#043459" opacity="1.00" stroke="#043459" stroke-width="0.25"/>
<path d="M 82.35 227.21 C 90.72 224.92 99.70 233.16 97.66 241.74 C 96.78 250.43 85.61 255.20 78.48 250.51 C 72.22 247.16 70.65 238.14 74.47 232.42 C 76.43 229.90 79.16 227.81 82.35 227.21 Z" fill="#043459" opacity="1.00" stroke="#043459" stroke-width="0.25"/>
<path d="M 417.16 227.65 C 423.07 228.39 429.00 228.92 434.93 229.51 C 434.92 230.10 434.89 231.30 434.88 231.90 C 428.93 231.68 423.03 230.96 417.12 230.32 C 417.13 229.66 417.15 228.32 417.16 227.65 Z" fill="#ffffff" opacity="1.00" stroke="#ffffff" stroke-width="0.25"/>
<path d="M 82.56 230.54 C 85.81 228.44 90.50 231.36 90.56 235.07 C 91.13 239.08 86.18 242.54 82.61 240.54 C 78.48 238.96 78.25 232.06 82.56 230.54 Z" fill="#ffffff" opacity="1.00" stroke="#ffffff" stroke-width="0.25"/>
<path d="M 165.26 260.02 C 182.29 241.60 209.04 235.10 233.35 237.96 C 227.31 245.71 220.06 252.57 215.20 261.19 C 211.53 267.12 209.20 273.78 208.15 280.66 C 192.05 279.19 176.06 272.26 165.26 260.02 Z" fill="#043459" opacity="1.00" stroke="#043459" stroke-width="0.25"/>
<path d="M 413.40 237.79 C 417.56 236.35 421.74 238.48 425.84 239.16 C 429.16 240.13 433.20 239.72 435.67 242.55 C 431.32 243.18 427.05 242.00 422.83 241.15 C 419.56 240.44 416.25 239.61 413.40 237.79 Z" fill="#ffffff" opacity="1.00" stroke="#ffffff" stroke-width="0.25"/>
<path d="M 411.85 245.79 C 413.92 243.53 416.27 245.74 418.33 246.75 C 429.72 253.30 441.93 258.25 453.60 264.24 C 451.44 266.40 448.87 264.18 446.63 263.44 C 434.75 258.17 422.99 252.51 411.85 245.79 Z" fill="#ffffff" opacity="1.00" stroke="#ffffff" stroke-width="0.25"/>
<path d="M 187.96 256.26 C 195.43 252.35 203.48 249.31 211.69 247.43 C 210.90 248.74 210.31 250.42 208.58 250.64 C 202.27 252.55 196.35 255.77 189.98 257.36 C 189.48 257.08 188.47 256.53 187.96 256.26 Z" fill="#ffffff" opacity="1.00" stroke="#ffffff" stroke-width="0.25"/>
<path d="M 192.63 262.13 C 196.75 259.59 201.55 258.43 206.24 257.45 C 206.77 257.83 207.85 258.57 208.39 258.95 C 203.93 260.31 199.58 262.40 194.91 262.88 C 194.34 262.70 193.20 262.32 192.63 262.13 Z" fill="#ffffff" opacity="1.00" stroke="#ffffff" stroke-width="0.25"/>
<path d="M 423.29 259.94 C 436.19 267.74 449.63 274.68 463.83 279.82 C 463.85 280.46 463.89 281.73 463.91 282.37 C 449.62 277.32 435.92 270.62 423.14 262.47 C 423.18 261.83 423.26 260.57 423.29 259.94 Z" fill="#ffffff" opacity="1.00" stroke="#ffffff" stroke-width="0.25"/>
<path d="M 197.11 265.65 C 199.16 265.18 201.19 264.65 203.22 264.12 C 203.34 264.70 203.57 265.87 203.69 266.45 C 201.55 267.02 199.41 267.57 197.27 268.12 C 197.23 267.50 197.15 266.27 197.11 265.65 Z" fill="#ffffff" opacity="1.00" stroke="#ffffff" stroke-width="0.25"/>
<path d="M 131.51 280.47 C 134.26 279.32 138.74 278.83 139.99 282.31 C 141.15 286.30 138.57 290.16 136.20 293.17 C 131.58 298.70 125.34 303.52 118.00 304.47 C 114.68 304.90 110.25 303.75 109.53 299.97 C 110.65 295.01 114.81 291.63 118.56 288.56 C 122.61 285.48 126.79 282.44 131.51 280.47 Z" fill="#ffffff" opacity="1.00" stroke="#ffffff" stroke-width="0.25"/>
<path d="M 345.66 307.75 C 349.55 308.37 349.18 314.19 346.92 316.40 C 346.10 313.58 345.61 310.68 345.66 307.75 Z" fill="#ffffff" opacity="1.00" stroke="#ffffff" stroke-width="0.25"/>
<path d="M 338.81 316.57 C 342.11 318.30 344.45 321.81 344.58 325.56 C 341.39 323.63 339.18 320.31 338.81 316.57 Z" fill="#ffffff" opacity="1.00" stroke="#ffffff" stroke-width="0.25"/>
<path d="M 330.65 317.37 C 334.51 322.85 338.31 328.44 341.62 334.29 C 337.71 333.73 336.16 329.76 334.07 326.95 C 332.38 324.01 329.42 321.05 330.65 317.37 Z" fill="#ffffff" opacity="1.00" stroke="#ffffff" stroke-width="0.25"/>
<path d="M 321.48 321.64 C 324.87 323.53 326.60 327.11 328.92 330.05 C 330.56 332.29 332.80 334.35 332.91 337.32 C 329.10 335.13 326.66 331.34 324.11 327.89 C 322.72 326.06 321.73 323.94 321.48 321.64 Z" fill="#ffffff" opacity="1.00" stroke="#ffffff" stroke-width="0.25"/>
<path d="M 173.84 352.50 C 175.68 352.98 177.33 353.93 178.46 355.50 C 183.60 361.99 189.55 367.77 195.54 373.47 C 199.35 377.10 203.91 379.80 208.05 383.02 C 208.36 383.66 208.98 384.94 209.29 385.58 C 206.07 384.98 203.35 383.12 200.85 381.12 C 193.78 375.61 187.15 369.50 181.27 362.71 C 178.56 359.49 175.27 356.58 173.84 352.50 Z" fill="#ffffff" opacity="1.00" stroke="#ffffff" stroke-width="0.25"/>
<path d="M 186.47 354.81 C 190.03 356.27 192.21 359.55 194.93 362.09 C 198.12 365.42 201.86 368.16 205.00 371.53 C 204.31 371.58 202.93 371.68 202.24 371.73 C 197.52 368.58 193.49 364.51 189.60 360.41 C 188.04 358.87 186.99 356.93 186.47 354.81 Z" fill="#ffffff" opacity="1.00" stroke="#ffffff" stroke-width="0.25"/>
</svg>