<?xml version="1.0" encoding="UTF-8"?>
<svg id="Layer_1" xmlns="http://www.w3.org/2000/svg" version="1.1" viewBox="0 0 512 512">
  <!-- Generator: Adobe Illustrator 29.4.0, SVG Export Plug-In . SVG Version: 2.1.0 Build 152)  -->
  <defs>
    <style>
      .st0 {
        fill: #78cb62;
        stroke: #78cb62;
      }

      .st0, .st1, .st2, .st3, .st4, .st5, .st6, .st7, .st8, .st9, .st10, .st11, .st12, .st13, .st14, .st15, .st16, .st17, .st18, .st19, .st20, .st21, .st22, .st23, .st24, .st25, .st26, .st27, .st28, .st29, .st30, .st31, .st32, .st33, .st34, .st35, .st36, .st37, .st38, .st39, .st40, .st41, .st42, .st43, .st44, .st45, .st46, .st47, .st48, .st49, .st50, .st51, .st52, .st53, .st54, .st55, .st56, .st57, .st58, .st59, .st60, .st61, .st62, .st63, .st64, .st65, .st66, .st67, .st68, .st69, .st70, .st71, .st72, .st73, .st74, .st75, .st76, .st77, .st78, .st79, .st80, .st81, .st82, .st83, .st84, .st85, .st86, .st87, .st88, .st89, .st90, .st91, .st92, .st93, .st94, .st95, .st96, .st97, .st98, .st99, .st100, .st101, .st102, .st103, .st104, .st105, .st106, .st107, .st108, .st109, .st110, .st111, .st112, .st113, .st114, .st115, .st116, .st117, .st118, .st119, .st120, .st121, .st122, .st123, .st124, .st125, .st126, .st127, .st128, .st129, .st130, .st131, .st132, .st133, .st134, .st135, .st136, .st137, .st138, .st139, .st140, .st141, .st142, .st143, .st144, .st145, .st146, .st147, .st148, .st149, .st150, .st151, .st152, .st153, .st154, .st155, .st156, .st157, .st158, .st159, .st160, .st161, .st162, .st163, .st164, .st165, .st166, .st167, .st168, .st169, .st170, .st171, .st172, .st173, .st174, .st175, .st176, .st177, .st178, .st179, .st180, .st181, .st182, .st183, .st184, .st185, .st186, .st187, .st188, .st189, .st190, .st191, .st192, .st193, .st194, .st195, .st196, .st197, .st198, .st199, .st200, .st201, .st202, .st203, .st204, .st205, .st206, .st207, .st208, .st209, .st210, .st211, .st212, .st213, .st214, .st215, .st216, .st217, .st218, .st219, .st220, .st221, .st222, .st223, .st224, .st225, .st226, .st227, .st228, .st229, .st230, .st231, .st232, .st233, .st234, .st235, .st236, .st237, .st238, .st239, .st240, .st241, .st242, .st243, .st244, .st245, .st246, .st247, .st248, .st249, .st250, .st251, .st252, .st253, .st254, .st255, .st256 {
        stroke-width: .2px;
      }

      .st1 {
        fill: #b54a3f;
        stroke: #b54a3f;
      }

      .st2 {
        fill: #d75c50;
        stroke: #d75c50;
      }

      .st3 {
        fill: #d85134;
        stroke: #d85134;
      }

      .st4 {
        fill: #f4bc7b;
        stroke: #f4bc7b;
      }

      .st5 {
        fill: #ce504b;
        stroke: #ce504b;
      }

      .st6 {
        fill: #f3b471;
        stroke: #f3b471;
      }

      .st7 {
        fill: #84412b;
        stroke: #84412b;
      }

      .st8 {
        fill: #86412a;
        stroke: #86412a;
      }

      .st9 {
        fill: #fffeff;
        stroke: #fffeff;
      }

      .st10 {
        fill: #fec9a3;
        stroke: #fec9a3;
      }

      .st11 {
        fill: #7d3c32;
        stroke: #7d3c32;
      }

      .st12 {
        fill: #925615;
        stroke: #925615;
      }

      .st13 {
        fill: #783c26;
        stroke: #783c26;
      }

      .st14 {
        fill: #f2692b;
        stroke: #f2692b;
      }

      .st15 {
        fill: #0f370d;
        stroke: #0f370d;
      }

      .st16 {
        fill: #7a3f27;
        stroke: #7a3f27;
      }

      .st17 {
        fill: #fff78a;
        stroke: #fff78a;
      }

      .st18 {
        fill: #6f3a2b;
        stroke: #6f3a2b;
      }

      .st19 {
        fill: #f9614a;
        stroke: #f9614a;
      }

      .st20 {
        fill: #c25d40;
        stroke: #c25d40;
      }

      .st21 {
        fill: #fabe6f;
        stroke: #fabe6f;
      }

      .st22 {
        fill: #77342a;
        stroke: #77342a;
      }

      .st23 {
        fill: #fda56b;
        stroke: #fda56b;
      }

      .st24 {
        fill: #59a846;
        stroke: #59a846;
      }

      .st25 {
        fill: #023500;
        stroke: #023500;
      }

      .st26 {
        fill: #fac877;
        stroke: #fac877;
      }

      .st27 {
        fill: #bc4b4a;
        stroke: #bc4b4a;
      }

      .st28 {
        fill: #fffc93;
        stroke: #fffc93;
      }

      .st29 {
        fill: #b27214;
        stroke: #b27214;
      }

      .st30 {
        fill: #f87e30;
        stroke: #f87e30;
      }

      .st31 {
        fill: #d8f6b0;
        stroke: #d8f6b0;
      }

      .st32 {
        fill: #f6b97d;
        stroke: #f6b97d;
      }

      .st33 {
        fill: #fdffcd;
        stroke: #fdffcd;
      }

      .st34 {
        fill: #f9c862;
        stroke: #f9c862;
      }

      .st35 {
        fill: #e9583b;
        stroke: #e9583b;
      }

      .st36 {
        fill: #fcffd8;
        stroke: #fcffd8;
      }

      .st37 {
        fill: #002f22;
        stroke: #002f22;
      }

      .st38 {
        fill: #fefcc9;
        stroke: #fefcc9;
      }

      .st39 {
        fill: #b34944;
        stroke: #b34944;
      }

      .st40 {
        fill: #f6ac6b;
        stroke: #f6ac6b;
      }

      .st41 {
        fill: #733623;
        stroke: #733623;
      }

      .st42 {
        fill: #f8bb6c;
        stroke: #f8bb6c;
      }

      .st43 {
        fill: #f9c57b;
        stroke: #f9c57b;
      }

      .st44 {
        fill: #f36c35;
        stroke: #f36c35;
      }

      .st45 {
        fill: #cff1a6;
        stroke: #cff1a6;
      }

      .st46 {
        fill: #fd922f;
        stroke: #fd922f;
      }

      .st47 {
        fill: #ffffd3;
        stroke: #ffffd3;
      }

      .st48 {
        fill: #76d267;
        stroke: #76d267;
      }

      .st49 {
        fill: #b84c45;
        stroke: #b84c45;
      }

      .st50 {
        fill: #fffff8;
        stroke: #fffff8;
      }

      .st51 {
        fill: #4e9657;
        stroke: #4e9657;
      }

      .st52 {
        fill: #813c2e;
        stroke: #813c2e;
      }

      .st53 {
        fill: #59a644;
        stroke: #59a644;
      }

      .st54 {
        fill: #90481c;
        stroke: #90481c;
      }

      .st55 {
        fill: #773827;
        stroke: #773827;
      }

      .st56 {
        fill: #eba582;
        stroke: #eba582;
      }

      .st57 {
        fill: #ffffb8;
        stroke: #ffffb8;
      }

      .st58 {
        fill: #823b29;
        stroke: #823b29;
      }

      .st59 {
        fill: #fa8e2c;
        stroke: #fa8e2c;
      }

      .st60 {
        fill: #75d044;
        stroke: #75d044;
      }

      .st61 {
        fill: #b1474e;
        stroke: #b1474e;
      }

      .st62 {
        fill: #204403;
        stroke: #204403;
      }

      .st63 {
        fill: #fac36c;
        stroke: #fac36c;
      }

      .st64 {
        fill: #fbed7b;
        stroke: #fbed7b;
      }

      .st65 {
        fill: #f87f2f;
        stroke: #f87f2f;
      }

      .st66 {
        fill: #f7b866;
        stroke: #f7b866;
      }

      .st67 {
        fill: #fff;
        stroke: #fff;
      }

      .st68 {
        fill: #d2e8a9;
        stroke: #d2e8a9;
      }

      .st69 {
        fill: #60b25e;
        stroke: #60b25e;
      }

      .st70 {
        fill: #dd9961;
        stroke: #dd9961;
      }

      .st71 {
        fill: #04304b;
        stroke: #04304b;
      }

      .st72 {
        fill: #d55641;
        stroke: #d55641;
      }

      .st73 {
        fill: #ef6c4b;
        stroke: #ef6c4b;
      }

      .st74 {
        fill: #59a746;
        stroke: #59a746;
      }

      .st75 {
        fill: #f75a26;
        stroke: #f75a26;
      }

      .st76 {
        fill: #feffd1;
        stroke: #feffd1;
      }

      .st77 {
        fill: #f8b459;
        stroke: #f8b459;
      }

      .st78 {
        fill: #973f43;
        stroke: #973f43;
      }

      .st79 {
        fill: #f37f47;
        stroke: #f37f47;
      }

      .st80 {
        fill: #cff69f;
        stroke: #cff69f;
      }

      .st81 {
        fill: #f8d887;
        stroke: #f8d887;
      }

      .st82 {
        fill: #002f0c;
        stroke: #002f0c;
      }

      .st83 {
        fill: #7d3b25;
        stroke: #7d3b25;
      }

      .st84 {
        fill: #e6a48d;
        stroke: #e6a48d;
      }

      .st85 {
        fill: #f6b171;
        stroke: #f6b171;
      }

      .st86 {
        fill: #f7c080;
        stroke: #f7c080;
      }

      .st87 {
        fill: #7f3f26;
        stroke: #7f3f26;
      }

      .st88 {
        fill: #aaecff;
        stroke: #aaecff;
      }

      .st89 {
        fill: #ea5e36;
        stroke: #ea5e36;
      }

      .st90 {
        fill: #a25226;
        stroke: #a25226;
      }

      .st91 {
        fill: #f95b26;
        stroke: #f95b26;
      }

      .st92 {
        fill: #b0efff;
        stroke: #b0efff;
      }

      .st93 {
        fill: #042f4a;
        stroke: #042f4a;
      }

      .st94 {
        fill: #ffbb8a;
        stroke: #ffbb8a;
      }

      .st95 {
        fill: #934526;
        stroke: #934526;
      }

      .st96 {
        fill: #6f3c2e;
        stroke: #6f3c2e;
      }

      .st97 {
        fill: #753b30;
        stroke: #753b30;
      }

      .st98 {
        fill: #002f41;
        stroke: #002f41;
      }

      .st99 {
        fill: #fbffc3;
        stroke: #fbffc3;
      }

      .st100 {
        fill: #7e3d24;
        stroke: #7e3d24;
      }

      .st101 {
        fill: #9d5130;
        stroke: #9d5130;
      }

      .st102 {
        fill: #feffb6;
        stroke: #feffb6;
      }

      .st103 {
        fill: #f5bc65;
        stroke: #f5bc65;
      }

      .st104 {
        fill: #fadd86;
        stroke: #fadd86;
      }

      .st105 {
        fill: #f8b959;
        stroke: #f8b959;
      }

      .st106 {
        fill: #ffc52b;
        stroke: #ffc52b;
      }

      .st107 {
        fill: #46512c;
        stroke: #46512c;
      }

      .st108 {
        fill: #fd8c37;
        stroke: #fd8c37;
      }

      .st109 {
        fill: #facc69;
        stroke: #facc69;
      }

      .st110 {
        fill: #f5b46f;
        stroke: #f5b46f;
      }

      .st111 {
        fill: #ce6048;
        stroke: #ce6048;
      }

      .st112 {
        fill: #84412d;
        stroke: #84412d;
      }

      .st113 {
        fill: #74cf44;
        stroke: #74cf44;
      }

      .st114 {
        fill: #b74537;
        stroke: #b74537;
      }

      .st115 {
        fill: #844431;
        stroke: #844431;
      }

      .st116 {
        fill: #cc494e;
        stroke: #cc494e;
      }

      .st117 {
        fill: #fed8bb;
        stroke: #fed8bb;
      }

      .st118 {
        fill: #9a5619;
        stroke: #9a5619;
      }

      .st119 {
        fill: #fad580;
        stroke: #fad580;
      }

      .st120 {
        fill: #003928;
        stroke: #003928;
      }

      .st121 {
        fill: #7a3d2d;
        stroke: #7a3d2d;
      }

      .st122 {
        fill: #1f550f;
        stroke: #1f550f;
      }

      .st123 {
        fill: #af4a2f;
        stroke: #af4a2f;
      }

      .st124 {
        fill: #adeeff;
        stroke: #adeeff;
      }

      .st125 {
        fill: #f7ae77;
        stroke: #f7ae77;
      }

      .st126 {
        fill: #f5c07a;
        stroke: #f5c07a;
      }

      .st127 {
        fill: #f7702c;
        stroke: #f7702c;
      }

      .st128 {
        fill: #7f3f2d;
        stroke: #7f3f2d;
      }

      .st129 {
        fill: #ff9039;
        stroke: #ff9039;
      }

      .st130 {
        fill: #fce376;
        stroke: #fce376;
      }

      .st131 {
        fill: #d85351;
        stroke: #d85351;
      }

      .st132 {
        fill: #fec232;
        stroke: #fec232;
      }

      .st133 {
        fill: #f3ffc3;
        stroke: #f3ffc3;
      }

      .st134 {
        fill: #ecf5fd;
        stroke: #ecf5fd;
      }

      .st135 {
        fill: #adeefe;
        stroke: #adeefe;
      }

      .st136 {
        fill: #f7c86e;
        stroke: #f7c86e;
      }

      .st137 {
        fill: #864d1c;
        stroke: #864d1c;
      }

      .st138 {
        fill: #fb733d;
        stroke: #fb733d;
      }

      .st139 {
        fill: #ffffb7;
        stroke: #ffffb7;
      }

      .st140 {
        fill: #963e22;
        stroke: #963e22;
      }

      .st141 {
        fill: #7a3c2a;
        stroke: #7a3c2a;
      }

      .st142 {
        fill: #6f595b;
        stroke: #6f595b;
      }

      .st143 {
        fill: #fac260;
        stroke: #fac260;
      }

      .st144 {
        fill: #7f3c26;
        stroke: #7f3c26;
      }

      .st145 {
        fill: #fab263;
        stroke: #fab263;
      }

      .st146 {
        fill: #f8bf80;
        stroke: #f8bf80;
      }

      .st147 {
        fill: #f9ca7a;
        stroke: #f9ca7a;
      }

      .st148 {
        fill: #fffffe;
        stroke: #fffffe;
      }

      .st149 {
        fill: #abedfe;
        stroke: #abedfe;
      }

      .st150 {
        fill: #7a4222;
        stroke: #7a4222;
      }

      .st151 {
        fill: #fbd46c;
        stroke: #fbd46c;
      }

      .st152 {
        fill: #aeeeff;
        stroke: #aeeeff;
      }

      .st153 {
        fill: #7f3e2a;
        stroke: #7f3e2a;
      }

      .st154 {
        fill: #fbc662;
        stroke: #fbc662;
      }

      .st155 {
        fill: #00343d;
        stroke: #00343d;
      }

      .st156 {
        fill: #f6d468;
        stroke: #f6d468;
      }

      .st157 {
        fill: #f57730;
        stroke: #f57730;
      }

      .st158 {
        fill: #e65b33;
        stroke: #e65b33;
      }

      .st159 {
        fill: #9ed777;
        stroke: #9ed777;
      }

      .st160 {
        fill: #f5a85a;
        stroke: #f5a85a;
      }

      .st161 {
        fill: #f6b16b;
        stroke: #f6b16b;
      }

      .st162 {
        fill: #fbe073;
        stroke: #fbe073;
      }

      .st163 {
        fill: #f9c071;
        stroke: #f9c071;
      }

      .st164 {
        fill: #87422b;
        stroke: #87422b;
      }

      .st165 {
        fill: #7acf5f;
        stroke: #7acf5f;
      }

      .st166 {
        fill: #b0463f;
        stroke: #b0463f;
      }

      .st167 {
        fill: #734b49;
        stroke: #734b49;
      }

      .st168 {
        fill: #8d4a48;
        stroke: #8d4a48;
      }

      .st169 {
        fill: #f76f34;
        stroke: #f76f34;
      }

      .st170 {
        fill: #c75954;
        stroke: #c75954;
      }

      .st171 {
        fill: #b44840;
        stroke: #b44840;
      }

      .st172 {
        fill: #cb4d43;
        stroke: #cb4d43;
      }

      .st173 {
        fill: #f8ba72;
        stroke: #f8ba72;
      }

      .st174 {
        fill: #feffc3;
        stroke: #feffc3;
      }

      .st175 {
        fill: #032e4e;
        stroke: #032e4e;
      }

      .st176 {
        fill: #945a18;
        stroke: #945a18;
      }

      .st177 {
        fill: #844321;
        stroke: #844321;
      }

      .st178 {
        fill: #c1e8ff;
        stroke: #c1e8ff;
      }

      .st179 {
        fill: #fc8724;
        stroke: #fc8724;
      }

      .st180 {
        fill: #8d5313;
        stroke: #8d5313;
      }

      .st181 {
        fill: #e15935;
        stroke: #e15935;
      }

      .st182 {
        fill: #23560a;
        stroke: #23560a;
      }

      .st183 {
        fill: #afeffd;
        stroke: #afeffd;
      }

      .st184 {
        fill: #7e382b;
        stroke: #7e382b;
      }

      .st185 {
        fill: #f76e33;
        stroke: #f76e33;
      }

      .st186 {
        fill: #ffc42a;
        stroke: #ffc42a;
      }

      .st187 {
        fill: #773d26;
        stroke: #773d26;
      }

      .st188 {
        fill: #f9e96e;
        stroke: #f9e96e;
      }

      .st189 {
        fill: #5ba745;
        stroke: #5ba745;
      }

      .st190 {
        fill: #a05b6a;
        stroke: #a05b6a;
      }

      .st191 {
        fill: #002e1e;
        stroke: #002e1e;
      }

      .st192 {
        fill: #ffc136;
        stroke: #ffc136;
      }

      .st193 {
        fill: #7b3a2d;
        stroke: #7b3a2d;
      }

      .st194 {
        fill: #7a3a2a;
        stroke: #7a3a2a;
      }

      .st195 {
        fill: #6e3b2c;
        stroke: #6e3b2c;
      }

      .st196 {
        fill: #7f4058;
        stroke: #7f4058;
      }

      .st197 {
        fill: #f0a465;
        stroke: #f0a465;
      }

      .st198 {
        fill: #ec7d5b;
        stroke: #ec7d5b;
      }

      .st199 {
        fill: #e5a958;
        stroke: #e5a958;
      }

      .st200 {
        fill: #f8b378;
        stroke: #f8b378;
      }

      .st201 {
        fill: #faba6f;
        stroke: #faba6f;
      }

      .st202 {
        fill: #d75336;
        stroke: #d75336;
      }

      .st203 {
        fill: #ce6d64;
        stroke: #ce6d64;
      }

      .st204 {
        fill: #f06632;
        stroke: #f06632;
      }

      .st205 {
        fill: #d18067;
        stroke: #d18067;
      }

      .st206 {
        fill: #ffcfaa;
        stroke: #ffcfaa;
      }

      .st207 {
        fill: #022e4d;
        stroke: #022e4d;
      }

      .st208 {
        fill: #afe383;
        stroke: #afe383;
      }

      .st209 {
        fill: #aceefe;
        stroke: #aceefe;
      }

      .st210 {
        fill: #ff8e37;
        stroke: #ff8e37;
      }

      .st211 {
        fill: #cd4349;
        stroke: #cd4349;
      }

      .st212 {
        fill: #ffae93;
        stroke: #ffae93;
      }

      .st213 {
        fill: #74c45c;
        stroke: #74c45c;
      }

      .st214 {
        fill: #804824;
        stroke: #804824;
      }

      .st215 {
        fill: #f5a869;
        stroke: #f5a869;
      }

      .st216 {
        fill: #515e21;
        stroke: #515e21;
      }

      .st217 {
        fill: #f7b654;
        stroke: #f7b654;
      }

      .st218 {
        fill: #f9cc66;
        stroke: #f9cc66;
      }

      .st219 {
        fill: #fc7d54;
        stroke: #fc7d54;
      }

      .st220 {
        fill: #495d0b;
        stroke: #495d0b;
      }

      .st221 {
        fill: #fabe74;
        stroke: #fabe74;
      }

      .st222 {
        fill: #236419;
        stroke: #236419;
      }

      .st223 {
        fill: #e1725f;
        stroke: #e1725f;
      }

      .st224 {
        fill: #357523;
        stroke: #357523;
      }

      .st225 {
        fill: #022e29;
        stroke: #022e29;
      }

      .st226 {
        fill: #a44d35;
        stroke: #a44d35;
      }

      .st227 {
        fill: #abeefe;
        stroke: #abeefe;
      }

      .st228 {
        fill: #f1784d;
        stroke: #f1784d;
      }

      .st229 {
        fill: #f5b76e;
        stroke: #f5b76e;
      }

      .st230 {
        fill: #54680e;
        stroke: #54680e;
      }

      .st231 {
        fill: #59a744;
        stroke: #59a744;
      }

      .st232 {
        fill: #fb7759;
        stroke: #fb7759;
      }

      .st233 {
        fill: #c74f4f;
        stroke: #c74f4f;
      }

      .st234 {
        fill: #f7c070;
        stroke: #f7c070;
      }

      .st235 {
        fill: #e1b755;
        stroke: #e1b755;
      }

      .st236 {
        fill: #ea8d6d;
        stroke: #ea8d6d;
      }

      .st237 {
        fill: #eb9668;
        stroke: #eb9668;
      }

      .st238 {
        fill: #ef7f4e;
        stroke: #ef7f4e;
      }

      .st239 {
        fill: #faec8e;
        stroke: #faec8e;
      }

      .st240 {
        fill: #0a2e32;
        stroke: #0a2e32;
      }

      .st241 {
        fill: #fab658;
        stroke: #fab658;
      }

      .st242 {
        fill: #dd4f3c;
        stroke: #dd4f3c;
      }

      .st243 {
        fill: #f79a5e;
        stroke: #f79a5e;
      }

      .st244 {
        fill: #b66363;
        stroke: #b66363;
      }

      .st245 {
        fill: #fa894a;
        stroke: #fa894a;
      }

      .st246 {
        fill: #f6ba7c;
        stroke: #f6ba7c;
      }

      .st247 {
        fill: #f5c653;
        stroke: #f5c653;
      }

      .st248 {
        fill: #f2bd52;
        stroke: #f2bd52;
      }

      .st249 {
        fill: #fdffa1;
        stroke: #fdffa1;
      }

      .st250 {
        fill: #fa975e;
        stroke: #fa975e;
      }

      .st251 {
        fill: #7b3b26;
        stroke: #7b3b26;
      }

      .st252 {
        fill: #f3b878;
        stroke: #f3b878;
      }

      .st253 {
        fill: #793b2c;
        stroke: #793b2c;
      }

      .st254 {
        fill: #002d33;
        stroke: #002d33;
      }

      .st255 {
        fill: #9d611b;
        stroke: #9d611b;
      }

      .st256 {
        fill: #fdfea0;
        stroke: #fdfea0;
      }
    </style>
  </defs>
  <path class="st98" d="M310.6,142.5c2.7-3.7,7.8-6,12.3-4.5,3.4,1.1,4.4,5.2,7.5,6.8,3.4,2.4,8.1.8,11.5,3.2,3.3,2.3,2.4,7.3,5.7,9.6,2.5,1.8,5.3,4.7,8.6,3.3,6.1-1.9,11.5,3.1,13.9,8.3,8.1,1.7,15.9,4.6,24,6.6,6.2-8.3,13.2-16.7,23-20.9,3-1.2,7.4-2.2,9.4,1.1.4,4.9-1.5,9.6-2.3,14.3-.9,5.7-3.4,11.1-3.7,16.9,3.3,1.1,6.3,3,9.6,4.4,7.5-2.6,15.4-6.9,23.6-4.7,4.4,1.9,3.9,7.5,2.6,11.3-1.2,2.5-2,5.8-4.8,7.1-2.6,1.1-4.9,2.7-6.1,5.4-4.9,3.6-10.8,5.5-16.3,8.1-7,3.8-14.6,6.1-21.9,8.9-.3.1-.9.3-1.1.5-1.8-.7-3.5.1-4.9,1.2-2.5,1.5-5.4,2.2-7.4,4.3-4.7,4.6-9.9,8.5-15.2,12.4.2,2.1.4,4.1.5,6.1,1.7.3,3.4.7,5.1,1.1.7.2,2,.5,2.7.6l.4-1.4c.6.7,1.3,1.5,2,2.2,2.8,1,5.4,2.5,6.7,5.2-1.8,4.1-6.3,5.5-10.2,6.8-6,2.2-12.2,3.6-18.4,5.1-5.2,3.1-10.2,6.6-15.6,9.2-11.5,5.8-23.8,9.9-36.3,12.9-2.8.7-5.7,1-8.6,1.1.4-.3,1-.9,1.4-1.2,6.5-1.5,13-2.9,19.4-4.9,6.3-1.8,12.4-4.3,18.4-7,6-2.7,11.9-5.8,17.6-9.3-8.8.6-17.6,1.5-26.4,0-14.8,8.5-30.6,15.2-46.9,19.9-2.5.7-5.1,1.2-7.7,1.6-1.9-.6-3.7-1.2-5.6-1.8,7.6-1.8,15.3-3.7,22.7-6.3,6.9-2.2,13.6-5,20.3-7.9,3.2-.5,6.3-1.8,8.6-4.2,3.5-2,7-3.9,10.5-6,6.3-3.6,12.2-7.8,18.2-11.8,3.2-2.2,6.9-3.7,10.8-4.6,4.4-5.5,10.8-8.8,15.7-13.7.4-1.5.4-3.1.5-4.6,11.1-5.5,23.3-8.2,34.7-12.9,7.7-3.8,15.6-7.1,23.3-10.9,5.9-2.6,10.3-8,11.8-14.2.1-2,.8-5.1-1.5-6.2-3.1-.7-6.6-.4-9.4,1.1-5.9,3.5-11.9,7.3-18.7,8.4-3.2-.1-8.2.6-9.4-3.3.7-6.7,3.5-12.9,5-19.4,1.5-6.3,3.8-12.6,4.1-19.1-2.4,0-4.9.1-6.9,1.4-7.2,3.8-13,9.7-17.9,16.1-4.7,6.9-9.5,13.8-13.6,21.1-1.7,2.9-4,5.3-6.4,7.6-7.3,4.1-15.2,7.6-23.6,8.2-.1,3.3-.4,6.8.6,10,.9,1.6,1.8,3.1,2.7,4.7-3.9-3.7-5.7-9-5.1-14.3-.7.2-2.2.6-2.9.8-.8,4.2,0,8.4.9,12.6-.7-1.2-1.4-2.5-2-3.8,0-2.9.1-5.8.2-8.6-4.3.6-8.6,1.2-12.9,1.8h-.9c-3.8.5-7.7.7-11.5,1.1-12,.1-23.9.3-35.8,0-19.2,0-38.6-1.1-57.6,2.6-14,2.1-27.3,7.2-40.3,12.5-7.3,4.4-15.4,7.5-22.4,12.2,0,2.3,3.8,2.4,5.4,3.5.8.3,1.6.7,2.5,1-1.7.5-3.3,1.1-5,1.6-1.9-1.6-3.7-3.5-6.1-4.2-1.7.3-3.2,1.3-4.6,2.2-6.9,4.3-14.1,8-21.1,12.1-2.6,1.5-5.2,3-7.8,4.6-2,1.2-3.9,2.4-5.8,3.6-2.5,1.5-5,3.1-7.4,4.6-3.1,1.9-6.1,4-9,6.1,0-.3-.2-.8-.3-1.1,1-1.3,2.3-2.5,2.7-4.2,3.2-2.1,6.5-3.9,9.8-5.9,2.2-1.4,4.4-2.7,6.6-3.9-8.2-5.7-15.3-13.7-17.7-23.7.2-3,.8-6,1.3-8.9.7,12.5,7.8,25,19.5,30.2,3.4-1.1,6.1-3.6,9.3-5.1,8.5-4.4,16.7-9.2,24.8-14.3,10.7-5.7,21.3-11.8,32.6-16.2-.1-4.4-.8-8.8-2.3-12.9.5-1.3,1-2.7,1.6-4l.4.7c2.1,4.7,2.8,9.8,4,14.8,8.3-3,16.8-5.6,25.5-7.5,2.3-.4,4.5-.8,6.8-1.2,3.7,0,7.5-.1,11.2-.4-1.4-.2-2.7-.5-4.1-.6,1.1-.1,2.2-.2,3.3-.3.9-1.1,1.8-2.2,2.7-3.3,5.8-6.5,7.7-15.9,5.9-24.4-1.3-8.1-6.5-14.8-12.1-20.3-2.3-2-4.7-3.7-7.2-5.3,0-.1,0-.3,0-.4,0-.7-.2-2.1-.3-2.8,8.6-.6,17.3-.1,26-.2,3.4-3.8,7.4-7.9,12.9-7.6,5-.5,9,3,13,5.4,2.9.9,5.3-1.5,7.8-2.5,4.1-2.2,8.4,3,12.3.3,3-2,3-6.3,5.4-8.9Z"/>
  <path class="st60" d="M314.4,142.5c1.9-2.3,5.2-2.8,8-1.8,2.5,1.9,3.7,5.1,6.5,6.5,3.2,2.4,7.6.7,11,2.6,1.4.8,1.7,2.6,2.3,4,1.6,4.6,5.1,8.6,9.6,10.5,3.3.5,6.8-1.9,9.9,0,3,1.6,4.8,4.7,5.7,7.8-.1.5-.4,1.5-.6,1.9-3.6,0-7.2-.4-10.8-.8-.3,1.8-.6,3.5-.8,5.3-.2,2.3-1.2,5.1.9,6.8.1-1,.4-2.9.5-3.8,2.3,1.7,4.5,3.4,6.7,5.2.4-.5.8-1,1.2-1.5,0,2.8-.9,6,.3,8.7,2.7,3.1,9,3.4,8.9,8.6-8,3.2-16.4,5.6-25,6.2.7-.4,1.4-.9,2-1.3-3.8-1.6-7.6-3.1-11.6-4.1-.3-2.6-1-5.1-3-6.9.4-1.7-.5-2.3-2.1-2-2.2,2.5-1.4,5.8-.6,8.6-3.2,0-6,1.7-8.9,2.8-3.6.3-7.1-1-10.7-.4-2.3.2-4.8,1.4-7,0,.3-5.7-2.8-11.3-.7-16.9,2.5-.7,5-1.6,7.6-1.1,3.7.5,7.6,2.5,11.3.8.2-.7.5-2.1.7-2.8-4,.6-8.1.3-12-.7-4.4-.9-10.7,1.1-11.2,6.3-1.1,5.3,3,10.5.8,15.6-2.6,0-5.2,0-7.8-.5-1.2-.2-2.4-.5-3.5-.7-1.4-1.5-3-2.8-3.9-4.7-.2-5.2,2.2-10.3,1.4-15.6-.4-1.3-2.1-1.4-3.1-2.1-1-.5-2-1-3-1.5-.6,0-1.7.2-2.2.3-1.9.4-3.7,1.1-5.6,1.8-.5-.2-1.4-.5-1.9-.7-4.5-2.5-9.9-1.6-14.2.8-2.8-.8-3.5-4-4-6.5-.6-3.3.6-6.7,2.8-9.2h1.6c.6.9,1.2,1.9,1.8,2.8,1.2-1.5,2.3-3.1,3.5-4.6-.7.2-2.1.4-2.8.6-.4-.8-1.1-2.2-1.4-3-.6.3-1.8.8-2.4,1.1-.3-.5-1-1.6-1.3-2.1,3.3-5.5,8.2-12.2,15.4-11.6,4.7-.1,7.8,4,12,5.3,3.4.7,6.2-1.5,9-2.9,3.9-1,7.6,3.1,11.4,1,5.1-2.1,5.2-8.6,9-12.1Z"/>
  <path class="st0" d="M314.8,150.1c.7-2.4,1.8-6,5-5.7-1.3,1.8-2.4,3.7-3.6,5.6.3.3.8.9,1,1.1l.7.8c-1.1,0-4,0-3.2-1.8Z"/>
  <path class="st15" d="M319.8,144.4c.3-.1,1-.4,1.3-.5-.4,2.8-2.2,5-3.9,7.2-.3-.3-.8-.8-1-1.1,1.1-1.9,2.3-3.8,3.6-5.6Z"/>
  <path class="st254" d="M184.1,158.9c10.9-11.3,29.2-12.3,43.1-6.2,2.1,1,4.4,1.7,5.9,3.5,0,.7.2,2.1.3,2.8-4.3-2.6-9-4.5-13.8-5.8-9.7-3.2-20.5-.9-29.2,4.2-5.5,3.5-9.1,9-12.9,14.2-3.2,4.5-3.7,10.3-3.9,15.6.5.2,1.5.6,2,.8-.3.6-.8,1.7-1.1,2.3-10.1-4.4-21.4-7.4-32.4-4.9-8.3,1.2-15.9,5.9-21.4,12.2-3.9,5.1-6.6,11.1-7.9,17.4-.4,2.2-.9,4.4-1.3,6.6-.8-3.6-.9-7.3-.6-11,3.4-13,14-23.6,26.9-27.3,10.7-2.6,22.1-1.7,32.3,2.4.4-6.1,2.5-11.9,6-16.9,3.5-2.5,5.6-6.3,7.9-9.9Z"/>
  <path class="st106" d="M190.4,157.4c8.6-5.2,19.4-7.4,29.2-4.2,1.4,1,2.8,2.1,4.1,3.3-.1.3-.4.8-.6,1.1-1.5,1.5.3,3.1,1.8,3.2.3-.4.8-1.3,1.1-1.8.2-.4.8-1.3,1-1.7,2.6,1,4.8,2.8,6.3,5.1l.5.7c-1.6,0-3.2,0-4.8.1v.7c.2.5.3,1.5.4,2,1.1,1.3,2.4,2.6,3.6,3.8.6-.6,1.2-1.2,1.8-1.8,1.9-.2,3.7-.5,5.6-.7,0,.4,0,1.1,0,1.5-.2.4-.5,1.3-.7,1.7-3.9.6-4.9,7.7-.7,8.3.9-.3,1.7-.8,2.5-1.2.6,1.2,1.3,2.4,2.4,3.3.3.2.8.7,1,1,.8-1.9,1.5-3.8,2.2-5.6,2.8,5.6,5,11.8,4,18.1-.2,5.4-3.5,10-4.5,15.2-.9,1.1-1.8,2.2-2.7,3.3-1.1,0-2.2.2-3.3.3-2.4.2-4.7.6-7.1,1-2.3.4-4.6.8-6.8,1.2-10.2.2-20.8-1.6-29.5-7.3l-.4-.7c-4.9-8.4-12.4-15.6-21.5-19.1-.5-.2-1.5-.6-2-.8.2-5.4.7-11.1,3.9-15.6,3.8-5.2,7.4-10.7,12.9-14.2Z"/>
  <path class="st23" d="M219.6,153.2c4.9,1.2,9.5,3.2,13.8,5.8,0,.1,0,.3,0,.4,0,.8,0,2.3-.1,3-1.6-2.3-3.8-4-6.3-5.1-.2.4-.8,1.3-1,1.7-.8-.7-1.8-1.2-2.9-1.4.1-.3.4-.8.6-1.1-1.3-1.2-2.6-2.3-4.1-3.3Z"/>
  <path class="st191" d="M320.9,152.8c2.4.9,4.6,2.5,7.2,3-2,3.8-6.6-.1-7.2-3Z"/>
  <path class="st25" d="M208.8,154.6c2.5.7,4.9,1.6,7.2,2.8.5.2,1.4.7,1.9.9,1,.7,1.8,1.6,2.6,2.4-1.9-.5-3.5.6-4.5,2.1-1.2-.2-2.4-.3-3.6-.5.1-.8.3-1.7.4-2.5.8.4,2.4,1.2,3.1,1.6,0-.4,0-1.3,0-1.7-1-.5-2-.9-3.1-1.3-1.8-.8-4.2-1.3-4.2-3.7Z"/>
  <path class="st212" d="M216,157.4l.8-.5,1,.5v.9c-.4-.2-1.3-.7-1.8-.9Z"/>
  <path class="st31" d="M277.1,161c-1.2-1.4-3.3-2.8-2.5-4.9,2.2,1.4,4.4,2.8,5.9,4.9.1,2.8-2.6,1.2-3.4,0Z"/>
  <path class="st166" d="M416.8,157.9c2.1-1.3,4.6-1.3,6.9-1.4-.4,6.6-2.6,12.8-4.1,19.1-1.6,6.5-4.4,12.7-5,19.4,1.2,3.9,6.2,3.2,9.4,3.3,6.8-1.1,12.8-5,18.7-8.4,2.9-1.5,6.3-1.8,9.4-1.1,2.3,1.1,1.6,4.2,1.5,6.2-1.5,6.2-6,11.6-11.8,14.2-1.5-1-2.9-2-4.4-3.1,4-3.5,8.7-6.3,11.6-10.8-2.4,2.2-4.6,4.5-7.2,6.4-.4-.7-1.2-2.1-1.6-2.9,1.9-2.1,3.6-4.4,3.9-7.2-2.9,2.3-4.8,5.5-7.5,8-2.7,2.4-5.4,4.7-8,7.1-1.3.8-2.6,1.7-3.9,2.5-.6-.4-1.7-1.1-2.3-1.5,4-3.4,8.1-6.7,11.6-10.7-2.9,1.8-5.4,4.2-8,6.4-1.3-1.1-2.6-2.3-3.9-3.4-1.2.6-2.3,1.4-3.4,2.2-1.1-.8-2.1-1.6-3.2-2.3l-.8-.3c-.9,0-1.7-.1-2.5-.2-.3-.2-.9-.6-1.2-.9.7-1,1.3-2,1.9-3.1-.8-.3-1.6-.2-2.4.3l-.5-.6c-.5,0-1.6.2-2.1.2,2.6-5.6,6.1-10.8,7.8-16.8-.4-.3-1-.8-1.4-1-.3-.2-.8-.6-1.1-.8.7-1.6,1.2-3.4,1.8-5.1-5.1,5.2-7.4,12.5-10.7,18.8-.3-.6-1-1.7-1.4-2.2,2.8-6.1,6-12,9.6-17.6,2.1-3.2,4.7-6.1,6.2-9.6-3.8,4.8-7.5,9.7-10.5,15-3.4,5.8-6,11.9-9.4,17.6-.5-.6-1.4-1.7-1.9-2.3,1.9-5.6,4.7-10.8,7.8-15.8,1.2-2.2,3.1-4.4,2.4-7.1-3.9,4.6-6.4,10.1-9.2,15.4-3.2,6.1-4.1,13.4-9.1,18.4.5-2.3,1.2-4.6,2.1-6.8,1.7-1.3,2.8-3.4,1.8-5.5-1,.8-1.5,2-1.8,3.2v-2c-1.7,3-2.5,6.4-4.1,9.5-.5-1.9-1-3.8-1.5-5.8,4.1-7.3,8.9-14.2,13.6-21.1,4.9-6.4,10.7-12.3,17.9-16.1Z"/>
  <path class="st212" d="M213,158.3c1.1.3,2.1.8,3.1,1.3,0,.4,0,1.3,0,1.7-.8-.4-2.4-1.2-3.1-1.6,0-.4.1-1.1.2-1.4Z"/>
  <path class="st188" d="M224.9,160.8c-1.6-.1-3.3-1.7-1.8-3.2,1.1.2,2.1.7,2.9,1.4-.3.4-.8,1.3-1.1,1.8Z"/>
  <path class="st175" d="M181.8,161.2c.7-.8,1.5-1.6,2.3-2.3-2.3,3.5-4.4,7.4-7.9,9.9.2-.4.5-1.1.6-1.4-31.7,4.9-63.2,13.6-91.5,29.1-13,7-25,16.2-34.1,27.9-8.1,10.2-13,23.7-10.2,36.8,3.2,15.9,14.5,28.9,27,38.7,20,15.8,43.9,25.8,68.2,33,41.4,12.3,84.8,16.6,127.9,16.1,22.4-.5,44.9-1.9,67-5.9,26.6-4.4,52.9-11.3,77.5-22.4,18.8-8.6,36.9-19.8,50.2-35.8,7.9-9.7,13.6-22.1,12.5-34.8-1.3-13.4-9-25.3-18.6-34.4-2.4-1.7-4.1-5.4-7.4-5,1.1-2.7,3.5-4.3,6.1-5.4.9,3,4,4.5,5.9,6.7,12.3,11.4,21.9,27.5,20.6,44.7-1.1,14.6-8.9,27.7-19,38-13.2,13.8-30,23.6-47.2,31.7-27.5,12.4-57.1,19.7-87,24.1-23.3,3.4-46.9,4.6-70.5,4.9-22.1-.6-44.2-1.7-66.1-4.8-35.7-5.4-71.5-14.5-103.4-32-15.3-9-30.4-19.5-40.6-34.4-7.3-10.5-11.5-23.3-10.1-36.1,2.4-16.4,13-30.3,25.4-40.7,13.2-11,28.5-19.1,44.3-25.7,25-10.3,51.5-16.7,78.2-20.2Z"/>
  <path class="st15" d="M195.2,159.3c2.4.2,4.8.7,7.1,1.5-.4.4-1.3,1.2-1.8,1.6-1.6-.4-3.3-.9-4.9-1.3-.1-.4-.3-1.3-.4-1.7Z"/>
  <path class="st50" d="M233.3,162.4c0-.8,0-2.3.1-3,2.5,1.6,5,3.3,7.2,5.3-2.1,2.5-5.4.6-6.9-1.6l-.5-.7Z"/>
  <path class="st247" d="M191.3,164.7c-1.8-2.5,2.4-3.9,4.3-3.7,1.6.4,3.2.9,4.9,1.3-1,.4-2,.9-3.1,1.3-1.7,1.4-4.1,2.5-6.1,1Z"/>
  <path class="st33" d="M203.2,167c-.3-2.9,1.9-5.6,4.8-6.1.3,3.2-2.2,4.9-4.8,6.1Z"/>
  <path class="st9" d="M241.1,161.4c4.4-.3,8.8-.4,13.2,0-2.4,1.3-5.1,2.1-7.1,4.1-1.3,1-2.4-.6-3.1-1.6-1-.8-2-1.7-3.1-2.5Z"/>
  <path class="st80" d="M303.2,163c.8-2,2.9-2.3,4.8-2.2,1.2,0,3.4.1,2.7,1.9-2.5.6-5,.5-7.5.4Z"/>
  <path class="st15" d="M327,168.1c.4-2.6.6-6.4,3.8-7.1-.4,2.7-1.5,5.4-3.8,7.1Z"/>
  <path class="st15" d="M408.3,176.1c3-5.3,6.7-10.2,10.5-15-1.6,3.5-4.1,6.4-6.2,9.6-3.7,5.6-6.9,11.5-9.6,17.6-3.6,6.5-5.8,13.9-10.7,19.6,2.3-4.7,4.7-9.3,6.7-14.2,3.4-5.7,6-11.9,9.4-17.6Z"/>
  <path class="st82" d="M271.3,162c2.8,1.7,3.6,6,3,9-2.4-2.4-2.8-5.8-3-9Z"/>
  <path class="st122" d="M293.4,165.4c1.1-2.1,3.2-3.1,5.2-4.3.1,1,0,1.9-.2,2.8-1.7.5-3.3,1-5,1.4Z"/>
  <path class="st28" d="M192.3,163.3c.8-.7,3.3-.9,3.3.5-.8.8-3.3.9-3.3-.5Z"/>
  <path class="st192" d="M229.1,163.1c1.6,0,3.2,0,4.8-.1,1.5,2.2,4.7,4,6.9,1.6,5.6,5.6,10.9,12.3,12.1,20.3,1.8,8.4-.1,17.9-5.9,24.4,1-5.2,4.2-9.8,4.5-15.2,1-6.3-1.2-12.5-4-18.1-.7,1.9-1.5,3.8-2.2,5.6-.3-.2-.8-.7-1-1,3-2,0-5.5-2.2-6.6,0,.8-.1,2.5-.2,3.3-.8.4-1.6.9-2.5,1.2-4.2-.6-3.3-7.7.7-8.3-.9,2.4-1.7,4.9-2.3,7.4,2.9-1.4,3.2-4.9,3.9-7.7-.2-.4-.7-1.1-1-1.4,0-.4,0-1.1,0-1.5-1.9.2-3.7.5-5.6.7-1.9-1.3-3.8-2.6-5.7-4v-.7Z"/>
  <path class="st24" d="M249.9,167c2.4-1.6,5.2-2.7,7.7-4.2.3.5,1,1.6,1.3,2.1,0,1-.2,2-.2,3.1-2.2,2.5-3.4,5.8-2.8,9.2.5,2.5,1.2,5.7,4,6.5-1.3.3-2.6.7-3.9,1-1.2-4.5-3-8.9-5.6-12.9-.8-1.3-2.2-3.5-.4-4.7Z"/>
  <path class="st25" d="M229.2,163.8c1.9,1.4,3.8,2.7,5.7,4-.6.6-1.2,1.2-1.8,1.8-1.2-1.2-2.5-2.5-3.6-3.8,0-.5-.2-1.5-.3-2Z"/>
  <path class="st159" d="M258.9,164.8c.6-.3,1.8-.9,2.4-1.1.4.8,1.1,2.2,1.4,3v1c-.7,0-1.9,0-2.5.1h-1.6c0-.9.1-2,.2-3Z"/>
  <path class="st69" d="M293.4,165.4c1.7-.5,3.4-.9,5-1.4-.1.5-.4,1.6-.6,2.2-1.5,0-2.2.6-2,2-.9-.8-1.7-1.8-2.5-2.7Z"/>
  <path class="st76" d="M301.2,167.9c.9-1.8,2.4-3.2,4.3-3.8,0,.6,0,1.7,0,2.2-1.4.6-2.8,1.2-4.3,1.6Z"/>
  <path class="st15" d="M340.1,164c3,1,3.8,5.1,4.4,7.9-2.9-1.6-3.7-4.9-4.4-7.9Z"/>
  <path class="st15" d="M262.7,166.7c.7-.1,2.1-.4,2.8-.6-1.1,1.6-2.3,3.1-3.5,4.6-.6-1-1.2-2-1.8-2.9.6,0,1.8,0,2.4-.1v-1Z"/>
  <path class="st222" d="M295.8,168.1c-.2-1.4.5-2,2-2,.5,1.7-.1,2.4-2,2Z"/>
  <path class="st67" d="M85.4,196.4c28.3-15.4,59.8-24.2,91.5-29.1-.2.4-.5,1.1-.6,1.4-3.4,5-5.6,10.9-6,16.9-10.2-4.1-21.6-5-32.3-2.4-12.9,3.7-23.5,14.3-26.9,27.3-1.4,4.2-1.9,8.7-2.4,13.1-8,6.9-14.3,16.6-15.2,27.3-.7,9.6,3.3,18.9,9.4,26.1,2.9,4.1,7.3,6.7,10.4,10.6-.4.1-1.2.4-1.5.5-2.5.6-5,1.2-7.5,1.6-3,.5-6.7,1.1-8.1,4.2-.6,3,.5,6,1.9,8.6-.6,2.7-.2,5.5.5,8.1-14.9-7.6-29.5-17-39.8-30.4-5.9-7.6-10.3-16.7-11-26.4-.4-4.1.6-8.1,1-12.2-2.2,2.2-2.5,5.4-2.8,8.3-.9,10.4,2.2,20.8,7.8,29.5,6.8,10.5,16.5,18.9,27,25.8,27.1,17.4,58.4,26.8,89.7,33,22.7,4.4,45.8,6.9,68.9,7.5,50.3,1.8,101.3-3.5,149.1-19.9,21.6-7.9,43-18.1,59.8-34.2,11.2-10.8,19.4-26,17.9-41.9-.4-2.7-.3-6.5-3.1-7.9,3.7,12.8-1,26.5-8.7,36.9-11.9,15.9-29.4,26.5-47.1,34.8-25.4,11.5-52.6,18.3-80,22.7-15.2,2.6-30.5,3.8-45.9,4.7-52.7,2.2-106.3-2.3-156.5-19.4,5.1-.9,10.3-.4,15.5-.5,11.3-.2,22.7.1,34-.4,18-.7,35.9,2.8,53.9,2.5,6.8-.2,13.7.5,20.5-.9,40.8.5,82.4-3.6,120.4-19,11.7-4.8,23-11,32.5-19.3,7.1-6.2,13.2-14.1,15.6-23.3,2-8.4.6-17.7-4-25.1,5.6-3.2,12-4.5,17.8-7.3,7.6-3.6,15.7-6.9,21.7-13.1,9.6,9.1,17.2,21,18.6,34.4,1.1,12.8-4.6,25.1-12.5,34.8-13.3,16.1-31.4,27.2-50.2,35.8-24.6,11-50.9,18-77.5,22.4-22.1,3.9-44.6,5.4-67,5.9-43.1.6-86.5-3.8-127.9-16.1-24.2-7.3-48.2-17.2-68.2-33-12.4-9.9-23.8-22.8-27-38.7-2.8-13.1,2.1-26.6,10.2-36.8,9.1-11.7,21.2-20.8,34.1-27.9Z"/>
  <path class="st10" d="M206.8,168.3c2.6.6,3.8,2.9,4.8,5.1l-1,.3c-.9-2-2.3-3.7-4-5.1,0,2.3,1.2,4.3,2.1,6.3-1.2-1-2.3-2.2-3.2-3.4.4-1.1.8-2.2,1.2-3.2Z"/>
  <path class="st25" d="M206.7,168.6c1.7,1.4,3.1,3.1,4,5.1l.4.8c-.6.1-1.7.3-2.3.4-.9-2-2.1-4-2.1-6.3Z"/>
  <path class="st102" d="M218.4,173.1c3.4-.4,6-3.2,9.4-3.8l-.6.3c-1.9,1-4.5,1.8-4.7,4.4,1.9-.5,3.7-1,5.6-1.6l.9-.2c-2.3,1.6-5.4,3.3-8.1,1.5-2.2-1.2-4.2.8-6.3,1.2,0-1.4,0-2.9,0-4.3,1.2-.2,2.4-.3,3.5-.5,0,.8.2,2.3.3,3Z"/>
  <path class="st25" d="M240.5,168.6c.2.4.7,1.1,1,1.4-.7,2.8-1,6.3-3.9,7.7.6-2.5,1.4-5,2.3-7.4.2-.4.5-1.3.7-1.7Z"/>
  <path class="st121" d="M398,184c2.8-5.3,5.3-10.8,9.2-15.4.6,2.7-1.2,4.9-2.4,7.1-3.1,5-5.9,10.2-7.8,15.8-2,5.4-4.8,10.6-8.2,15.3-.2-.6-.6-1.8-.8-2.4.2-.5.6-1.5.9-2,5-5,5.9-12.4,9.1-18.4Z"/>
  <path class="st230" d="M222.5,174c.2-2.5,2.8-3.3,4.7-4.4l1,1.2-.2,1.5c-1.8.6-3.7,1.1-5.6,1.6Z"/>
  <path class="st37" d="M315.9,171.1c2.1-1.3,4.7-1,7.1-.7,2.8.7,4.4,3.5,6.9,4.9,3.4-.3,7-.5,10.3.6,2.8,1,4.9,3.6,8,3.7-1.2,2.2-5.1,3.5-6.2.5-3.3-4-8.6-1.8-12.9-1.8-2.6-1.6-4.5-4.1-6.8-6-3.8-.3-6.6,2.3-9.5,4.3-3.1.9-4.7-3-5.7-5.2,1.6-.8,2.5.3,3.2,1.6,2,1,3.8-1.4,5.7-2Z"/>
  <path class="st227" d="M420.3,187.1c.3-5.8,2.8-11.2,3.7-16.9,2.2,5.8-.4,12.1-3.7,16.9Z"/>
  <path class="st25" d="M193.7,172.1c2.5-2.7,4.6,2.3,3.8,4.4-1.3-1.5-2.5-3-3.8-4.4Z"/>
  <path class="st162" d="M200.3,171.2c2-1.2,2.9,3.2.9,3.5-1.4-.4-1.8-2.5-.9-3.5Z"/>
  <path class="st88" d="M310.3,173.1c1.9-.5,3.8-1.1,5.7-2-1.8.6-3.7,2.9-5.7,2Z"/>
  <path class="st133" d="M346.4,171.4c2.2,0,4.4-.3,6.5.5-1.8,1.6-4.2,1.3-6.4,1.4,0-.5,0-1.4,0-1.9Z"/>
  <path class="st94" d="M192.1,172.5c.4,0,1.2-.3,1.6-.4,1.4,1.4,2.6,2.9,3.8,4.4l.2.3c-.5,0-1.4-.3-1.9-.4-1.2-1.4-2.5-2.6-3.8-3.9Z"/>
  <path class="st45" d="M265.2,175.9c-.8-2.6,3.4-3.6,5.3-4.4.5,2.8-3,4.3-5.3,4.4Z"/>
  <path class="st191" d="M274.1,173.6c2.8-.3,5.6-1,8.5-1,.9.7.9,2,1.3,3-.9,1.3-2.1,2.9-3.5.9.4-.3,1.1-.9,1.5-1.2-2,.1-3.9.2-5.9.3-.7-.7-1.3-1.3-2-2Z"/>
  <path class="st74" d="M367.5,172.1c.9,4.5-.4,9.3-2.8,13.2-.4.5-.8,1-1.2,1.5-2.2-1.8-4.4-3.5-6.7-5.2,0-.4,0-1.2,0-1.6-.4-.4-1.1-1.1-1.5-1.4.2-1.8.5-3.5.8-5.3,3.6.4,7.2.7,10.8.8.1-.5.4-1.5.6-1.9Z"/>
  <path class="st187" d="M404.2,190.6c3.4-6.4,5.6-13.6,10.7-18.8-.5,1.7-1.1,3.4-1.8,5.1-2.8,5.4-5.6,10.8-8,16.5-2,4.9-4.9,9.3-6.6,14.3,4.1-4,6.1-9.4,8.5-14.5,2.4-5.2,5.3-10.1,7.1-15.4.4.3,1,.8,1.4,1-1.7,6-5.1,11.2-7.8,16.8-1.4,4.3-4.6,7.6-5.9,11.9-1.6-.2-2.2.3-1.9,1.8,1.1.2,1.8-.4,1.9-1.8,3.5-3.3,5.9-7.5,8.5-11.6.8-.6,1.6-.7,2.4-.3-.5,1.1-1.2,2.1-1.9,3.1-3.5,4.8-6.9,9.7-11.1,13.9l-1.9.4c.4-.8,1.2-2.4,1.6-3.2-1.4,1.2-2.9,2.3-4.4,3.5l.4-2c2.5-7,5.5-13.7,8.5-20.5Z"/>
  <path class="st130" d="M241.9,174.1c2.3,1.1,5.2,4.6,2.2,6.6-1.1-.9-1.8-2.1-2.4-3.3,0-.8.1-2.5.2-3.3Z"/>
  <path class="st183" d="M276,175.6c2,0,3.9-.2,5.9-.3-.4.3-1.1.9-1.5,1.2-1.5-.3-3-.2-4.4-.9Z"/>
  <path class="st148" d="M370.6,179.6c0-1.7.7-3.4,1.1-5,6.3,2.4,12.9,3.9,19.2,6.1-2.1,4.2-5,7.8-7.5,11.7-2,2.8-3.6,6-6.3,8.2-1.3-1.6-2.7-3.2-4.1-4.6.4-3.7,1.3-7.3,1-11-.7-2.1-2.3-3.6-3.5-5.3Z"/>
  <path class="st36" d="M189.2,176.2c.6,0,1.8.2,2.4.2.8,2.5,1.1,5.1.4,7.6-2.2-2-2.9-4.9-2.8-7.8Z"/>
  <path class="st208" d="M304.1,182.5c0-1.5-1.2-6,1.5-5.1,1.6,1.6,0,4.1-1.5,5.1Z"/>
  <path class="st116" d="M413.2,176.8c.3.2.8.6,1.1.8-1.9,5.4-4.8,10.3-7.1,15.4-2.3,5.1-4.4,10.5-8.5,14.5,1.7-5,4.6-9.4,6.6-14.3,2.3-5.6,5.2-11.1,8-16.5Z"/>
  <path class="st174" d="M196.9,181.5c1.5-2.9,5-3.5,7.9-2.9-.7,4-5,2.9-7.9,2.9Z"/>
  <path class="st10" d="M210.5,179.7c1.9,0,3.9,0,5.9,0-1.9.5-3.9.8-6,1h-1.1c.3-.2.9-.8,1.2-1.1Z"/>
  <path class="st25" d="M216.3,179.7c.3,0,1-.3,1.3-.4.2.5.5,1.5.6,1.9-2.6.5-5.3,1.1-7.9,1.8,0-.6,0-1.8,0-2.3,2-.2,4-.5,6-1Z"/>
  <path class="st25" d="M310.6,182c.7-1.7,2.6-2.2,4.2-2.8,0,2.3-2.5,2.4-4.2,2.8Z"/>
  <path class="st15" d="M355.4,178.6c.4.4,1.1,1.1,1.5,1.4,0,.4,0,1.2,0,1.6-.1,1-.4,2.9-.5,3.8-2-1.7-1.1-4.6-.9-6.8Z"/>
  <path class="st183" d="M367.6,192.1c-.6-4.4,1.7-8.4,3-12.4,1.2,1.8,2.8,3.3,3.5,5.3.2,3.7-.6,7.3-1,11-1.9-1.1-4.7-1.6-5.5-3.9Z"/>
  <path class="st94" d="M210.4,183.1c2.6-.7,5.2-1.3,7.9-1.8-2.2,2.6-6.1,2-9.2,2.1l1.3-.4Z"/>
  <path class="st191" d="M281.6,181.7c.6,0,1.7-.2,2.2-.3,1,.5,2,1,3,1.5,0,.8-.2,2.3-.2,3.1-1.7-1.4-3.4-2.9-5-4.4Z"/>
  <path class="st15" d="M296,187c-2.7-1-5.3-4.1-4.3-7.1,2.1,1.9,3.3,4.5,4.3,7.1Z"/>
  <path class="st248" d="M232.9,183.8c2.6-.7,5.2-1.3,7.8-1.5.1.5.4,1.4.5,1.9-3.3,0-6.6.8-9.8,1.5-1-.4.4-2.2,1.5-1.9Z"/>
  <path class="st53" d="M276,183.5c1.8-.7,3.6-1.4,5.6-1.8,1.6,1.5,3.3,3,5,4.4,0-.8.2-2.4.2-3.1,1,.7,2.7.8,3.1,2.1.8,5.3-1.7,10.3-1.4,15.6.9,1.8,2.5,3.2,3.9,4.7-2.6.7-6.1.6-7.1-2.3-2.9-7.1-6.5-14-11.1-20.2.5.2,1.4.6,1.9.7Z"/>
  <path class="st25" d="M195.6,185.3c0-.4-.1-1.3-.2-1.8,2.2.6,4.4,1.2,6.6,1.9-1,2.8-4.5.3-6.4-.1Z"/>
  <path class="st249" d="M219.8,184.7c1.2,0,2.5-.1,3.8-.2.4,1,.8,2,1.1,3-1.8,0-3.5,0-5.3,0,.1-.9.3-1.9.4-2.8Z"/>
  <path class="st25" d="M231.4,185.7c3.2-.7,6.5-1.5,9.8-1.5h.9s-1.1.9-1.1.9c-1.8,1.1-3.8,1.5-5.9,1.6-1.3-.1-2.5-.5-3.7-1Z"/>
  <path class="st113" d="M260.4,186.3c2.5-1.1,5-2.1,7.6-2.5,2.8-.1,5.2,2,6.5,4.3,3,5.2,5.8,10.5,8.4,16,.9,2,2.7,3.2,4.4,4.4-2.2,2.3-5.5,1.4-8.3,1.5-5.2-.4-10.4.5-15.5-.9,1-2.6,2-5.2,2.7-7.9-.6.3-1.8,1-2.3,1.3-.5-.4-1.5-1.3-2-1.7,1.6-4.8,0-10-1.4-14.6Z"/>
  <path class="st33" d="M346.1,184.1c3.3.5,6.5,3.5,6.8,6.9-2.6-1.9-5-4.2-6.8-6.9Z"/>
  <path class="st132" d="M120.8,197.6c5.5-6.3,13-11,21.4-12.2,11-2.5,22.3.5,32.4,4.9,2.3,1.1,4.5,2.3,6.6,3.8-3.2-.4-6.3-1.4-9.2-2.8-.3,2.7-.5,5.5-1.6,8.1-.1-3,0-6-.2-8.9-.4-.2-1.3-.6-1.7-.7,0,3.4.1,6.7.2,10.1l-1.5.2c-.2-2.5-.3-5-.5-7.5-.3,0-.9-.2-1.2-.2.2-1.4,0-2.8-.4-4.2-2.3-.5-1,3.7-1.7,5-.3.2-.9.6-1.3.8-.1-2.2-.2-4.3-.4-6.4-3.4-.3-6.7-1.1-10.1-.9-4.5,1-7.5,4.8-10.4,8,3.2.2,6.7-.4,9.3,1.9-.6,1-1.2,1.9-1.8,2.9,1.3,1.2,2.6,2.4,3.9,3.6-1.9,1.6-3.8,3.1-5.8,4.6-.8-1.2-1.5-2.5-1.6-3.9.6,1.2,2.3,1.9,3.4.8.6-.4,1.8-1.2,2.5-1.6-1.2-.6-2.4-1.3-3.6-1.9-2.4-.5-4.8-.7-7.1-1.4-1.3-1.3-1.5-3.2-2.2-4.8-.9.8-1.8,1.6-2.7,2.4,0-.7,0-2.2,0-2.9-2.7,0-5.2.9-7.2,2.8v1.2c.2.4.2,1.2.3,1.6-2-.7-4.5-2.9-6.2-.7-5.9,5.7-5.8,14.6-9.8,21.4,0-1.9.2-3.7.4-5.6,1.3-6.3,3.9-12.3,7.9-17.4Z"/>
  <path class="st17" d="M235.1,186.7c2.1-.1,4.1-.6,5.9-1.6.6,1.2,1.2,2.4,1.8,3.6-2.7,2.1-6.1.8-7.7-1.9Z"/>
  <path class="st225" d="M302.8,190.9c.5-5.2,6.8-7.1,11.2-6.3,3.9,1,8,1.3,12,.7-.2.7-.5,2.1-.7,2.8-3.7,1.7-7.6-.3-11.3-.8-2.6-.5-5.1.4-7.6,1.1-2.1,5.6,1,11.2.7,16.9-1.6,2.8-4.1,5-7.2,5.9-.4-.4-1.2-1.2-1.6-1.6,1.9-.8,3.7-1.9,5.4-3.1,2.2-5.1-1.9-10.3-.8-15.6Z"/>
  <path class="st186" d="M151.5,186.6c3.4-.2,6.7.6,10.1.9.1,2.1.2,4.3.4,6.4.3-.2.9-.6,1.3-.8.5-.2,1.6-.7,2.1-.9.3,0,.9.2,1.2.2.2,2.5.3,5,.5,7.5l1.5-.2c.3,0,.8-.2,1.1-.2l.6-.2c1.1-2.6,1.3-5.3,1.6-8.1,2.9,1.4,6,2.4,9.2,2.8h0c1.1,3.1,3.6,5.7,7,5.8,3.2,3.2,5.9,6.9,7.4,11.2,1.6,4.1,2.2,8.5,2.3,12.9-11.3,4.4-21.9,10.5-32.6,16.2-6.8,2.5-13.8,5.2-21.2,4.6-8.1.5-15.8-3.1-22.1-7.8-5-4-9.4-9.8-9.4-16.4,4-6.8,3.9-15.6,9.8-21.4,1.8-2.2,4.3,0,6.2.7,0-.4-.1-1.2-.2-1.6,2.3,0,4.6,0,6.9,0,0-.3,0-.8,0-1.1.9-.8,1.8-1.6,2.7-2.4.7,1.6.9,3.5,2.2,4.8,2.3.6,4.7.9,7.1,1.4-.5.3-1.5.8-2,1.1,0,.4-.1,1.1-.2,1.5,0,1.5.8,2.7,1.6,3.9,2-1.5,3.9-3,5.8-4.6-1.3-1.2-2.6-2.4-3.9-3.6.6-1,1.2-1.9,1.8-2.9-2.6-2.2-6.2-1.7-9.3-1.9,2.9-3.3,5.9-7,10.4-8Z"/>
  <path class="st189" d="M256.4,188.1c1.2-.9,2.7-1.2,4.1-1.8,1.4,4.6,3,9.8,1.4,14.6-1.6,2.1-3.3,4.3-3.7,7-.1.8-.3,2.4-.4,3.3,7.5.3,15.1-.3,22.6.4-10.4.1-20.8,0-31.2.3,2.6-3.3,4.6-7,6.3-10.8,1.1.2,2.2.4,3.3.7,0-.4,0-1.3,0-1.7-.8.2-2.4.6-3.2.8,0-.7.2-2.1.2-2.7.4-3.3.4-6.6.6-9.9Z"/>
  <path class="st15" d="M163.2,193.1c.7-1.4-.7-5.6,1.7-5,.5,1.3.6,2.7.4,4.2-.5.2-1.6.7-2.1.9Z"/>
  <path class="st191" d="M174.5,190.3c.3-.6.8-1.7,1.1-2.3,9.1,3.5,16.6,10.7,21.5,19.1-.5,1.3-1,2.7-1.6,4-1.5-4.3-4.2-8-7.4-11.2-2.1-2.3-4.4-4.2-7-5.8h0c-2.1-1.5-4.3-2.8-6.6-3.8Z"/>
  <path class="st33" d="M201.7,189.8c1.7-.9,3.3-2.4,5.3-2.2,1.6.7,1.6,2.4,1.6,3.9-2.3.2-4.7.2-7,0,0-.4,0-1.2,0-1.7Z"/>
  <path class="st224" d="M267.2,188c4-.7,0,4.5-1,1.2.2-.3.8-.9,1-1.2Z"/>
  <path class="st15" d="M336,188.1c1.9.5,3.8,1,5.8,1.5,0,.5-.1,1.6-.2,2.1-1.9-1-5.5-.8-5.6-3.6Z"/>
  <path class="st25" d="M135.1,192c1.9-.8,4.4-3.2,6.5-1.8-1.2,1.8-4.6,3.3-6.5,1.8Z"/>
  <path class="st158" d="M402.9,188.3c.3.6,1,1.7,1.4,2.2-3,6.8-6,13.6-8.5,20.5-.2.5-.7,1.6-.9,2.1-1-1-1.9-2.1-3-3-2.7-.3-5.5.5-8,1.6-2.5,1.7-4.5,3.9-6.9,5.6-.4-.6-1.1-1.6-1.5-2.2.4-.1,1.1-.4,1.5-.6l1.6-.6c.3-2.5-1.7-4-3.3-5.5h0c1.6-1.7,2.8-3.7,3.6-5.9,2.4-2.2,4.8-4.7,6.4-7.6.5,1.9,1,3.8,1.5,5.8.3,1.3.7,2.5,1.1,3.8.2.6.6,1.8.8,2.4,3.4-4.7,6.1-9.9,8.2-15.3.5.6,1.4,1.7,1.9,2.3-2,4.8-4.4,9.5-6.7,14.2,4.9-5.7,7.1-13.1,10.7-19.6Z"/>
  <path class="st38" d="M150.2,190.6c2.2-.8,4.6-.5,6.8,0-.4.8-1.3,2.3-1.7,3.1-2.3-.2-6,.6-5.1-3Z"/>
  <path class="st191" d="M168.4,189.7c.4.2,1.3.5,1.7.7.3,3,0,5.9.2,8.9l-.6.2c-.3,0-.8.2-1.1.2,0-3.4-.2-6.7-.2-10.1Z"/>
  <path class="st100" d="M391,193.3c.3-1.2.8-2.4,1.8-3.2,1,2.1,0,4.2-1.8,5.5v-2.4Z"/>
  <path class="st15" d="M268.1,192.3c.9-.5,1.8-1,2.8-1.4,0,.7-.2,2-.3,2.7-.9-.3-2.6.3-2.5-1.2Z"/>
  <path class="st36" d="M309.2,199.9c.7-3.1,1.2-8.8,5.5-8.5-1.4,2.7-2.6,5.5-4.1,8.1-.3,0-1,.2-1.4.3Z"/>
  <path class="st223" d="M386.9,200.8c1.5-3.1,2.4-6.5,4.1-9.5v2c0,.6,0,1.8,0,2.4-1,2.2-1.6,4.5-2.1,6.8-.2.5-.6,1.5-.9,2-.4-1.2-.8-2.5-1.1-3.8Z"/>
  <path class="st178" d="M418.1,191.9c1.5.5,3,1.1,4.5,1.8,0,.4,0,1.4,0,1.8-1.4-.2-2.8-.2-4.1-.7-.1-.7-.3-2.2-.4-2.9Z"/>
  <path class="st18" d="M436.6,199.6c2.8-2.4,4.6-5.7,7.5-8-.3,2.9-2,5.2-3.9,7.2-2.8,3.1-6.1,5.8-9.8,7.8-.5,0-1.4,0-1.9,0,2.6-2.4,5.4-4.7,8-7.1Z"/>
  <path class="st191" d="M322,200.4c2.2-2.8,4.6-5.3,7.5-7.3,0,1.6,0,3.2,0,4.9-.9-.2-1.7-.4-2.6-.6-1.5,1.3-2.5,4.1-5,3.1Z"/>
  <path class="st76" d="M128.2,197.1c1.9-1.9,4.5-2.8,7.2-2.8,0,.7,0,2.2,0,2.9,0,.3,0,.8,0,1.1-2.3,0-4.6,0-6.9,0v-1.2Z"/>
  <path class="st62" d="M217,196.7c-.9-1.7,2.4-3.7,3.1-1.7-.3,1.2-2,2.2-3.1,1.7Z"/>
  <path class="st15" d="M334.3,194.4c1.6-.4,2.5.3,2.1,2,0,.7,0,2.1,0,2.8.4.8.9,1.7,1.3,2.5-1-.1-2-.2-3.1-.3-.1-2.3-.2-4.7-.3-7Z"/>
  <path class="st235" d="M181.1,194.1c2.6,1.6,5,3.5,7,5.8-3.5-.2-5.9-2.7-7-5.8Z"/>
  <path class="st165" d="M333.7,203c-.8-2.9-1.6-6.1.6-8.6.1,2.3.2,4.6.3,7,1,0,2,.2,3.1.3-.5-.8-.9-1.6-1.3-2.5,0-.7,0-2.1,0-2.8,2,1.8,2.7,4.3,3,6.9-1.9-.2-3.8-.2-5.7-.3Z"/>
  <path class="st131" d="M407.9,195.4c.5,0,1.6-.2,2.1-.2l.5.6c-2.6,4-4.9,8.3-8.5,11.6,1.3-4.3,4.5-7.6,5.9-11.9Z"/>
  <path class="st25" d="M441.9,201.7c2.5-2,4.8-4.2,7.2-6.4-2.9,4.5-7.7,7.3-11.6,10.8-6.2,4.9-12.9,9.2-20.3,12.2-1.1,0-2.3.1-3.4.2,5.5-1.2,10.1-4.5,14.9-7.4,4.7-2.7,9-6.1,13.3-9.4Z"/>
  <path class="st25" d="M140.2,196.7c2.6-.3,5.2-.4,7.8-.4-.5,2.8-4,2.1-6,2.2-1.1.2-1.2-1.2-1.8-1.8Z"/>
  <path class="st10" d="M153,197.5c2.4-.5,4.8-1,7.2-1.2-2.4.8-4.9,1.6-6.5,3.6h.7c2,.4,3.9-.5,5.7-1.2-1,2.6-4.4,1.6-6.6,1.8-.2-1-.4-2-.4-3Z"/>
  <path class="st25" d="M160.1,196.3l.9-.3c-.2.9-.6,1.9-1,2.7-1.8.7-3.7,1.6-5.7,1.3h-.7c1.6-2.2,4.1-3,6.5-3.8Z"/>
  <path class="st64" d="M183.6,201.5c-2.5,0-6.4-2.5-5-5.4,2,1.5,4.2,2.9,5,5.4Z"/>
  <path class="st15" d="M426,203.4c2.7-2.1,5.1-4.6,8-6.4-3.4,4-7.6,7.3-11.6,10.7-6.9,4.7-14.8,8-23.1,9.2.5-.2,1.6-.7,2.2-.9,8.8-2.7,17.4-6.5,24.5-12.6Z"/>
  <path class="st99" d="M255.4,201c.1-1,.3-2,.4-2.9,0,.7-.2,2.1-.2,2.7.8-.2,2.4-.6,3.2-.8,0,.4,0,1.3,0,1.7-1.1-.2-2.2-.5-3.3-.7Z"/>
  <path class="st182" d="M314.5,199.3c1.3-.4,3.7,1.1,3.1,2.6-1.4.7-3.5-1.2-3.1-2.6Z"/>
  <path class="st35" d="M399.9,212.4c4.2-4.2,7.6-9.1,11.1-13.9.3.2.9.7,1.2.9-.6,1.8-1.2,3.7-1.7,5.5,1.9-1.5,3.5-3.2,5-5,1.1.7,2.1,1.5,3.2,2.3-4,3.7-9,6-13.7,8.7,6.5-2,12.5-5.8,17.1-10.9,1.3,1.1,2.6,2.2,3.9,3.4-7,6.1-15.6,9.9-24.5,12.6-1.1-.6-2.1-1.1-3.2-1.7.5-.6,1.1-1.3,1.6-1.9Z"/>
  <path class="st214" d="M412.2,199.4c.8,0,1.7.1,2.5.2l.8.3c-1.5,1.8-3.2,3.5-5,5,.6-1.8,1.2-3.7,1.7-5.5Z"/>
  <path class="st211" d="M440.2,198.8c.4.7,1.2,2.1,1.6,2.9-4.3,3.3-8.6,6.7-13.3,9.4-.6-.4-1.7-1.3-2.3-1.7,1.4-.9,2.8-1.9,4.2-2.7,3.7-2,6.9-4.7,9.8-7.8Z"/>
  <path class="st99" d="M273.3,204.3c.3-1.8,1-4.4,3.3-3.8,0,1.3-.2,2.5-.2,3.8-.8,0-2.3,0-3.1,0Z"/>
  <path class="st15" d="M276.6,200.6c.7,0,1.3,0,2,0,0,2.3.6,5.9-2.3,6.7,0-.7,0-2.1.1-2.8,0-1.3.1-2.5.2-3.8Z"/>
  <path class="st25" d="M418.7,202.2c1.1-.8,2.2-1.5,3.4-2.2-4.5,5.1-10.5,8.9-17.1,10.9,4.7-2.7,9.7-5,13.7-8.7Z"/>
  <path class="st33" d="M145.3,202.1c.5-.3,1.5-.8,2-1.1,1.2.6,2.4,1.2,3.6,1.9-.6.4-1.8,1.2-2.5,1.6-.3-1.5-1.7-2.6-3.2-2.4Z"/>
  <path class="st25" d="M173,202.2c.1-.5.4-1.4.5-1.9,2.1,1,6.1.4,6.4,3.4h-.7c0-.1-1-.3-1-.3-1.8-.4-3.5-.9-5.2-1.2Z"/>
  <path class="st68" d="M258.1,207.9c.4-2.7,2-4.9,3.7-7,.5.4,1.5,1.3,2,1.7-.4.8-.7,1.5-1.1,2.3-.2,1-.4,2-.6,3-.3-.3-.9-.8-1.2-1.1-.9.4-1.9.8-2.8,1.2Z"/>
  <path class="st25" d="M263.8,202.6c.6-.3,1.8-1,2.3-1.3-.7,2.7-1.7,5.3-2.7,7.9-.3-.3-1-1-1.4-1.3.2-1,.4-2,.6-3,.4-.8.7-1.6,1.1-2.3Z"/>
  <path class="st17" d="M124.7,202.8c3.4.1,7.1-1.3,10.3.6-.2.5-.6,1.5-.8,2-1.9-.5-3.7-1.3-5.5-2.2-.2.6-.5,1.9-.7,2.6-1.5.8-2.9,1.9-4.1,3.1-1.3,0-2.6-.1-3.9-.2,0-.6.2-1.8.3-2.4,1.5-1.1,3-2.3,4.5-3.5Z"/>
  <path class="st25" d="M145.3,202.1c1.5-.3,2.9.9,3.2,2.4-1.1,1.1-2.8.4-3.4-.8,0-.4.1-1.1.2-1.5Z"/>
  <path class="st25" d="M121.2,207.7c1.2-2.5,3.9-4.5,6.8-4.8,0,3-4.2,2.8-4.8,5.5-.5-.2-1.5-.5-2-.7Z"/>
  <path class="st231" d="M324.8,205.8c2.9-1.1,5.7-2.8,8.9-2.8,1.9,0,3.8,0,5.7.3,4,1,7.8,2.6,11.6,4.1-.7.4-1.4.9-2,1.3-3.4,1.4-7.4,1.1-11,1.8-9.2,1.5-18.5,1.1-27.8,1.6-3.4,0-7,.4-10.2-.8,3.2-.9,5.6-3.1,7.2-5.9,2.1,1.5,4.6.3,7,0,3.6-.6,7.1.7,10.7.4Z"/>
  <path class="st172" d="M355.3,210.8c8.4-.6,16.3-4.1,23.6-8.2-.9,2.1-2,4.2-3.6,5.8h0c.4,2.1,1.1,4.2,1.7,6.2-.4.1-1.1.4-1.5.6-1.3-2.5-1.1-5.8-3.5-7.7,0,3.8,1.5,7.2,3.1,10.6-1-.5-1.9-1-2.8-1.5-1.4-1.5-3-2.9-4.7-4-.3-1-.6-2.1-.9-3.1-.6.9-1.3,1.9-1.9,2.9-.8.4-1.5.8-2.3,1.1-.2,1.6-.5,3.2-.6,4.8-.5-2.7-.1-5.5-1.6-7.9-.4,2.2-.6,4.3-.7,6.5-1.2,1.3-2.4,2.6-3.6,3.9-1.1-3.2-.8-6.6-.6-10Z"/>
  <path class="st239" d="M172.1,205.7c0-3.2,4-2.3,6.1-2.2l1,.2c-1.5,2.2-4.7,3.4-7.1,2.1Z"/>
  <path class="st57" d="M135.9,210.8c.5-3.3,3.6-6,7.1-5.4-1.8,2.4-3.7,5.4-7.1,5.4Z"/>
  <path class="st15" d="M153.8,205.9c.4-.1,1.2-.3,1.6-.5.4,2.3.9,4.7.9,7.1-1,1.8-3,2.7-4.6,3.8.2-.5.5-1.6.6-2.2,2.1-2.3,1.6-5.4,1.5-8.2Z"/>
  <path class="st10" d="M152.3,214.1c.8-2.7,1.3-5.4,1.5-8.2,0,2.8.6,6-1.5,8.2Z"/>
  <path class="st51" d="M295.8,206c2.6.4,5.2.5,7.8.5-1.7,1.3-3.5,2.3-5.4,3.1-1.5,0-1.7-2.6-2.4-3.6Z"/>
  <path class="st25" d="M424.6,209.1c1.3-.8,2.6-1.6,3.9-2.5.5,0,1.4,0,1.9,0-1.4.9-2.8,1.8-4.2,2.7-5,3.4-10.5,6-16.2,8.2-4.4,1.6-8.8,3.2-13.2,4.8-.2,0-.6-.2-.8-.3.6-.2,1.8-.6,2.4-.8,9-3.3,18-6.8,26.1-12Z"/>
  <path class="st213" d="M258.1,207.9c.9-.4,1.9-.8,2.8-1.2.3.3.9.8,1.2,1.1.3.3,1,1,1.4,1.3,5.1,1.4,10.3.5,15.5.9,2.8,0,6.2.7,8.3-1.5l.7-.5c-.1,1.3-.3,2.5-.4,3.8-2.5,0-4.9,0-7.4-.2-7.5-.7-15,0-22.6-.4.1-.8.3-2.4.4-3.3Z"/>
  <path class="st48" d="M290,211.9c.7-2.3,1.8-4.9,4.7-4.6-.3,1.4,0,3.1-1.2,4.2-1.1.2-2.3.3-3.4.4Z"/>
  <path class="st233" d="M400.1,209.1c-.3-1.4.3-2,1.9-1.8-.1,1.4-.8,2-1.9,1.8Z"/>
  <path class="st242" d="M417.1,218.3c7.3-3,14.1-7.3,20.3-12.2,1.5,1,2.9,2,4.4,3.1-7.7,3.8-15.6,7.2-23.3,10.9l-1.4-1.8Z"/>
  <path class="st47" d="M159.6,208.3c1,0,2.1,0,3.1,0-.3,2.3-.9,4.6-1.7,6.8-.6.2-1.6.6-2.2.9-.4-2.6.1-5.2.8-7.7Z"/>
  <path class="st44" d="M197.5,207.8c8.7,5.7,19.3,7.5,29.5,7.3-8.7,1.9-17.2,4.5-25.5,7.5-1.2-5-1.8-10.1-4-14.8Z"/>
  <path class="st54" d="M371.9,207.4c2.4,1.9,2.3,5.2,3.5,7.7.4.6,1.1,1.7,1.5,2.2.4,1,.8,1.9,1.1,2.9-1-.8-2-1.5-3-2.3-1.6-3.3-3.1-6.8-3.1-10.6Z"/>
  <path class="st157" d="M399.3,216.9c8.3-1.2,16.2-4.5,23.1-9.2.6.4,1.7,1.1,2.3,1.5-8.1,5.2-17.1,8.7-26.1,12-.6-.3-1.7-.9-2.3-1.2-6.3.2-13.3-.2-18,4.8-1.1-.4-2.2-.7-3.3-1.1.3,1,.6,2.1.9,3.1-.4,0-1.1,0-1.5-.1,0,.3,0,.9,0,1.2-1.2-.7-2.4-1.3-3.6-1.9.7,2,1.5,4,2.3,6-2.1-.6-2.8-2.7-3.6-4.5-.5,1.1-1,2.2-1.4,3.4-.7-.5-1.3-1.1-1.9-1.6.2,2.2.5,4.3.7,6.5-.3-.1-.9-.4-1.2-.5-.9-1.3-1.3-5.3-3.3-4.3.4,2.3,1.2,4.5,1.9,6.7-.2,0-.7.1-.9.1-1.1-1.1-2.1-2.3-3.1-3.5-.9,1.5-1.8,3-2.8,4.5-.2-.4-.7-1.2-1-1.7l-.5-.9c-.1-1.2-.2-2.3-.2-3.5.7.5,2.1,1.5,2.9,2-.2-1.2-.5-2.4-.7-3.7,1.5-1.3,3.1-2.5,4.7-3.7.2-.8.3-1.7.5-2.5,0-.5.3-1.4.4-1.9,1.1-2.1,3.3-3.1,5.4-4,1,.8,2,1.5,3.1,2.2-.2-.8-.3-1.6-.5-2.4.2-.6.7-1.7.9-2.2.9.5,1.9,1,2.8,1.5,1,.8,2,1.6,3,2.3-.4-1-.7-2-1.1-2.9,2.4-1.7,4.5-4,6.9-5.6,2.5-1.1,5.3-1.9,8-1.6,1.1.9,2,2,3,3,.2-.5.7-1.6.9-2.1l-.4,2c1.5-1.1,2.9-2.3,4.4-3.5-.4.8-1.2,2.4-1.6,3.2l1.9-.4c-.6.6-1.1,1.3-1.6,1.9,1.1.5,2.1,1.1,3.2,1.7-.5.2-1.6.7-2.2.9Z"/>
  <path class="st237" d="M375.2,208.4c1.6,1.4,3.7,3,3.3,5.5l-1.6.6c-.6-2-1.3-4.1-1.7-6.1Z"/>
  <path class="st140" d="M364.7,212.3c.6-.9,1.3-1.9,1.9-2.9.3,1,.6,2.1.9,3.1.6,2.4,2.2,4.3,3.7,6.2.2.8.3,1.6.5,2.4-1-.7-2.1-1.5-3.1-2.2-1.6-2-2.9-4.4-4-6.7Z"/>
  <path class="st19" d="M410.1,217.6c5.6-2.2,11.1-4.8,16.2-8.2.6.4,1.7,1.3,2.3,1.7-4.7,2.8-9.4,6.1-14.9,7.4-1.2-.2-2.4-.5-3.6-.9Z"/>
  <path class="st152" d="M445.1,210.5c3.3-.3,5,3.3,7.4,5-6,6.2-14.1,9.5-21.7,13.1-5.8,2.8-12.2,4-17.8,7.3-1.9-2.9-4.1-5.6-6.1-8.4,7.4-2.8,15-5.2,21.9-8.9,5.5-2.7,11.3-4.5,16.3-8.1Z"/>
  <path class="st207" d="M108.7,223.7c.5-4.4,1-8.8,2.4-13.1-.3,3.7-.3,7.4.6,11,0,2.6,0,5.2,0,7.8-.5,3-1.1,5.9-1.3,8.9-.6-2.5-.9-5-1.2-7.6-5.5,5.1-8.9,12.3-10.1,19.6-1,8.7,2.9,17.5,8.8,23.9.7-.5,1.5-.9,2.2-1.4l1.6-1c-.4,1.7-1.7,2.9-2.7,4.2,0,.3.2.9.3,1.1,2,2,4.4,3.8,6.8,5.3,5.8,4.1,11.9,7.9,18.4,11-.6.4-1.8,1.1-2.3,1.5-3.6-.2-7.4-.3-10.5,1.7-7.5,1.3-15.2,2.2-22.7.8,1.1,4.3,5.2,6.6,9.2,7.8,9,2.8,18.5,3.2,27.9,3.8,5,.4,10,.2,14.9-.6,3.9-.9,7.1-3.3,10.3-5.3,0,.6.2,1.9.3,2.6,0,.3.1.8.1,1.1,8.5-2.2,18.2-5.2,22.6-13.4,4.4-7.6,2.3-16.7-.1-24.6-.4-1.5-.9-2.9-1.3-4.4-.5-1.3-1.1-2.6-1.7-3.9-1-1.9-2.1-3.6-3.5-5.2-.7-.9-1.5-1.8-2.3-2.7-1.4-1.4-2.8-2.8-4.2-4.1,1.7-.5,3.4-1.1,5-1.6,1.8,1,3.6,2.2,5.3,3.4,6.1,4.6,12.8,8.7,16.6,15.6,1.1,4.6,1,9.4.1,14-1.9,4.7-3.9,9.4-7.1,13.4-2.8,3.6-6.4,6.4-9.8,9.3-.7,0-2.2,0-2.9.1,0,.6-.3,1.9-.4,2.6,1.7.2,3.5.5,5.2.6-3,0-6.1.3-9.1.7.2.2.7.6.9.9,6.6-.4,13.1-.1,19.7-.4,1.7.2,3-.8,4.2-1.9.4-.1,1.1-.4,1.5-.6,4.1,0,8,.8,12,1.6,1.1.2,2.1.5,3.2.8,1.7.4,3.4.8,5.2,1.2.5,0,1.3.1,1.8.2,1.2.3,2.4.6,3.6,1-.7.1-2.1.4-2.8.5,15.3,4.9,32,4.9,47.8,2,4.6-.6,9.3-1.3,13.8-2.8,3.9-1.1,7.4-3.5,11.6-3.7-14.1,6.9-29.9,9.4-45.5,10.1-10.7,0-21.2-1.7-31.8-2.8-9-1.9-18.3-.7-27.4-.4,22.7,5,46,5.7,69.2,6.1,9-.3,18-.3,27-1.2,14.2-1.1,28.3-3.1,42.2-6.2,17-3.8,33.8-9,49.1-17.2,8.5-4.6,16.9-9.9,23-17.5,6.2-6.4,10.5-14.9,10.2-23.9-.3-8.9-5.2-16.9-11.6-22.8,1.5-1,3.1-1.8,4.9-1.2.3-.1.9-.3,1.1-.5,2,2.8,4.3,5.4,6.1,8.4,4.6,7.4,6,16.6,4,25.1-2.4,9.2-8.5,17.1-15.6,23.3-9.6,8.3-20.9,14.5-32.5,19.3-38.1,15.4-79.7,19.5-120.4,19-25-1.1-50.1-3.4-74.4-9.6-5.3-.9-10.7.3-16,.1-14.7,0-29.5-.7-43.9-3.4-5.8-1.2-11.9-2.8-16.2-7.1-1.3-2.6-2.5-5.6-1.9-8.6,1.4-3.1,5.1-3.7,8.1-4.2-.9.5-1.8,1.1-2.7,1.7v.9c-.1.4-.2,1.2-.2,1.6,5.8-.4,12.3-1.2,16.7-5.3-1.2.3-2.5.6-3.7.9-.6-.3-1.9-1-2.6-1.4.4-.1,1.2-.4,1.5-.5-3.1-3.9-7.5-6.5-10.4-10.6-6.1-7.2-10.1-16.5-9.4-26.1.9-10.8,7.2-20.4,15.2-27.3Z"/>
  <path class="st139" d="M124.4,212.2c1.8-1.5,4.7,0,6.6.8.9,1.3-.9,2.4-1.4,3.5,0-.4,0-1.1,0-1.5h-2.2c0,1.5,0,3.1,0,4.6h-.6c0-2,.9-4.7-1.9-4.7-.1,2.1-.3,4.1-.4,6.2,0-3,0-6,0-9Z"/>
  <path class="st150" d="M360.3,210.3c1.5,2.4,1.1,5.3,1.6,7.9.4,1.6,1,3.2,1.5,4.8,0,.5-.3,1.4-.4,1.9-1.5-2.5-2.8-5.2-3.4-8.1,0-2.2.4-4.4.7-6.5Z"/>
  <path class="st204" d="M350.6,211.9c.7-.2,2.2-.6,2.9-.8-.6,5.3,1.2,10.7,5.1,14.3-.9-1.6-1.8-3.1-2.7-4.7,1.2-1.3,2.4-2.6,3.6-3.9.6,2.9,1.9,5.6,3.4,8.1-.2.8-.3,1.7-.5,2.5-1.6,1.2-3.1,2.5-4.7,3.7-.6-.9-1.3-1.7-2-2.6,0,1.4-.1,2.8-.1,4.3,0,1.2,0,2.3.2,3.5-1.3-1.3-2.7-2.5-4.2-3.6.5,1.4,1,2.9,1.6,4.3-1.4-1-2.9-1.9-4.4-2.8-.8.4-1.6.7-2.4,1.1,0,1.1,0,2.1-.1,3.2-1.8-2-3.7-3.9-6.1-5.2.7,2.3,2,4.2,3.6,6-1.2-.5-2.5-1.1-3.7-1.7-.4.3-1.1,1-1.5,1.3-.4-.3-1.1-1-1.5-1.4-.7,1.2-1.3,2.4-2,3.6-1.8-2-3.8-3.7-5.9-5.3,0,1.3.1,2.5.2,3.8-2.2.3-3.7,2.3-5.8,2.8-2.6.3-5.2,0-7.8,0,1,2.2,1.8,4.6,1.4,7.1-.6-1.1-1.2-2.2-1.9-3.3-.5.2-1.5.5-2,.7-.5-1.1-.9-2.2-1.3-3.3-.8-2.5-1.5-5.2-3.5-7.1.3,3,1.2,5.9,2.3,8.8-.8,2.2-1.2,4.6-2,6.9-.1-2.7-.1-5.8-2-8-.2,2.4-.3,4.8-.2,7.2-2-2.7-4.4-5-6.9-7.2,0,2.4.5,4.9,1.4,7.1-.7,1.4-1.4,2.7-2.2,4,.1-2.6-.1-5.2-.6-7.8-1.5,2.3-1.7,5.2-1.6,7.9-.7-1.9-1.6-3.7-2.6-5.5-1.1.6-2.2,1.3-3.3,1.9-1.3-.9-2.5-1.8-3.8-2.6-.3,1.3-.6,2.6-.9,3.9-.3-.7-.6-1.4-1-2.1-.4-1-.8-2-1.4-2.9-.1.8-.4,2.3-.5,3.1-.6.7-1.3,1.3-2,2-.7,4.2-1.1,8.3-1.7,12.5l-.5.8c.4-5.8.2-11.6-.6-17.3-.3.3-.8,1-1.1,1.3,0,.6,0,1.7,0,2.3-.2.8-.6,2.4-.9,3.2-.8-2-1.5-3.9-2.3-5.9-.3,1.2-.6,2.5-.9,3.8-.3-.4-.8-1.1-1.1-1.5-.7.8-1.4,1.7-2.1,2.5-.2-.6-.5-1.9-.6-2.5-1.4-.4-2.9-.8-4.3-1.2.1,1.3.3,2.5.4,3.8-.3-.4-1-1.2-1.4-1.6-.6.7-1.3,1.5-1.9,2.2-.6-.5-1.2-1.1-1.8-1.6-.3.5-.9,1.6-1.2,2.2-.8,1.2-1.1,2.9-.7,4.3-.8,0-1.7,0-2.5,0,.1-1.2.2-2.5.3-3.7-1.3,1.4-1.9,3.3-2.4,5.1-.2-1.2-.4-2.4-.5-3.6-.4-.3-1.2-.9-1.6-1.2-.2,1.7-.4,3.3-.6,5-.4-1-.8-2-1.1-3.1-.6-2.9-1.2-5.8-2.1-8.6-1.9,2.7-.1,6.1.1,9-3.1.3-6.2.4-9.4.2-.1.4-.4,1.3-.6,1.8-.5-1.7-.5-3.9-2.4-4.6,0,1.5,0,2.9,0,4.4-2.8-.8-5.2.9-6,3.6-.3-1.6-.6-3.1-.8-4.7-.3-1.1,0-3.3-1.4-3.7h-.6c-.2,2.7-.5,5.4-1.5,7.9-2.4-2.1-4.3-4.7-6.1-7.2.5,2,1.1,3.9,1.6,5.9-.5,0-1.6.2-2.2.3-.3-.2-.9-.6-1.1-.9l.2,1.3c-.4-.3-1.3-.9-1.7-1.2,0-.7,0-1.4-.1-2.1-3,1.1-5.9,2.5-8.4,4.5-.4-2-1.2-4-2.4-5.7-.2,1.8-.1,3.5,0,5.3,0,.4,0,1.1,0,1.5-2-.7-3.8-1.5-5.7-2.3.3,2.2.6,4.4.9,6.6-.8-1.6-1.8-3-2.9-4.4-3.8-6.9-10.5-11-16.6-15.6.6-.3,1.9-.8,2.6-1,.3.2.8.6,1.1.8-.3-1.8-.6-3.6-.8-5.4.1-.4.3-1.3.4-1.7,1.2,1.3,2.6,2.5,3.9,3.7,0-1.1-.1-2.2-.1-3.3.1-.4.3-1.4.4-1.8,3.9,4,3.7,9.7,4.3,14.9.6-4.2.3-8.6-1.4-12.6.3-.5.8-1.6,1.1-2.1.3.8.9,2.3,1.2,3.1l1.2-.5c.6-1.1,1.1-2.2,1.6-3.3.7,2.7,1.2,5.5,1.8,8.2.6-.7,1.1-1.4,1.7-2,.3-.5.8-1.5,1.1-2,.8,2.3,1,4.7,1.1,7.1-3.2,1.3-1.2,5.1-.5,7.4.4-1.1.7-2.2,1-3.4.7,0,1.4.2,2,.3.8.1,1.6.3,2.4.4v-.8c.5-1.1,1.1-2.1,1.7-3.2.4-.3,1.2-.8,1.6-1.1.9-1.6,1.6-3.4,2.2-5.1.1.7.4,2.1.5,2.7.4,0,1.1,0,1.5,0h1.8c1.9.6,2.1-1.5,1.7-2.8-.2-2.7-.5-5.4-1.1-8,.2-.9.6-2.6.8-3.5,1,.2,2,.4,2.9.6,1.4,4,1.9,8.3,2.5,12.5.8-1.8,1.2-3.8,1-5.8.5-.2,1.4-.6,1.9-.8,0-2.1,0-4.2-.1-6.2.7-.3,2.1-.9,2.8-1.2.6.5,1.3,1.1,1.9,1.6.2,1.7.4,3.3.6,4.9.3-.4,1-1.2,1.3-1.6.5-3,.8-6,1.2-9.1,1.6.6,3.2,1.2,4.9,1.8.4,2.9.7,5.7,1,8.6l1.2-.5c.4-3.6-.2-7.5,1.7-10.8.3,2.1.7,4.1,1.1,6.2.9-1.4,1.1-3.1,1.3-4.8.4-2.4,1-4.8.9-7.3v-.7c.5,4.6,1.6,9.2,2.9,13.7,1.1-2.4.8-5.2.6-7.7.2-2,.6-3.9.8-5.9,1.9,5.5,4.1,11.1,8.1,15.5-.6-3.1-2-6-3.2-8.9.3-.8.9-2.3,1.1-3,.4.8,1.3,2.4,1.8,3.2.2,0,.7.3,1,.4.1-1.6.2-3.2.3-4.9,1.1.6,2.2,1.2,3.3,1.8.9,1.9,2.2,3.7,3.5,5.3-.4-1.4-.8-2.8-1.2-4.2.9-.1,2.8-.3,3.7-.5,1.6,3.5,1.1,8.5,4.6,10.8-.5-3.1-1.4-6.1-2.3-9.1.4-1.4.8-2.8,1.3-4.2.4.7,1.2,2.2,1.6,2.9.8.5,1.7.9,2.5,1.4,0-2.1,0-4.2-.3-6.3,2.1,3.8.3,8.1.9,12.1,0,1.8,2,2.5,3.2,3.5.2-1.4.5-2.8.7-4.2.6-.6,1.3-1.1,1.9-1.7.1-1.3.2-2.5.3-3.8,0-.6.1-1.8.2-2.3.5.2,1.6.6,2.2.8.3.1.9.3,1.1.4.4.1,1.1.4,1.5.6.2,2.3.3,4.6.6,6.9,2.2-3.5.8-7.8.8-11.6.2-.7.5-2.1.6-2.9.8,2.4,1.9,4.7,3,7v.2c.8-.6,1.5-1.3,2.3-1.9.7,2.8,1.4,5.6,2.4,8.4,1-1.7.6-3.6.1-5.4.3-.7,1-2,1.3-2.6,1.4,4.7,2.3,10.5,7.2,12.8-1.3-3-3.3-5.9-2.8-9.3,0-4.3,1.8-9.1-.6-13.1.4.2,1,.7,1.4.9,0,4.2-.6,8.8,1.9,12.4.5-1.7,1-3.3,1.5-5,.5,1,1.1,1.9,1.7,2.9,1.7,3.9,2.8,8.9,6.9,11.2-.9-2.6-2.2-4.9-3.4-7.3.9-1,1.9-1.9,2.9-2.9,1.1,1.8,2.6,3.3,4.1,4.8-.1-1.2-.3-2.4-.5-3.6l1.6-.3c.5.5,1.5,1.6,2,2.1.1-1.5,0-3.1-.9-4.4h1.6c.8,1.9,1.8,3.7,2.9,5.5.5-1.9,0-3.8-.6-5.5,1.4-.9,2.7-1.9,4.1-2.8,1.1,2.6,1.8,5.5,3.9,7.5,0-2.3-.3-4.6-1.3-6.7,1.6-.3,3.3,0,4.9.5.2.8.5,1.6.8,2.4,1.2-.4,2.4-.9,3.6-1.3.1-.2.4-.5.5-.7l.6-.9c1.3,1.9,2.9,3.6,4.7,5-1-3.7-3.3-6.7-4.9-10.2,1.9,0,3.9.2,5.8.3.6,1.3,1.3,2.5,2,3.8-.9-4.1-1.6-8.4-.9-12.6Z"/>
  <path class="st181" d="M362.5,213.4c.8-.4,1.5-.8,2.3-1.1,1.2,2.3,2.4,4.6,4,6.7-2.1.9-4.2,1.9-5.4,4-.5-1.6-1.1-3.1-1.5-4.8.1-1.6.4-3.2.6-4.8Z"/>
  <path class="st216" d="M233.8,213.9c2.3-.4,4.7-.8,7.1-1,1.4.2,2.7.4,4.1.6-3.7.3-7.5.3-11.2.4Z"/>
  <path class="st49" d="M336.8,213.9c4.3-.5,8.6-1.2,12.9-1.8,0,2.9-.2,5.8-.2,8.6-1.9-.1-3.9-.2-5.8-.3-.7-2.1-1-4.2-1.9-6.1-1.4-.9-1.4,1.3-1.3,2.1.5,3.2,2,6.2,3.3,9.2l-.6.9c-1.3-1.6-2.8-3.1-4.1-4.7-1-2.6-1.7-5.2-2.2-7.9Z"/>
  <path class="st236" d="M367.6,212.5c1.7,1.1,3.3,2.5,4.7,4-.2.6-.7,1.7-.9,2.2-1.5-1.9-3.1-3.8-3.7-6.2Z"/>
  <path class="st15" d="M135.8,217.6c2.4-1.1,4.7-3.1,7.5-2.9-2,2.9-5.7,3.5-8.1,6,.2-1,.4-2.1.5-3.1Z"/>
  <path class="st256" d="M143.3,214.7l.3-.3c-.1,1-.2,2.1-.3,3.1-.4.3-1.3,1-1.8,1.3-.1.5-.3,1.5-.5,2-1.9,1.6-4.9,2.3-5.8,4.8-.4-.4-1.3-1.2-1.7-1.6,0-.3,0-1.1,0-1.4.4-.5,1.3-1.4,1.8-1.9,2.3-2.5,6-3.1,8.1-6Z"/>
  <path class="st1" d="M324.5,214.9c3.8-.4,7.7-.5,11.5-.9,0,1.2-.1,2.4-.1,3.6-1.4,1.4-2.8,2.7-4.2,4.1-.8-2.2-1.7-4.5-3.1-6.4-.2.6-.5,1.8-.7,2.4-1,.7-2,1.3-3,1.9-3.6,1.2-.8,5.4-.4,7.9h-1.6c-2.3-3.4-3.5-7.5-4.9-11.4,2.2-.2,4.4-.7,6.5-1.3Z"/>
  <path class="st22" d="M336,214h.9c.6,2.6,1.3,5.2,2.2,7.8-.2,1.4-.5,2.9-.7,4.3-1-2.8-1.8-5.6-2.5-8.5,0-1.2,0-2.4.1-3.6Z"/>
  <path class="st83" d="M340.5,216.4c-.1-.8,0-3,1.3-2.1.9,2,1.2,4.1,1.9,6.1,1.6,3.4,3.9,6.5,4.9,10.2-1.8-1.4-3.5-3.1-4.7-5-1.3-3-2.8-6-3.3-9.2Z"/>
  <path class="st169" d="M111.6,221.6c.4-2.2.8-4.4,1.3-6.6-.2,1.8-.3,3.7-.4,5.6,0,6.6,4.4,12.5,9.4,16.4,6.4,4.7,14,8.2,22.1,7.8,7.4.6,14.4-2.1,21.2-4.6-8.1,5-16.3,9.9-24.8,14.3-3.2,1.5-5.9,4-9.3,5.1-11.7-5.2-18.8-17.7-19.5-30.2,0-2.6,0-5.2,0-7.8Z"/>
  <path class="st39" d="M231.1,217.5c19-3.7,38.4-2.7,57.6-2.6.3.2,1,.6,1.3.8.3,1.6.6,3.3.8,5-.2.7-.5,2.2-.6,2.9-.5-1.8-1.1-3.7-1.6-5.5-.4-.2-1.1-.8-1.4-1,.6,3.7,1.4,7.5,1.6,11.3-.4-.1-1.1-.4-1.5-.6-.2-3.5-.3-7.2-2.9-9.9.6,3.2,1.1,6.3,1.7,9.4-.5-.2-1.6-.6-2.2-.8-.5-3.3-.3-7.1-2.1-10-.4-.1-1.3-.4-1.7-.6.7,2.9,1.7,5.9,1.8,8.9l-.5.4c-1.4-3.5-2.6-7.4-5.6-9.9,0,.6,0,1.7,0,2.2-.1,1.9.5,3.6,1.1,5.4.3,2.1.2,4.2.3,6.3-.9-.5-1.7-.9-2.5-1.4.3-4.5-2-8.9-4.7-12.3.4,3.3,1.6,6.5,3.1,9.4-.5,1.4-.9,2.8-1.3,4.2-1.2-4-2.6-8-4-12-.4.2-1.3.8-1.8,1,1.1,3.1,2.3,6.2,3.4,9.3-.9.1-2.8.4-3.7.5-1.5-3.5-1.5-7.6-3.9-10.7,0,3.2.6,6.5,1.6,9.6-1.1-.6-2.2-1.2-3.3-1.8-.1,1.6-.2,3.2-.3,4.9-.2,0-.7-.3-1-.4.8-4.7-.4-9.5-.8-14.2-1.8,2.6-.9,6-1.1,8.9-.2-1.9-.6-3.9-.9-5.8-1.1.6-2.1,1.1-3.2,1.7-.4-1.5-.9-3.1-1.4-4.6-2,1.9-.7,4.8-.6,7.1-.2,2-.6,3.9-.8,5.9-1.7-3.9-.7-9-3.7-12.2,0,2.1,0,4.2.2,6.3v.7c-.7-2.2-2.3-4-4.3-5-.8-.5-1.6-.9-2.4-1.4,1,4.1,2.9,8,3.4,12.3-1.9,3.3-1.3,7.2-1.7,10.8-.6-5.8,0-11.9-2.1-17.5-.7-2-2.8-2.7-4.4-3.8.3,1.4.5,2.9.9,4.3-.9,1.1-1.4,2.6-.9,4,1.1,1.9,1.6-1.6,1.4-2.3.4.2,1.1.7,1.4,1,.2-.4.8-1.2,1-1.6.1,2.6.3,5.2.6,7.8-1.6-.6-3.3-1.2-4.9-1.8-.4,3-.7,6-1.2,9.1.2-6.4.3-12.9-1.3-19.2-.9.5-1.9,1-2.8,1.4-.6-.1-1.9-.3-2.6-.4,1.4,5,4.6,9.5,4.8,14.8-.6-.5-1.3-1.1-1.9-1.6-.7.3-2.1.9-2.8,1.2-.2-1-.4-1.9-.6-2.9l1.8-.4c-.9-2.2-1.8-4.4-3-6.5h-.6c-.6,0-1.8,0-2.3,0,1.3,4,2.7,8.1,3.4,12.2.2,1.4.8,2.6,1.6,3.6-.5.2-1.4.6-1.9.8-1.6-7.3-4-14.5-8.1-20.8-.2.6-.5,1.7-.6,2.2,1.5,4.1,4.1,7.7,5.2,11.9-1-.2-2-.4-2.9-.6-.2.9-.6,2.6-.8,3.5-2-4.8-3.4-10.1-7.4-13.7,1.8,3.1,3.7,6.1,4.8,9.5l-1.8-.4c-1.2-1.9-2.5-3.8-4.1-5.5.7,2.9,1.5,5.7,2.4,8.6-1.3.1-2.7.2-4,.4-.3,1.2-.5,2.3-.8,3.5-.7-4.4-1.7-8.9-3.7-12.9-.5-.4-1.4-1.1-1.8-1.4.3,2.8,1.1,5.5,2,8.2-1-.8-2.1-1.6-3.1-2.3-2.7,2.8-.1,6.9.7,10.1,0,.4-.3,1.2-.4,1.6l-.3.9c-1.6-5.6-3.7-11.5-8.1-15.5.6,4.2,3.7,7.3,5.2,11.2-.5,1.1-1,2.2-1.6,3.3-.8-4.8-2.7-9.2-5.1-13.4-1,3.8,2.1,7.1,2.8,10.7-.3.5-.8,1.6-1.1,2.1-1.7-2.4-3.7-4.6-6-6.5,1,1.4,2,2.8,3,4.2-.1.4-.3,1.4-.4,1.8-1.1-.7-2.2-1.5-3.4-2.2-.1.5-.3,1.4-.5,1.8-.1.4-.3,1.3-.4,1.7-1.5-1.8-3.3-3.3-5.2-4.7,0,.5-.1,1.4-.1,1.8l-.2,1.8-.9-.4-.9-.2c-.3.3-1.1.8-1.4,1.1-.5.4-1.4,1.3-1.8,1.8-1.6-1.1-5.4-1.2-5.4-3.5,7.1-4.7,15.1-7.8,22.4-12.2,13-5.3,26.4-10.4,40.3-12.5Z"/>
  <path class="st196" d="M288.6,214.9c11.9.4,23.9.2,35.8,0-2.2.5-4.3,1.1-6.5,1.3-.5,0-1.4-.1-1.9-.1-2.1-.1-4.1-.1-6.2,0h-2c-2.6,0-5.2-.2-7.8-.4-.5.4-1.6,1.3-2.2,1.7-.2-.3-.7-1-.9-1.4-1.8,0-3.6,0-5.3,0-.4,0-1.2-.2-1.6-.3-.3-.2-1-.6-1.3-.8Z"/>
  <path class="st220" d="M124.8,214.9c2.8,0,2,2.7,1.9,4.5l-.2.8c-.5.2-1.6.6-2.1.8.1-2.1.2-4.1.4-6.2Z"/>
  <path class="st58" d="M250.8,222.7c-.1-2.4-1.4-5.2.6-7.1.5,1.5.9,3,1.4,4.6.9,3.1,1.8,6.2,3,9.2,1.2,2.9,2.6,5.8,3.2,8.9-4-4.4-6.2-10-8.1-15.5Z"/>
  <path class="st41" d="M256.8,224.3c.1-3-.7-6.3,1.1-8.9.4,4.7,1.6,9.5.8,14.2-.4-.8-1.3-2.4-1.8-3.2,0-.5,0-1.5-.1-2.1Z"/>
  <path class="st97" d="M269.8,215.5c2.7,3.5,5,7.8,4.7,12.3-.4-.7-1.2-2.2-1.6-2.9-1.4-3-2.6-6.1-3.1-9.4Z"/>
  <path class="st195" d="M275.8,215.4c3,2.5,4.2,6.4,5.6,9.9-.2.2-.7.5-.9.6-1.5-2.8-3.2-5.6-4.8-8.3,0-.6,0-1.7,0-2.2Z"/>
  <path class="st11" d="M280.2,215.9c.4.2,1.3.5,1.7.6,1.8,2.9,1.5,6.7,2.1,10,0,.6-.1,1.8-.2,2.3-.5,1.3-1,2.6-1.6,3.8-.1-2.6-.2-5.2-.3-7.8,0-3.1-1.1-6-1.8-8.9Z"/>
  <path class="st193" d="M290,215.7c.4,0,1.2.2,1.6.3,1.3,3.7,2.8,7.6,2.2,11.7-1-2.3-2.1-4.6-3-7-.2-1.7-.5-3.3-.8-5Z"/>
  <path class="st27" d="M291.6,216.1c1.8,0,3.6-.1,5.3,0,.2.4.7,1,.9,1.4.8,3,1.3,6.1,2,9.1-.3.6-.9,1.9-1.3,2.6-.8-3.1-1.5-6.2-2.3-9.3-.2-1.4-1.1-2.5-2.4-3.1.5,3.2,1.3,6.3,2.1,9.4-.8.6-1.5,1.3-2.3,1.9v-.2c.7-4-.9-7.9-2.2-11.7Z"/>
  <path class="st61" d="M297.8,217.4c.6-.4,1.7-1.3,2.2-1.7,2.6.2,5.2.3,7.8.4.6,4,1.4,8.1,2.3,12.1-.5-1-1.1-1.9-1.7-2.9-.5,1.7-1,3.3-1.5,5-2.5-3.6-1.9-8.2-1.9-12.4-.4-.2-1-.7-1.4-.9,2.3,4,.5,8.8.6,13.1-.5,3.4,1.5,6.3,2.8,9.3-4.9-2.3-5.8-8.1-7.2-12.8-.8-3-1.3-6.1-2-9.1Z"/>
  <path class="st87" d="M307.8,216h2c.4,3.4.9,6.7,1.7,10,.5,2,1.2,4,2,5.9,1.2,2.4,2.5,4.8,3.4,7.3-4-2.3-5.1-7.2-6.9-11.2-.9-4-1.7-8-2.3-12.1Z"/>
  <path class="st171" d="M309.8,216c2.1,0,4.1,0,6.2,0,.3,1.2.6,2.3.9,3.5-1.4,2.4-2.5,4.9-3.3,7.6-.4-1-.8-2-1.2-3-.2.5-.6,1.4-.8,1.8-.9-3.3-1.4-6.6-1.7-10Z"/>
  <path class="st128" d="M316,216.1c.5,0,1.4,0,1.9.1,1.4,3.9,2.5,7.9,4.9,11.4.8,1.3,1,2.9.9,4.4-.5-.5-1.5-1.6-2-2.1-1.8-3.3-3.5-6.8-4.7-10.3-.3-1.2-.6-2.4-.9-3.5Z"/>
  <path class="st8" d="M328.5,215.4c1.5,1.9,2.3,4.2,3.1,6.4.6,1.3,1.2,2.6,1.8,3.9,1,2.1,1.2,4.4,1.3,6.7-2.1-2-2.8-4.9-3.9-7.5-1-2.3-2.1-4.7-3-7.1.2-.6.5-1.8.7-2.4Z"/>
  <path class="st55" d="M239.7,217c.8.5,1.6.9,2.4,1.4,1,4.1,2.1,8.3,3.5,12.3-.3,1.6-.4,3.3-1.3,4.8-.5-2.1-.8-4.1-1.1-6.2-.5-4.3-2.4-8.2-3.4-12.3Z"/>
  <path class="st194" d="M246.3,216.4c3,3.2,2.1,8.3,3.7,12.2.2,2.6.5,5.3-.6,7.7-1.3-4.5-2.4-9-2.9-13.7-.2-2.1-.2-4.2-.2-6.3Z"/>
  <path class="st164" d="M265.9,218.2c.4-.2,1.3-.8,1.8-1,1.4,4,2.8,7.9,4,12,.9,3,1.8,6,2.3,9.1-3.5-2.3-3-7.3-4.6-10.8-1.1-3.1-2.3-6.2-3.4-9.3Z"/>
  <path class="st251" d="M287.1,217c.4.3,1.1.8,1.4,1,.5,1.8,1.1,3.7,1.6,5.5,0,3.9,1.4,8.1-.8,11.6-.3-2.3-.5-4.6-.6-6.9-.3-3.8-1-7.5-1.6-11.3Z"/>
  <path class="st144" d="M294,216.6c1.3.6,2.2,1.6,2.4,3.1.8,3.1,1.4,6.2,2.3,9.3.5,1.8.8,3.7-.1,5.4-1-2.8-1.7-5.6-2.4-8.4-.8-3.1-1.7-6.2-2.1-9.4Z"/>
  <path class="st170" d="M252.8,220.2c1.1-.6,2.1-1.1,3.2-1.7.3,1.9.6,3.8.9,5.8,0,.5,0,1.5.1,2.1-.3.8-.9,2.3-1.1,3-1.2-3-2.1-6.1-3-9.2Z"/>
  <path class="st7" d="M261.7,217.3c2.4,3,2.5,7.2,3.9,10.7.4,1.4.8,2.8,1.2,4.2-1.4-1.7-2.6-3.4-3.5-5.3-1-3.1-1.5-6.3-1.6-9.6Z"/>
  <path class="st114" d="M276.8,223c-.6-1.7-1.2-3.5-1.1-5.4,1.7,2.7,3.3,5.4,4.8,8.3.2-.2.7-.5.9-.6l.5-.4c0,2.6.1,5.2.3,7.8.5-1.3,1.1-2.5,1.6-3.8-.1,1.3-.2,2.5-.3,3.8-.6.6-1.3,1.1-1.9,1.7-.2,1.4-.5,2.8-.7,4.2-1.2-1-3.1-1.6-3.2-3.5-.6-4,1.2-8.3-.9-12.1Z"/>
  <path class="st115" d="M284.4,217.9c2.5,2.7,2.7,6.4,2.9,9.9-.3-.1-.9-.3-1.1-.4-.6-3.1-1.1-6.3-1.7-9.4Z"/>
  <path class="st202" d="M324.8,219.7c1-.6,2-1.2,3-1.9.9,2.4,2,4.7,3,7.1-1.4.9-2.7,1.9-4.1,2.8-.9-2.6-1.5-5.2-2-7.9Z"/>
  <path class="st72" d="M331.6,221.8c1.4-1.4,2.8-2.8,4.2-4.1.7,2.9,1.5,5.7,2.5,8.5-1.6-.6-3.2-.8-4.9-.5-.6-1.3-1.3-2.6-1.8-3.9Z"/>
  <path class="st59" d="M396.9,222.3c4.4-1.6,8.8-3.2,13.2-4.8,1.2.3,2.4.6,3.6.9,1.1,0,2.3,0,3.4-.2l1.4,1.8c-11.4,4.8-23.6,7.4-34.7,12.9-9.2,4.3-18.2,9-26.9,14.3-.9,0-2.8.3-3.7.4.1-.7.4-2.1.5-2.8.4-2.1.9-4.2.7-6.3.5-.4,1.5-1.1,1.9-1.5.2.4.7,1.2,1,1.7.9-1.5,1.8-3,2.8-4.5,1,1.2,2,2.4,3.1,3.5.2,0,.7-.1.9-.1.4-.6,1.1-1.8,1.4-2.5.3.1.9.4,1.2.5-.2-2.2-.5-4.3-.7-6.5.6.5,1.3,1.1,1.9,1.6.5-1.1.9-2.2,1.4-3.4.8,1.8,1.5,3.9,3.6,4.5l1.2-.8c0-1.1.1-2.2.1-3.3,0-.3,0-.9,0-1.2.4,0,1.1,0,1.5.1-.3-1-.6-2.1-.9-3.1,1.1.4,2.2.7,3.3,1.1,4.7-4.9,11.8-4.6,18-4.8.6.3,1.7.9,2.3,1.2-.6.2-1.8.6-2.4.8.2,0,.6.2.8.3Z"/>
  <path class="st184" d="M234.9,218.8c1.6,1.1,3.7,1.8,4.4,3.8,2.1,5.6,1.6,11.7,2.1,17.5l-1.2.5c-.3-2.9-.6-5.8-1-8.6-.3-2.6-.5-5.2-.6-7.8-.2.4-.8,1.2-1,1.6-.4-.2-1.1-.7-1.4-1-.1-.4-.4-1.3-.5-1.8-.3-1.4-.6-2.9-.9-4.3Z"/>
  <path class="st203" d="M242.1,218.4c2.1,1.1,3.6,2.8,4.4,5,0,2.5-.5,4.9-.9,7.3-1.3-4.1-2.5-8.2-3.5-12.3Z"/>
  <path class="st78" d="M229,221.4c.9-.5,1.9-1,2.8-1.4,1.6,6.3,1.6,12.8,1.3,19.2-.3.4-1,1.2-1.3,1.6-.2-1.6-.4-3.3-.6-4.9-.2-5.3-3.4-9.8-4.8-14.8.6.1,1.9.3,2.6.4Z"/>
  <path class="st2" d="M313.6,227.2c.8-2.6,1.9-5.2,3.3-7.6,1.2,3.6,2.9,7,4.7,10.3l-1.6.3c-1.3-1.9-2.7-3.8-4.1-5.6.2,1.4.4,2.9.6,4.3-1,1-1.9,1.9-2.9,2.9-.9-1.9-1.5-3.9-2-5.9.2-.5.6-1.4.8-1.8.4,1,.8,2,1.2,3Z"/>
  <path class="st112" d="M324.4,227.6c-.4-2.5-3.2-6.7.4-7.9.4,2.7,1,5.4,2,7.9.6,1.8,1.1,3.6.6,5.5-1.1-1.8-2.1-3.6-2.9-5.6Z"/>
  <path class="st141" d="M215.9,223.9c.2-.5.5-1.7.6-2.2,4.2,6.3,6.6,13.5,8.1,20.8.2,2-.2,4-1,5.8-.6-4.2-1.2-8.4-2.5-12.5-1.1-4.3-3.7-7.9-5.2-11.9Z"/>
  <path class="st123" d="M339.1,221.8c1.4,1.6,2.8,3.1,4.1,4.7-.1.2-.4.5-.5.7-1.2.5-2.4.9-3.6,1.3-.3-.8-.5-1.6-.8-2.4.3-1.4.5-2.9.7-4.3Z"/>
  <path class="st25" d="M160,226.1c-.4-3.4,4.2-2.4,6.3-3.1-.4.5-1.1,1.6-1.5,2.2-1.2,0-2.4.2-3.6.6l-1.2.3Z"/>
  <path class="st84" d="M234.8,227.1c-.5-1.4,0-2.9.9-4,.1.4.4,1.3.5,1.8.2.7-.3,4.2-1.4,2.3Z"/>
  <path class="st99" d="M152.2,224c2.5.9,4.5,2.6,6.3,4.5,0,.6.1,1.7.1,2.3-3.9.4-6.9-2.9-6.4-6.8Z"/>
  <path class="st10" d="M161.1,225.8c1.2-.4,2.4-.6,3.6-.6.5,2-2.9,2-3.6.6Z"/>
  <path class="st15" d="M210.1,225c4.1,3.6,5.4,8.9,7.4,13.7.6,2.6.9,5.3,1.1,8-.2-.5-.7-1.4-.9-1.8-.4-3.6-1.6-7.1-2.9-10.4-1.1-3.4-3-6.4-4.8-9.5Z"/>
  <path class="st212" d="M224,225.7h.6c1.2,2.1,2.1,4.3,3,6.5l-1.8.4c-.6-2.3-1.3-4.6-1.9-6.9Z"/>
  <path class="st95" d="M315.9,224.7c1.5,1.8,2.9,3.6,4.1,5.6.2,1.2.4,2.4.5,3.6-1.5-1.5-2.9-3-4.1-4.8-.2-1.4-.4-2.9-.6-4.3Z"/>
  <path class="st153" d="M221.6,225.7c.6,0,1.8,0,2.3,0,.7,2.3,1.3,4.6,1.9,6.9.2.9.4,1.9.6,2.9.2,2.1.2,4.1.1,6.2-.9-1.1-1.5-2.3-1.6-3.6-.7-4.2-2.1-8.2-3.4-12.2Z"/>
  <path class="st145" d="M370.7,225.9c1.2.6,2.4,1.3,3.6,1.9,0,1.1,0,2.2-.1,3.3l-1.2.8c-.8-2-1.6-4-2.3-6Z"/>
  <path class="st253" d="M201,226.7c.5.4,1.4,1.1,1.8,1.4,2,4,3,8.5,3.7,12.9-.1.5-.3,1.6-.4,2.1-.6-1.3-1.2-2.5-1.7-3.8-.5-1.5-.9-3-1.4-4.5-.9-2.7-1.7-5.4-2-8.2Z"/>
  <path class="st217" d="M380.5,227.3c1.1-.9,3.4,0,3.2,1.6-.8,2-4.2.2-3.2-1.6Z"/>
  <path class="st94" d="M133.7,228.6c1.3,0,2.6,0,3.8,0,1.4,1.5,2.8,2.9,4.2,4.4-2.8,1.5-5.9.7-8.3-1.2,0-1.1.1-2.1.2-3.2Z"/>
  <path class="st25" d="M133.9,228.9c2.2.9,4.4,2.1,6.2,3.6-2.4,1.9-6.1-1-6.2-3.6Z"/>
  <path class="st16" d="M208.9,228.6c1.6,1.7,2.9,3.5,4.1,5.5,1.1,5.1,2,10.2,2.1,15.4-.4,0-1.1,0-1.5,0-.1-.7-.4-2-.5-2.7-.4-3.2-.9-6.5-1.8-9.6-.8-2.8-1.7-5.7-2.4-8.6Z"/>
  <path class="st173" d="M355.9,228.5c.7.8,1.3,1.7,2,2.6.3,1.2.5,2.4.7,3.7-.7-.5-2.1-1.5-2.9-2,0-1.4,0-2.8.1-4.3Z"/>
  <path class="st135" d="M393.4,233.5c2-2.1,5-2.8,7.4-4.3,6.4,5.9,11.3,13.9,11.6,22.8.3,9-4,17.5-10.2,23.9-.2-.8-.5-2.3-.7-3,5-9.4,3.6-22.1-4.4-29.4.1-.8.3-1.7.4-2.5-1.8,1.9-3.4,4-5,6-3.1,1.3-6.3,2.6-9.1,4.4,0,.4.3,1.3.4,1.8-1.7-.4-3.4-.7-5.1-1.1-.2-2.1-.3-4.1-.5-6.1,5.2-3.9,10.5-7.8,15.2-12.4Z"/>
  <path class="st52" d="M191.8,229.6c4.5,4,6.6,9.9,8.1,15.5.1.5.4,1.4.5,1.9-.6.7-1.1,1.3-1.7,2-.6-2.7-1.1-5.5-1.8-8.2-1.5-3.9-4.6-7-5.2-11.2Z"/>
  <path class="st209" d="M99,250.4c1.2-7.4,4.6-14.5,10.1-19.6.3,2.5.6,5.1,1.2,7.6,2.4,10,9.4,18,17.7,23.7-2.2,1.2-4.5,2.5-6.6,3.9-2.3-2.8-4.8-5.5-6.9-8.5-1.8-2.7-2.6-5.9-4.5-8.5-4.9,7-4.6,16.9,0,24-.7.5-1.5.9-2.2,1.4-5.8-6.4-9.7-15.1-8.8-23.9Z"/>
  <path class="st96" d="M193,241.4c-.7-3.6-3.8-6.9-2.8-10.7,2.4,4.2,4.3,8.6,5.1,13.4l-1.2.5c-.3-.8-.9-2.4-1.2-3.1Z"/>
  <path class="st234" d="M362.2,230.9c2-1.1,2.4,3,3.3,4.3-.4.6-1.1,1.8-1.4,2.5-.7-2.2-1.5-4.4-1.9-6.7Z"/>
  <path class="st13" d="M200.6,242.6c-.8-3.2-3.4-7.2-.7-10.1.5,2.2.9,4.5,1.2,6.8-.1.8-.4,2.5-.5,3.3Z"/>
  <path class="st5" d="M199.9,232.5c1.1.7,2.1,1.5,3.1,2.3.5,1.5.9,3,1.4,4.5-1.1,0-2.2,0-3.3,0-.3-2.3-.7-4.5-1.2-6.8Z"/>
  <path class="st229" d="M351.8,232.6c1.5,1.1,2.9,2.3,4.2,3.6l.5.9c-.5.4-1.5,1.1-1.9,1.5-.3-.4-.8-1.2-1.1-1.7-.6-1.4-1.1-2.9-1.6-4.3Z"/>
  <path class="st120" d="M357,247.3c8.6-5.3,17.7-10,26.9-14.3,0,1.6,0,3.1-.5,4.6l-.2-.3c-2.2-.3-4.1.9-6,1.8-6.2,3.1-12.7,5.8-18.4,9.7-9.3,6.2-18.9,11.8-28.8,17.1-.8.5-1.7.9-2.5,1.4-3.8,2-7.7,3.9-11.8,5.6-5.4,1.9-10.6,4.2-16,5.9-13,4.3-26.2,8.1-39.8,9.6-5.7.6-11.3,1.8-17,2.6-2.1-.5-4.2-.2-5.9,1-5.3.5-10.4,1.7-15.5,3.2-3.8.7-7.6,1.1-11.4,1.4,0-.5.3-1.5.3-2,2.9-1,6-1.7,9-2.4,8.5-1,16.9-2.2,25.3-3.7l1.4-.3c1.9-.4,3.7-.7,5.6-1,8.1-1.1,16.3-2.1,24.2-4.2,4.2-1,8.4-2.1,12.5-3.3,2.6-.8,5.1-1.6,7.6-2.3,6.6-2,13.1-4.4,19.5-7.1,1-.4,2-.9,3-1.3,2.5-1,4.9-2.3,7.3-3.5l.9-.4c1.4-.7,2.7-1.5,4.1-2.2,3.3-1.9,6.7-3.6,10-5.6.6-.3,1.7-1,2.2-1.4,1.9-1.2,3.9-2.4,5.9-3.5,1.1-.6,2.1-1.2,3.1-1.9,1.6-1.1,3.1-2.2,4.8-3.2Z"/>
  <path class="st19" d="M213,234.1l1.8.4c1.3,3.4,2.5,6.8,2.9,10.4-.6,1.5-.9,3-.9,4.6h-1.8c0-5.2-1-10.4-2.1-15.4Z"/>
  <path class="st197" d="M322.2,234.3c1.3-1.2,3.7,1,2.6,2.4-1.3,1.1-3.7-.9-2.6-2.4Z"/>
  <path class="st215" d="M340.4,233.2c2.3,1.3,4.3,3.2,6.1,5.2,0,.4,0,1.2,0,1.6-.8-.3-1.6-.6-2.4-.8-1.6-1.8-3-3.7-3.6-6Z"/>
  <path class="st65" d="M346.6,235.2c.8-.4,1.6-.7,2.4-1.1,1.5.9,2.9,1.8,4.4,2.8.3.4.8,1.2,1.1,1.7.3,2.1-.2,4.2-.7,6.3-.6.2-1.8.7-2.3.9.2,1.6.5,3.2.7,4.8-1,.7-2,1.3-3.1,1.9-1.9.6-4.1,2.1-6,1-2-2.3-3.2-5.2-6-6.7,1.5,3.3,4,6.1,6.1,9.1-.6.3-1.7,1-2.2,1.4-.5.1-1.6.4-2.2.5,0-.9-.2-2.8-.3-3.8v-.5c-.6-.2-1.5-.7-2-1,.5-.5,1.1-1.1,1.6-1.6-2.4-.9-4.9-1.6-7.4-2,0,1.6.2,3.1.3,4.7-.8-.4-1.5-.7-2.3-1.1-1.5-2.3-3.1-4.7-4.6-7-.1.4-.3,1.1-.4,1.5,1.3,2,2.6,4.1,4,6-1.3.5-2.5,1.1-3.8,1.7-.5-.4-1-.8-1.5-1.1-1.4,1.3-2.7,2.6-4.1,3.9-.5-.9-.9-1.7-1.4-2.6-.3,1.2-.5,2.5-.8,3.7-.6-1.5-1.2-2.9-1.7-4.3-.2,1.4-.3,2.8-.5,4.2-3.6.4-7.2.4-10.7-.3.9.9,1.8,1.7,2.7,2.6-1.2.2-2.4.4-3.7.5-.2,1.6-.4,3.1-.5,4.7-.5-1.6-1-3.3-1.5-4.9.5-.7,1-1.4,1.5-2-.5,0-1.5.3-2.1.3-.2.6-.7,1.7-.9,2.3-.4-.1-1-.3-1.4-.4-.7-1.3-1.5-2.6-2.4-3.9.2,2.4.6,4.8,1.1,7.2-.3.2-.9.6-1.2.8-.2-.9-.4-1.8-.6-2.7-.6-2.4,0-6.4-3.3-6.9.5,2.1,1.2,4.2,2,6.2,0,.4,0,1.2,0,1.6-.6-.3-1.1-.6-1.6-.9-.3.3-1,.9-1.3,1.1-.1-1.6-.2-3.1-.3-4.7-.9,2.8-2.3,5.5-4.2,7.7-.2-.6-.7-2-.9-2.6-.4.8-.7,1.7-1,2.5-.4-.9-.8-1.8-1.2-2.7-.3,1.2-.5,2.5-.8,3.8-.4-.6-1.3-1.8-1.8-2.4.6-4.1,1.1-8.3,1.7-12.5.7-.7,1.4-1.3,2-2,.2.6.6,2,.9,2.6.4-.9.8-1.8,1.1-2.8.3.7.6,1.4,1,2.1.3-1.3.6-2.6.9-3.9,1.3.9,2.5,1.8,3.8,2.6,1.1-.6,2.2-1.3,3.3-1.9,1,1.8,1.9,3.6,2.6,5.5.1.5.4,1.5.6,2,.5-.7,1-1.4,1.5-2.1.8-1.3,1.5-2.7,2.2-4-.9-2.3-1.3-4.7-1.4-7.1,2.4,2.3,4.9,4.6,6.9,7.2.3.7,1,2,1.3,2.7.2-.5.6-1.4.9-1.9.8-2.2,1.2-4.6,2-6.9.3-.4.9-1.2,1.2-1.7.4,1.1.9,2.2,1.3,3.3.9,2.1,2,4.1,3.2,5.9.2-.8.5-2.5.7-3.3.5-2.5-.4-4.9-1.4-7.1,2.6,0,5.2.4,7.8,0,2.1-.5,3.6-2.5,5.8-2.8,1.9.5,3.8,1.1,5.7,1.5.6-1.2,1.3-2.4,2-3.6.4.4,1.1,1,1.5,1.4.4-.3,1.1-1,1.5-1.3,1.2.6,2.4,1.1,3.7,1.7.8.3,1.6.6,2.4.8,0-.4,0-1.2,0-1.6,0-1.1,0-2.1.1-3.2Z"/>
  <path class="st6" d="M329.6,235.8c2.1,1.6,4.1,3.3,5.9,5.3-1.9-.5-3.8-1-5.7-1.5,0-1.3-.1-2.5-.2-3.8Z"/>
  <path class="st15" d="M185.9,237c2.2,1.9,4.3,4.1,6,6.5,1.7,4,1.9,8.3,1.4,12.6-.6-5.2-.4-10.8-4.3-14.9-1-1.4-2-2.8-3-4.2Z"/>
  <path class="st89" d="M207.3,237.6c1.3-.1,2.7-.2,4-.4.9,3.1,1.4,6.4,1.8,9.6-.6,1.8-1.3,3.5-2.2,5.1-.8-2.1-1.6-4.2-2.8-6.2.3,2.4.8,4.8,1.2,7.2-.6,1-1.2,2.1-1.7,3.2-.8-2.4-2.2-4.7-3.9-6.6.2,2.4.7,4.7,1.5,7-.7-.1-1.4-.2-2-.3-.1-1-.4-3-.5-4-.2-2.4-.3-4.9-1.1-7.1-.4-.2-1-.6-1.4-.7,0-.4.3-1.2.4-1.6.1-.8.4-2.5.5-3.3,1.1,0,2.2,0,3.3,0,.5,1.3,1.1,2.6,1.7,3.8.1-.5.3-1.6.4-2.1.2-1.2.5-2.3.8-3.5Z"/>
  <path class="st146" d="M308.8,236.5c2,1.9,2.8,4.5,3.5,7.1-.3.4-.9,1.2-1.2,1.7-1.1-2.8-2-5.7-2.3-8.8Z"/>
  <path class="st75" d="M377.2,239.1c1.9-.8,3.8-2.1,6-1.8l.2.3c-4.9,4.9-11.3,8.2-15.7,13.7-3.8.9-7.5,2.3-10.8,4.6-6,4.1-12,8.2-18.2,11.8-.5-.5-1.4-1.6-1.9-2.1-2.3,0-4.6.1-6.8.3,9.8-5.2,19.5-10.8,28.8-17.1,5.8-3.9,12.2-6.6,18.4-9.7Z"/>
  <path class="st102" d="M301.3,238.9c2.3,1.6,2.7,4.6,3.6,7.2-1.9-2-2.9-4.6-3.6-7.2Z"/>
  <path class="st177" d="M179.1,239.7c1.8,1.4,3.6,2.9,5.2,4.7.2,1.8.5,3.6.8,5.4-.3-.2-.8-.6-1.1-.8-.9-3-2.5-5.6-5-7.5,0-.5.1-1.4.1-1.8Z"/>
  <path class="st4" d="M261,240h1.3c0,3.2.2,6.7-1.5,9.7-.4,0-1.2.2-1.5.3,1-3.2,1.8-6.6,1.8-10Z"/>
  <path class="st243" d="M279.1,239.7c3.1,1.2,1.2,5.7,1.5,8.3-.4,0-1.2.3-1.6.4-.2-2.9-.1-5.7,0-8.6Z"/>
  <path class="st101" d="M185.1,240.9c1.1.7,2.2,1.5,3.4,2.2,0,1.1,0,2.2.1,3.3-1.3-1.2-2.7-2.4-3.9-3.7.1-.5.3-1.4.5-1.8Z"/>
  <path class="st200" d="M249.3,241.2c1.9.2.8,4.4-.9,3.6-.7-1.2-.2-2.9.9-3.6Z"/>
  <path class="st125" d="M268.3,240.9c3,1,1.1,5.2.6,7.3l-1.2.6c.1-2.7.4-5.3.7-8Z"/>
  <path class="st126" d="M289.9,240.7c2.6,1.2,3.9,3.9,5.2,6.4-2.9-.6-4.7-3.6-5.2-6.4Z"/>
  <path class="st21" d="M343.1,240.8c2.7,1.5,3.5,4.7,4.3,7.4-3.4-.7-3.8-4.7-4.3-7.4Z"/>
  <path class="st254" d="M392.5,246.9c1.6-2,3.2-4.1,5-6-.1.9-.2,1.7-.4,2.5-2.3,3.1-4.9,6-7.3,9.2-.4-.5-.8-1-1.2-1.5,1.4-1.3,2.7-2.7,3.9-4.1Z"/>
  <path class="st71" d="M45.7,250.1c.4-2.9.6-6.2,2.8-8.3-.4,4-1.4,8.1-1,12.2.7,9.7,5.1,18.8,11,26.4,10.4,13.4,24.9,22.8,39.8,30.4,8.4,4.3,17.2,7.8,26.1,11,50.2,17.1,103.8,21.6,156.5,19.4,15.3-.9,30.7-2.1,45.9-4.7,27.4-4.4,54.6-11.2,80-22.7,17.7-8.3,35.2-18.9,47.1-34.8,7.6-10.4,12.4-24.1,8.7-36.9,2.8,1.5,2.7,5.2,3.1,7.9,1.5,15.9-6.7,31.1-17.9,41.9-16.8,16-38.2,26.3-59.8,34.2-47.8,16.4-98.8,21.8-149.1,19.9-23.1-.6-46.2-3.1-68.9-7.5-31.3-6.2-62.6-15.6-89.7-33-10.4-6.9-20.1-15.3-27-25.8-5.6-8.7-8.7-19.1-7.8-29.5Z"/>
  <path class="st19" d="M179,241.6c2.5,1.9,4.1,4.5,5,7.5-.6.2-1.9.8-2.6,1-1.7-1.2-3.4-2.4-5.3-3.4-.8-.4-1.6-.7-2.5-1,.4-.4,1.4-1.3,1.8-1.8.7.2,2.2.5,3,.7,1.2,1.2,2.3,2.4,3.5,3.6-1-1.6-2.1-3.2-3.2-4.8l.2-1.8Z"/>
  <path class="st252" d="M288.2,242.4c1.5.2,2.8,2.8,2.4,4.3-1.8.2-3.1-2.8-2.4-4.3Z"/>
  <path class="st205" d="M175.5,243.9c.4-.3,1.1-.8,1.4-1.1l.9.2c.2.4.5,1.2.6,1.6-.8-.2-2.2-.5-3-.7Z"/>
  <path class="st25" d="M177.9,243l.9.4c1.1,1.6,2.2,3.1,3.2,4.8-1.2-1.2-2.3-2.4-3.5-3.6-.2-.4-.5-1.2-.6-1.6Z"/>
  <path class="st185" d="M160.4,246.3c1.5-.8,2.9-1.9,4.6-2.2,2.4.7,4.2,2.6,6.1,4.2,1.4,1.3,2.9,2.7,4.2,4.1-1,.9-1.4,3-3,2.8-6.5-.8-13,.3-19.3,2.1-3.9,1-8,1.8-11.5,3.9l-.8.4c-.4-.8-1.2-2.4-1.6-3.1,7-4.1,14.2-7.8,21.1-12.1Z"/>
  <path class="st56" d="M200.2,244.3c.3.2,1,.6,1.4.7-.3.5-.9,1.5-1.1,2-.1-.5-.4-1.4-.5-1.9l.3-.9Z"/>
  <path class="st67" d="M397.1,243.4c8,7.3,9.3,20,4.4,29.4.2.8.5,2.3.7,3-6.1,7.6-14.5,12.9-23,17.5-15.4,8.2-32.2,13.4-49.1,17.2-13.9,3.1-28,5.1-42.2,6.2,5.2-.4,10.3-2.3,14.2-5.7,1.2-1.1,2.3-3.1,1.3-4.7-1.5-1.2-3.5-1.5-5.2-2.2,2.9-1.2,7.1-3.9,4.1-7.4,1.4-.7,2.8-1.4,4.1-2.1,2.9-.1,5.8-.4,8.6-1.1,12.5-3,24.8-7.1,36.3-12.9,2.8.4,5.7.6,8.6.3,10.5-.9,21-2.1,31-5.1,2-.9,5.8-1.7,4.5-4.6-2.7-2.6-6.8-3.3-10.1-4.9,3.9-1.3,8.4-2.7,10.2-6.8-1.3-2.7-3.9-4.2-6.7-5.2-.7-.8-1.3-1.5-2-2.2l-.4,1.4c-.7-.2-2-.5-2.7-.6,0-.4-.3-1.3-.4-1.8,2.8-1.9,6-3.1,9.1-4.4-1.2,1.5-2.5,2.9-3.9,4.1.4.5.8,1,1.2,1.5,2.3-3.1,4.9-6.1,7.3-9.2Z"/>
  <path class="st70" d="M217.7,244.9c.2.4.6,1.4.9,1.8.3,1.3.2,3.4-1.7,2.8,0-1.6.2-3.1.9-4.6Z"/>
  <path class="st40" d="M242.9,251.4c-2.5-1.3-2.1-4.5-1.2-6.7,1.4,2,1.4,4.4,1.2,6.7Z"/>
  <path class="st221" d="M307.1,244.1c1.9,2.2,1.9,5.2,2,8-.2.5-.6,1.4-.9,1.9-.3-.7-1-2-1.3-2.7-.1-2.4,0-4.8.2-7.2Z"/>
  <path class="st249" d="M324,245.5c1.5,2.4,3,4.7,4.6,7,0,.3-.2,1-.2,1.3-.2-.2-.6-.6-.7-.8-1.4-1.9-2.7-4-4-6,.1-.4.3-1.1.4-1.5Z"/>
  <path class="st94" d="M351.5,245.8c.6-.2,1.8-.7,2.3-.9-.1.7-.4,2.1-.5,2.8.9-.1,2.8-.3,3.7-.4-1.6,1-3.2,2.1-4.8,3.2-.2-1.6-.5-3.2-.7-4.8Z"/>
  <path class="st102" d="M208.1,245.7c1.2,1.9,2,4.1,2.8,6.2-.4.3-1.2.8-1.6,1.1-.3-2.4-.9-4.8-1.2-7.2Z"/>
  <path class="st201" d="M313.6,246.8c.5-.2,1.5-.5,2-.7.6,1.1,1.2,2.2,1.9,3.3-.2.8-.5,2.5-.7,3.3-1.3-1.9-2.4-3.8-3.2-5.9Z"/>
  <path class="st17" d="M337.1,246.7c2.8,1.4,4.1,4.4,6,6.7,1.9,1.1,4.1-.5,6-1-2,1.1-4,2.3-5.9,3.5-2.1-3-4.5-5.8-6.1-9.1Z"/>
  <path class="st92" d="M33.5,251.9c0-1.4.2-2.7.5-4-1.5,12.9,2.8,25.6,10.1,36.1,10.1,14.9,25.3,25.4,40.6,34.4,31.9,17.5,67.6,26.6,103.4,32,21.9,3.1,44,4.2,66.1,4.8,23.5-.4,47.2-1.5,70.5-4.9,29.8-4.4,59.4-11.7,87-24.1,17.2-8.1,33.9-17.9,47.2-31.7,10.1-10.2,17.9-23.4,19-38,.8,1.1,1.7,2.3,2,3.7,2.2,9.1,2.8,19.1-.3,28.1-4.7,14.5-15.4,26.3-27.1,35.8-21.1,17.2-46.7,27.7-72.5,35.4-53.6,15.6-110.2,18.5-165.6,14.5-30.7-2.8-61.4-7.7-90.8-17.4-21.2-6.8-41.9-15.9-59.8-29.2-10.1-7.4-19.2-16.4-25.8-27.1-5.4-8.7-8.3-19.1-7.4-29.4-.2-6.5,3.3-12.5,3.2-19.1Z"/>
  <path class="st246" d="M253.8,256.2c-1.8-2.7-2.6-6-2.3-9.3,2.4,2.3,2.9,6.1,2.3,9.3Z"/>
  <path class="st43" d="M284.1,247.9c.6.9,1,1.9,1.4,2.9-.3.9-.6,1.9-1.1,2.8-.2-.6-.7-2-.9-2.6.1-.8.4-2.3.5-3.1Z"/>
  <path class="st160" d="M297,255.3c-.1-2.7,0-5.5,1.6-7.9.4,2.6.7,5.2.6,7.8-.5.7-1,1.4-1.5,2.1-.2-.5-.5-1.5-.6-2Z"/>
  <path class="st178" d="M371.8,251.5c1.3-1.8,3.1-3.2,5.2-4.2,0,1.1.2,3.2.3,4.3-1.8,0-3.7,0-5.5-.1Z"/>
  <path class="st67" d="M110,272.9c-4.5-7.1-4.8-17,0-24,1.9,2.6,2.7,5.8,4.5,8.5,2,3,4.5,5.7,6.9,8.5-3.2,2-6.6,3.9-9.8,5.9l-1.6,1Z"/>
  <path class="st147" d="M277.6,250.3c.3-.3.8-1,1.1-1.3.8,5.7,1,11.5.6,17.3-.4.6-1.1,1.6-1.4,2.2,0-1.5-.1-3.1-.1-4.6.3-3.8.2-7.5-.1-11.3,0-.6,0-1.7,0-2.3Z"/>
  <path class="st46" d="M330.6,248.9c2.5.4,5,1.1,7.4,2-.5.5-1.1,1.1-1.6,1.6.5.2,1.4.7,1.9,1v.5c-.4,0-1.5.2-2,.2.1,1.5.5,3,.3,4.5-1.2,1.3-3.1,1.6-4.7,2.4-.2.5-.8,1.4-1,1.9-1.4.8-2.7,1.5-4.1,2.2-1.2-3.2-1.2-7.6-4.7-9.4.6,3.5,1.5,7,3.9,9.8-2.4,1.2-4.8,2.5-7.3,3.5-.5.1-1.5.4-2,.5-1.4-2.7-2.6-5.6-4.6-7.8.8,3,2.7,5.6,3.6,8.6-6.4,2.7-12.9,5.1-19.5,7.1-1.7-.1-3.3-.1-4.9-.6-1.8-1.5-2.1-4.4-4.5-5.4.3,2.8,1,5.6,1.8,8.3-4.2,1.2-8.3,2.3-12.5,3.3-.4,0-1.1-.1-1.5-.1.1-2.2,0-4.5-.1-6.8-.4.1-1.2.3-1.7.4-.4,0-1.2,0-1.6-.1-.5,0-1.5-.2-2-.2.2,2,.6,4,1.1,6-.1.2-.3.5-.4.7-5.1,1.5-10.9,4-15.8.8-.7,1.2-1.4,2.4-2.1,3.6-1.9.3-3.7.6-5.6,1,.6-2,1.1-4.1,1.7-6.2-.4-.2-1.3-.8-1.7-1-.5,2-.9,4.1-1.2,6.1-2.8.6-5.8,1.6-8.6.5.8-1.9,1.3-3.9,1.6-5.9-2,1.6-4.7,4.6-2.2,7l-.3.4c-5.4.5-11.2,0-16,3.1-3,.7-6.1,1.4-9,2.4,0,.5-.2,1.5-.3,2-.2,1.1-.4,2.2-.6,3.2,1,.2,2,.4,3,.5-1.7.8-3.4,1.6-5.1,2.4-4.3.7-8.6.4-12.9,0-.5-1.1-1-2.3-1.5-3.4-.3.2-1,.5-1.3.6-.2.3-.6.9-.8,1.1-.5-.2-1.5-.6-2-.8-.4,1.3-.3,2.6.2,3.8-2,0-4,.2-6,.3-1.3-.1-2.5-.3-3.8-.4.4-.4,1.3-1.1,1.7-1.5,3.4-3,7-5.7,9.8-9.3,3.1-4,5.2-8.7,7.1-13.4.9-.7,1.8-1.3,2.7-1.9.2.3.7.8.9,1,.4.5,1.3,1.5,1.7,2-.5,1.4-.9,2.7-1.4,4.1,8.2.2,16.2,2.7,24.4,3-2.4-1.6-5.2-2.3-7.9-2.8.5-.2,1.5-.5,2-.7.7-.2,2.1-.6,2.8-.8-3.4-1.1-6.9-1.9-10.5-2.3,2.8-.3,5.6-.9,8.5-1.4,2,.3,4,.6,6.1.9-2.6-2.6-6.3-2.8-9.7-3.8l-1.3-.6c4.2-.7,8.4-1.5,12.6-1,.4-.2,1.1-.5,1.5-.7.7.3,1.5.5,2.2.8.3-.8.6-1.5.8-2.3.2.5.6,1.6.8,2.1.4,0,1.1.3,1.4.4.3.2,1,.6,1.3.8.8-1,1.5-1.9,2.3-2.9.8-1,1.5-2,2.2-3.1.5,2.1,1.1,4.3,1.6,6.4.6-.9,1.1-1.9,1.7-2.8,0,.6-.2,1.9-.3,2.5.6-.2,1.8-.6,2.4-.8,2.1-.9,2.5-3.2,2.8-5.2,1.3-.1,2.5-.3,3.8-.4.2,1.2.4,2.5.6,3.7.8-.6,1.6-1.2,2.4-1.8.3.6.9,1.7,1.2,2.3.2-1.5.3-2.9.4-4.4.4,1.4.8,2.7,1.2,4.1.5-3.3,1.1-6.6,1.8-9.8.2,1.6.5,3.2.8,4.8.4-.3,1.1-.9,1.5-1.1.4,3.1.7,6.3,1.2,9.5.9-3.4.1-6.8-.1-10.2.6.6,1.3,1.2,2,1.8.2-1.6.5-3.2.7-4.8.4,1.3.8,2.6,1.2,3.9.3-1.3.6-2.6.9-3.9.4,1.3.7,2.7,1.1,4,.2-1.7.5-3.4.7-5,.5,1.6,1,3.1,1.5,4.7.1-.7.4-2,.6-2.6,1.1.5,2.2.9,3.2,1.4.4-.9.8-1.7,1.2-2.6,0,1.5,0,3,.1,4.6.4-.5,1.1-1.6,1.4-2.2l.5-.8c.4.6,1.3,1.8,1.8,2.4.2-1.2.5-2.5.8-3.8.4.9.8,1.8,1.2,2.7.3-.8.7-1.7,1-2.5.2.6.7,2,.9,2.6,1.9-2.2,3.3-4.9,4.2-7.7.1,1.5.2,3.1.3,4.7.3-.3,1-.9,1.3-1.1.5.3,1.1.6,1.6.9,0-.4,0-1.2,0-1.6l1.4.7c.2.9.4,1.8.6,2.7.3-.2.9-.6,1.2-.8s1.1-.7,1.4-.9c0-.8-.1-1.6-.2-2.3.4.1,1,.3,1.4.4.2-.6.7-1.7.9-2.3.5,0,1.5-.2,2.1-.3-.5.7-1,1.4-1.5,2,.5,1.6,1,3.3,1.5,4.9.2-1.6.3-3.1.5-4.7,1.2-.2,2.4-.4,3.7-.5-.9-.9-1.8-1.7-2.7-2.6,3.5.7,7.1.8,10.7.3.2-1.4.3-2.8.5-4.2.6,1.4,1.1,2.9,1.7,4.3.3-1.2.5-2.5.8-3.7.5.9.9,1.7,1.4,2.6,1.4-1.3,2.7-2.6,4.1-3.9.5.4,1,.8,1.5,1.1,1.2-.6,2.5-1.2,3.8-1.7.2.2.5.6.7.8,0-.3.2-1,.2-1.3.8.4,1.5.7,2.3,1.1-.1-1.6-.2-3.2-.3-4.7Z"/>
  <path class="st137" d="M203.8,249.5c1.7,1.9,3,4.2,3.9,6.6v.8c-.8-.1-1.6-.3-2.4-.4-.7-2.3-1.3-4.6-1.5-7Z"/>
  <path class="st30" d="M274.5,249.9c.8,1.9,1.6,3.9,2.3,5.9.2-.8.7-2.4.9-3.2.3,3.8.4,7.5.1,11.3-.4.9-.8,1.7-1.2,2.6-1.1-.5-2.2-1-3.2-1.4-.1-2.7-.7-5.3-2.4-7.5,0,1.8.1,3.6.2,5.5-.2,1.7-.4,3.4-.7,5-.4-1.4-.7-2.7-1.1-4-.3,1.3-.6,2.6-.9,3.9-.4-1.3-.8-2.6-1.2-3.9-.2,1.6-.5,3.2-.7,4.8-.7-.6-1.3-1.2-2-1.8-.2-2.1-.7-4.2-1.2-6.2-.1,2.3,0,4.6.1,7-.4.3-1.2.9-1.5,1.1-.3-1.6-.5-3.2-.8-4.8-.7,3.2-1.3,6.5-1.8,9.8-.4-1.4-.8-2.7-1.2-4.1-.4-1.6-1.3-3-2.3-4.4,0,2.2,0,4.4.6,6.5-.8.6-1.6,1.2-2.4,1.8-.2-1.2-.4-2.5-.6-3.7-1.3.1-2.5.3-3.8.4-.3,2-.7,4.3-2.8,5.2.5-2.9,1.3-6.1-.4-8.9-.6,2.4-1.1,4.8-1.7,7.2-.6.9-1.1,1.9-1.7,2.8-.6-2.1-1.1-4.3-1.6-6.4-.7,1-1.5,2.1-2.2,3.1-.2-.9-.7-2.8-.9-3.7-1.1,1.9-2,3.8-2.6,5.8-.4,0-1.1-.3-1.4-.4-.2-.5-.6-1.5-.8-2.1-.3.8-.6,1.5-.8,2.3-.7-.3-1.5-.5-2.2-.8-.4.2-1.1.5-1.5.7-4.2-.5-8.4.3-12.6,1-3.5-.4-7.1-.8-10.3-2.2,7-1.7,14.2-1.5,21.2-2.9-6.3-.5-12.7.3-18.9,1.4-.7-.6-1.4-1.3-2.1-1.9,1.9-.2,3.9-.4,5.9-.7-3.5-.5-6.9.4-10.3,1,1.9.2,3.6.9,5.1,2.1-1.8.2-3.7.4-5.5.6-.1-.9-.4-2.7-.5-3.6-.3-2.2-.6-4.4-.9-6.6,1.9.9,3.8,1.7,5.7,2.3,0-.4,0-1.1,0-1.5.6,0,1.9.3,2.5.3,2.5-2,5.4-3.3,8.4-4.5,0,.7,0,1.4.1,2.1.4.3,1.3.9,1.7,1.2.5,2,.4,4.5,2.3,5.7-.3-2.1-.8-4.1-1.4-6.1.5,0,1.6-.2,2.2-.3-.6-2-1.1-3.9-1.6-5.9,1.8,2.6,3.7,5.1,6.1,7.2.9-2.6,1.2-5.3,1.5-8h.6c-.4,1.8-.3,3.7.2,5.4.3-.4.9-1.3,1.2-1.7.2,1.6.5,3.1.8,4.7.9-2.7,3.3-4.3,6-3.6.2,1.2.7,2.4,1.3,3.6.3-.8.8-2.5,1.1-3.4.1-.4.4-1.3.6-1.8,3.1.1,6.2.1,9.4-.2.2,1,.5,2.1.8,3.1.4-1.2.8-2.4,1.2-3.5.3,1,.7,2.1,1.1,3.1.2-1.7.4-3.3.6-5,.4.3,1.2.9,1.6,1.2.2,1.2.4,2.4.5,3.6.5-1.8,1.1-3.7,2.4-5.1,0,1.2-.2,2.5-.3,3.7.8,0,1.6,0,2.5,0,.3,0,.9.2,1.1.2.4-1.5,0-3.1-.5-4.6.3-.6.9-1.7,1.2-2.2.6.5,1.2,1.1,1.8,1.6.6-.8,1.3-1.5,1.9-2.2.4.4,1.1,1.2,1.4,1.6-.2-1.3-.3-2.5-.4-3.8,1.4.4,2.8.8,4.3,1.2.2.6.5,1.9.6,2.5.7-.8,1.4-1.7,2.1-2.5.3.4.8,1.1,1.1,1.5.3-1.3.6-2.5.9-3.8Z"/>
  <path class="st86" d="M248.5,259.3c-.2-2.9-2.1-6.3-.1-9,.9,2.8,1.5,5.7,2.1,8.6-.4,1.2-.8,2.4-1.2,3.5-.3-1-.6-2.1-.8-3.1Z"/>
  <path class="st245" d="M175.4,252.4c.8.9,1.5,1.8,2.3,2.7-.3-.2-.8-.7-1-.9-.1,1.3-.2,2.6-.5,3.9-7,2.3-14.8,1.3-21.5,4.6-4.2-1.5-8.7-1.7-13.1-1.6,3.5-2.1,7.6-2.8,11.5-3.9,6.2-1.7,12.8-2.9,19.3-2.1,1.6.3,2-1.9,3-2.8Z"/>
  <path class="st32" d="M222,251.7c.4.2,1.1.6,1.4.8,1.1,3.2,2.4,6.4,2.6,9.9-3.1-2.4-3.6-7-4-10.7Z"/>
  <path class="st85" d="M202.2,259.5c-.6-2.3-2.6-6.1.5-7.4.1,1,.4,3,.5,4-.3,1.1-.6,2.2-1,3.4Z"/>
  <path class="st23" d="M176.6,254.2c.3.2.8.7,1,.9,1.3,1.6,2.5,3.4,3.5,5.2-.6,1-1.1,2-1.7,3.1-7.5,1.1-14.8,3.4-22.3,4.2-1.8-.8-3.4-2.1-5-3.1-2.9-2.3-6.6-2.5-10.1-1.9-.8.9-1.7,1.9-2.6,2.8l-1.3-.5c.9-1.1,1.8-2.2,2.8-3.3l.8-.4c4.4-.1,8.9.1,13.1,1.6,6.7-3.4,14.5-2.4,21.5-4.6.3-1.3.3-2.6.5-3.9Z"/>
  <path class="st94" d="M336.4,254.2c.5,0,1.5-.2,2.1-.2,0,.9.2,2.8.3,3.8.6-.1,1.6-.4,2.2-.5-3.2,2-6.6,3.8-10,5.6.2-.5.8-1.4,1-1.9,1.6-.8,3.4-1.1,4.7-2.4.2-1.5-.1-3-.3-4.5Z"/>
  <path class="st20" d="M361.7,255.9c5.4-2,11.2-1.7,16.8-1.1l-.4.4c-1.8,2.3-4.6,3.1-7.4,3.3-2.9.2-5.9.4-8.8.6,0-.8-.1-2.4-.2-3.2Z"/>
  <path class="st81" d="M228.1,256.3c1.4.3,1.1,2.5,1.4,3.7-.3.4-.9,1.3-1.2,1.7-.6-1.7-.7-3.6-.2-5.4Z"/>
  <path class="st119" d="M258.9,260.4c-.4-1.5-.2-3.1.7-4.3.6,1.4.9,3,.5,4.6-.3,0-.9-.2-1.1-.2Z"/>
  <path class="st66" d="M290.9,255.8c3.3.5,2.7,4.5,3.3,6.9l-1.4-.7c-.8-2-1.5-4.1-2-6.2Z"/>
  <path class="st241" d="M322.1,255.8c3.5,1.7,3.5,6.2,4.7,9.4l-.9.4c-2.3-2.8-3.3-6.3-3.9-9.8Z"/>
  <path class="st3" d="M342.1,269.7c6-5.2,12.9-9.5,19.6-13.8,0,.8.1,2.4.2,3.2,2.9-.2,5.8-.4,8.8-.6,3.5.2,7.1.3,10.6,0v1.3c-1.4.2-2.9.5-4.4.7-5.3.6-10.7.7-15.9,2,1,.3,2,.6,3.1.9-3.2.3-6.4.2-9.5.4l-.9,1.1c-.8,1-1.5,2.1-2.3,3.1-.4.4-1.2,1.1-1.7,1.5-2.5.5-5.1.2-7.6.1Z"/>
  <path class="st210" d="M370.6,258.5c2.8-.2,5.6-1,7.4-3.3,5.3.2,10,2.6,14.7,4.7-13.6,6-28.2,9.5-43.1,9.6.4-.4,1.2-1.1,1.7-1.5,4.2-.2,9.8,2.3,12.9-1.7-1.5-.4-3-.9-4.5-1.3,7.9-.2,15.8-1,23.4-3,1.7-.4,3.2-1.4,4.6-2.4-2.9.3-5.7.9-8.5,1.6-.6-.2-1.7-.7-2.2-.9,1.5-.2,3-.5,4.5-.7v-1.3c-3.7.3-7.2.2-10.8,0Z"/>
  <path class="st161" d="M236.2,256.7c1.9.8,1.9,2.9,2.4,4.6-.3.8-.8,2.5-1.1,3.4-.6-1.1-1-2.3-1.3-3.6,0-1.5,0-2.9,0-4.4Z"/>
  <path class="st26" d="M271,257.6c1.6,2.2,2.2,4.8,2.4,7.5-.1.7-.4,2-.6,2.6-.5-1.5-1.1-3.1-1.5-4.7-.1-1.8-.2-3.6-.2-5.5Z"/>
  <path class="st63" d="M295,257.3c.8,1.3,1.6,2.6,2.4,3.9,0,.8.2,1.6.2,2.3-.4.2-1.1.7-1.4.9-.5-2.4-1-4.8-1.1-7.2Z"/>
  <path class="st219" d="M131.5,263c2.6-1.6,5.2-3.1,7.8-4.6.4.8,1.2,2.3,1.6,3.1-1,1-1.9,2.2-2.8,3.3-2.2-.6-4.4-1.2-6.6-1.8Z"/>
  <path class="st110" d="M205.7,264.4c0-1.8,0-3.6,0-5.3,1.3,1.7,2,3.6,2.4,5.7-.6,0-1.9-.3-2.5-.3Z"/>
  <path class="st73" d="M361,262.6c5.2-1.3,10.6-1.4,15.9-2,.6.2,1.7.7,2.2.9-5,1.2-10,1.6-15.1,2-1-.3-2-.6-3.1-.9Z"/>
  <path class="st176" d="M379.2,261.5c2.8-.7,5.6-1.3,8.5-1.6-1.4,1-2.9,2-4.6,2.4-7.6,2-15.5,2.8-23.4,3-2,0-4,0-6-.1l.9-1.1c3.2-.2,6.4-.2,9.5-.4,5.1-.4,10.1-.8,15.1-2Z"/>
  <path class="st94" d="M179.4,263.4c.6-1,1.1-2,1.7-3.1.6,1.3,1.2,2.6,1.7,3.9-.8,1.1-1.5,2.3-2.3,3.4-4.3.2-8.3,1.9-12.6,2.5-4,.9-8.3.7-12,2.6-.1-1.2-.2-2.4-.4-3.6-.4,1-.9,2-1.3,2.9.5-2.8-.7-5.4-2.2-7.7,1.7,1,3.2,2.3,5,3.1,7.5-.8,14.8-3.1,22.3-4.2Z"/>
  <path class="st249" d="M263.7,267.8c-.2-2.3-.2-4.6-.1-7,.5,2,.9,4.1,1.2,6.2.3,3.4,1.1,6.9.1,10.2-.5-3.1-.8-6.3-1.2-9.5Z"/>
  <path class="st249" d="M218.2,262.3c.3.2.9.6,1.1.9.6,2,1.1,4.1,1.4,6.1-2-1.2-1.8-3.7-2.3-5.7l-.2-1.3Z"/>
  <path class="st34" d="M303.2,262.5c2,0,2.3,3.5,1.5,5-1.3-.8-2-3.5-1.5-5Z"/>
  <path class="st249" d="M312.1,261.8c2.1,2.2,3.3,5.1,4.6,7.8.5-.1,1.5-.4,2-.5-1,.4-2,.8-3,1.3-.9-3-2.8-5.6-3.6-8.6Z"/>
  <path class="st250" d="M125.7,266.5c1.9-1.2,3.9-2.4,5.8-3.6,2.2.6,4.4,1.2,6.6,1.8-1,5.8-8.2,5.7-12.8,5.5.1-1.2.2-2.5.4-3.8Z"/>
  <path class="st93" d="M139.4,265.3c.9-.9,1.8-1.8,2.6-2.8,3.5-.6,7.2-.4,10.1,1.9,1.5,2.3,2.7,4.9,2.2,7.7-2.5,7.1-15.3,5.8-15.2-2.1.1-1.6.3-3.1.4-4.7Z"/>
  <path class="st212" d="M138.1,264.8l1.3.5c0,1.6-.2,3.1-.4,4.7-1,1.2-2.4,4.7-3.8,1.8-2.7,1.5-5.8,1.5-8.8.9-.9-.4-1.8-.8-2.7-1.2-.3.2-.9.5-1.2.7-1.8,1.1-3.5,2.2-5.2,3.2.3-1.4.6-2.8.9-4.2,2.4-1.6,4.9-3.1,7.4-4.6-.1,1.2-.2,2.5-.4,3.8,4.5.2,11.8.3,12.8-5.5Z"/>
  <path class="st206" d="M180.5,267.6c.8-1.1,1.5-2.3,2.3-3.4.5,1.4,1,2.9,1.3,4.4-.1,2.3-.3,4.6-.3,6.8-1.2-.5-2.4-.9-3.7-1.4-.6,2-1.2,4.1-1.7,6.2-.3,0-.8.2-1.1.3,0,1.4-.2,2.8-.2,4.2-2.4-1.7-4.5-4.7-7.7-4.5-1.7,2-2.6,4.8-4.5,6.5-2.2.3-4.4-.6-6.6-1,1.1-1.8,2.5-3.7,1.1-5.7-2.2,2.5-5.1,5.1-8.6,4.5-2.9-.9-5.5-2.8-8.7-2.4-5.3-3-10.2-6.4-15.4-9.5,3,.6,6.1.7,8.8-.9,1.3,2.9,2.7-.6,3.8-1.8,0,8,12.7,9.2,15.2,2.1.4-1,.9-2,1.3-2.9.1,1.2.2,2.4.4,3.6,3.7-1.8,8-1.7,12-2.6,4.2-.6,8.3-2.3,12.6-2.5Z"/>
  <path class="st179" d="M330,265.9c2.3-.2,4.6-.2,6.8-.3.5.5,1.4,1.6,1.9,2.1-3.4,2.1-7,4-10.5,6-3,1.2-5.8,2.6-8.6,4.2-6.6,2.9-13.4,5.7-20.3,7.9-.3-.4-.9-1.1-1.2-1.5.8-.5,1.6-1,2.5-1.5-.3-.3-.9-.9-1.2-1.3,1.7-1,3.3-2,4.9-3.1-1.5,0-3.1,0-4.7.2,5.4-1.7,10.6-4,16-5.9,4.4-.6,8.5-2.6,11.8-5.6.8-.5,1.7-1,2.5-1.4Z"/>
  <path class="st111" d="M353.7,265c2,0,4,0,6,.1,1.5.4,3,.8,4.5,1.3-3.1,4-8.6,1.5-12.9,1.7.8-1,1.5-2.1,2.3-3.1Z"/>
  <path class="st238" d="M198,265.7c1.1,1.4,2.1,2.9,2.9,4.4.1.9.4,2.7.5,3.6,0,.2,0,.6.1.8,1.5,0,3-.2,4.6-.3,3.3,1.4,6.8,1.9,10.3,2.2l1.3.6c-5.6.3-11.4-.9-16.9.8-.9.6-1.8,1.3-2.7,1.9.9-4.6,1-9.4-.1-14Z"/>
  <path class="st163" d="M256.1,265.5c1,1.3,1.9,2.8,2.3,4.4-.1,1.5-.3,2.9-.4,4.4-.3-.6-.9-1.7-1.2-2.3-.6-2.1-.7-4.3-.6-6.5Z"/>
  <path class="st42" d="M246.6,266.8c1.7,2.7.9,5.9.4,8.9-.6.2-1.8.6-2.4.8,0-.6.2-1.8.3-2.5.6-2.4,1.1-4.8,1.7-7.2Z"/>
  <path class="st94" d="M315.7,272.9c4-1.6,7.9-3.6,11.8-5.6-3.3,3-7.3,5-11.8,5.6Z"/>
  <path class="st124" d="M367,271.6c6.2-1.5,12.4-2.9,18.4-5.1,3.3,1.6,7.4,2.3,10.1,4.9,1.3,2.9-2.5,3.7-4.5,4.6-10.1,3-20.6,4.2-31,5.1-2.9.3-5.8,0-8.6-.3,5.5-2.6,10.5-6.1,15.6-9.2Z"/>
  <path class="st105" d="M291.1,273.8c-.6-2.1-1.5-4.4-.3-6.5,1.6,2.3,4.6,3.3,5.4,6.2-1.7.1-3.4.2-5.1.3Z"/>
  <path class="st117" d="M184.1,268.6c2.4,7.9,4.5,17,.1,24.6-4.5,8.2-14.2,11.2-22.6,13.4,0-.3-.1-.8-.1-1.1,7-4,14.1-9,17.8-16.3,1.7-4.2,3.6-8.8,2-13.3-1.5,5.3-2.1,11.1-5.7,15.6-3.6,5.1-9.2,8.3-14.4,11.5-3.3,2-6.5,4.5-10.3,5.3-4.9.8-10,1-14.9.6-9.4-.5-18.9-1-27.9-3.8-4-1.2-8.1-3.5-9.2-7.8,7.5,1.4,15.2.6,22.7-.8,3.8-.3,7.6-.6,11.4,0,2.9.7,5.5,2.3,8.4,3.3.1-1,.2-2.1.4-3.1-2.4-1.1-4.8-2.2-7.2-3.3-6.5-3-12.5-6.8-18.4-11,4-.7,7,2.8,10.7,3.6-.4-.4-1.2-1.3-1.5-1.7.9-.7,1.7-1.6,2.7-2.1,3,.5,5.9,1.3,8.9,1.8-2.7-1.2-4.6-3.4-5.3-6.3,7.4,4.6,14.8,9.2,22,14.1-1.9-5-7.7-6.7-11.6-9.8,3.2-.4,5.8,1.4,8.7,2.4,3.6.5,6.5-2,8.6-4.5,1.4,2,0,4-1.1,5.7,2.2.4,4.4,1.4,6.6,1,2-1.8,2.8-4.5,4.5-6.5,3.2-.2,5.4,2.8,7.7,4.5,0-1.4.2-2.8.2-4.2.3,0,.8-.2,1.1-.3.6-2.1,1.2-4.1,1.7-6.2,1.2.5,2.4.9,3.7,1.4,0-2.3.2-4.6.3-6.8Z"/>
  <path class="st15" d="M201.8,271c3.4-.5,6.8-1.4,10.3-1-2,.3-3.9.5-5.9.7.7.6,1.4,1.3,2.1,1.9,6.2-1,12.6-1.8,18.9-1.4-7,1.4-14.2,1.1-21.2,2.9-1.5.1-3,.3-4.6.3,0-.2,0-.6-.1-.8,1.8-.2,3.7-.4,5.5-.6-1.5-1.2-3.2-1.9-5.1-2.1Z"/>
  <path class="st143" d="M285,276.4c-2.6-1.7-3.4-5.5-2.1-8.2,1.4,2.5,2.9,5.3,2.1,8.2Z"/>
  <path class="st77" d="M235.8,275.6c.6-2,1.6-4,2.6-5.8.2.9.7,2.8.9,3.7-.8,1-1.5,2-2.3,2.9-.3-.2-1-.6-1.3-.8Z"/>
  <path class="st37" d="M123.8,271.5c.9.4,1.8.8,2.7,1.2,5.2,3.1,10.1,6.5,15.4,9.5,4,3.1,9.7,4.7,11.6,9.8-7.2-4.9-14.6-9.5-22-14.1-3-1.9-6-3.7-8.9-5.6.3-.2.9-.5,1.2-.7Z"/>
  <path class="st10" d="M109.2,277.2c3-2.1,6-4.1,9-6.1-.3,1.4-.6,2.8-.9,4.2,1.8-1.1,3.5-2.1,5.2-3.2,3,1.9,6,3.7,8.9,5.6.6,2.9,2.6,5.1,5.3,6.3-3-.5-5.9-1.3-8.9-1.8-1,.5-1.8,1.4-2.7,2.1.4.4,1.1,1.3,1.5,1.7-3.7-.9-6.7-4.3-10.7-3.6-2.5-1.5-4.8-3.2-6.8-5.3Z"/>
  <path class="st199" d="M286.8,271.4c2.4,1,2.7,3.8,4.5,5.4,1.6.5,3.3.5,4.9.6-2.6.8-5.1,1.6-7.6,2.3-.8-2.7-1.5-5.5-1.8-8.3Z"/>
  <path class="st88" d="M336.8,272.4c8.8,1.5,17.6.6,26.4,0-5.6,3.5-11.5,6.6-17.6,9.3-3.6-1.1-7.6-1.2-10.6,1.4-2.3,2.2-6.8,2.3-7.8,5.6-6.4,2-12.9,3.4-19.4,4.9-.3.3-1,.9-1.4,1.2-1.4.7-2.8,1.4-4.1,2.1-7.2-3.1-15.1-1.6-22.6-2.4.8-.2,1.6-.4,2.4-.5,2.6-.4,5.2-.9,7.7-1.6,16.4-4.7,32.1-11.4,46.9-19.9Z"/>
  <path class="st107" d="M319.6,277.9c2.8-1.6,5.6-3,8.6-4.2-2.2,2.5-5.3,3.7-8.6,4.2Z"/>
  <path class="st254" d="M175.6,291.5c3.5-4.5,4.2-10.3,5.7-15.6,1.6,4.5-.3,9.1-2,13.3-3.7,7.4-10.8,12.4-17.8,16.3,0-.6-.2-1.9-.3-2.6,5.2-3.2,10.8-6.3,14.4-11.5Z"/>
  <path class="st218" d="M269.1,276.2c.5,0,1.5.2,2,.2-.2,1.9-.2,3.9-.9,5.8-.5-2-.9-4-1.1-6Z"/>
  <path class="st250" d="M271.1,276.4c.4,0,1.2,0,1.6.1,0,2,.2,4.1.4,6.2l1.3.2c.4,0,1.1.1,1.5.1-7.9,2.1-16.1,3.1-24.2,4.2.7-1.2,1.4-2.4,2.1-3.6,4.9,3.2,10.8.7,15.8-.8.1-.2.3-.5.4-.7.7-1.9.8-3.8.9-5.8Z"/>
  <path class="st154" d="M272.8,276.5c.4,0,1.2-.3,1.7-.4.2,2.2.2,4.5.1,6.8l-1.3-.2c-.2-2.1-.4-4.1-.4-6.2Z"/>
  <path class="st118" d="M200.8,277.8c5.4-1.7,11.3-.5,16.9-.8,3.3,1,7.1,1.1,9.7,3.8-2-.2-4-.5-6.1-.9-6.4-1.3-13-1.5-19.5-1.1-.2-.3-.7-.8-.9-1Z"/>
  <path class="st151" d="M249.3,278.1c.3.3.9.8,1.2,1-.4,2.1.8,5.6-1.8,6.6,0-2.5.2-5.1.6-7.6Z"/>
  <path class="st91" d="M299.7,278.7c1.6-.1,3.1-.2,4.7-.2-1.6,1.1-3.2,2.1-4.9,3.1.3.3.9,1,1.2,1.3-.8.5-1.6,1-2.5,1.5.3.4.9,1.1,1.2,1.5-7.4,2.6-15.1,4.5-22.7,6.3-7.8,2.5-15.7-1.4-23.6,0-10.4,1.6-19.9,6.5-29.7,10.4.2-1.5.6-2.9,1.1-4.2-1-1-2-2.1-2.9-3.1,5.1-1.5,10.2-2.7,15.5-3.2,2,.7,4.3.5,5.9-1,5.7-.8,11.3-2,17-2.6,13.6-1.5,26.9-5.3,39.8-9.6Z"/>
  <path class="st79" d="M201.8,278.8c6.5-.4,13.1-.1,19.5,1.1-2.8.4-5.6,1-8.5,1.4-3.1-.2-6.2-.4-9.3-.5-.4-.5-1.3-1.5-1.7-2Z"/>
  <path class="st12" d="M203.5,280.8c3.1.1,6.2.3,9.3.5,3.6.4,7.1,1.2,10.5,2.3-.7.2-2.1.6-2.8.8-5.2-1.4-10.7-1.5-16.1-2.1v1.5c4.6,0,9.3.8,14,1.3,2.8.5,5.6,1.2,7.9,2.8-8.2-.3-16.2-2.8-24.4-3,.5-1.4.9-2.7,1.4-4.1Z"/>
  <path class="st109" d="M246.2,281c.4.3,1.3.8,1.7,1-.5,2.1-1,4.2-1.7,6.2l-1.4.3.2-1.3c.2-2.1.7-4.1,1.2-6.1Z"/>
  <path class="st134" d="M335.1,283.1c2.9-2.6,7-2.5,10.6-1.4-6,2.7-12.1,5.2-18.4,7,1-3.3,5.5-3.4,7.8-5.6Z"/>
  <path class="st156" d="M235.9,288.7c-2.5-2.4.2-5.5,2.2-7-.3,2-.8,4-1.6,5.9-.1.3-.5.8-.6,1.1Z"/>
  <path class="st198" d="M204.5,282.3c5.4.5,10.8.6,16.1,2.1-.5.2-1.5.6-2,.7-4.7-.5-9.4-1.3-14.2-1.3v-1.5Z"/>
  <path class="st250" d="M235.9,288.7c.2-.3.5-.8.6-1.1,2.8,1.1,5.8.2,8.6-.5l-.2,1.3c-8.4,1.5-16.8,2.7-25.3,3.7,4.8-3,10.6-2.6,16-3.1l.3-.4Z"/>
  <path class="st29" d="M203.2,288.2c1.6-.5,2.2,0,1.7,1.7-1.6.5-2.2,0-1.7-1.7Z"/>
  <path class="st240" d="M104.2,289.9c2.5-.5,5-1,7.5-1.6.6.3,1.9,1,2.6,1.4-4.2,1.4-8.5,2.3-12.8,2.8v-.9c1-.6,1.8-1.2,2.8-1.7Z"/>
  <path class="st142" d="M114.3,289.6c1.2-.3,2.4-.6,3.7-.9-4.4,4.2-10.9,5-16.7,5.3,0-.4.1-1.2.2-1.6,4.4-.5,8.7-1.4,12.8-2.8Z"/>
  <path class="st168" d="M237.1,292c1.7-1.3,3.8-1.5,5.9-1-1.6,1.6-3.9,1.8-5.9,1Z"/>
  <path class="st155" d="M223.4,302.6c9.7-3.9,19.2-8.8,29.7-10.4,7.9-1.4,15.8,2.5,23.6,0,1.9.5,3.7,1.2,5.6,1.8-.8.2-1.6.3-2.4.5,7.5.8,15.4-.6,22.6,2.4,3,3.4-1.3,6.2-4.1,7.4-.6.3-1.1.5-1.7.8-4.1.3-7.7,2.6-11.6,3.7-4.5,1.5-9.1,2.2-13.8,2.8-15.8,2.8-32.4,2.9-47.8-2,.7-.1,2.1-.4,2.8-.5,1.2.2,2.4.5,3.6.7,3.7.7,7.4,1.5,11.2,1.7,13.5,1.4,27.1-.6,40.2-4,3.6-.9,7.2-1.9,10.5-3.6,2.6-1.2,5.1-2.5,7.7-3.7,0-.4-.1-1.2-.2-1.6-11.1-.4-22.2-.8-33.2-2.5-5.8-1.1-12-1.5-17.8,0-7.9,2.3-15.5,5.3-23,8.8-.9.3-1.8.6-2.7,1-1.6-.1-2.2.5-2,1.9-1.7-.4-3.4-.8-5.2-1.2,2.4-1.6,5.1-3,7.8-4.1Z"/>
  <path class="st249" d="M199.6,293.3c.4,0,1.4,0,1.8,0,0,1-.1,2.1-.1,3.2-.3.3-.8.9-1.1,1.1-.2-1.4-.4-2.9-.6-4.3Z"/>
  <path class="st254" d="M121.5,296.6c3.1-2,6.9-2,10.5-1.7.6-.4,1.8-1.1,2.3-1.5,2.4,1.1,4.9,2.1,7.2,3.3-.1,1-.2,2.1-.4,3.1-2.8-1-5.4-2.5-8.4-3.3-3.8-.6-7.6-.2-11.4,0Z"/>
  <path class="st136" d="M196.2,300.2c.2-2.1-1.6-6,1.9-5.6-.2,2,.2,4.5-1.9,5.6Z"/>
  <path class="st127" d="M210.2,296.6c3.8-.3,7.6-.7,11.4-1.4,1,1,2,2.1,2.9,3.1-.5,1.4-.9,2.8-1.1,4.2-2.7,1.1-5.3,2.5-7.8,4.1-1.1-.2-2.1-.5-3.2-.8-1.6-1.1-3.2-2.2-4.8-3.2,1.7-.8,3.4-1.6,5.1-2.4-1-.2-2-.4-3-.5.2-1.1.4-2.2.6-3.2Z"/>
  <path class="st138" d="M248.3,296.1c5.8-1.6,11.9-1.1,17.8,0,0,.5.1,1.4.1,1.9-6.2.1-12.4-.5-18.6-1.4l.7-.5Z"/>
  <path class="st19" d="M225.4,305c7.4-3.5,15.1-6.5,23-8.8l-.7.5c-.4.3-1.4,1-1.8,1.3.5.3,1.4.8,1.9,1.1,1.1.6,2.2,1.3,3.4,1.9-1.8-.1-3.7-.2-5.5-.3-1.2-.4-2.5-.7-3.8-1-.3.6-.9,1.8-1.2,2.5-2.1.3-4.1.6-6.2,1-3,.8-6,1.8-9.2,2Z"/>
  <path class="st108" d="M266.1,296.1c11,1.6,22.1,2.1,33.2,2.5,0,.4.1,1.2.2,1.6-2.6,1.2-5.2,2.5-7.7,3.7,0-.7.1-2,.2-2.7-6.1,1.4-12.3,2.2-18.5,3-.4-.4-1.4-1.1-1.8-1.5,3.1-.4,6.4-.5,9-2.5-4.4-.1-8.7.9-13.1.9-.4-.2-1.1-.8-1.4-1,0-.6.1-1.3.2-1.9,0-.5-.1-1.4-.1-1.9Z"/>
  <path class="st90" d="M245.8,297.9c.4-.3,1.4-1,1.8-1.3,6.2.9,12.4,1.5,18.6,1.4,0,.6-.1,1.3-.2,1.9-6.1-.5-12.2-.3-18.3-1-.5-.3-1.4-.8-1.9-1.1Z"/>
  <path class="st104" d="M191.9,300c.3-.2,1-.5,1.3-.6,1.3,2-1.9,3.5-1.3.6Z"/>
  <path class="st219" d="M193.2,299.4c.5,1.1,1,2.2,1.5,3.4,4.3.4,8.6.7,12.9,0,1.7,1,3.2,2.1,4.8,3.2-4-.7-8-1.6-12-1.6-3.2-.1-6.5-.3-9.7-.3.1-.7.3-2.2.5-2.9.2-.3.6-.9.8-1.1-.6,2.9,2.6,1.4,1.3-.6Z"/>
  <path class="st232" d="M247.7,299c6.1.7,12.2.5,18.3,1,.4.3,1.1.8,1.4,1-5.4.1-10.9.2-16.3-.1-1.2-.6-2.3-1.3-3.4-1.9Z"/>
  <path class="st103" d="M189.1,300.3c.5.2,1.5.6,2,.8-.1.7-.3,2.2-.5,2.9-.3,0-1,0-1.3,0-.6-1.2-.6-2.5-.2-3.8Z"/>
  <path class="st226" d="M240.7,302c.3-.6.9-1.8,1.2-2.5,1.2.3,2.5.7,3.8,1l1.1.6c1.1.5,2.1,1.1,3.2,1.6-2,0-3.9.5-5,2.3-2.5,0-5,0-7.5-.4-1-.5-2-1.1-3-1.6,2-.5,4.1-.7,6.2-1Z"/>
  <path class="st180" d="M267.5,301c4.4,0,8.7-1,13.1-.9-2.5,2-5.9,2.1-9,2.5-7.2.3-14.4.7-21.6,0-1.1-.5-2.2-1-3.2-1.6l-1.1-.6c1.8.1,3.7.2,5.5.3,5.4.3,10.9.2,16.3.1Z"/>
  <path class="st255" d="M273.4,304.1c6.2-.8,12.4-1.6,18.5-3,0,.7-.2,2-.2,2.7-3.3,1.7-6.9,2.7-10.5,3.6l-.3-2.3c-13.2,1.7-26.6,2.8-39.9,1-.9-.4-2.6-1.2-3.5-1.6,2.5.3,5,.4,7.5.4,9.4,0,19,.5,28.3-.9Z"/>
  <path class="st167" d="M178.4,302.5c.7,0,2.2,0,2.9-.1-.4.4-1.3,1.1-1.7,1.5,1.3.1,2.5.3,3.8.4,5.2.8,10.4.5,15.6.6-1.2,1.1-2.5,2.2-4.2,1.9-3.7-1.6-7.6-1.2-11.5-1.1-1.7-.2-3.5-.4-5.2-.6.1-.6.3-1.9.4-2.6Z"/>
  <path class="st227" d="M97.9,302.6c4.3,4.3,10.4,5.9,16.2,7.1,14.5,2.7,29.2,3.4,43.9,3.4,5.3.1,10.7-1,16-.1,24.3,6.2,49.4,8.5,74.4,9.6-6.7,1.3-13.7.6-20.5.9-18,.2-35.9-3.3-53.9-2.5-11.3.5-22.7.1-34,.4-5.2.1-10.4-.5-15.5.5-8.9-3.2-17.7-6.7-26.1-11-.6-2.7-1.1-5.4-.5-8.1Z"/>
  <path class="st14" d="M225.4,305c3.2-.2,6.2-1.2,9.2-2,1,.6,2,1.1,3,1.6.9.4,2.6,1.2,3.5,1.6-2,1.6-4.5,1.4-6.8,1.6.4.1,1.1.4,1.5.5-1.9.9-3.9,1.5-5.9,1.5-1.2-.2-2.4-.5-3.6-.7-1.2-.3-2.4-.6-3.6-1,0-.5.1-1.6.2-2.1.9-.3,1.8-.7,2.7-1Z"/>
  <path class="st228" d="M245,305c1.1-1.8,3-2.2,5-2.3,7.2.7,14.4.2,21.6,0,.4.4,1.4,1.1,1.8,1.5-9.4,1.4-18.9.9-28.3.9Z"/>
  <path class="st15" d="M183.3,304.4c2,0,4-.2,6-.3.3,0,1,0,1.3,0,3.2,0,6.5.2,9.7.3-.4.1-1.1.4-1.5.6-5.2,0-10.4.3-15.6-.6Z"/>
  <path class="st149" d="M296.5,305c.6-.3,1.1-.5,1.7-.8,1.7.7,3.7,1,5.2,2.2,1,1.6,0,3.6-1.3,4.7-4,3.4-9.1,5.3-14.2,5.7-9,.9-18,.9-27,1.2-23.1-.4-46.5-1.1-69.2-6.1,9.1-.3,18.3-1.5,27.4.4,10.6,1.2,21.2,2.8,31.8,2.8,15.6-.7,31.4-3.2,45.5-10.1Z"/>
  <path class="st190" d="M174.1,306.4c3-.3,6.1-.6,9.1-.7,3.9,0,7.8-.4,11.5,1.1-6.6.3-13.2,0-19.7.4-.2-.2-.7-.6-.9-.9Z"/>
  <path class="st244" d="M220.8,307.9c-.3-1.4.4-2.1,2-1.9,0,.5-.1,1.6-.2,2.1-.4,0-1.3-.1-1.8-.2Z"/>
  <path class="st129" d="M241,306.2c13.2,1.8,26.7.8,39.9-1l.3,2.3c-13.1,3.5-26.7,5.4-40.2,4,2.2-.8,4.6-1.1,6.9-1-3.9-1.3-8-2.8-12.2-2.2-.4-.1-1.1-.4-1.5-.5,2.3-.2,4.9,0,6.8-1.6Z"/>
  <path class="st226" d="M229.8,309.7c2.1,0,4.1-.5,5.9-1.5,4.2-.6,8.3.8,12.2,2.2-2.4,0-4.7.2-6.9,1-3.8-.2-7.5-1-11.2-1.7Z"/>
</svg>