<svg xmlns="http://www.w3.org/2000/svg" height="512pt" version="1.1" viewBox="0 0 512 512" width="512pt"><defs>
                <linearGradient id="grad-13" gradientTransform="rotate(123 0.5 0.5)">
                
                        <stop stop-color="#aef2fe" offset="0"></stop>
                    ,
                        <stop stop-color="#aef2fe" offset="0.5"></stop>
                    
                </linearGradient>
          </defs><defs>
                <linearGradient id="grad-12" gradientTransform="rotate(185 0.5 0.5)">
                
                        <stop stop-color="#aef2fe" offset="0"></stop>
                    ,
                        <stop stop-color="#aef2fe" offset="0.5"></stop>
                    
                </linearGradient>
          </defs>
<path d="M 0.00 0.00 L 512.00 0.00 L 512.00 512.00 L 0.00 512.00 L 0.00 0.00 Z" fill="transparent" opacity="1.00" stroke="transparent" stroke-width="0.25" data-index="0" style="opacity: 1;"></path>
<path d="M 121.18 29.29 C 123.45 29.14 125.71 28.92 127.98 28.89 C 193.65 28.95 259.33 28.90 325.00 28.92 C 349.90 29.09 374.82 28.55 399.71 29.22 C 399.90 59.72 399.95 90.23 399.70 120.73 C 334.44 121.04 269.17 120.85 203.91 120.83 C 204.37 118.08 204.84 115.34 205.40 112.61 C 212.54 111.34 219.78 112.66 226.96 112.79 C 242.30 113.37 257.65 113.41 272.99 113.68 C 284.27 113.47 295.61 114.32 306.82 112.73 C 310.31 112.30 313.81 112.01 317.31 111.74 C 328.09 112.13 338.54 109.16 349.17 107.95 C 353.33 107.39 357.57 107.34 361.67 106.37 C 364.46 105.90 365.89 102.66 365.37 100.10 C 364.86 97.76 363.75 95.61 362.80 93.43 C 364.48 91.42 366.70 89.59 367.27 86.89 C 368.06 83.32 368.37 79.62 368.23 75.96 C 368.09 72.49 366.76 69.15 366.84 65.67 C 368.19 62.08 372.03 60.06 373.36 56.46 C 369.28 51.58 364.55 45.72 357.61 45.56 C 345.43 44.86 333.20 45.45 321.00 45.24 C 300.61 44.67 280.37 47.98 260.00 48.26 C 235.00 48.45 209.99 47.99 184.99 48.41 C 177.77 48.44 170.78 45.87 163.54 46.29 C 157.22 46.58 151.45 49.44 145.60 51.58 C 140.02 53.66 133.66 55.99 130.88 61.72 C 128.18 67.39 126.81 73.57 124.44 79.37 C 121.39 87.04 120.65 95.33 118.46 103.25 C 115.17 115.49 114.07 128.16 112.92 140.74 C 112.26 148.18 109.59 155.26 108.77 162.68 C 107.47 174.08 105.97 185.48 105.40 196.94 C 104.90 212.17 105.53 227.52 108.46 242.50 C 109.10 245.98 110.30 249.51 112.92 252.02 C 116.40 255.54 120.25 259.66 125.53 259.94 C 129.48 260.35 132.87 257.97 136.19 256.23 C 138.31 255.35 140.41 253.99 142.78 254.02 C 146.33 254.63 149.46 256.70 153.03 257.29 C 156.74 257.25 160.21 254.76 163.98 255.68 C 168.72 258.81 173.67 261.58 178.59 264.42 C 182.93 266.92 188.15 266.56 192.95 266.04 C 197.96 265.36 202.96 264.52 207.93 263.59 C 203.48 268.65 197.19 271.66 192.90 276.90 C 189.35 280.41 187.01 285.18 182.82 287.96 C 176.48 288.34 170.42 285.83 164.24 284.77 C 141.55 280.11 118.98 274.89 96.22 270.64 C 95.08 262.03 97.56 253.56 98.07 245.00 C 104.23 190.33 109.56 135.58 115.62 80.91 C 116.75 67.92 118.68 55.00 119.72 42.00 C 120.01 37.74 120.43 33.49 121.18 29.29 Z" fill="#aef2fe" opacity="1.00" stroke="#aef2fe" stroke-width="0.25" data-index="1" style="opacity: 1; visibility: visible; fill: rgb(174, 242, 254); stroke: rgb(174, 242, 254);"></path>
<path d="M 260.00 48.26 C 280.37 47.98 300.61 44.67 321.00 45.24 C 333.20 45.45 345.43 44.86 357.61 45.56 C 364.55 45.72 369.28 51.58 373.36 56.46 C 372.03 60.06 368.19 62.08 366.84 65.67 C 366.76 69.15 368.09 72.49 368.23 75.96 C 368.37 79.62 368.06 83.32 367.27 86.89 C 366.70 89.59 364.48 91.42 362.80 93.43 C 363.75 95.61 364.86 97.76 365.37 100.10 C 365.89 102.66 364.46 105.90 361.67 106.37 C 357.57 107.34 353.33 107.39 349.17 107.95 C 338.54 109.16 328.09 112.13 317.31 111.74 C 325.11 109.42 333.29 109.02 341.15 107.00 C 346.60 105.63 352.24 105.97 357.78 105.42 C 360.11 105.28 361.96 103.74 363.79 102.47 C 360.84 97.56 357.29 92.77 356.10 87.06 C 355.26 82.23 357.76 77.53 357.02 72.69 C 356.51 69.58 355.96 66.31 354.23 63.63 C 349.52 60.49 343.53 60.19 338.03 59.86 C 327.88 59.82 317.70 59.62 307.57 60.51 C 298.73 61.27 289.84 61.11 280.98 60.94 C 270.27 60.69 259.73 58.50 249.04 58.12 C 232.36 57.91 215.70 55.95 199.02 57.11 C 192.78 57.24 186.52 58.09 180.29 57.52 C 176.71 56.20 174.77 52.23 171.10 50.97 C 167.92 49.92 164.54 49.52 161.20 49.51 C 157.28 49.55 154.01 52.04 150.39 53.21 C 146.86 54.59 142.66 54.98 140.03 58.00 C 134.29 64.37 133.06 73.19 129.80 80.83 C 125.21 91.49 122.77 102.87 120.24 114.14 C 118.97 122.20 118.09 130.31 116.40 138.30 C 113.29 160.63 110.76 183.12 110.51 205.68 C 111.76 218.88 112.40 232.18 114.81 245.25 C 115.85 249.49 116.95 254.67 121.17 256.87 C 126.00 258.80 131.35 257.44 136.19 256.23 C 132.87 257.97 129.48 260.35 125.53 259.94 C 120.25 259.66 116.40 255.54 112.92 252.02 C 110.30 249.51 109.10 245.98 108.46 242.50 C 105.53 227.52 104.90 212.17 105.40 196.94 C 105.97 185.48 107.47 174.08 108.77 162.68 C 109.59 155.26 112.26 148.18 112.92 140.74 C 114.07 128.16 115.17 115.49 118.46 103.25 C 120.65 95.33 121.39 87.04 124.44 79.37 C 126.81 73.57 128.18 67.39 130.88 61.72 C 133.66 55.99 140.02 53.66 145.60 51.58 C 151.45 49.44 157.22 46.58 163.54 46.29 C 170.78 45.87 177.77 48.44 184.99 48.41 C 209.99 47.99 235.00 48.45 260.00 48.26 Z" fill="#8ce6fd" opacity="1.00" stroke="#8ce6fd" stroke-width="0.25" data-index="2" style="opacity: 1; visibility: visible; fill: rgb(174, 242, 254); stroke: rgb(174, 242, 254);"></path>
<path d="M 150.39 53.21 C 154.01 52.04 157.28 49.55 161.20 49.51 C 164.54 49.52 167.92 49.92 171.10 50.97 C 174.77 52.23 176.71 56.20 180.29 57.52 C 186.52 58.09 192.78 57.24 199.02 57.11 C 215.70 55.95 232.36 57.91 249.04 58.12 C 259.73 58.50 270.27 60.69 280.98 60.94 C 289.84 61.11 298.73 61.27 307.57 60.51 C 317.70 59.62 327.88 59.82 338.03 59.86 C 343.53 60.19 349.52 60.49 354.23 63.63 C 355.96 66.31 356.51 69.58 357.02 72.69 C 357.76 77.53 355.26 82.23 356.10 87.06 C 357.29 92.77 360.84 97.56 363.79 102.47 C 361.96 103.74 360.11 105.28 357.78 105.42 C 352.24 105.97 346.60 105.63 341.15 107.00 C 333.29 109.02 325.11 109.42 317.31 111.74 C 313.81 112.01 310.31 112.30 306.82 112.73 C 295.61 114.32 284.27 113.47 272.99 113.68 C 257.65 113.41 242.30 113.37 226.96 112.79 C 219.78 112.66 212.54 111.34 205.40 112.61 C 204.16 113.24 202.98 113.96 201.79 114.67 C 199.62 113.71 197.46 112.57 195.09 112.24 C 192.82 112.24 190.64 112.95 188.45 113.43 C 187.83 120.56 187.94 127.74 186.85 134.82 C 185.03 147.80 185.96 160.97 184.78 174.00 C 184.41 178.89 182.90 183.70 183.26 188.63 C 186.72 192.19 192.26 189.24 196.56 189.43 C 197.13 189.52 198.27 189.69 198.83 189.78 C 195.85 190.94 192.87 192.20 189.72 192.83 C 185.50 193.68 181.40 190.73 177.20 192.03 C 173.08 193.25 169.38 195.51 165.56 197.44 C 159.50 200.70 152.75 202.87 147.55 207.55 C 145.06 209.85 142.03 211.88 140.47 214.97 C 140.07 217.74 140.66 220.66 141.93 223.15 C 144.10 225.90 148.46 226.18 150.11 229.46 C 151.61 232.38 153.11 235.31 154.78 238.15 C 156.86 241.63 157.83 245.66 159.95 249.12 C 162.04 252.07 165.09 254.15 167.94 256.31 C 166.62 256.05 165.30 255.85 163.98 255.68 C 160.21 254.76 156.74 257.25 153.03 257.29 C 149.46 256.70 146.33 254.63 142.78 254.02 C 140.41 253.99 138.31 255.35 136.19 256.23 C 131.35 257.44 126.00 258.80 121.17 256.87 C 116.95 254.67 115.85 249.49 114.81 245.25 C 112.40 232.18 111.76 218.88 110.51 205.68 C 110.76 183.12 113.29 160.63 116.40 138.30 C 118.09 130.31 118.97 122.20 120.24 114.14 C 122.77 102.87 125.21 91.49 129.80 80.83 C 133.06 73.19 134.29 64.37 140.03 58.00 C 142.66 54.98 146.86 54.59 150.39 53.21 Z" fill="#76ddfd" opacity="1.00" stroke="#76ddfd" stroke-width="0.25" data-index="3" style="opacity: 1; visibility: visible; fill: rgb(174, 242, 254); stroke: rgb(174, 242, 254); display: none;"></path>
<path d="M 147.85 62.94 C 152.25 60.52 157.10 58.66 162.12 58.17 C 167.20 57.86 170.19 62.69 174.28 64.80 C 179.55 65.30 184.59 62.58 189.89 63.07 C 193.88 63.23 198.27 65.54 199.09 69.77 C 201.20 79.35 202.91 89.02 204.43 98.72 C 205.12 102.74 204.80 106.85 203.73 110.77 C 198.84 110.39 193.89 110.02 189.04 111.00 C 178.46 112.50 167.12 113.31 157.09 108.90 C 154.64 107.92 151.97 106.41 151.36 103.61 C 150.28 98.80 153.64 94.37 153.39 89.62 C 151.38 87.64 148.72 86.45 146.79 84.38 C 146.71 79.21 147.84 74.02 146.85 68.86 C 146.86 66.92 145.50 63.99 147.85 62.94 Z" fill="#69d2fe" opacity="1.00" stroke="#69d2fe" stroke-width="0.25" data-index="4" style="visibility: visible; fill: rgb(174, 242, 254); stroke: rgb(174, 242, 254); opacity: 1; display: none;"></path>
<path d="M 188.45 113.43 C 190.64 112.95 192.82 112.24 195.09 112.24 C 197.46 112.57 199.62 113.71 201.79 114.67 C 202.98 113.96 204.16 113.24 205.40 112.61 C 204.84 115.34 204.37 118.08 203.91 120.83 C 203.63 122.48 203.37 124.14 202.94 125.77 C 198.95 137.68 196.76 150.17 191.70 161.72 C 188.30 169.87 186.64 178.64 186.06 187.43 C 189.59 187.92 193.09 188.62 196.56 189.43 C 192.26 189.24 186.72 192.19 183.26 188.63 C 182.90 183.70 184.41 178.89 184.78 174.00 C 185.96 160.97 185.03 147.80 186.85 134.82 C 187.94 127.74 187.83 120.56 188.45 113.43 Z" fill="#81e3fd" opacity="1.00" stroke="#81e3fd" stroke-width="0.25" data-index="5" style="visibility: visible; fill: rgb(174, 242, 254); stroke: rgb(174, 242, 254); opacity: 1;"></path>
<path d="M 191.70 161.72 C 196.76 150.17 198.95 137.68 202.94 125.77 C 202.45 137.82 200.60 149.76 199.58 161.77 C 198.86 170.66 196.90 179.49 197.32 188.45 C 198.01 188.65 199.39 189.07 200.07 189.28 C 199.76 189.41 199.14 189.65 198.83 189.78 C 198.27 189.69 197.13 189.52 196.56 189.43 C 193.09 188.62 189.59 187.92 186.06 187.43 C 186.64 178.64 188.30 169.87 191.70 161.72 Z" fill="#95e9fd" opacity="1.00" stroke="#95e9fd" stroke-width="0.25" data-index="6" style="visibility: visible; fill: rgb(174, 242, 254); stroke: rgb(174, 242, 254); opacity: 1;"></path>
<path d="M 267.96 166.13 C 287.34 164.74 307.12 165.03 326.01 170.04 C 348.18 175.22 369.26 185.55 386.45 200.55 C 400.69 213.54 412.46 229.49 419.58 247.47 C 430.60 273.87 433.73 303.03 431.40 331.40 C 430.30 341.43 428.96 351.46 426.31 361.22 C 423.91 371.73 419.63 381.66 415.48 391.57 C 408.17 406.98 398.13 421.04 386.33 433.33 C 376.49 443.40 364.99 451.66 353.08 459.08 C 337.00 468.60 319.14 474.71 301.02 478.98 C 275.66 483.81 249.42 484.58 223.95 480.13 C 218.47 479.25 212.93 478.33 207.84 476.03 C 220.52 477.31 233.27 477.22 246.00 477.20 C 258.06 477.38 269.90 474.73 281.70 472.58 C 300.44 467.57 319.78 463.35 336.91 453.89 C 346.46 447.81 357.64 444.01 365.55 435.59 C 372.53 427.80 380.34 420.66 385.84 411.67 C 391.47 404.45 396.69 396.94 400.94 388.82 C 415.19 365.58 420.13 337.93 420.41 311.00 C 421.03 289.38 416.78 267.68 408.29 247.81 C 404.38 239.66 400.29 231.50 394.71 224.34 C 388.05 215.74 381.73 206.58 372.80 200.16 C 367.44 196.35 362.65 191.35 356.10 189.63 C 347.63 187.26 339.77 183.19 331.38 180.56 C 324.57 178.42 318.28 174.73 311.21 173.44 C 300.27 171.25 289.07 172.07 278.00 171.79 C 268.24 171.56 258.48 172.20 248.84 173.69 C 239.25 175.27 229.41 176.08 220.38 179.96 C 219.74 180.03 218.47 180.17 217.83 180.25 C 221.95 177.38 226.81 175.96 231.50 174.33 C 243.25 170.09 255.58 167.61 267.96 166.13 Z" fill="#adf2fd" opacity="1.00" stroke="#adf2fd" stroke-width="0.25" data-index="7" style="opacity: 1;"></path>
<path d="M 248.84 173.69 C 258.48 172.20 268.24 171.56 278.00 171.79 C 289.07 172.07 300.27 171.25 311.21 173.44 C 318.28 174.73 324.57 178.42 331.38 180.56 C 339.77 183.19 347.63 187.26 356.10 189.63 C 362.65 191.35 367.44 196.35 372.80 200.16 C 381.73 206.58 388.05 215.74 394.71 224.34 C 400.29 231.50 404.38 239.66 408.29 247.81 C 416.78 267.68 421.03 289.38 420.41 311.00 C 420.13 337.93 415.19 365.58 400.94 388.82 C 396.69 396.94 391.47 404.45 385.84 411.67 C 380.34 420.66 372.53 427.80 365.55 435.59 C 357.64 444.01 346.46 447.81 336.91 453.89 C 319.78 463.35 300.44 467.57 281.70 472.58 C 269.90 474.73 258.06 477.38 246.00 477.20 C 233.27 477.22 220.52 477.31 207.84 476.03 C 185.50 471.40 164.38 461.41 145.92 448.08 C 143.80 446.59 141.78 444.94 140.05 443.01 C 134.70 436.69 128.61 431.04 123.43 424.58 C 116.97 417.22 111.61 409.00 106.16 400.89 C 103.27 396.12 99.51 391.20 99.60 385.36 C 99.65 380.15 103.96 376.66 106.25 372.39 C 107.82 369.36 109.62 366.46 111.74 363.78 C 114.38 360.37 113.34 355.42 116.06 352.05 C 118.68 348.81 122.25 346.34 126.22 345.06 C 133.71 342.55 141.99 342.73 149.05 338.92 C 152.98 336.93 157.03 333.94 161.70 335.10 C 168.74 336.56 178.12 337.19 181.03 345.06 C 187.67 363.02 197.00 380.63 211.57 393.43 C 221.51 402.05 235.42 403.07 248.00 402.75 C 257.97 403.12 267.84 400.72 276.98 396.84 C 285.79 392.88 292.55 385.73 300.55 380.48 C 304.35 378.05 307.71 374.93 310.10 371.08 C 314.41 364.69 319.60 358.79 322.53 351.56 C 329.13 337.45 330.69 321.46 328.95 306.11 C 327.04 291.75 321.33 277.43 310.51 267.46 C 299.42 256.78 284.32 250.82 269.04 249.93 C 253.14 248.74 237.18 251.89 222.32 257.43 C 217.42 259.24 212.96 262.12 207.93 263.59 C 202.96 264.52 197.96 265.36 192.95 266.04 C 188.15 266.56 182.93 266.92 178.59 264.42 C 173.67 261.58 168.72 258.81 163.98 255.68 C 165.30 255.85 166.62 256.05 167.94 256.31 C 170.40 257.14 172.85 258.35 175.51 258.37 C 177.67 258.03 179.27 256.34 180.84 254.96 C 186.29 249.47 193.68 246.82 200.57 243.67 C 206.21 241.09 212.46 240.70 218.45 239.44 C 225.13 238.14 230.53 233.25 237.37 232.49 C 252.39 230.91 267.93 227.96 282.76 232.40 C 291.82 236.11 299.78 241.98 308.32 246.69 C 314.08 249.69 318.07 254.95 322.16 259.82 C 325.14 263.34 327.22 267.48 329.33 271.55 C 332.16 277.06 336.68 281.82 337.69 288.13 C 340.92 300.77 338.60 313.79 337.51 326.55 C 337.25 330.40 336.12 334.10 334.76 337.70 C 333.03 342.09 333.50 347.04 331.49 351.35 C 329.98 354.71 327.88 357.77 326.26 361.08 C 323.85 365.78 322.43 371.01 319.19 375.26 C 315.28 380.29 311.04 385.05 306.54 389.56 C 303.39 392.71 300.99 396.67 297.12 399.05 C 291.46 402.53 286.17 406.77 279.79 408.89 C 271.11 411.92 262.43 416.31 252.97 415.51 C 247.35 415.00 241.71 415.45 236.09 415.15 C 227.80 413.98 220.21 410.03 212.99 405.98 C 206.74 402.19 199.68 398.79 195.88 392.20 C 192.62 386.57 186.68 383.09 183.76 377.22 C 179.21 368.35 173.48 359.82 171.35 349.93 C 170.46 346.40 170.48 342.13 167.38 339.65 C 164.72 337.48 161.10 335.19 157.57 336.58 C 151.53 338.87 146.70 343.73 140.29 345.21 C 133.50 346.90 125.71 346.25 120.01 350.98 C 115.18 354.26 114.61 360.52 113.69 365.79 C 112.76 370.52 115.02 374.95 116.20 379.41 C 118.22 387.50 121.71 395.17 125.55 402.53 C 130.13 408.36 132.89 415.49 138.18 420.77 C 149.30 432.42 161.10 443.81 175.36 451.55 C 184.31 455.98 193.31 460.44 202.97 463.10 C 213.64 466.73 224.92 467.81 236.08 468.77 C 247.69 469.09 259.34 467.54 270.56 464.57 C 277.50 462.82 283.24 458.15 290.15 456.30 C 300.26 453.56 309.21 447.73 316.96 440.83 C 327.07 434.26 335.70 425.59 343.23 416.24 C 348.79 408.09 355.76 400.84 359.75 391.70 C 364.49 382.89 367.11 373.19 371.05 364.04 C 373.25 358.76 374.30 353.12 375.62 347.59 C 379.33 333.02 378.42 317.81 377.04 302.99 C 375.99 287.19 373.08 271.18 366.02 256.88 C 360.09 246.42 355.08 235.14 346.66 226.36 C 340.03 220.32 333.32 214.36 326.73 208.27 C 322.88 204.66 318.55 201.58 313.84 199.18 C 306.12 195.24 298.90 190.26 290.74 187.23 C 281.20 183.65 271.10 181.96 261.20 179.72 C 251.64 177.49 241.64 177.35 231.98 179.04 C 228.16 179.76 224.27 180.04 220.38 179.96 C 229.41 176.08 239.25 175.27 248.84 173.69 Z" fill="#81e3fd" opacity="1.00" stroke="#81e3fd" stroke-width="0.25" data-index="8" style="opacity: 1; visibility: visible; fill: rgb(174, 242, 254); display: none;"></path>
<path d="M 231.98 179.04 C 241.64 177.35 251.64 177.49 261.20 179.72 C 271.10 181.96 281.20 183.65 290.74 187.23 C 298.90 190.26 306.12 195.24 313.84 199.18 C 318.55 201.58 322.88 204.66 326.73 208.27 C 333.32 214.36 340.03 220.32 346.66 226.36 C 355.08 235.14 360.09 246.42 366.02 256.88 C 373.08 271.18 375.99 287.19 377.04 302.99 C 378.42 317.81 379.33 333.02 375.62 347.59 C 374.30 353.12 373.25 358.76 371.05 364.04 C 367.11 373.19 364.49 382.89 359.75 391.70 C 355.76 400.84 348.79 408.09 343.23 416.24 C 335.70 425.59 327.07 434.26 316.96 440.83 C 308.15 444.51 300.99 451.40 291.69 453.98 C 288.65 450.21 284.82 446.99 282.80 442.51 C 281.98 440.47 281.01 438.50 280.25 436.45 C 287.06 431.27 293.45 425.53 299.36 419.34 C 303.10 415.32 305.62 410.37 309.26 406.27 C 313.30 401.64 317.89 397.32 320.66 391.74 C 328.96 373.11 333.74 353.22 339.72 333.79 C 343.46 321.55 343.34 308.62 343.06 295.96 C 342.29 284.87 339.23 273.91 333.91 264.13 C 330.96 257.78 325.79 252.94 321.65 247.41 C 318.94 243.78 315.43 240.90 312.06 237.92 C 307.83 234.19 304.54 229.25 299.33 226.74 C 291.46 222.88 283.86 218.53 275.97 214.73 C 272.51 216.71 268.81 219.01 264.64 218.53 C 257.76 217.94 250.65 218.17 244.04 215.96 C 240.37 214.81 238.83 209.13 234.45 210.34 C 229.45 211.29 224.78 213.46 219.80 214.49 C 212.83 215.98 205.79 217.54 199.31 220.59 C 196.06 222.36 192.90 224.88 191.49 228.40 C 189.88 233.37 190.35 238.97 187.55 243.56 C 185.29 247.34 182.99 251.11 180.84 254.96 C 179.27 256.34 177.67 258.03 175.51 258.37 C 172.85 258.35 170.40 257.14 167.94 256.31 C 165.09 254.15 162.04 252.07 159.95 249.12 C 157.83 245.66 156.86 241.63 154.78 238.15 C 153.11 235.31 151.61 232.38 150.11 229.46 C 148.46 226.18 144.10 225.90 141.93 223.15 C 140.66 220.66 140.07 217.74 140.47 214.97 C 142.03 211.88 145.06 209.85 147.55 207.55 C 152.75 202.87 159.50 200.70 165.56 197.44 C 169.38 195.51 173.08 193.25 177.20 192.03 C 181.40 190.73 185.50 193.68 189.72 192.83 C 192.87 192.20 195.85 190.94 198.83 189.78 C 199.14 189.65 199.76 189.41 200.07 189.28 C 206.01 186.34 211.32 181.90 217.83 180.25 C 218.47 180.17 219.74 180.03 220.38 179.96 C 224.27 180.04 228.16 179.76 231.98 179.04 Z" fill="#6cd5fd" opacity="1.00" stroke="#6cd5fd" stroke-width="0.25" data-index="9" style="opacity: 1; visibility: visible; fill: rgb(174, 242, 254); display: none;"></path>
<path d="M 219.80 214.49 C 224.78 213.46 229.45 211.29 234.45 210.34 C 238.83 209.13 240.37 214.81 244.04 215.96 C 250.65 218.17 257.76 217.94 264.64 218.53 C 268.81 219.01 272.51 216.71 275.97 214.73 C 283.86 218.53 291.46 222.88 299.33 226.74 C 304.54 229.25 307.83 234.19 312.06 237.92 C 315.43 240.90 318.94 243.78 321.65 247.41 C 325.79 252.94 330.96 257.78 333.91 264.13 C 339.23 273.91 342.29 284.87 343.06 295.96 C 343.34 308.62 343.46 321.55 339.72 333.79 C 333.74 353.22 328.96 373.11 320.66 391.74 C 317.89 397.32 313.30 401.64 309.26 406.27 C 305.62 410.37 303.10 415.32 299.36 419.34 C 293.45 425.53 287.06 431.27 280.25 436.45 C 281.01 438.50 281.98 440.47 282.80 442.51 C 284.82 446.99 288.65 450.21 291.69 453.98 C 300.99 451.40 308.15 444.51 316.96 440.83 C 309.21 447.73 300.26 453.56 290.15 456.30 C 283.24 458.15 277.50 462.82 270.56 464.57 C 259.34 467.54 247.69 469.09 236.08 468.77 C 224.92 467.81 213.64 466.73 202.97 463.10 C 193.31 460.44 184.31 455.98 175.36 451.55 C 161.10 443.81 149.30 432.42 138.18 420.77 C 132.89 415.49 130.13 408.36 125.55 402.53 C 121.71 395.17 118.22 387.50 116.20 379.41 C 115.02 374.95 112.76 370.52 113.69 365.79 C 114.61 360.52 115.18 354.26 120.01 350.98 C 125.71 346.25 133.50 346.90 140.29 345.21 C 146.70 343.73 151.53 338.87 157.57 336.58 C 161.10 335.19 164.72 337.48 167.38 339.65 C 170.48 342.13 170.46 346.40 171.35 349.93 C 173.48 359.82 179.21 368.35 183.76 377.22 C 186.68 383.09 192.62 386.57 195.88 392.20 C 199.68 398.79 206.74 402.19 212.99 405.98 C 220.21 410.03 227.80 413.98 236.09 415.15 C 241.71 415.45 247.35 415.00 252.97 415.51 C 262.43 416.31 271.11 411.92 279.79 408.89 C 286.17 406.77 291.46 402.53 297.12 399.05 C 300.99 396.67 303.39 392.71 306.54 389.56 C 311.04 385.05 315.28 380.29 319.19 375.26 C 322.43 371.01 323.85 365.78 326.26 361.08 C 327.88 357.77 329.98 354.71 331.49 351.35 C 333.50 347.04 333.03 342.09 334.76 337.70 C 336.12 334.10 337.25 330.40 337.51 326.55 C 338.60 313.79 340.92 300.77 337.69 288.13 C 336.68 281.82 332.16 277.06 329.33 271.55 C 327.22 267.48 325.14 263.34 322.16 259.82 C 318.07 254.95 314.08 249.69 308.32 246.69 C 299.78 241.98 291.82 236.11 282.76 232.40 C 267.93 227.96 252.39 230.91 237.37 232.49 C 230.53 233.25 225.13 238.14 218.45 239.44 C 212.46 240.70 206.21 241.09 200.57 243.67 C 193.68 246.82 186.29 249.47 180.84 254.96 C 182.99 251.11 185.29 247.34 187.55 243.56 C 190.35 238.97 189.88 233.37 191.49 228.40 C 192.90 224.88 196.06 222.36 199.31 220.59 C 205.79 217.54 212.83 215.98 219.80 214.49 Z" fill="#75dcfd" opacity="1.00" stroke="#75dcfd" stroke-width="0.25" data-index="10" style="opacity: 1; visibility: visible; fill: rgb(174, 242, 254);"></path>
<path d="M 154.38 319.35 C 161.92 317.00 169.04 313.27 176.86 311.87 C 179.76 317.53 181.03 323.81 183.26 329.73 C 187.26 341.83 192.53 353.63 200.04 363.97 C 205.67 370.98 211.94 377.74 219.87 382.18 C 233.91 390.99 251.18 393.44 267.44 391.42 C 278.32 390.00 289.19 386.64 298.21 380.24 C 302.34 377.41 306.04 374.01 310.10 371.08 C 307.71 374.93 304.35 378.05 300.55 380.48 C 292.55 385.73 285.79 392.88 276.98 396.84 C 267.84 400.72 257.97 403.12 248.00 402.75 C 235.42 403.07 221.51 402.05 211.57 393.43 C 197.00 380.63 187.67 363.02 181.03 345.06 C 178.12 337.19 168.74 336.56 161.70 335.10 C 157.03 333.94 152.98 336.93 149.05 338.92 C 141.99 342.73 133.71 342.55 126.22 345.06 C 122.25 346.34 118.68 348.81 116.06 352.05 C 113.34 355.42 114.38 360.37 111.74 363.78 C 109.62 366.46 107.82 369.36 106.25 372.39 C 103.96 376.66 99.65 380.15 99.60 385.36 C 99.51 391.20 103.27 396.12 106.16 400.89 C 111.61 409.00 116.97 417.22 123.43 424.58 C 128.61 431.04 134.70 436.69 140.05 443.01 C 133.53 439.87 128.96 434.07 124.01 429.01 C 106.38 410.42 93.62 387.50 85.90 363.13 C 84.29 357.58 81.53 352.20 81.33 346.35 C 84.34 343.93 88.36 343.37 91.89 341.97 C 112.68 334.31 133.60 327.02 154.38 319.35 Z" fill="#adf2fe" opacity="1.00" stroke="#adf2fe" stroke-width="0.25" data-index="11" style="opacity: 1;"></path>
<path d="M248.84,173.69c9.64,-1.49 19.4,-2.13 29.16,-1.9c11.07,0.28 22.27,-0.54 33.21,1.65c7.07,1.29 13.36,4.98 20.17,7.12c8.39,2.63 16.25,6.7 24.72,9.07c6.55,1.72 11.34,6.72 16.7,10.53c8.93,6.42 15.25,15.58 21.91,24.18c5.58,7.16 9.67,15.32 13.58,23.47c8.49,19.87 12.74,41.57 12.12,63.19c-0.28,26.93 -5.22,54.58 -19.47,77.82c-4.25,8.12 -9.47,15.63 -15.1,22.85c-5.5,8.99 -13.31,16.13 -20.29,23.92c-7.91,8.42 -19.09,12.22 -28.64,18.3c-17.13,9.46 -36.47,13.68 -55.21,18.69c-11.8,2.15 -23.64,4.8 -35.7,4.62c-12.73,0.02 -25.48,0.11 -38.16,-1.17c-22.34,-4.63 -43.46,-14.62 -61.92,-27.95c-2.12,-1.49 -4.14,-3.14 -5.87,-5.07c-5.35,-6.32 -11.44,-11.97 -16.62,-18.43c-6.46,-7.36 -11.82,-15.58 -17.27,-23.69c-2.89,-4.77 -6.65,-9.69 -6.56,-15.53c0.05,-5.21 4.36,-8.7 6.65,-12.97c1.57,-3.03 3.37,-5.93 5.49,-8.61c2.64,-3.41 1.6,-8.36 4.32,-11.73c2.62,-3.24 6.19,-5.71 10.16,-6.99c7.49,-2.51 15.77,-2.33 22.83,-6.14c3.93,-1.99 7.98,-4.98 12.65,-3.82c7.04,1.46 16.42,2.09 19.33,9.96c6.64,17.96 15.97,35.57 30.54,48.37c9.94,8.62 23.85,9.64 36.43,9.32c9.97,0.37 19.84,-2.03 28.98,-5.91c8.81,-3.96 15.57,-11.11 23.57,-16.36c3.8,-2.43 7.16,-5.55 9.55,-9.4c4.31,-6.39 9.5,-12.29 12.43,-19.52c6.6,-14.11 8.16,-30.1 6.42,-45.45c-1.91,-14.36 -7.62,-28.68 -18.44,-38.65c-11.09,-10.68 -26.19,-16.64 -41.47,-17.53c-15.9,-1.19 -31.86,1.96 -46.72,7.5c-4.9,1.81 -9.36,4.69 -14.39,6.16c-4.97,0.93 -9.97,1.77 -14.98,2.45c-4.8,0.52 -10.02,0.88 -14.36,-1.62c-4.92,-2.84 -9.87,-5.61 -14.61,-8.74c1.32,0.17 2.64,0.37 3.96,0.63c-2.85,-2.16 -5.9,-4.24 -7.99,-7.19c-2.12,-3.46 -3.09,-7.49 -5.17,-10.97c-1.67,-2.84 -3.17,-5.77 -4.67,-8.69c-1.65,-3.28 -6.01,-3.56 -8.18,-6.31c-1.27,-2.49 -1.86,-5.41 -1.46,-8.18c1.56,-3.09 4.59,-5.12 7.08,-7.42c5.2,-4.68 11.95,-6.85 18.01,-10.11c3.82,-1.93 7.52,-4.19 11.64,-5.41c4.2,-1.3 8.3,1.65 12.52,0.8c3.15,-0.63 6.13,-1.89 9.11,-3.05c0.31,-0.13 0.93,-0.37 1.24,-0.5c5.94,-2.94 11.25,-7.38 17.76,-9.03c0.64,-0.08 1.91,-0.22 2.55,-0.29c9.03,-3.88 18.87,-4.69 28.46,-6.27zM200.57,243.67c5.64,-2.58 11.89,-2.97 17.88,-4.23c6.68,-1.3 12.08,-6.19 18.92,-6.95c15.02,-1.58 30.56,-4.53 45.39,-0.09c9.06,3.71 17.02,9.58 25.56,14.29c5.76,3 9.75,8.26 13.84,13.13c2.98,3.52 5.06,7.66 7.17,11.73c2.83,5.51 7.35,10.27 8.36,16.58c3.23,12.64 0.91,25.66 -0.18,38.42c-0.26,3.85 -1.39,7.55 -2.75,11.15c-1.73,4.39 -1.26,9.34 -3.27,13.65c-1.51,3.36 -3.61,6.42 -5.23,9.73c-2.41,4.7 -3.83,9.93 -7.07,14.18c-3.91,5.03 -8.15,9.79 -12.65,14.3c-3.15,3.15 -5.55,7.11 -9.42,9.49c-5.66,3.48 -10.95,7.72 -17.33,9.84c-8.68,3.03 -17.36,7.42 -26.82,6.62c-5.62,-0.51 -11.26,-0.06 -16.88,-0.36c-8.29,-1.17 -15.88,-5.12 -23.1,-9.17c-6.25,-3.79 -13.31,-7.19 -17.11,-13.78c-3.26,-5.63 -9.2,-9.11 -12.12,-14.98c-4.55,-8.87 -10.28,-17.4 -12.41,-27.29c-0.89,-3.53 -0.87,-7.8 -3.97,-10.28c-2.66,-2.17 -6.28,-4.46 -9.81,-3.07c-6.04,2.29 -10.87,7.15 -17.28,8.63c-6.79,1.69 -14.58,1.04 -20.28,5.77c-4.83,3.28 -5.4,9.54 -6.32,14.81c-0.93,4.73 1.33,9.16 2.51,13.62c2.02,8.09 5.51,15.76 9.35,23.12c4.58,5.83 7.34,12.96 12.63,18.24c11.12,11.65 22.92,23.04 37.18,30.78c8.95,4.43 17.95,8.89 27.61,11.55c10.67,3.63 21.95,4.71 33.11,5.67c11.61,0.32 23.26,-1.23 34.48,-4.2c6.94,-1.75 12.68,-6.42 19.59,-8.27c10.11,-2.74 19.06,-8.57 26.81,-15.47c-8.81,3.68 -15.97,10.57 -25.27,13.15c-3.04,-3.77 -6.87,-6.99 -8.89,-11.47c-0.82,-2.04 -1.79,-4.01 -2.55,-6.06c6.81,-5.18 13.2,-10.92 19.11,-17.11c3.74,-4.02 6.26,-8.97 9.9,-13.07c4.04,-4.63 8.63,-8.95 11.4,-14.53c8.3,-18.63 13.08,-38.52 19.06,-57.95c3.74,-12.24 3.62,-25.17 3.34,-37.83c-0.77,-11.09 -3.83,-22.05 -9.15,-31.83c-2.95,-6.35 -8.12,-11.19 -12.26,-16.72c-2.71,-3.63 -6.22,-6.51 -9.59,-9.49c-4.23,-3.73 -7.52,-8.67 -12.73,-11.18c-7.87,-3.86 -15.47,-8.21 -23.36,-12.01c-3.46,1.98 -7.16,4.28 -11.33,3.8c-6.88,-0.59 -13.99,-0.36 -20.6,-2.57c-3.67,-1.15 -5.21,-6.83 -9.59,-5.62c-5,0.95 -9.67,3.12 -14.65,4.15c-6.97,1.49 -14.01,3.05 -20.49,6.1c-3.25,1.77 -6.41,4.29 -7.82,7.81c-1.61,4.97 -1.14,10.57 -3.94,15.16c-2.26,3.78 -4.56,7.55 -6.71,11.4c5.45,-5.49 12.84,-8.14 19.73,-11.29zM167.94,256.31c2.46,0.83 4.91,2.04 7.57,2.06c-2.66,-0.02 -5.11,-1.23 -7.57,-2.06zM316.96,440.83c10.11,-6.57 18.74,-15.24 26.27,-24.59c-7.53,9.35 -16.16,18.02 -26.27,24.59zM375.62,347.59c3.71,-14.57 2.8,-29.78 1.42,-44.6c1.38,14.82 2.29,30.03 -1.42,44.6zM377.04,302.99c-1.05,-15.8 -3.96,-31.81 -11.02,-46.11c7.06,14.3 9.97,30.31 11.02,46.11zM346.66,226.36c-6.63,-6.04 -13.34,-12 -19.93,-18.09c6.59,6.09 13.3,12.05 19.93,18.09zM326.73,208.27c-3.85,-3.61 -8.18,-6.69 -12.89,-9.09c4.71,2.4 9.04,5.48 12.89,9.09zM313.84,199.18c-7.72,-3.94 -14.94,-8.92 -23.1,-11.95c8.16,3.03 15.38,8.01 23.1,11.95zM290.74,187.23c-9.54,-3.58 -19.64,-5.27 -29.54,-7.51c9.9,2.24 20,3.93 29.54,7.51zM261.2,179.72c-9.56,-2.23 -19.56,-2.37 -29.22,-0.68c9.66,-1.69 19.66,-1.55 29.22,0.68zM231.98,179.04c-3.82,0.72 -7.71,1 -11.6,0.92c3.89,0.08 7.78,-0.2 11.6,-0.92z" id="path-8 1" fill="url(#grad-12)" fill-rule="nonzero" stroke="url(#grad-12)" stroke-width="0.25" stroke-linecap="butt" stroke-linejoin="miter" stroke-miterlimit="10" stroke-dasharray="" stroke-dashoffset="0" font-family="none" font-weight="none" font-size="none" text-anchor="none" style="mix-blend-mode: normal; opacity: 1;" data-index="12"></path><path d="M150.39,53.21c3.62,-1.17 6.89,-3.66 10.81,-3.7c3.34,0.01 6.72,0.41 9.9,1.46c3.67,1.26 5.61,5.23 9.19,6.55c6.23,0.57 12.49,-0.28 18.73,-0.41c16.68,-1.16 33.34,0.8 50.02,1.01c10.69,0.38 21.23,2.57 31.94,2.82c8.86,0.17 17.75,0.33 26.59,-0.43c10.13,-0.89 20.31,-0.69 30.46,-0.65c5.5,0.33 11.49,0.63 16.2,3.77c1.73,2.68 2.28,5.95 2.79,9.06c0.74,4.84 -1.76,9.54 -0.92,14.37c1.19,5.71 4.74,10.5 7.69,15.41c-1.83,1.27 -3.68,2.81 -6.01,2.95c-5.54,0.55 -11.18,0.21 -16.63,1.58c-7.86,2.02 -16.04,2.42 -23.84,4.74c-3.5,0.27 -7,0.56 -10.49,0.99c-11.21,1.59 -22.55,0.74 -33.83,0.95c-15.34,-0.27 -30.69,-0.31 -46.03,-0.89c-7.18,-0.13 -14.42,-1.45 -21.56,-0.18c-1.24,0.63 -2.42,1.35 -3.61,2.06c-2.17,-0.96 -4.33,-2.1 -6.7,-2.43c-2.27,0 -4.45,0.71 -6.64,1.19c-0.62,7.13 -0.51,14.31 -1.6,21.39c-1.82,12.98 -0.89,26.15 -2.07,39.18c-0.37,4.89 -1.88,9.7 -1.52,14.63c3.46,3.56 9,0.61 13.3,0.8c0.57,0.09 1.71,0.26 2.27,0.35c-2.98,1.16 -5.96,2.42 -9.11,3.05c-4.22,0.85 -8.32,-2.1 -12.52,-0.8c-4.12,1.22 -7.82,3.48 -11.64,5.41c-6.06,3.26 -12.81,5.43 -18.01,10.11c-2.49,2.3 -5.52,4.33 -7.08,7.42c-0.4,2.77 0.19,5.69 1.46,8.18c2.17,2.75 6.53,3.03 8.18,6.31c1.5,2.92 3,5.85 4.67,8.69c2.08,3.48 3.05,7.51 5.17,10.97c2.09,2.95 5.14,5.03 7.99,7.19c-1.32,-0.26 -2.64,-0.46 -3.96,-0.63c-3.77,-0.92 -7.24,1.57 -10.95,1.61c-3.57,-0.59 -6.7,-2.66 -10.25,-3.27c-2.37,-0.03 -4.47,1.33 -6.59,2.21c-4.84,1.21 -10.19,2.57 -15.02,0.64c-4.22,-2.2 -5.32,-7.38 -6.36,-11.62c-2.41,-13.07 -3.05,-26.37 -4.3,-39.57c0.25,-22.56 2.78,-45.05 5.89,-67.38c1.69,-7.99 2.57,-16.1 3.84,-24.16c2.53,-11.27 4.97,-22.65 9.56,-33.31c3.26,-7.64 4.49,-16.46 10.23,-22.83c2.63,-3.02 6.83,-3.41 10.36,-4.79z" id="path-4 1" fill="url(#grad-13)" fill-rule="nonzero" stroke="url(#grad-13)" stroke-width="0.25" stroke-linecap="butt" stroke-linejoin="miter" stroke-miterlimit="10" stroke-dasharray="" stroke-dashoffset="0" font-family="none" font-weight="none" font-size="none" text-anchor="none" style="mix-blend-mode: normal; opacity: 1;" data-index="13"></path></svg>