<?xml version="1.0" encoding="utf-8"?>
<svg xmlns="http://www.w3.org/2000/svg" height="512pt" version="1.1" viewBox="0 0 512 512" width="512pt">
<path d="M 0.00 0.00 L 512.00 0.00 L 512.00 512.00 L 0.00 512.00 L 0.00 0.00 Z" fill="transparent" opacity="1.00" stroke="transparent" stroke-width="0.25"/>
<path d="M 138.62 86.78 C 142.30 91.91 144.00 98.12 146.49 103.86 C 151.60 115.80 156.40 127.90 162.30 139.48 C 165.84 145.68 169.51 152.02 175.14 156.58 C 168.37 157.72 161.92 155.07 156.05 152.02 C 159.04 156.65 161.78 161.45 165.28 165.72 C 170.15 171.87 174.67 178.38 180.37 183.81 C 181.41 184.54 181.69 185.78 182.11 186.91 C 175.45 189.06 168.40 187.69 162.14 184.98 C 168.71 195.71 175.87 206.07 183.73 215.90 C 186.08 219.59 189.88 222.04 192.21 225.73 C 189.17 224.88 186.21 223.77 183.34 222.45 C 176.62 219.32 170.51 215.04 164.97 210.14 C 167.43 217.12 171.21 223.53 175.05 229.83 C 182.26 241.58 190.88 252.52 201.25 261.64 C 191.27 258.81 181.56 254.76 172.97 248.90 C 181.04 264.48 191.24 279.18 204.02 291.28 C 202.66 291.85 201.19 292.04 199.73 291.98 C 195.70 291.20 191.79 289.88 188.12 288.04 C 191.69 292.86 195.71 297.33 200.03 301.49 C 203.39 304.68 207.08 307.49 210.62 310.47 C 200.20 313.41 188.37 313.94 178.87 308.00 C 183.09 315.48 188.41 322.23 193.24 329.31 C 194.97 331.85 196.80 334.33 198.71 336.74 C 199.98 338.37 201.26 340.00 202.60 341.58 C 208.06 348.29 214.34 354.24 220.41 360.38 C 209.82 358.35 199.80 353.92 190.51 348.52 C 186.86 346.30 183.53 343.63 180.36 340.78 C 182.07 344.30 183.87 347.77 185.75 351.20 C 187.88 355.13 190.22 358.94 192.39 362.84 C 191.95 362.81 191.06 362.76 190.62 362.73 C 184.69 360.73 178.54 359.21 173.00 356.21 C 166.88 353.28 161.26 349.47 155.43 346.05 C 149.40 348.13 143.48 350.53 137.58 352.94 C 136.29 353.88 133.49 354.08 133.51 355.93 C 134.24 356.22 135.70 356.80 136.43 357.09 C 132.58 357.89 128.52 356.59 124.81 358.16 C 118.07 361.73 110.77 364.00 103.41 365.90 C 105.69 361.19 108.84 356.93 110.56 351.94 C 98.99 355.40 85.95 358.60 74.48 353.08 C 84.20 351.36 93.77 347.91 101.48 341.58 C 104.58 339.13 107.70 336.63 109.99 333.38 C 106.20 334.94 102.32 336.37 98.23 336.96 C 89.46 338.64 80.51 340.06 71.58 338.84 C 82.76 333.16 93.59 326.34 102.23 317.14 C 102.85 316.52 103.47 315.90 104.09 315.29 C 105.71 313.67 107.25 311.97 108.68 310.19 C 110.51 307.89 112.27 305.52 113.88 303.06 C 111.20 304.10 108.52 305.18 105.81 306.13 C 96.73 308.86 86.55 312.04 77.45 307.68 C 84.84 304.43 92.37 301.05 98.33 295.45 C 98.78 295.05 99.68 294.25 100.13 293.85 C 102.03 292.16 103.91 290.45 105.69 288.64 C 107.99 286.22 110.22 283.74 112.28 281.11 C 108.98 282.32 105.71 283.62 102.26 284.34 C 95.88 285.91 89.26 286.77 82.71 285.81 C 88.00 281.87 93.52 278.18 98.31 273.60 C 102.32 269.44 106.29 265.19 109.75 260.55 C 112.31 256.83 114.80 253.06 117.00 249.11 C 113.31 251.05 109.66 253.10 105.77 254.61 C 101.96 256.32 97.22 255.81 93.98 258.67 C 93.44 258.12 92.91 257.55 92.40 256.98 C 89.86 257.13 87.31 257.19 84.76 257.14 C 86.53 255.86 88.32 254.61 90.07 253.31 C 95.16 249.61 99.62 245.14 103.81 240.47 C 110.86 232.75 116.53 223.94 121.61 214.84 C 118.12 217.60 114.73 220.52 110.96 222.90 C 107.24 225.04 103.19 226.49 99.21 228.05 C 99.48 227.62 99.77 227.21 100.06 226.80 C 111.82 215.84 119.60 201.29 124.80 186.24 C 118.54 190.13 110.95 191.18 103.73 190.13 C 116.16 178.78 126.41 164.55 130.69 148.10 C 128.06 152.89 123.04 155.81 118.05 157.63 C 114.16 159.00 110.02 157.98 106.12 157.24 C 109.42 154.50 112.70 151.68 115.17 148.12 C 124.39 135.62 130.34 120.97 134.19 105.99 C 136.01 99.66 136.80 93.10 138.62 86.78 Z" fill="#1e6d8e" opacity="1.00" stroke="#1e6d8e" stroke-width="0.25"/>
<path d="M 422.92 130.92 C 424.18 127.64 424.29 123.65 426.40 120.86 C 426.50 126.11 427.48 131.28 427.73 136.52 C 427.47 136.25 426.96 135.69 426.71 135.42 C 426.16 133.91 425.72 132.37 425.26 130.84 C 424.52 131.53 423.77 132.23 423.02 132.92 C 423.00 132.42 422.94 131.42 422.92 130.92 Z" fill="#24657c" opacity="1.00" stroke="#24657c" stroke-width="0.25"/>
<path d="M 355.51 130.34 C 355.96 130.44 356.87 130.64 357.32 130.75 C 357.34 134.83 358.20 138.84 359.36 142.75 C 361.45 153.06 365.74 162.75 369.61 172.49 C 372.30 179.35 377.25 185.00 379.88 191.86 C 376.09 190.97 373.10 188.37 369.65 186.73 C 369.82 193.90 373.85 200.28 378.61 205.37 C 380.71 207.70 383.01 209.92 384.43 212.77 C 382.90 212.63 381.39 212.47 379.88 212.32 C 382.25 216.67 386.37 219.65 389.02 223.80 C 382.59 223.69 379.02 217.00 373.00 216.10 C 375.02 221.03 378.45 225.17 381.44 229.53 C 385.08 234.69 388.50 240.08 393.15 244.42 C 391.10 247.01 388.88 249.47 386.52 251.78 C 383.14 249.29 379.68 246.89 375.94 244.97 C 377.48 248.86 379.95 252.25 382.35 255.63 C 380.17 257.49 377.87 259.35 376.72 262.06 C 379.03 260.65 381.23 259.08 383.55 257.70 C 385.32 260.11 387.20 262.43 389.20 264.66 C 384.07 270.76 378.26 276.23 371.76 280.84 C 375.14 280.19 378.48 279.31 381.75 278.20 C 382.45 279.58 383.15 280.96 383.86 282.34 C 378.50 287.12 373.07 292.44 365.91 294.28 C 374.16 297.18 383.16 295.42 391.32 293.02 C 387.72 298.41 382.57 302.49 377.93 306.93 C 374.24 310.57 369.33 312.67 365.80 316.48 C 375.89 315.78 385.80 312.75 394.72 308.00 C 392.67 311.68 390.03 314.98 387.15 318.04 C 381.38 324.94 374.94 331.28 367.92 336.90 C 364.95 339.35 361.32 340.91 358.62 343.71 C 368.51 340.57 378.22 336.27 386.49 329.92 C 387.69 331.13 388.89 332.35 390.10 333.56 C 386.07 339.11 381.29 344.05 376.44 348.87 C 373.90 346.54 371.14 344.45 368.13 342.76 C 368.42 346.60 369.31 350.39 370.95 353.90 C 369.25 355.34 367.50 356.71 365.71 358.04 C 362.16 354.37 359.40 349.70 355.04 346.93 C 353.64 349.35 354.35 352.36 354.17 355.04 C 354.57 360.71 353.03 366.49 354.60 372.06 C 350.08 371.33 345.49 371.10 340.92 371.40 C 340.51 365.37 340.85 359.32 340.58 353.28 C 337.22 353.76 333.94 354.67 330.75 355.82 L 330.20 355.95 C 322.70 355.95 315.44 359.84 307.93 357.83 C 312.51 353.46 317.97 350.20 322.82 346.18 C 323.30 345.83 324.26 345.14 324.73 344.79 C 328.38 342.47 332.28 340.18 334.30 336.17 C 323.70 339.49 313.17 343.53 302.01 344.59 C 298.87 344.90 295.74 344.28 292.72 343.51 C 302.22 337.75 311.89 331.37 318.31 322.11 C 314.17 322.28 310.51 324.35 306.62 325.49 C 300.42 327.02 294.25 329.42 287.74 328.62 C 289.90 325.31 293.88 324.17 296.88 321.82 C 303.03 317.14 309.80 313.08 314.81 307.08 C 317.09 304.22 319.58 301.47 321.14 298.13 C 317.30 299.66 313.74 301.86 309.77 303.06 C 305.00 304.04 299.84 306.74 295.09 304.38 C 298.99 299.95 304.59 297.61 308.69 293.40 C 313.83 288.20 319.59 283.43 323.17 276.92 C 318.26 277.64 313.60 279.57 308.64 279.93 C 308.27 279.95 307.54 280.00 307.17 280.02 C 308.84 278.32 310.46 276.57 311.92 274.69 C 315.13 270.63 319.23 267.36 322.21 263.10 C 325.03 259.04 328.08 255.13 330.78 250.99 C 324.59 253.95 318.77 257.62 312.29 259.99 C 309.94 260.62 307.59 261.23 305.25 261.90 C 305.42 261.42 305.74 260.46 305.91 259.98 C 308.31 258.80 310.32 257.00 311.86 254.81 C 314.99 250.39 319.47 247.16 322.73 242.85 C 326.93 236.64 331.55 230.68 335.12 224.07 C 335.75 222.92 335.57 221.56 335.69 220.30 C 329.43 224.16 322.36 227.31 314.93 227.67 C 321.09 219.46 331.16 214.62 335.86 205.18 C 331.15 208.38 325.67 210.72 319.91 210.77 C 320.87 208.90 322.41 207.47 324.06 206.20 C 327.09 203.85 329.28 200.66 332.01 197.99 C 337.12 192.96 340.64 186.67 344.57 180.75 C 345.81 178.06 346.86 174.93 345.92 171.99 C 342.00 179.13 335.69 184.80 328.17 187.93 C 328.53 182.22 333.04 178.25 335.00 173.14 C 337.27 167.69 340.68 162.85 343.36 157.62 C 347.53 148.58 351.72 139.55 355.51 130.34 Z" fill="#9de8ff" opacity="1.00" stroke="#9de8ff" stroke-width="0.25"/>
<path d="M 407.91 155.10 C 413.89 147.71 419.00 139.59 422.92 130.92 C 422.94 131.42 423.00 132.42 423.02 132.92 C 423.77 132.23 424.52 131.53 425.26 130.84 C 425.72 132.37 426.16 133.91 426.71 135.42 C 426.96 135.69 427.47 136.25 427.73 136.52 L 428.05 136.86 C 428.66 142.49 430.84 147.83 431.55 153.42 C 431.43 155.81 431.58 158.20 431.92 160.56 C 431.23 160.67 430.55 160.77 429.87 160.86 C 429.35 160.72 428.33 160.44 427.82 160.30 C 431.47 168.98 437.45 176.35 444.37 182.64 C 446.97 185.16 450.06 187.08 453.20 188.87 C 449.51 188.71 445.93 187.78 442.63 186.17 C 437.26 184.16 432.24 181.28 428.09 177.30 C 431.24 184.06 434.83 190.61 439.40 196.52 C 442.26 200.75 445.94 204.30 449.20 208.20 C 445.85 206.85 442.58 205.23 439.71 203.03 C 437.84 201.55 436.04 200.00 434.18 198.53 C 435.15 200.87 436.17 203.19 437.20 205.52 C 439.30 210.59 441.72 215.54 444.67 220.19 C 446.92 224.25 449.98 227.87 451.61 232.27 C 445.51 229.37 440.81 224.42 435.40 220.51 C 441.03 235.47 449.68 249.44 461.03 260.74 C 455.95 260.18 451.11 258.45 446.66 255.96 C 453.29 268.85 461.30 281.23 472.25 290.88 C 461.92 286.40 451.29 281.74 442.99 273.94 C 447.48 282.66 453.84 290.32 461.05 296.94 C 464.45 300.15 468.33 302.83 471.61 306.17 C 466.79 306.20 462.17 304.75 457.56 303.56 C 462.54 311.37 468.78 318.29 475.49 324.65 C 477.66 326.46 479.27 329.14 482.13 329.97 C 482.12 330.26 482.10 330.83 482.08 331.11 C 482.02 331.34 481.88 331.79 481.81 332.01 C 470.66 330.58 460.20 326.21 450.23 321.23 C 456.01 330.92 462.98 340.00 471.20 347.74 C 475.50 352.43 480.80 356.13 485.03 360.84 C 483.14 360.17 481.38 359.17 479.64 358.20 C 467.12 352.27 455.16 345.02 444.87 335.70 C 452.47 353.79 467.23 367.94 483.37 378.59 C 474.52 378.10 465.88 375.99 457.14 374.72 C 459.14 376.87 461.28 378.90 463.46 380.87 C 461.87 380.97 460.29 381.03 458.71 381.08 C 458.17 380.93 457.09 380.65 456.55 380.50 C 448.19 378.08 439.92 375.34 431.93 371.88 C 431.96 372.67 432.01 374.24 432.04 375.03 C 431.50 373.08 430.65 371.09 428.66 370.25 C 425.11 368.38 421.95 365.89 419.65 362.58 C 418.20 365.68 417.13 369.01 417.21 372.47 C 412.93 375.24 408.30 377.46 403.39 378.87 C 403.77 377.88 404.16 376.90 404.57 375.93 C 406.71 373.14 408.78 370.29 410.67 367.32 C 408.79 368.54 407.00 370.00 404.86 370.75 C 396.25 373.13 387.90 376.45 379.10 378.19 C 378.00 378.15 377.42 377.65 377.38 376.69 C 380.09 374.43 382.99 372.11 384.16 368.63 C 378.88 370.18 373.52 371.45 368.08 372.33 C 365.39 372.77 362.72 373.30 360.05 373.84 L 360.58 372.44 C 368.98 367.53 376.62 361.29 382.94 353.87 C 374.59 359.22 365.48 363.53 355.75 365.60 C 358.60 362.51 362.45 360.64 365.71 358.04 C 367.50 356.71 369.25 355.34 370.95 353.90 C 372.81 352.26 374.64 350.58 376.44 348.87 C 381.29 344.05 386.07 339.11 390.10 333.56 C 392.92 329.64 395.48 325.51 397.56 321.15 C 393.68 323.83 390.24 327.07 386.49 329.92 C 378.22 336.27 368.51 340.57 358.62 343.71 C 361.32 340.91 364.95 339.35 367.92 336.90 C 374.94 331.28 381.38 324.94 387.15 318.04 C 390.03 314.98 392.67 311.68 394.72 308.00 C 385.80 312.75 375.89 315.78 365.80 316.48 C 369.33 312.67 374.24 310.57 377.93 306.93 C 382.57 302.49 387.72 298.41 391.32 293.02 C 383.16 295.42 374.16 297.18 365.91 294.28 C 373.07 292.44 378.50 287.12 383.86 282.34 C 386.41 279.89 388.70 277.19 390.79 274.34 C 387.84 275.77 384.85 277.14 381.75 278.20 C 378.48 279.31 375.14 280.19 371.76 280.84 C 378.26 276.23 384.07 270.76 389.20 264.66 C 391.50 261.93 393.45 258.94 395.44 255.98 C 397.75 252.69 399.66 249.12 400.98 245.31 C 398.13 248.95 394.25 251.49 390.27 253.73 C 388.05 255.09 385.79 256.37 383.55 257.70 C 381.23 259.08 379.03 260.65 376.72 262.06 C 377.87 259.35 380.17 257.49 382.35 255.63 C 383.77 254.38 385.15 253.09 386.52 251.78 C 388.88 249.47 391.10 247.01 393.15 244.42 C 398.43 238.05 403.19 231.24 407.16 223.98 C 401.11 225.57 395.88 229.30 389.84 230.92 C 396.21 221.85 404.45 214.11 409.71 204.26 C 405.65 205.78 402.45 209.03 398.20 210.12 C 404.73 203.47 408.85 195.00 413.91 187.28 C 406.59 195.82 396.68 202.01 386.11 205.73 C 394.25 198.16 401.08 189.28 406.79 179.75 C 406.56 179.68 406.09 179.53 405.86 179.46 C 405.10 179.21 403.57 178.73 402.80 178.48 C 404.41 176.41 406.15 174.45 407.70 172.32 C 407.68 171.84 407.63 170.87 407.61 170.39 C 410.44 165.69 414.57 161.58 416.10 156.13 C 412.74 159.76 407.84 161.45 402.98 161.55 C 404.11 159.05 406.22 157.22 407.91 155.10 Z" fill="#1e6d8e" opacity="1.00" stroke="#1e6d8e" stroke-width="0.25"/>
<path d="M 431.92 160.56 C 431.58 158.20 431.43 155.81 431.55 153.42 C 433.78 159.12 435.43 165.27 439.75 169.84 C 435.27 168.44 432.45 164.08 429.18 160.95 L 429.87 160.86 C 430.55 160.77 431.23 160.67 431.92 160.56 Z" fill="#23637d" opacity="1.00" stroke="#23637d" stroke-width="0.25"/>
<path d="M 58.47 167.77 C 60.17 170.63 60.69 173.98 62.00 177.02 C 67.68 191.49 76.81 204.22 86.00 216.61 C 81.35 217.40 77.37 215.03 73.27 213.35 C 78.34 219.13 81.27 226.36 85.95 232.44 C 88.43 235.92 91.20 239.22 93.27 242.98 C 88.84 242.72 84.82 240.82 80.89 238.92 C 83.25 244.13 86.78 248.67 90.07 253.31 C 88.32 254.61 86.53 255.86 84.76 257.14 C 84.96 257.41 85.34 257.93 85.53 258.19 C 89.48 263.55 93.07 269.39 98.31 273.60 C 93.52 278.18 88.00 281.87 82.71 285.81 C 89.26 286.77 95.88 285.91 102.26 284.34 C 102.21 286.52 103.91 287.75 105.69 288.64 C 103.91 290.45 102.03 292.16 100.13 293.85 C 97.84 292.46 95.52 291.14 93.12 289.95 C 94.82 291.82 96.57 293.64 98.33 295.45 C 92.37 301.05 84.84 304.43 77.45 307.68 C 86.55 312.04 96.73 308.86 105.81 306.13 C 105.64 306.43 105.29 307.02 105.12 307.32 C 106.27 308.31 107.48 309.24 108.68 310.19 C 107.25 311.97 105.71 313.67 104.09 315.29 C 103.52 314.33 102.94 313.37 102.37 312.42 C 101.23 313.37 99.73 313.41 98.32 313.54 C 99.65 314.71 100.94 315.92 102.23 317.14 C 93.59 326.34 82.76 333.16 71.58 338.84 C 80.51 340.06 89.46 338.64 98.23 336.96 C 97.85 339.29 99.53 340.72 101.48 341.58 C 93.77 347.91 84.20 351.36 74.48 353.08 C 85.95 358.60 98.99 355.40 110.56 351.94 C 108.84 356.93 105.69 361.19 103.41 365.90 C 110.77 364.00 118.07 361.73 124.81 358.16 C 125.21 359.12 125.60 360.08 126.00 361.05 C 121.63 361.71 117.29 362.56 113.07 363.87 C 117.48 367.18 122.07 370.25 126.39 373.68 C 119.40 374.31 112.45 372.76 105.56 371.75 C 96.44 370.42 87.46 368.32 78.45 366.44 C 78.43 370.87 78.68 375.30 79.09 379.72 C 78.62 385.51 79.43 391.27 79.57 397.05 C 80.10 398.72 78.04 399.06 77.05 399.76 C 72.42 400.18 67.76 400.42 63.15 401.05 C 63.06 398.20 62.98 395.36 62.93 392.51 C 62.74 385.31 62.83 378.11 62.51 370.91 C 58.98 372.42 55.72 374.48 52.46 376.50 C 51.09 377.30 49.69 378.04 48.29 378.80 C 49.05 376.59 49.63 374.31 49.90 371.99 C 42.38 376.06 34.28 379.01 25.91 380.80 C 28.77 376.62 33.42 373.99 35.87 369.47 C 29.66 371.86 23.00 372.62 16.38 372.16 C 16.39 371.80 16.39 371.07 16.39 370.71 C 24.20 367.32 31.50 362.52 37.25 356.20 C 39.96 352.97 42.56 349.62 44.95 346.14 C 33.60 352.48 20.79 356.25 7.80 356.85 C 23.06 347.47 35.44 333.70 44.03 318.05 C 38.92 320.65 34.76 324.77 29.64 327.36 C 24.39 329.89 18.87 332.14 13.00 332.59 C 21.57 324.92 29.16 316.24 36.01 307.01 C 39.93 302.12 43.35 296.82 46.00 291.15 C 41.29 296.14 35.11 299.33 28.83 301.90 C 25.75 303.07 22.56 304.09 19.23 304.08 C 30.65 291.73 39.95 277.57 47.57 262.61 C 48.28 261.14 48.66 259.54 49.05 257.97 C 43.21 265.65 35.17 271.61 26.06 274.81 C 27.51 272.10 29.67 269.85 31.17 267.16 C 36.09 258.28 41.60 249.63 44.95 239.99 C 41.59 241.62 38.36 243.51 34.90 244.91 C 40.04 235.30 46.55 226.28 49.99 215.83 C 45.37 219.33 39.82 221.47 34.02 221.81 C 40.57 214.95 44.92 206.40 48.82 197.85 C 53.08 188.19 55.49 177.86 58.47 167.77 Z" fill="#51a8cf" opacity="1.00" stroke="#51a8cf" stroke-width="0.25"/>
<path d="M 449.13 169.85 C 450.31 171.42 451.01 173.26 451.54 175.15 C 453.53 182.34 456.69 189.14 458.55 196.38 C 461.47 203.81 463.65 211.85 469.04 217.97 C 471.78 221.39 475.13 224.22 478.04 227.49 C 475.86 227.52 473.66 227.65 471.51 227.28 C 467.96 226.58 465.07 224.12 461.51 223.48 C 464.04 231.24 468.45 238.21 473.16 244.82 C 476.75 249.51 480.06 254.59 485.01 257.99 C 478.53 260.18 472.36 256.58 467.16 253.10 C 469.56 261.36 474.77 268.40 479.54 275.44 C 481.89 279.13 485.31 282.00 487.44 285.86 C 488.97 288.78 492.24 290.06 494.08 292.72 C 490.28 292.52 486.87 290.68 483.49 289.13 C 479.16 286.96 474.87 284.60 471.20 281.41 C 471.05 281.69 470.75 282.23 470.60 282.50 C 473.91 288.42 478.08 293.77 481.81 299.42 C 486.53 305.00 492.08 309.94 496.24 315.97 C 491.00 316.44 486.09 314.20 481.02 313.32 C 487.18 320.84 494.12 328.08 502.87 332.59 C 495.37 332.62 487.97 330.45 481.49 326.74 C 479.61 325.73 477.76 324.18 475.49 324.65 C 468.78 318.29 462.54 311.37 457.56 303.56 C 462.17 304.75 466.79 306.20 471.61 306.17 C 468.33 302.83 464.45 300.15 461.05 296.94 C 453.84 290.32 447.48 282.66 442.99 273.94 C 451.29 281.74 461.92 286.40 472.25 290.88 C 461.30 281.23 453.29 268.85 446.66 255.96 C 451.11 258.45 455.95 260.18 461.03 260.74 C 449.68 249.44 441.03 235.47 435.40 220.51 C 440.81 224.42 445.51 229.37 451.61 232.27 C 449.98 227.87 446.92 224.25 444.67 220.19 C 441.72 215.54 439.30 210.59 437.20 205.52 C 438.03 204.68 438.87 203.85 439.71 203.03 C 442.58 205.23 445.85 206.85 449.20 208.20 C 445.94 204.30 442.26 200.75 439.40 196.52 C 441.32 193.40 443.04 189.95 442.63 186.17 C 445.93 187.78 449.51 188.71 453.20 188.87 C 450.06 187.08 446.97 185.16 444.37 182.64 C 447.79 179.33 447.46 174.05 449.13 169.85 Z" fill="#91dcf7" opacity="1.00" stroke="#91dcf7" stroke-width="0.25"/>
<path d="M 396.91 181.91 C 400.80 178.37 403.75 173.96 407.61 170.39 C 407.63 170.87 407.68 171.84 407.70 172.32 C 406.15 174.45 404.41 176.41 402.80 178.48 C 403.57 178.73 405.10 179.21 405.86 179.46 C 402.06 183.34 396.79 185.40 391.68 186.92 C 393.13 184.96 395.15 183.56 396.91 181.91 Z" fill="#226784" opacity="1.00" stroke="#226784" stroke-width="0.25"/>
<path d="M 428.09 177.30 C 432.24 181.28 437.26 184.16 442.63 186.17 C 443.04 189.95 441.32 193.40 439.40 196.52 C 434.83 190.61 431.24 184.06 428.09 177.30 Z" fill="#f9fefc" opacity="1.00" stroke="#f9fefc" stroke-width="0.25"/>
<path d="M 237.86 209.82 C 240.60 205.76 242.01 200.97 244.82 196.95 C 248.40 206.19 247.89 216.44 251.34 225.73 C 252.78 230.64 254.74 235.37 256.22 240.26 C 255.45 240.32 253.90 240.44 253.12 240.50 C 255.70 245.46 258.37 250.37 260.59 255.50 C 262.21 259.53 265.39 262.52 268.37 265.53 C 268.43 266.10 268.55 267.25 268.61 267.83 C 263.61 265.74 259.34 262.35 255.46 258.63 C 254.88 258.57 253.73 258.47 253.15 258.41 C 255.50 263.71 258.96 268.40 261.61 273.55 C 264.74 279.14 270.29 283.55 271.83 289.93 C 267.63 288.16 264.70 284.58 261.12 281.91 C 256.70 278.36 253.27 273.85 250.13 269.18 C 249.93 270.07 249.79 270.98 249.69 271.89 C 253.40 279.62 256.84 287.50 261.03 294.99 C 263.99 300.10 269.00 303.92 270.93 309.62 C 266.56 307.74 262.69 304.97 258.86 302.21 C 258.61 303.14 258.77 304.09 259.33 304.89 C 261.73 309.41 265.15 313.25 267.93 317.53 C 268.93 318.80 270.02 320.00 271.16 321.16 C 271.72 321.72 272.83 322.84 273.39 323.41 C 274.84 324.91 276.13 326.62 276.82 328.63 C 274.49 327.89 272.15 327.16 269.99 326.00 C 264.55 323.04 258.72 320.22 254.99 315.06 C 254.77 316.33 254.42 317.69 255.19 318.87 C 259.01 326.51 263.88 333.57 269.04 340.36 C 272.44 344.18 275.91 347.95 278.94 352.08 C 273.65 350.35 268.92 347.32 264.50 344.00 C 261.74 341.90 258.85 339.94 255.74 338.39 C 256.68 342.08 258.81 345.25 260.90 348.37 C 262.38 350.65 263.96 352.88 265.77 354.93 C 266.11 355.30 266.78 356.05 267.12 356.42 C 269.22 358.88 271.32 361.39 272.85 364.26 C 272.50 365.63 271.47 366.49 270.01 366.34 C 265.77 366.79 261.78 365.00 257.73 364.09 C 259.00 367.56 262.11 369.79 264.48 372.47 C 267.64 375.43 270.46 378.76 273.89 381.44 C 270.56 382.38 267.21 383.22 263.89 384.18 C 265.55 383.14 267.15 382.00 268.77 380.89 C 264.65 379.29 260.61 377.48 256.43 376.05 C 252.87 374.99 249.61 373.21 246.41 371.38 C 246.47 374.23 247.35 377.12 246.75 379.94 C 241.97 377.36 238.84 372.63 234.22 369.80 C 233.75 374.18 233.01 378.62 233.59 383.04 C 234.49 384.15 235.88 384.73 237.07 385.48 C 235.60 385.40 234.13 385.36 232.67 385.33 C 232.32 386.95 231.98 388.56 231.63 390.19 C 226.42 388.80 221.17 387.59 215.92 386.38 C 216.80 386.27 218.55 386.05 219.42 385.94 C 220.57 380.08 221.38 374.16 221.81 368.21 C 209.12 367.95 196.67 372.57 183.94 370.94 C 182.36 370.59 180.89 369.85 179.42 369.21 C 182.79 366.49 186.55 364.25 190.62 362.73 C 191.06 362.76 191.95 362.81 192.39 362.84 C 190.22 358.94 187.88 355.13 185.75 351.20 C 187.33 350.30 188.92 349.41 190.51 348.52 C 199.80 353.92 209.82 358.35 220.41 360.38 C 214.34 354.24 208.06 348.29 202.60 341.58 C 206.14 337.84 210.50 334.62 212.56 329.75 C 207.47 331.02 203.23 334.24 198.71 336.74 C 196.80 334.33 194.97 331.85 193.24 329.31 C 199.44 322.49 208.37 318.33 213.04 310.14 C 212.23 310.23 211.42 310.34 210.62 310.47 C 207.08 307.49 203.39 304.68 200.03 301.49 C 200.53 301.20 201.52 300.61 202.01 300.32 C 204.35 299.04 206.37 297.26 207.81 295.01 L 208.41 294.22 C 206.32 294.37 204.24 294.57 202.16 294.80 C 201.35 293.86 200.54 292.92 199.73 291.98 C 201.19 292.04 202.66 291.85 204.02 291.28 C 207.13 287.51 210.77 284.23 213.96 280.54 C 216.09 277.52 218.27 274.54 220.98 272.00 C 222.70 270.47 223.56 268.32 223.80 266.07 C 220.43 268.36 216.84 270.36 213.03 271.82 C 216.18 266.36 222.56 263.41 225.02 257.43 C 220.55 258.87 215.51 263.18 210.89 260.15 C 215.48 255.35 220.18 250.63 225.10 246.15 C 227.80 243.48 231.17 241.01 232.00 237.06 C 226.79 239.71 221.18 243.58 215.04 241.62 C 214.41 241.53 212.62 240.65 213.87 239.98 C 220.39 234.09 226.39 227.63 231.39 220.39 C 233.50 216.83 235.55 213.25 237.86 209.82 Z" fill="#9de9ff" opacity="1.00" stroke="#9de9ff" stroke-width="0.25"/>
<path d="M 434.18 198.53 C 436.04 200.00 437.84 201.55 439.71 203.03 C 438.87 203.85 438.03 204.68 437.20 205.52 C 436.17 203.19 435.15 200.87 434.18 198.53 Z" fill="#d8ffff" opacity="1.00" stroke="#d8ffff" stroke-width="0.25"/>
<path d="M 193.66 200.55 C 194.75 199.63 195.46 201.05 195.46 202.02 C 196.20 208.83 196.48 215.81 198.72 222.34 C 201.34 229.87 203.42 237.58 206.84 244.80 C 205.46 244.34 204.09 243.86 202.73 243.37 C 201.85 241.94 200.61 240.83 199.20 239.96 C 199.42 245.26 200.97 250.37 202.62 255.37 C 204.29 260.66 208.24 265.03 208.88 270.67 C 207.24 270.33 205.59 270.01 203.94 269.75 C 206.85 273.60 208.61 279.63 213.96 280.54 C 210.77 284.23 207.13 287.51 204.02 291.28 C 191.24 279.18 181.04 264.48 172.97 248.90 C 181.56 254.76 191.27 258.81 201.25 261.64 C 190.88 252.52 182.26 241.58 175.05 229.83 C 176.00 230.13 176.94 230.44 177.89 230.75 C 179.86 228.09 181.69 225.32 183.34 222.45 C 186.21 223.77 189.17 224.88 192.21 225.73 C 189.88 222.04 186.08 219.59 183.73 215.90 C 188.57 211.90 189.85 205.36 193.66 200.55 Z" fill="#cbf3fe" opacity="1.00" stroke="#cbf3fe" stroke-width="0.25"/>
<path d="M 164.97 210.14 C 170.51 215.04 176.62 219.32 183.34 222.45 C 181.69 225.32 179.86 228.09 177.89 230.75 C 176.94 230.44 176.00 230.13 175.05 229.83 C 171.21 223.53 167.43 217.12 164.97 210.14 Z" fill="#fcfefd" opacity="1.00" stroke="#fcfefd" stroke-width="0.25"/>
<path d="M 95.34 211.83 C 96.75 216.86 97.11 222.32 100.06 226.80 C 99.77 227.21 99.48 227.62 99.21 228.05 C 100.80 232.18 101.13 236.81 103.81 240.47 C 99.62 245.14 95.16 249.61 90.07 253.31 C 86.78 248.67 83.25 244.13 80.89 238.92 C 84.82 240.82 88.84 242.72 93.27 242.98 C 91.20 239.22 88.43 235.92 85.95 232.44 C 89.88 225.93 90.94 218.03 95.34 211.83 Z" fill="#caf3fe" opacity="1.00" stroke="#caf3fe" stroke-width="0.25"/>
<path d="M 110.96 222.90 C 114.73 220.52 118.12 217.60 121.61 214.84 C 116.53 223.94 110.86 232.75 103.81 240.47 C 101.13 236.81 100.80 232.18 99.21 228.05 C 103.19 226.49 107.24 225.04 110.96 222.90 Z" fill="#fafffd" opacity="1.00" stroke="#fafffd" stroke-width="0.25"/>
<path d="M 292.46 245.00 C 296.07 250.48 296.68 257.32 300.04 262.94 C 301.95 261.88 303.89 260.85 305.91 259.98 C 305.74 260.46 305.42 261.42 305.25 261.90 C 307.59 261.23 309.94 260.62 312.29 259.99 C 308.97 262.45 305.00 263.68 300.99 264.49 C 301.41 269.51 303.59 274.10 305.95 278.47 C 307.96 277.25 309.99 276.05 311.92 274.69 C 310.46 276.57 308.84 278.32 307.17 280.02 C 307.54 280.00 308.27 279.95 308.64 279.93 C 308.15 281.54 307.75 283.18 307.42 284.83 C 305.33 283.22 303.22 281.63 301.11 280.06 C 302.85 284.82 303.83 290.73 308.69 293.40 C 304.59 297.61 298.99 299.95 295.09 304.38 C 299.84 306.74 305.00 304.04 309.77 303.06 C 309.82 304.67 309.12 307.00 311.05 307.82 C 312.32 307.66 313.56 307.36 314.81 307.08 C 309.80 313.08 303.03 317.14 296.88 321.82 C 293.88 324.17 289.90 325.31 287.74 328.62 C 294.25 329.42 300.42 327.02 306.62 325.49 C 310.51 324.35 314.17 322.28 318.31 322.11 C 311.89 331.37 302.22 337.75 292.72 343.51 C 295.74 344.28 298.87 344.90 302.01 344.59 C 313.17 343.53 323.70 339.49 334.30 336.17 C 332.28 340.18 328.38 342.47 324.73 344.79 C 322.97 342.87 320.56 342.00 317.99 341.97 C 319.02 343.98 320.22 346.19 322.82 346.18 C 317.97 350.20 312.51 353.46 307.93 357.83 C 315.44 359.84 322.70 355.95 330.20 355.95 C 328.71 356.45 327.25 357.01 325.78 357.56 C 327.88 360.31 330.23 362.88 332.21 365.74 C 329.34 365.24 326.49 364.65 323.61 364.18 C 325.55 367.26 328.42 369.92 331.96 370.98 C 334.49 371.37 337.05 370.83 339.58 370.57 C 339.78 365.40 339.81 360.23 339.78 355.06 C 336.77 355.32 333.76 355.53 330.75 355.82 C 333.94 354.67 337.22 353.76 340.58 353.28 C 340.85 359.32 340.51 365.37 340.92 371.40 C 327.59 372.05 314.17 372.43 301.06 375.18 C 291.86 376.60 282.81 378.81 273.89 381.44 C 270.46 378.76 267.64 375.43 264.48 372.47 C 262.11 369.79 259.00 367.56 257.73 364.09 C 261.78 365.00 265.77 366.79 270.01 366.34 C 271.47 366.49 272.50 365.63 272.85 364.26 C 271.32 361.39 269.22 358.88 267.12 356.42 C 270.37 356.17 272.17 353.81 272.93 350.85 C 270.74 351.26 268.56 351.73 266.40 352.26 C 266.24 352.93 265.93 354.26 265.77 354.93 C 263.96 352.88 262.38 350.65 260.90 348.37 C 261.44 348.43 262.53 348.55 263.08 348.61 C 263.55 347.07 264.02 345.53 264.50 344.00 C 268.92 347.32 273.65 350.35 278.94 352.08 C 275.91 347.95 272.44 344.18 269.04 340.36 C 271.77 336.59 276.51 333.65 276.82 328.63 C 276.13 326.62 274.84 324.91 273.39 323.41 C 276.65 321.56 279.05 318.62 280.18 315.05 C 276.77 316.43 273.79 318.61 271.16 321.16 C 270.02 320.00 268.93 318.80 267.93 317.53 C 271.92 318.87 273.15 314.36 274.88 311.80 C 278.08 307.04 281.22 301.82 281.36 295.91 C 279.94 295.75 278.53 295.59 277.11 295.44 C 281.84 286.87 285.05 277.57 287.28 268.07 C 288.67 260.31 290.44 252.61 292.46 245.00 Z" fill="#cbf3ff" opacity="1.00" stroke="#cbf3ff" stroke-width="0.25"/>
<path d="M 375.94 244.97 C 379.68 246.89 383.14 249.29 386.52 251.78 C 385.15 253.09 383.77 254.38 382.35 255.63 C 379.95 252.25 377.48 248.86 375.94 244.97 Z" fill="#f5ffff" opacity="1.00" stroke="#f5ffff" stroke-width="0.25"/>
<path d="M 390.27 253.73 C 394.25 251.49 398.13 248.95 400.98 245.31 C 399.66 249.12 397.75 252.69 395.44 255.98 C 393.71 255.23 391.99 254.48 390.27 253.73 Z" fill="#a6edff" opacity="1.00" stroke="#a6edff" stroke-width="0.25"/>
<path d="M 105.77 254.61 C 109.66 253.10 113.31 251.05 117.00 249.11 C 114.80 253.06 112.31 256.83 109.75 260.55 C 108.27 258.68 106.96 256.67 105.77 254.61 Z" fill="#f7ffff" opacity="1.00" stroke="#f7ffff" stroke-width="0.25"/>
<path d="M 312.29 259.99 C 318.77 257.62 324.59 253.95 330.78 250.99 C 328.08 255.13 325.03 259.04 322.21 263.10 C 319.23 267.36 315.13 270.63 311.92 274.69 C 309.99 276.05 307.96 277.25 305.95 278.47 C 303.59 274.10 301.41 269.51 300.99 264.49 C 305.00 263.68 308.97 262.45 312.29 259.99 Z" fill="#feffff" opacity="1.00" stroke="#feffff" stroke-width="0.25"/>
<path d="M 383.55 257.70 C 385.79 256.37 388.05 255.09 390.27 253.73 C 391.99 254.48 393.71 255.23 395.44 255.98 C 393.45 258.94 391.50 261.93 389.20 264.66 C 387.20 262.43 385.32 260.11 383.55 257.70 Z" fill="#fbfefe" opacity="1.00" stroke="#fbfefe" stroke-width="0.25"/>
<path d="M 93.98 258.67 C 97.22 255.81 101.96 256.32 105.77 254.61 C 106.96 256.67 108.27 258.68 109.75 260.55 C 106.29 265.19 102.32 269.44 98.31 273.60 C 93.07 269.39 89.48 263.55 85.53 258.19 C 90.25 258.22 93.60 262.33 98.16 263.16 C 96.81 261.61 95.40 260.13 93.98 258.67 Z" fill="#caf3fe" opacity="1.00" stroke="#caf3fe" stroke-width="0.25"/>
<path d="M 84.76 257.14 C 87.31 257.19 89.86 257.13 92.40 256.98 C 92.91 257.55 93.44 258.12 93.98 258.67 C 95.40 260.13 96.81 261.61 98.16 263.16 C 93.60 262.33 90.25 258.22 85.53 258.19 C 85.34 257.93 84.96 257.41 84.76 257.14 Z" fill="#71b0c7" opacity="1.00" stroke="#71b0c7" stroke-width="0.25"/>
<path d="M 381.75 278.20 C 384.85 277.14 387.84 275.77 390.79 274.34 C 388.70 277.19 386.41 279.89 383.86 282.34 C 383.15 280.96 382.45 279.58 381.75 278.20 Z" fill="#d8ffff" opacity="1.00" stroke="#d8ffff" stroke-width="0.25"/>
<path d="M 308.64 279.93 C 313.60 279.57 318.26 277.64 323.17 276.92 C 319.59 283.43 313.83 288.20 308.69 293.40 C 303.83 290.73 302.85 284.82 301.11 280.06 C 303.22 281.63 305.33 283.22 307.42 284.83 C 307.75 283.18 308.15 281.54 308.64 279.93 Z" fill="#fbffff" opacity="1.00" stroke="#fbffff" stroke-width="0.25"/>
<path d="M 102.26 284.34 C 105.71 283.62 108.98 282.32 112.28 281.11 C 110.22 283.74 107.99 286.22 105.69 288.64 C 103.91 287.75 102.21 286.52 102.26 284.34 Z" fill="#ccfbff" opacity="1.00" stroke="#ccfbff" stroke-width="0.25"/>
<path d="M 188.12 288.04 C 191.79 289.88 195.70 291.20 199.73 291.98 C 200.54 292.92 201.35 293.86 202.16 294.80 C 204.24 294.57 206.32 294.37 208.41 294.22 L 207.81 295.01 C 204.99 295.70 202.11 296.10 199.24 296.52 C 200.16 297.78 201.08 299.05 202.01 300.32 C 201.52 300.61 200.53 301.20 200.03 301.49 C 195.71 297.33 191.69 292.86 188.12 288.04 Z" fill="#c5f4fe" opacity="1.00" stroke="#c5f4fe" stroke-width="0.25"/>
<path d="M 93.12 289.95 C 95.52 291.14 97.84 292.46 100.13 293.85 C 99.68 294.25 98.78 295.05 98.33 295.45 C 96.57 293.64 94.82 291.82 93.12 289.95 Z" fill="#c1f4ff" opacity="1.00" stroke="#c1f4ff" stroke-width="0.25"/>
<path d="M 199.24 296.52 C 202.11 296.10 204.99 295.70 207.81 295.01 C 206.37 297.26 204.35 299.04 202.01 300.32 C 201.08 299.05 200.16 297.78 199.24 296.52 Z" fill="#edffff" opacity="1.00" stroke="#edffff" stroke-width="0.25"/>
<path d="M 309.77 303.06 C 313.74 301.86 317.30 299.66 321.14 298.13 C 319.58 301.47 317.09 304.22 314.81 307.08 C 313.56 307.36 312.32 307.66 311.05 307.82 C 309.12 307.00 309.82 304.67 309.77 303.06 Z" fill="#fbffff" opacity="1.00" stroke="#fbffff" stroke-width="0.25"/>
<path d="M 105.81 306.13 C 108.52 305.18 111.20 304.10 113.88 303.06 C 112.27 305.52 110.51 307.89 108.68 310.19 C 107.48 309.24 106.27 308.31 105.12 307.32 C 105.29 307.02 105.64 306.43 105.81 306.13 Z" fill="#c6f7ff" opacity="1.00" stroke="#c6f7ff" stroke-width="0.25"/>
<path d="M 178.87 308.00 C 188.37 313.94 200.20 313.41 210.62 310.47 C 211.42 310.34 212.23 310.23 213.04 310.14 C 208.37 318.33 199.44 322.49 193.24 329.31 C 188.41 322.23 183.09 315.48 178.87 308.00 Z" fill="#caf3ff" opacity="1.00" stroke="#caf3ff" stroke-width="0.25"/>
<path d="M 98.32 313.54 C 99.73 313.41 101.23 313.37 102.37 312.42 C 102.94 313.37 103.52 314.33 104.09 315.29 C 103.47 315.90 102.85 316.52 102.23 317.14 C 100.94 315.92 99.65 314.71 98.32 313.54 Z" fill="#ccf3ff" opacity="1.00" stroke="#ccf3ff" stroke-width="0.25"/>
<path d="M 255.19 318.87 C 254.42 317.69 254.77 316.33 254.99 315.06 C 258.72 320.22 264.55 323.04 269.99 326.00 C 272.15 327.16 274.49 327.89 276.82 328.63 C 276.51 333.65 271.77 336.59 269.04 340.36 C 263.88 333.57 259.01 326.51 255.19 318.87 Z" fill="#ffffff" opacity="1.00" stroke="#ffffff" stroke-width="0.25"/>
<path d="M 271.16 321.16 C 273.79 318.61 276.77 316.43 280.18 315.05 C 279.05 318.62 276.65 321.56 273.39 323.41 C 272.83 322.84 271.72 321.72 271.16 321.16 Z" fill="#e8fcff" opacity="1.00" stroke="#e8fcff" stroke-width="0.25"/>
<path d="M 386.49 329.92 C 390.24 327.07 393.68 323.83 397.56 321.15 C 395.48 325.51 392.92 329.64 390.10 333.56 C 388.89 332.35 387.69 331.13 386.49 329.92 Z" fill="#e1fdff" opacity="1.00" stroke="#e1fdff" stroke-width="0.25"/>
<path d="M 450.23 321.23 C 460.20 326.21 470.66 330.58 481.81 332.01 C 481.88 331.79 482.02 331.34 482.08 331.11 L 482.53 331.25 C 486.03 337.57 491.35 342.54 496.42 347.58 C 498.50 349.66 501.00 351.25 503.58 352.65 C 503.62 353.11 503.69 354.03 503.73 354.49 C 495.05 354.85 486.14 354.26 478.10 350.69 C 475.86 349.57 473.68 348.26 471.20 347.74 C 462.98 340.00 456.01 330.92 450.23 321.23 Z" fill="#93dcf7" opacity="1.00" stroke="#93dcf7" stroke-width="0.25"/>
<path d="M 198.71 336.74 C 203.23 334.24 207.47 331.02 212.56 329.75 C 210.50 334.62 206.14 337.84 202.60 341.58 C 201.26 340.00 199.98 338.37 198.71 336.74 Z" fill="#ccf6ff" opacity="1.00" stroke="#ccf6ff" stroke-width="0.25"/>
<path d="M 98.23 336.96 C 102.32 336.37 106.20 334.94 109.99 333.38 C 107.70 336.63 104.58 339.13 101.48 341.58 C 99.53 340.72 97.85 339.29 98.23 336.96 Z" fill="#c1f4ff" opacity="1.00" stroke="#c1f4ff" stroke-width="0.25"/>
<path d="M 444.87 335.70 C 455.16 345.02 467.12 352.27 479.64 358.20 C 479.46 359.36 479.98 360.36 480.87 361.08 C 483.78 363.92 486.80 366.66 490.07 369.07 C 493.81 371.78 497.10 375.26 501.58 376.77 C 501.50 377.14 501.33 377.88 501.24 378.24 C 495.52 379.34 489.72 379.59 483.92 379.38 C 487.09 383.61 491.31 387.03 493.88 391.71 C 484.87 389.74 476.53 385.79 468.04 382.35 C 468.27 383.51 468.50 384.68 468.74 385.85 C 465.37 384.30 461.96 382.85 458.71 381.08 C 460.29 381.03 461.87 380.97 463.46 380.87 C 461.28 378.90 459.14 376.87 457.14 374.72 C 465.88 375.99 474.52 378.10 483.37 378.59 C 467.23 367.94 452.47 353.79 444.87 335.70 Z" fill="#93dcf7" opacity="1.00" stroke="#93dcf7" stroke-width="0.25"/>
<path d="M 255.74 338.39 C 258.85 339.94 261.74 341.90 264.50 344.00 C 264.02 345.53 263.55 347.07 263.08 348.61 C 262.53 348.55 261.44 348.43 260.90 348.37 C 258.81 345.25 256.68 342.08 255.74 338.39 Z" fill="#f7ffff" opacity="1.00" stroke="#f7ffff" stroke-width="0.25"/>
<path d="M 180.36 340.78 C 183.53 343.63 186.86 346.30 190.51 348.52 C 188.92 349.41 187.33 350.30 185.75 351.20 C 183.87 347.77 182.07 344.30 180.36 340.78 Z" fill="#cffeff" opacity="1.00" stroke="#cffeff" stroke-width="0.25"/>
<path d="M 317.99 341.97 C 320.56 342.00 322.97 342.87 324.73 344.79 C 324.26 345.14 323.30 345.83 322.82 346.18 C 320.22 346.19 319.02 343.98 317.99 341.97 Z" fill="#f4ffff" opacity="1.00" stroke="#f4ffff" stroke-width="0.25"/>
<path d="M 368.13 342.76 C 371.14 344.45 373.90 346.54 376.44 348.87 C 374.64 350.58 372.81 352.26 370.95 353.90 C 369.31 350.39 368.42 346.60 368.13 342.76 Z" fill="#f8ffff" opacity="1.00" stroke="#f8ffff" stroke-width="0.25"/>
<path d="M 137.58 352.94 C 143.48 350.53 149.40 348.13 155.43 346.05 C 155.23 363.56 154.32 381.06 154.80 398.58 C 154.77 398.85 154.72 399.40 154.69 399.67 C 169.30 401.51 183.82 404.14 198.00 408.12 C 204.84 410.11 211.90 412.02 219.09 411.45 C 235.76 409.47 252.57 409.16 269.33 409.71 C 275.39 410.41 281.51 410.29 287.60 410.31 C 303.38 411.45 319.20 412.12 334.96 413.55 C 341.18 414.23 347.64 415.76 353.80 413.89 C 360.21 414.46 366.52 412.93 372.89 412.42 C 374.23 412.37 375.56 412.19 376.88 411.89 C 378.40 411.56 379.92 411.22 381.44 410.89 C 389.79 409.99 398.06 408.54 406.42 407.72 C 409.92 407.34 413.59 407.20 416.82 405.68 C 418.11 394.68 416.97 383.53 417.21 372.47 C 417.13 369.01 418.20 365.68 419.65 362.58 C 421.95 365.89 425.11 368.38 428.66 370.25 C 430.65 371.09 431.50 373.08 432.04 375.03 C 432.27 377.88 432.60 380.71 432.89 383.55 C 433.04 385.25 433.15 386.96 433.20 388.68 C 433.23 390.44 433.23 392.21 433.23 393.98 C 433.19 397.34 433.43 400.70 433.83 404.04 C 436.66 403.75 439.48 403.36 442.30 402.95 C 457.28 401.91 473.06 401.47 487.01 407.92 C 492.97 410.77 498.34 414.74 503.33 419.04 C 503.76 419.63 504.63 420.81 505.06 421.40 C 464.39 422.68 423.71 424.07 383.03 425.21 C 357.36 425.60 331.71 426.84 306.04 426.47 C 277.96 427.14 249.90 425.78 221.91 423.71 C 193.33 421.51 164.64 421.52 136.00 420.83 C 93.01 420.54 50.01 420.72 7.02 420.59 C 7.92 419.89 8.81 419.17 9.81 418.63 C 26.49 409.99 44.47 403.52 63.15 401.05 C 67.76 400.42 72.42 400.18 77.05 399.76 C 88.83 398.63 100.69 399.54 112.49 398.73 C 120.26 398.81 128.02 398.56 135.79 398.62 L 135.99 397.64 C 136.37 392.53 136.48 387.39 136.58 382.27 C 136.78 374.79 137.20 367.32 137.42 359.84 C 137.53 357.54 137.57 355.24 137.58 352.94 Z" fill="#11476d" opacity="1.00" stroke="#11476d" stroke-width="0.25"/>
<path d="M 155.43 346.05 C 161.26 349.47 166.88 353.28 173.00 356.21 C 178.54 359.21 184.69 360.73 190.62 362.73 C 186.55 364.25 182.79 366.49 179.42 369.21 C 180.89 369.85 182.36 370.59 183.94 370.94 C 196.67 372.57 209.12 367.95 221.81 368.21 C 221.38 374.16 220.57 380.08 219.42 385.94 C 217.12 380.92 210.73 381.45 206.22 379.99 C 207.96 381.67 209.66 383.39 211.28 385.19 C 202.29 383.55 193.23 381.99 184.06 382.10 C 174.42 381.85 164.95 383.90 155.38 384.70 C 155.21 389.32 155.55 393.99 154.80 398.58 C 154.32 381.06 155.23 363.56 155.43 346.05 Z" fill="#cbf2ff" opacity="1.00" stroke="#cbf2ff" stroke-width="0.25"/>
<path d="M 355.04 346.93 C 359.40 349.70 362.16 354.37 365.71 358.04 C 362.45 360.64 358.60 362.51 355.75 365.60 C 365.48 363.53 374.59 359.22 382.94 353.87 C 376.62 361.29 368.98 367.53 360.58 372.44 C 358.58 372.44 356.58 372.28 354.60 372.06 C 353.03 366.49 354.57 360.71 354.17 355.04 C 354.35 352.36 353.64 349.35 355.04 346.93 Z" fill="#fcfffd" opacity="1.00" stroke="#fcfffd" stroke-width="0.25"/>
<path d="M 266.40 352.26 C 268.56 351.73 270.74 351.26 272.93 350.85 C 272.17 353.81 270.37 356.17 267.12 356.42 C 266.78 356.05 266.11 355.30 265.77 354.93 C 265.93 354.26 266.24 352.93 266.40 352.26 Z" fill="#f7ffff" opacity="1.00" stroke="#f7ffff" stroke-width="0.25"/>
<path d="M 133.51 355.93 C 133.49 354.08 136.29 353.88 137.58 352.94 C 137.57 355.24 137.53 357.54 137.42 359.84 C 133.85 360.15 130.28 360.33 126.71 360.52 C 129.37 363.78 133.29 365.45 136.91 367.38 C 133.70 368.33 130.36 368.67 127.04 369.06 C 127.95 369.89 128.86 370.72 129.77 371.56 C 128.68 372.09 127.58 372.62 126.49 373.15 C 128.98 377.06 132.64 379.93 136.58 382.27 C 136.48 387.39 136.37 392.53 135.99 397.64 C 130.00 397.56 124.01 397.66 118.02 397.49 C 123.91 397.34 129.80 397.41 135.69 397.51 C 135.80 394.68 135.83 391.85 135.80 389.03 C 129.22 390.82 122.89 393.44 116.70 396.26 C 114.14 394.66 111.34 393.51 108.37 392.96 C 108.76 394.85 109.13 396.74 109.46 398.65 C 102.55 397.48 96.07 394.43 89.05 393.71 C 86.16 393.01 82.63 393.50 80.21 391.76 C 79.23 387.85 79.74 383.70 79.09 379.72 C 78.68 375.30 78.43 370.87 78.45 366.44 C 87.46 368.32 96.44 370.42 105.56 371.75 C 112.45 372.76 119.40 374.31 126.39 373.68 C 122.07 370.25 117.48 367.18 113.07 363.87 C 117.29 362.56 121.63 361.71 126.00 361.05 C 125.60 360.08 125.21 359.12 124.81 358.16 C 128.52 356.59 132.58 357.89 136.43 357.09 C 135.70 356.80 134.24 356.22 133.51 355.93 Z" fill="#ccf3ff" opacity="1.00" stroke="#ccf3ff" stroke-width="0.25"/>
<path d="M 330.75 355.82 C 333.76 355.53 336.77 355.32 339.78 355.06 C 339.81 360.23 339.78 365.40 339.58 370.57 C 337.05 370.83 334.49 371.37 331.96 370.98 C 328.42 369.92 325.55 367.26 323.61 364.18 C 326.49 364.65 329.34 365.24 332.21 365.74 C 330.23 362.88 327.88 360.31 325.78 357.56 C 327.25 357.01 328.71 356.45 330.20 355.95 L 330.75 355.82 Z" fill="#fefffd" opacity="1.00" stroke="#fefffd" stroke-width="0.25"/>
<path d="M 126.71 360.52 C 130.28 360.33 133.85 360.15 137.42 359.84 C 137.20 367.32 136.78 374.79 136.58 382.27 C 132.64 379.93 128.98 377.06 126.49 373.15 C 127.58 372.62 128.68 372.09 129.77 371.56 C 128.86 370.72 127.95 369.89 127.04 369.06 C 130.36 368.67 133.70 368.33 136.91 367.38 C 133.29 365.45 129.37 363.78 126.71 360.52 Z" fill="#f7ffff" opacity="1.00" stroke="#f7ffff" stroke-width="0.25"/>
<path d="M 404.86 370.75 C 407.00 370.00 408.79 368.54 410.67 367.32 C 408.78 370.29 406.71 373.14 404.57 375.93 C 399.56 377.77 394.37 379.59 390.21 383.05 C 399.16 383.25 408.08 381.38 416.11 377.38 C 414.52 382.29 410.59 385.83 407.15 389.47 C 404.67 389.58 402.21 389.73 399.75 389.90 C 399.36 389.92 398.57 389.97 398.18 390.00 C 392.28 385.37 385.78 381.56 379.10 378.19 C 387.90 376.45 396.25 373.13 404.86 370.75 Z" fill="#faffff" opacity="1.00" stroke="#faffff" stroke-width="0.25"/>
<path d="M 368.08 372.33 C 373.52 371.45 378.88 370.18 384.16 368.63 C 382.99 372.11 380.09 374.43 377.38 376.69 C 373.50 375.79 369.65 374.75 365.87 373.53 C 366.60 373.12 367.33 372.72 368.08 372.33 Z" fill="#f9ffff" opacity="1.00" stroke="#f9ffff" stroke-width="0.25"/>
<path d="M 234.22 369.80 C 238.84 372.63 241.97 377.36 246.75 379.94 C 247.35 377.12 246.47 374.23 246.41 371.38 C 249.61 373.21 252.87 374.99 256.43 376.05 C 256.50 376.89 256.54 377.74 256.54 378.59 C 254.25 380.64 251.61 382.24 249.26 384.22 C 252.02 384.90 254.79 385.56 257.60 385.99 C 251.30 387.85 245.19 390.30 238.91 392.23 C 236.51 391.45 234.07 390.81 231.63 390.19 C 231.98 388.56 232.32 386.95 232.67 385.33 C 234.13 385.36 235.60 385.40 237.07 385.48 C 235.88 384.73 234.49 384.15 233.59 383.04 C 233.01 378.62 233.75 374.18 234.22 369.80 Z" fill="#feffff" opacity="1.00" stroke="#feffff" stroke-width="0.25"/>
<path d="M 52.46 376.50 C 55.72 374.48 58.98 372.42 62.51 370.91 C 62.83 378.11 62.74 385.31 62.93 392.51 C 61.21 392.79 59.48 393.06 57.74 393.27 C 59.11 392.46 60.47 391.63 61.82 390.78 C 59.76 389.57 57.35 389.61 55.05 389.52 C 55.51 386.14 59.19 385.45 61.26 383.31 C 62.41 381.19 61.64 378.61 61.63 376.31 C 58.58 376.53 55.50 377.22 52.46 376.50 Z" fill="#ccf1fc" opacity="1.00" stroke="#ccf1fc" stroke-width="0.25"/>
<path d="M 301.06 375.18 C 314.17 372.43 327.59 372.05 340.92 371.40 C 345.49 371.10 350.08 371.33 354.60 372.06 C 356.58 372.28 358.58 372.44 360.58 372.44 L 360.05 373.84 C 362.72 373.30 365.39 372.77 368.08 372.33 C 367.33 372.72 366.60 373.12 365.87 373.53 C 369.65 374.75 373.50 375.79 377.38 376.69 C 377.42 377.65 378.00 378.15 379.10 378.19 C 385.78 381.56 392.28 385.37 398.18 390.00 C 389.91 391.02 381.62 392.22 373.60 394.54 C 360.55 398.51 348.11 404.50 336.87 412.22 C 332.52 412.80 328.14 412.15 323.88 411.24 C 295.09 407.44 266.60 401.01 238.91 392.23 C 245.19 390.30 251.30 387.85 257.60 385.99 C 259.71 385.45 261.81 384.85 263.89 384.18 C 267.21 383.22 270.56 382.38 273.89 381.44 C 282.81 378.81 291.86 376.60 301.06 375.18 Z" fill="#82d9f5" opacity="1.00" stroke="#82d9f5" stroke-width="0.25"/>
<path d="M 431.93 371.88 C 439.92 375.34 448.19 378.08 456.55 380.50 C 456.36 383.77 456.28 387.05 456.61 390.32 C 468.72 391.93 481.15 395.35 490.82 403.14 C 496.60 406.60 500.08 412.59 504.47 417.53 C 504.19 417.90 503.62 418.66 503.33 419.04 C 498.34 414.74 492.97 410.77 487.01 407.92 C 473.06 401.47 457.28 401.91 442.30 402.95 C 441.65 402.87 440.37 402.70 439.73 402.62 C 443.26 402.37 446.81 402.23 450.35 401.91 C 445.70 397.53 439.35 395.38 433.23 393.98 C 433.23 392.21 433.23 390.44 433.20 388.68 C 436.36 388.65 439.51 388.65 442.67 388.66 C 442.70 385.48 442.67 382.30 442.58 379.13 C 439.44 380.80 436.21 382.30 432.89 383.55 C 432.60 380.71 432.27 377.88 432.04 375.03 C 432.01 374.24 431.96 372.67 431.93 371.88 Z" fill="#94e3fb" opacity="1.00" stroke="#94e3fb" stroke-width="0.25"/>
<path d="M 403.39 378.87 C 408.30 377.46 412.93 375.24 417.21 372.47 C 416.97 383.53 418.11 394.68 416.82 405.68 C 416.73 400.51 416.78 395.35 416.61 390.19 C 410.99 390.04 405.36 390.22 399.75 389.90 C 402.21 389.73 404.67 389.58 407.15 389.47 C 410.59 385.83 414.52 382.29 416.11 377.38 C 408.08 381.38 399.16 383.25 390.21 383.05 C 394.37 379.59 399.56 377.77 404.57 375.93 C 404.16 376.90 403.77 377.88 403.39 378.87 Z" fill="#94d8f0" opacity="1.00" stroke="#94d8f0" stroke-width="0.25"/>
<path d="M 211.23 375.16 C 214.13 375.18 217.05 375.39 219.88 376.11 C 219.69 377.79 219.44 379.46 219.07 381.11 C 216.36 379.25 213.83 377.15 211.23 375.16 Z" fill="#f8ffff" opacity="1.00" stroke="#f8ffff" stroke-width="0.25"/>
<path d="M 256.43 376.05 C 260.61 377.48 264.65 379.29 268.77 380.89 C 267.15 382.00 265.55 383.14 263.89 384.18 C 261.81 384.85 259.71 385.45 257.60 385.99 C 254.79 385.56 252.02 384.90 249.26 384.22 C 251.61 382.24 254.25 380.64 256.54 378.59 C 256.54 377.74 256.50 376.89 256.43 376.05 Z" fill="#ccf1fc" opacity="1.00" stroke="#ccf1fc" stroke-width="0.25"/>
<path d="M 432.89 383.55 C 436.21 382.30 439.44 380.80 442.58 379.13 C 442.67 382.30 442.70 385.48 442.67 388.66 C 439.51 388.65 436.36 388.65 433.20 388.68 C 433.15 386.96 433.04 385.25 432.89 383.55 Z" fill="#f7ffff" opacity="1.00" stroke="#f7ffff" stroke-width="0.25"/>
<path d="M 79.09 379.72 C 79.74 383.70 79.23 387.85 80.21 391.76 C 82.63 393.50 86.16 393.01 89.05 393.71 C 96.07 394.43 102.55 397.48 109.46 398.65 C 110.06 398.67 111.27 398.70 111.87 398.72 L 112.49 398.73 C 100.69 399.54 88.83 398.63 77.05 399.76 C 78.04 399.06 80.10 398.72 79.57 397.05 C 79.43 391.27 78.62 385.51 79.09 379.72 Z" fill="#94e2fc" opacity="1.00" stroke="#94e2fc" stroke-width="0.25"/>
<path d="M 206.22 379.99 C 210.73 381.45 217.12 380.92 219.42 385.94 C 218.55 386.05 216.80 386.27 215.92 386.38 C 214.37 386.01 212.83 385.56 211.28 385.19 C 209.66 383.39 207.96 381.67 206.22 379.99 Z" fill="#f7ffff" opacity="1.00" stroke="#f7ffff" stroke-width="0.25"/>
<path d="M 155.38 384.70 C 164.95 383.90 174.42 381.85 184.06 382.10 C 193.23 381.99 202.29 383.55 211.28 385.19 C 212.83 385.56 214.37 386.01 215.92 386.38 C 221.17 387.59 226.42 388.80 231.63 390.19 C 234.07 390.81 236.51 391.45 238.91 392.23 C 266.60 401.01 295.09 407.44 323.88 411.24 C 328.14 412.15 332.52 412.80 336.87 412.22 C 342.23 414.48 348.19 412.90 353.80 413.89 C 347.64 415.76 341.18 414.23 334.96 413.55 C 319.20 412.12 303.38 411.45 287.60 410.31 C 281.71 408.47 275.34 408.56 269.33 409.71 C 252.57 409.16 235.76 409.47 219.09 411.45 C 211.90 412.02 204.84 410.11 198.00 408.12 C 183.82 404.14 169.30 401.51 154.69 399.67 C 154.72 399.40 154.77 398.85 154.80 398.58 C 155.55 393.99 155.21 389.32 155.38 384.70 Z" fill="#57acd3" opacity="1.00" stroke="#57acd3" stroke-width="0.25"/>
<path d="M 116.70 396.26 C 122.89 393.44 129.22 390.82 135.80 389.03 C 135.83 391.85 135.80 394.68 135.69 397.51 C 129.80 397.41 123.91 397.34 118.02 397.49 C 124.01 397.66 130.00 397.56 135.99 397.64 L 135.79 398.62 C 128.02 398.56 120.26 398.81 112.49 398.73 L 111.87 398.72 C 113.50 397.93 115.09 397.08 116.70 396.26 Z" fill="#55a7ce" opacity="1.00" stroke="#55a7ce" stroke-width="0.25"/>
<path d="M 373.60 394.54 C 381.62 392.22 389.91 391.02 398.18 390.00 C 398.57 389.97 399.36 389.92 399.75 389.90 C 405.36 390.22 410.99 390.04 416.61 390.19 C 416.78 395.35 416.73 400.51 416.82 405.68 C 413.59 407.20 409.92 407.34 406.42 407.72 C 396.86 407.56 387.55 410.21 378.02 410.56 C 379.16 410.67 380.30 410.78 381.44 410.89 C 379.92 411.22 378.40 411.56 376.88 411.89 C 375.33 410.51 373.12 410.51 371.29 411.28 C 371.69 411.57 372.49 412.13 372.89 412.42 C 366.52 412.93 360.21 414.46 353.80 413.89 C 348.19 412.90 342.23 414.48 336.87 412.22 C 348.11 404.50 360.55 398.51 373.60 394.54 Z" fill="#3386b0" opacity="1.00" stroke="#3386b0" stroke-width="0.25"/>
<path d="M 57.74 393.27 C 59.48 393.06 61.21 392.79 62.93 392.51 C 62.98 395.36 63.06 398.20 63.15 401.05 C 44.47 403.52 26.49 409.99 9.81 418.63 C 12.31 412.78 18.53 410.10 23.02 406.03 C 33.35 399.19 45.28 394.13 57.74 393.27 Z" fill="#96e5fd" opacity="1.00" stroke="#96e5fd" stroke-width="0.25"/>
<path d="M 108.37 392.96 C 111.34 393.51 114.14 394.66 116.70 396.26 C 115.09 397.08 113.50 397.93 111.87 398.72 C 111.27 398.70 110.06 398.67 109.46 398.65 C 109.13 396.74 108.76 394.85 108.37 392.96 Z" fill="#f5ffff" opacity="1.00" stroke="#f5ffff" stroke-width="0.25"/>
<path d="M 433.23 393.98 C 439.35 395.38 445.70 397.53 450.35 401.91 C 446.81 402.23 443.26 402.37 439.73 402.62 C 440.37 402.70 441.65 402.87 442.30 402.95 C 439.48 403.36 436.66 403.75 433.83 404.04 C 433.43 400.70 433.19 397.34 433.23 393.98 Z" fill="#3383a9" opacity="1.00" stroke="#3383a9" stroke-width="0.25"/>
<path d="M 378.02 410.56 C 387.55 410.21 396.86 407.56 406.42 407.72 C 398.06 408.54 389.79 409.99 381.44 410.89 C 380.30 410.78 379.16 410.67 378.02 410.56 Z" fill="#94d8f0" opacity="1.00" stroke="#94d8f0" stroke-width="0.25"/>
<path d="M 269.33 409.71 C 275.34 408.56 281.71 408.47 287.60 410.31 C 281.51 410.29 275.39 410.41 269.33 409.71 Z" fill="#74b8dd" opacity="1.00" stroke="#74b8dd" stroke-width="0.25"/>
<path d="M 371.29 411.28 C 373.12 410.51 375.33 410.51 376.88 411.89 C 375.56 412.19 374.23 412.37 372.89 412.42 C 372.49 412.13 371.69 411.57 371.29 411.28 Z" fill="#5899c0" opacity="1.00" stroke="#5899c0" stroke-width="0.25"/>
</svg>