<?xml version="1.0" encoding="utf-8"?>
<svg xmlns="http://www.w3.org/2000/svg" height="512pt" version="1.1" viewBox="0 0 512 512" width="512pt">
<path d="M 0.00 0.00 L 512.00 0.00 L 512.00 512.00 L 0.00 512.00 L 0.00 0.00 Z" fill="transparent" opacity="1.00" stroke="transparent" stroke-width="0.25"/>
<path d="M 179.90 111.76 C 183.06 111.34 186.18 109.91 189.40 110.53 C 190.74 111.65 190.31 113.48 190.40 115.00 C 189.90 127.33 190.78 139.68 189.88 152.00 C 189.58 161.67 189.57 171.35 189.41 181.03 C 189.42 187.37 188.45 193.66 188.59 200.00 C 188.44 207.36 189.55 214.67 189.39 222.03 C 189.62 247.36 189.24 272.69 189.29 298.02 C 188.46 321.66 187.99 345.37 189.38 369.00 C 189.36 377.16 189.69 385.31 190.44 393.44 C 184.97 393.39 179.48 393.48 174.01 393.12 C 162.37 392.17 150.68 392.58 139.02 392.52 C 133.13 392.47 127.30 393.57 121.41 393.55 C 121.72 388.66 122.80 383.85 122.69 378.94 C 122.72 355.63 122.41 332.32 122.23 309.01 C 121.74 300.68 121.61 292.34 121.82 284.01 C 122.85 266.01 121.93 247.95 123.36 229.97 C 123.46 214.88 124.32 199.83 125.57 184.80 C 114.58 191.35 103.94 198.83 95.63 208.67 C 95.07 208.60 93.96 208.48 93.41 208.42 C 86.15 199.42 79.36 190.05 71.79 181.31 C 67.76 176.54 62.63 172.56 60.01 166.75 C 78.56 155.53 96.18 142.73 112.33 128.25 C 116.72 124.54 120.87 120.17 126.12 117.74 C 144.17 117.13 162.06 114.40 179.90 111.76 Z" fill="#7cdffe" opacity="1.00" stroke="#7cdffe" stroke-width="0.25"/>
<path d="M 319.78 109.37 C 321.20 109.67 322.61 110.01 324.04 110.26 C 342.48 112.57 360.96 114.73 379.52 115.74 C 379.52 116.26 379.51 117.30 379.51 117.82 C 375.26 123.37 372.47 129.83 368.97 135.84 C 357.77 157.48 348.33 180.01 336.31 201.24 C 326.30 218.50 318.33 236.83 309.46 254.69 C 302.77 266.74 297.47 279.51 290.56 291.45 C 288.95 294.10 287.76 296.97 286.77 299.91 C 292.85 300.73 298.94 299.73 305.04 299.74 C 316.54 299.42 328.07 299.88 339.52 298.46 C 340.89 288.70 340.04 278.80 341.09 269.01 C 342.03 250.64 344.76 232.42 346.44 214.10 C 360.27 213.06 374.17 212.78 387.95 211.08 C 392.44 210.43 396.92 209.78 401.43 209.28 C 404.42 222.63 403.14 236.40 403.31 249.95 C 402.32 262.94 402.64 275.97 402.60 288.98 C 402.61 291.49 403.02 293.97 403.37 296.46 C 411.71 297.13 420.04 296.50 428.38 296.26 C 429.09 313.06 427.60 329.84 427.62 346.64 C 419.96 347.57 412.22 346.13 404.51 346.26 C 402.44 360.11 403.87 374.18 403.15 388.11 C 403.01 389.36 402.53 390.57 401.81 391.60 C 393.56 392.13 385.27 391.40 377.02 391.95 C 368.69 392.62 360.31 392.18 352.02 393.22 C 348.84 393.69 345.63 393.44 342.59 392.40 C 342.36 378.08 341.39 363.79 340.39 349.51 C 322.93 350.06 305.52 351.84 288.03 351.56 C 272.02 351.33 255.97 352.09 240.00 350.66 C 232.53 350.41 225.04 350.14 217.56 350.47 C 215.83 346.49 217.80 342.32 218.12 338.27 C 218.77 330.87 219.83 323.49 219.75 316.05 C 219.84 311.92 219.41 307.79 219.76 303.67 C 220.54 302.07 222.77 302.57 224.22 302.06 C 226.77 297.19 228.78 292.07 231.05 287.07 C 238.74 271.04 247.09 255.34 254.58 239.22 C 261.29 224.33 268.31 209.56 276.05 195.19 C 289.32 173.66 297.76 149.66 310.01 127.58 C 313.12 121.43 316.17 115.24 319.78 109.37 Z" fill="#7cdffe" opacity="1.00" stroke="#7cdffe" stroke-width="0.25"/>
</svg>