<?xml version="1.0" encoding="utf-8"?>
<svg xmlns="http://www.w3.org/2000/svg" height="512pt" version="1.1" viewBox="0 0 512 512" width="512pt">
<path d="M 0.00 0.00 L 512.00 0.00 L 512.00 512.00 L 0.00 512.00 L 0.00 0.00 Z" fill="transparent" opacity="1.00" stroke="transparent" stroke-width="0.25"/>
<path d="M 227.87 44.85 C 228.73 43.17 228.75 40.38 230.97 39.81 C 232.92 39.84 234.61 40.93 236.19 41.94 C 250.71 51.81 264.58 62.63 277.64 74.36 C 280.35 77.16 283.66 79.39 285.96 82.58 C 287.54 82.73 289.12 82.73 290.71 82.72 L 290.31 83.57 L 289.79 84.67 C 289.06 88.20 288.86 93.06 284.99 94.58 C 282.28 94.01 280.34 91.56 277.94 90.25 C 266.71 80.81 255.45 71.32 245.66 60.35 C 241.23 55.48 236.87 50.55 232.48 45.65 C 232.00 45.57 231.05 45.43 230.57 45.36 L 228.99 45.09 L 227.87 44.85 Z" fill="#022b4c" opacity="1.00" stroke="#022b4c" stroke-width="0.25"/>
<path d="M 363.33 43.38 C 365.28 41.71 367.59 40.24 370.27 40.41 C 371.74 43.42 371.23 46.82 371.26 50.05 C 370.33 72.71 366.31 95.16 360.57 117.07 C 359.64 119.82 360.94 122.60 361.66 125.23 C 366.54 128.28 371.90 130.55 376.64 133.87 C 374.97 137.24 370.72 137.98 367.77 139.89 C 370.18 141.75 373.32 142.26 375.83 144.00 C 376.44 146.43 372.75 146.51 371.36 147.11 C 372.27 147.60 374.08 148.59 374.99 149.08 C 373.25 150.12 371.28 149.81 369.40 149.56 C 369.37 149.77 369.31 150.19 369.28 150.40 C 372.63 151.17 376.02 151.79 379.42 152.39 C 379.41 154.11 379.43 155.82 379.45 157.54 C 358.45 161.47 336.86 161.81 315.66 159.38 C 320.54 158.77 325.49 159.01 330.37 158.35 C 346.34 158.46 362.56 158.92 378.18 155.00 C 368.48 153.41 358.80 151.44 349.50 148.24 C 350.21 147.88 351.64 147.16 352.35 146.80 C 356.99 148.08 361.63 149.63 366.50 149.62 C 365.43 148.71 364.42 147.75 363.69 146.55 C 366.22 145.94 368.79 145.50 371.38 145.14 C 368.87 143.77 366.39 142.36 363.88 141.01 C 363.69 140.53 363.29 139.56 363.10 139.08 C 363.47 139.65 363.85 140.21 364.22 140.79 C 364.85 137.38 369.05 136.91 371.56 135.24 C 371.55 134.87 371.52 134.11 371.51 133.74 C 367.62 131.52 363.65 129.46 359.76 127.27 C 359.38 125.99 359.01 124.71 358.65 123.44 C 358.57 120.95 358.44 118.47 358.04 116.02 C 363.04 96.36 367.13 76.35 368.22 56.04 C 368.29 53.31 368.30 50.54 368.96 47.87 C 370.16 46.37 369.74 44.65 369.10 43.01 C 367.17 43.15 365.25 43.27 363.33 43.38 Z" fill="#0d233c" opacity="1.00" stroke="#0d233c" stroke-width="0.25"/>
<path d="M 363.33 43.38 C 365.25 43.27 367.17 43.15 369.10 43.01 C 369.74 44.65 370.16 46.37 368.96 47.87 C 364.45 56.98 360.53 66.42 355.03 75.00 C 350.88 82.28 345.83 88.96 340.81 95.64 C 345.24 99.05 349.43 102.84 352.76 107.35 C 347.49 103.70 344.21 96.90 337.34 95.98 C 330.43 91.42 322.62 88.13 314.43 86.80 C 314.41 85.32 314.12 84.99 313.57 85.81 C 305.66 85.05 297.75 84.16 289.79 84.67 L 290.31 83.57 L 290.80 82.66 C 298.03 81.80 305.30 83.13 312.44 83.46 C 329.04 69.89 345.61 56.27 362.76 43.41 L 363.33 43.38 Z" fill="#022a4d" opacity="1.00" stroke="#022a4d" stroke-width="0.25"/>
<path d="M 228.99 45.09 L 230.57 45.36 C 227.50 68.56 231.42 92.08 238.60 114.17 C 239.16 115.77 239.49 117.43 239.78 119.09 C 237.50 121.34 237.74 124.65 237.40 127.58 C 236.39 135.62 235.05 143.60 233.79 151.60 C 232.50 152.50 232.86 154.15 233.70 155.22 C 233.52 156.24 233.34 157.26 233.14 158.28 C 232.91 158.70 232.46 159.54 232.23 159.96 C 233.17 160.76 234.10 161.56 235.03 162.37 C 233.63 162.58 232.23 162.75 230.82 162.92 C 224.13 189.53 216.30 215.86 207.41 241.82 C 203.03 254.97 197.63 267.74 192.74 280.70 C 187.63 291.64 182.81 302.73 177.67 313.66 C 172.39 324.72 168.07 336.22 164.33 347.89 C 164.10 348.41 163.65 349.44 163.42 349.95 C 163.85 351.70 164.30 353.45 164.75 355.20 C 162.99 357.90 161.10 360.58 160.11 363.68 C 158.01 369.24 156.19 375.03 156.17 381.04 C 156.09 390.36 156.04 399.69 156.25 409.01 C 157.58 421.36 162.46 433.78 171.59 442.46 C 174.81 445.54 179.27 446.88 183.67 446.72 C 183.59 447.28 183.42 448.39 183.34 448.95 C 181.31 449.80 179.11 449.42 177.04 449.02 C 172.92 447.47 169.43 444.76 166.51 441.52 C 166.17 441.49 165.49 441.42 165.15 441.38 C 153.48 447.76 141.24 453.68 128.00 455.86 C 112.62 459.20 95.95 456.67 82.40 448.63 C 72.94 443.00 65.11 434.56 60.73 424.42 C 61.17 423.74 62.05 422.38 62.50 421.69 C 67.71 434.76 78.71 445.12 91.81 450.08 C 102.19 454.83 113.85 454.12 124.94 453.54 C 137.75 451.46 149.86 446.32 161.29 440.32 C 162.17 439.72 164.19 439.03 163.32 437.63 C 161.08 433.92 158.87 430.16 157.48 426.03 C 156.09 422.61 155.05 419.06 154.21 415.48 C 153.60 411.74 153.81 407.87 152.82 404.20 C 150.13 401.21 146.65 399.04 143.89 396.10 C 135.70 388.43 129.61 378.96 123.22 369.83 C 121.51 367.26 119.94 364.53 117.44 362.64 C 116.44 364.36 117.11 367.25 114.96 368.10 C 114.54 368.08 113.71 368.06 113.29 368.05 C 110.89 365.88 109.05 363.19 106.79 360.90 C 106.00 363.48 105.16 366.06 104.09 368.56 C 103.60 368.51 102.62 368.43 102.13 368.38 C 100.79 366.32 99.54 364.21 98.24 362.13 C 97.83 363.31 97.42 364.50 97.03 365.70 C 96.47 367.27 95.86 368.84 95.26 370.41 C 94.44 370.40 93.62 370.40 92.79 370.41 C 91.18 367.21 89.61 363.98 87.95 360.81 C 85.80 364.35 84.19 368.18 82.93 372.13 C 82.07 372.30 81.22 372.48 80.37 372.66 C 78.92 369.22 77.87 365.62 76.28 362.25 C 76.09 362.29 75.71 362.37 75.52 362.42 C 73.79 365.19 72.76 368.32 71.45 371.30 C 70.72 370.25 69.73 369.60 68.48 369.36 C 68.50 367.14 68.49 364.93 68.27 362.73 C 68.16 362.65 67.92 362.48 67.80 362.39 C 67.22 362.00 66.07 361.23 65.49 360.84 C 70.00 350.04 75.71 339.70 81.89 329.75 C 82.68 328.44 84.07 326.39 85.86 327.36 C 99.02 333.79 109.20 344.79 117.54 356.61 C 125.33 368.85 133.31 381.10 143.10 391.87 C 145.86 395.02 149.31 397.44 152.44 400.18 C 152.21 389.34 152.61 378.36 155.56 367.85 C 160.43 349.61 166.32 331.59 174.29 314.45 C 183.95 292.74 194.58 271.39 202.20 248.83 C 206.81 236.94 210.37 224.68 214.36 212.57 C 222.09 185.98 230.35 159.36 234.04 131.83 C 234.84 126.66 235.29 121.45 236.11 116.29 C 231.14 98.93 226.54 81.17 226.76 62.97 C 226.53 56.93 227.37 50.94 227.93 44.94 L 228.99 45.09 Z" fill="#172539" opacity="1.00" stroke="#172539" stroke-width="0.25"/>
<path d="M 230.57 45.36 C 231.05 45.43 232.00 45.57 232.48 45.65 C 236.87 50.55 241.23 55.48 245.66 60.35 C 255.45 71.32 266.71 80.81 277.94 90.25 C 279.31 92.86 281.45 95.00 284.18 96.19 C 288.93 95.61 290.25 90.18 291.85 86.47 C 309.46 85.31 328.13 89.58 341.77 101.25 C 345.87 104.50 348.82 108.93 352.96 112.13 C 355.08 115.78 356.98 119.56 358.65 123.44 C 359.01 124.71 359.38 125.99 359.76 127.27 C 363.65 129.46 367.62 131.52 371.51 133.74 C 371.52 134.11 371.55 134.87 371.56 135.24 C 369.05 136.91 364.85 137.38 364.22 140.79 C 363.85 140.21 363.47 139.65 363.10 139.08 C 363.29 139.56 363.69 140.53 363.88 141.01 C 366.39 142.36 368.87 143.77 371.38 145.14 C 368.79 145.50 366.22 145.94 363.69 146.55 C 364.42 147.75 365.43 148.71 366.50 149.62 C 361.63 149.63 356.99 148.08 352.35 146.80 C 348.96 145.75 345.67 144.43 342.33 143.25 C 342.55 137.96 344.06 131.37 339.25 127.57 C 338.95 127.27 338.34 126.66 338.04 126.36 C 337.57 126.36 336.64 126.37 336.17 126.37 C 333.42 126.16 330.97 127.36 328.69 128.73 C 328.25 130.62 327.80 132.52 327.27 134.39 C 326.96 134.46 326.34 134.60 326.03 134.66 C 324.94 133.27 323.53 132.23 321.79 131.83 C 324.15 136.06 327.86 139.45 331.68 142.34 C 340.87 147.23 350.82 150.63 360.93 153.03 C 363.03 153.55 365.07 154.29 367.10 155.07 C 361.92 156.80 356.41 156.87 351.02 157.30 C 342.06 157.46 333.03 157.54 324.15 156.12 C 318.84 155.26 313.43 155.68 308.10 154.99 C 293.13 152.92 277.47 152.17 262.93 156.96 C 256.74 158.85 251.64 162.96 245.97 165.93 C 244.35 166.49 242.74 167.09 241.14 167.69 C 241.83 164.53 242.75 161.42 243.86 158.39 C 240.00 157.02 236.20 160.05 232.23 159.96 C 232.46 159.54 232.91 158.70 233.14 158.28 C 239.00 151.26 245.75 145.04 253.15 139.69 C 249.60 138.47 247.05 141.62 244.42 143.40 C 240.87 145.81 238.29 149.37 234.74 151.76 L 233.79 151.60 C 235.05 143.60 236.39 135.62 237.40 127.58 C 237.74 124.65 237.50 121.34 239.78 119.09 C 239.49 117.43 239.16 115.77 238.60 114.17 C 231.42 92.08 227.50 68.56 230.57 45.36 Z" fill="#fd5b1a" opacity="1.00" stroke="#fd5b1a" stroke-width="0.25"/>
<path d="M 355.03 75.00 C 360.53 66.42 364.45 56.98 368.96 47.87 C 368.30 50.54 368.29 53.31 368.22 56.04 C 367.13 76.35 363.04 96.36 358.04 116.02 C 356.77 112.86 354.92 109.98 352.76 107.35 C 349.43 102.84 345.24 99.05 340.81 95.64 C 345.83 88.96 350.88 82.28 355.03 75.00 Z" fill="#dcdddf" opacity="1.00" stroke="#dcdddf" stroke-width="0.25"/>
<path d="M 234.54 54.81 C 235.77 55.37 237.22 55.78 237.74 57.19 C 237.23 57.68 236.22 58.67 235.71 59.16 C 235.26 62.87 235.59 66.63 235.52 70.36 C 234.79 65.50 235.20 60.56 234.63 55.69 L 234.54 54.81 Z" fill="#682e1c" opacity="1.00" stroke="#682e1c" stroke-width="0.25"/>
<path d="M 234.63 55.69 C 235.20 60.56 234.79 65.50 235.52 70.36 C 235.98 74.42 236.68 78.45 237.27 82.49 C 235.34 81.27 235.64 78.93 235.28 76.98 C 234.34 69.97 232.34 62.64 234.63 55.69 Z" fill="#a7573c" opacity="1.00" stroke="#a7573c" stroke-width="0.25"/>
<path d="M 235.71 59.16 C 236.22 58.67 237.23 57.68 237.74 57.19 C 240.88 63.48 245.37 68.94 249.72 74.42 C 256.55 82.31 263.46 90.25 271.73 96.71 C 271.62 97.54 271.50 98.38 271.36 99.21 C 267.23 98.95 263.86 101.56 260.65 103.76 C 256.88 106.68 253.36 110.06 250.94 114.22 C 250.30 114.22 249.65 114.23 249.01 114.23 C 244.08 104.07 239.37 93.66 237.27 82.49 C 236.68 78.45 235.98 74.42 235.52 70.36 C 235.59 66.63 235.26 62.87 235.71 59.16 Z" fill="#181f2a" opacity="1.00" stroke="#181f2a" stroke-width="0.25"/>
<path d="M 237.24 60.97 C 237.91 61.80 238.55 62.67 238.93 63.68 L 237.47 63.08 C 237.72 66.22 237.93 69.36 238.10 72.51 C 236.47 68.91 237.17 64.79 237.24 60.97 Z" fill="#6f89a0" opacity="1.00" stroke="#6f89a0" stroke-width="0.25"/>
<path d="M 237.47 63.08 L 238.93 63.68 C 239.19 64.17 239.72 65.15 239.99 65.65 C 242.75 70.85 246.68 75.35 250.79 79.53 C 252.72 81.55 254.59 83.61 256.54 85.61 L 256.44 85.83 C 256.22 86.29 255.79 87.20 255.57 87.65 C 257.09 92.24 258.43 96.88 259.31 101.63 L 259.38 101.99 C 256.51 103.82 254.33 106.46 251.86 108.76 C 251.50 109.06 250.77 109.67 250.41 109.97 C 246.46 102.93 243.97 95.24 241.23 87.69 C 239.68 82.76 238.67 77.64 238.10 72.51 C 237.93 69.36 237.72 66.22 237.47 63.08 Z" fill="#ffffff" opacity="1.00" stroke="#ffffff" stroke-width="0.25"/>
<path d="M 239.99 65.65 C 243.71 70.16 247.56 74.64 250.79 79.53 C 246.68 75.35 242.75 70.85 239.99 65.65 Z" fill="#96a8b7" opacity="1.00" stroke="#96a8b7" stroke-width="0.25"/>
<path d="M 284.99 94.58 C 288.86 93.06 289.06 88.20 289.79 84.67 C 297.75 84.16 305.66 85.05 313.57 85.81 C 314.12 84.99 314.41 85.32 314.43 86.80 C 322.62 88.13 330.43 91.42 337.34 95.98 C 343.38 100.43 349.45 105.34 352.96 112.13 C 348.82 108.93 345.87 104.50 341.77 101.25 C 328.13 89.58 309.46 85.31 291.85 86.47 C 290.25 90.18 288.93 95.61 284.18 96.19 C 281.45 95.00 279.31 92.86 277.94 90.25 C 280.34 91.56 282.28 94.01 284.99 94.58 Z" fill="#b45c3d" opacity="1.00" stroke="#b45c3d" stroke-width="0.25"/>
<path d="M 255.57 87.65 C 255.79 87.20 256.22 86.29 256.44 85.83 C 258.34 87.39 260.08 89.13 261.66 91.02 C 263.32 93.03 265.16 94.89 267.09 96.64 C 264.82 97.86 262.59 99.17 260.54 100.76 C 260.23 100.98 259.62 101.42 259.31 101.63 C 258.43 96.88 257.09 92.24 255.57 87.65 Z" fill="#e0d9da" opacity="1.00" stroke="#e0d9da" stroke-width="0.25"/>
<path d="M 241.23 87.69 C 243.97 95.24 246.46 102.93 250.41 109.97 C 250.77 109.67 251.50 109.06 251.86 108.76 C 251.83 110.04 251.23 110.76 250.06 110.93 C 246.28 103.60 242.45 95.91 241.23 87.69 Z" fill="#7b91a1" opacity="1.00" stroke="#7b91a1" stroke-width="0.25"/>
<path d="M 261.66 91.02 C 264.20 92.54 266.11 94.84 268.22 96.88 C 265.73 98.30 263.33 99.97 260.54 100.76 C 262.59 99.17 264.82 97.86 267.09 96.64 C 265.16 94.89 263.32 93.03 261.66 91.02 Z" fill="#758a9e" opacity="1.00" stroke="#758a9e" stroke-width="0.25"/>
<path d="M 337.34 95.98 C 344.21 96.90 347.49 103.70 352.76 107.35 C 354.92 109.98 356.77 112.86 358.04 116.02 C 358.44 118.47 358.57 120.95 358.65 123.44 C 356.98 119.56 355.08 115.78 352.96 112.13 C 349.45 105.34 343.38 100.43 337.34 95.98 Z" fill="#181f2a" opacity="1.00" stroke="#181f2a" stroke-width="0.25"/>
<path d="M 298.39 127.44 C 300.34 127.36 302.80 127.02 304.22 128.69 C 307.79 132.42 308.15 138.17 306.88 142.94 C 305.93 145.84 303.41 148.94 300.04 148.51 C 294.65 148.86 291.58 142.73 291.66 138.04 C 291.14 133.58 293.58 128.15 298.39 127.44 Z" fill="#1f212c" opacity="1.00" stroke="#1f212c" stroke-width="0.25"/>
<path d="M 328.69 128.73 C 330.97 127.36 333.42 126.16 336.17 126.37 C 336.81 127.70 337.84 128.10 339.25 127.57 C 344.06 131.37 342.55 137.96 342.33 143.25 C 345.67 144.43 348.96 145.75 352.35 146.80 C 351.64 147.16 350.21 147.88 349.50 148.24 C 343.38 146.06 337.10 144.07 331.59 140.53 C 331.56 140.50 331.49 140.45 331.45 140.42 C 329.36 138.78 327.66 136.74 326.03 134.66 C 326.34 134.60 326.96 134.46 327.27 134.39 C 327.80 132.52 328.25 130.62 328.69 128.73 Z" fill="#052b4c" opacity="1.00" stroke="#052b4c" stroke-width="0.25"/>
<path d="M 336.17 126.37 C 336.64 126.37 337.57 126.36 338.04 126.36 C 338.34 126.66 338.95 127.27 339.25 127.57 C 337.84 128.10 336.81 127.70 336.17 126.37 Z" fill="#3e201f" opacity="1.00" stroke="#3e201f" stroke-width="0.25"/>
<path d="M 297.12 130.87 C 296.88 127.83 301.85 127.92 303.26 129.89 C 306.36 132.75 305.77 137.29 305.61 141.09 C 305.60 143.34 303.89 144.99 302.70 146.72 C 300.14 146.86 296.99 147.24 295.59 144.53 C 292.73 141.72 293.11 137.63 293.51 134.00 C 293.81 135.49 294.84 136.60 295.83 137.68 C 296.49 137.28 297.81 136.47 298.47 136.07 C 298.48 135.27 298.50 133.68 298.51 132.88 C 298.17 132.38 297.47 131.37 297.12 130.87 Z" fill="#032b4c" opacity="1.00" stroke="#032b4c" stroke-width="0.25"/>
<path d="M 329.60 129.68 C 331.86 128.64 333.82 129.81 334.56 132.06 C 333.64 133.92 331.76 134.50 329.81 134.26 C 329.50 132.75 329.43 131.21 329.60 129.68 Z" fill="#f7ffff" opacity="1.00" stroke="#f7ffff" stroke-width="0.25"/>
<path d="M 294.71 131.56 C 295.32 131.39 296.52 131.04 297.12 130.87 C 297.47 131.37 298.17 132.38 298.51 132.88 C 298.50 133.68 298.48 135.27 298.47 136.07 C 297.81 136.47 296.49 137.28 295.83 137.68 C 294.84 136.60 293.81 135.49 293.51 134.00 C 293.81 133.39 294.41 132.17 294.71 131.56 Z" fill="#f5feff" opacity="1.00" stroke="#f5feff" stroke-width="0.25"/>
<path d="M 321.79 131.83 C 323.53 132.23 324.94 133.27 326.03 134.66 C 327.66 136.74 329.36 138.78 331.45 140.42 C 331.49 140.45 331.56 140.50 331.59 140.53 C 337.10 144.07 343.38 146.06 349.50 148.24 C 358.80 151.44 368.48 153.41 378.18 155.00 C 362.56 158.92 346.34 158.46 330.37 158.35 C 325.26 157.74 320.10 157.21 314.96 157.69 C 316.32 157.64 317.52 157.22 317.80 155.78 C 316.05 157.85 313.28 156.64 311.02 156.71 C 299.04 155.38 286.93 154.52 274.91 155.69 C 267.04 156.56 259.12 158.85 252.78 163.76 C 250.89 165.43 248.36 165.64 245.97 165.93 C 251.64 162.96 256.74 158.85 262.93 156.96 C 277.47 152.17 293.13 152.92 308.10 154.99 C 313.43 155.68 318.84 155.26 324.15 156.12 C 333.03 157.54 342.06 157.46 351.02 157.30 C 356.41 156.87 361.92 156.80 367.10 155.07 C 365.07 154.29 363.03 153.55 360.93 153.03 C 350.82 150.63 340.87 147.23 331.68 142.34 C 327.86 139.45 324.15 136.06 321.79 131.83 Z" fill="#bc5e3c" opacity="1.00" stroke="#bc5e3c" stroke-width="0.25"/>
<path d="M 244.42 143.40 C 247.05 141.62 249.60 138.47 253.15 139.69 C 245.75 145.04 239.00 151.26 233.14 158.28 C 233.34 157.26 233.52 156.24 233.70 155.22 C 234.80 154.21 235.15 153.06 234.74 151.76 C 238.29 149.37 240.87 145.81 244.42 143.40 Z" fill="#2e2222" opacity="1.00" stroke="#2e2222" stroke-width="0.25"/>
<path d="M 331.45 140.42 C 331.49 140.45 331.56 140.50 331.59 140.53 C 331.56 140.50 331.49 140.45 331.45 140.42 Z" fill="#7b4133" opacity="1.00" stroke="#7b4133" stroke-width="0.25"/>
<path d="M 233.70 155.22 C 232.86 154.15 232.50 152.50 233.79 151.60 L 234.74 151.76 C 235.15 153.06 234.80 154.21 233.70 155.22 Z" fill="#73625a" opacity="1.00" stroke="#73625a" stroke-width="0.25"/>
<path d="M 379.42 152.39 C 388.31 155.61 397.54 149.20 406.43 152.51 C 409.02 157.93 407.33 164.41 404.19 169.23 C 402.18 172.05 399.70 175.05 396.05 175.57 C 395.13 175.57 394.22 175.55 393.32 175.50 C 385.12 173.60 382.35 164.57 381.56 157.21 C 381.04 157.29 379.98 157.46 379.45 157.54 C 379.43 155.82 379.41 154.11 379.42 152.39 Z" fill="#032b4d" opacity="1.00" stroke="#032b4d" stroke-width="0.25"/>
<path d="M 274.91 155.69 C 286.93 154.52 299.04 155.38 311.02 156.71 C 313.28 156.64 316.05 157.85 317.80 155.78 C 317.52 157.22 316.32 157.64 314.96 157.69 C 320.10 157.21 325.26 157.74 330.37 158.35 C 325.49 159.01 320.54 158.77 315.66 159.38 C 298.39 157.94 280.47 155.12 263.60 160.55 C 254.59 163.31 248.09 170.68 243.37 178.49 C 241.20 181.23 239.94 184.49 238.91 187.79 C 239.46 188.07 240.56 188.62 241.11 188.90 C 243.28 190.08 245.50 191.16 247.72 192.26 C 250.71 194.05 254.02 195.48 256.42 198.10 C 253.55 197.24 250.83 195.99 247.99 195.05 C 247.01 194.74 246.03 194.45 245.04 194.18 C 242.64 192.43 240.16 190.79 237.70 189.12 C 238.27 187.75 238.28 186.35 237.71 184.93 C 239.98 178.98 243.87 173.92 247.10 168.50 C 244.13 169.27 241.10 169.76 238.03 169.89 C 238.47 167.00 239.11 164.15 239.85 161.33 C 238.25 161.70 236.65 162.07 235.03 162.37 C 234.10 161.56 233.17 160.76 232.23 159.96 C 236.20 160.05 240.00 157.02 243.86 158.39 C 242.75 161.42 241.83 164.53 241.14 167.69 C 242.74 167.09 244.35 166.49 245.97 165.93 C 248.36 165.64 250.89 165.43 252.78 163.76 C 259.12 158.85 267.04 156.56 274.91 155.69 Z" fill="#172030" opacity="1.00" stroke="#172030" stroke-width="0.25"/>
<path d="M 315.66 159.38 C 336.86 161.81 358.45 161.47 379.45 157.54 C 379.98 157.46 381.04 157.29 381.56 157.21 C 382.35 164.57 385.12 173.60 393.32 175.50 C 387.88 182.91 381.27 189.64 373.25 194.25 C 365.58 198.87 356.70 200.87 347.97 202.33 C 327.37 205.20 306.51 203.36 285.94 201.20 C 273.01 199.27 259.62 198.12 247.72 192.26 C 245.50 191.16 243.28 190.08 241.11 188.90 C 240.74 188.49 240.01 187.67 239.64 187.26 C 240.97 184.38 242.18 181.44 243.37 178.49 C 248.09 170.68 254.59 163.31 263.60 160.55 C 280.47 155.12 298.39 157.94 315.66 159.38 Z" fill="#ffffff" opacity="1.00" stroke="#ffffff" stroke-width="0.25"/>
<path d="M 235.03 162.37 C 236.65 162.07 238.25 161.70 239.85 161.33 C 239.11 164.15 238.47 167.00 238.03 169.89 C 241.10 169.76 244.13 169.27 247.10 168.50 C 243.87 173.92 239.98 178.98 237.71 184.93 C 236.81 186.08 235.95 188.27 237.70 189.12 C 240.16 190.79 242.64 192.43 245.04 194.18 C 241.20 193.51 237.39 191.75 235.45 188.19 C 237.20 182.09 240.10 176.42 243.74 171.23 C 241.63 171.08 239.53 170.92 237.43 170.77 C 237.40 168.28 237.42 165.80 237.34 163.31 C 235.41 164.17 232.30 163.91 231.48 166.28 C 222.33 201.52 211.86 236.52 198.34 270.37 C 196.91 274.03 195.65 277.91 192.74 280.70 C 197.63 267.74 203.03 254.97 207.41 241.82 C 216.30 215.86 224.13 189.53 230.82 162.92 C 232.23 162.75 233.63 162.58 235.03 162.37 Z" fill="#bc5e3c" opacity="1.00" stroke="#bc5e3c" stroke-width="0.25"/>
<path d="M 231.48 166.28 C 232.30 163.91 235.41 164.17 237.34 163.31 C 237.42 165.80 237.40 168.28 237.43 170.77 C 239.53 170.92 241.63 171.08 243.74 171.23 C 240.10 176.42 237.20 182.09 235.45 188.19 C 237.39 191.75 241.20 193.51 245.04 194.18 C 246.03 194.45 247.01 194.74 247.99 195.05 C 247.41 195.12 246.25 195.25 245.68 195.32 C 248.81 196.98 252.22 198.13 255.24 200.02 C 255.93 204.46 254.21 208.78 253.71 213.15 C 252.53 223.81 250.07 234.30 249.36 245.01 C 248.05 257.75 247.43 271.09 251.81 283.34 C 252.40 285.44 253.95 286.97 255.55 288.34 C 259.00 292.98 263.36 296.99 268.67 299.41 C 267.70 300.74 267.43 302.38 267.49 304.00 C 267.50 319.62 268.45 335.22 270.10 350.74 C 271.49 359.28 271.84 367.94 272.86 376.53 C 266.11 377.70 259.40 379.11 252.60 379.91 C 244.97 352.04 236.77 324.32 229.13 296.45 C 228.61 296.38 227.58 296.23 227.06 296.16 C 224.50 297.03 224.91 300.23 224.41 302.37 C 223.61 311.47 222.26 320.51 220.40 329.45 C 219.78 329.71 218.54 330.23 217.92 330.49 C 209.51 325.51 198.77 324.80 189.81 328.74 C 179.50 333.25 171.03 341.17 164.54 350.24 C 164.49 349.66 164.38 348.48 164.33 347.89 C 168.07 336.22 172.39 324.72 177.67 313.66 C 182.81 302.73 187.63 291.64 192.74 280.70 C 195.65 277.91 196.91 274.03 198.34 270.37 C 211.86 236.52 222.33 201.52 231.48 166.28 Z" fill="#fd5b1a" opacity="1.00" stroke="#fd5b1a" stroke-width="0.25"/>
<path d="M 302.48 178.94 C 305.52 176.89 308.31 174.39 311.78 173.08 C 312.44 174.97 310.35 175.51 309.20 176.44 C 314.33 182.81 321.40 188.75 330.00 188.88 C 335.08 189.30 340.36 187.72 344.08 184.18 C 345.59 182.74 346.72 180.83 348.71 179.99 C 349.36 182.48 347.18 184.08 345.65 185.64 C 340.72 190.55 333.22 192.31 326.51 190.80 C 318.71 189.41 312.54 183.85 307.78 177.85 C 306.07 178.99 304.21 179.87 302.51 181.01 C 302.50 180.49 302.49 179.45 302.48 178.94 Z" fill="#0d2238" opacity="1.00" stroke="#0d2238" stroke-width="0.25"/>
<path d="M 393.32 175.50 C 394.22 175.55 395.13 175.57 396.05 175.57 C 389.73 185.19 380.99 193.49 370.45 198.29 C 370.65 199.23 370.86 200.18 371.07 201.13 C 364.64 205.13 357.53 208.11 350.14 209.80 C 351.30 210.64 352.45 211.50 353.59 212.38 C 353.61 212.92 353.64 214.00 353.65 214.54 C 347.68 217.16 341.34 218.98 334.85 219.72 C 339.82 224.45 344.39 229.62 349.64 234.05 C 349.59 235.14 349.52 236.24 349.42 237.34 C 344.07 237.53 338.65 237.74 333.40 236.58 C 339.20 254.13 338.71 273.35 334.21 291.15 C 331.67 299.81 328.70 308.37 324.75 316.50 C 323.88 318.55 324.50 320.84 324.47 322.99 C 325.67 338.31 327.15 353.62 327.92 368.98 C 327.87 370.59 327.77 372.21 327.68 373.83 C 327.15 373.76 326.11 373.61 325.59 373.54 C 325.18 362.69 323.76 351.89 323.32 341.03 C 322.25 335.31 322.96 329.38 321.36 323.76 C 315.23 334.04 308.03 343.90 298.29 351.06 C 298.64 358.97 301.11 366.59 301.67 374.48 C 301.19 374.43 300.24 374.33 299.76 374.28 C 299.16 370.05 299.03 365.68 297.27 361.72 C 296.65 358.82 296.21 355.89 295.69 352.98 C 291.63 355.27 287.59 357.59 283.50 359.82 C 283.31 358.83 283.15 357.84 283.01 356.85 C 290.54 353.63 297.37 348.87 303.41 343.36 C 313.04 333.83 319.94 321.89 325.14 309.47 C 331.82 293.24 336.29 275.63 334.74 257.97 C 334.28 250.94 333.47 243.74 330.72 237.19 C 330.68 236.15 330.66 235.10 330.64 234.06 C 335.77 234.53 340.92 234.83 346.07 235.16 C 342.41 229.14 336.21 225.18 331.81 219.72 C 331.77 219.23 331.68 218.23 331.63 217.74 C 338.20 217.15 344.54 215.21 350.79 213.21 C 349.05 211.89 347.42 210.44 345.97 208.82 C 353.50 205.97 361.57 204.19 368.34 199.61 C 349.53 206.92 328.87 206.97 309.01 205.64 C 300.82 205.20 292.65 204.45 284.50 203.55 C 276.13 202.36 267.77 201.09 259.51 199.25 C 259.30 200.59 259.10 201.95 258.89 203.30 C 258.33 202.66 257.19 201.38 256.62 200.74 C 256.57 199.85 256.51 198.97 256.42 198.10 C 254.02 195.48 250.71 194.05 247.72 192.26 C 259.62 198.12 273.01 199.27 285.94 201.20 C 306.51 203.36 327.37 205.20 347.97 202.33 C 356.70 200.87 365.58 198.87 373.25 194.25 C 381.27 189.64 387.88 182.91 393.32 175.50 Z" fill="#0d2238" opacity="1.00" stroke="#0d2238" stroke-width="0.25"/>
<path d="M 238.91 187.79 C 239.94 184.49 241.20 181.23 243.37 178.49 C 242.18 181.44 240.97 184.38 239.64 187.26 C 240.01 187.67 240.74 188.49 241.11 188.90 C 240.56 188.62 239.46 188.07 238.91 187.79 Z" fill="#8fa7b6" opacity="1.00" stroke="#8fa7b6" stroke-width="0.25"/>
<path d="M 237.70 189.12 C 235.95 188.27 236.81 186.08 237.71 184.93 C 238.28 186.35 238.27 187.75 237.70 189.12 Z" fill="#602611" opacity="1.00" stroke="#602611" stroke-width="0.25"/>
<path d="M 245.68 195.32 C 246.25 195.25 247.41 195.12 247.99 195.05 C 250.83 195.99 253.55 197.24 256.42 198.10 C 256.51 198.97 256.57 199.85 256.62 200.74 C 254.59 221.82 249.36 242.64 249.76 263.92 C 249.86 272.37 251.86 280.75 255.55 288.34 C 253.95 286.97 252.40 285.44 251.81 283.34 C 247.43 271.09 248.05 257.75 249.36 245.01 C 250.07 234.30 252.53 223.81 253.71 213.15 C 254.21 208.78 255.93 204.46 255.24 200.02 C 252.22 198.13 248.81 196.98 245.68 195.32 Z" fill="#bc5e3c" opacity="1.00" stroke="#bc5e3c" stroke-width="0.25"/>
<path d="M 259.51 199.25 C 267.77 201.09 276.13 202.36 284.50 203.55 C 294.19 208.38 304.83 210.79 315.15 213.85 C 320.56 215.50 326.19 216.23 331.63 217.74 C 331.68 218.23 331.77 219.23 331.81 219.72 C 336.21 225.18 342.41 229.14 346.07 235.16 C 340.92 234.83 335.77 234.53 330.64 234.06 C 330.66 235.10 330.68 236.15 330.72 237.19 C 328.61 247.45 329.00 258.26 325.05 268.14 C 317.49 286.59 305.17 303.25 288.95 314.98 C 287.91 315.83 286.15 316.20 285.56 314.64 C 282.99 309.96 280.95 304.78 276.55 301.45 C 275.22 299.21 272.59 298.65 270.41 297.58 C 263.66 294.49 257.81 288.94 255.32 281.84 C 251.36 271.43 251.99 260.12 252.63 249.22 C 254.56 233.89 256.72 218.59 258.89 203.30 C 259.10 201.95 259.30 200.59 259.51 199.25 Z" fill="#ffffff" opacity="1.00" stroke="#ffffff" stroke-width="0.25"/>
<path d="M 368.34 199.61 C 361.57 204.19 353.50 205.97 345.97 208.82 C 347.42 210.44 349.05 211.89 350.79 213.21 C 344.54 215.21 338.20 217.15 331.63 217.74 C 326.19 216.23 320.56 215.50 315.15 213.85 C 304.83 210.79 294.19 208.38 284.50 203.55 C 292.65 204.45 300.82 205.20 309.01 205.64 C 328.87 206.97 349.53 206.92 368.34 199.61 Z" fill="#dbdde0" opacity="1.00" stroke="#dbdde0" stroke-width="0.25"/>
<path d="M 256.62 200.74 C 257.19 201.38 258.33 202.66 258.89 203.30 C 256.72 218.59 254.56 233.89 252.63 249.22 C 251.99 260.12 251.36 271.43 255.32 281.84 C 257.81 288.94 263.66 294.49 270.41 297.58 C 272.59 298.65 275.22 299.21 276.55 301.45 C 278.58 319.92 281.23 338.34 283.01 356.85 C 283.15 357.84 283.31 358.83 283.50 359.82 C 284.51 364.98 284.98 370.22 285.65 375.42 C 280.15 376.93 274.42 377.29 268.89 378.67 C 264.23 379.59 259.64 380.96 254.89 381.33 C 253.14 381.40 250.84 380.79 250.37 378.84 C 248.55 373.92 247.55 368.74 246.32 363.65 C 243.78 362.51 241.19 361.49 238.55 360.63 C 238.98 363.90 239.91 367.07 240.99 370.19 C 243.25 388.00 237.92 406.54 226.11 420.12 C 223.08 422.81 219.96 425.50 216.27 427.24 C 212.53 429.02 208.30 429.15 204.43 430.52 C 201.83 431.45 199.18 432.25 196.46 432.78 C 198.63 431.45 200.88 430.25 203.27 429.38 C 207.62 427.95 212.22 427.23 216.41 425.34 C 219.28 423.33 221.51 420.56 223.82 417.95 C 229.01 411.53 234.02 404.61 236.17 396.52 C 239.52 384.78 239.57 372.05 236.40 360.27 C 236.86 359.09 237.33 357.92 237.80 356.75 C 239.68 358.32 241.69 359.73 243.81 360.98 C 242.80 353.21 239.82 345.89 237.93 338.32 C 235.97 330.59 233.35 323.05 231.51 315.30 C 230.03 308.91 227.71 302.72 227.06 296.16 C 227.58 296.23 228.61 296.38 229.13 296.45 C 236.77 324.32 244.97 352.04 252.60 379.91 C 259.40 379.11 266.11 377.70 272.86 376.53 C 275.76 375.99 278.73 375.74 281.57 374.91 C 282.50 368.93 281.44 362.90 280.49 357.00 C 278.58 339.20 276.06 321.48 274.16 303.69 C 274.43 300.49 270.80 300.41 268.67 299.41 C 263.36 296.99 259.00 292.98 255.55 288.34 C 251.86 280.75 249.86 272.37 249.76 263.92 C 249.36 242.64 254.59 221.82 256.62 200.74 Z" fill="#1f212c" opacity="1.00" stroke="#1f212c" stroke-width="0.25"/>
<path d="M 330.72 237.19 C 333.47 243.74 334.28 250.94 334.74 257.97 C 336.29 275.63 331.82 293.24 325.14 309.47 C 319.94 321.89 313.04 333.83 303.41 343.36 C 297.37 348.87 290.54 353.63 283.01 356.85 C 281.23 338.34 278.58 319.92 276.55 301.45 C 280.95 304.78 282.99 309.96 285.56 314.64 C 286.15 316.20 287.91 315.83 288.95 314.98 C 305.17 303.25 317.49 286.59 325.05 268.14 C 329.00 258.26 328.61 247.45 330.72 237.19 Z" fill="#dcdddf" opacity="1.00" stroke="#dcdddf" stroke-width="0.25"/>
<path d="M 224.41 302.37 C 224.91 300.23 224.50 297.03 227.06 296.16 C 227.71 302.72 230.03 308.91 231.51 315.30 C 233.35 323.05 235.97 330.59 237.93 338.32 C 239.82 345.89 242.80 353.21 243.81 360.98 C 241.69 359.73 239.68 358.32 237.80 356.75 C 237.75 355.17 237.65 353.55 236.97 352.10 C 232.79 343.33 226.84 334.91 217.92 330.49 C 218.54 330.23 219.78 329.71 220.40 329.45 C 222.26 320.51 223.61 311.47 224.41 302.37 Z" fill="#b84220" opacity="1.00" stroke="#b84220" stroke-width="0.25"/>
<path d="M 267.49 304.00 C 267.43 302.38 267.70 300.74 268.67 299.41 C 270.80 300.41 274.43 300.49 274.16 303.69 C 276.06 321.48 278.58 339.20 280.49 357.00 C 281.44 362.90 282.50 368.93 281.57 374.91 C 278.73 375.74 275.76 375.99 272.86 376.53 C 271.84 367.94 271.49 359.28 270.10 350.74 C 268.45 335.22 267.50 319.62 267.49 304.00 Z" fill="#ba4120" opacity="1.00" stroke="#ba4120" stroke-width="0.25"/>
<path d="M 298.29 351.06 C 308.03 343.90 315.23 334.04 321.36 323.76 C 322.96 329.38 322.25 335.31 323.32 341.03 C 323.76 351.89 325.18 362.69 325.59 373.54 C 317.59 373.17 309.67 374.89 301.67 374.48 C 301.11 366.59 298.64 358.97 298.29 351.06 Z" fill="#ba4321" opacity="1.00" stroke="#ba4321" stroke-width="0.25"/>
<path d="M 189.81 328.74 C 198.77 324.80 209.51 325.51 217.92 330.49 C 226.84 334.91 232.79 343.33 236.97 352.10 C 237.65 353.55 237.75 355.17 237.80 356.75 C 237.33 357.92 236.86 359.09 236.40 360.27 C 233.29 348.64 225.91 337.59 214.80 332.34 C 207.83 328.58 199.27 328.48 191.91 331.13 C 180.44 335.76 171.45 345.04 164.75 355.20 C 164.30 353.45 163.85 351.70 163.42 349.95 C 163.65 349.44 164.10 348.41 164.33 347.89 C 164.38 348.48 164.49 349.66 164.54 350.24 C 171.03 341.17 179.50 333.25 189.81 328.74 Z" fill="#2e2222" opacity="1.00" stroke="#2e2222" stroke-width="0.25"/>
<path d="M 84.35 330.42 C 87.17 329.92 89.57 332.64 91.95 333.93 C 101.45 340.03 108.76 348.77 115.32 357.84 C 114.70 360.21 114.61 362.67 114.50 365.11 C 111.63 363.78 110.23 360.69 108.23 358.41 C 107.23 358.39 106.23 358.37 105.24 358.37 C 104.45 360.26 103.76 362.19 103.13 364.14 C 100.75 363.01 100.32 359.99 99.00 357.91 C 98.63 357.79 97.89 357.55 97.53 357.43 C 95.70 360.37 95.13 363.82 94.10 367.08 C 92.29 363.88 90.96 360.44 89.17 357.24 C 84.20 358.08 83.65 364.38 81.79 368.16 C 79.30 365.03 80.10 358.11 74.81 358.43 C 73.39 360.56 72.18 362.82 71.04 365.12 C 70.73 362.44 71.23 359.49 69.65 357.14 C 74.37 348.14 78.91 339.00 84.35 330.42 Z" fill="#ffffff" opacity="1.00" stroke="#ffffff" stroke-width="0.25"/>
<path d="M 191.91 331.13 C 199.27 328.48 207.83 328.58 214.80 332.34 C 225.91 337.59 233.29 348.64 236.40 360.27 C 239.57 372.05 239.52 384.78 236.17 396.52 C 234.02 404.61 229.01 411.53 223.82 417.95 C 221.51 420.56 219.28 423.33 216.41 425.34 C 212.22 427.23 207.62 427.95 203.27 429.38 C 197.52 429.58 191.68 428.86 186.34 426.62 C 181.60 424.64 176.30 423.14 172.89 419.03 C 168.55 414.04 164.38 408.51 162.83 401.96 C 161.30 395.40 159.82 388.76 159.77 382.00 C 159.46 375.88 160.43 369.79 160.11 363.68 C 161.10 360.58 162.99 357.90 164.75 355.20 C 171.45 345.04 180.44 335.76 191.91 331.13 Z" fill="#fd5b1a" opacity="1.00" stroke="#fd5b1a" stroke-width="0.25"/>
<path d="M 283.50 359.82 C 287.59 357.59 291.63 355.27 295.69 352.98 C 296.21 355.89 296.65 358.82 297.27 361.72 C 298.88 371.81 300.35 381.93 302.32 391.96 C 302.67 394.11 303.21 396.35 302.56 398.50 C 300.50 405.92 297.22 412.96 293.10 419.45 C 292.79 419.54 292.16 419.73 291.85 419.82 C 289.98 405.00 287.57 390.24 285.65 375.42 C 284.98 370.22 284.51 364.98 283.50 359.82 Z" fill="#dbddde" opacity="1.00" stroke="#dbddde" stroke-width="0.25"/>
<path d="M 65.49 360.84 C 66.07 361.23 67.22 362.00 67.80 362.39 C 65.48 369.55 61.53 376.32 61.27 384.02 C 61.07 383.41 60.88 382.80 60.68 382.19 C 59.64 393.16 57.72 404.66 61.23 415.38 C 61.57 417.49 61.91 419.62 62.50 421.69 C 62.05 422.38 61.17 423.74 60.73 424.42 C 58.94 419.92 57.52 415.23 56.96 410.41 C 57.80 401.57 56.33 392.52 58.83 383.86 C 59.80 377.98 62.79 372.64 63.34 366.68 C 63.77 364.64 64.72 362.76 65.49 360.84 Z" fill="#2a1f2b" opacity="1.00" stroke="#2a1f2b" stroke-width="0.25"/>
<path d="M 106.79 360.90 C 109.05 363.19 110.89 365.88 113.29 368.05 C 113.71 368.06 114.54 368.08 114.96 368.10 C 117.11 367.25 116.44 364.36 117.44 362.64 C 119.94 364.53 121.51 367.26 123.22 369.83 C 129.61 378.96 135.70 388.43 143.89 396.10 C 146.65 399.04 150.13 401.21 152.82 404.20 C 153.81 407.87 153.60 411.74 154.21 415.48 C 152.38 412.16 152.06 408.39 151.18 404.80 C 149.87 403.09 148.09 401.85 146.49 400.46 C 141.70 396.58 137.91 391.68 133.94 387.01 C 128.38 380.44 124.14 372.88 118.72 366.20 C 117.56 368.58 114.93 369.56 112.47 368.61 C 110.53 367.29 108.91 365.59 107.20 364.03 C 106.14 366.38 106.24 370.52 102.93 370.72 C 100.93 370.06 99.98 367.84 98.62 366.37 C 98.17 366.73 97.28 367.44 96.83 367.80 C 96.88 367.27 96.98 366.22 97.03 365.70 C 97.42 364.50 97.83 363.31 98.24 362.13 C 99.54 364.21 100.79 366.32 102.13 368.38 C 102.37 368.70 102.85 369.35 103.09 369.67 C 103.34 369.39 103.84 368.84 104.09 368.56 C 105.16 366.06 106.00 363.48 106.79 360.90 Z" fill="#bc5e3c" opacity="1.00" stroke="#bc5e3c" stroke-width="0.25"/>
<path d="M 238.55 360.63 C 241.19 361.49 243.78 362.51 246.32 363.65 C 247.55 368.74 248.55 373.92 250.37 378.84 C 250.84 380.79 253.14 381.40 254.89 381.33 C 259.64 380.96 264.23 379.59 268.89 378.67 C 274.42 377.29 280.15 376.93 285.65 375.42 C 287.57 390.24 289.98 405.00 291.85 419.82 C 292.16 419.73 292.79 419.54 293.10 419.45 C 297.22 412.96 300.50 405.92 302.56 398.50 C 303.21 396.35 302.67 394.11 302.32 391.96 C 300.35 381.93 298.88 371.81 297.27 361.72 C 299.03 365.68 299.16 370.05 299.76 374.28 C 300.24 374.33 301.19 374.43 301.67 374.48 C 309.67 374.89 317.59 373.17 325.59 373.54 C 326.11 373.61 327.15 373.76 327.68 373.83 C 327.77 372.21 327.87 370.59 327.92 368.98 C 329.52 387.41 331.24 405.86 332.68 424.31 C 331.75 424.80 330.86 425.33 329.97 425.88 C 334.44 426.19 339.06 426.07 343.27 427.85 C 333.76 426.05 323.70 426.80 314.63 430.22 C 312.45 429.71 310.41 428.78 308.42 427.80 C 307.92 424.24 307.53 420.66 307.16 417.08 C 306.65 418.18 306.16 419.29 305.68 420.40 C 305.98 415.08 308.10 409.52 305.46 404.44 C 304.93 407.97 304.92 411.55 305.22 415.11 C 305.00 415.27 304.57 415.57 304.35 415.73 C 305.08 411.67 304.77 407.53 304.02 403.51 C 301.59 407.71 300.24 412.45 297.60 416.55 C 295.95 419.39 293.38 421.97 293.36 425.46 C 295.83 425.46 298.31 425.45 300.79 425.43 L 300.55 425.92 C 296.91 425.88 293.26 425.73 289.64 426.24 C 293.18 427.01 296.78 427.44 300.33 428.14 C 292.07 426.85 283.76 427.88 275.49 428.42 C 275.31 436.54 275.56 444.66 275.34 452.78 C 274.92 453.20 274.06 454.04 273.63 454.47 C 277.85 454.95 282.11 455.08 286.32 455.66 C 271.87 455.81 257.46 454.08 243.00 454.24 C 225.31 453.60 207.61 453.07 189.97 451.52 C 185.58 451.26 181.18 450.56 177.04 449.02 C 179.11 449.42 181.31 449.80 183.34 448.95 C 183.42 448.39 183.59 447.28 183.67 446.72 C 185.54 440.47 191.22 436.20 196.46 432.78 C 199.18 432.25 201.83 431.45 204.43 430.52 C 208.30 429.15 212.53 429.02 216.27 427.24 C 219.96 425.50 223.08 422.81 226.11 420.12 C 224.10 422.59 222.05 425.02 220.02 427.47 C 234.52 427.87 249.00 427.01 263.48 426.49 C 259.33 414.18 256.29 401.53 252.40 389.14 C 249.81 380.78 247.92 372.23 245.31 363.88 C 243.44 363.25 241.57 362.60 239.70 361.97 C 240.24 364.69 240.68 367.43 240.99 370.19 C 239.91 367.07 238.98 363.90 238.55 360.63 Z" fill="#012b4d" opacity="1.00" stroke="#012b4d" stroke-width="0.25"/>
<path d="M 67.80 362.39 C 67.92 362.48 68.16 362.65 68.27 362.73 C 68.49 364.93 68.50 367.14 68.48 369.36 C 67.43 371.64 70.52 374.58 71.45 371.30 C 72.76 368.32 73.79 365.19 75.52 362.42 C 75.71 362.37 76.09 362.29 76.28 362.25 C 77.87 365.62 78.92 369.22 80.37 372.66 C 81.22 372.48 82.07 372.30 82.93 372.13 C 84.19 368.18 85.80 364.35 87.95 360.81 C 89.61 363.98 91.18 367.21 92.79 370.41 C 93.62 370.40 94.44 370.40 95.26 370.41 C 95.86 368.84 96.47 367.27 97.03 365.70 C 96.98 366.22 96.88 367.27 96.83 367.80 C 97.28 367.44 98.17 366.73 98.62 366.37 C 99.98 367.84 100.93 370.06 102.93 370.72 C 106.24 370.52 106.14 366.38 107.20 364.03 C 108.91 365.59 110.53 367.29 112.47 368.61 C 114.93 369.56 117.56 368.58 118.72 366.20 C 124.14 372.88 128.38 380.44 133.94 387.01 C 137.91 391.68 141.70 396.58 146.49 400.46 C 148.09 401.85 149.87 403.09 151.18 404.80 C 152.06 408.39 152.38 412.16 154.21 415.48 C 155.05 419.06 156.09 422.61 157.48 426.03 C 155.65 433.00 148.66 436.41 143.02 439.93 C 133.23 446.17 121.17 446.04 109.99 445.63 C 102.67 445.64 95.82 442.55 89.40 439.35 C 82.26 435.54 76.63 429.62 70.55 424.40 C 67.18 421.65 65.10 417.55 61.23 415.38 C 57.72 404.66 59.64 393.16 60.68 382.19 C 60.88 382.80 61.07 383.41 61.27 384.02 C 61.53 376.32 65.48 369.55 67.80 362.39 Z" fill="#fd5b1a" opacity="1.00" stroke="#fd5b1a" stroke-width="0.25"/>
<path d="M 239.70 361.97 C 241.57 362.60 243.44 363.25 245.31 363.88 C 247.92 372.23 249.81 380.78 252.40 389.14 C 256.29 401.53 259.33 414.18 263.48 426.49 C 249.00 427.01 234.52 427.87 220.02 427.47 C 222.05 425.02 224.10 422.59 226.11 420.12 C 237.92 406.54 243.25 388.00 240.99 370.19 C 240.68 367.43 240.24 364.69 239.70 361.97 Z" fill="#dcdddf" opacity="1.00" stroke="#dcdddf" stroke-width="0.25"/>
<path d="M 156.17 381.04 C 156.19 375.03 158.01 369.24 160.11 363.68 C 160.43 369.79 159.46 375.88 159.77 382.00 C 159.82 388.76 161.30 395.40 162.83 401.96 C 164.38 408.51 168.55 414.04 172.89 419.03 C 176.30 423.14 181.60 424.64 186.34 426.62 C 191.68 428.86 197.52 429.58 203.27 429.38 C 200.88 430.25 198.63 431.45 196.46 432.78 C 191.22 436.20 185.54 440.47 183.67 446.72 C 179.27 446.88 174.81 445.54 171.59 442.46 C 162.46 433.78 157.58 421.36 156.25 409.01 C 156.04 399.69 156.09 390.36 156.17 381.04 Z" fill="#ba4220" opacity="1.00" stroke="#ba4220" stroke-width="0.25"/>
<path d="M 56.96 410.41 C 54.94 395.64 57.30 380.28 63.34 366.68 C 62.79 372.64 59.80 377.98 58.83 383.86 C 56.33 392.52 57.80 401.57 56.96 410.41 Z" fill="#012b4d" opacity="1.00" stroke="#012b4d" stroke-width="0.25"/>
<path d="M 102.13 368.38 C 102.62 368.43 103.60 368.51 104.09 368.56 C 103.84 368.84 103.34 369.39 103.09 369.67 C 102.85 369.35 102.37 368.70 102.13 368.38 Z" fill="#511a09" opacity="1.00" stroke="#511a09" stroke-width="0.25"/>
<path d="M 68.48 369.36 C 69.73 369.60 70.72 370.25 71.45 371.30 C 70.52 374.58 67.43 371.64 68.48 369.36 Z" fill="#5b200b" opacity="1.00" stroke="#5b200b" stroke-width="0.25"/>
<path d="M 297.60 416.55 C 300.24 412.45 301.59 407.71 304.02 403.51 C 304.77 407.53 305.08 411.67 304.35 415.73 C 303.56 419.09 302.16 422.27 300.79 425.43 C 298.31 425.45 295.83 425.46 293.36 425.46 C 293.38 421.97 295.95 419.39 297.60 416.55 Z" fill="#b24424" opacity="1.00" stroke="#b24424" stroke-width="0.25"/>
<path d="M 305.46 404.44 C 308.10 409.52 305.98 415.08 305.68 420.40 C 304.90 422.37 304.01 424.30 303.10 426.22 C 304.89 426.67 306.69 427.12 308.42 427.80 C 310.41 428.78 312.45 429.71 314.63 430.22 C 323.36 434.40 328.25 443.45 330.71 452.43 C 335.21 452.33 339.72 452.27 344.22 452.17 C 343.23 447.13 340.33 442.88 337.47 438.75 C 339.26 437.86 340.46 439.51 341.47 440.62 C 344.04 443.89 345.58 447.83 346.76 451.79 C 349.82 451.76 352.89 451.70 355.96 451.66 C 355.66 446.97 353.17 442.98 351.30 438.82 C 351.36 438.45 351.49 437.70 351.56 437.32 C 353.56 437.82 354.46 439.83 355.34 441.50 C 356.93 444.62 357.93 447.99 358.71 451.39 C 360.98 451.32 363.26 451.25 365.54 451.19 C 364.18 439.42 354.30 430.73 343.27 427.85 C 339.06 426.07 334.44 426.19 329.97 425.88 C 330.86 425.33 331.75 424.80 332.68 424.31 C 341.90 423.74 351.12 427.02 358.33 432.69 C 364.27 437.95 367.97 445.53 368.41 453.46 C 352.30 454.77 336.12 455.11 319.97 455.36 C 308.77 456.13 297.52 456.01 286.32 455.66 C 282.11 455.08 277.85 454.95 273.63 454.47 C 274.06 454.04 274.92 453.20 275.34 452.78 C 285.44 453.53 295.58 453.33 305.70 453.27 C 303.97 449.07 301.88 444.91 298.41 441.87 C 298.56 441.43 298.86 440.56 299.01 440.12 C 303.69 443.02 306.40 448.14 308.02 453.24 C 311.92 453.29 315.81 452.96 319.67 452.43 C 317.19 447.19 314.55 441.58 309.36 438.49 C 311.69 437.01 314.19 438.84 315.61 440.70 C 318.22 444.29 320.40 448.21 321.80 452.44 C 323.84 452.34 325.89 452.24 327.94 452.13 C 326.54 446.77 324.13 441.63 320.48 437.42 C 315.08 432.09 307.69 429.39 300.33 428.14 C 296.78 427.44 293.18 427.01 289.64 426.24 C 293.26 425.73 296.91 425.88 300.55 425.92 L 300.79 425.43 C 302.16 422.27 303.56 419.09 304.35 415.73 C 304.57 415.57 305.00 415.27 305.22 415.11 C 304.92 411.55 304.93 407.97 305.46 404.44 Z" fill="#07233d" opacity="1.00" stroke="#07233d" stroke-width="0.25"/>
<path d="M 61.23 415.38 C 65.10 417.55 67.18 421.65 70.55 424.40 C 76.63 429.62 82.26 435.54 89.40 439.35 C 95.82 442.55 102.67 445.64 109.99 445.63 C 121.17 446.04 133.23 446.17 143.02 439.93 C 148.66 436.41 155.65 433.00 157.48 426.03 C 158.87 430.16 161.08 433.92 163.32 437.63 C 164.19 439.03 162.17 439.72 161.29 440.32 C 149.86 446.32 137.75 451.46 124.94 453.54 C 113.85 454.12 102.19 454.83 91.81 450.08 C 78.71 445.12 67.71 434.76 62.50 421.69 C 61.91 419.62 61.57 417.49 61.23 415.38 Z" fill="#b84321" opacity="1.00" stroke="#b84321" stroke-width="0.25"/>
<path d="M 305.68 420.40 C 306.16 419.29 306.65 418.18 307.16 417.08 C 307.53 420.66 307.92 424.24 308.42 427.80 C 306.69 427.12 304.89 426.67 303.10 426.22 C 304.01 424.30 304.90 422.37 305.68 420.40 Z" fill="#f4ffff" opacity="1.00" stroke="#f4ffff" stroke-width="0.25"/>
<path d="M 314.63 430.22 C 323.70 426.80 333.76 426.05 343.27 427.85 C 354.30 430.73 364.18 439.42 365.54 451.19 C 363.26 451.25 360.98 451.32 358.71 451.39 C 357.93 447.99 356.93 444.62 355.34 441.50 C 354.46 439.83 353.56 437.82 351.56 437.32 C 351.49 437.70 351.36 438.45 351.30 438.82 C 353.17 442.98 355.66 446.97 355.96 451.66 C 352.89 451.70 349.82 451.76 346.76 451.79 C 345.58 447.83 344.04 443.89 341.47 440.62 C 340.46 439.51 339.26 437.86 337.47 438.75 C 340.33 442.88 343.23 447.13 344.22 452.17 C 339.72 452.27 335.21 452.33 330.71 452.43 C 328.25 443.45 323.36 434.40 314.63 430.22 Z" fill="#d9dcde" opacity="1.00" stroke="#d9dcde" stroke-width="0.25"/>
<path d="M 275.49 428.42 C 283.76 427.88 292.07 426.85 300.33 428.14 C 307.69 429.39 315.08 432.09 320.48 437.42 C 319.20 437.69 317.91 437.97 316.64 438.25 C 316.29 439.06 315.95 439.88 315.61 440.70 C 314.19 438.84 311.69 437.01 309.36 438.49 C 314.55 441.58 317.19 447.19 319.67 452.43 C 315.81 452.96 311.92 453.29 308.02 453.24 C 306.40 448.14 303.69 443.02 299.01 440.12 C 298.86 440.56 298.56 441.43 298.41 441.87 C 301.88 444.91 303.97 449.07 305.70 453.27 C 295.58 453.33 285.44 453.53 275.34 452.78 C 275.56 444.66 275.31 436.54 275.49 428.42 Z" fill="#feffff" opacity="1.00" stroke="#feffff" stroke-width="0.25"/>
<path d="M 316.64 438.25 C 317.91 437.97 319.20 437.69 320.48 437.42 C 324.13 441.63 326.54 446.77 327.94 452.13 C 325.89 452.24 323.84 452.34 321.80 452.44 C 320.40 448.21 318.22 444.29 315.61 440.70 C 315.95 439.88 316.29 439.06 316.64 438.25 Z" fill="#dbdde2" opacity="1.00" stroke="#dbdde2" stroke-width="0.25"/>
</svg>