<?xml version="1.0" encoding="utf-8"?>
<svg xmlns="http://www.w3.org/2000/svg" height="512pt" version="1.1" viewBox="0 0 512 512" width="512pt">
<path d="M 0.00 0.00 L 512.00 0.00 L 512.00 512.00 L 0.00 512.00 L 0.00 0.00 Z" fill="transparent" opacity="1.00" stroke="transparent" stroke-width="0.25"/>
<path d="M 139.34 97.87 C 139.60 92.57 144.85 88.48 150.01 88.72 C 212.00 88.75 274.00 88.73 336.00 88.73 C 341.50 88.51 346.68 93.48 346.46 99.01 C 346.53 105.55 346.48 112.08 346.46 118.62 C 354.55 116.50 362.66 114.49 370.74 112.32 C 370.75 194.20 370.74 276.08 370.72 357.96 C 370.61 364.43 370.93 370.91 370.47 377.36 C 362.53 375.07 354.56 372.77 346.52 370.89 C 345.97 376.38 348.09 382.74 344.32 387.44 C 343.22 389.25 341.27 390.17 339.35 390.86 C 338.30 398.64 337.66 406.48 337.25 414.32 C 335.66 414.31 334.06 414.28 332.48 414.27 C 333.10 406.58 333.79 398.89 334.52 391.21 C 328.15 391.14 321.79 391.06 315.43 391.30 C 316.15 398.99 316.54 406.72 317.47 414.40 C 315.83 414.42 314.21 414.44 312.58 414.46 L 312.52 414.45 C 311.90 406.67 311.50 398.87 310.59 391.12 C 265.35 391.27 220.11 390.94 174.87 391.28 C 174.71 399.00 173.44 406.64 173.29 414.35 C 171.68 414.36 170.06 414.35 168.46 414.36 C 169.09 406.63 169.47 398.88 170.39 391.18 C 164.06 391.14 157.73 391.14 151.40 391.17 C 152.19 398.90 152.64 406.66 153.51 414.38 C 151.89 414.42 150.27 414.46 148.64 414.50 L 148.55 414.50 C 148.17 406.62 147.48 398.75 146.53 390.93 C 142.03 389.47 138.67 384.86 139.25 380.06 C 139.19 289.72 139.25 199.37 139.22 109.03 C 139.25 105.31 139.12 101.58 139.34 97.87 Z" fill="#053356" opacity="1.00" stroke="#053356" stroke-width="0.25"/>
<path d="M 148.21 94.21 C 152.44 93.51 156.75 93.98 161.02 93.84 C 219.03 93.84 277.04 93.82 335.06 93.87 C 338.10 93.58 341.50 95.75 341.44 99.04 C 341.63 106.00 341.42 112.97 341.46 119.93 C 335.88 121.01 330.47 122.77 324.91 123.88 C 322.71 121.96 320.18 119.95 317.06 120.35 C 268.04 120.37 219.02 120.32 170.00 120.37 C 164.51 120.24 159.70 125.49 160.33 130.97 C 160.33 206.66 160.30 282.36 160.34 358.06 C 160.06 361.19 161.63 363.96 163.42 366.38 C 165.70 367.83 168.24 368.97 171.00 368.76 C 220.00 368.73 269.01 368.79 318.02 368.74 C 320.93 368.89 323.37 366.95 324.97 364.68 C 330.39 366.64 336.06 367.75 341.56 369.46 C 341.41 373.31 341.55 377.15 341.44 381.00 C 341.52 383.82 339.04 386.53 336.12 386.20 C 275.74 386.25 215.36 386.23 154.98 386.22 C 152.07 386.30 149.15 386.28 146.32 385.54 C 145.56 384.06 144.32 382.70 144.33 380.96 C 144.30 287.28 144.36 193.59 144.31 99.91 C 144.14 97.44 145.49 94.51 148.21 94.21 Z" fill="#ffffff" opacity="1.00" stroke="#ffffff" stroke-width="0.25"/>
<path d="M 221.37 100.33 C 223.68 97.52 227.71 97.83 230.83 98.81 C 232.65 101.08 235.00 103.73 234.03 106.89 C 233.60 109.79 231.28 111.80 228.89 113.21 C 225.16 113.91 221.14 111.85 219.74 108.28 C 218.95 105.60 219.03 102.24 221.37 100.33 Z" fill="#182835" opacity="1.00" stroke="#182835" stroke-width="0.25"/>
<path d="M 240.08 103.06 C 240.91 99.83 244.15 98.44 247.06 97.60 C 249.90 98.20 252.55 99.50 254.47 101.73 C 255.75 105.65 254.91 110.87 250.60 112.47 C 244.91 115.67 237.56 109.06 240.08 103.06 Z" fill="#182835" opacity="1.00" stroke="#182835" stroke-width="0.25"/>
<path d="M 264.03 98.63 C 265.37 98.33 266.71 98.01 268.05 97.65 C 270.31 98.22 272.66 98.95 274.07 100.96 C 278.03 105.46 273.88 113.34 268.05 113.26 C 263.64 113.40 259.68 109.37 260.16 104.94 C 260.08 102.22 262.29 100.38 264.03 98.63 Z" fill="#023457" opacity="1.00" stroke="#023457" stroke-width="0.25"/>
<path d="M 230.83 98.81 C 234.52 100.66 236.33 105.62 234.13 109.25 C 233.22 111.46 231.03 112.54 228.89 113.21 C 231.28 111.80 233.60 109.79 234.03 106.89 C 235.00 103.73 232.65 101.08 230.83 98.81 Z" fill="#9db5c3" opacity="1.00" stroke="#9db5c3" stroke-width="0.25"/>
<path d="M 222.02 103.10 C 223.36 100.13 227.30 99.55 229.91 101.08 C 231.68 102.04 231.73 104.26 232.33 105.94 C 231.93 107.02 231.55 108.11 231.18 109.20 C 229.22 110.52 226.87 110.61 224.59 110.71 C 222.71 108.72 220.38 105.96 222.02 103.10 Z" fill="#ea6a2f" opacity="1.00" stroke="#ea6a2f" stroke-width="0.25"/>
<path d="M 244.22 101.17 C 247.51 98.23 253.28 101.77 252.50 105.99 C 252.71 107.99 250.82 109.13 249.69 110.47 C 248.05 110.43 246.40 110.42 244.76 110.41 C 242.00 108.17 241.03 103.47 244.22 101.17 Z" fill="#7ac6d5" opacity="1.00" stroke="#7ac6d5" stroke-width="0.25"/>
<path d="M 245.91 100.52 C 248.17 99.69 249.95 101.70 251.76 102.66 C 251.45 104.98 252.66 108.13 250.24 109.62 C 248.03 109.62 244.89 110.72 243.44 108.50 C 241.22 105.90 242.94 101.68 245.91 100.52 Z" fill="#84c43f" opacity="1.00" stroke="#84c43f" stroke-width="0.25"/>
<path d="M 320.41 130.17 C 335.57 126.53 350.63 122.40 365.82 118.88 C 365.95 202.81 365.76 286.74 365.91 370.66 C 352.26 367.24 338.67 363.54 325.11 359.79 C 331.88 358.56 338.76 358.25 345.59 357.45 C 346.33 356.38 347.07 355.32 347.83 354.27 C 351.05 355.00 354.31 355.53 357.61 355.83 C 358.56 349.26 358.13 342.62 358.18 336.01 C 358.25 271.01 358.19 206.01 358.21 141.01 C 358.09 138.14 358.76 135.08 357.69 132.35 C 353.67 131.95 349.81 133.44 345.94 134.26 C 337.45 136.20 328.99 138.31 320.42 139.85 C 320.48 136.62 320.46 133.39 320.41 130.17 Z" fill="#d1f5ff" opacity="1.00" stroke="#d1f5ff" stroke-width="0.25"/>
<path d="M 168.41 125.47 C 218.99 125.39 269.58 125.24 320.16 125.54 C 318.62 126.24 317.09 126.96 315.60 127.75 C 315.66 139.91 315.63 152.07 315.61 164.24 C 311.15 163.66 306.62 163.49 302.17 164.24 C 301.98 172.40 302.73 180.55 303.81 188.63 C 307.77 188.58 311.71 188.18 315.64 187.72 C 315.62 199.65 315.66 211.59 315.62 223.52 C 311.21 223.54 306.61 222.75 302.41 224.48 C 303.53 232.29 303.58 240.20 304.31 248.05 C 308.05 248.52 311.84 248.60 315.61 248.50 C 315.63 274.80 315.62 301.10 315.63 327.40 C 311.61 327.55 307.51 327.69 303.62 328.81 C 301.17 329.66 301.31 332.87 301.40 335.00 C 302.58 342.10 303.44 349.24 304.57 356.34 C 308.08 356.94 311.60 357.51 315.14 357.92 C 315.28 359.35 315.43 360.79 315.59 362.23 C 317.13 362.59 318.67 362.95 320.20 363.35 C 318.48 363.62 316.76 363.87 315.02 363.87 C 266.12 363.72 217.22 364.00 168.33 363.72 C 166.82 362.16 164.96 360.51 165.40 358.10 C 165.43 281.48 165.40 204.87 165.42 128.26 C 166.41 127.33 167.41 126.40 168.41 125.47 Z" fill="#ffffff" opacity="1.00" stroke="#ffffff" stroke-width="0.25"/>
<path d="M 345.94 134.26 C 349.81 133.44 353.67 131.95 357.69 132.35 C 358.76 135.08 358.09 138.14 358.21 141.01 C 358.19 206.01 358.25 271.01 358.18 336.01 C 358.13 342.62 358.56 349.26 357.61 355.83 C 354.31 355.53 351.05 355.00 347.83 354.27 C 347.07 355.32 346.33 356.38 345.59 357.45 C 338.76 358.25 331.88 358.56 325.11 359.79 C 321.83 358.92 318.54 358.11 315.14 357.92 C 311.60 357.51 308.08 356.94 304.57 356.34 C 303.44 349.24 302.58 342.10 301.40 335.00 C 301.31 332.87 301.17 329.66 303.62 328.81 C 307.51 327.69 311.61 327.55 315.63 327.40 C 317.29 327.37 318.96 327.39 320.62 327.39 C 322.81 327.35 324.97 327.00 327.12 326.64 C 325.48 326.66 323.85 326.70 322.22 326.74 C 322.02 316.38 324.45 306.22 326.21 296.08 C 326.49 289.22 325.70 281.62 329.88 275.69 C 331.43 273.23 334.58 273.48 337.10 273.08 C 338.30 270.48 339.07 267.46 341.35 265.55 C 342.49 265.44 343.64 265.39 344.79 265.40 C 343.23 267.90 341.80 270.50 340.85 273.31 C 343.29 274.43 346.71 275.00 347.65 277.94 C 350.26 285.56 346.61 293.32 346.63 300.99 C 348.12 312.10 348.69 323.29 349.55 334.45 C 347.35 339.56 347.76 345.25 347.34 350.68 C 349.74 351.20 352.15 351.67 354.57 352.09 C 354.73 280.04 354.61 207.99 354.64 135.94 C 343.11 137.78 331.88 141.14 320.50 143.73 C 318.31 144.49 317.73 142.30 317.36 140.69 C 318.37 140.38 319.39 140.10 320.42 139.85 C 328.99 138.31 337.45 136.20 345.94 134.26 Z" fill="#68cce9" opacity="1.00" stroke="#68cce9" stroke-width="0.25"/>
<path d="M 320.50 143.73 C 331.88 141.14 343.11 137.78 354.64 135.94 C 354.61 207.99 354.73 280.04 354.57 352.09 C 352.15 351.67 349.74 351.20 347.34 350.68 C 347.76 345.25 347.35 339.56 349.55 334.45 C 348.69 323.29 348.12 312.10 346.63 300.99 C 346.61 293.32 350.26 285.56 347.65 277.94 C 346.71 275.00 343.29 274.43 340.85 273.31 C 341.80 270.50 343.23 267.90 344.79 265.40 C 343.64 265.39 342.49 265.44 341.35 265.55 C 339.07 267.46 338.30 270.48 337.10 273.08 C 334.58 273.48 331.43 273.23 329.88 275.69 C 325.70 281.62 326.49 289.22 326.21 296.08 C 324.45 306.22 322.02 316.38 322.22 326.74 C 323.85 326.70 325.48 326.66 327.12 326.64 C 324.97 327.00 322.81 327.35 320.62 327.39 C 320.62 301.12 320.39 274.86 320.63 248.60 C 326.81 249.14 332.90 247.32 339.08 248.11 C 340.94 248.58 341.39 246.30 341.41 244.98 C 342.64 232.14 344.25 219.34 345.66 206.52 C 342.11 203.30 337.01 203.01 332.49 203.69 C 329.16 206.77 329.12 211.88 326.38 215.38 C 324.47 217.70 322.26 219.78 320.55 222.26 C 320.52 210.65 320.60 199.04 320.48 187.44 C 330.97 187.50 340.99 183.56 351.43 183.19 C 351.44 182.36 351.45 181.53 351.47 180.70 C 350.06 180.41 348.65 180.12 347.26 179.82 C 347.43 173.71 348.03 167.47 346.45 161.48 C 340.59 161.01 334.70 161.48 328.90 162.33 C 328.30 161.48 327.71 160.63 327.12 159.79 C 325.31 161.77 323.62 164.28 320.67 164.48 C 320.45 157.56 320.58 150.64 320.50 143.73 Z" fill="#feffff" opacity="1.00" stroke="#feffff" stroke-width="0.25"/>
<path d="M 269.52 140.92 C 269.47 139.19 271.08 137.33 272.90 137.60 C 277.15 137.81 281.58 137.15 285.73 138.09 C 288.76 140.81 287.50 146.01 285.52 149.10 C 287.30 153.44 289.30 157.69 291.35 161.91 C 292.83 164.70 292.51 167.93 292.56 170.98 C 292.47 180.00 292.62 189.03 292.50 198.06 C 292.66 199.39 292.18 200.98 292.98 202.15 C 297.45 202.52 301.96 202.27 306.44 202.51 C 307.61 204.98 307.53 207.73 307.62 210.40 C 305.97 211.62 304.16 212.79 302.00 212.49 C 260.31 212.52 218.61 212.48 176.92 212.49 C 174.86 212.42 172.51 212.54 170.90 211.01 C 170.01 208.21 170.08 204.97 171.70 202.44 C 176.62 202.32 181.55 202.41 186.48 202.21 C 180.82 195.44 178.39 186.56 177.74 177.92 C 177.79 174.83 181.80 175.97 183.83 175.66 C 188.46 169.78 193.06 163.89 197.72 158.03 C 196.14 155.24 194.52 152.47 193.19 149.55 C 197.45 148.04 198.79 152.81 200.50 155.58 C 203.80 155.65 207.10 155.65 210.40 155.58 C 210.58 156.58 210.75 157.58 210.92 158.58 C 207.57 159.24 204.16 159.39 200.76 159.45 C 196.95 164.96 192.20 169.79 188.82 175.60 C 199.81 175.97 210.82 175.18 221.79 176.02 C 222.03 182.19 220.52 188.28 218.14 193.94 C 216.96 196.83 214.69 199.24 214.16 202.40 C 221.30 202.30 228.45 202.32 235.59 202.31 C 235.40 194.15 233.97 186.07 233.72 177.93 C 233.59 175.67 236.19 174.69 238.04 174.50 C 243.36 174.07 248.73 174.16 254.05 174.46 C 255.48 174.47 256.67 175.33 257.89 175.97 C 257.90 184.82 256.24 193.55 256.21 202.39 C 258.72 202.38 261.24 202.38 263.76 202.41 C 263.96 190.93 263.72 179.46 263.85 167.99 C 264.06 161.31 268.93 156.06 270.59 149.79 C 270.32 146.82 268.96 143.96 269.52 140.92 Z" fill="#6aceeb" opacity="1.00" stroke="#6aceeb" stroke-width="0.25"/>
<path d="M 272.90 143.59 C 271.91 142.52 272.32 140.37 274.04 140.65 C 277.24 140.37 280.46 140.56 283.67 140.53 C 283.71 141.61 283.74 142.69 283.78 143.78 C 280.15 143.76 276.51 143.95 272.90 143.59 Z" fill="#e4ffff" opacity="1.00" stroke="#e4ffff" stroke-width="0.25"/>
<path d="M 206.77 146.11 C 207.34 145.78 208.47 145.12 209.03 144.79 C 209.41 146.13 210.38 147.80 208.94 148.87 C 207.15 148.77 205.63 148.11 206.77 146.11 Z" fill="#b2d6e4" opacity="1.00" stroke="#b2d6e4" stroke-width="0.25"/>
<path d="M 201.86 147.75 C 205.16 146.75 204.09 150.25 204.30 152.24 C 201.83 152.26 201.21 149.72 201.86 147.75 Z" fill="#9dd3dd" opacity="1.00" stroke="#9dd3dd" stroke-width="0.25"/>
<path d="M 274.77 148.38 C 277.04 148.36 279.31 148.35 281.58 148.36 C 283.61 153.43 286.28 158.23 287.93 163.46 C 281.63 163.53 275.33 163.44 269.03 163.48 C 270.10 158.15 273.00 153.47 274.77 148.38 Z" fill="#fdffff" opacity="1.00" stroke="#fdffff" stroke-width="0.25"/>
<path d="M 331.67 160.56 C 330.82 157.22 329.30 151.50 333.55 150.06 C 333.71 152.21 333.74 154.38 333.67 156.54 C 335.48 156.42 337.28 156.30 339.09 156.21 C 339.07 160.22 334.59 160.21 331.67 160.56 Z" fill="#65ceeb" opacity="1.00" stroke="#65ceeb" stroke-width="0.25"/>
<path d="M 327.12 159.79 C 327.71 160.63 328.30 161.48 328.90 162.33 C 334.70 161.48 340.59 161.01 346.45 161.48 C 348.03 167.47 347.43 173.71 347.26 179.82 C 348.65 180.12 350.06 180.41 351.47 180.70 C 351.45 181.53 351.44 182.36 351.43 183.19 C 340.99 183.56 330.97 187.50 320.48 187.44 C 318.86 187.49 317.24 187.58 315.64 187.72 C 311.71 188.18 307.77 188.58 303.81 188.63 C 302.73 180.55 301.98 172.40 302.17 164.24 C 306.62 163.49 311.15 163.66 315.61 164.24 C 317.29 164.38 318.97 164.54 320.67 164.48 C 323.62 164.28 325.31 161.77 327.12 159.79 Z" fill="#6bceea" opacity="1.00" stroke="#6bceea" stroke-width="0.25"/>
<path d="M 335.75 164.83 C 338.65 164.04 341.67 163.98 344.65 164.20 C 344.49 169.58 345.76 175.46 343.50 180.49 C 343.14 180.63 342.43 180.91 342.08 181.05 C 341.29 181.01 339.73 180.93 338.94 180.89 C 340.12 180.37 341.30 179.85 342.49 179.33 C 342.38 174.67 342.42 170.01 342.61 165.35 C 340.32 165.15 338.04 164.94 335.75 164.83 Z" fill="#bff0ff" opacity="1.00" stroke="#bff0ff" stroke-width="0.25"/>
<path d="M 327.27 166.21 C 330.07 165.61 332.89 165.03 335.75 164.83 C 338.04 164.94 340.32 165.15 342.61 165.35 C 342.42 170.01 342.38 174.67 342.49 179.33 C 341.30 179.85 340.12 180.37 338.94 180.89 C 339.73 180.93 341.29 181.01 342.08 181.05 C 337.88 181.54 333.65 181.67 329.43 181.84 C 328.31 176.69 327.78 171.45 327.27 166.21 Z" fill="#feffff" opacity="1.00" stroke="#feffff" stroke-width="0.25"/>
<path d="M 267.43 166.47 C 274.58 166.56 281.73 166.48 288.87 166.41 C 289.88 177.76 288.87 189.19 289.37 200.56 C 282.06 200.85 274.72 201.15 267.41 200.62 C 267.42 189.24 267.42 177.85 267.43 166.47 Z" fill="#f9ffff" opacity="1.00" stroke="#f9ffff" stroke-width="0.25"/>
<path d="M 305.38 166.51 C 311.57 166.78 317.86 166.36 323.99 166.97 C 325.42 172.34 325.67 177.97 326.61 183.45 C 319.99 184.55 313.23 184.22 306.63 185.52 C 306.04 179.20 305.21 172.88 305.38 166.51 Z" fill="#d1f5ff" opacity="1.00" stroke="#d1f5ff" stroke-width="0.25"/>
<path d="M 275.45 170.69 C 279.20 169.01 284.02 171.68 283.37 176.04 C 283.18 180.19 278.16 182.05 274.92 179.94 C 272.06 177.54 272.09 172.63 275.45 170.69 Z" fill="#75c5dc" opacity="1.00" stroke="#75c5dc" stroke-width="0.25"/>
<path d="M 275.46 175.70 C 275.17 174.08 276.97 173.33 277.83 172.28 C 278.48 172.66 279.78 173.42 280.43 173.80 C 280.45 174.96 280.47 176.12 280.49 177.28 C 279.80 177.64 278.41 178.35 277.71 178.71 C 276.94 177.75 275.52 177.07 275.46 175.70 Z" fill="#eeffff" opacity="1.00" stroke="#eeffff" stroke-width="0.25"/>
<path d="M 237.86 177.93 C 243.34 177.22 248.90 177.93 254.42 177.58 C 254.66 182.39 253.33 187.11 253.60 191.92 C 249.13 194.89 243.36 193.06 238.46 192.30 C 238.38 187.52 236.93 182.64 237.86 177.93 Z" fill="#feffff" opacity="1.00" stroke="#feffff" stroke-width="0.25"/>
<path d="M 181.24 179.35 C 193.68 179.31 206.14 179.00 218.57 179.49 C 217.06 186.90 215.42 194.60 210.44 200.57 C 203.43 200.68 196.38 201.03 189.40 200.45 C 183.92 194.90 182.43 186.76 181.24 179.35 Z" fill="#ffffff" opacity="1.00" stroke="#ffffff" stroke-width="0.25"/>
<path d="M 270.12 184.34 C 275.29 184.48 280.53 183.85 285.66 184.63 C 286.04 185.02 286.79 185.81 287.17 186.20 C 281.90 188.31 276.07 186.84 270.56 187.34 C 270.41 186.34 270.26 185.34 270.12 184.34 Z" fill="#68cce1" opacity="1.00" stroke="#68cce1" stroke-width="0.25"/>
<path d="M 315.64 187.72 C 317.24 187.58 318.86 187.49 320.48 187.44 C 320.60 199.04 320.52 210.65 320.55 222.26 C 320.53 222.60 320.48 223.28 320.46 223.62 C 318.84 223.58 317.23 223.56 315.62 223.52 C 315.66 211.59 315.62 199.65 315.64 187.72 Z" fill="#073456" opacity="1.00" stroke="#073456" stroke-width="0.25"/>
<path d="M 270.22 191.94 C 275.66 191.38 281.15 191.47 286.61 191.73 C 286.60 193.28 285.88 194.80 284.11 194.40 C 279.62 194.49 275.12 194.39 270.63 194.39 C 270.53 193.78 270.32 192.55 270.22 191.94 Z" fill="#71cfe8" opacity="1.00" stroke="#71cfe8" stroke-width="0.25"/>
<path d="M 239.17 196.21 C 243.74 196.63 248.32 196.64 252.90 196.63 C 252.85 197.45 252.74 199.08 252.68 199.89 C 248.26 200.37 243.80 200.43 239.39 199.83 C 239.32 198.62 239.24 197.41 239.17 196.21 Z" fill="#b8f6ff" opacity="1.00" stroke="#b8f6ff" stroke-width="0.25"/>
<path d="M 332.49 203.69 C 337.01 203.01 342.11 203.30 345.66 206.52 C 344.25 219.34 342.64 232.14 341.41 244.98 C 341.39 246.30 340.94 248.58 339.08 248.11 C 332.90 247.32 326.81 249.14 320.63 248.60 C 318.96 248.53 317.28 248.50 315.61 248.50 C 311.84 248.60 308.05 248.52 304.31 248.05 C 303.58 240.20 303.53 232.29 302.41 224.48 C 306.61 222.75 311.21 223.54 315.62 223.52 C 317.23 223.56 318.84 223.58 320.46 223.62 C 320.48 223.28 320.53 222.60 320.55 222.26 C 322.26 219.78 324.47 217.70 326.38 215.38 C 329.12 211.88 329.16 206.77 332.49 203.69 Z" fill="#69cfeb" opacity="1.00" stroke="#69cfeb" stroke-width="0.25"/>
<path d="M 176.08 205.40 C 216.40 205.41 256.71 205.47 297.03 205.40 C 298.85 205.43 300.68 205.51 302.51 205.62 C 302.45 206.55 302.31 208.41 302.25 209.34 C 260.14 209.47 218.03 209.47 175.93 209.36 C 175.97 208.04 176.02 206.72 176.08 205.40 Z" fill="#f3ffff" opacity="1.00" stroke="#f3ffff" stroke-width="0.25"/>
<path d="M 330.19 215.56 C 331.81 212.66 332.27 209.01 334.61 206.58 C 337.01 206.63 339.38 207.13 341.75 207.56 C 341.78 210.46 341.77 213.39 341.34 216.27 C 339.91 225.71 339.59 235.33 337.59 244.68 C 335.49 244.39 333.39 244.11 331.29 243.82 C 331.36 238.88 330.47 233.98 330.61 229.05 C 330.59 226.56 330.91 224.03 330.33 221.59 C 329.65 221.47 328.29 221.23 327.61 221.11 C 327.53 221.82 327.36 223.24 327.28 223.95 C 326.19 223.44 324.77 223.30 324.23 222.08 C 326.29 219.98 329.03 218.39 330.19 215.56 Z" fill="#feffff" opacity="1.00" stroke="#feffff" stroke-width="0.25"/>
<path d="M 271.50 216.60 C 276.07 216.03 280.75 216.23 285.34 216.56 C 287.84 219.35 286.41 223.65 285.46 226.88 C 286.58 231.76 290.60 235.79 290.41 241.01 C 290.44 252.48 290.22 263.95 290.51 275.42 C 295.54 275.52 300.60 275.12 305.61 275.66 C 308.27 276.57 307.37 279.92 307.46 282.08 C 307.69 283.66 306.25 284.53 305.33 285.51 C 264.21 285.43 223.09 285.51 181.98 285.47 C 178.15 285.39 174.08 286.04 170.53 284.23 C 170.86 281.34 169.08 276.72 172.85 275.58 C 175.75 275.29 178.66 275.49 181.57 275.51 C 181.45 268.93 179.78 262.49 179.62 255.94 C 180.15 253.30 180.62 250.63 180.44 247.93 C 182.30 246.03 184.42 244.05 187.32 244.44 C 188.48 245.44 189.63 246.47 190.98 247.24 C 195.93 248.81 200.89 244.83 205.79 247.08 C 208.49 246.32 211.94 245.66 214.09 247.99 C 216.91 257.01 213.30 266.30 213.37 275.50 C 217.46 275.47 221.56 275.48 225.65 275.50 C 224.87 268.46 223.12 261.51 223.27 254.39 C 225.69 253.95 228.14 253.66 230.60 253.49 C 229.30 249.04 227.82 244.48 228.57 239.78 C 235.27 239.27 242.14 238.60 248.75 240.22 C 248.94 244.76 247.61 249.14 246.36 253.45 C 249.11 253.79 251.86 254.19 254.60 254.65 C 254.24 261.65 252.03 268.42 252.16 275.46 C 256.61 275.44 261.07 275.50 265.53 275.44 C 265.96 263.61 265.67 251.75 265.75 239.91 C 266.17 235.18 269.77 231.47 270.76 226.90 C 270.32 223.55 268.39 219.15 271.50 216.60 Z" fill="#69cfec" opacity="1.00" stroke="#69cfec" stroke-width="0.25"/>
<path d="M 273.27 219.46 C 276.69 219.39 280.11 219.39 283.53 219.49 C 283.51 220.49 283.50 221.49 283.50 222.49 C 280.07 222.58 276.64 222.59 273.21 222.53 C 273.23 221.50 273.25 220.48 273.27 219.46 Z" fill="#edffff" opacity="1.00" stroke="#edffff" stroke-width="0.25"/>
<path d="M 274.81 226.39 C 276.96 226.34 279.11 226.33 281.27 226.35 C 282.68 229.77 284.22 233.15 285.84 236.48 C 280.88 237.12 275.88 237.34 270.92 236.57 C 271.83 233.04 273.34 229.71 274.81 226.39 Z" fill="#fcffff" opacity="1.00" stroke="#fcffff" stroke-width="0.25"/>
<path d="M 305.95 226.33 C 311.51 226.54 317.09 226.24 322.63 226.70 C 323.80 226.71 324.23 228.07 324.35 229.02 C 325.10 234.61 326.86 240.07 326.74 245.76 C 320.34 245.68 313.94 245.60 307.54 245.55 C 306.43 239.21 306.19 232.75 305.95 226.33 Z" fill="#d0f5ff" opacity="1.00" stroke="#d0f5ff" stroke-width="0.25"/>
<path d="M 345.79 230.40 C 346.07 228.67 346.26 226.43 348.47 226.05 C 349.13 233.25 347.45 240.40 346.27 247.46 C 345.30 247.47 344.34 247.48 343.38 247.50 C 344.28 241.81 345.07 236.11 345.79 230.40 Z" fill="#6ec8df" opacity="1.00" stroke="#6ec8df" stroke-width="0.25"/>
<path d="M 269.31 240.16 C 275.32 240.26 281.36 239.90 287.35 240.52 C 287.06 251.54 287.51 262.59 287.12 273.61 C 281.25 274.69 275.23 274.14 269.31 274.04 C 269.36 262.75 269.26 251.45 269.31 240.16 Z" fill="#fbffff" opacity="1.00" stroke="#fbffff" stroke-width="0.25"/>
<path d="M 232.09 242.54 C 236.54 242.49 241.01 242.37 245.45 242.81 C 244.28 246.37 243.42 250.02 242.62 253.68 C 239.65 253.73 236.68 253.73 233.72 253.63 C 233.16 249.93 232.26 246.29 232.09 242.54 Z" fill="#fbffff" opacity="1.00" stroke="#fbffff" stroke-width="0.25"/>
<path d="M 273.38 246.51 C 275.51 244.79 278.35 243.62 281.01 244.90 C 284.02 247.29 284.16 252.45 280.63 254.41 C 278.17 255.07 274.97 254.93 273.56 252.45 C 273.09 250.51 273.37 248.48 273.38 246.51 Z" fill="#72c2df" opacity="1.00" stroke="#72c2df" stroke-width="0.25"/>
<path d="M 276.43 247.49 C 277.80 247.23 279.91 246.72 280.48 248.46 C 280.76 249.93 280.43 251.56 279.12 252.44 C 276.40 253.21 274.06 249.23 276.43 247.49 Z" fill="#f7ffff" opacity="1.00" stroke="#f7ffff" stroke-width="0.25"/>
<path d="M 183.63 252.15 C 183.89 250.77 183.92 248.17 185.90 248.33 C 188.15 249.53 190.31 251.23 193.01 251.14 C 196.70 251.48 200.21 248.71 203.85 250.02 C 206.31 250.83 208.91 250.33 211.44 250.56 C 211.47 251.28 211.53 252.72 211.56 253.44 C 204.03 253.39 196.49 253.20 188.96 253.35 C 187.14 253.23 184.94 253.79 183.63 252.15 Z" fill="#f4ffff" opacity="1.00" stroke="#f4ffff" stroke-width="0.25"/>
<path d="M 315.61 248.50 C 317.28 248.50 318.96 248.53 320.63 248.60 C 320.39 274.86 320.62 301.12 320.62 327.39 C 318.96 327.39 317.29 327.37 315.63 327.40 C 315.62 301.10 315.63 274.80 315.61 248.50 Z" fill="#073557" opacity="1.00" stroke="#073557" stroke-width="0.25"/>
<path d="M 183.31 256.53 C 192.79 256.64 202.28 256.72 211.76 256.51 C 211.18 262.48 210.79 268.52 209.47 274.39 C 201.20 273.79 192.83 274.98 184.62 273.81 C 184.68 268.01 183.30 262.32 183.31 256.53 Z" fill="#fcffff" opacity="1.00" stroke="#fcffff" stroke-width="0.25"/>
<path d="M 227.13 257.40 C 234.96 257.44 242.80 257.45 250.63 257.41 C 249.95 262.87 249.07 268.31 248.35 273.77 C 241.86 274.39 235.12 274.76 228.70 273.50 C 228.51 268.10 227.06 262.82 227.13 257.40 Z" fill="#feffff" opacity="1.00" stroke="#feffff" stroke-width="0.25"/>
<path d="M 272.70 258.96 C 276.34 258.46 280.04 258.77 283.70 259.03 C 283.73 259.66 283.79 260.91 283.82 261.54 C 279.94 261.46 276.05 261.74 272.17 261.49 C 271.20 260.31 271.37 259.47 272.70 258.96 Z" fill="#7fc1de" opacity="1.00" stroke="#7fc1de" stroke-width="0.25"/>
<path d="M 193.95 260.94 C 196.33 258.44 200.96 259.65 202.28 262.70 C 203.00 265.00 202.99 268.05 200.77 269.54 C 199.08 271.22 196.55 270.42 194.45 270.53 C 191.85 268.16 190.95 263.34 193.95 260.94 Z" fill="#6dc6dd" opacity="1.00" stroke="#6dc6dd" stroke-width="0.25"/>
<path d="M 194.13 264.93 C 195.31 263.92 196.29 262.01 198.16 262.44 C 200.35 263.09 199.54 265.64 199.79 267.32 C 199.04 267.64 197.54 268.29 196.80 268.61 C 195.90 267.38 195.01 266.15 194.13 264.93 Z" fill="#fbffff" opacity="1.00" stroke="#fbffff" stroke-width="0.25"/>
<path d="M 271.27 264.60 C 275.85 263.84 280.62 263.95 285.17 264.90 C 281.73 268.04 276.45 266.25 272.21 266.52 C 271.98 266.04 271.51 265.08 271.27 264.60 Z" fill="#72c6e3" opacity="1.00" stroke="#72c6e3" stroke-width="0.25"/>
<path d="M 329.40 295.66 C 329.19 289.07 329.04 282.11 332.85 276.38 C 336.72 276.19 340.57 276.74 344.29 277.79 C 346.75 284.18 344.53 291.01 343.32 297.43 C 338.74 296.35 334.00 296.57 329.40 295.66 Z" fill="#feffff" opacity="1.00" stroke="#feffff" stroke-width="0.25"/>
<path d="M 176.25 278.38 C 217.51 278.46 258.77 278.26 300.03 278.46 C 302.11 278.11 302.96 279.27 302.60 281.33 C 300.92 282.47 298.84 282.16 296.94 282.23 C 257.27 282.14 217.60 282.28 177.94 282.19 C 175.49 282.48 175.67 279.96 176.25 278.38 Z" fill="#f4ffff" opacity="1.00" stroke="#f4ffff" stroke-width="0.25"/>
<path d="M 265.59 295.85 C 269.12 294.00 273.18 294.36 277.03 294.30 C 282.53 294.30 288.04 294.21 293.53 294.53 C 293.54 295.30 293.56 296.85 293.58 297.63 C 289.98 298.01 286.03 297.10 282.62 298.20 C 282.25 301.25 282.48 304.33 282.55 307.40 C 283.38 307.38 285.05 307.36 285.89 307.34 C 288.18 312.07 289.86 317.08 292.46 321.66 C 294.19 324.90 296.54 327.96 296.89 331.74 C 296.22 331.71 294.86 331.65 294.19 331.62 C 292.55 328.87 290.93 326.11 289.38 323.32 C 286.75 323.43 284.04 323.43 281.61 324.56 C 281.76 327.12 280.90 329.47 278.92 331.16 C 276.35 328.64 278.64 325.11 278.52 322.05 C 278.69 314.18 279.45 306.35 279.37 298.47 C 276.05 297.41 272.56 297.66 269.19 298.33 C 269.72 313.22 269.42 328.12 269.41 343.01 C 269.50 347.19 267.58 351.53 269.64 355.49 C 278.11 354.41 286.66 354.77 295.17 354.76 C 296.89 354.28 296.42 356.54 296.84 357.47 C 292.11 359.32 286.96 358.29 282.03 358.51 C 276.85 358.24 271.45 359.31 266.45 357.52 C 264.71 347.74 266.73 337.79 266.15 327.94 C 265.61 320.96 266.61 313.97 266.01 307.00 C 265.71 303.29 265.69 299.57 265.59 295.85 Z" fill="#6ecfea" opacity="1.00" stroke="#6ecfea" stroke-width="0.25"/>
<path d="M 233.20 295.78 C 240.15 293.83 247.69 294.17 254.72 295.54 C 254.94 301.75 253.20 307.80 253.27 314.00 C 253.27 326.67 253.19 339.33 253.30 352.00 C 253.40 354.16 252.96 356.28 252.35 358.35 C 246.42 358.20 240.17 359.51 234.46 357.48 C 234.36 342.34 234.45 327.19 234.38 312.05 C 234.09 306.61 233.07 301.24 233.20 295.78 Z" fill="#6acce8" opacity="1.00" stroke="#6acce8" stroke-width="0.25"/>
<path d="M 236.39 298.46 C 241.44 298.17 246.51 298.00 251.56 298.51 C 250.87 302.14 250.59 305.85 249.58 309.41 C 245.57 309.33 241.54 309.31 237.60 308.53 C 237.38 305.15 236.91 301.80 236.39 298.46 Z" fill="#feffff" opacity="1.00" stroke="#feffff" stroke-width="0.25"/>
<path d="M 328.54 299.39 C 333.54 299.23 338.45 300.22 343.41 300.67 C 344.25 309.36 345.54 318.03 345.67 326.78 C 338.78 326.34 331.99 325.04 325.20 323.88 C 325.88 315.66 327.62 307.58 328.54 299.39 Z" fill="#feffff" opacity="1.00" stroke="#feffff" stroke-width="0.25"/>
<path d="M 331.57 305.51 C 332.57 305.42 333.57 305.33 334.57 305.25 C 334.55 306.39 334.54 307.53 334.52 308.68 C 333.51 308.64 332.50 308.61 331.49 308.58 C 331.52 307.55 331.54 306.53 331.57 305.51 Z" fill="#77c1da" opacity="1.00" stroke="#77c1da" stroke-width="0.25"/>
<path d="M 270.68 307.35 C 273.46 307.20 273.46 309.91 273.65 311.85 C 272.48 311.75 271.33 311.65 270.17 311.55 C 270.30 310.50 270.55 308.40 270.68 307.35 Z" fill="#74cadd" opacity="1.00" stroke="#74cadd" stroke-width="0.25"/>
<path d="M 180.87 315.00 C 184.14 312.37 188.51 311.13 192.66 311.41 C 194.67 313.40 195.64 316.19 197.10 318.58 C 200.46 318.38 203.88 319.01 206.30 321.53 C 208.68 321.36 211.06 321.31 213.45 321.37 C 216.18 324.50 216.92 328.63 217.55 332.60 C 220.30 332.90 223.05 333.21 225.81 333.48 C 225.81 341.84 224.37 350.12 223.29 358.40 C 207.43 358.61 191.56 358.49 175.70 358.49 C 174.41 354.79 174.25 350.85 173.79 347.00 C 173.32 342.55 172.36 338.15 172.39 333.67 C 174.97 333.06 177.60 332.65 180.24 332.38 C 180.00 327.93 182.60 324.10 185.92 321.39 C 187.25 321.41 188.58 321.43 189.91 321.45 C 190.91 320.59 191.91 319.73 192.92 318.87 C 192.52 317.61 192.13 316.34 191.74 315.08 C 188.10 314.78 183.89 317.94 180.87 315.00 Z" fill="#6acdea" opacity="1.00" stroke="#6acdea" stroke-width="0.25"/>
<path d="M 282.45 312.05 C 282.94 312.11 283.90 312.24 284.39 312.30 C 285.59 314.83 286.68 317.42 287.62 320.07 C 285.89 320.28 284.16 320.49 282.44 320.70 C 282.31 317.81 282.33 314.93 282.45 312.05 Z" fill="#f4ffff" opacity="1.00" stroke="#f4ffff" stroke-width="0.25"/>
<path d="M 237.86 313.90 C 241.42 312.48 245.86 313.61 249.76 313.35 C 249.60 327.11 250.09 340.91 249.48 354.65 C 246.02 355.97 241.34 355.51 237.61 354.51 C 237.98 340.98 237.49 327.43 237.86 313.90 Z" fill="#fbffff" opacity="1.00" stroke="#fbffff" stroke-width="0.25"/>
<path d="M 269.93 317.97 C 271.68 315.73 274.35 316.49 276.53 317.49 C 276.64 318.11 276.86 319.33 276.97 319.95 C 274.50 319.77 271.79 319.94 269.93 317.97 Z" fill="#71c8e6" opacity="1.00" stroke="#71c8e6" stroke-width="0.25"/>
<path d="M 242.34 320.18 C 242.88 320.25 243.97 320.40 244.51 320.47 C 244.55 321.49 244.60 322.51 244.64 323.53 C 244.08 323.53 242.96 323.54 242.40 323.55 C 242.38 322.42 242.36 321.30 242.34 320.18 Z" fill="#7ac2d2" opacity="1.00" stroke="#7ac2d2" stroke-width="0.25"/>
<path d="M 192.77 322.28 C 196.07 322.60 199.39 322.54 202.71 322.38 C 203.66 323.47 204.61 324.56 205.56 325.67 C 207.57 325.49 209.54 325.01 211.44 324.34 C 213.23 326.79 213.84 329.74 213.89 332.73 C 203.67 333.14 193.47 332.77 183.25 332.68 C 183.54 329.81 184.76 327.18 186.80 325.12 C 188.32 326.04 189.99 326.65 191.75 326.96 C 192.09 325.39 192.43 323.83 192.77 322.28 Z" fill="#feffff" opacity="1.00" stroke="#feffff" stroke-width="0.25"/>
<path d="M 271.40 330.65 C 271.38 328.59 271.07 326.24 273.04 324.87 C 274.42 326.47 274.62 328.54 274.69 330.55 C 273.59 330.59 272.49 330.62 271.40 330.65 Z" fill="#79d1e9" opacity="1.00" stroke="#79d1e9" stroke-width="0.25"/>
<path d="M 241.69 329.48 C 242.61 329.53 243.53 329.58 244.46 329.63 C 244.47 330.91 244.47 332.20 244.47 333.49 C 243.49 333.48 242.51 333.48 241.53 333.48 C 241.58 332.15 241.63 330.81 241.69 329.48 Z" fill="#75c5dc" opacity="1.00" stroke="#75c5dc" stroke-width="0.25"/>
<path d="M 325.89 329.52 C 332.49 329.44 339.08 330.10 345.67 330.44 C 345.62 330.92 345.52 331.88 345.46 332.36 C 336.90 332.41 328.31 332.91 319.76 332.21 C 315.33 331.68 310.86 331.77 306.42 331.40 C 312.58 329.69 318.86 331.26 325.07 331.68 C 325.28 331.14 325.69 330.06 325.89 329.52 Z" fill="#ebffff" opacity="1.00" stroke="#ebffff" stroke-width="0.25"/>
<path d="M 305.23 335.39 C 309.67 335.52 314.51 334.79 318.68 336.17 C 320.23 342.58 321.18 349.15 322.17 355.68 C 317.27 355.56 312.45 354.47 307.55 354.47 C 306.31 348.17 306.04 341.74 305.23 335.39 Z" fill="#d3f5ff" opacity="1.00" stroke="#d3f5ff" stroke-width="0.25"/>
<path d="M 322.27 335.56 C 330.03 335.59 337.78 335.47 345.54 335.58 C 344.54 341.83 344.54 348.19 343.57 354.45 C 337.62 355.13 331.66 355.89 325.65 355.71 C 324.52 348.99 322.63 342.38 322.27 335.56 Z" fill="#ffffff" opacity="1.00" stroke="#ffffff" stroke-width="0.25"/>
<path d="M 176.07 336.24 C 191.62 336.24 207.18 336.06 222.74 336.34 C 221.80 342.69 221.33 349.10 220.34 355.45 C 206.54 355.06 192.73 355.57 178.94 355.16 C 178.69 354.88 178.17 354.33 177.92 354.06 C 177.27 348.12 176.06 342.23 176.07 336.24 Z" fill="#fcffff" opacity="1.00" stroke="#fcffff" stroke-width="0.25"/>
<path d="M 271.63 337.88 C 272.56 337.57 273.51 337.39 274.51 337.34 C 274.52 338.72 274.53 340.10 274.54 341.49 C 274.02 341.50 272.99 341.52 272.48 341.53 C 272.03 340.34 271.75 339.13 271.63 337.88 Z" fill="#75c5dc" opacity="1.00" stroke="#75c5dc" stroke-width="0.25"/>
<path d="M 275.34 347.76 C 275.45 343.83 275.93 339.92 276.64 336.06 C 278.79 336.23 280.05 337.91 279.26 339.95 C 278.88 342.44 278.46 344.93 278.30 347.44 C 277.31 347.55 276.33 347.65 275.34 347.76 Z" fill="#70c7e0" opacity="1.00" stroke="#70c7e0" stroke-width="0.25"/>
<path d="M 207.37 338.25 C 208.37 338.37 209.37 338.50 210.37 338.64 C 210.54 340.50 210.72 342.36 210.89 344.23 C 207.32 345.09 207.66 340.53 207.37 338.25 Z" fill="#7ac6e1" opacity="1.00" stroke="#7ac6e1" stroke-width="0.25"/>
<path d="M 288.97 337.74 C 291.58 337.33 291.75 340.24 292.00 342.03 C 289.62 342.06 286.72 340.15 288.97 337.74 Z" fill="#c0e4ee" opacity="1.00" stroke="#c0e4ee" stroke-width="0.25"/>
<path d="M 242.47 343.38 C 242.44 341.13 242.33 338.23 245.45 338.20 C 245.47 339.87 245.47 341.55 245.45 343.23 C 244.45 343.27 243.46 343.32 242.47 343.38 Z" fill="#7ac6d5" opacity="1.00" stroke="#7ac6d5" stroke-width="0.25"/>
<path d="M 214.87 342.94 C 215.74 342.55 216.63 342.21 217.54 341.92 C 217.67 345.51 217.63 349.10 217.56 352.69 C 216.84 352.76 215.41 352.89 214.69 352.95 C 214.51 349.62 214.28 346.25 214.87 342.94 Z" fill="#6dc9e0" opacity="1.00" stroke="#6dc9e0" stroke-width="0.25"/>
<path d="M 184.23 343.23 C 184.92 343.24 186.30 343.24 187.00 343.24 C 186.14 346.56 184.46 349.57 183.22 352.75 C 182.21 352.34 181.21 351.92 180.21 351.51 C 181.56 348.75 182.90 345.99 184.23 343.23 Z" fill="#74cadd" opacity="1.00" stroke="#74cadd" stroke-width="0.25"/>
<path d="M 286.16 346.34 C 290.54 344.48 295.53 345.95 299.99 344.06 C 300.10 344.94 300.32 346.70 300.43 347.58 C 298.63 347.24 296.83 346.90 295.03 346.58 C 291.18 348.83 286.60 347.04 282.41 347.52 C 282.39 346.91 282.36 345.68 282.34 345.07 C 283.61 345.49 284.88 345.92 286.16 346.34 Z" fill="#77c1da" opacity="1.00" stroke="#77c1da" stroke-width="0.25"/>
<path d="M 202.24 352.81 C 202.32 349.76 202.02 346.44 204.10 343.91 C 206.80 346.24 204.65 349.81 204.30 352.67 C 203.79 352.70 202.76 352.77 202.24 352.81 Z" fill="#7ac2d2" opacity="1.00" stroke="#7ac2d2" stroke-width="0.25"/>
<path d="M 186.75 351.82 C 187.71 350.57 188.82 349.46 190.09 348.53 C 190.76 350.07 191.55 353.14 189.11 353.49 C 188.52 353.08 187.34 352.24 186.75 351.82 Z" fill="#95d0dd" opacity="1.00" stroke="#95d0dd" stroke-width="0.25"/>
<path d="M 242.16 353.57 C 242.06 351.12 242.39 348.31 245.53 348.22 C 245.49 350.16 245.43 352.10 245.35 354.05 C 244.55 353.93 242.96 353.69 242.16 353.57 Z" fill="#a2d9e2" opacity="1.00" stroke="#a2d9e2" stroke-width="0.25"/>
<path d="M 299.17 355.91 C 300.68 354.73 302.11 357.43 300.74 358.41 C 299.23 359.56 297.80 356.87 299.17 355.91 Z" fill="#9bc9d1" opacity="1.00" stroke="#9bc9d1" stroke-width="0.25"/>
<path d="M 151.40 391.17 C 157.73 391.14 164.06 391.14 170.39 391.18 C 169.47 398.88 169.09 406.63 168.46 414.36 C 168.42 414.77 168.34 415.57 168.30 415.97 C 161.77 415.53 154.86 416.94 148.64 414.50 C 150.27 414.46 151.89 414.42 153.51 414.38 C 152.64 406.66 152.19 398.90 151.40 391.17 Z" fill="#5dd5f8" opacity="1.00" stroke="#5dd5f8" stroke-width="0.25"/>
<path d="M 174.87 391.28 C 220.11 390.94 265.35 391.27 310.59 391.12 C 311.50 398.87 311.90 406.67 312.52 414.45 C 266.12 414.10 219.70 414.31 173.29 414.35 C 173.44 406.64 174.71 399.00 174.87 391.28 Z" fill="#ffffff" opacity="1.00" stroke="#ffffff" stroke-width="0.25"/>
<path d="M 315.43 391.30 C 321.79 391.06 328.15 391.14 334.52 391.21 C 333.79 398.89 333.10 406.58 332.48 414.27 C 332.43 414.67 332.34 415.46 332.30 415.86 C 325.75 415.93 318.83 416.91 312.58 414.46 C 314.21 414.44 315.83 414.42 317.47 414.40 C 316.54 406.72 316.15 398.99 315.43 391.30 Z" fill="#5fd5f9" opacity="1.00" stroke="#5fd5f9" stroke-width="0.25"/>
<path d="M 100.27 415.98 C 101.24 413.65 103.98 414.48 105.95 414.26 C 120.15 414.47 134.36 414.02 148.55 414.50 L 148.64 414.50 C 154.86 416.94 161.77 415.53 168.30 415.97 C 168.34 415.57 168.42 414.77 168.46 414.36 C 170.06 414.35 171.68 414.36 173.29 414.35 C 219.70 414.31 266.12 414.10 312.52 414.45 L 312.58 414.46 C 318.83 416.91 325.75 415.93 332.30 415.86 C 332.34 415.46 332.43 414.67 332.48 414.27 C 334.06 414.28 335.66 414.31 337.25 414.32 C 361.98 414.38 386.73 414.03 411.46 414.50 C 411.45 415.49 411.44 416.47 411.44 417.47 C 355.97 417.91 300.47 417.55 244.99 417.66 C 209.32 417.68 173.66 417.66 137.99 417.66 C 125.86 417.48 113.68 418.01 101.57 417.41 C 101.24 417.05 100.59 416.34 100.27 415.98 Z" fill="#63cae9" opacity="1.00" stroke="#63cae9" stroke-width="0.25"/>
</svg>