<?xml version="1.0" encoding="utf-8"?>
<svg xmlns="http://www.w3.org/2000/svg" height="512pt" version="1.1" viewBox="0 0 512 512" width="512pt">
<path d="M 0.00 0.00 L 512.00 0.00 L 512.00 512.00 L 0.00 512.00 L 0.00 0.00 Z" fill="transparent" opacity="1.00" stroke="transparent" stroke-width="0.25"/>
<path d="M 221.09 126.56 C 229.63 120.60 238.67 115.34 247.08 109.20 C 263.96 116.14 280.91 123.02 297.48 130.68 C 297.56 145.47 297.38 160.27 297.57 175.06 C 298.21 174.87 299.48 174.48 300.12 174.29 C 305.02 171.88 310.04 169.75 314.99 167.44 C 315.78 167.95 316.57 168.46 317.37 168.98 C 316.80 169.09 315.65 169.32 315.08 169.43 C 309.34 171.71 303.89 174.65 298.25 177.16 C 297.31 176.86 296.37 176.55 295.44 176.24 C 295.47 161.71 295.46 147.17 295.77 132.64 C 295.39 132.11 294.99 131.61 294.57 131.12 C 278.90 124.33 263.14 117.79 247.44 111.10 C 239.26 116.53 231.16 122.11 222.75 127.20 C 221.74 127.43 220.72 127.64 219.70 127.84 C 215.55 125.89 211.44 123.85 207.24 122.01 C 198.46 126.95 189.28 131.25 180.89 136.83 C 192.50 142.31 204.13 147.77 215.72 153.30 C 218.25 154.47 220.66 156.10 223.49 156.48 L 223.51 158.03 C 223.51 173.28 223.59 188.54 223.51 203.79 C 223.03 204.99 222.48 206.15 221.97 207.33 C 220.50 208.05 219.03 208.78 217.56 209.51 C 217.03 209.14 215.98 208.41 215.45 208.04 C 217.39 207.02 219.33 206.03 221.30 205.06 C 221.22 189.58 221.19 174.11 221.31 158.63 C 214.87 154.94 208.05 151.97 201.33 148.86 C 201.41 152.41 201.50 155.97 201.33 159.53 C 194.66 157.22 188.66 153.36 182.30 150.34 C 181.97 146.80 182.04 143.21 181.43 139.70 L 179.71 139.23 C 179.64 161.23 179.71 183.23 179.69 205.24 C 179.19 205.15 178.20 204.99 177.70 204.91 C 177.59 201.67 177.66 198.44 177.59 195.20 C 177.57 194.44 177.55 192.91 177.54 192.15 C 177.50 185.13 177.58 178.11 177.54 171.10 C 177.61 159.39 177.48 147.68 177.59 135.97 C 187.61 130.87 197.39 125.30 207.26 119.89 C 211.89 122.06 216.59 124.12 221.09 126.56 Z" fill="#00172f" opacity="1.00" stroke="#00172f" stroke-width="0.25"/>
<path d="M 247.44 111.10 C 263.14 117.79 278.90 124.33 294.57 131.12 C 282.14 135.80 270.01 141.37 257.36 145.42 C 255.27 144.19 253.12 143.06 250.94 142.00 C 250.72 141.52 250.29 140.55 250.07 140.06 C 240.82 136.10 231.84 131.51 222.75 127.20 C 231.16 122.11 239.26 116.53 247.44 111.10 Z" fill="#b7effe" opacity="1.00" stroke="#b7effe" stroke-width="0.25"/>
<path d="M 180.89 136.83 C 189.28 131.25 198.46 126.95 207.24 122.01 C 211.44 123.85 215.55 125.89 219.70 127.84 C 229.44 132.60 239.35 137.02 248.99 141.97 C 240.66 147.11 231.94 151.55 223.49 156.48 C 220.66 156.10 218.25 154.47 215.72 153.30 C 204.13 147.77 192.50 142.31 180.89 136.83 Z" fill="#ffffff" opacity="1.00" stroke="#ffffff" stroke-width="0.25"/>
<path d="M 219.70 127.84 C 220.72 127.64 221.74 127.43 222.75 127.20 C 231.84 131.51 240.82 136.10 250.07 140.06 C 250.29 140.55 250.72 141.52 250.94 142.00 C 253.12 143.06 255.27 144.19 257.36 145.42 C 256.75 146.19 256.14 146.97 255.55 147.75 C 253.86 146.99 252.19 146.19 250.54 145.38 C 250.27 160.59 250.01 175.81 250.26 191.02 C 252.13 191.87 253.98 192.78 255.87 193.59 C 257.00 193.31 258.10 192.93 259.19 192.52 C 265.89 189.34 272.58 186.15 279.31 183.02 C 282.37 184.50 285.52 185.77 288.71 186.96 C 289.10 184.26 289.47 181.55 289.81 178.84 C 291.68 177.97 293.55 177.10 295.44 176.24 C 296.37 176.55 297.31 176.86 298.25 177.16 C 296.22 178.09 294.15 178.95 292.09 179.83 C 299.90 184.71 307.74 189.52 315.51 194.45 C 318.93 196.60 322.13 199.21 325.90 200.74 C 333.84 197.71 341.23 193.34 348.84 189.57 C 337.73 182.63 326.09 176.55 315.08 169.43 C 315.65 169.32 316.80 169.09 317.37 168.98 C 328.88 175.68 340.37 182.45 351.97 189.01 C 351.68 192.59 350.81 196.09 350.13 199.61 C 349.72 201.84 349.41 204.08 349.08 206.33 C 350.83 207.60 352.58 208.88 354.34 210.15 C 354.74 212.05 355.18 213.95 355.22 215.91 C 355.13 242.79 355.14 269.67 355.19 296.55 C 355.13 307.06 355.14 317.57 355.16 328.09 C 355.22 330.20 354.81 332.69 352.77 333.80 C 338.08 341.69 323.61 350.02 309.03 358.14 C 283.15 372.41 257.39 386.91 231.57 401.30 C 229.09 402.97 225.84 402.27 223.57 400.59 C 192.34 379.71 160.92 359.12 129.56 338.43 C 126.44 336.35 123.01 334.65 120.41 331.88 C 120.53 317.37 120.47 302.86 120.43 288.35 C 120.54 266.30 120.33 244.26 120.51 222.22 C 120.52 221.92 120.54 221.33 120.54 221.03 L 120.68 220.95 C 139.60 211.27 158.54 201.65 177.54 192.15 C 177.55 192.91 177.57 194.44 177.59 195.20 C 171.81 198.84 165.40 201.29 159.40 204.54 C 160.05 209.85 160.47 215.19 161.33 220.48 C 169.70 217.51 177.82 213.89 186.18 210.91 C 183.46 209.19 180.60 207.71 177.84 206.06 L 177.70 204.91 C 178.20 204.99 179.19 205.15 179.69 205.24 C 188.37 209.85 197.04 214.54 205.42 219.69 C 205.48 217.41 205.52 215.14 205.59 212.87 C 208.92 211.36 212.19 209.71 215.45 208.04 C 215.98 208.41 217.03 209.14 217.56 209.51 C 215.18 210.79 212.73 211.93 210.23 212.96 C 210.40 213.22 210.74 213.75 210.90 214.02 C 226.37 220.85 241.34 228.81 256.84 235.59 C 263.45 231.42 270.71 228.46 277.46 224.56 C 281.08 222.47 284.82 220.62 288.63 218.91 C 273.66 212.48 258.74 205.94 243.89 199.25 C 242.28 198.55 240.44 197.70 238.78 198.76 C 233.16 201.58 227.60 204.53 221.97 207.33 C 222.48 206.15 223.03 204.99 223.51 203.79 C 229.20 200.98 234.86 198.10 240.46 195.11 C 243.11 196.09 245.73 197.15 248.38 198.13 C 248.44 180.82 248.77 163.50 248.68 146.19 C 240.18 149.91 232.05 154.42 223.51 158.03 L 223.49 156.48 C 231.94 151.55 240.66 147.11 248.99 141.97 C 239.35 137.02 229.44 132.60 219.70 127.84 Z" fill="#00233d" opacity="1.00" stroke="#00233d" stroke-width="0.25"/>
<path d="M 294.57 131.12 C 294.99 131.61 295.39 132.11 295.77 132.64 C 283.65 137.53 271.50 142.39 259.32 147.14 C 259.00 162.26 259.25 177.39 259.19 192.52 C 258.10 192.93 257.00 193.31 255.87 193.59 C 255.61 178.32 256.04 163.02 255.55 147.75 C 256.14 146.97 256.75 146.19 257.36 145.42 C 270.01 141.37 282.14 135.80 294.57 131.12 Z" fill="#04304b" opacity="1.00" stroke="#04304b" stroke-width="0.25"/>
<path d="M 259.32 147.14 C 271.50 142.39 283.65 137.53 295.77 132.64 C 295.46 147.17 295.47 161.71 295.44 176.24 C 293.55 177.10 291.68 177.97 289.81 178.84 C 289.47 181.55 289.10 184.26 288.71 186.96 C 285.52 185.77 282.37 184.50 279.31 183.02 C 272.58 186.15 265.89 189.34 259.19 192.52 C 259.25 177.39 259.00 162.26 259.32 147.14 Z" fill="#b7effe" opacity="1.00" stroke="#b7effe" stroke-width="0.25"/>
<path d="M 179.71 139.23 L 181.43 139.70 C 182.04 143.21 181.97 146.80 182.30 150.34 C 188.66 153.36 194.66 157.22 201.33 159.53 C 201.50 155.97 201.41 152.41 201.33 148.86 C 208.05 151.97 214.87 154.94 221.31 158.63 C 221.19 174.11 221.22 189.58 221.30 205.06 C 219.33 206.03 217.39 207.02 215.45 208.04 C 212.19 209.71 208.92 211.36 205.59 212.87 C 205.52 215.14 205.48 217.41 205.42 219.69 C 197.04 214.54 188.37 209.85 179.69 205.24 C 179.71 183.23 179.64 161.23 179.71 139.23 Z" fill="#fefffe" opacity="1.00" stroke="#fefffe" stroke-width="0.25"/>
<path d="M 183.35 140.08 C 188.75 142.82 194.29 145.27 199.72 147.94 C 199.78 151.14 199.89 154.35 200.09 157.55 C 195.45 155.00 190.63 152.81 185.88 150.49 C 181.68 148.98 183.87 143.45 183.35 140.08 Z" fill="#79defc" opacity="1.00" stroke="#79defc" stroke-width="0.25"/>
<path d="M 223.51 158.03 C 232.05 154.42 240.18 149.91 248.68 146.19 C 248.77 163.50 248.44 180.82 248.38 198.13 C 245.73 197.15 243.11 196.09 240.46 195.11 C 234.86 198.10 229.20 200.98 223.51 203.79 C 223.59 188.54 223.51 173.28 223.51 158.03 Z" fill="#b7effe" opacity="1.00" stroke="#b7effe" stroke-width="0.25"/>
<path d="M 250.54 145.38 C 252.19 146.19 253.86 146.99 255.55 147.75 C 256.04 163.02 255.61 178.32 255.87 193.59 C 253.98 192.78 252.13 191.87 250.26 191.02 C 250.01 175.81 250.27 160.59 250.54 145.38 Z" fill="#b5f0fe" opacity="1.00" stroke="#b5f0fe" stroke-width="0.25"/>
<path d="M 183.76 156.09 C 187.79 156.60 191.25 158.87 194.92 160.44 C 196.51 161.30 198.63 161.96 198.99 164.00 C 194.03 161.15 188.28 159.59 183.76 156.09 Z" fill="#a8bfc6" opacity="1.00" stroke="#a8bfc6" stroke-width="0.25"/>
<path d="M 183.47 160.97 C 187.02 162.21 190.66 163.33 193.99 165.11 C 194.28 165.61 194.86 166.62 195.15 167.12 C 191.36 166.07 187.63 164.66 184.21 162.71 C 184.03 162.27 183.66 161.40 183.47 160.97 Z" fill="#cdd6d8" opacity="1.00" stroke="#cdd6d8" stroke-width="0.25"/>
<path d="M 298.25 177.16 C 303.89 174.65 309.34 171.71 315.08 169.43 C 326.09 176.55 337.73 182.63 348.84 189.57 C 341.23 193.34 333.84 197.71 325.90 200.74 C 322.13 199.21 318.93 196.60 315.51 194.45 C 307.74 189.52 299.90 184.71 292.09 179.83 C 294.15 178.95 296.22 178.09 298.25 177.16 Z" fill="#b6eefe" opacity="1.00" stroke="#b6eefe" stroke-width="0.25"/>
<path d="M 143.04 189.11 C 153.25 181.04 164.52 173.48 177.54 171.10 C 177.58 178.11 177.50 185.13 177.54 192.15 C 158.54 201.65 139.60 211.27 120.68 220.95 C 119.06 217.26 122.38 214.19 123.96 211.16 C 128.97 202.73 135.71 195.56 143.04 189.11 Z" fill="#b7effe" opacity="1.00" stroke="#b7effe" stroke-width="0.25"/>
<path d="M 290.57 187.89 C 290.85 185.86 291.21 183.84 291.63 181.84 C 295.12 185.30 299.53 187.58 303.53 190.39 C 307.29 192.59 310.69 195.65 315.07 196.54 C 313.93 196.39 312.79 196.25 311.66 196.12 C 304.59 193.48 297.70 190.38 290.57 187.89 Z" fill="#b2f0ff" opacity="1.00" stroke="#b2f0ff" stroke-width="0.25"/>
<path d="M 249.80 199.21 C 259.19 194.66 268.79 190.49 277.98 185.55 C 280.57 185.02 282.82 186.77 285.16 187.58 C 297.00 192.35 308.78 197.32 320.77 201.71 C 320.70 202.09 320.55 202.85 320.47 203.23 C 318.23 203.97 316.18 205.15 314.09 206.25 C 311.37 207.45 308.76 208.88 306.15 210.30 C 305.05 210.81 303.97 211.32 302.89 211.85 C 301.31 212.68 299.74 213.51 298.15 214.29 C 296.03 215.13 293.98 216.10 291.99 217.19 C 286.01 214.77 279.94 212.52 274.09 209.79 C 266.00 206.25 257.79 202.95 249.80 199.21 Z" fill="#ffffff" opacity="1.00" stroke="#ffffff" stroke-width="0.25"/>
<path d="M 325.83 203.70 C 333.57 199.16 341.85 195.60 349.76 191.34 C 348.86 198.28 347.17 205.10 346.19 212.03 C 345.92 213.26 345.88 214.89 344.41 215.30 C 337.43 219.27 329.99 222.46 323.29 226.90 C 323.38 219.10 325.57 211.49 325.83 203.70 Z" fill="#b6edfc" opacity="1.00" stroke="#b6edfc" stroke-width="0.25"/>
<path d="M 159.40 204.54 C 165.40 201.29 171.81 198.84 177.59 195.20 C 177.66 198.44 177.59 201.67 177.70 204.91 L 177.84 206.06 C 180.60 207.71 183.46 209.19 186.18 210.91 C 177.82 213.89 169.70 217.51 161.33 220.48 C 160.47 215.19 160.05 209.85 159.40 204.54 Z" fill="#7ee0fe" opacity="1.00" stroke="#7ee0fe" stroke-width="0.25"/>
<path d="M 238.78 198.76 C 240.44 197.70 242.28 198.55 243.89 199.25 C 258.74 205.94 273.66 212.48 288.63 218.91 C 284.82 220.62 281.08 222.47 277.46 224.56 C 270.71 228.46 263.45 231.42 256.84 235.59 C 241.34 228.81 226.37 220.85 210.90 214.02 C 210.74 213.75 210.40 213.22 210.23 212.96 C 212.73 211.93 215.18 210.79 217.56 209.51 C 219.03 208.78 220.50 208.05 221.97 207.33 C 227.60 204.53 233.16 201.58 238.78 198.76 Z" fill="#feffff" opacity="1.00" stroke="#feffff" stroke-width="0.25"/>
<path d="M 349.08 206.33 C 349.41 204.08 349.72 201.84 350.13 199.61 C 351.22 203.19 353.97 205.79 355.94 208.86 C 359.17 215.07 362.34 221.41 364.09 228.23 C 365.12 232.15 366.91 235.88 367.41 239.93 C 368.11 247.28 368.74 254.68 367.97 262.05 C 366.51 273.14 363.01 283.91 357.97 293.88 C 357.46 295.15 356.39 296.00 355.19 296.55 C 355.14 269.67 355.13 242.79 355.22 215.91 C 355.18 213.95 354.74 212.05 354.34 210.15 C 352.58 208.88 350.83 207.60 349.08 206.33 Z" fill="#b7effe" opacity="1.00" stroke="#b7effe" stroke-width="0.25"/>
<path d="M 128.32 220.28 C 138.16 215.48 147.84 210.37 157.69 205.61 C 158.54 210.78 158.63 216.06 159.79 221.18 C 160.50 222.93 162.40 222.23 163.73 221.71 C 171.78 218.41 179.91 215.28 187.99 212.06 C 194.16 214.56 199.61 218.65 205.59 221.61 C 205.54 223.85 205.53 226.10 205.54 228.35 C 203.35 227.10 201.15 225.87 198.96 224.64 C 188.14 230.55 177.39 236.60 166.47 242.33 C 164.63 243.51 162.84 241.99 161.25 241.17 C 149.44 234.96 137.55 228.88 125.92 222.33 C 126.44 221.35 127.28 220.68 128.32 220.28 Z" fill="#b6eeff" opacity="1.00" stroke="#b6eeff" stroke-width="0.25"/>
<path d="M 308.86 211.75 C 313.15 209.69 317.37 207.49 321.52 205.16 C 321.50 212.82 321.44 220.50 320.75 228.13 C 311.98 232.43 303.62 237.53 294.77 241.63 C 294.71 234.13 294.84 226.63 294.71 219.13 C 297.76 217.38 300.91 215.80 304.07 214.28 C 305.66 213.41 307.25 212.56 308.86 211.75 Z" fill="#feffff" opacity="1.00" stroke="#feffff" stroke-width="0.25"/>
<path d="M 326.38 228.01 C 335.06 223.45 343.61 218.67 352.32 214.15 C 352.12 253.10 352.45 292.06 352.16 331.01 C 345.82 333.87 340.01 337.73 333.89 340.99 C 300.50 359.46 267.25 378.18 233.89 396.68 C 232.50 397.53 231.03 398.26 229.53 398.89 C 229.63 359.18 229.57 319.48 229.56 279.78 C 243.30 272.67 256.72 264.94 270.61 258.13 C 271.09 264.42 271.58 270.70 271.88 277.01 C 272.36 277.39 273.33 278.14 273.81 278.52 C 286.32 272.36 298.68 265.88 310.60 258.65 C 312.25 257.52 314.33 256.18 314.49 254.00 C 314.96 247.34 313.75 240.63 314.61 233.99 C 318.83 232.65 322.49 230.06 326.38 228.01 Z" fill="#b7effe" opacity="1.00" stroke="#b7effe" stroke-width="0.25"/>
<path d="M 208.84 220.00 C 208.73 218.47 209.13 217.09 210.04 215.86 C 211.73 220.75 210.72 226.14 211.37 231.24 C 219.32 234.07 226.49 238.71 234.44 241.55 C 235.06 237.33 234.67 233.07 234.70 228.83 C 241.45 231.81 248.06 235.11 254.55 238.64 C 254.31 246.90 254.54 255.17 254.38 263.44 C 248.54 266.12 243.07 269.51 237.27 272.27 C 233.86 273.77 230.82 276.82 226.90 276.60 C 222.61 273.47 217.53 271.66 213.07 268.79 C 211.46 267.93 208.89 267.62 208.80 265.31 C 208.70 250.21 208.89 235.11 208.84 220.00 Z" fill="#feffff" opacity="1.00" stroke="#feffff" stroke-width="0.25"/>
<path d="M 212.33 218.04 C 219.54 220.75 226.25 224.68 233.32 227.75 C 233.16 231.43 233.26 235.11 233.33 238.80 C 226.25 236.20 219.66 232.38 212.73 229.39 C 212.58 225.61 212.38 221.83 212.33 218.04 Z" fill="#7bdffe" opacity="1.00" stroke="#7bdffe" stroke-width="0.25"/>
<path d="M 258.54 237.90 C 269.70 231.75 281.02 225.90 292.41 220.18 C 292.68 227.83 292.55 235.49 292.47 243.14 C 281.09 248.88 270.00 255.21 258.57 260.81 C 258.54 253.18 258.60 245.54 258.54 237.90 Z" fill="#b7efff" opacity="1.00" stroke="#b7efff" stroke-width="0.25"/>
<path d="M 117.17 225.16 C 117.43 223.45 119.23 222.97 120.51 222.22 C 120.33 244.26 120.54 266.30 120.43 288.35 C 118.11 286.63 117.69 283.62 116.67 281.12 C 112.12 268.69 111.60 255.21 112.73 242.14 C 113.79 236.38 115.39 230.73 117.17 225.16 Z" fill="#b6eefb" opacity="1.00" stroke="#b6eefb" stroke-width="0.25"/>
<path d="M 123.35 253.02 C 123.42 243.39 123.18 233.75 123.53 224.13 C 132.35 229.36 141.53 233.97 150.65 238.64 C 151.65 245.43 150.90 252.33 151.48 259.15 C 151.50 260.82 152.80 262.08 154.16 262.85 C 165.58 269.44 176.84 276.29 188.44 282.55 C 189.70 283.19 191.91 282.95 191.72 281.08 C 191.86 274.15 191.60 267.22 191.68 260.30 C 197.46 264.07 203.86 266.78 209.81 270.27 C 215.40 273.02 220.56 276.70 226.35 278.99 C 226.62 318.95 226.34 358.91 226.50 398.87 C 203.90 384.06 181.39 369.06 158.82 354.19 C 147.01 346.56 135.37 338.67 123.54 331.09 C 123.09 305.08 123.50 279.04 123.35 253.02 Z" fill="#feffff" opacity="1.00" stroke="#feffff" stroke-width="0.25"/>
<path d="M 168.10 243.58 C 178.26 238.49 188.02 232.62 198.06 227.31 C 200.82 226.96 203.07 229.51 205.60 230.40 C 205.68 241.85 205.63 253.30 205.56 264.74 C 197.37 260.48 189.23 256.13 181.07 251.81 C 180.58 251.55 179.61 251.05 179.12 250.79 C 175.51 248.74 171.76 246.93 168.19 244.83 C 168.17 244.51 168.12 243.89 168.10 243.58 Z" fill="#ffffff" opacity="1.00" stroke="#ffffff" stroke-width="0.25"/>
<path d="M 272.49 256.56 C 286.05 250.25 298.75 242.14 312.37 235.97 C 312.27 242.41 313.27 248.89 312.24 255.28 C 306.01 259.58 299.24 262.99 292.64 266.66 C 286.41 269.96 280.28 273.52 273.74 276.17 C 273.49 269.61 272.83 263.10 272.49 256.56 Z" fill="#7ee0ff" opacity="1.00" stroke="#7ee0ff" stroke-width="0.25"/>
<path d="M 152.75 239.80 C 165.10 246.18 177.20 253.04 189.64 259.24 C 189.84 266.49 189.73 273.75 189.71 281.01 C 177.60 274.23 165.53 267.35 153.73 260.08 C 152.76 253.42 153.05 246.54 152.75 239.80 Z" fill="#7de0ff" opacity="1.00" stroke="#7de0ff" stroke-width="0.25"/>
<path d="M 217.86 242.71 C 218.33 240.54 220.64 241.58 222.07 241.99 C 227.84 243.98 233.44 246.48 238.82 249.35 C 238.84 249.77 238.86 250.60 238.88 251.02 C 231.99 247.95 224.97 245.21 217.86 242.71 Z" fill="#d0d7d9" opacity="1.00" stroke="#d0d7d9" stroke-width="0.25"/>
<path d="M 214.84 248.10 C 219.11 247.86 223.02 249.95 227.10 250.89 C 230.26 252.08 234.16 252.25 236.37 255.12 C 231.30 255.01 226.76 252.46 221.92 251.26 C 219.52 250.37 216.52 250.30 214.84 248.10 Z" fill="#ccd4d7" opacity="1.00" stroke="#ccd4d7" stroke-width="0.25"/>
<path d="M 143.98 293.75 C 149.25 293.89 153.33 298.00 157.91 300.18 C 166.61 304.64 175.00 309.67 183.54 314.39 C 183.67 314.79 183.93 315.59 184.06 315.99 C 179.24 315.03 175.18 312.05 170.77 310.05 C 162.86 305.59 154.63 301.71 146.83 297.07 C 145.44 296.38 144.57 295.13 143.98 293.75 Z" fill="#a8bfc6" opacity="1.00" stroke="#a8bfc6" stroke-width="0.25"/>
<path d="M 142.42 305.15 C 149.13 308.01 155.01 312.40 161.46 315.76 C 167.52 318.89 173.27 322.60 179.29 325.78 C 179.55 326.18 180.06 327.00 180.32 327.40 C 176.26 326.74 172.88 324.22 169.17 322.63 C 159.93 317.89 150.96 312.61 142.14 307.14 C 142.21 306.64 142.35 305.64 142.42 305.15 Z" fill="#a8bfc6" opacity="1.00" stroke="#a8bfc6" stroke-width="0.25"/>
<path d="M 275.94 322.90 C 286.21 316.82 296.50 310.72 307.20 305.41 C 309.06 307.47 306.26 308.80 304.68 309.61 C 294.95 314.28 285.95 320.27 276.66 325.72 C 273.85 327.22 271.04 329.30 267.69 329.02 C 269.76 326.17 273.00 324.65 275.94 322.90 Z" fill="#9bcee0" opacity="1.00" stroke="#9bcee0" stroke-width="0.25"/>
</svg>