<svg xmlns="http://www.w3.org/2000/svg" height="512pt" version="1.1" viewBox="0 0 512 512" width="512pt">
<path d="M 0.00 0.00 L 512.00 0.00 L 512.00 512.00 L 0.00 512.00 L 0.00 0.00 Z" fill="transparent" opacity="1.00" stroke="transparent" stroke-width="0.25" data-index="0" style="opacity: 1;"></path>
<path d="M 350.94 67.38 C 356.75 65.92 362.54 63.78 368.64 64.29 C 368.48 66.33 368.88 68.75 367.04 70.18 C 363.49 73.72 360.21 77.50 356.93 81.28 C 360.95 81.93 364.95 82.87 368.61 84.71 C 368.58 86.19 368.54 87.66 368.49 89.14 C 359.10 96.13 350.09 103.65 340.50 110.36 C 339.47 109.87 338.44 109.38 337.42 108.90 C 338.20 104.77 341.81 102.35 344.75 99.75 C 349.22 95.96 353.72 92.20 358.33 88.59 C 354.29 87.86 350.10 87.79 346.23 86.30 C 346.50 80.55 352.15 77.69 355.14 73.39 C 347.41 74.25 340.24 78.37 332.34 77.69 C 332.34 76.24 332.35 74.79 332.37 73.34 C 338.35 70.75 344.66 69.04 350.94 67.38 Z" fill="#52d8fb" opacity="1.00" stroke="#52d8fb" stroke-width="0.25" data-index="1"></path>
<path d="M 165.79 91.13 C 167.01 91.22 168.22 91.33 169.44 91.46 C 169.53 96.93 168.20 103.28 172.09 107.83 C 176.75 113.12 184.52 113.73 191.10 113.28 C 208.98 111.24 225.97 104.66 243.81 102.37 C 261.61 99.76 280.71 99.83 297.21 107.83 C 302.60 110.28 307.05 114.70 308.86 120.41 C 318.42 119.64 327.38 124.61 334.50 130.55 C 353.31 147.72 360.49 174.24 360.44 199.02 C 360.77 201.46 359.52 204.46 361.43 206.43 C 364.30 209.68 366.01 213.77 366.94 217.97 C 368.94 227.90 368.62 238.22 366.56 248.12 C 365.44 253.40 363.06 258.45 359.35 262.41 C 356.78 264.97 353.22 266.16 349.73 266.82 C 347.16 279.14 342.74 291.18 336.02 301.86 C 325.20 319.84 308.21 334.30 288.36 341.29 C 293.96 341.60 299.59 340.00 305.14 341.41 C 310.70 342.27 315.12 346.20 318.54 350.43 C 323.56 356.99 327.48 364.36 330.16 372.18 C 334.65 383.03 337.12 394.55 340.24 405.84 C 341.45 411.31 343.35 416.71 343.49 422.36 C 342.56 422.39 340.70 422.44 339.77 422.47 C 337.39 413.04 335.68 403.44 332.83 394.13 C 329.31 381.49 325.44 368.72 318.47 357.50 C 315.03 352.23 310.66 346.68 304.10 345.47 C 299.01 344.86 293.87 345.37 288.77 345.56 C 285.88 348.53 282.83 351.35 280.24 354.60 C 279.81 354.66 278.95 354.78 278.53 354.85 C 278.11 359.60 275.90 364.27 271.60 366.66 C 265.26 369.92 257.74 370.12 250.87 368.71 C 245.83 367.69 240.38 364.87 238.74 359.64 C 238.18 358.45 238.23 356.84 237.12 356.00 C 233.48 353.21 230.60 349.59 227.15 346.60 C 219.82 346.93 212.06 344.99 205.08 347.95 C 198.84 350.52 195.15 356.54 192.21 362.28 C 182.70 381.45 176.69 402.11 171.22 422.73 C 169.35 422.88 166.47 422.89 167.58 420.13 C 170.86 406.82 175.10 393.75 179.66 380.83 C 183.75 370.61 187.49 360.02 194.18 351.14 C 197.04 347.64 200.74 344.60 205.16 343.35 C 210.76 341.46 216.73 342.33 222.53 342.21 C 207.05 337.21 193.19 327.66 182.43 315.53 C 172.70 304.74 166.05 291.48 162.00 277.60 C 154.69 277.30 147.40 273.53 144.16 266.75 C 138.82 256.22 135.70 244.08 137.29 232.26 C 138.07 224.89 142.82 218.04 149.78 215.29 C 147.32 197.79 146.92 179.66 151.64 162.49 C 152.86 157.00 155.64 152.06 157.57 146.85 C 147.23 138.27 138.81 127.17 134.35 114.43 C 133.40 111.35 131.13 107.87 132.82 104.69 C 134.57 104.16 136.04 105.63 137.59 106.19 C 141.10 108.13 145.12 108.83 149.09 108.37 C 153.02 106.99 156.81 104.84 159.36 101.47 C 161.74 98.18 163.70 94.61 165.79 91.13 Z" fill="#032d4b" opacity="1.00" stroke="#032d4b" stroke-width="0.25" data-index="2" style="opacity: 1;"></path>
<path d="M 153.35 111.25 C 158.20 109.18 162.21 105.44 165.06 101.05 C 165.95 105.89 168.04 111.00 172.40 113.71 C 178.07 117.53 185.25 117.96 191.88 117.47 C 204.81 116.16 217.20 112.03 229.85 109.27 C 248.40 105.04 268.15 102.85 286.70 108.22 C 291.84 110.11 297.35 111.81 301.34 115.76 C 304.17 118.28 304.53 122.27 305.79 125.62 C 308.87 125.56 311.89 124.00 314.96 124.97 C 326.25 127.65 335.48 135.75 341.77 145.24 C 352.68 161.91 356.43 182.19 356.34 201.84 C 353.29 200.48 350.02 199.67 346.68 199.67 C 343.47 182.36 331.13 166.26 313.78 161.46 C 304.32 158.80 294.44 160.54 284.91 161.77 C 272.97 163.61 261.02 165.41 249.00 166.63 C 234.64 168.46 219.85 168.68 205.73 165.15 C 193.80 162.17 182.33 157.41 171.72 151.21 C 162.93 146.03 154.54 139.79 148.42 131.53 C 143.28 125.39 140.04 117.97 137.17 110.57 C 142.19 112.97 148.16 113.39 153.35 111.25 Z" fill="#ffffff" opacity="1.00" stroke="#ffffff" stroke-width="0.25" data-index="3" style="opacity: 1; visibility: visible; fill: rgb(97, 57, 0);"></path>
<path d="M 88.54 152.12 C 89.05 150.46 90.55 149.44 91.70 148.24 C 96.19 151.78 99.94 156.16 104.50 159.64 C 104.91 159.64 105.75 159.66 106.17 159.67 C 107.73 157.11 108.67 153.94 111.08 152.04 C 112.93 150.63 114.23 152.93 115.42 154.01 C 114.07 157.86 112.19 161.51 111.15 165.47 C 115.15 168.71 119.14 171.98 122.63 175.78 C 122.63 176.71 122.63 178.55 122.63 179.48 C 116.88 181.85 110.50 180.27 104.47 180.53 C 103.06 183.53 101.58 186.50 100.08 189.45 C 98.54 189.48 97.00 189.50 95.46 189.52 C 95.15 186.33 95.83 183.20 96.85 180.20 C 93.79 179.70 90.69 179.46 87.59 179.40 C 86.71 182.16 85.64 184.86 84.27 187.42 C 83.31 187.48 81.39 187.59 80.43 187.65 C 78.93 184.79 79.88 181.65 80.55 178.71 C 79.18 178.18 77.80 177.65 76.43 177.14 C 76.47 175.64 76.51 174.14 76.56 172.65 C 78.46 172.51 80.36 172.37 82.26 172.24 C 84.63 165.62 86.29 158.77 88.54 152.12 Z" fill="#52d8fb" opacity="1.00" stroke="#52d8fb" stroke-width="0.25" data-index="4"></path>
<path d="M 153.70 213.78 C 151.17 192.24 150.95 169.13 161.28 149.42 C 166.59 153.06 172.17 156.28 177.73 159.51 C 166.00 175.20 159.66 194.40 157.24 213.70 C 156.35 213.72 154.59 213.76 153.70 213.78 Z" fill="#ffffff" opacity="1.00" stroke="#ffffff" stroke-width="0.25" data-index="5" style="opacity: 1; visibility: visible; fill: rgb(97, 57, 0);"></path>
<path d="M 92.88 158.96 C 96.53 161.12 99.88 163.96 102.67 167.13 C 102.27 169.42 101.18 171.49 100.29 173.62 C 96.57 173.62 92.82 173.58 89.18 172.75 C 90.34 168.13 91.70 163.57 92.88 158.96 Z" fill="#ffffff" opacity="1.00" stroke="#ffffff" stroke-width="0.25" data-index="6"></path>
<path d="M 177.25 167.21 C 178.87 165.08 180.09 162.24 182.74 161.22 C 200.23 170.22 220.46 173.57 239.99 171.79 C 259.48 170.46 278.66 166.48 298.06 164.43 C 307.87 163.42 318.07 166.04 325.82 172.23 C 335.90 179.78 341.24 191.86 343.50 203.96 C 347.61 226.18 349.79 249.40 344.38 271.60 C 338.90 293.15 326.35 313.12 308.21 326.20 C 289.34 339.82 265.11 345.69 242.08 342.56 C 213.73 339.09 187.12 321.66 173.92 296.14 C 164.18 278.43 161.25 257.93 160.38 238.00 C 159.43 213.49 164.32 188.28 177.25 167.21 Z" fill="#ffffff" opacity="1.00" stroke="#ffffff" stroke-width="0.25" data-index="7" style="opacity: 1; visibility: visible; fill: rgb(253, 216, 165);"></path>
<path d="M 276.41 178.54 C 278.69 176.69 281.65 178.11 284.07 178.88 C 293.65 182.58 303.93 183.65 313.98 185.35 C 318.16 185.84 322.41 190.12 320.80 194.50 C 320.15 197.59 316.57 198.03 313.97 198.16 C 302.37 197.74 290.92 194.93 280.23 190.46 C 277.89 189.30 275.31 188.15 273.83 185.88 C 272.56 183.20 274.02 180.05 276.41 178.54 Z" fill="#032d4b" opacity="1.00" stroke="#032d4b" stroke-width="0.25" data-index="8"></path>
<path d="M 215.13 182.16 C 218.04 180.88 220.99 179.55 224.22 179.43 C 227.35 181.21 229.82 184.29 228.63 188.11 C 222.99 193.38 215.37 195.63 208.27 198.18 C 200.71 200.22 192.88 202.48 184.98 201.55 C 182.57 201.38 181.28 199.14 180.51 197.13 C 180.99 192.31 185.41 189.47 189.86 188.84 C 198.46 187.40 207.05 185.52 215.13 182.16 Z" fill="#032d4b" opacity="1.00" stroke="#032d4b" stroke-width="0.25" data-index="9" style="opacity: 1;"></path>
<path d="M 347.63 204.10 C 354.97 203.97 360.88 210.37 362.41 217.17 C 365.15 229.13 364.71 242.04 360.32 253.55 C 358.72 258.07 354.79 261.05 350.56 262.95 C 352.86 243.36 351.75 223.38 347.63 204.10 Z" fill="#ffffff" opacity="1.00" stroke="#ffffff" stroke-width="0.25" data-index="10" style="opacity: 1; visibility: visible; fill: rgb(253, 216, 165);"></path>
<path d="M 292.10 211.09 C 297.79 208.97 304.21 208.55 310.09 210.09 C 316.68 211.81 321.57 217.76 323.33 224.08 C 324.06 226.05 321.33 225.50 320.28 225.79 C 317.71 222.98 316.90 218.78 313.58 216.55 C 307.54 212.52 299.35 212.79 292.86 215.56 C 289.38 216.92 287.90 220.46 286.19 223.48 C 285.10 224.83 283.36 223.58 282.01 223.49 C 283.13 218.07 286.78 213.01 292.10 211.09 Z" fill="#032d4b" opacity="1.00" stroke="#032d4b" stroke-width="0.25" data-index="11"></path>
<path d="M 255.46 212.68 C 256.38 212.52 257.30 212.36 258.22 212.21 C 261.58 217.72 264.83 223.30 268.09 228.88 C 271.05 232.97 272.32 239.96 267.18 242.91 C 261.92 246.12 255.26 246.30 249.53 244.28 C 249.60 243.36 249.73 241.53 249.79 240.61 C 255.43 241.45 261.97 242.14 266.65 238.16 C 266.01 228.55 256.80 222.12 255.46 212.68 Z" fill="#032d4b" opacity="1.00" stroke="#032d4b" stroke-width="0.25" data-index="12"></path>
<path d="M 184.80 229.05 C 188.69 217.92 201.46 211.54 212.81 214.08 C 219.41 214.93 225.14 219.83 226.81 226.30 C 225.59 226.68 224.36 227.05 223.13 227.41 C 221.17 223.48 218.03 219.62 213.52 218.67 C 207.50 217.46 200.73 217.88 195.70 221.73 C 192.10 224.05 190.40 228.09 188.16 231.56 C 186.70 233.32 183.76 231.03 184.80 229.05 Z" fill="#032d4b" opacity="1.00" stroke="#032d4b" stroke-width="0.25" data-index="13" style="opacity: 1;"></path>
<path d="M 142.83 227.90 C 144.73 222.09 150.79 218.56 156.65 218.06 C 155.29 236.58 156.77 255.22 160.59 273.38 C 157.76 272.59 154.99 271.62 152.31 270.41 C 146.20 264.57 143.92 256.09 142.10 248.12 C 140.83 241.48 140.47 234.34 142.83 227.90 Z" fill="#ffffff" opacity="1.00" stroke="#ffffff" stroke-width="0.25" data-index="14" style="opacity: 1; visibility: visible; fill: rgb(253, 216, 165);"></path>
<path d="M 296.06 255.87 C 300.04 254.19 302.94 258.77 303.52 262.14 C 305.37 285.90 290.19 310.04 267.90 318.55 C 254.90 323.44 239.25 322.58 227.93 314.07 C 214.65 304.41 207.78 287.97 206.63 271.94 C 206.55 268.39 205.94 264.57 207.76 261.32 C 224.16 262.10 240.61 263.45 257.02 261.94 C 270.17 260.98 283.21 258.80 296.06 255.87 Z" fill="#032d4b" opacity="1.00" stroke="#032d4b" stroke-width="0.25" data-index="15" style="opacity: 1;"></path>
<path d="M 231.58 265.55 C 253.98 266.79 276.36 263.51 298.17 258.63 C 298.99 259.85 299.81 261.06 300.64 262.29 C 284.49 270.75 266.06 273.89 247.99 274.44 C 235.04 274.95 222.24 272.58 209.59 270.10 C 209.55 268.09 209.55 266.08 209.56 264.08 C 216.89 264.69 224.21 265.54 231.58 265.55 Z" fill="#ffffff" opacity="1.00" stroke="#ffffff" stroke-width="0.25" data-index="16" style="opacity: 1;"></path>
<path d="M 376.19 264.40 C 381.38 263.34 386.70 263.64 391.97 263.61 C 396.54 263.64 401.20 263.18 405.66 264.46 C 405.55 265.69 405.46 266.92 405.36 268.15 C 404.27 268.72 403.19 269.30 402.11 269.87 C 402.62 270.48 403.65 271.69 404.17 272.30 C 402.57 273.12 400.83 273.76 399.01 273.59 C 391.31 273.32 383.80 271.39 376.48 269.09 C 376.37 267.52 376.27 265.96 376.19 264.40 Z" fill="#52d8fb" opacity="1.00" stroke="#52d8fb" stroke-width="0.25" data-index="17"></path>
<path d="M 97.41 267.61 C 102.01 266.01 107.07 266.13 111.70 267.56 C 111.70 268.93 111.69 270.29 111.69 271.66 C 107.02 271.89 102.33 271.83 97.67 271.38 C 97.61 270.44 97.47 268.55 97.41 267.61 Z" fill="#52d8fb" opacity="1.00" stroke="#52d8fb" stroke-width="0.25" data-index="18"></path>
<path d="M 356.21 291.10 C 357.04 290.14 357.85 289.18 358.68 288.22 C 362.38 288.77 365.95 290.03 369.10 292.07 C 372.34 294.18 376.30 296.11 377.50 300.11 C 376.24 303.29 372.15 301.41 370.30 299.75 C 366.04 296.13 360.17 295.12 356.21 291.10 Z" fill="#52d8fb" opacity="1.00" stroke="#52d8fb" stroke-width="0.25" data-index="19"></path>
<path d="M 223.39 306.79 C 229.47 298.22 240.06 291.23 250.99 293.69 C 254.91 296.11 258.95 293.15 262.92 292.57 C 267.69 291.93 272.10 294.41 275.87 297.05 C 278.95 299.22 282.09 301.52 284.07 304.82 C 276.61 311.27 267.80 316.42 257.92 317.89 C 248.59 319.36 238.39 317.98 230.62 312.32 C 228.27 310.40 226.03 308.32 223.39 306.79 Z" fill="#f15931" opacity="1.00" stroke="#f15931" stroke-width="0.25" data-index="20" style="opacity: 1;"></path>
<path d="M 122.79 306.77 C 124.31 305.14 126.62 305.31 128.64 305.11 C 128.38 306.64 128.63 308.40 127.58 309.68 C 124.81 313.24 121.48 316.32 118.41 319.60 C 121.52 319.43 124.68 319.40 127.72 320.21 C 127.58 321.52 127.43 322.84 127.29 324.16 C 124.21 325.34 121.06 326.36 117.86 327.18 C 113.41 328.26 109.16 330.18 104.55 330.57 C 102.33 326.79 105.84 323.81 108.13 321.15 C 112.86 316.20 117.74 311.39 122.79 306.77 Z" fill="#52d8fb" opacity="1.00" stroke="#52d8fb" stroke-width="0.25" data-index="21" style="opacity: 1;"></path>
<path d="M 348.64 319.51 C 352.20 318.99 355.23 320.96 357.35 323.66 C 360.27 327.13 363.43 330.41 367.27 332.88 C 368.41 335.32 370.04 338.36 373.01 338.67 C 375.82 337.77 378.53 335.86 381.46 337.67 C 381.39 338.63 381.33 339.59 381.28 340.55 C 380.16 342.02 378.44 343.64 379.37 345.67 C 380.84 347.80 382.46 349.84 383.75 352.10 C 382.51 353.71 380.90 354.81 378.79 354.59 C 376.60 352.41 374.32 350.31 372.07 348.20 C 370.86 349.14 369.66 350.07 368.45 351.00 C 368.55 356.17 368.83 361.35 368.41 366.52 C 366.86 366.46 365.32 366.41 363.78 366.35 C 363.05 362.98 362.49 359.57 362.32 356.12 C 361.60 356.46 360.15 357.14 359.42 357.48 C 359.48 359.53 359.54 361.58 359.58 363.64 C 358.95 364.21 358.33 364.79 357.71 365.37 C 356.76 365.33 355.81 365.31 354.87 365.28 C 354.33 364.38 353.80 363.47 353.28 362.58 C 351.91 362.15 350.54 361.73 349.18 361.32 C 349.27 359.24 350.02 357.37 351.70 356.08 C 350.22 343.98 346.36 331.72 348.64 319.51 Z" fill="#52d8fb" opacity="1.00" stroke="#52d8fb" stroke-width="0.25" data-index="22" style="opacity: 1;"></path>
<path d="M 354.45 330.72 C 356.82 332.83 359.40 334.80 361.29 337.38 C 361.79 340.89 361.53 344.46 361.58 348.00 C 360.17 348.94 358.78 349.90 357.38 350.86 C 356.03 344.22 354.79 337.50 354.45 330.72 Z" fill="#ffffff" opacity="1.00" stroke="#ffffff" stroke-width="0.25" data-index="23"></path>
<path d="M 164.96 343.75 C 166.15 343.71 167.34 343.67 168.53 343.65 C 169.46 349.33 165.05 353.67 162.38 358.17 C 159.38 362.26 157.19 367.27 152.87 370.16 C 149.63 371.88 149.87 366.97 150.90 365.21 C 154.85 357.61 159.96 350.68 164.96 343.75 Z" fill="#52d8fb" opacity="1.00" stroke="#52d8fb" stroke-width="0.25" data-index="24" style="opacity: 1;"></path>
<path d="M 241.64 346.64 C 252.51 348.24 263.61 347.74 274.33 345.42 C 273.94 350.92 275.34 357.69 271.02 361.98 C 265.47 365.68 258.32 366.10 251.96 364.68 C 248.42 364.04 244.80 362.35 242.91 359.16 C 241.38 355.17 241.82 350.81 241.64 346.64 Z" fill="#ffffff" opacity="1.00" stroke="#ffffff" stroke-width="0.25" data-index="25" style="opacity: 1; visibility: visible; fill: rgb(253, 216, 165);"></path>
<path d="M 209.62 383.43 C 210.64 381.58 212.11 383.15 213.38 383.79 C 212.96 395.78 211.24 407.69 210.38 419.65 C 210.05 420.06 209.40 420.88 209.08 421.28 C 208.27 421.24 207.46 421.19 206.65 421.16 C 206.37 418.45 206.41 415.72 206.74 413.02 C 207.91 403.18 208.42 393.27 209.62 383.43 Z" fill="#032d4b" opacity="1.00" stroke="#032d4b" stroke-width="0.25" data-index="26"></path>
<path d="M 293.73 383.92 C 294.34 383.52 295.58 382.71 296.20 382.31 C 298.21 385.02 297.60 388.56 298.21 391.71 C 299.13 402.03 300.74 412.34 300.55 422.72 C 299.41 422.71 298.27 422.70 297.13 422.69 C 295.76 409.80 294.63 396.86 293.73 383.92 Z" fill="#032d4b" opacity="1.00" stroke="#032d4b" stroke-width="0.25" data-index="27" style="opacity: 1;"></path>
</svg>