<?xml version="1.0" encoding="utf-8"?>
<svg xmlns="http://www.w3.org/2000/svg" height="512pt" version="1.1" viewBox="0 0 512 512" width="512pt">
<path d="M 0.00 0.00 L 512.00 0.00 L 512.00 512.00 L 0.00 512.00 L 0.00 0.00 Z" fill="transparent" opacity="1.00" stroke="transparent" stroke-width="0.25"/>
<path d="M 313.44 58.17 C 314.56 58.35 315.74 58.50 316.65 59.27 C 319.99 61.61 323.69 63.46 326.69 66.27 C 328.85 66.34 331.01 66.51 333.16 66.78 C 334.13 67.12 335.12 67.43 336.11 67.73 C 347.10 72.18 355.37 81.55 361.32 91.53 C 368.85 94.08 375.82 98.12 382.09 102.99 C 382.85 103.69 384.08 104.53 383.71 105.75 C 380.55 109.31 376.17 111.54 372.42 114.33 C 374.75 122.72 376.68 131.32 377.36 140.06 C 377.66 145.52 379.26 150.97 382.70 155.30 C 385.39 157.62 389.06 158.74 392.54 157.74 C 393.22 160.77 389.94 162.43 387.99 164.08 C 383.07 168.13 376.38 169.09 370.20 168.66 C 370.32 169.00 370.54 169.69 370.66 170.03 C 372.75 171.47 374.07 173.99 373.49 176.55 C 366.71 176.44 360.49 173.30 354.66 170.15 C 354.25 180.33 352.13 190.35 349.28 200.10 C 349.00 200.35 348.44 200.84 348.16 201.08 C 352.08 203.23 356.10 205.51 358.94 209.06 C 364.85 218.07 362.52 231.48 353.81 237.87 C 348.82 241.87 342.16 243.18 335.90 242.65 C 332.06 242.60 328.62 240.69 324.91 239.97 C 319.70 253.62 307.66 263.41 295.09 270.08 C 293.48 270.53 294.72 271.98 295.48 272.53 C 313.07 289.22 327.12 309.40 338.18 330.91 C 341.30 337.25 344.80 344.01 343.52 351.34 C 347.10 355.51 352.07 359.57 352.70 365.35 C 351.28 366.07 349.70 366.19 348.15 366.26 C 349.42 367.93 350.90 371.28 348.19 372.36 C 345.77 372.50 344.12 370.45 342.40 369.11 C 342.64 371.19 342.81 373.29 342.79 375.39 C 342.07 375.63 340.63 376.12 339.91 376.36 C 337.80 375.41 336.40 373.56 334.98 371.83 C 334.52 373.42 335.54 375.75 333.95 376.90 C 332.82 377.99 330.32 377.80 329.49 376.39 C 327.66 373.78 326.24 370.91 325.03 367.97 C 322.79 370.40 320.31 373.68 316.52 372.77 C 315.26 368.18 316.96 363.47 316.80 358.80 C 316.34 358.66 315.42 358.36 314.96 358.22 C 314.60 357.18 314.21 356.15 313.80 355.15 C 311.74 350.85 309.83 346.47 307.77 342.18 C 307.14 340.77 306.48 339.38 305.77 338.01 C 303.35 332.90 301.01 327.74 298.34 322.77 C 299.87 340.18 302.66 357.53 303.65 375.02 C 303.70 377.77 304.68 380.67 303.36 383.27 C 302.11 383.45 300.87 383.63 299.63 383.82 C 299.79 392.21 299.63 400.61 300.13 409.00 C 300.00 413.19 300.63 417.47 299.62 421.59 C 296.94 422.24 294.19 422.47 291.44 422.42 C 291.08 425.60 290.38 428.81 290.75 432.02 C 291.40 434.02 292.22 435.97 292.91 437.98 C 293.34 439.18 293.79 440.40 294.20 441.62 C 295.29 445.84 297.66 450.08 296.37 454.53 C 290.81 455.01 285.44 453.28 280.08 452.11 C 273.87 450.70 267.69 449.14 261.60 447.26 C 261.59 444.25 261.90 441.25 262.34 438.28 C 263.01 433.22 263.13 428.02 262.27 422.99 C 261.87 422.77 261.08 422.32 260.69 422.10 C 259.12 411.54 257.77 400.95 256.34 390.36 C 255.45 390.36 254.57 390.37 253.69 390.37 C 252.93 399.16 251.82 407.91 251.10 416.70 C 250.73 418.68 250.95 420.97 249.52 422.59 C 248.09 424.30 248.80 426.76 248.51 428.81 C 248.07 434.87 248.78 440.95 248.23 447.00 C 248.20 449.20 246.08 450.35 244.57 451.54 C 239.13 455.68 232.29 457.31 225.61 458.00 C 221.50 458.49 217.17 458.29 213.35 456.60 C 211.25 455.61 211.16 452.93 211.88 451.03 C 213.16 447.28 215.21 443.86 216.89 440.28 C 218.33 437.52 219.86 434.82 221.43 432.14 C 221.38 429.22 221.10 426.31 220.68 423.43 C 217.31 423.04 213.95 422.56 210.57 422.20 C 209.89 409.77 209.62 397.32 209.52 384.87 C 207.85 384.51 206.20 384.05 204.58 383.53 C 205.09 363.65 207.48 343.85 209.16 324.07 C 207.67 327.83 205.72 331.39 204.16 335.12 C 200.81 342.25 197.61 349.46 194.43 356.67 C 194.03 357.73 193.33 358.53 192.30 359.06 C 192.34 363.12 193.52 367.12 193.23 371.19 C 192.86 372.76 191.40 373.07 190.00 372.74 C 187.86 371.69 185.91 370.09 184.91 367.88 C 181.56 370.42 181.51 375.69 178.15 378.36 C 174.26 379.48 173.04 375.07 173.33 372.12 C 172.22 374.73 170.08 377.37 166.85 376.35 C 166.54 375.81 165.93 374.73 165.62 374.19 C 165.99 372.45 166.29 370.69 166.21 368.91 C 165.99 369.26 165.56 369.95 165.34 370.30 C 163.75 371.95 161.72 373.06 159.35 372.49 C 159.13 370.76 159.41 369.06 159.84 367.40 C 158.19 367.79 156.73 367.07 155.36 366.26 C 156.67 360.20 161.63 355.99 165.34 351.33 C 163.26 344.47 167.12 337.80 169.76 331.68 C 180.43 310.44 193.88 290.38 210.93 273.71 C 195.67 266.92 181.07 256.61 172.89 241.67 C 170.11 241.44 167.65 243.41 164.86 243.51 C 154.25 245.28 141.44 240.70 137.37 230.05 C 132.49 218.68 138.33 203.64 150.48 199.92 C 147.65 188.46 145.69 176.76 145.49 164.93 C 139.29 170.70 132.92 177.60 124.38 179.39 C 124.54 175.57 125.40 171.83 125.51 168.02 C 119.41 170.85 111.86 169.61 106.89 165.12 C 104.96 163.30 102.42 161.42 102.26 158.55 C 105.12 158.74 108.49 158.94 110.66 156.68 C 114.65 152.66 116.85 146.77 116.25 141.10 C 115.29 132.40 115.95 123.49 118.49 115.10 C 122.68 99.56 133.10 86.44 145.19 76.17 C 151.09 71.54 158.30 67.36 166.10 68.52 C 173.11 69.75 179.04 74.33 183.38 79.80 C 185.33 79.16 186.79 77.57 188.54 76.55 C 202.44 67.16 220.50 62.46 236.91 67.31 C 240.15 66.76 243.13 65.11 246.42 64.59 C 267.10 60.00 288.86 67.11 305.37 79.71 C 307.25 72.25 309.66 64.90 313.44 58.17 Z" fill="#092138" opacity="1.00" stroke="#092138" stroke-width="0.25"/>
<path d="M 314.16 60.24 C 316.18 60.27 317.57 62.25 319.34 63.08 C 318.25 65.01 317.65 67.73 315.06 68.09 C 314.80 67.54 314.28 66.42 314.02 65.86 C 312.90 67.09 311.91 68.59 310.16 68.99 C 311.37 66.04 312.17 62.77 314.16 60.24 Z" fill="#90e7fd" opacity="1.00" stroke="#90e7fd" stroke-width="0.25"/>
<path d="M 319.34 63.08 C 320.58 63.75 321.80 64.47 323.02 65.20 C 322.13 65.26 320.36 65.37 319.47 65.43 C 317.88 67.27 320.62 68.57 321.31 70.12 C 320.33 69.24 319.31 68.40 318.29 67.59 C 317.24 67.94 316.16 68.10 315.06 68.09 C 317.65 67.73 318.25 65.01 319.34 63.08 Z" fill="#fbac99" opacity="1.00" stroke="#fbac99" stroke-width="0.25"/>
<path d="M 246.95 67.17 C 266.86 62.70 287.50 69.83 303.55 81.60 C 305.53 82.63 304.43 85.05 304.63 86.76 C 303.93 86.60 302.54 86.27 301.84 86.11 C 298.74 84.99 293.80 82.84 291.71 86.57 C 287.56 97.61 287.17 110.12 290.46 121.44 C 292.52 129.12 299.07 135.68 307.08 136.80 C 312.47 137.92 317.86 136.25 322.97 134.64 C 326.22 137.44 327.08 141.91 330.01 144.96 C 331.77 146.87 333.64 148.94 336.17 149.80 C 338.93 150.37 341.53 148.97 343.95 147.84 C 346.24 146.18 348.44 148.58 350.22 149.88 C 351.71 154.39 351.49 159.25 351.72 163.94 C 352.20 176.27 350.32 188.70 346.14 200.31 C 341.16 198.83 336.09 200.31 331.31 201.76 C 331.45 190.32 331.43 178.80 329.59 167.50 C 330.97 167.03 332.37 166.64 333.80 166.32 C 333.36 159.24 329.96 152.63 326.54 146.54 C 326.18 146.44 325.47 146.24 325.12 146.14 C 327.11 152.54 331.07 158.53 331.48 165.32 C 323.34 165.67 314.91 166.59 307.08 163.78 C 296.65 160.21 289.20 151.21 284.54 141.56 C 282.80 138.26 281.62 134.68 279.73 131.47 C 279.36 131.36 278.63 131.13 278.26 131.02 C 278.02 143.55 280.43 155.95 280.83 168.47 C 269.25 169.36 256.89 169.30 246.38 163.71 C 238.65 159.12 235.23 150.44 232.04 142.51 C 228.71 144.38 227.60 148.35 224.91 150.91 C 219.49 156.74 213.44 163.64 204.96 164.29 C 199.67 162.69 196.47 157.37 194.23 152.63 C 192.03 148.38 192.62 143.54 191.97 138.96 C 189.52 139.28 188.71 141.82 187.62 143.65 C 184.58 149.20 182.44 155.15 180.45 161.13 C 179.04 158.37 178.12 155.31 176.05 152.94 C 174.18 156.00 173.66 159.57 172.91 163.01 C 170.49 172.86 169.48 183.00 168.70 193.10 C 168.80 198.47 169.38 203.88 170.80 209.07 C 167.61 206.50 165.71 202.81 163.03 199.79 C 159.92 198.88 156.51 199.42 153.33 198.70 C 150.24 189.43 149.04 179.71 148.55 170.00 C 148.04 153.01 149.62 135.64 155.88 119.71 C 162.11 104.04 174.36 91.82 187.03 81.13 C 192.01 76.63 198.40 74.22 204.46 71.55 C 214.17 68.22 224.86 66.50 234.91 69.42 C 239.10 70.81 242.88 67.68 246.95 67.17 Z" fill="#805850" opacity="1.00" stroke="#805850" stroke-width="0.25"/>
<path d="M 319.47 65.43 C 320.36 65.37 322.13 65.26 323.02 65.20 C 324.22 66.05 325.32 67.04 326.43 68.01 C 327.65 72.48 325.27 76.36 322.92 79.94 C 321.11 82.00 319.25 84.02 317.44 86.08 C 315.24 87.67 312.98 89.19 310.78 90.78 C 309.33 89.77 307.81 88.85 306.29 87.94 C 305.81 82.54 307.70 77.40 308.98 72.25 C 310.29 69.65 313.46 68.95 316.13 69.50 C 318.57 69.16 319.98 71.36 322.04 72.17 C 321.85 71.66 321.49 70.63 321.31 70.12 C 320.62 68.57 317.88 67.27 319.47 65.43 Z" fill="#f1672b" opacity="1.00" stroke="#f1672b" stroke-width="0.25"/>
<path d="M 326.43 68.01 C 326.69 68.41 327.19 69.20 327.45 69.59 C 334.62 68.01 340.70 73.03 346.13 76.92 C 350.37 80.97 354.72 85.16 357.38 90.47 C 352.14 90.39 346.81 89.60 341.63 90.78 C 335.64 91.84 330.44 95.18 325.01 97.73 C 322.29 94.96 319.65 92.13 316.86 89.44 C 321.18 85.47 325.01 80.92 328.07 75.90 C 329.24 74.15 329.37 72.01 329.46 69.98 C 327.72 70.73 327.81 72.84 327.07 74.31 C 326.29 76.56 324.43 78.17 322.92 79.94 C 325.27 76.36 327.65 72.48 326.43 68.01 Z" fill="#7f574f" opacity="1.00" stroke="#7f574f" stroke-width="0.25"/>
<path d="M 140.34 84.35 C 145.42 78.65 151.72 73.66 159.17 71.58 C 167.54 69.57 175.95 74.37 180.73 81.04 C 181.23 82.97 179.15 83.84 178.10 85.05 C 167.24 94.88 157.98 106.74 152.50 120.41 C 147.69 133.25 146.12 147.01 145.27 160.58 C 140.83 167.03 134.22 171.76 127.56 175.72 C 127.29 171.82 129.18 167.94 127.88 164.11 C 125.76 164.59 123.97 165.90 121.93 166.55 C 116.55 167.40 110.36 165.88 106.91 161.45 C 113.07 159.56 116.91 153.60 118.39 147.62 C 119.10 141.42 118.21 135.17 118.49 128.94 C 119.62 111.94 128.08 95.99 140.34 84.35 Z" fill="#805850" opacity="1.00" stroke="#805850" stroke-width="0.25"/>
<path d="M 327.07 74.31 C 327.81 72.84 327.72 70.73 329.46 69.98 C 329.37 72.01 329.24 74.15 328.07 75.90 C 325.01 80.92 321.18 85.47 316.86 89.44 L 315.74 88.42 C 316.29 87.64 316.86 86.86 317.44 86.08 C 319.25 84.02 321.11 82.00 322.92 79.94 C 324.43 78.17 326.29 76.56 327.07 74.31 Z" fill="#4d2c27" opacity="1.00" stroke="#4d2c27" stroke-width="0.25"/>
<path d="M 305.46 81.56 C 306.25 83.53 305.95 85.68 305.96 87.74 L 306.29 87.94 C 307.81 88.85 309.33 89.77 310.78 90.78 C 311.48 91.29 312.18 91.80 312.87 92.32 C 313.83 91.03 314.79 89.73 315.74 88.42 L 316.86 89.44 C 319.65 92.13 322.29 94.96 325.01 97.73 C 330.44 95.18 335.64 91.84 341.63 90.78 C 346.70 90.78 351.79 90.36 356.84 91.05 C 357.15 91.43 357.77 92.19 358.07 92.57 C 350.82 92.08 343.17 91.33 336.29 94.24 C 331.59 96.13 326.84 98.28 323.08 101.75 C 328.63 106.52 331.98 113.46 332.67 120.70 L 332.91 120.71 C 335.84 120.88 338.77 121.06 341.69 121.40 C 341.83 121.69 342.12 122.26 342.27 122.54 C 338.99 122.93 334.86 121.33 332.22 123.75 C 336.12 124.34 340.13 125.00 343.47 127.28 C 343.51 127.76 343.59 128.72 343.63 129.21 C 338.99 126.45 333.60 125.27 328.24 125.96 C 328.12 126.81 327.89 128.50 327.77 129.35 C 326.87 128.65 325.98 127.95 325.09 127.25 C 324.04 128.10 323.00 128.96 321.96 129.82 C 322.90 131.13 323.83 132.45 324.77 133.76 C 325.49 133.57 326.95 133.19 327.67 132.99 L 327.86 133.62 C 327.98 135.71 327.71 137.87 328.27 139.91 C 330.04 142.93 332.57 145.53 335.45 147.50 C 337.71 149.07 340.50 147.58 342.56 146.40 C 343.06 146.07 343.55 145.72 344.04 145.36 C 346.67 143.55 348.81 141.03 351.83 139.81 C 351.46 139.45 351.09 139.10 350.73 138.75 L 349.81 137.88 C 349.21 137.15 348.63 136.42 348.05 135.69 C 348.43 135.47 349.19 135.02 349.57 134.79 C 351.29 136.69 352.96 138.65 354.60 140.63 L 354.18 141.17 C 351.96 142.28 349.63 143.23 347.78 144.93 C 346.52 145.93 345.28 146.94 343.95 147.84 C 341.53 148.97 338.93 150.37 336.17 149.80 C 333.64 148.94 331.77 146.87 330.01 144.96 C 327.08 141.91 326.22 137.44 322.97 134.64 C 317.86 136.25 312.47 137.92 307.08 136.80 C 299.07 135.68 292.52 129.12 290.46 121.44 C 287.17 110.12 287.56 97.61 291.71 86.57 C 293.80 82.84 298.74 84.99 301.84 86.11 C 302.84 86.54 303.85 86.99 304.84 87.45 C 304.99 85.48 305.16 83.52 305.46 81.56 Z" fill="#282e20" opacity="1.00" stroke="#282e20" stroke-width="0.25"/>
<path d="M 293.36 87.45 C 293.83 85.95 295.73 86.43 296.89 86.51 C 306.98 88.33 314.90 95.52 321.59 102.83 C 318.34 102.00 316.25 99.26 313.83 97.16 C 309.11 92.73 303.35 89.10 296.92 87.91 C 295.10 87.34 294.04 89.33 293.62 90.75 C 292.10 95.70 292.09 100.94 291.38 106.03 C 291.39 102.67 291.20 99.31 291.00 95.95 C 291.42 93.04 292.09 90.11 293.36 87.45 Z" fill="#d1b93c" opacity="1.00" stroke="#d1b93c" stroke-width="0.25"/>
<path d="M 310.78 90.78 C 312.98 89.19 315.24 87.67 317.44 86.08 C 316.86 86.86 316.29 87.64 315.74 88.42 C 314.79 89.73 313.83 91.03 312.87 92.32 C 312.18 91.80 311.48 91.29 310.78 90.78 Z" fill="#be6a4c" opacity="1.00" stroke="#be6a4c" stroke-width="0.25"/>
<path d="M 293.62 90.75 C 294.04 89.33 295.10 87.34 296.92 87.91 C 303.35 89.10 309.11 92.73 313.83 97.16 C 316.25 99.26 318.34 102.00 321.59 102.83 L 322.08 103.02 L 322.20 103.41 C 322.68 106.25 324.87 108.26 326.16 110.72 C 327.95 114.33 329.18 118.22 329.67 122.23 C 326.98 123.73 324.06 124.83 321.51 126.55 C 319.32 127.96 319.57 130.80 319.08 133.03 C 313.11 133.87 306.16 135.00 301.00 131.06 C 294.14 126.42 292.57 117.54 291.47 109.91 C 291.27 111.46 291.06 113.01 290.91 114.57 L 290.86 115.00 C 290.03 108.69 290.13 102.25 291.00 95.95 C 291.20 99.31 291.39 102.67 291.38 106.03 C 292.09 100.94 292.10 95.70 293.62 90.75 Z" fill="#ffcc0c" opacity="1.00" stroke="#ffcc0c" stroke-width="0.25"/>
<path d="M 314.35 92.99 C 313.57 91.05 316.47 92.22 316.90 93.10 C 319.10 95.17 321.24 97.41 322.52 100.19 C 319.45 98.30 316.26 96.04 314.35 92.99 Z" fill="#4c5157" opacity="1.00" stroke="#4c5157" stroke-width="0.25"/>
<path d="M 336.29 94.24 C 343.17 91.33 350.82 92.08 358.07 92.57 C 359.08 92.82 360.06 93.14 361.02 93.55 C 361.88 98.99 363.19 104.34 364.23 109.75 C 364.38 111.61 364.54 113.46 364.70 115.32 C 354.75 119.79 343.70 120.81 332.91 120.71 L 332.67 120.70 C 331.98 113.46 328.63 106.52 323.08 101.75 C 326.84 98.28 331.59 96.13 336.29 94.24 Z" fill="#f4682d" opacity="1.00" stroke="#f4682d" stroke-width="0.25"/>
<path d="M 361.02 93.55 C 361.39 93.65 362.12 93.85 362.49 93.95 C 363.89 97.79 364.61 101.84 365.25 105.87 C 364.91 107.16 364.57 108.45 364.23 109.75 C 363.19 104.34 361.88 98.99 361.02 93.55 Z" fill="#282e20" opacity="1.00" stroke="#282e20" stroke-width="0.25"/>
<path d="M 362.49 93.95 C 369.81 95.98 376.09 100.59 382.09 105.08 C 377.82 109.02 372.88 112.20 367.54 114.47 C 367.29 114.37 366.79 114.17 366.55 114.07 C 366.09 111.34 365.71 108.60 365.25 105.87 C 364.61 101.84 363.89 97.79 362.49 93.95 Z" fill="#6fca44" opacity="1.00" stroke="#6fca44" stroke-width="0.25"/>
<path d="M 297.29 101.27 C 299.82 100.03 302.95 101.32 304.60 103.38 C 304.78 104.77 305.26 106.79 303.74 107.61 C 302.25 108.74 300.32 108.58 298.57 108.73 C 297.60 106.36 296.51 103.87 297.29 101.27 Z" fill="#dfc130" opacity="1.00" stroke="#dfc130" stroke-width="0.25"/>
<path d="M 297.56 101.57 C 300.17 102.14 302.87 102.95 304.76 104.96 C 303.27 106.32 301.46 107.22 299.52 107.72 C 299.26 105.54 297.99 103.69 297.56 101.57 Z" fill="#514a05" opacity="1.00" stroke="#514a05" stroke-width="0.25"/>
<path d="M 300.31 104.23 C 303.24 102.55 300.68 107.49 300.31 104.23 Z" fill="#606d52" opacity="1.00" stroke="#606d52" stroke-width="0.25"/>
<path d="M 322.20 103.41 C 328.27 108.35 330.82 116.65 330.52 124.28 C 326.65 124.97 322.29 126.18 320.34 129.96 C 320.72 131.03 321.09 132.11 321.46 133.19 C 314.45 135.82 305.67 136.48 299.47 131.59 C 294.06 127.70 291.50 121.01 290.91 114.57 C 291.06 113.01 291.27 111.46 291.47 109.91 C 292.57 117.54 294.14 126.42 301.00 131.06 C 306.16 135.00 313.11 133.87 319.08 133.03 C 319.57 130.80 319.32 127.96 321.51 126.55 C 324.06 124.83 326.98 123.73 329.67 122.23 C 329.18 118.22 327.95 114.33 326.16 110.72 C 324.87 108.26 322.68 106.25 322.20 103.41 Z" fill="#cdb73d" opacity="1.00" stroke="#cdb73d" stroke-width="0.25"/>
<path d="M 365.25 105.87 C 365.71 108.60 366.09 111.34 366.55 114.07 C 366.79 114.17 367.29 114.37 367.54 114.47 C 368.34 114.78 369.13 115.10 369.93 115.42 C 362.24 118.46 354.34 121.08 346.11 122.13 C 346.66 124.72 347.30 127.30 348.00 129.86 C 347.33 129.93 345.98 130.07 345.30 130.14 C 344.74 129.82 344.18 129.51 343.63 129.21 C 343.59 128.72 343.51 127.76 343.47 127.28 C 343.30 125.65 342.82 124.07 342.27 122.54 C 342.12 122.26 341.83 121.69 341.69 121.40 C 338.77 121.06 335.84 120.88 332.91 120.71 C 343.70 120.81 354.75 119.79 364.70 115.32 C 364.54 113.46 364.38 111.61 364.23 109.75 C 364.57 108.45 364.91 107.16 365.25 105.87 Z" fill="#10233d" opacity="1.00" stroke="#10233d" stroke-width="0.25"/>
<path d="M 346.11 122.13 C 354.34 121.08 362.24 118.46 369.93 115.42 C 371.79 122.53 373.76 129.66 374.41 137.01 C 374.90 143.37 376.02 149.96 379.53 155.41 C 381.50 158.29 384.63 159.96 387.95 160.76 C 386.83 162.77 384.44 163.33 382.51 164.26 C 378.21 165.85 373.47 166.60 368.95 165.64 C 366.99 165.28 364.98 165.10 363.02 165.56 C 364.64 169.12 368.62 170.73 370.89 173.84 C 365.11 172.77 359.75 170.17 354.73 167.19 C 354.58 162.30 354.47 157.41 354.08 152.53 C 356.33 153.81 360.98 156.75 362.25 153.03 C 361.30 143.65 355.92 134.96 348.00 129.86 C 347.30 127.30 346.66 124.72 346.11 122.13 Z" fill="#7f564f" opacity="1.00" stroke="#7f564f" stroke-width="0.25"/>
<path d="M 332.22 123.75 C 334.86 121.33 338.99 122.93 342.27 122.54 C 342.82 124.07 343.30 125.65 343.47 127.28 C 340.13 125.00 336.12 124.34 332.22 123.75 Z" fill="#6a5e5f" opacity="1.00" stroke="#6a5e5f" stroke-width="0.25"/>
<path d="M 328.24 125.96 C 333.60 125.27 338.99 126.45 343.63 129.21 C 344.18 129.51 344.74 129.82 345.30 130.14 C 347.03 131.33 348.76 132.53 350.46 133.79 L 349.57 134.79 C 349.19 135.02 348.43 135.47 348.05 135.69 C 348.63 136.42 349.21 137.15 349.81 137.88 C 349.25 137.75 348.13 137.49 347.56 137.36 C 347.50 136.16 347.47 134.97 347.46 133.77 C 343.45 130.08 338.34 127.48 332.91 126.84 C 330.89 126.38 329.76 128.41 328.42 129.49 C 327.24 129.50 326.07 129.51 324.90 129.51 C 324.71 129.79 324.31 130.33 324.11 130.60 C 325.18 131.21 326.25 131.81 327.31 132.46 L 327.67 132.99 C 326.95 133.19 325.49 133.57 324.77 133.76 C 323.83 132.45 322.90 131.13 321.96 129.82 C 323.00 128.96 324.04 128.10 325.09 127.25 C 325.98 127.95 326.87 128.65 327.77 129.35 C 327.89 128.50 328.12 126.81 328.24 125.96 Z" fill="#ceb83b" opacity="1.00" stroke="#ceb83b" stroke-width="0.25"/>
<path d="M 328.42 129.49 C 329.76 128.41 330.89 126.38 332.91 126.84 C 338.34 127.48 343.45 130.08 347.46 133.77 C 347.47 134.97 347.50 136.16 347.56 137.36 C 348.13 137.49 349.25 137.75 349.81 137.88 L 350.73 138.75 C 348.92 141.35 346.41 143.31 344.04 145.36 C 343.55 145.72 343.06 146.07 342.56 146.40 C 340.51 146.46 338.45 146.74 336.41 146.57 C 331.74 143.77 328.75 138.95 327.86 133.62 L 327.67 132.99 L 327.31 132.46 C 326.25 131.81 325.18 131.21 324.11 130.60 C 324.31 130.33 324.71 129.79 324.90 129.51 C 326.07 129.51 327.24 129.50 328.42 129.49 Z" fill="#fecc0b" opacity="1.00" stroke="#fecc0b" stroke-width="0.25"/>
<path d="M 345.30 130.14 C 345.98 130.07 347.33 129.93 348.00 129.86 C 355.92 134.96 361.30 143.65 362.25 153.03 C 360.98 156.75 356.33 153.81 354.08 152.53 C 354.35 152.12 354.90 151.28 355.17 150.86 C 356.84 151.73 358.58 152.48 360.33 153.20 C 360.10 148.14 358.01 143.40 355.36 139.16 C 354.06 137.09 352.33 135.34 350.46 133.79 C 348.76 132.53 347.03 131.33 345.30 130.14 Z" fill="#282e20" opacity="1.00" stroke="#282e20" stroke-width="0.25"/>
<path d="M 327.86 133.62 C 328.75 138.95 331.74 143.77 336.41 146.57 C 338.45 146.74 340.51 146.46 342.56 146.40 C 340.50 147.58 337.71 149.07 335.45 147.50 C 332.57 145.53 330.04 142.93 328.27 139.91 C 327.71 137.87 327.98 135.71 327.86 133.62 Z" fill="#cfb63d" opacity="1.00" stroke="#cfb63d" stroke-width="0.25"/>
<path d="M 350.46 133.79 C 352.33 135.34 354.06 137.09 355.36 139.16 C 355.17 139.53 354.79 140.26 354.60 140.63 C 352.96 138.65 351.29 136.69 349.57 134.79 L 350.46 133.79 Z" fill="#acae65" opacity="1.00" stroke="#acae65" stroke-width="0.25"/>
<path d="M 280.65 138.05 C 284.77 148.37 291.30 158.57 301.54 163.69 C 309.50 168.03 318.92 168.58 327.76 167.62 C 329.61 182.53 329.43 197.60 328.22 212.56 C 326.85 226.57 324.05 241.54 314.20 252.28 C 301.60 266.18 283.40 273.99 265.01 276.38 C 246.03 279.10 226.10 277.25 208.47 269.42 C 194.23 262.73 180.93 252.39 174.02 237.92 C 169.26 228.56 167.07 218.18 165.30 207.91 C 168.51 209.59 170.72 213.11 174.61 213.67 C 174.10 210.36 172.41 207.40 171.79 204.13 C 169.28 188.49 173.50 172.95 176.08 157.63 C 177.69 159.82 178.61 164.49 182.17 163.38 C 183.76 156.53 186.72 150.09 190.17 143.99 C 190.62 152.07 194.44 160.16 201.02 165.02 C 204.98 167.70 209.96 165.95 213.73 163.80 C 219.21 160.45 223.93 155.95 227.96 150.97 C 229.14 149.61 229.89 147.78 231.57 146.93 C 234.59 156.36 241.28 165.31 251.06 168.30 C 260.61 171.18 270.97 172.41 280.81 170.44 C 281.40 170.97 281.98 171.51 282.58 172.05 C 281.13 172.51 279.68 173.00 278.25 173.50 C 277.45 176.99 279.24 180.67 283.05 181.10 C 288.36 181.17 293.74 179.64 299.03 180.92 C 303.92 181.65 307.57 185.33 312.20 186.77 C 316.18 184.24 314.46 179.17 311.44 176.64 C 303.68 169.90 292.24 169.02 282.66 171.72 C 282.70 171.33 282.76 170.54 282.79 170.14 C 283.66 167.46 282.64 164.71 282.56 162.00 C 282.00 154.01 280.74 146.05 280.65 138.05 Z" fill="#ffdeca" opacity="1.00" stroke="#ffdeca" stroke-width="0.25"/>
<path d="M 350.73 138.75 C 351.09 139.10 351.46 139.45 351.83 139.81 C 348.81 141.03 346.67 143.55 344.04 145.36 C 346.41 143.31 348.92 141.35 350.73 138.75 Z" fill="#f9dfce" opacity="1.00" stroke="#f9dfce" stroke-width="0.25"/>
<path d="M 355.36 139.16 C 358.01 143.40 360.10 148.14 360.33 153.20 C 358.58 152.48 356.84 151.73 355.17 150.86 C 352.40 149.33 349.82 147.48 347.07 145.92 L 347.78 144.93 C 349.63 143.23 351.96 142.28 354.18 141.17 L 354.60 140.63 C 354.79 140.26 355.17 139.53 355.36 139.16 Z" fill="#73cb43" opacity="1.00" stroke="#73cb43" stroke-width="0.25"/>
<path d="M 208.19 169.53 C 213.02 168.58 219.18 167.94 222.49 172.39 C 222.55 174.12 222.57 175.84 222.56 177.57 C 220.99 178.94 219.34 180.58 217.12 180.59 C 211.10 180.75 204.88 180.54 199.18 182.82 C 194.98 184.03 191.45 188.54 186.77 186.22 C 186.52 184.32 185.51 181.86 187.31 180.42 C 192.99 174.84 200.53 171.40 208.19 169.53 Z" fill="#393442" opacity="1.00" stroke="#393442" stroke-width="0.25"/>
<path d="M 280.30 169.96 C 280.79 169.92 281.77 169.83 282.26 169.78 L 282.79 170.14 C 282.76 170.54 282.70 171.33 282.66 171.72 C 292.24 169.02 303.68 169.90 311.44 176.64 C 314.46 179.17 316.18 184.24 312.20 186.77 C 307.57 185.33 303.92 181.65 299.03 180.92 C 293.74 179.64 288.36 181.17 283.05 181.10 C 279.24 180.67 277.45 176.99 278.25 173.50 C 279.68 173.00 281.13 172.51 282.58 172.05 C 281.98 171.51 281.40 170.97 280.81 170.44 L 280.30 169.96 Z" fill="#3a3441" opacity="1.00" stroke="#3a3441" stroke-width="0.25"/>
<path d="M 208.12 195.91 C 211.94 194.76 215.61 198.15 216.38 201.75 C 217.44 205.85 217.20 211.67 212.79 213.70 C 209.71 215.44 205.83 213.71 204.29 210.74 C 201.20 206.01 202.35 198.02 208.12 195.91 Z" fill="#052947" opacity="1.00" stroke="#052947" stroke-width="0.25"/>
<path d="M 285.17 200.19 C 287.51 198.29 290.68 198.57 293.10 200.15 C 293.84 201.45 294.63 202.72 295.35 204.05 C 296.30 208.60 295.65 214.45 291.11 216.86 L 290.33 217.39 C 289.46 217.36 287.72 217.31 286.85 217.28 C 280.31 214.38 280.27 204.60 285.17 200.19 Z" fill="#052849" opacity="1.00" stroke="#052849" stroke-width="0.25"/>
<path d="M 142.65 208.51 C 146.95 203.01 154.84 200.02 161.56 202.48 C 164.12 214.57 165.27 227.47 171.61 238.34 C 161.91 243.42 148.30 241.50 141.59 232.45 C 137.02 225.31 137.31 215.18 142.65 208.51 Z" fill="#feddc9" opacity="1.00" stroke="#feddc9" stroke-width="0.25"/>
<path d="M 331.37 204.66 C 335.05 203.11 339.01 201.94 343.04 202.48 C 349.25 203.52 354.95 207.46 358.07 212.93 C 360.28 218.04 359.99 224.16 357.57 229.16 C 354.66 235.46 347.92 239.61 341.02 239.78 C 335.93 240.42 330.96 238.96 326.26 237.16 C 329.15 226.54 330.48 215.61 331.37 204.66 Z" fill="#feddc9" opacity="1.00" stroke="#feddc9" stroke-width="0.25"/>
<path d="M 295.35 204.05 C 295.90 206.32 296.11 208.65 296.20 210.98 C 299.66 209.11 303.58 207.79 307.57 208.47 C 317.65 210.18 321.51 225.19 313.66 231.64 C 310.51 234.80 305.59 235.09 301.42 234.55 C 295.79 233.57 292.61 228.09 290.91 223.13 C 290.59 221.57 289.43 220.47 288.42 219.35 C 289.60 219.23 290.79 219.11 291.99 218.99 C 291.77 218.46 291.33 217.39 291.11 216.86 C 295.65 214.45 296.30 208.60 295.35 204.05 Z" fill="#fdc4b0" opacity="1.00" stroke="#fdc4b0" stroke-width="0.25"/>
<path d="M 247.96 204.91 C 249.11 205.35 250.29 205.90 250.70 207.17 C 253.19 211.85 256.22 216.23 258.53 221.02 C 258.21 221.58 257.58 222.70 257.27 223.27 C 252.67 224.86 246.60 226.80 242.40 223.55 L 242.68 222.96 C 247.02 222.53 251.74 223.29 255.88 221.19 C 255.34 220.22 254.80 219.26 254.26 218.29 C 252.22 213.85 248.36 209.90 247.96 204.91 Z" fill="#171c2e" opacity="1.00" stroke="#171c2e" stroke-width="0.25"/>
<path d="M 342.43 207.58 C 343.65 207.12 345.18 206.10 346.15 207.53 C 341.40 208.71 337.34 212.99 337.63 218.07 C 338.32 220.07 340.88 220.60 342.45 221.83 C 342.51 222.36 342.63 223.41 342.69 223.94 C 340.58 221.90 336.66 221.18 336.26 217.87 C 336.23 213.69 338.56 209.37 342.43 207.58 Z" fill="#282e20" opacity="1.00" stroke="#282e20" stroke-width="0.25"/>
<path d="M 191.26 209.58 C 193.86 209.66 196.51 210.05 198.89 211.14 C 201.09 213.73 204.40 216.16 204.19 219.93 C 204.43 225.17 203.38 231.53 198.33 234.31 C 194.27 236.25 189.17 237.10 185.00 235.03 C 181.07 232.33 177.42 228.04 177.76 222.97 C 177.19 215.67 184.24 209.51 191.26 209.58 Z" fill="#fdc5b2" opacity="1.00" stroke="#fdc5b2" stroke-width="0.25"/>
<path d="M 149.01 211.14 C 149.99 210.83 151.06 210.15 152.03 210.90 C 155.34 212.66 159.00 215.05 159.97 218.92 C 159.61 220.84 158.71 223.81 156.73 224.34 C 155.84 222.28 159.82 220.25 158.15 218.01 C 156.18 214.61 152.56 212.55 149.01 211.14 Z" fill="#282e20" opacity="1.00" stroke="#282e20" stroke-width="0.25"/>
<path d="M 189.33 216.32 C 195.98 212.64 201.10 224.85 195.05 228.16 C 191.58 230.56 186.55 229.13 184.34 225.74 C 183.56 221.82 186.28 218.40 189.33 216.32 Z" fill="#fbac9b" opacity="1.00" stroke="#fbac9b" stroke-width="0.25"/>
<path d="M 302.32 216.28 C 308.03 212.91 312.77 221.78 309.14 226.10 C 306.35 231.13 298.98 226.53 298.62 222.01 C 297.70 219.19 300.12 217.39 302.32 216.28 Z" fill="#fbac99" opacity="1.00" stroke="#fbac99" stroke-width="0.25"/>
<path d="M 254.26 218.29 C 254.80 219.26 255.34 220.22 255.88 221.19 C 251.74 223.29 247.02 222.53 242.68 222.96 L 242.40 223.55 C 242.39 223.25 242.38 222.67 242.37 222.38 C 246.33 222.28 251.37 223.43 254.42 220.28 C 254.38 219.78 254.30 218.79 254.26 218.29 Z" fill="#bcf1f9" opacity="1.00" stroke="#bcf1f9" stroke-width="0.25"/>
<path d="M 220.78 224.13 C 223.51 224.52 225.65 226.37 228.11 227.44 C 239.57 232.74 252.59 234.34 265.07 232.69 C 270.55 232.21 275.89 230.81 281.30 229.87 C 285.29 243.64 276.36 259.28 262.90 263.71 C 250.14 268.05 234.60 264.69 225.58 254.46 C 218.52 246.45 215.39 233.80 220.78 224.13 Z" fill="#171c2e" opacity="1.00" stroke="#171c2e" stroke-width="0.25"/>
<path d="M 221.76 227.13 C 231.01 232.22 241.30 235.70 251.97 235.78 C 261.27 236.41 270.48 234.81 279.57 233.06 C 281.74 247.27 270.25 261.62 255.94 262.65 C 246.95 263.54 237.32 261.62 230.43 255.46 C 222.09 248.98 218.60 237.14 221.76 227.13 Z" fill="#f98b80" opacity="1.00" stroke="#f98b80" stroke-width="0.25"/>
<path d="M 262.29 279.52 C 272.14 278.38 282.01 276.18 291.12 272.12 C 309.27 288.71 323.79 309.03 335.00 330.85 C 338.00 336.76 341.78 343.04 340.64 349.95 C 333.66 353.79 325.91 356.73 317.84 356.53 L 317.07 356.10 C 311.64 343.33 305.52 330.85 299.30 318.45 C 293.33 309.86 294.36 298.59 289.35 289.60 C 289.51 296.52 291.88 303.08 293.27 309.81 C 297.05 333.21 298.96 356.85 301.51 380.40 C 293.55 382.74 285.43 384.62 277.20 385.77 C 274.27 386.14 271.33 386.44 268.38 386.57 C 264.23 386.04 259.00 388.56 255.96 384.69 C 255.91 384.28 255.81 383.47 255.76 383.07 C 258.51 384.31 258.55 379.90 255.81 381.35 L 255.90 380.86 C 258.81 378.65 257.41 374.52 257.51 371.40 C 257.04 371.19 256.10 370.78 255.63 370.58 L 255.63 370.41 C 258.43 368.85 257.77 365.26 257.52 362.62 C 257.04 362.25 256.07 361.52 255.59 361.15 L 255.45 360.66 C 257.00 360.05 256.95 359.50 255.29 359.01 C 255.31 358.40 255.34 357.18 255.36 356.57 C 255.83 356.38 256.77 355.99 257.24 355.79 C 257.07 354.36 256.37 353.07 255.60 351.89 L 255.78 351.66 C 256.15 351.19 256.89 350.27 257.26 349.81 C 255.69 341.97 257.08 333.97 256.26 326.07 C 256.23 321.78 255.16 317.55 255.61 313.26 C 256.17 306.27 254.61 299.06 256.77 292.25 C 258.15 289.89 260.94 288.69 262.31 286.31 C 263.05 284.41 263.22 282.36 263.61 280.38 C 263.20 280.20 262.39 279.84 261.99 279.66 L 262.29 279.52 Z" fill="#f991aa" opacity="1.00" stroke="#f991aa" stroke-width="0.25"/>
<path d="M 203.46 285.41 C 206.84 281.67 209.82 277.53 213.76 274.34 C 219.24 276.75 225.19 277.94 231.08 278.92 C 231.27 279.05 231.67 279.29 231.86 279.41 C 234.80 281.35 238.58 280.16 241.88 280.68 C 242.89 285.03 244.00 290.08 248.60 291.99 C 248.35 296.44 249.72 300.81 248.98 305.25 C 249.49 309.19 249.06 313.81 251.90 316.95 C 252.13 318.22 252.11 319.51 251.43 320.67 C 249.55 323.73 251.16 327.28 250.91 330.59 C 250.38 337.63 251.05 344.67 251.22 351.71 C 251.45 363.06 251.53 374.42 251.50 385.78 C 244.97 387.85 238.25 385.03 231.64 386.18 C 223.43 385.60 215.53 383.00 207.47 381.47 C 207.63 370.32 209.03 359.25 209.74 348.13 C 211.02 335.96 211.76 323.71 213.67 311.61 C 214.65 305.59 216.04 299.63 216.52 293.54 L 214.75 293.50 C 213.59 301.04 212.23 308.57 210.58 316.01 C 206.47 322.57 203.68 329.84 200.29 336.78 C 197.61 343.29 193.99 349.44 192.06 356.24 C 191.57 356.48 190.58 356.96 190.09 357.20 C 182.21 356.49 174.58 354.05 167.62 350.34 C 167.29 346.77 167.61 343.14 169.12 339.86 C 177.79 320.15 189.42 301.74 203.46 285.41 Z" fill="#f991aa" opacity="1.00" stroke="#f991aa" stroke-width="0.25"/>
<path d="M 259.30 280.25 C 260.14 280.02 261.83 279.57 262.68 279.34 L 262.29 279.52 L 261.99 279.66 C 261.80 279.72 261.43 279.84 261.24 279.90 C 261.35 282.02 261.29 284.24 260.09 286.08 C 258.95 288.88 255.81 289.68 253.35 290.89 C 253.78 301.85 253.47 312.83 254.20 323.79 C 253.25 322.76 252.33 321.71 251.43 320.67 C 252.11 319.51 252.13 318.22 251.90 316.95 C 251.45 308.26 251.41 299.55 251.23 290.85 C 249.91 289.99 248.60 289.14 247.35 288.21 C 247.90 287.99 249.00 287.53 249.55 287.31 C 251.52 287.70 253.74 288.91 255.61 287.57 C 258.42 286.23 258.60 282.88 259.30 280.25 Z" fill="#120c29" opacity="1.00" stroke="#120c29" stroke-width="0.25"/>
<path d="M 231.86 279.41 C 236.02 279.62 240.24 279.50 244.33 280.40 C 244.41 283.22 245.20 286.25 247.35 288.21 C 248.60 289.14 249.91 289.99 251.23 290.85 C 251.41 299.55 251.45 308.26 251.90 316.95 C 249.06 313.81 249.49 309.19 248.98 305.25 C 249.72 300.81 248.35 296.44 248.60 291.99 C 244.00 290.08 242.89 285.03 241.88 280.68 C 238.58 280.16 234.80 281.35 231.86 279.41 Z" fill="#edb6d0" opacity="1.00" stroke="#edb6d0" stroke-width="0.25"/>
<path d="M 246.48 280.32 C 250.75 280.23 255.02 280.11 259.30 280.25 C 258.60 282.88 258.42 286.23 255.61 287.57 C 253.74 288.91 251.52 287.70 249.55 287.31 C 247.61 285.48 246.75 282.90 246.48 280.32 Z" fill="#f9dfce" opacity="1.00" stroke="#f9dfce" stroke-width="0.25"/>
<path d="M 261.24 279.90 C 261.43 279.84 261.80 279.72 261.99 279.66 C 262.39 279.84 263.20 280.20 263.61 280.38 C 263.22 282.36 263.05 284.41 262.31 286.31 C 260.94 288.69 258.15 289.89 256.77 292.25 C 254.61 299.06 256.17 306.27 255.61 313.26 C 255.16 317.55 256.23 321.78 256.26 326.07 C 257.08 333.97 255.69 341.97 257.26 349.81 C 256.89 350.27 256.15 351.19 255.78 351.66 C 255.39 350.78 255.02 349.90 254.66 349.02 C 254.96 340.78 253.87 332.52 254.56 324.30 C 253.97 324.05 252.77 323.56 252.17 323.31 C 252.52 344.70 253.25 366.05 253.83 387.43 L 253.75 387.68 C 246.35 387.65 238.97 387.23 231.64 386.18 C 238.25 385.03 244.97 387.85 251.50 385.78 C 251.53 374.42 251.45 363.06 251.22 351.71 C 251.05 344.67 250.38 337.63 250.91 330.59 C 251.16 327.28 249.55 323.73 251.43 320.67 C 252.33 321.71 253.25 322.76 254.20 323.79 C 253.47 312.83 253.78 301.85 253.35 290.89 C 255.81 289.68 258.95 288.88 260.09 286.08 C 261.29 284.24 261.35 282.02 261.24 279.90 Z" fill="#edb6d0" opacity="1.00" stroke="#edb6d0" stroke-width="0.25"/>
<path d="M 214.75 293.50 L 216.52 293.54 C 216.04 299.63 214.65 305.59 213.67 311.61 C 212.92 313.28 213.37 316.94 210.58 316.01 C 212.23 308.57 213.59 301.04 214.75 293.50 Z" fill="#171c2e" opacity="1.00" stroke="#171c2e" stroke-width="0.25"/>
<path d="M 252.17 323.31 C 252.77 323.56 253.97 324.05 254.56 324.30 C 253.87 332.52 254.96 340.78 254.66 349.02 C 254.12 360.36 255.56 371.70 255.05 383.05 C 255.03 384.59 254.36 386.01 253.83 387.43 C 253.25 366.05 252.52 344.70 252.17 323.31 Z" fill="#120c29" opacity="1.00" stroke="#120c29" stroke-width="0.25"/>
<path d="M 254.66 349.02 C 255.02 349.90 255.39 350.78 255.78 351.66 L 255.60 351.89 C 254.75 353.28 255.35 355.04 255.36 356.57 C 255.34 357.18 255.31 358.40 255.29 359.01 C 255.33 359.42 255.41 360.25 255.45 360.66 L 255.59 361.15 C 255.44 364.23 255.43 367.33 255.63 370.41 L 255.63 370.58 C 255.52 374.00 255.67 377.43 255.90 380.86 L 255.81 381.35 C 255.80 381.78 255.77 382.64 255.76 383.07 C 255.81 383.47 255.91 384.28 255.96 384.69 C 256.04 385.32 256.20 386.58 256.29 387.21 C 260.33 387.28 264.35 386.82 268.38 386.57 C 271.33 386.44 274.27 386.14 277.20 385.77 L 276.57 386.63 C 268.97 387.07 261.38 389.18 253.75 387.68 L 253.83 387.43 C 254.36 386.01 255.03 384.59 255.05 383.05 C 255.56 371.70 254.12 360.36 254.66 349.02 Z" fill="#393442" opacity="1.00" stroke="#393442" stroke-width="0.25"/>
<path d="M 255.36 356.57 C 255.35 355.04 254.75 353.28 255.60 351.89 C 256.37 353.07 257.07 354.36 257.24 355.79 C 256.77 355.99 255.83 356.38 255.36 356.57 Z" fill="#fbb6ce" opacity="1.00" stroke="#fbb6ce" stroke-width="0.25"/>
<path d="M 334.99 355.96 C 337.35 355.01 339.43 353.32 342.02 353.03 C 344.65 356.66 347.94 359.83 349.96 363.88 C 346.75 363.59 344.99 359.86 341.83 359.86 L 341.49 361.03 C 343.45 363.91 346.54 366.33 346.95 370.00 C 344.19 367.60 342.24 363.45 338.19 363.20 C 337.65 367.05 340.63 370.18 340.56 373.97 C 337.79 372.15 336.46 368.98 334.57 366.40 C 334.05 366.37 332.99 366.32 332.47 366.29 C 332.32 369.12 332.37 371.95 332.49 374.79 L 331.09 374.30 C 329.07 371.22 327.62 367.81 326.18 364.43 C 325.73 364.40 324.82 364.35 324.37 364.32 C 322.89 366.85 321.07 369.20 318.73 370.99 C 318.34 367.17 319.17 363.41 319.63 359.65 C 324.90 359.17 330.09 357.96 334.99 355.96 Z" fill="#fddeca" opacity="1.00" stroke="#fddeca" stroke-width="0.25"/>
<path d="M 157.94 364.71 C 160.64 360.67 163.66 356.85 166.92 353.24 C 174.02 356.48 181.42 359.54 189.33 359.82 C 190.08 363.20 190.59 366.62 190.73 370.08 C 187.69 369.64 186.89 366.12 184.62 364.49 C 182.61 363.58 182.09 366.29 181.32 367.56 C 179.79 370.45 179.17 374.39 176.23 376.20 C 176.18 372.91 176.34 369.63 176.40 366.34 C 171.58 365.62 172.37 373.11 168.10 373.90 C 168.82 370.47 170.16 367.18 170.37 363.66 C 166.13 363.29 164.98 368.77 161.27 369.66 C 162.74 366.14 166.27 363.41 166.64 359.57 C 163.05 360.03 161.78 365.33 157.94 364.71 Z" fill="#fddfce" opacity="1.00" stroke="#fddfce" stroke-width="0.25"/>
<path d="M 255.29 359.01 C 256.95 359.50 257.00 360.05 255.45 360.66 C 255.41 360.25 255.33 359.42 255.29 359.01 Z" fill="#ffc5dd" opacity="1.00" stroke="#ffc5dd" stroke-width="0.25"/>
<path d="M 255.59 361.15 C 256.07 361.52 257.04 362.25 257.52 362.62 C 257.77 365.26 258.43 368.85 255.63 370.41 C 255.43 367.33 255.44 364.23 255.59 361.15 Z" fill="#f6b1c9" opacity="1.00" stroke="#f6b1c9" stroke-width="0.25"/>
<path d="M 255.63 370.58 C 256.10 370.78 257.04 371.19 257.51 371.40 C 257.41 374.52 258.81 378.65 255.90 380.86 C 255.67 377.43 255.52 374.00 255.63 370.58 Z" fill="#f4b2ca" opacity="1.00" stroke="#f4b2ca" stroke-width="0.25"/>
<path d="M 255.81 381.35 C 258.55 379.90 258.51 384.31 255.76 383.07 C 255.77 382.64 255.80 381.78 255.81 381.35 Z" fill="#fabdd4" opacity="1.00" stroke="#fabdd4" stroke-width="0.25"/>
<path d="M 259.10 390.23 C 271.89 389.62 284.80 388.08 297.09 384.42 C 297.45 396.11 297.12 407.83 297.35 419.53 C 293.14 419.68 288.93 419.64 284.73 420.04 C 277.61 420.64 270.44 420.00 263.32 420.53 C 261.59 410.49 260.42 400.34 259.10 390.23 Z" fill="#85e7ff" opacity="1.00" stroke="#85e7ff" stroke-width="0.25"/>
<path d="M 212.34 385.30 C 224.76 389.01 237.90 390.08 250.82 390.37 C 250.16 400.41 248.79 410.39 248.20 420.44 C 239.16 420.93 230.08 420.83 221.03 420.49 C 218.25 420.30 215.39 420.51 212.73 419.53 C 213.01 408.12 211.93 396.71 212.34 385.30 Z" fill="#84e6ff" opacity="1.00" stroke="#84e6ff" stroke-width="0.25"/>
<path d="M 255.96 384.69 C 259.00 388.56 264.23 386.04 268.38 386.57 C 264.35 386.82 260.33 387.28 256.29 387.21 C 256.20 386.58 256.04 385.32 255.96 384.69 Z" fill="#ffffff" opacity="1.00" stroke="#ffffff" stroke-width="0.25"/>
<path d="M 253.69 390.37 C 254.57 390.37 255.45 390.36 256.34 390.36 C 257.77 400.95 259.12 411.54 260.69 422.10 C 261.08 422.32 261.87 422.77 262.27 422.99 C 263.13 428.02 263.01 433.22 262.34 438.28 C 258.16 438.21 253.97 438.51 249.80 438.16 C 247.10 436.07 248.97 431.83 248.51 428.81 C 248.80 426.76 248.09 424.30 249.52 422.59 C 250.95 420.97 250.73 418.68 251.10 416.70 C 251.82 407.91 252.93 399.16 253.69 390.37 Z" fill="#fdffff" opacity="1.00" stroke="#fdffff" stroke-width="0.25"/>
<path d="M 223.56 423.40 C 230.98 423.69 238.41 423.69 245.83 423.39 C 245.76 425.74 245.71 428.09 245.69 430.45 C 238.41 430.29 231.14 429.95 223.87 429.78 C 223.75 427.65 223.64 425.52 223.56 423.40 Z" fill="#f8ddcd" opacity="1.00" stroke="#f8ddcd" stroke-width="0.25"/>
<path d="M 265.44 423.20 C 273.09 423.34 280.71 422.71 288.36 422.70 C 288.27 425.24 288.19 427.77 288.11 430.31 C 280.64 430.28 273.16 430.17 265.69 430.24 C 265.56 427.89 265.51 425.54 265.44 423.20 Z" fill="#fadcca" opacity="1.00" stroke="#fadcca" stroke-width="0.25"/>
<path d="M 248.51 428.81 C 248.97 431.83 247.10 436.07 249.80 438.16 C 253.97 438.51 258.16 438.21 262.34 438.28 C 261.90 441.25 261.59 444.25 261.60 447.26 C 267.69 449.14 273.87 450.70 280.08 452.11 C 285.44 453.28 290.81 455.01 296.37 454.53 C 297.66 450.08 295.29 445.84 294.20 441.62 C 297.62 441.60 301.04 442.68 304.44 441.87 C 310.33 441.74 316.12 443.60 321.88 444.71 C 328.59 446.46 335.82 448.12 341.07 452.93 C 343.26 454.49 342.53 457.37 342.53 459.66 C 337.56 464.74 330.56 466.68 323.95 468.59 C 308.30 472.58 292.15 474.33 276.04 474.77 C 266.39 476.01 256.63 475.36 246.94 475.51 C 238.57 475.79 230.31 474.27 221.95 474.36 C 204.29 472.43 185.95 471.07 169.76 463.08 C 167.26 461.41 163.82 458.95 164.71 455.49 C 165.60 452.99 167.82 451.38 170.12 450.29 C 177.58 446.05 186.17 444.67 194.44 442.84 C 201.89 441.73 209.34 440.29 216.89 440.28 C 215.21 443.86 213.16 447.28 211.88 451.03 C 211.16 452.93 211.25 455.61 213.35 456.60 C 217.17 458.29 221.50 458.49 225.61 458.00 C 232.29 457.31 239.13 455.68 244.57 451.54 C 246.08 450.35 248.20 449.20 248.23 447.00 C 248.78 440.95 248.07 434.87 248.51 428.81 Z" fill="#84e6ff" opacity="1.00" stroke="#84e6ff" stroke-width="0.25"/>
<path d="M 224.30 432.48 C 231.42 432.80 238.55 432.95 245.66 433.48 C 245.82 438.21 245.73 442.95 245.62 447.68 C 242.09 450.59 238.05 453.37 233.34 453.69 C 233.58 453.36 234.08 452.69 234.32 452.36 C 237.93 451.02 241.51 449.53 244.61 447.20 C 244.92 442.92 244.92 438.64 244.60 434.37 C 237.99 434.12 231.36 434.12 224.78 433.34 C 223.08 436.42 221.37 439.50 219.22 442.29 C 220.26 438.72 222.28 435.56 224.30 432.48 Z" fill="#ae7a97" opacity="1.00" stroke="#ae7a97" stroke-width="0.25"/>
<path d="M 265.49 433.25 C 267.09 432.12 269.17 432.74 270.99 432.63 C 276.74 432.92 282.55 432.55 288.25 433.54 C 280.67 434.10 273.08 433.22 265.49 433.25 Z" fill="#81607d" opacity="1.00" stroke="#81607d" stroke-width="0.25"/>
<path d="M 224.78 433.34 C 231.36 434.12 237.99 434.12 244.60 434.37 C 244.92 438.64 244.92 442.92 244.61 447.20 C 241.51 449.53 237.93 451.02 234.32 452.36 C 234.08 452.69 233.58 453.36 233.34 453.69 L 233.03 454.11 C 226.76 455.04 220.31 456.31 214.08 454.43 C 214.41 449.94 217.14 446.14 219.22 442.29 C 221.37 439.50 223.08 436.42 224.78 433.34 Z" fill="#f890a9" opacity="1.00" stroke="#f890a9" stroke-width="0.25"/>
<path d="M 265.49 433.25 C 273.08 433.22 280.67 434.10 288.25 433.54 C 290.13 439.64 292.87 445.55 293.86 451.89 C 283.77 450.91 274.16 447.41 264.31 445.22 C 264.82 441.24 265.75 437.29 265.49 433.25 Z" fill="#f78fa8" opacity="1.00" stroke="#f78fa8" stroke-width="0.25"/>
<path d="M 292.91 437.98 C 296.13 440.91 301.54 438.57 304.44 441.87 C 301.04 442.68 297.62 441.60 294.20 441.62 C 293.79 440.40 293.34 439.18 292.91 437.98 Z" fill="#bcf1f9" opacity="1.00" stroke="#bcf1f9" stroke-width="0.25"/>
</svg>