<svg xmlns="http://www.w3.org/2000/svg" height="512pt" version="1.1" viewBox="0 0 512 512" width="512pt">

<path d="M 150.07 70.59 C 154.03 68.96 157.45 72.06 158.33 75.77 C 158.50 77.50 158.70 79.23 158.82 80.97 C 158.87 86.32 159.27 91.66 159.47 97.00 C 159.70 102.47 158.30 108.13 160.29 113.40 C 161.85 109.38 162.10 105.06 161.60 100.81 C 161.86 94.22 162.61 87.62 163.59 81.08 C 163.92 78.87 165.38 76.16 167.93 76.20 C 171.77 75.61 173.84 79.91 174.21 83.09 C 175.62 95.06 173.81 107.10 174.26 119.09 C 174.27 122.58 175.61 125.81 176.74 129.04 C 181.91 124.17 186.43 117.97 193.54 115.85 C 197.17 115.01 201.88 114.93 204.27 118.35 C 206.28 120.74 205.02 124.26 202.76 125.98 C 194.23 132.58 187.64 141.40 182.55 150.84 C 179.95 155.13 176.31 158.97 171.65 160.99 C 171.23 167.01 172.07 172.99 172.68 178.96 C 176.31 208.28 180.79 237.61 188.46 266.17 C 195.91 266.20 203.39 266.94 210.71 268.28 C 211.67 269.26 212.59 270.30 213.52 271.33 C 214.64 289.54 214.24 307.84 212.07 325.95 C 210.95 328.01 209.83 330.08 208.86 332.21 C 212.33 312.02 213.33 291.28 211.49 270.86 C 204.02 270.28 196.59 269.06 189.07 269.08 C 190.85 277.25 193.33 285.28 194.54 293.57 C 193.91 293.60 192.66 293.66 192.03 293.68 C 187.34 273.21 181.68 252.95 177.92 232.26 C 174.45 213.50 171.67 194.61 169.50 175.65 C 169.08 170.53 168.01 165.28 169.21 160.20 C 171.44 157.69 174.79 156.43 176.95 153.80 C 180.08 150.03 182.25 145.58 184.78 141.39 C 189.84 134.90 195.28 128.68 201.63 123.42 C 204.20 121.07 200.84 117.55 198.14 117.63 C 192.90 117.32 188.38 120.42 184.62 123.71 C 181.27 126.41 178.98 130.30 175.09 132.34 C 174.30 130.07 173.47 127.80 172.73 125.51 C 171.97 123.09 171.44 120.59 171.39 118.05 C 171.06 106.03 172.93 93.92 171.24 81.96 C 171.07 79.59 169.02 78.33 166.82 78.20 C 164.06 90.11 164.79 102.53 162.29 114.49 C 161.34 114.53 159.43 114.61 158.48 114.65 C 156.68 106.23 158.14 97.55 157.08 89.04 C 156.25 83.33 157.02 76.92 153.24 72.08 C 152.62 72.58 151.39 73.56 150.78 74.05 C 150.55 83.71 150.43 93.38 151.18 103.02 C 151.23 107.36 151.96 112.14 149.34 115.94 C 148.66 115.49 147.32 114.60 146.65 114.15 C 144.26 101.60 145.79 88.54 142.47 76.16 C 141.96 76.19 140.95 76.24 140.44 76.27 L 139.55 76.34 C 137.78 84.44 138.64 92.80 138.63 101.02 C 138.66 106.20 139.92 111.41 138.76 116.55 C 138.14 116.54 136.88 116.52 136.25 116.52 C 132.45 108.87 130.49 100.48 126.94 92.74 C 126.46 91.18 124.97 90.63 123.60 90.12 C 122.92 97.98 125.06 105.68 126.09 113.41 C 127.86 122.96 127.29 132.83 129.94 142.24 C 132.05 149.36 134.09 156.50 136.31 163.58 C 136.73 168.24 135.67 172.83 134.97 177.41 C 133.61 187.55 132.07 197.67 131.28 207.88 C 128.90 226.48 128.87 245.28 129.25 264.01 C 129.68 284.32 133.07 304.45 137.81 324.17 C 147.08 331.24 157.88 335.77 168.58 340.18 C 179.34 344.05 189.94 348.86 201.29 350.70 C 203.28 351.57 203.00 348.65 203.71 347.63 C 203.72 348.42 203.72 350.02 203.72 350.81 C 203.12 351.76 202.52 352.71 201.92 353.67 C 193.02 352.75 184.65 348.81 176.15 346.08 C 162.08 340.80 148.02 334.95 135.66 326.29 C 134.72 322.53 133.84 318.76 132.91 315.01 C 121.86 267.37 125.77 217.85 133.45 170.02 C 134.64 165.07 132.05 160.47 131.16 155.73 L 130.81 155.11 C 128.65 147.17 125.99 139.29 125.39 131.04 C 124.76 123.69 124.27 116.33 122.90 109.07 C 122.11 103.05 120.60 97.00 121.31 90.89 C 121.26 87.70 126.26 86.36 127.77 89.23 C 131.87 95.91 133.89 103.64 136.50 110.97 C 136.31 100.28 135.64 89.55 136.47 78.88 C 136.80 76.49 138.01 73.12 140.96 73.35 C 142.94 72.93 144.22 74.42 145.37 75.75 C 146.69 81.11 147.25 86.63 146.99 92.15 C 146.37 98.80 147.16 105.45 147.81 112.06 C 148.26 112.30 149.15 112.78 149.59 113.02 C 149.50 99.66 149.07 86.30 148.76 72.95 C 149.09 72.36 149.74 71.18 150.07 70.59 Z" fill="#142c42" opacity="1.00" stroke="#142c42" stroke-width="0.25" data-index="1" style="opacity: 1;"></path>
<path d="M 148.12 84.09 C 148.22 80.37 148.37 76.65 148.76 72.95 C 149.07 86.30 149.50 99.66 149.59 113.02 C 149.15 112.78 148.26 112.30 147.81 112.06 C 147.16 105.45 146.37 98.80 146.99 92.15 C 147.43 89.47 147.69 86.77 148.12 84.09 Z" fill="#05395c" opacity="1.00" stroke="#05395c" stroke-width="0.25" data-index="2"></path>
<path d="M 150.78 74.05 C 151.39 73.56 152.62 72.58 153.24 72.08 C 157.02 76.92 156.25 83.33 157.08 89.04 C 158.14 97.55 156.68 106.23 158.48 114.65 C 159.43 114.61 161.34 114.53 162.29 114.49 C 164.79 102.53 164.06 90.11 166.82 78.20 C 169.02 78.33 171.07 79.59 171.24 81.96 C 172.93 93.92 171.06 106.03 171.39 118.05 C 171.44 120.59 171.97 123.09 172.73 125.51 C 172.13 126.80 171.52 128.09 170.91 129.39 C 163.76 132.17 157.20 139.79 158.57 147.83 C 160.57 142.87 162.16 137.31 166.52 133.82 C 170.25 132.59 174.21 132.58 178.05 133.17 C 180.98 130.37 183.41 127.10 186.27 124.23 C 189.46 120.91 194.63 121.62 198.68 122.58 C 198.12 124.78 196.15 126.15 194.70 127.76 C 190.84 131.84 186.44 135.83 184.78 141.39 C 182.25 145.58 180.08 150.03 176.95 153.80 C 174.79 156.43 171.44 157.69 169.21 160.20 C 168.01 165.28 169.08 170.53 169.50 175.65 C 171.67 194.61 174.45 213.50 177.92 232.26 C 181.68 252.95 187.34 273.21 192.03 293.68 C 192.66 293.66 193.91 293.60 194.54 293.57 C 193.33 285.28 190.85 277.25 189.07 269.08 C 196.59 269.06 204.02 270.28 211.49 270.86 C 213.33 291.28 212.33 312.02 208.86 332.21 C 207.19 337.37 204.71 342.27 203.71 347.63 C 203.00 348.65 203.28 351.57 201.29 350.70 C 189.94 348.86 179.34 344.05 168.58 340.18 C 157.88 335.77 147.08 331.24 137.81 324.17 C 133.07 304.45 129.68 284.32 129.25 264.01 C 128.87 245.28 128.90 226.48 131.28 207.88 C 132.07 197.67 133.61 187.55 134.97 177.41 C 135.67 172.83 136.73 168.24 136.31 163.58 C 136.39 159.56 135.97 155.49 134.24 151.80 C 130.02 142.10 129.12 131.41 128.89 120.95 C 128.77 115.41 124.98 109.19 128.88 104.20 C 131.60 109.34 132.41 115.61 136.99 119.61 C 138.87 118.26 140.78 116.65 140.40 114.06 C 140.49 101.47 139.97 88.86 140.44 76.27 C 140.95 76.24 141.96 76.19 142.47 76.16 C 145.79 88.54 144.26 101.60 146.65 114.15 C 147.32 114.60 148.66 115.49 149.34 115.94 C 151.96 112.14 151.23 107.36 151.18 103.02 C 150.43 93.38 150.55 83.71 150.78 74.05 Z" fill="#fa9d7b" opacity="1.00" stroke="#fa9d7b" stroke-width="0.25" data-index="3" style="opacity: 1;"></path>
<path d="M 139.55 76.34 L 140.44 76.27 C 139.97 88.86 140.49 101.47 140.40 114.06 C 140.78 116.65 138.87 118.26 136.99 119.61 C 132.41 115.61 131.60 109.34 128.88 104.20 C 124.98 109.19 128.77 115.41 128.89 120.95 C 129.12 131.41 130.02 142.10 134.24 151.80 C 135.97 155.49 136.39 159.56 136.31 163.58 C 134.09 156.50 132.05 149.36 129.94 142.24 C 127.29 132.83 127.86 122.96 126.09 113.41 C 125.06 105.68 122.92 97.98 123.60 90.12 C 124.97 90.63 126.46 91.18 126.94 92.74 C 130.49 100.48 132.45 108.87 136.25 116.52 C 136.88 116.52 138.14 116.54 138.76 116.55 C 139.92 111.41 138.66 106.20 138.63 101.02 C 138.64 92.80 137.78 84.44 139.55 76.34 Z" fill="#f0a07f" opacity="1.00" stroke="#f0a07f" stroke-width="0.25" data-index="4"></path>
<path d="M 158.82 80.97 C 160.26 88.88 160.23 96.97 160.57 104.99 C 160.95 103.60 161.28 102.21 161.60 100.81 C 162.10 105.06 161.85 109.38 160.29 113.40 C 158.30 108.13 159.70 102.47 159.47 97.00 C 159.27 91.66 158.87 86.32 158.82 80.97 Z" fill="#073d61" opacity="1.00" stroke="#073d61" stroke-width="0.25" data-index="5"></path>

<path d="M 270.29 108.07 C 270.82 108.11 271.88 108.20 272.40 108.25 C 273.15 113.72 273.69 119.21 273.80 124.73 C 273.26 124.71 272.17 124.67 271.63 124.65 C 270.93 119.14 270.24 113.62 270.29 108.07 Z" fill="#0e3048" opacity="1.00" stroke="#0e3048" stroke-width="0.25" data-index="7" style="visibility: hidden; opacity: 1;"></path>
<path d="M 184.62 123.71 C 188.38 120.42 192.90 117.32 198.14 117.63 C 200.84 117.55 204.20 121.07 201.63 123.42 C 195.28 128.68 189.84 134.90 184.78 141.39 C 186.44 135.83 190.84 131.84 194.70 127.76 C 196.15 126.15 198.12 124.78 198.68 122.58 C 194.63 121.62 189.46 120.91 186.27 124.23 C 183.41 127.10 180.98 130.37 178.05 133.17 C 174.21 132.58 170.25 132.59 166.52 133.82 C 168.67 132.19 171.05 130.90 173.40 129.60 C 172.78 129.55 171.53 129.44 170.91 129.39 C 171.52 128.09 172.13 126.80 172.73 125.51 C 173.47 127.80 174.30 130.07 175.09 132.34 C 178.98 130.30 181.27 126.41 184.62 123.71 Z" fill="#f39b7f" opacity="1.00" stroke="#f39b7f" stroke-width="0.25" data-index="8"></path>

<path d="M 140.68 128.71 C 146.89 126.60 153.29 125.09 159.61 123.36 C 159.64 123.82 159.71 124.73 159.74 125.19 C 154.04 126.34 148.54 128.29 142.87 129.56 C 141.96 129.80 141.23 129.51 140.68 128.71 Z" fill="#001b30" opacity="1.00" stroke="#001b30" stroke-width="0.25" data-index="10"></path>
<path d="M 158.57 147.83 C 157.20 139.79 163.76 132.17 170.91 129.39 C 171.53 129.44 172.78 129.55 173.40 129.60 C 171.05 130.90 168.67 132.19 166.52 133.82 C 162.16 137.31 160.57 142.87 158.57 147.83 Z" fill="#001b30" opacity="1.00" stroke="#001b30" stroke-width="0.25" data-index="11"></path>

<path d="M 291.04 134.15 C 300.36 133.02 310.40 135.05 317.53 141.44 C 325.25 141.54 332.19 144.98 339.19 147.77 C 345.36 150.12 350.92 153.81 355.80 158.23 C 369.05 170.44 376.68 188.96 375.32 207.00 C 374.28 217.30 371.85 227.63 373.15 238.02 C 374.08 249.64 378.80 260.48 380.92 271.87 C 381.83 277.34 382.34 283.37 379.70 288.46 C 377.26 292.67 373.75 296.58 368.91 297.94 C 378.03 304.20 385.30 312.97 390.26 322.83 C 400.88 344.89 402.59 369.90 402.36 394.01 C 402.45 401.83 401.58 409.62 401.33 417.43 C 405.97 416.74 410.62 415.98 415.30 415.67 C 416.85 415.31 416.19 417.47 416.47 418.29 C 409.08 418.80 401.80 420.30 394.40 420.72 C 394.65 420.04 395.13 418.69 395.38 418.02 C 396.42 417.85 397.46 417.69 398.52 417.53 C 400.28 392.05 400.72 365.95 394.14 341.05 C 390.24 326.52 383.16 312.18 371.09 302.76 C 366.65 298.82 361.02 296.41 357.10 291.88 C 353.03 287.38 348.41 283.28 342.80 280.82 C 342.83 285.63 343.18 291.02 339.90 294.97 C 338.21 297.13 335.37 297.58 332.86 298.12 C 322.77 314.69 315.36 333.05 312.06 352.22 C 308.02 376.44 308.37 401.11 309.50 425.56 C 314.24 425.43 318.96 424.95 323.69 424.68 C 329.65 425.45 335.78 424.18 341.60 426.00 C 313.45 428.47 285.23 429.92 257.01 431.43 C 223.70 432.72 190.33 433.92 156.99 432.67 C 154.65 432.39 151.73 433.19 150.09 430.98 C 151.70 429.41 153.95 429.65 156.00 429.73 C 168.81 430.73 181.68 430.17 194.52 430.43 C 195.33 404.71 198.30 379.13 201.92 353.67 C 202.52 352.71 203.12 351.76 203.72 350.81 C 203.72 350.02 203.72 348.42 203.71 347.63 C 204.71 342.27 207.19 337.37 208.86 332.21 C 209.83 330.08 210.95 328.01 212.07 325.95 C 212.36 325.81 212.95 325.53 213.24 325.39 C 216.30 314.73 217.69 303.68 220.54 292.97 C 221.02 290.92 221.85 288.93 223.35 287.40 C 222.24 296.80 218.84 305.85 218.43 315.36 C 220.85 310.01 224.14 305.13 227.05 300.05 C 228.29 298.20 229.23 295.65 231.83 295.40 C 228.31 302.22 223.76 308.46 220.43 315.40 C 217.04 321.03 214.90 327.33 211.00 332.66 C 209.72 340.15 206.04 346.96 204.92 354.49 C 200.54 379.57 198.20 404.98 197.29 430.42 C 204.30 430.24 211.31 430.22 218.32 430.23 C 216.08 403.25 219.19 375.86 226.93 349.93 C 233.06 331.47 241.32 313.45 253.24 297.98 C 253.97 298.11 255.42 298.36 256.15 298.48 C 240.10 319.77 229.61 345.02 224.55 371.13 C 220.81 390.38 219.64 410.11 220.89 429.68 C 233.95 429.90 246.97 428.80 260.01 428.41 C 275.56 427.92 291.07 426.50 306.62 426.15 C 305.85 398.15 304.75 369.67 311.51 342.23 C 315.07 326.52 322.36 312.02 330.10 298.01 C 326.34 297.54 322.68 296.53 319.08 295.37 C 313.76 302.58 307.43 309.14 299.66 313.71 C 296.52 319.71 300.50 326.50 297.71 332.53 C 295.61 337.55 290.54 340.28 287.75 344.80 C 284.96 349.14 282.81 353.95 281.90 359.05 C 281.12 363.11 282.33 367.34 281.06 371.33 C 278.83 367.62 279.22 363.10 279.62 358.98 C 280.80 351.42 284.30 344.13 289.77 338.74 C 292.47 335.91 295.82 333.14 296.39 329.02 C 297.29 324.34 295.12 319.92 294.10 315.46 C 294.66 314.17 295.21 312.88 295.73 311.58 C 295.79 312.61 295.84 313.65 295.91 314.69 C 301.85 299.37 302.92 282.63 302.57 266.36 C 303.02 266.32 303.93 266.24 304.39 266.20 C 304.85 272.15 304.72 278.12 304.43 284.08 C 313.07 288.94 321.66 295.36 331.98 295.59 C 334.99 295.89 338.02 294.32 339.31 291.54 C 341.58 286.52 340.83 280.74 339.01 275.70 C 345.15 279.10 351.59 282.30 356.54 287.41 C 359.76 290.36 362.37 294.73 367.01 295.47 C 371.49 295.08 375.00 291.62 376.93 287.76 C 379.17 283.91 378.84 279.28 378.46 275.01 C 376.73 262.44 371.09 250.68 370.31 237.94 C 369.99 232.26 370.04 226.54 370.62 220.87 C 371.23 214.57 372.86 208.36 372.63 202.00 C 372.34 187.47 366.13 173.28 356.31 162.67 C 348.15 154.04 337.01 149.15 325.87 145.65 C 322.10 144.29 317.46 145.55 314.36 142.58 C 306.18 136.05 294.99 135.91 285.15 137.62 C 277.18 138.54 269.84 142.25 263.82 147.45 C 254.72 147.90 247.20 154.84 243.83 162.95 C 242.14 167.29 241.01 172.29 242.96 176.74 C 242.68 177.00 242.12 177.53 241.84 177.79 L 240.87 178.61 C 237.29 170.84 240.33 161.73 245.14 155.20 C 249.37 149.13 256.31 145.43 263.57 144.44 C 270.79 137.37 281.14 134.44 291.04 134.15 Z" fill="#032e49" opacity="1.00" stroke="#032e49" stroke-width="0.25" data-index="13" style="opacity: 1;"></path>
<path d="M 285.15 137.62 C 294.99 135.91 306.18 136.05 314.36 142.58 C 317.46 145.55 322.10 144.29 325.87 145.65 C 337.01 149.15 348.15 154.04 356.31 162.67 C 366.13 173.28 372.34 187.47 372.63 202.00 C 372.86 208.36 371.23 214.57 370.62 220.87 C 370.04 226.54 369.99 232.26 370.31 237.94 C 371.09 250.68 376.73 262.44 378.46 275.01 C 378.84 279.28 379.17 283.91 376.93 287.76 C 375.00 291.62 371.49 295.08 367.01 295.47 C 362.37 294.73 359.76 290.36 356.54 287.41 C 351.59 282.30 345.15 279.10 339.01 275.70 C 340.83 280.74 341.58 286.52 339.31 291.54 C 338.02 294.32 334.99 295.89 331.98 295.59 C 321.66 295.36 313.07 288.94 304.43 284.08 C 304.72 278.12 304.85 272.15 304.39 266.20 C 303.93 266.24 303.02 266.32 302.57 266.36 C 302.92 282.63 301.85 299.37 295.91 314.69 C 295.84 313.65 295.79 312.61 295.73 311.58 C 295.10 305.36 296.26 299.16 296.09 292.94 C 295.61 286.36 295.75 279.71 294.60 273.19 C 293.06 263.79 291.16 254.43 290.31 244.92 C 290.11 242.74 289.65 240.59 289.00 238.51 C 288.71 239.11 288.14 240.33 287.85 240.94 C 288.20 252.46 290.85 263.73 292.39 275.12 C 287.75 266.93 283.37 258.34 281.91 248.94 C 278.58 228.23 282.46 206.54 292.02 187.93 C 295.24 181.12 295.48 173.14 293.36 165.98 C 293.09 164.77 292.29 164.06 290.97 163.83 C 291.72 168.87 293.25 173.93 292.23 179.06 C 291.29 183.74 290.00 188.95 286.20 192.15 C 276.51 193.60 265.76 190.22 259.71 182.26 C 255.01 176.49 254.82 167.57 259.78 161.88 C 259.56 161.43 259.13 160.53 258.91 160.08 C 253.75 165.85 251.56 173.57 250.24 181.03 C 247.35 180.56 244.83 178.98 242.96 176.74 C 241.01 172.29 242.14 167.29 243.83 162.95 C 247.20 154.84 254.72 147.90 263.82 147.45 C 269.84 142.25 277.18 138.54 285.15 137.62 Z" fill="#ffffff" opacity="1.00" stroke="#ffffff" stroke-width="0.25" data-index="14" style="opacity: 1;"></path>
<path d="M 250.24 181.03 C 251.56 173.57 253.75 165.85 258.91 160.08 C 259.13 160.53 259.56 161.43 259.78 161.88 C 254.82 167.57 255.01 176.49 259.71 182.26 C 265.76 190.22 276.51 193.60 286.20 192.15 C 290.00 188.95 291.29 183.74 292.23 179.06 C 293.25 173.93 291.72 168.87 290.97 163.83 C 292.29 164.06 293.09 164.77 293.36 165.98 C 295.48 173.14 295.24 181.12 292.02 187.93 C 282.46 206.54 278.58 228.23 281.91 248.94 C 283.37 258.34 287.75 266.93 292.39 275.12 C 290.85 263.73 288.20 252.46 287.85 240.94 C 288.14 240.33 288.71 239.11 289.00 238.51 C 289.65 240.59 290.11 242.74 290.31 244.92 C 291.16 254.43 293.06 263.79 294.60 273.19 C 295.75 279.71 295.61 286.36 296.09 292.94 C 296.26 299.16 295.10 305.36 295.73 311.58 C 295.21 312.88 294.66 314.17 294.10 315.46 C 284.88 319.03 273.66 321.05 264.84 315.37 C 258.99 311.89 255.95 305.15 256.15 298.48 C 255.42 298.36 253.97 298.11 253.24 297.98 C 257.14 292.68 261.76 287.77 267.54 284.50 C 269.41 283.95 271.29 283.42 273.17 282.88 L 274.58 282.47 C 274.44 278.04 274.38 273.60 274.22 269.17 C 267.66 270.05 260.56 272.02 254.25 269.06 C 248.39 265.20 248.86 257.06 248.85 250.88 C 248.08 250.03 247.32 249.18 246.55 248.34 C 246.49 245.21 246.45 242.07 246.28 238.95 C 241.88 237.35 244.82 232.25 244.48 228.89 C 241.28 227.52 236.39 226.78 235.46 222.92 C 240.07 218.79 245.81 215.44 248.35 209.50 C 252.39 201.51 249.70 192.48 249.70 184.00 C 246.34 183.17 243.53 181.13 241.00 178.86 L 241.84 177.79 C 242.12 177.53 242.68 177.00 242.96 176.74 C 244.83 178.98 247.35 180.56 250.24 181.03 Z" fill="#0d2b43" opacity="1.00" stroke="#0d2b43" stroke-width="0.25" data-index="15"></path>
<path d="M 146.64 164.73 C 151.80 164.72 156.77 163.24 161.85 162.55 C 160.96 164.83 158.48 165.15 156.42 165.66 C 153.16 166.47 149.79 166.54 146.45 166.51 C 146.50 166.07 146.59 165.18 146.64 164.73 Z" fill="#342e38" opacity="1.00" stroke="#342e38" stroke-width="0.25" data-index="16"></path>
<path d="M 342.01 171.66 C 340.40 171.07 342.18 169.89 342.73 169.32 C 352.58 176.04 356.14 188.29 357.77 199.49 C 360.04 214.27 359.87 229.34 362.73 244.04 C 363.15 246.64 364.57 248.97 364.80 251.61 C 364.32 251.49 363.36 251.27 362.88 251.15 C 360.43 246.86 359.81 241.88 359.05 237.08 C 356.92 221.37 357.20 205.30 353.18 189.87 C 351.34 182.95 348.22 175.71 342.01 171.66 Z" fill="#0f2f47" opacity="1.00" stroke="#0f2f47" stroke-width="0.25" data-index="17"></path>
<path d="M 253.74 176.99 C 254.79 179.53 255.96 182.03 257.36 184.40 C 256.16 184.33 254.95 184.25 253.76 184.19 C 252.79 190.64 255.89 197.44 252.91 203.57 C 253.37 194.73 251.14 185.61 253.74 176.99 Z" fill="#be988e" opacity="1.00" stroke="#be988e" stroke-width="0.25" data-index="18"></path>
<path d="M 307.97 183.72 C 310.01 180.86 312.37 177.69 315.94 176.75 C 316.13 179.94 312.41 180.67 311.11 183.12 C 304.44 192.03 305.82 203.98 308.35 214.12 L 306.75 215.00 C 302.88 205.10 302.35 193.07 307.97 183.72 Z" fill="#0c2e49" opacity="1.00" stroke="#0c2e49" stroke-width="0.25" data-index="19"></path>

<path d="M 253.76 184.19 C 254.95 184.25 256.16 184.33 257.36 184.40 C 260.82 188.25 264.86 191.94 270.00 193.30 C 266.05 194.16 262.00 193.43 258.03 193.99 C 256.15 194.67 256.23 197.13 257.42 198.39 C 261.95 199.78 266.78 199.14 271.38 198.52 C 271.37 197.02 271.37 195.53 271.39 194.04 C 276.06 195.38 280.90 195.65 285.73 195.54 C 276.83 216.80 275.22 241.52 282.89 263.39 C 274.49 266.06 265.56 268.88 256.68 267.15 C 250.55 264.52 251.59 256.39 251.43 250.91 C 252.50 250.22 253.91 249.74 254.33 248.39 C 255.73 244.72 257.47 240.73 256.35 236.75 C 253.04 236.49 249.73 236.39 246.41 236.43 C 246.46 234.33 246.52 232.22 246.57 230.12 C 248.19 230.23 249.81 230.34 251.43 230.46 C 251.94 229.87 252.45 229.28 252.96 228.69 C 248.24 227.34 243.51 226.00 238.98 224.11 C 239.24 221.66 241.64 220.62 243.30 219.20 C 248.28 215.35 251.40 209.60 252.91 203.57 C 255.89 197.44 252.79 190.64 253.76 184.19 Z" fill="#f99d7b" opacity="1.00" stroke="#f99d7b" stroke-width="0.25" data-index="21"></path>
<path d="M 270.00 193.30 C 270.47 193.21 270.95 193.11 271.42 193.01 L 271.39 194.04 C 271.37 195.53 271.37 197.02 271.38 198.52 C 266.78 199.14 261.95 199.78 257.42 198.39 C 256.23 197.13 256.15 194.67 258.03 193.99 C 262.00 193.43 266.05 194.16 270.00 193.30 Z" fill="#625659" opacity="1.00" stroke="#625659" stroke-width="0.25" data-index="22"></path>
<path d="M 259.07 194.72 C 262.56 193.78 266.36 194.47 269.80 195.42 C 272.05 196.70 269.63 198.46 268.02 198.11 C 264.75 198.37 261.41 198.45 258.19 197.72 C 257.08 196.33 257.37 195.32 259.07 194.72 Z" fill="#0a3a5c" opacity="1.00" stroke="#0a3a5c" stroke-width="0.25" data-index="23"></path>
<path d="M 257.80 203.57 C 259.37 203.43 260.94 203.30 262.52 203.17 C 263.77 206.34 263.33 210.61 260.34 212.66 C 259.08 212.85 257.81 212.70 256.56 212.62 C 255.91 209.51 256.56 206.44 257.80 203.57 Z" fill="#06345b" opacity="1.00" stroke="#06345b" stroke-width="0.25" data-index="24"></path>

<path d="M 325.04 226.58 C 328.37 226.11 330.38 229.44 332.63 231.33 C 342.35 240.66 345.66 255.41 342.42 268.28 C 341.78 268.78 341.13 269.28 340.49 269.77 C 340.11 266.79 341.46 263.96 341.40 260.99 C 341.68 251.30 339.02 241.03 332.14 233.91 C 329.91 231.33 326.99 229.41 325.04 226.58 Z" fill="#0a2736" opacity="1.00" stroke="#0a2736" stroke-width="0.25" data-index="26"></path>
<path d="M 315.67 230.42 C 316.18 230.41 317.21 230.41 317.72 230.41 C 317.62 233.56 317.03 236.87 318.23 239.90 C 319.80 244.56 323.84 247.73 326.07 252.02 C 330.31 259.72 331.79 269.16 329.31 277.66 C 328.79 277.64 327.75 277.59 327.22 277.56 C 329.72 268.92 328.04 259.29 323.24 251.74 C 320.62 247.53 316.81 243.87 315.70 238.87 C 315.28 236.07 315.54 233.23 315.67 230.42 Z" fill="#092539" opacity="1.00" stroke="#092539" stroke-width="0.25" data-index="27"></path>
<path d="M 248.59 242.91 C 248.79 241.51 249.02 240.12 249.28 238.74 C 251.41 238.78 253.54 238.77 255.67 238.78 C 255.20 239.95 254.75 241.13 254.31 242.31 C 252.40 242.51 250.50 242.73 248.59 242.91 Z" fill="#f4faff" opacity="1.00" stroke="#f4faff" stroke-width="0.25" data-index="28"></path>
<path d="M 248.15 245.51 C 250.10 245.05 252.04 244.60 254.00 244.21 C 253.67 246.58 252.05 248.15 249.87 248.90 C 249.44 248.05 248.58 246.36 248.15 245.51 Z" fill="#9d655d" opacity="1.00" stroke="#9d655d" stroke-width="0.25" data-index="29"></path>
<path d="M 276.72 268.57 C 279.39 267.58 282.08 266.60 284.94 266.33 C 286.53 270.91 289.38 274.86 292.17 278.76 C 293.89 280.76 293.27 283.55 293.55 285.96 C 294.23 294.99 293.39 304.03 293.46 313.07 C 284.35 315.92 273.24 318.62 265.00 312.15 C 259.25 308.30 258.25 300.74 259.62 294.44 C 263.28 290.43 267.67 286.06 273.28 285.33 C 275.05 287.67 274.00 290.83 274.33 293.56 C 274.83 293.56 275.83 293.54 276.33 293.54 C 277.91 285.33 277.97 276.82 276.72 268.57 Z" fill="#f89d7b" opacity="1.00" stroke="#f89d7b" stroke-width="0.25" data-index="30"></path>
<path d="M 210.71 268.28 C 216.05 268.41 221.41 268.03 226.75 268.44 C 240.07 269.49 252.92 273.63 265.15 278.84 C 267.88 280.06 270.84 280.93 273.17 282.88 C 271.29 283.42 269.41 283.95 267.54 284.50 C 267.91 284.18 268.65 283.54 269.02 283.23 C 256.75 278.17 244.22 273.27 230.96 271.66 C 225.17 270.93 219.33 271.08 213.52 271.33 C 212.59 270.30 211.67 269.26 210.71 268.28 Z" fill="#00314d" opacity="1.00" stroke="#00314d" stroke-width="0.25" data-index="31"></path>
<path d="M 213.52 271.33 C 219.33 271.08 225.17 270.93 230.96 271.66 C 244.22 273.27 256.75 278.17 269.02 283.23 C 268.65 283.54 267.91 284.18 267.54 284.50 C 261.76 287.77 257.14 292.68 253.24 297.98 C 241.32 313.45 233.06 331.47 226.93 349.93 C 219.19 375.86 216.08 403.25 218.32 430.23 C 211.31 430.22 204.30 430.24 197.29 430.42 C 198.20 404.98 200.54 379.57 204.92 354.49 C 206.04 346.96 209.72 340.15 211.00 332.66 C 214.90 327.33 217.04 321.03 220.43 315.40 C 223.76 308.46 228.31 302.22 231.83 295.40 C 229.23 295.65 228.29 298.20 227.05 300.05 C 224.14 305.13 220.85 310.01 218.43 315.36 C 218.84 305.85 222.24 296.80 223.35 287.40 C 221.85 288.93 221.02 290.92 220.54 292.97 C 217.69 303.68 216.30 314.73 213.24 325.39 C 212.95 325.53 212.36 325.81 212.07 325.95 C 214.24 307.84 214.64 289.54 213.52 271.33 Z" fill="#7de5fe" opacity="1.00" stroke="#7de5fe" stroke-width="0.25" data-index="32"></path>
<path d="M 342.80 280.82 C 348.41 283.28 353.03 287.38 357.10 291.88 C 361.02 296.41 366.65 298.82 371.09 302.76 C 383.16 312.18 390.24 326.52 394.14 341.05 C 400.72 365.95 400.28 392.05 398.52 417.53 C 397.46 417.69 396.42 417.85 395.38 418.02 C 374.89 420.20 354.41 422.45 333.85 423.82 C 331.32 398.40 329.91 372.88 329.44 347.35 C 328.97 347.35 328.03 347.36 327.57 347.36 C 327.03 373.01 329.03 398.61 330.99 424.16 C 328.55 424.31 326.12 424.49 323.69 424.68 C 318.96 424.95 314.24 425.43 309.50 425.56 C 308.37 401.11 308.02 376.44 312.06 352.22 C 315.36 333.05 322.77 314.69 332.86 298.12 C 335.37 297.58 338.21 297.13 339.90 294.97 C 343.18 291.02 342.83 285.63 342.80 280.82 Z" fill="#7de5ff" opacity="1.00" stroke="#7de5ff" stroke-width="0.25" data-index="33" style="opacity: 1;"></path>
<path d="M 304.00 287.50 C 304.81 286.09 305.33 286.23 305.56 287.91 C 305.17 287.81 304.39 287.60 304.00 287.50 Z" fill="#8f8e99" opacity="1.00" stroke="#8f8e99" stroke-width="0.25" data-index="34"></path>
<path d="M 304.00 287.50 C 304.39 287.60 305.17 287.81 305.56 287.91 C 309.51 289.50 312.77 292.46 316.80 293.96 C 312.13 300.04 306.73 305.60 300.36 309.90 C 301.69 302.46 303.54 295.08 304.00 287.50 Z" fill="#f79b7b" opacity="1.00" stroke="#f79b7b" stroke-width="0.25" data-index="35"></path>
<path d="M 319.08 295.37 C 322.68 296.53 326.34 297.54 330.10 298.01 C 322.36 312.02 315.07 326.52 311.51 342.23 C 304.75 369.67 305.85 398.15 306.62 426.15 C 291.07 426.50 275.56 427.92 260.01 428.41 C 246.97 428.80 233.95 429.90 220.89 429.68 C 219.64 410.11 220.81 390.38 224.55 371.13 C 229.61 345.02 240.10 319.77 256.15 298.48 C 255.95 305.15 258.99 311.89 264.84 315.37 C 273.66 321.05 284.88 319.03 294.10 315.46 C 295.12 319.92 297.29 324.34 296.39 329.02 C 295.82 333.14 292.47 335.91 289.77 338.74 C 284.30 344.13 280.80 351.42 279.62 358.98 C 279.22 363.10 278.83 367.62 281.06 371.33 C 282.33 367.34 281.12 363.11 281.90 359.05 C 282.81 353.95 284.96 349.14 287.75 344.80 C 290.54 340.28 295.61 337.55 297.71 332.53 C 300.50 326.50 296.52 319.71 299.66 313.71 C 307.43 309.14 313.76 302.58 319.08 295.37 Z" fill="#ffffff" opacity="1.00" stroke="#ffffff" stroke-width="0.25" data-index="36"></path>
<path d="M 327.57 347.36 C 328.03 347.36 328.97 347.35 329.44 347.35 C 329.91 372.88 331.32 398.40 333.85 423.82 C 354.41 422.45 374.89 420.20 395.38 418.02 C 395.13 418.69 394.65 420.04 394.40 420.72 C 377.05 423.14 359.19 424.64 341.60 426.00 C 335.78 424.18 329.65 425.45 323.69 424.68 C 326.12 424.49 328.55 424.31 330.99 424.16 C 329.03 398.61 327.03 373.01 327.57 347.36 Z" fill="#003454" opacity="1.00" stroke="#003454" stroke-width="0.25" data-index="37"></path>
</svg>