<?xml version="1.0" encoding="utf-8"?>
<svg xmlns="http://www.w3.org/2000/svg" height="512pt" version="1.1" viewBox="0 0 512 512" width="512pt">
<path d="M 0.00 0.00 L 512.00 0.00 L 512.00 512.00 L 0.00 512.00 L 0.00 0.00 Z" fill="transparent" opacity="1.00" stroke="transparent" stroke-width="0.25"/>
<path d="M 113.81 23.00 C 114.47 21.89 115.53 21.23 116.79 20.99 C 118.34 30.83 120.91 40.86 127.13 48.86 C 133.38 56.66 141.01 63.35 149.51 68.59 C 151.10 69.61 152.80 70.43 154.60 71.00 C 154.33 60.16 157.57 49.10 163.99 40.36 L 165.00 40.86 C 168.05 50.16 173.24 58.83 180.51 65.45 C 187.10 71.63 194.98 76.21 203.10 80.09 C 217.27 86.97 233.45 89.94 246.05 99.82 C 262.27 111.45 267.98 135.26 258.72 152.94 C 253.98 162.09 245.99 168.91 240.41 177.48 C 230.26 193.07 227.93 213.22 233.21 230.93 C 234.51 235.78 238.71 238.96 243.24 240.61 C 247.56 234.50 254.30 228.34 262.36 229.51 C 262.66 229.58 263.26 229.72 263.56 229.79 C 267.02 230.60 270.09 232.43 272.89 234.57 C 274.65 234.47 276.41 234.38 278.18 234.24 C 277.23 234.59 276.29 234.98 275.37 235.39 L 275.38 236.29 C 276.30 238.64 278.71 240.37 279.13 243.06 C 280.82 248.81 283.26 254.33 284.73 260.12 C 282.54 261.05 280.47 262.20 278.47 263.46 C 281.27 269.57 286.44 274.04 291.18 278.61 C 301.85 269.39 311.88 259.23 324.01 251.90 C 331.84 247.16 340.73 244.66 349.54 242.44 C 349.32 238.26 349.40 233.98 350.81 229.99 C 352.16 226.03 353.55 221.55 357.32 219.23 C 357.99 223.19 358.24 227.21 359.01 231.15 C 360.64 228.02 361.79 224.02 365.38 222.56 C 365.08 227.73 364.02 232.96 364.95 238.12 C 366.74 233.62 369.03 227.41 374.34 226.49 C 372.09 232.06 371.88 238.17 371.63 244.09 C 380.46 247.15 387.59 254.27 391.00 262.92 C 391.48 263.98 391.58 265.16 391.32 266.30 C 387.85 267.68 384.53 264.50 381.26 263.58 C 386.31 270.93 391.81 278.04 396.09 285.87 C 395.80 286.25 395.23 287.01 394.94 287.39 C 390.90 280.26 385.99 273.66 381.34 266.92 C 377.52 261.07 371.05 257.46 364.43 255.71 C 363.75 254.11 362.96 252.57 362.31 250.98 C 358.90 241.98 357.28 232.44 355.96 222.95 C 350.28 232.13 348.86 245.18 356.37 253.80 C 355.86 254.01 354.86 254.43 354.36 254.64 C 354.13 254.25 353.69 253.48 353.47 253.09 C 351.95 250.25 350.61 247.32 349.43 244.33 C 343.09 246.18 336.58 247.65 330.63 250.60 C 315.52 257.55 304.31 270.25 291.49 280.45 C 289.63 281.95 287.38 283.25 286.60 285.67 C 286.09 285.03 285.60 284.38 285.15 283.71 C 284.26 283.45 283.38 283.18 282.51 282.90 L 281.54 282.35 C 284.76 283.56 287.50 281.69 289.78 279.62 C 285.73 275.85 281.84 271.91 278.25 267.70 C 278.33 268.45 278.47 269.97 278.54 270.73 L 276.93 269.57 C 274.93 259.72 275.80 249.46 273.23 239.70 C 271.38 234.03 265.00 230.65 259.23 231.29 C 254.01 231.92 249.63 235.38 246.51 239.44 C 241.10 246.60 237.09 254.71 234.00 263.11 C 231.45 269.53 230.16 276.34 227.86 282.84 C 224.47 292.42 221.49 302.20 216.71 311.22 L 215.51 309.96 C 215.52 309.84 215.52 309.59 215.52 309.46 C 204.04 308.22 191.94 306.53 180.85 310.71 C 172.99 313.56 166.63 320.17 164.22 328.20 C 160.69 339.63 162.95 352.33 169.27 362.38 L 167.93 362.44 L 167.18 362.26 C 161.26 353.76 159.85 343.00 161.06 332.90 C 155.15 330.86 149.47 327.34 143.00 327.69 C 135.07 327.83 126.98 333.22 124.80 340.99 C 124.53 347.66 127.67 354.36 125.34 360.95 C 122.47 369.31 116.50 376.37 114.52 385.09 C 112.52 392.27 113.49 399.83 115.72 406.82 C 108.69 405.78 102.37 400.65 100.17 393.86 C 98.97 390.31 100.12 386.56 100.74 383.02 C 94.34 388.33 85.32 389.97 77.45 387.30 C 76.49 386.87 74.82 386.77 75.30 385.29 C 80.65 383.14 85.87 379.64 88.31 374.22 C 92.32 366.12 91.31 356.83 92.22 348.10 C 92.92 337.81 96.41 327.26 103.83 319.83 C 110.75 312.48 120.84 307.82 131.02 308.36 C 138.79 308.33 146.31 311.74 151.88 317.07 C 155.18 320.28 159.26 322.48 163.27 324.67 C 166.56 318.82 170.82 313.23 177.00 310.22 C 188.84 304.38 202.50 305.98 215.15 307.48 C 216.95 308.28 217.22 306.04 217.80 304.97 C 221.61 295.46 225.25 285.86 228.00 275.98 C 214.48 280.21 200.12 281.50 186.04 280.15 C 175.80 278.90 165.04 276.09 157.16 269.12 C 161.32 266.63 165.48 264.06 168.80 260.48 C 154.94 259.51 141.14 255.92 129.03 249.00 C 120.28 243.98 111.19 238.63 104.95 230.53 C 108.98 230.47 113.10 230.89 117.03 229.76 C 120.20 228.96 122.96 227.19 125.78 225.62 C 116.67 219.45 106.78 213.78 100.26 204.65 C 94.57 196.58 89.93 187.21 89.50 177.20 C 90.91 177.35 91.80 178.42 92.65 179.44 C 100.08 188.64 114.81 191.52 124.92 185.29 C 117.04 175.76 111.72 164.32 108.36 152.47 C 107.29 147.16 105.94 141.60 107.26 136.20 C 110.24 138.45 111.44 142.34 114.66 144.33 C 121.75 149.68 131.03 150.84 139.65 150.12 C 139.58 144.54 137.80 138.97 134.50 134.46 C 131.09 129.63 126.67 125.66 122.83 121.19 C 116.23 114.23 110.18 106.62 105.87 98.01 C 98.91 83.07 98.65 65.85 101.91 49.94 C 103.88 40.24 107.90 30.95 113.81 23.00 Z" fill="#012548" opacity="1.00" stroke="#012548" stroke-width="0.25"/>
<path d="M 105.35 44.22 C 107.63 37.21 110.57 30.26 115.20 24.45 C 117.27 33.57 119.88 42.85 125.77 50.32 C 132.55 58.59 140.75 65.71 149.99 71.12 C 152.01 72.33 154.19 73.24 156.44 73.94 C 156.06 63.49 158.37 52.93 163.80 43.93 C 168.15 54.97 175.49 64.85 185.14 71.80 C 198.48 82.01 214.77 86.80 230.11 93.03 C 240.36 97.05 249.95 103.74 255.65 113.34 C 261.46 123.72 262.88 136.59 258.82 147.84 C 257.14 152.93 253.89 157.24 250.70 161.45 C 244.07 148.29 230.91 140.86 219.79 132.03 C 216.14 138.72 214.79 146.40 214.47 153.94 C 203.49 153.54 193.44 147.68 185.45 140.49 C 181.92 137.11 179.52 132.81 176.79 128.81 C 172.24 134.51 172.67 142.34 174.22 149.05 C 176.07 156.91 180.08 163.98 183.93 170.99 C 186.06 174.48 185.71 178.65 185.54 182.56 C 174.23 184.84 163.36 179.70 154.05 173.82 C 152.82 183.55 157.89 192.72 164.58 199.39 C 166.72 201.40 168.75 203.56 170.09 206.20 C 163.73 209.79 156.40 210.40 149.58 212.61 C 152.77 216.14 156.56 219.13 160.89 221.15 C 169.10 225.04 177.78 227.99 186.70 229.78 C 187.06 236.48 180.98 240.87 175.51 243.31 C 183.43 248.77 193.54 247.99 202.29 250.97 C 202.87 255.56 200.74 259.90 199.67 264.28 C 206.47 262.72 212.17 258.60 218.01 255.02 C 219.30 254.04 221.93 253.43 222.28 255.62 C 223.59 260.67 222.07 265.88 221.19 270.88 C 225.11 268.06 228.42 264.51 232.39 261.75 C 231.10 265.72 229.79 269.69 228.55 273.68 C 215.60 278.17 201.67 279.34 188.05 278.42 C 178.61 277.50 169.10 275.03 161.06 269.85 C 161.17 269.56 161.39 268.97 161.50 268.68 C 165.38 265.80 170.52 263.42 172.12 258.52 C 148.71 258.43 126.35 248.03 109.04 232.68 C 116.23 232.73 123.91 230.50 128.79 224.96 C 119.73 219.37 110.40 213.74 103.43 205.54 C 97.88 198.74 93.83 190.70 92.01 182.09 C 100.65 190.47 114.74 193.44 125.46 187.39 C 126.56 186.99 127.28 185.60 126.70 184.52 C 116.93 172.06 109.92 156.96 108.55 141.06 C 116.40 150.67 129.82 154.06 141.68 151.50 C 142.24 141.85 136.97 133.13 130.41 126.51 C 121.93 117.59 113.33 108.44 107.74 97.35 C 100.05 80.79 100.60 61.52 105.35 44.22 Z" fill="#82e4ff" opacity="1.00" stroke="#82e4ff" stroke-width="0.25"/>
<path d="M 174.22 149.05 C 172.67 142.34 172.24 134.51 176.79 128.81 C 179.52 132.81 181.92 137.11 185.45 140.49 C 193.44 147.68 203.49 153.54 214.47 153.94 C 214.79 146.40 216.14 138.72 219.79 132.03 C 230.91 140.86 244.07 148.29 250.70 161.45 C 244.19 169.41 236.91 177.14 233.32 186.98 C 227.67 201.24 226.86 217.57 231.75 232.15 C 233.13 237.16 237.54 240.31 242.09 242.27 C 238.81 248.60 235.05 254.70 232.75 261.49 L 232.39 261.75 C 228.42 264.51 225.11 268.06 221.19 270.88 C 222.07 265.88 223.59 260.67 222.28 255.62 C 221.93 253.43 219.30 254.04 218.01 255.02 C 212.17 258.60 206.47 262.72 199.67 264.28 C 200.74 259.90 202.87 255.56 202.29 250.97 C 193.54 247.99 183.43 248.77 175.51 243.31 C 180.98 240.87 187.06 236.48 186.70 229.78 C 177.78 227.99 169.10 225.04 160.89 221.15 C 156.56 219.13 152.77 216.14 149.58 212.61 C 156.40 210.40 163.73 209.79 170.09 206.20 C 168.75 203.56 166.72 201.40 164.58 199.39 C 157.89 192.72 152.82 183.55 154.05 173.82 C 163.36 179.70 174.23 184.84 185.54 182.56 C 185.71 178.65 186.06 174.48 183.93 170.99 C 180.08 163.98 176.07 156.91 174.22 149.05 Z" fill="#3b7fae" opacity="1.00" stroke="#3b7fae" stroke-width="0.25"/>
<path d="M 257.91 192.84 C 259.27 189.21 262.93 185.72 267.08 186.62 C 268.93 186.99 270.06 188.95 271.86 189.31 C 274.15 188.10 276.28 186.11 279.05 186.27 C 283.42 186.35 286.60 189.88 288.70 193.35 C 291.76 193.73 295.22 194.09 297.28 196.71 C 301.25 201.12 301.03 207.45 300.60 212.99 C 298.39 212.46 296.27 211.66 294.20 210.77 C 293.83 216.88 293.49 223.50 289.60 228.55 C 286.45 233.23 280.96 236.03 275.38 236.29 L 275.37 235.39 C 276.29 234.98 277.23 234.59 278.18 234.24 C 282.09 233.22 285.42 230.87 288.22 228.03 C 286.09 226.42 283.93 224.75 282.95 222.17 C 284.30 222.98 285.64 223.81 286.96 224.68 C 287.65 225.14 288.35 225.60 289.06 226.06 C 289.65 224.74 290.26 223.44 290.82 222.10 C 291.20 220.86 291.50 219.61 291.72 218.33 C 292.03 215.95 292.19 213.55 292.39 211.16 C 288.90 211.36 285.41 211.51 281.91 211.54 C 281.72 212.82 281.52 214.09 281.32 215.37 C 280.99 217.17 280.62 218.95 280.24 220.74 C 275.41 220.03 272.37 216.30 269.98 212.40 C 266.45 212.09 264.71 217.11 266.27 219.83 C 267.03 221.98 269.44 222.43 271.35 222.99 C 269.89 224.68 267.61 224.20 265.65 224.21 C 264.44 225.85 263.83 227.78 263.56 229.79 C 263.26 229.72 262.66 229.58 262.36 229.51 C 262.24 228.74 262.02 227.19 261.91 226.41 C 257.48 227.99 252.56 229.16 248.01 227.36 C 245.24 226.21 241.96 224.70 240.96 221.63 C 244.19 221.57 247.50 221.32 250.29 219.53 C 248.22 218.23 246.42 216.57 244.93 214.63 C 247.35 214.32 249.76 213.93 252.15 213.43 C 257.45 207.85 255.43 199.53 257.91 192.84 Z" fill="#101d33" opacity="1.00" stroke="#101d33" stroke-width="0.25"/>
<path d="M 262.99 189.10 C 265.96 186.71 269.01 189.72 271.25 191.59 C 271.93 191.38 272.62 191.18 273.32 190.99 C 275.60 190.45 277.89 189.65 280.26 189.67 C 284.29 191.46 286.18 196.55 290.97 197.03 C 295.66 197.75 297.03 202.90 298.00 206.82 C 297.27 207.65 296.56 208.47 295.84 209.30 C 290.81 209.44 285.79 210.00 280.76 209.73 C 280.05 212.87 279.85 216.17 278.34 219.06 C 275.27 216.56 272.72 213.52 270.53 210.24 C 268.69 210.47 266.78 210.92 265.62 212.49 C 263.23 215.34 264.11 219.38 265.52 222.46 C 263.35 223.88 260.96 224.99 258.39 225.47 C 255.22 225.47 251.99 225.30 249.10 223.89 C 249.53 223.35 250.40 222.26 250.83 221.72 C 251.59 220.71 252.28 219.65 252.97 218.60 C 251.54 217.75 250.11 216.92 248.64 216.15 C 253.54 215.96 256.63 211.51 257.27 207.02 C 258.77 201.04 257.28 193.18 262.99 189.10 Z" fill="#815147" opacity="1.00" stroke="#815147" stroke-width="0.25"/>
<path d="M 273.32 190.99 C 274.98 188.73 278.08 187.25 280.83 188.37 C 284.04 189.46 285.97 192.43 288.05 194.92 C 290.80 195.53 294.20 195.53 296.11 197.96 C 298.85 201.55 299.00 206.30 299.25 210.62 C 298.11 210.18 296.97 209.74 295.84 209.30 C 296.56 208.47 297.27 207.65 298.00 206.82 C 297.03 202.90 295.66 197.75 290.97 197.03 C 286.18 196.55 284.29 191.46 280.26 189.67 C 277.89 189.65 275.60 190.45 273.32 190.99 Z" fill="#6c585c" opacity="1.00" stroke="#6c585c" stroke-width="0.25"/>
<path d="M 281.91 211.54 C 285.41 211.51 288.90 211.36 292.39 211.16 C 292.19 213.55 292.03 215.95 291.72 218.33 C 291.04 218.20 289.66 217.92 288.98 217.79 C 289.13 216.51 289.87 215.11 289.07 213.91 C 287.94 213.54 286.75 213.39 285.58 213.20 C 285.49 213.89 285.30 215.26 285.21 215.95 C 283.92 215.70 282.61 215.53 281.32 215.37 C 281.52 214.09 281.72 212.82 281.91 211.54 Z" fill="#e8cabe" opacity="1.00" stroke="#e8cabe" stroke-width="0.25"/>
<path d="M 266.27 219.83 C 264.71 217.11 266.45 212.09 269.98 212.40 C 272.37 216.30 275.41 220.03 280.24 220.74 C 280.62 218.95 280.99 217.17 281.32 215.37 C 282.61 215.53 283.92 215.70 285.21 215.95 C 285.41 216.24 285.82 216.81 286.02 217.10 C 286.99 217.36 287.98 217.59 288.98 217.79 C 289.66 217.92 291.04 218.20 291.72 218.33 C 291.50 219.61 291.20 220.86 290.82 222.10 C 289.59 223.05 288.27 223.86 286.96 224.68 C 285.64 223.81 284.30 222.98 282.95 222.17 C 283.93 224.75 286.09 226.42 288.22 228.03 C 285.42 230.87 282.09 233.22 278.18 234.24 C 276.41 234.38 274.65 234.47 272.89 234.57 C 270.09 232.43 267.02 230.60 263.56 229.79 C 263.83 227.78 264.44 225.85 265.65 224.21 C 267.61 224.20 269.89 224.68 271.35 222.99 C 269.44 222.43 267.03 221.98 266.27 219.83 Z" fill="#fdc3ab" opacity="1.00" stroke="#fdc3ab" stroke-width="0.25"/>
<path d="M 285.58 213.20 C 286.75 213.39 287.94 213.54 289.07 213.91 C 289.87 215.11 289.13 216.51 288.98 217.79 C 287.98 217.59 286.99 217.36 286.02 217.10 C 285.82 216.81 285.41 216.24 285.21 215.95 C 285.30 215.26 285.49 213.89 285.58 213.20 Z" fill="#08102e" opacity="1.00" stroke="#08102e" stroke-width="0.25"/>
<path d="M 244.28 223.40 C 246.46 222.81 248.64 222.27 250.83 221.72 C 250.40 222.26 249.53 223.35 249.10 223.89 C 251.99 225.30 255.22 225.47 258.39 225.47 C 253.67 227.33 248.37 226.20 244.28 223.40 Z" fill="#705c61" opacity="1.00" stroke="#705c61" stroke-width="0.25"/>
<path d="M 286.96 224.68 C 288.27 223.86 289.59 223.05 290.82 222.10 C 290.26 223.44 289.65 224.74 289.06 226.06 C 288.35 225.60 287.65 225.14 286.96 224.68 Z" fill="#ffffff" opacity="1.00" stroke="#ffffff" stroke-width="0.25"/>
<path d="M 356.37 253.80 C 348.86 245.18 350.28 232.13 355.96 222.95 C 357.28 232.44 358.90 241.98 362.31 250.98 C 362.66 252.36 362.64 253.72 362.26 255.05 C 361.38 255.15 359.62 255.35 358.74 255.45 C 357.92 254.92 357.13 254.37 356.37 253.80 Z" fill="#a6eefd" opacity="1.00" stroke="#a6eefd" stroke-width="0.25"/>
<path d="M 259.23 231.29 C 265.00 230.65 271.38 234.03 273.23 239.70 C 275.80 249.46 274.93 259.72 276.93 269.57 C 272.96 266.75 271.46 261.81 269.68 257.51 C 267.52 252.30 267.50 246.36 264.71 241.42 C 263.29 238.82 259.73 240.49 258.50 242.45 C 255.04 247.54 253.07 253.59 252.28 259.67 C 251.19 268.66 249.39 278.25 252.93 286.94 C 257.53 297.68 265.08 307.83 264.86 320.02 C 265.66 342.38 254.82 362.68 249.95 384.00 C 247.18 396.73 245.38 409.71 245.45 422.76 C 233.79 422.46 222.69 417.72 210.97 418.25 C 200.45 418.60 190.41 422.26 180.02 423.55 C 170.65 424.19 161.36 422.01 152.43 419.37 C 149.28 418.44 146.03 417.98 142.79 417.56 C 153.04 410.01 162.70 401.47 170.26 391.16 C 179.29 379.00 187.92 366.48 194.90 353.02 C 202.19 339.10 210.21 325.54 216.71 311.22 C 221.49 302.20 224.47 292.42 227.86 282.84 C 230.16 276.34 231.45 269.53 234.00 263.11 C 237.09 254.71 241.10 246.60 246.51 239.44 C 249.63 235.38 254.01 231.92 259.23 231.29 Z" fill="#3a80b0" opacity="1.00" stroke="#3a80b0" stroke-width="0.25"/>
<path d="M 258.50 242.45 C 259.73 240.49 263.29 238.82 264.71 241.42 C 267.50 246.36 267.52 252.30 269.68 257.51 C 271.46 261.81 272.96 266.75 276.93 269.57 L 278.54 270.73 C 279.28 274.24 276.34 278.14 279.43 281.02 L 280.02 282.97 C 279.54 282.75 278.58 282.30 278.11 282.07 C 278.33 283.69 278.56 285.30 278.81 286.92 C 278.16 287.54 277.51 288.16 276.86 288.79 C 276.63 284.54 276.28 280.31 276.11 276.07 C 274.81 276.22 273.52 276.32 272.23 276.54 C 268.42 277.33 264.87 278.96 261.18 280.16 C 260.64 280.22 259.58 280.32 259.04 280.37 C 258.95 280.09 258.75 279.54 258.66 279.27 C 264.53 276.67 270.59 274.47 276.93 273.30 C 272.21 268.41 269.35 262.12 267.15 255.78 C 265.76 251.19 264.99 246.44 263.43 241.90 C 261.63 242.42 259.79 243.20 258.97 245.01 C 256.06 250.44 253.26 256.69 254.79 262.97 C 255.68 267.47 256.84 271.91 257.77 276.40 C 256.49 275.51 255.58 274.33 255.31 272.80 C 254.21 268.45 253.14 264.08 252.28 259.67 C 253.07 253.59 255.04 247.54 258.50 242.45 Z" fill="#101d33" opacity="1.00" stroke="#101d33" stroke-width="0.25"/>
<path d="M 258.97 245.01 C 259.79 243.20 261.63 242.42 263.43 241.90 C 264.99 246.44 265.76 251.19 267.15 255.78 C 269.35 262.12 272.21 268.41 276.93 273.30 C 270.59 274.47 264.53 276.67 258.66 279.27 C 258.34 278.31 258.04 277.36 257.77 276.40 C 256.84 271.91 255.68 267.47 254.79 262.97 C 253.26 256.69 256.06 250.44 258.97 245.01 Z" fill="#fea216" opacity="1.00" stroke="#fea216" stroke-width="0.25"/>
<path d="M 361.81 243.42 C 370.02 244.51 378.14 248.14 383.65 254.46 C 386.41 257.48 388.18 261.22 389.85 264.91 C 385.38 263.15 380.57 262.08 376.56 259.34 C 372.86 256.85 368.72 255.16 364.67 253.36 C 363.86 250.00 362.86 246.70 361.81 243.42 Z" fill="#5dccf3" opacity="1.00" stroke="#5dccf3" stroke-width="0.25"/>
<path d="M 330.63 250.60 C 336.58 247.65 343.09 246.18 349.43 244.33 C 350.61 247.32 351.95 250.25 353.47 253.09 L 354.11 254.25 C 341.39 255.91 329.44 261.52 319.42 269.42 C 311.79 274.95 305.07 281.57 297.88 287.64 C 295.03 287.12 292.11 287.24 289.50 288.60 C 288.50 287.65 287.54 286.67 286.60 285.67 C 287.38 283.25 289.63 281.95 291.49 280.45 C 304.31 270.25 315.52 257.55 330.63 250.60 Z" fill="#5bcbf2" opacity="1.00" stroke="#5bcbf2" stroke-width="0.25"/>
<path d="M 362.31 250.98 C 362.96 252.57 363.75 254.11 364.43 255.71 C 364.44 256.17 364.47 257.09 364.48 257.55 C 362.93 257.97 361.34 258.29 359.79 258.64 C 362.14 264.14 365.78 268.93 368.92 273.98 C 374.15 281.71 379.57 289.36 385.82 296.31 C 389.19 293.70 392.40 290.84 394.94 287.39 C 395.23 287.01 395.80 286.25 396.09 285.87 C 398.97 284.55 400.54 287.63 399.23 289.99 C 398.67 290.03 397.54 290.13 396.98 290.17 C 393.62 292.76 390.83 295.97 387.88 298.99 C 391.30 303.09 394.30 307.71 398.64 310.90 C 398.62 311.55 398.61 312.20 398.62 312.87 C 398.62 313.04 398.62 313.40 398.62 313.58 C 397.92 313.57 396.53 313.55 395.83 313.54 C 392.18 316.41 386.81 317.88 383.05 314.34 C 386.95 314.59 391.46 315.32 394.57 312.30 C 392.84 307.93 388.50 305.10 386.10 301.06 C 382.82 302.41 380.44 305.05 378.15 307.65 C 379.57 309.49 382.77 310.85 382.24 313.57 C 380.43 312.08 378.68 310.53 376.93 308.98 C 371.77 314.94 364.92 319.11 358.13 322.95 C 350.19 327.43 341.47 330.16 332.77 332.70 L 331.02 333.20 C 324.75 334.45 318.46 335.79 312.08 336.36 C 308.73 336.58 305.37 336.47 302.03 336.30 C 302.12 334.36 304.12 334.06 305.57 333.85 C 314.23 333.83 322.71 331.95 331.16 330.25 C 331.83 323.71 332.77 317.18 334.59 310.85 C 321.93 307.47 310.45 300.99 299.13 294.59 C 298.03 295.09 296.94 295.57 295.84 296.05 C 296.03 295.70 296.41 295.00 296.60 294.65 C 296.83 294.12 297.31 293.07 297.54 292.54 C 297.60 291.80 297.73 290.31 297.79 289.57 L 298.74 290.10 C 303.02 293.78 308.07 296.38 313.03 299.03 C 320.22 302.73 327.64 306.20 335.55 308.05 C 335.99 308.15 336.85 308.35 337.29 308.46 C 348.95 311.33 362.57 312.60 373.18 305.88 C 373.54 305.47 374.27 304.63 374.63 304.21 L 375.22 304.63 C 378.20 302.67 380.96 300.40 383.73 298.16 C 375.98 289.39 369.46 279.64 362.84 270.03 C 361.20 267.65 359.80 265.12 358.67 262.47 C 359.74 260.92 359.28 259.11 358.70 257.48 C 358.70 257.21 358.72 256.67 358.72 256.40 L 358.74 255.45 C 359.62 255.35 361.38 255.15 362.26 255.05 C 362.64 253.72 362.66 252.36 362.31 250.98 Z" fill="#4d1f1b" opacity="1.00" stroke="#4d1f1b" stroke-width="0.25"/>
<path d="M 353.47 253.09 C 353.69 253.48 354.13 254.25 354.36 254.64 C 354.86 254.43 355.86 254.01 356.37 253.80 C 357.13 254.37 357.92 254.92 358.74 255.45 L 358.72 256.40 C 357.44 256.14 356.16 255.93 354.88 255.75 C 353.52 257.16 353.97 259.08 354.30 260.80 C 355.65 260.65 357.00 260.51 358.35 260.37 C 358.44 259.65 358.61 258.21 358.70 257.48 C 359.28 259.11 359.74 260.92 358.67 262.47 C 356.04 262.96 353.70 262.09 352.17 259.88 C 352.31 258.96 352.58 257.11 352.72 256.19 C 343.16 257.78 334.03 261.57 325.92 266.83 C 318.91 271.71 312.25 277.10 305.95 282.88 C 303.46 285.19 300.47 287.09 298.74 290.10 L 297.79 289.57 C 295.79 288.91 293.42 287.93 291.74 289.78 C 290.04 290.98 291.15 292.99 291.54 294.55 C 293.22 294.60 294.91 294.63 296.60 294.65 C 296.41 295.00 296.03 295.70 295.84 296.05 C 294.39 296.75 292.78 296.07 291.34 295.74 C 290.57 294.87 289.83 293.97 289.14 293.05 C 289.07 292.61 288.93 291.74 288.86 291.30 C 289.07 290.39 289.30 289.51 289.50 288.60 C 292.11 287.24 295.03 287.12 297.88 287.64 C 305.07 281.57 311.79 274.95 319.42 269.42 C 329.44 261.52 341.39 255.91 354.11 254.25 L 353.47 253.09 Z" fill="#001d33" opacity="1.00" stroke="#001d33" stroke-width="0.25"/>
<path d="M 354.30 260.80 C 353.97 259.08 353.52 257.16 354.88 255.75 C 356.16 255.93 357.44 256.14 358.72 256.40 C 358.72 256.67 358.70 257.21 358.70 257.48 C 358.61 258.21 358.44 259.65 358.35 260.37 C 357.00 260.51 355.65 260.65 354.30 260.80 Z" fill="#ea9e27" opacity="1.00" stroke="#ea9e27" stroke-width="0.25"/>
<path d="M 364.43 255.71 C 371.05 257.46 377.52 261.07 381.34 266.92 C 385.99 273.66 390.90 280.26 394.94 287.39 C 392.40 290.84 389.19 293.70 385.82 296.31 C 379.57 289.36 374.15 281.71 368.92 273.98 C 365.78 268.93 362.14 264.14 359.79 258.64 C 361.34 258.29 362.93 257.97 364.48 257.55 C 364.47 257.09 364.44 256.17 364.43 255.71 Z" fill="#a7edfd" opacity="1.00" stroke="#a7edfd" stroke-width="0.25"/>
<path d="M 325.92 266.83 C 334.03 261.57 343.16 257.78 352.72 256.19 C 352.58 257.11 352.31 258.96 352.17 259.88 C 353.70 262.09 356.04 262.96 358.67 262.47 C 359.80 265.12 361.20 267.65 362.84 270.03 C 369.46 279.64 375.98 289.39 383.73 298.16 C 380.96 300.40 378.20 302.67 375.22 304.63 L 374.63 304.21 C 369.53 299.82 363.52 296.76 357.79 293.30 C 350.24 288.57 349.47 278.39 350.56 270.37 C 350.09 270.45 349.15 270.61 348.68 270.69 C 347.73 276.90 348.70 283.20 351.12 288.96 C 343.37 292.61 338.42 300.24 335.55 308.05 C 327.64 306.20 320.22 302.73 313.03 299.03 C 308.07 296.38 303.02 293.78 298.74 290.10 C 300.47 287.09 303.46 285.19 305.95 282.88 C 312.25 277.10 318.91 271.71 325.92 266.83 Z" fill="#a7eeff" opacity="1.00" stroke="#a7eeff" stroke-width="0.25"/>
<path d="M 252.93 286.94 C 249.39 278.25 251.19 268.66 252.28 259.67 C 253.14 264.08 254.21 268.45 255.31 272.80 C 255.58 274.33 256.49 275.51 257.77 276.40 C 258.04 277.36 258.34 278.31 258.66 279.27 C 258.75 279.54 258.95 280.09 259.04 280.37 C 259.58 280.32 260.64 280.22 261.18 280.16 C 262.46 288.78 264.33 297.52 269.19 304.90 C 274.79 316.61 282.95 326.77 289.56 337.89 C 282.76 347.33 277.15 357.64 273.45 368.68 C 273.01 369.84 272.56 371.00 272.15 372.18 C 272.79 366.59 273.06 360.97 273.48 355.36 C 269.22 355.45 264.92 354.91 260.68 355.37 C 257.76 363.31 255.18 371.40 252.99 379.58 C 258.60 380.24 264.24 380.70 269.89 380.57 C 268.53 384.99 267.82 389.58 267.49 394.19 C 267.41 394.98 267.37 395.78 267.34 396.58 C 267.34 397.11 267.33 398.16 267.33 398.68 C 267.35 399.55 267.39 400.43 267.43 401.31 C 267.11 401.81 266.47 402.82 266.15 403.33 L 265.91 403.71 C 262.60 396.41 259.71 388.93 256.26 381.70 C 255.01 381.64 253.76 381.57 252.51 381.51 C 249.03 395.63 246.99 410.19 247.41 424.76 C 235.37 424.81 223.93 419.94 211.90 420.25 C 203.96 437.72 195.89 455.15 188.01 472.65 C 181.98 473.00 175.94 472.73 169.91 472.76 C 177.09 455.96 185.49 439.70 192.89 422.99 C 187.92 423.91 183.03 425.44 177.93 425.46 C 173.23 425.69 168.60 424.74 163.96 424.16 C 156.39 440.64 148.64 457.04 141.25 473.61 C 136.65 472.39 131.89 472.99 127.20 472.91 C 125.58 472.86 123.96 472.80 122.34 472.73 C 122.90 471.54 123.46 470.35 124.02 469.17 C 129.16 458.31 134.57 447.59 139.70 436.73 C 142.45 431.14 145.50 425.67 147.61 419.78 C 144.55 419.04 140.10 420.77 138.16 417.93 C 142.88 415.20 147.18 411.84 151.46 408.49 C 153.31 407.00 155.09 405.28 155.88 402.99 C 160.87 391.06 165.80 379.10 170.58 367.08 C 169.40 365.58 168.25 364.05 167.15 362.50 L 167.93 362.44 L 169.27 362.38 C 172.41 366.68 176.20 370.43 180.15 373.98 C 190.39 359.38 197.83 343.09 206.59 327.61 C 209.68 321.79 212.58 315.87 215.51 309.96 L 216.71 311.22 C 210.21 325.54 202.19 339.10 194.90 353.02 C 187.92 366.48 179.29 379.00 170.26 391.16 C 162.70 401.47 153.04 410.01 142.79 417.56 C 146.03 417.98 149.28 418.44 152.43 419.37 C 161.36 422.01 170.65 424.19 180.02 423.55 C 190.41 422.26 200.45 418.60 210.97 418.25 C 222.69 417.72 233.79 422.46 245.45 422.76 C 245.38 409.71 247.18 396.73 249.95 384.00 C 254.82 362.68 265.66 342.38 264.86 320.02 C 265.08 307.83 257.53 297.68 252.93 286.94 Z" fill="#01274b" opacity="1.00" stroke="#01274b" stroke-width="0.25"/>
<path d="M 372.35 264.27 C 374.90 262.28 379.37 263.94 379.74 267.23 C 380.92 270.80 376.65 274.12 373.39 272.57 C 369.77 271.62 369.20 266.08 372.35 264.27 Z" fill="#001d33" opacity="1.00" stroke="#001d33" stroke-width="0.25"/>
<path d="M 373.40 265.65 C 375.61 264.15 378.53 266.53 378.18 268.97 C 377.59 270.15 376.36 270.73 375.34 271.45 C 374.65 271.14 373.26 270.53 372.56 270.23 C 372.30 268.70 371.64 266.52 373.40 265.65 Z" fill="#fbfeff" opacity="1.00" stroke="#fbfeff" stroke-width="0.25"/>
<path d="M 278.25 267.70 C 281.84 271.91 285.73 275.85 289.78 279.62 C 287.50 281.69 284.76 283.56 281.54 282.35 C 281.01 282.02 279.96 281.36 279.43 281.02 C 276.34 278.14 279.28 274.24 278.54 270.73 C 278.47 269.97 278.33 268.45 278.25 267.70 Z" fill="#fac1a8" opacity="1.00" stroke="#fac1a8" stroke-width="0.25"/>
<path d="M 348.68 270.69 C 349.15 270.61 350.09 270.45 350.56 270.37 C 349.47 278.39 350.24 288.57 357.79 293.30 C 363.52 296.76 369.53 299.82 374.63 304.21 C 374.27 304.63 373.54 305.47 373.18 305.88 C 367.20 299.20 357.79 297.22 351.84 290.55 C 344.73 294.25 340.18 301.20 337.29 308.46 C 336.85 308.35 335.99 308.15 335.55 308.05 C 338.42 300.24 343.37 292.61 351.12 288.96 C 348.70 283.20 347.73 276.90 348.68 270.69 Z" fill="#002139" opacity="1.00" stroke="#002139" stroke-width="0.25"/>
<path d="M 272.23 276.54 C 273.52 276.32 274.81 276.22 276.11 276.07 C 276.28 280.31 276.63 284.54 276.86 288.79 C 277.51 288.16 278.16 287.54 278.81 286.92 C 278.56 285.30 278.33 283.69 278.11 282.07 C 278.58 282.30 279.54 282.75 280.02 282.97 C 280.70 283.62 281.38 284.27 282.08 284.92 C 281.76 285.43 281.13 286.43 280.82 286.94 C 279.65 287.77 278.47 288.58 277.30 289.41 C 277.37 290.14 277.51 291.59 277.59 292.31 C 277.40 291.99 277.04 291.35 276.86 291.03 C 275.50 286.69 275.65 282.10 275.63 277.60 C 274.50 277.23 273.37 276.88 272.23 276.54 Z" fill="#f1f8fa" opacity="1.00" stroke="#f1f8fa" stroke-width="0.25"/>
<path d="M 261.18 280.16 C 264.87 278.96 268.42 277.33 272.23 276.54 C 273.37 276.88 274.50 277.23 275.63 277.60 C 275.65 282.10 275.50 286.69 276.86 291.03 C 277.04 291.35 277.40 291.99 277.59 292.31 C 285.46 306.27 293.10 320.50 302.89 333.24 C 302.28 333.44 301.06 333.83 300.46 334.03 C 302.13 336.96 304.65 339.44 305.48 342.79 C 304.82 342.40 303.49 341.63 302.83 341.24 C 302.68 342.20 302.37 344.12 302.21 345.08 C 301.77 344.39 300.88 343.01 300.44 342.32 C 300.21 342.25 299.76 342.11 299.54 342.04 C 299.00 342.10 297.94 342.22 297.41 342.28 C 294.88 343.37 292.69 342.21 290.99 340.33 C 290.63 339.72 289.91 338.50 289.56 337.89 C 282.95 326.77 274.79 316.61 269.19 304.90 C 264.33 297.52 262.46 288.78 261.18 280.16 Z" fill="#fec3ab" opacity="1.00" stroke="#fec3ab" stroke-width="0.25"/>
<path d="M 279.43 281.02 C 279.96 281.36 281.01 282.02 281.54 282.35 L 282.51 282.90 C 283.38 283.18 284.26 283.45 285.15 283.71 C 285.60 284.38 286.09 285.03 286.60 285.67 C 287.54 286.67 288.50 287.65 289.50 288.60 C 289.30 289.51 289.07 290.39 288.86 291.30 C 286.90 289.99 284.96 288.65 282.89 287.52 C 282.37 287.37 281.33 287.08 280.82 286.94 C 281.13 286.43 281.76 285.43 282.08 284.92 C 281.38 284.27 280.70 283.62 280.02 282.97 L 279.43 281.02 Z" fill="#502227" opacity="1.00" stroke="#502227" stroke-width="0.25"/>
<path d="M 280.82 286.94 C 281.33 287.08 282.37 287.37 282.89 287.52 C 281.62 288.61 280.37 289.70 279.12 290.81 C 280.44 293.63 281.84 296.42 283.31 299.18 C 285.32 297.79 287.31 296.38 289.19 294.83 C 289.18 294.39 289.15 293.49 289.14 293.05 C 289.83 293.97 290.57 294.87 291.34 295.74 C 288.80 297.46 286.38 299.34 284.00 301.26 C 288.40 304.36 294.66 303.37 298.42 307.54 C 304.04 313.56 302.98 322.54 302.46 330.09 C 303.49 331.34 304.53 332.59 305.57 333.85 C 304.12 334.06 302.12 334.36 302.03 336.30 C 305.37 336.47 308.73 336.58 312.08 336.36 C 309.77 336.53 307.45 336.62 305.14 336.75 C 306.04 338.63 306.95 340.52 307.76 342.46 C 306.20 343.74 304.68 345.13 302.84 346.02 C 300.78 347.03 298.57 346.01 296.53 345.50 C 292.99 349.39 288.47 352.41 283.34 353.72 C 285.98 349.55 288.24 345.09 291.75 341.55 C 291.56 341.24 291.18 340.63 290.99 340.33 C 292.69 342.21 294.88 343.37 297.41 342.28 C 297.23 344.36 299.97 343.96 299.54 342.04 C 299.76 342.11 300.21 342.25 300.44 342.32 C 300.88 343.01 301.77 344.39 302.21 345.08 C 302.37 344.12 302.68 342.20 302.83 341.24 C 303.49 341.63 304.82 342.40 305.48 342.79 C 304.65 339.44 302.13 336.96 300.46 334.03 C 301.06 333.83 302.28 333.44 302.89 333.24 C 293.10 320.50 285.46 306.27 277.59 292.31 C 277.51 291.59 277.37 290.14 277.30 289.41 C 278.47 288.58 279.65 287.77 280.82 286.94 Z" fill="#022648" opacity="1.00" stroke="#022648" stroke-width="0.25"/>
<path d="M 282.89 287.52 C 284.96 288.65 286.90 289.99 288.86 291.30 C 288.93 291.74 289.07 292.61 289.14 293.05 C 289.15 293.49 289.18 294.39 289.19 294.83 C 287.31 296.38 285.32 297.79 283.31 299.18 C 281.84 296.42 280.44 293.63 279.12 290.81 C 280.37 289.70 281.62 288.61 282.89 287.52 Z" fill="#54c9f1" opacity="1.00" stroke="#54c9f1" stroke-width="0.25"/>
<path d="M 291.74 289.78 C 293.42 287.93 295.79 288.91 297.79 289.57 C 297.73 290.31 297.60 291.80 297.54 292.54 C 297.31 293.07 296.83 294.12 296.60 294.65 C 294.91 294.63 293.22 294.60 291.54 294.55 C 291.15 292.99 290.04 290.98 291.74 289.78 Z" fill="#f3b337" opacity="1.00" stroke="#f3b337" stroke-width="0.25"/>
<path d="M 293.10 292.98 C 291.35 290.98 294.60 290.46 295.81 289.92 C 295.82 290.70 295.84 292.27 295.85 293.06 C 295.16 293.04 293.79 293.00 293.10 292.98 Z" fill="#fd9f0a" opacity="1.00" stroke="#fd9f0a" stroke-width="0.25"/>
<path d="M 387.88 298.99 C 390.83 295.97 393.62 292.76 396.98 290.17 C 399.61 294.77 402.20 299.62 402.89 304.94 C 403.34 307.79 400.44 309.33 398.64 310.90 C 394.30 307.71 391.30 303.09 387.88 298.99 Z" fill="#397dab" opacity="1.00" stroke="#397dab" stroke-width="0.25"/>
<path d="M 396.98 290.17 C 397.54 290.13 398.67 290.03 399.23 289.99 C 401.30 294.90 404.16 299.68 404.79 305.04 C 405.19 308.95 401.47 311.13 398.62 312.87 C 398.61 312.20 398.62 311.55 398.64 310.90 C 400.44 309.33 403.34 307.79 402.89 304.94 C 402.20 299.62 399.61 294.77 396.98 290.17 Z" fill="#002139" opacity="1.00" stroke="#002139" stroke-width="0.25"/>
<path d="M 337.29 308.46 C 340.18 301.20 344.73 294.25 351.84 290.55 C 357.79 297.22 367.20 299.20 373.18 305.88 C 362.57 312.60 348.95 311.33 337.29 308.46 Z" fill="#fefefe" opacity="1.00" stroke="#fefefe" stroke-width="0.25"/>
<path d="M 295.84 296.05 C 296.94 295.57 298.03 295.09 299.13 294.59 C 310.45 300.99 321.93 307.47 334.59 310.85 C 332.77 317.18 331.83 323.71 331.16 330.25 C 322.71 331.95 314.23 333.83 305.57 333.85 C 304.53 332.59 303.49 331.34 302.46 330.09 C 302.98 322.54 304.04 313.56 298.42 307.54 C 294.66 303.37 288.40 304.36 284.00 301.26 C 286.38 299.34 288.80 297.46 291.34 295.74 C 292.78 296.07 294.39 296.75 295.84 296.05 Z" fill="#a6edff" opacity="1.00" stroke="#a6edff" stroke-width="0.25"/>
<path d="M 378.15 307.65 C 380.44 305.05 382.82 302.41 386.10 301.06 C 388.50 305.10 392.84 307.93 394.57 312.30 C 391.46 315.32 386.95 314.59 383.05 314.34 C 382.84 314.32 382.41 314.30 382.20 314.28 L 382.24 313.57 C 382.77 310.85 379.57 309.49 378.15 307.65 Z" fill="#3a7cac" opacity="1.00" stroke="#3a7cac" stroke-width="0.25"/>
<path d="M 180.85 310.71 C 191.94 306.53 204.04 308.22 215.52 309.46 C 215.52 309.59 215.52 309.84 215.51 309.96 C 212.58 315.87 209.68 321.79 206.59 327.61 C 197.83 343.09 190.39 359.38 180.15 373.98 C 176.20 370.43 172.41 366.68 169.27 362.38 C 162.95 352.33 160.69 339.63 164.22 328.20 C 166.63 320.17 172.99 313.56 180.85 310.71 Z" fill="#a6edff" opacity="1.00" stroke="#a6edff" stroke-width="0.25"/>
<path d="M 111.12 316.18 C 121.75 308.69 137.58 307.88 147.94 316.25 C 152.51 320.20 157.24 324.04 162.88 326.38 C 162.41 327.88 161.93 329.38 161.46 330.89 C 156.63 329.39 152.16 326.68 147.08 326.09 C 140.05 324.96 132.39 327.29 127.57 332.62 C 124.88 335.38 122.53 338.92 122.79 342.95 C 123.05 348.65 125.23 354.39 123.44 360.07 C 120.79 368.81 114.32 375.98 112.54 385.06 C 110.97 391.40 111.51 398.00 112.92 404.32 C 108.82 402.29 104.59 399.69 102.75 395.28 C 99.93 389.20 103.26 382.71 104.97 376.81 C 101.53 379.14 99.02 382.71 95.10 384.37 C 90.13 387.00 84.31 386.82 78.91 385.92 C 85.34 382.74 90.20 376.87 92.07 369.93 C 94.87 359.19 92.73 347.73 96.02 337.06 C 98.61 328.74 103.67 320.92 111.12 316.18 Z" fill="#5dcdf3" opacity="1.00" stroke="#5dcdf3" stroke-width="0.25"/>
<path d="M 336.39 311.33 C 348.03 314.00 360.57 314.85 371.87 310.30 C 365.01 316.07 357.18 320.58 349.04 324.29 C 343.86 326.22 338.63 328.02 333.30 329.51 C 333.79 323.38 334.69 317.26 336.39 311.33 Z" fill="#fffefd" opacity="1.00" stroke="#fffefd" stroke-width="0.25"/>
<path d="M 312.08 336.36 C 318.46 335.79 324.75 334.45 331.02 333.20 C 329.21 348.02 321.66 362.77 308.62 370.67 C 299.53 376.65 288.73 379.25 278.03 380.33 C 279.33 372.89 279.95 365.36 280.95 357.89 C 281.63 356.43 282.48 355.07 283.34 353.72 C 288.47 352.41 292.99 349.39 296.53 345.50 C 298.57 346.01 300.78 347.03 302.84 346.02 C 304.68 345.13 306.20 343.74 307.76 342.46 C 306.95 340.52 306.04 338.63 305.14 336.75 C 307.45 336.62 309.77 336.53 312.08 336.36 Z" fill="#a7eeff" opacity="1.00" stroke="#a7eeff" stroke-width="0.25"/>
<path d="M 331.02 333.20 L 332.77 332.70 C 331.75 348.18 323.33 363.00 310.57 371.82 C 315.27 382.11 319.33 392.68 324.11 402.93 C 325.11 405.18 326.21 407.40 326.92 409.77 L 325.47 410.47 C 319.90 397.93 314.48 385.34 309.03 372.76 C 304.08 375.18 299.08 377.53 293.85 379.31 C 302.89 396.73 311.22 414.51 320.07 432.03 L 319.11 432.53 L 318.26 432.22 C 309.40 414.89 301.30 397.15 292.14 379.98 C 287.42 380.81 282.70 381.84 277.88 381.91 C 277.80 382.26 277.62 382.97 277.54 383.32 L 277.26 384.46 C 277.09 381.81 276.75 379.19 276.51 376.56 C 276.55 374.59 276.58 372.61 276.54 370.64 C 277.69 366.29 278.97 361.94 280.95 357.89 C 279.95 365.36 279.33 372.89 278.03 380.33 C 288.73 379.25 299.53 376.65 308.62 370.67 C 321.66 362.77 329.21 348.02 331.02 333.20 Z" fill="#001d33" opacity="1.00" stroke="#001d33" stroke-width="0.25"/>
<path d="M 273.45 368.68 C 277.15 357.64 282.76 347.33 289.56 337.89 C 289.91 338.50 290.63 339.72 290.99 340.33 C 291.18 340.63 291.56 341.24 291.75 341.55 C 288.24 345.09 285.98 349.55 283.34 353.72 C 282.48 355.07 281.63 356.43 280.95 357.89 C 278.97 361.94 277.69 366.29 276.54 370.64 L 276.08 369.29 C 276.00 369.05 275.85 368.56 275.77 368.31 C 275.19 368.41 274.03 368.59 273.45 368.68 Z" fill="#59282a" opacity="1.00" stroke="#59282a" stroke-width="0.25"/>
<path d="M 297.41 342.28 C 297.94 342.22 299.00 342.10 299.54 342.04 C 299.97 343.96 297.23 344.36 297.41 342.28 Z" fill="#e2d0d6" opacity="1.00" stroke="#e2d0d6" stroke-width="0.25"/>
<path d="M 260.68 355.37 C 264.92 354.91 269.22 355.45 273.48 355.36 C 273.06 360.97 272.79 366.59 272.15 372.18 C 271.90 373.31 271.67 374.45 271.44 375.60 C 270.93 377.25 270.39 378.90 269.89 380.57 C 264.24 380.70 258.60 380.24 252.99 379.58 C 255.18 371.40 257.76 363.31 260.68 355.37 Z" fill="#a7eefd" opacity="1.00" stroke="#a7eefd" stroke-width="0.25"/>
<path d="M 358.97 360.04 C 361.70 362.58 363.90 365.73 366.98 367.90 C 370.14 367.68 373.15 366.40 376.36 366.50 C 375.25 368.65 373.93 370.72 373.07 372.99 C 374.06 376.17 378.67 376.92 378.84 380.47 C 375.34 380.79 371.61 380.13 368.29 381.31 C 367.01 383.78 366.34 386.52 364.91 388.92 C 362.09 387.29 362.23 383.09 360.76 380.37 C 356.73 379.48 352.79 378.23 348.99 376.63 C 351.59 373.99 355.14 372.86 358.34 371.20 C 359.37 370.80 359.70 369.69 359.47 368.70 C 359.13 365.82 358.83 362.94 358.97 360.04 Z" fill="#d1e5ec" opacity="1.00" stroke="#d1e5ec" stroke-width="0.25"/>
<path d="M 273.45 368.68 C 274.03 368.59 275.19 368.41 275.77 368.31 C 275.85 368.56 276.00 369.05 276.08 369.29 C 274.56 376.52 272.89 383.78 272.59 391.18 C 272.89 391.16 273.49 391.10 273.79 391.08 L 274.06 391.06 C 273.76 392.39 273.49 393.74 273.24 395.10 L 273.47 393.45 C 273.00 392.71 272.53 391.98 272.04 391.26 C 271.67 392.93 271.30 394.63 270.93 396.31 C 269.74 396.47 268.54 396.54 267.34 396.58 C 267.37 395.78 267.41 394.98 267.49 394.19 C 268.37 393.27 269.38 392.46 270.13 391.44 C 271.26 386.25 271.73 380.90 271.44 375.60 C 271.67 374.45 271.90 373.31 272.15 372.18 C 272.56 371.00 273.01 369.84 273.45 368.68 Z" fill="#4d1f1b" opacity="1.00" stroke="#4d1f1b" stroke-width="0.25"/>
<path d="M 276.08 369.29 L 276.54 370.64 C 276.58 372.61 276.55 374.59 276.51 376.56 C 275.79 381.41 275.22 386.30 273.96 391.05 L 273.79 391.08 C 273.49 391.10 272.89 391.16 272.59 391.18 C 272.89 383.78 274.56 376.52 276.08 369.29 Z" fill="#b29258" opacity="1.00" stroke="#b29258" stroke-width="0.25"/>
<path d="M 293.85 379.31 C 299.08 377.53 304.08 375.18 309.03 372.76 C 314.48 385.34 319.90 397.93 325.47 410.47 C 328.52 417.10 331.11 423.95 334.56 430.40 C 330.52 432.45 326.40 434.32 322.19 436.01 C 321.47 434.68 320.76 433.36 320.07 432.03 C 311.22 414.51 302.89 396.73 293.85 379.31 Z" fill="#4a93c1" opacity="1.00" stroke="#4a93c1" stroke-width="0.25"/>
<path d="M 269.89 380.57 C 270.39 378.90 270.93 377.25 271.44 375.60 C 271.73 380.90 271.26 386.25 270.13 391.44 C 269.38 392.46 268.37 393.27 267.49 394.19 C 267.82 389.58 268.53 384.99 269.89 380.57 Z" fill="#623335" opacity="1.00" stroke="#623335" stroke-width="0.25"/>
<path d="M 273.96 391.05 C 275.22 386.30 275.79 381.41 276.51 376.56 C 276.75 379.19 277.09 381.81 277.26 384.46 C 274.59 393.56 274.23 403.43 269.18 411.71 C 268.21 411.34 267.23 410.97 266.26 410.61 C 267.00 410.15 267.76 409.71 268.53 409.30 C 268.65 407.95 268.78 406.61 268.91 405.27 C 269.72 405.29 271.33 405.33 272.14 405.35 C 271.98 401.89 272.31 398.44 273.24 395.10 C 273.49 393.74 273.76 392.39 274.06 391.06 L 273.79 391.08 L 273.96 391.05 Z" fill="#08102e" opacity="1.00" stroke="#08102e" stroke-width="0.25"/>
<path d="M 277.26 384.46 L 277.54 383.32 C 281.18 392.86 284.00 402.73 287.40 412.37 C 293.81 433.27 303.97 452.71 312.16 472.90 C 310.91 472.88 309.66 472.87 308.42 472.86 C 306.91 472.84 305.40 472.84 303.90 472.84 C 301.32 472.84 298.75 472.83 296.18 472.84 C 288.40 456.40 281.33 439.62 273.81 423.04 C 272.38 419.22 270.10 415.69 269.18 411.71 C 274.23 403.43 274.59 393.56 277.26 384.46 Z" fill="#02274a" opacity="1.00" stroke="#02274a" stroke-width="0.25"/>
<path d="M 400.43 388.43 C 402.50 386.82 404.54 385.15 406.83 383.84 C 406.49 387.31 405.31 390.62 404.71 394.04 C 405.39 396.95 409.27 397.87 409.93 400.81 C 406.96 401.41 403.92 401.13 400.92 400.96 C 398.48 402.63 396.12 404.60 393.12 405.08 C 393.84 401.79 395.19 398.63 395.59 395.28 C 394.31 393.28 392.41 391.65 391.80 389.29 C 394.64 389.17 398.03 390.52 400.43 388.43 Z" fill="#d1e4eb" opacity="1.00" stroke="#d1e4eb" stroke-width="0.25"/>
<path d="M 272.04 391.26 C 272.53 391.98 273.00 392.71 273.47 393.45 L 273.24 395.10 C 272.31 398.44 271.98 401.89 272.14 405.35 C 271.33 405.33 269.72 405.29 268.91 405.27 C 268.78 406.61 268.65 407.95 268.53 409.30 C 268.03 408.19 269.30 405.27 267.30 405.46 C 266.16 405.90 265.08 406.50 264.01 407.08 C 264.59 405.93 265.22 404.80 265.91 403.71 L 266.15 403.33 C 266.39 403.78 266.88 404.69 267.13 405.14 C 268.24 403.16 269.19 401.10 269.96 398.98 C 269.30 398.91 267.98 398.76 267.33 398.68 C 267.33 398.16 267.34 397.11 267.34 396.58 C 268.54 396.54 269.74 396.47 270.93 396.31 C 271.30 394.63 271.67 392.93 272.04 391.26 Z" fill="#f3b337" opacity="1.00" stroke="#f3b337" stroke-width="0.25"/>
<path d="M 267.33 398.68 C 267.98 398.76 269.30 398.91 269.96 398.98 C 269.19 401.10 268.24 403.16 267.13 405.14 C 266.88 404.69 266.39 403.78 266.15 403.33 C 266.47 402.82 267.11 401.81 267.43 401.31 C 267.39 400.43 267.35 399.55 267.33 398.68 Z" fill="#40330d" opacity="1.00" stroke="#40330d" stroke-width="0.25"/>
<path d="M 361.71 407.62 C 363.81 405.96 365.77 404.11 368.07 402.73 C 368.26 405.64 368.34 408.57 368.31 411.49 C 371.14 412.70 373.92 414.14 375.96 416.52 C 373.23 416.68 370.49 416.78 367.77 416.84 C 367.00 419.91 366.44 423.03 365.98 426.16 C 364.38 423.96 363.09 421.56 361.62 419.29 C 360.14 416.35 355.04 420.35 354.16 417.26 C 355.12 415.48 356.98 414.10 357.32 412.05 C 356.79 410.06 355.32 408.30 355.27 406.22 C 357.31 405.38 359.49 407.63 361.71 407.62 Z" fill="#d1e4eb" opacity="1.00" stroke="#d1e4eb" stroke-width="0.25"/>
<path d="M 267.30 405.46 C 269.30 405.27 268.03 408.19 268.53 409.30 C 267.76 409.71 267.00 410.15 266.26 410.61 L 265.98 410.79 C 263.16 411.26 263.21 409.02 264.01 407.08 C 265.08 406.50 266.16 405.90 267.30 405.46 Z" fill="#ffaf15" opacity="1.00" stroke="#ffaf15" stroke-width="0.25"/>
<path d="M 325.47 410.47 L 326.92 409.77 C 332.08 420.13 336.23 431.00 341.87 441.13 C 347.24 452.08 353.28 462.70 358.32 473.80 C 351.64 473.94 344.95 473.94 338.27 473.78 C 331.73 460.12 325.27 446.41 318.59 432.82 L 319.11 432.53 L 320.07 432.03 C 320.76 433.36 321.47 434.68 322.19 436.01 C 326.40 434.32 330.52 432.45 334.56 430.40 C 331.11 423.95 328.52 417.10 325.47 410.47 Z" fill="#03274b" opacity="1.00" stroke="#03274b" stroke-width="0.25"/>
<path d="M 145.09 430.16 C 146.53 426.87 148.06 423.62 149.65 420.40 C 153.75 421.58 157.88 422.70 161.98 423.92 C 160.21 427.99 158.20 431.96 156.38 436.01 C 152.60 434.09 148.91 432.00 145.09 430.16 Z" fill="#4d96c3" opacity="1.00" stroke="#4d96c3" stroke-width="0.25"/>
<path d="M 395.42 421.29 C 397.04 420.17 396.84 423.13 397.34 423.98 C 397.76 427.22 401.33 428.30 403.56 430.12 C 401.93 431.93 399.29 431.23 397.35 432.33 C 396.38 433.70 395.98 435.48 394.75 436.64 C 392.51 435.77 392.40 432.60 391.30 430.70 C 389.69 429.77 388.08 428.84 386.48 427.90 C 389.38 425.52 393.28 424.57 395.42 421.29 Z" fill="#d0e2e8" opacity="1.00" stroke="#d0e2e8" stroke-width="0.25"/>
<path d="M 257.34 464.55 C 258.05 464.42 259.47 464.16 260.18 464.03 C 260.67 464.98 261.09 465.96 261.43 466.99 C 260.64 468.73 257.49 469.22 257.02 466.99 C 257.10 466.38 257.26 465.16 257.34 464.55 Z" fill="#d1dde1" opacity="1.00" stroke="#d1dde1" stroke-width="0.25"/>
<path d="M 357.29 465.07 C 359.11 465.50 362.28 465.15 361.38 468.03 C 360.33 470.22 358.13 468.90 356.54 468.23 C 356.73 467.44 357.10 465.86 357.29 465.07 Z" fill="#cedadd" opacity="1.00" stroke="#cedadd" stroke-width="0.25"/>
<path d="M 371.07 469.92 C 370.63 468.32 369.41 465.33 372.07 465.17 C 374.57 464.55 374.74 466.95 374.95 468.76 C 373.65 469.14 372.36 469.53 371.07 469.92 Z" fill="#cbd6de" opacity="1.00" stroke="#cbd6de" stroke-width="0.25"/>
<path d="M 396.23 465.32 C 397.88 464.55 399.66 466.39 399.38 468.04 C 398.53 470.40 394.11 469.61 394.73 466.92 C 395.11 466.52 395.86 465.72 396.23 465.32 Z" fill="#d3ddde" opacity="1.00" stroke="#d3ddde" stroke-width="0.25"/>
<path d="M 243.33 468.00 C 243.17 466.17 245.38 466.09 246.68 466.35 C 247.69 467.18 247.54 468.67 247.93 469.82 C 246.35 469.63 243.20 470.54 243.33 468.00 Z" fill="#c8d4d3" opacity="1.00" stroke="#c8d4d3" stroke-width="0.25"/>
<path d="M 381.32 466.08 C 382.84 466.37 385.48 466.45 384.75 468.73 C 384.10 471.22 381.24 470.41 380.01 468.89 C 380.45 467.95 380.88 467.01 381.32 466.08 Z" fill="#d7dfe4" opacity="1.00" stroke="#d7dfe4" stroke-width="0.25"/>
<path d="M 112.30 467.36 C 113.39 467.40 115.16 467.05 115.60 468.42 C 116.32 470.64 112.59 473.12 111.30 470.65 C 111.12 469.47 111.24 468.09 112.30 467.36 Z" fill="#c1d2da" opacity="1.00" stroke="#c1d2da" stroke-width="0.25"/>
<path d="M 232.17 468.04 C 233.23 468.49 234.84 468.18 235.52 469.27 C 235.60 470.39 235.66 471.52 235.68 472.66 C 234.19 472.46 232.39 472.96 231.28 471.67 C 231.55 470.45 231.86 469.24 232.17 468.04 Z" fill="#ccd5d9" opacity="1.00" stroke="#ccd5d9" stroke-width="0.25"/>
<path d="M 284.31 468.30 C 285.66 466.89 289.06 467.68 288.41 470.09 C 287.74 471.27 286.59 472.20 285.16 471.85 C 283.84 471.25 283.94 469.46 284.31 468.30 Z" fill="#d0dbe0" opacity="1.00" stroke="#d0dbe0" stroke-width="0.25"/>
<path d="M 320.03 469.06 C 321.26 468.84 322.47 468.36 323.74 468.41 C 324.76 469.19 324.53 470.76 325.01 471.87 C 323.76 472.14 322.52 472.45 321.27 472.69 C 320.47 471.64 320.36 470.28 320.03 469.06 Z" fill="#bed5d6" opacity="1.00" stroke="#bed5d6" stroke-width="0.25"/>
<path d="M 404.32 468.32 C 407.71 467.12 408.47 473.01 405.01 472.73 C 402.32 473.01 401.56 468.78 404.32 468.32 Z" fill="#d3dede" opacity="1.00" stroke="#d3dede" stroke-width="0.25"/>
<path d="M 103.35 469.39 C 105.53 468.44 107.82 472.25 105.27 473.31 C 102.65 475.33 99.69 470.12 103.35 469.39 Z" fill="#d5e0e2" opacity="1.00" stroke="#d5e0e2" stroke-width="0.25"/>
<path d="M 119.77 470.80 C 121.18 470.25 122.60 469.70 124.02 469.17 C 123.46 470.35 122.90 471.54 122.34 472.73 C 123.96 472.80 125.58 472.86 127.20 472.91 C 126.25 474.00 125.72 475.90 124.05 476.06 C 122.77 475.71 121.54 475.19 120.30 474.71 C 120.13 473.40 119.95 472.09 119.77 470.80 Z" fill="#dbe9f4" opacity="1.00" stroke="#dbe9f4" stroke-width="0.25"/>
<path d="M 152.17 469.07 C 154.97 468.01 156.74 471.95 154.08 473.29 C 151.37 473.79 149.77 470.65 152.17 469.07 Z" fill="#cdd8dd" opacity="1.00" stroke="#cdd8dd" stroke-width="0.25"/>
<path d="M 158.81 471.93 C 157.82 470.25 160.47 469.51 161.12 468.33 C 161.82 469.19 162.48 470.08 163.11 471.01 C 163.08 472.88 159.28 474.47 158.81 471.93 Z" fill="#cdd8de" opacity="1.00" stroke="#cdd8de" stroke-width="0.25"/>
<path d="M 215.30 469.47 C 216.61 469.09 218.93 469.13 218.62 471.07 C 219.21 472.78 217.33 474.45 215.78 473.34 C 214.28 472.82 213.51 469.92 215.30 469.47 Z" fill="#cbd5d5" opacity="1.00" stroke="#cbd5d5" stroke-width="0.25"/>
<path d="M 267.42 473.25 C 266.55 472.09 265.05 469.87 267.04 469.06 C 268.70 467.85 269.78 470.24 270.92 471.03 C 270.37 471.80 269.82 472.58 269.28 473.36 C 269.83 474.31 270.38 475.26 270.94 476.22 C 269.82 477.92 267.81 477.90 265.99 477.89 C 266.42 476.33 266.93 474.79 267.42 473.25 Z" fill="#c8d7db" opacity="1.00" stroke="#c8d7db" stroke-width="0.25"/>
<path d="M 276.35 469.35 C 277.56 469.35 278.77 469.35 279.98 469.35 C 279.63 472.13 279.62 474.93 279.50 477.72 C 278.40 477.69 277.30 477.67 276.20 477.65 C 276.24 474.88 276.29 472.11 276.35 469.35 Z" fill="#cad7da" opacity="1.00" stroke="#cad7da" stroke-width="0.25"/>
<path d="M 204.93 473.01 C 205.35 470.90 207.43 467.99 209.38 470.69 C 211.44 473.66 206.79 474.61 204.93 473.01 Z" fill="#d5dfe1" opacity="1.00" stroke="#d5dfe1" stroke-width="0.25"/>
<path d="M 223.55 470.53 C 224.56 470.45 225.57 470.36 226.58 470.29 C 226.93 471.06 227.28 471.85 227.64 472.64 C 226.20 473.64 224.76 474.66 223.33 475.67 C 223.40 473.95 223.48 472.24 223.55 470.53 Z" fill="#c6d3db" opacity="1.00" stroke="#c6d3db" stroke-width="0.25"/>
<path d="M 247.93 474.13 C 248.33 472.71 248.42 469.72 250.66 470.40 C 251.73 471.13 253.07 472.20 252.57 473.68 C 251.61 475.42 249.42 474.14 247.93 474.13 Z" fill="#c6d4d4" opacity="1.00" stroke="#c6d4d4" stroke-width="0.25"/>
<path d="M 388.79 472.17 C 390.26 470.76 391.99 469.89 393.97 470.91 C 393.93 471.64 393.85 473.12 393.81 473.86 C 391.73 474.72 389.93 474.05 388.79 472.17 Z" fill="#d7e0e3" opacity="1.00" stroke="#d7e0e3" stroke-width="0.25"/>
<path d="M 93.99 472.34 C 95.04 471.70 96.10 471.06 97.15 470.43 C 98.42 471.50 99.60 473.56 97.85 474.83 C 95.78 476.38 94.99 473.60 93.99 472.34 Z" fill="#d5dfdf" opacity="1.00" stroke="#d5dfdf" stroke-width="0.25"/>
<path d="M 197.12 471.18 C 198.88 469.25 202.24 472.38 200.31 474.28 C 198.51 476.96 194.23 473.16 197.12 471.18 Z" fill="#d3dbde" opacity="1.00" stroke="#d3dbde" stroke-width="0.25"/>
<path d="M 316.05 475.58 C 314.28 474.67 313.79 471.53 316.01 470.90 C 317.14 471.09 318.23 471.45 319.28 471.99 C 318.76 473.60 318.01 475.40 316.05 475.58 Z" fill="#d1dde0" opacity="1.00" stroke="#d1dde0" stroke-width="0.25"/>
<path d="M 362.20 472.86 C 363.55 472.21 364.83 469.96 366.38 471.56 C 368.15 472.84 366.57 474.63 365.98 476.10 C 364.33 475.53 363.06 474.36 362.20 472.86 Z" fill="#d1dce1" opacity="1.00" stroke="#d1dce1" stroke-width="0.25"/>
<path d="M 413.41 473.68 C 412.53 471.06 416.02 471.32 417.65 471.07 C 417.68 472.39 417.72 473.71 417.77 475.03 C 416.13 475.10 414.31 475.41 413.41 473.68 Z" fill="#c9d4d2" opacity="1.00" stroke="#c9d4d2" stroke-width="0.25"/>
<path d="M 237.37 473.89 C 238.45 473.22 239.45 472.24 240.80 472.19 C 241.55 473.15 242.26 474.15 242.91 475.20 C 241.72 475.89 240.59 476.92 239.14 476.93 C 238.46 475.96 237.87 474.95 237.37 473.89 Z" fill="#d4e1e3" opacity="1.00" stroke="#d4e1e3" stroke-width="0.25"/>
<path d="M 258.25 473.33 C 260.02 472.61 262.63 475.23 260.82 476.74 C 260.02 478.37 258.19 477.68 256.94 477.07 C 256.18 475.56 256.68 473.98 258.25 473.33 Z" fill="#d4dee0" opacity="1.00" stroke="#d4dee0" stroke-width="0.25"/>
<path d="M 296.18 472.84 C 298.75 472.83 301.32 472.84 303.90 472.84 C 302.40 474.48 301.09 476.66 298.65 476.84 C 297.84 475.49 297.02 474.16 296.18 472.84 Z" fill="#bdcfdd" opacity="1.00" stroke="#bdcfdd" stroke-width="0.25"/>
<path d="M 308.42 472.86 C 309.66 472.87 310.91 472.88 312.16 472.90 C 311.71 474.43 311.59 476.02 311.50 477.61 C 309.29 478.15 307.19 479.01 305.02 479.67 C 303.39 479.92 303.34 477.94 303.33 476.84 C 305.21 476.05 309.26 475.87 308.42 472.86 Z" fill="#c8d7dc" opacity="1.00" stroke="#c8d7dc" stroke-width="0.25"/>
<path d="M 380.28 473.36 C 382.13 472.45 383.03 474.82 384.22 475.77 C 383.00 476.60 381.93 478.09 380.26 477.74 C 378.61 476.77 378.43 474.21 380.28 473.36 Z" fill="#d4dee0" opacity="1.00" stroke="#d4dee0" stroke-width="0.25"/>
<path d="M 112.42 476.72 C 111.54 474.85 114.29 472.89 115.82 474.12 C 117.32 475.14 116.24 477.03 116.34 478.47 C 115.01 477.90 112.51 478.81 112.42 476.72 Z" fill="#d3dce1" opacity="1.00" stroke="#d3dce1" stroke-width="0.25"/>
<path d="M 161.22 476.78 C 161.38 474.84 163.45 474.57 164.87 473.90 C 165.29 475.48 165.58 477.11 165.69 478.76 C 164.09 478.46 161.73 478.84 161.22 476.78 Z" fill="#d8dde1" opacity="1.00" stroke="#d8dde1" stroke-width="0.25"/>
<path d="M 331.79 473.61 C 333.62 473.53 336.90 473.12 335.95 476.00 C 334.12 477.99 330.48 476.48 331.79 473.61 Z" fill="#cdd7db" opacity="1.00" stroke="#cdd7db" stroke-width="0.25"/>
<path d="M 397.14 477.73 C 396.98 476.31 396.34 474.60 398.00 473.81 C 398.72 473.87 400.16 473.98 400.87 474.03 C 400.80 475.27 400.74 476.53 400.68 477.78 C 399.49 477.76 398.31 477.74 397.14 477.73 Z" fill="#c8dad8" opacity="1.00" stroke="#c8dad8" stroke-width="0.25"/>
<path d="M 142.94 474.69 C 145.41 475.26 146.84 476.71 146.48 479.38 C 144.90 479.49 143.33 479.33 141.79 479.02 C 142.27 477.60 142.63 476.15 142.94 474.69 Z" fill="#cedce1" opacity="1.00" stroke="#cedce1" stroke-width="0.25"/>
<path d="M 328.53 475.15 C 330.00 476.40 330.30 478.10 329.89 479.95 C 327.46 479.98 326.01 478.88 326.15 476.36 C 326.75 476.06 327.93 475.45 328.53 475.15 Z" fill="#c4d3d8" opacity="1.00" stroke="#c4d3d8" stroke-width="0.25"/>
<path d="M 343.37 476.39 C 343.48 474.18 345.86 474.70 347.39 474.55 C 347.38 475.41 347.35 477.15 347.34 478.01 C 346.58 480.45 342.37 478.67 343.37 476.39 Z" fill="#d1dee2" opacity="1.00" stroke="#d1dee2" stroke-width="0.25"/>
<path d="M 203.03 479.77 C 203.42 478.30 203.19 476.26 205.05 475.79 C 206.38 475.92 208.26 477.04 207.58 478.62 C 206.69 480.29 204.53 479.46 203.03 479.77 Z" fill="#cad3da" opacity="1.00" stroke="#cad3da" stroke-width="0.25"/>
<path d="M 230.26 476.20 C 231.80 475.95 234.38 476.94 233.01 478.90 C 231.39 482.06 226.67 477.63 230.26 476.20 Z" fill="#ccdadd" opacity="1.00" stroke="#ccdadd" stroke-width="0.25"/>
<path d="M 285.10 476.17 C 286.64 476.00 288.88 475.49 289.58 477.40 C 289.42 478.28 289.25 479.17 289.07 480.05 C 287.95 479.80 286.85 479.52 285.76 479.22 C 285.55 478.19 285.33 477.18 285.10 476.17 Z" fill="#c6d4d8" opacity="1.00" stroke="#c6d4d8" stroke-width="0.25"/>
<path d="M 125.00 478.08 C 126.53 477.21 128.25 477.06 129.97 477.00 C 129.89 478.33 129.82 479.67 129.75 481.02 C 127.31 481.71 125.74 480.28 125.00 478.08 Z" fill="#d1d8e1" opacity="1.00" stroke="#d1d8e1" stroke-width="0.25"/>
<path d="M 132.29 479.02 C 131.94 476.90 134.43 476.99 135.85 477.10 C 137.36 478.21 136.35 480.02 136.15 481.48 C 134.54 481.25 132.02 481.34 132.29 479.02 Z" fill="#d2dee1" opacity="1.00" stroke="#d2dee1" stroke-width="0.25"/>
<path d="M 151.73 477.82 C 153.36 477.45 155.02 477.32 156.69 477.33 C 156.46 478.75 156.96 480.80 155.06 481.22 C 152.90 482.05 152.09 479.33 151.73 477.82 Z" fill="#d3dfe1" opacity="1.00" stroke="#d3dfe1" stroke-width="0.25"/>
<path d="M 169.30 477.02 C 170.67 477.30 172.04 477.60 173.41 477.90 C 172.97 478.97 172.47 480.02 171.93 481.05 C 170.54 481.72 169.32 480.31 168.04 479.97 C 168.46 478.98 168.88 477.99 169.30 477.02 Z" fill="#d4dddf" opacity="1.00" stroke="#d4dddf" stroke-width="0.25"/>
<path d="M 179.39 477.11 C 180.89 477.39 183.39 477.69 182.58 479.89 C 182.65 482.88 179.28 481.13 178.18 479.82 C 178.58 478.91 178.98 478.01 179.39 477.11 Z" fill="#c6d0d9" opacity="1.00" stroke="#c6d0d9" stroke-width="0.25"/>
<path d="M 187.57 477.51 C 189.67 476.53 191.43 477.57 191.92 479.73 C 191.44 480.22 190.48 481.19 189.99 481.68 C 188.22 481.10 186.07 479.53 187.57 477.51 Z" fill="#d2dddf" opacity="1.00" stroke="#d2dddf" stroke-width="0.25"/>
<path d="M 370.97 476.92 C 373.26 475.60 374.53 477.80 375.06 479.69 C 374.54 480.10 373.49 480.91 372.97 481.31 C 370.63 481.01 369.21 478.87 370.97 476.92 Z" fill="#d4dfe2" opacity="1.00" stroke="#d4dfe2" stroke-width="0.25"/>
<path d="M 196.91 478.05 C 197.88 478.39 198.85 478.72 199.82 479.07 C 199.86 479.85 199.95 481.41 199.99 482.20 C 198.33 482.31 196.44 482.81 195.47 481.02 C 195.95 480.03 196.43 479.04 196.91 478.05 Z" fill="#d2dbdb" opacity="1.00" stroke="#d2dbdb" stroke-width="0.25"/>
</svg>