<svg xmlns="http://www.w3.org/2000/svg" height="512pt" version="1.1" viewBox="0 0 512 512" width="512pt">

<path d="M 235.34 103.87 C 235.00 99.78 233.45 95.34 235.71 91.52 C 238.02 96.93 237.72 102.88 238.38 108.60 C 239.50 118.02 240.33 127.47 240.78 136.94 C 240.25 136.78 239.18 136.46 238.65 136.30 C 237.41 125.50 236.53 114.67 235.34 103.87 Z" fill="#a0ebff" opacity="1.00" stroke="#a0ebff" stroke-width="0.25" data-index="1" style="visibility: hidden; opacity: 1;"></path>

<path d="M 186.13 103.68 C 187.92 105.40 189.33 107.48 190.13 109.84 C 192.50 116.31 195.22 122.65 197.74 129.07 C 196.94 129.29 196.14 129.52 195.35 129.75 C 193.82 126.47 192.45 123.13 191.19 119.74 C 189.23 114.49 186.38 109.42 186.13 103.68 Z" fill="#a0ebff" opacity="1.00" stroke="#a0ebff" stroke-width="0.25" data-index="3" style="visibility: hidden; opacity: 1;"></path>

<path d="M 361.94 120.93 C 363.66 119.13 365.85 117.90 368.12 116.92 C 366.85 119.29 365.28 121.49 363.33 123.33 C 357.89 128.56 352.57 133.92 347.34 139.35 C 345.48 141.35 343.21 142.90 340.76 144.09 C 341.83 141.56 343.34 139.23 345.36 137.34 C 350.93 131.92 356.41 126.40 361.94 120.93 Z" fill="#a0ebff" opacity="1.00" stroke="#a0ebff" stroke-width="0.25" data-index="5" style="visibility: hidden; opacity: 1;"></path>

<path d="M 315.96 136.49 C 320.41 131.07 324.18 124.78 330.09 120.82 C 328.70 126.45 324.18 130.40 320.56 134.64 C 319.49 136.17 317.68 136.46 315.96 136.49 Z" fill="#a0ebff" opacity="1.00" stroke="#a0ebff" stroke-width="0.25" data-index="7" style="visibility: hidden; opacity: 1;"></path>

<path d="M 111.06 141.84 C 113.69 143.11 115.97 144.97 117.76 147.27 C 121.85 152.35 126.52 157.01 130.00 162.56 C 126.46 162.28 124.41 159.15 122.23 156.75 C 118.29 151.96 113.65 147.58 111.06 141.84 Z" fill="#a0ebff" opacity="1.00" stroke="#a0ebff" stroke-width="0.25" data-index="9" style="opacity: 1; visibility: hidden;"></path>

<path d="M 72.23 153.99 C 75.50 155.55 78.67 157.32 81.70 159.31 C 89.85 164.58 98.43 169.17 106.28 174.89 C 105.94 175.39 105.24 176.37 104.89 176.87 C 93.96 170.32 83.24 163.40 72.49 156.54 C 72.43 155.90 72.29 154.63 72.23 153.99 Z" fill="#a0ebff" opacity="1.00" stroke="#a0ebff" stroke-width="0.25" data-index="11" style="opacity: 1; visibility: hidden;"></path>
<path d="M 201.82 163.02 C 211.31 158.73 221.97 155.26 232.43 157.74 C 247.61 161.24 262.98 166.30 278.75 164.55 C 288.64 162.27 298.76 159.75 308.99 160.89 C 316.99 161.68 324.26 166.78 328.19 173.72 C 334.51 184.78 337.96 197.11 342.13 209.06 C 351.61 238.79 360.85 268.60 369.56 298.56 C 384.27 302.20 398.99 306.45 412.46 313.51 C 418.59 317.04 425.18 320.78 428.69 327.20 C 430.98 332.02 429.60 338.10 425.95 341.90 C 419.48 348.88 410.82 353.27 402.42 357.46 C 381.55 366.95 359.38 373.23 337.00 377.95 C 292.07 387.44 245.80 390.20 200.02 387.10 C 182.22 385.42 164.40 383.04 147.19 378.05 C 132.16 373.96 117.49 368.09 104.39 359.58 C 95.45 353.36 86.67 345.53 83.44 334.76 C 80.29 324.41 83.75 312.90 91.57 305.57 C 104.98 293.13 123.56 288.60 141.25 286.61 C 148.93 258.79 157.36 231.19 165.31 203.45 C 167.30 196.82 169.10 189.93 173.29 184.28 C 180.51 174.61 191.11 168.19 201.82 163.02 Z" fill="#052a4c" opacity="1.00" stroke="#052a4c" stroke-width="0.25" data-index="12" style="opacity: 1;"></path>

<path d="M 218.41 162.50 C 225.48 160.47 232.71 162.68 239.54 164.60 C 246.26 166.62 253.13 168.05 259.94 169.76 C 243.97 174.48 228.09 179.79 211.60 182.41 C 207.22 182.86 202.65 183.98 198.32 182.81 C 195.25 181.80 196.13 177.60 197.64 175.59 C 202.70 168.95 210.49 164.76 218.41 162.50 Z" fill="#a0ebff" opacity="1.00" stroke="#a0ebff" stroke-width="0.25" data-index="14"></path>
<path d="M 267.47 176.66 C 279.83 173.61 292.17 169.52 305.04 169.55 C 311.64 169.38 317.73 173.55 320.77 179.26 C 326.77 190.50 330.13 202.85 334.35 214.80 C 341.22 236.63 348.18 258.43 354.59 280.39 C 339.97 286.07 324.39 288.83 308.93 291.11 C 264.14 296.56 217.91 293.33 175.00 278.95 C 168.27 276.74 161.78 273.88 155.27 271.12 C 162.13 246.72 169.47 222.46 176.20 198.02 C 177.23 194.35 178.40 190.67 180.32 187.36 C 182.16 184.15 185.15 181.87 187.69 179.24 C 187.26 181.65 185.98 184.31 187.32 186.65 C 188.86 189.60 192.33 190.75 195.40 191.31 C 203.24 192.60 211.19 191.13 218.92 189.71 C 235.35 186.33 251.33 181.18 267.47 176.66 Z" fill="#a0ebff" opacity="1.00" stroke="#a0ebff" stroke-width="0.25" data-index="15" style="opacity: 1;"></path>

<path d="M 388.75 195.20 C 392.76 191.73 397.67 189.57 402.70 188.03 C 402.65 188.66 402.57 189.91 402.52 190.54 C 398.20 192.70 393.86 195.90 388.75 195.20 Z" fill="#a0ebff" opacity="1.00" stroke="#a0ebff" stroke-width="0.25" data-index="17" style="visibility: hidden; opacity: 1;"></path>

<path d="M 99.64 310.66 C 110.66 301.79 124.81 297.93 138.57 295.94 C 137.61 299.95 136.53 303.93 135.61 307.96 C 160.92 325.39 191.07 334.34 221.21 338.89 C 248.18 342.65 275.62 343.46 302.72 340.49 C 319.61 338.56 336.48 335.42 352.48 329.55 C 360.35 326.79 367.94 323.13 374.74 318.27 C 373.94 315.18 373.19 312.08 372.41 308.99 C 386.58 312.45 400.78 316.94 413.26 324.67 C 416.09 326.77 420.29 328.83 420.30 332.88 C 418.77 337.42 414.29 339.96 410.53 342.48 C 392.21 353.45 371.54 359.62 351.03 365.05 C 303.72 376.86 254.61 380.70 205.97 378.17 C 189.52 376.79 173.03 374.99 156.98 370.96 C 139.86 366.73 122.76 360.96 108.13 350.88 C 100.94 345.77 93.68 339.13 92.07 330.03 C 90.43 322.76 93.95 315.16 99.64 310.66 Z" fill="#a0ebff" opacity="1.00" stroke="#a0ebff" stroke-width="0.25" data-index="19" style="opacity: 1;"></path>
</svg>