<svg xmlns="http://www.w3.org/2000/svg" height="512pt" version="1.1" viewBox="0 0 512 512" width="512pt">
<path d="M 0.00 0.00 L 512.00 0.00 L 512.00 512.00 L 0.00 512.00 L 0.00 0.00 Z" fill="transparent" opacity="1.00" stroke="transparent" stroke-width="0.25" data-index="0" style="opacity: 1;"></path>
<path d="M 324.50 51.52 C 327.59 48.68 328.09 44.16 330.93 41.14 C 337.51 46.30 340.44 54.89 340.64 63.02 C 341.24 74.41 337.11 85.56 331.12 95.09 C 337.03 114.21 335.93 134.72 332.46 154.20 C 335.17 156.99 338.78 159.21 339.95 163.19 C 342.84 172.58 339.02 183.67 330.75 189.09 C 327.01 191.93 322.17 192.57 317.60 192.33 C 312.29 210.18 300.27 226.23 283.51 234.75 C 283.47 237.56 283.46 240.38 283.46 243.19 C 290.14 247.20 294.64 253.59 299.14 259.72 C 314.17 264.39 329.16 269.58 343.22 276.78 C 352.24 281.22 361.35 286.33 367.66 294.38 C 372.41 300.09 374.90 307.21 377.25 314.15 C 385.09 338.91 389.09 364.67 392.43 390.37 C 388.71 391.30 384.98 392.15 381.18 392.63 C 382.26 417.98 384.71 443.26 385.71 468.61 C 370.15 469.17 354.56 468.70 338.99 468.84 C 285.99 468.80 232.99 468.85 179.99 468.82 C 179.37 468.68 178.12 468.38 177.50 468.24 C 177.51 456.59 177.48 444.93 177.56 433.28 C 169.23 433.60 160.61 431.85 153.72 426.97 C 143.44 420.40 137.31 408.18 137.60 396.05 C 137.63 393.55 137.78 391.06 137.89 388.57 C 135.05 388.15 132.22 387.64 129.37 387.26 C 131.93 362.03 134.90 336.66 141.65 312.14 C 144.47 305.45 144.06 298.12 144.55 291.02 C 145.11 279.13 146.10 267.26 146.46 255.36 C 146.80 255.05 147.48 254.41 147.82 254.10 C 149.03 248.67 144.37 245.20 142.20 240.87 C 136.61 230.74 136.22 218.82 131.91 208.21 C 127.13 194.62 120.59 181.68 116.57 167.83 C 117.49 166.58 117.93 164.24 119.89 164.34 C 122.92 163.72 124.87 166.68 126.35 168.82 C 131.08 176.79 135.30 185.06 138.86 193.62 C 138.98 193.51 139.23 193.30 139.35 193.19 C 135.51 180.20 131.98 167.11 128.79 153.95 C 127.81 150.79 128.15 146.50 131.87 145.42 C 134.77 146.17 136.87 148.39 137.93 151.13 C 142.47 161.76 145.76 172.91 149.65 183.74 C 147.72 175.49 146.04 167.19 143.97 158.98 C 142.82 152.66 140.18 146.38 141.44 139.87 C 143.35 138.41 145.95 137.33 148.23 138.67 C 151.16 141.29 151.76 145.37 152.99 148.90 C 157.01 160.90 160.65 173.03 164.73 185.01 C 166.55 184.57 168.38 184.16 170.21 183.76 C 168.74 171.50 166.88 159.29 165.10 147.08 C 164.64 143.53 164.01 139.48 166.30 136.39 C 167.65 135.30 169.44 135.65 171.04 135.62 C 171.36 136.06 172.01 136.95 172.34 137.39 C 172.59 137.31 173.09 137.15 173.34 137.07 C 170.26 125.37 168.49 112.93 170.96 100.93 C 173.19 91.34 177.74 81.82 185.75 75.76 C 190.02 72.14 195.37 69.91 200.94 69.31 C 202.38 69.33 203.59 68.55 204.48 67.48 C 217.46 52.90 237.94 46.47 257.08 48.10 C 273.16 49.36 287.97 56.86 304.01 58.28 C 311.34 59.02 319.46 57.23 324.50 51.52 Z" fill="#1e344f" opacity="1.00" stroke="#1e344f" stroke-width="0.25" data-index="1" style="opacity: 1;"></path>
<path d="M 331.58 44.33 C 334.41 48.46 337.27 52.86 337.71 57.99 C 339.89 70.37 335.72 82.86 329.38 93.39 C 327.92 95.46 329.57 97.89 329.89 100.09 C 333.39 112.37 332.85 125.26 332.33 137.87 C 331.52 142.76 331.77 148.05 329.75 152.61 C 327.13 152.49 324.59 151.77 321.99 151.59 C 319.11 151.33 316.27 152.96 313.45 151.83 C 313.49 143.18 312.93 134.49 314.34 125.91 C 314.51 120.73 316.74 115.21 314.28 110.29 C 293.85 119.99 269.76 122.80 248.04 115.89 C 239.88 113.61 232.03 110.32 224.49 106.47 C 223.18 105.95 221.86 105.07 220.40 105.29 C 218.07 108.16 217.24 111.96 214.74 114.74 C 210.25 121.06 203.36 124.87 197.06 129.09 C 194.21 136.54 192.46 144.40 191.25 152.28 C 186.82 151.68 182.73 153.54 178.60 154.77 C 177.36 146.80 175.89 138.88 174.23 131.00 C 170.90 115.56 170.70 97.78 180.52 84.54 C 184.37 78.28 191.02 74.13 197.96 72.09 C 200.51 71.20 203.81 71.99 205.68 69.67 C 213.84 60.00 225.68 53.79 238.04 51.50 C 244.23 49.81 250.69 50.42 257.02 50.44 C 267.99 51.49 278.55 54.80 289.04 58.00 C 299.04 60.34 310.08 62.30 319.86 58.03 C 325.16 55.00 329.45 50.08 331.58 44.33 Z" fill="#5e4445" opacity="1.00" stroke="#5e4445" stroke-width="0.25" data-index="2" style="opacity: 1;"></path>
<path d="M 220.96 108.26 C 225.39 108.43 228.97 111.62 233.10 112.97 C 257.96 124.50 287.92 125.29 312.80 113.40 C 312.75 124.63 309.97 135.74 310.83 147.00 C 310.99 149.59 311.67 152.12 312.65 154.53 C 314.69 154.49 316.75 154.45 318.80 154.38 C 319.29 170.28 318.37 186.78 311.63 201.44 C 305.00 216.30 292.81 228.88 277.52 234.78 C 264.94 239.64 250.79 239.78 237.86 236.25 C 225.48 232.23 214.32 224.31 206.47 213.94 C 207.09 202.59 211.10 191.47 210.63 180.01 C 210.50 176.48 205.78 175.04 203.39 177.37 C 199.35 180.93 197.48 186.19 195.79 191.14 C 193.24 180.99 192.97 170.45 193.20 160.04 C 193.43 150.15 195.44 140.32 199.01 131.10 C 200.75 128.38 204.23 127.62 206.64 125.62 C 212.61 121.09 218.57 115.57 220.96 108.26 Z" fill="#fdb796" opacity="1.00" stroke="#fdb796" stroke-width="0.25" data-index="3" style="opacity: 1;"></path>
<path d="M 204.29 136.01 C 210.16 130.07 219.12 129.14 227.06 128.80 C 231.98 129.07 237.50 128.96 241.51 132.29 C 241.35 134.61 242.48 137.77 239.94 139.18 C 236.99 139.83 234.04 138.50 231.09 138.39 C 225.13 138.01 218.89 137.85 213.28 140.24 C 210.87 141.10 207.67 142.73 205.46 140.58 C 203.90 139.61 204.13 137.58 204.29 136.01 Z" fill="#1e344f" opacity="1.00" stroke="#1e344f" stroke-width="0.25" data-index="4"></path>
<path d="M 265.52 131.87 C 273.58 127.50 283.20 127.75 291.94 129.60 C 296.37 130.72 301.52 132.41 303.49 136.97 C 303.05 138.05 302.62 139.14 302.21 140.24 C 300.83 140.63 299.34 141.71 297.92 140.83 C 290.68 138.04 282.69 136.71 275.01 138.29 C 271.77 138.61 268.30 140.39 265.31 138.29 C 265.34 136.15 265.41 134.01 265.52 131.87 Z" fill="#1e344f" opacity="1.00" stroke="#1e344f" stroke-width="0.25" data-index="5"></path>
<path d="M 167.32 145.03 C 167.06 142.30 166.62 139.19 168.91 137.18 C 171.17 138.72 172.98 140.81 173.46 143.59 C 178.68 163.50 181.73 183.92 186.56 203.92 C 187.84 206.02 190.98 210.23 193.43 207.53 C 196.87 198.81 197.52 188.82 203.06 180.97 C 203.99 179.45 205.58 178.58 207.27 178.13 C 208.26 179.94 208.84 181.92 208.45 183.99 C 207.25 194.72 204.97 205.29 203.39 215.96 C 202.52 220.44 202.29 225.16 200.19 229.31 C 197.89 234.40 194.22 238.67 190.54 242.82 C 190.57 246.03 190.63 249.23 190.68 252.44 C 177.18 253.03 163.71 254.54 150.18 254.44 C 150.10 252.15 150.55 249.64 149.33 247.57 C 147.78 244.95 145.74 242.65 144.35 239.94 C 139.38 230.65 138.38 219.97 135.08 210.09 C 130.47 197.01 124.73 184.36 119.88 171.36 C 119.51 169.68 118.41 167.27 120.44 166.26 C 122.42 166.84 123.47 168.75 124.50 170.38 C 129.06 177.78 132.64 185.72 136.43 193.53 C 137.00 194.72 137.92 195.68 138.78 196.67 C 139.51 196.28 140.98 195.51 141.71 195.13 C 138.72 180.73 133.91 166.73 130.91 152.32 C 130.64 150.93 130.51 149.46 131.13 148.15 C 132.99 147.62 134.56 149.16 135.14 150.78 C 139.09 159.27 141.61 168.34 144.89 177.10 C 146.74 181.89 147.79 187.01 150.25 191.54 C 151.04 191.66 152.62 191.91 153.41 192.03 C 153.33 186.21 151.12 180.74 150.12 175.06 C 148.02 164.33 144.38 153.88 143.27 142.98 C 142.85 140.88 145.11 140.17 146.73 140.06 C 147.72 141.65 148.68 143.27 149.26 145.07 C 153.72 158.31 157.69 171.72 162.22 184.94 C 162.49 186.19 163.47 187.33 164.82 187.39 C 167.57 186.91 170.17 185.82 172.60 184.47 C 171.30 171.26 168.81 158.21 167.32 145.03 Z" fill="#fdb796" opacity="1.00" stroke="#fdb796" stroke-width="0.25" data-index="6" style="opacity: 1;"></path>
<path d="M 218.43 161.58 C 215.04 157.75 217.68 150.48 222.94 150.17 C 227.22 149.56 231.31 153.77 230.40 158.04 C 230.42 161.67 227.10 163.56 224.05 164.46 C 222.05 163.79 219.70 163.47 218.43 161.58 Z" fill="#1e344f" opacity="1.00" stroke="#1e344f" stroke-width="0.25" data-index="7"></path>
<path d="M 280.43 150.42 C 283.07 150.05 286.24 149.81 288.03 152.23 C 291.36 155.70 290.20 162.73 285.17 163.87 C 280.90 165.50 275.99 161.53 276.49 157.04 C 276.11 154.11 278.55 152.20 280.43 150.42 Z" fill="#1e344f" opacity="1.00" stroke="#1e344f" stroke-width="0.25" data-index="8"></path>
<path d="M 281.03 152.24 C 281.91 150.93 283.56 151.88 284.76 152.02 C 284.62 153.12 284.48 154.23 284.35 155.33 C 283.33 155.39 282.32 155.45 281.30 155.52 C 281.06 154.51 279.98 153.11 281.03 152.24 Z" fill="#ffffff" opacity="1.00" stroke="#ffffff" stroke-width="0.25" data-index="9"></path>
<path d="M 221.27 152.26 C 222.74 151.50 224.30 151.60 225.69 152.52 C 225.80 154.92 223.94 156.21 221.69 155.38 C 221.55 154.34 221.41 153.30 221.27 152.26 Z" fill="#ffffff" opacity="1.00" stroke="#ffffff" stroke-width="0.25" data-index="10"></path>
<path d="M 181.62 156.66 C 184.36 154.92 187.62 154.49 190.80 154.36 C 190.14 166.51 190.70 178.73 193.00 190.69 C 190.53 190.31 188.08 189.86 185.63 189.42 C 183.92 179.19 181.39 169.11 179.65 158.89 C 179.39 157.64 180.83 157.24 181.62 156.66 Z" fill="#fdb796" opacity="1.00" stroke="#fdb796" stroke-width="0.25" data-index="11"></path>
<path d="M 321.23 154.11 C 328.22 153.96 336.08 157.70 338.02 164.89 C 340.10 173.34 336.33 182.97 328.94 187.64 C 325.77 189.65 321.95 189.86 318.36 190.44 C 318.90 185.28 320.37 180.26 320.71 175.07 C 321.64 168.12 321.38 161.10 321.23 154.11 Z" fill="#fdb796" opacity="1.00" stroke="#fdb796" stroke-width="0.25" data-index="12"></path>
<path d="M 252.84 157.96 L 254.21 157.09 C 256.41 163.48 260.44 169.41 260.95 176.25 C 257.11 179.03 252.19 178.48 247.93 177.12 C 247.86 176.61 247.70 175.58 247.63 175.07 C 251.27 175.71 254.98 176.17 258.67 175.59 C 257.99 169.36 253.48 164.10 252.84 157.96 Z" fill="#1e344f" opacity="1.00" stroke="#1e344f" stroke-width="0.25" data-index="13"></path>
<path d="M 227.53 188.42 C 236.66 189.29 245.75 190.92 254.96 190.58 C 264.83 190.98 274.55 188.98 284.36 188.39 C 286.63 204.62 272.71 221.70 256.00 221.47 C 239.27 221.63 225.39 204.72 227.53 188.42 Z" fill="#1e344f" opacity="1.00" stroke="#1e344f" stroke-width="0.25" data-index="14" style="opacity: 1;"></path>
<path d="M 229.41 190.65 C 246.96 193.82 265.01 193.30 282.58 190.49 C 282.56 191.44 282.54 193.34 282.53 194.29 C 277.47 195.93 272.27 197.27 266.93 197.48 C 254.38 198.14 241.51 198.25 229.44 194.28 C 229.43 193.37 229.41 191.55 229.41 190.65 Z" fill="#ffffff" opacity="1.00" stroke="#ffffff" stroke-width="0.25" data-index="15" style="opacity: 1;"></path>
<path d="M 186.44 191.98 C 188.67 192.29 190.91 192.53 193.16 192.71 C 193.49 194.15 193.84 195.59 194.24 197.03 C 193.47 200.08 192.69 203.13 191.66 206.11 C 186.93 203.01 187.73 196.81 186.44 191.98 Z" fill="#ffffff" opacity="1.00" stroke="#ffffff" stroke-width="0.25" data-index="16" style="opacity: 1; visibility: visible;"></path>
<path d="M 177.31 201.12 C 177.64 199.83 178.82 199.29 179.99 198.97 C 178.76 204.86 175.13 209.99 173.90 215.93 C 172.15 220.83 172.44 226.00 172.02 231.08 C 171.84 231.23 171.49 231.53 171.32 231.69 C 168.84 227.99 170.48 223.06 170.71 218.91 C 172.18 212.73 174.65 206.86 177.31 201.12 Z" fill="#1e344f" opacity="1.00" stroke="#1e344f" stroke-width="0.25" data-index="17"></path>
<path d="M 233.32 202.76 C 235.56 201.72 237.73 200.52 240.07 199.71 C 247.05 198.92 254.04 201.01 261.03 200.01 C 267.35 199.56 275.04 198.07 279.71 203.58 C 275.20 212.48 266.18 219.28 255.98 219.42 C 249.70 218.96 243.30 216.79 238.86 212.15 C 236.38 209.45 232.78 206.89 233.32 202.76 Z" fill="#f55a2d" opacity="1.00" stroke="#f55a2d" stroke-width="0.25" data-index="18" style="opacity: 1;"></path>
<path d="M 172.02 231.08 C 172.44 226.00 172.15 220.83 173.90 215.93 C 172.71 221.45 172.58 227.09 172.71 232.67 C 172.11 232.82 170.90 233.12 170.30 233.27 C 169.73 228.49 169.78 223.64 170.71 218.91 C 170.48 223.06 168.84 227.99 171.32 231.69 C 171.49 231.53 171.84 231.23 172.02 231.08 Z" fill="#ffffff" opacity="1.00" stroke="#ffffff" stroke-width="0.25" data-index="19"></path>
<path d="M 205.55 216.86 C 213.70 226.14 223.76 234.05 235.67 237.82 C 235.78 239.60 235.88 241.37 236.00 243.15 C 230.27 247.71 225.72 253.48 221.64 259.50 C 212.67 261.80 203.36 263.26 194.56 266.38 C 193.44 258.93 193.08 251.37 192.76 243.85 C 195.10 240.27 198.74 237.59 200.58 233.61 C 203.90 228.62 204.65 222.63 205.55 216.86 Z" fill="#ffffff" opacity="1.00" stroke="#ffffff" stroke-width="0.25" data-index="20" style="opacity: 1; visibility: visible;"></path>
<path d="M 262.06 240.75 C 268.67 240.26 274.99 238.20 281.19 235.99 C 281.15 241.33 281.15 246.68 281.29 252.03 C 281.52 256.62 279.53 260.88 277.87 265.04 C 274.37 273.85 267.27 280.62 259.93 286.29 C 251.59 278.26 244.51 268.85 239.90 258.19 C 236.93 252.23 239.00 245.40 238.35 239.03 C 246.18 240.27 254.12 242.01 262.06 240.75 Z" fill="#fdb796" opacity="1.00" stroke="#fdb796" stroke-width="0.25" data-index="21" style="opacity: 1;"></path>
<path d="M 283.45 246.02 C 288.93 249.66 293.07 254.94 296.57 260.44 C 299.15 264.06 298.51 268.78 298.65 272.97 C 298.30 282.67 297.46 292.75 293.29 301.65 C 290.53 299.39 287.84 297.05 284.99 294.90 C 279.20 290.56 273.53 285.44 266.19 284.01 C 275.07 277.11 280.98 266.86 283.38 255.94 C 283.87 252.65 283.51 249.32 283.45 246.02 Z" fill="#ffffff" opacity="1.00" stroke="#ffffff" stroke-width="0.25" data-index="22"></path>
<path d="M 224.81 258.88 C 228.18 254.27 231.58 249.54 236.18 246.08 C 236.36 249.36 235.62 252.77 236.59 255.98 C 240.40 266.18 246.48 275.38 253.78 283.42 C 250.29 283.63 247.05 285.07 244.17 286.98 C 237.82 291.19 231.61 295.59 225.43 300.05 C 223.18 291.53 222.23 282.73 221.80 273.95 C 221.70 268.83 221.68 263.20 224.81 258.88 Z" fill="#ffffff" opacity="1.00" stroke="#ffffff" stroke-width="0.25" data-index="23" style="opacity: 1;"></path>
<path d="M 177.92 255.63 C 182.36 255.62 186.71 254.29 191.17 254.75 C 191.46 262.87 192.40 270.96 193.58 279.00 C 197.61 314.34 202.73 349.56 206.21 384.95 C 206.72 390.98 206.77 397.04 206.43 403.08 C 205.65 413.15 199.05 422.21 190.28 426.96 C 180.81 431.85 169.06 431.91 159.39 427.53 C 152.28 424.09 146.21 418.27 143.02 410.98 C 138.44 400.94 140.43 389.56 141.28 378.97 C 142.01 361.62 143.76 344.35 144.53 327.00 C 145.77 313.49 146.71 299.94 146.78 286.36 C 146.96 286.43 147.32 286.56 147.50 286.63 C 147.31 276.89 148.81 267.22 148.52 257.47 C 152.54 256.06 156.85 256.79 161.01 256.50 C 166.67 256.60 172.27 255.67 177.92 255.63 Z" fill="#f55a2d" opacity="1.00" stroke="#f55a2d" stroke-width="0.25" data-index="24" style="opacity: 1; visibility: visible; fill: rgb(255, 255, 255);"></path>
<path d="M 300.33 262.45 C 315.84 267.35 331.23 272.86 345.62 280.50 C 352.13 284.04 358.70 287.81 363.72 293.36 C 369.93 299.51 372.76 308.02 375.52 316.10 C 380.78 333.76 384.64 351.84 387.16 370.10 C 387.99 376.39 389.51 382.61 389.62 388.97 C 373.39 392.49 356.73 393.36 340.17 392.61 C 340.19 378.43 340.15 364.24 340.16 350.05 C 340.13 346.09 340.39 342.11 339.73 338.18 C 339.22 338.32 338.21 338.60 337.70 338.74 C 337.79 381.37 337.77 423.99 337.73 466.62 C 286.50 466.54 235.25 466.61 184.01 466.58 C 182.56 466.55 181.12 466.46 179.68 466.36 C 179.94 455.13 179.72 443.89 179.80 432.65 C 191.68 431.30 202.14 422.88 206.75 411.97 C 210.59 402.39 209.33 391.85 208.41 381.86 C 205.26 350.85 200.85 319.99 197.23 289.03 C 196.35 282.21 195.70 275.36 194.59 268.58 C 203.16 266.23 211.74 263.80 220.53 262.40 C 219.20 267.47 219.46 272.76 219.67 277.95 C 220.37 286.48 221.53 295.02 223.94 303.25 C 225.37 302.64 226.80 301.98 228.04 301.01 C 233.61 296.76 239.39 292.76 245.34 289.05 C 248.15 308.34 250.72 327.67 253.77 346.93 C 255.09 354.70 255.85 362.57 257.68 370.25 C 259.62 372.12 263.59 372.39 264.02 369.03 C 266.63 356.75 268.09 344.23 270.27 331.86 C 272.28 318.30 274.82 304.83 276.62 291.24 C 281.85 295.04 286.79 299.22 291.91 303.15 C 293.29 304.50 295.32 303.41 295.73 301.73 C 300.92 289.41 301.60 275.62 300.33 262.45 Z" fill="#71e3fe" opacity="1.00" stroke="#71e3fe" stroke-width="0.25" data-index="25" style="opacity: 1;"></path>
<path d="M 154.81 265.75 C 155.97 265.72 157.13 265.70 158.30 265.68 C 158.32 266.87 158.34 268.07 158.37 269.27 C 157.82 269.29 156.73 269.34 156.18 269.36 C 155.69 268.85 155.19 268.34 154.70 267.83 C 154.73 267.31 154.79 266.27 154.81 265.75 Z" fill="#ffffff" opacity="1.00" stroke="#ffffff" stroke-width="0.25" data-index="26"></path>
<path d="M 153.84 276.65 C 156.27 276.27 158.00 277.98 157.49 280.43 C 156.21 280.41 154.93 280.39 153.66 280.36 C 153.71 279.12 153.77 277.88 153.84 276.65 Z" fill="#ffffff" opacity="1.00" stroke="#ffffff" stroke-width="0.25" data-index="27"></path>
<path d="M 247.26 287.54 C 249.88 286.37 252.67 285.66 255.54 285.50 C 257.06 286.85 258.57 288.21 260.07 289.60 C 261.42 288.51 262.76 287.40 264.07 286.25 C 267.90 286.25 271.34 288.02 274.58 289.89 C 271.31 311.45 267.66 332.95 264.32 354.50 C 263.40 359.64 263.01 364.90 261.34 369.88 C 260.38 369.17 259.29 368.45 259.30 367.11 C 254.60 340.70 251.51 314.03 247.26 287.54 Z" fill="#ffffff" opacity="1.00" stroke="#ffffff" stroke-width="0.25" data-index="28" style="opacity: 1;"></path>
<path d="M 152.61 288.75 C 153.41 288.34 154.21 287.93 155.01 287.53 C 155.35 287.79 156.03 288.29 156.37 288.55 C 156.34 289.47 156.33 290.40 156.31 291.33 C 155.14 291.32 153.97 291.29 152.80 291.28 C 152.73 290.43 152.67 289.59 152.61 288.75 Z" fill="#ffffff" opacity="1.00" stroke="#ffffff" stroke-width="0.25" data-index="29"></path>
<path d="M 257.20 290.25 C 259.91 288.46 264.05 290.69 263.89 293.99 C 264.34 297.37 259.98 299.51 257.38 297.59 C 254.56 296.27 254.73 291.82 257.20 290.25 Z" fill="#1e344f" opacity="1.00" stroke="#1e344f" stroke-width="0.25" data-index="30"></path>
<path d="M 257.34 292.63 C 259.64 290.67 262.77 292.54 261.43 295.51 C 259.07 297.06 257.12 295.02 257.34 292.63 Z" fill="#ffffff" opacity="1.00" stroke="#ffffff" stroke-width="0.25" data-index="31"></path>
<path d="M 257.40 310.34 C 260.40 308.12 265.16 311.36 263.77 315.03 C 262.97 318.96 256.51 318.72 255.66 314.95 C 255.05 313.22 255.83 311.24 257.40 310.34 Z" fill="#1e344f" opacity="1.00" stroke="#1e344f" stroke-width="0.25" data-index="32"></path>
<path d="M 259.62 311.72 C 262.09 311.55 262.40 316.10 259.84 315.74 C 257.14 316.02 256.97 311.87 259.62 311.72 Z" fill="#ffffff" opacity="1.00" stroke="#ffffff" stroke-width="0.25" data-index="33"></path>
<path d="M 133.10 374.16 C 135.32 355.21 138.00 336.26 142.61 317.72 C 141.75 340.63 139.46 363.47 138.30 386.37 C 136.26 386.03 134.22 385.71 132.18 385.43 C 132.08 381.65 132.54 377.89 133.10 374.16 Z" fill="#71e3fe" opacity="1.00" stroke="#71e3fe" stroke-width="0.25" data-index="34"></path>
<path d="M 255.76 332.95 C 256.52 329.72 260.36 329.39 262.87 330.77 C 263.35 331.89 263.84 333.01 264.33 334.13 C 263.69 335.40 263.51 337.16 262.04 337.80 C 259.03 339.66 254.43 336.49 255.76 332.95 Z" fill="#1e344f" opacity="1.00" stroke="#1e344f" stroke-width="0.25" data-index="35"></path>
<path d="M 257.53 333.77 C 258.30 332.10 260.84 331.16 261.63 333.36 C 262.48 335.55 260.10 336.77 258.33 335.94 C 258.13 335.40 257.73 334.31 257.53 333.77 Z" fill="#ffffff" opacity="1.00" stroke="#ffffff" stroke-width="0.25" data-index="36"></path>
<path d="M 340.28 395.23 C 353.04 395.76 365.75 394.76 378.43 393.47 C 380.54 417.73 381.52 442.07 383.49 466.34 C 369.14 466.69 354.78 466.37 340.42 466.49 C 340.11 442.74 340.35 418.98 340.28 395.23 Z" fill="#f55a2d" opacity="1.00" stroke="#f55a2d" stroke-width="0.25" data-index="37" style="opacity: 1; visibility: visible; fill: rgb(255, 255, 255);"></path>
</svg>