<svg xmlns="http://www.w3.org/2000/svg" height="512pt" version="1.1" viewBox="0 0 512 512" width="512pt">

<path d="M 208.39 63.40 C 214.74 60.10 222.36 58.59 229.30 60.90 C 238.92 63.62 246.27 71.94 248.86 81.46 C 255.31 81.33 262.67 81.45 267.20 86.83 C 246.72 105.50 227.11 125.10 207.21 144.38 C 206.26 145.12 205.39 146.19 204.10 146.29 C 199.74 146.83 195.33 146.51 190.94 146.43 C 192.71 142.30 196.18 139.33 198.77 135.76 C 194.89 138.99 191.61 142.84 188.19 146.53 C 186.11 146.52 184.02 146.50 181.93 146.46 C 183.67 142.86 186.65 140.16 188.97 136.99 C 185.88 139.29 183.56 142.41 180.72 144.98 C 178.40 147.23 174.92 146.28 172.04 146.38 C 179.32 137.28 188.67 130.05 195.77 120.77 C 187.06 128.36 179.39 137.04 171.10 145.07 C 169.11 147.33 165.76 146.77 163.41 145.42 C 174.98 133.68 187.20 122.57 198.17 110.26 C 189.42 116.68 182.63 125.27 174.77 132.67 C 170.53 136.83 166.49 141.21 162.09 145.20 C 160.52 146.93 158.03 146.36 155.98 146.52 C 159.42 140.64 164.75 136.28 169.34 131.35 C 174.10 126.45 179.05 121.74 183.81 116.84 C 185.18 115.48 186.16 113.80 187.01 112.08 C 184.74 113.70 182.66 115.58 180.85 117.70 C 174.23 125.42 166.52 132.12 159.76 139.71 C 157.79 141.98 155.54 143.98 153.19 145.84 C 147.98 143.85 143.33 140.00 141.40 134.65 C 140.56 132.86 142.20 131.47 143.32 130.34 C 150.42 123.77 157.03 116.71 163.84 109.85 C 161.75 110.99 159.74 112.29 158.10 114.03 C 154.19 118.12 150.03 121.97 146.06 126.00 C 144.28 127.86 142.09 129.23 139.81 130.36 C 140.20 126.07 143.54 123.15 146.15 120.06 C 149.39 116.35 153.13 113.11 156.43 109.44 C 158.76 106.57 162.70 105.82 165.10 103.01 C 168.74 99.04 172.78 95.38 175.76 90.85 C 172.44 93.57 169.62 96.88 165.98 99.20 C 167.04 92.67 172.60 87.99 178.23 85.19 C 183.15 82.65 188.84 83.32 194.17 83.50 C 196.63 75.55 201.09 67.79 208.39 63.40 Z" fill="#c4edfd" opacity="1.00" stroke="#c4edfd" stroke-width="0.25" data-index="1" style="visibility: hidden; opacity: 1;"></path>

<path d="M 374.23 100.21 C 378.32 97.37 384.10 98.07 387.90 101.08 C 390.12 103.06 391.33 105.85 392.86 108.34 C 395.20 108.65 398.06 108.18 399.82 110.12 C 401.01 111.50 402.23 113.11 402.39 114.99 C 401.66 117.47 400.32 119.70 399.33 122.07 C 401.49 121.54 403.04 119.95 404.55 118.43 C 407.12 119.23 409.67 120.10 412.23 120.95 C 413.98 124.83 413.94 129.22 413.09 133.32 C 411.84 138.03 406.72 140.81 402.03 140.38 C 396.99 140.06 391.48 141.53 386.88 138.85 C 384.39 139.88 381.76 140.64 379.03 140.43 C 372.96 140.15 366.85 140.83 360.82 139.95 C 358.55 139.58 356.27 139.81 354.03 140.14 C 351.34 139.07 348.52 138.36 345.64 138.09 C 342.82 133.76 343.00 127.93 345.57 123.55 C 347.09 120.92 350.14 120.45 352.89 120.28 C 354.40 117.44 355.52 114.15 358.21 112.17 C 360.86 110.05 364.39 109.95 367.59 109.37 C 369.17 105.94 370.80 102.19 374.23 100.21 Z" fill="#c4edfd" opacity="1.00" stroke="#c4edfd" stroke-width="0.25" data-index="3" style="visibility: hidden; opacity: 1;"></path>

<path d="M 283.60 137.59 C 288.45 133.47 291.99 127.91 297.61 124.70 C 297.86 130.86 292.19 134.34 288.66 138.52 C 285.09 141.96 281.82 147.50 276.07 146.52 C 278.23 143.27 280.67 140.18 283.60 137.59 Z" fill="#c4edfd" opacity="1.00" stroke="#c4edfd" stroke-width="0.25" data-index="5" style="visibility: hidden; opacity: 1;"></path>

<path d="M 226.41 168.33 C 226.98 165.88 227.21 162.90 229.74 161.63 C 229.73 169.91 226.99 177.85 226.07 186.04 C 225.29 188.84 225.78 192.96 222.44 194.17 C 222.99 185.46 224.80 176.89 226.41 168.33 Z" fill="#aae6fc" opacity="1.00" stroke="#aae6fc" stroke-width="0.25" data-index="7" style="visibility: hidden; opacity: 1;"></path>

<path d="M 358.97 175.01 C 363.82 172.55 370.13 173.02 374.31 176.60 C 377.72 180.05 379.30 185.28 378.05 190.02 C 376.77 195.59 370.54 197.39 367.69 201.94 C 369.05 203.15 370.20 204.68 371.90 205.45 C 377.06 206.22 382.10 204.36 387.16 203.64 C 396.56 202.11 406.66 201.89 415.59 205.61 C 423.21 208.76 426.64 217.27 427.33 224.97 C 428.20 239.52 424.51 254.79 415.34 266.33 C 404.53 278.79 387.80 283.91 371.90 285.62 C 362.74 286.90 353.46 286.13 344.36 284.77 C 342.57 315.43 340.56 346.42 345.00 376.95 C 345.60 380.84 346.53 384.67 347.45 388.50 C 335.97 390.00 324.27 389.98 312.80 388.43 C 312.23 385.12 311.59 381.84 310.90 378.56 C 307.28 361.59 305.34 344.34 303.94 327.07 C 300.49 343.57 299.57 360.89 302.76 377.51 C 303.92 382.99 305.48 388.45 308.30 393.33 C 307.97 393.97 307.66 394.62 307.34 395.27 C 298.68 397.47 289.71 396.54 280.94 395.65 C 275.41 395.24 269.95 394.12 264.70 392.36 C 264.36 385.85 263.82 379.36 263.52 372.86 C 262.89 361.05 262.65 349.23 261.76 337.44 C 249.37 341.74 236.44 344.60 223.34 345.41 C 223.32 355.74 223.78 366.09 225.05 376.35 C 225.52 380.38 226.05 384.40 226.46 388.44 C 214.27 390.11 201.97 389.30 189.77 388.27 C 189.36 384.63 188.81 381.02 188.39 377.39 C 186.87 365.74 185.75 354.03 184.18 342.39 C 181.28 341.56 178.39 340.73 175.48 339.97 C 174.97 352.13 175.18 364.36 177.05 376.42 C 177.74 382.08 179.45 387.58 179.90 393.28 C 165.52 395.42 150.24 395.86 136.50 390.36 C 136.32 386.25 136.15 382.14 135.83 378.04 C 134.94 358.70 133.60 339.36 130.91 320.18 C 129.53 308.40 126.83 296.80 125.81 284.97 C 124.99 275.25 125.90 265.23 129.58 256.14 C 125.21 259.04 120.40 261.99 114.94 261.60 C 108.19 261.78 102.44 257.28 99.13 251.71 C 95.09 251.73 90.88 249.66 89.27 245.80 C 87.01 240.75 88.46 234.94 90.96 230.27 C 95.39 230.60 96.33 236.14 99.25 238.81 C 100.86 236.92 102.38 234.97 103.96 233.06 C 105.70 235.37 106.78 238.03 107.25 240.87 C 106.90 244.85 105.14 248.46 102.07 251.03 C 105.72 256.64 112.54 259.72 119.17 258.25 C 120.18 257.88 121.21 257.54 122.24 257.21 C 131.32 252.56 136.03 242.99 143.38 236.35 C 156.17 223.32 173.73 214.74 192.07 213.88 C 204.46 213.36 216.86 215.40 228.81 218.59 C 237.12 220.65 245.35 223.57 254.00 223.73 C 260.91 224.02 267.93 222.35 273.81 218.66 C 279.75 214.94 285.55 210.95 290.83 206.33 C 288.47 204.68 285.12 203.87 283.98 200.95 C 281.34 193.82 284.70 184.99 291.59 181.66 C 294.22 180.33 297.21 180.52 300.06 180.66 C 305.03 182.48 309.66 185.30 313.03 189.45 C 324.29 183.44 337.71 181.26 350.09 184.87 C 352.12 180.91 354.78 176.91 358.97 175.01 Z" fill="#043055" opacity="1.00" stroke="#043055" stroke-width="0.25" data-index="9" style="opacity: 1;"></path>
<path d="M 353.02 186.02 C 354.72 178.33 365.30 172.69 372.00 178.05 C 375.80 180.69 375.91 185.65 375.77 189.82 C 375.15 186.41 374.48 183.00 373.21 179.77 C 372.32 179.67 370.55 179.47 369.66 179.38 C 365.84 182.60 362.49 186.31 359.26 190.10 C 357.03 189.01 354.66 187.95 353.02 186.02 Z" fill="#638db6" opacity="1.00" stroke="#638db6" stroke-width="0.25" data-index="10"></path>

<path d="M 244.90 185.86 C 246.12 183.06 246.44 179.02 249.81 177.93 C 249.35 183.31 246.92 188.20 245.42 193.33 C 244.67 195.89 243.74 198.48 241.67 200.29 C 240.88 195.22 243.59 190.60 244.90 185.86 Z" fill="#aae6fc" opacity="1.00" stroke="#aae6fc" stroke-width="0.25" data-index="12" style="visibility: hidden; opacity: 1;"></path>

<path d="M 361.51 190.80 C 364.60 187.50 367.68 184.16 371.18 181.27 C 372.67 184.84 373.27 188.89 372.36 192.67 C 370.43 195.07 367.98 196.96 365.91 199.23 C 364.37 197.11 362.79 195.02 361.15 192.97 C 361.24 192.43 361.42 191.34 361.51 190.80 Z" fill="#fdc1ae" opacity="1.00" stroke="#fdc1ae" stroke-width="0.25" data-index="14"></path>
<path d="M 289.48 186.46 C 292.69 182.74 298.29 182.34 302.51 184.45 C 307.25 186.35 310.26 190.62 313.89 193.98 C 315.09 192.23 316.35 190.33 318.50 189.68 C 327.46 186.13 337.53 184.41 346.98 186.96 C 353.03 188.25 358.01 192.49 361.48 197.46 C 364.02 200.88 366.04 204.96 369.83 207.22 C 373.43 209.37 377.74 207.93 381.58 207.33 C 392.67 205.08 404.98 203.48 415.54 208.55 C 415.60 208.95 415.73 209.74 415.80 210.14 C 413.34 211.62 408.60 212.20 409.27 216.02 C 409.37 218.31 411.34 219.84 412.58 221.58 C 414.62 221.61 416.67 221.64 418.72 221.68 C 419.97 219.77 421.11 217.80 422.24 215.82 C 427.42 228.72 424.36 243.36 418.75 255.60 C 414.30 256.92 409.73 258.57 405.02 258.20 C 403.74 257.40 402.62 256.38 401.47 255.42 C 401.44 254.61 401.39 253.00 401.37 252.19 C 400.84 252.25 399.79 252.38 399.26 252.44 C 399.32 254.03 399.39 255.63 399.47 257.23 C 389.73 261.01 378.56 260.77 368.77 257.30 C 364.36 255.88 361.09 252.49 357.93 249.29 C 357.51 249.70 356.67 250.51 356.25 250.92 C 361.94 257.25 368.22 263.33 375.96 267.09 C 379.81 268.93 383.67 270.76 387.70 272.18 C 390.47 267.80 394.68 264.71 398.98 261.96 C 402.26 259.07 406.77 261.27 410.64 260.84 C 410.90 262.91 411.16 264.98 411.42 267.06 C 404.77 273.21 396.50 277.34 387.80 279.74 C 371.37 284.36 353.50 285.28 337.12 279.95 C 322.84 275.15 310.69 264.49 304.07 250.95 C 302.65 248.34 301.85 245.05 298.96 243.64 C 300.20 251.18 304.76 257.74 309.35 263.67 C 312.83 268.32 317.45 271.83 321.76 275.64 C 315.10 284.16 310.98 294.27 307.23 304.32 C 302.78 317.81 299.53 331.79 298.66 346.01 C 297.85 359.65 297.89 373.72 302.61 386.73 C 300.86 386.76 298.80 386.03 297.37 387.40 C 295.46 389.03 294.65 391.49 293.63 393.70 C 292.61 391.10 291.88 387.82 289.05 386.57 C 284.56 385.60 281.55 389.70 279.32 392.89 C 275.17 392.47 271.06 391.71 267.05 390.55 C 265.64 366.50 264.87 342.42 263.52 318.37 C 262.96 318.38 261.84 318.40 261.28 318.41 C 261.29 320.02 261.30 321.62 261.32 323.24 C 234.15 331.59 204.34 331.73 177.33 322.67 C 177.47 319.89 177.59 317.12 177.71 314.34 C 177.24 314.29 176.30 314.19 175.84 314.14 C 171.93 337.91 170.79 362.52 176.41 386.12 C 174.90 385.88 173.29 384.95 171.79 385.70 C 170.40 387.62 169.92 389.99 169.19 392.21 C 168.02 392.15 166.86 392.11 165.69 392.07 C 164.87 389.53 164.15 386.24 161.09 385.59 C 157.31 385.57 155.15 389.02 153.35 391.83 C 148.37 391.26 143.46 390.19 138.77 388.42 C 137.80 363.89 136.48 339.30 132.91 314.99 C 130.62 298.07 125.53 280.77 129.75 263.73 C 133.49 247.29 146.45 234.81 160.37 226.30 C 172.39 218.74 186.86 215.70 200.96 216.55 C 214.94 217.40 228.52 221.11 241.97 224.81 C 251.04 227.16 261.05 227.48 269.77 223.62 C 278.52 219.63 285.93 213.39 293.64 207.75 C 296.93 206.58 301.37 209.28 304.04 206.13 C 305.77 204.55 307.94 201.74 306.48 199.46 C 303.64 196.93 300.23 195.13 297.30 192.71 C 294.82 190.98 291.99 188.45 288.75 189.41 C 285.80 191.33 286.30 195.26 285.67 198.28 C 285.26 194.00 285.97 189.34 289.48 186.46 Z" fill="#638db6" opacity="1.00" stroke="#638db6" stroke-width="0.25" data-index="15" style="opacity: 1;"></path>
<path d="M 288.19 200.63 C 287.94 197.37 288.32 194.09 289.74 191.12 C 295.32 193.51 299.65 197.94 305.04 200.69 C 303.98 202.51 302.63 204.15 301.12 205.61 C 296.43 205.30 291.54 204.18 288.19 200.63 Z" fill="#fdc1ae" opacity="1.00" stroke="#fdc1ae" stroke-width="0.25" data-index="16"></path>
<path d="M 348.48 198.39 C 350.47 198.48 353.17 197.55 354.43 199.66 C 355.00 201.08 354.53 202.67 354.51 204.15 C 353.28 204.59 352.06 205.03 350.85 205.48 C 348.08 204.01 347.99 201.13 348.48 198.39 Z" fill="#043055" opacity="1.00" stroke="#043055" stroke-width="0.25" data-index="17"></path>
<path d="M 350.53 200.53 C 351.79 199.21 353.74 201.38 352.56 202.61 C 351.31 203.88 349.25 201.75 350.53 200.53 Z" fill="#c4edfd" opacity="1.00" stroke="#c4edfd" stroke-width="0.25" data-index="18"></path>
<path d="M 335.66 203.94 C 335.40 200.23 341.67 199.34 342.44 202.99 C 343.30 205.15 341.28 206.57 340.18 208.11 C 338.18 207.44 335.16 206.73 335.66 203.94 Z" fill="#043055" opacity="1.00" stroke="#043055" stroke-width="0.25" data-index="19" style="opacity: 1;"></path>
<path d="M 338.23 203.36 C 339.83 202.77 340.42 203.30 340.00 204.95 C 338.39 205.53 337.80 205.00 338.23 203.36 Z" fill="#aae6fc" opacity="1.00" stroke="#aae6fc" stroke-width="0.25" data-index="20"></path>
<path d="M 307.82 220.63 C 308.65 214.53 313.43 209.04 319.61 208.00 C 319.61 209.11 319.61 211.32 319.61 212.43 C 316.36 214.42 313.74 217.22 312.06 220.65 C 310.64 220.65 309.22 220.64 307.82 220.63 Z" fill="#fdc1ae" opacity="1.00" stroke="#fdc1ae" stroke-width="0.25" data-index="21"></path>
<path d="M 380.30 211.26 C 384.40 210.32 389.56 211.86 391.49 215.84 C 392.02 220.42 387.61 224.94 383.00 224.47 C 378.99 224.52 376.69 220.41 375.82 217.02 C 374.75 214.16 377.64 211.57 380.30 211.26 Z" fill="#043055" opacity="1.00" stroke="#043055" stroke-width="0.25" data-index="22"></path>
<path d="M 382.86 262.67 C 384.37 262.57 385.89 262.48 387.41 262.40 C 387.31 264.74 387.24 267.08 387.21 269.42 C 386.83 269.49 386.06 269.61 385.68 269.68 C 384.60 267.40 383.67 265.05 382.86 262.67 Z" fill="#ffffff" opacity="1.00" stroke="#ffffff" stroke-width="0.25" data-index="23"></path>

<path d="M 405.26 289.25 C 407.97 285.48 412.55 282.54 417.36 283.48 C 404.31 296.86 390.54 309.58 377.44 322.91 C 377.15 322.87 376.57 322.78 376.28 322.73 C 376.04 322.49 375.55 322.02 375.30 321.78 C 373.87 323.77 372.34 325.69 370.73 327.53 C 369.50 322.66 369.55 316.35 373.94 313.01 C 376.49 310.41 380.20 309.95 383.58 309.21 C 384.48 301.16 392.58 296.41 400.14 296.61 C 402.56 294.91 403.38 291.54 405.26 289.25 Z" fill="#c4edfd" opacity="1.00" stroke="#c4edfd" stroke-width="0.25" data-index="25" style="visibility: hidden; opacity: 1;"></path>

<path d="M 83.74 308.73 C 87.73 304.30 92.36 299.87 98.08 297.87 C 97.51 301.54 93.83 303.10 91.34 305.31 C 89.03 306.84 86.86 309.89 83.74 308.73 Z" fill="#aae6fc" opacity="1.00" stroke="#aae6fc" stroke-width="0.25" data-index="27" style="visibility: hidden; opacity: 1;"></path>
<path d="M 176.85 325.28 C 204.10 334.35 233.96 334.24 261.43 326.12 C 261.57 329.06 261.67 332.00 261.65 334.95 C 252.85 337.38 244.07 340.08 235.01 341.39 C 215.25 344.13 194.83 342.91 175.71 337.12 C 176.02 333.17 176.49 329.23 176.85 325.28 Z" fill="#fdc1ae" opacity="1.00" stroke="#fdc1ae" stroke-width="0.25" data-index="28"></path>

<path d="M 223.34 345.41 C 236.44 344.60 249.37 341.74 261.76 337.44 C 262.65 349.23 262.89 361.05 263.52 372.86 C 263.53 373.77 263.55 375.59 263.56 376.50 C 250.72 376.40 237.89 376.36 225.05 376.35 C 223.78 366.09 223.32 355.74 223.34 345.41 Z" fill="#ffffff" opacity="1.00" stroke="#ffffff" stroke-width="0.25" data-index="30" style="visibility: hidden; opacity: 1;"></path>

<path d="M 110.02 341.32 C 113.38 340.67 115.85 343.07 117.22 345.89 C 123.01 356.46 126.57 368.41 126.68 380.52 C 129.22 380.45 131.76 380.40 134.30 380.35 C 134.68 379.77 135.45 378.62 135.83 378.04 C 136.15 382.14 136.32 386.25 136.50 390.36 C 150.24 395.86 165.52 395.42 179.90 393.28 C 179.45 387.58 177.74 382.08 177.05 376.42 C 180.38 378.57 184.68 377.11 188.39 377.39 C 188.81 381.02 189.36 384.63 189.77 388.27 C 201.97 389.30 214.27 390.11 226.46 388.44 C 226.05 384.40 225.52 380.38 225.05 376.35 C 237.89 376.36 250.72 376.40 263.56 376.50 C 263.55 375.59 263.53 373.77 263.52 372.86 C 263.82 379.36 264.36 385.85 264.70 392.36 C 269.95 394.12 275.41 395.24 280.94 395.65 C 289.71 396.54 298.68 397.47 307.34 395.27 C 307.66 394.62 307.97 393.97 308.30 393.33 C 305.48 388.45 303.92 382.99 302.76 377.51 C 305.47 377.86 308.19 378.21 310.90 378.56 C 311.59 381.84 312.23 385.12 312.80 388.43 C 324.27 389.98 335.97 390.00 347.45 388.50 C 346.53 384.67 345.60 380.84 345.00 376.95 C 345.38 378.11 345.76 379.28 346.14 380.44 C 348.63 380.50 351.11 380.57 353.60 380.65 C 354.87 370.01 357.77 359.48 362.98 350.07 C 364.25 347.96 365.65 345.75 367.90 344.57 C 369.22 344.83 370.53 345.14 371.83 345.51 C 371.71 347.77 371.39 350.07 370.12 352.02 C 364.87 361.03 361.85 371.14 360.13 381.39 C 363.42 381.56 366.70 381.87 369.96 382.34 C 373.11 376.51 375.60 370.08 380.48 365.43 C 382.06 363.41 385.73 364.27 386.13 366.88 C 384.36 372.79 379.70 377.30 377.90 383.22 C 385.01 383.85 392.02 385.21 399.06 386.40 C 403.15 387.18 407.83 388.02 410.15 391.91 C 403.52 396.03 395.58 396.64 388.06 397.86 C 353.80 401.98 319.42 405.39 284.94 406.78 C 274.99 407.75 264.98 407.34 255.00 407.57 C 234.53 407.54 214.01 408.08 193.58 406.57 C 178.33 406.50 163.17 404.72 147.98 403.66 C 132.55 402.41 117.18 400.64 101.78 399.06 C 92.83 398.08 83.87 396.98 75.09 394.97 C 72.11 394.36 69.46 392.82 67.03 391.06 C 72.30 386.89 79.14 386.09 85.56 385.14 C 82.33 380.82 79.41 376.29 76.32 371.87 C 77.41 370.19 78.67 368.04 81.06 368.48 C 86.21 372.38 89.15 378.38 92.44 383.79 C 95.31 383.71 98.17 383.44 101.00 382.92 C 100.13 375.77 96.58 369.45 93.94 362.90 C 92.34 359.76 97.26 356.75 99.44 359.52 C 104.62 365.82 106.25 374.13 108.51 381.78 C 112.55 381.72 116.59 381.56 120.63 381.31 C 119.59 368.10 114.03 355.87 108.53 344.02 C 108.90 343.34 109.65 341.99 110.02 341.32 Z" fill="#aae6fc" opacity="1.00" stroke="#aae6fc" stroke-width="0.25" data-index="32" style="visibility: hidden; opacity: 1;"></path>
<path d="M 172.82 387.30 C 174.41 388.01 175.92 388.88 177.40 389.82 C 177.43 390.27 177.50 391.17 177.53 391.62 C 175.72 391.75 173.90 391.88 172.09 392.04 C 172.31 390.45 172.55 388.88 172.82 387.30 Z" fill="#ffffff" opacity="1.00" stroke="#ffffff" stroke-width="0.25" data-index="33" style="opacity: 1;"></path>
<path d="M 158.78 388.28 C 161.71 387.41 162.99 389.81 163.60 392.27 C 161.06 392.30 158.53 392.26 156.00 392.15 C 156.92 390.85 157.85 389.57 158.78 388.28 Z" fill="#ffffff" opacity="1.00" stroke="#ffffff" stroke-width="0.25" data-index="34"></path>
<path d="M 281.83 393.31 C 283.49 391.09 285.61 389.25 288.22 388.21 C 289.51 390.12 290.62 392.15 291.62 394.24 C 288.36 393.90 285.09 393.63 281.83 393.31 Z" fill="#ffffff" opacity="1.00" stroke="#ffffff" stroke-width="0.25" data-index="35" style="opacity: 1;"></path>
<path d="M 295.35 394.51 C 296.38 392.10 297.79 389.86 299.87 388.22 C 301.78 389.70 303.54 391.35 305.17 393.15 C 301.99 394.13 298.68 394.55 295.35 394.51 Z" fill="#ffffff" opacity="1.00" stroke="#ffffff" stroke-width="0.25" data-index="36" style="opacity: 1;"></path>

<path d="M 141.52 421.68 C 146.38 417.79 151.09 413.71 156.18 410.12 C 157.03 411.27 159.02 412.06 158.66 413.77 C 158.43 415.79 156.41 416.86 155.12 418.21 C 151.39 421.23 148.29 425.09 144.03 427.41 C 140.38 428.68 138.79 423.54 141.52 421.68 Z" fill="#aae6fc" opacity="1.00" stroke="#aae6fc" stroke-width="0.25" data-index="38" style="visibility: hidden; opacity: 1;"></path>

<path d="M 122.15 419.18 C 125.47 417.06 128.67 414.74 132.07 412.75 C 134.12 411.68 135.43 413.97 136.87 414.99 C 133.69 419.19 129.17 422.08 124.75 424.80 C 123.33 425.74 121.61 424.66 120.10 424.57 C 120.41 422.67 120.06 420.18 122.15 419.18 Z" fill="#aae6fc" opacity="1.00" stroke="#aae6fc" stroke-width="0.25" data-index="40" style="visibility: hidden; opacity: 1;"></path>

</svg>