<svg xmlns="http://www.w3.org/2000/svg" height="512pt" version="1.1" viewBox="0 0 512 512" width="512pt"><defs>
                <linearGradient id="grad-58" gradientTransform="rotate(183 0.5 0.5)">
                
                        <stop stop-color="#e63737" offset="0"></stop>
                    ,
                        <stop stop-color="#e66538" offset="0.3333333333333333"></stop>
                    ,
                        <stop stop-color="#e66538" offset="0.6666666666666666"></stop>
                    
                </linearGradient>
          </defs><defs>
                <linearGradient id="grad-57" gradientTransform="rotate(354 0.5 0.5)">
                
                        <stop stop-color="#e66538" offset="0"></stop>
                    ,
                        <stop stop-color="#e66538" offset="0.5"></stop>
                    
                </linearGradient>
          </defs>

<path d="M 252.70 88.02 C 252.84 83.65 252.25 79.23 253.08 74.91 C 253.20 93.55 252.88 112.20 253.20 130.84 C 255.09 130.82 256.98 130.81 258.87 130.79 C 259.11 121.16 258.76 111.52 259.06 101.90 L 259.65 101.80 C 259.26 111.20 259.20 120.66 259.62 130.06 C 263.77 132.46 268.81 133.22 272.80 136.10 C 276.45 138.00 278.96 141.31 281.27 144.60 C 281.63 144.58 282.35 144.55 282.71 144.54 C 282.78 145.20 282.91 146.53 282.98 147.20 C 283.50 149.83 284.57 152.30 285.20 154.91 C 287.13 163.97 285.58 173.25 286.03 182.41 C 292.05 183.02 298.16 181.95 304.13 183.03 C 278.39 182.70 252.63 182.98 226.89 182.94 C 219.92 183.13 212.85 182.25 205.98 183.78 C 207.18 183.06 208.47 182.42 209.93 182.56 C 215.38 182.52 220.84 182.73 226.29 182.42 C 226.29 175.27 226.22 168.12 226.30 160.98 C 225.80 146.41 237.85 132.37 252.46 131.10 C 253.02 116.75 252.58 102.38 252.70 88.02 Z" fill="#6adcfb" opacity="1.00" stroke="#6adcfb" stroke-width="0.25" data-index="1" style="opacity: 1;"></path>
<path d="M 253.08 74.91 L 253.08 74.48 C 255.14 74.52 257.21 74.55 259.28 74.59 C 259.27 75.37 259.24 76.93 259.23 77.71 C 259.05 85.77 259.35 93.84 259.06 101.90 C 258.76 111.52 259.11 121.16 258.87 130.79 C 256.98 130.81 255.09 130.82 253.20 130.84 C 252.88 112.20 253.20 93.55 253.08 74.91 Z" fill="#0b5582" opacity="1.00" stroke="#0b5582" stroke-width="0.25" data-index="2"></path>
<path d="M 259.23 77.71 C 265.77 77.04 272.44 75.71 278.96 77.30 C 284.00 78.23 288.57 80.61 293.00 83.09 C 298.86 86.30 305.50 87.49 312.02 88.53 C 311.55 89.79 311.31 91.31 309.97 91.96 C 303.93 95.96 297.02 98.43 290.08 100.36 C 280.16 103.29 269.74 100.31 259.65 101.80 L 259.06 101.90 C 259.35 93.84 259.05 85.77 259.23 77.71 Z" fill="#6bddfc" opacity="1.00" stroke="#6bddfc" stroke-width="0.25" data-index="3"></path>

<path d="M 310.47 123.57 C 316.68 118.16 326.30 117.74 333.30 121.88 C 339.50 125.06 343.62 130.83 348.08 135.94 C 351.80 131.09 356.32 125.38 363.12 125.58 C 370.15 126.84 373.11 134.83 372.42 141.22 C 374.34 141.57 376.63 141.34 378.07 142.94 C 380.93 145.27 381.09 149.22 381.56 152.59 C 381.18 152.87 380.43 153.42 380.05 153.70 C 379.36 150.45 379.75 146.42 377.06 144.03 C 375.16 142.29 372.57 143.25 370.34 143.56 C 370.64 139.46 371.21 134.97 368.86 131.31 C 366.98 127.46 361.83 125.98 358.15 128.12 C 353.54 130.13 351.12 134.70 348.34 138.59 C 347.21 138.70 346.94 137.25 346.28 136.62 C 341.92 129.83 335.76 123.64 327.89 121.22 C 320.66 118.94 312.36 122.03 308.14 128.26 C 304.65 132.53 302.91 137.81 301.48 143.05 C 299.39 140.73 297.88 136.59 294.07 137.38 C 288.58 137.80 285.23 142.72 282.98 147.20 C 282.91 146.53 282.78 145.20 282.71 144.54 C 284.86 139.81 289.69 136.01 294.98 135.86 C 297.46 135.67 299.28 137.51 300.98 139.02 C 302.79 133.22 305.92 127.65 310.47 123.57 Z" fill="#9da1a9" opacity="1.00" stroke="#9da1a9" stroke-width="0.25" data-index="5" style="opacity: 1; visibility: hidden;"></path>

<path d="M 246.38 146.06 C 251.07 142.54 257.55 142.74 262.93 144.32 C 269.95 147.13 273.99 154.61 274.25 161.94 C 274.36 168.78 274.29 175.63 274.24 182.47 C 262.12 182.60 250.00 182.73 237.89 182.38 C 237.75 175.93 237.73 169.47 237.82 163.02 C 237.91 156.51 240.68 149.60 246.38 146.06 Z" fill="#feffff" opacity="1.00" stroke="#feffff" stroke-width="0.25" data-index="7" style="opacity: 1;"></path>
<path d="M 252.54 150.80 C 256.94 149.22 262.63 150.91 264.74 155.27 C 267.58 159.93 265.90 166.60 261.24 169.40 C 256.40 172.27 249.13 170.42 246.99 164.99 C 244.33 159.88 246.96 152.62 252.54 150.80 Z" fill="#085380" opacity="1.00" stroke="#085380" stroke-width="0.25" data-index="8" style="opacity: 1;"></path>

<path d="M 205.98 183.78 C 212.85 182.25 219.92 183.13 226.89 182.94 C 224.49 185.96 220.32 184.72 217.00 184.93 C 212.68 184.98 207.05 184.08 204.29 188.30 C 201.92 192.65 202.72 198.00 204.14 202.55 C 204.66 202.50 205.71 202.40 206.24 202.35 C 206.40 207.70 206.39 213.05 206.35 218.39 C 205.45 218.38 203.65 218.34 202.75 218.32 C 202.51 213.04 203.14 207.71 202.30 202.48 C 200.65 199.20 201.44 195.42 201.40 191.91 C 201.26 188.54 203.63 185.87 205.98 183.78 Z" fill="#15587c" opacity="1.00" stroke="#15587c" stroke-width="0.25" data-index="10"></path>
<path d="M 226.89 182.94 C 252.63 182.98 278.39 182.70 304.13 183.03 C 307.87 184.30 310.78 188.02 310.65 192.04 C 310.67 195.09 310.95 198.19 310.45 201.22 L 310.07 201.98 C 309.84 202.17 309.37 202.55 309.14 202.75 C 307.92 202.37 306.72 202.00 305.48 201.76 C 278.99 202.03 252.50 201.75 226.01 201.88 C 219.42 202.01 212.80 201.48 206.24 202.35 C 205.71 202.40 204.66 202.50 204.14 202.55 C 202.72 198.00 201.92 192.65 204.29 188.30 C 207.05 184.08 212.68 184.98 217.00 184.93 C 220.32 184.72 224.49 185.96 226.89 182.94 Z" fill="#085382" opacity="1.00" stroke="#085382" stroke-width="0.25" data-index="11"></path>

<path d="M 305.48 201.76 C 306.72 202.00 307.92 202.37 309.14 202.75 C 308.96 207.78 309.25 212.82 308.95 217.86 C 307.81 217.94 306.67 218.01 305.54 218.09 C 305.60 212.64 305.58 207.20 305.48 201.76 Z" fill="#134b70" opacity="1.00" stroke="#134b70" stroke-width="0.25" data-index="13"></path>
<path d="M 202.30 202.48 C 203.14 207.71 202.51 213.04 202.75 218.32 C 203.65 218.34 205.45 218.38 206.35 218.39 L 206.36 218.39 C 207.71 220.78 210.60 220.50 212.95 220.63 C 238.29 220.57 263.62 220.68 288.96 220.60 C 295.61 220.71 302.29 220.17 308.92 221.06 C 313.33 221.72 317.76 220.96 322.15 220.54 C 321.79 220.95 321.07 221.77 320.71 222.18 C 323.22 228.87 323.21 236.80 320.44 243.41 C 321.41 243.64 322.38 243.88 323.37 244.05 C 325.24 244.00 327.10 243.72 328.98 243.68 C 357.67 243.80 386.36 243.65 415.05 243.75 C 419.84 243.70 424.37 245.98 427.84 249.15 C 430.96 253.04 432.30 258.06 432.16 263.01 C 432.14 277.33 432.29 291.66 431.98 305.97 C 432.76 319.54 431.32 333.10 432.13 346.65 C 426.57 346.73 421.00 346.83 415.44 346.74 C 415.59 326.82 415.46 306.89 415.50 286.96 C 415.48 282.94 415.74 278.91 415.31 274.90 C 413.91 274.55 412.46 274.46 411.04 274.44 C 381.88 274.60 352.73 274.43 323.58 274.54 C 323.34 296.03 323.64 317.53 323.42 339.02 C 323.46 341.73 322.98 344.74 324.78 347.04 C 325.83 349.89 325.64 352.98 325.66 355.96 C 325.54 362.51 325.70 369.05 325.48 375.60 C 329.92 376.51 334.45 376.44 338.96 376.32 C 369.18 376.30 399.40 376.43 429.62 376.30 C 439.16 376.59 448.77 375.82 458.27 376.73 C 458.64 378.36 458.70 380.04 458.84 381.71 C 456.92 382.08 454.99 382.45 453.04 382.48 C 441.88 382.58 430.72 382.30 419.57 382.57 C 309.08 382.59 198.59 382.64 88.10 382.56 C 77.04 382.26 65.95 382.79 54.90 382.32 C 52.30 381.91 52.51 379.17 52.24 377.19 C 54.44 376.58 56.71 376.25 58.99 376.31 C 66.80 376.36 74.61 376.36 82.41 376.33 C 109.96 376.33 137.50 376.38 165.04 376.36 C 172.02 376.37 179.01 376.48 185.99 376.04 C 187.14 366.32 185.22 356.40 187.21 346.80 C 189.01 340.66 187.98 334.23 188.15 327.96 C 188.30 318.30 187.85 308.64 188.22 298.98 C 188.07 290.79 188.52 282.58 187.77 274.42 C 157.28 274.60 126.79 274.50 96.31 274.45 C 96.06 298.54 96.27 322.64 96.16 346.73 C 90.58 346.78 84.99 346.77 79.41 346.68 C 79.62 318.12 79.40 289.56 79.51 261.00 C 79.50 257.56 80.39 254.10 82.19 251.16 C 85.88 246.31 91.99 243.66 98.02 243.69 C 127.90 243.74 157.78 243.74 187.65 243.71 C 187.98 237.47 188.56 231.20 188.06 224.95 C 188.15 223.02 186.43 221.97 185.26 220.76 C 186.04 219.84 186.48 218.24 187.98 218.37 C 192.74 217.99 197.52 218.36 202.30 218.10 C 202.52 212.89 202.55 207.68 202.30 202.48 Z" fill="#68ddfe" opacity="1.00" stroke="#68ddfe" stroke-width="0.25" data-index="14" style="opacity: 1;"></path>
<path d="M 206.24 202.35 C 212.80 201.48 219.42 202.01 226.01 201.88 C 252.50 201.75 278.99 202.03 305.48 201.76 C 305.58 207.20 305.60 212.64 305.54 218.09 C 272.49 218.64 239.42 218.03 206.36 218.39 L 206.35 218.39 C 206.39 213.05 206.40 207.70 206.24 202.35 Z" fill="#fcffff" opacity="1.00" stroke="#fcffff" stroke-width="0.25" data-index="15"></path>
<path d="M 309.14 202.75 C 309.37 202.55 309.84 202.17 310.07 201.98 L 310.55 201.99 C 309.03 207.24 310.49 212.82 309.55 218.20 C 314.88 218.28 320.20 218.22 325.52 218.50 C 325.62 219.68 325.73 220.86 325.84 222.04 C 325.23 222.17 324.01 222.42 323.40 222.55 C 323.45 229.71 323.50 236.88 323.37 244.05 C 322.38 243.88 321.41 243.64 320.44 243.41 C 323.21 236.80 323.22 228.87 320.71 222.18 C 321.07 221.77 321.79 220.95 322.15 220.54 C 317.76 220.96 313.33 221.72 308.92 221.06 C 302.29 220.17 295.61 220.71 288.96 220.60 C 263.62 220.68 238.29 220.57 212.95 220.63 C 210.60 220.50 207.71 220.78 206.36 218.39 C 239.42 218.03 272.49 218.64 305.54 218.09 C 306.67 218.01 307.81 217.94 308.95 217.86 C 309.25 212.82 308.96 207.78 309.14 202.75 Z" fill="#60c4dc" opacity="1.00" stroke="#60c4dc" stroke-width="0.25" data-index="16"></path>
<path d="M 214.70 208.81 C 217.95 206.41 222.27 207.97 226.00 207.51 C 228.15 207.79 231.17 206.54 232.48 208.93 C 226.56 209.25 220.60 209.46 214.70 208.81 Z" fill="#9ba7af" opacity="1.00" stroke="#9ba7af" stroke-width="0.25" data-index="17"></path>
<path d="M 248.67 207.69 C 253.53 207.41 258.47 207.39 263.33 207.63 C 263.63 207.98 264.23 208.66 264.52 209.00 C 258.86 209.29 253.17 209.33 247.50 208.98 C 247.79 208.66 248.38 208.01 248.67 207.69 Z" fill="#9ba7af" opacity="1.00" stroke="#9ba7af" stroke-width="0.25" data-index="18"></path>
<path d="M 280.27 207.48 C 285.70 207.74 291.15 207.28 296.58 207.65 C 296.73 208.08 297.02 208.95 297.17 209.38 C 291.96 209.15 286.75 209.12 281.55 209.34 C 281.12 208.71 280.70 208.09 280.27 207.48 Z" fill="#9ba7af" opacity="1.00" stroke="#9ba7af" stroke-width="0.25" data-index="19"></path>
<path d="M 215.42 211.67 C 220.84 212.28 226.51 210.98 231.79 212.29 L 232.04 213.22 C 226.54 213.85 220.97 213.22 215.45 213.49 C 215.44 213.04 215.42 212.13 215.42 211.67 Z" fill="#96a7b1" opacity="1.00" stroke="#96a7b1" stroke-width="0.25" data-index="20"></path>
<path d="M 247.86 213.45 C 248.24 212.45 248.94 211.61 250.12 211.79 C 254.66 211.67 259.20 211.94 263.74 211.69 C 263.75 212.16 263.77 213.11 263.77 213.58 C 258.47 213.36 253.17 213.50 247.86 213.45 Z" fill="#99a5b1" opacity="1.00" stroke="#99a5b1" stroke-width="0.25" data-index="21"></path>
<path d="M 281.35 211.67 C 286.45 211.87 291.57 211.89 296.67 211.63 C 296.71 212.12 296.80 213.11 296.85 213.60 C 291.65 213.39 286.44 213.44 281.25 213.54 C 281.27 213.07 281.33 212.13 281.35 211.67 Z" fill="#97a5af" opacity="1.00" stroke="#97a5af" stroke-width="0.25" data-index="22"></path>
<path d="M 206.45 230.38 C 239.47 230.23 272.50 230.25 305.52 230.38 C 305.42 278.80 305.47 327.23 305.50 375.65 C 298.09 375.82 290.67 375.69 283.26 375.71 C 283.18 365.48 283.33 355.25 283.18 345.02 C 283.05 338.20 281.87 330.95 277.40 325.53 C 272.16 319.37 264.40 314.61 256.04 315.28 C 249.09 314.62 242.55 317.99 237.48 322.48 C 231.47 327.84 228.77 336.10 228.71 343.99 C 228.60 354.56 228.72 365.13 228.63 375.69 C 221.20 375.73 213.77 375.74 206.34 375.71 C 206.41 327.27 206.14 278.82 206.45 230.38 Z" fill="#ffffff" opacity="1.00" stroke="#ffffff" stroke-width="0.25" data-index="23" style="opacity: 1;"></path>
<path d="M 215.26 239.09 C 219.67 238.70 224.09 239.12 228.49 239.31 C 228.21 247.43 228.57 255.57 228.27 263.70 C 223.95 263.52 219.61 263.52 215.28 263.66 C 215.27 255.47 215.27 247.28 215.26 239.09 Z" fill="#124a6b" opacity="1.00" stroke="#124a6b" stroke-width="0.25" data-index="24"></path>
<path d="M 249.48 239.17 C 253.82 238.72 258.19 238.73 262.54 239.17 C 262.42 247.31 262.53 255.45 262.51 263.60 C 258.16 263.59 253.82 263.59 249.47 263.63 C 249.54 255.48 249.57 247.32 249.48 239.17 Z" fill="#09517e" opacity="1.00" stroke="#09517e" stroke-width="0.25" data-index="25"></path>
<path d="M 284.17 239.20 C 288.56 238.80 292.97 238.83 297.38 238.86 C 297.32 247.14 297.49 255.42 297.25 263.70 C 292.89 263.55 288.53 263.55 284.17 263.68 C 284.16 255.52 284.14 247.36 284.17 239.20 Z" fill="#095380" opacity="1.00" stroke="#095380" stroke-width="0.25" data-index="26"></path>
<path d="M 217.41 240.49 C 220.55 240.35 223.69 240.26 226.83 240.21 C 227.37 247.12 227.07 254.05 226.80 260.96 C 223.64 261.73 220.39 261.92 217.15 261.90 C 217.01 254.76 216.81 247.61 217.41 240.49 Z" fill="#075281" opacity="1.00" stroke="#075281" stroke-width="0.25" data-index="27"></path>
<path d="M 96.31 274.45 C 126.79 274.50 157.28 274.60 187.77 274.42 C 188.52 282.58 188.07 290.79 188.22 298.98 C 187.85 308.64 188.30 318.30 188.15 327.96 C 187.98 334.23 189.01 340.66 187.21 346.80 C 183.63 346.72 180.05 346.70 176.47 346.73 L 176.48 346.00 C 176.47 338.27 176.55 330.55 176.41 322.83 C 172.87 322.86 169.33 322.79 165.80 322.85 C 165.10 330.77 165.75 338.75 165.48 346.69 C 159.81 346.68 154.15 346.74 148.48 346.68 C 148.43 338.72 148.53 330.77 148.40 322.81 C 144.79 322.83 141.18 322.82 137.58 322.74 C 137.38 330.35 137.43 337.96 137.48 345.57 C 131.96 346.93 126.27 346.58 120.65 346.31 C 120.41 338.33 120.63 330.35 120.48 322.37 C 116.45 322.34 112.42 322.33 108.39 322.35 C 108.33 330.48 108.89 338.63 108.08 346.73 C 104.11 346.71 100.13 346.71 96.16 346.73 C 96.27 322.64 96.06 298.54 96.31 274.45 Z" fill="#feffff" opacity="1.00" stroke="#feffff" stroke-width="0.25" data-index="28" style="opacity: 1;"></path>
<path d="M 323.58 274.54 C 352.73 274.43 381.88 274.60 411.04 274.44 C 412.46 274.46 413.91 274.55 415.31 274.90 C 415.74 278.91 415.48 282.94 415.50 286.96 C 415.46 306.89 415.59 326.82 415.44 346.74 C 411.15 346.70 406.87 346.64 402.59 346.67 C 402.50 338.79 402.54 330.92 402.59 323.04 C 398.89 322.76 395.19 322.77 391.50 323.05 C 391.48 330.94 391.54 338.83 391.49 346.72 C 385.77 346.64 380.05 346.64 374.34 346.70 C 374.31 338.74 374.35 330.78 374.34 322.82 C 370.66 322.83 366.97 322.79 363.29 322.81 C 363.15 330.73 363.26 338.66 363.22 346.58 C 358.17 346.29 353.06 347.00 348.07 346.12 C 346.48 344.95 346.77 342.75 346.57 341.04 C 346.46 334.82 346.69 328.59 346.60 322.36 C 342.85 322.34 339.11 322.34 335.37 322.32 L 335.35 323.08 C 335.23 330.95 335.28 338.82 335.28 346.70 C 331.77 346.64 328.27 346.85 324.78 347.04 C 322.98 344.74 323.46 341.73 323.42 339.02 C 323.64 317.53 323.34 296.03 323.58 274.54 Z" fill="#feffff" opacity="1.00" stroke="#feffff" stroke-width="0.25" data-index="29" style="opacity: 1;"></path>
<path d="M 215.28 280.30 C 219.67 280.42 224.06 280.30 228.45 280.42 C 228.34 288.46 228.38 296.50 228.43 304.54 C 224.05 304.67 219.67 304.68 215.30 304.60 C 215.21 296.50 215.28 288.40 215.28 280.30 Z" fill="#095280" opacity="1.00" stroke="#095280" stroke-width="0.25" data-index="30"></path>
<path d="M 284.18 280.27 C 288.53 280.41 292.90 280.44 297.26 280.25 C 297.56 288.35 297.22 296.46 297.44 304.57 C 293.03 304.68 288.63 304.64 284.22 304.61 C 284.08 296.50 284.18 288.38 284.18 280.27 Z" fill="#095481" opacity="1.00" stroke="#095481" stroke-width="0.25" data-index="31" style="opacity: 1;"></path>
<path d="M 249.51 280.36 C 253.82 280.38 258.13 280.39 262.44 280.35 C 262.46 282.12 262.51 283.90 262.51 285.68 C 262.31 291.96 262.46 298.25 262.50 304.54 C 258.18 304.59 253.86 304.60 249.55 304.55 C 249.55 298.50 249.65 292.46 249.58 286.41 C 249.56 284.39 249.53 282.37 249.51 280.36 Z" fill="#075381" opacity="1.00" stroke="#075381" stroke-width="0.25" data-index="32" style="opacity: 1; visibility: visible; fill: rgb(230, 101, 56); display: none;"></path>
<path d="M 108.94 285.79 C 109.17 285.58 109.62 285.15 109.85 284.94 C 113.21 284.69 116.59 284.89 119.95 284.90 C 120.25 292.82 120.21 300.77 119.99 308.70 C 116.36 308.67 112.73 308.66 109.10 308.64 C 108.73 301.03 108.88 293.40 108.94 285.79 Z" fill="#095483" opacity="1.00" stroke="#095483" stroke-width="0.25" data-index="33"></path>
<path d="M 137.42 285.11 C 141.11 284.72 144.83 284.79 148.52 285.19 C 148.43 293.01 148.43 300.84 148.54 308.66 C 144.82 308.62 141.11 308.62 137.39 308.65 C 137.42 300.80 137.51 292.95 137.42 285.11 Z" fill="#124a6b" opacity="1.00" stroke="#124a6b" stroke-width="0.25" data-index="34"></path>
<path d="M 165.56 284.81 C 169.17 284.86 172.78 284.88 176.39 284.83 C 176.58 292.78 176.48 300.73 176.47 308.68 C 172.80 308.68 169.13 308.66 165.47 308.59 C 165.58 300.66 165.46 292.74 165.56 284.81 Z" fill="#085484" opacity="1.00" stroke="#085484" stroke-width="0.25" data-index="35"></path>
<path d="M 335.30 285.11 C 338.89 284.84 342.54 284.51 346.11 285.19 C 346.48 292.95 346.01 300.74 346.32 308.51 C 342.65 308.71 338.97 308.69 335.30 308.67 C 335.29 300.81 335.28 292.96 335.30 285.11 Z" fill="#085381" opacity="1.00" stroke="#085381" stroke-width="0.25" data-index="36"></path>
<path d="M 363.39 285.22 C 366.86 284.29 370.73 285.10 374.35 284.85 C 374.36 292.76 374.26 300.67 374.43 308.58 C 370.71 308.69 367.00 308.68 363.28 308.68 C 363.30 300.86 362.98 293.03 363.39 285.22 Z" fill="#0a5380" opacity="1.00" stroke="#0a5380" stroke-width="0.25" data-index="37"></path>
<path d="M 391.58 284.82 C 395.21 284.86 398.84 284.87 402.48 284.83 C 402.63 292.77 402.49 300.70 402.57 308.64 C 398.88 308.65 395.19 308.68 391.50 308.66 C 391.57 300.72 391.39 292.76 391.58 284.82 Z" fill="#0a5381" opacity="1.00" stroke="#0a5381" stroke-width="0.25" data-index="38"></path>
<path d="M 139.36 286.36 C 141.79 286.24 144.23 286.24 146.67 286.33 C 147.39 293.15 147.23 300.02 146.81 306.86 C 144.28 306.86 141.75 306.83 139.22 306.78 C 140.32 299.99 138.89 293.17 139.36 286.36 Z" fill="#095583" opacity="1.00" stroke="#095583" stroke-width="0.25" data-index="39"></path>
<path d="M 242.29 286.37 C 244.72 286.37 247.15 286.39 249.58 286.41 C 249.65 292.46 249.55 298.50 249.55 304.55 C 253.86 304.60 258.18 304.59 262.50 304.54 C 262.46 298.25 262.31 291.96 262.51 285.68 L 262.72 286.57 C 263.71 290.12 263.31 293.82 262.86 297.42 C 262.54 299.82 262.53 302.24 262.53 304.66 C 258.18 304.68 253.83 304.69 249.48 304.65 C 249.49 302.25 249.49 299.86 249.48 297.46 C 247.09 297.50 244.71 297.53 242.33 297.57 C 242.26 293.83 242.26 290.10 242.29 286.37 Z" fill="#e66538" opacity="1.00" stroke="#e66538" stroke-width="0.25" data-index="40" style="opacity: 1; display: none;"></path>
<path d="M 262.72 286.57 C 265.02 286.42 267.32 286.37 269.62 286.33 C 269.63 290.07 269.61 293.82 269.56 297.56 C 267.32 297.51 265.09 297.46 262.86 297.42 C 263.31 293.82 263.71 290.12 262.72 286.57 Z" fill="#e86537" opacity="1.00" stroke="#e86537" stroke-width="0.25" data-index="41" style="opacity: 1; visibility: visible; fill: rgb(230, 55, 55); display: none;"></path>
<path d="M 108.39 322.35 C 112.42 322.33 116.45 322.34 120.48 322.37 C 120.63 330.35 120.41 338.33 120.65 346.31 C 126.27 346.58 131.96 346.93 137.48 345.57 C 137.49 345.85 137.50 346.41 137.50 346.69 C 141.16 346.66 144.82 346.66 148.48 346.68 C 154.15 346.74 159.81 346.68 165.48 346.69 C 169.15 346.72 172.81 346.76 176.47 346.73 C 180.05 346.70 183.63 346.72 187.21 346.80 C 185.22 356.40 187.14 366.32 185.99 376.04 C 179.01 376.48 172.02 376.37 165.04 376.36 C 137.50 376.38 109.96 376.33 82.41 376.33 C 79.57 368.52 74.27 361.98 70.68 354.54 C 70.19 352.74 70.02 350.63 70.76 348.88 C 72.93 346.47 76.46 346.71 79.41 346.68 C 84.99 346.77 90.58 346.78 96.16 346.73 C 100.13 346.71 104.11 346.71 108.08 346.73 C 108.89 338.63 108.33 330.48 108.39 322.35 Z" fill="#a5e9fc" opacity="1.00" stroke="#a5e9fc" stroke-width="0.25" data-index="42" style="opacity: 1;"></path>
<path d="M 335.37 322.32 C 339.11 322.34 342.85 322.34 346.60 322.36 C 346.69 328.59 346.46 334.82 346.57 341.04 C 346.77 342.75 346.48 344.95 348.07 346.12 C 353.06 347.00 358.17 346.29 363.22 346.58 C 366.92 346.70 370.63 346.73 374.34 346.70 C 380.05 346.64 385.77 346.64 391.49 346.72 C 395.19 346.76 398.89 346.70 402.59 346.67 C 406.87 346.64 411.15 346.70 415.44 346.74 C 421.00 346.83 426.57 346.73 432.13 346.65 C 434.68 346.64 437.21 346.96 439.74 347.27 C 442.62 351.08 440.64 355.79 438.26 359.30 C 434.55 364.49 431.63 370.24 429.62 376.30 C 399.40 376.43 369.18 376.30 338.96 376.32 C 334.45 376.44 329.92 376.51 325.48 375.60 C 325.70 369.05 325.54 362.51 325.66 355.96 C 325.64 352.98 325.83 349.89 324.78 347.04 C 328.27 346.85 331.77 346.64 335.28 346.70 C 338.83 346.74 342.38 346.75 345.93 346.71 C 346.27 338.87 346.06 331.03 346.08 323.18 C 342.50 323.12 338.93 323.09 335.35 323.08 L 335.37 322.32 Z" fill="#a5e9fc" opacity="1.00" stroke="#a5e9fc" stroke-width="0.25" data-index="43" style="opacity: 1;"></path>
<path d="M 109.15 323.11 C 112.76 323.11 116.37 323.10 119.98 323.09 C 119.92 330.99 119.98 338.88 119.92 346.77 C 116.33 346.74 112.75 346.71 109.16 346.67 C 109.01 338.82 109.02 330.96 109.15 323.11 Z" fill="#085483" opacity="1.00" stroke="#085483" stroke-width="0.25" data-index="44"></path>
<path d="M 137.48 345.57 C 137.43 337.96 137.38 330.35 137.58 322.74 C 141.18 322.82 144.79 322.83 148.40 322.81 C 148.53 330.77 148.43 338.72 148.48 346.68 C 144.82 346.66 141.16 346.66 137.50 346.69 C 137.50 346.41 137.49 345.85 137.48 345.57 Z" fill="#134a6c" opacity="1.00" stroke="#134a6c" stroke-width="0.25" data-index="45" style="opacity: 1;"></path>
<path d="M 165.48 346.69 C 165.75 338.75 165.10 330.77 165.80 322.85 C 166.48 330.54 166.03 338.28 166.10 345.99 C 166.46 346.00 167.19 346.03 167.55 346.04 C 166.84 338.78 167.00 331.47 167.28 324.19 C 169.73 324.25 172.19 324.32 174.65 324.39 C 175.31 331.53 175.03 338.72 174.54 345.87 C 175.02 345.90 175.99 345.97 176.48 346.00 L 176.47 346.73 C 172.81 346.76 169.15 346.72 165.48 346.69 Z" fill="#085584" opacity="1.00" stroke="#085584" stroke-width="0.25" data-index="46"></path>
<path d="M 165.80 322.85 C 169.33 322.79 172.87 322.86 176.41 322.83 C 176.55 330.55 176.47 338.27 176.48 346.00 C 175.99 345.97 175.02 345.90 174.54 345.87 C 175.03 338.72 175.31 331.53 174.65 324.39 C 172.19 324.32 169.73 324.25 167.28 324.19 C 167.00 331.47 166.84 338.78 167.55 346.04 C 167.19 346.03 166.46 346.00 166.10 345.99 C 166.03 338.28 166.48 330.54 165.80 322.85 Z" fill="#124b6f" opacity="1.00" stroke="#124b6f" stroke-width="0.25" data-index="47"></path>
<path d="M 335.35 323.08 C 338.93 323.09 342.50 323.12 346.08 323.18 C 346.06 331.03 346.27 338.87 345.93 346.71 C 342.38 346.75 338.83 346.74 335.28 346.70 C 335.28 338.82 335.23 330.95 335.35 323.08 Z" fill="#085481" opacity="1.00" stroke="#085481" stroke-width="0.25" data-index="48"></path>
<path d="M 363.29 322.81 C 366.97 322.79 370.66 322.83 374.34 322.82 C 374.35 330.78 374.31 338.74 374.34 346.70 C 370.63 346.73 366.92 346.70 363.22 346.58 C 363.26 338.66 363.15 330.73 363.29 322.81 Z" fill="#095480" opacity="1.00" stroke="#095480" stroke-width="0.25" data-index="49"></path>
<path d="M 391.50 323.05 C 395.19 322.77 398.89 322.76 402.59 323.04 C 402.54 330.92 402.50 338.79 402.59 346.67 C 398.89 346.70 395.19 346.76 391.49 346.72 C 391.54 338.83 391.48 330.94 391.50 323.05 Z" fill="#095381" opacity="1.00" stroke="#095381" stroke-width="0.25" data-index="50"></path>
<path d="M 139.29 325.03 C 141.72 324.51 144.20 324.30 146.69 324.30 C 147.07 330.85 147.34 337.45 146.98 343.99 C 146.24 347.15 142.09 344.91 139.91 345.07 C 139.45 338.40 138.85 331.72 139.29 325.03 Z" fill="#0a5585" opacity="1.00" stroke="#0a5585" stroke-width="0.25" data-index="51"></path>
<path d="M 244.94 341.21 C 252.28 341.27 259.62 341.36 266.96 341.21 C 267.72 352.76 267.38 364.38 267.13 375.95 C 259.68 376.24 252.23 376.17 244.78 376.00 C 244.52 364.41 244.34 352.79 244.94 341.21 Z" fill="#0ab5e9" opacity="1.00" stroke="#0ab5e9" stroke-width="0.25" data-index="52" style="opacity: 1;"></path>

<path d="M 189.54 403.07 C 193.44 399.72 199.25 401.58 203.93 401.82 C 203.52 402.77 203.12 403.73 202.72 404.68 C 198.35 404.48 193.18 406.25 189.54 403.07 Z" fill="#f7ffff" opacity="1.00" stroke="#f7ffff" stroke-width="0.25" data-index="54" style="visibility: hidden; opacity: 1;"></path>

<path d="M 333.11 401.87 C 334.65 401.59 336.19 401.31 337.73 401.04 C 337.65 402.19 337.58 403.34 337.51 404.50 C 336.44 404.59 335.37 404.68 334.30 404.78 C 333.90 403.81 333.50 402.84 333.11 401.87 Z" fill="#e3ffff" opacity="1.00" stroke="#e3ffff" stroke-width="0.25" data-index="56" style="visibility: hidden; opacity: 1;"></path>
<path d="M242.29,286.37c2.43,0 4.86,0.02 7.29,0.04c-0.02,-2.02 -0.05,-4.04 -0.07,-6.05c4.31,0.02 8.62,0.03 12.93,-0.01c0.02,1.77 0.07,3.55 0.07,5.33l0.21,0.89c0.99,3.55 0.59,7.25 0.14,10.85c-0.32,2.4 -0.33,4.82 -0.33,7.24c-4.35,0.02 -8.7,0.03 -13.05,-0.01c0.01,-2.4 0.01,-4.79 0,-7.19c-2.39,0.04 -4.77,0.07 -7.15,0.11c-0.07,-3.74 -0.07,-7.47 -0.04,-11.2zM249.58,286.41c0.07,6.05 -0.03,12.09 -0.03,18.14c0,-6.05 0.1,-12.09 0.03,-18.14zM249.55,304.55c4.31,0.05 8.63,0.04 12.95,-0.01c-4.32,0.05 -8.64,0.06 -12.95,0.01zM262.5,304.54c-0.04,-6.29 -0.19,-12.58 0.01,-18.86c-0.2,6.28 -0.05,12.57 -0.01,18.86z" id="path-40 1" fill="url(#grad-57)" fill-rule="nonzero" stroke="url(#grad-57)" stroke-width="0.25" stroke-linecap="butt" stroke-linejoin="miter" stroke-miterlimit="10" stroke-dasharray="" stroke-dashoffset="0" font-family="none" font-weight="none" font-size="none" text-anchor="none" style="mix-blend-mode: normal; opacity: 1; visibility: visible; fill: rgb(230, 55, 55); display: none;" data-index="57"></path><path d="M269.62,286.33c0.01,3.74 -0.01,7.49 -0.06,11.23c-2.24,-0.05 -4.47,-0.1 -6.7,-0.14c-0.32,2.4 -0.33,4.82 -0.33,7.24c-4.35,0.02 -8.7,0.03 -13.05,-0.01c0.01,-2.4 0.01,-4.79 0,-7.19c-2.39,0.04 -4.77,0.07 -7.15,0.11c-0.07,-3.74 -0.07,-7.47 -0.04,-11.2c2.43,0 4.86,0.02 7.29,0.04c-0.02,-2.02 -0.05,-4.04 -0.07,-6.05c4.31,0.02 8.62,0.03 12.93,-0.01c0.02,1.77 0.07,3.55 0.07,5.33l0.21,0.89c2.3,-0.15 4.6,-0.2 6.9,-0.24z" id="path-41 1" fill="url(#grad-58)" fill-rule="nonzero" stroke="url(#grad-58)" stroke-width="0.25" stroke-linecap="butt" stroke-linejoin="miter" stroke-miterlimit="10" stroke-dasharray="" stroke-dashoffset="0" font-family="none" font-weight="none" font-size="none" text-anchor="none" style="mix-blend-mode: normal; opacity: 1;" data-index="58"></path></svg>