<svg xmlns="http://www.w3.org/2000/svg" height="512pt" version="1.1" viewBox="0 0 512 512" width="512pt">

<path d="M 259.12 56.83 C 273.45 66.27 282.60 82.24 286.12 98.80 C 289.68 116.07 286.51 133.71 283.98 150.88 C 280.58 170.92 276.68 191.54 280.88 211.78 C 283.67 223.74 288.57 235.40 296.18 245.11 C 299.46 229.28 302.76 213.10 310.29 198.65 C 310.96 203.31 311.30 208.04 312.51 212.60 C 317.48 229.29 326.88 244.07 334.31 259.69 C 338.03 268.66 341.51 277.98 342.40 287.71 C 341.64 294.54 341.60 301.44 342.45 308.27 C 342.69 302.49 343.00 296.70 342.95 290.91 C 343.76 296.68 343.32 302.52 343.53 308.32 C 349.97 308.21 356.46 307.61 362.58 305.52 C 372.22 302.52 380.30 295.88 386.59 288.15 C 385.62 306.47 380.30 325.09 368.50 339.45 C 362.99 346.51 355.83 351.98 348.77 357.38 C 364.20 358.88 379.53 356.14 394.87 355.09 C 381.42 363.92 370.60 376.18 360.87 388.88 C 351.43 402.00 344.14 416.94 331.85 427.80 C 315.40 442.03 293.54 448.66 272.07 449.53 C 265.63 449.68 259.12 449.78 252.79 448.45 C 266.87 440.09 281.65 432.73 294.65 422.65 C 305.03 415.02 312.76 404.05 316.86 391.87 C 318.68 386.66 320.08 381.23 319.91 375.67 C 312.71 388.91 304.09 401.70 292.36 411.37 C 296.01 400.83 300.19 390.27 301.01 379.03 C 301.60 369.92 301.75 360.62 299.49 351.71 C 296.08 358.91 293.34 366.67 287.52 372.37 C 288.04 363.21 289.36 354.05 288.42 344.87 C 287.66 329.38 284.31 313.81 276.93 300.07 C 269.36 285.95 257.59 274.76 246.10 263.86 C 248.52 272.04 252.51 279.81 253.43 288.40 C 254.92 300.41 251.70 312.55 246.15 323.17 C 242.63 329.92 238.57 336.57 232.77 341.63 C 230.31 334.71 229.55 327.24 226.33 320.59 C 224.77 317.30 222.45 314.46 220.07 311.73 C 221.10 319.93 223.71 328.11 222.35 336.45 C 219.81 352.95 215.14 369.21 214.82 386.01 C 214.61 395.79 214.61 405.69 216.83 415.28 C 217.85 419.63 218.73 424.02 219.64 428.41 C 210.90 422.70 203.04 415.69 196.02 407.99 C 182.92 392.85 175.49 372.99 175.25 352.99 C 174.98 346.20 175.69 339.43 175.68 332.65 C 169.30 349.61 168.11 368.42 172.11 386.08 C 174.33 395.67 177.56 405.36 184.01 412.99 C 193.54 424.23 206.69 431.32 219.12 438.81 C 224.47 442.08 230.28 444.56 235.48 448.08 C 215.05 450.29 194.01 446.65 175.68 437.31 C 153.10 425.80 133.94 407.24 122.46 384.58 C 116.93 373.12 112.65 360.82 111.48 348.10 C 114.93 351.91 117.18 356.60 120.37 360.61 C 126.20 368.10 132.82 375.20 141.00 380.15 C 136.75 371.24 132.35 362.29 130.20 352.59 C 124.70 331.68 125.09 309.18 131.76 288.59 C 135.79 276.51 144.20 266.63 149.05 254.94 C 151.85 248.29 152.45 241.00 152.55 233.87 C 160.89 246.70 165.20 261.53 171.33 275.44 C 176.17 286.57 181.44 297.88 190.00 306.69 C 196.13 300.10 198.83 290.84 198.05 281.95 C 197.35 269.25 189.92 258.39 186.91 246.26 C 180.99 225.29 182.86 202.77 189.41 182.18 C 193.55 169.27 198.42 156.47 205.43 144.82 C 204.73 166.10 210.81 188.42 225.37 204.39 C 226.16 196.92 226.45 189.36 228.21 182.03 C 230.45 172.71 233.71 163.60 238.34 155.19 C 245.13 142.13 254.79 130.58 259.65 116.54 C 264.56 102.02 265.79 86.23 263.00 71.15 C 262.14 66.26 260.35 61.62 259.12 56.83 Z" fill="#eb362b" opacity="1.00" stroke="#eb362b" stroke-width="0.25" data-index="1" style="opacity: 1;"></path>
<path d="M 201.74 105.07 C 203.66 95.79 208.52 87.36 213.94 79.69 C 213.33 86.11 212.73 92.61 213.83 99.01 C 214.66 103.82 215.06 109.60 211.46 113.45 C 209.58 115.65 206.43 116.10 203.78 115.24 C 200.72 112.82 201.45 108.47 201.74 105.07 Z" fill="#e9382b" opacity="1.00" stroke="#e9382b" stroke-width="0.25" data-index="2"></path>
<path d="M 315.89 91.89 C 319.88 87.51 323.81 82.92 328.89 79.73 C 327.62 87.02 324.18 93.71 322.93 101.00 C 321.28 108.86 322.07 117.08 319.82 124.84 C 318.21 130.45 311.41 134.61 305.81 132.17 C 301.18 129.82 299.16 124.13 300.32 119.21 C 302.47 108.72 309.18 99.94 315.89 91.89 Z" fill="#a8ebfd" opacity="1.00" stroke="#a8ebfd" stroke-width="0.25" data-index="3" style="opacity: 1; visibility: visible; fill: rgb(235, 54, 43); stroke: rgb(235, 54, 43);"></path>
<path d="M 138.21 143.04 C 137.92 130.77 139.62 118.32 144.09 106.85 C 146.95 118.65 150.21 130.70 157.18 140.82 C 160.79 146.53 164.01 153.13 163.31 160.07 C 162.73 163.98 160.50 168.07 156.56 169.40 C 151.79 171.33 145.85 169.20 143.22 164.81 C 138.95 158.45 138.24 150.50 138.21 143.04 Z" fill="#ea372b" opacity="1.00" stroke="#ea372b" stroke-width="0.25" data-index="4" style="opacity: 1;"></path>
<path d="M 305.96 168.97 C 308.53 163.02 312.04 157.41 316.77 152.93 C 316.16 157.59 315.47 162.26 315.71 166.98 C 315.81 171.12 316.20 175.85 313.18 179.15 C 311.09 182.13 305.18 181.36 304.41 177.62 C 303.82 174.66 304.87 171.69 305.96 168.97 Z" fill="#a9ebfc" opacity="1.00" stroke="#a9ebfc" stroke-width="0.25" data-index="5" style="opacity: 1; visibility: visible; fill: rgb(235, 54, 43); stroke: rgb(235, 54, 43);"></path>
<path d="M 340.91 172.90 C 344.28 169.43 347.92 166.17 352.12 163.73 C 351.20 167.75 349.70 171.61 348.86 175.65 C 347.49 182.72 349.23 189.94 348.26 197.04 C 347.17 202.27 341.98 207.49 336.29 205.90 C 331.78 205.12 329.57 200.19 329.55 196.04 C 329.23 187.02 334.78 179.01 340.91 172.90 Z" fill="#eb372b" opacity="1.00" stroke="#eb372b" stroke-width="0.25" data-index="6" style="opacity: 1;"></path>
<path d="M 126.23 206.29 C 128.49 201.19 131.26 196.32 134.78 191.99 C 135.17 201.71 134.81 211.51 136.81 221.09 C 138.24 229.22 141.03 238.20 137.05 246.03 C 133.29 252.94 121.47 250.87 119.61 243.45 C 116.58 230.75 120.92 217.76 126.23 206.29 Z" fill="#a8ebfe" opacity="1.00" stroke="#a8ebfe" stroke-width="0.25" data-index="7" style="opacity: 1; visibility: visible; fill: rgb(235, 54, 43); stroke: rgb(235, 54, 43);"></path>
<path d="M 377.61 226.64 C 383.46 222.42 389.30 218.05 395.90 215.04 C 389.97 224.69 385.98 235.64 385.16 246.98 C 384.58 251.81 384.49 256.87 382.30 261.32 C 379.71 266.55 374.23 271.02 368.07 269.77 C 359.19 268.60 355.73 257.70 358.20 250.09 C 361.40 240.12 369.75 233.03 377.61 226.64 Z" fill="#eb372a" opacity="1.00" stroke="#eb372a" stroke-width="0.25" data-index="8" style="opacity: 1;"></path>
<path d="M 246.10 263.86 C 257.59 274.76 269.36 285.95 276.93 300.07 C 284.31 313.81 287.66 329.38 288.42 344.87 C 289.36 354.05 288.04 363.21 287.52 372.37 C 293.34 366.67 296.08 358.91 299.49 351.71 C 301.75 360.62 301.60 369.92 301.01 379.03 C 300.19 390.27 296.01 400.83 292.36 411.37 C 291.50 412.79 290.13 413.80 288.91 414.90 C 280.28 422.07 271.11 428.69 261.19 433.97 C 265.99 424.18 272.48 414.86 273.80 403.77 C 274.80 397.22 272.13 390.98 270.22 384.87 C 267.20 375.57 266.60 365.66 267.02 355.95 C 267.32 348.45 269.30 341.14 269.72 333.65 C 264.51 338.21 260.78 344.09 256.44 349.42 C 249.65 358.18 242.51 366.98 238.40 377.40 C 234.22 387.74 232.68 399.24 234.77 410.24 C 236.99 421.36 241.45 432.24 249.09 440.76 C 247.06 441.74 244.83 443.60 242.49 442.46 C 236.97 439.90 231.94 436.43 226.73 433.32 C 224.33 431.75 221.68 430.45 219.64 428.41 C 218.73 424.02 217.85 419.63 216.83 415.28 C 214.61 405.69 214.61 395.79 214.82 386.01 C 215.14 369.21 219.81 352.95 222.35 336.45 C 223.71 328.11 221.10 319.93 220.07 311.73 C 222.45 314.46 224.77 317.30 226.33 320.59 C 229.55 327.24 230.31 334.71 232.77 341.63 C 238.57 336.57 242.63 329.92 246.15 323.17 C 251.70 312.55 254.92 300.41 253.43 288.40 C 252.51 279.81 248.52 272.04 246.10 263.86 Z" fill="#fa6c34" opacity="1.00" stroke="#fa6c34" stroke-width="0.25" data-index="9" style="opacity: 1;"></path>
<path d="M 342.40 287.71 C 342.63 288.77 342.82 289.83 342.95 290.91 C 343.00 296.70 342.69 302.49 342.45 308.27 C 341.60 301.44 341.64 294.54 342.40 287.71 Z" fill="#c2433b" opacity="1.00" stroke="#c2433b" stroke-width="0.25" data-index="10"></path>
<path d="M 85.28 295.63 C 89.19 300.15 91.46 305.97 96.30 309.70 C 101.06 313.52 106.83 318.12 106.06 325.00 C 106.50 331.10 98.95 334.73 94.02 331.93 C 89.74 328.71 87.91 323.35 86.58 318.37 C 84.67 310.98 84.07 303.19 85.28 295.63 Z" fill="#a8ebfd" opacity="1.00" stroke="#a8ebfd" stroke-width="0.25" data-index="11" style="opacity: 1; visibility: visible; fill: rgb(235, 54, 43); stroke: rgb(235, 54, 43);"></path>
<path d="M 412.87 306.86 C 417.79 305.13 422.90 303.85 428.15 303.90 C 423.07 308.90 417.40 313.38 413.32 319.31 C 410.28 322.93 407.42 328.24 402.01 328.17 C 396.70 328.83 392.04 322.56 394.86 317.81 C 398.94 311.71 406.24 309.14 412.87 306.86 Z" fill="#a7ebfd" opacity="1.00" stroke="#a7ebfd" stroke-width="0.25" data-index="12" style="opacity: 1; visibility: visible; fill: rgb(235, 54, 43); stroke: rgb(235, 54, 43);"></path>
<path d="M 256.44 349.42 C 260.78 344.09 264.51 338.21 269.72 333.65 C 269.30 341.14 267.32 348.45 267.02 355.95 C 266.60 365.66 267.20 375.57 270.22 384.87 C 272.13 390.98 274.80 397.22 273.80 403.77 C 272.48 414.86 265.99 424.18 261.19 433.97 C 257.74 437.10 253.19 438.67 249.09 440.76 C 241.45 432.24 236.99 421.36 234.77 410.24 C 232.68 399.24 234.22 387.74 238.40 377.40 C 242.51 366.98 249.65 358.18 256.44 349.42 Z" fill="#feb316" opacity="1.00" stroke="#feb316" stroke-width="0.25" data-index="13" style="opacity: 1;"></path>
<path d="M 381.52 399.44 C 391.00 396.83 400.48 394.18 410.16 392.38 C 406.44 396.62 401.73 399.80 397.70 403.71 C 393.59 407.61 389.14 411.14 384.91 414.90 C 381.66 417.69 378.43 420.63 374.54 422.51 C 370.39 424.58 364.82 423.87 361.62 420.42 C 358.17 416.66 359.07 410.11 363.19 407.21 C 368.61 403.26 375.18 401.35 381.52 399.44 Z" fill="#a6ebfd" opacity="1.00" stroke="#a6ebfd" stroke-width="0.25" data-index="14" style="opacity: 1; visibility: visible; fill: rgb(235, 54, 43); stroke: rgb(235, 54, 43);"></path>
<path d="M 95.82 401.09 C 106.73 403.63 117.27 408.15 126.58 414.41 C 129.84 416.75 133.07 419.31 135.34 422.68 C 137.59 426.07 137.76 430.97 135.21 434.26 C 133.06 436.89 129.20 436.88 126.23 435.88 C 122.40 434.77 119.86 431.48 117.56 428.44 C 112.37 421.37 107.32 414.14 101.18 407.84 C 99.14 405.80 97.32 403.55 95.82 401.09 Z" fill="#a7ebfd" opacity="1.00" stroke="#a7ebfd" stroke-width="0.25" data-index="15" style="opacity: 1; visibility: visible; fill: rgb(235, 54, 43); stroke: rgb(235, 54, 43);"></path>
</svg>