<svg xmlns="http://www.w3.org/2000/svg" height="512pt" version="1.1" viewBox="0 0 512 512" width="512pt">

<path d="M 209.67 137.53 C 213.70 133.60 219.29 130.95 225.02 131.44 C 232.89 131.74 240.88 136.85 243.13 144.63 C 246.60 142.97 250.71 141.64 254.34 143.68 C 260.71 146.75 262.31 154.66 261.74 161.09 C 261.28 165.16 261.51 170.39 257.90 173.13 C 253.44 174.62 248.67 174.70 244.01 174.81 C 232.49 174.84 220.95 175.03 209.46 174.01 C 216.21 172.30 223.18 173.12 230.05 173.00 C 237.46 172.88 244.91 173.53 252.29 172.49 C 241.54 171.33 230.72 172.44 219.95 171.97 C 218.12 172.00 216.58 170.96 215.09 170.07 C 228.64 170.42 242.32 171.24 255.81 169.44 C 257.25 163.87 258.29 157.89 256.46 152.29 C 255.45 149.35 252.47 146.57 249.16 147.35 C 246.30 148.19 243.73 149.79 240.92 150.77 C 239.37 144.49 235.51 138.19 228.87 136.48 C 219.88 133.34 208.83 140.45 209.00 150.24 C 203.27 151.91 196.94 153.00 192.47 157.31 C 190.14 159.35 188.71 162.13 187.54 164.95 C 188.18 166.59 188.83 168.23 189.50 169.87 C 189.13 170.56 188.76 171.25 188.39 171.94 C 191.84 172.46 195.23 173.27 198.63 174.07 C 195.14 174.30 191.46 174.91 188.07 173.91 C 183.28 171.31 182.50 164.46 184.99 159.98 C 188.77 152.43 196.89 148.80 204.63 146.71 C 206.09 143.55 207.17 140.09 209.67 137.53 Z" fill="#093554" opacity="1.00" stroke="#093554" stroke-width="0.25" data-index="1" style="visibility: hidden; opacity: 1;"></path>

<path d="M 340.59 147.63 C 349.54 141.04 362.53 139.77 372.06 145.88 C 377.18 149.33 382.16 153.61 384.45 159.53 C 397.40 161.69 407.48 174.79 405.39 187.94 C 404.81 188.29 403.63 189.00 403.04 189.35 C 396.74 190.10 390.40 189.65 384.09 190.14 C 383.43 189.45 382.77 188.78 382.11 188.10 C 388.54 187.97 394.98 188.27 401.38 187.53 C 386.72 185.80 372.04 189.10 357.37 187.51 C 350.48 186.74 343.52 187.31 336.62 186.56 C 339.14 185.97 341.68 185.45 344.27 185.18 C 363.28 186.36 382.35 185.72 401.37 185.17 C 401.06 179.57 399.40 173.81 395.11 169.93 C 391.35 165.87 385.78 164.65 380.90 162.53 C 378.25 154.78 371.21 149.30 363.56 147.00 C 355.33 144.90 346.71 148.02 340.32 153.24 C 333.24 158.43 328.73 166.65 328.02 175.40 C 323.45 175.02 318.60 173.30 314.16 175.20 C 310.97 176.67 310.91 180.66 310.26 183.62 C 318.63 185.58 327.27 183.99 335.75 184.82 C 328.01 187.60 319.71 185.38 311.73 186.44 C 319.40 187.46 327.15 186.58 334.83 187.37 C 339.82 187.87 344.84 188.12 349.86 188.15 C 349.25 188.74 348.65 189.34 348.05 189.93 C 340.36 189.37 332.63 189.32 324.93 188.91 C 319.95 189.10 314.84 189.34 309.99 188.01 C 308.18 187.52 306.39 186.12 306.34 184.10 C 305.93 180.12 306.61 175.52 309.95 172.90 C 313.81 169.20 319.58 169.75 324.43 170.50 C 326.35 160.99 332.56 152.88 340.59 147.63 Z" fill="#093656" opacity="1.00" stroke="#093656" stroke-width="0.25" data-index="3" style="visibility: hidden; opacity: 1;"></path>

<path d="M 189.50 169.87 C 198.03 170.03 206.58 169.11 215.09 170.07 C 216.58 170.96 218.12 172.00 219.95 171.97 C 230.72 172.44 241.54 171.33 252.29 172.49 C 244.91 173.53 237.46 172.88 230.05 173.00 C 223.18 173.12 216.21 172.30 209.46 174.01 C 205.86 174.21 202.23 174.22 198.63 174.07 C 195.23 173.27 191.84 172.46 188.39 171.94 C 188.76 171.25 189.13 170.56 189.50 169.87 Z" fill="#093b5c" opacity="1.00" stroke="#093b5c" stroke-width="0.25" data-index="5" style="visibility: hidden; opacity: 1;"></path>
<path d="M 191.28 230.13 C 212.71 214.54 234.11 198.90 255.66 183.49 C 275.63 197.78 295.47 212.25 315.39 226.62 C 317.47 227.89 319.32 230.04 321.90 230.08 C 362.30 230.21 402.70 229.86 443.09 230.26 C 447.06 237.56 450.73 245.02 454.80 252.28 C 455.77 253.80 455.90 255.62 455.73 257.38 C 454.08 257.45 452.44 257.51 450.80 257.59 C 450.77 282.21 450.95 306.84 450.71 331.46 C 452.24 331.85 453.77 332.27 455.31 332.67 C 456.15 333.60 456.99 334.53 457.83 335.48 C 464.13 335.57 467.31 342.01 466.50 347.64 C 471.12 347.83 475.84 347.24 480.37 348.41 C 480.53 349.09 480.84 350.46 480.99 351.15 C 480.60 351.99 480.23 352.84 479.85 353.69 C 455.60 354.15 431.32 353.76 407.06 353.89 C 285.03 353.89 163.00 353.89 40.97 353.89 C 38.10 353.91 35.23 353.86 32.37 353.68 C 31.35 351.81 30.70 348.84 33.22 347.84 C 35.53 347.43 37.88 347.71 40.21 347.72 C 40.30 344.70 40.33 341.01 43.19 339.19 C 45.44 337.28 48.46 337.65 51.12 338.27 C 52.71 335.35 54.74 332.41 57.83 330.93 C 60.15 329.72 62.85 330.19 65.34 330.50 C 67.46 328.26 70.11 326.55 73.21 326.07 C 73.14 303.22 73.06 280.36 73.23 257.51 C 67.99 257.38 62.75 257.49 57.51 257.43 C 56.50 253.36 56.93 249.15 56.88 245.00 C 56.94 240.07 56.60 235.10 57.36 230.20 C 75.56 229.95 93.77 230.15 111.98 230.09 C 116.41 230.02 120.88 230.42 125.27 229.66 C 125.02 224.26 125.13 218.85 125.14 213.45 C 124.45 213.40 123.08 213.30 122.39 213.26 C 121.35 209.42 121.82 205.43 121.78 201.52 C 127.78 200.47 133.90 201.07 139.96 200.92 C 144.40 201.05 148.92 200.45 153.26 201.61 C 153.29 205.18 153.31 208.75 153.35 212.31 C 152.14 212.77 150.93 213.21 149.72 213.64 C 149.73 219.03 149.82 224.42 149.62 229.80 C 163.48 230.47 177.40 229.92 191.28 230.13 Z" fill="#043759" opacity="1.00" stroke="#043759" stroke-width="0.25" data-index="6" style="opacity: 1;"></path>

<path d="M 190.53 235.82 C 212.13 219.93 233.90 204.27 255.60 188.52 C 276.48 203.60 297.33 218.71 318.23 233.76 C 322.20 235.84 319.89 240.97 320.38 244.52 C 302.88 231.66 285.09 219.18 267.60 206.30 C 263.57 203.40 259.61 200.41 255.45 197.69 C 233.94 213.55 212.26 229.17 190.70 244.97 C 190.59 241.92 190.58 238.87 190.53 235.82 Z" fill="#9ce7fd" opacity="1.00" stroke="#9ce7fd" stroke-width="0.25" data-index="8" style="opacity: 1;"></path>
<path d="M 255.40 202.82 C 271.98 214.12 287.79 226.52 304.35 237.86 C 304.36 274.50 304.43 311.14 304.35 347.78 C 295.50 347.70 286.65 347.89 277.81 347.65 C 277.86 325.54 277.94 303.42 277.77 281.31 C 273.88 280.54 269.90 280.90 265.97 280.85 C 256.64 280.82 247.31 280.88 237.98 280.80 C 236.11 280.73 234.26 281.02 232.45 281.44 C 232.48 303.55 232.46 325.67 232.45 347.78 C 224.31 347.74 216.17 347.80 208.03 347.76 C 208.21 311.48 208.02 275.21 208.13 238.93 C 207.77 236.95 209.85 236.21 211.08 235.18 C 225.92 224.50 240.67 213.68 255.40 202.82 Z" fill="#fefefe" opacity="1.00" stroke="#fefefe" stroke-width="0.25" data-index="9"></path>
<path d="M 125.97 205.40 C 133.75 205.52 141.53 205.46 149.30 205.47 C 149.31 206.26 149.33 207.84 149.33 208.63 C 141.45 208.81 133.57 208.83 125.68 208.67 C 125.76 207.85 125.90 206.22 125.97 205.40 Z" fill="#a2eaff" opacity="1.00" stroke="#a2eaff" stroke-width="0.25" data-index="10"></path>
<path d="M 129.35 213.27 C 134.73 213.26 140.11 213.30 145.49 213.23 C 145.49 218.88 145.54 224.54 145.52 230.20 C 140.13 230.03 134.73 230.10 129.34 230.16 C 129.22 224.53 129.30 218.90 129.35 213.27 Z" fill="#fdfeff" opacity="1.00" stroke="#fdfeff" stroke-width="0.25" data-index="11"></path>
<path d="M 61.30 234.42 C 103.05 234.28 144.80 234.47 186.54 234.32 C 186.45 239.34 186.45 244.38 186.60 249.40 C 189.24 250.28 191.55 249.05 193.58 247.42 C 193.63 249.42 193.68 251.41 193.72 253.41 C 149.59 253.35 105.45 253.38 61.32 253.40 C 61.28 247.07 61.34 240.75 61.30 234.42 Z" fill="#9fe9ff" opacity="1.00" stroke="#9fe9ff" stroke-width="0.25" data-index="12" style="opacity: 1;"></path>
<path d="M 324.50 234.38 C 363.21 234.38 401.93 234.34 440.64 234.40 C 443.72 240.79 447.34 246.92 450.30 253.37 C 403.06 253.44 355.82 253.31 308.57 253.41 C 308.55 249.26 308.53 245.12 308.64 240.97 C 313.41 243.92 317.41 248.58 323.05 249.80 C 323.40 249.25 324.10 248.15 324.45 247.60 C 324.51 243.19 324.55 238.79 324.50 234.38 Z" fill="#9fe9ff" opacity="1.00" stroke="#9fe9ff" stroke-width="0.25" data-index="13"></path>
<path d="M 198.09 248.45 C 199.98 247.04 201.82 245.55 203.65 244.05 C 203.97 278.62 203.76 313.20 203.76 347.78 C 201.87 347.78 199.99 347.77 198.11 347.76 C 197.79 326.51 198.11 305.27 198.08 284.01 C 197.65 272.16 198.36 260.31 198.09 248.45 Z" fill="#fbffff" opacity="1.00" stroke="#fbffff" stroke-width="0.25" data-index="14" style="opacity: 1;"></path>
<path d="M 233.40 248.12 C 243.56 247.36 253.77 247.96 263.96 247.78 C 268.49 247.84 273.04 247.57 277.54 248.16 C 277.61 256.22 277.68 264.29 277.49 272.35 C 267.36 272.85 257.21 272.45 247.08 272.57 C 242.61 272.43 238.09 272.88 233.65 272.23 C 232.94 264.23 233.41 256.15 233.40 248.12 Z" fill="#043557" opacity="1.00" stroke="#043557" stroke-width="0.25" data-index="15"></path>
<path d="M 237.52 252.37 C 249.47 252.22 261.43 252.24 273.38 252.35 C 273.31 257.65 273.34 262.95 273.31 268.25 C 261.41 268.18 249.50 268.13 237.60 268.26 C 237.51 262.96 237.59 257.67 237.52 252.37 Z" fill="#9feafe" opacity="1.00" stroke="#9feafe" stroke-width="0.25" data-index="16"></path>
<path d="M 77.51 257.35 C 78.71 256.11 80.42 255.98 82.04 256.00 C 103.36 256.15 124.68 256.12 146.00 256.14 C 159.33 255.83 172.66 256.52 185.98 256.10 C 188.53 256.10 191.34 255.68 193.52 257.34 C 154.85 257.55 116.18 257.53 77.51 257.35 Z" fill="#032a49" opacity="1.00" stroke="#032a49" stroke-width="0.25" data-index="17"></path>
<path d="M 77.45 257.35 L 77.51 257.35 C 116.18 257.53 154.85 257.55 193.52 257.34 L 193.70 257.34 C 193.71 287.48 193.72 317.62 193.70 347.76 C 154.94 347.75 116.18 347.86 77.43 347.69 C 77.46 317.58 77.45 287.46 77.45 257.35 Z" fill="#feffff" opacity="1.00" stroke="#feffff" stroke-width="0.25" data-index="18" style="opacity: 1;"></path>
<path d="M 308.57 257.44 C 317.21 257.45 325.86 257.46 334.50 257.45 C 334.48 260.23 334.46 263.00 334.43 265.79 C 332.44 265.76 330.45 265.73 328.47 265.71 C 327.98 287.47 328.43 309.25 328.23 331.02 C 328.29 332.76 328.06 334.60 328.73 336.26 C 330.64 336.50 332.57 336.53 334.49 336.54 C 334.47 340.27 334.48 344.00 334.51 347.73 C 325.84 347.73 317.18 347.82 308.51 347.67 C 308.65 317.59 308.54 287.52 308.57 257.44 Z" fill="#a1eaff" opacity="1.00" stroke="#a1eaff" stroke-width="0.25" data-index="19"></path>
<path d="M 334.50 257.45 C 371.87 257.54 409.24 257.45 446.60 257.48 C 446.66 287.54 446.63 317.60 446.61 347.67 C 409.24 347.89 371.88 347.76 334.51 347.73 C 334.48 344.00 334.47 340.27 334.49 336.54 C 341.93 336.42 349.36 336.66 356.79 336.43 C 357.07 319.93 356.95 303.45 357.11 286.96 C 356.96 279.88 357.52 272.76 356.62 265.71 C 349.22 265.86 341.82 265.85 334.43 265.79 C 334.46 263.00 334.48 260.23 334.50 257.45 Z" fill="#feffff" opacity="1.00" stroke="#feffff" stroke-width="0.25" data-index="20"></path>
<path d="M 100.69 266.35 C 111.60 265.12 122.65 266.24 133.62 265.71 C 134.37 270.76 134.02 275.87 134.08 280.96 C 133.87 299.41 134.21 317.87 133.88 336.31 C 122.85 336.63 111.78 336.75 100.75 336.23 C 100.72 312.93 100.82 289.64 100.69 266.35 Z" fill="#05395c" opacity="1.00" stroke="#05395c" stroke-width="0.25" data-index="21"></path>
<path d="M 150.93 273.99 C 150.88 271.22 151.03 268.45 151.49 265.72 C 161.16 265.91 170.84 265.85 180.51 265.74 C 180.78 268.14 180.87 270.55 180.85 272.97 C 180.78 294.08 180.87 315.19 180.80 336.29 C 170.92 336.61 160.98 336.81 151.12 336.18 C 151.04 315.45 150.98 294.72 150.93 273.99 Z" fill="#06395a" opacity="1.00" stroke="#06395a" stroke-width="0.25" data-index="22" style="opacity: 1;"></path>
<path d="M 328.23 331.02 C 328.43 309.25 327.98 287.47 328.47 265.71 C 330.45 265.73 332.44 265.76 334.43 265.79 C 341.82 265.85 349.22 265.86 356.62 265.71 C 357.52 272.76 356.96 279.88 357.11 286.96 C 356.95 303.45 357.07 319.93 356.79 336.43 C 349.36 336.66 341.93 336.42 334.49 336.54 C 332.57 336.53 330.64 336.50 328.73 336.26 C 328.06 334.60 328.29 332.76 328.23 331.02 Z" fill="#05375b" opacity="1.00" stroke="#05375b" stroke-width="0.25" data-index="23"></path>
<path d="M 372.87 272.94 C 372.81 270.53 373.06 268.13 373.41 265.76 C 389.63 265.89 405.85 265.80 422.07 265.79 C 423.25 265.88 424.42 266.08 425.58 266.38 C 425.49 267.66 425.37 268.95 425.21 270.23 C 423.16 277.65 424.41 285.38 424.09 292.96 C 423.75 306.95 424.28 320.95 424.00 334.94 C 410.35 335.11 396.71 335.14 383.07 334.95 C 380.34 334.88 377.67 335.47 375.12 336.37 C 374.60 336.33 373.56 336.24 373.04 336.20 C 372.71 315.12 373.03 294.03 372.87 272.94 Z" fill="#05395c" opacity="1.00" stroke="#05395c" stroke-width="0.25" data-index="24"></path>
<path d="M 105.31 270.14 C 113.44 270.21 121.58 270.15 129.71 270.14 C 129.71 274.00 129.72 277.86 129.69 281.73 C 121.53 281.71 113.38 281.74 105.23 281.73 C 105.19 277.87 105.19 274.00 105.31 270.14 Z" fill="#feffff" opacity="1.00" stroke="#feffff" stroke-width="0.25" data-index="25"></path>
<path d="M 155.35 270.18 C 162.42 270.11 169.49 270.18 176.57 270.14 C 176.58 274.00 176.58 277.86 176.60 281.72 C 169.51 281.73 162.43 281.74 155.35 281.76 C 155.29 277.90 155.29 274.04 155.35 270.18 Z" fill="#fdffff" opacity="1.00" stroke="#fdffff" stroke-width="0.25" data-index="26" style="opacity: 1;"></path>
<path d="M 332.54 270.15 C 339.24 270.17 345.93 270.15 352.63 270.15 C 352.63 274.00 352.64 277.85 352.64 281.71 C 345.94 281.74 339.25 281.74 332.55 281.73 C 332.56 277.87 332.57 274.01 332.54 270.15 Z" fill="#feffff" opacity="1.00" stroke="#feffff" stroke-width="0.25" data-index="27"></path>
<path d="M 377.38 270.13 C 384.04 270.20 390.69 270.10 397.35 270.20 C 397.22 274.02 397.23 277.84 397.32 281.66 C 390.66 281.81 384.00 281.70 377.35 281.73 C 377.34 277.86 377.34 274.00 377.38 270.13 Z" fill="#fdffff" opacity="1.00" stroke="#fdffff" stroke-width="0.25" data-index="28"></path>
<path d="M 401.43 270.15 C 408.04 270.24 414.66 269.99 421.26 270.34 C 421.07 274.09 421.09 277.85 421.21 281.60 C 414.61 281.86 408.01 281.68 401.41 281.71 C 401.39 277.86 401.40 274.00 401.43 270.15 Z" fill="#fcffff" opacity="1.00" stroke="#fcffff" stroke-width="0.25" data-index="29"></path>
<path d="M 424.09 292.96 C 424.41 285.38 423.16 277.65 425.21 270.23 C 425.61 292.24 425.26 314.28 425.36 336.30 C 408.62 336.67 391.86 336.54 375.12 336.37 C 377.67 335.47 380.34 334.88 383.07 334.95 C 396.71 335.14 410.35 335.11 424.00 334.94 C 424.28 320.95 423.75 306.95 424.09 292.96 Z" fill="#042a47" opacity="1.00" stroke="#042a47" stroke-width="0.25" data-index="30"></path>
<path d="M 236.58 285.37 C 248.94 285.28 261.30 285.41 273.66 285.32 C 273.64 289.46 273.64 293.59 273.66 297.73 C 261.30 297.76 248.94 297.79 236.58 297.68 C 236.62 293.57 236.62 289.47 236.58 285.37 Z" fill="#feffff" opacity="1.00" stroke="#feffff" stroke-width="0.25" data-index="31"></path>
<path d="M 105.23 286.20 C 113.38 286.08 121.53 286.20 129.68 286.15 C 129.72 290.31 129.70 294.47 129.75 298.63 C 121.58 298.71 113.42 298.60 105.26 298.67 C 105.20 294.51 105.18 290.35 105.23 286.20 Z" fill="#fdffff" opacity="1.00" stroke="#fdffff" stroke-width="0.25" data-index="32"></path>
<path d="M 155.33 286.18 C 162.42 286.13 169.50 286.11 176.59 286.23 C 176.58 290.37 176.61 294.51 176.57 298.66 C 169.48 298.64 162.39 298.70 155.30 298.63 C 155.28 294.48 155.27 290.33 155.33 286.18 Z" fill="#fdffff" opacity="1.00" stroke="#fdffff" stroke-width="0.25" data-index="33" style="opacity: 1;"></path>
<path d="M 332.53 286.18 C 339.22 286.14 345.92 286.13 352.61 286.21 C 352.64 290.36 352.66 294.50 352.62 298.66 C 345.91 298.66 339.20 298.68 332.49 298.62 C 332.57 294.47 332.56 290.33 332.53 286.18 Z" fill="#feffff" opacity="1.00" stroke="#feffff" stroke-width="0.25" data-index="34"></path>
<path d="M 377.33 286.19 C 383.99 286.15 390.66 286.06 397.32 286.27 C 397.25 290.38 397.24 294.49 397.33 298.60 C 390.67 298.71 384.00 298.64 377.34 298.64 C 377.32 294.49 377.30 290.34 377.33 286.19 Z" fill="#fdffff" opacity="1.00" stroke="#fdffff" stroke-width="0.25" data-index="35"></path>
<path d="M 401.41 286.22 C 408.00 286.15 414.61 286.01 421.20 286.33 C 421.08 290.41 421.09 294.49 421.23 298.57 C 414.64 298.72 408.05 298.64 401.46 298.63 C 401.40 294.49 401.40 290.35 401.41 286.22 Z" fill="#feffff" opacity="1.00" stroke="#feffff" stroke-width="0.25" data-index="36"></path>
<path d="M 236.51 300.14 C 242.47 300.17 248.43 300.09 254.39 300.27 C 254.32 301.22 254.20 303.13 254.13 304.08 C 253.74 318.13 254.32 332.21 253.86 346.26 C 248.08 346.17 242.31 346.19 236.54 346.24 C 236.46 330.87 236.48 315.50 236.51 300.14 Z" fill="#ddbc52" opacity="1.00" stroke="#ddbc52" stroke-width="0.25" data-index="37"></path>
<path d="M 255.85 300.14 C 261.78 300.19 267.71 300.17 273.65 300.21 C 273.63 315.58 273.65 330.95 273.60 346.32 C 267.74 346.21 261.88 346.30 256.02 346.24 C 256.07 330.88 256.44 315.49 255.85 300.14 Z" fill="#feffff" opacity="1.00" stroke="#feffff" stroke-width="0.25" data-index="38"></path>
<path d="M 238.44 301.41 C 243.21 301.29 247.99 301.32 252.76 301.31 C 253.52 310.17 252.97 319.07 253.14 327.95 C 253.18 333.57 253.35 339.21 252.63 344.80 C 247.86 344.86 243.10 344.82 238.34 344.60 C 238.26 330.20 238.02 315.80 238.44 301.41 Z" fill="#ffba23" opacity="1.00" stroke="#ffba23" stroke-width="0.25" data-index="39"></path>
<path d="M 254.13 304.08 C 254.22 302.61 255.22 301.41 255.85 300.14 C 256.44 315.49 256.07 330.88 256.02 346.24 C 255.48 346.25 254.40 346.26 253.86 346.26 C 254.32 332.21 253.74 318.13 254.13 304.08 Z" fill="#2c3f3e" opacity="1.00" stroke="#2c3f3e" stroke-width="0.25" data-index="40"></path>
<path d="M 105.24 303.12 C 113.39 303.13 121.54 303.07 129.70 303.11 C 129.73 307.01 129.71 310.90 129.75 314.80 C 121.59 314.91 113.43 314.84 105.27 314.90 C 105.20 310.97 105.20 307.04 105.24 303.12 Z" fill="#a0eaff" opacity="1.00" stroke="#a0eaff" stroke-width="0.25" data-index="41"></path>
<path d="M 155.31 303.13 C 162.38 303.13 169.46 303.02 176.53 303.19 C 176.60 307.06 176.60 310.94 176.56 314.82 C 169.47 314.84 162.38 314.94 155.29 314.77 C 155.31 310.89 155.31 307.01 155.31 303.13 Z" fill="#a2eaff" opacity="1.00" stroke="#a2eaff" stroke-width="0.25" data-index="42"></path>
<path d="M 332.48 303.10 C 339.16 303.09 345.84 303.09 352.52 303.10 C 352.65 307.02 352.67 310.94 352.56 314.87 C 345.87 314.89 339.19 314.85 332.50 314.84 C 332.51 310.93 332.52 307.01 332.48 303.10 Z" fill="#a0eafe" opacity="1.00" stroke="#a0eafe" stroke-width="0.25" data-index="43"></path>
<path d="M 377.34 303.12 C 383.99 303.11 390.64 303.04 397.29 303.14 C 397.24 307.01 397.24 310.88 397.39 314.75 C 390.72 314.97 384.04 314.86 377.36 314.87 C 377.32 310.95 377.32 307.03 377.34 303.12 Z" fill="#9eeafe" opacity="1.00" stroke="#9eeafe" stroke-width="0.25" data-index="44"></path>
<path d="M 401.43 303.15 C 408.01 303.10 414.61 302.97 421.19 303.24 C 421.04 307.06 421.28 310.88 421.08 314.69 C 414.54 315.12 407.98 314.75 401.44 314.86 C 401.43 310.95 401.41 307.05 401.43 303.15 Z" fill="#9ee9ff" opacity="1.00" stroke="#9ee9ff" stroke-width="0.25" data-index="45"></path>
<path d="M 265.43 318.92 C 266.32 317.15 267.49 314.66 269.95 315.55 C 272.82 315.68 272.61 319.40 271.89 321.40 C 271.18 321.65 269.76 322.14 269.06 322.38 C 268.49 322.10 267.36 321.55 266.80 321.27 C 266.46 320.68 265.77 319.51 265.43 318.92 Z" fill="#093557" opacity="1.00" stroke="#093557" stroke-width="0.25" data-index="46"></path>
<path d="M 105.23 319.26 C 113.39 319.28 121.54 319.21 129.69 319.28 C 129.75 323.62 129.74 327.97 129.65 332.31 C 121.53 332.13 113.40 332.24 105.28 332.23 C 105.21 327.91 105.20 323.58 105.23 319.26 Z" fill="#9fe9fe" opacity="1.00" stroke="#9fe9fe" stroke-width="0.25" data-index="47"></path>
<path d="M 155.32 319.28 C 162.38 319.26 169.45 319.20 176.51 319.28 C 176.61 323.61 176.62 327.95 176.46 332.28 C 169.43 332.18 162.40 332.22 155.37 332.25 C 155.29 327.93 155.34 323.60 155.32 319.28 Z" fill="#a0e9fe" opacity="1.00" stroke="#a0e9fe" stroke-width="0.25" data-index="48"></path>
<path d="M 332.47 319.26 C 339.16 319.22 345.85 319.26 352.54 319.25 C 352.67 323.59 352.69 327.93 352.56 332.28 C 345.88 332.18 339.21 332.28 332.53 332.22 C 332.50 327.90 332.53 323.58 332.47 319.26 Z" fill="#a0eafd" opacity="1.00" stroke="#a0eafd" stroke-width="0.25" data-index="49"></path>
<path d="M 377.32 319.29 C 383.99 319.28 390.66 319.17 397.33 319.31 C 397.25 323.62 397.27 327.94 397.29 332.25 C 390.66 332.24 384.03 332.21 377.41 332.24 C 377.30 327.92 377.32 323.61 377.32 319.29 Z" fill="#9ee9fe" opacity="1.00" stroke="#9ee9fe" stroke-width="0.25" data-index="50"></path>
<path d="M 401.40 319.31 C 408.00 319.30 414.60 319.09 421.18 319.42 C 421.10 323.72 421.33 328.03 420.83 332.31 C 414.39 332.13 407.94 332.22 401.50 332.32 C 401.42 327.98 401.42 323.65 401.40 319.31 Z" fill="#9fe9ff" opacity="1.00" stroke="#9fe9ff" stroke-width="0.25" data-index="51"></path>
<path d="M 66.60 335.67 C 68.52 333.67 70.19 331.22 73.18 330.83 C 73.15 336.41 73.10 342.00 73.25 347.58 C 63.64 347.91 54.03 347.74 44.42 347.66 C 44.67 345.94 44.08 343.82 45.63 342.56 C 48.12 341.50 50.58 343.31 53.04 343.58 C 55.70 341.48 55.36 337.17 58.50 335.45 C 60.99 333.44 63.89 335.52 66.60 335.67 Z" fill="#a1e9fe" opacity="1.00" stroke="#a1e9fe" stroke-width="0.25" data-index="52"></path>
<path d="M 450.89 335.84 C 452.60 336.32 453.97 337.41 455.24 338.63 C 456.90 340.27 459.74 339.83 461.29 341.65 C 463.05 343.13 462.39 345.61 462.68 347.63 C 458.69 347.75 454.71 347.77 450.73 347.72 C 450.79 343.76 450.79 339.80 450.89 335.84 Z" fill="#9de4fd" opacity="1.00" stroke="#9de4fd" stroke-width="0.25" data-index="53"></path>
</svg>