<?xml version="1.0" encoding="utf-8"?>
<svg xmlns="http://www.w3.org/2000/svg" height="512pt" version="1.1" viewBox="0 0 512 512" width="512pt">
<path d="M 0.00 0.00 L 512.00 0.00 L 512.00 512.00 L 0.00 512.00 L 0.00 0.00 Z" fill="transparent" opacity="1.00" stroke="transparent" stroke-width="0.25"/>
<path d="M 265.26 76.26 C 269.57 75.46 273.66 73.60 278.08 73.41 C 273.11 92.52 271.77 112.30 267.83 131.61 C 262.87 159.30 256.40 186.71 248.86 213.81 C 242.47 239.13 235.14 264.21 229.50 289.71 C 227.28 299.88 225.53 310.30 226.57 320.73 C 227.13 328.50 230.26 335.73 233.18 342.84 C 237.53 353.34 242.65 363.56 248.97 373.02 C 251.79 377.40 254.93 381.76 259.39 384.59 C 265.82 388.88 273.66 389.82 281.07 391.25 C 281.35 394.50 280.94 397.75 279.85 400.84 C 277.16 398.28 275.07 394.95 271.56 393.41 C 266.18 390.83 261.17 387.31 255.29 385.96 C 256.08 387.34 256.84 388.85 258.23 389.75 C 262.78 392.99 267.79 395.52 272.47 398.56 C 274.31 399.65 273.88 402.05 273.94 403.85 C 271.98 404.07 271.19 402.06 270.01 400.91 C 267.82 397.99 264.04 397.35 260.94 395.86 C 256.09 393.84 253.11 388.81 247.87 387.57 C 251.11 394.74 258.75 398.38 265.57 401.39 C 268.25 402.26 268.31 405.38 269.04 407.65 C 267.61 407.66 266.20 407.68 264.78 407.69 C 263.22 402.00 257.87 398.59 252.57 396.87 C 254.09 401.05 258.80 402.82 260.34 406.94 C 259.73 407.88 258.65 410.49 257.26 409.00 C 253.07 405.51 249.90 400.95 245.71 397.45 C 245.42 397.82 244.84 398.56 244.55 398.93 C 247.36 403.61 252.21 407.38 252.41 413.27 C 249.66 413.10 245.98 413.49 244.39 410.69 C 242.88 407.36 243.40 403.13 240.46 400.52 C 240.15 403.09 240.00 405.68 239.86 408.27 C 233.71 407.46 229.28 402.94 225.95 398.07 C 219.20 388.33 211.35 379.33 202.27 371.70 C 194.72 365.25 184.45 362.76 177.53 355.48 C 170.92 348.49 170.38 337.17 175.01 328.99 C 178.86 321.94 184.24 315.80 187.52 308.41 C 191.46 299.80 192.75 290.29 193.99 280.98 C 196.23 262.36 197.92 243.67 198.81 224.94 C 199.32 212.16 202.18 199.29 199.64 186.55 C 196.24 169.69 191.91 152.52 194.04 135.20 C 195.86 124.12 200.67 113.78 205.90 103.93 C 209.36 97.23 214.15 91.33 217.62 84.63 C 218.51 83.08 218.90 81.29 218.54 79.52 L 218.46 78.81 C 234.07 80.24 249.87 79.18 265.26 76.26 Z" fill="#a3ecff" opacity="1.00" stroke="#a3ecff" stroke-width="0.25"/>
<path d="M 278.08 73.41 C 278.52 73.27 279.39 72.98 279.83 72.84 C 279.65 78.38 278.39 83.79 277.65 89.26 C 275.21 107.53 273.22 125.87 269.92 144.02 C 261.25 192.68 247.39 240.17 235.07 287.98 C 232.37 299.40 229.13 311.01 230.20 322.86 C 230.88 332.16 234.84 340.77 238.94 349.00 C 242.58 356.51 246.88 363.68 251.18 370.82 C 253.64 374.62 255.72 378.92 259.59 381.51 C 264.77 385.01 270.84 386.99 276.99 387.90 C 279.56 388.57 283.42 388.75 284.00 391.99 C 284.56 395.96 284.46 401.25 280.38 403.37 C 277.48 404.95 276.08 408.80 272.28 408.48 C 271.10 409.93 270.09 411.96 268.04 412.27 C 266.35 412.33 264.68 412.14 263.00 412.03 C 260.91 413.32 258.51 413.71 256.10 413.88 C 253.81 415.00 251.79 417.00 249.07 416.92 C 245.61 417.22 242.69 415.09 240.54 412.61 C 233.77 412.39 228.15 407.91 224.34 402.64 C 213.91 389.55 202.91 376.00 187.63 368.38 C 182.42 365.90 177.67 362.46 173.76 358.21 C 168.44 352.29 166.19 343.74 167.94 335.97 C 169.91 328.74 174.75 322.85 178.72 316.65 C 184.20 308.83 186.70 299.39 188.29 290.10 C 192.07 264.88 193.17 239.38 194.86 213.97 C 195.94 203.89 196.22 193.60 194.10 183.64 C 190.87 168.43 187.44 152.81 189.43 137.21 C 192.72 119.27 202.49 103.43 212.68 88.62 C 214.82 85.71 216.29 82.36 218.54 79.52 C 218.90 81.29 218.51 83.08 217.62 84.63 C 214.15 91.33 209.36 97.23 205.90 103.93 C 200.67 113.78 195.86 124.12 194.04 135.20 C 191.91 152.52 196.24 169.69 199.64 186.55 C 202.18 199.29 199.32 212.16 198.81 224.94 C 197.92 243.67 196.23 262.36 193.99 280.98 C 192.75 290.29 191.46 299.80 187.52 308.41 C 184.24 315.80 178.86 321.94 175.01 328.99 C 170.38 337.17 170.92 348.49 177.53 355.48 C 184.45 362.76 194.72 365.25 202.27 371.70 C 211.35 379.33 219.20 388.33 225.95 398.07 C 229.28 402.94 233.71 407.46 239.86 408.27 C 240.00 405.68 240.15 403.09 240.46 400.52 C 243.40 403.13 242.88 407.36 244.39 410.69 C 245.98 413.49 249.66 413.10 252.41 413.27 C 252.21 407.38 247.36 403.61 244.55 398.93 C 244.84 398.56 245.42 397.82 245.71 397.45 C 249.90 400.95 253.07 405.51 257.26 409.00 C 258.65 410.49 259.73 407.88 260.34 406.94 C 258.80 402.82 254.09 401.05 252.57 396.87 C 257.87 398.59 263.22 402.00 264.78 407.69 C 266.20 407.68 267.61 407.66 269.04 407.65 C 268.31 405.38 268.25 402.26 265.57 401.39 C 258.75 398.38 251.11 394.74 247.87 387.57 C 253.11 388.81 256.09 393.84 260.94 395.86 C 264.04 397.35 267.82 397.99 270.01 400.91 C 271.19 402.06 271.98 404.07 273.94 403.85 C 273.88 402.05 274.31 399.65 272.47 398.56 C 267.79 395.52 262.78 392.99 258.23 389.75 C 256.84 388.85 256.08 387.34 255.29 385.96 C 261.17 387.31 266.18 390.83 271.56 393.41 C 275.07 394.95 277.16 398.28 279.85 400.84 C 280.94 397.75 281.35 394.50 281.07 391.25 C 273.66 389.82 265.82 388.88 259.39 384.59 C 254.93 381.76 251.79 377.40 248.97 373.02 C 242.65 363.56 237.53 353.34 233.18 342.84 C 230.26 335.73 227.13 328.50 226.57 320.73 C 225.53 310.30 227.28 299.88 229.50 289.71 C 235.14 264.21 242.47 239.13 248.86 213.81 C 256.40 186.71 262.87 159.30 267.83 131.61 C 271.77 112.30 273.11 92.52 278.08 73.41 Z" fill="#0e4463" opacity="1.00" stroke="#0e4463" stroke-width="0.25"/>
<path d="M 225.39 90.34 C 226.31 89.22 227.67 88.62 228.91 87.93 C 228.73 91.91 225.63 94.62 223.67 97.80 C 214.34 112.17 206.60 128.51 206.92 146.02 C 207.36 152.48 207.51 159.30 210.92 165.04 C 212.35 168.63 216.36 171.53 215.35 175.76 C 214.23 175.50 213.11 175.25 211.99 175.00 C 212.51 182.01 213.95 188.98 213.64 196.04 C 212.42 214.85 210.33 233.62 206.66 252.11 C 204.82 251.54 203.79 250.04 204.35 248.12 C 207.62 226.66 211.70 204.96 209.81 183.17 C 208.24 173.95 206.70 164.71 204.58 155.60 C 203.81 146.41 203.49 136.95 206.08 127.99 C 209.90 114.32 216.38 101.34 225.39 90.34 Z" fill="#ffffff" opacity="1.00" stroke="#ffffff" stroke-width="0.25"/>
<path d="M 192.09 304.09 C 192.29 302.19 194.36 302.44 195.74 302.03 C 195.60 307.42 193.83 312.61 193.74 318.00 C 193.42 323.62 195.04 329.10 195.00 334.71 C 194.29 334.71 192.87 334.70 192.16 334.70 C 187.94 325.06 189.24 313.91 192.09 304.09 Z" fill="#0e4463" opacity="1.00" stroke="#0e4463" stroke-width="0.25"/>
<path d="M 216.14 361.86 C 218.29 362.91 220.10 364.54 221.30 366.63 C 225.99 374.02 230.01 381.95 232.45 390.37 C 233.24 391.74 231.83 393.11 230.43 392.59 C 227.39 386.57 225.32 380.07 221.84 374.26 C 219.72 370.23 215.80 366.79 216.14 361.86 Z" fill="#ffffff" opacity="1.00" stroke="#ffffff" stroke-width="0.25"/>
<path d="M 224.35 432.36 C 237.21 431.55 250.12 431.83 263.00 431.88 C 268.57 432.07 274.30 431.75 279.69 433.42 C 281.28 434.74 278.62 435.45 277.65 435.61 C 264.21 437.67 250.53 436.92 236.98 436.94 C 230.70 436.33 224.18 436.84 218.11 434.92 C 217.75 431.84 222.34 433.08 224.35 432.36 Z" fill="#d6e1e8" opacity="1.00" stroke="#d6e1e8" stroke-width="0.25"/>
</svg>