<?xml version="1.0" encoding="utf-8"?>
<svg xmlns="http://www.w3.org/2000/svg" height="512pt" version="1.1" viewBox="0 0 512 512" width="512pt">
<path d="M 0.00 0.00 L 512.00 0.00 L 512.00 512.00 L 0.00 512.00 L 0.00 0.00 Z" fill="transparent" opacity="1.00" stroke="transparent" stroke-width="0.25"/>
<path d="M 411.55 65.53 C 416.25 62.02 422.56 61.50 428.16 62.65 C 434.47 64.14 439.57 68.72 443.10 74.00 C 446.51 78.87 447.13 85.22 446.21 90.97 C 445.39 95.76 441.34 98.84 438.54 102.50 C 432.18 109.18 427.29 117.11 420.68 123.55 C 410.27 135.21 398.85 145.91 388.33 157.46 C 368.78 177.21 349.77 197.50 330.16 217.20 C 315.80 232.43 300.72 246.97 286.37 262.22 C 240.28 309.19 194.67 356.64 148.57 403.60 C 126.41 415.52 104.92 428.72 83.17 441.37 C 77.87 444.47 72.76 447.97 67.10 450.38 C 66.48 449.99 65.86 449.61 65.25 449.24 C 64.98 447.25 65.69 445.37 66.66 443.68 C 80.72 418.39 94.98 393.22 109.43 368.15 C 111.11 365.35 113.72 363.32 115.97 361.02 C 146.44 330.48 176.48 299.51 206.95 268.96 C 247.82 226.82 289.79 185.74 330.55 143.51 C 343.14 130.78 355.69 118.01 368.09 105.10 C 376.34 96.71 384.34 88.07 393.06 80.16 C 399.18 75.23 405.25 70.24 411.55 65.53 Z" fill="#07385c" opacity="1.00" stroke="#07385c" stroke-width="0.25"/>
<path d="M 414.56 67.51 C 419.79 64.67 426.42 64.91 431.70 67.56 C 437.51 71.24 442.42 76.96 443.21 84.03 C 443.37 86.37 443.44 88.78 442.65 91.03 C 441.43 95.51 437.33 98.20 434.56 101.67 C 432.44 104.40 429.97 106.85 428.05 109.73 C 423.67 109.50 422.47 103.58 418.10 102.78 C 418.59 102.64 419.57 102.36 420.07 102.22 C 416.76 101.46 415.05 98.32 412.59 96.30 C 408.88 93.02 405.59 89.30 401.88 86.02 C 400.27 84.61 398.73 83.07 397.83 81.09 C 402.95 76.04 408.71 71.67 414.56 67.51 Z" fill="#f56c42" opacity="1.00" stroke="#f56c42" stroke-width="0.25"/>
<path d="M 389.44 88.49 C 391.05 86.98 392.60 85.39 394.02 83.69 C 404.54 93.46 414.47 103.84 424.38 114.22 C 422.86 115.51 422.11 119.20 419.72 118.45 C 409.13 108.98 399.48 98.54 389.44 88.49 Z" fill="#b7effe" opacity="1.00" stroke="#b7effe" stroke-width="0.25"/>
<path d="M 382.88 95.37 C 384.12 93.82 385.50 92.39 386.97 91.04 C 397.24 101.33 407.60 111.55 417.73 121.97 C 416.44 123.17 415.17 124.40 413.93 125.66 C 403.26 115.89 393.66 105.02 382.88 95.37 Z" fill="#b7effe" opacity="1.00" stroke="#b7effe" stroke-width="0.25"/>
<path d="M 374.50 103.46 C 376.40 101.46 378.24 99.41 380.08 97.36 C 385.07 102.28 390.16 107.11 395.12 112.07 C 376.37 132.98 357.29 153.62 337.83 173.89 C 324.08 188.46 309.21 201.92 295.16 216.20 C 279.63 231.01 265.18 246.90 249.90 261.95 C 235.62 276.67 221.71 291.75 207.21 306.24 C 190.91 322.30 174.02 337.83 159.33 355.41 C 153.92 361.31 148.24 366.97 142.94 372.98 C 140.21 375.82 137.09 378.43 135.28 382.00 C 137.24 385.33 139.10 381.00 140.60 379.59 C 149.92 370.24 159.31 360.91 167.77 350.75 C 180.74 336.09 195.27 322.91 209.05 309.02 C 227.06 291.34 243.83 272.45 261.81 254.73 C 279.13 236.43 297.18 218.85 315.05 201.08 C 325.12 191.78 334.95 182.22 344.11 172.00 C 354.21 162.12 363.57 151.53 373.21 141.22 C 380.77 132.59 389.03 124.51 395.96 115.38 C 396.46 115.32 397.45 115.21 397.95 115.15 C 402.64 119.40 406.92 124.11 411.69 128.28 C 337.71 204.71 263.21 280.67 189.17 357.08 C 177.79 368.73 166.55 380.52 155.01 392.01 C 153.66 393.29 152.50 394.75 151.38 396.25 C 145.13 396.34 138.87 396.35 132.62 396.63 C 132.77 392.07 133.32 387.53 133.35 382.97 C 132.39 382.02 131.26 381.65 129.97 381.87 C 126.77 382.23 123.56 382.54 120.34 382.77 C 119.98 376.16 119.60 369.54 119.58 362.92 C 120.66 360.21 123.50 358.63 125.38 356.46 C 157.26 323.63 189.66 291.31 221.78 258.72 C 252.87 226.83 284.70 195.67 315.65 163.65 C 335.46 143.78 354.73 123.37 374.50 103.46 Z" fill="#b7effe" opacity="1.00" stroke="#b7effe" stroke-width="0.25"/>
<path d="M 111.19 371.21 C 112.41 369.13 114.35 367.67 116.24 366.24 C 116.84 372.67 116.76 379.14 117.38 385.57 C 121.45 386.63 125.74 385.04 129.91 385.34 C 129.80 390.14 129.47 394.94 129.47 399.76 C 135.34 400.01 141.21 399.31 147.07 399.76 C 142.30 403.69 136.64 406.28 131.38 409.48 C 120.73 415.89 109.62 421.54 99.25 428.43 C 98.92 428.42 98.24 428.40 97.90 428.39 C 94.01 424.07 90.11 419.75 86.09 415.56 C 89.36 408.05 94.33 401.39 98.10 394.12 C 102.33 386.40 106.92 378.90 111.19 371.21 Z" fill="#fecba6" opacity="1.00" stroke="#fecba6" stroke-width="0.25"/>
</svg>