<?xml version="1.0" encoding="utf-8"?>
<svg xmlns="http://www.w3.org/2000/svg" height="512pt" version="1.1" viewBox="0 0 512 512" width="512pt">
<path d="M 0.00 0.00 L 512.00 0.00 L 512.00 512.00 L 0.00 512.00 L 0.00 0.00 Z" fill="transparent" opacity="1.00" stroke="transparent" stroke-width="0.25"/>
<path d="M 292.35 142.50 C 304.25 142.06 316.12 143.49 327.83 145.49 C 350.32 149.83 372.58 155.64 394.04 163.69 C 404.09 167.58 414.40 171.36 423.14 177.83 C 427.04 180.93 430.99 183.98 434.51 187.51 C 439.46 192.25 445.06 196.98 447.29 203.70 C 448.99 208.27 448.55 213.22 449.04 217.99 C 449.72 238.34 450.17 258.70 451.25 279.03 C 451.57 284.23 448.48 288.71 445.98 292.99 C 438.83 303.86 427.11 310.11 416.12 316.38 C 405.30 322.71 394.03 328.25 383.15 334.48 C 376.07 338.30 369.26 342.66 361.86 345.86 C 352.86 350.07 343.39 353.13 333.95 356.17 C 321.89 359.93 309.35 361.80 296.96 364.15 C 286.02 365.98 275.09 368.08 264.03 369.08 C 248.70 369.65 233.29 369.26 218.10 366.93 C 199.85 364.20 182.02 359.27 164.41 353.84 C 149.66 349.33 134.84 344.96 120.43 339.43 C 111.62 336.06 103.50 331.19 95.09 326.98 C 86.60 322.31 77.69 318.08 70.43 311.53 C 67.45 308.89 66.95 304.70 67.21 300.95 C 69.14 278.56 66.51 256.11 63.51 233.93 C 62.93 228.28 60.50 222.62 61.82 216.92 C 64.93 209.04 70.83 202.30 78.22 198.16 C 87.75 192.20 98.68 189.16 109.41 186.13 C 131.25 180.03 153.43 174.57 176.15 173.16 C 183.49 172.16 191.47 173.73 198.21 169.94 C 227.35 154.78 259.29 143.73 292.35 142.50 Z" fill="#063a5f" opacity="1.00" stroke="#063a5f" stroke-width="0.25"/>
<path d="M 235.18 163.20 C 259.96 154.26 286.68 149.00 313.04 152.34 L 312.09 152.85 C 308.20 154.66 303.68 154.18 299.70 155.82 C 290.76 157.07 281.41 157.26 273.12 161.23 C 264.02 165.17 256.73 172.05 249.15 178.24 C 243.09 183.17 238.22 189.82 230.93 193.07 C 215.14 199.12 197.32 200.73 181.05 195.60 C 175.34 193.99 170.08 190.50 163.98 190.65 C 155.13 190.68 146.45 192.88 138.03 195.43 C 132.33 197.08 127.67 200.87 122.55 203.69 C 116.76 206.90 110.94 210.07 105.05 213.10 C 101.43 215.13 97.33 217.60 96.20 221.88 C 95.59 229.15 100.26 235.96 106.32 239.60 C 114.56 244.37 123.56 247.61 132.57 250.60 C 142.72 253.98 153.05 256.80 163.51 259.05 C 171.42 260.70 179.45 262.04 187.01 264.96 C 197.20 268.85 207.23 273.29 217.89 275.78 C 236.54 280.26 255.83 283.30 275.05 281.65 C 285.75 281.08 296.15 278.29 306.72 276.76 C 330.67 272.54 355.21 269.09 377.45 258.71 C 386.25 254.92 394.00 249.22 401.98 244.01 C 409.64 238.92 417.38 232.94 421.06 224.21 C 422.52 219.59 422.95 214.35 420.92 209.84 C 416.30 199.86 408.55 191.70 400.11 184.83 C 388.43 176.82 375.13 171.65 362.06 166.39 C 364.67 165.75 367.35 165.25 370.06 165.34 C 373.14 165.58 376.02 166.89 378.94 167.82 C 389.50 171.35 399.98 175.18 410.03 180.00 C 418.24 184.01 424.81 190.49 431.53 196.53 C 434.53 199.13 437.03 202.77 436.33 206.95 C 435.25 215.86 432.25 224.73 426.99 232.06 C 420.03 239.79 411.95 246.69 402.62 251.39 C 390.59 257.67 378.30 263.47 365.76 268.66 C 347.39 276.09 328.04 280.60 308.72 284.76 C 298.16 286.94 287.55 288.99 276.82 290.11 C 248.08 292.26 219.31 288.53 191.09 283.32 C 180.07 281.32 169.13 278.82 158.46 275.38 C 137.99 268.52 118.28 259.62 97.92 252.44 C 93.36 250.94 89.01 248.70 85.46 245.45 C 80.46 240.89 74.94 236.36 72.45 229.86 C 70.82 225.79 68.98 220.95 71.49 216.83 C 77.40 206.47 89.00 201.32 99.94 198.04 C 124.53 190.94 149.38 183.72 175.07 182.19 C 183.27 181.16 191.91 182.14 199.67 178.80 C 211.31 173.16 222.97 167.53 235.18 163.20 Z" fill="#ffcdc3" opacity="1.00" stroke="#ffcdc3" stroke-width="0.25"/>
<path d="M 312.09 152.85 L 313.10 152.36 C 323.73 153.30 334.11 155.85 344.50 158.18 C 353.34 160.45 362.26 162.43 370.92 165.34 L 370.06 165.34 C 367.35 165.25 364.67 165.75 362.06 166.39 C 348.75 161.87 335.19 157.72 321.15 156.34 C 314.03 155.60 306.85 155.59 299.70 155.82 C 303.68 154.18 308.20 154.66 312.09 152.85 Z" fill="#ffd4dc" opacity="1.00" stroke="#ffd4dc" stroke-width="0.25"/>
<path d="M 299.70 155.82 C 306.85 155.59 314.03 155.60 321.15 156.34 C 335.19 157.72 348.75 161.87 362.06 166.39 C 375.13 171.65 388.43 176.82 400.11 184.83 C 408.55 191.70 416.30 199.86 420.92 209.84 C 422.95 214.35 422.52 219.59 421.06 224.21 C 417.38 232.94 409.64 238.92 401.98 244.01 C 394.00 249.22 386.25 254.92 377.45 258.71 C 355.21 269.09 330.67 272.54 306.72 276.76 C 296.15 278.29 285.75 281.08 275.05 281.65 C 255.83 283.30 236.54 280.26 217.89 275.78 C 207.23 273.29 197.20 268.85 187.01 264.96 C 179.45 262.04 171.42 260.70 163.51 259.05 C 153.05 256.80 142.72 253.98 132.57 250.60 C 123.56 247.61 114.56 244.37 106.32 239.60 C 100.26 235.96 95.59 229.15 96.20 221.88 C 97.33 217.60 101.43 215.13 105.05 213.10 C 110.94 210.07 116.76 206.90 122.55 203.69 C 127.67 200.87 132.33 197.08 138.03 195.43 C 146.45 192.88 155.13 190.68 163.98 190.65 C 170.08 190.50 175.34 193.99 181.05 195.60 C 197.32 200.73 215.14 199.12 230.93 193.07 C 238.22 189.82 243.09 183.17 249.15 178.24 C 256.73 172.05 264.02 165.17 273.12 161.23 C 281.41 157.26 290.76 157.07 299.70 155.82 Z" fill="#063d5a" opacity="1.00" stroke="#063d5a" stroke-width="0.25"/>
<path d="M 285.04 162.65 C 297.56 160.69 310.38 159.79 322.98 161.53 C 337.46 163.61 351.59 167.70 365.26 172.85 C 376.49 177.56 387.87 182.26 397.96 189.17 C 405.47 196.11 413.63 203.20 417.24 213.08 C 419.37 220.88 414.28 228.06 408.70 232.93 C 403.51 237.07 398.01 240.79 392.53 244.54 C 374.47 256.73 353.34 263.50 331.99 267.12 C 314.04 270.38 296.14 274.08 278.04 276.36 C 257.34 278.35 236.49 275.35 216.42 270.34 C 206.58 267.92 197.42 263.51 187.95 260.01 C 176.32 255.76 163.92 254.50 152.00 251.30 C 139.75 247.88 127.54 244.19 115.87 239.11 C 110.70 236.74 105.02 234.02 102.46 228.61 C 100.97 226.33 101.36 223.54 101.42 220.98 C 107.65 216.79 114.69 214.08 121.06 210.13 C 126.93 207.10 132.37 203.24 138.42 200.59 C 146.41 198.19 154.59 195.92 162.96 195.46 C 169.08 195.01 174.15 199.06 179.88 200.43 C 193.02 204.64 207.23 204.58 220.56 201.30 C 227.42 199.66 234.68 198.00 240.04 193.09 C 251.45 184.41 260.57 172.58 273.84 166.50 C 277.37 164.70 281.08 163.16 285.04 162.65 Z" fill="#e63b33" opacity="1.00" stroke="#e63b33" stroke-width="0.25"/>
<path d="M 292.28 173.56 C 296.77 170.13 302.52 171.50 307.73 171.39 C 307.74 171.86 307.77 172.80 307.79 173.26 C 303.71 173.43 299.56 172.77 295.56 173.77 C 294.52 174.35 293.51 174.96 292.50 175.59 C 292.45 175.08 292.33 174.07 292.28 173.56 Z" fill="#064334" opacity="1.00" stroke="#064334" stroke-width="0.25"/>
<path d="M 295.56 173.77 C 299.56 172.77 303.71 173.43 307.79 173.26 L 307.49 174.30 C 303.52 174.04 299.53 174.13 295.56 173.77 Z" fill="#ffffff" opacity="1.00" stroke="#ffffff" stroke-width="0.25"/>
<path d="M 292.50 175.59 C 293.51 174.96 294.52 174.35 295.56 173.77 C 299.53 174.13 303.52 174.04 307.49 174.30 L 308.50 174.37 C 305.10 175.62 301.51 174.55 298.05 175.18 C 296.21 175.46 294.36 175.60 292.50 175.59 Z" fill="#ffe9e7" opacity="1.00" stroke="#ffe9e7" stroke-width="0.25"/>
<path d="M 288.75 184.78 C 296.05 181.63 306.22 180.48 311.89 187.26 C 313.97 190.45 315.80 194.05 315.83 197.95 C 315.83 201.64 315.61 205.34 315.74 209.04 C 315.73 209.62 315.69 210.79 315.67 211.37 C 311.10 205.82 316.07 197.60 312.16 191.69 C 310.59 189.13 308.99 186.12 305.88 185.24 C 300.37 183.48 294.44 184.65 289.08 186.40 C 288.96 186.44 288.73 186.51 288.61 186.55 C 288.64 186.10 288.71 185.22 288.75 184.78 Z" fill="#064334" opacity="1.00" stroke="#064334" stroke-width="0.25"/>
<path d="M 289.08 186.40 C 294.44 184.65 300.37 183.48 305.88 185.24 C 308.99 186.12 310.59 189.13 312.16 191.69 C 309.01 188.34 304.71 185.81 299.96 186.23 C 296.31 185.76 292.59 187.98 289.08 186.40 Z" fill="#ffe9e7" opacity="1.00" stroke="#ffe9e7" stroke-width="0.25"/>
<path d="M 257.44 186.64 C 259.15 186.39 260.90 186.56 262.64 186.60 C 262.33 187.81 262.37 189.76 260.64 188.86 C 259.98 188.74 258.65 188.48 257.98 188.35 C 252.07 195.33 245.93 202.21 241.21 210.07 L 240.30 211.24 C 239.39 207.05 242.72 204.03 244.98 201.00 C 249.15 196.23 252.38 190.57 257.44 186.64 Z" fill="#064334" opacity="1.00" stroke="#064334" stroke-width="0.25"/>
<path d="M 311.89 187.26 C 313.64 188.83 315.18 190.67 316.12 192.85 C 318.83 198.18 316.97 204.29 317.45 209.98 L 315.74 209.04 C 315.61 205.34 315.83 201.64 315.83 197.95 C 315.80 194.05 313.97 190.45 311.89 187.26 Z" fill="#ffe9e7" opacity="1.00" stroke="#ffe9e7" stroke-width="0.25"/>
<path d="M 241.21 210.07 C 245.93 202.21 252.07 195.33 257.98 188.35 C 258.65 188.48 259.98 188.74 260.64 188.86 C 256.13 192.01 253.20 196.67 249.91 200.94 C 246.66 204.26 244.61 208.48 241.78 212.12 L 241.21 210.07 Z" fill="#ffe9e7" opacity="1.00" stroke="#ffe9e7" stroke-width="0.25"/>
<path d="M 264.92 200.67 C 267.82 200.18 270.97 197.84 273.80 199.45 C 269.62 201.85 264.63 202.08 260.45 204.44 C 255.46 207.18 253.44 213.34 248.17 215.69 C 248.50 212.65 251.67 211.05 253.04 208.50 C 256.34 205.02 260.09 201.71 264.92 200.67 Z" fill="#064334" opacity="1.00" stroke="#064334" stroke-width="0.25"/>
<path d="M 273.80 199.45 C 274.10 199.40 274.71 199.32 275.01 199.27 C 271.94 204.49 264.93 203.14 260.53 206.50 C 256.12 210.01 253.24 215.27 248.08 217.88 C 245.08 213.73 250.17 210.65 253.04 208.50 C 251.67 211.05 248.50 212.65 248.17 215.69 C 253.44 213.34 255.46 207.18 260.45 204.44 C 264.63 202.08 269.62 201.85 273.80 199.45 Z" fill="#ffede9" opacity="1.00" stroke="#ffede9" stroke-width="0.25"/>
<path d="M 359.52 201.34 C 364.21 199.75 369.29 200.08 374.09 200.97 C 379.38 201.93 383.48 205.66 387.89 208.44 C 389.90 209.63 389.74 211.96 388.80 213.85 C 388.50 214.11 387.91 214.61 387.61 214.87 C 387.56 213.87 387.46 211.87 387.42 210.87 L 386.43 210.13 C 382.20 207.02 377.96 203.36 372.53 202.75 C 365.32 201.24 357.97 203.27 351.53 206.50 C 349.94 207.26 348.59 208.43 347.74 209.99 L 349.08 210.35 L 349.93 210.58 L 348.84 210.42 L 347.96 210.29 C 346.60 212.85 345.21 215.39 343.90 217.98 C 342.44 220.76 342.84 224.26 340.85 226.81 C 339.31 228.68 337.26 230.13 335.07 231.15 C 334.22 230.95 333.98 230.38 334.34 229.47 C 336.26 228.10 338.56 227.02 339.82 224.94 C 340.81 222.14 340.72 218.95 342.47 216.42 C 344.42 213.53 345.43 210.17 346.94 207.06 C 350.46 203.97 355.17 202.79 359.52 201.34 Z" fill="#064334" opacity="1.00" stroke="#064334" stroke-width="0.25"/>
<path d="M 351.53 206.50 C 357.97 203.27 365.32 201.24 372.53 202.75 C 377.96 203.36 382.20 207.02 386.43 210.13 C 386.56 210.61 386.84 211.57 386.98 212.06 C 382.28 209.17 378.10 204.97 372.35 204.33 C 366.35 202.50 360.39 205.01 354.72 206.75 C 352.55 207.44 350.88 209.04 349.08 210.35 L 347.74 209.99 C 348.59 208.43 349.94 207.26 351.53 206.50 Z" fill="#ffffff" opacity="1.00" stroke="#ffffff" stroke-width="0.25"/>
<path d="M 387.89 208.44 C 390.99 207.15 390.62 211.33 390.77 213.05 C 391.06 218.53 386.77 222.57 383.13 226.05 C 375.41 233.59 364.98 237.25 355.02 240.80 C 347.02 243.81 337.36 243.43 330.95 249.80 C 330.69 249.45 330.17 248.77 329.91 248.42 C 337.00 241.94 347.07 241.97 355.69 238.85 C 368.23 234.28 382.00 228.78 388.81 216.47 L 388.39 215.90 C 388.50 215.39 388.70 214.37 388.80 213.85 C 389.74 211.96 389.90 209.63 387.89 208.44 Z" fill="#ffffff" opacity="1.00" stroke="#ffffff" stroke-width="0.25"/>
<path d="M 347.96 210.29 L 348.84 210.42 C 349.14 213.33 347.10 215.61 345.81 218.01 C 344.17 220.48 344.29 223.57 343.27 226.28 C 341.29 230.08 336.82 233.08 332.50 231.22 C 333.24 230.78 333.88 230.21 334.34 229.47 C 333.98 230.38 334.22 230.95 335.07 231.15 C 337.26 230.13 339.31 228.68 340.85 226.81 C 342.84 224.26 342.44 220.76 343.90 217.98 C 345.21 215.39 346.60 212.85 347.96 210.29 Z" fill="#ffe9e7" opacity="1.00" stroke="#ffe9e7" stroke-width="0.25"/>
<path d="M 147.93 219.66 C 152.19 218.26 155.25 213.93 160.01 214.08 C 162.60 214.00 165.12 214.82 167.49 215.77 C 169.96 218.53 169.82 222.46 171.35 225.68 C 172.50 228.52 175.14 230.31 177.49 232.11 C 180.16 233.70 183.22 234.40 186.26 234.94 C 186.27 235.60 186.29 236.92 186.30 237.58 C 189.22 237.83 192.59 237.83 194.82 240.04 C 198.44 243.46 201.26 247.88 205.78 250.24 C 211.39 252.85 217.42 254.31 223.40 255.76 L 221.76 257.27 C 215.18 256.37 208.71 254.32 202.88 251.12 C 198.38 248.65 195.87 243.92 191.87 240.86 C 188.69 239.63 185.11 240.44 181.78 240.27 C 182.37 239.32 182.99 238.40 183.65 237.50 L 184.26 236.76 C 180.32 235.76 176.22 234.71 173.01 232.10 C 170.48 230.10 169.83 226.78 168.32 224.09 L 168.12 223.35 C 167.80 221.88 167.54 220.41 167.31 218.93 C 164.73 217.11 161.51 215.08 158.25 216.31 C 154.93 217.77 152.26 220.39 148.85 221.69 C 144.50 223.52 139.74 223.71 135.11 224.13 C 134.79 224.37 134.14 224.85 133.82 225.09 L 133.46 225.36 C 132.99 225.32 132.07 225.22 131.61 225.17 C 131.70 224.09 131.25 222.86 131.84 221.88 C 137.24 221.50 142.87 222.04 147.93 219.66 Z" fill="#2f3845" opacity="1.00" stroke="#2f3845" stroke-width="0.25"/>
<path d="M 299.30 215.73 C 305.70 213.74 312.45 214.76 319.01 214.97 C 321.86 215.03 324.26 216.66 326.68 217.97 C 326.34 221.40 326.24 225.15 324.05 228.00 C 322.16 230.44 319.83 232.53 317.30 234.28 C 312.75 237.29 308.42 240.84 303.10 242.42 C 296.48 244.49 289.62 245.65 282.90 247.31 L 282.48 247.41 C 282.48 246.55 282.48 245.68 282.49 244.83 C 287.79 244.63 292.81 242.77 297.98 241.77 C 302.68 240.83 307.08 238.80 311.01 236.08 C 314.63 233.62 318.72 231.63 321.57 228.21 C 323.89 225.48 323.88 221.87 323.78 218.49 C 322.24 218.02 320.71 217.44 319.09 217.34 C 313.28 217.01 307.36 215.60 301.61 217.15 C 301.43 217.36 301.07 217.76 300.89 217.96 L 300.91 218.36 C 299.65 218.01 299.25 216.92 299.30 215.73 Z" fill="#064334" opacity="1.00" stroke="#064334" stroke-width="0.25"/>
<path d="M 386.82 214.28 C 387.22 214.69 388.00 215.50 388.39 215.90 L 388.81 216.47 C 382.00 228.78 368.23 234.28 355.69 238.85 C 347.07 241.97 337.00 241.94 329.91 248.42 C 329.42 248.12 328.45 247.52 327.96 247.22 C 331.16 244.90 334.41 242.43 338.29 241.36 C 342.13 240.27 346.04 239.42 349.91 238.42 C 356.89 236.79 363.38 233.65 369.88 230.72 C 375.79 228.08 380.77 223.76 384.99 218.92 C 386.19 217.67 386.51 215.92 386.82 214.28 Z" fill="#064334" opacity="1.00" stroke="#064334" stroke-width="0.25"/>
<path d="M 158.25 216.31 C 161.51 215.08 164.73 217.11 167.31 218.93 C 167.54 220.41 167.80 221.88 168.12 223.35 L 168.28 224.10 C 167.87 219.92 163.52 217.98 159.86 217.61 C 155.98 219.16 153.03 222.50 148.93 223.61 C 144.04 224.87 138.86 226.39 133.82 225.09 C 134.14 224.85 134.79 224.37 135.11 224.13 C 139.74 223.71 144.50 223.52 148.85 221.69 C 152.26 220.39 154.93 217.77 158.25 216.31 Z" fill="#f7e9e0" opacity="1.00" stroke="#f7e9e0" stroke-width="0.25"/>
<path d="M 167.49 215.77 C 172.18 220.39 172.52 227.83 177.49 232.11 C 175.14 230.31 172.50 228.52 171.35 225.68 C 169.82 222.46 169.96 218.53 167.49 215.77 Z" fill="#ffe9e7" opacity="1.00" stroke="#ffe9e7" stroke-width="0.25"/>
<path d="M 301.61 217.15 C 307.36 215.60 313.28 217.01 319.09 217.34 C 320.71 217.44 322.24 218.02 323.78 218.49 C 323.88 221.87 323.89 225.48 321.57 228.21 C 323.15 225.54 325.20 221.32 321.70 219.25 C 314.83 218.55 307.86 217.94 300.95 218.68 L 300.91 218.36 L 300.89 217.96 C 301.07 217.76 301.43 217.36 301.61 217.15 Z" fill="#ffede9" opacity="1.00" stroke="#ffede9" stroke-width="0.25"/>
<path d="M 326.68 217.97 C 327.18 219.99 328.06 222.02 327.49 224.13 C 327.02 228.51 323.51 231.58 320.39 234.29 C 315.37 237.75 310.60 241.80 304.75 243.80 C 298.65 245.86 292.29 247.06 285.96 248.16 C 285.19 247.95 283.66 247.52 282.90 247.31 C 289.62 245.65 296.48 244.49 303.10 242.42 C 308.42 240.84 312.75 237.29 317.30 234.28 C 319.83 232.53 322.16 230.44 324.05 228.00 C 326.24 225.15 326.34 221.40 326.68 217.97 Z" fill="#ffede9" opacity="1.00" stroke="#ffede9" stroke-width="0.25"/>
<path d="M 183.46 224.65 C 188.97 221.75 196.08 222.62 200.26 227.43 C 199.76 227.52 198.76 227.70 198.25 227.79 C 196.98 227.15 195.74 226.43 194.47 225.77 C 191.15 224.88 187.70 225.58 184.35 225.86 C 183.45 225.83 183.15 225.43 183.46 224.65 Z" fill="#064334" opacity="1.00" stroke="#064334" stroke-width="0.25"/>
<path d="M 168.32 224.09 C 169.83 226.78 170.48 230.10 173.01 232.10 C 176.22 234.71 180.32 235.76 184.26 236.76 L 183.65 237.50 C 178.92 237.77 174.22 235.35 171.78 231.26 C 170.53 228.92 167.72 227.03 168.32 224.09 Z" fill="#ffffff" opacity="1.00" stroke="#ffffff" stroke-width="0.25"/>
<path d="M 184.35 225.86 C 187.70 225.58 191.15 224.88 194.47 225.77 C 191.10 226.02 187.72 226.03 184.35 225.86 Z" fill="#ffffff" opacity="1.00" stroke="#ffffff" stroke-width="0.25"/>
<path d="M 184.35 225.86 C 187.72 226.03 191.10 226.02 194.47 225.77 C 195.74 226.43 196.98 227.15 198.25 227.79 C 196.67 228.65 195.04 227.63 193.45 227.39 C 190.46 226.62 187.14 227.40 184.35 225.86 Z" fill="#ffd4dc" opacity="1.00" stroke="#ffd4dc" stroke-width="0.25"/>
<path d="M 440.40 225.74 C 440.87 244.23 442.10 262.70 442.50 281.21 C 439.54 287.02 435.56 292.38 430.60 296.64 C 420.71 304.59 409.07 309.88 398.20 316.29 C 386.48 322.40 375.07 329.09 363.45 335.39 C 351.15 341.45 338.13 346.00 324.91 349.56 C 307.51 353.76 289.77 356.37 272.13 359.31 C 262.53 361.09 252.74 360.24 243.05 360.41 C 216.02 359.53 189.61 352.74 163.98 344.52 C 148.76 340.09 133.56 335.46 118.92 329.32 C 111.01 325.64 103.37 321.40 95.69 317.28 C 88.82 313.38 81.45 310.12 75.57 304.72 C 77.75 285.50 76.15 266.14 74.26 246.97 C 79.26 250.83 83.58 255.80 89.56 258.20 C 107.33 265.17 125.11 272.14 142.92 279.01 C 168.83 289.07 196.39 293.90 223.89 297.15 C 241.18 298.94 258.65 300.38 276.00 298.66 C 292.80 297.57 309.19 293.52 325.57 289.87 C 354.84 283.76 382.61 272.04 408.88 257.96 C 417.27 253.35 424.42 246.86 431.33 240.31 C 435.26 236.08 437.69 230.77 440.40 225.74 Z" fill="#f3a99d" opacity="1.00" stroke="#f3a99d" stroke-width="0.25"/>
<path d="M 243.65 227.96 C 247.44 227.32 251.93 225.45 255.35 228.10 C 254.70 228.23 253.42 228.50 252.78 228.63 C 247.24 229.00 241.68 230.10 236.83 232.90 C 232.79 235.44 227.82 236.56 223.09 236.10 C 218.14 233.91 213.42 230.34 207.64 231.20 L 208.75 232.30 C 207.92 231.53 206.88 230.89 206.45 229.80 C 212.39 227.53 217.84 231.35 222.97 233.75 C 230.56 235.78 236.60 229.40 243.65 227.96 Z" fill="#064334" opacity="1.00" stroke="#064334" stroke-width="0.25"/>
<path d="M 236.83 232.90 C 241.68 230.10 247.24 229.00 252.78 228.63 L 251.89 230.12 C 247.25 231.24 242.32 231.61 238.14 234.16 C 233.80 237.13 228.19 238.19 223.06 237.33 C 218.46 235.17 213.79 233.20 208.75 232.30 L 207.64 231.20 C 213.42 230.34 218.14 233.91 223.09 236.10 C 227.82 236.56 232.79 235.44 236.83 232.90 Z" fill="#ffffff" opacity="1.00" stroke="#ffffff" stroke-width="0.25"/>
<path d="M 181.78 240.27 C 185.11 240.44 188.69 239.63 191.87 240.86 C 195.87 243.92 198.38 248.65 202.88 251.12 C 208.71 254.32 215.18 256.37 221.76 257.27 C 222.10 257.55 222.78 258.11 223.12 258.39 C 218.58 259.06 214.28 257.31 210.06 255.95 C 205.65 254.47 201.25 252.49 197.92 249.14 C 195.71 247.07 193.98 244.53 191.62 242.62 C 188.64 240.69 184.53 242.90 181.78 240.27 Z" fill="#ffffff" opacity="1.00" stroke="#ffffff" stroke-width="0.25"/>
<path d="M 299.10 254.78 C 304.93 253.92 310.27 249.77 316.36 251.60 L 314.95 253.03 C 309.35 252.95 304.50 256.14 299.06 256.90 C 283.42 259.06 268.02 265.35 252.01 262.61 C 252.13 262.05 252.38 260.91 252.51 260.34 C 262.67 263.06 272.97 259.87 282.98 258.06 C 288.33 256.85 293.66 255.56 299.10 254.78 Z" fill="#064334" opacity="1.00" stroke="#064334" stroke-width="0.25"/>
<path d="M 299.06 256.90 C 304.50 256.14 309.35 252.95 314.95 253.03 L 316.19 252.95 C 314.89 255.62 311.32 254.73 309.01 255.94 C 301.61 258.90 293.54 259.22 285.90 261.31 C 275.80 263.51 265.41 266.05 255.02 264.36 C 253.83 264.17 252.96 263.25 252.01 262.61 C 268.02 265.35 283.42 259.06 299.06 256.90 Z" fill="#ffede9" opacity="1.00" stroke="#ffede9" stroke-width="0.25"/>
<path d="M 93.04 278.11 C 92.65 277.03 93.02 275.97 93.44 274.98 C 95.20 279.72 94.23 284.82 94.75 289.70 L 96.02 290.94 C 94.83 290.54 93.61 290.22 92.41 289.91 C 92.31 293.00 92.58 296.15 91.85 299.19 C 91.83 294.10 91.29 288.95 89.41 284.18 C 90.63 285.64 91.94 287.02 93.48 288.16 C 93.83 284.80 93.85 281.40 93.04 278.11 Z" fill="#ffd4dc" opacity="1.00" stroke="#ffd4dc" stroke-width="0.25"/>
<path d="M 93.44 274.98 C 93.97 275.15 95.03 275.51 95.56 275.68 C 97.26 280.55 96.75 285.92 96.02 290.94 L 94.75 289.70 C 94.23 284.82 95.20 279.72 93.44 274.98 Z" fill="#212639" opacity="1.00" stroke="#212639" stroke-width="0.25"/>
<path d="M 88.40 282.77 C 88.65 283.12 89.16 283.82 89.41 284.18 C 91.29 288.95 91.83 294.10 91.85 299.19 L 91.86 299.77 C 91.39 299.57 90.45 299.17 89.97 298.98 C 90.16 293.49 87.49 288.23 88.40 282.77 Z" fill="#212639" opacity="1.00" stroke="#212639" stroke-width="0.25"/>
<path d="M 135.55 300.58 C 134.84 296.24 134.17 291.83 134.58 287.41 C 135.32 292.94 135.81 298.54 137.57 303.87 C 136.46 302.59 135.30 301.35 134.12 300.14 C 133.28 302.62 133.73 306.31 130.96 307.66 C 131.96 304.95 132.75 302.16 133.51 299.38 C 134.02 299.68 135.04 300.28 135.55 300.58 Z" fill="#ffd4dc" opacity="1.00" stroke="#ffd4dc" stroke-width="0.25"/>
<path d="M 134.58 287.41 C 135.04 287.66 135.98 288.16 136.45 288.41 C 137.44 293.41 138.20 298.46 139.51 303.40 C 139.02 303.52 138.05 303.76 137.57 303.87 C 135.81 298.54 135.32 292.94 134.58 287.41 Z" fill="#212639" opacity="1.00" stroke="#212639" stroke-width="0.25"/>
<path d="M 131.50 299.48 C 132.01 299.46 133.01 299.40 133.51 299.38 C 132.75 302.16 131.96 304.95 130.96 307.66 C 130.44 307.79 129.41 308.06 128.90 308.19 C 129.65 305.26 130.36 302.29 131.50 299.48 Z" fill="#212639" opacity="1.00" stroke="#212639" stroke-width="0.25"/>
</svg>