<svg xmlns="http://www.w3.org/2000/svg" height="512pt" version="1.1" viewBox="0 0 512 512" width="512pt">

<path d="M 172.97 128.16 C 196.78 121.94 221.57 121.24 246.03 120.39 C 271.46 120.13 297.00 121.12 322.13 125.31 C 329.91 126.80 337.82 128.44 344.91 132.12 C 347.80 133.70 350.96 135.78 351.68 139.25 C 351.89 142.84 351.25 146.41 350.98 149.98 C 343.11 226.35 335.42 302.74 327.25 379.07 C 327.40 380.63 325.78 381.23 324.70 381.82 C 316.34 385.84 307.10 387.40 298.02 388.84 C 280.82 391.23 263.41 391.97 246.05 391.62 C 229.45 390.89 212.71 390.09 196.46 386.31 C 191.04 384.73 185.27 383.63 180.58 380.30 C 172.72 305.56 164.92 230.81 157.21 156.06 C 156.91 150.05 155.15 143.97 156.25 137.99 C 159.53 131.91 166.86 130.09 172.97 128.16 Z" fill="#356178" opacity="1.00" stroke="#356178" stroke-width="0.25" data-index="1"></path>
<path d="M 228.75 124.23 C 252.14 123.64 275.61 123.41 298.93 125.56 C 311.49 126.95 324.20 128.17 336.30 131.99 C 340.76 133.68 345.62 135.23 348.79 139.01 C 347.29 141.10 345.41 142.97 343.02 144.02 C 336.94 146.77 330.35 148.07 323.88 149.54 C 298.23 154.21 272.08 155.27 246.05 155.02 C 222.96 154.42 199.69 153.19 177.12 147.92 C 171.84 146.51 166.33 145.28 161.73 142.21 C 160.20 141.28 158.53 139.02 160.21 137.45 C 163.46 134.44 167.88 133.17 171.98 131.76 C 190.45 126.61 209.71 125.46 228.75 124.23 Z" fill="#b9f1fe" opacity="1.00" stroke="#b9f1fe" stroke-width="0.25" data-index="2"></path>
<path d="M 158.96 143.89 C 165.57 148.88 173.89 150.43 181.77 152.26 C 193.01 154.80 204.50 155.73 215.93 156.85 C 234.23 158.08 252.59 158.78 270.93 157.99 C 290.73 157.19 310.65 155.90 330.02 151.47 C 336.37 149.85 343.02 148.31 348.28 144.17 C 341.91 207.52 335.34 270.86 328.78 334.20 C 327.55 348.95 325.44 363.63 324.37 378.40 C 322.00 379.68 319.52 380.74 316.93 381.45 C 302.02 385.81 286.44 387.10 270.99 387.90 C 251.96 388.28 232.84 388.35 213.92 385.93 C 203.60 384.68 193.21 382.86 183.63 378.68 C 176.11 306.12 168.45 233.57 161.02 161.00 C 160.24 155.31 159.94 149.55 158.96 143.89 Z" fill="#b9f1fe" opacity="1.00" stroke="#b9f1fe" stroke-width="0.25" data-index="3"></path>
<path d="M 175.21 166.12 C 175.03 164.30 174.42 162.41 175.01 160.61 C 176.35 160.76 177.00 161.53 176.97 162.91 C 178.31 171.86 179.59 180.82 180.50 189.83 C 180.00 189.80 178.99 189.74 178.48 189.71 C 177.04 181.91 176.46 173.96 175.21 166.12 Z" fill="#356178" opacity="1.00" stroke="#356178" stroke-width="0.25" data-index="4"></path>
<path d="M 193.43 171.40 C 193.86 171.10 194.72 170.51 195.16 170.21 C 196.48 175.05 197.08 180.06 197.89 185.01 C 198.18 186.38 197.52 187.10 195.92 187.16 C 194.91 181.94 194.22 176.66 193.43 171.40 Z" fill="#356178" opacity="1.00" stroke="#356178" stroke-width="0.25" data-index="5"></path>
<path d="M 236.61 193.93 C 256.75 192.73 276.98 193.77 297.01 196.09 C 306.76 197.46 316.70 199.07 325.62 203.43 C 329.59 205.37 333.88 208.92 332.88 213.90 C 324.49 263.62 315.87 313.31 307.33 363.01 C 307.18 365.34 304.67 366.18 302.86 366.94 C 296.43 369.06 289.75 370.37 283.06 371.30 C 264.19 373.62 245.03 373.59 226.15 371.38 C 218.07 370.35 209.92 368.84 202.40 365.62 C 200.84 365.16 200.78 363.30 200.46 362.01 C 191.98 313.65 184.07 265.20 175.49 216.86 C 174.73 213.38 174.71 209.15 177.46 206.50 C 180.58 203.58 184.68 202.02 188.68 200.73 C 204.21 196.04 220.49 194.79 236.61 193.93 Z" fill="#356178" opacity="1.00" stroke="#356178" stroke-width="0.25" data-index="6"></path>
<path d="M 231.54 197.28 C 247.34 196.55 263.20 196.50 279.00 197.45 C 291.79 198.57 304.71 199.75 317.07 203.42 C 321.61 205.02 326.88 206.37 329.53 210.79 C 327.16 213.31 324.11 215.05 320.85 216.12 C 309.92 219.80 298.40 221.25 286.98 222.41 C 274.35 223.41 261.68 224.04 249.01 223.81 C 229.90 223.19 210.62 222.24 192.01 217.54 C 187.03 215.98 181.32 214.69 178.21 210.09 C 182.14 205.85 187.84 204.31 193.19 202.75 C 205.69 199.32 218.67 198.31 231.54 197.28 Z" fill="#fffffe" opacity="1.00" stroke="#fffffe" stroke-width="0.25" data-index="7"></path>
<path d="M 311.83 221.98 C 318.08 220.42 324.84 219.01 329.76 214.56 C 320.93 264.10 312.94 313.79 303.96 363.30 C 284.95 369.23 264.81 370.30 245.02 369.72 C 231.13 368.88 217.01 367.77 203.82 363.01 C 195.09 313.59 187.13 264.04 178.25 214.66 C 184.54 219.57 192.64 221.00 200.24 222.70 C 218.59 226.04 237.30 226.89 255.93 227.09 C 274.64 226.77 293.48 225.93 311.83 221.98 Z" fill="#fffffe" opacity="1.00" stroke="#fffffe" stroke-width="0.25" data-index="8"></path>
<path d="M 202.19 323.20 C 202.67 323.21 203.63 323.21 204.10 323.21 C 205.78 330.42 206.66 337.80 207.96 345.09 C 207.54 345.31 206.69 345.76 206.26 345.98 C 204.39 338.49 203.38 330.82 202.19 323.20 Z" fill="#356178" opacity="1.00" stroke="#356178" stroke-width="0.25" data-index="9"></path>
<path d="M 210.82 333.65 C 211.10 333.30 211.66 332.61 211.94 332.27 C 212.24 332.59 212.84 333.23 213.13 333.56 C 213.99 339.03 215.57 344.41 215.71 349.98 C 215.28 349.79 214.43 349.42 214.00 349.23 C 212.60 344.12 212.19 338.78 210.82 333.65 Z" fill="#356178" opacity="1.00" stroke="#356178" stroke-width="0.25" data-index="10"></path>
</svg>