<?xml version="1.0" encoding="utf-8"?>
<svg xmlns="http://www.w3.org/2000/svg" height="512pt" version="1.1" viewBox="0 0 512 512" width="512pt">
<path d="M 0 0 L 512 0 L 512 512 L 0 512 L 0 0 Z" fill="transparent" opacity="1.00" stroke="transparent" stroke-width="0.25"/>
<path d="M 64.1 187.4 C 71.2 182.9 79.9 182.4 88 182.2 C 96.8 182.1 105.6 182 114.4 182.3 C 129.7 182.7 144.8 185.3 160 184.8 C 178.1 184.4 196.1 186 214.1 186.8 C 226.7 188.2 239.4 186.6 252 187.4 C 272 188.3 291.9 186.1 311.9 185.4 C 346.9 183.6 382.1 186 417.2 183.7 C 419 184.4 420.3 186.1 421.8 187.3 C 429.2 194.2 438 199.6 445.1 207 C 446.1 207.8 446.6 209 446.9 210.3 C 449.5 211.3 452.9 212 454.2 214.9 C 455.7 218.4 456.4 222.2 457.1 226 C 458.8 239.6 458.4 253.3 458.5 267 C 458.6 283.4 458 300 454.2 316 C 453.7 317.7 453.3 320.4 451 320.2 C 436.5 319.9 422.2 322.1 407.9 323.5 C 375 326.5 341.9 326.5 309 326.2 C 289 326.3 269 326.6 249 326.8 C 227 327.9 205 326.3 183.1 326.2 C 165.4 325.4 147.7 325.5 130 325.6 C 112.9 325.6 95.6 328 78.7 324.1 C 76.5 322.8 75.5 320.2 73.5 318.6 C 68 312.7 60.4 309.9 53.6 306.1 C 54.1 301 55.1 296.1 55.4 291 C 56.4 274.4 54.9 257.7 56.1 241.1 C 56.7 223.2 58.4 205.3 59.8 187.4 C 61.3 187.4 62.7 187.4 64.1 187.4 Z" fill="#164971" opacity="1.00" stroke="#164971" stroke-width="0.25"/>
<path d="M 69.1 192.8 C 76.1 190.1 83.6 189.6 91 189.5 C 101.7 189.6 112.4 189.2 123 190.3 C 128.7 190.5 134.4 191.4 140 191.7 C 157.7 193.1 175.4 191.4 193.1 193 C 207.4 193.7 221.7 195.2 236 194.4 C 241.3 194.3 246.6 194.3 251.9 194.6 C 269.7 195.5 287.4 193.8 305.1 193.1 C 324.4 191.8 343.7 192.3 363.1 192 C 380.5 192.3 397.9 192.5 415.3 191.3 C 422.2 197.8 430.1 203.2 437.1 209.6 C 417.4 209.1 397.7 209.4 378 208.4 C 355.4 206.9 332.6 207.4 310 208.4 C 287.7 208.8 265.3 208.4 243 208.6 C 223 208.5 202.9 208 182.9 209.1 C 158 209.5 133 208.4 108 210.2 C 98.7 210.4 89.4 210.6 80.1 210.4 C 79.2 203.3 74.2 197.5 69.1 192.8 Z" fill="#ffffff" opacity="1.00" stroke="#ffffff" stroke-width="0.25"/>
<path d="M 66.5 200.3 C 68.6 203.4 71.4 206.1 72.5 209.8 C 74.5 215.3 73.5 221.4 72.8 227.1 C 70.7 244 71.8 261 72.8 278 C 73.7 288.9 74.3 299.8 75.5 310.7 C 71.4 307.1 66.8 303.9 61.6 302.1 C 64.7 281.6 62.3 260.7 63.6 240 C 64.5 226.8 64.7 213.4 66.5 200.3 Z" fill="#ffffff" opacity="1.00" stroke="#ffffff" stroke-width="0.25"/>
<path d="M 300 215.9 C 316 216 332 214.8 348 214.9 C 357.3 214.7 366.7 215.5 376 215.8 C 397 217.1 418.1 215.9 439.1 217.4 C 442.1 217.6 445 218.3 448 218.9 C 451.2 229.3 450.5 240.3 451.1 251 C 451.2 271.6 451.6 292.4 447.5 312.7 C 437.9 312.6 428.5 314.1 419 314.9 C 367.8 320.7 316.3 317.8 265 319.2 C 243.8 319.5 222.5 320 201.2 318.9 C 176.5 318.2 151.7 318 127 318.1 C 112.5 318.2 97.9 320 83.4 317.6 C 82.2 303.4 80.9 289.2 80.1 275 C 78.6 255.9 78.6 236.7 81.3 217.8 C 93.6 218.1 105.8 217.4 118 217.2 C 144.9 215.5 172 217.5 199 215.9 C 216 215.5 233 216.2 250 215.9 C 266.6 215.8 283.3 216 300 215.9 Z" fill="#ffffff" opacity="1.00" stroke="#ffffff" stroke-width="0.25"/>
<path d="M 393.7 232.4 C 395.3 230.2 397.7 228.9 399.9 227.4 C 406.6 228.7 410.6 234.9 413.2 240.7 C 416 247.5 416.7 254.8 417.3 262 C 417.5 273.1 418.1 284.6 415.2 295.4 C 413.7 300.2 410.6 305.7 405.1 306.2 C 401.8 306.3 398.2 305.6 395.5 303.5 C 393.1 301.3 391.9 298.2 390.9 295.2 C 387 282.8 386.9 269.7 387.4 256.9 C 387.9 248.5 389.4 239.8 393.7 232.4 Z" fill="#164971" opacity="1.00" stroke="#164971" stroke-width="0.25"/>
<path d="M 107.4 229.7 C 112.3 227.6 118.2 229.4 121.8 233 C 124.9 236.6 125.7 241.4 126.3 246 C 126.7 252.3 127.5 258.6 127.8 264.9 C 128.4 275.9 129.7 287.4 126.2 298.1 C 125 301.8 122.1 305.5 118 305.6 C 114.6 305.7 110.9 305.9 107.7 304.2 C 105.1 302.6 103.7 299.8 102.5 297.2 C 98.3 287.4 98.3 276.5 98.1 266 C 97.8 257.1 97.7 248 100.2 239.3 C 101.5 235.6 103.6 231.4 107.4 229.7 Z" fill="#164971" opacity="1.00" stroke="#164971" stroke-width="0.25"/>
<path d="M 148.7 230.7 C 151.5 228 158.1 229.4 157.4 234 C 157.2 250 156.2 266 156.6 282 C 156.5 288.3 157.1 294.7 156.6 301.1 C 156.4 304.1 152.8 303.8 150.6 303.7 C 150.1 302.5 149.8 301.3 149.6 300.1 C 148.8 280 149.6 259.9 149.6 239.8 C 146.7 241.8 143.9 244.9 140.2 244.6 C 138.3 244.5 137.4 242.4 137.4 240.8 C 140.2 236.5 145 234.1 148.7 230.7 Z" fill="#164971" opacity="1.00" stroke="#164971" stroke-width="0.25"/>
<path d="M 229.4 231.7 C 232.8 230.1 237.1 230.8 240.1 233 C 243.8 236.2 245.3 241.2 246.2 245.8 C 247.6 253.8 247.7 261.9 248.1 270 C 248.1 280.3 249 290.9 245.5 300.7 C 243.9 305.9 238.4 310.1 232.8 308.9 C 228.7 308.2 225.3 305.1 223.7 301.3 C 219.4 291.5 218.6 280.6 218.4 270 C 218.2 260.4 217.8 250.5 221.1 241.3 C 222.7 237.3 225.3 233.4 229.4 231.7 Z" fill="#164971" opacity="1.00" stroke="#164971" stroke-width="0.25"/>
<path d="M 363.4 231.7 C 369.5 229.9 376 234.4 377.9 240.2 C 381.2 250.4 380.6 261.3 381.2 271.9 C 380.6 281 381.1 290.6 376.9 298.9 C 374.2 304.4 366.8 306.1 361.5 303.5 C 357.7 301.7 354.6 298.2 353.9 294 C 351.6 282.2 350.9 270 351.3 258 C 351.5 251.6 352.1 245 355.1 239.2 C 356.9 235.8 359.6 232.7 363.4 231.7 Z" fill="#164971" opacity="1.00" stroke="#164971" stroke-width="0.25"/>
<path d="M 148.7 230.7 C 151.5 228 158.1 229.4 157.4 234 C 157.2 250 156.2 266 156.6 282 C 156.5 288.3 157.1 294.7 156.6 301.1 C 156.4 304.1 152.8 303.8 150.6 303.7 C 150.1 302.5 149.8 301.3 149.6 300.1 C 148.8 280 149.6 259.9 149.6 239.8 C 146.7 241.8 143.9 244.9 140.2 244.6 C 138.3 244.5 137.4 242.4 137.4 240.8 C 140.2 236.5 145 234.1 148.7 230.7 Z" fill="#164971" opacity="1.00" stroke="#164971" stroke-width="0.25"/>
<path d="M 400.2 235.9 C 405.1 238.6 406.9 244.6 408.2 249.8 C 409.5 256.1 409.9 262.6 410.1 269 C 409.6 277.8 410.6 286.9 407.3 295.3 C 406.6 296.9 405.1 298.8 403.1 298.6 C 400.2 298.9 399.1 295.7 398.2 293.6 C 394.2 281.5 394.5 268.5 394.8 256 C 395.3 249 396.8 242 400.2 235.9 Z" fill="#ffffff" opacity="1.00" stroke="#ffffff" stroke-width="0.25"/>
<path d="M 106.7 243.2 C 107.3 240.3 108.7 236.7 112.1 236.5 C 115.8 235.9 117.9 240 118.3 243.1 C 119.9 254.7 120.5 266.3 121 278 C 121 284.5 121.2 291.4 118.3 297.4 C 116.4 298.4 114.3 298.4 112.2 298.3 C 106.5 292.8 106.8 284.3 105.9 277.1 C 105.4 265.8 104.6 254.3 106.7 243.2 Z" fill="#ffffff" opacity="1.00" stroke="#ffffff" stroke-width="0.25"/>
<path d="M 232.1 238.5 C 232.8 238.6 234.2 238.6 234.8 238.6 C 238.8 241.9 239 247.3 239.5 252.1 C 240.6 262.7 240.7 273.4 240.7 284 C 240.6 289 240.2 294.3 237.9 298.9 C 237.1 301 234.8 301.5 232.8 301.6 C 228.2 296.2 227.5 288.8 226.6 282.1 C 225.8 270.8 224.9 259.3 226.8 248 C 227.6 245.4 228.5 242.9 229.7 240.5 C 230.5 239.9 231.3 239.2 232.1 238.5 Z" fill="#ffffff" opacity="1.00" stroke="#ffffff" stroke-width="0.25"/>
<path d="M 360.6 245.1 C 361.5 242.2 363.6 238.3 367.2 238.8 C 370.6 239.9 371.4 243.8 372 246.9 C 373.8 257.7 373.8 268.6 373.4 279.5 C 373.1 285.1 372.7 290.8 370.4 295.9 C 367.6 297.7 362.7 297.2 361.6 293.6 C 359.5 286.3 359.4 278.6 358.7 271 C 358.3 262.4 358.3 253.5 360.6 245.1 Z" fill="#ffffff" opacity="1.00" stroke="#ffffff" stroke-width="0.25"/>
<path d="M 269.9 240.8 C 271.1 239 273.7 239.8 275 241.1 C 278.4 244.6 279.4 249.5 280.2 254.2 C 281.8 265.1 281.6 276.2 280.4 287.2 C 279.9 290.9 279.3 294.7 277.1 297.8 C 272.7 298.3 269.3 294.6 268 290.8 C 266.5 286.4 266.5 281.7 266.1 277.2 C 265.3 269.8 265.6 262.4 265.7 255 C 266.2 250.2 266.4 244.6 269.9 240.8 Z" fill="#ffffff" opacity="1.00" stroke="#ffffff" stroke-width="0.25"/>
<path d="M 195.1 242.1 C 201 240.5 208.2 245.6 207.5 252 C 207.7 258.9 199.4 263.4 193.4 260.6 C 188.2 258.9 186.1 252.7 188.1 247.8 C 189.2 244.8 192.2 242.9 195.1 242.1 Z" fill="#164971" opacity="1.00" stroke="#164971" stroke-width="0.25"/>
<path d="M 313.9 248 C 315.6 244.2 319.9 241.9 324 242.2 C 330.9 241.8 335.9 250.6 332.6 256.5 C 331.4 258.7 329.2 259.9 327.3 261.4 C 324.1 261.6 320.7 262.1 317.8 260.2 C 313.4 258 312.5 252.3 313.9 248 Z" fill="#164971" opacity="1.00" stroke="#164971" stroke-width="0.25"/>
<path d="M 315.6 281.7 C 319.6 278.4 326.6 277.6 330.2 282 C 334.7 286.2 333.5 295.1 327.6 297.6 C 322.5 300.2 314.6 298.1 313 292.1 C 311.9 288.4 313.2 284.5 315.6 281.7 Z" fill="#164971" opacity="1.00" stroke="#164971" stroke-width="0.25"/>
<path d="M 190.4 281.6 C 196.5 278 205.7 282.7 205.6 290 C 206 294.1 203.3 297.9 199.6 299.4 C 195.9 300.1 191.5 300.3 188.5 297.5 C 183.4 293.5 184.4 284.3 190.4 281.6 Z" fill="#164971" opacity="1.00" stroke="#164971" stroke-width="0.25"/>
<path d="M 148.7 230.7 C 151.5 228 158.1 229.4 157.4 234 C 157.2 250 156.2 266 156.6 282 C 156.5 288.3 157.1 294.7 156.6 301.1 C 156.4 304.1 152.8 303.8 150.6 303.7 C 150.1 302.5 149.8 301.3 149.6 300.1 C 148.8 280 149.6 259.9 149.6 239.8 C 146.7 241.8 143.9 244.9 140.2 244.6 C 138.3 244.5 137.4 242.4 137.4 240.8 C 140.2 236.5 145 234.1 148.7 230.7 Z" fill="#164971" opacity="1.00" stroke="#164971" stroke-width="0.25"/>
    <path opacity="1.00" stroke-width="0.25" fill="#164971" stroke="#164971" d="M 273.2 235.2 C 276 232.5 282.7 233.9 281.9 238.5 C 281.7 254.5 280.7 270.5 281.1 286.5 C 281 292.9 281.6 299.2 281.2 305.6 C 281 308.6 277.3 308.4 275.1 308.2 C 274.7 307 274.3 305.8 274.1 304.6 C 273.3 284.5 274.1 264.4 274.1 244.3 C 271.2 246.3 268.5 249.4 264.7 249.1 C 262.8 249.1 262 246.9 261.9 245.3 C 264.7 241 269.5 238.6 273.2 235.2 Z"/>
</svg>