<?xml version="1.0" encoding="UTF-8"?>
<svg id="Layer_1" xmlns="http://www.w3.org/2000/svg" version="1.1" viewBox="0 0 512 512">
  <!-- Generator: Adobe Illustrator 29.4.0, SVG Export Plug-In . SVG Version: 2.1.0 Build 152)  -->
  <defs>
    <style>
      .st0 {
        fill: #fac2a4;
        stroke: #fac2a4;
      }

      .st0, .st1, .st2, .st3, .st4, .st5, .st6, .st7, .st8, .st9, .st10, .st11, .st12, .st13, .st14, .st15, .st16, .st17, .st18, .st19, .st20, .st21, .st22, .st23, .st24, .st25, .st26 {
        stroke-width: .2px;
      }

      .st1 {
        fill: #6a4944;
        stroke: #6a4944;
      }

      .st2 {
        fill: #132e44;
        stroke: #132e44;
      }

      .st3 {
        fill: #0c2e48;
        stroke: #0c2e48;
      }

      .st4 {
        fill: #003658;
        stroke: #003658;
      }

      .st5 {
        fill: #152839;
        stroke: #152839;
      }

      .st6 {
        fill: #ffc1a0;
        stroke: #ffc1a0;
      }

      .st7 {
        fill: #fff;
        stroke: #fff;
      }

      .st8 {
        fill: #694844;
        stroke: #694844;
      }

      .st9 {
        fill: #073354;
        stroke: #073354;
      }

      .st10 {
        fill: #fec0a0;
        stroke: #fec0a0;
      }

      .st11 {
        fill: #de805c;
        stroke: #de805c;
      }

      .st12 {
        fill: #de815f;
        stroke: #de815f;
      }

      .st13 {
        fill: #083151;
        stroke: #083151;
      }

      .st14 {
        fill: #112735;
        stroke: #112735;
      }

      .st15 {
        fill: #fefefe;
        stroke: #fefefe;
      }

      .st16 {
        fill: #073252;
        stroke: #073252;
      }

      .st17 {
        fill: #553b3a;
        stroke: #553b3a;
      }

      .st18 {
        fill: #df815d;
        stroke: #df815d;
      }

      .st19 {
        fill: #644745;
        stroke: #644745;
      }

      .st20 {
        fill: #093050;
        stroke: #093050;
      }

      .st21 {
        fill: #76e6fe;
        stroke: #76e6fe;
      }

      .st22 {
        fill: #fd937c;
        stroke: #fd937c;
      }

      .st23 {
        fill: #fc937d;
        stroke: #fc937d;
      }

      .st24 {
        fill: #fec1a0;
        stroke: #fec1a0;
      }

      .st25 {
        fill: #fcfdfd;
        stroke: #fcfdfd;
      }

      .st26 {
        fill: #de825f;
        stroke: #de825f;
      }
    </style>
  </defs>
  <path class="st3" d="M263.7,34.8c12.7-1.8,26.2.1,37.4,6.6,4-1.9,8.8-1.7,12.1,1.4,13.5,11,20,29.1,18.6,46.2,0,7.8-2.9,15.2-4.8,22.7,4.3,1.6,8.6,4.4,10.2,9,1.5,5.5.9,12.1-3,16.5-2.3,2.8-5.6,4.7-9,5.8-1.4.3-1.6,1.9-2.1,3-4.9,15.2-16,28.7-30.8,35.1-4.7,2.2-9.9,3.1-14.9,4.2-.1,4.1-.1,8.2,0,12.2,9.2.2,18.5.3,27.6,1.5,10.6,1.7,20.9,6,28.8,13.2,8.2,7.8,13,18.2,17.5,28.3,2.5,6.6,6.2,12.7,8.1,19.4-3.2,1.3-6.5,2.6-9.6,4,1.6,10,2.4,20.1,3.4,30.1.8,11.1,1.3,22.4-1.1,33.3-1.8,8.8-7,17.1-14.6,21.8-.5-.6-1.4-1.9-1.8-2.5,8.9-5.8,13.4-16.4,14.3-26.7,1.3-14.8-.6-29.7-2-44.5-.4-3.5-.9-7-1.5-10.4-10.1,3.5-20.1,7.5-30.1,11.2-4.7,1.4-1.7,7.3-2,10.9.4,4.8-.5,9.7.8,14.3,2.1,1.9,5.6,2.6,6,5.9-4-.1-7.2-2.5-10.8-3.9-8.1-3.5-16.8-5.5-25.4-7.5-14.9-3.3-29.8-6.8-44.7-10.1-4.4-.9-8.8-1.9-13.2-2-9.3,0-18.8,4.1-24.8,11.4-2.6,3.2-2.7,7.4-2.9,11.3,9.5,0,19.2.8,28.6-.9,2.8.7,5.1,2.6,7.6,3.9,10.1,6.2,20.3,12.1,30.6,18-1.1,1.1-2.1,2.3-3.2,3.4.6.4,1.8,1.3,2.4,1.7-15.2,5-30.5,9.5-46,13.4-4.6-1.1-9.2.9-13.8.6,15.6-4.6,31.4-8.5,46.9-13.4,3.3-1,6.7-2,9.9-3.2-6.2-5.2-13.7-8.6-20.5-12.8-4.1-2.2-7.6-5.4-12-7.1-3.4-.6-6.9,0-10.3.3-9.6-.3-19.4.7-29-.9-.3-.3-.8-1-1-1.4.7-6.1,2.8-12,4.6-17.8.9-3.2,2.7-6.3,2.4-9.7-6.7-5.2-14-9.5-20.9-14.3-3.9-2.4-7.6-5.5-11.8-7.5-2.1.9-2.1,4-3.1,5.9-5.6,16.6-10.4,33.8-11.4,51.4-.4,9,.5,18.8,6.3,26.1,4.2,5.6,11.1,9,18.1,9.3,5.7.3,11.3-.7,16.9-1.7.3.6.9,1.7,1.3,2.3l-.2.7c-7.4,2.1-15.3,2.6-22.9,1.5-12.1-2.4-20.9-13.8-22.4-25.7-1.7-14.8.9-29.8,4.8-44,2.4-9.7,5.5-19.3,9-28.7-2.7-2.2-5.7-4.1-8.6-6.1,1.8-3.4,4.3-6.4,6.4-9.5,7.4-10.4,14.9-21,24.8-29.3,7.6-6.9,17.5-10.9,27.6-12.6,12.8-2.1,25.9-1.4,38.8-1.5.2-4.2.2-8.5,0-12.7-9.2-2.5-17.3-7.7-25.1-13.1-6.2,11.1-14.1,21.5-24.8,28.4-7.5,4.5-15.7,8.3-24.5,8.8-5.9.4-12.3-.6-16.9-4.5-2-1.6-4.3-3.3-4.5-6.1,4.9-.3,10.9.6,14.5-3.7,5.6-7,5.8-16.5,5.2-25-1.7-15.2-7.5-29.7-9-44.9-2.5-22.3,3-45.5,15.7-64.1,7-9.9,16.9-18.8,29.2-20.8,9.3-1.9,18.9.5,26.8,5.6,8.8-4.3,17.9-8.3,27.7-10Z"/>
  <path class="st1" d="M241.7,45.6c9-4.2,18.4-8.1,28.5-8.2,4.6,0,9.2,0,13.7.7,5.5.9,10.3,3.7,15.5,5.5,3.4,1.3,7.2-1.8,10.3.6,7.7,5.2,12.6,13.6,15.9,22.1,3.8,9.6,3.8,20.3,1.9,30.3-3.8-5.5-8.2-10.5-13.5-14.6-4-3-9.3-3.2-14-2.1-6.1,1.4-10.4,6.1-15.7,9-.2-2.4-.5-4.8-.7-7.2-4.2,1.8-6.6,6.1-10.6,8.1-3.1,1.6-6.5,2.2-9.9,2.9.9-4.2,2.3-8.6.9-12.8-2-5.8-6.6-10.5-12-13.2-.9,4.8-.5,10-2.4,14.5-3.3,6.7-9.2,11.9-15.8,15.3-2.7,1.5-5.9,2.6-7.5,5.4-3.1,5-5.2,10.5-8.3,15.4-2-1.2-3.9-2.4-6.2-3.1-2.9-.4-5.7.2-8.6.4-.9-14.5,1.6-29.3,6.6-43,3.1-8.6,8.5-16.6,16.4-21.5,5.3-1.2,10.7-2.1,15.5-4.7Z"/>
  <path class="st8" d="M191.6,51.6c6.8-5.7,15.3-10.2,24.4-9.8,4.7-.2,9.5.9,13.2,4-1.5.7-3.1,1.3-4.6,2-6.6,2.6-10.1,9.2-14.5,14.3-10.2,4.9-17,14.5-21.4,24.6-2.1,5-2.6,10.5-3.2,15.9-1.4,12.7-.2,25.7,2.8,38,1.7,8.2,6.1,15.5,11.2,21.9,1.7,2.2,3.4,4.6,3.5,7.4.4,7.7-.3,15.4-.7,23-6.2,5.6-14.1,9.2-22.2,11.1-6.7,1.4-14.2,1-20-2.8,3.6-1.3,7.6-2,10.1-5.2,4.3-4.2,5.9-10.2,6.3-15.9,1.5-11.4-1.7-22.5-4.1-33.5-4.6-16-6.6-33-4-49.5,3.2-17,10.9-33.4,23.4-45.5Z"/>
  <path class="st2" d="M210.1,62.1c4.3-5.2,7.9-11.7,14.5-14.3.4.6,1.2,1.9,1.6,2.5-7.9,4.9-13.3,12.9-16.4,21.5-5,13.7-7.5,28.4-6.6,43,2.8-.2,5.7-.8,8.6-.4,2.2.7,4.2,2,6.2,3.1,3.1-4.9,5.2-10.5,8.3-15.4,1.6-2.8,4.8-3.9,7.5-5.4,6.6-3.4,12.6-8.5,15.8-15.3,2-4.6,1.5-9.7,2.4-14.5,5.4,2.7,10,7.4,12,13.2,1.4,4.2,0,8.6-.9,12.8,3.4-.7,6.8-1.3,9.9-2.9,4-2.1,6.4-6.4,10.6-8.1.3,2.4.5,4.8.7,7.2,5.3-2.9,9.6-7.7,15.7-9,4.7-1.1,10-.8,14,2.1,5.3,4.1,9.7,9.2,13.5,14.6,1.8,2.2-2,3.2-3.5,4-.2-.5-.5-1.4-.7-1.9-.4-1.7-.6-3.4-1.2-5-1.9-2.4-4.5-4-6.7-6.1-2.8-2.6-6.1-5.6-10.3-5.2-10.9.2-17.3,11.5-28,12.7,1-2.1,2.2-4.2,3.3-6.3-6.7,4.6-14.7,9-23.1,7.4,1.9-4.1,5.1-8.2,4.4-13-.7-4.6-4.3-7.8-7.2-11.2.7,12.9-10,22.3-20.2,28.1-8,3.9-9.7,13.4-13.8,20.4-3.1,1.3-5.7-1.5-8.3-2.6-3.8-2.2-8,1.2-9.5,4.6-2.6,6.3-.2,14.5,5.6,18.2,3.9,2.3,8.5,1,12.7.3,4.7,10,10.2,20,18.7,27.3,4.8,4.5,10.6,7.7,16.6,10.2-2.7.9-5.3,1.9-8.1,2.4l.8-.6c.3-.3,1-.8,1.3-1-4.3-2.8-9.1-5-12.7-8.8-2.8-2.9-5.4-5.9-8.1-8.9-4.4-5-6.6-11.5-10.3-16.9-3,.2-5.9.4-8.9.8,1,4.1,3.6,7.4,5.9,10.9-.4.4-1.2,1.2-1.6,1.6,1.1,1.6,2,3.3,2.5,5.2-4.5-4.2-7.5-9.5-10-15.1-2.1-4.7-5.5-8.7-7.6-13.4-1.7-4-1.2-8.5-.3-12.7,1.2-5.3.4-10.7.6-16,.4-15.1,3.7-30.3,10.5-43.9Z"/>
  <path class="st17" d="M188.7,86.7c4.4-10.1,11.2-19.7,21.4-24.6-6.8,13.6-10.1,28.8-10.5,43.9-.2,5.3.6,10.7-.6,16-.9,4.2-1.4,8.7.3,12.7,2,4.7,5.5,8.7,7.6,13.4,2.5,5.5,5.5,10.9,10,15.1,1.7,1.8,3.1,3.8,4.4,5.8-4.4,9.3-11.1,17.4-19,23.9.4-7.7,1.1-15.3.7-23,0-2.9-1.8-5.3-3.5-7.4-5.1-6.5-9.5-13.8-11.2-21.9-3.1-12.4-4.2-25.3-2.8-38,.6-5.4,1.1-10.8,3.2-15.9Z"/>
  <path class="st10" d="M254.5,72.1c2.9,3.3,6.5,6.6,7.2,11.2.7,4.8-2.5,8.9-4.4,13,8.4,1.5,16.4-2.8,23.1-7.4-1.1,2.1-2.3,4.1-3.3,6.3,10.7-1.2,17.1-12.6,28-12.7,4.2-.4,7.5,2.6,10.3,5.2,2.2,2.1,4.8,3.8,6.7,6.1.6,1.6.9,3.3,1.2,5,.9,14.4,1.6,29.2-2.3,43.2-4,15.1-14.2,28.9-28.6,35.4-11.2,5.4-24.7,5.7-36.3,1.2-6-2.6-11.8-5.8-16.6-10.2-8.5-7.3-13.9-17.3-18.7-27.3-4.2.6-8.8,1.9-12.7-.3-5.8-3.7-8.2-11.9-5.6-18.2,1.5-3.4,5.7-6.8,9.5-4.6,2.7,1.1,5.2,3.9,8.3,2.6,4.1-7,5.8-16.5,13.8-20.4,10.2-5.8,20.9-15.2,20.2-28.1Z"/>
  <path class="st13" d="M298,106.8c-4.9,1-5.5-8.3-.8-8.4,7.1-.3,14.2-.7,21.2.2.1,2.5,1.3,5.9-1.1,7.7-6.4.9-12.9.6-19.3.6Z"/>
  <path class="st20" d="M256.4,99.5c2.9-.2,6.2-1.7,8.8.2,1.7,2,1.9,5.4,0,7.3-6.7,1.2-13.5,2.5-20.3,3.2-3.8,0-4.3-4.8-3.3-7.6,4.5-2.4,9.9-2.1,14.8-3.1Z"/>
  <path class="st0" d="M327.4,115c4.7,1.5,7.8,6.1,7.4,11,.7,6.2-3.8,12-9.6,14,1-8.3,2.1-16.6,2.2-25Z"/>
  <path class="st13" d="M300.6,123c-.6-4.1,4.4-7.6,8-5.6,4,1.8,4.1,7.7,1.2,10.5-.4.1-1.2.3-1.6.4-3.6,1.1-7.5-1.6-7.6-5.4Z"/>
  <path class="st16" d="M254.4,118.4c3.7-2.3,9,1.2,8.3,5.5.5,5.6-8.1,7.5-10.5,2.8-1.4-2.8-.9-7,2.2-8.3Z"/>
  <path class="st14" d="M280,125.2c.5-.3,1.4-.8,1.9-1,2.5,3.9,4.8,8,6.6,12.3.7,1.4.6,2.9.3,4.4-4.3,1.4-8.9.5-13.2-.5-.1-.6-.4-1.6-.5-2.2,3.6.1,7.3.6,10.9.7-1.2-4.9-4.9-8.7-6.1-13.6Z"/>
  <path class="st23" d="M232.3,127.2c4.4-2.1,10.5.7,10.9,5.8.9,4.6-3.9,8.3-8.1,7.9-2.4-.6-5.1-1.8-6-4.3-1.4-3.4.2-7.5,3.2-9.5Z"/>
  <path class="st22" d="M309.8,127.9c1.9-.4,3.8-.8,5.8-.4,2.2,1.4,4,3.4,5,5.9.9,4.1-1,9.1-5,10.7-4.3.5-9.6-.7-11.1-5.3-2-3.9.7-8.1,3.8-10.4.4-.1,1.2-.3,1.6-.4Z"/>
  <path class="st19" d="M210.1,145.6c3-.4,5.9-.7,8.9-.8,3.8,5.4,5.9,11.9,10.3,16.9,2.6,3,5.3,6,8.1,8.9,3.6,3.8,8.4,6,12.7,8.8-.3.2-1,.8-1.3,1-6.3-2.9-12.9-5.5-18.5-9.6-5.5-3.9-10.3-8.9-14.2-14.3-2.3-3.4-4.8-6.8-5.9-10.9Z"/>
  <path class="st5" d="M257.2,149.1c4.5,0,8.4,2.6,12.8,3.2,6.7.9,13.7.9,20.2-1,2.2-.6,4.4-1.1,6.7-1.2,0,3.9-2.8,6.9-5,9.8-7.1,9-22,10.5-30.4,2.5-3-3.6-6.3-8.5-4.3-13.4Z"/>
  <path class="st25" d="M259,152c5.5,1.6,11.1,3.6,16.9,3.6,5.8.3,11.5-.8,17.1-2.2-2.3,5.5-7.4,9.7-13.2,11.1-5.6.8-12.3.6-16.4-3.9-2.5-2.2-3.6-5.4-4.4-8.6Z"/>
  <path class="st24" d="M252.6,184.6c2.8.5,5.7.8,8.6,1-2.8,0-5.6.2-8.4.3-.2,2.9-.2,5.9,0,8.8,7.1.5,14.2.3,21.2,0,0,3.4,0,6.7.2,10.1,2.5,2.3,2.8-2.2,3.2-3.8,2.9,0,5.8,0,8.8,0,.5,5.8-2.1,11.8-7.2,14.9-6.4,3.5-14.1,3.6-21,1.9-8.5-2.1-15.9-8.8-18.5-17.1,3.2-.2,6.5-.2,9.7,0,.1,1.4.2,2.8.3,4.1.7.1,2.1.4,2.7.5.6-6.9,0-13.9.3-20.8Z"/>
  <path class="st26" d="M252.8,186c2.8-.2,5.6-.3,8.4-.3,4.3,0,8.6,0,12.9.1.2,3,.2,6.1,0,9.1-7.1.2-14.2.4-21.2,0-.3-2.9-.3-5.9,0-8.8Z"/>
  <path class="st7" d="M193.9,207.9c10.1-5.5,21.8-7,33.1-7,2,13.7,7.1,27.9,17.9,37.1,9.8,8,23.6,9.3,35.4,5.7-1.7,15.6-3,31.2-5.3,46.8-13.2-3.3-26.6-5.9-39.8-8.9-8.3-2-17.3-.8-24.9,3.1-2.5,1.3-4.8,3-7.3,4.5,3.8-12.3,7.4-24.8,11-37.2,1-3.5,2.2-7,2.8-10.7-.6,0-1.8.1-2.5.2-4.9,11.3-9.4,22.8-14.3,34.1-14.3-9-28.8-17.8-43.2-26.7,3.1-5.1,6.7-9.9,10.2-14.7,7.5-10,15.7-20.1,26.8-26.3Z"/>
  <path class="st15" d="M230.1,200.8c1.9,0,3.9-.1,5.9-.1,2.8,6.4,6.7,12.8,12.9,16.5,8.5,5.5,19.7,6.5,29.2,2.9,4.8-1.8,8.7-5.9,10-10.9.7-2.6,1-5.3,1.3-7.9,2.2,0,4.5,0,6.7,0,1,9.1.5,18.8-3.5,27.2-4.2,8.8-13.9,14.1-23.5,14.1-8.4.2-17.4-2.1-23.6-8.1-9.4-8.6-13.7-21.4-15.4-33.7Z"/>
  <path class="st21" d="M299.3,202.1c13.5.5,27.3,6,36,16.6,3.8,4.8,6.8,10.2,9.3,15.7,3.4,7.9,7.4,15.6,10.4,23.7-2,1-4.1,2-6.2,2.8-11.1,4.1-22.1,8.5-33.2,12.5-.5,0-1.5.2-2.1.3-.7-10.5-1.2-21-2-31.4-.7,0-2-.3-2.7-.4.4,15.8,1.7,31.6,2.5,47.5.2,3.6.3,7.3,0,10.9-5.5-1.5-10.8-4-16.4-5.2-5.5-1.6-11.3-2.3-16.7-4.2,1.2-11.3,2.5-22.6,3.6-34,.7-4.8.5-9.7,1.7-14.5,2.8-2.8,6.5-4.7,8.8-8,6.8-9.2,7.4-21.2,7-32.3Z"/>
  <path class="st4" d="M308.8,241.8c.7,0,2,.3,2.7.4.8,10.5,1.3,21,2,31.4.5,0,1.5-.2,2.1-.3-1.3,2.2-3.8,4.2-3.1,7-.1,3,1.4,6.6-1.1,8.9-.8-15.8-2.1-31.6-2.5-47.5Z"/>
  <path class="st11" d="M160.9,264.7c1-1.9,1-5,3.1-5.9,4.2,2,7.9,5,11.8,7.5,6.9,4.8,14.2,9.1,20.9,14.3.3,3.4-1.5,6.5-2.4,9.7-11.3-8.2-22.1-17.2-33.4-25.5Z"/>
  <path class="st6" d="M160.9,264.7c11.3,8.3,22.1,17.2,33.4,25.5-1.9,5.8-4,11.7-4.6,17.8.2.3.8,1,1,1.4,9.5,1.6,19.3.6,29,.9,1.3,1.4,2.6,2.8,4.2,3.9,9.4,6.6,19.4,12.3,28.7,19-15.5,4.9-31.3,8.8-46.9,13.4-5,.9-9.8,2.2-14.8,3.2-5.6,1-11.2,1.9-16.9,1.7-7-.3-13.9-3.7-18.1-9.3-5.8-7.3-6.7-17.1-6.3-26.1,1-17.6,5.8-34.7,11.4-51.4Z"/>
  <path class="st12" d="M316.4,276.4c10-3.8,20-7.7,30.1-11.2.6,3.5,1.1,6.9,1.5,10.4-4.5-.1-8.5,2.3-12.6,3.8-7,2.5-13.7,6-20.9,7.9.3-3.5-2.8-9.4,2-10.9Z"/>
  <path class="st6" d="M335.4,279.4c4.1-1.5,8.1-3.9,12.6-3.8,1.5,14.8,3.4,29.6,2,44.5-.9,10.3-5.4,20.8-14.3,26.7-7.4,3.8-16.2,4.3-24.2,1.9-16.1-4.6-30.7-13.3-45.4-21.1-10.3-5.9-20.5-11.8-30.6-18-2.5-1.3-4.8-3.2-7.6-3.9-9.4,1.8-19.1.9-28.6.9.2-3.9.3-8.1,2.9-11.3,6-7.3,15.4-11.3,24.8-11.4,4.5.1,8.9,1.1,13.2,2,14.9,3.4,29.8,6.8,44.7,10.1,8.6,2.1,17.3,4,25.4,7.5,3.6,1.4,6.9,3.8,10.8,3.9-.4-3.2-3.9-4-6-5.9-1.3-4.6-.5-9.6-.8-14.3,7.2-1.9,13.9-5.3,20.9-7.9Z"/>
  <path class="st18" d="M219.7,310.2c3.4-.2,6.9-.8,10.3-.3,4.4,1.7,7.9,4.9,12,7.1,6.8,4.3,14.3,7.6,20.5,12.8-3.2,1.3-6.6,2.3-9.9,3.2-9.3-6.7-19.3-12.4-28.7-19-1.5-1.1-2.9-2.5-4.2-3.9Z"/>
  <path class="st9" d="M263,330.9c1.1-1.1,2.1-2.3,3.2-3.4,14.8,7.8,29.3,16.5,45.4,21.1,8,2.4,16.7,1.9,24.2-1.9.4.6,1.3,1.9,1.8,2.5-3.2,2.6-7.4,2.9-11.1,4.4,3,21.4,6.1,42.9,8.8,64.3-1.2.6-2.5,1.2-3.7,1.9,2.1,20.3,4.2,40.5,6.2,60.8l.4.6c7.8.3,15.6-.2,23.3.3,0,1,.2,2,.3,3-15.2.6-30.5.2-45.7.3-47.3,0-94.7,0-142,0-8.3-.1-16.5.2-24.8-.3,0-1,.2-2,.3-3.1,8.4-.4,16.9,0,25.3-.2l.6-.6c2.9-21.1,6.6-42,9.5-63.1-.8-.1-2.5-.4-3.3-.5,0-1.8.2-3.5.6-5.2,3.3-18.3,6.4-36.6,9.9-54.8.1-1.6,1-3.5,0-5-.3-.6-.9-1.7-1.3-2.3,4.9-1,9.8-2.3,14.8-3.2,4.6.3,9.2-1.7,13.8-.6-7.5,2.6-15.3,4.1-22.9,6.2-.8,4.5-1.7,9.1-2.3,13.6,11,3.4,22.4,5.6,33.8,7.4,15.1,2.3,30.4,4.3,45.7,4.7,0-13.6-.6-27.3-1.1-40.9.2-3.5-4.4-5.1-7.3-4.4-.6-.4-1.8-1.3-2.4-1.7Z"/>
  <path class="st7" d="M265.4,332.6c2.9-.7,7.5.9,7.3,4.4.5,13.6,1,27.2,1.1,40.9-15.3-.3-30.6-2.3-45.7-4.7-11.4-1.8-22.7-4-33.8-7.4.6-4.6,1.5-9.1,2.3-13.6,7.6-2.2,15.4-3.6,22.9-6.2,15.5-3.9,30.8-8.4,46-13.4Z"/>
  <path class="st21" d="M276,336.8c15,6.8,29.7,16.7,46.8,16.6,2,12.1,3.5,24.3,5.3,36.5,1,8.7,2.6,17.3,3.1,26-27.8,3.9-56,5-84.1,4.5-20.4-.9-40.8-2-60.9-5.6l-.6-.8c2.3-15,5.6-29.9,7.9-44.9,15.7,4.2,31.7,7,47.8,9.3,11.8,1.3,23.6,2.8,35.5,2.5,0-14.7-.7-29.4-.8-44.1Z"/>
</svg>