<?xml version="1.0" encoding="utf-8"?>
<svg xmlns="http://www.w3.org/2000/svg" height="512pt" version="1.1" viewBox="0 0 512 512" width="512pt">
<path d="M 0.00 0.00 L 512.00 0.00 L 512.00 512.00 L 0.00 512.00 L 0.00 0.00 Z" fill="transparent" opacity="1.00" stroke="transparent" stroke-width="0.25"/>
<path d="M 250.98 48.04 C 252.19 46.35 254.25 46.26 256.13 46.01 C 258.91 51.00 259.18 56.98 259.91 62.55 C 266.93 58.52 274.27 54.94 282.05 52.60 C 284.07 51.92 286.01 52.96 287.77 53.86 C 288.07 60.59 285.21 66.89 284.09 73.44 C 307.99 79.77 329.15 95.08 343.21 115.33 C 352.40 109.87 363.49 108.35 373.98 109.90 C 389.17 112.33 402.91 122.51 409.76 136.28 C 415.40 146.47 416.69 158.52 415.51 169.95 C 413.84 185.14 405.92 199.59 393.74 208.87 C 381.80 218.17 365.35 221.82 350.74 217.48 C 344.76 229.91 336.21 240.94 325.97 250.15 C 330.34 253.45 335.07 256.24 339.32 259.72 C 354.97 272.07 367.56 288.34 375.67 306.55 C 380.00 317.18 383.13 328.50 382.77 340.06 C 396.52 343.84 407.81 354.22 414.25 366.75 C 421.40 381.66 422.74 399.01 419.05 415.05 C 416.68 424.81 411.93 434.47 403.79 440.67 C 395.59 447.20 384.36 449.68 374.15 447.52 C 369.40 446.69 365.03 443.74 362.73 439.49 C 360.08 433.90 361.27 426.11 366.74 422.64 C 370.84 419.60 376.22 420.11 380.88 418.60 C 386.05 417.11 389.55 412.34 391.19 407.43 C 393.72 398.92 391.79 389.34 386.73 382.12 C 383.96 377.63 379.80 374.36 375.75 371.11 C 369.86 381.13 360.33 388.65 349.45 392.63 C 352.46 397.72 353.32 404.19 350.38 409.51 C 348.41 410.17 346.35 410.38 344.28 410.32 C 344.81 413.68 345.88 418.63 342.14 420.53 C 338.48 421.13 335.47 418.05 332.75 416.05 C 332.66 420.76 332.21 425.65 329.98 429.90 C 324.18 438.94 321.65 449.62 316.18 458.84 C 314.11 462.76 309.76 466.51 305.07 464.62 C 301.59 463.90 300.35 460.23 300.13 457.10 C 297.50 459.69 294.95 463.01 291.03 463.47 C 288.49 463.77 285.25 463.52 283.76 461.14 C 282.74 459.35 282.85 457.22 282.74 455.24 C 279.07 458.66 272.77 459.90 268.87 456.17 C 266.37 454.17 267.53 450.59 268.55 448.10 C 264.60 449.34 260.16 450.72 256.17 448.92 C 253.12 447.40 252.59 443.07 254.66 440.55 C 258.57 435.53 264.06 432.10 269.04 428.24 C 265.62 428.38 262.19 428.80 258.78 428.35 C 254.93 427.73 252.28 422.80 254.66 419.46 C 259.32 412.03 270.28 413.39 274.96 405.97 C 274.36 405.34 273.76 404.72 273.17 404.10 C 273.41 400.58 274.41 397.19 275.44 393.83 C 268.00 392.77 261.03 389.91 254.07 387.21 C 252.95 389.71 250.99 391.85 248.08 392.01 C 247.75 395.98 248.16 400.00 247.46 403.94 C 247.26 405.41 246.11 406.40 244.90 407.09 C 246.14 410.47 247.38 414.68 244.07 417.32 C 242.93 417.44 241.79 417.56 240.66 417.70 C 240.28 422.40 239.11 427.53 235.14 430.54 C 228.06 435.66 219.14 436.99 210.66 437.78 C 203.81 441.58 197.70 446.86 190.20 449.49 C 187.10 450.86 183.00 450.78 180.68 448.02 C 179.77 445.94 180.39 443.61 180.44 441.44 C 174.31 445.18 166.72 449.43 159.42 446.69 C 155.84 445.39 155.04 441.30 155.52 437.93 C 156.65 436.76 157.82 435.65 158.94 434.48 C 151.39 435.46 142.83 436.89 136.21 432.13 C 133.96 428.93 134.40 423.95 138.12 422.07 C 143.46 419.68 149.44 419.49 155.11 418.35 C 148.94 416.93 141.71 413.03 141.43 405.90 C 142.96 404.05 144.77 402.29 147.27 401.97 C 157.00 400.79 166.80 402.08 176.54 402.68 C 175.96 391.06 176.95 379.29 180.79 368.25 C 184.92 357.77 190.74 347.72 199.16 340.11 C 203.36 336.13 208.34 333.11 213.31 330.20 C 213.25 326.08 213.61 321.97 213.67 317.85 C 212.59 317.74 211.52 317.63 210.45 317.53 C 206.92 320.28 202.72 323.67 197.93 322.29 C 195.76 321.26 193.93 319.67 192.08 318.17 C 188.83 320.80 185.69 325.49 180.95 324.45 C 177.29 322.54 176.24 317.82 173.07 315.47 C 169.03 316.70 165.84 321.73 160.98 320.21 C 157.73 317.38 156.35 313.03 153.93 309.53 C 150.14 311.12 145.80 313.45 141.77 311.26 C 140.78 308.51 140.29 305.63 140.21 302.71 C 135.56 303.94 130.63 304.96 125.92 303.41 C 125.53 302.84 124.76 301.71 124.37 301.14 C 124.24 297.44 125.93 294.14 127.53 290.94 C 126.31 289.21 125.16 287.44 124.18 285.56 C 119.05 285.64 113.50 285.04 109.41 281.64 C 104.74 278.28 102.35 272.84 99.98 267.80 C 96.71 260.07 93.20 252.43 90.18 244.59 C 88.80 240.50 86.99 236.33 87.40 231.92 C 87.63 228.68 90.66 225.75 94.00 226.28 C 97.49 226.46 99.58 229.72 101.43 232.28 C 101.37 228.28 100.74 224.12 102.46 220.36 C 105.18 216.23 111.34 216.31 113.97 220.51 C 114.24 220.56 114.77 220.65 115.04 220.69 C 114.96 216.60 116.57 212.03 120.94 210.89 C 97.53 195.83 89.54 162.92 101.10 138.06 C 105.82 128.36 113.46 120.09 123.00 114.98 C 136.98 107.45 154.86 107.27 168.75 115.14 C 183.46 93.88 206.17 78.43 231.33 72.46 C 237.13 63.76 243.64 55.48 250.98 48.04 Z" fill="#042543" opacity="1.00" stroke="#042543" stroke-width="0.25"/>
<path d="M 234.89 78.91 C 240.49 71.52 245.80 63.84 251.98 56.89 C 252.95 62.14 254.29 67.31 255.27 72.55 C 258.46 71.50 261.39 69.86 264.25 68.13 C 269.23 65.11 274.68 63.02 279.82 60.30 C 278.88 66.47 276.88 72.42 276.19 78.62 C 293.23 82.66 309.64 90.35 322.51 102.39 C 333.38 112.10 342.32 124.16 347.38 137.91 C 355.32 157.50 355.78 179.75 349.99 199.97 C 343.41 222.97 327.55 243.02 306.99 255.15 C 273.44 275.45 227.74 273.23 196.42 249.59 C 183.30 239.58 172.30 226.47 165.96 211.14 C 158.10 193.71 156.33 173.85 159.58 155.10 C 163.21 135.08 173.61 116.31 188.85 102.81 C 201.67 90.86 217.89 82.86 234.89 78.91 Z" fill="#8ee9fe" opacity="1.00" stroke="#8ee9fe" stroke-width="0.25"/>
<path d="M 123.82 122.70 C 133.82 116.32 146.66 114.80 157.97 118.25 C 160.48 118.87 162.76 120.15 164.86 121.64 C 161.72 126.67 159.34 132.11 157.13 137.59 C 151.50 133.88 144.43 133.44 137.97 134.70 C 129.90 137.45 124.00 144.86 121.83 152.95 C 118.83 162.91 120.23 174.26 126.21 182.86 C 130.64 189.01 137.35 193.78 144.96 194.88 C 147.98 195.44 151.06 195.42 154.12 195.59 C 154.45 201.03 156.91 206.00 157.81 211.34 C 149.83 212.23 141.49 212.44 133.86 209.54 C 123.89 206.08 115.52 198.77 110.17 189.73 C 102.64 177.35 101.22 161.83 104.83 147.95 C 107.86 137.65 114.59 128.30 123.82 122.70 Z" fill="#f76a51" opacity="1.00" stroke="#f76a51" stroke-width="0.25"/>
<path d="M 347.23 120.97 C 357.39 115.99 369.54 114.86 380.23 118.85 C 397.50 124.85 409.21 142.84 408.75 160.97 C 409.59 175.25 403.94 189.79 393.58 199.65 C 385.88 207.45 374.97 212.11 363.98 211.89 C 360.66 211.86 357.35 211.56 354.05 211.32 C 355.00 205.90 357.20 200.80 358.30 195.41 C 367.60 196.04 377.50 192.85 383.53 185.48 C 395.32 172.29 394.18 149.20 380.19 138.00 C 373.11 131.89 362.43 133.24 354.81 137.58 C 352.72 131.84 349.58 126.58 347.23 120.97 Z" fill="#f76a51" opacity="1.00" stroke="#f76a51" stroke-width="0.25"/>
<path d="M 194.55 139.54 C 211.02 124.36 238.61 124.80 255.31 139.41 C 267.22 130.89 282.42 126.91 296.98 128.83 C 307.47 130.26 317.85 134.96 324.88 143.05 C 330.42 150.04 333.21 159.08 332.86 167.98 C 333.04 176.17 330.80 184.17 327.79 191.72 C 325.06 199.07 320.36 205.43 316.23 212.02 C 317.64 217.68 318.87 223.63 317.13 229.39 C 313.52 241.94 302.84 250.99 291.43 256.46 C 270.10 266.44 244.65 266.81 222.80 258.22 C 211.54 253.59 200.67 246.19 194.84 235.21 C 189.76 225.84 189.99 213.91 195.72 204.88 C 190.22 196.37 185.63 187.10 184.12 176.98 C 181.63 163.87 184.22 148.76 194.55 139.54 Z" fill="#042543" opacity="1.00" stroke="#042543" stroke-width="0.25"/>
<path d="M 208.95 135.02 C 224.47 129.10 242.99 132.69 255.15 144.02 C 266.68 135.12 281.69 130.81 296.17 132.65 C 305.91 133.98 315.89 137.85 322.18 145.71 C 328.38 153.17 329.92 163.46 328.88 172.85 C 327.57 187.37 320.19 200.52 311.42 211.85 C 316.77 220.55 314.07 232.13 307.72 239.56 C 297.40 251.73 281.55 257.76 266.08 259.82 C 248.13 262.07 229.20 258.86 213.66 249.35 C 204.61 243.66 196.45 234.93 195.06 223.91 C 193.92 217.46 196.24 211.07 199.46 205.58 C 200.54 204.10 198.99 202.76 198.32 201.53 C 189.36 189.50 185.41 173.79 187.79 158.98 C 189.83 147.88 198.60 138.92 208.95 135.02 Z" fill="#fec2a3" opacity="1.00" stroke="#fec2a3" stroke-width="0.25"/>
<path d="M 137.69 139.60 C 140.95 137.91 144.75 138.47 148.24 138.95 C 145.83 139.13 143.43 139.29 141.03 139.55 C 144.52 140.27 148.18 138.76 151.54 140.16 C 152.93 140.66 154.29 141.23 155.67 141.78 C 153.59 150.05 151.39 158.40 151.33 167.00 C 150.91 174.89 151.57 182.77 152.54 190.60 C 146.39 191.11 139.96 189.93 135.09 185.91 C 126.24 179.11 122.99 166.72 125.59 156.12 C 126.93 149.20 131.20 142.64 137.69 139.60 Z" fill="#f76a51" opacity="1.00" stroke="#f76a51" stroke-width="0.25"/>
<path d="M 356.33 141.74 C 361.20 139.77 366.40 137.57 371.76 138.77 C 377.84 140.35 382.37 145.57 384.73 151.20 C 389.28 162.46 387.27 176.78 377.90 185.02 C 372.90 189.60 365.99 191.26 359.34 190.62 C 361.99 174.34 360.90 157.58 356.33 141.74 Z" fill="#f76a51" opacity="1.00" stroke="#f76a51" stroke-width="0.25"/>
<path d="M 282.38 169.54 C 290.23 166.14 300.05 171.71 301.67 179.98 C 304.12 188.43 296.89 198.14 287.99 197.73 C 280.05 198.37 272.64 191.00 273.21 183.04 C 272.86 177.09 276.90 171.59 282.38 169.54 Z" fill="#042543" opacity="1.00" stroke="#042543" stroke-width="0.25"/>
<path d="M 219.14 169.95 C 225.10 167.87 232.25 170.13 235.80 175.39 C 240.14 181.38 238.84 190.51 233.11 195.15 C 226.25 201.52 213.75 198.32 210.54 189.59 C 207.17 182.07 211.26 172.53 219.14 169.95 Z" fill="#042543" opacity="1.00" stroke="#042543" stroke-width="0.25"/>
<path d="M 248.75 190.78 C 253.40 189.73 258.28 190.14 262.99 190.59 C 263.76 191.33 264.53 192.08 265.31 192.82 C 265.90 195.21 266.84 197.92 265.21 200.13 C 262.33 203.52 259.04 206.61 256.99 210.63 C 254.03 210.44 253.02 207.49 251.36 205.57 C 249.55 203.38 247.48 201.45 245.48 199.45 C 244.99 196.19 245.16 192.19 248.75 190.78 Z" fill="#042543" opacity="1.00" stroke="#042543" stroke-width="0.25"/>
<path d="M 248.85 195.61 C 252.80 193.73 257.31 194.83 261.51 194.60 C 262.19 198.41 258.29 200.53 255.99 202.88 C 253.17 200.94 250.98 198.25 248.85 195.61 Z" fill="#f76a51" opacity="1.00" stroke="#f76a51" stroke-width="0.25"/>
<path d="M 271.67 212.19 C 275.20 212.25 275.78 216.19 276.16 218.93 C 276.59 225.15 274.77 231.83 270.25 236.30 C 265.20 241.13 257.58 242.42 250.92 240.92 C 243.94 239.57 237.37 236.24 232.07 231.51 C 232.62 230.42 233.19 229.34 233.77 228.26 C 239.34 231.00 244.43 234.99 250.67 236.16 C 255.95 237.13 262.18 237.24 266.43 233.43 C 271.66 228.89 272.84 221.03 270.87 214.63 C 271.07 214.02 271.47 212.80 271.67 212.19 Z" fill="#042543" opacity="1.00" stroke="#042543" stroke-width="0.25"/>
<path d="M 120.68 215.56 C 122.63 215.12 125.03 215.29 125.71 217.56 C 128.64 224.63 127.78 232.53 129.44 239.88 C 130.21 240.05 131.74 240.41 132.51 240.58 C 133.98 234.49 133.59 228.11 135.00 222.01 C 135.37 220.26 136.85 219.24 138.19 218.26 C 142.14 225.08 140.51 233.41 139.60 240.84 C 137.10 243.68 133.35 244.59 130.14 246.35 C 124.04 250.04 120.89 257.90 122.74 264.80 C 123.19 266.44 124.62 267.50 125.81 268.61 C 126.54 268.26 128.01 267.54 128.74 267.19 C 128.29 265.33 127.33 263.67 126.54 261.96 C 126.10 257.42 128.18 252.59 132.07 250.10 C 135.06 247.88 139.38 247.95 141.74 244.83 C 145.75 240.58 150.87 235.05 157.33 236.70 C 159.28 243.92 152.74 249.13 151.11 255.60 C 152.66 256.88 154.23 258.13 155.82 259.36 C 152.84 260.15 149.69 260.56 146.93 262.01 C 144.71 265.93 148.83 269.34 150.71 272.43 C 150.69 272.92 150.64 273.90 150.62 274.39 C 147.25 273.81 143.87 273.20 140.44 273.13 C 139.20 276.93 139.78 280.95 139.66 284.87 C 136.38 283.25 133.37 281.13 130.04 279.63 C 123.93 280.20 117.05 281.15 111.74 277.27 C 106.12 272.55 104.20 265.17 101.19 258.78 C 98.09 252.31 95.52 245.61 92.89 238.93 C 91.84 236.16 90.69 232.83 92.92 230.30 C 97.24 232.17 99.09 236.71 101.46 240.44 C 103.46 243.56 104.77 247.10 107.00 250.07 C 107.86 251.20 109.46 250.51 110.65 250.65 C 109.04 242.07 104.65 233.90 105.49 224.93 C 105.29 223.27 106.86 222.33 107.79 221.24 C 109.59 222.35 111.59 223.51 112.31 225.64 C 114.70 231.26 115.90 237.33 116.92 243.33 C 118.11 243.71 119.28 244.12 120.45 244.56 C 121.60 234.94 117.07 224.96 120.68 215.56 Z" fill="#fec2a3" opacity="1.00" stroke="#fec2a3" stroke-width="0.25"/>
<path d="M 129.49 215.44 C 130.61 215.80 131.72 216.16 132.83 216.52 C 132.20 217.66 131.56 218.79 130.93 219.93 C 130.47 218.42 129.98 216.93 129.49 215.44 Z" fill="#ffffff" opacity="1.00" stroke="#ffffff" stroke-width="0.25"/>
<path d="M 144.10 219.32 C 149.85 219.54 155.66 219.08 161.22 217.52 C 168.63 232.92 180.00 246.35 193.85 256.35 C 182.22 256.41 170.97 252.36 161.27 246.10 C 162.38 241.87 163.49 236.49 159.57 233.33 C 154.78 229.68 148.74 233.13 144.54 236.04 C 145.23 230.48 145.51 224.79 144.10 219.32 Z" fill="#ffffff" opacity="1.00" stroke="#ffffff" stroke-width="0.25"/>
<path d="M 157.36 254.96 C 157.38 253.70 156.73 251.63 158.78 252.25 C 171.58 261.71 188.29 265.27 203.91 262.76 C 234.64 279.93 273.97 280.62 305.13 264.15 C 310.40 261.70 314.99 258.09 319.96 255.16 C 336.56 264.46 350.55 278.18 361.11 293.97 C 372.23 311.22 378.48 332.34 374.88 352.85 C 372.56 366.09 364.20 378.44 351.72 383.97 C 351.39 381.57 351.04 379.19 350.68 376.81 C 352.51 376.34 354.48 376.09 356.10 375.04 C 357.37 372.21 357.31 369.01 357.30 365.98 C 356.86 352.75 354.80 338.99 347.53 327.64 C 346.44 326.42 346.89 324.89 347.24 323.50 C 351.17 324.17 355.19 324.61 359.18 324.11 C 361.24 323.70 360.53 321.55 360.35 320.09 C 355.76 320.41 351.20 319.65 346.62 319.37 C 346.67 318.19 346.73 317.01 346.79 315.84 C 350.48 315.61 354.28 316.62 357.87 315.65 C 359.83 315.40 360.07 312.11 358.15 311.56 C 354.37 309.59 350.01 309.44 345.85 309.51 C 345.78 308.48 345.64 306.42 345.57 305.40 C 348.57 305.26 351.57 305.33 354.58 305.47 C 354.53 304.21 354.52 302.96 354.52 301.71 C 351.27 300.77 347.91 300.33 344.53 300.53 C 343.58 292.29 341.80 284.13 339.31 276.22 C 338.41 276.29 337.52 276.40 336.64 276.56 C 335.74 278.09 336.69 279.85 336.92 281.44 C 340.41 295.00 341.97 308.99 342.30 322.96 C 342.32 337.76 340.34 352.46 337.95 367.03 C 335.66 382.20 334.09 398.05 338.57 412.98 C 333.94 410.72 330.69 406.57 326.54 403.65 C 325.43 402.92 324.00 403.46 322.77 403.34 C 321.87 406.17 321.05 409.02 320.29 411.90 C 317.88 408.66 316.14 404.86 312.99 402.24 C 310.48 404.61 309.57 407.97 308.03 410.94 C 305.86 410.76 305.45 408.12 304.27 406.70 C 302.64 404.35 301.01 399.93 297.35 401.49 C 295.08 402.99 293.44 405.28 291.45 407.13 C 291.45 403.57 291.42 399.96 290.22 396.57 C 286.40 396.00 283.33 398.55 280.08 400.10 C 290.79 360.67 304.56 321.21 304.61 279.88 C 305.03 277.64 303.31 277.30 301.40 277.50 C 300.53 285.04 300.33 292.64 299.18 300.16 C 296.51 291.73 290.21 284.62 282.26 280.81 C 272.10 276.46 259.85 277.62 250.59 283.62 C 241.94 289.24 235.21 297.73 231.53 307.36 C 227.22 317.58 226.05 329.42 229.58 340.05 C 235.36 356.49 255.34 364.73 271.60 360.46 C 277.66 359.03 283.16 355.97 288.20 352.39 C 285.14 364.26 281.26 375.93 277.49 387.60 C 266.02 384.78 254.68 380.75 245.08 373.68 C 242.22 371.75 240.35 375.98 238.82 377.80 C 231.64 388.24 234.46 401.37 232.53 413.11 C 230.19 409.73 228.77 405.77 226.24 402.53 C 225.35 401.27 223.58 401.60 222.61 402.56 C 220.44 404.76 218.88 407.45 216.97 409.85 C 213.76 405.43 212.44 399.70 208.11 396.15 C 203.88 398.55 200.35 401.93 196.50 404.86 C 196.37 401.35 196.01 397.87 195.34 394.43 C 190.89 393.93 187.27 396.89 183.53 398.78 C 182.73 383.55 186.30 367.89 195.21 355.36 C 201.22 346.61 209.61 339.13 219.74 335.62 C 220.41 315.94 224.13 296.42 230.51 277.80 C 231.10 275.97 229.40 275.14 227.79 275.33 C 224.63 280.44 223.40 286.68 219.07 291.08 C 213.98 297.55 206.07 301.09 198.04 302.10 C 180.97 304.30 163.87 299.50 148.33 292.76 C 146.74 292.13 143.83 291.43 143.57 293.88 C 144.79 296.09 147.77 296.38 149.87 297.48 C 164.96 303.92 181.55 307.96 198.02 306.08 C 205.17 304.86 212.84 302.82 217.88 297.27 C 216.90 302.09 215.53 306.83 214.93 311.73 C 213.22 311.05 211.39 309.80 209.49 310.56 C 206.66 311.83 204.54 314.22 201.87 315.73 C 197.79 316.16 195.93 310.42 191.94 310.60 C 188.50 312.24 186.35 315.66 183.22 317.77 C 180.96 314.35 178.32 311.20 175.33 308.39 C 170.87 307.45 167.70 311.24 164.58 313.71 C 161.35 310.22 159.59 305.70 156.51 302.09 C 153.23 302.81 150.08 303.99 146.86 304.89 C 146.50 301.83 146.75 297.96 143.89 295.96 C 139.85 295.08 135.83 296.88 131.84 297.46 C 133.30 294.09 135.58 290.22 133.41 286.62 C 136.39 287.76 139.97 289.97 143.07 288.13 C 144.82 285.15 144.25 281.55 144.36 278.26 C 148.33 278.83 152.38 278.67 156.19 277.36 C 159.34 272.74 154.09 268.87 151.73 265.35 C 154.74 264.17 159.16 264.43 160.61 260.99 C 161.10 258.40 158.98 256.58 157.36 254.96 Z" fill="#8ee9fe" opacity="1.00" stroke="#8ee9fe" stroke-width="0.25"/>
<path d="M 244.02 294.07 C 250.55 286.75 260.06 281.61 270.06 282.13 C 278.77 281.91 287.29 286.71 292.00 293.97 C 295.24 298.39 296.87 303.72 298.43 308.91 C 296.66 321.44 293.79 333.84 290.36 346.02 C 284.20 350.66 277.72 355.32 270.04 356.99 C 257.54 359.55 243.17 355.11 235.74 344.37 C 231.30 337.53 230.68 328.96 231.57 321.06 C 232.93 311.10 237.41 301.60 244.02 294.07 Z" fill="#fec2a3" opacity="1.00" stroke="#fec2a3" stroke-width="0.25"/>
<path d="M 345.79 335.85 C 349.41 347.23 351.06 359.16 350.77 371.09 C 348.94 370.22 347.06 369.44 345.04 369.14 C 343.02 375.41 346.26 381.80 345.44 388.17 C 344.20 387.50 342.98 386.82 341.76 386.15 C 341.36 386.72 340.58 387.87 340.19 388.44 L 339.90 389.20 C 339.73 389.34 339.40 389.61 339.24 389.75 C 340.30 371.68 344.78 353.95 345.79 335.85 Z" fill="#8ee9fe" opacity="1.00" stroke="#8ee9fe" stroke-width="0.25"/>
<path d="M 382.71 347.33 C 395.17 351.69 405.16 361.97 409.75 374.28 C 414.13 385.44 414.72 397.77 412.98 409.53 C 411.10 420.63 405.70 432.06 395.47 437.66 C 388.73 441.16 380.48 442.18 373.21 439.80 C 369.41 438.53 367.85 434.47 368.27 430.74 C 372.80 425.50 380.47 427.14 386.13 424.09 C 392.16 421.36 396.14 415.44 398.09 409.29 C 400.95 398.57 398.71 386.69 392.29 377.66 C 388.58 372.31 383.57 368.02 378.28 364.29 C 380.89 359.00 381.88 353.12 382.71 347.33 Z" fill="#8ee9fe" opacity="1.00" stroke="#8ee9fe" stroke-width="0.25"/>
<path d="M 237.02 399.66 C 237.61 391.87 238.40 383.23 243.77 377.11 C 245.21 378.04 246.67 378.97 248.13 379.89 C 248.17 381.85 248.22 383.80 248.28 385.77 C 246.69 384.31 244.91 382.67 242.61 383.61 C 241.83 389.33 242.24 395.10 242.47 400.84 C 241.77 400.45 240.35 399.66 239.65 399.27 C 238.99 399.37 237.68 399.56 237.02 399.66 Z" fill="#8ee9fe" opacity="1.00" stroke="#8ee9fe" stroke-width="0.25"/>
<path d="M 339.26 391.22 C 339.83 391.52 340.95 392.12 341.51 392.42 C 343.17 396.74 345.64 400.74 346.64 405.31 C 344.59 404.99 342.55 404.70 340.50 404.45 C 339.88 400.06 339.46 395.65 339.26 391.22 Z" fill="#8ee9fe" opacity="1.00" stroke="#8ee9fe" stroke-width="0.25"/>
<path d="M 183.59 404.54 C 185.97 403.08 188.63 402.18 191.28 401.36 C 191.28 404.80 191.12 408.85 194.76 410.59 C 199.81 409.80 203.11 405.78 207.08 403.01 C 209.37 407.25 211.18 412.02 214.73 415.38 C 219.71 416.90 221.32 410.53 224.42 408.01 C 227.03 412.08 228.15 419.16 234.29 418.81 C 234.71 417.72 235.14 416.64 235.58 415.57 C 235.55 419.72 234.50 424.45 230.80 426.89 C 225.21 430.45 218.46 431.61 211.96 432.24 C 210.69 432.46 209.25 432.27 208.16 433.06 C 201.65 437.55 195.30 442.55 187.83 445.37 C 186.81 445.50 184.60 446.24 184.79 444.45 C 184.66 439.64 189.23 436.93 190.81 432.81 C 190.11 432.51 188.72 431.92 188.02 431.62 C 182.26 436.04 175.80 439.55 168.96 442.00 C 166.12 443.08 163.02 442.71 160.06 442.52 C 160.24 441.09 159.98 439.34 161.36 438.43 C 166.04 434.31 172.04 432.20 177.56 429.45 C 177.51 428.41 177.46 427.38 177.41 426.35 C 172.92 425.98 168.78 427.95 164.47 428.81 C 156.33 430.40 147.50 432.06 139.48 429.10 C 139.59 428.32 139.80 426.75 139.91 425.97 C 149.77 422.46 160.51 422.84 170.62 420.31 C 170.60 419.12 170.57 417.94 170.53 416.76 C 164.28 416.18 157.94 415.18 152.16 412.62 C 149.76 411.26 146.61 409.86 146.29 406.77 C 156.19 405.97 166.15 406.27 176.04 407.20 C 178.90 407.77 181.24 405.79 183.59 404.54 Z" fill="#fec2a3" opacity="1.00" stroke="#fec2a3" stroke-width="0.25"/>
<path d="M 279.43 407.39 C 281.34 405.30 283.93 404.08 286.46 402.92 C 286.55 406.88 286.08 412.56 290.95 413.85 C 293.63 411.97 296.18 409.90 298.38 407.47 C 301.25 410.10 302.72 414.06 305.98 416.25 C 309.14 417.64 311.65 414.81 312.85 412.24 C 313.25 412.24 314.05 412.24 314.45 412.23 C 316.46 414.78 318.71 417.67 322.32 417.63 C 324.27 415.35 324.41 412.17 326.18 409.82 C 327.10 414.11 327.51 418.56 326.60 422.89 C 326.03 427.30 323.06 430.79 321.58 434.87 C 318.87 442.15 316.07 449.46 312.20 456.23 C 310.88 458.47 308.76 461.23 305.78 460.31 C 304.24 458.63 304.50 456.16 305.06 454.15 C 306.27 449.86 308.16 445.81 309.81 441.69 C 310.90 440.13 310.25 438.44 309.12 437.15 C 305.61 439.10 304.25 443.07 302.06 446.19 C 299.27 450.26 296.86 454.81 292.83 457.82 C 291.31 459.13 289.19 458.65 287.37 458.74 C 287.34 456.80 286.98 454.71 287.98 452.94 C 290.84 447.58 295.71 443.50 298.10 437.85 C 299.04 436.06 295.66 435.64 294.80 436.65 C 288.58 442.93 283.51 451.07 274.97 454.47 C 274.29 454.17 272.92 453.58 272.24 453.28 C 272.31 451.82 272.05 450.25 272.90 448.96 C 275.74 443.66 280.43 439.76 284.55 435.50 C 284.51 435.05 284.44 434.15 284.40 433.70 C 283.81 433.55 282.62 433.25 282.03 433.10 C 275.06 438.63 267.91 445.90 258.31 445.59 C 258.15 443.81 258.39 442.00 260.01 440.95 C 267.29 434.40 275.50 428.95 282.57 422.13 C 282.56 421.19 282.55 420.26 282.54 419.33 C 278.37 419.17 274.85 421.76 270.90 422.67 C 266.95 423.92 262.75 424.17 258.67 423.54 C 258.65 423.02 258.61 421.99 258.59 421.47 C 262.38 418.75 266.56 416.67 270.93 415.09 C 274.75 413.81 276.71 410.06 279.43 407.39 Z" fill="#fec2a3" opacity="1.00" stroke="#fec2a3" stroke-width="0.25"/>
<path d="M 237.62 403.96 C 239.14 406.76 240.52 409.65 241.54 412.67 C 240.00 411.55 238.32 410.56 237.06 409.12 C 237.10 407.38 237.37 405.67 237.62 403.96 Z" fill="#8ee9fe" opacity="1.00" stroke="#8ee9fe" stroke-width="0.25"/>
</svg>