<?xml version="1.0" encoding="utf-8"?>
<svg xmlns="http://www.w3.org/2000/svg" height="512pt" version="1.1" viewBox="0 0 512 512" width="512pt">
<path d="M 0.00 0.00 L 512.00 0.00 L 512.00 512.00 L 0.00 512.00 L 0.00 0.00 Z" fill="transparent" opacity="1.00" stroke="transparent" stroke-width="0.25"/>
<path d="M 159.52 84.57 C 195.11 63.32 237.90 55.09 278.96 59.54 C 307.76 62.60 335.79 72.38 360.32 87.76 C 389.97 106.79 414.85 133.53 430.73 165.06 C 439.69 183.60 445.89 203.50 448.69 223.92 C 451.55 245.35 450.56 267.18 446.65 288.41 C 439.03 326.55 419.41 362.31 390.95 388.87 C 370.33 407.96 345.10 421.32 318.94 431.11 C 306.92 434.91 294.49 437.28 281.98 438.67 C 270.32 439.85 258.76 442.40 246.99 442.12 C 225.04 441.82 203.05 437.67 182.76 429.22 C 165.53 422.29 149.91 411.98 135.22 400.76 C 125.29 393.12 114.76 385.55 108.29 374.53 C 102.18 362.97 95.18 351.90 88.79 340.48 C 84.86 333.16 81.99 325.33 79.20 317.52 C 76.29 308.82 72.00 300.66 68.81 292.07 C 63.12 272.63 60.62 252.05 63.40 231.90 C 64.77 217.66 68.14 203.72 72.46 190.10 C 75.58 177.45 83.95 167.14 89.72 155.67 C 100.59 137.29 114.28 120.51 130.13 106.20 C 139.87 98.91 149.55 91.53 159.52 84.57 Z" fill="#10527c" opacity="1.00" stroke="#10527c" stroke-width="0.25"/>
<path d="M 157.67 93.72 C 183.99 76.82 214.94 67.92 246.00 65.67 C 297.54 62.52 350.13 81.80 387.02 118.02 C 420.00 149.00 439.95 192.91 442.76 237.97 C 444.14 261.53 441.57 285.47 434.07 307.91 C 422.02 345.08 397.54 378.12 365.46 400.44 C 332.88 423.47 292.72 434.88 252.97 434.44 C 241.89 434.56 230.88 433.06 219.99 431.12 L 219.74 430.86 C 217.48 428.51 215.17 426.24 212.85 423.97 C 214.92 421.76 218.14 418.96 216.37 415.62 C 212.55 410.63 205.04 409.63 202.27 403.65 C 200.99 401.65 201.94 398.92 203.84 397.70 C 207.16 396.34 210.82 396.28 214.21 395.16 C 216.19 394.36 217.18 392.26 218.67 390.85 C 213.98 387.83 208.93 385.46 203.79 383.34 C 204.39 376.75 200.46 371.11 199.71 364.74 C 204.48 365.90 208.93 368.10 212.74 371.21 C 215.03 373.22 218.07 373.72 220.98 374.13 C 222.18 370.44 222.88 366.61 222.79 362.72 C 227.39 362.24 231.95 361.52 236.45 360.48 C 237.46 358.60 238.50 356.74 239.55 354.88 C 242.55 353.99 245.48 352.88 248.38 351.72 C 248.32 345.63 250.01 339.57 249.23 333.51 C 247.42 329.14 241.18 328.80 239.53 324.28 C 237.48 319.96 239.95 315.44 240.47 311.07 C 241.48 303.64 237.98 296.28 232.58 291.30 C 231.88 287.97 232.12 283.98 229.48 281.44 C 226.36 278.92 222.20 278.31 218.89 276.13 C 217.56 275.22 217.53 273.47 217.51 272.04 C 221.07 269.86 224.71 267.68 227.41 264.42 C 229.67 261.64 232.17 259.08 234.91 256.76 C 238.75 259.34 243.15 260.99 247.27 263.08 C 249.08 261.19 252.07 259.79 252.21 256.84 C 252.47 255.07 252.58 253.29 252.72 251.52 C 253.92 250.19 255.11 248.87 256.32 247.56 C 254.48 245.87 252.98 243.46 250.37 242.94 C 245.85 241.65 241.01 241.92 236.56 240.37 C 234.71 239.87 234.71 237.63 234.56 236.09 C 233.93 230.08 238.21 224.84 242.90 221.67 C 246.84 222.96 250.84 224.15 255.05 223.82 C 261.95 223.15 267.62 228.84 274.49 228.22 C 279.86 227.36 282.89 222.04 283.40 217.01 C 283.74 210.84 290.51 207.32 290.17 200.99 C 290.28 197.94 288.94 193.28 285.08 193.67 C 282.11 194.78 279.43 196.56 276.44 197.62 C 274.46 198.18 271.99 197.82 270.72 196.06 C 269.69 192.67 271.56 189.38 272.49 186.20 C 277.53 186.56 282.14 188.75 287.01 189.76 C 289.86 188.76 291.67 186.04 294.27 184.58 C 297.52 184.80 300.55 186.16 303.65 187.06 C 303.71 189.04 303.78 191.03 303.69 193.01 C 303.56 197.44 299.03 200.48 299.29 204.97 C 300.17 208.59 303.99 211.01 304.00 214.96 C 304.37 219.71 303.86 225.08 307.23 228.95 C 310.95 233.87 317.85 232.89 323.03 234.98 C 324.50 238.17 326.26 241.24 327.75 244.44 C 330.83 244.67 333.92 244.89 337.02 245.06 C 336.49 249.77 334.59 254.83 336.57 259.42 C 337.71 261.88 340.88 265.03 343.54 262.56 C 346.34 259.29 347.73 255.04 348.85 250.95 C 350.13 246.24 346.50 241.90 346.93 237.24 C 349.16 231.07 354.42 226.55 360.05 223.48 C 361.31 225.69 362.59 227.90 363.82 230.13 C 365.95 229.27 368.60 229.10 369.99 227.01 C 373.26 222.90 375.08 217.28 380.43 215.28 C 380.79 224.41 375.52 232.41 375.06 241.45 C 378.37 241.88 381.69 242.30 385.01 242.71 C 383.89 246.55 381.76 250.45 382.44 254.55 C 384.83 258.70 389.10 261.36 393.01 263.94 C 397.19 267.11 402.75 263.02 406.99 265.79 C 404.97 268.53 402.25 270.58 399.97 273.05 C 398.74 277.62 399.32 282.47 398.91 287.15 C 396.42 286.60 393.49 287.40 391.53 285.37 C 387.31 281.84 383.22 278.14 378.54 275.22 C 378.39 273.79 378.26 272.37 378.14 270.94 C 376.66 270.37 375.19 269.80 373.72 269.24 C 373.14 266.94 372.53 264.65 371.96 262.36 C 366.16 261.96 360.48 264.36 356.44 268.48 C 355.14 270.04 356.20 272.26 356.10 274.08 C 355.20 277.23 353.44 280.53 354.53 283.86 C 356.16 286.54 358.88 288.31 361.23 290.31 C 360.89 294.17 360.21 298.37 362.27 301.92 C 363.48 305.14 368.12 303.97 370.13 302.10 C 375.55 297.15 375.85 289.23 378.78 282.87 C 380.40 283.27 381.96 283.93 383.55 284.47 C 385.41 288.83 383.59 294.87 387.82 298.13 C 391.59 300.63 396.58 299.59 400.63 298.38 C 404.95 297.02 406.83 292.58 409.84 289.62 C 413.25 286.81 419.46 287.13 420.68 282.05 C 422.36 276.34 425.00 269.80 421.81 264.13 C 418.86 258.28 416.62 251.67 417.94 245.07 C 419.40 239.79 424.46 236.30 425.56 230.88 C 426.10 227.03 426.00 222.58 423.26 219.53 C 419.69 215.68 414.04 214.55 410.69 210.45 C 408.26 207.53 406.25 204.17 403.13 201.90 C 396.32 196.88 387.86 194.62 379.50 194.13 C 378.53 190.81 377.97 187.39 377.29 184.00 C 377.11 180.87 373.56 180.06 371.51 178.38 C 367.77 176.25 367.44 171.38 364.52 168.52 C 361.83 166.15 358.34 164.75 356.03 161.95 C 354.64 160.23 353.50 158.34 352.34 156.48 C 350.23 156.45 348.13 156.45 346.02 156.44 C 345.35 159.19 345.19 162.21 343.66 164.67 C 341.43 166.60 337.30 167.33 335.32 164.67 C 333.15 162.27 334.27 158.81 334.04 155.92 C 334.23 151.79 332.44 147.93 330.36 144.48 C 327.65 139.73 320.28 139.80 318.75 134.12 C 318.28 131.80 318.06 129.45 318.05 127.06 C 320.92 128.36 323.75 130.65 327.04 130.44 C 331.06 128.87 332.70 123.63 330.92 119.85 C 329.89 117.66 328.46 115.68 326.91 113.83 C 324.16 110.32 319.25 110.46 315.61 108.39 C 311.68 106.16 307.86 102.95 303.03 103.33 C 299.22 102.81 294.71 104.83 294.34 109.06 C 295.07 113.24 296.12 117.36 296.91 121.53 C 292.23 121.17 287.59 121.92 282.93 122.10 C 279.43 122.07 275.96 118.48 272.60 120.71 C 267.61 124.06 265.61 130.09 263.11 135.27 C 258.60 134.62 256.17 130.71 252.84 128.22 C 249.78 128.71 246.76 129.71 243.79 130.62 C 243.29 126.81 243.50 122.92 242.61 119.16 C 240.69 115.85 236.84 114.31 234.58 111.27 C 233.30 108.99 232.88 106.35 231.84 103.97 C 230.30 103.05 228.49 102.75 226.83 102.08 C 225.87 103.35 224.86 104.59 223.89 105.86 C 219.49 104.51 213.87 102.41 213.53 97.00 C 213.05 94.18 216.17 93.47 218.24 92.98 C 223.77 91.92 229.38 91.14 235.01 90.72 C 240.87 90.20 245.59 94.44 251.17 95.38 C 258.29 96.45 266.14 96.59 272.32 92.33 C 276.81 89.17 282.34 91.00 287.27 91.70 C 289.17 93.99 290.89 96.53 293.36 98.25 C 295.34 97.94 297.18 97.12 299.07 96.47 C 299.54 95.31 300.01 94.14 300.49 92.98 C 303.01 92.42 305.82 92.38 308.06 90.95 C 309.01 89.78 309.45 88.23 310.22 86.92 C 305.16 83.59 299.95 80.51 294.97 77.05 C 292.64 75.40 289.96 74.20 287.08 74.03 C 280.75 73.46 274.37 73.30 268.02 73.42 C 261.77 73.46 256.19 76.71 250.08 77.54 C 243.37 78.52 236.52 78.52 229.82 77.55 C 224.41 76.82 218.75 75.84 213.43 77.61 C 208.05 79.34 203.17 82.29 197.82 84.11 C 188.65 87.53 178.63 87.49 169.44 90.85 C 165.64 92.25 161.66 93.03 157.67 93.72 Z" fill="#ffffff" opacity="1.00" stroke="#ffffff" stroke-width="0.25"/>
<path d="M 250.08 77.54 C 256.19 76.71 261.77 73.46 268.02 73.42 C 274.37 73.30 280.75 73.46 287.08 74.03 C 289.96 74.20 292.64 75.40 294.97 77.05 C 299.95 80.51 305.16 83.59 310.22 86.92 C 309.45 88.23 309.01 89.78 308.06 90.95 C 305.82 92.38 303.01 92.42 300.49 92.98 C 300.01 94.14 299.54 95.31 299.07 96.47 C 297.18 97.12 295.34 97.94 293.36 98.25 C 290.89 96.53 289.17 93.99 287.27 91.70 C 282.34 91.00 276.81 89.17 272.32 92.33 C 266.14 96.59 258.29 96.45 251.17 95.38 C 245.59 94.44 240.87 90.20 235.01 90.72 C 229.38 91.14 223.77 91.92 218.24 92.98 C 216.17 93.47 213.05 94.18 213.53 97.00 C 213.87 102.41 219.49 104.51 223.89 105.86 C 224.86 104.59 225.87 103.35 226.83 102.08 C 228.49 102.75 230.30 103.05 231.84 103.97 C 232.88 106.35 233.30 108.99 234.58 111.27 C 236.84 114.31 240.69 115.85 242.61 119.16 C 243.50 122.92 243.29 126.81 243.79 130.62 C 246.76 129.71 249.78 128.71 252.84 128.22 C 256.17 130.71 258.60 134.62 263.11 135.27 C 265.61 130.09 267.61 124.06 272.60 120.71 C 275.96 118.48 279.43 122.07 282.93 122.10 C 287.59 121.92 292.23 121.17 296.91 121.53 C 296.12 117.36 295.07 113.24 294.34 109.06 C 294.71 104.83 299.22 102.81 303.03 103.33 C 307.86 102.95 311.68 106.16 315.61 108.39 C 319.25 110.46 324.16 110.32 326.91 113.83 C 328.46 115.68 329.89 117.66 330.92 119.85 C 332.70 123.63 331.06 128.87 327.04 130.44 C 323.75 130.65 320.92 128.36 318.05 127.06 C 318.06 129.45 318.28 131.80 318.75 134.12 C 320.28 139.80 327.65 139.73 330.36 144.48 C 332.44 147.93 334.23 151.79 334.04 155.92 C 334.27 158.81 333.15 162.27 335.32 164.67 C 337.30 167.33 341.43 166.60 343.66 164.67 C 345.19 162.21 345.35 159.19 346.02 156.44 C 348.13 156.45 350.23 156.45 352.34 156.48 C 353.50 158.34 354.64 160.23 356.03 161.95 C 358.34 164.75 361.83 166.15 364.52 168.52 C 367.44 171.38 367.77 176.25 371.51 178.38 C 373.56 180.06 377.11 180.87 377.29 184.00 C 377.97 187.39 378.53 190.81 379.50 194.13 C 387.86 194.62 396.32 196.88 403.13 201.90 C 406.25 204.17 408.26 207.53 410.69 210.45 C 414.04 214.55 419.69 215.68 423.26 219.53 C 426.00 222.58 426.10 227.03 425.56 230.88 C 424.46 236.30 419.40 239.79 417.94 245.07 C 416.62 251.67 418.86 258.28 421.81 264.13 C 425.00 269.80 422.36 276.34 420.68 282.05 C 419.46 287.13 413.25 286.81 409.84 289.62 C 406.83 292.58 404.95 297.02 400.63 298.38 C 396.58 299.59 391.59 300.63 387.82 298.13 C 383.59 294.87 385.41 288.83 383.55 284.47 C 381.96 283.93 380.40 283.27 378.78 282.87 C 375.85 289.23 375.55 297.15 370.13 302.10 C 368.12 303.97 363.48 305.14 362.27 301.92 C 360.21 298.37 360.89 294.17 361.23 290.31 C 358.88 288.31 356.16 286.54 354.53 283.86 C 353.44 280.53 355.20 277.23 356.10 274.08 C 356.20 272.26 355.14 270.04 356.44 268.48 C 360.48 264.36 366.16 261.96 371.96 262.36 C 372.53 264.65 373.14 266.94 373.72 269.24 C 375.19 269.80 376.66 270.37 378.14 270.94 C 378.26 272.37 378.39 273.79 378.54 275.22 C 383.22 278.14 387.31 281.84 391.53 285.37 C 393.49 287.40 396.42 286.60 398.91 287.15 C 399.32 282.47 398.74 277.62 399.97 273.05 C 402.25 270.58 404.97 268.53 406.99 265.79 C 402.75 263.02 397.19 267.11 393.01 263.94 C 389.10 261.36 384.83 258.70 382.44 254.55 C 381.76 250.45 383.89 246.55 385.01 242.71 C 381.69 242.30 378.37 241.88 375.06 241.45 C 375.52 232.41 380.79 224.41 380.43 215.28 C 375.08 217.28 373.26 222.90 369.99 227.01 C 368.60 229.10 365.95 229.27 363.82 230.13 C 362.59 227.90 361.31 225.69 360.05 223.48 C 354.42 226.55 349.16 231.07 346.93 237.24 C 346.50 241.90 350.13 246.24 348.85 250.95 C 347.73 255.04 346.34 259.29 343.54 262.56 C 340.88 265.03 337.71 261.88 336.57 259.42 C 334.59 254.83 336.49 249.77 337.02 245.06 C 333.92 244.89 330.83 244.67 327.75 244.44 C 326.26 241.24 324.50 238.17 323.03 234.98 C 317.85 232.89 310.95 233.87 307.23 228.95 C 303.86 225.08 304.37 219.71 304.00 214.96 C 303.99 211.01 300.17 208.59 299.29 204.97 C 299.03 200.48 303.56 197.44 303.69 193.01 C 303.78 191.03 303.71 189.04 303.65 187.06 C 300.55 186.16 297.52 184.80 294.27 184.58 C 291.67 186.04 289.86 188.76 287.01 189.76 C 282.14 188.75 277.53 186.56 272.49 186.20 C 271.56 189.38 269.69 192.67 270.72 196.06 C 271.99 197.82 274.46 198.18 276.44 197.62 C 279.43 196.56 282.11 194.78 285.08 193.67 C 288.94 193.28 290.28 197.94 290.17 200.99 C 290.51 207.32 283.74 210.84 283.40 217.01 C 282.89 222.04 279.86 227.36 274.49 228.22 C 267.62 228.84 261.95 223.15 255.05 223.82 C 250.84 224.15 246.84 222.96 242.90 221.67 C 238.21 224.84 233.93 230.08 234.56 236.09 C 234.71 237.63 234.71 239.87 236.56 240.37 C 241.01 241.92 245.85 241.65 250.37 242.94 C 252.98 243.46 254.48 245.87 256.32 247.56 C 255.11 248.87 253.92 250.19 252.72 251.52 C 252.58 253.29 252.47 255.07 252.21 256.84 C 252.07 259.79 249.08 261.19 247.27 263.08 C 243.15 260.99 238.75 259.34 234.91 256.76 C 232.17 259.08 229.67 261.64 227.41 264.42 C 224.71 267.68 221.07 269.86 217.51 272.04 C 217.53 273.47 217.56 275.22 218.89 276.13 C 222.20 278.31 226.36 278.92 229.48 281.44 C 232.12 283.98 231.88 287.97 232.58 291.30 C 237.98 296.28 241.48 303.64 240.47 311.07 C 239.95 315.44 237.48 319.96 239.53 324.28 C 241.18 328.80 247.42 329.14 249.23 333.51 C 250.01 339.57 248.32 345.63 248.38 351.72 C 245.48 352.88 242.55 353.99 239.55 354.88 C 238.50 356.74 237.46 358.60 236.45 360.48 C 231.95 361.52 227.39 362.24 222.79 362.72 C 222.88 366.61 222.18 370.44 220.98 374.13 C 218.07 373.72 215.03 373.22 212.74 371.21 C 208.93 368.10 204.48 365.90 199.71 364.74 C 200.46 371.11 204.39 376.75 203.79 383.34 C 208.93 385.46 213.98 387.83 218.67 390.85 C 217.18 392.26 216.19 394.36 214.21 395.16 C 210.82 396.28 207.16 396.34 203.84 397.70 C 201.94 398.92 200.99 401.65 202.27 403.65 C 205.04 409.63 212.55 410.63 216.37 415.62 C 218.14 418.96 214.92 421.76 212.85 423.97 C 215.17 426.24 217.48 428.51 219.74 430.86 C 202.11 427.98 185.22 421.60 169.13 413.98 C 161.66 409.96 154.05 406.03 147.42 400.68 C 138.03 393.01 126.78 387.39 119.00 377.90 C 113.25 369.13 105.43 361.00 103.83 350.22 C 102.62 343.11 99.84 336.44 97.06 329.84 C 88.00 303.55 85.26 275.07 89.40 247.56 C 93.51 219.20 95.62 190.03 106.77 163.29 C 108.89 159.01 109.01 154.20 109.86 149.60 C 112.47 142.11 116.56 135.26 120.11 128.19 C 122.42 123.67 124.71 119.01 128.32 115.35 C 136.11 107.58 145.55 101.81 154.46 95.44 C 155.47 94.77 156.51 94.10 157.67 93.72 C 161.66 93.03 165.64 92.25 169.44 90.85 C 178.63 87.49 188.65 87.53 197.82 84.11 C 203.17 82.29 208.05 79.34 213.43 77.61 C 218.75 75.84 224.41 76.82 229.82 77.55 C 236.52 78.52 243.37 78.52 250.08 77.54 Z" fill="#93e0fd" opacity="1.00" stroke="#93e0fd" stroke-width="0.25"/>
<path d="M 186.88 95.68 C 192.42 94.97 198.69 93.05 203.88 95.98 C 204.14 96.74 204.67 98.26 204.93 99.02 C 198.57 100.84 192.56 103.86 185.97 104.89 C 178.30 106.22 170.42 108.22 164.10 113.00 C 159.40 116.63 154.72 120.36 150.88 124.92 C 146.53 130.07 141.00 133.99 136.25 138.74 C 140.02 129.61 146.17 121.81 152.04 113.98 C 155.14 109.70 160.45 108.19 164.93 105.83 C 172.26 102.47 178.62 96.73 186.88 95.68 Z" fill="#ffffff" opacity="1.00" stroke="#ffffff" stroke-width="0.25"/>
<path d="M 385.62 148.63 C 389.96 146.68 394.56 145.44 399.14 144.22 C 404.55 149.60 411.06 154.18 414.70 161.08 C 418.55 167.89 419.37 176.18 417.61 183.74 C 417.07 186.38 414.77 188.32 412.11 188.54 C 404.96 189.52 398.27 185.41 393.83 180.11 C 391.77 177.98 392.02 174.79 391.47 172.08 C 387.53 169.11 382.79 166.50 380.59 161.88 C 379.48 157.18 380.60 150.60 385.62 148.63 Z" fill="#93e0fd" opacity="1.00" stroke="#93e0fd" stroke-width="0.25"/>
<path d="M 249.30 162.53 C 249.62 158.51 250.29 154.46 252.65 151.08 C 255.86 151.06 260.46 151.60 260.17 155.88 C 258.43 162.87 260.83 170.26 258.41 177.16 C 257.10 181.05 255.56 185.88 251.17 187.19 C 247.49 188.29 243.64 189.35 241.15 192.51 C 239.55 192.48 237.96 192.36 236.38 192.32 C 235.14 186.34 240.85 182.39 240.71 176.63 C 237.70 176.23 234.71 175.53 232.11 173.90 C 228.20 171.53 223.66 170.72 219.36 169.36 C 219.38 167.84 219.41 166.33 219.43 164.81 C 221.87 163.43 224.25 161.62 227.12 161.27 C 231.06 160.70 234.09 164.15 237.92 164.37 C 241.03 164.62 244.16 164.48 247.28 164.47 C 247.95 163.82 248.63 163.17 249.30 162.53 Z" fill="#ffffff" opacity="1.00" stroke="#ffffff" stroke-width="0.25"/>
<path d="M 422.61 192.91 C 422.74 190.54 424.56 188.81 425.79 186.94 C 428.83 189.69 432.31 192.67 432.88 197.00 C 433.67 202.58 433.65 208.35 432.63 213.90 C 432.31 215.93 430.31 216.95 428.94 218.22 C 426.98 215.40 424.92 212.59 423.78 209.31 C 421.78 204.09 422.13 198.37 422.61 192.91 Z" fill="#93e0fd" opacity="1.00" stroke="#93e0fd" stroke-width="0.25"/>
<path d="M 173.98 208.70 C 182.71 208.96 189.61 201.44 198.42 202.55 C 198.51 204.92 198.59 207.29 198.68 209.66 C 201.83 209.61 204.98 209.48 208.13 209.26 C 207.97 210.93 208.25 212.61 208.86 214.18 C 204.98 215.46 200.46 216.31 197.89 219.81 C 195.30 222.92 193.54 227.21 189.46 228.65 C 185.81 229.87 181.98 230.46 178.25 231.41 C 178.77 235.23 179.25 239.07 179.84 242.89 C 173.45 242.60 168.56 238.21 162.96 235.78 C 159.74 236.71 156.60 237.89 153.44 238.97 C 153.21 234.86 154.44 230.15 151.42 226.76 C 151.73 223.88 151.62 220.77 153.08 218.17 C 154.73 216.38 157.43 216.02 159.18 214.35 C 161.16 211.16 162.36 207.56 163.87 204.13 C 168.00 203.93 169.88 208.94 173.98 208.70 Z" fill="#ffffff" opacity="1.00" stroke="#ffffff" stroke-width="0.25"/>
</svg>