<?xml version="1.0" encoding="UTF-8"?>
<svg id="Layer_1" xmlns="http://www.w3.org/2000/svg" version="1.1" viewBox="0 0 512 512">
  <!-- Generator: Adobe Illustrator 29.4.0, SVG Export Plug-In . SVG Version: 2.1.0 Build 152)  -->
  <defs>
    <style>
      .st0 {
        fill: #28c865;
      }

      .st1 {
        fill: #063a60;
      }

      .st2 {
        fill: #fff;
      }

      .st3 {
        fill: none;
        stroke: #063a60;
        stroke-linecap: round;
        stroke-linejoin: round;
        stroke-width: 10px;
      }

      .st4 {
        fill: #c82d2d;
      }
    </style>
  </defs>
  <g>
    <g>
      <path class="st1" d="M60.6,144.3c1.8-1.7,4.3-2.4,6.7-2.3,1.6,0,3.1.3,4.7.4.4,0,.8,0,1.2.1,0,.2,0,.5,0,.7-1.1,2.4-2.6,4.7-4.6,6.5-1.8,1.7-4.3,2.7-6.8,2.7-1.2,0-2.3-.3-3.4-.7,0,1.2,0,2.3.2,3.5,2.6-1.7,5.7-2.6,8.8-2.5,1.7,0,3.3.4,4.8,1.1,3.2,1.5,5.6,4.3,6.8,7.7,1,2.9,1,6,.7,9.1-.6,5-2,10-4.4,14.4-1.1,2.1-2.4,4.2-4.1,5.8-1.1,1.1-2.4,2-3.9,2.4-2,.7-4.4.4-6.3-.6-.8-.4-1.5-1.3-2.5-1.4-.9,0-1.6.7-2.3,1.2-1.9,1.2-4.4,1.6-6.6.8-1.9-.6-3.6-1.9-4.9-3.5-2.2-2.6-3.8-5.7-5.1-8.9-1.7-4.3-2.7-8.9-2.7-13.6,0-3.2.7-6.5,2.5-9.1,1.7-2.4,4.1-4.3,7-5.1,3-.8,6.3-.4,9.2.7.6.2,1.2.6,1.8.8,0-1.3-.2-2.6-.1-3.9,0-1.7.4-3.4,0-5.1,0-.5-.3-.9-.4-1.3,0-.3.2-.6.6-.6.2,0,.3.2.5.4.4.9.5,1.9.6,2.9.5-1.1,1.2-2.1,2-2.9h0Z"/>
      <path class="st0" d="M62,144.5c1.9-1.4,4.4-1.6,6.7-1.4,1,.1,2.1.3,3.1.4-.2.6-.6,1.2-1,1.8-1.2,2-2.8,3.7-4.8,5-2.1,1.2-4.8,1.6-7.1.6,3.5-2.5,7.4-4.4,11.3-5.9.3,0,.5-.6.2-.9-.2-.2-.5,0-.7,0-2.7,1.1-5.3,2.2-7.7,3.6-1.1.6-2.2,1.4-3.3,2,.5-2,1.5-4,3.3-5.2h0Z"/>
      <path class="st4" d="M43.3,155.8c2.2-1.6,5-2.2,7.7-1.9,2.4.2,4.6,1.1,6.7,2.3,0,.7.3,1.4.4,2.1-1.4-.4-2.7-.9-3.9-1.7-.4-.2-.9-.7-1.5-.5,0,.3-.2.7,0,.9,2.3,1.7,5.2,2.6,8,2.7.4,0,.9,0,1.3-.1v-.8c-.4-.2-1-.2-1.5-.2s-1,0-1.5-.1c-.2-.7-.4-1.5-.5-2.2,2-1.3,4.3-2.2,6.7-2.4,2.5-.3,5.2.2,7.4,1.6,2.6,1.6,4.4,4.1,5.3,7.1.6,2.1.7,4.3.6,6.5-.4,5.7-2.1,11.4-4.9,16.4-.8,1.3-1.6,2.6-2.6,3.7-1.4,1.6-3.1,3-5.2,3.4-1.9.3-4,0-5.4-1.3-.6-.5-1.4-.9-2.2-.9s-1.7.4-2.4,1c-1.6,1.3-3.8,1.6-5.7,1.2-1.5-.3-2.8-1.2-3.8-2.2-1.1-1.1-2.1-2.3-2.9-3.6-3.2-5.3-5-11.3-5.5-17.4,0-2.2,0-4.4.5-6.5.7-2.8,2.5-5.3,4.9-6.9h0Z"/>
      <path class="st2" d="M47.7,157.4c.7,0,1.4-.1,2,0,.6.2.8,1.2.2,1.6-.3.2-.7.2-1,.2-1.3.1-2.6.6-3.6,1.5-.8.7-1.5,1.5-1.9,2.5-.2.5-.4,1-.6,1.5-.2.4-.8.4-1.2.2-.4-.3-.3-.9-.2-1.4.6-2.2,2-4.2,4.1-5.3.7-.4,1.6-.6,2.4-.8h0Z"/>
    </g>
    <g>
      <path class="st1" d="M110.4,144.3c1.8-1.7,4.3-2.4,6.7-2.3,1.6,0,3.1.3,4.7.4.4,0,.8,0,1.2.1,0,.2,0,.5,0,.7-1.1,2.4-2.6,4.7-4.6,6.5-1.8,1.7-4.3,2.7-6.8,2.7-1.2,0-2.3-.3-3.4-.7,0,1.2,0,2.3.2,3.5,2.6-1.7,5.7-2.6,8.8-2.5,1.7,0,3.3.4,4.8,1.1,3.2,1.5,5.6,4.3,6.8,7.7,1,2.9,1,6,.7,9.1-.6,5-2,10-4.4,14.4-1.1,2.1-2.4,4.2-4.1,5.8-1.1,1.1-2.4,2-3.9,2.4-2,.7-4.4.4-6.3-.6-.8-.4-1.5-1.3-2.5-1.4-.9,0-1.6.7-2.3,1.2-1.9,1.2-4.4,1.6-6.6.8-1.9-.6-3.6-1.9-4.9-3.5-2.2-2.6-3.8-5.7-5.1-8.9-1.7-4.3-2.7-8.9-2.7-13.6,0-3.2.7-6.5,2.5-9.1,1.7-2.4,4.1-4.3,7-5.1,3-.8,6.3-.4,9.2.7.6.2,1.2.6,1.8.8,0-1.3-.2-2.6-.1-3.9,0-1.7.4-3.4,0-5.1,0-.5-.3-.9-.4-1.3,0-.3.2-.6.6-.6.2,0,.3.2.5.4.4.9.5,1.9.6,2.9.5-1.1,1.2-2.1,2-2.9Z"/>
      <path class="st0" d="M111.9,144.5c1.9-1.4,4.4-1.6,6.7-1.4,1,.1,2.1.3,3.1.4-.2.6-.6,1.2-1,1.8-1.2,2-2.8,3.7-4.8,5-2.1,1.2-4.8,1.6-7.1.6,3.5-2.5,7.4-4.4,11.3-5.9.3,0,.5-.6.2-.9-.2-.2-.5,0-.7,0-2.7,1.1-5.3,2.2-7.7,3.6-1.1.6-2.2,1.4-3.3,2,.5-2,1.5-4,3.3-5.2h0Z"/>
      <path class="st4" d="M93.2,155.8c2.2-1.6,5-2.2,7.7-1.9,2.4.2,4.6,1.1,6.7,2.3,0,.7.3,1.4.4,2.1-1.4-.4-2.7-.9-3.9-1.7-.4-.2-.9-.7-1.5-.5,0,.3-.2.7,0,.9,2.3,1.7,5.2,2.6,8,2.7.4,0,.9,0,1.3-.1v-.8c-.4-.2-1-.2-1.5-.2s-1,0-1.5-.1c-.2-.7-.4-1.5-.5-2.2,2-1.3,4.3-2.2,6.7-2.4,2.5-.3,5.2.2,7.4,1.6,2.6,1.6,4.4,4.1,5.3,7.1.6,2.1.7,4.3.6,6.5-.4,5.7-2.1,11.4-4.9,16.4-.8,1.3-1.6,2.6-2.6,3.7-1.4,1.6-3.1,3-5.2,3.4-1.9.3-4,0-5.4-1.3-.6-.5-1.4-.9-2.2-.9s-1.7.4-2.4,1c-1.6,1.3-3.8,1.6-5.7,1.2-1.5-.3-2.8-1.2-3.8-2.2-1.1-1.1-2.1-2.3-2.9-3.6-3.2-5.3-5-11.3-5.5-17.4,0-2.2,0-4.4.5-6.5.7-2.8,2.5-5.3,4.9-6.9h0Z"/>
      <path class="st2" d="M97.5,157.4c.7,0,1.4-.1,2,0,.6.2.8,1.2.2,1.6-.3.2-.7.2-1,.2-1.3.1-2.6.6-3.6,1.5-.8.7-1.5,1.5-1.9,2.5-.2.5-.4,1-.6,1.5-.2.4-.8.4-1.2.2-.4-.3-.3-.9-.2-1.4.6-2.2,2-4.2,4.1-5.3.7-.4,1.6-.6,2.4-.8h0Z"/>
    </g>
    <g>
      <path class="st1" d="M160,144.3c1.8-1.7,4.3-2.4,6.7-2.3,1.6,0,3.1.3,4.7.4.4,0,.8,0,1.2.1,0,.2,0,.5,0,.7-1.1,2.4-2.6,4.7-4.6,6.5-1.8,1.7-4.3,2.7-6.8,2.7-1.2,0-2.3-.3-3.4-.7,0,1.2,0,2.3.2,3.5,2.6-1.7,5.7-2.6,8.8-2.5,1.7,0,3.3.4,4.8,1.1,3.2,1.5,5.6,4.3,6.8,7.7,1,2.9,1,6,.7,9.1-.6,5-2,10-4.4,14.4-1.1,2.1-2.4,4.2-4.1,5.8-1.1,1.1-2.4,2-3.9,2.4-2,.7-4.4.4-6.3-.6-.8-.4-1.5-1.3-2.5-1.4-.9,0-1.6.7-2.3,1.2-1.9,1.2-4.4,1.6-6.6.8-1.9-.6-3.6-1.9-4.9-3.5-2.2-2.6-3.8-5.7-5.1-8.9-1.7-4.3-2.7-8.9-2.7-13.6,0-3.2.7-6.5,2.5-9.1,1.7-2.4,4.1-4.3,7-5.1,3-.8,6.3-.4,9.2.7.6.2,1.2.6,1.8.8,0-1.3-.2-2.6-.1-3.9,0-1.7.4-3.4,0-5.1,0-.5-.3-.9-.4-1.3,0-.3.2-.6.6-.6.2,0,.3.2.5.4.4.9.5,1.9.6,2.9.5-1.1,1.2-2.1,2-2.9Z"/>
      <path class="st0" d="M161.4,144.5c1.9-1.4,4.4-1.6,6.7-1.4,1,.1,2.1.3,3.1.4-.2.6-.6,1.2-1,1.8-1.2,2-2.8,3.7-4.8,5-2.1,1.2-4.8,1.6-7.1.6,3.5-2.5,7.4-4.4,11.3-5.9.3,0,.5-.6.2-.9-.2-.2-.5,0-.7,0-2.7,1.1-5.3,2.2-7.7,3.6-1.1.6-2.2,1.4-3.3,2,.5-2,1.5-4,3.3-5.2h0Z"/>
      <path class="st4" d="M142.8,155.8c2.2-1.6,5-2.2,7.7-1.9,2.4.2,4.6,1.1,6.7,2.3,0,.7.3,1.4.4,2.1-1.4-.4-2.7-.9-3.9-1.7-.4-.2-.9-.7-1.5-.5,0,.3-.2.7,0,.9,2.3,1.7,5.2,2.6,8,2.7.4,0,.9,0,1.3-.1v-.8c-.4-.2-1-.2-1.5-.2s-1,0-1.5-.1c-.2-.7-.4-1.5-.5-2.2,2-1.3,4.3-2.2,6.7-2.4,2.5-.3,5.2.2,7.4,1.6,2.6,1.6,4.4,4.1,5.3,7.1.6,2.1.7,4.3.6,6.5-.4,5.7-2.1,11.4-4.9,16.4-.8,1.3-1.6,2.6-2.6,3.7-1.4,1.6-3.1,3-5.2,3.4-1.9.3-4,0-5.4-1.3-.6-.5-1.4-.9-2.2-.9s-1.7.4-2.4,1c-1.6,1.3-3.8,1.6-5.7,1.2-1.5-.3-2.8-1.2-3.8-2.2-1.1-1.1-2.1-2.3-2.9-3.6-3.2-5.3-5-11.3-5.5-17.4,0-2.2,0-4.4.5-6.5.7-2.8,2.5-5.3,4.9-6.9h0Z"/>
      <path class="st2" d="M147.1,157.4c.7,0,1.4-.1,2,0,.6.2.8,1.2.2,1.6-.3.2-.7.2-1,.2-1.3.1-2.6.6-3.6,1.5-.8.7-1.5,1.5-1.9,2.5-.2.5-.4,1-.6,1.5-.2.4-.8.4-1.2.2-.4-.3-.3-.9-.2-1.4.6-2.2,2-4.2,4.1-5.3.7-.4,1.6-.6,2.4-.8h0Z"/>
    </g>
    <g>
      <path class="st1" d="M209.6,144.3c1.8-1.7,4.3-2.4,6.7-2.3,1.6,0,3.1.3,4.7.4.4,0,.8,0,1.2.1,0,.2,0,.5,0,.7-1.1,2.4-2.6,4.7-4.6,6.5-1.8,1.7-4.3,2.7-6.8,2.7-1.2,0-2.3-.3-3.4-.7,0,1.2,0,2.3.2,3.5,2.6-1.7,5.7-2.6,8.8-2.5,1.7,0,3.3.4,4.8,1.1,3.2,1.5,5.6,4.3,6.8,7.7,1,2.9,1,6,.7,9.1-.6,5-2,10-4.4,14.4-1.1,2.1-2.4,4.2-4.1,5.8-1.1,1.1-2.4,2-3.9,2.4-2,.7-4.4.4-6.3-.6-.8-.4-1.5-1.3-2.5-1.4-.9,0-1.6.7-2.3,1.2-1.9,1.2-4.4,1.6-6.6.8-1.9-.6-3.6-1.9-4.9-3.5-2.2-2.6-3.8-5.7-5.1-8.9-1.7-4.3-2.7-8.9-2.7-13.6,0-3.2.7-6.5,2.5-9.1,1.7-2.4,4.1-4.3,7-5.1,3-.8,6.3-.4,9.2.7.6.2,1.2.6,1.8.8,0-1.3-.2-2.6-.1-3.9,0-1.7.4-3.4,0-5.1,0-.5-.3-.9-.4-1.3,0-.3.2-.6.6-.6.2,0,.3.2.5.4.4.9.5,1.9.6,2.9.5-1.1,1.2-2.1,2-2.9Z"/>
      <path class="st0" d="M211,144.5c1.9-1.4,4.4-1.6,6.7-1.4,1,.1,2.1.3,3.1.4-.2.6-.6,1.2-1,1.8-1.2,2-2.8,3.7-4.8,5-2.1,1.2-4.8,1.6-7.1.6,3.5-2.5,7.4-4.4,11.3-5.9.3,0,.5-.6.2-.9-.2-.2-.5,0-.7,0-2.7,1.1-5.3,2.2-7.7,3.6-1.1.6-2.2,1.4-3.3,2,.5-2,1.5-4,3.3-5.2h0Z"/>
      <path class="st4" d="M192.4,155.8c2.2-1.6,5-2.2,7.7-1.9,2.4.2,4.6,1.1,6.7,2.3,0,.7.3,1.4.4,2.1-1.4-.4-2.7-.9-3.9-1.7-.4-.2-.9-.7-1.5-.5,0,.3-.2.7,0,.9,2.3,1.7,5.2,2.6,8,2.7.4,0,.9,0,1.3-.1v-.8c-.4-.2-1-.2-1.5-.2s-1,0-1.5-.1c-.2-.7-.4-1.5-.5-2.2,2-1.3,4.3-2.2,6.7-2.4,2.5-.3,5.2.2,7.4,1.6,2.6,1.6,4.4,4.1,5.3,7.1.6,2.1.7,4.3.6,6.5-.4,5.7-2.1,11.4-4.9,16.4-.8,1.3-1.6,2.6-2.6,3.7-1.4,1.6-3.1,3-5.2,3.4-1.9.3-4,0-5.4-1.3-.6-.5-1.4-.9-2.2-.9s-1.7.4-2.4,1c-1.6,1.3-3.8,1.6-5.7,1.2-1.5-.3-2.8-1.2-3.8-2.2-1.1-1.1-2.1-2.3-2.9-3.6-3.2-5.3-5-11.3-5.5-17.4,0-2.2,0-4.4.5-6.5.7-2.8,2.5-5.3,4.9-6.9h0Z"/>
      <path class="st2" d="M196.7,157.4c.7,0,1.4-.1,2,0,.6.2.8,1.2.2,1.6-.3.2-.7.2-1,.2-1.3.1-2.6.6-3.6,1.5-.8.7-1.5,1.5-1.9,2.5-.2.5-.4,1-.6,1.5-.2.4-.8.4-1.2.2-.4-.3-.3-.9-.2-1.4.6-2.2,2-4.2,4.1-5.3.7-.4,1.6-.6,2.4-.8h0Z"/>
    </g>
    <g>
      <path class="st1" d="M59.3,205.1c1.8-1.7,4.3-2.4,6.7-2.3,1.6,0,3.1.3,4.7.4.4,0,.8,0,1.2.1,0,.2,0,.5,0,.7-1.1,2.4-2.6,4.7-4.6,6.5-1.8,1.7-4.3,2.7-6.8,2.7-1.2,0-2.3-.3-3.4-.7,0,1.2,0,2.3.2,3.5,2.6-1.7,5.7-2.6,8.8-2.5,1.7,0,3.3.4,4.8,1.1,3.2,1.5,5.6,4.3,6.8,7.7,1,2.9,1,6,.7,9.1-.6,5-2,10-4.4,14.4-1.1,2.1-2.4,4.2-4.1,5.8-1.1,1.1-2.4,2-3.9,2.4-2,.7-4.4.4-6.3-.6-.8-.4-1.5-1.3-2.5-1.4-.9,0-1.6.7-2.3,1.2-1.9,1.2-4.4,1.6-6.6.8-1.9-.6-3.6-1.9-4.9-3.5-2.2-2.6-3.8-5.7-5.1-8.9-1.7-4.3-2.7-8.9-2.7-13.6,0-3.2.7-6.5,2.5-9.1,1.7-2.4,4.1-4.3,7-5.1,3-.8,6.3-.4,9.2.7.6.2,1.2.6,1.8.8,0-1.3-.2-2.6-.1-3.9,0-1.7.4-3.4,0-5.1,0-.5-.3-.9-.4-1.3,0-.3.2-.6.6-.6.2,0,.3.2.5.4.4.9.5,1.9.6,2.9.5-1.1,1.2-2.1,2-2.9h0Z"/>
      <path class="st0" d="M60.8,205.3c1.9-1.4,4.4-1.6,6.7-1.4,1,.1,2.1.3,3.1.4-.2.6-.6,1.2-1,1.8-1.2,2-2.8,3.7-4.8,5-2.1,1.2-4.8,1.6-7.1.6,3.5-2.5,7.4-4.4,11.3-5.9.3,0,.5-.6.2-.9-.2-.2-.5,0-.7,0-2.7,1.1-5.3,2.2-7.7,3.6-1.1.6-2.2,1.4-3.3,2,.5-2,1.5-4,3.3-5.2h0Z"/>
      <path class="st4" d="M42.1,216.6c2.2-1.6,5-2.2,7.7-1.9,2.4.2,4.6,1.1,6.7,2.3,0,.7.3,1.4.4,2.1-1.4-.4-2.7-.9-3.9-1.7-.4-.2-.9-.7-1.5-.5,0,.3-.2.7,0,.9,2.3,1.7,5.2,2.6,8,2.7.4,0,.9,0,1.3-.1v-.8c-.4-.2-1-.2-1.5-.2s-1,0-1.5-.1c-.2-.7-.4-1.5-.5-2.2,2-1.3,4.3-2.2,6.7-2.4,2.5-.3,5.2.2,7.4,1.6,2.6,1.6,4.4,4.1,5.3,7.1.6,2.1.7,4.3.6,6.5-.4,5.7-2.1,11.4-4.9,16.4-.8,1.3-1.6,2.6-2.6,3.7-1.4,1.6-3.1,3-5.2,3.4-1.9.3-4,0-5.4-1.3-.6-.5-1.4-.9-2.2-.9s-1.7.4-2.4,1c-1.6,1.3-3.8,1.6-5.7,1.2-1.5-.3-2.8-1.2-3.8-2.2-1.1-1.1-2.1-2.3-2.9-3.6-3.2-5.3-5-11.3-5.5-17.4,0-2.2,0-4.4.5-6.5.7-2.8,2.5-5.3,4.9-6.9h0Z"/>
      <path class="st2" d="M46.4,218.2c.7,0,1.4-.1,2,0,.6.2.8,1.2.2,1.6-.3.2-.7.2-1,.2-1.3.1-2.6.6-3.6,1.5-.8.7-1.5,1.5-1.9,2.5-.2.5-.4,1-.6,1.5-.2.4-.8.4-1.2.2-.4-.3-.3-.9-.2-1.4.6-2.2,2-4.2,4.1-5.3.7-.4,1.6-.6,2.4-.8h0Z"/>
    </g>
    <g>
      <path class="st1" d="M109.1,205.1c1.8-1.7,4.3-2.4,6.7-2.3,1.6,0,3.1.3,4.7.4.4,0,.8,0,1.2.1,0,.2,0,.5,0,.7-1.1,2.4-2.6,4.7-4.6,6.5-1.8,1.7-4.3,2.7-6.8,2.7-1.2,0-2.3-.3-3.4-.7,0,1.2,0,2.3.2,3.5,2.6-1.7,5.7-2.6,8.8-2.5,1.7,0,3.3.4,4.8,1.1,3.2,1.5,5.6,4.3,6.8,7.7,1,2.9,1,6,.7,9.1-.6,5-2,10-4.4,14.4-1.1,2.1-2.4,4.2-4.1,5.8-1.1,1.1-2.4,2-3.9,2.4-2,.7-4.4.4-6.3-.6-.8-.4-1.5-1.3-2.5-1.4-.9,0-1.6.7-2.3,1.2-1.9,1.2-4.4,1.6-6.6.8-1.9-.6-3.6-1.9-4.9-3.5-2.2-2.6-3.8-5.7-5.1-8.9-1.7-4.3-2.7-8.9-2.7-13.6,0-3.2.7-6.5,2.5-9.1,1.7-2.4,4.1-4.3,7-5.1,3-.8,6.3-.4,9.2.7.6.2,1.2.6,1.8.8,0-1.3-.2-2.6-.1-3.9,0-1.7.4-3.4,0-5.1,0-.5-.3-.9-.4-1.3,0-.3.2-.6.6-.6.2,0,.3.2.5.4.4.9.5,1.9.6,2.9.5-1.1,1.2-2.1,2-2.9h0Z"/>
      <path class="st0" d="M110.6,205.3c1.9-1.4,4.4-1.6,6.7-1.4,1,.1,2.1.3,3.1.4-.2.6-.6,1.2-1,1.8-1.2,2-2.8,3.7-4.8,5-2.1,1.2-4.8,1.6-7.1.6,3.5-2.5,7.4-4.4,11.3-5.9.3,0,.5-.6.2-.9-.2-.2-.5,0-.7,0-2.7,1.1-5.3,2.2-7.7,3.6-1.1.6-2.2,1.4-3.3,2,.5-2,1.5-4,3.3-5.2h0Z"/>
      <path class="st4" d="M91.9,216.6c2.2-1.6,5-2.2,7.7-1.9,2.4.2,4.6,1.1,6.7,2.3,0,.7.3,1.4.4,2.1-1.4-.4-2.7-.9-3.9-1.7-.4-.2-.9-.7-1.5-.5,0,.3-.2.7,0,.9,2.3,1.7,5.2,2.6,8,2.7.4,0,.9,0,1.3-.1v-.8c-.4-.2-1-.2-1.5-.2s-1,0-1.5-.1c-.2-.7-.4-1.5-.5-2.2,2-1.3,4.3-2.2,6.7-2.4,2.5-.3,5.2.2,7.4,1.6,2.6,1.6,4.4,4.1,5.3,7.1.6,2.1.7,4.3.6,6.5-.4,5.7-2.1,11.4-4.9,16.4-.8,1.3-1.6,2.6-2.6,3.7-1.4,1.6-3.1,3-5.2,3.4-1.9.3-4,0-5.4-1.3-.6-.5-1.4-.9-2.2-.9s-1.7.4-2.4,1c-1.6,1.3-3.8,1.6-5.7,1.2-1.5-.3-2.8-1.2-3.8-2.2-1.1-1.1-2.1-2.3-2.9-3.6-3.2-5.3-5-11.3-5.5-17.4,0-2.2,0-4.4.5-6.5.7-2.8,2.5-5.3,4.9-6.9h0Z"/>
      <path class="st2" d="M96.3,218.2c.7,0,1.4-.1,2,0,.6.2.8,1.2.2,1.6-.3.2-.7.2-1,.2-1.3.1-2.6.6-3.6,1.5-.8.7-1.5,1.5-1.9,2.5-.2.5-.4,1-.6,1.5-.2.4-.8.4-1.2.2-.4-.3-.3-.9-.2-1.4.6-2.2,2-4.2,4.1-5.3.7-.4,1.6-.6,2.4-.8h0Z"/>
    </g>
    <g>
      <path class="st1" d="M158.8,205.1c1.8-1.7,4.3-2.4,6.7-2.3,1.6,0,3.1.3,4.7.4.4,0,.8,0,1.2.1,0,.2,0,.5,0,.7-1.1,2.4-2.6,4.7-4.6,6.5-1.8,1.7-4.3,2.7-6.8,2.7-1.2,0-2.3-.3-3.4-.7,0,1.2,0,2.3.2,3.5,2.6-1.7,5.7-2.6,8.8-2.5,1.7,0,3.3.4,4.8,1.1,3.2,1.5,5.6,4.3,6.8,7.7,1,2.9,1,6,.7,9.1-.6,5-2,10-4.4,14.4-1.1,2.1-2.4,4.2-4.1,5.8-1.1,1.1-2.4,2-3.9,2.4-2,.7-4.4.4-6.3-.6-.8-.4-1.5-1.3-2.5-1.4-.9,0-1.6.7-2.3,1.2-1.9,1.2-4.4,1.6-6.6.8-1.9-.6-3.6-1.9-4.9-3.5-2.2-2.6-3.8-5.7-5.1-8.9-1.7-4.3-2.7-8.9-2.7-13.6,0-3.2.7-6.5,2.5-9.1,1.7-2.4,4.1-4.3,7-5.1,3-.8,6.3-.4,9.2.7.6.2,1.2.6,1.8.8,0-1.3-.2-2.6-.1-3.9,0-1.7.4-3.4,0-5.1,0-.5-.3-.9-.4-1.3,0-.3.2-.6.6-.6.2,0,.3.2.5.4.4.9.5,1.9.6,2.9.5-1.1,1.2-2.1,2-2.9h0Z"/>
      <path class="st0" d="M160.2,205.3c1.9-1.4,4.4-1.6,6.7-1.4,1,.1,2.1.3,3.1.4-.2.6-.6,1.2-1,1.8-1.2,2-2.8,3.7-4.8,5-2.1,1.2-4.8,1.6-7.1.6,3.5-2.5,7.4-4.4,11.3-5.9.3,0,.5-.6.2-.9-.2-.2-.5,0-.7,0-2.7,1.1-5.3,2.2-7.7,3.6-1.1.6-2.2,1.4-3.3,2,.5-2,1.5-4,3.3-5.2h0Z"/>
      <path class="st4" d="M141.5,216.6c2.2-1.6,5-2.2,7.7-1.9,2.4.2,4.6,1.1,6.7,2.3,0,.7.3,1.4.4,2.1-1.4-.4-2.7-.9-3.9-1.7-.4-.2-.9-.7-1.5-.5,0,.3-.2.7,0,.9,2.3,1.7,5.2,2.6,8,2.7.4,0,.9,0,1.3-.1v-.8c-.4-.2-1-.2-1.5-.2s-1,0-1.5-.1c-.2-.7-.4-1.5-.5-2.2,2-1.3,4.3-2.2,6.7-2.4,2.5-.3,5.2.2,7.4,1.6,2.6,1.6,4.4,4.1,5.3,7.1.6,2.1.7,4.3.6,6.5-.4,5.7-2.1,11.4-4.9,16.4-.8,1.3-1.6,2.6-2.6,3.7-1.4,1.6-3.1,3-5.2,3.4-1.9.3-4,0-5.4-1.3-.6-.5-1.4-.9-2.2-.9s-1.7.4-2.4,1c-1.6,1.3-3.8,1.6-5.7,1.2-1.5-.3-2.8-1.2-3.8-2.2-1.1-1.1-2.1-2.3-2.9-3.6-3.2-5.3-5-11.3-5.5-17.4,0-2.2,0-4.4.5-6.5.7-2.8,2.5-5.3,4.9-6.9h0Z"/>
      <path class="st2" d="M145.9,218.2c.7,0,1.4-.1,2,0,.6.2.8,1.2.2,1.6-.3.2-.7.2-1,.2-1.3.1-2.6.6-3.6,1.5-.8.7-1.5,1.5-1.9,2.5-.2.5-.4,1-.6,1.5-.2.4-.8.4-1.2.2-.4-.3-.3-.9-.2-1.4.6-2.2,2-4.2,4.1-5.3.7-.4,1.6-.6,2.4-.8h0Z"/>
    </g>
    <g>
      <path class="st1" d="M208.4,205.1c1.8-1.7,4.3-2.4,6.7-2.3,1.6,0,3.1.3,4.7.4.4,0,.8,0,1.2.1,0,.2,0,.5,0,.7-1.1,2.4-2.6,4.7-4.6,6.5-1.8,1.7-4.3,2.7-6.8,2.7-1.2,0-2.3-.3-3.4-.7,0,1.2,0,2.3.2,3.5,2.6-1.7,5.7-2.6,8.8-2.5,1.7,0,3.3.4,4.8,1.1,3.2,1.5,5.6,4.3,6.8,7.7,1,2.9,1,6,.7,9.1-.6,5-2,10-4.4,14.4-1.1,2.1-2.4,4.2-4.1,5.8-1.1,1.1-2.4,2-3.9,2.4-2,.7-4.4.4-6.3-.6-.8-.4-1.5-1.3-2.5-1.4-.9,0-1.6.7-2.3,1.2-1.9,1.2-4.4,1.6-6.6.8-1.9-.6-3.6-1.9-4.9-3.5-2.2-2.6-3.8-5.7-5.1-8.9-1.7-4.3-2.7-8.9-2.7-13.6,0-3.2.7-6.5,2.5-9.1,1.7-2.4,4.1-4.3,7-5.1,3-.8,6.3-.4,9.2.7.6.2,1.2.6,1.8.8,0-1.3-.2-2.6-.1-3.9,0-1.7.4-3.4,0-5.1,0-.5-.3-.9-.4-1.3,0-.3.2-.6.6-.6.2,0,.3.2.5.4.4.9.5,1.9.6,2.9.5-1.1,1.2-2.1,2-2.9h0Z"/>
      <path class="st0" d="M209.8,205.3c1.9-1.4,4.4-1.6,6.7-1.4,1,.1,2.1.3,3.1.4-.2.6-.6,1.2-1,1.8-1.2,2-2.8,3.7-4.8,5-2.1,1.2-4.8,1.6-7.1.6,3.5-2.5,7.4-4.4,11.3-5.9.3,0,.5-.6.2-.9-.2-.2-.5,0-.7,0-2.7,1.1-5.3,2.2-7.7,3.6-1.1.6-2.2,1.4-3.3,2,.5-2,1.5-4,3.3-5.2h0Z"/>
      <path class="st4" d="M191.1,216.6c2.2-1.6,5-2.2,7.7-1.9,2.4.2,4.6,1.1,6.7,2.3,0,.7.3,1.4.4,2.1-1.4-.4-2.7-.9-3.9-1.7-.4-.2-.9-.7-1.5-.5,0,.3-.2.7,0,.9,2.3,1.7,5.2,2.6,8,2.7.4,0,.9,0,1.3-.1v-.8c-.4-.2-1-.2-1.5-.2s-1,0-1.5-.1c-.2-.7-.4-1.5-.5-2.2,2-1.3,4.3-2.2,6.7-2.4,2.5-.3,5.2.2,7.4,1.6,2.6,1.6,4.4,4.1,5.3,7.1.6,2.1.7,4.3.6,6.5-.4,5.7-2.1,11.4-4.9,16.4-.8,1.3-1.6,2.6-2.6,3.7-1.4,1.6-3.1,3-5.2,3.4-1.9.3-4,0-5.4-1.3-.6-.5-1.4-.9-2.2-.9s-1.7.4-2.4,1c-1.6,1.3-3.8,1.6-5.7,1.2-1.5-.3-2.8-1.2-3.8-2.2-1.1-1.1-2.1-2.3-2.9-3.6-3.2-5.3-5-11.3-5.5-17.4,0-2.2,0-4.4.5-6.5.7-2.8,2.5-5.3,4.9-6.9h0Z"/>
      <path class="st2" d="M195.4,218.2c.7,0,1.4-.1,2,0,.6.2.8,1.2.2,1.6-.3.2-.7.2-1,.2-1.3.1-2.6.6-3.6,1.5-.8.7-1.5,1.5-1.9,2.5-.2.5-.4,1-.6,1.5-.2.4-.8.4-1.2.2-.4-.3-.3-.9-.2-1.4.6-2.2,2-4.2,4.1-5.3.7-.4,1.6-.6,2.4-.8h0Z"/>
    </g>
    <g>
      <path class="st1" d="M60.6,259.8c1.8-1.7,4.3-2.4,6.7-2.3,1.6,0,3.1.3,4.7.4.4,0,.8,0,1.2.1,0,.2,0,.5,0,.7-1.1,2.4-2.6,4.7-4.6,6.5-1.8,1.7-4.3,2.7-6.8,2.7-1.2,0-2.3-.3-3.4-.7,0,1.2,0,2.3.2,3.5,2.6-1.7,5.7-2.6,8.8-2.5,1.7,0,3.3.4,4.8,1.1,3.2,1.5,5.6,4.3,6.8,7.7,1,2.9,1,6,.7,9.1-.6,5-2,10-4.4,14.4-1.1,2.1-2.4,4.2-4.1,5.8-1.1,1.1-2.4,2-3.9,2.4-2,.7-4.4.4-6.3-.6-.8-.4-1.5-1.3-2.5-1.4-.9,0-1.6.7-2.3,1.2-1.9,1.2-4.4,1.6-6.6.8-1.9-.6-3.6-1.9-4.9-3.5-2.2-2.6-3.8-5.7-5.1-8.9-1.7-4.3-2.7-8.9-2.7-13.6,0-3.2.7-6.5,2.5-9.1,1.7-2.4,4.1-4.3,7-5.1,3-.8,6.3-.4,9.2.7.6.2,1.2.6,1.8.8,0-1.3-.2-2.6-.1-3.9,0-1.7.4-3.4,0-5.1,0-.5-.3-.9-.4-1.3,0-.3.2-.6.6-.6.2,0,.3.2.5.4.4.9.5,1.9.6,2.9.5-1.1,1.2-2.1,2-2.9h0Z"/>
      <path class="st0" d="M62,259.9c1.9-1.4,4.4-1.6,6.7-1.4,1,.1,2.1.3,3.1.4-.2.6-.6,1.2-1,1.8-1.2,2-2.8,3.7-4.8,5-2.1,1.2-4.8,1.6-7.1.6,3.5-2.5,7.4-4.4,11.3-5.9.3,0,.5-.6.2-.9-.2-.2-.5,0-.7,0-2.7,1.1-5.3,2.2-7.7,3.6-1.1.6-2.2,1.4-3.3,2,.5-2,1.5-4,3.3-5.2h0Z"/>
      <path class="st4" d="M43.3,271.2c2.2-1.6,5-2.2,7.7-1.9,2.4.2,4.6,1.1,6.7,2.3,0,.7.3,1.4.4,2.1-1.4-.4-2.7-.9-3.9-1.7-.4-.2-.9-.7-1.5-.5,0,.3-.2.7,0,.9,2.3,1.7,5.2,2.6,8,2.7.4,0,.9,0,1.3-.1v-.8c-.4-.2-1-.2-1.5-.2s-1,0-1.5-.1c-.2-.7-.4-1.5-.5-2.2,2-1.3,4.3-2.2,6.7-2.4,2.5-.3,5.2.2,7.4,1.6,2.6,1.6,4.4,4.1,5.3,7.1.6,2.1.7,4.3.6,6.5-.4,5.7-2.1,11.4-4.9,16.4-.8,1.3-1.6,2.6-2.6,3.7-1.4,1.6-3.1,3-5.2,3.4-1.9.3-4,0-5.4-1.3-.6-.5-1.4-.9-2.2-.9s-1.7.4-2.4,1c-1.6,1.3-3.8,1.6-5.7,1.2-1.5-.3-2.8-1.2-3.8-2.2-1.1-1.1-2.1-2.3-2.9-3.6-3.2-5.3-5-11.3-5.5-17.4,0-2.2,0-4.4.5-6.5.7-2.8,2.5-5.3,4.9-6.9h0Z"/>
      <path class="st2" d="M47.7,272.8c.7,0,1.4-.1,2,0,.6.2.8,1.2.2,1.6-.3.2-.7.2-1,.2-1.3.1-2.6.6-3.6,1.5-.8.7-1.5,1.5-1.9,2.5-.2.5-.4,1-.6,1.5-.2.4-.8.4-1.2.2-.4-.3-.3-.9-.2-1.4.6-2.2,2-4.2,4.1-5.3.7-.4,1.6-.6,2.4-.8h0Z"/>
    </g>
    <g>
      <path class="st1" d="M110.4,259.8c1.8-1.7,4.3-2.4,6.7-2.3,1.6,0,3.1.3,4.7.4.4,0,.8,0,1.2.1,0,.2,0,.5,0,.7-1.1,2.4-2.6,4.7-4.6,6.5-1.8,1.7-4.3,2.7-6.8,2.7-1.2,0-2.3-.3-3.4-.7,0,1.2,0,2.3.2,3.5,2.6-1.7,5.7-2.6,8.8-2.5,1.7,0,3.3.4,4.8,1.1,3.2,1.5,5.6,4.3,6.8,7.7,1,2.9,1,6,.7,9.1-.6,5-2,10-4.4,14.4-1.1,2.1-2.4,4.2-4.1,5.8-1.1,1.1-2.4,2-3.9,2.4-2,.7-4.4.4-6.3-.6-.8-.4-1.5-1.3-2.5-1.4-.9,0-1.6.7-2.3,1.2-1.9,1.2-4.4,1.6-6.6.8-1.9-.6-3.6-1.9-4.9-3.5-2.2-2.6-3.8-5.7-5.1-8.9-1.7-4.3-2.7-8.9-2.7-13.6,0-3.2.7-6.5,2.5-9.1,1.7-2.4,4.1-4.3,7-5.1,3-.8,6.3-.4,9.2.7.6.2,1.2.6,1.8.8,0-1.3-.2-2.6-.1-3.9,0-1.7.4-3.4,0-5.1,0-.5-.3-.9-.4-1.3,0-.3.2-.6.6-.6.2,0,.3.2.5.4.4.9.5,1.9.6,2.9.5-1.1,1.2-2.1,2-2.9Z"/>
      <path class="st0" d="M111.9,259.9c1.9-1.4,4.4-1.6,6.7-1.4,1,.1,2.1.3,3.1.4-.2.6-.6,1.2-1,1.8-1.2,2-2.8,3.7-4.8,5-2.1,1.2-4.8,1.6-7.1.6,3.5-2.5,7.4-4.4,11.3-5.9.3,0,.5-.6.2-.9-.2-.2-.5,0-.7,0-2.7,1.1-5.3,2.2-7.7,3.6-1.1.6-2.2,1.4-3.3,2,.5-2,1.5-4,3.3-5.2h0Z"/>
      <path class="st4" d="M93.2,271.2c2.2-1.6,5-2.2,7.7-1.9,2.4.2,4.6,1.1,6.7,2.3,0,.7.3,1.4.4,2.1-1.4-.4-2.7-.9-3.9-1.7-.4-.2-.9-.7-1.5-.5,0,.3-.2.7,0,.9,2.3,1.7,5.2,2.6,8,2.7.4,0,.9,0,1.3-.1v-.8c-.4-.2-1-.2-1.5-.2s-1,0-1.5-.1c-.2-.7-.4-1.5-.5-2.2,2-1.3,4.3-2.2,6.7-2.4,2.5-.3,5.2.2,7.4,1.6,2.6,1.6,4.4,4.1,5.3,7.1.6,2.1.7,4.3.6,6.5-.4,5.7-2.1,11.4-4.9,16.4-.8,1.3-1.6,2.6-2.6,3.7-1.4,1.6-3.1,3-5.2,3.4-1.9.3-4,0-5.4-1.3-.6-.5-1.4-.9-2.2-.9s-1.7.4-2.4,1c-1.6,1.3-3.8,1.6-5.7,1.2-1.5-.3-2.8-1.2-3.8-2.2-1.1-1.1-2.1-2.3-2.9-3.6-3.2-5.3-5-11.3-5.5-17.4,0-2.2,0-4.4.5-6.5.7-2.8,2.5-5.3,4.9-6.9h0Z"/>
      <path class="st2" d="M97.5,272.8c.7,0,1.4-.1,2,0,.6.2.8,1.2.2,1.6-.3.2-.7.2-1,.2-1.3.1-2.6.6-3.6,1.5-.8.7-1.5,1.5-1.9,2.5-.2.5-.4,1-.6,1.5-.2.4-.8.4-1.2.2-.4-.3-.3-.9-.2-1.4.6-2.2,2-4.2,4.1-5.3.7-.4,1.6-.6,2.4-.8h0Z"/>
    </g>
    <g>
      <path class="st1" d="M160,259.8c1.8-1.7,4.3-2.4,6.7-2.3,1.6,0,3.1.3,4.7.4.4,0,.8,0,1.2.1,0,.2,0,.5,0,.7-1.1,2.4-2.6,4.7-4.6,6.5-1.8,1.7-4.3,2.7-6.8,2.7-1.2,0-2.3-.3-3.4-.7,0,1.2,0,2.3.2,3.5,2.6-1.7,5.7-2.6,8.8-2.5,1.7,0,3.3.4,4.8,1.1,3.2,1.5,5.6,4.3,6.8,7.7,1,2.9,1,6,.7,9.1-.6,5-2,10-4.4,14.4-1.1,2.1-2.4,4.2-4.1,5.8-1.1,1.1-2.4,2-3.9,2.4-2,.7-4.4.4-6.3-.6-.8-.4-1.5-1.3-2.5-1.4-.9,0-1.6.7-2.3,1.2-1.9,1.2-4.4,1.6-6.6.8-1.9-.6-3.6-1.9-4.9-3.5-2.2-2.6-3.8-5.7-5.1-8.9-1.7-4.3-2.7-8.9-2.7-13.6,0-3.2.7-6.5,2.5-9.1,1.7-2.4,4.1-4.3,7-5.1,3-.8,6.3-.4,9.2.7.6.2,1.2.6,1.8.8,0-1.3-.2-2.6-.1-3.9,0-1.7.4-3.4,0-5.1,0-.5-.3-.9-.4-1.3,0-.3.2-.6.6-.6.2,0,.3.2.5.4.4.9.5,1.9.6,2.9.5-1.1,1.2-2.1,2-2.9Z"/>
      <path class="st0" d="M161.4,259.9c1.9-1.4,4.4-1.6,6.7-1.4,1,.1,2.1.3,3.1.4-.2.6-.6,1.2-1,1.8-1.2,2-2.8,3.7-4.8,5-2.1,1.2-4.8,1.6-7.1.6,3.5-2.5,7.4-4.4,11.3-5.9.3,0,.5-.6.2-.9-.2-.2-.5,0-.7,0-2.7,1.1-5.3,2.2-7.7,3.6-1.1.6-2.2,1.4-3.3,2,.5-2,1.5-4,3.3-5.2h0Z"/>
      <path class="st4" d="M142.8,271.2c2.2-1.6,5-2.2,7.7-1.9,2.4.2,4.6,1.1,6.7,2.3,0,.7.3,1.4.4,2.1-1.4-.4-2.7-.9-3.9-1.7-.4-.2-.9-.7-1.5-.5,0,.3-.2.7,0,.9,2.3,1.7,5.2,2.6,8,2.7.4,0,.9,0,1.3-.1v-.8c-.4-.2-1-.2-1.5-.2s-1,0-1.5-.1c-.2-.7-.4-1.5-.5-2.2,2-1.3,4.3-2.2,6.7-2.4,2.5-.3,5.2.2,7.4,1.6,2.6,1.6,4.4,4.1,5.3,7.1.6,2.1.7,4.3.6,6.5-.4,5.7-2.1,11.4-4.9,16.4-.8,1.3-1.6,2.6-2.6,3.7-1.4,1.6-3.1,3-5.2,3.4-1.9.3-4,0-5.4-1.3-.6-.5-1.4-.9-2.2-.9s-1.7.4-2.4,1c-1.6,1.3-3.8,1.6-5.7,1.2-1.5-.3-2.8-1.2-3.8-2.2-1.1-1.1-2.1-2.3-2.9-3.6-3.2-5.3-5-11.3-5.5-17.4,0-2.2,0-4.4.5-6.5.7-2.8,2.5-5.3,4.9-6.9h0Z"/>
      <path class="st2" d="M147.1,272.8c.7,0,1.4-.1,2,0,.6.2.8,1.2.2,1.6-.3.2-.7.2-1,.2-1.3.1-2.6.6-3.6,1.5-.8.7-1.5,1.5-1.9,2.5-.2.5-.4,1-.6,1.5-.2.4-.8.4-1.2.2-.4-.3-.3-.9-.2-1.4.6-2.2,2-4.2,4.1-5.3.7-.4,1.6-.6,2.4-.8h0Z"/>
    </g>
    <g>
      <path class="st1" d="M209.6,259.8c1.8-1.7,4.3-2.4,6.7-2.3,1.6,0,3.1.3,4.7.4.4,0,.8,0,1.2.1,0,.2,0,.5,0,.7-1.1,2.4-2.6,4.7-4.6,6.5-1.8,1.7-4.3,2.7-6.8,2.7-1.2,0-2.3-.3-3.4-.7,0,1.2,0,2.3.2,3.5,2.6-1.7,5.7-2.6,8.8-2.5,1.7,0,3.3.4,4.8,1.1,3.2,1.5,5.6,4.3,6.8,7.7,1,2.9,1,6,.7,9.1-.6,5-2,10-4.4,14.4-1.1,2.1-2.4,4.2-4.1,5.8-1.1,1.1-2.4,2-3.9,2.4-2,.7-4.4.4-6.3-.6-.8-.4-1.5-1.3-2.5-1.4-.9,0-1.6.7-2.3,1.2-1.9,1.2-4.4,1.6-6.6.8-1.9-.6-3.6-1.9-4.9-3.5-2.2-2.6-3.8-5.7-5.1-8.9-1.7-4.3-2.7-8.9-2.7-13.6,0-3.2.7-6.5,2.5-9.1,1.7-2.4,4.1-4.3,7-5.1,3-.8,6.3-.4,9.2.7.6.2,1.2.6,1.8.8,0-1.3-.2-2.6-.1-3.9,0-1.7.4-3.4,0-5.1,0-.5-.3-.9-.4-1.3,0-.3.2-.6.6-.6.2,0,.3.2.5.4.4.9.5,1.9.6,2.9.5-1.1,1.2-2.1,2-2.9Z"/>
      <path class="st0" d="M211,259.9c1.9-1.4,4.4-1.6,6.7-1.4,1,.1,2.1.3,3.1.4-.2.6-.6,1.2-1,1.8-1.2,2-2.8,3.7-4.8,5-2.1,1.2-4.8,1.6-7.1.6,3.5-2.5,7.4-4.4,11.3-5.9.3,0,.5-.6.2-.9-.2-.2-.5,0-.7,0-2.7,1.1-5.3,2.2-7.7,3.6-1.1.6-2.2,1.4-3.3,2,.5-2,1.5-4,3.3-5.2h0Z"/>
      <path class="st4" d="M192.4,271.2c2.2-1.6,5-2.2,7.7-1.9,2.4.2,4.6,1.1,6.7,2.3,0,.7.3,1.4.4,2.1-1.4-.4-2.7-.9-3.9-1.7-.4-.2-.9-.7-1.5-.5,0,.3-.2.7,0,.9,2.3,1.7,5.2,2.6,8,2.7.4,0,.9,0,1.3-.1v-.8c-.4-.2-1-.2-1.5-.2s-1,0-1.5-.1c-.2-.7-.4-1.5-.5-2.2,2-1.3,4.3-2.2,6.7-2.4,2.5-.3,5.2.2,7.4,1.6,2.6,1.6,4.4,4.1,5.3,7.1.6,2.1.7,4.3.6,6.5-.4,5.7-2.1,11.4-4.9,16.4-.8,1.3-1.6,2.6-2.6,3.7-1.4,1.6-3.1,3-5.2,3.4-1.9.3-4,0-5.4-1.3-.6-.5-1.4-.9-2.2-.9s-1.7.4-2.4,1c-1.6,1.3-3.8,1.6-5.7,1.2-1.5-.3-2.8-1.2-3.8-2.2-1.1-1.1-2.1-2.3-2.9-3.6-3.2-5.3-5-11.3-5.5-17.4,0-2.2,0-4.4.5-6.5.7-2.8,2.5-5.3,4.9-6.9h0Z"/>
      <path class="st2" d="M196.7,272.8c.7,0,1.4-.1,2,0,.6.2.8,1.2.2,1.6-.3.2-.7.2-1,.2-1.3.1-2.6.6-3.6,1.5-.8.7-1.5,1.5-1.9,2.5-.2.5-.4,1-.6,1.5-.2.4-.8.4-1.2.2-.4-.3-.3-.9-.2-1.4.6-2.2,2-4.2,4.1-5.3.7-.4,1.6-.6,2.4-.8h0Z"/>
    </g>
    <g>
      <path class="st1" d="M59.3,320.6c1.8-1.7,4.3-2.4,6.7-2.3,1.6,0,3.1.3,4.7.4.4,0,.8,0,1.2.1,0,.2,0,.5,0,.7-1.1,2.4-2.6,4.7-4.6,6.5-1.8,1.7-4.3,2.7-6.8,2.7-1.2,0-2.3-.3-3.4-.7,0,1.2,0,2.3.2,3.5,2.6-1.7,5.7-2.6,8.8-2.5,1.7,0,3.3.4,4.8,1.1,3.2,1.5,5.6,4.3,6.8,7.7,1,2.9,1,6,.7,9.1-.6,5-2,10-4.4,14.4-1.1,2.1-2.4,4.2-4.1,5.8-1.1,1.1-2.4,2-3.9,2.4-2,.7-4.4.4-6.3-.6-.8-.4-1.5-1.3-2.5-1.4-.9,0-1.6.7-2.3,1.2-1.9,1.2-4.4,1.6-6.6.8-1.9-.6-3.6-1.9-4.9-3.5-2.2-2.6-3.8-5.7-5.1-8.9-1.7-4.3-2.7-8.9-2.7-13.6,0-3.2.7-6.5,2.5-9.1,1.7-2.4,4.1-4.3,7-5.1,3-.8,6.3-.4,9.2.7.6.2,1.2.6,1.8.8,0-1.3-.2-2.6-.1-3.9,0-1.7.4-3.4,0-5.1,0-.5-.3-.9-.4-1.3,0-.3.2-.6.6-.6.2,0,.3.2.5.4.4.9.5,1.9.6,2.9.5-1.1,1.2-2.1,2-2.9h0Z"/>
      <path class="st0" d="M60.8,320.7c1.9-1.4,4.4-1.6,6.7-1.4,1,.1,2.1.3,3.1.4-.2.6-.6,1.2-1,1.8-1.2,2-2.8,3.7-4.8,5-2.1,1.2-4.8,1.6-7.1.6,3.5-2.5,7.4-4.4,11.3-5.9.3,0,.5-.6.2-.9-.2-.2-.5,0-.7,0-2.7,1.1-5.3,2.2-7.7,3.6-1.1.6-2.2,1.4-3.3,2,.5-2,1.5-4,3.3-5.2h0Z"/>
      <path class="st4" d="M42.1,332c2.2-1.6,5-2.2,7.7-1.9,2.4.2,4.6,1.1,6.7,2.3,0,.7.3,1.4.4,2.1-1.4-.4-2.7-.9-3.9-1.7-.4-.2-.9-.7-1.5-.5,0,.3-.2.7,0,.9,2.3,1.7,5.2,2.6,8,2.7.4,0,.9,0,1.3-.1v-.8c-.4-.2-1-.2-1.5-.2s-1,0-1.5-.1c-.2-.7-.4-1.5-.5-2.2,2-1.3,4.3-2.2,6.7-2.4,2.5-.3,5.2.2,7.4,1.6,2.6,1.6,4.4,4.1,5.3,7.1.6,2.1.7,4.3.6,6.5-.4,5.7-2.1,11.4-4.9,16.4-.8,1.3-1.6,2.6-2.6,3.7-1.4,1.6-3.1,3-5.2,3.4-1.9.3-4,0-5.4-1.3-.6-.5-1.4-.9-2.2-.9s-1.7.4-2.4,1c-1.6,1.3-3.8,1.6-5.7,1.2-1.5-.3-2.8-1.2-3.8-2.2-1.1-1.1-2.1-2.3-2.9-3.6-3.2-5.3-5-11.3-5.5-17.4,0-2.2,0-4.4.5-6.5.7-2.8,2.5-5.3,4.9-6.9h0Z"/>
      <path class="st2" d="M46.4,333.6c.7,0,1.4-.1,2,0,.6.2.8,1.2.2,1.6-.3.2-.7.2-1,.2-1.3.1-2.6.6-3.6,1.5-.8.7-1.5,1.5-1.9,2.5-.2.5-.4,1-.6,1.5-.2.4-.8.4-1.2.2-.4-.3-.3-.9-.2-1.4.6-2.2,2-4.2,4.1-5.3.7-.4,1.6-.6,2.4-.8h0Z"/>
    </g>
    <g>
      <path class="st1" d="M109.1,320.6c1.8-1.7,4.3-2.4,6.7-2.3,1.6,0,3.1.3,4.7.4.4,0,.8,0,1.2.1,0,.2,0,.5,0,.7-1.1,2.4-2.6,4.7-4.6,6.5-1.8,1.7-4.3,2.7-6.8,2.7-1.2,0-2.3-.3-3.4-.7,0,1.2,0,2.3.2,3.5,2.6-1.7,5.7-2.6,8.8-2.5,1.7,0,3.3.4,4.8,1.1,3.2,1.5,5.6,4.3,6.8,7.7,1,2.9,1,6,.7,9.1-.6,5-2,10-4.4,14.4-1.1,2.1-2.4,4.2-4.1,5.8-1.1,1.1-2.4,2-3.9,2.4-2,.7-4.4.4-6.3-.6-.8-.4-1.5-1.3-2.5-1.4-.9,0-1.6.7-2.3,1.2-1.9,1.2-4.4,1.6-6.6.8-1.9-.6-3.6-1.9-4.9-3.5-2.2-2.6-3.8-5.7-5.1-8.9-1.7-4.3-2.7-8.9-2.7-13.6,0-3.2.7-6.5,2.5-9.1,1.7-2.4,4.1-4.3,7-5.1,3-.8,6.3-.4,9.2.7.6.2,1.2.6,1.8.8,0-1.3-.2-2.6-.1-3.9,0-1.7.4-3.4,0-5.1,0-.5-.3-.9-.4-1.3,0-.3.2-.6.6-.6.2,0,.3.2.5.4.4.9.5,1.9.6,2.9.5-1.1,1.2-2.1,2-2.9Z"/>
      <path class="st0" d="M110.6,320.7c1.9-1.4,4.4-1.6,6.7-1.4,1,.1,2.1.3,3.1.4-.2.6-.6,1.2-1,1.8-1.2,2-2.8,3.7-4.8,5-2.1,1.2-4.8,1.6-7.1.6,3.5-2.5,7.4-4.4,11.3-5.9.3,0,.5-.6.2-.9-.2-.2-.5,0-.7,0-2.7,1.1-5.3,2.2-7.7,3.6-1.1.6-2.2,1.4-3.3,2,.5-2,1.5-4,3.3-5.2h0Z"/>
      <path class="st4" d="M91.9,332c2.2-1.6,5-2.2,7.7-1.9,2.4.2,4.6,1.1,6.7,2.3,0,.7.3,1.4.4,2.1-1.4-.4-2.7-.9-3.9-1.7-.4-.2-.9-.7-1.5-.5,0,.3-.2.7,0,.9,2.3,1.7,5.2,2.6,8,2.7.4,0,.9,0,1.3-.1v-.8c-.4-.2-1-.2-1.5-.2s-1,0-1.5-.1c-.2-.7-.4-1.5-.5-2.2,2-1.3,4.3-2.2,6.7-2.4,2.5-.3,5.2.2,7.4,1.6,2.6,1.6,4.4,4.1,5.3,7.1.6,2.1.7,4.3.6,6.5-.4,5.7-2.1,11.4-4.9,16.4-.8,1.3-1.6,2.6-2.6,3.7-1.4,1.6-3.1,3-5.2,3.4-1.9.3-4,0-5.4-1.3-.6-.5-1.4-.9-2.2-.9s-1.7.4-2.4,1c-1.6,1.3-3.8,1.6-5.7,1.2-1.5-.3-2.8-1.2-3.8-2.2-1.1-1.1-2.1-2.3-2.9-3.6-3.2-5.3-5-11.3-5.5-17.4,0-2.2,0-4.4.5-6.5.7-2.8,2.5-5.3,4.9-6.9h0Z"/>
      <path class="st2" d="M96.3,333.6c.7,0,1.4-.1,2,0,.6.2.8,1.2.2,1.6-.3.2-.7.2-1,.2-1.3.1-2.6.6-3.6,1.5-.8.7-1.5,1.5-1.9,2.5-.2.5-.4,1-.6,1.5-.2.4-.8.4-1.2.2-.4-.3-.3-.9-.2-1.4.6-2.2,2-4.2,4.1-5.3.7-.4,1.6-.6,2.4-.8h0Z"/>
    </g>
    <g>
      <path class="st1" d="M158.8,320.6c1.8-1.7,4.3-2.4,6.7-2.3,1.6,0,3.1.3,4.7.4.4,0,.8,0,1.2.1,0,.2,0,.5,0,.7-1.1,2.4-2.6,4.7-4.6,6.5-1.8,1.7-4.3,2.7-6.8,2.7-1.2,0-2.3-.3-3.4-.7,0,1.2,0,2.3.2,3.5,2.6-1.7,5.7-2.6,8.8-2.5,1.7,0,3.3.4,4.8,1.1,3.2,1.5,5.6,4.3,6.8,7.7,1,2.9,1,6,.7,9.1-.6,5-2,10-4.4,14.4-1.1,2.1-2.4,4.2-4.1,5.8-1.1,1.1-2.4,2-3.9,2.4-2,.7-4.4.4-6.3-.6-.8-.4-1.5-1.3-2.5-1.4-.9,0-1.6.7-2.3,1.2-1.9,1.2-4.4,1.6-6.6.8-1.9-.6-3.6-1.9-4.9-3.5-2.2-2.6-3.8-5.7-5.1-8.9-1.7-4.3-2.7-8.9-2.7-13.6,0-3.2.7-6.5,2.5-9.1,1.7-2.4,4.1-4.3,7-5.1,3-.8,6.3-.4,9.2.7.6.2,1.2.6,1.8.8,0-1.3-.2-2.6-.1-3.9,0-1.7.4-3.4,0-5.1,0-.5-.3-.9-.4-1.3,0-.3.2-.6.6-.6.2,0,.3.2.5.4.4.9.5,1.9.6,2.9.5-1.1,1.2-2.1,2-2.9Z"/>
      <path class="st0" d="M160.2,320.7c1.9-1.4,4.4-1.6,6.7-1.4,1,.1,2.1.3,3.1.4-.2.6-.6,1.2-1,1.8-1.2,2-2.8,3.7-4.8,5-2.1,1.2-4.8,1.6-7.1.6,3.5-2.5,7.4-4.4,11.3-5.9.3,0,.5-.6.2-.9-.2-.2-.5,0-.7,0-2.7,1.1-5.3,2.2-7.7,3.6-1.1.6-2.2,1.4-3.3,2,.5-2,1.5-4,3.3-5.2h0Z"/>
      <path class="st4" d="M141.5,332c2.2-1.6,5-2.2,7.7-1.9,2.4.2,4.6,1.1,6.7,2.3,0,.7.3,1.4.4,2.1-1.4-.4-2.7-.9-3.9-1.7-.4-.2-.9-.7-1.5-.5,0,.3-.2.7,0,.9,2.3,1.7,5.2,2.6,8,2.7.4,0,.9,0,1.3-.1v-.8c-.4-.2-1-.2-1.5-.2s-1,0-1.5-.1c-.2-.7-.4-1.5-.5-2.2,2-1.3,4.3-2.2,6.7-2.4,2.5-.3,5.2.2,7.4,1.6,2.6,1.6,4.4,4.1,5.3,7.1.6,2.1.7,4.3.6,6.5-.4,5.7-2.1,11.4-4.9,16.4-.8,1.3-1.6,2.6-2.6,3.7-1.4,1.6-3.1,3-5.2,3.4-1.9.3-4,0-5.4-1.3-.6-.5-1.4-.9-2.2-.9s-1.7.4-2.4,1c-1.6,1.3-3.8,1.6-5.7,1.2-1.5-.3-2.8-1.2-3.8-2.2-1.1-1.1-2.1-2.3-2.9-3.6-3.2-5.3-5-11.3-5.5-17.4,0-2.2,0-4.4.5-6.5.7-2.8,2.5-5.3,4.9-6.9h0Z"/>
      <path class="st2" d="M145.9,333.6c.7,0,1.4-.1,2,0,.6.2.8,1.2.2,1.6-.3.2-.7.2-1,.2-1.3.1-2.6.6-3.6,1.5-.8.7-1.5,1.5-1.9,2.5-.2.5-.4,1-.6,1.5-.2.4-.8.4-1.2.2-.4-.3-.3-.9-.2-1.4.6-2.2,2-4.2,4.1-5.3.7-.4,1.6-.6,2.4-.8h0Z"/>
    </g>
    <g>
      <path class="st1" d="M208.4,320.6c1.8-1.7,4.3-2.4,6.7-2.3,1.6,0,3.1.3,4.7.4.4,0,.8,0,1.2.1,0,.2,0,.5,0,.7-1.1,2.4-2.6,4.7-4.6,6.5-1.8,1.7-4.3,2.7-6.8,2.7-1.2,0-2.3-.3-3.4-.7,0,1.2,0,2.3.2,3.5,2.6-1.7,5.7-2.6,8.8-2.5,1.7,0,3.3.4,4.8,1.1,3.2,1.5,5.6,4.3,6.8,7.7,1,2.9,1,6,.7,9.1-.6,5-2,10-4.4,14.4-1.1,2.1-2.4,4.2-4.1,5.8-1.1,1.1-2.4,2-3.9,2.4-2,.7-4.4.4-6.3-.6-.8-.4-1.5-1.3-2.5-1.4-.9,0-1.6.7-2.3,1.2-1.9,1.2-4.4,1.6-6.6.8-1.9-.6-3.6-1.9-4.9-3.5-2.2-2.6-3.8-5.7-5.1-8.9-1.7-4.3-2.7-8.9-2.7-13.6,0-3.2.7-6.5,2.5-9.1,1.7-2.4,4.1-4.3,7-5.1,3-.8,6.3-.4,9.2.7.6.2,1.2.6,1.8.8,0-1.3-.2-2.6-.1-3.9,0-1.7.4-3.4,0-5.1,0-.5-.3-.9-.4-1.3,0-.3.2-.6.6-.6.2,0,.3.2.5.4.4.9.5,1.9.6,2.9.5-1.1,1.2-2.1,2-2.9Z"/>
      <path class="st0" d="M209.8,320.7c1.9-1.4,4.4-1.6,6.7-1.4,1,.1,2.1.3,3.1.4-.2.6-.6,1.2-1,1.8-1.2,2-2.8,3.7-4.8,5-2.1,1.2-4.8,1.6-7.1.6,3.5-2.5,7.4-4.4,11.3-5.9.3,0,.5-.6.2-.9-.2-.2-.5,0-.7,0-2.7,1.1-5.3,2.2-7.7,3.6-1.1.6-2.2,1.4-3.3,2,.5-2,1.5-4,3.3-5.2h0Z"/>
      <path class="st4" d="M191.1,332c2.2-1.6,5-2.2,7.7-1.9,2.4.2,4.6,1.1,6.7,2.3,0,.7.3,1.4.4,2.1-1.4-.4-2.7-.9-3.9-1.7-.4-.2-.9-.7-1.5-.5,0,.3-.2.7,0,.9,2.3,1.7,5.2,2.6,8,2.7.4,0,.9,0,1.3-.1v-.8c-.4-.2-1-.2-1.5-.2s-1,0-1.5-.1c-.2-.7-.4-1.5-.5-2.2,2-1.3,4.3-2.2,6.7-2.4,2.5-.3,5.2.2,7.4,1.6,2.6,1.6,4.4,4.1,5.3,7.1.6,2.1.7,4.3.6,6.5-.4,5.7-2.1,11.4-4.9,16.4-.8,1.3-1.6,2.6-2.6,3.7-1.4,1.6-3.1,3-5.2,3.4-1.9.3-4,0-5.4-1.3-.6-.5-1.4-.9-2.2-.9s-1.7.4-2.4,1c-1.6,1.3-3.8,1.6-5.7,1.2-1.5-.3-2.8-1.2-3.8-2.2-1.1-1.1-2.1-2.3-2.9-3.6-3.2-5.3-5-11.3-5.5-17.4,0-2.2,0-4.4.5-6.5.7-2.8,2.5-5.3,4.9-6.9h0Z"/>
      <path class="st2" d="M195.4,333.6c.7,0,1.4-.1,2,0,.6.2.8,1.2.2,1.6-.3.2-.7.2-1,.2-1.3.1-2.6.6-3.6,1.5-.8.7-1.5,1.5-1.9,2.5-.2.5-.4,1-.6,1.5-.2.4-.8.4-1.2.2-.4-.3-.3-.9-.2-1.4.6-2.2,2-4.2,4.1-5.3.7-.4,1.6-.6,2.4-.8h0Z"/>
    </g>
    <g>
      <path class="st1" d="M82,172.4c1.8-1.7,4.3-2.4,6.7-2.3,1.6,0,3.1.3,4.7.4.4,0,.8,0,1.2.1,0,.2,0,.5,0,.7-1.1,2.4-2.6,4.7-4.6,6.5-1.8,1.7-4.3,2.7-6.8,2.7-1.2,0-2.3-.3-3.4-.7,0,1.2,0,2.3.2,3.5,2.6-1.7,5.7-2.6,8.8-2.5,1.7,0,3.3.4,4.8,1.1,3.2,1.5,5.6,4.3,6.8,7.7,1,2.9,1,6,.7,9.1-.6,5-2,10-4.4,14.4-1.1,2.1-2.4,4.2-4.1,5.8-1.1,1.1-2.4,2-3.9,2.4-2,.7-4.4.4-6.3-.6-.8-.4-1.5-1.3-2.5-1.4-.9,0-1.6.7-2.3,1.2-1.9,1.2-4.4,1.6-6.6.8-1.9-.6-3.6-1.9-4.9-3.5-2.2-2.6-3.8-5.7-5.1-8.9-1.7-4.3-2.7-8.9-2.7-13.6,0-3.2.7-6.5,2.5-9.1,1.7-2.4,4.1-4.3,7-5.1,3-.8,6.3-.4,9.2.7.6.2,1.2.6,1.8.8,0-1.3-.2-2.6-.1-3.9,0-1.7.4-3.4,0-5.1,0-.5-.3-.9-.4-1.3,0-.3.2-.6.6-.6.2,0,.3.2.5.4.4.9.5,1.9.6,2.9.5-1.1,1.2-2.1,2-2.9h0Z"/>
      <path class="st0" d="M83.5,172.5c1.9-1.4,4.4-1.6,6.7-1.4,1,.1,2.1.3,3.1.4-.2.6-.6,1.2-1,1.8-1.2,2-2.8,3.7-4.8,5-2.1,1.2-4.8,1.6-7.1.6,3.5-2.5,7.4-4.4,11.3-5.9.3,0,.5-.6.2-.9-.2-.2-.5,0-.7,0-2.7,1.1-5.3,2.2-7.7,3.6-1.1.6-2.2,1.4-3.3,2,.5-2,1.5-4,3.3-5.2h0Z"/>
      <path class="st4" d="M64.8,183.9c2.2-1.6,5-2.2,7.7-1.9,2.4.2,4.6,1.1,6.7,2.3,0,.7.3,1.4.4,2.1-1.4-.4-2.7-.9-3.9-1.7-.4-.2-.9-.7-1.5-.5,0,.3-.2.7,0,.9,2.3,1.7,5.2,2.6,8,2.7.4,0,.9,0,1.3-.1v-.8c-.4-.2-1-.2-1.5-.2s-1,0-1.5-.1c-.2-.7-.4-1.5-.5-2.2,2-1.3,4.3-2.2,6.7-2.4,2.5-.3,5.2.2,7.4,1.6,2.6,1.6,4.4,4.1,5.3,7.1.6,2.1.7,4.3.6,6.5-.4,5.7-2.1,11.4-4.9,16.4-.8,1.3-1.6,2.6-2.6,3.7-1.4,1.6-3.1,3-5.2,3.4-1.9.3-4,0-5.4-1.3-.6-.5-1.4-.9-2.2-.9s-1.7.4-2.4,1c-1.6,1.3-3.8,1.6-5.7,1.2-1.5-.3-2.8-1.2-3.8-2.2-1.1-1.1-2.1-2.3-2.9-3.6-3.2-5.3-5-11.3-5.5-17.4,0-2.2,0-4.4.5-6.5.7-2.8,2.5-5.3,4.9-6.9h0Z"/>
      <path class="st2" d="M69.1,185.4c.7,0,1.4-.1,2,0,.6.2.8,1.2.2,1.6-.3.2-.7.2-1,.2-1.3.1-2.6.6-3.6,1.5-.8.7-1.5,1.5-1.9,2.5-.2.5-.4,1-.6,1.5-.2.4-.8.4-1.2.2-.4-.3-.3-.9-.2-1.4.6-2.2,2-4.2,4.1-5.3.7-.4,1.6-.6,2.4-.8h0Z"/>
    </g>
    <g>
      <path class="st1" d="M133.8,172.4c1.8-1.7,4.3-2.4,6.7-2.3,1.6,0,3.1.3,4.7.4.4,0,.8,0,1.2.1,0,.2,0,.5,0,.7-1.1,2.4-2.6,4.7-4.6,6.5-1.8,1.7-4.3,2.7-6.8,2.7-1.2,0-2.3-.3-3.4-.7,0,1.2,0,2.3.2,3.5,2.6-1.7,5.7-2.6,8.8-2.5,1.7,0,3.3.4,4.8,1.1,3.2,1.5,5.6,4.3,6.8,7.7,1,2.9,1,6,.7,9.1-.6,5-2,10-4.4,14.4-1.1,2.1-2.4,4.2-4.1,5.8-1.1,1.1-2.4,2-3.9,2.4-2,.7-4.4.4-6.3-.6-.8-.4-1.5-1.3-2.5-1.4-.9,0-1.6.7-2.3,1.2-1.9,1.2-4.4,1.6-6.6.8-1.9-.6-3.6-1.9-4.9-3.5-2.2-2.6-3.8-5.7-5.1-8.9-1.7-4.3-2.7-8.9-2.7-13.6,0-3.2.7-6.5,2.5-9.1,1.7-2.4,4.1-4.3,7-5.1,3-.8,6.3-.4,9.2.7.6.2,1.2.6,1.8.8,0-1.3-.2-2.6-.1-3.9,0-1.7.4-3.4,0-5.1,0-.5-.3-.9-.4-1.3,0-.3.2-.6.6-.6.2,0,.3.2.5.4.4.9.5,1.9.6,2.9.5-1.1,1.2-2.1,2-2.9Z"/>
      <path class="st0" d="M135.3,172.5c1.9-1.4,4.4-1.6,6.7-1.4,1,.1,2.1.3,3.1.4-.2.6-.6,1.2-1,1.8-1.2,2-2.8,3.7-4.8,5-2.1,1.2-4.8,1.6-7.1.6,3.5-2.5,7.4-4.4,11.3-5.9.3,0,.5-.6.2-.9-.2-.2-.5,0-.7,0-2.7,1.1-5.3,2.2-7.7,3.6-1.1.6-2.2,1.4-3.3,2,.5-2,1.5-4,3.3-5.2h0Z"/>
      <path class="st4" d="M116.6,183.9c2.2-1.6,5-2.2,7.7-1.9,2.4.2,4.6,1.1,6.7,2.3,0,.7.3,1.4.4,2.1-1.4-.4-2.7-.9-3.9-1.7-.4-.2-.9-.7-1.5-.5,0,.3-.2.7,0,.9,2.3,1.7,5.2,2.6,8,2.7.4,0,.9,0,1.3-.1v-.8c-.4-.2-1-.2-1.5-.2s-1,0-1.5-.1c-.2-.7-.4-1.5-.5-2.2,2-1.3,4.3-2.2,6.7-2.4,2.5-.3,5.2.2,7.4,1.6,2.6,1.6,4.4,4.1,5.3,7.1.6,2.1.7,4.3.6,6.5-.4,5.7-2.1,11.4-4.9,16.4-.8,1.3-1.6,2.6-2.6,3.7-1.4,1.6-3.1,3-5.2,3.4-1.9.3-4,0-5.4-1.3-.6-.5-1.4-.9-2.2-.9s-1.7.4-2.4,1c-1.6,1.3-3.8,1.6-5.7,1.2-1.5-.3-2.8-1.2-3.8-2.2-1.1-1.1-2.1-2.3-2.9-3.6-3.2-5.3-5-11.3-5.5-17.4,0-2.2,0-4.4.5-6.5.7-2.8,2.5-5.3,4.9-6.9h0Z"/>
      <path class="st2" d="M120.9,185.4c.7,0,1.4-.1,2,0,.6.2.8,1.2.2,1.6-.3.2-.7.2-1,.2-1.3.1-2.6.6-3.6,1.5-.8.7-1.5,1.5-1.9,2.5-.2.5-.4,1-.6,1.5-.2.4-.8.4-1.2.2-.4-.3-.3-.9-.2-1.4.6-2.2,2-4.2,4.1-5.3.7-.4,1.6-.6,2.4-.8h0Z"/>
    </g>
    <g>
      <path class="st1" d="M185.7,172.4c1.8-1.7,4.3-2.4,6.7-2.3,1.6,0,3.1.3,4.7.4.4,0,.8,0,1.2.1,0,.2,0,.5,0,.7-1.1,2.4-2.6,4.7-4.6,6.5-1.8,1.7-4.3,2.7-6.8,2.7-1.2,0-2.3-.3-3.4-.7,0,1.2,0,2.3.2,3.5,2.6-1.7,5.7-2.6,8.8-2.5,1.7,0,3.3.4,4.8,1.1,3.2,1.5,5.6,4.3,6.8,7.7,1,2.9,1,6,.7,9.1-.6,5-2,10-4.4,14.4-1.1,2.1-2.4,4.2-4.1,5.8-1.1,1.1-2.4,2-3.9,2.4-2,.7-4.4.4-6.3-.6-.8-.4-1.5-1.3-2.5-1.4-.9,0-1.6.7-2.3,1.2-1.9,1.2-4.4,1.6-6.6.8-1.9-.6-3.6-1.9-4.9-3.5-2.2-2.6-3.8-5.7-5.1-8.9-1.7-4.3-2.7-8.9-2.7-13.6,0-3.2.7-6.5,2.5-9.1,1.7-2.4,4.1-4.3,7-5.1,3-.8,6.3-.4,9.2.7.6.2,1.2.6,1.8.8,0-1.3-.2-2.6-.1-3.9,0-1.7.4-3.4,0-5.1,0-.5-.3-.9-.4-1.3,0-.3.2-.6.6-.6.2,0,.3.2.5.4.4.9.5,1.9.6,2.9.5-1.1,1.2-2.1,2-2.9Z"/>
      <path class="st0" d="M187.1,172.5c1.9-1.4,4.4-1.6,6.7-1.4,1,.1,2.1.3,3.1.4-.2.6-.6,1.2-1,1.8-1.2,2-2.8,3.7-4.8,5-2.1,1.2-4.8,1.6-7.1.6,3.5-2.5,7.4-4.4,11.3-5.9.3,0,.5-.6.2-.9-.2-.2-.5,0-.7,0-2.7,1.1-5.3,2.2-7.7,3.6-1.1.6-2.2,1.4-3.3,2,.5-2,1.5-4,3.3-5.2h0Z"/>
      <path class="st4" d="M168.4,183.9c2.2-1.6,5-2.2,7.7-1.9,2.4.2,4.6,1.1,6.7,2.3,0,.7.3,1.4.4,2.1-1.4-.4-2.7-.9-3.9-1.7-.4-.2-.9-.7-1.5-.5,0,.3-.2.7,0,.9,2.3,1.7,5.2,2.6,8,2.7.4,0,.9,0,1.3-.1v-.8c-.4-.2-1-.2-1.5-.2s-1,0-1.5-.1c-.2-.7-.4-1.5-.5-2.2,2-1.3,4.3-2.2,6.7-2.4,2.5-.3,5.2.2,7.4,1.6,2.6,1.6,4.4,4.1,5.3,7.1.6,2.1.7,4.3.6,6.5-.4,5.7-2.1,11.4-4.9,16.4-.8,1.3-1.6,2.6-2.6,3.7-1.4,1.6-3.1,3-5.2,3.4-1.9.3-4,0-5.4-1.3-.6-.5-1.4-.9-2.2-.9s-1.7.4-2.4,1c-1.6,1.3-3.8,1.6-5.7,1.2-1.5-.3-2.8-1.2-3.8-2.2-1.1-1.1-2.1-2.3-2.9-3.6-3.2-5.3-5-11.3-5.5-17.4,0-2.2,0-4.4.5-6.5.7-2.8,2.5-5.3,4.9-6.9h0Z"/>
      <path class="st2" d="M172.8,185.4c.7,0,1.4-.1,2,0,.6.2.8,1.2.2,1.6-.3.2-.7.2-1,.2-1.3.1-2.6.6-3.6,1.5-.8.7-1.5,1.5-1.9,2.5-.2.5-.4,1-.6,1.5-.2.4-.8.4-1.2.2-.4-.3-.3-.9-.2-1.4.6-2.2,2-4.2,4.1-5.3.7-.4,1.6-.6,2.4-.8h0Z"/>
    </g>
    <g>
      <path class="st1" d="M80,231c1.8-1.7,4.3-2.4,6.7-2.3,1.6,0,3.1.3,4.7.4.4,0,.8,0,1.2.1,0,.2,0,.5,0,.7-1.1,2.4-2.6,4.7-4.6,6.5-1.8,1.7-4.3,2.7-6.8,2.7-1.2,0-2.3-.3-3.4-.7,0,1.2,0,2.3.2,3.5,2.6-1.7,5.7-2.6,8.8-2.5,1.7,0,3.3.4,4.8,1.1,3.2,1.5,5.6,4.3,6.8,7.7,1,2.9,1,6,.7,9.1-.6,5-2,10-4.4,14.4-1.1,2.1-2.4,4.2-4.1,5.8-1.1,1.1-2.4,2-3.9,2.4-2,.7-4.4.4-6.3-.6-.8-.4-1.5-1.3-2.5-1.4-.9,0-1.6.7-2.3,1.2-1.9,1.2-4.4,1.6-6.6.8-1.9-.6-3.6-1.9-4.9-3.5-2.2-2.6-3.8-5.7-5.1-8.9-1.7-4.3-2.7-8.9-2.7-13.6,0-3.2.7-6.5,2.5-9.1,1.7-2.4,4.1-4.3,7-5.1,3-.8,6.3-.4,9.2.7.6.2,1.2.6,1.8.8,0-1.3-.2-2.6-.1-3.9,0-1.7.4-3.4,0-5.1,0-.5-.3-.9-.4-1.3,0-.3.2-.6.6-.6.2,0,.3.2.5.4.4.9.5,1.9.6,2.9.5-1.1,1.2-2.1,2-2.9h0Z"/>
      <path class="st0" d="M81.5,231.1c1.9-1.4,4.4-1.6,6.7-1.4,1,.1,2.1.3,3.1.4-.2.6-.6,1.2-1,1.8-1.2,2-2.8,3.7-4.8,5-2.1,1.2-4.8,1.6-7.1.6,3.5-2.5,7.4-4.4,11.3-5.9.3,0,.5-.6.2-.9-.2-.2-.5,0-.7,0-2.7,1.1-5.3,2.2-7.7,3.6-1.1.6-2.2,1.4-3.3,2,.5-2,1.5-4,3.3-5.2h0Z"/>
      <path class="st4" d="M62.8,242.5c2.2-1.6,5-2.2,7.7-1.9,2.4.2,4.6,1.1,6.7,2.3,0,.7.3,1.4.4,2.1-1.4-.4-2.7-.9-3.9-1.7-.4-.2-.9-.7-1.5-.5,0,.3-.2.7,0,.9,2.3,1.7,5.2,2.6,8,2.7.4,0,.9,0,1.3-.1v-.8c-.4-.2-1-.2-1.5-.2s-1,0-1.5-.1c-.2-.7-.4-1.5-.5-2.2,2-1.3,4.3-2.2,6.7-2.4,2.5-.3,5.2.2,7.4,1.6,2.6,1.6,4.4,4.1,5.3,7.1.6,2.1.7,4.3.6,6.5-.4,5.7-2.1,11.4-4.9,16.4-.8,1.3-1.6,2.6-2.6,3.7-1.4,1.6-3.1,3-5.2,3.4-1.9.3-4,0-5.4-1.3-.6-.5-1.4-.9-2.2-.9s-1.7.4-2.4,1c-1.6,1.3-3.8,1.6-5.7,1.2-1.5-.3-2.8-1.2-3.8-2.2-1.1-1.1-2.1-2.3-2.9-3.6-3.2-5.3-5-11.3-5.5-17.4,0-2.2,0-4.4.5-6.5.7-2.8,2.5-5.3,4.9-6.9h0Z"/>
      <path class="st2" d="M67.1,244c.7,0,1.4-.1,2,0,.6.2.8,1.2.2,1.6-.3.2-.7.2-1,.2-1.3.1-2.6.6-3.6,1.5-.8.7-1.5,1.5-1.9,2.5-.2.5-.4,1-.6,1.5-.2.4-.8.4-1.2.2-.4-.3-.3-.9-.2-1.4.6-2.2,2-4.2,4.1-5.3.7-.4,1.6-.6,2.4-.8h0Z"/>
    </g>
    <g>
      <path class="st1" d="M131.9,231c1.8-1.7,4.3-2.4,6.7-2.3,1.6,0,3.1.3,4.7.4.4,0,.8,0,1.2.1,0,.2,0,.5,0,.7-1.1,2.4-2.6,4.7-4.6,6.5-1.8,1.7-4.3,2.7-6.8,2.7-1.2,0-2.3-.3-3.4-.7,0,1.2,0,2.3.2,3.5,2.6-1.7,5.7-2.6,8.8-2.5,1.7,0,3.3.4,4.8,1.1,3.2,1.5,5.6,4.3,6.8,7.7,1,2.9,1,6,.7,9.1-.6,5-2,10-4.4,14.4-1.1,2.1-2.4,4.2-4.1,5.8-1.1,1.1-2.4,2-3.9,2.4-2,.7-4.4.4-6.3-.6-.8-.4-1.5-1.3-2.5-1.4-.9,0-1.6.7-2.3,1.2-1.9,1.2-4.4,1.6-6.6.8-1.9-.6-3.6-1.9-4.9-3.5-2.2-2.6-3.8-5.7-5.1-8.9-1.7-4.3-2.7-8.9-2.7-13.6,0-3.2.7-6.5,2.5-9.1,1.7-2.4,4.1-4.3,7-5.1,3-.8,6.3-.4,9.2.7.6.2,1.2.6,1.8.8,0-1.3-.2-2.6-.1-3.9,0-1.7.4-3.4,0-5.1,0-.5-.3-.9-.4-1.3,0-.3.2-.6.6-.6.2,0,.3.2.5.4.4.9.5,1.9.6,2.9.5-1.1,1.2-2.1,2-2.9h0Z"/>
      <path class="st0" d="M133.3,231.1c1.9-1.4,4.4-1.6,6.7-1.4,1,.1,2.1.3,3.1.4-.2.6-.6,1.2-1,1.8-1.2,2-2.8,3.7-4.8,5-2.1,1.2-4.8,1.6-7.1.6,3.5-2.5,7.4-4.4,11.3-5.9.3,0,.5-.6.2-.9-.2-.2-.5,0-.7,0-2.7,1.1-5.3,2.2-7.7,3.6-1.1.6-2.2,1.4-3.3,2,.5-2,1.5-4,3.3-5.2h0Z"/>
      <path class="st4" d="M114.6,242.5c2.2-1.6,5-2.2,7.7-1.9,2.4.2,4.6,1.1,6.7,2.3,0,.7.3,1.4.4,2.1-1.4-.4-2.7-.9-3.9-1.7-.4-.2-.9-.7-1.5-.5,0,.3-.2.7,0,.9,2.3,1.7,5.2,2.6,8,2.7.4,0,.9,0,1.3-.1v-.8c-.4-.2-1-.2-1.5-.2s-1,0-1.5-.1c-.2-.7-.4-1.5-.5-2.2,2-1.3,4.3-2.2,6.7-2.4,2.5-.3,5.2.2,7.4,1.6,2.6,1.6,4.4,4.1,5.3,7.1.6,2.1.7,4.3.6,6.5-.4,5.7-2.1,11.4-4.9,16.4-.8,1.3-1.6,2.6-2.6,3.7-1.4,1.6-3.1,3-5.2,3.4-1.9.3-4,0-5.4-1.3-.6-.5-1.4-.9-2.2-.9s-1.7.4-2.4,1c-1.6,1.3-3.8,1.6-5.7,1.2-1.5-.3-2.8-1.2-3.8-2.2-1.1-1.1-2.1-2.3-2.9-3.6-3.2-5.3-5-11.3-5.5-17.4,0-2.2,0-4.4.5-6.5.7-2.8,2.5-5.3,4.9-6.9h0Z"/>
      <path class="st2" d="M118.9,244c.7,0,1.4-.1,2,0,.6.2.8,1.2.2,1.6-.3.2-.7.2-1,.2-1.3.1-2.6.6-3.6,1.5-.8.7-1.5,1.5-1.9,2.5-.2.5-.4,1-.6,1.5-.2.4-.8.4-1.2.2-.4-.3-.3-.9-.2-1.4.6-2.2,2-4.2,4.1-5.3.7-.4,1.6-.6,2.4-.8h0Z"/>
    </g>
    <g>
      <path class="st1" d="M183.7,231c1.8-1.7,4.3-2.4,6.7-2.3,1.6,0,3.1.3,4.7.4.4,0,.8,0,1.2.1,0,.2,0,.5,0,.7-1.1,2.4-2.6,4.7-4.6,6.5-1.8,1.7-4.3,2.7-6.8,2.7-1.2,0-2.3-.3-3.4-.7,0,1.2,0,2.3.2,3.5,2.6-1.7,5.7-2.6,8.8-2.5,1.7,0,3.3.4,4.8,1.1,3.2,1.5,5.6,4.3,6.8,7.7,1,2.9,1,6,.7,9.1-.6,5-2,10-4.4,14.4-1.1,2.1-2.4,4.2-4.1,5.8-1.1,1.1-2.4,2-3.9,2.4-2,.7-4.4.4-6.3-.6-.8-.4-1.5-1.3-2.5-1.4-.9,0-1.6.7-2.3,1.2-1.9,1.2-4.4,1.6-6.6.8-1.9-.6-3.6-1.9-4.9-3.5-2.2-2.6-3.8-5.7-5.1-8.9-1.7-4.3-2.7-8.9-2.7-13.6,0-3.2.7-6.5,2.5-9.1,1.7-2.4,4.1-4.3,7-5.1,3-.8,6.3-.4,9.2.7.6.2,1.2.6,1.8.8,0-1.3-.2-2.6-.1-3.9,0-1.7.4-3.4,0-5.1,0-.5-.3-.9-.4-1.3,0-.3.2-.6.6-.6.2,0,.3.2.5.4.4.9.5,1.9.6,2.9.5-1.1,1.2-2.1,2-2.9h0Z"/>
      <path class="st0" d="M185.1,231.1c1.9-1.4,4.4-1.6,6.7-1.4,1,.1,2.1.3,3.1.4-.2.6-.6,1.2-1,1.8-1.2,2-2.8,3.7-4.8,5-2.1,1.2-4.8,1.6-7.1.6,3.5-2.5,7.4-4.4,11.3-5.9.3,0,.5-.6.2-.9-.2-.2-.5,0-.7,0-2.7,1.1-5.3,2.2-7.7,3.6-1.1.6-2.2,1.4-3.3,2,.5-2,1.5-4,3.3-5.2h0Z"/>
      <path class="st4" d="M166.4,242.5c2.2-1.6,5-2.2,7.7-1.9,2.4.2,4.6,1.1,6.7,2.3,0,.7.3,1.4.4,2.1-1.4-.4-2.7-.9-3.9-1.7-.4-.2-.9-.7-1.5-.5,0,.3-.2.7,0,.9,2.3,1.7,5.2,2.6,8,2.7.4,0,.9,0,1.3-.1v-.8c-.4-.2-1-.2-1.5-.2s-1,0-1.5-.1c-.2-.7-.4-1.5-.5-2.2,2-1.3,4.3-2.2,6.7-2.4,2.5-.3,5.2.2,7.4,1.6,2.6,1.6,4.4,4.1,5.3,7.1.6,2.1.7,4.3.6,6.5-.4,5.7-2.1,11.4-4.9,16.4-.8,1.3-1.6,2.6-2.6,3.7-1.4,1.6-3.1,3-5.2,3.4-1.9.3-4,0-5.4-1.3-.6-.5-1.4-.9-2.2-.9s-1.7.4-2.4,1c-1.6,1.3-3.8,1.6-5.7,1.2-1.5-.3-2.8-1.2-3.8-2.2-1.1-1.1-2.1-2.3-2.9-3.6-3.2-5.3-5-11.3-5.5-17.4,0-2.2,0-4.4.5-6.5.7-2.8,2.5-5.3,4.9-6.9h0Z"/>
      <path class="st2" d="M170.8,244c.7,0,1.4-.1,2,0,.6.2.8,1.2.2,1.6-.3.2-.7.2-1,.2-1.3.1-2.6.6-3.6,1.5-.8.7-1.5,1.5-1.9,2.5-.2.5-.4,1-.6,1.5-.2.4-.8.4-1.2.2-.4-.3-.3-.9-.2-1.4.6-2.2,2-4.2,4.1-5.3.7-.4,1.6-.6,2.4-.8h0Z"/>
    </g>
    <g>
      <path class="st1" d="M82.5,294.6c1.8-1.7,4.3-2.4,6.7-2.3,1.6,0,3.1.3,4.7.4.4,0,.8,0,1.2.1,0,.2,0,.5,0,.7-1.1,2.4-2.6,4.7-4.6,6.5-1.8,1.7-4.3,2.7-6.8,2.7-1.2,0-2.3-.3-3.4-.7,0,1.2,0,2.3.2,3.5,2.6-1.7,5.7-2.6,8.8-2.5,1.7,0,3.3.4,4.8,1.1,3.2,1.5,5.6,4.3,6.8,7.7,1,2.9,1,6,.7,9.1-.6,5-2,10-4.4,14.4-1.1,2.1-2.4,4.2-4.1,5.8-1.1,1.1-2.4,2-3.9,2.4-2,.7-4.4.4-6.3-.6-.8-.4-1.5-1.3-2.5-1.4-.9,0-1.6.7-2.3,1.2-1.9,1.2-4.4,1.6-6.6.8-1.9-.6-3.6-1.9-4.9-3.5-2.2-2.6-3.8-5.7-5.1-8.9-1.7-4.3-2.7-8.9-2.7-13.6,0-3.2.7-6.5,2.5-9.1,1.7-2.4,4.1-4.3,7-5.1,3-.8,6.3-.4,9.2.7.6.2,1.2.6,1.8.8,0-1.3-.2-2.6-.1-3.9,0-1.7.4-3.4,0-5.1,0-.5-.3-.9-.4-1.3,0-.3.2-.6.6-.6.2,0,.3.2.5.4.4.9.5,1.9.6,2.9.5-1.1,1.2-2.1,2-2.9h0Z"/>
      <path class="st0" d="M83.9,294.8c1.9-1.4,4.4-1.6,6.7-1.4,1,.1,2.1.3,3.1.4-.2.6-.6,1.2-1,1.8-1.2,2-2.8,3.7-4.8,5-2.1,1.2-4.8,1.6-7.1.6,3.5-2.5,7.4-4.4,11.3-5.9.3,0,.5-.6.2-.9-.2-.2-.5,0-.7,0-2.7,1.1-5.3,2.2-7.7,3.6-1.1.6-2.2,1.4-3.3,2,.5-2,1.5-4,3.3-5.2h0Z"/>
      <path class="st4" d="M65.2,306.1c2.2-1.6,5-2.2,7.7-1.9,2.4.2,4.6,1.1,6.7,2.3,0,.7.3,1.4.4,2.1-1.4-.4-2.7-.9-3.9-1.7-.4-.2-.9-.7-1.5-.5,0,.3-.2.7,0,.9,2.3,1.7,5.2,2.6,8,2.7.4,0,.9,0,1.3-.1v-.8c-.4-.2-1-.2-1.5-.2s-1,0-1.5-.1c-.2-.7-.4-1.5-.5-2.2,2-1.3,4.3-2.2,6.7-2.4,2.5-.3,5.2.2,7.4,1.6,2.6,1.6,4.4,4.1,5.3,7.1.6,2.1.7,4.3.6,6.5-.4,5.7-2.1,11.4-4.9,16.4-.8,1.3-1.6,2.6-2.6,3.7-1.4,1.6-3.1,3-5.2,3.4-1.9.3-4,0-5.4-1.3-.6-.5-1.4-.9-2.2-.9s-1.7.4-2.4,1c-1.6,1.3-3.8,1.6-5.7,1.2-1.5-.3-2.8-1.2-3.8-2.2-1.1-1.1-2.1-2.3-2.9-3.6-3.2-5.3-5-11.3-5.5-17.4,0-2.2,0-4.4.5-6.5.7-2.8,2.5-5.3,4.9-6.9h0Z"/>
      <path class="st2" d="M69.5,307.7c.7,0,1.4-.1,2,0,.6.2.8,1.2.2,1.6-.3.2-.7.2-1,.2-1.3.1-2.6.6-3.6,1.5-.8.7-1.5,1.5-1.9,2.5-.2.5-.4,1-.6,1.5-.2.4-.8.4-1.2.2-.4-.3-.3-.9-.2-1.4.6-2.2,2-4.2,4.1-5.3.7-.4,1.6-.6,2.4-.8h0Z"/>
    </g>
    <g>
      <path class="st1" d="M134.3,294.6c1.8-1.7,4.3-2.4,6.7-2.3,1.6,0,3.1.3,4.7.4.4,0,.8,0,1.2.1,0,.2,0,.5,0,.7-1.1,2.4-2.6,4.7-4.6,6.5-1.8,1.7-4.3,2.7-6.8,2.7-1.2,0-2.3-.3-3.4-.7,0,1.2,0,2.3.2,3.5,2.6-1.7,5.7-2.6,8.8-2.5,1.7,0,3.3.4,4.8,1.1,3.2,1.5,5.6,4.3,6.8,7.7,1,2.9,1,6,.7,9.1-.6,5-2,10-4.4,14.4-1.1,2.1-2.4,4.2-4.1,5.8-1.1,1.1-2.4,2-3.9,2.4-2,.7-4.4.4-6.3-.6-.8-.4-1.5-1.3-2.5-1.4-.9,0-1.6.7-2.3,1.2-1.9,1.2-4.4,1.6-6.6.8-1.9-.6-3.6-1.9-4.9-3.5-2.2-2.6-3.8-5.7-5.1-8.9-1.7-4.3-2.7-8.9-2.7-13.6,0-3.2.7-6.5,2.5-9.1,1.7-2.4,4.1-4.3,7-5.1,3-.8,6.3-.4,9.2.7.6.2,1.2.6,1.8.8,0-1.3-.2-2.6-.1-3.9,0-1.7.4-3.4,0-5.1,0-.5-.3-.9-.4-1.3,0-.3.2-.6.6-.6.2,0,.3.2.5.4.4.9.5,1.9.6,2.9.5-1.1,1.2-2.1,2-2.9Z"/>
      <path class="st0" d="M135.7,294.8c1.9-1.4,4.4-1.6,6.7-1.4,1,.1,2.1.3,3.1.4-.2.6-.6,1.2-1,1.8-1.2,2-2.8,3.7-4.8,5-2.1,1.2-4.8,1.6-7.1.6,3.5-2.5,7.4-4.4,11.3-5.9.3,0,.5-.6.2-.9-.2-.2-.5,0-.7,0-2.7,1.1-5.3,2.2-7.7,3.6-1.1.6-2.2,1.4-3.3,2,.5-2,1.5-4,3.3-5.2h0Z"/>
      <path class="st4" d="M117,306.1c2.2-1.6,5-2.2,7.7-1.9,2.4.2,4.6,1.1,6.7,2.3,0,.7.3,1.4.4,2.1-1.4-.4-2.7-.9-3.9-1.7-.4-.2-.9-.7-1.5-.5,0,.3-.2.7,0,.9,2.3,1.7,5.2,2.6,8,2.7.4,0,.9,0,1.3-.1v-.8c-.4-.2-1-.2-1.5-.2s-1,0-1.5-.1c-.2-.7-.4-1.5-.5-2.2,2-1.3,4.3-2.2,6.7-2.4,2.5-.3,5.2.2,7.4,1.6,2.6,1.6,4.4,4.1,5.3,7.1.6,2.1.7,4.3.6,6.5-.4,5.7-2.1,11.4-4.9,16.4-.8,1.3-1.6,2.6-2.6,3.7-1.4,1.6-3.1,3-5.2,3.4-1.9.3-4,0-5.4-1.3-.6-.5-1.4-.9-2.2-.9s-1.7.4-2.4,1c-1.6,1.3-3.8,1.6-5.7,1.2-1.5-.3-2.8-1.2-3.8-2.2-1.1-1.1-2.1-2.3-2.9-3.6-3.2-5.3-5-11.3-5.5-17.4,0-2.2,0-4.4.5-6.5.7-2.8,2.5-5.3,4.9-6.9h0Z"/>
      <path class="st2" d="M121.3,307.7c.7,0,1.4-.1,2,0,.6.2.8,1.2.2,1.6-.3.2-.7.2-1,.2-1.3.1-2.6.6-3.6,1.5-.8.7-1.5,1.5-1.9,2.5-.2.5-.4,1-.6,1.5-.2.4-.8.4-1.2.2-.4-.3-.3-.9-.2-1.4.6-2.2,2-4.2,4.1-5.3.7-.4,1.6-.6,2.4-.8h0Z"/>
    </g>
    <g>
      <path class="st1" d="M186.1,294.6c1.8-1.7,4.3-2.4,6.7-2.3,1.6,0,3.1.3,4.7.4.4,0,.8,0,1.2.1,0,.2,0,.5,0,.7-1.1,2.4-2.6,4.7-4.6,6.5-1.8,1.7-4.3,2.7-6.8,2.7-1.2,0-2.3-.3-3.4-.7,0,1.2,0,2.3.2,3.5,2.6-1.7,5.7-2.6,8.8-2.5,1.7,0,3.3.4,4.8,1.1,3.2,1.5,5.6,4.3,6.8,7.7,1,2.9,1,6,.7,9.1-.6,5-2,10-4.4,14.4-1.1,2.1-2.4,4.2-4.1,5.8-1.1,1.1-2.4,2-3.9,2.4-2,.7-4.4.4-6.3-.6-.8-.4-1.5-1.3-2.5-1.4-.9,0-1.6.7-2.3,1.2-1.9,1.2-4.4,1.6-6.6.8-1.9-.6-3.6-1.9-4.9-3.5-2.2-2.6-3.8-5.7-5.1-8.9-1.7-4.3-2.7-8.9-2.7-13.6,0-3.2.7-6.5,2.5-9.1,1.7-2.4,4.1-4.3,7-5.1,3-.8,6.3-.4,9.2.7.6.2,1.2.6,1.8.8,0-1.3-.2-2.6-.1-3.9,0-1.7.4-3.4,0-5.1,0-.5-.3-.9-.4-1.3,0-.3.2-.6.6-.6.2,0,.3.2.5.4.4.9.5,1.9.6,2.9.5-1.1,1.2-2.1,2-2.9Z"/>
      <path class="st0" d="M187.5,294.8c1.9-1.4,4.4-1.6,6.7-1.4,1,.1,2.1.3,3.1.4-.2.6-.6,1.2-1,1.8-1.2,2-2.8,3.7-4.8,5-2.1,1.2-4.8,1.6-7.1.6,3.5-2.5,7.4-4.4,11.3-5.9.3,0,.5-.6.2-.9-.2-.2-.5,0-.7,0-2.7,1.1-5.3,2.2-7.7,3.6-1.1.6-2.2,1.4-3.3,2,.5-2,1.5-4,3.3-5.2h0Z"/>
      <path class="st4" d="M168.9,306.1c2.2-1.6,5-2.2,7.7-1.9,2.4.2,4.6,1.1,6.7,2.3,0,.7.3,1.4.4,2.1-1.4-.4-2.7-.9-3.9-1.7-.4-.2-.9-.7-1.5-.5,0,.3-.2.7,0,.9,2.3,1.7,5.2,2.6,8,2.7.4,0,.9,0,1.3-.1v-.8c-.4-.2-1-.2-1.5-.2s-1,0-1.5-.1c-.2-.7-.4-1.5-.5-2.2,2-1.3,4.3-2.2,6.7-2.4,2.5-.3,5.2.2,7.4,1.6,2.6,1.6,4.4,4.1,5.3,7.1.6,2.1.7,4.3.6,6.5-.4,5.7-2.1,11.4-4.9,16.4-.8,1.3-1.6,2.6-2.6,3.7-1.4,1.6-3.1,3-5.2,3.4-1.9.3-4,0-5.4-1.3-.6-.5-1.4-.9-2.2-.9s-1.7.4-2.4,1c-1.6,1.3-3.8,1.6-5.7,1.2-1.5-.3-2.8-1.2-3.8-2.2-1.1-1.1-2.1-2.3-2.9-3.6-3.2-5.3-5-11.3-5.5-17.4,0-2.2,0-4.4.5-6.5.7-2.8,2.5-5.3,4.9-6.9h0Z"/>
      <path class="st2" d="M173.2,307.7c.7,0,1.4-.1,2,0,.6.2.8,1.2.2,1.6-.3.2-.7.2-1,.2-1.3.1-2.6.6-3.6,1.5-.8.7-1.5,1.5-1.9,2.5-.2.5-.4,1-.6,1.5-.2.4-.8.4-1.2.2-.4-.3-.3-.9-.2-1.4.6-2.2,2-4.2,4.1-5.3.7-.4,1.6-.6,2.4-.8h0Z"/>
    </g>
  </g>
  <path class="st3" d="M262.1,218.1c12.7,8.6,25.3,17.3,38,25.9-12.7,8.4-25.3,16.8-38,25.2"/>
  <g>
    <g>
      <path class="st1" d="M353.6,216.8c1.8-1.7,4.3-2.4,6.7-2.3,1.6,0,3.1.3,4.7.4.4,0,.8,0,1.2.1,0,.2,0,.5,0,.7-1.1,2.4-2.6,4.7-4.6,6.5-1.8,1.7-4.3,2.7-6.8,2.7-1.2,0-2.3-.3-3.4-.7,0,1.2,0,2.3.2,3.5,2.6-1.7,5.7-2.6,8.8-2.5,1.7,0,3.3.4,4.8,1.1,3.2,1.5,5.6,4.3,6.8,7.7,1,2.9,1,6,.7,9.1-.6,5-2,10-4.4,14.4-1.1,2.1-2.4,4.2-4.1,5.8-1.1,1.1-2.4,2-3.9,2.4-2,.7-4.4.4-6.3-.6-.8-.4-1.5-1.3-2.5-1.4-.9,0-1.6.7-2.3,1.2-1.9,1.2-4.4,1.6-6.6.8-1.9-.6-3.6-1.9-4.9-3.5-2.2-2.6-3.8-5.7-5.1-8.9-1.7-4.3-2.7-8.9-2.7-13.6,0-3.2.7-6.5,2.5-9.1,1.7-2.4,4.1-4.3,7-5.1,3-.8,6.3-.4,9.2.7.6.2,1.2.6,1.8.8,0-1.3-.2-2.6-.1-3.9,0-1.7.4-3.4,0-5.1,0-.5-.3-.9-.4-1.3,0-.3.2-.6.6-.6.2,0,.3.2.5.4.4.9.5,1.9.6,2.9.5-1.1,1.2-2.1,2-2.9h0Z"/>
      <path class="st0" d="M355,217c1.9-1.4,4.4-1.6,6.7-1.4,1,.1,2.1.3,3.1.4-.2.6-.6,1.2-1,1.8-1.2,2-2.8,3.7-4.8,5-2.1,1.2-4.8,1.6-7.1.6,3.5-2.5,7.4-4.4,11.3-5.9.3,0,.5-.6.2-.9-.2-.2-.5,0-.7,0-2.7,1.1-5.3,2.2-7.7,3.6-1.1.6-2.2,1.4-3.3,2,.5-2,1.5-4,3.3-5.2h0Z"/>
      <path class="st4" d="M336.3,228.3c2.2-1.6,5-2.2,7.7-1.9,2.4.2,4.6,1.1,6.7,2.3,0,.7.3,1.4.4,2.1-1.4-.4-2.7-.9-3.9-1.7-.4-.2-.9-.7-1.5-.5,0,.3-.2.7,0,.9,2.3,1.7,5.2,2.6,8,2.7.4,0,.9,0,1.3-.1v-.8c-.4-.2-1-.2-1.5-.2s-1,0-1.5-.1c-.2-.7-.4-1.5-.5-2.2,2-1.3,4.3-2.2,6.7-2.4,2.5-.3,5.2.2,7.4,1.6,2.6,1.6,4.4,4.1,5.3,7.1.6,2.1.7,4.3.6,6.5-.4,5.7-2.1,11.4-4.9,16.4-.8,1.3-1.6,2.6-2.6,3.7-1.4,1.6-3.1,3-5.2,3.4-1.9.3-4,0-5.4-1.3-.6-.5-1.4-.9-2.2-.9s-1.7.4-2.4,1c-1.6,1.3-3.8,1.6-5.7,1.2-1.5-.3-2.8-1.2-3.8-2.2-1.1-1.1-2.1-2.3-2.9-3.6-3.2-5.3-5-11.3-5.5-17.4,0-2.2,0-4.4.5-6.5.7-2.8,2.5-5.3,4.9-6.9h0Z"/>
      <path class="st2" d="M340.7,229.9c.7,0,1.4-.1,2,0,.6.2.8,1.2.2,1.6-.3.2-.7.2-1,.2-1.3.1-2.6.6-3.6,1.5-.8.7-1.5,1.5-1.9,2.5-.2.5-.4,1-.6,1.5-.2.4-.8.4-1.2.2-.4-.3-.3-.9-.2-1.4.6-2.2,2-4.2,4.1-5.3.7-.4,1.6-.6,2.4-.8h0Z"/>
    </g>
    <g>
      <path class="st1" d="M405.4,216.8c1.8-1.7,4.3-2.4,6.7-2.3,1.6,0,3.1.3,4.7.4.4,0,.8,0,1.2.1,0,.2,0,.5,0,.7-1.1,2.4-2.6,4.7-4.6,6.5-1.8,1.7-4.3,2.7-6.8,2.7-1.2,0-2.3-.3-3.4-.7,0,1.2,0,2.3.2,3.5,2.6-1.7,5.7-2.6,8.8-2.5,1.7,0,3.3.4,4.8,1.1,3.2,1.5,5.6,4.3,6.8,7.7,1,2.9,1,6,.7,9.1-.6,5-2,10-4.4,14.4-1.1,2.1-2.4,4.2-4.1,5.8-1.1,1.1-2.4,2-3.9,2.4-2,.7-4.4.4-6.3-.6-.8-.4-1.5-1.3-2.5-1.4-.9,0-1.6.7-2.3,1.2-1.9,1.2-4.4,1.6-6.6.8-1.9-.6-3.6-1.9-4.9-3.5-2.2-2.6-3.8-5.7-5.1-8.9-1.7-4.3-2.7-8.9-2.7-13.6,0-3.2.7-6.5,2.5-9.1,1.7-2.4,4.1-4.3,7-5.1,3-.8,6.3-.4,9.2.7.6.2,1.2.6,1.8.8,0-1.3-.2-2.6-.1-3.9,0-1.7.4-3.4,0-5.1,0-.5-.3-.9-.4-1.3,0-.3.2-.6.6-.6.2,0,.3.2.5.4.4.9.5,1.9.6,2.9.5-1.1,1.2-2.1,2-2.9h0Z"/>
      <path class="st0" d="M406.8,217c1.9-1.4,4.4-1.6,6.7-1.4,1,.1,2.1.3,3.1.4-.2.6-.6,1.2-1,1.8-1.2,2-2.8,3.7-4.8,5-2.1,1.2-4.8,1.6-7.1.6,3.5-2.5,7.4-4.4,11.3-5.9.3,0,.5-.6.2-.9-.2-.2-.5,0-.7,0-2.7,1.1-5.3,2.2-7.7,3.6-1.1.6-2.2,1.4-3.3,2,.5-2,1.5-4,3.3-5.2h0Z"/>
      <path class="st4" d="M388.1,228.3c2.2-1.6,5-2.2,7.7-1.9,2.4.2,4.6,1.1,6.7,2.3,0,.7.3,1.4.4,2.1-1.4-.4-2.7-.9-3.9-1.7-.4-.2-.9-.7-1.5-.5,0,.3-.2.7,0,.9,2.3,1.7,5.2,2.6,8,2.7.4,0,.9,0,1.3-.1v-.8c-.4-.2-1-.2-1.5-.2s-1,0-1.5-.1c-.2-.7-.4-1.5-.5-2.2,2-1.3,4.3-2.2,6.7-2.4,2.5-.3,5.2.2,7.4,1.6,2.6,1.6,4.4,4.1,5.3,7.1.6,2.1.7,4.3.6,6.5-.4,5.7-2.1,11.4-4.9,16.4-.8,1.3-1.6,2.6-2.6,3.7-1.4,1.6-3.1,3-5.2,3.4-1.9.3-4,0-5.4-1.3-.6-.5-1.4-.9-2.2-.9s-1.7.4-2.4,1c-1.6,1.3-3.8,1.6-5.7,1.2-1.5-.3-2.8-1.2-3.8-2.2-1.1-1.1-2.1-2.3-2.9-3.6-3.2-5.3-5-11.3-5.5-17.4,0-2.2,0-4.4.5-6.5.7-2.8,2.5-5.3,4.9-6.9h0Z"/>
      <path class="st2" d="M392.5,229.9c.7,0,1.4-.1,2,0,.6.2.8,1.2.2,1.6-.3.2-.7.2-1,.2-1.3.1-2.6.6-3.6,1.5-.8.7-1.5,1.5-1.9,2.5-.2.5-.4,1-.6,1.5-.2.4-.8.4-1.2.2-.4-.3-.3-.9-.2-1.4.6-2.2,2-4.2,4.1-5.3.7-.4,1.6-.6,2.4-.8h0Z"/>
    </g>
    <g>
      <path class="st1" d="M457.2,216.8c1.8-1.7,4.3-2.4,6.7-2.3,1.6,0,3.1.3,4.7.4.4,0,.8,0,1.2.1,0,.2,0,.5,0,.7-1.1,2.4-2.6,4.7-4.6,6.5-1.8,1.7-4.3,2.7-6.8,2.7-1.2,0-2.3-.3-3.4-.7,0,1.2,0,2.3.2,3.5,2.6-1.7,5.7-2.6,8.8-2.5,1.7,0,3.3.4,4.8,1.1,3.2,1.5,5.6,4.3,6.8,7.7,1,2.9,1,6,.7,9.1-.6,5-2,10-4.4,14.4-1.1,2.1-2.4,4.2-4.1,5.8-1.1,1.1-2.4,2-3.9,2.4-2,.7-4.4.4-6.3-.6-.8-.4-1.5-1.3-2.5-1.4-.9,0-1.6.7-2.3,1.2-1.9,1.2-4.4,1.6-6.6.8-1.9-.6-3.6-1.9-4.9-3.5-2.2-2.6-3.8-5.7-5.1-8.9-1.7-4.3-2.7-8.9-2.7-13.6,0-3.2.7-6.5,2.5-9.1,1.7-2.4,4.1-4.3,7-5.1,3-.8,6.3-.4,9.2.7.6.2,1.2.6,1.8.8,0-1.3-.2-2.6-.1-3.9,0-1.7.4-3.4,0-5.1,0-.5-.3-.9-.4-1.3,0-.3.2-.6.6-.6.2,0,.3.2.5.4.4.9.5,1.9.6,2.9.5-1.1,1.2-2.1,2-2.9h0Z"/>
      <path class="st0" d="M458.7,217c1.9-1.4,4.4-1.6,6.7-1.4,1,.1,2.1.3,3.1.4-.2.6-.6,1.2-1,1.8-1.2,2-2.8,3.7-4.8,5-2.1,1.2-4.8,1.6-7.1.6,3.5-2.5,7.4-4.4,11.3-5.9.3,0,.5-.6.2-.9-.2-.2-.5,0-.7,0-2.7,1.1-5.3,2.2-7.7,3.6-1.1.6-2.2,1.4-3.3,2,.5-2,1.5-4,3.3-5.2h0Z"/>
      <path class="st4" d="M440,228.3c2.2-1.6,5-2.2,7.7-1.9,2.4.2,4.6,1.1,6.7,2.3,0,.7.3,1.4.4,2.1-1.4-.4-2.7-.9-3.9-1.7-.4-.2-.9-.7-1.5-.5,0,.3-.2.7,0,.9,2.3,1.7,5.2,2.6,8,2.7.4,0,.9,0,1.3-.1v-.8c-.4-.2-1-.2-1.5-.2s-1,0-1.5-.1c-.2-.7-.4-1.5-.5-2.2,2-1.3,4.3-2.2,6.7-2.4,2.5-.3,5.2.2,7.4,1.6,2.6,1.6,4.4,4.1,5.3,7.1.6,2.1.7,4.3.6,6.5-.4,5.7-2.1,11.4-4.9,16.4-.8,1.3-1.6,2.6-2.6,3.7-1.4,1.6-3.1,3-5.2,3.4-1.9.3-4,0-5.4-1.3-.6-.5-1.4-.9-2.2-.9s-1.7.4-2.4,1c-1.6,1.3-3.8,1.6-5.7,1.2-1.5-.3-2.8-1.2-3.8-2.2-1.1-1.1-2.1-2.3-2.9-3.6-3.2-5.3-5-11.3-5.5-17.4,0-2.2,0-4.4.5-6.5.7-2.8,2.5-5.3,4.9-6.9h0Z"/>
      <path class="st2" d="M444.3,229.9c.7,0,1.4-.1,2,0,.6.2.8,1.2.2,1.6-.3.2-.7.2-1,.2-1.3.1-2.6.6-3.6,1.5-.8.7-1.5,1.5-1.9,2.5-.2.5-.4,1-.6,1.5-.2.4-.8.4-1.2.2-.4-.3-.3-.9-.2-1.4.6-2.2,2-4.2,4.1-5.3.7-.4,1.6-.6,2.4-.8h0Z"/>
    </g>
  </g>
</svg>