<?xml version="1.0" encoding="utf-8"?>
<svg xmlns="http://www.w3.org/2000/svg" height="512pt" version="1.1" viewBox="0 0 512 512" width="512pt">
<path d="M 0.00 0.00 L 512.00 0.00 L 512.00 512.00 L 0.00 512.00 L 0.00 0.00 Z" fill="transparent" opacity="1.00" stroke="transparent" stroke-width="0.25"/>
<path d="M 173.48 77.81 C 176.66 77.40 179.88 77.49 183.08 77.51 C 231.41 77.46 279.74 77.52 328.07 77.50 C 335.00 77.38 342.46 78.46 347.91 83.11 C 354.92 88.40 357.60 97.53 357.43 105.99 C 357.39 204.99 357.44 303.99 357.41 402.99 C 357.25 409.84 355.93 417.08 351.42 422.50 C 345.32 429.96 335.38 433.01 325.99 432.31 C 280.32 432.28 234.66 432.30 188.99 432.29 C 183.20 432.28 177.32 432.58 171.62 431.31 C 163.06 429.22 155.54 422.76 152.54 414.44 C 150.99 408.09 150.51 401.47 150.99 394.95 C 150.76 384.97 150.44 374.97 151.12 365.00 C 151.14 360.33 150.52 355.67 150.74 350.99 C 150.77 272.66 150.75 194.32 150.76 115.98 C 151.06 110.78 151.29 105.57 151.37 100.36 C 151.95 88.76 162.13 79.03 173.48 77.81 Z" fill="#a3e5fc" opacity="1.00" stroke="#a3e5fc" stroke-width="0.25"/>
<path d="M 215.61 92.74 C 216.61 91.31 218.56 91.65 220.05 91.28 C 220.90 92.09 221.74 92.91 222.57 93.75 C 222.57 94.64 222.56 96.42 222.56 97.31 C 220.92 98.43 219.13 100.28 216.97 99.24 C 214.63 98.01 215.02 94.87 215.61 92.74 Z" fill="#ffffff" opacity="1.00" stroke="#ffffff" stroke-width="0.25"/>
<path d="M 239.60 93.67 C 252.41 93.39 265.24 93.47 278.05 93.62 C 280.84 93.48 280.23 96.83 279.93 98.62 C 266.57 98.72 253.22 98.66 239.86 98.66 C 239.77 97.00 239.68 95.33 239.60 93.67 Z" fill="#ffffff" opacity="1.00" stroke="#ffffff" stroke-width="0.25"/>
<path d="M 174.37 113.46 C 227.26 113.53 280.16 113.51 333.06 113.47 C 333.75 113.51 335.15 113.60 335.84 113.65 C 336.67 114.87 336.20 116.57 336.39 117.98 C 336.19 205.91 336.45 293.84 336.26 381.77 C 323.50 381.45 310.75 382.65 297.99 381.89 C 291.33 382.21 284.68 381.41 278.03 382.03 C 243.47 381.47 208.89 382.04 174.32 381.72 C 174.15 327.48 174.33 273.23 174.24 218.99 C 174.35 183.81 174.08 148.63 174.37 113.46 Z" fill="#ffffff" opacity="1.00" stroke="#ffffff" stroke-width="0.25"/>
<path d="M 251.26 392.11 C 256.13 390.81 261.80 391.86 265.38 395.57 C 272.12 401.50 271.21 413.77 263.55 418.57 C 256.20 424.04 244.53 420.26 241.45 411.75 C 238.05 404.00 243.22 394.21 251.26 392.11 Z" fill="#ffffff" opacity="1.00" stroke="#ffffff" stroke-width="0.25"/>
</svg>