<?xml version="1.0" encoding="utf-8"?>
<svg xmlns="http://www.w3.org/2000/svg" height="512pt" version="1.1" viewBox="0 0 512 512" width="512pt">
<path d="M 0.00 0.00 L 512.00 0.00 L 512.00 512.00 L 0.00 512.00 L 0.00 0.00 Z" fill="#fdfefe" opacity="1.00" stroke="#fdfefe" stroke-width="0.25"/>
<path d="M 256.00 12.01 C 256.10 8.71 262.82 11.77 265.27 11.29 C 262.17 11.63 259.11 12.04 256.00 12.01 Z" fill="#96a8b4" opacity="1.00" stroke="#96a8b4" stroke-width="0.25"/>
<path d="M 265.27 11.29 C 273.16 10.83 281.09 10.90 289.01 11.00 L 289.01 11.93 C 277.04 11.98 264.85 11.69 253.21 14.90 C 253.14 14.20 253.02 12.80 252.95 12.10 C 253.71 12.08 255.24 12.04 256.00 12.01 C 259.11 12.04 262.17 11.63 265.27 11.29 Z" fill="#3f5162" opacity="1.00" stroke="#3f5162" stroke-width="0.25"/>
<path d="M 289.01 11.00 C 293.79 11.57 301.50 11.84 305.00 13.98 C 295.61 14.11 286.22 13.91 276.84 13.92 C 279.66 12.96 300.36 13.10 289.01 11.93 L 289.01 11.00 Z" fill="#7991a6" opacity="1.00" stroke="#7991a6" stroke-width="0.25"/>
<path d="M 248.00 12.03 C 249.64 11.93 251.30 11.93 252.95 12.10 C 253.02 12.80 253.14 14.20 253.21 14.90 C 251.44 13.93 247.39 14.98 248.00 12.03 Z" fill="#afbac5" opacity="1.00" stroke="#afbac5" stroke-width="0.25"/>
<path d="M 253.21 14.90 C 264.85 11.69 277.04 11.98 289.01 11.93 C 300.36 13.10 279.66 12.96 276.84 13.92 C 272.61 14.58 268.33 15.00 264.07 15.27 C 262.37 14.61 260.33 14.44 258.90 15.76 C 258.19 15.89 256.77 16.14 256.06 16.27 C 255.25 16.14 253.64 15.88 252.84 15.75 L 253.21 14.90 Z" fill="#ccdfeb" opacity="1.00" stroke="#ccdfeb" stroke-width="0.25"/>
<path d="M 216.24 13.34 C 222.78 10.46 216.59 18.06 216.24 13.34 Z" fill="#b3b6b5" opacity="1.00" stroke="#b3b6b5" stroke-width="0.25"/>
<path d="M 264.07 15.27 C 268.33 15.00 272.61 14.58 276.84 13.92 C 286.22 13.91 295.61 14.11 305.00 13.98 C 306.73 13.99 308.47 13.95 310.19 14.26 C 311.52 15.07 312.79 16.00 314.01 16.99 C 315.24 18.33 317.16 18.14 318.80 17.97 C 320.25 17.83 321.66 18.00 323.04 18.47 C 324.55 19.13 326.20 19.18 327.82 18.99 C 338.95 20.60 349.76 24.40 360.20 28.55 C 357.71 28.86 355.23 28.40 352.75 28.17 C 354.88 29.66 357.44 30.19 359.92 30.78 C 362.91 31.71 365.85 32.76 368.73 34.00 C 370.21 34.71 371.70 35.41 373.10 36.28 C 372.86 36.48 372.37 36.89 372.13 37.09 C 371.67 36.99 370.74 36.78 370.28 36.68 C 367.30 34.49 357.90 34.66 364.70 37.82 C 386.63 46.69 408.78 56.77 425.15 74.58 C 420.11 73.34 416.59 68.86 411.77 66.98 C 412.10 68.30 413.00 69.30 413.98 70.20 C 413.69 70.48 413.10 71.03 412.81 71.31 C 409.76 69.09 406.77 66.81 403.70 64.63 C 404.41 63.52 405.16 62.42 405.82 61.26 C 391.35 57.28 375.94 53.16 361.11 58.16 C 344.81 64.69 330.04 77.56 324.52 94.60 C 320.21 101.78 325.20 112.03 318.93 118.00 C 313.22 117.89 307.48 116.80 301.79 117.76 C 299.89 117.90 297.99 118.03 296.10 118.15 C 294.68 117.60 292.96 117.56 291.89 118.80 C 275.37 120.91 258.95 124.92 243.94 132.29 C 225.51 139.83 208.20 155.79 186.96 150.05 C 161.24 144.24 134.90 149.84 110.06 157.02 C 88.07 162.97 65.20 163.96 42.59 162.11 C 49.02 145.30 59.06 130.24 68.04 114.85 C 63.75 119.10 60.89 124.47 57.36 129.32 C 57.00 128.72 56.28 127.52 55.93 126.93 C 57.90 124.31 57.96 121.05 57.75 117.92 C 55.56 117.96 54.50 120.10 53.82 121.86 C 53.19 123.30 52.64 124.76 52.13 126.23 C 51.55 125.86 50.38 125.10 49.80 124.72 C 53.45 118.48 57.87 112.74 62.23 106.99 C 65.60 104.41 64.32 101.23 61.14 105.10 L 61.07 104.14 C 61.90 99.05 67.57 96.37 70.59 92.62 C 83.63 77.15 97.84 62.48 114.37 50.69 C 112.06 55.43 115.15 53.48 118.00 51.44 C 118.94 50.89 119.60 50.08 119.96 49.03 C 121.40 49.40 122.84 48.45 122.92 46.93 C 124.49 46.43 126.06 45.88 127.62 45.34 C 134.07 44.87 139.12 39.71 144.25 36.21 C 146.26 35.34 148.24 34.40 150.19 33.40 C 156.29 30.56 162.71 28.21 169.03 26.03 C 172.07 25.11 170.81 27.47 168.88 27.89 C 166.86 28.63 164.88 29.43 162.94 30.34 C 164.15 32.13 166.41 31.30 168.21 31.49 C 167.58 31.89 166.31 32.70 165.68 33.10 C 161.95 34.78 157.51 35.69 154.80 39.00 C 159.33 37.61 163.75 35.88 168.24 34.35 C 178.98 31.05 189.04 25.55 200.01 23.02 C 200.52 23.16 201.55 23.44 202.06 23.58 C 201.56 23.68 200.55 23.89 200.05 23.99 C 196.05 24.26 196.73 28.74 201.95 25.46 C 204.03 24.67 206.14 23.96 208.27 23.29 C 212.19 22.44 216.10 20.99 220.16 21.00 C 221.46 21.19 222.83 21.13 224.01 20.48 C 226.43 19.59 229.03 18.43 231.65 19.21 C 232.39 22.77 237.00 19.01 239.22 19.37 C 240.57 19.06 241.93 18.73 243.28 18.37 C 244.00 18.28 245.44 18.10 246.16 18.01 C 247.47 18.19 248.83 18.09 250.01 17.43 C 250.53 17.32 251.56 17.11 252.08 17.00 C 253.45 17.38 254.93 17.18 256.06 16.27 C 256.77 16.14 258.19 15.89 258.90 15.76 C 260.60 16.38 262.61 16.54 264.07 15.27 Z" fill="#04355d" opacity="1.00" stroke="#04355d" stroke-width="0.25"/>
<path d="M 310.19 14.26 C 312.07 12.88 315.20 14.57 314.01 16.99 C 312.79 16.00 311.52 15.07 310.19 14.26 Z" fill="#688090" opacity="1.00" stroke="#688090" stroke-width="0.25"/>
<path d="M 258.90 15.76 C 260.33 14.44 262.37 14.61 264.07 15.27 C 262.61 16.54 260.60 16.38 258.90 15.76 Z" fill="#768ea1" opacity="1.00" stroke="#768ea1" stroke-width="0.25"/>
<path d="M 237.23 16.71 C 235.43 13.71 245.37 15.49 240.47 17.41 C 240.31 18.06 241.24 18.38 243.28 18.37 C 241.93 18.73 240.57 19.06 239.22 19.37 C 231.97 19.20 241.52 17.85 237.23 16.71 Z" fill="#beced9" opacity="1.00" stroke="#beced9" stroke-width="0.25"/>
<path d="M 252.08 17.00 C 252.27 16.69 252.65 16.07 252.84 15.75 C 253.64 15.88 255.25 16.14 256.06 16.27 C 254.93 17.18 253.45 17.38 252.08 17.00 Z" fill="#728fa7" opacity="1.00" stroke="#728fa7" stroke-width="0.25"/>
<path d="M 231.65 19.21 C 232.62 17.32 235.44 17.54 237.23 16.71 C 241.52 17.85 231.97 19.20 239.22 19.37 C 237.00 19.01 232.39 22.77 231.65 19.21 Z" fill="#7f96ac" opacity="1.00" stroke="#7f96ac" stroke-width="0.25"/>
<path d="M 246.16 18.01 C 246.02 16.18 249.14 16.35 250.01 17.43 C 248.83 18.09 247.47 18.19 246.16 18.01 Z" fill="#829aae" opacity="1.00" stroke="#829aae" stroke-width="0.25"/>
<path d="M 314.01 16.99 C 315.37 16.53 318.50 16.17 318.80 17.97 C 317.16 18.14 315.24 18.33 314.01 16.99 Z" fill="#698194" opacity="1.00" stroke="#698194" stroke-width="0.25"/>
<path d="M 198.42 18.48 L 203.05 18.00 C 198.43 19.84 193.90 22.57 188.87 23.05 C 190.78 19.82 195.17 19.63 198.42 18.48 Z" fill="#c1c4c6" opacity="1.00" stroke="#c1c4c6" stroke-width="0.25"/>
<path d="M 296.89 17.92 C 312.04 17.49 326.57 22.22 341.19 25.49 C 340.65 25.61 339.56 25.86 339.02 25.98 C 337.63 26.05 336.25 25.91 334.89 25.56 C 332.67 24.91 330.45 24.71 328.22 24.97 C 318.13 22.27 305.99 21.54 296.89 17.92 Z" fill="#c0d8e6" opacity="1.00" stroke="#c0d8e6" stroke-width="0.25"/>
<path d="M 323.04 18.47 C 324.18 17.45 327.65 17.01 327.82 18.99 C 326.20 19.18 324.55 19.13 323.04 18.47 Z" fill="#93aec4" opacity="1.00" stroke="#93aec4" stroke-width="0.25"/>
<path d="M 220.16 21.00 C 220.03 19.17 223.16 19.39 224.01 20.48 C 222.83 21.13 221.46 21.19 220.16 21.00 Z" fill="#7d93a8" opacity="1.00" stroke="#7d93a8" stroke-width="0.25"/>
<path d="M 200.01 23.02 C 199.99 21.13 211.61 19.75 206.93 22.29 C 205.32 22.77 203.71 23.25 202.06 23.58 C 201.55 23.44 200.52 23.16 200.01 23.02 Z" fill="#526473" opacity="1.00" stroke="#526473" stroke-width="0.25"/>
<path d="M 202.06 23.58 C 203.71 23.25 205.32 22.77 206.93 22.29 C 207.27 22.54 207.94 23.04 208.27 23.29 C 206.14 23.96 204.03 24.67 201.95 25.46 C 201.47 25.09 200.53 24.36 200.05 23.99 C 200.55 23.89 201.56 23.68 202.06 23.58 Z" fill="#b2cde1" opacity="1.00" stroke="#b2cde1" stroke-width="0.25"/>
<path d="M 201.95 25.46 C 196.73 28.74 196.05 24.26 200.05 23.99 C 200.53 24.36 201.47 25.09 201.95 25.46 Z" fill="#5d7e9d" opacity="1.00" stroke="#5d7e9d" stroke-width="0.25"/>
<path d="M 328.22 24.97 C 330.45 24.71 332.67 24.91 334.89 25.56 C 333.13 26.51 328.92 27.27 328.22 24.97 Z" fill="#617e92" opacity="1.00" stroke="#617e92" stroke-width="0.25"/>
<path d="M 341.19 25.49 C 343.76 25.32 347.02 25.24 348.14 27.98 C 345.43 27.18 339.66 28.80 339.02 25.98 C 339.56 25.86 340.65 25.61 341.19 25.49 Z" fill="#6d92b5" opacity="1.00" stroke="#6d92b5" stroke-width="0.25"/>
<path d="M 162.94 30.34 C 164.88 29.43 166.86 28.63 168.88 27.89 C 166.91 31.11 170.09 29.39 172.02 28.98 C 172.75 31.54 169.88 31.17 168.21 31.49 C 166.41 31.30 164.15 32.13 162.94 30.34 Z" fill="#567790" opacity="1.00" stroke="#567790" stroke-width="0.25"/>
<path d="M 352.75 28.17 C 355.23 28.40 357.71 28.86 360.20 28.55 C 360.71 28.72 361.71 29.04 362.22 29.20 C 361.45 29.73 360.68 30.25 359.92 30.78 C 357.44 30.19 354.88 29.66 352.75 28.17 Z" fill="#5b7f9a" opacity="1.00" stroke="#5b7f9a" stroke-width="0.25"/>
<path d="M 362.22 29.20 C 364.53 29.82 373.94 31.88 368.73 34.00 C 365.85 32.76 362.91 31.71 359.92 30.78 C 360.68 30.25 361.45 29.73 362.22 29.20 Z" fill="#b6c8d6" opacity="1.00" stroke="#b6c8d6" stroke-width="0.25"/>
<path d="M 146.33 31.62 C 148.43 28.73 147.89 33.48 150.19 33.40 C 148.24 34.40 146.26 35.34 144.25 36.21 C 138.08 37.90 132.59 41.39 127.62 45.34 C 126.06 45.88 124.49 46.43 122.92 46.93 C 124.50 45.17 126.32 43.64 128.25 42.27 C 130.04 41.45 131.72 40.42 133.28 39.22 C 136.78 36.25 145.41 35.89 146.33 31.62 Z" fill="#d1e3ec" opacity="1.00" stroke="#d1e3ec" stroke-width="0.25"/>
<path d="M 133.28 39.22 C 135.42 35.25 142.13 33.88 146.33 31.62 C 145.41 35.89 136.78 36.25 133.28 39.22 Z" fill="#88929b" opacity="1.00" stroke="#88929b" stroke-width="0.25"/>
<path d="M 154.80 39.00 C 157.51 35.69 161.95 34.78 165.68 33.10 C 166.32 33.41 167.60 34.03 168.24 34.35 C 163.75 35.88 159.33 37.61 154.80 39.00 Z" fill="#8fb0cb" opacity="1.00" stroke="#8fb0cb" stroke-width="0.25"/>
<path d="M 364.70 37.82 C 357.90 34.66 367.30 34.49 370.28 36.68 C 368.39 36.92 366.51 37.23 364.70 37.82 Z" fill="#8baac5" opacity="1.00" stroke="#8baac5" stroke-width="0.25"/>
<path d="M 127.62 45.34 C 132.59 41.39 138.08 37.90 144.25 36.21 C 139.12 39.71 134.07 44.87 127.62 45.34 Z" fill="#849fb6" opacity="1.00" stroke="#849fb6" stroke-width="0.25"/>
<path d="M 247.15 36.13 C 249.04 35.67 250.09 40.47 248.02 40.01 C 245.11 41.15 245.55 37.23 247.15 36.13 Z" fill="#9bc6df" opacity="1.00" stroke="#9bc6df" stroke-width="0.25"/>
<path d="M 373.10 36.28 C 378.38 36.40 374.02 41.40 372.13 37.09 C 372.37 36.89 372.86 36.48 373.10 36.28 Z" fill="#879097" opacity="1.00" stroke="#879097" stroke-width="0.25"/>
<path d="M 127.27 42.29 C 127.37 40.09 131.27 39.44 133.28 39.22 C 131.72 40.42 130.04 41.45 128.25 42.27 L 127.27 42.29 Z" fill="#616d76" opacity="1.00" stroke="#616d76" stroke-width="0.25"/>
<path d="M 114.37 50.69 C 117.46 46.92 122.75 44.11 127.27 42.29 L 128.25 42.27 C 126.32 43.64 124.50 45.17 122.92 46.93 C 121.49 46.70 120.19 47.59 119.96 49.03 C 118.43 48.43 116.08 50.14 118.00 51.44 C 115.15 53.48 112.06 55.43 114.37 50.69 Z" fill="#486075" opacity="1.00" stroke="#486075" stroke-width="0.25"/>
<path d="M 119.96 49.03 C 120.19 47.59 121.49 46.70 122.92 46.93 C 122.84 48.45 121.40 49.40 119.96 49.03 Z" fill="#bedbe8" opacity="1.00" stroke="#bedbe8" stroke-width="0.25"/>
<path d="M 294.55 52.39 C 293.93 51.22 294.40 48.14 296.07 48.40 C 296.23 49.90 296.07 51.63 294.55 52.39 Z" fill="#5b7a96" opacity="1.00" stroke="#5b7a96" stroke-width="0.25"/>
<path d="M 296.07 48.40 C 297.03 48.85 297.64 52.33 300.96 51.11 C 296.72 53.86 303.64 56.66 297.91 56.40 C 296.80 56.61 296.80 58.21 296.19 59.00 L 295.71 58.07 C 295.38 57.69 294.72 56.93 294.39 56.55 C 293.65 55.87 292.84 55.30 291.95 54.83 C 292.65 54.28 293.30 53.68 293.91 53.03 L 294.55 52.39 C 296.07 51.63 296.23 49.90 296.07 48.40 Z" fill="#d4e6f2" opacity="1.00" stroke="#d4e6f2" stroke-width="0.25"/>
<path d="M 118.00 51.44 C 116.08 50.14 118.43 48.43 119.96 49.03 C 119.60 50.08 118.94 50.89 118.00 51.44 Z" fill="#93b3cf" opacity="1.00" stroke="#93b3cf" stroke-width="0.25"/>
<path d="M 187.23 51.14 C 190.20 50.29 192.17 55.34 188.93 55.97 C 186.03 56.85 184.79 52.36 187.23 51.14 Z" fill="#b0d4e6" opacity="1.00" stroke="#b0d4e6" stroke-width="0.25"/>
<path d="M 291.95 54.83 C 289.28 54.41 292.54 51.35 293.91 53.03 C 293.30 53.68 292.65 54.28 291.95 54.83 Z" fill="#6c8ea9" opacity="1.00" stroke="#6c8ea9" stroke-width="0.25"/>
<path d="M 140.02 60.96 C 138.45 55.15 142.88 55.40 142.03 60.96 C 141.53 60.96 140.53 60.96 140.02 60.96 Z" fill="#88a6bd" opacity="1.00" stroke="#88a6bd" stroke-width="0.25"/>
<path d="M 296.19 59.00 C 296.80 58.21 296.80 56.61 297.91 56.40 C 299.33 58.23 296.99 63.05 296.19 59.00 Z" fill="#6b8ba8" opacity="1.00" stroke="#6b8ba8" stroke-width="0.25"/>
<path d="M 361.11 58.16 C 375.94 53.16 391.35 57.28 405.82 61.26 C 405.16 62.42 404.41 63.52 403.70 64.63 C 400.02 65.35 405.21 68.04 406.14 69.51 C 383.93 53.59 350.37 60.80 335.69 83.73 C 328.11 93.54 327.27 106.21 325.92 118.06 C 324.17 118.04 320.68 118.02 318.93 118.00 C 325.20 112.03 320.21 101.78 324.52 94.60 C 330.04 77.56 344.81 64.69 361.11 58.16 Z" fill="#0b406a" opacity="1.00" stroke="#0b406a" stroke-width="0.25"/>
<path d="M 295.71 58.07 C 294.12 60.17 291.50 57.38 294.39 56.55 C 294.72 56.93 295.38 57.69 295.71 58.07 Z" fill="#6f8ba6" opacity="1.00" stroke="#6f8ba6" stroke-width="0.25"/>
<path d="M 138.37 64.19 C 137.80 61.78 136.20 60.22 140.02 60.96 C 140.53 60.96 141.53 60.96 142.03 60.96 C 145.21 59.97 142.21 63.24 143.88 64.01 C 147.16 65.74 140.40 63.93 142.01 67.04 C 142.22 71.07 140.84 67.08 139.79 65.76 C 139.34 65.21 138.87 64.69 138.37 64.19 Z" fill="#d1e5f1" opacity="1.00" stroke="#d1e5f1" stroke-width="0.25"/>
<path d="M 335.69 83.73 C 350.37 60.80 383.93 53.59 406.14 69.51 C 412.95 73.36 418.77 78.74 424.88 83.59 C 423.25 85.63 426.17 87.26 426.90 89.06 C 435.21 104.56 431.82 121.91 427.84 138.01 C 427.38 138.01 426.46 138.03 426.00 138.04 C 424.27 138.00 422.54 137.98 420.82 137.97 C 428.08 121.14 428.23 100.15 416.97 85.04 C 399.82 60.10 358.61 58.96 341.03 84.03 C 334.19 92.73 331.74 104.03 331.82 114.90 C 331.72 116.96 330.29 118.29 328.23 118.19 C 327.65 118.16 326.49 118.09 325.92 118.06 C 327.27 106.21 328.11 93.54 335.69 83.73 Z" fill="#154c76" opacity="1.00" stroke="#154c76" stroke-width="0.25"/>
<path d="M 139.79 65.76 C 137.46 67.72 134.35 64.16 138.37 64.19 C 138.87 64.69 139.34 65.21 139.79 65.76 Z" fill="#7596b1" opacity="1.00" stroke="#7596b1" stroke-width="0.25"/>
<path d="M 406.14 69.51 C 405.21 68.04 400.02 65.35 403.70 64.63 C 406.77 66.81 409.76 69.09 412.81 71.31 C 423.84 79.73 434.11 89.15 444.17 98.71 C 443.81 99.07 443.08 99.77 442.72 100.12 C 437.00 94.36 431.20 88.69 424.88 83.59 C 418.77 78.74 412.95 73.36 406.14 69.51 Z" fill="#b9d4e3" opacity="1.00" stroke="#b9d4e3" stroke-width="0.25"/>
<path d="M 341.03 84.03 C 358.61 58.96 399.82 60.10 416.97 85.04 C 428.23 100.15 428.08 121.14 420.82 137.97 C 420.38 137.99 419.49 138.04 419.04 138.06 C 418.56 138.01 417.58 137.91 417.10 137.86 C 415.85 136.47 414.19 134.82 416.41 133.45 C 430.86 112.27 415.94 80.98 393.02 73.01 C 379.94 70.01 365.23 69.58 354.01 78.04 C 340.57 85.55 335.72 102.25 336.74 116.71 C 335.85 117.54 334.86 118.24 333.89 118.96 C 332.17 118.96 330.45 118.96 328.73 118.92 L 327.66 118.83 L 328.23 118.19 C 330.29 118.29 331.72 116.96 331.82 114.90 C 331.74 104.03 334.19 92.73 341.03 84.03 Z" fill="#225c87" opacity="1.00" stroke="#225c87" stroke-width="0.25"/>
<path d="M 411.77 66.98 C 416.59 68.86 420.11 73.34 425.15 74.58 C 428.40 76.41 431.53 79.48 433.63 82.67 C 433.95 83.91 434.31 85.13 434.64 86.37 C 427.91 80.80 421.60 74.58 413.98 70.20 C 413.00 69.30 412.10 68.30 411.77 66.98 Z" fill="#7c9bb3" opacity="1.00" stroke="#7c9bb3" stroke-width="0.25"/>
<path d="M 413.98 70.20 C 421.60 74.58 427.91 80.80 434.64 86.37 C 434.31 85.13 433.95 83.91 433.63 82.67 C 441.38 88.88 447.14 97.21 453.06 105.11 C 449.55 104.07 447.16 100.76 444.17 98.71 C 434.11 89.15 423.84 79.73 412.81 71.31 C 413.10 71.03 413.69 70.48 413.98 70.20 Z" fill="#203e59" opacity="1.00" stroke="#203e59" stroke-width="0.25"/>
<path d="M 354.01 78.04 C 365.23 69.58 379.94 70.01 393.02 73.01 C 415.94 80.98 430.86 112.27 416.41 133.45 C 414.19 134.82 415.85 136.47 417.10 137.86 C 413.99 137.44 410.94 136.75 407.89 136.07 C 407.61 135.82 407.06 135.32 406.78 135.07 C 419.14 118.03 412.52 91.38 393.04 82.95 C 373.48 72.72 347.29 86.29 343.70 107.75 C 343.01 111.89 343.09 116.09 343.12 120.28 C 340.81 120.92 338.46 119.91 336.17 119.63 C 335.60 119.46 334.46 119.13 333.89 118.96 C 334.86 118.24 335.85 117.54 336.74 116.71 C 335.72 102.25 340.57 85.55 354.01 78.04 Z" fill="#306c95" opacity="1.00" stroke="#306c95" stroke-width="0.25"/>
<path d="M 304.99 83.69 C 299.76 89.05 300.08 75.40 304.96 80.32 C 304.92 81.44 304.93 82.57 304.99 83.69 Z" fill="#d0e7f4" opacity="1.00" stroke="#d0e7f4" stroke-width="0.25"/>
<path d="M 304.96 80.32 C 306.83 79.83 306.86 84.14 304.99 83.69 C 304.93 82.57 304.92 81.44 304.96 80.32 Z" fill="#5f87a4" opacity="1.00" stroke="#5f87a4" stroke-width="0.25"/>
<path d="M 343.70 107.75 C 347.29 86.29 373.48 72.72 393.04 82.95 C 412.52 91.38 419.14 118.03 406.78 135.07 C 401.60 142.80 393.13 147.25 384.30 149.34 C 380.11 149.30 375.92 149.28 371.74 149.29 C 357.74 146.78 344.60 134.75 343.96 120.09 C 343.88 115.97 343.80 111.86 343.70 107.75 Z" fill="#f7fbfc" opacity="1.00" stroke="#f7fbfc" stroke-width="0.25"/>
<path d="M 426.90 89.06 C 426.17 87.26 423.25 85.63 424.88 83.59 C 431.20 88.69 437.00 94.36 442.72 100.12 C 443.94 101.37 445.24 102.58 446.23 104.04 C 445.92 104.62 445.29 105.77 444.98 106.35 C 442.33 104.17 440.40 100.76 436.93 99.80 C 439.92 104.33 444.06 107.97 447.15 112.42 C 444.77 114.18 447.62 115.99 448.86 117.37 C 450.21 118.73 451.64 120.00 453.11 121.24 C 455.80 125.21 458.61 129.10 461.44 132.97 C 460.88 134.13 459.99 135.04 458.95 135.77 C 448.52 135.10 438.32 138.70 427.84 138.01 C 431.82 121.91 435.21 104.56 426.90 89.06 Z" fill="#083961" opacity="1.00" stroke="#083961" stroke-width="0.25"/>
<path d="M 383.87 96.03 C 385.89 91.75 391.60 93.73 393.04 88.86 C 390.52 93.69 394.53 95.33 398.39 96.96 C 393.51 96.75 388.94 94.14 383.87 96.03 Z" fill="#d3e2e8" opacity="1.00" stroke="#d3e2e8" stroke-width="0.25"/>
<path d="M 220.76 94.76 C 219.96 85.82 222.86 91.06 224.28 93.68 C 228.60 92.92 224.22 97.92 228.26 97.13 C 227.47 97.76 225.41 97.65 225.44 98.86 C 226.49 102.56 225.47 104.22 223.55 100.09 C 221.55 101.85 218.71 106.37 220.53 100.96 C 221.42 99.81 221.20 97.52 219.27 98.01 C 213.32 98.68 217.40 95.07 220.76 94.76 Z" fill="#cbdeea" opacity="1.00" stroke="#cbdeea" stroke-width="0.25"/>
<path d="M 228.26 97.13 C 232.48 97.34 227.27 100.81 225.44 98.86 C 225.41 97.65 227.47 97.76 228.26 97.13 Z" fill="#5b7d9b" opacity="1.00" stroke="#5b7d9b" stroke-width="0.25"/>
<path d="M 398.39 96.96 C 399.27 97.97 400.51 99.92 398.79 100.76 C 394.79 103.15 394.40 110.09 398.87 112.05 C 400.12 110.18 400.17 105.76 403.34 107.58 C 408.32 109.81 405.07 96.40 408.72 101.13 C 408.20 105.01 406.50 111.51 401.32 109.07 C 402.07 115.27 392.15 113.26 394.67 107.31 C 393.26 104.23 390.15 107.11 388.70 108.63 C 384.39 108.12 379.39 110.26 375.71 107.26 C 384.79 106.49 396.21 108.07 398.39 96.96 Z" fill="#d7e2e7" opacity="1.00" stroke="#d7e2e7" stroke-width="0.25"/>
<path d="M 219.27 98.01 C 221.20 97.52 221.42 99.81 220.53 100.96 C 219.36 100.22 218.94 99.23 219.27 98.01 Z" fill="#7b8d9d" opacity="1.00" stroke="#7b8d9d" stroke-width="0.25"/>
<path d="M 358.30 99.26 C 361.33 98.76 355.43 109.10 360.09 110.96 C 363.41 109.82 366.89 108.72 369.90 106.80 C 368.90 109.50 367.20 112.03 368.05 115.17 C 370.88 114.35 372.93 111.50 376.14 111.94 C 375.16 113.16 372.44 113.69 373.44 115.67 C 374.99 119.10 370.32 120.21 367.87 120.92 C 367.52 117.92 372.92 119.55 372.05 116.12 C 368.29 117.84 365.99 114.56 365.67 111.13 C 363.24 111.18 360.70 111.73 358.32 111.85 C 356.82 107.79 355.16 103.04 358.30 99.26 Z" fill="#d5e3e8" opacity="1.00" stroke="#d5e3e8" stroke-width="0.25"/>
<path d="M 436.93 99.80 C 440.40 100.76 442.33 104.17 444.98 106.35 C 447.73 109.31 450.96 111.93 453.13 115.39 C 451.75 117.23 453.66 119.22 453.11 121.24 C 451.64 120.00 450.21 118.73 448.86 117.37 C 453.17 117.32 448.10 114.04 447.15 112.42 C 444.06 107.97 439.92 104.33 436.93 99.80 Z" fill="#b2cbdd" opacity="1.00" stroke="#b2cbdd" stroke-width="0.25"/>
<path d="M 61.14 105.10 C 64.32 101.23 65.60 104.41 62.23 106.99 C 61.97 106.72 61.45 106.17 61.19 105.90 L 61.14 105.10 Z" fill="#5780a1" opacity="1.00" stroke="#5780a1" stroke-width="0.25"/>
<path d="M 47.20 125.23 C 49.65 117.60 55.18 109.27 61.07 104.14 L 61.14 105.10 L 61.19 105.90 C 56.19 112.10 52.12 118.97 47.20 125.23 Z" fill="#2d4356" opacity="1.00" stroke="#2d4356" stroke-width="0.25"/>
<path d="M 346.79 116.83 C 349.72 113.38 345.67 105.27 350.73 103.84 C 350.01 108.71 350.76 113.93 348.45 118.43 C 344.76 125.18 354.52 126.64 354.97 132.09 C 350.01 128.73 344.27 123.54 346.79 116.83 Z" fill="#d9e5ea" opacity="1.00" stroke="#d9e5ea" stroke-width="0.25"/>
<path d="M 446.23 104.04 C 453.16 112.02 461.28 120.42 466.07 129.96 C 465.80 130.28 465.26 130.90 464.99 131.21 C 462.17 125.20 457.27 120.47 453.13 115.39 C 450.96 111.93 447.73 109.31 444.98 106.35 C 445.29 105.77 445.92 104.62 446.23 104.04 Z" fill="#364f62" opacity="1.00" stroke="#364f62" stroke-width="0.25"/>
<path d="M 61.19 105.90 C 61.45 106.17 61.97 106.72 62.23 106.99 C 57.87 112.74 53.45 118.48 49.80 124.72 C 48.75 126.09 47.78 127.83 49.46 129.15 C 47.94 129.71 45.24 133.24 42.94 135.05 C 44.30 131.75 45.70 128.47 47.20 125.23 C 52.12 118.97 56.19 112.10 61.19 105.90 Z" fill="#a4bfd2" opacity="1.00" stroke="#a4bfd2" stroke-width="0.25"/>
<path d="M 343.12 120.28 C 343.09 116.09 343.01 111.89 343.70 107.75 C 343.80 111.86 343.88 115.97 343.96 120.09 L 343.12 120.28 Z" fill="#b6d5eb" opacity="1.00" stroke="#b6d5eb" stroke-width="0.25"/>
<path d="M 164.07 110.86 C 165.88 113.07 166.18 116.27 167.37 118.88 C 170.35 119.25 173.22 118.36 176.13 117.97 C 175.09 120.28 172.44 121.14 171.05 123.03 C 171.86 124.86 174.53 125.26 176.19 126.28 C 175.67 126.48 174.64 126.88 174.13 127.07 C 169.64 126.32 167.06 127.41 169.14 133.21 C 168.95 133.68 168.57 134.61 168.38 135.08 C 167.38 132.67 166.86 129.94 164.85 128.11 C 162.57 129.26 161.05 131.63 158.95 133.12 C 160.83 128.74 162.50 122.65 155.79 122.90 C 156.51 122.41 157.24 121.92 157.97 121.43 C 164.14 121.15 164.65 116.02 164.07 110.86 Z" fill="#dbe8f0" opacity="1.00" stroke="#dbe8f0" stroke-width="0.25"/>
<path d="M 448.86 117.37 C 447.62 115.99 444.77 114.18 447.15 112.42 C 448.10 114.04 453.17 117.32 448.86 117.37 Z" fill="#506f8b" opacity="1.00" stroke="#506f8b" stroke-width="0.25"/>
<path d="M 57.36 129.32 C 60.89 124.47 63.75 119.10 68.04 114.85 C 59.06 130.24 49.02 145.30 42.59 162.11 C 41.86 163.75 41.20 165.42 40.56 167.11 C 36.82 176.72 33.86 186.87 29.98 196.18 C 29.98 192.40 31.38 188.85 32.28 185.23 C 33.96 178.72 36.66 172.56 38.88 166.24 C 43.60 153.24 50.96 141.50 57.36 129.32 Z" fill="#b2d8ed" opacity="1.00" stroke="#b2d8ed" stroke-width="0.25"/>
<path d="M 453.11 121.24 C 453.66 119.22 451.75 117.23 453.13 115.39 C 457.27 120.47 462.17 125.20 464.99 131.21 C 468.80 139.46 473.42 147.35 476.81 155.82 C 476.52 156.42 475.93 157.62 475.64 158.22 C 472.93 148.80 467.09 140.83 461.44 132.97 C 458.61 129.10 455.80 125.21 453.11 121.24 Z" fill="#e0f0f6" opacity="1.00" stroke="#e0f0f6" stroke-width="0.25"/>
<path d="M 301.79 117.76 C 307.48 116.80 313.22 117.89 318.93 118.00 C 320.68 118.02 324.17 118.04 325.92 118.06 C 326.49 118.09 327.65 118.16 328.23 118.19 L 327.66 118.83 C 325.01 119.21 321.14 120.67 324.25 124.84 C 327.36 142.46 340.37 156.96 355.96 164.96 C 362.87 165.97 369.28 168.92 376.25 169.68 C 342.54 175.16 308.05 178.56 275.93 190.89 C 270.72 192.45 265.43 193.77 259.98 194.07 C 255.90 194.13 251.83 194.19 247.76 194.27 C 235.24 193.07 224.14 187.00 212.70 182.39 C 198.27 177.58 183.09 175.27 168.11 172.77 C 167.01 171.53 165.27 171.61 163.85 172.17 C 163.42 172.07 162.56 171.86 162.13 171.75 C 160.66 170.47 158.63 170.62 156.91 171.24 C 152.68 170.75 148.47 170.15 144.24 169.74 C 136.16 169.21 127.71 167.75 119.74 169.74 C 119.12 169.89 117.87 170.19 117.25 170.34 C 115.24 170.15 113.24 169.92 111.25 169.65 C 88.14 164.01 63.89 168.61 40.56 167.11 C 41.20 165.42 41.86 163.75 42.59 162.11 C 65.20 163.96 88.07 162.97 110.06 157.02 C 134.90 149.84 161.24 144.24 186.96 150.05 C 208.20 155.79 225.51 139.83 243.94 132.29 C 243.76 135.39 247.14 133.29 248.68 132.69 C 268.45 123.83 290.25 121.25 311.42 118.32 C 308.16 118.07 305.02 117.85 301.79 117.76 Z" fill="#165d91" opacity="1.00" stroke="#165d91" stroke-width="0.25"/>
<path d="M 53.82 121.86 C 54.50 120.10 55.56 117.96 57.75 117.92 C 57.96 121.05 57.90 124.31 55.93 126.93 C 55.40 127.56 54.88 128.20 54.35 128.83 C 53.04 128.78 51.22 129.05 51.96 127.10 C 53.59 125.72 58.68 119.61 53.82 121.86 Z" fill="#6887a1" opacity="1.00" stroke="#6887a1" stroke-width="0.25"/>
<path d="M 111.22 118.14 C 113.84 117.96 118.65 116.74 114.99 123.01 C 111.72 124.42 107.81 120.66 111.22 118.14 Z" fill="#badbea" opacity="1.00" stroke="#badbea" stroke-width="0.25"/>
<path d="M 291.89 118.80 C 292.96 117.56 294.68 117.60 296.10 118.15 C 295.09 119.51 293.29 119.38 291.89 118.80 Z" fill="#65869f" opacity="1.00" stroke="#65869f" stroke-width="0.25"/>
<path d="M 296.10 118.15 C 297.99 118.03 299.89 117.90 301.79 117.76 C 305.02 117.85 308.16 118.07 311.42 118.32 C 290.25 121.25 268.45 123.83 248.68 132.69 C 247.14 133.29 243.76 135.39 243.94 132.29 C 258.95 124.92 275.37 120.91 291.89 118.80 C 293.29 119.38 295.09 119.51 296.10 118.15 Z" fill="#c3e0ed" opacity="1.00" stroke="#c3e0ed" stroke-width="0.25"/>
<path d="M 324.25 124.84 C 321.14 120.67 325.01 119.21 327.66 118.83 L 328.73 118.92 C 332.57 137.74 345.11 156.98 364.88 161.17 C 381.63 166.52 399.54 159.94 413.20 150.21 C 414.79 146.21 421.69 142.80 419.04 138.06 C 419.49 138.04 420.38 137.99 420.82 137.97 C 422.54 137.98 424.27 138.00 426.00 138.04 C 428.48 148.21 416.38 156.02 409.02 161.02 C 404.90 165.07 393.51 163.26 392.75 168.46 L 392.96 169.13 C 387.37 169.12 381.82 169.46 376.25 169.68 C 369.28 168.92 362.87 165.97 355.96 164.96 C 340.37 156.96 327.36 142.46 324.25 124.84 Z" fill="#20679a" opacity="1.00" stroke="#20679a" stroke-width="0.25"/>
<path d="M 328.73 118.92 C 330.45 118.96 332.17 118.96 333.89 118.96 C 334.46 119.13 335.60 119.46 336.17 119.63 C 333.54 123.37 336.53 127.50 337.97 131.03 C 344.30 144.52 356.75 156.95 372.45 157.49 C 386.68 158.59 402.69 154.28 411.76 142.72 C 414.47 139.54 409.60 138.16 407.89 136.07 C 410.94 136.75 413.99 137.44 417.10 137.86 C 417.58 137.91 418.56 138.01 419.04 138.06 C 421.69 142.80 414.79 146.21 413.20 150.21 C 399.54 159.94 381.63 166.52 364.88 161.17 C 345.11 156.98 332.57 137.74 328.73 118.92 Z" fill="#2c74a6" opacity="1.00" stroke="#2c74a6" stroke-width="0.25"/>
<path d="M 336.17 119.63 C 338.46 119.91 340.81 120.92 343.12 120.28 L 343.96 120.09 C 344.60 134.75 357.74 146.78 371.74 149.29 C 375.84 149.86 380.24 150.63 384.30 149.34 C 393.13 147.25 401.60 142.80 406.78 135.07 C 407.06 135.32 407.61 135.82 407.89 136.07 C 409.60 138.16 414.47 139.54 411.76 142.72 C 402.69 154.28 386.68 158.59 372.45 157.49 C 356.75 156.95 344.30 144.52 337.97 131.03 C 336.53 127.50 333.54 123.37 336.17 119.63 Z" fill="#3b81b0" opacity="1.00" stroke="#3b81b0" stroke-width="0.25"/>
<path d="M 53.82 121.86 C 58.68 119.61 53.59 125.72 51.96 127.10 L 52.13 126.23 C 52.64 124.76 53.19 123.30 53.82 121.86 Z" fill="#b9d5e5" opacity="1.00" stroke="#b9d5e5" stroke-width="0.25"/>
<path d="M 155.79 122.90 C 151.62 123.18 156.02 118.79 157.97 121.43 C 157.24 121.92 156.51 122.41 155.79 122.90 Z" fill="#7ea2bf" opacity="1.00" stroke="#7ea2bf" stroke-width="0.25"/>
<path d="M 75.01 122.01 C 82.16 120.48 73.48 129.16 75.01 122.01 Z" fill="#84b0cf" opacity="1.00" stroke="#84b0cf" stroke-width="0.25"/>
<path d="M 376.07 123.84 C 379.13 125.06 376.72 130.02 381.01 129.26 C 377.85 135.94 370.78 136.72 363.83 137.01 C 366.82 135.41 371.18 133.84 374.84 134.85 C 377.75 131.90 376.97 127.51 376.07 123.84 Z" fill="#d6e1e7" opacity="1.00" stroke="#d6e1e7" stroke-width="0.25"/>
<path d="M 464.91 123.89 C 468.14 125.52 469.58 129.00 470.94 132.14 C 467.46 131.57 466.06 126.92 464.91 123.89 Z" fill="#97a4ac" opacity="1.00" stroke="#97a4ac" stroke-width="0.25"/>
<path d="M 38.03 139.90 C 41.43 135.27 42.71 128.34 47.20 125.23 C 45.70 128.47 44.30 131.75 42.94 135.05 C 41.52 136.71 40.71 142.37 38.03 139.90 Z" fill="#4d606d" opacity="1.00" stroke="#4d606d" stroke-width="0.25"/>
<path d="M 49.46 129.15 C 47.78 127.83 48.75 126.09 49.80 124.72 C 50.38 125.10 51.55 125.86 52.13 126.23 L 51.96 127.10 C 51.14 127.80 50.31 128.49 49.46 129.15 Z" fill="#536d84" opacity="1.00" stroke="#536d84" stroke-width="0.25"/>
<path d="M 361.11 127.05 C 362.01 122.66 366.13 126.91 367.09 129.11 C 364.19 128.67 359.22 122.85 361.88 131.91 C 361.31 135.82 356.05 135.81 354.97 132.09 C 358.51 133.54 363.23 133.15 361.11 127.05 Z" fill="#d1dee4" opacity="1.00" stroke="#d1dee4" stroke-width="0.25"/>
<path d="M 176.19 126.28 C 179.03 127.12 174.09 129.74 174.13 127.07 C 174.64 126.88 175.67 126.48 176.19 126.28 Z" fill="#698dab" opacity="1.00" stroke="#698dab" stroke-width="0.25"/>
<path d="M 54.35 128.83 C 54.88 128.20 55.40 127.56 55.93 126.93 C 56.28 127.52 57.00 128.72 57.36 129.32 C 50.96 141.50 43.60 153.24 38.88 166.24 C 38.63 165.67 38.14 164.52 37.90 163.95 C 41.16 151.48 47.62 139.81 54.35 128.83 Z" fill="#254663" opacity="1.00" stroke="#254663" stroke-width="0.25"/>
<path d="M 466.07 129.96 C 470.74 139.75 477.33 150.19 480.08 161.13 C 478.42 159.82 477.82 157.61 476.81 155.82 C 473.42 147.35 468.80 139.46 464.99 131.21 C 465.26 130.90 465.80 130.28 466.07 129.96 Z" fill="#85949d" opacity="1.00" stroke="#85949d" stroke-width="0.25"/>
<path d="M 169.14 133.21 C 172.11 135.70 168.43 141.72 168.38 135.08 C 168.57 134.61 168.95 133.68 169.14 133.21 Z" fill="#6790b1" opacity="1.00" stroke="#6790b1" stroke-width="0.25"/>
<path d="M 461.44 132.97 C 467.09 140.83 472.93 148.80 475.64 158.22 C 476.72 161.68 477.56 165.24 478.98 168.60 C 476.99 170.74 474.82 167.68 474.11 165.86 C 469.55 155.58 464.59 145.50 458.95 135.77 C 459.99 135.04 460.88 134.13 461.44 132.97 Z" fill="#235a84" opacity="1.00" stroke="#235a84" stroke-width="0.25"/>
<path d="M 427.84 138.01 C 438.32 138.70 448.52 135.10 458.95 135.77 C 457.90 141.37 464.23 146.49 466.17 151.91 C 465.98 152.44 465.60 153.51 465.41 154.04 C 462.10 151.88 465.62 159.36 466.86 161.07 C 467.67 163.25 468.55 165.41 469.33 167.62 C 463.24 167.01 457.12 166.91 451.03 166.93 C 447.72 166.94 444.49 167.01 441.22 167.21 C 427.17 167.27 412.97 165.86 399.05 168.38 C 397.05 167.56 394.65 167.16 392.75 168.46 C 393.51 163.26 404.90 165.07 409.02 161.02 C 416.38 156.02 428.48 148.21 426.00 138.04 C 426.46 138.03 427.38 138.01 427.84 138.01 Z" fill="#165c8f" opacity="1.00" stroke="#165c8f" stroke-width="0.25"/>
<path d="M 466.17 151.91 C 464.23 146.49 457.90 141.37 458.95 135.77 C 464.59 145.50 469.55 155.58 474.11 165.86 C 474.82 167.68 476.99 170.74 478.98 168.60 C 480.69 168.87 480.41 174.40 482.76 176.18 C 481.99 167.03 488.83 184.17 483.85 180.12 C 483.37 179.83 482.41 179.26 481.93 178.97 C 480.67 176.47 478.54 167.97 475.60 173.15 C 472.26 166.16 469.48 158.91 466.17 151.91 Z" fill="#90b7d4" opacity="1.00" stroke="#90b7d4" stroke-width="0.25"/>
<path d="M 268.02 137.03 C 270.54 136.61 273.05 136.74 271.98 139.97 C 269.46 140.39 266.94 140.26 268.02 137.03 Z" fill="#a2d0e6" opacity="1.00" stroke="#a2d0e6" stroke-width="0.25"/>
<path d="M 212.05 139.33 C 216.13 135.12 218.34 146.24 211.95 142.77 C 212.05 141.62 212.08 140.47 212.05 139.33 Z" fill="#c6e5f1" opacity="1.00" stroke="#c6e5f1" stroke-width="0.25"/>
<path d="M 211.95 142.77 C 210.12 143.10 210.20 138.85 212.05 139.33 C 212.08 140.47 212.05 141.62 211.95 142.77 Z" fill="#688faa" opacity="1.00" stroke="#688faa" stroke-width="0.25"/>
<path d="M 371.74 149.29 C 375.92 149.28 380.11 149.30 384.30 149.34 C 380.24 150.63 375.84 149.86 371.74 149.29 Z" fill="#9ec4da" opacity="1.00" stroke="#9ec4da" stroke-width="0.25"/>
<path d="M 466.17 151.91 C 469.48 158.91 472.26 166.16 475.60 173.15 C 478.32 179.64 480.91 186.19 483.31 192.80 C 483.03 193.39 482.47 194.56 482.19 195.14 C 475.70 184.17 473.88 170.92 467.21 159.91 C 466.69 157.93 466.04 155.99 465.41 154.04 C 465.60 153.51 465.98 152.44 466.17 151.91 Z" fill="#366991" opacity="1.00" stroke="#366991" stroke-width="0.25"/>
<path d="M 466.86 161.07 C 465.62 159.36 462.10 151.88 465.41 154.04 C 466.04 155.99 466.69 157.93 467.21 159.91 L 466.86 161.07 Z" fill="#6ea6d1" opacity="1.00" stroke="#6ea6d1" stroke-width="0.25"/>
<path d="M 467.21 159.91 C 473.88 170.92 475.70 184.17 482.19 195.14 C 481.53 195.37 480.20 195.84 479.54 196.07 C 477.50 190.28 475.83 184.36 473.43 178.70 C 472.20 174.96 470.75 171.29 469.33 167.62 C 468.55 165.41 467.67 163.25 466.86 161.07 L 467.21 159.91 Z" fill="#a8d9f1" opacity="1.00" stroke="#a8d9f1" stroke-width="0.25"/>
<path d="M 31.32 182.69 C 32.86 176.75 34.67 169.21 37.90 163.95 C 38.14 164.52 38.63 165.67 38.88 166.24 C 36.66 172.56 33.96 178.72 32.28 185.23 C 32.04 184.60 31.56 183.33 31.32 182.69 Z" fill="#5182a7" opacity="1.00" stroke="#5182a7" stroke-width="0.25"/>
<path d="M 29.98 196.18 C 33.86 186.87 36.82 176.72 40.56 167.11 C 63.89 168.61 88.14 164.01 111.25 169.65 C 110.62 169.92 109.36 170.48 108.73 170.75 C 103.30 171.81 97.65 172.36 92.62 174.81 C 99.12 175.55 105.38 173.51 111.77 172.76 C 115.60 172.75 119.42 172.58 123.24 172.24 C 124.90 172.21 128.23 172.14 129.89 172.11 C 131.45 172.29 134.55 172.64 136.11 172.82 C 137.73 172.97 139.35 173.13 140.97 173.30 C 143.46 174.93 145.80 175.03 148.01 173.61 C 175.26 176.67 202.71 181.16 228.18 191.72 C 238.66 196.01 250.06 196.59 261.24 195.92 C 276.86 193.86 291.16 186.38 306.67 183.66 C 345.13 175.33 384.38 170.20 423.71 168.69 C 433.10 169.01 442.50 169.16 451.90 169.01 C 451.68 168.49 451.25 167.45 451.03 166.93 C 457.12 166.91 463.24 167.01 469.33 167.62 C 470.75 171.29 472.20 174.96 473.43 178.70 C 473.14 179.01 472.56 179.63 472.27 179.94 C 471.89 179.73 471.14 179.31 470.76 179.10 C 472.83 187.19 476.04 194.95 478.47 202.94 C 474.82 205.87 476.41 193.33 469.91 198.99 C 465.93 201.16 476.36 203.24 474.10 205.27 C 450.45 198.87 425.28 199.98 401.88 206.87 C 383.03 211.38 364.64 218.16 345.29 220.37 C 337.79 219.95 330.27 219.97 322.76 220.23 C 319.58 220.12 316.45 219.99 313.29 220.23 C 310.06 220.15 306.85 219.88 303.70 220.63 C 278.35 221.49 252.49 232.52 227.63 223.40 C 189.28 211.19 151.13 194.15 110.23 193.76 C 104.12 193.21 97.75 192.06 91.72 193.69 C 79.45 193.67 67.58 197.00 55.88 200.31 C 52.97 201.01 50.09 202.07 47.77 204.00 C 51.46 204.09 54.78 202.29 58.23 201.27 C 73.62 196.81 89.78 194.78 105.78 195.17 C 109.58 195.62 113.40 195.82 117.23 195.75 C 148.98 196.37 178.35 210.42 208.64 218.38 C 226.46 225.50 245.51 232.32 264.97 227.90 C 282.87 225.12 300.80 221.78 319.00 221.96 C 333.29 221.80 347.87 223.19 361.86 219.51 C 362.12 219.83 362.63 220.47 362.89 220.79 C 354.63 222.51 345.33 224.80 339.71 231.60 C 337.95 233.24 341.32 233.26 342.29 234.01 C 311.87 242.56 281.21 252.93 249.03 248.77 C 246.57 247.08 244.23 246.94 241.99 248.36 C 208.98 245.94 177.17 235.72 144.23 232.77 C 136.13 232.03 127.77 231.04 119.71 232.63 C 114.35 232.71 109.03 233.35 103.80 234.53 C 94.85 228.45 85.41 221.45 75.23 216.71 C 58.74 209.08 39.02 211.20 23.72 220.73 C 22.13 209.93 25.63 194.34 31.32 182.69 C 31.56 183.33 32.04 184.60 32.28 185.23 C 31.38 188.85 29.98 192.40 29.98 196.18 Z" fill="#2976b0" opacity="1.00" stroke="#2976b0" stroke-width="0.25"/>
<path d="M 399.05 168.38 C 412.97 165.86 427.17 167.27 441.22 167.21 C 435.40 167.93 429.50 167.74 423.71 168.69 C 384.38 170.20 345.13 175.33 306.67 183.66 C 291.16 186.38 276.86 193.86 261.24 195.92 C 260.91 195.69 260.25 195.24 259.92 195.02 L 259.98 194.07 C 265.43 193.77 270.72 192.45 275.93 190.89 C 308.05 178.56 342.54 175.16 376.25 169.68 C 381.82 169.46 387.37 169.12 392.96 169.13 C 394.48 168.94 397.53 168.57 399.05 168.38 Z" fill="#b6e1f4" opacity="1.00" stroke="#b6e1f4" stroke-width="0.25"/>
<path d="M 441.22 167.21 C 444.49 167.01 447.72 166.94 451.03 166.93 C 451.25 167.45 451.68 168.49 451.90 169.01 C 442.50 169.16 433.10 169.01 423.71 168.69 C 429.50 167.74 435.40 167.93 441.22 167.21 Z" fill="#76b2e2" opacity="1.00" stroke="#76b2e2" stroke-width="0.25"/>
<path d="M 392.75 168.46 C 394.65 167.16 397.05 167.56 399.05 168.38 C 397.53 168.57 394.48 168.94 392.96 169.13 L 392.75 168.46 Z" fill="#76a1bc" opacity="1.00" stroke="#76a1bc" stroke-width="0.25"/>
<path d="M 119.74 169.74 C 127.71 167.75 136.16 169.21 144.24 169.74 C 136.07 170.02 127.90 170.12 119.74 169.74 Z" fill="#5785a9" opacity="1.00" stroke="#5785a9" stroke-width="0.25"/>
<path d="M 108.73 170.75 C 109.36 170.48 110.62 169.92 111.25 169.65 C 113.24 169.92 115.24 170.15 117.25 170.34 C 114.48 171.11 111.57 170.69 108.73 170.75 Z" fill="#97bbd5" opacity="1.00" stroke="#97bbd5" stroke-width="0.25"/>
<path d="M 117.25 170.34 C 117.87 170.19 119.12 169.89 119.74 169.74 C 127.90 170.12 136.07 170.02 144.24 169.74 C 148.47 170.15 152.68 170.75 156.91 171.24 C 158.36 172.56 160.41 172.37 162.13 171.75 C 162.56 171.86 163.42 172.07 163.85 172.17 C 164.92 173.46 166.70 173.38 168.11 172.77 C 183.09 175.27 198.27 177.58 212.70 182.39 C 224.14 187.00 235.24 193.07 247.76 194.27 C 251.78 194.82 255.85 194.89 259.92 195.02 C 260.25 195.24 260.91 195.69 261.24 195.92 C 250.06 196.59 238.66 196.01 228.18 191.72 C 202.71 181.16 175.26 176.67 148.01 173.61 C 145.51 172.11 143.16 172.01 140.97 173.30 C 139.35 173.13 137.73 172.97 136.11 172.82 C 134.55 172.64 131.45 172.29 129.89 172.11 C 128.23 172.14 124.90 172.21 123.24 172.24 C 119.40 172.10 115.57 172.27 111.77 172.76 C 105.38 173.51 99.12 175.55 92.62 174.81 C 97.65 172.36 103.30 171.81 108.73 170.75 C 111.57 170.69 114.48 171.11 117.25 170.34 Z" fill="#d9eff8" opacity="1.00" stroke="#d9eff8" stroke-width="0.25"/>
<path d="M 156.91 171.24 C 158.63 170.62 160.66 170.47 162.13 171.75 C 160.41 172.37 158.36 172.56 156.91 171.24 Z" fill="#759db8" opacity="1.00" stroke="#759db8" stroke-width="0.25"/>
<path d="M 475.60 173.15 C 478.54 167.97 480.67 176.47 481.93 178.97 C 484.82 187.56 486.75 196.43 489.40 205.10 C 489.55 206.07 489.70 207.05 489.85 208.03 C 489.37 208.04 488.41 208.08 487.93 208.09 C 486.35 203.01 485.05 197.83 483.31 192.80 C 480.91 186.19 478.32 179.64 475.60 173.15 Z" fill="#dbeff7" opacity="1.00" stroke="#dbeff7" stroke-width="0.25"/>
<path d="M 111.77 172.76 C 115.57 172.27 119.40 172.10 123.24 172.24 C 119.42 172.58 115.60 172.75 111.77 172.76 Z" fill="#92bfe1" opacity="1.00" stroke="#92bfe1" stroke-width="0.25"/>
<path d="M 129.89 172.11 C 131.45 172.29 134.55 172.64 136.11 172.82 C 134.55 172.64 131.45 172.29 129.89 172.11 Z" fill="#81b1d6" opacity="1.00" stroke="#81b1d6" stroke-width="0.25"/>
<path d="M 163.85 172.17 C 165.27 171.61 167.01 171.53 168.11 172.77 C 166.70 173.38 164.92 173.46 163.85 172.17 Z" fill="#81a3be" opacity="1.00" stroke="#81a3be" stroke-width="0.25"/>
<path d="M 140.97 173.30 C 143.16 172.01 145.51 172.11 148.01 173.61 C 145.80 175.03 143.46 174.93 140.97 173.30 Z" fill="#7ea4c0" opacity="1.00" stroke="#7ea4c0" stroke-width="0.25"/>
<path d="M 470.76 179.10 C 471.14 179.31 471.89 179.73 472.27 179.94 C 476.36 192.94 482.02 205.48 484.63 218.92 C 483.80 220.64 483.04 222.39 482.46 224.20 C 483.51 216.82 481.03 209.81 478.47 202.94 C 476.04 194.95 472.83 187.19 470.76 179.10 Z" fill="#adddf5" opacity="1.00" stroke="#adddf5" stroke-width="0.25"/>
<path d="M 473.43 178.70 C 475.83 184.36 477.50 190.28 479.54 196.07 C 482.49 203.50 484.89 211.22 486.14 219.12 C 485.87 219.63 485.33 220.64 485.07 221.15 C 484.96 220.59 484.74 219.48 484.63 218.92 C 482.02 205.48 476.36 192.94 472.27 179.94 C 472.56 179.63 473.14 179.01 473.43 178.70 Z" fill="#5381a1" opacity="1.00" stroke="#5381a1" stroke-width="0.25"/>
<path d="M 481.93 178.97 C 482.41 179.26 483.37 179.83 483.85 180.12 C 486.53 187.54 489.05 195.19 490.04 203.04 C 489.88 203.55 489.56 204.58 489.40 205.10 C 486.75 196.43 484.82 187.56 481.93 178.97 Z" fill="#48657b" opacity="1.00" stroke="#48657b" stroke-width="0.25"/>
<path d="M 26.36 180.36 C 27.32 186.10 23.20 196.77 22.63 204.69 C 20.82 210.23 22.48 217.54 18.96 222.18 C 19.42 208.07 22.21 193.71 26.36 180.36 Z" fill="#6b7e8b" opacity="1.00" stroke="#6b7e8b" stroke-width="0.25"/>
<path d="M 91.72 193.69 C 97.75 192.06 104.12 193.21 110.23 193.76 C 104.05 193.96 97.88 193.99 91.72 193.69 Z" fill="#84bce3" opacity="1.00" stroke="#84bce3" stroke-width="0.25"/>
<path d="M 483.31 192.80 C 485.05 197.83 486.35 203.01 487.93 208.09 C 488.49 211.61 491.60 219.09 489.23 220.85 C 488.29 211.93 484.13 203.72 482.19 195.14 C 482.47 194.56 483.03 193.39 483.31 192.80 Z" fill="#7594ab" opacity="1.00" stroke="#7594ab" stroke-width="0.25"/>
<path d="M 55.88 200.31 C 67.58 197.00 79.45 193.67 91.72 193.69 C 97.88 193.99 104.05 193.96 110.23 193.76 C 151.13 194.15 189.28 211.19 227.63 223.40 C 252.49 232.52 278.35 221.49 303.70 220.63 C 306.88 220.77 310.20 221.33 313.29 220.23 C 316.45 219.99 319.58 220.12 322.76 220.23 C 330.21 221.08 337.85 221.67 345.29 220.37 C 364.64 218.16 383.03 211.38 401.88 206.87 C 425.28 199.98 450.45 198.87 474.10 205.27 C 453.59 203.62 431.77 200.68 411.16 206.30 C 394.57 210.10 378.37 215.39 361.86 219.51 C 347.87 223.19 333.29 221.80 319.00 221.96 C 300.80 221.78 282.87 225.12 264.97 227.90 C 245.51 232.32 226.46 225.50 208.64 218.38 C 178.35 210.42 148.98 196.37 117.23 195.75 C 113.42 195.41 109.60 195.22 105.78 195.17 C 89.78 194.78 73.62 196.81 58.23 201.27 C 57.64 201.03 56.47 200.55 55.88 200.31 Z" fill="#bce7f7" opacity="1.00" stroke="#bce7f7" stroke-width="0.25"/>
<path d="M 247.76 194.27 C 251.83 194.19 255.90 194.13 259.98 194.07 L 259.92 195.02 C 255.85 194.89 251.78 194.82 247.76 194.27 Z" fill="#88a9c3" opacity="1.00" stroke="#88a9c3" stroke-width="0.25"/>
<path d="M 105.78 195.17 C 109.60 195.22 113.42 195.41 117.23 195.75 C 113.40 195.82 109.58 195.62 105.78 195.17 Z" fill="#7fa9c5" opacity="1.00" stroke="#7fa9c5" stroke-width="0.25"/>
<path d="M 474.10 205.27 C 476.36 203.24 465.93 201.16 469.91 198.99 C 476.41 193.33 474.82 205.87 478.47 202.94 C 481.03 209.81 483.51 216.82 482.46 224.20 C 483.09 228.16 484.59 231.94 485.11 235.93 C 479.66 234.10 473.92 233.29 468.23 232.77 C 464.12 232.54 460.11 231.83 456.28 230.36 C 454.80 229.79 453.34 229.19 451.86 228.65 C 454.94 228.48 457.58 226.93 453.22 226.21 C 416.14 217.31 378.96 229.01 342.29 234.01 C 341.32 233.26 337.95 233.24 339.71 231.60 C 345.33 224.80 354.63 222.51 362.89 220.79 C 362.63 220.47 362.12 219.83 361.86 219.51 C 378.37 215.39 394.57 210.10 411.16 206.30 C 431.77 200.68 453.59 203.62 474.10 205.27 Z" fill="#3383bc" opacity="1.00" stroke="#3383bc" stroke-width="0.25"/>
<path d="M 47.77 204.00 C 50.09 202.07 52.97 201.01 55.88 200.31 C 56.47 200.55 57.64 201.03 58.23 201.27 C 54.78 202.29 51.46 204.09 47.77 204.00 Z" fill="#81bfe7" opacity="1.00" stroke="#81bfe7" stroke-width="0.25"/>
<path d="M 490.04 203.04 C 492.15 200.84 491.82 215.60 491.33 212.66 C 490.36 211.30 490.03 209.65 489.85 208.03 C 489.70 207.05 489.55 206.07 489.40 205.10 C 489.56 204.58 489.88 203.55 490.04 203.04 Z" fill="#89a0b1" opacity="1.00" stroke="#89a0b1" stroke-width="0.25"/>
<path d="M 495.96 208.86 C 499.99 210.40 497.51 215.63 497.99 218.98 C 495.55 217.67 496.89 211.82 495.96 208.86 Z" fill="#cad4d6" opacity="1.00" stroke="#cad4d6" stroke-width="0.25"/>
<path d="M 23.72 220.73 C 39.02 211.20 58.74 209.08 75.23 216.71 C 68.17 219.95 60.40 214.30 53.01 215.92 C 42.76 214.44 33.84 221.95 23.72 220.73 Z" fill="#dff0f6" opacity="1.00" stroke="#dff0f6" stroke-width="0.25"/>
<path d="M 482.46 224.20 C 483.04 222.39 483.80 220.64 484.63 218.92 C 484.74 219.48 484.96 220.59 485.07 221.15 C 486.90 226.65 484.06 235.89 491.14 237.83 C 491.06 236.43 490.90 233.63 490.81 232.23 C 497.42 230.55 498.62 238.94 496.24 241.68 C 495.18 241.35 494.12 241.09 493.05 240.88 C 493.17 247.55 493.79 254.19 494.07 260.86 C 494.54 260.66 495.46 260.28 495.92 260.09 C 499.80 265.38 492.18 266.93 490.89 269.92 C 480.87 266.87 470.46 265.34 460.33 263.41 C 452.11 265.61 441.61 264.21 436.87 272.98 C 442.63 271.81 448.28 269.65 454.28 270.33 C 442.52 272.11 431.83 277.21 421.10 282.03 C 405.56 286.54 394.80 299.09 381.11 306.95 C 379.41 307.63 381.74 308.83 382.09 309.77 C 368.61 316.75 353.09 320.00 337.97 318.17 C 325.18 317.53 310.06 319.26 300.72 328.95 C 327.20 329.55 352.82 322.39 378.32 316.42 C 411.34 303.59 448.04 295.57 482.82 305.95 C 485.04 297.24 486.45 288.26 487.64 279.36 C 482.93 276.20 478.08 273.15 472.71 271.24 C 477.99 269.99 482.43 273.97 486.93 276.05 C 493.16 279.71 490.74 288.13 489.90 293.93 C 489.10 297.53 484.67 299.35 485.59 303.67 C 484.48 306.66 479.53 309.12 483.01 312.09 C 481.94 315.02 481.61 319.36 477.82 319.85 C 478.91 317.27 480.09 314.74 481.04 312.12 C 475.21 309.32 468.56 308.72 462.24 307.74 C 453.44 306.60 444.51 306.64 435.71 307.61 C 405.44 308.92 377.90 322.76 348.57 328.47 C 333.23 333.05 317.09 332.89 301.31 334.36 C 283.68 338.85 266.35 344.70 248.29 347.39 C 239.12 346.86 229.93 346.90 220.76 347.30 C 215.01 347.04 209.25 346.38 203.68 344.88 C 205.18 344.40 206.68 343.96 208.22 343.61 C 224.24 345.10 241.65 347.01 257.06 341.49 C 254.78 340.70 252.65 338.88 250.14 339.16 C 232.49 343.63 213.52 344.41 196.12 338.47 C 190.36 337.01 184.61 335.29 178.62 335.17 C 182.23 336.80 196.53 338.70 189.82 342.47 C 172.01 337.74 154.22 331.66 138.96 321.07 C 129.11 314.51 119.87 306.52 108.68 302.26 C 82.68 291.49 52.68 294.66 27.14 305.26 C 28.75 316.01 34.52 325.57 37.09 336.03 C 30.96 337.03 29.60 329.16 25.77 325.76 C 24.05 321.91 22.48 318.00 20.80 314.15 C 26.19 316.30 25.24 325.31 30.98 327.14 C 31.45 318.57 21.97 307.88 28.89 301.33 C 22.83 301.04 21.58 294.49 20.50 289.59 C 19.04 279.39 15.52 268.99 18.36 258.74 C 18.95 271.02 20.24 283.43 23.97 295.19 C 30.64 300.54 38.88 294.71 46.14 293.29 C 60.76 289.43 76.05 288.07 91.06 290.08 C 96.28 291.81 101.83 293.28 107.28 291.73 C 116.60 294.84 124.76 300.38 131.32 307.69 C 142.92 322.38 163.94 315.96 180.00 316.28 C 188.65 316.86 197.36 316.85 205.95 318.13 C 224.03 322.76 243.07 323.95 260.13 332.09 C 254.58 318.94 240.28 311.68 227.89 306.12 C 215.54 300.26 200.86 303.13 188.94 298.15 C 181.31 297.70 173.72 296.72 166.12 295.91 C 165.06 294.29 163.99 292.68 162.99 291.03 C 165.76 291.05 168.53 290.98 171.30 290.80 C 161.55 288.08 147.40 286.22 141.90 276.89 C 147.80 278.20 152.06 283.70 158.21 284.05 C 152.57 279.17 144.46 277.50 139.28 271.75 C 137.96 269.51 140.62 270.04 142.03 269.83 C 175.20 297.06 225.16 281.77 257.29 310.70 C 262.19 314.90 265.68 320.38 269.91 325.17 C 275.59 319.40 283.95 318.28 291.12 315.15 C 302.88 311.72 314.62 307.63 326.95 306.82 C 337.54 305.34 348.44 308.86 358.85 305.82 C 383.11 299.72 401.65 281.43 422.44 268.58 C 430.36 269.12 436.22 263.16 443.61 261.54 C 457.84 257.13 473.24 258.61 486.95 264.08 C 487.10 255.30 487.64 246.39 485.42 237.78 C 485.34 237.32 485.19 236.39 485.11 235.93 C 484.59 231.94 483.09 228.16 482.46 224.20 Z" fill="#f2fcfd" opacity="1.00" stroke="#f2fcfd" stroke-width="0.25"/>
<path d="M 486.14 219.12 C 485.14 222.84 490.73 227.43 490.81 232.23 C 490.90 233.63 491.06 236.43 491.14 237.83 C 484.06 235.89 486.90 226.65 485.07 221.15 C 485.33 220.64 485.87 219.63 486.14 219.12 Z" fill="#b0c1ce" opacity="1.00" stroke="#b0c1ce" stroke-width="0.25"/>
<path d="M 303.70 220.63 C 306.85 219.88 310.06 220.15 313.29 220.23 C 310.20 221.33 306.88 220.77 303.70 220.63 Z" fill="#88b0cd" opacity="1.00" stroke="#88b0cd" stroke-width="0.25"/>
<path d="M 322.76 220.23 C 330.27 219.97 337.79 219.95 345.29 220.37 C 337.85 221.67 330.21 221.08 322.76 220.23 Z" fill="#82aac7" opacity="1.00" stroke="#82aac7" stroke-width="0.25"/>
<path d="M 342.29 234.01 C 378.96 229.01 416.14 217.31 453.22 226.21 C 446.87 227.95 438.10 223.04 432.90 225.81 C 439.31 225.98 445.62 227.26 451.86 228.65 C 453.34 229.19 454.80 229.79 456.28 230.36 C 436.93 228.48 417.21 223.51 397.53 226.40 C 366.42 231.84 335.17 237.19 305.10 247.08 C 272.44 255.02 238.19 252.82 205.66 245.38 C 173.05 238.76 139.57 230.74 106.17 235.83 C 105.58 235.51 104.40 234.86 103.80 234.53 C 109.03 233.35 114.35 232.71 119.71 232.63 C 127.88 233.09 136.06 233.10 144.23 232.77 C 177.17 235.72 208.98 245.94 241.99 248.36 C 244.45 249.83 246.80 249.97 249.03 248.77 C 281.21 252.93 311.87 242.56 342.29 234.01 Z" fill="#c9eef9" opacity="1.00" stroke="#c9eef9" stroke-width="0.25"/>
<path d="M 397.53 226.40 C 417.21 223.51 436.93 228.48 456.28 230.36 C 460.11 231.83 464.12 232.54 468.23 232.77 C 445.75 231.30 424.16 239.27 404.62 249.59 C 375.82 263.11 344.57 270.95 313.15 275.24 C 284.14 278.09 255.61 271.47 226.98 268.17 C 202.11 270.58 178.38 261.43 153.74 261.00 C 147.39 260.02 141.34 262.11 135.48 264.17 C 129.38 259.46 124.43 253.45 118.27 248.81 C 115.87 244.23 104.54 239.49 106.17 235.83 C 139.57 230.74 173.05 238.76 205.66 245.38 C 238.19 252.82 272.44 255.02 305.10 247.08 C 335.17 237.19 366.42 231.84 397.53 226.40 Z" fill="#63b6d4" opacity="1.00" stroke="#63b6d4" stroke-width="0.25"/>
<path d="M 432.90 225.81 C 438.10 223.04 446.87 227.95 453.22 226.21 C 457.58 226.93 454.94 228.48 451.86 228.65 C 445.62 227.26 439.31 225.98 432.90 225.81 Z" fill="#8eb4c8" opacity="1.00" stroke="#8eb4c8" stroke-width="0.25"/>
<path d="M 50.86 226.77 C 70.83 222.48 93.04 233.14 101.82 251.60 C 108.69 262.66 116.91 273.49 127.48 281.31 C 131.45 284.16 135.71 286.60 139.83 289.23 C 147.61 294.44 157.15 294.67 166.12 295.91 C 173.72 296.72 181.31 297.70 188.94 298.15 C 200.86 303.13 215.54 300.26 227.89 306.12 C 240.28 311.68 254.58 318.94 260.13 332.09 C 243.07 323.95 224.03 322.76 205.95 318.13 C 197.36 316.85 188.65 316.86 180.00 316.28 C 163.94 315.96 142.92 322.38 131.32 307.69 C 124.76 300.38 116.60 294.84 107.28 291.73 C 90.60 284.95 71.57 280.60 54.08 287.04 C 43.84 289.00 34.16 293.18 23.97 295.19 C 20.24 283.43 18.95 271.02 18.36 258.74 C 18.33 253.22 18.83 247.69 19.17 242.18 C 29.12 236.08 39.23 229.36 50.86 226.77 Z" fill="#b0ebfd" opacity="1.00" stroke="#b0ebfd" stroke-width="0.25"/>
<path d="M 119.71 232.63 C 127.77 231.04 136.13 232.03 144.23 232.77 C 136.06 233.10 127.88 233.09 119.71 232.63 Z" fill="#5d8eaf" opacity="1.00" stroke="#5d8eaf" stroke-width="0.25"/>
<path d="M 404.62 249.59 C 424.16 239.27 445.75 231.30 468.23 232.77 C 473.92 233.29 479.66 234.10 485.11 235.93 C 485.19 236.39 485.34 237.32 485.42 237.78 C 465.59 232.67 444.53 234.96 425.69 242.70 C 422.91 244.11 417.53 244.38 418.50 248.70 C 411.24 252.39 403.39 254.80 395.85 257.87 C 394.29 258.74 392.70 258.07 391.15 257.65 C 367.85 267.48 342.79 272.52 318.02 277.15 C 285.69 281.13 254.01 272.38 222.02 270.02 C 198.99 272.29 177.19 263.02 154.40 262.74 C 154.23 262.31 153.90 261.44 153.74 261.00 C 178.38 261.43 202.11 270.58 226.98 268.17 C 255.61 271.47 284.14 278.09 313.15 275.24 C 344.57 270.95 375.82 263.11 404.62 249.59 Z" fill="#cdf4fb" opacity="1.00" stroke="#cdf4fb" stroke-width="0.25"/>
<path d="M 425.69 242.70 C 444.53 234.96 465.59 232.67 485.42 237.78 C 487.64 246.39 487.10 255.30 486.95 264.08 C 473.24 258.61 457.84 257.13 443.61 261.54 C 436.22 263.16 430.36 269.12 422.44 268.58 C 401.65 281.43 383.11 299.72 358.85 305.82 C 348.44 308.86 337.54 305.34 326.95 306.82 C 314.62 307.63 302.88 311.72 291.12 315.15 C 283.95 318.28 275.59 319.40 269.91 325.17 C 265.68 320.38 262.19 314.90 257.29 310.70 C 225.16 281.77 175.20 297.06 142.03 269.83 C 139.82 267.98 137.66 266.06 135.48 264.17 C 141.34 262.11 147.39 260.02 153.74 261.00 C 153.90 261.44 154.23 262.31 154.40 262.74 C 177.19 263.02 198.99 272.29 222.02 270.02 C 254.01 272.38 285.69 281.13 318.02 277.15 C 342.79 272.52 367.85 267.48 391.15 257.65 C 392.70 258.07 394.29 258.74 395.85 257.87 C 403.39 254.80 411.24 252.39 418.50 248.70 C 417.53 244.38 422.91 244.11 425.69 242.70 Z" fill="#88dffd" opacity="1.00" stroke="#88dffd" stroke-width="0.25"/>
<path d="M 495.21 235.16 C 499.00 238.23 490.93 238.48 495.21 235.16 Z" fill="#92a3b0" opacity="1.00" stroke="#92a3b0" stroke-width="0.25"/>
<path d="M 493.05 240.88 C 494.12 241.09 495.18 241.35 496.24 241.68 C 496.04 247.81 496.15 253.95 495.92 260.09 C 495.46 260.28 494.54 260.66 494.07 260.86 C 493.79 254.19 493.17 247.55 493.05 240.88 Z" fill="#b7e2f0" opacity="1.00" stroke="#b7e2f0" stroke-width="0.25"/>
<path d="M 103.26 247.04 C 109.67 249.63 110.95 257.68 116.76 261.22 C 121.22 263.82 122.82 269.07 127.21 271.78 C 131.68 273.80 129.73 278.45 127.48 281.31 C 116.91 273.49 108.69 262.66 101.82 251.60 C 102.60 250.18 102.92 248.60 103.26 247.04 Z" fill="#e0f6fa" opacity="1.00" stroke="#e0f6fa" stroke-width="0.25"/>
<path d="M 241.99 248.36 C 244.23 246.94 246.57 247.08 249.03 248.77 C 246.80 249.97 244.45 249.83 241.99 248.36 Z" fill="#7ea3c4" opacity="1.00" stroke="#7ea3c4" stroke-width="0.25"/>
<path d="M 118.27 248.81 C 124.43 253.45 129.38 259.46 135.48 264.17 C 137.66 266.06 139.82 267.98 142.03 269.83 C 140.62 270.04 137.96 269.51 139.28 271.75 C 144.46 277.50 152.57 279.17 158.21 284.05 C 152.06 283.70 147.80 278.20 141.90 276.89 C 147.40 286.22 161.55 288.08 171.30 290.80 C 168.53 290.98 165.76 291.05 162.99 291.03 C 163.99 292.68 165.06 294.29 166.12 295.91 C 157.15 294.67 147.61 294.44 139.83 289.23 C 143.96 290.10 147.05 285.24 150.86 288.19 C 153.10 288.25 156.75 292.77 157.95 289.27 C 143.54 284.42 132.08 273.67 124.05 260.96 C 122.40 256.97 115.32 253.67 118.27 248.81 Z" fill="#e4f5f8" opacity="1.00" stroke="#e4f5f8" stroke-width="0.25"/>
<path d="M 454.28 270.33 C 460.34 269.82 466.79 269.36 472.71 271.24 C 478.08 273.15 482.93 276.20 487.64 279.36 C 486.45 288.26 485.04 297.24 482.82 305.95 C 448.04 295.57 411.34 303.59 378.32 316.42 C 352.82 322.39 327.20 329.55 300.72 328.95 C 310.06 319.26 325.18 317.53 337.97 318.17 C 353.09 320.00 368.61 316.75 382.09 309.77 C 395.80 301.72 409.77 293.18 421.10 282.03 C 431.83 277.21 442.52 272.11 454.28 270.33 Z" fill="#b2ebfc" opacity="1.00" stroke="#b2ebfc" stroke-width="0.25"/>
<path d="M 381.11 306.95 C 394.80 299.09 405.56 286.54 421.10 282.03 C 409.77 293.18 395.80 301.72 382.09 309.77 C 381.74 308.83 379.41 307.63 381.11 306.95 Z" fill="#d7f4f8" opacity="1.00" stroke="#d7f4f8" stroke-width="0.25"/>
<path d="M 54.08 287.04 C 71.57 280.60 90.60 284.95 107.28 291.73 C 101.83 293.28 96.28 291.81 91.06 290.08 C 77.15 281.84 58.03 287.20 43.94 292.95 C 44.49 293.03 45.59 293.20 46.14 293.29 C 38.88 294.71 30.64 300.54 23.97 295.19 C 34.16 293.18 43.84 289.00 54.08 287.04 Z" fill="#e1f8fb" opacity="1.00" stroke="#e1f8fb" stroke-width="0.25"/>
<path d="M 43.94 292.95 C 58.03 287.20 77.15 281.84 91.06 290.08 C 76.05 288.07 60.76 289.43 46.14 293.29 C 45.59 293.20 44.49 293.03 43.94 292.95 Z" fill="#c3eaf4" opacity="1.00" stroke="#c3eaf4" stroke-width="0.25"/>
<path d="M 27.14 305.26 C 52.68 294.66 82.68 291.49 108.68 302.26 C 119.87 306.52 129.11 314.51 138.96 321.07 C 154.22 331.66 172.01 337.74 189.82 342.47 C 194.38 343.56 198.99 344.56 203.68 344.88 C 209.25 346.38 215.01 347.04 220.76 347.30 C 229.88 348.10 239.19 348.70 248.29 347.39 C 266.35 344.70 283.68 338.85 301.31 334.36 C 317.09 332.89 333.23 333.05 348.57 328.47 C 377.90 322.76 405.44 308.92 435.71 307.61 C 444.54 308.02 453.40 308.29 462.24 307.74 C 468.56 308.72 475.21 309.32 481.04 312.12 C 480.09 314.74 478.91 317.27 477.82 319.85 C 476.20 323.65 474.03 327.19 472.50 331.04 C 468.87 337.32 465.38 343.68 461.89 350.03 C 426.50 349.14 391.04 353.72 356.81 362.65 C 337.86 365.63 320.12 375.04 301.19 376.72 C 286.44 372.72 271.42 369.65 256.23 367.97 C 214.68 360.98 172.63 356.08 130.54 353.52 C 99.31 351.96 67.92 352.16 37.13 358.04 C 31.42 348.50 27.00 338.26 23.69 327.65 C 24.37 327.00 25.07 326.37 25.77 325.76 C 29.60 329.16 30.96 337.03 37.09 336.03 C 34.52 325.57 28.75 316.01 27.14 305.26 Z" fill="#79cbf0" opacity="1.00" stroke="#79cbf0" stroke-width="0.25"/>
<path d="M 435.71 307.61 C 444.51 306.64 453.44 306.60 462.24 307.74 C 453.40 308.29 444.54 308.02 435.71 307.61 Z" fill="#b1dced" opacity="1.00" stroke="#b1dced" stroke-width="0.25"/>
<path d="M 18.93 311.87 C 19.77 312.42 20.40 313.18 20.80 314.15 C 22.48 318.00 24.05 321.91 25.77 325.76 C 25.07 326.37 24.37 327.00 23.69 327.65 C 21.31 324.09 19.42 316.95 18.93 311.87 Z" fill="#a7d2e2" opacity="1.00" stroke="#a7d2e2" stroke-width="0.25"/>
<path d="M 161.11 325.75 C 162.07 322.75 166.50 324.04 169.13 323.23 C 181.96 324.15 197.82 321.95 208.88 324.87 C 197.63 330.14 184.24 325.44 172.30 326.31 C 170.54 326.50 169.91 327.49 170.70 329.11 C 167.31 328.66 164.19 327.15 161.11 325.75 Z" fill="#cdf0f7" opacity="1.00" stroke="#cdf0f7" stroke-width="0.25"/>
<path d="M 172.30 326.31 C 184.24 325.44 197.63 330.14 208.88 324.87 C 221.81 326.37 236.56 329.65 246.78 336.91 C 221.87 344.24 194.53 337.39 170.70 329.11 C 169.91 327.49 170.54 326.50 172.30 326.31 Z" fill="#b5ebfb" opacity="1.00" stroke="#b5ebfb" stroke-width="0.25"/>
<path d="M 461.89 350.03 C 465.38 343.68 468.87 337.32 472.50 331.04 C 474.69 331.37 477.91 331.60 475.05 333.92 C 469.67 337.30 468.48 345.36 463.94 350.03 C 463.43 350.03 462.40 350.03 461.89 350.03 Z" fill="#d5f5fb" opacity="1.00" stroke="#d5f5fb" stroke-width="0.25"/>
<path d="M 463.94 350.03 C 468.48 345.36 469.67 337.30 475.05 333.92 C 472.68 339.85 469.26 345.48 465.79 350.87 C 465.33 350.66 464.40 350.24 463.94 350.03 Z" fill="#adccda" opacity="1.00" stroke="#adccda" stroke-width="0.25"/>
<path d="M 178.62 335.17 C 184.61 335.29 190.36 337.01 196.12 338.47 C 195.11 342.46 205.34 342.55 208.22 343.61 C 206.68 343.96 205.18 344.40 203.68 344.88 C 198.99 344.56 194.38 343.56 189.82 342.47 C 196.53 338.70 182.23 336.80 178.62 335.17 Z" fill="#d1ecf4" opacity="1.00" stroke="#d1ecf4" stroke-width="0.25"/>
<path d="M 208.22 343.61 C 205.34 342.55 195.11 342.46 196.12 338.47 C 213.52 344.41 232.49 343.63 250.14 339.16 C 252.65 338.88 254.78 340.70 257.06 341.49 C 241.65 347.01 224.24 345.10 208.22 343.61 Z" fill="#a7d4e9" opacity="1.00" stroke="#a7d4e9" stroke-width="0.25"/>
<path d="M 483.39 339.39 C 484.11 341.15 481.69 352.36 476.96 353.02 C 477.50 348.01 481.38 343.96 483.39 339.39 Z" fill="#c8dfe6" opacity="1.00" stroke="#c8dfe6" stroke-width="0.25"/>
<path d="M 220.76 347.30 C 229.93 346.90 239.12 346.86 248.29 347.39 C 239.19 348.70 229.88 348.10 220.76 347.30 Z" fill="#b6deee" opacity="1.00" stroke="#b6deee" stroke-width="0.25"/>
<path d="M 356.81 362.65 C 391.04 353.72 426.50 349.14 461.89 350.03 C 460.61 350.47 458.06 351.35 456.79 351.79 C 435.08 351.49 413.40 353.50 392.03 357.15 C 382.91 358.16 373.57 359.67 365.00 363.06 C 363.37 363.21 361.75 363.36 360.14 363.55 C 359.02 363.24 357.92 362.94 356.81 362.65 Z" fill="#d6f2f9" opacity="1.00" stroke="#d6f2f9" stroke-width="0.25"/>
<path d="M 392.03 357.15 C 413.40 353.50 435.08 351.49 456.79 351.79 C 458.61 351.43 459.68 351.84 460.02 353.00 C 452.57 353.04 445.07 352.57 437.68 353.65 C 435.71 353.95 433.73 354.18 431.74 354.25 C 431.08 354.23 429.74 354.18 429.08 354.15 C 427.36 353.61 425.38 353.49 423.93 354.74 C 413.35 355.39 402.90 357.24 392.36 358.25 L 392.03 357.15 Z" fill="#38546c" opacity="1.00" stroke="#38546c" stroke-width="0.25"/>
<path d="M 37.13 358.04 C 67.92 352.16 99.31 351.96 130.54 353.52 C 172.63 356.08 214.68 360.98 256.23 367.97 L 255.71 369.08 C 241.53 367.13 227.30 365.49 213.09 363.77 C 211.66 362.45 209.63 362.61 207.93 363.22 C 205.38 363.09 202.84 362.97 200.31 362.84 C 187.87 361.04 175.32 360.14 162.79 359.20 C 157.56 358.74 152.35 358.19 147.11 357.82 C 145.56 357.65 142.45 357.32 140.90 357.16 C 137.99 357.02 135.11 356.98 132.22 356.84 C 128.76 356.21 125.27 355.95 121.76 356.20 C 118.57 356.06 115.41 355.99 112.23 355.82 C 107.44 355.05 102.59 354.95 97.76 355.18 C 91.94 355.02 86.10 354.92 80.29 355.25 C 77.41 355.26 74.54 355.13 71.71 355.64 C 60.34 355.70 49.32 358.55 38.15 360.16 C 37.90 359.63 37.38 358.57 37.13 358.04 Z" fill="#d9f4fb" opacity="1.00" stroke="#d9f4fb" stroke-width="0.25"/>
<path d="M 437.68 353.65 C 445.07 352.57 452.57 353.04 460.02 353.00 C 454.52 355.31 444.76 353.70 437.68 353.65 Z" fill="#85a6c1" opacity="1.00" stroke="#85a6c1" stroke-width="0.25"/>
<path d="M 423.93 354.74 C 425.38 353.49 427.36 353.61 429.08 354.15 C 427.70 355.59 425.62 355.38 423.93 354.74 Z" fill="#889cb0" opacity="1.00" stroke="#889cb0" stroke-width="0.25"/>
<path d="M 429.08 354.15 C 429.74 354.18 431.08 354.23 431.74 354.25 C 432.76 354.51 433.76 354.81 434.77 355.16 L 435.13 355.99 C 405.49 357.17 375.57 361.54 347.20 370.31 C 346.33 370.16 344.58 369.88 343.70 369.74 C 350.58 366.89 358.12 365.96 365.00 363.06 C 374.14 361.56 383.24 359.83 392.36 358.25 C 402.90 357.24 413.35 355.39 423.93 354.74 C 425.62 355.38 427.70 355.59 429.08 354.15 Z" fill="#cce6f2" opacity="1.00" stroke="#cce6f2" stroke-width="0.25"/>
<path d="M 71.71 355.64 C 74.54 355.13 77.41 355.26 80.29 355.25 C 77.49 356.05 74.57 355.64 71.71 355.64 Z" fill="#779bb2" opacity="1.00" stroke="#779bb2" stroke-width="0.25"/>
<path d="M 80.29 355.25 C 86.10 354.92 91.94 355.02 97.76 355.18 C 102.54 355.92 107.40 356.04 112.23 355.82 C 115.41 355.99 118.57 356.06 121.76 356.20 C 125.22 356.74 128.72 357.04 132.22 356.84 C 135.11 356.98 137.99 357.02 140.90 357.16 C 142.45 357.32 145.56 357.65 147.11 357.82 C 152.35 358.19 157.56 358.74 162.79 359.20 C 171.00 362.60 180.03 362.74 188.74 363.59 C 202.13 364.86 215.41 367.38 228.73 368.85 C 239.75 370.85 250.95 371.71 261.87 374.26 C 262.98 375.49 264.73 375.37 266.13 374.73 C 268.17 375.13 270.19 375.63 272.24 376.03 C 265.60 374.77 262.94 381.04 271.63 379.21 C 275.62 379.48 279.63 380.10 283.27 381.80 C 279.19 382.07 275.16 382.67 271.11 383.20 C 269.70 382.60 267.97 382.54 266.88 383.78 C 259.04 385.27 251.35 387.43 243.87 390.22 C 233.96 394.32 221.58 399.22 217.41 409.90 C 217.21 410.63 216.80 412.11 216.60 412.84 C 206.29 412.43 196.24 409.92 186.22 407.67 C 155.04 401.51 125.70 384.94 93.08 388.15 C 91.35 387.61 89.39 387.51 87.90 388.71 C 81.79 389.81 75.62 390.74 69.74 392.81 C 68.81 392.52 67.89 392.22 66.97 391.92 C 63.93 388.58 61.63 384.47 57.85 381.88 C 59.42 386.25 62.95 389.49 65.61 393.21 L 66.01 393.95 C 64.36 394.35 62.71 394.78 61.04 395.11 C 51.05 385.52 42.46 373.87 35.06 361.99 C 34.80 360.47 37.18 360.61 38.15 360.16 C 49.32 358.55 60.34 355.70 71.71 355.64 C 74.57 355.64 77.49 356.05 80.29 355.25 Z" fill="#115588" opacity="1.00" stroke="#115588" stroke-width="0.25"/>
<path d="M 97.76 355.18 C 102.59 354.95 107.44 355.05 112.23 355.82 C 107.40 356.04 102.54 355.92 97.76 355.18 Z" fill="#7297ae" opacity="1.00" stroke="#7297ae" stroke-width="0.25"/>
<path d="M 434.77 355.16 C 442.59 354.88 450.43 354.85 458.27 355.11 L 457.88 355.91 C 450.29 356.02 442.71 356.06 435.13 355.99 L 434.77 355.16 Z" fill="#527591" opacity="1.00" stroke="#527591" stroke-width="0.25"/>
<path d="M 458.27 355.11 C 459.09 355.62 459.71 356.37 460.13 357.37 C 456.38 364.31 451.34 370.48 445.89 376.15 C 448.43 368.65 454.64 363.09 457.88 355.91 L 458.27 355.11 Z" fill="#b1d8ea" opacity="1.00" stroke="#b1d8ea" stroke-width="0.25"/>
<path d="M 461.30 355.98 C 461.71 354.12 466.28 354.18 466.87 355.91 C 465.01 356.07 463.15 356.06 461.30 355.98 Z" fill="#adc4d4" opacity="1.00" stroke="#adc4d4" stroke-width="0.25"/>
<path d="M 121.76 356.20 C 125.27 355.95 128.76 356.21 132.22 356.84 C 128.72 357.04 125.22 356.74 121.76 356.20 Z" fill="#8bb0c9" opacity="1.00" stroke="#8bb0c9" stroke-width="0.25"/>
<path d="M 347.20 370.31 C 375.57 361.54 405.49 357.17 435.13 355.99 C 442.71 356.06 450.29 356.02 457.88 355.91 C 454.64 363.09 448.43 368.65 445.89 376.15 C 451.34 370.48 456.38 364.31 460.13 357.37 C 460.42 357.02 461.01 356.33 461.30 355.98 C 463.15 356.06 465.01 356.07 466.87 355.91 C 466.46 358.12 461.73 363.22 466.14 362.73 C 465.65 363.76 465.16 364.78 464.66 365.81 C 463.24 368.83 462.11 371.98 461.09 375.16 C 463.01 373.09 464.61 370.80 465.90 368.29 C 469.84 364.94 470.58 357.24 475.21 356.14 C 475.89 357.00 476.57 357.86 477.23 358.76 C 473.45 366.40 469.24 373.93 463.98 380.66 C 462.03 379.76 460.96 381.58 459.95 382.94 C 447.61 398.18 434.02 412.37 418.64 424.54 C 414.64 428.09 412.37 433.32 407.69 436.22 C 406.34 437.26 405.07 438.41 403.74 439.47 C 402.84 439.93 401.97 440.43 401.13 440.98 C 397.80 443.25 393.96 448.10 389.95 444.53 C 378.48 439.48 366.42 435.55 354.21 432.74 C 349.77 431.87 345.26 431.31 340.74 431.14 C 343.87 433.53 348.03 433.24 351.76 433.81 C 358.47 434.84 364.89 437.09 371.35 439.07 C 370.17 439.52 368.99 439.95 367.80 440.36 C 360.04 437.98 352.11 436.17 344.13 434.75 C 343.01 433.52 341.27 433.61 339.88 434.23 C 333.93 433.21 328.00 432.10 322.12 430.82 C 321.06 429.49 319.27 429.61 317.88 430.24 C 315.95 429.76 314.04 429.24 312.12 428.76 C 311.02 427.57 309.33 427.59 307.91 428.12 C 303.99 427.25 300.07 426.46 296.12 425.76 C 295.01 424.53 293.28 424.60 291.86 425.17 C 291.43 425.08 290.57 424.91 290.13 424.83 C 289.04 423.57 287.31 423.60 285.88 424.15 C 285.19 424.06 283.80 423.87 283.10 423.78 C 281.65 422.42 279.59 422.62 277.88 423.25 C 277.44 423.14 276.58 422.93 276.15 422.83 C 275.06 421.54 273.30 421.61 271.87 422.16 C 271.43 422.09 270.57 421.93 270.14 421.85 C 269.10 420.51 267.32 420.62 265.90 421.17 C 259.05 419.17 245.03 417.67 251.17 407.16 C 267.88 391.87 290.76 386.57 311.53 378.98 C 317.77 381.97 321.81 375.25 327.62 375.41 C 333.83 372.35 340.92 372.94 347.20 370.31 Z" fill="#125689" opacity="1.00" stroke="#125689" stroke-width="0.25"/>
<path d="M 466.87 355.91 C 471.37 355.16 467.29 361.54 466.14 362.73 C 461.73 363.22 466.46 358.12 466.87 355.91 Z" fill="#7293ad" opacity="1.00" stroke="#7293ad" stroke-width="0.25"/>
<path d="M 475.21 356.14 C 476.99 354.45 479.68 358.16 477.23 358.76 C 476.57 357.86 475.89 357.00 475.21 356.14 Z" fill="#92b2c1" opacity="1.00" stroke="#92b2c1" stroke-width="0.25"/>
<path d="M 140.90 357.16 C 142.45 357.32 145.56 357.65 147.11 357.82 C 145.56 357.65 142.45 357.32 140.90 357.16 Z" fill="#8eb2c5" opacity="1.00" stroke="#8eb2c5" stroke-width="0.25"/>
<path d="M 365.00 363.06 C 373.57 359.67 382.91 358.16 392.03 357.15 L 392.36 358.25 C 383.24 359.83 374.14 361.56 365.00 363.06 Z" fill="#84939f" opacity="1.00" stroke="#84939f" stroke-width="0.25"/>
<path d="M 162.79 359.20 C 175.32 360.14 187.87 361.04 200.31 362.84 L 199.98 363.83 C 196.24 363.63 192.45 362.65 188.74 363.59 C 180.03 362.74 171.00 362.60 162.79 359.20 Z" fill="#688ca8" opacity="1.00" stroke="#688ca8" stroke-width="0.25"/>
<path d="M 188.74 363.59 C 192.45 362.65 196.24 363.63 199.98 363.83 C 210.73 365.08 221.54 365.86 232.23 367.57 C 231.05 367.98 229.89 368.40 228.73 368.85 C 215.41 367.38 202.13 364.86 188.74 363.59 Z" fill="#acd0e6" opacity="1.00" stroke="#acd0e6" stroke-width="0.25"/>
<path d="M 200.31 362.84 C 202.84 362.97 205.38 363.09 207.93 363.22 C 209.34 364.56 211.38 364.37 213.09 363.77 C 227.30 365.49 241.53 367.13 255.71 369.08 C 256.85 369.47 258.00 369.82 259.17 370.14 C 258.81 370.43 258.07 371.01 257.71 371.29 C 249.19 370.19 240.74 368.67 232.23 367.57 C 221.54 365.86 210.73 365.08 199.98 363.83 L 200.31 362.84 Z" fill="#37536a" opacity="1.00" stroke="#37536a" stroke-width="0.25"/>
<path d="M 207.93 363.22 C 209.63 362.61 211.66 362.45 213.09 363.77 C 211.38 364.37 209.34 364.56 207.93 363.22 Z" fill="#969fac" opacity="1.00" stroke="#969fac" stroke-width="0.25"/>
<path d="M 301.19 376.72 C 320.12 375.04 337.86 365.63 356.81 362.65 C 357.92 362.94 359.02 363.24 360.14 363.55 C 343.89 368.51 327.06 371.94 311.53 378.98 C 290.76 386.57 267.88 391.87 251.17 407.16 C 245.03 417.67 259.05 419.17 265.90 421.17 C 266.97 422.43 268.70 422.40 270.14 421.85 C 270.57 421.93 271.43 422.09 271.87 422.16 C 272.94 423.45 274.71 423.38 276.15 422.83 C 276.58 422.93 277.44 423.14 277.88 423.25 C 279.35 424.51 281.37 424.37 283.10 423.78 C 283.80 423.87 285.19 424.06 285.88 424.15 C 286.91 425.50 288.71 425.37 290.13 424.83 C 290.57 424.91 291.43 425.08 291.86 425.17 C 292.92 426.47 294.71 426.37 296.12 425.76 C 300.07 426.46 303.99 427.25 307.91 428.12 C 308.90 429.51 310.72 429.37 312.12 428.76 C 314.04 429.24 315.95 429.76 317.88 430.24 C 318.98 431.44 320.69 431.39 322.12 430.82 C 328.00 432.10 333.93 433.21 339.88 434.23 C 340.97 435.49 342.72 435.38 344.13 434.75 C 352.11 436.17 360.04 437.98 367.80 440.36 C 372.58 441.82 377.52 442.81 382.22 444.56 C 380.78 445.27 379.03 445.57 377.92 446.78 C 380.59 447.98 385.50 446.85 385.74 450.81 C 382.17 457.25 369.04 454.83 368.65 463.72 C 367.22 466.61 363.38 462.82 361.13 465.15 C 354.11 469.83 345.77 471.06 338.14 474.25 C 332.73 475.73 327.48 480.54 321.76 477.73 C 334.12 473.67 346.63 469.86 358.59 464.63 C 362.15 458.18 370.39 457.49 376.38 454.29 C 372.15 454.09 367.93 453.92 363.71 453.80 C 365.18 453.40 366.67 453.03 368.18 452.75 C 372.65 452.76 378.48 453.75 382.13 450.35 C 363.82 444.61 344.33 443.17 325.25 444.28 C 323.28 443.93 319.49 445.06 320.45 441.84 C 316.93 441.46 313.51 442.15 310.17 443.10 C 286.68 443.28 263.10 437.33 242.12 426.84 C 238.83 425.63 235.42 424.78 232.09 423.77 C 230.87 422.96 229.68 423.89 228.53 424.33 C 225.71 422.57 223.95 419.62 221.64 417.34 C 209.07 414.33 196.16 412.56 183.75 408.85 C 184.37 408.55 185.60 407.96 186.22 407.67 C 196.24 409.92 206.29 412.43 216.60 412.84 C 216.80 412.11 217.21 410.63 217.41 409.90 C 217.54 410.25 217.80 410.96 217.93 411.32 C 219.21 418.20 221.82 406.24 224.02 404.05 C 225.96 403.23 227.64 401.95 229.27 400.64 C 235.22 397.56 240.88 393.95 247.07 391.37 C 246.00 390.97 244.93 390.59 243.87 390.22 C 251.35 387.43 259.04 385.27 266.88 383.78 C 268.28 384.38 270.05 384.50 271.11 383.20 C 275.16 382.67 279.19 382.07 283.27 381.80 C 285.29 381.70 287.26 381.23 289.21 380.72 C 284.88 378.48 279.63 378.79 275.30 376.38 C 274.54 376.29 273.00 376.12 272.24 376.03 C 270.19 375.63 268.17 375.13 266.13 374.73 C 265.01 373.51 263.26 373.61 261.87 374.26 C 250.95 371.71 239.75 370.85 228.73 368.85 C 229.89 368.40 231.05 367.98 232.23 367.57 C 240.74 368.67 249.19 370.19 257.71 371.29 C 261.18 371.92 264.66 372.88 268.21 373.02 C 266.48 369.76 262.26 370.75 259.17 370.14 C 258.00 369.82 256.85 369.47 255.71 369.08 L 256.23 367.97 C 271.42 369.65 286.44 372.72 301.19 376.72 Z" fill="#f4fafc" opacity="1.00" stroke="#f4fafc" stroke-width="0.25"/>
<path d="M 360.14 363.55 C 361.75 363.36 363.37 363.21 365.00 363.06 C 358.12 365.96 350.58 366.89 343.70 369.74 C 344.58 369.88 346.33 370.16 347.20 370.31 C 340.92 372.94 333.83 372.35 327.62 375.41 C 321.81 375.25 317.77 381.97 311.53 378.98 C 327.06 371.94 343.89 368.51 360.14 363.55 Z" fill="#678aa4" opacity="1.00" stroke="#678aa4" stroke-width="0.25"/>
<path d="M 462.36 365.37 C 464.07 364.98 462.17 370.66 459.93 371.13 C 460.32 369.06 461.20 367.12 462.36 365.37 Z" fill="#5788b3" opacity="1.00" stroke="#5788b3" stroke-width="0.25"/>
<path d="M 461.09 375.16 C 462.11 371.98 463.24 368.83 464.66 365.81 C 464.97 366.43 465.59 367.67 465.90 368.29 C 464.61 370.80 463.01 373.09 461.09 375.16 Z" fill="#80accb" opacity="1.00" stroke="#80accb" stroke-width="0.25"/>
<path d="M 259.17 370.14 C 262.26 370.75 266.48 369.76 268.21 373.02 C 264.66 372.88 261.18 371.92 257.71 371.29 C 258.07 371.01 258.81 370.43 259.17 370.14 Z" fill="#96a7b3" opacity="1.00" stroke="#96a7b3" stroke-width="0.25"/>
<path d="M 261.87 374.26 C 263.26 373.61 265.01 373.51 266.13 374.73 C 264.73 375.37 262.98 375.49 261.87 374.26 Z" fill="#8baec4" opacity="1.00" stroke="#8baec4" stroke-width="0.25"/>
<path d="M 272.24 376.03 C 273.00 376.12 274.54 376.29 275.30 376.38 C 274.19 377.46 272.92 378.35 271.63 379.21 C 262.94 381.04 265.60 374.77 272.24 376.03 Z" fill="#6890b1" opacity="1.00" stroke="#6890b1" stroke-width="0.25"/>
<path d="M 275.30 376.38 C 279.63 378.79 284.88 378.48 289.21 380.72 C 287.26 381.23 285.29 381.70 283.27 381.80 C 279.63 380.10 275.62 379.48 271.63 379.21 C 272.92 378.35 274.19 377.46 275.30 376.38 Z" fill="#b4c7d6" opacity="1.00" stroke="#b4c7d6" stroke-width="0.25"/>
<path d="M 459.95 382.94 C 460.96 381.58 462.03 379.76 463.98 380.66 C 463.61 382.42 461.69 385.03 459.95 382.94 Z" fill="#94b2c4" opacity="1.00" stroke="#94b2c4" stroke-width="0.25"/>
<path d="M 57.85 381.88 C 61.63 384.47 63.93 388.58 66.97 391.92 C 66.63 392.24 65.95 392.89 65.61 393.21 C 62.95 389.49 59.42 386.25 57.85 381.88 Z" fill="#9ecae5" opacity="1.00" stroke="#9ecae5" stroke-width="0.25"/>
<path d="M 266.88 383.78 C 267.97 382.54 269.70 382.60 271.11 383.20 C 270.05 384.50 268.28 384.38 266.88 383.78 Z" fill="#79a2bf" opacity="1.00" stroke="#79a2bf" stroke-width="0.25"/>
<path d="M 87.90 388.71 C 89.39 387.51 91.35 387.61 93.08 388.15 C 91.71 389.61 89.60 389.37 87.90 388.71 Z" fill="#7e9eba" opacity="1.00" stroke="#7e9eba" stroke-width="0.25"/>
<path d="M 93.08 388.15 C 125.70 384.94 155.04 401.51 186.22 407.67 C 185.60 407.96 184.37 408.55 183.75 408.85 C 159.23 404.60 136.50 392.53 111.54 390.55 C 98.37 389.18 84.97 390.33 72.22 393.84 C 71.60 393.58 70.36 393.06 69.74 392.81 C 75.62 390.74 81.79 389.81 87.90 388.71 C 89.60 389.37 91.71 389.61 93.08 388.15 Z" fill="#ccecf6" opacity="1.00" stroke="#ccecf6" stroke-width="0.25"/>
<path d="M 72.22 393.84 C 84.97 390.33 98.37 389.18 111.54 390.55 C 136.50 392.53 159.23 404.60 183.75 408.85 C 196.16 412.56 209.07 414.33 221.64 417.34 C 223.95 419.62 225.71 422.57 228.53 424.33 C 256.10 444.66 291.97 450.14 325.25 444.28 C 344.33 443.17 363.82 444.61 382.13 450.35 C 378.48 453.75 372.65 452.76 368.18 452.75 C 359.32 451.63 350.69 449.17 341.85 447.98 C 348.27 451.15 356.22 453.22 363.71 453.80 C 367.93 453.92 372.15 454.09 376.38 454.29 C 370.39 457.49 362.15 458.18 358.59 464.63 C 346.63 469.86 334.12 473.67 321.76 477.73 C 313.06 480.47 304.02 483.29 294.92 484.07 C 294.39 483.86 293.34 483.46 292.82 483.25 C 293.14 482.94 293.78 482.31 294.10 481.99 C 288.40 482.26 282.65 482.57 277.10 483.95 C 275.39 484.08 273.69 484.04 271.99 484.03 C 261.32 483.91 250.65 484.03 239.98 484.00 C 224.30 483.30 209.20 478.63 194.03 475.03 C 189.83 470.14 190.99 477.20 188.10 475.78 C 175.55 472.87 163.42 467.97 152.25 461.63 C 124.33 444.10 97.90 423.65 76.86 398.03 C 89.27 395.06 102.32 392.51 115.05 394.82 C 119.09 397.06 116.46 387.45 112.05 392.75 C 97.74 389.76 84.03 395.86 69.83 395.76 C 70.60 395.09 71.40 394.45 72.22 393.84 Z" fill="#88cfef" opacity="1.00" stroke="#88cfef" stroke-width="0.25"/>
<path d="M 217.41 409.90 C 221.58 399.22 233.96 394.32 243.87 390.22 C 244.93 390.59 246.00 390.97 247.07 391.37 C 240.88 393.95 235.22 397.56 229.27 400.64 C 226.65 399.33 225.46 402.46 224.02 404.05 C 221.24 405.77 219.55 408.58 217.93 411.32 C 217.80 410.96 217.54 410.25 217.41 409.90 Z" fill="#96b9cf" opacity="1.00" stroke="#96b9cf" stroke-width="0.25"/>
<path d="M 65.61 393.21 C 65.95 392.89 66.63 392.24 66.97 391.92 C 67.89 392.22 68.81 392.52 69.74 392.81 C 70.36 393.06 71.60 393.58 72.22 393.84 C 71.40 394.45 70.60 395.09 69.83 395.76 C 84.03 395.86 97.74 389.76 112.05 392.75 C 116.46 387.45 119.09 397.06 115.05 394.82 C 102.32 392.51 89.27 395.06 76.86 398.03 C 97.90 423.65 124.33 444.10 152.25 461.63 C 146.01 464.62 137.99 459.16 134.44 455.91 C 134.86 455.85 135.70 455.74 136.11 455.68 C 109.77 438.53 83.73 419.61 66.01 393.95 L 65.61 393.21 Z" fill="#e8f8fc" opacity="1.00" stroke="#e8f8fc" stroke-width="0.25"/>
<path d="M 61.04 395.11 C 62.71 394.78 64.36 394.35 66.01 393.95 C 83.73 419.61 109.77 438.53 136.11 455.68 C 135.70 455.74 134.86 455.85 134.44 455.91 C 128.79 453.17 124.05 448.59 117.94 446.89 C 118.57 448.39 123.07 451.98 119.11 450.88 C 106.64 443.27 94.45 434.53 83.97 424.28 C 88.23 424.05 83.09 421.16 82.07 419.63 C 82.52 419.39 83.43 418.90 83.89 418.66 C 77.43 411.26 70.08 404.74 63.28 397.69 C 62.53 396.83 61.76 395.98 61.04 395.11 Z" fill="#a1d1e8" opacity="1.00" stroke="#a1d1e8" stroke-width="0.25"/>
<path d="M 59.85 398.07 C 60.71 397.97 62.42 397.78 63.28 397.69 C 70.08 404.74 77.43 411.26 83.89 418.66 C 83.43 418.90 82.52 419.39 82.07 419.63 C 74.24 413.54 66.90 405.44 59.85 398.07 Z" fill="#cde9f0" opacity="1.00" stroke="#cde9f0" stroke-width="0.25"/>
<path d="M 224.02 404.05 C 225.46 402.46 226.65 399.33 229.27 400.64 C 227.64 401.95 225.96 403.23 224.02 404.05 Z" fill="#59758a" opacity="1.00" stroke="#59758a" stroke-width="0.25"/>
<path d="M 157.88 403.94 C 166.56 405.95 177.17 407.03 184.15 412.02 C 175.23 410.71 165.46 408.40 157.88 403.94 Z" fill="#c1edfb" opacity="1.00" stroke="#c1edfb" stroke-width="0.25"/>
<path d="M 217.93 411.32 C 219.55 408.58 221.24 405.77 224.02 404.05 C 221.82 406.24 219.21 418.20 217.93 411.32 Z" fill="#426378" opacity="1.00" stroke="#426378" stroke-width="0.25"/>
<path d="M 447.23 407.67 C 446.60 406.34 447.98 403.36 449.69 404.26 C 450.59 405.68 448.68 407.88 447.23 407.67 Z" fill="#a4a9ad" opacity="1.00" stroke="#a4a9ad" stroke-width="0.25"/>
<path d="M 256.20 405.33 C 257.53 404.21 256.71 407.93 257.28 408.76 C 258.73 411.35 262.95 411.79 263.11 415.01 C 259.76 413.13 251.72 409.85 256.20 405.33 Z" fill="#92c7e7" opacity="1.00" stroke="#92c7e7" stroke-width="0.25"/>
<path d="M 440.12 416.06 C 441.24 412.46 444.33 409.90 447.23 407.67 C 445.42 411.09 443.40 415.03 439.90 416.97 L 440.12 416.06 Z" fill="#8a95a0" opacity="1.00" stroke="#8a95a0" stroke-width="0.25"/>
<path d="M 197.01 415.98 C 203.51 417.71 211.61 416.45 217.19 420.03 C 210.85 419.71 200.27 420.43 197.01 415.98 Z" fill="#c0eefc" opacity="1.00" stroke="#c0eefc" stroke-width="0.25"/>
<path d="M 431.26 423.13 C 434.06 420.62 436.85 417.98 440.12 416.06 L 439.90 416.97 C 424.28 433.34 407.13 449.35 386.89 459.99 C 389.44 454.33 398.27 453.05 402.81 448.80 C 402.91 446.53 400.21 447.70 398.94 447.95 C 400.16 446.10 405.43 441.42 401.13 440.98 C 401.97 440.43 402.84 439.93 403.74 439.47 C 407.78 441.51 410.41 438.56 413.18 435.86 C 413.82 435.36 414.47 434.86 415.13 434.36 C 416.04 433.68 416.96 433.01 417.83 432.29 C 419.82 430.67 421.65 428.87 423.53 427.13 L 424.30 426.66 C 423.33 428.56 422.34 430.46 421.34 432.35 C 424.97 429.65 428.23 426.48 431.26 423.13 Z" fill="#355570" opacity="1.00" stroke="#355570" stroke-width="0.25"/>
<path d="M 265.90 421.17 C 267.32 420.62 269.10 420.51 270.14 421.85 C 268.70 422.40 266.97 422.43 265.90 421.17 Z" fill="#88acc9" opacity="1.00" stroke="#88acc9" stroke-width="0.25"/>
<path d="M 271.87 422.16 C 273.30 421.61 275.06 421.54 276.15 422.83 C 274.71 423.38 272.94 423.45 271.87 422.16 Z" fill="#8ba9c2" opacity="1.00" stroke="#8ba9c2" stroke-width="0.25"/>
<path d="M 424.30 426.66 C 425.93 425.14 429.78 420.46 431.26 423.13 C 428.23 426.48 424.97 429.65 421.34 432.35 C 422.34 430.46 423.33 428.56 424.30 426.66 Z" fill="#a1bacc" opacity="1.00" stroke="#a1bacc" stroke-width="0.25"/>
<path d="M 228.53 424.33 C 229.68 423.89 230.87 422.96 232.09 423.77 C 254.04 440.19 283.05 447.31 310.17 443.10 C 313.51 442.15 316.93 441.46 320.45 441.84 C 319.49 445.06 323.28 443.93 325.25 444.28 C 291.97 450.14 256.10 444.66 228.53 424.33 Z" fill="#daf6fc" opacity="1.00" stroke="#daf6fc" stroke-width="0.25"/>
<path d="M 277.88 423.25 C 279.59 422.62 281.65 422.42 283.10 423.78 C 281.37 424.37 279.35 424.51 277.88 423.25 Z" fill="#99bdd9" opacity="1.00" stroke="#99bdd9" stroke-width="0.25"/>
<path d="M 232.09 423.77 C 235.42 424.78 238.83 425.63 242.12 426.84 C 263.10 437.33 286.68 443.28 310.17 443.10 C 283.05 447.31 254.04 440.19 232.09 423.77 Z" fill="#a0cfe6" opacity="1.00" stroke="#a0cfe6" stroke-width="0.25"/>
<path d="M 285.88 424.15 C 287.31 423.60 289.04 423.57 290.13 424.83 C 288.71 425.37 286.91 425.50 285.88 424.15 Z" fill="#86aac6" opacity="1.00" stroke="#86aac6" stroke-width="0.25"/>
<path d="M 291.86 425.17 C 293.28 424.60 295.01 424.53 296.12 425.76 C 294.71 426.37 292.92 426.47 291.86 425.17 Z" fill="#85a6c1" opacity="1.00" stroke="#85a6c1" stroke-width="0.25"/>
<path d="M 407.69 436.22 C 412.37 433.32 414.64 428.09 418.64 424.54 C 418.19 426.09 417.59 427.59 417.03 429.10 C 416.10 430.84 410.82 434.28 415.13 434.36 C 414.47 434.86 413.82 435.36 413.18 435.86 C 411.33 435.77 409.51 435.99 407.69 436.22 Z" fill="#b7d5e6" opacity="1.00" stroke="#b7d5e6" stroke-width="0.25"/>
<path d="M 420.20 426.65 C 420.49 425.42 423.47 425.70 423.53 427.13 C 421.65 428.87 419.82 430.67 417.83 432.29 C 418.64 430.41 419.47 428.55 420.20 426.65 Z" fill="#c4d8e6" opacity="1.00" stroke="#c4d8e6" stroke-width="0.25"/>
<path d="M 417.03 429.10 C 418.04 428.22 419.11 427.42 420.20 426.65 C 419.47 428.55 418.64 430.41 417.83 432.29 C 416.96 433.01 416.04 433.68 415.13 434.36 C 410.82 434.28 416.10 430.84 417.03 429.10 Z" fill="#7b92a3" opacity="1.00" stroke="#7b92a3" stroke-width="0.25"/>
<path d="M 307.91 428.12 C 309.33 427.59 311.02 427.57 312.12 428.76 C 310.72 429.37 308.90 429.51 307.91 428.12 Z" fill="#8cadc7" opacity="1.00" stroke="#8cadc7" stroke-width="0.25"/>
<path d="M 317.88 430.24 C 319.27 429.61 321.06 429.49 322.12 430.82 C 320.69 431.39 318.98 431.44 317.88 430.24 Z" fill="#7fa1b6" opacity="1.00" stroke="#7fa1b6" stroke-width="0.25"/>
<path d="M 340.74 431.14 C 345.26 431.31 349.77 431.87 354.21 432.74 C 353.60 433.01 352.37 433.54 351.76 433.81 C 348.03 433.24 343.87 433.53 340.74 431.14 Z" fill="#5790bb" opacity="1.00" stroke="#5790bb" stroke-width="0.25"/>
<path d="M 351.76 433.81 C 352.37 433.54 353.60 433.01 354.21 432.74 C 366.42 435.55 378.48 439.48 389.95 444.53 C 390.82 446.63 387.50 448.30 387.34 446.35 C 384.94 442.10 376.31 441.45 371.35 439.07 C 364.89 437.09 358.47 434.84 351.76 433.81 Z" fill="#a1cae5" opacity="1.00" stroke="#a1cae5" stroke-width="0.25"/>
<path d="M 339.88 434.23 C 341.27 433.61 343.01 433.52 344.13 434.75 C 342.72 435.38 340.97 435.49 339.88 434.23 Z" fill="#94b0c8" opacity="1.00" stroke="#94b0c8" stroke-width="0.25"/>
<path d="M 417.36 434.14 C 420.48 433.53 417.00 438.04 415.39 436.79 C 415.00 435.58 416.49 434.68 417.36 434.14 Z" fill="#83a3c6" opacity="1.00" stroke="#83a3c6" stroke-width="0.25"/>
<path d="M 407.69 436.22 C 409.51 435.99 411.33 435.77 413.18 435.86 C 410.41 438.56 407.78 441.51 403.74 439.47 C 405.07 438.41 406.34 437.26 407.69 436.22 Z" fill="#5483a4" opacity="1.00" stroke="#5483a4" stroke-width="0.25"/>
<path d="M 371.35 439.07 C 376.31 441.45 384.94 442.10 387.34 446.35 C 385.60 445.82 383.92 445.15 382.22 444.56 C 377.52 442.81 372.58 441.82 367.80 440.36 C 368.99 439.95 370.17 439.52 371.35 439.07 Z" fill="#456078" opacity="1.00" stroke="#456078" stroke-width="0.25"/>
<path d="M 341.85 447.98 C 350.69 449.17 359.32 451.63 368.18 452.75 C 366.67 453.03 365.18 453.40 363.71 453.80 C 356.22 453.22 348.27 451.15 341.85 447.98 Z" fill="#c6f0fc" opacity="1.00" stroke="#c6f0fc" stroke-width="0.25"/>
<path d="M 277.10 483.95 C 282.65 482.57 288.40 482.26 294.10 481.99 C 293.78 482.31 293.14 482.94 292.82 483.25 C 287.17 484.06 281.64 485.61 275.94 485.97 C 276.23 485.46 276.81 484.45 277.10 483.95 Z" fill="#cbf1fd" opacity="1.00" stroke="#cbf1fd" stroke-width="0.25"/>
<path d="M 189.89 482.94 C 215.44 487.59 241.38 492.53 267.42 491.60 C 266.18 491.54 277.34 489.97 272.97 492.04 C 245.70 496.64 217.97 491.95 191.66 484.39 C 191.22 484.03 190.34 483.30 189.89 482.94 Z" fill="#b5d5e2" opacity="1.00" stroke="#b5d5e2" stroke-width="0.25"/>
<path d="M 275.94 485.97 C 281.64 485.61 287.17 484.06 292.82 483.25 C 293.34 483.46 294.39 483.86 294.92 484.07 C 279.38 488.57 259.36 489.53 242.04 488.97 C 251.49 485.99 264.85 487.73 275.94 485.97 Z" fill="#aecfe0" opacity="1.00" stroke="#aecfe0" stroke-width="0.25"/>
<path d="M 239.98 484.00 C 250.65 484.03 261.32 483.91 271.99 484.03 C 263.94 485.18 248.01 486.37 239.98 484.00 Z" fill="#c5e4f3" opacity="1.00" stroke="#c5e4f3" stroke-width="0.25"/>
</svg>