<svg xmlns="http://www.w3.org/2000/svg" height="512pt" version="1.1" viewBox="0 0 512 512" width="512pt">

<path d="M 172.57 29.80 C 173.20 27.32 175.93 26.72 177.66 28.60 C 177.56 32.87 177.79 37.15 177.45 41.41 C 176.53 41.46 174.69 41.54 173.78 41.59 C 173.51 40.94 172.98 39.66 172.71 39.01 C 172.69 35.94 172.72 32.87 172.57 29.80 Z" fill="#f9ba1b" opacity="1.00" stroke="#f9ba1b" stroke-width="0.25" data-index="1"></path>
<path d="M 147.43 35.73 C 147.81 35.29 148.59 34.42 148.98 33.98 C 151.98 35.70 153.03 39.14 155.04 41.75 C 156.06 43.01 156.33 44.64 156.63 46.19 C 155.38 46.72 153.42 48.55 152.41 46.65 C 150.44 43.26 146.88 39.93 147.43 35.73 Z" fill="#f5b914" opacity="1.00" stroke="#f5b914" stroke-width="0.25" data-index="2"></path>
<path d="M 195.49 42.90 C 197.39 40.14 199.08 37.24 200.78 34.36 C 202.94 33.84 205.56 35.61 204.26 37.98 C 202.64 40.89 200.71 43.62 199.40 46.70 C 198.03 46.64 196.65 46.57 195.28 46.49 C 195.33 45.59 195.44 43.80 195.49 42.90 Z" fill="#fcbc14" opacity="1.00" stroke="#fcbc14" stroke-width="0.25" data-index="3"></path>
<path d="M 151.96 57.98 C 157.89 52.33 165.94 49.27 174.02 48.46 C 187.43 47.72 200.93 54.60 207.99 66.07 C 209.75 69.56 211.20 73.22 212.26 76.99 C 212.81 81.96 212.81 86.99 212.29 91.97 C 210.51 99.01 207.27 105.85 202.01 110.97 C 196.23 116.27 188.89 120.15 180.96 120.62 C 176.63 120.79 172.27 120.85 167.99 120.18 C 152.24 116.63 139.41 101.31 140.25 84.93 C 139.71 74.80 144.44 64.68 151.96 57.98 Z" fill="#ffbc0b" opacity="1.00" stroke="#ffbc0b" stroke-width="0.25" data-index="4"></path>
<path d="M 211.47 60.43 C 215.18 57.68 219.04 55.10 223.26 53.20 C 224.97 54.58 225.30 57.88 222.90 58.71 C 219.32 60.52 216.22 64.57 211.79 63.40 C 211.69 62.41 211.58 61.42 211.47 60.43 Z" fill="#f4b912" opacity="1.00" stroke="#f4b912" stroke-width="0.25" data-index="5"></path>
<path d="M 129.38 59.76 C 127.39 58.78 124.78 56.03 127.68 54.38 C 131.32 54.24 134.08 57.26 137.04 59.00 C 138.90 59.87 138.72 61.93 138.81 63.64 C 134.99 64.72 132.38 61.43 129.38 59.76 Z" fill="#feb610" opacity="1.00" stroke="#feb610" stroke-width="0.25" data-index="6"></path>
<path d="M 307.96 71.36 C 316.74 63.56 328.13 58.32 340.03 58.57 C 348.03 58.57 357.13 61.21 361.48 68.47 C 363.70 71.69 364.48 75.63 364.65 79.48 C 370.13 78.58 375.62 81.60 377.64 86.80 C 385.89 83.44 395.27 81.21 403.97 84.23 C 413.99 87.09 421.36 97.61 420.18 108.03 C 418.87 108.72 417.50 109.51 415.96 109.38 C 410.61 109.49 405.28 109.01 399.94 108.78 C 347.90 107.68 295.79 108.35 243.90 112.53 C 241.97 112.81 240.02 112.69 238.29 111.73 C 239.69 100.99 249.94 92.28 260.63 91.56 C 261.11 90.70 261.49 89.80 261.78 88.85 C 265.97 80.95 272.89 74.49 281.41 71.58 C 289.84 68.65 299.60 67.78 307.96 71.36 Z" fill="#073a60" opacity="1.00" stroke="#073a60" stroke-width="0.25" data-index="7"></path>
<path d="M 310.51 75.66 C 320.99 66.04 336.63 60.34 350.47 65.56 C 354.71 67.32 358.10 71.06 359.16 75.55 C 360.19 78.83 359.22 82.45 360.72 85.61 C 363.52 85.29 366.27 84.07 369.14 84.67 C 372.37 86.01 373.51 89.56 374.59 92.58 C 378.20 92.95 381.18 90.64 384.50 89.68 C 391.71 87.29 400.22 86.95 406.90 91.02 C 411.47 94.05 414.82 98.92 415.58 104.39 C 382.10 102.80 348.55 103.07 315.04 103.74 C 291.76 104.69 268.43 105.33 245.23 107.57 C 245.33 104.88 247.88 103.33 249.48 101.46 C 253.16 98.01 258.25 96.34 263.26 97.29 C 265.54 92.97 267.09 88.16 270.63 84.59 C 278.44 75.80 291.34 72.34 302.66 74.93 C 305.18 75.46 308.25 78.12 310.51 75.66 Z" fill="#ffffff" opacity="1.00" stroke="#ffffff" stroke-width="0.25" data-index="8"></path>
<path d="M 120.81 87.38 C 118.42 86.83 119.48 84.15 119.59 82.46 C 123.83 82.44 128.07 82.52 132.32 82.41 C 133.73 83.94 133.88 85.97 132.02 87.20 C 128.30 87.54 124.55 87.43 120.81 87.38 Z" fill="#fab818" opacity="1.00" stroke="#fab818" stroke-width="0.25" data-index="9"></path>
<path d="M 220.00 87.17 C 217.78 86.71 217.67 83.27 219.74 82.50 C 223.95 82.36 228.17 82.44 232.38 82.53 C 232.31 84.22 233.29 86.58 231.07 87.28 C 227.39 87.35 223.64 87.69 220.00 87.17 Z" fill="#fbb816" opacity="1.00" stroke="#fbb816" stroke-width="0.25" data-index="10"></path>
<path d="M 129.01 111.02 C 132.49 109.41 135.38 105.42 139.60 106.39 C 142.06 108.17 139.07 110.49 137.43 111.44 C 134.22 112.98 131.63 116.56 127.70 115.43 C 127.55 113.80 127.07 111.80 129.01 111.02 Z" fill="#feb913" opacity="1.00" stroke="#feb913" stroke-width="0.25" data-index="11"></path>
<path d="M 211.61 106.95 C 212.17 106.54 213.28 105.71 213.84 105.30 C 217.37 107.69 221.26 109.55 224.52 112.33 C 224.41 113.34 224.30 114.36 224.21 115.38 C 220.30 116.51 217.65 112.98 214.56 111.32 C 213.18 110.28 210.50 109.13 211.61 106.95 Z" fill="#f6b51a" opacity="1.00" stroke="#f6b51a" stroke-width="0.25" data-index="12"></path>
<path d="M 152.84 120.67 C 154.69 119.93 158.39 120.15 157.45 123.04 C 155.42 126.55 153.17 129.94 151.59 133.69 C 150.20 133.60 148.83 133.49 147.45 133.37 C 147.09 128.40 151.68 125.21 152.84 120.67 Z" fill="#f7b917" opacity="1.00" stroke="#f7b917" stroke-width="0.25" data-index="13"></path>
<path d="M 194.56 120.62 C 195.92 120.55 197.32 120.13 198.68 120.48 C 199.78 121.97 200.39 123.74 201.35 125.32 C 202.77 127.87 205.03 130.30 204.44 133.45 C 203.10 133.51 201.72 133.83 200.40 133.50 C 198.67 130.50 197.15 127.38 195.27 124.46 C 194.43 123.35 194.62 121.92 194.56 120.62 Z" fill="#f4b81c" opacity="1.00" stroke="#f4b81c" stroke-width="0.25" data-index="14"></path>
<path d="M 172.60 126.88 C 174.15 125.38 175.88 125.36 177.61 126.60 C 177.45 130.42 177.66 134.24 177.54 138.06 C 177.91 140.21 175.49 140.86 173.85 140.51 C 173.55 139.93 172.93 138.78 172.62 138.20 C 172.66 134.43 172.69 130.65 172.60 126.88 Z" fill="#f9b91f" opacity="1.00" stroke="#f9b91f" stroke-width="0.25" data-index="15"></path>

<path d="M 298.23 135.21 C 301.97 134.42 302.38 138.88 303.60 141.33 C 305.80 147.67 309.50 153.61 310.44 160.32 C 308.84 160.65 307.00 160.53 306.61 158.65 C 304.58 152.60 302.24 146.66 299.58 140.86 C 298.66 139.11 298.34 137.16 298.23 135.21 Z" fill="#eca780" opacity="1.00" stroke="#eca780" stroke-width="0.25" data-index="17" style="visibility: hidden; opacity: 1;"></path>
<path d="M 131.94 176.06 C 136.05 171.21 142.53 167.41 149.06 169.04 C 152.94 169.89 155.69 172.99 157.88 176.09 C 158.81 177.56 160.55 176.03 161.80 175.89 C 168.66 173.78 176.01 178.31 178.61 184.71 C 187.19 184.72 194.91 190.83 198.28 198.48 C 199.08 200.30 198.53 202.31 198.23 204.18 C 194.22 204.54 190.25 203.92 186.27 203.64 C 172.85 203.15 159.43 202.15 145.99 202.72 C 127.32 203.53 108.66 204.73 90.05 206.54 C 84.28 206.87 78.39 208.55 72.64 207.42 C 71.57 205.16 72.68 202.55 73.61 200.42 C 76.58 195.20 81.29 190.62 87.27 189.15 C 87.52 185.70 88.10 182.12 90.34 179.34 C 94.19 173.77 102.19 172.94 108.08 175.45 C 111.10 173.58 114.37 171.91 117.99 171.70 C 123.01 171.30 127.82 173.38 131.94 176.06 Z" fill="#073a5f" opacity="1.00" stroke="#073a5f" stroke-width="0.25" data-index="18"></path>

<path d="M 134.16 181.49 C 136.82 177.08 141.68 173.38 147.04 173.83 C 151.56 174.52 154.13 178.69 155.72 182.57 C 156.23 184.28 158.11 183.84 159.45 183.67 C 161.86 180.05 167.49 179.41 170.66 182.36 C 173.30 184.16 174.52 187.19 175.92 189.92 C 182.71 189.28 190.42 192.77 192.78 199.47 C 192.35 199.34 191.50 199.08 191.07 198.94 C 155.37 195.83 119.46 198.42 83.89 202.03 C 81.95 202.33 79.99 202.50 78.02 202.43 C 79.96 199.61 82.30 196.93 85.42 195.39 C 87.64 194.05 90.42 193.98 92.49 192.36 C 92.16 188.99 92.04 185.18 94.39 182.44 C 97.23 178.51 103.17 178.47 106.97 180.97 C 109.09 182.64 110.79 180.07 112.36 178.97 C 116.36 175.91 122.06 176.36 126.30 178.74 C 128.85 179.87 131.10 182.92 134.16 181.49 Z" fill="#feffff" opacity="1.00" stroke="#feffff" stroke-width="0.25" data-index="20"></path>
<path d="M 310.93 178.74 C 312.14 176.70 313.87 174.85 316.24 174.24 C 317.02 175.68 317.74 177.16 318.69 178.50 C 322.45 179.79 326.15 177.51 329.77 176.69 C 336.33 174.69 343.65 176.83 348.66 181.36 C 351.35 183.32 352.74 186.98 356.21 187.82 C 360.51 189.12 365.49 190.95 367.31 195.46 C 369.32 199.34 368.27 203.81 368.65 207.98 C 368.91 211.82 371.76 215.00 371.66 218.90 C 372.03 226.02 368.04 233.75 361.18 236.41 C 360.96 236.62 360.52 237.06 360.30 237.27 C 369.54 238.51 373.60 248.36 376.40 256.08 C 377.41 249.53 377.92 242.77 379.22 236.36 C 387.76 236.00 396.35 236.19 404.90 236.47 C 406.78 236.36 406.41 238.78 406.24 239.97 C 402.58 264.02 397.91 287.91 395.10 312.08 C 393.16 326.50 391.44 340.95 390.23 355.46 C 388.74 363.71 390.02 372.07 390.33 380.35 C 388.77 380.85 387.17 381.25 385.59 381.66 C 386.58 385.17 386.20 388.84 386.49 392.44 C 387.52 414.72 388.96 436.97 389.76 459.26 C 407.26 459.53 424.79 459.40 442.26 460.60 C 442.61 461.24 443.32 462.54 443.67 463.18 C 442.98 464.05 442.15 464.70 441.18 465.13 C 391.82 463.39 342.39 463.10 292.99 463.23 C 252.11 464.17 211.19 463.12 170.31 464.21 C 168.40 462.26 166.13 460.67 163.53 459.79 C 174.07 459.42 184.62 459.16 195.16 458.89 C 197.67 459.92 200.12 461.43 202.95 461.15 C 223.26 460.83 243.58 461.17 263.89 461.11 C 264.00 460.63 264.23 459.66 264.34 459.18 C 264.38 452.36 264.27 445.54 264.30 438.72 C 264.24 437.92 264.13 436.32 264.07 435.52 C 264.31 435.42 264.78 435.22 265.02 435.12 C 265.75 432.90 266.37 430.66 267.27 428.51 C 268.07 428.92 269.67 429.75 270.47 430.17 C 270.38 430.61 270.20 431.49 270.11 431.93 C 272.27 432.26 274.44 432.58 276.62 432.85 C 279.22 422.99 281.64 413.08 284.26 403.23 C 287.76 389.51 292.65 376.00 293.75 361.80 C 293.78 360.71 293.71 359.64 293.51 358.57 C 290.93 350.75 290.33 342.49 288.70 334.46 C 281.38 336.18 273.54 337.02 267.04 341.07 C 262.52 343.83 261.85 349.49 260.68 354.18 C 255.83 377.65 250.77 401.08 245.81 424.54 C 245.31 427.15 244.15 429.78 244.78 432.48 C 242.67 434.24 239.69 433.59 237.18 434.18 C 234.14 434.40 230.98 436.03 228.00 434.79 C 232.07 424.87 234.29 414.24 238.17 404.23 C 243.75 387.18 249.39 370.15 255.29 353.21 C 257.04 348.69 259.34 344.29 262.59 340.67 C 266.58 336.36 272.50 334.96 277.95 333.47 C 290.37 330.53 303.13 329.69 315.75 327.99 C 316.06 320.06 315.72 312.13 315.92 304.20 C 315.53 304.19 314.76 304.18 314.37 304.17 C 314.42 303.41 314.50 301.89 314.54 301.13 C 321.26 297.48 327.57 293.16 333.86 288.84 C 328.98 282.21 323.39 276.16 317.87 270.08 C 316.67 269.16 315.40 268.33 314.19 267.43 C 312.42 266.06 310.84 264.46 309.09 263.08 C 308.38 263.36 306.97 263.93 306.27 264.21 C 305.50 264.04 303.95 263.71 303.18 263.54 L 302.95 263.23 C 312.36 255.53 322.81 249.19 332.75 242.19 C 332.48 241.37 332.45 239.73 331.06 240.32 C 326.05 240.99 320.19 240.30 316.97 235.95 C 313.90 232.86 314.14 228.24 314.43 224.23 C 312.15 224.15 309.88 224.12 307.61 224.08 C 309.12 217.20 311.57 210.54 313.51 203.76 C 306.94 197.39 305.78 186.29 310.93 178.74 Z" fill="#073a5e" opacity="1.00" stroke="#073a5e" stroke-width="0.25" data-index="21" style="opacity: 1;"></path>
<path d="M 328.06 180.60 C 332.64 179.26 337.88 178.54 342.28 180.87 C 347.59 182.94 349.43 189.45 354.94 191.24 C 358.54 192.46 362.71 193.89 364.26 197.74 C 365.23 202.14 363.82 206.85 365.64 211.13 C 367.58 215.58 368.58 220.60 367.29 225.39 C 365.42 230.94 358.84 235.70 353.06 232.91 C 351.03 230.65 347.18 228.99 347.43 225.53 C 352.07 222.25 353.16 216.20 351.74 210.96 C 351.44 208.02 348.44 206.65 346.03 205.73 C 343.32 205.08 340.49 205.73 337.75 205.35 C 337.67 203.05 337.14 200.70 335.18 199.28 C 329.93 202.98 323.08 203.51 317.06 201.55 C 314.81 200.44 313.14 198.37 311.77 196.33 C 311.10 192.64 311.28 188.84 311.52 185.13 C 311.55 183.17 312.80 181.48 314.27 180.29 C 316.30 180.55 317.83 182.37 319.92 182.51 C 322.81 182.94 325.38 181.35 328.06 180.60 Z" fill="#634441" opacity="1.00" stroke="#634441" stroke-width="0.25" data-index="22" style="opacity: 1;"></path>
<path d="M 315.86 205.34 C 322.09 205.92 328.70 206.55 334.38 203.33 C 335.10 206.63 334.87 209.99 333.47 213.07 C 333.89 213.48 334.71 214.29 335.12 214.69 C 337.00 213.08 338.58 211.16 340.40 209.48 C 341.48 209.44 342.56 209.42 343.65 209.39 C 344.57 210.49 345.49 211.59 346.43 212.69 C 346.55 215.52 347.13 218.75 344.97 221.03 C 343.50 223.42 340.42 223.26 337.98 223.29 C 337.56 226.94 341.35 226.51 343.76 227.34 C 346.07 230.04 348.58 232.84 349.70 236.29 C 344.99 236.16 340.45 237.62 336.34 239.82 C 335.36 237.85 334.70 235.66 333.07 234.10 C 329.23 240.64 318.46 236.93 317.49 230.08 C 317.18 227.21 317.43 224.33 317.66 221.47 C 315.84 220.81 313.93 220.56 312.01 220.56 C 313.29 215.49 314.87 210.48 315.86 205.34 Z" fill="#fdc5aa" opacity="1.00" stroke="#fdc5aa" stroke-width="0.25" data-index="23" style="opacity: 1;"></path>
<path d="M 319.77 208.70 C 320.91 207.63 322.39 209.07 323.50 209.52 C 323.45 210.80 323.40 212.08 323.36 213.37 C 322.79 213.62 321.64 214.11 321.07 214.36 C 320.47 214.01 319.26 213.32 318.66 212.97 C 318.73 211.47 318.32 209.70 319.77 208.70 Z" fill="#133c56" opacity="1.00" stroke="#133c56" stroke-width="0.25" data-index="24" style="opacity: 1;"></path>

<path d="M 321.84 227.98 C 323.51 228.04 326.44 224.88 326.54 228.14 C 326.83 231.00 323.48 230.54 321.61 230.53 C 321.68 229.68 321.76 228.82 321.84 227.98 Z" fill="#25293e" opacity="1.00" stroke="#25293e" stroke-width="0.25" data-index="26"></path>
<path d="M 249.37 234.38 C 253.54 235.81 259.43 237.39 259.73 242.72 C 259.22 242.74 258.21 242.76 257.70 242.78 C 256.76 240.12 254.17 238.93 251.91 237.63 C 251.29 237.55 250.05 237.38 249.43 237.30 C 249.40 236.32 249.38 235.35 249.37 234.38 Z" fill="#002442" opacity="1.00" stroke="#002442" stroke-width="0.25" data-index="27"></path>
<path d="M 334.94 243.75 C 339.47 241.08 344.66 239.24 349.99 239.53 C 355.49 239.61 361.74 239.93 365.86 244.09 C 369.20 247.93 370.19 253.13 371.08 257.99 C 372.13 266.56 373.25 275.24 372.57 283.88 C 369.42 303.54 367.00 323.32 363.50 342.92 C 349.12 337.72 334.47 333.28 319.76 329.12 C 319.39 322.07 319.60 315.01 319.64 307.95 C 319.41 305.30 322.32 304.39 323.95 302.97 C 328.31 299.41 332.62 295.77 336.86 292.06 C 338.15 293.75 339.34 298.10 342.11 296.31 C 350.71 287.98 360.61 280.50 366.44 269.79 C 366.16 267.82 363.38 267.89 362.74 269.54 C 357.20 278.73 348.69 285.45 341.08 292.80 C 334.17 283.25 326.31 274.40 318.37 265.68 C 325.91 259.40 333.10 252.67 341.18 247.06 C 341.30 246.65 341.54 245.84 341.66 245.43 C 336.39 244.52 333.04 249.87 329.37 252.76 C 330.34 249.37 331.60 245.51 334.94 243.75 Z" fill="#78e6ff" opacity="1.00" stroke="#78e6ff" stroke-width="0.25" data-index="28" style="opacity: 1;"></path>
<path d="M 378.21 265.10 C 379.42 256.57 380.31 248.00 381.61 239.48 C 384.68 239.64 387.76 239.62 390.82 239.98 C 389.52 252.43 386.83 264.70 385.31 277.13 C 385.10 276.26 384.68 274.52 384.47 273.65 C 383.24 277.89 383.51 282.35 382.66 286.66 C 379.76 301.75 377.90 317.01 375.45 332.17 C 375.45 338.81 372.19 345.22 373.70 351.89 C 373.64 355.12 373.08 358.31 372.34 361.45 C 369.69 361.41 367.04 361.42 364.40 361.46 C 365.47 353.92 366.96 346.44 367.72 338.86 C 367.75 338.58 367.82 338.02 367.85 337.73 C 369.10 330.37 369.79 322.93 371.24 315.60 C 371.29 317.10 371.37 318.59 371.46 320.09 C 372.33 316.06 372.33 311.93 372.26 307.84 L 372.31 307.41 C 375.58 303.99 374.72 298.77 374.27 294.50 L 374.28 294.40 C 377.33 290.79 377.45 285.41 376.22 281.05 C 376.52 275.69 377.72 270.44 378.21 265.10 Z" fill="#efdd16" opacity="1.00" stroke="#efdd16" stroke-width="0.25" data-index="29"></path>
<path d="M 394.41 240.27 C 397.19 240.27 399.96 240.27 402.74 240.32 C 400.46 260.61 396.34 280.64 393.65 300.87 C 392.05 309.51 392.06 318.35 390.61 327.01 C 389.68 336.35 388.52 345.65 387.52 354.98 C 387.10 357.04 388.06 359.86 386.57 361.46 C 383.13 361.72 379.67 361.44 376.23 361.56 C 376.27 359.68 376.25 357.79 376.50 355.93 C 379.26 340.58 380.90 325.05 383.68 309.71 C 387.28 286.57 390.50 263.36 394.41 240.27 Z" fill="#797333" opacity="1.00" stroke="#797333" stroke-width="0.25" data-index="30"></path>
<path d="M 240.65 241.50 C 241.20 241.42 242.31 241.26 242.87 241.18 C 243.29 241.49 244.14 242.11 244.57 242.41 C 246.00 242.06 247.84 241.78 248.66 243.37 C 252.42 248.08 254.34 253.89 256.97 259.24 C 258.14 261.61 260.39 263.25 262.77 264.29 C 263.00 260.67 262.68 256.66 258.96 254.90 C 260.95 252.59 264.18 254.57 265.11 256.86 C 266.20 259.84 266.28 263.07 265.73 266.18 C 271.42 268.85 277.29 272.48 283.86 271.62 C 290.66 270.90 296.36 266.85 302.13 263.59 L 303.18 263.54 C 303.95 263.71 305.50 264.04 306.27 264.21 C 297.12 271.13 285.29 277.95 273.55 273.48 C 272.75 275.01 271.96 276.54 271.17 278.08 C 276.18 280.67 280.56 286.24 286.82 284.47 C 293.98 282.55 300.34 278.41 306.43 274.29 C 309.22 272.26 312.48 270.58 314.19 267.43 C 315.40 268.33 316.67 269.16 317.87 270.08 C 313.46 272.44 309.93 276.08 305.66 278.65 C 299.24 282.67 292.63 287.06 284.99 288.21 C 277.87 288.93 273.34 282.27 267.11 280.07 C 264.80 284.30 262.53 288.56 260.12 292.73 C 266.65 298.31 273.18 304.22 281.06 307.86 C 292.49 311.61 304.54 306.62 314.54 301.13 C 314.50 301.89 314.42 303.41 314.37 304.17 L 314.28 305.01 C 304.19 310.35 292.30 314.92 280.86 311.35 C 272.62 308.30 266.31 301.88 259.36 296.75 C 251.46 291.97 243.98 286.52 235.94 281.96 C 231.32 279.40 226.59 276.06 221.03 276.55 C 214.34 277.25 207.16 276.40 201.45 272.64 C 199.00 271.24 198.98 268.28 200.07 266.01 C 199.70 265.49 198.97 264.44 198.60 263.92 C 199.41 262.64 200.17 261.14 201.79 260.76 C 209.05 258.33 216.60 261.51 224.00 261.28 C 227.35 261.20 230.76 260.02 234.08 261.04 C 235.83 261.56 237.19 262.84 238.67 263.84 C 238.01 259.67 235.80 255.95 234.63 251.92 C 235.19 251.26 235.77 250.63 236.38 250.03 C 236.18 247.88 236.49 244.99 239.32 245.07 C 239.77 243.88 240.21 242.68 240.65 241.50 Z" fill="#093958" opacity="1.00" stroke="#093958" stroke-width="0.25" data-index="31" style="opacity: 1;"></path>
<path d="M 242.08 244.05 C 243.23 244.37 244.50 244.65 245.12 245.82 C 248.49 250.36 251.08 255.41 253.61 260.46 C 254.77 262.66 254.74 265.45 253.55 267.64 C 250.36 265.55 246.47 266.98 242.95 266.39 C 241.51 265.34 241.46 263.46 240.99 261.92 C 240.40 259.42 239.11 257.17 238.29 254.76 C 239.15 254.67 240.88 254.49 241.75 254.40 C 240.57 252.30 239.37 250.15 239.03 247.72 C 241.63 248.39 242.50 251.20 244.14 253.01 C 246.32 249.77 242.40 247.20 242.08 244.05 Z" fill="#b7867e" opacity="1.00" stroke="#b7867e" stroke-width="0.25" data-index="32"></path>
<path d="M 249.93 264.92 C 246.51 265.71 242.63 261.48 245.00 258.50 L 245.89 258.63 C 246.67 261.20 250.04 262.00 249.93 264.92 Z" fill="#1f3241" opacity="1.00" stroke="#1f3241" stroke-width="0.25" data-index="33"></path>
<path d="M 107.69 263.13 C 107.92 261.34 110.04 261.53 111.34 261.43 C 111.55 261.84 111.97 262.66 112.18 263.06 C 116.22 272.31 119.54 281.88 124.25 290.83 C 128.35 300.26 134.07 308.86 138.80 317.96 C 140.07 320.80 141.42 323.78 141.33 326.97 C 141.36 335.98 140.48 344.96 140.56 353.97 C 140.95 353.53 141.36 353.10 141.77 352.67 C 146.00 348.85 150.54 345.16 153.92 340.55 C 154.90 338.16 154.90 335.54 155.00 333.00 C 155.85 334.09 156.71 335.16 157.56 336.26 L 157.68 337.01 C 160.17 334.89 162.40 332.49 164.66 330.13 C 164.31 325.93 164.10 321.72 164.32 317.51 C 165.06 317.30 166.53 316.87 167.27 316.65 C 167.73 319.49 168.16 322.33 168.55 325.18 C 175.65 318.20 180.83 309.48 186.14 301.11 L 186.73 300.47 C 187.38 300.42 188.68 300.33 189.33 300.29 C 189.58 301.91 189.41 303.45 188.82 304.92 C 188.70 305.24 188.46 305.89 188.34 306.21 C 186.48 308.17 185.01 310.44 183.70 312.80 C 178.01 321.59 171.59 329.93 164.08 337.26 C 167.67 337.46 171.23 337.92 174.80 338.37 L 175.07 339.01 C 175.11 339.46 175.21 340.37 175.25 340.82 C 170.53 342.14 165.52 341.71 160.79 340.68 C 158.12 343.22 155.54 345.85 152.89 348.42 C 155.38 348.79 157.89 349.10 160.32 349.78 C 161.08 351.44 160.64 352.46 159.00 352.85 C 156.06 353.48 153.10 352.17 150.13 352.24 C 147.09 353.83 145.19 356.91 142.64 359.14 C 141.91 359.61 141.17 360.07 140.42 360.50 C 139.87 371.22 139.19 381.93 139.07 392.67 C 151.77 392.87 164.47 392.55 177.16 392.03 C 177.46 392.51 178.06 393.46 178.36 393.93 C 176.17 402.56 174.53 411.35 171.86 419.85 C 171.17 421.02 170.42 422.14 169.67 423.28 C 169.58 422.80 169.40 421.85 169.31 421.37 C 169.97 412.68 173.51 404.48 175.00 395.90 C 166.31 395.62 157.61 395.77 148.92 396.13 C 132.65 396.25 116.38 396.65 100.11 396.43 C 102.07 405.08 104.43 413.66 105.97 422.41 C 105.33 422.58 104.03 422.93 103.38 423.11 C 102.01 416.80 100.27 410.58 98.97 404.26 C 98.26 400.74 96.78 397.25 97.52 393.61 C 109.54 392.83 121.66 393.83 133.67 392.81 C 133.61 391.50 133.55 390.21 133.48 388.92 C 132.26 387.93 131.15 386.82 130.15 385.61 C 119.09 385.27 108.00 380.77 100.45 372.57 C 95.05 366.96 91.69 359.64 89.94 352.11 C 88.68 348.00 87.86 343.68 88.45 339.37 C 89.68 339.47 91.08 339.08 92.15 339.86 C 96.76 342.92 101.04 346.50 105.84 349.27 C 113.89 353.78 122.74 357.96 128.10 365.81 C 132.18 370.98 133.44 377.73 133.50 384.16 C 133.71 384.02 134.13 383.72 134.34 383.57 C 134.85 365.71 135.82 347.84 136.32 329.97 C 136.64 325.53 134.83 321.22 132.25 317.68 C 130.02 314.45 128.47 310.82 126.36 307.54 C 122.74 305.68 118.87 304.30 115.35 302.22 C 115.79 301.05 116.24 299.88 116.69 298.71 C 118.71 299.59 120.78 300.33 122.90 300.93 C 121.24 297.26 119.90 293.44 118.05 289.86 C 115.93 287.37 112.16 286.76 110.36 283.91 C 110.24 280.89 113.40 281.82 114.99 282.89 C 112.94 276.17 109.86 269.81 107.69 263.13 Z" fill="#053b5b" opacity="1.00" stroke="#053b5b" stroke-width="0.25" data-index="34"></path>
<path d="M 203.99 262.58 C 211.36 262.70 218.64 264.38 226.03 264.25 C 229.15 264.24 232.35 263.47 235.40 264.50 C 228.35 264.72 221.29 264.22 214.25 264.61 C 210.98 264.74 207.80 263.71 204.58 263.28 C 204.44 263.11 204.14 262.75 203.99 262.58 Z" fill="#ffffff" opacity="1.00" stroke="#ffffff" stroke-width="0.25" data-index="35"></path>
<path d="M 106.31 271.56 C 106.24 268.67 107.41 265.97 107.69 263.13 C 109.86 269.81 112.94 276.17 114.99 282.89 C 113.40 281.82 110.24 280.89 110.36 283.91 C 112.16 286.76 115.93 287.37 118.05 289.86 C 119.90 293.44 121.24 297.26 122.90 300.93 C 120.78 300.33 118.71 299.59 116.69 298.71 C 116.24 299.88 115.79 301.05 115.35 302.22 C 118.87 304.30 122.74 305.68 126.36 307.54 C 128.47 310.82 130.02 314.45 132.25 317.68 C 130.62 317.65 128.97 317.51 127.55 316.65 C 121.60 313.60 115.23 310.35 111.54 304.51 C 104.52 295.12 105.33 282.61 106.31 271.56 Z" fill="#81d346" opacity="1.00" stroke="#81d346" stroke-width="0.25" data-index="36"></path>
<path d="M 112.18 263.06 C 118.11 269.12 123.26 275.89 129.34 281.83 C 137.96 289.38 140.81 301.79 139.08 312.80 C 138.38 314.45 138.32 316.22 138.80 317.96 C 134.07 308.86 128.35 300.26 124.25 290.83 C 119.54 281.88 116.22 272.31 112.18 263.06 Z" fill="#80d444" opacity="1.00" stroke="#80d444" stroke-width="0.25" data-index="37"></path>
<path d="M 214.25 264.61 C 221.29 264.22 228.35 264.72 235.40 264.50 C 237.96 267.73 241.89 269.31 245.93 269.65 C 244.22 273.33 241.74 276.56 239.62 280.00 C 235.26 278.36 231.45 275.53 227.05 274.01 C 220.73 272.06 212.95 276.25 207.60 271.22 C 209.97 271.33 212.35 271.49 214.73 271.62 C 214.74 271.02 214.76 269.81 214.77 269.20 C 211.59 268.49 208.32 268.33 205.10 267.80 C 208.42 266.45 212.17 268.09 215.42 266.55 C 215.13 266.06 214.54 265.10 214.25 264.61 Z" fill="#fdc7ab" opacity="1.00" stroke="#fdc7ab" stroke-width="0.25" data-index="38"></path>
<path d="M 306.27 264.21 C 306.97 263.93 308.38 263.36 309.09 263.08 C 310.84 264.46 312.42 266.06 314.19 267.43 C 312.48 270.58 309.22 272.26 306.43 274.29 C 300.34 278.41 293.98 282.55 286.82 284.47 C 280.56 286.24 276.18 280.67 271.17 278.08 C 271.96 276.54 272.75 275.01 273.55 273.48 C 285.29 277.95 297.12 271.13 306.27 264.21 Z" fill="#b6847b" opacity="1.00" stroke="#b6847b" stroke-width="0.25" data-index="39" style="opacity: 1;"></path>
<path d="M 377.06 264.38 L 378.21 265.10 C 377.72 270.44 376.52 275.69 376.22 281.05 C 375.38 285.47 374.54 289.90 374.28 294.40 L 374.27 294.50 C 373.31 298.75 372.74 303.07 372.31 307.41 L 372.26 307.84 C 371.81 310.41 371.46 313.00 371.24 315.60 C 369.79 322.93 369.10 330.37 367.85 337.73 C 366.28 332.92 367.67 327.85 369.06 323.19 C 369.21 319.19 369.26 315.17 370.35 311.28 C 371.03 305.83 370.99 300.28 372.65 294.99 C 374.08 284.79 375.72 274.60 377.06 264.38 Z" fill="#1b3e37" opacity="1.00" stroke="#1b3e37" stroke-width="0.25" data-index="40"></path>
<path d="M 259.44 267.40 C 261.20 267.23 262.76 268.36 264.38 268.87 C 264.55 270.41 264.35 271.94 263.95 273.43 C 261.92 272.78 260.07 271.75 258.27 270.63 C 258.63 269.55 258.66 268.30 259.44 267.40 Z" fill="#82d25d" opacity="1.00" stroke="#82d25d" stroke-width="0.25" data-index="41"></path>
<path d="M 305.66 278.65 C 309.93 276.08 313.46 272.44 317.87 270.08 C 323.39 276.16 328.98 282.21 333.86 288.84 C 327.57 293.16 321.26 297.48 314.54 301.13 C 304.54 306.62 292.49 311.61 281.06 307.86 C 273.18 304.22 266.65 298.31 260.12 292.73 C 262.53 288.56 264.80 284.30 267.11 280.07 C 273.34 282.27 277.87 288.93 284.99 288.21 C 292.63 287.06 299.24 282.67 305.66 278.65 Z" fill="#ffc6a9" opacity="1.00" stroke="#ffc6a9" stroke-width="0.25" data-index="42" style="opacity: 1;"></path>
<path d="M 251.08 270.36 C 255.32 272.59 259.48 275.01 263.56 277.54 C 263.65 277.86 263.82 278.49 263.91 278.81 C 261.91 282.95 259.41 286.84 257.25 290.90 C 253.23 288.57 249.14 286.34 245.35 283.65 C 244.72 282.35 245.75 281.04 246.16 279.86 C 247.68 276.63 249.48 273.54 251.08 270.36 Z" fill="#80d442" opacity="1.00" stroke="#80d442" stroke-width="0.25" data-index="43"></path>
<path d="M 382.66 286.66 C 383.51 282.35 383.24 277.89 384.47 273.65 C 384.68 274.52 385.10 276.26 385.31 277.13 C 384.79 280.82 384.34 284.53 383.61 288.19 C 383.10 289.94 382.81 291.75 382.79 293.59 C 382.74 294.09 382.64 295.10 382.59 295.60 C 381.25 303.73 379.98 311.88 378.78 320.03 C 378.33 323.09 377.88 326.15 377.36 329.20 C 376.17 335.53 375.50 341.95 374.60 348.32 C 374.41 349.82 374.24 351.33 374.04 352.84 L 373.70 351.89 C 372.19 345.22 375.45 338.81 375.45 332.17 C 377.90 317.01 379.76 301.75 382.66 286.66 Z" fill="#cdd146" opacity="1.00" stroke="#cdd146" stroke-width="0.25" data-index="44"></path>
<path d="M 242.07 281.11 C 242.69 278.72 243.72 276.31 245.92 274.96 C 245.39 277.32 244.78 280.39 242.07 281.11 Z" fill="#265a7f" opacity="1.00" stroke="#265a7f" stroke-width="0.25" data-index="45"></path>
<path d="M 374.28 294.40 C 374.54 289.90 375.38 285.47 376.22 281.05 C 377.45 285.41 377.33 290.79 374.28 294.40 Z" fill="#e4e040" opacity="1.00" stroke="#e4e040" stroke-width="0.25" data-index="46"></path>
<path d="M 382.79 293.59 C 382.81 291.75 383.10 289.94 383.61 288.19 C 384.88 289.51 385.00 293.40 382.79 293.59 Z" fill="#4d6622" opacity="1.00" stroke="#4d6622" stroke-width="0.25" data-index="47"></path>
<path d="M 372.31 307.41 C 372.74 303.07 373.31 298.75 374.27 294.50 C 374.72 298.77 375.58 303.99 372.31 307.41 Z" fill="#d9d84f" opacity="1.00" stroke="#d9d84f" stroke-width="0.25" data-index="48"></path>
<path d="M 378.78 320.03 C 379.98 311.88 381.25 303.73 382.59 295.60 C 382.75 296.18 383.07 297.35 383.22 297.93 C 382.08 301.93 382.75 306.19 381.47 310.16 C 380.36 313.44 380.31 316.92 380.10 320.34 L 378.78 320.03 Z" fill="#1b3e37" opacity="1.00" stroke="#1b3e37" stroke-width="0.25" data-index="49"></path>
<path d="M 176.39 308.40 C 179.69 306.04 182.57 303.08 186.14 301.11 C 180.83 309.48 175.65 318.20 168.55 325.18 C 168.16 322.33 167.73 319.49 167.27 316.65 C 167.14 315.56 167.10 314.45 167.08 313.36 C 170.06 311.47 173.39 310.25 176.39 308.40 Z" fill="#7ed047" opacity="1.00" stroke="#7ed047" stroke-width="0.25" data-index="50"></path>
<path d="M 183.70 312.80 C 185.01 310.44 186.48 308.17 188.34 306.21 C 188.96 309.78 187.55 313.22 186.81 316.65 C 184.59 323.59 183.32 330.95 179.56 337.30 C 178.73 338.64 178.06 340.53 176.26 340.74 C 175.96 340.30 175.37 339.44 175.07 339.01 L 174.80 338.37 C 171.23 337.92 167.67 337.46 164.08 337.26 C 171.59 329.93 178.01 321.59 183.70 312.80 Z" fill="#7fd341" opacity="1.00" stroke="#7fd341" stroke-width="0.25" data-index="51"></path>
<path d="M 371.24 315.60 C 371.46 313.00 371.81 310.41 372.26 307.84 C 372.33 311.93 372.33 316.06 371.46 320.09 C 371.37 318.59 371.29 317.10 371.24 315.60 Z" fill="#fdc7ab" opacity="1.00" stroke="#fdc7ab" stroke-width="0.25" data-index="52"></path>
<path d="M 156.62 318.99 C 160.17 317.23 163.28 314.57 167.08 313.36 C 167.10 314.45 167.14 315.56 167.27 316.65 C 166.53 316.87 165.06 317.30 164.32 317.51 C 164.10 321.72 164.31 325.93 164.66 330.13 C 162.40 332.49 160.17 334.89 157.68 337.01 L 157.56 336.26 C 157.37 334.28 157.17 332.30 156.80 330.34 C 156.10 330.33 154.68 330.30 153.98 330.29 C 153.18 333.67 153.32 337.15 153.92 340.55 C 150.54 345.16 146.00 348.85 141.77 352.67 C 140.91 347.71 142.31 342.73 143.37 337.92 C 144.91 330.08 150.40 323.68 156.62 318.99 Z" fill="#81d443" opacity="1.00" stroke="#81d443" stroke-width="0.25" data-index="53"></path>
<path d="M 153.98 330.29 C 154.68 330.30 156.10 330.33 156.80 330.34 C 157.17 332.30 157.37 334.28 157.56 336.26 C 156.71 335.16 155.85 334.09 155.00 333.00 C 154.90 335.54 154.90 338.16 153.92 340.55 C 153.32 337.15 153.18 333.67 153.98 330.29 Z" fill="#0e4b36" opacity="1.00" stroke="#0e4b36" stroke-width="0.25" data-index="54"></path>
<path d="M 374.60 348.32 C 375.50 341.95 376.17 335.53 377.36 329.20 C 377.54 329.90 377.90 331.28 378.07 331.97 C 377.31 336.96 376.52 341.94 375.90 346.95 C 375.57 347.29 374.92 347.98 374.60 348.32 Z" fill="#31512b" opacity="1.00" stroke="#31512b" stroke-width="0.25" data-index="55"></path>
<path d="M 309.98 331.86 C 313.02 331.53 316.19 331.02 319.20 331.83 C 323.60 333.44 328.15 334.58 332.52 336.30 C 342.68 339.88 352.73 343.78 362.66 347.95 C 362.72 350.43 362.67 352.92 362.24 355.37 L 361.71 356.27 C 361.38 356.20 360.73 356.06 360.40 355.99 C 360.87 353.80 362.23 351.36 360.97 349.21 C 357.11 346.71 352.61 345.42 348.39 343.65 C 337.81 339.36 326.97 335.66 316.03 332.52 C 309.54 332.87 303.22 334.80 296.68 334.85 C 296.44 337.46 296.41 340.12 297.17 342.67 C 298.54 347.49 298.92 352.51 299.23 357.49 L 298.44 358.16 C 297.15 351.82 296.36 345.40 295.09 339.06 C 294.90 337.39 294.08 335.56 294.83 333.93 C 299.72 332.36 304.95 332.69 309.98 331.86 Z" fill="#a9584e" opacity="1.00" stroke="#a9584e" stroke-width="0.25" data-index="56" style="opacity: 1;"></path>
<path d="M 296.68 334.85 C 303.22 334.80 309.54 332.87 316.03 332.52 C 326.97 335.66 337.81 339.36 348.39 343.65 C 352.61 345.42 357.11 346.71 360.97 349.21 C 362.23 351.36 360.87 353.80 360.40 355.99 C 360.73 356.06 361.38 356.20 361.71 356.27 L 362.06 356.57 C 360.42 357.21 358.71 357.59 356.96 357.75 L 356.09 358.32 C 342.75 359.30 329.35 358.64 315.98 358.44 C 310.40 358.18 304.72 358.76 299.23 357.49 C 298.92 352.51 298.54 347.49 297.17 342.67 C 296.41 340.12 296.44 337.46 296.68 334.85 Z" fill="#f2542f" opacity="1.00" stroke="#f2542f" stroke-width="0.25" data-index="57" style="opacity: 1;"></path>
<path d="M 267.04 341.07 C 273.54 337.02 281.38 336.18 288.70 334.46 C 290.33 342.49 290.93 350.75 293.51 358.57 C 289.60 360.17 287.54 364.11 286.80 368.07 C 285.41 375.47 285.19 383.17 282.35 390.24 C 277.59 403.10 272.60 415.88 267.27 428.51 C 266.37 430.66 265.75 432.90 265.02 435.12 C 264.78 435.22 264.31 435.42 264.07 435.52 C 257.65 434.49 251.30 432.70 244.78 432.48 C 244.15 429.78 245.31 427.15 245.81 424.54 C 250.77 401.08 255.83 377.65 260.68 354.18 C 261.85 349.49 262.52 343.83 267.04 341.07 Z" fill="#fec6a9" opacity="1.00" stroke="#fec6a9" stroke-width="0.25" data-index="58"></path>
<path d="M 332.52 336.30 C 334.70 335.45 336.87 336.61 338.91 337.27 C 346.83 340.23 354.61 343.54 362.48 346.59 C 362.68 347.04 363.08 347.93 363.28 348.37 C 363.50 350.75 363.82 353.36 362.24 355.37 C 362.67 352.92 362.72 350.43 362.66 347.95 C 352.73 343.78 342.68 339.88 332.52 336.30 Z" fill="#25293e" opacity="1.00" stroke="#25293e" stroke-width="0.25" data-index="59"></path>
<path d="M 364.93 348.61 C 365.79 345.48 364.73 340.83 367.72 338.86 C 366.96 346.44 365.47 353.92 364.40 361.46 C 367.04 361.42 369.69 361.41 372.34 361.45 C 373.08 358.31 373.64 355.12 373.70 351.89 L 374.04 352.84 C 375.07 355.47 374.24 358.39 374.32 361.14 C 370.88 362.85 366.94 362.77 363.30 361.86 C 363.11 360.10 363.63 357.83 362.06 356.57 L 361.71 356.27 L 362.24 355.37 C 363.82 353.36 363.50 350.75 363.28 348.37 C 363.70 348.43 364.52 348.55 364.93 348.61 Z" fill="#1b3e37" opacity="1.00" stroke="#1b3e37" stroke-width="0.25" data-index="60"></path>
<path d="M 152.89 348.42 C 155.54 345.85 158.12 343.22 160.79 340.68 C 165.52 341.71 170.53 342.14 175.25 340.82 C 175.55 341.35 176.14 342.41 176.44 342.94 C 169.43 354.23 155.70 360.37 142.64 359.14 C 145.19 356.91 147.09 353.83 150.13 352.24 C 153.10 352.17 156.06 353.48 159.00 352.85 C 160.64 352.46 161.08 351.44 160.32 349.78 C 157.89 349.10 155.38 348.79 152.89 348.42 Z" fill="#7fd147" opacity="1.00" stroke="#7fd147" stroke-width="0.25" data-index="61"></path>
<path d="M 94.80 345.92 C 97.58 346.52 99.73 348.45 102.08 349.92 C 107.68 353.79 114.18 356.22 119.45 360.59 C 125.91 365.54 130.87 373.29 130.57 381.65 C 126.93 378.74 123.05 376.15 119.50 373.13 C 119.63 370.54 119.89 367.92 119.41 365.36 C 119.35 363.93 117.50 364.45 116.57 364.18 C 116.37 366.10 116.12 368.00 115.80 369.91 C 107.59 363.13 100.26 355.06 94.80 345.92 Z" fill="#7ed245" opacity="1.00" stroke="#7ed245" stroke-width="0.25" data-index="62"></path>
<path d="M 93.15 351.85 C 94.65 352.68 95.42 354.26 96.42 355.58 C 104.09 366.36 114.38 374.86 124.85 382.77 C 121.27 381.37 117.39 380.83 113.92 379.11 C 103.05 374.28 94.63 363.71 93.15 351.85 Z" fill="#78ce48" opacity="1.00" stroke="#78ce48" stroke-width="0.25" data-index="63"></path>
<path d="M 293.51 358.57 C 293.71 359.64 293.78 360.71 293.75 361.80 C 288.82 367.76 289.31 375.73 287.74 382.88 C 286.70 388.23 284.86 393.38 282.85 398.43 C 278.71 409.01 274.39 419.51 270.47 430.17 C 269.67 429.75 268.07 428.92 267.27 428.51 C 272.60 415.88 277.59 403.10 282.35 390.24 C 285.19 383.17 285.41 375.47 286.80 368.07 C 287.54 364.11 289.60 360.17 293.51 358.57 Z" fill="#0e3554" opacity="1.00" stroke="#0e3554" stroke-width="0.25" data-index="64"></path>
<path d="M 287.74 382.88 C 289.31 375.73 288.82 367.76 293.75 361.80 C 292.65 376.00 287.76 389.51 284.26 403.23 C 283.82 401.61 283.33 400.02 282.85 398.43 C 284.86 393.38 286.70 388.23 287.74 382.88 Z" fill="#a58c8e" opacity="1.00" stroke="#a58c8e" stroke-width="0.25" data-index="65"></path>
<path d="M 300.21 364.60 C 299.95 362.40 302.76 363.39 304.01 363.08 C 324.66 363.11 345.32 362.79 365.95 363.62 C 372.28 363.77 378.62 363.38 384.94 363.80 C 388.07 368.00 385.94 373.98 384.18 378.44 L 384.19 377.22 C 384.21 373.68 384.79 370.17 384.89 366.64 C 384.87 366.23 384.84 365.42 384.82 365.01 C 375.55 364.64 366.25 364.91 356.97 364.72 C 338.05 364.48 319.12 363.93 300.21 364.60 Z" fill="#1b3e37" opacity="1.00" stroke="#1b3e37" stroke-width="0.25" data-index="66"></path>
<path d="M 300.21 364.60 C 319.12 363.93 338.05 364.48 356.97 364.72 C 366.25 364.91 375.55 364.64 384.82 365.01 C 384.84 365.42 384.87 366.23 384.89 366.64 C 366.26 365.89 347.58 367.08 328.97 365.68 C 319.68 365.55 310.38 365.68 301.12 366.39 C 300.73 369.80 300.48 373.22 300.17 376.63 C 302.39 377.22 304.69 377.39 306.99 377.32 C 332.54 377.04 358.08 377.40 383.63 377.22 L 383.84 378.59 C 355.49 378.75 327.13 378.53 298.78 378.47 C 298.73 374.53 298.87 370.59 299.41 366.69 C 299.49 366.17 299.63 365.14 299.71 364.63 L 300.21 364.60 Z" fill="#d1d74d" opacity="1.00" stroke="#d1d74d" stroke-width="0.25" data-index="67"></path>
<path d="M 301.12 366.39 C 310.38 365.68 319.68 365.55 328.97 365.68 C 347.58 367.08 366.26 365.89 384.89 366.64 C 384.79 370.17 384.21 373.68 384.19 377.22 L 383.63 377.22 C 358.08 377.40 332.54 377.04 306.99 377.32 C 304.69 377.39 302.39 377.22 300.17 376.63 C 300.48 373.22 300.73 369.80 301.12 366.39 Z" fill="#e9e118" opacity="1.00" stroke="#e9e118" stroke-width="0.25" data-index="68"></path>
<path d="M 297.71 367.71 C 298.14 367.45 298.99 366.94 299.41 366.69 C 298.87 370.59 298.73 374.53 298.78 378.47 L 298.78 379.16 C 326.20 378.47 353.62 379.25 381.05 378.98 C 381.85 379.05 383.45 379.17 384.25 379.24 C 382.98 379.78 381.64 380.14 380.29 380.42 C 381.07 381.32 381.98 382.15 382.50 383.25 C 382.99 389.17 382.81 395.11 382.78 401.04 C 383.13 406.05 384.12 411.08 383.21 416.09 C 382.14 410.12 382.68 404.02 382.12 398.01 C 381.60 392.86 381.60 387.68 381.35 382.52 L 381.32 381.73 C 372.17 381.68 363.02 381.79 353.88 381.57 C 361.78 379.93 370.08 381.84 378.10 380.67 C 373.82 379.72 369.40 380.57 365.06 380.26 C 343.70 380.34 322.35 380.13 300.99 380.08 C 299.10 380.37 297.12 378.94 297.30 376.94 C 297.28 373.88 296.91 370.68 297.71 367.71 Z" fill="#1b3e37" opacity="1.00" stroke="#1b3e37" stroke-width="0.25" data-index="69"></path>
<path d="M 248.13 384.25 C 249.62 378.66 251.93 373.33 253.76 367.84 C 253.56 374.42 251.60 380.77 250.33 387.19 C 250.02 385.73 249.69 384.28 249.34 382.84 C 249.03 383.19 248.43 383.90 248.13 384.25 Z" fill="#a58c8e" opacity="1.00" stroke="#a58c8e" stroke-width="0.25" data-index="70"></path>
<path d="M 294.12 377.93 C 294.80 379.26 295.57 380.54 296.44 381.77 C 295.45 407.40 295.71 433.06 294.80 458.69 C 287.63 458.63 280.45 458.71 273.27 458.78 C 277.90 439.59 283.05 420.53 288.16 401.47 C 290.07 393.60 292.64 385.89 294.12 377.93 Z" fill="#feffff" opacity="1.00" stroke="#feffff" stroke-width="0.25" data-index="71" style="opacity: 1;"></path>
<path d="M 300.37 382.42 C 309.12 382.36 317.88 382.45 326.64 382.39 C 326.83 389.96 325.48 397.42 325.36 404.97 C 324.09 410.25 324.76 415.72 323.79 421.04 C 323.36 430.05 322.27 438.99 321.66 448.00 C 321.50 451.51 321.86 455.21 320.31 458.48 C 313.38 458.32 306.46 458.43 299.53 458.42 C 299.25 439.30 299.83 420.17 299.74 401.05 C 300.38 394.86 300.25 388.63 300.37 382.42 Z" fill="#f25430" opacity="1.00" stroke="#f25430" stroke-width="0.25" data-index="72"></path>
<path d="M 331.41 382.39 C 337.33 382.57 343.28 382.14 349.20 382.65 C 350.65 398.46 352.95 414.19 354.81 429.95 C 356.12 439.46 356.87 449.05 358.54 458.52 C 347.40 458.80 336.25 458.45 325.11 458.62 C 325.98 443.38 327.74 428.20 328.70 412.97 C 329.80 402.79 330.16 392.55 331.41 382.39 Z" fill="#ffffff" opacity="1.00" stroke="#ffffff" stroke-width="0.25" data-index="73"></path>
<path d="M 249.34 382.84 C 249.69 384.28 250.02 385.73 250.33 387.19 C 248.07 398.82 245.56 410.41 242.99 421.98 C 242.53 423.80 242.31 425.68 242.21 427.56 C 239.63 427.58 237.12 426.98 234.63 426.38 C 234.70 422.38 236.72 418.77 237.78 414.98 C 241.01 404.67 244.30 394.34 248.13 384.25 C 248.43 383.90 249.03 383.19 249.34 382.84 Z" fill="#b2847c" opacity="1.00" stroke="#b2847c" stroke-width="0.25" data-index="74"></path>
<path d="M 353.39 382.39 C 362.71 382.45 372.04 381.99 381.35 382.52 C 381.60 387.68 381.60 392.86 382.12 398.01 C 382.68 404.02 382.14 410.12 383.21 416.09 C 383.89 421.35 383.29 426.70 383.98 431.97 C 384.82 438.27 383.96 444.71 385.17 450.98 C 385.53 453.47 385.41 456.00 385.52 458.52 C 377.90 458.83 370.26 458.71 362.64 458.41 C 362.65 448.49 360.14 438.84 359.41 428.98 C 358.33 422.99 357.48 416.95 357.22 410.86 C 356.13 406.61 355.40 402.28 355.34 397.88 L 354.67 397.02 C 354.75 392.09 353.18 387.33 353.39 382.39 Z" fill="#f2532f" opacity="1.00" stroke="#f2532f" stroke-width="0.25" data-index="75"></path>
<path d="M 100.11 396.43 C 116.38 396.65 132.65 396.25 148.92 396.13 C 157.61 395.77 166.31 395.62 175.00 395.90 C 173.51 404.48 169.97 412.68 169.31 421.37 C 168.27 421.94 167.17 422.29 166.02 422.43 C 146.01 422.15 125.98 421.96 105.97 422.41 C 104.43 413.66 102.07 405.08 100.11 396.43 Z" fill="#81d742" opacity="1.00" stroke="#81d742" stroke-width="0.25" data-index="76"></path>
<path d="M 282.85 398.43 C 283.33 400.02 283.82 401.61 284.26 403.23 C 281.64 413.08 279.22 422.99 276.62 432.85 C 274.44 432.58 272.27 432.26 270.11 431.93 C 270.20 431.49 270.38 430.61 270.47 430.17 C 274.39 419.51 278.71 409.01 282.85 398.43 Z" fill="#b5867d" opacity="1.00" stroke="#b5867d" stroke-width="0.25" data-index="77"></path>
<path d="M 169.67 423.28 C 170.42 422.14 171.17 421.02 171.86 419.85 C 169.08 432.70 165.38 445.35 162.24 458.12 C 162.00 458.41 161.51 459.00 161.27 459.29 C 161.84 459.42 162.97 459.66 163.53 459.79 C 166.13 460.67 168.40 462.26 170.31 464.21 C 141.85 464.62 113.38 464.15 84.92 464.38 C 79.75 464.35 74.56 465.11 69.42 464.42 C 69.32 463.10 69.34 461.78 69.64 460.50 C 83.82 458.82 98.19 459.88 112.45 459.43 C 109.26 447.37 106.20 435.27 103.38 423.11 C 104.03 422.93 105.33 422.58 105.97 422.41 C 125.98 421.96 146.01 422.15 166.02 422.43 C 167.17 422.29 168.27 421.94 169.31 421.37 C 169.40 421.85 169.58 422.80 169.67 423.28 Z" fill="#023c62" opacity="1.00" stroke="#023c62" stroke-width="0.25" data-index="78"></path>
<path d="M 237.18 434.18 C 239.69 433.59 242.67 434.24 244.78 432.48 C 251.30 432.70 257.65 434.49 264.07 435.52 C 264.13 436.32 264.24 437.92 264.30 438.72 C 256.82 437.94 249.56 435.62 242.03 435.34 C 230.10 436.01 218.47 440.06 208.36 446.37 C 203.78 449.34 199.50 453.58 198.84 459.27 C 220.68 459.07 242.50 459.20 264.34 459.18 C 264.23 459.66 264.00 460.63 263.89 461.11 C 243.58 461.17 223.26 460.83 202.95 461.15 C 200.12 461.43 197.67 459.92 195.16 458.89 C 196.50 451.34 202.48 445.59 208.92 441.96 C 214.74 438.89 220.71 435.97 227.11 434.31 L 228.00 434.79 C 230.98 436.03 234.14 434.40 237.18 434.18 Z" fill="#05374e" opacity="1.00" stroke="#05374e" stroke-width="0.25" data-index="79"></path>
<path d="M 208.36 446.37 C 218.47 440.06 230.10 436.01 242.03 435.34 C 249.56 435.62 256.82 437.94 264.30 438.72 C 264.27 445.54 264.38 452.36 264.34 459.18 C 242.50 459.20 220.68 459.07 198.84 459.27 C 199.50 453.58 203.78 449.34 208.36 446.37 Z" fill="#81d642" opacity="1.00" stroke="#81d642" stroke-width="0.25" data-index="80"></path>
</svg>