<svg xmlns="http://www.w3.org/2000/svg" height="512pt" version="1.1" viewBox="0 0 512 512" width="512pt">
<path d="M 0.00 0.00 L 512.00 0.00 L 512.00 512.00 L 0.00 512.00 L 0.00 0.00 Z" fill="transparent" opacity="1.00" stroke="transparent" stroke-width="0.25" data-index="0" style="opacity: 1; visibility: visible;"></path>
<path d="M 148.11 137.71 C 172.38 131.67 197.32 128.91 222.21 127.08 C 238.76 125.73 255.38 126.18 271.96 126.15 C 291.33 126.80 310.69 128.20 329.85 131.12 C 341.09 132.72 352.31 134.71 363.19 138.02 C 370.47 140.32 377.87 143.15 383.64 148.32 C 391.71 155.06 397.42 164.71 399.04 175.13 C 399.40 179.27 403.79 180.97 406.03 184.00 C 418.37 199.01 423.02 220.67 416.30 239.10 C 413.27 247.64 406.80 254.25 401.14 261.11 C 399.63 262.98 398.30 265.05 397.90 267.47 C 409.58 270.64 421.84 272.53 432.46 278.72 C 440.71 283.27 448.44 290.39 450.67 299.88 C 452.81 307.98 450.22 317.28 443.86 322.82 C 433.24 332.43 418.66 335.55 404.99 338.09 C 396.48 339.94 387.47 342.13 380.83 348.13 C 390.13 356.03 403.66 357.68 411.64 367.44 C 413.98 369.51 413.54 372.74 413.50 375.54 C 411.93 376.86 410.30 378.40 408.16 378.63 C 400.32 379.61 392.63 377.27 384.99 375.91 C 374.32 373.45 363.61 371.19 352.80 369.50 C 352.30 373.95 351.77 378.42 350.66 382.77 C 345.98 384.56 340.87 383.46 335.99 383.77 C 333.57 383.73 329.98 384.23 328.93 381.37 C 328.00 377.51 327.83 373.49 326.55 369.70 C 272.52 370.11 218.47 369.51 164.44 370.00 C 163.70 373.99 163.05 377.99 162.23 381.97 C 161.47 382.54 160.71 383.12 159.96 383.71 C 154.95 383.72 149.94 383.83 144.94 383.75 C 143.34 383.83 141.93 383.02 140.52 382.40 C 139.56 378.20 138.91 373.94 138.41 369.67 C 135.39 368.91 132.15 368.32 129.68 366.29 C 127.06 364.17 125.88 360.90 124.54 357.93 L 124.68 357.72 C 125.00 357.24 125.64 356.28 125.96 355.80 C 126.05 353.04 125.82 350.30 125.53 347.57 C 125.02 350.45 124.66 353.35 124.66 356.28 C 124.30 352.95 124.30 349.60 124.35 346.26 C 110.23 347.21 95.69 347.60 82.06 343.18 C 76.55 341.20 71.05 338.32 67.49 333.54 C 63.47 328.01 63.77 320.39 66.49 314.37 C 73.55 299.20 90.21 291.43 97.36 276.35 C 101.34 268.33 98.88 258.80 94.36 251.56 C 89.87 244.67 84.46 238.11 82.07 230.10 C 76.43 210.43 87.23 187.76 105.61 179.10 C 107.61 167.41 113.23 156.08 122.60 148.59 C 129.93 142.70 139.15 140.00 148.11 137.71 Z" fill="#095a8d" opacity="1.00" stroke="#095a8d" stroke-width="0.25" data-index="1" style="visibility: visible; opacity: 1;"></path>
<path d="M 153.01 144.06 C 193.30 135.10 234.79 132.62 275.97 133.71 C 300.66 134.70 325.38 136.96 349.58 142.12 C 359.26 144.31 369.22 146.74 377.46 152.55 C 383.49 156.85 387.88 163.17 390.43 170.07 C 392.70 176.42 392.74 183.24 393.28 189.88 C 373.44 187.47 353.67 184.43 333.78 182.42 C 333.57 179.46 333.85 176.26 332.15 173.66 C 330.60 170.77 327.68 169.08 324.83 167.71 C 324.74 165.71 324.95 163.63 324.30 161.71 C 321.37 155.83 312.59 154.17 307.64 158.42 C 305.91 159.93 305.56 162.30 305.10 164.41 C 277.83 161.68 250.38 162.49 223.00 162.41 C 215.28 162.28 207.63 163.54 199.93 163.85 C 197.99 161.60 196.38 158.68 193.12 158.22 C 185.93 155.66 177.31 163.04 180.31 170.54 C 176.35 173.23 173.01 176.66 170.07 180.40 C 150.77 183.53 131.38 186.23 112.12 189.67 C 112.05 177.86 115.37 165.46 124.01 156.99 C 131.65 149.16 142.77 146.64 153.01 144.06 Z" fill="#ffffff" opacity="1.00" stroke="#ffffff" stroke-width="0.25" data-index="2"></path>
<path d="M 201.17 170.99 C 210.43 170.20 219.71 169.34 229.03 169.45 C 253.98 169.55 279.00 169.01 303.87 171.36 C 303.13 175.46 302.47 179.58 301.69 183.67 C 277.11 183.16 252.56 184.41 227.99 184.60 C 219.87 184.95 211.74 184.69 203.64 185.30 C 202.59 180.57 201.55 175.83 201.17 170.99 Z" fill="#ffffff" opacity="1.00" stroke="#ffffff" stroke-width="0.25" data-index="3"></path>
<path d="M 323.65 174.65 C 328.34 176.94 326.62 182.75 326.53 186.90 C 325.05 186.77 323.58 186.63 322.11 186.50 C 322.35 182.52 322.94 178.57 323.65 174.65 Z" fill="#f1ffff" opacity="1.00" stroke="#f1ffff" stroke-width="0.25" data-index="4"></path>
<path d="M 173.88 187.84 C 174.79 183.63 178.81 181.23 181.46 178.14 C 182.37 181.10 182.77 184.18 182.82 187.28 C 179.84 187.44 176.86 187.67 173.88 187.84 Z" fill="#f1ffff" opacity="1.00" stroke="#f1ffff" stroke-width="0.25" data-index="5"></path>
<path d="M 112.18 194.41 C 130.51 191.34 148.85 188.30 167.30 186.04 C 167.73 191.86 168.42 197.67 169.29 203.44 C 150.77 206.03 132.14 207.89 113.61 210.51 C 113.29 205.13 112.69 199.77 112.18 194.41 Z" fill="#feffff" opacity="1.00" stroke="#feffff" stroke-width="0.25" data-index="6"></path>
<path d="M 98.21 193.32 C 100.23 191.17 102.47 189.17 105.17 187.93 C 105.14 196.00 106.16 204.01 106.82 212.03 C 106.94 213.99 107.57 215.86 108.53 217.56 C 111.06 217.71 113.61 217.72 116.14 217.43 C 125.44 216.22 134.74 215.08 144.07 214.10 C 139.89 218.79 137.48 224.76 136.56 230.92 C 131.42 263.13 127.37 295.53 124.76 328.05 C 124.48 331.55 124.43 335.06 124.39 338.57 C 110.43 340.38 95.77 340.15 82.40 335.34 C 77.73 333.54 72.54 330.44 71.77 325.03 C 71.00 318.00 75.94 312.21 80.36 307.36 C 88.96 298.54 99.06 290.51 104.13 278.95 C 108.07 270.34 106.90 260.18 102.91 251.81 C 97.80 242.36 89.32 234.20 88.02 223.08 C 86.60 212.25 91.02 201.30 98.21 193.32 Z" fill="#ffffff" opacity="1.00" stroke="#ffffff" stroke-width="0.25" data-index="7"></path>
<path d="M 331.83 187.41 C 352.08 189.41 372.24 192.31 392.44 194.79 C 392.01 199.86 391.48 204.94 390.61 209.96 C 370.33 207.22 349.97 204.98 329.66 202.42 C 330.51 197.44 331.30 192.44 331.83 187.41 Z" fill="#ffffff" opacity="1.00" stroke="#ffffff" stroke-width="0.25" data-index="8"></path>
<path d="M 399.93 188.06 C 410.73 200.94 415.22 219.64 409.79 235.74 C 406.09 246.86 395.84 253.90 390.53 264.08 C 388.45 267.86 390.94 272.64 394.83 274.00 C 402.27 276.99 410.38 277.82 417.95 280.46 C 425.91 283.13 433.81 287.06 439.42 293.48 C 443.65 298.44 445.46 305.72 443.00 311.90 C 440.65 316.75 436.17 320.18 431.49 322.62 C 422.87 326.81 413.48 329.05 404.10 330.77 C 394.75 332.76 384.92 335.10 377.53 341.54 C 375.17 343.60 373.05 346.78 374.02 350.04 C 375.02 354.51 379.51 356.69 383.11 358.80 C 390.88 362.66 399.15 365.80 405.81 371.53 C 394.96 371.16 384.58 367.78 373.98 365.80 C 370.12 365.07 366.27 364.31 362.44 363.45 C 365.53 358.95 365.10 353.23 365.17 348.04 C 363.89 311.25 360.67 274.56 357.29 237.92 C 356.78 232.53 356.25 227.01 353.83 222.08 C 352.30 218.17 349.50 215.01 347.05 211.68 C 360.69 213.52 374.37 215.16 388.00 217.09 C 390.42 217.45 392.86 217.50 395.31 217.58 C 396.03 216.38 397.04 215.27 397.18 213.81 C 398.18 205.24 399.60 196.70 399.93 188.06 Z" fill="#ffffff" opacity="1.00" stroke="#ffffff" stroke-width="0.25" data-index="9" style="visibility: visible; opacity: 1;"></path>
<path d="M 218.02 191.17 C 240.30 189.95 262.63 190.50 284.94 190.07 C 297.97 189.37 311.07 190.29 323.94 192.44 C 324.03 197.36 321.74 202.16 322.71 207.06 C 324.62 208.86 327.37 209.21 329.72 210.21 C 339.31 213.60 347.93 221.66 349.36 232.09 C 351.75 255.72 353.50 279.42 355.34 303.09 C 356.44 320.92 358.27 338.76 357.57 356.64 C 357.65 359.47 355.04 361.06 353.14 362.67 L 352.58 362.61 C 346.73 361.84 340.83 362.09 334.95 362.08 C 276.98 362.05 219.02 362.12 161.05 362.08 C 152.70 362.03 144.33 362.29 135.98 361.73 C 134.80 360.96 133.71 360.06 132.59 359.22 C 132.23 357.48 131.81 355.75 131.71 353.98 C 131.32 334.93 132.68 315.89 135.01 296.99 C 137.55 275.34 140.30 253.71 143.61 232.17 C 144.78 222.10 152.91 213.05 163.05 211.57 C 166.76 211.05 170.43 210.28 174.07 209.38 C 177.83 205.17 174.73 199.20 175.08 194.18 C 181.42 193.36 187.75 192.45 194.11 191.80 C 202.06 191.14 210.05 191.40 218.02 191.17 Z" fill="#ffffff" opacity="1.00" stroke="#ffffff" stroke-width="0.25" data-index="10"></path>
<path d="M 190.32 210.29 C 202.82 199.54 218.64 192.76 235.02 191.02 C 254.70 188.83 274.95 194.78 290.90 206.37 C 306.70 217.94 318.19 235.53 321.59 254.89 C 323.86 265.95 323.21 277.37 321.06 288.40 C 318.84 287.62 317.56 284.90 315.26 283.94 C 314.80 289.51 320.91 292.08 323.85 295.95 C 324.48 300.81 317.50 295.90 316.82 299.87 C 311.68 312.64 302.88 323.80 291.97 332.15 C 279.18 342.19 263.10 347.55 246.94 348.43 C 224.59 349.34 201.74 341.08 185.97 325.04 C 175.47 314.36 167.49 300.65 165.08 285.78 C 166.38 280.54 164.56 275.27 164.86 269.99 C 164.85 266.11 165.82 261.98 163.97 258.35 L 163.84 258.00 C 166.70 239.63 176.04 222.26 190.32 210.29 Z" fill="#075a8f" opacity="1.00" stroke="#075a8f" stroke-width="0.25" data-index="11"></path>
<path d="M 231.07 202.07 C 243.70 200.05 256.96 201.02 268.81 206.04 C 286.25 212.85 300.81 227.02 307.56 244.55 C 314.22 261.05 313.60 280.15 306.62 296.44 C 299.21 313.49 284.60 327.25 267.07 333.48 C 254.62 337.82 240.95 339.02 228.06 335.97 C 210.44 332.35 194.40 321.47 184.60 306.37 C 174.46 290.86 171.34 271.08 175.74 253.12 C 181.73 227.02 204.83 206.40 231.07 202.07 Z" fill="#feffff" opacity="1.00" stroke="#feffff" stroke-width="0.25" data-index="12"></path>
<path d="M 220.48 211.68 C 228.11 207.41 238.68 214.40 237.84 223.07 C 238.10 230.55 230.17 237.01 222.92 234.74 C 217.20 233.59 213.06 227.76 213.63 221.99 C 213.95 217.68 216.51 213.53 220.48 211.68 Z" fill="#0e5d8c" opacity="1.00" stroke="#0e5d8c" stroke-width="0.25" data-index="13"></path>
<path d="M 249.26 221.90 C 249.74 213.24 260.09 207.95 267.68 211.69 L 267.76 212.09 C 267.91 212.84 268.21 214.35 268.37 215.10 C 262.10 218.60 256.91 223.66 252.12 228.94 C 256.39 227.67 259.08 223.66 263.36 222.38 C 261.62 224.23 259.79 226.00 258.03 227.82 C 259.73 227.32 261.40 226.74 263.10 226.23 C 263.64 228.03 265.09 228.69 266.85 228.83 C 266.34 230.29 265.53 231.62 265.00 233.08 C 264.27 233.69 263.54 234.29 262.81 234.89 C 263.65 234.94 265.33 235.05 266.18 235.10 C 257.87 238.51 247.73 230.88 249.26 221.90 Z" fill="#0b5b8d" opacity="1.00" stroke="#0b5b8d" stroke-width="0.25" data-index="14"></path>
<path d="M 267.76 212.09 C 277.45 216.25 276.02 232.04 266.18 235.10 C 265.33 235.05 263.65 234.94 262.81 234.89 C 263.54 234.29 264.27 233.69 265.00 233.08 C 268.05 230.43 272.24 227.60 271.85 223.00 C 272.21 219.86 269.92 217.53 268.37 215.10 C 268.21 214.35 267.91 212.84 267.76 212.09 Z" fill="#12547e" opacity="1.00" stroke="#12547e" stroke-width="0.25" data-index="15"></path>
<path d="M 229.14 214.36 C 233.76 215.09 235.17 220.03 235.33 224.03 C 231.18 224.98 230.78 229.74 228.36 232.46 C 228.47 230.75 228.68 229.05 228.91 227.35 C 227.35 227.59 225.34 227.03 224.46 228.73 C 224.05 227.72 223.64 226.71 223.22 225.71 C 222.22 227.51 221.30 229.35 220.22 231.10 C 220.32 229.15 220.70 227.22 221.55 225.46 C 223.32 221.53 224.46 217.32 226.71 213.62 L 226.50 217.86 C 227.16 216.99 228.48 215.23 229.14 214.36 Z" fill="#fbfdfd" opacity="1.00" stroke="#fbfdfd" stroke-width="0.25" data-index="16"></path>
<path d="M 253.04 222.86 C 254.72 219.07 258.49 216.56 262.17 214.94 C 260.27 218.65 256.32 220.56 253.04 222.86 Z" fill="#f1ffff" opacity="1.00" stroke="#f1ffff" stroke-width="0.25" data-index="17"></path>
<path d="M 252.12 228.94 C 256.91 223.66 262.10 218.60 268.37 215.10 C 269.92 217.53 272.21 219.86 271.85 223.00 C 272.24 227.60 268.05 230.43 265.00 233.08 C 265.53 231.62 266.34 230.29 266.85 228.83 C 265.09 228.69 263.64 228.03 263.10 226.23 C 261.40 226.74 259.73 227.32 258.03 227.82 C 259.79 226.00 261.62 224.23 263.36 222.38 C 259.08 223.66 256.39 227.67 252.12 228.94 Z" fill="#fbffff" opacity="1.00" stroke="#fbffff" stroke-width="0.25" data-index="18"></path>
<path d="M 216.78 228.40 C 218.08 224.03 220.17 219.93 222.20 215.87 C 222.79 217.28 222.82 218.80 222.07 220.15 C 220.79 223.17 219.41 226.14 217.97 229.09 L 216.78 228.40 Z" fill="#93cbe9" opacity="1.00" stroke="#93cbe9" stroke-width="0.25" data-index="19"></path>
<path d="M 232.10 228.11 C 235.43 228.30 230.51 231.08 232.10 228.11 Z" fill="#67b1de" opacity="1.00" stroke="#67b1de" stroke-width="0.25" data-index="20"></path>
<path d="M 226.14 228.91 C 229.40 229.16 224.54 231.96 226.14 228.91 Z" fill="#abe3ff" opacity="1.00" stroke="#abe3ff" stroke-width="0.25" data-index="21"></path>
<path d="M 193.40 232.68 C 200.98 228.53 210.92 234.60 211.52 242.94 C 212.13 247.43 210.09 251.83 207.02 255.01 C 202.15 258.64 194.79 258.87 190.19 254.65 C 183.02 248.89 185.14 236.33 193.40 232.68 Z" fill="#0c5684" opacity="1.00" stroke="#0c5684" stroke-width="0.25" data-index="22"></path>
<path d="M 278.87 235.89 C 281.40 233.11 285.33 232.64 288.89 232.69 L 289.02 233.14 L 289.54 234.79 L 289.84 235.76 C 285.42 239.09 280.93 242.50 277.23 246.65 C 280.71 244.97 283.51 242.22 286.72 240.11 L 283.84 245.06 C 284.52 244.76 285.86 244.15 286.53 243.85 C 286.01 245.45 285.00 246.58 283.49 247.22 C 283.83 247.75 284.50 248.82 284.84 249.35 C 282.92 250.98 280.04 250.63 277.72 251.45 C 274.04 247.01 274.38 239.66 278.87 235.89 Z" fill="#0e5e91" opacity="1.00" stroke="#0e5e91" stroke-width="0.25" data-index="23"></path>
<path d="M 289.02 233.14 C 293.58 234.31 297.78 238.30 297.51 243.29 C 296.65 244.68 296.04 246.20 295.44 247.72 C 295.48 245.51 295.74 243.24 295.12 241.10 C 294.13 238.31 291.22 237.05 289.54 234.79 L 289.02 233.14 Z" fill="#0f4a6d" opacity="1.00" stroke="#0f4a6d" stroke-width="0.25" data-index="24"></path>
<path d="M 195.73 239.69 C 196.70 237.58 197.58 235.30 199.51 233.85 C 198.73 238.34 196.35 242.27 194.53 246.37 C 193.61 248.42 192.67 250.51 191.12 252.18 C 191.70 247.71 193.94 243.75 195.73 239.69 Z" fill="#f1ffff" opacity="1.00" stroke="#f1ffff" stroke-width="0.25" data-index="25"></path>
<path d="M 196.11 252.35 C 195.94 245.77 200.28 240.48 202.84 234.75 C 202.48 236.79 201.92 238.79 201.44 240.81 C 202.96 239.63 203.87 237.29 205.93 236.97 C 210.39 241.50 209.07 249.19 204.57 253.21 C 204.52 252.58 204.43 251.33 204.38 250.71 C 203.45 250.27 202.53 249.83 201.63 249.35 C 201.13 249.81 200.12 250.72 199.62 251.17 C 199.58 250.25 199.49 248.42 199.44 247.50 C 198.30 249.09 197.21 250.72 196.11 252.35 Z" fill="#feffff" opacity="1.00" stroke="#feffff" stroke-width="0.25" data-index="26"></path>
<path d="M 188.25 250.02 C 188.81 244.91 190.96 239.94 194.17 235.95 C 194.60 237.48 193.72 238.86 193.14 240.22 C 191.55 243.50 190.33 246.99 188.25 250.02 Z" fill="#f1ffff" opacity="1.00" stroke="#f1ffff" stroke-width="0.25" data-index="27"></path>
<path d="M 236.54 240.84 C 248.58 237.70 262.10 244.01 267.39 255.26 C 271.64 264.18 270.50 275.55 264.29 283.31 C 256.24 294.09 239.77 296.68 228.55 289.43 C 220.55 284.66 215.78 275.26 216.25 266.00 C 216.09 254.18 225.22 243.55 236.54 240.84 Z" fill="#0f4a6d" opacity="1.00" stroke="#0f4a6d" stroke-width="0.25" data-index="28"></path>
<path d="M 232.88 244.59 C 238.02 242.75 243.67 241.68 249.04 243.28 C 256.90 245.22 263.81 251.18 266.27 258.99 C 268.98 267.61 266.96 277.94 260.15 284.13 C 251.69 292.78 236.64 293.36 227.41 285.61 C 218.41 278.54 215.85 264.67 221.70 254.84 C 224.18 250.26 228.40 247.06 232.88 244.59 Z" fill="#ffffff" opacity="1.00" stroke="#ffffff" stroke-width="0.25" data-index="29"></path>
<path d="M 200.41 254.66 C 199.79 253.57 200.59 250.10 202.21 251.55 C 202.33 252.64 201.78 254.79 200.41 254.66 Z" fill="#9bd3f0" opacity="1.00" stroke="#9bd3f0" stroke-width="0.25" data-index="30"></path>
<path d="M 293.58 254.82 C 294.69 254.43 295.79 254.01 296.89 253.59 C 297.54 255.51 300.68 260.02 296.68 259.71 C 295.58 258.12 294.59 256.46 293.58 254.82 Z" fill="#13496d" opacity="1.00" stroke="#13496d" stroke-width="0.25" data-index="31"></path>
<path d="M 288.41 256.97 C 289.98 255.92 291.75 255.26 293.58 254.82 C 294.59 256.46 295.58 258.12 296.68 259.71 C 296.00 260.88 295.35 262.07 294.71 263.27 C 293.03 261.64 290.70 263.15 288.79 263.38 C 289.34 263.13 290.44 262.63 290.99 262.37 C 290.13 260.57 289.27 258.77 288.41 256.97 Z" fill="#90bcd6" opacity="1.00" stroke="#90bcd6" stroke-width="0.25" data-index="32"></path>
<path d="M 289.69 256.86 C 290.86 256.33 292.03 255.82 293.22 255.31 C 293.85 257.15 294.50 258.99 295.15 260.83 C 294.33 261.04 292.68 261.46 291.85 261.67 C 291.14 260.06 290.42 258.46 289.69 256.86 Z" fill="#18597f" opacity="1.00" stroke="#18597f" stroke-width="0.25" data-index="33"></path>
<path d="M 285.25 257.93 C 286.30 257.62 287.35 257.30 288.41 256.97 C 289.27 258.77 290.13 260.57 290.99 262.37 C 290.44 262.63 289.34 263.13 288.79 263.38 C 288.42 263.56 287.69 263.91 287.33 264.08 C 286.53 262.06 285.78 260.03 285.25 257.93 Z" fill="#155986" opacity="1.00" stroke="#155986" stroke-width="0.25" data-index="34"></path>
<path d="M 163.97 258.35 C 165.82 261.98 164.85 266.11 164.86 269.99 C 164.56 275.27 166.38 280.54 165.08 285.78 C 162.65 276.90 162.70 267.42 163.97 258.35 Z" fill="#0e4f78" opacity="1.00" stroke="#0e4f78" stroke-width="0.25" data-index="35"></path>
<path d="M 190.55 266.81 C 197.44 264.57 205.78 269.55 206.19 276.99 C 207.72 285.42 198.33 292.71 190.47 289.81 C 184.16 288.01 180.68 280.65 182.74 274.53 C 183.91 270.90 187.00 268.06 190.55 266.81 Z" fill="#0c5b8c" opacity="1.00" stroke="#0c5b8c" stroke-width="0.25" data-index="36"></path>
<path d="M 189.98 287.24 C 192.80 281.21 194.69 274.15 199.83 269.65 C 199.55 270.75 199.00 272.97 198.72 274.08 C 199.52 273.50 201.12 272.35 201.92 271.77 C 202.59 274.11 203.81 276.52 203.15 279.01 C 202.41 281.80 200.89 284.29 199.73 286.91 C 199.60 286.48 199.35 285.61 199.23 285.18 C 197.13 285.36 195.07 285.81 193.19 286.78 C 193.57 285.91 194.33 284.15 194.71 283.28 C 194.43 283.31 193.86 283.39 193.57 283.43 C 192.48 284.79 191.38 286.17 189.98 287.24 Z" fill="#f8fefe" opacity="1.00" stroke="#f8fefe" stroke-width="0.25" data-index="37"></path>
<path d="M 191.78 275.90 C 193.01 273.97 193.78 271.58 195.92 270.43 C 193.81 275.81 190.39 280.52 186.92 285.09 C 187.43 281.52 190.07 278.91 191.78 275.90 Z" fill="#f1ffff" opacity="1.00" stroke="#f1ffff" stroke-width="0.25" data-index="38"></path>
<path d="M 279.08 287.77 C 274.29 285.16 273.95 276.89 279.22 274.61 C 286.67 277.60 293.84 281.63 301.93 282.68 C 304.11 282.85 304.62 285.37 305.54 286.91 C 304.54 289.09 303.86 292.38 300.96 292.67 C 293.44 293.11 285.70 291.38 279.08 287.77 Z" fill="#0f4666" opacity="1.00" stroke="#0f4666" stroke-width="0.25" data-index="39"></path>
<path d="M 279.62 285.29 C 277.13 283.54 276.60 278.04 279.88 277.30 C 287.09 281.04 294.73 283.91 302.73 285.43 C 302.68 286.42 302.58 288.39 302.52 289.38 C 299.77 291.21 296.43 290.38 293.39 289.95 C 288.63 289.08 283.64 288.14 279.62 285.29 Z" fill="#fdfeff" opacity="1.00" stroke="#fdfeff" stroke-width="0.25" data-index="40"></path>
<path d="M 208.18 293.21 C 215.76 290.70 224.23 298.27 222.58 306.11 C 221.64 314.48 210.74 318.93 204.13 313.80 C 196.41 308.68 199.12 295.08 208.18 293.21 Z" fill="#0e5a88" opacity="1.00" stroke="#0e5a88" stroke-width="0.25" data-index="41"></path>
<path d="M 270.45 293.67 C 278.83 291.34 286.37 301.32 282.72 308.94 C 280.33 316.31 269.61 318.18 264.65 312.38 C 258.83 306.54 262.41 295.24 270.45 293.67 Z" fill="#0e5787" opacity="1.00" stroke="#0e5787" stroke-width="0.25" data-index="42"></path>
<path d="M 204.91 302.34 C 208.02 301.61 207.83 296.71 210.72 295.04 C 210.15 298.68 207.76 301.59 205.86 304.63 L 205.50 304.19 L 205.17 303.69 C 204.58 304.10 203.40 304.90 202.80 305.30 C 203.24 304.05 203.66 302.81 204.12 301.58 L 204.91 302.34 Z" fill="#f1ffff" opacity="1.00" stroke="#f1ffff" stroke-width="0.25" data-index="43"></path>
<path d="M 269.11 301.11 C 271.30 299.16 273.50 297.14 276.10 295.74 C 275.40 297.08 274.67 298.41 273.92 299.73 C 275.87 299.33 278.91 297.23 280.06 300.03 C 283.01 304.19 280.46 309.33 276.82 312.04 C 276.37 311.39 275.49 310.09 275.04 309.44 C 272.48 310.79 271.24 314.16 268.18 314.49 C 269.69 312.08 272.08 310.47 274.18 308.63 C 273.38 308.72 271.77 308.90 270.96 308.99 C 271.74 307.83 272.52 306.66 273.28 305.49 C 272.58 305.77 271.17 306.33 270.47 306.61 C 270.54 305.96 270.68 304.66 270.76 304.01 C 268.90 305.53 267.01 307.02 265.00 308.35 C 264.72 307.31 264.44 306.27 264.16 305.24 C 264.81 304.67 266.13 303.53 266.79 302.96 C 266.67 303.74 266.44 305.30 266.32 306.08 C 266.95 305.31 267.58 304.53 268.22 303.77 C 268.48 302.87 268.25 301.71 269.11 301.11 Z" fill="#f9fefd" opacity="1.00" stroke="#f9fefd" stroke-width="0.25" data-index="44"></path>
<path d="M 207.47 309.13 C 210.00 304.43 213.37 300.19 217.01 296.31 C 216.46 297.82 215.88 299.32 215.27 300.81 C 216.57 300.13 217.88 299.46 219.20 298.80 C 219.79 301.65 220.16 304.65 219.35 307.50 C 218.54 309.63 216.70 311.13 215.14 312.70 C 214.62 312.25 213.60 311.33 213.08 310.88 C 212.50 311.29 211.34 312.13 210.76 312.54 C 210.98 311.82 211.44 310.38 211.67 309.65 C 210.86 310.06 209.25 310.87 208.45 311.27 C 209.39 309.46 210.38 307.68 211.17 305.79 C 209.92 306.90 208.74 308.05 207.47 309.13 Z" fill="#fafdfd" opacity="1.00" stroke="#fafdfd" stroke-width="0.25" data-index="45"></path>
<path d="M 239.19 303.16 C 246.77 301.05 254.98 308.22 253.82 316.04 C 253.95 323.74 244.97 329.62 237.91 326.74 C 231.69 324.74 227.96 317.18 230.50 311.07 C 231.87 307.22 235.15 304.06 239.19 303.16 Z" fill="#0e5b8a" opacity="1.00" stroke="#0e5b8a" stroke-width="0.25" data-index="46"></path>
<path d="M 245.60 307.41 C 246.99 306.38 248.28 307.92 249.18 308.85 C 251.35 311.05 251.37 314.29 251.54 317.17 C 250.19 318.57 248.70 320.00 248.39 322.02 C 247.41 321.50 246.30 321.12 245.63 320.17 C 244.68 321.32 242.78 323.63 241.83 324.78 C 242.45 323.16 243.70 319.91 244.33 318.29 C 242.79 318.66 241.53 319.49 240.56 320.79 C 240.97 318.94 240.47 317.21 239.58 315.61 C 237.86 317.35 236.19 319.13 234.52 320.92 C 234.50 320.56 234.45 319.85 234.43 319.50 C 237.91 315.25 241.53 311.11 245.60 307.41 Z" fill="#feffff" opacity="1.00" stroke="#feffff" stroke-width="0.25" data-index="47"></path>
<path d="M 233.81 313.18 C 234.87 311.22 236.31 309.50 237.96 308.00 C 237.89 310.54 236.00 312.26 233.81 313.18 Z" fill="#f1ffff" opacity="1.00" stroke="#f1ffff" stroke-width="0.25" data-index="48"></path>
<path d="M 124.66 356.28 C 124.66 353.35 125.02 350.45 125.53 347.57 C 125.82 350.30 126.05 353.04 125.96 355.80 C 125.64 356.28 125.00 357.24 124.68 357.72 L 124.66 356.28 Z" fill="#054a6c" opacity="1.00" stroke="#054a6c" stroke-width="0.25" data-index="49"></path>
<path d="M 135.98 361.73 C 144.33 362.29 152.70 362.03 161.05 362.08 C 219.02 362.12 276.98 362.05 334.95 362.08 C 340.83 362.09 346.73 361.84 352.58 362.61 C 347.77 363.27 342.91 362.99 338.07 363.02 C 272.69 363.03 207.31 362.97 141.94 363.02 C 139.88 363.02 137.85 362.58 135.98 361.73 Z" fill="#c4e8fe" opacity="1.00" stroke="#c4e8fe" stroke-width="0.25" data-index="50"></path>
</svg>