<?xml version="1.0" encoding="utf-8"?>
<svg xmlns="http://www.w3.org/2000/svg" height="512pt" version="1.1" viewBox="0 0 512 512" width="512pt">
<path d="M 0.00 0.00 L 512.00 0.00 L 512.00 512.00 L 0.00 512.00 L 0.00 0.00 Z" fill="transparent" opacity="1.00" stroke="transparent" stroke-width="0.25"/>
<path d="M 213.99 142.14 C 221.49 140.31 229.27 140.10 236.96 140.40 C 249.74 140.65 262.43 145.00 272.54 152.84 C 271.02 154.15 269.74 155.73 269.00 157.62 C 262.49 156.79 255.80 154.10 249.33 156.60 C 244.39 158.61 238.96 157.46 233.90 158.83 C 224.50 160.46 215.10 163.01 206.88 167.99 C 203.82 169.95 199.70 170.43 197.52 173.57 C 195.47 176.00 192.06 176.56 189.78 178.74 C 185.78 182.44 182.97 187.25 178.79 190.81 C 174.32 194.63 172.82 200.57 169.10 204.98 C 164.70 210.57 165.17 218.22 161.42 224.14 C 160.72 220.78 160.35 217.35 160.47 213.92 C 163.94 193.54 170.74 172.63 185.49 157.52 C 193.39 149.99 203.32 144.51 213.99 142.14 Z" fill="#3394df" opacity="1.00" stroke="#3394df" stroke-width="0.25"/>
<path d="M 376.60 140.86 C 393.35 139.06 411.48 140.69 425.66 150.59 C 442.41 161.65 451.59 180.80 456.33 199.73 C 459.31 212.68 461.79 225.95 461.63 239.27 C 459.87 244.70 461.00 250.42 460.82 256.00 C 461.00 261.72 459.94 267.59 461.64 273.17 C 462.13 279.82 460.89 286.43 460.23 293.03 C 457.60 312.33 452.55 331.93 441.13 348.03 C 432.19 360.73 418.26 369.83 402.91 372.51 C 386.57 375.32 368.95 373.91 354.39 365.47 C 350.05 362.59 345.41 359.89 342.08 355.80 C 346.21 353.93 348.60 349.93 352.03 347.26 C 357.26 346.21 361.30 342.40 364.69 338.52 C 364.91 335.14 366.41 332.15 368.31 329.39 C 372.46 336.50 381.06 339.95 389.05 339.58 C 395.92 339.76 403.11 336.89 407.08 331.10 C 412.17 323.73 414.05 314.76 415.71 306.11 C 419.42 282.27 419.07 258.04 418.44 233.99 C 417.50 218.90 416.73 203.35 410.78 189.23 C 408.74 184.11 405.56 179.20 400.80 176.25 C 393.85 172.40 385.20 172.29 377.83 174.97 C 377.28 174.88 376.19 174.71 375.65 174.62 C 377.94 172.64 380.88 171.90 383.83 171.53 C 377.40 170.79 375.25 163.96 370.67 160.41 C 367.79 158.25 365.38 155.27 365.18 151.54 C 363.40 151.32 361.64 151.04 359.89 150.67 C 361.65 150.28 363.42 149.92 365.20 149.57 C 363.61 149.30 362.02 149.02 360.44 148.75 C 360.84 148.23 361.25 147.72 361.66 147.21 C 360.55 146.87 359.44 146.54 358.33 146.23 C 363.98 143.19 370.34 141.95 376.60 140.86 Z" fill="#2988d4" opacity="1.00" stroke="#2988d4" stroke-width="0.25"/>
<path d="M 99.74 142.32 C 111.65 142.33 123.56 142.21 135.47 142.43 C 135.38 218.36 135.48 294.29 135.42 370.22 C 120.54 370.17 105.65 370.27 90.77 370.17 C 90.72 315.17 90.92 260.17 90.68 205.17 C 91.07 205.01 91.85 204.68 92.24 204.52 C 92.55 205.54 92.84 206.56 93.11 207.59 C 92.99 209.40 92.81 211.20 92.71 213.01 C 92.69 257.58 92.87 302.16 92.69 346.73 C 92.53 352.15 92.50 357.57 92.50 363.00 C 92.59 364.83 92.41 366.85 93.52 368.44 C 99.07 369.78 104.84 368.97 110.47 368.75 C 118.19 368.85 125.91 368.96 133.63 368.67 C 134.12 345.45 133.56 322.23 134.11 299.01 C 133.76 285.99 134.22 272.97 134.12 259.95 C 133.92 222.96 133.94 185.98 133.82 148.99 C 133.78 147.51 133.69 146.03 133.61 144.55 C 133.31 144.51 132.71 144.44 132.41 144.40 C 127.02 143.03 121.46 143.83 115.98 143.75 C 111.22 143.80 106.37 143.27 101.69 144.47 C 100.56 148.23 99.79 152.22 97.56 155.52 C 95.28 158.82 92.64 161.89 89.64 164.56 C 87.46 166.33 85.34 168.21 82.92 169.65 C 82.57 169.43 81.87 168.99 81.53 168.77 C 90.46 162.60 99.11 153.79 99.74 142.32 Z" fill="#3c85bf" opacity="1.00" stroke="#3c85bf" stroke-width="0.25"/>
<path d="M 101.69 144.47 C 106.37 143.27 111.22 143.80 115.98 143.75 C 121.46 143.83 127.02 143.03 132.41 144.40 C 129.33 144.99 126.21 145.38 123.07 145.32 C 124.78 146.49 128.44 146.94 127.91 149.64 C 125.96 152.42 123.06 154.36 121.06 157.09 C 119.86 159.59 119.82 162.69 117.54 164.60 C 114.55 167.51 112.60 171.22 111.33 175.16 C 107.29 176.18 108.27 180.47 107.53 183.60 C 106.97 184.86 105.74 185.64 104.82 186.62 C 104.05 185.63 103.28 184.64 102.50 183.66 C 101.46 188.38 102.34 193.22 101.91 197.98 C 101.69 201.65 97.98 203.40 96.03 206.09 C 95.35 209.06 95.35 212.15 94.77 215.14 C 94.29 212.61 93.80 210.07 93.11 207.59 C 92.84 206.56 92.55 205.54 92.24 204.52 C 91.85 204.68 91.07 205.01 90.68 205.17 C 87.86 206.32 85.34 208.23 82.30 208.79 C 79.18 209.11 76.06 209.41 72.97 209.93 C 71.48 207.01 71.95 203.70 72.22 200.56 C 73.73 200.24 75.24 199.91 76.74 199.59 C 76.91 197.49 77.10 195.39 77.28 193.29 C 77.98 192.57 78.69 191.85 79.39 191.14 C 77.37 187.48 80.96 184.59 83.71 182.78 C 84.56 179.86 84.52 176.78 84.80 173.77 C 86.22 173.12 87.70 172.57 88.99 171.69 C 89.19 169.31 88.79 166.87 89.64 164.56 C 92.64 161.89 95.28 158.82 97.56 155.52 C 99.79 152.22 100.56 148.23 101.69 144.47 Z" fill="#2785d0" opacity="1.00" stroke="#2785d0" stroke-width="0.25"/>
<path d="M 132.41 144.40 C 132.71 144.44 133.31 144.51 133.61 144.55 C 133.69 146.03 133.78 147.51 133.82 148.99 C 133.94 185.98 133.92 222.96 134.12 259.95 C 134.22 272.97 133.76 285.99 134.11 299.01 C 133.56 322.23 134.12 345.45 133.63 368.67 C 125.91 368.96 118.19 368.85 110.47 368.75 C 108.53 368.14 106.63 367.41 104.74 366.65 C 103.23 360.94 101.06 354.44 95.64 351.33 C 95.34 349.68 95.02 348.03 94.75 346.39 C 94.23 346.47 93.20 346.65 92.69 346.73 C 92.87 302.16 92.69 257.58 92.71 213.01 C 92.81 211.20 92.99 209.40 93.11 207.59 C 93.80 210.07 94.29 212.61 94.77 215.14 C 95.35 212.15 95.35 209.06 96.03 206.09 C 97.98 203.40 101.69 201.65 101.91 197.98 C 102.34 193.22 101.46 188.38 102.50 183.66 C 103.28 184.64 104.05 185.63 104.82 186.62 C 105.74 185.64 106.97 184.86 107.53 183.60 C 108.27 180.47 107.29 176.18 111.33 175.16 C 112.60 171.22 114.55 167.51 117.54 164.60 C 119.82 162.69 119.86 159.59 121.06 157.09 C 123.06 154.36 125.96 152.42 127.91 149.64 C 128.44 146.94 124.78 146.49 123.07 145.32 C 126.21 145.38 129.33 144.99 132.41 144.40 Z" fill="#2b8bd6" opacity="1.00" stroke="#2b8bd6" stroke-width="0.25"/>
<path d="M 334.96 165.45 C 341.01 157.30 348.86 150.08 358.33 146.23 C 359.44 146.54 360.55 146.87 361.66 147.21 C 361.25 147.72 360.84 148.23 360.44 148.75 C 362.02 149.02 363.61 149.30 365.20 149.57 C 363.42 149.92 361.65 150.28 359.89 150.67 C 361.64 151.04 363.40 151.32 365.18 151.54 C 365.38 155.27 367.79 158.25 370.67 160.41 C 375.25 163.96 377.40 170.79 383.83 171.53 C 380.88 171.90 377.94 172.64 375.65 174.62 C 376.19 174.71 377.28 174.88 377.83 174.97 C 369.07 178.99 365.20 188.59 362.68 197.26 C 362.11 194.50 361.01 191.90 359.48 189.53 C 357.69 186.96 358.13 183.68 357.89 180.72 C 356.17 181.27 354.40 181.65 352.62 181.93 C 351.55 175.25 345.70 170.33 339.17 169.40 C 339.41 166.40 340.78 163.70 342.06 161.03 C 340.64 162.60 339.22 164.19 337.67 165.64 C 337.22 165.63 336.31 165.61 335.85 165.60 L 334.96 165.45 Z" fill="#3191dd" opacity="1.00" stroke="#3191dd" stroke-width="0.25"/>
<path d="M 272.54 152.84 C 282.05 160.48 289.23 170.69 294.00 181.86 C 294.13 184.05 294.66 186.47 293.46 188.47 C 292.59 190.40 290.35 190.72 288.57 191.34 C 286.67 187.43 282.21 186.53 278.59 184.91 C 279.01 184.08 279.44 183.25 279.87 182.42 C 276.91 182.02 273.93 181.96 270.96 182.05 C 265.77 182.19 260.71 180.84 255.56 180.46 C 254.71 182.18 253.85 183.90 252.99 185.62 C 250.03 180.59 245.84 175.89 240.02 174.30 C 233.02 172.40 224.93 172.62 218.70 176.71 C 213.79 180.04 210.49 185.27 208.51 190.78 C 203.17 205.19 201.77 220.70 201.37 235.96 C 200.33 249.28 200.43 262.70 201.34 276.02 C 201.58 291.46 203.00 307.12 208.08 321.79 C 210.61 329.31 216.14 336.39 224.05 338.55 C 230.08 340.15 236.71 340.00 242.54 337.66 C 247.17 335.83 250.61 331.91 253.04 327.68 C 256.18 328.75 259.08 327.00 262.05 326.24 C 266.29 325.61 270.68 326.17 274.84 324.91 C 280.32 323.66 284.66 319.84 289.84 317.87 C 292.57 316.79 295.40 316.02 298.22 315.22 C 298.10 316.91 297.99 318.60 297.84 320.30 C 295.95 327.68 292.67 334.64 289.09 341.34 L 288.73 341.41 C 283.08 341.66 278.13 345.98 272.46 344.99 C 269.97 348.15 265.49 346.98 262.00 347.72 C 258.86 347.80 255.75 349.91 252.65 348.60 C 246.18 346.12 239.19 348.12 232.51 346.93 C 232.70 345.31 233.36 343.81 234.69 342.80 C 232.89 343.03 231.07 343.12 229.30 343.55 C 227.80 344.45 226.65 345.80 225.41 347.02 C 222.06 342.14 215.49 342.29 211.00 338.95 C 206.81 335.87 200.46 334.54 199.05 328.84 C 197.13 328.17 195.11 327.70 193.35 326.65 C 192.28 324.91 191.96 322.83 191.04 321.03 C 188.46 319.25 185.25 318.13 183.74 315.17 C 181.58 311.44 178.07 308.90 174.51 306.64 C 173.88 303.87 173.36 300.87 171.07 298.93 C 167.48 295.72 167.44 290.47 164.60 286.73 C 161.99 290.48 164.61 295.50 162.22 299.50 C 160.45 293.12 160.19 286.50 159.44 279.97 C 159.31 282.71 159.17 285.45 159.12 288.20 C 158.67 287.22 158.44 286.19 158.44 285.11 C 156.63 261.43 156.54 237.40 160.47 213.92 C 160.35 217.35 160.72 220.78 161.42 224.14 C 165.17 218.22 164.70 210.57 169.10 204.98 C 172.82 200.57 174.32 194.63 178.79 190.81 C 182.97 187.25 185.78 182.44 189.78 178.74 C 192.06 176.56 195.47 176.00 197.52 173.57 C 199.70 170.43 203.82 169.95 206.88 167.99 C 215.10 163.01 224.50 160.46 233.90 158.83 C 238.96 157.46 244.39 158.61 249.33 156.60 C 255.80 154.10 262.49 156.79 269.00 157.62 C 269.74 155.73 271.02 154.15 272.54 152.84 Z" fill="#389be7" opacity="1.00" stroke="#389be7" stroke-width="0.25"/>
<path d="M 337.67 165.64 C 339.22 164.19 340.64 162.60 342.06 161.03 C 340.78 163.70 339.41 166.40 339.17 169.40 C 345.70 170.33 351.55 175.25 352.62 181.93 C 354.40 181.65 356.17 181.27 357.89 180.72 C 358.13 183.68 357.69 186.96 359.48 189.53 C 361.01 191.90 362.11 194.50 362.68 197.26 C 359.13 210.89 358.61 225.04 357.68 239.02 C 357.17 261.54 357.31 284.21 360.85 306.50 C 362.16 314.44 364.16 322.42 368.31 329.39 C 366.41 332.15 364.91 335.14 364.69 338.52 C 361.30 342.40 357.26 346.21 352.03 347.26 C 348.60 349.93 346.21 353.93 342.08 355.80 L 341.89 355.92 C 328.57 342.55 322.08 324.08 318.40 305.95 C 322.24 296.93 330.12 289.96 332.31 280.20 C 332.99 276.58 336.17 273.85 336.02 270.04 C 335.96 266.89 337.12 263.97 337.95 261.00 C 338.42 256.67 338.64 252.09 337.05 247.95 C 335.12 243.06 336.70 237.72 335.83 232.64 C 334.69 232.21 333.56 231.79 332.44 231.36 C 332.03 227.34 332.09 222.94 329.42 219.63 C 325.32 213.70 319.51 207.63 319.92 199.93 C 323.06 187.82 327.55 175.85 334.83 165.59 L 335.85 165.60 C 336.31 165.61 337.22 165.63 337.67 165.64 Z" fill="#3698e4" opacity="1.00" stroke="#3698e4" stroke-width="0.25"/>
<path d="M 82.92 169.65 C 85.34 168.21 87.46 166.33 89.64 164.56 C 88.79 166.87 89.19 169.31 88.99 171.69 C 87.70 172.57 86.22 173.12 84.80 173.77 C 84.52 176.78 84.56 179.86 83.71 182.78 C 80.96 184.59 77.37 187.48 79.39 191.14 C 78.69 191.85 77.98 192.57 77.28 193.29 C 77.10 195.39 76.91 197.49 76.74 199.59 C 75.24 199.91 73.73 200.24 72.22 200.56 C 71.95 203.70 71.48 207.01 72.97 209.93 C 76.06 209.41 79.18 209.11 82.30 208.79 C 74.04 212.97 65.10 215.63 56.25 218.28 C 52.77 219.27 49.31 220.45 45.68 220.76 C 44.40 209.32 43.07 197.87 41.42 186.48 C 55.51 182.54 69.63 177.48 81.53 168.77 C 81.87 168.99 82.57 169.43 82.92 169.65 Z" fill="#237fc8" opacity="1.00" stroke="#237fc8" stroke-width="0.25"/>
<path d="M 218.70 176.71 C 224.93 172.62 233.02 172.40 240.02 174.30 C 245.84 175.89 250.03 180.59 252.99 185.62 C 257.22 193.67 258.83 202.71 260.29 211.59 C 263.18 236.82 262.99 262.32 261.65 287.65 C 260.33 301.22 259.17 315.26 253.04 327.68 C 250.61 331.91 247.17 335.83 242.54 337.66 C 236.71 340.00 230.08 340.15 224.05 338.55 C 216.14 336.39 210.61 329.31 208.08 321.79 C 203.00 307.12 201.58 291.46 201.34 276.02 C 200.43 262.70 200.33 249.28 201.37 235.96 C 201.77 220.70 203.17 205.19 208.51 190.78 C 210.49 185.27 213.79 180.04 218.70 176.71 Z" fill="#ffffff" opacity="1.00" stroke="#ffffff" stroke-width="0.25"/>
<path d="M 377.83 174.97 C 385.20 172.29 393.85 172.40 400.80 176.25 C 405.56 179.20 408.74 184.11 410.78 189.23 C 416.73 203.35 417.50 218.90 418.44 233.99 C 419.07 258.04 419.42 282.27 415.71 306.11 C 414.05 314.76 412.17 323.73 407.08 331.10 C 403.11 336.89 395.92 339.76 389.05 339.58 C 381.06 339.95 372.46 336.50 368.31 329.39 C 364.16 322.42 362.16 314.44 360.85 306.50 C 357.31 284.21 357.17 261.54 357.68 239.02 C 358.61 225.04 359.13 210.89 362.68 197.26 C 365.20 188.59 369.07 178.99 377.83 174.97 Z" fill="#ffffff" opacity="1.00" stroke="#ffffff" stroke-width="0.25"/>
<path d="M 255.56 180.46 C 260.71 180.84 265.77 182.19 270.96 182.05 C 273.93 181.96 276.91 182.02 279.87 182.42 C 279.44 183.25 279.01 184.08 278.59 184.91 C 282.21 186.53 286.67 187.43 288.57 191.34 C 290.35 190.72 292.59 190.40 293.46 188.47 C 294.66 186.47 294.13 184.05 294.00 181.86 C 303.67 205.59 306.07 231.56 305.86 256.98 C 306.03 276.09 304.45 295.33 299.83 313.92 C 299.26 316.07 298.80 318.27 297.84 320.30 C 297.99 318.60 298.10 316.91 298.22 315.22 C 295.40 316.02 292.57 316.79 289.84 317.87 C 284.66 319.84 280.32 323.66 274.84 324.91 C 270.68 326.17 266.29 325.61 262.05 326.24 C 259.08 327.00 256.18 328.75 253.04 327.68 C 259.17 315.26 260.33 301.22 261.65 287.65 C 262.97 294.02 261.87 300.52 262.43 306.96 C 262.67 305.44 262.91 303.93 263.15 302.42 C 263.86 302.89 264.57 303.37 265.29 303.85 C 265.59 302.46 264.72 300.31 266.42 299.68 C 267.35 299.81 268.26 300.05 269.18 300.27 C 269.78 298.33 270.40 296.40 271.01 294.47 C 271.58 296.34 272.17 298.21 272.76 300.08 C 274.80 298.43 276.57 296.48 278.64 294.87 C 279.72 294.92 280.76 295.23 281.81 295.47 C 284.35 293.71 286.35 291.30 287.32 288.35 C 288.31 284.99 291.69 283.13 292.69 279.79 C 293.64 276.46 296.04 273.86 297.45 270.76 C 299.45 262.32 298.81 253.59 299.03 244.99 C 299.27 241.93 297.33 239.40 296.48 236.60 C 295.92 234.29 295.99 231.88 295.44 229.57 C 291.54 224.35 285.17 221.84 280.62 217.30 C 279.37 215.81 279.88 212.97 277.47 212.59 C 273.82 211.43 270.10 210.11 267.75 206.87 C 266.74 207.25 265.74 207.63 264.75 208.01 C 263.79 205.84 262.65 203.77 261.60 201.66 C 261.37 204.99 260.98 208.32 260.29 211.59 C 258.83 202.71 257.22 193.67 252.99 185.62 C 253.85 183.90 254.71 182.18 255.56 180.46 Z" fill="#3ea3f0" opacity="1.00" stroke="#3ea3f0" stroke-width="0.25"/>
<path d="M 314.52 238.06 C 315.22 225.23 316.87 212.43 319.92 199.93 C 319.51 207.63 325.32 213.70 329.42 219.63 C 332.09 222.94 332.03 227.34 332.44 231.36 C 333.56 231.79 334.69 232.21 335.83 232.64 C 336.70 237.72 335.12 243.06 337.05 247.95 C 338.64 252.09 338.42 256.67 337.95 261.00 C 337.12 263.97 335.96 266.89 336.02 270.04 C 336.17 273.85 332.99 276.58 332.31 280.20 C 330.12 289.96 322.24 296.93 318.40 305.95 C 313.88 283.63 313.75 260.73 314.52 238.06 Z" fill="#3da1ed" opacity="1.00" stroke="#3da1ed" stroke-width="0.25"/>
<path d="M 261.60 201.66 C 262.65 203.77 263.79 205.84 264.75 208.01 C 265.74 207.63 266.74 207.25 267.75 206.87 C 270.10 210.11 273.82 211.43 277.47 212.59 C 279.88 212.97 279.37 215.81 280.62 217.30 C 285.17 221.84 291.54 224.35 295.44 229.57 C 295.99 231.88 295.92 234.29 296.48 236.60 C 297.33 239.40 299.27 241.93 299.03 244.99 C 298.81 253.59 299.45 262.32 297.45 270.76 C 296.04 273.86 293.64 276.46 292.69 279.79 C 291.69 283.13 288.31 284.99 287.32 288.35 C 286.35 291.30 284.35 293.71 281.81 295.47 C 280.76 295.23 279.72 294.92 278.64 294.87 C 276.57 296.48 274.80 298.43 272.76 300.08 C 272.17 298.21 271.58 296.34 271.01 294.47 C 270.40 296.40 269.78 298.33 269.18 300.27 C 268.26 300.05 267.35 299.81 266.42 299.68 C 264.72 300.31 265.59 302.46 265.29 303.85 C 264.57 303.37 263.86 302.89 263.15 302.42 C 262.91 303.93 262.67 305.44 262.43 306.96 C 261.87 300.52 262.97 294.02 261.65 287.65 C 262.99 262.32 263.18 236.82 260.29 211.59 C 260.98 208.32 261.37 204.99 261.60 201.66 Z" fill="#47adf7" opacity="1.00" stroke="#47adf7" stroke-width="0.25"/>
<path d="M 459.16 227.00 C 458.94 224.28 458.46 221.46 459.39 218.82 C 460.36 225.21 462.07 232.03 460.35 238.39 C 459.58 234.64 459.55 230.80 459.16 227.00 Z" fill="#2c7bb6" opacity="1.00" stroke="#2c7bb6" stroke-width="0.25"/>
<path d="M 419.03 228.97 C 419.12 228.46 419.30 227.43 419.39 226.92 C 421.09 237.21 420.10 247.61 420.44 257.97 C 420.28 273.35 420.29 288.90 417.30 304.04 C 416.76 294.98 418.95 286.07 419.29 277.06 C 418.80 261.03 419.38 244.99 419.03 228.97 Z" fill="#3782bc" opacity="1.00" stroke="#3782bc" stroke-width="0.25"/>
<path d="M 460.82 256.00 C 461.00 250.42 459.87 244.70 461.63 239.27 C 462.53 242.44 462.17 245.76 462.32 249.01 C 462.37 257.34 462.60 265.68 462.01 273.99 L 461.64 273.17 C 459.94 267.59 461.00 261.72 460.82 256.00 Z" fill="#3780b5" opacity="1.00" stroke="#3780b5" stroke-width="0.25"/>
<path d="M 159.12 288.20 C 159.17 285.45 159.31 282.71 159.44 279.97 C 160.19 286.50 160.45 293.12 162.22 299.50 C 163.53 309.90 166.14 320.19 170.11 329.90 C 170.54 331.01 170.85 332.21 170.61 333.42 C 170.41 333.53 170.01 333.76 169.81 333.87 C 164.17 319.25 160.07 303.90 159.12 288.20 Z" fill="#247ec7" opacity="1.00" stroke="#247ec7" stroke-width="0.25"/>
<path d="M 162.22 299.50 C 164.61 295.50 161.99 290.48 164.60 286.73 C 167.44 290.47 167.48 295.72 171.07 298.93 C 173.36 300.87 173.88 303.87 174.51 306.64 C 178.07 308.90 181.58 311.44 183.74 315.17 C 185.25 318.13 188.46 319.25 191.04 321.03 C 191.96 322.83 192.28 324.91 193.35 326.65 C 195.11 327.70 197.13 328.17 199.05 328.84 C 200.46 334.54 206.81 335.87 211.00 338.95 C 215.49 342.29 222.06 342.14 225.41 347.02 C 226.65 345.80 227.80 344.45 229.30 343.55 C 231.07 343.12 232.89 343.03 234.69 342.80 C 233.36 343.81 232.70 345.31 232.51 346.93 C 239.19 348.12 246.18 346.12 252.65 348.60 C 255.75 349.91 258.86 347.80 262.00 347.72 C 265.49 346.98 269.97 348.15 272.46 344.99 C 278.13 345.98 283.08 341.66 288.73 341.41 C 282.59 353.28 272.15 362.98 259.89 368.33 C 247.77 373.93 234.04 374.57 220.94 373.17 C 206.37 371.41 192.40 364.46 182.65 353.42 C 177.66 347.94 173.78 341.56 170.43 334.97 L 170.61 333.42 C 170.85 332.21 170.54 331.01 170.11 329.90 C 166.14 320.19 163.53 309.90 162.22 299.50 Z" fill="#3294df" opacity="1.00" stroke="#3294df" stroke-width="0.25"/>
<path d="M 92.69 346.73 C 93.20 346.65 94.23 346.47 94.75 346.39 C 95.02 348.03 95.34 349.68 95.64 351.33 C 101.06 354.44 103.23 360.94 104.74 366.65 C 106.63 367.41 108.53 368.14 110.47 368.75 C 104.84 368.97 99.07 369.78 93.52 368.44 C 92.41 366.85 92.59 364.83 92.50 363.00 C 92.50 357.57 92.53 352.15 92.69 346.73 Z" fill="#247ec7" opacity="1.00" stroke="#247ec7" stroke-width="0.25"/>
</svg>