<svg xmlns="http://www.w3.org/2000/svg" height="512pt" version="1.1" viewBox="0 0 512 512" width="512pt"><defs>
                <linearGradient id="grad-9" gradientTransform="rotate(89 0.5 0.5)">
                
                        <stop stop-color="#635d69" offset="0"></stop>
                    ,
                        <stop stop-color="#635d69" offset="0.5"></stop>
                    
                </linearGradient>
          </defs>

<path d="M 235.61 111.43 C 238.23 111.12 241.06 110.45 243.46 111.99 C 238.66 113.01 233.73 113.07 228.94 114.07 C 213.18 116.38 198.73 123.75 183.01 126.24 C 174.79 127.47 167.48 131.60 160.10 135.15 C 138.71 145.54 118.92 159.13 101.37 175.17 C 94.68 180.86 88.82 187.49 83.72 194.64 C 78.68 201.25 73.75 207.95 69.68 215.21 C 69.11 211.49 71.94 208.58 73.70 205.64 C 80.60 196.02 87.35 186.16 95.98 177.97 C 108.76 165.85 122.79 155.07 137.65 145.64 C 148.70 139.04 160.13 133.00 171.95 127.88 C 177.21 125.41 183.02 124.72 188.64 123.48 C 197.70 121.59 206.28 118.02 215.17 115.51 C 221.84 113.53 228.74 112.47 235.61 111.43 Z" fill="#af724e" opacity="1.00" stroke="#af724e" stroke-width="0.25" data-index="1" style="visibility: hidden; opacity: 1;"></path>
<path d="M 256.49 148.78 C 271.63 147.38 286.84 148.48 301.89 150.20 C 312.01 151.09 322.05 152.69 332.05 154.46 C 349.92 157.71 367.98 161.54 384.33 169.73 C 391.95 173.56 399.27 177.96 406.38 182.66 C 414.82 188.37 421.49 196.19 427.95 203.97 C 433.41 210.47 438.33 217.76 440.31 226.14 C 443.26 236.76 441.53 248.16 437.36 258.21 C 432.05 270.06 426.96 282.36 418.18 292.13 C 414.54 296.49 410.05 300.00 406.04 303.99 C 396.40 312.47 386.82 321.20 375.58 327.54 C 345.10 345.20 310.80 355.62 276.05 360.69 C 263.72 362.76 251.35 364.69 238.86 365.41 C 221.92 365.82 204.91 365.68 188.08 363.43 C 165.52 360.42 142.55 357.85 121.16 349.60 C 101.30 340.60 84.65 324.60 74.80 305.15 C 68.14 290.88 65.59 274.34 69.62 258.95 C 72.26 246.38 80.44 236.06 88.60 226.54 C 106.67 207.46 129.08 193.13 152.11 180.80 C 163.13 174.70 174.73 169.79 186.18 164.60 C 195.85 160.34 206.14 157.83 216.42 155.59 C 229.62 152.45 243.02 150.25 256.49 148.78 Z" fill="#784c36" opacity="1.00" stroke="#784c36" stroke-width="0.25" data-index="2" style="opacity: 1; visibility: visible; fill: rgb(99, 93, 105); display: none;"></path>
<path d="M 260.46 164.83 C 267.94 163.96 275.50 162.92 283.03 163.89 C 303.49 166.10 323.94 168.74 344.11 172.92 C 357.04 175.92 370.16 178.93 382.08 184.94 C 391.60 190.29 400.43 197.12 407.24 205.73 C 408.77 207.86 410.31 210.27 410.35 212.98 C 409.96 216.77 406.93 220.05 407.80 224.00 C 409.24 234.43 410.68 245.04 409.25 255.56 C 407.92 262.66 403.91 268.97 399.48 274.54 C 391.95 282.99 382.09 288.98 372.13 294.15 C 363.01 298.45 354.67 304.18 345.65 308.67 C 334.35 314.34 323.13 320.38 310.97 324.05 C 297.24 328.14 283.17 331.01 269.01 333.14 C 247.78 335.91 226.42 337.99 205.01 338.21 C 191.78 337.72 178.57 335.79 165.84 332.13 C 155.77 329.18 146.27 324.68 136.83 320.19 C 128.79 316.37 121.46 311.06 115.46 304.49 C 111.60 300.66 109.21 295.51 104.74 292.29 C 100.33 289.06 95.70 286.08 91.86 282.14 C 90.23 280.43 88.20 278.59 88.29 276.02 C 87.95 269.08 89.49 262.22 91.47 255.61 C 93.67 248.44 96.41 241.17 101.59 235.57 C 117.42 218.37 137.39 205.58 158.20 195.23 C 171.53 188.44 185.57 183.18 199.28 177.23 C 208.75 173.29 218.78 170.53 229.03 169.72 C 239.61 168.79 249.94 166.17 260.46 164.83 Z" fill="#af724e" opacity="1.00" stroke="#af724e" stroke-width="0.25" data-index="3" style="opacity: 1; visibility: visible; fill: rgb(99, 93, 105); display: none;"></path>
<path d="M 335.39 186.45 C 342.15 184.18 349.41 188.72 352.43 194.71 C 353.23 197.91 351.61 202.09 348.22 203.03 C 343.59 204.41 338.38 204.06 334.05 201.89 C 331.20 200.39 328.54 197.45 329.02 194.01 C 329.23 190.41 332.21 187.70 335.39 186.45 Z" fill="#784c36" opacity="1.00" stroke="#784c36" stroke-width="0.25" data-index="4" style="opacity: 1; visibility: visible; fill: rgb(99, 93, 105); stroke: rgb(99, 93, 105);"></path>
<path d="M 330.77 196.00 C 329.56 189.74 337.76 185.87 342.88 188.12 C 346.31 189.78 349.55 192.40 351.23 195.89 C 351.01 197.30 350.66 198.68 350.30 200.06 C 344.25 203.85 334.13 202.88 330.77 196.00 Z" fill="#ffffff" opacity="1.00" stroke="#ffffff" stroke-width="0.25" data-index="5" style="opacity: 1; visibility: visible; fill: rgb(99, 93, 105); stroke: rgb(99, 93, 105);"></path>
<path d="M 264.40 190.43 C 275.59 189.06 286.80 190.84 298.01 190.94 C 301.31 191.03 304.93 191.25 307.50 193.62 C 310.86 196.06 312.54 200.80 310.67 204.66 C 308.12 208.08 303.50 208.65 299.61 209.43 C 287.71 211.20 275.77 212.65 263.94 214.79 C 255.00 216.52 245.86 216.74 236.88 218.20 C 226.33 219.75 216.37 223.85 205.96 226.02 C 200.63 226.74 194.14 227.17 190.07 222.94 C 186.03 217.66 185.84 208.80 191.60 204.63 C 197.52 200.47 205.10 200.46 211.91 198.80 C 229.20 194.91 246.69 191.69 264.40 190.43 Z" fill="#784c36" opacity="1.00" stroke="#784c36" stroke-width="0.25" data-index="6" style="visibility: visible; fill: rgb(99, 93, 105); opacity: 1;"></path>
<path d="M 264.16 192.15 C 276.45 190.89 288.72 192.64 301.01 192.84 C 304.52 192.62 307.18 195.34 309.01 198.01 C 310.29 200.13 310.29 203.47 308.04 204.95 C 304.73 207.62 300.25 207.62 296.27 208.35 C 283.86 209.99 271.46 211.75 259.16 214.05 C 251.85 215.05 244.44 215.25 237.17 216.57 C 226.50 217.89 216.56 222.23 206.09 224.39 C 201.54 225.07 196.25 225.69 192.33 222.77 C 186.93 217.98 187.86 207.76 194.69 204.74 C 201.81 201.70 209.66 201.17 217.13 199.39 C 232.63 195.98 248.29 193.07 264.16 192.15 Z" fill="#ffffff" opacity="1.00" stroke="#ffffff" stroke-width="0.25" data-index="7" style="visibility: visible; fill: rgb(99, 93, 105); opacity: 1;"></path>

<path d="M256.49,148.78c15.14,-1.4 30.35,-0.3 45.4,1.42c10.12,0.89 20.16,2.49 30.16,4.26c17.87,3.25 35.93,7.08 52.28,15.27c7.62,3.83 14.94,8.23 22.05,12.93c8.44,5.71 15.11,13.53 21.57,21.31c5.46,6.5 10.38,13.79 12.36,22.17c2.95,10.62 1.22,22.02 -2.95,32.07c-5.31,11.85 -10.4,24.15 -19.18,33.92c-3.64,4.36 -8.13,7.87 -12.14,11.86c-9.64,8.48 -19.22,17.21 -30.46,23.55c-30.48,17.66 -64.78,28.08 -99.53,33.15c-12.33,2.07 -24.7,4 -37.19,4.72c-16.94,0.41 -33.95,0.27 -50.78,-1.98c-22.56,-3.01 -45.53,-5.58 -66.92,-13.83c-19.86,-9 -36.51,-25 -46.36,-44.45c-6.66,-14.27 -9.21,-30.81 -5.18,-46.2c2.64,-12.57 10.82,-22.89 18.98,-32.41c18.07,-19.08 40.48,-33.41 63.51,-45.74c11.02,-6.1 22.62,-11.01 34.07,-16.2c9.67,-4.26 19.96,-6.77 30.24,-9.01c13.2,-3.14 26.6,-5.34 40.07,-6.81z" id="path-3 1" fill="url(#grad-9)" fill-rule="nonzero" stroke="url(#grad-9)" stroke-width="0.25" stroke-linecap="butt" stroke-linejoin="miter" stroke-miterlimit="10" stroke-dasharray="" stroke-dashoffset="0" font-family="none" font-weight="none" font-size="none" text-anchor="none" style="mix-blend-mode: normal; opacity: 1;" data-index="9"></path></svg>