<?xml version="1.0" encoding="utf-8"?>
<svg xmlns="http://www.w3.org/2000/svg" height="512pt" version="1.1" viewBox="0 0 512 512" width="512pt">
<path d="M 0.00 0.00 L 512.00 0.00 L 512.00 512.00 L 0.00 512.00 L 0.00 0.00 Z" fill="transparent" opacity="1.00" stroke="transparent" stroke-width="0.25"/>
<path d="M 349.64 70.61 C 353.93 66.20 353.87 59.18 358.04 54.74 C 358.87 54.64 360.53 54.44 361.36 54.34 C 362.79 56.39 363.92 58.64 364.87 60.96 C 366.01 59.79 367.17 58.63 368.33 57.48 C 369.04 57.50 370.48 57.53 371.19 57.55 C 374.80 63.34 373.55 70.45 374.50 76.91 C 375.43 75.35 376.03 73.41 377.75 72.51 C 379.01 72.80 380.24 73.19 381.45 73.70 C 382.85 81.91 379.24 90.12 374.65 96.73 C 373.83 98.33 370.68 99.33 371.56 101.35 C 380.35 113.01 385.94 126.78 389.47 140.87 C 391.84 151.38 393.15 162.19 392.41 172.96 C 391.48 185.29 388.99 197.46 385.78 209.39 C 385.38 210.85 385.23 212.35 385.10 213.86 C 388.91 217.25 391.14 221.95 393.34 226.46 C 399.10 238.36 402.12 251.34 404.82 264.22 C 407.23 275.97 408.32 288.05 407.00 300.02 C 406.04 310.44 402.93 320.52 399.14 330.24 C 395.74 338.63 390.74 346.26 385.49 353.58 C 379.05 362.52 370.07 370.01 359.19 372.67 C 355.58 373.92 351.78 373.35 348.11 372.84 C 340.76 384.02 332.74 394.81 323.38 404.40 C 319.22 408.65 314.26 412.02 309.20 415.10 C 309.56 418.22 309.69 421.36 309.64 424.51 C 329.13 423.27 348.58 421.44 368.08 420.24 L 368.75 419.69 C 372.75 419.46 377.22 419.08 380.57 421.76 C 383.91 423.90 383.10 428.68 381.23 431.56 C 363.37 435.25 345.08 436.29 326.89 436.57 C 317.38 436.72 307.89 437.50 298.38 437.70 C 297.70 438.27 297.03 438.85 296.36 439.43 C 293.21 439.51 290.07 439.62 286.94 439.85 C 279.62 440.60 272.30 439.56 264.98 439.53 C 244.64 439.48 224.31 440.19 203.99 441.18 C 188.00 441.53 172.00 441.18 156.00 441.35 C 141.34 441.73 126.65 441.91 111.99 441.37 C 110.70 439.69 108.97 438.15 108.49 436.02 C 107.86 433.42 110.21 430.45 112.91 430.69 C 120.59 430.21 128.24 429.34 135.93 428.89 C 151.91 428.23 167.91 428.29 183.90 428.18 C 183.57 426.96 184.35 424.95 182.61 424.63 C 163.82 416.46 149.89 399.93 141.14 381.79 C 137.61 380.13 133.66 379.50 130.14 377.78 C 115.63 371.98 107.83 357.01 103.39 342.89 C 98.08 326.84 97.50 309.73 98.61 292.99 C 100.03 273.62 105.13 254.63 112.93 236.87 C 117.75 226.15 123.56 215.61 131.39 206.78 C 131.34 200.86 130.50 194.98 130.66 189.05 C 131.41 156.74 141.50 123.98 162.44 98.98 C 162.56 98.62 162.78 97.90 162.90 97.54 C 151.09 93.79 144.80 80.13 146.57 68.43 C 147.09 65.50 150.21 66.48 152.00 67.52 C 152.37 64.07 152.95 60.30 155.50 57.72 C 158.17 55.38 162.00 56.42 164.63 58.26 C 170.28 62.22 175.05 67.39 181.07 70.85 C 193.71 78.86 209.27 81.38 223.99 79.61 C 244.22 77.35 264.68 77.84 284.94 79.57 C 301.55 80.75 318.48 81.94 334.90 78.46 C 340.43 77.34 345.79 74.83 349.64 70.61 Z" fill="#032442" opacity="1.00" stroke="#032442" stroke-width="0.25"/>
<path d="M 362.83 67.75 C 363.90 67.74 364.98 67.74 366.06 67.74 C 367.46 74.46 368.54 81.61 366.27 88.27 C 364.09 92.77 359.23 95.09 354.76 96.73 C 342.30 101.07 329.13 102.95 316.01 103.67 C 305.37 104.75 294.09 105.00 284.57 110.49 C 271.67 117.53 263.15 130.54 258.36 144.13 C 254.39 135.51 249.22 127.29 242.33 120.71 C 233.58 112.88 222.61 107.47 211.01 105.57 C 197.33 103.32 183.58 100.25 171.09 94.04 C 166.42 91.64 161.97 87.83 160.58 82.58 C 159.55 78.06 160.73 73.46 161.52 69.00 C 170.70 78.79 182.87 86.02 196.16 88.39 C 210.68 91.42 225.54 89.00 240.05 87.13 C 261.38 83.92 282.79 88.25 304.11 89.35 C 318.67 89.67 333.91 89.72 347.46 83.62 C 354.43 80.65 360.35 75.00 362.83 67.75 Z" fill="#61defd" opacity="1.00" stroke="#61defd" stroke-width="0.25"/>
<path d="M 169.80 99.09 C 174.54 101.29 179.34 103.41 184.40 104.80 C 168.83 112.90 160.58 129.70 156.33 145.99 C 152.84 160.79 153.18 177.09 160.16 190.86 C 172.71 215.58 204.45 228.88 230.73 219.62 C 241.58 215.92 251.17 209.32 259.71 201.79 C 265.31 209.73 272.29 217.46 281.81 220.54 C 293.92 224.37 307.14 222.97 319.01 218.95 C 344.60 209.74 365.00 186.11 369.01 159.02 C 370.36 144.67 367.06 129.44 358.12 117.90 C 353.93 112.35 347.78 108.84 341.44 106.27 C 347.69 104.97 353.95 103.54 359.89 101.16 C 372.49 113.64 377.90 131.11 381.76 147.95 C 386.95 170.70 383.32 194.67 375.14 216.25 C 374.86 216.52 374.30 217.06 374.02 217.34 C 372.90 215.00 371.96 212.57 370.56 210.39 C 369.84 208.67 367.77 209.37 366.35 209.20 C 364.84 211.52 362.54 213.97 363.71 216.95 C 370.44 245.50 370.72 275.61 363.84 304.16 C 360.49 320.28 355.04 335.93 347.79 350.71 C 340.10 367.68 329.80 383.46 317.27 397.25 C 313.11 401.32 308.77 405.21 303.99 408.55 C 299.37 406.90 293.95 408.28 290.77 412.02 C 289.71 407.31 287.97 402.05 283.31 399.77 C 278.98 398.04 274.10 400.03 270.50 402.54 C 265.24 406.32 262.66 412.53 261.05 418.59 C 251.97 419.16 242.88 419.44 233.79 419.65 C 233.49 415.38 232.21 410.12 227.69 408.53 C 222.91 407.69 218.44 410.03 214.24 411.96 C 213.33 409.07 212.33 406.08 210.18 403.86 C 206.13 399.04 198.14 398.22 193.25 402.20 C 188.83 405.73 186.55 411.11 185.00 416.40 C 169.31 409.02 157.79 394.97 150.47 379.54 C 139.31 357.71 131.91 333.66 131.27 309.04 C 130.26 282.22 131.62 254.33 142.70 229.45 C 144.78 223.94 147.55 218.72 150.84 213.83 C 152.41 211.64 152.92 208.95 152.78 206.29 C 151.33 206.37 149.84 206.27 148.42 206.63 C 145.49 208.79 143.18 211.70 141.00 214.59 C 140.44 214.32 139.32 213.78 138.76 213.51 C 138.16 207.38 138.38 201.22 137.92 195.08 C 137.13 176.59 140.21 158.03 146.24 140.55 C 151.76 125.51 161.11 112.40 169.80 99.09 Z" fill="#b2f0fe" opacity="1.00" stroke="#b2f0fe" stroke-width="0.25"/>
<path d="M 166.59 130.52 C 170.85 119.82 179.65 111.30 190.03 106.53 C 196.30 108.08 202.62 109.38 209.02 110.21 C 222.40 111.96 234.78 119.24 243.62 129.32 C 249.36 135.70 252.91 143.61 256.57 151.28 C 250.65 156.10 247.25 163.07 243.76 169.67 C 242.45 172.17 243.88 174.86 244.84 177.20 C 248.17 184.53 251.14 192.26 256.65 198.30 C 245.54 209.25 230.76 217.19 215.02 218.27 C 197.08 218.49 179.15 210.01 168.18 195.76 C 162.84 187.80 159.28 178.58 158.78 168.95 C 157.76 155.75 160.51 142.28 166.59 130.52 Z" fill="#ffffff" opacity="1.00" stroke="#ffffff" stroke-width="0.25"/>
<path d="M 305.03 110.50 C 315.03 109.03 325.17 107.88 335.28 108.71 C 340.57 110.76 346.20 112.46 350.48 116.37 C 359.66 124.21 363.45 136.44 364.51 148.09 C 365.72 162.65 360.12 177.01 351.64 188.64 C 344.23 198.26 334.99 206.70 323.88 211.84 C 312.17 217.17 298.81 220.12 286.04 217.36 C 275.67 215.46 268.06 207.12 262.35 198.82 C 270.96 189.94 273.78 176.82 271.75 164.86 C 271.13 158.77 266.72 153.20 261.06 150.97 C 265.73 139.11 271.56 126.81 282.00 118.94 C 288.62 113.87 296.92 111.75 305.03 110.50 Z" fill="#ffffff" opacity="1.00" stroke="#ffffff" stroke-width="0.25"/>
<path d="M 300.96 123.10 C 306.52 121.10 312.58 121.99 317.97 124.08 C 328.63 129.25 336.58 140.84 335.42 152.96 C 334.27 165.86 325.08 177.56 312.77 181.66 C 297.04 188.19 277.71 176.49 274.65 160.14 C 274.17 154.02 273.61 147.34 276.87 141.83 C 282.01 132.72 291.23 126.48 300.96 123.10 Z" fill="#032442" opacity="1.00" stroke="#032442" stroke-width="0.25"/>
<path d="M 212.96 125.84 C 220.77 124.60 229.36 126.07 235.39 131.48 C 241.89 136.51 245.05 144.93 244.51 153.02 C 244.49 168.84 230.78 183.20 214.98 184.02 C 205.82 184.39 196.19 180.86 190.43 173.52 C 185.03 166.88 184.23 157.63 185.65 149.48 C 189.01 137.17 200.46 127.77 212.96 125.84 Z" fill="#032442" opacity="1.00" stroke="#032442" stroke-width="0.25"/>
<path d="M 306.05 126.94 C 311.90 126.37 317.78 129.16 321.47 133.66 C 326.81 139.94 330.04 148.56 328.39 156.82 C 326.76 164.18 321.82 170.40 315.85 174.81 C 311.20 177.97 305.25 179.43 299.75 177.90 C 295.04 176.65 290.11 174.94 286.82 171.14 C 283.94 168.02 280.73 164.63 280.30 160.19 C 279.36 153.89 279.42 146.79 283.56 141.55 C 289.34 134.63 296.84 128.26 306.05 126.94 Z" fill="#ffffff" opacity="1.00" stroke="#ffffff" stroke-width="0.25"/>
<path d="M 197.38 140.36 C 203.76 133.80 213.22 130.35 222.34 131.53 C 223.74 137.15 230.11 138.61 234.06 141.96 C 238.67 145.84 238.48 152.60 237.61 158.04 C 235.09 171.17 220.33 180.01 207.50 176.70 C 201.39 175.64 196.11 171.38 193.47 165.82 C 189.68 157.55 190.95 146.99 197.38 140.36 Z" fill="#ffffff" opacity="1.00" stroke="#ffffff" stroke-width="0.25"/>
<path d="M 290.73 144.33 C 293.79 140.49 297.61 136.23 302.95 136.25 C 309.49 135.40 315.70 139.31 319.17 144.63 C 322.23 149.91 321.92 156.73 318.85 161.93 C 312.81 170.62 297.91 170.76 292.18 161.66 C 288.95 157.44 289.16 151.90 289.64 146.89 C 290.01 146.04 290.37 145.18 290.73 144.33 Z" fill="#032442" opacity="1.00" stroke="#032442" stroke-width="0.25"/>
<path d="M 211.68 140.06 C 217.16 138.56 223.58 138.97 228.03 142.85 C 234.94 147.86 236.78 159.19 230.48 165.40 C 223.85 171.29 212.51 171.13 206.25 164.74 C 201.76 160.11 200.46 152.67 203.15 146.80 C 204.55 143.23 208.21 141.19 211.68 140.06 Z" fill="#032442" opacity="1.00" stroke="#032442" stroke-width="0.25"/>
<path d="M 257.04 157.55 C 258.06 157.52 259.08 157.50 260.11 157.49 C 261.50 159.81 263.31 162.11 263.44 164.93 C 263.83 171.30 263.78 177.69 263.58 184.06 C 263.70 187.00 262.24 189.59 261.04 192.17 C 259.89 191.72 258.46 191.59 257.88 190.33 C 255.18 185.99 253.81 180.98 251.16 176.60 C 250.16 174.72 248.53 172.66 249.48 170.42 C 251.47 165.85 254.22 161.65 257.04 157.55 Z" fill="#f2622f" opacity="1.00" stroke="#f2622f" stroke-width="0.25"/>
<path d="M 111.70 273.00 C 115.40 251.31 123.79 230.36 136.67 212.48 C 137.36 212.83 138.06 213.17 138.76 213.51 C 139.32 213.78 140.44 214.32 141.00 214.59 C 129.27 230.19 124.17 249.78 122.51 268.97 C 121.53 280.96 120.57 293.00 121.15 305.03 C 121.37 328.47 126.45 351.89 136.55 373.07 C 125.30 369.15 118.72 358.12 114.61 347.59 C 106.15 323.69 107.37 297.61 111.70 273.00 Z" fill="#61defd" opacity="1.00" stroke="#61defd" stroke-width="0.25"/>
<path d="M 375.14 216.25 L 375.93 215.50 C 380.01 221.99 383.65 228.77 386.07 236.07 C 394.56 258.40 399.61 282.89 395.08 306.69 C 391.63 325.91 382.76 344.92 367.40 357.45 C 363.02 360.66 357.88 362.61 352.92 364.73 C 358.95 353.48 364.77 342.06 368.97 329.98 C 377.06 307.26 381.19 283.02 380.14 258.89 C 379.16 245.04 377.77 231.03 373.63 217.71 L 374.02 217.34 C 374.30 217.06 374.86 216.52 375.14 216.25 Z" fill="#61defd" opacity="1.00" stroke="#61defd" stroke-width="0.25"/>
<path d="M 148.46 254.93 C 149.27 253.71 150.09 252.50 150.91 251.29 C 152.60 251.68 154.29 252.11 155.97 252.57 C 155.52 255.98 153.90 259.45 155.63 262.78 C 161.56 261.78 161.58 253.96 167.10 252.30 C 168.39 253.65 170.84 254.81 170.37 257.06 C 168.87 262.27 164.59 266.85 159.24 268.16 C 155.86 268.96 152.47 267.13 150.58 264.38 C 148.32 261.77 148.51 258.15 148.46 254.93 Z" fill="#032442" opacity="1.00" stroke="#032442" stroke-width="0.25"/>
<path d="M 338.97 263.87 C 343.61 260.80 343.07 254.06 347.87 251.19 C 348.57 251.62 349.97 252.47 350.67 252.89 C 351.40 258.59 348.67 264.68 343.78 267.75 C 338.99 270.60 331.59 266.83 332.28 260.95 C 331.97 257.98 334.90 253.80 338.09 255.96 C 339.85 258.37 335.89 261.67 338.97 263.87 Z" fill="#032442" opacity="1.00" stroke="#032442" stroke-width="0.25"/>
<path d="M 273.40 255.88 C 275.44 255.00 278.42 253.74 279.94 256.10 C 281.23 258.50 280.12 261.27 280.22 263.83 C 282.96 264.31 284.22 261.27 285.75 259.57 C 287.54 257.03 290.29 253.64 293.82 255.22 C 295.68 255.61 295.25 257.81 294.69 259.09 C 293.44 262.94 291.40 266.64 288.39 269.40 C 284.23 273.28 276.37 272.72 273.46 267.57 C 271.38 263.97 272.58 259.67 273.40 255.88 Z" fill="#032442" opacity="1.00" stroke="#032442" stroke-width="0.25"/>
<path d="M 209.65 258.45 C 211.51 258.47 213.64 258.37 214.96 259.96 C 217.11 262.59 214.00 266.01 215.48 268.89 C 219.76 268.23 221.11 263.06 224.18 260.52 C 225.95 260.45 227.73 260.41 229.51 260.39 C 231.95 266.92 226.15 272.95 221.20 276.47 C 217.87 276.75 214.02 277.07 211.40 274.56 C 207.08 270.51 207.19 263.48 209.65 258.45 Z" fill="#032442" opacity="1.00" stroke="#032442" stroke-width="0.25"/>
<path d="M 297.44 290.69 C 298.55 287.08 302.76 286.31 305.54 288.57 C 305.44 290.09 305.35 291.61 305.28 293.13 C 308.19 290.63 311.58 288.51 315.60 289.44 C 316.51 293.08 313.71 295.79 311.45 298.19 C 308.41 301.22 303.05 301.67 299.53 299.27 C 296.99 297.18 297.56 293.60 297.44 290.69 Z" fill="#032442" opacity="1.00" stroke="#032442" stroke-width="0.25"/>
<path d="M 187.88 303.28 C 184.13 297.98 188.29 290.54 193.87 288.54 C 194.60 288.83 196.07 289.42 196.81 289.71 C 197.36 293.08 195.53 296.01 193.98 298.84 C 196.85 296.07 199.89 292.73 204.32 293.42 C 206.60 296.45 204.17 299.76 202.00 302.02 C 198.53 305.88 191.90 306.84 187.88 303.28 Z" fill="#032442" opacity="1.00" stroke="#032442" stroke-width="0.25"/>
<path d="M 241.32 290.43 C 243.17 289.66 245.00 290.61 246.65 291.41 C 247.41 294.20 247.23 297.09 247.01 299.95 C 250.42 297.37 250.72 292.26 254.89 290.38 C 255.57 290.74 256.93 291.46 257.60 291.82 C 259.26 296.41 256.64 301.17 253.14 304.10 C 250.87 306.11 247.66 306.07 244.83 306.50 C 242.72 305.26 240.06 304.36 239.05 301.92 C 237.45 298.10 238.51 293.41 241.32 290.43 Z" fill="#032442" opacity="1.00" stroke="#032442" stroke-width="0.25"/>
<path d="M 145.63 293.45 C 147.60 293.55 150.61 292.44 151.56 294.87 C 151.77 296.93 151.50 299.01 151.45 301.08 C 153.28 298.92 154.69 295.34 158.05 295.59 C 160.61 296.42 162.60 299.46 161.05 302.03 C 158.79 308.07 149.40 309.80 145.48 304.50 C 143.39 301.20 144.01 296.83 145.63 293.45 Z" fill="#032442" opacity="1.00" stroke="#032442" stroke-width="0.25"/>
<path d="M 323.02 319.97 C 324.96 318.23 327.60 319.29 329.39 320.66 C 329.35 322.03 329.31 323.41 329.29 324.80 C 331.58 322.50 333.55 319.26 337.04 318.77 C 338.26 319.00 339.47 319.33 340.65 319.75 C 341.12 325.80 337.33 331.28 332.54 334.60 C 327.63 337.83 320.04 333.91 319.82 328.01 C 319.86 325.09 321.01 322.11 323.02 319.97 Z" fill="#032442" opacity="1.00" stroke="#032442" stroke-width="0.25"/>
<path d="M 172.00 323.70 C 174.46 322.84 176.20 324.82 177.51 326.57 C 176.78 328.30 176.09 330.05 175.57 331.87 C 178.18 330.12 180.24 327.69 182.85 325.97 C 185.02 324.71 187.61 325.57 189.63 326.70 C 188.86 329.40 188.39 332.16 188.03 334.94 C 184.30 339.03 178.21 339.33 173.13 338.38 C 166.88 336.54 166.80 326.74 172.00 323.70 Z" fill="#032442" opacity="1.00" stroke="#032442" stroke-width="0.25"/>
<path d="M 263.24 331.06 C 263.29 328.97 262.83 325.97 265.13 324.88 C 266.89 324.14 268.71 325.39 270.45 325.72 C 270.91 328.60 270.29 331.84 272.07 334.36 C 276.81 331.87 279.00 324.35 285.30 325.67 C 286.96 330.74 283.71 335.85 279.76 338.81 C 276.77 341.13 272.69 341.12 269.15 340.35 C 265.41 338.94 263.20 334.97 263.24 331.06 Z" fill="#032442" opacity="1.00" stroke="#032442" stroke-width="0.25"/>
<path d="M 209.56 353.32 C 211.08 353.36 212.61 353.41 214.14 353.48 C 214.45 354.04 215.07 355.16 215.39 355.72 C 214.66 357.92 214.02 360.15 213.49 362.41 C 213.80 362.74 214.41 363.39 214.72 363.72 C 218.33 360.29 221.56 353.89 227.46 355.41 C 228.30 363.95 219.26 372.95 210.70 369.32 C 204.21 366.67 205.61 357.66 209.56 353.32 Z" fill="#032442" opacity="1.00" stroke="#032442" stroke-width="0.25"/>
<path d="M 288.06 366.12 C 286.57 362.13 288.78 357.99 291.79 355.41 C 293.59 355.75 295.67 355.70 297.08 357.08 C 297.95 358.53 297.63 360.36 297.96 361.97 C 300.34 359.85 303.19 358.31 306.46 358.34 C 309.57 361.48 306.78 365.63 304.20 368.05 C 301.27 371.00 296.70 371.11 292.88 370.23 C 290.81 369.61 288.64 368.36 288.06 366.12 Z" fill="#032442" opacity="1.00" stroke="#032442" stroke-width="0.25"/>
<path d="M 243.47 384.08 C 242.73 379.54 247.41 376.28 251.59 377.18 C 252.75 380.07 251.44 383.02 251.10 385.94 C 253.04 383.92 254.39 381.44 256.28 379.38 C 257.78 377.86 259.92 379.27 261.63 379.57 C 261.79 382.38 261.94 385.60 259.47 387.54 C 255.12 392.38 244.16 391.62 243.47 384.08 Z" fill="#032442" opacity="1.00" stroke="#032442" stroke-width="0.25"/>
<path d="M 197.48 405.45 C 200.30 405.40 203.78 404.61 205.70 407.32 C 209.93 412.33 208.09 419.41 208.46 425.41 C 209.43 425.48 211.39 425.63 212.36 425.71 C 213.63 422.17 214.63 418.21 217.92 415.95 C 220.31 413.70 224.00 413.98 226.62 415.66 C 226.85 420.91 227.17 426.28 225.27 431.29 C 222.16 433.49 218.44 431.20 215.02 431.39 C 211.27 430.89 207.51 432.17 203.80 431.47 C 205.21 431.27 206.63 431.13 208.06 431.07 L 208.01 430.77 C 202.85 430.71 197.71 430.30 192.55 430.32 C 191.17 428.79 188.96 427.40 189.52 425.03 C 190.00 417.93 191.40 410.00 197.48 405.45 Z" fill="#fd9a21" opacity="1.00" stroke="#fd9a21" stroke-width="0.25"/>
<path d="M 266.53 429.41 C 265.41 420.22 267.78 408.64 276.99 404.39 C 281.44 405.13 284.06 408.86 285.47 412.83 C 285.56 415.94 285.46 419.08 284.76 422.13 C 284.95 422.65 285.33 423.68 285.53 424.20 C 286.18 424.58 287.49 425.33 288.14 425.70 C 291.14 420.97 293.75 414.35 300.36 414.18 C 302.02 419.14 302.14 424.95 299.20 429.46 C 293.79 429.52 288.37 429.16 282.98 429.75 C 277.52 430.38 271.92 430.73 266.53 429.41 Z" fill="#fd9a21" opacity="1.00" stroke="#fd9a21" stroke-width="0.25"/>
<path d="M 232.74 427.84 C 242.13 426.46 251.67 426.47 261.14 426.50 C 253.51 427.63 245.76 427.20 238.10 428.04 C 236.31 428.23 234.51 428.16 232.74 427.84 Z" fill="#ffffff" opacity="1.00" stroke="#ffffff" stroke-width="0.25"/>
</svg>