<?xml version="1.0" encoding="utf-8"?>
<svg xmlns="http://www.w3.org/2000/svg" height="512pt" version="1.1" viewBox="0 0 512 512" width="512pt">
<path d="M 0.00 0.00 L 512.00 0.00 L 512.00 512.00 L 0.00 512.00 L 0.00 0.00 Z" fill="transparent" opacity="1.00" stroke="transparent" stroke-width="0.25"/>
<path d="M 220.56 71.62 C 221.82 70.52 223.45 70.40 225.04 70.44 C 227.85 74.26 230.39 78.27 233.11 82.15 C 247.79 82.53 262.50 82.18 277.18 82.33 C 280.04 78.27 282.71 74.08 285.74 70.14 C 289.32 70.69 291.96 73.36 294.93 75.19 C 304.24 81.21 313.41 87.45 322.80 93.35 C 336.27 106.79 350.23 119.82 363.97 133.04 C 388.53 156.63 412.99 180.34 437.47 204.03 C 437.19 205.29 437.44 206.84 436.32 207.74 C 428.35 216.02 420.59 224.50 412.60 232.76 C 408.39 237.01 404.91 242.06 399.96 245.52 C 398.98 245.02 397.95 244.63 397.07 243.98 C 381.40 230.26 365.71 216.56 350.01 202.87 C 343.78 197.31 337.15 192.19 331.25 186.27 C 331.23 190.24 332.01 194.13 332.58 198.04 C 335.70 216.61 338.01 235.30 341.11 253.87 C 342.12 260.58 343.29 267.26 344.13 274.00 C 344.49 275.58 344.07 277.14 343.69 278.68 C 341.54 278.97 339.39 279.13 337.23 279.20 C 337.12 330.81 337.23 382.42 337.18 434.03 C 337.10 435.20 336.83 436.34 336.39 437.46 C 318.86 438.48 301.39 440.55 283.85 441.37 C 282.15 441.85 281.26 440.48 281.13 439.03 C 273.38 395.36 265.34 351.74 257.40 308.11 C 256.46 303.90 256.22 299.53 254.81 295.45 C 248.38 330.26 242.31 365.15 235.92 399.97 C 233.12 413.70 231.49 427.68 228.24 441.31 C 209.91 440.70 191.64 438.70 173.35 437.33 C 172.64 432.24 172.98 427.11 172.92 422.00 C 172.88 374.41 173.01 326.82 172.86 279.24 C 170.68 279.11 168.50 278.90 166.34 278.63 C 165.29 275.77 166.21 272.80 166.59 269.91 C 170.86 241.99 175.07 214.07 179.24 186.13 C 161.52 201.83 143.47 217.14 125.74 232.82 C 120.38 236.93 115.98 242.36 109.98 245.58 C 103.60 240.52 98.63 233.94 92.97 228.12 C 86.16 221.23 79.85 213.88 73.03 207.02 C 71.66 205.07 73.33 203.16 74.70 201.84 C 105.57 171.99 136.52 142.22 167.48 112.47 C 173.69 106.08 180.50 100.29 186.55 93.75 C 198.06 86.64 209.39 79.25 220.56 71.62 Z" fill="#053253" opacity="1.00" stroke="#053253" stroke-width="0.25"/>
<path d="M 287.47 77.10 C 292.19 79.93 296.53 83.34 301.19 86.26 C 294.46 93.77 286.34 99.92 279.02 106.83 C 272.22 112.92 265.52 119.10 258.63 125.09 C 258.60 123.34 258.58 121.60 258.57 119.86 C 268.19 105.60 277.96 91.44 287.47 77.10 Z" fill="#8fe8ff" opacity="1.00" stroke="#8fe8ff" stroke-width="0.25"/>
<path d="M 209.48 85.89 C 214.15 83.30 218.22 79.77 222.96 77.28 C 232.20 91.21 241.74 104.94 251.01 118.85 C 252.18 120.70 251.58 123.03 251.69 125.10 C 237.65 112.39 223.63 99.66 209.48 87.08 C 209.48 86.78 209.48 86.19 209.48 85.89 Z" fill="#8fe8ff" opacity="1.00" stroke="#8fe8ff" stroke-width="0.25"/>
<path d="M 202.55 90.75 C 203.36 90.26 204.18 89.76 205.00 89.26 C 212.26 96.90 220.44 103.58 228.05 110.86 C 236.00 117.78 243.48 125.26 251.56 132.03 C 251.88 134.33 251.93 136.66 251.92 138.99 C 251.85 183.56 251.97 228.13 251.85 272.70 C 247.35 272.75 242.84 272.73 238.34 272.75 C 238.17 226.83 238.30 180.91 238.27 134.99 C 238.15 131.10 238.80 127.07 237.71 123.28 C 235.28 119.75 231.55 117.41 228.55 114.41 C 222.65 108.69 216.33 103.41 210.50 97.61 C 208.00 95.15 205.30 92.92 202.55 90.75 Z" fill="#ffffff" opacity="1.00" stroke="#ffffff" stroke-width="0.25"/>
<path d="M 237.22 88.55 C 249.15 88.60 261.09 88.62 273.02 88.56 C 267.31 97.55 261.08 106.20 255.34 115.18 C 248.90 106.60 243.41 97.32 237.22 88.55 Z" fill="#ffffff" opacity="1.00" stroke="#ffffff" stroke-width="0.25"/>
<path d="M 258.57 132.85 C 274.14 118.15 290.43 104.11 305.92 89.29 C 311.35 93.49 317.78 96.43 322.43 101.59 C 342.67 120.64 362.61 140.02 382.65 159.29 C 394.16 169.97 405.17 181.17 416.43 192.11 C 405.96 203.13 395.66 214.30 385.17 225.30 C 366.18 209.26 347.59 192.74 328.70 176.58 C 327.14 165.68 325.14 154.84 323.57 143.93 C 323.42 142.68 323.00 141.49 322.54 140.32 C 321.51 140.43 319.44 140.64 318.40 140.74 C 318.21 142.54 318.13 144.35 318.43 146.15 C 324.44 188.38 331.11 230.52 337.38 272.72 C 311.04 272.69 284.69 272.89 258.35 272.62 C 258.63 226.03 258.18 179.43 258.57 132.85 Z" fill="#8fe8ff" opacity="1.00" stroke="#8fe8ff" stroke-width="0.25"/>
<path d="M 190.53 98.65 C 194.31 95.70 198.69 93.62 202.55 90.75 C 205.30 92.92 208.00 95.15 210.50 97.61 C 216.33 103.41 222.65 108.69 228.55 114.41 C 231.55 117.41 235.28 119.75 237.71 123.28 C 238.80 127.07 238.15 131.10 238.27 134.99 C 238.30 180.91 238.17 226.83 238.34 272.75 C 216.43 272.69 194.52 272.83 172.61 272.69 C 179.33 229.80 185.69 186.86 192.02 143.91 C 193.03 140.91 189.75 140.29 187.57 140.20 C 186.46 142.32 186.28 144.73 185.93 147.05 C 184.45 156.78 182.91 166.49 181.43 176.22 C 162.62 192.69 143.63 208.96 124.90 225.52 C 114.33 214.55 104.06 203.31 93.56 192.28 C 99.66 186.14 105.87 180.12 112.03 174.05 C 138.28 149.00 164.28 123.70 190.53 98.65 Z" fill="#8fe8ff" opacity="1.00" stroke="#8fe8ff" stroke-width="0.25"/>
<path d="M 267.08 141.31 C 270.78 139.14 275.79 142.88 274.86 147.03 C 275.19 150.84 270.47 153.31 267.29 151.67 C 263.09 150.05 262.97 143.09 267.08 141.31 Z" fill="#053253" opacity="1.00" stroke="#053253" stroke-width="0.25"/>
<path d="M 266.23 172.28 C 269.84 170.39 274.57 174.08 273.79 178.06 C 274.00 182.18 268.76 184.69 265.47 182.43 C 261.88 180.22 262.02 173.71 266.23 172.28 Z" fill="#053253" opacity="1.00" stroke="#053253" stroke-width="0.25"/>
<path d="M 81.04 204.07 C 83.62 201.40 86.44 198.97 88.93 196.20 C 99.30 206.84 109.23 217.91 119.50 228.64 C 119.58 228.96 119.72 229.61 119.80 229.93 C 116.37 232.33 113.77 236.01 110.06 237.86 C 100.62 227.33 90.84 217.10 81.22 206.72 C 80.38 206.11 80.01 204.72 81.04 204.07 Z" fill="#8fe8ff" opacity="1.00" stroke="#8fe8ff" stroke-width="0.25"/>
<path d="M 390.98 228.09 C 400.96 217.54 410.90 206.94 420.83 196.33 C 423.64 199.66 427.42 202.11 429.76 205.83 C 419.41 216.43 409.42 227.40 399.25 238.19 C 396.67 235.52 393.85 233.11 391.03 230.71 C 389.94 230.20 390.15 228.72 390.98 228.09 Z" fill="#8fe8ff" opacity="1.00" stroke="#8fe8ff" stroke-width="0.25"/>
<path d="M 265.48 204.28 C 268.47 202.30 273.00 204.32 273.60 207.83 C 274.38 210.35 272.87 212.59 271.39 214.46 C 269.51 214.55 267.50 215.21 265.71 214.39 C 262.26 212.39 261.73 206.25 265.48 204.28 Z" fill="#053253" opacity="1.00" stroke="#053253" stroke-width="0.25"/>
<path d="M 266.18 236.12 C 269.65 234.08 274.51 236.94 274.42 240.96 C 274.78 243.26 272.97 244.92 271.73 246.58 C 269.64 246.55 267.05 247.42 265.45 245.64 C 262.49 243.34 262.68 237.83 266.18 236.12 Z" fill="#053253" opacity="1.00" stroke="#053253" stroke-width="0.25"/>
<path d="M 179.38 279.19 C 203.22 279.12 227.07 279.21 250.91 279.12 C 250.21 285.77 248.43 292.24 247.51 298.87 C 240.67 336.19 234.16 373.58 227.32 410.91 C 211.33 410.18 195.42 408.22 179.44 407.33 C 179.31 364.62 179.42 321.90 179.38 279.19 Z" fill="#8fe8ff" opacity="1.00" stroke="#8fe8ff" stroke-width="0.25"/>
<path d="M 258.99 279.19 C 282.87 279.13 306.75 279.16 330.63 279.17 C 330.75 321.90 330.63 364.63 330.68 407.35 C 314.72 408.48 298.73 409.64 282.82 411.31 C 274.89 367.27 266.61 323.28 258.99 279.19 Z" fill="#8fe8ff" opacity="1.00" stroke="#8fe8ff" stroke-width="0.25"/>
<path d="M 179.41 413.50 C 194.92 414.93 210.50 415.73 226.01 417.29 C 225.39 423.19 224.02 428.98 223.31 434.87 C 208.67 433.99 194.08 432.39 179.44 431.51 C 179.36 425.50 179.39 419.50 179.41 413.50 Z" fill="#8fe8ff" opacity="1.00" stroke="#8fe8ff" stroke-width="0.25"/>
<path d="M 287.12 417.12 C 301.55 415.57 316.09 414.89 330.54 413.47 C 330.56 415.12 330.59 416.78 330.62 418.44 C 320.38 418.40 310.23 419.95 300.01 420.43 C 295.32 420.57 290.65 421.04 286.03 421.81 C 285.31 420.50 284.65 419.13 284.04 417.78 C 284.81 417.62 286.35 417.28 287.12 417.12 Z" fill="#ffffff" opacity="1.00" stroke="#ffffff" stroke-width="0.25"/>
<path d="M 283.64 417.37 C 284.79 417.28 285.95 417.19 287.12 417.12 C 286.35 417.28 284.81 417.62 284.04 417.78 C 284.65 419.13 285.31 420.50 286.03 421.81 C 290.65 421.04 295.32 420.57 300.01 420.43 C 310.23 419.95 320.38 418.40 330.62 418.44 C 330.66 422.83 330.65 427.21 330.63 431.60 C 316.00 432.33 301.43 434.01 286.81 434.85 C 286.08 428.96 284.36 423.26 283.64 417.37 Z" fill="#8fe8ff" opacity="1.00" stroke="#8fe8ff" stroke-width="0.25"/>
</svg>