<svg xmlns="http://www.w3.org/2000/svg" height="512pt" version="1.1" viewBox="0 0 512 512" width="512pt">

<path d="M 390.47 87.56 C 393.45 84.31 398.22 83.68 402.32 84.74 C 406.01 86.01 408.37 89.31 411.07 91.92 C 414.31 95.04 417.42 98.28 420.65 101.41 C 424.75 105.11 425.02 112.32 421.56 116.51 C 371.33 167.05 322.12 218.61 271.78 269.05 C 271.30 268.91 270.34 268.63 269.85 268.48 C 269.45 268.00 268.65 267.03 268.26 266.55 C 267.93 266.50 267.28 266.41 266.95 266.36 C 236.27 297.89 204.41 328.26 173.53 359.62 C 158.42 367.88 143.08 375.79 127.83 383.82 C 127.06 382.80 126.30 381.79 125.52 380.79 C 132.86 367.53 140.71 354.58 147.91 341.25 C 148.75 339.66 149.56 338.02 150.84 336.73 C 166.20 320.80 181.31 304.64 196.57 288.61 C 211.75 273.31 226.35 257.45 241.46 242.10 C 241.56 241.69 241.76 240.88 241.85 240.47 C 240.65 239.29 239.47 238.10 238.29 236.91 C 288.55 186.67 340.00 137.60 390.47 87.56 Z" fill="#053052" opacity="1.00" stroke="#053052" stroke-width="0.25" data-index="1"></path>
<path d="M 384.52 100.46 C 392.05 107.92 399.48 115.48 407.00 122.96 C 382.30 148.59 357.74 174.35 332.67 199.60 C 324.04 208.11 315.99 217.19 307.22 225.56 C 298.96 217.23 290.67 208.92 282.31 200.69 C 300.62 182.53 319.34 164.79 337.60 146.58 C 353.44 131.41 369.10 116.06 384.52 100.46 Z" fill="#6ee4fd" opacity="1.00" stroke="#6ee4fd" stroke-width="0.25" data-index="2"></path>
<path d="M 381.23 119.45 C 386.53 117.30 391.80 123.83 388.59 128.48 C 372.45 145.73 356.38 163.04 340.06 180.12 C 338.07 182.22 336.34 185.34 332.98 185.09 C 327.96 185.58 324.38 178.58 328.04 174.97 C 343.64 158.28 359.44 141.78 375.16 125.20 C 377.14 123.27 378.60 120.55 381.23 119.45 Z" fill="#053052" opacity="1.00" stroke="#053052" stroke-width="0.25" data-index="3"></path>
<path d="M 277.77 205.41 C 278.09 205.44 278.74 205.50 279.06 205.53 C 286.93 213.18 294.71 220.94 302.50 228.68 C 303.35 230.40 301.11 231.16 300.25 232.27 C 295.30 237.26 290.32 242.23 285.37 247.23 C 280.52 251.81 276.30 257.06 271.16 261.33 C 263.01 252.80 254.44 244.68 246.35 236.10 C 249.07 233.93 251.51 231.45 254.00 229.02 C 261.86 221.10 270.02 213.45 277.77 205.41 Z" fill="#ffffff" opacity="1.00" stroke="#ffffff" stroke-width="0.25" data-index="4"></path>
<path d="M 238.35 252.40 C 240.86 249.57 243.58 246.93 246.09 244.10 C 252.06 250.46 258.85 256.12 264.32 262.91 C 246.39 280.10 229.13 297.98 211.31 315.28 C 201.57 325.15 191.40 334.58 181.88 344.66 C 176.17 339.28 170.67 333.68 165.22 328.04 C 189.72 302.94 213.84 277.49 238.35 252.40 Z" fill="#6ee4fd" opacity="1.00" stroke="#6ee4fd" stroke-width="0.25" data-index="5"></path>
<path d="M 153.99 340.20 C 156.41 337.92 158.97 335.78 160.99 333.11 C 166.22 338.33 171.47 343.54 176.50 348.96 C 174.34 351.01 172.83 353.64 170.72 355.71 C 160.07 361.05 149.35 366.29 138.83 371.88 C 138.02 372.33 137.08 372.28 136.20 372.43 C 137.19 371.22 138.11 369.95 138.77 368.53 C 143.66 358.98 149.16 349.76 153.99 340.20 Z" fill="#ffffff" opacity="1.00" stroke="#ffffff" stroke-width="0.25" data-index="6"></path>

<path d="M 157.22 378.46 C 159.38 379.57 160.99 381.41 162.15 383.51 C 166.78 391.23 171.17 399.31 173.35 408.09 C 174.39 412.56 167.34 414.34 165.12 410.89 C 160.09 404.58 157.41 396.76 155.15 389.11 C 154.35 385.48 153.28 380.62 157.22 378.46 Z" fill="#6ee4fd" opacity="1.00" stroke="#6ee4fd" stroke-width="0.25" data-index="8" style="visibility: hidden; opacity: 1;"></path>

<path d="M 95.54 392.69 C 98.68 391.15 102.09 390.24 105.61 390.27 C 105.62 391.40 105.66 392.54 105.72 393.67 C 102.67 395.70 99.49 398.14 95.58 397.59 C 95.57 395.96 95.56 394.32 95.54 392.69 Z" fill="#6ee4fd" opacity="1.00" stroke="#6ee4fd" stroke-width="0.25" data-index="10" style="visibility: hidden; opacity: 1;"></path>

<path d="M 161.68 422.67 C 162.99 422.61 164.29 422.53 165.59 422.45 C 168.81 425.61 170.51 430.05 169.48 434.54 C 162.84 435.95 160.66 427.70 161.68 422.67 Z" fill="#6ee4fd" opacity="1.00" stroke="#6ee4fd" stroke-width="0.25" data-index="12" style="visibility: hidden; opacity: 1;"></path>
</svg>