<svg xmlns="http://www.w3.org/2000/svg" height="512pt" version="1.1" viewBox="0 0 512 512" width="512pt">

<path d="M 307.97 58.54 C 333.00 58.57 358.03 58.43 383.06 58.70 C 389.10 58.83 395.48 58.30 401.16 60.75 C 405.41 62.67 406.34 67.74 406.41 71.93 C 407.27 123.28 407.25 174.64 407.21 226.01 C 407.25 270.19 407.36 314.38 407.66 358.57 C 407.04 358.98 406.44 359.40 405.85 359.84 C 405.13 264.56 405.82 169.28 404.68 74.01 C 404.42 70.04 404.59 64.68 400.50 62.54 C 395.20 60.21 389.25 60.80 383.61 60.58 C 334.41 60.22 285.20 60.52 236.00 60.45 C 197.33 60.44 158.66 60.49 120.00 60.74 C 115.13 60.96 110.02 60.69 105.46 62.65 C 101.95 64.53 102.28 69.17 101.82 72.56 C 101.28 90.76 101.19 108.98 101.18 127.19 C 104.38 127.18 107.58 127.18 110.78 127.29 C 110.52 134.44 110.59 141.59 110.81 148.73 L 109.81 148.71 C 109.65 142.15 109.96 135.57 109.69 129.01 L 109.63 128.06 C 105.17 127.58 100.68 127.95 96.23 128.33 C 95.65 135.67 95.27 143.10 96.20 150.42 C 89.46 149.39 82.62 150.18 75.84 149.86 C 75.76 155.35 75.80 160.84 75.85 166.33 C 82.72 166.29 89.58 166.39 96.45 166.19 C 96.63 166.26 97.00 166.42 97.19 166.49 C 96.62 166.78 95.49 167.37 94.92 167.66 C 88.16 168.70 81.05 167.96 74.16 167.94 C 74.03 161.42 74.19 154.90 74.10 148.38 C 80.99 148.12 87.89 148.27 94.78 148.36 C 95.00 141.40 94.92 134.43 94.78 127.47 C 96.31 127.34 97.84 127.21 99.38 127.11 C 99.31 110.74 99.58 94.38 99.74 78.01 C 99.87 73.40 99.75 68.62 101.38 64.23 C 102.81 61.34 106.05 60.01 109.08 59.58 C 119.34 58.44 129.68 58.95 139.99 58.81 C 195.98 58.45 251.98 58.52 307.97 58.54 Z" fill="#23313c" opacity="1.00" stroke="#23313c" stroke-width="0.25" data-index="1" style="opacity: 1;"></path>
<path d="M 120.00 60.74 C 158.66 60.49 197.33 60.44 236.00 60.45 C 285.20 60.52 334.41 60.22 383.61 60.58 C 389.25 60.80 395.20 60.21 400.50 62.54 C 404.59 64.68 404.42 70.04 404.68 74.01 C 405.82 169.28 405.13 264.56 405.85 359.84 C 400.88 363.50 396.84 368.22 393.14 373.12 C 390.13 366.93 384.14 362.07 377.14 361.52 C 376.62 335.01 377.08 308.49 376.75 281.98 C 376.72 219.31 375.81 156.66 375.44 94.00 C 375.39 92.27 375.66 89.80 373.10 90.55 C 293.40 90.64 213.70 90.62 134.00 90.56 C 132.51 90.37 129.95 90.85 130.46 92.95 C 130.52 111.41 130.79 129.89 130.61 148.35 C 124.23 148.24 117.85 148.28 111.47 148.23 C 111.41 141.25 111.45 134.28 111.45 127.31 L 110.78 127.29 C 107.58 127.18 104.38 127.18 101.18 127.19 C 101.19 108.98 101.28 90.76 101.82 72.56 C 102.28 69.17 101.95 64.53 105.46 62.65 C 110.02 60.69 115.13 60.96 120.00 60.74 Z" fill="#ffffff" opacity="1.00" stroke="#ffffff" stroke-width="0.25" data-index="2" style="opacity: 1;"></path>
<path d="M 130.46 92.95 C 129.95 90.85 132.51 90.37 134.00 90.56 C 213.70 90.62 293.40 90.64 373.10 90.55 C 375.66 89.80 375.39 92.27 375.44 94.00 C 375.81 156.66 376.72 219.31 376.75 281.98 C 377.08 308.49 376.62 335.01 377.14 361.52 C 376.67 361.49 375.73 361.45 375.26 361.43 C 375.38 287.60 374.64 213.78 374.15 139.96 C 373.70 124.06 374.05 108.14 373.43 92.25 L 373.06 92.23 C 292.77 92.30 212.48 92.35 132.19 92.29 C 132.31 111.21 131.97 130.16 132.55 149.08 C 125.32 148.41 118.05 149.03 110.81 148.73 C 110.59 141.59 110.52 134.44 110.78 127.29 L 111.45 127.31 C 111.45 134.28 111.41 141.25 111.47 148.23 C 117.85 148.28 124.23 148.24 130.61 148.35 C 130.79 129.89 130.52 111.41 130.46 92.95 Z" fill="#002539" opacity="1.00" stroke="#002539" stroke-width="0.25" data-index="3"></path>
<path d="M 132.19 92.29 C 212.48 92.35 292.77 92.30 373.06 92.23 C 373.06 94.44 373.05 96.66 373.04 98.88 C 295.37 99.50 217.68 99.42 140.01 99.34 C 139.83 101.55 139.66 103.77 139.63 105.99 C 139.72 147.34 140.79 188.67 140.66 230.01 C 141.28 283.99 141.39 337.97 141.79 391.95 C 141.80 394.00 142.22 396.01 142.77 397.98 C 142.12 400.02 141.46 402.06 140.80 404.11 C 138.45 404.18 136.10 404.24 133.75 404.29 C 133.00 330.20 132.75 256.11 132.38 182.02 C 132.35 177.29 132.23 172.56 132.52 167.83 C 132.86 161.59 132.90 155.32 132.55 149.08 C 131.97 130.16 132.31 111.21 132.19 92.29 Z" fill="#7ab6d6" opacity="1.00" stroke="#7ab6d6" stroke-width="0.25" data-index="4"></path>
<path d="M 373.06 92.23 L 373.43 92.25 C 374.05 108.14 373.70 124.06 374.15 139.96 C 374.64 213.78 375.38 287.60 375.26 361.43 L 374.10 361.40 C 369.57 349.81 365.02 337.80 356.47 328.49 C 351.17 322.97 343.79 319.99 336.45 318.35 C 324.25 315.61 311.79 314.36 299.36 313.25 C 295.24 312.79 291.12 312.45 286.99 312.12 C 287.02 309.20 287.06 306.28 287.14 303.37 C 288.32 302.99 289.50 302.62 290.70 302.27 C 294.62 305.64 300.27 305.95 304.90 303.92 C 311.47 301.56 315.61 295.67 320.82 291.42 C 323.91 290.03 325.94 293.37 328.07 294.98 C 332.49 299.16 339.80 299.22 344.54 295.54 C 349.78 291.46 352.79 285.23 354.56 278.97 C 356.55 271.62 357.20 263.98 357.59 256.40 C 357.95 243.94 358.04 231.44 356.82 219.02 C 356.08 209.30 354.39 199.69 353.09 190.04 C 351.47 179.62 352.67 169.01 351.13 158.59 C 349.45 148.95 344.62 139.13 335.92 134.05 C 332.31 131.79 328.13 130.81 324.09 129.63 C 324.08 124.70 326.40 119.75 324.86 114.88 C 324.15 111.94 320.73 110.35 317.92 111.05 C 314.43 111.85 311.26 113.60 307.87 114.72 C 302.52 116.76 296.63 117.09 291.01 116.25 C 286.30 115.54 282.29 112.84 278.19 110.62 C 271.30 106.88 264.03 103.42 256.17 102.42 C 239.84 99.83 223.47 104.67 208.44 110.71 C 194.71 116.32 181.56 125.43 174.72 138.96 C 168.80 149.65 168.32 162.16 167.63 174.07 C 167.57 180.63 164.57 186.65 163.59 193.08 C 160.85 208.87 160.17 224.97 160.50 240.98 C 160.81 253.82 162.04 266.87 166.73 278.93 C 168.55 283.54 170.31 288.93 175.01 291.38 C 179.20 292.81 181.95 286.17 185.96 288.21 C 190.92 292.93 192.97 300.22 198.82 304.15 C 201.74 306.16 206.05 307.57 209.14 305.11 C 212.16 302.76 213.19 298.84 215.07 295.65 C 219.34 298.67 221.59 304.31 226.95 305.74 C 229.30 306.74 231.64 305.51 233.77 304.58 C 233.92 307.16 234.10 309.74 234.23 312.32 C 234.25 313.04 234.29 314.46 234.31 315.17 C 224.03 316.11 213.76 317.38 203.61 319.29 C 195.28 320.87 186.83 322.98 179.60 327.60 C 172.81 331.80 168.42 338.73 164.26 345.34 C 154.57 361.73 149.19 380.17 142.77 397.98 C 142.22 396.01 141.80 394.00 141.79 391.95 C 141.39 337.97 141.28 283.99 140.66 230.01 C 140.79 188.67 139.72 147.34 139.63 105.99 C 139.66 103.77 139.83 101.55 140.01 99.34 C 217.68 99.42 295.37 99.50 373.04 98.88 C 373.05 96.66 373.06 94.44 373.06 92.23 Z" fill="#b3eeff" opacity="1.00" stroke="#b3eeff" stroke-width="0.25" data-index="5" style="opacity: 1;"></path>

<path d="M 411.82 94.02 C 413.49 93.54 414.08 94.10 413.60 95.68 C 411.91 96.16 411.31 95.60 411.82 94.02 Z" fill="#fbfcff" opacity="1.00" stroke="#fbfcff" stroke-width="0.25" data-index="7"></path>

<path d="M 412.33 101.42 C 413.86 101.32 413.82 103.86 412.29 103.74 C 410.75 103.84 410.87 101.36 412.33 101.42 Z" fill="#fbfcff" opacity="1.00" stroke="#fbfcff" stroke-width="0.25" data-index="9" style="visibility: hidden; opacity: 1;"></path>
<path d="M 208.44 110.71 C 223.47 104.67 239.84 99.83 256.17 102.42 C 264.03 103.42 271.30 106.88 278.19 110.62 C 282.29 112.84 286.30 115.54 291.01 116.25 C 296.63 117.09 302.52 116.76 307.87 114.72 C 311.26 113.60 314.43 111.85 317.92 111.05 C 320.73 110.35 324.15 111.94 324.86 114.88 C 326.40 119.75 324.08 124.70 324.09 129.63 C 328.13 130.81 332.31 131.79 335.92 134.05 C 344.62 139.13 349.45 148.95 351.13 158.59 C 352.67 169.01 351.47 179.62 353.09 190.04 C 354.39 199.69 356.08 209.30 356.82 219.02 C 358.04 231.44 357.95 243.94 357.59 256.40 C 357.20 263.98 356.55 271.62 354.56 278.97 C 352.79 285.23 349.78 291.46 344.54 295.54 C 339.80 299.22 332.49 299.16 328.07 294.98 C 325.94 293.37 323.91 290.03 320.82 291.42 C 315.61 295.67 311.47 301.56 304.90 303.92 C 300.27 305.95 294.62 305.64 290.70 302.27 C 289.50 302.62 288.32 302.99 287.14 303.37 C 287.06 306.28 287.02 309.20 286.99 312.12 C 291.12 312.45 295.24 312.79 299.36 313.25 C 295.01 313.49 290.66 314.12 286.30 313.66 C 285.72 310.11 287.55 305.58 284.24 303.03 C 307.79 293.61 323.09 269.61 326.02 244.96 C 326.27 246.49 326.63 248.01 326.99 249.53 C 327.04 249.77 327.14 250.26 327.20 250.51 C 333.00 249.10 338.90 246.75 342.60 241.82 C 347.97 235.04 348.32 224.70 343.45 217.56 C 339.73 212.59 333.85 209.80 327.89 208.59 C 327.69 204.90 327.88 201.05 326.16 197.65 C 325.20 187.98 325.51 178.23 324.50 168.56 C 322.06 166.76 319.86 164.48 316.96 163.41 C 313.18 165.36 314.04 171.67 309.92 173.64 C 308.01 174.76 305.54 174.54 304.05 172.87 C 301.19 168.85 301.42 163.40 298.37 159.50 C 296.14 156.86 292.16 156.97 289.20 158.16 C 282.35 160.97 276.72 166.74 269.13 167.69 C 266.92 167.83 263.99 168.29 262.75 165.91 C 261.70 161.72 265.35 158.46 266.85 154.88 C 268.24 152.36 267.62 149.41 266.29 147.03 C 263.62 148.70 261.23 150.77 259.06 153.05 C 249.03 163.93 235.48 171.43 221.09 174.69 C 211.96 176.42 202.29 176.56 193.40 173.59 C 193.17 182.07 193.09 190.54 192.87 199.02 C 193.51 213.38 192.76 227.82 194.64 242.11 C 195.04 244.07 194.31 245.97 193.47 247.71 C 191.68 234.84 191.50 221.84 191.57 208.86 C 184.85 210.06 178.14 213.82 175.11 220.17 C 170.79 228.72 173.42 240.19 181.30 245.74 C 184.90 248.49 189.44 249.38 193.69 250.60 C 194.56 248.51 194.74 246.25 194.96 244.03 C 197.34 262.54 206.02 280.51 220.45 292.58 C 230.37 301.18 243.12 306.27 256.17 307.32 C 256.14 307.75 256.06 308.61 256.02 309.04 C 248.89 308.61 241.91 306.76 235.42 303.79 C 234.80 306.59 234.35 309.45 234.23 312.32 C 234.10 309.74 233.92 307.16 233.77 304.58 C 231.64 305.51 229.30 306.74 226.95 305.74 C 221.59 304.31 219.34 298.67 215.07 295.65 C 213.19 298.84 212.16 302.76 209.14 305.11 C 206.05 307.57 201.74 306.16 198.82 304.15 C 192.97 300.22 190.92 292.93 185.96 288.21 C 181.95 286.17 179.20 292.81 175.01 291.38 C 170.31 288.93 168.55 283.54 166.73 278.93 C 162.04 266.87 160.81 253.82 160.50 240.98 C 160.17 224.97 160.85 208.87 163.59 193.08 C 164.57 186.65 167.57 180.63 167.63 174.07 C 168.32 162.16 168.80 149.65 174.72 138.96 C 181.56 125.43 194.71 116.32 208.44 110.71 Z" fill="#21334b" opacity="1.00" stroke="#21334b" stroke-width="0.25" data-index="10"></path>

<path d="M 410.39 111.32 C 411.80 110.73 414.81 110.18 415.60 111.70 C 414.23 112.49 411.21 112.70 410.39 111.32 Z" fill="#23313c" opacity="1.00" stroke="#23313c" stroke-width="0.25" data-index="12" style="visibility: hidden; opacity: 1;"></path>

<path d="M 411.95 114.41 C 413.18 113.59 415.05 115.53 413.73 116.56 C 412.47 117.52 410.61 115.41 411.95 114.41 Z" fill="#fbfcff" opacity="1.00" stroke="#fbfcff" stroke-width="0.25" data-index="14" style="visibility: hidden;"></path>

<path d="M 410.28 125.53 C 411.83 125.02 413.42 124.66 415.06 124.59 C 415.30 125.66 415.54 126.73 415.79 127.81 C 416.12 128.32 416.77 129.36 417.10 129.87 C 416.66 129.48 415.78 128.71 415.33 128.32 C 413.33 131.26 409.57 128.46 410.28 125.53 Z" fill="#23313c" opacity="1.00" stroke="#23313c" stroke-width="0.25" data-index="16" style="visibility: hidden; opacity: 1;"></path>

<path d="M 414.15 127.16 C 414.83 127.62 414.83 127.62 414.15 127.16 Z" fill="#fbfcff" opacity="1.00" stroke="#fbfcff" stroke-width="0.25" data-index="18"></path>
<path d="M 96.23 128.33 C 100.68 127.95 105.17 127.58 109.63 128.06 L 109.69 129.01 C 105.40 128.99 101.10 129.00 96.80 129.00 C 96.86 135.95 97.10 142.90 96.81 149.85 L 96.20 150.42 C 95.27 143.10 95.65 135.67 96.23 128.33 Z" fill="#604f0a" opacity="1.00" stroke="#604f0a" stroke-width="0.25" data-index="19"></path>
<path d="M 96.80 129.00 C 101.10 129.00 105.40 128.99 109.69 129.01 C 109.96 135.57 109.65 142.15 109.81 148.71 L 109.91 149.77 C 116.44 150.05 122.98 149.97 129.51 149.89 C 130.97 155.14 130.45 160.61 130.17 165.97 C 123.30 165.98 116.41 166.34 109.56 165.67 C 115.96 164.31 122.59 165.76 129.08 164.94 C 129.30 160.97 129.83 156.94 129.12 152.99 C 128.78 151.03 126.51 151.38 125.05 151.18 C 120.00 150.97 114.93 151.16 109.90 151.69 C 107.85 144.99 109.39 137.90 108.75 131.02 C 105.32 130.33 101.82 130.20 98.33 130.37 C 98.11 135.24 98.32 140.11 98.34 144.98 C 98.26 146.69 98.46 148.78 96.81 149.85 C 97.10 142.90 96.86 135.95 96.80 129.00 Z" fill="#e1b639" opacity="1.00" stroke="#e1b639" stroke-width="0.25" data-index="20"></path>
<path d="M 98.33 130.37 C 101.82 130.20 105.32 130.33 108.75 131.02 C 109.39 137.90 107.85 144.99 109.90 151.69 C 114.93 151.16 120.00 150.97 125.05 151.18 C 126.51 151.38 128.78 151.03 129.12 152.99 C 129.83 156.94 129.30 160.97 129.08 164.94 C 122.59 165.76 115.96 164.31 109.56 165.67 C 108.89 172.36 109.72 179.10 108.87 185.79 C 105.32 185.81 101.78 185.81 98.23 185.78 C 97.27 179.38 98.69 172.81 97.19 166.49 C 97.00 166.42 96.63 166.26 96.45 166.19 C 90.32 163.97 83.55 166.04 77.18 164.79 C 76.88 160.31 76.90 155.82 77.27 151.35 C 83.57 150.91 89.98 151.69 96.20 150.42 L 96.81 149.85 C 98.46 148.78 98.26 146.69 98.34 144.98 C 98.32 140.11 98.11 135.24 98.33 130.37 Z" fill="#ffba0d" opacity="1.00" stroke="#ffba0d" stroke-width="0.25" data-index="21"></path>

<path d="M 410.29 135.91 C 410.82 134.05 413.08 134.43 414.56 134.23 C 415.04 135.41 415.53 136.59 416.03 137.77 C 415.72 138.24 415.10 139.18 414.79 139.65 C 413.47 140.06 412.16 140.50 410.86 140.96 C 412.98 142.23 415.53 141.85 417.88 142.27 C 418.08 144.27 415.48 143.58 414.24 144.23 C 414.61 146.54 417.29 150.14 414.33 151.72 C 413.89 151.45 413.00 150.89 412.56 150.62 C 409.81 152.60 409.86 149.00 410.11 147.12 C 411.58 147.05 413.06 146.98 414.55 146.92 C 414.18 146.63 413.45 146.06 413.08 145.77 C 413.02 145.36 412.90 144.53 412.84 144.12 L 412.58 143.35 C 412.43 144.17 412.14 145.82 411.99 146.64 C 411.18 145.56 410.45 144.43 409.91 143.20 C 410.71 140.82 409.98 138.33 410.29 135.91 Z" fill="#7b7f88" opacity="1.00" stroke="#7b7f88" stroke-width="0.25" data-index="23" style="opacity: 1; visibility: hidden;"></path>

<path d="M 259.06 153.05 C 261.23 150.77 263.62 148.70 266.29 147.03 C 267.62 149.41 268.24 152.36 266.85 154.88 C 265.35 158.46 261.70 161.72 262.75 165.91 C 263.99 168.29 266.92 167.83 269.13 167.69 C 276.72 166.74 282.35 160.97 289.20 158.16 C 292.16 156.97 296.14 156.86 298.37 159.50 C 301.42 163.40 301.19 168.85 304.05 172.87 C 305.54 174.54 308.01 174.76 309.92 173.64 C 314.04 171.67 313.18 165.36 316.96 163.41 C 319.86 164.48 322.06 166.76 324.50 168.56 C 325.51 178.23 325.20 187.98 326.16 197.65 C 326.16 213.42 328.19 229.25 326.02 244.96 C 323.09 269.61 307.79 293.61 284.24 303.03 C 275.42 306.69 265.69 308.15 256.17 307.32 C 243.12 306.27 230.37 301.18 220.45 292.58 C 206.02 280.51 197.34 262.54 194.96 244.03 C 194.74 246.25 194.56 248.51 193.69 250.60 C 189.44 249.38 184.90 248.49 181.30 245.74 C 173.42 240.19 170.79 228.72 175.11 220.17 C 178.14 213.82 184.85 210.06 191.57 208.86 C 191.50 221.84 191.68 234.84 193.47 247.71 C 194.31 245.97 195.04 244.07 194.64 242.11 C 192.76 227.82 193.51 213.38 192.87 199.02 C 193.09 190.54 193.17 182.07 193.40 173.59 C 202.29 176.56 211.96 176.42 221.09 174.69 C 235.48 171.43 249.03 163.93 259.06 153.05 Z" fill="#ffffff" opacity="1.00" stroke="#ffffff" stroke-width="0.25" data-index="25"></path>
<path d="M 109.81 148.71 L 110.81 148.73 C 118.05 149.03 125.32 148.41 132.55 149.08 C 132.90 155.32 132.86 161.59 132.52 167.83 L 130.66 167.94 C 124.25 168.30 117.82 168.02 111.41 168.09 L 110.78 168.12 C 110.49 174.76 110.76 181.41 110.72 188.05 C 107.04 188.28 103.36 188.38 99.68 188.51 C 98.27 188.56 96.87 188.62 95.46 188.68 C 94.91 181.68 95.66 174.64 94.92 167.66 C 95.49 167.37 96.62 166.78 97.19 166.49 C 96.79 173.32 97.09 180.17 97.00 187.00 C 101.31 186.99 105.63 187.02 109.95 186.97 C 110.06 180.20 109.89 173.42 109.91 166.65 C 116.90 166.30 123.91 166.32 130.90 166.66 C 131.05 161.06 130.99 155.46 131.00 149.86 C 130.63 149.87 129.88 149.89 129.51 149.89 C 122.98 149.97 116.44 150.05 109.91 149.77 L 109.81 148.71 Z" fill="#303217" opacity="1.00" stroke="#303217" stroke-width="0.25" data-index="26"></path>
<path d="M 75.84 149.86 C 82.62 150.18 89.46 149.39 96.20 150.42 C 89.98 151.69 83.57 150.91 77.27 151.35 C 76.90 155.82 76.88 160.31 77.18 164.79 C 83.55 166.04 90.32 163.97 96.45 166.19 C 89.58 166.39 82.72 166.29 75.85 166.33 C 75.80 160.84 75.76 155.35 75.84 149.86 Z" fill="#e7bd3e" opacity="1.00" stroke="#e7bd3e" stroke-width="0.25" data-index="27"></path>
<path d="M 129.51 149.89 C 129.88 149.89 130.63 149.87 131.00 149.86 C 130.99 155.46 131.05 161.06 130.90 166.66 C 123.91 166.32 116.90 166.30 109.91 166.65 C 109.89 173.42 110.06 180.20 109.95 186.97 C 105.63 187.02 101.31 186.99 97.00 187.00 C 97.09 180.17 96.79 173.32 97.19 166.49 C 98.69 172.81 97.27 179.38 98.23 185.78 C 101.78 185.81 105.32 185.81 108.87 185.79 C 109.72 179.10 108.89 172.36 109.56 165.67 C 116.41 166.34 123.30 165.98 130.17 165.97 C 130.45 160.61 130.97 155.14 129.51 149.89 Z" fill="#ab953d" opacity="1.00" stroke="#ab953d" stroke-width="0.25" data-index="28"></path>

<path d="M 412.47 154.80 C 413.16 154.74 414.55 154.63 415.24 154.57 C 413.88 156.23 414.12 157.38 415.98 158.02 C 415.12 158.31 414.28 158.60 413.43 158.90 C 413.93 157.35 413.61 155.98 412.47 154.80 Z" fill="#23313c" opacity="1.00" stroke="#23313c" stroke-width="0.25" data-index="30" style="visibility: hidden; opacity: 1;"></path>

<path d="M 409.06 166.69 C 410.90 166.17 412.88 165.29 414.81 166.02 C 415.09 167.80 416.47 171.22 413.05 171.03 C 413.34 170.00 413.93 167.96 414.22 166.94 C 411.30 166.73 411.97 169.32 412.38 171.28 C 411.27 170.25 410.86 168.92 411.16 167.28 L 409.06 166.69 Z" fill="#23313c" opacity="1.00" stroke="#23313c" stroke-width="0.25" data-index="32" style="visibility: hidden; opacity: 1;"></path>
<path d="M 110.78 168.12 L 111.41 168.09 C 111.41 174.91 111.44 181.74 111.46 188.56 C 108.16 188.62 104.87 188.65 101.58 188.66 C 101.80 241.12 102.13 293.57 102.26 346.03 C 102.45 371.65 102.36 397.28 102.88 422.90 C 103.34 426.25 102.70 430.26 104.95 433.04 C 108.70 435.68 113.62 435.53 118.02 435.82 C 156.68 436.85 195.36 435.69 234.03 435.77 C 251.93 435.74 269.84 435.79 287.75 435.88 C 287.85 436.35 288.04 437.28 288.14 437.74 C 235.11 437.18 182.08 437.91 129.05 437.86 C 121.57 437.60 113.89 438.14 106.62 436.04 C 104.01 435.38 102.29 433.08 101.83 430.51 C 100.99 425.39 101.27 420.18 101.00 415.03 C 100.17 339.53 100.56 264.01 99.68 188.51 C 103.36 188.38 107.04 188.28 110.72 188.05 C 110.76 181.41 110.49 174.76 110.78 168.12 Z" fill="#132533" opacity="1.00" stroke="#132533" stroke-width="0.25" data-index="33"></path>
<path d="M 111.41 168.09 C 117.82 168.02 124.25 168.30 130.66 167.94 C 130.88 238.61 131.43 309.27 131.81 379.95 C 131.83 388.55 132.23 397.15 132.30 405.75 C 178.87 406.57 225.45 405.69 272.03 406.00 C 301.30 406.01 330.58 405.91 359.85 405.78 C 364.52 416.80 371.93 426.48 379.52 435.64 C 348.95 436.37 318.34 435.68 287.75 435.88 C 269.84 435.79 251.93 435.74 234.03 435.77 C 195.36 435.69 156.68 436.85 118.02 435.82 C 113.62 435.53 108.70 435.68 104.95 433.04 C 102.70 430.26 103.34 426.25 102.88 422.90 C 102.36 397.28 102.45 371.65 102.26 346.03 C 102.13 293.57 101.80 241.12 101.58 188.66 C 104.87 188.65 108.16 188.62 111.46 188.56 C 111.44 181.74 111.41 174.91 111.41 168.09 Z" fill="#ffffff" opacity="1.00" stroke="#ffffff" stroke-width="0.25" data-index="34" style="opacity: 1;"></path>
<path d="M 130.66 167.94 L 132.52 167.83 C 132.23 172.56 132.35 177.29 132.38 182.02 C 132.75 256.11 133.00 330.20 133.75 404.29 C 136.10 404.24 138.45 404.18 140.80 404.11 C 141.46 402.06 142.12 400.02 142.77 397.98 C 149.19 380.17 154.57 361.73 164.26 345.34 C 168.42 338.73 172.81 331.80 179.60 327.60 C 186.83 322.98 195.28 320.87 203.61 319.29 C 213.76 317.38 224.03 316.11 234.31 315.17 C 234.29 314.46 234.25 313.04 234.23 312.32 C 234.35 309.45 234.80 306.59 235.42 303.79 C 235.74 314.18 236.52 324.54 237.78 334.86 C 253.29 336.35 268.94 336.76 284.48 335.43 C 284.63 325.05 285.40 314.70 285.32 304.33 C 276.13 308.28 265.98 309.75 256.02 309.04 C 256.06 308.61 256.14 307.75 256.17 307.32 C 265.69 308.15 275.42 306.69 284.24 303.03 C 287.55 305.58 285.72 310.11 286.30 313.66 C 290.66 314.12 295.01 313.49 299.36 313.25 C 311.79 314.36 324.25 315.61 336.45 318.35 C 343.79 319.99 351.17 322.97 356.47 328.49 C 365.02 337.80 369.57 349.81 374.10 361.40 C 373.60 361.48 372.59 361.63 372.08 361.71 C 368.56 351.17 364.14 340.66 357.16 331.93 C 351.15 324.14 341.33 320.79 331.99 319.13 C 317.04 316.43 301.89 314.70 286.71 314.14 C 286.71 321.60 286.24 329.04 286.20 336.50 C 283.50 337.12 280.74 337.48 277.96 337.55 C 264.07 338.04 250.12 337.93 236.29 336.45 C 235.47 329.87 234.78 323.28 234.31 316.67 C 217.62 319.00 200.26 319.80 184.66 326.73 C 173.31 331.69 167.32 343.34 161.63 353.63 C 153.89 369.95 148.24 387.15 142.47 404.23 C 157.69 404.06 172.91 404.58 188.14 404.34 C 191.26 388.14 194.85 372.04 198.40 355.93 C 198.69 354.01 199.47 352.24 200.80 350.81 C 200.67 354.61 199.62 358.29 198.84 361.99 C 195.76 376.10 192.48 390.17 189.79 404.36 C 237.43 404.30 285.08 404.27 332.72 404.24 C 331.65 387.17 330.35 370.11 329.24 353.05 C 329.03 351.53 329.51 350.11 330.15 348.77 C 331.32 354.11 331.34 359.59 331.77 365.01 C 332.76 378.05 333.51 391.11 334.46 404.16 C 342.59 404.32 350.71 404.15 358.84 404.23 C 358.34 402.72 357.83 401.22 357.31 399.73 C 358.18 401.73 359.08 403.73 359.85 405.78 C 330.58 405.91 301.30 406.01 272.03 406.00 C 225.45 405.69 178.87 406.57 132.30 405.75 C 132.23 397.15 131.83 388.55 131.81 379.95 C 131.43 309.27 130.88 238.61 130.66 167.94 Z" fill="#002539" opacity="1.00" stroke="#002539" stroke-width="0.25" data-index="35" style="opacity: 1;"></path>

<path d="M 410.36 174.49 C 411.50 173.68 412.78 173.46 414.19 173.84 C 413.91 174.38 413.36 175.48 413.08 176.02 C 412.77 175.82 412.15 175.42 411.83 175.22 C 411.81 175.65 411.77 176.50 411.75 176.92 C 411.85 177.44 412.06 178.48 412.16 178.99 C 412.16 179.33 412.16 180.00 412.16 180.34 C 413.09 180.31 414.95 180.26 415.87 180.23 C 415.55 180.47 414.91 180.97 414.59 181.21 C 413.69 181.23 411.89 181.28 410.99 181.30 C 411.04 183.97 413.94 183.20 415.62 183.65 C 415.64 183.89 415.67 184.37 415.68 184.61 C 413.40 184.69 411.09 184.80 408.91 184.04 C 410.75 183.67 411.74 182.78 410.82 181.01 C 411.00 179.82 411.15 178.62 411.17 177.42 C 410.55 176.53 410.28 175.55 410.36 174.49 Z" fill="#162131" opacity="1.00" stroke="#162131" stroke-width="0.25" data-index="37" style="visibility: hidden; opacity: 1;"></path>
<path d="M 411.83 175.22 C 412.15 175.42 412.77 175.82 413.08 176.02 C 412.75 176.25 412.08 176.70 411.75 176.92 C 411.77 176.50 411.81 175.65 411.83 175.22 Z" fill="#fbfcff" opacity="1.00" stroke="#fbfcff" stroke-width="0.25" data-index="38" style="opacity: 1;"></path>
<path d="M 274.68 190.70 C 283.99 188.87 293.47 188.12 302.85 186.72 C 306.94 186.22 311.01 185.42 315.15 185.49 C 317.47 187.65 318.90 192.65 315.10 193.99 C 302.80 196.25 290.34 197.48 277.96 199.22 C 273.55 199.24 273.78 193.72 274.68 190.70 Z" fill="#1d3149" opacity="1.00" stroke="#1d3149" stroke-width="0.25" data-index="39"></path>
<path d="M 203.64 187.32 C 210.80 187.23 217.96 187.70 225.10 188.24 C 231.72 188.64 238.44 188.43 244.97 189.73 C 247.35 191.84 246.05 194.95 245.26 197.49 C 239.54 198.12 233.77 197.34 228.04 197.15 C 219.98 196.34 211.85 196.64 203.82 195.48 C 201.18 193.63 202.15 189.67 203.64 187.32 Z" fill="#1d3048" opacity="1.00" stroke="#1d3048" stroke-width="0.25" data-index="40"></path>
<path d="M 326.16 197.65 C 327.88 201.05 327.69 204.90 327.89 208.59 C 328.71 222.23 329.38 236.00 326.99 249.53 C 326.63 248.01 326.27 246.49 326.02 244.96 C 328.19 229.25 326.16 213.42 326.16 197.65 Z" fill="#0e1b24" opacity="1.00" stroke="#0e1b24" stroke-width="0.25" data-index="41"></path>
<path d="M 230.11 203.09 C 234.43 201.56 239.97 205.13 239.85 209.89 C 240.21 213.14 238.37 216.78 235.11 217.75 C 231.27 219.49 226.28 217.11 225.05 213.13 C 223.57 209.15 225.94 204.17 230.11 203.09 Z" fill="#082843" opacity="1.00" stroke="#082843" stroke-width="0.25" data-index="42"></path>
<path d="M 287.86 202.80 C 293.27 201.97 298.00 207.98 295.91 213.08 C 294.29 219.65 283.91 219.96 281.64 213.69 C 279.21 209.07 282.79 203.21 287.86 202.80 Z" fill="#082745" opacity="1.00" stroke="#082745" stroke-width="0.25" data-index="43"></path>
<path d="M 257.60 208.05 C 260.31 212.26 262.46 216.84 264.71 221.32 C 267.31 227.05 267.17 235.78 260.80 238.92 C 256.39 240.43 251.71 238.84 247.27 238.29 C 247.24 237.80 247.19 236.80 247.16 236.30 C 251.34 237.14 255.65 238.40 259.91 237.38 C 263.65 236.01 264.75 231.60 264.54 228.01 C 264.41 222.01 260.28 217.31 257.94 212.07 C 257.17 210.84 257.34 209.39 257.60 208.05 Z" fill="#091b27" opacity="1.00" stroke="#091b27" stroke-width="0.25" data-index="44"></path>
<path d="M 327.89 208.59 C 333.85 209.80 339.73 212.59 343.45 217.56 C 348.32 224.70 347.97 235.04 342.60 241.82 C 338.90 246.75 333.00 249.10 327.20 250.51 C 327.14 250.26 327.04 249.77 326.99 249.53 C 329.38 236.00 328.71 222.23 327.89 208.59 Z" fill="#feffff" opacity="1.00" stroke="#feffff" stroke-width="0.25" data-index="45"></path>
<path d="M 235.04 255.02 C 237.88 255.98 238.69 259.31 240.90 261.10 C 250.87 271.91 269.74 272.79 280.14 262.13 C 282.61 260.29 283.71 256.43 287.05 256.03 C 284.60 261.52 279.58 265.55 274.41 268.37 C 263.84 274.09 249.96 271.80 241.17 263.82 C 238.62 261.36 235.57 258.72 235.04 255.02 Z" fill="#0f1f2e" opacity="1.00" stroke="#0f1f2e" stroke-width="0.25" data-index="46"></path>
<path d="M 235.42 303.79 C 241.91 306.76 248.89 308.61 256.02 309.04 C 265.98 309.75 276.13 308.28 285.32 304.33 C 285.40 314.70 284.63 325.05 284.48 335.43 C 268.94 336.76 253.29 336.35 237.78 334.86 C 236.52 324.54 235.74 314.18 235.42 303.79 Z" fill="#ffffff" opacity="1.00" stroke="#ffffff" stroke-width="0.25" data-index="47"></path>
<path d="M 286.71 314.14 C 301.89 314.70 317.04 316.43 331.99 319.13 C 341.33 320.79 351.15 324.14 357.16 331.93 C 364.14 340.66 368.56 351.17 372.08 361.71 C 363.52 363.35 357.00 370.77 354.90 379.00 C 353.47 385.95 354.74 393.20 357.31 399.73 C 357.83 401.22 358.34 402.72 358.84 404.23 C 350.71 404.15 342.59 404.32 334.46 404.16 C 333.51 391.11 332.76 378.05 331.77 365.01 C 331.34 359.59 331.32 354.11 330.15 348.77 C 329.51 350.11 329.03 351.53 329.24 353.05 C 330.35 370.11 331.65 387.17 332.72 404.24 C 285.08 404.27 237.43 404.30 189.79 404.36 C 192.48 390.17 195.76 376.10 198.84 361.99 C 199.62 358.29 200.67 354.61 200.80 350.81 C 199.47 352.24 198.69 354.01 198.40 355.93 C 194.85 372.04 191.26 388.14 188.14 404.34 C 172.91 404.58 157.69 404.06 142.47 404.23 C 148.24 387.15 153.89 369.95 161.63 353.63 C 167.32 343.34 173.31 331.69 184.66 326.73 C 200.26 319.80 217.62 319.00 234.31 316.67 C 234.78 323.28 235.47 329.87 236.29 336.45 C 250.12 337.93 264.07 338.04 277.96 337.55 C 280.74 337.48 283.50 337.12 286.20 336.50 C 286.24 329.04 286.71 321.60 286.71 314.14 Z" fill="#b2edff" opacity="1.00" stroke="#b2edff" stroke-width="0.25" data-index="48" style="opacity: 1;"></path>
<path d="M 407.66 358.57 C 415.48 353.20 425.72 350.99 434.93 353.63 C 440.97 355.27 445.60 360.71 446.50 366.87 C 447.94 376.25 443.99 385.39 439.05 393.14 C 431.16 405.25 419.41 414.24 407.27 421.78 C 406.99 421.97 406.44 422.35 406.16 422.53 C 405.77 423.69 405.44 424.87 405.16 426.07 C 405.22 425.35 405.35 423.91 405.41 423.20 C 398.06 427.22 390.96 431.68 383.46 435.45 C 382.57 435.98 381.70 436.54 380.84 437.12 C 380.39 436.62 379.95 436.13 379.52 435.64 C 371.93 426.48 364.52 416.80 359.85 405.78 C 359.08 403.73 358.18 401.73 357.31 399.73 C 354.74 393.20 353.47 385.95 354.90 379.00 C 357.00 370.77 363.52 363.35 372.08 361.71 C 372.59 361.63 373.60 361.48 374.10 361.40 L 375.26 361.43 C 375.73 361.45 376.67 361.49 377.14 361.52 C 384.14 362.07 390.13 366.93 393.14 373.12 C 396.84 368.22 400.88 363.50 405.85 359.84 C 406.44 359.40 407.04 358.98 407.66 358.57 Z" fill="#2a1d21" opacity="1.00" stroke="#2a1d21" stroke-width="0.25" data-index="49" style="opacity: 1;"></path>
<path d="M 400.59 366.49 C 406.85 360.42 414.64 354.86 423.69 354.66 C 419.91 356.77 415.47 357.35 411.85 359.76 C 406.31 363.42 400.91 367.56 397.20 373.16 C 395.99 374.62 394.27 377.24 392.08 376.07 C 389.09 373.30 387.17 369.63 384.87 366.32 C 388.57 367.81 390.06 371.73 392.35 374.66 C 392.72 374.69 393.47 374.74 393.85 374.77 C 396.40 372.27 397.97 368.94 400.59 366.49 Z" fill="#cd6b4f" opacity="1.00" stroke="#cd6b4f" stroke-width="0.25" data-index="50"></path>
<path d="M 423.69 354.66 C 431.62 352.87 441.98 356.42 444.26 364.99 C 445.90 372.37 444.31 380.17 440.74 386.76 C 438.33 391.60 434.83 395.74 431.80 400.17 L 430.69 400.23 C 429.08 399.97 428.28 401.51 428.09 402.85 C 427.95 404.20 426.83 405.03 425.96 405.92 C 413.52 417.11 398.74 425.14 384.25 433.30 C 383.09 433.79 381.32 435.36 380.36 433.69 C 375.13 428.12 370.80 421.78 366.68 415.37 C 361.10 405.83 355.88 395.32 356.15 384.00 C 356.01 375.67 361.49 367.68 369.03 364.32 C 374.12 362.78 380.68 362.58 384.87 366.32 C 387.17 369.63 389.09 373.30 392.08 376.07 C 394.27 377.24 395.99 374.62 397.20 373.16 C 400.91 367.56 406.31 363.42 411.85 359.76 C 415.47 357.35 419.91 356.77 423.69 354.66 Z" fill="#f25d2e" opacity="1.00" stroke="#f25d2e" stroke-width="0.25" data-index="51" style="opacity: 1;"></path>
<path d="M 379.57 379.77 C 380.70 379.38 381.83 378.99 382.97 378.59 C 383.83 379.15 384.69 379.70 385.55 380.27 C 385.89 387.83 385.71 395.40 385.80 402.97 C 385.76 405.48 385.98 408.06 385.27 410.51 C 384.62 410.49 383.32 410.43 382.67 410.40 C 381.20 406.05 381.64 401.37 380.73 396.91 C 380.48 391.18 379.21 385.51 379.57 379.77 Z" fill="#fffcfa" opacity="1.00" stroke="#fffcfa" stroke-width="0.25" data-index="52" style="opacity: 1;"></path>
<path d="M 428.09 402.85 C 428.28 401.51 429.08 399.97 430.69 400.23 C 431.51 401.51 429.38 403.65 428.09 402.85 Z" fill="#d66b4e" opacity="1.00" stroke="#d66b4e" stroke-width="0.25" data-index="53"></path>
<path d="M 381.87 414.58 C 383.46 414.49 385.05 414.40 386.66 414.33 C 387.46 416.00 389.31 417.98 387.85 419.84 C 386.52 422.86 381.22 422.33 380.45 419.13 C 380.18 417.45 381.22 416.02 381.87 414.58 Z" fill="#fffcf8" opacity="1.00" stroke="#fffcf8" stroke-width="0.25" data-index="54"></path>
<path d="M 406.16 422.53 C 406.44 422.35 406.99 421.97 407.27 421.78 C 406.75 426.11 407.31 431.45 403.66 434.56 C 398.87 437.75 392.80 437.57 387.27 437.69 C 386.85 437.28 386.01 436.45 385.59 436.03 C 391.16 435.80 397.12 436.16 402.18 433.43 C 404.65 431.88 404.55 428.60 405.16 426.07 C 405.44 424.87 405.77 423.69 406.16 422.53 Z" fill="#162131" opacity="1.00" stroke="#162131" stroke-width="0.25" data-index="55"></path>
<path d="M 383.46 435.45 C 390.96 431.68 398.06 427.22 405.41 423.20 C 405.35 423.91 405.22 425.35 405.16 426.07 C 404.55 428.60 404.65 431.88 402.18 433.43 C 397.12 436.16 391.16 435.80 385.59 436.03 C 385.06 435.88 383.99 435.59 383.46 435.45 Z" fill="#fbfcff" opacity="1.00" stroke="#fbfcff" stroke-width="0.25" data-index="56"></path>
<path d="M 379.52 435.64 C 379.95 436.13 380.39 436.62 380.84 437.12 C 381.70 436.54 382.57 435.98 383.46 435.45 C 383.99 435.59 385.06 435.88 385.59 436.03 C 386.01 436.45 386.85 437.28 387.27 437.69 C 384.85 437.92 382.42 438.09 379.99 438.06 C 349.38 437.86 318.74 438.27 288.14 437.74 C 288.04 437.28 287.85 436.35 287.75 435.88 C 318.34 435.68 348.95 436.37 379.52 435.64 Z" fill="#3b4c59" opacity="1.00" stroke="#3b4c59" stroke-width="0.25" data-index="57"></path>
</svg>