<svg xmlns="http://www.w3.org/2000/svg" height="512pt" version="1.1" viewBox="0 0 512 512" width="512pt">

<path d="M 92.63 112.15 C 93.15 112.17 94.18 112.23 94.70 112.26 C 98.05 115.06 102.66 114.21 106.71 114.48 C 113.19 114.22 119.61 115.86 125.45 118.60 C 127.71 119.88 130.34 118.99 132.76 119.36 C 135.55 120.83 137.83 123.26 140.91 124.16 C 143.82 124.62 146.97 123.71 149.63 125.35 C 152.36 126.95 155.50 127.28 158.60 127.22 C 158.13 127.78 157.66 128.34 157.19 128.90 C 160.51 129.00 163.90 129.14 166.96 130.57 C 170.66 129.25 172.09 134.44 175.68 133.79 C 181.50 133.77 187.17 135.64 193.02 135.15 C 198.71 135.45 204.87 133.91 210.06 136.96 C 217.71 137.61 225.48 136.43 233.10 137.73 C 237.42 138.76 241.67 136.56 246.00 137.27 C 254.48 138.39 263.07 140.15 271.64 138.65 C 277.86 137.54 284.28 138.09 290.42 136.52 C 294.31 135.47 298.15 137.59 302.06 137.11 C 303.74 136.66 304.12 134.16 306.12 134.29 C 315.81 133.65 325.99 135.24 335.25 131.60 C 337.24 133.36 339.15 130.79 341.15 130.40 C 343.14 130.31 345.16 130.70 347.12 130.17 C 351.85 128.95 356.82 128.68 361.31 126.61 C 366.04 125.98 370.67 124.85 375.30 123.69 C 375.42 123.40 375.64 122.81 375.76 122.52 C 381.59 120.63 387.05 117.60 393.11 116.39 C 399.51 115.46 405.41 112.29 411.97 112.13 C 417.29 112.10 422.74 111.64 427.92 113.12 C 432.39 114.31 436.84 115.58 441.34 116.67 C 443.94 118.79 446.25 121.32 449.34 122.78 C 453.00 124.38 453.89 128.56 454.93 132.00 C 455.62 135.22 458.48 137.31 459.57 140.34 C 460.41 142.35 458.42 144.09 458.68 146.08 C 459.07 149.18 459.78 152.23 460.37 155.29 C 462.14 156.05 463.18 157.48 462.91 159.46 C 462.23 159.68 460.86 160.12 460.18 160.34 C 460.29 166.05 457.91 171.36 457.72 177.03 C 457.48 180.46 454.49 183.26 455.35 186.87 C 456.01 190.38 453.89 193.51 453.71 196.97 C 453.17 202.16 449.95 206.67 449.88 211.96 C 449.84 215.75 447.94 219.20 447.89 222.98 C 447.91 230.04 446.53 236.99 445.89 244.00 C 445.54 246.57 447.71 248.56 447.94 251.03 C 448.32 254.22 445.61 256.79 445.89 259.99 C 445.78 272.34 446.00 284.69 445.84 297.04 C 445.72 301.39 447.01 305.64 446.88 310.00 C 446.65 316.08 448.55 321.95 450.28 327.71 C 450.80 329.63 451.98 331.26 453.31 332.71 C 454.68 336.20 455.52 339.87 456.75 343.42 C 458.68 347.69 457.70 352.50 457.89 357.04 C 457.55 364.02 459.85 371.67 456.00 378.06 C 454.47 380.68 454.08 383.72 453.38 386.62 C 452.86 389.14 450.06 389.88 448.23 391.23 C 445.35 392.87 443.69 396.00 440.83 397.61 C 436.25 398.76 431.60 399.63 427.00 400.68 C 419.72 400.90 412.26 401.55 405.14 399.62 C 402.43 398.91 399.63 399.55 396.89 399.25 C 393.24 398.73 390.49 395.53 386.71 395.53 C 383.46 395.45 380.21 395.87 376.95 395.88 C 368.16 396.42 359.78 392.86 351.02 392.88 C 347.77 392.79 344.25 393.47 341.36 391.60 C 338.60 389.90 335.31 390.49 332.26 390.50 C 319.27 390.34 306.28 391.45 293.30 390.51 C 288.19 390.68 282.92 389.73 278.00 391.56 C 273.11 390.75 268.28 388.95 263.25 389.38 C 258.44 389.68 253.62 389.37 248.81 389.49 C 240.86 389.25 232.93 390.35 224.99 389.67 C 219.93 389.21 214.83 389.85 209.78 389.27 C 202.69 387.66 195.25 388.58 188.33 390.49 C 178.53 390.49 168.72 390.38 158.93 390.92 C 157.15 391.05 155.76 392.40 154.02 392.72 C 151.11 392.61 148.08 391.04 145.26 392.39 C 142.55 393.73 139.52 393.96 136.59 394.52 C 133.83 395.08 131.92 397.79 128.99 397.78 C 126.27 397.90 123.70 398.80 121.05 399.32 C 112.26 399.52 103.58 402.98 94.78 401.22 C 90.79 400.85 86.71 400.81 83.01 399.03 C 77.45 397.68 71.31 396.26 67.51 391.58 C 65.53 388.98 62.36 387.79 60.16 385.43 C 63.52 381.86 58.09 378.71 57.85 375.10 C 57.79 366.74 55.98 358.24 58.08 349.99 C 58.80 347.17 59.06 344.26 59.61 341.41 C 60.25 338.07 63.30 335.60 63.13 332.03 C 62.92 327.20 66.50 323.15 65.63 318.27 C 68.63 313.77 71.89 308.49 70.41 302.82 C 69.06 298.56 72.27 294.97 72.83 290.92 C 75.08 277.73 75.66 264.31 74.98 250.96 C 73.74 243.71 73.68 236.27 75.04 229.04 C 75.95 225.79 73.23 223.13 73.23 219.97 C 73.26 215.40 72.40 210.88 72.51 206.31 C 72.75 202.14 70.00 198.66 69.46 194.62 C 68.90 190.71 66.02 187.63 65.55 183.71 C 65.01 179.22 62.88 175.22 60.80 171.29 C 59.67 167.26 57.79 163.29 58.03 159.01 C 57.94 155.64 58.66 152.35 59.07 149.03 C 59.34 146.83 58.42 144.68 58.59 142.49 C 59.28 141.24 60.17 140.12 60.84 138.87 C 60.96 136.69 59.94 134.25 61.35 132.30 C 64.06 127.82 68.06 124.33 71.05 120.06 C 74.40 116.18 79.70 115.57 84.49 115.11 C 84.51 114.62 84.56 113.65 84.58 113.16 C 85.12 113.19 86.20 113.25 86.73 113.27 C 88.33 114.67 90.27 115.30 92.35 114.61 C 92.44 113.78 92.54 112.96 92.63 112.15 Z" fill="#e9f7fc" opacity="1.00" stroke="#e9f7fc" stroke-width="0.25" data-index="1" style="visibility: hidden; opacity: 1;"></path>

<path d="M 95.70 130.30 C 102.59 127.72 110.15 129.02 117.05 130.90 C 125.74 132.94 133.86 136.74 142.32 139.44 C 150.70 140.83 158.41 144.60 166.74 146.18 C 172.05 147.06 176.68 150.29 182.12 150.58 C 194.39 151.39 206.76 149.88 218.98 151.60 C 225.15 151.47 231.25 152.91 237.43 152.49 C 242.94 152.03 248.33 153.83 253.85 153.39 C 263.26 154.32 272.68 152.96 282.06 153.61 C 292.80 150.93 303.94 150.48 314.98 150.85 C 322.41 151.19 329.59 148.98 336.95 148.42 C 340.13 147.77 343.07 146.26 346.22 145.43 C 347.96 145.41 349.68 145.12 351.26 144.35 C 357.29 141.75 364.03 142.06 370.28 140.26 C 374.21 139.14 378.30 138.61 382.15 137.21 C 388.64 135.12 394.66 131.84 401.14 129.73 C 402.20 130.35 403.27 130.98 404.34 131.61 C 397.33 134.31 390.81 138.20 384.90 142.82 C 383.20 144.19 381.19 145.21 378.97 145.26 C 364.32 146.32 349.95 149.99 336.28 155.27 C 334.58 155.85 332.87 156.59 331.05 156.53 C 313.03 155.91 294.94 156.11 277.00 157.96 C 271.32 158.46 265.74 160.08 260.01 159.78 C 240.04 158.58 220.08 156.67 200.05 157.20 C 192.35 157.15 184.66 157.83 177.11 159.40 C 175.23 159.96 173.36 159.38 171.74 158.39 C 160.23 152.07 147.40 148.91 134.86 145.39 C 119.56 139.92 103.88 133.31 87.31 134.18 C 86.14 133.46 84.98 132.75 83.81 132.03 C 87.68 130.93 91.63 129.61 95.70 130.30 Z" fill="#aadaef" opacity="1.00" stroke="#aadaef" stroke-width="0.25" data-index="3"></path>

<path d="M 404.34 131.61 C 411.56 129.11 420.12 126.60 427.20 130.80 C 427.92 133.19 428.91 135.49 429.44 137.94 C 429.63 139.73 429.78 141.53 429.88 143.33 C 430.79 160.67 426.58 177.73 420.53 193.85 C 417.43 200.88 418.74 208.63 418.34 216.04 C 417.60 230.04 417.58 244.10 415.83 258.03 C 415.32 262.71 413.25 267.29 414.25 272.06 C 416.71 288.26 416.24 304.69 417.16 321.00 C 417.06 325.79 420.41 329.50 422.19 333.69 C 425.60 341.26 428.56 349.51 427.53 357.95 C 427.08 361.58 425.74 365.61 422.38 367.53 C 419.38 368.50 416.26 367.28 413.41 366.40 C 406.53 363.90 399.48 361.76 392.22 360.71 C 380.21 359.17 367.98 360.27 356.06 357.94 C 349.59 356.61 343.17 354.95 336.96 352.70 C 328.38 354.14 319.70 354.61 311.03 354.92 C 293.34 356.54 275.68 353.63 258.00 353.62 C 246.33 354.33 234.64 354.69 222.96 354.12 C 212.00 353.31 200.99 353.01 190.02 353.52 C 174.74 354.81 159.41 355.57 144.07 355.64 C 137.77 355.37 132.17 358.58 126.41 360.62 C 114.23 365.24 101.40 369.23 88.23 368.64 C 85.76 368.48 83.47 367.48 81.31 366.36 C 81.63 360.88 82.16 355.42 82.46 349.95 C 83.01 340.07 86.10 330.44 90.75 321.74 C 92.39 318.51 95.50 315.84 95.62 311.99 C 97.29 297.36 97.56 282.59 99.76 268.02 C 101.98 257.12 99.58 246.04 99.49 235.07 C 99.47 227.04 98.62 218.95 99.79 210.97 C 100.20 209.04 100.89 207.04 100.25 205.08 C 97.55 195.22 93.90 185.64 91.26 175.76 C 89.29 167.35 87.15 158.96 83.83 150.97 C 83.24 149.32 82.67 147.66 82.20 145.98 C 80.90 141.49 81.60 134.85 87.31 134.18 C 103.88 133.31 119.56 139.92 134.86 145.39 C 147.40 148.91 160.23 152.07 171.74 158.39 C 173.36 159.38 175.23 159.96 177.11 159.40 C 184.66 157.83 192.35 157.15 200.05 157.20 C 220.08 156.67 240.04 158.58 260.01 159.78 C 265.74 160.08 271.32 158.46 277.00 157.96 C 294.94 156.11 313.03 155.91 331.05 156.53 C 332.87 156.59 334.58 155.85 336.28 155.27 C 349.95 149.99 364.32 146.32 378.97 145.26 C 381.19 145.21 383.20 144.19 384.90 142.82 C 390.81 138.20 397.33 134.31 404.34 131.61 Z" fill="#002a45" opacity="1.00" stroke="#002a45" stroke-width="0.25" data-index="5"></path>
<path d="M 383.86 145.97 C 393.08 138.99 403.30 132.61 414.98 131.02 C 419.04 130.30 424.83 130.19 426.62 134.79 L 426.49 135.03 C 424.94 137.64 423.76 140.49 421.93 142.93 C 416.45 148.84 407.77 150.32 402.47 156.41 L 402.28 156.44 C 398.78 156.12 396.07 158.19 393.98 160.75 C 394.45 161.03 395.37 161.58 395.83 161.86 C 398.04 160.78 400.19 159.59 402.31 158.35 C 406.16 157.07 410.17 156.37 414.19 155.84 C 414.51 156.01 415.15 156.36 415.47 156.53 C 417.25 160.87 414.00 165.06 410.53 167.36 C 408.38 169.11 405.30 170.30 404.37 173.12 C 404.66 177.61 407.74 181.44 408.15 185.96 C 408.97 192.73 409.29 200.32 405.22 206.19 C 401.85 211.78 396.22 215.31 391.22 219.27 C 386.92 222.70 381.38 223.67 376.61 226.21 C 382.43 230.69 390.31 227.80 396.97 229.74 C 400.98 229.86 401.16 235.51 398.99 237.86 C 394.70 242.48 389.12 245.65 383.64 248.64 C 376.99 252.36 369.10 252.72 362.41 256.35 C 362.38 256.92 362.34 258.04 362.31 258.61 C 370.97 258.92 379.71 258.27 388.13 256.14 C 391.82 255.35 395.61 253.86 399.43 254.58 C 402.40 255.55 401.71 259.26 400.74 261.49 C 398.36 266.63 394.15 271.02 393.66 276.92 C 392.42 283.00 397.05 287.99 398.42 293.60 C 399.84 299.54 397.28 305.37 396.23 311.14 C 400.08 315.13 404.60 318.39 409.43 321.09 C 412.49 328.07 417.94 334.76 416.63 342.87 C 416.62 346.01 413.02 346.83 410.59 347.51 C 401.22 349.06 392.08 345.60 382.89 344.34 C 371.71 342.85 360.04 343.65 349.34 339.52 C 343.70 337.31 337.90 335.58 332.13 333.76 C 324.07 331.07 315.39 331.14 307.02 331.90 C 298.72 333.39 290.41 335.33 281.94 335.41 C 274.03 334.78 265.88 333.84 258.68 330.25 C 254.70 328.33 251.07 325.67 246.82 324.35 C 241.12 322.62 235.04 322.61 229.41 320.61 C 222.07 318.48 215.35 313.78 207.43 314.14 C 209.92 317.72 214.35 318.83 217.75 321.27 C 222.70 324.76 228.52 329.09 228.41 335.83 C 220.48 333.65 212.53 329.41 204.08 331.25 C 196.71 332.84 189.51 335.20 182.00 336.13 C 167.20 338.98 152.08 339.72 137.03 339.77 C 127.19 339.94 117.44 341.66 107.88 343.87 C 102.10 345.12 96.84 347.95 91.61 350.60 C 88.79 352.01 86.38 354.07 84.19 356.31 C 83.99 341.69 88.60 327.09 97.31 315.34 C 97.36 314.85 97.47 313.86 97.52 313.37 C 100.08 310.09 102.34 306.47 103.31 302.38 C 105.42 293.20 104.91 283.52 107.71 274.49 C 110.15 268.71 111.90 261.95 109.14 255.96 C 107.03 251.57 105.25 246.58 106.80 241.71 C 113.00 235.99 121.54 232.75 126.36 225.50 C 128.62 222.09 131.19 218.89 133.43 215.46 C 134.63 214.12 134.07 211.07 131.93 211.24 C 126.82 211.36 122.27 215.30 117.06 214.14 C 111.69 212.95 108.03 207.99 107.13 202.75 C 105.24 195.02 109.14 187.62 109.69 180.00 C 109.92 175.39 110.99 170.05 107.93 166.11 C 102.96 158.54 94.70 153.84 90.10 146.00 C 88.42 143.29 88.32 140.03 88.00 136.96 C 91.66 136.71 95.34 136.48 99.01 136.71 C 110.69 138.72 121.92 142.69 132.93 146.97 C 146.91 151.10 161.69 154.08 174.01 162.27 C 186.70 158.89 199.94 159.12 212.96 159.15 C 224.54 159.50 236.14 160.12 247.66 161.21 C 251.10 162.26 254.35 163.82 257.60 165.35 C 257.18 165.74 256.76 166.14 256.35 166.54 C 269.85 175.86 275.69 191.81 285.25 204.50 C 284.97 193.20 278.27 183.27 277.53 172.05 C 277.25 168.10 278.10 164.19 279.15 160.40 C 282.24 160.05 285.32 159.60 288.39 159.10 C 302.92 158.08 317.56 157.83 332.12 158.70 C 333.49 158.63 334.71 157.94 335.98 157.49 C 348.49 152.60 361.59 149.21 374.93 147.58 C 377.89 147.03 381.38 148.15 383.86 145.97 Z" fill="#ffffff" opacity="1.00" stroke="#ffffff" stroke-width="0.25" data-index="6"></path>
<path d="M 85.70 136.68 C 89.99 135.06 94.63 136.07 99.01 136.71 C 95.34 136.48 91.66 136.71 88.00 136.96 C 88.32 140.03 88.42 143.29 90.10 146.00 C 94.70 153.84 102.96 158.54 107.93 166.11 C 110.99 170.05 109.92 175.39 109.69 180.00 C 109.14 187.62 105.24 195.02 107.13 202.75 C 108.03 207.99 111.69 212.95 117.06 214.14 C 122.27 215.30 126.82 211.36 131.93 211.24 C 134.07 211.07 134.63 214.12 133.43 215.46 C 131.19 218.89 128.62 222.09 126.36 225.50 C 121.54 232.75 113.00 235.99 106.80 241.71 C 105.25 246.58 107.03 251.57 109.14 255.96 C 111.90 261.95 110.15 268.71 107.71 274.49 C 104.91 283.52 105.42 293.20 103.31 302.38 C 102.34 306.47 100.08 310.09 97.52 313.37 C 99.31 296.26 99.75 279.00 102.72 262.03 C 102.61 246.32 100.70 230.62 101.37 214.88 C 101.51 211.41 103.37 208.00 102.26 204.53 C 101.06 200.25 99.59 196.05 98.17 191.83 C 93.39 178.16 91.12 163.73 85.69 150.27 C 84.31 146.04 81.85 140.27 85.70 136.68 Z" fill="#c7f2fe" opacity="1.00" stroke="#c7f2fe" stroke-width="0.25" data-index="7"></path>
<path d="M 421.93 142.93 C 423.76 140.49 424.94 137.64 426.49 135.03 C 428.95 142.77 428.07 151.13 427.38 159.10 C 426.09 171.44 422.29 183.32 418.07 194.93 C 415.44 201.98 416.73 209.66 416.25 217.00 C 415.43 234.35 415.81 252.00 411.75 268.96 C 415.04 286.45 414.17 304.32 415.23 322.00 C 415.10 325.68 417.42 328.69 419.00 331.82 C 422.85 338.91 425.77 346.80 425.69 354.96 C 425.44 358.60 425.02 362.73 422.33 365.46 C 418.02 366.72 413.88 364.23 409.85 363.05 C 398.48 358.90 386.31 357.60 374.28 357.62 C 362.94 357.64 351.68 355.55 340.95 351.96 C 339.01 351.40 337.04 350.36 334.97 350.94 C 326.73 352.39 318.34 352.69 309.99 352.86 C 294.34 354.28 278.69 352.18 263.05 351.61 C 254.03 351.33 245.06 352.58 236.04 352.34 C 220.33 352.51 204.65 350.34 188.94 351.59 C 173.32 353.04 157.64 353.45 141.96 353.73 C 137.37 353.70 133.27 355.97 129.07 357.51 C 118.73 361.60 108.07 365.16 96.98 366.47 C 92.43 366.69 87.68 367.11 83.35 365.35 C 83.54 362.46 83.76 359.58 83.80 356.69 L 84.19 356.31 C 86.38 354.07 88.79 352.01 91.61 350.60 C 96.84 347.95 102.10 345.12 107.88 343.87 C 117.44 341.66 127.19 339.94 137.03 339.77 C 152.08 339.72 167.20 338.98 182.00 336.13 C 189.51 335.20 196.71 332.84 204.08 331.25 C 212.53 329.41 220.48 333.65 228.41 335.83 C 228.52 329.09 222.70 324.76 217.75 321.27 C 214.35 318.83 209.92 317.72 207.43 314.14 C 215.35 313.78 222.07 318.48 229.41 320.61 C 235.04 322.61 241.12 322.62 246.82 324.35 C 251.07 325.67 254.70 328.33 258.68 330.25 C 265.88 333.84 274.03 334.78 281.94 335.41 C 290.41 335.33 298.72 333.39 307.02 331.90 C 315.39 331.14 324.07 331.07 332.13 333.76 C 337.90 335.58 343.70 337.31 349.34 339.52 C 360.04 343.65 371.71 342.85 382.89 344.34 C 392.08 345.60 401.22 349.06 410.59 347.51 C 413.02 346.83 416.62 346.01 416.63 342.87 C 417.94 334.76 412.49 328.07 409.43 321.09 C 404.60 318.39 400.08 315.13 396.23 311.14 C 397.28 305.37 399.84 299.54 398.42 293.60 C 397.05 287.99 392.42 283.00 393.66 276.92 C 394.15 271.02 398.36 266.63 400.74 261.49 C 401.71 259.26 402.40 255.55 399.43 254.58 C 395.61 253.86 391.82 255.35 388.13 256.14 C 379.71 258.27 370.97 258.92 362.31 258.61 C 362.34 258.04 362.38 256.92 362.41 256.35 C 369.10 252.72 376.99 252.36 383.64 248.64 C 389.12 245.65 394.70 242.48 398.99 237.86 C 401.16 235.51 400.98 229.86 396.97 229.74 C 390.31 227.80 382.43 230.69 376.61 226.21 C 381.38 223.67 386.92 222.70 391.22 219.27 C 396.22 215.31 401.85 211.78 405.22 206.19 C 409.29 200.32 408.97 192.73 408.15 185.96 C 407.74 181.44 404.66 177.61 404.37 173.12 C 405.30 170.30 408.38 169.11 410.53 167.36 C 414.00 165.06 417.25 160.87 415.47 156.53 C 415.15 156.36 414.51 156.01 414.19 155.84 C 413.45 155.44 412.72 155.03 412.00 154.63 C 408.83 155.29 405.68 156.01 402.47 156.41 C 407.77 150.32 416.45 148.84 421.93 142.93 Z" fill="#c7f3ff" opacity="1.00" stroke="#c7f3ff" stroke-width="0.25" data-index="8"></path>

<path d="M 429.88 143.33 C 431.35 144.82 432.80 146.40 433.51 148.41 C 435.62 154.03 437.16 160.02 436.67 166.07 C 436.08 175.20 433.38 184.00 430.71 192.70 C 428.50 199.69 428.94 207.14 427.20 214.23 C 424.48 224.49 426.54 235.27 424.46 245.64 C 422.70 253.66 423.87 261.86 423.40 269.97 C 423.07 275.30 423.55 280.68 422.59 285.97 C 421.77 290.69 423.96 295.23 423.76 299.96 C 423.43 312.24 424.93 324.59 428.35 336.40 C 428.88 338.47 430.00 340.31 431.31 341.97 C 431.40 347.43 433.85 352.52 433.83 357.98 C 433.81 361.43 434.03 364.96 433.18 368.34 C 431.66 371.47 429.12 374.06 426.44 376.25 C 421.51 378.97 415.53 379.88 410.02 378.65 C 403.47 377.71 397.69 373.69 390.97 373.70 C 379.55 373.44 368.02 374.55 356.73 372.25 C 344.83 369.59 332.60 366.44 320.34 368.26 C 309.22 369.42 298.06 368.46 286.97 367.73 C 278.30 368.28 269.67 366.28 261.04 367.50 C 248.69 368.15 236.32 367.24 223.96 367.66 C 216.94 367.88 209.98 366.00 202.96 366.94 C 197.00 367.63 190.98 367.76 185.04 368.65 C 182.26 369.03 179.46 369.51 176.65 369.18 C 169.80 368.37 162.89 368.57 156.01 368.86 C 146.98 369.19 138.64 373.00 129.89 374.81 C 118.31 378.44 105.75 381.60 93.74 378.07 C 90.93 376.45 88.91 373.80 86.52 371.65 C 87.09 370.65 87.65 369.63 88.23 368.64 C 101.40 369.23 114.23 365.24 126.41 360.62 C 132.17 358.58 137.77 355.37 144.07 355.64 C 159.41 355.57 174.74 354.81 190.02 353.52 C 200.99 353.01 212.00 353.31 222.96 354.12 C 234.64 354.69 246.33 354.33 258.00 353.62 C 275.68 353.63 293.34 356.54 311.03 354.92 C 319.70 354.61 328.38 354.14 336.96 352.70 C 343.17 354.95 349.59 356.61 356.06 357.94 C 367.98 360.27 380.21 359.17 392.22 360.71 C 399.48 361.76 406.53 363.90 413.41 366.40 C 416.26 367.28 419.38 368.50 422.38 367.53 C 425.74 365.61 427.08 361.58 427.53 357.95 C 428.56 349.51 425.60 341.26 422.19 333.69 C 420.41 329.50 417.06 325.79 417.16 321.00 C 416.24 304.69 416.71 288.26 414.25 272.06 C 413.25 267.29 415.32 262.71 415.83 258.03 C 417.58 244.10 417.60 230.04 418.34 216.04 C 418.74 208.63 417.43 200.88 420.53 193.85 C 426.58 177.73 430.79 160.67 429.88 143.33 Z" fill="#7dbedc" opacity="1.00" stroke="#7dbedc" stroke-width="0.25" data-index="10"></path>
<path d="M 80.48 152.11 C 81.60 151.73 82.72 151.35 83.83 150.97 C 87.15 158.96 89.29 167.35 91.26 175.76 C 93.90 185.64 97.55 195.22 100.25 205.08 C 100.89 207.04 100.20 209.04 99.79 210.97 C 99.04 212.33 98.25 213.67 97.48 215.02 C 96.02 211.11 94.57 207.17 93.94 203.03 C 93.11 197.30 90.94 191.90 89.57 186.30 C 89.16 186.73 88.75 187.17 88.34 187.61 C 88.34 186.00 88.64 184.33 88.10 182.77 C 83.99 173.02 82.54 162.42 80.48 152.11 Z" fill="#8ac6e3" opacity="1.00" stroke="#8ac6e3" stroke-width="0.25" data-index="11"></path>
<path d="M 402.47 156.41 C 405.68 156.01 408.83 155.29 412.00 154.63 C 412.72 155.03 413.45 155.44 414.19 155.84 C 410.17 156.37 406.16 157.07 402.31 158.35 C 401.65 158.32 400.32 158.25 399.65 158.21 C 400.51 157.61 401.39 157.02 402.28 156.44 L 402.47 156.41 Z" fill="#002a45" opacity="1.00" stroke="#002a45" stroke-width="0.25" data-index="12"></path>
<path d="M 393.98 160.75 C 396.07 158.19 398.78 156.12 402.28 156.44 C 401.39 157.02 400.51 157.61 399.65 158.21 C 400.32 158.25 401.65 158.32 402.31 158.35 C 400.19 159.59 398.04 160.78 395.83 161.86 C 395.37 161.58 394.45 161.03 393.98 160.75 Z" fill="#d2edf5" opacity="1.00" stroke="#d2edf5" stroke-width="0.25" data-index="13"></path>
<path d="M 263.03 162.13 C 271.43 160.72 279.85 159.26 288.39 159.10 C 285.32 159.60 282.24 160.05 279.15 160.40 C 278.10 164.19 277.25 168.10 277.53 172.05 C 278.27 183.27 284.97 193.20 285.25 204.50 C 275.69 191.81 269.85 175.86 256.35 166.54 C 256.76 166.14 257.18 165.74 257.60 165.35 C 254.35 163.82 251.10 162.26 247.66 161.21 C 252.80 161.25 257.92 161.72 263.03 162.13 Z" fill="#c8f3fe" opacity="1.00" stroke="#c8f3fe" stroke-width="0.25" data-index="14"></path>
<path d="M 135.48 167.59 C 136.02 165.97 137.74 165.26 139.34 165.47 C 149.34 165.72 156.92 173.13 165.94 176.41 C 170.92 178.10 175.84 180.13 180.05 183.35 C 179.40 184.23 179.06 185.43 178.09 186.02 C 169.15 189.15 159.43 191.68 150.03 188.93 C 140.50 187.21 133.65 177.04 135.48 167.59 Z" fill="#c7f2ff" opacity="1.00" stroke="#c7f2ff" stroke-width="0.25" data-index="15"></path>
<path d="M 141.92 173.19 C 149.66 178.49 158.59 182.02 167.97 182.94 L 167.94 183.93 C 160.36 183.88 152.95 181.31 146.41 177.59 C 144.69 176.40 142.29 175.51 141.92 173.19 Z" fill="#002a45" opacity="1.00" stroke="#002a45" stroke-width="0.25" data-index="16"></path>
<path d="M 127.37 215.14 C 127.72 215.26 128.41 215.50 128.76 215.61 C 122.41 220.60 116.34 225.92 110.34 231.32 C 109.44 232.14 108.42 232.77 107.27 233.20 C 109.49 229.87 112.61 227.30 115.60 224.71 C 119.51 221.50 123.11 217.91 127.37 215.14 Z" fill="#002a45" opacity="1.00" stroke="#002a45" stroke-width="0.25" data-index="17"></path>
<path d="M 383.88 253.48 C 389.52 250.27 396.07 248.76 402.44 247.89 C 400.07 249.86 396.93 250.28 394.06 251.09 C 390.68 251.92 387.43 253.52 383.88 253.48 Z" fill="#002a45" opacity="1.00" stroke="#002a45" stroke-width="0.25" data-index="18"></path>
<path d="M 351.25 297.19 C 357.44 293.01 364.54 290.06 371.94 288.96 C 377.36 287.92 382.42 290.61 387.59 291.73 C 388.04 293.57 388.82 295.70 387.33 297.31 C 382.50 299.30 377.12 298.86 372.02 299.33 C 364.04 299.79 357.09 304.64 349.09 304.96 L 349.74 303.95 C 354.83 301.03 360.50 299.23 366.24 298.14 C 370.89 297.22 375.76 297.22 380.20 295.43 C 368.98 295.05 357.73 297.91 347.83 303.18 C 346.56 303.89 347.87 305.19 348.58 305.77 L 348.99 306.17 C 345.13 308.49 340.53 310.38 335.95 309.66 C 340.19 304.53 345.82 300.91 351.25 297.19 Z" fill="#c8f2fc" opacity="1.00" stroke="#c8f2fc" stroke-width="0.25" data-index="19"></path>
<path d="M 347.83 303.18 C 357.73 297.91 368.98 295.05 380.20 295.43 C 375.76 297.22 370.89 297.22 366.24 298.14 C 360.50 299.23 354.83 301.03 349.74 303.95 L 349.09 304.96 C 348.96 305.16 348.70 305.57 348.58 305.77 C 347.87 305.19 346.56 303.89 347.83 303.18 Z" fill="#002a45" opacity="1.00" stroke="#002a45" stroke-width="0.25" data-index="20"></path>
<path d="M 140.66 303.08 C 146.61 301.18 152.92 301.80 159.06 301.62 C 164.58 301.32 169.97 302.95 175.08 304.87 C 179.16 307.23 182.59 310.72 185.46 314.42 C 186.35 316.85 182.95 318.00 181.06 317.84 C 174.68 318.71 169.29 314.80 163.98 311.95 C 159.17 309.07 153.72 307.59 148.74 305.05 C 158.29 304.83 166.58 309.94 174.52 314.56 C 172.07 310.80 167.79 309.00 163.93 307.07 C 159.84 305.05 155.32 304.24 150.82 303.82 C 149.82 304.22 148.83 304.61 147.83 304.99 C 145.31 306.15 142.48 304.90 140.66 303.08 Z" fill="#c8f1fd" opacity="1.00" stroke="#c8f1fd" stroke-width="0.25" data-index="21"></path>
<path d="M 147.83 304.99 C 148.83 304.61 149.82 304.22 150.82 303.82 C 155.32 304.24 159.84 305.05 163.93 307.07 C 167.79 309.00 172.07 310.80 174.52 314.56 C 166.58 309.94 158.29 304.83 148.74 305.05 L 147.83 304.99 Z" fill="#002a45" opacity="1.00" stroke="#002a45" stroke-width="0.25" data-index="22"></path>
<path d="M 221.07 319.24 C 232.84 325.29 242.21 335.19 254.23 340.90 C 256.82 342.43 260.24 342.89 262.00 345.54 C 247.82 341.54 237.01 330.98 224.98 323.08 C 223.51 321.98 221.47 321.25 221.07 319.24 Z" fill="#002a45" opacity="1.00" stroke="#002a45" stroke-width="0.25" data-index="23"></path>
<path d="M 393.13 333.16 C 393.84 332.60 394.64 332.42 395.53 332.61 C 399.09 333.01 402.65 333.46 406.15 334.28 C 405.90 334.78 405.39 335.80 405.13 336.31 C 402.44 336.82 399.70 335.96 397.06 335.54 C 395.59 335.12 393.53 334.94 393.13 333.16 Z" fill="#d2edf5" opacity="1.00" stroke="#d2edf5" stroke-width="0.25" data-index="24"></path>
</svg>