<svg xmlns="http://www.w3.org/2000/svg" height="512pt" version="1.1" viewBox="0 0 512 512" width="512pt"><defs>
                <linearGradient id="grad-57" gradientTransform="rotate(127 0.5 0.5)">
                
                        <stop stop-color="#053458" offset="0"></stop>
                    ,
                        <stop stop-color="null" offset="0.5"></stop>
                    
                </linearGradient>
          </defs>

<path d="M 214.55 67.71 C 217.89 66.03 220.58 69.25 223.02 71.05 C 234.47 81.31 241.98 95.06 248.54 108.76 C 254.02 98.18 259.94 87.69 267.59 78.50 C 271.62 74.08 275.71 69.56 280.94 66.53 C 281.55 66.82 282.77 67.41 283.38 67.70 C 283.51 72.93 281.66 77.91 281.09 83.07 C 277.87 100.81 277.36 118.94 278.82 136.89 C 285.96 123.97 294.59 111.40 306.91 102.92 C 309.42 101.29 312.05 99.55 315.15 99.42 C 315.49 100.07 316.18 101.38 316.52 102.04 C 313.90 106.76 310.77 111.20 308.43 116.10 C 303.40 125.69 300.67 136.25 297.35 146.48 C 307.12 140.12 318.27 135.48 329.96 134.44 C 332.21 134.15 337.26 134.55 335.10 137.97 C 329.00 142.12 322.71 146.12 317.47 151.37 C 312.92 155.32 309.21 160.08 305.24 164.57 C 315.60 160.25 326.68 156.97 338.03 157.52 C 342.01 157.64 346.99 157.52 349.70 160.96 C 349.30 161.50 348.50 162.57 348.10 163.11 C 334.60 168.92 322.61 177.78 312.17 188.03 C 305.46 195.09 298.78 202.38 293.97 210.90 C 306.80 205.42 323.13 206.51 333.47 216.50 C 334.97 217.66 334.71 219.61 334.49 221.27 C 319.76 220.34 304.79 226.17 294.83 237.10 C 296.73 238.69 299.10 239.52 301.20 240.80 C 313.36 248.05 323.02 259.08 329.67 271.51 C 335.98 282.95 338.99 295.86 341.08 308.66 C 343.85 330.72 343.08 353.32 337.92 374.99 C 334.90 387.85 329.90 400.38 322.18 411.16 C 315.16 421.70 305.27 430.28 293.85 435.76 C 323.57 435.91 353.30 435.76 383.03 435.82 C 388.61 436.11 394.33 435.14 399.81 436.49 C 400.32 437.57 400.84 438.65 401.39 439.72 C 401.06 442.00 399.93 445.08 397.02 444.62 C 303.02 444.62 209.00 444.63 115.00 444.62 C 110.73 444.68 110.23 439.10 112.42 436.43 C 116.17 435.31 120.12 435.94 123.97 435.81 C 155.66 435.71 187.35 436.02 219.04 435.65 C 209.98 432.42 202.48 425.94 196.02 418.98 C 188.14 410.33 182.59 399.85 178.37 389.01 C 172.07 371.06 169.44 352.00 169.40 333.03 C 169.67 312.91 172.27 292.33 181.20 274.07 C 188.79 258.70 200.92 245.05 216.70 237.88 C 205.54 225.80 187.51 221.71 171.77 225.34 C 171.17 225.02 169.98 224.36 169.38 224.03 C 171.25 218.81 175.81 215.24 180.19 212.15 C 189.07 206.38 200.50 203.90 210.85 206.52 C 209.83 203.92 207.32 202.38 205.50 200.40 C 194.10 189.74 180.52 180.04 164.63 178.12 C 163.60 177.81 163.15 176.77 162.52 176.01 C 164.15 174.60 165.97 173.44 168.00 172.68 C 177.72 170.19 188.09 169.56 197.95 171.56 C 197.08 169.31 194.86 168.11 193.14 166.60 C 186.77 161.44 179.27 157.92 171.57 155.25 C 169.92 154.91 169.27 153.42 169.34 151.86 C 173.79 149.36 178.98 148.95 183.97 148.77 C 193.19 148.92 202.42 150.53 211.03 153.90 C 207.50 144.57 202.01 136.03 195.83 128.23 C 192.74 124.14 188.54 121.08 185.36 117.08 C 185.76 116.50 186.55 115.33 186.94 114.75 C 196.31 114.85 204.88 119.97 212.06 125.62 C 216.23 128.58 219.48 132.57 223.14 136.10 C 223.23 116.64 221.96 97.00 216.84 78.14 C 216.01 74.68 214.53 71.33 214.55 67.71 Z" fill="#053458" opacity="1.00" stroke="#053458" stroke-width="0.25" data-index="1" style="visibility: visible; opacity: 1; display: block;"></path>
<path d="M 269.60 87.71 C 270.92 86.05 271.90 84.01 273.81 82.92 C 272.04 93.51 270.52 104.19 270.52 114.95 C 270.48 127.91 271.76 140.85 273.52 153.68 C 276.64 173.42 276.23 193.94 270.07 213.07 C 269.47 214.83 268.98 216.63 268.54 218.45 C 269.85 218.15 270.73 217.42 271.19 216.25 C 274.69 207.67 276.08 198.45 277.45 189.35 C 282.48 185.58 287.54 181.82 293.01 178.69 C 303.65 172.76 314.90 167.75 326.90 165.37 C 325.82 167.71 323.18 168.62 321.34 170.25 C 305.76 182.39 292.34 197.55 282.87 214.93 C 279.72 220.13 279.35 226.40 276.67 231.79 C 272.77 232.54 268.45 231.28 264.37 231.32 C 258.98 230.82 253.55 231.03 248.14 231.01 C 242.83 223.68 236.10 217.55 229.51 211.41 C 226.17 207.99 222.10 205.46 218.20 202.76 C 210.21 194.33 201.46 186.58 191.63 180.34 C 191.55 179.93 191.38 179.11 191.30 178.70 C 196.96 179.47 202.73 179.31 208.32 180.59 C 224.82 183.96 241.04 191.16 252.96 203.31 C 253.53 203.34 254.67 203.41 255.23 203.45 C 257.94 203.77 260.76 203.72 262.97 201.90 C 258.68 196.01 253.91 190.50 249.00 185.12 C 245.46 181.28 242.42 176.61 237.41 174.56 C 239.45 156.69 243.78 139.06 250.70 122.44 C 255.85 110.30 261.51 98.21 269.60 87.71 Z" fill="#45cf91" opacity="1.00" stroke="#45cf91" stroke-width="0.25" data-index="2"></path>
<path d="M 227.29 87.04 C 234.34 95.72 239.44 105.79 243.65 116.12 C 244.62 118.81 245.98 121.40 246.56 124.23 C 246.42 126.19 245.60 128.03 245.02 129.89 C 240.37 143.23 237.25 157.07 235.34 171.06 C 230.63 169.62 226.80 166.35 222.46 164.11 C 219.77 153.00 214.37 142.85 208.97 132.89 C 210.95 133.89 212.10 135.87 213.55 137.47 C 218.49 142.96 222.81 148.99 226.73 155.25 C 227.91 156.90 228.42 159.36 230.55 160.06 C 230.38 141.02 231.39 121.90 228.96 102.95 C 228.67 97.61 227.09 92.41 227.29 87.04 Z" fill="#229054" opacity="1.00" stroke="#229054" stroke-width="0.25" data-index="3"></path>
<path d="M 243.65 116.12 C 246.70 116.56 246.35 120.50 247.44 122.72 C 248.52 122.63 249.61 122.53 250.70 122.44 C 243.78 139.06 239.45 156.69 237.41 174.56 C 236.98 177.50 236.88 180.50 236.34 183.43 C 236.01 183.50 235.35 183.64 235.02 183.71 C 234.08 180.52 234.88 177.15 234.94 173.90 C 229.95 171.01 225.10 167.83 219.79 165.55 C 220.46 165.19 221.80 164.47 222.46 164.11 C 226.80 166.35 230.63 169.62 235.34 171.06 C 237.25 157.07 240.37 143.23 245.02 129.89 C 245.60 128.03 246.42 126.19 246.56 124.23 C 245.98 121.40 244.62 118.81 243.65 116.12 Z" fill="#00373f" opacity="1.00" stroke="#00373f" stroke-width="0.25" data-index="4"></path>
<path d="M 278.26 156.05 C 283.84 145.35 287.71 133.40 296.11 124.44 C 295.28 129.11 293.38 133.50 292.30 138.11 C 289.70 147.24 288.10 156.60 286.34 165.92 C 289.24 164.43 291.11 161.64 293.63 159.65 C 298.38 155.67 303.01 151.26 308.87 148.97 C 302.63 156.77 295.95 164.41 291.75 173.57 C 289.59 179.97 282.66 182.23 277.78 186.12 C 277.69 178.40 277.82 170.66 276.85 162.99 C 276.35 160.55 277.15 158.19 278.26 156.05 Z" fill="#218f55" opacity="1.00" stroke="#218f55" stroke-width="0.25" data-index="5"></path>
<path d="M 273.52 153.68 C 275.42 154.52 274.96 156.90 275.41 158.56 C 276.17 157.53 277.02 156.54 278.26 156.05 C 277.15 158.19 276.35 160.55 276.85 162.99 C 277.82 170.66 277.69 178.40 277.78 186.12 C 282.66 182.23 289.59 179.97 291.75 173.57 C 291.83 174.85 291.81 176.12 291.70 177.40 C 292.03 177.72 292.68 178.37 293.01 178.69 C 287.54 181.82 282.48 185.58 277.45 189.35 C 276.08 198.45 274.69 207.67 271.19 216.25 C 270.73 217.42 269.85 218.15 268.54 218.45 C 268.98 216.63 269.47 214.83 270.07 213.07 C 276.23 193.94 276.64 173.42 273.52 153.68 Z" fill="#003142" opacity="1.00" stroke="#003142" stroke-width="0.25" data-index="6"></path>
<path d="M 192.39 157.06 C 202.00 157.89 211.00 161.82 219.79 165.55 C 225.10 167.83 229.95 171.01 234.94 173.90 C 234.88 177.15 234.08 180.52 235.02 183.71 C 235.35 183.64 236.01 183.50 236.34 183.43 C 236.88 180.50 236.98 177.50 237.41 174.56 C 242.42 176.61 245.46 181.28 249.00 185.12 C 253.91 190.50 258.68 196.01 262.97 201.90 C 260.76 203.72 257.94 203.77 255.23 203.45 C 254.50 202.29 253.83 201.07 252.85 200.09 C 242.82 190.55 230.24 183.88 216.97 180.08 C 214.66 179.62 213.85 177.12 212.41 175.56 C 206.96 168.17 199.66 162.52 192.39 157.06 Z" fill="#24a577" opacity="1.00" stroke="#24a577" stroke-width="0.25" data-index="7"></path>
<path d="M 218.20 202.76 C 222.10 205.46 226.17 207.99 229.51 211.41 C 229.17 217.27 236.41 220.05 236.03 226.01 C 235.39 225.38 234.77 224.75 234.16 224.10 C 229.72 216.36 223.87 209.59 218.20 202.76 Z" fill="#268969" opacity="1.00" stroke="#268969" stroke-width="0.25" data-index="8"></path>
<path d="M 236.03 226.01 C 236.41 220.05 229.17 217.27 229.51 211.41 C 236.10 217.55 242.83 223.68 248.14 231.01 C 253.55 231.03 258.98 230.82 264.37 231.32 C 250.69 231.63 236.70 230.70 223.44 234.80 C 219.03 229.32 213.30 224.99 207.02 221.87 C 201.07 218.90 194.44 217.79 187.97 216.54 C 191.80 214.01 196.59 213.72 201.04 213.47 C 212.99 212.83 224.27 218.48 233.44 225.70 C 233.62 225.30 233.98 224.50 234.16 224.10 C 234.77 224.75 235.39 225.38 236.03 226.01 Z" fill="#219055" opacity="1.00" stroke="#219055" stroke-width="0.25" data-index="9"></path>
<path d="M 284.46 225.49 C 292.95 218.62 303.91 214.19 314.97 215.48 C 314.58 216.68 313.29 216.93 312.24 217.31 C 302.43 220.15 293.82 226.57 287.63 234.63 C 284.51 234.01 281.40 233.30 278.43 232.16 C 279.37 229.12 282.18 227.44 284.46 225.49 Z" fill="#218c55" opacity="1.00" stroke="#218c55" stroke-width="0.25" data-index="10"></path>
<path d="M 225.44 241.12 C 229.42 239.21 233.89 239.02 238.03 237.57 C 248.71 237.09 259.41 237.24 270.10 237.33 C 274.43 237.04 278.46 238.93 282.70 239.48 C 286.63 240.66 290.96 241.26 294.24 243.90 L 293.76 245.21 C 282.79 239.45 270.15 238.97 258.03 238.76 C 250.00 238.63 241.94 238.98 233.99 240.20 C 233.63 240.25 232.90 240.35 232.54 240.40 C 229.85 240.92 227.24 241.76 224.69 242.74 C 223.11 243.32 221.52 243.90 219.96 244.53 C 220.26 241.87 223.61 242.16 225.44 241.12 Z" fill="#153131" opacity="1.00" stroke="#153131" stroke-width="0.25" data-index="11"></path>
<path d="M 233.99 240.20 C 241.94 238.98 250.00 238.63 258.03 238.76 C 270.15 238.97 282.79 239.45 293.76 245.21 C 295.14 246.04 296.46 246.96 297.80 247.86 C 294.41 247.20 291.16 245.99 287.76 245.35 C 282.87 244.19 278.05 242.74 273.11 241.74 C 270.82 240.95 268.42 240.46 265.99 240.57 C 257.35 240.66 248.71 240.42 240.08 240.83 C 238.03 240.93 236.00 240.53 233.99 240.20 Z" fill="#e4b146" opacity="1.00" stroke="#e4b146" stroke-width="0.25" data-index="12"></path>
<path d="M 224.69 242.74 C 227.24 241.76 229.85 240.92 232.54 240.40 C 230.54 241.73 228.60 243.19 227.31 245.25 C 226.47 245.61 225.64 245.96 224.80 246.31 C 224.76 245.12 224.72 243.93 224.69 242.74 Z" fill="#d89442" opacity="1.00" stroke="#d89442" stroke-width="0.25" data-index="13"></path>
<path d="M 232.54 240.40 C 232.90 240.35 233.63 240.25 233.99 240.20 C 236.00 240.53 238.03 240.93 240.08 240.83 C 248.71 240.42 257.35 240.66 265.99 240.57 C 268.42 240.46 270.82 240.95 273.11 241.74 C 272.76 242.23 272.07 243.21 271.72 243.70 C 277.27 244.03 282.60 245.60 287.75 247.59 C 287.73 253.66 283.35 258.35 279.74 262.77 C 278.51 264.06 277.38 266.23 275.26 265.79 C 271.48 262.94 268.74 258.95 265.06 255.97 C 262.18 253.76 260.72 249.53 256.82 248.92 C 260.09 253.92 264.86 257.68 268.88 262.05 C 270.59 264.12 273.89 265.73 273.80 268.72 C 264.10 277.90 252.92 285.36 241.95 292.93 C 231.56 283.32 222.26 272.65 212.57 262.38 C 212.62 262.94 212.70 264.07 212.74 264.63 C 221.40 274.90 230.65 284.66 240.21 294.10 C 228.15 301.72 215.81 309.02 202.79 314.91 C 199.44 311.83 197.00 307.92 193.68 304.80 C 196.86 284.06 206.62 264.34 221.23 249.25 C 221.47 249.13 221.96 248.90 222.21 248.78 C 224.31 248.14 226.44 247.55 228.57 247.01 C 228.15 246.42 227.73 245.83 227.31 245.25 C 228.60 243.19 230.54 241.73 232.54 240.40 Z" fill="#fca618" opacity="1.00" stroke="#fca618" stroke-width="0.25" data-index="14"></path>
<path d="M 271.72 243.70 C 272.07 243.21 272.76 242.23 273.11 241.74 C 278.05 242.74 282.87 244.19 287.76 245.35 C 290.34 248.10 289.18 251.87 287.61 254.81 C 285.17 259.87 281.07 263.79 277.40 267.95 C 285.47 275.54 294.11 282.54 303.13 288.97 C 304.25 289.55 305.31 290.74 306.65 290.64 C 309.16 287.22 312.38 283.47 311.66 278.90 C 311.06 271.56 308.70 264.44 308.47 257.04 C 307.29 255.69 306.12 254.33 304.90 253.02 C 308.11 255.84 310.87 259.12 314.03 261.99 C 312.72 261.16 311.37 260.38 310.03 259.62 C 311.33 265.75 312.74 271.86 313.55 278.08 C 315.02 274.00 316.23 269.79 316.56 265.44 C 319.61 268.75 321.89 272.72 323.79 276.79 C 322.22 274.08 320.74 271.29 318.78 268.84 C 317.11 272.79 316.20 277.00 314.67 281.01 C 313.30 285.15 310.29 288.41 308.17 292.15 C 309.44 293.12 310.72 294.10 312.00 295.08 C 312.35 294.07 312.72 293.09 313.07 292.09 C 313.64 293.69 313.52 295.83 315.01 296.94 C 319.35 299.98 324.06 302.45 328.53 305.28 C 327.34 305.57 326.03 305.72 324.96 304.99 C 321.37 303.13 317.97 300.92 314.50 298.86 C 312.63 307.59 312.69 316.70 310.67 325.44 C 310.06 328.01 309.54 330.60 309.08 333.20 C 308.66 333.34 307.81 333.63 307.39 333.78 C 309.05 321.65 312.51 309.57 311.65 297.23 C 310.34 295.79 308.51 294.99 306.90 293.97 C 298.42 305.98 288.30 316.68 277.91 327.03 C 285.54 334.52 293.40 341.75 301.13 349.13 C 308.07 343.29 313.91 336.27 320.02 329.59 C 322.44 326.91 324.71 324.10 326.78 321.14 C 329.05 318.08 330.94 314.73 333.63 312.00 L 333.62 313.75 C 333.40 315.13 333.18 316.51 333.06 317.90 L 332.93 316.05 C 328.64 320.90 325.21 326.45 320.92 331.31 C 316.33 336.12 312.01 341.18 307.23 345.81 C 305.83 347.20 304.34 348.52 303.20 350.16 C 303.11 351.43 304.19 352.20 305.02 352.99 C 311.69 358.48 317.81 364.60 324.32 370.28 C 325.95 371.83 327.72 373.24 329.45 374.69 C 329.51 375.03 329.63 375.71 329.69 376.05 C 328.83 379.46 327.79 382.83 326.57 386.13 C 327.38 383.08 328.82 380.12 328.77 376.91 C 327.67 374.86 325.63 373.56 323.94 372.05 C 316.05 365.63 308.89 358.36 301.12 351.85 C 288.90 363.82 275.61 374.64 262.38 385.46 C 262.34 385.82 262.24 386.54 262.19 386.90 C 267.01 394.31 274.04 400.29 277.93 408.27 C 275.99 407.20 274.41 405.62 273.14 403.82 C 270.12 399.65 266.77 395.74 263.60 391.69 C 262.42 390.22 261.22 388.75 260.04 387.29 C 257.07 389.43 254.20 391.69 251.40 394.04 C 243.51 399.71 235.36 405.00 227.11 410.14 C 225.85 410.88 224.54 411.55 223.25 412.24 C 223.11 411.97 222.82 411.41 222.68 411.14 C 223.46 410.44 224.27 409.77 225.11 409.14 C 236.77 402.07 248.32 394.68 258.77 385.87 C 252.01 377.44 245.42 368.84 238.07 360.91 C 227.20 368.78 216.96 377.51 205.78 384.97 C 205.41 385.23 204.67 385.74 204.30 386.00 L 204.11 384.64 C 207.55 381.13 211.83 378.66 215.69 375.66 C 222.44 370.71 228.89 365.37 235.70 360.50 C 236.03 360.25 236.68 359.76 237.00 359.51 C 234.93 355.76 232.00 352.59 229.04 349.52 C 220.40 339.12 211.85 328.62 203.02 318.39 C 199.82 317.61 196.91 319.79 194.09 320.98 C 192.26 321.56 191.73 323.51 191.12 325.10 C 191.32 324.47 191.70 323.21 191.90 322.58 C 190.92 322.45 188.95 322.17 187.97 322.04 C 189.15 321.38 190.34 320.73 191.56 320.14 C 194.68 318.76 197.83 317.41 200.89 315.88 C 198.77 312.88 196.22 310.23 193.89 307.41 C 192.67 305.79 191.43 304.19 190.03 302.73 C 187.67 299.65 184.98 296.85 182.20 294.15 C 182.45 293.89 182.95 293.38 183.20 293.13 C 186.78 296.94 190.06 301.03 193.68 304.80 C 197.00 307.92 199.44 311.83 202.79 314.91 C 215.81 309.02 228.15 301.72 240.21 294.10 C 230.65 284.66 221.40 274.90 212.74 264.63 C 212.70 264.07 212.62 262.94 212.57 262.38 C 222.26 272.65 231.56 283.32 241.95 292.93 C 252.92 285.36 264.10 277.90 273.80 268.72 C 273.89 265.73 270.59 264.12 268.88 262.05 C 264.86 257.68 260.09 253.92 256.82 248.92 C 260.72 249.53 262.18 253.76 265.06 255.97 C 268.74 258.95 271.48 262.94 275.26 265.79 C 277.38 266.23 278.51 264.06 279.74 262.77 C 283.35 258.35 287.73 253.66 287.75 247.59 C 282.60 245.60 277.27 244.03 271.72 243.70 Z" fill="#fff7bc" opacity="1.00" stroke="#fff7bc" stroke-width="0.25" data-index="15"></path>
<path d="M 219.96 244.53 C 221.52 243.90 223.11 243.32 224.69 242.74 C 224.72 243.93 224.76 245.12 224.80 246.31 C 223.12 247.01 221.44 247.73 219.74 248.39 C 216.48 249.33 213.53 251.23 210.10 251.58 C 210.24 251.15 210.51 250.27 210.65 249.83 C 213.57 247.78 216.77 246.13 219.96 244.53 Z" fill="#d2623f" opacity="1.00" stroke="#d2623f" stroke-width="0.25" data-index="16"></path>
<path d="M 224.80 246.31 C 225.64 245.96 226.47 245.61 227.31 245.25 C 227.73 245.83 228.15 246.42 228.57 247.01 C 226.44 247.55 224.31 248.14 222.21 248.78 C 221.59 248.68 220.36 248.49 219.74 248.39 C 221.44 247.73 223.12 247.01 224.80 246.31 Z" fill="#fff7bc" opacity="1.00" stroke="#fff7bc" stroke-width="0.25" data-index="17"></path>
<path d="M 287.76 245.35 C 291.16 245.99 294.41 247.20 297.80 247.86 C 298.61 248.39 299.41 248.95 300.21 249.52 C 299.89 251.40 301.74 252.44 303.35 251.62 C 303.73 251.97 304.51 252.67 304.90 253.02 C 306.12 254.33 307.29 255.69 308.47 257.04 C 308.70 264.44 311.06 271.56 311.66 278.90 C 312.38 283.47 309.16 287.22 306.65 290.64 C 305.31 290.74 304.25 289.55 303.13 288.97 C 294.11 282.54 285.47 275.54 277.40 267.95 C 281.07 263.79 285.17 259.87 287.61 254.81 C 289.18 251.87 290.34 248.10 287.76 245.35 Z" fill="#fca619" opacity="1.00" stroke="#fca619" stroke-width="0.25" data-index="18"></path>
<path d="M 293.76 245.21 C 295.19 244.27 296.56 245.55 297.78 246.16 C 303.88 250.18 309.88 254.59 314.47 260.32 C 314.54 260.91 314.69 262.08 314.76 262.67 L 314.03 261.99 C 310.87 259.12 308.11 255.84 304.90 253.02 C 304.51 252.67 303.73 251.97 303.35 251.62 C 302.56 250.58 301.46 249.86 300.21 249.52 C 299.41 248.95 298.61 248.39 297.80 247.86 C 296.46 246.96 295.14 246.04 293.76 245.21 Z" fill="#434328" opacity="1.00" stroke="#434328" stroke-width="0.25" data-index="19"></path>
<path d="M 210.10 251.58 C 213.53 251.23 216.48 249.33 219.74 248.39 C 220.36 248.49 221.59 248.68 222.21 248.78 C 221.96 248.90 221.47 249.13 221.23 249.25 C 215.27 251.07 209.80 254.34 203.74 255.77 C 205.74 254.26 207.47 251.94 210.10 251.58 Z" fill="#ffe2d3" opacity="1.00" stroke="#ffe2d3" stroke-width="0.25" data-index="20"></path>
<path d="M 203.74 255.77 C 209.80 254.34 215.27 251.07 221.23 249.25 C 206.62 264.34 196.86 284.06 193.68 304.80 C 190.06 301.03 186.78 296.94 183.20 293.13 C 186.15 285.90 188.10 278.17 192.64 271.68 C 193.87 269.36 196.62 267.21 195.69 264.30 C 194.27 266.56 192.76 268.77 191.12 270.88 C 191.13 267.41 193.76 264.16 196.99 263.03 C 198.92 260.50 200.88 257.99 203.25 255.85 L 203.74 255.77 Z" fill="#ea582b" opacity="1.00" stroke="#ea582b" stroke-width="0.25" data-index="21"></path>
<path d="M 300.21 249.52 C 301.46 249.86 302.56 250.58 303.35 251.62 C 301.74 252.44 299.89 251.40 300.21 249.52 Z" fill="#d7a743" opacity="1.00" stroke="#d7a743" stroke-width="0.25" data-index="22"></path>
<path d="M 310.03 259.62 C 311.37 260.38 312.72 261.16 314.03 261.99 L 314.76 262.67 C 315.46 263.49 316.52 264.26 316.56 265.44 C 316.23 269.79 315.02 274.00 313.55 278.08 C 312.74 271.86 311.33 265.75 310.03 259.62 Z" fill="#f2a31c" opacity="1.00" stroke="#f2a31c" stroke-width="0.25" data-index="23"></path>
<path d="M 191.12 270.88 C 192.76 268.77 194.27 266.56 195.69 264.30 C 196.62 267.21 193.87 269.36 192.64 271.68 C 188.10 278.17 186.15 285.90 183.20 293.13 C 182.95 293.38 182.45 293.89 182.20 294.15 C 184.98 296.85 187.67 299.65 190.03 302.73 C 187.18 301.63 184.93 299.56 182.76 297.49 C 180.57 303.75 180.41 310.48 179.02 316.93 C 178.22 331.13 177.85 345.52 180.55 359.55 C 180.25 359.25 179.64 358.65 179.34 358.35 C 179.34 358.84 179.35 359.80 179.36 360.28 C 178.29 356.97 178.05 353.49 177.79 350.05 C 176.58 331.93 176.84 313.53 181.14 295.80 C 183.41 287.11 186.63 278.67 191.12 270.88 Z" fill="#bb5f49" opacity="1.00" stroke="#bb5f49" stroke-width="0.25" data-index="24"></path>
<path d="M 245.58 293.05 C 255.76 285.21 266.67 278.25 275.96 269.30 C 284.93 277.31 294.30 284.86 304.02 291.95 C 305.27 292.56 304.69 294.10 304.12 294.98 C 296.28 305.38 287.48 315.07 277.97 323.99 C 277.23 324.90 275.70 325.13 274.94 324.12 C 264.90 315.26 255.58 305.62 245.52 296.78 L 245.63 295.76 C 245.62 295.08 245.59 293.73 245.58 293.05 Z" fill="#fca719" opacity="1.00" stroke="#fca719" stroke-width="0.25" data-index="25"></path>
<path d="M 314.67 281.01 C 316.20 277.00 317.11 272.79 318.78 268.84 C 320.74 271.29 322.22 274.08 323.79 276.79 C 329.68 287.55 332.42 299.89 333.63 312.00 C 330.94 314.73 329.05 318.08 326.78 321.14 C 323.01 322.32 320.80 325.91 320.02 329.59 C 313.91 336.27 308.07 343.29 301.13 349.13 C 293.40 341.75 285.54 334.52 277.91 327.03 C 288.30 316.68 298.42 305.98 306.90 293.97 C 308.51 294.99 310.34 295.79 311.65 297.23 C 312.51 309.57 309.05 321.65 307.39 333.78 C 307.81 333.63 308.66 333.34 309.08 333.20 C 309.54 330.60 310.06 328.01 310.67 325.44 C 312.69 316.70 312.63 307.59 314.50 298.86 C 317.97 300.92 321.37 303.13 324.96 304.99 C 326.03 305.72 327.34 305.57 328.53 305.28 C 324.06 302.45 319.35 299.98 315.01 296.94 C 313.52 295.83 313.64 293.69 313.07 292.09 C 312.72 293.09 312.35 294.07 312.00 295.08 C 310.72 294.10 309.44 293.12 308.17 292.15 C 310.29 288.41 313.30 285.15 314.67 281.01 Z" fill="#fca619" opacity="1.00" stroke="#fca619" stroke-width="0.25" data-index="26"></path>
<path d="M 245.63 295.76 C 243.26 297.24 243.19 291.80 245.58 293.05 C 245.59 293.73 245.62 295.08 245.63 295.76 Z" fill="#dea741" opacity="1.00" stroke="#dea741" stroke-width="0.25" data-index="27"></path>
<path d="M 179.22 299.24 C 179.74 298.05 179.34 295.93 181.14 295.80 C 176.84 313.53 176.58 331.93 177.79 350.05 C 178.05 353.49 178.29 356.97 179.36 360.28 C 179.56 361.86 179.72 363.46 179.91 365.05 C 180.35 368.82 181.52 372.46 182.29 376.18 C 179.38 373.82 179.47 369.64 178.50 366.31 C 176.90 360.33 177.32 354.10 176.62 348.01 C 175.20 339.75 175.47 331.30 175.89 322.97 C 177.39 315.10 176.92 306.96 179.22 299.24 Z" fill="#153131" opacity="1.00" stroke="#153131" stroke-width="0.25" data-index="28"></path>
<path d="M 204.13 316.73 C 216.63 309.90 229.65 303.82 241.17 295.35 C 244.44 297.09 246.71 300.10 249.42 302.56 C 255.34 308.00 260.72 314.04 266.95 319.15 C 269.71 321.73 272.50 324.29 275.02 327.12 C 274.65 327.26 273.93 327.56 273.56 327.70 C 269.35 329.03 266.90 332.98 263.47 335.50 C 259.81 338.96 255.02 341.47 252.71 346.13 C 248.72 350.66 243.45 353.92 238.85 357.80 C 235.93 355.55 233.93 352.34 231.48 349.63 C 222.45 338.59 213.20 327.73 204.13 316.73 Z" fill="#fba618" opacity="1.00" stroke="#fba618" stroke-width="0.25" data-index="29"></path>
<path d="M 179.02 316.93 C 180.41 310.48 180.57 303.75 182.76 297.49 C 184.93 299.56 187.18 301.63 190.03 302.73 C 191.43 304.19 192.67 305.79 193.89 307.41 C 192.02 311.39 191.46 315.78 191.56 320.14 C 190.34 320.73 189.15 321.38 187.97 322.04 C 188.95 322.17 190.92 322.45 191.90 322.58 C 191.70 323.21 191.32 324.47 191.12 325.10 C 189.39 338.74 191.51 352.74 195.27 365.90 C 196.44 370.76 200.12 375.01 199.59 380.21 C 194.13 372.55 187.35 365.99 180.55 359.55 C 177.85 345.52 178.22 331.13 179.02 316.93 Z" fill="#ea572a" opacity="1.00" stroke="#ea572a" stroke-width="0.25" data-index="30"></path>
<path d="M 193.89 307.41 C 196.22 310.23 198.77 312.88 200.89 315.88 C 197.83 317.41 194.68 318.76 191.56 320.14 C 191.46 315.78 192.02 311.39 193.89 307.41 Z" fill="#feaa19" opacity="1.00" stroke="#feaa19" stroke-width="0.25" data-index="31"></path>
<path d="M 333.62 313.75 L 333.82 312.92 C 334.27 315.44 334.37 318.01 334.51 320.57 C 334.86 326.65 335.14 332.74 334.83 338.82 C 334.68 343.08 334.69 347.34 334.20 351.58 C 333.15 359.61 332.22 367.72 329.87 375.51 L 329.69 376.05 C 329.63 375.71 329.51 375.03 329.45 374.69 C 327.72 373.24 325.95 371.83 324.32 370.28 C 326.00 370.71 327.69 371.12 329.38 371.56 C 330.79 366.83 331.01 361.86 332.19 357.09 C 333.88 350.49 333.11 343.63 333.44 336.90 C 333.73 330.57 333.39 324.23 333.06 317.90 C 333.18 316.51 333.40 315.13 333.62 313.75 Z" fill="#e4b146" opacity="1.00" stroke="#e4b146" stroke-width="0.25" data-index="32"></path>
<path d="M 320.92 331.31 C 325.21 326.45 328.64 320.90 332.93 316.05 L 333.06 317.90 C 333.39 324.23 333.73 330.57 333.44 336.90 C 333.11 343.63 333.88 350.49 332.19 357.09 C 331.01 361.86 330.79 366.83 329.38 371.56 C 327.69 371.12 326.00 370.71 324.32 370.28 C 317.81 364.60 311.69 358.48 305.02 352.99 C 304.19 352.20 303.11 351.43 303.20 350.16 C 304.34 348.52 305.83 347.20 307.23 345.81 C 310.99 345.93 312.76 342.29 315.00 339.95 C 317.16 337.19 320.59 335.12 320.92 331.31 Z" fill="#fca519" opacity="1.00" stroke="#fca519" stroke-width="0.25" data-index="33"></path>
<path d="M 194.09 320.98 C 196.91 319.79 199.82 317.61 203.02 318.39 C 211.85 328.62 220.40 339.12 229.04 349.52 C 230.20 353.77 233.82 356.61 235.70 360.50 C 228.89 365.37 222.44 370.71 215.69 375.66 C 211.83 378.66 207.55 381.13 204.11 384.64 C 202.17 383.64 200.76 381.99 199.59 380.21 C 200.12 375.01 196.44 370.76 195.27 365.90 C 191.51 352.74 189.39 338.74 191.12 325.10 C 191.73 323.51 192.26 321.56 194.09 320.98 Z" fill="#fba618" opacity="1.00" stroke="#fba618" stroke-width="0.25" data-index="34"></path>
<path d="M 320.02 329.59 C 320.80 325.91 323.01 322.32 326.78 321.14 C 324.71 324.10 322.44 326.91 320.02 329.59 Z" fill="#e2a83f" opacity="1.00" stroke="#e2a83f" stroke-width="0.25" data-index="35"></path>
<path d="M 334.51 320.57 C 337.14 321.53 336.08 324.83 336.40 326.96 C 336.03 334.00 337.26 341.28 335.46 348.15 C 335.19 345.05 334.94 341.94 334.83 338.82 C 335.14 332.74 334.86 326.65 334.51 320.57 Z" fill="#2c321b" opacity="1.00" stroke="#2c321b" stroke-width="0.25" data-index="36"></path>
<path d="M 263.47 335.50 C 266.90 332.98 269.35 329.03 273.56 327.70 C 272.12 330.46 269.45 332.18 267.20 334.21 C 262.43 338.23 258.11 342.93 252.71 346.13 C 255.02 341.47 259.81 338.96 263.47 335.50 Z" fill="#e6a83b" opacity="1.00" stroke="#e6a83b" stroke-width="0.25" data-index="37"></path>
<path d="M 276.21 328.09 C 279.65 330.49 282.01 334.08 285.33 336.65 C 290.12 341.38 295.28 345.78 299.74 350.83 C 297.27 352.76 295.29 355.28 292.72 357.07 C 288.15 358.57 284.82 362.20 281.35 365.33 C 276.77 369.82 271.62 373.64 266.59 377.59 C 265.15 378.54 264.61 380.24 263.89 381.72 C 263.26 383.24 261.52 383.77 260.26 384.66 C 253.87 377.07 247.90 369.15 241.42 361.63 C 240.80 360.86 239.28 359.55 240.71 358.72 C 252.76 348.77 265.06 339.07 276.21 328.09 Z" fill="#fca619" opacity="1.00" stroke="#fca619" stroke-width="0.25" data-index="38"></path>
<path d="M 307.23 345.81 C 312.01 341.18 316.33 336.12 320.92 331.31 C 320.59 335.12 317.16 337.19 315.00 339.95 C 312.76 342.29 310.99 345.93 307.23 345.81 Z" fill="#e7a63b" opacity="1.00" stroke="#e7a63b" stroke-width="0.25" data-index="39"></path>
<path d="M 320.59 336.49 C 320.95 336.35 321.66 336.05 322.02 335.91 C 321.36 339.53 319.52 342.76 318.03 346.08 C 316.60 349.00 315.62 352.17 313.69 354.81 C 313.52 353.24 313.20 351.55 314.13 350.14 C 316.42 345.66 318.26 340.94 320.59 336.49 Z" fill="#fff7bc" opacity="1.00" stroke="#fff7bc" stroke-width="0.25" data-index="40"></path>
<path d="M 229.04 349.52 C 232.00 352.59 234.93 355.76 237.00 359.51 C 236.68 359.76 236.03 360.25 235.70 360.50 C 233.82 356.61 230.20 353.77 229.04 349.52 Z" fill="#e4a943" opacity="1.00" stroke="#e4a943" stroke-width="0.25" data-index="41"></path>
<path d="M 262.38 385.46 C 275.61 374.64 288.90 363.82 301.12 351.85 C 308.89 358.36 316.05 365.63 323.94 372.05 C 325.63 373.56 327.67 374.86 328.77 376.91 C 328.82 380.12 327.38 383.08 326.57 386.13 C 325.04 391.07 322.55 395.64 320.29 400.28 C 319.81 401.40 319.03 402.34 318.00 403.01 C 317.71 403.88 317.44 404.76 317.17 405.64 C 316.82 406.22 316.48 406.79 316.15 407.38 C 316.10 407.11 316.02 406.56 315.97 406.28 C 314.69 410.32 310.86 412.68 308.86 416.30 L 307.86 416.13 C 306.82 415.90 306.11 416.34 305.73 417.43 C 305.35 417.62 304.60 418.00 304.23 418.19 C 294.83 420.40 285.45 423.72 275.66 423.22 C 278.02 419.76 279.25 415.27 283.08 413.06 C 293.28 406.38 303.04 399.06 312.45 391.32 C 314.26 389.60 316.97 388.15 316.73 385.25 C 301.37 398.74 284.54 410.50 267.13 421.17 C 267.69 421.48 268.80 422.10 269.36 422.40 C 266.97 424.35 263.76 423.39 260.99 423.18 C 252.64 421.91 244.07 420.54 236.56 416.42 C 233.27 414.58 229.13 413.63 227.11 410.14 C 235.36 405.00 243.51 399.71 251.40 394.04 C 254.30 393.66 256.50 391.74 258.90 390.28 C 260.52 390.55 262.05 391.16 263.60 391.69 C 266.77 395.74 270.12 399.65 273.14 403.82 C 274.41 405.62 275.99 407.20 277.93 408.27 C 274.04 400.29 267.01 394.31 262.19 386.90 C 262.24 386.54 262.34 385.82 262.38 385.46 Z" fill="#fca619" opacity="1.00" stroke="#fca619" stroke-width="0.25" data-index="42"></path>
<path d="M 334.20 351.58 L 335.01 352.28 C 335.21 360.12 333.84 368.07 331.56 375.54 L 329.87 375.51 C 332.22 367.72 333.15 359.61 334.20 351.58 Z" fill="#182f31" opacity="1.00" stroke="#182f31" stroke-width="0.25" data-index="43"></path>
<path d="M 281.35 365.33 C 284.82 362.20 288.15 358.57 292.72 357.07 C 288.92 361.49 284.16 364.96 279.86 368.86 C 274.51 373.10 269.80 378.27 263.89 381.72 C 264.61 380.24 265.15 378.54 266.59 377.59 C 271.62 373.64 276.77 369.82 281.35 365.33 Z" fill="#e8a93d" opacity="1.00" stroke="#e8a93d" stroke-width="0.25" data-index="44"></path>
<path d="M 179.34 358.35 C 179.64 358.65 180.25 359.25 180.55 359.55 C 187.35 365.99 194.13 372.55 199.59 380.21 C 200.76 381.99 202.17 383.64 204.11 384.64 L 204.30 386.00 C 206.01 389.63 208.88 392.58 211.05 395.94 C 214.93 401.00 218.13 406.61 222.68 411.14 C 222.82 411.41 223.11 411.97 223.25 412.24 C 225.26 416.24 228.24 419.62 230.69 423.35 C 233.20 426.54 235.18 430.30 238.58 432.68 C 235.67 433.18 233.93 430.94 232.75 428.68 C 229.44 423.51 225.75 418.59 222.29 413.52 C 221.40 413.57 219.63 413.68 218.74 413.73 C 219.43 412.88 220.12 412.03 220.82 411.19 C 215.14 403.30 209.08 395.66 203.81 387.50 C 202.51 387.58 201.20 387.67 199.90 387.76 C 200.58 386.82 201.26 385.88 201.94 384.95 C 195.19 376.40 188.37 367.77 179.85 360.89 C 179.86 361.93 179.90 364.01 179.91 365.05 C 179.72 363.46 179.56 361.86 179.36 360.28 C 179.35 359.80 179.34 358.84 179.34 358.35 Z" fill="#ffe2d3" opacity="1.00" stroke="#ffe2d3" stroke-width="0.25" data-index="45"></path>
<path d="M 205.78 384.97 C 216.96 377.51 227.20 368.78 238.07 360.91 C 245.42 368.84 252.01 377.44 258.77 385.87 C 248.32 394.68 236.77 402.07 225.11 409.14 C 219.72 405.86 216.06 400.59 212.30 395.68 C 209.85 392.29 206.97 389.07 205.78 384.97 Z" fill="#fca618" opacity="1.00" stroke="#fca618" stroke-width="0.25" data-index="46"></path>
<path d="M 179.85 360.89 C 188.37 367.77 195.19 376.40 201.94 384.95 C 201.26 385.88 200.58 386.82 199.90 387.76 C 201.20 387.67 202.51 387.58 203.81 387.50 C 209.08 395.66 215.14 403.30 220.82 411.19 C 220.12 412.03 219.43 412.88 218.74 413.73 C 219.63 413.68 221.40 413.57 222.29 413.52 C 225.75 418.59 229.44 423.51 232.75 428.68 C 232.76 429.42 232.78 430.91 232.79 431.65 C 230.73 431.08 228.65 430.63 226.54 430.33 C 218.94 428.45 212.25 423.98 206.29 419.03 C 194.20 407.54 186.56 392.13 182.29 376.18 C 181.52 372.46 180.35 368.82 179.91 365.05 C 179.90 364.01 179.86 361.93 179.85 360.89 Z" fill="#ea582c" opacity="1.00" stroke="#ea582c" stroke-width="0.25" data-index="47"></path>
<path d="M 297.83 376.74 C 299.13 374.15 299.40 370.89 301.62 368.87 C 302.21 372.74 299.85 376.12 298.65 379.63 C 295.72 385.60 293.90 392.06 290.73 397.91 C 290.31 398.98 289.26 399.44 288.32 399.94 C 290.76 391.95 294.99 384.61 297.83 376.74 Z" fill="#fff7bc" opacity="1.00" stroke="#fff7bc" stroke-width="0.25" data-index="48"></path>
<path d="M 204.30 386.00 C 204.67 385.74 205.41 385.23 205.78 384.97 C 206.97 389.07 209.85 392.29 212.30 395.68 C 216.06 400.59 219.72 405.86 225.11 409.14 C 224.27 409.77 223.46 410.44 222.68 411.14 C 218.13 406.61 214.93 401.00 211.05 395.94 C 208.88 392.58 206.01 389.63 204.30 386.00 Z" fill="#d2623f" opacity="1.00" stroke="#d2623f" stroke-width="0.25" data-index="49"></path>
<path d="M 267.13 421.17 C 284.54 410.50 301.37 398.74 316.73 385.25 C 316.97 388.15 314.26 389.60 312.45 391.32 C 303.04 399.06 293.28 406.38 283.08 413.06 C 279.25 415.27 278.02 419.76 275.66 423.22 C 274.37 425.09 272.99 426.90 271.73 428.80 C 270.76 430.25 269.86 431.74 268.89 433.20 C 267.91 433.35 266.92 433.47 265.93 433.54 C 266.78 432.52 267.63 431.51 268.50 430.52 C 271.86 426.85 273.69 422.17 276.20 417.94 C 273.87 419.35 271.63 420.90 269.36 422.40 C 268.80 422.10 267.69 421.48 267.13 421.17 Z" fill="#fff7bc" opacity="1.00" stroke="#fff7bc" stroke-width="0.25" data-index="50"></path>
<path d="M 251.40 394.04 C 254.20 391.69 257.07 389.43 260.04 387.29 C 261.22 388.75 262.42 390.22 263.60 391.69 C 262.05 391.16 260.52 390.55 258.90 390.28 C 256.50 391.74 254.30 393.66 251.40 394.04 Z" fill="#e5a73e" opacity="1.00" stroke="#e5a73e" stroke-width="0.25" data-index="51"></path>
<path d="M 223.25 412.24 C 224.54 411.55 225.85 410.88 227.11 410.14 C 229.13 413.63 233.27 414.58 236.56 416.42 C 244.07 420.54 252.64 421.91 260.99 423.18 C 263.76 423.39 266.97 424.35 269.36 422.40 C 271.63 420.90 273.87 419.35 276.20 417.94 C 273.69 422.17 271.86 426.85 268.50 430.52 C 266.59 432.01 264.54 433.79 261.95 433.64 C 254.15 433.90 246.33 433.65 238.58 432.68 C 235.18 430.30 233.20 426.54 230.69 423.35 C 228.24 419.62 225.26 416.24 223.25 412.24 Z" fill="#eb592c" opacity="1.00" stroke="#eb592c" stroke-width="0.25" data-index="52"></path>
<path d="M 305.73 417.43 C 306.11 416.34 306.82 415.90 307.86 416.13 C 307.94 417.79 307.23 418.23 305.73 417.43 Z" fill="#c08946" opacity="1.00" stroke="#c08946" stroke-width="0.25" data-index="53"></path>
<path d="M 275.66 423.22 C 285.45 423.72 294.83 420.40 304.23 418.19 C 295.43 425.90 284.17 430.69 272.53 431.76 C 272.33 431.02 271.93 429.54 271.73 428.80 C 272.99 426.90 274.37 425.09 275.66 423.22 Z" fill="#e9582a" opacity="1.00" stroke="#e9582a" stroke-width="0.25" data-index="54"></path>
<path d="M 304.23 418.19 C 304.60 418.00 305.35 417.62 305.73 417.43 C 305.65 417.89 305.50 418.82 305.42 419.28 C 297.87 425.79 288.68 430.76 278.71 432.12 C 275.42 432.34 272.13 432.58 268.89 433.20 C 269.86 431.74 270.76 430.25 271.73 428.80 C 271.93 429.54 272.33 431.02 272.53 431.76 C 284.17 430.69 295.43 425.90 304.23 418.19 Z" fill="#d2623f" opacity="1.00" stroke="#d2623f" stroke-width="0.25" data-index="55"></path>
<path d="M 232.75 428.68 C 233.93 430.94 235.67 433.18 238.58 432.68 C 246.33 433.65 254.15 433.90 261.95 433.64 C 264.54 433.79 266.59 432.01 268.50 430.52 C 267.63 431.51 266.78 432.52 265.93 433.54 C 266.92 433.47 267.91 433.35 268.89 433.20 C 272.13 432.58 275.42 432.34 278.71 432.12 C 277.22 434.89 273.54 434.03 270.97 434.21 C 258.30 434.70 245.41 435.54 232.95 432.69 C 230.75 432.12 228.07 432.28 226.54 430.33 C 228.65 430.63 230.73 431.08 232.79 431.65 C 232.78 430.91 232.76 429.42 232.75 428.68 Z" fill="#6e4746" opacity="1.00" stroke="#6e4746" stroke-width="0.25" data-index="56"></path>
<path d="M0,0h512v512h-512z" id="path-1 1" fill="url(#grad-57)" fill-rule="nonzero" stroke="url(#grad-57)" stroke-width="0.25" stroke-linecap="butt" stroke-linejoin="miter" stroke-miterlimit="10" stroke-dasharray="" stroke-dashoffset="0" font-family="none" font-weight="none" font-size="none" text-anchor="none" style="mix-blend-mode: normal; opacity: 1; display: none;" data-index="57"></path></svg>