<?xml version="1.0" encoding="utf-8"?>
<svg xmlns="http://www.w3.org/2000/svg" height="512pt" version="1.1" viewBox="0 0 512 512" width="512pt">
<path d="M 0.00 0.00 L 512.00 0.00 L 512.00 512.00 L 0.00 512.00 L 0.00 0.00 Z" fill="transparent" opacity="1.00" stroke="transparent" stroke-width="0.25"/>
<path d="M 188.72 131.66 C 189.73 129.57 192.16 130.51 193.99 130.40 C 217.66 132.06 241.36 133.37 265.04 134.91 C 266.68 134.77 267.98 135.73 268.97 136.93 C 284.16 154.10 299.59 171.05 314.70 188.28 C 315.94 189.57 315.79 191.54 315.13 193.07 C 312.03 195.51 307.74 193.93 304.10 194.31 C 304.08 201.40 304.25 208.50 304.07 215.59 C 331.45 213.94 358.75 211.15 386.11 209.21 C 399.46 208.21 412.80 206.78 426.18 206.13 C 427.70 205.69 427.67 207.65 428.20 208.52 C 446.76 264.77 465.82 320.86 484.48 377.08 C 484.63 378.25 484.70 379.42 484.68 380.61 C 482.60 380.60 480.52 380.56 478.44 380.55 C 463.46 334.97 448.06 289.52 432.94 243.99 C 432.46 242.48 432.09 240.89 431.04 239.66 C 430.62 265.78 431.18 291.91 430.91 318.02 C 430.87 331.23 431.00 344.44 431.05 357.64 C 434.76 357.72 438.46 357.16 442.17 357.28 C 443.88 357.44 444.52 359.49 445.06 360.87 C 445.72 364.01 446.35 367.23 446.14 370.45 C 446.07 371.73 444.76 372.28 443.92 373.01 C 444.01 372.49 444.19 371.45 444.28 370.92 C 444.47 366.78 443.86 362.60 442.20 358.79 C 430.06 359.73 417.42 360.46 405.75 356.33 C 390.12 350.37 378.87 337.53 368.27 325.17 C 368.48 324.80 368.91 324.06 369.12 323.69 C 370.86 325.72 372.68 327.70 374.73 329.44 C 379.78 316.98 384.77 304.50 390.06 292.14 C 391.21 289.59 390.79 286.72 390.82 284.01 C 390.49 263.18 390.00 242.36 389.45 221.53 C 388.76 221.49 387.38 221.42 386.69 221.38 C 386.55 219.38 386.43 217.39 386.32 215.39 C 377.68 216.06 369.06 216.88 360.42 217.52 C 360.38 219.71 360.38 221.91 360.08 224.08 C 359.69 223.66 358.91 222.82 358.52 222.40 C 358.54 220.77 358.54 219.15 358.54 217.53 C 357.30 217.87 355.60 217.39 354.81 218.66 C 354.88 219.42 355.01 220.94 355.08 221.70 C 355.54 221.80 356.48 221.98 356.95 222.07 C 356.83 222.65 356.58 223.80 356.46 224.37 C 355.65 224.22 354.04 223.90 353.23 223.74 C 353.06 221.88 352.89 220.03 352.73 218.17 C 344.74 218.56 336.78 219.51 328.80 220.05 C 328.41 220.10 327.63 220.20 327.24 220.25 C 326.05 220.33 324.86 220.41 323.67 220.47 C 323.67 221.53 323.66 222.59 323.66 223.66 L 321.66 224.12 C 321.60 222.94 321.55 221.75 321.51 220.57 C 315.75 221.27 309.95 221.57 304.16 221.93 C 304.11 242.00 304.15 262.08 304.14 282.16 C 309.02 282.57 313.87 283.47 318.48 285.14 C 317.83 285.37 316.54 285.82 315.89 286.05 C 306.56 283.30 296.75 283.49 287.13 283.83 C 287.31 285.83 285.96 288.62 287.41 290.20 C 293.44 291.63 299.47 293.26 305.00 296.15 C 327.94 307.64 343.66 328.59 362.05 345.76 C 361.76 346.07 361.18 346.68 360.89 346.98 C 345.62 332.64 332.28 316.06 314.92 304.08 C 308.89 300.17 302.65 296.42 295.74 294.32 C 286.69 291.26 277.04 290.83 267.58 291.01 C 267.12 290.99 266.19 290.94 265.73 290.91 C 266.91 289.71 268.58 289.37 270.11 288.85 C 265.46 288.62 260.81 288.30 256.19 287.71 C 254.42 285.22 250.82 286.35 248.22 285.80 L 248.22 285.27 C 258.15 285.96 268.03 287.26 277.98 287.69 C 277.63 265.13 277.66 242.57 277.29 220.01 C 279.26 220.13 279.61 222.33 279.44 223.93 C 279.35 231.94 279.36 239.95 279.54 247.96 C 279.50 237.33 279.85 226.68 279.39 216.06 C 279.62 213.23 280.63 210.48 282.13 208.09 C 284.47 204.34 290.39 203.18 293.61 206.44 C 296.32 208.82 297.08 212.50 297.63 215.89 C 297.43 208.69 297.69 201.48 297.64 194.27 C 280.36 193.68 263.07 193.48 245.79 193.06 C 246.40 192.60 247.63 191.67 248.24 191.21 C 269.48 191.79 290.73 192.31 311.97 192.68 C 314.59 192.87 314.08 189.68 312.65 188.49 C 298.49 172.32 283.99 156.44 269.75 140.33 C 268.23 138.70 266.79 136.48 264.25 136.67 C 240.17 135.11 216.08 133.66 192.00 132.09 C 195.19 135.68 198.15 139.47 201.56 142.86 C 201.04 143.40 200.53 143.93 200.01 144.47 C 197.12 140.17 193.45 136.50 190.16 132.52 C 176.81 150.33 162.84 167.67 149.50 185.48 C 148.30 187.19 146.51 189.15 147.53 191.39 C 150.51 192.38 155.15 193.29 157.13 190.10 C 167.19 176.56 177.47 163.17 187.73 149.78 C 189.09 148.17 190.05 146.01 191.97 145.00 C 194.98 147.65 197.16 151.08 199.89 154.00 C 210.38 166.58 220.87 179.16 231.35 191.74 C 230.89 192.23 229.97 193.23 229.50 193.73 C 208.73 193.82 187.95 193.81 167.18 193.73 C 167.18 203.56 167.17 213.39 167.22 223.23 C 176.17 223.57 185.12 224.13 194.07 224.64 C 201.21 225.16 208.25 223.49 215.37 223.32 C 215.84 223.71 216.78 224.48 217.25 224.87 C 215.81 225.06 214.37 225.26 212.94 225.47 C 218.50 225.62 224.05 226.48 229.63 226.17 C 230.43 226.44 231.24 226.71 232.05 226.97 C 232.10 252.33 232.04 277.68 232.10 303.04 C 231.81 302.93 231.24 302.71 230.95 302.61 C 230.75 277.85 230.93 253.09 230.85 228.33 C 213.56 227.26 196.25 226.55 178.96 225.56 C 174.09 225.27 169.18 225.36 164.35 224.54 C 164.01 224.34 163.33 223.95 163.00 223.75 C 162.97 213.74 163.05 203.73 162.95 193.73 C 162.49 193.71 161.56 193.67 161.10 193.65 C 160.80 193.65 160.19 193.65 159.89 193.65 C 155.70 193.72 151.47 194.04 147.31 193.44 C 144.88 191.59 145.15 188.12 147.03 185.97 C 160.71 167.70 174.94 149.86 188.72 131.66 Z" fill="#05385c" opacity="1.00" stroke="#05385c" stroke-width="0.25"/>
<path d="M 192.00 132.09 C 216.08 133.66 240.17 135.11 264.25 136.67 C 266.79 136.48 268.23 138.70 269.75 140.33 C 283.99 156.44 298.49 172.32 312.65 188.49 C 314.08 189.68 314.59 192.87 311.97 192.68 C 290.73 192.31 269.48 191.79 248.24 191.21 C 245.38 191.11 242.52 190.98 239.66 190.91 C 239.50 189.14 239.67 187.15 238.30 185.78 C 226.20 171.64 213.98 157.60 201.95 143.39 C 201.82 144.21 201.69 145.03 201.56 145.85 C 212.10 157.53 222.07 169.70 232.42 181.54 C 234.84 184.51 238.65 187.23 237.70 191.59 C 236.51 191.86 235.31 192.11 234.11 192.35 C 233.42 192.19 232.04 191.89 231.35 191.74 C 220.87 179.16 210.38 166.58 199.89 154.00 C 197.16 151.08 194.98 147.65 191.97 145.00 C 190.05 146.01 189.09 148.17 187.73 149.78 C 177.47 163.17 167.19 176.56 157.13 190.10 C 155.15 193.29 150.51 192.38 147.53 191.39 C 146.51 189.15 148.30 187.19 149.50 185.48 C 162.84 167.67 176.81 150.33 190.16 132.52 C 193.45 136.50 197.12 140.17 200.01 144.47 C 200.53 143.93 201.04 143.40 201.56 142.86 C 198.15 139.47 195.19 135.68 192.00 132.09 Z" fill="#75e2ff" opacity="1.00" stroke="#75e2ff" stroke-width="0.25"/>
<path d="M 201.56 145.85 C 201.69 145.03 201.82 144.21 201.95 143.39 C 213.98 157.60 226.20 171.64 238.30 185.78 C 239.67 187.15 239.50 189.14 239.66 190.91 C 242.52 190.98 245.38 191.11 248.24 191.21 C 247.63 191.67 246.40 192.60 245.79 193.06 C 243.29 192.92 240.79 192.83 238.30 192.78 C 238.35 223.33 238.21 253.89 238.33 284.45 L 238.36 285.79 C 238.30 291.10 238.17 296.42 238.41 301.73 C 241.08 301.12 243.75 300.50 246.43 299.90 C 246.89 299.81 247.81 299.63 248.27 299.54 C 254.17 298.54 260.03 297.33 265.88 296.08 C 265.82 294.35 265.75 292.63 265.73 290.91 C 266.19 290.94 267.12 290.99 267.58 291.01 C 267.52 294.67 267.67 298.34 268.34 301.95 C 267.98 302.56 267.26 303.79 266.90 304.41 C 266.59 302.65 266.38 300.89 266.16 299.13 C 260.24 300.12 254.37 301.32 248.51 302.59 C 248.00 302.70 246.98 302.92 246.47 303.03 C 243.73 303.53 240.99 303.97 238.26 304.49 C 238.27 325.62 238.31 346.74 238.29 367.87 C 238.23 375.96 238.19 384.06 238.34 392.16 C 237.47 392.07 235.74 391.89 234.87 391.80 C 234.90 329.54 234.62 267.27 234.89 205.00 C 234.95 201.85 234.65 198.70 234.09 195.60 C 234.08 195.05 234.08 193.94 234.07 193.39 C 234.08 193.13 234.10 192.61 234.11 192.35 C 235.31 192.11 236.51 191.86 237.70 191.59 C 238.65 187.23 234.84 184.51 232.42 181.54 C 222.07 169.70 212.10 157.53 201.56 145.85 Z" fill="#043a5e" opacity="1.00" stroke="#043a5e" stroke-width="0.25"/>
<path d="M 157.87 192.05 C 169.06 176.95 180.63 162.13 191.91 147.10 C 204.23 162.09 216.78 176.87 229.11 191.85 C 223.09 192.29 217.05 192.01 211.02 192.08 C 193.30 192.01 175.59 192.22 157.87 192.05 Z" fill="#75e2fe" opacity="1.00" stroke="#75e2fe" stroke-width="0.25"/>
<path d="M 229.50 193.73 C 229.97 193.23 230.89 192.23 231.35 191.74 C 232.04 191.89 233.42 192.19 234.11 192.35 C 234.10 192.61 234.08 193.13 234.07 193.39 C 233.55 193.47 232.50 193.63 231.97 193.71 C 231.95 204.80 231.85 215.89 232.05 226.97 C 231.24 226.71 230.43 226.44 229.63 226.17 C 229.55 225.52 229.39 224.23 229.31 223.58 C 225.29 224.00 221.28 224.51 217.25 224.87 C 216.78 224.48 215.84 223.71 215.37 223.32 C 220.04 222.86 224.70 222.35 229.39 222.22 C 229.61 212.73 229.46 203.23 229.50 193.73 Z" fill="#011e3f" opacity="1.00" stroke="#011e3f" stroke-width="0.25"/>
<path d="M 159.89 193.65 C 160.19 193.65 160.80 193.65 161.10 193.65 C 160.76 221.83 161.02 250.02 160.96 278.20 C 161.42 278.46 162.36 278.99 162.83 279.25 L 163.15 279.41 C 163.48 279.27 164.15 278.99 164.48 278.85 C 169.38 278.24 174.34 278.57 179.27 278.64 C 179.45 282.36 178.51 286.77 181.23 289.83 C 181.38 290.05 181.67 290.51 181.81 290.73 C 183.06 289.91 184.31 289.09 185.59 288.31 C 186.02 288.49 186.88 288.83 187.32 289.00 C 177.91 294.73 169.84 302.27 161.96 309.88 C 145.30 324.87 128.80 340.58 108.90 351.26 C 108.49 350.97 107.67 350.40 107.27 350.12 C 122.27 342.61 135.12 331.61 147.67 320.65 C 151.66 317.33 155.28 313.63 159.08 310.12 C 162.51 306.92 166.19 303.96 169.20 300.34 C 153.55 310.24 139.34 322.23 125.51 334.49 C 118.82 339.71 112.86 345.90 105.59 350.34 C 106.08 350.68 107.05 351.34 107.54 351.68 C 96.66 357.60 84.25 360.04 71.98 360.72 C 67.23 361.08 62.42 360.82 57.72 361.62 C 53.42 365.79 53.53 372.24 52.10 377.69 C 56.00 379.48 60.22 380.39 64.28 381.71 C 67.10 382.50 69.94 383.64 72.91 383.43 C 80.23 382.63 87.54 381.39 94.87 380.80 L 95.94 381.74 L 96.37 382.11 C 94.74 382.18 93.12 382.34 91.50 382.50 C 90.76 386.27 90.17 390.07 89.59 393.87 C 84.93 395.10 79.60 395.83 75.11 393.73 C 73.69 391.29 73.96 388.10 73.46 385.35 C 72.94 385.30 71.90 385.21 71.38 385.17 C 64.32 383.88 57.51 381.44 50.70 379.19 C 50.79 376.75 50.97 374.31 51.20 371.88 C 44.46 371.80 38.13 369.24 31.90 366.95 C 28.30 365.75 26.97 361.51 27.74 358.08 C 28.34 355.55 28.57 352.40 30.91 350.82 C 34.13 349.65 37.63 349.61 40.99 349.10 C 50.94 347.99 60.92 345.98 70.00 341.65 C 92.07 331.14 108.35 312.33 126.79 296.87 C 136.43 288.70 147.47 281.75 159.88 278.80 C 160.06 250.43 159.95 222.03 159.89 193.65 Z" fill="#033a5f" opacity="1.00" stroke="#033a5f" stroke-width="0.25"/>
<path d="M 238.30 192.78 C 240.79 192.83 243.29 192.92 245.79 193.06 C 263.07 193.48 280.36 193.68 297.64 194.27 C 297.69 201.48 297.43 208.69 297.63 215.89 C 297.08 212.50 296.32 208.82 293.61 206.44 C 290.39 203.18 284.47 204.34 282.13 208.09 C 280.63 210.48 279.62 213.23 279.39 216.06 C 279.85 226.68 279.50 237.33 279.54 247.96 C 279.36 239.95 279.35 231.94 279.44 223.93 C 279.61 222.33 279.26 220.13 277.29 220.01 C 277.66 242.57 277.63 265.13 277.98 287.69 C 268.03 287.26 258.15 285.96 248.22 285.27 C 248.07 264.15 247.41 243.02 247.42 221.90 C 247.80 216.41 249.23 209.15 255.34 207.43 C 260.72 207.15 266.21 206.78 271.57 207.45 C 275.72 210.01 276.81 215.36 277.03 219.88 C 277.62 219.16 278.22 218.44 278.83 217.72 C 277.84 213.12 276.40 207.51 271.52 205.61 C 267.01 205.12 262.45 205.48 257.92 205.43 C 254.19 205.27 250.53 207.40 248.72 210.65 C 246.54 214.40 245.77 218.80 245.62 223.09 C 245.64 243.69 246.05 264.28 246.38 284.88 C 243.70 284.78 241.01 284.59 238.33 284.45 C 238.21 253.89 238.35 223.33 238.30 192.78 Z" fill="#ffffff" opacity="1.00" stroke="#ffffff" stroke-width="0.25"/>
<path d="M 161.10 193.65 C 161.56 193.67 162.49 193.71 162.95 193.73 C 163.05 203.73 162.97 213.74 163.00 223.75 C 162.87 242.25 163.21 260.76 162.83 279.25 C 162.36 278.99 161.42 278.46 160.96 278.20 C 161.02 250.02 160.76 221.83 161.10 193.65 Z" fill="#789db7" opacity="1.00" stroke="#789db7" stroke-width="0.25"/>
<path d="M 167.18 193.73 C 187.95 193.81 208.73 193.82 229.50 193.73 C 229.46 203.23 229.61 212.73 229.39 222.22 C 224.70 222.35 220.04 222.86 215.37 223.32 C 208.25 223.49 201.21 225.16 194.07 224.64 C 185.12 224.13 176.17 223.57 167.22 223.23 C 167.17 213.39 167.18 203.56 167.18 193.73 Z" fill="#ffffff" opacity="1.00" stroke="#ffffff" stroke-width="0.25"/>
<path d="M 231.97 193.71 C 232.50 193.63 233.55 193.47 234.07 193.39 C 234.08 193.94 234.08 195.05 234.09 195.60 C 233.87 261.56 234.14 327.53 233.97 393.49 C 233.53 393.42 232.65 393.27 232.20 393.20 C 232.07 384.48 232.42 375.76 232.04 367.05 C 232.03 345.71 231.88 324.37 232.10 303.04 C 232.04 277.68 232.10 252.33 232.05 226.97 C 231.85 215.89 231.95 204.80 231.97 193.71 Z" fill="#86a9c0" opacity="1.00" stroke="#86a9c0" stroke-width="0.25"/>
<path d="M 299.21 194.32 L 299.99 193.98 C 300.45 201.36 300.02 208.81 300.10 216.22 L 298.91 216.19 C 299.32 208.91 298.62 201.58 299.21 194.32 Z" fill="#bae0f8" opacity="1.00" stroke="#bae0f8" stroke-width="0.25"/>
<path d="M 234.09 195.60 C 234.65 198.70 234.95 201.85 234.89 205.00 C 234.62 267.27 234.90 329.54 234.87 391.80 C 235.74 391.89 237.47 392.07 238.34 392.16 L 238.04 392.95 C 236.68 393.17 235.33 393.39 233.97 393.49 C 234.14 327.53 233.87 261.56 234.09 195.60 Z" fill="#011e3f" opacity="1.00" stroke="#011e3f" stroke-width="0.25"/>
<path d="M 248.72 210.65 C 250.53 207.40 254.19 205.27 257.92 205.43 C 262.45 205.48 267.01 205.12 271.52 205.61 C 276.40 207.51 277.84 213.12 278.83 217.72 C 278.22 218.44 277.62 219.16 277.03 219.88 C 276.81 215.36 275.72 210.01 271.57 207.45 C 266.21 206.78 260.72 207.15 255.34 207.43 C 249.23 209.15 247.80 216.41 247.42 221.90 C 247.41 243.02 248.07 264.15 248.22 285.27 L 248.22 285.80 C 250.82 286.35 254.42 285.22 256.19 287.71 C 253.54 287.48 250.89 287.29 248.25 287.08 C 248.35 291.23 248.39 295.38 248.27 299.54 C 247.81 299.63 246.89 299.81 246.43 299.90 C 246.38 295.53 246.36 291.16 246.34 286.79 C 243.66 286.68 240.94 286.60 238.36 285.79 L 238.33 284.45 C 241.01 284.59 243.70 284.78 246.38 284.88 C 246.05 264.28 245.64 243.69 245.62 223.09 C 245.77 218.80 246.54 214.40 248.72 210.65 Z" fill="#011e3f" opacity="1.00" stroke="#011e3f" stroke-width="0.25"/>
<path d="M 284.19 208.26 C 285.95 206.57 288.78 205.61 291.05 206.87 C 294.27 208.65 295.75 212.53 295.78 216.05 C 292.42 216.30 293.20 220.01 293.64 222.29 C 294.32 222.44 295.69 222.72 296.37 222.87 C 295.97 242.51 296.22 262.17 295.94 281.82 C 292.51 282.10 289.07 282.18 285.64 282.10 C 285.50 283.65 285.39 285.21 285.32 286.77 C 283.93 286.82 282.55 286.86 281.18 286.90 C 281.06 263.92 281.11 240.95 281.10 217.98 C 281.03 214.51 281.92 210.95 284.19 208.26 Z" fill="#ffffff" opacity="1.00" stroke="#ffffff" stroke-width="0.25"/>
<path d="M 394.33 214.62 C 403.81 214.34 413.23 213.05 422.70 212.57 C 413.03 234.47 404.42 256.83 395.16 278.90 C 394.41 280.63 393.96 282.55 392.72 284.02 C 392.29 263.12 391.99 242.22 391.32 221.32 C 392.04 221.30 393.48 221.28 394.19 221.26 C 394.22 219.04 394.26 216.83 394.33 214.62 Z" fill="#ffffff" opacity="1.00" stroke="#ffffff" stroke-width="0.25"/>
<path d="M 388.47 215.08 C 389.41 215.09 391.29 215.09 392.22 215.10 C 392.27 216.56 392.31 218.03 392.34 219.50 C 391.36 219.53 389.40 219.57 388.42 219.59 C 388.43 218.09 388.44 216.58 388.47 215.08 Z" fill="#e5f8fc" opacity="1.00" stroke="#e5f8fc" stroke-width="0.25"/>
<path d="M 360.42 217.52 C 369.06 216.88 377.68 216.06 386.32 215.39 C 386.43 217.39 386.55 219.38 386.69 221.38 C 387.38 221.42 388.76 221.49 389.45 221.53 C 390.00 242.36 390.49 263.18 390.82 284.01 C 390.79 286.72 391.21 289.59 390.06 292.14 C 384.77 304.50 379.78 316.98 374.73 329.44 C 372.68 327.70 370.86 325.72 369.12 323.69 C 365.22 318.90 360.26 314.93 356.52 310.11 C 356.84 288.09 357.34 266.06 357.74 244.04 C 358.48 237.40 356.65 230.14 360.08 224.08 C 360.38 221.91 360.38 219.71 360.42 217.52 Z" fill="#ffffff" opacity="1.00" stroke="#ffffff" stroke-width="0.25"/>
<path d="M 354.81 218.66 C 355.60 217.39 357.30 217.87 358.54 217.53 C 358.54 219.15 358.54 220.77 358.52 222.40 C 358.13 222.31 357.34 222.15 356.95 222.07 C 356.48 221.98 355.54 221.80 355.08 221.70 C 355.01 220.94 354.88 219.42 354.81 218.66 Z" fill="#ebffff" opacity="1.00" stroke="#ebffff" stroke-width="0.25"/>
<path d="M 328.80 220.05 C 336.78 219.51 344.74 218.56 352.73 218.17 C 352.89 220.03 353.06 221.88 353.23 223.74 C 354.04 223.90 355.65 224.22 356.46 224.37 C 356.01 230.94 355.92 237.53 355.81 244.10 C 355.61 265.50 355.06 286.88 354.69 308.27 C 345.74 300.97 336.93 293.25 326.34 288.36 C 326.24 270.57 326.43 252.78 326.50 234.99 C 326.37 232.78 327.09 230.69 327.85 228.66 C 327.36 228.45 326.38 228.03 325.89 227.82 C 330.01 227.46 328.70 222.84 328.80 220.05 Z" fill="#ffffff" opacity="1.00" stroke="#ffffff" stroke-width="0.25"/>
<path d="M 304.16 221.93 C 309.95 221.57 315.75 221.27 321.51 220.57 C 321.55 221.75 321.60 222.94 321.66 224.12 C 321.83 225.94 322.55 227.80 324.73 227.65 C 324.84 247.62 324.62 267.59 324.41 287.56 C 322.46 286.69 320.52 285.77 318.48 285.14 C 313.87 283.47 309.02 282.57 304.14 282.16 C 304.15 262.08 304.11 242.00 304.16 221.93 Z" fill="#ffffff" opacity="1.00" stroke="#ffffff" stroke-width="0.25"/>
<path d="M 323.67 220.47 C 324.86 220.41 326.05 220.33 327.24 220.25 C 327.15 221.86 327.17 223.49 327.04 225.11 C 326.02 225.61 324.83 225.43 323.73 225.55 C 323.72 225.07 323.68 224.13 323.66 223.66 C 323.66 222.59 323.67 221.53 323.67 220.47 Z" fill="#eeffff" opacity="1.00" stroke="#eeffff" stroke-width="0.25"/>
<path d="M 327.24 220.25 C 327.63 220.20 328.41 220.10 328.80 220.05 C 328.70 222.84 330.01 227.46 325.89 227.82 C 326.38 228.03 327.36 228.45 327.85 228.66 C 327.09 230.69 326.37 232.78 326.50 234.99 C 326.43 252.78 326.24 270.57 326.34 288.36 C 336.93 293.25 345.74 300.97 354.69 308.27 C 355.06 286.88 355.61 265.50 355.81 244.10 L 357.74 244.04 C 357.34 266.06 356.84 288.09 356.52 310.11 C 360.26 314.93 365.22 318.90 369.12 323.69 C 368.91 324.06 368.48 324.80 368.27 325.17 C 359.21 315.07 349.56 305.36 338.49 297.46 C 331.58 292.57 324.08 288.35 315.89 286.05 C 316.54 285.82 317.83 285.37 318.48 285.14 C 320.52 285.77 322.46 286.69 324.41 287.56 C 324.62 267.59 324.84 247.62 324.73 227.65 C 322.55 227.80 321.83 225.94 321.66 224.12 L 323.66 223.66 C 323.68 224.13 323.72 225.07 323.73 225.55 C 324.83 225.43 326.02 225.61 327.04 225.11 C 327.17 223.49 327.15 221.86 327.24 220.25 Z" fill="#011e3f" opacity="1.00" stroke="#011e3f" stroke-width="0.25"/>
<path d="M 356.95 222.07 C 357.34 222.15 358.13 222.31 358.52 222.40 C 358.91 222.82 359.69 223.66 360.08 224.08 C 356.65 230.14 358.48 237.40 357.74 244.04 L 355.81 244.10 C 355.92 237.53 356.01 230.94 356.46 224.37 C 356.58 223.80 356.83 222.65 356.95 222.07 Z" fill="#123c54" opacity="1.00" stroke="#123c54" stroke-width="0.25"/>
<path d="M 298.11 222.62 C 298.62 222.62 299.64 222.61 300.15 222.61 C 300.38 242.47 300.19 262.34 300.28 282.20 C 299.62 282.03 298.30 281.68 297.63 281.50 C 298.14 261.89 297.78 242.25 298.11 222.62 Z" fill="#ebf9fe" opacity="1.00" stroke="#ebf9fe" stroke-width="0.25"/>
<path d="M 163.00 223.75 C 163.33 223.95 164.01 224.34 164.35 224.54 C 164.53 242.64 164.50 260.75 164.48 278.85 C 164.15 278.99 163.48 279.27 163.15 279.41 L 162.83 279.25 C 163.21 260.76 162.87 242.25 163.00 223.75 Z" fill="#002646" opacity="1.00" stroke="#002646" stroke-width="0.25"/>
<path d="M 217.25 224.87 C 221.28 224.51 225.29 224.00 229.31 223.58 C 229.39 224.23 229.55 225.52 229.63 226.17 C 224.05 226.48 218.50 225.62 212.94 225.47 C 214.37 225.26 215.81 225.06 217.25 224.87 Z" fill="#ebffff" opacity="1.00" stroke="#ebffff" stroke-width="0.25"/>
<path d="M 424.64 224.45 C 424.87 224.32 425.32 224.06 425.55 223.93 C 425.54 268.51 425.56 313.10 425.55 357.69 C 414.52 358.01 403.48 354.85 394.48 348.43 C 393.55 347.16 393.97 345.46 393.82 344.01 C 393.74 329.66 393.04 315.30 393.38 300.95 C 403.84 275.50 414.12 249.90 424.64 224.45 Z" fill="#ffffff" opacity="1.00" stroke="#ffffff" stroke-width="0.25"/>
<path d="M 164.35 224.54 C 169.18 225.36 174.09 225.27 178.96 225.56 C 196.25 226.55 213.56 227.26 230.85 228.33 C 230.93 253.09 230.75 277.85 230.95 302.61 C 227.84 302.04 224.69 301.71 221.54 301.46 C 219.90 301.29 218.26 301.08 216.63 300.90 C 216.18 286.89 217.53 272.77 215.41 258.85 C 214.05 251.66 211.51 244.10 205.71 239.28 C 201.39 235.50 194.37 235.19 189.89 238.84 C 184.30 242.96 182.04 249.94 180.63 256.45 C 178.99 263.74 179.56 271.23 179.27 278.64 C 174.34 278.57 169.38 278.24 164.48 278.85 C 164.50 260.75 164.53 242.64 164.35 224.54 Z" fill="#74e2fe" opacity="1.00" stroke="#74e2fe" stroke-width="0.25"/>
<path d="M 189.89 238.84 C 194.37 235.19 201.39 235.50 205.71 239.28 C 211.51 244.10 214.05 251.66 215.41 258.85 C 217.53 272.77 216.18 286.89 216.63 300.90 C 218.26 301.08 219.90 301.29 221.54 301.46 C 221.08 301.83 220.16 302.59 219.70 302.96 C 218.17 302.94 216.60 302.61 215.10 303.02 C 196.39 310.52 181.41 324.53 167.35 338.57 C 166.75 351.37 167.31 364.23 167.07 377.05 C 165.60 379.34 162.40 378.02 160.13 378.12 C 160.08 376.66 160.03 375.21 160.00 373.76 C 160.03 364.46 160.21 355.17 159.88 345.88 C 145.19 359.17 128.79 371.06 110.05 377.91 C 105.45 379.49 100.83 381.32 95.94 381.74 L 95.31 380.35 C 122.16 374.89 144.93 358.04 164.34 339.45 C 175.48 328.16 186.86 316.81 200.52 308.56 C 205.08 305.64 210.09 303.56 214.87 301.03 C 214.74 294.08 214.76 287.14 214.78 280.19 C 205.05 280.75 195.59 283.86 187.32 289.00 C 186.88 288.83 186.02 288.49 185.59 288.31 C 194.23 282.48 204.45 279.07 214.85 278.47 C 214.98 267.48 214.75 255.79 209.14 246.00 C 206.55 241.31 201.53 237.25 195.88 238.19 C 190.14 239.00 186.46 244.33 184.46 249.33 C 179.43 262.28 182.21 276.34 181.23 289.83 C 178.51 286.77 179.45 282.36 179.27 278.64 C 179.56 271.23 178.99 263.74 180.63 256.45 C 182.04 249.94 184.30 242.96 189.89 238.84 Z" fill="#073856" opacity="1.00" stroke="#073856" stroke-width="0.25"/>
<path d="M 184.46 249.33 C 186.46 244.33 190.14 239.00 195.88 238.19 C 201.53 237.25 206.55 241.31 209.14 246.00 C 214.75 255.79 214.98 267.48 214.85 278.47 C 204.45 279.07 194.23 282.48 185.59 288.31 C 184.31 289.09 183.06 289.91 181.81 290.73 C 181.67 290.51 181.38 290.05 181.23 289.83 C 182.21 276.34 179.43 262.28 184.46 249.33 Z" fill="#ffffff" opacity="1.00" stroke="#ffffff" stroke-width="0.25"/>
<path d="M 187.32 289.00 C 195.59 283.86 205.05 280.75 214.78 280.19 C 214.76 287.14 214.74 294.08 214.87 301.03 C 210.09 303.56 205.08 305.64 200.52 308.56 C 186.86 316.81 175.48 328.16 164.34 339.45 C 144.93 358.04 122.16 374.89 95.31 380.35 L 95.94 381.74 L 94.87 380.80 C 87.54 381.39 80.23 382.63 72.91 383.43 C 69.94 383.64 67.10 382.50 64.28 381.71 C 60.22 380.39 56.00 379.48 52.10 377.69 C 53.53 372.24 53.42 365.79 57.72 361.62 C 62.42 360.82 67.23 361.08 71.98 360.72 C 84.25 360.04 96.66 357.60 107.54 351.68 C 107.88 351.57 108.56 351.36 108.90 351.26 C 128.80 340.58 145.30 324.87 161.96 309.88 C 169.84 302.27 177.91 294.73 187.32 289.00 Z" fill="#75e2fe" opacity="1.00" stroke="#75e2fe" stroke-width="0.25"/>
<path d="M 287.13 283.83 C 296.75 283.49 306.56 283.30 315.89 286.05 C 324.08 288.35 331.58 292.57 338.49 297.46 C 349.56 305.36 359.21 315.07 368.27 325.17 C 378.87 337.53 390.12 350.37 405.75 356.33 C 417.42 360.46 430.06 359.73 442.20 358.79 C 443.86 362.60 444.47 366.78 444.28 370.92 C 438.66 373.24 433.07 375.64 427.51 378.09 C 426.50 373.01 426.15 367.43 422.64 363.30 C 417.71 363.76 412.86 364.91 407.90 365.17 C 399.69 365.85 391.39 364.25 383.79 361.12 C 375.54 357.61 368.54 351.82 362.05 345.76 C 343.66 328.59 327.94 307.64 305.00 296.15 C 299.47 293.26 293.44 291.63 287.41 290.20 C 285.96 288.62 287.31 285.83 287.13 283.83 Z" fill="#75e2fe" opacity="1.00" stroke="#75e2fe" stroke-width="0.25"/>
<path d="M 238.41 301.73 C 238.17 296.42 238.30 291.10 238.36 285.79 C 240.94 286.60 243.66 286.68 246.34 286.79 C 246.36 291.16 246.38 295.53 246.43 299.90 C 243.75 300.50 241.08 301.12 238.41 301.73 Z" fill="#fcffff" opacity="1.00" stroke="#fcffff" stroke-width="0.25"/>
<path d="M 248.25 287.08 C 250.89 287.29 253.54 287.48 256.19 287.71 C 260.81 288.30 265.46 288.62 270.11 288.85 C 268.58 289.37 266.91 289.71 265.73 290.91 C 265.75 292.63 265.82 294.35 265.88 296.08 C 260.03 297.33 254.17 298.54 248.27 299.54 C 248.39 295.38 248.35 291.23 248.25 287.08 Z" fill="#fcffff" opacity="1.00" stroke="#fcffff" stroke-width="0.25"/>
<path d="M 267.58 291.01 C 277.04 290.83 286.69 291.26 295.74 294.32 C 302.65 296.42 308.89 300.17 314.92 304.08 C 332.28 316.06 345.62 332.64 360.89 346.98 C 369.98 356.13 381.18 363.71 394.05 366.12 C 402.26 367.82 410.72 366.89 418.90 365.44 C 420.15 365.34 422.05 364.79 422.75 366.28 C 424.83 370.43 425.19 375.21 425.91 379.74 C 406.31 381.44 385.96 378.36 368.64 368.69 C 359.71 363.14 352.09 355.78 344.65 348.40 C 335.18 338.51 325.41 328.83 314.45 320.57 C 306.46 314.69 297.71 309.63 288.08 307.03 C 281.80 305.05 275.21 304.77 268.72 304.04 C 268.62 303.52 268.43 302.47 268.34 301.95 C 267.67 298.34 267.52 294.67 267.58 291.01 Z" fill="#75e2fe" opacity="1.00" stroke="#75e2fe" stroke-width="0.25"/>
<path d="M 248.51 302.59 C 254.37 301.32 260.24 300.12 266.16 299.13 C 266.38 300.89 266.59 302.65 266.90 304.41 C 270.28 306.78 274.74 306.02 278.64 306.64 C 278.63 308.49 278.63 310.35 278.62 312.22 C 268.66 313.40 258.69 314.47 248.71 315.50 C 248.60 311.20 248.59 306.89 248.51 302.59 Z" fill="#feffff" opacity="1.00" stroke="#feffff" stroke-width="0.25"/>
<path d="M 125.51 334.49 C 139.34 322.23 153.55 310.24 169.20 300.34 C 166.19 303.96 162.51 306.92 159.08 310.12 C 155.28 313.63 151.66 317.33 147.67 320.65 C 135.12 331.61 122.27 342.61 107.27 350.12 C 107.67 350.40 108.49 350.97 108.90 351.26 C 108.56 351.36 107.88 351.57 107.54 351.68 C 107.05 351.34 106.08 350.68 105.59 350.34 C 112.86 345.90 118.82 339.71 125.51 334.49 Z" fill="#f5fbff" opacity="1.00" stroke="#f5fbff" stroke-width="0.25"/>
<path d="M 219.70 302.96 C 220.16 302.59 221.08 301.83 221.54 301.46 C 224.69 301.71 227.84 302.04 230.95 302.61 C 231.24 302.71 231.81 302.93 232.10 303.04 C 231.88 324.37 232.03 345.71 232.04 367.05 C 231.51 367.13 230.46 367.28 229.93 367.36 L 229.45 367.37 C 229.52 346.26 229.53 325.15 229.46 304.04 C 226.20 303.72 222.94 303.39 219.70 302.96 Z" fill="#062547" opacity="1.00" stroke="#062547" stroke-width="0.25"/>
<path d="M 246.47 303.03 C 246.98 302.92 248.00 302.70 248.51 302.59 C 248.59 306.89 248.60 311.20 248.71 315.50 C 258.69 314.47 268.66 313.40 278.62 312.22 C 278.63 310.35 278.63 308.49 278.64 306.64 C 274.74 306.02 270.28 306.78 266.90 304.41 C 267.26 303.79 267.98 302.56 268.34 301.95 C 268.43 302.47 268.62 303.52 268.72 304.04 C 275.21 304.77 281.80 305.05 288.08 307.03 C 297.71 309.63 306.46 314.69 314.45 320.57 C 325.41 328.83 335.18 338.51 344.65 348.40 C 352.09 355.78 359.71 363.14 368.64 368.69 L 366.62 369.30 C 366.18 369.30 365.32 369.31 364.89 369.31 C 364.73 369.87 364.42 371.00 364.27 371.57 C 361.76 371.86 359.32 371.16 356.91 370.61 C 357.57 368.36 358.36 366.16 359.21 363.99 C 356.48 361.72 353.77 359.44 351.11 357.10 C 347.34 361.92 342.64 367.35 335.97 367.36 C 330.61 367.67 326.41 363.45 324.67 358.73 C 319.53 359.05 314.38 359.42 309.22 359.25 C 307.45 359.17 305.69 359.05 303.94 358.96 C 303.53 365.82 304.61 372.73 303.63 379.54 C 301.77 379.57 299.90 379.58 298.05 379.60 C 297.02 371.78 298.52 363.82 297.36 356.04 C 295.56 351.92 296.16 347.39 296.10 343.03 C 296.17 332.61 295.81 322.19 296.24 311.78 C 291.26 309.68 286.11 307.88 280.72 307.19 C 280.83 318.73 281.24 330.26 281.23 341.80 C 280.90 356.96 281.89 372.15 281.37 387.30 C 280.90 387.41 279.95 387.64 279.48 387.75 C 279.21 384.35 279.18 380.94 279.24 377.53 C 269.30 378.96 259.36 380.47 249.39 381.69 C 249.25 385.08 249.28 388.48 249.29 391.88 L 249.29 393.01 C 248.67 392.90 247.42 392.68 246.80 392.57 C 246.72 384.33 246.73 376.10 246.66 367.86 C 246.61 346.25 246.42 324.64 246.47 303.03 Z" fill="#043352" opacity="1.00" stroke="#043352" stroke-width="0.25"/>
<path d="M 167.35 338.57 C 181.41 324.53 196.39 310.52 215.10 303.02 C 216.60 302.61 218.17 302.94 219.70 302.96 C 222.94 303.39 226.20 303.72 229.46 304.04 C 229.53 325.15 229.52 346.26 229.45 367.37 C 211.90 368.02 194.51 370.77 177.00 371.97 C 174.01 372.13 170.89 373.02 167.97 372.03 C 166.87 360.94 168.15 349.70 167.35 338.57 Z" fill="#ffffff" opacity="1.00" stroke="#ffffff" stroke-width="0.25"/>
<path d="M 238.26 304.49 C 240.99 303.97 243.73 303.53 246.47 303.03 C 246.42 324.64 246.61 346.25 246.66 367.86 C 243.87 367.83 241.08 367.83 238.29 367.87 C 238.31 346.74 238.27 325.62 238.26 304.49 Z" fill="#fdffff" opacity="1.00" stroke="#fdffff" stroke-width="0.25"/>
<path d="M 379.43 335.30 C 383.72 326.03 386.93 316.28 391.24 307.04 C 391.69 320.27 391.68 333.52 392.12 346.76 C 387.43 343.47 383.31 339.48 379.43 335.30 Z" fill="#fcffff" opacity="1.00" stroke="#fcffff" stroke-width="0.25"/>
<path d="M 280.72 307.19 C 286.11 307.88 291.26 309.68 296.24 311.78 C 295.81 322.19 296.17 332.61 296.10 343.03 C 296.16 347.39 295.56 351.92 297.36 356.04 C 297.58 361.46 297.55 366.90 297.29 372.32 C 292.58 371.68 287.78 371.77 283.11 370.96 C 282.81 370.72 282.21 370.24 281.92 370.00 C 280.99 360.64 282.21 351.17 281.23 341.80 C 281.24 330.26 280.83 318.73 280.72 307.19 Z" fill="#ffffff" opacity="1.00" stroke="#ffffff" stroke-width="0.25"/>
<path d="M 298.40 312.26 C 299.05 312.80 299.70 313.36 300.35 313.92 C 300.17 325.61 300.27 337.30 300.24 349.00 C 300.19 351.59 300.42 354.23 299.70 356.76 L 299.30 355.89 C 298.51 354.38 297.86 352.75 297.91 351.02 C 297.82 339.35 297.85 327.67 297.84 316.00 C 297.78 314.71 297.97 313.46 298.40 312.26 Z" fill="#e8f9fc" opacity="1.00" stroke="#e8f9fc" stroke-width="0.25"/>
<path d="M 248.52 318.34 C 258.53 316.99 268.60 315.97 278.67 315.14 C 278.51 321.28 278.73 327.42 278.66 333.56 C 269.01 334.85 259.32 335.80 249.70 337.22 C 249.47 336.98 249.03 336.50 248.81 336.26 C 248.75 330.28 248.76 324.31 248.52 318.34 Z" fill="#feffff" opacity="1.00" stroke="#feffff" stroke-width="0.25"/>
<path d="M 304.11 315.79 C 311.26 319.70 317.54 324.99 323.67 330.30 C 324.18 338.93 323.05 347.68 324.16 356.30 C 323.93 356.52 323.47 356.96 323.24 357.18 C 316.86 357.64 310.46 357.57 304.08 357.40 C 304.19 343.53 304.13 329.66 304.11 315.79 Z" fill="#feffff" opacity="1.00" stroke="#feffff" stroke-width="0.25"/>
<path d="M 325.81 332.13 C 334.24 339.69 341.90 348.03 349.96 355.97 C 346.55 359.72 343.32 364.37 337.99 365.36 C 332.45 366.77 326.95 362.35 326.19 356.89 C 324.88 348.71 325.87 340.37 325.81 332.13 Z" fill="#fefffd" opacity="1.00" stroke="#fefffd" stroke-width="0.25"/>
<path d="M 248.73 339.74 C 258.76 338.88 268.74 337.46 278.73 336.17 C 278.69 342.31 278.85 348.44 278.81 354.58 C 268.93 355.85 259.06 357.24 249.18 358.54 C 248.73 352.28 248.90 346.01 248.73 339.74 Z" fill="#feffff" opacity="1.00" stroke="#feffff" stroke-width="0.25"/>
<path d="M 167.07 377.05 C 167.31 364.23 166.75 351.37 167.35 338.57 C 168.15 349.70 166.87 360.94 167.97 372.03 C 170.89 373.02 174.01 372.13 177.00 371.97 C 194.51 370.77 211.90 368.02 229.45 367.37 L 229.93 367.36 L 231.24 367.80 C 231.41 376.47 231.21 385.15 231.33 393.83 C 227.82 393.53 224.55 392.00 221.04 391.72 C 209.34 392.13 197.68 393.40 185.96 393.49 C 172.33 394.31 158.70 395.23 145.05 395.60 C 137.41 396.84 129.64 396.00 121.99 397.15 C 105.55 397.77 89.13 398.86 72.69 399.60 C 68.09 399.97 63.44 400.69 58.86 399.77 C 51.49 398.36 44.71 394.91 37.39 393.31 C 36.15 392.97 35.11 392.19 34.02 391.54 C 45.57 389.01 57.51 389.17 69.06 386.62 C 70.02 386.47 70.80 385.99 71.38 385.17 C 71.90 385.21 72.94 385.30 73.46 385.35 C 73.96 388.10 73.69 391.29 75.11 393.73 C 79.60 395.83 84.93 395.10 89.59 393.87 C 90.17 390.07 90.76 386.27 91.50 382.50 C 93.12 382.34 94.74 382.18 96.37 382.11 C 99.97 383.01 103.58 381.65 107.08 380.91 C 112.45 379.39 118.01 378.84 123.46 377.70 C 135.45 375.04 147.77 374.41 160.00 373.76 C 160.03 375.21 160.08 376.66 160.13 378.12 C 162.40 378.02 165.60 379.34 167.07 377.05 Z" fill="#9ee8fd" opacity="1.00" stroke="#9ee8fd" stroke-width="0.25"/>
<path d="M 281.23 341.80 C 282.21 351.17 280.99 360.64 281.92 370.00 C 282.21 370.24 282.81 370.72 283.11 370.96 C 287.78 371.77 292.58 371.68 297.29 372.32 C 297.55 366.90 297.58 361.46 297.36 356.04 C 298.52 363.82 297.02 371.78 298.05 379.60 C 299.90 379.58 301.77 379.57 303.63 379.54 C 304.61 372.73 303.53 365.82 303.94 358.96 C 305.69 359.05 307.45 359.17 309.22 359.25 C 307.73 359.41 306.24 359.59 304.77 359.80 C 304.48 364.24 304.45 368.70 304.76 373.15 C 312.88 373.64 320.95 374.62 329.07 375.03 C 334.73 374.52 340.39 374.71 346.04 375.27 C 357.47 375.51 368.92 376.00 380.29 377.28 C 381.37 377.30 382.46 377.24 383.55 377.08 C 390.60 379.36 397.94 380.45 405.25 381.51 C 405.88 385.47 406.44 389.46 407.66 393.30 C 411.93 393.58 416.29 394.27 420.53 393.33 C 422.65 390.84 422.34 387.16 423.31 384.15 C 426.84 386.23 431.08 385.61 434.98 386.22 C 440.59 386.91 446.28 387.27 451.80 388.61 C 449.25 389.94 446.67 391.22 443.93 392.11 C 440.41 393.26 437.53 395.84 433.93 396.80 C 430.01 398.07 425.99 396.39 422.01 396.47 C 412.66 396.46 403.36 395.29 394.01 395.31 C 385.00 394.10 375.89 394.69 366.88 393.53 C 357.22 393.61 347.63 392.30 337.97 392.43 C 332.35 391.66 326.67 391.62 321.01 391.49 C 307.80 389.65 294.37 390.42 281.17 388.53 L 281.37 387.30 C 281.89 372.15 280.90 356.96 281.23 341.80 Z" fill="#9ee8fd" opacity="1.00" stroke="#9ee8fd" stroke-width="0.25"/>
<path d="M 161.09 344.04 C 161.57 343.90 162.52 343.60 162.99 343.45 C 162.89 354.63 163.12 365.82 162.87 377.00 C 162.40 377.14 161.47 377.42 161.00 377.56 C 161.09 366.39 160.84 355.21 161.09 344.04 Z" fill="#7ca1bd" opacity="1.00" stroke="#7ca1bd" stroke-width="0.25"/>
<path d="M 110.05 377.91 C 128.79 371.06 145.19 359.17 159.88 345.88 C 160.21 355.17 160.03 364.46 160.00 373.76 C 147.77 374.41 135.45 375.04 123.46 377.70 C 118.01 378.84 112.45 379.39 107.08 380.91 C 103.58 381.65 99.97 383.01 96.37 382.11 L 95.94 381.74 C 100.83 381.32 105.45 379.49 110.05 377.91 Z" fill="#feffff" opacity="1.00" stroke="#feffff" stroke-width="0.25"/>
<path d="M 360.89 346.98 C 361.18 346.68 361.76 346.07 362.05 345.76 C 368.54 351.82 375.54 357.61 383.79 361.12 C 391.39 364.25 399.69 365.85 407.90 365.17 C 412.86 364.91 417.71 363.76 422.64 363.30 C 426.15 367.43 426.50 373.01 427.51 378.09 C 433.07 375.64 438.66 373.24 444.28 370.92 C 444.19 371.45 444.01 372.49 443.92 373.01 C 437.13 375.68 430.49 378.69 423.97 381.97 C 423.80 382.51 423.48 383.60 423.31 384.15 C 422.34 387.16 422.65 390.84 420.53 393.33 C 416.29 394.27 411.93 393.58 407.66 393.30 C 406.44 389.46 405.88 385.47 405.25 381.51 C 397.94 380.45 390.60 379.36 383.55 377.08 C 377.66 375.07 371.89 372.62 366.62 369.30 L 368.64 368.69 C 385.96 378.36 406.31 381.44 425.91 379.74 C 425.19 375.21 424.83 370.43 422.75 366.28 C 422.05 364.79 420.15 365.34 418.90 365.44 C 410.72 366.89 402.26 367.82 394.05 366.12 C 381.18 363.71 369.98 356.13 360.89 346.98 Z" fill="#033a5f" opacity="1.00" stroke="#033a5f" stroke-width="0.25"/>
<path d="M 299.30 355.89 L 299.70 356.76 C 300.93 363.83 300.00 371.19 300.26 378.38 L 298.89 378.46 C 299.16 370.94 298.72 363.40 299.30 355.89 Z" fill="#a9cee4" opacity="1.00" stroke="#a9cee4" stroke-width="0.25"/>
<path d="M 275.14 357.85 C 276.42 357.58 277.72 357.35 279.02 357.14 C 279.19 362.93 278.93 368.74 279.35 374.53 C 269.39 376.39 259.33 377.77 249.28 378.96 C 249.25 373.58 249.16 368.20 248.90 362.83 C 248.75 361.65 249.31 360.97 250.57 360.81 C 249.65 363.30 249.42 365.94 249.97 368.55 C 259.43 369.16 268.88 370.19 278.35 370.39 C 278.61 366.27 278.62 362.13 278.26 358.01 C 277.48 357.97 275.92 357.89 275.14 357.85 Z" fill="#9ee7fc" opacity="1.00" stroke="#9ee7fc" stroke-width="0.25"/>
<path d="M 250.57 360.81 C 258.81 360.36 266.93 358.65 275.14 357.85 C 275.92 357.89 277.48 357.97 278.26 358.01 C 278.62 362.13 278.61 366.27 278.35 370.39 C 268.88 370.19 259.43 369.16 249.97 368.55 C 249.42 365.94 249.65 363.30 250.57 360.81 Z" fill="#ffffff" opacity="1.00" stroke="#ffffff" stroke-width="0.25"/>
<path d="M 335.97 367.36 C 342.64 367.35 347.34 361.92 351.11 357.10 C 353.77 359.44 356.48 361.72 359.21 363.99 C 358.36 366.16 357.57 368.36 356.91 370.61 C 359.32 371.16 361.76 371.86 364.27 371.57 C 364.42 371.00 364.73 369.87 364.89 369.31 C 365.32 369.31 366.18 369.30 366.62 369.30 C 371.89 372.62 377.66 375.07 383.55 377.08 C 382.46 377.24 381.37 377.30 380.29 377.28 C 368.92 376.00 357.47 375.51 346.04 375.27 C 340.39 374.71 334.73 374.52 329.07 375.03 C 320.95 374.62 312.88 373.64 304.76 373.15 C 304.45 368.70 304.48 364.24 304.77 359.80 C 306.24 359.59 307.73 359.41 309.22 359.25 C 314.38 359.42 319.53 359.05 324.67 358.73 C 326.41 363.45 330.61 367.67 335.97 367.36 Z" fill="#feffff" opacity="1.00" stroke="#feffff" stroke-width="0.25"/>
<path d="M 229.93 367.36 C 230.46 367.28 231.51 367.13 232.04 367.05 C 232.42 375.76 232.07 384.48 232.20 393.20 C 232.65 393.27 233.53 393.42 233.97 393.49 C 235.33 393.39 236.68 393.17 238.04 392.95 L 237.67 393.87 C 235.97 394.80 233.34 394.16 231.33 393.83 C 231.21 385.15 231.41 376.47 231.24 367.80 L 229.93 367.36 Z" fill="#123c54" opacity="1.00" stroke="#123c54" stroke-width="0.25"/>
<path d="M 238.29 367.87 C 241.08 367.83 243.87 367.83 246.66 367.86 C 246.73 376.10 246.72 384.33 246.80 392.57 C 243.69 392.32 240.68 393.22 237.67 393.87 L 238.04 392.95 L 238.34 392.16 C 238.19 384.06 238.23 375.96 238.29 367.87 Z" fill="#9fe9fd" opacity="1.00" stroke="#9fe9fd" stroke-width="0.25"/>
<path d="M 249.39 381.69 C 259.36 380.47 269.30 378.96 279.24 377.53 C 279.18 380.94 279.21 384.35 279.48 387.75 C 276.45 388.90 273.20 388.13 270.07 388.24 C 262.94 388.05 256.32 391.33 249.29 391.88 C 249.28 388.48 249.25 385.08 249.39 381.69 Z" fill="#9ee7fb" opacity="1.00" stroke="#9ee7fb" stroke-width="0.25"/>
</svg>