<svg xmlns="http://www.w3.org/2000/svg" height="512pt" version="1.1" viewBox="0 0 512 512" width="512pt">

<path d="M 289.09 155.62 C 299.35 155.12 309.62 153.99 319.90 154.75 C 324.86 155.46 329.89 155.33 334.88 155.74 C 342.73 156.59 350.54 157.91 358.17 159.94 C 366.72 162.31 374.80 166.02 383.18 168.87 C 393.67 172.54 403.28 179.40 409.16 188.94 C 415.45 197.53 418.35 208.43 417.67 219.02 C 417.77 231.89 410.94 243.29 405.00 254.24 C 403.83 256.16 402.73 258.13 401.52 260.04 C 391.88 273.08 379.90 284.18 366.95 293.86 C 358.20 300.96 348.29 306.36 338.97 312.63 C 333.20 313.31 327.94 315.99 322.54 317.96 C 314.99 321.40 307.04 323.78 299.15 326.26 C 290.89 327.96 282.79 330.35 274.46 331.73 C 264.82 333.78 255.00 334.68 245.25 335.98 C 237.96 336.41 230.66 336.60 223.43 337.65 C 202.68 337.10 181.37 336.18 161.88 328.26 C 146.65 322.12 130.67 315.66 119.51 303.09 C 118.03 301.19 116.65 299.21 115.32 297.21 C 107.23 284.21 105.44 268.03 107.78 253.12 C 112.23 234.11 124.85 217.16 141.89 207.57 C 152.97 201.47 162.92 193.50 174.27 187.86 C 190.97 179.75 208.55 173.64 226.28 168.22 C 246.69 161.82 267.74 157.27 289.09 155.62 Z" fill="#4c302d" opacity="1.00" stroke="#4c302d" stroke-width="0.25" data-index="1" style="opacity: 1;"></path>
<path d="M 214.83 178.84 C 251.30 165.84 290.27 158.89 329.03 161.67 C 338.41 162.57 347.84 163.73 356.91 166.41 C 365.86 168.95 374.38 172.73 383.13 175.84 C 391.86 178.87 399.22 185.18 404.11 192.96 C 410.34 202.14 412.42 213.61 411.25 224.53 C 410.03 221.74 409.26 218.21 406.21 216.81 C 401.01 214.36 394.56 213.45 389.32 216.26 C 384.67 218.59 380.06 221.01 375.41 223.33 C 366.84 227.79 359.13 233.69 351.56 239.64 C 339.08 249.15 326.43 258.44 313.58 267.46 C 300.39 275.96 286.57 283.61 271.79 288.99 C 250.33 297.37 226.86 300.12 203.98 297.97 C 191.82 296.39 179.37 294.46 168.46 288.52 C 161.34 284.63 154.39 280.16 148.69 274.33 C 141.71 267.31 137.48 258.22 131.80 250.23 C 128.36 245.37 125.49 240.11 121.64 235.55 C 127.95 226.04 136.29 217.79 146.40 212.39 C 156.29 207.15 164.85 199.61 175.18 195.16 C 170.58 199.33 165.06 202.31 160.43 206.44 C 152.47 213.76 143.05 219.74 136.93 228.86 C 134.47 233.23 135.25 238.57 135.77 243.33 C 136.85 251.10 144.85 255.38 151.97 256.22 C 161.27 258.46 170.63 255.86 179.93 255.08 C 180.42 255.95 180.92 256.80 181.42 257.67 C 182.00 257.55 183.18 257.32 183.76 257.20 C 183.34 256.24 182.92 255.27 182.48 254.33 C 194.22 251.08 206.49 249.19 217.41 243.49 C 222.56 241.20 226.41 236.74 228.89 231.78 C 230.18 229.15 229.85 226.02 228.67 223.42 C 226.36 217.82 221.59 213.88 217.65 209.46 C 217.46 209.44 217.09 209.41 216.90 209.40 C 216.92 205.10 214.09 201.55 210.65 199.29 C 204.65 195.20 198.30 191.11 191.07 189.69 C 189.13 189.14 187.64 190.35 186.63 191.87 C 183.98 193.51 180.89 194.28 177.79 194.26 L 176.78 194.30 C 188.69 187.45 201.87 183.22 214.83 178.84 Z" fill="#ffca6a" opacity="1.00" stroke="#ffca6a" stroke-width="0.25" data-index="2" style="opacity: 1;"></path>
<path d="M 362.50 179.12 C 367.20 181.68 371.73 184.56 376.61 186.79 C 376.54 187.33 376.40 188.41 376.33 188.95 C 371.18 187.88 367.01 184.50 362.47 182.06 C 362.47 181.08 362.48 180.10 362.50 179.12 Z" fill="#4c302d" opacity="1.00" stroke="#4c302d" stroke-width="0.25" data-index="3"></path>
<path d="M 328.14 180.20 C 329.18 180.29 330.23 180.37 331.29 180.47 C 333.26 184.09 338.73 185.28 338.78 189.81 C 334.59 189.24 331.50 186.11 328.48 183.44 C 328.36 182.36 328.25 181.28 328.14 180.20 Z" fill="#ffffff" opacity="1.00" stroke="#ffffff" stroke-width="0.25" data-index="4" style="opacity: 1; visibility: visible; fill: rgb(76, 48, 45); stroke: rgb(76, 48, 45);"></path>
<path d="M 186.63 191.87 C 187.64 190.35 189.13 189.14 191.07 189.69 C 198.30 191.11 204.65 195.20 210.65 199.29 C 214.09 201.55 216.92 205.10 216.90 209.40 C 216.25 209.39 214.96 209.38 214.32 209.38 C 211.74 203.19 205.50 200.23 200.08 197.03 C 195.90 194.57 191.17 193.43 186.63 191.87 Z" fill="#4c302d" opacity="1.00" stroke="#4c302d" stroke-width="0.25" data-index="5" style="opacity: 1;"></path>
<path d="M 313.76 191.00 C 316.85 190.60 317.60 194.02 319.05 195.98 C 320.14 198.30 322.37 200.41 322.27 203.08 L 320.83 203.55 C 318.15 199.58 315.18 195.63 313.76 191.00 Z" fill="#4c302d" opacity="1.00" stroke="#4c302d" stroke-width="0.25" data-index="6"></path>
<path d="M 177.79 194.26 C 180.89 194.28 183.98 193.51 186.63 191.87 C 191.17 193.43 195.90 194.57 200.08 197.03 C 205.50 200.23 211.74 203.19 214.32 209.38 C 214.96 209.38 216.25 209.39 216.90 209.40 C 217.09 209.41 217.46 209.44 217.65 209.46 C 221.59 213.88 226.36 217.82 228.67 223.42 C 229.85 226.02 230.18 229.15 228.89 231.78 C 226.41 236.74 222.56 241.20 217.41 243.49 C 206.49 249.19 194.22 251.08 182.48 254.33 C 181.21 251.77 179.70 249.35 178.19 246.94 C 177.73 247.26 176.83 247.91 176.38 248.23 C 177.49 250.55 178.67 252.83 179.93 255.08 C 170.63 255.86 161.27 258.46 151.97 256.22 C 144.85 255.38 136.85 251.10 135.77 243.33 C 135.25 238.57 134.47 233.23 136.93 228.86 C 143.05 219.74 152.47 213.76 160.43 206.44 C 165.06 202.31 170.58 199.33 175.18 195.16 C 175.83 194.93 177.14 194.48 177.79 194.26 Z" fill="#fedf9e" opacity="1.00" stroke="#fedf9e" stroke-width="0.25" data-index="7" style="opacity: 1;"></path>
<path d="M 258.69 199.57 C 260.04 197.52 261.89 195.79 263.97 194.49 C 265.26 194.69 266.50 195.08 267.69 195.67 C 268.37 199.66 264.93 202.04 262.47 204.52 C 261.13 204.51 259.79 204.51 258.46 204.51 C 258.52 202.87 258.21 201.16 258.69 199.57 Z" fill="#ffffff" opacity="1.00" stroke="#ffffff" stroke-width="0.25" data-index="8" style="opacity: 1; visibility: visible; fill: rgb(255, 202, 106); stroke: rgb(255, 202, 106);"></path>
<path d="M 345.59 208.64 C 346.89 208.22 348.31 208.31 349.67 208.16 C 349.65 209.84 349.62 211.52 349.59 213.21 C 347.17 215.74 344.74 218.26 342.26 220.72 C 341.41 220.63 339.72 220.46 338.88 220.37 C 338.50 219.77 337.75 218.57 337.37 217.97 C 339.13 214.12 342.34 211.23 345.59 208.64 Z" fill="#ffffff" opacity="1.00" stroke="#ffffff" stroke-width="0.25" data-index="9" style="opacity: 1; visibility: visible; fill: rgb(255, 202, 106); stroke: rgb(255, 202, 106);"></path>
<path d="M 389.32 216.26 C 394.56 213.45 401.01 214.36 406.21 216.81 C 409.26 218.21 410.03 221.74 411.25 224.53 C 407.59 237.68 401.17 250.03 392.77 260.77 C 382.76 273.12 370.50 283.41 357.74 292.78 C 347.23 300.21 335.87 306.50 323.75 310.88 C 290.53 324.27 254.62 329.93 218.97 331.14 C 207.90 330.62 196.76 330.36 185.84 328.25 C 169.29 325.56 153.84 318.54 139.06 310.89 C 132.10 306.46 125.18 301.34 120.75 294.24 C 117.40 288.31 114.60 281.90 113.99 275.05 C 113.12 266.73 112.41 258.07 115.07 249.99 C 116.71 244.95 119.20 240.24 121.64 235.55 C 125.49 240.11 128.36 245.37 131.80 250.23 C 137.48 258.22 141.71 267.31 148.69 274.33 C 154.39 280.16 161.34 284.63 168.46 288.52 C 179.37 294.46 191.82 296.39 203.98 297.97 C 226.86 300.12 250.33 297.37 271.79 288.99 C 286.57 283.61 300.39 275.96 313.58 267.46 C 326.43 258.44 339.08 249.15 351.56 239.64 C 359.13 233.69 366.84 227.79 375.41 223.33 C 380.06 221.01 384.67 218.59 389.32 216.26 Z" fill="#db9d4b" opacity="1.00" stroke="#db9d4b" stroke-width="0.25" data-index="10" style="opacity: 1;"></path>
<path d="M 284.42 230.35 C 285.49 230.32 286.55 230.29 287.63 230.25 C 288.28 231.17 288.94 232.08 289.60 233.00 C 288.74 235.72 287.84 241.43 283.75 239.13 C 283.02 236.19 283.42 233.16 284.42 230.35 Z" fill="#ffffff" opacity="1.00" stroke="#ffffff" stroke-width="0.25" data-index="11" style="opacity: 1; visibility: visible; fill: rgb(255, 202, 106);"></path>
<path d="M 263.34 233.35 C 263.90 233.31 265.00 233.24 265.55 233.20 C 265.71 237.16 265.94 241.16 265.22 245.08 C 261.67 242.33 263.75 237.18 263.34 233.35 Z" fill="#4c302d" opacity="1.00" stroke="#4c302d" stroke-width="0.25" data-index="12" style="opacity: 1;"></path>
<path d="M 375.08 243.16 C 375.64 243.17 376.74 243.20 377.30 243.21 C 378.19 247.91 380.03 252.35 381.26 256.96 C 380.94 257.50 380.28 258.59 379.95 259.13 C 377.03 254.30 375.72 248.71 375.08 243.16 Z" fill="#4c302d" opacity="1.00" stroke="#4c302d" stroke-width="0.25" data-index="13"></path>
<path d="M 176.38 248.23 C 176.83 247.91 177.73 247.26 178.19 246.94 C 179.70 249.35 181.21 251.77 182.48 254.33 C 182.92 255.27 183.34 256.24 183.76 257.20 C 183.18 257.32 182.00 257.55 181.42 257.67 C 180.92 256.80 180.42 255.95 179.93 255.08 C 178.67 252.83 177.49 250.55 176.38 248.23 Z" fill="#4c302d" opacity="1.00" stroke="#4c302d" stroke-width="0.25" data-index="14"></path>

<path d="M 366.95 293.86 C 379.90 284.18 391.88 273.08 401.52 260.04 C 410.36 263.60 419.77 267.51 425.87 275.16 C 429.22 279.19 430.06 285.39 426.91 289.77 C 421.37 298.09 412.28 303.07 403.50 307.28 C 392.23 312.31 380.74 316.82 369.24 321.27 C 343.44 331.43 315.89 336.81 288.24 338.20 C 305.94 331.35 323.16 323.18 338.97 312.63 C 348.29 306.36 358.20 300.96 366.95 293.86 Z" fill="#ffffff" opacity="1.00" stroke="#ffffff" stroke-width="0.25" data-index="16" style="opacity: 1; visibility: hidden;"></path>
<path d="M 278.32 263.04 C 283.77 262.33 289.19 263.62 294.62 263.87 C 294.32 264.49 293.70 265.72 293.39 266.34 C 288.41 266.38 283.48 265.52 278.52 265.30 C 278.47 264.73 278.37 263.61 278.32 263.04 Z" fill="#4c302d" opacity="1.00" stroke="#4c302d" stroke-width="0.25" data-index="17" style="opacity: 1;"></path>

<path d="M 225.16 281.66 C 225.80 281.64 227.09 281.60 227.74 281.58 C 227.60 282.73 227.40 283.88 227.14 285.02 C 226.20 284.06 225.46 282.97 225.16 281.66 Z" fill="#4c302d" opacity="1.00" stroke="#4c302d" stroke-width="0.25" data-index="19"></path>

<path d="M 98.76 304.81 C 104.11 301.92 109.72 299.56 115.32 297.21 C 116.65 299.21 118.03 301.19 119.51 303.09 C 109.08 307.14 98.65 311.85 89.97 319.06 C 86.96 321.46 84.80 324.70 82.60 327.81 C 82.55 328.98 82.51 330.16 82.46 331.34 C 80.53 332.10 78.49 332.46 76.56 331.51 C 76.00 329.76 74.84 327.83 75.93 326.03 C 80.27 316.14 89.55 309.75 98.76 304.81 Z" fill="#092f4f" opacity="1.00" stroke="#092f4f" stroke-width="0.25" data-index="21" style="visibility: hidden; opacity: 1;"></path>
<path d="M 274.46 331.73 C 282.79 330.35 290.89 327.96 299.15 326.26 C 290.85 329.72 282.41 332.84 273.96 335.90 C 264.83 339.98 254.73 336.63 245.25 335.98 C 255.00 334.68 264.82 333.78 274.46 331.73 Z" fill="#ffffff" opacity="1.00" stroke="#ffffff" stroke-width="0.25" data-index="22" style="opacity: 1;"></path>
</svg>