<?xml version="1.0" encoding="utf-8"?>
<svg xmlns="http://www.w3.org/2000/svg" height="512pt" version="1.1" viewBox="0 0 512 512" width="512pt">
<path d="M 0.00 0.00 L 512.00 0.00 L 512.00 512.00 L 0.00 512.00 L 0.00 0.00 Z" fill="transparent" opacity="1.00" stroke="transparent" stroke-width="0.25"/>
<path d="M 219.01 74.03 C 222.98 69.28 230.44 69.64 235.43 72.50 C 244.20 77.41 251.68 84.47 257.89 92.33 C 267.78 104.20 273.11 118.90 278.76 133.06 C 283.29 134.65 287.28 137.62 290.14 141.47 C 295.76 137.53 301.66 132.77 308.98 133.13 C 314.19 132.69 318.53 135.82 322.70 138.43 C 334.26 133.69 347.58 135.03 358.80 140.11 C 373.53 146.61 386.41 158.20 393.02 173.02 C 399.39 178.53 405.76 184.20 411.11 190.77 C 427.86 210.10 437.27 234.89 440.84 260.01 C 444.58 282.92 444.06 306.52 438.67 329.13 C 434.33 346.31 427.53 363.21 416.23 377.05 C 413.51 380.99 409.32 383.86 407.50 388.40 C 405.37 393.57 401.55 397.72 397.99 401.94 C 384.44 416.55 364.72 425.92 344.64 425.54 C 335.95 432.14 324.61 433.38 314.09 434.45 C 304.89 438.66 293.96 438.36 285.06 433.53 C 274.16 442.63 256.87 445.01 245.09 436.28 C 240.06 436.91 235.08 438.25 229.96 438.16 C 224.55 437.86 219.13 437.07 214.00 435.26 C 211.09 434.12 208.01 435.39 205.01 435.31 C 188.90 435.45 172.17 431.39 159.53 420.98 C 145.60 417.68 132.14 411.85 120.62 403.24 C 93.12 382.92 75.30 350.82 70.70 317.10 C 66.85 293.60 69.17 269.51 74.80 246.50 C 78.52 231.43 84.13 216.90 91.23 203.11 C 94.05 196.96 99.12 192.32 103.28 187.12 C 110.73 178.15 120.58 171.69 130.13 165.25 C 135.46 157.34 141.28 149.66 148.45 143.31 C 151.45 140.73 155.12 139.13 158.76 137.69 C 168.80 133.90 179.33 131.37 190.02 130.47 C 197.15 130.19 204.92 130.10 211.03 134.39 C 214.54 131.67 218.33 128.88 222.84 128.21 C 226.00 127.55 229.19 128.27 232.33 128.71 C 230.89 122.84 229.00 116.74 224.95 112.11 C 220.49 106.91 212.32 109.19 207.58 104.42 C 205.19 102.31 204.96 98.63 206.42 95.92 C 209.71 88.17 213.47 80.44 219.01 74.03 Z" fill="#134154" opacity="1.00" stroke="#134154" stroke-width="0.25"/>
<path d="M 222.72 136.34 C 225.60 136.16 228.53 135.99 231.40 136.48 C 234.15 137.07 231.11 140.82 232.69 141.71 C 233.40 140.00 233.19 138.08 233.49 136.28 C 233.83 138.79 234.88 142.54 231.97 143.87 C 230.58 146.53 228.90 149.03 227.58 151.73 C 225.84 150.98 226.71 148.77 225.75 147.47 C 223.78 144.09 220.43 141.87 217.88 138.97 C 219.52 138.16 221.16 137.32 222.72 136.34 Z" fill="#fc8427" opacity="1.00" stroke="#fc8427" stroke-width="0.25"/>
<path d="M 182.02 139.57 C 187.85 137.74 194.07 138.25 200.09 138.34 C 207.46 139.27 212.65 144.97 218.24 149.25 C 212.00 151.46 205.37 149.55 198.95 149.74 C 186.16 149.31 173.39 150.84 160.97 153.73 C 155.17 154.68 149.57 156.56 144.11 158.70 C 146.87 155.29 149.83 152.03 153.03 149.04 C 158.64 145.00 165.61 143.87 171.99 141.59 C 175.17 140.22 178.72 140.45 182.02 139.57 Z" fill="#fc8427" opacity="1.00" stroke="#fc8427" stroke-width="0.25"/>
<path d="M 293.45 149.04 C 296.67 144.22 302.50 141.80 308.02 140.75 C 310.60 141.21 313.06 142.15 315.53 143.00 C 314.89 144.32 314.25 145.64 313.61 146.96 C 313.96 147.65 314.66 149.03 315.00 149.72 C 315.12 149.41 315.36 148.79 315.47 148.48 C 323.84 145.03 332.82 142.77 341.94 143.58 C 347.14 143.35 351.61 146.88 356.82 146.44 C 356.22 146.74 355.63 147.04 355.05 147.34 C 359.32 147.83 362.45 150.96 365.92 153.16 C 367.31 154.10 369.31 154.78 369.16 156.93 C 364.37 156.31 359.89 154.29 355.08 153.89 C 350.00 153.64 345.16 151.76 340.03 151.84 C 328.41 151.53 316.56 150.77 305.12 153.28 C 302.74 153.52 300.35 153.53 297.97 153.57 C 296.81 151.73 295.21 150.27 293.45 149.04 Z" fill="#fc8427" opacity="1.00" stroke="#fc8427" stroke-width="0.25"/>
<path d="M 170.06 159.76 C 173.40 159.36 176.63 158.25 180.03 158.40 C 171.31 161.95 163.54 167.43 156.11 173.13 C 149.36 178.91 144.56 186.53 139.66 193.85 C 132.84 204.64 128.51 216.69 123.50 228.36 C 123.28 229.58 123.29 230.81 123.52 232.06 C 126.57 228.81 127.50 224.28 129.43 220.37 C 135.58 207.56 142.75 195.10 151.92 184.20 C 156.67 178.44 163.06 174.50 169.17 170.36 C 176.41 166.04 183.87 161.93 191.92 159.29 C 197.65 156.95 203.96 157.66 209.99 157.79 C 214.62 157.81 218.85 159.95 222.86 162.05 C 217.97 163.55 212.83 164.19 208.11 166.22 C 195.41 172.66 187.35 185.46 181.94 198.19 C 178.07 206.65 175.46 215.58 172.16 224.26 C 166.69 239.01 161.08 253.78 157.65 269.18 C 153.77 286.50 151.80 304.29 152.25 322.05 C 152.36 347.89 157.11 374.32 169.76 397.10 C 176.56 408.79 186.34 418.45 196.95 426.70 C 176.68 426.11 157.80 413.87 147.14 396.92 C 140.21 384.98 134.92 372.20 128.96 359.77 C 128.54 357.90 126.72 358.16 125.24 358.18 C 124.91 364.07 127.60 369.47 129.05 375.06 C 133.36 387.02 138.38 399.14 146.71 408.89 C 143.72 407.10 140.32 406.20 137.22 404.62 C 110.85 390.72 91.80 365.17 83.02 336.98 C 77.90 319.83 75.66 301.81 76.52 283.92 C 78.37 261.69 83.14 239.55 92.11 219.06 C 94.97 213.47 96.82 207.30 100.72 202.29 C 107.08 193.63 114.40 185.57 123.06 179.15 C 136.96 169.21 153.04 161.99 170.06 159.76 Z" fill="#fc8427" opacity="1.00" stroke="#fc8427" stroke-width="0.25"/>
<path d="M 298.97 161.60 C 314.44 158.94 330.36 159.05 345.98 160.44 C 350.29 161.49 354.67 162.09 359.07 162.67 C 370.90 166.22 381.55 173.10 390.66 181.36 C 401.42 190.39 410.99 201.09 417.46 213.64 C 428.75 232.88 433.21 255.26 435.01 277.26 C 436.70 295.22 434.61 313.45 430.01 330.86 C 427.45 341.38 422.79 351.19 418.44 361.05 C 418.56 358.65 418.90 356.27 419.57 353.97 C 424.17 329.92 424.74 305.00 419.95 280.93 C 417.35 268.58 415.03 256.11 410.94 244.15 C 410.65 242.58 409.21 241.59 407.69 241.46 C 407.71 243.17 407.67 244.92 408.15 246.59 C 412.81 261.98 414.35 278.09 415.48 294.06 C 416.44 315.76 415.40 337.70 410.38 358.90 C 406.99 372.37 402.20 386.11 392.52 396.42 C 387.41 402.20 380.95 406.58 374.22 410.27 C 369.94 412.36 365.65 414.76 360.77 414.96 C 360.97 411.35 364.35 409.52 365.92 406.59 C 374.91 393.64 381.10 378.72 383.71 363.16 C 384.13 359.58 384.94 355.74 383.64 352.26 C 383.21 350.82 381.83 350.31 380.49 350.16 C 379.41 351.59 378.37 353.10 378.03 354.90 C 375.92 362.82 374.62 371.00 371.60 378.66 C 369.19 384.37 366.58 389.98 364.26 395.73 C 364.73 393.87 365.24 392.02 365.66 390.16 C 363.18 397.73 358.17 404.02 352.94 409.88 C 347.38 415.52 340.94 420.53 333.25 422.83 C 346.76 410.96 354.34 393.58 356.50 375.95 C 357.63 356.91 358.65 337.86 360.41 318.85 C 361.48 307.92 361.59 296.93 362.23 285.98 C 362.29 257.73 358.90 228.62 346.03 203.09 C 339.84 189.31 330.24 176.72 317.31 168.69 C 311.85 164.92 305.36 163.09 298.97 161.60 Z" fill="#fc8427" opacity="1.00" stroke="#fc8427" stroke-width="0.25"/>
<path d="M 285.12 168.29 C 293.39 166.50 301.56 169.85 309.05 173.01 C 315.98 177.08 322.76 181.75 327.72 188.19 C 340.54 204.23 347.11 224.24 351.19 244.11 C 357.62 279.82 352.16 316.06 350.08 351.89 C 349.28 358.23 349.86 364.64 349.08 370.98 C 348.34 382.48 345.03 394.00 338.68 403.69 C 334.77 411.40 328.41 417.55 321.31 422.36 C 312.75 428.24 301.53 432.21 291.37 428.14 C 291.80 425.43 294.28 423.61 294.87 420.91 C 298.61 409.90 301.63 398.56 303.01 386.98 C 305.25 368.35 303.31 349.58 301.21 331.03 C 300.85 328.49 300.28 325.99 299.34 323.60 C 298.86 323.56 297.89 323.48 297.40 323.44 C 295.73 326.41 297.07 329.76 297.34 332.91 C 300.47 360.30 297.67 388.46 288.63 414.53 C 285.77 420.88 282.19 427.75 275.53 430.79 C 268.32 434.00 259.46 435.59 252.16 431.78 C 250.22 430.85 248.48 429.30 247.81 427.21 C 241.63 408.74 237.03 389.72 234.38 370.42 C 233.88 370.41 232.88 370.39 232.38 370.38 C 232.42 374.26 232.68 378.14 233.26 381.98 C 234.31 393.50 235.31 405.06 237.21 416.48 C 237.91 420.85 239.53 425.01 240.10 429.40 C 229.56 431.52 218.57 429.75 208.96 425.08 C 208.06 423.75 206.39 423.55 205.02 422.98 C 199.74 418.27 193.11 414.94 188.97 409.02 C 183.35 404.21 179.33 397.86 175.56 391.58 C 162.48 367.02 159.07 338.46 160.27 311.00 C 160.19 301.95 161.56 292.99 162.70 284.03 C 165.83 263.97 172.48 244.67 179.99 225.87 C 182.50 218.99 184.60 211.95 187.42 205.18 C 191.87 193.56 198.46 182.19 208.69 174.77 C 212.45 172.65 216.27 170.57 220.44 169.37 C 221.25 170.10 222.11 170.81 222.76 171.70 C 222.15 171.66 220.92 171.58 220.31 171.53 C 213.10 176.67 207.03 183.38 202.45 190.95 C 196.08 202.84 193.27 216.43 193.25 229.85 C 193.79 229.76 194.88 229.57 195.42 229.48 C 197.65 218.76 200.13 207.90 204.96 198.01 C 208.76 189.53 215.07 182.18 222.68 176.90 C 227.90 173.96 234.45 171.15 240.35 173.66 C 241.87 174.12 243.31 174.83 244.71 175.60 C 241.39 182.40 238.67 189.61 237.78 197.17 C 236.46 207.90 235.04 218.63 234.07 229.41 C 233.72 233.60 232.58 237.92 233.87 242.06 C 235.86 238.68 235.82 234.63 236.68 230.90 C 239.09 218.81 241.30 206.66 244.64 194.78 C 247.46 186.17 250.42 176.51 258.22 171.10 C 265.37 168.44 272.68 172.86 278.09 177.28 C 286.73 187.32 291.98 199.66 296.64 211.91 C 302.57 228.76 305.89 246.34 309.37 263.81 C 310.86 264.23 311.47 263.66 311.21 262.10 C 310.30 251.98 308.79 241.91 306.42 232.03 C 303.65 220.01 302.19 207.53 297.10 196.18 C 293.53 187.82 289.88 179.03 283.02 172.79 C 281.20 171.21 283.43 168.78 285.12 168.29 Z" fill="#fc8427" opacity="1.00" stroke="#fc8427" stroke-width="0.25"/>
</svg>