<svg xmlns="http://www.w3.org/2000/svg" height="512pt" version="1.1" viewBox="0 0 512 512" width="512pt">
<path d="M 0.00 0.00 L 512.00 0.00 L 512.00 512.00 L 0.00 512.00 L 0.00 0.00 Z" fill="transparent" opacity="1.00" stroke="transparent" stroke-width="0.25" data-index="0" style="opacity: 1;"></path>
<path d="M 251.87 118.42 C 259.71 114.07 270.59 116.87 275.27 124.55 C 280.06 131.44 278.62 140.23 279.78 148.08 C 280.66 153.58 287.65 155.09 288.88 160.40 C 288.74 163.02 287.67 165.46 287.27 168.03 C 288.19 171.07 289.43 174.19 287.88 177.33 C 286.78 175.46 286.59 173.30 286.78 171.19 L 286.31 171.77 C 284.33 168.15 286.78 164.59 287.32 160.99 C 285.76 156.00 279.48 154.11 278.26 148.86 C 276.96 142.67 278.00 136.15 275.94 130.09 C 273.92 121.90 264.67 116.01 256.45 118.59 C 251.72 120.62 246.22 119.48 241.85 122.46 C 241.42 122.43 240.56 122.38 240.13 122.36 C 243.05 118.83 247.71 118.76 251.87 118.42 Z" fill="#0a192b" opacity="1.00" stroke="#0a192b" stroke-width="0.25" data-index="1"></path>
<path d="M 256.45 118.59 C 264.67 116.01 273.92 121.90 275.94 130.09 C 278.00 136.15 276.96 142.67 278.26 148.86 C 279.48 154.11 285.76 156.00 287.32 160.99 C 286.78 164.59 284.33 168.15 286.31 171.77 C 285.83 172.37 285.33 172.95 284.82 173.52 C 278.64 169.94 272.37 166.51 265.61 164.12 C 267.88 161.34 269.55 158.16 270.66 154.75 C 271.83 151.60 275.92 148.77 273.83 145.09 C 273.01 141.94 269.41 142.33 266.90 141.86 C 266.24 138.32 265.52 134.79 264.72 131.27 C 263.35 131.59 261.98 131.92 260.61 132.23 C 255.02 132.33 249.41 135.16 243.89 133.06 C 241.47 132.17 237.28 130.98 238.95 127.56 C 239.23 126.10 239.51 124.64 239.78 123.18 C 239.81 122.97 239.88 122.55 239.92 122.34 L 240.13 122.36 C 240.56 122.38 241.42 122.43 241.85 122.46 C 246.22 119.48 251.72 120.62 256.45 118.59 Z" fill="#603c38" opacity="1.00" stroke="#603c38" stroke-width="0.25" data-index="2"></path>
<path d="M 237.96 126.01 C 238.57 125.07 239.17 124.12 239.78 123.18 C 239.51 124.64 239.23 126.10 238.95 127.56 C 237.31 128.28 235.08 128.49 234.24 130.32 C 232.61 133.35 233.37 137.70 237.14 138.54 C 237.20 136.14 237.21 133.74 237.20 131.34 C 243.88 136.51 253.50 136.57 260.61 132.23 C 261.98 131.92 263.35 131.59 264.72 131.27 C 265.52 134.79 266.24 138.32 266.90 141.86 C 269.41 142.33 273.01 141.94 273.83 145.09 C 275.92 148.77 271.83 151.60 270.66 154.75 C 269.55 158.16 267.88 161.34 265.61 164.12 C 272.37 166.51 278.64 169.94 284.82 173.52 C 285.13 173.49 285.74 173.41 286.04 173.37 C 285.69 174.72 285.85 176.09 286.90 177.08 C 295.64 186.89 301.36 199.05 305.12 211.54 C 307.08 217.81 306.99 225.35 302.42 230.49 C 298.16 234.46 292.41 236.12 287.01 237.89 C 287.64 263.01 289.59 288.10 289.47 313.23 C 288.13 313.21 286.80 313.18 285.47 313.14 C 283.05 313.00 280.63 312.80 278.23 312.51 C 275.43 312.16 272.66 311.57 269.91 310.95 C 271.42 310.75 272.93 310.48 274.45 310.29 C 278.97 311.05 283.52 311.63 288.12 311.63 C 287.27 287.27 286.27 262.91 285.27 238.55 C 280.21 239.70 275.18 240.95 270.10 242.03 C 268.87 241.80 267.65 241.57 266.42 241.34 C 275.71 238.85 285.29 237.26 294.24 233.60 C 297.85 232.09 301.51 229.84 303.30 226.21 C 305.33 221.50 304.71 216.16 303.33 211.37 C 298.95 197.40 292.17 183.76 281.23 173.77 C 276.55 170.02 270.89 167.72 265.19 166.01 C 266.24 174.31 267.48 182.58 268.75 190.85 L 267.93 190.94 C 266.50 190.75 265.08 190.51 263.66 190.34 C 264.45 190.14 266.02 189.73 266.81 189.53 C 265.78 183.29 264.97 177.01 264.10 170.74 C 263.46 172.70 263.09 174.73 262.62 176.74 C 261.87 177.79 261.10 178.82 260.38 179.90 L 260.75 178.42 C 258.55 178.55 256.28 179.06 254.10 178.49 C 252.62 177.82 251.73 176.32 250.56 175.26 C 242.84 191.08 238.98 208.41 235.10 225.47 C 233.57 233.10 231.96 240.71 230.77 248.40 L 229.30 247.06 C 230.23 240.27 231.89 233.60 232.95 226.82 C 231.36 228.94 230.25 231.82 227.32 232.37 C 228.84 229.18 231.18 226.51 233.55 223.93 C 235.75 214.89 237.81 205.82 240.48 196.91 C 237.52 196.52 234.58 196.01 231.65 195.41 C 233.94 192.52 238.14 195.43 241.13 195.49 C 243.00 188.78 245.35 182.20 248.27 175.87 C 237.20 184.93 226.85 194.80 216.02 204.14 C 218.69 204.67 222.52 202.94 224.33 205.66 C 220.97 206.04 217.55 205.53 214.22 206.05 C 211.14 208.51 208.44 211.42 205.42 213.96 C 205.12 216.04 204.59 218.08 203.33 219.80 C 205.38 222.26 205.37 225.44 205.32 228.48 L 203.32 228.56 C 203.35 226.57 203.40 224.58 203.41 222.59 C 201.95 224.06 200.32 225.52 199.80 227.60 C 195.13 244.03 193.07 261.06 191.54 278.03 C 191.15 285.64 190.19 293.24 190.42 300.87 C 189.92 300.76 188.91 300.53 188.41 300.42 C 189.86 275.79 191.31 250.82 198.23 227.01 C 197.00 226.44 195.77 225.87 194.55 225.28 C 190.46 238.87 187.48 252.86 186.63 267.05 C 186.01 279.46 185.02 291.87 185.30 304.30 L 186.94 303.78 C 185.83 304.43 184.71 305.07 183.59 305.71 C 183.37 299.47 183.70 293.23 183.86 286.99 C 184.62 275.10 184.68 263.14 186.55 251.35 C 188.00 242.94 190.01 234.62 192.61 226.48 C 193.67 223.90 191.99 221.35 191.76 218.78 C 191.38 215.32 192.09 211.20 194.96 208.93 C 197.09 207.27 199.80 208.53 202.09 209.11 C 211.83 197.90 222.52 187.59 233.61 177.73 C 235.51 176.47 235.35 174.11 235.61 172.10 C 231.99 169.30 230.50 164.71 232.03 160.33 C 232.46 158.28 234.08 156.85 235.52 155.46 C 235.29 150.51 235.85 145.57 236.67 140.69 C 234.86 139.47 232.60 138.30 232.20 135.92 C 230.93 131.64 233.65 127.06 237.96 126.01 Z" fill="#06172d" opacity="1.00" stroke="#06172d" stroke-width="0.25" data-index="3" style="opacity: 1;"></path>
<path d="M 234.24 130.32 C 235.08 128.49 237.31 128.28 238.95 127.56 C 237.28 130.98 241.47 132.17 243.89 133.06 C 249.41 135.16 255.02 132.33 260.61 132.23 C 253.50 136.57 243.88 136.51 237.20 131.34 C 237.21 133.74 237.20 136.14 237.14 138.54 C 233.37 137.70 232.61 133.35 234.24 130.32 Z" fill="#5b4047" opacity="1.00" stroke="#5b4047" stroke-width="0.25" data-index="4"></path>
<path d="M 238.94 139.19 C 239.02 137.59 239.13 135.98 239.28 134.38 C 246.74 139.36 256.16 136.03 263.92 133.49 C 264.36 136.94 265.11 140.35 265.62 143.80 C 267.77 144.00 270.84 142.66 272.15 144.99 C 272.92 146.65 272.44 148.50 272.32 150.23 C 270.73 150.79 269.15 151.35 267.56 151.90 C 267.92 152.44 268.65 153.51 269.01 154.05 C 267.93 159.56 264.19 164.61 258.96 166.80 C 251.30 169.98 240.12 166.77 238.53 157.81 C 238.68 154.13 238.75 150.42 239.64 146.84 C 240.67 147.44 241.70 148.55 243.02 147.78 C 243.50 148.13 243.98 148.49 244.45 148.86 C 243.92 150.15 242.49 152.68 244.30 153.63 C 246.56 155.35 249.23 153.59 251.33 152.48 C 249.23 152.42 247.14 152.53 245.05 152.65 C 245.58 150.01 247.38 147.26 246.05 144.58 C 245.85 144.04 245.46 142.96 245.27 142.42 C 245.09 141.87 244.73 140.76 244.55 140.21 C 242.72 139.88 240.12 141.06 238.94 139.19 Z" fill="#fbbea1" opacity="1.00" stroke="#fbbea1" stroke-width="0.25" data-index="5"></path>
<path d="M 249.83 138.85 C 253.83 137.90 258.00 138.43 262.04 138.84 C 262.16 139.26 262.41 140.10 262.53 140.52 C 258.38 142.41 253.67 141.00 249.27 141.49 C 249.41 140.83 249.69 139.51 249.83 138.85 Z" fill="#181929" opacity="1.00" stroke="#181929" stroke-width="0.25" data-index="6"></path>
<path d="M 237.98 142.58 C 240.41 142.55 242.84 142.54 245.27 142.42 C 245.46 142.96 245.85 144.04 246.05 144.58 C 245.69 145.91 244.81 146.97 243.87 147.94 C 244.82 144.11 240.26 143.64 239.64 146.84 C 238.75 150.42 238.68 154.13 238.53 157.81 C 236.26 153.03 237.74 147.61 237.98 142.58 Z" fill="#ecc9ba" opacity="1.00" stroke="#ecc9ba" stroke-width="0.25" data-index="7"></path>
<path d="M 239.64 146.84 C 240.26 143.64 244.82 144.11 243.87 147.94 C 244.81 146.97 245.69 145.91 246.05 144.58 C 247.38 147.26 245.58 150.01 245.05 152.65 C 247.14 152.53 249.23 152.42 251.33 152.48 C 249.23 153.59 246.56 155.35 244.30 153.63 C 242.49 152.68 243.92 150.15 244.45 148.86 C 243.98 148.49 243.50 148.13 243.02 147.78 C 241.70 148.55 240.67 147.44 239.64 146.84 Z" fill="#110719" opacity="1.00" stroke="#110719" stroke-width="0.25" data-index="8"></path>
<path d="M 252.58 144.42 C 253.64 144.39 254.71 144.37 255.78 144.35 C 255.76 145.43 255.74 146.52 255.72 147.61 C 254.72 147.49 253.73 147.37 252.73 147.26 C 252.68 146.31 252.63 145.37 252.58 144.42 Z" fill="#110719" opacity="1.00" stroke="#110719" stroke-width="0.25" data-index="9"></path>
<path d="M 253.01 158.76 C 255.53 158.37 256.64 155.86 258.15 154.14 C 258.64 155.08 259.06 156.33 258.05 157.12 C 254.81 161.46 248.28 161.63 244.01 158.81 C 242.86 158.34 242.23 157.33 242.17 156.11 C 245.51 157.80 249.11 160.13 253.01 158.76 Z" fill="#110719" opacity="1.00" stroke="#110719" stroke-width="0.25" data-index="10"></path>
<path d="M 233.08 166.01 C 233.00 162.97 233.18 159.19 236.04 157.38 C 237.61 162.40 241.33 166.03 245.63 168.84 C 244.32 170.05 242.03 170.94 242.55 173.11 C 242.24 173.33 241.62 173.76 241.31 173.98 L 241.03 172.62 C 239.79 173.37 238.57 174.14 237.35 174.90 C 237.31 171.32 234.72 168.89 233.08 166.01 Z" fill="#5b3836" opacity="1.00" stroke="#5b3836" stroke-width="0.25" data-index="11"></path>

<path d="M 288.88 160.40 C 292.73 162.88 297.44 160.99 301.69 161.45 C 307.47 162.06 313.29 161.47 319.09 161.85 C 321.94 161.84 324.02 164.23 325.51 166.39 C 326.45 172.88 327.02 179.49 326.24 186.03 C 325.72 201.36 326.20 216.71 326.02 232.04 C 326.79 250.04 325.17 268.08 326.59 286.06 C 325.05 302.37 326.97 318.85 325.46 335.17 C 321.90 336.18 318.95 339.34 315.03 338.68 C 306.45 338.57 297.87 339.01 289.29 338.42 C 289.01 339.18 288.44 340.69 288.15 341.44 C 287.27 332.01 286.34 322.58 285.47 313.14 C 286.80 313.18 288.13 313.21 289.47 313.23 C 289.59 288.10 287.64 263.01 287.01 237.89 C 292.41 236.12 298.16 234.46 302.42 230.49 C 306.99 225.35 307.08 217.81 305.12 211.54 C 301.36 199.05 295.64 186.89 286.90 177.08 C 285.85 176.09 285.69 174.72 286.04 173.37 C 285.74 173.41 285.13 173.49 284.82 173.52 C 285.33 172.95 285.83 172.37 286.31 171.77 L 286.78 171.19 C 286.59 173.30 286.78 175.46 287.88 177.33 C 289.43 174.19 288.19 171.07 287.27 168.03 C 287.67 165.46 288.74 163.02 288.88 160.40 Z" fill="#dff6fe" opacity="1.00" stroke="#dff6fe" stroke-width="0.25" data-index="13" style="opacity: 1; visibility: hidden;"></path>
<path d="M 265.19 166.01 C 270.89 167.72 276.55 170.02 281.23 173.77 C 292.17 183.76 298.95 197.40 303.33 211.37 C 304.71 216.16 305.33 221.50 303.30 226.21 C 301.51 229.84 297.85 232.09 294.24 233.60 C 285.29 237.26 275.71 238.85 266.42 241.34 C 265.81 241.42 264.57 241.59 263.96 241.67 C 262.73 233.11 260.36 224.75 259.32 216.17 C 262.91 215.78 266.51 215.38 270.10 214.91 C 275.49 214.18 280.95 213.56 286.15 211.87 C 287.52 211.59 288.18 210.31 288.93 209.29 C 286.81 209.73 284.75 210.37 282.67 210.95 C 281.46 202.54 279.99 194.17 279.06 185.73 C 278.65 185.62 277.83 185.41 277.42 185.30 C 278.03 194.11 279.90 202.77 280.93 211.53 C 276.61 212.32 272.26 212.84 267.91 213.39 C 268.26 211.84 268.65 210.30 269.08 208.78 C 269.73 207.25 270.47 205.73 270.85 204.10 C 268.77 199.90 265.76 196.23 263.07 192.40 C 264.68 191.90 266.30 191.38 267.93 190.94 L 268.75 190.85 C 267.48 182.58 266.24 174.31 265.19 166.01 Z" fill="#ffffff" opacity="1.00" stroke="#ffffff" stroke-width="0.25" data-index="14" style="opacity: 1;"></path>
<path d="M 256.03 169.90 C 258.09 168.76 260.44 168.18 262.55 167.10 C 261.65 169.66 261.67 172.40 261.11 175.02 C 260.31 176.55 258.39 176.68 257.00 177.38 C 256.33 177.12 254.99 176.59 254.31 176.33 C 255.01 174.22 255.48 172.05 256.03 169.90 Z" fill="#ffffff" opacity="1.00" stroke="#ffffff" stroke-width="0.25" data-index="15"></path>
<path d="M 242.55 173.11 C 245.69 171.05 249.29 169.76 253.00 169.23 C 252.03 171.40 249.95 172.71 248.16 174.15 C 236.75 182.64 226.75 192.81 215.89 201.95 C 212.04 205.20 208.70 209.50 204.31 211.87 L 203.46 210.91 C 205.64 207.11 208.95 204.13 211.89 200.93 C 221.29 191.52 230.53 181.84 241.31 173.98 C 241.62 173.76 242.24 173.33 242.55 173.11 Z" fill="#f8ffff" opacity="1.00" stroke="#f8ffff" stroke-width="0.25" data-index="16" style="opacity: 1;"></path>
<path d="M 256.80 170.79 C 258.02 170.36 259.24 169.92 260.46 169.47 C 260.52 171.39 260.54 173.31 260.49 175.24 C 258.87 175.86 257.19 176.32 255.46 176.49 C 255.61 174.53 256.12 172.63 256.80 170.79 Z" fill="#fbbea1" opacity="1.00" stroke="#fbbea1" stroke-width="0.25" data-index="17"></path>
<path d="M 262.62 176.74 C 263.09 174.73 263.46 172.70 264.10 170.74 C 264.97 177.01 265.78 183.29 266.81 189.53 C 266.02 189.73 264.45 190.14 263.66 190.34 C 262.78 190.50 261.01 190.82 260.13 190.98 C 260.91 186.23 261.89 181.51 262.62 176.74 Z" fill="#f9ffff" opacity="1.00" stroke="#f9ffff" stroke-width="0.25" data-index="18"></path>
<path d="M 251.45 174.11 C 251.03 172.79 253.42 171.21 253.90 172.92 C 254.36 174.30 252.01 175.83 251.45 174.11 Z" fill="#dff6fe" opacity="1.00" stroke="#dff6fe" stroke-width="0.25" data-index="19"></path>
<path d="M 216.02 204.14 C 226.85 194.80 237.20 184.93 248.27 175.87 C 245.35 182.20 243.00 188.78 241.13 195.49 C 238.14 195.43 233.94 192.52 231.65 195.41 C 234.58 196.01 237.52 196.52 240.48 196.91 C 237.81 205.82 235.75 214.89 233.55 223.93 C 231.18 226.51 228.84 229.18 227.32 232.37 C 230.25 231.82 231.36 228.94 232.95 226.82 C 231.89 233.60 230.23 240.27 229.30 247.06 C 227.95 255.93 226.81 264.85 226.17 273.80 C 225.09 273.05 223.95 272.36 222.77 271.80 C 223.34 273.72 224.32 275.47 225.49 277.09 C 225.36 281.93 224.72 286.74 224.44 291.58 C 222.03 290.21 219.56 288.93 216.89 288.16 C 218.00 291.28 221.55 291.94 224.27 293.03 C 223.61 297.94 224.04 303.06 222.27 307.76 C 220.91 304.62 219.68 301.43 218.27 298.32 C 217.80 298.33 216.86 298.36 216.39 298.37 C 217.48 301.16 218.66 303.92 219.83 306.69 C 208.93 305.16 197.95 303.88 186.94 303.78 C 188.18 303.36 189.41 302.93 190.64 302.50 C 190.58 302.09 190.47 301.28 190.42 300.87 C 190.19 293.24 191.15 285.64 191.54 278.03 C 193.07 261.06 195.13 244.03 199.80 227.60 C 200.32 225.52 201.95 224.06 203.41 222.59 C 203.40 224.58 203.35 226.57 203.32 228.56 L 205.32 228.48 C 205.37 225.44 205.38 222.26 203.33 219.80 C 204.59 218.08 205.12 216.04 205.42 213.96 C 208.44 211.42 211.14 208.51 214.22 206.05 C 217.55 205.53 220.97 206.04 224.33 205.66 C 222.52 202.94 218.69 204.67 216.02 204.14 Z" fill="#eaf8fe" opacity="1.00" stroke="#eaf8fe" stroke-width="0.25" data-index="20" style="opacity: 1;"></path>
<path d="M 235.10 225.47 C 238.98 208.41 242.84 191.08 250.56 175.26 C 251.73 176.32 252.62 177.82 254.10 178.49 C 256.28 179.06 258.55 178.55 260.75 178.42 L 260.38 179.90 C 257.44 192.88 256.62 206.22 255.50 219.45 C 250.34 220.45 243.20 218.69 240.02 223.99 C 237.82 228.37 237.52 233.43 237.59 238.25 C 244.25 241.78 250.61 236.77 256.00 233.32 C 256.90 241.08 256.73 248.92 256.82 256.73 C 247.87 257.16 238.93 256.14 230.17 254.39 C 230.37 252.39 230.58 250.40 230.77 248.40 C 231.96 240.71 233.57 233.10 235.10 225.47 Z" fill="#7de4fc" opacity="1.00" stroke="#7de4fc" stroke-width="0.25" data-index="21" style="opacity: 1;"></path>
<path d="M 260.38 179.90 C 261.10 178.82 261.87 177.79 262.62 176.74 C 261.89 181.51 260.91 186.23 260.13 190.98 C 261.01 190.82 262.78 190.50 263.66 190.34 C 265.08 190.51 266.50 190.75 267.93 190.94 C 266.30 191.38 264.68 191.90 263.07 192.40 C 265.76 196.23 268.77 199.90 270.85 204.10 C 270.47 205.73 269.73 207.25 269.08 208.78 C 268.58 208.94 267.58 209.25 267.08 209.40 C 267.62 207.58 268.24 205.78 268.85 203.97 C 266.04 199.80 263.43 195.47 260.25 191.56 C 258.90 199.22 258.38 207.00 257.61 214.73 C 259.24 214.58 260.88 214.42 262.52 214.28 C 265.03 214.56 267.55 214.89 270.10 214.91 C 266.51 215.38 262.91 215.78 259.32 216.17 C 260.36 224.75 262.73 233.11 263.96 241.67 C 264.57 241.59 265.81 241.42 266.42 241.34 C 267.65 241.57 268.87 241.80 270.10 242.03 C 267.43 242.68 264.78 243.43 262.18 244.31 C 260.87 242.16 259.73 239.90 258.36 237.78 C 258.69 260.52 259.00 283.27 259.38 306.01 C 264.34 307.64 269.33 309.20 274.45 310.29 C 272.93 310.48 271.42 310.75 269.91 310.95 C 265.69 310.03 261.62 308.56 257.56 307.13 C 257.36 290.90 257.36 274.66 256.86 258.43 C 247.79 258.88 238.72 258.03 229.86 256.08 C 225.63 291.91 223.33 327.93 220.38 363.87 C 220.21 366.13 220.15 368.39 220.10 370.66 C 221.15 370.68 223.24 370.74 224.29 370.76 C 224.26 371.22 224.20 372.13 224.17 372.59 C 222.23 372.96 220.19 372.49 218.38 371.80 C 218.33 359.89 220.15 348.04 220.73 336.16 C 221.49 329.02 222.03 321.86 222.64 314.71 C 214.78 312.82 207.19 310.05 199.69 307.07 C 195.05 305.09 189.90 305.68 185.00 305.68 C 184.64 305.69 183.94 305.70 183.59 305.71 C 184.71 305.07 185.83 304.43 186.94 303.78 C 197.95 303.88 208.93 305.16 219.83 306.69 C 218.66 303.92 217.48 301.16 216.39 298.37 C 216.86 298.36 217.80 298.33 218.27 298.32 C 219.68 301.43 220.91 304.62 222.27 307.76 C 224.04 303.06 223.61 297.94 224.27 293.03 C 221.55 291.94 218.00 291.28 216.89 288.16 C 219.56 288.93 222.03 290.21 224.44 291.58 C 224.72 286.74 225.36 281.93 225.49 277.09 C 224.32 275.47 223.34 273.72 222.77 271.80 C 223.95 272.36 225.09 273.05 226.17 273.80 C 226.81 264.85 227.95 255.93 229.30 247.06 L 230.77 248.40 C 230.58 250.40 230.37 252.39 230.17 254.39 C 238.93 256.14 247.87 257.16 256.82 256.73 C 256.73 248.92 256.90 241.08 256.00 233.32 C 250.61 236.77 244.25 241.78 237.59 238.25 C 237.52 233.43 237.82 228.37 240.02 223.99 C 243.20 218.69 250.34 220.45 255.50 219.45 C 256.62 206.22 257.44 192.88 260.38 179.90 Z" fill="#052343" opacity="1.00" stroke="#052343" stroke-width="0.25" data-index="22" style="opacity: 1;"></path>
<path d="M 277.42 185.30 C 277.83 185.41 278.65 185.62 279.06 185.73 C 279.99 194.17 281.46 202.54 282.67 210.95 C 284.75 210.37 286.81 209.73 288.93 209.29 C 288.18 210.31 287.52 211.59 286.15 211.87 C 280.95 213.56 275.49 214.18 270.10 214.91 C 267.55 214.89 265.03 214.56 262.52 214.28 C 263.36 214.11 265.06 213.75 265.91 213.57 C 266.28 212.17 266.63 210.77 267.08 209.40 C 267.58 209.25 268.58 208.94 269.08 208.78 C 268.65 210.30 268.26 211.84 267.91 213.39 C 272.26 212.84 276.61 212.32 280.93 211.53 C 279.90 202.77 278.03 194.11 277.42 185.30 Z" fill="#0a192b" opacity="1.00" stroke="#0a192b" stroke-width="0.25" data-index="23" style="opacity: 1;"></path>
<path d="M 260.25 191.56 C 263.43 195.47 266.04 199.80 268.85 203.97 C 268.24 205.78 267.62 207.58 267.08 209.40 C 266.63 210.77 266.28 212.17 265.91 213.57 C 265.06 213.75 263.36 214.11 262.52 214.28 C 260.88 214.42 259.24 214.58 257.61 214.73 C 258.38 207.00 258.90 199.22 260.25 191.56 Z" fill="#feffff" opacity="1.00" stroke="#feffff" stroke-width="0.25" data-index="24" style="opacity: 1;"></path>
<path d="M 231.30 199.14 C 232.51 199.78 233.67 200.52 234.83 201.27 C 234.72 201.90 234.49 203.14 234.38 203.76 C 233.04 202.44 231.70 201.04 231.30 199.14 Z" fill="#0a192b" opacity="1.00" stroke="#0a192b" stroke-width="0.25" data-index="25"></path>
<path d="M 196.75 209.33 C 198.92 209.78 201.51 210.15 202.69 212.31 C 204.31 214.28 203.71 217.39 201.33 218.42 C 201.63 220.16 202.00 222.18 200.57 223.57 C 198.66 225.64 195.06 224.39 194.18 221.92 C 192.60 217.72 192.98 212.28 196.75 209.33 Z" fill="#fcbc9f" opacity="1.00" stroke="#fcbc9f" stroke-width="0.25" data-index="26" style="opacity: 1;"></path>
<path d="M 207.30 218.10 C 209.65 215.72 212.05 213.38 214.51 211.12 C 214.84 212.39 214.54 213.61 213.46 214.41 C 211.53 216.39 209.52 218.32 207.27 219.95 C 207.28 219.49 207.30 218.56 207.30 218.10 Z" fill="#0a192b" opacity="1.00" stroke="#0a192b" stroke-width="0.25" data-index="27"></path>
<path d="M 224.03 211.65 C 227.21 210.94 230.34 212.27 233.46 212.71 C 233.50 213.15 233.56 214.04 233.59 214.48 C 230.33 213.91 226.66 213.91 224.03 211.65 Z" fill="#092136" opacity="1.00" stroke="#092136" stroke-width="0.25" data-index="28"></path>
<path d="M 213.30 223.88 C 215.70 221.01 220.22 221.65 223.58 220.64 C 223.71 220.98 223.98 221.65 224.11 221.99 C 220.78 223.41 216.91 223.62 213.30 223.88 Z" fill="#092136" opacity="1.00" stroke="#092136" stroke-width="0.25" data-index="29"></path>
<path d="M 241.69 223.98 C 246.61 220.93 252.73 221.34 258.30 221.30 C 258.80 224.27 259.37 227.23 259.68 230.23 C 253.74 230.23 250.65 236.58 244.93 237.37 C 243.03 237.59 239.53 238.74 239.19 235.89 C 239.31 231.81 240.13 227.76 241.69 223.98 Z" fill="#fcbc9e" opacity="1.00" stroke="#fcbc9e" stroke-width="0.25" data-index="30"></path>
<path d="M 186.63 267.05 C 187.48 252.86 190.46 238.87 194.55 225.28 C 195.77 225.87 197.00 226.44 198.23 227.01 C 191.31 250.82 189.86 275.79 188.41 300.42 C 188.91 300.53 189.92 300.76 190.42 300.87 C 190.47 301.28 190.58 302.09 190.64 302.50 C 189.41 302.93 188.18 303.36 186.94 303.78 L 185.30 304.30 C 185.02 291.87 186.01 279.46 186.63 267.05 Z" fill="#f9feff" opacity="1.00" stroke="#f9feff" stroke-width="0.25" data-index="31" style="opacity: 1;"></path>
<path d="M 210.13 231.60 C 213.03 231.35 215.84 232.38 218.45 233.52 C 218.60 233.83 218.90 234.46 219.05 234.77 C 215.99 234.23 212.28 234.19 210.13 231.60 Z" fill="#0a192b" opacity="1.00" stroke="#0a192b" stroke-width="0.25" data-index="32"></path>
<path d="M 204.16 237.59 C 204.63 237.46 205.58 237.19 206.05 237.05 C 212.95 244.31 218.48 252.77 225.39 259.99 C 225.11 261.67 224.79 263.34 224.46 265.01 C 222.44 264.43 223.25 262.45 223.41 260.92 C 217.14 253.02 211.04 244.97 204.16 237.59 Z" fill="#06172d" opacity="1.00" stroke="#06172d" stroke-width="0.25" data-index="33"></path>
<path d="M 258.36 237.78 C 259.73 239.90 260.87 242.16 262.18 244.31 C 264.78 243.43 267.43 242.68 270.10 242.03 C 275.18 240.95 280.21 239.70 285.27 238.55 C 286.27 262.91 287.27 287.27 288.12 311.63 C 283.52 311.63 278.97 311.05 274.45 310.29 C 269.33 309.20 264.34 307.64 259.38 306.01 C 259.00 283.27 258.69 260.52 258.36 237.78 Z" fill="#feffff" opacity="1.00" stroke="#feffff" stroke-width="0.25" data-index="34" style="opacity: 1;"></path>
<path d="M 202.96 250.29 C 201.02 252.06 196.34 251.25 196.25 248.31 C 198.51 248.85 200.79 249.42 202.96 250.29 Z" fill="#06172d" opacity="1.00" stroke="#06172d" stroke-width="0.25" data-index="35" style="opacity: 1;"></path>
<path d="M 229.86 256.08 C 238.72 258.03 247.79 258.88 256.86 258.43 C 257.36 274.66 257.36 290.90 257.56 307.13 C 261.62 308.56 265.69 310.03 269.91 310.95 C 272.66 311.57 275.43 312.16 278.23 312.51 C 279.35 333.21 280.90 353.88 281.74 374.59 C 276.03 374.78 270.31 374.64 264.60 374.48 C 262.50 374.20 260.42 373.83 258.33 373.50 C 255.85 339.08 253.49 304.65 251.38 270.21 C 250.88 270.20 249.90 270.18 249.40 270.16 C 250.60 286.78 251.51 303.41 252.89 320.01 C 252.36 330.58 252.60 341.18 252.59 351.76 C 252.58 358.99 252.68 366.22 252.44 373.44 C 245.26 373.01 238.07 372.56 230.93 371.73 C 229.22 371.55 227.47 371.40 225.81 371.92 C 225.55 372.09 225.03 372.45 224.77 372.62 L 224.17 372.59 C 224.20 372.13 224.26 371.22 224.29 370.76 C 223.24 370.74 221.15 370.68 220.10 370.66 C 220.15 368.39 220.21 366.13 220.38 363.87 C 223.33 327.93 225.63 291.91 229.86 256.08 Z" fill="#7ce4fd" opacity="1.00" stroke="#7ce4fd" stroke-width="0.25" data-index="36" style="opacity: 1;"></path>
<path d="M 207.39 259.12 C 210.71 261.38 213.66 264.33 215.95 267.64 C 213.55 268.02 212.32 265.80 210.84 264.40 C 209.45 262.80 207.33 261.48 207.39 259.12 Z" fill="#0a192b" opacity="1.00" stroke="#0a192b" stroke-width="0.25" data-index="37"></path>
<path d="M 195.29 266.98 C 197.12 265.89 198.93 264.75 200.91 263.92 C 201.13 264.20 201.57 264.75 201.80 265.03 C 200.10 266.28 198.26 267.30 196.51 268.45 C 196.10 267.96 195.69 267.47 195.29 266.98 Z" fill="#0a192b" opacity="1.00" stroke="#0a192b" stroke-width="0.25" data-index="38" style="opacity: 1;"></path>
<path d="M 249.40 270.16 C 249.90 270.18 250.88 270.20 251.38 270.21 C 253.49 304.65 255.85 339.08 258.33 373.50 C 260.42 373.83 262.50 374.20 264.60 374.48 C 264.12 374.85 263.16 375.60 262.68 375.97 C 260.71 375.75 258.72 375.62 256.80 375.16 C 255.72 368.45 256.17 361.57 255.14 354.85 C 254.54 351.75 254.68 348.58 254.53 345.45 C 254.02 347.66 254.24 349.94 254.25 352.19 L 252.59 351.76 C 252.60 341.18 252.36 330.58 252.89 320.01 C 251.51 303.41 250.60 286.78 249.40 270.16 Z" fill="#002a48" opacity="1.00" stroke="#002a48" stroke-width="0.25" data-index="39" style="opacity: 1;"></path>
<path d="M 203.47 276.78 C 208.05 277.03 212.71 276.81 217.21 277.73 C 217.99 278.87 216.54 279.32 215.65 279.16 C 211.58 278.76 207.49 278.67 203.41 278.57 C 203.43 278.12 203.46 277.23 203.47 276.78 Z" fill="#162434" opacity="1.00" stroke="#162434" stroke-width="0.25" data-index="40"></path>
<path d="M 192.91 290.46 C 195.73 287.97 199.87 289.56 203.20 289.95 C 203.39 290.38 203.77 291.22 203.96 291.65 C 200.29 291.16 196.59 290.89 192.91 290.46 Z" fill="#06172d" opacity="1.00" stroke="#06172d" stroke-width="0.25" data-index="41"></path>
<path d="M 199.02 301.58 C 199.90 299.59 202.25 300.28 203.99 300.18 C 205.92 300.17 207.87 300.34 209.70 301.00 C 209.43 301.33 208.89 302.00 208.62 302.33 C 205.43 301.91 202.21 301.90 199.02 301.58 Z" fill="#092136" opacity="1.00" stroke="#092136" stroke-width="0.25" data-index="42"></path>

<path d="M 278.23 312.51 C 280.63 312.80 283.05 313.00 285.47 313.14 C 286.34 322.58 287.27 332.01 288.15 341.44 C 289.14 352.48 290.56 363.49 290.85 374.57 C 287.81 374.94 284.78 375.38 281.80 376.05 C 283.25 379.51 284.91 382.89 286.88 386.10 C 287.66 387.93 288.78 389.93 288.24 391.99 C 286.58 394.18 283.57 393.62 281.21 393.40 C 275.23 392.31 268.61 390.27 265.15 384.87 C 264.68 382.00 264.46 379.10 264.07 376.23 L 262.68 375.97 C 263.16 375.60 264.12 374.85 264.60 374.48 C 270.31 374.64 276.03 374.78 281.74 374.59 C 280.90 353.88 279.35 333.21 278.23 312.51 Z" fill="#042447" opacity="1.00" stroke="#042447" stroke-width="0.25" data-index="44" style="opacity: 1;"></path>

<path d="M 252.59 351.76 L 254.25 352.19 C 254.43 359.84 254.35 367.50 254.26 375.15 C 251.76 375.12 249.25 375.10 246.75 375.10 C 246.72 378.64 246.70 382.19 246.63 385.74 C 241.79 387.06 236.74 387.25 231.83 388.20 C 223.91 389.29 215.99 391.01 207.95 390.63 C 208.24 389.47 208.33 388.28 208.67 387.14 C 214.28 381.42 222.04 378.66 228.12 373.60 C 227.28 373.36 225.61 372.87 224.77 372.62 C 225.03 372.45 225.55 372.09 225.81 371.92 C 227.47 371.40 229.22 371.55 230.93 371.73 C 238.07 372.56 245.26 373.01 252.44 373.44 C 252.68 366.22 252.58 358.99 252.59 351.76 Z" fill="#092136" opacity="1.00" stroke="#092136" stroke-width="0.25" data-index="46" style="opacity: 1;"></path>
<path d="M 224.51 378.50 C 226.69 377.23 228.60 375.44 230.97 374.54 C 235.55 375.08 240.14 375.64 244.76 375.26 C 244.80 378.35 244.82 381.45 244.71 384.55 C 243.10 384.72 241.49 384.90 239.88 385.10 C 241.35 384.68 242.80 384.21 244.26 383.76 C 244.36 381.18 244.32 378.59 244.13 376.01 C 238.72 376.02 232.40 373.68 227.77 377.50 C 223.17 380.92 217.92 383.28 212.96 386.12 C 216.26 382.83 220.70 381.08 224.51 378.50 Z" fill="#ffffff" opacity="1.00" stroke="#ffffff" stroke-width="0.25" data-index="47" style="opacity: 1;"></path>
<path d="M 227.77 377.50 C 232.40 373.68 238.72 376.02 244.13 376.01 C 244.32 378.59 244.36 381.18 244.26 383.76 C 242.80 384.21 241.35 384.68 239.88 385.10 C 231.85 386.51 223.75 388.06 215.61 388.46 C 214.22 388.03 212.88 387.49 211.51 387.03 C 211.87 386.80 212.60 386.34 212.96 386.12 C 217.92 383.28 223.17 380.92 227.77 377.50 Z" fill="#febe9f" opacity="1.00" stroke="#febe9f" stroke-width="0.25" data-index="48" style="opacity: 1;"></path>
<path d="M 265.84 376.40 C 270.57 376.49 275.30 376.49 280.03 376.50 C 281.82 381.80 285.72 386.22 286.86 391.72 C 280.05 391.94 272.69 390.25 267.67 385.40 C 265.86 382.81 266.56 379.36 265.84 376.40 Z" fill="#febea0" opacity="1.00" stroke="#febea0" stroke-width="0.25" data-index="49"></path>

<path d="M 210.35 388.64 C 210.13 387.70 210.52 387.17 211.51 387.03 C 212.88 387.49 214.22 388.03 215.61 388.46 L 215.64 388.67 C 213.97 389.05 211.92 389.49 210.35 388.64 Z" fill="#bfabb0" opacity="1.00" stroke="#bfabb0" stroke-width="0.25" data-index="51"></path>
</svg>