<svg xmlns="http://www.w3.org/2000/svg" height="512pt" version="1.1" viewBox="0 0 512 512" width="512pt">

<path d="M 289.61 57.69 C 291.13 56.00 293.84 55.93 295.50 57.45 C 307.62 66.66 319.59 76.06 331.64 85.36 C 333.72 86.63 334.48 89.19 333.51 91.42 C 330.67 94.55 326.33 96.36 324.57 100.41 C 321.77 108.42 330.26 117.77 338.50 114.63 C 344.56 113.30 343.74 105.46 348.41 102.57 C 351.24 101.10 353.89 103.25 355.93 105.02 C 364.12 112.53 372.58 119.74 380.95 127.04 C 383.08 128.72 382.20 131.84 380.91 133.77 C 375.50 141.35 369.79 148.71 364.19 156.14 C 362.63 158.12 360.89 160.69 358.06 160.61 C 354.55 160.92 352.57 157.57 350.78 155.13 C 347.88 151.19 344.32 146.75 339.08 146.27 C 334.63 145.57 330.38 149.56 330.45 153.97 C 330.26 157.33 331.38 160.73 333.87 163.06 C 337.05 166.87 341.81 168.56 345.87 171.16 C 348.70 172.76 348.27 177.04 346.29 179.19 C 339.89 187.82 332.96 196.02 326.42 204.53 C 324.83 206.44 322.96 208.98 320.09 208.21 C 316.94 207.03 314.63 204.45 312.09 202.36 C 310.45 210.54 307.78 218.58 307.31 226.95 C 313.04 226.11 318.09 222.35 324.03 222.67 C 326.59 222.59 328.74 224.19 330.87 225.38 C 337.24 222.68 345.45 223.34 350.05 228.97 C 354.82 235.21 353.74 243.57 355.72 250.75 C 356.67 252.65 358.64 250.53 359.73 249.85 C 369.21 241.94 378.11 233.33 387.83 225.71 C 391.56 223.75 394.87 227.15 397.33 229.57 C 404.99 237.66 412.69 245.76 419.53 254.58 C 421.76 256.74 421.58 259.77 420.53 262.45 C 415.69 265.08 409.13 263.91 405.37 268.43 C 399.78 273.92 403.17 284.02 409.89 286.92 C 414.30 288.91 420.18 288.36 423.46 284.55 C 426.27 281.49 427.85 276.84 432.10 275.42 C 435.00 274.54 437.06 277.03 438.54 279.11 C 444.41 287.89 450.88 296.27 456.60 305.16 C 458.06 307.16 458.17 310.32 456.08 311.94 C 449.99 317.26 443.50 322.11 437.24 327.23 C 435.07 329.02 432.52 330.50 430.90 332.87 C 434.07 335.80 439.14 336.38 441.25 340.50 C 447.23 351.90 437.95 368.13 424.95 368.47 C 420.53 368.74 415.88 367.43 412.69 364.26 C 410.46 362.01 408.88 359.23 407.10 356.64 C 397.73 367.51 389.13 379.03 380.38 390.39 C 372.88 398.53 364.87 406.18 357.01 413.97 C 355.00 416.00 352.07 417.74 349.14 416.66 C 346.27 415.66 345.70 412.25 344.40 409.87 C 342.50 405.56 340.38 400.02 335.06 399.20 C 328.07 397.60 320.84 403.77 321.54 410.96 C 321.47 417.08 327.37 420.38 331.98 423.05 C 335.02 424.55 337.60 428.01 336.50 431.53 C 334.85 434.97 331.48 437.09 328.77 439.62 C 322.44 445.43 316.08 451.19 309.77 457.01 C 308.28 458.68 306.05 458.69 303.99 458.70 C 295.27 449.25 287.82 438.68 278.97 429.34 C 278.56 429.44 277.74 429.64 277.33 429.75 C 274.54 434.49 272.32 441.05 266.05 441.96 C 252.60 443.92 238.77 432.58 237.81 419.03 C 237.65 414.05 239.74 408.73 244.00 405.90 C 246.50 404.10 249.53 403.31 252.46 402.49 C 244.74 393.51 237.25 384.34 229.52 375.36 C 227.66 373.64 227.81 370.47 229.88 368.98 C 237.58 361.60 245.52 354.47 253.64 347.56 C 256.14 345.24 260.32 344.43 262.97 346.97 C 265.79 350.47 266.44 355.21 269.22 358.76 C 271.39 361.86 275.08 363.90 278.93 363.57 C 286.09 363.43 291.86 355.41 289.17 348.61 C 286.45 342.55 278.56 342.23 274.74 337.22 C 272.38 334.17 273.68 329.71 276.46 327.39 C 283.84 320.37 291.44 313.58 298.93 306.66 C 291.26 306.37 283.57 306.62 275.93 305.83 C 270.61 305.52 264.99 305.41 260.34 302.48 C 258.63 297.37 262.42 292.88 263.11 287.96 C 264.25 281.87 261.78 274.10 255.27 272.24 C 249.43 270.05 243.33 274.50 241.55 279.98 C 240.69 285.91 241.69 291.98 240.62 297.90 C 240.32 300.63 237.25 301.66 234.90 301.70 C 227.58 302.07 220.35 300.45 213.17 299.21 C 206.55 297.76 199.72 296.93 193.42 294.33 C 193.26 291.73 193.23 289.10 193.87 286.56 C 197.46 270.58 200.97 254.57 204.45 238.56 C 200.69 239.26 197.18 240.83 193.92 242.80 C 190.24 244.97 185.40 246.79 181.39 244.35 C 176.20 241.16 174.92 234.60 174.55 228.99 C 174.07 216.42 178.30 202.68 188.55 194.76 C 183.99 193.76 180.41 190.69 178.02 186.79 C 174.40 198.29 169.78 209.43 165.75 220.79 C 164.84 223.05 164.14 225.53 162.49 227.39 C 160.77 227.94 158.89 227.57 157.24 226.93 C 148.09 223.13 139.22 218.70 130.19 214.64 C 126.69 212.90 122.81 211.51 120.34 208.30 C 120.55 202.24 125.03 197.96 128.37 193.39 C 132.05 188.43 132.17 180.05 126.58 176.44 C 121.83 173.24 114.94 175.39 112.29 180.29 C 109.81 185.65 109.78 191.79 107.38 197.16 C 105.88 200.77 101.20 199.88 98.40 198.49 C 88.38 193.40 78.65 187.72 69.05 181.88 C 66.34 180.72 65.72 177.64 66.99 175.16 C 72.67 163.11 78.55 151.16 84.41 139.20 C 93.62 121.00 101.96 102.38 111.01 84.10 C 112.89 80.34 114.43 76.35 116.89 72.91 C 118.39 71.14 121.04 71.98 122.95 72.48 C 129.35 74.61 135.36 77.73 141.50 80.51 C 146.10 82.82 151.07 84.71 154.76 88.44 C 155.53 95.17 149.11 98.86 145.93 103.84 C 143.28 108.30 142.17 114.86 146.07 118.94 C 150.37 122.91 157.46 120.91 160.60 116.46 C 163.81 111.88 163.76 105.96 166.10 101.01 C 167.02 99.08 169.02 98.21 170.89 97.47 C 181.63 102.23 191.53 108.67 202.01 113.97 C 204.80 115.46 208.03 116.65 209.57 119.65 C 206.40 128.73 200.91 136.77 197.61 145.80 C 203.13 145.75 209.35 145.33 213.98 148.90 C 218.77 152.73 219.40 159.34 219.45 165.03 C 226.37 165.35 233.27 165.95 240.16 166.64 C 244.43 162.95 249.21 159.93 253.56 156.35 C 253.39 155.38 252.39 154.93 251.76 154.32 C 243.67 148.37 235.39 142.67 227.41 136.58 C 224.80 134.95 225.38 131.42 227.29 129.47 C 232.50 123.28 238.21 117.50 243.20 111.12 C 247.11 106.66 250.15 101.46 254.50 97.40 C 256.18 95.70 259.10 95.35 260.98 96.93 C 264.38 99.69 265.81 104.10 269.00 107.07 C 273.37 111.97 282.17 112.60 286.49 107.29 C 288.60 102.44 288.78 96.10 284.66 92.24 C 281.25 88.31 275.63 88.25 271.49 85.56 C 268.50 83.83 268.61 79.42 271.05 77.27 C 277.10 70.62 283.00 63.79 289.61 57.69 Z" fill="#143b56" opacity="1.00" stroke="#143b56" stroke-width="0.25" data-index="1"></path>
<path d="M 274.19 80.32 C 280.24 73.73 286.31 67.15 292.75 60.94 C 304.89 70.39 317.03 79.83 329.31 89.09 C 326.71 91.49 323.79 93.62 321.70 96.52 C 317.43 103.31 320.43 112.93 326.88 117.22 C 332.05 120.84 339.63 120.43 344.39 116.31 C 347.15 113.81 348.40 110.17 349.86 106.85 C 351.26 107.52 352.78 108.02 353.90 109.15 C 361.78 116.19 369.56 123.33 377.70 130.05 C 372.78 137.87 366.94 145.04 361.53 152.52 C 360.34 153.93 359.30 155.96 357.20 155.98 C 353.43 152.29 351.20 147.11 346.53 144.34 C 342.03 141.22 335.67 140.78 331.14 144.09 C 325.99 147.78 325.22 155.21 327.23 160.82 C 330.03 168.04 337.50 171.53 343.79 175.14 C 336.40 184.90 328.77 194.47 321.02 203.95 C 311.84 196.49 302.68 189.01 293.55 181.49 C 291.71 179.89 289.20 178.80 286.77 179.64 C 285.10 180.92 285.53 183.17 285.37 184.99 C 285.36 191.40 283.86 197.74 281.69 203.74 C 280.04 208.44 274.35 209.77 269.91 209.21 C 261.34 208.13 253.97 202.91 247.69 197.28 C 242.93 192.42 237.93 186.92 236.91 179.93 C 236.34 177.18 237.95 174.66 239.82 172.81 C 244.90 167.71 251.20 164.09 256.83 159.68 C 258.55 158.61 258.44 156.50 258.69 154.74 C 250.05 146.42 239.65 140.21 230.00 133.14 C 236.71 125.18 244.06 117.76 250.27 109.38 C 252.72 106.16 255.13 102.88 257.98 99.99 C 261.87 104.46 264.59 110.14 269.82 113.27 C 276.05 117.17 285.63 116.18 289.72 109.65 C 293.83 103.93 293.21 95.66 288.78 90.30 C 285.41 85.59 279.53 84.02 274.34 82.25 C 274.30 81.76 274.22 80.80 274.19 80.32 Z" fill="#59dffe" opacity="1.00" stroke="#59dffe" stroke-width="0.25" data-index="2"></path>
<path d="M 119.87 76.31 C 128.69 79.46 137.12 83.59 145.55 87.65 C 147.44 88.71 150.60 89.78 149.51 92.58 C 146.56 96.96 141.77 100.11 140.14 105.37 C 138.33 111.46 138.70 119.50 144.51 123.37 C 151.66 128.69 162.21 124.33 165.87 116.84 C 167.85 112.51 168.55 107.75 169.77 103.18 C 174.39 103.25 178.06 106.30 181.99 108.31 C 189.42 112.60 197.22 116.24 204.52 120.76 C 202.53 124.49 200.73 128.33 198.89 132.14 C 196.34 137.69 192.19 143.01 193.31 149.50 C 199.04 151.97 206.22 148.24 211.17 152.79 C 215.71 156.32 214.76 162.59 214.47 167.62 C 212.86 175.58 208.17 182.94 201.50 187.61 C 197.31 190.95 191.21 191.38 186.41 189.18 C 183.12 187.33 181.91 183.50 180.23 180.36 C 178.78 180.32 177.33 180.29 175.89 180.26 C 170.42 194.38 165.51 208.71 160.04 222.83 C 158.19 222.17 156.32 221.55 154.52 220.76 C 144.76 216.11 134.84 211.81 125.08 207.14 C 126.38 201.91 130.67 198.36 133.33 193.88 C 135.89 188.85 136.57 182.45 133.52 177.46 C 129.59 170.17 118.67 167.78 112.43 173.48 C 105.86 178.43 105.74 187.31 104.04 194.63 C 102.64 194.48 101.16 194.62 99.86 194.00 C 89.91 189.27 80.58 183.39 71.09 177.82 C 73.81 170.51 77.80 163.78 81.00 156.68 C 94.38 130.09 106.83 103.06 119.87 76.31 Z" fill="#f85f36" opacity="1.00" stroke="#f85f36" stroke-width="0.25" data-index="3"></path>
<path d="M 218.86 169.55 C 224.50 169.87 230.12 170.64 235.78 170.71 C 233.22 174.23 231.40 178.59 232.93 182.95 C 236.34 193.38 244.56 201.54 253.57 207.43 C 259.10 210.84 265.31 213.91 271.99 213.65 C 277.86 213.88 284.14 210.46 286.13 204.74 C 288.53 198.39 289.80 191.62 289.88 184.83 C 296.29 188.93 301.56 194.51 307.69 198.98 C 307.56 200.33 307.43 201.68 307.29 203.04 C 305.56 209.97 303.95 216.94 302.84 224.00 C 302.30 226.18 303.28 228.28 303.75 230.38 C 306.08 230.84 308.50 231.85 310.87 231.02 C 316.05 229.59 321.29 225.76 326.80 227.96 C 330.43 231.07 331.29 236.39 331.48 240.96 C 331.31 248.03 329.97 255.62 325.38 261.25 C 323.52 263.74 320.23 264.27 317.38 263.42 C 312.81 262.02 308.85 259.18 305.08 256.33 C 302.85 256.84 300.43 258.34 300.56 260.95 C 300.08 271.63 300.82 282.33 300.74 293.02 C 300.68 295.91 300.96 298.78 301.32 301.65 C 293.89 302.93 286.41 301.41 278.94 301.56 C 273.99 301.69 269.12 300.74 264.26 299.99 C 266.75 292.18 269.95 283.21 265.50 275.46 C 261.33 266.42 247.62 264.28 241.18 272.05 C 234.94 278.72 236.76 288.30 236.47 296.59 C 234.65 296.95 232.81 297.45 230.95 297.18 C 219.88 295.83 208.93 293.76 198.05 291.37 C 198.27 285.87 199.92 280.60 201.13 275.28 C 202.76 267.81 204.50 260.36 206.09 252.88 C 207.01 248.24 208.70 243.70 208.79 238.92 C 208.99 237.05 207.51 235.73 206.48 234.38 C 200.36 233.63 195.15 237.16 189.92 239.69 C 187.49 240.97 183.90 241.48 181.96 239.09 C 179.16 235.72 179.31 231.06 179.18 226.93 C 178.80 217.80 181.78 208.46 187.64 201.42 C 190.04 198.74 193.14 195.88 197.01 196.25 C 202.72 196.87 203.72 206.04 210.11 204.56 C 211.55 197.93 212.64 191.24 213.80 184.56 C 214.54 179.25 218.11 174.88 218.86 169.55 Z" fill="#ffc11e" opacity="1.00" stroke="#ffc11e" stroke-width="0.25" data-index="4"></path>
<path d="M 201.15 192.93 C 203.96 191.51 206.51 189.63 208.61 187.27 C 208.04 190.84 207.45 194.40 206.68 197.94 C 205.03 196.06 203.21 194.34 201.15 192.93 Z" fill="#ffffff" opacity="1.00" stroke="#ffffff" stroke-width="0.25" data-index="5"></path>
<path d="M 334.08 254.34 C 336.85 246.04 335.99 237.10 334.29 228.67 C 338.47 228.21 343.34 228.20 346.28 231.75 C 352.10 238.53 347.99 248.76 353.48 255.71 C 356.35 255.70 359.66 256.24 361.90 253.98 C 370.72 246.45 379.41 238.77 388.12 231.11 C 389.04 230.37 390.30 230.44 391.39 230.12 C 397.23 236.10 403.25 241.93 408.65 248.32 C 411.57 251.84 415.02 255.01 416.97 259.24 C 412.01 260.45 406.16 260.44 402.56 264.61 C 397.19 270.38 396.84 279.93 401.80 286.06 C 406.48 292.24 415.69 294.47 422.64 290.98 C 427.08 288.32 429.70 283.68 433.01 279.86 C 437.96 285.69 441.99 292.22 446.55 298.35 C 448.90 301.70 451.49 304.96 452.90 308.85 C 444.20 316.28 434.68 322.75 426.42 330.67 C 426.41 332.23 426.40 333.79 426.39 335.35 C 429.68 338.26 434.19 339.42 437.29 342.53 C 440.98 349.51 436.75 358.10 430.65 362.21 C 428.58 363.30 426.24 363.68 423.99 364.24 C 421.61 363.67 419.09 363.34 416.99 362.02 C 413.66 359.61 412.40 355.45 409.66 352.53 C 408.02 352.11 406.31 352.40 404.64 352.40 C 395.71 362.84 387.41 373.79 379.06 384.69 C 373.22 377.94 367.10 371.44 361.44 364.54 C 360.05 362.81 359.06 360.80 358.03 358.84 C 363.79 356.99 371.48 357.84 375.23 352.21 C 378.92 345.83 377.00 338.05 374.47 331.61 C 369.86 320.03 359.38 310.63 346.92 308.63 C 344.83 309.00 342.74 309.33 340.63 309.55 C 334.55 313.70 332.70 321.13 330.11 327.58 C 329.26 327.58 328.41 327.58 327.57 327.59 C 320.33 320.43 313.08 313.26 306.22 305.73 C 317.43 296.33 329.06 287.40 339.60 277.21 C 339.48 274.58 340.35 271.07 337.46 269.59 C 333.43 267.35 328.53 267.84 324.08 267.51 C 329.38 265.12 332.35 259.63 334.08 254.34 Z" fill="#f85f36" opacity="1.00" stroke="#f85f36" stroke-width="0.25" data-index="6"></path>

<path d="M 305.70 300.30 C 305.76 287.65 304.84 275.01 305.24 262.36 C 306.56 263.18 307.89 264.01 309.24 264.82 C 310.34 267.37 311.43 270.52 314.33 271.51 C 320.98 273.68 328.15 271.62 334.87 273.31 C 335.24 275.41 333.10 276.56 331.94 277.96 C 323.60 285.86 314.56 293.00 305.70 300.30 Z" fill="#ffffff" opacity="1.00" stroke="#ffffff" stroke-width="0.25" data-index="8"></path>

<path d="M 286.31 324.29 C 291.77 319.07 297.42 314.05 303.11 309.08 C 309.00 315.13 314.89 321.17 320.66 327.34 C 323.04 329.96 325.96 331.99 329.05 333.69 C 337.99 330.41 334.91 317.39 343.38 313.67 C 348.87 312.30 354.21 315.29 358.61 318.27 C 366.19 323.51 371.05 332.14 372.50 341.15 C 372.81 344.52 373.27 348.79 370.15 351.06 C 365.48 353.80 359.38 352.75 354.86 355.82 C 352.30 357.43 353.04 361.09 354.74 363.07 C 361.34 371.81 369.09 379.61 376.00 388.08 C 375.26 389.54 374.06 390.69 372.93 391.85 C 365.77 399.08 358.72 406.45 350.98 413.07 C 347.71 407.70 346.17 400.98 341.04 396.96 C 333.83 391.68 322.65 395.24 318.92 403.10 C 315.32 409.99 317.64 419.56 324.44 423.56 C 327.44 425.34 330.47 427.16 332.78 429.83 C 323.87 438.01 315.17 446.45 305.97 454.31 C 298.37 445.74 291.42 436.63 283.91 427.99 C 282.13 426.04 279.82 423.86 276.92 424.50 C 271.33 427.09 271.60 435.36 265.65 437.50 C 255.71 438.83 245.76 431.65 242.76 422.26 C 241.70 418.20 242.18 413.36 245.42 410.38 C 248.47 406.98 253.47 407.51 257.53 406.42 C 257.54 404.42 258.17 402.09 256.51 400.55 C 248.79 391.23 240.95 382.00 233.10 372.80 C 233.63 370.67 235.89 369.66 237.31 368.19 C 243.94 362.20 250.18 355.71 257.40 350.42 C 260.30 348.83 261.30 352.88 262.27 354.77 C 264.69 361.42 270.20 368.24 277.95 367.93 C 288.31 368.66 297.04 357.12 293.46 347.37 C 290.99 341.01 284.21 338.34 278.56 335.53 C 278.31 334.90 277.83 333.64 277.59 333.00 C 280.03 329.66 283.24 327.03 286.31 324.29 Z" fill="#59dffe" opacity="1.00" stroke="#59dffe" stroke-width="0.25" data-index="10"></path>
</svg>