<svg xmlns="http://www.w3.org/2000/svg" height="512pt" version="1.1" viewBox="0 0 512 512" width="512pt">
<path d="M 0.00 0.00 L 512.00 0.00 L 512.00 512.00 L 0.00 512.00 L 0.00 0.00 Z" fill="transparent" opacity="1.00" stroke="transparent" stroke-width="0.25" data-index="0" style="opacity: 1;"></path>
<path d="M 253.20 60.15 C 262.88 54.39 276.33 53.29 285.68 60.31 C 288.97 62.43 290.70 66.07 293.27 68.88 C 296.47 70.15 300.08 70.84 302.64 73.34 C 311.53 81.60 316.37 93.96 315.71 106.06 C 315.26 119.69 311.13 133.26 313.42 146.93 C 314.04 151.32 317.45 154.47 319.78 158.02 C 315.51 161.89 309.64 163.65 303.96 162.44 C 304.25 164.04 304.49 165.64 304.68 167.26 C 299.77 168.28 295.38 165.52 290.90 164.08 C 287.91 164.97 285.06 166.28 282.01 166.98 C 285.41 169.25 288.13 173.17 292.57 173.26 C 301.60 174.52 310.25 177.62 318.50 181.43 C 325.64 184.78 332.36 189.48 337.07 195.91 C 343.46 204.19 346.48 214.47 348.85 224.51 C 364.33 225.13 379.74 227.68 394.42 232.72 C 403.83 236.14 413.83 229.87 423.12 233.88 C 425.63 234.84 429.12 236.45 428.77 239.69 C 428.15 243.45 423.41 244.99 423.14 248.96 C 422.19 258.71 418.46 267.85 416.65 277.44 C 414.98 285.57 414.56 293.89 413.42 302.10 C 410.92 320.92 407.30 339.92 398.98 357.15 C 407.24 358.39 415.54 359.84 423.45 362.62 C 426.83 363.80 430.21 366.03 431.18 369.69 C 433.95 378.94 434.77 389.06 432.14 398.44 C 441.09 398.66 450.08 397.99 459.00 398.87 C 458.45 399.36 457.33 400.35 456.78 400.84 C 448.03 401.07 439.27 401.03 430.52 401.20 C 422.47 412.97 409.05 419.37 396.00 424.01 C 387.39 427.17 378.71 430.31 370.61 434.67 C 360.88 440.11 348.75 439.74 339.80 446.82 C 336.02 449.35 334.35 454.82 329.37 455.42 C 322.30 456.49 315.12 456.14 308.00 456.03 C 279.42 454.83 250.92 452.25 222.54 448.74 C 193.99 445.60 165.26 443.16 137.22 436.64 C 118.50 431.99 99.63 427.93 80.99 422.97 C 77.38 422.04 73.84 420.52 70.05 420.59 C 61.72 420.59 53.40 420.66 45.07 420.58 C 43.32 420.83 41.82 419.91 40.60 418.76 C 48.20 417.48 55.95 418.63 63.60 418.00 C 60.25 416.39 56.66 414.75 54.60 411.49 C 50.34 405.13 49.66 395.84 54.53 389.61 C 59.27 383.19 66.04 378.65 72.88 374.73 C 90.36 365.48 110.17 361.91 127.75 352.84 C 122.21 347.24 116.47 341.01 115.01 332.99 C 114.03 326.81 113.92 320.27 116.19 314.36 C 119.49 305.06 128.05 297.57 138.03 296.66 C 149.76 295.46 160.80 300.59 172.13 302.62 C 169.26 300.23 165.65 298.54 163.88 295.07 C 162.11 291.79 159.45 288.32 160.22 284.38 C 161.16 281.10 163.77 278.76 165.72 276.09 C 161.98 266.76 160.19 256.54 161.80 246.53 C 162.78 243.45 166.24 242.67 168.85 241.52 C 167.18 226.72 164.92 211.99 163.25 197.19 C 168.81 197.75 174.18 194.89 177.12 190.20 C 186.19 192.20 194.74 196.10 203.83 197.98 C 205.71 196.41 206.37 193.80 207.85 191.87 C 211.41 186.82 215.95 182.31 221.48 179.48 C 229.94 174.90 239.52 173.05 248.97 171.81 C 251.00 171.61 252.57 170.20 254.25 169.18 C 244.76 168.31 235.74 163.56 230.13 155.80 C 222.74 145.70 222.00 132.62 221.12 120.59 C 218.61 124.02 215.05 127.02 210.49 126.43 C 210.46 121.94 211.47 117.47 210.87 112.98 C 210.18 105.43 209.59 97.28 213.48 90.43 C 215.31 86.45 218.96 83.93 222.30 81.33 C 223.79 76.86 225.22 72.11 228.87 68.86 C 233.37 63.67 240.14 60.65 247.01 60.73 C 249.06 60.58 251.32 61.28 253.20 60.15 Z" fill="#0f304d" opacity="1.00" stroke="#0f304d" stroke-width="0.25" data-index="1" style="opacity: 1; visibility: visible;"></path>
<path d="M 262.15 59.02 C 269.40 57.20 277.63 57.59 283.89 62.05 C 287.33 64.06 289.36 67.58 291.08 71.04 C 294.85 72.30 298.91 73.27 301.97 75.97 C 305.69 79.26 308.08 83.74 309.95 88.26 C 311.99 93.25 313.69 98.54 313.57 104.00 C 313.06 116.97 309.22 129.74 310.48 142.78 C 310.86 147.73 313.27 152.18 314.23 157.00 C 314.70 158.53 313.33 159.96 311.83 159.99 C 308.48 160.66 305.09 159.90 301.77 159.44 C 301.32 161.27 300.88 163.10 300.44 164.94 C 297.70 163.94 295.02 162.77 292.20 162.02 C 289.22 161.20 286.17 162.29 283.22 162.72 C 283.89 157.24 287.30 152.72 290.50 148.44 C 293.58 144.24 300.42 145.81 303.05 141.03 C 306.64 135.18 306.22 124.61 298.39 122.59 C 294.16 121.19 291.51 125.30 288.59 127.48 C 288.29 127.46 287.69 127.43 287.38 127.41 C 286.39 119.67 290.03 111.82 287.79 104.20 C 276.50 101.93 266.17 109.77 254.88 108.41 C 249.52 108.27 244.88 105.39 240.85 102.11 C 238.50 104.01 236.32 106.24 233.53 107.48 C 230.66 107.90 227.89 106.67 225.14 106.04 C 222.32 112.65 220.12 120.28 213.47 124.13 C 214.40 113.49 210.37 102.27 215.21 92.19 C 216.87 88.06 221.19 86.23 224.03 83.12 C 226.08 79.35 226.52 74.77 229.45 71.47 C 232.18 68.39 235.71 66.06 239.49 64.47 C 243.61 62.78 248.16 64.01 252.39 63.02 C 255.73 61.91 258.72 59.89 262.15 59.02 Z" fill="#5d3c37" opacity="1.00" stroke="#5d3c37" stroke-width="0.25" data-index="2"></path>
<path d="M 231.95 110.30 C 235.56 110.06 238.36 107.47 240.92 105.17 C 247.94 111.43 258.03 111.91 266.78 109.75 C 273.29 108.07 279.81 105.89 286.63 106.25 C 286.47 113.86 283.98 121.35 284.92 128.97 C 284.87 131.10 287.05 132.16 288.90 131.50 C 291.31 129.27 292.83 125.84 296.09 124.68 C 298.84 124.08 301.06 126.50 302.21 128.70 C 303.31 132.77 303.31 137.91 300.07 141.04 C 297.65 143.71 293.70 142.46 290.57 142.43 C 287.57 150.62 281.87 157.82 274.33 162.26 C 267.25 166.34 258.72 167.39 250.73 166.10 C 241.47 164.54 233.29 158.18 229.26 149.73 C 225.10 141.11 224.44 131.36 223.68 121.97 C 223.19 117.48 224.79 113.23 226.26 109.09 C 228.14 109.52 230.00 110.16 231.95 110.30 Z" fill="#fecbb1" opacity="1.00" stroke="#fecbb1" stroke-width="0.25" data-index="3"></path>
<path d="M 227.02 116.30 C 232.53 114.50 238.42 113.59 244.22 113.79 C 244.13 115.43 244.11 117.08 243.79 118.69 C 240.86 120.29 237.45 120.51 234.24 121.15 C 231.77 121.44 229.12 122.21 226.73 121.22 C 225.63 119.88 224.68 116.86 227.02 116.30 Z" fill="#5d3c37" opacity="1.00" stroke="#5d3c37" stroke-width="0.25" data-index="4"></path>
<path d="M 257.60 118.93 C 257.19 117.11 257.70 114.48 260.00 114.48 C 265.81 114.35 271.71 114.60 277.42 115.75 C 280.23 116.47 279.37 119.62 278.48 121.53 C 273.00 121.43 267.54 121.04 262.09 120.52 C 260.50 120.34 258.75 120.18 257.60 118.93 Z" fill="#5d3c37" opacity="1.00" stroke="#5d3c37" stroke-width="0.25" data-index="5"></path>
<path d="M 234.73 126.67 C 236.26 126.23 237.86 126.45 239.43 126.44 C 239.61 128.32 241.12 130.75 239.15 132.15 C 237.73 134.15 235.29 132.52 233.37 132.41 C 233.55 130.49 232.74 127.90 234.73 126.67 Z" fill="#0f304d" opacity="1.00" stroke="#0f304d" stroke-width="0.25" data-index="6"></path>
<path d="M 264.46 126.39 C 266.96 125.76 269.33 128.22 268.62 130.71 C 268.42 133.92 263.37 134.52 262.25 131.58 C 260.81 129.66 262.38 126.99 264.46 126.39 Z" fill="#0f304d" opacity="1.00" stroke="#0f304d" stroke-width="0.25" data-index="7"></path>
<path d="M 242.24 139.30 C 243.76 135.52 244.62 130.76 248.63 128.77 C 247.92 132.13 246.36 135.21 244.95 138.31 C 246.74 139.24 248.53 140.18 250.29 141.18 C 247.62 143.73 244.66 140.65 242.24 139.30 Z" fill="#0f304d" opacity="1.00" stroke="#0f304d" stroke-width="0.25" data-index="8"></path>
<path d="M 250.99 151.63 C 255.89 152.04 259.18 147.92 263.32 146.12 C 260.37 155.91 244.87 157.11 239.97 148.25 C 244.10 147.77 246.74 152.41 250.99 151.63 Z" fill="#0f304d" opacity="1.00" stroke="#0f304d" stroke-width="0.25" data-index="9"></path>
<path d="M 262.48 171.53 C 268.12 167.78 274.39 165.15 280.08 161.48 C 279.91 167.48 281.02 173.68 279.53 179.56 C 276.27 186.37 272.27 192.81 268.52 199.35 C 265.94 199.70 263.36 200.11 260.79 200.47 C 259.03 193.65 256.62 186.95 255.65 179.95 C 255.10 175.69 259.41 173.38 262.48 171.53 Z" fill="#fecbb1" opacity="1.00" stroke="#fecbb1" stroke-width="0.25" data-index="10"></path>
<path d="M 282.94 170.52 C 285.76 172.65 288.01 175.47 289.23 178.81 C 291.82 185.38 294.84 191.80 296.96 198.55 C 293.95 199.32 290.90 199.95 287.87 200.59 C 286.96 199.40 286.05 198.21 285.13 197.04 C 280.68 197.66 276.27 198.46 271.81 198.93 C 274.91 192.98 278.60 187.35 281.44 181.27 C 283.19 177.96 282.72 174.11 282.94 170.52 Z" fill="#c4f3fe" opacity="1.00" stroke="#c4f3fe" stroke-width="0.25" data-index="11"></path>
<path d="M 236.97 194.43 C 242.53 187.11 246.84 178.76 253.53 172.37 C 251.69 181.55 255.97 190.22 257.65 199.05 C 258.58 202.71 253.44 201.19 251.31 202.05 C 247.45 198.07 241.66 197.11 236.97 194.43 Z" fill="#c4f3fe" opacity="1.00" stroke="#c4f3fe" stroke-width="0.25" data-index="12"></path>
<path d="M 224.61 180.71 C 231.95 177.53 239.78 175.44 247.74 174.61 C 243.41 181.53 237.82 187.71 234.18 195.02 C 237.68 198.11 242.24 199.54 246.33 201.65 C 238.91 204.89 230.69 206.74 224.56 212.35 C 225.26 206.64 225.83 200.91 225.80 195.16 C 225.26 195.22 224.18 195.34 223.64 195.41 C 223.08 200.51 222.65 205.62 222.11 210.72 C 218.24 205.29 212.81 201.21 206.52 198.98 C 210.49 191.23 216.55 184.31 224.61 180.71 Z" fill="#c4f3fe" opacity="1.00" stroke="#c4f3fe" stroke-width="0.25" data-index="13"></path>
<path d="M 290.64 175.60 C 301.10 177.16 311.29 180.48 320.67 185.37 C 326.80 188.54 332.09 193.24 336.15 198.81 C 341.13 206.07 343.78 214.58 345.95 223.03 C 349.98 240.55 352.86 258.30 355.80 276.03 C 357.34 286.54 359.45 297.83 354.94 307.92 C 347.68 307.50 340.41 307.72 333.15 307.80 C 326.94 306.59 321.37 303.20 315.97 300.00 C 323.51 292.18 329.16 281.01 326.71 269.94 C 332.43 272.70 338.99 272.73 344.76 275.33 C 347.90 276.65 350.03 279.45 352.95 281.13 C 353.28 277.21 349.69 274.96 346.71 273.32 C 340.72 270.09 333.52 270.62 327.54 267.42 C 325.38 266.48 323.57 264.32 323.58 261.90 C 323.07 246.23 321.59 230.49 317.48 215.32 C 316.88 215.38 315.69 215.50 315.10 215.55 C 318.94 230.77 320.59 246.46 320.91 262.13 C 317.54 260.62 314.08 261.64 311.41 263.98 C 308.33 259.21 303.64 255.83 298.41 253.75 C 297.10 237.87 296.15 221.96 295.05 206.07 C 293.66 204.76 291.93 203.90 290.41 202.78 C 293.56 201.95 296.73 201.12 299.82 200.07 C 297.64 191.61 293.77 183.72 290.64 175.60 Z" fill="#c4f3fe" opacity="1.00" stroke="#c4f3fe" stroke-width="0.25" data-index="14"></path>
<path d="M 171.77 198.16 C 174.19 196.76 176.40 195.04 178.24 192.92 C 188.29 196.15 198.51 198.93 208.42 202.58 C 213.56 204.37 217.26 208.54 220.56 212.68 C 204.56 207.00 187.90 203.45 171.77 198.16 Z" fill="#ffffff" opacity="1.00" stroke="#ffffff" stroke-width="0.25" data-index="15"></path>
<path d="M 244.79 205.86 C 257.70 203.24 270.81 201.86 283.79 199.65 C 285.57 201.66 287.53 203.48 289.52 205.28 C 268.58 207.99 247.67 210.98 226.74 213.74 C 231.78 209.29 238.33 207.23 244.79 205.86 Z" fill="#ffffff" opacity="1.00" stroke="#ffffff" stroke-width="0.25" data-index="16"></path>
<path d="M 166.18 200.02 C 179.49 202.58 192.33 207.09 205.43 210.51 C 209.06 211.56 212.82 212.26 216.28 213.83 C 217.00 214.86 217.33 216.10 217.43 217.35 C 218.00 228.28 219.48 239.13 220.10 250.05 C 221.02 261.02 222.52 271.96 222.69 282.98 C 214.30 281.17 206.24 278.17 197.94 276.05 C 192.37 274.30 186.58 273.18 181.21 270.85 C 181.31 270.55 181.52 269.94 181.62 269.64 C 184.98 268.01 189.41 267.97 191.73 264.68 C 191.64 263.02 191.07 261.43 190.58 259.86 C 193.04 256.32 193.90 251.88 193.52 247.63 C 191.59 246.03 188.91 246.21 186.59 245.72 C 188.17 243.82 190.13 240.37 187.41 238.58 C 182.01 237.48 176.73 239.68 171.38 240.00 C 169.55 226.69 167.71 213.37 166.18 200.02 Z" fill="#f3542d" opacity="1.00" stroke="#f3542d" stroke-width="0.25" data-index="17"></path>
<path d="M 269.30 210.53 C 277.06 209.75 284.74 208.14 292.57 208.08 C 293.65 215.55 293.45 223.12 294.28 230.62 C 294.44 238.03 295.81 245.36 295.57 252.79 C 290.68 250.15 285.64 247.69 280.20 246.40 C 278.12 248.90 275.67 251.05 273.42 253.39 C 273.43 259.34 273.26 265.43 274.78 271.23 C 277.96 274.97 282.55 277.08 286.34 280.11 C 278.51 281.83 270.47 282.10 262.56 283.33 C 253.86 284.26 245.21 285.64 236.51 286.57 C 234.14 263.03 232.83 239.40 230.44 215.86 C 243.40 214.13 256.34 212.30 269.30 210.53 Z" fill="#f3542d" opacity="1.00" stroke="#f3542d" stroke-width="0.25" data-index="18"></path>
<path d="M 220.20 216.07 C 222.83 216.41 225.46 216.81 228.07 217.30 C 229.58 229.69 229.98 242.18 231.42 254.59 C 231.71 265.37 233.41 276.06 233.64 286.85 C 231.23 286.44 228.45 286.88 226.33 285.54 C 223.95 274.01 224.28 262.10 222.67 250.45 C 222.19 238.96 220.18 227.58 220.20 216.07 Z" fill="#f3542d" opacity="1.00" stroke="#f3542d" stroke-width="0.25" data-index="19"></path>
<path d="M 349.46 227.30 C 364.26 227.56 378.91 230.43 392.93 235.07 C 399.26 237.30 405.96 236.19 412.41 235.28 C 417.48 234.51 422.75 235.73 426.84 238.88 C 424.98 241.59 422.24 243.75 421.03 246.86 C 419.96 251.11 419.78 255.55 418.49 259.76 C 415.72 269.13 413.36 278.66 412.35 288.40 C 410.64 302.87 409.05 317.43 405.32 331.56 C 402.62 341.88 399.55 352.46 393.08 361.12 C 388.74 366.30 381.22 363.90 375.63 362.62 C 383.28 353.09 385.36 339.58 380.94 328.20 C 376.94 318.24 367.59 311.16 357.28 308.72 C 361.18 300.35 360.40 290.85 359.28 281.95 C 356.67 263.62 353.29 245.41 349.46 227.30 Z" fill="#c4f3fe" opacity="1.00" stroke="#c4f3fe" stroke-width="0.25" data-index="20"></path>
<path d="M 179.11 241.37 C 181.62 240.99 184.47 239.66 186.87 241.07 C 186.80 242.15 186.27 242.89 185.28 243.28 C 179.88 245.78 174.00 247.00 168.45 249.08 C 169.82 250.14 171.35 250.57 173.04 250.35 C 179.13 249.84 185.15 248.57 191.28 248.33 C 191.37 248.86 191.55 249.93 191.64 250.46 C 184.57 252.63 176.89 252.75 170.16 255.95 C 170.59 256.35 171.44 257.16 171.86 257.57 C 178.18 256.64 184.27 254.49 190.66 253.86 C 190.64 254.53 190.61 255.86 190.60 256.52 C 185.49 258.65 180.18 260.19 174.87 261.71 C 173.32 262.03 172.34 263.32 171.26 264.36 C 177.70 264.57 183.96 261.45 190.39 262.76 C 187.18 266.37 181.51 265.00 178.28 268.39 C 177.51 272.54 181.75 275.22 183.78 278.30 C 180.31 281.38 176.28 283.80 171.77 284.98 C 168.16 274.94 163.14 264.94 163.61 253.99 C 163.85 251.34 163.19 248.04 165.02 245.89 C 169.31 243.37 174.39 242.75 179.11 241.37 Z" fill="#fecbb1" opacity="1.00" stroke="#fecbb1" stroke-width="0.25" data-index="21"></path>
<path d="M 279.42 248.93 C 285.22 249.92 290.34 252.98 295.68 255.29 C 300.19 257.47 305.45 259.19 308.16 263.75 C 309.96 266.90 312.60 269.41 314.86 272.19 C 314.22 276.88 312.05 281.17 310.51 285.59 C 305.67 286.10 300.39 286.68 296.06 283.95 C 292.05 281.35 288.52 278.05 284.39 275.62 C 281.12 273.45 276.94 271.76 275.66 267.69 C 281.68 269.67 286.22 275.03 292.71 275.67 C 288.14 269.08 278.16 268.17 274.69 260.43 C 281.28 262.40 286.10 268.09 292.95 269.47 C 291.78 265.69 287.57 264.52 284.68 262.36 C 281.05 259.78 276.36 257.84 274.64 253.42 C 281.37 255.74 287.12 260.42 294.01 262.29 C 294.52 262.13 295.54 261.83 296.05 261.67 C 291.65 257.98 286.39 255.59 281.65 252.41 C 280.37 251.67 280.03 250.15 279.42 248.93 Z" fill="#fecbb1" opacity="1.00" stroke="#fecbb1" stroke-width="0.25" data-index="22"></path>
<path d="M 366.98 275.54 C 368.33 269.81 369.68 264.03 372.14 258.66 C 372.46 259.23 373.12 260.36 373.45 260.92 C 372.46 265.88 370.72 270.65 369.40 275.52 C 368.80 275.53 367.59 275.53 366.98 275.54 Z" fill="#0f304d" opacity="1.00" stroke="#0f304d" stroke-width="0.25" data-index="23"></path>
<path d="M 317.78 263.50 C 319.78 264.65 322.44 265.39 323.34 267.76 C 325.24 272.76 325.36 278.50 323.39 283.51 C 321.07 289.80 317.51 296.07 311.74 299.76 C 308.98 300.04 306.74 297.91 304.36 296.84 C 311.45 290.83 315.14 282.02 317.31 273.19 C 317.96 270.00 317.75 266.73 317.78 263.50 Z" fill="#c4f3fe" opacity="1.00" stroke="#c4f3fe" stroke-width="0.25" data-index="24"></path>
<path d="M 162.93 288.24 C 172.76 288.96 183.54 284.75 188.13 275.58 C 189.96 276.17 191.83 276.66 193.57 277.49 C 194.92 280.98 195.18 284.92 194.34 288.56 C 192.59 293.90 187.55 298.08 181.92 298.61 C 178.03 298.95 174.01 299.10 170.22 298.04 C 166.66 295.80 164.96 291.74 162.93 288.24 Z" fill="#c4f3fe" opacity="1.00" stroke="#c4f3fe" stroke-width="0.25" data-index="25"></path>
<path d="M 196.45 277.94 C 200.84 279.24 204.51 282.54 205.93 286.95 C 206.91 289.52 206.36 292.95 209.09 294.55 C 210.12 289.63 208.25 284.93 205.59 280.89 C 208.83 281.77 212.29 282.28 215.23 284.00 C 214.66 290.54 213.93 297.11 212.33 303.49 C 211.68 305.55 211.02 308.08 208.83 309.00 C 206.31 309.56 203.73 308.92 201.22 308.65 C 193.67 307.45 186.10 306.21 178.73 304.18 C 176.85 303.70 175.26 302.56 173.70 301.48 C 180.13 301.48 187.58 301.50 192.26 296.31 C 197.35 291.70 198.33 284.29 196.45 277.94 Z" fill="#c4f3fe" opacity="1.00" stroke="#c4f3fe" stroke-width="0.25" data-index="26"></path>
<path d="M 260.82 285.98 C 270.59 285.07 280.32 283.68 290.06 282.48 C 292.41 284.41 295.05 285.94 297.57 287.65 C 298.39 290.25 298.13 293.16 299.47 295.60 C 303.40 299.70 308.77 303.21 314.70 302.24 C 318.40 304.16 321.88 306.50 325.63 308.35 C 312.11 309.32 298.55 309.55 285.00 309.83 C 276.20 310.36 267.37 310.20 258.57 309.72 C 259.19 301.80 259.89 293.88 260.82 285.98 Z" fill="#c4f3fe" opacity="1.00" stroke="#c4f3fe" stroke-width="0.25" data-index="27"></path>
<path d="M 367.59 286.98 C 372.90 285.44 378.26 284.08 383.63 282.74 C 383.57 283.40 383.47 284.71 383.42 285.37 C 379.58 286.47 375.76 287.73 371.82 288.41 C 370.20 288.96 368.80 287.91 367.59 286.98 Z" fill="#0f304d" opacity="1.00" stroke="#0f304d" stroke-width="0.25" data-index="28"></path>
<path d="M 214.54 305.49 C 216.30 298.51 216.98 291.33 217.80 284.20 C 220.65 285.06 223.10 286.68 225.38 288.54 C 229.43 289.62 233.74 289.83 237.88 289.09 C 244.58 288.02 251.35 287.40 258.07 286.40 C 257.33 294.15 256.42 301.89 256.03 309.67 C 242.13 309.26 228.26 307.68 214.54 305.49 Z" fill="#c4f3fe" opacity="1.00" stroke="#c4f3fe" stroke-width="0.25" data-index="29"></path>
<path d="M 127.92 302.96 C 134.32 298.37 142.70 298.58 150.11 299.91 C 168.37 304.17 186.42 309.79 205.14 311.64 C 208.69 312.37 211.47 310.05 214.25 308.30 C 228.00 310.10 241.79 311.93 255.68 312.29 C 255.05 323.14 255.84 333.99 256.97 344.79 C 248.15 347.68 239.29 350.43 230.51 353.45 C 228.27 354.51 226.35 352.54 224.56 351.49 C 219.47 347.91 214.23 344.54 209.23 340.83 C 207.37 339.93 208.44 337.72 208.26 336.13 C 198.30 328.13 187.55 320.77 175.38 316.58 C 170.30 314.84 165.28 312.93 160.19 311.22 C 160.48 312.30 160.26 313.84 161.63 314.22 C 168.29 317.14 175.41 318.89 181.96 322.08 C 189.98 326.07 197.71 330.73 204.55 336.53 C 205.30 337.96 203.74 338.94 203.05 340.00 C 197.58 346.40 192.87 353.40 188.72 360.72 C 186.90 364.48 181.80 363.35 178.97 365.91 C 176.19 370.79 178.42 376.29 180.06 381.13 C 178.45 385.57 175.34 389.31 172.82 393.27 C 165.46 383.42 158.11 373.24 147.98 366.01 C 139.41 360.07 131.34 353.37 124.41 345.55 C 113.24 334.00 114.34 312.21 127.92 302.96 Z" fill="#c4f3fe" opacity="1.00" stroke="#c4f3fe" stroke-width="0.25" data-index="30" style="opacity: 1;"></path>
<path d="M 307.02 311.76 C 321.33 311.73 335.57 309.72 349.89 310.38 C 358.12 310.81 366.47 313.69 372.24 319.78 C 384.75 331.71 383.20 355.02 368.92 364.93 C 359.90 371.50 348.69 373.49 338.08 376.02 C 325.72 379.02 314.21 384.51 302.56 389.45 C 302.00 386.69 302.68 382.80 299.70 381.26 C 294.27 378.17 287.72 378.92 281.72 378.83 C 281.61 364.89 277.18 351.56 274.26 338.08 C 281.47 334.70 288.44 330.80 295.81 327.75 C 309.84 322.04 324.64 318.36 339.65 316.46 C 339.62 315.88 339.57 314.72 339.54 314.14 C 315.85 316.28 292.99 324.63 272.51 336.51 C 272.05 337.69 271.79 338.93 271.47 340.16 C 267.50 341.22 263.61 342.54 259.70 343.79 C 257.88 333.41 258.01 322.85 258.31 312.37 C 274.55 312.76 290.79 312.46 307.02 311.76 Z" fill="#c4f3fe" opacity="1.00" stroke="#c4f3fe" stroke-width="0.25" data-index="31"></path>
<path d="M 205.20 341.20 C 211.94 345.83 218.67 350.47 225.38 355.15 C 214.42 359.86 202.61 362.19 190.71 362.49 C 194.85 354.94 199.77 347.86 205.20 341.20 Z" fill="#fecbb1" opacity="1.00" stroke="#fecbb1" stroke-width="0.25" data-index="32" style="opacity: 1;"></path>
<path d="M 217.01 360.94 C 235.32 354.29 253.90 348.40 272.44 342.42 C 275.86 354.44 278.77 366.71 279.35 379.24 C 271.40 378.82 263.22 379.09 255.59 376.47 C 249.77 374.69 244.21 372.17 238.35 370.51 C 235.13 369.55 231.31 369.45 228.51 371.56 C 221.99 376.86 220.23 386.40 212.81 390.76 C 203.76 395.05 191.41 392.98 185.16 384.87 C 182.01 379.86 179.14 373.80 180.73 367.76 C 183.04 365.81 186.29 365.88 189.13 365.38 C 198.50 364.47 208.04 364.05 217.01 360.94 Z" fill="#fecbb1" opacity="1.00" stroke="#fecbb1" stroke-width="0.25" data-index="33" style="opacity: 1;"></path>
<path d="M 97.45 367.45 C 108.51 363.92 119.40 359.84 129.81 354.68 C 139.62 364.22 152.25 370.60 160.59 381.68 C 152.36 382.69 144.12 383.77 135.81 383.87 C 135.82 384.52 135.83 385.82 135.83 386.47 C 144.83 386.58 153.75 385.14 162.65 384.01 C 165.56 387.62 168.03 391.57 171.04 395.10 C 171.67 396.00 173.34 395.90 174.04 395.12 C 177.13 392.11 179.31 388.34 181.81 384.87 C 186.25 391.00 193.40 395.00 200.97 395.43 C 203.95 395.62 206.92 395.07 209.89 395.22 C 214.47 396.45 218.79 398.46 223.33 399.82 C 224.80 396.82 226.14 393.76 227.51 390.72 C 242.69 395.80 257.68 401.48 273.05 406.00 C 279.52 407.63 286.53 409.17 293.10 407.19 C 299.28 404.97 300.91 397.90 302.32 392.24 C 311.13 388.92 319.53 384.57 328.48 381.60 C 340.76 377.16 354.33 376.42 365.81 369.83 C 368.63 368.35 370.97 366.06 373.91 364.82 C 379.25 366.00 384.88 367.83 390.34 366.20 C 393.60 365.10 395.48 362.04 397.37 359.39 C 406.43 361.07 415.66 362.42 424.29 365.76 C 429.14 367.60 429.59 373.42 430.43 377.79 C 431.45 386.04 432.45 395.71 426.47 402.41 C 415.17 416.01 397.31 420.27 381.66 426.70 C 373.49 429.53 366.39 434.92 357.82 436.67 C 350.76 438.16 343.76 440.61 337.91 444.93 C 335.08 447.05 333.40 450.38 330.49 452.38 C 323.86 454.34 316.82 453.23 310.01 453.50 C 288.47 452.68 266.98 450.93 245.55 448.63 C 206.88 443.83 167.65 441.89 129.78 432.10 C 111.32 427.63 92.75 423.58 74.45 418.46 C 68.72 416.46 62.17 415.66 57.58 411.35 C 53.80 406.53 52.78 399.78 54.64 393.98 C 72.71 400.24 92.14 398.60 110.68 402.39 C 138.21 407.15 165.18 414.51 192.41 420.62 C 202.74 423.00 213.29 424.22 223.69 426.19 C 234.34 428.82 244.96 432.22 256.02 432.50 C 273.08 433.24 290.00 430.32 307.05 430.42 C 310.86 430.51 314.07 428.15 317.07 426.10 C 323.37 421.60 330.39 418.04 337.90 416.07 C 357.36 411.02 377.75 407.00 394.79 395.77 C 403.38 389.84 410.93 382.59 418.90 375.89 C 421.13 373.81 424.15 372.06 424.48 368.71 C 422.57 369.62 420.74 370.72 419.14 372.12 C 412.27 378.27 405.28 384.31 398.18 390.20 C 381.78 402.98 360.94 407.45 341.23 412.49 C 332.81 414.38 324.67 417.66 317.58 422.63 C 314.46 424.50 311.69 427.48 307.86 427.70 C 299.60 428.30 291.30 428.12 283.05 428.96 C 271.27 430.04 259.37 430.69 247.60 429.16 C 236.52 427.31 225.91 423.30 214.74 421.97 C 198.37 419.70 182.35 415.56 166.28 411.81 C 147.70 407.17 129.01 402.94 110.15 399.56 C 97.40 397.23 84.40 397.13 71.60 395.24 C 66.31 394.40 60.93 393.55 56.04 391.27 C 66.56 378.71 82.32 372.49 97.45 367.45 Z" fill="#c4f3fe" opacity="1.00" stroke="#c4f3fe" stroke-width="0.25" data-index="34" style="opacity: 1;"></path>
<path d="M 213.36 393.49 C 222.05 388.53 224.05 377.37 232.35 372.09 C 229.20 380.45 225.70 388.67 222.17 396.87 C 219.21 395.81 216.25 394.72 213.36 393.49 Z" fill="#c4f3fe" opacity="1.00" stroke="#c4f3fe" stroke-width="0.25" data-index="35" style="opacity: 1; visibility: visible;"></path>
<path d="M 228.63 388.43 C 230.73 382.94 232.94 377.47 235.64 372.23 C 245.41 375.21 254.70 380.11 264.99 381.14 C 272.98 381.97 281.02 381.43 289.03 381.47 C 292.47 381.59 296.19 381.76 299.11 383.79 C 300.63 388.96 299.57 394.66 297.46 399.53 C 296.23 402.58 293.49 405.16 290.08 405.38 C 280.15 406.33 270.61 402.73 261.37 399.60 C 250.40 396.06 239.57 392.09 228.63 388.43 Z" fill="#fecbb1" opacity="1.00" stroke="#fecbb1" stroke-width="0.25" data-index="36" style="opacity: 1;"></path>
<path d="M 301.47 399.03 C 309.14 396.94 317.14 396.30 324.93 394.76 C 324.65 396.43 323.49 397.57 321.80 397.74 C 316.28 399.08 310.63 399.91 305.00 400.53 C 303.59 400.81 302.57 399.65 301.47 399.03 Z" fill="#0f304d" opacity="1.00" stroke="#0f304d" stroke-width="0.25" data-index="37"></path>
</svg>