<svg xmlns="http://www.w3.org/2000/svg" height="512pt" version="1.1" viewBox="0 0 512 512" width="512pt">

<path d="M 134.67 112.41 C 138.37 110.07 140.78 106.35 143.62 103.13 C 145.20 104.22 146.65 105.58 148.44 106.32 C 150.59 106.40 152.71 105.90 154.86 105.89 C 156.54 107.66 157.72 109.82 159.36 111.63 C 162.27 111.42 164.86 109.78 167.77 109.53 C 176.50 108.92 185.45 110.78 194.01 108.36 C 203.26 105.68 212.65 111.10 221.96 108.91 C 227.43 107.69 233.16 106.87 238.62 108.63 C 239.45 110.34 240.06 112.23 241.33 113.69 C 245.97 115.64 251.06 114.05 255.87 113.77 C 259.37 114.28 262.42 116.57 266.03 116.70 C 269.27 117.05 272.34 115.78 275.42 114.99 C 278.91 114.07 282.76 114.79 286.01 112.98 C 287.97 112.19 289.75 110.53 291.95 110.61 C 297.97 112.69 301.19 119.98 307.96 120.34 C 315.95 120.66 324.18 120.30 331.84 123.03 C 336.05 124.62 340.50 125.50 345.00 125.68 C 350.34 125.86 355.71 126.85 361.04 126.05 C 371.01 124.59 381.02 127.05 391.02 126.37 C 391.73 124.99 392.44 123.60 393.16 122.22 C 395.15 122.26 397.14 122.30 399.14 122.34 C 401.06 124.05 402.99 125.76 404.95 127.44 C 406.91 126.64 408.84 125.63 410.98 125.38 C 414.98 126.10 418.83 128.32 423.02 127.48 C 430.73 126.42 435.46 118.88 443.02 117.50 C 446.43 117.03 447.98 120.84 449.97 122.93 C 451.86 122.70 453.76 122.48 455.66 122.25 C 456.70 127.15 458.38 132.01 458.37 137.07 C 457.10 141.45 454.93 145.65 455.32 150.37 C 457.27 151.21 459.21 152.07 461.17 152.92 C 463.43 159.82 461.53 166.99 462.25 174.04 C 462.78 179.79 459.83 185.20 460.44 190.97 C 461.00 198.70 459.68 206.36 459.31 214.06 C 459.15 217.67 456.87 220.65 455.98 224.05 C 455.83 226.56 456.33 229.05 456.46 231.55 C 456.93 237.74 455.14 243.88 456.03 250.06 C 456.55 254.02 456.23 258.06 456.98 261.99 C 458.35 268.81 465.43 272.89 466.20 279.92 C 466.62 284.61 466.57 289.35 466.56 294.06 C 466.68 301.54 459.76 307.37 460.96 314.97 C 461.79 321.26 461.88 327.64 461.12 333.94 C 460.40 339.72 460.44 345.57 459.57 351.34 C 456.68 351.66 453.81 352.06 450.94 352.51 C 447.60 361.58 446.63 371.48 442.12 380.11 C 440.57 383.50 437.17 385.23 434.51 387.60 C 433.92 389.65 434.44 391.83 434.60 393.92 C 429.97 396.90 424.98 399.27 419.90 401.38 C 416.09 403.08 411.83 402.09 407.83 402.79 C 404.67 403.28 402.02 405.21 399.01 406.17 C 396.66 405.30 394.79 403.53 392.76 402.12 C 391.37 403.95 390.08 405.89 388.43 407.50 C 386.46 407.08 384.62 406.21 382.76 405.48 C 379.46 407.54 376.49 410.36 372.66 411.40 C 367.09 412.10 361.57 410.40 355.99 410.52 C 345.61 410.62 335.05 410.16 324.92 412.85 C 320.67 414.01 316.23 413.57 311.96 412.84 C 306.84 411.96 301.44 411.82 296.79 409.28 C 284.55 402.48 270.04 404.22 256.61 403.39 C 252.77 402.99 249.28 399.98 245.33 401.19 C 239.64 402.45 233.66 402.62 228.30 405.12 C 224.07 407.12 219.42 407.86 214.77 407.57 C 212.93 405.54 211.06 403.55 209.17 401.59 C 205.04 401.65 200.89 401.48 196.84 400.61 C 188.98 399.00 180.89 399.27 172.97 400.20 C 167.35 400.99 161.97 398.72 156.42 398.35 C 150.54 397.85 144.70 397.06 138.82 396.53 C 131.11 395.76 123.73 399.27 116.00 398.49 C 114.00 396.35 112.14 393.26 108.83 393.31 C 104.98 392.56 102.35 395.90 99.07 397.16 C 96.07 397.14 93.11 396.52 90.14 396.18 C 86.17 392.88 82.48 388.92 82.05 383.49 C 79.77 383.55 77.50 383.62 75.22 383.69 C 72.66 379.21 71.47 374.11 71.67 368.95 C 71.92 363.19 69.52 357.76 69.54 352.04 C 69.45 349.54 69.66 347.00 69.14 344.55 C 67.91 340.47 64.74 337.25 63.76 333.08 C 62.83 327.41 64.21 321.66 63.51 315.98 C 60.99 305.57 62.01 294.74 61.48 284.14 C 60.84 280.65 58.42 277.67 58.36 274.04 C 57.82 267.62 60.24 261.33 59.32 254.93 C 59.18 252.05 55.72 251.92 53.71 250.90 C 53.36 243.98 51.83 237.24 48.97 230.95 C 49.49 219.04 49.75 207.08 50.81 195.18 C 51.74 190.11 53.98 185.25 53.60 179.97 C 53.28 176.32 55.36 173.22 56.35 169.87 C 56.86 165.60 56.32 161.27 56.83 156.99 C 57.76 150.68 55.96 144.40 56.51 138.07 C 62.67 136.41 68.16 133.08 73.49 129.68 C 78.69 126.35 78.06 118.56 83.05 115.09 C 85.55 115.04 88.03 115.64 90.52 115.38 C 92.99 113.65 94.77 111.08 97.37 109.53 C 100.40 108.13 103.84 108.66 107.08 108.51 C 110.94 108.66 114.45 106.82 117.94 105.43 C 121.39 107.01 124.84 109.90 128.88 108.93 C 130.10 108.76 131.32 108.53 132.54 108.32 C 133.25 109.69 133.96 111.04 134.67 112.41 Z" fill="#fffdb2" opacity="1.00" stroke="#fffdb2" stroke-width="0.25" data-index="1" style="opacity: 1; visibility: hidden;"></path>
<path d="M 87.95 139.66 C 197.62 139.66 307.29 139.68 416.96 139.65 C 419.56 139.63 422.16 139.54 424.76 139.40 C 427.07 142.86 426.21 147.13 426.29 151.03 C 426.16 202.67 426.38 254.32 426.19 305.96 C 425.80 318.66 426.48 331.36 426.26 344.06 C 426.03 351.53 426.91 359.06 425.65 366.47 C 368.76 366.12 311.86 366.45 254.97 366.31 C 199.19 366.36 143.41 366.25 87.63 366.39 C 87.21 362.60 86.70 358.80 86.66 354.98 C 86.62 283.93 86.73 212.88 86.62 141.83 C 86.95 141.29 87.62 140.20 87.95 139.66 Z" fill="#ffe934" opacity="1.00" stroke="#ffe934" stroke-width="0.25" data-index="2"></path>
</svg>