<?xml version="1.0" encoding="utf-8"?>
<svg xmlns="http://www.w3.org/2000/svg" height="512pt" version="1.1" viewBox="0 0 512 512" width="512pt">
<path d="M 0.00 0.00 L 512.00 0.00 L 512.00 512.00 L 0.00 512.00 L 0.00 0.00 Z" fill="transparent" opacity="1.00" stroke="transparent" stroke-width="0.25"/>
<path d="M 217.92 134.78 C 223.88 127.07 233.39 122.79 242.97 121.97 C 260.86 120.18 280.27 127.79 290.11 143.28 C 298.71 140.64 308.62 141.50 315.98 146.93 C 321.14 150.43 324.56 155.91 326.69 161.67 C 332.67 160.16 339.47 160.59 344.41 164.64 C 348.24 167.30 350.35 171.65 351.35 176.10 C 354.81 175.36 358.37 174.35 361.91 175.17 C 368.74 176.20 374.62 181.09 377.31 187.40 C 380.85 187.24 384.59 186.82 387.92 188.37 C 393.67 190.65 397.76 196.32 398.12 202.50 C 404.40 202.64 411.11 204.83 414.88 210.15 C 418.51 215.43 418.44 222.35 416.28 228.19 C 420.20 228.28 424.13 228.18 428.05 228.29 C 429.38 228.42 431.42 228.31 431.77 230.02 C 432.18 233.55 431.24 237.04 430.69 240.50 C 424.45 274.66 410.52 308.05 387.10 334.02 C 370.79 352.28 350.34 366.81 327.70 376.12 C 327.60 380.04 327.92 383.99 327.54 387.90 C 327.26 390.00 324.67 389.98 323.07 390.11 C 297.04 389.65 271.00 390.14 244.97 389.90 C 229.66 389.67 214.36 390.46 199.05 389.91 C 195.23 389.85 191.42 390.04 187.61 390.32 C 186.71 389.37 185.22 388.64 185.35 387.12 C 185.10 383.43 185.29 379.73 185.22 376.04 C 163.21 366.16 142.86 352.18 126.84 334.05 C 105.46 310.24 91.73 280.24 85.06 249.09 C 83.86 242.34 81.53 235.54 82.54 228.62 C 84.41 228.43 86.28 228.30 88.15 228.19 C 88.78 216.24 99.15 206.95 110.61 205.33 C 109.86 198.41 111.59 190.68 117.26 186.17 C 122.28 181.59 129.64 180.53 136.05 182.35 C 138.53 173.67 147.03 167.70 156.00 168.01 C 158.88 161.40 163.73 155.52 170.26 152.27 C 175.16 149.75 180.68 148.96 186.11 148.56 C 189.45 140.50 197.37 134.57 206.06 133.71 C 210.05 133.10 214.01 134.08 217.92 134.78 Z" fill="#09416c" opacity="1.00" stroke="#09416c" stroke-width="0.25"/>
<path d="M 237.02 129.63 C 251.57 125.73 267.92 129.86 279.04 139.97 C 282.46 143.04 284.88 146.96 287.43 150.74 C 291.64 150.18 295.59 148.02 299.96 148.42 C 308.20 148.44 316.73 153.27 319.83 161.13 C 321.06 163.91 321.31 167.20 323.49 169.48 C 329.24 167.51 336.57 165.92 341.55 170.44 C 346.35 174.37 344.99 181.14 345.23 186.56 C 345.77 186.52 346.85 186.44 347.38 186.40 C 351.65 182.83 357.45 179.95 363.05 182.09 C 368.83 183.69 371.71 189.46 373.88 194.55 C 378.61 193.47 384.31 191.91 388.36 195.56 C 392.80 198.73 392.35 204.63 392.40 209.44 C 397.80 209.39 404.42 207.76 408.48 212.43 C 413.01 216.57 412.08 223.44 409.48 228.37 C 304.61 228.18 199.74 228.30 94.88 228.31 C 94.90 226.61 94.95 224.89 94.46 223.25 C 94.80 223.09 95.47 222.76 95.81 222.60 C 97.68 219.34 100.23 216.42 103.60 214.65 C 107.72 212.09 112.71 212.13 117.35 211.33 C 116.58 205.95 115.56 200.15 118.07 195.06 C 119.98 190.39 125.17 187.98 129.99 187.91 C 133.56 188.20 136.86 189.69 140.24 190.76 C 141.81 186.36 142.12 181.07 145.94 177.86 C 149.93 174.43 155.55 174.15 160.56 174.47 C 162.80 168.02 166.46 161.55 172.83 158.44 C 178.09 155.30 184.37 155.05 190.32 155.51 C 191.53 150.99 193.49 146.33 197.65 143.77 C 204.07 138.85 213.00 139.53 220.00 142.79 C 223.96 136.64 229.84 131.52 237.02 129.63 Z" fill="#fef7e5" opacity="1.00" stroke="#fef7e5" stroke-width="0.25"/>
<path d="M 249.41 142.54 C 254.00 141.71 255.60 147.06 257.69 150.09 C 256.85 150.53 256.01 150.97 255.18 151.41 C 252.89 148.71 250.87 145.78 249.41 142.54 Z" fill="#e5b344" opacity="1.00" stroke="#e5b344" stroke-width="0.25"/>
<path d="M 241.13 146.52 C 245.21 145.18 246.88 149.59 249.01 152.10 C 250.39 153.62 250.67 155.66 250.97 157.61 C 250.43 157.56 249.33 157.45 248.79 157.40 C 246.09 153.88 243.12 150.52 241.13 146.52 Z" fill="#e9b03f" opacity="1.00" stroke="#e9b03f" stroke-width="0.25"/>
<path d="M 277.02 157.94 C 278.00 156.85 279.66 157.69 280.90 157.54 C 278.54 160.92 275.99 164.22 272.88 166.94 C 271.72 168.10 268.32 168.58 269.68 165.90 C 271.75 162.93 274.43 160.44 277.02 157.94 Z" fill="#eeb736" opacity="1.00" stroke="#eeb736" stroke-width="0.25"/>
<path d="M 219.57 160.29 C 223.62 161.82 227.99 162.97 231.23 166.03 C 230.65 166.36 229.48 167.03 228.90 167.37 C 225.53 166.58 222.54 164.74 219.41 163.33 C 219.46 162.31 219.51 161.30 219.57 160.29 Z" fill="#eab644" opacity="1.00" stroke="#eab644" stroke-width="0.25"/>
<path d="M 283.74 170.39 C 287.58 166.67 292.13 161.75 297.99 162.56 C 295.55 166.06 291.82 168.27 288.11 170.21 C 286.78 171.03 285.16 170.39 283.74 170.39 Z" fill="#e6b23a" opacity="1.00" stroke="#e6b23a" stroke-width="0.25"/>
<path d="M 195.21 172.55 C 195.34 171.43 195.49 170.31 195.63 169.19 C 202.62 173.22 209.51 177.42 216.23 181.87 C 217.71 182.56 217.17 184.33 217.40 185.62 C 209.35 182.50 202.82 176.54 195.21 172.55 Z" fill="#e8b13e" opacity="1.00" stroke="#e8b13e" stroke-width="0.25"/>
<path d="M 172.60 173.62 C 173.01 173.66 173.84 173.74 174.25 173.78 C 175.00 174.68 175.76 175.58 176.52 176.49 C 176.37 177.56 176.23 178.64 176.08 179.72 C 174.88 179.02 173.68 178.32 172.48 177.61 C 172.52 176.28 172.56 174.95 172.60 173.62 Z" fill="#eeb657" opacity="1.00" stroke="#eeb657" stroke-width="0.25"/>
<path d="M 304.53 187.44 C 305.14 187.44 306.35 187.43 306.96 187.43 C 306.60 188.80 306.48 190.32 305.50 191.43 C 302.86 194.87 300.24 198.34 297.41 201.64 C 296.36 201.47 295.32 201.31 294.28 201.15 C 296.78 195.96 301.17 192.04 304.53 187.44 Z" fill="#e8b042" opacity="1.00" stroke="#e8b042" stroke-width="0.25"/>
<path d="M 236.09 194.13 C 238.67 191.89 240.69 188.56 244.01 187.45 C 244.51 187.79 245.52 188.47 246.02 188.81 C 238.98 195.87 232.13 203.15 224.84 209.95 C 223.69 211.32 222.12 210.23 221.05 209.41 C 225.89 204.15 231.13 199.27 236.09 194.13 Z" fill="#eab33b" opacity="1.00" stroke="#eab33b" stroke-width="0.25"/>
<path d="M 318.06 189.70 C 319.10 189.45 320.15 189.27 321.21 189.16 C 324.88 193.98 329.19 198.25 332.99 202.96 C 334.24 204.06 333.43 205.73 333.41 207.12 C 327.57 202.05 322.26 196.21 318.06 189.70 Z" fill="#ecb137" opacity="1.00" stroke="#ecb137" stroke-width="0.25"/>
<path d="M 162.25 190.20 L 163.00 189.33 C 166.51 190.09 163.51 193.73 162.45 195.42 C 159.00 199.58 157.07 205.15 152.90 208.56 C 150.23 207.92 152.06 205.40 152.81 203.92 C 155.77 199.22 158.88 194.60 162.25 190.20 Z" fill="#f0b53c" opacity="1.00" stroke="#f0b53c" stroke-width="0.25"/>
<path d="M 248.56 205.32 C 249.65 202.19 248.25 196.92 252.57 196.07 C 252.79 199.34 252.50 202.63 251.72 205.82 C 250.66 205.65 249.61 205.48 248.56 205.32 Z" fill="#e9b041" opacity="1.00" stroke="#e9b041" stroke-width="0.25"/>
<path d="M 173.41 201.55 C 174.08 201.49 175.42 201.39 176.09 201.33 C 175.19 205.45 171.41 209.81 166.92 209.61 C 168.46 206.46 170.91 203.94 173.41 201.55 Z" fill="#e8b433" opacity="1.00" stroke="#e8b433" stroke-width="0.25"/>
<path d="M 303.29 205.47 C 305.63 203.75 308.15 202.15 311.14 201.93 C 310.90 203.79 310.21 205.62 308.41 206.48 C 306.96 207.19 305.20 209.16 303.65 207.70 C 303.56 207.14 303.38 206.03 303.29 205.47 Z" fill="#e9b43f" opacity="1.00" stroke="#e9b43f" stroke-width="0.25"/>
<path d="M 136.16 204.19 C 139.63 204.77 142.44 206.97 145.28 208.90 C 145.34 209.37 145.48 210.31 145.55 210.79 C 141.72 210.76 135.57 209.09 136.16 204.19 Z" fill="#e9b540" opacity="1.00" stroke="#e9b540" stroke-width="0.25"/>
<path d="M 263.37 205.92 C 266.41 205.14 269.42 204.27 272.42 203.36 C 272.55 204.39 272.68 205.43 272.81 206.47 C 269.94 207.41 267.02 208.58 263.94 208.35 C 263.72 207.54 263.53 206.73 263.37 205.92 Z" fill="#edad2c" opacity="1.00" stroke="#edad2c" stroke-width="0.25"/>
<path d="M 345.71 211.00 C 351.92 209.17 357.34 205.20 363.76 204.07 C 363.64 205.06 363.53 206.04 363.41 207.04 C 357.32 209.17 351.84 213.28 345.28 213.88 C 345.42 212.91 345.56 211.95 345.71 211.00 Z" fill="#e8b537" opacity="1.00" stroke="#e8b537" stroke-width="0.25"/>
<path d="M 195.71 208.63 C 197.41 208.39 199.12 208.16 200.83 207.93 C 200.68 209.10 200.53 210.27 200.38 211.44 C 198.74 211.49 197.10 211.53 195.47 211.58 C 195.55 210.59 195.63 209.61 195.71 208.63 Z" fill="#e7b949" opacity="1.00" stroke="#e7b949" stroke-width="0.25"/>
<path d="M 223.33 216.10 C 229.32 216.32 235.20 217.67 241.04 218.92 C 241.44 219.84 241.78 220.79 242.05 221.76 C 235.73 221.77 229.65 219.81 223.51 218.55 C 223.46 217.94 223.37 216.71 223.33 216.10 Z" fill="#e8b433" opacity="1.00" stroke="#e8b433" stroke-width="0.25"/>
<path d="M 357.64 217.89 C 362.90 216.48 368.38 216.04 373.82 216.01 C 373.80 216.69 373.77 218.06 373.75 218.74 C 368.41 219.59 363.01 220.35 357.59 220.36 C 357.60 219.74 357.63 218.51 357.64 217.89 Z" fill="#eeb736" opacity="1.00" stroke="#eeb736" stroke-width="0.25"/>
<path d="M 90.12 235.37 C 160.57 235.42 231.02 235.44 301.47 235.36 C 301.05 259.66 294.19 284.14 279.93 304.00 C 268.52 320.29 252.69 333.30 234.76 341.85 C 213.89 351.77 190.13 355.31 167.23 352.70 C 165.24 352.34 163.27 351.89 161.30 351.45 L 160.98 351.97 L 160.17 352.18 C 155.90 352.05 153.07 348.50 149.89 346.15 C 124.46 325.64 106.50 296.80 96.95 265.73 C 94.22 255.72 91.10 245.73 90.12 235.37 Z" fill="#e9fbff" opacity="1.00" stroke="#e9fbff" stroke-width="0.25"/>
<path d="M 303.22 235.34 C 343.58 235.53 383.95 235.20 424.31 235.48 C 420.31 258.01 413.43 280.22 402.18 300.23 C 392.34 318.17 378.87 334.07 363.02 346.98 C 353.31 354.73 342.60 361.12 331.46 366.58 C 327.39 368.06 323.55 370.74 319.05 370.54 C 277.71 370.49 236.38 370.48 195.04 370.54 C 193.16 370.51 191.25 370.42 189.50 369.67 C 182.64 366.86 176.01 363.49 169.60 359.77 C 166.52 357.90 163.51 355.90 160.38 354.10 L 161.11 353.70 C 161.08 353.27 161.01 352.40 160.98 351.97 L 161.30 351.45 C 163.27 351.89 165.24 352.34 167.23 352.70 C 165.38 352.52 163.56 352.84 162.04 353.94 C 184.32 356.93 207.48 354.81 228.43 346.45 C 250.34 337.71 269.61 322.34 282.77 302.75 C 296.34 283.06 302.75 259.10 303.22 235.34 Z" fill="#a0ebfe" opacity="1.00" stroke="#a0ebfe" stroke-width="0.25"/>
<path d="M 337.55 257.58 C 345.59 257.19 353.65 257.57 361.71 257.47 C 361.59 258.47 361.48 259.47 361.37 260.48 C 353.38 260.64 345.39 260.75 337.40 260.46 C 337.45 259.50 337.49 258.54 337.55 257.58 Z" fill="#f2ffff" opacity="1.00" stroke="#f2ffff" stroke-width="0.25"/>
<path d="M 117.29 260.22 C 138.43 260.08 159.57 260.07 180.70 260.23 C 180.72 260.86 180.74 262.13 180.76 262.77 C 159.59 263.29 138.41 262.84 117.23 262.83 C 117.25 262.18 117.28 260.88 117.29 260.22 Z" fill="#063b5b" opacity="1.00" stroke="#063b5b" stroke-width="0.25"/>
<path d="M 159.50 286.77 C 159.78 285.49 159.95 283.33 161.91 283.86 C 170.84 283.73 179.77 283.87 188.70 283.84 C 188.73 284.50 188.78 285.83 188.81 286.49 C 179.08 287.24 169.26 286.65 159.50 286.77 Z" fill="#083959" opacity="1.00" stroke="#083959" stroke-width="0.25"/>
<path d="M 316.71 288.09 C 325.41 287.24 334.19 287.95 342.93 287.70 C 348.37 287.93 354.08 286.82 359.26 289.00 C 357.40 291.16 354.48 290.66 351.96 290.72 C 340.95 290.54 329.93 290.73 318.92 290.64 C 317.32 290.90 315.77 289.81 316.71 288.09 Z" fill="#f5ffff" opacity="1.00" stroke="#f5ffff" stroke-width="0.25"/>
<path d="M 171.54 312.37 C 178.01 312.21 184.50 312.27 190.97 312.31 C 190.85 313.32 190.73 314.32 190.60 315.33 C 184.29 315.25 177.98 315.34 171.67 315.29 C 171.62 314.31 171.58 313.34 171.54 312.37 Z" fill="#0b375a" opacity="1.00" stroke="#0b375a" stroke-width="0.25"/>
<path d="M 328.10 314.87 C 333.01 314.28 337.97 314.27 342.89 314.87 C 342.79 315.55 342.61 316.91 342.51 317.58 C 337.76 317.81 333.01 317.84 328.26 317.67 C 328.22 316.97 328.14 315.57 328.10 314.87 Z" fill="#f2ffff" opacity="1.00" stroke="#f2ffff" stroke-width="0.25"/>
<path d="M 169.60 359.77 C 176.01 363.49 182.64 366.86 189.50 369.67 C 191.25 370.42 193.16 370.51 195.04 370.54 C 236.38 370.48 277.71 370.49 319.05 370.54 C 323.55 370.74 327.39 368.06 331.46 366.58 L 333.36 366.77 C 330.95 369.59 326.96 369.92 324.19 372.23 C 322.58 373.35 321.20 375.25 319.02 375.01 C 310.68 375.11 302.33 375.05 293.99 374.90 C 289.07 374.65 284.10 375.53 279.49 377.22 C 280.55 377.25 281.62 377.28 282.70 377.30 C 281.88 379.01 281.07 380.72 280.26 382.43 C 281.99 383.50 283.63 385.35 285.88 384.83 C 288.63 384.60 291.32 383.99 294.04 383.55 C 291.88 383.11 289.72 382.62 287.60 382.02 C 291.89 382.02 296.19 381.93 300.48 382.08 C 301.72 382.20 303.02 382.96 304.28 382.41 C 304.54 381.06 304.66 379.69 304.80 378.33 C 310.44 377.65 316.14 377.80 321.78 378.50 C 321.95 380.21 322.12 381.93 322.30 383.66 C 323.19 383.58 324.08 383.52 324.98 383.45 C 324.95 384.94 324.92 386.43 324.90 387.92 C 280.93 388.15 236.96 387.86 193.00 388.04 C 191.20 388.00 189.38 387.94 187.65 387.43 C 186.19 383.36 187.70 379.03 187.22 374.86 C 185.77 373.75 184.14 372.92 182.56 372.03 C 182.84 370.99 183.26 369.98 183.36 368.91 C 179.15 366.53 174.24 365.53 170.34 362.60 C 169.20 362.06 169.70 360.73 169.60 359.77 Z" fill="#08436f" opacity="1.00" stroke="#08436f" stroke-width="0.25"/>
<path d="M 286.70 380.13 C 291.91 380.06 297.18 379.77 302.38 380.24 C 302.62 380.65 303.11 381.46 303.36 381.87 C 302.64 381.92 301.20 382.02 300.48 382.08 C 296.19 381.93 291.89 382.02 287.60 382.02 L 286.58 381.99 C 286.61 381.53 286.67 380.60 286.70 380.13 Z" fill="#9bc0d9" opacity="1.00" stroke="#9bc0d9" stroke-width="0.25"/>
</svg>