<svg xmlns="http://www.w3.org/2000/svg" height="512pt" version="1.1" viewBox="0 0 512 512" width="512pt">

<path d="M 146.73 100.54 C 149.95 100.39 153.46 99.89 156.34 101.69 C 161.54 104.42 164.29 109.87 167.21 114.69 C 172.79 109.67 177.87 103.88 184.79 100.64 C 187.20 100.51 189.65 100.26 192.06 100.65 C 195.69 102.03 198.81 104.81 200.70 108.18 C 200.60 108.95 200.38 110.48 200.27 111.25 C 196.57 109.16 194.68 104.18 190.09 103.78 C 183.92 103.20 179.30 108.26 175.06 111.98 C 172.36 114.26 169.65 118.78 165.54 117.34 C 162.13 113.76 160.60 108.57 156.41 105.66 C 153.16 103.15 148.41 102.94 144.93 105.08 C 140.11 108.76 137.29 114.25 134.20 119.32 C 132.04 123.05 127.08 124.69 123.12 122.97 C 116.76 120.36 113.50 113.74 107.81 110.20 C 104.86 108.29 101.23 108.91 97.99 109.51 C 93.42 110.30 89.21 112.29 84.81 113.64 C 84.59 112.66 84.38 111.69 84.17 110.71 C 90.62 107.61 97.68 104.98 104.95 105.65 C 112.62 106.93 116.33 114.61 122.24 118.74 C 124.80 120.59 129.13 121.11 130.91 117.94 C 135.13 111.34 138.87 103.46 146.73 100.54 Z" fill="#0d3150" opacity="1.00" stroke="#0d3150" stroke-width="0.25" data-index="1" style="visibility: hidden; opacity: 1;"></path>
<path d="M 254.23 107.31 C 264.14 102.73 275.91 104.61 285.21 109.78 C 291.92 113.45 297.15 119.26 303.84 122.96 C 307.62 124.91 311.66 126.32 315.48 128.22 C 319.96 136.26 320.59 145.84 325.21 153.84 C 329.34 163.09 336.68 170.21 343.38 177.59 C 354.03 190.61 363.34 204.74 374.91 217.02 C 382.67 226.19 391.63 234.33 398.85 243.97 C 402.72 249.01 404.64 255.19 406.33 261.24 C 409.54 274.34 410.82 287.84 414.17 300.92 C 417.91 317.13 423.42 332.85 428.84 348.56 C 437.07 348.60 445.26 347.74 453.49 347.52 C 456.17 349.27 457.08 352.28 456.01 355.31 C 453.26 356.81 450.10 357.09 447.04 357.21 C 392.74 359.72 338.37 360.56 284.01 360.45 C 217.99 360.50 151.96 359.51 86.03 356.04 C 78.78 355.36 71.41 355.64 64.25 354.07 C 62.60 351.08 62.89 346.67 66.75 345.66 C 72.03 345.87 77.30 346.57 82.59 346.75 C 89.98 316.18 95.17 285.14 99.69 254.03 C 101.20 244.15 102.45 233.97 106.98 224.92 C 110.20 219.09 114.70 214.05 119.93 209.95 C 132.03 200.25 145.33 192.15 157.38 182.38 C 169.81 172.16 181.15 160.65 194.10 151.05 C 203.77 143.55 214.23 137.17 224.27 130.21 C 229.73 126.43 234.70 122.03 239.86 117.86 C 244.35 113.98 248.63 109.60 254.23 107.31 Z" fill="#0d3150" opacity="1.00" stroke="#0d3150" stroke-width="0.25" data-index="2" style="opacity: 1;"></path>
<path d="M 246.00 124.07 C 251.12 119.35 256.85 114.42 264.08 113.69 C 271.01 113.01 278.01 115.35 283.72 119.20 C 289.99 123.18 295.21 128.73 302.04 131.82 C 304.46 133.12 307.29 133.75 309.40 135.53 C 311.75 141.23 312.47 147.49 315.07 153.12 C 318.00 159.45 321.21 165.78 325.82 171.08 C 329.70 175.91 334.30 180.10 338.07 185.02 C 343.98 192.15 349.18 199.83 354.90 207.10 C 361.85 215.77 369.26 224.06 376.86 232.16 C 383.31 239.75 391.41 246.28 395.43 255.64 C 396.83 260.69 395.83 265.93 395.76 271.07 C 395.56 279.57 394.81 288.36 391.05 296.12 C 387.03 303.44 381.20 309.96 373.72 313.83 C 359.54 321.47 341.81 321.54 327.29 314.73 C 322.18 312.67 316.34 308.85 310.86 311.96 C 303.23 316.34 298.16 323.89 291.19 329.15 C 285.12 334.21 277.38 336.47 269.94 338.65 C 255.65 342.52 240.81 344.55 225.99 344.14 C 211.97 343.85 198.05 341.44 184.01 341.67 C 175.48 341.67 167.07 345.47 158.55 343.44 C 149.48 341.24 142.43 334.50 137.10 327.15 C 135.72 324.70 135.62 321.76 135.57 319.03 C 135.65 308.94 139.19 299.11 138.20 288.98 C 137.74 283.29 136.47 277.06 132.01 273.09 C 128.78 270.57 124.07 269.63 122.29 265.55 C 118.64 258.10 122.19 249.84 121.61 242.04 C 121.34 237.11 118.53 232.74 114.88 229.59 C 117.23 224.43 121.17 220.15 125.59 216.67 C 139.53 205.84 154.64 196.56 167.96 184.94 C 174.46 179.48 180.67 173.71 187.04 168.11 C 196.80 159.69 207.20 152.04 218.00 145.02 C 227.87 138.80 237.30 131.86 246.00 124.07 Z" fill="#a6b9c8" opacity="1.00" stroke="#a6b9c8" stroke-width="0.25" data-index="3" style="opacity: 1;"></path>

<path d="M 104.25 169.39 C 106.57 165.74 110.97 164.10 115.04 163.35 C 115.41 165.44 115.47 167.62 116.21 169.63 C 118.44 171.43 120.75 168.91 122.50 167.60 C 125.10 165.39 128.86 162.54 132.27 164.84 C 129.84 165.83 127.10 166.32 125.07 168.10 C 122.69 170.05 120.18 172.57 116.84 172.30 C 113.73 171.41 113.85 167.82 113.24 165.27 C 110.31 166.77 107.57 168.82 104.25 169.39 Z" fill="#0d3150" opacity="1.00" stroke="#0d3150" stroke-width="0.25" data-index="5" style="visibility: hidden; opacity: 1;"></path>

<path d="M 203.26 179.34 C 208.51 175.80 215.71 174.24 221.43 177.64 C 226.04 180.38 231.87 183.86 231.89 189.94 C 232.07 200.07 228.05 209.69 223.66 218.61 C 220.43 225.40 214.34 230.05 209.81 235.88 C 206.13 240.81 200.39 243.95 194.38 245.03 C 194.45 243.98 194.51 242.93 194.58 241.88 C 199.13 240.48 203.58 238.33 206.58 234.51 C 209.76 230.44 213.31 226.70 216.85 222.95 C 222.83 214.76 226.38 204.97 228.20 195.05 C 228.65 191.82 229.31 187.78 226.46 185.43 C 222.75 182.13 218.19 178.60 212.90 179.30 C 209.03 179.63 205.76 181.98 202.09 183.02 C 202.47 181.83 201.86 180.01 203.26 179.34 Z" fill="#0d3150" opacity="1.00" stroke="#0d3150" stroke-width="0.25" data-index="7"></path>
<path d="M 261.90 238.06 C 270.53 232.13 280.40 227.06 291.08 226.83 C 295.31 227.58 298.46 230.88 302.43 232.33 C 309.30 234.92 316.38 236.91 323.46 238.84 C 323.44 239.83 323.44 240.83 323.43 241.83 C 316.62 240.85 310.06 238.60 303.57 236.41 C 299.67 235.16 296.47 232.55 292.88 230.72 C 288.67 229.49 284.29 231.07 280.22 232.16 C 274.38 233.79 269.62 237.76 264.05 239.97 C 263.51 239.50 262.44 238.54 261.90 238.06 Z" fill="#0d3150" opacity="1.00" stroke="#0d3150" stroke-width="0.25" data-index="8"></path>
<path d="M 113.33 231.91 C 115.77 235.50 118.51 239.37 118.13 243.95 C 117.76 252.01 115.49 260.82 119.82 268.24 C 122.41 273.76 130.20 273.79 132.46 279.61 C 136.56 289.55 134.27 300.65 132.54 310.87 C 130.75 320.45 132.51 330.26 135.65 339.36 C 136.52 341.43 136.87 344.12 138.89 345.41 C 141.10 346.66 140.67 343.49 140.46 342.39 C 139.17 337.37 135.89 332.50 137.10 327.15 C 142.43 334.50 149.48 341.24 158.55 343.44 C 167.07 345.47 175.48 341.67 184.01 341.67 C 198.05 341.44 211.97 343.85 225.99 344.14 C 240.81 344.55 255.65 342.52 269.94 338.65 C 277.38 336.47 285.12 334.21 291.19 329.15 C 298.16 323.89 303.23 316.34 310.86 311.96 C 316.34 308.85 322.18 312.67 327.29 314.73 C 341.81 321.54 359.54 321.47 373.72 313.83 C 381.20 309.96 387.03 303.44 391.05 296.12 C 394.81 288.36 395.56 279.57 395.76 271.07 C 395.83 265.93 396.83 260.69 395.43 255.64 C 397.40 259.22 398.00 263.29 398.78 267.24 C 401.26 280.84 403.24 294.55 406.95 307.89 C 410.04 321.96 415.44 335.36 419.22 349.23 C 336.18 351.88 253.07 352.03 170.02 349.99 C 158.02 349.45 145.99 349.77 134.00 348.94 C 119.99 348.77 106.03 347.69 92.03 347.42 C 92.69 340.14 94.94 333.14 96.20 325.96 C 101.36 301.14 105.37 276.09 109.07 251.01 C 110.02 244.54 111.17 238.09 113.33 231.91 Z" fill="#5c7289" opacity="1.00" stroke="#5c7289" stroke-width="0.25" data-index="9" style="opacity: 1;"></path>
<path d="M 233.20 288.89 C 237.72 282.93 246.37 279.24 253.54 282.40 C 255.39 282.86 255.51 284.88 255.85 286.40 C 253.22 285.82 250.69 284.75 248.00 284.55 C 243.21 284.85 238.71 287.20 235.66 290.90 C 234.75 290.36 233.62 289.98 233.20 288.89 Z" fill="#0d3150" opacity="1.00" stroke="#0d3150" stroke-width="0.25" data-index="10"></path>

<path d="M 221.95 379.76 C 229.61 378.37 237.61 376.23 245.30 378.60 C 245.28 379.50 245.27 380.40 245.26 381.30 C 239.39 381.40 233.46 381.34 227.71 382.74 C 221.43 384.22 214.99 384.70 208.62 385.58 C 208.07 384.31 206.13 383.02 207.48 381.65 C 212.30 380.99 217.19 380.82 221.95 379.76 Z" fill="#ffffff" opacity="1.00" stroke="#ffffff" stroke-width="0.25" data-index="12" style="visibility: hidden; opacity: 1;"></path>

<path d="M 273.94 396.13 C 281.38 395.58 288.56 393.54 295.85 392.07 C 295.41 393.45 295.74 395.43 294.15 396.14 C 289.53 398.33 284.29 398.63 279.30 399.42 C 268.97 400.42 258.02 402.07 248.12 398.00 C 248.24 396.75 248.36 395.50 248.48 394.25 C 256.57 397.53 265.45 396.64 273.94 396.13 Z" fill="#ffffff" opacity="1.00" stroke="#ffffff" stroke-width="0.25" data-index="14" style="opacity: 1; visibility: hidden;"></path>
</svg>