<svg xmlns="http://www.w3.org/2000/svg" height="512pt" version="1.1" viewBox="0 0 512 512" width="512pt">
<path d="M 0.00 0.00 L 512.00 0.00 L 512.00 512.00 L 0.00 512.00 L 0.00 0.00 Z" fill="transparent" opacity="1.00" stroke="transparent" stroke-width="0.25" data-index="0" style="opacity: 1;"></path>
<path d="M 299.58 138.44 C 317.28 135.43 335.18 133.30 352.97 130.83 C 359.30 132.63 365.61 134.63 371.69 137.15 C 371.77 144.57 371.97 152.00 371.49 159.40 C 370.08 159.79 368.68 160.18 367.27 160.55 C 367.16 161.14 366.94 162.30 366.83 162.88 C 373.29 162.65 379.54 160.59 386.02 160.59 C 395.20 188.58 403.66 216.85 414.57 244.24 C 422.31 264.98 431.96 284.96 442.58 304.37 C 449.39 316.86 456.72 329.07 463.06 341.81 C 463.91 343.25 464.18 345.58 462.41 346.47 C 448.06 354.25 428.92 355.81 415.13 346.02 C 404.06 357.29 387.53 361.80 372.06 360.82 C 365.83 360.67 359.87 358.67 354.29 356.04 C 344.46 374.23 317.20 380.59 301.10 366.96 C 296.68 372.22 290.87 376.62 283.95 377.77 C 276.87 379.36 269.30 377.22 263.92 372.40 C 258.25 383.69 246.22 390.31 234.10 392.29 C 222.02 394.36 208.27 392.88 198.82 384.39 C 193.10 390.33 185.76 394.60 177.75 396.55 C 168.15 399.13 158.04 398.83 148.26 397.60 C 146.31 391.95 144.94 386.12 143.59 380.31 C 127.09 371.55 110.63 362.71 94.16 353.89 C 90.78 351.70 86.69 353.10 82.98 353.20 C 71.48 353.77 60.03 355.29 48.53 355.46 C 48.58 353.30 48.81 351.16 49.35 349.08 C 61.63 302.77 73.21 256.19 88.86 210.86 C 160.64 197.31 232.69 185.23 304.78 173.46 C 304.76 169.49 305.40 165.40 304.55 161.51 C 302.86 160.38 300.99 159.56 299.19 158.64 C 298.42 151.92 299.48 145.17 299.58 138.44 Z" fill="#032b4e" opacity="1.00" stroke="#032b4e" stroke-width="0.25" data-index="1" style="opacity: 1;"></path>
<path d="M 313.15 141.20 C 325.48 139.70 337.82 138.20 350.06 136.06 C 353.24 135.34 356.27 136.95 359.10 138.19 C 349.98 140.17 340.73 141.45 331.60 143.32 C 328.40 143.84 325.24 144.83 321.99 144.82 C 318.84 144.21 316.04 142.52 313.15 141.20 Z" fill="#9debff" opacity="1.00" stroke="#9debff" stroke-width="0.25" data-index="2"></path>
<path d="M 323.74 149.89 C 338.25 147.60 352.56 144.03 367.11 141.97 C 367.23 146.60 367.02 151.23 366.71 155.85 C 352.73 158.91 338.73 161.95 324.67 164.62 C 324.36 159.71 323.72 154.81 323.74 149.89 Z" fill="#9debff" opacity="1.00" stroke="#9debff" stroke-width="0.25" data-index="3"></path>
<path d="M 304.27 143.11 C 309.02 145.16 313.87 146.98 318.52 149.26 C 318.92 154.10 319.50 158.92 319.75 163.76 C 314.34 161.38 309.21 158.41 303.88 155.83 C 303.78 151.59 304.03 147.35 304.27 143.11 Z" fill="#9debff" opacity="1.00" stroke="#9debff" stroke-width="0.25" data-index="4"></path>
<path d="M 343.08 166.02 C 349.40 164.78 355.64 163.13 362.02 162.18 C 362.37 171.75 362.65 181.32 362.73 190.90 C 350.77 192.79 338.86 194.95 326.88 196.70 C 326.45 187.76 325.98 178.82 325.64 169.87 C 331.33 168.06 337.27 167.30 343.08 166.02 Z" fill="#89d542" opacity="1.00" stroke="#89d542" stroke-width="0.25" data-index="5" style="opacity: 1; visibility: visible; fill: rgb(157, 235, 255);"></path>
<path d="M 367.20 168.09 C 372.37 167.42 377.48 166.30 382.70 166.05 C 394.50 202.21 405.63 238.74 421.54 273.38 C 430.11 292.27 440.37 310.33 450.54 328.40 C 453.00 333.43 456.39 338.05 458.03 343.46 C 447.94 347.48 436.53 349.44 425.99 345.96 C 422.26 344.93 419.18 342.54 415.86 340.69 C 414.09 339.64 412.69 341.53 411.50 342.55 C 404.48 350.03 394.33 353.70 384.42 355.37 C 377.58 356.22 370.47 356.33 363.80 354.42 C 359.74 353.33 356.29 350.72 352.20 349.71 C 349.75 353.67 347.78 358.09 344.10 361.11 C 335.26 368.52 322.51 371.25 311.52 367.52 C 307.61 366.27 304.97 363.02 301.89 360.54 C 299.10 359.57 297.90 362.72 296.45 364.40 C 291.14 371.91 280.64 375.19 272.04 371.83 C 268.57 370.41 266.53 366.80 263.00 365.55 C 260.78 366.10 260.20 368.53 259.21 370.28 C 256.30 377.00 250.00 381.58 243.46 384.40 C 231.92 389.00 218.23 389.76 206.91 384.12 C 203.78 382.68 201.99 379.61 199.55 377.37 C 197.48 376.92 196.45 379.02 195.29 380.29 C 190.43 386.74 182.74 390.42 175.00 392.12 C 167.46 393.88 159.68 393.42 152.01 393.20 C 145.46 370.66 139.25 348.02 132.73 325.46 C 124.31 296.65 116.28 267.66 105.39 239.64 C 102.61 231.11 98.94 222.92 96.05 214.43 C 163.61 202.11 231.30 190.48 299.07 179.34 C 302.26 178.81 305.45 178.15 308.70 178.16 C 312.66 183.41 315.28 189.58 318.78 195.16 C 320.43 197.51 321.12 201.23 324.06 202.24 C 338.62 199.93 353.22 197.68 367.69 194.86 C 367.90 185.94 367.18 177.02 367.20 168.09 Z" fill="#9debff" opacity="1.00" stroke="#9debff" stroke-width="0.25" data-index="6" style="opacity: 1;"></path>
<path d="M 374.58 211.69 C 377.74 210.16 379.20 206.64 382.08 204.78 C 384.03 204.51 385.48 206.79 384.42 208.44 C 381.03 215.56 372.57 219.12 364.98 218.60 C 360.31 218.49 356.07 216.33 352.10 214.06 C 347.61 218.68 341.60 222.09 335.04 222.27 C 329.69 222.70 324.47 221.00 319.83 218.49 C 311.59 228.53 298.60 233.20 286.01 234.46 C 277.01 235.25 267.88 233.26 260.10 228.65 C 253.17 238.38 241.45 243.15 230.07 245.24 C 219.27 247.37 207.65 246.11 198.13 240.37 C 191.10 252.29 177.19 257.85 164.01 259.35 C 153.03 260.26 141.34 259.11 131.80 253.19 C 129.58 251.58 126.77 249.89 126.36 246.93 C 127.70 244.54 130.32 245.71 131.90 247.10 C 140.60 253.96 152.30 255.22 163.01 254.37 C 172.59 253.40 182.40 250.28 189.50 243.50 C 192.65 240.58 194.22 236.49 196.30 232.82 C 200.29 233.49 202.33 237.65 206.11 238.88 C 213.53 241.57 221.71 241.67 229.42 240.27 C 237.20 238.88 244.97 236.20 251.22 231.22 C 254.30 228.76 256.18 225.23 258.40 222.06 C 262.96 223.13 266.14 227.11 270.75 228.14 C 283.61 231.54 297.70 228.82 308.95 221.91 C 312.76 219.61 315.05 215.67 318.16 212.62 C 319.59 212.14 320.80 213.41 322.04 213.92 C 328.38 218.01 337.08 218.42 343.66 214.66 C 346.81 212.95 348.57 209.27 351.98 208.05 C 355.02 209.06 357.30 211.59 360.35 212.63 C 364.95 214.20 370.27 214.10 374.58 211.69 Z" fill="#032b4e" opacity="1.00" stroke="#032b4e" stroke-width="0.25" data-index="7" style="opacity: 1;"></path>
<path d="M 390.65 239.65 C 392.74 237.53 393.86 233.57 397.54 234.27 C 398.21 236.17 398.25 238.26 396.87 239.87 C 389.64 249.73 377.64 254.79 365.91 256.76 C 354.76 258.72 342.90 257.21 333.09 251.36 C 327.65 260.64 317.49 265.66 307.44 268.31 C 295.43 271.71 281.82 271.56 270.80 265.16 C 263.57 276.11 250.58 281.14 238.11 283.11 C 225.88 284.64 212.84 283.57 202.00 277.25 C 195.40 288.04 183.12 294.02 170.94 295.89 C 160.54 297.29 149.10 295.98 140.58 289.38 C 137.99 287.37 134.50 284.78 136.02 281.03 C 138.18 280.96 140.01 282.01 141.43 283.56 C 147.53 289.70 156.62 291.54 164.98 291.42 C 174.81 291.02 184.74 287.73 192.32 281.34 C 195.78 278.46 197.79 274.36 200.16 270.63 C 203.35 271.46 205.83 273.73 208.76 275.10 C 217.73 278.93 227.76 279.37 237.34 278.19 C 245.95 276.84 254.68 274.13 261.46 268.45 C 264.85 265.75 266.33 261.54 268.92 258.18 C 272.69 259.95 275.93 262.85 280.05 263.86 C 290.46 266.77 301.63 265.40 311.67 261.76 C 316.70 259.85 321.66 257.35 325.46 253.46 C 327.79 251.12 329.01 248.00 330.45 245.09 C 334.63 244.87 337.47 248.44 341.15 249.80 C 349.96 253.41 359.93 253.24 369.08 251.12 C 376.96 248.99 385.18 246.03 390.65 239.65 Z" fill="#032b4e" opacity="1.00" stroke="#032b4e" stroke-width="0.25" data-index="8" style="opacity: 1;"></path>
<path d="M 363.58 275.22 C 367.21 274.95 369.02 278.59 371.93 280.06 C 379.27 284.25 388.25 284.49 396.41 283.15 C 401.80 282.32 406.27 279.08 410.96 276.56 C 411.62 276.90 412.94 277.58 413.59 277.92 C 413.70 281.09 410.26 282.53 408.01 284.07 C 395.05 291.02 377.82 290.86 365.78 281.97 C 354.98 298.21 330.77 304.39 314.16 293.52 C 309.02 301.84 300.16 307.13 290.95 309.83 C 284.25 311.72 277.06 312.52 270.22 310.92 C 266.17 309.99 262.69 307.64 259.18 305.53 C 247.10 322.10 222.63 325.73 204.67 317.44 C 204.34 317.41 203.68 317.35 203.35 317.32 C 200.47 320.45 197.87 323.88 194.36 326.35 C 184.39 333.57 171.62 336.99 159.39 335.39 C 154.17 334.54 148.79 332.80 144.87 329.10 C 143.01 327.67 144.53 324.46 146.86 325.21 C 150.03 326.68 152.88 328.89 156.36 329.65 C 167.42 332.48 179.37 329.84 189.06 324.07 C 194.06 321.09 197.95 316.58 200.74 311.52 C 201.68 309.51 204.02 310.69 205.27 311.67 C 212.59 316.93 222.10 317.13 230.73 316.33 C 238.18 315.21 245.69 312.52 251.22 307.22 C 254.10 304.55 255.91 301.01 258.30 297.93 C 261.98 299.65 264.22 303.42 268.04 304.90 C 273.91 307.44 280.64 306.95 286.78 305.75 C 293.58 304.16 300.28 301.25 305.45 296.46 C 308.33 293.90 309.65 290.07 312.45 287.46 C 315.99 286.83 318.20 290.57 321.28 291.66 C 336.66 297.90 357.00 290.95 363.58 275.22 Z" fill="#032b4e" opacity="1.00" stroke="#032b4e" stroke-width="0.25" data-index="9" style="opacity: 1;"></path>
<path d="M 113.26 277.86 C 114.83 280.91 115.62 284.28 116.58 287.56 C 123.27 309.96 129.66 332.45 136.16 354.91 C 137.78 360.98 139.70 366.98 140.96 373.14 C 125.75 365.10 110.68 356.80 95.36 348.96 C 96.70 342.03 98.61 335.23 100.33 328.40 C 104.75 311.58 108.61 294.61 113.26 277.86 Z" fill="#ffffff" opacity="1.00" stroke="#ffffff" stroke-width="0.25" data-index="10" style="opacity: 1;"></path>
<path d="M 395.64 312.57 C 397.14 311.03 399.04 312.81 400.34 313.72 C 410.33 321.57 425.63 321.33 435.47 313.32 C 437.61 310.68 441.21 314.68 438.93 316.67 C 428.30 326.33 411.36 326.92 399.38 319.42 C 397.69 317.83 395.95 319.53 394.53 320.52 C 386.30 326.53 375.45 329.10 365.47 326.71 C 361.40 325.79 357.82 323.54 354.21 321.55 C 350.10 330.90 340.67 336.74 330.93 338.68 C 322.82 340.65 314.12 339.18 306.85 335.19 C 297.30 344.45 284.39 350.55 270.99 350.78 C 264.35 350.98 258.03 348.58 252.42 345.20 C 248.64 351.81 242.24 356.75 234.81 358.50 C 226.35 360.78 217.06 359.03 209.84 354.12 C 199.74 366.52 181.99 372.43 166.63 367.45 C 162.17 366.01 158.38 363.11 155.02 359.94 C 155.70 358.51 156.72 357.33 157.85 356.25 C 161.31 358.90 164.79 361.76 169.05 362.99 C 179.12 365.79 190.19 363.48 198.84 357.80 C 202.45 355.36 204.89 351.64 208.21 348.88 C 210.15 347.98 211.84 349.79 213.48 350.56 C 222.35 356.23 234.87 355.80 243.03 349.04 C 246.42 346.29 248.09 342.17 250.11 338.43 C 253.80 338.99 256.31 341.97 259.62 343.40 C 266.12 346.33 273.63 346.30 280.43 344.45 C 288.80 342.24 297.02 338.41 302.92 331.91 C 304.27 330.64 306.15 328.15 308.12 329.90 C 319.25 337.69 335.54 335.29 345.18 326.18 C 348.57 323.10 349.82 318.57 352.22 314.82 C 353.82 314.22 355.22 315.81 356.51 316.56 C 367.63 326.38 386.31 323.49 395.64 312.57 Z" fill="#032b4e" opacity="1.00" stroke="#032b4e" stroke-width="0.25" data-index="11" style="opacity: 1;"></path>
</svg>