<?xml version="1.0" encoding="utf-8"?>
<svg xmlns="http://www.w3.org/2000/svg" height="512pt" version="1.1" viewBox="0 0 512 512" width="512pt">
<path d="M 0.00 0.00 L 512.00 0.00 L 512.00 512.00 L 0.00 512.00 L 0.00 0.00 Z" fill="transparent" opacity="1.00" stroke="transparent" stroke-width="0.25"/>
<path d="M 123.76 79.47 C 135.88 79.32 147.90 81.67 160.03 81.26 C 190.35 81.80 220.68 81.84 250.99 81.14 C 258.97 80.40 266.99 80.83 274.98 80.67 C 281.03 81.05 287.09 81.82 293.15 81.01 C 306.68 82.05 320.30 81.09 333.84 81.92 C 327.94 84.66 321.18 83.93 314.86 84.73 C 312.42 85.13 309.94 85.37 307.47 85.02 C 302.00 84.52 296.55 85.63 291.10 85.94 C 274.71 87.06 258.41 89.26 241.98 89.56 C 219.00 90.65 195.99 90.93 172.98 90.80 C 165.84 90.87 158.66 90.19 151.57 91.36 C 173.64 93.42 195.86 92.99 218.01 93.13 C 236.33 92.14 254.73 92.69 273.01 90.92 C 285.69 89.09 298.60 88.92 311.17 86.35 C 327.70 84.36 344.39 82.98 361.06 83.02 C 363.90 83.07 366.43 81.68 368.71 80.13 C 369.89 80.65 371.08 81.18 372.27 81.70 C 372.84 91.13 372.45 100.57 372.58 110.01 C 372.52 122.85 372.77 135.70 372.47 148.54 C 368.81 152.89 364.24 156.32 360.51 160.60 C 354.02 168.41 346.44 175.21 339.96 183.01 C 334.05 188.56 329.45 195.26 324.46 201.60 C 319.12 208.11 315.03 215.49 310.23 222.39 C 301.60 232.22 296.20 244.27 289.26 255.24 C 281.61 270.45 275.08 286.19 268.66 301.94 C 267.47 305.93 266.32 309.94 265.28 313.98 C 263.33 322.91 259.82 331.43 258.12 340.43 C 255.51 353.89 252.37 367.32 251.42 381.04 C 249.69 396.98 250.82 413.07 249.39 429.04 C 248.05 425.76 247.76 422.19 247.03 418.76 C 245.90 425.84 246.89 433.02 246.25 440.12 C 245.94 438.67 245.50 437.22 245.53 435.73 C 246.56 434.76 246.80 431.65 244.68 432.92 L 244.68 432.92 C 244.21 430.42 243.66 427.95 243.21 425.45 C 243.08 424.79 242.84 423.47 242.72 422.80 C 242.00 422.71 240.56 422.51 239.84 422.41 C 238.49 425.79 237.57 429.35 237.60 433.02 C 237.53 438.43 236.47 443.75 235.70 449.09 C 236.56 442.05 234.78 435.09 234.62 428.07 C 234.40 421.76 231.91 415.63 232.78 409.27 C 233.22 405.80 233.50 402.30 233.12 398.81 C 228.25 405.54 229.79 414.35 227.47 421.93 C 226.04 425.33 223.10 427.99 222.30 431.69 C 221.20 436.30 220.60 441.02 219.47 445.63 C 219.21 446.53 218.98 447.45 218.80 448.38 C 217.28 441.07 217.74 433.57 217.86 426.17 C 217.92 425.67 218.02 424.69 218.08 424.19 C 215.11 424.37 212.15 424.70 209.21 425.15 C 208.37 431.35 206.88 437.49 206.81 443.77 C 206.82 447.32 206.43 450.87 205.43 454.28 C 204.55 453.07 203.70 451.85 202.84 450.64 C 202.73 451.35 202.51 452.77 202.40 453.48 C 201.93 453.73 200.98 454.25 200.51 454.50 C 200.33 454.96 199.96 455.86 199.78 456.32 C 199.42 452.16 199.33 447.99 199.05 443.83 C 198.30 446.61 197.65 449.41 196.95 452.20 C 196.21 447.18 196.19 442.06 194.99 437.10 C 193.86 440.43 194.04 444.09 192.68 447.35 C 192.51 446.06 192.49 444.77 192.64 443.48 C 193.49 438.54 193.90 433.51 193.42 428.50 C 190.29 432.43 190.94 437.81 189.80 442.47 C 186.53 437.08 186.74 430.75 185.54 424.79 C 185.07 425.32 184.14 426.38 183.67 426.91 C 183.08 425.96 182.50 425.02 181.91 424.09 C 179.32 424.71 176.73 425.27 174.14 425.87 C 174.46 411.46 174.86 397.07 176.21 382.71 C 176.57 367.36 179.07 352.13 182.82 337.26 C 183.97 329.95 186.18 322.89 188.08 315.75 C 187.37 316.88 186.66 318.01 186.01 319.17 C 191.62 301.91 198.06 284.84 207.18 269.09 C 210.24 262.62 214.15 256.61 217.38 250.22 C 222.26 239.31 229.59 229.78 235.71 219.57 C 241.99 211.09 247.20 201.87 253.81 193.64 C 261.31 183.27 268.68 172.75 277.46 163.41 C 283.18 156.87 288.90 150.34 294.90 144.05 C 277.72 146.84 260.33 147.98 242.96 148.81 C 233.70 149.86 224.35 149.26 215.08 150.09 C 198.39 151.00 181.74 148.99 165.04 149.36 C 148.95 147.87 132.66 148.77 116.67 146.20 C 124.80 145.15 133.04 145.90 141.19 145.03 C 136.92 144.34 132.66 143.39 128.31 143.41 L 127.99 142.87 C 127.18 141.53 126.41 140.16 125.69 138.77 C 131.74 137.52 137.94 137.52 144.08 137.72 C 143.01 137.20 141.93 136.69 140.86 136.17 C 141.91 135.97 142.97 135.78 144.03 135.60 C 139.40 135.09 135.26 132.72 130.66 132.10 C 129.86 132.01 128.25 131.82 127.45 131.72 C 130.97 131.51 134.51 131.46 138.01 130.98 C 138.85 130.06 139.50 128.99 140.18 127.95 C 135.92 127.18 131.58 127.23 127.30 126.60 C 130.96 125.72 134.71 126.04 138.43 126.07 C 133.72 121.82 126.41 125.84 121.25 122.69 C 119.04 120.78 121.37 118.68 122.73 117.18 C 125.71 117.32 128.71 117.26 131.68 116.95 C 133.46 116.80 135.20 116.32 136.93 115.88 C 133.82 114.28 130.32 114.00 126.91 113.72 C 127.72 111.36 129.01 109.20 130.70 107.36 C 127.48 105.31 124.33 102.86 123.93 98.74 C 128.05 98.32 132.12 97.54 136.25 97.12 C 130.46 96.52 124.79 95.18 119.22 93.53 C 122.20 93.30 125.19 93.20 128.17 93.54 C 129.24 92.77 130.21 91.88 131.08 90.88 C 128.58 89.74 126.15 88.44 123.82 86.99 C 127.34 86.57 130.43 84.43 134.01 84.41 C 137.04 84.23 140.08 84.23 143.11 84.00 C 136.77 81.93 129.60 83.04 123.76 79.47 Z" fill="#4fafdf" opacity="1.00" stroke="#4fafdf" stroke-width="0.25"/>
<path d="M 353.32 81.51 C 358.51 81.63 363.52 79.95 368.71 80.13 C 366.43 81.68 363.90 83.07 361.06 83.02 C 358.48 82.51 355.91 81.96 353.32 81.51 Z" fill="#84c7e7" opacity="1.00" stroke="#84c7e7" stroke-width="0.25"/>
<path d="M 291.10 85.94 C 296.55 85.63 302.00 84.52 307.47 85.02 C 308.72 85.42 309.95 85.86 311.17 86.35 C 298.60 88.92 285.69 89.09 273.01 90.92 C 254.73 92.69 236.33 92.14 218.01 93.13 C 195.86 92.99 173.64 93.42 151.57 91.36 C 158.66 90.19 165.84 90.87 172.98 90.80 C 195.99 90.93 219.00 90.65 241.98 89.56 C 258.41 89.26 274.71 87.06 291.10 85.94 Z" fill="#84c7e7" opacity="1.00" stroke="#84c7e7" stroke-width="0.25"/>
<path d="M 121.33 103.18 C 121.32 101.45 120.94 97.40 123.93 98.74 C 124.33 102.86 127.48 105.31 130.70 107.36 C 129.01 109.20 127.72 111.36 126.91 113.72 C 130.32 114.00 133.82 114.28 136.93 115.88 C 135.20 116.32 133.46 116.80 131.68 116.95 C 128.33 116.57 124.59 116.38 122.19 113.67 C 121.04 113.35 119.89 113.04 118.74 112.73 C 120.76 112.19 122.81 111.77 124.88 111.44 C 123.79 111.07 121.62 110.34 120.54 109.97 C 121.58 109.50 123.67 108.56 124.72 108.08 C 123.60 106.44 122.47 104.80 121.33 103.18 Z" fill="#84c7e7" opacity="1.00" stroke="#84c7e7" stroke-width="0.25"/>
<path d="M 353.97 106.19 C 354.12 106.85 354.42 108.17 354.57 108.83 C 356.33 107.82 358.13 106.86 359.83 105.73 C 358.97 106.82 358.37 108.06 358.14 109.44 C 352.28 110.40 346.39 111.22 340.51 112.03 L 340.63 111.19 L 340.78 110.60 C 342.43 109.53 344.29 110.96 346.04 110.87 C 348.51 110.34 350.94 109.62 353.45 109.21 C 353.58 108.46 353.84 106.95 353.97 106.19 Z" fill="#ffffff" opacity="1.00" stroke="#ffffff" stroke-width="0.25"/>
<path d="M 114.92 122.24 C 117.69 120.78 119.56 117.85 122.73 117.18 C 121.37 118.68 119.04 120.78 121.25 122.69 C 126.41 125.84 133.72 121.82 138.43 126.07 C 134.71 126.04 130.96 125.72 127.30 126.60 C 131.58 127.23 135.92 127.18 140.18 127.95 C 139.50 128.99 138.85 130.06 138.01 130.98 C 134.51 131.46 130.97 131.51 127.45 131.72 C 122.88 131.43 118.37 130.35 113.81 129.86 C 114.73 129.66 116.58 129.25 117.50 129.05 C 116.97 128.70 115.90 127.99 115.37 127.64 C 116.01 127.23 116.66 126.84 117.31 126.44 C 115.64 126.29 113.99 126.05 112.35 125.73 C 115.65 125.41 119.00 125.58 122.25 124.81 C 119.83 123.87 117.38 123.04 114.92 122.24 Z" fill="#84c7e7" opacity="1.00" stroke="#84c7e7" stroke-width="0.25"/>
<path d="M 130.66 132.10 C 135.26 132.72 139.40 135.09 144.03 135.60 C 142.97 135.78 141.91 135.97 140.86 136.17 C 141.93 136.69 143.01 137.20 144.08 137.72 C 137.94 137.52 131.74 137.52 125.69 138.77 C 126.41 140.16 127.18 141.53 127.99 142.87 C 127.30 142.82 125.91 142.71 125.22 142.65 C 124.89 141.78 124.57 140.92 124.25 140.06 C 121.88 139.72 119.32 139.64 117.39 138.02 C 120.39 135.43 124.30 135.23 128.07 135.38 C 128.94 134.29 129.80 133.20 130.66 132.10 Z" fill="#84c7e7" opacity="1.00" stroke="#84c7e7" stroke-width="0.25"/>
<path d="M 186.01 319.17 C 186.66 318.01 187.37 316.88 188.08 315.75 C 186.18 322.89 183.97 329.95 182.82 337.26 C 179.07 352.13 176.57 367.36 176.21 382.71 C 174.86 397.07 174.46 411.46 174.14 425.87 C 176.73 425.27 179.32 424.71 181.91 424.09 C 182.50 425.02 183.08 425.96 183.67 426.91 C 184.14 426.38 185.07 425.32 185.54 424.79 C 186.74 430.75 186.53 437.08 189.80 442.47 C 190.94 437.81 190.29 432.43 193.42 428.50 C 193.90 433.51 193.49 438.54 192.64 443.48 C 192.51 441.27 192.24 439.08 191.82 436.91 C 190.90 442.01 190.23 447.15 189.04 452.21 C 188.54 447.74 188.09 443.26 187.36 438.82 C 186.74 442.01 186.05 445.18 185.28 448.33 C 184.73 448.47 184.18 448.62 183.63 448.78 C 183.56 449.66 183.42 451.41 183.35 452.29 C 181.08 451.36 181.81 448.83 181.57 446.99 C 181.45 439.77 181.58 432.56 181.73 425.34 C 181.42 425.63 180.80 426.19 180.49 426.47 C 178.64 426.78 176.81 427.23 174.97 427.58 C 174.64 429.75 174.30 431.93 173.98 434.11 C 173.73 431.29 173.52 428.48 173.17 425.68 C 171.51 427.10 171.39 429.40 170.97 431.40 C 170.09 437.32 169.65 443.33 168.00 449.11 C 166.08 441.26 166.82 433.08 166.80 425.07 C 167.89 407.25 168.67 389.24 173.01 371.85 C 175.42 364.42 177.11 356.80 178.42 349.10 C 180.63 339.05 182.90 328.97 186.01 319.17 Z" fill="#84c7e7" opacity="1.00" stroke="#84c7e7" stroke-width="0.25"/>
<path d="M 227.47 421.93 C 229.79 414.35 228.25 405.54 233.12 398.81 C 233.50 402.30 233.22 405.80 232.78 409.27 C 231.91 415.63 234.40 421.76 234.62 428.07 C 234.78 435.09 236.56 442.05 235.70 449.09 C 236.47 443.75 237.53 438.43 237.60 433.02 C 237.57 429.35 238.49 425.79 239.84 422.41 C 240.56 422.51 242.00 422.71 242.72 422.80 C 242.84 423.47 243.08 424.79 243.21 425.45 C 242.59 425.44 241.37 425.42 240.75 425.41 C 237.97 436.75 238.22 448.66 234.99 459.88 C 234.70 456.89 234.01 453.97 233.61 451.00 C 233.19 444.68 233.75 438.34 233.29 432.03 C 232.70 429.36 231.37 425.27 227.82 426.26 C 224.12 428.15 225.89 432.74 225.07 435.99 C 224.00 440.26 224.37 444.68 223.88 449.03 C 223.74 446.56 223.61 444.07 223.48 441.62 C 222.08 442.89 220.63 444.12 219.47 445.63 C 220.60 441.02 221.20 436.30 222.30 431.69 C 223.10 427.99 226.04 425.33 227.47 421.93 Z" fill="#84c7e7" opacity="1.00" stroke="#84c7e7" stroke-width="0.25"/>
<path d="M 209.21 425.15 C 212.15 424.70 215.11 424.37 218.08 424.19 C 218.02 424.69 217.92 425.67 217.86 426.17 C 216.09 426.41 214.31 426.49 212.54 426.60 C 212.46 429.41 212.64 432.27 211.93 435.02 C 210.58 440.51 209.93 446.15 208.71 451.68 C 208.47 448.96 208.93 445.88 206.81 443.77 C 206.88 437.49 208.37 431.35 209.21 425.15 Z" fill="#84c7e7" opacity="1.00" stroke="#84c7e7" stroke-width="0.25"/>
<path d="M 244.68 432.92 C 246.80 431.65 246.56 434.76 245.53 435.73 C 245.32 435.03 244.89 433.62 244.68 432.92 Z" fill="#84c7e7" opacity="1.00" stroke="#84c7e7" stroke-width="0.25"/>
</svg>