<svg xmlns="http://www.w3.org/2000/svg" height="512pt" version="1.1" viewBox="0 0 512 512" width="512pt">
<path d="M 0.00 0.00 L 512.00 0.00 L 512.00 512.00 L 0.00 512.00 L 0.00 0.00 Z" fill="transparent" opacity="1.00" stroke="transparent" stroke-width="0.25" data-index="0" style="opacity: 1;"></path>
<path d="M 121.95 112.97 C 121.98 107.71 126.68 103.32 131.95 103.70 C 214.94 103.75 297.93 103.72 380.92 103.73 C 384.12 103.54 387.48 104.75 389.40 107.41 C 391.99 110.32 391.32 114.44 391.42 118.01 C 391.44 149.05 391.29 180.10 391.47 211.14 C 389.92 211.84 388.35 212.53 386.74 213.08 C 387.61 212.53 388.47 211.97 389.33 211.41 C 389.06 178.95 389.33 146.49 389.18 114.04 C 389.30 110.95 387.75 107.57 384.74 106.42 C 381.52 105.84 378.23 106.18 374.98 106.12 C 294.65 106.14 214.32 106.12 133.99 106.13 C 132.13 106.17 130.23 106.09 128.41 106.52 C 125.50 107.71 123.93 110.92 124.24 113.97 C 124.30 148.43 124.19 182.88 124.31 217.34 C 123.45 217.33 122.60 217.27 121.75 217.16 C 122.09 182.44 121.67 147.70 121.95 112.97 Z" fill="#002644" opacity="1.00" stroke="#002644" stroke-width="0.25" data-index="1" style="opacity: 1;"></path>
<path d="M 128.41 106.52 C 130.23 106.09 132.13 106.17 133.99 106.13 C 214.32 106.12 294.65 106.14 374.98 106.12 C 378.23 106.18 381.52 105.84 384.74 106.42 C 387.75 107.57 389.30 110.95 389.18 114.04 C 389.33 146.49 389.06 178.95 389.33 211.41 C 388.47 211.97 387.61 212.53 386.74 213.08 C 384.15 213.97 381.37 214.09 378.75 214.88 C 375.26 217.74 373.98 222.77 374.42 227.14 C 374.40 229.20 376.54 230.04 377.86 231.19 C 377.15 237.69 376.14 244.90 380.52 250.43 C 370.12 250.06 359.69 250.61 349.30 250.16 C 348.77 244.15 346.87 238.00 342.05 234.02 C 333.60 226.32 318.52 228.99 313.17 239.07 C 311.33 242.54 310.93 246.52 310.33 250.34 C 273.22 250.28 236.12 250.29 199.01 250.33 C 198.54 244.95 195.24 240.40 194.51 235.08 C 194.18 231.52 189.95 231.07 187.29 230.13 C 187.30 221.55 187.76 212.98 187.85 204.41 C 192.34 207.52 197.22 211.24 203.02 210.66 C 205.35 210.64 207.20 209.04 208.74 207.46 C 214.10 199.53 217.39 190.42 221.69 181.90 C 220.76 181.16 219.82 180.42 218.90 179.69 C 220.47 175.14 223.52 170.94 223.41 165.94 C 223.41 163.40 223.56 160.74 222.66 158.33 C 221.02 155.99 218.06 155.19 215.54 154.17 C 213.30 142.41 211.78 130.51 209.07 118.84 C 208.70 119.86 207.86 120.82 208.18 121.99 C 209.58 134.51 212.11 146.86 214.25 159.27 C 214.18 159.86 214.03 161.03 213.96 161.62 C 213.25 158.49 212.73 155.32 212.17 152.17 C 211.41 151.52 210.65 150.87 209.89 150.22 C 206.71 152.83 207.99 157.29 207.85 160.86 C 207.64 165.49 213.34 168.32 211.38 173.10 C 210.71 173.22 209.36 173.45 208.68 173.57 C 205.75 179.58 202.56 185.45 199.21 191.23 C 192.22 185.06 185.57 178.51 178.39 172.56 C 183.74 169.19 184.65 162.41 186.60 156.92 C 187.48 155.98 188.84 155.35 189.16 154.01 C 190.12 151.47 188.08 149.25 187.41 146.92 C 187.02 144.97 187.15 142.97 187.09 140.99 C 187.52 140.54 188.38 139.63 188.81 139.18 C 187.76 134.25 186.92 128.53 182.63 125.27 C 178.82 122.00 173.48 123.09 168.95 121.88 C 164.80 120.58 160.87 123.32 158.36 126.39 C 155.97 126.94 153.01 127.33 152.04 129.98 C 150.11 134.53 149.01 139.66 149.79 144.60 L 149.32 143.47 C 148.54 151.00 148.50 159.30 143.68 165.60 C 141.63 168.48 138.15 169.54 134.97 170.62 C 137.06 175.86 142.82 178.39 148.21 177.83 C 143.00 190.85 138.34 204.17 135.24 217.87 C 131.65 217.09 127.96 216.61 124.31 217.34 C 124.19 182.88 124.30 148.43 124.24 113.97 C 123.93 110.92 125.50 107.71 128.41 106.52 Z" fill="#84efff" opacity="1.00" stroke="#84efff" stroke-width="0.25" data-index="2" style="opacity: 1;"></path>
<path d="M 208.18 121.99 C 207.86 120.82 208.70 119.86 209.07 118.84 C 211.78 130.51 213.30 142.41 215.54 154.17 C 218.06 155.19 221.02 155.99 222.66 158.33 C 223.56 160.74 223.41 163.40 223.41 165.94 C 223.52 170.94 220.47 175.14 218.90 179.69 C 219.82 180.42 220.76 181.16 221.69 181.90 C 217.39 190.42 214.10 199.53 208.74 207.46 C 208.55 207.10 208.18 206.36 207.99 205.99 C 212.09 198.21 216.07 190.36 219.42 182.22 C 218.68 181.68 217.95 181.15 217.21 180.63 C 217.26 179.90 217.31 179.18 217.37 178.47 C 219.83 173.30 222.70 167.97 221.64 162.03 C 222.11 158.73 218.80 157.48 216.58 156.00 L 216.09 156.73 C 215.47 157.57 214.85 158.42 214.25 159.27 C 212.11 146.86 209.58 134.51 208.18 121.99 Z" fill="#002644" opacity="1.00" stroke="#002644" stroke-width="0.25" data-index="3"></path>
<path d="M 158.36 126.39 C 160.87 123.32 164.80 120.58 168.95 121.88 C 173.48 123.09 178.82 122.00 182.63 125.27 C 186.92 128.53 187.76 134.25 188.81 139.18 C 188.38 139.63 187.52 140.54 187.09 140.99 C 187.15 142.97 187.02 144.97 187.41 146.92 C 188.08 149.25 190.12 151.47 189.16 154.01 C 188.84 155.35 187.48 155.98 186.60 156.92 C 184.65 162.41 183.74 169.19 178.39 172.56 C 185.57 178.51 192.22 185.06 199.21 191.23 C 202.56 185.45 205.75 179.58 208.68 173.57 C 208.93 173.95 209.42 174.72 209.66 175.10 C 206.70 181.59 203.75 188.27 199.29 193.89 C 195.07 190.05 190.96 186.10 186.68 182.33 C 183.32 179.40 180.44 175.66 176.13 174.08 C 175.67 173.88 174.74 173.47 174.27 173.27 C 173.93 171.80 173.68 170.32 173.41 168.84 C 175.01 168.31 176.60 167.77 178.18 167.19 C 184.94 164.52 184.67 155.95 185.66 149.93 C 184.40 149.86 183.14 149.77 181.88 149.68 C 182.20 148.35 182.59 145.58 184.11 148.42 C 184.68 147.76 185.25 147.09 185.83 146.42 C 184.17 145.72 182.45 145.41 180.67 145.50 C 180.66 144.79 180.63 144.09 180.59 143.38 C 182.21 143.36 183.83 143.42 185.46 143.47 C 185.19 142.45 184.65 140.40 184.38 139.38 L 185.90 138.72 C 186.13 138.64 186.60 138.49 186.83 138.41 C 185.96 134.81 185.49 130.82 182.96 127.94 C 178.78 123.79 172.44 124.36 167.05 123.66 C 162.21 123.24 159.80 128.49 155.28 129.29 C 150.33 132.66 152.77 140.01 149.79 144.60 C 149.01 139.66 150.11 134.53 152.04 129.98 C 153.01 127.33 155.97 126.94 158.36 126.39 Z" fill="#0b2f4b" opacity="1.00" stroke="#0b2f4b" stroke-width="0.25" data-index="4"></path>
<path d="M 155.28 129.29 C 159.80 128.49 162.21 123.24 167.05 123.66 C 172.44 124.36 178.78 123.79 182.96 127.94 C 185.49 130.82 185.96 134.81 186.83 138.41 C 186.60 138.49 186.13 138.64 185.90 138.72 C 181.85 137.91 178.00 139.60 174.02 139.85 C 171.90 139.26 171.96 136.51 171.09 134.89 C 167.75 138.36 164.17 141.92 162.59 146.59 C 159.89 147.04 156.25 147.51 155.91 150.92 C 154.41 155.90 159.74 158.51 161.83 162.23 C 163.05 164.32 165.50 167.04 163.58 169.42 C 158.77 171.17 153.72 172.54 149.69 175.88 C 147.54 175.77 145.38 175.89 143.24 175.63 C 140.90 175.29 139.38 173.31 137.83 171.73 C 142.49 169.71 146.74 166.22 148.18 161.16 C 149.75 155.89 151.43 150.01 149.79 144.60 C 152.77 140.01 150.33 132.66 155.28 129.29 Z" fill="#76504b" opacity="1.00" stroke="#76504b" stroke-width="0.25" data-index="5"></path>
<path d="M 324.99 125.93 C 330.36 122.43 337.85 124.06 341.95 128.79 C 346.54 123.24 356.17 122.32 361.06 127.92 C 364.80 131.79 365.02 138.02 362.42 142.57 C 357.70 151.34 349.22 157.10 341.80 163.42 C 336.76 159.75 332.17 155.50 327.79 151.08 C 324.45 147.62 321.08 143.80 319.97 138.99 C 318.77 134.20 320.55 128.44 324.99 125.93 Z" fill="#002e4c" opacity="1.00" stroke="#002e4c" stroke-width="0.25" data-index="6" style="opacity: 1;"></path>
<path d="M 321.60 135.94 C 321.33 130.43 326.52 125.48 332.04 126.12 C 336.29 125.86 339.33 129.03 341.98 131.87 C 343.71 130.01 345.37 127.85 347.88 127.03 C 352.64 124.90 359.08 126.88 361.19 131.83 C 362.98 136.17 361.39 141.11 358.77 144.76 C 354.09 151.06 347.69 155.73 341.93 160.96 C 337.60 158.03 334.05 154.15 330.13 150.73 C 326.17 146.65 321.80 141.96 321.60 135.94 Z" fill="#84efff" opacity="1.00" stroke="#84efff" stroke-width="0.25" data-index="7" style="opacity: 1; visibility: visible; fill: rgb(242, 23, 7);"></path>
<path d="M 260.37 131.36 C 261.50 130.77 262.52 129.79 263.83 129.66 C 270.77 133.79 277.76 137.87 284.53 142.26 C 284.91 150.31 284.63 158.41 284.67 166.48 C 278.26 170.08 272.06 174.04 265.74 177.80 C 264.82 178.24 263.66 179.17 262.66 178.38 C 255.86 174.54 249.33 170.23 242.51 166.42 C 242.57 158.42 242.30 150.40 242.61 142.41 C 248.39 138.52 254.49 135.09 260.37 131.36 Z" fill="#00203e" opacity="1.00" stroke="#00203e" stroke-width="0.25" data-index="8"></path>
<path d="M 263.30 131.86 C 269.99 135.22 276.11 139.59 282.64 143.26 C 282.63 150.61 282.76 157.96 282.60 165.31 C 276.32 169.03 270.12 172.87 263.92 176.69 C 257.28 173.15 250.96 169.04 244.53 165.14 C 244.61 157.81 244.41 150.47 244.65 143.14 C 251.08 139.75 257.09 135.62 263.30 131.86 Z" fill="#84efff" opacity="1.00" stroke="#84efff" stroke-width="0.25" data-index="9" style="opacity: 1; visibility: visible; fill: rgb(121, 40, 202);"></path>
<path d="M 162.59 146.59 C 164.17 141.92 167.75 138.36 171.09 134.89 C 171.96 136.51 171.90 139.26 174.02 139.85 C 178.00 139.60 181.85 137.91 185.90 138.72 L 184.38 139.38 C 179.81 140.67 173.51 143.79 169.95 139.05 C 168.53 140.60 166.98 142.05 165.73 143.75 C 164.87 145.67 164.80 147.84 164.39 149.89 C 162.79 149.30 161.18 148.69 159.46 148.53 C 156.78 151.13 157.47 154.97 159.82 157.50 C 160.52 157.49 161.91 157.46 162.61 157.45 C 162.37 160.04 163.42 162.34 165.46 163.95 C 168.90 167.04 173.67 168.19 178.18 167.19 C 176.60 167.77 175.01 168.31 173.41 168.84 C 173.68 170.32 173.93 171.80 174.27 173.27 C 174.74 173.47 175.67 173.88 176.13 174.08 C 177.01 175.34 177.75 176.70 178.34 178.12 C 177.75 177.74 176.57 176.98 175.98 176.60 C 175.72 176.33 175.20 175.78 174.94 175.50 C 174.30 176.36 173.66 177.22 173.01 178.07 C 171.58 177.30 170.55 177.57 169.92 178.87 C 169.65 179.70 169.61 180.57 169.50 181.42 C 169.45 181.90 169.34 182.84 169.28 183.31 C 167.37 179.38 165.51 175.42 163.96 171.33 C 162.42 172.08 160.85 172.75 159.32 173.52 C 161.26 175.68 163.32 177.84 164.48 180.56 C 166.28 184.70 169.05 188.36 170.57 192.63 C 167.45 191.39 166.51 187.85 164.83 185.25 C 162.95 180.96 160.15 177.20 158.17 172.97 C 155.95 174.34 153.70 175.68 151.58 177.20 C 151.10 176.87 150.16 176.21 149.69 175.88 C 153.72 172.54 158.77 171.17 163.58 169.42 C 165.50 167.04 163.05 164.32 161.83 162.23 C 159.74 158.51 154.41 155.90 155.91 150.92 C 156.25 147.51 159.89 147.04 162.59 146.59 Z" fill="#203050" opacity="1.00" stroke="#203050" stroke-width="0.25" data-index="10"></path>
<path d="M 165.73 143.75 C 166.98 142.05 168.53 140.60 169.95 139.05 C 173.51 143.79 179.81 140.67 184.38 139.38 C 184.65 140.40 185.19 142.45 185.46 143.47 C 183.83 143.42 182.21 143.36 180.59 143.38 C 179.53 143.44 178.48 143.54 177.44 143.67 C 174.02 143.29 169.84 143.27 167.60 146.36 C 166.93 147.83 166.33 149.34 165.72 150.84 C 163.60 150.15 161.50 149.42 159.46 148.53 C 161.18 148.69 162.79 149.30 164.39 149.89 C 164.80 147.84 164.87 145.67 165.73 143.75 Z" fill="#eed4ce" opacity="1.00" stroke="#eed4ce" stroke-width="0.25" data-index="11"></path>
<path d="M 167.60 146.36 C 169.84 143.27 174.02 143.29 177.44 143.67 C 175.45 146.88 170.93 147.46 167.60 146.36 Z" fill="#111d32" opacity="1.00" stroke="#111d32" stroke-width="0.25" data-index="12"></path>
<path d="M 177.44 143.67 C 178.48 143.54 179.53 143.44 180.59 143.38 C 180.63 144.09 180.66 144.79 180.67 145.50 C 180.51 146.07 180.19 147.21 180.03 147.78 C 179.86 148.15 179.51 148.90 179.34 149.27 C 179.64 150.84 179.97 152.41 180.32 153.97 C 179.48 154.23 177.80 154.76 176.96 155.02 C 175.74 155.68 174.60 156.46 173.51 157.31 C 172.94 158.56 173.38 159.98 173.38 161.31 C 174.30 161.90 175.24 162.48 176.18 163.05 C 176.31 164.05 176.45 165.05 176.60 166.05 C 172.75 166.12 169.22 164.46 165.46 163.95 C 163.42 162.34 162.37 160.04 162.61 157.45 C 161.91 157.46 160.52 157.49 159.82 157.50 C 157.47 154.97 156.78 151.13 159.46 148.53 C 161.50 149.42 163.60 150.15 165.72 150.84 C 166.33 149.34 166.93 147.83 167.60 146.36 C 170.93 147.46 175.45 146.88 177.44 143.67 Z" fill="#fcc8b0" opacity="1.00" stroke="#fcc8b0" stroke-width="0.25" data-index="13"></path>
<path d="M 149.32 143.47 L 149.79 144.60 C 151.43 150.01 149.75 155.89 148.18 161.16 C 146.74 166.22 142.49 169.71 137.83 171.73 C 139.38 173.31 140.90 175.29 143.24 175.63 C 145.38 175.89 147.54 175.77 149.69 175.88 C 150.16 176.21 151.10 176.87 151.58 177.20 C 149.04 179.73 147.98 183.21 146.79 186.48 C 142.97 197.15 139.28 207.90 136.83 218.98 C 139.92 220.94 141.48 224.11 142.39 227.53 C 146.79 233.06 151.91 238.03 156.87 243.06 C 158.85 239.58 162.14 236.79 163.75 233.19 C 160.11 228.30 154.60 224.63 151.97 219.11 C 153.84 209.98 156.97 201.15 158.93 192.03 C 159.80 188.58 158.85 185.10 158.61 181.64 C 158.91 181.53 159.53 181.31 159.84 181.20 C 161.63 185.39 161.28 190.18 160.26 194.53 C 158.25 202.76 155.93 210.92 153.59 219.07 C 157.25 223.45 161.03 227.72 165.09 231.73 C 166.03 230.93 166.97 230.13 167.92 229.33 C 168.69 229.45 170.25 229.69 171.03 229.82 C 171.77 230.71 171.96 233.18 173.58 232.20 C 175.87 231.39 178.39 231.58 180.63 230.68 C 181.90 226.58 181.28 222.22 181.37 218.01 C 181.39 209.29 181.10 200.57 180.88 191.85 C 182.14 204.47 181.77 217.20 181.71 229.87 C 182.93 229.85 184.16 229.84 185.39 229.83 C 185.49 223.89 185.74 217.95 185.80 212.01 C 185.86 205.38 187.00 198.66 185.60 192.10 C 184.54 187.42 181.32 183.62 179.95 179.06 C 181.55 179.66 182.64 180.98 183.35 182.47 C 185.37 186.41 187.52 190.46 187.93 194.95 C 188.27 197.45 188.11 200.00 188.48 202.50 C 192.38 205.61 196.91 208.79 202.09 208.86 C 204.45 209.04 206.42 207.56 207.99 205.99 C 208.18 206.36 208.55 207.10 208.74 207.46 C 207.20 209.04 205.35 210.64 203.02 210.66 C 197.22 211.24 192.34 207.52 187.85 204.41 C 187.76 212.98 187.30 221.55 187.29 230.13 C 189.95 231.07 194.18 231.52 194.51 235.08 C 195.24 240.40 198.54 244.95 199.01 250.33 C 198.65 250.46 197.92 250.74 197.55 250.88 C 197.25 249.14 196.85 247.42 196.48 245.70 C 195.21 246.39 193.77 246.91 192.95 248.19 C 193.65 249.90 194.71 251.43 195.68 252.99 C 195.12 253.61 194.55 254.23 193.99 254.85 C 194.60 256.54 195.21 258.23 195.80 259.93 L 197.00 259.36 C 196.54 259.67 195.63 260.29 195.18 260.61 C 195.82 260.91 197.11 261.52 197.75 261.82 C 197.63 262.21 197.38 262.98 197.26 263.37 C 199.39 266.66 200.90 270.52 204.06 273.02 C 205.92 274.53 208.38 275.21 210.02 276.99 C 211.33 278.90 212.51 280.89 213.99 282.68 L 213.88 284.57 C 212.90 283.74 211.91 282.96 210.91 282.18 C 209.92 283.70 208.92 285.22 207.94 286.75 C 208.59 286.66 209.90 286.48 210.55 286.39 L 210.98 288.02 C 198.10 290.90 184.41 290.14 172.17 285.07 C 171.76 286.98 171.38 288.88 171.04 290.80 C 172.97 291.34 174.91 291.91 176.92 292.11 C 192.63 292.67 208.36 291.45 224.05 292.36 L 224.31 292.84 C 222.39 293.24 220.48 293.68 218.56 294.08 C 218.30 294.12 217.78 294.20 217.52 294.24 C 217.51 295.70 217.50 297.17 217.49 298.64 C 226.69 304.08 237.24 307.97 248.07 307.36 C 248.88 306.23 249.71 305.12 250.47 303.97 C 250.93 304.33 251.85 305.06 252.32 305.42 C 250.48 307.04 248.67 309.12 246.03 309.19 C 240.37 309.48 234.87 307.73 229.46 306.29 C 225.60 305.21 221.56 305.55 217.60 305.50 C 217.61 306.82 217.60 308.15 217.57 309.49 C 217.21 309.69 216.51 310.10 216.15 310.31 C 216.42 310.54 216.95 311.01 217.22 311.24 L 217.25 311.47 C 214.22 316.98 217.24 323.69 215.01 329.54 C 214.33 329.53 212.96 329.49 212.28 329.48 C 213.00 333.13 214.25 336.87 213.56 340.62 C 212.79 343.81 209.38 344.98 206.89 346.55 C 209.50 346.60 212.12 346.72 214.72 347.05 C 215.65 347.14 216.58 347.12 217.51 346.97 C 219.44 346.68 221.40 346.63 223.36 346.50 C 223.45 348.13 223.55 349.76 223.64 351.39 C 223.20 351.78 222.32 352.57 221.89 352.96 C 221.43 353.38 220.97 353.80 220.51 354.21 C 215.97 351.62 210.55 353.18 205.63 353.26 C 205.39 353.06 204.91 352.65 204.67 352.44 C 204.24 353.05 203.78 353.66 203.31 354.25 C 203.04 354.38 202.49 354.65 202.21 354.78 C 198.55 354.71 194.89 354.69 191.22 354.65 C 191.22 359.33 191.75 363.98 191.88 368.65 C 191.40 369.86 190.92 371.06 190.44 372.27 C 190.18 370.93 189.82 369.61 189.39 368.32 C 189.05 367.59 188.36 366.12 188.02 365.38 C 188.48 361.79 188.91 358.19 189.33 354.60 C 183.87 354.71 178.40 354.71 172.94 354.71 C 172.21 360.20 171.39 365.68 170.65 371.17 C 171.03 371.70 171.78 372.75 172.15 373.28 C 171.72 373.18 170.86 372.99 170.43 372.89 C 169.99 372.65 169.12 372.17 168.69 371.93 C 169.18 366.13 170.36 360.43 171.02 354.66 C 168.41 354.66 165.79 354.67 163.18 354.70 C 163.10 367.35 163.31 380.00 163.07 392.64 C 162.77 393.01 162.16 393.75 161.86 394.12 C 162.19 394.24 162.86 394.47 163.20 394.59 C 163.23 395.15 163.30 396.27 163.33 396.83 C 162.11 396.31 160.90 395.79 159.68 395.29 L 159.30 395.14 C 158.34 396.85 158.34 398.93 159.11 400.71 C 158.47 400.85 157.20 401.12 156.56 401.26 C 156.11 401.34 155.19 401.50 154.73 401.58 C 154.74 402.62 154.75 404.68 154.75 405.71 C 154.18 406.10 153.61 406.49 153.04 406.87 C 152.12 406.76 151.21 406.62 150.31 406.43 C 150.14 406.95 149.79 407.99 149.62 408.51 C 148.33 408.59 147.04 408.52 145.75 408.45 C 143.85 406.81 141.30 407.06 138.98 406.99 C 133.60 406.97 128.21 406.30 122.83 406.78 C 118.64 407.26 114.20 406.39 110.29 408.30 C 108.99 408.72 107.58 408.50 106.24 408.59 C 105.93 408.01 105.30 406.86 104.99 406.28 C 106.69 403.88 108.65 401.67 110.17 399.15 C 109.80 382.85 108.39 366.55 108.20 350.24 C 105.64 350.00 103.08 349.85 100.51 349.81 C 99.60 345.65 99.89 341.33 98.95 337.19 C 98.58 336.78 97.84 335.96 97.47 335.55 C 96.43 328.37 95.75 321.14 94.52 313.99 C 93.46 316.16 92.34 318.31 90.92 320.28 C 90.75 320.55 90.40 321.08 90.23 321.34 C 89.91 322.54 89.61 323.75 89.34 324.97 C 89.03 319.77 89.54 314.55 88.96 309.36 C 90.54 309.37 92.13 309.40 93.72 309.44 C 93.85 308.16 93.96 306.88 94.18 305.61 C 95.11 303.24 95.29 300.70 95.10 298.19 C 94.79 298.25 94.18 298.38 93.87 298.45 C 93.46 298.55 92.64 298.75 92.23 298.84 L 91.07 299.15 C 91.43 294.85 91.62 290.52 92.43 286.27 L 94.39 286.30 C 95.97 286.28 97.56 286.26 99.13 286.13 L 100.87 285.88 C 101.22 283.62 101.38 281.34 101.50 279.07 C 101.69 281.31 101.92 283.55 102.25 285.78 C 102.20 286.23 102.10 287.13 102.06 287.58 C 116.04 287.65 130.02 287.49 144.00 287.64 C 146.76 287.30 147.75 290.39 149.10 292.21 C 149.35 296.19 149.56 300.21 150.64 304.07 C 150.71 304.44 150.85 305.19 150.92 305.56 C 151.13 306.84 151.31 308.13 151.50 309.43 C 155.18 309.34 158.85 309.36 162.53 309.42 C 162.54 308.11 162.53 306.80 162.47 305.50 C 162.23 304.91 161.95 304.34 161.64 303.79 C 162.83 300.20 162.05 296.37 162.86 292.72 C 162.83 295.95 162.64 299.26 163.70 302.37 C 163.49 298.11 165.70 293.31 163.51 289.40 L 164.19 289.39 C 164.92 286.44 165.65 283.49 166.90 280.72 C 161.16 274.18 160.84 265.13 161.19 256.89 C 161.21 256.52 161.23 255.76 161.24 255.38 C 161.46 252.20 162.09 249.06 162.83 245.96 C 161.54 245.05 160.29 244.07 159.00 243.17 C 158.47 243.82 157.40 245.11 156.87 245.76 C 154.24 243.26 151.89 240.48 149.23 238.02 C 148.92 243.03 148.84 248.06 148.64 253.09 C 148.18 252.20 147.72 251.32 147.30 250.42 C 146.70 245.60 147.25 240.74 147.60 235.92 C 145.55 233.59 143.40 231.36 141.15 229.22 C 140.30 230.47 139.44 231.71 138.57 232.95 C 139.80 238.78 139.83 244.90 137.07 250.32 C 140.48 250.23 143.89 250.24 147.30 250.42 C 143.30 251.09 138.79 249.83 135.30 252.35 C 135.15 252.44 134.85 252.61 134.70 252.70 C 133.38 254.25 132.11 255.84 130.80 257.40 C 127.14 256.98 123.64 258.40 120.03 258.58 C 116.66 258.43 113.34 257.35 109.95 257.83 C 104.35 252.76 105.04 244.35 104.46 237.52 C 102.42 235.54 99.34 233.38 100.44 230.07 C 102.00 226.39 103.56 220.75 108.70 221.44 C 110.45 219.38 112.01 216.65 114.89 216.13 C 117.25 215.22 119.60 216.21 121.75 217.16 C 122.60 217.27 123.45 217.33 124.31 217.34 C 127.96 216.61 131.65 217.09 135.24 217.87 C 138.34 204.17 143.00 190.85 148.21 177.83 C 142.82 178.39 137.06 175.86 134.97 170.62 C 138.15 169.54 141.63 168.48 143.68 165.60 C 148.50 159.30 148.54 151.00 149.32 143.47 Z" fill="#073052" opacity="1.00" stroke="#073052" stroke-width="0.25" data-index="14" style="opacity: 1;"></path>
<path d="M 180.67 145.50 C 182.45 145.41 184.17 145.72 185.83 146.42 C 185.25 147.09 184.68 147.76 184.11 148.42 C 182.59 145.58 182.20 148.35 181.88 149.68 C 183.14 149.77 184.40 149.86 185.66 149.93 C 184.67 155.95 184.94 164.52 178.18 167.19 C 173.67 168.19 168.90 167.04 165.46 163.95 C 169.22 164.46 172.75 166.12 176.60 166.05 C 176.45 165.05 176.31 164.05 176.18 163.05 C 177.69 163.14 179.42 163.60 180.65 162.41 C 182.00 161.23 182.12 159.27 182.73 157.68 C 179.66 157.52 176.59 157.36 173.51 157.31 C 174.60 156.46 175.74 155.68 176.96 155.02 C 178.73 155.89 180.68 155.65 182.58 155.45 C 181.80 152.87 180.89 150.33 180.03 147.78 C 180.19 147.21 180.51 146.07 180.67 145.50 Z" fill="#eacbc6" opacity="1.00" stroke="#eacbc6" stroke-width="0.25" data-index="15"></path>
<path d="M 172.20 148.17 C 173.28 148.27 174.36 148.37 175.45 148.49 C 175.66 150.50 174.70 152.09 172.48 151.68 C 172.38 150.51 172.28 149.34 172.20 148.17 Z" fill="#1d181c" opacity="1.00" stroke="#1d181c" stroke-width="0.25" data-index="16"></path>
<path d="M 179.34 149.27 C 179.51 148.90 179.86 148.15 180.03 147.78 C 180.89 150.33 181.80 152.87 182.58 155.45 C 180.68 155.65 178.73 155.89 176.96 155.02 C 177.80 154.76 179.48 154.23 180.32 153.97 C 179.97 152.41 179.64 150.84 179.34 149.27 Z" fill="#1d181c" opacity="1.00" stroke="#1d181c" stroke-width="0.25" data-index="17"></path>
<path d="M 207.85 160.86 C 207.99 157.29 206.71 152.83 209.89 150.22 C 210.65 150.87 211.41 151.52 212.17 152.17 C 212.73 155.32 213.25 158.49 213.96 161.62 C 214.03 161.03 214.18 159.86 214.25 159.27 C 214.85 158.42 215.47 157.57 216.09 156.73 C 216.25 158.64 216.46 160.54 216.65 162.45 C 215.22 162.91 213.65 163.87 212.30 162.65 C 210.47 159.79 212.32 154.93 209.65 152.84 C 209.24 156.06 209.19 159.36 209.65 162.57 C 210.51 164.76 212.29 166.44 213.37 168.52 C 213.92 170.67 212.31 172.83 212.68 174.98 C 214.11 176.31 215.77 177.36 217.37 178.47 C 217.31 179.18 217.26 179.90 217.21 180.63 C 214.71 178.76 212.13 177.00 209.66 175.10 C 209.42 174.72 208.93 173.95 208.68 173.57 C 209.36 173.45 210.71 173.22 211.38 173.10 C 213.34 168.32 207.64 165.49 207.85 160.86 Z" fill="#111d32" opacity="1.00" stroke="#111d32" stroke-width="0.25" data-index="18"></path>
<path d="M 187.04 151.30 C 188.31 151.59 188.50 152.36 187.63 153.61 C 186.35 153.33 186.15 152.56 187.04 151.30 Z" fill="#698da7" opacity="1.00" stroke="#698da7" stroke-width="0.25" data-index="19"></path>
<path d="M 209.65 162.57 C 209.19 159.36 209.24 156.06 209.65 152.84 C 212.32 154.93 210.47 159.79 212.30 162.65 C 213.65 163.87 215.22 162.91 216.65 162.45 C 216.46 160.54 216.25 158.64 216.09 156.73 L 216.58 156.00 C 218.80 157.48 222.11 158.73 221.64 162.03 C 222.70 167.97 219.83 173.30 217.37 178.47 C 215.77 177.36 214.11 176.31 212.68 174.98 C 212.31 172.83 213.92 170.67 213.37 168.52 C 212.29 166.44 210.51 164.76 209.65 162.57 Z" fill="#fbc8b3" opacity="1.00" stroke="#fbc8b3" stroke-width="0.25" data-index="20"></path>
<path d="M 173.38 161.31 C 173.38 159.98 172.94 158.56 173.51 157.31 C 176.59 157.36 179.66 157.52 182.73 157.68 C 182.12 159.27 182.00 161.23 180.65 162.41 C 179.42 163.60 177.69 163.14 176.18 163.05 C 175.24 162.48 174.30 161.90 173.38 161.31 Z" fill="#111d32" opacity="1.00" stroke="#111d32" stroke-width="0.25" data-index="21"></path>
<path d="M 174.19 158.91 C 176.45 158.76 178.70 158.95 180.93 159.34 C 180.51 159.86 179.69 160.90 179.27 161.43 C 178.25 161.51 177.22 161.59 176.20 161.68 C 175.52 160.76 174.85 159.84 174.19 158.91 Z" fill="#f2ffff" opacity="1.00" stroke="#f2ffff" stroke-width="0.25" data-index="22"></path>
<path d="M 165.82 166.91 C 168.27 167.91 170.80 168.72 173.20 169.84 C 173.11 171.79 172.72 173.72 172.37 175.64 C 169.39 175.57 167.17 173.58 165.66 171.18 C 165.72 169.75 165.78 168.33 165.82 166.91 Z" fill="#fecebe" opacity="1.00" stroke="#fecebe" stroke-width="0.25" data-index="23"></path>
<path d="M 159.32 173.52 C 160.85 172.75 162.42 172.08 163.96 171.33 C 165.51 175.42 167.37 179.38 169.28 183.31 C 170.79 187.40 172.53 191.46 173.26 195.78 C 174.86 207.86 174.25 220.08 173.58 232.20 C 171.96 233.18 171.77 230.71 171.03 229.82 C 170.25 229.69 168.69 229.45 167.92 229.33 C 166.97 230.13 166.03 230.93 165.09 231.73 C 161.03 227.72 157.25 223.45 153.59 219.07 C 155.93 210.92 158.25 202.76 160.26 194.53 C 161.28 190.18 161.63 185.39 159.84 181.20 C 159.53 181.31 158.91 181.53 158.61 181.64 C 158.85 185.10 159.80 188.58 158.93 192.03 C 156.97 201.15 153.84 209.98 151.97 219.11 C 154.60 224.63 160.11 228.30 163.75 233.19 C 162.14 236.79 158.85 239.58 156.87 243.06 C 151.91 238.03 146.79 233.06 142.39 227.53 C 141.48 224.11 139.92 220.94 136.83 218.98 C 139.28 207.90 142.97 197.15 146.79 186.48 C 147.98 183.21 149.04 179.73 151.58 177.20 C 153.70 175.68 155.95 174.34 158.17 172.97 C 160.15 177.20 162.95 180.96 164.83 185.25 C 166.51 187.85 167.45 191.39 170.57 192.63 C 169.05 188.36 166.28 184.70 164.48 180.56 C 163.32 177.84 161.26 175.68 159.32 173.52 Z" fill="#ffffff" opacity="1.00" stroke="#ffffff" stroke-width="0.25" data-index="24"></path>
<path d="M 176.13 174.08 C 180.44 175.66 183.32 179.40 186.68 182.33 C 190.96 186.10 195.07 190.05 199.29 193.89 C 203.75 188.27 206.70 181.59 209.66 175.10 C 212.13 177.00 214.71 178.76 217.21 180.63 C 217.95 181.15 218.68 181.68 219.42 182.22 C 216.07 190.36 212.09 198.21 207.99 205.99 C 206.42 207.56 204.45 209.04 202.09 208.86 C 196.91 208.79 192.38 205.61 188.48 202.50 C 188.11 200.00 188.27 197.45 187.93 194.95 C 187.52 190.46 185.37 186.41 183.35 182.47 C 182.64 180.98 181.55 179.66 179.95 179.06 C 181.32 183.62 184.54 187.42 185.60 192.10 C 187.00 198.66 185.86 205.38 185.80 212.01 C 185.74 217.95 185.49 223.89 185.39 229.83 C 184.16 229.84 182.93 229.85 181.71 229.87 C 181.77 217.20 182.14 204.47 180.88 191.85 C 180.52 187.20 179.78 182.57 178.34 178.12 C 177.75 176.70 177.01 175.34 176.13 174.08 Z" fill="#feffff" opacity="1.00" stroke="#feffff" stroke-width="0.25" data-index="25"></path>
<path d="M 173.01 178.07 C 173.66 177.22 174.30 176.36 174.94 175.50 C 175.20 175.78 175.72 176.33 175.98 176.60 C 178.50 182.73 179.19 189.39 179.65 195.94 C 180.23 207.30 180.30 218.67 180.03 230.04 C 178.53 230.14 177.02 230.24 175.52 230.34 C 175.76 220.04 175.72 209.74 175.68 199.43 C 176.84 203.22 176.57 207.22 176.98 211.12 C 177.55 216.75 175.80 222.39 176.78 227.99 C 177.08 228.38 177.68 229.14 177.97 229.53 C 180.30 226.97 179.11 223.14 179.30 220.00 C 178.61 213.03 179.75 206.03 178.85 199.08 C 178.23 193.84 178.08 188.53 177.05 183.34 C 175.72 183.89 174.40 184.44 173.10 185.05 C 172.97 185.57 172.70 186.61 172.57 187.13 C 171.68 185.16 170.60 183.28 169.50 181.42 C 169.61 180.57 169.65 179.70 169.92 178.87 C 171.19 179.32 172.22 179.05 173.01 178.07 Z" fill="#b35a37" opacity="1.00" stroke="#b35a37" stroke-width="0.25" data-index="26"></path>
<path d="M 175.98 176.60 C 176.57 176.98 177.75 177.74 178.34 178.12 C 179.78 182.57 180.52 187.20 180.88 191.85 C 181.10 200.57 181.39 209.29 181.37 218.01 C 181.28 222.22 181.90 226.58 180.63 230.68 C 178.39 231.58 175.87 231.39 173.58 232.20 C 174.25 220.08 174.86 207.86 173.26 195.78 C 172.53 191.46 170.79 187.40 169.28 183.31 C 169.34 182.84 169.45 181.90 169.50 181.42 C 170.60 183.28 171.68 185.16 172.57 187.13 C 174.12 191.09 174.96 195.26 175.68 199.43 C 175.72 209.74 175.76 220.04 175.52 230.34 C 177.02 230.24 178.53 230.14 180.03 230.04 C 180.30 218.67 180.23 207.30 179.65 195.94 C 179.19 189.39 178.50 182.73 175.98 176.60 Z" fill="#111d32" opacity="1.00" stroke="#111d32" stroke-width="0.25" data-index="27"></path>
<path d="M 169.92 178.87 C 170.55 177.57 171.58 177.30 173.01 178.07 C 172.22 179.05 171.19 179.32 169.92 178.87 Z" fill="#50201f" opacity="1.00" stroke="#50201f" stroke-width="0.25" data-index="28"></path>
<path d="M 295.18 179.55 C 307.37 179.25 319.52 177.90 331.71 177.42 C 331.38 178.84 330.89 180.21 330.24 181.51 C 324.83 191.47 319.75 201.61 314.69 211.76 C 314.15 211.74 313.08 211.70 312.55 211.69 C 307.35 201.90 301.42 192.52 295.86 182.93 C 295.16 181.93 295.26 180.70 295.18 179.55 Z" fill="#002d4c" opacity="1.00" stroke="#002d4c" stroke-width="0.25" data-index="29" style="opacity: 1;"></path>
<path d="M 298.19 181.76 C 308.20 181.51 318.15 180.24 328.17 180.14 C 323.12 189.49 318.84 199.30 313.43 208.44 C 308.46 199.48 302.86 190.87 298.19 181.76 Z" fill="#84eeff" opacity="1.00" stroke="#84eeff" stroke-width="0.25" data-index="30" style="opacity: 1; visibility: visible; fill: rgb(242, 203, 7);"></path>
<path d="M 173.25 182.21 C 173.77 182.72 173.77 182.72 173.25 182.21 Z" fill="#f2bf92" opacity="1.00" stroke="#f2bf92" stroke-width="0.25" data-index="31"></path>
<path d="M 173.10 185.05 C 174.40 184.44 175.72 183.89 177.05 183.34 C 178.08 188.53 178.23 193.84 178.85 199.08 C 179.75 206.03 178.61 213.03 179.30 220.00 C 179.11 223.14 180.30 226.97 177.97 229.53 C 177.68 229.14 177.08 228.38 176.78 227.99 C 175.80 222.39 177.55 216.75 176.98 211.12 C 176.57 207.22 176.84 203.22 175.68 199.43 C 174.96 195.26 174.12 191.09 172.57 187.13 C 172.70 186.61 172.97 185.57 173.10 185.05 Z" fill="#f15d34" opacity="1.00" stroke="#f15d34" stroke-width="0.25" data-index="32"></path>
<path d="M 254.66 198.93 C 266.79 195.27 280.91 205.09 280.66 217.99 C 281.32 228.51 272.14 237.65 261.97 238.52 C 254.24 239.35 246.33 235.39 242.16 228.88 C 238.22 222.46 238.32 213.72 242.58 207.48 C 245.46 203.33 249.83 200.34 254.66 198.93 Z" fill="#002b4a" opacity="1.00" stroke="#002b4a" stroke-width="0.25" data-index="33" style="opacity: 1;"></path>
<path d="M 256.47 200.61 C 267.44 197.96 279.65 207.60 278.65 219.06 C 278.64 228.76 269.49 236.84 259.96 236.54 C 250.73 236.81 241.93 229.27 241.42 219.94 C 240.19 210.77 247.61 202.13 256.47 200.61 Z" fill="#84efff" opacity="1.00" stroke="#84efff" stroke-width="0.25" data-index="34" style="opacity: 1; visibility: visible; fill: rgb(16, 82, 152);"></path>
<path d="M 349.00 204.95 C 349.98 204.24 351.12 205.32 352.13 205.43 C 356.51 206.96 361.01 208.15 365.38 209.71 C 365.46 214.30 366.33 218.81 366.57 223.39 C 358.95 224.32 351.36 225.53 343.73 226.32 C 343.94 221.78 345.63 217.51 346.64 213.12 C 347.43 210.40 347.73 207.50 349.00 204.95 Z" fill="#002e4c" opacity="1.00" stroke="#002e4c" stroke-width="0.25" data-index="35" style="opacity: 1;"></path>
<path d="M 350.59 207.25 C 354.80 208.71 359.10 209.91 363.21 211.63 C 363.38 214.90 363.65 218.17 363.77 221.44 C 357.96 222.17 352.15 222.83 346.38 223.74 C 347.74 218.23 349.13 212.73 350.59 207.25 Z" fill="#83eefe" opacity="1.00" stroke="#83eefe" stroke-width="0.25" data-index="36" style="opacity: 1; visibility: visible; fill: rgb(101, 242, 7);"></path>
<path d="M 391.47 211.14 C 395.43 208.61 399.48 211.46 401.84 214.69 C 403.05 212.57 405.73 212.97 407.47 214.19 C 408.28 214.23 409.10 214.27 409.92 214.31 C 409.40 215.16 408.87 216.00 408.34 216.83 C 412.03 219.73 412.97 224.64 413.23 229.06 C 413.41 235.42 411.10 241.48 408.32 247.09 C 407.03 249.60 405.04 251.92 402.26 252.79 C 402.31 253.65 402.41 255.36 402.46 256.22 C 404.32 256.60 406.17 257.06 408.01 257.57 C 406.58 257.72 405.15 257.86 403.73 257.99 C 397.61 257.10 391.30 257.03 385.27 258.48 C 384.91 258.53 384.20 258.63 383.85 258.68 C 375.90 259.95 366.61 261.35 362.17 268.99 C 362.11 269.07 361.98 269.24 361.91 269.33 C 358.86 273.02 357.35 277.63 355.43 281.95 C 355.27 281.60 354.96 280.90 354.81 280.55 C 354.49 280.57 353.84 280.59 353.52 280.60 C 352.36 278.92 351.01 277.38 349.57 275.94 C 349.63 281.34 349.79 286.75 349.97 292.15 C 349.55 292.33 348.71 292.68 348.29 292.85 C 348.70 286.58 348.16 280.31 347.79 274.06 C 347.30 264.46 348.45 254.73 346.73 245.22 C 345.91 240.05 342.37 235.71 337.93 233.11 C 329.59 228.62 317.89 232.26 314.09 241.09 C 311.30 248.18 311.97 255.98 311.37 263.43 C 310.51 267.28 310.57 271.23 310.73 275.15 C 310.42 275.20 309.80 275.29 309.48 275.34 L 307.92 275.59 C 308.30 275.02 309.04 273.88 309.42 273.31 C 309.84 266.38 309.91 259.42 310.44 252.49 C 273.44 252.40 236.43 252.46 199.43 252.47 C 199.60 255.69 198.95 258.84 197.75 261.82 C 197.11 261.52 195.82 260.91 195.18 260.61 C 195.63 260.29 196.54 259.67 197.00 259.36 C 197.70 256.59 197.95 253.72 197.55 250.88 C 197.92 250.74 198.65 250.46 199.01 250.33 C 236.12 250.29 273.22 250.28 310.33 250.34 C 310.93 246.52 311.33 242.54 313.17 239.07 C 318.52 228.99 333.60 226.32 342.05 234.02 C 346.87 238.00 348.77 244.15 349.30 250.16 C 359.69 250.61 370.12 250.06 380.52 250.43 C 376.14 244.90 377.15 237.69 377.86 231.19 C 376.54 230.04 374.40 229.20 374.42 227.14 C 373.98 222.77 375.26 217.74 378.75 214.88 C 381.37 214.09 384.15 213.97 386.74 213.08 C 388.35 212.53 389.92 211.84 391.47 211.14 Z" fill="#00203e" opacity="1.00" stroke="#00203e" stroke-width="0.25" data-index="37" style="opacity: 1;"></path>
<path d="M 379.21 216.33 C 384.10 215.94 388.59 214.04 393.03 212.12 C 397.11 210.32 399.72 214.76 401.45 217.70 C 402.62 216.55 403.79 215.41 404.98 214.28 C 407.56 217.87 410.73 221.41 411.25 226.00 C 412.28 233.83 409.99 242.01 405.50 248.45 C 402.76 252.25 397.46 252.02 393.50 250.60 C 388.89 249.19 383.93 246.45 382.57 241.47 C 381.18 237.51 385.39 233.71 383.21 229.79 C 380.85 229.25 377.75 230.28 376.32 227.65 C 374.41 223.86 377.14 219.54 379.21 216.33 Z" fill="#78514a" opacity="1.00" stroke="#78514a" stroke-width="0.25" data-index="38" style="opacity: 1;"></path>
<path d="M 141.15 229.22 C 143.40 231.36 145.55 233.59 147.60 235.92 C 147.25 240.74 146.70 245.60 147.30 250.42 C 143.89 250.24 140.48 250.23 137.07 250.32 C 139.83 244.90 139.80 238.78 138.57 232.95 C 139.44 231.71 140.30 230.47 141.15 229.22 Z" fill="#84edfe" opacity="1.00" stroke="#84edfe" stroke-width="0.25" data-index="39"></path>
<path d="M 314.09 241.09 C 317.89 232.26 329.59 228.62 337.93 233.11 C 342.37 235.71 345.91 240.05 346.73 245.22 C 348.45 254.73 347.30 264.46 347.79 274.06 C 348.16 280.31 348.70 286.58 348.29 292.85 C 348.06 294.40 347.77 295.94 347.47 297.49 C 344.17 299.05 341.57 301.69 338.41 303.45 C 334.96 304.57 331.48 302.87 328.02 302.74 C 325.31 302.57 322.46 302.62 320.19 300.92 C 317.98 299.32 315.17 299.60 312.60 299.39 C 310.37 287.53 311.82 275.41 311.37 263.43 C 311.97 255.98 311.30 248.18 314.09 241.09 Z" fill="#79514b" opacity="1.00" stroke="#79514b" stroke-width="0.25" data-index="40" style="opacity: 1;"></path>
<path d="M 379.24 236.75 C 379.97 234.83 378.87 230.77 381.94 231.05 C 382.74 232.76 381.54 234.61 381.30 236.35 C 380.79 236.45 379.75 236.65 379.24 236.75 Z" fill="#ece3e0" opacity="1.00" stroke="#ece3e0" stroke-width="0.25" data-index="41"></path>
<path d="M 133.88 236.02 C 134.93 235.47 135.99 234.92 137.05 234.38 C 137.87 239.35 138.17 244.71 135.39 249.17 C 134.99 247.16 134.60 245.16 134.34 243.13 C 135.15 242.22 135.83 241.22 136.38 240.14 C 135.51 238.78 134.68 237.40 133.88 236.02 Z" fill="#f3e0e4" opacity="1.00" stroke="#f3e0e4" stroke-width="0.25" data-index="42"></path>
<path d="M 159.95 241.85 C 161.11 240.23 161.94 237.79 163.95 237.18 C 166.30 240.30 170.25 243.41 169.35 247.78 C 167.33 246.91 167.51 244.64 166.97 242.89 C 166.01 243.40 165.06 243.92 164.11 244.46 C 162.73 243.58 161.34 242.70 159.95 241.85 Z" fill="#fad4c3" opacity="1.00" stroke="#fad4c3" stroke-width="0.25" data-index="43"></path>
<path d="M 132.21 238.28 C 133.95 237.44 135.35 241.45 133.30 241.67 C 132.17 241.13 131.56 239.37 132.21 238.28 Z" fill="#fbffff" opacity="1.00" stroke="#fbffff" stroke-width="0.25" data-index="44"></path>
<path d="M 378.59 238.44 C 379.04 238.40 379.95 238.31 380.40 238.26 C 380.94 242.37 382.56 246.63 386.24 248.90 C 388.23 250.72 391.17 250.79 393.16 252.54 C 389.42 253.01 384.98 252.88 382.44 249.63 C 379.30 246.76 378.94 242.40 378.59 238.44 Z" fill="#f3e0e4" opacity="1.00" stroke="#f3e0e4" stroke-width="0.25" data-index="45" style="opacity: 1;"></path>
<path d="M 149.23 238.02 C 151.89 240.48 154.24 243.26 156.87 245.76 C 157.40 245.11 158.47 243.82 159.00 243.17 C 160.29 244.07 161.54 245.05 162.83 245.96 C 162.09 249.06 161.46 252.20 161.24 255.38 C 157.08 254.43 152.84 253.87 148.64 253.09 C 148.84 248.06 148.92 243.03 149.23 238.02 Z" fill="#84edfc" opacity="1.00" stroke="#84edfc" stroke-width="0.25" data-index="46"></path>
<path d="M 192.95 248.19 C 193.77 246.91 195.21 246.39 196.48 245.70 C 196.85 247.42 197.25 249.14 197.55 250.88 C 197.95 253.72 197.70 256.59 197.00 259.36 L 195.80 259.93 C 195.21 258.23 194.60 256.54 193.99 254.85 C 194.55 254.23 195.12 253.61 195.68 252.99 C 194.71 251.43 193.65 249.90 192.95 248.19 Z" fill="#f2d7ca" opacity="1.00" stroke="#f2d7ca" stroke-width="0.25" data-index="47"></path>
<path d="M 147.30 250.42 C 147.72 251.32 148.18 252.20 148.64 253.09 C 152.84 253.87 157.08 254.43 161.24 255.38 C 161.23 255.76 161.21 256.52 161.19 256.89 C 158.31 256.43 155.43 255.96 152.55 255.51 C 152.55 259.74 152.54 263.98 152.52 268.22 C 153.28 269.20 154.04 270.18 154.80 271.18 C 153.14 269.52 150.81 268.08 150.48 265.56 C 150.67 261.93 150.73 258.29 150.45 254.66 C 149.69 254.67 148.17 254.69 147.40 254.70 C 147.16 254.14 146.68 253.01 146.43 252.45 C 142.72 252.48 139.01 252.43 135.30 252.35 C 138.79 249.83 143.30 251.09 147.30 250.42 Z" fill="#00203e" opacity="1.00" stroke="#00203e" stroke-width="0.25" data-index="48"></path>
<path d="M 134.70 252.70 C 134.85 252.61 135.15 252.44 135.30 252.35 C 139.01 252.43 142.72 252.48 146.43 252.45 C 146.68 253.01 147.16 254.14 147.40 254.70 C 148.17 254.69 149.69 254.67 150.45 254.66 C 150.73 258.29 150.67 261.93 150.48 265.56 C 147.99 263.35 145.48 260.90 142.18 259.99 C 138.43 258.94 134.58 258.35 130.80 257.40 C 132.11 255.84 133.38 254.25 134.70 252.70 Z" fill="#fcfeff" opacity="1.00" stroke="#fcfeff" stroke-width="0.25" data-index="49"></path>
<path d="M 199.43 252.47 C 236.43 252.46 273.44 252.40 310.44 252.49 C 309.91 259.42 309.84 266.38 309.42 273.31 C 301.69 276.30 298.68 285.03 295.62 292.05 C 294.00 295.90 292.35 299.75 290.83 303.65 C 277.81 303.39 264.78 303.67 251.75 303.49 C 253.26 301.06 256.25 300.36 258.23 298.44 C 259.81 296.21 258.06 293.69 257.21 291.57 C 256.71 291.50 255.73 291.36 255.23 291.29 C 254.59 289.93 255.25 287.38 253.33 287.02 C 252.29 286.80 251.23 286.63 250.18 286.50 C 248.37 288.43 246.70 290.48 245.36 292.76 C 241.55 292.83 237.74 292.78 233.94 292.59 C 232.58 288.55 228.80 286.04 224.91 284.80 C 222.21 284.28 219.49 285.11 216.81 285.41 C 215.87 284.50 214.92 283.60 213.99 282.68 C 212.51 280.89 211.33 278.90 210.02 276.99 C 208.38 275.21 205.92 274.53 204.06 273.02 C 200.90 270.52 199.39 266.66 197.26 263.37 C 197.38 262.98 197.63 262.21 197.75 261.82 C 198.95 258.84 199.60 255.69 199.43 252.47 Z" fill="#ffffff" opacity="1.00" stroke="#ffffff" stroke-width="0.25" data-index="50" style="opacity: 1;"></path>
<path d="M 349.28 252.43 C 360.39 252.52 371.51 252.33 382.62 252.53 C 384.80 252.56 385.78 254.58 385.63 256.55 C 380.05 257.86 374.24 258.51 368.93 260.79 C 361.69 264.22 357.98 271.95 355.12 278.99 C 353.14 277.34 351.36 275.48 349.60 273.61 C 349.26 266.57 349.55 259.49 349.28 252.43 Z" fill="#fdffff" opacity="1.00" stroke="#fdffff" stroke-width="0.25" data-index="51" style="opacity: 1;"></path>
<path d="M 387.22 254.43 C 391.76 254.47 396.13 252.97 400.68 253.08 C 400.66 253.76 400.63 255.13 400.61 255.81 C 396.26 255.36 391.89 255.57 387.59 256.35 C 387.50 255.87 387.31 254.91 387.22 254.43 Z" fill="#ece3e0" opacity="1.00" stroke="#ece3e0" stroke-width="0.25" data-index="52" style="opacity: 1;"></path>
<path d="M 152.55 255.51 C 155.43 255.96 158.31 256.43 161.19 256.89 C 160.84 265.13 161.16 274.18 166.90 280.72 C 165.65 283.49 164.92 286.44 164.19 289.39 L 163.51 289.40 C 161.48 286.97 160.78 283.87 159.93 280.92 C 158.94 277.35 157.09 274.07 154.80 271.18 C 154.04 270.18 153.28 269.20 152.52 268.22 C 152.54 263.98 152.55 259.74 152.55 255.51 Z" fill="#82edfd" opacity="1.00" stroke="#82edfd" stroke-width="0.25" data-index="53"></path>
<path d="M 120.03 258.58 C 123.64 258.40 127.14 256.98 130.80 257.40 C 134.58 258.35 138.43 258.94 142.18 259.99 C 145.48 260.90 147.99 263.35 150.48 265.56 C 150.81 268.08 153.14 269.52 154.80 271.18 C 157.09 274.07 158.94 277.35 159.93 280.92 C 160.78 283.87 161.48 286.97 163.51 289.40 C 165.70 293.31 163.49 298.11 163.70 302.37 C 162.64 299.26 162.83 295.95 162.86 292.72 L 163.02 291.69 C 159.96 288.50 159.02 284.16 157.63 280.13 C 155.77 274.62 151.96 270.06 147.95 265.96 C 143.05 260.61 135.15 259.87 128.34 259.55 L 128.25 259.55 C 126.50 259.66 124.77 259.84 123.03 260.05 C 118.06 260.78 112.98 258.13 108.14 260.19 C 102.17 261.48 98.34 266.98 96.98 272.62 C 96.58 273.99 96.23 275.37 95.97 276.78 C 95.35 279.93 94.93 283.12 94.39 286.30 L 92.43 286.27 C 93.27 280.07 94.09 273.74 96.52 267.93 C 98.62 262.33 104.23 258.80 109.95 257.83 C 113.34 257.35 116.66 258.43 120.03 258.58 Z" fill="#263525" opacity="1.00" stroke="#263525" stroke-width="0.25" data-index="54"></path>
<path d="M 385.27 258.48 C 391.30 257.03 397.61 257.10 403.73 257.99 L 405.00 258.42 C 398.48 259.15 391.72 259.99 385.27 258.48 Z" fill="#e96946" opacity="1.00" stroke="#e96946" stroke-width="0.25" data-index="55"></path>
<path d="M 383.85 258.68 C 384.20 258.63 384.91 258.53 385.27 258.48 C 391.72 259.99 398.48 259.15 405.00 258.42 C 408.86 259.88 412.99 261.17 416.14 263.96 C 419.04 267.00 421.02 270.97 421.56 275.15 C 420.43 278.31 421.33 281.61 421.89 284.79 C 421.23 284.80 419.91 284.81 419.24 284.82 C 419.11 281.53 419.28 278.08 417.57 275.14 C 417.43 274.75 417.15 273.96 417.02 273.57 L 417.00 273.56 C 416.54 273.45 415.61 273.22 415.15 273.11 C 415.22 277.36 415.39 281.61 415.66 285.85 C 400.57 285.93 385.49 285.90 370.40 285.88 C 369.63 285.10 368.87 284.33 368.12 283.56 C 368.61 278.67 369.51 273.84 369.73 268.93 C 368.98 269.19 368.23 269.47 367.50 269.76 C 363.41 274.17 367.38 281.06 363.56 285.48 C 360.93 288.66 360.42 293.18 356.89 295.67 C 355.88 294.28 354.36 292.97 354.55 291.07 C 355.02 283.24 360.50 276.92 361.91 269.33 C 361.98 269.24 362.11 269.07 362.17 268.99 C 365.27 268.77 366.79 265.76 369.34 264.45 C 374.34 261.69 380.18 261.35 385.48 259.41 L 383.85 258.68 Z" fill="#fb6330" opacity="1.00" stroke="#fb6330" stroke-width="0.25" data-index="56" style="opacity: 1;"></path>
<path d="M 403.73 257.99 C 405.15 257.86 406.58 257.72 408.01 257.57 C 411.04 258.89 414.25 260.04 416.74 262.30 C 420.33 265.21 422.29 269.62 423.30 274.04 C 424.93 281.22 426.18 288.49 426.96 295.81 C 426.84 298.38 426.62 300.96 426.17 303.50 C 425.04 293.99 424.01 284.42 421.56 275.15 C 421.02 270.97 419.04 267.00 416.14 263.96 C 412.99 261.17 408.86 259.88 405.00 258.42 L 403.73 257.99 Z" fill="#1d181c" opacity="1.00" stroke="#1d181c" stroke-width="0.25" data-index="57" style="opacity: 1;"></path>
<path d="M 108.14 260.19 C 112.98 258.13 118.06 260.78 123.03 260.05 C 124.77 259.84 126.50 259.66 128.25 259.55 C 123.30 261.33 118.04 260.18 112.96 259.89 C 106.69 260.38 100.24 264.08 98.65 270.57 L 100.68 270.51 C 100.23 275.72 99.57 280.91 99.13 286.13 C 97.56 286.26 95.97 286.28 94.39 286.30 C 94.93 283.12 95.35 279.93 95.97 276.78 C 95.77 279.87 95.57 282.96 95.34 286.05 C 97.29 285.80 98.85 284.94 98.97 282.86 C 99.94 278.86 99.77 274.69 99.57 270.61 C 98.91 271.37 97.60 272.89 96.94 273.64 C 96.95 273.39 96.97 272.88 96.98 272.62 C 98.34 266.98 102.17 261.48 108.14 260.19 Z" fill="#f8cdb3" opacity="1.00" stroke="#f8cdb3" stroke-width="0.25" data-index="58"></path>
<path d="M 362.17 268.99 C 366.61 261.35 375.90 259.95 383.85 258.68 L 385.48 259.41 C 380.18 261.35 374.34 261.69 369.34 264.45 C 366.79 265.76 365.27 268.77 362.17 268.99 Z" fill="#e96946" opacity="1.00" stroke="#e96946" stroke-width="0.25" data-index="59"></path>
<path d="M 98.65 270.57 C 100.24 264.08 106.69 260.38 112.96 259.89 C 118.04 260.18 123.30 261.33 128.25 259.55 L 128.34 259.55 C 132.96 261.88 138.39 261.59 142.98 263.95 C 149.47 267.74 152.67 274.82 157.63 280.13 C 159.02 284.16 159.96 288.50 163.02 291.69 L 162.86 292.72 C 162.05 296.37 162.83 300.20 161.64 303.79 C 159.71 301.77 157.68 299.83 155.85 297.72 C 154.30 292.36 149.78 288.66 147.54 283.66 C 145.76 278.98 145.45 273.93 144.53 269.05 C 144.48 267.32 142.40 268.21 141.37 268.12 C 141.28 272.84 140.44 278.09 143.31 282.23 L 143.34 282.99 C 143.17 284.35 142.43 285.10 141.10 285.26 C 133.12 286.52 125.03 285.72 117.00 285.94 C 112.46 285.81 107.60 286.57 103.33 284.67 C 101.09 281.82 102.51 277.91 102.39 274.60 C 104.16 274.01 104.67 271.84 103.56 270.41 L 103.03 270.42 C 102.44 270.44 101.27 270.49 100.68 270.51 L 98.65 270.57 Z" fill="#ffb91a" opacity="1.00" stroke="#ffb91a" stroke-width="0.25" data-index="60"></path>
<path d="M 128.34 259.55 C 135.15 259.87 143.05 260.61 147.95 265.96 C 151.96 270.06 155.77 274.62 157.63 280.13 C 152.67 274.82 149.47 267.74 142.98 263.95 C 138.39 261.59 132.96 261.88 128.34 259.55 Z" fill="#e3ba4b" opacity="1.00" stroke="#e3ba4b" stroke-width="0.25" data-index="61"></path>
<path d="M 310.73 275.15 C 310.57 271.23 310.51 267.28 311.37 263.43 C 311.82 275.41 310.37 287.53 312.60 299.39 C 315.17 299.60 317.98 299.32 320.19 300.92 C 322.46 302.62 325.31 302.57 328.02 302.74 C 331.48 302.87 334.96 304.57 338.41 303.45 C 341.57 301.69 344.17 299.05 347.47 297.49 C 347.77 295.94 348.06 294.40 348.29 292.85 C 348.71 292.68 349.55 292.33 349.97 292.15 C 350.34 292.28 351.07 292.54 351.43 292.67 C 351.52 293.15 351.68 294.11 351.76 294.58 C 351.69 302.08 351.51 309.58 351.56 317.08 C 355.02 310.69 358.47 304.21 360.65 297.26 C 362.71 293.24 364.41 288.79 367.97 285.81 C 375.57 287.26 383.34 286.21 391.03 286.53 C 399.63 286.34 408.25 286.95 416.83 286.15 C 416.91 281.96 416.99 277.76 417.00 273.56 L 417.02 273.57 C 417.15 273.96 417.43 274.75 417.57 275.14 C 417.29 278.82 417.26 282.53 417.75 286.19 C 418.83 287.23 419.96 288.22 421.10 289.21 C 420.98 294.68 418.74 300.11 420.44 305.53 C 420.56 306.83 420.65 308.13 420.72 309.44 C 424.90 309.41 429.09 309.38 433.26 309.10 C 432.91 307.75 432.56 306.42 432.16 305.09 C 432.52 304.86 433.25 304.40 433.61 304.16 C 435.69 305.60 435.20 308.37 434.35 310.40 C 431.42 311.54 428.25 311.23 425.19 311.25 C 425.05 342.92 425.02 374.60 425.18 406.27 C 431.00 406.32 436.83 405.95 442.63 406.40 C 442.83 406.87 443.21 407.80 443.40 408.26 C 428.63 408.82 413.81 408.41 399.02 408.52 C 394.80 408.45 390.57 408.73 386.37 408.28 C 393.47 405.62 401.27 408.03 408.66 406.97 L 408.72 406.30 C 409.02 400.39 408.76 394.47 408.89 388.55 C 409.54 387.55 410.18 386.55 410.73 385.50 C 412.52 385.45 414.32 385.42 416.12 385.41 C 416.12 373.57 416.26 361.73 415.82 349.89 C 415.81 349.47 415.78 348.63 415.77 348.21 C 415.67 345.08 415.72 341.95 415.79 338.82 C 398.42 338.78 381.05 338.81 363.69 338.76 C 361.73 341.34 363.21 345.18 362.45 348.25 C 361.29 344.67 361.70 340.92 362.48 337.30 C 361.51 337.26 360.55 337.23 359.60 337.20 C 360.16 335.18 360.57 333.12 360.61 331.03 C 360.79 324.42 361.43 317.84 361.65 311.24 C 360.02 311.21 358.39 311.18 356.77 311.15 C 355.48 313.41 354.25 315.71 353.01 318.00 C 352.50 318.62 351.99 319.23 351.47 319.84 C 350.51 320.64 349.54 321.43 348.58 322.22 C 349.90 324.57 349.87 327.16 348.92 329.64 C 333.94 329.49 318.96 329.63 303.99 329.60 C 303.03 333.81 301.20 338.85 304.37 342.59 C 307.68 345.71 312.43 347.13 316.94 346.89 C 324.97 346.80 333.00 346.89 341.03 346.85 C 343.63 346.89 346.08 345.99 348.53 345.24 C 348.78 348.51 352.10 348.83 354.64 349.36 C 353.72 354.20 353.89 359.12 353.99 364.02 C 353.87 376.92 353.92 389.83 353.71 402.74 C 353.21 403.12 352.23 403.88 351.74 404.26 C 351.87 387.73 351.83 371.19 351.62 354.65 C 351.09 354.64 350.03 354.61 349.50 354.59 C 349.27 357.99 348.91 361.38 348.71 364.79 L 346.98 363.63 C 347.11 360.64 347.30 357.66 347.46 354.68 C 342.40 354.73 337.35 354.75 332.29 354.67 C 332.57 359.08 332.78 363.51 333.05 367.93 C 332.59 367.96 331.69 368.01 331.23 368.04 C 330.93 363.58 330.66 359.12 330.47 354.65 C 328.45 354.66 326.44 354.67 324.42 354.67 C 324.03 360.79 323.84 366.94 323.25 373.05 L 322.80 374.13 C 323.34 370.60 323.00 367.02 322.11 363.58 C 322.14 360.61 322.29 357.64 322.46 354.68 C 317.51 354.75 312.56 354.73 307.61 354.68 C 307.70 356.57 307.78 358.47 307.91 360.37 C 307.42 360.16 306.44 359.74 305.95 359.52 C 305.77 357.91 305.63 356.28 305.49 354.67 C 302.23 354.70 298.96 354.71 295.70 354.67 C 295.23 356.37 294.81 358.09 294.41 359.82 C 294.55 355.95 293.72 352.13 291.72 348.81 C 293.51 348.15 295.31 347.49 297.11 346.84 C 297.70 346.79 298.87 346.68 299.46 346.62 C 301.93 346.60 304.40 346.69 306.87 346.67 C 304.95 345.20 302.40 344.13 301.53 341.70 C 299.99 337.69 301.35 333.40 301.90 329.33 C 301.23 329.44 299.90 329.65 299.23 329.75 C 296.27 323.21 300.12 315.86 297.22 309.33 C 297.04 308.08 296.97 306.81 296.89 305.56 C 299.50 302.57 298.93 298.48 298.93 294.83 C 302.20 293.61 305.66 293.99 309.00 294.62 C 309.47 293.84 309.93 293.05 310.38 292.26 C 311.15 286.60 310.54 280.84 310.73 275.15 Z" fill="#063053" opacity="1.00" stroke="#063053" stroke-width="0.25" data-index="62" style="opacity: 1;"></path>
<path d="M 141.37 268.12 C 142.40 268.21 144.48 267.32 144.53 269.05 C 145.45 273.93 145.76 278.98 147.54 283.66 C 149.78 288.66 154.30 292.36 155.85 297.72 C 152.01 294.27 149.79 289.56 146.64 285.57 C 144.86 280.39 144.13 274.96 143.67 269.53 C 143.50 269.38 143.16 269.09 142.99 268.95 C 142.77 269.09 142.33 269.38 142.10 269.52 C 142.10 273.79 143.39 277.95 143.31 282.23 C 140.44 278.09 141.28 272.84 141.37 268.12 Z" fill="#c9a73d" opacity="1.00" stroke="#c9a73d" stroke-width="0.25" data-index="63"></path>
<path d="M 142.10 269.52 C 142.33 269.38 142.77 269.09 142.99 268.95 C 143.16 269.09 143.50 269.38 143.67 269.53 C 144.13 274.96 144.86 280.39 146.64 285.57 C 145.84 285.14 145.04 284.74 144.22 284.36 C 144.11 284.89 143.90 285.94 143.80 286.46 C 138.22 285.52 132.57 286.23 126.96 286.10 C 118.72 285.99 110.47 286.33 102.25 285.78 C 101.92 283.55 101.69 281.31 101.50 279.07 C 101.38 281.34 101.22 283.62 100.87 285.88 L 99.13 286.13 C 99.57 280.91 100.23 275.72 100.68 270.51 C 101.27 270.49 102.44 270.44 103.03 270.42 C 102.44 271.73 102.43 273.19 102.39 274.60 C 102.51 277.91 101.09 281.82 103.33 284.67 C 107.60 286.57 112.46 285.81 117.00 285.94 C 125.03 285.72 133.12 286.52 141.10 285.26 C 142.43 285.10 143.17 284.35 143.34 282.99 L 143.31 282.23 C 143.39 277.95 142.10 273.79 142.10 269.52 Z" fill="#252401" opacity="1.00" stroke="#252401" stroke-width="0.25" data-index="64"></path>
<path d="M 367.50 269.76 C 368.23 269.47 368.98 269.19 369.73 268.93 C 369.51 273.84 368.61 278.67 368.12 283.56 C 368.87 284.33 369.63 285.10 370.40 285.88 C 385.49 285.90 400.57 285.93 415.66 285.85 C 415.39 281.61 415.22 277.36 415.15 273.11 C 415.61 273.22 416.54 273.45 417.00 273.56 C 416.99 277.76 416.91 281.96 416.83 286.15 C 408.25 286.95 399.63 286.34 391.03 286.53 C 383.34 286.21 375.57 287.26 367.97 285.81 C 367.97 282.97 367.68 280.14 366.96 277.40 C 367.15 274.85 367.37 272.31 367.50 269.76 Z" fill="#411911" opacity="1.00" stroke="#411911" stroke-width="0.25" data-index="65"></path>
<path d="M 103.03 270.42 L 103.56 270.41 C 104.67 271.84 104.16 274.01 102.39 274.60 C 102.43 273.19 102.44 271.73 103.03 270.42 Z" fill="#efbf45" opacity="1.00" stroke="#efbf45" stroke-width="0.25" data-index="66"></path>
<path d="M 355.43 281.95 C 357.35 277.63 358.86 273.02 361.91 269.33 C 360.50 276.92 355.02 283.24 354.55 291.07 C 354.36 292.97 355.88 294.28 356.89 295.67 C 360.42 293.18 360.93 288.66 363.56 285.48 C 367.38 281.06 363.41 274.17 367.50 269.76 C 367.37 272.31 367.15 274.85 366.96 277.40 C 366.13 280.83 366.89 285.13 363.79 287.56 C 362.56 290.78 361.21 294.20 358.42 296.41 C 356.48 297.72 354.03 296.02 353.45 294.05 C 352.82 291.63 353.19 289.09 353.58 286.67 C 354.05 285.04 354.80 283.52 355.43 281.95 Z" fill="#c86950" opacity="1.00" stroke="#c86950" stroke-width="0.25" data-index="67"></path>
<path d="M 96.94 273.64 C 97.60 272.89 98.91 271.37 99.57 270.61 C 99.77 274.69 99.94 278.86 98.97 282.86 C 98.85 284.94 97.29 285.80 95.34 286.05 C 95.57 282.96 95.77 279.87 95.97 276.78 C 96.23 275.37 96.58 273.99 96.98 272.62 C 96.97 272.88 96.95 273.39 96.94 273.64 Z" fill="#f6b61c" opacity="1.00" stroke="#f6b61c" stroke-width="0.25" data-index="68"></path>
<path d="M 295.62 292.05 C 298.68 285.03 301.69 276.30 309.42 273.31 C 309.04 273.88 308.30 275.02 307.92 275.59 C 302.74 279.37 300.57 285.60 297.57 291.00 C 297.08 291.26 296.11 291.78 295.62 292.05 Z" fill="#1d181c" opacity="1.00" stroke="#1d181c" stroke-width="0.25" data-index="69"></path>
<path d="M 309.48 275.34 C 309.80 275.29 310.42 275.20 310.73 275.15 C 310.54 280.84 311.15 286.60 310.38 292.26 L 309.61 292.30 C 309.41 286.65 309.39 280.99 309.48 275.34 Z" fill="#252401" opacity="1.00" stroke="#252401" stroke-width="0.25" data-index="70" style="opacity: 1;"></path>
<path d="M 297.57 291.00 C 300.57 285.60 302.74 279.37 307.92 275.59 L 309.48 275.34 C 309.39 280.99 309.41 286.65 309.61 292.30 C 305.65 292.32 301.69 292.35 297.73 292.34 L 297.57 291.00 Z" fill="#dfbd4a" opacity="1.00" stroke="#dfbd4a" stroke-width="0.25" data-index="71" style="opacity: 1;"></path>
<path d="M 417.57 275.14 C 419.28 278.08 419.11 281.53 419.24 284.82 C 419.91 284.81 421.23 284.80 421.89 284.79 C 421.33 281.61 420.43 278.31 421.56 275.15 C 424.01 284.42 425.04 293.99 426.17 303.50 C 424.82 303.38 423.49 303.22 422.16 303.04 C 421.75 300.60 421.69 298.12 421.70 295.65 C 422.22 292.69 422.32 289.69 422.35 286.69 C 420.81 286.52 419.27 286.35 417.75 286.19 C 417.26 282.53 417.29 278.82 417.57 275.14 Z" fill="#e96946" opacity="1.00" stroke="#e96946" stroke-width="0.25" data-index="72" style="opacity: 1;"></path>
<path d="M 349.57 275.94 C 351.01 277.38 352.36 278.92 353.52 280.60 C 353.04 284.67 351.08 288.50 351.43 292.67 C 351.07 292.54 350.34 292.28 349.97 292.15 C 349.79 286.75 349.63 281.34 349.57 275.94 Z" fill="#d3b84e" opacity="1.00" stroke="#d3b84e" stroke-width="0.25" data-index="73"></path>
<path d="M 232.60 279.41 C 232.90 279.13 233.51 278.57 233.81 278.30 C 234.56 280.82 235.08 283.42 235.40 286.04 C 235.63 286.88 234.59 287.80 233.77 287.34 C 233.08 284.75 232.93 282.05 232.60 279.41 Z" fill="#111d32" opacity="1.00" stroke="#111d32" stroke-width="0.25" data-index="74"></path>
<path d="M 238.11 287.97 C 239.03 284.64 238.96 280.61 241.68 278.14 C 242.05 281.40 240.81 284.57 239.77 287.60 C 239.35 287.69 238.52 287.88 238.11 287.97 Z" fill="#111d32" opacity="1.00" stroke="#111d32" stroke-width="0.25" data-index="75"></path>
<path d="M 366.96 277.40 C 367.68 280.14 367.97 282.97 367.97 285.81 C 364.41 288.79 362.71 293.24 360.65 297.26 C 359.14 298.05 357.49 298.48 355.85 298.90 C 354.46 297.48 353.11 296.03 351.76 294.58 C 352.55 291.99 352.98 289.31 353.58 286.67 C 353.19 289.09 352.82 291.63 353.45 294.05 C 354.03 296.02 356.48 297.72 358.42 296.41 C 361.21 294.20 362.56 290.78 363.79 287.56 C 366.89 285.13 366.13 280.83 366.96 277.40 Z" fill="#111d32" opacity="1.00" stroke="#111d32" stroke-width="0.25" data-index="76"></path>
<path d="M 299.84 290.96 C 301.57 286.48 303.58 281.83 307.19 278.53 C 308.39 282.14 307.85 286.18 308.05 289.96 C 306.25 292.18 302.43 290.89 299.84 290.96 Z" fill="#ffbc18" opacity="1.00" stroke="#ffbc18" stroke-width="0.25" data-index="77"></path>
<path d="M 353.52 280.60 C 353.84 280.59 354.49 280.57 354.81 280.55 C 354.96 280.90 355.27 281.60 355.43 281.95 C 354.80 283.52 354.05 285.04 353.58 286.67 C 352.98 289.31 352.55 291.99 351.76 294.58 C 351.68 294.11 351.52 293.15 351.43 292.67 C 351.08 288.50 353.04 284.67 353.52 280.60 Z" fill="#252401" opacity="1.00" stroke="#252401" stroke-width="0.25" data-index="78"></path>
<path d="M 168.04 282.05 C 168.91 282.62 169.79 283.19 170.66 283.77 C 170.06 286.10 169.59 288.47 169.38 290.87 C 168.32 291.12 167.27 291.37 166.22 291.62 C 166.05 288.31 166.88 285.11 168.04 282.05 Z" fill="#94ecff" opacity="1.00" stroke="#94ecff" stroke-width="0.25" data-index="79"></path>
<path d="M 210.91 282.18 C 211.91 282.96 212.90 283.74 213.88 284.57 C 213.86 284.91 213.82 285.59 213.80 285.94 C 212.72 286.09 211.63 286.24 210.55 286.39 C 209.90 286.48 208.59 286.66 207.94 286.75 C 208.92 285.22 209.92 283.70 210.91 282.18 Z" fill="#9aebff" opacity="1.00" stroke="#9aebff" stroke-width="0.25" data-index="80" style="opacity: 1;"></path>
<path d="M 213.99 282.68 C 214.92 283.60 215.87 284.50 216.81 285.41 C 219.49 285.11 222.21 284.28 224.91 284.80 C 228.80 286.04 232.58 288.55 233.94 292.59 C 237.74 292.78 241.55 292.83 245.36 292.76 C 246.70 290.48 248.37 288.43 250.18 286.50 C 251.23 286.63 252.29 286.80 253.33 287.02 C 255.25 287.38 254.59 289.93 255.23 291.29 C 255.73 291.36 256.71 291.50 257.21 291.57 C 258.06 293.69 259.81 296.21 258.23 298.44 C 256.25 300.36 253.26 301.06 251.75 303.49 C 264.78 303.67 277.81 303.39 290.83 303.65 C 292.35 299.75 294.00 295.90 295.62 292.05 C 296.11 291.78 297.08 291.26 297.57 291.00 L 297.73 292.34 C 301.69 292.35 305.65 292.32 309.61 292.30 L 310.38 292.26 C 309.93 293.05 309.47 293.84 309.00 294.62 C 305.66 293.99 302.20 293.61 298.93 294.83 C 298.93 298.48 299.50 302.57 296.89 305.56 C 282.03 305.32 267.17 305.66 252.32 305.42 C 251.85 305.06 250.93 304.33 250.47 303.97 C 250.64 301.10 251.17 297.93 249.78 295.29 C 247.96 294.51 245.95 294.57 244.02 294.55 C 235.53 294.61 227.04 294.48 218.56 294.08 C 220.48 293.68 222.39 293.24 224.31 292.84 L 224.05 292.36 C 223.04 290.46 222.14 288.51 221.17 286.59 C 217.76 287.02 214.35 287.42 210.98 288.02 L 210.55 286.39 C 211.63 286.24 212.72 286.09 213.80 285.94 C 213.82 285.59 213.86 284.91 213.88 284.57 L 213.99 282.68 Z" fill="#132e37" opacity="1.00" stroke="#132e37" stroke-width="0.25" data-index="81"></path>
<path d="M 144.22 284.36 C 145.04 284.74 145.84 285.14 146.64 285.57 C 149.79 289.56 152.01 294.27 155.85 297.72 C 157.68 299.83 159.71 301.77 161.64 303.79 C 161.95 304.34 162.23 304.91 162.47 305.50 C 158.62 305.53 154.77 305.53 150.92 305.56 C 150.85 305.19 150.71 304.44 150.64 304.07 C 150.41 300.10 151.81 295.60 149.10 292.21 C 147.75 290.39 146.76 287.30 144.00 287.64 C 130.02 287.49 116.04 287.65 102.06 287.58 C 102.10 287.13 102.20 286.23 102.25 285.78 C 110.47 286.33 118.72 285.99 126.96 286.10 C 132.57 286.23 138.22 285.52 143.80 286.46 C 143.90 285.94 144.11 284.89 144.22 284.36 Z" fill="#253b39" opacity="1.00" stroke="#253b39" stroke-width="0.25" data-index="82"></path>
<path d="M 172.17 285.07 C 184.41 290.14 198.10 290.90 210.98 288.02 C 214.35 287.42 217.76 287.02 221.17 286.59 C 222.14 288.51 223.04 290.46 224.05 292.36 C 208.36 291.45 192.63 292.67 176.92 292.11 C 174.91 291.91 172.97 291.34 171.04 290.80 C 171.38 288.88 171.76 286.98 172.17 285.07 Z" fill="#faceba" opacity="1.00" stroke="#faceba" stroke-width="0.25" data-index="83"></path>
<path d="M 222.84 286.18 C 226.65 286.95 230.26 289.06 232.13 292.59 C 230.03 292.61 227.95 292.56 225.86 292.47 C 225.21 290.21 224.03 288.18 222.84 286.18 Z" fill="#9aebff" opacity="1.00" stroke="#9aebff" stroke-width="0.25" data-index="84"></path>
<path d="M 417.75 286.19 C 419.27 286.35 420.81 286.52 422.35 286.69 C 422.32 289.69 422.22 292.69 421.70 295.65 C 421.15 298.42 420.79 301.21 420.70 304.04 C 422.43 304.01 424.16 304.01 425.90 303.93 L 426.17 303.50 C 426.62 300.96 426.84 298.38 426.96 295.81 C 427.57 298.27 427.66 300.82 427.72 303.35 C 429.69 303.54 431.67 303.69 433.61 304.16 C 433.25 304.40 432.52 304.86 432.16 305.09 C 428.28 305.75 424.34 305.41 420.44 305.53 C 418.74 300.11 420.98 294.68 421.10 289.21 C 419.96 288.22 418.83 287.23 417.75 286.19 Z" fill="#111d32" opacity="1.00" stroke="#111d32" stroke-width="0.25" data-index="85"></path>
<path d="M 247.38 292.91 C 248.51 290.70 250.01 287.80 253.00 288.32 C 253.10 289.26 253.31 291.14 253.41 292.08 C 254.83 293.55 257.86 294.39 257.02 296.99 C 255.86 298.45 254.10 299.16 252.50 299.97 C 252.19 297.90 252.04 295.74 251.11 293.84 C 249.89 293.41 248.65 293.10 247.38 292.91 Z" fill="#efc4b9" opacity="1.00" stroke="#efc4b9" stroke-width="0.25" data-index="86"></path>
<path d="M 149.10 292.21 C 151.81 295.60 150.41 300.10 150.64 304.07 C 149.56 300.21 149.35 296.19 149.10 292.21 Z" fill="#9be7ff" opacity="1.00" stroke="#9be7ff" stroke-width="0.25" data-index="87"></path>
<path d="M 217.52 294.24 C 217.78 294.20 218.30 294.12 218.56 294.08 C 227.04 294.48 235.53 294.61 244.02 294.55 C 245.95 294.57 247.96 294.51 249.78 295.29 C 251.17 297.93 250.64 301.10 250.47 303.97 C 249.71 305.12 248.88 306.23 248.07 307.36 C 237.24 307.97 226.69 304.08 217.49 298.64 C 217.50 297.17 217.51 295.70 217.52 294.24 Z" fill="#a1f1fe" opacity="1.00" stroke="#a1f1fe" stroke-width="0.25" data-index="88"></path>
<path d="M 292.85 303.81 C 293.87 300.40 295.15 297.07 296.71 293.87 C 297.02 297.19 297.06 300.54 296.94 303.88 C 295.57 303.85 294.21 303.83 292.85 303.81 Z" fill="#afa765" opacity="1.00" stroke="#afa765" stroke-width="0.25" data-index="89"></path>
<path d="M 351.56 317.08 C 351.51 309.58 351.69 302.08 351.76 294.58 C 353.11 296.03 354.46 297.48 355.85 298.90 C 357.49 298.48 359.14 298.05 360.65 297.26 C 358.47 304.21 355.02 310.69 351.56 317.08 Z" fill="#facfbb" opacity="1.00" stroke="#facfbb" stroke-width="0.25" data-index="90"></path>
<path d="M 420.70 304.04 C 420.79 301.21 421.15 298.42 421.70 295.65 C 421.69 298.12 421.75 300.60 422.16 303.04 C 423.49 303.22 424.82 303.38 426.17 303.50 L 425.90 303.93 C 424.16 304.01 422.43 304.01 420.70 304.04 Z" fill="#79514b" opacity="1.00" stroke="#79514b" stroke-width="0.25" data-index="91" style="opacity: 1;"></path>
<path d="M 152.59 296.89 C 154.63 299.23 156.61 301.63 158.87 303.77 C 156.84 303.60 154.79 303.56 152.78 303.24 C 152.53 301.13 152.60 299.01 152.59 296.89 Z" fill="#93e2ff" opacity="1.00" stroke="#93e2ff" stroke-width="0.25" data-index="92"></path>
<path d="M 93.87 298.45 C 94.18 298.38 94.79 298.25 95.10 298.19 C 95.29 300.70 95.11 303.24 94.18 305.61 C 89.42 305.43 84.66 305.58 79.89 305.46 C 79.80 306.79 79.82 308.12 79.98 309.45 C 82.97 309.38 85.96 309.35 88.96 309.36 C 89.54 314.55 89.03 319.77 89.34 324.97 C 89.61 323.75 89.91 322.54 90.23 321.34 C 90.40 321.08 90.75 320.55 90.92 320.28 C 90.64 348.93 90.90 377.59 90.79 406.24 C 93.02 406.25 95.25 406.27 97.49 406.34 C 97.52 382.74 97.52 359.14 97.47 335.55 C 97.84 335.96 98.58 336.78 98.95 337.19 C 99.89 341.33 99.60 345.65 100.51 349.81 C 101.17 368.62 100.60 387.49 100.77 406.32 C 102.17 406.30 103.58 406.29 104.99 406.28 C 105.30 406.86 105.93 408.01 106.24 408.59 C 93.97 408.40 81.69 408.65 69.41 408.43 C 69.40 407.90 69.38 406.84 69.37 406.31 C 75.41 406.17 81.45 406.18 87.48 406.34 C 87.64 374.64 87.32 342.93 87.63 311.23 C 84.57 311.29 81.45 311.46 78.49 310.50 C 77.24 308.13 77.26 304.93 80.04 303.67 C 83.52 303.37 87.03 303.60 90.52 303.61 C 90.66 302.12 90.75 300.61 91.07 299.15 L 92.23 298.84 C 92.08 300.68 92.01 302.52 91.96 304.37 C 95.17 304.09 93.58 300.54 93.87 298.45 Z" fill="#0a2c47" opacity="1.00" stroke="#0a2c47" stroke-width="0.25" data-index="93"></path>
<path d="M 360.23 303.61 C 360.92 301.72 361.67 299.86 362.55 298.06 C 362.03 299.90 363.40 304.43 360.23 303.61 Z" fill="#f2ffff" opacity="1.00" stroke="#f2ffff" stroke-width="0.25" data-index="94"></path>
<path d="M 92.23 298.84 C 92.64 298.75 93.46 298.55 93.87 298.45 C 93.58 300.54 95.17 304.09 91.96 304.37 C 92.01 302.52 92.08 300.68 92.23 298.84 Z" fill="#5d6d59" opacity="1.00" stroke="#5d6d59" stroke-width="0.25" data-index="95"></path>
<path d="M 217.24 300.93 C 219.28 301.56 221.18 302.53 223.02 303.62 C 221.19 303.59 219.36 303.52 217.54 303.43 C 217.47 302.80 217.31 301.55 217.24 300.93 Z" fill="#f2ffff" opacity="1.00" stroke="#f2ffff" stroke-width="0.25" data-index="96"></path>
<path d="M 79.89 305.46 C 84.66 305.58 89.42 305.43 94.18 305.61 C 93.96 306.88 93.85 308.16 93.72 309.44 C 92.13 309.40 90.54 309.37 88.96 309.36 C 85.96 309.35 82.97 309.38 79.98 309.45 C 79.82 308.12 79.80 306.79 79.89 305.46 Z" fill="#8ae8fc" opacity="1.00" stroke="#8ae8fc" stroke-width="0.25" data-index="97"></path>
<path d="M 150.92 305.56 C 154.77 305.53 158.62 305.53 162.47 305.50 C 162.53 306.80 162.54 308.11 162.53 309.42 C 158.85 309.36 155.18 309.34 151.50 309.43 C 151.31 308.13 151.13 306.84 150.92 305.56 Z" fill="#89e7f9" opacity="1.00" stroke="#89e7f9" stroke-width="0.25" data-index="98"></path>
<path d="M 252.32 305.42 C 267.17 305.66 282.03 305.32 296.89 305.56 C 296.97 306.81 297.04 308.08 297.22 309.33 C 270.67 309.60 244.12 309.37 217.57 309.49 C 217.60 308.15 217.61 306.82 217.60 305.50 C 221.56 305.55 225.60 305.21 229.46 306.29 C 234.87 307.73 240.37 309.48 246.03 309.19 C 248.67 309.12 250.48 307.04 252.32 305.42 Z" fill="#85e8fb" opacity="1.00" stroke="#85e8fb" stroke-width="0.25" data-index="99"></path>
<path d="M 359.31 305.54 C 359.93 305.51 361.16 305.45 361.77 305.42 C 361.75 306.73 361.74 308.05 361.72 309.38 C 360.41 309.40 359.10 309.42 357.79 309.46 C 358.30 308.15 358.75 306.82 359.31 305.54 Z" fill="#9be7ff" opacity="1.00" stroke="#9be7ff" stroke-width="0.25" data-index="100"></path>
<path d="M 420.44 305.53 C 424.34 305.41 428.28 305.75 432.16 305.09 C 432.56 306.42 432.91 307.75 433.26 309.10 C 429.09 309.38 424.90 309.41 420.72 309.44 C 420.65 308.13 420.56 306.83 420.44 305.53 Z" fill="#82e6f6" opacity="1.00" stroke="#82e6f6" stroke-width="0.25" data-index="101"></path>
<path d="M 216.15 310.31 C 216.51 310.10 217.21 309.69 217.57 309.49 C 244.12 309.37 270.67 309.60 297.22 309.33 C 300.12 315.86 296.27 323.21 299.23 329.75 C 299.95 335.33 299.43 341.00 299.46 346.62 C 298.87 346.68 297.70 346.79 297.11 346.84 L 297.11 346.57 C 296.51 334.80 297.02 323.01 296.83 311.23 C 270.30 311.21 243.76 311.22 217.22 311.24 C 216.95 311.01 216.42 310.54 216.15 310.31 Z" fill="#00203e" opacity="1.00" stroke="#00203e" stroke-width="0.25" data-index="102"></path>
<path d="M 153.36 311.23 C 156.43 311.18 159.51 311.20 162.59 311.24 C 162.70 323.09 162.27 334.92 162.71 346.75 C 161.29 346.68 159.86 346.61 158.44 346.53 C 157.35 348.87 157.67 351.42 159.32 353.40 C 159.62 366.44 159.39 379.51 159.48 392.57 C 157.77 392.56 156.07 392.55 154.36 392.55 C 154.39 378.69 154.28 364.84 154.35 350.99 C 154.24 345.62 154.89 340.17 153.44 334.94 C 153.22 327.04 153.43 319.13 153.36 311.23 Z" fill="#84eefd" opacity="1.00" stroke="#84eefd" stroke-width="0.25" data-index="103"></path>
<path d="M 217.22 311.24 C 243.76 311.22 270.30 311.21 296.83 311.23 C 297.02 323.01 296.51 334.80 297.11 346.57 C 295.01 346.63 292.92 346.69 290.83 346.75 C 290.84 348.29 290.84 349.83 290.85 351.38 C 291.25 351.71 292.05 352.36 292.45 352.68 C 292.41 370.56 292.38 388.45 292.45 406.33 C 268.97 406.17 245.49 406.18 222.01 406.28 C 221.64 388.52 221.91 370.73 221.89 352.96 C 222.32 352.57 223.20 351.78 223.64 351.39 C 223.55 349.76 223.45 348.13 223.36 346.50 C 221.40 346.63 219.44 346.68 217.51 346.97 C 217.26 335.14 217.72 323.29 217.25 311.47 L 217.22 311.24 Z" fill="#ffffff" opacity="1.00" stroke="#ffffff" stroke-width="0.25" data-index="104"></path>
<path d="M 215.01 329.54 C 217.24 323.69 214.22 316.98 217.25 311.47 C 217.72 323.29 217.26 335.14 217.51 346.97 C 216.58 347.12 215.65 347.14 214.72 347.05 C 214.94 341.22 214.63 335.37 215.01 329.54 Z" fill="#09263c" opacity="1.00" stroke="#09263c" stroke-width="0.25" data-index="105"></path>
<path d="M 353.01 318.00 C 354.25 315.71 355.48 313.41 356.77 311.15 C 358.39 311.18 360.02 311.21 361.65 311.24 C 361.43 317.84 360.79 324.42 360.61 331.03 C 360.57 333.12 360.16 335.18 359.60 337.20 C 359.08 339.42 359.15 341.72 359.15 344.00 C 359.50 364.73 359.20 385.46 359.35 406.20 C 358.37 406.26 356.42 406.40 355.44 406.46 C 355.10 389.98 355.43 373.50 355.29 357.02 C 354.83 353.40 357.47 350.33 356.81 346.68 C 354.64 346.66 352.48 346.59 350.32 346.60 C 350.84 346.00 351.40 345.42 351.93 344.81 C 355.03 341.38 352.00 336.79 351.61 332.95 C 351.46 327.96 350.84 322.67 353.01 318.00 Z" fill="#fcfefe" opacity="1.00" stroke="#fcfefe" stroke-width="0.25" data-index="106" style="opacity: 1;"></path>
<path d="M 90.92 320.28 C 92.34 318.31 93.46 316.16 94.52 313.99 C 95.75 321.14 96.43 328.37 97.47 335.55 C 97.52 359.14 97.52 382.74 97.49 406.34 C 95.25 406.27 93.02 406.25 90.79 406.24 C 90.90 377.59 90.64 348.93 90.92 320.28 Z" fill="#fcffff" opacity="1.00" stroke="#fcffff" stroke-width="0.25" data-index="107"></path>
<path d="M 351.47 319.84 C 351.99 319.23 352.50 318.62 353.01 318.00 C 350.84 322.67 351.46 327.96 351.61 332.95 C 352.00 336.79 355.03 341.38 351.93 344.81 C 352.01 344.46 352.19 343.75 352.27 343.39 C 353.03 341.17 352.95 339.11 350.81 337.80 C 351.33 331.82 350.57 325.79 351.47 319.84 Z" fill="#708b9d" opacity="1.00" stroke="#708b9d" stroke-width="0.25" data-index="108"></path>
<path d="M 420.61 318.13 C 421.38 319.63 421.66 321.29 421.60 322.97 C 421.69 343.86 421.56 364.75 421.59 385.64 C 421.10 385.55 420.11 385.38 419.62 385.29 C 419.79 370.19 419.49 355.09 419.69 339.98 C 419.65 338.28 420.00 336.32 418.47 335.14 C 418.99 329.45 419.47 323.73 420.61 318.13 Z" fill="#9df4ff" opacity="1.00" stroke="#9df4ff" stroke-width="0.25" data-index="109" style="opacity: 1;"></path>
<path d="M 348.58 322.22 C 349.54 321.43 350.51 320.64 351.47 319.84 C 350.57 325.79 351.33 331.82 350.81 337.80 C 352.95 339.11 353.03 341.17 352.27 343.39 C 352.19 343.75 352.01 344.46 351.93 344.81 C 351.40 345.42 350.84 346.00 350.32 346.60 C 352.48 346.59 354.64 346.66 356.81 346.68 C 357.47 350.33 354.83 353.40 355.29 357.02 C 355.43 373.50 355.10 389.98 355.44 406.46 C 356.42 406.40 358.37 406.26 359.35 406.20 C 359.20 385.46 359.50 364.73 359.15 344.00 C 359.15 341.72 359.08 339.42 359.60 337.20 C 360.55 337.23 361.51 337.26 362.48 337.30 C 361.70 340.92 361.29 344.67 362.45 348.25 C 362.50 348.61 362.60 349.34 362.65 349.70 C 362.71 368.53 362.72 387.38 362.66 406.22 C 363.54 406.28 364.43 406.35 365.32 406.42 C 367.88 406.64 370.46 406.66 373.03 406.56 C 373.34 407.06 373.97 408.06 374.29 408.56 C 323.80 408.54 273.32 408.45 222.84 408.56 C 222.63 407.99 222.22 406.85 222.01 406.28 C 245.49 406.18 268.97 406.17 292.45 406.33 C 292.38 388.45 292.41 370.56 292.45 352.68 C 292.05 352.36 291.25 351.71 290.85 351.38 C 290.84 349.83 290.84 348.29 290.83 346.75 C 292.92 346.69 295.01 346.63 297.11 346.57 L 297.11 346.84 C 295.31 347.49 293.51 348.15 291.72 348.81 C 293.72 352.13 294.55 355.95 294.41 359.82 C 294.81 358.09 295.23 356.37 295.70 354.67 C 295.91 371.85 295.67 389.05 295.82 406.23 C 298.56 406.24 301.30 406.24 304.05 406.25 C 305.83 404.24 307.62 402.24 309.42 400.25 C 308.38 390.51 308.36 380.66 306.72 370.98 C 306.31 367.17 306.29 363.34 305.95 359.52 C 306.44 359.74 307.42 360.16 307.91 360.37 C 308.24 364.41 308.39 368.46 308.67 372.50 C 312.95 372.46 317.23 372.42 321.51 372.55 C 321.71 369.56 321.90 366.57 322.11 363.58 C 323.00 367.02 323.34 370.60 322.80 374.13 C 321.26 378.90 321.84 384.00 321.35 388.93 C 320.80 394.73 321.25 400.54 321.47 406.34 C 325.58 406.21 329.70 406.22 333.82 406.33 C 334.45 396.54 333.68 386.76 333.11 376.99 C 333.12 375.55 332.26 374.38 331.56 373.22 C 331.43 371.49 331.34 369.76 331.23 368.04 C 331.69 368.01 332.59 367.96 333.05 367.93 C 333.14 369.46 333.23 371.00 333.33 372.54 C 337.72 372.41 342.11 372.46 346.51 372.49 C 346.63 369.54 346.79 366.58 346.98 363.63 L 348.71 364.79 C 348.67 370.74 347.30 376.56 346.83 382.48 L 345.14 383.44 C 345.25 380.41 345.48 377.38 345.70 374.36 C 345.36 374.36 344.67 374.35 344.33 374.34 C 344.24 381.23 344.10 388.12 344.51 395.00 C 344.76 391.18 344.54 387.32 345.16 383.53 L 346.82 382.52 C 346.69 388.42 346.07 394.29 345.66 400.18 C 347.61 402.40 349.52 404.66 351.48 406.88 C 351.54 406.23 351.67 404.92 351.74 404.26 C 352.23 403.88 353.21 403.12 353.71 402.74 C 353.92 389.83 353.87 376.92 353.99 364.02 C 353.89 359.12 353.72 354.20 354.64 349.36 C 352.10 348.83 348.78 348.51 348.53 345.24 C 348.73 340.04 348.33 334.82 348.92 329.64 C 349.87 327.16 349.90 324.57 348.58 322.22 Z" fill="#072a48" opacity="1.00" stroke="#072a48" stroke-width="0.25" data-index="110"></path>
<path d="M 212.28 329.48 C 212.96 329.49 214.33 329.53 215.01 329.54 C 214.63 335.37 214.94 341.22 214.72 347.05 C 212.12 346.72 209.50 346.60 206.89 346.55 C 209.38 344.98 212.79 343.81 213.56 340.62 C 214.25 336.87 213.00 333.13 212.28 329.48 Z" fill="#f5ffff" opacity="1.00" stroke="#f5ffff" stroke-width="0.25" data-index="111"></path>
<path d="M 299.23 329.75 C 299.90 329.65 301.23 329.44 301.90 329.33 C 301.35 333.40 299.99 337.69 301.53 341.70 C 302.40 344.13 304.95 345.20 306.87 346.67 C 304.40 346.69 301.93 346.60 299.46 346.62 C 299.43 341.00 299.95 335.33 299.23 329.75 Z" fill="#f4ffff" opacity="1.00" stroke="#f4ffff" stroke-width="0.25" data-index="112"></path>
<path d="M 164.90 329.59 C 180.01 329.52 195.12 329.61 210.23 329.49 C 211.10 332.76 212.10 336.10 211.83 339.52 C 211.70 341.90 209.24 343.24 207.14 343.61 C 195.87 346.04 184.17 344.80 172.96 342.62 C 170.11 341.87 166.92 341.41 164.62 339.45 C 162.86 336.37 164.72 332.83 164.90 329.59 Z" fill="#a3f2ff" opacity="1.00" stroke="#a3f2ff" stroke-width="0.25" data-index="113" style="opacity: 1;"></path>
<path d="M 303.99 329.60 C 318.96 329.63 333.94 329.49 348.92 329.64 C 348.33 334.82 348.73 340.04 348.53 345.24 C 346.08 345.99 343.63 346.89 341.03 346.85 C 333.00 346.89 324.97 346.80 316.94 346.89 C 312.43 347.13 307.68 345.71 304.37 342.59 C 301.20 338.85 303.03 333.81 303.99 329.60 Z" fill="#82edff" opacity="1.00" stroke="#82edff" stroke-width="0.25" data-index="114"></path>
<path d="M 100.77 338.66 C 117.09 338.92 133.41 338.84 149.72 338.70 C 149.83 341.84 149.83 344.98 149.72 348.13 C 133.40 348.13 117.08 348.12 100.77 348.11 C 100.76 344.96 100.76 341.81 100.77 338.66 Z" fill="#83ecfe" opacity="1.00" stroke="#83ecfe" stroke-width="0.25" data-index="115"></path>
<path d="M 362.45 348.25 C 363.21 345.18 361.73 341.34 363.69 338.76 C 381.05 338.81 398.42 338.78 415.79 338.82 C 415.72 341.95 415.67 345.08 415.77 348.21 C 398.00 348.14 380.22 348.09 362.45 348.25 Z" fill="#82edff" opacity="1.00" stroke="#82edff" stroke-width="0.25" data-index="116" style="opacity: 1;"></path>
<path d="M 165.69 342.13 C 167.73 342.84 167.64 344.86 167.72 346.69 C 167.22 346.68 166.22 346.66 165.71 346.65 C 165.70 345.14 165.69 343.63 165.69 342.13 Z" fill="#9be7ff" opacity="1.00" stroke="#9be7ff" stroke-width="0.25" data-index="117"></path>
<path d="M 362.45 348.25 C 380.22 348.09 398.00 348.14 415.77 348.21 C 415.78 348.63 415.81 349.47 415.82 349.89 C 414.05 349.82 412.28 349.76 410.51 349.69 C 410.22 361.62 410.54 373.56 410.73 385.50 C 410.18 386.55 409.54 387.55 408.89 388.55 C 408.59 375.63 408.67 362.70 408.41 349.78 C 401.36 349.91 394.31 349.85 387.26 349.75 C 386.85 358.60 386.69 367.47 386.39 376.33 C 385.12 371.49 386.16 366.46 385.21 361.58 C 385.16 357.66 385.27 353.73 385.31 349.81 C 380.25 349.85 375.20 349.81 370.15 349.80 C 370.11 361.36 371.01 372.92 370.60 384.47 C 370.58 384.96 370.53 385.93 370.51 386.42 L 369.28 385.29 C 368.57 373.53 368.88 361.73 368.15 349.98 C 366.32 349.79 364.48 349.76 362.65 349.70 C 362.60 349.34 362.50 348.61 362.45 348.25 Z" fill="#002644" opacity="1.00" stroke="#002644" stroke-width="0.25" data-index="118" style="opacity: 1;"></path>
<path d="M 100.51 349.81 C 103.08 349.85 105.64 350.00 108.20 350.24 C 108.39 366.55 109.80 382.85 110.17 399.15 C 108.65 401.67 106.69 403.88 104.99 406.28 C 103.58 406.29 102.17 406.30 100.77 406.32 C 100.60 387.49 101.17 368.62 100.51 349.81 Z" fill="#feffff" opacity="1.00" stroke="#feffff" stroke-width="0.25" data-index="119"></path>
<path d="M 125.73 349.64 C 126.90 349.89 128.07 350.15 129.25 350.42 C 129.32 369.03 130.26 387.63 130.59 406.23 C 128.54 406.23 126.50 406.24 124.46 406.27 C 124.77 387.39 125.59 368.52 125.73 349.64 Z" fill="#f9ffff" opacity="1.00" stroke="#f9ffff" stroke-width="0.25" data-index="120"></path>
<path d="M 147.52 349.93 C 148.06 349.91 149.15 349.86 149.70 349.84 C 149.95 367.99 149.99 386.15 149.77 404.30 C 148.12 402.91 146.63 401.33 145.19 399.72 C 145.84 383.12 146.31 366.50 147.52 349.93 Z" fill="#fbffff" opacity="1.00" stroke="#fbffff" stroke-width="0.25" data-index="121"></path>
<path d="M 362.65 349.70 C 364.48 349.76 366.32 349.79 368.15 349.98 C 368.88 361.73 368.57 373.53 369.28 385.29 L 370.51 386.42 C 370.77 390.84 370.74 395.28 370.74 399.71 C 368.82 401.86 367.00 404.09 365.32 406.42 C 364.43 406.35 363.54 406.28 362.66 406.22 C 362.72 387.38 362.71 368.53 362.65 349.70 Z" fill="#fdffff" opacity="1.00" stroke="#fdffff" stroke-width="0.25" data-index="122"></path>
<path d="M 370.15 349.80 C 375.20 349.81 380.25 349.85 385.31 349.81 C 385.27 353.73 385.16 357.66 385.21 361.58 C 384.58 369.31 384.92 377.09 384.26 384.82 C 379.71 384.76 375.14 384.91 370.60 384.47 C 371.01 372.92 370.11 361.36 370.15 349.80 Z" fill="#84eefe" opacity="1.00" stroke="#84eefe" stroke-width="0.25" data-index="123"></path>
<path d="M 387.26 349.75 C 394.31 349.85 401.36 349.91 408.41 349.78 C 408.67 362.70 408.59 375.63 408.89 388.55 C 408.76 394.47 409.02 400.39 408.72 406.30 C 401.00 406.13 393.29 406.20 385.57 406.28 C 385.53 396.29 386.42 386.32 386.39 376.33 C 386.69 367.47 386.85 358.60 387.26 349.75 Z" fill="#ffffff" opacity="1.00" stroke="#ffffff" stroke-width="0.25" data-index="124" style="opacity: 1;"></path>
<path d="M 410.73 385.50 C 410.54 373.56 410.22 361.62 410.51 349.69 C 412.28 349.76 414.05 349.82 415.82 349.89 C 416.26 361.73 416.12 373.57 416.12 385.41 C 414.32 385.42 412.52 385.45 410.73 385.50 Z" fill="#7fedff" opacity="1.00" stroke="#7fedff" stroke-width="0.25" data-index="125" style="opacity: 1;"></path>
<path d="M 203.31 354.25 C 203.78 353.66 204.24 353.05 204.67 352.44 C 204.91 352.65 205.39 353.06 205.63 353.26 C 210.55 353.18 215.97 351.62 220.51 354.21 C 220.97 353.80 221.43 353.38 221.89 352.96 C 221.91 370.73 221.64 388.52 222.01 406.28 C 222.22 406.85 222.63 407.99 222.84 408.56 C 198.43 408.50 174.03 408.58 149.62 408.51 C 149.79 407.99 150.14 406.95 150.31 406.43 C 151.21 406.62 152.12 406.76 153.04 406.87 C 153.61 406.49 154.18 406.10 154.75 405.71 C 156.57 405.50 158.40 405.35 160.22 405.12 C 159.02 403.82 157.82 402.50 156.56 401.26 C 157.20 401.12 158.47 400.85 159.11 400.71 L 159.50 400.62 C 160.14 398.91 160.23 397.03 159.68 395.29 C 160.90 395.79 162.11 396.31 163.33 396.83 C 163.39 398.20 163.43 399.59 163.60 400.96 C 164.42 402.31 165.29 403.65 166.14 405.00 C 167.56 405.15 168.99 405.30 170.42 405.47 C 170.62 404.01 170.87 402.57 171.10 401.13 C 171.60 400.53 172.13 399.96 172.68 399.40 C 174.54 399.07 176.40 398.74 178.25 398.39 C 178.80 390.34 179.48 382.30 179.54 374.23 C 178.10 374.07 176.66 373.92 175.23 373.78 C 175.09 375.25 174.95 376.72 174.82 378.20 C 174.70 376.74 174.49 375.29 174.26 373.85 C 174.07 373.79 173.69 373.65 173.50 373.59 L 172.15 373.28 C 171.78 372.75 171.03 371.70 170.65 371.17 C 176.13 371.90 181.63 372.62 187.17 372.73 C 187.40 370.27 187.68 367.82 188.02 365.38 C 188.36 366.12 189.05 367.59 189.39 368.32 C 189.27 370.46 189.03 372.59 188.77 374.73 C 187.49 374.68 186.21 374.64 184.93 374.60 C 184.50 380.31 183.50 385.95 183.09 391.65 C 185.86 391.11 188.63 390.63 191.41 390.21 C 190.87 384.25 190.45 378.26 190.44 372.27 C 190.92 371.06 191.40 369.86 191.88 368.65 C 192.02 376.52 193.67 384.48 192.50 392.29 C 194.10 394.41 195.71 396.68 198.24 397.77 C 197.78 399.04 197.41 400.35 197.24 401.70 C 195.88 405.02 191.97 404.66 189.06 404.30 C 186.22 404.06 183.76 402.58 181.38 401.16 C 181.30 402.84 181.21 404.54 181.11 406.24 C 187.99 406.18 194.86 406.24 201.74 406.30 C 201.77 404.79 201.79 403.28 201.82 401.78 C 200.84 401.15 199.88 400.52 198.91 399.89 C 199.15 399.46 199.63 398.61 199.86 398.19 L 201.69 399.90 C 202.38 384.87 201.35 369.79 202.21 354.78 C 202.49 354.65 203.04 354.38 203.31 354.25 Z" fill="#082c48" opacity="1.00" stroke="#082c48" stroke-width="0.25" data-index="126" style="opacity: 1;"></path>
<path d="M 324.42 354.67 C 326.44 354.67 328.45 354.66 330.47 354.65 C 330.66 359.12 330.93 363.58 331.23 368.04 C 331.34 369.76 331.43 371.49 331.56 373.22 C 332.26 374.38 333.12 375.55 333.11 376.99 C 333.68 386.76 334.45 396.54 333.82 406.33 C 329.70 406.22 325.58 406.21 321.47 406.34 C 321.25 400.54 320.80 394.73 321.35 388.93 C 321.84 384.00 321.26 378.90 322.80 374.13 L 323.25 373.05 C 323.84 366.94 324.03 360.79 324.42 354.67 Z" fill="#feffff" opacity="1.00" stroke="#feffff" stroke-width="0.25" data-index="127"></path>
<path d="M 349.50 354.59 C 350.03 354.61 351.09 354.64 351.62 354.65 C 351.83 371.19 351.87 387.73 351.74 404.26 C 351.67 404.92 351.54 406.23 351.48 406.88 C 349.52 404.66 347.61 402.40 345.66 400.18 C 346.07 394.29 346.69 388.42 346.82 382.52 L 345.16 383.53 C 344.54 387.32 344.76 391.18 344.51 395.00 C 344.10 388.12 344.24 381.23 344.33 374.34 C 344.67 374.35 345.36 374.36 345.70 374.36 C 345.48 377.38 345.25 380.41 345.14 383.44 L 346.83 382.48 C 347.30 376.56 348.67 370.74 348.71 364.79 C 348.91 361.38 349.27 357.99 349.50 354.59 Z" fill="#faffff" opacity="1.00" stroke="#faffff" stroke-width="0.25" data-index="128"></path>
<path d="M 163.18 354.70 C 165.79 354.67 168.41 354.66 171.02 354.66 C 170.36 360.43 169.18 366.13 168.69 371.93 C 168.29 378.88 168.68 385.85 168.25 392.80 C 166.52 392.72 164.80 392.64 163.07 392.64 C 163.31 380.00 163.10 367.35 163.18 354.70 Z" fill="#84eefe" opacity="1.00" stroke="#84eefe" stroke-width="0.25" data-index="129"></path>
<path d="M 172.94 354.71 C 178.40 354.71 183.87 354.71 189.33 354.60 C 188.91 358.19 188.48 361.79 188.02 365.38 C 187.68 367.82 187.40 370.27 187.17 372.73 C 181.63 372.62 176.13 371.90 170.65 371.17 C 171.39 365.68 172.21 360.20 172.94 354.71 Z" fill="#a2f1fe" opacity="1.00" stroke="#a2f1fe" stroke-width="0.25" data-index="130" style="opacity: 1;"></path>
<path d="M 191.22 354.65 C 194.89 354.69 198.55 354.71 202.21 354.78 C 201.35 369.79 202.38 384.87 201.69 399.90 L 199.86 398.19 C 199.63 398.61 199.15 399.46 198.91 399.89 C 198.35 400.48 197.79 401.08 197.24 401.70 C 197.41 400.35 197.78 399.04 198.24 397.77 C 195.71 396.68 194.10 394.41 192.50 392.29 C 193.67 384.48 192.02 376.52 191.88 368.65 C 191.75 363.98 191.22 359.33 191.22 354.65 Z" fill="#fdffff" opacity="1.00" stroke="#fdffff" stroke-width="0.25" data-index="131"></path>
<path d="M 205.50 401.29 C 205.24 385.73 205.42 370.17 205.43 354.62 C 209.77 354.72 214.11 354.70 218.45 354.63 C 218.49 371.88 218.55 389.13 218.42 406.39 C 213.30 407.28 209.83 403.09 205.50 401.29 Z" fill="#feffff" opacity="1.00" stroke="#feffff" stroke-width="0.25" data-index="132"></path>
<path d="M 295.70 354.67 C 298.96 354.71 302.23 354.70 305.49 354.67 C 305.63 356.28 305.77 357.91 305.95 359.52 C 306.29 363.34 306.31 367.17 306.72 370.98 C 308.36 380.66 308.38 390.51 309.42 400.25 C 307.62 402.24 305.83 404.24 304.05 406.25 C 301.30 406.24 298.56 406.24 295.82 406.23 C 295.67 389.05 295.91 371.85 295.70 354.67 Z" fill="#feffff" opacity="1.00" stroke="#feffff" stroke-width="0.25" data-index="133"></path>
<path d="M 307.61 354.68 C 312.56 354.73 317.51 354.75 322.46 354.68 C 322.29 357.64 322.14 360.61 322.11 363.58 C 321.90 366.57 321.71 369.56 321.51 372.55 C 317.23 372.42 312.95 372.46 308.67 372.50 C 308.39 368.46 308.24 364.41 307.91 360.37 C 307.78 358.47 307.70 356.57 307.61 354.68 Z" fill="#83edff" opacity="1.00" stroke="#83edff" stroke-width="0.25" data-index="134"></path>
<path d="M 332.29 354.67 C 337.35 354.75 342.40 354.73 347.46 354.68 C 347.30 357.66 347.11 360.64 346.98 363.63 C 346.79 366.58 346.63 369.54 346.51 372.49 C 342.11 372.46 337.72 372.41 333.33 372.54 C 333.23 371.00 333.14 369.46 333.05 367.93 C 332.78 363.51 332.57 359.08 332.29 354.67 Z" fill="#83edff" opacity="1.00" stroke="#83edff" stroke-width="0.25" data-index="135"></path>
<path d="M 385.21 361.58 C 386.16 366.46 385.12 371.49 386.39 376.33 C 386.42 386.32 385.53 396.29 385.57 406.28 C 393.29 406.20 401.00 406.13 408.72 406.30 L 408.66 406.97 C 401.27 408.03 393.47 405.62 386.37 408.28 C 382.40 408.93 378.30 408.39 374.29 408.56 C 373.97 408.06 373.34 407.06 373.03 406.56 C 370.46 406.66 367.88 406.64 365.32 406.42 C 367.00 404.09 368.82 401.86 370.74 399.71 C 370.74 395.28 370.77 390.84 370.51 386.42 C 370.53 385.93 370.58 384.96 370.60 384.47 C 375.14 384.91 379.71 384.76 384.26 384.82 C 384.92 377.09 384.58 369.31 385.21 361.58 Z" fill="#073153" opacity="1.00" stroke="#073153" stroke-width="0.25" data-index="136" style="opacity: 1;"></path>
<path d="M 189.39 368.32 C 189.82 369.61 190.18 370.93 190.44 372.27 C 190.45 378.26 190.87 384.25 191.41 390.21 C 188.63 390.63 185.86 391.11 183.09 391.65 C 183.50 385.95 184.50 380.31 184.93 374.60 C 186.21 374.64 187.49 374.68 188.77 374.73 C 189.03 372.59 189.27 370.46 189.39 368.32 Z" fill="#85edff" opacity="1.00" stroke="#85edff" stroke-width="0.25" data-index="137"></path>
<path d="M 168.69 371.93 C 169.12 372.17 169.99 372.65 170.43 372.89 C 170.26 380.06 170.17 387.24 170.17 394.43 C 167.84 394.50 165.52 394.65 163.20 394.59 C 162.86 394.47 162.19 394.24 161.86 394.12 C 162.16 393.75 162.77 393.01 163.07 392.64 C 164.80 392.64 166.52 392.72 168.25 392.80 C 168.68 385.85 168.29 378.88 168.69 371.93 Z" fill="#07293c" opacity="1.00" stroke="#07293c" stroke-width="0.25" data-index="138"></path>
<path d="M 170.43 372.89 C 170.86 372.99 171.72 373.18 172.15 373.28 L 173.50 373.59 C 172.98 380.61 171.99 387.60 171.47 394.62 C 169.01 394.84 166.56 395.08 164.10 395.31 C 163.93 397.19 163.76 399.07 163.60 400.96 C 163.43 399.59 163.39 398.20 163.33 396.83 C 163.30 396.27 163.23 395.15 163.20 394.59 C 165.52 394.65 167.84 394.50 170.17 394.43 C 170.17 387.24 170.26 380.06 170.43 372.89 Z" fill="#f2ffff" opacity="1.00" stroke="#f2ffff" stroke-width="0.25" data-index="139"></path>
<path d="M 173.50 373.59 C 173.69 373.65 174.07 373.79 174.26 373.85 C 174.49 375.29 174.70 376.74 174.82 378.20 C 174.15 385.27 173.49 392.34 172.68 399.40 C 172.13 399.96 171.60 400.53 171.10 401.13 C 171.26 398.96 171.35 396.79 171.47 394.62 C 171.99 387.60 172.98 380.61 173.50 373.59 Z" fill="#111d32" opacity="1.00" stroke="#111d32" stroke-width="0.25" data-index="140"></path>
<path d="M 175.23 373.78 C 176.66 373.92 178.10 374.07 179.54 374.23 C 179.48 382.30 178.80 390.34 178.25 398.39 C 176.40 398.74 174.54 399.07 172.68 399.40 C 173.49 392.34 174.15 385.27 174.82 378.20 C 174.95 376.72 175.09 375.25 175.23 373.78 Z" fill="#f7cebc" opacity="1.00" stroke="#f7cebc" stroke-width="0.25" data-index="141" style="opacity: 1;"></path>
<path d="M 309.46 374.39 C 309.73 374.40 310.29 374.42 310.57 374.43 C 310.20 380.95 310.94 387.47 310.50 393.99 C 310.57 387.43 309.39 380.95 309.46 374.39 Z" fill="#f5ffff" opacity="1.00" stroke="#f5ffff" stroke-width="0.25" data-index="142"></path>
<path d="M 314.37 396.40 C 314.14 389.02 314.04 381.62 314.38 374.24 C 316.37 374.32 318.37 374.39 320.38 374.45 C 320.07 381.73 319.51 389.00 319.19 396.27 C 317.58 396.30 315.98 396.35 314.37 396.40 Z" fill="#fcccb8" opacity="1.00" stroke="#fcccb8" stroke-width="0.25" data-index="143"></path>
<path d="M 334.57 374.37 C 336.58 374.37 338.59 374.37 340.61 374.37 C 340.57 381.72 340.66 389.06 340.55 396.41 C 338.99 396.38 337.44 396.36 335.88 396.35 C 335.39 389.03 334.97 381.70 334.57 374.37 Z" fill="#f8cdb3" opacity="1.00" stroke="#f8cdb3" stroke-width="0.25" data-index="144"></path>
<path d="M 182.44 393.36 C 185.04 392.90 187.66 392.50 190.27 392.08 C 192.07 394.43 193.81 396.81 195.81 399.00 C 195.67 399.85 195.38 401.56 195.24 402.42 C 191.33 402.96 186.77 403.01 183.57 400.35 C 181.39 398.68 182.53 395.66 182.44 393.36 Z" fill="#fec8b2" opacity="1.00" stroke="#fec8b2" stroke-width="0.25" data-index="145"></path>
<path d="M 155.41 394.32 C 155.87 394.40 156.79 394.57 157.25 394.66 C 157.19 396.64 157.15 398.63 157.08 400.63 C 154.21 399.85 155.82 396.43 155.41 394.32 Z" fill="#f2ffff" opacity="1.00" stroke="#f2ffff" stroke-width="0.25" data-index="146"></path>
<path d="M 159.30 395.14 L 159.68 395.29 C 160.23 397.03 160.14 398.91 159.50 400.62 L 159.11 400.71 C 158.34 398.93 158.34 396.85 159.30 395.14 Z" fill="#426c91" opacity="1.00" stroke="#426c91" stroke-width="0.25" data-index="147"></path>
<path d="M 164.10 395.31 C 166.56 395.08 169.01 394.84 171.47 394.62 C 171.35 396.79 171.26 398.96 171.10 401.13 C 170.87 402.57 170.62 404.01 170.42 405.47 C 168.99 405.30 167.56 405.15 166.14 405.00 C 165.29 403.65 164.42 402.31 163.60 400.96 C 163.76 399.07 163.93 397.19 164.10 395.31 Z" fill="#fcc8b5" opacity="1.00" stroke="#fcc8b5" stroke-width="0.25" data-index="148"></path>
<path d="M 197.24 401.70 C 197.79 401.08 198.35 400.48 198.91 399.89 C 199.88 400.52 200.84 401.15 201.82 401.78 C 201.79 403.28 201.77 404.79 201.74 406.30 C 194.86 406.24 187.99 406.18 181.11 406.24 C 181.21 404.54 181.30 402.84 181.38 401.16 C 183.76 402.58 186.22 404.06 189.06 404.30 C 191.97 404.66 195.88 405.02 197.24 401.70 Z" fill="#81eaff" opacity="1.00" stroke="#81eaff" stroke-width="0.25" data-index="149" style="opacity: 1;"></path>
<path d="M 173.52 401.29 C 174.54 401.12 176.59 400.76 177.61 400.59 C 178.02 402.29 178.17 404.03 178.10 405.79 C 176.52 405.85 174.94 405.91 173.36 405.98 C 173.40 404.41 173.46 402.85 173.52 401.29 Z" fill="#f2d7ca" opacity="1.00" stroke="#f2d7ca" stroke-width="0.25" data-index="150" style="opacity: 1;"></path>
<path d="M 154.73 401.58 C 155.19 401.50 156.11 401.34 156.56 401.26 C 157.82 402.50 159.02 403.82 160.22 405.12 C 158.40 405.35 156.57 405.50 154.75 405.71 C 154.75 404.68 154.74 402.62 154.73 401.58 Z" fill="#a76661" opacity="1.00" stroke="#a76661" stroke-width="0.25" data-index="151"></path>
<path d="M 162.44 403.16 C 163.83 402.13 165.08 404.66 163.96 405.60 C 162.59 406.51 161.37 404.09 162.44 403.16 Z" fill="#57586d" opacity="1.00" stroke="#57586d" stroke-width="0.25" data-index="152"></path>
<path d="M 122.83 406.78 C 128.21 406.30 133.60 406.97 138.98 406.99 C 141.30 407.06 143.85 406.81 145.75 408.45 C 133.93 408.47 122.09 408.75 110.29 408.30 C 114.20 406.39 118.64 407.26 122.83 406.78 Z" fill="#031f39" opacity="1.00" stroke="#031f39" stroke-width="0.25" data-index="153"></path>
</svg>