<?xml version="1.0" encoding="utf-8"?>
<svg xmlns="http://www.w3.org/2000/svg" height="512pt" version="1.1" viewBox="0 0 512 512" width="512pt">
<path d="M 0.00 0.00 L 512.00 0.00 L 512.00 512.00 L 0.00 512.00 L 0.00 0.00 Z" fill="transparent" opacity="1.00" stroke="transparent" stroke-width="0.25"/>
<path d="M 394.98 94.56 C 401.69 94.37 408.37 93.06 415.10 93.64 C 421.53 124.23 426.50 155.09 431.08 186.00 C 434.37 211.61 437.29 237.28 439.38 263.03 C 442.71 306.66 445.68 350.30 448.18 393.99 C 448.12 395.70 448.67 397.90 447.06 399.11 C 401.48 401.96 355.96 406.88 310.97 414.89 C 307.20 415.38 303.51 416.82 299.67 416.55 C 295.85 400.28 294.69 383.23 288.15 367.69 C 276.78 338.47 266.03 309.02 255.44 279.51 C 246.09 305.75 236.22 331.81 226.15 357.78 C 223.42 365.59 219.82 373.12 217.83 381.16 C 215.36 393.01 213.81 405.03 211.27 416.86 C 207.07 416.44 202.98 415.36 198.87 414.47 C 169.93 407.90 140.46 403.96 110.95 400.94 C 95.17 399.38 79.32 398.73 63.50 397.63 C 63.18 395.40 63.09 393.15 63.25 390.91 C 66.10 340.87 69.06 290.84 73.63 240.92 C 77.08 201.05 83.19 161.46 90.07 122.05 C 92.07 112.84 92.86 103.32 95.78 94.33 C 111.00 94.79 126.18 96.30 141.39 97.04 C 184.20 99.27 227.07 101.21 269.96 100.61 C 311.68 99.96 353.36 97.66 394.98 94.56 Z" fill="#052e4b" opacity="1.00" stroke="#052e4b" stroke-width="0.25"/>
<path d="M 388.58 98.97 C 391.42 98.73 394.28 98.68 397.13 98.69 C 367.79 104.89 337.92 108.21 307.99 109.85 C 265.37 112.60 222.56 112.13 180.00 108.65 C 157.76 107.13 135.71 103.70 113.85 99.45 C 144.56 100.93 175.26 102.93 206.01 103.68 C 249.30 105.76 292.65 104.29 335.91 102.30 C 353.47 101.21 371.04 100.36 388.58 98.97 Z" fill="#5492bb" opacity="1.00" stroke="#5492bb" stroke-width="0.25"/>
<path d="M 274.41 115.20 C 320.74 114.19 367.27 110.21 412.41 99.27 C 414.81 110.18 416.64 121.21 418.49 132.23 C 392.47 134.60 366.55 138.01 340.50 140.17 C 308.91 142.89 277.22 144.92 245.50 144.74 C 245.60 135.00 245.60 125.26 245.59 115.52 C 248.69 115.52 251.80 115.49 254.91 115.65 C 252.36 120.06 249.09 124.67 250.05 130.07 C 250.48 139.10 259.96 146.09 268.72 143.87 C 276.32 142.33 281.67 134.58 280.68 126.93 C 280.52 122.25 277.61 118.37 274.41 115.20 Z" fill="#5492bb" opacity="1.00" stroke="#5492bb" stroke-width="0.25"/>
<path d="M 97.85 100.05 C 144.89 111.05 193.28 114.69 241.47 115.50 C 241.59 125.19 241.49 134.88 241.54 144.57 C 191.60 143.40 141.93 137.57 92.30 132.35 C 93.86 121.54 96.25 110.86 97.85 100.05 Z" fill="#5492bb" opacity="1.00" stroke="#5492bb" stroke-width="0.25"/>
<path d="M 261.55 116.73 C 269.61 113.31 278.70 121.85 277.12 130.10 C 276.49 136.73 269.54 141.85 263.03 140.35 C 256.68 139.22 252.20 132.24 253.82 126.00 C 254.54 121.81 257.59 118.23 261.55 116.73 Z" fill="#89e7ff" opacity="1.00" stroke="#89e7ff" stroke-width="0.25"/>
<path d="M 262.37 120.51 C 266.73 119.41 271.50 123.50 270.93 128.01 C 271.67 133.83 263.67 137.47 259.54 133.52 C 254.96 129.97 256.53 121.68 262.37 120.51 Z" fill="#052e4b" opacity="1.00" stroke="#052e4b" stroke-width="0.25"/>
<path d="M 261.54 124.28 C 263.86 124.09 266.04 124.74 267.78 126.32 C 267.28 128.03 267.26 130.25 265.55 131.28 C 263.99 131.95 262.05 131.42 261.11 130.00 C 259.64 128.30 261.07 126.08 261.54 124.28 Z" fill="#89e7ff" opacity="1.00" stroke="#89e7ff" stroke-width="0.25"/>
<path d="M 91.55 136.09 C 111.85 138.42 132.17 140.54 152.51 142.51 C 150.79 158.63 144.98 174.74 133.71 186.66 C 124.66 196.61 112.22 203.26 99.02 205.66 C 106.47 193.66 114.30 181.91 121.91 170.02 C 123.94 166.81 126.40 163.81 127.81 160.27 C 127.38 159.66 126.52 158.46 126.09 157.86 C 122.57 161.23 120.32 165.61 117.61 169.60 C 109.86 181.91 101.70 193.96 94.25 206.45 C 89.92 206.54 85.59 206.62 81.26 206.58 C 83.90 182.98 87.82 159.54 91.55 136.09 Z" fill="#89e7ff" opacity="1.00" stroke="#89e7ff" stroke-width="0.25"/>
<path d="M 358.08 142.44 C 378.47 140.35 398.82 137.93 419.22 136.00 C 423.19 159.46 426.85 182.96 429.71 206.58 C 425.38 206.61 421.05 206.60 416.72 206.51 C 408.40 192.30 398.82 178.87 390.03 164.95 C 388.58 162.60 386.96 160.35 385.23 158.20 C 384.55 158.65 383.17 159.54 382.48 159.99 C 388.59 170.58 395.89 180.43 402.34 190.82 C 405.57 195.78 408.84 200.73 412.08 205.70 C 395.96 203.05 381.18 193.64 371.65 180.41 C 363.69 169.33 359.31 155.97 358.08 142.44 Z" fill="#89e7ff" opacity="1.00" stroke="#89e7ff" stroke-width="0.25"/>
<path d="M 148.81 170.67 C 153.04 161.89 154.91 152.23 156.31 142.65 C 158.00 142.85 159.70 143.03 161.39 143.21 C 161.29 146.31 159.09 152.18 164.28 151.88 C 165.83 149.44 166.08 146.49 166.71 143.74 C 167.90 143.83 169.10 143.93 170.30 144.03 C 196.69 146.45 223.15 148.07 249.64 148.81 C 249.79 177.86 249.67 206.91 249.68 235.96 C 249.71 240.31 249.42 244.71 250.19 249.03 C 250.95 254.49 253.05 259.62 254.32 264.96 C 255.30 268.66 253.99 272.38 252.74 275.84 C 246.50 292.87 240.37 309.94 233.86 326.87 C 227.59 343.86 220.60 360.60 214.71 377.73 C 211.86 389.18 210.32 400.92 208.30 412.53 C 174.68 404.60 140.40 399.66 106.01 396.61 C 93.11 395.64 80.22 394.40 67.27 394.28 C 67.30 389.27 67.58 384.27 67.76 379.28 L 68.17 379.29 C 73.99 379.31 79.82 380.21 85.63 379.71 C 85.90 377.74 85.88 375.76 85.90 373.78 C 80.01 373.43 74.12 373.11 68.24 372.73 C 71.38 322.38 74.33 272.00 79.46 221.81 C 82.63 222.17 85.80 222.43 88.99 222.61 C 88.94 220.89 89.08 219.13 88.62 217.46 C 85.83 216.73 82.93 216.68 80.08 216.47 C 80.27 214.48 80.43 212.48 80.58 210.49 C 94.62 211.13 109.25 208.89 121.37 201.38 C 133.37 194.25 142.97 183.32 148.81 170.67 Z" fill="#89e7ff" opacity="1.00" stroke="#89e7ff" stroke-width="0.25"/>
<path d="M 161.39 143.21 C 164.38 143.24 167.36 143.52 170.30 144.03 C 169.10 143.93 167.90 143.83 166.71 143.74 C 166.08 146.49 165.83 149.44 164.28 151.88 C 159.09 152.18 161.29 146.31 161.39 143.21 Z" fill="#1d5176" opacity="1.00" stroke="#1d5176" stroke-width="0.25"/>
<path d="M 339.50 144.05 C 342.66 143.41 345.88 143.13 349.09 143.05 C 349.34 144.40 349.62 145.76 349.85 147.13 C 350.17 149.12 350.46 151.12 350.76 153.12 C 349.40 153.58 348.04 154.03 346.68 154.48 C 345.61 150.96 344.93 147.34 344.32 143.72 C 342.71 143.82 341.10 143.92 339.50 144.05 Z" fill="#1d5176" opacity="1.00" stroke="#1d5176" stroke-width="0.25"/>
<path d="M 349.23 142.84 C 350.90 142.81 352.57 142.78 354.24 142.74 C 355.69 156.89 360.29 170.82 368.55 182.46 C 378.53 196.00 393.42 206.20 410.10 209.21 C 416.74 210.64 423.56 210.65 430.32 210.53 C 430.45 212.49 430.59 214.45 430.76 216.42 C 427.89 216.75 425.02 217.12 422.16 217.59 C 422.72 219.10 421.85 221.81 423.84 222.33 C 426.44 222.62 429.05 222.30 431.65 222.18 C 437.27 279.82 440.80 337.64 444.28 395.44 C 420.81 396.68 397.39 398.92 374.05 401.72 C 350.16 404.56 326.27 407.77 302.69 412.58 C 301.65 406.09 300.28 399.65 299.04 393.19 C 298.89 392.36 298.61 390.70 298.47 389.87 C 303.04 389.35 307.59 388.66 312.18 388.19 C 312.55 387.14 312.94 386.10 313.32 385.06 C 312.89 383.94 312.46 382.82 312.03 381.70 C 306.99 382.25 301.97 382.87 296.96 383.60 C 295.37 372.62 289.86 362.84 286.45 352.40 C 276.63 327.18 267.45 301.70 258.38 276.20 C 257.24 272.51 259.03 268.63 258.22 264.87 C 256.86 258.56 254.41 252.50 253.64 246.06 C 253.35 242.22 253.56 238.37 253.48 234.54 C 261.60 232.26 269.99 229.19 275.57 222.51 C 281.54 215.57 282.72 205.78 281.86 196.97 C 281.16 180.61 279.97 164.27 279.47 147.91 C 299.52 147.33 319.52 145.74 339.50 144.05 C 341.10 143.92 342.71 143.82 344.32 143.72 C 344.93 147.34 345.61 150.96 346.68 154.48 C 348.04 154.03 349.40 153.58 350.76 153.12 C 350.46 151.12 350.17 149.12 349.85 147.13 C 349.62 145.70 349.42 144.27 349.23 142.84 Z" fill="#89e7ff" opacity="1.00" stroke="#89e7ff" stroke-width="0.25"/>
<path d="M 253.65 148.72 C 260.92 148.64 268.19 148.43 275.47 148.28 C 276.03 164.53 277.18 180.76 278.05 197.00 C 278.96 205.52 277.59 215.05 271.47 221.48 C 266.55 226.12 260.06 228.72 253.53 230.12 C 253.70 202.98 253.48 175.85 253.65 148.72 Z" fill="#89e7ff" opacity="1.00" stroke="#89e7ff" stroke-width="0.25"/>
<path d="M 158.84 159.58 C 159.55 157.33 162.22 159.10 163.76 159.21 C 162.09 164.81 160.53 170.55 157.74 175.73 C 156.76 177.61 154.30 176.22 152.70 176.31 C 154.53 170.66 156.75 165.14 158.84 159.58 Z" fill="#1d5176" opacity="1.00" stroke="#1d5176" stroke-width="0.25"/>
<path d="M 259.11 159.12 C 260.29 158.07 262.15 159.61 261.76 161.04 C 261.94 173.67 261.74 186.32 261.85 198.96 C 261.83 201.85 261.97 204.77 261.42 207.62 C 260.72 207.61 259.32 207.58 258.61 207.56 C 257.78 205.12 257.86 202.51 257.97 199.97 C 258.41 187.63 257.75 175.28 257.93 162.93 C 258.22 161.71 257.61 159.67 259.11 159.12 Z" fill="#052e4b" opacity="1.00" stroke="#052e4b" stroke-width="0.25"/>
<path d="M 348.79 165.78 C 348.17 164.14 348.08 162.35 348.80 160.73 C 349.56 160.77 351.08 160.85 351.84 160.89 C 354.31 166.23 356.07 171.90 358.69 177.19 C 357.81 177.99 356.93 178.79 356.06 179.59 C 355.48 179.25 354.31 178.56 353.72 178.21 C 352.03 174.08 350.24 169.99 348.79 165.78 Z" fill="#1d5176" opacity="1.00" stroke="#1d5176" stroke-width="0.25"/>
<path d="M 147.59 183.77 C 148.67 181.85 150.83 182.80 151.95 184.12 C 151.82 186.15 150.56 187.80 149.45 189.41 C 146.75 193.14 143.79 196.73 140.27 199.73 C 139.25 198.82 138.24 197.90 137.23 196.98 C 140.69 192.58 144.12 188.16 147.59 183.77 Z" fill="#1d5176" opacity="1.00" stroke="#1d5176" stroke-width="0.25"/>
<path d="M 360.48 184.53 C 363.13 183.30 364.49 186.38 366.01 187.97 C 368.10 190.86 370.77 193.32 372.72 196.31 C 373.92 199.01 370.19 200.98 368.56 198.50 C 365.20 194.64 360.73 190.94 359.47 185.86 C 359.72 185.53 360.23 184.86 360.48 184.53 Z" fill="#1d5176" opacity="1.00" stroke="#1d5176" stroke-width="0.25"/>
<path d="M 119.27 210.03 C 123.66 207.06 127.99 204.00 132.38 201.02 C 133.14 202.32 134.50 203.42 134.55 205.04 C 131.14 208.37 127.12 211.11 122.96 213.42 C 120.66 214.06 120.23 211.45 119.27 210.03 Z" fill="#1d5176" opacity="1.00" stroke="#1d5176" stroke-width="0.25"/>
<path d="M 377.30 202.36 C 379.67 201.48 381.59 203.41 383.41 204.60 C 385.81 206.42 388.59 207.78 390.71 209.96 C 390.71 211.29 390.66 212.62 390.55 213.95 C 385.42 213.14 381.47 209.45 377.45 206.46 C 375.97 205.54 376.51 203.54 377.30 202.36 Z" fill="#1d5176" opacity="1.00" stroke="#1d5176" stroke-width="0.25"/>
<path d="M 96.42 216.19 C 101.95 214.40 107.76 213.51 113.47 212.45 C 113.47 213.99 113.57 215.56 113.34 217.10 C 107.97 219.41 102.10 220.74 96.25 220.78 C 96.26 219.25 96.23 217.71 96.42 216.19 Z" fill="#1d5176" opacity="1.00" stroke="#1d5176" stroke-width="0.25"/>
<path d="M 397.70 213.28 C 403.54 213.11 409.24 214.81 414.77 216.46 C 415.57 218.05 414.63 219.90 414.57 221.57 C 408.75 220.58 402.97 219.28 397.44 217.23 C 397.51 216.24 397.64 214.27 397.70 213.28 Z" fill="#1d5176" opacity="1.00" stroke="#1d5176" stroke-width="0.25"/>
<path d="M 80.08 216.47 C 82.93 216.68 85.83 216.73 88.62 217.46 C 89.08 219.13 88.94 220.89 88.99 222.61 C 85.80 222.43 82.63 222.17 79.46 221.81 C 79.65 220.03 79.86 218.25 80.08 216.47 Z" fill="#1d5176" opacity="1.00" stroke="#1d5176" stroke-width="0.25"/>
<path d="M 422.16 217.59 C 425.02 217.12 427.89 216.75 430.76 216.42 C 431.08 218.33 431.37 220.26 431.65 222.18 C 429.05 222.30 426.44 222.62 423.84 222.33 C 421.85 221.81 422.72 219.10 422.16 217.59 Z" fill="#1d5176" opacity="1.00" stroke="#1d5176" stroke-width="0.25"/>
<path d="M 427.06 372.66 C 430.57 372.33 434.07 371.94 437.59 371.65 C 437.82 373.84 437.89 376.04 437.77 378.25 C 434.26 378.51 430.76 378.81 427.25 378.83 C 427.14 376.77 427.08 374.71 427.06 372.66 Z" fill="#1d5176" opacity="1.00" stroke="#1d5176" stroke-width="0.25"/>
<path d="M 68.24 372.73 C 74.12 373.11 80.01 373.43 85.90 373.78 C 85.88 375.76 85.90 377.74 85.63 379.71 C 79.82 380.21 73.99 379.31 68.17 379.29 C 68.19 377.10 68.21 374.91 68.24 372.73 Z" fill="#1d5176" opacity="1.00" stroke="#1d5176" stroke-width="0.25"/>
<path d="M 406.50 374.64 C 409.99 374.29 413.47 373.67 416.99 373.85 C 419.00 374.98 419.24 378.88 417.27 380.11 C 413.78 381.01 410.11 380.79 406.54 380.76 C 406.50 378.72 406.48 376.68 406.50 374.64 Z" fill="#1d5176" opacity="1.00" stroke="#1d5176" stroke-width="0.25"/>
<path d="M 92.47 380.33 C 92.71 378.34 93.00 376.36 93.35 374.39 C 100.21 374.47 107.05 375.06 113.85 375.95 C 113.72 378.07 113.57 380.20 113.39 382.32 C 106.42 381.61 99.40 381.47 92.47 380.33 Z" fill="#1d5176" opacity="1.00" stroke="#1d5176" stroke-width="0.25"/>
<path d="M 385.42 376.40 C 389.36 375.85 393.33 375.52 397.31 375.56 C 397.39 377.56 397.45 379.56 397.49 381.57 C 393.59 382.20 389.64 382.57 385.69 382.60 C 385.56 380.53 385.47 378.47 385.42 376.40 Z" fill="#1d5176" opacity="1.00" stroke="#1d5176" stroke-width="0.25"/>
<path d="M 123.34 376.23 C 126.09 376.26 128.84 376.41 131.59 376.63 C 131.65 378.66 131.77 380.71 131.52 382.74 C 128.73 384.05 125.59 382.73 122.70 382.52 C 122.85 380.42 123.07 378.32 123.34 376.23 Z" fill="#1d5176" opacity="1.00" stroke="#1d5176" stroke-width="0.25"/>
<path d="M 366.36 377.65 C 370.10 377.30 373.85 377.08 377.61 377.27 C 377.61 379.23 377.79 381.23 377.30 383.15 C 373.69 383.91 369.96 383.82 366.30 383.88 C 366.26 381.80 366.28 379.73 366.36 377.65 Z" fill="#1d5176" opacity="1.00" stroke="#1d5176" stroke-width="0.25"/>
<path d="M 140.35 377.37 C 143.98 377.67 147.88 377.24 151.23 378.90 C 151.34 380.76 151.20 382.62 151.11 384.48 C 147.41 384.56 143.66 384.49 140.05 383.61 C 139.32 381.56 140.10 379.42 140.35 377.37 Z" fill="#1d5176" opacity="1.00" stroke="#1d5176" stroke-width="0.25"/>
<path d="M 160.31 379.24 C 164.23 379.65 168.87 378.49 172.26 380.93 C 172.30 382.78 171.91 384.61 171.60 386.44 C 167.82 386.05 163.94 386.00 160.28 384.88 C 160.11 383.00 160.24 381.11 160.31 379.24 Z" fill="#1d5176" opacity="1.00" stroke="#1d5176" stroke-width="0.25"/>
<path d="M 343.84 379.39 C 347.70 378.76 351.61 378.50 355.53 378.46 C 355.82 380.42 356.11 382.38 356.38 384.36 C 352.39 385.11 348.33 385.36 344.27 385.41 C 344.10 383.40 343.96 381.39 343.84 379.39 Z" fill="#1d5176" opacity="1.00" stroke="#1d5176" stroke-width="0.25"/>
<path d="M 180.47 387.18 C 180.70 384.99 179.35 380.85 182.70 380.86 C 189.63 381.72 196.73 381.85 203.54 383.47 C 204.25 385.44 203.60 387.55 203.47 389.57 C 195.79 388.87 188.15 387.85 180.47 387.18 Z" fill="#1d5176" opacity="1.00" stroke="#1d5176" stroke-width="0.25"/>
<path d="M 322.36 380.76 C 325.66 380.45 328.96 380.13 332.25 379.73 C 332.80 380.01 333.91 380.59 334.47 380.88 C 334.45 382.64 334.41 384.41 334.37 386.19 C 330.50 386.21 326.28 388.00 322.62 386.44 C 322.32 384.56 322.38 382.65 322.36 380.76 Z" fill="#1d5176" opacity="1.00" stroke="#1d5176" stroke-width="0.25"/>
<path d="M 296.96 383.60 C 301.97 382.87 306.99 382.25 312.03 381.70 C 312.46 382.82 312.89 383.94 313.32 385.06 C 312.94 386.10 312.55 387.14 312.18 388.19 C 307.59 388.66 303.04 389.35 298.47 389.87 C 298.61 390.70 298.89 392.36 299.04 393.19 C 298.11 390.05 297.41 386.84 296.96 383.60 Z" fill="#1d5176" opacity="1.00" stroke="#1d5176" stroke-width="0.25"/>
</svg>