<?xml version="1.0" encoding="utf-8"?>
<svg xmlns="http://www.w3.org/2000/svg" height="512pt" version="1.1" viewBox="0 0 512 512" width="512pt">
<path d="M 0.00 0.00 L 512.00 0.00 L 512.00 512.00 L 0.00 512.00 L 0.00 0.00 Z" fill="transparent" opacity="1.00" stroke="transparent" stroke-width="0.25"/>
<path d="M 208.98 120.12 C 242.60 117.27 276.48 117.94 310.04 121.27 C 313.11 121.54 316.14 122.09 319.15 122.73 C 319.87 132.28 321.63 141.79 321.30 151.40 C 321.77 155.46 323.57 159.22 324.67 163.13 C 332.50 190.35 340.59 217.50 347.12 245.07 C 355.69 280.45 362.50 316.22 370.04 351.82 C 371.16 357.13 372.57 362.40 373.09 367.83 C 367.85 371.72 362.48 375.42 356.92 378.85 C 356.83 379.94 356.73 381.02 356.63 382.12 C 336.60 391.49 313.00 389.53 292.78 381.79 C 287.57 379.56 281.83 379.67 276.34 380.47 C 276.35 382.00 276.36 383.54 276.38 385.09 C 269.86 389.07 262.40 391.26 254.91 392.49 C 247.63 393.75 240.07 393.93 232.85 392.20 C 232.47 390.55 232.32 388.82 231.61 387.28 C 225.24 384.19 217.83 383.85 210.88 384.38 C 206.64 384.45 204.20 388.91 200.04 389.24 C 189.73 389.76 179.04 389.13 169.44 385.03 C 169.53 383.08 169.66 381.13 169.80 379.19 C 159.19 380.23 148.37 378.41 138.62 374.12 C 139.16 367.67 140.39 361.31 141.39 354.92 C 147.02 321.80 153.13 288.76 159.87 255.85 C 165.69 226.59 173.50 197.70 183.71 169.65 C 185.59 164.01 188.01 158.56 189.82 152.89 C 187.47 151.76 188.19 149.09 188.10 147.00 C 188.27 138.87 188.00 130.73 188.38 122.60 C 195.17 121.25 202.08 120.67 208.98 120.12 Z" fill="#17587f" opacity="1.00" stroke="#17587f" stroke-width="0.25"/>
<path d="M 225.80 122.22 C 242.19 121.22 258.63 120.99 275.02 122.05 C 288.82 122.62 302.66 123.20 316.35 125.23 C 316.95 133.13 317.85 141.00 318.41 148.90 C 289.60 148.54 260.84 150.48 232.04 150.51 C 218.42 150.71 204.81 150.03 191.20 149.72 C 191.10 141.42 191.05 133.12 191.25 124.82 C 202.75 123.67 214.25 122.46 225.80 122.22 Z" fill="#75c7f5" opacity="1.00" stroke="#75c7f5" stroke-width="0.25"/>
<path d="M 223.48 130.09 C 228.48 131.24 232.85 134.24 237.95 135.03 C 241.40 135.70 244.83 134.56 248.28 134.44 C 251.84 134.31 255.22 135.58 258.62 136.43 C 258.60 137.02 258.58 138.20 258.57 138.79 C 255.65 138.48 252.77 137.89 249.87 137.50 C 245.90 137.02 241.96 138.65 238.01 137.86 C 232.88 137.05 228.21 134.66 223.50 132.61 C 223.50 131.98 223.49 130.72 223.48 130.09 Z" fill="#ffffff" opacity="1.00" stroke="#ffffff" stroke-width="0.25"/>
<path d="M 263.66 136.91 C 266.76 135.47 270.28 135.50 273.62 135.15 C 273.58 135.70 273.49 136.79 273.45 137.34 C 270.09 138.26 266.58 139.21 263.08 138.42 L 263.66 136.91 Z" fill="#ffffff" opacity="1.00" stroke="#ffffff" stroke-width="0.25"/>
<path d="M 276.36 152.48 C 283.13 152.41 289.89 152.10 296.65 152.13 C 299.80 161.83 303.62 171.29 306.63 181.03 C 307.76 183.63 307.90 187.87 311.70 187.73 C 308.83 175.54 303.76 163.99 299.78 152.14 C 305.92 152.15 312.07 152.06 318.21 152.10 C 328.71 187.83 339.43 223.55 347.51 259.93 C 353.28 285.26 358.51 310.72 363.69 336.17 C 365.74 346.36 368.41 356.43 369.82 366.73 C 365.53 369.61 361.42 372.79 356.79 375.12 C 354.82 348.25 351.20 321.52 347.28 294.87 C 343.51 270.48 339.37 246.13 334.11 222.01 C 332.00 212.54 330.45 202.86 327.13 193.72 C 326.47 193.58 325.16 193.29 324.50 193.14 C 327.59 207.05 330.80 220.94 333.71 234.89 C 340.81 271.68 346.58 308.73 350.93 345.95 C 352.07 357.39 353.69 368.80 354.06 380.30 C 336.40 387.44 316.23 386.81 298.41 380.60 C 290.95 333.47 284.10 286.23 278.83 238.79 C 275.35 239.03 275.74 243.10 274.83 245.56 C 271.83 222.21 272.18 198.60 270.66 175.13 C 270.60 172.00 269.63 168.99 268.01 166.33 C 264.76 174.11 264.86 182.67 264.15 190.93 C 262.31 213.61 263.09 236.46 266.08 259.01 C 267.50 268.91 268.40 278.93 271.10 288.60 C 271.49 291.38 271.28 294.20 271.24 297.00 C 270.32 325.97 271.89 354.94 273.46 383.86 C 261.67 389.13 248.53 391.66 235.64 390.15 C 233.20 374.20 232.16 358.07 230.44 342.03 C 227.07 310.59 224.49 279.04 221.28 247.59 C 221.41 234.29 221.33 220.98 221.71 207.68 C 221.99 199.12 221.85 190.55 221.36 182.00 C 221.20 178.87 220.28 175.85 219.06 172.99 C 216.41 178.70 216.15 185.06 215.34 191.19 C 213.68 204.60 212.75 218.09 212.29 231.59 C 210.95 248.36 211.74 265.20 210.79 281.99 C 210.32 314.74 210.31 347.53 212.56 380.22 C 211.02 380.74 209.46 381.25 207.94 381.83 C 204.60 382.72 202.65 386.53 199.02 386.48 C 190.08 386.92 181.05 386.00 172.50 383.30 C 178.10 333.34 183.12 283.30 189.87 233.47 L 188.60 232.41 C 187.97 231.87 187.34 231.34 186.72 230.81 C 187.27 225.81 187.45 220.77 187.91 215.76 C 191.20 200.08 195.21 184.54 197.79 168.72 C 197.11 168.61 195.75 168.38 195.07 168.27 C 191.70 182.34 189.55 196.75 185.08 210.54 C 181.33 218.49 180.14 227.27 177.69 235.65 C 169.39 268.63 163.19 302.10 157.47 335.61 C 155.40 348.76 153.08 361.87 151.49 375.08 C 148.09 374.42 144.76 373.49 141.48 372.40 C 145.20 349.98 149.13 327.60 153.33 305.27 C 160.57 267.88 167.03 230.18 178.72 193.85 C 182.77 180.05 188.00 166.63 192.95 153.14 C 198.12 153.10 203.28 153.18 208.45 153.27 C 207.12 163.67 204.45 173.87 203.09 184.25 C 204.83 185.40 206.26 184.16 206.36 182.29 C 208.29 172.69 210.00 163.04 211.66 153.39 C 217.56 153.45 223.47 153.51 229.37 153.63 C 229.40 163.42 229.13 173.22 229.42 183.02 C 229.16 184.24 230.59 186.43 231.89 184.92 C 232.68 183.06 232.38 180.97 232.44 179.01 C 232.20 170.56 232.43 162.11 232.27 153.66 C 237.60 153.48 242.93 153.41 248.26 153.39 C 247.93 166.47 246.63 179.50 246.35 192.59 C 247.05 192.34 248.46 191.85 249.17 191.61 C 250.24 178.88 250.80 166.09 251.45 153.33 C 258.68 153.26 265.91 153.05 273.14 152.58 C 273.63 160.05 273.84 167.54 274.41 175.00 C 274.54 176.65 275.49 177.20 277.25 176.67 C 277.64 168.60 276.38 160.55 276.36 152.48 Z" fill="#75c7f5" opacity="1.00" stroke="#75c7f5" stroke-width="0.25"/>
<path d="M 288.80 164.22 C 289.51 164.23 290.93 164.26 291.65 164.28 C 293.15 177.79 294.49 191.33 295.66 204.88 C 291.79 205.50 292.54 201.51 292.05 199.00 C 290.90 187.41 289.45 175.84 288.80 164.22 Z" fill="#17587f" opacity="1.00" stroke="#17587f" stroke-width="0.25"/>
<path d="M 195.07 168.27 C 195.75 168.38 197.11 168.61 197.79 168.72 C 195.21 184.54 191.20 200.08 187.91 215.76 C 184.67 216.11 185.40 212.64 185.08 210.54 C 189.55 196.75 191.70 182.34 195.07 168.27 Z" fill="#17587f" opacity="1.00" stroke="#17587f" stroke-width="0.25"/>
<path d="M 264.15 190.93 C 264.86 182.67 264.76 174.11 268.01 166.33 C 269.63 168.99 270.60 172.00 270.66 175.13 C 272.18 198.60 271.83 222.21 274.83 245.56 C 274.84 252.06 273.29 258.47 272.94 264.97 C 272.05 272.83 272.08 280.76 271.10 288.60 C 268.40 278.93 267.50 268.91 266.08 259.01 C 263.09 236.46 262.31 213.61 264.15 190.93 Z" fill="#56a8d7" opacity="1.00" stroke="#56a8d7" stroke-width="0.25"/>
<path d="M 215.34 191.19 C 216.15 185.06 216.41 178.70 219.06 172.99 C 220.28 175.85 221.20 178.87 221.36 182.00 C 221.85 190.55 221.99 199.12 221.71 207.68 C 221.33 220.98 221.41 234.29 221.28 247.59 C 220.47 247.62 218.86 247.67 218.05 247.70 C 222.67 293.11 226.58 338.60 231.63 383.97 C 224.09 381.02 215.88 380.89 207.94 381.83 C 209.46 381.25 211.02 380.74 212.56 380.22 C 210.31 347.53 210.32 314.74 210.79 281.99 C 211.74 265.20 210.95 248.36 212.29 231.59 C 212.75 218.09 213.68 204.60 215.34 191.19 Z" fill="#56a8d7" opacity="1.00" stroke="#56a8d7" stroke-width="0.25"/>
<path d="M 177.69 235.65 C 180.14 227.27 181.33 218.49 185.08 210.54 C 185.40 212.64 184.67 216.11 187.91 215.76 C 187.45 220.77 187.27 225.81 186.72 230.81 C 187.34 231.34 187.97 231.87 188.60 232.41 C 186.31 233.32 186.29 235.94 185.93 237.99 C 183.73 256.62 181.41 275.24 179.23 293.88 C 176.19 321.31 173.32 348.75 170.09 376.16 C 163.87 376.60 157.62 376.29 151.46 375.31 L 151.49 375.08 C 153.08 361.87 155.40 348.76 157.47 335.61 C 163.19 302.10 169.39 268.63 177.69 235.65 Z" fill="#56a8d7" opacity="1.00" stroke="#56a8d7" stroke-width="0.25"/>
<path d="M 234.34 214.03 C 235.31 214.23 236.29 214.42 237.27 214.61 C 237.44 225.10 239.22 235.48 239.53 245.96 C 239.62 249.31 239.73 252.68 239.98 256.03 C 240.64 264.67 239.86 273.38 240.91 282.00 C 241.54 286.90 241.83 291.84 241.73 296.78 C 241.21 296.62 240.19 296.28 239.67 296.12 C 238.23 286.15 237.15 276.09 237.40 266.01 C 237.64 259.31 236.39 252.69 236.46 245.99 C 236.40 235.30 234.30 224.73 234.34 214.03 Z" fill="#ffffff" opacity="1.00" stroke="#ffffff" stroke-width="0.25"/>
<path d="M 297.87 231.05 C 297.83 229.21 299.24 227.96 300.30 226.66 C 301.03 231.75 300.44 236.88 300.58 241.99 C 300.96 252.51 302.41 262.94 303.60 273.39 C 302.98 273.47 301.76 273.62 301.15 273.69 C 299.68 268.24 299.29 262.58 298.64 256.99 C 297.92 248.37 297.07 239.69 297.87 231.05 Z" fill="#ffffff" opacity="1.00" stroke="#ffffff" stroke-width="0.25"/>
<path d="M 277.36 253.03 C 282.06 295.26 288.55 337.27 294.96 379.26 C 288.95 377.10 282.54 376.48 276.22 377.41 C 274.33 346.64 273.54 315.78 274.72 284.96 C 275.32 274.30 275.74 263.60 277.36 253.03 Z" fill="#56a8d7" opacity="1.00" stroke="#56a8d7" stroke-width="0.25"/>
<path d="M 197.38 270.45 C 197.92 270.49 199.00 270.57 199.54 270.61 C 200.94 278.74 199.66 287.02 198.32 295.07 C 197.51 294.45 195.21 294.73 195.84 293.15 C 196.85 285.62 197.63 278.06 197.38 270.45 Z" fill="#ffffff" opacity="1.00" stroke="#ffffff" stroke-width="0.25"/>
<path d="M 304.13 299.33 C 304.80 299.33 306.14 299.34 306.80 299.34 C 308.34 308.85 309.53 318.46 312.16 327.76 C 313.60 334.78 314.96 341.82 316.02 348.91 C 315.43 348.84 314.26 348.69 313.67 348.62 C 311.18 340.80 310.46 332.58 308.39 324.66 C 306.19 316.37 305.13 307.83 304.13 299.33 Z" fill="#ffffff" opacity="1.00" stroke="#ffffff" stroke-width="0.25"/>
<path d="M 197.33 303.83 C 197.93 303.82 199.12 303.79 199.72 303.78 C 199.75 308.41 199.72 313.04 199.68 317.67 C 199.05 317.67 197.79 317.67 197.15 317.67 C 196.85 313.06 197.27 308.44 197.33 303.83 Z" fill="#ffffff" opacity="1.00" stroke="#ffffff" stroke-width="0.25"/>
<path d="M 245.39 309.38 C 245.98 309.31 247.15 309.16 247.74 309.09 C 248.36 314.57 248.12 320.10 248.79 325.58 C 249.64 332.28 249.92 339.10 248.86 345.80 C 248.22 345.79 246.95 345.78 246.31 345.77 C 246.42 339.50 246.87 333.20 245.99 326.96 C 245.19 321.14 245.35 315.24 245.39 309.38 Z" fill="#ffffff" opacity="1.00" stroke="#ffffff" stroke-width="0.25"/>
<path d="M 196.27 335.40 C 196.90 335.41 198.17 335.44 198.81 335.45 C 196.94 345.54 194.06 355.43 192.06 365.51 C 191.15 365.43 190.24 365.36 189.32 365.31 C 190.95 355.20 193.54 345.26 196.27 335.40 Z" fill="#ffffff" opacity="1.00" stroke="#ffffff" stroke-width="0.25"/>
<path d="M 250.21 351.28 C 250.86 351.40 252.17 351.64 252.82 351.76 C 252.53 355.23 252.09 358.68 251.53 362.11 C 252.52 362.64 253.51 363.17 254.51 363.71 C 254.57 366.07 254.64 368.43 254.68 370.80 C 253.68 370.69 252.68 370.58 251.68 370.48 C 251.68 369.28 251.67 368.09 251.66 366.90 C 250.64 366.30 249.65 365.66 248.69 364.98 C 248.33 360.37 249.68 355.83 250.21 351.28 Z" fill="#ffffff" opacity="1.00" stroke="#ffffff" stroke-width="0.25"/>
</svg>