<?xml version="1.0" encoding="utf-8"?>
<svg xmlns="http://www.w3.org/2000/svg" height="512pt" version="1.1" viewBox="0 0 512 512" width="512pt">
<path d="M 0.00 0.00 L 512.00 0.00 L 512.00 512.00 L 0.00 512.00 L 0.00 0.00 Z" fill="transparent" opacity="1.00" stroke="transparent" stroke-width="0.25"/>
<path d="M 120.93 39.39 C 125.44 36.51 128.67 30.36 134.83 31.40 C 137.69 31.98 142.16 31.21 143.32 34.63 C 144.44 38.36 144.17 42.73 141.95 46.02 C 139.90 47.96 137.41 49.49 136.21 52.18 C 143.24 54.01 150.37 57.75 157.79 55.78 C 162.28 53.53 165.40 49.42 169.36 46.45 C 173.25 43.62 178.26 45.66 182.08 47.58 C 182.88 49.22 183.51 51.94 185.96 51.23 C 190.82 49.51 194.37 45.55 198.29 42.37 C 200.94 40.23 204.48 41.72 207.41 42.34 C 208.25 45.22 208.97 48.76 212.03 50.10 C 215.62 49.84 219.18 48.85 222.80 49.40 C 225.62 49.86 228.36 48.97 231.10 48.45 C 234.67 47.75 238.15 49.35 241.71 49.38 C 244.69 49.22 247.60 47.63 250.61 48.39 C 252.26 50.58 253.03 54.09 256.18 54.57 C 258.92 54.16 261.49 52.90 264.29 52.71 C 266.62 52.46 269.22 52.66 271.13 51.04 C 273.91 48.76 277.57 47.71 279.92 44.91 C 282.53 41.84 285.68 39.30 288.79 36.76 C 291.98 34.07 296.90 33.28 300.60 35.39 C 305.34 37.43 306.48 44.04 303.95 48.19 C 303.87 44.69 303.80 40.59 300.82 38.19 C 298.01 35.31 293.46 36.49 290.51 38.47 C 283.73 43.29 278.74 50.15 272.19 55.25 C 269.01 57.74 264.79 57.84 261.13 59.24 C 256.63 60.88 252.26 63.81 247.28 63.40 C 244.63 61.22 242.81 57.27 238.87 57.33 C 233.55 56.79 229.25 60.25 225.47 63.47 C 220.27 66.90 215.48 71.40 209.21 72.73 C 206.48 75.93 201.87 73.90 199.03 71.93 C 197.87 69.76 197.69 67.06 195.88 65.26 C 194.07 63.32 192.59 61.11 190.89 59.08 C 188.67 57.77 185.99 57.48 183.63 56.44 C 180.01 54.98 177.81 51.45 174.38 49.70 C 173.08 49.16 171.88 50.25 170.78 50.77 C 164.30 54.48 159.13 60.80 151.52 62.24 C 146.02 62.12 141.44 58.58 136.76 56.10 C 134.11 54.66 130.49 53.77 128.00 55.99 C 122.53 59.90 117.36 65.49 110.15 65.58 C 106.75 64.77 106.13 60.32 103.14 58.76 C 100.13 57.17 95.96 55.09 92.94 57.76 C 88.17 61.73 85.16 67.34 80.87 71.78 C 74.88 79.48 68.09 86.94 64.76 96.28 C 64.60 96.56 64.27 97.14 64.11 97.43 C 59.47 97.55 53.76 98.46 50.02 95.18 C 52.84 90.67 57.33 87.63 61.74 84.85 C 64.28 83.14 67.20 81.40 68.26 78.34 C 70.07 73.06 71.07 67.20 74.98 62.94 C 77.45 60.29 79.86 57.52 81.26 54.12 C 78.16 53.72 76.86 50.94 75.23 48.71 C 72.24 46.25 68.84 49.33 66.52 51.25 C 59.70 57.72 54.93 65.99 48.24 72.60 C 48.12 71.08 48.04 69.43 49.24 68.30 C 54.43 61.80 59.94 55.55 64.87 48.84 C 66.92 45.96 70.44 44.37 73.97 44.76 C 77.61 44.70 79.79 48.13 82.98 49.25 C 87.39 48.90 88.49 43.88 91.91 41.91 C 96.20 39.30 99.39 35.25 103.72 32.73 C 107.30 31.60 111.46 31.78 114.92 33.25 C 116.91 35.31 118.52 37.75 120.93 39.39 Z" fill="#ebfeff" opacity="1.00" stroke="#ebfeff" stroke-width="0.25"/>
<path d="M 351.92 32.95 C 355.36 31.68 359.24 32.52 362.85 32.27 C 364.05 36.15 366.58 40.13 365.29 44.31 C 364.80 46.48 363.02 47.94 361.60 49.51 C 363.50 50.08 365.68 52.19 367.54 50.47 C 375.08 45.44 382.50 40.23 389.64 34.64 C 391.88 32.52 395.05 33.76 397.59 34.54 C 400.44 35.39 402.06 38.09 403.73 40.35 C 406.08 43.51 405.84 47.73 407.82 51.09 C 412.42 48.63 417.71 46.66 422.99 47.89 C 426.82 49.29 430.25 52.79 430.25 57.08 C 427.84 54.58 426.03 50.44 422.04 50.51 C 417.08 50.21 412.82 53.17 409.14 56.13 C 404.80 59.71 399.35 61.53 394.89 64.94 C 389.68 68.90 383.39 70.90 377.46 73.47 C 375.62 74.38 373.56 74.27 371.57 74.16 C 371.79 70.54 373.31 66.36 370.93 63.15 C 369.28 60.83 367.58 58.38 365.15 56.82 C 360.41 55.52 355.40 57.64 350.68 56.12 C 347.39 55.07 344.00 54.37 340.75 53.23 C 340.07 51.77 339.68 50.20 339.22 48.67 C 337.33 47.33 335.50 45.48 333.03 45.43 C 327.73 45.10 322.32 44.76 317.09 45.86 C 315.65 46.61 314.23 47.42 312.81 48.21 L 310.75 48.49 C 313.01 46.27 315.72 44.36 318.98 44.06 C 322.85 43.72 326.03 40.56 330.04 41.27 C 332.79 41.51 335.41 42.46 338.03 43.30 C 343.49 41.03 347.34 36.47 351.92 32.95 Z" fill="#e1fcff" opacity="1.00" stroke="#e1fcff" stroke-width="0.25"/>
<path d="M 290.51 38.47 C 293.46 36.49 298.01 35.31 300.82 38.19 C 303.80 40.59 303.87 44.69 303.95 48.19 C 303.41 49.57 302.75 50.90 302.15 52.25 C 305.12 51.24 307.65 49.09 310.75 48.49 L 312.81 48.21 C 307.49 51.99 302.04 55.95 295.58 57.50 C 296.30 53.86 297.73 50.41 298.59 46.81 C 299.34 43.81 295.38 41.03 292.82 42.87 C 284.23 47.28 280.11 56.98 271.66 61.63 C 263.37 66.15 254.31 69.23 245.25 71.79 C 242.99 68.95 241.99 65.19 239.21 62.78 C 235.48 60.87 231.72 63.69 228.71 65.69 C 222.53 70.19 215.13 72.53 208.90 76.93 C 204.33 80.21 198.84 81.94 194.45 85.50 C 191.36 87.56 188.08 90.80 184.07 89.98 C 179.95 87.89 177.77 83.33 177.45 78.87 C 177.09 74.22 171.21 73.53 169.07 70.02 C 167.54 66.87 167.56 62.75 164.62 60.44 C 161.27 59.69 158.35 62.21 155.32 63.24 C 151.90 64.92 147.98 65.19 144.34 64.09 C 140.52 60.94 136.77 56.25 131.34 56.50 C 128.54 57.82 126.37 60.13 123.88 61.92 C 118.24 66.14 112.32 70.15 105.78 72.84 C 104.66 73.60 103.07 72.20 103.32 70.96 C 103.21 68.87 103.49 66.76 103.27 64.67 C 102.35 63.63 101.24 62.79 100.19 61.90 C 96.34 63.20 91.84 63.71 89.06 67.01 C 84.72 72.02 79.60 76.33 75.73 81.76 C 72.02 86.56 68.84 91.76 64.76 96.28 C 68.09 86.94 74.88 79.48 80.87 71.78 C 85.16 67.34 88.17 61.73 92.94 57.76 C 95.96 55.09 100.13 57.17 103.14 58.76 C 106.13 60.32 106.75 64.77 110.15 65.58 C 117.36 65.49 122.53 59.90 128.00 55.99 C 130.49 53.77 134.11 54.66 136.76 56.10 C 141.44 58.58 146.02 62.12 151.52 62.24 C 159.13 60.80 164.30 54.48 170.78 50.77 C 171.88 50.25 173.08 49.16 174.38 49.70 C 177.81 51.45 180.01 54.98 183.63 56.44 C 185.99 57.48 188.67 57.77 190.89 59.08 C 192.59 61.11 194.07 63.32 195.88 65.26 C 197.69 67.06 197.87 69.76 199.03 71.93 C 201.87 73.90 206.48 75.93 209.21 72.73 C 215.48 71.40 220.27 66.90 225.47 63.47 C 229.25 60.25 233.55 56.79 238.87 57.33 C 242.81 57.27 244.63 61.22 247.28 63.40 C 252.26 63.81 256.63 60.88 261.13 59.24 C 264.79 57.84 269.01 57.74 272.19 55.25 C 278.74 50.15 283.73 43.29 290.51 38.47 Z" fill="#d3fafe" opacity="1.00" stroke="#d3fafe" stroke-width="0.25"/>
<path d="M 292.82 42.87 C 295.38 41.03 299.34 43.81 298.59 46.81 C 297.73 50.41 296.30 53.86 295.58 57.50 C 302.04 55.95 307.49 51.99 312.81 48.21 C 314.23 47.42 315.65 46.61 317.09 45.86 C 320.81 46.12 324.47 47.00 327.71 48.89 C 327.99 52.06 328.39 55.22 328.95 58.35 C 334.59 58.85 339.16 62.84 344.82 63.14 C 348.20 62.46 350.99 64.64 353.64 66.39 C 356.03 68.09 359.09 67.95 361.88 68.31 C 360.12 70.39 357.78 72.26 357.08 75.00 C 356.91 78.65 358.45 82.43 361.08 84.96 C 366.98 87.72 373.20 84.44 378.82 82.56 C 382.69 81.12 387.31 82.34 390.72 79.66 C 393.45 77.64 396.54 76.20 399.39 74.37 C 403.66 70.91 405.66 65.42 409.82 61.84 C 412.31 60.02 415.10 58.65 417.50 56.68 C 419.80 55.68 422.12 54.71 424.44 53.73 C 425.56 55.28 427.05 56.70 427.54 58.60 C 427.98 61.51 427.30 64.46 427.66 67.38 C 428.43 70.10 431.93 69.73 434.07 70.59 C 433.94 73.73 433.74 76.87 433.41 79.99 C 439.62 80.89 445.84 79.62 452.07 79.58 C 458.28 78.27 462.48 72.98 466.64 68.61 C 469.07 66.09 473.95 66.06 476.01 69.05 C 476.76 72.69 474.64 75.93 473.12 79.04 C 470.22 84.44 470.23 90.88 467.15 96.21 C 465.48 99.11 464.36 102.28 463.85 105.59 C 466.67 105.83 469.60 105.68 472.30 106.65 C 474.62 109.03 475.05 112.58 475.87 115.68 C 474.99 118.85 472.55 121.32 471.19 124.29 C 470.67 125.50 469.60 127.00 470.83 128.17 C 472.31 130.78 475.53 133.25 474.41 136.59 C 472.95 140.41 469.39 142.82 466.43 145.41 C 469.09 146.66 472.14 147.42 474.35 149.45 C 476.23 152.65 476.06 156.94 473.91 159.98 C 469.63 166.14 464.38 172.28 463.25 179.94 C 464.63 181.64 466.80 182.36 468.69 183.35 C 467.22 183.94 465.75 184.55 464.30 185.16 C 458.03 185.14 451.57 186.17 446.15 189.46 C 443.35 186.33 439.39 184.57 436.54 181.53 C 435.20 178.08 437.04 174.25 436.45 170.64 C 435.78 168.85 433.68 168.29 432.27 167.26 C 431.45 161.63 431.46 155.66 433.43 150.27 C 437.14 151.13 440.93 152.71 444.79 151.56 C 449.56 150.12 454.87 147.58 456.56 142.49 C 458.31 137.95 459.70 133.28 461.53 128.77 C 461.05 128.18 460.58 127.59 460.12 127.01 C 461.94 125.69 464.32 124.75 465.27 122.55 C 467.01 118.76 468.90 115.03 470.46 111.16 C 468.70 110.83 466.95 110.52 465.19 110.20 C 465.43 111.61 465.66 113.01 465.91 114.41 C 463.96 114.26 462.01 114.11 460.07 113.96 C 459.96 109.18 459.92 104.40 459.83 99.62 C 457.12 100.87 454.49 102.26 451.94 103.80 C 451.97 101.19 452.00 98.59 452.03 95.99 C 453.92 95.82 455.81 95.64 457.71 95.47 C 457.74 95.12 457.79 94.40 457.81 94.05 C 454.05 93.85 450.33 94.43 446.71 95.43 C 443.45 96.35 439.71 95.79 436.84 97.83 C 431.96 101.07 426.87 103.99 421.65 106.62 C 418.88 108.12 415.17 107.16 413.35 104.65 C 411.78 102.56 410.58 100.23 409.28 97.97 C 406.90 99.82 404.86 102.35 402.00 103.43 C 398.27 103.73 394.27 104.47 390.66 103.34 C 388.65 99.28 390.35 94.13 387.39 90.44 C 381.40 90.26 375.96 92.83 370.95 95.82 C 368.52 94.73 366.43 93.00 363.89 92.15 C 362.59 91.53 360.89 91.30 360.26 89.82 C 358.07 85.90 356.00 81.90 353.37 78.25 C 346.84 80.33 342.68 86.97 335.64 87.69 C 333.89 87.96 331.76 87.92 330.71 86.25 C 329.13 83.88 329.19 80.89 328.69 78.19 C 324.03 79.40 319.10 80.83 314.28 79.64 C 309.88 75.54 313.67 69.24 314.45 64.39 C 315.88 63.90 317.34 63.49 318.77 63.00 C 320.73 60.55 323.01 58.31 324.62 55.60 C 325.80 53.12 322.56 51.76 321.20 50.25 C 312.34 52.35 304.24 56.77 296.69 61.75 C 293.25 64.03 288.75 63.88 285.47 66.46 C 280.29 70.33 274.67 73.65 268.65 76.03 C 264.15 77.73 260.48 80.88 256.76 83.83 C 254.62 85.67 251.64 85.84 249.25 87.18 C 246.75 89.52 244.29 91.92 241.30 93.62 C 240.46 91.04 240.24 87.94 237.97 86.14 C 235.27 83.87 232.78 81.32 231.14 78.15 C 227.05 78.49 222.90 78.81 218.97 80.07 C 215.73 81.08 213.50 83.83 210.56 85.40 C 207.70 85.28 204.78 83.55 201.99 84.87 C 195.82 87.55 190.95 93.21 183.95 93.88 C 180.03 93.80 176.99 90.38 173.10 90.27 C 169.14 90.78 165.42 92.33 161.48 92.96 C 159.81 91.83 158.30 89.76 156.05 90.06 C 152.42 90.70 148.92 91.91 145.29 92.55 C 144.64 93.47 143.99 94.40 143.35 95.32 C 137.92 98.18 132.83 101.73 128.90 106.48 C 126.45 105.26 124.06 103.94 121.72 102.53 C 122.38 101.39 123.05 100.25 123.71 99.11 C 123.16 98.20 122.60 97.29 122.06 96.38 C 123.65 96.61 125.24 96.83 126.83 97.07 C 127.09 86.35 137.52 80.66 141.48 71.62 C 143.00 69.04 139.92 65.55 137.22 66.25 C 127.33 68.70 119.75 76.32 110.08 79.28 C 110.68 79.83 111.88 80.93 112.48 81.48 C 107.69 82.12 102.70 82.27 98.29 84.48 C 92.97 87.19 86.91 87.53 81.10 88.39 C 79.05 92.48 79.06 97.07 79.03 101.54 C 76.14 104.19 74.17 107.59 72.51 111.10 C 68.28 113.57 63.43 115.46 60.07 119.10 C 60.61 121.42 61.64 123.61 61.97 125.97 C 61.58 129.95 57.42 132.77 58.10 136.98 C 58.46 141.11 58.48 145.31 57.27 149.33 C 55.59 154.78 56.55 160.79 54.03 166.01 C 52.24 170.19 50.03 174.38 49.85 179.02 C 50.04 182.45 51.79 185.58 51.99 189.02 C 52.74 200.45 47.72 212.06 51.78 223.26 C 54.34 224.43 57.27 224.01 60.00 224.21 C 61.95 226.11 63.65 228.41 66.10 229.71 C 70.70 230.61 75.42 229.96 80.07 229.86 C 78.58 218.62 79.02 207.27 79.07 195.96 C 78.96 189.02 83.11 183.13 84.66 176.56 C 85.55 176.18 86.44 175.80 87.34 175.43 C 89.02 172.58 90.58 169.12 94.10 168.24 C 97.73 167.25 99.96 164.05 103.09 162.25 C 105.77 161.80 108.50 162.27 111.18 162.49 C 111.44 161.10 111.68 159.71 111.94 158.32 C 110.59 158.07 109.24 157.83 107.89 157.59 C 108.33 155.73 107.66 153.03 109.82 152.10 C 111.06 152.93 112.20 153.90 113.36 154.85 C 114.63 153.96 115.91 153.09 117.19 152.21 C 119.94 152.08 122.76 152.27 125.43 151.50 C 128.35 150.19 127.93 146.50 128.50 143.89 C 131.37 143.47 134.28 143.36 137.18 143.44 C 144.49 143.53 151.75 144.63 159.01 145.40 C 160.50 147.95 162.73 149.89 165.32 151.27 C 165.41 152.00 165.49 152.72 165.57 153.45 C 166.40 154.49 167.23 155.52 167.99 156.61 C 166.63 157.67 165.09 158.45 163.59 159.27 C 166.48 159.89 169.48 160.45 172.04 162.03 C 174.95 163.69 177.38 166.18 180.55 167.38 C 183.98 168.38 187.60 168.10 191.13 168.18 C 191.48 170.70 191.81 173.22 192.12 175.75 C 190.86 176.30 189.61 176.86 188.36 177.42 C 189.20 178.27 190.03 179.13 190.87 179.98 C 191.69 179.26 192.52 178.54 193.34 177.83 C 196.14 182.39 199.23 186.95 200.69 192.16 C 201.58 198.41 200.56 204.74 200.96 211.02 C 201.15 214.74 203.44 218.16 202.74 221.96 C 201.84 227.85 201.73 233.82 202.16 239.76 C 204.09 239.95 206.03 240.15 207.97 240.35 C 208.30 243.79 208.38 247.24 208.57 250.69 C 210.76 247.72 210.58 243.93 209.46 240.59 C 211.16 240.92 212.86 241.22 214.56 241.49 C 218.95 242.88 222.99 245.17 226.75 247.81 C 225.79 249.10 224.78 250.37 223.97 251.77 C 225.16 252.81 226.50 253.78 228.10 254.10 C 231.09 253.99 233.11 251.45 235.17 249.60 C 239.78 251.22 244.29 253.14 248.93 254.71 C 246.31 250.61 242.69 247.30 238.45 244.94 C 238.92 244.31 239.86 243.06 240.33 242.44 C 241.88 244.23 243.45 246.02 245.07 247.76 C 246.70 246.45 248.34 245.15 249.97 243.85 C 251.77 245.39 253.56 246.94 255.35 248.49 C 256.15 244.96 255.29 240.00 259.10 238.07 C 260.48 238.35 261.83 238.82 263.17 239.26 C 264.18 238.55 265.18 237.85 266.20 237.15 C 267.01 238.49 267.82 239.84 268.63 241.18 C 269.39 240.59 270.14 240.00 270.89 239.40 C 272.73 239.94 274.57 240.47 276.42 240.98 L 276.42 240.56 C 283.30 240.26 290.15 238.95 297.04 239.82 C 308.35 241.10 320.13 238.09 331.08 241.94 C 332.51 242.40 333.92 241.56 335.30 241.27 C 341.25 239.06 347.67 240.21 353.85 240.19 C 353.38 243.73 353.16 247.48 355.51 250.46 C 356.10 250.03 357.29 249.18 357.88 248.75 C 357.97 245.89 357.96 243.01 358.47 240.19 C 361.12 239.21 361.32 243.44 362.61 245.02 C 362.00 246.03 361.40 247.04 360.81 248.05 C 361.34 250.67 361.89 253.28 362.45 255.89 C 364.17 251.54 365.53 247.06 367.05 242.64 C 367.36 243.07 367.98 243.94 368.29 244.37 C 364.81 255.24 365.68 266.81 367.48 277.90 C 355.02 279.03 343.28 285.89 336.37 296.34 C 334.50 299.28 333.40 302.61 331.85 305.71 C 331.53 305.79 330.89 305.95 330.57 306.03 C 328.01 305.54 325.33 305.22 322.98 304.02 C 322.23 302.12 321.91 300.09 321.46 298.11 C 281.64 297.79 241.80 298.13 201.98 297.95 C 198.78 297.93 195.58 298.02 192.38 298.13 C 192.13 299.37 191.89 300.60 191.64 301.84 C 186.56 302.07 181.47 302.05 176.39 301.84 C 176.12 300.61 175.85 299.38 175.58 298.15 C 165.23 297.68 154.88 298.25 144.53 297.89 C 144.07 295.57 143.62 293.26 143.17 290.95 C 138.12 293.67 133.67 297.40 128.36 299.64 C 128.11 301.08 127.87 302.52 127.63 303.96 C 125.99 303.94 124.35 303.92 122.71 303.90 C 122.09 302.32 121.58 300.68 120.75 299.19 C 119.56 298.33 118.04 298.16 116.68 297.69 C 115.88 299.84 116.17 302.81 114.02 304.18 C 110.80 304.04 111.19 300.40 110.43 298.14 C 105.76 297.86 101.08 297.88 96.40 298.11 C 96.12 299.37 95.84 300.63 95.55 301.90 C 89.31 301.99 82.82 301.32 76.95 303.91 C 74.98 300.16 72.55 296.38 68.77 294.25 C 66.42 293.08 63.96 294.69 61.71 295.39 C 61.88 289.83 64.51 284.61 63.91 279.00 C 63.68 275.34 63.67 271.65 62.95 268.04 C 61.33 260.82 60.12 253.28 56.00 246.96 C 53.62 242.82 48.57 241.77 45.13 238.82 C 44.75 230.51 46.74 222.29 47.59 214.06 C 46.72 210.26 42.56 207.92 42.00 203.98 C 42.20 201.92 42.89 199.95 43.46 197.97 C 40.93 189.15 45.45 180.45 48.40 172.33 C 51.18 166.15 51.17 159.14 54.05 153.00 C 55.49 150.08 55.98 146.85 56.02 143.63 C 52.61 142.19 48.19 141.12 46.80 137.24 C 46.26 134.75 46.60 131.95 47.79 129.70 C 50.38 126.65 54.39 124.55 55.44 120.41 C 57.15 116.36 51.09 114.73 50.85 110.99 C 52.34 107.00 56.02 104.39 58.91 101.44 C 61.79 102.33 65.52 103.70 67.74 100.77 C 71.23 95.06 75.07 89.45 79.81 84.70 C 82.99 82.98 86.92 82.78 89.50 79.95 C 93.13 80.04 97.00 81.07 100.45 79.44 C 104.15 77.88 107.64 75.89 111.34 74.34 C 116.23 72.15 121.49 70.75 126.07 67.92 C 128.64 66.42 131.02 64.46 133.95 63.70 C 137.37 62.84 140.95 63.38 144.34 64.09 C 147.98 65.19 151.90 64.92 155.32 63.24 C 158.35 62.21 161.27 59.69 164.62 60.44 C 167.56 62.75 167.54 66.87 169.07 70.02 C 171.21 73.53 177.09 74.22 177.45 78.87 C 177.77 83.33 179.95 87.89 184.07 89.98 C 188.08 90.80 191.36 87.56 194.45 85.50 C 198.84 81.94 204.33 80.21 208.90 76.93 C 215.13 72.53 222.53 70.19 228.71 65.69 C 231.72 63.69 235.48 60.87 239.21 62.78 C 241.99 65.19 242.99 68.95 245.25 71.79 C 254.31 69.23 263.37 66.15 271.66 61.63 C 280.11 56.98 284.23 47.28 292.82 42.87 Z" fill="#b0f6fe" opacity="1.00" stroke="#b0f6fe" stroke-width="0.25"/>
<path d="M 317.09 45.86 C 322.32 44.76 327.73 45.10 333.03 45.43 C 335.50 45.48 337.33 47.33 339.22 48.67 C 339.68 50.20 340.07 51.77 340.75 53.23 C 344.00 54.37 347.39 55.07 350.68 56.12 C 355.40 57.64 360.41 55.52 365.15 56.82 C 367.58 58.38 369.28 60.83 370.93 63.15 C 373.31 66.36 371.79 70.54 371.57 74.16 C 373.56 74.27 375.62 74.38 377.46 73.47 C 383.39 70.90 389.68 68.90 394.89 64.94 C 399.35 61.53 404.80 59.71 409.14 56.13 C 412.82 53.17 417.08 50.21 422.04 50.51 C 426.03 50.44 427.84 54.58 430.25 57.08 L 430.54 57.44 C 430.77 59.18 431.03 60.93 431.30 62.67 C 433.42 63.22 435.57 63.69 437.62 64.51 C 441.03 66.00 441.49 70.87 445.00 72.15 C 449.11 71.73 452.63 69.16 455.96 66.88 C 459.03 64.50 462.86 63.38 465.96 61.03 C 469.73 58.25 474.53 61.03 478.03 62.99 C 482.03 64.99 482.38 70.20 481.02 73.96 C 479.90 77.02 476.69 78.38 474.62 80.65 C 474.35 82.05 474.36 83.47 474.28 84.89 C 478.14 85.31 482.10 81.56 485.64 84.27 C 489.06 86.01 489.01 90.32 488.46 93.57 C 486.30 98.21 483.52 102.53 480.95 106.95 C 479.39 109.93 477.96 113.01 475.87 115.68 C 475.05 112.58 474.62 109.03 472.30 106.65 C 469.60 105.68 466.67 105.83 463.85 105.59 C 464.36 102.28 465.48 99.11 467.15 96.21 C 470.23 90.88 470.22 84.44 473.12 79.04 C 474.64 75.93 476.76 72.69 476.01 69.05 C 473.95 66.06 469.07 66.09 466.64 68.61 C 462.48 72.98 458.28 78.27 452.07 79.58 C 445.84 79.62 439.62 80.89 433.41 79.99 C 433.74 76.87 433.94 73.73 434.07 70.59 C 431.93 69.73 428.43 70.10 427.66 67.38 C 427.30 64.46 427.98 61.51 427.54 58.60 C 427.05 56.70 425.56 55.28 424.44 53.73 C 422.12 54.71 419.80 55.68 417.50 56.68 C 415.10 58.65 412.31 60.02 409.82 61.84 C 405.66 65.42 403.66 70.91 399.39 74.37 C 396.54 76.20 393.45 77.64 390.72 79.66 C 387.31 82.34 382.69 81.12 378.82 82.56 C 373.20 84.44 366.98 87.72 361.08 84.96 C 358.45 82.43 356.91 78.65 357.08 75.00 C 357.78 72.26 360.12 70.39 361.88 68.31 C 359.09 67.95 356.03 68.09 353.64 66.39 C 350.99 64.64 348.20 62.46 344.82 63.14 C 339.16 62.84 334.59 58.85 328.95 58.35 C 328.39 55.22 327.99 52.06 327.71 48.89 C 324.47 47.00 320.81 46.12 317.09 45.86 Z" fill="#c5f8fe" opacity="1.00" stroke="#c5f8fe" stroke-width="0.25"/>
<path d="M 66.52 51.25 C 68.84 49.33 72.24 46.25 75.23 48.71 C 76.86 50.94 78.16 53.72 81.26 54.12 C 79.86 57.52 77.45 60.29 74.98 62.94 C 71.07 67.20 70.07 73.06 68.26 78.34 C 67.20 81.40 64.28 83.14 61.74 84.85 C 57.33 87.63 52.84 90.67 50.02 95.18 C 53.76 98.46 59.47 97.55 64.11 97.43 C 63.89 97.80 63.45 98.54 63.24 98.90 C 58.99 99.47 54.66 98.70 50.45 99.48 C 48.14 100.75 46.65 103.05 45.23 105.20 C 38.71 115.69 31.46 125.70 24.07 135.59 C 22.55 137.96 21.94 140.75 21.13 143.41 C 21.71 143.65 22.86 144.12 23.43 144.35 C 23.32 145.82 23.21 147.29 23.11 148.76 C 25.28 148.47 27.52 148.29 29.58 147.48 C 31.00 145.84 31.89 143.82 32.97 141.95 C 35.46 137.31 39.08 133.45 42.45 129.45 C 42.93 134.37 44.14 139.39 43.29 144.32 C 39.12 150.07 34.71 155.72 29.80 160.87 C 28.33 162.47 28.29 164.78 27.73 166.77 C 31.34 169.21 35.71 169.70 39.64 171.31 C 42.13 174.17 39.63 177.90 39.03 181.00 C 36.83 186.94 39.52 193.65 36.60 199.38 C 36.28 197.93 35.96 196.49 35.64 195.04 C 32.68 195.35 29.60 196.26 26.66 195.47 C 24.18 194.01 23.92 190.59 24.01 188.00 C 25.00 182.95 30.08 179.66 30.67 174.49 C 28.45 172.28 25.40 170.96 23.58 168.35 C 21.97 162.85 25.37 157.62 28.40 153.31 C 26.26 152.63 24.07 152.08 21.82 151.94 C 21.31 151.91 20.30 151.86 19.79 151.83 C 18.17 149.83 16.01 147.82 16.11 145.02 C 15.59 141.52 17.62 138.41 20.08 136.16 C 24.56 132.14 27.57 126.80 30.10 121.41 C 26.58 122.30 22.12 122.56 19.67 119.33 C 18.27 117.20 16.38 114.73 16.77 112.07 C 21.39 106.55 25.40 100.55 30.46 95.40 C 34.25 90.62 39.19 86.83 42.46 81.63 C 44.48 78.68 46.16 75.51 48.24 72.60 C 54.93 65.99 59.70 57.72 66.52 51.25 Z" fill="#d3faff" opacity="1.00" stroke="#d3faff" stroke-width="0.25"/>
<path d="M 296.69 61.75 C 304.24 56.77 312.34 52.35 321.20 50.25 C 322.56 51.76 325.80 53.12 324.62 55.60 C 323.01 58.31 320.73 60.55 318.77 63.00 C 317.34 63.49 315.88 63.90 314.45 64.39 C 313.67 69.24 309.88 75.54 314.28 79.64 C 319.10 80.83 324.03 79.40 328.69 78.19 C 329.19 80.89 329.13 83.88 330.71 86.25 C 331.76 87.92 333.89 87.96 335.64 87.69 C 342.68 86.97 346.84 80.33 353.37 78.25 C 356.00 81.90 358.07 85.90 360.26 89.82 C 360.89 91.30 362.59 91.53 363.89 92.15 C 366.43 93.00 368.52 94.73 370.95 95.82 C 375.96 92.83 381.40 90.26 387.39 90.44 C 390.35 94.13 388.65 99.28 390.66 103.34 C 394.27 104.47 398.27 103.73 402.00 103.43 C 404.86 102.35 406.90 99.82 409.28 97.97 C 410.58 100.23 411.78 102.56 413.35 104.65 C 415.17 107.16 418.88 108.12 421.65 106.62 C 426.87 103.99 431.96 101.07 436.84 97.83 C 439.71 95.79 443.45 96.35 446.71 95.43 C 450.33 94.43 454.05 93.85 457.81 94.05 C 457.79 94.40 457.74 95.12 457.71 95.47 C 455.81 95.64 453.92 95.82 452.03 95.99 C 452.00 98.59 451.97 101.19 451.94 103.80 C 454.49 102.26 457.12 100.87 459.83 99.62 C 459.92 104.40 459.96 109.18 460.07 113.96 C 462.01 114.11 463.96 114.26 465.91 114.41 C 465.66 113.01 465.43 111.61 465.19 110.20 C 466.95 110.52 468.70 110.83 470.46 111.16 C 468.90 115.03 467.01 118.76 465.27 122.55 C 464.32 124.75 461.94 125.69 460.12 127.01 C 460.58 127.59 461.05 128.18 461.53 128.77 C 459.70 133.28 458.31 137.95 456.56 142.49 C 454.87 147.58 449.56 150.12 444.79 151.56 C 440.93 152.71 437.14 151.13 433.43 150.27 C 431.46 155.66 431.45 161.63 432.27 167.26 C 434.91 173.25 433.32 179.89 430.79 185.61 C 428.55 186.01 426.28 186.00 424.02 186.01 C 405.69 185.84 387.36 186.11 369.03 185.91 C 363.21 185.78 357.43 187.41 351.62 186.47 C 346.55 185.74 341.43 185.78 336.33 186.07 C 336.04 187.93 335.75 189.79 335.46 191.65 C 330.46 192.11 325.44 192.15 320.43 191.84 C 320.15 190.59 319.87 189.34 319.59 188.10 C 314.91 188.00 310.14 188.46 305.57 187.27 C 302.76 186.54 299.91 185.86 297.00 185.90 C 283.68 186.01 270.36 185.99 257.03 185.92 C 251.22 185.84 245.44 187.37 239.63 186.46 C 230.22 185.06 220.64 186.84 211.25 185.60 C 207.70 183.66 205.51 180.04 202.85 177.11 C 199.12 173.07 197.59 167.29 192.83 164.20 C 188.52 161.19 185.32 157.00 181.99 153.01 C 179.16 149.33 174.07 149.51 170.24 147.48 C 161.50 142.95 151.89 139.05 141.87 139.49 C 139.63 139.53 137.40 139.49 135.17 139.41 C 134.34 139.53 133.51 139.67 132.68 139.81 C 130.32 139.37 128.00 138.72 125.74 137.93 C 123.34 139.15 121.09 140.64 118.98 142.32 C 115.68 142.77 112.55 143.94 110.72 146.89 C 108.91 147.65 107.01 148.28 105.40 149.42 C 100.49 153.16 95.37 156.63 90.99 161.01 C 89.12 166.25 83.73 169.45 83.14 175.24 C 82.21 175.63 81.28 176.03 80.36 176.45 C 80.01 178.08 79.79 179.75 79.45 181.39 C 76.91 181.75 74.36 182.11 71.81 182.48 C 72.48 183.35 73.16 184.23 73.84 185.11 C 71.73 187.23 69.36 189.16 67.75 191.71 C 66.63 194.75 67.23 198.14 66.24 201.22 C 64.23 204.83 59.58 203.80 56.17 203.98 C 56.15 202.74 56.13 201.49 56.11 200.25 C 58.74 200.14 61.36 200.02 63.99 199.91 C 64.00 197.34 64.02 194.76 64.03 192.19 C 62.14 192.03 60.25 191.87 58.36 191.71 C 58.03 187.47 57.15 183.26 57.15 179.00 C 57.63 176.15 60.21 174.00 60.14 170.99 C 60.38 164.40 59.25 157.82 59.77 151.23 C 60.16 147.45 61.62 143.86 61.91 140.07 C 62.34 136.97 61.97 133.58 63.72 130.83 C 67.71 124.71 71.31 118.35 75.01 112.06 C 76.74 108.73 78.96 105.43 79.03 101.54 C 79.06 97.07 79.05 92.48 81.10 88.39 C 86.91 87.53 92.97 87.19 98.29 84.48 C 102.70 82.27 107.69 82.12 112.48 81.48 C 111.88 80.93 110.68 79.83 110.08 79.28 C 119.75 76.32 127.33 68.70 137.22 66.25 C 139.92 65.55 143.00 69.04 141.48 71.62 C 137.52 80.66 127.09 86.35 126.83 97.07 C 125.24 96.83 123.65 96.61 122.06 96.38 C 122.60 97.29 123.16 98.20 123.71 99.11 C 123.05 100.25 122.38 101.39 121.72 102.53 C 124.06 103.94 126.45 105.26 128.90 106.48 C 132.83 101.73 137.92 98.18 143.35 95.32 C 143.99 94.40 144.64 93.47 145.29 92.55 C 148.92 91.91 152.42 90.70 156.05 90.06 C 158.30 89.76 159.81 91.83 161.48 92.96 C 165.42 92.33 169.14 90.78 173.10 90.27 C 176.99 90.38 180.03 93.80 183.95 93.88 C 190.95 93.21 195.82 87.55 201.99 84.87 C 204.78 83.55 207.70 85.28 210.56 85.40 C 213.50 83.83 215.73 81.08 218.97 80.07 C 222.90 78.81 227.05 78.49 231.14 78.15 C 232.78 81.32 235.27 83.87 237.97 86.14 C 240.24 87.94 240.46 91.04 241.30 93.62 C 244.29 91.92 246.75 89.52 249.25 87.18 C 251.64 85.84 254.62 85.67 256.76 83.83 C 260.48 80.88 264.15 77.73 268.65 76.03 C 274.67 73.65 280.29 70.33 285.47 66.46 C 288.75 63.88 293.25 64.03 296.69 61.75 Z" fill="#9bf3fd" opacity="1.00" stroke="#9bf3fd" stroke-width="0.25"/>
<path d="M 131.34 56.50 C 136.77 56.25 140.52 60.94 144.34 64.09 C 140.95 63.38 137.37 62.84 133.95 63.70 C 131.02 64.46 128.64 66.42 126.07 67.92 C 121.49 70.75 116.23 72.15 111.34 74.34 C 107.64 75.89 104.15 77.88 100.45 79.44 C 97.00 81.07 93.13 80.04 89.50 79.95 C 86.92 82.78 82.99 82.98 79.81 84.70 C 75.07 89.45 71.23 95.06 67.74 100.77 C 65.52 103.70 61.79 102.33 58.91 101.44 C 56.02 104.39 52.34 107.00 50.85 110.99 C 51.09 114.73 57.15 116.36 55.44 120.41 C 54.39 124.55 50.38 126.65 47.79 129.70 C 46.60 131.95 46.26 134.75 46.80 137.24 C 48.19 141.12 52.61 142.19 56.02 143.63 C 55.98 146.85 55.49 150.08 54.05 153.00 C 51.17 159.14 51.18 166.15 48.40 172.33 C 45.45 180.45 40.93 189.15 43.46 197.97 C 42.89 199.95 42.20 201.92 42.00 203.98 C 42.56 207.92 46.72 210.26 47.59 214.06 C 46.74 222.29 44.75 230.51 45.13 238.82 C 48.57 241.77 53.62 242.82 56.00 246.96 C 60.12 253.28 61.33 260.82 62.95 268.04 C 63.67 271.65 63.68 275.34 63.91 279.00 C 64.51 284.61 61.88 289.83 61.71 295.39 C 63.96 294.69 66.42 293.08 68.77 294.25 C 72.55 296.38 74.98 300.16 76.95 303.91 C 82.82 301.32 89.31 301.99 95.55 301.90 C 95.84 300.63 96.12 299.37 96.40 298.11 C 101.08 297.88 105.76 297.86 110.43 298.14 C 111.19 300.40 110.80 304.04 114.02 304.18 C 116.17 302.81 115.88 299.84 116.68 297.69 C 118.04 298.16 119.56 298.33 120.75 299.19 C 121.58 300.68 122.09 302.32 122.71 303.90 C 124.35 303.92 125.99 303.94 127.63 303.96 C 127.87 302.52 128.11 301.08 128.36 299.64 C 133.67 297.40 138.12 293.67 143.17 290.95 C 143.62 293.26 144.07 295.57 144.53 297.89 C 154.88 298.25 165.23 297.68 175.58 298.15 C 175.85 299.38 176.12 300.61 176.39 301.84 C 181.47 302.05 186.56 302.07 191.64 301.84 C 191.89 300.60 192.13 299.37 192.38 298.13 C 195.58 298.02 198.78 297.93 201.98 297.95 C 241.80 298.13 281.64 297.79 321.46 298.11 C 321.91 300.09 322.23 302.12 322.98 304.02 C 325.33 305.22 328.01 305.54 330.57 306.03 C 322.09 307.49 315.38 314.33 312.37 322.14 C 310.84 325.99 311.23 330.20 312.63 334.02 C 301.66 332.46 291.64 338.82 284.33 346.37 C 278.36 352.36 274.99 360.42 273.39 368.62 C 273.16 368.20 272.70 367.38 272.48 366.97 C 272.33 367.51 272.04 368.61 271.89 369.15 C 267.32 367.64 262.36 367.34 257.74 368.81 C 254.26 369.93 250.60 370.14 246.97 369.95 C 242.47 369.54 238.43 372.11 233.98 372.06 C 216.99 371.93 199.99 371.92 183.00 372.09 C 178.19 372.28 173.80 369.74 169.00 369.90 C 154.65 370.10 140.30 369.86 125.95 370.03 C 121.83 370.10 118.10 367.98 114.02 367.77 C 110.46 367.59 106.89 367.58 103.35 367.20 C 103.45 368.58 103.59 369.95 103.70 371.34 C 102.58 371.51 101.47 371.68 100.36 371.87 C 93.90 364.64 85.29 359.04 75.61 357.46 C 67.49 356.34 59.15 357.76 51.67 361.03 C 50.17 359.89 48.68 358.73 47.12 357.67 C 51.70 351.72 56.09 344.64 54.99 336.79 C 48.93 335.72 46.64 329.58 44.24 324.72 C 42.01 320.28 45.08 315.68 47.58 312.11 L 47.40 311.93 C 53.34 305.98 55.12 297.57 57.99 289.97 C 59.22 286.95 58.27 283.75 57.46 280.77 C 52.27 282.92 47.57 275.76 50.42 271.49 C 53.08 267.14 54.03 261.55 52.24 256.73 C 48.51 255.50 43.87 256.15 41.01 252.98 C 38.38 250.51 40.18 246.77 40.68 243.81 C 42.48 237.98 40.43 231.88 41.65 225.99 C 42.16 222.43 43.58 219.00 43.60 215.38 C 41.84 213.46 39.43 212.29 37.61 210.44 C 36.17 208.19 35.62 205.53 34.84 203.01 C 35.40 201.79 36.02 200.59 36.60 199.38 C 39.52 193.65 36.83 186.94 39.03 181.00 C 39.63 177.90 42.13 174.17 39.64 171.31 C 35.71 169.70 31.34 169.21 27.73 166.77 C 28.29 164.78 28.33 162.47 29.80 160.87 C 34.71 155.72 39.12 150.07 43.29 144.32 C 44.14 139.39 42.93 134.37 42.45 129.45 C 39.08 133.45 35.46 137.31 32.97 141.95 C 31.89 143.82 31.00 145.84 29.58 147.48 C 27.52 148.29 25.28 148.47 23.11 148.76 C 23.21 147.29 23.32 145.82 23.43 144.35 C 22.86 144.12 21.71 143.65 21.13 143.41 C 21.94 140.75 22.55 137.96 24.07 135.59 C 31.46 125.70 38.71 115.69 45.23 105.20 C 46.65 103.05 48.14 100.75 50.45 99.48 C 54.66 98.70 58.99 99.47 63.24 98.90 C 63.45 98.54 63.89 97.80 64.11 97.43 C 64.27 97.14 64.60 96.56 64.76 96.28 C 68.84 91.76 72.02 86.56 75.73 81.76 C 79.60 76.33 84.72 72.02 89.06 67.01 C 91.84 63.71 96.34 63.20 100.19 61.90 C 101.24 62.79 102.35 63.63 103.27 64.67 C 103.49 66.76 103.21 68.87 103.32 70.96 C 103.07 72.20 104.66 73.60 105.78 72.84 C 112.32 70.15 118.24 66.14 123.88 61.92 C 126.37 60.13 128.54 57.82 131.34 56.50 Z" fill="#b9f8fe" opacity="1.00" stroke="#b9f8fe" stroke-width="0.25"/>
<path d="M 72.51 111.10 C 74.17 107.59 76.14 104.19 79.03 101.54 C 78.96 105.43 76.74 108.73 75.01 112.06 C 71.31 118.35 67.71 124.71 63.72 130.83 C 61.97 133.58 62.34 136.97 61.91 140.07 C 61.62 143.86 60.16 147.45 59.77 151.23 C 59.25 157.82 60.38 164.40 60.14 170.99 C 60.21 174.00 57.63 176.15 57.15 179.00 C 57.15 183.26 58.03 187.47 58.36 191.71 C 60.25 191.87 62.14 192.03 64.03 192.19 C 64.02 194.76 64.00 197.34 63.99 199.91 C 61.36 200.02 58.74 200.14 56.11 200.25 C 56.13 201.49 56.15 202.74 56.17 203.98 C 59.58 203.80 64.23 204.83 66.24 201.22 C 67.23 198.14 66.63 194.75 67.75 191.71 C 69.36 189.16 71.73 187.23 73.84 185.11 C 73.16 184.23 72.48 183.35 71.81 182.48 C 74.36 182.11 76.91 181.75 79.45 181.39 C 79.79 179.75 80.01 178.08 80.36 176.45 C 81.28 176.03 82.21 175.63 83.14 175.24 C 83.73 169.45 89.12 166.25 90.99 161.01 C 95.37 156.63 100.49 153.16 105.40 149.42 C 107.01 148.28 108.91 147.65 110.72 146.89 C 112.55 143.94 115.68 142.77 118.98 142.32 C 121.09 140.64 123.34 139.15 125.74 137.93 C 128.00 138.72 130.32 139.37 132.68 139.81 C 133.51 139.67 134.34 139.53 135.17 139.41 C 137.40 139.49 139.63 139.53 141.87 139.49 C 151.89 139.05 161.50 142.95 170.24 147.48 C 174.07 149.51 179.16 149.33 181.99 153.01 C 185.32 157.00 188.52 161.19 192.83 164.20 C 197.59 167.29 199.12 173.07 202.85 177.11 C 205.51 180.04 207.70 183.66 211.25 185.60 C 220.64 186.84 230.22 185.06 239.63 186.46 C 245.44 187.37 251.22 185.84 257.03 185.92 C 270.36 185.99 283.68 186.01 297.00 185.90 C 299.91 185.86 302.76 186.54 305.57 187.27 C 310.14 188.46 314.91 188.00 319.59 188.10 C 319.87 189.34 320.15 190.59 320.43 191.84 C 325.44 192.15 330.46 192.11 335.46 191.65 C 335.75 189.79 336.04 187.93 336.33 186.07 C 341.43 185.78 346.55 185.74 351.62 186.47 C 357.43 187.41 363.21 185.78 369.03 185.91 C 387.36 186.11 405.69 185.84 424.02 186.01 C 426.28 186.00 428.55 186.01 430.79 185.61 C 433.32 179.89 434.91 173.25 432.27 167.26 C 433.68 168.29 435.78 168.85 436.45 170.64 C 437.04 174.25 435.20 178.08 436.54 181.53 C 439.39 184.57 443.35 186.33 446.15 189.46 C 439.58 193.44 437.73 201.40 437.95 208.57 C 433.52 208.80 429.62 210.94 426.78 214.30 C 415.70 211.44 403.57 211.41 392.91 215.87 C 380.90 220.97 371.53 231.70 368.29 244.37 C 367.98 243.94 367.36 243.07 367.05 242.64 C 365.53 247.06 364.17 251.54 362.45 255.89 C 361.89 253.28 361.34 250.67 360.81 248.05 C 361.40 247.04 362.00 246.03 362.61 245.02 C 361.32 243.44 361.12 239.21 358.47 240.19 C 357.96 243.01 357.97 245.89 357.88 248.75 C 357.29 249.18 356.10 250.03 355.51 250.46 C 353.16 247.48 353.38 243.73 353.85 240.19 C 347.67 240.21 341.25 239.06 335.30 241.27 C 333.92 241.56 332.51 242.40 331.08 241.94 C 320.13 238.09 308.35 241.10 297.04 239.82 C 290.15 238.95 283.30 240.26 276.42 240.56 L 276.42 240.98 C 274.57 240.47 272.73 239.94 270.89 239.40 C 270.14 240.00 269.39 240.59 268.63 241.18 C 267.82 239.84 267.01 238.49 266.20 237.15 C 265.18 237.85 264.18 238.55 263.17 239.26 C 261.83 238.82 260.48 238.35 259.10 238.07 C 255.29 240.00 256.15 244.96 255.35 248.49 C 253.56 246.94 251.77 245.39 249.97 243.85 C 248.34 245.15 246.70 246.45 245.07 247.76 C 243.45 246.02 241.88 244.23 240.33 242.44 C 238.20 238.72 234.75 242.44 232.11 243.54 C 227.04 239.70 220.41 239.48 214.56 241.49 C 212.86 241.22 211.16 240.92 209.46 240.59 C 210.58 243.93 210.76 247.72 208.57 250.69 C 208.38 247.24 208.30 243.79 207.97 240.35 C 206.03 240.15 204.09 239.95 202.16 239.76 C 201.73 233.82 201.84 227.85 202.74 221.96 C 203.44 218.16 201.15 214.74 200.96 211.02 C 200.56 204.74 201.58 198.41 200.69 192.16 C 199.23 186.95 196.14 182.39 193.34 177.83 C 192.52 178.54 191.69 179.26 190.87 179.98 C 190.03 179.13 189.20 178.27 188.36 177.42 C 189.61 176.86 190.86 176.30 192.12 175.75 C 191.81 173.22 191.48 170.70 191.13 168.18 C 187.60 168.10 183.98 168.38 180.55 167.38 C 177.38 166.18 174.95 163.69 172.04 162.03 C 169.48 160.45 166.48 159.89 163.59 159.27 C 165.09 158.45 166.63 157.67 167.99 156.61 C 167.23 155.52 166.40 154.49 165.57 153.45 C 165.49 152.72 165.41 152.00 165.32 151.27 C 162.73 149.89 160.50 147.95 159.01 145.40 C 151.75 144.63 144.49 143.53 137.18 143.44 C 134.28 143.36 131.37 143.47 128.50 143.89 C 127.93 146.50 128.35 150.19 125.43 151.50 C 122.76 152.27 119.94 152.08 117.19 152.21 C 115.91 153.09 114.63 153.96 113.36 154.85 C 112.20 153.90 111.06 152.93 109.82 152.10 C 107.66 153.03 108.33 155.73 107.89 157.59 C 109.24 157.83 110.59 158.07 111.94 158.32 C 111.68 159.71 111.44 161.10 111.18 162.49 C 108.50 162.27 105.77 161.80 103.09 162.25 C 99.96 164.05 97.73 167.25 94.10 168.24 C 90.58 169.12 89.02 172.58 87.34 175.43 C 86.44 175.80 85.55 176.18 84.66 176.56 C 83.11 183.13 78.96 189.02 79.07 195.96 C 79.02 207.27 78.58 218.62 80.07 229.86 C 75.42 229.96 70.70 230.61 66.10 229.71 C 63.65 228.41 61.95 226.11 60.00 224.21 C 57.27 224.01 54.34 224.43 51.78 223.26 C 47.72 212.06 52.74 200.45 51.99 189.02 C 51.79 185.58 50.04 182.45 49.85 179.02 C 50.03 174.38 52.24 170.19 54.03 166.01 C 56.55 160.79 55.59 154.78 57.27 149.33 C 58.48 145.31 58.46 141.11 58.10 136.98 C 57.42 132.77 61.58 129.95 61.97 125.97 C 61.64 123.61 60.61 121.42 60.07 119.10 C 63.43 115.46 68.28 113.57 72.51 111.10 Z" fill="#a7f4fe" opacity="1.00" stroke="#a7f4fe" stroke-width="0.25"/>
<path d="M 483.80 119.34 C 486.21 118.61 488.70 119.34 491.07 119.90 C 491.57 121.55 492.25 123.17 492.40 124.91 C 491.11 130.92 486.76 135.51 483.75 140.69 C 482.02 143.64 480.09 146.48 478.50 149.51 C 476.47 152.98 477.91 157.39 475.84 160.84 C 472.78 166.15 469.28 171.31 467.35 177.18 C 466.28 180.81 471.46 181.73 472.93 184.44 C 472.97 184.90 473.04 185.80 473.07 186.25 C 470.18 185.66 467.24 185.31 464.30 185.16 C 465.75 184.55 467.22 183.94 468.69 183.35 C 466.80 182.36 464.63 181.64 463.25 179.94 C 464.38 172.28 469.63 166.14 473.91 159.98 C 476.06 156.94 476.23 152.65 474.35 149.45 C 472.14 147.42 469.09 146.66 466.43 145.41 C 469.39 142.82 472.95 140.41 474.41 136.59 C 475.53 133.25 472.31 130.78 470.83 128.17 C 472.37 127.94 473.92 127.71 475.47 127.48 C 477.93 124.53 479.52 119.99 483.80 119.34 Z" fill="#dafbff" opacity="1.00" stroke="#dafbff" stroke-width="0.25"/>
<path d="M 21.82 151.94 C 24.07 152.08 26.26 152.63 28.40 153.31 C 25.37 157.62 21.97 162.85 23.58 168.35 C 25.40 170.96 28.45 172.28 30.67 174.49 C 30.08 179.66 25.00 182.95 24.01 188.00 C 23.92 190.59 24.18 194.01 26.66 195.47 C 29.60 196.26 32.68 195.35 35.64 195.04 C 35.96 196.49 36.28 197.93 36.60 199.38 C 36.02 200.59 35.40 201.79 34.84 203.01 C 33.62 209.25 31.06 215.90 33.46 222.17 C 30.45 228.85 34.23 236.16 38.68 241.20 C 36.55 245.18 32.90 249.40 34.56 254.23 C 35.36 257.96 39.12 259.72 41.06 262.72 C 42.43 266.33 43.15 270.16 44.11 273.90 C 45.09 277.61 43.06 281.24 43.28 284.98 C 43.48 288.72 43.51 292.62 44.80 296.16 C 46.29 297.40 48.05 298.27 49.54 299.51 C 50.34 300.65 49.64 302.03 49.22 303.16 C 46.61 309.22 41.13 313.55 38.84 319.76 C 37.76 323.73 41.35 327.04 41.64 330.86 C 41.26 334.26 39.73 337.52 40.16 341.00 C 40.20 344.31 41.64 348.33 39.06 351.07 C 36.63 352.89 33.67 353.82 30.90 355.02 C 27.39 351.22 22.01 350.74 17.16 350.58 L 15.76 349.76 C 19.86 348.71 24.10 348.48 28.29 348.00 C 27.30 347.49 26.31 346.98 25.31 346.47 C 26.38 345.21 27.46 343.96 28.52 342.71 C 24.72 340.72 19.45 339.74 18.33 334.89 C 16.63 329.25 22.33 325.62 23.55 320.57 C 24.07 320.32 25.13 319.81 25.65 319.55 C 26.56 317.30 27.34 314.92 28.98 313.07 C 30.16 311.49 31.90 310.13 32.20 308.07 C 32.85 305.41 31.88 302.20 34.05 300.08 C 36.99 296.64 39.20 292.21 38.56 287.58 C 37.89 283.61 40.39 279.96 40.04 276.06 C 39.33 273.08 35.66 272.10 33.84 274.72 C 31.71 279.06 28.65 282.85 24.78 285.77 C 21.99 285.99 19.29 285.00 16.60 284.41 C 14.03 280.17 13.95 275.21 13.28 270.46 C 10.55 265.38 10.14 259.07 12.64 253.82 C 15.93 246.83 18.10 239.38 21.57 232.48 C 24.49 226.85 27.02 221.01 29.03 215.00 C 30.92 209.18 33.57 203.53 34.04 197.35 C 31.75 198.14 29.44 199.36 26.94 199.08 C 22.64 198.66 19.16 194.30 19.81 190.01 C 21.34 184.43 26.55 180.14 26.81 174.21 C 24.66 171.58 20.66 169.86 20.64 165.99 C 20.20 161.62 23.60 158.29 25.05 154.43 C 23.97 153.60 22.89 152.77 21.82 151.94 Z" fill="#ebfdff" opacity="1.00" stroke="#ebfdff" stroke-width="0.25"/>
<path d="M 134.00 166.98 C 139.64 165.20 145.83 165.48 151.40 167.40 C 154.20 168.48 157.87 167.52 160.01 169.99 C 162.04 172.01 164.30 173.74 166.59 175.44 C 169.14 177.32 169.97 180.58 171.98 182.93 C 174.97 186.32 176.53 190.69 177.79 194.97 C 178.94 205.36 176.43 215.69 174.45 225.82 C 170.74 230.33 166.65 234.54 162.29 238.42 C 161.37 239.38 160.02 239.40 158.79 239.48 C 155.75 239.63 152.72 240.07 149.75 240.73 C 147.30 241.34 145.72 243.95 143.08 243.97 C 138.18 244.26 133.26 243.98 128.36 243.79 C 128.16 243.16 127.76 241.92 127.56 241.29 C 125.02 240.99 122.30 241.22 119.97 240.05 C 117.66 237.57 116.28 234.00 112.51 233.40 C 111.40 229.92 109.35 226.87 106.50 224.59 C 103.92 222.83 103.97 219.54 103.03 216.87 C 101.12 211.78 102.16 206.29 101.90 201.00 C 100.97 191.29 107.70 183.41 112.83 175.92 C 117.71 174.61 120.38 169.68 125.27 168.42 C 128.16 167.81 131.18 167.92 134.00 166.98 Z" fill="#c3f9fe" opacity="1.00" stroke="#c3f9fe" stroke-width="0.25"/>
<path d="M 134.30 181.41 C 141.89 179.74 150.47 181.41 156.22 186.84 C 160.64 191.40 163.96 197.42 163.39 203.97 C 164.09 210.80 160.49 217.19 155.66 221.73 C 148.36 227.35 137.89 228.66 129.52 224.68 C 120.45 220.30 115.25 209.71 117.18 199.84 C 118.61 191.04 125.62 183.47 134.30 181.41 Z" fill="#bde6ed" opacity="1.00" stroke="#bde6ed" stroke-width="0.25"/>
<path d="M 134.38 183.57 C 140.01 182.76 146.32 182.45 151.27 185.75 C 159.02 190.40 163.70 200.28 161.01 209.12 C 159.61 215.36 155.05 220.57 149.35 223.31 C 144.67 225.33 139.34 225.24 134.39 224.47 C 126.33 222.42 119.89 215.19 118.80 206.93 C 117.21 196.72 124.15 185.76 134.38 183.57 Z" fill="#ffffff" opacity="1.00" stroke="#ffffff" stroke-width="0.25"/>
<path d="M 472.93 184.44 C 473.60 184.29 474.93 183.97 475.60 183.82 C 476.90 184.69 478.22 185.56 479.55 186.41 C 479.54 186.76 479.52 187.46 479.52 187.81 C 480.81 189.24 482.11 190.67 483.40 192.10 C 481.98 194.49 480.68 196.94 479.46 199.44 C 476.21 200.49 473.45 202.75 472.13 205.93 C 470.86 209.15 468.37 211.54 466.17 214.10 C 467.19 218.19 471.18 220.33 473.31 223.72 C 474.42 226.18 474.07 228.99 474.26 231.62 C 479.04 233.36 485.50 233.91 487.93 239.07 C 489.60 245.75 483.06 250.21 481.27 256.03 C 482.64 260.46 484.83 264.61 485.99 269.12 C 485.89 270.81 484.40 271.98 483.53 273.33 C 483.65 275.29 483.22 277.66 484.79 279.16 C 486.31 280.18 488.08 280.72 489.77 281.41 C 489.16 281.98 488.55 282.54 487.95 283.11 C 486.01 283.02 484.07 282.81 482.14 283.01 C 478.61 285.78 476.23 289.91 472.15 292.01 C 467.80 294.14 462.31 294.44 458.06 291.92 C 454.37 289.67 452.63 285.33 449.02 283.00 C 445.93 281.26 442.37 282.71 439.24 283.54 C 437.72 280.39 436.37 276.73 433.07 275.03 C 428.59 272.66 423.16 271.65 418.25 273.20 C 412.15 274.95 407.35 279.55 403.84 284.68 C 403.41 282.40 403.05 279.74 405.13 278.10 C 408.54 275.01 411.99 270.69 417.04 270.81 C 419.28 270.70 421.52 270.78 423.77 270.83 C 422.43 269.53 421.10 268.24 419.77 266.95 C 420.52 260.96 424.32 256.35 427.89 251.78 C 431.92 248.64 430.91 243.17 431.51 238.69 C 428.92 237.59 426.24 236.59 423.94 234.93 C 424.68 231.45 425.38 227.94 424.61 224.39 C 424.96 224.28 425.68 224.05 426.04 223.93 C 426.38 223.83 427.06 223.63 427.39 223.52 C 426.99 219.65 427.25 215.16 430.65 212.62 C 433.31 209.93 437.29 210.30 440.74 210.54 C 440.38 209.77 439.67 208.23 439.31 207.46 C 441.36 207.68 443.55 207.81 445.01 206.06 C 448.21 202.95 453.08 202.66 456.30 199.60 C 460.04 196.45 463.08 192.58 466.49 189.09 C 465.94 189.00 464.86 188.80 464.32 188.70 C 464.90 188.00 465.49 187.29 466.08 186.59 C 469.98 186.83 473.84 187.63 477.76 187.48 C 476.21 187.01 474.65 186.59 473.07 186.25 C 473.04 185.80 472.97 184.90 472.93 184.44 Z" fill="#ecfefe" opacity="1.00" stroke="#ecfefe" stroke-width="0.25"/>
<path d="M 446.15 189.46 C 451.57 186.17 458.03 185.14 464.30 185.16 C 467.24 185.31 470.18 185.66 473.07 186.25 C 474.65 186.59 476.21 187.01 477.76 187.48 C 473.84 187.63 469.98 186.83 466.08 186.59 C 458.36 186.35 449.76 187.40 443.96 193.03 C 440.08 196.71 439.20 202.35 439.31 207.46 C 439.67 208.23 440.38 209.77 440.74 210.54 C 437.29 210.30 433.31 209.93 430.65 212.62 C 427.25 215.16 426.99 219.65 427.39 223.52 C 427.06 223.63 426.38 223.83 426.04 223.93 C 426.20 221.14 426.25 218.34 426.39 215.54 C 417.48 213.38 408.04 212.80 399.12 215.22 C 385.50 218.67 374.15 229.59 370.13 243.06 C 366.06 254.11 366.79 266.13 368.75 277.53 C 372.75 277.57 376.96 276.88 380.77 278.50 C 372.48 279.07 363.89 278.78 356.06 282.05 C 345.40 286.62 335.92 295.63 333.33 307.26 C 328.13 307.54 323.02 309.61 319.52 313.53 C 315.38 317.91 311.92 323.74 312.85 330.00 C 313.27 334.18 317.94 335.25 320.56 337.78 C 316.40 336.88 312.37 335.02 308.02 335.24 C 300.02 335.44 293.12 340.28 287.32 345.37 C 277.88 353.91 273.06 367.30 274.70 379.90 C 269.67 384.91 271.23 392.28 271.65 398.58 C 270.54 396.33 269.90 393.90 269.32 391.48 C 264.06 389.02 257.75 387.59 252.30 390.34 C 248.51 391.79 246.22 395.31 244.43 398.75 C 243.73 398.58 242.33 398.23 241.63 398.05 C 240.05 399.88 238.64 401.86 237.00 403.64 C 232.29 401.50 227.16 399.97 221.95 401.03 C 210.24 402.49 200.54 410.72 193.99 420.11 C 192.21 423.07 188.78 424.11 186.08 425.99 C 183.31 427.79 181.19 430.36 179.20 432.96 C 178.92 433.21 178.36 433.72 178.08 433.97 C 177.54 433.25 177.01 432.53 176.47 431.82 C 172.63 426.98 169.11 421.65 163.97 418.07 C 158.47 414.53 151.54 414.75 145.34 415.89 C 142.59 411.98 138.95 408.06 133.94 407.42 C 128.49 406.39 123.40 409.01 118.76 411.51 C 120.69 408.48 124.82 405.73 123.42 401.66 C 121.88 395.77 115.94 392.66 110.29 391.94 C 109.88 393.41 109.47 394.88 109.06 396.35 C 108.15 389.86 106.87 383.26 103.19 377.69 C 97.04 368.92 88.08 361.60 77.44 359.25 C 71.03 357.75 64.32 358.47 58.02 360.16 C 55.68 360.91 53.42 361.90 51.18 362.90 C 46.93 356.74 38.66 356.01 32.12 358.54 C 29.62 355.28 26.29 352.49 22.01 352.27 C 19.83 351.97 17.63 351.86 15.45 351.58 C 15.88 351.33 16.73 350.83 17.16 350.58 C 22.01 350.74 27.39 351.22 30.90 355.02 C 31.29 355.47 32.07 356.38 32.46 356.83 C 37.31 356.06 42.55 355.39 47.12 357.67 C 48.68 358.73 50.17 359.89 51.67 361.03 C 59.15 357.76 67.49 356.34 75.61 357.46 C 85.29 359.04 93.90 364.64 100.36 371.87 C 105.28 376.97 107.86 383.62 109.79 390.30 C 114.33 391.53 119.42 392.54 122.35 396.64 C 125.07 399.31 125.19 403.22 124.86 406.77 C 128.88 405.94 133.21 405.19 137.13 406.90 C 140.91 408.21 143.57 411.31 146.09 414.26 C 152.65 413.33 159.94 413.39 165.50 417.49 C 170.47 421.43 174.23 426.62 178.00 431.66 C 181.51 426.84 186.62 423.78 191.58 420.71 C 195.90 415.07 200.47 409.48 206.52 405.58 C 215.00 399.51 226.69 397.33 236.40 401.70 C 238.38 399.40 240.77 397.49 243.58 396.30 C 246.08 393.23 248.73 389.95 252.61 388.62 C 258.10 386.36 264.21 387.61 269.48 389.88 C 269.94 386.31 270.96 382.83 272.83 379.73 C 272.90 376.02 273.09 372.31 273.39 368.62 C 274.99 360.42 278.36 352.36 284.33 346.37 C 291.64 338.82 301.66 332.46 312.63 334.02 C 311.23 330.20 310.84 325.99 312.37 322.14 C 315.38 314.33 322.09 307.49 330.57 306.03 C 330.89 305.95 331.53 305.79 331.85 305.71 C 333.40 302.61 334.50 299.28 336.37 296.34 C 343.28 285.89 355.02 279.03 367.48 277.90 C 365.68 266.81 364.81 255.24 368.29 244.37 C 371.53 231.70 380.90 220.97 392.91 215.87 C 403.57 211.41 415.70 211.44 426.78 214.30 C 429.62 210.94 433.52 208.80 437.95 208.57 C 437.73 201.40 439.58 193.44 446.15 189.46 Z" fill="#446f7f" opacity="1.00" stroke="#446f7f" stroke-width="0.25"/>
<path d="M 443.96 193.03 C 449.76 187.40 458.36 186.35 466.08 186.59 C 465.49 187.29 464.90 188.00 464.32 188.70 C 464.86 188.80 465.94 189.00 466.49 189.09 C 463.08 192.58 460.04 196.45 456.30 199.60 C 453.08 202.66 448.21 202.95 445.01 206.06 C 443.55 207.81 441.36 207.68 439.31 207.46 C 439.20 202.35 440.08 196.71 443.96 193.03 Z" fill="#fcffff" opacity="1.00" stroke="#fcffff" stroke-width="0.25"/>
<path d="M 33.46 222.17 C 31.06 215.90 33.62 209.25 34.84 203.01 C 35.62 205.53 36.17 208.19 37.61 210.44 C 39.43 212.29 41.84 213.46 43.60 215.38 C 43.58 219.00 42.16 222.43 41.65 225.99 C 40.43 231.88 42.48 237.98 40.68 243.81 C 40.18 246.77 38.38 250.51 41.01 252.98 C 43.87 256.15 48.51 255.50 52.24 256.73 C 54.03 261.55 53.08 267.14 50.42 271.49 C 47.57 275.76 52.27 282.92 57.46 280.77 C 58.27 283.75 59.22 286.95 57.99 289.97 C 55.12 297.57 53.34 305.98 47.40 311.93 L 47.58 312.11 C 45.08 315.68 42.01 320.28 44.24 324.72 C 46.64 329.58 48.93 335.72 54.99 336.79 C 56.09 344.64 51.70 351.72 47.12 357.67 C 42.55 355.39 37.31 356.06 32.46 356.83 C 32.07 356.38 31.29 355.47 30.90 355.02 C 33.67 353.82 36.63 352.89 39.06 351.07 C 41.64 348.33 40.20 344.31 40.16 341.00 C 39.73 337.52 41.26 334.26 41.64 330.86 C 41.35 327.04 37.76 323.73 38.84 319.76 C 41.13 313.55 46.61 309.22 49.22 303.16 C 49.64 302.03 50.34 300.65 49.54 299.51 C 48.05 298.27 46.29 297.40 44.80 296.16 C 43.51 292.62 43.48 288.72 43.28 284.98 C 43.06 281.24 45.09 277.61 44.11 273.90 C 43.15 270.16 42.43 266.33 41.06 262.72 C 39.12 259.72 35.36 257.96 34.56 254.23 C 32.90 249.40 36.55 245.18 38.68 241.20 C 34.23 236.16 30.45 228.85 33.46 222.17 Z" fill="#d2faff" opacity="1.00" stroke="#d2faff" stroke-width="0.25"/>
<path d="M 276.88 211.75 C 279.88 210.45 283.10 210.87 285.87 212.52 C 285.60 213.09 285.04 214.22 284.76 214.78 C 284.70 214.92 284.56 215.19 284.50 215.33 C 283.03 215.59 281.58 215.92 280.12 216.17 C 280.79 215.73 282.12 214.84 282.79 214.40 C 285.23 214.30 283.20 211.62 282.18 213.69 C 280.44 212.98 278.68 212.31 276.88 211.75 Z" fill="#73b2c4" opacity="1.00" stroke="#73b2c4" stroke-width="0.25"/>
<path d="M 285.87 212.52 C 286.10 212.08 286.56 211.19 286.79 210.74 C 287.97 212.04 289.14 213.34 290.28 214.68 C 288.44 214.73 286.60 214.77 284.76 214.78 C 285.04 214.22 285.60 213.09 285.87 212.52 Z" fill="#245e7b" opacity="1.00" stroke="#245e7b" stroke-width="0.25"/>
<path d="M 274.79 212.61 C 275.31 212.40 276.36 211.97 276.88 211.75 C 278.68 212.31 280.44 212.98 282.18 213.69 L 282.79 214.40 C 282.12 214.84 280.79 215.73 280.12 216.17 C 281.58 215.92 283.03 215.59 284.50 215.33 C 283.97 215.92 282.90 217.10 282.37 217.69 C 279.94 217.61 278.97 215.76 280.20 213.61 C 278.36 213.46 276.53 213.25 274.79 212.61 Z" fill="#245e7b" opacity="1.00" stroke="#245e7b" stroke-width="0.25"/>
<path d="M 282.18 213.69 C 283.20 211.62 285.23 214.30 282.79 214.40 L 282.18 213.69 Z" fill="#d2faff" opacity="1.00" stroke="#d2faff" stroke-width="0.25"/>
<path d="M 286.25 213.06 C 289.14 211.39 286.56 216.40 286.25 213.06 Z" fill="#b9f8fe" opacity="1.00" stroke="#b9f8fe" stroke-width="0.25"/>
<path d="M 399.12 215.22 C 408.04 212.80 417.48 213.38 426.39 215.54 C 426.25 218.34 426.20 221.14 426.04 223.93 C 425.68 224.05 424.96 224.28 424.61 224.39 C 425.38 227.94 424.68 231.45 423.94 234.93 C 426.24 236.59 428.92 237.59 431.51 238.69 C 430.91 243.17 431.92 248.64 427.89 251.78 C 424.32 256.35 420.52 260.96 419.77 266.95 C 421.10 268.24 422.43 269.53 423.77 270.83 C 421.52 270.78 419.28 270.70 417.04 270.81 C 411.99 270.69 408.54 275.01 405.13 278.10 C 403.05 279.74 403.41 282.40 403.84 284.68 C 402.67 287.49 401.71 290.39 400.71 293.27 C 392.71 291.36 382.36 295.94 381.62 304.91 C 384.06 302.27 385.86 298.97 388.81 296.84 C 392.86 294.08 397.98 295.48 402.54 294.87 C 403.34 294.55 404.15 294.22 404.95 293.89 C 408.11 291.54 411.21 289.11 414.13 286.47 C 414.37 286.63 414.85 286.96 415.10 287.12 C 418.19 286.13 421.38 285.44 424.63 285.17 C 421.22 288.26 417.63 291.16 414.42 294.47 C 407.90 301.03 398.20 302.47 390.99 308.02 C 387.58 310.62 382.65 311.12 378.80 309.23 C 375.93 307.68 376.06 303.99 375.29 301.24 C 372.17 300.50 368.66 298.70 365.65 300.72 C 362.61 302.45 359.14 304.35 357.69 307.70 C 356.51 312.46 356.97 317.43 356.97 322.29 C 358.48 324.80 360.49 327.58 359.60 330.67 C 358.80 333.30 357.03 336.53 353.93 336.66 C 350.22 337.04 345.43 335.13 343.28 339.32 C 342.81 338.90 342.34 338.47 341.88 338.06 C 340.08 339.17 338.18 340.18 336.62 341.63 C 335.00 347.74 337.61 354.35 335.36 360.40 C 331.05 363.52 325.75 365.05 321.23 367.88 C 318.14 371.79 313.81 374.33 309.55 376.76 C 306.50 378.47 304.42 381.36 301.77 383.56 C 299.92 385.13 297.86 386.69 297.05 389.10 C 295.16 393.19 297.90 397.38 298.85 401.36 C 296.75 401.59 294.65 401.82 292.55 402.05 C 292.61 403.08 292.68 404.11 292.76 405.14 C 287.50 405.69 282.85 403.19 278.76 400.21 C 276.15 401.22 272.96 401.94 271.74 404.80 C 268.80 409.11 269.22 415.44 264.61 418.58 C 262.47 420.35 259.64 420.60 257.00 420.88 C 256.26 421.78 255.52 422.68 254.80 423.60 C 252.55 422.92 250.30 422.25 248.05 421.58 C 248.03 419.85 248.01 418.13 248.00 416.41 C 250.52 415.98 253.03 415.47 255.44 414.61 C 250.44 414.06 245.26 413.48 240.30 414.58 C 237.04 416.14 234.62 419.19 231.04 420.16 C 226.19 421.59 221.35 423.11 216.88 425.52 C 216.53 425.21 215.81 424.61 215.46 424.31 C 213.35 426.26 211.37 428.39 209.00 430.03 C 206.69 431.64 203.27 431.00 201.40 433.30 C 199.89 434.75 198.67 436.67 196.61 437.40 C 191.54 439.16 186.36 441.49 180.85 440.76 C 181.23 439.51 181.61 438.26 181.99 437.03 C 181.06 435.66 180.13 434.31 179.20 432.96 C 181.19 430.36 183.31 427.79 186.08 425.99 C 188.78 424.11 192.21 423.07 193.99 420.11 C 200.54 410.72 210.24 402.49 221.95 401.03 C 227.16 399.97 232.29 401.50 237.00 403.64 C 238.64 401.86 240.05 399.88 241.63 398.05 C 242.33 398.23 243.73 398.58 244.43 398.75 C 246.22 395.31 248.51 391.79 252.30 390.34 C 257.75 387.59 264.06 389.02 269.32 391.48 C 269.90 393.90 270.54 396.33 271.65 398.58 C 271.23 392.28 269.67 384.91 274.70 379.90 C 273.06 367.30 277.88 353.91 287.32 345.37 C 293.12 340.28 300.02 335.44 308.02 335.24 C 312.37 335.02 316.40 336.88 320.56 337.78 C 317.94 335.25 313.27 334.18 312.85 330.00 C 311.92 323.74 315.38 317.91 319.52 313.53 C 323.02 309.61 328.13 307.54 333.33 307.26 C 335.92 295.63 345.40 286.62 356.06 282.05 C 363.89 278.78 372.48 279.07 380.77 278.50 C 376.96 276.88 372.75 277.57 368.75 277.53 C 366.79 266.13 366.06 254.11 370.13 243.06 C 374.15 229.59 385.50 218.67 399.12 215.22 Z" fill="#ffffff" opacity="1.00" stroke="#ffffff" stroke-width="0.25"/>
<path d="M 260.30 224.97 C 262.66 225.58 264.60 223.85 266.60 222.92 C 266.62 223.68 266.67 225.21 266.70 225.98 C 269.71 227.50 272.72 229.21 274.88 231.87 C 271.54 232.03 268.23 231.53 265.11 230.35 C 263.81 231.43 262.51 232.50 261.20 233.55 C 259.83 232.95 258.46 232.35 257.09 231.76 C 257.61 231.24 258.66 230.20 259.19 229.68 C 256.16 228.35 252.83 228.61 249.61 228.48 C 252.32 225.68 256.46 224.31 260.30 224.97 Z" fill="#2c5976" opacity="1.00" stroke="#2c5976" stroke-width="0.25"/>
<path d="M 253.70 227.29 C 257.27 224.19 262.18 228.49 265.34 224.92 C 264.85 228.86 270.09 227.98 271.36 231.03 C 269.26 230.41 267.22 229.61 265.18 228.82 C 264.27 229.53 263.36 230.22 262.45 230.93 C 260.19 228.41 257.00 227.43 253.70 227.29 Z" fill="#ebfeff" opacity="1.00" stroke="#ebfeff" stroke-width="0.25"/>
<path d="M 214.56 241.49 C 220.41 239.48 227.04 239.70 232.11 243.54 C 234.75 242.44 238.20 238.72 240.33 242.44 C 239.86 243.06 238.92 244.31 238.45 244.94 C 242.69 247.30 246.31 250.61 248.93 254.71 C 244.29 253.14 239.78 251.22 235.17 249.60 C 233.11 251.45 231.09 253.99 228.10 254.10 C 226.50 253.78 225.16 252.81 223.97 251.77 C 224.78 250.37 225.79 249.10 226.75 247.81 C 222.99 245.17 218.95 242.88 214.56 241.49 Z" fill="#245e7b" opacity="1.00" stroke="#245e7b" stroke-width="0.25"/>
<path d="M 219.55 241.60 C 224.02 241.08 228.73 242.10 231.69 245.69 C 233.85 244.32 236.01 242.94 238.34 241.86 C 237.63 243.39 236.81 244.87 235.97 246.34 C 239.50 246.65 242.33 248.88 244.50 251.53 C 241.24 250.49 238.03 249.31 234.90 247.94 C 233.44 249.30 232.11 250.92 230.29 251.81 C 229.53 250.62 229.25 249.24 229.00 247.88 C 226.08 245.44 222.66 243.76 219.55 241.60 Z" fill="#f7ffff" opacity="1.00" stroke="#f7ffff" stroke-width="0.25"/>
<path d="M 226.41 251.02 C 229.44 249.56 226.44 254.36 226.41 251.02 Z" fill="#77b3d9" opacity="1.00" stroke="#77b3d9" stroke-width="0.25"/>
<path d="M 192.05 258.98 C 196.75 257.62 201.80 258.07 206.35 256.15 C 206.59 256.73 207.08 257.89 207.32 258.47 C 210.29 259.54 212.79 261.49 215.02 263.69 C 212.08 263.66 209.15 263.41 206.25 262.90 C 207.72 261.95 209.49 261.67 211.24 262.04 C 209.68 260.62 207.71 259.96 205.65 259.73 C 205.52 259.14 205.26 257.95 205.14 257.35 C 204.58 257.74 203.46 258.52 202.90 258.91 C 200.44 258.87 197.97 258.89 195.52 259.17 C 197.93 260.45 201.59 259.95 202.79 262.89 C 203.57 262.25 205.13 260.96 205.91 260.32 C 205.92 260.86 205.95 261.96 205.96 262.50 C 203.44 264.63 200.29 265.26 197.15 264.27 C 197.64 263.63 198.60 262.34 199.09 261.70 C 196.49 261.02 193.85 260.47 191.17 260.29 C 191.39 259.96 191.83 259.30 192.05 258.98 Z" fill="#3e6a80" opacity="1.00" stroke="#3e6a80" stroke-width="0.25"/>
<path d="M 167.56 265.51 C 169.69 264.42 171.70 262.55 174.27 262.88 C 174.17 264.33 174.02 265.77 173.82 267.21 C 177.24 269.77 180.32 272.72 183.27 275.80 C 178.46 276.81 174.37 273.73 170.45 271.48 C 169.02 272.83 167.59 274.17 166.14 275.50 C 164.13 274.76 162.02 274.07 160.46 272.53 C 161.15 272.00 162.54 270.93 163.24 270.40 C 159.52 268.28 155.34 267.24 151.35 265.76 C 152.59 263.79 155.03 264.05 157.04 263.87 C 160.62 263.64 164.34 263.72 167.56 265.51 Z" fill="#5990a5" opacity="1.00" stroke="#5990a5" stroke-width="0.25"/>
<path d="M 156.05 265.36 C 159.98 265.29 164.25 265.12 167.47 267.80 C 169.26 266.77 171.04 265.72 172.86 264.74 C 172.24 265.80 171.60 266.86 170.97 267.92 C 173.48 269.34 175.84 271.07 177.65 273.36 C 174.97 272.20 172.43 270.75 169.90 269.32 C 169.15 270.21 168.41 271.10 167.67 272.00 C 167.27 271.91 166.46 271.71 166.05 271.62 C 164.29 267.63 159.53 267.12 156.05 265.36 Z" fill="#f5ffff" opacity="1.00" stroke="#f5ffff" stroke-width="0.25"/>
<path d="M 418.25 273.20 C 423.16 271.65 428.59 272.66 433.07 275.03 C 436.37 276.73 437.72 280.39 439.24 283.54 C 442.37 282.71 445.93 281.26 449.02 283.00 C 452.63 285.33 454.37 289.67 458.06 291.92 C 462.31 294.44 467.80 294.14 472.15 292.01 C 476.23 289.91 478.61 285.78 482.14 283.01 C 484.07 282.81 486.01 283.02 487.95 283.11 C 492.16 283.50 496.24 282.05 500.43 281.90 C 498.33 283.16 496.11 284.38 493.63 284.65 C 489.95 285.16 486.11 284.56 482.52 285.58 C 478.73 288.75 475.77 293.32 470.69 294.60 C 465.71 295.81 459.63 296.11 455.56 292.45 C 452.68 290.04 450.72 286.66 447.59 284.53 C 444.43 282.94 441.37 285.56 438.42 286.44 C 436.54 283.39 435.69 279.58 432.80 277.25 C 426.96 273.12 418.46 273.17 412.91 277.83 C 407.06 281.67 403.78 288.15 402.54 294.87 C 397.98 295.48 392.86 294.08 388.81 296.84 C 385.86 298.97 384.06 302.27 381.62 304.91 C 382.36 295.94 392.71 291.36 400.71 293.27 C 401.71 290.39 402.67 287.49 403.84 284.68 C 407.35 279.55 412.15 274.95 418.25 273.20 Z" fill="#c5d8df" opacity="1.00" stroke="#c5d8df" stroke-width="0.25"/>
<path d="M 412.91 277.83 C 418.46 273.17 426.96 273.12 432.80 277.25 C 435.69 279.58 436.54 283.39 438.42 286.44 C 441.37 285.56 444.43 282.94 447.59 284.53 C 450.72 286.66 452.68 290.04 455.56 292.45 C 459.63 296.11 465.71 295.81 470.69 294.60 C 475.77 293.32 478.73 288.75 482.52 285.58 C 486.11 284.56 489.95 285.16 493.63 284.65 C 497.11 289.97 495.95 296.53 495.71 302.50 C 493.33 303.71 491.06 305.20 489.46 307.38 C 487.33 310.24 484.35 312.31 482.14 315.08 C 481.98 316.63 482.04 318.19 482.05 319.75 C 483.97 319.93 485.89 320.11 487.82 320.29 C 487.78 325.31 488.61 330.46 487.37 335.38 C 485.02 335.96 482.59 336.02 480.20 336.21 C 479.97 338.57 480.15 341.05 479.29 343.31 C 477.74 343.81 476.13 344.09 474.56 344.44 C 473.48 346.83 472.44 349.22 471.40 351.63 C 470.31 351.86 469.22 352.09 468.14 352.33 C 468.00 354.86 467.88 357.39 467.76 359.93 C 466.21 359.88 464.65 359.91 463.12 359.71 C 459.82 357.57 457.44 354.34 455.11 351.23 C 453.14 352.02 451.06 352.50 448.93 352.28 C 444.63 356.15 439.06 359.09 436.67 364.65 C 434.87 368.19 436.57 372.36 438.79 375.28 C 441.14 376.49 444.24 377.02 446.67 375.68 C 450.18 373.94 453.60 372.01 457.17 370.37 C 460.87 370.30 464.32 368.89 467.81 367.83 C 467.91 370.19 467.99 372.55 468.06 374.91 C 468.75 375.68 469.44 376.44 470.14 377.21 C 468.85 379.86 467.26 382.37 466.30 385.16 C 465.65 388.24 466.16 391.44 465.65 394.54 C 457.00 398.17 448.55 402.36 440.95 407.90 C 439.88 409.32 440.01 411.24 439.64 412.91 C 439.02 413.72 438.40 414.54 437.79 415.36 C 441.12 416.16 444.50 416.82 447.89 417.34 C 447.89 419.35 447.88 421.36 447.87 423.37 C 443.93 424.14 440.35 426.60 439.32 430.66 C 434.30 431.11 429.31 431.88 424.28 432.22 C 424.05 433.28 423.83 434.35 423.62 435.42 C 420.54 436.61 417.60 438.09 414.79 439.81 C 412.11 437.29 409.84 434.31 406.85 432.14 C 401.37 431.80 395.45 432.56 390.78 435.68 C 388.72 435.90 386.66 436.09 384.60 436.30 C 384.00 437.41 383.47 438.58 382.73 439.62 C 380.83 439.98 378.90 439.98 377.00 440.09 C 376.27 440.74 375.56 441.41 374.85 442.08 C 372.69 441.96 370.42 442.27 368.36 441.52 C 365.81 438.50 364.91 433.78 367.79 430.67 C 367.39 429.88 366.99 429.10 366.59 428.33 C 366.16 428.72 365.32 429.50 364.90 429.88 C 360.05 430.53 354.25 429.62 350.50 433.42 C 346.13 434.61 341.84 436.35 338.80 439.84 C 337.41 439.50 336.14 438.82 334.85 438.23 C 328.78 439.58 324.95 444.59 320.94 448.89 C 320.10 450.05 319.82 451.50 319.29 452.81 C 312.83 453.75 306.99 449.60 302.61 445.30 C 300.33 446.87 297.77 447.94 294.99 448.17 C 293.59 449.42 292.26 450.75 290.74 451.85 C 289.17 451.96 289.05 449.90 288.21 449.02 C 287.14 450.20 286.12 451.42 285.14 452.68 C 284.34 452.71 283.54 452.75 282.74 452.79 C 281.85 450.92 280.74 449.15 279.24 447.72 C 279.20 452.28 281.52 456.99 278.93 461.27 C 273.00 458.62 276.03 450.34 271.16 446.74 C 268.15 444.62 264.37 444.03 260.84 443.29 C 258.74 442.71 256.94 444.22 255.13 445.03 C 250.86 447.43 246.04 448.56 241.63 450.68 C 238.06 452.45 233.90 452.38 230.06 451.73 C 227.89 450.80 226.44 448.76 224.72 447.23 C 223.62 445.72 222.48 443.02 220.11 444.09 C 216.68 445.18 213.14 445.84 209.65 446.69 C 206.92 449.30 204.32 452.10 200.92 453.88 C 197.89 453.95 194.67 454.53 191.84 453.10 C 187.30 451.00 182.17 452.15 177.36 452.17 C 171.88 455.93 164.71 453.74 159.43 450.68 C 159.22 450.07 158.81 448.85 158.60 448.24 C 157.70 448.84 156.80 449.44 155.90 450.05 C 154.74 449.72 153.57 449.39 152.41 449.07 C 152.55 449.96 152.69 450.86 152.83 451.76 C 150.30 451.87 147.75 451.86 145.26 452.35 C 144.40 453.38 143.98 454.70 143.39 455.89 C 137.29 456.49 131.44 453.84 126.69 450.23 C 125.26 450.37 124.05 451.30 122.77 451.87 C 118.94 450.89 114.02 452.04 111.36 448.51 C 110.40 448.20 109.45 447.91 108.49 447.62 C 108.63 446.39 108.75 445.15 108.89 443.94 C 105.53 443.53 102.57 444.85 100.53 447.52 C 99.25 447.81 97.97 448.06 96.69 448.37 C 95.62 452.09 91.51 452.00 88.74 450.27 C 86.25 447.60 85.43 443.65 82.46 441.37 C 79.45 439.54 75.07 441.43 72.58 438.51 C 70.49 435.99 67.05 435.67 64.40 433.98 C 64.14 435.77 63.87 437.56 63.59 439.36 C 58.98 441.81 54.10 443.57 49.25 445.44 C 48.07 441.97 45.58 438.76 45.87 434.95 C 45.73 432.94 47.77 432.07 48.82 430.71 C 48.97 429.55 48.94 428.40 48.96 427.25 C 46.61 428.72 44.45 430.56 41.87 431.64 C 37.65 432.26 33.32 432.11 29.08 431.73 C 26.48 431.55 25.13 428.90 24.56 426.67 C 23.09 419.58 24.57 411.46 29.73 406.14 C 26.05 403.89 22.15 402.07 18.10 400.61 C 16.29 400.02 15.12 398.47 13.85 397.17 C 15.91 392.57 21.12 389.59 21.22 384.20 C 19.29 383.95 17.36 383.71 15.43 383.47 C 15.15 378.77 14.65 374.01 15.41 369.35 C 18.14 367.28 21.30 365.89 24.29 364.25 C 24.69 363.21 25.09 362.18 25.49 361.15 C 27.68 361.42 29.87 361.71 32.06 361.99 C 28.69 358.77 24.68 356.16 22.01 352.27 C 26.29 352.49 29.62 355.28 32.12 358.54 C 38.66 356.01 46.93 356.74 51.18 362.90 C 53.42 361.90 55.68 360.91 58.02 360.16 C 56.90 361.47 55.78 362.80 54.64 364.10 C 52.82 364.25 51.00 364.42 49.18 364.58 C 49.22 365.57 49.26 366.57 49.30 367.58 C 46.88 370.12 41.97 372.43 43.27 376.61 C 44.01 379.44 47.40 379.55 49.62 380.60 C 53.66 381.67 56.12 385.34 59.68 387.24 C 63.59 388.71 67.82 388.94 71.91 389.64 C 72.04 387.81 72.17 386.00 72.29 384.18 C 73.28 386.76 74.46 389.26 75.92 391.61 C 79.53 391.52 83.13 392.09 86.49 393.43 C 91.37 395.32 96.88 395.70 101.28 398.73 C 103.77 400.48 103.81 404.04 105.94 406.08 C 107.91 406.58 109.98 406.49 111.97 406.95 C 113.07 408.25 113.83 409.80 114.69 411.27 C 115.38 411.33 116.08 411.39 116.78 411.46 C 116.67 412.81 116.57 414.15 116.47 415.50 C 123.18 413.82 131.76 413.67 136.63 419.41 C 138.61 421.40 140.94 423.04 142.72 425.23 C 143.97 427.72 143.89 430.62 144.34 433.32 C 146.42 433.23 148.51 433.12 150.60 433.02 C 150.86 431.87 151.13 430.74 151.40 429.61 C 155.93 429.62 160.52 429.02 165.01 429.88 C 165.49 432.09 165.36 434.44 166.28 436.55 C 169.12 436.65 171.92 436.08 174.72 435.69 C 175.30 434.39 175.88 433.10 176.47 431.82 C 177.01 432.53 177.54 433.25 178.08 433.97 C 178.36 433.72 178.92 433.21 179.20 432.96 C 180.13 434.31 181.06 435.66 181.99 437.03 C 181.61 438.26 181.23 439.51 180.85 440.76 C 186.36 441.49 191.54 439.16 196.61 437.40 C 198.67 436.67 199.89 434.75 201.40 433.30 C 203.27 431.00 206.69 431.64 209.00 430.03 C 211.37 428.39 213.35 426.26 215.46 424.31 C 215.81 424.61 216.53 425.21 216.88 425.52 C 221.35 423.11 226.19 421.59 231.04 420.16 C 234.62 419.19 237.04 416.14 240.30 414.58 C 245.26 413.48 250.44 414.06 255.44 414.61 C 253.03 415.47 250.52 415.98 248.00 416.41 C 248.01 418.13 248.03 419.85 248.05 421.58 C 250.30 422.25 252.55 422.92 254.80 423.60 C 255.52 422.68 256.26 421.78 257.00 420.88 C 259.64 420.60 262.47 420.35 264.61 418.58 C 269.22 415.44 268.80 409.11 271.74 404.80 C 272.96 401.94 276.15 401.22 278.76 400.21 C 282.85 403.19 287.50 405.69 292.76 405.14 C 292.68 404.11 292.61 403.08 292.55 402.05 C 294.65 401.82 296.75 401.59 298.85 401.36 C 297.90 397.38 295.16 393.19 297.05 389.10 C 297.86 386.69 299.92 385.13 301.77 383.56 C 304.42 381.36 306.50 378.47 309.55 376.76 C 313.81 374.33 318.14 371.79 321.23 367.88 C 325.75 365.05 331.05 363.52 335.36 360.40 C 337.61 354.35 335.00 347.74 336.62 341.63 C 338.18 340.18 340.08 339.17 341.88 338.06 C 342.34 338.47 342.81 338.90 343.28 339.32 C 345.43 335.13 350.22 337.04 353.93 336.66 C 357.03 336.53 358.80 333.30 359.60 330.67 C 360.49 327.58 358.48 324.80 356.97 322.29 C 356.97 317.43 356.51 312.46 357.69 307.70 C 359.14 304.35 362.61 302.45 365.65 300.72 C 368.66 298.70 372.17 300.50 375.29 301.24 C 376.06 303.99 375.93 307.68 378.80 309.23 C 382.65 311.12 387.58 310.62 390.99 308.02 C 398.20 302.47 407.90 301.03 414.42 294.47 C 417.63 291.16 421.22 288.26 424.63 285.17 C 421.38 285.44 418.19 286.13 415.10 287.12 C 414.85 286.96 414.37 286.63 414.13 286.47 C 411.21 289.11 408.11 291.54 404.95 293.89 C 404.15 294.22 403.34 294.55 402.54 294.87 C 403.78 288.15 407.06 281.67 412.91 277.83 Z" fill="#edfefe" opacity="1.00" stroke="#edfefe" stroke-width="0.25"/>
<path d="M 126.54 286.25 C 128.18 285.96 129.83 285.70 131.48 285.42 C 131.54 286.19 131.65 287.75 131.71 288.52 C 132.41 288.48 133.82 288.41 134.53 288.37 C 134.57 288.90 134.65 289.97 134.69 290.50 C 133.53 290.38 132.38 290.27 131.23 290.16 C 129.95 291.02 128.70 291.96 127.31 292.64 C 125.45 292.27 126.45 290.14 126.28 288.84 C 124.75 288.08 123.21 287.37 121.70 286.61 C 122.51 286.32 124.15 285.74 124.96 285.45 C 125.77 286.59 126.69 287.66 127.68 288.66 C 127.41 289.63 127.14 290.60 126.87 291.58 C 128.30 290.44 129.74 289.30 131.17 288.16 C 129.62 287.52 128.08 286.90 126.54 286.25 Z" fill="#3e6a80" opacity="1.00" stroke="#3e6a80" stroke-width="0.25"/>
<path d="M 91.28 304.12 C 93.31 305.48 96.03 306.45 96.69 309.07 C 95.75 309.25 94.82 309.45 93.88 309.65 C 92.98 307.82 92.04 306.01 91.28 304.12 Z" fill="#245e7b" opacity="1.00" stroke="#245e7b" stroke-width="0.25"/>
<path d="M 455.57 320.61 C 463.39 316.96 472.43 317.15 480.59 319.50 C 474.32 321.20 467.63 318.41 461.32 320.54 C 452.78 322.05 447.40 329.55 439.62 332.67 C 434.88 335.09 429.93 337.24 425.53 340.23 C 424.71 343.40 424.75 346.77 423.62 349.88 C 423.03 350.69 421.88 350.28 421.05 350.44 C 417.72 350.38 414.41 350.67 411.15 351.26 C 407.63 357.38 404.41 364.96 396.96 367.05 C 392.97 368.65 388.42 367.08 386.60 363.13 C 381.21 367.66 375.70 372.10 369.46 375.41 C 369.50 380.05 369.32 385.34 365.82 388.83 C 363.55 391.36 359.91 390.93 356.93 391.85 C 354.46 394.10 352.97 397.66 349.47 398.54 C 343.93 400.41 338.52 397.03 334.67 393.30 C 331.75 390.16 326.83 390.18 323.33 392.29 C 319.49 394.54 318.96 399.84 315.02 402.03 C 310.95 405.06 305.39 404.40 301.32 407.40 C 298.02 409.75 293.63 408.47 290.03 410.02 C 285.52 411.80 281.46 415.92 281.33 421.00 C 280.90 424.51 282.10 428.60 279.44 431.47 C 276.21 435.49 275.12 440.85 275.66 445.91 C 276.09 450.56 278.17 454.83 278.87 459.43 C 276.12 457.52 275.85 453.95 274.97 451.00 C 273.46 444.92 272.85 437.87 276.48 432.40 C 277.69 430.36 279.78 428.50 279.43 425.90 C 279.20 420.65 279.73 414.69 284.27 411.26 C 288.70 406.43 295.90 408.44 301.07 405.24 C 305.30 402.90 310.54 403.28 314.59 400.51 C 318.18 397.73 319.22 392.60 323.26 390.29 C 326.62 388.56 331.18 388.20 334.22 390.80 C 338.18 393.83 342.53 397.85 347.97 396.77 C 351.64 396.37 352.89 392.43 355.23 390.17 C 358.26 389.23 362.03 389.83 364.43 387.37 C 367.87 383.87 367.65 378.58 367.96 374.04 C 374.77 370.17 381.87 366.05 386.54 359.60 C 388.39 361.64 389.57 364.61 392.24 365.70 C 395.32 365.93 398.44 364.75 400.84 362.85 C 404.82 359.52 406.85 354.64 409.56 350.36 C 410.09 348.98 411.67 349.00 412.91 348.84 C 416.09 348.54 419.29 348.55 422.47 348.44 C 422.87 345.24 422.70 341.89 423.79 338.84 C 429.58 335.48 435.59 332.49 441.65 329.62 C 446.48 326.92 450.33 322.65 455.57 320.61 Z" fill="#c4d9e1" opacity="1.00" stroke="#c4d9e1" stroke-width="0.25"/>
<path d="M 58.02 360.16 C 64.32 358.47 71.03 357.75 77.44 359.25 C 88.08 361.60 97.04 368.92 103.19 377.69 C 106.87 383.26 108.15 389.86 109.06 396.35 C 109.47 394.88 109.88 393.41 110.29 391.94 C 115.94 392.66 121.88 395.77 123.42 401.66 C 124.82 405.73 120.69 408.48 118.76 411.51 C 123.40 409.01 128.49 406.39 133.94 407.42 C 138.95 408.06 142.59 411.98 145.34 415.89 C 151.54 414.75 158.47 414.53 163.97 418.07 C 169.11 421.65 172.63 426.98 176.47 431.82 C 175.88 433.10 175.30 434.39 174.72 435.69 C 171.92 436.08 169.12 436.65 166.28 436.55 C 165.36 434.44 165.49 432.09 165.01 429.88 C 160.52 429.02 155.93 429.62 151.40 429.61 C 151.13 430.74 150.86 431.87 150.60 433.02 C 148.51 433.12 146.42 433.23 144.34 433.32 C 143.89 430.62 143.97 427.72 142.72 425.23 C 140.94 423.04 138.61 421.40 136.63 419.41 C 131.76 413.67 123.18 413.82 116.47 415.50 C 116.57 414.15 116.67 412.81 116.78 411.46 C 116.08 411.39 115.38 411.33 114.69 411.27 C 113.83 409.80 113.07 408.25 111.97 406.95 C 109.98 406.49 107.91 406.58 105.94 406.08 C 103.81 404.04 103.77 400.48 101.28 398.73 C 96.88 395.70 91.37 395.32 86.49 393.43 C 83.13 392.09 79.53 391.52 75.92 391.61 C 74.46 389.26 73.28 386.76 72.29 384.18 C 72.17 386.00 72.04 387.81 71.91 389.64 C 67.82 388.94 63.59 388.71 59.68 387.24 C 56.12 385.34 53.66 381.67 49.62 380.60 C 47.40 379.55 44.01 379.44 43.27 376.61 C 41.97 372.43 46.88 370.12 49.30 367.58 C 49.26 366.57 49.22 365.57 49.18 364.58 C 51.00 364.42 52.82 364.25 54.64 364.10 C 55.78 362.80 56.90 361.47 58.02 360.16 Z" fill="#ffffff" opacity="1.00" stroke="#ffffff" stroke-width="0.25"/>
<path d="M 103.35 367.20 C 106.89 367.58 110.46 367.59 114.02 367.77 C 118.10 367.98 121.83 370.10 125.95 370.03 C 140.30 369.86 154.65 370.10 169.00 369.90 C 173.80 369.74 178.19 372.28 183.00 372.09 C 199.99 371.92 216.99 371.93 233.98 372.06 C 238.43 372.11 242.47 369.54 246.97 369.95 C 250.60 370.14 254.26 369.93 257.74 368.81 C 262.36 367.34 267.32 367.64 271.89 369.15 C 272.04 368.61 272.33 367.51 272.48 366.97 C 272.70 367.38 273.16 368.20 273.39 368.62 C 273.09 372.31 272.90 376.02 272.83 379.73 C 270.96 382.83 269.94 386.31 269.48 389.88 C 264.21 387.61 258.10 386.36 252.61 388.62 C 248.73 389.95 246.08 393.23 243.58 396.30 C 240.77 397.49 238.38 399.40 236.40 401.70 C 226.69 397.33 215.00 399.51 206.52 405.58 C 200.47 409.48 195.90 415.07 191.58 420.71 C 186.62 423.78 181.51 426.84 178.00 431.66 C 174.23 426.62 170.47 421.43 165.50 417.49 C 159.94 413.39 152.65 413.33 146.09 414.26 C 143.57 411.31 140.91 408.21 137.13 406.90 C 133.21 405.19 128.88 405.94 124.86 406.77 C 125.19 403.22 125.07 399.31 122.35 396.64 C 119.42 392.54 114.33 391.53 109.79 390.30 C 107.86 383.62 105.28 376.97 100.36 371.87 C 101.47 371.68 102.58 371.51 103.70 371.34 C 103.59 369.95 103.45 368.58 103.35 367.20 Z" fill="#c4fbfe" opacity="1.00" stroke="#c4fbfe" stroke-width="0.25"/>
<path d="M 15.17 397.53 C 21.05 394.72 26.20 399.94 31.55 401.52 C 38.70 404.01 44.65 395.26 51.74 398.41 C 54.32 400.51 55.20 404.13 57.97 406.08 C 60.88 408.24 64.70 408.04 68.12 408.63 C 70.61 415.92 78.69 417.75 85.16 419.86 C 85.86 422.88 86.25 426.07 88.11 428.67 C 91.36 429.01 94.71 428.98 97.86 429.95 C 98.87 432.03 99.21 434.44 100.54 436.37 C 102.52 438.94 105.99 439.59 109.05 439.68 C 113.01 439.81 116.36 437.33 120.08 436.40 C 125.92 435.93 131.70 438.84 137.53 437.32 C 139.79 436.86 142.62 435.31 144.32 437.74 C 148.10 441.72 152.49 445.02 156.37 448.88 C 150.74 447.77 147.65 442.70 143.66 439.16 C 141.83 437.31 139.20 439.05 137.07 439.25 C 130.53 441.12 123.71 436.27 117.38 439.33 C 111.89 441.90 104.57 442.55 99.79 438.20 C 97.67 436.55 97.18 433.79 96.51 431.36 C 93.20 431.00 89.46 431.47 86.65 429.36 C 84.15 427.52 84.09 424.13 83.43 421.38 C 77.04 419.32 69.85 416.86 66.57 410.48 C 62.11 409.75 56.66 409.24 54.06 404.98 C 52.52 402.99 51.61 399.79 48.67 399.56 C 43.82 399.72 39.94 403.67 35.04 403.65 C 31.57 403.80 28.39 402.21 25.44 400.59 C 22.30 398.78 18.61 398.46 15.17 397.53 Z" fill="#c5d8e0" opacity="1.00" stroke="#c5d8e0" stroke-width="0.25"/>
</svg>