<svg xmlns="http://www.w3.org/2000/svg" height="512pt" version="1.1" viewBox="0 0 512 512" width="512pt">

<path d="M 235.38 82.43 C 246.05 82.34 256.80 82.11 267.40 83.44 C 267.43 86.10 268.37 89.18 266.42 91.40 C 256.76 104.89 246.82 118.19 236.89 131.48 C 243.18 131.96 249.48 132.38 255.77 132.91 C 255.97 135.53 255.87 138.17 255.57 140.79 C 250.40 141.91 245.16 140.70 239.95 140.64 C 234.57 140.54 229.20 140.16 223.87 139.42 C 223.86 136.58 222.72 133.23 224.93 130.92 C 235.27 117.96 244.85 104.41 255.11 91.38 C 248.64 90.99 242.06 91.52 235.69 90.23 C 233.55 88.15 235.11 84.95 235.38 82.43 Z" fill="#053050" opacity="1.00" stroke="#053050" stroke-width="0.25" data-index="1"></path>
<path d="M 282.19 94.55 C 291.95 94.38 301.72 94.25 311.47 94.63 C 311.52 97.10 312.32 99.84 311.03 102.12 C 302.92 114.60 293.91 126.51 285.98 139.11 C 292.14 139.16 298.30 139.23 304.46 139.46 C 304.85 142.05 304.86 144.69 304.33 147.27 C 294.25 147.06 284.12 147.65 274.08 146.64 C 273.83 144.33 272.94 141.66 274.56 139.64 C 282.92 127.37 291.45 115.22 299.69 102.88 C 293.92 102.62 288.13 102.70 282.36 102.41 C 281.59 99.85 281.32 97.13 282.19 94.55 Z" fill="#053050" opacity="1.00" stroke="#053050" stroke-width="0.25" data-index="2"></path>
<path d="M 351.86 136.87 C 352.16 134.69 352.95 132.36 355.01 131.24 C 361.78 134.39 368.22 138.25 374.66 142.03 C 374.00 143.79 373.78 145.95 372.08 147.08 C 363.98 153.47 355.42 159.26 347.16 165.45 C 351.04 167.64 355.02 169.67 358.75 172.12 C 357.93 174.11 356.90 176.02 355.46 177.64 C 348.63 174.60 342.24 170.68 335.80 166.92 C 336.60 165.11 336.79 162.78 338.55 161.57 C 347.00 155.86 355.42 150.08 363.58 143.95 C 359.84 141.31 355.45 139.69 351.86 136.87 Z" fill="#053050" opacity="1.00" stroke="#053050" stroke-width="0.25" data-index="3" style="opacity: 1;"></path>

<path d="M 312.94 143.62 C 313.83 144.21 314.69 144.85 315.52 145.54 C 315.82 149.94 315.35 154.35 314.78 158.71 C 314.02 158.73 312.49 158.77 311.73 158.79 C 311.57 153.71 311.68 148.57 312.94 143.62 Z" fill="#053050" opacity="1.00" stroke="#053050" stroke-width="0.25" data-index="5" style="visibility: hidden; opacity: 1;"></path>
<path d="M 234.09 159.83 C 246.99 159.38 260.77 162.56 270.47 171.53 C 275.19 175.87 277.89 181.74 280.37 187.50 C 301.54 188.96 322.78 192.27 344.02 189.98 C 346.81 189.79 349.68 188.85 352.45 189.53 C 353.19 191.39 353.34 193.40 353.49 195.38 C 355.86 224.93 358.17 254.50 358.44 284.15 C 373.13 285.74 389.02 290.32 398.35 302.62 C 402.62 308.75 407.90 314.05 413.11 319.38 C 412.62 320.01 411.66 321.26 411.18 321.88 C 406.90 318.15 402.96 314.02 399.47 309.54 C 395.22 304.21 390.98 298.48 384.71 295.39 C 373.82 289.30 361.24 287.67 349.00 286.73 C 325.31 285.41 301.56 286.78 277.99 289.28 C 261.69 290.96 245.35 292.72 229.32 296.24 C 220.87 297.95 212.72 300.82 204.26 302.51 C 193.61 304.67 182.89 306.67 172.03 307.43 C 155.80 308.20 139.33 309.37 123.86 314.73 C 113.03 318.36 103.00 324.95 96.38 334.37 C 90.56 343.12 87.74 353.39 85.44 363.53 C 84.72 363.63 83.29 363.83 82.57 363.93 C 82.31 360.02 83.74 356.29 84.74 352.58 C 87.08 345.18 89.67 337.66 94.42 331.42 C 101.73 321.23 113.01 314.49 124.84 310.79 C 121.95 297.38 118.31 284.14 115.47 270.72 C 111.81 252.72 109.40 234.38 109.67 215.98 C 109.65 213.41 109.98 210.86 110.50 208.34 C 116.04 207.96 122.06 209.24 127.03 206.08 C 140.97 198.37 156.07 192.49 171.86 190.05 C 170.77 185.19 169.48 179.67 172.16 175.09 C 173.86 174.87 174.50 176.54 175.32 177.68 C 177.59 181.67 182.58 183.22 186.92 183.14 C 194.92 182.41 200.72 176.04 208.21 173.75 C 206.75 170.18 204.87 166.71 204.38 162.83 C 208.73 163.85 212.74 166.07 217.21 166.65 C 224.14 167.86 231.12 166.43 238.03 165.74 C 236.61 163.84 235.21 161.92 234.09 159.83 Z" fill="#053050" opacity="1.00" stroke="#053050" stroke-width="0.25" data-index="6" style="opacity: 1;"></path>
<path d="M 241.28 163.40 C 250.92 164.30 260.72 167.34 268.00 173.96 C 273.88 178.93 276.23 186.55 278.51 193.62 C 281.96 194.31 285.61 194.58 288.76 196.28 C 292.90 198.78 295.88 202.87 297.76 207.27 C 299.95 212.20 300.92 217.65 303.76 222.29 C 305.76 225.58 309.25 227.49 312.32 229.64 C 309.74 231.04 307.11 232.33 304.43 233.52 C 304.23 238.85 304.37 244.25 303.34 249.51 C 299.04 249.56 294.84 247.80 291.07 245.89 C 288.15 237.93 286.94 229.14 281.82 222.12 C 279.24 218.54 276.21 214.90 271.99 213.27 C 269.92 213.84 268.42 215.47 266.92 216.91 C 260.42 223.89 252.30 230.03 242.90 232.31 C 243.64 229.63 244.82 227.11 246.00 224.61 C 240.91 223.26 236.28 226.21 231.57 227.63 C 221.17 230.90 210.14 233.15 199.22 231.68 C 195.93 231.33 192.68 230.46 189.35 230.52 C 188.03 231.55 187.33 233.12 186.69 234.62 C 183.19 243.58 181.70 253.13 179.89 262.53 C 175.57 263.50 171.36 264.95 167.42 266.98 C 164.17 257.01 163.69 246.42 163.78 236.02 C 163.89 224.93 166.23 213.86 170.69 203.70 C 172.19 200.15 174.78 197.19 176.33 193.67 C 176.12 189.71 174.40 186.00 173.62 182.14 C 178.34 184.66 183.52 187.66 189.09 186.21 C 197.31 184.30 203.95 178.58 211.82 175.67 C 211.28 173.44 210.72 171.23 210.18 169.01 C 215.53 169.78 220.90 170.86 226.34 170.37 C 231.50 169.94 236.66 169.35 241.82 168.86 C 241.64 167.04 241.46 165.22 241.28 163.40 Z" fill="#6f4a44" opacity="1.00" stroke="#6f4a44" stroke-width="0.25" data-index="7"></path>

<path d="M 369.32 189.68 C 369.25 188.56 369.25 187.44 369.31 186.32 C 373.11 187.73 376.47 190.00 379.90 192.10 C 379.79 192.88 379.56 194.44 379.45 195.22 C 375.77 194.05 372.20 192.27 369.32 189.68 Z" fill="#053050" opacity="1.00" stroke="#053050" stroke-width="0.25" data-index="9" style="opacity: 1; visibility: hidden;"></path>
<path d="M 282.96 191.09 C 302.85 192.58 322.82 196.03 342.78 193.61 C 345.08 193.38 347.39 193.21 349.71 193.06 C 351.39 208.93 352.19 224.88 353.28 240.80 C 353.98 255.10 354.99 269.39 354.78 283.71 C 334.52 281.68 314.14 282.97 293.87 284.13 C 293.22 284.10 291.92 284.05 291.27 284.02 C 294.51 282.02 298.49 281.78 301.70 279.73 C 308.23 275.48 311.38 266.64 308.71 259.27 C 307.83 256.56 305.68 254.11 306.30 251.10 C 306.87 246.25 307.31 241.39 307.62 236.51 C 311.90 233.56 318.77 230.58 317.45 224.15 C 315.41 224.51 313.18 226.22 311.17 224.94 C 306.66 222.91 304.80 217.97 303.44 213.57 C 301.26 206.57 298.36 199.24 292.38 194.62 C 289.73 192.38 286.21 191.91 282.96 191.09 Z" fill="#7ae4fe" opacity="1.00" stroke="#7ae4fe" stroke-width="0.25" data-index="10" style="opacity: 1;"></path>
<path d="M 145.16 201.21 C 154.00 197.76 163.12 194.91 172.52 193.46 C 158.60 216.57 157.46 245.64 165.18 271.04 C 165.81 273.67 165.20 276.39 165.33 279.07 C 165.28 285.87 169.50 292.74 176.01 295.10 C 179.63 296.64 183.63 296.27 187.45 296.72 C 188.71 298.12 189.65 299.76 190.72 301.32 C 175.76 304.57 160.34 303.86 145.24 306.04 C 139.46 306.90 133.80 308.35 128.09 309.55 C 124.69 292.97 119.60 276.77 117.06 260.01 C 113.96 244.08 112.87 227.81 113.23 211.60 C 117.59 211.60 122.20 212.18 126.29 210.31 C 132.62 207.36 138.63 203.72 145.16 201.21 Z" fill="#7ae4fe" opacity="1.00" stroke="#7ae4fe" stroke-width="0.25" data-index="11"></path>

<path d="M 263.11 225.13 C 266.22 222.54 268.80 219.38 272.01 216.93 C 279.57 221.67 282.99 230.56 285.55 238.71 C 289.68 253.58 291.91 269.47 288.36 284.70 C 266.69 286.89 244.89 288.84 223.65 293.91 C 213.77 296.52 203.94 299.53 193.76 300.79 C 190.32 293.91 186.26 287.18 184.71 279.56 C 181.34 264.09 184.89 247.99 190.78 233.59 C 207.58 237.93 225.26 234.15 241.04 227.80 C 238.70 231.25 235.75 234.21 233.22 237.51 C 234.96 238.11 236.84 238.61 238.65 237.89 C 247.52 235.31 256.15 231.29 263.11 225.13 Z" fill="#fed3bd" opacity="1.00" stroke="#fed3bd" stroke-width="0.25" data-index="13"></path>
<path d="M 257.51 237.57 C 263.28 237.66 268.81 239.57 274.41 240.77 C 275.81 241.28 277.62 241.26 278.66 242.46 C 278.87 243.87 278.79 245.30 278.80 246.73 C 271.44 247.71 264.39 244.29 257.24 243.03 C 257.29 241.21 257.39 239.39 257.51 237.57 Z" fill="#053050" opacity="1.00" stroke="#053050" stroke-width="0.25" data-index="14"></path>
<path d="M 211.36 240.56 C 214.54 239.43 216.33 245.05 213.13 246.03 C 207.96 248.55 202.90 251.36 197.57 253.53 C 194.68 255.12 191.73 250.46 194.59 248.72 C 200.02 245.72 205.61 242.89 211.36 240.56 Z" fill="#053050" opacity="1.00" stroke="#053050" stroke-width="0.25" data-index="15"></path>
<path d="M 240.10 250.61 C 240.77 250.55 242.11 250.43 242.78 250.37 C 245.26 257.01 247.75 263.72 248.92 270.74 C 245.14 271.57 241.25 271.66 237.39 271.77 C 237.41 270.74 237.44 269.71 237.48 268.68 C 239.99 268.50 242.51 268.36 245.03 268.24 C 243.72 262.27 241.42 256.57 240.10 250.61 Z" fill="#053050" opacity="1.00" stroke="#053050" stroke-width="0.25" data-index="16"></path>
<path d="M 292.07 250.33 C 295.08 250.77 298.17 251.46 300.61 253.39 C 307.52 258.16 308.31 269.45 302.10 275.12 C 299.64 277.71 296.11 278.67 292.80 279.66 C 294.07 269.89 293.10 260.07 292.07 250.33 Z" fill="#fed3bd" opacity="1.00" stroke="#fed3bd" stroke-width="0.25" data-index="17"></path>
<path d="M 257.75 257.85 C 260.97 257.97 262.83 261.72 266.11 261.60 C 269.66 262.02 272.19 259.15 275.11 257.71 C 276.73 258.39 276.96 259.35 275.80 260.61 C 272.65 265.04 265.92 266.87 261.24 263.73 C 259.28 262.46 256.28 260.56 257.75 257.85 Z" fill="#053050" opacity="1.00" stroke="#053050" stroke-width="0.25" data-index="18"></path>
<path d="M 215.57 260.28 C 216.22 260.31 217.53 260.36 218.19 260.39 C 217.85 264.60 215.53 269.01 211.14 270.07 C 207.44 271.12 201.18 271.07 200.58 266.21 C 204.08 266.14 207.86 268.11 211.14 266.18 C 213.37 264.91 214.35 262.40 215.57 260.28 Z" fill="#053050" opacity="1.00" stroke="#053050" stroke-width="0.25" data-index="19"></path>
<path d="M 169.24 272.23 C 171.08 268.02 175.73 266.09 180.12 266.39 C 179.97 275.77 182.34 284.99 186.01 293.58 C 181.65 293.05 176.75 292.87 173.37 289.67 C 168.32 285.59 167.19 278.12 169.24 272.23 Z" fill="#fed3bd" opacity="1.00" stroke="#fed3bd" stroke-width="0.25" data-index="20"></path>
<path d="M 272.38 268.31 C 275.12 267.63 278.75 268.07 279.99 271.00 C 281.92 274.45 278.77 278.98 274.94 278.87 C 271.12 279.33 267.14 276.12 267.63 272.11 C 268.50 270.19 270.32 268.77 272.38 268.31 Z" fill="#fd917a" opacity="1.00" stroke="#fd917a" stroke-width="0.25" data-index="21"></path>
<path d="M 197.36 274.35 C 199.77 273.68 202.74 273.60 204.80 275.23 C 206.34 277.08 206.15 280.00 205.04 282.02 C 202.49 284.98 197.25 285.60 194.63 282.38 C 191.81 279.81 193.98 275.09 197.36 274.35 Z" fill="#fd917a" opacity="1.00" stroke="#fd917a" stroke-width="0.25" data-index="22"></path>
<path d="M 243.51 283.30 C 246.60 281.93 248.90 279.35 251.81 277.69 C 251.75 279.60 251.72 281.75 249.95 282.95 C 243.21 289.44 231.57 289.61 224.49 283.57 C 223.34 282.61 223.41 280.92 222.94 279.61 C 226.46 280.46 229.11 283.16 232.53 284.27 C 236.17 284.89 240.09 284.84 243.51 283.30 Z" fill="#053050" opacity="1.00" stroke="#053050" stroke-width="0.25" data-index="23"></path>
<path d="M 277.99 289.28 C 301.56 286.78 325.31 285.41 349.00 286.73 C 361.24 287.67 373.82 289.30 384.71 295.39 C 390.98 298.48 395.22 304.21 399.47 309.54 C 402.96 314.02 406.90 318.15 411.18 321.88 C 412.58 326.26 414.00 330.63 415.09 335.10 C 407.35 332.77 399.69 330.19 391.89 328.07 C 379.43 324.64 367.01 320.53 354.03 319.53 C 347.07 319.08 340.09 318.46 333.12 319.11 C 301.37 321.66 269.73 326.16 238.77 333.72 C 218.71 338.27 198.94 344.00 179.28 350.02 C 147.79 359.69 116.22 369.21 85.38 380.83 C 87.24 376.59 86.67 371.83 85.68 367.44 C 85.45 365.72 83.76 364.92 82.57 363.93 C 83.29 363.83 84.72 363.63 85.44 363.53 C 87.74 353.39 90.56 343.12 96.38 334.37 C 103.00 324.95 113.03 318.36 123.86 314.73 C 139.33 309.37 155.80 308.20 172.03 307.43 C 182.89 306.67 193.61 304.67 204.26 302.51 C 212.72 300.82 220.87 297.95 229.32 296.24 C 245.35 292.72 261.69 290.96 277.99 289.28 Z" fill="#b1effe" opacity="1.00" stroke="#b1effe" stroke-width="0.25" data-index="24" style="opacity: 1;"></path>
<path d="M 238.77 333.72 C 269.73 326.16 301.37 321.66 333.12 319.11 C 340.09 318.46 347.07 319.08 354.03 319.53 C 367.01 320.53 379.43 324.64 391.89 328.07 C 399.69 330.19 407.35 332.77 415.09 335.10 C 418.04 336.04 420.97 337.05 423.88 338.11 C 423.79 338.84 423.60 340.31 423.50 341.05 C 418.96 340.63 414.80 338.64 410.47 337.38 C 401.29 334.59 392.11 331.80 382.88 329.19 C 371.47 326.05 359.89 323.00 347.99 322.68 C 334.61 321.86 321.28 323.74 308.00 325.16 C 259.28 330.38 211.76 343.21 165.19 358.08 C 138.31 366.09 111.67 374.89 85.32 384.49 C 83.95 384.56 81.92 386.49 81.00 384.79 C 78.66 382.06 83.74 381.77 85.38 380.83 C 116.22 369.21 147.79 359.69 179.28 350.02 C 198.94 344.00 218.71 338.27 238.77 333.72 Z" fill="#053050" opacity="1.00" stroke="#053050" stroke-width="0.25" data-index="25"></path>
</svg>