<svg xmlns="http://www.w3.org/2000/svg" height="512pt" version="1.1" viewBox="0 0 512 512" width="512pt"><defs>
                <linearGradient id="grad-30" gradientTransform="rotate(186 0.5 0.5)">
                
                        <stop stop-color="#79413c" offset="0"></stop>
                    ,
                        <stop stop-color="#79413c" offset="0.5"></stop>
                    
                </linearGradient>
          </defs>
<path d="M 0.00 0.00 L 512.00 0.00 L 512.00 512.00 L 0.00 512.00 L 0.00 0.00 Z" fill="transparent" opacity="1.00" stroke="transparent" stroke-width="0.25" data-index="0" style="opacity: 1;"></path>
<path d="M 117.41 223.60 C 130.47 204.18 143.74 184.90 156.93 165.58 C 182.93 165.41 208.93 165.59 234.92 165.50 C 236.66 165.74 239.19 164.91 239.97 167.04 C 253.41 188.55 267.16 209.88 280.33 231.55 C 279.56 231.52 278.04 231.44 277.27 231.40 C 277.33 249.00 277.25 266.59 277.41 284.18 C 290.56 299.83 303.19 315.93 316.92 331.08 C 329.66 345.93 343.41 360.14 359.57 371.32 C 370.86 378.96 383.44 384.93 396.87 387.60 C 403.87 389.09 411.07 388.97 418.18 389.35 C 423.53 389.83 427.47 394.41 429.15 399.21 C 430.34 403.06 430.20 407.14 430.18 411.12 C 430.10 417.04 430.14 422.96 430.14 428.88 C 434.92 428.86 439.71 428.95 444.48 429.23 C 444.50 429.91 444.53 431.27 444.54 431.95 C 427.39 432.54 410.21 432.06 393.05 432.21 C 285.76 432.14 178.48 432.37 71.19 432.09 C 71.20 431.35 71.22 429.88 71.22 429.15 C 77.29 428.83 83.36 428.94 89.42 428.83 C 91.05 420.51 93.19 412.30 94.87 403.99 C 101.81 369.06 109.63 334.31 116.76 299.42 C 117.66 299.11 118.56 298.81 119.46 298.52 C 119.28 276.10 119.31 253.68 119.46 231.26 C 117.23 231.22 115.01 231.24 112.79 231.10 C 114.06 228.44 115.75 226.02 117.41 223.60 Z" fill="#04375d" opacity="1.00" stroke="#04375d" stroke-width="0.25" data-index="1" style="opacity: 1; visibility: visible;"></path>
<path d="M 165.79 179.26 C 163.71 175.45 161.25 171.79 159.94 167.61 C 185.82 167.56 211.69 167.71 237.57 167.50 C 242.82 174.69 247.10 182.55 251.98 190.00 C 260.43 202.97 268.35 216.27 276.63 229.35 C 249.00 229.44 221.36 229.33 193.73 229.41 C 184.64 212.57 174.96 196.06 165.79 179.26 Z" fill="#ffc10c" opacity="1.00" stroke="#ffc10c" stroke-width="0.25" data-index="2"></path>
<path d="M 158.73 171.73 C 161.56 174.30 162.86 177.98 164.72 181.22 C 174.03 198.03 183.50 214.75 192.74 231.61 C 196.52 231.61 200.28 231.27 204.04 230.92 C 207.57 230.89 211.07 231.58 214.60 231.62 C 215.05 233.71 215.45 235.83 215.44 237.99 C 215.33 251.64 215.38 265.29 215.45 278.94 C 215.45 281.56 215.03 284.16 214.58 286.75 C 212.47 284.08 210.75 280.94 207.90 278.98 C 205.57 278.29 203.15 278.04 200.76 277.67 C 200.11 278.28 199.47 278.89 198.84 279.51 C 198.64 281.58 198.44 283.65 198.25 285.73 C 198.60 289.23 198.73 292.76 198.71 296.28 C 199.17 296.75 200.07 297.68 200.53 298.14 C 199.57 299.09 198.61 300.04 197.65 301.00 C 197.64 343.56 197.65 386.13 197.56 428.69 C 193.85 428.82 190.13 428.79 186.42 428.61 C 186.39 385.69 186.25 342.76 186.49 299.84 C 185.97 299.55 184.92 298.96 184.40 298.67 L 184.40 298.46 C 184.49 278.32 184.45 258.17 184.47 238.03 C 184.40 229.35 179.96 221.10 173.02 215.96 C 167.45 211.05 159.49 210.66 152.51 211.82 C 144.44 213.83 137.57 220.06 134.70 227.86 C 132.56 232.95 132.37 238.55 132.49 243.99 C 132.64 262.17 132.35 280.35 132.57 298.53 C 129.00 298.66 125.40 298.85 121.86 298.28 C 121.63 296.88 121.50 295.48 121.47 294.06 C 121.51 273.38 121.49 252.70 121.48 232.02 C 121.45 230.18 121.80 228.33 122.88 226.80 C 134.59 208.28 147.12 190.31 158.73 171.73 Z" fill="#79413c" opacity="1.00" stroke="#79413c" stroke-width="0.25" data-index="3" style="opacity: 1; visibility: visible; fill: rgb(121, 65, 60); display: none;"></path>
<path d="M 152.51 211.82 C 159.49 210.66 167.45 211.05 173.02 215.96 C 179.96 221.10 184.40 229.35 184.47 238.03 C 184.45 258.17 184.49 278.32 184.40 298.46 C 167.13 298.69 149.85 298.44 132.57 298.53 C 132.35 280.35 132.64 262.17 132.49 243.99 C 132.37 238.55 132.56 232.95 134.70 227.86 C 137.57 220.06 144.44 213.83 152.51 211.82 Z" fill="#f75c2b" opacity="1.00" stroke="#f75c2b" stroke-width="0.25" data-index="4" style="opacity: 1; visibility: visible; fill: rgb(121, 65, 60); stroke: rgb(121, 65, 60);"></path>
<path d="M 154.38 223.92 C 154.43 223.59 154.54 222.93 154.60 222.60 C 158.60 222.36 162.86 222.27 166.43 224.41 C 172.28 227.60 176.04 234.30 175.62 240.96 C 175.31 247.98 176.32 255.15 174.69 262.06 C 174.01 262.27 172.65 262.68 171.97 262.89 C 171.24 270.26 172.07 277.69 171.55 285.08 C 169.26 285.83 167.06 286.88 165.29 288.55 C 162.64 288.71 160.04 288.21 157.55 287.32 C 157.53 286.86 157.50 285.93 157.48 285.46 C 157.27 278.92 156.31 272.41 156.29 265.86 L 156.72 263.56 C 157.52 264.55 158.65 265.50 158.43 266.94 C 158.51 273.12 158.27 279.31 158.38 285.51 C 160.48 286.32 162.59 287.10 164.72 287.87 C 165.96 281.06 165.26 274.11 165.42 267.24 C 166.53 267.23 167.64 267.22 168.75 267.22 C 167.93 272.98 166.10 279.73 169.31 285.02 C 170.45 276.89 168.65 268.61 170.49 260.55 C 171.25 260.54 172.75 260.52 173.50 260.52 C 173.48 258.87 173.47 257.22 173.46 255.58 C 163.43 255.59 153.39 255.37 143.36 255.67 L 141.37 255.87 C 141.43 250.26 141.29 244.64 141.42 239.03 C 141.21 232.01 146.47 225.60 152.97 223.44 C 153.29 223.64 153.94 224.02 154.26 224.21 C 154.27 224.40 154.30 224.76 154.31 224.95 C 148.97 226.70 144.29 231.15 143.47 236.88 C 142.80 242.39 143.26 247.95 143.17 253.48 C 153.35 253.51 163.53 253.45 173.71 253.55 C 173.25 245.29 175.76 235.36 169.18 228.85 C 165.50 224.57 159.60 224.16 154.35 224.15 L 154.38 223.92 Z" fill="#04375d" opacity="1.00" stroke="#04375d" stroke-width="0.25" data-index="5" style="opacity: 1; visibility: visible; fill: rgb(121, 65, 60); stroke: rgb(121, 65, 60);"></path>
<path d="M 154.26 224.21 L 154.38 223.92 L 154.35 224.15 C 159.60 224.16 165.50 224.57 169.18 228.85 C 175.76 235.36 173.25 245.29 173.71 253.55 C 163.53 253.45 153.35 253.51 143.17 253.48 C 143.26 247.95 142.80 242.39 143.47 236.88 C 144.29 231.15 148.97 226.70 154.31 224.95 C 154.30 224.76 154.27 224.40 154.26 224.21 Z" fill="#7fe8fe" opacity="1.00" stroke="#7fe8fe" stroke-width="0.25" data-index="6" style="opacity: 1;"></path>
<path d="M 255.35 231.19 C 256.68 230.16 258.46 230.86 259.98 230.92 C 264.80 231.73 269.70 231.49 274.57 231.35 C 274.60 247.64 274.93 263.94 274.43 280.22 C 272.73 278.03 271.24 275.66 269.26 273.71 C 268.00 273.17 266.04 272.82 265.38 274.39 C 262.57 278.96 263.80 284.66 263.59 289.75 C 260.81 290.02 257.61 291.47 255.03 289.95 C 254.57 288.01 254.55 286.01 254.53 284.03 C 254.62 270.04 254.63 256.04 254.58 242.04 C 254.62 238.43 254.24 234.69 255.35 231.19 Z" fill="#79413c" opacity="1.00" stroke="#79413c" stroke-width="0.25" data-index="7" style="opacity: 1; visibility: visible; fill: rgb(121, 65, 60);"></path>
<path d="M 202.92 232.27 C 204.35 232.23 205.79 232.20 207.22 232.17 C 207.50 247.09 207.50 262.02 207.25 276.94 C 205.70 276.74 204.15 276.54 202.61 276.35 C 202.81 261.66 202.42 246.95 202.92 232.27 Z" fill="#f75c2b" opacity="1.00" stroke="#f75c2b" stroke-width="0.25" data-index="8" style="visibility: visible; fill: rgb(121, 65, 60); opacity: 1; display: none;"></path>
<path d="M 217.36 290.14 C 217.38 270.60 217.24 251.05 217.39 231.50 C 229.34 231.62 241.30 231.47 253.25 231.55 C 253.25 250.98 253.10 270.41 253.32 289.84 C 241.35 290.46 229.35 289.92 217.36 290.14 Z" fill="#7fe8fe" opacity="1.00" stroke="#7fe8fe" stroke-width="0.25" data-index="9" style="opacity: 1;"></path>
<path d="M 256.28 232.29 C 257.68 232.12 259.09 232.29 260.49 232.37 C 260.30 251.49 260.54 270.61 260.33 289.73 C 258.97 289.08 255.43 290.49 255.76 288.06 C 255.40 272.39 255.83 256.69 255.61 241.01 C 255.61 238.10 255.42 235.12 256.28 232.29 Z" fill="#f75c2b" opacity="1.00" stroke="#f75c2b" stroke-width="0.25" data-index="10" style="opacity: 1; visibility: visible; fill: rgb(121, 65, 60); stroke: rgb(121, 65, 60);"></path>
<path d="M 143.36 255.67 C 153.39 255.37 163.43 255.59 173.46 255.58 C 173.47 257.22 173.48 258.87 173.50 260.52 C 172.75 260.52 171.25 260.54 170.49 260.55 C 168.65 268.61 170.45 276.89 169.31 285.02 C 166.10 279.73 167.93 272.98 168.75 267.22 C 167.64 267.22 166.53 267.23 165.42 267.24 C 165.26 274.11 165.96 281.06 164.72 287.87 C 162.59 287.10 160.48 286.32 158.38 285.51 C 158.27 279.31 158.51 273.12 158.43 266.94 C 158.65 265.50 157.52 264.55 156.72 263.56 L 156.29 265.86 C 154.65 266.19 152.98 266.40 151.33 266.64 C 150.90 272.86 152.03 279.25 150.54 285.35 C 149.21 285.22 147.88 285.06 146.56 284.87 C 146.49 277.89 146.52 270.90 146.48 263.91 C 145.51 263.38 144.56 262.86 143.60 262.34 C 143.52 260.11 143.45 257.89 143.36 255.67 Z" fill="#ffc10c" opacity="1.00" stroke="#ffc10c" stroke-width="0.25" data-index="11" style="opacity: 1; visibility: visible; fill: rgb(121, 65, 60); stroke: rgb(121, 65, 60);"></path>
<path d="M 141.37 255.87 L 143.36 255.67 C 143.45 257.89 143.52 260.11 143.60 262.34 C 144.56 262.86 145.51 263.38 146.48 263.91 C 146.52 270.90 146.49 277.89 146.56 284.87 C 147.88 285.06 149.21 285.22 150.54 285.35 C 152.03 279.25 150.90 272.86 151.33 266.64 C 152.98 266.40 154.65 266.19 156.29 265.86 C 156.31 272.41 157.27 278.92 157.48 285.46 C 154.28 285.31 151.59 287.14 148.92 288.63 C 147.23 287.52 145.18 286.73 144.03 284.99 C 143.31 278.96 144.14 272.86 143.60 266.81 C 140.34 264.17 140.85 259.56 141.37 255.87 Z" fill="#79413c" opacity="1.00" stroke="#79413c" stroke-width="0.25" data-index="12" style="opacity: 1; visibility: visible; fill: rgb(121, 65, 60); stroke: rgb(121, 65, 60);"></path>
<path d="M 219.28 292.46 L 219.63 291.93 C 234.26 291.78 248.90 291.79 263.53 292.18 C 279.67 311.45 295.68 330.83 312.59 349.43 C 326.36 364.11 340.76 378.61 358.24 388.89 C 372.59 397.52 389.00 403.96 405.99 403.42 C 409.22 402.90 411.70 405.97 412.24 408.86 C 412.53 412.51 412.30 416.17 412.34 419.84 C 394.81 419.87 377.27 419.85 359.74 419.85 C 359.68 411.14 360.90 400.76 353.55 394.38 C 348.46 388.86 340.49 391.50 333.96 390.50 C 313.44 387.86 295.38 376.27 280.22 362.76 C 262.34 346.59 247.17 327.72 232.13 308.95 C 227.85 303.45 223.29 298.15 219.28 292.46 Z" fill="#7fe8fe" opacity="1.00" stroke="#7fe8fe" stroke-width="0.25" data-index="13" style="opacity: 1;"></path>
<path d="M 118.96 300.50 C 122.89 300.23 126.83 300.09 130.78 300.21 C 129.95 309.26 126.96 317.95 126.03 327.00 C 139.49 326.90 152.95 326.84 166.41 326.56 C 168.33 318.01 169.36 309.21 171.93 300.85 C 175.87 299.86 179.99 300.56 184.00 300.61 C 182.38 311.90 179.53 322.94 177.36 334.12 C 170.92 365.72 164.22 397.26 157.48 428.79 C 153.38 429.26 149.26 428.96 145.17 428.55 C 146.43 420.08 148.56 411.77 149.87 403.31 C 138.97 401.90 127.92 403.03 116.96 402.59 C 114.40 402.87 110.09 401.67 109.27 405.08 C 107.11 412.89 106.26 421.02 103.78 428.76 C 99.90 429.37 95.95 429.30 92.08 428.64 C 92.79 419.95 95.30 411.55 97.03 403.04 C 104.23 368.84 111.20 334.58 118.96 300.50 Z" fill="#79413c" opacity="1.00" stroke="#79413c" stroke-width="0.25" data-index="14" style="opacity: 1;"></path>
<path d="M 132.85 302.57 C 144.92 302.67 156.99 302.59 169.06 302.59 C 167.82 310.03 166.24 317.41 164.63 324.79 C 152.46 324.71 140.30 324.81 128.13 324.68 C 129.72 317.32 131.34 309.96 132.85 302.57 Z" fill="#ffffff" opacity="1.00" stroke="#ffffff" stroke-width="0.25" data-index="15" style="opacity: 1;"></path>
<path d="M 199.51 428.86 C 199.53 386.76 199.50 344.66 199.54 302.56 C 199.77 334.91 199.22 367.28 199.81 399.62 C 207.91 399.61 215.97 398.65 224.07 398.62 C 236.10 398.31 248.13 398.59 260.16 398.41 C 260.19 408.55 260.15 418.69 260.19 428.84 C 239.97 429.11 219.74 428.97 199.51 428.86 Z" fill="#7fe8fe" opacity="1.00" stroke="#7fe8fe" stroke-width="0.25" data-index="16" style="opacity: 1; visibility: visible;"></path>
<path d="M 199.54 302.56 C 200.50 302.56 202.43 302.57 203.39 302.57 C 220.87 324.06 237.03 346.68 255.96 366.97 C 257.40 368.54 259.16 369.90 260.14 371.83 C 260.21 380.69 260.13 389.55 260.16 398.41 C 248.13 398.59 236.10 398.31 224.07 398.62 C 215.97 398.65 207.91 399.61 199.81 399.62 C 199.22 367.28 199.77 334.91 199.54 302.56 Z" fill="#ffffff" opacity="1.00" stroke="#ffffff" stroke-width="0.25" data-index="17" style="opacity: 1;"></path>
<path d="M 183.34 314.95 C 183.70 313.22 184.11 311.50 184.55 309.79 C 184.60 349.48 184.50 389.21 184.47 428.92 C 176.27 428.91 168.06 428.97 159.85 428.85 C 161.53 419.48 163.80 410.23 165.57 400.89 C 171.75 400.48 178.00 400.94 184.15 400.03 C 184.45 398.03 184.49 396.00 184.50 393.99 C 184.34 370.31 184.65 346.63 184.35 322.96 C 184.55 320.24 183.98 317.56 183.34 314.95 Z" fill="#7fe8fe" opacity="1.00" stroke="#7fe8fe" stroke-width="0.25" data-index="18" style="opacity: 1;"></path>
<path d="M 183.34 314.95 C 183.98 317.56 184.55 320.24 184.35 322.96 C 184.65 346.63 184.34 370.31 184.50 393.99 C 184.49 396.00 184.45 398.03 184.15 400.03 C 178.00 400.94 171.75 400.48 165.57 400.89 C 171.60 372.26 177.67 343.64 183.34 314.95 Z" fill="#ffffff" opacity="1.00" stroke="#ffffff" stroke-width="0.25" data-index="19" style="opacity: 1;"></path>
<path d="M 124.32 334.38 C 137.52 334.43 150.71 334.39 163.90 334.40 C 163.61 342.06 161.45 349.46 160.00 356.95 C 159.48 358.55 159.39 361.40 157.09 361.31 C 149.74 361.62 142.37 361.28 135.01 361.40 C 129.51 361.21 123.88 362.08 118.50 360.51 C 120.87 351.89 121.58 342.90 124.32 334.38 Z" fill="#04375d" opacity="1.00" stroke="#04375d" stroke-width="0.25" data-index="20" style="opacity: 1;"></path>
<path d="M 125.63 337.21 C 137.69 336.53 149.77 337.24 161.85 336.89 C 160.71 344.25 158.98 351.50 157.60 358.82 C 145.47 358.88 133.33 358.87 121.19 358.84 C 122.33 351.56 124.29 344.44 125.63 337.21 Z" fill="#ffffff" opacity="1.00" stroke="#ffffff" stroke-width="0.25" data-index="21" style="opacity: 1;"></path>
<path d="M 117.02 368.37 C 130.31 368.44 143.60 368.40 156.89 368.36 C 155.90 377.53 154.25 386.71 151.43 395.51 C 139.29 395.30 127.15 395.50 115.02 395.48 C 113.56 395.74 111.10 395.00 111.77 393.06 C 113.46 384.82 114.83 376.50 117.02 368.37 Z" fill="#04375d" opacity="1.00" stroke="#04375d" stroke-width="0.25" data-index="22" style="opacity: 1;"></path>
<path d="M 118.49 371.25 C 130.58 371.19 142.68 371.13 154.77 371.29 C 153.26 378.61 151.86 385.96 150.32 393.29 C 138.23 393.19 126.14 393.26 114.05 393.23 C 115.16 385.83 117.08 378.59 118.49 371.25 Z" fill="#ffffff" opacity="1.00" stroke="#ffffff" stroke-width="0.25" data-index="23" style="opacity: 1;"></path>
<path d="M 262.34 374.15 C 265.95 377.65 270.88 380.23 273.04 384.93 C 273.89 390.56 273.19 396.28 273.36 401.95 C 273.15 410.91 273.94 419.92 272.62 428.82 C 269.20 429.35 265.74 429.17 262.34 428.60 C 262.21 410.45 262.14 392.30 262.34 374.15 Z" fill="#79413c" opacity="1.00" stroke="#79413c" stroke-width="0.25" data-index="24" style="opacity: 1;"></path>
<path d="M 275.24 389.05 C 275.12 387.76 275.48 386.53 276.07 385.41 L 276.00 386.27 C 275.63 390.34 275.40 394.42 275.45 398.50 C 280.74 398.63 286.04 398.78 291.33 398.58 C 290.97 398.05 290.23 396.98 289.86 396.45 C 303.01 404.57 317.46 411.22 332.97 412.97 C 335.95 413.59 339.98 413.13 341.81 416.12 C 342.57 420.27 341.99 424.54 342.26 428.75 C 333.19 429.58 324.08 428.61 314.99 429.06 C 301.77 429.05 288.55 428.97 275.33 428.87 C 275.27 415.60 275.38 402.32 275.24 389.05 Z" fill="#7fe8fe" opacity="1.00" stroke="#7fe8fe" stroke-width="0.25" data-index="25" style="opacity: 1;"></path>
<path d="M 275.45 398.50 C 275.40 394.42 275.63 390.34 276.00 386.27 C 280.39 389.99 285.28 393.00 289.86 396.45 C 290.23 396.98 290.97 398.05 291.33 398.58 C 286.04 398.78 280.74 398.63 275.45 398.50 Z" fill="#ffffff" opacity="1.00" stroke="#ffffff" stroke-width="0.25" data-index="26" style="opacity: 1;"></path>
<path d="M 93.05 409.41 C 93.66 407.60 94.27 405.80 94.87 403.99 C 93.19 412.30 91.05 420.51 89.42 428.83 C 83.36 428.94 77.29 428.83 71.22 429.15 C 71.22 429.88 71.20 431.35 71.19 432.09 C 178.48 432.37 285.76 432.14 393.05 432.21 C 410.21 432.06 427.39 432.54 444.54 431.95 C 444.53 431.27 444.50 429.91 444.48 429.23 C 439.71 428.95 434.92 428.86 430.14 428.88 C 430.14 422.96 430.10 417.04 430.18 411.12 C 443.48 413.09 457.15 415.53 468.91 422.42 C 471.55 423.67 472.43 426.98 471.37 429.59 C 469.84 431.94 467.29 433.36 464.85 434.58 C 455.53 439.08 445.22 440.77 435.15 442.71 C 421.01 446.21 406.43 447.29 392.00 449.01 C 377.00 450.39 362.03 452.38 346.95 452.61 C 339.66 453.53 332.31 453.46 324.99 453.70 C 311.01 454.80 296.96 454.26 282.98 455.26 C 268.00 455.16 252.97 456.14 238.03 454.73 C 220.37 454.58 202.67 454.86 185.03 453.64 C 173.00 453.50 161.05 451.84 149.02 451.57 C 136.83 450.36 124.58 449.79 112.42 448.22 C 99.51 447.17 86.84 444.36 74.08 442.29 C 63.04 440.30 51.67 438.03 42.11 431.84 C 38.92 429.88 39.25 424.53 42.46 422.74 C 48.09 419.10 54.52 416.91 60.95 415.16 C 71.48 412.48 82.22 410.33 93.05 409.41 Z" fill="#7fe8fe" opacity="1.00" stroke="#7fe8fe" stroke-width="0.25" data-index="27" style="opacity: 1; visibility: visible;"></path>
<path d="M 111.40 405.13 C 123.47 405.44 135.54 405.45 147.61 405.43 C 145.88 413.30 144.35 421.21 142.72 429.10 C 130.61 428.95 118.50 428.83 106.39 428.91 C 107.85 420.94 109.88 413.09 111.40 405.13 Z" fill="#7fe8fe" opacity="1.00" stroke="#7fe8fe" stroke-width="0.25" data-index="28" style="opacity: 1;"></path>
<path d="M 359.75 422.15 C 377.28 422.22 394.80 422.15 412.33 422.20 C 412.33 424.51 412.33 426.83 412.33 429.14 C 394.81 429.01 377.29 429.30 359.78 428.96 C 359.74 426.69 359.73 424.42 359.75 422.15 Z" fill="#7fe8fe" opacity="1.00" stroke="#7fe8fe" stroke-width="0.25" data-index="29"></path>
<path d="M158.73,171.73c2.83,2.57 4.13,6.25 5.99,9.49c9.31,16.81 18.78,33.53 28.02,50.39c3.78,0 7.54,-0.34 11.3,-0.69c3.53,-0.03 7.03,0.66 10.56,0.7c0.45,2.09 0.85,4.21 0.84,6.37c-0.11,13.65 -0.06,27.3 0.01,40.95c0,2.62 -0.42,5.22 -0.87,7.81c-2.11,-2.67 -3.83,-5.81 -6.68,-7.77c-2.33,-0.69 -4.75,-0.94 -7.14,-1.31c-0.65,0.61 -1.29,1.22 -1.92,1.84c-0.2,2.07 -0.4,4.14 -0.59,6.22c0.35,3.5 0.48,7.03 0.46,10.55c0.46,0.47 1.36,1.4 1.82,1.86c-0.96,0.95 -1.92,1.9 -2.88,2.86c-0.01,42.56 0,85.13 -0.09,127.69c-3.71,0.13 -7.43,0.1 -11.14,-0.08c-0.03,-42.92 -0.17,-85.85 0.07,-128.77c-0.52,-0.29 -1.57,-0.88 -2.09,-1.17v-0.21c0.09,-20.14 0.05,-40.29 0.07,-60.43c-0.07,-8.68 -4.51,-16.93 -11.45,-22.07c-5.57,-4.91 -13.53,-5.3 -20.51,-4.14c-8.07,2.01 -14.94,8.24 -17.81,16.04c-2.14,5.09 -2.33,10.69 -2.21,16.13c0.15,18.18 -0.14,36.36 0.08,54.54c-3.57,0.13 -7.17,0.32 -10.71,-0.25c-0.23,-1.4 -0.36,-2.8 -0.39,-4.22c0.04,-20.68 0.02,-41.36 0.01,-62.04c-0.03,-1.84 0.32,-3.69 1.4,-5.22c11.71,-18.52 24.24,-36.49 35.85,-55.07z" id="path-8 1" fill="url(#grad-30)" fill-rule="nonzero" stroke="url(#grad-30)" stroke-width="0.25" stroke-linecap="butt" stroke-linejoin="miter" stroke-miterlimit="10" stroke-dasharray="" stroke-dashoffset="0" font-family="none" font-weight="none" font-size="none" text-anchor="none" style="mix-blend-mode: normal; opacity: 1;" data-index="30"></path></svg>