<?xml version="1.0" encoding="utf-8"?>
<svg xmlns="http://www.w3.org/2000/svg" height="512pt" version="1.1" viewBox="0 0 512 512" width="512pt">
<path d="M 0.00 0.00 L 512.00 0.00 L 512.00 512.00 L 0.00 512.00 L 0.00 0.00 Z" fill="transparent" opacity="1.00" stroke="transparent" stroke-width="0.25"/>
<path d="M 253.62 141.58 C 275.08 128.89 300.06 122.25 324.99 122.60 C 351.34 122.89 377.68 130.63 399.53 145.47 C 424.60 162.02 443.91 187.14 453.30 215.68 C 466.43 255.80 459.72 302.32 434.25 336.23 C 424.53 349.99 411.82 361.50 397.76 370.71 C 380.51 381.88 360.61 388.71 340.27 391.33 C 311.88 394.93 282.49 389.19 257.34 375.61 C 236.25 363.84 218.08 346.73 205.72 325.92 C 200.12 327.99 194.99 331.06 189.97 334.24 C 191.59 338.86 195.00 343.51 193.56 348.63 C 192.34 353.07 187.70 354.97 184.10 357.13 C 152.33 375.31 120.69 393.70 88.95 411.93 C 84.45 414.54 79.61 418.29 74.08 416.99 C 69.33 415.99 66.55 411.60 64.31 407.69 C 60.77 401.24 56.55 395.14 53.64 388.36 C 51.89 384.56 52.55 379.60 55.83 376.83 C 59.38 373.87 63.64 371.96 67.60 369.63 C 99.38 351.39 131.24 333.27 162.88 314.79 C 166.60 312.50 171.27 310.24 175.57 312.39 C 178.62 315.20 180.48 319.01 182.99 322.28 C 188.40 319.68 193.59 316.63 198.80 313.65 C 196.55 306.77 193.40 300.18 191.84 293.09 C 186.39 272.31 185.50 250.19 190.16 229.18 C 197.54 192.67 221.66 160.39 253.62 141.58 Z" fill="#9fe4fc" opacity="1.00" stroke="#9fe4fc" stroke-width="0.25"/>
<path d="M 312.41 156.46 C 334.73 154.09 357.96 158.99 377.06 170.91 C 396.42 182.37 411.45 200.79 419.28 221.84 C 426.42 240.11 427.41 260.47 423.33 279.58 C 418.03 302.27 405.12 323.33 386.36 337.35 C 370.48 349.58 351.01 357.16 330.96 358.34 C 320.88 358.65 310.64 358.69 300.79 356.21 C 279.54 351.52 259.84 339.88 245.62 323.39 C 237.20 314.45 231.55 303.30 227.03 291.99 C 217.76 266.14 219.50 236.49 231.94 211.98 C 246.93 181.36 278.51 159.76 312.41 156.46 Z" fill="#ffffff" opacity="1.00" stroke="#ffffff" stroke-width="0.25"/>
<path d="M 380.12 195.17 C 381.27 193.93 383.53 193.88 383.60 196.00 C 378.10 201.40 371.85 206.00 366.09 211.13 C 364.36 212.50 364.20 214.84 363.67 216.82 C 362.78 221.28 361.82 225.73 361.22 230.24 C 364.22 225.78 366.01 220.56 369.47 216.40 C 372.21 215.50 375.16 216.85 377.91 217.31 C 380.70 218.16 383.93 218.28 386.30 220.11 C 386.28 220.65 386.25 221.74 386.23 222.28 C 381.03 222.17 376.19 219.67 371.03 219.55 C 368.23 224.20 365.68 229.05 363.42 233.97 C 366.68 242.30 370.60 250.41 373.12 259.01 C 371.44 258.74 369.78 258.40 368.14 258.02 C 368.26 259.77 368.34 261.52 368.33 263.28 C 364.14 261.57 361.03 258.18 357.45 255.53 C 353.39 252.46 349.78 248.85 346.07 245.38 C 345.32 247.43 344.88 249.71 343.42 251.40 C 341.13 253.75 337.76 254.41 334.65 254.85 C 334.98 256.00 335.28 257.16 335.73 258.27 C 339.52 262.13 344.41 264.90 347.73 269.22 C 350.75 275.30 351.79 282.17 354.75 288.28 C 357.28 291.72 360.54 294.54 363.72 297.36 C 363.62 298.03 363.44 299.38 363.34 300.05 C 359.40 297.70 355.62 294.84 352.78 291.21 C 349.62 284.97 347.82 278.14 345.45 271.58 C 341.39 265.56 332.63 263.09 331.36 255.24 C 329.26 255.66 327.16 256.11 325.07 256.56 C 325.49 260.30 326.11 264.03 327.16 267.65 C 328.70 272.80 331.66 277.38 333.46 282.43 C 334.98 288.13 334.85 294.13 336.12 299.88 C 337.88 302.85 341.81 303.90 343.54 307.00 C 343.19 307.38 342.51 308.15 342.17 308.53 C 339.15 306.75 336.23 304.71 333.66 302.33 C 331.94 297.35 331.98 291.96 331.13 286.80 C 330.66 281.81 327.70 277.61 325.86 273.08 C 323.73 268.40 323.13 263.24 321.59 258.38 C 319.29 266.40 316.93 274.40 314.71 282.44 C 313.01 292.51 312.56 302.76 310.99 312.84 C 310.64 314.60 309.70 314.96 308.18 313.94 C 308.17 306.26 309.62 298.66 310.39 291.04 C 311.08 279.77 315.31 269.18 318.33 258.41 C 317.47 258.47 315.74 258.57 314.88 258.62 C 313.04 262.79 312.15 267.55 309.29 271.17 C 304.97 273.88 299.75 275.32 296.24 279.20 C 290.52 285.51 285.08 292.07 279.47 298.48 C 275.98 302.38 272.95 306.78 268.73 309.96 C 268.59 309.24 268.31 307.82 268.18 307.11 C 273.75 299.78 280.18 293.13 286.09 286.07 C 290.73 281.12 294.41 274.75 300.89 271.98 C 303.05 270.80 305.54 270.08 307.41 268.43 C 309.17 265.40 310.28 262.02 311.22 258.66 C 307.18 260.16 304.84 264.03 301.39 266.41 C 291.17 273.61 280.45 280.05 270.13 287.09 C 267.05 289.07 264.03 291.28 260.46 292.26 C 260.44 291.57 260.41 290.19 260.39 289.50 C 272.37 281.81 284.23 273.95 296.13 266.14 C 284.32 268.70 271.22 269.80 260.29 263.63 C 259.35 257.28 263.03 251.58 267.12 247.11 C 276.21 237.31 291.93 234.01 303.97 240.06 C 300.38 235.32 295.53 230.62 289.25 230.37 C 276.19 233.42 263.46 238.02 250.27 240.49 C 250.30 239.76 250.37 238.30 250.41 237.58 C 262.52 234.35 274.56 230.87 286.70 227.73 C 290.83 226.39 295.08 228.23 298.59 230.35 C 304.06 233.54 307.13 239.32 310.57 244.39 C 314.71 242.83 319.15 242.49 323.41 241.44 C 326.87 237.34 331.15 232.85 337.00 233.11 C 340.26 232.73 342.95 234.83 345.22 236.89 C 346.89 235.01 348.37 232.84 350.61 231.59 C 352.86 230.25 355.56 230.29 358.07 229.84 C 358.61 225.14 359.66 220.52 360.64 215.90 C 361.22 213.63 361.56 211.06 363.42 209.42 C 368.74 204.40 374.51 199.86 380.12 195.17 Z" fill="#093b60" opacity="1.00" stroke="#093b60" stroke-width="0.25"/>
<path d="M 88.47 376.32 C 89.60 376.29 90.72 376.25 91.85 376.23 C 91.25 378.82 90.53 381.38 89.91 383.98 C 92.45 385.20 95.08 386.24 97.66 387.38 C 97.67 388.02 97.68 389.31 97.69 389.95 C 94.66 389.43 91.64 388.00 88.55 388.38 C 87.06 390.77 85.81 393.32 83.95 395.47 C 83.51 392.47 83.73 389.44 83.66 386.42 C 81.70 385.20 79.51 384.43 77.39 383.55 C 77.36 382.93 77.32 381.69 77.29 381.07 C 80.15 381.59 82.96 382.36 85.80 382.93 C 86.70 380.73 87.60 378.53 88.47 376.32 Z" fill="#ffffff" opacity="1.00" stroke="#ffffff" stroke-width="0.25"/>
</svg>