<svg xmlns="http://www.w3.org/2000/svg" height="512pt" version="1.1" viewBox="0 0 512 512" width="512pt">

<path d="M 216.74 57.76 C 218.02 57.40 219.34 57.18 220.66 56.92 C 221.42 64.69 220.05 72.40 219.09 80.08 C 218.64 82.57 218.53 85.66 216.06 87.09 C 214.06 86.80 214.17 84.56 213.99 83.02 C 213.79 78.06 214.90 73.18 215.37 68.27 C 215.80 64.77 215.84 61.19 216.74 57.76 Z" fill="#e8f7fc" opacity="1.00" stroke="#e8f7fc" stroke-width="0.25" data-index="1" style="visibility: hidden; opacity: 1;"></path>

<path d="M 300.20 85.19 C 301.51 85.17 302.82 85.16 304.13 85.15 C 303.62 93.13 300.21 100.56 296.38 107.45 C 295.45 109.63 293.03 109.78 290.99 110.02 C 291.48 106.86 292.45 103.79 293.97 100.97 C 296.61 95.94 298.26 90.50 300.20 85.19 Z" fill="#e7f6fb" opacity="1.00" stroke="#e7f6fb" stroke-width="0.25" data-index="3" style="visibility: hidden; opacity: 1;"></path>

<path d="M 243.08 97.46 C 248.33 102.23 246.64 109.75 246.80 116.02 C 246.58 120.74 247.74 126.66 242.97 129.56 C 241.13 122.48 242.40 115.15 241.81 107.95 C 241.46 104.40 241.93 100.83 243.08 97.46 Z" fill="#e6f6fc" opacity="1.00" stroke="#e6f6fc" stroke-width="0.25" data-index="5" style="visibility: hidden; opacity: 1;"></path>

<path d="M 313.33 129.32 C 315.38 125.42 317.29 120.71 322.05 119.55 C 321.84 123.48 320.76 127.33 318.70 130.70 C 315.86 135.52 313.36 140.57 310.09 145.12 C 308.95 146.87 306.58 146.62 304.82 147.21 C 306.40 140.70 310.41 135.24 313.33 129.32 Z" fill="#e7f6fa" opacity="1.00" stroke="#e7f6fa" stroke-width="0.25" data-index="7" style="visibility: hidden; opacity: 1;"></path>

<path d="M 219.96 154.29 C 221.01 153.88 222.06 153.48 223.11 153.07 C 226.55 159.82 227.59 167.48 227.64 174.98 C 227.67 176.79 226.19 178.06 225.28 179.48 C 220.80 171.89 221.51 162.70 219.96 154.29 Z" fill="#eaf7fb" opacity="1.00" stroke="#eaf7fb" stroke-width="0.25" data-index="9" style="visibility: hidden; opacity: 1;"></path>

<path d="M 336.66 164.04 C 337.92 164.25 339.19 164.45 340.45 164.75 C 341.16 168.79 339.70 172.79 338.64 176.64 C 336.64 182.83 334.57 189.05 331.87 194.97 C 331.20 196.94 328.69 196.45 327.10 197.04 C 327.37 193.47 328.21 189.96 329.66 186.68 C 332.76 179.40 335.26 171.84 336.66 164.04 Z" fill="#e7f6fa" opacity="1.00" stroke="#e7f6fa" stroke-width="0.25" data-index="11" style="visibility: hidden; opacity: 1;"></path>

<path d="M 171.05 187.58 C 172.60 188.34 174.72 188.76 175.27 190.67 C 177.36 195.88 178.15 201.52 180.28 206.72 C 182.20 211.46 184.35 216.15 185.14 221.25 C 183.66 220.93 182.17 220.68 180.74 220.19 C 179.25 218.48 178.56 216.26 177.73 214.19 C 174.64 205.58 171.26 196.85 171.05 187.58 Z" fill="#e8f6fb" opacity="1.00" stroke="#e8f6fb" stroke-width="0.25" data-index="13" style="visibility: hidden; opacity: 1;"></path>

<path d="M 216.06 207.48 C 220.16 211.65 220.59 217.70 221.80 223.11 C 222.45 226.67 223.50 230.20 223.49 233.85 C 223.75 235.67 221.49 235.64 220.36 236.36 C 217.91 229.11 215.66 221.73 214.78 214.10 C 214.45 211.80 215.32 209.60 216.06 207.48 Z" fill="#e6f6fb" opacity="1.00" stroke="#e6f6fb" stroke-width="0.25" data-index="15" style="visibility: hidden; opacity: 1;"></path>

<path d="M 345.31 216.22 C 346.56 216.16 347.81 216.11 349.07 216.06 C 349.52 223.83 346.22 231.06 342.79 237.83 C 342.02 239.90 339.64 239.81 337.84 240.27 C 339.10 231.89 343.92 224.59 345.31 216.22 Z" fill="#e7f6fb" opacity="1.00" stroke="#e7f6fb" stroke-width="0.25" data-index="17" style="visibility: hidden; opacity: 1;"></path>

<path d="M 199.08 225.41 C 200.72 226.55 202.72 227.53 203.36 229.59 C 205.26 234.24 206.27 239.19 207.99 243.91 C 210.15 250.67 213.63 257.10 214.08 264.31 C 212.68 263.90 211.24 263.62 209.91 263.03 C 208.52 260.89 207.83 258.40 206.96 256.02 C 204.45 248.58 201.54 241.28 199.23 233.77 C 198.28 231.06 198.56 228.17 199.08 225.41 Z" fill="#e7f6fb" opacity="1.00" stroke="#e7f6fb" stroke-width="0.25" data-index="19" style="opacity: 1; visibility: hidden;"></path>

<path d="M 234.19 232.41 C 235.43 232.30 236.68 232.20 237.92 232.09 C 240.34 240.67 240.37 249.63 241.57 258.41 C 241.83 261.38 242.30 264.49 241.36 267.39 C 239.85 269.07 238.21 266.82 237.77 265.38 C 236.88 262.19 236.79 258.85 236.44 255.57 C 235.79 247.84 234.07 240.20 234.19 232.41 Z" fill="#e8f6fb" opacity="1.00" stroke="#e8f6fb" stroke-width="0.25" data-index="21" style="visibility: hidden; opacity: 1;"></path>

<path d="M 330.67 262.71 C 331.50 261.09 333.59 261.23 335.07 260.62 C 334.72 268.31 331.40 275.36 329.82 282.80 C 328.63 286.73 328.29 291.36 325.05 294.25 C 322.96 293.47 322.88 291.01 323.17 289.15 C 323.82 284.52 325.55 280.13 326.63 275.60 C 327.83 271.27 328.48 266.69 330.67 262.71 Z" fill="#e7f6fb" opacity="1.00" stroke="#e7f6fb" stroke-width="0.25" data-index="23" style="visibility: hidden; opacity: 1;"></path>

<path d="M 249.00 298.99 C 254.14 293.46 261.66 289.02 269.47 290.36 C 275.69 291.61 281.63 294.44 286.43 298.62 C 288.77 300.64 291.31 302.40 293.79 304.25 C 297.77 307.25 300.68 311.34 303.71 315.24 C 308.76 321.61 315.68 326.06 322.08 330.93 C 327.71 335.09 334.63 336.71 341.26 338.53 C 348.13 340.35 355.61 341.22 361.40 345.71 C 368.46 350.61 373.49 357.75 378.13 364.85 C 381.87 370.36 386.77 375.00 392.17 378.86 C 396.85 382.05 402.39 383.52 407.71 385.27 C 414.79 387.53 420.50 392.49 427.15 395.64 C 426.95 395.87 426.55 396.33 426.35 396.56 C 426.10 396.86 425.60 397.47 425.35 397.77 C 419.26 395.00 414.19 390.27 407.72 388.31 C 401.85 386.48 395.78 384.81 390.63 381.32 C 382.56 375.74 376.56 367.83 371.17 359.75 C 366.13 352.08 358.65 345.54 349.55 343.41 C 339.67 340.95 329.17 339.31 320.68 333.28 C 313.38 328.08 305.83 322.87 300.48 315.53 C 297.31 311.06 293.30 307.29 288.84 304.13 C 285.33 301.49 282.05 298.50 278.16 296.42 C 272.58 293.45 265.60 291.61 259.63 294.57 C 253.08 297.31 249.38 303.91 243.20 307.21 C 238.73 309.96 233.35 310.92 229.11 314.09 C 220.90 320.86 213.86 328.98 207.97 337.85 C 202.12 344.09 194.32 349.00 185.64 349.72 C 183.96 349.95 182.44 349.08 180.96 348.45 C 184.92 347.02 189.18 346.60 193.09 344.99 C 196.61 343.62 199.75 341.49 202.82 339.33 C 195.77 339.86 188.88 337.97 181.86 338.10 C 175.48 338.59 169.06 340.86 164.49 345.48 C 160.66 349.34 156.87 353.33 152.16 356.15 C 148.62 357.87 144.87 359.07 141.08 360.12 C 133.64 362.19 126.56 365.67 120.61 370.63 C 115.61 374.96 111.10 379.83 106.79 384.85 L 106.33 385.38 C 105.73 384.96 104.53 384.14 103.93 383.73 C 111.34 374.86 119.52 366.13 130.14 361.13 C 137.66 357.15 146.74 356.87 153.70 351.73 C 157.44 349.19 160.22 345.56 163.51 342.52 C 171.02 336.08 181.48 333.95 191.09 335.77 C 196.74 337.18 203.03 336.19 207.79 332.80 C 211.84 328.49 214.73 323.15 219.29 319.29 C 223.35 316.04 226.34 311.37 231.31 309.36 C 237.65 306.80 244.35 304.25 249.00 298.99 Z" fill="#062a42" opacity="1.00" stroke="#062a42" stroke-width="0.25" data-index="25" style="opacity: 1;"></path>
<path d="M 259.63 294.57 C 265.60 291.61 272.58 293.45 278.16 296.42 C 279.36 300.95 281.69 305.02 283.76 309.19 C 287.49 317.08 286.18 326.12 284.44 334.35 C 283.14 340.02 282.22 346.00 279.08 351.02 C 277.98 352.50 276.39 354.72 274.27 353.80 C 268.38 352.21 263.81 347.56 257.78 346.34 C 249.68 344.78 241.42 347.40 234.46 351.48 C 227.63 355.04 220.35 359.37 212.35 358.57 C 211.47 355.44 213.50 352.68 215.28 350.33 C 217.97 346.89 220.69 343.48 223.04 339.80 C 218.28 342.34 214.18 345.99 209.28 348.26 C 208.11 349.09 206.69 348.43 205.93 347.39 C 205.73 344.10 207.03 340.94 207.97 337.85 C 213.86 328.98 220.90 320.86 229.11 314.09 C 233.35 310.92 238.73 309.96 243.20 307.21 C 249.38 303.91 253.08 297.31 259.63 294.57 Z" fill="#fefffe" opacity="1.00" stroke="#fefffe" stroke-width="0.25" data-index="26" style="opacity: 1;"></path>
<path d="M 278.16 296.42 C 282.05 298.50 285.33 301.49 288.84 304.13 C 293.30 307.29 297.31 311.06 300.48 315.53 C 305.83 322.87 313.38 328.08 320.68 333.28 C 329.17 339.31 339.67 340.95 349.55 343.41 C 358.65 345.54 366.13 352.08 371.17 359.75 C 376.56 367.83 382.56 375.74 390.63 381.32 C 395.78 384.81 401.85 386.48 407.72 388.31 C 414.19 390.27 419.26 395.00 425.35 397.77 C 427.70 398.89 430.13 399.82 432.57 400.73 C 428.46 405.28 424.28 411.06 417.62 411.58 C 408.87 412.34 400.10 409.59 391.38 411.38 C 384.63 412.30 378.86 416.18 372.49 418.24 C 362.57 420.85 352.41 417.00 342.39 418.43 C 335.05 419.47 327.53 420.53 320.79 423.83 C 317.49 425.25 314.05 427.33 310.32 426.58 C 302.82 425.19 296.08 420.38 288.26 420.63 C 281.83 421.07 277.50 426.37 274.11 431.29 C 272.34 430.04 270.57 427.82 268.15 428.50 C 261.01 430.40 254.09 433.24 246.76 434.43 C 242.64 435.12 238.40 434.14 234.32 435.15 C 236.53 434.29 238.57 433.05 240.58 431.82 C 234.47 426.68 226.20 428.89 218.98 428.88 C 212.74 429.06 207.53 425.23 202.05 422.85 C 195.49 419.74 188.02 419.03 180.86 419.87 C 176.34 420.28 171.78 421.39 167.24 420.64 C 161.83 419.31 157.75 414.88 152.26 413.75 C 149.09 413.20 145.91 414.08 142.79 414.61 C 144.00 416.29 145.22 417.96 146.45 419.64 C 140.43 421.72 134.11 423.18 127.70 422.31 C 127.74 420.91 127.78 419.51 127.81 418.11 C 123.77 416.45 119.57 415.17 115.61 413.31 C 110.92 411.13 110.08 404.71 105.11 402.90 C 97.77 399.82 89.85 405.02 82.53 401.81 C 92.10 399.17 100.02 392.84 106.33 385.38 L 106.79 384.85 C 106.76 385.79 106.73 386.74 106.70 387.69 C 110.70 390.87 114.51 394.43 116.99 398.96 C 119.65 403.50 122.58 408.90 128.24 409.97 C 133.75 411.56 138.05 407.01 142.27 404.31 C 146.67 401.07 152.46 400.33 157.71 401.48 C 165.89 403.07 172.17 409.88 180.68 410.35 C 189.91 410.93 199.25 408.89 208.41 410.73 C 212.56 411.60 215.95 414.27 219.29 416.72 C 226.71 422.22 235.62 426.13 244.96 426.35 C 255.07 426.62 265.43 425.11 274.59 420.64 C 281.16 417.52 287.23 413.17 294.40 411.47 C 306.57 408.44 319.23 411.74 331.47 409.52 C 341.08 407.81 346.98 398.25 356.69 396.88 C 364.91 395.87 373.20 397.98 380.63 401.44 C 388.49 405.11 397.88 406.54 406.07 403.10 C 407.71 402.32 409.83 401.14 409.70 399.03 C 409.48 395.89 407.96 392.56 405.23 390.86 C 398.41 389.57 391.08 392.54 384.52 389.39 C 373.76 384.70 367.55 374.29 360.56 365.46 C 356.93 360.60 351.24 358.09 345.69 356.13 C 339.44 353.84 332.92 350.96 326.10 352.06 C 320.57 352.81 315.99 357.16 314.36 362.40 C 312.40 368.57 312.63 375.25 310.21 381.29 C 307.83 387.29 303.79 392.82 298.22 396.20 C 293.16 399.30 286.35 399.89 281.14 396.81 C 277.64 394.75 274.62 392.02 271.33 389.68 C 267.54 386.90 263.31 384.17 261.32 379.71 C 258.43 373.43 256.40 366.78 254.27 360.21 C 259.44 361.57 261.89 366.71 265.97 369.67 C 271.15 374.67 277.12 380.36 284.87 379.99 C 290.14 379.64 292.77 374.38 295.56 370.63 C 297.29 375.18 298.97 380.43 297.10 385.18 C 293.05 389.97 286.09 388.27 280.62 388.83 C 282.45 392.41 286.77 391.49 290.04 391.37 C 294.62 391.05 298.77 388.42 300.99 384.42 C 302.64 381.96 304.40 379.18 303.95 376.08 C 303.29 370.02 299.77 364.45 300.42 358.22 C 301.31 349.45 303.82 340.79 303.15 331.91 C 302.96 329.42 301.45 327.33 300.25 325.24 C 299.02 329.27 298.33 333.44 297.17 337.49 C 295.79 342.17 292.23 345.72 290.05 350.01 C 287.37 354.85 286.26 360.47 283.03 365.01 C 281.18 367.99 276.87 367.41 274.43 365.54 C 269.75 361.92 267.10 356.14 261.86 353.17 C 258.41 351.14 254.21 351.71 250.49 352.56 C 246.05 353.65 241.66 354.95 237.31 356.37 C 231.26 358.34 225.90 361.96 219.81 363.82 C 212.34 366.30 204.40 366.39 196.72 367.81 C 187.97 369.55 178.86 370.64 171.01 375.18 C 174.12 377.84 177.57 380.07 180.70 382.71 L 181.51 383.55 C 177.14 384.14 172.62 384.66 168.28 383.70 C 161.75 381.67 159.00 374.03 152.58 371.91 C 144.43 371.41 136.28 374.47 128.13 372.66 C 128.08 372.26 127.97 371.46 127.91 371.06 C 134.33 366.16 143.03 366.06 149.67 361.58 C 151.49 360.38 151.63 358.05 152.16 356.15 C 156.87 353.33 160.66 349.34 164.49 345.48 C 169.06 340.86 175.48 338.59 181.86 338.10 C 181.04 341.48 180.41 344.98 180.96 348.45 C 182.44 349.08 183.96 349.95 185.64 349.72 C 194.32 349.00 202.12 344.09 207.97 337.85 C 207.03 340.94 205.73 344.10 205.93 347.39 C 206.69 348.43 208.11 349.09 209.28 348.26 C 214.18 345.99 218.28 342.34 223.04 339.80 C 220.69 343.48 217.97 346.89 215.28 350.33 C 213.50 352.68 211.47 355.44 212.35 358.57 C 220.35 359.37 227.63 355.04 234.46 351.48 C 241.42 347.40 249.68 344.78 257.78 346.34 C 263.81 347.56 268.38 352.21 274.27 353.80 C 276.39 354.72 277.98 352.50 279.08 351.02 C 282.22 346.00 283.14 340.02 284.44 334.35 C 286.18 326.12 287.49 317.08 283.76 309.19 C 281.69 305.02 279.36 300.95 278.16 296.42 Z" fill="#e0f7fe" opacity="1.00" stroke="#e0f7fe" stroke-width="0.25" data-index="27" style="opacity: 1;"></path>
<path d="M 300.25 325.24 C 301.45 327.33 302.96 329.42 303.15 331.91 C 303.82 340.79 301.31 349.45 300.42 358.22 C 299.77 364.45 303.29 370.02 303.95 376.08 C 304.40 379.18 302.64 381.96 300.99 384.42 C 300.80 382.02 300.77 379.61 300.44 377.24 C 299.73 372.58 297.04 368.50 296.33 363.85 C 295.74 359.54 297.35 355.36 297.54 351.08 C 291.93 355.84 292.96 364.49 295.56 370.63 C 292.77 374.38 290.14 379.64 284.87 379.99 C 277.12 380.36 271.15 374.67 265.97 369.67 C 265.45 363.92 260.81 359.35 255.54 357.59 C 249.66 356.50 243.48 357.60 238.10 360.13 C 232.60 362.70 229.37 368.63 223.46 370.51 C 213.59 373.73 203.11 373.97 192.96 375.79 C 188.24 376.60 183.47 378.62 180.70 382.71 C 177.57 380.07 174.12 377.84 171.01 375.18 C 178.86 370.64 187.97 369.55 196.72 367.81 C 204.40 366.39 212.34 366.30 219.81 363.82 C 225.90 361.96 231.26 358.34 237.31 356.37 C 241.66 354.95 246.05 353.65 250.49 352.56 C 254.21 351.71 258.41 351.14 261.86 353.17 C 267.10 356.14 269.75 361.92 274.43 365.54 C 276.87 367.41 281.18 367.99 283.03 365.01 C 286.26 360.47 287.37 354.85 290.05 350.01 C 292.23 345.72 295.79 342.17 297.17 337.49 C 298.33 333.44 299.02 329.27 300.25 325.24 Z" fill="#c7ebf9" opacity="1.00" stroke="#c7ebf9" stroke-width="0.25" data-index="28"></path>
<path d="M 181.86 338.10 C 188.88 337.97 195.77 339.86 202.82 339.33 C 199.75 341.49 196.61 343.62 193.09 344.99 C 189.18 346.60 184.92 347.02 180.96 348.45 C 180.41 344.98 181.04 341.48 181.86 338.10 Z" fill="#fafdfe" opacity="1.00" stroke="#fafdfe" stroke-width="0.25" data-index="29"></path>
<path d="M 306.63 344.03 C 307.06 340.04 311.68 338.84 315.04 339.82 C 318.51 340.67 322.12 341.04 325.47 342.34 C 325.54 342.81 325.68 343.76 325.74 344.23 C 321.69 344.56 317.85 342.72 313.83 342.42 C 311.29 341.97 309.02 343.48 306.63 344.03 Z" fill="#042a44" opacity="1.00" stroke="#042a44" stroke-width="0.25" data-index="30"></path>
<path d="M 295.56 370.63 C 292.96 364.49 291.93 355.84 297.54 351.08 C 297.35 355.36 295.74 359.54 296.33 363.85 C 297.04 368.50 299.73 372.58 300.44 377.24 C 300.77 379.61 300.80 382.02 300.99 384.42 C 298.77 388.42 294.62 391.05 290.04 391.37 C 286.77 391.49 282.45 392.41 280.62 388.83 C 286.09 388.27 293.05 389.97 297.10 385.18 C 298.97 380.43 297.29 375.18 295.56 370.63 Z" fill="#042a44" opacity="1.00" stroke="#042a44" stroke-width="0.25" data-index="31"></path>
<path d="M 314.36 362.40 C 315.99 357.16 320.57 352.81 326.10 352.06 C 332.92 350.96 339.44 353.84 345.69 356.13 C 351.24 358.09 356.93 360.60 360.56 365.46 C 367.55 374.29 373.76 384.70 384.52 389.39 C 391.08 392.54 398.41 389.57 405.23 390.86 C 407.96 392.56 409.48 395.89 409.70 399.03 C 409.83 401.14 407.71 402.32 406.07 403.10 C 397.88 406.54 388.49 405.11 380.63 401.44 C 373.20 397.98 364.91 395.87 356.69 396.88 C 346.98 398.25 341.08 407.81 331.47 409.52 C 319.23 411.74 306.57 408.44 294.40 411.47 C 287.23 413.17 281.16 417.52 274.59 420.64 C 265.43 425.11 255.07 426.62 244.96 426.35 C 235.62 426.13 226.71 422.22 219.29 416.72 C 215.95 414.27 212.56 411.60 208.41 410.73 C 199.25 408.89 189.91 410.93 180.68 410.35 C 172.17 409.88 165.89 403.07 157.71 401.48 C 152.46 400.33 146.67 401.07 142.27 404.31 C 138.05 407.01 133.75 411.56 128.24 409.97 C 122.58 408.90 119.65 403.50 116.99 398.96 C 114.51 394.43 110.70 390.87 106.70 387.69 C 106.73 386.74 106.76 385.79 106.79 384.85 C 111.10 379.83 115.61 374.96 120.61 370.63 C 126.56 365.67 133.64 362.19 141.08 360.12 C 144.87 359.07 148.62 357.87 152.16 356.15 C 151.63 358.05 151.49 360.38 149.67 361.58 C 143.03 366.06 134.33 366.16 127.91 371.06 C 127.97 371.46 128.08 372.26 128.13 372.66 C 136.28 374.47 144.43 371.41 152.58 371.91 C 159.00 374.03 161.75 381.67 168.28 383.70 C 172.62 384.66 177.14 384.14 181.51 383.55 C 185.06 382.16 188.24 379.87 192.02 379.07 C 202.45 376.80 213.31 376.64 223.56 373.46 C 228.06 372.16 231.46 368.86 234.80 365.76 C 240.00 360.96 247.42 359.69 254.27 360.21 C 256.40 366.78 258.43 373.43 261.32 379.71 C 263.31 384.17 267.54 386.90 271.33 389.68 C 274.62 392.02 277.64 394.75 281.14 396.81 C 286.35 399.89 293.16 399.30 298.22 396.20 C 303.79 392.82 307.83 387.29 310.21 381.29 C 312.63 375.25 312.40 368.57 314.36 362.40 Z" fill="#fefffe" opacity="1.00" stroke="#fefffe" stroke-width="0.25" data-index="32" style="opacity: 1;"></path>
<path d="M 238.10 360.13 C 243.48 357.60 249.66 356.50 255.54 357.59 C 260.81 359.35 265.45 363.92 265.97 369.67 C 261.89 366.71 259.44 361.57 254.27 360.21 C 247.42 359.69 240.00 360.96 234.80 365.76 C 231.46 368.86 228.06 372.16 223.56 373.46 C 213.31 376.64 202.45 376.80 192.02 379.07 C 188.24 379.87 185.06 382.16 181.51 383.55 L 180.70 382.71 C 183.47 378.62 188.24 376.60 192.96 375.79 C 203.11 373.97 213.59 373.73 223.46 370.51 C 229.37 368.63 232.60 362.70 238.10 360.13 Z" fill="#082e49" opacity="1.00" stroke="#082e49" stroke-width="0.25" data-index="33"></path>
<path d="M 88.40 396.40 C 94.71 393.78 99.30 388.54 103.93 383.73 C 104.53 384.14 105.73 384.96 106.33 385.38 C 100.02 392.84 92.10 399.17 82.53 401.81 C 74.65 404.18 66.28 404.76 58.64 407.92 C 66.26 412.43 75.50 411.48 83.98 411.25 C 90.33 411.10 96.78 409.36 103.08 410.76 C 108.71 412.47 106.47 419.69 109.65 423.39 C 115.55 426.37 121.67 422.36 127.70 422.31 C 134.11 423.18 140.43 421.72 146.45 419.64 C 149.46 419.26 152.95 418.84 155.39 421.06 C 155.64 424.57 155.18 428.08 155.29 431.60 C 160.81 431.44 165.73 428.90 170.69 426.80 C 180.87 423.44 192.30 423.65 202.20 427.89 C 210.19 430.74 217.25 436.63 226.05 436.81 C 228.92 437.09 231.72 436.29 234.32 435.15 C 238.40 434.14 242.64 435.12 246.76 434.43 C 254.09 433.24 261.01 430.40 268.15 428.50 C 270.57 427.82 272.34 430.04 274.11 431.29 C 275.49 432.13 276.77 434.18 278.61 433.51 C 281.16 432.20 282.93 429.82 285.30 428.23 C 288.46 428.15 291.66 428.52 294.79 429.00 C 300.39 430.67 304.89 434.73 310.39 436.65 C 312.65 437.62 314.34 435.16 316.08 434.12 C 321.91 429.21 329.30 426.98 336.31 424.36 C 339.89 422.89 343.80 423.26 347.53 423.84 C 353.73 426.66 360.04 429.60 366.96 430.06 C 374.39 430.49 382.53 431.20 389.24 427.33 C 389.66 424.50 388.80 421.66 388.63 418.84 C 391.24 417.75 393.96 416.03 396.90 416.73 C 401.21 417.81 405.36 419.99 409.94 419.60 C 418.55 419.67 426.17 415.23 433.52 411.29 C 433.56 409.61 433.59 407.93 433.68 406.26 C 438.60 406.15 443.53 406.29 448.45 405.97 C 443.17 404.18 437.79 402.68 432.57 400.73 C 430.13 399.82 427.70 398.89 425.35 397.77 C 425.60 397.47 426.10 396.86 426.35 396.56 C 426.55 396.33 426.95 395.87 427.15 395.64 C 434.85 398.54 442.61 401.38 450.66 403.18 C 453.11 403.70 455.53 404.31 457.88 405.20 C 457.23 406.13 456.56 407.05 455.87 407.96 C 450.10 409.46 444.13 409.07 438.25 409.21 C 434.85 413.37 430.58 416.63 425.65 418.80 C 422.38 419.94 419.12 421.16 415.72 421.86 C 410.83 422.82 405.71 422.59 401.00 420.90 C 397.99 420.00 394.57 418.31 391.56 420.18 C 391.54 422.78 391.97 425.36 392.23 427.96 C 389.35 431.71 384.47 432.67 380.03 433.03 C 371.25 433.65 362.13 433.20 353.95 429.68 C 350.58 428.33 347.25 426.69 343.61 426.26 C 339.54 425.88 335.68 427.50 331.97 428.94 C 325.64 431.52 318.95 434.13 314.41 439.49 C 313.02 439.61 311.65 439.78 310.27 439.94 C 306.32 437.69 302.30 435.56 298.30 433.41 C 294.72 431.20 290.35 431.17 286.29 431.46 C 283.65 432.93 281.46 435.06 279.07 436.88 C 278.15 436.78 277.23 436.72 276.31 436.71 C 273.93 434.86 271.83 432.43 268.93 431.39 C 262.79 432.87 256.92 435.38 250.71 436.62 C 246.86 437.59 242.88 437.67 238.94 437.54 C 234.48 437.14 230.51 440.07 226.03 439.61 C 216.97 439.78 209.86 433.43 201.58 430.82 C 191.95 426.38 180.56 426.08 170.67 429.86 C 168.57 430.73 166.56 431.79 164.52 432.78 C 160.72 434.33 156.61 434.64 152.70 433.31 C 152.51 429.56 152.55 425.81 152.59 422.06 C 145.48 421.76 139.13 425.94 132.04 425.52 C 128.19 425.29 124.28 425.30 120.63 426.73 C 116.66 427.48 112.39 427.89 108.54 426.35 C 105.82 425.18 105.71 421.80 105.08 419.32 C 104.66 417.39 104.26 415.41 103.26 413.69 C 99.03 412.20 94.50 413.32 90.16 413.53 C 79.48 414.55 68.20 415.41 58.09 411.06 C 57.89 410.79 57.51 410.25 57.32 409.97 C 55.28 408.19 57.13 404.89 59.38 404.38 C 68.97 401.45 79.23 400.71 88.40 396.40 Z" fill="#05304c" opacity="1.00" stroke="#05304c" stroke-width="0.25" data-index="34"></path>
<path d="M 432.57 400.73 C 437.79 402.68 443.17 404.18 448.45 405.97 C 443.53 406.29 438.60 406.15 433.68 406.26 C 433.59 407.93 433.56 409.61 433.52 411.29 C 426.17 415.23 418.55 419.67 409.94 419.60 C 405.36 419.99 401.21 417.81 396.90 416.73 C 393.96 416.03 391.24 417.75 388.63 418.84 C 388.58 418.30 388.46 417.21 388.40 416.66 C 380.79 418.79 374.34 424.97 366.03 424.20 C 359.87 423.80 353.70 423.02 347.53 423.84 C 343.80 423.26 339.89 422.89 336.31 424.36 C 329.30 426.98 321.91 429.21 316.08 434.12 C 314.34 435.16 312.65 437.62 310.39 436.65 C 304.89 434.73 300.39 430.67 294.79 429.00 C 291.66 428.52 288.46 428.15 285.30 428.23 C 282.93 429.82 281.16 432.20 278.61 433.51 C 276.77 434.18 275.49 432.13 274.11 431.29 C 277.50 426.37 281.83 421.07 288.26 420.63 C 296.08 420.38 302.82 425.19 310.32 426.58 C 314.05 427.33 317.49 425.25 320.79 423.83 C 327.53 420.53 335.05 419.47 342.39 418.43 C 352.41 417.00 362.57 420.85 372.49 418.24 C 378.86 416.18 384.63 412.30 391.38 411.38 C 400.10 409.59 408.87 412.34 417.62 411.58 C 424.28 411.06 428.46 405.28 432.57 400.73 Z" fill="#cbecf9" opacity="1.00" stroke="#cbecf9" stroke-width="0.25" data-index="35" style="opacity: 1;"></path>
<path d="M 58.64 407.92 C 66.28 404.76 74.65 404.18 82.53 401.81 C 89.85 405.02 97.77 399.82 105.11 402.90 C 110.08 404.71 110.92 411.13 115.61 413.31 C 119.57 415.17 123.77 416.45 127.81 418.11 C 127.78 419.51 127.74 420.91 127.70 422.31 C 121.67 422.36 115.55 426.37 109.65 423.39 C 106.47 419.69 108.71 412.47 103.08 410.76 C 96.78 409.36 90.33 411.10 83.98 411.25 C 75.50 411.48 66.26 412.43 58.64 407.92 Z" fill="#cdeef9" opacity="1.00" stroke="#cdeef9" stroke-width="0.25" data-index="36"></path>
<path d="M 457.88 405.20 C 457.92 405.95 457.96 406.71 458.01 407.47 C 458.51 407.45 459.51 407.41 460.01 407.39 C 460.71 409.59 461.46 411.77 462.17 413.96 C 456.33 415.39 450.34 415.94 444.38 416.60 C 438.15 417.30 432.92 421.09 427.02 422.86 C 421.44 424.61 415.95 427.00 410.04 427.26 C 405.59 427.53 401.18 426.78 396.81 426.09 C 403.02 426.16 409.21 425.53 415.40 425.03 C 415.50 423.97 415.61 422.91 415.72 421.86 C 419.12 421.16 422.38 419.94 425.65 418.80 C 427.88 418.66 430.16 418.82 432.35 418.26 C 436.12 416.72 438.69 412.72 442.99 412.41 C 447.27 411.97 451.59 411.98 455.88 411.60 C 455.51 410.84 455.16 410.09 454.80 409.34 C 455.07 409.00 455.60 408.31 455.87 407.96 C 456.56 407.05 457.23 406.13 457.88 405.20 Z" fill="#bfe4f8" opacity="1.00" stroke="#bfe4f8" stroke-width="0.25" data-index="37"></path>
<path d="M 460.01 407.39 C 463.70 407.57 467.61 407.39 471.02 409.02 C 473.16 410.32 472.57 413.24 473.01 415.36 C 467.12 416.33 461.36 417.96 455.81 420.16 C 458.41 422.16 461.02 424.16 463.59 426.23 C 453.20 428.47 442.50 427.96 431.98 429.14 C 422.45 429.67 412.99 431.12 403.80 433.71 C 407.89 435.16 412.08 436.27 416.26 437.43 C 412.31 438.89 408.13 439.71 403.91 439.56 C 388.03 438.84 372.10 439.32 356.25 440.43 C 341.97 442.12 327.74 444.18 313.41 445.48 C 301.97 446.93 290.35 447.91 278.87 446.26 C 275.05 445.91 270.96 444.66 267.28 446.35 C 264.01 447.74 260.65 449.02 257.07 449.27 C 248.20 450.12 239.24 450.42 230.35 449.68 C 227.43 449.62 225.11 447.77 222.87 446.14 C 220.48 444.30 217.49 443.60 214.65 442.81 C 228.29 442.15 242.01 441.58 255.40 438.59 C 257.15 438.30 258.91 438.02 260.68 437.83 C 276.88 441.80 293.77 440.90 310.27 439.94 C 311.65 439.78 313.02 439.61 314.41 439.49 C 321.25 438.98 328.08 438.37 334.90 437.69 C 341.99 437.01 347.15 431.31 353.95 429.68 C 362.13 433.20 371.25 433.65 380.03 433.03 C 384.47 432.67 389.35 431.71 392.23 427.96 C 392.85 427.21 393.47 426.46 394.08 425.72 C 394.99 425.84 395.89 425.97 396.81 426.09 C 401.18 426.78 405.59 427.53 410.04 427.26 C 415.95 427.00 421.44 424.61 427.02 422.86 C 432.92 421.09 438.15 417.30 444.38 416.60 C 450.34 415.94 456.33 415.39 462.17 413.96 C 461.46 411.77 460.71 409.59 460.01 407.39 Z" fill="#e0f3fc" opacity="1.00" stroke="#e0f3fc" stroke-width="0.25" data-index="38" style="opacity: 1;"></path>
<path d="M 438.25 409.21 C 444.13 409.07 450.10 409.46 455.87 407.96 C 455.60 408.31 455.07 409.00 454.80 409.34 C 455.16 410.09 455.51 410.84 455.88 411.60 C 451.59 411.98 447.27 411.97 442.99 412.41 C 438.69 412.72 436.12 416.72 432.35 418.26 C 430.16 418.82 427.88 418.66 425.65 418.80 C 430.58 416.63 434.85 413.37 438.25 409.21 Z" fill="#a3d3f1" opacity="1.00" stroke="#a3d3f1" stroke-width="0.25" data-index="39"></path>
<path d="M 57.32 409.97 C 57.51 410.25 57.89 410.79 58.09 411.06 C 58.38 411.47 58.98 412.28 59.28 412.69 C 57.37 413.31 55.47 413.94 53.55 414.49 C 52.97 414.38 51.83 414.17 51.26 414.07 C 51.71 415.87 52.15 417.66 52.58 419.47 C 53.84 419.92 55.10 420.38 56.37 420.80 C 47.69 421.69 38.94 419.69 30.49 417.86 C 37.69 410.79 48.99 414.70 57.32 409.97 Z" fill="#e3f3fb" opacity="1.00" stroke="#e3f3fb" stroke-width="0.25" data-index="40"></path>
<path d="M 58.09 411.06 C 68.20 415.41 79.48 414.55 90.16 413.53 C 94.50 413.32 99.03 412.20 103.26 413.69 C 104.26 415.41 104.66 417.39 105.08 419.32 C 101.91 418.33 98.98 420.03 96.12 421.14 C 86.90 419.91 77.60 419.82 68.31 420.02 C 68.75 419.07 69.18 418.12 69.62 417.18 C 64.17 416.89 58.81 415.85 53.55 414.49 C 55.47 413.94 57.37 413.31 59.28 412.69 C 58.98 412.28 58.38 411.47 58.09 411.06 Z" fill="#a6d6f0" opacity="1.00" stroke="#a6d6f0" stroke-width="0.25" data-index="41"></path>
<path d="M 142.79 414.61 C 145.91 414.08 149.09 413.20 152.26 413.75 C 157.75 414.88 161.83 419.31 167.24 420.64 C 171.78 421.39 176.34 420.28 180.86 419.87 C 188.02 419.03 195.49 419.74 202.05 422.85 C 207.53 425.23 212.74 429.06 218.98 428.88 C 226.20 428.89 234.47 426.68 240.58 431.82 C 238.57 433.05 236.53 434.29 234.32 435.15 C 231.72 436.29 228.92 437.09 226.05 436.81 C 217.25 436.63 210.19 430.74 202.20 427.89 C 192.30 423.65 180.87 423.44 170.69 426.80 C 165.73 428.90 160.81 431.44 155.29 431.60 C 155.18 428.08 155.64 424.57 155.39 421.06 C 152.95 418.84 149.46 419.26 146.45 419.64 C 145.22 417.96 144.00 416.29 142.79 414.61 Z" fill="#ccedf9" opacity="1.00" stroke="#ccedf9" stroke-width="0.25" data-index="42"></path>
<path d="M 51.26 414.07 C 51.83 414.17 52.97 414.38 53.55 414.49 C 58.81 415.85 64.17 416.89 69.62 417.18 C 69.18 418.12 68.75 419.07 68.31 420.02 C 77.60 419.82 86.90 419.91 96.12 421.14 C 91.72 422.92 86.94 423.35 82.24 423.42 C 76.04 423.54 70.08 421.45 63.93 421.09 C 61.41 420.90 58.88 421.07 56.37 420.80 C 55.10 420.38 53.84 419.92 52.58 419.47 C 52.15 417.66 51.71 415.87 51.26 414.07 Z" fill="#c4e5f6" opacity="1.00" stroke="#c4e5f6" stroke-width="0.25" data-index="43"></path>
<path d="M 366.03 424.20 C 374.34 424.97 380.79 418.79 388.40 416.66 C 388.46 417.21 388.58 418.30 388.63 418.84 C 388.80 421.66 389.66 424.50 389.24 427.33 C 382.53 431.20 374.39 430.49 366.96 430.06 C 360.04 429.60 353.73 426.66 347.53 423.84 C 353.70 423.02 359.87 423.80 366.03 424.20 Z" fill="#dcf6fd" opacity="1.00" stroke="#dcf6fd" stroke-width="0.25" data-index="44"></path>
<path d="M 96.12 421.14 C 98.98 420.03 101.91 418.33 105.08 419.32 C 105.71 421.80 105.82 425.18 108.54 426.35 C 112.39 427.89 116.66 427.48 120.63 426.73 C 126.91 427.54 133.25 427.54 139.56 427.04 C 139.40 428.60 139.25 430.17 139.09 431.74 C 143.64 432.12 148.21 432.43 152.70 433.31 C 156.61 434.64 160.72 434.33 164.52 432.78 C 169.43 433.22 174.35 433.53 179.29 433.46 C 176.12 435.26 172.97 437.08 169.84 438.95 C 176.25 439.01 182.62 438.29 189.02 438.15 C 197.07 437.99 204.46 441.72 212.30 442.89 C 206.85 443.18 201.34 442.77 195.93 443.76 C 184.66 445.69 173.26 446.88 161.99 448.84 C 158.17 449.42 154.37 450.21 150.50 450.42 C 146.97 450.69 143.78 448.84 140.74 447.30 C 139.39 445.62 138.66 442.54 136.02 442.81 C 127.99 442.78 119.96 442.00 111.94 442.65 C 108.02 443.17 104.79 440.42 101.02 440.01 C 98.70 439.47 96.17 440.06 93.94 439.19 C 93.33 437.37 93.72 435.38 93.20 433.54 C 87.33 431.90 81.09 433.16 75.11 432.02 C 75.21 431.43 75.42 430.25 75.52 429.66 C 76.90 428.76 78.27 427.84 79.64 426.93 C 74.39 425.02 69.05 423.33 63.93 421.09 C 70.08 421.45 76.04 423.54 82.24 423.42 C 86.94 423.35 91.72 422.92 96.12 421.14 Z" fill="#e0f3fc" opacity="1.00" stroke="#e0f3fc" stroke-width="0.25" data-index="45" style="opacity: 1;"></path>
<path d="M 391.56 420.18 C 394.57 418.31 397.99 420.00 401.00 420.90 C 405.71 422.59 410.83 422.82 415.72 421.86 C 415.61 422.91 415.50 423.97 415.40 425.03 C 409.21 425.53 403.02 426.16 396.81 426.09 C 395.89 425.97 394.99 425.84 394.08 425.72 C 393.47 426.46 392.85 427.21 392.23 427.96 C 391.97 425.36 391.54 422.78 391.56 420.18 Z" fill="#9fd1ef" opacity="1.00" stroke="#9fd1ef" stroke-width="0.25" data-index="46"></path>
<path d="M 132.04 425.52 C 139.13 425.94 145.48 421.76 152.59 422.06 C 152.55 425.81 152.51 429.56 152.70 433.31 C 148.21 432.43 143.64 432.12 139.09 431.74 C 139.25 430.17 139.40 428.60 139.56 427.04 C 133.25 427.54 126.91 427.54 120.63 426.73 C 124.28 425.30 128.19 425.29 132.04 425.52 Z" fill="#aad9f4" opacity="1.00" stroke="#aad9f4" stroke-width="0.25" data-index="47"></path>
<path d="M 331.97 428.94 C 335.68 427.50 339.54 425.88 343.61 426.26 C 347.25 426.69 350.58 428.33 353.95 429.68 C 347.15 431.31 341.99 437.01 334.90 437.69 C 328.08 438.37 321.25 438.98 314.41 439.49 C 318.95 434.13 325.64 431.52 331.97 428.94 Z" fill="#c3e5f6" opacity="1.00" stroke="#c3e5f6" stroke-width="0.25" data-index="48" style="opacity: 1;"></path>
<path d="M 170.67 429.86 C 180.56 426.08 191.95 426.38 201.58 430.82 C 195.10 432.14 188.51 431.05 181.98 430.93 C 178.19 430.83 174.41 430.50 170.67 429.86 Z" fill="#9cd2f1" opacity="1.00" stroke="#9cd2f1" stroke-width="0.25" data-index="49" style="opacity: 1;"></path>
<path d="M 164.52 432.78 C 166.56 431.79 168.57 430.73 170.67 429.86 C 174.41 430.50 178.19 430.83 181.98 430.93 C 188.51 431.05 195.10 432.14 201.58 430.82 C 209.86 433.43 216.97 439.78 226.03 439.61 C 230.51 440.07 234.48 437.14 238.94 437.54 C 242.88 437.67 246.86 437.59 250.71 436.62 C 250.99 437.37 251.28 438.14 251.58 438.90 C 252.85 438.80 254.12 438.72 255.40 438.59 C 242.01 441.58 228.29 442.15 214.65 442.81 C 214.06 442.83 212.89 442.87 212.30 442.89 C 204.46 441.72 197.07 437.99 189.02 438.15 C 182.62 438.29 176.25 439.01 169.84 438.95 C 172.97 437.08 176.12 435.26 179.29 433.46 C 174.35 433.53 169.43 433.22 164.52 432.78 Z" fill="#bfe2f6" opacity="1.00" stroke="#bfe2f6" stroke-width="0.25" data-index="50" style="opacity: 1;"></path>
<path d="M 250.71 436.62 C 256.92 435.38 262.79 432.87 268.93 431.39 C 271.83 432.43 273.93 434.86 276.31 436.71 C 271.09 436.92 265.86 437.12 260.68 437.83 C 258.91 438.02 257.15 438.30 255.40 438.59 C 254.12 438.72 252.85 438.80 251.58 438.90 C 251.28 438.14 250.99 437.37 250.71 436.62 Z" fill="#9ed3f0" opacity="1.00" stroke="#9ed3f0" stroke-width="0.25" data-index="51"></path>
<path d="M 286.29 431.46 C 290.35 431.17 294.72 431.20 298.30 433.41 C 296.53 434.14 294.75 434.89 293.00 435.66 C 291.73 437.13 291.22 440.04 288.85 439.92 C 285.35 439.94 282.22 438.16 279.07 436.88 C 281.46 435.06 283.65 432.93 286.29 431.46 Z" fill="#9cd1ee" opacity="1.00" stroke="#9cd1ee" stroke-width="0.25" data-index="52"></path>
<path d="M 293.00 435.66 C 294.75 434.89 296.53 434.14 298.30 433.41 C 302.30 435.56 306.32 437.69 310.27 439.94 C 293.77 440.90 276.88 441.80 260.68 437.83 C 265.86 437.12 271.09 436.92 276.31 436.71 C 277.23 436.72 278.15 436.78 279.07 436.88 C 282.22 438.16 285.35 439.94 288.85 439.92 C 291.22 440.04 291.73 437.13 293.00 435.66 Z" fill="#bce3f5" opacity="1.00" stroke="#bce3f5" stroke-width="0.25" data-index="53"></path>
</svg>