<?xml version="1.0" encoding="utf-8"?>
<svg xmlns="http://www.w3.org/2000/svg" height="512pt" version="1.1" viewBox="0 0 512 512" width="512pt">
<path d="M 0.00 0.00 L 512.00 0.00 L 512.00 512.00 L 0.00 512.00 L 0.00 0.00 Z" fill="transparent" opacity="1.00" stroke="transparent" stroke-width="0.25"/>
<path d="M 243.18 158.21 C 248.59 153.08 253.82 147.64 260.13 143.59 C 256.06 147.41 253.96 152.71 252.64 158.03 C 253.77 167.08 260.23 173.85 264.73 181.34 C 273.24 192.87 280.00 206.45 280.44 221.03 C 280.89 227.38 280.42 233.73 279.52 240.02 C 285.87 232.06 289.59 222.49 294.92 213.89 C 294.61 218.36 292.89 222.58 292.62 227.05 C 291.53 235.35 295.75 243.44 293.80 251.73 C 291.30 264.11 283.61 275.24 273.50 282.71 C 270.46 284.94 267.45 287.23 264.13 289.05 C 263.94 287.76 263.76 286.47 263.61 285.19 C 268.51 282.89 272.41 278.98 276.24 275.25 C 283.94 267.50 290.05 257.19 289.85 245.96 C 290.00 241.87 288.97 237.88 288.21 233.89 C 285.34 239.01 281.18 243.25 276.60 246.87 C 276.14 238.94 278.36 231.03 276.89 223.12 C 276.17 208.11 269.71 194.02 260.98 182.00 C 256.58 174.61 249.27 168.14 249.16 158.94 C 245.78 159.97 243.84 163.16 241.93 165.89 C 237.48 173.17 233.98 181.33 233.76 189.98 C 233.16 197.54 234.75 205.05 234.54 212.60 C 234.07 214.72 233.48 216.81 233.09 218.95 C 230.39 204.78 228.05 189.70 232.65 175.66 C 234.84 169.18 238.54 163.21 243.18 158.21 Z" fill="#e36b36" opacity="1.00" stroke="#e36b36" stroke-width="0.25"/>
<path d="M 260.52 196.95 C 269.84 217.55 270.19 241.03 266.38 262.98 C 268.36 261.37 270.47 259.92 272.79 258.85 C 273.50 268.79 268.34 277.77 262.81 285.59 L 262.19 284.28 C 262.21 284.91 262.26 286.18 262.28 286.81 C 261.77 287.27 260.76 288.19 260.25 288.64 C 259.40 288.72 257.72 288.88 256.87 288.96 C 257.35 287.56 257.86 286.19 258.35 284.80 C 263.04 279.73 266.09 273.31 267.98 266.72 C 265.96 268.00 264.01 269.41 262.11 270.87 C 263.28 259.28 265.55 247.66 264.06 235.98 C 262.82 227.61 261.45 218.88 256.62 211.73 C 255.04 216.01 255.66 220.75 253.98 225.01 C 251.02 233.33 245.13 240.09 240.56 247.52 C 237.99 251.67 236.33 256.28 234.83 260.91 C 232.73 259.53 230.60 258.22 228.42 257.00 C 227.76 265.38 228.18 274.15 232.23 281.72 C 233.89 285.38 237.09 287.95 239.84 290.76 C 238.14 290.58 236.44 290.47 234.75 290.21 C 233.36 288.57 231.53 287.44 229.74 286.29 C 229.78 285.99 229.86 285.38 229.91 285.08 C 229.94 284.83 230.00 284.34 230.03 284.09 C 228.91 282.48 227.53 280.88 227.32 278.85 C 226.21 270.27 226.01 261.60 226.55 252.97 C 226.56 251.16 227.93 249.86 228.86 248.46 C 230.22 250.58 231.59 252.71 232.95 254.84 C 234.88 248.43 239.32 243.31 242.92 237.80 C 246.11 232.79 249.38 227.71 251.10 221.97 C 252.95 214.96 250.89 207.86 250.17 200.88 C 255.17 203.62 259.90 207.95 261.28 213.67 C 261.58 213.53 262.18 213.24 262.48 213.10 L 261.31 212.84 C 262.84 207.47 260.37 202.29 260.52 196.95 Z" fill="#e66a2b" opacity="1.00" stroke="#e66a2b" stroke-width="0.25"/>
<path d="M 215.12 200.96 C 218.91 204.98 222.11 209.63 223.91 214.88 C 226.51 222.38 228.49 230.35 227.41 238.33 C 225.46 232.84 224.47 226.98 221.89 221.69 C 218.87 229.69 212.28 235.72 209.30 243.76 C 205.78 252.70 207.14 263.38 213.04 271.02 C 217.18 277.23 223.50 281.48 229.91 285.08 C 229.86 285.38 229.78 285.99 229.74 286.29 C 231.53 287.44 233.36 288.57 234.75 290.21 C 233.08 289.70 231.45 289.11 229.84 288.46 C 226.19 286.97 222.66 285.16 219.57 282.71 C 210.61 275.93 203.01 265.74 203.41 254.02 C 203.04 247.53 205.65 241.38 208.92 235.92 C 211.76 230.53 216.64 226.19 217.98 220.05 C 219.27 213.59 217.68 206.91 215.12 200.96 Z" fill="#e16a35" opacity="1.00" stroke="#e16a35" stroke-width="0.25"/>
<path d="M 233.09 218.95 C 233.48 216.81 234.07 214.72 234.54 212.60 C 235.75 217.63 235.58 222.92 235.04 228.02 C 234.36 225.01 233.60 222.00 233.09 218.95 Z" fill="#bf7557" opacity="1.00" stroke="#bf7557" stroke-width="0.25"/>
<path d="M 253.98 225.01 C 255.66 220.75 255.04 216.01 256.62 211.73 C 261.45 218.88 262.82 227.61 264.06 235.98 C 265.55 247.66 263.28 259.28 262.11 270.87 C 264.01 269.41 265.96 268.00 267.98 266.72 C 266.09 273.31 263.04 279.73 258.35 284.80 C 258.39 278.12 260.76 271.68 260.31 264.98 C 259.92 254.68 259.63 243.90 255.20 234.39 C 250.62 243.94 245.35 253.28 242.69 263.62 C 241.98 266.57 241.31 269.53 240.44 272.44 C 237.40 269.49 234.54 266.35 231.25 263.68 C 231.42 266.72 232.04 269.74 233.35 272.50 C 235.23 276.52 236.29 281.01 239.29 284.41 C 240.61 286.44 241.66 288.61 242.62 290.83 C 242.08 290.94 241.01 291.17 240.47 291.28 C 240.31 291.15 240.00 290.89 239.84 290.76 C 237.09 287.95 233.89 285.38 232.23 281.72 C 228.18 274.15 227.76 265.38 228.42 257.00 C 230.60 258.22 232.73 259.53 234.83 260.91 C 236.33 256.28 237.99 251.67 240.56 247.52 C 245.13 240.09 251.02 233.33 253.98 225.01 Z" fill="#ffc50e" opacity="1.00" stroke="#ffc50e" stroke-width="0.25"/>
<path d="M 242.69 263.62 C 245.35 253.28 250.62 243.94 255.20 234.39 C 259.63 243.90 259.92 254.68 260.31 264.98 C 260.76 271.68 258.39 278.12 258.35 284.80 C 257.86 286.19 257.35 287.56 256.87 288.96 C 257.72 288.88 259.40 288.72 260.25 288.64 C 258.81 289.58 257.23 290.29 255.62 290.85 C 256.37 285.56 257.63 280.35 258.20 275.04 C 259.29 264.50 258.81 253.83 257.03 243.40 C 256.69 241.79 255.76 240.40 255.01 238.97 C 248.31 249.46 243.77 261.49 242.06 273.82 C 238.74 272.92 236.37 270.27 233.43 268.64 C 235.22 273.96 237.84 278.97 239.29 284.41 C 236.29 281.01 235.23 276.52 233.35 272.50 C 232.04 269.74 231.42 266.72 231.25 263.68 C 234.54 266.35 237.40 269.49 240.44 272.44 C 241.31 269.53 241.98 266.57 242.69 263.62 Z" fill="#f9e18c" opacity="1.00" stroke="#f9e18c" stroke-width="0.25"/>
<path d="M 242.06 273.82 C 243.77 261.49 248.31 249.46 255.01 238.97 C 255.76 240.40 256.69 241.79 257.03 243.40 C 258.81 253.83 259.29 264.50 258.20 275.04 C 257.63 280.35 256.37 285.56 255.62 290.85 C 250.63 291.71 245.51 290.91 240.52 291.87 C 240.51 291.72 240.48 291.43 240.47 291.28 C 241.01 291.17 242.08 290.94 242.62 290.83 C 241.66 288.61 240.61 286.44 239.29 284.41 C 237.84 278.97 235.22 273.96 233.43 268.64 C 236.37 270.27 238.74 272.92 242.06 273.82 Z" fill="#ffffff" opacity="1.00" stroke="#ffffff" stroke-width="0.25"/>
<path d="M 226.56 246.10 C 226.94 246.26 227.68 246.57 228.06 246.72 C 228.26 247.16 228.66 248.02 228.86 248.46 C 227.93 249.86 226.56 251.16 226.55 252.97 C 226.01 261.60 226.21 270.27 227.32 278.85 C 224.86 273.99 224.44 268.35 224.74 263.00 C 225.26 257.35 225.46 251.67 226.56 246.10 Z" fill="#db7d55" opacity="1.00" stroke="#db7d55" stroke-width="0.25"/>
<path d="M 175.72 272.43 C 177.37 269.69 181.13 269.46 183.98 269.86 C 191.32 271.30 198.63 272.94 205.94 274.53 C 210.10 275.19 214.24 278.13 215.01 282.47 C 216.53 282.59 218.04 282.64 219.57 282.71 C 222.66 285.16 226.19 286.97 229.84 288.46 C 229.40 288.75 228.52 289.34 228.08 289.63 C 231.18 291.10 234.19 292.74 237.30 294.21 C 235.44 294.19 233.60 294.44 231.80 294.83 C 242.85 298.96 255.12 298.20 266.43 295.51 C 264.56 292.89 260.82 294.74 258.17 294.33 C 258.58 291.80 260.76 290.74 263.08 290.40 C 268.12 289.57 271.83 285.86 275.55 282.68 C 278.24 282.74 280.97 282.98 283.63 282.50 C 284.90 279.96 286.65 277.73 288.64 275.73 C 296.62 273.22 304.99 272.34 313.10 270.32 C 316.35 269.48 320.52 269.06 322.95 271.88 C 325.13 275.28 326.90 278.97 328.27 282.78 C 353.24 282.85 378.23 282.97 403.21 282.71 C 421.85 296.75 440.73 310.49 459.40 324.48 C 459.72 336.08 459.72 347.74 459.30 359.35 C 458.14 360.19 456.99 361.03 455.84 361.88 C 319.23 361.89 182.61 361.87 46.00 361.90 C 43.84 362.12 41.97 361.01 40.28 359.85 C 39.47 355.94 39.76 351.94 39.74 347.98 C 39.74 340.24 39.70 332.49 39.77 324.75 C 58.62 310.62 77.78 296.90 96.64 282.78 C 121.16 282.83 145.69 282.98 170.20 282.71 C 171.82 279.17 173.76 275.79 175.72 272.43 Z" fill="#033050" opacity="1.00" stroke="#033050" stroke-width="0.25"/>
<path d="M 196.17 282.63 C 196.67 281.65 197.15 280.65 197.66 279.68 C 200.26 280.29 202.84 281.02 205.25 282.19 C 202.27 282.81 199.20 282.74 196.17 282.63 Z" fill="#eaffff" opacity="1.00" stroke="#eaffff" stroke-width="0.25"/>
<path d="M 293.70 282.19 C 296.13 281.14 298.64 280.34 301.20 279.67 C 301.71 280.66 302.24 281.66 302.75 282.66 C 299.73 282.71 296.68 282.79 293.70 282.19 Z" fill="#ebffff" opacity="1.00" stroke="#ebffff" stroke-width="0.25"/>
<path d="M 264.13 289.05 C 267.45 287.23 270.46 284.94 273.50 282.71 L 275.55 282.68 C 271.83 285.86 268.12 289.57 263.08 290.40 C 260.76 290.74 258.58 291.80 258.17 294.33 C 251.22 294.59 244.24 294.74 237.30 294.21 C 234.19 292.74 231.18 291.10 228.08 289.63 C 228.52 289.34 229.40 288.75 229.84 288.46 C 231.45 289.11 233.08 289.70 234.75 290.21 C 236.44 290.47 238.14 290.58 239.84 290.76 C 240.00 290.89 240.31 291.15 240.47 291.28 C 240.48 291.43 240.51 291.72 240.52 291.87 C 245.51 290.91 250.63 291.71 255.62 290.85 C 257.23 290.29 258.81 289.58 260.25 288.64 C 260.76 288.19 261.77 287.27 262.28 286.81 C 263.03 287.42 263.56 288.26 264.01 289.12 L 264.13 289.05 Z" fill="#0c2e42" opacity="1.00" stroke="#0c2e42" stroke-width="0.25"/>
<path d="M 101.65 286.41 C 124.50 286.15 147.38 286.14 170.23 286.46 C 170.33 286.99 170.52 288.04 170.61 288.57 C 160.39 289.52 150.02 291.28 140.57 295.44 C 137.91 296.52 134.22 299.35 136.51 302.49 C 140.24 306.54 145.97 307.87 151.07 309.36 C 150.60 311.27 149.98 313.14 149.63 315.08 C 149.72 316.64 151.24 317.55 152.08 318.75 C 160.06 319.33 168.11 319.28 176.10 318.91 C 178.69 319.09 180.18 316.89 181.74 315.23 C 216.97 319.28 252.56 319.25 287.93 317.28 C 295.99 316.85 303.98 315.56 312.03 315.11 C 313.91 317.13 315.94 319.24 319.00 318.98 C 326.53 319.07 334.19 319.62 341.67 318.48 C 346.10 317.01 344.25 311.70 342.54 308.76 C 346.83 306.85 352.26 305.66 354.61 301.15 C 355.26 297.77 351.75 295.97 349.23 294.74 C 342.38 291.76 335.01 289.86 327.59 288.99 C 327.78 288.32 328.17 286.96 328.36 286.29 C 350.61 286.25 372.87 286.22 395.12 286.28 C 397.78 285.95 399.56 288.16 401.52 289.55 C 414.50 299.84 427.73 309.83 440.69 320.16 C 371.44 320.39 302.19 320.21 232.95 320.23 C 174.70 320.25 116.45 320.30 58.20 320.22 C 72.65 308.90 87.20 297.72 101.65 286.41 Z" fill="#a6ecff" opacity="1.00" stroke="#a6ecff" stroke-width="0.25"/>
<path d="M 271.93 292.13 C 276.51 291.15 280.79 289.23 285.24 287.83 C 291.93 289.38 298.91 288.42 305.67 289.52 C 306.83 290.63 307.76 291.96 308.78 293.22 C 300.50 293.15 292.18 292.82 283.94 293.92 C 279.81 294.72 276.05 292.18 271.93 292.13 Z" fill="#cbf6ff" opacity="1.00" stroke="#cbf6ff" stroke-width="0.25"/>
<path d="M 192.59 289.40 C 199.37 288.89 206.17 288.58 212.96 288.34 C 216.98 289.55 220.90 291.10 225.00 292.09 C 222.92 292.63 220.68 292.93 218.97 294.34 C 209.46 293.42 199.91 292.79 190.35 293.16 C 191.12 291.92 191.87 290.67 192.59 289.40 Z" fill="#caf4ff" opacity="1.00" stroke="#caf4ff" stroke-width="0.25"/>
<path d="M 152.15 295.42 C 159.58 293.30 167.20 291.07 175.01 291.49 C 169.12 292.59 163.15 293.73 157.78 296.51 C 155.81 299.28 154.38 302.37 153.06 305.48 C 150.10 304.08 146.19 303.27 145.02 299.76 C 147.02 297.77 149.38 296.12 152.15 295.42 Z" fill="#cef9ff" opacity="1.00" stroke="#cef9ff" stroke-width="0.25"/>
<path d="M 323.32 291.40 C 330.00 291.83 336.53 293.74 342.69 296.30 C 344.57 296.99 345.93 298.48 347.13 300.01 C 345.44 302.01 343.38 303.64 340.94 304.63 C 339.72 302.09 338.72 299.38 336.98 297.14 C 333.10 293.91 327.87 293.27 323.32 291.40 Z" fill="#d0f8ff" opacity="1.00" stroke="#d0f8ff" stroke-width="0.25"/>
<path d="M 231.80 294.83 C 233.60 294.44 235.44 294.19 237.30 294.21 C 244.24 294.74 251.22 294.59 258.17 294.33 C 260.82 294.74 264.56 292.89 266.43 295.51 C 255.12 298.20 242.85 298.96 231.80 294.83 Z" fill="#ddffff" opacity="1.00" stroke="#ddffff" stroke-width="0.25"/>
<path d="M 187.10 303.63 C 186.84 300.31 190.62 300.01 193.04 299.54 C 212.07 298.20 231.00 301.59 249.96 302.43 C 267.29 301.14 284.63 298.48 302.06 299.46 C 304.61 299.79 307.95 300.42 308.85 303.26 C 306.96 304.19 305.07 305.10 303.10 305.83 C 279.92 310.90 256.01 310.98 232.40 310.38 C 219.73 309.79 207.05 308.77 194.59 306.30 C 192.02 305.61 189.56 304.61 187.10 303.63 Z" fill="#cff5fe" opacity="1.00" stroke="#cff5fe" stroke-width="0.25"/>
<path d="M 180.88 301.24 C 182.92 306.54 188.90 307.79 193.79 309.08 C 207.92 311.60 222.29 312.54 236.61 313.11 L 235.30 313.43 C 217.38 314.04 199.39 312.29 181.55 310.49 C 181.55 307.39 181.34 304.30 180.88 301.24 Z" fill="#d3f9ff" opacity="1.00" stroke="#d3f9ff" stroke-width="0.25"/>
<path d="M 303.10 305.83 C 305.76 306.97 308.54 304.05 310.88 306.16 C 305.07 309.24 298.41 309.78 292.02 310.67 C 273.66 313.10 255.11 313.44 236.61 313.11 C 222.29 312.54 207.92 311.60 193.79 309.08 C 193.67 308.46 193.43 307.24 193.31 306.63 L 194.59 306.30 C 207.05 308.77 219.73 309.79 232.40 310.38 C 256.01 310.98 279.92 310.90 303.10 305.83 Z" fill="#002941" opacity="1.00" stroke="#002941" stroke-width="0.25"/>
<path d="M 310.88 306.16 C 311.24 305.98 311.98 305.61 312.35 305.42 C 312.31 307.00 312.27 308.59 312.24 310.18 C 301.49 310.78 290.84 312.64 280.06 312.84 C 271.42 313.80 262.71 313.45 254.03 313.70 C 247.79 313.62 241.53 313.98 235.30 313.43 L 236.61 313.11 C 255.11 313.44 273.66 313.10 292.02 310.67 C 298.41 309.78 305.07 309.24 310.88 306.16 Z" fill="#d2fbff" opacity="1.00" stroke="#d2fbff" stroke-width="0.25"/>
<path d="M 48.10 329.74 C 182.48 329.61 316.87 329.83 451.25 329.64 C 451.33 337.32 451.14 345.00 451.30 352.69 C 316.89 352.83 182.48 352.72 48.07 352.74 C 48.16 345.07 48.10 337.41 48.10 329.74 Z" fill="#a6edff" opacity="1.00" stroke="#a6edff" stroke-width="0.25"/>
<path d="M 95.17 385.97 C 94.95 380.61 99.69 376.17 104.92 375.99 C 198.25 376.24 291.61 376.00 384.95 376.10 C 389.86 376.21 395.06 375.29 399.65 377.55 C 401.82 379.85 404.08 382.55 403.85 385.94 C 403.79 399.04 404.03 412.16 403.69 425.27 C 401.26 425.21 398.82 425.21 396.39 425.26 C 396.17 411.84 396.31 398.42 396.31 384.99 C 396.28 383.84 396.04 382.73 395.60 381.67 C 338.08 382.03 280.54 381.72 223.02 381.82 C 183.16 381.80 143.30 381.88 103.44 381.78 C 102.61 385.81 102.92 389.93 102.89 394.01 C 102.87 403.47 102.94 412.93 102.86 422.40 C 100.32 422.39 97.77 422.39 95.23 422.45 C 95.03 410.29 95.11 398.13 95.17 385.97 Z" fill="#05304f" opacity="1.00" stroke="#05304f" stroke-width="0.25"/>
<path d="M 186.62 410.79 C 187.70 409.42 188.88 407.60 190.92 407.87 C 231.30 407.87 271.69 407.88 312.08 407.88 C 312.89 408.72 313.70 409.59 314.53 410.44 C 314.42 417.31 314.76 424.20 314.25 431.06 C 313.34 431.56 312.44 432.08 311.54 432.60 C 271.34 432.54 231.15 432.59 190.96 432.59 C 188.96 432.79 186.95 431.24 186.78 429.23 C 186.58 423.08 186.84 416.94 186.62 410.79 Z" fill="#07304e" opacity="1.00" stroke="#07304e" stroke-width="0.25"/>
<path d="M 191.80 412.60 C 231.07 412.45 270.35 412.54 309.62 412.56 C 309.59 417.78 309.84 423.00 309.46 428.21 C 270.26 427.81 231.04 428.34 191.84 427.94 C 191.80 422.83 191.88 417.71 191.80 412.60 Z" fill="#feffff" opacity="1.00" stroke="#feffff" stroke-width="0.25"/>
</svg>