<svg xmlns="http://www.w3.org/2000/svg" height="512pt" version="1.1" viewBox="0 0 512 512" width="512pt">

<path d="M 333.23 147.00 C 334.05 144.62 336.61 143.31 339.05 143.58 C 356.01 143.61 372.97 143.61 389.93 143.59 C 392.01 143.71 394.39 143.47 396.14 144.85 C 397.34 147.28 396.93 151.08 393.65 151.50 C 384.96 153.09 376.02 151.57 367.23 152.38 C 367.11 154.26 367.41 156.68 369.98 156.31 C 387.32 156.47 404.66 156.30 422.00 156.30 C 423.45 156.37 424.98 156.26 426.35 156.86 C 426.82 158.25 426.53 160.36 424.76 160.52 C 418.52 160.93 412.27 161.34 406.02 160.96 C 391.55 161.71 377.05 160.99 362.57 161.45 C 362.45 162.09 362.22 163.36 362.10 164.00 C 374.71 164.94 387.39 164.17 400.03 164.37 C 402.92 164.57 406.75 163.59 408.67 166.43 C 409.98 168.03 411.38 169.58 412.56 171.30 C 413.39 175.02 409.07 177.04 406.00 177.21 C 397.99 177.69 389.96 177.21 381.95 177.47 C 380.73 177.34 379.80 178.22 378.82 178.75 C 384.97 180.88 391.67 180.02 398.07 180.25 C 407.92 180.09 417.77 180.25 427.63 180.45 C 427.57 181.79 427.51 183.13 427.46 184.48 C 416.62 186.19 405.58 184.68 394.66 185.44 C 394.54 186.13 394.30 187.50 394.18 188.19 C 361.82 188.27 329.46 188.27 297.10 188.21 C 298.29 186.36 299.35 184.40 300.86 182.79 C 306.37 181.49 312.12 181.80 317.75 181.63 C 317.60 180.34 317.64 179.01 317.23 177.78 C 314.81 177.24 312.31 177.53 309.88 177.19 C 307.65 176.64 308.23 174.11 308.30 172.44 C 316.24 172.35 324.20 172.62 332.14 172.30 C 333.79 172.46 333.44 170.37 334.04 169.40 C 323.70 169.16 313.35 169.48 303.01 169.45 C 300.94 169.54 299.12 168.47 297.30 167.66 C 296.55 165.28 296.54 162.84 297.45 160.51 C 300.50 159.31 303.71 158.51 307.00 158.60 C 321.97 158.57 336.94 158.67 351.91 158.56 C 354.27 159.07 356.10 155.36 353.10 154.79 C 347.53 154.21 341.89 155.08 336.33 154.39 C 333.56 153.30 331.74 149.79 333.23 147.00 Z" fill="#9de7fd" opacity="1.00" stroke="#9de7fd" stroke-width="0.25" data-index="1" style="opacity: 1; visibility: hidden;"></path>
<path d="M 98.73 189.99 C 100.94 188.76 103.43 188.13 105.96 188.22 C 169.68 188.20 233.39 188.21 297.10 188.21 C 329.46 188.27 361.82 188.27 394.18 188.19 C 396.64 188.22 399.14 188.10 401.56 188.62 C 405.20 190.20 408.00 193.04 410.44 196.09 C 409.69 196.15 408.20 196.25 407.46 196.31 C 405.52 194.55 403.70 192.43 401.07 191.74 C 394.52 189.78 387.67 191.37 380.98 191.27 C 361.99 191.10 343.00 190.49 324.01 190.83 C 317.01 191.49 310.01 190.40 303.01 191.02 C 276.02 190.43 249.00 190.87 221.99 190.72 C 184.34 190.89 146.67 190.43 109.03 190.94 C 106.71 191.13 104.36 191.14 102.08 190.66 C 100.96 190.44 99.84 190.21 98.73 189.99 Z" fill="#123248" opacity="1.00" stroke="#123248" stroke-width="0.25" data-index="2" style="opacity: 1;"></path>

<path d="M 93.84 194.65 C 95.02 192.71 96.61 190.92 98.73 189.99 C 99.84 190.21 100.96 190.44 102.08 190.66 C 98.66 192.61 95.88 195.50 94.08 199.00 C 90.85 205.02 87.01 210.71 83.91 216.80 C 81.91 220.41 82.19 224.61 82.42 228.58 C 95.63 228.73 108.85 228.58 122.06 228.65 C 122.23 229.20 122.57 230.30 122.73 230.86 C 122.25 231.10 121.29 231.60 120.82 231.85 C 120.92 238.18 120.83 244.51 120.86 250.84 C 120.43 250.67 119.57 250.33 119.15 250.16 C 119.12 244.02 119.41 237.88 118.99 231.76 L 118.32 231.70 C 111.94 231.42 105.54 231.33 99.16 231.86 C 98.18 241.21 99.39 250.58 98.78 259.93 C 98.67 287.38 98.82 314.82 98.69 342.27 C 98.29 342.25 97.51 342.22 97.12 342.20 C 96.93 342.97 96.54 344.52 96.35 345.30 C 96.37 343.45 96.36 341.61 96.36 339.78 C 96.36 339.13 96.36 337.82 96.36 337.17 C 96.37 335.52 96.37 333.88 96.37 332.24 C 96.37 331.49 96.37 329.97 96.37 329.22 C 96.39 326.41 96.39 323.61 96.38 320.81 C 96.35 291.06 96.40 261.31 96.35 231.56 C 91.47 231.39 86.56 231.86 81.70 231.31 C 79.30 229.84 79.40 226.51 79.36 224.03 C 79.34 219.29 82.00 215.23 84.21 211.25 C 87.39 205.70 90.49 200.10 93.84 194.65 Z" fill="#0e2a3f" opacity="1.00" stroke="#0e2a3f" stroke-width="0.25" data-index="4"></path>
<path d="M 94.08 199.00 C 95.88 195.50 98.66 192.61 102.08 190.66 C 104.36 191.14 106.71 191.13 109.03 190.94 C 146.67 190.43 184.34 190.89 221.99 190.72 C 249.00 190.87 276.02 190.43 303.01 191.02 C 310.01 190.40 317.01 191.49 324.01 190.83 C 343.00 190.49 361.99 191.10 380.98 191.27 C 387.67 191.37 394.52 189.78 401.07 191.74 C 403.70 192.43 405.52 194.55 407.46 196.31 C 412.53 201.99 417.51 207.77 423.05 213.01 C 427.23 216.99 429.57 222.93 428.07 228.66 C 415.95 228.63 403.84 228.59 391.73 228.68 C 391.23 228.67 390.21 228.64 389.70 228.63 C 300.49 228.65 211.28 228.67 122.06 228.65 C 108.85 228.58 95.63 228.73 82.42 228.58 C 82.19 224.61 81.91 220.41 83.91 216.80 C 87.01 210.71 90.85 205.02 94.08 199.00 Z" fill="#824f39" opacity="1.00" stroke="#824f39" stroke-width="0.25" data-index="5" style="opacity: 1;"></path>
<path d="M 134.19 196.11 C 135.56 196.24 137.47 196.01 136.74 198.03 C 135.95 198.29 135.14 198.53 134.33 198.73 C 134.30 198.07 134.23 196.77 134.19 196.11 Z" fill="#ffffff" opacity="1.00" stroke="#ffffff" stroke-width="0.25" data-index="6"></path>
<path d="M 140.39 196.46 C 142.13 196.17 143.91 196.18 145.64 196.48 C 146.22 199.09 139.96 198.91 140.39 196.46 Z" fill="#ffffff" opacity="1.00" stroke="#ffffff" stroke-width="0.25" data-index="7"></path>
<path d="M 307.26 196.20 C 312.64 195.97 318.09 195.80 323.46 196.29 C 323.65 196.70 324.03 197.51 324.22 197.92 C 318.52 198.09 312.77 198.33 307.09 197.82 C 307.13 197.42 307.22 196.61 307.26 196.20 Z" fill="#f4e0d4" opacity="1.00" stroke="#f4e0d4" stroke-width="0.25" data-index="8"></path>
<path d="M 407.46 196.31 C 408.20 196.25 409.69 196.15 410.44 196.09 C 412.31 198.08 414.21 200.05 416.12 202.01 C 420.36 206.40 424.75 210.68 428.41 215.59 C 431.00 219.21 431.51 223.79 431.45 228.12 C 430.49 229.31 429.79 231.26 428.07 231.44 C 423.56 231.77 419.02 231.46 414.51 231.55 C 414.49 262.72 414.53 293.88 414.50 325.05 C 414.32 328.56 414.95 332.19 414.14 335.63 C 413.26 337.82 412.69 340.10 412.17 342.40 C 412.03 324.59 412.17 306.77 411.86 288.96 C 412.56 269.87 411.64 250.76 412.18 231.66 L 412.21 230.73 C 405.95 230.61 399.68 230.80 393.42 230.61 C 393.00 230.13 392.16 229.16 391.73 228.68 C 403.84 228.59 415.95 228.63 428.07 228.66 C 429.57 222.93 427.23 216.99 423.05 213.01 C 417.51 207.77 412.53 201.99 407.46 196.31 Z" fill="#152b39" opacity="1.00" stroke="#152b39" stroke-width="0.25" data-index="9" style="opacity: 1;"></path>
<path d="M 147.02 203.37 C 168.01 203.38 189.00 203.37 209.99 203.37 C 209.96 204.75 209.32 205.40 208.06 205.33 C 188.37 205.44 168.68 205.38 148.99 205.34 C 147.60 205.50 146.94 204.84 147.02 203.37 Z" fill="#ffffff" opacity="1.00" stroke="#ffffff" stroke-width="0.25" data-index="10"></path>
<path d="M 330.22 203.38 C 348.82 203.33 367.42 203.41 386.02 203.34 C 386.12 204.91 385.44 205.58 383.96 205.34 C 366.16 205.48 348.35 205.27 330.55 205.43 C 330.47 204.91 330.30 203.89 330.22 203.38 Z" fill="#ffffff" opacity="1.00" stroke="#ffffff" stroke-width="0.25" data-index="11" style="opacity: 1;"></path>
<path d="M 391.90 208.94 C 394.17 208.90 396.46 208.74 398.71 209.19 C 398.72 209.59 398.73 210.37 398.74 210.77 C 396.47 211.13 394.16 211.05 391.88 211.04 C 391.89 210.52 391.90 209.47 391.90 208.94 Z" fill="#f5d9c9" opacity="1.00" stroke="#f5d9c9" stroke-width="0.25" data-index="12"></path>
<path d="M 400.29 209.26 C 401.26 207.92 403.99 209.31 402.79 210.82 C 401.81 212.15 399.08 210.77 400.29 209.26 Z" fill="#d7af98" opacity="1.00" stroke="#d7af98" stroke-width="0.25" data-index="13"></path>
<path d="M 287.35 210.34 C 294.88 209.63 302.49 210.08 310.05 210.15 C 310.25 213.14 306.79 211.87 304.95 212.17 C 299.11 211.85 293.13 212.80 287.38 211.67 C 287.37 211.34 287.36 210.67 287.35 210.34 Z" fill="#f4ded5" opacity="1.00" stroke="#f4ded5" stroke-width="0.25" data-index="14"></path>
<path d="M 109.02 212.46 C 109.22 212.04 109.61 211.19 109.80 210.76 C 118.74 210.44 127.70 210.71 136.65 210.67 C 137.10 213.26 134.37 212.34 133.00 212.62 C 125.01 212.52 117.01 212.71 109.02 212.46 Z" fill="#ffffff" opacity="1.00" stroke="#ffffff" stroke-width="0.25" data-index="15"></path>
<path d="M 202.31 212.56 C 202.40 212.08 202.60 211.12 202.69 210.64 C 221.33 210.86 240.00 210.27 258.62 210.85 C 258.68 211.27 258.81 212.10 258.87 212.52 C 240.02 212.66 221.16 212.59 202.31 212.56 Z" fill="#ffffff" opacity="1.00" stroke="#ffffff" stroke-width="0.25" data-index="16"></path>
<path d="M 330.99 212.59 C 331.18 212.14 331.57 211.24 331.77 210.79 C 341.34 210.51 350.94 210.60 360.53 210.80 C 360.23 213.29 357.75 212.46 356.07 212.62 C 347.71 212.56 339.35 212.63 330.99 212.59 Z" fill="#ffffff" opacity="1.00" stroke="#ffffff" stroke-width="0.25" data-index="17" style="opacity: 1;"></path>
<path d="M 163.80 215.93 C 181.20 215.45 198.63 215.84 216.05 215.66 C 218.08 215.91 220.86 215.06 222.05 217.33 C 220.03 217.68 217.98 217.87 215.93 217.85 C 201.60 217.77 187.28 217.91 172.95 217.85 C 169.75 217.78 166.48 218.17 163.35 217.35 L 163.80 215.93 Z" fill="#ffffff" opacity="1.00" stroke="#ffffff" stroke-width="0.25" data-index="18"></path>
<path d="M 86.24 220.25 C 86.61 217.95 89.28 218.82 90.92 218.61 C 94.48 218.77 98.10 218.34 101.61 218.95 C 101.73 219.37 101.97 220.19 102.09 220.60 C 96.81 220.34 91.46 221.09 86.24 220.25 Z" fill="#ffffff" opacity="1.00" stroke="#ffffff" stroke-width="0.25" data-index="19"></path>
<path d="M 122.06 228.65 C 211.28 228.67 300.49 228.65 389.70 228.63 C 389.68 229.20 389.65 230.34 389.64 230.91 C 332.77 231.38 275.90 231.01 219.03 231.09 C 196.37 231.22 173.70 231.10 151.04 231.06 C 141.61 231.06 132.16 231.38 122.73 230.86 C 122.57 230.30 122.23 229.20 122.06 228.65 Z" fill="#202c39" opacity="1.00" stroke="#202c39" stroke-width="0.25" data-index="20" style="opacity: 1;"></path>
<path d="M 389.70 228.63 C 390.21 228.64 391.23 228.67 391.73 228.68 C 392.16 229.16 393.00 230.13 393.42 230.61 C 399.68 230.80 405.95 230.61 412.21 230.73 L 412.18 231.66 C 406.11 231.70 400.01 231.19 393.96 231.84 C 392.22 232.31 392.80 234.59 392.57 235.92 C 392.69 267.29 392.64 298.65 392.60 330.01 C 392.54 334.24 392.55 338.46 392.89 342.68 C 399.31 342.35 405.76 342.95 412.17 342.40 C 412.69 340.10 413.26 337.82 414.14 335.63 C 414.71 338.96 414.69 342.37 413.86 345.66 C 406.01 345.70 398.15 345.93 390.31 345.58 C 389.78 342.52 389.61 339.42 389.66 336.32 C 389.62 327.42 389.81 318.52 389.55 309.63 C 385.47 309.80 381.39 309.86 377.32 309.58 C 376.26 290.93 377.52 272.23 376.77 253.58 C 305.17 253.91 233.57 253.62 161.97 253.72 C 152.44 253.63 142.91 253.90 133.39 253.58 C 132.85 272.09 133.45 290.63 133.12 309.14 C 129.40 310.43 125.25 309.49 121.37 309.60 C 121.16 312.95 121.02 316.30 120.88 319.65 C 120.74 321.25 120.59 322.84 120.42 324.44 C 119.83 324.46 119.23 324.48 118.64 324.49 C 119.04 321.67 119.39 318.84 119.36 315.99 C 118.97 294.05 119.23 272.10 119.15 250.16 C 119.57 250.33 120.43 250.67 120.86 250.84 C 150.23 251.37 179.64 250.91 209.02 251.06 C 262.34 251.06 315.65 251.07 368.97 251.07 C 375.88 250.86 382.82 251.37 389.71 250.60 L 389.71 250.60 C 389.63 244.45 389.70 238.30 389.62 232.15 C 389.63 231.84 389.63 231.22 389.64 230.91 C 389.65 230.34 389.68 229.20 389.70 228.63 Z" fill="#103047" opacity="1.00" stroke="#103047" stroke-width="0.25" data-index="21" style="opacity: 1;"></path>
<path d="M 120.82 231.85 C 121.29 231.60 122.25 231.10 122.73 230.86 C 132.16 231.38 141.61 231.06 151.04 231.06 C 173.70 231.10 196.37 231.22 219.03 231.09 C 275.90 231.01 332.77 231.38 389.64 230.91 C 389.63 231.22 389.63 231.84 389.62 232.15 L 388.45 232.11 C 350.30 231.71 312.14 232.00 273.99 231.94 C 223.29 231.91 172.59 231.94 121.89 231.88 L 120.82 231.85 Z" fill="#777479" opacity="1.00" stroke="#777479" stroke-width="0.25" data-index="22" style="opacity: 1;"></path>
<path d="M 99.16 231.86 C 105.54 231.33 111.94 231.42 118.32 231.70 C 118.41 267.11 118.33 302.52 118.37 337.94 C 118.31 339.52 118.18 341.10 118.06 342.69 C 111.61 342.45 105.13 342.87 98.69 342.27 C 98.82 314.82 98.67 287.38 98.78 259.93 C 99.39 250.58 98.18 241.21 99.16 231.86 Z" fill="#824f3a" opacity="1.00" stroke="#824f3a" stroke-width="0.25" data-index="23"></path>
<path d="M 118.32 231.70 L 118.99 231.76 C 119.41 237.88 119.12 244.02 119.15 250.16 C 119.23 272.10 118.97 294.05 119.36 315.99 C 119.39 318.84 119.04 321.67 118.64 324.49 C 119.23 324.48 119.83 324.46 120.42 324.44 C 120.59 322.84 120.74 321.25 120.88 319.65 C 121.47 326.76 121.07 333.88 121.08 341.00 C 121.09 342.62 120.64 344.20 120.25 345.78 C 112.28 345.49 104.27 346.32 96.35 345.30 C 96.54 344.52 96.93 342.97 97.12 342.20 C 97.51 342.22 98.29 342.25 98.69 342.27 C 105.13 342.87 111.61 342.45 118.06 342.69 C 118.18 341.10 118.31 339.52 118.37 337.94 C 118.33 302.52 118.41 267.11 118.32 231.70 Z" fill="#0a3752" opacity="1.00" stroke="#0a3752" stroke-width="0.25" data-index="24"></path>
<path d="M 120.82 231.85 L 121.89 231.88 C 121.96 233.62 122.04 235.36 122.09 237.10 C 122.13 241.34 122.20 245.58 122.23 249.82 C 204.82 249.95 287.40 249.86 369.99 249.86 C 376.56 250.31 383.21 249.21 389.71 250.60 C 382.82 251.37 375.88 250.86 368.97 251.07 C 315.65 251.07 262.34 251.06 209.02 251.06 C 179.64 250.91 150.23 251.37 120.86 250.84 C 120.83 244.51 120.92 238.18 120.82 231.85 Z" fill="#bfaaa0" opacity="1.00" stroke="#bfaaa0" stroke-width="0.25" data-index="25" style="opacity: 1;"></path>
<path d="M 121.89 231.88 C 172.59 231.94 223.29 231.91 273.99 231.94 C 312.14 232.00 350.30 231.71 388.45 232.11 C 388.58 232.41 388.85 232.99 388.98 233.28 C 387.36 232.73 385.72 232.14 384.00 232.17 C 296.74 232.28 209.48 232.07 122.22 232.26 C 122.17 233.87 122.10 235.49 122.09 237.10 C 122.04 235.36 121.96 233.62 121.89 231.88 Z" fill="#9ce7fe" opacity="1.00" stroke="#9ce7fe" stroke-width="0.25" data-index="26"></path>
<path d="M 388.45 232.11 L 389.62 232.15 C 389.70 238.30 389.63 244.45 389.71 250.60 L 389.71 250.60 C 383.21 249.21 376.56 250.31 369.99 249.86 C 287.40 249.86 204.82 249.95 122.23 249.82 C 122.20 245.58 122.13 241.34 122.09 237.10 C 122.10 235.49 122.17 233.87 122.22 232.26 C 209.48 232.07 296.74 232.28 384.00 232.17 C 385.72 232.14 387.36 232.73 388.98 233.28 C 388.85 232.99 388.58 232.41 388.45 232.11 Z" fill="#feb894" opacity="1.00" stroke="#feb894" stroke-width="0.25" data-index="27" style="opacity: 1;"></path>
<path d="M 392.57 235.92 C 392.80 234.59 392.22 232.31 393.96 231.84 C 400.01 231.19 406.11 231.70 412.18 231.66 C 411.64 250.76 412.56 269.87 411.86 288.96 C 412.17 306.77 412.03 324.59 412.17 342.40 C 405.76 342.95 399.31 342.35 392.89 342.68 C 392.55 338.46 392.54 334.24 392.60 330.01 C 392.64 298.65 392.69 267.29 392.57 235.92 Z" fill="#824f3a" opacity="1.00" stroke="#824f3a" stroke-width="0.25" data-index="28" style="opacity: 1;"></path>
<path d="M 225.09 236.96 C 228.53 235.37 232.41 235.75 236.07 236.04 C 237.42 235.95 238.37 236.88 239.23 237.76 C 234.62 238.19 229.25 239.58 225.09 236.96 Z" fill="#ffeedb" opacity="1.00" stroke="#ffeedb" stroke-width="0.25" data-index="29"></path>
<path d="M 105.17 237.91 C 105.62 237.86 106.53 237.77 106.98 237.72 C 107.31 240.56 107.12 243.42 106.85 246.25 C 103.49 245.10 105.30 240.56 105.17 237.91 Z" fill="#f8ddd0" opacity="1.00" stroke="#f8ddd0" stroke-width="0.25" data-index="30"></path>
<path d="M 150.29 238.85 C 154.52 239.10 159.43 237.41 163.12 240.12 C 159.27 241.73 154.99 241.49 150.96 240.90 C 150.79 240.39 150.46 239.36 150.29 238.85 Z" fill="#fff0d7" opacity="1.00" stroke="#fff0d7" stroke-width="0.25" data-index="31"></path>
<path d="M 344.03 242.00 C 352.08 241.01 360.32 241.56 368.43 241.82 C 368.19 242.26 367.69 243.14 367.45 243.58 C 359.77 243.86 352.01 244.13 344.33 243.63 C 344.26 243.22 344.11 242.41 344.03 242.00 Z" fill="#ffebd7" opacity="1.00" stroke="#ffebd7" stroke-width="0.25" data-index="32" style="opacity: 1;"></path>
<path d="M 121.37 254.20 C 124.36 253.67 127.59 253.06 130.40 254.62 C 130.06 270.75 130.28 286.90 130.26 303.03 C 130.15 304.26 129.90 305.47 129.51 306.66 C 126.95 306.55 124.31 306.87 121.81 306.19 C 121.12 300.08 121.18 293.73 121.80 287.62 C 122.37 287.41 123.51 286.98 124.08 286.77 C 124.31 281.11 124.10 275.44 124.13 269.77 C 123.55 269.68 122.39 269.51 121.81 269.42 C 120.64 264.46 121.73 259.25 121.37 254.20 Z" fill="#764a38" opacity="1.00" stroke="#764a38" stroke-width="0.25" data-index="33"></path>
<path d="M 379.55 254.57 C 382.67 253.24 386.11 253.62 389.41 253.80 C 389.77 263.18 388.95 272.56 389.32 281.94 C 389.73 290.16 389.56 298.39 389.57 306.61 C 386.46 306.63 383.35 306.66 380.24 306.71 C 379.21 289.38 380.27 271.94 379.55 254.57 Z" fill="#7a4d3b" opacity="1.00" stroke="#7a4d3b" stroke-width="0.25" data-index="34"></path>
<path d="M 386.78 265.38 L 388.69 265.41 C 388.66 271.77 388.73 278.14 388.60 284.50 L 386.67 284.42 C 386.61 278.07 386.67 271.72 386.78 265.38 Z" fill="#fffaf4" opacity="1.00" stroke="#fffaf4" stroke-width="0.25" data-index="35"></path>
<path d="M 404.06 267.00 L 405.05 266.28 C 406.81 268.53 405.90 271.69 405.82 274.32 C 405.35 274.32 404.40 274.33 403.93 274.34 C 403.72 271.90 403.62 269.42 404.06 267.00 Z" fill="#fbe6d5" opacity="1.00" stroke="#fbe6d5" stroke-width="0.25" data-index="36"></path>
<path d="M 121.81 269.42 C 122.39 269.51 123.55 269.68 124.13 269.77 C 124.10 275.44 124.31 281.11 124.08 286.77 C 123.51 286.98 122.37 287.41 121.80 287.62 C 121.85 281.56 121.92 275.49 121.81 269.42 Z" fill="#efe6e2" opacity="1.00" stroke="#efe6e2" stroke-width="0.25" data-index="37"></path>
<path d="M 105.89 304.92 C 105.57 303.49 104.74 301.57 105.92 300.33 C 108.22 300.74 107.31 303.93 105.89 304.92 Z" fill="#ffffff" opacity="1.00" stroke="#ffffff" stroke-width="0.25" data-index="38"></path>

<path d="M 52.65 321.73 C 55.26 320.57 58.20 320.77 60.99 320.68 C 72.78 320.80 84.58 320.54 96.38 320.81 C 96.39 323.61 96.39 326.41 96.37 329.22 C 82.23 329.33 68.08 329.21 53.97 328.40 C 49.84 328.92 49.77 323.31 52.65 321.73 Z" fill="#9fe7fd" opacity="1.00" stroke="#9fe7fd" stroke-width="0.25" data-index="40" style="opacity: 1; visibility: hidden;"></path>

<path d="M 122.06 335.82 C 123.11 336.77 124.14 337.76 125.16 338.75 C 124.12 339.55 123.07 340.35 122.02 341.15 C 122.01 339.36 122.02 337.59 122.06 335.82 Z" fill="#cdf8ff" opacity="1.00" stroke="#cdf8ff" stroke-width="0.25" data-index="42"></path>

<path d="M 146.22 362.98 C 150.42 360.65 155.38 362.14 159.94 361.69 C 162.68 361.97 166.56 360.70 168.23 363.59 C 162.88 364.72 157.40 364.15 151.98 364.28 C 149.97 364.37 147.95 364.05 146.22 362.98 Z" fill="#e4ffff" opacity="1.00" stroke="#e4ffff" stroke-width="0.25" data-index="44"></path>
</svg>