<?xml version="1.0" encoding="utf-8"?>
<svg xmlns="http://www.w3.org/2000/svg" height="512pt" version="1.1" viewBox="0 0 512 512" width="512pt">
<path d="M 0.00 0.00 L 512.00 0.00 L 512.00 512.00 L 0.00 512.00 L 0.00 0.00 Z" fill="transparent" opacity="1.00" stroke="transparent" stroke-width="0.25"/>
<path d="M 247.80 81.94 C 248.01 77.17 254.94 77.66 257.60 80.13 C 257.63 90.92 257.66 101.71 257.61 112.50 C 265.14 112.82 272.71 112.14 280.21 113.01 C 281.37 116.65 282.52 121.55 279.79 124.70 C 261.30 124.54 242.79 125.02 224.33 124.48 C 222.03 121.47 223.61 117.08 223.51 113.53 C 224.90 112.86 226.39 112.39 227.95 112.55 C 234.54 112.58 241.13 112.58 247.72 112.53 C 247.76 102.33 247.67 92.13 247.80 81.94 Z" fill="#002a3e" opacity="1.00" stroke="#002a3e" stroke-width="0.25"/>
<path d="M 249.63 82.98 C 248.85 79.11 256.53 79.04 255.77 82.89 C 255.77 92.27 255.80 101.65 255.77 111.03 C 255.87 112.25 255.58 114.48 257.42 114.41 C 264.70 114.75 272.00 114.23 279.27 114.68 C 279.30 117.29 279.35 119.91 279.47 122.52 C 261.39 122.89 243.30 122.54 225.22 122.72 C 225.10 119.98 225.12 117.24 225.34 114.50 C 232.94 114.38 240.55 114.67 248.14 114.38 C 248.46 114.09 249.09 113.51 249.41 113.21 C 249.95 103.16 249.42 93.05 249.63 82.98 Z" fill="#7fe6fe" opacity="1.00" stroke="#7fe6fe" stroke-width="0.25"/>
<path d="M 225.00 128.93 C 225.69 127.68 227.76 128.72 227.41 130.09 C 227.56 134.78 227.94 139.54 227.26 144.19 C 225.74 145.44 223.91 144.47 222.36 143.86 C 222.28 138.77 222.95 133.62 225.00 128.93 Z" fill="#96e5f2" opacity="1.00" stroke="#96e5f2" stroke-width="0.25"/>
<path d="M 230.57 142.02 C 231.44 136.96 231.27 131.44 234.01 126.92 C 237.13 131.60 236.25 137.68 235.67 142.96 C 235.70 144.87 234.05 145.94 232.78 147.06 C 231.51 145.65 230.05 144.09 230.57 142.02 Z" fill="#8fecfd" opacity="1.00" stroke="#8fecfd" stroke-width="0.25"/>
<path d="M 246.75 127.90 C 248.36 129.87 248.01 132.61 248.23 134.99 C 248.23 141.04 248.60 147.10 248.45 153.15 C 247.38 153.74 246.33 154.35 245.27 154.95 C 244.46 152.36 245.33 149.70 245.31 147.07 C 245.31 140.66 245.13 134.16 246.75 127.90 Z" fill="#9be6f7" opacity="1.00" stroke="#9be6f7" stroke-width="0.25"/>
<path d="M 252.08 127.70 C 253.77 128.53 253.87 130.46 254.22 132.07 C 254.98 136.31 255.96 140.64 255.37 144.97 C 255.05 146.84 251.92 147.72 251.55 145.41 C 250.08 139.59 250.55 133.46 252.08 127.70 Z" fill="#99e8fa" opacity="1.00" stroke="#99e8fa" stroke-width="0.25"/>
<path d="M 267.02 128.68 C 268.16 129.44 269.28 130.35 269.42 131.82 C 270.36 135.76 270.85 139.92 270.16 143.94 C 269.58 146.78 265.87 145.30 265.79 143.04 C 265.16 138.23 265.70 133.33 267.02 128.68 Z" fill="#92ecff" opacity="1.00" stroke="#92ecff" stroke-width="0.25"/>
<path d="M 260.10 140.05 C 260.84 136.37 259.83 132.27 261.96 128.97 C 263.92 133.70 263.45 138.95 263.45 143.95 C 263.52 145.41 262.58 148.47 260.65 147.37 C 258.76 145.40 260.03 142.43 260.10 140.05 Z" fill="#98e6f7" opacity="1.00" stroke="#98e6f7" stroke-width="0.25"/>
<path d="M 275.18 130.83 C 276.14 131.69 277.14 132.62 277.27 134.00 C 278.08 137.80 278.75 141.79 277.61 145.60 C 276.55 145.60 275.50 145.60 274.44 145.61 C 272.87 140.76 273.96 135.62 275.18 130.83 Z" fill="#90ebf6" opacity="1.00" stroke="#90ebf6" stroke-width="0.25"/>
<path d="M 240.67 133.30 C 241.44 131.10 242.94 133.84 242.52 135.03 C 242.18 139.34 243.79 144.44 240.70 148.03 C 237.35 143.85 239.56 137.95 240.67 133.30 Z" fill="#98e9f3" opacity="1.00" stroke="#98e9f3" stroke-width="0.25"/>
<path d="M 252.65 148.20 C 253.88 148.80 254.94 149.70 256.01 150.55 C 255.66 150.66 254.96 150.88 254.61 150.99 C 254.60 151.67 254.58 153.03 254.57 153.71 C 254.90 163.25 255.84 172.79 255.60 182.35 C 254.46 182.43 253.32 182.52 252.19 182.61 C 250.88 172.27 252.07 161.82 251.71 151.44 C 251.67 150.28 252.12 149.20 252.65 148.20 Z" fill="#8ce6f8" opacity="1.00" stroke="#8ce6f8" stroke-width="0.25"/>
<path d="M 256.01 150.55 C 261.60 149.46 267.44 151.20 271.97 154.51 C 273.39 155.63 274.75 156.83 276.09 158.05 C 277.85 159.61 279.44 161.36 280.76 163.32 C 284.51 168.71 288.89 173.83 291.29 180.03 C 291.85 184.83 290.58 189.83 292.59 194.45 C 295.38 195.68 298.43 196.07 301.44 196.45 C 315.59 197.82 330.17 197.49 343.78 202.17 C 352.08 205.24 361.03 209.44 365.22 217.72 C 369.17 226.86 366.10 237.06 363.34 246.09 C 356.37 264.97 344.71 281.69 332.52 297.55 C 330.00 301.14 327.04 304.66 325.85 308.97 C 324.51 319.90 324.04 330.92 322.65 341.86 C 320.93 356.23 318.14 370.43 315.42 384.63 C 303.96 385.25 292.47 384.84 281.00 384.99 C 254.67 385.05 228.33 385.04 201.99 384.92 C 198.26 384.83 194.49 385.19 190.81 384.46 C 187.27 368.78 183.81 353.00 182.74 336.92 C 182.24 327.17 180.72 317.49 178.11 308.09 C 176.82 303.28 173.05 299.82 169.96 296.13 C 159.75 285.21 151.00 272.85 144.77 259.23 C 140.80 250.16 137.21 240.76 136.14 230.85 C 135.20 224.68 136.71 217.79 141.33 213.37 C 147.52 206.98 156.13 203.75 164.48 201.25 C 177.16 197.74 190.39 197.90 203.42 197.17 C 203.29 197.65 203.04 198.61 202.92 199.09 C 192.13 199.81 181.25 199.82 170.62 202.00 C 161.63 203.66 152.75 206.85 145.38 212.36 C 141.40 215.34 138.38 219.96 138.13 225.02 C 137.67 232.02 139.49 238.91 141.57 245.54 C 146.28 260.09 153.83 273.66 163.40 285.57 C 167.84 291.16 172.97 296.17 177.27 301.87 C 180.77 306.54 181.20 312.57 182.53 318.07 C 184.52 326.72 184.35 335.64 185.46 344.41 C 186.95 357.31 189.61 370.03 192.50 382.68 C 232.88 382.60 273.27 382.70 313.65 382.65 C 316.87 366.54 320.01 350.38 321.45 334.00 C 322.41 325.66 322.60 317.24 323.79 308.93 C 324.31 305.09 327.02 302.15 329.07 299.04 C 337.43 287.57 346.32 276.38 352.89 263.73 C 359.70 252.00 365.25 238.79 364.82 224.99 C 364.89 218.79 360.74 213.52 355.79 210.23 C 348.37 205.37 339.80 202.49 331.06 201.17 C 319.34 199.09 307.32 199.69 295.62 197.50 C 293.93 196.92 291.40 196.86 290.73 194.87 C 288.70 187.98 287.67 180.53 283.48 174.51 C 282.99 174.50 282.00 174.49 281.50 174.48 C 281.35 175.82 281.20 177.16 281.06 178.51 C 279.00 178.60 276.92 178.53 274.89 178.94 C 273.51 181.14 272.69 183.72 270.69 185.50 C 270.48 185.73 270.05 186.19 269.84 186.42 C 269.28 185.59 268.16 183.95 267.60 183.13 C 267.30 184.56 267.06 186.01 266.87 187.46 C 266.14 184.35 265.65 181.20 265.02 178.08 C 265.71 179.68 266.23 181.35 266.78 183.01 C 271.41 182.24 272.87 177.45 273.17 173.40 C 273.29 174.09 273.53 175.45 273.65 176.14 C 274.30 176.48 275.60 177.15 276.25 177.49 C 277.16 175.70 277.18 173.72 276.79 171.79 C 277.48 172.76 278.18 173.74 278.88 174.72 C 280.56 173.25 282.57 172.30 284.85 172.45 C 280.51 166.49 276.56 159.85 270.37 155.62 C 265.76 152.90 259.50 150.37 254.57 153.71 C 254.58 153.03 254.60 151.67 254.61 150.99 C 254.96 150.88 255.66 150.66 256.01 150.55 Z" fill="#182739" opacity="1.00" stroke="#182739" stroke-width="0.25"/>
<path d="M 237.27 157.37 C 238.79 155.30 238.81 151.87 241.60 151.04 C 242.40 152.88 242.23 154.85 241.89 156.77 C 241.55 159.83 241.92 162.90 242.24 165.94 C 242.23 168.44 242.31 170.95 242.27 173.46 C 242.06 173.80 241.64 174.48 241.43 174.82 C 240.37 174.65 239.31 174.49 238.26 174.27 C 237.56 168.55 238.27 162.80 238.70 157.10 C 238.34 157.16 237.63 157.30 237.27 157.37 Z" fill="#90e9fc" opacity="1.00" stroke="#90e9fc" stroke-width="0.25"/>
<path d="M 274.53 151.24 C 276.31 152.57 277.27 154.61 278.40 156.46 C 277.82 156.86 276.67 157.66 276.09 158.05 C 274.75 156.83 273.39 155.63 271.97 154.51 C 272.82 153.42 273.68 152.33 274.53 151.24 Z" fill="#a6dce6" opacity="1.00" stroke="#a6dce6" stroke-width="0.25"/>
<path d="M 220.42 163.54 C 220.77 159.40 221.10 155.16 222.92 151.35 C 226.19 154.35 223.59 159.46 225.70 163.16 C 224.69 163.83 223.68 164.50 222.69 165.20 C 222.12 164.78 220.98 163.96 220.42 163.54 Z" fill="#9bebfa" opacity="1.00" stroke="#9bebfa" stroke-width="0.25"/>
<path d="M 248.45 153.15 C 249.52 152.55 250.60 151.98 251.71 151.44 C 252.07 161.82 250.88 172.27 252.19 182.61 C 251.63 184.05 251.07 185.49 250.51 186.94 C 251.30 187.29 252.10 187.64 252.88 188.02 C 251.14 197.30 252.75 206.69 251.87 216.03 C 252.03 224.11 252.49 232.19 252.64 240.28 C 251.86 240.31 250.30 240.36 249.52 240.39 C 249.72 231.50 249.33 222.61 249.67 213.72 C 253.03 211.45 250.97 206.34 251.48 202.87 C 251.02 202.29 250.10 201.13 249.64 200.55 C 250.21 192.71 249.24 184.87 249.42 177.02 C 249.26 171.80 250.29 166.41 248.62 161.34 C 248.18 161.46 247.29 161.70 246.85 161.82 C 246.62 163.45 246.38 165.08 246.17 166.72 C 245.02 164.37 245.13 161.77 245.45 159.25 C 247.03 159.56 248.62 159.87 250.21 160.19 C 250.18 158.35 250.15 156.51 250.11 154.67 C 248.12 155.75 245.81 156.51 244.34 158.32 C 243.74 160.88 243.79 163.68 242.24 165.94 C 241.92 162.90 241.55 159.83 241.89 156.77 C 243.03 156.19 244.15 155.58 245.27 154.95 C 246.33 154.35 247.38 153.74 248.45 153.15 Z" fill="#152b44" opacity="1.00" stroke="#152b44" stroke-width="0.25"/>
<path d="M 254.57 153.71 C 259.50 150.37 265.76 152.90 270.37 155.62 C 276.56 159.85 280.51 166.49 284.85 172.45 C 282.57 172.30 280.56 173.25 278.88 174.72 C 278.18 173.74 277.48 172.76 276.79 171.79 C 276.48 169.92 276.11 168.07 275.72 166.22 C 275.17 166.25 274.07 166.32 273.51 166.35 C 273.35 168.69 273.22 171.05 273.17 173.40 C 272.87 177.45 271.41 182.24 266.78 183.01 C 266.23 181.35 265.71 179.68 265.02 178.08 C 264.73 177.51 264.17 176.38 263.89 175.82 C 261.83 179.05 262.53 183.00 262.37 186.63 C 261.93 189.27 261.42 191.92 261.42 194.61 C 260.95 194.62 260.01 194.63 259.54 194.63 C 259.22 194.54 258.58 194.34 258.26 194.25 C 257.98 195.85 257.71 197.45 257.45 199.06 C 257.16 196.36 256.91 193.65 256.16 191.04 C 255.93 190.67 255.46 189.94 255.22 189.58 C 254.48 188.99 253.70 188.48 252.88 188.02 C 252.10 187.64 251.30 187.29 250.51 186.94 C 251.07 185.49 251.63 184.05 252.19 182.61 C 253.32 182.52 254.46 182.43 255.60 182.35 C 255.84 172.79 254.90 163.25 254.57 153.71 Z" fill="#4a3b3e" opacity="1.00" stroke="#4a3b3e" stroke-width="0.25"/>
<path d="M 260.60 153.35 C 261.04 153.43 261.93 153.59 262.37 153.67 C 262.77 157.29 262.94 160.95 262.51 164.58 C 261.46 164.56 260.41 164.54 259.37 164.52 C 258.98 160.75 259.32 156.93 260.60 153.35 Z" fill="#99e7f9" opacity="1.00" stroke="#99e7f9" stroke-width="0.25"/>
<path d="M 229.93 160.43 C 230.65 158.35 231.24 156.08 232.97 154.57 C 233.36 155.70 233.84 156.83 234.13 157.99 C 234.62 161.31 234.39 164.68 234.81 168.00 C 234.40 168.58 233.59 169.74 233.18 170.32 C 232.77 170.35 231.93 170.41 231.52 170.44 C 231.03 170.04 230.06 169.24 229.57 168.84 C 229.72 166.04 230.19 163.24 229.93 160.43 Z" fill="#8fe7fb" opacity="1.00" stroke="#8fe7fb" stroke-width="0.25"/>
<path d="M 244.34 158.32 C 245.81 156.51 248.12 155.75 250.11 154.67 C 250.15 156.51 250.18 158.35 250.21 160.19 C 248.62 159.87 247.03 159.56 245.45 159.25 C 245.13 161.77 245.02 164.37 246.17 166.72 C 246.29 175.34 246.68 184.02 245.69 192.61 C 244.12 188.19 245.03 183.50 244.85 178.93 C 244.76 175.35 244.59 171.76 244.74 168.18 C 244.14 170.03 243.38 171.85 242.27 173.46 C 242.31 170.95 242.23 168.44 242.24 165.94 C 243.79 163.68 243.74 160.88 244.34 158.32 Z" fill="#383143" opacity="1.00" stroke="#383143" stroke-width="0.25"/>
<path d="M 234.13 157.99 C 234.92 157.84 236.49 157.52 237.27 157.37 C 237.63 157.30 238.34 157.16 238.70 157.10 C 238.27 162.80 237.56 168.55 238.26 174.27 C 237.27 172.09 236.22 169.93 234.81 168.00 C 234.39 164.68 234.62 161.31 234.13 157.99 Z" fill="#2c3646" opacity="1.00" stroke="#2c3646" stroke-width="0.25"/>
<path d="M 266.78 161.48 C 266.83 160.34 267.62 159.55 268.42 158.86 C 269.68 164.02 270.13 169.39 269.61 174.68 C 268.61 174.55 267.61 174.42 266.61 174.29 C 266.32 170.03 266.12 165.72 266.78 161.48 Z" fill="#9ee7f8" opacity="1.00" stroke="#9ee7f8" stroke-width="0.25"/>
<path d="M 225.70 163.16 C 227.08 162.21 228.49 161.30 229.93 160.43 C 230.19 163.24 229.72 166.04 229.57 168.84 C 229.09 167.34 228.71 165.80 228.31 164.27 C 227.93 164.39 227.17 164.64 226.78 164.76 C 225.72 166.97 224.69 169.20 223.70 171.44 C 222.99 171.01 222.29 170.58 221.58 170.15 C 222.37 172.76 223.29 175.33 224.35 177.84 C 226.72 177.56 229.10 177.33 231.48 177.14 C 232.42 179.53 233.57 181.83 234.92 184.00 C 236.18 183.29 237.45 182.59 238.67 181.81 C 237.92 184.48 237.75 187.26 237.70 190.03 C 237.26 190.23 236.38 190.64 235.93 190.84 C 235.25 192.07 234.57 193.29 233.89 194.52 C 233.65 189.21 232.51 184.00 230.71 179.01 C 230.36 179.06 229.68 179.17 229.34 179.23 C 227.14 179.58 224.97 180.12 222.81 180.65 C 222.50 178.97 222.18 177.29 221.85 175.62 C 218.48 176.47 217.51 180.14 216.25 182.92 C 214.23 187.54 213.22 192.54 211.04 197.08 C 208.64 198.62 205.67 198.76 202.92 199.09 C 203.04 198.61 203.29 197.65 203.42 197.17 C 205.43 196.51 207.74 196.73 209.57 195.57 C 212.01 191.42 211.79 186.47 212.84 181.92 C 214.99 175.86 217.11 169.00 222.69 165.20 C 223.68 164.50 224.69 163.83 225.70 163.16 Z" fill="#203146" opacity="1.00" stroke="#203146" stroke-width="0.25"/>
<path d="M 246.85 161.82 C 247.29 161.70 248.18 161.46 248.62 161.34 C 250.29 166.41 249.26 171.80 249.42 177.02 C 249.24 184.87 250.21 192.71 249.64 200.55 C 249.19 200.90 248.30 201.59 247.85 201.93 C 244.94 199.69 245.93 195.78 245.69 192.61 C 246.68 184.02 246.29 175.34 246.17 166.72 C 246.38 165.08 246.62 163.45 246.85 161.82 Z" fill="#97ecfc" opacity="1.00" stroke="#97ecfc" stroke-width="0.25"/>
<path d="M 226.78 164.76 C 227.17 164.64 227.93 164.39 228.31 164.27 C 228.71 165.80 229.09 167.34 229.57 168.84 C 230.06 169.24 231.03 170.04 231.52 170.44 C 231.93 170.41 232.77 170.35 233.18 170.32 C 233.59 169.74 234.40 168.58 234.81 168.00 C 236.22 169.93 237.27 172.09 238.26 174.27 C 239.31 174.49 240.37 174.65 241.43 174.82 C 241.64 174.48 242.06 173.80 242.27 173.46 C 243.38 171.85 244.14 170.03 244.74 168.18 C 244.59 171.76 244.76 175.35 244.85 178.93 C 245.03 183.50 244.12 188.19 245.69 192.61 C 245.93 195.78 244.94 199.69 247.85 201.93 C 248.30 201.59 249.19 200.90 249.64 200.55 C 250.10 201.13 251.02 202.29 251.48 202.87 C 250.97 206.34 253.03 211.45 249.67 213.72 C 249.00 213.68 248.34 213.65 247.67 213.62 C 247.47 213.82 247.07 214.23 246.87 214.44 C 246.41 214.90 245.51 215.82 245.06 216.29 C 244.87 217.47 244.69 218.66 244.51 219.85 C 244.04 216.50 242.62 213.43 240.77 210.63 C 240.41 208.91 240.03 207.19 239.62 205.48 C 237.15 207.71 237.63 211.25 237.40 214.24 C 235.96 214.23 234.52 214.22 233.08 214.21 C 233.03 215.80 232.98 217.40 232.98 219.01 C 232.68 215.29 232.90 211.55 233.18 207.83 C 233.24 207.22 233.36 206.00 233.42 205.38 C 233.93 201.95 234.30 198.47 233.91 195.00 L 233.89 194.52 C 234.57 193.29 235.25 192.07 235.93 190.84 C 236.38 190.64 237.26 190.23 237.70 190.03 C 238.90 190.55 240.11 191.08 241.32 191.61 C 243.46 188.25 242.08 184.36 241.11 180.87 C 240.75 180.77 240.03 180.56 239.67 180.45 C 239.42 180.79 238.92 181.47 238.67 181.81 C 237.45 182.59 236.18 183.29 234.92 184.00 C 233.57 181.83 232.42 179.53 231.48 177.14 C 229.10 177.33 226.72 177.56 224.35 177.84 C 223.29 175.33 222.37 172.76 221.58 170.15 C 222.29 170.58 222.99 171.01 223.70 171.44 C 224.69 169.20 225.72 166.97 226.78 164.76 Z" fill="#4b3b3e" opacity="1.00" stroke="#4b3b3e" stroke-width="0.25"/>
<path d="M 273.51 166.35 C 274.07 166.32 275.17 166.25 275.72 166.22 C 276.11 168.07 276.48 169.92 276.79 171.79 C 277.18 173.72 277.16 175.70 276.25 177.49 C 275.60 177.15 274.30 176.48 273.65 176.14 C 273.53 175.45 273.29 174.09 273.17 173.40 C 273.22 171.05 273.35 168.69 273.51 166.35 Z" fill="#94e9fe" opacity="1.00" stroke="#94e9fe" stroke-width="0.25"/>
<path d="M 281.50 174.48 C 282.00 174.49 282.99 174.50 283.48 174.51 C 287.67 180.53 288.70 187.98 290.73 194.87 C 291.40 196.86 293.93 196.92 295.62 197.50 C 307.32 199.69 319.34 199.09 331.06 201.17 C 339.80 202.49 348.37 205.37 355.79 210.23 C 360.74 213.52 364.89 218.79 364.82 224.99 C 365.25 238.79 359.70 252.00 352.89 263.73 C 346.32 276.38 337.43 287.57 329.07 299.04 C 327.02 302.15 324.31 305.09 323.79 308.93 C 322.60 317.24 322.41 325.66 321.45 334.00 C 320.01 350.38 316.87 366.54 313.65 382.65 C 273.27 382.70 232.88 382.60 192.50 382.68 C 189.61 370.03 186.95 357.31 185.46 344.41 C 184.35 335.64 184.52 326.72 182.53 318.07 C 181.20 312.57 180.77 306.54 177.27 301.87 C 172.97 296.17 167.84 291.16 163.40 285.57 C 153.83 273.66 146.28 260.09 141.57 245.54 C 139.49 238.91 137.67 232.02 138.13 225.02 C 138.38 219.96 141.40 215.34 145.38 212.36 C 152.75 206.85 161.63 203.66 170.62 202.00 C 176.79 202.48 182.90 201.53 189.02 200.92 C 196.03 200.18 203.30 201.34 210.12 199.11 C 213.14 198.22 213.58 194.71 214.38 192.15 C 215.56 187.43 217.42 182.91 219.86 178.71 C 221.37 181.73 224.60 181.49 227.47 181.78 C 227.93 187.43 227.03 193.17 227.34 198.87 C 227.84 198.85 228.83 198.81 229.32 198.78 C 230.77 198.72 232.23 198.66 233.68 198.60 C 233.78 197.40 233.85 196.20 233.91 195.00 C 234.30 198.47 233.93 201.95 233.42 205.38 C 232.65 205.25 231.12 204.98 230.35 204.85 C 229.95 204.78 229.16 204.65 228.77 204.58 C 227.93 206.65 227.32 208.96 225.58 210.49 C 221.90 213.86 218.08 217.18 213.60 219.45 C 203.09 224.90 192.30 229.81 181.46 234.56 C 176.26 236.89 170.72 238.38 165.07 239.09 C 165.23 239.70 165.54 240.92 165.70 241.53 C 171.78 240.24 177.71 238.38 183.48 236.07 C 186.73 239.67 190.19 243.19 192.55 247.48 C 195.17 251.96 196.86 256.94 199.69 261.29 C 201.19 263.70 204.17 264.72 206.90 264.46 C 213.26 263.94 219.08 261.16 224.89 258.75 C 227.25 258.43 229.99 259.20 232.12 258.13 C 233.83 253.63 231.52 248.68 232.17 244.02 C 232.59 241.95 233.42 240.00 234.14 238.03 C 234.96 237.85 236.61 237.51 237.43 237.33 C 239.88 238.70 242.57 239.55 245.30 240.16 C 245.84 251.14 245.07 262.13 245.48 273.11 C 245.59 274.76 245.95 276.37 246.30 277.98 C 247.64 277.51 249.00 277.05 250.32 276.51 C 251.67 267.83 250.33 258.97 251.09 250.22 C 251.82 251.38 252.50 252.58 253.38 253.64 C 254.74 254.20 256.08 253.13 257.38 252.82 C 259.27 253.67 262.59 255.09 263.06 251.92 C 263.33 247.07 262.65 242.18 263.57 237.37 C 264.20 237.15 265.46 236.71 266.09 236.49 C 266.41 240.31 266.47 244.15 266.35 247.99 C 267.68 248.14 269.02 248.28 270.36 248.39 C 271.42 248.36 272.49 248.33 273.55 248.28 C 273.78 250.18 273.99 252.10 274.40 253.98 L 275.77 255.12 C 275.98 255.39 276.40 255.93 276.61 256.20 C 274.47 262.46 272.44 269.32 274.24 275.91 C 274.98 279.52 281.16 279.78 281.56 275.88 C 282.14 270.83 280.63 265.85 280.33 260.83 C 280.99 260.52 282.32 259.92 282.98 259.62 C 287.43 261.36 292.02 263.94 296.94 263.31 C 301.19 262.63 302.00 257.94 303.88 254.84 C 307.96 247.87 312.99 241.41 319.05 236.05 C 323.43 237.77 327.89 239.48 332.64 239.84 C 332.54 239.35 332.35 238.36 332.25 237.87 C 322.97 236.52 314.95 231.46 306.73 227.33 C 298.34 223.05 289.98 218.74 281.73 214.21 C 278.23 212.26 273.81 210.64 272.54 206.42 C 270.52 199.77 268.39 192.29 270.69 185.50 C 272.69 183.72 273.51 181.14 274.89 178.94 C 276.92 178.53 279.00 178.60 281.06 178.51 C 281.20 177.16 281.35 175.82 281.50 174.48 Z" fill="#feb595" opacity="1.00" stroke="#feb595" stroke-width="0.25"/>
<path d="M 216.25 182.92 C 217.51 180.14 218.48 176.47 221.85 175.62 C 222.18 177.29 222.50 178.97 222.81 180.65 C 224.97 180.12 227.14 179.58 229.34 179.23 C 229.86 185.74 229.16 192.26 229.32 198.78 C 228.83 198.81 227.84 198.85 227.34 198.87 C 227.03 193.17 227.93 187.43 227.47 181.78 C 224.60 181.49 221.37 181.73 219.86 178.71 C 217.42 182.91 215.56 187.43 214.38 192.15 C 213.58 194.71 213.14 198.22 210.12 199.11 C 203.30 201.34 196.03 200.18 189.02 200.92 C 182.90 201.53 176.79 202.48 170.62 202.00 C 181.25 199.82 192.13 199.81 202.92 199.09 C 205.67 198.76 208.64 198.62 211.04 197.08 C 213.22 192.54 214.23 187.54 216.25 182.92 Z" fill="#dfccb6" opacity="1.00" stroke="#dfccb6" stroke-width="0.25"/>
<path d="M 262.37 186.63 C 262.53 183.00 261.83 179.05 263.89 175.82 C 264.17 176.38 264.73 177.51 265.02 178.08 C 265.65 181.20 266.14 184.35 266.87 187.46 C 267.62 190.44 265.43 192.00 263.01 193.17 C 262.73 190.99 262.51 188.81 262.37 186.63 Z" fill="#93e9fc" opacity="1.00" stroke="#93e9fc" stroke-width="0.25"/>
<path d="M 229.34 179.23 C 229.68 179.17 230.36 179.06 230.71 179.01 C 232.51 184.00 233.65 189.21 233.89 194.52 L 233.91 195.00 C 233.85 196.20 233.78 197.40 233.68 198.60 C 232.23 198.66 230.77 198.72 229.32 198.78 C 229.16 192.26 229.86 185.74 229.34 179.23 Z" fill="#99e9ff" opacity="1.00" stroke="#99e9ff" stroke-width="0.25"/>
<path d="M 239.67 180.45 C 240.03 180.56 240.75 180.77 241.11 180.87 C 242.08 184.36 243.46 188.25 241.32 191.61 C 240.11 191.08 238.90 190.55 237.70 190.03 C 237.75 187.26 237.92 184.48 238.67 181.81 C 238.92 181.47 239.42 180.79 239.67 180.45 Z" fill="#86e4ff" opacity="1.00" stroke="#86e4ff" stroke-width="0.25"/>
<path d="M 267.60 183.13 C 268.16 183.95 269.28 185.59 269.84 186.42 C 268.15 191.78 270.31 197.47 269.03 202.85 C 268.53 205.65 265.17 204.48 264.56 202.36 C 264.18 199.27 263.41 196.25 263.01 193.17 C 265.43 192.00 267.62 190.44 266.87 187.46 C 267.06 186.01 267.30 184.56 267.60 183.13 Z" fill="#86e8fc" opacity="1.00" stroke="#86e8fc" stroke-width="0.25"/>
<path d="M 269.84 186.42 C 270.05 186.19 270.48 185.73 270.69 185.50 C 268.39 192.29 270.52 199.77 272.54 206.42 C 273.81 210.64 278.23 212.26 281.73 214.21 C 289.98 218.74 298.34 223.05 306.73 227.33 C 314.95 231.46 322.97 236.52 332.25 237.87 C 332.35 238.36 332.54 239.35 332.64 239.84 C 327.89 239.48 323.43 237.77 319.05 236.05 C 312.99 241.41 307.96 247.87 303.88 254.84 C 302.00 257.94 301.19 262.63 296.94 263.31 C 292.02 263.94 287.43 261.36 282.98 259.62 C 280.78 258.64 278.57 257.61 276.61 256.20 C 276.40 255.93 275.98 255.39 275.77 255.12 C 274.47 246.86 275.27 238.53 275.99 230.26 C 274.10 231.92 272.09 233.46 269.98 234.82 C 269.92 234.22 269.80 233.01 269.74 232.41 C 271.88 230.76 273.90 228.96 275.63 226.88 C 275.24 226.08 274.85 225.28 274.47 224.48 C 276.34 224.29 278.20 224.10 280.07 223.90 C 279.40 222.85 278.74 221.80 278.08 220.76 C 278.89 220.35 279.70 219.95 280.52 219.55 C 280.22 218.01 280.99 215.66 279.02 215.05 C 276.81 214.26 274.42 214.35 272.11 214.18 C 272.14 214.80 272.20 216.04 272.22 216.66 C 273.23 216.65 274.25 216.64 275.26 216.64 C 273.97 218.48 272.48 220.22 270.42 221.22 C 270.40 217.65 271.20 213.80 269.38 210.52 C 268.38 211.58 267.39 212.64 266.40 213.70 C 265.90 211.52 267.24 209.78 268.60 208.26 C 266.67 206.76 263.52 205.37 264.56 202.36 C 265.17 204.48 268.53 205.65 269.03 202.85 C 270.31 197.47 268.15 191.78 269.84 186.42 Z" fill="#1d2d41" opacity="1.00" stroke="#1d2d41" stroke-width="0.25"/>
<path d="M 262.37 186.63 C 262.51 188.81 262.73 190.99 263.01 193.17 C 263.41 196.25 264.18 199.27 264.56 202.36 C 263.52 205.37 266.67 206.76 268.60 208.26 C 267.24 209.78 265.90 211.52 266.40 213.70 C 266.47 216.21 266.56 218.71 266.68 221.21 C 267.27 221.41 268.45 221.82 269.04 222.02 C 269.39 221.82 270.08 221.42 270.42 221.22 C 272.48 220.22 273.97 218.48 275.26 216.64 C 274.25 216.64 273.23 216.65 272.22 216.66 C 272.20 216.04 272.14 214.80 272.11 214.18 C 274.42 214.35 276.81 214.26 279.02 215.05 C 280.99 215.66 280.22 218.01 280.52 219.55 C 279.70 219.95 278.89 220.35 278.08 220.76 C 278.74 221.80 279.40 222.85 280.07 223.90 C 278.20 224.10 276.34 224.29 274.47 224.48 C 274.85 225.28 275.24 226.08 275.63 226.88 C 273.90 228.96 271.88 230.76 269.74 232.41 C 269.56 230.82 269.39 229.25 269.22 227.67 C 268.81 227.57 267.99 227.37 267.58 227.27 C 267.01 230.28 266.68 233.32 266.37 236.37 L 266.09 236.49 C 265.46 236.71 264.20 237.15 263.57 237.37 C 263.10 237.53 262.17 237.86 261.70 238.03 C 261.60 233.16 262.06 228.08 260.06 223.50 C 259.73 224.25 259.07 225.75 258.74 226.50 C 257.63 225.25 256.81 223.72 257.00 221.99 C 257.51 211.65 255.91 201.38 256.16 191.04 C 256.91 193.65 257.16 196.36 257.45 199.06 C 257.71 197.45 257.98 195.85 258.26 194.25 C 258.58 194.34 259.22 194.54 259.54 194.63 C 259.54 196.61 259.47 198.59 259.43 200.57 C 259.98 200.60 261.09 200.66 261.64 200.69 C 261.57 198.66 261.46 196.64 261.42 194.61 C 261.42 191.92 261.93 189.27 262.37 186.63 Z" fill="#302e3e" opacity="1.00" stroke="#302e3e" stroke-width="0.25"/>
<path d="M 252.88 188.02 C 253.70 188.48 254.48 188.99 255.22 189.58 C 255.93 197.35 255.35 205.16 255.48 212.95 C 255.62 221.75 255.69 230.55 255.83 239.35 C 255.81 243.47 255.87 247.61 255.36 251.70 C 253.87 248.07 254.40 244.08 253.99 240.26 C 253.65 240.27 252.98 240.28 252.64 240.28 C 252.49 232.19 252.03 224.11 251.87 216.03 C 252.75 206.69 251.14 197.30 252.88 188.02 Z" fill="#91eafd" opacity="1.00" stroke="#91eafd" stroke-width="0.25"/>
<path d="M 255.22 189.58 C 255.46 189.94 255.93 190.67 256.16 191.04 C 255.91 201.38 257.51 211.65 257.00 221.99 C 256.81 223.72 257.63 225.25 258.74 226.50 C 258.54 230.74 258.41 234.98 258.39 239.23 C 257.75 239.26 256.47 239.32 255.83 239.35 C 255.69 230.55 255.62 221.75 255.48 212.95 C 255.35 205.16 255.93 197.35 255.22 189.58 Z" fill="#152b44" opacity="1.00" stroke="#152b44" stroke-width="0.25"/>
<path d="M 259.54 194.63 C 260.01 194.63 260.95 194.62 261.42 194.61 C 261.46 196.64 261.57 198.66 261.64 200.69 C 261.09 200.66 259.98 200.60 259.43 200.57 C 259.47 198.59 259.54 196.61 259.54 194.63 Z" fill="#b3eef6" opacity="1.00" stroke="#b3eef6" stroke-width="0.25"/>
<path d="M 228.77 204.58 C 229.16 204.65 229.95 204.78 230.35 204.85 C 230.27 205.53 230.12 206.89 230.04 207.57 C 229.57 215.41 227.67 223.34 229.26 231.16 C 229.78 236.61 230.78 242.03 230.60 247.53 C 230.16 251.37 230.62 256.29 226.38 258.15 C 226.01 258.30 225.26 258.60 224.89 258.75 C 219.08 261.16 213.26 263.94 206.90 264.46 C 204.17 264.72 201.19 263.70 199.69 261.29 C 196.86 256.94 195.17 251.96 192.55 247.48 C 190.19 243.19 186.73 239.67 183.48 236.07 C 177.71 238.38 171.78 240.24 165.70 241.53 C 165.54 240.92 165.23 239.70 165.07 239.09 C 170.72 238.38 176.26 236.89 181.46 234.56 C 192.30 229.81 203.09 224.90 213.60 219.45 C 218.08 217.18 221.90 213.86 225.58 210.49 C 227.32 208.96 227.93 206.65 228.77 204.58 Z" fill="#212f41" opacity="1.00" stroke="#212f41" stroke-width="0.25"/>
<path d="M 230.35 204.85 C 231.12 204.98 232.65 205.25 233.42 205.38 C 233.36 206.00 233.24 207.22 233.18 207.83 C 232.39 207.77 230.82 207.64 230.04 207.57 C 230.12 206.89 230.27 205.53 230.35 204.85 Z" fill="#bdbec1" opacity="1.00" stroke="#bdbec1" stroke-width="0.25"/>
<path d="M 237.40 214.24 C 237.63 211.25 237.15 207.71 239.62 205.48 C 240.03 207.19 240.41 208.91 240.77 210.63 C 241.52 216.52 241.75 222.47 241.67 228.40 C 240.28 228.84 238.65 230.23 237.55 228.54 C 236.80 223.82 237.41 219.00 237.40 214.24 Z" fill="#91e7f9" opacity="1.00" stroke="#91e7f9" stroke-width="0.25"/>
<path d="M 259.52 219.47 C 259.90 214.97 258.95 209.47 262.11 205.84 C 263.61 210.08 263.76 214.72 263.25 219.16 C 262.22 220.13 260.74 219.45 259.52 219.47 Z" fill="#91e7fa" opacity="1.00" stroke="#91e7fa" stroke-width="0.25"/>
<path d="M 229.26 231.16 C 227.67 223.34 229.57 215.41 230.04 207.57 C 230.82 207.64 232.39 207.77 233.18 207.83 C 232.90 211.55 232.68 215.29 232.98 219.01 C 233.34 224.11 233.69 229.22 233.72 234.35 C 232.23 233.28 230.71 232.26 229.26 231.16 Z" fill="#8be7fd" opacity="1.00" stroke="#8be7fd" stroke-width="0.25"/>
<path d="M 240.77 210.63 C 242.62 213.43 244.04 216.50 244.51 219.85 C 244.69 218.66 244.87 217.47 245.06 216.29 C 245.51 215.82 246.41 214.90 246.87 214.44 C 246.35 223.04 245.51 231.62 245.78 240.25 L 245.30 240.16 C 242.57 239.55 239.88 238.70 237.43 237.33 C 236.17 236.36 234.97 235.31 233.72 234.35 C 233.69 229.22 233.34 224.11 232.98 219.01 C 232.98 217.40 233.03 215.80 233.08 214.21 C 234.52 214.22 235.96 214.23 237.40 214.24 C 237.41 219.00 236.80 223.82 237.55 228.54 C 238.65 230.23 240.28 228.84 241.67 228.40 C 241.75 222.47 241.52 216.52 240.77 210.63 Z" fill="#1c2d40" opacity="1.00" stroke="#1c2d40" stroke-width="0.25"/>
<path d="M 266.40 213.70 C 267.39 212.64 268.38 211.58 269.38 210.52 C 271.20 213.80 270.40 217.65 270.42 221.22 C 270.08 221.42 269.39 221.82 269.04 222.02 C 268.45 221.82 267.27 221.41 266.68 221.21 C 266.56 218.71 266.47 216.21 266.40 213.70 Z" fill="#94ecfc" opacity="1.00" stroke="#94ecfc" stroke-width="0.25"/>
<path d="M 247.67 213.62 C 248.34 213.65 249.00 213.68 249.67 213.72 C 249.33 222.61 249.72 231.50 249.52 240.39 C 248.27 240.41 247.02 240.37 245.78 240.25 C 245.51 231.62 246.35 223.04 246.87 214.44 C 247.07 214.23 247.47 213.82 247.67 213.62 Z" fill="#93eafc" opacity="1.00" stroke="#93eafc" stroke-width="0.25"/>
<path d="M 217.31 219.83 C 218.67 218.89 220.04 217.96 221.41 217.03 C 222.73 221.15 224.76 224.95 226.87 228.71 C 224.74 228.19 222.38 227.90 220.73 226.33 C 218.86 224.62 218.20 222.09 217.31 219.83 Z" fill="#f5b293" opacity="1.00" stroke="#f5b293" stroke-width="0.25"/>
<path d="M 283.99 217.94 C 285.26 218.60 286.53 219.26 287.81 219.92 C 286.54 223.40 283.28 225.22 279.91 226.16 C 281.42 223.50 282.87 220.80 283.99 217.94 Z" fill="#dfccb6" opacity="1.00" stroke="#dfccb6" stroke-width="0.25"/>
<path d="M 289.58 220.47 C 298.72 225.45 307.94 230.31 317.26 234.96 C 309.41 241.85 303.27 250.65 299.00 260.16 C 297.43 260.77 295.81 261.79 294.05 261.30 C 289.61 260.48 285.47 258.57 281.42 256.65 C 279.83 255.86 277.83 254.92 277.65 252.91 C 276.62 244.90 277.34 236.79 278.29 228.80 C 282.86 227.36 287.99 225.55 289.58 220.47 Z" fill="#feffff" opacity="1.00" stroke="#feffff" stroke-width="0.25"/>
<path d="M 185.17 234.90 C 195.68 230.89 205.62 225.54 215.69 220.56 C 216.55 226.05 221.07 230.46 226.74 230.57 C 228.37 238.69 229.35 247.15 227.55 255.34 C 220.93 258.30 214.26 261.50 206.99 262.41 C 203.94 262.93 200.97 260.85 200.01 258.00 C 196.44 249.51 191.87 241.32 185.17 234.90 Z" fill="#feffff" opacity="1.00" stroke="#feffff" stroke-width="0.25"/>
<path d="M 258.74 226.50 C 259.07 225.75 259.73 224.25 260.06 223.50 C 262.06 228.08 261.60 233.16 261.70 238.03 C 261.50 241.97 262.21 245.90 261.85 249.83 C 261.97 251.31 258.98 251.35 258.84 249.99 C 258.08 246.46 258.51 242.81 258.39 239.23 C 258.41 234.98 258.54 230.74 258.74 226.50 Z" fill="#9decfa" opacity="1.00" stroke="#9decfa" stroke-width="0.25"/>
<path d="M 267.58 227.27 C 267.99 227.37 268.81 227.57 269.22 227.67 C 269.39 229.25 269.56 230.82 269.74 232.41 C 269.80 233.01 269.92 234.22 269.98 234.82 C 270.47 239.33 270.47 243.86 270.36 248.39 C 269.02 248.28 267.68 248.14 266.35 247.99 C 266.47 244.15 266.41 240.31 266.09 236.49 L 266.37 236.37 C 266.68 233.32 267.01 230.28 267.58 227.27 Z" fill="#9cebf3" opacity="1.00" stroke="#9cebf3" stroke-width="0.25"/>
<path d="M 269.98 234.82 C 272.09 233.46 274.10 231.92 275.99 230.26 C 275.27 238.53 274.47 246.86 275.77 255.12 L 274.40 253.98 C 273.99 252.10 273.78 250.18 273.55 248.28 C 272.49 248.33 271.42 248.36 270.36 248.39 C 270.47 243.86 270.47 239.33 269.98 234.82 Z" fill="#f3b197" opacity="1.00" stroke="#f3b197" stroke-width="0.25"/>
<path d="M 229.26 231.16 C 230.71 232.26 232.23 233.28 233.72 234.35 C 234.97 235.31 236.17 236.36 237.43 237.33 C 236.61 237.51 234.96 237.85 234.14 238.03 C 233.42 240.00 232.59 241.95 232.17 244.02 C 231.52 248.68 233.83 253.63 232.12 258.13 C 229.99 259.20 227.25 258.43 224.89 258.75 C 225.26 258.60 226.01 258.30 226.38 258.15 C 228.05 257.74 229.74 257.43 231.43 257.13 C 231.77 253.90 231.48 250.66 230.60 247.53 C 230.78 242.03 229.78 236.61 229.26 231.16 Z" fill="#dfccb6" opacity="1.00" stroke="#dfccb6" stroke-width="0.25"/>
<path d="M 280.46 232.31 C 281.02 232.32 282.13 232.34 282.69 232.34 C 284.57 236.58 285.62 241.41 285.38 246.05 C 285.45 249.10 280.50 248.66 280.53 245.99 C 280.13 241.44 280.39 236.87 280.46 232.31 Z" fill="#95e8f6" opacity="1.00" stroke="#95e8f6" stroke-width="0.25"/>
<path d="M 223.22 236.12 C 225.49 237.46 224.90 240.76 225.34 243.02 C 225.21 246.14 226.25 250.66 223.01 252.52 C 219.73 252.60 220.08 248.79 220.35 246.57 C 221.09 243.08 221.22 239.16 223.22 236.12 Z" fill="#97ebfa" opacity="1.00" stroke="#97ebfa" stroke-width="0.25"/>
<path d="M 261.70 238.03 C 262.17 237.86 263.10 237.53 263.57 237.37 C 262.65 242.18 263.33 247.07 263.06 251.92 C 262.59 255.09 259.27 253.67 257.38 252.82 C 256.08 253.13 254.74 254.20 253.38 253.64 C 252.50 252.58 251.82 251.38 251.09 250.22 C 250.33 258.97 251.67 267.83 250.32 276.51 C 249.39 269.36 249.91 262.14 249.69 254.95 C 249.67 250.22 249.24 245.47 249.82 240.76 C 250.40 240.67 251.58 240.48 252.17 240.39 C 253.52 244.44 252.81 248.83 254.04 252.90 C 254.82 252.76 255.26 252.36 255.36 251.70 C 255.87 247.61 255.81 243.47 255.83 239.35 C 256.47 239.32 257.75 239.26 258.39 239.23 C 258.51 242.81 258.08 246.46 258.84 249.99 C 258.98 251.35 261.97 251.31 261.85 249.83 C 262.21 245.90 261.50 241.97 261.70 238.03 Z" fill="#dfbba5" opacity="1.00" stroke="#dfbba5" stroke-width="0.25"/>
<path d="M 245.30 240.16 L 245.78 240.25 C 247.02 240.37 248.27 240.41 249.52 240.39 C 250.30 240.36 251.86 240.31 252.64 240.28 C 252.98 240.28 253.65 240.27 253.99 240.26 C 254.40 244.08 253.87 248.07 255.36 251.70 C 255.26 252.36 254.82 252.76 254.04 252.90 C 252.81 248.83 253.52 244.44 252.17 240.39 C 251.58 240.48 250.40 240.67 249.82 240.76 C 249.24 245.47 249.67 250.22 249.69 254.95 C 249.91 262.14 249.39 269.36 250.32 276.51 C 249.00 277.05 247.64 277.51 246.30 277.98 C 245.95 276.37 245.59 274.76 245.48 273.11 C 245.07 262.13 245.84 251.14 245.30 240.16 Z" fill="#b4e5e9" opacity="1.00" stroke="#b4e5e9" stroke-width="0.25"/>
<path d="M 238.31 244.19 C 239.46 241.92 240.87 244.76 240.88 246.01 C 241.62 248.95 241.47 252.02 241.45 255.04 C 240.62 255.82 239.80 256.60 238.98 257.39 C 238.36 257.08 237.13 256.46 236.52 256.15 C 236.57 252.15 236.83 247.91 238.31 244.19 Z" fill="#9fe6f3" opacity="1.00" stroke="#9fe6f3" stroke-width="0.25"/>
<path d="M 246.84 251.99 C 246.87 249.88 246.75 247.67 247.70 245.73 C 248.39 252.12 248.05 258.58 248.66 264.98 C 248.84 268.27 249.63 271.79 248.08 274.89 C 247.12 273.74 246.64 272.43 246.65 270.95 C 246.46 264.63 246.85 258.31 246.84 251.99 Z" fill="#97eaf9" opacity="1.00" stroke="#97eaf9" stroke-width="0.25"/>
<path d="M 226.38 258.15 C 230.62 256.29 230.16 251.37 230.60 247.53 C 231.48 250.66 231.77 253.90 231.43 257.13 C 229.74 257.43 228.05 257.74 226.38 258.15 Z" fill="#a6dce6" opacity="1.00" stroke="#a6dce6" stroke-width="0.25"/>
<path d="M 276.61 256.20 C 278.57 257.61 280.78 258.64 282.98 259.62 C 282.32 259.92 280.99 260.52 280.33 260.83 C 280.63 265.85 282.14 270.83 281.56 275.88 C 281.16 279.78 274.98 279.52 274.24 275.91 C 272.44 269.32 274.47 262.46 276.61 256.20 Z" fill="#d1cfc4" opacity="1.00" stroke="#d1cfc4" stroke-width="0.25"/>
<path d="M 264.21 258.41 C 265.40 258.38 266.58 258.36 267.77 258.33 C 268.93 261.77 268.49 265.42 268.53 268.98 C 268.54 274.56 268.71 280.13 268.55 285.71 C 267.00 288.10 264.12 287.73 262.50 285.63 C 262.22 280.40 262.27 275.09 263.26 269.93 C 263.83 266.10 262.92 262.13 264.21 258.41 Z" fill="#bdd4d0" opacity="1.00" stroke="#bdd4d0" stroke-width="0.25"/>
<path d="M 276.55 262.19 C 276.92 262.01 277.66 261.66 278.03 261.48 C 280.69 265.51 279.33 271.02 279.67 275.68 C 278.57 275.67 277.48 275.66 276.39 275.65 C 275.39 271.22 275.90 266.63 276.55 262.19 Z" fill="#8dedff" opacity="1.00" stroke="#8dedff" stroke-width="0.25"/>
<path d="M 226.36 264.35 C 227.12 262.47 230.08 263.74 230.52 265.36 C 230.83 268.89 230.69 272.46 230.49 276.00 C 230.37 277.66 228.59 278.88 226.99 278.72 C 224.29 279.40 223.45 276.00 223.71 274.00 C 224.37 270.73 225.18 267.47 226.36 264.35 Z" fill="#d1c9bd" opacity="1.00" stroke="#d1c9bd" stroke-width="0.25"/>
<path d="M 238.65 263.86 C 241.81 267.05 241.62 271.89 241.71 276.06 C 241.59 282.75 242.06 289.47 241.46 296.14 C 240.24 298.52 237.44 299.01 235.44 297.28 C 235.08 286.06 235.98 274.76 238.65 263.86 Z" fill="#93e9fd" opacity="1.00" stroke="#93e9fd" stroke-width="0.25"/>
<path d="M 264.57 270.02 C 264.48 267.60 264.68 265.13 265.98 263.02 C 268.23 267.70 267.05 273.03 267.40 278.02 C 267.38 280.53 268.19 285.00 264.41 284.81 C 264.08 279.88 264.72 274.95 264.57 270.02 Z" fill="#8aebff" opacity="1.00" stroke="#8aebff" stroke-width="0.25"/>
<path d="M 226.40 268.27 C 226.54 267.00 227.68 266.49 228.65 265.94 C 229.45 269.54 229.66 273.81 226.97 276.72 C 224.74 274.39 225.64 271.01 226.40 268.27 Z" fill="#8aebfd" opacity="1.00" stroke="#8aebfd" stroke-width="0.25"/>
<path d="M 256.78 276.76 C 255.07 273.68 255.07 269.65 256.88 266.62 L 258.10 266.30 C 260.75 268.45 259.31 272.27 259.63 275.22 C 258.92 275.60 257.49 276.37 256.78 276.76 Z" fill="#91ecfb" opacity="1.00" stroke="#91ecfb" stroke-width="0.25"/>
<path d="M 250.51 288.44 C 251.49 288.42 252.48 288.41 253.47 288.40 C 254.81 294.63 255.36 301.37 253.78 307.59 C 252.59 307.57 251.39 307.57 250.20 307.57 C 248.60 301.38 249.02 294.63 250.51 288.44 Z" fill="#88eefd" opacity="1.00" stroke="#88eefd" stroke-width="0.25"/>
<path d="M 264.32 297.20 C 264.85 297.27 265.93 297.41 266.47 297.48 C 267.03 299.27 267.57 301.10 267.57 303.00 C 267.68 308.65 269.01 314.32 268.02 319.96 C 267.73 321.53 266.02 322.03 264.94 322.92 C 263.01 320.72 263.52 317.72 263.47 315.05 C 263.68 309.10 263.14 303.08 264.32 297.20 Z" fill="#92ecfa" opacity="1.00" stroke="#92ecfa" stroke-width="0.25"/>
<path d="M 236.49 303.43 C 238.19 303.50 239.90 303.48 241.59 303.75 C 245.32 306.48 244.28 311.58 244.45 315.57 C 243.07 316.17 241.70 316.77 240.31 317.35 C 238.98 321.73 241.41 326.47 239.51 330.67 C 238.04 333.14 235.85 329.73 235.82 328.09 C 235.84 324.08 236.70 320.07 236.09 316.06 C 235.48 311.85 235.79 307.60 236.49 303.43 Z" fill="#ade3e6" opacity="1.00" stroke="#ade3e6" stroke-width="0.25"/>
<path d="M 238.32 305.27 C 239.39 305.28 240.46 305.29 241.54 305.31 C 242.24 308.38 242.64 311.51 242.80 314.67 C 241.32 315.17 239.84 315.65 238.34 316.10 C 237.82 312.50 237.88 308.87 238.32 305.27 Z" fill="#91e7fb" opacity="1.00" stroke="#91e7fb" stroke-width="0.25"/>
<path d="M 248.60 315.39 C 249.58 315.39 250.58 315.40 251.57 315.41 C 253.54 323.45 253.82 331.73 253.68 339.96 C 254.12 346.18 253.68 352.39 253.51 358.61 C 253.31 361.68 252.28 365.74 248.55 365.86 C 245.95 361.74 245.42 356.76 245.26 352.01 C 245.13 339.75 244.58 327.17 248.60 315.39 Z" fill="#8beafc" opacity="1.00" stroke="#8beafc" stroke-width="0.25"/>
<path d="M 263.60 327.40 C 267.49 326.61 267.80 331.25 268.10 333.94 C 268.81 343.81 270.26 353.70 269.42 363.62 C 268.68 366.38 264.25 366.39 262.87 364.18 C 260.96 357.25 262.43 350.06 262.25 343.01 C 262.09 337.76 263.27 332.62 263.60 327.40 Z" fill="#bed2d0" opacity="1.00" stroke="#bed2d0" stroke-width="0.25"/>
<path d="M 264.78 334.05 C 265.00 333.71 265.44 333.02 265.67 332.68 C 268.28 341.58 267.20 350.92 267.63 360.05 C 267.75 361.42 267.62 362.96 265.97 363.23 C 264.08 362.69 264.24 360.56 263.99 359.01 C 263.39 350.68 264.30 342.34 264.78 334.05 Z" fill="#85efff" opacity="1.00" stroke="#85efff" stroke-width="0.25"/>
<path d="M 236.40 339.36 C 237.98 338.83 238.64 340.56 239.10 341.74 C 240.73 347.05 240.43 352.68 241.40 358.12 C 241.82 361.01 241.39 365.08 238.18 366.20 C 236.21 367.45 234.48 365.07 233.61 363.57 C 232.73 357.33 234.75 351.21 235.22 345.02 C 235.49 343.12 235.32 341.04 236.40 339.36 Z" fill="#c3d3cb" opacity="1.00" stroke="#c3d3cb" stroke-width="0.25"/>
<path d="M 237.00 344.62 C 239.72 349.63 239.71 355.51 239.47 361.06 C 239.80 362.67 237.40 364.92 236.30 362.84 C 234.80 361.29 235.76 358.85 235.91 356.98 C 236.90 352.92 236.19 348.70 237.00 344.62 Z" fill="#86efff" opacity="1.00" stroke="#86efff" stroke-width="0.25"/>
</svg>