<svg xmlns="http://www.w3.org/2000/svg" height="512pt" version="1.1" viewBox="0 0 512 512" width="512pt">

<path d="M 318.70 52.54 C 330.54 49.75 343.47 51.73 353.87 58.07 C 365.03 64.60 373.22 75.89 376.31 88.41 C 378.55 98.09 377.77 108.59 373.60 117.65 C 369.50 125.94 362.70 133.14 354.05 136.66 C 354.99 143.75 356.21 150.83 356.24 158.01 C 356.49 186.24 343.97 214.04 323.38 233.22 C 323.44 233.46 323.56 233.94 323.63 234.17 C 340.92 242.33 357.00 253.04 371.34 265.67 C 386.40 279.10 400.26 294.35 409.60 312.38 C 414.65 322.08 418.10 333.52 415.20 344.40 C 412.61 353.59 403.34 359.11 394.35 360.44 C 405.13 378.83 403.19 402.10 394.62 420.95 C 391.41 427.96 387.27 434.52 382.73 440.75 C 377.37 447.40 371.29 454.24 362.85 456.85 C 349.32 461.27 334.23 461.05 320.83 456.26 C 308.85 452.05 298.97 443.06 292.90 431.99 C 274.87 435.82 256.37 438.20 237.92 436.74 C 225.90 436.33 214.07 434.09 202.32 431.68 C 195.85 444.06 184.35 453.67 170.99 457.78 C 159.20 461.51 146.04 463.29 134.19 458.87 C 128.39 456.73 123.04 453.48 118.36 449.45 C 106.27 438.99 96.76 425.37 91.72 410.15 C 86.20 392.09 88.61 371.57 99.30 355.84 C 95.40 352.08 92.14 347.49 91.02 342.10 C 88.72 330.99 91.81 319.54 96.70 309.55 C 106.66 289.16 122.40 272.10 140.12 258.15 C 151.45 249.24 163.83 241.70 176.68 235.17 C 156.97 219.53 142.09 197.07 138.39 171.91 C 136.32 160.80 137.37 149.48 138.88 138.38 C 127.05 133.01 116.46 123.10 112.84 110.32 C 107.03 88.31 121.38 63.66 142.78 56.64 C 156.43 51.86 172.31 54.53 183.86 63.15 C 186.76 65.27 188.89 68.25 191.79 70.36 C 224.26 54.74 263.68 52.54 296.91 67.15 C 301.93 59.70 309.98 54.53 318.70 52.54 Z" fill="#042c49" opacity="1.00" stroke="#042c49" stroke-width="0.25" data-index="1"></path>
<path d="M 304.76 65.76 C 309.53 61.19 315.72 58.31 322.18 57.10 C 322.93 58.56 323.04 60.58 324.45 61.59 C 329.74 62.68 335.35 61.70 340.53 63.53 C 348.12 66.12 354.68 71.10 360.17 76.85 C 364.56 81.36 367.43 87.03 371.12 92.08 C 371.14 91.54 371.18 90.48 371.20 89.94 C 372.25 93.50 372.46 97.23 372.29 100.92 C 367.00 103.20 361.53 105.24 355.74 105.68 C 355.79 105.24 355.88 104.36 355.92 103.92 C 360.40 90.95 352.74 75.74 340.04 70.98 C 334.64 68.91 328.30 68.54 322.96 70.95 C 317.79 73.42 315.45 78.99 313.00 83.80 C 326.62 91.35 336.69 103.48 348.92 112.89 C 345.97 116.13 342.90 119.71 342.09 124.14 C 342.20 129.75 348.02 133.39 348.16 139.06 C 348.50 147.13 346.67 155.10 344.99 162.95 C 342.57 174.54 336.68 185.14 329.25 194.25 C 320.06 204.96 308.55 213.38 296.50 220.59 C 294.64 221.73 292.47 222.07 290.34 222.34 C 295.29 215.97 299.18 208.26 298.81 199.99 C 299.26 188.12 291.39 177.43 281.54 171.55 C 268.96 163.99 253.49 162.67 239.27 165.19 C 223.02 168.28 208.35 179.00 200.61 193.63 C 195.25 203.72 196.72 216.90 204.50 225.35 C 197.50 224.13 191.44 220.22 185.52 216.52 C 173.39 208.52 163.63 197.30 155.90 185.09 C 150.49 175.95 145.42 165.90 145.60 155.01 C 145.74 149.35 146.57 143.67 148.31 138.28 C 149.72 133.40 156.36 131.57 156.10 125.98 C 156.34 120.69 150.14 119.22 146.18 117.89 C 148.68 109.50 155.23 103.23 161.45 97.44 C 165.02 93.99 169.76 92.16 173.49 88.95 C 172.64 83.95 170.69 78.62 166.26 75.73 C 161.98 72.69 156.36 72.05 151.35 73.40 C 141.31 75.58 133.39 84.31 131.68 94.38 C 126.87 91.91 123.41 87.68 120.54 83.22 C 124.60 74.60 131.45 67.38 140.10 63.30 C 141.30 64.54 142.01 66.91 144.11 66.68 C 150.99 66.71 157.89 64.54 164.73 66.25 C 171.69 67.25 177.56 71.36 182.92 75.64 C 183.85 74.44 184.78 73.23 185.71 72.03 C 187.44 73.97 189.37 75.75 191.64 77.03 C 188.38 78.93 185.18 81.35 184.35 85.27 C 191.24 85.96 197.45 82.44 204.01 81.06 C 220.39 77.18 237.07 73.71 254.00 74.19 C 261.96 73.87 269.82 75.66 277.77 75.30 C 277.77 74.46 277.77 72.79 277.76 71.96 C 263.18 66.56 247.38 65.98 232.01 66.75 C 219.64 67.43 207.69 71.03 196.00 74.89 C 197.36 74.00 198.74 73.13 200.22 72.42 C 227.45 60.90 259.01 59.01 287.04 68.89 C 290.90 70.16 294.53 72.49 298.65 72.78 C 300.82 70.56 302.51 67.90 304.76 65.76 Z" fill="#cc7e52" opacity="1.00" stroke="#cc7e52" stroke-width="0.25" data-index="2"></path>
<path d="M 322.18 57.10 C 333.34 55.22 345.18 58.11 354.38 64.65 C 362.85 70.59 369.10 79.80 371.20 89.94 C 371.18 90.48 371.14 91.54 371.12 92.08 C 367.43 87.03 364.56 81.36 360.17 76.85 C 354.68 71.10 348.12 66.12 340.53 63.53 C 335.35 61.70 329.74 62.68 324.45 61.59 C 323.04 60.58 322.93 58.56 322.18 57.10 Z" fill="#fdbb9d" opacity="1.00" stroke="#fdbb9d" stroke-width="0.25" data-index="3"></path>
<path d="M 140.10 63.30 C 155.02 56.33 174.73 59.43 185.71 72.03 C 184.78 73.23 183.85 74.44 182.92 75.64 C 177.56 71.36 171.69 67.25 164.73 66.25 C 157.89 64.54 150.99 66.71 144.11 66.68 C 142.01 66.91 141.30 64.54 140.10 63.30 Z" fill="#fdbb9d" opacity="1.00" stroke="#fdbb9d" stroke-width="0.25" data-index="4"></path>
<path d="M 196.00 74.89 C 207.69 71.03 219.64 67.43 232.01 66.75 C 247.38 65.98 263.18 66.56 277.76 71.96 C 277.77 72.79 277.77 74.46 277.77 75.30 C 269.82 75.66 261.96 73.87 254.00 74.19 C 237.07 73.71 220.39 77.18 204.01 81.06 C 197.45 82.44 191.24 85.96 184.35 85.27 C 185.18 81.35 188.38 78.93 191.64 77.03 C 193.01 76.17 194.47 75.44 196.00 74.89 Z" fill="#fdbb9d" opacity="1.00" stroke="#fdbb9d" stroke-width="0.25" data-index="5"></path>
<path d="M 322.96 70.95 C 328.30 68.54 334.64 68.91 340.04 70.98 C 352.74 75.74 360.40 90.95 355.92 103.92 C 354.24 107.37 351.62 110.21 348.92 112.89 C 336.69 103.48 326.62 91.35 313.00 83.80 C 315.45 78.99 317.79 73.42 322.96 70.95 Z" fill="#042c49" opacity="1.00" stroke="#042c49" stroke-width="0.25" data-index="6"></path>
<path d="M 151.35 73.40 C 156.36 72.05 161.98 72.69 166.26 75.73 C 170.69 78.62 172.64 83.95 173.49 88.95 C 169.76 92.16 165.02 93.99 161.45 97.44 C 155.23 103.23 148.68 109.50 146.18 117.89 C 145.16 118.50 144.15 119.13 143.07 119.61 C 139.45 117.48 136.59 114.21 134.34 110.71 C 131.26 105.88 131.18 99.90 131.68 94.38 C 133.39 84.31 141.31 75.58 151.35 73.40 Z" fill="#042c49" opacity="1.00" stroke="#042c49" stroke-width="0.25" data-index="7"></path>
<path d="M 321.37 75.86 C 326.48 71.58 333.91 71.55 339.75 74.33 C 350.50 78.87 357.12 92.12 352.80 103.28 C 352.23 97.35 350.04 91.49 345.72 87.28 C 339.45 80.41 330.28 77.42 321.37 75.86 Z" fill="#ffe1c4" opacity="1.00" stroke="#ffe1c4" stroke-width="0.25" data-index="8"></path>
<path d="M 140.38 83.38 C 145.17 77.71 153.26 74.64 160.54 76.45 C 164.08 77.23 166.61 80.00 168.64 82.81 C 163.27 83.83 157.67 84.83 153.14 88.11 C 145.95 93.35 138.99 99.69 135.97 108.31 C 133.13 99.98 134.36 90.03 140.38 83.38 Z" fill="#ffe1c4" opacity="1.00" stroke="#ffe1c4" stroke-width="0.25" data-index="9"></path>
<path d="M 317.06 83.34 C 318.21 80.71 319.31 77.94 321.37 75.86 C 330.28 77.42 339.45 80.41 345.72 87.28 C 350.04 91.49 352.23 97.35 352.80 103.28 C 351.88 105.60 350.36 107.61 348.98 109.67 C 343.14 104.64 337.35 99.55 331.83 94.17 C 327.43 89.89 322.30 86.50 317.06 83.34 Z" fill="#fdbb9d" opacity="1.00" stroke="#fdbb9d" stroke-width="0.25" data-index="10"></path>
<path d="M 238.93 81.94 C 265.18 79.02 292.95 84.65 314.69 100.05 C 313.79 100.87 312.85 101.63 311.85 102.33 C 308.51 102.27 305.47 100.66 302.37 99.62 C 281.51 91.90 258.96 88.69 236.80 90.69 C 232.55 91.09 228.37 92.21 224.10 92.21 C 220.87 91.61 220.86 86.84 223.77 85.77 C 228.50 83.51 233.81 82.84 238.93 81.94 Z" fill="#fdbb9d" opacity="1.00" stroke="#fdbb9d" stroke-width="0.25" data-index="11"></path>
<path d="M 119.40 113.66 C 114.91 103.99 116.29 92.71 120.54 83.22 C 123.41 87.68 126.87 91.91 131.68 94.38 C 131.18 99.90 131.26 105.88 134.34 110.71 C 136.59 114.21 139.45 117.48 143.07 119.61 C 144.15 119.13 145.16 118.50 146.18 117.89 C 150.14 119.22 156.34 120.69 156.10 125.98 C 156.36 131.57 149.72 133.40 148.31 138.28 C 146.57 143.67 145.74 149.35 145.60 155.01 C 145.42 165.90 150.49 175.95 155.90 185.09 C 163.63 197.30 173.39 208.52 185.52 216.52 C 191.44 220.22 197.50 224.13 204.50 225.35 C 208.80 229.93 214.04 233.63 219.89 235.96 C 234.22 242.06 250.88 244.04 265.77 238.78 C 275.23 235.58 283.55 229.59 290.34 222.34 C 292.47 222.07 294.64 221.73 296.50 220.59 C 308.55 213.38 320.06 204.96 329.25 194.25 C 336.68 185.14 342.57 174.54 344.99 162.95 C 346.67 155.10 348.50 147.13 348.16 139.06 C 348.02 133.39 342.20 129.75 342.09 124.14 C 342.90 119.71 345.97 116.13 348.92 112.89 C 351.62 110.21 354.24 107.37 355.92 103.92 C 355.88 104.36 355.79 105.24 355.74 105.68 C 361.53 105.24 367.00 103.20 372.29 100.92 C 371.82 104.74 371.59 108.65 370.26 112.29 C 368.54 117.36 365.25 121.72 361.59 125.55 C 357.92 129.50 352.82 131.55 348.19 134.10 C 349.50 143.02 351.14 151.95 351.18 160.99 C 350.53 195.60 329.60 229.09 298.71 244.75 C 279.83 254.82 257.71 258.16 236.57 255.45 C 213.45 252.74 191.41 242.39 174.17 226.81 C 159.34 213.35 148.50 195.38 144.18 175.77 C 141.23 162.44 142.36 148.63 144.71 135.31 C 134.09 131.34 124.66 123.80 119.40 113.66 Z" fill="#814c3e" opacity="1.00" stroke="#814c3e" stroke-width="0.25" data-index="12"></path>
<path d="M 168.64 82.81 C 169.13 84.51 169.66 86.21 169.97 87.95 C 168.10 89.85 165.51 90.80 163.37 92.36 C 154.79 98.46 148.09 106.83 143.03 116.00 C 140.29 113.82 137.92 111.22 135.97 108.31 C 138.99 99.69 145.95 93.35 153.14 88.11 C 157.67 84.83 163.27 83.83 168.64 82.81 Z" fill="#fdbb9d" opacity="1.00" stroke="#fdbb9d" stroke-width="0.25" data-index="13"></path>
<path d="M 288.12 123.39 C 295.43 123.55 303.13 122.97 309.94 126.11 C 312.43 126.91 311.63 129.70 311.78 131.68 C 306.15 133.02 300.59 130.64 294.95 130.64 C 292.41 130.22 288.87 131.19 287.30 128.55 C 285.84 126.89 287.61 125.05 288.12 123.39 Z" fill="#042c49" opacity="1.00" stroke="#042c49" stroke-width="0.25" data-index="14"></path>
<path d="M 197.41 130.45 C 198.90 130.30 200.89 129.78 201.78 131.43 C 202.98 132.70 202.58 135.16 201.01 135.97 C 197.39 138.04 193.13 138.57 189.41 140.42 C 186.64 141.54 184.15 143.53 181.12 143.91 C 178.73 144.13 177.21 140.70 179.17 139.20 C 184.11 134.44 190.84 131.96 197.41 130.45 Z" fill="#042c49" opacity="1.00" stroke="#042c49" stroke-width="0.25" data-index="15"></path>
<path d="M 293.71 145.93 C 296.04 145.30 298.50 145.41 300.89 145.18 C 300.57 145.49 299.94 146.09 299.62 146.40 C 298.09 147.74 296.46 149.42 297.18 151.64 C 297.11 154.11 299.95 155.04 301.96 155.30 C 304.47 155.18 305.43 152.38 306.88 150.76 C 309.68 155.51 309.03 161.99 304.74 165.65 C 300.47 170.24 292.32 169.12 288.69 164.27 C 285.85 161.10 285.78 156.45 286.76 152.52 C 288.06 149.52 290.70 147.15 293.71 145.93 Z" fill="#042c49" opacity="1.00" stroke="#042c49" stroke-width="0.25" data-index="16"></path>
<path d="M 297.18 151.64 C 296.46 149.42 298.09 147.74 299.62 146.40 C 302.83 146.28 305.42 147.95 306.88 150.76 C 305.43 152.38 304.47 155.18 301.96 155.30 C 299.95 155.04 297.11 154.11 297.18 151.64 Z" fill="#ffffff" opacity="1.00" stroke="#ffffff" stroke-width="0.25" data-index="17"></path>
<path d="M 188.13 163.99 C 187.67 157.45 193.98 152.77 200.02 152.47 L 199.59 153.35 C 198.88 155.26 196.86 157.47 198.39 159.47 C 199.58 161.54 202.23 161.92 204.37 161.45 C 205.99 160.45 206.52 158.49 207.29 156.87 C 213.56 162.79 209.98 175.53 200.92 175.84 C 194.14 177.18 187.06 170.98 188.13 163.99 Z" fill="#042c49" opacity="1.00" stroke="#042c49" stroke-width="0.25" data-index="18"></path>
<path d="M 199.59 153.35 C 202.66 153.02 206.08 153.58 207.29 156.87 C 206.52 158.49 205.99 160.45 204.37 161.45 C 202.23 161.92 199.58 161.54 198.39 159.47 C 196.86 157.47 198.88 155.26 199.59 153.35 Z" fill="#ffffff" opacity="1.00" stroke="#ffffff" stroke-width="0.25" data-index="19"></path>
<path d="M 239.27 165.19 C 253.49 162.67 268.96 163.99 281.54 171.55 C 291.39 177.43 299.26 188.12 298.81 199.99 C 299.18 208.26 295.29 215.97 290.34 222.34 C 283.55 229.59 275.23 235.58 265.77 238.78 C 250.88 244.04 234.22 242.06 219.89 235.96 C 214.04 233.63 208.80 229.93 204.50 225.35 C 196.72 216.90 195.25 203.72 200.61 193.63 C 208.35 179.00 223.02 168.28 239.27 165.19 Z" fill="#042c49" opacity="1.00" stroke="#042c49" stroke-width="0.25" data-index="20"></path>
<path d="M 240.33 168.29 C 254.27 165.77 269.51 167.51 281.47 175.52 C 289.38 180.63 295.53 189.30 295.68 198.96 C 296.29 207.41 292.14 215.47 286.57 221.57 C 278.86 229.64 268.60 235.37 257.59 237.35 C 243.00 239.05 227.89 236.12 214.98 229.12 C 207.22 224.93 200.76 217.12 200.43 208.01 C 199.86 201.06 203.26 194.64 207.18 189.16 C 215.07 178.35 227.21 170.84 240.33 168.29 Z" fill="#ffe1c4" opacity="1.00" stroke="#ffe1c4" stroke-width="0.25" data-index="21"></path>
<path d="M 229.38 184.35 C 237.76 179.23 248.06 178.71 257.60 179.64 C 260.76 180.17 264.40 180.79 266.50 183.48 C 267.62 187.86 264.09 191.46 261.47 194.48 C 257.87 198.54 253.12 201.17 248.56 203.96 C 248.39 208.84 247.99 214.50 251.68 218.30 C 254.70 222.25 260.29 223.86 264.89 221.86 C 268.55 220.28 270.60 216.66 272.41 213.31 C 273.05 213.36 274.33 213.46 274.97 213.51 C 274.49 217.65 271.66 221.02 268.46 223.48 C 263.47 226.97 255.94 226.79 251.38 222.62 C 249.78 221.25 248.42 219.65 247.04 218.06 C 245.16 222.66 241.54 227.56 236.00 227.30 C 228.04 227.12 223.83 218.62 223.06 211.67 C 223.78 211.68 225.20 211.71 225.92 211.73 C 227.22 215.31 228.09 219.31 231.00 222.01 C 233.81 224.81 238.99 224.51 241.41 221.35 C 245.34 216.41 245.33 209.73 245.43 203.74 C 238.76 201.39 232.08 198.00 227.64 192.34 C 225.51 189.77 226.59 185.93 229.38 184.35 Z" fill="#042c49" opacity="1.00" stroke="#042c49" stroke-width="0.25" data-index="22"></path>
<path d="M 317.44 238.33 C 319.51 236.90 321.71 238.94 323.74 239.54 C 322.15 244.80 320.34 250.32 316.08 254.08 C 308.18 261.79 296.67 263.44 286.14 264.33 C 274.45 265.21 263.02 267.92 251.66 270.67 C 246.33 271.54 240.81 271.05 235.60 272.70 C 219.01 277.00 204.85 289.00 197.38 304.36 C 190.41 319.46 189.27 337.17 194.04 353.09 C 201.18 376.51 223.98 395.55 249.00 394.81 C 262.17 395.05 275.22 389.69 284.93 380.89 C 289.55 377.14 292.71 372.01 296.94 367.89 C 295.26 374.23 292.30 380.13 290.43 386.41 C 288.25 393.06 287.09 400.01 286.79 407.00 C 286.55 413.44 288.38 419.68 289.88 425.88 C 272.24 430.60 253.80 431.32 235.66 430.33 C 225.48 429.33 215.17 428.36 205.37 425.29 C 210.02 410.68 207.31 394.79 200.85 381.18 C 192.17 361.84 176.61 344.64 156.21 337.61 C 156.80 315.64 163.35 294.07 173.82 274.82 C 176.08 269.55 180.66 265.51 182.07 259.85 C 180.33 260.27 178.63 260.87 177.09 261.79 C 182.34 256.08 183.53 248.28 185.19 241.01 C 207.28 255.96 234.65 262.93 261.20 260.35 C 276.71 258.87 291.95 254.12 305.53 246.45 C 309.77 244.15 313.32 240.81 317.44 238.33 Z" fill="#814c3e" opacity="1.00" stroke="#814c3e" stroke-width="0.25" data-index="23"></path>
<path d="M 175.47 241.47 C 177.29 240.66 179.08 239.72 181.02 239.23 C 182.55 239.33 183.82 240.39 185.19 241.01 C 183.53 248.28 182.34 256.08 177.09 261.79 C 172.36 268.44 168.88 275.84 164.79 282.86 C 152.30 295.99 140.39 309.92 125.75 320.77 C 119.21 325.27 111.68 330.24 103.33 328.68 C 100.42 328.44 98.35 326.24 96.40 324.33 C 99.13 316.91 101.56 308.94 106.67 302.80 C 108.84 301.28 111.05 299.77 112.84 297.81 C 122.30 286.95 132.92 277.16 143.86 267.83 C 151.96 261.15 160.28 254.65 169.43 249.46 C 172.17 247.86 174.98 246.26 177.17 243.93 C 176.86 242.94 176.29 242.11 175.47 241.47 Z" fill="#cc7e52" opacity="1.00" stroke="#cc7e52" stroke-width="0.25" data-index="24"></path>
<path d="M 316.08 254.08 C 320.34 250.32 322.15 244.80 323.74 239.54 C 337.22 246.89 350.46 254.85 362.28 264.71 C 366.99 268.63 372.02 272.32 375.64 277.34 C 364.57 270.14 354.00 262.20 342.88 255.08 C 340.17 253.36 337.37 251.58 334.17 251.00 C 330.82 253.26 334.73 255.85 336.70 257.34 C 348.39 265.45 359.35 274.57 370.10 283.88 C 376.43 289.28 382.09 295.40 388.43 300.79 C 389.94 298.73 390.86 296.30 390.68 293.72 C 392.29 295.30 393.84 296.96 395.16 298.81 C 401.78 307.96 407.53 317.96 410.41 328.96 C 410.29 331.19 410.30 333.88 408.17 335.24 C 402.61 339.36 394.86 338.69 388.74 336.26 C 381.90 333.23 376.15 328.28 370.53 323.45 C 361.88 315.46 353.50 307.12 346.00 298.02 C 340.83 292.13 336.13 285.84 330.88 280.02 C 325.82 273.59 322.68 265.82 317.34 259.58 C 316.32 257.84 314.45 258.60 313.49 259.93 C 314.95 263.45 317.48 266.35 319.40 269.61 C 330.80 289.18 339.91 310.68 341.88 333.44 C 329.28 335.10 317.84 342.05 309.49 351.47 C 306.89 354.37 304.63 357.63 301.38 359.86 C 302.73 352.56 306.01 345.61 305.79 338.05 C 306.69 324.83 303.99 311.27 297.11 299.86 C 290.54 288.66 280.29 279.45 268.02 274.98 C 262.78 272.77 257.14 271.98 251.66 270.67 C 263.02 267.92 274.45 265.21 286.14 264.33 C 296.67 263.44 308.18 261.79 316.08 254.08 Z" fill="#cc7e52" opacity="1.00" stroke="#cc7e52" stroke-width="0.25" data-index="25"></path>
<path d="M 114.49 290.51 C 130.94 269.98 152.14 253.49 175.47 241.47 C 176.29 242.11 176.86 242.94 177.17 243.93 C 174.98 246.26 172.17 247.86 169.43 249.46 C 160.28 254.65 151.96 261.15 143.86 267.83 C 132.92 277.16 122.30 286.95 112.84 297.81 C 111.05 299.77 108.84 301.28 106.67 302.80 C 108.55 298.29 111.54 294.37 114.49 290.51 Z" fill="#fdbb9d" opacity="1.00" stroke="#fdbb9d" stroke-width="0.25" data-index="26"></path>
<path d="M 334.17 251.00 C 337.37 251.58 340.17 253.36 342.88 255.08 C 354.00 262.20 364.57 270.14 375.64 277.34 C 381.39 282.05 386.35 287.70 390.68 293.72 C 390.86 296.30 389.94 298.73 388.43 300.79 C 382.09 295.40 376.43 289.28 370.10 283.88 C 359.35 274.57 348.39 265.45 336.70 257.34 C 334.73 255.85 330.82 253.26 334.17 251.00 Z" fill="#fdbb9d" opacity="1.00" stroke="#fdbb9d" stroke-width="0.25" data-index="27"></path>
<path d="M 206.54 295.62 C 216.54 282.13 233.20 273.66 250.05 274.16 C 258.50 274.30 266.71 277.03 274.11 280.96 C 288.57 289.16 298.60 304.16 301.78 320.36 C 304.45 332.97 303.21 346.38 298.01 358.19 C 290.61 376.03 273.30 389.74 253.92 391.64 C 246.50 392.55 239.08 391.27 231.98 389.15 C 232.62 388.81 233.89 388.14 234.53 387.80 C 216.98 372.33 205.73 350.13 203.16 326.92 C 202.00 318.97 202.55 310.92 202.12 302.92 C 202.70 300.06 204.93 297.94 206.54 295.62 Z" fill="#ffe1c4" opacity="1.00" stroke="#ffe1c4" stroke-width="0.25" data-index="28"></path>
<path d="M 330.88 280.02 C 336.13 285.84 340.83 292.13 346.00 298.02 C 353.50 307.12 361.88 315.46 370.53 323.45 C 376.15 328.28 381.90 333.23 388.74 336.26 C 394.86 338.69 402.61 339.36 408.17 335.24 C 410.30 333.88 410.29 331.19 410.41 328.96 C 410.88 333.90 411.60 339.10 409.87 343.88 C 407.03 350.81 399.38 354.98 392.11 355.14 C 389.10 353.12 387.18 349.93 384.52 347.52 C 378.25 341.64 370.72 336.89 362.34 334.73 C 359.41 334.03 356.56 332.79 354.59 330.43 C 350.67 325.93 344.78 322.44 343.88 316.04 C 341.22 303.47 335.26 292.00 330.88 280.02 Z" fill="#814c3e" opacity="1.00" stroke="#814c3e" stroke-width="0.25" data-index="29"></path>
<path d="M 125.75 320.77 C 140.39 309.92 152.30 295.99 164.79 282.86 C 159.92 294.43 155.84 306.45 153.96 318.90 C 153.80 325.49 148.62 330.22 143.87 334.05 C 139.02 334.72 134.02 333.91 129.26 335.33 C 121.38 337.53 113.41 340.65 107.46 346.47 C 105.78 347.99 104.26 349.79 102.16 350.75 C 94.20 344.51 94.83 333.28 96.40 324.33 C 98.35 326.24 100.42 328.44 103.33 328.68 C 111.68 330.24 119.21 325.27 125.75 320.77 Z" fill="#814c3e" opacity="1.00" stroke="#814c3e" stroke-width="0.25" data-index="30"></path>
<path d="M 199.13 308.12 C 199.90 306.26 200.97 304.55 202.12 302.92 C 202.55 310.92 202.00 318.97 203.16 326.92 C 205.73 350.13 216.98 372.33 234.53 387.80 C 233.89 388.14 232.62 388.81 231.98 389.15 C 218.59 384.18 207.00 374.29 200.66 361.42 C 192.49 345.01 191.87 324.97 199.13 308.12 Z" fill="#fdbb9d" opacity="1.00" stroke="#fdbb9d" stroke-width="0.25" data-index="31"></path>
<path d="M 335.86 339.92 C 347.80 336.83 361.01 337.86 371.74 344.21 C 383.90 350.65 391.73 363.05 395.34 376.03 C 395.02 377.49 395.14 379.64 393.02 379.28 C 388.84 375.99 386.31 371.15 382.55 367.44 C 372.66 357.29 359.18 350.30 344.95 349.29 C 341.74 348.87 338.33 348.98 335.39 347.49 C 334.19 345.12 335.57 342.38 335.86 339.92 Z" fill="#fdbb9d" opacity="1.00" stroke="#fdbb9d" stroke-width="0.25" data-index="32"></path>
<path d="M 130.68 340.37 C 143.61 337.66 157.28 341.60 167.92 349.11 C 166.60 350.04 165.55 351.60 163.91 351.93 C 160.88 351.42 158.18 349.84 155.34 348.77 C 145.05 344.55 132.88 344.74 123.03 350.10 C 118.45 352.30 115.07 356.19 111.07 359.21 C 109.71 360.58 107.77 359.61 106.13 359.49 C 106.02 358.62 105.80 356.87 105.69 355.99 C 111.61 347.81 120.80 342.25 130.68 340.37 Z" fill="#fdbb9d" opacity="1.00" stroke="#fdbb9d" stroke-width="0.25" data-index="33"></path>
<path d="M 313.96 354.03 C 319.90 347.50 327.54 342.78 335.86 339.92 C 335.57 342.38 334.19 345.12 335.39 347.49 C 338.33 348.98 341.74 348.87 344.95 349.29 C 359.18 350.30 372.66 357.29 382.55 367.44 C 386.31 371.15 388.84 375.99 393.02 379.28 C 395.14 379.64 395.02 377.49 395.34 376.03 C 396.44 382.54 397.21 389.27 396.11 395.83 C 388.68 405.45 380.62 414.87 370.56 421.84 C 370.64 421.36 370.80 420.40 370.88 419.92 C 375.21 408.59 377.43 395.38 371.88 384.05 C 368.33 376.42 360.73 371.91 353.26 368.80 C 345.31 365.56 336.04 366.52 328.60 370.66 C 323.74 373.54 319.96 377.90 316.61 382.38 C 313.41 373.28 314.27 363.50 313.96 354.03 Z" fill="#cc7e52" opacity="1.00" stroke="#cc7e52" stroke-width="0.25" data-index="34"></path>
<path d="M 123.03 350.10 C 132.88 344.74 145.05 344.55 155.34 348.77 C 158.18 349.84 160.88 351.42 163.91 351.93 C 165.55 351.60 166.60 350.04 167.92 349.11 C 183.24 359.12 194.12 375.08 199.79 392.31 C 202.41 400.05 203.01 408.32 202.20 416.42 C 198.04 411.92 194.65 406.79 191.53 401.54 C 189.84 398.95 188.31 396.04 185.64 394.34 C 183.70 394.24 181.78 394.63 179.88 394.90 C 174.66 383.05 164.78 372.92 152.42 368.67 C 138.72 364.69 122.60 371.46 116.01 384.19 C 115.56 384.27 114.64 384.43 114.18 384.50 C 110.66 376.47 107.46 368.20 106.13 359.49 C 107.77 359.61 109.71 360.58 111.07 359.21 C 115.07 356.19 118.45 352.30 123.03 350.10 Z" fill="#cc7e52" opacity="1.00" stroke="#cc7e52" stroke-width="0.25" data-index="35"></path>
<path d="M 295.13 388.11 C 298.62 375.50 304.88 363.52 313.96 354.03 C 314.27 363.50 313.41 373.28 316.61 382.38 C 311.55 389.89 308.98 398.98 309.29 408.02 C 309.18 418.77 313.66 430.08 323.03 435.98 C 330.95 442.33 342.09 443.08 351.28 439.18 C 360.45 436.18 366.50 428.08 370.88 419.92 C 370.80 420.40 370.64 421.36 370.56 421.84 C 380.62 414.87 388.68 405.45 396.11 395.83 C 394.14 413.91 385.45 430.88 372.95 443.95 C 365.79 452.00 354.39 454.60 344.02 454.70 C 330.74 455.20 316.80 451.34 307.05 441.98 C 298.16 434.15 293.13 422.68 291.83 411.04 C 291.16 403.26 293.08 395.55 295.13 388.11 Z" fill="#814c3e" opacity="1.00" stroke="#814c3e" stroke-width="0.25" data-index="36"></path>
<path d="M 94.11 392.02 C 93.65 379.18 97.52 366.00 105.69 355.99 C 105.80 356.87 106.02 358.62 106.13 359.49 C 107.46 368.20 110.66 376.47 114.18 384.50 C 114.64 384.43 115.56 384.27 116.01 384.19 C 112.29 391.24 111.87 399.62 113.94 407.24 C 117.20 419.41 124.90 430.80 136.26 436.71 C 149.50 444.69 168.36 440.97 177.34 428.32 C 184.07 418.64 184.09 405.60 179.88 394.90 C 181.78 394.63 183.70 394.24 185.64 394.34 C 188.31 396.04 189.84 398.95 191.53 401.54 C 194.65 406.79 198.04 411.92 202.20 416.42 C 199.32 433.39 186.03 447.79 169.66 452.73 C 157.95 456.27 144.76 457.95 133.26 452.83 C 123.29 448.92 116.17 440.53 109.41 432.61 C 100.72 420.91 93.90 406.90 94.11 392.02 Z" fill="#814c3e" opacity="1.00" stroke="#814c3e" stroke-width="0.25" data-index="37"></path>
<path d="M 328.60 370.66 C 336.04 366.52 345.31 365.56 353.26 368.80 C 360.73 371.91 368.33 376.42 371.88 384.05 C 377.43 395.38 375.21 408.59 370.88 419.92 C 366.50 428.08 360.45 436.18 351.28 439.18 C 342.09 443.08 330.95 442.33 323.03 435.98 C 313.66 430.08 309.18 418.77 309.29 408.02 C 308.98 398.98 311.55 389.89 316.61 382.38 C 319.96 377.90 323.74 373.54 328.60 370.66 Z" fill="#042c49" opacity="1.00" stroke="#042c49" stroke-width="0.25" data-index="38"></path>
<path d="M 116.01 384.19 C 122.60 371.46 138.72 364.69 152.42 368.67 C 164.78 372.92 174.66 383.05 179.88 394.90 C 184.09 405.60 184.07 418.64 177.34 428.32 C 168.36 440.97 149.50 444.69 136.26 436.71 C 124.90 430.80 117.20 419.41 113.94 407.24 C 111.87 399.62 112.29 391.24 116.01 384.19 Z" fill="#042c49" opacity="1.00" stroke="#042c49" stroke-width="0.25" data-index="39"></path>
<path d="M 334.33 371.52 C 345.54 367.37 358.21 372.46 365.92 380.95 C 366.12 381.19 366.52 381.66 366.73 381.89 C 361.52 381.13 356.18 381.34 351.07 379.97 C 346.97 378.89 342.72 378.38 338.68 377.08 C 336.11 376.42 335.47 373.53 334.33 371.52 Z" fill="#ffffff" opacity="1.00" stroke="#ffffff" stroke-width="0.25" data-index="40"></path>
<path d="M 119.96 383.25 C 127.04 373.55 140.25 368.06 151.96 371.69 C 149.96 374.30 148.31 377.73 144.89 378.70 C 140.80 380.01 136.51 380.75 132.58 382.55 C 129.57 383.70 126.67 385.53 123.38 385.68 C 122.17 384.98 121.08 384.09 119.96 383.25 Z" fill="#ffffff" opacity="1.00" stroke="#ffffff" stroke-width="0.25" data-index="41"></path>
<path d="M 144.89 378.70 C 148.31 377.73 149.96 374.30 151.96 371.69 C 166.59 377.60 178.63 391.52 179.68 407.65 C 179.09 407.66 177.91 407.70 177.32 407.71 C 173.04 413.92 167.30 419.29 160.29 422.25 C 153.27 424.96 144.46 424.62 138.75 419.26 C 131.87 412.95 126.63 405.04 122.12 396.93 C 120.78 394.46 118.82 392.43 116.70 390.63 C 117.63 388.10 118.72 385.64 119.96 383.25 C 121.08 384.09 122.17 384.98 123.38 385.68 C 126.67 385.53 129.57 383.70 132.58 382.55 C 136.51 380.75 140.80 380.01 144.89 378.70 Z" fill="#ffe1c4" opacity="1.00" stroke="#ffe1c4" stroke-width="0.25" data-index="42"></path>
<path d="M 316.61 388.00 C 321.03 381.18 326.39 374.33 334.33 371.52 C 335.47 373.53 336.11 376.42 338.68 377.08 C 342.72 378.38 346.97 378.89 351.07 379.97 C 356.18 381.34 361.52 381.13 366.73 381.89 C 366.52 381.66 366.12 381.19 365.92 380.95 C 372.44 388.19 372.77 398.83 371.15 407.95 C 369.05 417.41 365.00 427.68 356.33 432.87 C 351.84 432.21 347.25 431.66 343.04 429.90 C 338.03 427.58 334.45 423.17 331.06 418.96 C 323.90 409.94 319.20 399.17 316.61 388.00 Z" fill="#ffe1c4" opacity="1.00" stroke="#ffe1c4" stroke-width="0.25" data-index="43"></path>
<path d="M 316.79 425.24 C 310.31 413.93 311.31 399.56 316.61 388.00 C 319.20 399.17 323.90 409.94 331.06 418.96 C 334.45 423.17 338.03 427.58 343.04 429.90 C 347.25 431.66 351.84 432.21 356.33 432.87 C 351.38 436.59 345.11 438.37 338.97 438.37 C 329.86 438.47 321.70 432.54 316.79 425.24 Z" fill="#fdbb9d" opacity="1.00" stroke="#fdbb9d" stroke-width="0.25" data-index="44"></path>
<path d="M 116.70 390.63 C 118.82 392.43 120.78 394.46 122.12 396.93 C 126.63 405.04 131.87 412.95 138.75 419.26 C 144.46 424.62 153.27 424.96 160.29 422.25 C 167.30 419.29 173.04 413.92 177.32 407.71 C 177.91 407.70 179.09 407.66 179.68 407.65 C 179.94 415.40 178.08 423.77 172.45 429.44 C 165.33 436.42 154.55 439.22 144.88 437.05 C 125.68 431.63 112.69 410.11 116.70 390.63 Z" fill="#fdbb9d" opacity="1.00" stroke="#fdbb9d" stroke-width="0.25" data-index="45"></path>

</svg>