<?xml version="1.0" encoding="utf-8"?>
<svg xmlns="http://www.w3.org/2000/svg" height="512pt" version="1.1" viewBox="0 0 512 512" width="512pt">
<path d="M 0.00 0.00 L 512.00 0.00 L 512.00 512.00 L 0.00 512.00 L 0.00 0.00 Z" fill="transparent" opacity="1.00" stroke="transparent" stroke-width="0.25"/>
<path d="M 256.87 128.03 C 278.81 107.74 310.31 100.26 339.51 103.75 C 358.38 106.14 377.01 113.08 391.60 125.50 C 410.48 140.50 423.49 161.84 431.25 184.46 C 439.63 209.02 442.93 235.12 442.43 261.00 C 441.81 286.63 437.27 312.26 428.14 336.25 C 422.41 350.76 415.10 364.89 404.69 376.62 C 396.10 386.64 385.39 394.93 373.38 400.46 C 358.68 407.49 342.23 410.24 326.03 410.38 C 306.25 410.36 286.13 406.06 269.08 395.76 C 256.81 388.53 246.74 378.04 238.72 366.38 C 223.82 344.23 215.95 318.11 211.85 291.94 C 206.86 256.57 208.71 219.85 219.95 185.80 C 223.01 177.41 225.99 168.89 230.65 161.22 C 231.16 166.23 227.35 170.25 225.75 174.74 C 210.43 212.27 207.90 254.10 213.82 293.91 C 217.68 318.56 225.56 342.87 239.04 363.99 C 246.19 373.97 253.93 383.88 264.39 390.63 C 276.11 399.13 289.99 404.21 304.12 406.98 C 327.41 411.06 352.10 408.64 373.63 398.60 C 379.76 395.20 385.88 391.71 391.33 387.27 C 401.15 380.10 408.51 370.14 415.06 360.02 C 420.22 350.76 425.14 341.28 428.33 331.12 C 432.01 322.07 434.23 312.53 436.23 303.00 C 441.92 276.45 442.54 248.90 438.81 222.03 C 435.38 200.36 429.53 178.74 418.42 159.66 C 407.56 139.94 390.64 123.42 370.31 113.63 C 356.33 107.67 341.21 104.22 325.97 104.42 C 317.43 104.63 308.75 104.96 300.50 107.40 C 287.57 110.20 275.27 115.74 264.72 123.75 C 262.26 125.43 260.09 128.01 256.87 128.03 Z" fill="#419bc4" opacity="1.00" stroke="#419bc4" stroke-width="0.25"/>
<path d="M 300.50 107.40 C 308.75 104.96 317.43 104.63 325.97 104.42 C 341.21 104.22 356.33 107.67 370.31 113.63 C 390.64 123.42 407.56 139.94 418.42 159.66 C 429.53 178.74 435.38 200.36 438.81 222.03 C 442.54 248.90 441.92 276.45 436.23 303.00 C 434.23 312.53 432.01 322.07 428.33 331.12 C 425.14 341.28 420.22 350.76 415.06 360.02 C 408.51 370.14 401.15 380.10 391.33 387.27 C 369.33 382.98 346.76 381.68 325.07 375.77 C 302.76 370.71 279.88 361.02 266.09 341.89 C 253.42 323.30 250.25 300.49 246.48 278.83 C 242.15 249.89 245.37 220.22 253.19 192.16 C 258.51 175.22 266.33 159.05 276.49 144.48 C 281.11 137.43 286.33 130.75 290.28 123.28 C 291.94 120.68 293.20 116.90 296.80 116.66 C 311.91 114.63 327.19 113.88 342.25 111.44 C 328.60 108.13 314.30 109.91 300.50 107.40 Z" fill="#63d3f7" opacity="1.00" stroke="#63d3f7" stroke-width="0.25"/>
<path d="M 264.72 123.75 C 275.27 115.74 287.57 110.20 300.50 107.40 C 314.30 109.91 328.60 108.13 342.25 111.44 C 327.19 113.88 311.91 114.63 296.80 116.66 C 293.20 116.90 291.94 120.68 290.28 123.28 C 286.33 130.75 281.11 137.43 276.49 144.48 C 266.33 159.05 258.51 175.22 253.19 192.16 C 245.37 220.22 242.15 249.89 246.48 278.83 C 250.25 300.49 253.42 323.30 266.09 341.89 C 279.88 361.02 302.76 370.71 325.07 375.77 C 346.76 381.68 369.33 382.98 391.33 387.27 C 385.88 391.71 379.76 395.20 373.63 398.60 C 352.10 408.64 327.41 411.06 304.12 406.98 C 289.99 404.21 276.11 399.13 264.39 390.63 C 253.93 383.88 246.19 373.97 239.04 363.99 C 225.56 342.87 217.68 318.56 213.82 293.91 C 207.90 254.10 210.43 212.27 225.75 174.74 C 227.35 170.25 231.16 166.23 230.65 161.22 L 230.63 160.77 C 231.14 159.90 231.68 159.04 232.23 158.19 C 232.14 158.83 231.94 160.12 231.84 160.76 C 236.18 155.98 238.80 149.96 242.96 145.04 C 246.64 139.75 251.31 135.32 255.80 130.75 C 255.89 130.22 256.07 129.16 256.15 128.63 L 256.23 128.12 L 256.87 128.03 C 260.09 128.01 262.26 125.43 264.72 123.75 Z" fill="#49b7df" opacity="1.00" stroke="#49b7df" stroke-width="0.25"/>
<path d="M 131.10 114.13 C 134.08 111.53 138.26 111.75 141.96 111.66 C 150.98 111.61 160.00 111.57 169.03 111.70 C 174.99 111.68 180.46 115.46 183.41 120.49 C 185.51 124.41 186.72 128.86 186.76 133.31 L 185.57 134.56 C 185.04 129.53 184.53 124.09 181.23 120.00 C 178.31 116.21 173.95 113.11 169.00 113.11 C 159.33 112.93 149.65 113.08 139.98 113.04 C 136.27 112.70 132.94 114.41 130.25 116.80 C 126.52 119.68 122.72 122.51 119.43 125.92 C 112.70 130.83 106.24 136.14 100.27 141.95 C 89.91 149.95 80.29 158.89 70.01 167.00 C 67.39 169.39 62.96 171.64 64.19 175.92 C 65.44 179.54 68.49 182.17 70.85 185.09 C 75.13 189.84 78.75 195.13 82.99 199.91 C 85.54 202.72 87.35 206.27 90.49 208.50 C 93.27 210.06 96.25 208.18 98.44 206.47 C 105.60 200.94 113.09 195.85 120.14 190.17 C 121.72 188.95 123.55 188.14 125.34 187.30 C 125.26 187.71 125.11 188.53 125.03 188.94 C 124.66 189.21 123.93 189.75 123.56 190.02 C 114.62 196.24 106.17 203.15 97.22 209.34 C 94.42 211.46 89.87 211.43 87.71 208.42 C 79.85 199.18 72.45 189.56 64.69 180.24 C 61.80 177.15 61.55 171.83 64.97 169.02 C 87.02 150.73 108.93 132.28 131.10 114.13 Z" fill="#419bc4" opacity="1.00" stroke="#419bc4" stroke-width="0.25"/>
<path d="M 130.25 116.80 C 132.94 114.41 136.27 112.70 139.98 113.04 C 149.65 113.08 159.33 112.93 169.00 113.11 C 173.95 113.11 178.31 116.21 181.23 120.00 C 184.53 124.09 185.04 129.53 185.57 134.56 C 185.55 174.96 185.60 215.36 185.51 255.76 C 184.54 255.64 183.57 255.51 182.61 255.40 C 182.72 251.84 182.58 248.29 182.37 244.75 C 172.59 242.85 162.50 242.88 152.90 239.99 C 154.53 225.55 158.37 211.47 159.98 197.03 C 161.01 188.06 162.82 179.09 162.37 170.03 C 162.43 166.01 158.44 163.82 155.09 162.83 C 143.82 159.51 132.28 156.84 121.58 151.90 C 125.90 148.00 130.82 144.87 135.70 141.73 C 145.73 135.30 155.90 129.08 166.37 123.39 C 168.49 122.27 170.47 120.89 172.33 119.38 C 158.36 117.72 144.25 118.01 130.25 116.80 Z" fill="#63d3f8" opacity="1.00" stroke="#63d3f8" stroke-width="0.25"/>
<path d="M 119.43 125.92 C 122.72 122.51 126.52 119.68 130.25 116.80 C 144.25 118.01 158.36 117.72 172.33 119.38 C 170.47 120.89 168.49 122.27 166.37 123.39 C 155.90 129.08 145.73 135.30 135.70 141.73 C 130.82 144.87 125.90 148.00 121.58 151.90 C 132.28 156.84 143.82 159.51 155.09 162.83 C 158.44 163.82 162.43 166.01 162.37 170.03 C 162.82 179.09 161.01 188.06 159.98 197.03 C 158.37 211.47 154.53 225.55 152.90 239.99 C 162.50 242.88 172.59 242.85 182.37 244.75 C 182.58 248.29 182.72 251.84 182.61 255.40 C 182.14 274.92 182.52 294.45 182.45 313.97 C 182.34 319.34 183.47 324.63 183.54 329.99 C 183.69 336.51 183.89 343.08 185.54 349.43 C 185.82 356.29 185.39 363.15 185.46 370.02 C 185.61 379.63 186.01 390.56 179.25 398.28 C 173.68 403.87 165.22 403.62 157.91 403.39 C 151.04 403.02 143.79 404.55 137.26 401.77 C 132.02 399.69 128.79 394.43 127.51 389.14 C 126.13 384.55 126.11 379.73 126.20 374.99 C 126.30 364.84 126.02 354.70 126.26 344.55 C 127.81 339.04 128.05 333.25 129.90 327.82 C 130.96 324.77 131.73 321.64 132.41 318.49 C 133.32 321.21 133.95 324.03 134.01 326.92 C 134.33 334.72 134.98 342.52 136.47 350.20 C 139.26 334.45 140.28 318.44 142.41 302.59 C 143.82 287.72 145.61 272.88 146.81 257.99 C 147.60 249.21 147.37 240.36 148.67 231.63 C 148.99 228.64 149.76 225.61 149.35 222.60 C 147.88 221.08 145.64 220.81 143.72 220.18 C 139.52 219.17 135.37 217.91 131.43 216.10 C 130.02 206.99 130.38 197.20 126.11 188.81 C 125.92 188.44 125.54 187.68 125.34 187.30 C 123.55 188.14 121.72 188.95 120.14 190.17 C 113.09 195.85 105.60 200.94 98.44 206.47 C 96.25 208.18 93.27 210.06 90.49 208.50 C 87.35 206.27 85.54 202.72 82.99 199.91 C 78.75 195.13 75.13 189.84 70.85 185.09 C 68.49 182.17 65.44 179.54 64.19 175.92 C 62.96 171.64 67.39 169.39 70.01 167.00 C 80.29 158.89 89.91 149.95 100.27 141.95 C 104.43 140.68 107.27 137.26 110.65 134.73 C 113.87 132.10 117.76 129.94 119.43 125.92 Z" fill="#49b7e0" opacity="1.00" stroke="#49b7e0" stroke-width="0.25"/>
<path d="M 100.27 141.95 C 106.24 136.14 112.70 130.83 119.43 125.92 C 117.76 129.94 113.87 132.10 110.65 134.73 C 107.27 137.26 104.43 140.68 100.27 141.95 Z" fill="#72c4e6" opacity="1.00" stroke="#72c4e6" stroke-width="0.25"/>
<path d="M 232.23 158.19 C 238.55 147.18 246.41 136.85 256.15 128.63 C 256.07 129.16 255.89 130.22 255.80 130.75 C 251.31 135.32 246.64 139.75 242.96 145.04 C 238.80 149.96 236.18 155.98 231.84 160.76 C 231.94 160.12 232.14 158.83 232.23 158.19 Z" fill="#419bc4" opacity="1.00" stroke="#419bc4" stroke-width="0.25"/>
<path d="M 185.57 134.56 L 186.76 133.31 C 186.97 134.86 187.10 136.42 187.13 137.99 C 187.07 217.69 187.18 297.39 187.11 377.10 C 186.63 384.64 185.88 392.89 180.86 398.94 C 177.29 402.64 172.15 404.96 166.97 404.84 C 159.31 404.80 151.65 404.85 143.99 404.81 C 138.60 404.96 133.29 402.33 129.85 398.24 C 126.44 393.63 125.36 387.76 124.82 382.18 C 124.87 317.77 124.39 253.35 125.03 188.94 C 125.11 188.53 125.26 187.71 125.34 187.30 C 125.54 187.68 125.92 188.44 126.11 188.81 C 125.85 237.21 126.08 285.62 125.99 334.02 C 125.95 337.53 126.09 341.04 126.26 344.55 C 126.02 354.70 126.30 364.84 126.20 374.99 C 126.11 379.73 126.13 384.55 127.51 389.14 C 128.79 394.43 132.02 399.69 137.26 401.77 C 143.79 404.55 151.04 403.02 157.91 403.39 C 165.22 403.62 173.68 403.87 179.25 398.28 C 186.01 390.56 185.61 379.63 185.46 370.02 C 185.39 363.15 185.82 356.29 185.54 349.43 C 185.69 318.21 185.36 286.98 185.51 255.76 C 185.60 215.36 185.55 174.96 185.57 134.56 Z" fill="#5e9cb3" opacity="1.00" stroke="#5e9cb3" stroke-width="0.25"/>
<path d="M 298.39 166.86 C 304.64 163.64 310.91 160.17 317.99 159.24 C 324.63 158.18 331.49 158.47 338.04 159.97 C 346.25 161.65 354.74 163.44 361.78 168.23 C 371.87 174.79 378.03 185.70 382.30 196.65 C 391.98 221.85 393.00 249.36 391.43 276.02 C 389.91 294.14 386.60 312.38 379.00 329.01 C 374.88 338.05 369.57 347.87 359.77 351.66 C 352.96 354.90 345.25 353.10 338.10 354.72 C 325.47 357.42 311.81 355.79 300.47 349.51 C 289.76 343.10 283.98 331.30 279.85 319.99 C 273.85 303.67 271.95 286.21 270.93 268.95 C 270.13 242.57 271.44 215.33 281.72 190.66 C 285.24 181.64 290.86 173.47 298.33 167.28 C 298.24 167.68 298.08 168.49 298.00 168.90 L 297.80 169.72 C 289.64 176.90 284.40 186.71 280.86 196.86 C 272.76 220.25 271.21 245.39 272.36 269.95 C 273.19 285.21 275.15 300.52 279.71 315.16 C 283.26 326.38 288.20 337.87 297.43 345.59 C 307.69 353.51 321.40 355.65 334.02 354.07 C 342.05 352.78 350.20 349.84 355.98 343.88 C 363.53 336.28 368.06 326.26 371.32 316.19 C 374.99 305.48 376.82 294.24 378.09 283.02 C 379.10 270.72 380.04 258.34 378.92 246.01 C 378.09 226.24 374.94 206.23 366.66 188.11 C 362.51 179.28 356.71 170.79 348.10 165.82 C 339.53 160.27 328.86 159.31 318.93 160.53 C 312.21 161.54 305.46 163.81 300.21 168.27 L 299.80 168.10 C 299.45 167.79 298.75 167.17 298.39 166.86 Z" fill="#419bc4" opacity="1.00" stroke="#419bc4" stroke-width="0.25"/>
<path d="M 318.93 160.53 C 328.86 159.31 339.53 160.27 348.10 165.82 C 356.71 170.79 362.51 179.28 366.66 188.11 C 374.94 206.23 378.09 226.24 378.92 246.01 C 380.04 258.34 379.10 270.72 378.09 283.02 C 376.82 294.24 374.99 305.48 371.32 316.19 C 368.06 326.26 363.53 336.28 355.98 343.88 C 350.20 349.84 342.05 352.78 334.02 354.07 C 321.40 355.65 307.69 353.51 297.43 345.59 C 288.20 337.87 283.26 326.38 279.71 315.16 C 275.15 300.52 273.19 285.21 272.36 269.95 C 271.21 245.39 272.76 220.25 280.86 196.86 C 284.40 186.71 289.64 176.90 297.80 169.72 L 298.00 168.90 L 298.21 168.02 C 298.61 168.04 299.41 168.08 299.80 168.10 L 300.21 168.27 C 305.46 163.81 312.21 161.54 318.93 160.53 Z" fill="#ffffff" opacity="1.00" stroke="#ffffff" stroke-width="0.25"/>
<path d="M 126.11 188.81 C 130.38 197.20 130.02 206.99 131.43 216.10 C 131.83 244.05 131.73 272.01 132.02 299.96 C 132.83 309.32 131.00 318.57 129.90 327.82 C 128.05 333.25 127.81 339.04 126.26 344.55 C 126.09 341.04 125.95 337.53 125.99 334.02 C 126.08 285.62 125.85 237.21 126.11 188.81 Z" fill="#81c6e5" opacity="1.00" stroke="#81c6e5" stroke-width="0.25"/>
<path d="M 123.56 190.02 C 123.93 189.75 124.66 189.21 125.03 188.94 C 124.39 253.35 124.87 317.77 124.82 382.18 C 124.08 376.49 124.51 370.75 124.38 365.03 C 124.44 310.03 124.44 255.03 124.40 200.02 C 124.31 196.68 124.95 193.18 123.56 190.02 Z" fill="#81c6e5" opacity="1.00" stroke="#81c6e5" stroke-width="0.25"/>
<path d="M 259.86 207.83 C 260.32 207.69 261.26 207.42 261.72 207.28 C 259.73 215.40 258.49 223.67 257.70 231.99 C 256.93 250.02 258.74 268.02 258.48 286.06 C 258.22 291.65 260.81 297.72 258.02 302.94 C 255.81 299.59 255.17 295.58 254.16 291.78 C 251.81 284.05 250.24 276.05 249.58 267.99 C 249.05 247.53 252.50 226.95 259.86 207.83 Z" fill="#97def9" opacity="1.00" stroke="#97def9" stroke-width="0.25"/>
<path d="M 131.43 216.10 C 135.37 217.91 139.52 219.17 143.72 220.18 C 145.64 220.81 147.88 221.08 149.35 222.60 C 149.76 225.61 148.99 228.64 148.67 231.63 C 147.37 240.36 147.60 249.21 146.81 257.99 C 145.61 272.88 143.82 287.72 142.41 302.59 C 140.28 318.44 139.26 334.45 136.47 350.20 C 134.98 342.52 134.33 334.72 134.01 326.92 C 133.95 324.03 133.32 321.21 132.41 318.49 C 131.73 321.64 130.96 324.77 129.90 327.82 C 131.00 318.57 132.83 309.32 132.02 299.96 C 131.73 272.01 131.83 244.05 131.43 216.10 Z" fill="#409cc4" opacity="1.00" stroke="#409cc4" stroke-width="0.25"/>
<path d="M 400.53 252.84 C 403.57 260.21 407.09 267.83 406.52 276.01 C 406.74 283.92 403.25 291.15 400.47 298.35 C 399.56 300.46 398.99 303.01 396.81 304.22 C 395.74 298.05 398.45 292.12 398.51 285.99 C 398.57 281.69 398.52 277.37 399.15 273.10 C 400.06 266.37 398.90 259.49 400.53 252.84 Z" fill="#9adffa" opacity="1.00" stroke="#9adffa" stroke-width="0.25"/>
<path d="M 182.61 255.40 C 183.57 255.51 184.54 255.64 185.51 255.76 C 185.36 286.98 185.69 318.21 185.54 349.43 C 183.89 343.08 183.69 336.51 183.54 329.99 C 183.47 324.63 182.34 319.34 182.45 313.97 C 182.52 294.45 182.14 274.92 182.61 255.40 Z" fill="#80ccec" opacity="1.00" stroke="#80ccec" stroke-width="0.25"/>
</svg>