<?xml version="1.0" encoding="utf-8"?>
<svg xmlns="http://www.w3.org/2000/svg" height="512pt" version="1.1" viewBox="0 0 512 512" width="512pt">
<path d="M 0.00 0.00 L 512.00 0.00 L 512.00 512.00 L 0.00 512.00 L 0.00 0.00 Z" fill="transparent" opacity="1.00" stroke="transparent" stroke-width="0.25"/>
<path d="M 277.10 68.33 C 290.52 61.42 307.25 61.26 320.64 68.32 C 333.35 74.48 342.18 86.34 348.17 98.80 C 361.12 97.58 375.08 99.27 385.80 107.15 C 393.56 112.99 398.92 121.84 400.51 131.42 C 402.37 139.81 401.59 148.44 401.11 156.94 C 411.04 158.60 420.78 162.82 427.76 170.26 C 446.32 189.29 445.54 223.81 425.54 241.54 C 421.03 245.79 415.43 248.76 409.48 250.40 C 405.82 261.52 395.58 269.58 384.36 272.14 C 367.48 276.19 349.47 271.51 335.20 262.07 C 330.42 265.03 325.19 267.20 319.72 268.50 C 317.46 268.72 316.80 271.20 315.69 272.80 C 304.56 293.04 293.37 313.25 282.28 333.51 C 293.86 335.84 305.61 337.31 317.23 339.43 C 318.91 339.73 320.53 340.28 322.14 340.85 C 319.42 344.54 315.65 347.22 312.46 350.46 C 298.17 363.48 283.91 376.57 269.97 389.97 C 250.30 407.93 231.49 426.82 213.14 446.11 C 211.88 447.83 209.82 448.11 207.83 447.90 C 207.37 442.91 210.63 438.73 212.39 434.31 C 227.65 402.67 241.56 370.34 253.41 337.27 C 241.16 336.95 228.89 338.20 216.65 337.51 C 217.12 332.52 220.11 328.33 222.03 323.83 C 227.55 311.35 233.68 299.14 239.10 286.62 C 221.60 286.81 203.49 281.14 190.93 268.56 C 179.89 280.33 164.21 287.91 148.00 288.32 C 132.62 288.84 116.18 282.52 107.46 269.34 C 98.84 270.07 89.94 267.33 83.51 261.49 C 75.40 253.61 71.49 242.17 71.25 231.03 C 70.89 221.28 74.50 211.35 81.44 204.43 C 92.00 193.36 107.92 189.37 122.77 189.17 C 122.57 173.37 125.02 156.14 135.90 143.90 C 143.83 134.63 155.97 129.75 168.02 129.40 C 172.00 129.24 175.97 129.51 179.94 129.80 C 182.17 120.71 185.50 111.71 191.17 104.17 C 199.45 93.18 211.49 84.69 225.11 82.00 C 235.76 79.82 247.05 81.88 256.29 87.61 C 261.68 79.75 268.55 72.72 277.10 68.33 Z" fill="#05395b" opacity="1.00" stroke="#05395b" stroke-width="0.25"/>
<path d="M 268.06 84.05 C 275.58 76.17 285.98 70.76 296.97 70.34 C 306.67 69.81 316.46 72.93 324.12 78.90 C 333.36 85.89 339.59 96.09 343.58 106.83 C 353.24 105.35 363.34 104.72 372.65 108.28 C 383.15 111.62 391.49 120.95 393.34 131.84 C 395.82 142.18 393.95 152.76 393.39 163.19 C 400.54 164.15 407.82 165.39 414.28 168.76 C 424.33 174.61 431.54 185.07 433.32 196.58 C 434.59 205.78 434.03 215.52 430.00 224.01 C 427.19 229.53 423.33 234.64 418.22 238.21 C 413.87 241.32 408.82 243.22 403.75 244.79 C 402.01 253.06 396.11 260.06 388.32 263.31 C 375.40 268.75 360.50 266.56 347.98 261.03 C 343.31 259.12 339.34 255.93 334.88 253.64 C 331.92 254.75 329.69 257.47 326.67 258.65 C 316.64 263.21 305.20 263.83 294.39 262.52 C 291.35 262.29 288.37 261.35 285.31 261.48 C 281.57 263.95 278.52 267.36 274.59 269.58 C 254.78 281.14 229.06 282.99 208.39 272.58 C 201.58 269.33 195.95 264.15 190.87 258.67 C 183.50 266.59 175.19 274.04 164.85 277.77 C 150.81 283.13 133.90 282.41 121.33 273.70 C 116.68 270.65 113.36 266.09 110.16 261.63 C 102.19 263.31 93.28 261.42 87.45 255.53 C 79.98 247.48 77.44 235.94 78.59 225.24 C 79.26 220.24 81.19 215.37 84.52 211.53 C 90.57 204.03 99.77 199.78 109.07 197.94 C 115.82 196.20 122.82 196.48 129.69 195.71 C 130.58 188.14 129.61 180.48 130.85 172.94 C 132.29 163.15 135.90 153.19 143.37 146.38 C 150.12 139.73 159.72 136.80 169.02 136.54 C 174.53 136.28 179.94 137.55 185.43 137.83 C 187.11 129.45 189.37 121.07 193.56 113.56 C 200.16 102.28 210.93 93.21 223.65 89.76 C 230.05 87.90 236.99 87.63 243.39 89.61 C 248.87 91.21 253.42 94.81 258.64 97.01 C 261.87 92.75 264.36 87.94 268.06 84.05 Z" fill="#74e1fe" opacity="1.00" stroke="#74e1fe" stroke-width="0.25"/>
<path d="M 290.27 92.47 C 301.27 89.34 313.10 94.26 320.89 102.11 C 326.29 106.92 329.75 113.34 333.25 119.55 C 337.44 119.65 341.83 119.47 345.74 121.25 C 349.12 122.82 352.30 124.79 355.43 126.79 C 360.43 131.91 361.55 140.40 357.34 146.32 C 354.03 150.58 348.79 152.51 344.19 155.00 C 344.20 155.67 344.21 157.03 344.22 157.70 C 354.63 158.23 364.87 162.37 372.35 169.69 C 374.53 171.86 376.01 174.85 375.75 177.98 C 375.78 183.37 372.21 188.01 372.44 193.42 C 372.93 193.23 373.91 192.84 374.40 192.65 C 380.02 190.08 387.02 192.57 390.65 197.36 C 394.67 202.47 394.46 209.43 394.34 215.59 C 393.39 222.86 392.22 230.55 387.39 236.39 C 382.55 243.05 374.41 246.33 366.45 247.24 C 352.42 249.07 338.39 244.78 325.98 238.51 C 315.42 244.84 302.64 248.35 290.41 245.46 C 285.02 244.64 280.64 241.29 275.94 238.87 C 274.43 239.65 273.22 240.86 272.01 242.02 C 263.72 250.41 252.69 255.72 241.28 258.36 C 230.03 261.16 217.52 257.79 208.99 250.01 C 203.59 245.06 200.61 238.21 198.35 231.39 C 194.71 234.40 191.76 238.39 187.34 240.35 C 178.77 244.14 169.28 245.19 159.99 245.44 C 150.15 245.53 140.08 244.11 131.11 239.87 C 127.80 238.00 125.19 235.06 123.02 231.98 C 118.93 225.94 120.58 216.77 126.79 212.79 C 132.16 208.66 139.23 210.70 145.27 211.76 C 146.97 206.95 146.52 201.74 147.95 196.87 C 147.42 201.06 147.78 205.29 148.26 209.47 C 149.50 209.60 150.74 209.74 151.97 209.88 C 153.02 203.86 153.48 197.63 155.92 191.96 C 159.39 183.65 166.37 176.99 174.64 173.53 C 181.43 170.72 189.28 171.03 195.95 174.04 C 198.90 175.47 202.16 175.98 205.38 175.24 C 204.36 173.57 203.35 171.90 202.16 170.34 C 206.08 165.44 210.46 160.34 211.28 153.87 C 212.41 158.28 213.51 162.95 216.44 166.56 C 217.76 168.18 220.13 167.46 221.94 167.80 C 220.44 160.73 216.31 154.33 216.18 146.96 C 215.31 137.03 219.42 126.49 227.79 120.77 C 232.68 117.11 239.83 116.66 245.00 120.02 C 250.72 123.55 254.03 129.83 259.61 133.51 C 262.02 135.24 264.57 132.85 266.35 131.32 C 268.10 129.52 270.45 127.21 269.69 124.45 C 268.66 122.25 266.10 123.98 264.40 124.24 C 266.67 117.66 269.28 111.04 273.37 105.35 C 277.96 99.96 283.32 94.59 290.27 92.47 Z" fill="#a8ecff" opacity="1.00" stroke="#a8ecff" stroke-width="0.25"/>
<path d="M 230.84 112.93 C 236.05 111.53 241.85 111.77 246.68 114.33 C 252.56 117.10 256.66 122.31 261.12 126.84 C 262.20 125.95 263.25 125.04 264.40 124.24 C 266.10 123.98 268.66 122.25 269.69 124.45 C 270.45 127.21 268.10 129.52 266.35 131.32 C 264.57 132.85 262.02 135.24 259.61 133.51 C 254.03 129.83 250.72 123.55 245.00 120.02 C 239.83 116.66 232.68 117.11 227.79 120.77 C 219.42 126.49 215.31 137.03 216.18 146.96 C 216.31 154.33 220.44 160.73 221.94 167.80 C 220.13 167.46 217.76 168.18 216.44 166.56 C 213.51 162.95 212.41 158.28 211.28 153.87 C 209.25 144.80 209.92 134.80 214.64 126.63 C 218.23 120.42 223.85 115.02 230.84 112.93 Z" fill="#ffffff" opacity="1.00" stroke="#ffffff" stroke-width="0.25"/>
<path d="M 354.57 125.45 C 355.41 125.39 357.08 125.27 357.92 125.21 C 362.21 130.97 363.96 139.07 360.55 145.67 C 358.16 150.50 353.12 152.95 348.69 155.55 C 354.82 156.52 360.78 158.60 366.01 161.98 C 370.57 164.87 375.68 168.09 377.38 173.54 C 379.47 180.04 376.12 186.48 374.40 192.65 C 373.91 192.84 372.93 193.23 372.44 193.42 C 372.21 188.01 375.78 183.37 375.75 177.98 C 376.01 174.85 374.53 171.86 372.35 169.69 C 364.87 162.37 354.63 158.23 344.22 157.70 C 344.21 157.03 344.20 155.67 344.19 155.00 C 348.79 152.51 354.03 150.58 357.34 146.32 C 361.55 140.40 360.43 131.91 355.43 126.79 C 355.22 126.46 354.78 125.79 354.57 125.45 Z" fill="#05395b" opacity="1.00" stroke="#05395b" stroke-width="0.25"/>
<path d="M 169.34 169.41 C 179.51 164.13 192.35 164.43 202.16 170.34 C 203.35 171.90 204.36 173.57 205.38 175.24 C 202.16 175.98 198.90 175.47 195.95 174.04 C 189.28 171.03 181.43 170.72 174.64 173.53 C 166.37 176.99 159.39 183.65 155.92 191.96 C 153.48 197.63 153.02 203.86 151.97 209.88 C 150.74 209.74 149.50 209.60 148.26 209.47 C 147.78 205.29 147.42 201.06 147.95 196.87 C 150.86 185.28 158.53 174.77 169.34 169.41 Z" fill="#ffffff" opacity="1.00" stroke="#ffffff" stroke-width="0.25"/>
<path d="M 387.39 236.39 C 392.22 230.55 393.39 222.86 394.34 215.59 C 395.79 216.61 396.78 218.21 396.23 220.03 C 395.37 227.44 392.59 234.87 387.18 240.18 C 380.81 247.12 371.09 249.48 362.04 250.23 C 353.03 250.54 344.03 248.49 335.65 245.26 C 332.39 244.08 329.37 242.26 326.02 241.33 C 323.25 242.27 320.81 243.94 318.12 245.06 C 304.62 250.75 287.97 250.28 275.93 241.38 C 266.38 251.88 253.17 258.74 239.26 261.25 C 226.51 263.55 212.78 258.45 204.47 248.55 C 201.19 244.98 199.30 240.44 197.45 236.02 C 188.72 244.62 176.05 246.99 164.26 247.63 C 153.07 248.35 141.67 247.01 131.25 242.72 C 131.22 242.01 131.15 240.59 131.11 239.87 C 140.08 244.11 150.15 245.53 159.99 245.44 C 169.28 245.19 178.77 244.14 187.34 240.35 C 191.76 238.39 194.71 234.40 198.35 231.39 C 200.61 238.21 203.59 245.06 208.99 250.01 C 217.52 257.79 230.03 261.16 241.28 258.36 C 252.69 255.72 263.72 250.41 272.01 242.02 C 273.22 240.86 274.43 239.65 275.94 238.87 C 280.64 241.29 285.02 244.64 290.41 245.46 C 302.64 248.35 315.42 244.84 325.98 238.51 C 338.39 244.78 352.42 249.07 366.45 247.24 C 374.41 246.33 382.55 243.05 387.39 236.39 Z" fill="#05395b" opacity="1.00" stroke="#05395b" stroke-width="0.25"/>
<path d="M 277.74 275.82 C 281.13 273.80 284.07 271.14 287.23 268.80 C 295.08 269.71 302.99 270.74 310.93 270.17 C 301.24 287.18 291.97 304.42 282.44 321.52 C 279.68 326.79 276.48 331.84 274.15 337.33 C 275.99 338.23 277.95 338.89 280.00 339.19 C 290.35 340.78 300.70 342.40 311.04 344.12 C 281.06 371.82 251.03 399.48 222.01 428.20 C 224.80 420.54 228.72 413.37 231.81 405.84 C 240.66 386.01 248.73 365.84 256.47 345.56 C 257.98 341.02 260.59 336.76 260.82 331.88 C 248.64 331.04 236.40 332.07 224.20 332.10 C 231.32 316.82 238.57 301.60 245.65 286.30 C 256.86 284.82 268.07 281.83 277.74 275.82 Z" fill="#ffffff" opacity="1.00" stroke="#ffffff" stroke-width="0.25"/>
</svg>