<svg xmlns="http://www.w3.org/2000/svg" height="512pt" version="1.1" viewBox="0 0 512 512" width="512pt">

<path d="M 314.42 34.95 C 318.64 35.41 321.86 38.42 324.79 41.21 C 331.15 47.87 335.02 56.78 335.84 65.93 C 336.77 71.77 335.60 77.60 335.02 83.40 C 343.93 80.42 353.97 79.41 362.77 83.33 C 373.24 87.71 379.98 98.21 382.17 109.05 C 385.35 125.05 382.61 141.62 377.52 156.93 C 384.79 161.10 390.17 168.67 391.13 177.06 C 391.87 183.87 390.16 190.63 388.23 197.10 C 382.75 214.64 374.73 231.32 370.07 249.14 C 376.38 255.08 381.25 263.13 381.43 272.00 C 381.84 279.70 379.19 287.42 374.42 293.44 C 368.85 300.06 360.25 303.44 351.73 303.75 C 348.61 311.80 344.88 319.72 339.62 326.60 C 337.86 328.99 336.70 331.74 335.32 334.34 C 326.34 350.41 313.03 364.34 296.45 372.61 C 294.63 373.78 292.20 374.29 290.92 376.11 C 290.61 381.76 290.90 387.43 290.80 393.09 C 309.74 393.78 328.79 397.27 346.20 404.94 C 363.66 412.29 379.07 424.47 390.13 439.86 C 396.80 449.44 402.08 460.32 403.51 472.01 C 404.04 474.16 402.41 476.98 399.97 476.53 C 397.46 476.69 396.76 473.85 396.13 471.99 C 392.03 456.50 382.45 442.98 370.95 432.06 C 354.13 416.26 332.69 406.03 310.43 400.50 C 303.97 398.90 297.45 397.38 290.79 397.01 C 290.28 404.51 292.75 413.13 287.43 419.44 C 279.32 429.78 265.58 433.54 252.99 434.30 C 240.29 434.46 226.76 431.58 216.98 423.02 C 213.61 419.51 210.06 415.23 210.33 410.07 C 210.29 405.70 210.37 401.34 210.33 396.98 C 183.81 400.82 157.57 410.49 136.84 427.83 C 125.02 437.63 115.17 450.04 109.31 464.30 C 107.75 467.94 107.04 471.88 105.38 475.48 C 104.37 476.84 102.63 476.76 101.18 476.34 C 98.17 474.48 99.49 470.56 99.93 467.74 C 105.51 444.91 121.52 425.67 141.18 413.32 C 161.72 400.18 186.16 394.45 210.27 393.07 C 210.34 387.30 210.29 381.54 210.37 375.78 C 196.60 369.46 183.95 360.41 174.51 348.47 C 163.91 335.64 157.08 320.02 153.04 303.98 C 146.29 303.63 139.14 303.43 133.23 299.71 C 119.47 292.30 114.55 273.22 121.65 259.61 C 123.39 255.85 126.20 252.76 129.16 249.93 C 120.97 225.39 113.99 200.36 110.31 174.72 C 108.86 164.25 107.38 153.72 107.49 143.13 C 111.13 139.88 114.78 136.54 119.20 134.36 C 120.98 133.19 123.90 132.59 123.98 130.00 C 127.14 110.74 137.73 93.12 152.26 80.26 C 170.21 63.97 194.62 54.00 219.03 55.73 C 230.03 56.43 240.31 60.77 251.03 62.96 C 262.19 65.61 273.95 66.12 285.09 63.12 C 295.84 60.58 305.53 53.54 310.76 43.74 C 312.21 40.91 313.20 37.88 314.42 34.95 Z" fill="#064065" opacity="1.00" stroke="#064065" stroke-width="0.25" data-index="1" style="opacity: 1;"></path>
<path d="M 302.73 60.75 C 309.35 55.93 313.14 48.56 318.08 42.24 C 326.54 49.51 330.62 61.04 330.20 72.03 C 330.17 77.61 328.76 83.04 327.36 88.41 C 327.07 90.11 326.03 92.19 327.86 93.38 C 333.31 91.43 338.38 88.23 344.24 87.57 C 352.33 86.66 361.42 87.56 367.65 93.36 C 374.33 98.98 376.69 107.86 377.44 116.22 C 378.31 128.01 377.06 140.02 373.32 151.26 C 372.40 154.08 371.64 156.95 371.00 159.85 C 375.90 163.92 382.29 167.23 384.32 173.72 C 386.91 182.25 384.38 191.30 381.57 199.45 C 378.59 208.04 375.45 216.57 371.97 224.97 C 369.09 231.68 367.52 238.85 364.66 245.56 C 360.27 244.67 355.89 243.73 351.59 242.50 C 350.50 236.23 350.37 229.85 349.41 223.56 C 347.86 213.30 345.30 203.23 342.66 193.21 C 341.78 189.72 340.40 186.39 338.74 183.21 C 332.03 183.58 325.22 185.07 318.57 183.40 C 310.23 181.30 302.38 176.79 296.80 170.20 C 293.21 166.06 291.22 160.87 288.07 156.44 C 281.90 159.66 276.44 164.03 270.31 167.33 C 262.63 171.44 255.09 175.91 246.84 178.83 C 231.51 185.01 215.38 189.32 198.90 190.84 C 186.58 192.46 174.19 190.52 162.10 188.16 C 160.31 195.35 160.24 203.02 156.76 209.72 C 154.75 214.76 150.54 218.60 148.83 223.75 C 147.88 229.99 148.49 236.37 147.58 242.63 C 142.95 243.94 138.28 245.11 133.53 245.81 C 128.27 232.31 124.56 218.27 120.96 204.25 C 117.48 184.74 112.93 165.18 113.23 145.25 C 117.21 142.00 121.83 139.72 126.29 137.22 C 130.57 135.11 129.55 129.50 130.91 125.64 C 136.46 106.03 149.63 88.74 166.81 77.81 C 173.59 73.29 181.32 70.50 188.97 67.83 C 200.49 63.90 212.88 63.07 224.93 64.36 C 237.10 66.16 248.83 70.30 261.09 71.58 C 275.58 72.74 290.96 69.58 302.73 60.75 Z" fill="#6f4a42" opacity="1.00" stroke="#6f4a42" stroke-width="0.25" data-index="2" style="opacity: 1;"></path>
<path d="M 217.31 194.44 C 241.99 188.99 265.54 178.51 286.33 164.18 C 290.98 172.04 296.76 179.54 304.82 184.15 C 313.87 189.72 325.03 191.40 335.41 189.31 C 341.00 207.46 344.86 226.22 345.58 245.23 C 346.13 262.84 345.33 280.58 341.91 297.89 C 338.88 313.28 333.45 328.41 324.20 341.20 C 315.49 353.86 303.00 363.75 288.96 369.92 C 255.92 384.17 214.50 378.86 187.64 354.35 C 176.21 344.11 168.05 330.61 162.85 316.25 C 156.75 298.84 154.49 280.33 153.68 261.98 C 153.32 249.46 153.38 236.90 154.64 224.44 C 155.24 222.38 156.93 220.87 158.06 219.10 C 163.18 212.19 165.43 203.71 166.61 195.32 C 183.34 198.62 200.68 197.99 217.31 194.44 Z" fill="#fec7b0" opacity="1.00" stroke="#fec7b0" stroke-width="0.25" data-index="3" style="opacity: 1;"></path>

<path d="M 305.94 215.03 C 310.37 213.56 314.54 210.45 319.45 211.31 C 320.19 213.44 321.49 215.55 321.29 217.89 C 320.31 220.13 317.72 220.72 315.74 221.73 C 303.33 226.91 290.39 231.24 276.95 232.57 C 273.89 232.64 270.37 233.17 267.72 231.28 C 265.94 228.95 265.62 224.94 267.76 222.75 C 270.80 222.17 273.93 222.49 277.01 222.19 C 286.96 221.39 296.59 218.41 305.94 215.03 Z" fill="#064065" opacity="1.00" stroke="#064065" stroke-width="0.25" data-index="5" style="opacity: 1; visibility: hidden;"></path>

<path d="M 59.40 227.51 C 63.45 227.17 67.32 228.82 71.20 229.73 C 77.42 231.56 83.89 232.61 89.89 235.11 C 95.59 237.11 95.54 246.97 89.59 248.55 C 84.55 249.40 79.63 247.29 74.80 246.14 C 69.14 244.38 63.22 243.41 57.71 241.21 C 51.85 238.82 53.31 228.66 59.40 227.51 Z" fill="#86e5fe" opacity="1.00" stroke="#86e5fe" stroke-width="0.25" data-index="7" style="visibility: hidden; opacity: 1;"></path>
<path d="M 176.34 243.14 C 181.22 243.82 185.78 245.92 190.67 246.60 C 203.56 248.98 216.91 247.13 229.16 242.73 C 232.22 241.93 232.65 245.88 232.56 248.02 C 231.42 248.31 230.29 248.61 229.15 248.90 C 223.52 250.57 217.88 252.26 212.06 253.16 C 214.63 257.81 216.34 264.07 212.50 268.57 C 207.83 275.60 195.75 274.25 192.63 266.47 C 190.50 262.04 192.24 257.14 194.74 253.30 C 188.85 252.45 183.08 250.99 177.32 249.52 C 176.83 249.41 175.85 249.20 175.35 249.10 C 175.20 247.05 175.58 245.04 176.34 243.14 Z" fill="#064065" opacity="1.00" stroke="#064065" stroke-width="0.25" data-index="8" style="opacity: 1;"></path>
<path d="M 268.26 248.21 C 267.98 246.09 268.66 244.13 269.83 242.40 C 275.71 243.90 281.47 245.95 287.51 246.77 C 299.69 248.81 312.25 247.14 323.84 243.07 C 325.40 244.73 325.92 246.86 325.45 249.07 C 324.99 249.18 324.07 249.38 323.61 249.49 C 317.82 251.02 312.03 252.56 306.07 253.26 C 308.88 258.01 310.44 264.74 306.17 269.16 C 301.23 275.62 289.54 273.97 286.74 266.29 C 284.53 261.82 286.61 256.99 288.82 253.00 C 282.78 252.25 277.03 250.20 271.14 248.80 C 270.42 248.65 268.98 248.36 268.26 248.21 Z" fill="#064065" opacity="1.00" stroke="#064065" stroke-width="0.25" data-index="9" style="opacity: 1;"></path>
<path d="M 212.06 253.16 C 217.88 252.26 223.52 250.57 229.15 248.90 C 231.23 258.04 227.12 268.19 219.24 273.26 C 212.14 277.99 203.11 277.82 194.97 276.79 C 187.49 275.82 181.73 269.70 178.87 263.04 C 176.96 258.80 177.18 254.05 177.32 249.52 C 183.08 250.99 188.85 252.45 194.74 253.30 C 192.24 257.14 190.50 262.04 192.63 266.47 C 195.75 274.25 207.83 275.60 212.50 268.57 C 216.34 264.07 214.63 257.81 212.06 253.16 Z" fill="#ffffff" opacity="1.00" stroke="#ffffff" stroke-width="0.25" data-index="10" style="opacity: 1;"></path>
<path d="M 271.14 248.80 C 277.03 250.20 282.78 252.25 288.82 253.00 C 286.61 256.99 284.53 261.82 286.74 266.29 C 289.54 273.97 301.23 275.62 306.17 269.16 C 310.44 264.74 308.88 258.01 306.07 253.26 C 312.03 252.56 317.82 251.02 323.61 249.49 C 324.11 257.56 322.15 266.34 315.71 271.76 C 309.18 277.99 299.43 277.77 291.07 276.85 C 282.50 276.05 275.20 269.54 272.39 261.59 C 270.94 257.49 271.05 253.08 271.14 248.80 Z" fill="#ffffff" opacity="1.00" stroke="#ffffff" stroke-width="0.25" data-index="11" style="opacity: 1;"></path>
<path d="M 132.88 255.89 C 136.79 252.01 142.29 250.38 147.68 250.13 C 147.91 265.78 148.89 281.46 151.64 296.89 C 145.29 296.76 138.40 295.94 133.47 291.51 C 122.65 283.09 122.46 264.71 132.88 255.89 Z" fill="#fec7b0" opacity="1.00" stroke="#fec7b0" stroke-width="0.25" data-index="12"></path>
<path d="M 351.76 250.01 C 359.97 250.25 368.09 254.80 371.85 262.23 C 377.89 272.64 374.06 287.54 363.55 293.53 C 359.00 296.30 353.53 296.52 348.36 296.85 C 349.10 290.82 350.28 284.86 350.74 278.80 C 351.74 269.23 351.45 259.60 351.76 250.01 Z" fill="#fec7b0" opacity="1.00" stroke="#fec7b0" stroke-width="0.25" data-index="13"></path>
<path d="M 247.90 256.08 C 248.59 256.13 249.97 256.21 250.65 256.26 C 252.52 265.41 254.49 274.73 258.94 283.05 C 260.71 286.73 263.10 290.69 262.09 294.94 C 261.38 298.21 258.45 300.42 255.51 301.62 C 251.46 303.28 246.90 301.71 243.46 299.38 C 241.67 298.36 242.13 295.61 244.01 295.00 C 247.59 295.50 251.46 298.21 254.93 295.93 C 257.88 293.73 256.41 289.65 255.03 286.97 C 250.17 277.55 245.70 266.88 247.90 256.08 Z" fill="#064065" opacity="1.00" stroke="#064065" stroke-width="0.25" data-index="14" style="opacity: 1;"></path>

<path d="M 419.49 265.69 C 424.63 264.70 429.91 265.64 435.07 266.05 C 440.06 266.70 445.23 266.44 450.06 268.03 C 456.08 270.23 455.31 280.76 448.81 281.62 C 441.49 282.28 434.21 280.64 426.90 280.35 C 423.25 279.90 418.49 280.23 416.30 276.63 C 414.72 272.96 415.50 267.45 419.49 265.69 Z" fill="#86e5fe" opacity="1.00" stroke="#86e5fe" stroke-width="0.25" data-index="16" style="visibility: hidden; opacity: 1;"></path>

<path d="M 302.39 280.42 C 310.63 278.82 319.47 284.90 320.88 293.17 C 321.99 298.84 320.60 305.24 316.24 309.24 C 313.11 312.46 308.50 313.79 304.10 313.59 C 295.54 313.54 287.84 305.63 288.16 297.05 C 287.88 288.94 294.40 281.48 302.39 280.42 Z" fill="#fd8775" opacity="1.00" stroke="#fd8775" stroke-width="0.25" data-index="18" style="opacity: 1; visibility: hidden;"></path>

<path d="M 405.49 294.53 C 408.86 293.80 412.00 295.74 414.91 297.17 C 422.26 301.26 429.96 304.66 437.37 308.63 C 442.18 311.21 447.41 313.01 451.98 316.03 C 456.96 318.90 455.42 327.81 449.83 329.01 C 446.74 329.85 443.76 328.15 441.04 326.90 C 434.06 323.19 426.83 319.97 419.90 316.16 C 414.24 313.05 408.11 310.83 402.72 307.25 C 397.87 304.12 399.94 295.63 405.49 294.53 Z" fill="#86e5fe" opacity="1.00" stroke="#86e5fe" stroke-width="0.25" data-index="20" style="visibility: hidden; opacity: 1;"></path>

<path d="M 230.55 326.60 C 235.82 323.96 241.93 323.85 247.69 324.30 C 255.95 325.18 263.56 330.28 267.33 337.71 C 267.99 339.19 267.62 340.86 267.65 342.44 C 266.55 342.49 265.46 342.55 264.38 342.62 C 261.64 338.52 258.63 334.25 254.08 332.02 C 248.84 329.56 242.72 328.82 237.12 330.42 C 234.62 331.14 232.08 331.81 229.45 331.63 C 229.51 329.94 228.36 327.34 230.55 326.60 Z" fill="#064065" opacity="1.00" stroke="#064065" stroke-width="0.25" data-index="22" style="opacity: 1; visibility: visible;"></path>
<path d="M 254.97 383.51 C 264.76 383.00 274.42 381.05 283.78 378.17 C 283.95 387.80 283.83 397.43 283.90 407.06 C 283.87 409.56 284.06 412.35 282.36 414.42 C 277.91 420.50 270.78 423.96 263.62 425.73 C 251.83 428.89 238.84 427.58 227.96 422.04 C 223.48 419.68 218.94 416.06 217.59 411.01 C 217.40 400.19 217.47 389.36 217.59 378.54 C 229.70 382.03 242.34 384.08 254.97 383.51 Z" fill="#fec7b0" opacity="1.00" stroke="#fec7b0" stroke-width="0.25" data-index="23" style="opacity: 1;"></path>
</svg>