<?xml version="1.0" encoding="utf-8"?>
<svg xmlns="http://www.w3.org/2000/svg" height="512pt" version="1.1" viewBox="0 0 512 512" width="512pt">
<path d="M 0.00 0.00 L 512.00 0.00 L 512.00 512.00 L 0.00 512.00 L 0.00 0.00 Z" fill="transparent" opacity="1.00" stroke="transparent" stroke-width="0.25"/>
<path d="M 213.16 69.70 C 232.19 65.81 251.73 65.94 271.05 66.58 C 288.96 67.91 307.08 70.74 323.44 78.50 C 331.89 81.55 338.74 87.69 344.37 94.52 C 350.04 102.03 352.55 111.70 351.56 121.04 C 350.74 136.09 341.96 148.88 337.59 162.94 C 335.38 169.44 334.72 176.67 336.75 183.31 C 339.41 191.43 347.30 195.97 351.49 203.14 C 357.93 212.78 362.15 224.33 361.24 236.06 C 360.15 251.44 349.82 264.51 349.40 280.01 C 349.10 286.28 350.92 292.44 353.99 297.86 C 359.59 308.05 364.20 319.26 364.44 331.04 C 364.44 340.11 362.25 349.09 358.45 357.30 C 350.70 375.83 340.49 393.89 338.34 414.21 C 331.46 413.55 324.54 413.46 317.63 413.28 C 317.70 336.87 317.64 260.46 317.66 184.05 C 317.59 151.14 317.80 118.23 317.54 85.32 C 311.39 84.39 305.16 84.92 298.97 84.83 C 260.72 85.05 222.46 84.66 184.21 85.13 C 184.03 194.52 184.35 303.91 184.09 413.31 C 170.78 413.45 157.47 414.33 144.27 416.00 C 144.44 408.18 145.58 400.31 148.20 392.92 C 151.62 384.47 154.85 375.93 158.92 367.76 C 162.37 359.48 165.25 350.67 164.78 341.58 C 164.81 334.62 163.59 327.26 159.26 321.60 C 152.53 313.01 142.73 307.41 136.26 298.59 C 133.20 294.17 130.11 289.54 129.01 284.19 C 126.72 271.95 129.71 259.31 135.29 248.36 C 138.24 241.49 142.54 235.32 145.51 228.47 C 149.79 221.28 153.59 213.83 157.43 206.40 C 163.88 193.11 166.62 177.71 163.29 163.17 C 159.88 148.65 147.38 138.05 145.35 123.04 C 142.90 112.23 148.51 101.44 156.06 94.02 C 165.97 85.14 178.09 78.97 190.77 75.08 C 198.22 73.20 205.45 70.39 213.16 69.70 Z" fill="#bdf1ff" opacity="1.00" stroke="#bdf1ff" stroke-width="0.25"/>
<path d="M 184.21 85.13 C 222.46 84.66 260.72 85.05 298.97 84.83 C 305.16 84.92 311.39 84.39 317.54 85.32 C 317.80 118.23 317.59 151.14 317.66 184.05 C 317.64 260.46 317.70 336.87 317.63 413.28 C 324.54 413.46 331.46 413.55 338.34 414.21 C 354.36 415.26 370.33 417.22 386.08 420.36 C 389.03 420.92 392.01 421.55 394.72 422.92 C 393.82 424.05 392.65 424.86 391.18 424.31 C 367.37 420.08 343.21 418.05 319.08 417.00 C 315.86 416.62 312.97 418.32 309.90 418.88 C 293.20 422.21 276.55 425.73 259.93 429.43 C 258.34 430.00 256.90 429.14 255.52 428.50 C 255.48 372.51 255.61 316.51 255.43 260.53 C 253.41 259.06 251.18 257.91 249.07 256.60 C 248.04 257.14 247.01 257.69 245.98 258.24 C 242.51 259.31 238.99 260.23 235.36 260.50 C 235.41 262.08 235.46 263.66 235.52 265.25 C 235.06 265.66 234.14 266.48 233.67 266.89 C 235.59 281.55 236.07 296.35 237.00 311.09 C 238.72 340.02 239.35 369.02 238.65 398.00 C 238.57 399.38 238.45 400.75 238.29 402.12 C 243.41 404.80 248.54 407.50 253.36 410.70 C 253.67 411.30 254.29 412.51 254.60 413.11 C 253.69 415.44 251.69 417.15 249.08 416.98 C 236.42 417.32 223.74 417.08 211.07 417.09 C 180.10 415.85 149.14 418.72 118.46 422.71 C 117.60 420.52 119.74 420.14 121.08 419.74 C 128.75 418.19 136.49 416.93 144.27 416.00 C 157.47 414.33 170.78 413.45 184.09 413.31 C 184.35 303.91 184.03 194.52 184.21 85.13 Z" fill="#0c3758" opacity="1.00" stroke="#0c3758" stroke-width="0.25"/>
<path d="M 259.56 99.79 C 277.55 96.00 295.58 92.33 313.55 88.40 C 313.60 181.27 313.54 274.15 313.57 367.02 C 313.49 382.77 313.72 398.52 313.42 414.27 C 295.43 417.95 277.43 421.63 259.51 425.62 C 259.57 371.11 259.47 316.59 259.53 262.08 C 263.16 263.70 267.08 263.86 270.97 263.34 C 272.28 262.32 273.88 261.38 273.93 259.50 C 275.06 259.01 276.20 258.53 277.34 258.07 C 277.43 256.80 278.13 255.47 277.60 254.23 C 276.32 253.60 274.98 253.16 273.65 252.69 C 274.57 252.56 276.41 252.30 277.33 252.17 C 276.69 250.93 276.10 249.54 274.62 249.15 C 269.92 247.18 264.92 245.85 259.80 245.73 C 259.57 242.82 259.44 239.91 259.46 237.01 C 259.61 191.27 259.42 145.53 259.56 99.79 Z" fill="#62ddfd" opacity="1.00" stroke="#62ddfd" stroke-width="0.25"/>
<path d="M 188.15 93.04 C 188.16 91.62 188.22 90.20 188.29 88.79 C 222.84 89.18 257.40 88.55 291.94 89.01 C 280.83 91.57 269.64 93.85 258.47 96.16 C 257.41 96.52 255.50 96.69 255.58 98.21 C 255.33 103.86 255.63 109.51 255.41 115.17 C 252.73 114.60 249.65 114.55 247.57 112.51 C 244.59 109.82 241.18 106.83 236.89 107.07 C 233.64 106.86 230.99 108.95 228.17 110.19 C 224.24 110.49 220.00 109.38 216.36 111.35 C 211.70 113.61 207.25 117.47 206.43 122.85 C 204.83 130.17 205.89 137.72 206.93 145.04 C 207.72 149.37 208.31 154.21 211.74 157.37 C 211.30 158.62 210.81 159.85 210.33 161.09 C 204.50 161.29 198.20 164.48 196.47 170.40 C 193.32 179.95 192.86 190.15 192.50 200.13 C 193.28 200.20 194.84 200.34 195.62 200.41 C 195.35 223.49 195.29 246.57 195.53 269.65 C 196.27 269.69 197.75 269.76 198.49 269.80 C 197.33 312.61 195.68 355.47 192.32 398.17 C 192.58 398.56 193.11 399.35 193.38 399.75 C 191.94 404.17 191.78 408.85 191.46 413.45 C 190.70 413.39 189.18 413.26 188.42 413.20 C 188.24 412.15 188.15 411.10 188.14 410.05 C 188.12 304.38 188.14 198.71 188.15 93.04 Z" fill="#ffffff" opacity="1.00" stroke="#ffffff" stroke-width="0.25"/>
<path d="M 229.32 112.34 C 232.33 111.45 235.03 108.99 238.35 109.56 C 241.42 109.89 243.41 112.51 245.65 114.32 C 248.22 116.86 251.99 117.13 255.32 117.94 C 255.38 121.42 256.26 125.66 253.02 128.07 C 246.57 133.79 237.18 131.94 229.79 129.31 C 229.49 132.20 229.37 135.27 227.80 137.82 C 226.72 139.76 224.60 140.71 222.83 141.90 C 221.88 139.49 220.48 137.31 218.15 136.06 C 213.97 136.98 210.77 140.72 211.48 145.10 C 211.21 148.10 213.79 149.80 215.87 151.37 C 215.48 152.59 215.08 153.80 214.69 155.02 C 213.25 154.22 211.39 153.60 211.04 151.74 C 208.37 142.81 207.71 133.34 208.46 124.07 C 209.45 119.31 213.21 115.52 217.63 113.69 C 221.24 111.72 225.46 113.15 229.32 112.34 Z" fill="#63433d" opacity="1.00" stroke="#63433d" stroke-width="0.25"/>
<path d="M 250.41 132.92 C 252.18 131.77 253.91 130.55 255.60 129.29 C 255.46 153.73 255.50 178.17 255.52 202.60 C 251.27 202.18 246.86 201.42 243.24 199.02 C 240.54 197.09 238.42 194.51 236.29 192.01 C 236.92 191.48 238.18 190.42 238.81 189.89 C 236.58 185.71 233.31 182.24 230.80 178.24 C 229.02 175.43 226.97 172.75 224.23 170.81 C 224.55 169.35 224.92 167.91 225.32 166.47 C 230.12 168.25 236.03 168.58 240.31 165.34 C 244.17 162.71 246.49 158.51 248.11 154.24 C 249.66 154.00 251.21 153.74 252.76 153.48 C 252.65 146.56 250.61 139.84 250.41 132.92 Z" fill="#ffffff" opacity="1.00" stroke="#ffffff" stroke-width="0.25"/>
<path d="M 231.96 132.47 C 237.06 134.20 242.59 135.06 247.86 133.55 C 248.62 139.55 248.97 145.61 250.37 151.51 C 249.09 151.52 247.82 151.53 246.55 151.54 C 245.21 155.09 243.44 158.46 241.25 161.56 C 240.01 160.49 238.67 159.52 237.10 158.98 C 234.57 158.25 233.30 155.82 231.63 154.00 C 230.90 159.18 236.50 160.68 239.87 162.97 C 236.26 164.99 231.96 166.18 227.92 164.70 C 224.32 163.92 222.45 160.30 219.18 158.90 C 220.26 161.09 221.75 163.03 223.27 164.92 C 222.33 167.49 221.56 170.12 220.97 172.80 C 216.94 170.57 214.13 166.85 211.35 163.30 C 213.07 161.81 214.00 159.75 214.59 157.59 C 215.48 157.46 216.37 157.33 217.26 157.20 C 217.58 155.20 217.82 153.20 218.05 151.19 C 219.11 150.45 220.07 149.60 220.95 148.65 C 219.96 148.75 217.99 148.95 217.01 149.05 C 216.41 148.87 215.20 148.50 214.60 148.31 C 213.87 146.48 213.13 144.44 213.86 142.47 C 214.48 140.42 216.50 139.41 218.08 138.17 C 219.90 140.13 220.68 142.65 221.01 145.26 C 224.06 144.15 227.09 142.66 229.17 140.08 C 231.06 138.01 231.35 135.08 231.96 132.47 Z" fill="#fdcab4" opacity="1.00" stroke="#fdcab4" stroke-width="0.25"/>
<path d="M 233.34 138.66 C 236.69 137.83 240.07 137.08 243.45 136.37 C 243.79 137.09 244.46 138.53 244.80 139.25 C 241.14 140.33 237.42 141.30 233.59 141.52 C 233.50 140.57 233.42 139.61 233.34 138.66 Z" fill="#0c3758" opacity="1.00" stroke="#0c3758" stroke-width="0.25"/>
<path d="M 239.74 142.61 C 240.70 142.56 241.67 142.52 242.65 142.48 C 242.67 143.58 242.70 144.68 242.73 145.78 C 241.72 145.67 240.70 145.55 239.70 145.44 C 239.71 144.50 239.72 143.55 239.74 142.61 Z" fill="#0c3758" opacity="1.00" stroke="#0c3758" stroke-width="0.25"/>
<path d="M 198.87 171.09 C 200.07 166.86 204.54 164.10 208.67 163.81 C 212.35 168.14 215.82 172.88 221.03 175.52 C 222.03 174.84 223.02 174.16 224.02 173.48 C 225.70 175.75 227.55 178.08 227.94 180.98 C 230.10 194.53 230.46 208.28 230.85 221.97 C 231.35 229.85 231.42 237.75 231.61 245.65 C 223.35 242.62 217.60 235.11 214.98 226.92 C 212.43 218.71 211.65 210.10 210.57 201.61 C 211.16 201.57 212.34 201.49 212.93 201.44 C 212.68 195.81 212.60 190.16 212.02 184.55 C 211.42 184.28 210.20 183.74 209.60 183.48 C 209.41 188.53 209.94 193.56 210.36 198.58 C 205.28 198.67 200.20 198.45 195.19 197.55 C 195.86 188.69 196.05 179.59 198.87 171.09 Z" fill="#62ddfd" opacity="1.00" stroke="#62ddfd" stroke-width="0.25"/>
<path d="M 231.28 183.52 C 232.62 185.51 234.03 187.46 235.54 189.34 C 234.34 190.76 233.14 192.18 231.95 193.60 C 231.86 190.23 231.60 186.87 231.28 183.52 Z" fill="#62ddfd" opacity="1.00" stroke="#62ddfd" stroke-width="0.25"/>
<path d="M 232.44 196.65 C 233.26 195.83 234.10 195.02 234.93 194.21 C 237.39 197.34 240.23 200.26 243.71 202.25 C 247.33 204.24 251.49 204.70 255.49 205.38 C 255.41 209.22 255.44 213.06 255.49 216.90 C 247.90 216.35 239.85 214.86 233.76 210.01 C 232.53 205.72 232.91 201.08 232.44 196.65 Z" fill="#fdcab4" opacity="1.00" stroke="#fdcab4" stroke-width="0.25"/>
<path d="M 198.19 200.69 C 201.46 201.19 204.77 201.37 208.07 201.42 C 209.29 212.85 210.00 224.86 215.85 235.06 C 219.19 241.25 224.83 246.45 231.80 248.07 C 237.59 249.29 243.71 248.63 249.20 246.46 C 251.85 245.36 254.62 244.56 257.47 244.11 C 257.56 244.59 257.74 245.55 257.83 246.03 C 256.04 246.26 253.94 245.93 252.68 247.51 C 259.33 248.88 266.10 249.55 272.80 250.63 C 271.54 253.04 270.75 256.03 268.22 257.46 C 263.27 257.36 258.99 254.62 254.40 253.14 C 256.27 258.01 262.51 258.12 266.68 259.99 C 266.29 260.29 265.50 260.90 265.11 261.20 C 259.32 259.74 254.05 256.80 249.04 253.63 C 245.00 255.74 240.63 257.66 235.96 257.49 C 224.85 257.40 214.25 250.75 208.71 241.21 C 201.34 229.05 199.74 214.54 198.19 200.69 Z" fill="#fdcab4" opacity="1.00" stroke="#fdcab4" stroke-width="0.25"/>
<path d="M 233.42 213.03 C 240.02 217.18 247.81 219.29 255.56 219.71 C 255.46 227.11 255.54 234.50 255.52 241.90 C 248.60 243.79 241.79 246.60 234.46 245.89 C 234.29 234.93 233.65 223.99 233.42 213.03 Z" fill="#ffffff" opacity="1.00" stroke="#ffffff" stroke-width="0.25"/>
<path d="M 198.48 218.87 C 200.19 231.93 205.67 245.43 216.57 253.45 C 221.21 256.90 226.72 259.32 232.53 259.80 C 232.61 261.21 232.69 262.61 232.76 264.03 C 221.41 266.57 209.84 268.27 198.19 267.62 C 198.43 251.37 197.96 235.11 198.48 218.87 Z" fill="#62ddfd" opacity="1.00" stroke="#62ddfd" stroke-width="0.25"/>
<path d="M 266.38 233.58 C 269.85 231.08 275.76 233.60 275.88 238.01 C 276.72 242.25 272.09 245.97 268.09 244.59 C 263.42 243.37 262.46 236.22 266.38 233.58 Z" fill="#0c3758" opacity="1.00" stroke="#0c3758" stroke-width="0.25"/>
<path d="M 256.96 249.84 C 260.88 250.86 264.68 252.38 268.74 252.84 C 268.69 253.52 268.61 254.87 268.57 255.55 C 264.68 255.05 260.84 253.93 257.42 252.01 C 257.31 251.47 257.08 250.38 256.96 249.84 Z" fill="#0c3758" opacity="1.00" stroke="#0c3758" stroke-width="0.25"/>
<path d="M 272.32 255.38 C 273.24 254.14 276.22 255.21 274.95 256.80 C 274.02 258.02 271.04 256.97 272.32 255.38 Z" fill="#4294c6" opacity="1.00" stroke="#4294c6" stroke-width="0.25"/>
<path d="M 268.58 259.52 C 268.98 258.09 271.78 257.73 272.27 259.25 C 271.87 260.70 269.02 261.11 268.58 259.52 Z" fill="#ffffff" opacity="1.00" stroke="#ffffff" stroke-width="0.25"/>
<path d="M 208.22 270.38 C 215.73 269.67 223.14 268.35 230.58 267.18 L 230.58 268.30 C 230.58 270.88 230.61 273.47 230.66 276.06 C 230.34 273.41 230.01 270.76 229.67 268.12 C 223.12 269.59 216.41 270.02 209.81 271.14 C 211.69 287.95 214.56 304.64 216.13 321.49 C 217.56 335.65 220.10 349.73 220.34 364.00 C 220.58 371.02 221.58 378.00 221.76 385.04 C 221.96 389.35 221.91 393.75 223.17 397.93 C 226.80 399.40 230.90 398.58 234.73 398.76 C 235.86 380.88 235.97 362.92 234.80 345.05 C 234.92 344.87 235.17 344.51 235.29 344.32 C 236.87 344.49 235.81 346.86 236.03 347.98 C 235.33 356.00 236.54 363.99 236.30 372.02 C 236.35 381.24 236.32 390.47 235.70 399.68 C 231.14 399.66 226.59 399.64 222.03 399.58 C 220.67 379.39 219.24 359.20 217.39 339.03 C 214.31 316.15 212.36 293.10 208.22 270.38 Z" fill="#b9352e" opacity="1.00" stroke="#b9352e" stroke-width="0.25"/>
<path d="M 230.58 268.30 L 231.35 268.30 C 232.26 289.91 234.60 311.44 234.73 333.10 L 235.32 333.86 C 235.38 337.23 235.44 340.60 235.53 343.97 L 235.29 344.32 C 235.17 344.51 234.92 344.87 234.80 345.05 C 235.97 362.92 235.86 380.88 234.73 398.76 C 230.90 398.58 226.80 399.40 223.17 397.93 C 221.91 393.75 221.96 389.35 221.76 385.04 C 221.58 378.00 220.58 371.02 220.34 364.00 C 220.10 349.73 217.56 335.65 216.13 321.49 C 214.56 304.64 211.69 287.95 209.81 271.14 C 216.41 270.02 223.12 269.59 229.67 268.12 C 230.01 270.76 230.34 273.41 230.66 276.06 C 230.61 273.47 230.58 270.88 230.58 268.30 Z" fill="#f75d30" opacity="1.00" stroke="#f75d30" stroke-width="0.25"/>
<path d="M 266.80 269.84 C 267.48 267.26 272.30 267.54 272.47 270.30 C 273.30 273.51 272.79 276.85 272.42 280.09 C 270.52 281.39 268.04 281.67 266.77 279.40 C 265.79 276.35 265.85 272.90 266.80 269.84 Z" fill="#0c3758" opacity="1.00" stroke="#0c3758" stroke-width="0.25"/>
<path d="M 200.47 270.31 C 202.52 269.95 205.85 268.62 206.57 271.57 C 205.19 271.48 203.82 271.38 202.44 271.27 C 201.39 282.23 201.82 293.26 200.84 304.22 C 199.98 314.09 200.71 324.02 199.86 333.89 C 199.39 339.64 199.34 345.41 198.78 351.16 C 197.97 359.12 198.65 367.15 197.73 375.11 C 196.91 382.29 196.16 389.50 196.24 396.74 C 197.51 396.66 198.78 396.58 200.05 396.51 C 199.10 396.77 197.19 397.31 196.23 397.57 L 194.79 397.97 C 195.48 388.66 195.72 379.33 196.53 370.03 C 198.12 352.74 197.66 335.33 199.32 318.05 C 199.80 309.03 199.59 300.00 199.91 290.98 C 200.46 284.10 200.56 277.21 200.47 270.31 Z" fill="#63433d" opacity="1.00" stroke="#63433d" stroke-width="0.25"/>
<path d="M 268.70 270.09 C 272.13 271.66 270.04 276.46 270.03 279.39 C 269.76 278.92 269.20 277.98 268.92 277.51 C 268.80 275.50 268.80 273.48 268.73 271.47 L 268.70 270.09 Z" fill="#f75d30" opacity="1.00" stroke="#f75d30" stroke-width="0.25"/>
<path d="M 202.44 271.27 C 203.82 271.38 205.19 271.48 206.57 271.57 C 206.31 276.10 207.83 280.48 208.10 284.98 C 209.88 297.96 211.34 310.99 213.00 323.99 C 214.31 329.64 212.60 335.30 212.55 340.97 C 212.48 359.81 210.11 378.50 209.47 397.30 C 208.89 397.54 207.73 398.01 207.14 398.24 C 203.54 397.64 199.88 397.53 196.23 397.57 C 197.19 397.31 199.10 396.77 200.05 396.51 C 198.78 396.58 197.51 396.66 196.24 396.74 C 196.16 389.50 196.91 382.29 197.73 375.11 C 198.65 367.15 197.97 359.12 198.78 351.16 C 199.34 345.41 199.39 339.64 199.86 333.89 C 200.71 324.02 199.98 314.09 200.84 304.22 C 201.82 293.26 201.39 282.23 202.44 271.27 Z" fill="#b9352e" opacity="1.00" stroke="#b9352e" stroke-width="0.25"/>
<path d="M 268.92 277.51 C 266.78 277.22 266.78 272.05 268.73 271.47 C 268.80 273.48 268.80 275.50 268.92 277.51 Z" fill="#63433d" opacity="1.00" stroke="#63433d" stroke-width="0.25"/>
<path d="M 216.01 352.03 C 217.19 365.87 218.07 379.73 218.95 393.59 C 219.13 398.38 220.99 402.96 220.13 407.79 C 217.32 405.50 214.43 403.32 211.50 401.19 C 213.82 384.89 214.64 368.42 216.01 352.03 Z" fill="#ffffff" opacity="1.00" stroke="#ffffff" stroke-width="0.25"/>
<path d="M 195.65 400.47 C 200.21 400.71 205.64 399.21 209.33 402.71 C 213.28 405.94 218.29 408.56 220.14 413.64 C 211.50 413.90 202.87 413.75 194.23 413.71 C 194.26 409.27 194.22 404.74 195.65 400.47 Z" fill="#4294c6" opacity="1.00" stroke="#4294c6" stroke-width="0.25"/>
<path d="M 223.50 401.79 C 227.71 402.06 232.39 401.16 236.10 403.66 C 241.44 406.98 247.41 409.34 252.22 413.46 C 242.62 414.10 232.98 414.02 223.36 414.17 C 223.23 410.04 222.45 405.85 223.50 401.79 Z" fill="#4294c6" opacity="1.00" stroke="#4294c6" stroke-width="0.25"/>
</svg>