<svg xmlns="http://www.w3.org/2000/svg" height="512pt" version="1.1" viewBox="0 0 512 512" width="512pt">
<path d="M 0.00 0.00 L 512.00 0.00 L 512.00 512.00 L 0.00 512.00 L 0.00 0.00 Z" fill="transparent" opacity="1.00" stroke="transparent" stroke-width="0.25" data-index="0" style="opacity: 1;"></path>
<path d="M 352.89 28.46 C 358.10 28.80 363.39 28.63 368.55 29.56 C 369.99 30.83 371.45 32.21 372.23 34.01 C 371.45 37.57 370.38 41.06 369.68 44.64 C 387.72 45.23 405.74 46.25 423.79 46.54 C 426.06 49.36 428.18 52.29 430.47 55.10 C 421.68 89.14 414.16 123.50 405.79 157.64 C 402.80 170.77 399.32 183.81 396.53 196.95 C 401.80 246.38 407.33 295.78 412.91 345.18 C 416.90 382.45 421.71 419.65 425.36 456.95 C 421.16 458.15 416.79 458.72 412.43 458.97 C 406.89 406.64 401.60 354.28 396.29 301.93 C 393.75 277.90 391.84 253.80 388.84 229.83 C 380.54 263.49 372.75 297.28 364.44 330.94 C 356.83 328.50 348.83 328.02 340.96 326.98 C 340.67 327.86 340.39 328.74 340.11 329.63 C 342.48 330.23 345.18 330.17 347.18 331.76 C 349.36 334.25 348.73 338.33 346.49 340.57 C 344.30 341.34 341.90 340.42 339.66 340.24 C 336.35 355.07 333.27 369.94 329.90 384.75 C 328.89 388.97 328.33 393.34 326.49 397.31 C 325.22 412.04 324.16 426.85 322.01 441.47 C 319.91 441.30 317.85 440.86 315.78 440.51 C 313.93 448.48 312.00 456.44 310.16 464.41 C 304.46 463.42 298.73 462.53 293.17 460.92 C 297.84 438.11 303.52 415.51 308.52 392.77 C 307.01 392.46 305.51 392.16 304.03 391.84 C 307.49 373.30 312.48 355.07 316.08 336.55 C 300.43 334.60 284.82 332.36 269.19 330.28 C 264.10 347.54 259.28 364.88 254.32 382.18 C 253.50 384.32 251.98 386.14 251.40 388.40 C 247.51 401.00 244.13 413.75 240.12 426.31 C 239.89 425.68 239.44 424.44 239.21 423.81 C 242.94 410.50 246.93 397.25 250.77 383.97 C 250.07 383.91 248.67 383.81 247.97 383.76 C 245.46 392.03 243.08 400.34 240.30 408.53 C 240.04 408.06 239.52 407.14 239.26 406.67 C 241.28 398.84 244.05 391.23 246.12 383.42 C 243.13 382.86 240.13 382.36 237.13 381.87 C 235.92 386.03 234.52 390.12 233.11 394.21 C 232.92 393.60 232.55 392.37 232.37 391.76 C 233.27 388.38 234.30 385.04 235.16 381.65 C 233.82 381.19 232.48 380.74 231.14 380.27 C 236.20 362.63 241.23 344.98 246.62 327.44 C 244.11 326.89 241.59 326.39 239.09 325.79 C 239.60 322.73 239.01 318.50 242.06 316.70 C 245.17 316.68 248.23 317.35 251.31 317.71 C 251.48 316.99 251.83 315.54 252.00 314.82 C 242.82 314.01 233.70 312.64 224.58 311.36 C 226.46 301.57 228.91 291.88 231.58 282.28 L 232.72 283.24 L 232.58 284.23 C 231.26 290.11 229.82 295.97 228.60 301.87 C 227.91 304.50 227.35 307.17 226.83 309.85 C 230.84 310.49 234.86 311.00 238.89 311.49 C 248.24 312.88 257.59 314.17 266.99 315.16 C 277.25 316.94 287.61 318.15 297.97 319.21 C 311.87 321.78 325.98 322.91 339.94 325.09 C 345.30 325.93 350.70 326.57 356.13 326.62 C 364.86 290.18 373.61 253.73 382.24 217.27 C 384.05 209.97 385.81 202.66 387.33 195.30 C 389.30 188.38 391.02 181.38 392.41 174.31 C 393.08 171.30 393.93 168.34 394.59 165.32 C 395.30 162.24 396.07 159.16 396.73 156.06 C 398.19 150.22 399.84 144.41 400.94 138.47 C 401.23 137.04 401.52 135.60 401.80 134.17 C 403.21 128.59 404.78 123.04 405.90 117.39 C 408.57 107.12 410.76 96.73 413.35 86.43 C 416.31 73.72 419.53 61.08 422.38 48.34 C 409.56 47.72 396.72 47.53 383.90 46.86 C 352.96 45.87 322.04 44.07 291.09 43.50 C 282.40 80.63 273.50 117.72 264.81 154.86 C 264.39 154.96 263.55 155.14 263.13 155.23 C 266.56 137.78 271.33 120.62 275.13 103.24 C 280.08 82.67 284.89 62.07 289.80 41.49 C 309.61 42.31 329.43 43.13 349.25 43.73 C 350.44 38.63 351.65 33.54 352.89 28.46 Z" fill="#052946" opacity="1.00" stroke="#052946" stroke-width="0.25" data-index="1" style="opacity: 1;"></path>
<path d="M 354.01 30.45 C 357.88 30.47 361.74 30.67 365.60 30.84 C 364.70 35.41 363.47 39.90 362.29 44.40 C 358.53 44.20 354.76 44.16 351.01 43.82 C 351.94 39.35 353.24 34.96 354.01 30.45 Z" fill="#c8f4fd" opacity="1.00" stroke="#c8f4fd" stroke-width="0.25" data-index="2"></path>
<path d="M 364.21 44.39 C 365.37 39.87 366.28 35.28 367.76 30.84 C 368.63 31.89 369.44 32.99 370.18 34.15 C 369.61 37.63 368.59 41.02 367.88 44.47 C 366.66 44.45 365.43 44.42 364.21 44.39 Z" fill="#cbf8ff" opacity="1.00" stroke="#cbf8ff" stroke-width="0.25" data-index="3"></path>
<path d="M 291.09 43.50 C 322.04 44.07 352.96 45.87 383.90 46.86 C 385.33 47.51 386.85 48.14 387.93 49.33 C 387.78 51.65 386.87 53.86 386.20 56.08 C 384.42 61.23 384.19 66.73 382.88 72.00 C 381.24 79.24 378.24 86.06 376.08 93.15 C 374.39 96.81 372.81 100.52 371.12 104.17 C 368.96 107.93 366.87 111.75 364.32 115.26 C 359.86 119.22 356.62 124.30 352.35 128.44 C 347.08 132.64 341.45 136.42 335.35 139.30 C 330.69 141.59 325.21 139.56 320.48 141.69 C 315.96 143.17 312.68 147.04 311.61 151.63 L 310.75 151.64 C 305.46 151.84 300.18 151.40 294.89 151.35 C 292.15 151.40 288.77 151.54 287.20 154.18 C 282.15 162.55 282.00 172.63 279.29 181.80 C 280.30 181.73 281.31 181.67 282.33 181.61 C 284.62 175.80 286.27 169.79 287.67 163.72 C 288.66 161.00 288.85 156.82 292.12 155.89 C 297.65 154.99 303.28 155.88 308.86 155.79 C 308.09 161.18 308.19 166.63 308.11 172.05 C 308.22 177.74 305.33 182.82 304.08 188.25 C 303.47 190.22 302.96 192.22 302.50 194.23 C 302.08 196.18 301.71 198.13 301.35 200.08 C 299.29 210.17 296.72 220.44 291.37 229.35 C 288.73 233.79 284.79 237.43 279.99 239.39 C 274.92 237.94 272.94 232.59 268.78 229.97 C 262.59 230.26 256.51 232.39 250.22 231.59 C 249.94 230.28 249.66 228.96 249.39 227.65 C 258.44 224.72 266.68 219.83 274.41 214.37 C 279.51 210.33 287.33 211.96 291.69 206.75 C 295.06 202.37 292.82 196.60 291.55 191.87 C 292.99 190.55 294.45 189.24 295.88 187.90 C 295.82 186.40 295.29 184.85 295.71 183.38 C 297.26 181.22 299.19 179.35 300.83 177.25 C 299.52 177.26 298.05 177.03 297.00 178.01 C 293.38 180.64 290.58 184.36 286.56 186.43 C 284.24 186.74 281.89 186.08 279.59 186.56 C 276.33 188.68 274.74 192.51 271.65 194.80 C 266.26 196.96 260.30 196.77 254.59 197.01 C 256.92 184.58 260.66 172.47 263.01 160.03 C 265.49 159.37 267.97 158.68 270.42 157.88 C 273.35 156.95 276.13 155.60 278.65 153.82 C 274.68 153.61 270.71 153.98 266.78 154.54 C 266.29 154.62 265.30 154.78 264.81 154.86 C 273.50 117.72 282.40 80.63 291.09 43.50 Z" fill="#5ee1fe" opacity="1.00" stroke="#5ee1fe" stroke-width="0.25" data-index="4" style="opacity: 1;"></path>
<path d="M 383.90 46.86 C 396.72 47.53 409.56 47.72 422.38 48.34 C 419.53 61.08 416.31 73.72 413.35 86.43 C 412.74 86.43 411.53 86.43 410.93 86.43 C 410.59 79.81 408.64 73.43 406.77 67.12 C 405.28 62.59 402.79 57.97 398.55 55.51 C 395.45 54.65 391.58 56.09 390.06 59.03 C 387.39 63.74 385.52 68.87 384.02 74.06 C 383.31 76.42 382.82 78.83 382.16 81.19 C 380.54 85.38 378.34 89.29 376.08 93.15 C 378.24 86.06 381.24 79.24 382.88 72.00 C 384.19 66.73 384.42 61.23 386.20 56.08 C 386.87 53.86 387.78 51.65 387.93 49.33 C 386.85 48.14 385.33 47.51 383.90 46.86 Z" fill="#65d8e4" opacity="1.00" stroke="#65d8e4" stroke-width="0.25" data-index="5"></path>
<path d="M 423.98 49.82 C 425.55 51.73 427.34 53.59 428.24 55.93 C 406.32 146.90 385.09 238.04 363.17 329.01 C 361.44 328.49 359.72 327.98 357.99 327.50 C 364.06 299.82 371.27 272.39 377.53 244.74 C 393.20 179.81 408.27 114.74 423.98 49.82 Z" fill="#c9f5fd" opacity="1.00" stroke="#c9f5fd" stroke-width="0.25" data-index="6"></path>
<path d="M 390.06 59.03 C 391.58 56.09 395.45 54.65 398.55 55.51 C 402.79 57.97 405.28 62.59 406.77 67.12 C 408.64 73.43 410.59 79.81 410.93 86.43 C 411.53 86.43 412.74 86.43 413.35 86.43 C 410.76 96.73 408.57 107.12 405.90 117.39 C 403.37 102.62 405.79 86.85 399.07 72.97 C 397.73 70.07 395.72 65.49 391.76 66.51 C 388.55 68.24 386.29 71.29 384.02 74.06 C 385.52 68.87 387.39 63.74 390.06 59.03 Z" fill="#6fd1ce" opacity="1.00" stroke="#6fd1ce" stroke-width="0.25" data-index="7"></path>
<path d="M 309.74 63.18 C 310.86 63.56 312.05 63.68 313.17 64.06 C 312.89 69.87 311.99 75.63 311.39 81.42 C 310.28 81.54 309.18 81.67 308.08 81.79 C 307.43 75.54 308.63 69.31 309.74 63.18 Z" fill="#f2ffff" opacity="1.00" stroke="#f2ffff" stroke-width="0.25" data-index="8"></path>
<path d="M 157.05 70.33 C 159.98 66.23 164.79 63.04 170.03 63.93 C 176.41 64.63 180.43 70.19 184.56 74.45 C 188.82 79.08 194.88 81.39 200.94 82.48 C 199.47 88.19 193.60 91.65 187.96 91.80 C 187.53 91.81 186.66 91.83 186.22 91.85 C 180.54 91.89 174.89 91.18 169.21 91.20 C 168.30 94.52 168.32 97.93 169.34 101.22 C 170.38 103.94 166.98 104.53 165.33 105.75 C 164.64 104.81 163.95 103.88 163.27 102.94 C 162.17 103.24 161.08 103.53 159.98 103.82 C 160.72 102.58 161.46 101.33 162.22 100.10 C 164.19 101.13 166.14 102.20 168.17 103.12 C 167.74 100.18 165.38 97.25 162.14 97.75 C 157.85 98.81 157.27 105.04 159.99 107.92 C 161.66 108.85 163.48 109.43 165.23 110.20 C 162.77 110.67 160.28 110.32 157.94 109.49 C 156.48 111.20 155.14 113.06 153.34 114.44 C 150.18 115.62 146.90 113.92 143.85 113.12 C 143.54 114.43 143.23 115.74 142.95 117.06 L 142.76 118.03 C 142.35 117.87 141.54 117.57 141.14 117.42 C 142.02 114.00 142.42 110.45 141.66 106.97 C 140.02 96.89 138.57 85.47 144.44 76.43 C 147.06 72.14 152.03 69.62 157.05 70.33 Z" fill="#063458" opacity="1.00" stroke="#063458" stroke-width="0.25" data-index="9"></path>
<path d="M 328.68 66.75 C 329.74 66.41 330.82 66.12 331.91 65.88 C 331.79 70.15 330.82 74.37 329.17 78.30 C 328.61 79.47 327.95 81.21 326.32 80.69 C 324.34 79.99 325.33 77.77 325.41 76.25 C 326.06 72.97 326.98 69.66 328.68 66.75 Z" fill="#efffff" opacity="1.00" stroke="#efffff" stroke-width="0.25" data-index="10"></path>
<path d="M 384.02 74.06 C 386.29 71.29 388.55 68.24 391.76 66.51 C 395.72 65.49 397.73 70.07 399.07 72.97 C 405.79 86.85 403.37 102.62 405.90 117.39 C 404.78 123.04 403.21 128.59 401.80 134.17 C 400.27 119.63 401.73 104.80 398.61 90.43 C 397.09 84.72 394.71 78.59 389.63 75.15 C 385.83 73.99 383.94 78.70 382.16 81.19 C 382.82 78.83 383.31 76.42 384.02 74.06 Z" fill="#7accbd" opacity="1.00" stroke="#7accbd" stroke-width="0.25" data-index="11"></path>
<path d="M 339.31 81.37 C 341.25 76.98 343.65 72.69 347.11 69.30 C 350.40 72.10 346.86 75.70 345.65 78.60 C 344.14 80.81 343.69 84.22 341.00 85.30 C 338.65 85.61 338.39 82.92 339.31 81.37 Z" fill="#efffff" opacity="1.00" stroke="#efffff" stroke-width="0.25" data-index="12"></path>
<path d="M 382.16 81.19 C 383.94 78.70 385.83 73.99 389.63 75.15 C 394.71 78.59 397.09 84.72 398.61 90.43 C 401.73 104.80 400.27 119.63 401.80 134.17 C 401.52 135.60 401.23 137.04 400.94 138.47 C 399.48 136.22 398.25 133.81 397.63 131.18 C 396.97 124.38 397.08 117.53 396.47 110.72 C 395.95 105.39 396.43 99.79 394.21 94.78 C 392.91 91.78 391.52 88.80 390.64 85.64 C 390.42 84.03 390.14 82.42 389.80 80.83 C 387.12 82.26 385.71 85.07 384.43 87.68 C 382.98 87.88 381.23 87.93 380.32 89.26 C 377.36 92.96 375.94 97.56 373.74 101.69 C 372.86 102.51 371.97 103.32 371.12 104.17 C 372.81 100.52 374.39 96.81 376.08 93.15 C 378.34 89.29 380.54 85.38 382.16 81.19 Z" fill="#86c6ab" opacity="1.00" stroke="#86c6ab" stroke-width="0.25" data-index="13"></path>
<path d="M 384.43 87.68 C 385.71 85.07 387.12 82.26 389.80 80.83 C 390.14 82.42 390.42 84.03 390.64 85.64 C 388.84 88.96 387.00 92.31 386.03 96.00 C 385.21 99.67 384.65 103.39 384.04 107.10 C 383.51 110.32 382.97 113.55 381.98 116.67 C 380.12 121.14 377.83 125.43 375.61 129.74 C 374.04 132.10 372.46 134.47 370.66 136.66 C 369.52 137.83 368.39 138.99 367.26 140.17 C 370.90 144.74 372.44 150.46 371.85 156.26 C 371.14 161.04 370.57 165.85 369.46 170.56 C 368.34 175.33 365.83 179.59 363.98 184.09 C 363.63 184.38 362.93 184.97 362.58 185.26 C 361.72 184.02 360.86 182.78 360.00 181.54 C 363.28 176.52 365.43 170.82 366.40 164.91 C 367.41 160.04 367.97 155.03 367.55 150.06 C 367.39 147.62 365.52 145.84 364.18 143.97 C 362.90 144.95 361.62 145.91 360.39 146.93 C 357.60 149.50 354.52 151.74 351.11 153.42 C 350.63 152.78 349.67 151.50 349.18 150.85 C 355.46 145.77 361.23 140.11 366.82 134.28 C 369.91 130.96 372.34 127.08 374.47 123.09 C 376.63 118.67 378.51 114.06 379.44 109.21 C 380.89 101.99 381.85 94.62 384.43 87.68 Z" fill="#fffdec" opacity="1.00" stroke="#fffdec" stroke-width="0.25" data-index="14"></path>
<path d="M 386.03 96.00 C 387.00 92.31 388.84 88.96 390.64 85.64 C 391.52 88.80 392.91 91.78 394.21 94.78 C 396.43 99.79 395.95 105.39 396.47 110.72 C 397.08 117.53 396.97 124.38 397.63 131.18 C 396.42 131.83 395.20 132.47 394.00 133.12 C 394.33 120.24 393.86 106.93 389.36 94.72 C 388.24 95.15 387.13 95.57 386.03 96.00 Z" fill="#90c298" opacity="1.00" stroke="#90c298" stroke-width="0.25" data-index="15"></path>
<path d="M 380.32 89.26 C 381.23 87.93 382.98 87.88 384.43 87.68 C 381.85 94.62 380.89 101.99 379.44 109.21 C 379.01 106.16 378.36 103.14 377.70 100.13 C 376.38 100.64 375.05 101.14 373.74 101.69 C 375.94 97.56 377.36 92.96 380.32 89.26 Z" fill="#a6bd6f" opacity="1.00" stroke="#a6bd6f" stroke-width="0.25" data-index="16"></path>
<path d="M 169.21 91.20 C 174.89 91.18 180.54 91.89 186.22 91.85 C 186.03 96.60 186.05 101.42 185.12 106.10 C 184.24 106.62 183.34 107.10 182.42 107.53 C 183.41 109.23 183.41 111.23 183.12 113.13 C 180.13 111.98 177.29 110.48 174.29 109.37 C 176.24 111.87 178.97 113.51 181.63 115.15 C 179.56 118.20 177.76 122.15 173.89 123.20 C 169.83 123.96 167.36 119.96 164.61 117.73 C 165.02 119.60 165.44 121.46 165.81 123.34 C 158.52 120.22 151.00 117.24 142.95 117.06 C 143.23 115.74 143.54 114.43 143.85 113.12 C 146.90 113.92 150.18 115.62 153.34 114.44 C 155.14 113.06 156.48 111.20 157.94 109.49 C 160.28 110.32 162.77 110.67 165.23 110.20 C 163.48 109.43 161.66 108.85 159.99 107.92 C 157.27 105.04 157.85 98.81 162.14 97.75 C 165.38 97.25 167.74 100.18 168.17 103.12 C 166.14 102.20 164.19 101.13 162.22 100.10 C 161.46 101.33 160.72 102.58 159.98 103.82 C 161.08 103.53 162.17 103.24 163.27 102.94 C 163.95 103.88 164.64 104.81 165.33 105.75 C 166.98 104.53 170.38 103.94 169.34 101.22 C 168.32 97.93 168.30 94.52 169.21 91.20 Z" fill="#fbc4ae" opacity="1.00" stroke="#fbc4ae" stroke-width="0.25" data-index="17"></path>
<path d="M 186.22 91.85 C 186.66 91.83 187.53 91.81 187.96 91.80 C 187.42 98.02 188.08 104.57 185.48 110.43 C 183.53 115.35 181.26 120.57 176.84 123.77 C 173.77 125.99 169.88 124.55 166.77 123.22 C 166.50 125.80 166.31 128.39 166.14 130.98 C 173.46 133.45 180.79 136.32 186.94 141.11 C 195.89 147.90 201.88 157.61 207.85 166.94 C 210.79 165.66 213.99 167.58 216.84 166.08 C 221.59 164.46 223.71 159.01 228.58 157.59 C 234.37 155.07 240.78 155.38 246.94 155.63 C 247.82 156.46 248.61 157.38 249.31 158.39 C 253.91 157.31 258.51 156.25 263.13 155.23 C 263.55 155.14 264.39 154.96 264.81 154.86 C 265.30 154.78 266.29 154.62 266.78 154.54 C 267.99 155.65 269.21 156.76 270.42 157.88 C 267.97 158.68 265.49 159.37 263.01 160.03 C 262.23 160.23 261.45 160.43 260.67 160.62 C 258.29 161.18 255.91 161.72 253.53 162.29 C 253.07 167.57 248.36 170.55 244.72 173.72 C 241.67 175.97 238.94 178.78 235.44 180.34 C 231.04 181.14 226.74 178.36 222.36 179.18 C 220.71 180.57 219.36 182.27 217.82 183.78 C 218.75 185.44 219.69 187.11 220.54 188.82 C 220.46 189.22 220.29 190.01 220.21 190.40 C 215.72 184.50 212.52 177.76 208.58 171.49 C 202.36 161.63 196.51 151.15 187.38 143.62 C 180.65 137.98 172.34 134.81 164.10 132.09 C 164.14 131.67 164.22 130.83 164.26 130.41 C 164.47 128.77 164.67 127.12 164.88 125.47 C 158.65 121.46 151.43 119.68 144.19 118.57 C 143.83 118.44 143.12 118.16 142.76 118.03 L 142.95 117.06 C 151.00 117.24 158.52 120.22 165.81 123.34 C 165.44 121.46 165.02 119.60 164.61 117.73 C 167.36 119.96 169.83 123.96 173.89 123.20 C 177.76 122.15 179.56 118.20 181.63 115.15 C 178.97 113.51 176.24 111.87 174.29 109.37 C 177.29 110.48 180.13 111.98 183.12 113.13 C 183.41 111.23 183.41 109.23 182.42 107.53 C 183.34 107.10 184.24 106.62 185.12 106.10 C 186.05 101.42 186.03 96.60 186.22 91.85 Z" fill="#182c3a" opacity="1.00" stroke="#182c3a" stroke-width="0.25" data-index="18" style="opacity: 1;"></path>
<path d="M 304.52 97.63 C 311.74 94.47 319.50 91.66 327.52 92.29 C 327.61 92.98 327.79 94.36 327.88 95.05 C 324.50 96.06 321.04 96.74 317.62 97.57 C 312.60 98.72 308.06 101.51 302.86 101.97 C 303.30 100.51 302.70 98.28 304.52 97.63 Z" fill="#f1ffff" opacity="1.00" stroke="#f1ffff" stroke-width="0.25" data-index="19"></path>
<path d="M 174.23 92.99 C 177.87 93.35 182.89 93.74 184.13 97.92 C 180.77 97.68 177.65 96.41 174.47 95.44 C 174.41 94.83 174.29 93.61 174.23 92.99 Z" fill="#162e44" opacity="1.00" stroke="#162e44" stroke-width="0.25" data-index="20"></path>
<path d="M 386.03 96.00 C 387.13 95.57 388.24 95.15 389.36 94.72 C 393.86 106.93 394.33 120.24 394.00 133.12 C 393.91 134.50 393.83 135.87 393.77 137.26 C 392.89 135.63 391.91 134.06 390.93 132.48 C 391.02 123.10 390.73 113.18 386.58 104.57 C 385.73 105.41 384.88 106.26 384.04 107.10 C 384.65 103.39 385.21 99.67 386.03 96.00 Z" fill="#9cbe86" opacity="1.00" stroke="#9cbe86" stroke-width="0.25" data-index="21"></path>
<path d="M 178.25 102.77 C 176.43 101.06 179.33 99.85 180.87 100.11 C 181.06 101.52 179.77 104.70 178.25 102.77 Z" fill="#182c3a" opacity="1.00" stroke="#182c3a" stroke-width="0.25" data-index="22"></path>
<path d="M 325.91 100.97 C 328.75 99.87 331.90 100.31 334.89 100.22 C 334.84 101.37 334.80 102.53 334.76 103.70 C 331.69 104.18 328.57 104.94 325.46 104.49 C 323.38 104.02 324.34 101.45 325.91 100.97 Z" fill="#edffff" opacity="1.00" stroke="#edffff" stroke-width="0.25" data-index="23"></path>
<path d="M 373.74 101.69 C 375.05 101.14 376.38 100.64 377.70 100.13 C 378.36 103.14 379.01 106.16 379.44 109.21 C 378.51 114.06 376.63 118.67 374.47 123.09 C 373.73 119.53 372.05 116.29 369.73 113.51 C 367.93 114.09 366.11 114.65 364.32 115.26 C 366.87 111.75 368.96 107.93 371.12 104.17 C 371.97 103.32 372.86 102.51 373.74 101.69 Z" fill="#bbbc51" opacity="1.00" stroke="#bbbc51" stroke-width="0.25" data-index="24"></path>
<path d="M 384.04 107.10 C 384.88 106.26 385.73 105.41 386.58 104.57 C 390.73 113.18 391.02 123.10 390.93 132.48 C 390.32 133.85 389.64 135.18 388.98 136.52 C 388.48 136.08 387.48 135.20 386.98 134.75 C 387.54 129.09 386.82 123.39 385.30 117.93 C 384.19 117.51 383.08 117.09 381.98 116.67 C 382.97 113.55 383.51 110.32 384.04 107.10 Z" fill="#a8bc70" opacity="1.00" stroke="#a8bc70" stroke-width="0.25" data-index="25"></path>
<path d="M 364.32 115.26 C 366.11 114.65 367.93 114.09 369.73 113.51 C 372.05 116.29 373.73 119.53 374.47 123.09 C 372.34 127.08 369.91 130.96 366.82 134.28 C 365.82 131.77 365.03 128.66 362.16 127.69 C 359.03 125.89 355.41 127.24 352.35 128.44 C 356.62 124.30 359.86 119.22 364.32 115.26 Z" fill="#d5bb37" opacity="1.00" stroke="#d5bb37" stroke-width="0.25" data-index="26"></path>
<path d="M 140.51 117.17 L 141.14 117.42 C 141.54 117.57 142.35 117.87 142.76 118.03 C 143.12 118.16 143.83 118.44 144.19 118.57 C 140.81 118.22 139.10 121.26 137.47 123.64 C 146.53 125.35 155.56 127.33 164.26 130.41 C 164.22 130.83 164.14 131.67 164.10 132.09 C 155.15 129.05 145.94 126.87 136.64 125.21 C 127.59 123.48 117.75 126.70 111.53 133.50 C 102.78 143.32 98.95 156.32 95.60 168.76 C 88.88 197.30 87.43 226.77 87.60 256.00 C 87.64 260.19 87.53 264.39 88.03 268.56 L 88.16 269.53 C 87.70 269.64 86.76 269.87 86.30 269.98 C 85.21 246.07 86.11 222.07 88.66 198.27 C 90.31 183.82 92.98 169.43 97.65 155.62 C 101.37 144.93 106.57 133.75 116.39 127.39 C 122.10 123.58 129.08 122.82 135.78 123.06 C 137.27 121.03 138.85 119.07 140.51 117.17 Z" fill="#052946" opacity="1.00" stroke="#052946" stroke-width="0.25" data-index="27"></path>
<path d="M 381.98 116.67 C 383.08 117.09 384.19 117.51 385.30 117.93 C 386.82 123.39 387.54 129.09 386.98 134.75 C 386.47 138.29 385.53 141.75 384.52 145.17 L 384.15 144.32 C 383.60 138.27 382.93 132.12 380.25 126.57 C 378.69 127.61 377.12 128.63 375.61 129.74 C 377.83 125.43 380.12 121.14 381.98 116.67 Z" fill="#b7b55b" opacity="1.00" stroke="#b7b55b" stroke-width="0.25" data-index="28"></path>
<path d="M 137.47 123.64 C 139.10 121.26 140.81 118.22 144.19 118.57 C 151.43 119.68 158.65 121.46 164.88 125.47 C 164.67 127.12 164.47 128.77 164.26 130.41 C 155.56 127.33 146.53 125.35 137.47 123.64 Z" fill="#c8f4fc" opacity="1.00" stroke="#c8f4fc" stroke-width="0.25" data-index="29"></path>
<path d="M 111.53 133.50 C 117.75 126.70 127.59 123.48 136.64 125.21 C 145.94 126.87 155.15 129.05 164.10 132.09 C 172.34 134.81 180.65 137.98 187.38 143.62 C 196.51 151.15 202.36 161.63 208.58 171.49 C 212.52 177.76 215.72 184.50 220.21 190.40 C 223.22 194.23 225.75 198.54 229.65 201.55 C 228.84 198.60 227.03 196.12 225.20 193.73 C 239.65 198.75 255.37 200.06 270.42 197.31 C 272.30 202.06 273.83 206.95 275.02 211.92 C 262.11 221.14 247.22 229.03 231.00 229.31 C 213.72 229.57 197.26 221.76 184.35 210.67 C 178.00 205.36 172.07 199.49 167.07 192.88 C 164.19 189.12 162.32 184.71 159.46 180.95 C 159.50 186.07 163.04 190.18 165.82 194.17 C 168.99 198.64 173.17 202.23 176.67 206.40 C 177.24 209.41 175.95 212.46 175.52 215.44 C 171.19 234.89 168.03 254.55 165.13 274.25 C 160.13 274.16 155.14 273.83 150.14 273.74 C 129.35 273.30 108.70 270.63 88.03 268.56 C 87.53 264.39 87.64 260.19 87.60 256.00 C 87.43 226.77 88.88 197.30 95.60 168.76 C 98.95 156.32 102.78 143.32 111.53 133.50 Z" fill="#cdf5ff" opacity="1.00" stroke="#cdf5ff" stroke-width="0.25" data-index="30" style="opacity: 1;"></path>
<path d="M 352.35 128.44 C 355.41 127.24 359.03 125.89 362.16 127.69 C 365.03 128.66 365.82 131.77 366.82 134.28 C 361.23 140.11 355.46 145.77 349.18 150.85 C 349.67 151.50 350.63 152.78 351.11 153.42 C 354.52 151.74 357.60 149.50 360.39 146.93 C 361.68 147.48 363.71 147.14 364.42 148.58 C 362.20 152.54 360.71 157.18 356.96 160.01 C 354.34 162.22 351.55 164.52 348.08 165.14 C 342.40 166.48 336.57 165.72 330.84 165.30 C 328.06 164.89 325.69 166.56 323.45 167.91 C 323.01 167.68 322.12 167.23 321.68 167.00 C 321.14 164.56 320.60 162.11 320.24 159.63 C 320.34 156.98 320.35 154.33 320.31 151.68 C 317.41 151.62 314.51 151.60 311.61 151.63 C 312.68 147.04 315.96 143.17 320.48 141.69 C 325.21 139.56 330.69 141.59 335.35 139.30 C 341.45 136.42 347.08 132.64 352.35 128.44 Z" fill="#fdbd12" opacity="1.00" stroke="#fdbd12" stroke-width="0.25" data-index="31"></path>
<path d="M 375.61 129.74 C 377.12 128.63 378.69 127.61 380.25 126.57 C 382.93 132.12 383.60 138.27 384.15 144.32 C 383.42 147.37 382.58 150.39 382.16 153.50 C 381.60 153.12 380.47 152.36 379.91 151.98 C 379.72 150.49 379.50 149.01 379.27 147.54 C 378.52 142.63 377.62 137.75 376.28 132.97 C 374.39 134.18 372.48 135.36 370.66 136.66 C 372.46 134.47 374.04 132.10 375.61 129.74 Z" fill="#c8a742" opacity="1.00" stroke="#c8a742" stroke-width="0.25" data-index="32"></path>
<path d="M 394.00 133.12 C 395.20 132.47 396.42 131.83 397.63 131.18 C 398.25 133.81 399.48 136.22 400.94 138.47 C 399.84 144.41 398.19 150.22 396.73 156.06 C 396.05 149.75 394.42 143.58 393.77 137.26 C 393.83 135.87 393.91 134.50 394.00 133.12 Z" fill="#8eae9f" opacity="1.00" stroke="#8eae9f" stroke-width="0.25" data-index="33"></path>
<path d="M 370.66 136.66 C 372.48 135.36 374.39 134.18 376.28 132.97 C 377.62 137.75 378.52 142.63 379.27 147.54 C 378.00 147.50 376.75 147.46 375.50 147.43 C 374.29 150.38 372.99 153.29 371.85 156.26 C 372.44 150.46 370.90 144.74 367.26 140.17 C 368.39 138.99 369.52 137.83 370.66 136.66 Z" fill="#e5ad31" opacity="1.00" stroke="#e5ad31" stroke-width="0.25" data-index="34"></path>
<path d="M 388.98 136.52 C 389.64 135.18 390.32 133.85 390.93 132.48 C 391.91 134.06 392.89 135.63 393.77 137.26 C 394.42 143.58 396.05 149.75 396.73 156.06 C 396.07 159.16 395.30 162.24 394.59 165.32 C 394.86 155.31 388.77 146.54 388.98 136.52 Z" fill="#9fa284" opacity="1.00" stroke="#9fa284" stroke-width="0.25" data-index="35"></path>
<path d="M 386.98 134.75 C 387.48 135.20 388.48 136.08 388.98 136.52 C 388.77 146.54 394.86 155.31 394.59 165.32 C 393.93 168.34 393.08 171.30 392.41 174.31 C 392.47 170.00 392.16 165.61 390.59 161.55 C 388.63 156.07 387.20 150.37 384.52 145.17 C 385.53 141.75 386.47 138.29 386.98 134.75 Z" fill="#b2956a" opacity="1.00" stroke="#b2956a" stroke-width="0.25" data-index="36"></path>
<path d="M 360.39 146.93 C 361.62 145.91 362.90 144.95 364.18 143.97 C 365.52 145.84 367.39 147.62 367.55 150.06 C 367.97 155.03 367.41 160.04 366.40 164.91 C 366.21 163.64 366.01 162.37 365.80 161.11 C 364.47 166.34 363.13 171.69 360.16 176.27 C 358.57 178.75 355.74 179.94 353.23 181.28 C 350.92 182.32 348.44 183.80 345.81 183.09 C 340.34 181.70 335.59 178.34 331.29 174.79 C 329.26 171.91 326.65 169.45 323.45 167.91 C 325.69 166.56 328.06 164.89 330.84 165.30 C 336.57 165.72 342.40 166.48 348.08 165.14 C 351.55 164.52 354.34 162.22 356.96 160.01 C 360.71 157.18 362.20 152.54 364.42 148.58 C 363.71 147.14 361.68 147.48 360.39 146.93 Z" fill="#fda61a" opacity="1.00" stroke="#fda61a" stroke-width="0.25" data-index="37"></path>
<path d="M 382.16 153.50 C 382.58 150.39 383.42 147.37 384.15 144.32 L 384.52 145.17 C 387.20 150.37 388.63 156.07 390.59 161.55 C 392.16 165.61 392.47 170.00 392.41 174.31 C 391.02 181.38 389.30 188.38 387.33 195.30 C 387.34 191.89 387.43 188.45 388.31 185.14 C 389.32 180.92 390.87 176.27 388.76 172.12 C 385.87 166.19 383.10 160.10 382.16 153.50 Z" fill="#c98850" opacity="1.00" stroke="#c98850" stroke-width="0.25" data-index="38"></path>
<path d="M 375.50 147.43 C 376.75 147.46 378.00 147.50 379.27 147.54 C 379.50 149.01 379.72 150.49 379.91 151.98 C 380.10 156.63 379.42 161.31 377.84 165.68 C 374.96 169.17 371.48 172.28 369.59 176.48 C 368.27 179.39 366.82 182.37 363.98 184.09 C 365.83 179.59 368.34 175.33 369.46 170.56 C 370.57 165.85 371.14 161.04 371.85 156.26 C 372.99 153.29 374.29 150.38 375.50 147.43 Z" fill="#ef982c" opacity="1.00" stroke="#ef982c" stroke-width="0.25" data-index="39"></path>
<path d="M 287.20 154.18 C 288.77 151.54 292.15 151.40 294.89 151.35 C 300.18 151.40 305.46 151.84 310.75 151.64 C 310.43 153.02 310.10 154.40 309.76 155.78 L 308.86 155.79 C 303.28 155.88 297.65 154.99 292.12 155.89 C 288.85 156.82 288.66 161.00 287.67 163.72 C 286.27 169.79 284.62 175.80 282.33 181.61 C 281.31 181.67 280.30 181.73 279.29 181.80 C 282.00 172.63 282.15 162.55 287.20 154.18 Z" fill="#eeffff" opacity="1.00" stroke="#eeffff" stroke-width="0.25" data-index="40"></path>
<path d="M 280.25 151.67 C 282.00 152.02 283.74 152.44 285.40 153.10 C 283.93 154.18 282.21 154.77 280.44 155.16 C 280.40 154.29 280.30 152.54 280.25 151.67 Z" fill="#a6554e" opacity="1.00" stroke="#a6554e" stroke-width="0.25" data-index="41"></path>
<path d="M 310.75 151.64 L 311.61 151.63 C 314.51 151.60 317.41 151.62 320.31 151.68 C 320.35 154.33 320.34 156.98 320.24 159.63 C 319.22 164.41 318.27 169.22 318.04 174.12 C 317.98 175.73 317.97 177.34 318.06 178.95 C 318.30 183.94 318.90 189.57 322.84 193.13 C 326.28 196.62 331.21 197.86 335.95 198.17 C 338.77 197.89 341.57 197.42 344.27 196.54 C 351.22 193.69 355.94 187.59 360.00 181.54 C 360.86 182.78 361.72 184.02 362.58 185.26 C 357.49 191.88 352.37 198.66 345.78 203.87 C 344.51 204.69 343.19 205.44 341.86 206.14 C 340.55 206.78 339.22 207.35 337.87 207.88 C 336.75 208.28 335.62 208.66 334.48 209.02 C 331.73 209.84 328.91 210.44 326.06 210.75 C 321.45 210.53 314.84 210.22 313.67 204.60 C 318.03 205.16 322.24 206.99 326.70 206.61 C 331.50 206.14 336.11 204.53 340.40 202.38 C 336.60 202.02 332.72 202.10 329.04 201.04 C 325.66 200.08 322.69 198.14 319.79 196.24 C 317.85 193.73 316.23 190.97 315.11 188.00 C 314.27 184.00 313.95 179.90 313.85 175.81 C 314.26 172.52 314.54 169.21 315.00 165.93 C 315.52 162.60 315.87 159.26 316.28 155.92 C 314.40 155.85 312.53 155.81 310.65 155.78 L 309.76 155.78 C 310.10 154.40 310.43 153.02 310.75 151.64 Z" fill="#fffbf5" opacity="1.00" stroke="#fffbf5" stroke-width="0.25" data-index="42"></path>
<path d="M 379.91 151.98 C 380.47 152.36 381.60 153.12 382.16 153.50 C 383.10 160.10 385.87 166.19 388.76 172.12 C 390.87 176.27 389.32 180.92 388.31 185.14 C 386.52 184.23 384.72 183.33 382.94 182.41 C 382.52 176.51 380.62 170.86 377.84 165.68 C 379.42 161.31 380.10 156.63 379.91 151.98 Z" fill="#df7e39" opacity="1.00" stroke="#df7e39" stroke-width="0.25" data-index="43"></path>
<path d="M 266.78 154.54 C 270.71 153.98 274.68 153.61 278.65 153.82 C 276.13 155.60 273.35 156.95 270.42 157.88 C 269.21 156.76 267.99 155.65 266.78 154.54 Z" fill="#063357" opacity="1.00" stroke="#063357" stroke-width="0.25" data-index="44"></path>
<path d="M 244.91 160.87 C 252.74 159.62 260.30 156.88 268.22 156.23 C 266.21 158.50 262.93 158.37 260.22 159.17 C 252.65 160.58 245.32 163.45 237.57 163.70 C 239.22 161.33 242.41 161.59 244.91 160.87 Z" fill="#b7b55b" opacity="1.00" stroke="#b7b55b" stroke-width="0.25" data-index="45"></path>
<path d="M 308.86 155.79 L 309.76 155.78 L 310.65 155.78 L 310.57 156.73 C 309.38 163.68 309.90 170.73 309.37 177.72 C 308.26 180.42 306.88 183.00 305.55 185.61 C 305.05 186.48 304.56 187.36 304.08 188.25 C 305.33 182.82 308.22 177.74 308.11 172.05 C 308.19 166.63 308.09 161.18 308.86 155.79 Z" fill="#98c8a9" opacity="1.00" stroke="#98c8a9" stroke-width="0.25" data-index="46"></path>
<path d="M 310.65 155.78 C 312.53 155.81 314.40 155.85 316.28 155.92 C 315.87 159.26 315.52 162.60 315.00 165.93 C 313.81 167.42 312.53 168.85 311.26 170.27 C 310.72 165.78 310.36 161.26 310.57 156.73 L 310.65 155.78 Z" fill="#f7bb1f" opacity="1.00" stroke="#f7bb1f" stroke-width="0.25" data-index="47"></path>
<path d="M 234.80 157.47 C 238.90 156.77 243.10 156.86 247.24 157.24 C 246.80 159.00 245.01 159.25 243.49 158.85 C 240.60 158.36 237.72 157.78 234.80 157.47 Z" fill="#a8a7b6" opacity="1.00" stroke="#a8a7b6" stroke-width="0.25" data-index="48"></path>
<path d="M 309.37 177.72 C 309.90 170.73 309.38 163.68 310.57 156.73 C 310.36 161.26 310.72 165.78 311.26 170.27 C 312.53 168.85 313.81 167.42 315.00 165.93 C 314.54 169.21 314.26 172.52 313.85 175.81 C 313.31 176.94 312.73 178.04 312.16 179.15 C 311.46 178.79 310.07 178.08 309.37 177.72 Z" fill="#d5a649" opacity="1.00" stroke="#d5a649" stroke-width="0.25" data-index="49"></path>
<path d="M 227.68 159.73 C 229.95 158.69 232.37 157.99 234.80 157.47 C 237.72 157.78 240.60 158.36 243.49 158.85 C 238.81 160.58 233.62 161.50 229.65 164.70 C 234.87 165.26 240.19 165.00 245.29 166.44 C 242.61 168.42 239.17 167.30 236.17 168.14 C 234.33 168.83 233.35 170.57 232.86 172.37 C 234.28 171.62 235.60 170.71 236.88 169.75 C 239.71 170.13 242.56 170.43 245.40 170.75 C 242.01 173.58 238.82 176.87 234.76 178.75 C 229.59 178.74 224.52 176.45 219.32 177.87 C 217.52 174.93 215.83 171.94 214.30 168.87 C 216.10 168.13 217.94 167.47 219.68 166.57 C 222.80 164.85 224.57 161.44 227.68 159.73 Z" fill="#fbc3ae" opacity="1.00" stroke="#fbc3ae" stroke-width="0.25" data-index="50" style="opacity: 1;"></path>
<path d="M 260.67 160.62 C 261.45 160.43 262.23 160.23 263.01 160.03 C 260.66 172.47 256.92 184.58 254.59 197.01 C 260.30 196.77 266.26 196.96 271.65 194.80 C 274.74 192.51 276.33 188.68 279.59 186.56 C 281.89 186.08 284.24 186.74 286.56 186.43 C 290.58 184.36 293.38 180.64 297.00 178.01 C 298.05 177.03 299.52 177.26 300.83 177.25 C 299.19 179.35 297.26 181.22 295.71 183.38 C 295.29 184.85 295.82 186.40 295.88 187.90 C 294.45 189.24 292.99 190.55 291.55 191.87 C 292.82 196.60 295.06 202.37 291.69 206.75 C 287.33 211.96 279.51 210.33 274.41 214.37 C 266.68 219.83 258.44 224.72 249.39 227.65 C 248.33 228.14 247.10 228.45 246.31 229.37 C 244.96 232.75 244.39 236.38 243.55 239.91 C 242.62 244.06 241.44 248.14 240.39 252.26 C 239.42 256.19 238.59 260.16 237.63 264.09 C 236.08 270.50 234.50 276.90 232.72 283.24 L 231.58 282.28 C 235.16 264.54 240.24 247.15 244.10 229.47 C 229.64 232.79 214.22 230.66 201.03 223.98 C 192.85 219.95 185.69 214.20 178.79 208.30 C 174.20 229.75 170.19 251.32 167.14 273.04 C 166.00 277.64 169.85 281.34 171.62 285.25 C 190.03 319.52 207.66 354.36 221.12 390.92 C 223.15 396.34 224.99 401.83 227.05 407.24 C 229.11 402.19 230.62 396.93 232.37 391.76 C 232.55 392.37 232.92 393.60 233.11 394.21 C 231.85 399.86 229.44 405.24 228.51 410.95 C 229.59 415.86 231.52 420.56 233.34 425.24 C 235.33 419.05 237.01 412.77 239.26 406.67 C 239.52 407.14 240.04 408.06 240.30 408.53 C 238.63 414.62 236.60 420.61 234.84 426.69 C 234.05 429.19 235.18 431.74 235.65 434.20 C 237.03 430.80 238.13 427.31 239.21 423.81 C 239.44 424.44 239.89 425.68 240.12 426.31 C 239.40 430.99 236.28 435.45 237.78 440.30 C 234.41 441.16 231.08 442.19 227.68 442.91 C 219.68 412.45 208.53 382.78 194.19 354.73 C 181.98 331.21 169.70 307.69 155.98 285.00 C 154.16 281.94 152.15 279.00 149.94 276.21 C 149.67 276.81 149.12 278.01 148.85 278.61 C 148.60 278.36 148.11 277.86 147.86 277.62 C 148.60 276.89 149.34 276.18 150.08 275.46 C 150.10 275.03 150.13 274.17 150.14 273.74 C 155.14 273.83 160.13 274.16 165.13 274.25 C 168.03 254.55 171.19 234.89 175.52 215.44 C 175.95 212.46 177.24 209.41 176.67 206.40 C 173.17 202.23 168.99 198.64 165.82 194.17 C 163.04 190.18 159.50 186.07 159.46 180.95 C 162.32 184.71 164.19 189.12 167.07 192.88 C 172.07 199.49 178.00 205.36 184.35 210.67 C 197.26 221.76 213.72 229.57 231.00 229.31 C 247.22 229.03 262.11 221.14 275.02 211.92 C 273.83 206.95 272.30 202.06 270.42 197.31 C 255.37 200.06 239.65 198.75 225.20 193.73 C 227.03 196.12 228.84 198.60 229.65 201.55 C 225.75 198.54 223.22 194.23 220.21 190.40 C 220.29 190.01 220.46 189.22 220.54 188.82 C 223.46 191.59 227.41 192.68 231.16 193.80 C 238.11 195.76 245.31 196.81 252.53 196.93 C 255.09 186.57 257.38 176.15 259.94 165.79 C 260.33 164.09 260.56 162.36 260.67 160.62 Z" fill="#063357" opacity="1.00" stroke="#063357" stroke-width="0.25" data-index="51" style="opacity: 1;"></path>
<path d="M 320.24 159.63 C 320.60 162.11 321.14 164.56 321.68 167.00 C 322.12 167.23 323.01 167.68 323.45 167.91 C 326.65 169.45 329.26 171.91 331.29 174.79 C 331.66 177.52 331.84 180.27 332.38 182.98 C 327.92 179.46 321.66 178.75 318.04 174.12 C 318.27 169.22 319.22 164.41 320.24 159.63 Z" fill="#e4a831" opacity="1.00" stroke="#e4a831" stroke-width="0.25" data-index="52"></path>

<path d="M 360.16 176.27 C 363.13 171.69 364.47 166.34 365.80 161.11 C 366.01 162.37 366.21 163.64 366.40 164.91 C 365.43 170.82 363.28 176.52 360.00 181.54 C 355.94 187.59 351.22 193.69 344.27 196.54 C 342.63 196.16 340.99 195.80 339.36 195.43 C 337.02 191.29 334.64 187.16 332.38 182.98 C 331.84 180.27 331.66 177.52 331.29 174.79 C 335.59 178.34 340.34 181.70 345.81 183.09 C 348.44 183.80 350.92 182.32 353.23 181.28 C 355.74 179.94 358.57 178.75 360.16 176.27 Z" fill="#f88e25" opacity="1.00" stroke="#f88e25" stroke-width="0.25" data-index="54"></path>
<path d="M 247.45 163.68 C 248.78 163.56 250.11 163.44 251.45 163.32 C 250.83 166.71 247.73 168.55 245.40 170.75 C 242.56 170.43 239.71 170.13 236.88 169.75 C 240.60 169.52 244.56 170.20 247.66 167.65 C 247.60 166.32 247.52 165.00 247.45 163.68 Z" fill="#fff8f2" opacity="1.00" stroke="#fff8f2" stroke-width="0.25" data-index="55" style="opacity: 1; visibility: visible; fill: rgb(251, 195, 174);"></path>
<path d="M 369.59 176.48 C 371.48 172.28 374.96 169.17 377.84 165.68 C 380.62 170.86 382.52 176.51 382.94 182.41 C 379.68 184.90 377.47 188.38 376.19 192.24 C 374.78 196.76 370.62 199.32 367.05 202.01 C 363.93 204.25 361.07 206.85 357.75 208.79 C 356.69 209.27 355.47 210.15 354.28 209.62 C 351.16 208.16 348.60 205.79 345.78 203.87 C 352.37 198.66 357.49 191.88 362.58 185.26 C 362.93 184.97 363.63 184.38 363.98 184.09 C 366.82 182.37 368.27 179.39 369.59 176.48 Z" fill="#fa7d26" opacity="1.00" stroke="#fa7d26" stroke-width="0.25" data-index="56"></path>
<path d="M 209.36 167.54 C 212.03 168.03 213.07 170.64 214.35 172.68 C 215.96 175.49 217.62 178.29 219.05 181.21 C 217.62 181.28 215.93 181.23 215.42 179.61 C 213.36 175.62 210.11 172.07 209.36 167.54 Z" fill="#caf8ff" opacity="1.00" stroke="#caf8ff" stroke-width="0.25" data-index="57"></path>
<path d="M 318.04 174.12 C 321.66 178.75 327.92 179.46 332.38 182.98 C 334.64 187.16 337.02 191.29 339.36 195.43 C 340.99 195.80 342.63 196.16 344.27 196.54 C 341.57 197.42 338.77 197.89 335.95 198.17 C 333.20 195.52 330.88 192.47 328.34 189.63 C 325.05 185.92 319.48 184.15 318.06 178.95 C 317.97 177.34 317.98 175.73 318.04 174.12 Z" fill="#d38a4b" opacity="1.00" stroke="#d38a4b" stroke-width="0.25" data-index="58"></path>
<path d="M 312.16 179.15 C 312.73 178.04 313.31 176.94 313.85 175.81 C 313.95 179.90 314.27 184.00 315.11 188.00 C 312.15 188.64 309.18 189.25 306.21 189.83 C 305.97 188.42 305.75 187.02 305.55 185.61 C 306.88 183.00 308.26 180.42 309.37 177.72 C 310.07 178.08 311.46 178.79 312.16 179.15 Z" fill="#bb906c" opacity="1.00" stroke="#bb906c" stroke-width="0.25" data-index="59"></path>
<path d="M 318.06 178.95 C 319.48 184.15 325.05 185.92 328.34 189.63 C 330.88 192.47 333.20 195.52 335.95 198.17 C 331.21 197.86 326.28 196.62 322.84 193.13 C 318.90 189.57 318.30 183.94 318.06 178.95 Z" fill="#be816c" opacity="1.00" stroke="#be816c" stroke-width="0.25" data-index="60"></path>
<path d="M 376.19 192.24 C 377.47 188.38 379.68 184.90 382.94 182.41 C 384.72 183.33 386.52 184.23 388.31 185.14 C 387.43 188.45 387.34 191.89 387.33 195.30 C 385.81 202.66 384.05 209.97 382.24 217.27 C 381.37 216.05 380.50 214.84 379.64 213.63 C 375.71 216.48 373.12 220.64 372.06 225.36 C 370.88 225.27 369.71 225.18 368.54 225.10 C 364.33 228.85 359.03 232.00 353.23 231.89 C 349.68 230.17 348.10 226.01 346.16 222.76 C 346.07 216.46 343.29 210.03 345.78 203.87 C 348.60 205.79 351.16 208.16 354.28 209.62 C 355.47 210.15 356.69 209.27 357.75 208.79 C 361.07 206.85 363.93 204.25 367.05 202.01 C 370.62 199.32 374.78 196.76 376.19 192.24 Z" fill="#f86c2a" opacity="1.00" stroke="#f86c2a" stroke-width="0.25" data-index="61"></path>
<path d="M 280.67 191.83 C 285.31 190.03 289.40 186.75 294.45 186.08 C 293.38 188.31 291.23 189.63 289.33 191.08 C 290.62 195.29 292.80 199.86 291.19 204.27 C 288.50 209.51 281.77 209.45 276.77 210.69 C 275.26 206.13 273.90 201.50 272.08 197.05 C 275.56 194.05 277.49 189.45 281.80 187.42 C 281.42 188.89 281.04 190.36 280.67 191.83 Z" fill="#fdc2ac" opacity="1.00" stroke="#fdc2ac" stroke-width="0.25" data-index="62"></path>
<path d="M 304.08 188.25 C 304.56 187.36 305.05 186.48 305.55 185.61 C 305.75 187.02 305.97 188.42 306.21 189.83 C 309.18 189.25 312.15 188.64 315.11 188.00 C 316.23 190.97 317.85 193.73 319.79 196.24 C 314.04 195.33 307.98 196.59 302.50 194.23 C 302.96 192.22 303.47 190.22 304.08 188.25 Z" fill="#a88188" opacity="1.00" stroke="#a88188" stroke-width="0.25" data-index="63"></path>
<path d="M 301.35 200.08 C 301.71 198.13 302.08 196.18 302.50 194.23 C 307.98 196.59 314.04 195.33 319.79 196.24 C 322.69 198.14 325.66 200.08 329.04 201.04 C 332.72 202.10 336.60 202.02 340.40 202.38 C 336.11 204.53 331.50 206.14 326.70 206.61 C 322.24 206.99 318.03 205.16 313.67 204.60 C 313.37 203.87 313.08 203.15 312.79 202.42 C 308.80 202.87 304.00 204.04 301.35 200.08 Z" fill="#a26ea0" opacity="1.00" stroke="#a26ea0" stroke-width="0.25" data-index="64"></path>
<path d="M 291.37 229.35 C 296.72 220.44 299.29 210.17 301.35 200.08 C 304.00 204.04 308.80 202.87 312.79 202.42 C 313.08 203.15 313.37 203.87 313.67 204.60 C 314.84 210.22 321.45 210.53 326.06 210.75 C 328.74 214.47 330.78 218.62 331.93 223.07 C 328.68 217.93 323.28 214.46 317.53 212.73 C 314.48 212.01 313.34 215.97 311.80 217.87 C 312.75 214.77 313.36 211.58 313.80 208.37 C 312.66 208.28 311.51 208.20 310.37 208.13 C 308.10 215.77 306.12 223.78 301.27 230.28 C 298.58 233.88 295.52 237.42 291.43 239.46 C 287.35 241.53 282.89 242.78 278.86 244.98 C 278.22 243.44 277.59 241.91 276.97 240.38 C 277.98 240.06 278.98 239.73 279.99 239.39 C 284.79 237.43 288.73 233.79 291.37 229.35 Z" fill="#975bbe" opacity="1.00" stroke="#975bbe" stroke-width="0.25" data-index="65"></path>
<path d="M 341.86 206.14 C 343.19 205.44 344.51 204.69 345.78 203.87 C 343.29 210.03 346.07 216.46 346.16 222.76 C 346.22 224.76 346.09 226.78 346.40 228.77 C 347.42 231.36 349.66 233.32 350.45 236.00 C 350.46 238.18 349.46 240.19 348.84 242.24 C 348.84 239.28 348.76 236.32 348.65 233.36 C 348.07 233.35 346.90 233.33 346.32 233.32 C 346.00 233.81 345.36 234.77 345.04 235.26 C 344.15 234.69 343.26 234.13 342.38 233.57 C 344.06 224.38 340.38 215.30 341.86 206.14 Z" fill="#e36342" opacity="1.00" stroke="#e36342" stroke-width="0.25" data-index="66"></path>
<path d="M 390.26 223.24 C 391.58 216.66 393.02 210.02 395.15 203.65 C 398.67 230.59 401.15 257.67 404.30 284.66 C 410.59 341.74 417.30 398.78 423.57 455.86 C 420.34 456.22 417.14 456.80 413.93 457.28 C 406.02 379.27 397.81 301.28 390.26 223.24 Z" fill="#caf4fd" opacity="1.00" stroke="#caf4fd" stroke-width="0.25" data-index="67"></path>
<path d="M 337.87 207.88 C 339.22 207.35 340.55 206.78 341.86 206.14 C 340.38 215.30 344.06 224.38 342.38 233.57 C 343.26 234.13 344.15 234.69 345.04 235.26 C 344.87 242.78 342.36 249.94 339.93 256.97 C 338.42 261.29 336.60 265.53 334.10 269.38 C 333.88 268.82 333.45 267.69 333.24 267.13 C 331.26 268.47 329.43 270.28 327.05 270.86 C 324.52 270.91 322.70 268.92 321.06 267.28 C 323.61 267.75 326.20 268.41 328.81 268.14 C 331.08 266.57 332.49 264.10 333.76 261.72 C 338.02 253.48 339.25 244.12 340.04 235.00 C 340.83 225.89 338.93 216.88 337.87 207.88 Z" fill="#d35b57" opacity="1.00" stroke="#d35b57" stroke-width="0.25" data-index="68"></path>
<path d="M 310.37 208.13 C 311.51 208.20 312.66 208.28 313.80 208.37 C 313.36 211.58 312.75 214.77 311.80 217.87 C 309.23 225.77 305.16 233.32 298.95 238.95 C 293.93 243.90 286.83 245.40 280.77 248.59 C 279.19 249.46 277.66 250.39 276.20 251.43 C 273.16 253.64 269.92 256.78 270.30 260.89 C 270.78 265.36 273.79 269.02 276.62 272.31 C 278.62 274.05 280.81 275.55 283.02 277.00 C 283.87 276.38 284.74 275.77 285.60 275.16 C 287.08 274.13 288.56 273.11 290.08 272.14 C 293.60 271.09 297.58 269.78 300.99 271.93 C 303.17 272.66 303.75 274.94 304.23 276.93 C 301.17 276.33 298.24 274.96 295.11 274.86 C 291.84 275.56 289.03 277.58 286.87 280.08 C 284.99 280.42 283.10 280.69 281.21 280.99 C 274.53 276.47 267.91 270.35 266.51 262.02 C 265.62 256.05 269.82 251.09 274.30 247.80 C 275.76 246.77 277.29 245.84 278.86 244.98 C 282.89 242.78 287.35 241.53 291.43 239.46 C 295.52 237.42 298.58 233.88 301.27 230.28 C 306.12 223.78 308.10 215.77 310.37 208.13 Z" fill="#fff8fe" opacity="1.00" stroke="#fff8fe" stroke-width="0.25" data-index="69" style="opacity: 1;"></path>
<path d="M 334.48 209.02 C 335.62 208.66 336.75 208.28 337.87 207.88 C 338.93 216.88 340.83 225.89 340.04 235.00 C 339.25 244.12 338.02 253.48 333.76 261.72 C 332.49 264.10 331.08 266.57 328.81 268.14 C 326.20 268.41 323.61 267.75 321.06 267.28 C 320.68 266.87 319.90 266.06 319.51 265.65 C 322.25 266.04 325.19 266.93 327.91 265.97 C 330.83 264.51 332.26 261.33 333.38 258.44 C 336.82 248.70 337.36 238.20 336.94 227.96 C 336.84 221.54 333.81 215.49 334.48 209.02 Z" fill="#ba5d80" opacity="1.00" stroke="#ba5d80" stroke-width="0.25" data-index="70"></path>

<path d="M 326.06 210.75 C 328.91 210.44 331.73 209.84 334.48 209.02 C 333.81 215.49 336.84 221.54 336.94 227.96 C 337.36 238.20 336.82 248.70 333.38 258.44 C 332.26 261.33 330.83 264.51 327.91 265.97 C 325.19 266.93 322.25 266.04 319.51 265.65 C 319.11 265.30 318.31 264.61 317.90 264.26 C 317.21 263.21 316.55 262.15 315.85 261.11 C 319.11 262.29 323.46 265.64 326.57 262.62 C 327.69 261.66 328.73 260.61 329.83 259.62 C 330.75 258.82 331.69 258.05 332.65 257.29 C 332.15 254.63 331.61 251.99 330.82 249.41 C 334.87 241.22 334.33 231.65 331.93 223.07 C 330.78 218.62 328.74 214.47 326.06 210.75 Z" fill="#a75ba3" opacity="1.00" stroke="#a75ba3" stroke-width="0.25" data-index="72"></path>
<path d="M 311.80 217.87 C 313.34 215.97 314.48 212.01 317.53 212.73 C 323.28 214.46 328.68 217.93 331.93 223.07 C 334.33 231.65 334.87 241.22 330.82 249.41 C 329.57 246.28 328.07 243.27 326.63 240.24 C 325.41 240.23 324.19 240.22 322.98 240.23 C 325.13 246.74 327.71 253.09 329.83 259.62 C 328.73 260.61 327.69 261.66 326.57 262.62 C 323.46 265.64 319.11 262.29 315.85 261.11 C 311.19 258.61 305.65 256.82 300.40 258.43 C 296.25 259.83 292.99 262.90 289.70 265.64 C 286.89 267.99 284.10 270.36 281.50 272.93 C 281.88 264.80 280.22 256.74 280.77 248.59 C 286.83 245.40 293.93 243.90 298.95 238.95 C 305.16 233.32 309.23 225.77 311.80 217.87 Z" fill="#9555c4" opacity="1.00" stroke="#9555c4" stroke-width="0.25" data-index="73" style="opacity: 1;"></path>
<path d="M 372.06 225.36 C 373.12 220.64 375.71 216.48 379.64 213.63 C 380.50 214.84 381.37 216.05 382.24 217.27 C 373.61 253.73 364.86 290.18 356.13 326.62 C 350.70 326.57 345.30 325.93 339.94 325.09 C 325.98 322.91 311.87 321.78 297.97 319.21 C 290.09 316.11 281.50 315.91 273.28 314.31 C 271.85 313.98 270.76 312.96 269.47 312.35 C 273.77 307.63 278.80 303.35 281.60 297.49 C 284.07 292.55 284.41 286.95 285.67 281.65 C 285.97 281.26 286.57 280.47 286.87 280.08 C 289.03 277.58 291.84 275.56 295.11 274.86 C 298.24 274.96 301.17 276.33 304.23 276.93 C 303.75 274.94 303.17 272.66 300.99 271.93 C 297.58 269.78 293.60 271.09 290.08 272.14 C 289.54 272.10 288.47 272.03 287.94 271.99 C 291.00 266.24 295.97 261.14 302.38 259.35 C 307.45 258.09 312.03 261.39 316.39 263.45 C 318.78 267.29 320.51 272.09 324.63 274.43 C 329.33 275.22 334.39 274.66 338.83 272.92 C 339.39 271.29 339.76 269.60 340.20 267.94 C 343.21 259.42 346.36 250.94 348.84 242.24 C 349.46 240.19 350.46 238.18 350.45 236.00 C 349.66 233.32 347.42 231.36 346.40 228.77 C 346.09 226.78 346.22 224.76 346.16 222.76 C 348.10 226.01 349.68 230.17 353.23 231.89 C 359.03 232.00 364.33 228.85 368.54 225.10 C 369.71 225.18 370.88 225.27 372.06 225.36 Z" fill="#f75b2d" opacity="1.00" stroke="#f75b2d" stroke-width="0.25" data-index="74" style="opacity: 1;"></path>
<path d="M 246.31 229.37 C 247.10 228.45 248.33 228.14 249.39 227.65 C 249.66 228.96 249.94 230.28 250.22 231.59 C 256.51 232.39 262.59 230.26 268.78 229.97 C 272.94 232.59 274.92 237.94 279.99 239.39 C 278.98 239.73 277.98 240.06 276.97 240.38 C 275.66 239.41 274.35 238.44 273.04 237.48 C 271.76 236.53 270.50 235.59 269.19 234.70 C 262.40 233.29 258.45 240.21 253.52 243.47 C 250.03 246.37 244.05 244.75 243.55 239.91 C 244.39 236.38 244.96 232.75 246.31 229.37 Z" fill="#71d4e2" opacity="1.00" stroke="#71d4e2" stroke-width="0.25" data-index="75" style="opacity: 1;"></path>
<path d="M 346.32 233.32 C 346.90 233.33 348.07 233.35 348.65 233.36 C 348.76 236.32 348.84 239.28 348.84 242.24 C 346.36 250.94 343.21 259.42 340.20 267.94 C 338.79 269.75 337.77 272.13 335.93 273.46 C 334.72 272.57 334.83 270.65 334.10 269.38 C 336.60 265.53 338.42 261.29 339.93 256.97 C 342.36 249.94 344.87 242.78 345.04 235.26 C 345.36 234.77 346.00 233.81 346.32 233.32 Z" fill="#fff8f2" opacity="1.00" stroke="#fff8f2" stroke-width="0.25" data-index="76"></path>
<path d="M 253.52 243.47 C 258.45 240.21 262.40 233.29 269.19 234.70 C 268.83 234.91 268.12 235.34 267.77 235.55 C 264.54 237.22 261.23 239.02 259.13 242.10 C 255.74 246.66 252.13 251.82 246.26 253.24 C 244.24 254.09 242.18 253.21 240.39 252.26 C 241.44 248.14 242.62 244.06 243.55 239.91 C 244.05 244.75 250.03 246.37 253.52 243.47 Z" fill="#7cc5c3" opacity="1.00" stroke="#7cc5c3" stroke-width="0.25" data-index="77" style="opacity: 1;"></path>
<path d="M 267.77 235.55 C 268.12 235.34 268.83 234.91 269.19 234.70 C 270.50 235.59 271.76 236.53 273.04 237.48 C 270.96 238.12 268.88 238.74 266.85 239.52 C 261.40 245.78 258.23 253.58 255.30 261.24 C 253.78 261.77 252.26 262.29 250.74 262.82 C 252.28 259.60 253.42 256.20 254.93 252.96 C 258.36 246.59 262.30 240.39 267.77 235.55 Z" fill="#a09285" opacity="1.00" stroke="#a09285" stroke-width="0.25" data-index="78" style="opacity: 1;"></path>
<path d="M 259.13 242.10 C 261.23 239.02 264.54 237.22 267.77 235.55 C 262.30 240.39 258.36 246.59 254.93 252.96 C 250.10 257.96 243.81 261.11 237.63 264.09 C 238.59 260.16 239.42 256.19 240.39 252.26 C 242.18 253.21 244.24 254.09 246.26 253.24 C 252.13 251.82 255.74 246.66 259.13 242.10 Z" fill="#8bbaa4" opacity="1.00" stroke="#8bbaa4" stroke-width="0.25" data-index="79" style="opacity: 1;"></path>
<path d="M 266.85 239.52 C 268.88 238.74 270.96 238.12 273.04 237.48 C 274.35 238.44 275.66 239.41 276.97 240.38 C 277.59 241.91 278.22 243.44 278.86 244.98 C 277.29 245.84 275.76 246.77 274.30 247.80 C 273.62 245.18 272.72 242.59 271.12 240.39 C 269.70 240.06 268.28 239.79 266.85 239.52 Z" fill="#a9618d" opacity="1.00" stroke="#a9618d" stroke-width="0.25" data-index="80"></path>
<path d="M 255.30 261.24 C 258.23 253.58 261.40 245.78 266.85 239.52 C 268.28 239.79 269.70 240.06 271.12 240.39 C 266.61 241.93 263.67 245.92 262.48 250.40 C 260.25 258.81 258.84 267.46 255.81 275.65 C 255.27 276.72 254.69 277.78 254.12 278.85 C 251.75 278.78 249.38 278.76 247.01 278.78 C 249.99 273.04 253.00 267.29 255.30 261.24 Z" fill="#b68067" opacity="1.00" stroke="#b68067" stroke-width="0.25" data-index="81" style="opacity: 1;"></path>
<path d="M 322.98 240.23 C 324.19 240.22 325.41 240.23 326.63 240.24 C 328.07 243.27 329.57 246.28 330.82 249.41 C 331.61 251.99 332.15 254.63 332.65 257.29 C 331.69 258.05 330.75 258.82 329.83 259.62 C 327.71 253.09 325.13 246.74 322.98 240.23 Z" fill="#fff8ff" opacity="1.00" stroke="#fff8ff" stroke-width="0.25" data-index="82"></path>
<path d="M 262.48 250.40 C 263.67 245.92 266.61 241.93 271.12 240.39 C 272.72 242.59 273.62 245.18 274.30 247.80 C 269.82 251.09 265.62 256.05 266.51 262.02 C 267.91 270.35 274.53 276.47 281.21 280.99 C 277.71 281.47 274.22 282.97 270.65 282.34 C 267.37 280.71 265.64 277.19 263.40 274.45 C 262.22 275.99 261.01 277.52 259.99 279.16 C 258.59 277.99 257.20 276.82 255.81 275.65 C 258.84 267.46 260.25 258.81 262.48 250.40 Z" fill="#c4675f" opacity="1.00" stroke="#c4675f" stroke-width="0.25" data-index="83" style="opacity: 1;"></path>
<path d="M 276.20 251.43 C 277.66 250.39 279.19 249.46 280.77 248.59 C 280.22 256.74 281.88 264.80 281.50 272.93 C 284.10 270.36 286.89 267.99 289.70 265.64 C 287.79 268.55 286.44 271.79 285.60 275.16 C 284.74 275.77 283.87 276.38 283.02 277.00 C 280.81 275.55 278.62 274.05 276.62 272.31 C 276.08 265.36 277.28 258.36 276.20 251.43 Z" fill="#a559a8" opacity="1.00" stroke="#a559a8" stroke-width="0.25" data-index="84" style="opacity: 1;"></path>
<path d="M 270.30 260.89 C 269.92 256.78 273.16 253.64 276.20 251.43 C 277.28 258.36 276.08 265.36 276.62 272.31 C 273.79 269.02 270.78 265.36 270.30 260.89 Z" fill="#b05b87" opacity="1.00" stroke="#b05b87" stroke-width="0.25" data-index="85"></path>
<path d="M 237.63 264.09 C 243.81 261.11 250.10 257.96 254.93 252.96 C 253.42 256.20 252.28 259.60 250.74 262.82 C 248.42 266.72 244.95 269.75 241.15 272.17 C 236.62 274.76 235.37 280.18 232.58 284.23 L 232.72 283.24 C 234.50 276.90 236.08 270.50 237.63 264.09 Z" fill="#9bac87" opacity="1.00" stroke="#9bac87" stroke-width="0.25" data-index="86"></path>
<path d="M 300.40 258.43 C 305.65 256.82 311.19 258.61 315.85 261.11 C 316.55 262.15 317.21 263.21 317.90 264.26 C 317.53 264.06 316.77 263.66 316.39 263.45 C 312.03 261.39 307.45 258.09 302.38 259.35 C 295.97 261.14 291.00 266.24 287.94 271.99 C 288.47 272.03 289.54 272.10 290.08 272.14 C 288.56 273.11 287.08 274.13 285.60 275.16 C 286.44 271.79 287.79 268.55 289.70 265.64 C 292.99 262.90 296.25 259.83 300.40 258.43 Z" fill="#c95a71" opacity="1.00" stroke="#c95a71" stroke-width="0.25" data-index="87"></path>
<path d="M 250.74 262.82 C 252.26 262.29 253.78 261.77 255.30 261.24 C 253.00 267.29 249.99 273.04 247.01 278.78 C 244.03 283.14 240.05 286.67 236.03 290.03 C 232.24 293.01 230.81 297.79 228.60 301.87 C 229.82 295.97 231.26 290.11 232.58 284.23 C 235.37 280.18 236.62 274.76 241.15 272.17 C 244.95 269.75 248.42 266.72 250.74 262.82 Z" fill="#ad9c70" opacity="1.00" stroke="#ad9c70" stroke-width="0.25" data-index="88"></path>
<path d="M 316.39 263.45 C 316.77 263.66 317.53 264.06 317.90 264.26 C 318.31 264.61 319.11 265.30 319.51 265.65 C 319.90 266.06 320.68 266.87 321.06 267.28 C 322.70 268.92 324.52 270.91 327.05 270.86 C 329.43 270.28 331.26 268.47 333.24 267.13 C 333.45 267.69 333.88 268.82 334.10 269.38 C 334.83 270.65 334.72 272.57 335.93 273.46 C 337.77 272.13 338.79 269.75 340.20 267.94 C 339.76 269.60 339.39 271.29 338.83 272.92 C 334.39 274.66 329.33 275.22 324.63 274.43 C 320.51 272.09 318.78 267.29 316.39 263.45 Z" fill="#e35846" opacity="1.00" stroke="#e35846" stroke-width="0.25" data-index="89"></path>
<path d="M 88.03 268.56 C 108.70 270.63 129.35 273.30 150.14 273.74 C 150.13 274.17 150.10 275.03 150.08 275.46 C 149.34 276.18 148.60 276.89 147.86 277.62 C 148.11 277.86 148.60 278.36 148.85 278.61 C 149.62 279.37 150.34 280.18 150.98 281.06 C 160.77 296.29 169.27 312.31 177.84 328.25 C 189.84 350.41 201.62 372.79 210.44 396.45 C 216.27 411.88 221.49 427.55 225.78 443.49 C 218.77 445.75 211.65 447.62 204.56 449.57 C 202.65 450.05 200.89 450.93 199.18 451.89 C 186.76 411.54 169.62 372.55 147.39 336.63 C 145.52 333.73 143.79 330.72 141.56 328.07 C 141.73 338.08 142.96 348.06 143.38 358.07 C 145.17 392.01 146.13 426.05 144.55 460.02 C 153.58 465.47 163.25 469.90 172.66 474.71 C 172.63 476.63 172.59 478.55 172.51 480.48 C 164.35 480.87 156.18 480.35 148.01 480.36 C 139.18 480.26 130.34 480.58 121.53 479.86 C 121.09 473.21 120.35 466.59 119.89 459.94 C 116.73 459.66 113.56 459.44 110.43 458.93 C 108.36 420.58 107.89 382.01 101.89 343.99 C 98.15 319.01 90.93 294.66 88.16 269.53 L 88.03 268.56 Z" fill="#063458" opacity="1.00" stroke="#063458" stroke-width="0.25" data-index="90" style="opacity: 1;"></path>
<path d="M 259.99 279.16 C 261.01 277.52 262.22 275.99 263.40 274.45 C 265.64 277.19 267.37 280.71 270.65 282.34 C 274.22 282.97 277.71 281.47 281.21 280.99 C 283.10 280.69 284.99 280.42 286.87 280.08 C 286.57 280.47 285.97 281.26 285.67 281.65 C 284.15 282.12 282.58 282.50 281.16 283.23 C 278.12 285.96 277.16 290.37 273.96 292.96 C 269.99 295.42 264.86 295.23 261.12 298.12 C 258.72 300.05 256.60 302.30 254.53 304.56 C 256.17 296.06 258.23 287.64 259.99 279.16 Z" fill="#d26455" opacity="1.00" stroke="#d26455" stroke-width="0.25" data-index="91" style="opacity: 1;"></path>
<path d="M 254.12 278.85 C 254.69 277.78 255.27 276.72 255.81 275.65 C 257.20 276.82 258.59 277.99 259.99 279.16 C 258.23 287.64 256.17 296.06 254.53 304.56 C 253.31 306.54 252.09 308.53 250.88 310.51 C 255.99 312.95 261.90 312.64 266.99 315.16 C 257.59 314.17 248.24 312.88 238.89 311.49 C 237.37 309.89 235.78 308.36 234.14 306.88 C 244.37 300.68 248.81 288.95 254.12 278.85 Z" fill="#cc7a51" opacity="1.00" stroke="#cc7a51" stroke-width="0.25" data-index="92" style="opacity: 1;"></path>
<path d="M 247.01 278.78 C 249.38 278.76 251.75 278.78 254.12 278.85 C 248.81 288.95 244.37 300.68 234.14 306.88 C 235.78 308.36 237.37 309.89 238.89 311.49 C 234.86 311.00 230.84 310.49 226.83 309.85 C 227.35 307.17 227.91 304.50 228.60 301.87 C 230.81 297.79 232.24 293.01 236.03 290.03 C 240.05 286.67 244.03 283.14 247.01 278.78 Z" fill="#be8e5c" opacity="1.00" stroke="#be8e5c" stroke-width="0.25" data-index="93"></path>
<path d="M 108.08 280.52 C 109.26 280.00 110.15 280.24 110.76 281.24 C 117.09 290.77 123.87 300.01 131.03 308.95 C 132.75 311.16 134.77 313.30 135.37 316.14 C 133.61 315.58 132.27 314.32 131.24 312.84 C 123.16 302.34 114.83 291.94 108.08 280.52 Z" fill="#edffff" opacity="1.00" stroke="#edffff" stroke-width="0.25" data-index="94"></path>
<path d="M 281.16 283.23 C 282.58 282.50 284.15 282.12 285.67 281.65 C 284.41 286.95 284.07 292.55 281.60 297.49 C 278.80 303.35 273.77 307.63 269.47 312.35 C 270.76 312.96 271.85 313.98 273.28 314.31 C 281.50 315.91 290.09 316.11 297.97 319.21 C 287.61 318.15 277.25 316.94 266.99 315.16 C 261.90 312.64 255.99 312.95 250.88 310.51 C 252.09 308.53 253.31 306.54 254.53 304.56 C 256.60 302.30 258.72 300.05 261.12 298.12 C 264.86 295.23 269.99 295.42 273.96 292.96 C 277.16 290.37 278.12 285.96 281.16 283.23 Z" fill="#e26041" opacity="1.00" stroke="#e26041" stroke-width="0.25" data-index="95" style="opacity: 1;"></path>
<path d="M 253.13 317.71 C 253.32 317.12 253.70 315.92 253.89 315.32 C 258.11 315.73 262.31 316.42 266.53 316.87 C 266.44 317.59 266.25 319.02 266.15 319.73 C 261.83 318.91 257.47 318.41 253.13 317.71 Z" fill="#cdfaff" opacity="1.00" stroke="#cdfaff" stroke-width="0.25" data-index="96" style="opacity: 1;"></path>
<path d="M 269.25 317.23 C 270.90 317.26 270.60 320.00 269.10 320.05 C 267.42 320.03 267.76 317.29 269.25 317.23 Z" fill="#a8d2ea" opacity="1.00" stroke="#a8d2ea" stroke-width="0.25" data-index="97"></path>
<path d="M 272.00 318.01 C 287.86 319.30 303.58 322.03 319.39 323.91 C 319.25 324.64 318.96 326.09 318.82 326.81 C 303.23 324.72 287.63 322.69 272.05 320.55 C 272.03 319.91 272.01 318.64 272.00 318.01 Z" fill="#f2fdff" opacity="1.00" stroke="#f2fdff" stroke-width="0.25" data-index="98"></path>
<path d="M 241.82 318.45 C 256.28 319.65 270.59 322.09 284.96 323.99 C 303.28 326.47 321.61 328.93 339.94 331.27 C 339.26 333.46 338.63 335.67 338.28 337.95 C 305.82 333.46 273.33 329.16 240.88 324.56 C 241.17 322.52 241.48 320.48 241.82 318.45 Z" fill="#cbf4fd" opacity="1.00" stroke="#cbf4fd" stroke-width="0.25" data-index="99" style="opacity: 1;"></path>
<path d="M 321.12 324.27 C 325.60 324.74 330.05 325.43 334.50 326.09 C 334.50 326.77 334.50 328.13 334.50 328.81 C 329.94 328.47 325.44 327.59 320.88 327.32 C 320.95 326.30 321.03 325.28 321.12 324.27 Z" fill="#caf8ff" opacity="1.00" stroke="#caf8ff" stroke-width="0.25" data-index="100"></path>
<path d="M 336.33 326.27 C 336.98 326.32 338.28 326.42 338.93 326.46 C 338.68 327.61 338.44 328.76 338.18 329.91 C 337.62 329.68 336.50 329.22 335.94 329.00 C 336.04 328.32 336.24 326.95 336.33 326.27 Z" fill="#cff9fe" opacity="1.00" stroke="#cff9fe" stroke-width="0.25" data-index="101"></path>
<path d="M 248.12 327.47 C 253.35 327.87 258.54 328.68 263.71 329.58 C 258.27 346.99 253.19 364.50 247.83 381.93 C 242.91 381.11 237.99 380.29 233.13 379.20 C 238.18 361.98 243.48 344.81 248.12 327.47 Z" fill="#cdf5fe" opacity="1.00" stroke="#cdf5fe" stroke-width="0.25" data-index="102" style="opacity: 1;"></path>
<path d="M 262.26 340.34 C 263.45 336.52 264.35 332.58 266.09 328.95 C 267.25 330.55 266.72 332.45 266.21 334.17 C 261.48 350.28 256.73 366.40 252.42 382.63 C 251.80 382.62 250.55 382.60 249.93 382.59 C 253.38 368.33 258.33 354.47 262.26 340.34 Z" fill="#cbf8ff" opacity="1.00" stroke="#cbf8ff" stroke-width="0.25" data-index="103"></path>
<path d="M 342.32 339.28 C 338.89 337.53 340.58 333.55 342.78 331.52 C 342.73 334.11 342.49 336.69 342.32 339.28 Z" fill="#cffbff" opacity="1.00" stroke="#cffbff" stroke-width="0.25" data-index="104"></path>
<path d="M 344.99 332.27 C 347.62 334.06 347.21 338.56 344.06 339.52 C 344.15 337.08 344.48 334.65 344.99 332.27 Z" fill="#d0fcff" opacity="1.00" stroke="#d0fcff" stroke-width="0.25" data-index="105"></path>
<path d="M 317.91 337.07 C 323.13 337.33 328.26 338.39 333.46 338.94 C 329.53 356.97 325.50 374.97 321.60 393.00 C 316.39 392.46 311.27 391.31 306.10 390.53 C 309.64 372.62 314.08 354.91 317.91 337.07 Z" fill="#ccf5fe" opacity="1.00" stroke="#ccf5fe" stroke-width="0.25" data-index="106"></path>
<path d="M 334.51 342.60 C 334.74 340.81 335.62 337.90 337.77 340.00 C 334.04 358.22 329.76 376.36 326.00 394.59 C 325.37 394.21 324.12 393.43 323.50 393.05 C 326.92 376.18 331.04 359.46 334.51 342.60 Z" fill="#cffbff" opacity="1.00" stroke="#cffbff" stroke-width="0.25" data-index="107"></path>
<path d="M 132.09 341.76 C 132.59 341.78 133.59 341.82 134.09 341.85 C 136.11 381.03 136.56 420.30 135.27 459.52 C 134.55 459.50 133.84 459.50 133.13 459.52 C 134.00 430.36 133.94 401.17 133.13 372.01 C 132.73 361.93 132.27 351.84 132.09 341.76 Z" fill="#f1ffff" opacity="1.00" stroke="#f1ffff" stroke-width="0.25" data-index="108"></path>
<path d="M 237.13 381.87 C 240.13 382.36 243.13 382.86 246.12 383.42 C 244.05 391.23 241.28 398.84 239.26 406.67 C 237.01 412.77 235.33 419.05 233.34 425.24 C 231.52 420.56 229.59 415.86 228.51 410.95 C 229.44 405.24 231.85 399.86 233.11 394.21 C 234.52 390.12 235.92 386.03 237.13 381.87 Z" fill="#cbf4fc" opacity="1.00" stroke="#cbf4fc" stroke-width="0.25" data-index="109"></path>
<path d="M 247.97 383.76 C 248.67 383.81 250.07 383.91 250.77 383.97 C 246.93 397.25 242.94 410.50 239.21 423.81 C 238.13 427.31 237.03 430.80 235.65 434.20 C 235.18 431.74 234.05 429.19 234.84 426.69 C 236.60 420.61 238.63 414.62 240.30 408.53 C 243.08 400.34 245.46 392.03 247.97 383.76 Z" fill="#cdfaff" opacity="1.00" stroke="#cdfaff" stroke-width="0.25" data-index="110"></path>
<path d="M 310.33 393.11 C 313.57 393.48 316.78 394.11 320.01 394.64 C 315.27 417.09 309.78 439.38 304.48 461.70 C 301.36 461.00 298.23 460.36 295.08 459.82 C 300.01 437.55 305.21 415.34 310.33 393.11 Z" fill="#cbf4fd" opacity="1.00" stroke="#cbf4fd" stroke-width="0.25" data-index="111"></path>
<path d="M 322.15 395.26 C 325.19 394.36 323.82 397.93 323.59 399.58 C 318.80 420.44 313.73 441.25 308.78 462.07 C 308.22 462.20 307.11 462.47 306.55 462.60 C 310.13 444.56 314.82 426.75 318.78 408.79 C 320.09 404.33 320.48 399.59 322.15 395.26 Z" fill="#d0fcff" opacity="1.00" stroke="#d0fcff" stroke-width="0.25" data-index="112"></path>
<path d="M 316.19 438.75 C 318.80 428.50 320.91 418.13 323.68 407.93 C 323.02 418.55 321.57 429.09 320.73 439.70 C 319.22 439.37 317.70 439.05 316.19 438.75 Z" fill="#cff9fe" opacity="1.00" stroke="#cff9fe" stroke-width="0.25" data-index="113"></path>
<path d="M 210.51 450.17 C 219.89 447.48 229.32 444.95 238.65 442.11 C 239.55 444.70 240.40 447.30 241.26 449.91 C 240.33 450.92 238.85 451.55 238.42 452.95 C 238.79 455.10 238.93 457.76 241.12 458.91 C 249.88 464.92 258.73 470.80 267.72 476.46 C 267.48 478.07 268.00 479.98 266.95 481.36 C 255.31 481.65 243.65 481.20 232.00 481.18 C 226.45 481.13 220.89 481.28 215.36 480.76 C 213.97 473.80 212.40 466.88 211.10 459.90 C 208.22 460.40 205.39 461.15 202.58 461.92 C 201.54 458.86 200.60 455.77 199.69 452.67 C 203.41 452.37 206.95 451.16 210.51 450.17 Z" fill="#083254" opacity="1.00" stroke="#083254" stroke-width="0.25" data-index="114" style="opacity: 1;"></path>
<path d="M 212.98 459.12 C 220.79 456.85 228.52 453.99 236.63 453.00 C 236.94 454.89 237.25 456.79 237.56 458.68 C 246.03 464.51 254.87 469.81 263.08 476.03 C 258.07 476.30 253.04 476.33 248.03 476.07 C 237.44 475.40 226.82 475.75 216.21 475.58 C 214.83 470.16 213.57 464.69 212.98 459.12 Z" fill="#aa554d" opacity="1.00" stroke="#aa554d" stroke-width="0.25" data-index="115" style="opacity: 1;"></path>
<path d="M 133.13 459.52 C 133.84 459.50 134.55 459.50 135.27 459.52 C 140.61 459.66 145.10 462.91 149.76 465.13 C 155.57 468.27 161.88 470.59 167.13 474.68 C 152.45 474.88 137.77 474.35 123.09 474.58 C 122.16 469.84 121.75 464.99 121.82 460.16 C 125.59 459.92 129.36 459.65 133.13 459.52 Z" fill="#a6554e" opacity="1.00" stroke="#a6554e" stroke-width="0.25" data-index="116"></path>
</svg>