<svg xmlns="http://www.w3.org/2000/svg" height="512pt" version="1.1" viewBox="0 0 512 512" width="512pt">
<path d="M 0.00 0.00 L 512.00 0.00 L 512.00 512.00 L 0.00 512.00 L 0.00 0.00 Z" fill="transparent" opacity="1.00" stroke="transparent" stroke-width="0.25" data-index="0" style="opacity: 1;"></path>
<path d="M 218.11 40.14 C 221.47 37.33 225.07 32.82 230.03 34.52 C 232.84 36.08 234.39 39.13 236.56 41.41 C 243.97 50.35 255.73 54.39 266.99 55.39 C 276.29 56.32 285.43 53.97 294.45 52.12 C 296.97 51.44 300.49 52.00 301.07 55.02 C 301.88 59.02 299.07 62.57 298.13 66.31 C 307.58 65.45 317.15 68.61 324.49 74.55 C 326.21 76.00 327.74 77.69 328.78 79.71 C 325.61 79.24 323.87 76.23 321.40 74.52 C 313.98 69.28 304.61 67.49 295.65 68.17 C 296.86 63.44 299.69 59.01 299.00 53.96 C 292.88 53.56 287.06 55.79 281.07 56.57 C 271.61 58.46 261.78 57.26 252.67 54.33 C 245.31 51.84 238.64 47.21 233.93 41.01 C 232.41 39.25 231.02 37.16 228.81 36.22 C 226.16 35.60 223.83 37.40 222.07 39.15 C 214.53 46.59 205.41 52.12 196.26 57.33 C 188.28 62.38 180.60 68.31 175.13 76.10 C 168.49 86.44 170.63 99.88 164.41 110.38 C 162.50 113.97 158.71 115.79 155.04 117.05 C 151.92 117.34 148.79 117.35 145.67 117.40 C 148.30 121.72 154.09 122.07 158.52 120.88 C 158.34 123.38 156.47 125.26 155.48 127.46 C 151.21 136.28 150.89 146.56 153.01 156.00 C 153.94 160.14 155.66 164.04 156.97 168.06 C 156.69 168.45 156.11 169.23 155.83 169.62 C 148.77 155.53 147.13 137.45 155.60 123.59 C 151.52 122.89 146.94 122.15 144.11 118.81 C 142.95 117.80 143.33 115.40 145.10 115.49 C 150.72 115.77 157.27 115.87 161.42 111.40 C 167.31 104.05 167.01 94.16 169.30 85.46 C 170.36 80.23 173.10 75.53 176.44 71.43 C 182.18 65.05 188.82 59.40 196.34 55.21 C 203.96 50.75 211.80 46.42 218.11 40.14 Z" fill="#13293a" opacity="1.00" stroke="#13293a" stroke-width="0.25" data-index="1"></path>
<path d="M 222.07 39.15 C 223.83 37.40 226.16 35.60 228.81 36.22 C 231.02 37.16 232.41 39.25 233.93 41.01 C 238.64 47.21 245.31 51.84 252.67 54.33 C 261.78 57.26 271.61 58.46 281.07 56.57 C 287.06 55.79 292.88 53.56 299.00 53.96 C 299.69 59.01 296.86 63.44 295.65 68.17 C 304.61 67.49 313.98 69.28 321.40 74.52 C 323.87 76.23 325.61 79.24 328.78 79.71 C 332.22 83.18 332.72 88.79 333.50 93.49 C 337.33 91.02 342.33 93.38 343.73 97.48 C 346.93 106.26 346.16 116.12 350.50 124.57 C 353.01 130.63 359.33 134.92 365.96 134.46 C 365.77 135.60 365.84 136.89 365.03 137.84 C 362.29 142.07 358.73 145.69 354.86 148.89 C 357.51 157.28 359.88 166.12 358.80 174.98 L 357.09 175.92 C 356.42 178.31 356.02 180.75 355.57 183.19 C 353.33 181.25 349.75 179.56 350.20 176.05 C 350.54 159.03 347.91 141.18 337.99 126.91 C 334.34 122.03 330.87 116.56 325.18 113.83 C 323.38 117.62 320.20 123.30 324.19 126.69 C 336.05 138.35 340.77 155.51 339.81 171.80 C 335.67 171.40 331.53 170.83 327.57 169.52 C 328.24 163.73 329.15 157.95 329.34 152.12 C 326.24 151.39 322.91 150.82 320.41 148.68 C 315.17 144.06 312.70 137.13 307.56 132.44 C 304.72 129.87 300.77 129.85 297.19 130.27 C 295.18 136.18 300.59 140.61 303.89 144.74 C 296.68 145.03 288.72 142.69 284.56 136.39 C 281.62 132.92 280.12 128.64 279.24 124.24 C 277.00 124.44 276.04 127.12 273.96 127.80 C 268.21 129.89 262.08 130.97 255.95 130.76 C 249.92 130.83 243.46 130.19 238.41 126.58 C 237.17 125.82 236.09 124.67 234.60 124.45 C 233.45 127.62 235.05 130.83 236.36 133.67 C 238.20 137.61 241.40 140.63 244.25 143.83 C 239.55 144.57 234.60 144.77 230.13 142.88 C 222.04 139.59 213.20 136.67 204.40 138.50 C 201.09 139.40 197.51 140.57 195.21 143.25 C 193.78 146.12 193.66 149.62 191.22 151.95 C 187.50 149.27 184.59 145.72 182.14 141.88 C 180.71 144.76 181.66 148.00 181.88 151.03 C 182.53 157.86 183.91 164.63 183.84 171.52 C 181.53 171.68 179.20 171.82 176.97 172.43 C 174.96 173.08 172.89 173.49 170.78 173.50 C 170.92 171.90 171.53 170.28 171.23 168.67 C 170.43 167.34 169.34 166.22 168.34 165.06 C 168.22 151.21 172.96 136.81 183.28 127.23 C 187.65 124.00 183.88 118.44 183.20 114.28 C 179.83 114.41 177.72 117.25 175.59 119.48 C 165.87 129.62 160.62 143.28 158.65 157.02 C 158.13 160.70 158.11 164.49 156.97 168.06 C 155.66 164.04 153.94 160.14 153.01 156.00 C 150.89 146.56 151.21 136.28 155.48 127.46 C 156.47 125.26 158.34 123.38 158.52 120.88 C 156.27 120.34 154.00 119.90 151.74 119.44 C 152.84 118.64 153.92 117.82 155.04 117.05 C 158.71 115.79 162.50 113.97 164.41 110.38 C 170.63 99.88 168.49 86.44 175.13 76.10 C 180.60 68.31 188.28 62.38 196.26 57.33 C 205.41 52.12 214.53 46.59 222.07 39.15 Z" fill="#6c453e" opacity="1.00" stroke="#6c453e" stroke-width="0.25" data-index="2"></path>
<path d="M 399.05 115.07 C 401.40 112.83 403.10 109.06 406.83 109.09 C 406.60 110.41 406.71 111.92 405.68 112.95 C 401.84 117.35 397.29 121.07 393.42 125.44 C 386.54 132.91 379.04 139.79 372.46 147.53 C 371.91 147.56 370.82 147.61 370.28 147.63 C 370.48 146.50 370.02 145.06 371.01 144.21 C 380.55 134.69 389.67 124.76 399.05 115.07 Z" fill="#89d3de" opacity="1.00" stroke="#89d3de" stroke-width="0.25" data-index="3"></path>
<path d="M 175.59 119.48 C 177.72 117.25 179.83 114.41 183.20 114.28 C 183.88 118.44 187.65 124.00 183.28 127.23 C 172.96 136.81 168.22 151.21 168.34 165.06 C 169.34 166.22 170.43 167.34 171.23 168.67 C 171.53 170.28 170.92 171.90 170.78 173.50 C 172.89 173.49 174.96 173.08 176.97 172.43 C 178.16 173.04 179.37 173.64 180.57 174.24 C 173.78 182.54 166.50 190.41 159.07 198.13 C 154.97 202.51 151.86 207.67 148.90 212.86 C 148.36 214.08 147.26 214.78 145.99 215.09 C 149.00 206.43 156.13 200.11 159.81 191.80 C 163.54 184.76 168.74 178.06 169.38 169.83 C 169.09 168.45 167.36 168.44 166.39 167.76 C 164.48 171.15 162.31 174.41 159.70 177.31 L 157.82 177.53 C 157.96 174.79 157.42 172.06 155.59 169.94 L 155.83 169.62 C 156.11 169.23 156.69 168.45 156.97 168.06 C 158.11 164.49 158.13 160.70 158.65 157.02 C 160.62 143.28 165.87 129.62 175.59 119.48 Z" fill="#082c4f" opacity="1.00" stroke="#082c4f" stroke-width="0.25" data-index="4"></path>
<path d="M 325.18 113.83 C 330.87 116.56 334.34 122.03 337.99 126.91 C 347.91 141.18 350.54 159.03 350.20 176.05 C 349.75 179.56 353.33 181.25 355.57 183.19 C 356.02 180.75 356.42 178.31 357.09 175.92 L 358.80 174.98 C 358.82 179.04 357.27 182.91 357.11 186.94 C 357.95 189.85 359.57 192.49 360.28 195.46 C 362.59 204.28 361.77 213.85 358.27 222.26 C 354.82 229.71 348.57 235.96 340.86 238.91 C 334.45 241.18 327.45 241.62 320.79 240.32 C 320.44 239.68 319.75 238.39 319.40 237.74 C 319.57 236.61 319.74 235.48 319.91 234.35 C 321.96 229.86 322.42 224.89 322.31 220.02 C 323.05 210.59 324.21 201.13 324.02 191.66 C 324.30 184.70 325.72 177.80 325.47 170.82 C 325.61 170.59 325.87 170.13 326.00 169.90 L 326.12 169.07 L 327.57 169.52 C 331.53 170.83 335.67 171.40 339.81 171.80 C 340.77 155.51 336.05 138.35 324.19 126.69 C 320.20 123.30 323.38 117.62 325.18 113.83 Z" fill="#042f51" opacity="1.00" stroke="#042f51" stroke-width="0.25" data-index="5"></path>
<path d="M 325.70 116.05 C 337.06 125.14 343.91 138.98 346.62 153.09 C 348.07 161.64 348.56 170.32 348.40 178.98 C 355.08 185.91 359.90 195.21 359.67 205.03 C 359.92 212.14 357.98 219.26 354.44 225.41 C 350.71 231.68 344.41 236.38 337.25 237.92 C 338.02 221.56 339.86 205.28 340.79 188.93 C 342.30 173.06 343.03 156.32 336.50 141.38 C 333.69 134.77 329.21 129.04 324.13 124.02 C 324.09 121.29 325.09 118.68 325.70 116.05 Z" fill="#72e0fd" opacity="1.00" stroke="#72e0fd" stroke-width="0.25" data-index="6"></path>
<path d="M 145.67 117.40 C 148.79 117.35 151.92 117.34 155.04 117.05 C 153.92 117.82 152.84 118.64 151.74 119.44 C 154.00 119.90 156.27 120.34 158.52 120.88 C 154.09 122.07 148.30 121.72 145.67 117.40 Z" fill="#585056" opacity="1.00" stroke="#585056" stroke-width="0.25" data-index="7"></path>
<path d="M 172.68 125.76 C 175.42 122.30 178.37 118.92 181.96 116.32 C 182.55 118.92 183.28 121.49 184.10 124.03 C 179.56 127.92 175.63 132.54 172.87 137.88 C 168.16 146.46 166.74 156.33 166.11 165.96 C 163.06 168.01 162.73 172.32 159.52 174.26 C 158.94 157.31 162.49 139.63 172.68 125.76 Z" fill="#72e1ff" opacity="1.00" stroke="#72e1ff" stroke-width="0.25" data-index="8"></path>
<path d="M 234.60 124.45 C 236.09 124.67 237.17 125.82 238.41 126.58 C 243.46 130.19 249.92 130.83 255.95 130.76 C 262.08 130.97 268.21 129.89 273.96 127.80 C 276.04 127.12 277.00 124.44 279.24 124.24 C 280.12 128.64 281.62 132.92 284.56 136.39 C 288.72 142.69 296.68 145.03 303.89 144.74 C 300.59 140.61 295.18 136.18 297.19 130.27 C 300.77 129.85 304.72 129.87 307.56 132.44 C 312.70 137.13 315.17 144.06 320.41 148.68 C 322.91 150.82 326.24 151.39 329.34 152.12 C 329.15 157.95 328.24 163.73 327.57 169.52 L 326.12 169.07 C 326.40 163.95 326.68 158.83 327.42 153.75 C 322.75 153.31 318.81 150.49 315.96 146.91 C 313.87 143.74 311.89 140.51 309.53 137.54 C 307.02 133.90 303.14 131.20 298.55 131.65 C 298.69 133.08 298.84 134.52 299.18 135.93 C 301.30 139.42 305.47 141.89 305.66 146.33 C 295.88 148.23 285.68 143.13 280.95 134.45 C 280.00 132.38 279.18 130.25 278.35 128.12 C 268.79 132.14 258.16 133.73 247.89 132.05 C 243.83 131.26 240.00 129.64 236.10 128.32 C 236.71 129.94 237.30 131.59 238.07 133.16 C 240.05 137.01 243.64 139.67 245.96 143.23 C 245.14 145.64 242.16 146.02 240.01 146.34 C 231.52 146.96 224.25 141.59 216.09 140.32 C 210.46 139.19 204.42 139.77 199.26 142.33 C 195.01 144.06 196.09 149.57 193.39 152.69 C 188.75 153.92 185.83 149.82 183.18 146.80 C 184.48 157.80 185.71 168.82 186.70 179.86 C 185.29 178.54 184.72 176.72 184.03 174.99 C 183.50 173.28 181.81 173.46 180.57 174.24 C 179.37 173.64 178.16 173.04 176.97 172.43 C 179.20 171.82 181.53 171.68 183.84 171.52 C 183.91 164.63 182.53 157.86 181.88 151.03 C 181.66 148.00 180.71 144.76 182.14 141.88 C 184.59 145.72 187.50 149.27 191.22 151.95 C 193.66 149.62 193.78 146.12 195.21 143.25 C 197.51 140.57 201.09 139.40 204.40 138.50 C 213.20 136.67 222.04 139.59 230.13 142.88 C 234.60 144.77 239.55 144.57 244.25 143.83 C 241.40 140.63 238.20 137.61 236.36 133.67 C 235.05 130.83 233.45 127.62 234.60 124.45 Z" fill="#13293a" opacity="1.00" stroke="#13293a" stroke-width="0.25" data-index="9"></path>
<path d="M 247.89 132.05 C 258.16 133.73 268.79 132.14 278.35 128.12 C 279.18 130.25 280.00 132.38 280.95 134.45 C 279.08 132.79 277.05 129.61 274.16 131.10 C 262.99 135.13 250.55 135.26 239.32 131.34 C 239.01 131.79 238.38 132.70 238.07 133.16 C 237.30 131.59 236.71 129.94 236.10 128.32 C 240.00 129.64 243.83 131.26 247.89 132.05 Z" fill="#d5b5a9" opacity="1.00" stroke="#d5b5a9" stroke-width="0.25" data-index="10"></path>
<path d="M 239.32 131.34 C 250.55 135.26 262.99 135.13 274.16 131.10 C 277.05 129.61 279.08 132.79 280.95 134.45 C 285.68 143.13 295.88 148.23 305.66 146.33 C 305.47 141.89 301.30 139.42 299.18 135.93 C 299.51 134.28 300.67 133.09 301.81 131.95 C 304.32 133.89 306.81 135.89 309.53 137.54 C 311.89 140.51 313.87 143.74 315.96 146.91 C 317.89 151.57 323.01 152.85 326.58 155.81 C 326.01 160.51 325.42 165.22 325.46 169.97 C 325.47 170.18 325.47 170.60 325.47 170.82 C 325.72 177.80 324.30 184.70 324.02 191.66 C 323.73 192.73 323.44 193.80 323.35 194.90 C 322.53 208.08 320.77 221.18 319.91 234.35 C 319.74 235.48 319.57 236.61 319.40 237.74 C 316.63 253.31 305.16 266.38 290.93 272.79 C 274.00 280.38 254.59 281.48 236.60 277.44 C 224.69 274.85 213.11 269.25 204.92 260.06 C 199.34 254.19 195.80 246.68 193.64 238.95 C 190.58 219.35 189.09 199.54 186.70 179.86 C 185.71 168.82 184.48 157.80 183.18 146.80 C 185.83 149.82 188.75 153.92 193.39 152.69 C 196.09 149.57 195.01 144.06 199.26 142.33 C 204.42 139.77 210.46 139.19 216.09 140.32 C 224.25 141.59 231.52 146.96 240.01 146.34 C 242.16 146.02 245.14 145.64 245.96 143.23 C 243.64 139.67 240.05 137.01 238.07 133.16 C 238.38 132.70 239.01 131.79 239.32 131.34 Z" fill="#febc9c" opacity="1.00" stroke="#febc9c" stroke-width="0.25" data-index="11"></path>
<path d="M 298.55 131.65 C 303.14 131.20 307.02 133.90 309.53 137.54 C 306.81 135.89 304.32 133.89 301.81 131.95 C 300.67 133.09 299.51 134.28 299.18 135.93 C 298.84 134.52 298.69 133.08 298.55 131.65 Z" fill="#ffffff" opacity="1.00" stroke="#ffffff" stroke-width="0.25" data-index="12"></path>
<path d="M 315.96 146.91 C 318.81 150.49 322.75 153.31 327.42 153.75 C 326.68 158.83 326.40 163.95 326.12 169.07 L 326.00 169.90 C 325.87 170.13 325.61 170.59 325.47 170.82 C 325.47 170.60 325.47 170.18 325.46 169.97 C 325.42 165.22 326.01 160.51 326.58 155.81 C 323.01 152.85 317.89 151.57 315.96 146.91 Z" fill="#ffffff" opacity="1.00" stroke="#ffffff" stroke-width="0.25" data-index="13"></path>
<path d="M 98.12 149.58 C 101.55 148.94 104.30 151.65 107.24 152.93 C 112.23 156.01 117.67 158.26 122.67 161.31 C 124.25 161.88 123.43 163.51 123.28 164.67 C 115.55 161.34 108.40 156.84 100.94 152.97 C 99.44 152.36 98.42 151.20 98.12 149.58 Z" fill="#7fd0e0" opacity="1.00" stroke="#7fd0e0" stroke-width="0.25" data-index="14"></path>
<path d="M 275.84 156.20 C 280.43 155.36 285.21 155.57 289.83 155.96 C 295.65 157.32 302.03 157.37 307.11 160.89 C 297.08 157.48 286.43 155.90 275.84 156.20 Z" fill="#ffffff" opacity="1.00" stroke="#ffffff" stroke-width="0.25" data-index="15"></path>
<path d="M 202.62 159.48 C 211.56 157.25 220.72 155.45 229.97 155.69 C 232.57 155.72 235.63 156.63 236.78 159.20 C 238.11 161.53 237.23 164.20 236.53 166.57 C 236.05 166.75 235.09 167.11 234.61 167.30 C 221.62 167.24 208.64 168.22 195.83 170.43 C 195.30 170.19 194.23 169.72 193.70 169.48 C 192.26 167.86 191.66 165.09 193.40 163.46 C 195.94 161.17 199.43 160.44 202.62 159.48 Z" fill="#382828" opacity="1.00" stroke="#382828" stroke-width="0.25" data-index="16"></path>
<path d="M 271.37 165.68 C 270.47 161.99 271.53 157.02 275.84 156.20 C 286.43 155.90 297.08 157.48 307.11 160.89 C 309.90 162.00 312.80 163.02 315.26 164.81 C 317.25 166.00 316.85 168.98 315.46 170.48 C 313.67 171.08 311.75 170.63 309.95 170.41 C 303.87 169.29 297.74 168.53 291.57 168.15 C 285.77 167.48 279.92 167.90 274.11 167.62 C 272.88 167.62 272.24 166.35 271.37 165.68 Z" fill="#22272d" opacity="1.00" stroke="#22272d" stroke-width="0.25" data-index="17"></path>
<path d="M 195.96 163.99 C 206.35 159.51 217.75 157.87 229.00 157.57 C 231.00 157.56 233.15 157.90 234.68 159.31 C 235.97 160.93 235.06 163.05 235.01 164.90 C 225.73 166.39 216.25 164.91 206.99 166.58 C 203.08 166.89 199.13 168.49 195.22 167.73 C 193.19 167.05 194.33 164.42 195.96 163.99 Z" fill="#5d403e" opacity="1.00" stroke="#5d403e" stroke-width="0.25" data-index="18"></path>
<path d="M 275.25 158.38 C 280.10 157.37 285.09 158.35 289.94 159.00 C 297.76 160.05 305.44 162.24 312.63 165.47 C 313.82 165.95 315.94 167.89 313.87 168.70 C 301.27 167.29 288.65 165.44 275.92 165.84 C 271.58 166.54 271.88 159.38 275.25 158.38 Z" fill="#5c413d" opacity="1.00" stroke="#5c413d" stroke-width="0.25" data-index="19"></path>
<path d="M 59.87 167.05 C 60.39 166.74 61.43 166.12 61.96 165.81 C 80.73 170.90 99.18 177.19 117.88 182.55 C 117.77 183.65 117.85 185.48 116.11 184.86 C 110.23 183.92 104.69 181.51 98.94 180.01 C 89.73 176.77 80.22 174.54 70.99 171.39 C 67.25 170.03 63.16 169.42 59.87 167.05 Z" fill="#7ed3e6" opacity="1.00" stroke="#7ed3e6" stroke-width="0.25" data-index="20"></path>
<path d="M 271.37 165.68 C 272.24 166.35 272.88 167.62 274.11 167.62 C 279.92 167.90 285.77 167.48 291.57 168.15 C 285.94 170.11 279.87 168.73 274.04 168.89 C 272.16 169.32 270.25 167.62 271.37 165.68 Z" fill="#e9bfb2" opacity="1.00" stroke="#e9bfb2" stroke-width="0.25" data-index="21"></path>
<path d="M 166.39 167.76 C 167.36 168.44 169.09 168.45 169.38 169.83 C 168.74 178.06 163.54 184.76 159.81 191.80 C 156.13 200.11 149.00 206.43 145.99 215.09 C 147.26 214.78 148.36 214.08 148.90 212.86 C 151.86 207.67 154.97 202.51 159.07 198.13 C 166.50 190.41 173.78 182.54 180.57 174.24 C 181.81 173.46 183.50 173.28 184.03 174.99 C 185.42 182.34 179.88 188.39 175.14 193.23 C 168.71 199.42 164.27 207.25 159.79 214.88 C 158.68 216.77 157.38 218.71 157.60 221.04 C 162.36 216.17 164.19 208.97 169.71 204.68 C 173.77 201.73 178.01 199.03 181.89 195.83 C 183.15 194.57 184.93 194.48 186.60 194.41 C 185.77 201.24 179.51 205.40 174.63 209.43 C 172.32 216.07 169.10 222.80 169.56 230.02 C 169.62 232.56 169.81 235.12 170.29 237.62 C 171.65 246.14 174.61 254.30 176.10 262.80 C 175.70 266.22 174.77 269.54 173.41 272.71 C 174.08 273.60 174.75 274.49 175.43 275.39 C 172.52 292.53 168.88 309.56 166.08 326.73 C 152.35 321.41 139.04 315.01 125.52 309.18 C 130.76 298.95 136.19 288.82 141.25 278.50 C 142.93 274.88 145.01 271.11 144.49 266.97 C 143.19 250.27 141.87 233.56 140.44 216.87 C 139.76 212.20 142.00 207.88 143.79 203.73 C 148.12 194.39 153.01 185.21 159.70 177.31 C 162.31 174.41 164.48 171.15 166.39 167.76 Z" fill="#febc9c" opacity="1.00" stroke="#febc9c" stroke-width="0.25" data-index="22"></path>
<path d="M 195.83 170.43 C 208.64 168.22 221.62 167.24 234.61 167.30 L 234.65 168.31 C 228.41 168.26 222.17 168.24 215.94 168.38 C 208.93 168.58 202.10 170.97 195.05 170.41 C 194.71 170.18 194.04 169.71 193.70 169.48 C 194.23 169.72 195.30 170.19 195.83 170.43 Z" fill="#ffffff" opacity="1.00" stroke="#ffffff" stroke-width="0.25" data-index="23"></path>
<path d="M 432.16 172.06 C 434.24 171.70 438.98 170.32 437.32 174.15 C 423.22 176.74 409.00 178.56 394.84 180.79 C 390.83 181.24 386.81 182.74 382.77 182.21 L 382.25 181.00 L 382.95 180.02 C 389.48 178.09 396.38 177.96 403.03 176.54 C 412.76 175.18 422.45 173.56 432.16 172.06 Z" fill="#7ed3e7" opacity="1.00" stroke="#7ed3e7" stroke-width="0.25" data-index="24"></path>
<path d="M 184.03 174.99 C 184.72 176.72 185.29 178.54 186.70 179.86 C 189.09 199.54 190.58 219.35 193.64 238.95 C 193.26 239.86 192.91 240.78 192.58 241.71 L 191.72 239.71 C 190.92 241.21 190.31 242.79 189.90 244.43 C 189.53 243.00 189.10 241.59 188.68 240.17 C 184.36 239.53 179.99 239.71 175.65 240.03 C 174.77 239.81 173.01 239.36 172.13 239.14 C 172.31 239.87 172.67 241.33 172.85 242.07 C 172.04 240.55 171.13 239.11 170.29 237.62 C 169.81 235.12 169.62 232.56 169.56 230.02 C 169.10 222.80 172.32 216.07 174.63 209.43 C 179.51 205.40 185.77 201.24 186.60 194.41 C 184.93 194.48 183.15 194.57 181.89 195.83 C 178.01 199.03 173.77 201.73 169.71 204.68 C 164.19 208.97 162.36 216.17 157.60 221.04 C 157.38 218.71 158.68 216.77 159.79 214.88 C 164.27 207.25 168.71 199.42 175.14 193.23 C 179.88 188.39 185.42 182.34 184.03 174.99 Z" fill="#062e50" opacity="1.00" stroke="#062e50" stroke-width="0.25" data-index="25"></path>
<path d="M 217.55 176.66 C 222.88 174.58 229.42 179.28 228.71 185.06 C 229.01 188.72 226.14 191.82 222.91 193.06 C 219.16 194.25 214.78 192.38 212.99 188.89 C 210.75 184.48 212.80 178.39 217.55 176.66 Z" fill="#062d4f" opacity="1.00" stroke="#062d4f" stroke-width="0.25" data-index="26"></path>
<path d="M 287.43 176.69 C 292.74 174.61 299.28 179.26 298.70 185.00 C 299.12 191.28 291.05 195.92 285.92 192.08 C 280.14 188.78 280.99 178.74 287.43 176.69 Z" fill="#062d4e" opacity="1.00" stroke="#062d4e" stroke-width="0.25" data-index="27"></path>
<path d="M 157.82 177.53 L 159.70 177.31 C 153.01 185.21 148.12 194.39 143.79 203.73 C 142.00 207.88 139.76 212.20 140.44 216.87 C 141.87 233.56 143.19 250.27 144.49 266.97 C 145.01 271.11 142.93 274.88 141.25 278.50 C 136.19 288.82 130.76 298.95 125.52 309.18 C 139.04 315.01 152.35 321.41 166.08 326.73 C 168.88 309.56 172.52 292.53 175.43 275.39 C 179.24 272.10 182.97 268.34 184.39 263.35 C 186.45 256.07 187.56 248.54 188.58 241.05 C 184.25 241.33 179.85 241.28 175.65 240.03 C 179.99 239.71 184.36 239.53 188.68 240.17 C 189.10 241.59 189.53 243.00 189.90 244.43 C 188.38 253.31 187.87 262.94 182.62 270.59 C 181.10 273.10 178.16 274.47 176.77 277.00 C 174.95 289.65 172.52 302.23 169.86 314.73 C 168.73 316.86 168.31 319.18 169.62 321.36 C 169.40 321.48 168.96 321.74 168.74 321.86 C 168.22 323.72 167.81 325.60 167.25 327.45 C 167.11 327.86 166.83 328.69 166.69 329.10 C 150.96 322.52 135.48 315.36 119.82 308.58 C 119.18 310.10 118.54 311.62 117.96 313.17 C 117.69 312.58 117.15 311.40 116.88 310.81 C 117.56 309.55 118.24 308.31 118.90 307.06 C 120.64 307.41 122.35 307.87 124.05 308.39 C 129.94 296.47 136.48 284.88 141.89 272.73 C 142.99 270.69 142.80 268.31 142.67 266.08 C 141.28 249.71 140.14 233.33 138.65 216.97 C 137.88 211.75 140.53 207.00 142.56 202.40 C 146.09 194.34 150.42 186.61 155.66 179.53 C 156.35 178.89 156.77 177.61 157.82 177.53 Z" fill="#151f27" opacity="1.00" stroke="#151f27" stroke-width="0.25" data-index="28"></path>
<path d="M 167.88 180.81 C 168.23 182.31 168.76 183.90 168.23 185.43 C 166.03 188.12 163.70 190.72 161.21 193.14 C 163.06 188.83 166.06 185.14 167.88 180.81 Z" fill="#82e8ff" opacity="1.00" stroke="#82e8ff" stroke-width="0.25" data-index="29"></path>
<path d="M 215.18 187.46 C 215.81 187.45 217.07 187.44 217.70 187.43 C 217.89 187.81 218.25 188.57 218.43 188.95 C 218.06 189.37 217.32 190.23 216.95 190.65 C 215.70 189.97 215.21 188.82 215.18 187.46 Z" fill="#f8ffff" opacity="1.00" stroke="#f8ffff" stroke-width="0.25" data-index="30"></path>
<path d="M 285.45 187.33 C 286.05 187.33 287.25 187.35 287.85 187.36 C 289.34 188.80 287.00 190.15 285.64 189.43 C 285.59 188.90 285.50 187.85 285.45 187.33 Z" fill="#f8ffff" opacity="1.00" stroke="#f8ffff" stroke-width="0.25" data-index="31"></path>
<path d="M 256.68 189.25 C 257.62 189.22 258.48 189.45 259.23 189.92 C 261.20 197.23 264.90 204.64 263.40 212.36 C 261.35 214.96 257.92 215.90 255.02 217.24 C 251.52 218.47 247.11 219.73 243.84 217.35 C 242.07 213.84 244.84 210.54 246.44 207.59 C 249.72 201.41 253.54 195.51 256.68 189.25 Z" fill="#1a1a1d" opacity="1.00" stroke="#1a1a1d" stroke-width="0.25" data-index="32"></path>
<path d="M 259.23 189.92 C 260.43 190.46 260.55 191.82 260.96 192.90 C 262.49 198.51 264.20 204.09 265.25 209.82 C 264.79 212.31 262.96 214.34 260.74 215.47 C 256.11 218.40 250.53 219.75 245.07 219.27 C 244.76 218.79 244.15 217.83 243.84 217.35 C 247.11 219.73 251.52 218.47 255.02 217.24 C 257.92 215.90 261.35 214.96 263.40 212.36 C 264.90 204.64 261.20 197.23 259.23 189.92 Z" fill="#ffffff" opacity="1.00" stroke="#ffffff" stroke-width="0.25" data-index="33"></path>
<path d="M 254.25 197.22 C 255.35 195.29 256.15 193.11 257.93 191.68 C 259.39 198.35 262.98 204.93 261.52 211.93 C 256.72 214.15 251.71 217.75 246.17 216.49 C 245.74 216.15 244.87 215.48 244.44 215.14 C 247.20 208.89 250.95 203.17 254.25 197.22 Z" fill="#d38e7d" opacity="1.00" stroke="#d38e7d" stroke-width="0.25" data-index="34"></path>
<path d="M 323.35 194.90 C 323.44 193.80 323.73 192.73 324.02 191.66 C 324.21 201.13 323.05 210.59 322.31 220.02 C 322.42 224.89 321.96 229.86 319.91 234.35 C 320.77 221.18 322.53 208.08 323.35 194.90 Z" fill="#5c413d" opacity="1.00" stroke="#5c413d" stroke-width="0.25" data-index="35"></path>
<path d="M 200.33 202.54 C 205.29 201.08 210.66 201.29 215.67 202.46 C 218.28 203.20 222.13 205.09 220.45 208.42 C 217.53 212.00 212.22 211.80 208.02 212.23 C 203.63 211.99 197.95 211.90 195.32 207.75 C 194.17 204.54 198.03 203.35 200.33 202.54 Z" fill="#ff805f" opacity="1.00" stroke="#ff805f" stroke-width="0.25" data-index="36"></path>
<path d="M 295.51 202.38 C 301.13 201.02 307.33 201.08 312.68 203.43 C 314.27 204.06 314.99 205.71 315.91 207.03 C 310.96 213.33 301.88 212.73 294.85 211.19 C 292.72 210.37 289.58 209.60 289.14 207.00 C 289.92 204.21 293.07 203.22 295.51 202.38 Z" fill="#ff7f5f" opacity="1.00" stroke="#ff7f5f" stroke-width="0.25" data-index="37"></path>
<path d="M 90.01 213.85 C 95.92 212.84 101.78 211.30 107.82 211.31 C 107.77 211.91 107.66 213.10 107.61 213.70 C 90.37 217.18 72.91 219.49 55.60 222.62 C 55.46 221.60 55.33 220.58 55.20 219.57 C 66.83 217.86 78.37 215.55 90.01 213.85 Z" fill="#7dd4e6" opacity="1.00" stroke="#7dd4e6" stroke-width="0.25" data-index="38"></path>
<path d="M 383.44 215.66 C 385.65 215.62 387.87 215.68 390.06 216.03 C 404.34 218.20 418.72 219.57 433.03 221.48 C 436.75 222.02 440.82 221.77 444.08 223.97 C 442.95 225.14 441.61 225.60 440.06 225.33 C 422.03 223.03 403.98 220.93 385.96 218.57 C 384.13 218.84 383.63 217.10 383.44 215.66 Z" fill="#79d3e7" opacity="1.00" stroke="#79d3e7" stroke-width="0.25" data-index="39"></path>
<path d="M 171.69 235.06 C 171.44 230.04 170.53 224.51 173.17 219.95 C 173.49 225.98 174.60 231.94 174.79 237.98 C 173.49 237.43 171.57 236.85 171.69 235.06 Z" fill="#82e8ff" opacity="1.00" stroke="#82e8ff" stroke-width="0.25" data-index="40"></path>
<path d="M 229.85 227.19 C 230.15 227.04 230.74 226.76 231.04 226.61 C 235.81 227.05 240.18 229.76 245.04 229.70 C 248.79 229.45 252.32 231.13 256.07 230.78 C 259.44 231.05 262.69 230.10 266.00 229.77 C 271.57 230.10 276.54 226.82 282.16 227.41 C 270.73 230.27 258.81 232.68 247.00 230.71 C 241.12 230.41 235.62 228.10 229.85 227.19 Z" fill="#ffffff" opacity="1.00" stroke="#ffffff" stroke-width="0.25" data-index="41"></path>
<path d="M 228.58 227.38 C 228.89 227.33 229.53 227.24 229.85 227.19 C 235.62 228.10 241.12 230.41 247.00 230.71 C 258.81 232.68 270.73 230.27 282.16 227.41 C 282.65 227.48 283.62 227.62 284.11 227.69 C 282.74 231.66 281.75 235.82 279.37 239.35 C 272.45 250.76 256.49 255.19 244.61 249.22 C 239.32 246.37 234.74 242.15 231.82 236.86 C 231.29 235.64 230.73 234.43 230.16 233.23 C 229.49 231.32 229.06 229.34 228.58 227.38 Z" fill="#151f27" opacity="1.00" stroke="#151f27" stroke-width="0.25" data-index="42"></path>
<path d="M 284.11 227.69 L 284.38 227.00 C 284.29 236.29 278.02 244.44 270.35 249.13 C 264.04 252.24 256.85 253.20 249.93 252.04 C 247.96 251.54 245.99 250.77 244.61 249.22 C 256.49 255.19 272.45 250.76 279.37 239.35 C 281.75 235.82 282.74 231.66 284.11 227.69 Z" fill="#ffffff" opacity="1.00" stroke="#ffffff" stroke-width="0.25" data-index="43"></path>
<path d="M 230.82 229.22 C 247.10 234.51 265.03 234.63 281.32 229.31 C 279.97 237.34 274.33 244.37 266.93 247.68 C 258.67 251.64 248.37 250.40 241.09 244.91 C 235.85 241.14 232.52 235.36 230.82 229.22 Z" fill="#ffffff" opacity="1.00" stroke="#ffffff" stroke-width="0.25" data-index="44"></path>
<path d="M 230.16 233.23 C 230.73 234.43 231.29 235.64 231.82 236.86 C 229.81 237.93 228.41 234.29 230.16 233.23 Z" fill="#ffffff" opacity="1.00" stroke="#ffffff" stroke-width="0.25" data-index="45"></path>
<path d="M 108.33 235.38 C 110.03 234.49 111.73 236.85 109.76 237.75 C 100.57 243.01 91.27 248.09 81.89 253.01 C 78.64 254.76 75.66 257.11 72.07 258.14 C 71.53 257.88 70.45 257.36 69.91 257.09 C 72.53 254.08 76.37 252.72 79.75 250.80 C 84.16 248.51 88.37 245.86 92.87 243.74 C 98.16 241.21 102.94 237.69 108.33 235.38 Z" fill="#7ad2e4" opacity="1.00" stroke="#7ad2e4" stroke-width="0.25" data-index="46"></path>
<path d="M 170.29 237.62 C 171.13 239.11 172.04 240.55 172.85 242.07 C 174.13 248.90 177.91 255.73 176.10 262.80 C 174.61 254.30 171.65 246.14 170.29 237.62 Z" fill="#151f27" opacity="1.00" stroke="#151f27" stroke-width="0.25" data-index="47"></path>
<path d="M 290.93 272.79 C 305.16 266.38 316.63 253.31 319.40 237.74 C 319.75 238.39 320.44 239.68 320.79 240.32 C 316.51 258.02 301.86 271.89 284.67 277.08 C 284.42 286.33 284.64 295.58 284.57 304.82 C 297.40 305.58 310.23 306.64 322.90 308.89 C 320.97 308.57 319.06 308.91 317.27 309.62 C 315.12 309.37 312.97 309.23 310.82 309.08 C 310.48 313.47 308.74 317.63 305.96 321.03 C 297.90 331.23 285.94 337.86 273.41 340.86 C 273.05 340.49 272.32 339.76 271.95 339.39 C 285.00 336.52 297.88 329.67 305.59 318.50 C 307.49 315.57 308.58 312.21 308.80 308.73 C 305.84 308.55 302.90 308.27 299.97 307.89 C 294.17 307.17 288.28 307.66 282.52 306.52 C 282.87 297.07 282.32 287.62 282.53 278.18 C 277.90 279.22 273.32 280.54 268.65 281.38 C 256.24 282.10 243.58 282.15 231.63 278.31 C 231.73 288.00 231.69 297.69 231.60 307.38 C 225.09 307.21 218.70 308.61 212.20 308.74 C 212.26 312.10 213.02 315.40 214.73 318.31 C 215.16 319.18 215.60 320.06 216.04 320.94 C 211.16 319.74 210.90 313.20 210.15 309.06 C 208.86 309.20 207.58 309.36 206.30 309.53 C 205.97 309.13 205.31 308.32 204.99 307.92 C 213.14 306.81 221.33 305.80 229.56 305.51 C 229.92 296.18 229.71 286.84 229.68 277.51 C 217.24 273.43 205.39 265.94 198.52 254.52 C 195.90 250.58 194.13 246.16 192.58 241.71 C 192.91 240.78 193.26 239.86 193.64 238.95 C 195.80 246.68 199.34 254.19 204.92 260.06 C 213.11 269.25 224.69 274.85 236.60 277.44 C 254.59 281.48 274.00 280.38 290.93 272.79 Z" fill="#191f2c" opacity="1.00" stroke="#191f2c" stroke-width="0.25" data-index="48"></path>
<path d="M 375.20 238.34 C 377.59 238.43 379.42 240.28 381.50 241.27 C 389.14 245.20 396.34 249.89 403.80 254.12 C 405.83 255.30 408.07 256.23 409.72 257.96 C 409.27 260.42 406.73 259.49 405.41 258.48 C 395.53 252.72 385.69 246.88 375.77 241.19 C 374.56 240.92 373.32 238.21 375.20 238.34 Z" fill="#78d0e4" opacity="1.00" stroke="#78d0e4" stroke-width="0.25" data-index="49"></path>
<path d="M 172.13 239.14 C 173.01 239.36 174.77 239.81 175.65 240.03 C 179.85 241.28 184.25 241.33 188.58 241.05 C 187.56 248.54 186.45 256.07 184.39 263.35 C 182.97 268.34 179.24 272.10 175.43 275.39 C 174.75 274.49 174.08 273.60 173.41 272.71 C 174.77 269.54 175.70 266.22 176.10 262.80 C 177.91 255.73 174.13 248.90 172.85 242.07 C 172.67 241.33 172.31 239.87 172.13 239.14 Z" fill="#d38f80" opacity="1.00" stroke="#d38f80" stroke-width="0.25" data-index="50"></path>

<path d="M 363.24 259.35 L 363.82 259.30 C 369.81 266.61 375.06 274.54 381.12 281.80 C 386.89 289.60 393.20 297.01 398.65 305.04 C 398.42 307.89 395.79 306.53 394.98 304.94 C 384.26 291.04 373.86 276.90 362.96 263.14 C 361.78 262.04 360.63 259.32 363.24 259.35 Z" fill="#7cd1df" opacity="1.00" stroke="#7cd1df" stroke-width="0.25" data-index="52"></path>
<path d="M 268.65 281.38 C 273.32 280.54 277.90 279.22 282.53 278.18 C 282.32 287.62 282.87 297.07 282.52 306.52 C 288.28 307.66 294.17 307.17 299.97 307.89 C 302.90 308.27 305.84 308.55 308.80 308.73 C 308.58 312.21 307.49 315.57 305.59 318.50 C 306.53 315.57 307.12 312.56 307.94 309.61 C 304.33 309.09 300.73 308.41 297.08 308.31 C 291.95 308.09 286.64 309.02 281.71 307.14 C 281.70 302.07 281.70 297.00 281.77 291.94 C 281.86 287.63 281.92 283.32 281.83 279.02 C 275.79 279.55 270.20 282.67 264.05 282.16 C 259.01 281.97 253.98 282.23 248.95 282.13 C 243.26 281.73 237.71 280.28 232.18 278.99 C 232.14 286.03 232.04 293.09 232.24 300.14 C 232.30 302.84 232.29 305.54 232.26 308.25 C 225.87 307.97 219.55 308.99 213.21 309.61 C 213.60 312.52 214.00 315.45 214.73 318.31 C 213.02 315.40 212.26 312.10 212.20 308.74 C 218.70 308.61 225.09 307.21 231.60 307.38 C 231.69 297.69 231.73 288.00 231.63 278.31 C 243.58 282.15 256.24 282.10 268.65 281.38 Z" fill="#ffffff" opacity="1.00" stroke="#ffffff" stroke-width="0.25" data-index="53"></path>
<path d="M 232.18 278.99 C 237.71 280.28 243.26 281.73 248.95 282.13 C 253.98 282.23 259.01 281.97 264.05 282.16 C 270.20 282.67 275.79 279.55 281.83 279.02 C 281.92 283.32 281.86 287.63 281.77 291.94 C 276.09 294.68 270.54 297.89 264.33 299.29 C 253.85 302.08 242.89 301.55 232.24 300.14 C 232.04 293.09 232.14 286.03 232.18 278.99 Z" fill="#d79280" opacity="1.00" stroke="#d79280" stroke-width="0.25" data-index="54"></path>
<path d="M 264.33 299.29 C 270.54 297.89 276.09 294.68 281.77 291.94 C 281.70 297.00 281.70 302.07 281.71 307.14 C 286.64 309.02 291.95 308.09 297.08 308.31 C 300.73 308.41 304.33 309.09 307.94 309.61 C 307.12 312.56 306.53 315.57 305.59 318.50 C 297.88 329.67 285.00 336.52 271.95 339.39 C 257.85 342.18 242.70 340.06 230.19 332.87 C 225.54 330.10 220.98 326.88 217.82 322.40 L 218.18 322.03 C 217.64 321.76 216.57 321.21 216.04 320.94 C 215.60 320.06 215.16 319.18 214.73 318.31 C 214.00 315.45 213.60 312.52 213.21 309.61 C 219.55 308.99 225.87 307.97 232.26 308.25 C 232.29 305.54 232.30 302.84 232.24 300.14 C 242.89 301.55 253.85 302.08 264.33 299.29 Z" fill="#febc9c" opacity="1.00" stroke="#febc9c" stroke-width="0.25" data-index="55"></path>
<path d="M 169.23 319.76 C 180.28 313.65 192.57 310.01 204.99 307.92 C 205.31 308.32 205.97 309.13 206.30 309.53 C 193.51 311.42 181.14 315.53 169.62 321.36 C 168.31 319.18 168.73 316.86 169.86 314.73 C 169.63 316.40 169.42 318.08 169.23 319.76 Z" fill="#002845" opacity="1.00" stroke="#002845" stroke-width="0.25" data-index="56" style="opacity: 1;"></path>
<path d="M 117.96 313.17 C 118.54 311.62 119.18 310.10 119.82 308.58 C 135.48 315.36 150.96 322.52 166.69 329.10 C 168.60 329.93 170.47 330.84 172.34 331.75 C 167.74 353.61 162.76 375.39 157.94 397.20 C 154.12 412.74 151.10 428.48 147.11 443.98 C 146.36 445.08 147.60 448.09 148.48 445.99 C 152.77 429.75 156.01 413.24 159.89 396.90 C 164.70 375.60 169.43 354.29 174.03 332.95 C 174.83 329.14 169.58 328.99 167.25 327.45 C 167.81 325.60 168.22 323.72 168.74 321.86 C 168.96 321.74 169.40 321.48 169.62 321.36 C 181.14 315.53 193.51 311.42 206.30 309.53 C 207.58 309.36 208.86 309.20 210.15 309.06 C 210.90 313.20 211.16 319.74 216.04 320.94 C 216.57 321.21 217.64 321.76 218.18 322.03 L 217.82 322.40 C 216.95 322.47 216.08 322.51 215.22 322.60 C 229.06 339.16 252.69 345.68 273.41 340.86 C 285.94 337.86 297.90 331.23 305.96 321.03 C 308.74 317.63 310.48 313.47 310.82 309.08 C 312.97 309.23 315.12 309.37 317.27 309.62 C 333.85 312.26 350.21 318.74 362.45 330.52 C 375.39 342.86 382.72 359.64 389.07 376.05 C 396.47 395.78 401.30 416.33 405.78 436.88 C 389.78 436.92 373.78 436.95 357.79 436.89 C 356.52 413.84 354.73 390.83 353.19 367.80 C 352.37 361.14 352.86 354.35 351.33 347.79 C 350.36 349.01 350.09 350.55 350.28 352.08 C 352.03 380.37 354.42 408.63 355.76 436.94 C 306.16 436.95 256.56 436.95 206.96 436.93 C 193.54 437.00 180.12 436.75 166.70 437.10 C 168.14 420.11 168.82 403.07 170.28 386.09 C 170.43 379.51 171.54 372.97 171.30 366.39 C 170.92 366.69 170.16 367.30 169.78 367.61 C 168.40 380.04 168.33 392.63 166.91 405.07 C 164.20 419.28 158.68 432.76 153.02 446.02 C 149.86 453.51 145.57 460.98 138.63 465.56 C 130.10 471.22 119.51 474.04 109.31 472.38 C 99.39 470.03 89.93 464.10 84.93 455.02 C 79.22 445.58 77.81 433.74 80.88 423.17 C 84.16 411.72 88.24 400.53 92.02 389.24 C 100.62 363.87 109.27 338.51 117.96 313.17 Z" fill="#72e1fd" opacity="1.00" stroke="#72e1fd" stroke-width="0.25" data-index="57" style="opacity: 1;"></path>
<path d="M 317.27 309.62 C 319.06 308.91 320.97 308.57 322.90 308.89 C 343.03 312.50 361.74 323.87 373.56 340.65 C 383.18 354.82 389.40 370.95 394.89 387.08 C 400.00 403.41 404.26 420.01 407.54 436.81 C 415.80 437.15 424.08 436.59 432.34 437.11 C 432.18 437.50 431.86 438.29 431.70 438.69 C 340.48 438.93 249.25 438.70 158.03 438.80 C 155.89 444.53 153.38 450.14 150.35 455.46 C 141.64 470.28 122.35 477.94 105.86 473.17 L 106.57 473.00 C 107.48 472.78 108.39 472.58 109.31 472.38 C 119.51 474.04 130.10 471.22 138.63 465.56 C 145.57 460.98 149.86 453.51 153.02 446.02 C 158.68 432.76 164.20 419.28 166.91 405.07 C 168.33 392.63 168.40 380.04 169.78 367.61 C 170.16 367.30 170.92 366.69 171.30 366.39 C 171.54 372.97 170.43 379.51 170.28 386.09 C 168.82 403.07 168.14 420.11 166.70 437.10 C 180.12 436.75 193.54 437.00 206.96 436.93 C 256.56 436.95 306.16 436.95 355.76 436.94 C 354.42 408.63 352.03 380.37 350.28 352.08 C 350.09 350.55 350.36 349.01 351.33 347.79 C 352.86 354.35 352.37 361.14 353.19 367.80 C 354.73 390.83 356.52 413.84 357.79 436.89 C 373.78 436.95 389.78 436.92 405.78 436.88 C 401.30 416.33 396.47 395.78 389.07 376.05 C 382.72 359.64 375.39 342.86 362.45 330.52 C 350.21 318.74 333.85 312.26 317.27 309.62 Z" fill="#002c4c" opacity="1.00" stroke="#002c4c" stroke-width="0.25" data-index="58" style="opacity: 1;"></path>
<path d="M 82.58 411.43 C 93.99 377.88 105.36 344.32 116.88 310.81 C 117.15 311.40 117.69 312.58 117.96 313.17 C 109.27 338.51 100.62 363.87 92.02 389.24 C 88.24 400.53 84.16 411.72 80.88 423.17 C 77.81 433.74 79.22 445.58 84.93 455.02 C 89.93 464.10 99.39 470.03 109.31 472.38 C 108.39 472.58 107.48 472.78 106.57 473.00 C 98.57 471.83 91.72 466.49 86.56 460.50 C 81.25 454.39 79.06 446.42 77.49 438.66 C 71.99 438.83 66.48 438.72 60.98 438.75 C 61.21 438.30 61.67 437.39 61.89 436.94 C 67.10 436.84 72.30 436.90 77.51 436.94 C 76.94 428.11 80.09 419.73 82.58 411.43 Z" fill="#002845" opacity="1.00" stroke="#002845" stroke-width="0.25" data-index="59"></path>
<path d="M 215.22 322.60 C 216.08 322.51 216.95 322.47 217.82 322.40 C 220.98 326.88 225.54 330.10 230.19 332.87 C 242.70 340.06 257.85 342.18 271.95 339.39 C 272.32 339.76 273.05 340.49 273.41 340.86 C 252.69 345.68 229.06 339.16 215.22 322.60 Z" fill="#002845" opacity="1.00" stroke="#002845" stroke-width="0.25" data-index="60"></path>
<path d="M 166.69 329.10 C 166.83 328.69 167.11 327.86 167.25 327.45 C 169.58 328.99 174.83 329.14 174.03 332.95 C 169.43 354.29 164.70 375.60 159.89 396.90 C 156.01 413.24 152.77 429.75 148.48 445.99 C 147.60 448.09 146.36 445.08 147.11 443.98 C 151.10 428.48 154.12 412.74 157.94 397.20 C 162.76 375.39 167.74 353.61 172.34 331.75 C 170.47 330.84 168.60 329.93 166.69 329.10 Z" fill="#003159" opacity="1.00" stroke="#003159" stroke-width="0.25" data-index="61"></path>
<path d="M 159.01 437.25 C 160.95 430.58 164.02 424.30 165.66 417.52 C 166.09 423.96 165.40 430.42 164.87 436.84 L 164.16 436.86 C 162.87 436.87 161.60 436.95 160.33 437.11 L 159.01 437.25 Z" fill="#f8ffff" opacity="1.00" stroke="#f8ffff" stroke-width="0.25" data-index="62"></path>
<path d="M 437.74 436.82 C 438.84 436.83 439.95 436.84 441.07 436.85 C 441.20 437.31 441.47 438.23 441.60 438.68 C 440.15 438.74 438.70 438.80 437.25 438.85 C 437.38 438.34 437.62 437.33 437.74 436.82 Z" fill="#22272d" opacity="1.00" stroke="#22272d" stroke-width="0.25" data-index="63"></path>
<path d="M 160.33 437.11 C 161.60 436.95 162.87 436.87 164.16 436.86 C 164.50 437.00 165.20 437.27 165.55 437.41 C 164.78 438.84 160.90 438.82 160.33 437.11 Z" fill="#1b2f40" opacity="1.00" stroke="#1b2f40" stroke-width="0.25" data-index="64"></path>
</svg>