<svg xmlns="http://www.w3.org/2000/svg" height="512pt" version="1.1" viewBox="0 0 512 512" width="512pt">

<path d="M 262.60 111.69 C 264.04 104.39 269.71 98.41 277.08 96.99 C 283.97 94.88 290.42 98.69 296.95 100.25 C 307.60 102.06 318.82 98.84 329.16 102.76 C 334.53 104.59 338.40 109.08 341.22 113.80 C 343.53 117.70 344.60 122.20 347.03 126.04 C 349.09 129.35 351.89 132.19 355.16 134.32 C 353.23 139.68 347.94 142.62 343.23 145.23 C 344.52 153.24 342.98 161.28 341.05 169.04 C 343.40 171.85 345.39 175.19 345.40 178.97 C 345.79 185.82 343.72 193.72 337.64 197.65 C 334.34 200.09 330.05 199.82 326.18 200.24 C 325.45 202.02 324.24 203.71 324.17 205.69 C 333.39 213.45 342.26 221.67 350.25 230.71 C 362.84 244.94 372.92 261.16 382.01 277.78 C 387.66 289.13 393.84 300.54 396.00 313.17 C 397.46 323.86 395.58 335.33 389.35 344.30 C 379.39 358.75 361.19 367.65 343.63 365.29 C 340.04 365.04 336.57 366.37 332.99 366.38 C 328.57 366.68 324.24 365.55 319.93 364.76 C 319.93 366.45 319.87 368.17 320.10 369.86 C 321.74 372.22 324.12 373.99 325.73 376.41 C 328.82 380.92 332.00 385.38 335.10 389.90 C 336.29 391.95 338.05 394.30 337.19 396.81 C 335.37 400.52 330.81 401.49 327.04 401.54 C 266.68 401.40 206.31 401.29 145.95 401.16 C 141.26 400.88 135.22 401.02 132.53 396.37 C 130.73 393.90 132.81 391.24 134.11 389.11 C 136.97 384.97 140.00 380.94 143.17 377.02 C 146.08 374.05 148.69 370.54 152.45 368.60 C 157.38 367.04 162.66 367.85 167.75 367.69 C 168.20 366.49 168.67 365.30 169.10 364.10 C 163.69 362.32 158.38 359.77 154.31 355.70 C 144.81 346.64 136.88 335.07 135.01 321.83 C 133.47 311.08 135.92 300.26 138.92 289.97 C 145.52 269.43 154.73 249.36 168.80 232.81 C 178.33 221.39 188.95 210.59 201.69 202.75 C 214.92 195.14 230.04 190.54 245.34 190.16 C 245.33 187.57 245.21 184.99 244.77 182.44 C 240.04 180.54 235.11 177.28 234.04 171.94 C 232.65 165.45 233.08 157.88 237.51 152.60 C 239.01 150.67 241.38 149.83 243.68 149.28 C 244.41 137.92 245.86 126.00 252.13 116.21 C 254.26 112.56 258.46 110.56 262.60 111.69 Z" fill="#10314f" opacity="1.00" stroke="#10314f" stroke-width="0.25" data-index="1" style="opacity: 1; visibility: visible;"></path>
<path d="M 263.16 139.18 C 265.86 137.34 270.24 135.04 272.83 138.23 C 278.11 143.43 284.51 147.73 291.83 149.37 C 294.47 149.83 297.52 151.10 299.89 149.22 C 298.19 147.08 296.42 144.98 294.90 142.70 C 300.46 145.58 306.07 148.63 312.36 149.57 C 319.70 151.23 327.21 149.99 334.49 148.68 C 334.07 156.75 332.31 164.68 330.77 172.60 C 329.00 181.70 326.58 190.68 323.31 199.36 C 319.96 208.39 313.69 216.44 305.40 221.41 C 297.02 226.77 286.36 229.01 276.69 226.16 C 268.93 224.03 261.85 219.46 257.09 212.92 C 249.43 203.49 247.17 190.84 248.05 178.98 C 248.30 174.74 248.92 170.52 248.98 166.27 C 248.33 166.26 247.03 166.24 246.38 166.23 C 245.86 170.54 245.78 174.90 244.99 179.18 C 240.88 177.69 237.08 174.35 236.47 169.83 C 235.88 164.43 236.05 158.23 240.07 154.08 C 241.60 152.13 244.34 151.84 246.59 152.47 C 248.76 153.41 250.69 154.83 252.93 155.65 C 255.40 149.67 257.50 142.97 263.16 139.18 Z" fill="#fec5aa" opacity="1.00" stroke="#fec5aa" stroke-width="0.25" data-index="2"></path>

<path d="M 260.60 148.59 C 266.09 145.16 273.40 143.97 279.46 146.57 C 281.65 147.44 281.41 150.00 281.02 151.89 C 276.70 152.47 272.31 151.14 268.06 152.34 C 265.48 152.75 262.96 154.23 260.32 153.78 C 257.82 153.02 258.77 149.60 260.60 148.59 Z" fill="#10314f" opacity="1.00" stroke="#10314f" stroke-width="0.25" data-index="4"></path>
<path d="M 306.64 153.72 C 313.62 152.23 321.50 154.48 326.60 159.48 C 328.30 160.76 326.75 162.44 326.21 163.87 C 321.93 163.25 318.17 160.92 313.94 160.13 C 311.08 159.53 308.15 159.48 305.24 159.53 C 303.68 157.53 303.69 154.31 306.64 153.72 Z" fill="#10314f" opacity="1.00" stroke="#10314f" stroke-width="0.25" data-index="5"></path>

<path d="M 268.23 162.93 C 270.33 161.73 273.57 162.67 274.18 165.19 C 275.35 168.38 271.25 171.82 268.37 169.81 C 265.72 168.62 265.73 164.29 268.23 162.93 Z" fill="#10314f" opacity="1.00" stroke="#10314f" stroke-width="0.25" data-index="7"></path>
<path d="M 290.77 170.95 C 290.48 169.49 290.11 165.80 292.55 167.62 C 294.61 173.16 295.15 179.17 295.37 185.04 C 295.31 187.73 295.37 191.77 291.98 192.38 C 287.98 192.58 283.59 191.55 280.49 188.89 L 280.93 187.87 C 284.69 187.29 288.33 190.25 292.28 189.42 C 292.77 183.22 291.87 177.04 290.77 170.95 Z" fill="#10314f" opacity="1.00" stroke="#10314f" stroke-width="0.25" data-index="8"></path>
<path d="M 306.20 175.71 C 306.10 173.36 305.92 169.43 309.20 169.37 C 313.37 168.10 315.67 175.31 311.63 176.77 C 309.79 177.99 307.87 176.43 306.20 175.71 Z" fill="#10314f" opacity="1.00" stroke="#10314f" stroke-width="0.25" data-index="9"></path>
<path d="M 334.52 169.09 C 337.22 170.19 340.27 171.53 341.40 174.45 C 343.73 180.90 342.29 188.62 337.84 193.83 C 335.35 196.73 331.22 196.73 327.72 197.02 C 330.11 187.74 333.00 178.58 334.52 169.09 Z" fill="#fec5aa" opacity="1.00" stroke="#fec5aa" stroke-width="0.25" data-index="10"></path>

<path d="M 263.14 192.09 C 267.69 193.04 271.72 195.53 276.25 196.60 C 285.91 199.64 295.98 200.79 305.95 202.34 C 304.24 206.94 300.15 210.41 296.21 213.17 C 285.55 219.41 271.80 213.02 265.81 203.23 C 264.00 199.86 262.19 195.98 263.14 192.09 Z" fill="#10314f" opacity="1.00" stroke="#10314f" stroke-width="0.25" data-index="12"></path>
<path d="M 215.53 199.40 C 225.17 195.85 235.33 193.18 245.66 193.28 C 246.48 196.82 247.40 200.34 248.20 203.89 C 238.08 215.86 232.88 231.01 228.77 245.90 C 226.02 255.08 224.44 264.65 220.42 273.40 C 215.50 284.23 210.72 295.12 206.17 306.11 C 206.11 301.97 207.03 297.93 207.74 293.87 C 210.87 275.40 215.51 257.23 218.93 238.81 C 219.46 236.13 219.63 233.39 219.38 230.66 C 217.69 230.70 216.82 231.51 216.78 233.10 C 214.53 248.47 210.25 263.45 207.50 278.73 C 205.17 291.48 202.00 304.17 201.35 317.15 C 197.70 314.29 194.59 310.67 190.30 308.70 C 184.73 305.68 178.11 304.19 171.88 305.83 C 171.78 306.45 171.57 307.71 171.46 308.33 C 176.30 308.35 181.43 307.71 185.91 310.01 C 192.85 312.74 198.48 318.20 201.87 324.79 C 188.46 319.79 172.22 325.48 164.11 337.09 C 159.67 344.22 162.39 353.02 165.85 359.95 C 152.61 352.82 142.70 339.85 138.75 325.39 C 135.36 312.01 139.52 298.34 143.49 285.58 C 146.98 274.96 151.75 264.82 156.98 254.96 C 163.00 244.09 170.87 234.38 179.32 225.32 C 189.58 214.52 201.36 204.55 215.53 199.40 Z" fill="#8be8fe" opacity="1.00" stroke="#8be8fe" stroke-width="0.25" data-index="13" style="opacity: 1; visibility: visible;"></path>
<path d="M 265.98 196.14 C 277.23 200.59 289.10 203.31 301.12 204.63 C 297.79 209.07 292.79 212.78 287.02 212.68 C 277.47 212.62 268.27 205.43 265.98 196.14 Z" fill="#ffffff" opacity="1.00" stroke="#ffffff" stroke-width="0.25" data-index="14"></path>

<path d="M 228.35 259.31 C 233.29 241.10 237.48 221.60 249.95 206.81 C 251.08 209.39 254.05 211.71 253.57 214.69 C 245.28 232.37 239.98 251.51 238.12 270.96 C 237.70 272.74 240.02 272.46 241.07 272.76 C 261.70 275.54 282.22 279.06 302.85 281.85 C 306.11 271.57 307.08 260.74 308.27 250.08 C 308.87 240.88 309.74 231.69 309.52 222.47 C 312.06 220.48 314.49 218.35 316.80 216.11 C 316.87 235.56 312.40 254.63 310.90 273.96 C 309.95 289.24 314.26 304.16 319.93 318.18 C 311.96 318.06 303.91 318.39 296.30 320.95 C 296.26 318.92 296.22 316.88 296.15 314.86 C 273.82 314.13 251.77 310.29 229.86 306.27 C 227.95 313.13 225.63 320.48 227.57 327.59 C 228.97 330.92 232.02 333.37 235.30 334.73 C 249.12 339.88 264.55 341.70 278.90 337.64 C 280.50 340.42 283.55 341.21 286.54 341.45 C 286.23 344.03 285.22 347.52 287.69 349.35 C 290.34 351.46 293.77 350.01 296.66 349.28 C 295.68 351.64 294.87 354.06 294.16 356.52 C 280.24 351.17 265.30 348.89 250.45 348.46 C 247.86 344.34 243.02 342.95 238.77 341.23 C 230.86 338.47 223.16 335.10 215.06 332.90 C 210.18 331.53 204.85 328.16 204.18 322.70 C 204.71 318.31 206.95 314.36 208.24 310.17 C 213.97 292.83 223.74 277.06 228.35 259.31 Z" fill="#ffffff" opacity="1.00" stroke="#ffffff" stroke-width="0.25" data-index="16" style="opacity: 1;"></path>
<path d="M 319.73 214.94 C 319.44 212.33 321.03 210.16 322.75 208.40 C 338.53 221.54 352.96 236.54 364.15 253.82 C 371.41 264.53 377.71 275.85 383.57 287.38 C 387.37 296.00 391.84 304.58 393.00 314.06 C 394.27 323.94 392.55 334.51 386.75 342.77 C 378.29 354.86 363.72 362.82 348.89 362.60 C 352.33 359.37 356.00 355.88 356.79 350.99 C 358.76 343.08 354.28 335.49 349.07 329.92 C 343.99 324.52 337.18 321.01 329.91 319.67 C 332.66 316.02 336.66 313.42 340.98 312.03 C 345.99 310.64 351.21 311.65 356.29 312.00 C 356.86 308.85 352.91 309.01 350.81 308.49 C 343.46 307.19 336.34 310.04 330.37 314.09 C 330.49 308.04 330.16 301.99 329.57 295.97 C 329.12 292.37 330.51 288.94 331.49 285.56 C 333.64 278.84 335.77 272.11 338.57 265.63 C 339.37 263.86 339.79 261.95 340.00 260.02 C 338.78 260.36 337.27 260.46 336.91 261.93 C 329.58 277.91 325.73 295.19 320.71 311.96 C 315.87 298.98 312.63 285.07 314.17 271.15 C 316.01 252.42 320.03 233.85 319.73 214.94 Z" fill="#8be8fe" opacity="1.00" stroke="#8be8fe" stroke-width="0.25" data-index="17"></path>

<path d="M 256.09 216.74 C 259.17 219.44 262.17 222.21 265.25 224.90 C 264.22 228.60 263.44 232.64 264.68 236.39 C 265.59 239.31 268.14 241.22 270.35 243.15 C 268.95 251.82 266.28 260.34 265.80 269.14 C 266.43 268.93 267.70 268.51 268.34 268.30 C 270.10 260.37 271.67 252.37 272.67 244.30 C 277.41 244.91 282.84 245.15 286.57 241.59 C 290.07 238.90 290.75 234.33 291.46 230.27 C 296.64 229.14 301.49 226.97 306.34 224.89 C 306.71 231.60 306.16 238.32 305.67 245.01 C 304.83 256.36 303.49 267.70 300.75 278.76 C 280.96 275.36 261.09 272.47 241.21 269.64 C 243.43 251.42 247.87 233.22 256.09 216.74 Z" fill="#8be8fe" opacity="1.00" stroke="#8be8fe" stroke-width="0.25" data-index="19"></path>
<path d="M 267.59 227.30 C 268.54 225.85 270.28 227.25 271.50 227.50 C 276.73 229.65 282.38 230.66 288.05 230.41 C 287.94 233.05 287.99 236.04 286.05 238.10 C 281.39 244.20 270.34 242.56 267.50 235.48 C 266.30 232.88 266.61 229.91 267.59 227.30 Z" fill="#fec5aa" opacity="1.00" stroke="#fec5aa" stroke-width="0.25" data-index="20"></path>

<path d="M 273.16 258.95 C 274.93 258.41 278.10 258.17 277.60 261.00 C 277.98 263.48 274.82 263.42 273.21 262.85 C 273.18 261.55 273.17 260.25 273.16 258.95 Z" fill="#10314f" opacity="1.00" stroke="#10314f" stroke-width="0.25" data-index="22"></path>

<path d="M 326.88 301.02 C 327.43 306.83 327.17 312.69 327.29 318.53 C 325.77 318.71 324.24 318.86 322.72 318.99 C 323.54 312.88 325.29 306.95 326.88 301.02 Z" fill="#ffffff" opacity="1.00" stroke="#ffffff" stroke-width="0.25" data-index="24"></path>
<path d="M 231.99 309.59 C 252.09 313.76 272.47 317.17 293.04 317.48 C 293.00 319.24 294.15 322.03 291.80 322.74 C 286.47 325.00 281.66 328.83 279.17 334.16 C 264.92 338.82 249.24 336.90 235.52 331.41 C 231.99 330.22 229.82 326.66 229.81 323.01 C 229.91 318.46 231.04 314.02 231.99 309.59 Z" fill="#ffffff" opacity="1.00" stroke="#ffffff" stroke-width="0.25" data-index="25"></path>
<path d="M 289.80 326.85 C 303.21 320.01 319.06 320.19 333.41 323.66 C 341.01 325.65 347.20 331.16 351.41 337.63 C 353.83 341.56 355.09 346.44 353.70 350.97 C 352.56 356.64 347.25 360.19 342.08 361.85 C 335.81 363.90 328.99 363.89 322.65 362.15 C 318.31 360.89 313.64 360.08 309.96 357.28 C 312.48 355.08 316.11 353.51 317.01 350.00 C 309.88 351.13 305.55 360.64 297.49 358.42 C 297.61 356.67 297.17 354.72 298.26 353.20 C 301.01 349.06 304.62 345.59 308.20 342.19 C 309.21 341.41 309.54 340.16 309.97 339.02 C 302.59 340.53 297.24 348.08 289.24 347.77 C 289.05 346.29 288.00 344.61 288.97 343.21 C 292.62 337.72 299.20 335.39 303.72 330.86 L 303.22 329.82 L 302.15 329.50 C 295.46 332.19 290.13 339.73 282.14 337.89 C 281.51 332.76 286.00 329.35 289.80 326.85 Z" fill="#fec5aa" opacity="1.00" stroke="#fec5aa" stroke-width="0.25" data-index="26"></path>
<path d="M 170.33 334.30 C 177.71 327.93 187.95 324.81 197.59 326.63 C 203.22 327.91 206.57 333.38 212.07 334.96 C 222.16 338.33 232.24 341.80 242.08 345.85 C 243.67 346.47 245.21 347.28 246.29 348.64 C 241.61 348.62 236.92 348.82 232.26 348.48 C 226.48 346.09 221.14 342.23 214.74 341.65 C 214.77 342.16 214.82 343.20 214.85 343.71 C 221.11 346.86 228.42 348.39 233.56 353.45 C 234.50 354.21 234.60 355.48 234.96 356.57 C 227.95 358.51 220.64 355.94 214.61 352.37 C 211.01 350.31 207.30 348.01 202.99 348.08 C 204.27 355.15 210.72 360.47 210.90 367.89 C 209.72 367.53 208.34 367.50 207.43 366.56 C 203.42 362.92 199.96 358.66 195.64 355.35 C 194.62 354.49 193.25 354.34 192.01 354.03 C 193.68 359.78 201.84 361.59 202.06 368.05 C 197.38 369.98 194.56 365.03 191.43 362.55 C 189.43 360.40 186.34 360.33 183.85 359.09 C 182.13 357.42 180.85 355.38 179.51 353.42 C 178.89 353.39 177.64 353.33 177.02 353.29 C 178.20 358.30 183.16 361.66 183.74 366.87 C 183.86 368.97 180.98 368.95 179.66 368.23 C 176.20 366.19 173.30 363.35 170.44 360.57 C 163.72 353.78 161.98 340.57 170.33 334.30 Z" fill="#fec5aa" opacity="1.00" stroke="#fec5aa" stroke-width="0.25" data-index="27" style="opacity: 1;"></path>
<path d="M 237.66 352.70 C 244.16 353.09 250.53 350.90 257.02 351.85 C 273.20 353.44 290.01 356.06 303.87 365.15 C 307.40 367.86 310.75 371.26 312.31 375.50 C 313.64 379.45 309.42 382.05 306.32 383.29 C 296.34 386.97 285.56 387.69 275.02 387.86 C 266.39 388.96 257.66 388.34 249.00 389.00 C 238.01 389.60 227.00 389.50 216.01 389.51 C 204.30 389.56 192.41 389.17 181.05 386.05 C 176.57 384.59 171.51 383.01 168.77 378.87 C 167.36 374.56 168.80 369.27 172.82 366.89 C 176.07 369.31 180.34 373.37 184.54 370.60 C 187.48 369.10 186.46 365.43 186.85 362.77 C 191.02 364.28 192.35 369.14 196.11 371.14 C 199.50 372.07 202.69 370.13 205.73 368.91 C 205.49 369.91 205.25 370.92 205.00 371.93 C 207.18 370.57 209.76 370.67 212.18 370.16 C 216.19 366.17 211.71 360.82 210.12 356.77 C 214.64 353.96 218.99 358.61 223.48 359.39 C 223.34 364.60 225.84 369.39 228.02 373.97 C 228.49 375.29 229.71 375.90 231.05 376.01 C 230.36 370.29 226.96 365.41 225.48 359.90 C 229.54 359.72 234.05 360.44 237.45 357.69 C 237.51 356.02 237.57 354.36 237.66 352.70 Z" fill="#feba1f" opacity="1.00" stroke="#feba1f" stroke-width="0.25" data-index="28" style="opacity: 1;"></path>
<path d="M 241.09 356.07 C 241.69 356.13 242.90 356.24 243.50 356.30 C 244.37 363.52 247.21 370.37 247.72 377.63 C 247.15 377.61 246.00 377.56 245.43 377.54 C 243.27 370.57 241.07 363.44 241.09 356.07 Z" fill="#10314f" opacity="1.00" stroke="#10314f" stroke-width="0.25" data-index="29"></path>
<path d="M 257.05 358.14 C 257.70 358.19 258.98 358.28 259.63 358.33 C 262.01 362.01 264.75 365.57 265.98 369.85 C 265.34 369.79 264.06 369.68 263.42 369.62 C 260.98 365.98 258.33 362.39 257.05 358.14 Z" fill="#10314f" opacity="1.00" stroke="#10314f" stroke-width="0.25" data-index="30"></path>
<path d="M 277.10 358.24 C 277.68 358.29 278.84 358.39 279.42 358.44 C 281.26 361.67 284.38 364.22 285.18 367.98 C 280.77 367.16 277.65 362.50 277.10 358.24 Z" fill="#10314f" opacity="1.00" stroke="#10314f" stroke-width="0.25" data-index="31"></path>
<path d="M 303.85 361.22 C 304.88 360.68 305.91 360.15 306.95 359.62 C 310.13 361.13 313.37 362.53 316.76 363.53 C 316.79 365.24 316.80 366.96 316.79 368.69 C 311.28 368.81 307.88 364.20 303.85 361.22 Z" fill="#ffffff" opacity="1.00" stroke="#ffffff" stroke-width="0.25" data-index="32"></path>

<path d="M 152.75 371.81 C 156.80 369.96 161.44 370.92 165.75 370.88 C 165.57 374.28 164.72 378.11 166.81 381.13 C 169.09 384.70 173.22 386.41 176.98 388.00 C 190.74 392.93 205.59 392.52 220.00 392.69 C 243.08 392.44 266.19 392.19 289.20 390.30 C 297.67 389.08 307.47 388.32 313.64 381.65 C 316.71 378.77 314.87 374.54 314.29 371.04 C 320.45 372.47 323.41 378.49 326.84 383.16 C 329.36 387.15 332.55 390.74 334.60 395.02 C 333.81 397.70 330.43 398.11 328.06 398.37 C 266.03 398.41 204.00 397.90 141.97 397.75 C 139.32 397.60 135.30 397.35 134.87 394.02 C 136.49 389.65 139.91 386.31 142.66 382.65 C 145.80 378.86 148.72 374.73 152.75 371.81 Z" fill="#8be8fe" opacity="1.00" stroke="#8be8fe" stroke-width="0.25" data-index="34" style="opacity: 1;"></path>
<path d="M 215.24 372.29 C 215.87 372.30 217.12 372.31 217.75 372.32 C 217.64 372.82 217.42 373.81 217.31 374.31 C 216.78 374.44 215.74 374.68 215.21 374.81 C 215.22 374.18 215.24 372.92 215.24 372.29 Z" fill="#10314f" opacity="1.00" stroke="#10314f" stroke-width="0.25" data-index="35"></path>

<path d="M 395.82 403.74 C 408.38 400.91 421.38 401.68 434.16 401.77 C 432.70 402.96 430.76 402.60 429.03 402.66 C 422.06 402.59 415.09 402.41 408.13 402.80 C 408.61 404.39 409.10 405.99 409.58 407.60 C 409.35 407.90 408.87 408.52 408.64 408.83 C 407.93 407.64 407.38 406.35 406.41 405.36 C 402.94 404.45 399.28 404.72 395.82 403.74 Z" fill="#fec5aa" opacity="1.00" stroke="#fec5aa" stroke-width="0.25" data-index="37"></path>
</svg>