<svg xmlns="http://www.w3.org/2000/svg" height="512pt" version="1.1" viewBox="0 0 512 512" width="512pt">

<path d="M 283.18 47.19 C 291.60 40.82 302.44 38.97 312.74 38.54 C 320.93 39.19 329.13 41.16 336.64 44.50 C 345.70 49.78 353.60 57.95 356.76 68.14 C 358.70 75.02 359.43 82.47 357.25 89.39 C 355.86 95.40 351.70 100.20 347.63 104.62 C 342.61 109.35 336.12 112.06 329.84 114.69 C 323.93 117.24 317.73 119.14 311.39 120.28 C 305.49 121.35 299.58 119.74 293.92 118.18 C 292.00 120.54 290.80 123.45 288.62 125.58 C 286.35 125.93 283.28 126.44 281.85 124.14 C 278.66 119.87 281.44 114.07 279.57 109.44 C 277.32 106.72 274.24 104.68 272.64 101.45 C 270.85 97.87 269.82 93.97 268.99 90.08 C 267.43 83.01 269.10 75.73 271.01 68.91 C 273.58 61.03 276.44 52.52 283.18 47.19 Z" fill="#92e8ff" opacity="1.00" stroke="#92e8ff" stroke-width="0.25" data-index="1" style="visibility: hidden; opacity: 1;"></path>

<path d="M 306.81 62.87 C 315.41 60.46 323.83 56.97 332.80 56.13 C 334.37 63.51 335.32 71.01 336.47 78.46 C 337.06 82.14 338.18 85.87 337.56 89.62 C 336.38 92.37 331.77 91.15 330.98 94.14 C 330.76 97.77 331.14 101.41 330.80 105.03 C 324.95 104.64 322.62 98.34 317.86 95.92 C 308.66 97.48 299.49 99.66 290.17 100.66 C 288.38 100.95 288.10 98.63 287.72 97.40 C 286.15 88.66 284.92 79.85 283.87 71.03 C 283.61 69.18 283.82 67.32 284.12 65.49 C 291.69 64.73 299.29 64.02 306.81 62.87 Z" fill="#92e8ff" opacity="1.00" stroke="#92e8ff" stroke-width="0.25" data-index="3" style="visibility: hidden; opacity: 1;"></path>

<path d="M 321.55 73.53 C 324.64 69.94 326.55 65.08 330.99 62.88 C 332.37 69.97 334.21 77.11 334.15 84.37 C 329.28 83.28 324.83 80.85 320.63 78.26 C 318.45 77.04 320.67 74.83 321.55 73.53 Z" fill="#ffffff" opacity="1.00" stroke="#ffffff" stroke-width="0.25" data-index="5" style="visibility: hidden; opacity: 1;"></path>

<path d="M 312.63 84.50 C 314.70 83.70 315.87 81.39 318.01 80.77 C 323.08 83.11 328.04 85.83 332.67 88.97 C 331.23 89.52 329.78 90.07 328.33 90.60 C 328.24 93.66 328.70 96.90 327.22 99.72 C 324.68 97.63 322.65 94.88 319.80 93.17 C 311.38 92.89 303.40 97.36 294.89 96.18 C 297.22 91.14 301.69 87.58 305.02 83.22 C 307.52 83.75 310.03 84.62 312.63 84.50 Z" fill="#ffffff" opacity="1.00" stroke="#ffffff" stroke-width="0.25" data-index="7" style="opacity: 1; visibility: hidden;"></path>
<path d="M 191.73 102.82 C 201.12 98.83 212.73 99.83 220.90 106.10 C 225.64 109.84 230.44 114.78 236.99 114.44 C 241.51 114.87 244.96 111.75 248.46 109.46 C 251.67 108.92 254.18 111.74 255.97 114.02 C 259.14 118.16 259.38 123.69 258.47 128.63 C 257.72 132.19 253.79 134.20 253.55 137.93 C 252.88 142.28 254.63 146.45 256.70 150.16 C 258.09 150.75 260.26 150.57 260.89 152.24 C 262.12 155.80 261.69 160.19 258.99 163.00 C 256.38 166.05 252.22 166.69 248.51 167.49 C 247.14 184.13 242.68 201.01 232.56 214.55 C 230.39 217.49 227.26 219.73 223.67 220.51 C 219.39 221.31 215.04 220.74 210.73 220.56 C 210.29 223.97 210.09 227.41 210.20 230.85 C 221.20 236.96 233.53 240.45 243.83 247.80 C 247.10 239.21 250.34 230.62 254.01 222.20 C 255.64 218.53 256.66 214.58 258.90 211.20 C 262.65 212.49 266.21 214.24 269.99 215.43 C 272.33 213.91 273.26 210.95 275.21 208.99 C 277.81 209.08 280.04 210.92 282.55 211.58 C 298.44 216.73 314.34 221.87 329.94 227.81 C 338.40 230.66 346.54 234.42 355.16 236.75 C 355.83 234.98 356.52 233.18 357.63 231.64 C 362.20 225.28 367.16 219.22 372.32 213.35 C 376.68 207.61 383.94 205.60 389.84 201.91 C 395.53 199.31 400.69 195.18 406.95 194.09 C 406.82 198.25 402.40 200.15 399.86 202.86 C 387.04 214.48 373.18 224.89 359.93 235.99 C 382.56 230.45 404.02 221.19 426.16 214.09 C 425.79 216.06 425.03 217.92 424.16 219.73 C 426.20 219.09 428.28 218.44 430.46 218.56 C 429.59 222.22 427.25 225.25 426.08 228.80 C 428.98 228.21 431.85 227.40 434.81 227.17 C 434.89 228.89 434.88 230.67 433.99 232.21 C 425.46 249.58 416.93 266.95 408.28 284.27 C 407.26 286.44 406.02 288.52 405.31 290.83 C 407.82 295.61 410.73 300.21 412.82 305.21 C 414.19 307.97 413.26 311.09 412.71 313.94 C 411.34 320.68 408.91 327.13 406.47 333.55 C 405.33 336.18 404.38 339.19 401.89 340.88 C 394.64 346.17 386.20 349.61 379.08 355.08 C 373.93 361.84 368.17 368.18 361.64 373.65 C 351.27 382.94 338.06 389.58 323.99 390.25 C 313.86 390.55 304.04 387.42 294.76 383.66 C 298.68 393.57 303.56 403.09 307.40 413.03 L 307.32 413.98 C 306.94 414.16 306.18 414.54 305.79 414.73 C 297.86 413.31 289.58 413.46 281.83 415.78 C 271.53 419.07 262.10 424.47 252.69 429.69 C 244.93 433.52 237.55 438.11 229.62 441.61 C 225.04 443.65 220.13 444.78 215.35 446.28 C 206.84 448.93 197.92 450.97 188.95 450.10 C 179.32 449.07 169.54 446.95 161.24 441.72 C 153.16 436.67 146.68 429.37 141.65 421.33 C 130.90 404.85 125.50 385.42 123.66 365.96 C 122.36 349.71 121.21 333.44 119.61 317.21 C 118.85 303.09 116.22 288.42 120.75 274.66 C 122.09 270.26 124.21 266.16 126.31 262.09 C 127.34 260.16 128.36 258.24 129.47 256.35 C 136.60 245.80 144.79 235.56 155.79 228.82 C 160.63 225.96 165.78 223.67 171.01 221.62 C 172.27 222.26 173.39 223.16 174.65 223.82 C 179.02 215.74 181.21 206.30 179.79 197.16 C 175.13 199.34 170.58 202.86 165.22 202.68 C 160.68 202.26 158.78 197.45 158.37 193.51 C 157.17 181.68 152.85 170.49 150.99 158.78 C 148.76 147.41 148.50 135.10 153.49 124.40 C 156.62 118.59 161.24 112.94 167.69 110.79 C 172.04 109.59 176.80 109.82 180.88 111.81 C 184.18 108.49 187.26 104.62 191.73 102.82 Z" fill="#1e3c55" opacity="1.00" stroke="#1e3c55" stroke-width="0.25" data-index="8" style="opacity: 1; visibility: visible;"></path>
<path d="M 194.47 104.51 C 202.60 101.98 212.06 102.94 219.11 107.89 C 224.01 111.13 228.01 116.38 234.32 116.76 C 239.81 117.97 244.73 115.11 249.20 112.37 C 252.06 112.35 253.84 115.52 255.28 117.66 C 256.88 122.42 256.89 128.38 253.28 132.27 C 249.44 136.72 250.55 143.22 252.81 148.14 C 253.94 150.91 256.44 152.71 258.75 154.45 C 258.76 156.98 258.75 159.85 256.66 161.66 C 254.84 163.85 251.82 163.78 249.23 164.00 C 248.99 159.39 249.37 154.74 248.72 150.16 C 248.29 148.34 247.23 145.89 245.01 145.99 C 240.07 145.72 235.06 147.10 230.18 145.89 C 227.17 144.84 226.09 141.47 224.56 138.99 C 221.76 139.21 220.41 141.86 218.68 143.69 C 214.62 148.55 208.33 151.55 201.96 151.33 C 199.80 151.45 196.13 150.93 196.03 154.07 C 195.26 161.40 196.82 168.78 195.75 176.11 C 192.69 173.09 191.34 168.69 188.04 165.93 C 183.73 164.02 178.67 166.62 176.39 170.46 C 173.18 174.57 173.09 180.35 175.06 185.02 C 176.72 188.34 180.17 190.10 183.08 192.16 C 178.88 195.13 174.20 197.35 169.47 199.35 C 167.32 200.19 163.83 200.93 162.64 198.30 C 160.27 194.33 160.49 189.56 159.64 185.16 C 156.68 170.88 151.57 156.78 152.04 142.01 C 152.18 133.58 154.64 124.77 160.48 118.49 C 163.65 115.54 167.63 113.11 172.00 112.64 C 175.35 112.64 178.48 114.05 181.70 114.82 C 185.11 110.48 189.03 106.19 194.47 104.51 Z" fill="#6e4b47" opacity="1.00" stroke="#6e4b47" stroke-width="0.25" data-index="9"></path>

<path d="M 397.02 111.94 C 397.77 110.50 399.53 110.49 400.89 110.04 C 399.47 113.74 397.14 116.99 395.47 120.57 C 394.40 122.63 393.62 125.20 391.18 126.03 C 391.50 120.83 394.22 116.19 397.02 111.94 Z" fill="#92e8ff" opacity="1.00" stroke="#92e8ff" stroke-width="0.25" data-index="11" style="visibility: hidden; opacity: 1;"></path>

<path d="M 362.85 127.82 C 363.35 127.65 364.34 127.33 364.84 127.16 C 364.68 129.63 364.37 132.13 363.29 134.39 C 361.19 138.88 359.77 143.72 356.90 147.80 C 356.52 147.58 355.77 147.13 355.39 146.90 C 357.87 140.54 360.37 134.18 362.85 127.82 Z" fill="#92e8ff" opacity="1.00" stroke="#92e8ff" stroke-width="0.25" data-index="13" style="visibility: hidden; opacity: 1;"></path>

<path d="M 369.88 152.78 C 372.52 148.35 375.27 143.92 378.75 140.10 C 378.99 140.56 379.48 141.48 379.72 141.94 C 376.86 146.38 374.48 151.12 371.45 155.44 C 369.76 156.29 368.77 153.96 369.88 152.78 Z" fill="#92e8ff" opacity="1.00" stroke="#92e8ff" stroke-width="0.25" data-index="15" style="visibility: hidden; opacity: 1;"></path>
<path d="M 211.18 152.21 C 215.89 150.26 219.54 146.62 223.00 143.00 C 225.37 145.82 228.30 148.43 232.13 148.88 C 236.51 150.06 241.01 147.68 245.34 148.64 C 247.25 151.12 246.16 154.65 246.66 157.58 C 242.61 156.23 238.28 156.31 234.21 157.49 C 234.40 158.61 234.05 160.09 235.16 160.84 C 238.27 163.43 242.65 162.33 246.36 162.69 C 245.24 174.16 244.15 185.90 239.52 196.59 C 236.81 202.86 233.82 209.14 229.39 214.39 C 225.46 219.15 218.53 218.74 212.98 218.17 C 206.61 217.60 200.90 214.56 194.81 212.96 C 195.25 214.16 195.76 215.38 196.80 216.20 C 200.08 219.31 203.46 222.41 207.60 224.36 C 207.58 228.61 207.59 232.88 208.14 237.11 C 209.93 237.06 210.21 235.38 210.71 234.03 C 211.40 237.16 212.15 240.41 211.48 243.61 C 210.92 245.19 209.68 246.76 207.88 246.88 C 203.68 247.45 199.43 246.08 195.71 244.22 C 187.92 239.84 181.39 233.61 175.54 226.93 C 178.44 222.29 180.81 217.25 181.76 211.83 C 182.98 206.57 182.39 201.17 182.44 195.84 C 183.82 195.03 184.78 193.80 185.36 192.32 C 186.92 192.16 188.48 192.00 190.04 191.80 C 189.89 191.39 189.60 190.58 189.46 190.18 C 185.24 189.61 180.59 188.83 178.12 184.89 C 173.10 178.29 178.43 167.56 186.84 167.85 C 189.39 171.24 190.81 175.35 193.51 178.62 C 195.30 180.69 198.51 179.27 198.72 176.67 C 200.05 169.23 197.72 161.67 198.68 154.15 C 202.89 154.08 207.31 154.16 211.18 152.21 Z" fill="#febea2" opacity="1.00" stroke="#febea2" stroke-width="0.25" data-index="16"></path>
<path d="M 221.57 156.60 C 223.52 155.61 225.68 155.86 227.73 156.36 C 227.63 157.88 228.53 159.91 226.82 160.83 C 222.30 164.12 216.43 164.91 210.98 164.77 C 208.98 164.66 206.51 164.55 205.27 162.72 C 204.70 160.03 208.02 159.18 210.04 159.03 C 213.99 158.78 217.92 158.20 221.57 156.60 Z" fill="#1e3c55" opacity="1.00" stroke="#1e3c55" stroke-width="0.25" data-index="17"></path>

<path d="M 230.25 167.83 C 232.89 168.02 232.54 171.00 232.96 172.88 C 233.53 178.90 234.91 184.85 234.82 190.92 C 231.97 191.12 226.83 193.07 225.82 189.23 C 227.97 189.04 230.13 188.91 232.29 188.82 C 232.04 181.78 229.98 174.91 230.25 167.83 Z" fill="#1e3c55" opacity="1.00" stroke="#1e3c55" stroke-width="0.25" data-index="19"></path>
<path d="M 236.11 169.00 C 237.68 168.77 239.29 168.31 240.88 168.72 C 242.64 170.66 242.97 174.11 240.60 175.72 C 238.85 176.21 236.18 176.08 235.68 173.91 C 235.45 172.26 235.89 170.62 236.11 169.00 Z" fill="#1e3c55" opacity="1.00" stroke="#1e3c55" stroke-width="0.25" data-index="20"></path>
<path d="M 216.34 170.13 C 218.01 169.01 219.94 169.99 221.67 170.37 C 221.68 172.04 222.09 173.79 221.52 175.41 C 220.30 177.14 217.36 177.99 215.78 176.22 C 213.92 174.59 214.59 171.55 216.34 170.13 Z" fill="#1e3c55" opacity="1.00" stroke="#1e3c55" stroke-width="0.25" data-index="21"></path>

<path d="M 307.10 173.00 C 310.41 174.13 312.03 177.38 313.85 180.09 C 316.27 183.93 319.23 187.46 320.93 191.71 C 320.30 191.68 319.04 191.61 318.41 191.57 C 315.03 187.24 311.98 182.68 308.96 178.10 C 307.92 176.58 307.48 174.77 307.10 173.00 Z" fill="#92e8ff" opacity="1.00" stroke="#92e8ff" stroke-width="0.25" data-index="23" style="opacity: 1; visibility: hidden;"></path>
<path d="M 212.48 197.58 C 211.51 196.59 209.59 194.36 211.78 193.54 C 216.87 199.47 225.71 198.69 232.15 195.62 C 231.81 199.55 227.17 200.29 224.02 200.53 C 220.10 200.43 215.60 200.29 212.48 197.58 Z" fill="#1e3c55" opacity="1.00" stroke="#1e3c55" stroke-width="0.25" data-index="24"></path>
<path d="M 378.03 211.14 C 385.03 207.48 391.87 203.49 398.96 199.98 C 386.57 211.99 372.45 222.01 359.27 233.11 C 365.66 225.92 370.77 217.53 378.03 211.14 Z" fill="#ffffff" opacity="1.00" stroke="#ffffff" stroke-width="0.25" data-index="25" style="visibility: visible; opacity: 1;"></path>

<path d="M 276.16 211.79 C 288.71 216.55 301.62 220.28 314.26 224.79 C 326.76 229.17 339.10 233.96 351.56 238.46 C 353.60 239.14 355.78 239.98 357.93 239.24 C 365.16 237.51 372.17 234.99 379.36 233.13 C 393.64 228.58 407.53 222.93 421.70 218.07 C 421.54 219.10 421.37 220.14 421.21 221.18 C 408.10 226.37 394.54 230.27 381.28 235.04 C 378.78 235.78 377.08 237.82 375.02 239.26 C 364.40 240.84 353.68 241.67 342.97 242.39 C 337.26 242.96 332.29 239.56 327.09 237.78 C 314.96 233.47 303.07 228.54 291.06 223.91 C 286.35 222.01 281.45 220.55 276.97 218.14 C 290.72 221.58 303.98 226.72 317.23 231.69 C 322.14 233.48 326.90 235.76 332.02 236.90 C 332.91 234.46 330.11 234.18 328.52 233.41 C 314.89 228.26 301.41 222.61 287.37 218.62 C 283.00 217.26 278.67 215.77 274.34 214.30 C 274.80 213.67 275.70 212.42 276.16 211.79 Z" fill="#ffffff" opacity="1.00" stroke="#ffffff" stroke-width="0.25" data-index="27" style="opacity: 1;"></path>
<path d="M 238.35 268.35 C 245.55 250.41 252.14 232.21 259.98 214.54 C 275.61 220.81 291.51 226.41 307.04 232.95 C 316.95 236.96 327.04 240.49 337.02 244.31 C 335.56 250.56 332.10 256.07 329.90 262.07 C 320.76 282.89 311.58 303.70 302.50 324.55 C 301.40 326.84 298.61 327.38 296.58 328.56 C 294.47 329.34 292.25 331.09 289.93 330.05 C 268.05 321.80 246.23 313.43 224.23 305.49 C 228.59 292.98 233.75 280.77 238.35 268.35 Z" fill="#9462a3" opacity="1.00" stroke="#9462a3" stroke-width="0.25" data-index="28" style="opacity: 1;"></path>
<path d="M 380.87 237.94 C 395.93 232.32 411.56 228.24 426.21 221.52 C 425.45 223.60 424.54 225.61 423.59 227.60 C 422.95 227.72 421.66 227.94 421.01 228.06 C 420.48 228.16 419.42 228.37 418.89 228.48 C 416.39 228.98 413.91 229.57 411.43 230.15 C 411.05 230.23 410.30 230.40 409.92 230.48 C 404.25 231.87 398.58 233.25 392.95 234.75 C 388.91 235.78 385.06 237.60 380.87 237.94 Z" fill="#ffffff" opacity="1.00" stroke="#ffffff" stroke-width="0.25" data-index="29"></path>
<path d="M 167.67 225.63 C 168.80 225.29 170.50 223.98 171.37 225.48 C 176.24 231.61 181.55 237.50 187.96 242.07 C 193.45 246.24 199.93 249.86 207.04 249.59 C 209.71 249.57 212.34 248.02 213.42 245.54 C 214.83 242.30 214.15 238.67 214.07 235.26 C 223.30 240.77 234.42 243.18 242.63 250.27 C 239.38 259.92 235.12 269.21 231.75 278.83 C 228.42 288.22 223.86 297.22 221.48 306.92 C 238.41 313.70 255.79 319.36 272.63 326.35 C 275.31 329.50 276.31 333.92 277.93 337.73 C 273.43 339.99 268.89 342.15 264.37 344.37 C 260.99 346.01 257.79 348.19 254.04 348.89 C 247.43 350.31 240.98 352.37 234.64 354.67 C 230.68 356.05 226.73 357.69 222.50 357.93 C 218.13 346.70 212.27 336.13 206.47 325.59 C 199.12 311.44 191.79 297.17 186.98 281.92 C 185.11 276.85 184.06 271.34 180.83 266.89 C 180.40 266.92 179.54 266.98 179.11 267.01 C 180.23 271.30 182.54 275.20 183.58 279.54 C 190.56 303.79 204.10 325.29 215.30 347.69 C 217.09 351.47 219.23 355.18 220.00 359.35 C 212.76 360.67 206.10 363.83 199.20 366.22 C 197.54 366.20 196.68 369.62 198.89 369.30 C 201.92 368.35 204.75 366.85 207.71 365.71 C 215.12 362.62 223.03 361.08 230.65 358.64 C 236.43 356.88 241.98 354.40 247.88 352.98 C 251.31 351.94 254.95 351.56 258.26 350.15 C 276.67 341.06 294.94 331.68 313.62 323.16 C 316.05 331.24 320.30 338.62 325.91 344.91 C 320.06 351.39 314.53 358.24 307.64 363.66 C 297.33 372.72 287.50 382.44 276.01 390.04 C 264.50 397.81 251.34 402.57 238.44 407.48 C 226.46 412.05 213.83 414.78 201.05 415.75 C 191.19 416.82 180.76 415.90 171.95 411.05 C 161.31 405.21 153.54 395.01 149.08 383.87 C 141.08 363.79 137.42 342.35 132.52 321.39 C 132.35 319.95 131.50 319.36 129.98 319.63 C 132.29 334.11 136.18 348.30 139.48 362.59 C 143.19 375.77 146.99 389.41 155.69 400.31 C 162.10 408.35 170.86 414.85 181.00 417.21 C 192.65 420.01 204.74 418.21 216.37 416.23 C 231.67 413.47 246.15 407.56 260.31 401.30 C 270.36 396.95 279.73 391.10 288.06 383.99 C 289.05 383.33 289.94 381.90 291.31 382.46 C 295.67 392.18 300.01 401.93 304.11 411.77 C 296.52 411.26 288.74 411.05 281.40 413.36 C 269.86 416.88 259.53 423.28 248.93 428.85 C 239.68 433.42 230.98 439.38 220.90 442.04 C 211.51 444.96 201.91 448.17 191.93 447.69 C 178.91 447.12 165.33 443.50 155.60 434.41 C 148.37 428.03 143.29 419.67 138.71 411.29 C 133.57 401.83 130.78 391.36 128.38 380.93 C 125.30 365.91 125.34 350.51 123.79 335.30 C 122.98 326.54 122.30 317.77 121.54 309.01 C 120.98 300.04 120.00 290.97 121.40 282.03 C 123.15 272.54 127.78 263.90 132.86 255.82 C 138.51 247.66 144.87 239.83 152.84 233.82 C 157.34 230.36 162.51 227.94 167.67 225.63 Z" fill="#92e8ff" opacity="1.00" stroke="#92e8ff" stroke-width="0.25" data-index="30" style="opacity: 1;"></path>
<path d="M 418.89 228.48 C 419.42 228.37 420.48 228.16 421.01 228.06 C 421.20 228.83 421.40 229.60 421.60 230.38 C 412.88 231.59 404.53 234.54 395.88 235.95 C 400.95 234.24 406.21 233.14 411.40 231.87 C 411.03 231.52 410.29 230.83 409.92 230.48 C 410.30 230.40 411.05 230.23 411.43 230.15 C 414.30 231.95 417.58 230.52 420.58 229.92 C 420.16 229.56 419.31 228.84 418.89 228.48 Z" fill="#92e8ff" opacity="1.00" stroke="#92e8ff" stroke-width="0.25" data-index="31"></path>
<path d="M 411.43 230.15 C 413.91 229.57 416.39 228.98 418.89 228.48 C 419.31 228.84 420.16 229.56 420.58 229.92 C 417.58 230.52 414.30 231.95 411.43 230.15 Z" fill="#1e3c55" opacity="1.00" stroke="#1e3c55" stroke-width="0.25" data-index="32"></path>
<path d="M 383.48 240.57 C 399.86 238.28 415.56 232.72 431.91 230.25 C 420.87 252.77 409.82 275.30 398.64 297.73 C 397.42 298.52 395.92 297.60 394.60 297.61 C 390.07 296.83 384.82 297.02 381.09 300.01 C 379.80 302.60 378.73 305.31 377.68 308.01 C 378.11 309.42 379.02 310.62 379.76 311.88 C 378.67 313.34 377.81 314.96 377.55 316.80 C 379.37 317.78 381.19 318.78 382.98 319.83 C 379.89 319.79 375.32 318.07 373.54 321.61 C 371.88 326.27 377.85 328.10 380.30 330.96 C 375.26 332.74 369.96 333.50 364.76 334.62 C 358.84 335.71 353.02 337.37 347.02 338.01 C 347.21 336.84 347.40 335.69 347.59 334.54 C 351.62 332.36 355.97 330.55 359.31 327.32 C 363.30 323.53 366.55 319.01 369.21 314.21 C 372.43 308.32 373.41 301.52 376.62 295.63 C 378.93 290.96 381.52 286.41 383.48 281.57 C 384.39 279.39 384.03 276.22 381.40 275.50 C 376.89 274.49 372.66 277.62 369.66 280.65 C 366.16 284.78 363.52 289.69 359.05 292.93 C 364.18 280.93 369.83 269.18 375.36 257.36 C 378.25 251.85 380.30 245.93 383.48 240.57 Z" fill="#82d442" opacity="1.00" stroke="#82d442" stroke-width="0.25" data-index="33" style="opacity: 1;"></path>
<path d="M 346.09 244.51 C 357.48 244.23 368.72 242.29 380.04 241.29 C 372.27 258.09 364.26 274.79 356.72 291.71 C 355.43 296.65 349.12 296.69 345.06 295.82 C 345.69 289.98 352.68 287.76 353.26 281.95 C 353.60 279.79 352.65 276.59 349.94 276.80 C 345.20 276.79 341.74 280.55 338.08 283.05 C 335.54 285.16 331.69 286.55 331.19 290.25 C 329.33 298.14 328.51 306.39 324.71 313.69 C 323.28 317.91 318.16 318.62 314.37 319.45 C 311.50 321.25 308.62 323.07 305.39 324.16 C 317.06 298.05 328.29 271.73 339.75 245.53 C 341.64 244.41 343.98 244.75 346.09 244.51 Z" fill="#ffffff" opacity="1.00" stroke="#ffffff" stroke-width="0.25" data-index="34" style="opacity: 1;"></path>

<path d="M 101.74 272.89 C 106.35 264.18 117.02 261.70 126.01 260.42 C 126.08 260.84 126.23 261.68 126.31 262.09 C 124.21 266.16 122.09 270.26 120.75 274.66 C 116.22 288.42 118.85 303.09 119.61 317.21 C 121.21 333.44 122.36 349.71 123.66 365.96 C 125.50 385.42 130.90 404.85 141.65 421.33 C 146.68 429.37 153.16 436.67 161.24 441.72 C 162.27 445.54 163.19 449.45 164.94 453.02 C 165.63 454.29 166.51 455.81 168.11 456.00 C 172.43 456.65 176.83 456.20 181.15 456.88 C 190.70 458.40 200.38 458.43 209.98 459.34 C 218.29 458.90 226.60 458.40 234.90 457.94 C 246.21 455.87 257.59 453.97 268.68 450.85 C 278.11 448.39 287.80 446.26 296.43 441.55 C 299.57 439.82 302.73 438.10 306.13 436.93 C 299.55 443.15 291.43 447.42 283.40 451.44 C 272.54 457.16 260.14 458.59 248.17 460.32 C 239.51 461.65 230.73 461.48 222.01 461.20 C 204.23 460.51 186.25 460.92 168.74 457.27 C 163.35 456.12 157.76 456.65 152.38 455.55 C 149.78 452.02 149.37 447.42 147.37 443.57 C 142.26 433.02 134.68 423.82 126.12 415.88 C 118.23 408.17 114.27 397.67 110.32 387.62 C 106.01 376.54 103.72 364.84 100.52 353.42 C 97.27 338.49 95.42 323.26 94.76 308.00 C 94.77 296.06 95.68 283.49 101.74 272.89 Z" fill="#ffffff" opacity="1.00" stroke="#ffffff" stroke-width="0.25" data-index="36" style="opacity: 1; visibility: hidden;"></path>
<path d="M 366.27 289.28 C 369.49 284.22 373.73 278.79 379.96 277.63 C 381.75 278.28 381.54 280.36 380.70 281.67 C 378.31 286.61 375.69 291.43 373.38 296.40 C 370.81 302.04 369.52 308.20 366.62 313.70 C 362.68 320.14 357.97 326.55 351.02 329.96 C 343.04 333.92 335.11 338.04 326.99 341.70 C 321.43 336.82 318.00 329.59 316.13 322.46 C 319.24 320.75 322.59 319.49 325.61 317.62 C 328.98 311.22 331.28 304.26 332.33 297.09 C 333.11 293.70 332.89 289.32 336.35 287.36 C 340.81 284.42 344.79 280.60 349.93 278.87 C 351.88 281.73 349.94 284.76 347.72 286.71 C 344.91 289.81 340.73 294.60 344.26 298.67 C 352.55 299.63 361.60 296.46 366.27 289.28 Z" fill="#febea2" opacity="1.00" stroke="#febea2" stroke-width="0.25" data-index="37" style="opacity: 1;"></path>
<path d="M 403.12 293.82 C 405.97 297.16 407.95 301.12 409.92 305.02 C 411.16 307.30 410.88 309.98 410.46 312.45 C 409.11 319.52 406.47 326.26 403.93 332.97 C 402.88 335.66 401.66 338.54 399.01 340.03 C 393.25 343.67 387.18 346.78 381.40 350.39 C 378.67 351.88 376.08 353.74 373.13 354.77 C 367.38 351.00 363.39 344.46 364.21 337.41 C 369.19 336.57 374.05 335.10 379.03 334.25 C 381.32 333.68 382.86 335.89 384.85 336.57 C 386.08 335.75 388.00 334.98 387.83 333.20 C 384.67 328.48 378.46 327.35 374.85 323.03 C 378.53 320.65 382.63 323.32 385.99 325.00 C 388.44 326.14 391.38 328.25 393.96 326.18 C 390.09 321.49 385.14 317.97 379.79 315.20 C 381.61 314.34 383.51 312.60 385.66 313.34 C 390.00 314.78 393.26 318.16 397.20 320.32 C 399.74 320.54 398.15 317.60 396.85 317.12 C 392.83 314.30 388.77 311.12 383.81 310.23 C 382.11 309.84 379.41 309.41 380.20 307.00 C 385.62 306.07 391.65 306.55 396.29 309.76 C 398.61 311.19 400.63 313.47 403.57 313.45 C 401.58 309.11 396.80 307.17 392.79 305.15 C 389.56 303.25 385.79 304.06 382.25 303.81 C 382.29 303.19 382.35 301.95 382.39 301.33 C 386.64 299.97 391.26 298.96 395.61 300.52 C 399.35 301.41 402.20 304.06 405.21 306.26 C 407.35 306.24 406.06 303.59 405.11 302.87 C 403.93 301.59 402.48 300.59 401.09 299.57 C 401.57 297.59 402.26 295.66 403.12 293.82 Z" fill="#febea2" opacity="1.00" stroke="#febea2" stroke-width="0.25" data-index="38" style="opacity: 1;"></path>
<path d="M 276.79 327.90 C 280.72 329.03 284.51 330.59 288.28 332.17 C 285.76 333.80 283.06 335.14 280.22 336.11 C 278.99 333.41 277.78 330.70 276.79 327.90 Z" fill="#92e8ff" opacity="1.00" stroke="#92e8ff" stroke-width="0.25" data-index="39"></path>
<path d="M 335.70 340.74 C 338.22 338.58 341.36 337.38 344.36 336.03 C 343.71 337.81 343.66 340.11 342.02 341.33 C 339.90 341.32 337.79 341.03 335.70 340.74 Z" fill="#ffffff" opacity="1.00" stroke="#ffffff" stroke-width="0.25" data-index="40"></path>
<path d="M 347.24 340.65 C 351.97 339.71 356.67 338.52 361.48 338.09 C 361.96 341.74 362.24 345.60 364.19 348.84 C 366.41 352.61 369.83 355.45 373.24 358.11 C 363.47 370.31 350.95 380.95 335.85 385.74 C 321.67 390.11 306.14 386.75 293.31 379.95 C 299.21 374.29 305.34 368.86 311.59 363.59 C 316.25 359.59 320.15 354.81 324.39 350.39 C 326.63 348.11 328.59 345.58 330.09 342.76 C 334.62 343.25 339.14 343.89 343.70 343.87 C 344.73 342.66 345.41 340.77 347.24 340.65 Z" fill="#92e8ff" opacity="1.00" stroke="#92e8ff" stroke-width="0.25" data-index="41" style="opacity: 1;"></path>
<path d="M 308.05 421.73 C 312.64 421.78 316.65 424.68 319.57 428.02 C 317.02 430.80 313.93 433.09 310.32 434.28 C 309.72 430.07 308.77 425.92 308.05 421.73 Z" fill="#ffffff" opacity="1.00" stroke="#ffffff" stroke-width="0.25" data-index="42"></path>
</svg>