<?xml version="1.0" encoding="UTF-8"?>
<svg id="Layer_1" xmlns="http://www.w3.org/2000/svg" version="1.1" viewBox="0 0 512 512">
  <!-- Generator: Adobe Illustrator 29.4.0, SVG Export Plug-In . SVG Version: 2.1.0 Build 152)  -->
  <defs>
    <style>
      .st0 {
        fill: #f5ffff;
        stroke: #f5ffff;
      }

      .st0, .st1, .st2, .st3, .st4, .st5, .st6, .st7, .st8, .st9 {
        stroke-width: .2px;
      }

      .st1 {
        fill: #a4e6f7;
        stroke: #a4e6f7;
      }

      .st2 {
        fill: #fff;
        stroke: #fff;
      }

      .st3 {
        fill: #9be8fd;
        stroke: #9be8fd;
      }

      .st4 {
        fill: #a0e9fb;
        stroke: #a0e9fb;
      }

      .st5 {
        fill: #fafefe;
        stroke: #fafefe;
      }

      .st6 {
        fill: #99e7fb;
        stroke: #99e7fb;
      }

      .st7 {
        fill: #093955;
        stroke: #093955;
      }

      .st8 {
        fill: #9ce8fc;
        stroke: #9ce8fc;
      }

      .st9 {
        fill: #9be8fa;
        stroke: #9be8fa;
      }
    </style>
  </defs>
  <path class="st7" d="M232.7,354.5c70-9.9,137.8,8,202.9,31.7,6.2-19.4,13.9-38.3,15-59,1.2-27.4-4.2-54.4-6.4-81.6-.7-12.1,4.2-23.5,7.9-34.6,6.4-18.1,10.6-37.6,7.7-56.9-3-20.3-12.1-40.6-29.2-52.7-23.2-17.1-57.6-17.6-80.9,0l-.2-.5c-13.8,9.4-21.3,25.2-25.5,40.8-1.5-15.3-4.7-33.4-19-41.5-17.6-10.6-43-.7-49.2,18.8-9.9,29.2,5.2,60.6-4,90-2.2,6.4-8.7,9.9-14.1,13.1-.5-23.2,9.6-45.3,9.6-68.5.2-12.1,0-27.2-11.4-34.4-16.6-12.4-43-1.5-47.7,18.3-5.9,25,0,51.2-2.7,76.7-.7,6.7-6.2,11.4-10.9,15.3-3.5-3.2-8.2-6.4-7.9-11.9-.7-14.6,9.6-27.4,8.7-42,0-7.2-3.2-14.1-9.4-18.1-9.1-2.5-19.5-1-27.2,4.7-15.3,9.4-24,27.2-23.2,45-3.2-4.2-6.7-10.1-12.6-10.4-7.9-1.5-14.8,3.2-20.5,7.9-18.5,17.3-30.4,42.3-29.2,67.8.5,13.8,7.4,27.2,4,41-2.7,11.9-5.2,23.5-5.4,35.6-1.6,25.3,2.6,49.9,8.8,74.2,57.5-23.6,109.4-60.1,172.2-69Z"/>
  <path class="st2" d="M232.7,354.5c67.4-9.5,132.7,6.7,195.6,29.1,1.9-6.5,4-13,5.9-19.5,4.5-14.1,8.4-28.9,8.4-44-1-29.2-6.9-57.9-7.4-87-2-7.7-5.7-15.8-2.7-23.7,4.2-12.1,13.6-21.5,19.3-32.9,2-19-1.7-39.8-13.1-55.4-18.1-27-61.3-32.9-85.6-11.6h-.2c-1.7,16.8-3.2,34.4,1.7,50.7,3.2,12.4,10.4,23.5,10.4,36.4s.7,24.7,0,37.1c-1,16.3-16.8,27.7-31.9,30.2-11.9,2-27.7,1-33.6-11.4-6.2-9.1-4-20.3.7-29.4,4-8.7,4.9-18.1,7.2-27.2,4.2-20.5,9.4-41.5,7.7-62.8-1-11.6-7.7-24.2-19.5-27.7-6.9-2.5-14.1.2-21,1.7v1.7c-.2,14.8-3,29.9-2,45,.2,9.1,2.2,18.3,1.2,27.7-1.2,9.4-6.7,17.6-11.4,25.7-4.5,7.7-8.2,16.8-16.6,21-5.9,4-16.6,1-16.1-7.4.2-29.7,16.8-58.4,7.9-88.3-7.9,1.2-17.1,1-23.5,6.7-5.9,4.9-6.7,13.1-7.7,20-1.7,14.6-4,29.7-1.7,44.5.7,9.1,3.2,18.5,0,27.2-5.2,9.9-18.3,10.6-27.9,8.2-10.4-1-17.1-10.4-17.3-20.3-1.7-16.6,11.9-30.4,9.1-47-.7-6.9-9.1-10.6-15.3-7.7-9.4,4.2-20,9.1-23.7,19.5.2,18.1,1,36.6,8.2,53.2,2.5,7.4,6.9,15.8,2.5,23.5-3.5,7.9-11.6,11.9-19.5,13.6-6.7,1-14.3-1-15.8-8.4-1.7-14.6,7.9-27.4,6.9-42,.7-7.9-2.7-19.8-12.6-19.3-4.9,1.7-9.9,4.7-12.6,9.4-4.5,13.8-9.4,28.4-6.9,43.3,1.2,16.1,10.1,31.7,6.4,48-2.7,13.1-6.7,26.2-7.4,39.8-1.4,23,1.6,45.7,6,68.2,48.3-22.7,94.2-50.6,148.1-58.3Z"/>
  <path class="st6" d="M260.6,149.5c-.2-14.3-1.5-33.9,14.1-40.8-.2,15.1-3.2,30.2-2,45,.2,9.1,2.2,18.5,1.2,27.7-1.2,9.6-6.7,17.6-11.4,25.7,1.5-19.3-.2-38.6-2-57.9v.2Z"/>
  <path class="st3" d="M331.4,166.3c-1.7-20.8,3-45,21.8-56.9-1.7,16.8-3.2,34.1,1.7,50.7,3.2,12.1,10.6,23.2,10.4,36.4,0,12.4.7,24.7,0,37.1-1,16.3-16.8,27.7-31.9,30.2-11.9,2-27.7,1-33.6-11.4-6.2-9.1-4-20.3.7-29.4-.2,8.7-4.9,20.8,4.7,26.2,17.8,5.7,37.3-9.6,37.8-27.9.7-19-11.1-35.9-11.6-54.9h0Z"/>
  <path class="st9" d="M196.3,138.4c5.2-16.6,33.1-22.7,41.5-5.9-7.9,1.2-17.1,1-23.5,6.7-5.9,4.9-6.7,12.9-7.7,20-1.7,14.8-4,29.7-1.7,44.5.7,8.9,3,18.3,0,27.2-5.2,9.9-18.3,10.6-27.9,8.2,5.7-4.5,12.4-9.1,14.8-16.3,4.9-13.1,2.5-27.4,2.7-41,.2-14.3-2.2-29.2,2-43.3h-.2Z"/>
  <path class="st5" d="M322.2,156.4c1.5,11.6,2.7,23.2,6.4,34.6,3.2,11.6,8.9,23.5,5.7,35.9-2.5,11.6-15.8,18.3-27,15.1-2-6.2-.7-12.6.7-18.8,5.9-22,11.6-44,13.8-66.8h.2Z"/>
  <path class="st1" d="M432.5,209.1c4.2-12.1,13.6-21.5,19.3-32.9-2.7,19.5-9.6,38.3-16.6,56.6-2.2-7.7-5.9-15.8-2.7-23.7h0Z"/>
  <path class="st4" d="M128.8,264.2c6.4-26.5-13.4-55.1.7-80.6,0,17.8.7,36.4,8.2,53.2,2.7,7.4,6.9,15.8,2.5,23.5-3.5,7.9-11.4,11.9-19.5,13.6,2.7-3.2,5.9-6.2,8.2-9.6h0Z"/>
  <path class="st8" d="M84.5,412.8c-4.5-22.6-7.4-45.3-5.8-68.2.7-13.6,4.9-26.5,7.4-39.8,3.7-16.3-5.2-31.9-6.4-48-2.5-14.8,2.5-29.4,6.9-43.3-15.1,11.9-23,30.9-25.5,49.5l-.2.2c-2.7,16.6,8.7,32.4,4.5,49-2.7,13.8-5.9,27.9-5.9,42.3-1.1,22.4,3.2,44.2,8.7,65.8,5.5-2.4,11-4.9,16.4-7.4Z"/>
  <path class="st0" d="M112.8,265.5c-1.5-11.1,3.7-21.5,5.9-32.1,2.2,9.9,4.7,20.3,2.7,30.4-3,.7-5.9,1.2-8.7,1.5v.2Z"/>
</svg>