<?xml version="1.0" encoding="utf-8"?>
<svg xmlns="http://www.w3.org/2000/svg" height="512pt" version="1.1" viewBox="0 0 512 512" width="512pt">
<path d="M 0.00 0.00 L 512.00 0.00 L 512.00 512.00 L 0.00 512.00 L 0.00 0.00 Z" fill="transparent" opacity="1.00" stroke="transparent" stroke-width="0.25"/>
<path d="M 240.41 72.63 C 246.75 66.55 254.96 61.82 264.01 62.21 C 272.22 62.01 279.59 66.60 285.18 72.25 C 289.99 71.16 294.92 69.68 299.99 70.11 C 312.24 70.25 324.47 76.78 330.87 87.32 C 336.04 95.19 336.99 104.95 336.69 114.14 C 338.52 116.65 341.16 118.43 343.02 120.94 C 346.27 125.55 348.59 130.83 349.50 136.42 C 359.79 137.00 370.12 141.14 376.92 149.08 C 388.23 161.13 390.33 179.27 386.73 194.85 C 386.67 196.19 385.56 197.98 386.98 198.97 C 395.41 206.26 403.26 215.03 406.43 225.96 C 409.42 237.61 407.32 250.97 399.10 260.07 C 390.29 270.05 377.05 274.63 364.18 276.27 C 353.17 277.43 342.05 275.51 331.79 271.48 C 329.90 272.68 327.98 273.83 326.01 274.89 C 316.02 279.53 304.52 280.29 293.94 277.36 C 288.64 283.62 283.34 289.88 278.42 296.43 C 276.75 298.75 273.79 300.70 274.20 303.93 C 274.13 317.28 275.19 330.59 276.02 343.90 C 277.76 370.18 277.22 397.15 285.62 422.45 C 292.31 421.23 299.15 421.42 305.93 421.45 C 319.42 421.45 332.58 424.82 345.95 426.17 C 360.60 427.22 375.33 427.15 389.96 425.89 C 394.13 425.70 398.57 424.80 402.54 426.56 C 402.99 428.09 403.30 429.65 403.40 431.26 C 402.46 431.66 401.51 432.03 400.55 432.37 C 379.74 434.38 358.65 435.71 337.86 432.70 C 322.77 430.43 307.50 427.48 292.20 429.20 C 277.84 430.26 263.40 430.11 249.07 428.70 C 233.72 428.14 218.35 428.39 203.00 428.74 C 178.06 430.19 153.06 429.90 128.10 429.33 C 127.49 429.00 126.26 428.33 125.65 428.00 C 125.52 426.59 125.46 425.19 125.45 423.79 C 130.73 421.74 136.46 422.39 141.99 422.30 C 165.32 422.51 188.66 422.30 211.95 420.95 C 222.75 420.68 233.55 420.94 244.35 420.80 C 247.65 388.95 248.66 356.91 249.10 324.91 C 247.42 322.84 244.54 322.17 242.42 320.61 C 224.59 309.32 208.57 295.35 194.03 280.11 C 182.60 287.82 168.02 290.73 154.54 287.74 C 147.54 286.20 141.27 282.54 135.47 278.45 C 122.91 280.85 109.06 278.85 98.82 270.82 C 83.57 257.68 82.47 231.67 96.29 217.12 C 92.85 208.58 93.41 198.33 98.49 190.57 C 105.04 180.72 116.19 174.99 127.49 172.47 C 126.92 156.87 128.42 139.96 138.08 127.04 C 147.93 116.05 163.18 111.21 177.65 111.41 C 180.82 100.60 185.59 89.81 193.81 81.83 C 205.69 70.11 225.03 64.61 240.41 72.63 Z" fill="#073f64" opacity="1.00" stroke="#073f64" stroke-width="0.25"/>
<path d="M 242.17 81.70 C 246.47 76.34 251.91 71.29 258.93 70.07 C 268.22 67.87 278.06 72.86 282.97 80.79 C 288.57 79.20 294.13 76.90 300.08 77.37 C 309.81 77.67 319.88 82.48 324.84 91.12 C 329.64 98.82 329.93 108.31 329.16 117.09 C 337.54 123.20 343.44 133.13 343.00 143.70 C 351.86 143.11 361.23 144.95 368.23 150.70 C 376.62 157.13 380.32 167.80 381.13 178.02 C 381.49 185.77 379.82 193.40 378.14 200.92 C 386.57 207.38 394.66 215.05 398.58 225.15 C 402.21 235.17 401.00 247.47 393.58 255.50 C 385.66 263.84 374.16 267.77 362.95 268.92 C 351.66 270.37 340.52 267.04 329.97 263.40 C 321.72 270.97 309.76 272.73 299.01 271.23 C 306.60 262.98 314.10 254.61 320.83 245.65 C 330.97 247.58 341.26 246.61 351.48 246.35 C 352.26 245.52 353.03 244.68 353.81 243.84 C 352.21 242.43 350.17 241.76 348.06 241.76 C 341.25 241.49 334.41 242.31 327.61 241.49 C 333.64 239.57 339.17 236.40 345.14 234.33 C 354.44 230.82 364.42 229.69 373.84 226.63 C 375.95 226.33 375.82 223.98 376.19 222.40 C 368.79 220.68 361.29 222.91 354.12 224.67 C 344.94 226.92 336.29 230.77 327.63 234.46 C 335.55 224.47 344.22 215.12 352.53 205.47 C 355.16 202.45 358.12 199.66 360.22 196.22 C 361.14 195.00 360.50 193.48 360.40 192.13 C 358.52 192.29 356.70 192.90 355.38 194.29 C 349.69 199.54 344.95 205.76 339.25 211.01 C 342.03 204.29 345.13 197.67 347.52 190.79 C 348.16 189.26 347.16 187.92 346.00 187.04 C 341.36 194.30 338.58 202.62 333.99 209.94 C 329.08 217.84 325.84 226.73 319.97 234.02 C 311.24 245.17 301.91 255.85 292.11 266.07 C 291.32 266.68 290.62 268.20 289.39 267.68 C 283.39 264.41 279.56 258.65 274.84 253.93 C 279.85 241.57 285.93 229.67 291.44 217.54 C 292.56 214.45 295.70 213.01 297.95 210.87 C 303.51 205.80 308.75 200.37 313.60 194.62 C 319.77 188.09 326.41 181.88 331.28 174.26 C 332.28 172.54 331.40 170.47 330.08 169.20 C 321.14 176.50 313.79 185.51 305.85 193.84 C 302.17 198.16 297.83 201.86 294.05 206.10 C 296.07 199.49 298.91 193.15 301.71 186.84 C 302.18 185.25 300.64 183.94 299.14 184.06 C 297.07 185.38 296.14 187.78 294.88 189.78 C 290.49 197.81 287.16 206.44 285.18 215.37 C 279.13 226.27 273.99 237.66 267.76 248.46 C 266.37 233.03 265.39 217.53 264.95 202.07 C 270.36 190.88 276.28 179.90 281.22 168.49 C 286.58 167.18 290.58 163.08 294.50 159.46 C 297.91 155.45 301.70 151.67 304.42 147.13 C 305.37 144.76 301.88 143.88 300.65 145.60 C 295.88 149.94 291.54 154.74 286.73 159.06 C 291.02 147.99 296.83 137.49 300.20 126.04 C 300.69 124.48 300.40 122.75 299.19 121.59 C 296.82 121.05 295.88 123.38 295.07 125.10 C 289.62 137.25 284.38 149.50 278.30 161.35 C 276.31 165.18 273.39 168.39 270.76 171.78 C 268.56 174.40 266.49 177.25 263.60 179.18 C 262.52 169.49 262.53 159.73 261.89 150.01 C 261.43 146.00 263.56 142.38 264.39 138.57 C 267.10 127.55 270.95 116.83 273.40 105.74 C 272.42 105.03 270.29 103.86 269.61 105.53 C 265.72 113.32 263.28 121.75 260.45 129.96 C 259.11 133.60 258.40 137.52 256.31 140.83 C 252.76 131.08 249.03 121.38 245.14 111.76 C 244.42 110.23 243.54 107.57 241.33 108.34 C 239.77 108.31 240.24 110.57 240.54 111.52 C 244.05 123.61 248.59 135.44 253.68 146.92 C 254.00 154.12 253.73 161.35 253.31 168.55 C 247.96 156.34 241.41 144.50 232.64 134.38 C 231.49 133.26 230.60 130.37 228.56 131.57 C 228.26 131.93 227.68 132.65 227.39 133.01 C 230.82 139.97 235.45 146.24 239.17 153.03 C 242.76 159.68 246.48 166.24 250.15 172.84 C 251.38 175.13 253.55 177.11 253.58 179.87 C 254.31 188.59 255.07 197.30 256.06 205.99 C 256.49 209.31 255.84 212.63 255.61 215.95 C 254.63 227.86 253.97 239.79 253.42 251.73 C 250.52 251.62 247.63 251.56 244.74 251.58 C 238.16 238.11 232.18 224.31 224.55 211.38 C 221.03 203.54 218.52 195.28 215.74 187.15 C 215.18 185.16 214.11 183.11 214.71 180.99 C 216.46 174.08 217.82 167.08 219.81 160.23 C 220.48 158.60 220.03 156.93 219.53 155.34 C 218.57 155.40 217.62 155.45 216.66 155.51 C 213.73 161.17 212.16 167.41 210.98 173.64 C 207.93 164.08 205.28 154.38 201.91 144.92 C 201.53 143.42 200.33 142.41 199.26 141.39 C 198.60 141.78 197.29 142.55 196.63 142.94 C 200.51 162.05 206.78 180.53 213.05 198.95 C 216.07 207.22 219.28 215.51 220.59 224.27 C 216.66 215.77 211.85 207.49 204.92 201.09 C 194.31 191.38 185.34 179.89 173.77 171.25 C 172.54 170.16 170.84 170.32 169.32 170.12 C 169.37 171.96 168.80 174.16 170.49 175.45 C 182.34 187.30 193.99 199.36 205.92 211.12 C 209.91 216.82 213.24 223.02 216.19 229.31 C 206.54 224.61 197.16 219.14 186.89 215.87 C 184.45 214.85 182.72 218.41 184.54 220.07 C 187.92 223.01 192.29 224.42 196.15 226.61 C 204.51 230.54 212.20 235.90 220.98 238.92 C 223.79 245.65 227.16 252.14 229.84 258.93 C 224.68 263.42 220.25 268.87 214.44 272.54 C 210.09 274.92 205.03 275.00 200.21 274.76 C 190.97 264.99 182.08 254.88 172.62 245.31 C 171.78 244.36 170.74 243.37 170.73 242.00 C 169.93 234.74 168.13 227.63 166.07 220.63 C 165.37 218.67 164.42 215.87 161.78 216.39 C 159.70 216.99 160.43 219.44 160.52 221.00 C 160.99 224.77 162.10 228.42 162.50 232.20 C 156.47 223.44 150.50 214.49 142.81 207.07 C 141.94 206.34 141.10 205.34 139.87 205.32 C 138.21 204.85 137.99 207.12 137.18 208.00 C 140.54 213.17 144.59 217.83 148.06 222.94 C 155.18 232.42 160.89 242.87 168.06 252.32 C 151.15 248.47 135.68 240.40 119.56 234.29 C 118.41 235.80 117.32 238.41 119.43 239.66 C 123.86 242.79 129.01 244.71 133.85 247.10 C 147.53 253.14 161.61 259.24 176.66 260.62 C 180.78 265.16 184.72 269.86 189.01 274.25 C 181.39 279.97 171.42 282.03 162.04 281.53 C 152.69 280.99 144.23 276.43 137.06 270.68 C 126.10 273.21 113.76 272.51 104.32 265.87 C 97.30 260.95 94.36 252.15 93.77 243.93 C 93.62 237.09 95.28 230.00 99.36 224.41 C 100.89 222.24 102.71 220.30 104.41 218.27 C 100.79 210.89 99.62 201.53 104.52 194.44 C 111.36 184.63 123.36 180.17 134.80 178.63 C 134.58 166.91 134.23 154.94 137.56 143.57 C 139.46 137.00 143.19 130.69 149.02 126.91 C 158.85 120.21 171.31 117.57 183.04 119.36 C 186.11 107.50 189.98 94.92 199.38 86.46 C 207.40 78.88 219.03 74.81 230.01 76.71 C 234.31 77.68 238.29 79.68 242.17 81.70 Z" fill="#96ebff" opacity="1.00" stroke="#96ebff" stroke-width="0.25"/>
<path d="M 264.38 188.32 C 266.30 186.49 268.19 184.64 270.16 182.86 C 268.38 186.20 266.78 189.64 264.71 192.82 C 264.57 191.32 264.47 189.82 264.38 188.32 Z" fill="#96ebff" opacity="1.00" stroke="#96ebff" stroke-width="0.25"/>
<path d="M 224.51 220.04 C 230.16 230.96 235.46 242.05 240.84 253.11 C 244.36 260.09 247.53 267.34 252.22 273.64 C 253.33 273.62 254.44 273.60 255.56 273.59 C 256.52 260.65 257.06 247.67 258.43 234.77 C 259.51 248.22 261.11 261.63 262.83 275.01 C 266.67 303.56 267.00 332.39 269.42 361.06 C 269.63 378.84 271.51 396.59 275.08 414.01 C 275.80 416.82 276.41 419.65 276.74 422.54 C 268.87 422.49 260.95 422.77 253.14 421.52 C 254.42 392.70 256.76 363.92 256.50 335.03 C 256.60 319.48 256.82 303.92 256.66 288.37 C 254.87 287.57 253.06 286.66 251.91 285.01 C 243.84 274.64 238.28 262.67 231.66 251.39 C 229.62 246.72 226.38 242.33 226.20 237.06 C 225.66 231.38 224.41 225.77 224.51 220.04 Z" fill="#7c615f" opacity="1.00" stroke="#7c615f" stroke-width="0.25"/>
<path d="M 247.92 259.17 C 249.51 259.21 251.11 259.27 252.71 259.33 C 252.49 262.15 252.35 264.99 252.28 267.83 C 250.99 264.86 249.41 262.03 247.92 259.17 Z" fill="#ffffff" opacity="1.00" stroke="#ffffff" stroke-width="0.25"/>
<path d="M 269.76 266.83 C 270.07 264.76 271.17 262.92 272.30 261.20 C 276.07 265.86 280.49 269.88 285.00 273.81 C 280.57 277.76 276.54 282.13 272.01 285.97 C 271.30 279.59 270.41 273.22 269.76 266.83 Z" fill="#ffffff" opacity="1.00" stroke="#ffffff" stroke-width="0.25"/>
<path d="M 217.09 279.17 C 223.29 275.92 227.53 270.14 232.96 265.86 C 238.19 274.38 242.58 283.58 249.55 290.88 C 250.01 298.20 249.58 305.55 249.43 312.87 C 238.05 307.41 228.05 299.55 218.14 291.83 C 214.54 288.54 210.57 285.64 207.32 281.99 C 210.68 281.50 214.11 280.89 217.09 279.17 Z" fill="#ffffff" opacity="1.00" stroke="#ffffff" stroke-width="0.25"/>
</svg>