<?xml version="1.0" encoding="utf-8"?>
<svg xmlns="http://www.w3.org/2000/svg" height="512pt" version="1.1" viewBox="0 0 512 512" width="512pt">
<path d="M 0.00 0.00 L 512.00 0.00 L 512.00 512.00 L 0.00 512.00 L 0.00 0.00 Z" fill="transparent" opacity="1.00" stroke="transparent" stroke-width="0.25"/>
<path d="M 212.81 173.60 C 234.64 166.92 258.09 167.30 280.30 171.84 C 298.54 175.71 315.98 183.38 331.06 194.37 C 343.08 191.17 351.63 180.58 363.85 177.79 C 374.11 174.86 384.83 176.88 395.03 178.99 C 403.51 180.41 408.57 189.09 409.64 197.02 C 410.84 205.09 409.69 214.56 403.23 220.24 C 394.18 229.03 383.46 236.06 372.06 241.39 C 376.22 244.69 380.72 247.73 383.77 252.18 C 392.74 264.08 394.85 279.51 395.04 294.00 C 394.63 307.57 392.45 321.63 385.30 333.41 C 381.44 339.96 374.07 345.94 366.02 344.08 C 361.55 343.31 359.54 338.67 358.53 334.76 C 354.54 318.56 354.83 301.60 350.31 285.51 C 348.25 279.27 345.61 272.65 340.12 268.66 C 328.87 282.99 310.53 289.30 293.04 291.63 C 289.00 292.43 284.82 292.09 280.80 292.84 C 272.52 305.33 264.25 317.98 253.77 328.78 C 241.86 340.17 228.55 350.39 213.49 357.25 C 204.44 360.81 194.95 364.55 185.03 363.69 C 181.41 363.42 177.55 361.16 176.76 357.41 C 175.47 352.49 177.34 347.53 179.28 343.07 C 185.98 328.22 195.06 314.63 204.15 301.17 C 206.39 297.82 209.00 294.65 210.54 290.89 C 190.67 288.94 170.92 285.16 151.95 278.81 C 150.49 277.96 149.51 279.85 148.49 280.56 C 140.46 288.80 130.39 295.72 118.79 297.49 C 102.50 300.05 84.31 294.31 74.08 280.97 C 72.02 277.87 69.75 274.28 70.32 270.39 C 72.12 267.28 76.41 268.10 79.39 267.13 C 95.27 263.38 111.23 258.63 125.27 250.12 C 124.57 243.45 126.29 236.94 129.76 231.26 C 123.74 226.78 118.77 219.92 119.28 212.09 C 119.16 210.11 120.26 206.81 122.82 207.82 C 130.60 210.72 138.68 213.23 147.02 213.60 C 150.34 212.00 152.58 208.73 155.44 206.43 C 172.13 191.88 191.31 179.55 212.81 173.60 Z" fill="#032d53" opacity="1.00" stroke="#032d53" stroke-width="0.25"/>
<path d="M 243.85 177.95 C 246.87 177.46 249.92 177.20 252.98 177.35 C 268.33 178.12 284.09 179.86 298.05 186.74 C 290.66 186.32 283.28 186.26 275.89 186.55 C 276.93 186.21 277.95 185.83 278.98 185.46 C 269.74 183.61 260.12 182.21 250.78 184.28 C 247.89 183.35 245.75 180.33 243.85 177.95 Z" fill="#348647" opacity="1.00" stroke="#348647" stroke-width="0.25"/>
<path d="M 219.23 181.29 C 224.05 180.07 228.93 178.52 233.95 178.73 C 236.18 180.49 236.49 183.85 237.83 186.31 C 237.45 186.31 236.70 186.32 236.32 186.32 C 232.15 185.41 227.84 184.81 223.59 185.55 C 222.09 185.48 221.21 186.69 220.82 187.98 C 219.98 185.83 219.50 183.58 219.23 181.29 Z" fill="#348647" opacity="1.00" stroke="#348647" stroke-width="0.25"/>
<path d="M 250.78 184.28 C 260.12 182.21 269.74 183.61 278.98 185.46 C 277.95 185.83 276.93 186.21 275.89 186.55 C 269.87 187.28 263.94 188.54 257.96 189.52 C 255.05 188.91 252.97 186.18 250.78 184.28 Z" fill="#71d648" opacity="1.00" stroke="#71d648" stroke-width="0.25"/>
<path d="M 198.39 188.50 C 203.01 186.45 207.69 184.13 212.82 183.80 C 212.88 185.73 212.96 187.66 213.07 189.60 C 197.74 191.01 186.70 203.52 178.46 215.40 C 175.31 220.91 170.89 226.96 172.42 233.65 C 174.50 238.94 180.76 240.60 185.95 240.39 C 184.75 245.35 183.91 250.41 183.34 255.49 C 173.11 255.71 162.89 252.87 154.11 247.64 C 163.90 228.43 176.99 211.18 189.96 194.04 C 192.00 191.22 195.40 190.03 198.39 188.50 Z" fill="#348647" opacity="1.00" stroke="#348647" stroke-width="0.25"/>
<path d="M 223.59 185.55 C 227.84 184.81 232.15 185.41 236.32 186.32 C 231.90 189.22 226.58 190.52 221.35 190.82 C 221.22 190.11 220.95 188.69 220.82 187.98 C 221.21 186.69 222.09 185.48 223.59 185.55 Z" fill="#71d648" opacity="1.00" stroke="#71d648" stroke-width="0.25"/>
<path d="M 368.38 185.57 C 377.25 184.07 386.06 186.42 394.89 186.96 C 399.33 189.64 401.65 194.91 401.84 199.97 C 402.31 205.33 401.17 211.28 397.10 215.10 C 392.83 219.01 387.76 221.88 382.79 224.79 C 374.98 229.35 366.96 233.75 358.22 236.25 C 352.48 238.14 346.21 238.72 341.02 242.05 C 336.16 245.12 330.91 248.24 324.98 248.32 C 317.76 247.81 312.10 242.01 309.24 235.72 C 305.51 228.42 305.24 219.99 305.69 211.97 C 305.92 210.69 305.87 208.80 307.27 208.19 C 314.92 204.26 323.94 205.82 331.88 202.81 C 344.58 198.24 355.05 188.59 368.38 185.57 Z" fill="#71d648" opacity="1.00" stroke="#71d648" stroke-width="0.25"/>
<path d="M 178.46 215.40 C 186.70 203.52 197.74 191.01 213.07 189.60 C 213.39 192.28 213.63 194.96 213.80 197.65 C 206.16 203.04 200.40 210.60 195.47 218.44 C 191.37 225.30 187.87 232.60 185.95 240.39 C 180.76 240.60 174.50 238.94 172.42 233.65 C 170.89 226.96 175.31 220.91 178.46 215.40 Z" fill="#71d648" opacity="1.00" stroke="#71d648" stroke-width="0.25"/>
<path d="M 370.42 189.52 C 375.49 187.96 380.98 192.81 380.29 198.01 C 380.04 203.93 371.93 207.78 367.54 203.42 C 362.62 199.70 364.46 190.97 370.42 189.52 Z" fill="#032d53" opacity="1.00" stroke="#032d53" stroke-width="0.25"/>
<path d="M 221.59 199.58 C 229.21 197.80 236.77 195.65 243.85 192.21 C 245.80 194.18 248.26 195.75 249.71 198.16 C 249.39 200.45 248.46 202.59 247.75 204.78 C 245.30 211.71 243.78 218.91 242.01 226.03 C 232.14 231.93 222.23 238.47 210.79 240.82 C 208.41 241.20 205.85 241.35 203.61 240.31 C 201.13 237.30 202.71 233.12 203.87 229.89 C 206.07 224.18 208.41 218.53 210.99 212.98 C 213.23 207.59 218.06 204.06 221.59 199.58 Z" fill="#71d648" opacity="1.00" stroke="#71d648" stroke-width="0.25"/>
<path d="M 275.84 194.00 C 281.11 192.49 286.83 193.07 292.28 193.05 C 289.94 195.86 286.67 197.60 283.89 199.90 C 276.91 205.54 270.68 212.02 263.87 217.87 C 260.12 221.20 256.47 224.75 251.95 227.05 C 252.07 223.90 252.36 220.75 253.11 217.69 C 257.91 216.12 261.68 212.63 265.64 209.66 C 271.34 205.66 275.89 200.27 278.87 193.98 C 278.12 193.99 276.60 194.00 275.84 194.00 Z" fill="#348647" opacity="1.00" stroke="#348647" stroke-width="0.25"/>
<path d="M 294.24 198.24 C 299.81 194.63 306.51 193.07 313.05 192.56 C 314.86 192.41 318.33 193.23 317.62 195.65 C 311.87 197.69 305.45 198.59 300.66 202.68 C 295.08 207.45 291.15 213.80 285.72 218.73 C 276.66 227.09 267.31 235.26 256.77 241.74 C 250.03 245.87 243.48 250.33 237.35 255.33 C 233.86 258.18 231.14 261.99 227.10 264.13 C 219.20 268.39 210.47 270.80 201.77 272.77 C 192.67 274.83 183.28 274.71 174.01 274.39 C 161.85 273.28 149.38 269.25 140.62 260.39 C 134.83 254.97 132.08 246.21 134.63 238.58 C 135.51 235.14 137.71 231.97 141.10 230.62 C 140.22 238.32 141.18 247.16 147.50 252.46 C 157.24 260.70 170.38 264.33 183.00 263.87 C 196.29 264.07 209.03 259.36 220.97 253.97 C 234.21 247.08 246.13 237.99 258.01 229.03 C 265.03 223.78 271.75 218.13 278.27 212.27 C 283.36 207.35 288.51 202.43 294.24 198.24 Z" fill="#71d648" opacity="1.00" stroke="#71d648" stroke-width="0.25"/>
<path d="M 256.28 198.16 C 262.67 196.25 269.24 194.92 275.84 194.00 C 276.60 194.00 278.12 193.99 278.87 193.98 C 275.89 200.27 271.34 205.66 265.64 209.66 C 261.68 212.63 257.91 216.12 253.11 217.69 C 253.93 211.14 255.19 204.66 256.28 198.16 Z" fill="#71d648" opacity="1.00" stroke="#71d648" stroke-width="0.25"/>
<path d="M 151.12 222.13 C 158.19 213.12 167.81 206.67 177.13 200.23 C 175.19 204.92 171.68 208.68 168.79 212.79 C 162.15 221.15 156.12 229.99 149.71 238.53 C 149.43 238.50 148.86 238.44 148.57 238.41 C 147.24 233.00 147.51 226.65 151.12 222.13 Z" fill="#348647" opacity="1.00" stroke="#348647" stroke-width="0.25"/>
<path d="M 207.62 216.56 C 208.43 215.10 209.71 214.01 210.99 212.98 C 208.41 218.53 206.07 224.18 203.87 229.89 C 202.71 233.12 201.13 237.30 203.61 240.31 C 205.85 241.35 208.41 241.20 210.79 240.82 C 222.23 238.47 232.14 231.93 242.01 226.03 C 241.58 228.93 241.15 231.83 240.77 234.74 C 232.58 240.78 223.26 245.13 213.87 248.94 C 207.42 251.40 200.79 253.94 193.80 254.14 C 195.54 240.81 200.67 228.03 207.62 216.56 Z" fill="#348647" opacity="1.00" stroke="#348647" stroke-width="0.25"/>
<path d="M 272.00 239.78 C 281.99 233.22 291.35 225.55 298.57 215.93 C 297.71 226.38 300.30 237.08 306.32 245.71 C 310.57 251.13 316.77 255.96 324.00 255.73 C 329.08 255.93 333.67 253.50 338.40 252.04 C 337.66 259.68 332.13 265.88 325.99 269.99 C 314.50 277.30 300.98 280.65 287.60 282.25 C 289.47 275.56 292.99 269.20 292.74 262.06 C 293.47 254.76 290.38 246.94 284.00 243.02 C 280.50 240.55 276.13 240.16 272.00 239.78 Z" fill="#71d648" opacity="1.00" stroke="#71d648" stroke-width="0.25"/>
<path d="M 242.10 262.12 C 250.75 254.00 261.62 246.68 274.01 247.29 C 279.25 246.97 283.96 251.73 283.76 256.94 C 285.03 268.36 278.15 278.22 272.41 287.41 C 265.74 297.31 259.32 307.45 251.54 316.53 C 243.42 325.48 234.11 333.31 224.20 340.19 C 213.83 347.25 202.07 352.15 189.91 355.13 C 188.21 355.54 186.44 355.34 184.72 355.27 C 184.86 348.71 188.04 342.82 191.33 337.33 C 201.96 319.44 214.49 302.70 224.37 284.36 C 228.92 275.98 234.63 268.12 242.10 262.12 Z" fill="#71d648" opacity="1.00" stroke="#71d648" stroke-width="0.25"/>
<path d="M 347.37 248.15 C 352.37 246.01 358.03 248.07 362.69 250.23 C 374.43 256.07 382.19 268.20 383.89 281.07 C 386.05 297.83 383.83 315.62 375.46 330.50 C 374.04 333.29 370.80 334.01 368.07 334.86 C 365.86 329.47 365.93 323.57 365.02 317.90 C 363.31 303.87 363.11 289.37 357.98 276.02 C 355.67 269.59 350.96 264.41 345.49 260.48 C 345.62 256.39 347.81 252.40 347.37 248.15 Z" fill="#348647" opacity="1.00" stroke="#348647" stroke-width="0.25"/>
<path d="M 122.30 262.24 C 124.68 261.05 127.07 259.84 129.65 259.15 C 133.43 264.07 137.93 268.34 142.64 272.34 C 142.62 272.66 142.58 273.29 142.56 273.61 C 135.80 280.48 126.99 285.30 117.56 287.32 C 106.52 289.24 94.80 286.81 85.50 280.54 C 83.36 279.09 81.38 277.36 80.00 275.16 C 94.73 273.39 108.87 268.41 122.30 262.24 Z" fill="#71d648" opacity="1.00" stroke="#71d648" stroke-width="0.25"/>
<path d="M 195.77 281.48 C 203.65 280.82 211.26 278.73 218.93 276.93 C 218.00 279.08 216.94 281.17 215.90 283.28 C 209.18 283.73 202.32 282.93 195.77 281.48 Z" fill="#71d648" opacity="1.00" stroke="#71d648" stroke-width="0.25"/>
</svg>