<?xml version="1.0" encoding="utf-8"?>
<svg xmlns="http://www.w3.org/2000/svg" height="512pt" version="1.1" viewBox="0 0 512 512" width="512pt">
<path d="M 0.00 0.00 L 512.00 0.00 L 512.00 512.00 L 0.00 512.00 L 0.00 0.00 Z" fill="transparent" opacity="1.00" stroke="transparent" stroke-width="0.25"/>
<path d="M 156.89 146.97 C 159.78 147.45 161.83 149.60 164.04 151.31 C 162.35 152.53 160.60 151.61 159.30 150.35 C 159.26 151.71 159.09 153.11 159.31 154.47 C 160.87 154.19 162.41 154.41 163.96 154.69 C 164.28 157.65 167.30 158.94 168.60 161.37 C 170.13 164.12 172.36 166.71 172.56 169.99 C 172.78 172.69 172.77 175.42 172.49 178.12 C 171.65 183.27 167.06 187.37 161.97 188.15 C 158.43 188.73 154.83 188.56 151.27 188.53 C 151.27 193.61 151.39 198.69 151.66 203.77 C 149.73 203.80 147.80 203.82 145.88 203.83 C 145.04 201.88 145.49 198.54 142.88 198.02 C 139.14 196.67 135.40 199.67 133.99 203.00 C 130.12 209.97 133.98 218.56 139.70 223.24 C 137.13 228.83 134.40 234.36 131.09 239.55 C 129.86 239.17 128.63 238.74 127.36 238.51 C 125.47 240.19 124.13 242.35 122.64 244.36 C 120.41 242.59 118.42 240.43 115.84 239.17 C 113.52 239.66 111.77 241.44 109.81 242.67 C 105.69 234.26 101.32 225.96 97.69 217.32 C 96.07 213.78 95.94 209.40 92.73 206.77 C 92.28 203.13 90.21 198.52 93.29 195.55 C 93.43 195.15 93.72 194.35 93.87 193.95 C 93.87 192.13 91.82 190.99 92.29 189.11 C 92.77 185.02 94.27 181.09 96.39 177.57 C 99.04 173.70 103.48 171.48 107.98 170.51 C 110.12 167.50 112.64 164.51 116.19 163.15 C 125.03 159.59 134.76 160.25 144.08 159.64 C 147.87 159.04 152.12 158.71 155.12 156.04 C 157.66 153.75 156.70 149.95 156.89 146.97 Z" fill="#714e4b" opacity="1.00" stroke="#714e4b" stroke-width="0.25"/>
<path d="M 169.35 160.22 C 169.79 160.02 170.66 159.61 171.09 159.41 C 172.85 163.47 175.41 167.39 175.37 171.98 C 175.84 178.30 172.68 184.52 167.54 188.14 C 168.65 193.35 169.72 198.60 169.69 203.96 C 169.40 209.51 173.20 214.04 174.59 219.22 C 172.75 220.10 170.78 220.65 168.76 220.91 C 167.45 229.35 165.44 238.07 160.15 245.00 C 159.46 245.99 158.30 247.13 156.96 246.60 C 153.35 245.75 149.93 244.26 146.45 243.01 C 145.22 246.53 144.92 250.36 143.67 253.81 C 142.15 253.50 142.94 251.14 142.73 250.04 C 143.48 247.01 144.29 244.00 145.10 240.99 C 149.48 241.87 153.50 244.04 157.90 244.80 C 159.75 243.27 160.71 240.97 161.78 238.88 C 167.32 227.00 168.20 213.56 167.82 200.63 C 163.66 201.06 159.46 201.25 155.29 200.82 C 155.35 199.74 155.41 198.65 155.47 197.57 C 159.49 197.23 163.51 196.98 167.54 196.75 C 167.02 194.32 166.53 191.88 166.04 189.44 C 161.59 190.12 157.10 190.43 152.61 190.30 C 152.80 194.60 153.16 198.89 153.43 203.19 C 153.06 203.80 152.33 205.04 151.96 205.65 C 149.56 205.73 147.15 205.71 144.75 205.61 C 144.78 211.26 146.33 216.68 147.34 222.18 C 146.67 222.72 145.33 223.81 144.66 224.36 C 146.21 220.19 143.86 216.20 143.52 212.08 C 142.92 208.03 143.66 203.95 143.41 199.89 C 141.75 199.49 139.77 198.92 138.39 200.32 C 130.42 206.25 134.81 221.71 144.85 222.17 C 143.72 222.77 142.59 223.36 141.46 223.93 C 138.13 229.89 135.79 236.49 131.23 241.68 C 129.98 241.21 128.74 240.75 127.50 240.28 C 126.42 242.16 125.30 244.01 124.18 245.87 C 120.52 245.83 118.12 242.83 115.46 240.76 C 113.46 242.41 111.21 243.68 109.07 245.11 C 107.85 247.48 107.32 250.12 106.52 252.65 C 109.61 253.20 112.71 253.69 115.84 254.00 C 118.72 255.35 121.96 254.38 125.01 254.63 C 130.72 254.94 136.45 254.62 142.15 254.79 C 147.40 256.21 152.71 257.50 157.95 258.99 C 165.18 261.01 172.82 261.96 179.51 265.55 C 191.94 271.76 201.68 282.18 209.52 293.45 C 216.82 303.31 222.94 314.07 230.93 323.40 C 231.64 324.46 232.41 325.53 232.83 326.76 C 230.61 330.96 227.21 334.38 224.12 337.94 C 225.05 340.52 226.03 343.09 227.00 345.66 C 236.81 340.77 246.20 334.59 253.10 325.93 C 255.88 322.32 260.62 321.54 264.91 322.02 C 264.95 317.80 263.22 313.25 265.58 309.37 C 268.79 310.02 272.21 310.23 275.17 311.75 C 277.98 314.95 279.84 319.00 283.39 321.55 C 282.56 316.49 280.53 311.58 277.27 307.59 C 276.34 306.19 274.55 306.03 273.04 305.81 C 267.28 304.99 261.37 306.47 256.31 309.23 C 253.18 311.00 251.34 314.30 248.41 316.31 C 244.55 318.27 240.20 318.91 236.13 320.31 C 234.51 320.80 232.89 321.29 231.27 321.78 C 230.55 321.19 229.83 320.61 229.11 320.03 C 234.99 318.77 240.79 317.18 246.49 315.27 C 249.80 314.18 250.92 310.36 253.84 308.65 C 259.43 305.02 266.35 303.11 273.01 304.05 C 274.80 304.29 276.94 304.21 278.13 305.86 C 281.62 309.94 283.81 314.96 285.31 320.08 C 285.06 320.81 284.56 322.26 284.31 322.98 C 281.69 322.93 279.85 321.20 278.36 319.23 C 278.50 322.74 280.40 326.94 277.53 329.84 C 285.49 338.42 293.04 347.37 300.72 356.20 C 304.90 360.95 308.72 366.04 313.30 370.42 C 313.44 369.49 313.70 367.62 313.84 366.69 C 316.52 367.83 319.30 368.88 321.51 370.86 C 321.91 369.29 322.30 367.72 322.69 366.16 C 323.22 366.24 324.28 366.39 324.81 366.47 C 324.65 367.36 324.32 369.13 324.16 370.02 C 325.13 371.23 326.06 372.48 326.98 373.74 C 332.44 371.34 337.25 367.53 343.03 365.87 C 349.80 363.32 355.34 373.75 350.31 378.45 C 340.07 390.12 328.19 400.38 315.46 409.25 C 313.12 411.42 309.98 410.07 308.35 407.79 C 305.01 403.29 302.71 397.97 298.29 394.33 C 296.93 395.33 294.92 398.00 293.24 396.00 C 286.35 389.28 279.42 382.61 272.43 376.01 C 272.22 391.35 272.33 406.68 272.28 422.02 C 272.09 425.23 271.14 429.18 268.09 430.85 C 240.13 442.93 212.19 455.26 183.08 464.37 C 179.48 465.43 175.78 466.74 171.97 466.15 C 134.36 462.13 96.77 457.97 59.20 453.67 C 53.99 452.95 48.73 452.59 43.60 451.44 C 42.34 448.46 41.52 445.27 41.57 442.03 C 41.61 392.68 41.56 343.33 41.60 293.99 C 41.77 291.16 41.88 288.05 43.66 285.70 C 46.62 282.37 51.01 281.17 55.10 279.89 C 58.84 273.30 62.41 266.24 68.56 261.50 C 74.79 256.83 82.66 255.40 90.15 254.08 C 95.06 253.25 99.97 252.23 104.97 252.19 C 105.58 248.79 107.69 245.45 107.14 241.99 C 102.48 230.20 94.90 219.50 92.73 206.77 C 95.94 209.40 96.07 213.78 97.69 217.32 C 101.32 225.96 105.69 234.26 109.81 242.67 C 111.77 241.44 113.52 239.66 115.84 239.17 C 118.42 240.43 120.41 242.59 122.64 244.36 C 124.13 242.35 125.47 240.19 127.36 238.51 C 128.63 238.74 129.86 239.17 131.09 239.55 C 134.40 234.36 137.13 228.83 139.70 223.24 C 133.98 218.56 130.12 209.97 133.99 203.00 C 135.40 199.67 139.14 196.67 142.88 198.02 C 145.49 198.54 145.04 201.88 145.88 203.83 C 147.80 203.82 149.73 203.80 151.66 203.77 C 151.39 198.69 151.27 193.61 151.27 188.53 C 154.83 188.56 158.43 188.73 161.97 188.15 C 167.06 187.37 171.65 183.27 172.49 178.12 C 172.97 175.11 172.88 172.02 172.54 169.00 C 172.07 165.90 169.45 163.33 169.35 160.22 Z" fill="#032c4c" opacity="1.00" stroke="#032c4c" stroke-width="0.25"/>
<path d="M 152.61 190.30 C 157.10 190.43 161.59 190.12 166.04 189.44 C 166.53 191.88 167.02 194.32 167.54 196.75 C 163.51 196.98 159.49 197.23 155.47 197.57 C 155.41 198.65 155.35 199.74 155.29 200.82 C 159.46 201.25 163.66 201.06 167.82 200.63 C 168.20 213.56 167.32 227.00 161.78 238.88 C 160.71 240.97 159.75 243.27 157.90 244.80 C 153.50 244.04 149.48 241.87 145.10 240.99 C 144.29 244.00 143.48 247.01 142.73 250.04 C 142.39 251.36 142.04 252.69 141.71 254.03 C 133.10 254.61 124.45 254.37 115.84 254.00 C 112.71 253.69 109.61 253.20 106.52 252.65 C 107.32 250.12 107.85 247.48 109.07 245.11 C 111.21 243.68 113.46 242.41 115.46 240.76 C 118.12 242.83 120.52 245.83 124.18 245.87 C 125.30 244.01 126.42 242.16 127.50 240.28 C 128.74 240.75 129.98 241.21 131.23 241.68 C 135.79 236.49 138.13 229.89 141.46 223.93 C 142.59 223.36 143.72 222.77 144.85 222.17 C 134.81 221.71 130.42 206.25 138.39 200.32 C 139.77 198.92 141.75 199.49 143.41 199.89 C 143.66 203.95 142.92 208.03 143.52 212.08 C 143.86 216.20 146.21 220.19 144.66 224.36 C 145.33 223.81 146.67 222.72 147.34 222.18 C 146.33 216.68 144.78 211.26 144.75 205.61 C 147.15 205.71 149.56 205.73 151.96 205.65 C 152.33 205.04 153.06 203.80 153.43 203.19 C 153.16 198.89 152.80 194.60 152.61 190.30 Z" fill="#fec9ac" opacity="1.00" stroke="#fec9ac" stroke-width="0.25"/>
<path d="M 325.53 198.98 C 325.37 196.04 328.09 193.59 330.98 193.82 C 378.31 197.54 425.67 201.10 473.00 204.85 C 475.90 204.80 479.15 206.75 479.09 209.95 C 479.23 237.66 479.10 265.37 479.16 293.07 C 479.35 294.75 478.60 296.36 477.32 297.42 C 473.89 298.11 470.36 297.63 466.91 297.38 C 453.57 295.91 440.17 295.13 426.82 293.86 C 430.72 296.34 435.27 297.42 439.85 297.58 C 440.95 297.97 443.77 297.12 443.72 298.79 C 441.62 299.69 439.18 299.30 436.94 299.53 C 437.85 299.83 438.77 300.13 439.67 300.49 C 441.59 301.25 443.49 302.06 445.40 302.85 C 445.47 303.31 445.62 304.22 445.70 304.67 C 416.90 302.14 388.10 299.64 359.32 296.91 C 362.03 293.23 367.22 294.26 371.19 293.41 C 364.82 292.96 358.50 291.59 352.11 291.65 C 341.61 293.63 331.25 296.37 320.78 298.50 C 358.88 302.07 396.93 306.31 435.06 309.69 C 439.09 309.87 442.95 308.47 446.83 307.58 C 454.05 305.63 461.40 304.20 468.58 302.15 C 460.38 301.39 452.20 300.41 443.97 299.94 L 444.52 299.60 C 447.00 297.80 450.14 298.67 452.94 298.84 C 459.73 299.71 466.66 299.69 473.36 301.24 C 473.33 303.42 473.34 305.61 473.39 307.80 C 469.71 309.36 465.70 309.80 461.88 310.89 C 461.57 324.07 462.08 337.26 461.58 350.44 C 460.55 350.40 458.49 350.31 457.46 350.27 C 457.26 346.37 457.39 342.47 457.26 338.58 C 450.07 340.23 442.83 341.66 435.56 342.93 C 435.43 347.50 435.47 352.07 435.49 356.64 C 434.28 356.89 433.07 357.14 431.87 357.39 C 431.63 356.85 431.14 355.78 430.90 355.25 C 430.94 351.03 430.97 346.82 430.79 342.61 C 405.96 339.67 381.09 337.17 356.25 334.41 C 356.23 336.78 356.22 339.16 356.20 341.54 C 354.71 341.55 353.22 341.56 351.74 341.55 C 351.64 339.08 351.62 336.61 351.69 334.14 C 344.72 333.52 337.79 332.24 330.78 332.29 C 330.93 337.00 331.02 341.72 330.72 346.43 C 329.33 346.38 327.95 346.34 326.57 346.29 C 326.25 332.74 326.53 319.19 326.46 305.63 C 322.89 305.25 319.33 304.83 315.79 304.23 C 316.11 302.12 315.10 299.52 316.62 297.78 C 328.39 294.85 340.27 292.33 352.12 289.76 C 359.76 290.07 367.36 291.62 375.04 291.75 C 378.12 291.55 381.10 290.70 384.16 290.29 C 365.46 288.09 346.62 287.39 327.93 285.19 C 325.90 284.82 325.32 282.90 325.48 281.08 C 325.47 253.71 325.43 226.34 325.53 198.98 Z" fill="#032c4c" opacity="1.00" stroke="#032c4c" stroke-width="0.25"/>
<path d="M 328.69 195.56 C 377.39 199.15 426.07 203.08 474.76 206.85 C 474.88 235.80 474.83 264.76 474.79 293.71 C 474.12 293.75 472.78 293.83 472.10 293.88 C 472.21 265.44 471.98 237.00 472.22 208.57 C 443.49 206.26 414.75 204.04 386.01 201.92 C 370.90 200.77 355.79 199.11 340.66 198.50 L 340.02 199.22 L 339.47 199.88 C 336.81 199.95 334.16 199.69 331.51 199.46 L 331.14 199.42 C 333.35 199.31 335.90 200.35 337.83 198.90 C 337.86 198.67 337.90 198.20 337.93 197.97 C 335.19 197.80 332.45 197.70 329.71 197.71 C 329.59 225.74 329.88 253.78 329.57 281.81 C 328.98 281.82 327.80 281.83 327.21 281.84 C 327.19 254.89 327.23 227.94 327.20 200.98 C 327.01 199.03 327.76 197.23 328.69 195.56 Z" fill="#80e5fe" opacity="1.00" stroke="#80e5fe" stroke-width="0.25"/>
<path d="M 331.51 199.46 C 334.16 199.69 336.81 199.95 339.47 199.88 C 383.11 203.66 426.82 206.64 470.46 210.37 C 470.31 238.14 470.39 265.91 470.43 293.69 C 424.12 289.58 377.78 285.86 331.48 281.67 C 331.47 254.27 331.49 226.86 331.51 199.46 Z" fill="#ffffff" opacity="1.00" stroke="#ffffff" stroke-width="0.25"/>
<path d="M 161.54 203.74 C 162.52 203.69 163.50 203.64 164.49 203.60 C 164.41 205.55 165.19 208.07 162.77 208.95 C 162.16 207.26 161.76 205.51 161.54 203.74 Z" fill="#032c4c" opacity="1.00" stroke="#032c4c" stroke-width="0.25"/>
<path d="M 356.42 213.47 C 363.03 206.83 373.23 205.44 382.11 207.09 C 388.93 208.19 395.53 211.75 399.38 217.60 C 402.88 223.42 402.60 230.57 401.53 237.04 C 404.98 234.10 408.62 230.76 413.40 230.46 C 413.98 235.04 413.41 239.65 412.63 244.16 C 417.80 247.64 423.23 250.87 427.49 255.51 C 427.27 259.85 425.41 263.83 423.91 267.83 C 422.87 270.28 421.81 272.94 419.60 274.57 C 417.32 276.29 413.79 274.76 412.73 272.30 C 411.01 268.37 410.38 264.09 409.18 260.00 C 405.27 259.06 402.20 256.07 401.17 252.18 C 396.42 255.54 391.42 258.80 385.79 260.44 C 382.50 266.15 378.80 271.63 374.84 276.89 C 373.18 278.62 371.15 281.30 368.43 280.49 C 365.55 278.86 363.62 276.06 361.51 273.60 C 354.12 264.55 348.14 253.81 346.88 242.03 C 345.91 231.80 348.59 220.57 356.42 213.47 Z" fill="#032c4c" opacity="1.00" stroke="#032c4c" stroke-width="0.25"/>
<path d="M 371.49 208.11 C 380.54 207.90 390.92 209.55 396.87 217.09 C 401.52 222.79 400.77 230.58 399.87 237.39 C 398.53 237.59 397.20 237.81 395.87 238.04 C 392.52 234.34 389.05 229.07 383.45 229.27 C 382.49 231.36 382.88 233.73 382.83 235.96 C 383.10 243.92 382.35 251.98 383.99 259.84 C 383.07 262.12 381.47 264.03 380.15 266.08 C 377.05 270.53 374.58 275.69 369.97 278.83 C 368.14 278.97 367.16 277.05 365.94 276.02 C 356.87 266.07 349.45 253.64 348.49 239.95 C 348.30 231.74 350.03 222.89 355.81 216.71 C 359.13 212.41 364.17 209.96 369.33 208.60 L 369.80 210.05 C 368.47 210.44 367.23 211.01 366.08 211.79 C 366.46 212.20 367.23 213.03 367.61 213.45 C 367.41 213.67 367.00 214.11 366.80 214.32 C 366.51 213.63 365.95 212.25 365.67 211.56 C 362.88 212.34 362.14 214.89 362.14 217.50 C 358.81 218.71 354.94 219.92 353.54 223.56 C 355.61 223.78 357.68 223.97 359.76 224.19 C 359.44 225.33 359.05 226.44 358.58 227.53 C 356.27 228.49 353.11 228.08 351.58 230.43 C 350.25 231.98 351.65 233.82 352.49 235.21 C 352.67 235.50 353.03 236.08 353.20 236.37 C 353.74 240.27 355.34 243.88 357.38 247.21 C 354.81 251.72 357.61 258.26 363.06 258.47 C 365.76 259.07 367.65 256.85 369.38 255.19 C 370.11 250.68 367.66 246.43 363.41 244.81 C 362.58 240.01 363.68 235.15 366.09 230.96 C 368.04 230.54 369.99 230.05 371.86 229.32 C 370.94 227.40 368.59 226.08 368.24 224.00 C 369.94 221.71 372.90 220.53 374.77 218.29 C 372.84 215.20 372.59 211.51 371.49 208.11 Z" fill="#80e5fe" opacity="1.00" stroke="#80e5fe" stroke-width="0.25"/>
<path d="M 169.50 211.78 C 170.41 213.86 171.31 215.96 171.95 218.14 C 171.27 218.33 169.93 218.71 169.25 218.89 C 169.34 216.52 169.39 214.15 169.50 211.78 Z" fill="#ffffff" opacity="1.00" stroke="#ffffff" stroke-width="0.25"/>
<path d="M 362.14 217.50 C 362.14 214.89 362.88 212.34 365.67 211.56 C 365.95 212.25 366.51 213.63 366.80 214.32 C 368.45 216.89 367.69 219.68 365.22 221.35 C 365.41 219.87 365.66 218.40 365.93 216.93 C 365.40 215.92 364.88 214.91 364.36 213.91 C 364.24 215.58 364.16 217.26 364.08 218.95 C 361.47 219.62 358.94 220.56 356.54 221.76 C 357.56 222.02 359.62 222.53 360.64 222.79 C 360.85 224.61 361.50 226.68 360.19 228.27 C 358.51 230.85 354.98 230.09 352.42 230.81 C 352.42 232.27 352.44 233.74 352.49 235.21 C 351.65 233.82 350.25 231.98 351.58 230.43 C 353.11 228.08 356.27 228.49 358.58 227.53 C 359.05 226.44 359.44 225.33 359.76 224.19 C 357.68 223.97 355.61 223.78 353.54 223.56 C 354.94 219.92 358.81 218.71 362.14 217.50 Z" fill="#032c4c" opacity="1.00" stroke="#032c4c" stroke-width="0.25"/>
<path d="M 367.61 213.45 C 368.30 212.71 369.69 211.24 370.38 210.51 C 370.84 213.16 371.46 215.81 372.67 218.24 C 370.42 220.24 366.38 221.31 366.14 224.78 C 366.87 226.26 368.26 227.27 369.37 228.46 C 367.44 228.91 365.05 229.09 363.96 231.03 C 361.33 235.25 361.41 240.40 361.60 245.20 C 360.93 245.54 359.61 246.22 358.95 246.56 C 357.49 243.58 355.42 240.69 355.20 237.28 C 356.42 235.16 359.03 235.01 361.08 234.21 C 358.62 231.58 355.35 234.92 353.20 236.37 C 353.03 236.08 352.67 235.50 352.49 235.21 C 352.44 233.74 352.42 232.27 352.42 230.81 C 354.98 230.09 358.51 230.85 360.19 228.27 C 361.50 226.68 360.85 224.61 360.64 222.79 C 359.62 222.53 357.56 222.02 356.54 221.76 C 358.94 220.56 361.47 219.62 364.08 218.95 C 364.16 217.26 364.24 215.58 364.36 213.91 C 364.88 214.91 365.40 215.92 365.93 216.93 C 365.66 218.40 365.41 219.87 365.22 221.35 C 367.69 219.68 368.45 216.89 366.80 214.32 C 367.00 214.11 367.41 213.67 367.61 213.45 Z" fill="#ffffff" opacity="1.00" stroke="#ffffff" stroke-width="0.25"/>
<path d="M 429.38 214.55 C 431.58 213.01 435.08 212.79 437.04 214.87 C 441.36 218.55 446.17 222.10 448.61 227.41 C 452.19 234.29 452.34 242.33 451.56 249.88 C 449.77 262.02 443.32 273.08 435.06 281.98 C 432.84 284.16 430.82 286.71 428.02 288.18 C 425.75 288.38 428.01 286.19 428.61 285.70 C 437.69 278.06 444.69 267.69 448.24 256.35 C 444.69 255.37 440.86 255.10 437.60 253.29 C 435.48 251.10 434.48 248.03 433.87 245.10 C 433.79 241.54 435.36 238.22 437.34 235.35 C 439.77 231.88 442.18 228.27 445.66 225.73 C 442.73 221.66 438.73 218.59 434.92 215.42 C 433.20 214.70 431.39 215.64 429.70 215.92 C 428.40 218.84 428.07 222.02 428.54 225.18 C 425.29 228.79 422.39 233.86 417.27 234.83 C 416.45 229.35 421.93 225.69 426.34 223.83 C 426.57 220.63 426.40 216.60 429.38 214.55 Z" fill="#032c4c" opacity="1.00" stroke="#032c4c" stroke-width="0.25"/>
<path d="M 418.70 232.66 C 420.07 229.40 422.95 227.19 425.98 225.54 C 424.15 228.44 421.69 230.97 418.70 232.66 Z" fill="#ffffff" opacity="1.00" stroke="#ffffff" stroke-width="0.25"/>
<path d="M 436.35 241.03 C 438.40 235.66 442.26 231.20 446.38 227.28 C 451.14 235.46 450.91 245.73 448.72 254.69 C 445.32 253.59 441.42 253.55 438.40 251.53 C 436.33 248.54 434.94 244.59 436.35 241.03 Z" fill="#80e5fe" opacity="1.00" stroke="#80e5fe" stroke-width="0.25"/>
<path d="M 358.41 248.56 C 359.91 247.83 361.38 246.95 363.06 246.67 C 366.30 247.79 368.80 251.49 367.34 254.87 C 365.41 257.88 360.42 257.06 358.95 254.03 C 357.89 252.39 358.33 250.39 358.41 248.56 Z" fill="#ffffff" opacity="1.00" stroke="#ffffff" stroke-width="0.25"/>
<path d="M 411.20 258.94 C 411.97 254.77 412.64 250.59 412.66 246.34 C 417.42 249.13 421.81 252.51 425.82 256.29 C 424.37 261.89 422.78 267.67 419.39 272.43 C 417.84 274.60 414.75 273.14 414.12 270.94 C 412.67 267.09 411.49 263.05 411.20 258.94 Z" fill="#80e5fe" opacity="1.00" stroke="#80e5fe" stroke-width="0.25"/>
<path d="M 86.32 256.60 C 93.80 255.21 101.47 253.19 109.09 254.82 C 119.94 256.97 131.04 256.48 142.03 256.65 C 146.76 257.65 151.36 259.27 156.09 260.34 C 162.02 262.11 168.19 262.97 174.02 265.09 C 181.87 268.23 189.00 273.08 195.03 279.01 C 207.13 290.66 215.05 305.69 225.08 319.00 C 227.10 321.58 229.10 324.18 230.90 326.92 C 224.96 334.56 218.59 341.85 211.54 348.48 C 208.68 351.06 206.31 354.34 202.69 355.91 C 202.48 343.24 202.16 330.56 201.14 317.93 C 200.05 310.65 199.91 302.71 195.63 296.42 C 190.92 290.20 182.33 290.67 175.41 289.28 C 154.92 284.80 133.91 283.73 113.08 281.81 C 94.75 280.84 76.44 278.99 58.05 279.37 C 60.82 272.14 65.37 265.12 72.30 261.29 C 76.56 258.68 81.52 257.71 86.32 256.60 Z" fill="#f75c2e" opacity="1.00" stroke="#f75c2e" stroke-width="0.25"/>
<path d="M 395.42 262.98 C 395.32 261.77 395.95 260.71 396.41 259.65 C 397.98 267.19 397.49 274.95 397.54 282.60 C 397.00 282.61 395.94 282.64 395.41 282.66 C 395.40 276.10 395.41 269.54 395.42 262.98 Z" fill="#fec9ac" opacity="1.00" stroke="#fec9ac" stroke-width="0.25"/>
<path d="M 48.73 284.30 C 53.02 281.73 58.11 280.92 63.04 281.09 C 79.73 281.23 96.36 282.60 113.01 283.64 C 132.76 285.51 152.68 286.39 172.14 290.45 C 176.39 291.29 180.70 291.74 184.91 292.77 C 180.68 293.35 176.47 294.10 172.39 295.39 C 170.59 296.09 168.70 295.51 166.92 295.06 C 159.48 293.02 151.74 292.54 144.13 291.51 C 112.40 288.34 80.63 284.99 48.73 284.30 Z" fill="#80e5fe" opacity="1.00" stroke="#80e5fe" stroke-width="0.25"/>
<path d="M 45.08 286.71 C 55.67 285.42 66.38 286.91 77.00 287.38 C 98.70 288.68 120.33 290.97 141.97 292.98 C 150.35 294.12 158.85 294.73 167.04 296.94 C 171.53 297.85 172.20 303.29 172.42 307.06 C 172.57 355.24 172.39 403.43 172.54 451.61 C 172.54 455.99 173.40 460.32 174.68 464.49 C 132.73 460.27 90.85 455.45 48.97 450.61 C 47.58 450.47 46.24 450.18 44.93 449.72 C 43.84 447.29 43.65 444.58 43.57 441.96 C 43.60 392.97 43.55 343.99 43.59 295.00 C 43.69 292.20 43.57 289.19 45.08 286.71 Z" fill="#54b7fb" opacity="1.00" stroke="#54b7fb" stroke-width="0.25"/>
<path d="M 320.78 298.50 C 331.25 296.37 341.61 293.63 352.11 291.65 C 358.50 291.59 364.82 292.96 371.19 293.41 C 367.22 294.26 362.03 293.23 359.32 296.91 C 388.10 299.64 416.90 302.14 445.70 304.67 C 445.62 304.22 445.47 303.31 445.40 302.85 C 443.49 302.06 441.59 301.25 439.67 300.49 C 441.42 300.10 443.16 299.73 444.92 299.35 L 444.52 299.60 L 443.97 299.94 C 452.20 300.41 460.38 301.39 468.58 302.15 C 461.40 304.20 454.05 305.63 446.83 307.58 C 442.95 308.47 439.09 309.87 435.06 309.69 C 396.93 306.31 358.88 302.07 320.78 298.50 Z" fill="#80e5fe" opacity="1.00" stroke="#80e5fe" stroke-width="0.25"/>
<path d="M 171.64 297.45 C 177.29 295.93 183.07 294.25 188.97 294.37 C 194.05 295.14 196.07 300.57 197.29 304.90 C 199.48 314.12 199.61 323.66 200.24 333.07 C 200.90 352.70 201.44 372.33 201.66 391.97 C 201.60 396.17 201.68 400.39 202.65 404.50 C 206.45 405.26 209.96 403.54 213.38 402.15 C 215.25 406.63 215.14 411.96 218.15 415.92 C 224.63 422.35 234.55 422.70 243.08 421.66 C 247.43 420.85 252.43 424.41 256.30 421.24 C 256.41 420.13 256.38 419.02 256.37 417.92 C 254.26 416.83 252.17 415.73 250.09 414.58 C 253.77 414.93 257.37 415.74 261.03 416.22 C 263.20 416.70 264.89 414.97 266.68 414.07 C 265.21 411.08 262.96 408.61 260.98 405.97 C 258.67 405.51 256.38 404.52 253.98 404.84 C 253.60 405.19 252.82 405.89 252.43 406.24 L 251.35 405.48 C 251.54 404.94 251.56 404.41 251.41 403.88 C 246.91 403.46 242.41 403.07 237.90 402.74 C 237.88 399.61 236.62 396.43 236.94 393.41 L 237.47 392.66 L 237.10 392.44 L 237.58 392.08 C 248.53 387.43 259.51 382.84 270.49 378.24 C 270.56 392.51 270.47 406.77 270.47 421.04 C 270.53 423.62 269.83 426.23 268.29 428.32 C 264.32 431.01 259.61 432.33 255.27 434.29 C 234.60 443.41 213.73 452.12 192.31 459.32 C 187.05 460.97 181.93 463.21 176.45 464.01 C 173.78 457.31 174.33 450.02 174.28 442.98 C 174.32 398.01 174.28 353.05 174.28 308.08 C 174.42 304.35 173.31 300.74 171.64 297.45 Z" fill="#80e5fe" opacity="1.00" stroke="#80e5fe" stroke-width="0.25"/>
<path d="M 317.57 302.98 C 318.02 302.00 317.09 299.47 318.84 299.73 C 358.28 304.23 397.83 307.81 437.34 311.67 C 437.36 312.55 437.38 314.30 437.39 315.17 C 397.44 311.16 357.50 307.07 317.57 302.98 Z" fill="#80e5fe" opacity="1.00" stroke="#80e5fe" stroke-width="0.25"/>
<path d="M 439.35 311.07 C 450.09 308.50 460.86 305.99 471.59 303.37 C 471.58 304.24 471.57 305.99 471.57 306.87 C 460.58 309.11 449.78 312.24 438.81 314.64 C 438.95 313.75 439.21 311.97 439.35 311.07 Z" fill="#80e5fe" opacity="1.00" stroke="#80e5fe" stroke-width="0.25"/>
<path d="M 256.31 309.23 C 261.37 306.47 267.28 304.99 273.04 305.81 C 274.55 306.03 276.34 306.19 277.27 307.59 C 280.53 311.58 282.56 316.49 283.39 321.55 C 279.84 319.00 277.98 314.95 275.17 311.75 C 272.21 310.23 268.79 310.02 265.58 309.37 C 263.22 313.25 264.95 317.80 264.91 322.02 C 260.62 321.54 255.88 322.32 253.10 325.93 C 246.20 334.59 236.81 340.77 227.00 345.66 C 226.03 343.09 225.05 340.52 224.12 337.94 C 227.21 334.38 230.61 330.96 232.83 326.76 C 232.41 325.53 231.64 324.46 230.93 323.40 C 232.55 322.20 234.16 320.89 236.13 320.31 C 240.20 318.91 244.55 318.27 248.41 316.31 C 251.34 314.30 253.18 311.00 256.31 309.23 Z" fill="#fec9ac" opacity="1.00" stroke="#fec9ac" stroke-width="0.25"/>
<path d="M 330.79 306.34 C 337.81 306.57 344.78 307.65 351.78 308.34 C 351.66 312.81 351.66 317.28 351.71 321.75 C 353.24 321.73 354.77 321.71 356.30 321.69 C 356.28 317.34 356.25 312.99 356.38 308.64 C 381.20 311.40 406.07 313.65 430.89 316.34 C 430.92 323.71 431.03 331.09 430.71 338.46 C 427.79 338.00 424.87 337.62 421.96 337.18 C 423.83 336.77 425.72 336.42 427.60 336.05 C 427.59 333.29 427.58 330.52 427.53 327.76 C 405.47 325.40 383.38 323.30 361.29 321.10 C 361.50 321.71 361.91 322.93 362.12 323.54 C 366.99 322.93 371.72 324.81 376.59 324.18 C 375.45 324.76 374.32 325.87 372.91 325.16 C 369.20 324.61 365.45 324.39 361.71 324.24 C 361.70 325.88 361.68 327.52 361.64 329.17 C 361.88 329.50 362.35 330.17 362.59 330.51 C 362.10 330.44 361.13 330.32 360.65 330.25 C 360.55 326.93 360.70 323.60 361.27 320.32 C 360.66 320.67 359.44 321.35 358.84 321.69 C 358.92 324.62 358.90 327.56 358.81 330.50 C 349.55 329.34 340.26 328.43 330.98 327.48 C 330.70 320.44 331.11 313.38 330.79 306.34 Z" fill="#ffffff" opacity="1.00" stroke="#ffffff" stroke-width="0.25"/>
<path d="M 266.48 317.85 C 266.42 315.58 265.32 313.18 266.66 311.08 C 269.26 311.90 272.01 312.36 274.44 313.65 C 276.21 315.62 276.20 318.46 276.67 320.93 C 276.90 323.25 277.62 325.66 276.77 327.94 C 274.40 327.68 274.71 324.59 274.25 322.86 C 273.52 319.96 274.33 316.40 272.02 314.12 C 271.78 316.94 271.79 319.78 271.45 322.60 C 269.52 320.38 271.62 315.75 268.26 314.91 C 268.35 318.87 268.98 322.81 268.78 326.78 C 268.45 326.75 267.78 326.68 267.44 326.65 C 266.32 323.84 266.82 320.77 266.48 317.85 Z" fill="#fec9ac" opacity="1.00" stroke="#fec9ac" stroke-width="0.25"/>
<path d="M 435.45 317.16 C 442.81 315.78 450.03 313.74 457.29 311.95 C 457.41 319.36 457.30 326.77 457.35 334.19 C 450.01 335.40 442.73 336.97 435.47 338.59 C 435.44 331.44 435.50 324.30 435.45 317.16 Z" fill="#ffffff" opacity="1.00" stroke="#ffffff" stroke-width="0.25"/>
<path d="M 256.96 324.90 C 259.18 323.40 261.95 323.69 264.49 323.88 C 265.12 325.44 265.48 327.30 266.98 328.33 C 269.06 329.05 270.57 327.27 272.16 326.28 C 286.68 342.28 300.52 358.88 314.65 375.21 C 309.13 382.75 302.06 389.00 294.89 394.93 C 281.64 382.13 268.12 369.62 254.76 356.93 C 256.80 352.37 258.81 347.81 260.67 343.17 C 260.23 343.10 259.35 342.94 258.91 342.86 C 252.59 357.57 245.86 372.33 236.39 385.32 C 234.68 372.58 231.87 359.96 227.69 347.80 C 235.93 342.90 244.42 338.07 251.04 331.00 C 253.03 328.99 254.64 326.57 256.96 324.90 Z" fill="#80e5fe" opacity="1.00" stroke="#80e5fe" stroke-width="0.25"/>
<path d="M 378.15 326.24 C 378.06 325.79 377.88 324.91 377.79 324.46 C 383.79 324.97 389.76 325.90 395.78 326.01 C 395.07 326.52 394.36 327.04 393.64 327.55 C 390.63 327.09 387.58 326.86 384.53 326.98 C 385.06 328.45 383.79 331.44 386.00 331.72 C 391.53 332.50 397.14 333.14 402.72 333.26 L 403.02 332.81 L 402.97 332.34 C 397.52 331.25 391.87 331.67 386.47 330.32 L 386.06 328.17 C 396.45 329.27 406.84 330.53 417.27 331.31 C 417.24 333.00 417.23 334.70 417.22 336.40 C 399.01 334.45 380.81 332.34 362.59 330.51 C 362.35 330.17 361.88 329.50 361.64 329.17 C 368.71 329.61 375.71 330.78 382.77 331.36 C 382.78 329.62 382.79 327.88 382.80 326.14 C 381.25 326.14 379.70 326.17 378.15 326.24 Z" fill="#80e5fe" opacity="1.00" stroke="#80e5fe" stroke-width="0.25"/>
<path d="M 396.98 328.27 C 396.87 327.78 396.65 326.80 396.53 326.31 C 404.14 326.97 411.72 327.84 419.32 328.63 C 419.92 329.32 420.54 330.00 421.18 330.68 C 422.66 330.19 424.16 329.73 425.66 329.27 C 425.71 331.03 425.76 332.80 425.83 334.58 C 423.61 335.15 421.39 335.73 419.17 336.28 C 419.19 333.94 419.17 331.60 419.30 329.26 C 411.87 330.41 404.45 327.77 396.98 328.27 Z" fill="#80e5fe" opacity="1.00" stroke="#80e5fe" stroke-width="0.25"/>
<path d="M 405.18 333.16 C 408.13 332.19 411.28 333.25 414.25 333.65 C 411.69 335.66 408.14 333.78 405.22 333.96 C 405.21 333.76 405.19 333.36 405.18 333.16 Z" fill="#032c4c" opacity="1.00" stroke="#032c4c" stroke-width="0.25"/>
<path d="M 203.05 359.01 C 209.32 352.53 216.64 347.05 222.30 339.94 C 224.65 343.32 225.59 347.38 226.91 351.22 C 230.98 364.44 234.60 378.09 234.58 392.00 C 235.21 392.11 236.47 392.33 237.10 392.44 L 237.47 392.66 L 236.94 393.41 C 236.50 393.71 235.64 394.31 235.20 394.62 C 235.54 397.96 235.88 401.32 236.29 404.66 C 240.82 404.60 245.33 405.19 249.86 405.33 C 249.79 405.85 249.64 406.90 249.56 407.43 C 253.82 408.04 258.03 409.04 262.01 410.69 C 258.55 410.17 255.15 409.30 251.75 408.48 C 251.35 408.82 250.56 409.51 250.17 409.85 C 254.06 411.51 259.40 410.98 262.15 414.55 C 257.83 413.86 253.53 413.09 249.20 412.48 C 248.68 410.29 246.75 412.54 245.64 412.88 C 245.64 413.21 245.63 413.87 245.63 414.19 C 248.77 416.31 253.03 417.17 255.10 420.58 C 250.65 421.19 246.34 419.18 241.92 419.99 C 235.67 420.76 229.10 420.34 223.36 417.56 C 220.98 416.38 218.70 414.52 217.97 411.86 C 213.01 394.24 207.66 376.71 203.05 359.01 Z" fill="#fec9ac" opacity="1.00" stroke="#fec9ac" stroke-width="0.25"/>
<path d="M 247.84 371.00 C 249.77 366.92 251.78 362.86 253.94 358.89 C 259.23 363.50 264.36 368.32 269.30 373.30 C 262.13 372.70 255.00 371.68 247.84 371.00 Z" fill="#ffffff" opacity="1.00" stroke="#ffffff" stroke-width="0.25"/>
<path d="M 203.43 367.62 C 206.22 376.42 208.36 385.41 210.89 394.29 C 208.39 395.34 205.93 396.47 203.52 397.71 C 203.38 387.68 202.81 377.62 203.43 367.62 Z" fill="#80e5fe" opacity="1.00" stroke="#80e5fe" stroke-width="0.25"/>
<path d="M 335.89 370.70 C 339.42 368.94 343.06 367.06 347.14 367.34 C 348.43 369.02 349.80 370.78 349.70 373.02 C 343.02 378.87 337.00 385.46 329.99 390.94 C 323.94 395.73 318.20 400.97 311.75 405.22 C 308.34 407.33 307.12 402.41 305.92 400.17 C 315.63 398.76 323.38 388.58 321.27 378.83 C 322.65 378.31 324.02 377.78 325.40 377.26 C 326.59 378.71 327.73 380.19 328.85 381.71 C 331.38 381.74 332.53 379.41 332.60 377.16 C 334.25 377.29 335.90 377.43 337.55 377.56 C 337.48 376.64 337.42 375.73 337.35 374.83 C 336.63 373.54 336.20 372.13 335.89 370.70 Z" fill="#f75c2e" opacity="1.00" stroke="#f75c2e" stroke-width="0.25"/>
<path d="M 315.57 369.07 C 316.58 369.65 317.60 370.23 318.63 370.81 C 318.59 372.44 318.55 374.08 318.49 375.72 C 317.39 374.62 316.31 373.50 315.20 372.43 C 315.32 371.30 315.44 370.18 315.57 369.07 Z" fill="#ffffff" opacity="1.00" stroke="#ffffff" stroke-width="0.25"/>
<path d="M 320.24 376.32 C 320.22 374.72 319.77 372.79 321.56 372.00 C 321.50 373.56 322.32 375.75 320.24 376.32 Z" fill="#ffffff" opacity="1.00" stroke="#ffffff" stroke-width="0.25"/>
<path d="M 236.00 389.68 C 239.50 383.92 243.47 378.46 246.70 372.52 C 254.51 374.07 262.75 373.52 270.29 376.25 C 260.50 380.59 250.60 384.68 240.70 388.76 C 239.22 389.42 237.60 389.60 236.00 389.68 Z" fill="#54b7fb" opacity="1.00" stroke="#54b7fb" stroke-width="0.25"/>
<path d="M 323.38 373.35 C 324.89 372.15 326.38 374.78 324.89 375.73 C 323.40 376.88 321.86 374.27 323.38 373.35 Z" fill="#ffffff" opacity="1.00" stroke="#ffffff" stroke-width="0.25"/>
<path d="M 328.18 376.35 C 329.90 375.46 331.98 378.90 329.98 379.70 C 328.58 379.57 327.45 377.58 328.18 376.35 Z" fill="#714e4b" opacity="1.00" stroke="#714e4b" stroke-width="0.25"/>
<path d="M 300.08 393.04 C 305.35 388.15 310.26 382.89 315.41 377.87 C 317.25 380.29 320.95 382.44 319.58 386.00 C 317.31 392.45 311.49 398.29 304.30 398.42 C 302.88 396.63 301.32 394.95 300.08 393.04 Z" fill="#fec9ac" opacity="1.00" stroke="#fec9ac" stroke-width="0.25"/>
</svg>