<svg xmlns="http://www.w3.org/2000/svg" height="512pt" version="1.1" viewBox="0 0 512 512" width="512pt">
<path d="M 0.00 0.00 L 512.00 0.00 L 512.00 512.00 L 0.00 512.00 L 0.00 0.00 Z" fill="transparent" opacity="1.00" stroke="transparent" stroke-width="0.25" data-index="0" style="opacity: 1; visibility: visible;"></path>
<path d="M 197.02 104.10 C 205.60 95.34 213.15 85.41 223.14 78.16 C 226.98 75.81 230.35 79.51 233.07 81.80 C 265.17 105.79 294.05 133.70 325.44 158.57 C 342.86 172.83 360.80 186.44 378.57 200.26 C 399.79 216.33 421.35 231.97 443.78 246.32 C 449.86 249.86 455.68 253.88 462.09 256.82 C 463.46 257.43 464.53 258.50 465.62 259.51 C 465.52 263.54 464.06 267.35 462.81 271.14 C 446.40 316.73 410.22 354.39 365.98 373.86 C 362.41 375.67 358.41 376.44 354.91 378.37 C 363.30 378.68 371.64 377.61 380.02 377.57 C 390.36 377.42 400.67 376.29 411.02 376.43 L 412.18 376.81 C 412.33 377.51 412.61 378.90 412.76 379.59 C 390.12 380.45 367.46 381.33 344.83 382.44 C 336.32 384.46 327.95 387.09 319.32 388.62 C 345.82 388.57 372.42 387.90 398.81 390.85 C 404.32 391.74 410.07 392.32 415.10 394.92 C 417.14 395.56 417.48 398.53 415.65 399.64 C 412.18 401.81 408.02 402.45 404.09 403.31 C 382.59 407.02 360.78 408.28 339.06 410.08 C 283.62 413.83 228.07 415.70 172.56 418.26 C 172.29 417.07 172.26 415.86 172.30 414.65 C 235.56 410.47 298.99 408.90 362.20 403.78 C 373.12 402.97 384.05 402.07 394.89 400.42 C 399.98 399.62 405.21 399.09 410.00 397.06 C 390.58 393.25 370.69 393.16 350.99 392.70 C 332.98 392.46 315.00 393.14 297.01 393.51 C 291.98 393.72 286.94 393.31 281.94 393.92 C 243.90 398.14 204.76 397.01 167.83 386.27 C 163.91 386.01 159.98 386.56 156.05 386.61 C 133.96 387.95 111.85 389.54 89.94 392.76 C 89.44 392.55 87.23 393.62 89.00 393.71 C 94.99 393.45 100.95 394.03 106.92 394.45 C 150.02 396.76 193.21 397.53 236.26 400.71 C 236.35 401.23 236.54 402.29 236.64 402.81 C 253.83 402.82 271.02 402.35 288.21 402.53 C 288.81 403.91 288.71 405.35 287.99 406.66 C 267.61 406.63 247.27 407.54 226.89 407.58 C 205.90 407.78 184.93 408.53 163.94 408.47 C 146.85 408.95 129.71 408.39 112.66 409.25 C 111.13 408.62 110.11 407.55 110.52 405.77 C 113.41 404.18 116.85 405.09 119.99 404.80 C 150.69 403.81 181.42 404.47 212.11 403.08 C 185.74 402.39 159.41 400.89 133.05 400.23 C 117.66 399.45 102.23 399.00 86.93 397.00 C 83.51 396.25 79.16 396.49 77.15 393.02 C 78.87 390.40 82.11 390.18 84.88 389.55 C 99.20 386.67 113.83 385.89 128.30 384.05 C 109.70 382.78 91.05 382.18 72.44 380.99 C 72.45 380.31 72.45 378.96 72.45 378.28 C 75.93 377.47 79.47 378.12 82.98 378.22 C 102.01 378.73 121.00 380.10 140.03 380.75 C 145.47 381.30 150.94 381.58 156.40 381.45 C 139.96 374.08 125.96 362.33 113.11 349.91 C 95.16 331.87 79.87 310.63 71.77 286.31 C 68.54 277.24 65.99 267.91 64.27 258.43 C 63.90 255.51 63.13 252.25 64.61 249.51 C 108.23 200.59 153.40 153.03 197.02 104.10 Z" fill="#053a61" opacity="1.00" stroke="#053a61" stroke-width="0.25" data-index="1" style="visibility: visible; opacity: 1;"></path>
<path d="M 211.83 98.90 C 215.73 94.64 219.24 89.49 224.51 86.89 C 223.57 94.52 222.62 102.20 220.39 109.59 C 214.60 128.54 207.98 147.21 201.59 165.96 C 192.56 192.03 181.61 217.60 166.79 240.95 C 163.10 246.49 159.20 251.94 154.68 256.83 C 152.84 258.86 149.96 259.07 147.49 259.81 C 131.88 264.44 115.05 265.00 99.27 260.80 C 90.62 259.01 82.67 255.03 74.41 252.09 C 74.36 251.24 74.40 250.40 74.53 249.57 C 104.81 216.17 135.10 182.75 165.83 149.73 C 181.39 132.99 196.22 115.61 211.83 98.90 Z" fill="#f9705e" opacity="1.00" stroke="#f9705e" stroke-width="0.25" data-index="2"></path>
<path d="M 228.58 87.93 C 231.52 88.72 233.47 91.15 235.83 92.88 C 255.29 108.06 273.68 124.50 292.46 140.49 C 295.76 143.26 298.74 146.69 302.80 148.37 C 302.17 148.49 300.91 148.74 300.28 148.86 C 301.26 149.08 302.25 149.30 303.24 149.53 C 309.94 155.59 317.16 161.05 324.12 166.82 C 327.55 169.26 330.42 172.46 334.20 174.41 C 333.68 174.54 332.66 174.81 332.15 174.94 C 333.18 175.13 334.22 175.32 335.26 175.52 C 347.63 185.98 360.67 195.62 373.45 205.57 C 376.57 207.51 379.04 210.50 382.53 211.79 C 382.24 211.94 381.67 212.23 381.39 212.37 C 381.78 212.41 382.58 212.48 382.98 212.52 C 402.58 227.48 422.72 241.77 443.71 254.75 C 440.43 263.42 437.18 272.11 432.87 280.34 C 431.65 283.69 429.02 286.35 428.13 289.83 C 427.99 289.27 427.86 288.71 427.74 288.16 C 427.55 290.40 425.97 292.08 424.76 293.86 C 406.49 320.41 378.24 339.97 346.93 347.62 C 329.73 352.20 311.61 352.77 294.09 349.87 C 268.06 345.79 244.01 333.06 224.04 316.16 C 202.02 297.50 183.94 274.71 167.59 251.06 C 166.94 248.32 169.76 246.67 170.87 244.49 C 183.09 224.66 193.45 203.66 201.76 181.90 C 203.16 179.05 203.98 175.97 205.26 173.09 C 210.16 159.51 214.80 145.81 219.27 132.12 C 221.04 125.02 223.33 118.07 224.94 110.93 C 226.41 103.30 227.57 95.62 228.58 87.93 Z" fill="#f75552" opacity="1.00" stroke="#f75552" stroke-width="0.25" data-index="3"></path>
<path d="M 198.38 127.36 C 198.52 123.17 202.36 119.41 206.46 118.84 C 206.59 121.78 205.09 124.34 204.00 126.96 C 202.99 127.44 201.98 127.92 200.97 128.40 C 200.32 128.14 199.03 127.62 198.38 127.36 Z" fill="#053a61" opacity="1.00" stroke="#053a61" stroke-width="0.25" data-index="4"></path>
<path d="M 180.46 136.38 C 182.04 134.79 183.66 133.26 185.36 131.82 C 185.83 134.17 185.49 136.53 184.19 138.55 C 183.03 138.51 181.87 138.47 180.72 138.43 C 180.65 137.91 180.53 136.89 180.46 136.38 Z" fill="#053a61" opacity="1.00" stroke="#053a61" stroke-width="0.25" data-index="5"></path>
<path d="M 178.40 155.79 C 182.36 151.90 186.99 147.85 192.71 147.15 C 192.11 153.28 189.68 159.96 184.21 163.34 C 181.92 164.16 180.14 162.43 178.46 161.22 C 178.40 159.41 178.38 157.60 178.40 155.79 Z" fill="#053a61" opacity="1.00" stroke="#053a61" stroke-width="0.25" data-index="6"></path>
<path d="M 243.86 150.57 C 244.21 150.54 244.92 150.49 245.27 150.47 C 247.14 156.45 248.31 162.82 247.11 169.06 C 246.79 170.85 245.63 172.26 244.46 173.57 C 241.46 173.75 236.77 173.87 236.14 170.00 C 234.83 166.51 236.81 163.18 237.76 159.90 C 239.57 156.65 241.52 153.47 243.86 150.57 Z" fill="#053a61" opacity="1.00" stroke="#053a61" stroke-width="0.25" data-index="7"></path>
<path d="M 279.91 160.86 C 280.59 159.75 282.03 160.65 283.03 160.62 C 285.73 165.60 289.72 170.15 290.41 175.98 C 290.95 178.19 289.21 179.84 288.13 181.51 C 286.00 181.64 283.87 181.66 281.74 181.58 C 278.34 177.50 278.22 171.97 278.77 166.94 C 279.49 164.99 279.58 162.90 279.91 160.86 Z" fill="#053a61" opacity="1.00" stroke="#053a61" stroke-width="0.25" data-index="8"></path>
<path d="M 174.39 184.63 C 177.46 181.40 181.00 177.90 185.65 177.34 C 184.82 181.80 182.94 186.00 180.13 189.56 C 178.19 189.55 175.69 190.29 174.51 188.21 C 174.32 187.03 174.39 185.82 174.39 184.63 Z" fill="#053a61" opacity="1.00" stroke="#053a61" stroke-width="0.25" data-index="9"></path>
<path d="M 147.00 188.06 C 150.91 184.11 154.90 179.49 160.47 178.02 C 160.36 183.99 158.63 190.16 154.91 194.90 C 153.54 196.91 150.82 196.40 148.73 196.60 C 145.97 194.75 144.36 190.73 147.00 188.06 Z" fill="#053a61" opacity="1.00" stroke="#053a61" stroke-width="0.25" data-index="10"></path>
<path d="M 210.53 186.24 C 210.17 182.80 213.32 179.63 216.57 179.14 C 216.59 181.54 216.68 184.08 215.28 186.16 C 214.69 186.56 213.52 187.37 212.94 187.77 L 212.24 186.71 C 211.81 186.59 210.96 186.36 210.53 186.24 Z" fill="#053a61" opacity="1.00" stroke="#053a61" stroke-width="0.25" data-index="11"></path>
<path d="M 316.19 185.31 C 317.28 185.40 318.38 185.50 319.48 185.59 C 319.54 186.17 319.65 187.31 319.71 187.89 C 318.23 187.43 315.31 188.31 316.19 185.31 Z" fill="#053a61" opacity="1.00" stroke="#053a61" stroke-width="0.25" data-index="12"></path>
<path d="M 270.72 193.34 C 271.51 193.44 272.31 193.55 273.11 193.67 C 274.73 198.39 277.52 202.86 277.71 207.97 C 277.76 210.95 278.32 214.52 275.55 216.52 C 273.33 216.68 271.10 216.70 268.90 216.37 C 268.13 215.30 267.34 214.24 266.55 213.19 C 266.44 210.43 266.38 207.66 266.69 204.91 C 267.39 203.71 267.61 202.32 267.79 200.97 C 268.20 199.67 268.62 198.38 269.23 197.16 C 269.87 195.95 270.35 194.66 270.72 193.34 Z" fill="#053a61" opacity="1.00" stroke="#053a61" stroke-width="0.25" data-index="13"></path>
<path d="M 128.75 202.83 C 130.37 202.24 131.99 201.64 133.67 201.22 C 133.46 203.04 133.02 204.83 132.18 206.47 C 130.84 206.58 129.50 206.68 128.16 206.79 C 128.27 205.46 128.47 204.14 128.75 202.83 Z" fill="#053a61" opacity="1.00" stroke="#053a61" stroke-width="0.25" data-index="14"></path>
<path d="M 163.38 210.09 C 164.69 206.03 168.78 203.12 172.80 202.19 C 173.08 206.25 170.75 209.67 168.12 212.50 C 167.31 212.48 165.70 212.44 164.90 212.42 C 164.52 211.83 163.76 210.67 163.38 210.09 Z" fill="#053a61" opacity="1.00" stroke="#053a61" stroke-width="0.25" data-index="15"></path>
<path d="M 330.57 210.32 C 331.53 210.35 332.49 210.39 333.46 210.43 C 337.11 214.17 341.28 217.58 343.76 222.27 C 344.77 224.05 344.68 226.23 344.29 228.18 C 342.98 231.02 339.23 232.42 336.36 231.24 C 332.91 228.89 331.94 224.48 331.42 220.58 C 330.75 217.20 330.38 213.77 330.57 210.32 Z" fill="#053a61" opacity="1.00" stroke="#053a61" stroke-width="0.25" data-index="16"></path>
<path d="M 139.17 224.23 C 142.17 220.21 146.13 217.06 150.18 214.16 C 152.28 215.50 151.27 218.07 150.92 220.04 C 149.97 224.46 148.48 229.09 145.07 232.23 C 142.87 233.33 140.43 232.51 138.51 231.27 C 138.31 228.94 137.77 226.30 139.17 224.23 Z" fill="#053a61" opacity="1.00" stroke="#053a61" stroke-width="0.25" data-index="17"></path>
<path d="M 114.14 225.10 C 116.75 223.24 119.21 220.78 122.52 220.32 C 122.25 225.59 120.90 231.34 117.17 235.26 C 116.06 236.73 114.17 236.41 112.57 236.54 C 111.62 235.65 110.65 234.79 109.66 233.95 C 108.76 230.20 111.34 227.18 114.14 225.10 Z" fill="#053a61" opacity="1.00" stroke="#053a61" stroke-width="0.25" data-index="18"></path>
<path d="M 208.81 233.45 C 209.69 233.41 210.58 233.37 211.46 233.34 C 212.20 236.83 212.55 240.40 212.22 243.97 C 211.71 246.35 211.03 248.76 209.24 250.52 C 207.75 250.51 206.26 250.52 204.77 250.57 C 201.69 249.16 202.20 245.69 202.59 242.95 C 204.41 239.62 206.71 236.60 208.81 233.45 Z" fill="#053a61" opacity="1.00" stroke="#053a61" stroke-width="0.25" data-index="19"></path>
<path d="M 249.18 238.98 C 249.72 238.77 250.80 238.36 251.34 238.15 C 254.03 244.67 254.27 251.93 253.25 258.84 C 252.42 259.65 251.68 260.55 251.02 261.50 C 248.98 261.72 246.93 261.67 244.90 261.44 C 244.10 260.69 243.31 259.95 242.50 259.22 C 242.37 256.18 241.76 252.91 243.20 250.09 C 244.64 246.13 246.91 242.51 249.18 238.98 Z" fill="#053a61" opacity="1.00" stroke="#053a61" stroke-width="0.25" data-index="20"></path>
<path d="M 304.65 241.56 C 305.14 241.54 306.12 241.50 306.61 241.48 C 309.67 244.64 312.85 248.68 311.35 253.38 C 309.51 253.60 307.66 253.65 305.82 253.52 C 303.51 249.95 304.43 245.55 304.65 241.56 Z" fill="#053a61" opacity="1.00" stroke="#053a61" stroke-width="0.25" data-index="21"></path>
<path d="M 395.70 251.01 C 395.51 249.57 395.85 248.24 396.72 247.04 C 401.23 250.33 405.60 253.91 409.13 258.26 C 411.04 260.39 410.64 263.36 410.41 265.96 C 409.46 266.65 408.65 267.48 407.98 268.45 C 405.95 268.68 403.92 268.68 401.89 268.55 C 397.59 263.76 396.49 257.17 395.70 251.01 Z" fill="#053a61" opacity="1.00" stroke="#053a61" stroke-width="0.25" data-index="22"></path>
<path d="M 158.34 262.85 C 158.42 259.21 162.32 256.92 164.27 254.09 C 180.79 276.17 197.42 298.54 218.42 316.64 C 240.38 336.22 267.54 350.68 296.93 354.61 C 342.29 361.18 390.11 342.46 419.55 307.49 C 432.46 292.75 440.98 274.82 447.56 256.52 C 450.86 258.77 454.30 260.80 457.80 262.73 C 457.61 266.26 456.04 269.48 454.89 272.76 C 444.68 299.70 426.69 323.25 404.99 341.99 C 389.99 354.73 372.44 365.30 352.91 369.08 C 314.17 377.11 271.86 370.62 238.67 348.57 C 215.53 333.51 195.53 313.92 178.80 292.04 C 171.84 282.41 164.80 272.81 158.34 262.85 Z" fill="#70d344" opacity="1.00" stroke="#70d344" stroke-width="0.25" data-index="23"></path>
<path d="M 70.08 255.82 C 83.81 261.83 98.08 267.47 113.18 268.57 C 125.53 269.82 138.15 268.57 150.07 265.05 C 150.76 264.99 152.16 264.86 152.86 264.79 C 161.25 277.08 169.90 289.21 179.05 300.95 C 187.88 311.38 197.17 321.46 207.45 330.49 C 227.17 348.38 249.92 363.84 275.79 371.13 C 286.93 374.08 298.37 376.20 309.92 376.46 C 317.53 376.68 325.14 376.48 332.76 376.40 C 332.76 376.90 332.77 377.90 332.77 378.40 C 317.58 383.10 301.72 385.14 286.01 387.28 C 269.75 389.06 253.42 390.57 237.04 390.27 C 220.59 389.45 204.11 388.22 187.87 385.33 C 172.71 382.63 157.99 377.20 144.98 368.94 C 135.62 363.29 127.52 355.90 119.54 348.49 C 108.91 337.97 99.01 326.61 91.14 313.85 C 81.99 299.80 76.31 283.86 72.15 267.71 C 71.25 263.78 70.17 259.86 70.08 255.82 Z" fill="#70d344" opacity="1.00" stroke="#70d344" stroke-width="0.25" data-index="24"></path>
<path d="M 352.56 256.21 C 353.44 256.24 354.34 256.28 355.23 256.33 C 358.64 262.11 362.60 268.35 361.48 275.40 C 360.65 276.38 359.82 277.37 359.02 278.38 C 356.99 278.53 354.97 278.51 352.96 278.31 C 352.22 277.40 351.48 276.50 350.73 275.62 C 348.88 269.15 350.75 262.46 352.56 256.21 Z" fill="#053a61" opacity="1.00" stroke="#053a61" stroke-width="0.25" data-index="25"></path>
<path d="M 276.86 284.29 C 277.69 284.34 279.35 284.46 280.18 284.52 C 280.41 285.72 280.71 286.93 281.08 288.11 C 282.76 293.22 282.89 298.67 282.29 303.98 L 282.29 304.00 C 281.35 304.57 280.58 305.33 280.00 306.27 C 276.97 306.81 273.05 306.84 271.54 303.58 C 269.98 296.60 273.80 290.23 276.86 284.29 Z" fill="#053a61" opacity="1.00" stroke="#053a61" stroke-width="0.25" data-index="26"></path>
<path d="M 224.77 296.48 C 222.13 292.82 225.12 286.83 229.35 286.09 C 230.44 289.10 230.53 292.34 229.37 295.35 C 227.92 296.02 226.36 296.36 224.77 296.48 Z" fill="#053a61" opacity="1.00" stroke="#053a61" stroke-width="0.25" data-index="27"></path>
<path d="M 281.08 288.11 L 282.45 288.43 C 284.15 293.28 285.41 298.77 283.55 303.78 L 282.29 303.98 C 282.89 298.67 282.76 293.22 281.08 288.11 Z" fill="#f9705e" opacity="1.00" stroke="#f9705e" stroke-width="0.25" data-index="28"></path>
<path d="M 332.91 293.12 C 336.90 297.95 341.22 302.86 343.06 309.00 C 343.88 311.63 342.82 315.09 340.18 316.27 C 338.38 316.75 336.48 316.45 334.64 316.50 C 331.32 314.05 331.41 309.74 330.76 306.07 C 330.36 302.66 331.59 299.32 331.68 295.92 C 331.98 295.22 332.60 293.82 332.91 293.12 Z" fill="#053a61" opacity="1.00" stroke="#053a61" stroke-width="0.25" data-index="29"></path>
<path d="M 378.51 303.21 C 381.19 302.88 383.48 304.42 384.52 306.87 C 384.23 307.58 383.67 309.01 383.38 309.72 C 382.16 309.65 380.94 309.59 379.72 309.53 C 379.47 308.91 378.98 307.67 378.74 307.05 C 378.68 306.09 378.57 304.17 378.51 303.21 Z" fill="#053a61" opacity="1.00" stroke="#053a61" stroke-width="0.25" data-index="30"></path>
<path d="M 169.50 309.65 C 170.49 309.50 171.49 309.35 172.49 309.20 C 174.63 319.21 178.97 328.71 185.25 336.80 C 196.41 350.62 211.02 361.38 227.01 369.00 C 230.92 370.79 234.67 372.92 238.56 374.78 C 238.61 375.31 238.72 376.37 238.77 376.90 C 235.92 376.89 233.47 375.32 230.92 374.28 C 210.44 366.39 191.49 353.21 178.99 334.96 C 174.33 327.21 170.84 318.64 169.50 309.65 Z" fill="#053a61" opacity="1.00" stroke="#053a61" stroke-width="0.25" data-index="31"></path>
<path d="M 124.43 327.67 C 124.86 327.93 125.74 328.46 126.17 328.72 C 128.22 334.54 130.97 340.17 135.08 344.84 C 138.82 349.58 143.99 352.85 148.39 356.90 L 148.64 358.83 C 147.20 358.67 145.88 358.22 144.67 357.47 C 135.74 351.63 128.05 343.25 124.83 332.91 C 124.19 331.23 124.37 329.42 124.43 327.67 Z" fill="#053a61" opacity="1.00" stroke="#053a61" stroke-width="0.25" data-index="32"></path>
</svg>