<svg xmlns="http://www.w3.org/2000/svg" height="512pt" version="1.1" viewBox="0 0 512 512" width="512pt">
<path d="M 0.00 0.00 L 512.00 0.00 L 512.00 512.00 L 0.00 512.00 L 0.00 0.00 Z" fill="transparent" opacity="1.00" stroke="transparent" stroke-width="0.25" data-index="0" style="opacity: 1;"></path>
<path d="M 170.98 114.03 C 187.15 111.23 203.59 110.61 219.95 109.82 C 248.94 109.35 277.98 108.96 306.93 111.00 C 317.38 111.78 327.86 112.75 338.11 115.00 C 340.81 115.50 343.33 116.66 345.55 118.28 C 340.22 187.87 334.25 257.40 328.71 326.97 C 326.36 357.66 323.95 388.36 321.37 419.04 C 321.52 430.34 319.91 441.55 319.33 452.83 C 318.96 456.53 319.08 460.37 317.95 463.95 C 316.22 466.07 313.41 466.86 310.93 467.75 C 300.20 470.90 289.01 472.02 277.91 472.94 C 254.43 474.45 230.76 473.98 207.44 470.78 C 200.05 469.45 192.18 468.53 185.90 464.06 C 185.34 457.94 184.91 451.81 184.46 445.68 C 184.03 437.16 182.71 428.65 183.27 420.12 C 175.52 320.73 167.42 221.37 159.39 122.00 C 159.34 120.57 159.05 119.06 159.67 117.71 C 162.92 115.27 167.12 114.82 170.98 114.03 Z" fill="#265169" opacity="1.00" stroke="#265169" stroke-width="0.25" data-index="1"></path>
<path d="M 205.00 113.51 C 236.95 111.87 269.00 111.74 300.94 113.60 C 311.98 114.43 323.06 115.13 333.97 117.15 C 335.76 117.42 337.42 118.22 338.99 119.11 C 333.17 120.85 327.10 121.48 321.09 122.15 C 287.50 125.42 253.70 125.17 220.00 124.49 C 203.31 123.73 186.55 123.16 170.07 120.28 C 168.67 119.94 166.96 119.96 166.10 118.63 C 168.83 117.15 171.98 116.97 174.97 116.40 C 184.91 114.70 194.98 114.32 205.00 113.51 Z" fill="#ffffff" opacity="1.00" stroke="#ffffff" stroke-width="0.25" data-index="2"></path>
<path d="M 163.25 122.19 C 171.32 124.52 179.75 125.10 188.07 126.03 C 212.99 128.05 238.01 128.52 263.01 128.46 C 286.01 127.82 309.09 127.46 331.91 124.26 C 335.16 123.77 338.34 122.92 341.53 122.12 C 339.67 141.68 338.58 161.31 336.77 180.87 C 331.63 178.88 326.25 177.60 320.81 176.82 C 310.98 175.75 301.12 173.99 291.20 174.56 C 283.77 174.59 276.34 174.63 268.97 173.58 C 262.01 172.63 254.98 173.02 247.99 172.90 C 245.48 172.92 242.72 172.65 240.72 174.49 L 240.35 174.44 C 236.97 173.20 233.30 173.54 229.82 174.08 C 221.62 175.35 213.34 173.49 205.13 174.55 C 192.67 175.72 179.88 176.40 168.04 180.80 C 166.46 161.26 164.86 141.72 163.25 122.19 Z" fill="#ffffff" opacity="1.00" stroke="#ffffff" stroke-width="0.25" data-index="3"></path>
<path d="M 167.36 126.16 C 172.26 126.21 176.30 129.33 181.01 130.20 C 184.34 130.87 187.66 131.57 191.02 132.09 C 198.06 133.12 205.22 131.86 212.26 132.73 C 212.46 133.96 212.48 135.21 212.57 136.45 C 206.37 136.74 200.17 136.66 193.98 136.69 C 191.91 136.61 189.90 137.16 187.99 137.89 C 190.45 139.21 193.10 140.32 195.95 140.30 C 201.54 140.37 207.06 141.49 212.65 141.50 C 212.56 143.15 212.49 144.80 212.41 146.45 C 203.58 146.43 194.75 146.29 185.94 146.74 C 184.54 146.38 182.14 149.02 184.23 149.70 C 189.22 151.72 195.43 149.03 200.19 152.25 C 194.69 153.08 189.14 153.46 183.64 154.22 C 189.70 157.09 196.59 157.10 203.13 157.91 C 210.03 158.82 217.01 158.24 223.94 158.58 C 225.64 158.33 225.32 160.26 225.68 161.32 C 218.95 161.38 212.52 163.46 205.94 164.56 C 203.04 165.14 199.82 165.51 197.69 167.80 C 200.78 169.25 204.20 169.84 207.25 171.38 C 201.91 171.80 196.51 171.22 191.22 172.31 C 185.06 168.31 178.11 173.07 171.48 172.74 C 171.08 162.80 169.70 152.93 169.11 143.00 C 168.23 137.41 168.59 131.70 167.36 126.16 Z" fill="#c5f3fe" opacity="1.00" stroke="#c5f3fe" stroke-width="0.25" data-index="4"></path>
<path d="M 324.66 129.85 C 328.14 128.25 331.81 127.05 335.69 127.14 C 336.00 134.50 334.11 141.68 333.70 148.99 C 333.34 157.17 331.91 165.26 331.28 173.43 C 328.26 173.64 325.27 172.95 322.30 172.57 C 322.50 166.73 322.14 160.87 322.90 155.06 C 323.98 146.69 322.74 138.13 324.66 129.85 Z" fill="#c5f3fe" opacity="1.00" stroke="#c5f3fe" stroke-width="0.25" data-index="5"></path>
<path d="M 241.36 132.33 C 249.76 132.41 258.17 132.37 266.58 132.41 C 266.53 145.14 266.40 157.87 266.57 170.60 C 258.49 170.54 250.41 170.52 242.34 170.60 C 242.23 165.09 242.62 159.56 242.05 154.06 C 241.09 146.86 241.54 139.57 241.36 132.33 Z" fill="#c5f3fe" opacity="1.00" stroke="#c5f3fe" stroke-width="0.25" data-index="6"></path>
<path d="M 240.72 174.49 C 242.72 172.65 245.48 172.92 247.99 172.90 C 254.98 173.02 262.01 172.63 268.97 173.58 C 276.34 174.63 283.77 174.59 291.20 174.56 L 289.77 174.80 C 285.20 175.54 280.55 175.14 275.97 174.87 C 272.70 174.47 269.40 174.26 266.13 174.64 C 257.72 175.06 249.23 175.22 240.83 174.51 L 240.72 174.49 Z" fill="#265169" opacity="1.00" stroke="#265169" stroke-width="0.25" data-index="7"></path>
<path d="M 291.20 174.56 C 301.12 173.99 310.98 175.75 320.81 176.82 C 321.00 177.31 321.36 178.28 321.55 178.77 C 326.29 179.97 331.30 180.42 335.71 182.68 C 335.74 182.93 335.80 183.43 335.82 183.69 C 331.24 186.46 325.77 187.03 320.57 187.79 C 320.71 184.83 320.75 181.87 320.80 178.91 C 306.04 176.02 290.92 175.94 275.97 174.87 C 280.55 175.14 285.20 175.54 289.77 174.80 L 291.20 174.56 Z" fill="#87e2fc" opacity="1.00" stroke="#87e2fc" stroke-width="0.25" data-index="8"></path>
<path d="M 217.97 175.27 C 225.46 175.54 232.86 173.91 240.35 174.44 L 240.72 174.49 L 240.83 174.51 L 242.00 175.81 C 242.24 180.82 242.74 185.91 241.82 190.87 C 240.57 191.22 239.29 191.48 238.01 191.67 C 219.98 191.10 201.91 190.32 184.03 187.79 C 178.94 187.04 173.67 186.34 169.11 183.81 C 169.16 183.49 169.26 182.85 169.31 182.54 C 176.64 179.41 184.71 178.77 192.53 177.72 C 200.98 176.56 209.54 176.56 217.97 175.27 Z" fill="#c5f3fe" opacity="1.00" stroke="#c5f3fe" stroke-width="0.25" data-index="9"></path>
<path d="M 240.83 174.51 C 249.23 175.22 257.72 175.06 266.13 174.64 C 266.25 180.35 266.31 186.07 266.16 191.78 C 256.77 191.84 247.38 192.06 238.01 191.67 C 239.29 191.48 240.57 191.22 241.82 190.87 C 242.74 185.91 242.24 180.82 242.00 175.81 L 240.83 174.51 Z" fill="#87e2fc" opacity="1.00" stroke="#87e2fc" stroke-width="0.25" data-index="10"></path>
<path d="M 266.13 174.64 C 269.40 174.26 272.70 174.47 275.97 174.87 C 290.92 175.94 306.04 176.02 320.80 178.91 C 320.75 181.87 320.71 184.83 320.57 187.79 L 320.53 188.78 L 318.77 188.74 C 310.45 188.47 302.25 190.33 293.95 190.63 C 284.69 190.99 275.44 191.73 266.16 191.78 C 266.31 186.07 266.25 180.35 266.13 174.64 Z" fill="#c5f3fe" opacity="1.00" stroke="#c5f3fe" stroke-width="0.25" data-index="11"></path>
<path d="M 203.07 181.42 C 209.72 181.51 216.37 181.43 223.02 181.50 C 225.15 181.42 227.05 182.45 228.93 183.32 C 225.04 183.78 221.15 184.69 217.21 184.46 C 212.40 184.01 207.67 182.88 203.07 181.42 Z" fill="#ffffff" opacity="1.00" stroke="#ffffff" stroke-width="0.25" data-index="12"></path>
<path d="M 168.54 187.25 C 183.80 191.84 199.84 192.76 215.66 193.66 L 215.65 193.82 C 215.30 208.55 216.65 223.25 216.49 237.98 C 217.11 244.69 217.08 251.46 217.77 258.14 C 222.49 260.05 227.82 259.33 232.61 261.11 C 228.08 264.09 222.45 263.52 217.33 264.36 C 218.39 276.23 218.42 288.14 218.62 300.05 C 219.97 309.22 219.30 318.50 220.24 327.70 C 220.81 334.46 220.35 341.26 220.92 348.02 C 222.04 358.66 221.28 369.37 221.86 380.04 C 221.72 384.11 225.46 386.46 227.75 389.28 C 230.98 392.55 232.52 397.10 235.85 400.26 C 239.10 400.81 243.76 401.86 246.16 399.08 C 246.90 387.74 245.76 376.36 245.70 365.00 C 245.59 344.65 245.36 324.30 244.75 303.96 C 244.65 287.30 244.61 270.64 243.77 254.01 C 243.92 234.21 242.25 214.46 242.62 194.66 C 250.38 194.59 258.16 194.95 265.91 194.42 C 266.56 208.95 265.21 223.48 265.47 238.01 C 265.46 288.34 265.37 338.68 265.35 389.01 C 265.32 397.14 265.47 405.27 265.11 413.39 C 252.79 412.77 240.46 413.50 228.14 413.53 C 227.98 414.10 227.64 415.26 227.47 415.84 C 240.15 415.11 252.85 415.03 265.55 415.14 C 265.28 418.83 265.26 422.53 265.28 426.23 C 268.57 426.11 271.87 425.84 275.05 424.96 C 282.75 422.96 290.51 421.12 298.01 418.45 C 302.12 419.30 306.05 420.76 310.11 421.77 C 308.93 420.41 307.71 418.95 305.92 418.43 C 302.73 417.37 299.01 415.66 295.92 417.96 C 285.85 416.54 275.72 415.40 265.55 415.14 C 265.44 414.70 265.22 413.83 265.11 413.39 C 274.55 413.65 283.94 414.65 293.32 415.60 C 297.49 404.37 301.96 393.26 305.73 381.88 C 306.93 378.06 309.29 374.70 310.30 370.82 C 311.61 353.93 312.10 336.98 313.44 320.09 C 313.61 315.42 313.53 310.73 314.11 306.09 C 314.75 299.66 314.41 293.17 315.27 286.75 C 316.19 254.78 319.34 222.93 320.32 190.96 C 313.18 191.43 306.14 192.77 298.99 193.07 C 288.28 193.43 277.61 194.64 266.88 194.42 C 266.70 193.76 266.34 192.44 266.16 191.78 C 275.44 191.73 284.69 190.99 293.95 190.63 C 302.25 190.33 310.45 188.47 318.77 188.74 C 319.34 189.19 320.49 190.09 321.06 190.54 C 326.22 190.26 331.19 188.51 336.16 187.19 C 335.91 195.52 334.85 203.79 334.25 212.10 C 333.28 221.36 333.02 230.71 331.65 239.93 C 330.99 231.20 333.04 222.56 332.57 213.83 C 332.22 206.35 334.92 198.79 332.85 191.43 C 330.60 196.66 330.98 202.48 330.36 208.03 C 329.29 225.07 326.62 241.97 326.11 259.04 C 323.63 287.46 321.65 315.90 319.53 344.33 C 317.29 365.49 316.45 386.76 314.34 407.92 C 314.27 409.77 314.11 411.70 314.64 413.52 C 315.32 414.80 316.88 415.24 318.01 416.03 C 317.66 418.51 317.86 421.22 316.79 423.53 C 313.07 427.09 307.77 428.07 302.93 429.16 C 279.90 433.63 256.30 433.73 232.94 432.84 C 220.54 432.15 208.05 431.11 196.00 427.91 C 192.86 427.14 190.03 425.55 187.42 423.69 C 187.26 421.55 187.10 419.41 186.92 417.27 C 188.48 416.97 190.04 416.68 191.60 416.39 C 189.56 386.26 186.91 356.17 185.32 326.01 C 183.42 305.03 182.02 284.00 180.07 263.02 C 178.70 248.69 178.56 234.27 176.82 219.98 C 176.59 218.04 176.30 216.11 176.38 214.16 C 177.85 213.33 179.66 213.81 181.27 213.73 C 184.10 214.03 186.95 213.83 189.73 213.22 C 187.82 210.96 185.07 209.83 182.16 209.66 C 180.09 209.38 178.03 209.14 175.97 208.89 C 175.61 203.40 175.19 197.92 174.45 192.47 C 172.63 192.11 170.81 191.74 169.00 191.36 L 168.69 191.30 C 168.64 189.94 168.59 188.59 168.54 187.25 Z" fill="#87e2fc" opacity="1.00" stroke="#87e2fc" stroke-width="0.25" data-index="13"></path>
<path d="M 169.00 191.36 C 170.81 191.74 172.63 192.11 174.45 192.47 C 175.19 197.92 175.61 203.40 175.97 208.89 C 178.03 209.14 180.09 209.38 182.16 209.66 C 179.75 209.78 177.50 210.64 175.63 212.14 C 177.50 212.70 179.36 213.29 181.27 213.73 C 179.66 213.81 177.85 213.33 176.38 214.16 C 176.30 216.11 176.59 218.04 176.82 219.98 C 178.56 234.27 178.70 248.69 180.07 263.02 C 182.02 284.00 183.42 305.03 185.32 326.01 C 186.91 356.17 189.56 386.26 191.60 416.39 C 190.04 416.68 188.48 416.97 186.92 417.27 C 181.49 349.51 176.33 281.73 170.67 213.99 C 170.30 206.43 169.22 198.93 169.00 191.36 Z" fill="#c5f3fe" opacity="1.00" stroke="#c5f3fe" stroke-width="0.25" data-index="14"></path>
<path d="M 298.99 193.07 C 306.14 192.77 313.18 191.43 320.32 190.96 C 319.34 222.93 316.19 254.78 315.27 286.75 C 314.41 293.17 314.75 299.66 314.11 306.09 C 313.53 310.73 313.61 315.42 313.44 320.09 C 312.10 336.98 311.61 353.93 310.30 370.82 C 309.29 374.70 306.93 378.06 305.73 381.88 C 301.96 393.26 297.49 404.37 293.32 415.60 C 283.94 414.65 274.55 413.65 265.11 413.39 C 265.47 405.27 265.32 397.14 265.35 389.01 C 265.37 338.68 265.46 288.34 265.47 238.01 C 265.21 223.48 266.56 208.95 265.91 194.42 L 266.88 194.42 C 277.61 194.64 288.28 193.43 298.99 193.07 Z" fill="#c5f3fe" opacity="1.00" stroke="#c5f3fe" stroke-width="0.25" data-index="15"></path>
<path d="M 330.36 208.03 C 330.98 202.48 330.60 196.66 332.85 191.43 C 334.92 198.79 332.22 206.35 332.57 213.83 C 333.04 222.56 330.99 231.20 331.65 239.93 C 330.35 262.31 328.28 284.66 326.58 307.02 C 323.60 343.35 320.79 379.69 318.01 416.03 C 316.88 415.24 315.32 414.80 314.64 413.52 C 314.11 411.70 314.27 409.77 314.34 407.92 C 316.45 386.76 317.29 365.49 319.53 344.33 C 321.65 315.90 323.63 287.46 326.11 259.04 C 326.62 241.97 329.29 225.07 330.36 208.03 Z" fill="#c5f3fe" opacity="1.00" stroke="#c5f3fe" stroke-width="0.25" data-index="16"></path>
<path d="M 215.65 193.82 C 224.64 194.21 233.62 194.60 242.62 194.66 C 242.25 214.46 243.92 234.21 243.77 254.01 C 244.61 270.64 244.65 287.30 244.75 303.96 C 245.36 324.30 245.59 344.65 245.70 365.00 C 245.76 376.36 246.90 387.74 246.16 399.08 C 243.76 401.86 239.10 400.81 235.85 400.26 C 232.52 397.10 230.98 392.55 227.75 389.28 C 225.46 386.46 221.72 384.11 221.86 380.04 C 221.28 369.37 222.04 358.66 220.92 348.02 C 220.35 341.26 220.81 334.46 220.24 327.70 C 219.30 318.50 219.97 309.22 218.62 300.05 C 218.42 288.14 218.39 276.23 217.33 264.36 C 222.45 263.52 228.08 264.09 232.61 261.11 C 227.82 259.33 222.49 260.05 217.77 258.14 C 217.08 251.46 217.11 244.69 216.49 237.98 C 216.65 223.25 215.30 208.55 215.65 193.82 Z" fill="#c5f3fe" opacity="1.00" stroke="#c5f3fe" stroke-width="0.25" data-index="17"></path>
<path d="M 175.63 212.14 C 177.50 210.64 179.75 209.78 182.16 209.66 C 185.07 209.83 187.82 210.96 189.73 213.22 C 186.95 213.83 184.10 214.03 181.27 213.73 C 179.36 213.29 177.50 212.70 175.63 212.14 Z" fill="#ffffff" opacity="1.00" stroke="#ffffff" stroke-width="0.25" data-index="18"></path>
<path d="M 273.77 251.84 C 277.99 249.04 283.47 250.72 288.23 250.57 C 284.34 254.05 278.43 252.63 273.77 251.84 Z" fill="#ffffff" opacity="1.00" stroke="#ffffff" stroke-width="0.25" data-index="19"></path>
<path d="M 191.72 288.34 C 194.33 288.54 197.81 288.12 199.29 290.84 C 196.54 290.91 193.37 290.96 191.72 288.34 Z" fill="#c5f3fe" opacity="1.00" stroke="#c5f3fe" stroke-width="0.25" data-index="20"></path>
<path d="M 294.78 338.31 C 297.63 337.21 300.63 336.56 303.66 336.17 C 303.67 336.83 303.68 338.15 303.69 338.81 C 300.76 339.44 297.33 340.45 294.78 338.31 Z" fill="#ffffff" opacity="1.00" stroke="#ffffff" stroke-width="0.25" data-index="21"></path>
<path d="M 228.14 413.53 C 240.46 413.50 252.79 412.77 265.11 413.39 C 265.22 413.83 265.44 414.70 265.55 415.14 C 252.85 415.03 240.15 415.11 227.47 415.84 C 227.64 415.26 227.98 414.10 228.14 413.53 Z" fill="#265169" opacity="1.00" stroke="#265169" stroke-width="0.25" data-index="22"></path>
<path d="M 200.09 417.73 C 208.12 415.58 216.43 414.77 224.69 414.17 C 225.36 414.81 226.02 415.47 226.69 416.12 C 215.60 416.65 204.44 418.11 193.93 421.80 C 194.80 419.06 197.70 418.43 200.09 417.73 Z" fill="#265169" opacity="1.00" stroke="#265169" stroke-width="0.25" data-index="23"></path>
<path d="M 265.55 415.14 C 275.72 415.40 285.85 416.54 295.92 417.96 L 298.01 418.45 C 290.51 421.12 282.75 422.96 275.05 424.96 C 271.87 425.84 268.57 426.11 265.28 426.23 C 265.26 422.53 265.28 418.83 265.55 415.14 Z" fill="#c5f3fe" opacity="1.00" stroke="#c5f3fe" stroke-width="0.25" data-index="24"></path>
<path d="M 295.92 417.96 C 299.01 415.66 302.73 417.37 305.92 418.43 C 307.71 418.95 308.93 420.41 310.11 421.77 C 306.05 420.76 302.12 419.30 298.01 418.45 L 295.92 417.96 Z" fill="#265169" opacity="1.00" stroke="#265169" stroke-width="0.25" data-index="25"></path>
<path d="M 317.45 425.36 C 318.01 426.23 318.47 427.17 319.02 428.06 C 317.16 429.06 317.82 431.41 317.45 433.11 C 316.79 442.38 316.06 451.66 315.33 460.93 C 315.11 463.34 312.11 463.71 310.31 464.45 C 301.31 466.87 292.03 468.77 282.68 468.87 C 286.90 466.94 291.57 466.02 295.62 463.75 C 296.27 461.21 296.28 458.57 296.39 455.97 C 296.51 449.95 297.50 443.99 297.31 437.97 C 289.02 438.64 280.80 439.95 272.48 440.38 C 272.08 450.24 273.25 460.23 271.54 469.99 C 262.44 470.53 253.32 470.54 244.21 470.36 C 244.40 459.13 243.56 447.93 243.26 436.71 C 264.45 437.06 285.87 436.42 306.65 431.87 C 310.81 430.92 316.11 430.20 317.45 425.36 Z" fill="#87e2fc" opacity="1.00" stroke="#87e2fc" stroke-width="0.25" data-index="26"></path>
<path d="M 186.39 427.18 C 191.59 431.05 198.19 432.05 204.41 433.15 L 204.40 433.35 C 203.51 444.59 205.08 455.84 205.48 467.07 C 199.91 466.06 193.62 465.52 189.05 461.94 C 187.93 450.38 187.21 438.76 186.39 427.18 Z" fill="#87e2fc" opacity="1.00" stroke="#87e2fc" stroke-width="0.25" data-index="27"></path>
<path d="M 205.48 467.07 C 205.08 455.84 203.51 444.59 204.40 433.35 C 217.23 435.57 230.25 436.39 243.26 436.71 C 243.56 447.93 244.40 459.13 244.21 470.36 C 231.26 469.90 218.30 469.25 205.48 467.23 L 205.48 467.07 Z" fill="#c5f3fe" opacity="1.00" stroke="#c5f3fe" stroke-width="0.25" data-index="28"></path>
<path d="M 272.48 440.38 C 280.80 439.95 289.02 438.64 297.31 437.97 C 297.50 443.99 296.51 449.95 296.39 455.97 C 296.28 458.57 296.27 461.21 295.62 463.75 C 291.57 466.02 286.90 466.94 282.68 468.87 C 279.04 469.78 275.25 469.68 271.54 469.99 C 273.25 460.23 272.08 450.24 272.48 440.38 Z" fill="#c5f3fe" opacity="1.00" stroke="#c5f3fe" stroke-width="0.25" data-index="29"></path>

</svg>