<?xml version="1.0" encoding="utf-8"?>
<svg xmlns="http://www.w3.org/2000/svg" height="512pt" version="1.1" viewBox="0 0 512 512" width="512pt">
<path d="M 0.00 0.00 L 512.00 0.00 L 512.00 512.00 L 0.00 512.00 L 0.00 0.00 Z" fill="transparent" opacity="1.00" stroke="transparent" stroke-width="0.25"/>
<path d="M 251.98 143.08 C 258.63 142.09 265.39 142.44 272.09 142.38 C 297.71 142.61 323.34 141.85 348.96 142.36 C 360.46 142.60 371.98 142.13 383.47 142.67 C 385.14 144.07 387.49 145.45 387.54 147.91 C 387.75 153.79 387.50 159.68 387.70 165.57 C 387.56 182.49 388.16 199.41 387.78 216.33 C 386.44 219.81 382.57 221.46 379.08 221.67 C 368.05 221.74 357.03 222.78 346.01 221.93 C 324.65 222.63 303.26 222.71 281.89 222.51 C 274.79 232.15 262.71 238.58 250.59 237.39 C 250.51 236.91 250.33 235.94 250.24 235.45 C 255.74 233.62 259.32 228.09 259.63 222.42 C 255.46 221.14 250.35 222.19 246.95 218.97 C 244.30 214.84 245.53 209.63 245.21 205.00 C 244.27 191.02 244.78 176.98 244.66 162.97 C 244.49 157.97 245.21 153.02 245.74 148.06 C 246.00 147.52 246.50 146.42 246.76 145.88 C 248.20 144.48 249.91 143.28 251.98 143.08 Z" fill="#02182d" opacity="1.00" stroke="#02182d" stroke-width="0.25"/>
<path d="M 256.03 144.49 C 274.69 143.82 293.40 144.75 312.06 143.80 C 334.37 143.52 356.67 144.79 378.98 144.29 C 380.80 144.36 383.11 143.91 384.41 145.57 C 385.89 146.97 385.75 149.14 385.75 150.99 C 385.43 172.45 385.95 193.91 386.27 215.36 C 383.75 221.00 376.98 219.62 372.01 219.73 C 362.37 220.51 352.67 220.29 343.00 220.01 C 322.64 220.64 302.26 220.55 281.89 220.60 L 281.08 220.88 C 274.81 229.13 264.95 235.36 254.39 235.40 C 258.82 231.89 262.39 226.32 260.94 220.45 C 256.82 219.58 252.50 219.91 248.52 218.40 C 247.89 217.04 247.23 215.65 247.27 214.11 C 247.14 199.74 246.50 185.37 246.74 170.99 C 246.79 163.26 246.37 155.46 247.72 147.82 C 249.03 144.54 253.08 144.65 256.03 144.49 Z" fill="#e0f7ff" opacity="1.00" stroke="#e0f7ff" stroke-width="0.25"/>
<path d="M 300.77 165.63 C 306.27 162.70 313.01 162.22 318.95 164.01 C 322.31 165.26 325.84 167.37 327.09 170.94 C 328.36 174.41 328.04 178.65 325.60 181.55 C 322.80 185.33 318.17 186.90 314.62 189.80 C 314.16 191.70 313.78 193.61 313.54 195.55 C 310.57 195.65 307.60 195.73 304.64 195.51 C 304.63 191.78 304.56 187.40 307.71 184.80 C 310.73 182.67 314.15 181.16 317.24 179.12 C 317.87 177.25 319.31 174.97 317.61 173.22 C 313.55 167.73 303.41 170.58 302.85 177.51 C 299.91 176.96 297.00 176.25 294.09 175.55 C 294.81 171.49 297.04 167.61 300.77 165.63 Z" fill="#052c4c" opacity="1.00" stroke="#052c4c" stroke-width="0.25"/>
<path d="M 387.78 216.33 C 388.16 199.41 387.56 182.49 387.70 165.57 C 388.26 167.68 388.35 169.86 388.33 172.04 C 388.16 184.01 389.25 195.98 388.56 207.95 C 388.26 210.72 389.24 213.79 387.78 216.33 Z" fill="#a2b2c2" opacity="1.00" stroke="#a2b2c2" stroke-width="0.25"/>
<path d="M 161.89 194.01 C 170.19 191.33 179.24 190.07 187.82 192.16 C 194.69 193.67 200.78 197.47 206.20 201.82 C 211.55 206.45 216.50 212.45 223.99 213.34 C 223.00 216.83 219.85 218.94 217.14 221.04 C 214.80 222.92 212.02 224.11 209.14 224.88 C 209.46 228.44 211.65 231.58 211.51 235.23 C 215.01 239.15 218.99 242.68 221.71 247.23 C 220.12 249.85 217.40 251.00 214.43 251.18 C 214.75 256.53 213.83 262.17 210.54 266.54 C 205.55 273.97 196.42 278.09 187.57 277.69 C 185.61 281.27 184.43 285.20 182.86 288.95 C 182.35 290.25 181.86 291.55 181.37 292.86 C 180.47 292.64 179.57 292.44 178.67 292.26 C 179.03 292.06 179.75 291.67 180.11 291.47 C 181.80 286.92 183.71 282.44 185.13 277.79 C 182.66 277.38 180.19 276.67 178.44 274.78 C 187.62 277.17 198.32 276.34 205.55 269.62 C 211.45 264.89 213.26 256.88 212.60 249.65 L 213.00 249.55 C 215.18 249.13 217.36 248.65 219.50 248.04 C 218.79 246.73 218.09 245.41 217.26 244.18 C 215.15 241.21 211.96 239.09 210.17 235.90 C 209.30 232.47 208.54 228.99 207.17 225.70 C 198.73 227.29 190.03 226.28 181.96 223.46 C 181.18 226.67 179.87 229.70 178.79 232.81 C 178.57 233.49 178.14 234.86 177.92 235.54 C 175.52 236.11 173.28 234.85 170.94 234.59 C 167.62 234.70 164.58 237.56 164.55 240.93 C 164.16 244.34 166.99 246.84 169.50 248.61 C 172.40 250.50 175.99 250.16 179.28 250.47 C 177.04 251.53 174.58 251.88 172.13 251.75 C 171.25 251.54 170.37 251.33 169.50 251.11 C 169.26 253.61 168.71 256.11 167.29 258.23 C 163.33 261.94 158.52 264.73 153.31 266.25 C 153.35 271.71 153.68 277.52 151.03 282.50 C 150.97 281.81 150.85 280.42 150.79 279.73 C 151.11 275.56 152.10 271.38 151.52 267.14 C 150.35 267.42 149.18 267.71 148.01 267.99 C 137.29 256.24 131.92 239.84 133.96 224.04 C 135.12 216.80 137.14 208.90 143.24 204.22 C 145.34 202.27 148.27 202.08 150.95 201.67 C 153.02 197.40 157.70 195.53 161.89 194.01 Z" fill="#102031" opacity="1.00" stroke="#102031" stroke-width="0.25"/>
<path d="M 170.03 193.83 C 180.36 191.39 191.68 193.63 200.37 199.71 C 207.61 204.39 212.81 211.95 221.12 214.97 C 216.20 221.33 208.02 224.65 200.07 224.62 C 193.36 225.17 186.87 223.27 180.56 221.24 C 179.41 225.50 178.11 229.71 176.53 233.83 C 173.35 233.21 169.84 232.04 166.82 233.86 C 163.60 235.87 161.74 240.26 163.01 243.93 C 163.65 246.39 165.91 247.81 167.39 249.72 C 168.27 253.62 166.10 257.79 162.71 259.77 C 158.24 262.49 153.42 264.77 148.29 265.93 C 143.71 259.66 139.39 253.06 137.36 245.47 C 134.73 236.00 134.35 225.69 137.44 216.28 C 138.95 211.96 141.14 207.59 144.97 204.89 C 147.38 203.34 151.10 204.51 152.72 201.73 C 156.82 196.42 163.87 195.23 170.03 193.83 Z" fill="#73524b" opacity="1.00" stroke="#73524b" stroke-width="0.25"/>
<path d="M 306.32 199.39 C 309.59 197.43 314.44 200.08 314.24 203.99 C 314.56 208.77 307.58 210.49 304.79 207.23 C 302.79 204.92 303.43 200.64 306.32 199.39 Z" fill="#052b4c" opacity="1.00" stroke="#052b4c" stroke-width="0.25"/>
<path d="M 181.96 223.46 C 190.03 226.28 198.73 227.29 207.17 225.70 C 208.54 228.99 209.30 232.47 210.17 235.90 C 211.96 239.09 215.15 241.21 217.26 244.18 C 217.40 245.45 217.52 246.73 217.61 248.02 C 216.07 248.52 214.54 249.06 213.00 249.55 L 212.60 249.65 C 213.26 256.88 211.45 264.89 205.55 269.62 C 198.32 276.34 187.62 277.17 178.44 274.78 C 180.19 276.67 182.66 277.38 185.13 277.79 C 183.71 282.44 181.80 286.92 180.11 291.47 C 179.75 291.67 179.03 292.06 178.67 292.26 C 168.42 291.91 157.84 290.48 148.76 285.45 C 149.52 284.47 150.39 283.57 151.03 282.50 C 153.68 277.52 153.35 271.71 153.31 266.25 C 158.52 264.73 163.33 261.94 167.29 258.23 C 168.94 256.89 169.41 254.80 169.93 252.86 C 170.48 252.58 171.58 252.03 172.13 251.75 C 174.58 251.88 177.04 251.53 179.28 250.47 C 175.99 250.16 172.40 250.50 169.50 248.61 C 168.76 246.50 167.01 245.07 165.26 243.80 C 164.92 240.55 166.26 237.40 168.98 235.54 C 172.09 234.97 175.20 236.38 178.25 236.93 C 178.38 235.55 178.56 234.17 178.79 232.81 C 179.87 229.70 181.18 226.67 181.96 223.46 Z" fill="#ffc4a6" opacity="1.00" stroke="#ffc4a6" stroke-width="0.25"/>
<path d="M 192.36 235.76 C 195.94 233.10 200.10 231.07 204.53 230.38 C 204.64 231.63 204.70 232.90 204.69 234.17 C 200.92 235.78 197.81 239.35 193.39 238.85 C 193.13 238.08 192.61 236.53 192.36 235.76 Z" fill="#0b263d" opacity="1.00" stroke="#0b263d" stroke-width="0.25"/>
<path d="M 177.92 235.54 C 178.14 234.86 178.57 233.49 178.79 232.81 C 178.56 234.17 178.38 235.55 178.25 236.93 C 175.20 236.38 172.09 234.97 168.98 235.54 C 166.26 237.40 164.92 240.55 165.26 243.80 C 167.01 245.07 168.76 246.50 169.50 248.61 C 166.99 246.84 164.16 244.34 164.55 240.93 C 164.58 237.56 167.62 234.70 170.94 234.59 C 173.28 234.85 175.52 236.11 177.92 235.54 Z" fill="#ffffff" opacity="1.00" stroke="#ffffff" stroke-width="0.25"/>
<path d="M 201.63 238.43 C 202.79 238.16 203.94 237.89 205.11 237.63 C 206.14 239.74 206.52 242.05 206.46 244.39 C 204.89 244.72 203.29 244.80 201.71 244.48 C 201.39 243.31 201.06 242.15 200.73 241.00 C 201.03 240.14 201.33 239.28 201.63 238.43 Z" fill="#081c37" opacity="1.00" stroke="#081c37" stroke-width="0.25"/>
<path d="M 217.26 244.18 C 218.09 245.41 218.79 246.73 219.50 248.04 C 217.36 248.65 215.18 249.13 213.00 249.55 C 214.54 249.06 216.07 248.52 217.61 248.02 C 217.52 246.73 217.40 245.45 217.26 244.18 Z" fill="#ffffff" opacity="1.00" stroke="#ffffff" stroke-width="0.25"/>
<path d="M 169.50 251.11 C 170.37 251.33 171.25 251.54 172.13 251.75 C 171.58 252.03 170.48 252.58 169.93 252.86 C 169.41 254.80 168.94 256.89 167.29 258.23 C 168.71 256.11 169.26 253.61 169.50 251.11 Z" fill="#ffffff" opacity="1.00" stroke="#ffffff" stroke-width="0.25"/>
<path d="M 290.42 254.39 C 291.90 253.01 293.94 253.17 295.80 253.26 C 295.95 255.41 295.90 257.73 294.43 259.47 C 290.75 264.16 285.96 267.86 280.95 271.02 C 283.27 273.38 285.37 276.00 288.12 277.91 C 288.52 282.22 290.24 287.44 287.23 291.18 C 284.90 293.58 281.74 292.24 279.94 290.00 C 279.38 289.88 278.26 289.62 277.70 289.50 C 278.37 292.07 278.23 295.31 275.72 296.86 C 270.37 300.19 263.79 299.94 257.75 300.76 C 256.84 299.48 256.39 297.97 256.02 296.48 C 256.33 297.09 256.97 298.31 257.29 298.92 C 262.69 298.49 268.23 298.28 273.35 296.32 C 275.50 295.70 277.07 292.97 275.98 290.90 C 274.64 288.21 273.09 285.62 272.21 282.73 C 275.97 282.27 279.86 282.79 283.55 281.87 C 285.40 281.44 285.51 279.39 286.08 277.93 C 281.62 277.16 276.73 277.72 272.59 275.66 C 274.02 275.27 275.45 274.90 276.89 274.55 C 277.34 273.48 277.38 272.12 278.40 271.38 C 282.35 267.81 287.10 265.22 290.76 261.31 C 292.66 259.41 294.00 257.03 294.63 254.42 C 292.00 255.18 289.71 256.68 287.68 258.47 C 281.45 264.02 273.95 267.75 266.75 271.79 C 262.19 275.64 257.26 279.10 253.09 283.39 C 252.46 282.97 251.83 282.55 251.21 282.14 C 258.28 277.38 263.85 270.38 271.89 267.14 C 278.60 263.71 284.47 258.96 290.42 254.39 Z" fill="#102031" opacity="1.00" stroke="#102031" stroke-width="0.25"/>
<path d="M 287.68 258.47 C 289.71 256.68 292.00 255.18 294.63 254.42 C 294.00 257.03 292.66 259.41 290.76 261.31 C 289.73 260.36 288.70 259.41 287.68 258.47 Z" fill="#d6bcb1" opacity="1.00" stroke="#d6bcb1" stroke-width="0.25"/>
<path d="M 266.75 271.79 C 273.95 267.75 281.45 264.02 287.68 258.47 C 288.70 259.41 289.73 260.36 290.76 261.31 C 287.10 265.22 282.35 267.81 278.40 271.38 C 277.38 272.12 277.34 273.48 276.89 274.55 C 275.45 274.90 274.02 275.27 272.59 275.66 C 276.73 277.72 281.62 277.16 286.08 277.93 C 285.51 279.39 285.40 281.44 283.55 281.87 C 279.86 282.79 275.97 282.27 272.21 282.73 C 273.09 285.62 274.64 288.21 275.98 290.90 C 277.07 292.97 275.50 295.70 273.35 296.32 C 268.23 298.28 262.69 298.49 257.29 298.92 C 256.97 298.31 256.33 297.09 256.02 296.48 C 255.11 293.66 253.90 290.96 252.83 288.21 C 252.82 287.39 252.81 285.76 252.80 284.95 C 253.40 284.43 254.00 283.92 254.61 283.40 L 253.09 283.39 C 257.26 279.10 262.19 275.64 266.75 271.79 Z" fill="#fec2a5" opacity="1.00" stroke="#fec2a5" stroke-width="0.25"/>
<path d="M 279.43 272.96 C 280.72 273.78 281.94 274.70 283.11 275.69 C 281.76 275.59 280.41 275.48 279.06 275.38 C 279.15 274.77 279.34 273.57 279.43 272.96 Z" fill="#ffffff" opacity="1.00" stroke="#ffffff" stroke-width="0.25"/>
<path d="M 150.79 279.73 C 150.85 280.42 150.97 281.81 151.03 282.50 C 150.39 283.57 149.52 284.47 148.76 285.45 C 157.84 290.48 168.42 291.91 178.67 292.26 C 179.57 292.44 180.47 292.64 181.37 292.86 C 181.86 291.55 182.35 290.25 182.86 288.95 C 182.65 289.77 182.24 291.39 182.03 292.20 C 195.18 294.82 208.70 292.47 221.53 289.32 C 230.91 286.62 240.32 283.81 249.19 279.70 C 249.84 281.20 250.42 282.77 251.49 284.05 C 251.83 285.46 252.15 286.90 252.83 288.21 C 253.90 290.96 255.11 293.66 256.02 296.48 C 256.39 297.97 256.84 299.48 257.75 300.76 C 258.65 302.10 259.29 303.58 259.84 305.10 C 239.59 315.00 218.07 323.82 195.24 324.61 C 197.81 336.11 200.72 347.60 201.86 359.35 C 193.06 360.07 184.25 360.82 175.51 362.07 C 174.55 362.23 173.59 362.34 172.63 362.39 C 150.19 364.07 127.80 366.52 105.39 368.62 L 104.64 368.71 C 105.39 360.46 106.03 352.20 106.64 343.93 C 105.10 343.82 103.55 343.70 102.00 343.58 C 104.83 330.64 108.45 317.83 113.39 305.53 C 117.17 296.22 126.19 289.69 135.95 287.92 C 141.52 286.81 148.07 285.34 150.79 279.73 Z" fill="#042d4d" opacity="1.00" stroke="#042d4d" stroke-width="0.25"/>
<path d="M 282.95 284.87 C 284.17 283.42 285.79 282.37 287.26 281.19 C 287.30 283.96 287.76 286.93 286.46 289.52 C 285.59 290.91 283.92 290.70 282.53 290.58 C 282.44 288.67 282.24 286.69 282.95 284.87 Z" fill="#efbda3" opacity="1.00" stroke="#efbda3" stroke-width="0.25"/>
<path d="M 275.46 284.06 C 277.56 282.74 278.28 287.58 276.22 287.80 C 275.07 287.07 274.84 285.20 275.46 284.06 Z" fill="#ffffff" opacity="1.00" stroke="#ffffff" stroke-width="0.25"/>
<path d="M 278.68 288.76 C 279.08 287.15 278.11 283.78 280.74 283.99 C 280.47 285.77 281.05 288.21 278.68 288.76 Z" fill="#ffffff" opacity="1.00" stroke="#ffffff" stroke-width="0.25"/>
<path d="M 127.04 293.01 C 133.20 289.45 140.63 289.59 146.96 286.42 C 156.87 292.26 168.69 294.19 180.07 293.77 C 197.59 297.44 215.67 293.51 232.37 287.99 C 235.49 295.72 238.41 303.54 241.60 311.23 C 226.78 317.66 210.84 322.19 194.63 322.74 C 193.12 317.24 191.63 311.71 189.44 306.44 C 189.01 305.23 188.24 304.17 187.03 303.66 C 187.56 307.96 189.90 311.75 190.92 315.94 C 194.60 329.66 197.56 343.57 199.85 357.59 C 179.69 359.18 159.61 361.89 139.41 362.84 C 139.57 358.40 140.39 354.03 140.69 349.60 C 141.18 349.62 142.15 349.67 142.64 349.69 C 143.77 343.70 144.18 337.47 146.88 331.91 C 148.28 327.97 150.76 324.27 150.82 319.98 C 148.13 322.10 147.75 325.77 146.32 328.69 C 146.32 324.71 147.38 320.86 147.97 316.96 C 148.65 315.65 147.75 314.59 146.70 314.02 C 144.59 325.16 142.89 336.37 141.31 347.59 C 129.05 344.87 116.59 343.07 104.10 341.67 C 107.26 330.16 110.25 318.56 114.61 307.42 C 116.92 301.38 121.33 296.11 127.04 293.01 Z" fill="#82dbfe" opacity="1.00" stroke="#82dbfe" stroke-width="0.25"/>
<path d="M 201.86 359.35 C 212.27 358.70 222.63 357.37 233.02 356.53 C 241.07 356.51 249.15 356.33 257.17 357.21 C 282.09 358.03 306.98 359.63 331.91 360.71 C 355.91 362.13 379.93 363.03 403.93 364.46 C 405.48 364.86 408.29 363.83 408.49 366.28 C 393.95 366.44 379.48 364.49 364.94 364.38 C 325.33 362.08 285.68 360.38 246.04 358.44 C 232.27 357.75 218.62 359.88 204.94 361.03 C 196.94 361.48 189.00 362.52 181.01 363.12 C 179.14 363.06 176.25 364.65 175.51 362.07 C 184.25 360.82 193.06 360.07 201.86 359.35 Z" fill="#c6d3e4" opacity="1.00" stroke="#c6d3e4" stroke-width="0.25"/>
<path d="M 105.39 368.62 C 127.80 366.52 150.19 364.07 172.63 362.39 C 172.97 362.64 173.67 363.16 174.02 363.41 C 169.76 364.55 165.33 364.52 161.00 365.19 C 142.29 367.23 123.52 368.72 104.79 370.56 C 104.94 370.07 105.24 369.11 105.39 368.62 Z" fill="#c4d7e5" opacity="1.00" stroke="#c4d7e5" stroke-width="0.25"/>
</svg>