<svg xmlns="http://www.w3.org/2000/svg" height="512pt" version="1.1" viewBox="0 0 512 512" width="512pt">

<path d="M 175.21 163.06 C 173.39 156.41 177.63 148.29 184.81 147.42 C 191.64 145.93 198.92 151.06 200.01 157.90 C 201.05 162.67 199.06 167.73 195.29 170.76 C 195.85 178.58 197.75 186.22 198.92 193.97 C 203.05 221.51 208.11 248.94 210.76 276.68 C 218.06 275.49 224.76 272.25 231.69 269.83 C 239.37 267.10 246.49 263.10 254.00 259.98 C 273.65 251.79 294.88 245.79 316.36 247.58 C 324.93 248.52 333.74 250.87 340.49 256.49 C 344.30 259.76 346.02 264.87 345.33 269.82 C 338.86 264.62 331.18 261.05 322.97 259.73 C 305.72 256.64 288.00 259.09 271.16 263.33 C 251.19 268.27 231.99 277.61 211.06 277.70 C 213.08 298.91 215.07 320.14 216.47 341.41 C 216.54 347.84 217.78 354.23 217.51 360.67 C 216.29 361.68 214.42 360.99 212.95 361.23 C 203.72 360.96 194.31 360.97 185.36 358.45 C 183.48 296.60 186.25 234.73 186.35 172.87 C 181.24 171.95 176.26 168.38 175.21 163.06 Z" fill="#275d88" opacity="1.00" stroke="#275d88" stroke-width="0.25" data-index="1" style="visibility: hidden; opacity: 1;"></path>

<path d="M 252.35 167.33 C 259.81 162.89 268.47 160.97 276.99 159.85 C 283.06 159.29 289.46 159.37 295.14 161.85 C 298.76 163.64 302.69 167.04 301.62 171.55 C 286.26 169.03 270.47 171.11 255.71 175.74 C 243.61 179.94 230.92 183.32 218.01 182.86 C 211.87 182.68 205.50 182.58 199.87 179.83 C 212.24 181.36 224.85 179.10 236.25 174.22 C 241.64 171.97 247.26 170.23 252.35 167.33 Z" fill="#275d88" opacity="1.00" stroke="#275d88" stroke-width="0.25" data-index="3"></path>

<path d="M 290.04 187.68 C 301.97 185.94 315.45 185.98 325.51 193.55 C 328.22 195.93 331.60 200.16 329.42 203.78 C 315.38 195.85 298.44 196.12 283.01 198.90 C 259.84 202.76 237.75 211.50 214.45 214.71 C 210.93 215.13 207.32 215.64 203.81 214.87 C 207.76 213.70 211.90 213.39 215.86 212.25 C 220.73 210.90 225.33 208.80 230.02 206.94 C 249.29 198.55 269.19 191.01 290.04 187.68 Z" fill="#275d88" opacity="1.00" stroke="#275d88" stroke-width="0.25" data-index="5"></path>
<path d="M 255.52 228.70 C 269.61 222.65 284.67 218.84 299.94 217.48 C 313.15 216.81 327.29 218.09 338.72 225.31 C 343.62 228.21 345.69 233.94 345.27 239.44 C 341.48 237.21 337.93 234.46 333.71 233.07 C 320.42 228.12 305.99 227.82 292.00 228.65 C 282.85 229.59 273.78 231.24 264.82 233.33 C 252.76 236.28 241.02 240.45 228.87 243.01 C 224.26 243.81 219.56 244.59 214.87 243.99 C 217.73 242.96 220.74 242.51 223.68 241.77 C 234.76 238.64 245.06 233.40 255.52 228.70 Z" fill="#275d88" opacity="1.00" stroke="#275d88" stroke-width="0.25" data-index="6"></path>
</svg>