<?xml version="1.0" encoding="utf-8"?>
<svg xmlns="http://www.w3.org/2000/svg" height="512pt" version="1.1" viewBox="0 0 512 512" width="512pt">
<path d="M 0.00 0.00 L 512.00 0.00 L 512.00 512.00 L 0.00 512.00 L 0.00 0.00 Z" fill="transparent" opacity="1.00" stroke="transparent" stroke-width="0.25"/>
<path d="M 120.33 13.79 C 123.94 14.54 124.25 18.57 125.35 21.42 C 128.56 32.34 132.59 42.98 136.35 53.72 C 140.62 50.67 144.42 47.04 148.04 43.25 C 149.26 44.14 150.48 45.03 151.69 45.92 C 152.88 39.24 154.32 32.57 156.96 26.29 C 158.57 26.22 160.32 26.13 161.41 27.56 C 168.78 34.75 175.73 42.87 179.19 52.73 C 184.95 51.72 190.45 49.46 196.31 48.94 C 197.71 55.42 199.28 61.86 200.44 68.39 C 206.38 68.18 212.29 67.45 218.24 67.44 C 219.69 76.13 220.80 84.92 222.42 93.56 C 227.82 97.40 233.67 100.60 239.41 103.92 C 237.44 111.80 235.59 119.72 233.50 127.57 C 238.86 132.41 244.43 137.02 249.86 141.79 C 248.45 148.82 244.85 155.36 244.16 162.49 C 249.48 167.09 255.25 171.19 260.82 175.49 C 260.18 181.74 258.81 187.89 258.35 194.15 C 258.27 196.06 260.56 197.08 260.76 198.98 C 260.70 202.05 259.26 204.87 258.55 207.82 C 260.22 208.42 261.92 208.97 263.53 209.75 C 263.92 212.30 261.49 213.13 259.77 214.24 C 280.49 221.11 302.90 219.38 323.97 215.12 C 336.85 212.74 349.67 208.24 362.95 209.62 C 371.35 210.74 379.64 214.34 385.55 220.53 C 387.95 222.79 389.92 225.58 392.79 227.29 C 403.09 232.41 411.13 241.53 416.10 251.78 C 423.13 267.70 416.95 285.06 417.54 301.64 C 421.19 301.91 424.95 302.77 427.54 305.57 C 434.17 312.17 438.70 320.49 444.14 328.03 C 445.52 329.90 446.62 331.96 447.25 334.21 C 444.60 333.62 442.32 332.15 440.15 330.60 C 440.87 335.67 441.70 340.77 441.32 345.91 C 437.02 344.20 435.86 339.27 433.80 335.60 C 433.30 344.17 432.43 352.94 429.21 360.97 C 428.63 360.80 427.48 360.46 426.91 360.29 C 425.53 353.25 423.93 346.26 422.09 339.33 C 420.15 344.50 418.49 350.62 413.47 353.65 C 413.49 349.13 414.55 344.64 414.07 340.12 C 413.20 330.65 408.61 321.93 408.21 312.38 C 405.24 309.24 403.89 305.09 402.76 301.01 C 402.67 300.19 402.49 298.54 402.40 297.72 C 400.76 312.12 398.85 326.68 400.54 341.17 C 401.40 351.83 404.79 363.34 413.73 370.01 C 414.69 384.63 413.74 399.32 413.89 413.97 C 413.89 428.64 413.53 443.33 413.81 458.00 C 415.80 468.97 420.63 479.22 422.81 490.15 C 408.45 492.64 393.78 492.77 379.24 492.69 C 379.84 485.40 381.75 478.29 382.77 471.06 C 386.27 450.91 386.90 430.42 386.71 410.02 C 386.52 404.15 387.18 398.13 385.37 392.44 C 383.72 387.25 380.24 382.94 377.61 378.24 C 375.38 388.11 374.00 398.17 371.29 407.95 C 367.13 425.34 360.14 442.12 358.46 460.05 C 357.80 470.89 360.06 481.59 360.64 492.38 C 347.51 492.96 334.35 492.40 321.26 491.24 C 322.34 485.70 324.64 480.52 326.46 475.20 C 333.17 456.23 337.36 436.52 341.99 416.98 C 344.33 406.73 346.25 396.40 348.22 386.08 C 341.32 367.55 333.68 349.30 325.48 331.31 C 322.76 331.11 320.32 333.09 317.76 333.88 C 297.61 342.37 275.28 343.35 253.77 341.43 C 252.80 352.93 251.52 364.43 251.36 375.99 C 251.24 380.99 251.07 386.07 252.18 390.99 C 258.51 424.26 261.88 457.98 264.97 491.67 C 265.02 492.89 265.37 494.22 264.71 495.36 C 260.20 496.14 255.63 496.35 251.07 496.60 C 242.09 497.02 233.06 497.73 224.11 496.57 C 226.21 485.46 228.91 474.41 229.72 463.10 C 231.19 449.70 229.81 436.22 228.44 422.88 C 226.00 402.69 222.86 382.56 217.97 362.81 C 213.38 387.13 208.88 411.49 206.08 436.10 C 203.51 455.99 202.94 476.06 201.41 496.04 C 187.58 496.35 173.68 495.41 159.98 493.53 C 160.68 488.57 162.61 483.92 164.35 479.26 C 168.46 469.04 172.54 458.71 174.47 447.81 C 179.20 422.10 181.92 396.04 183.30 369.94 C 183.36 351.48 180.38 333.21 178.39 314.91 C 178.06 312.36 178.08 309.63 176.64 307.40 C 170.09 295.63 169.97 281.80 168.20 268.79 C 165.96 249.79 160.17 231.48 155.27 213.06 C 151.74 198.31 149.50 183.23 149.07 168.07 C 132.47 174.55 114.86 178.73 97.00 179.17 C 86.11 179.31 74.77 177.63 65.43 171.68 C 57.47 166.81 50.54 159.35 48.56 150.00 C 45.87 138.33 46.74 124.97 54.23 115.17 C 61.79 105.21 72.84 98.93 83.11 92.18 C 92.83 86.23 102.32 79.91 112.03 73.95 C 110.74 67.01 109.28 60.06 109.30 52.97 C 108.91 41.65 111.83 30.47 116.38 20.18 C 117.40 17.88 118.83 15.80 120.33 13.79 Z" fill="#064370" opacity="1.00" stroke="#064370" stroke-width="0.25"/>
<path d="M 115.08 46.00 C 115.69 38.70 117.74 31.57 120.60 24.83 C 123.79 35.81 127.77 46.53 131.66 57.27 C 130.04 58.57 128.41 59.85 126.79 61.15 C 125.42 56.22 124.11 51.26 122.39 46.44 C 121.39 46.45 120.40 46.46 119.41 46.46 C 117.72 52.96 119.41 59.57 119.83 66.10 C 120.24 67.97 118.01 68.48 116.94 69.45 C 115.50 61.74 114.23 53.87 115.08 46.00 Z" fill="#f9feff" opacity="1.00" stroke="#f9feff" stroke-width="0.25"/>
<path d="M 160.01 34.10 C 165.75 40.23 171.16 46.92 174.15 54.87 C 177.62 64.45 178.32 74.90 176.96 84.97 C 176.49 88.74 175.02 92.44 175.59 96.29 C 176.81 95.88 178.04 95.48 179.26 95.07 C 179.08 105.31 178.07 115.90 173.14 125.08 C 166.72 136.97 160.07 148.90 151.15 159.13 C 147.70 163.21 142.22 164.32 137.45 166.12 C 128.86 168.73 120.11 171.10 111.15 171.93 C 107.59 154.39 98.14 138.67 87.24 124.71 C 82.29 118.39 76.75 112.54 70.92 107.01 C 82.21 99.16 94.13 92.28 105.60 84.71 C 110.74 81.34 115.97 78.12 121.20 74.91 C 121.20 77.42 121.28 79.93 121.55 82.42 C 124.20 82.83 126.94 83.03 129.56 82.32 C 136.44 80.51 143.00 77.71 149.57 75.03 C 149.61 78.89 149.29 82.83 150.43 86.58 C 151.45 86.58 153.50 86.58 154.53 86.58 C 154.98 69.00 155.32 51.19 160.01 34.10 Z" fill="#ffffff" opacity="1.00" stroke="#ffffff" stroke-width="0.25"/>
<path d="M 160.77 52.91 C 160.41 50.88 162.93 51.37 164.12 51.04 C 167.18 61.76 168.48 73.04 167.54 84.16 C 166.89 84.50 165.61 85.19 164.96 85.53 C 164.37 85.18 163.19 84.47 162.60 84.11 C 162.57 73.68 160.73 63.33 160.77 52.91 Z" fill="#083f68" opacity="1.00" stroke="#083f68" stroke-width="0.25"/>
<path d="M 182.35 61.66 C 183.78 61.45 185.23 61.39 186.68 61.32 C 187.79 66.33 184.78 71.01 184.08 75.88 L 186.26 75.64 C 185.88 75.76 185.10 76.00 184.71 76.11 L 185.32 76.91 C 184.64 78.05 183.96 79.20 183.34 80.39 C 183.56 74.11 182.78 67.89 182.35 61.66 Z" fill="#f2ffff" opacity="1.00" stroke="#f2ffff" stroke-width="0.25"/>
<path d="M 186.26 75.64 C 187.74 75.13 189.32 75.37 190.85 75.36 C 189.85 80.26 188.35 85.08 186.28 89.64 C 185.12 88.08 183.85 86.60 182.54 85.18 C 182.77 83.57 182.93 81.96 183.34 80.39 C 183.96 79.20 184.64 78.05 185.32 76.91 L 184.71 76.11 C 185.10 76.00 185.88 75.76 186.26 75.64 Z" fill="#fbfffe" opacity="1.00" stroke="#fbfffe" stroke-width="0.25"/>
<path d="M 188.39 88.60 C 192.89 86.10 196.34 82.07 200.89 79.69 C 204.31 78.98 206.15 82.19 207.53 84.69 C 206.21 91.84 200.77 97.09 198.13 103.69 C 194.99 98.96 191.55 94.39 187.50 90.40 C 187.72 89.95 188.17 89.05 188.39 88.60 Z" fill="#fefeff" opacity="1.00" stroke="#fefeff" stroke-width="0.25"/>
<path d="M 101.93 92.83 C 103.13 92.03 104.61 92.32 105.96 92.35 C 110.70 92.66 115.39 93.37 120.13 93.65 C 120.45 94.21 121.08 95.33 121.39 95.90 C 121.02 96.48 120.29 97.64 119.92 98.22 C 113.73 98.44 107.43 98.01 101.50 96.10 C 101.60 95.28 101.82 93.64 101.93 92.83 Z" fill="#0d426b" opacity="1.00" stroke="#0d426b" stroke-width="0.25"/>
<path d="M 184.87 95.68 C 188.05 99.66 191.39 103.54 194.28 107.74 C 195.07 108.85 194.41 110.23 194.18 111.41 C 190.91 122.61 186.48 133.55 180.26 143.45 C 174.91 151.93 167.06 159.58 156.91 161.58 C 161.43 155.42 165.85 149.18 169.70 142.57 C 174.22 135.40 178.59 128.06 181.47 120.06 C 184.27 112.26 184.81 103.89 184.87 95.68 Z" fill="#fcffff" opacity="1.00" stroke="#fcffff" stroke-width="0.25"/>
<path d="M 198.64 104.29 C 203.33 101.69 207.37 97.07 213.09 97.05 C 213.83 99.10 214.60 101.14 215.40 103.17 C 213.23 108.05 208.87 111.66 207.43 116.92 C 212.86 115.82 217.48 112.65 222.43 110.33 C 223.33 112.48 224.36 114.61 224.79 116.91 C 222.48 122.86 218.44 127.96 215.77 133.76 C 218.86 133.81 221.91 133.29 224.99 133.21 C 226.76 132.89 227.46 134.79 228.23 135.99 C 228.10 140.05 226.63 144.02 224.34 147.36 C 223.81 148.47 222.40 149.50 223.18 150.83 C 226.62 151.76 230.26 150.40 233.78 150.48 C 233.44 152.39 233.08 154.30 232.68 156.20 C 232.90 156.70 233.34 157.69 233.57 158.19 C 234.71 158.99 235.85 159.81 236.99 160.62 C 235.24 165.13 233.06 169.46 231.10 173.89 C 221.80 150.05 213.80 125.24 198.64 104.29 Z" fill="#fcffff" opacity="1.00" stroke="#fcffff" stroke-width="0.25"/>
<path d="M 131.12 103.20 C 132.73 101.47 134.65 104.02 135.88 105.04 C 139.65 108.99 143.55 112.83 147.11 116.97 C 148.61 118.31 148.05 121.01 146.08 121.56 C 140.77 118.50 137.38 113.10 132.97 108.97 C 131.67 107.54 129.10 104.98 131.12 103.20 Z" fill="#0c466e" opacity="1.00" stroke="#0c466e" stroke-width="0.25"/>
<path d="M 103.66 108.98 C 103.28 106.04 106.00 103.43 108.93 104.24 C 111.77 104.43 112.72 107.78 112.31 110.16 C 111.78 112.13 109.53 112.59 108.01 113.52 C 106.21 112.47 103.43 111.58 103.66 108.98 Z" fill="#07406d" opacity="1.00" stroke="#07406d" stroke-width="0.25"/>
<path d="M 125.59 119.54 C 127.05 116.76 131.43 116.41 133.23 119.01 C 134.93 120.77 133.67 123.23 133.40 125.29 C 131.44 125.70 129.12 127.37 127.36 125.67 C 125.00 124.63 124.80 121.68 125.59 119.54 Z" fill="#0b456b" opacity="1.00" stroke="#0b456b" stroke-width="0.25"/>
<path d="M 61.95 118.81 C 62.57 119.51 63.79 119.87 63.84 120.93 C 64.18 124.94 61.47 128.23 59.37 131.36 C 58.36 132.27 57.34 134.84 55.68 133.20 C 55.88 131.04 57.44 129.40 58.44 127.58 C 60.20 124.92 61.00 121.81 61.95 118.81 Z" fill="#f2ffff" opacity="1.00" stroke="#f2ffff" stroke-width="0.25"/>
<path d="M 194.64 146.61 C 199.19 140.39 201.97 133.17 205.35 126.31 C 206.89 129.20 208.36 132.12 209.68 135.12 C 206.10 145.42 202.96 156.05 197.26 165.44 C 188.33 178.93 171.62 185.87 155.78 185.43 C 155.45 180.32 154.95 175.23 154.53 170.13 C 159.66 170.62 164.98 170.82 169.87 168.93 C 180.70 165.09 188.58 156.01 194.64 146.61 Z" fill="#feffff" opacity="1.00" stroke="#feffff" stroke-width="0.25"/>
<path d="M 127.37 130.63 C 136.13 127.57 145.41 137.28 141.66 145.82 C 139.24 153.73 127.69 155.79 122.43 149.58 C 116.64 143.87 119.43 132.74 127.37 130.63 Z" fill="#f47957" opacity="1.00" stroke="#f47957" stroke-width="0.25"/>
<path d="M 58.42 154.26 C 65.40 155.42 72.01 152.16 76.90 147.38 C 77.46 147.92 78.02 148.45 78.58 148.99 C 76.04 152.14 72.70 154.46 69.18 156.40 C 65.65 157.24 62.02 157.29 58.46 156.63 C 58.45 156.04 58.43 154.85 58.42 154.26 Z" fill="#f4ffff" opacity="1.00" stroke="#f4ffff" stroke-width="0.25"/>
<path d="M 198.99 179.98 C 206.98 172.09 212.04 161.89 216.92 151.92 C 217.89 155.63 220.13 159.01 220.56 162.83 C 215.70 178.94 206.27 193.55 194.06 205.08 C 185.81 213.40 175.06 220.67 162.92 220.58 C 161.06 212.65 159.11 204.74 157.64 196.72 C 172.76 196.05 187.88 190.40 198.99 179.98 Z" fill="#feffff" opacity="1.00" stroke="#feffff" stroke-width="0.25"/>
<path d="M 231.86 175.77 C 235.74 174.88 239.50 173.56 243.34 172.48 C 246.48 176.44 247.31 182.34 244.79 186.81 C 243.25 189.75 241.78 192.75 240.69 195.89 C 237.86 189.14 234.38 182.66 231.86 175.77 Z" fill="#fdffff" opacity="1.00" stroke="#fdffff" stroke-width="0.25"/>
<path d="M 215.00 203.99 C 220.28 197.61 224.74 190.62 229.03 183.55 C 229.83 185.27 230.63 187.01 231.43 188.75 C 228.30 196.80 225.31 205.09 220.04 212.05 C 207.95 228.55 190.43 242.33 169.83 245.72 C 168.78 241.00 167.48 236.34 166.38 231.64 C 185.10 228.37 202.56 218.33 215.00 203.99 Z" fill="#feffff" opacity="1.00" stroke="#feffff" stroke-width="0.25"/>
<path d="M 241.20 197.05 C 243.42 195.35 245.58 193.54 248.06 192.22 C 249.90 194.42 251.48 196.97 252.12 199.79 C 251.98 203.04 251.57 206.28 251.56 209.54 C 247.59 205.82 244.27 201.52 241.20 197.05 Z" fill="#fbfffd" opacity="1.00" stroke="#fbfffd" stroke-width="0.25"/>
<path d="M 226.57 225.47 C 232.22 220.00 236.76 213.55 241.67 207.45 C 242.64 208.38 243.63 209.32 244.62 210.24 C 240.78 225.02 236.85 239.77 232.84 254.50 C 231.15 260.30 232.92 266.41 235.57 271.62 C 239.56 279.11 242.73 287.26 248.84 293.37 C 249.25 293.35 250.05 293.32 250.45 293.30 C 250.82 283.72 246.66 274.61 247.38 265.00 C 248.20 248.65 251.99 232.53 251.58 216.10 C 254.54 217.64 257.54 219.10 260.55 220.57 C 260.32 220.88 259.88 221.49 259.66 221.79 C 257.99 233.46 256.63 245.31 257.85 257.10 C 260.14 274.51 267.31 290.81 270.13 308.11 C 270.77 311.96 270.88 316.05 272.90 319.51 C 276.90 309.87 275.57 299.10 274.71 288.98 C 273.67 276.64 270.91 264.45 271.09 252.01 C 270.92 242.44 272.57 232.98 273.65 223.51 C 276.24 223.71 278.81 223.98 281.39 224.24 C 280.81 245.27 285.54 265.99 285.32 287.01 C 285.45 297.15 284.05 307.26 284.43 317.40 C 286.43 316.48 287.00 314.36 287.64 312.48 C 295.96 283.60 302.78 254.07 304.37 223.97 C 308.49 223.55 312.57 222.89 316.67 222.34 C 312.54 237.77 311.79 253.81 309.21 269.51 C 306.98 282.31 302.86 294.67 298.68 306.94 C 297.24 311.33 295.24 315.67 295.18 320.38 C 298.72 319.25 299.85 315.33 301.67 312.49 C 308.96 298.44 316.61 284.41 321.22 269.20 C 323.64 260.69 322.81 251.70 324.66 243.09 C 326.18 234.91 329.23 227.11 332.85 219.64 C 336.98 218.48 341.14 217.46 345.28 216.32 C 337.18 228.90 332.73 243.40 329.65 257.92 C 328.48 263.64 326.64 269.28 326.35 275.14 C 329.96 273.70 332.06 270.31 334.22 267.29 C 337.51 262.48 340.65 257.52 342.93 252.13 C 347.97 239.55 352.62 226.66 359.92 215.16 C 370.60 215.84 380.89 221.55 386.61 230.67 C 371.77 238.92 360.90 252.31 349.54 264.59 C 344.55 270.48 339.05 276.96 338.49 285.01 C 340.41 284.72 342.28 284.12 343.72 282.76 C 357.30 271.22 372.36 261.50 388.15 253.28 C 391.06 251.74 393.93 250.11 397.04 249.03 C 398.63 255.81 399.99 262.68 399.97 269.68 C 389.79 273.17 379.52 276.79 370.20 282.25 C 361.88 287.25 354.49 293.75 348.22 301.14 C 346.11 303.84 343.40 306.63 343.55 310.31 C 344.76 310.87 346.21 311.00 347.42 310.32 C 363.22 299.47 381.82 293.85 398.57 284.70 C 396.92 295.19 395.73 305.73 394.57 316.28 C 386.51 317.78 378.26 319.16 370.85 322.82 C 365.17 325.58 361.19 330.60 356.99 335.13 C 352.91 327.32 348.87 319.47 344.06 312.09 C 343.51 312.22 342.41 312.46 341.86 312.58 C 340.31 316.75 335.91 318.36 332.40 320.47 C 319.61 327.62 305.73 333.14 291.15 335.10 C 279.07 336.94 266.79 336.74 254.66 335.63 C 255.22 330.92 256.19 326.17 255.48 321.42 C 254.17 321.34 252.85 321.27 251.54 321.22 C 249.77 326.01 249.47 331.15 248.78 336.17 C 247.80 345.16 246.68 354.16 246.37 363.21 C 240.77 363.15 235.18 363.71 229.66 364.57 C 227.72 366.03 226.63 368.18 225.75 370.38 C 224.58 365.68 223.40 360.98 222.29 356.26 C 226.48 356.82 230.76 357.81 234.98 357.08 C 238.95 355.95 243.23 354.51 245.84 351.11 C 245.19 349.07 242.84 348.89 241.07 348.60 C 234.03 348.11 226.97 348.59 219.93 348.82 C 217.70 340.65 215.11 332.56 212.15 324.62 C 211.41 324.57 210.68 324.52 209.95 324.48 C 208.92 325.16 207.80 326.26 206.51 325.42 C 195.69 320.85 185.94 312.91 180.53 302.36 C 177.64 296.65 176.38 290.27 175.89 283.94 C 183.55 284.12 189.28 278.27 193.99 272.97 C 197.56 268.82 201.69 264.64 202.89 259.11 C 198.92 259.73 195.91 262.58 192.41 264.31 C 186.74 267.59 180.24 269.09 173.71 268.87 C 173.28 264.19 172.53 259.56 171.64 254.95 C 192.67 251.94 211.91 240.60 226.57 225.47 Z" fill="#feffff" opacity="1.00" stroke="#feffff" stroke-width="0.25"/>
<path d="M 226.71 236.41 C 229.52 235.77 228.05 238.68 227.78 240.28 C 225.76 247.17 223.79 254.15 220.39 260.52 C 215.81 269.82 209.05 277.75 203.06 286.14 C 200.78 289.04 198.93 292.62 195.28 294.02 C 197.00 286.18 201.35 279.28 204.97 272.21 C 211.38 259.79 219.18 248.15 226.71 236.41 Z" fill="#064371" opacity="1.00" stroke="#064371" stroke-width="0.25"/>
<path d="M 397.59 236.93 C 404.62 243.48 411.25 251.27 413.19 260.95 C 414.88 270.60 413.25 280.41 412.35 290.05 C 411.81 295.80 412.37 301.55 412.57 307.29 C 409.52 306.16 408.81 302.76 408.05 300.00 C 405.98 290.14 406.73 279.99 405.82 270.01 C 405.58 258.55 402.92 247.10 397.59 236.93 Z" fill="#fbffff" opacity="1.00" stroke="#fbffff" stroke-width="0.25"/>
<path d="M 214.26 289.40 C 218.38 282.02 228.50 281.92 235.73 283.75 C 235.49 285.03 235.78 286.60 234.68 287.55 C 231.88 290.64 227.94 292.24 224.63 294.68 C 219.47 298.48 215.36 303.46 211.34 308.39 C 209.88 310.16 208.42 312.07 206.24 313.00 C 206.22 312.13 206.19 310.39 206.18 309.52 C 205.93 309.23 205.43 308.65 205.17 308.36 L 204.66 308.11 C 206.69 301.35 210.50 295.31 214.26 289.40 Z" fill="#084471" opacity="1.00" stroke="#084471" stroke-width="0.25"/>
<path d="M 230.06 303.01 C 230.17 302.41 230.39 301.20 230.51 300.59 C 235.48 300.43 240.66 300.65 245.23 302.82 C 249.11 304.75 251.63 308.83 252.05 313.10 C 244.40 310.64 236.16 308.55 230.06 303.01 Z" fill="#0a4370" opacity="1.00" stroke="#0a4370" stroke-width="0.25"/>
<path d="M 205.17 308.36 C 205.43 308.65 205.93 309.23 206.18 309.52 C 206.19 310.39 206.22 312.13 206.24 313.00 C 204.67 314.05 204.14 309.50 205.17 308.36 Z" fill="#0b3251" opacity="1.00" stroke="#0b3251" stroke-width="0.25"/>
<path d="M 217.43 322.47 C 221.40 317.67 227.70 312.84 234.26 315.18 C 239.33 316.84 244.56 319.04 248.29 322.98 C 249.57 325.59 245.55 325.24 244.07 325.21 C 235.25 324.00 226.37 324.71 217.51 324.69 C 217.49 324.14 217.45 323.02 217.43 322.47 Z" fill="#0a4471" opacity="1.00" stroke="#0a4471" stroke-width="0.25"/>
<path d="M 184.26 317.00 C 189.48 322.19 195.37 326.73 202.04 329.91 C 204.40 330.90 206.79 331.84 209.19 332.77 C 210.74 338.91 213.45 344.81 214.49 351.04 C 206.85 389.01 199.99 427.26 197.69 465.98 C 190.65 465.14 183.65 463.98 176.58 463.44 C 177.75 458.77 178.98 454.11 179.88 449.39 C 185.37 451.17 191.01 453.15 196.88 452.54 C 197.19 448.28 193.25 445.81 189.94 444.13 C 187.24 442.74 184.19 442.40 181.21 442.24 C 181.64 439.53 182.12 436.83 182.67 434.15 C 183.01 434.49 183.69 435.18 184.02 435.52 C 189.33 436.78 197.49 437.31 199.20 430.61 C 193.96 428.98 188.51 430.21 183.19 430.61 C 183.61 427.54 184.06 424.48 184.44 421.41 C 189.05 423.01 194.41 423.08 198.46 420.02 C 194.27 417.91 189.89 416.13 185.36 414.89 C 185.55 411.62 186.00 408.38 186.41 405.14 C 190.24 408.58 195.98 408.40 200.35 406.17 C 201.83 405.48 202.08 403.73 202.74 402.41 C 197.29 402.51 191.31 403.60 186.67 399.91 C 187.19 397.17 187.42 394.40 187.53 391.62 C 189.30 391.55 191.22 391.88 192.85 390.96 C 196.58 389.03 200.64 387.65 204.03 385.11 C 199.95 380.22 193.26 382.59 188.29 384.55 C 188.39 381.84 188.50 379.13 188.59 376.43 C 193.74 375.51 198.92 374.89 204.13 374.41 C 202.68 367.34 193.76 367.61 188.73 370.55 C 188.84 365.79 188.71 361.02 188.53 356.26 C 193.41 356.62 198.23 357.59 203.12 357.81 C 204.65 357.97 205.86 356.79 207.18 356.24 C 204.36 353.35 200.79 351.44 197.20 349.70 C 194.11 348.70 190.95 347.91 187.75 347.39 C 186.82 337.23 185.77 327.08 184.26 317.00 Z" fill="#feffff" opacity="1.00" stroke="#feffff" stroke-width="0.25"/>
<path d="M 330.24 328.42 C 334.56 326.09 338.53 323.15 342.96 321.05 C 347.94 329.50 352.05 338.44 357.08 346.86 C 361.51 355.31 367.06 363.09 372.60 370.83 C 371.80 375.83 371.23 380.87 370.19 385.84 C 366.35 387.25 362.53 388.72 358.58 389.76 C 358.57 390.16 358.54 390.96 358.53 391.36 C 360.98 394.32 364.82 395.93 368.58 394.61 C 367.43 400.39 366.05 406.13 364.36 411.78 C 359.41 410.84 354.74 408.93 349.91 407.56 C 350.08 406.49 350.24 405.44 350.41 404.38 C 354.34 406.36 358.74 405.43 362.80 404.42 C 362.76 404.03 362.69 403.26 362.65 402.87 C 359.30 400.79 355.76 399.01 352.02 397.74 C 352.87 392.42 353.91 387.10 353.84 381.69 C 356.65 382.58 359.72 383.73 362.61 382.46 C 362.71 380.81 362.10 379.32 360.84 378.27 C 357.37 375.02 353.01 372.89 348.59 371.24 C 342.84 356.81 336.99 342.41 330.24 328.42 Z" fill="#feffff" opacity="1.00" stroke="#feffff" stroke-width="0.25"/>
<path d="M 387.04 330.32 C 389.68 329.57 392.08 328.23 394.25 326.56 C 394.27 330.89 394.37 335.22 394.61 339.54 C 385.08 342.32 375.22 344.16 366.10 348.19 C 366.00 350.22 368.36 350.54 369.79 351.22 C 374.64 353.14 380.07 353.22 385.06 351.78 C 388.94 350.75 392.32 348.50 396.01 346.99 C 396.24 349.29 396.50 351.59 396.74 353.89 C 389.40 357.27 383.02 362.55 375.27 365.08 C 369.73 357.14 364.33 349.07 359.89 340.47 C 368.79 336.69 377.82 333.23 387.04 330.32 Z" fill="#fdfffd" opacity="1.00" stroke="#fdfffd" stroke-width="0.25"/>
<path d="M 224.37 332.60 C 231.05 328.47 238.98 333.22 244.04 337.84 C 243.60 338.25 242.72 339.06 242.27 339.47 C 237.87 339.65 233.41 338.83 229.08 339.92 C 225.40 340.71 221.58 341.08 217.85 340.35 C 217.99 336.51 221.45 334.40 224.37 332.60 Z" fill="#0a436e" opacity="1.00" stroke="#0a436e" stroke-width="0.25"/>
<path d="M 378.28 369.74 C 386.35 370.16 393.95 366.32 399.14 360.27 C 400.23 362.33 401.37 364.37 402.62 366.35 C 396.91 370.01 392.02 374.80 387.37 379.69 C 394.22 380.98 402.10 378.41 406.09 372.48 C 406.51 372.47 407.35 372.45 407.76 372.43 C 408.33 374.59 408.50 376.81 408.57 379.04 C 406.18 380.38 403.92 381.96 401.97 383.89 C 399.20 386.68 395.61 388.64 393.43 391.99 C 398.80 393.33 404.37 391.40 408.38 387.75 C 408.37 390.55 408.35 393.35 408.28 396.15 C 404.00 397.43 399.35 398.14 395.62 400.73 C 394.03 401.72 394.45 403.77 394.15 405.35 C 398.85 407.09 403.82 406.09 408.28 404.15 C 408.30 407.04 408.27 409.94 408.19 412.84 C 403.04 413.95 397.83 414.82 392.56 414.93 C 392.37 406.23 393.37 397.12 390.11 388.84 C 387.03 381.99 382.79 375.72 378.28 369.74 Z" fill="#fbffff" opacity="1.00" stroke="#fbffff" stroke-width="0.25"/>
<path d="M 226.65 375.92 C 233.78 374.39 240.54 371.09 245.95 366.19 C 245.78 370.28 245.74 374.38 245.62 378.47 C 240.50 379.98 234.43 380.61 231.48 385.71 C 230.58 386.31 229.71 386.94 228.84 387.57 C 228.34 383.65 227.43 379.79 226.65 375.92 Z" fill="#fbffff" opacity="1.00" stroke="#fbffff" stroke-width="0.25"/>
<path d="M 229.00 388.40 C 234.68 390.44 240.45 388.30 246.06 387.21 C 246.38 389.64 246.77 392.06 247.33 394.45 C 242.19 397.51 236.81 400.14 231.64 403.13 C 230.71 398.23 230.11 393.27 229.00 388.40 Z" fill="#fcffff" opacity="1.00" stroke="#fcffff" stroke-width="0.25"/>
<path d="M 232.03 406.51 C 237.70 407.13 243.59 406.90 248.62 403.94 C 249.46 408.29 250.23 412.65 250.73 417.06 C 246.21 418.63 241.48 419.47 236.84 420.59 C 236.52 421.19 235.89 422.37 235.57 422.97 C 235.85 424.22 236.14 425.49 236.42 426.75 C 238.85 427.62 241.43 428.81 244.04 427.87 C 247.13 427.36 249.34 424.99 251.61 423.04 C 252.15 426.11 252.61 429.18 253.11 432.26 C 249.96 432.07 246.48 431.85 243.87 433.97 C 240.72 436.35 236.84 439.16 236.51 443.40 C 243.10 445.49 248.67 440.33 253.62 436.80 C 254.10 439.90 254.47 443.00 254.69 446.13 C 249.47 448.29 244.98 451.88 239.66 453.83 C 239.51 454.40 239.20 455.54 239.05 456.11 C 244.54 458.46 250.61 456.69 255.75 454.26 C 256.26 458.76 256.65 463.26 256.95 467.78 C 249.69 468.45 242.38 468.46 235.14 469.37 C 235.28 462.24 235.99 455.12 235.84 447.98 C 235.83 434.07 233.89 420.27 232.03 406.51 Z" fill="#fcffff" opacity="1.00" stroke="#fcffff" stroke-width="0.25"/>
<path d="M 348.89 411.15 C 352.86 414.44 357.15 417.74 362.53 417.99 C 361.64 421.26 360.67 424.52 359.72 427.78 C 354.86 427.21 350.53 424.89 346.49 422.30 C 347.33 418.59 348.21 414.89 348.89 411.15 Z" fill="#fcffff" opacity="1.00" stroke="#fcffff" stroke-width="0.25"/>
<path d="M 392.33 421.13 C 397.88 424.15 404.07 421.47 408.24 417.41 C 408.23 420.12 408.39 422.84 408.08 425.54 C 402.72 427.70 397.57 430.32 392.38 432.86 C 392.34 428.95 392.40 425.04 392.33 421.13 Z" fill="#faffff" opacity="1.00" stroke="#faffff" stroke-width="0.25"/>
<path d="M 341.48 443.43 C 342.65 439.05 343.66 434.63 344.63 430.21 C 347.46 434.87 353.25 434.48 357.92 433.64 C 357.04 437.97 355.79 442.21 354.91 446.54 C 352.25 446.53 349.58 446.43 346.92 446.33 C 345.09 445.39 343.27 444.42 341.48 443.43 Z" fill="#fcffff" opacity="1.00" stroke="#fcffff" stroke-width="0.25"/>
<path d="M 392.02 436.26 C 397.20 438.14 402.97 438.52 408.14 436.35 C 408.13 439.25 408.12 442.15 408.10 445.05 C 402.74 446.54 397.10 447.08 391.74 445.24 C 391.79 442.24 391.86 439.24 392.02 436.26 Z" fill="#fbfefe" opacity="1.00" stroke="#fbfefe" stroke-width="0.25"/>
<path d="M 340.08 448.09 C 343.33 451.76 348.38 457.09 353.51 453.23 C 352.91 457.28 352.65 461.36 352.56 465.45 C 347.21 464.31 341.83 463.40 336.42 462.66 C 337.77 457.84 339.19 453.02 340.08 448.09 Z" fill="#fdffff" opacity="1.00" stroke="#fdffff" stroke-width="0.25"/>
<path d="M 390.96 451.24 C 396.41 454.03 402.57 453.16 408.10 451.10 C 408.17 454.58 408.26 458.05 408.38 461.53 C 402.11 462.30 395.82 462.99 389.60 464.08 C 390.23 459.82 390.78 455.54 390.96 451.24 Z" fill="#fbffff" opacity="1.00" stroke="#fbffff" stroke-width="0.25"/>
</svg>