<?xml version="1.0" encoding="UTF-8"?>
<svg id="Layer_1" data-name="Layer 1" xmlns="http://www.w3.org/2000/svg" viewBox="0 0 500 500">
  <defs>
    <style>
      .cls-1 {
        fill: #fcf5e8;
        stroke: #fcf5e8;
      }

      .cls-1, .cls-2, .cls-3, .cls-4, .cls-5, .cls-6, .cls-7, .cls-8, .cls-9, .cls-10, .cls-11, .cls-12, .cls-13, .cls-14, .cls-15, .cls-16, .cls-17, .cls-18, .cls-19, .cls-20, .cls-21, .cls-22, .cls-23, .cls-24, .cls-25, .cls-26, .cls-27, .cls-28, .cls-29, .cls-30, .cls-31, .cls-32, .cls-33, .cls-34, .cls-35, .cls-36, .cls-37, .cls-38, .cls-39, .cls-40, .cls-41, .cls-42 {
        stroke-width: .2px;
      }

      .cls-2 {
        fill: #f7d1b8;
        stroke: #f7d1b8;
      }

      .cls-3 {
        fill: #f8d4bc;
        stroke: #f8d4bc;
      }

      .cls-4 {
        fill: #471e34;
        stroke: #471e34;
      }

      .cls-5 {
        fill: #da712f;
        stroke: #da712f;
      }

      .cls-6 {
        fill: #fcf5e6;
        stroke: #fcf5e6;
      }

      .cls-7 {
        fill: #492034;
        stroke: #492034;
      }

      .cls-8 {
        fill: #492133;
        stroke: #492133;
      }

      .cls-9 {
        fill: #228ca8;
        stroke: #228ca8;
      }

      .cls-10 {
        fill: #fe8b24;
        stroke: #fe8b24;
      }

      .cls-11 {
        fill: #3f0e19;
        stroke: #3f0e19;
      }

      .cls-12 {
        fill: #e0732a;
        stroke: #e0732a;
      }

      .cls-13 {
        fill: #fe8a25;
        stroke: #fe8a25;
      }

      .cls-14 {
        fill: #430b0a;
        stroke: #430b0a;
      }

      .cls-15 {
        fill: #dc732c;
        stroke: #dc732c;
      }

      .cls-16 {
        fill: #fef5e6;
        stroke: #fef5e6;
      }

      .cls-17 {
        fill: #fef7fd;
        stroke: #fef7fd;
      }

      .cls-18 {
        fill: #5f1503;
        stroke: #5f1503;
      }

      .cls-19 {
        fill: #471f33;
        stroke: #471f33;
      }

      .cls-20 {
        fill: #fcf1f8;
        stroke: #fcf1f8;
      }

      .cls-21 {
        fill: #3c1023;
        stroke: #3c1023;
      }

      .cls-22 {
        fill: #de712a;
        stroke: #de712a;
      }

      .cls-23 {
        fill: #3a0f23;
        stroke: #3a0f23;
      }

      .cls-24 {
        fill: #341023;
        stroke: #341023;
      }

      .cls-25 {
        fill: #371122;
        stroke: #371122;
      }

      .cls-26 {
        fill: #fdf5e6;
        stroke: #fdf5e6;
      }

      .cls-27 {
        fill: #da722b;
        stroke: #da722b;
      }

      .cls-28 {
        fill: #380f27;
        stroke: #380f27;
      }

      .cls-29 {
        fill: #d76c2d;
        stroke: #d76c2d;
      }

      .cls-30 {
        fill: #df7229;
        stroke: #df7229;
      }

      .cls-31 {
        fill: #fae9d7;
        stroke: #fae9d7;
      }

      .cls-32 {
        fill: #390e26;
        stroke: #390e26;
      }

      .cls-33 {
        fill: #fcf4e3;
        stroke: #fcf4e3;
      }

      .cls-34 {
        fill: #3b0b0e;
        stroke: #3b0b0e;
      }

      .cls-35 {
        fill: #ff8a25;
        stroke: #ff8a25;
      }

      .cls-36 {
        fill: #dd722b;
        stroke: #dd722b;
      }

      .cls-37 {
        fill: #3a0d23;
        stroke: #3a0d23;
      }

      .cls-38 {
        fill: #f7daca;
        stroke: #f7daca;
      }

      .cls-39 {
        fill: #390d26;
        stroke: #390d26;
      }

      .cls-40 {
        fill: #df7129;
        stroke: #df7129;
      }

      .cls-41 {
        fill: #f6d4be;
        stroke: #f6d4be;
      }

      .cls-42 {
        fill: #8be9ff;
        stroke: #8be9ff;
      }
    </style>
  </defs>
  <g>
    <path class="cls-23" d="M144.55,433.61c2.1.4,4.1.7,6.2.8,2,.1,3.8.2,5.3,0,1.5,0,2.6-.2,3.3-.4.2,1,.3,2.3.2,3.8-.1,1.5-.4,3.1-.9,4.6-.5,1.6-1.3,3-2.3,4.2-1,1.3-2.3,2.1-3.9,2.6-1,.3-2.6.6-4.7.8s-4.6.5-7.4.7-5.6.3-8.6.3-5.8,0-8.4-.2c-2.7-.1-5-.4-7-.8s-3.4-.9-4.2-1.5c-1.6-1.3-2.5-2.9-2.6-4.9-.1-1.9.2-3.9,1-5.9s1.8-3.7,3-5.1c.7-.8,1.8-2.2,3.2-4.1,1.4-1.9,3-4,4.7-6.4s3.3-4.7,5-7c1.6-2.3,3-4.3,4.1-5.9s1.8-2.7,2.1-3.1c.6-1.1.9-2.1,1-3.2,0-1,0-1.9-.3-2.7-.4-1-1-1.9-1.8-2.5-.9-.7-2.2-1.1-3.9-1.4-.9-.1-2-.3-3.4-.4s-2.8-.4-4.3-.6c-1.5-.3-2.9-.6-4.1-1s-2.1-.9-2.7-1.5c-.8-.8-1.5-1.9-2.1-3.4s-1.1-3.2-1.4-4.9c-.3-1.8-.5-3.3-.5-4.7.3.1,1.4.2,3.2.4,1.8.1,4,.2,6.7.4,2.6.1,5.4.2,8.3.3,2.9,0,5.6.2,8.2.2h6.3c4.3,0,8.1,0,11.4-.3s5.7-.6,7.1-.9c.8,1.5,1.3,3.3,1.3,5.2s-.2,3.9-.8,5.8c-.6,1.9-1.3,3.7-2.3,5.3-.2.4-.8,1.3-1.7,2.6-.9,1.3-2,3-3.3,4.9s-2.6,3.9-4.1,5.9c-1.4,2.1-2.8,4-4,5.9-1.3,1.8-2.3,3.4-3.2,4.6-.9,1.3-1.4,2-1.6,2.3-1.9,2.9-2.5,5.3-1.7,7.1.8,1.8,2.7,3.1,5.8,3.8l-.2.3Z"/>
    <path class="cls-23" d="M176.35,451.41c-2.6-.5-4.4-2.2-5.4-5.2s-1.6-6.7-1.6-11.1,0-1.9,0-4v-18.3c0-3.7,0-7.4-.1-11.1,0-3.7-.1-7.1-.2-10.2,0-3.1-.1-5.7-.2-7.7,0-2-.1-3.2-.2-3.7.9-.2,2.3-.2,4.2-.1s3.8.4,5.9.9,3.9,1.3,5.4,2.5,2.4,2.8,2.7,4.8c.1,1,.2,2.6.3,4.9,0,2.3.1,5,.1,8.1v37.1c0,1.9,0,3.1.1,3.5.1,1.3.4,2.2.7,2.7.4.6.7,1.3,1.2,2.1-1.5,1.6-3.3,2.9-5.5,3.9s-4.6,1.3-7.2.9h-.2Z"/>
    <path class="cls-23" d="M250.65,415.71c1.1,1,2.1,1.9,2.8,2.9s1.2,2.3,1.5,3.9.4,3.9.3,6.8c0,1.4-.3,3.1-.8,5-.4,1.9-1.2,3.8-2.3,5.8-1.1,2-2.6,3.8-4.5,5.4-1.9,1.7-4.3,3-7.2,4.1-2.9,1.1-6.5,1.6-10.7,1.6h-1.8c-2.1-.1-4.6-.2-7.5-.1h-8.1c-1.5.1-3.1.2-4.7.2s-3.2,0-4.6-.3c-1.4-.2-2.4-.4-3-.8.4-.8.8-2.1,1.1-3.8.3-1.7.6-3.6.8-5.6.2-2,.2-4,.2-5.8v-39.4c0-2.5-.6-4-1.7-4.6-1-.7-1.9-1.9-2.6-3.9-.7-1.9-1.1-4.5-1.1-7.5.2,0,1,.1,2.2.2,1.3,0,2.4.2,3.6.3,1.4,0,3.3.1,5.9.1h23.6c3.7,0,6.9.7,9.7,2,2.8,1.3,5,3.1,6.6,5.3,1.6,2.2,2.4,4.6,2.4,7.2s-.4,4.9-1.2,6.9-1.6,3.6-2.4,5c-.8,1.3-1.1,2.4-1.1,3.2.2,1.3.8,2.2,1.7,2.9,1,.7,2.1,1.6,3.3,2.8l-.4.2ZM229.05,434.01c2.1,0,3.8-.4,4.9-1s1.9-1.4,2.3-2.3c.4-1,.7-1.9.8-2.9.2-1.3-.2-2.5-1.2-3.4-1-1-2.3-1.7-3.9-2.3-1.7-.5-3.5-.8-5.5-.7-2,0-3.6.4-4.7,1.3s-1.9,1.9-2.3,3.1-.6,2.2-.5,3.1c.2,1.3,1.1,2.4,2.9,3.5,1.7,1.1,4.2,1.6,7.4,1.6h-.2ZM232.55,400.11c.1-.8-.2-1.5-1-2.2s-1.9-1.3-3.2-1.7c-1.3-.4-2.8-.7-4.2-.7s-2.6.4-3.4,1.2c-.8.8-1.3,1.7-1.5,2.7s-.3,1.9-.2,2.6c.2,1.1,1,1.9,2.5,2.4,1.5.4,3,.7,4.3.8,1.4,0,2.8-.3,4.2-1.1s2.3-2.1,2.5-4h0Z"/>
    <path class="cls-23" d="M312.75,432.91c.8.7,1.3,2,1.6,3.9s.2,3.9-.3,6c-.4,1.7-1,3.4-2,5s-2.2,2.5-3.8,2.8c-.6.1-2,.2-4.1.2h-24.2c-2.3,0-3.9.1-4.9.2-2.4.4-4.9.6-7.5.4-2.5-.1-4.3-.5-5.3-1.1.4-.8.8-2.1,1.1-3.8.3-1.7.5-3.6.7-5.6s.2-4,.2-5.8l-.4-55c.7-.1,1.8-.1,3.4,0,1.6,0,3.4.3,5.2.8,2,.5,3.8,1.4,5.4,2.7,1.6,1.3,2.6,3,2.9,5,.1.7.2,2,.3,3.9,0,1.9.1,4.2.1,6.8v23.7c0,2.3.2,4.3.7,6.1.5,1.8,1.3,3.2,2.3,4.2.8.8,1.7,1.3,2.9,1.6,1.1.3,2.5.5,4.2.6h3.3c1.5,0,3.2-.2,5-.3,1.8-.1,3.7-.3,5.5-.6,1.8-.2,3.4-.5,4.8-.8,1.4-.3,2.3-.6,2.7-1l.2.1Z"/>
    <path class="cls-23" d="M390.55,412.31c.6,5.5.3,10.5-.8,14.7-1.1,4.3-2.8,8-5.1,11.1s-5,5.7-8.1,7.7-6.4,3.5-9.9,4.5-6.9,1.5-10.3,1.5-6.8-.4-10.4-1.3c-3.5-.9-6.8-2.3-10-4.2-3.1-1.9-5.9-4.4-8.2-7.4-2.4-3-4.1-6.7-5.2-10.9-1.1-4.2-1.4-9.1-.8-14.6.5-4.8,1.7-9.2,3.6-13.4,1.9-4.1,4.4-7.7,7.4-10.8,3-3.1,6.5-5.4,10.5-7.1,3.9-1.7,8.1-2.5,12.6-2.4.3,0,.7-.2,1.3-.7.6-.4,1.4-.9,2.4-1.3s2.2-.6,3.7-.4c2.7.2,5.5,1.3,8.5,3.3s5.8,4.6,8.5,7.8c2.7,3.2,4.9,6.9,6.8,11,1.8,4.1,3,8.4,3.5,12.9h0ZM356.75,435.31c2.1,0,4.1-.4,5.9-.9s3.6-1.5,5-2.9c1.5-1.4,2.7-3.5,3.6-6.1.9-2.6,1.4-6,1.5-10.1,0-2.9-.6-5.6-1.9-8.3-1.3-2.7-3.1-5-5.4-6.8-2.3-1.9-5-3-8-3.3-3.2-.4-6,0-8.2.9-2.3,1-4.1,2.4-5.6,4.3s-2.6,4-3.3,6.3c-.8,2.3-1.3,4.7-1.4,7.1-.4,4.1,0,7.5,1.2,10.1,1.1,2.6,2.6,4.6,4.6,6.1,1.9,1.4,3.9,2.4,6.1,2.9,2.2.5,4.2.8,5.9.7h0Z"/>
  </g>
  <g>
    <path class="cls-23" d="M320.75,53.61c3.4-2.3,6.8-5.7,11.2-5.4,3.2-.2,5.2,2.9,6.5,5.4,2.6,6,4.1,12.4,5.1,18.9,3,20.1,2,41.1-4.8,60.4-.6,1.9,1,3.7,1.6,5.5,4.8,9.4,6.4,20.4,13.2,28.7,4.9,6,11.9,9.8,19.2,12,1.1,3-3,4-5,5.2.7,1.2,1.5,2.4,2.2,3.7-6.6,1.5-9.8,7.9-14.2,12.4-11.9,12.4-24.3,24.8-39.3,33.4,2.3,2.1,4.6,4.2,7,6.5.8.8,1.6,1.6,2.3,2.3,8.2.2,14.7-.8,19.2-1.8,8.6-1.9,17.3-3.5,25.9-5.5.5-.1,1.8-.4,3.4-.3,3.9.4,6.8,3.1,8.5,5.3.4,2.9-1.2,5.5-2.1,8.1-.8-.5-2.5-1.5-3.3-2,.4-1.3.8-2.5,1.1-3.8.1-.6.4-1.9.5-2.5-1.8-.3-4.4-.7-7.6-.6-5,0-8.2,1.2-12.5,2.2-2.6.6-6.5,1.3-14.4,2.5-5.9.9-14.7,1.8-26.3,1.5.6-.1,1.8-.4,2.5-.5-1-1.2-1.9-2.3-3-3.4v-1c-.2-.4-.3-1.2-.4-1.6-2.1-2.6-4.7-4.7-7.1-6.9,6-2.6,11.5-6.3,16.5-10.4,11.3-9.2,21.6-19.5,31.1-30.5-1.1-.8-2.2-1.7-3.2-2.5,1.9-.8,3.9-1.6,5.9-2.4-1.5-.9-3-1.8-4.4-2.7,2.6-.9,5.2-1.6,7.8-2.5-2.6-1.6-5.2-3.1-7.6-4.8-8.4-6.6-12.7-16.6-16-26.4-4.2-13.2-13.7-23.7-22.1-34.4-7.7-6.3-17.6-9.1-27.2-11.3,0-.7-.2-2.1-.2-2.8-7.6-.7-15.2,0-22.8,1.1,1.6-1.5,3.2-2.9,4.8-4.3-10.6.8-21.3,3.1-30.8,8,1.4,2.1,2.8,4.1,4.2,6.2-3.5-.9-6.5-2.9-9.2-5.2-12.1-9.9-26.1-17.3-40.6-23.1-4.9-2-10.1-3.2-15.3-4.4-3.5-1-7.1-2.4-10.8-1.7-3.8,3-2.9,8.5-2.9,12.8,1.9,24.9,13.1,49.7,32.8,65.4-4.6.3-8.4-2.5-12.3-4.4-.1,5.4-.1,10.8-.6,16.2-2.8,9.2-7.7,17.5-12.8,25.5-3.2,2.5-6.4,4.9-9.5,7.5,2.9.1,5.7.1,8.6,0-.3,1.1-.5,2.1-.8,3.2,2.6,0,5.2.2,7.8.3-1.9,1.6-3.8,3.2-5.7,4.7,10.9,9.7,24,16.9,37.9,21.5,11.7,4.1,24,5.6,36.2,7.3-6.9.8-13.9.8-20.9,1-5.3,6.6-8.5,14.7-14.6,20.6,2.8-7.3,7.2-13.9,11-20.7-19.4-4.9-38.3-13.2-53.2-26.8-2.1-2.6-5.6-1.8-8.5-2,.4-1.7.9-3.4,1.4-5.2-3.2-.8-7.5-1-8.2-4.9,16.1-7,26.3-23.7,27.7-40.9,1-3.4-1.6-6.2-3.1-9-6.7-12.2-11.4-25.5-14.7-39-2.3-10.1-3.9-20.6-2.5-30.9.5-5,5.7-7.8,10.4-6.9,18.6,2.5,36.1,10.7,52,20.4,4.5,2.5,8.3,6.3,12.9,8.6,13.6-5.7,28.5-10.2,43.3-7.3,10.4-15.9,23.6-29.9,38.7-41.4l.1-.2Z"/>
    <path class="cls-1" d="M325.15,57.61c1.4-3.3,7-7.3,9.1-2.3,6.3,15.8,7,33.3,5.9,50.1-1,9-2.2,18.2-6.1,26.4-2.5-3.6-5.1-7.1-8-10.4,5.7-9.2,8.4-20,8.5-30.7,0-7-.2-14.2-2.8-20.9-3.4.3-5.4,3.2-7.4,5.7-6,8.3-10.1,17.8-12.8,27.7.4.2,1.2.7,1.6,1,.4.3,1.3.9,1.8,1.2-.6.5-1.7,1.5-2.3,2-1.7-.3-3.3-.6-5-.9v-1.1c2.3-17,10.1-32.5,17.6-47.7l-.1-.1Z"/>
    <path class="cls-36" d="M319.85,60.01c1.5-1.3,3.4-1.8,5.3-2.4-7.5,15.2-15.3,30.7-17.4,47.7-6.1-4.4-13.1-7.4-20.4-8.8,1-2.3,2.2-4.5,3.7-6.5,8.3-11.2,18.1-21.3,28.9-30h-.1Z"/>
    <path class="cls-6" d="M167.55,90.61c0-4.3-.9-9.7,2.9-12.8,3.7-.7,7.3.7,10.8,1.7,9.1,7.3,18.7,13.9,27.2,21.9-.6,1.5-1.1,3-1.6,4.5-8.1-6.8-17.2-12.5-27.3-15.7-1,5.9,1.5,11.6,3.6,16.9,4.8,12,12.4,22.8,22,31.5-1,5.9-3.9,11.4-3.6,17.4h-1c-19.8-15.8-30.9-40.6-32.8-65.5l-.2.1Z"/>
    <path class="cls-22" d="M181.25,79.61c5.1,1.2,10.4,2.4,15.3,4.4,14.5,5.8,28.5,13.2,40.6,23.1,2.7,2.3,5.7,4.3,9.2,5.2.3,0,.8.3,1,.4-6.7,2.8-11.8,8.2-15.8,14-7.1-8.9-14.6-17.7-23.2-25.2-8.5-8-18.1-14.6-27.2-21.9h.1Z"/>
    <path class="cls-32" d="M179.45,90.31c10.1,3.2,19.3,8.9,27.3,15.7,3.3,2.9,6.3,6.1,9.1,9.4-4.2.1-8.3.3-12.5.8,1,4.6,2.3,9.2,3.5,13.8,6.9-3.6,15-6.7,22.6-3.2-.2.4-.5,1.2-.7,1.6-3.2.9-6.5.7-9.8,1.2-4.3.4-7.7,3.3-11,5.9,1.7.4,3.4.8,5.1,1.2-2.2,1.6-4.4,3.3-6.6,5l-1.5-3c-9.5-8.7-17.2-19.5-22-31.5-2-5.4-4.5-11-3.6-16.9h.1Z"/>
    <path class="cls-35" d="M242.15,106.11c9.5-4.9,20.2-7.2,30.8-8-1.6,1.4-3.2,2.8-4.8,4.3,7.5-1.1,15.2-1.8,22.8-1.1,0,.7.2,2.1.2,2.8,9.5,2.1,19.5,5,27.2,11.3,8.4,10.7,17.8,21.2,22.1,34.4,3.3,9.8,7.6,19.8,16,26.4-8.8,2.7-17.2,6.7-24.7,12-.9-4.3-.3-10.4-5-12.7-3.6-2.3-7.8,1-8.2,4.8-1.4,5.1,1.3,10,5.2,13.1-2.4,2-4.7,4.5-5.7,7.6-.3,3.3,1.8,6.1,3.9,8.4-7-.5-14,1.2-20.2,4.5-7.9-4.5-15.9-8.8-24.6-11.4.4-4.8,1.4-10.4-2.2-14.3-2.6-3.5-8.5-3.5-10.6.5-1.6,3.7-.5,7.8-.4,11.7-21.5-5.4-43.3-10.7-65.6-10.9-8.1,0-15.8,3-23.9,4,5.1-8.1,10-16.4,12.8-25.5,4.1-4.2,7.9-9.4,14-10.4v-1.3c-.2-6,2.7-11.6,3.6-17.4l1.5,3c2.2-1.7,4.4-3.4,6.6-5-1.7-.4-3.4-.8-5.1-1.2,3.2-2.6,6.6-5.5,11-5.9,3.6-.2,7.2-.3,10.8-.4.6-.8,1.2-1.6,1.7-2.4,4.1-5.8,9.1-11.3,15.8-14-.3,0-.8-.3-1-.4-1.4-2-2.8-4.1-4.2-6.2l.2-.3Z"/>
    <path class="cls-31" d="M208.45,101.41c8.6,7.6,16,16.3,23.2,25.2-.6.8-1.2,1.6-1.7,2.4-3.6.2-7.2.2-10.8.4,3.2-.5,6.6-.2,9.8-1.2.2-.4.5-1.2.7-1.6-7.6-3.5-15.7-.4-22.6,3.2-1.2-4.6-2.5-9.2-3.5-13.8,4.1-.4,8.3-.6,12.5-.8-2.8-3.3-5.8-6.5-9.1-9.4.5-1.5,1.1-3,1.6-4.5l-.1.1Z"/>
    <path class="cls-38" d="M313.05,104.11c2.8-1.9,6.4-1.7,9.7-2.1.5,4.2.9,8.4,1.1,12.7-3.5-2.8-7.1-5.6-11.3-7.4.6-.5,1.7-1.5,2.3-2-.4-.3-1.3-.9-1.8-1.2Z"/>
    <path class="cls-29" d="M188.05,151.71c3.9,1.9,7.8,4.6,12.3,4.4h1v1.4c-6.2,1-10,6.2-14,10.4.5-5.4.5-10.8.6-16.2h.1Z"/>
    <path class="cls-14" d="M319.25,153.61c3.6-1.2,7.5-.7,9.9,2.4-3.5,0-6.9,0-10.4.3.1-.7.4-2.1.5-2.7Z"/>
    <path class="cls-18" d="M254.15,170.11c1.4-5.7,9.7-9.7,13.4-3.7-4.7.3-9.3,1.4-13.4,3.7Z"/>
    <path class="cls-21" d="M318.55,180.21c.4-3.7,4.6-7.1,8.2-4.8,4.7,2.3,4.1,8.4,5,12.7-2.4,2.1-5.1,3.8-7.9,5.2-3.9-3.1-6.6-8-5.2-13.1h-.1Z"/>
    <path class="cls-16" d="M331.65,188.11c7.5-5.3,15.9-9.3,24.7-12,2.5,1.8,5.1,3.2,7.6,4.8-2.6.8-5.2,1.6-7.8,2.5,1.5.9,3,1.8,4.4,2.7-2,.8-3.9,1.6-5.9,2.4,1.1.8,2.1,1.7,3.2,2.5-9.5,11-19.8,21.3-31.1,30.5-5.1,4.1-10.5,7.8-16.5,10.4-19.5,7.5-40.8,7.3-61.3,6.1-12.2-1.7-24.6-3.2-36.2-7.3-13.8-4.6-26.9-11.8-37.9-21.5,1.9-1.6,3.9-3.1,5.7-4.7-2.6-.2-5.2-.2-7.8-.3.3-1.1.5-2.1.8-3.2h-8.6c3.1-2.6,6.3-5.1,9.5-7.5,8-1,15.7-4,23.9-4,22.3.2,44.1,5.5,65.6,10.9,1.8,1.3,3.3,3.1,5.6,3.6,2.6,0,5.1-.9,7.6-1.5,8.7,2.6,16.7,7,24.6,11.4-.6,5.7,3.6,11.1,9.4,11.4,7.5,1.5,15.5-4.7,14.6-12.6-1.3-1.1-2.6-2.2-3.8-3.3-2-2.3-4.2-5.2-3.9-8.4.9-3.1,3.2-5.6,5.7-7.6,2.8-1.4,5.5-3.2,7.9-5.2v-.1Z"/>
    <path class="cls-20" d="M320.85,178.11h3.9c0,1.7.1,3.5.2,5.2-1.1,0-3.3,0-4.4.1,0-1.8.1-3.6.3-5.3Z"/>
    <path class="cls-37" d="M264.45,188.61c2.1-3.9,8.1-3.9,10.6-.5,3.6,3.9,2.6,9.5,2.2,14.3-2.5.6-5,1.5-7.6,1.5-2.2-.5-3.8-2.4-5.6-3.6-.1-3.9-1.2-8,.4-11.7Z"/>
    <path class="cls-17" d="M266.15,195.81c-.8-2.3-1.5-4.9.9-6.5,3.2-.6,4.2,3.4,2.6,5.6-1.2.4-2.4.7-3.6,1l.1-.1Z"/>
    <path class="cls-28" d="M301.85,213.91c6.2-3.3,13.1-5.1,20.2-4.5,1.2,1.1,2.5,2.2,3.8,3.3.9,7.9-7.1,14.1-14.6,12.6-5.8-.3-10-5.7-9.4-11.4h0Z"/>
    <path class="cls-17" d="M307.55,215.91c1.7-4.8,8.8-4,13-3.7-3,3.4-8.6,3.7-13,3.7Z"/>
    <path class="cls-24" d="M113.55,222.41c1.9-.3,4.1-1.5,5.8,0,4.6,2.8,8.9,6.1,14,8.1,13.3,5.5,27.5,9.5,39.8,17.2-.8,1.2-1.6,2.5-2.5,3.7-9.8-5.7-20.4-9.9-31.1-13.6-8-2.5-15.2-6.7-22.1-11.3-1.6,16.2-1,32.5,1.5,48.5-1.3,3.4-2.2,7-2.4,10.6-2.8-9.7-3.5-19.8-4.4-29.8-.5-11.2-.6-22.5,1.3-33.6l.1.2Z"/>
    <path class="cls-16" d="M117.45,226.71c6.9,4.6,14.1,8.8,22.1,11.3,10.7,3.7,21.3,7.8,31.1,13.6h-7.7c-.2,2.7-.3,5.4-.4,8.1-3.2-1.3-6.5-2.6-9.8-3.7.2,3.2.6,6.4.9,9.6-3.3-1.4-6.7-2.8-10.1-4,.4,3.8,1,7.6,1.6,11.5-3.7-1.2-7.5-2.3-11.2-3.3.2,3.8.4,7.6.7,11.5-2.9-.7-5.7-1.3-8.5-2.1-1.6-.5-3.2-1-4.7-1.5-.3.8-.9,2.5-1.2,3.3-.4-1.9-.7-3.7-1.1-5.5-2.5-16-3.1-32.4-1.5-48.5l-.2-.3Z"/>
    <path class="cls-25" d="M291.25,226.41c4.2,1.6,8.5,2.5,13,2.1-4.1,2.9-10.2,2.2-13-2.1Z"/>
    <path class="cls-11" d="M249.15,238.01c20.5,1.3,41.9,1.4,61.3-6.1,2.4,2.2,5,4.3,7.1,6.9,0,.4.2,1.2.2,1.6-2.9-2.5-6.5-5.7-10.5-3.5-.4.2-1.3.6-1.8.8-1,.6-2,1.2-3,1.8,5.1.6,10.3,1.1,15.4,1.9,1,1.1,2,2.3,3,3.4-.6.1-1.9.4-2.5.5-7.7-2.8-14.3-3.3-16.8-1.8-1,.6-1.9,1.4-1.9,1.4-1.7,1.5-2.9,3-3.6,4.1-1,3.2-2.1,6.4-3.2,9.6-1,3.2-2.1,6.4-3.2,9.6,4.1,2.9,9.9,5.4,10.8,10.9-.3,4.1.3,9.7-4,12-4.5,1.6-9.4,1.1-14,2.4-4.2,5.3-5.4,12.4-6.2,18.9-.8-3-1.5-6.1-2-9.2.7-2.4,1.5-4.7,2.5-7,1.3-2.3,2.7-5.2,5.7-5.5,4.5-1.4,10-.1,13.8-3.3,1.5-3.4,1.6-8-.4-11.2-6.1-6.7-15.7-7-24-8.4,4.7-.6,9.4-.6,14.1-.3,2.5-6.7,4.6-13.5,6.7-20.3,1.5-2.7,3.4-5,5.3-7.4-11.8,1.8-23.7,3.4-35.6,2.9-11-.2-21.9-2-32.9-3-1.8,3.2-3.7,6.3-5.5,9.5-5.7,9.5-10.6,19.5-14.6,29.7-2,4.8-2.4,10.2-.2,15,2.3,5.7,7.4,10,13.4,11.3,6.9,1.7,14,0,20.4-2.5,7.6-3,15.2-6,22.7-9.2-2.1-6.4-3.9-13.4-1-19.9.4.2,1.1.6,1.4.8-1.4,6.4-1,13,1.4,19.2,2.7-.6,5.5-1.2,8.2-1.8.1.5.4,1.5.5,2-6.9,2.6-13.9,5-20.6,8.1-4.9,2-9.9,3.9-14.7,6.3,6.7,2.1,13.4,3.9,19.8,6.8,2.9,2,5.8,4.1,8.6,6.3,1,2.9,2.4,5.6,4.1,8.1-11.4-8.8-24.5-17.3-39.4-16.8-6.8-.4-13,2.3-19.2,4.7,1.9-3.3,5.3-5.2,8.4-7.2-4.1-1.6-8.4-3-11.7-6-3-2.8-5.1-6.4-7.4-9.7-.8,2.9-1.5,5.8-2,8.8-1.9,12.4-2.6,25.7,2.1,37.6,3.8,9.2,12.4,15.6,21.8,18.3,7.2,2.9,15,4.2,22.8,4.1-.9,1.4-1.7,2.9-2.5,4.4-13.6-.3-27.2-4.4-37.8-13-18.3,6.1-39.1,2-54.6-9.2-20.1-13.6-32.1-36.6-37.1-59.8.2-3.7,1-7.2,2.4-10.6.3,1.8.7,3.7,1.1,5.5,4.4,22.6,14.9,45.2,33.6,59.4,14.2,11.1,33.3,16.2,50.9,11.2-2.8-5.5-5.9-11-7-17.1-1.5-8.2-1.4-16.6-.8-24.9.8-10.2,4.2-20,7.1-29.8-.9-1-1.8-2-2.7-3.1-8.6-10.1-19.3-18.1-30.6-25,.8-1.3,1.6-2.5,2.5-3.7,12.2,7.3,23.4,16.4,32.9,27,2.8-4.9,4.2-10.6,7.7-15.1,6.1-5.9,9.3-14,14.6-20.6,7-.1,13.9-.1,20.9-1l-.2.2Z"/>
    <path class="cls-30" d="M307.25,237.01c4-2.2,7.6,1,10.5,3.5v1c-5-.8-10.1-1.3-15.2-1.9,1-.6,2-1.2,3-1.8.3,1.7,4.3,2.6,3.5.2-.4-.2-1.3-.7-1.7-1h-.1Z"/>
    <path class="cls-30" d="M305.45,237.81c.4-.2,1.3-.6,1.8-.8.4.2,1.3.7,1.7,1,.8,2.4-3.2,1.5-3.5-.2Z"/>
    <path class="cls-42" d="M374.65,238.71c2,.2,3.6.8,4.6,1.2-.1.6-.4,1.9-.5,2.5-12.6,1.7-24,8.6-36.7,9.6-2.4.2-28.3-4.4-35.1-4-2.8.2-5.7.5-5.7.5-1.9.2-3.6.5-5.1.7.9-1.7,2.6-4.1,5.5-5.5,4.9-2.4,9,.4,19.3,1.2,4.1.3,7.1.2,11.3,0,9.6-.5,17.1-2.1,19.1-2.5,2.5-.5,5-1.1,6.5-1.4,2.6-.6,8.2-1.8,13.4-2.3.7,0,1.9-.2,3.4,0h0Z"/>
    <path class="cls-30" d="M229.45,240.01c11,1,21.9,2.7,32.9,3-.6,2.3-1.1,4.6-1.7,6.9-.5.3-1.4,1-1.9,1.3-11.6-1.4-23.3-.5-34.8-1.7,1.9-3.1,3.7-6.3,5.5-9.5h0Z"/>
    <path class="cls-41" d="M262.35,243.01c11.9.5,23.8-1.2,35.6-2.9-1.9,2.4-3.8,4.7-5.3,7.4-10.8-.3-21.3,2.7-32,2.4.6-2.3,1.1-4.6,1.7-6.9h0Z"/>
    <path class="cls-9" d="M341.05,247.41c8.8-.2,13.3-.3,19.5-1.2,7.6-1,13.8-2.6,18.1-3.8-.3,1.3-.7,2.5-1.1,3.8-4.8,9.9-9.7,19.8-14.7,29.6-3.3-2.7-6.5-6.3-11.1-6.6-6.2-.8-13,1.9-16.1,7.4-.9,3.5-1,7.2-.5,10.8,1.4,3.7,5.5,5.7,9.1,6.6,2,.5,4.1,1,6.1,1.6.2.5.5,1.6.7,2.1-2.1,3.3-3.8,7.7-8.3,8.2-14.2,2.8-28.5,5.3-42.9,7.3-7.8.8-15.9,1.3-23.6-.7.8-6.5,2-13.6,6.2-18.9,4.6-1.2,9.5-.7,14-2.4,4.2-2.3,3.7-7.9,4-12-.8-5.6-6.7-8-10.8-10.9,2.3-6.4,4.2-12.8,6.4-19.2,2.4-.3,6.2-.8,10.8-1.2,12.5-1,17.4-.2,34.2-.6v.1Z"/>
    <path class="cls-26" d="M260.65,249.81c10.8.3,21.3-2.7,32-2.4-2.1,6.8-4.2,13.6-6.7,20.3-4.7-.3-9.5-.3-14.1.3-2.8.2-5.6.6-8.3.9-4.4.3-8.8.3-13.1-.6h4.4c1.2-5.8,2.6-11.6,4.1-17.4.5-.3,1.4-1,1.9-1.3l-.2.2Z"/>
    <path class="cls-14" d="M377.75,246.41c.5.3,1,.6,1.4.9.6.3,1.1.7,1.7,1-.4.6-1,1.5-1.6,2.6-.8,1.5-1.4,2.6-1.6,3-1.8,3.9-4.4,8.4-9,17.9-2,4.2-4.5,9.6-7.3,16.1-4.8,6.1-8.4,13.1-12.2,19.9,1.3,1.7,2.6,3.4,3.9,5.2-.5,1.1-1,2.3-1.5,3.4-3-2.3-5.8-4.8-8.6-7.4-4.9,1.1-9.9,2.2-14.8,3.1-6.8,1.1-13.5,2.6-20.3,3.4-2.7-.7-5.3-1.7-8-2.4,14.4-2,28.7-4.6,42.9-7.3,4.4-.5,6.2-5,8.3-8.2,4.5-5.9,9.8-11.5,11.3-19.1-2.9-2.4-5.5-5.3-9-6.8-5.4-2-11.7.5-15.1,4.9-1.5,3.5-.8,7.4-1.1,11.1,4.5,2.9,9.7,4.5,14.9,5.7-2.6.2-5.2.5-7.9.6-3.7-.9-7.7-2.9-9.1-6.6-.5-3.6-.4-7.3.5-10.8,3.1-5.5,10-8.2,16.1-7.4,4.5.3,7.8,3.9,11.1,6.6,1.3-2.5,6.2-12.2,7.5-14.8,1.3-2.5,6.2-12.2,7.5-14.7v.1Z"/>
    <path class="cls-13" d="M223.85,249.51c11.6,1.2,23.3.3,34.8,1.7-1.4,5.8-2.9,11.5-4.1,17.4h-4.4c-.4-.3-1.3-.8-1.8-1.1-2.9.8-5.8,1.5-8.7,2.3,6.9,3.8,14.8,3.3,22.4,3.4,0,5.5.1,10.9.3,16.4-11.4,5-23.3,9.8-35.8,10.6-6.4.5-12-3.3-17.6-5.8-2.2-4.8-1.8-10.2.2-15,4.1-10.3,8.9-20.3,14.6-29.7l.1-.2Z"/>
    <path class="cls-13" d="M162.85,251.41h7.7c11.2,6.9,22,14.8,30.6,25-5.7,7.4-9.6,16-12.7,24.8-3.4,9.9-3.4,20.5-3.7,30.9-13,.5-25.1-5.9-34.9-14-9.8-9.1-17-20.7-22.5-32.8-.9-2.1-1.1-4.3-1.4-6.5,2.8.8,5.7,1.4,8.5,2.1-.2-3.8-.5-7.6-.7-11.5,3.8,1,7.5,2.1,11.2,3.3-.6-3.8-1.2-7.6-1.6-11.5,3.4,1.3,6.8,2.6,10.1,4-.3-3.2-.6-6.4-.9-9.6,3.3,1.1,6.6,2.4,9.8,3.7.1-2.7.3-5.4.4-8.1l.1.2Z"/>
    <path class="cls-34" d="M239.75,269.61c2.9-.8,5.8-1.5,8.7-2.3.4.3,1.3.8,1.8,1.1,4.3.9,8.8.9,13.1.6,0,1-.2,3.1-.2,4.2h-1c-7.6-.3-15.5.2-22.4-3.5v-.1Z"/>
    <path class="cls-19" d="M263.35,269.01c2.8-.3,5.6-.6,8.3-.9,8.3,1.5,17.9,1.7,24,8.4,2,3.2,1.9,7.8.4,11.2-3.7,3.1-9.3,1.9-13.8,3.3-3,.3-4.4,3.2-5.7,5.5-.1-.6-.4-1.8-.6-2.4-.1-.5-.4-1.5-.5-2-2.7.6-5.5,1.2-8.2,1.8-2.4-6.1-2.8-12.7-1.4-19.2-.4-.2-1.1-.6-1.4-.8-.4-.2-1.1-.5-1.4-.7,0-1,.2-3.1.2-4.2h.1Z"/>
    <path class="cls-4" d="M338.15,276.71c3.3-4.4,9.7-7,15.1-4.9,3.5,1.5,6.2,4.4,9,6.8-1.4,7.6-6.8,13.2-11.3,19.1-.2-.5-.5-1.6-.7-2.1-2-.6-4.1-1.1-6.1-1.6,2.6,0,5.2-.3,7.9-.6-5.2-1.2-10.4-2.8-14.9-5.7.3-3.7-.4-7.6,1.1-11.1l-.1.1Z"/>
    <path class="cls-15" d="M262.15,273.01h1c.4.3,1.1.6,1.4.8-2.9,6.5-1.1,13.5,1,19.9-7.5,3.2-15.1,6.3-22.7,9.2-6.4,2.6-13.5,4.2-20.4,2.5-6-1.3-11.1-5.6-13.4-11.3,5.6,2.5,11.1,6.3,17.6,5.8,12.6-.7,24.5-5.5,35.8-10.6-.2-5.5-.3-10.9-.3-16.4v.1Z"/>
    <path class="cls-40" d="M201.15,276.51c.9,1,1.8,2,2.7,3.1-2.8,9.8-6.2,19.6-7.1,29.8-.6,8.3-.7,16.7.8,24.9,1.1,6.1,4.2,11.6,7,17.1-17.6,5-36.7-.1-50.9-11.2-18.7-14.2-29.3-36.8-33.6-59.4.3-.8.9-2.5,1.2-3.3,1.6.5,3.2,1,4.7,1.5.3,2.2.5,4.4,1.4,6.5,5.5,12.1,12.7,23.6,22.5,32.8,9.8,8.1,21.9,14.5,34.9,14,.3-10.4.3-21,3.7-30.9,3.1-8.8,7-17.4,12.7-24.8v-.1Z"/>
    <path class="cls-2" d="M255.55,302.11c6.7-3.1,13.7-5.5,20.6-8.1.1.6.4,1.8.6,2.4-.9,2.3-1.8,4.6-2.5,7-.9,3-1.3,6.1-1.6,9.2-.2-2.1-.5-4.2-.7-6.3-4.7,0-9.5.4-14.1,1.2-.7-1.8-1.5-3.6-2.2-5.4h-.1Z"/>
    <path class="cls-27" d="M202.05,303.41c.5-3,1.2-5.9,2-8.8,2.3,3.3,4.4,7,7.4,9.7,3.3,3,7.7,4.4,11.7,6-3.1,2-6.5,3.8-8.4,7.2-.2,0-.6.2-.9.3-4.4-4.4-7.7-9.7-11.9-14.3l.1-.1Z"/>
    <path class="cls-39" d="M362.55,303.81c2.7-2.5,7-4,10.2-1.5,4.3,2.8,9.3,5.2,12,9.8,1.7,3.4,4,7.3,2.4,11.2-2.4,7-7.6,12.4-11.4,18.6-1.2,1.5-2.3,3-3.5,4.5-6.9,7.6-14.1,18.1-25.6,17.5-6.4,0-10.2-6.1-10.5-11.9-6.6-.9-13.3-1-19.9-.7,1,4.7,2.4,10.3-1.2,14.3-3.7,4.4-10,2.8-15,2.1-17.9-3-36,.5-54,.3.8-1.5,1.7-2.9,2.5-4.4,15.1,0,30.2-2.3,45.4-1.2-5.5-6.2-10.1-13.1-13.9-20.4-2.3-4.1-4-8.5-6.8-12.3-1.7-2.5-3.1-5.2-4.1-8.1,1.7,1.3,3.5,2.6,5.2,3.9,1.4-3.4,3.5-6.7,7.1-8.1-3.3-.9-6.3-2.5-9-4.6.3-3.1.7-6.2,1.6-9.2.5,3.1,1.2,6.2,2,9.2,7.7,2,15.8,1.5,23.6.7,2.7.7,5.3,1.6,8,2.4-4.2.6-8.5,1.2-12.7,1.6,5.5,7.3,10.7,14.8,15.1,22.7,1.2,2.2,2.4,4.3,3.7,6.5,7.7,0,15.3.6,23,.7,3.8-10.8,10.3-20.3,14.8-30.7.5-1.2,1-2.3,1.5-3.4,3.6-2.6,6.2-6.2,9.4-9.2l.1-.3Z"/>
    <path class="cls-5" d="M240.95,308.41c4.8-2.4,9.7-4.3,14.7-6.3.7,1.8,1.5,3.6,2.2,5.4,1,2.5,1.9,5.1,2.9,7.7-6.3-2.9-13.1-4.8-19.8-6.8h0Z"/>
    <path class="cls-10" d="M202.05,303.41c4.2,4.6,7.5,9.9,11.9,14.3.2,0,.6-.2.9-.3,6.1-2.4,12.4-5.1,19.2-4.7,15-.4,28.1,8,39.4,16.8,2.8,3.8,4.5,8.2,6.8,12.3-1.2,2.2-2.3,4.8-4.7,6-10.8,6.1-22.9,10.4-35.4,10.7-4.7,0-9.5.3-14.1.8-9.4-2.7-18-9.1-21.8-18.3-4.8-11.9-4.1-25.2-2.1-37.6h-.1Z"/>
    <path class="cls-7" d="M362.95,307.81c1.8-3,5.7-2.5,8.7-2.9.2,1.9.5,3.9.8,5.9,2.6-.2,5.4-1.2,7.9,0,.4,2.2-.8,4.3-1.3,6.4,1.6-.2,3.1-.3,4.7-.4.5,2.6,1.3,5.4-.4,7.8-3.8,6.6-8.4,12.7-13.4,18.5,1.2-5.1,3.7-10.3,2.4-15.6-1.4-3.3-4.6-6.6-8.4-6.3-4.9,0-8.6,3.7-12.7,5.9,2.6-7.1,7.4-13.1,11.7-19.2v-.1Z"/>
    <path class="cls-33" d="M257.85,307.61c4.7-.8,9.4-1.2,14.1-1.2.2,2.1.5,4.2.7,6.3,2.7,2.1,5.7,3.7,9,4.6-3.6,1.5-5.7,4.7-7.1,8.1-1.7-1.3-3.5-2.6-5.2-3.9-2.8-2.1-5.7-4.3-8.6-6.3-.9-2.6-1.9-5.2-2.9-7.7v.1Z"/>
    <path class="cls-12" d="M328.25,312.31c5-.9,9.9-2,14.8-3.1,2.8,2.5,5.6,5,8.6,7.4-4.5,10.5-11,19.9-14.8,30.7-7.7,0-15.3-.6-23-.7-1.2-2.2-2.4-4.3-3.7-6.5,10.8-5,16.5-16.5,18-27.8h.1Z"/>
    <path class="cls-3" d="M307.85,315.71c6.8-.8,13.5-2.3,20.3-3.4-1.5,11.3-7.2,22.8-18,27.8-4.4-8-9.6-15.5-15.1-22.7,4.3-.4,8.5-.9,12.7-1.6l.1-.1Z"/>
    <path class="cls-8" d="M285.15,317.91c1.8-.4,3.9-.8,5.5.4,4.5,3.2,7.6,8,10,13-3.1,0-6.5-1.3-9.3.4-2.8,2-4.7,5.7-3.7,9.2,1.4,8.1,8.2,13.5,11.2,20.9-2.2-1.4-4.3-3.1-5.8-5.3-5.5-7.8-11.4-15.6-14.1-24.9-.9-3,0-6.2.5-9.2,2,.6,4,1.2,6,1.9-.2-2.1-.4-4.3-.3-6.4h0Z"/>
    <path class="cls-22" d="M280.25,341.91c3.8,7.3,8.4,14.2,13.9,20.4-15.2-1.1-30.2,1.3-45.4,1.2-7.8,0-15.5-1.2-22.8-4.1,4.7-.5,9.4-.7,14.1-.8,12.5-.3,24.6-4.6,35.4-10.7,2.4-1.2,3.5-3.8,4.7-6h.1Z"/>
    <path class="cls-23" d="M300.45,240.01c22.5-2.1,45-4.1,67.4-6.2,3.1-.6,5.6-.3,7.2,0,2.4.4,5.2,1,6.7,3.1,1.5,2.2,1.1,5,1,5.4-.9,3.6-17.3,5.3-82.3-2.4v.1Z"/>
    <path class="cls-42" d="M300.45,242.41c.8-.5,1.6-.6,2-.6,2.2-.2,57.1-3.3,62.9-4.4h.2c.7-.1,3.6-.6,7,0s6.1,1.2,6.7,3.1c.6,1.6-.6,3.4-1.2,4.2-.6.6-1.1,1.1-1.7,1.7-14,.7-25.3.4-33.2,0-8.4-.4-12.6-1-19.9-.8-11.7.3-21.1,2.1-27.3,3.6,1.2-2.1,2.2-3.9,3-5.3.2-.4.6-1,1.4-1.5h.1Z"/>
  </g>
</svg>