<?xml version="1.0" encoding="UTF-8"?>
<svg id="Layer_1" xmlns="http://www.w3.org/2000/svg" version="1.1" viewBox="0 0 512 512">
  <!-- Generator: Adobe Illustrator 29.4.0, SVG Export Plug-In . SVG Version: 2.1.0 Build 152)  -->
  <defs>
    <style>
      .st0 {
        fill: #1c2f42;
        stroke: #1c2f42;
      }

      .st0, .st1, .st2, .st3, .st4, .st5, .st6, .st7, .st8, .st9, .st10, .st11, .st12, .st13, .st14, .st15, .st16, .st17, .st18, .st19, .st20, .st21, .st22, .st23 {
        stroke-width: .1px;
      }

      .st24 {
        fill: #6f4a44;
        stroke: #6f4a44;
      }

      .st24, .st25, .st26, .st27, .st28, .st29 {
        stroke-width: .2px;
      }

      .st1 {
        fill: #b8ac62;
        stroke: #b8ac62;
      }

      .st2 {
        fill: #ff9678;
        stroke: #ff9678;
      }

      .st3 {
        fill: #073457;
        stroke: #073457;
      }

      .st4 {
        fill: #0f3048;
        stroke: #0f3048;
      }

      .st5 {
        fill: #203149;
        stroke: #203149;
      }

      .st6 {
        fill: #063556;
        stroke: #063556;
      }

      .st25 {
        fill: #fed3bd;
        stroke: #fed3bd;
      }

      .st7 {
        fill: #f89b7a;
        stroke: #f89b7a;
      }

      .st8 {
        stroke: #fefefe;
      }

      .st8, .st9 {
        fill: #fefefe;
      }

      .st9, .st14 {
        stroke: #79e5ff;
      }

      .st10 {
        fill: #013b60;
        stroke: #013b60;
      }

      .st26 {
        fill: #7ae4fe;
        stroke: #7ae4fe;
      }

      .st11 {
        fill: #003a61;
        stroke: #003a61;
      }

      .st12 {
        fill: #ff9778;
        stroke: #ff9778;
      }

      .st13 {
        fill: #133749;
        stroke: #133749;
      }

      .st14 {
        fill: #79e5ff;
      }

      .st27 {
        fill: #fd917a;
        stroke: #fd917a;
      }

      .st28 {
        fill: #053050;
        stroke: #053050;
      }

      .st29 {
        fill: #b1effe;
        stroke: #b1effe;
      }

      .st15 {
        fill: #1c2d3c;
        stroke: #1c2d3c;
      }

      .st16 {
        fill: #f89a7b;
        stroke: #f89a7b;
      }

      .st17 {
        fill: #fbbd0f;
        stroke: #fbbd0f;
      }

      .st18 {
        fill: #043860;
        stroke: #043860;
      }

      .st19 {
        fill: #05375c;
        stroke: #05375c;
      }

      .st20 {
        fill: #7be3fd;
        stroke: #7be3fd;
      }

      .st21 {
        fill: #f99878;
        stroke: #f99878;
      }

      .st22 {
        fill: #853140;
        stroke: #853140;
      }

      .st23 {
        fill: #fff;
        stroke: #fff;
      }
    </style>
  </defs>
  <path class="st18" d="M117.4,25.2c2.2-1.4,3.9-3.4,6-4.9,6.1,2.1,11.7,6.1,15.5,11.3,2,2.7,3.4,6.1,3,9.5-.2,2.9-2.2,5.2-4.1,7.2,3.6,6,6.8,12.3,9.5,18.7,1.9,2.9,4.9,4.7,7.3,7.1,1.8,1.9,4.5,3.2,5.3,5.9-.5-.1-1-.2-1.5-.3-.1,0-.4,0-.5-.1-2.8-2.5-5.6-5.1-8.4-7.6-1.4-1.3-3.1-2.5-3.9-4.3-2.7-6.2-5.6-12.3-9.2-17.9-2.7,1.9-5.3,4-8.3,5.6-5.3,2.7-11,4.6-16.9,5.6,2.5,3,5.2,6,6.4,9.8,1.7,4.9,1.5,10.3.3,15.3-1.3,0-2.7,0-3.7-.8-3.2-2.4-4.8-6.2-7.1-9.4-2-2.9-6.4-2.7-9.3-1.4-3,1.5-4.3,5.2-3.7,8.3.5,3.7,2,7.5,5.2,9.6,2.9,2,6.5,1.8,9.8,1.5-1.7.5-3.4.6-5.2.6,0,.4.1,1.2.2,1.6.2,3.1,1,6.1.7,9.2-.8,6.9-5,13.1-10.7,16.9-2.9,2.1-6.3,3.6-9.7,4.7-.7,2.5-1.6,4.9-1.9,7.5.9,1.9,2.4,3.6,3.6,5.3,4.3,6.2,9,12.2,13.5,18.3,1.6,2.1,2.8,4.9,5.4,5.9,0,.3-.1,1-.2,1.3.2,1.1.6,2.1,1.1,3-.4.4-.9.9-1.3,1.3-5.6-10.7-13.8-19.6-20.5-29.6-.7-1.1-1.4-2.2-2.4-3.2-2.1-.2-4.1.6-6.1,1-7,1.6-13.7,4.3-20,7.9.3-.9.6-1.8,1-2.6,7.3-4,15.3-6.6,23.5-8,.8-2.4,1.4-4.8,2.2-7.2-1.6-2.7-1.9-5.9-2.9-8.8-2.1-6.8-5.7-13.1-9.9-18.8-3.6-4.8-7.7-9.4-10.5-14.8-3.7-7.4-5.2-16.1-2.8-24.1,1.8-6.6,6.4-12.8,13-14.9,2.2-.8,4.6-.7,6.9-.2-.1-3.7,1.4-7.3,4.2-9.7,4.1-3.6,9.7-4.3,14.9-5.2,7.5-1.2,15.5-1.8,22-6.1Z"/>
  <path class="st12" d="M128.4,55.2c3-1.5,5.6-3.7,8.3-5.6,3.6,5.7,6.5,11.8,9.2,17.9.8,1.8,2.5,3,3.9,4.3,2.8,2.5,5.6,5.1,8.4,7.6-2.6,2-5.7,2.9-8.6,4.1-1,.3-1.5,1.2-2.1,1.9,1.5-.1,3-.5,4.4-.9.5,2.3.9,4.6,1.1,7-4.7.5-9.4.3-14.1,0-1.2,0-3.1-.4-3.4,1.2-1,4.7.3,10.2,4.5,12.9,3.6,2.6,8.2,2.4,12.3,1.7-.2,3.2,0,6.4-.7,9.5-.9,2.5-3.8,3-6.1,3.2-11.1.8-22.2-3.2-31.2-9.6-2.5-1.7-4.3-4.4-7.3-5.3.9,2.7,3.4,4.3,5.5,6.1,5.5,4.6,10.9,9.3,17.3,12.6-2.1,8.9-4.1,17.8-6.6,26.6-.7,2.1-1.2,4.3-1.4,6.5,2.4-1.2,2.4-4.2,3.5-6.3,2.2,2.8,3.6,6,5.3,9.1,1,1.8,1.7,3.8,2.4,5.7-4.9,1.3-9.9,1.3-14.9,1-4.4-.3-8.6-1.6-12.8-2.6-2.7-1-3.9-3.7-5.4-5.9-4.5-6.1-9.2-12.1-13.5-18.3-1.2-1.8-2.7-3.4-3.6-5.3.3-2.6,1.2-5,1.9-7.5,3.4-1.2,6.7-2.6,9.7-4.7,5.7-3.8,9.8-10.1,10.7-16.9.4-3.1-.4-6.1-.7-9.2,3,.1,6-.2,8.6-1.9,0-.4,0-1.2,0-1.6-1.1.5-2.3,1-3.5,1.3-3.3.3-6.9.5-9.8-1.5-3.2-2.1-4.7-6-5.2-9.6-.5-3.2.8-6.8,3.7-8.3,2.9-1.4,7.2-1.6,9.3,1.4,2.3,3.2,4,6.9,7.1,9.4,1,.9,2.4.7,3.7.8,1.2-5,1.4-10.4-.3-15.3-1.2-3.8-3.9-6.8-6.4-9.8,5.9-1,11.6-2.9,16.9-5.6Z"/>
  <path class="st19" d="M133.7,61.7c2.2-1.1,4.7-1.5,7.1-1,1.6.4,2.1,2.1,2.6,3.5-4.8,1.5-9.7,2.9-14,5.7-1,.6-2.1,1.6-3.3,1.1-.7-.5-1.3-1.5-.8-2.3,1.6-3.4,5.1-5.4,8.5-7Z"/>
  <path class="st3" d="M138,71c3.3-1.1,5.7,3.5,4.5,6.2-1,1.8-3.9,1.3-4.6-.5-.9-1.6-1.7-4.5,0-5.6Z"/>
  <path class="st6" d="M187.2,71.9c1.7-.8,3.8-1.2,5.5,0,1,.8,1.9,1.7,2.8,2.6,1.6-.6,3.2-1.2,4.9-1.2,1.3.1,2.4.9,3.5,1.5,7.2,1.4,14.5-.2,21.8,0,2.8.2,4.3,3.1,5,5.5,1.6,5.4,2,11.1,1.8,16.7-.2,2.2-.5,5.1-2.8,6.1-2.5.8-5.1.7-7.6,1,.5,2.7-.9,5.7.9,8.1,4.5,9.5,9.2,18.9,14.2,28.1,6.7,12.2,13.3,24.5,17.8,37.7,1.1,3.5,2.3,7,2.6,10.7.2,2.9-2.2,5.3-4.7,6.4-5.3,2.3-11.1,3.2-16.8,3.9-9.6,1.2-19.4,1-29.1.5-1.3,5.9-2.6,11.7-4.4,17.5-2.5-.2-5-1-7.4-1.6-8.7-2.2-17.4-4.4-26.2-6.5.3,2.5.9,5,1.5,7.5,3.1,14.8,5.8,29.7,8.2,44.6.7,4.5,1.6,8.9,1.8,13.4-1.8.2-3.6.2-5.5.2-46.8,0-93.7,0-140.5,0-.6-5.2-.4-10.4-.8-15.7-.6-21.8-1.2-43.6-.8-65.4,0-4.8.2-9.5.5-14.3.2-6.3,1-12.8,4.1-18.3,4.4-7.8,11.5-13.6,19.2-18-.4.9-.7,1.7-1,2.6-8.2,5.2-16.1,12.2-18.9,21.8-1.9,8-1.5,16.4-2,24.6-.4,26.9.4,53.8,1.3,80.8,15.3,0,30.7.1,46,0,.2,0,.5,0,.7,0,0-.2.2-.7.3-1,.4.4.7.7,1.1,1,12,.2,24.1,0,36.1,0-1.1-17-2.9-33.9-5-50.8-1.1-9.2-2.5-18.4-4.1-27.6-1.5-8.4-2.8-17-6.4-24.9.4-.4.9-.9,1.3-1.3,1.6,3.1,2.9,6.4,3.7,9.8,2.5,10.1,4.1,20.3,5.6,30.6,3,21.3,5.4,42.7,6.8,64.1,11.6.1,23.2,0,34.9,0-.7-15-1.6-30-4.4-44.8-2-11-4.9-21.8-8.3-32.4-3.2-9.6-6.5-19.2-10.5-28.5-8.8,2.2-18.2,1.7-26.9-1.1-.7-.2-1.3-.6-2-1,0-.3.1-1,.2-1.3,4.2,1,8.4,2.3,12.8,2.6,5,.3,10.1.3,14.9-1-.7-2-1.4-3.9-2.4-5.7-1.7-3.1-3-6.4-5.3-9.1-1.1,2.1-1.1,5.1-3.5,6.3.2-2.2.7-4.4,1.4-6.5,2.5-8.8,4.5-17.7,6.6-26.6-6.4-3.3-11.8-8-17.3-12.6-2-1.8-4.5-3.4-5.5-6.1,3,.9,4.8,3.6,7.3,5.3,9,6.4,20,10.4,31.2,9.6,2.3-.2,5.3-.7,6.1-3.2.6-3.1.5-6.3.7-9.5-4.1.7-8.8.9-12.3-1.7-4.2-2.7-5.5-8.2-4.5-12.9.3-1.6,2.2-1.2,3.4-1.2,4.7.2,9.4.4,14.1,0-.2-2.3-.6-4.7-1.1-7-1.5.4-2.9.7-4.4.9.6-.8,1.2-1.6,2.1-1.9,2.9-1.2,6.1-2.1,8.6-4.1.1,0,.4,0,.5.1.5.1,1,.2,1.5.3-1.4,2.4-4.2,2.8-6.5,3.9.3,2.5.9,5,1,7.6.2.9-.7,1.2-1.4,1.5-5.1,1.7-10.5.4-15.7.6-.2,1.1-.3,2.2-.2,3.3,2.4,1.8,5.4,2.7,8.1,3.7,1.8-1.4,3.1-3.9,5.7-4.2,0,.2.2.7.3,1-3.9,1.3-5.9,5.3-8.5,8.2,1.5.4,3,.7,4.6,1,.7-2.6,2.2-4.9,4.6-6.2.3.1.8.4,1.1.5-2.1,1.2-3.8,3-4.3,5.4,1.7-.3,3.3-.8,5-1.3,0,3.7.2,7.5-.2,11.2-.2,2.4-2,4.3-4.3,5-5.6,1.7-11.5.6-17.2-.2-1.1,6.5-3.1,12.7-4.3,19.2,9,2.3,17.4,6.3,26.2,9.3,11.4,4,23.2,7.2,35.1,9.4,4.6.9,9.2,1.3,13.8,2.2-.1,2.3-.5,4.6-.7,6.9,5.4.4,10.7.5,16.1.4-1.5-5-2.7-10-4.1-14.9.4-.2,1.2-.7,1.6-1,1.4,5.3,3,10.6,4.4,16,0,.7,0,1.4-.1,2-.3,0-.8,0-1.1,0-5.7,0-11.3-.4-17-.6-1,9.1-2.5,18.2-3.2,27.4,10.6,1,21.2,1.1,31.8.7,6.5-.5,13-1.3,19.3-3.3,2.1-.8,4.7-1.6,5.6-3.8.6-3-.5-6-1.3-8.9-6.6-21.3-19.1-40-28.6-59.9-1.4-2.9-2.8-5.9-4.3-8.7-1.5,1.6-3,4.9-5.6,3.8,1.2-1.5,3.1-2.6,3.7-4.6,1-2.4,1-5.1.9-7.7-4.1.3-8.3.7-12.4,1.1,1.8,1.2,3.7,2.4,4.6,4.5.5,1.1.1,2.4,0,3.6-1.4-2.2-2.4-5.1-5.2-6-6.2-2.1-12.7-.4-19-.1-.8,0-1.7,0-2.5.2-.3.7-.5,1.5-.8,2.2-.9-.7-1.6-2-2.9-1.7-4.4.3-8.8,1.2-13.2,1.1-1.1-2.9-.8-6-1.4-9-1.5.2-3.1.3-4.6.5-.4-.6-.8-1.3-1.3-1.9,0-.5,0-1,0-1.5,0-2.4-.5-4.8-.9-7.2,0-.3,0-.8-.1-1.1,0-.3,0-.8,0-1.1,1.8-.3,3.7-.7,5.6-.8,0-3.3-.9-6.5-.7-9.8,6.6-.3,13.2-.7,19.8-1,.4-1.6.3-3.7,1.9-4.6Z"/>
  <path class="st21" d="M187.4,73.5c1.6-.4,3.6-1,5,.3,2.8,2.3,5.3,5,7.4,8,.7.9.9,2,1.1,3.1-1.1,0-2.3.3-3.2-.5-3.3-2.8-5.8-6.2-9-9.1-.5.5-.9,1.1-1.3,1.7,0-1.1,0-2.3,0-3.4Z"/>
  <path class="st16" d="M197.2,75.6c1.6-.4,3.4-1,4.8,0,1.8,1.8,3,4.1,4.1,6.3.6.9.5,2,.3,3-1.6,0-3.1-.7-3.9-2.2-1.6-2.5-3.6-4.8-5.3-7.2Z"/>
  <path class="st15" d="M97.8,80.1c.7-2.8,4.1-3.8,6.6-2.9.9,1.4,1.2,3.2,1.8,4.7.4,1.4,1.2,2.7,1.4,4.1-.8,0-1.5-.2-1.8-.9-1.1-2-1.5-4.4-2.2-6.6-1.4.2-3.1,0-3.9,1.3-1.2,2.3-.5,5.6,1.9,6.8,2.1,1.4,4.6.9,7,1-.5,2.4-3.4,1.7-5.2,1.5-4.1-.6-6.9-5-5.5-9Z"/>
  <path class="st23" d="M210.7,77.2c4.8-.2,9.6-.5,14.4-.6.7,8.4,1.6,16.8,2.6,25.1-4.8.7-9.6.9-14.4,1.6.9-5.5,1.3-11.1,1.1-16.7-.1-1.1.7-1.9,1.2-2.8-.7-2.7-2.9-4.6-4.7-6.6Z"/>
  <path class="st7" d="M205.6,77.1c.9.1,1.9,0,2.7.6,2.3,1.8,4.8,3.7,5.4,6.7-1.2-.1-2.7.2-3.7-.7-2.1-1.7-3.3-4.2-4.3-6.6Z"/>
  <path class="st8" d="M167.5,79.2c7.5-.2,15-.8,22.6-1-.1,3.7-.2,7.3-.6,11-6.9.3-13.8,1.1-20.7,1.3-.3-3.8-.8-7.5-1.3-11.3Z"/>
  <path class="st22" d="M191.3,90.4c.2-3.1-.1-6.3.7-9.3,2,1.7,3.5,4.1,6,5.1,1.2.6,2.6,0,3.9-.3,1.5-.4,3,.4,4.5.1.8-.3,1.6-.8,2.3-1.2,1.2.4,2.5.9,3.7,1.3.5,5.7.1,11.6-1.3,17.1-7.2.6-14.4,1.7-21.7,2,.8-5,1.5-10,1.9-15Z"/>
  <path class="st13" d="M151.3,93.9c3.7-.4,6.5-2.9,9.5-4.7,0,.3,0,.8.1,1.1-2.3,2.2-5.2,3.5-7.8,5.2-1.1.3-1.1,1.8,0,2.2.6.4,1.2.9,1.8,1.3,2.3-.6,4.7-1.1,7-1.5,0,.5,0,1,0,1.5-2.9.6-5.9.8-8.7,1.9-.3-.1-.8-.4-1.1-.5.1-.2.5-.7.6-.9-.4-.7-.8-1.3-1.2-2,0-.2-.2-.7-.3-1,0-.8,0-1.7.1-2.5Z"/>
  <path class="st17" d="M153,95.5c2.6-1.7,5.5-3,7.8-5.2.4,2.4,1,4.8.9,7.2-2.4.4-4.7.9-7,1.5-.6-.4-1.2-.9-1.8-1.3.2-.7.2-1.5,0-2.2Z"/>
  <path class="st9" d="M169.1,92.2c6.8-.4,13.6-1,20.4-1.4-.4,5.1-.7,10.1-1.7,15.1-5.7.4-11.4,1.2-17.1,1.7-.3-5.2-1.2-10.3-1.6-15.4Z"/>
  <path class="st5" d="M109.3,94c1.2-.3,2.3-.8,3.5-1.3,0,.4,0,1.2,0,1.6-2.5,1.6-5.6,2-8.6,1.9,0-.4-.1-1.2-.2-1.6,1.7,0,3.5-.1,5.2-.6Z"/>
  <path class="st1" d="M153,97.7c-1.1-.4-1-1.9,0-2.2.2.7.2,1.5,0,2.2Z"/>
  <path class="st20" d="M142.8,105.6c2.6-2.9,4.6-6.9,8.5-8.2.4.7.8,1.3,1.2,2-.1.2-.5.7-.6.9-2.4,1.3-3.9,3.6-4.6,6.2-1.5-.2-3.1-.5-4.6-1Z"/>
  <path class="st2" d="M207.9,105.6c4.1-.5,8.2-.8,12.4-1.1.1,2.6.1,5.3-.9,7.7-.7,1.9-2.5,3.1-3.7,4.6,2.6,1.1,4.2-2.2,5.6-3.8,1.5,2.9,2.9,5.8,4.3,8.7,9.6,19.9,22,38.6,28.6,59.9.8,2.9,1.8,5.9,1.3,8.9-1,2.2-3.6,3-5.6,3.8-6.2,2-12.8,2.8-19.3,3.3-10.6.5-21.2.3-31.8-.7.7-9.2,2.2-18.3,3.2-27.4,5.7.2,11.3.7,17,.6,1.6,5.3,3.1,10.7,5.6,15.7.4.9,1.3,1.3,2,1.8-.3-1.8-.9-3.5-1.6-5.2-2-4.6-3.4-9.5-4.8-14.3-1.4-5.3-3-10.6-4.4-16-2.8-10.5-5.9-20.9-9.6-31.1-.5-1.9-2.7-2.2-4.2-2.9-5.5-1.9-10.6-4.7-14.8-8.8-.4-.5-1-.8-1.2-1.5.7-.4,1.5-.5,2.3-.6,6.3-.3,12.8-1.9,19,.1,2.7.9,3.8,3.8,5.2,6,.1-1.2.5-2.4,0-3.6-.9-2-2.9-3.2-4.6-4.5Z"/>
  <path class="st4" d="M185.9,107.7c.8-.2,1.7-.1,2.5-.2-.8.1-1.6.3-2.3.6.1.7.7,1,1.2,1.5,4.2,4,9.4,6.9,14.8,8.8,1.6.7,3.7,1,4.2,2.9,3.7,10.2,6.8,20.6,9.6,31.1-.4.2-1.2.7-1.6,1-2.7-10-5.7-20-9.1-29.9-.3-.8-.6-1.6-1-2.3-1.3-.7-2.6-1-4-1.5-5.7-2.1-10.9-5.4-15.2-9.7.3-.7.5-1.5.8-2.2Z"/>
  <path class="st14" d="M75.8,137.9c2-.4,4-1.2,6.1-1,1,.9,1.6,2.1,2.4,3.2,6.7,10,14.9,18.9,20.5,29.6,3.6,7.8,5,16.4,6.4,24.9,1.6,9.2,2.9,18.4,4.1,27.6,2.1,16.9,3.9,33.8,5,50.8-12,0-24.1,0-36.1,0-.2-3.7,0-7.3.2-11,.4-13.7.8-27.5,1.3-41.2,0-10.1.8-20.1.7-30.2-.6,0-1.2.1-1.8.2-.7,27.4-1.7,54.8-2.5,82.2-15.3,0-30.7,0-46,0-.9-26.9-1.7-53.8-1.3-80.8.5-8.2,0-16.5,2-24.6,2.8-9.6,10.7-16.6,18.9-21.8,6.3-3.5,13-6.3,20-7.9Z"/>
  <path class="st14" d="M127.4,141.9c9.7,2.6,18.8,7.1,28.4,10.1,14.6,5.1,29.8,8.5,45.1,10.5-.2,4.1-.9,8.1-1.4,12.1-1.1,8.5-2,17-3.3,25.5-.5,4-1.3,8-1.4,12,.6,0,1.2-.1,1.8-.2.4-4.3,1.1-8.6,1.5-13,2.3.1,4.7.3,7,.5-1.3,5.2-2.6,10.4-3.6,15.6-8-1.7-15.9-4-23.9-5.9-3.2-.8-6.3-1.5-9.5-2.4-.8-4.1-1.8-8.1-2.7-12.2-2.3-9.3-4.4-18.6-7.1-27.7-.4,0-1.2,0-1.6,0,2,9.6,4.9,19,7,28.6,4.7,19.7,8.5,39.6,11.9,59.6.9,5.9,2,11.7,2.6,17.6-6.5,0-13.1.2-19.6,0-.5-20.8-2.7-41.6-8.1-61.7-2.8-11-6.5-21.8-10.4-32.5-3.8-10.1-7.9-20.1-13.7-29.2-1.8-2.2.3-4.9.7-7.3Z"/>
  <path class="st23" d="M106.1,168.3c-.5-1-.9-2-1.1-3,.6.4,1.3.7,2,1,8.7,2.8,18,3.3,26.9,1.1,4,9.3,7.4,18.9,10.5,28.5,3.4,10.6,6.3,21.4,8.3,32.4,2.8,14.8,3.7,29.8,4.4,44.8-11.6,0-23.2,0-34.9,0-1.4-21.5-3.8-42.9-6.8-64.1-1.5-10.3-3-20.5-5.6-30.6-.8-3.4-2.1-6.7-3.7-9.8Z"/>
  <path class="st10" d="M156.9,167c.4,0,1.2,0,1.6,0,2.7,9.2,4.8,18.5,7.1,27.7-.4.2-1.3.7-1.7.9-2.1-9.6-5-19-7-28.6Z"/>
  <path class="st0" d="M220.3,168.3c1.4,4.8,2.8,9.7,4.8,14.3.7,1.7,1.3,3.4,1.6,5.2-.7-.5-1.6-1-2-1.8-2.5-5-4-10.4-5.6-15.7.3,0,.8,0,1.1,0,0-.7,0-1.4.1-2Z"/>
  <path class="st11" d="M84.7,190.7c.6,0,1.2-.1,1.8-.2.1,10.1-.6,20.1-.7,30.2-.5,13.7-.9,27.5-1.3,41.2-.2,3.7-.4,7.3-.2,11-.4-.4-.7-.7-1.1-1,0,.2-.2.7-.3,1-.2,0-.5,0-.7,0,.7-27.4,1.7-54.8,2.5-82.2Z"/>
  <path class="st28" d="M307.2,190.3c9.8,0,19.6-.3,29.3.9,0,2.4.9,5.3-.9,7.3-8.9,12.4-18,24.6-27.1,36.7,5.8.4,11.5.8,17.3,1.3.2,2.4,0,4.8-.2,7.2-4.7,1-9.5,0-14.3-.1-4.9,0-9.9-.4-14.7-1.1,0-2.6-1.1-5.7,1-7.8,9.5-11.9,18.3-24.3,27.7-36.2-5.9-.4-12,.1-17.8-1.1-2-1.9-.5-4.8-.3-7.1Z"/>
  <path class="st28" d="M350.1,201.4c8.9-.2,17.9-.3,26.8,0,0,2.3.8,4.8-.4,6.9-7.4,11.4-15.7,22.4-23,33.9,5.6,0,11.3.1,16.9.3.4,2.4.4,4.8-.1,7.2-9.2-.2-18.5.3-27.7-.6-.2-2.1-1-4.6.4-6.4,7.7-11.2,15.5-22.4,23-33.7-5.3-.2-10.6-.2-15.9-.4-.7-2.3-1-4.8-.2-7.2Z"/>
  <path class="st28" d="M414,240.2c.3-2,1-4.1,2.9-5.2,6.2,2.9,12.1,6.4,18,9.9-.6,1.6-.8,3.6-2.4,4.6-7.4,5.9-15.3,11.2-22.8,16.8,3.6,2,7.2,3.9,10.6,6.1-.8,1.8-1.7,3.6-3,5.1-6.3-2.8-12.1-6.4-18-9.8.7-1.7.9-3.8,2.5-4.9,7.7-5.2,15.5-10.5,22.9-16.2-3.4-2.4-7.5-3.9-10.7-6.5Z"/>
  <path class="st28" d="M306,261.3c11.8-.4,24.5,2.5,33.3,10.7,4.3,4,6.8,9.4,9.1,14.6,19.4,1.3,38.9,4.4,58.3,2.3,2.6-.2,5.2-1,7.7-.4.7,1.7.8,3.5,1,5.4,2.2,27.1,4.3,54.2,4.5,81.4,13.5,1.5,28,5.7,36.6,16.9,3.9,5.6,8.8,10.5,13.5,15.4-.4.6-1.3,1.7-1.8,2.3-3.9-3.4-7.5-7.2-10.7-11.3-3.9-4.9-7.8-10.1-13.5-13-10-5.6-21.5-7.1-32.7-7.9-21.7-1.2-43.5,0-65.1,2.3-14.9,1.5-29.9,3.2-44.6,6.4-7.7,1.6-15.2,4.2-23,5.7-9.8,2-19.6,3.8-29.5,4.5-14.9.7-30,1.8-44.2,6.7-9.9,3.3-19.1,9.4-25.2,18-5.3,8-7.9,17.4-10,26.7-.7,0-2,.3-2.6.4-.2-3.6,1.1-7,2-10.4,2.1-6.8,4.5-13.7,8.9-19.4,6.7-9.3,17-15.5,27.9-18.9-2.6-12.3-6-24.4-8.6-36.7-3.4-16.5-5.6-33.3-5.3-50.2,0-2.4.3-4.7.8-7,5.1-.3,10.6.8,15.2-2.1,12.8-7.1,26.6-12.5,41.1-14.7-1-4.5-2.2-9.5.3-13.7,1.6-.2,2.1,1.3,2.9,2.4,2.1,3.7,6.7,5.1,10.6,5,7.3-.7,12.6-6.5,19.5-8.6-1.3-3.3-3.1-6.5-3.5-10,4,.9,7.7,3,11.8,3.5,6.4,1.1,12.8-.2,19.1-.8-1.3-1.7-2.6-3.5-3.6-5.4Z"/>
  <path class="st24" d="M312.6,264.6c8.8.8,17.8,3.6,24.5,9.7,5.4,4.6,7.5,11.5,9.6,18,3.2.6,6.5.9,9.4,2.4,3.8,2.3,6.5,6,8.2,10.1,2,4.5,2.9,9.5,5.5,13.8,1.8,3,5,4.8,7.8,6.7-2.4,1.3-4.8,2.5-7.2,3.6-.2,4.9,0,9.8-1,14.7-3.9,0-7.8-1.6-11.2-3.3-2.7-7.3-3.8-15.4-8.5-21.8-2.4-3.3-5.1-6.6-9-8.1-1.9.5-3.3,2-4.6,3.3-6,6.4-13.4,12-22,14.1.7-2.5,1.8-4.8,2.8-7.1-4.7-1.2-8.9,1.5-13.2,2.8-9.5,3-19.6,5.1-29.7,3.7-3-.3-6-1.1-9-1.1-1.2.9-1.9,2.4-2.4,3.8-3.2,8.2-4.6,17-6.2,25.6-4,.9-7.8,2.2-11.4,4.1-3-9.1-3.4-18.8-3.3-28.4.1-10.2,2.2-20.3,6.3-29.6,1.4-3.3,3.7-6,5.2-9.2-.2-3.6-1.8-7-2.5-10.6,4.3,2.3,9.1,5.1,14.2,3.7,7.5-1.8,13.6-7,20.8-9.7-.5-2-1-4.1-1.5-6.1,4.9.7,9.8,1.7,14.8,1.2,4.7-.4,9.5-.9,14.2-1.4-.2-1.7-.3-3.3-.5-5Z"/>
  <path class="st26" d="M350.8,289.9c18.2,1.4,36.5,4.5,54.8,2.3,2.1-.2,4.2-.4,6.4-.5,1.5,14.5,2.3,29.2,3.3,43.8.6,13.1,1.6,26.2,1.4,39.3-18.6-1.9-37.3-.7-55.8.4-.6,0-1.8,0-2.4-.1,3-1.8,6.6-2.1,9.6-3.9,6-3.9,8.9-12,6.4-18.8-.8-2.5-2.8-4.7-2.2-7.5.5-4.4.9-8.9,1.2-13.4,3.9-2.7,10.2-5.4,9-11.3-1.9.3-3.9,1.9-5.8.7-4.1-1.9-5.8-6.4-7.1-10.4-2-6.4-4.7-13.1-10.1-17.4-2.4-2.1-5.7-2.5-8.6-3.2Z"/>
  <path class="st26" d="M224.5,299.2c8.1-3.2,16.5-5.8,25.1-7.1-12.8,21.2-13.8,47.8-6.7,71.1.6,2.4,0,4.9.1,7.4,0,6.2,3.8,12.5,9.8,14.7,3.3,1.4,7,1.1,10.5,1.5,1.2,1.3,2,2.8,3,4.2-13.7,3-27.8,2.3-41.7,4.3-5.3.8-10.5,2.1-15.7,3.2-3.1-15.2-7.8-30-10.1-45.4-2.8-14.6-3.8-29.5-3.5-44.4,4,0,8.2.5,12-1.2,5.8-2.7,11.3-6,17.3-8.3Z"/>
  <path class="st25" d="M332.6,321.1c2.9-2.4,5.2-5.3,8.2-7.5,6.9,4.3,10.1,12.5,12.4,20,3.8,13.6,5.8,28.2,2.6,42.2-19.9,2-39.8,3.8-59.3,8.4-9.1,2.4-18.1,5.2-27.4,6.3-3.2-6.3-6.9-12.5-8.3-19.5-3.1-14.2.2-28.9,5.6-42.1,15.4,4,31.6.5,46.1-5.3-2.1,3.2-4.8,5.9-7.2,8.9,1.6.5,3.3,1,5,.3,8.1-2.4,16-6,22.4-11.7Z"/>
  <path class="st28" d="M327.5,332.5c5.3,0,10.4,1.8,15.5,2.9,1.3.5,2.9.4,3.9,1.5.2,1.3.1,2.6.1,3.9-6.7.9-13.2-2.2-19.8-3.4,0-1.7.1-3.3.2-5Z"/>
  <path class="st28" d="M285.2,335.3c2.9-1,4.6,4.1,1.6,5-4.7,2.3-9.4,4.9-14.3,6.9-2.6,1.5-5.4-2.8-2.7-4.4,5-2.7,10.1-5.3,15.4-7.5Z"/>
  <path class="st28" d="M311.5,344.5c.6,0,1.8-.2,2.5-.2,2.3,6.1,4.6,12.2,5.6,18.7-3.5.8-7,.8-10.6.9,0-.9,0-1.9,0-2.8,2.3-.2,4.6-.3,6.9-.4-1.2-5.5-3.3-10.7-4.5-16.2Z"/>
  <path class="st25" d="M359.2,344.2c2.8.4,5.6,1,7.8,2.8,6.3,4.4,7.1,14.7,1.4,19.9-2.3,2.4-5.5,3.3-8.5,4.2,1.2-9,.3-18-.7-26.9Z"/>
  <path class="st28" d="M327.7,351.1c3,.1,4.7,3.5,7.7,3.4,3.3.4,5.6-2.2,8.2-3.6,1.5.6,1.7,1.5.6,2.7-2.9,4.1-9.1,5.7-13.3,2.9-1.8-1.2-4.5-2.9-3.2-5.4Z"/>
  <path class="st28" d="M289,353.4c.6,0,1.8,0,2.4.1-.3,3.9-2.4,7.9-6.5,8.9-3.4,1-9.1.9-9.7-3.5,3.2,0,6.7,1.7,9.7,0,2-1.2,2.9-3.5,4.1-5.4Z"/>
  <path class="st25" d="M246.6,364.3c1.7-3.9,5.9-5.6,10-5.4-.1,8.6,2,17,5.4,24.9-4-.5-8.5-.7-11.6-3.6-4.6-3.7-5.7-10.6-3.8-16Z"/>
  <path class="st27" d="M341.1,360.7c2.5-.6,5.8-.2,7,2.5,1.8,3.2-1.1,7.3-4.6,7.2-3.5.4-7.1-2.5-6.7-6.2.8-1.8,2.5-3.1,4.4-3.5Z"/>
  <path class="st27" d="M272.4,366.2c2.2-.6,4.9-.7,6.8.8,1.4,1.7,1.2,4.4.2,6.2-2.3,2.7-7.1,3.3-9.5.3-2.6-2.4-.6-6.7,2.5-7.4Z"/>
  <path class="st28" d="M314.7,374.5c2.8-1.3,4.9-3.6,7.6-5.1,0,1.8,0,3.7-1.7,4.8-6.2,5.9-16.8,6.1-23.3.6-1.1-.9-1-2.4-1.4-3.6,3.2.8,5.7,3.3,8.8,4.3,3.3.6,6.9.5,10.1-.9Z"/>
  <path class="st29" d="M346.3,379.9c21.6-2.3,43.4-3.5,65.1-2.3,11.2.9,22.8,2.4,32.7,7.9,5.7,2.8,9.6,8.1,13.5,13,3.2,4.1,6.8,7.9,10.7,11.3,1.3,4,2.6,8,3.6,12.1-7.1-2.1-14.1-4.5-21.3-6.4-11.4-3.1-22.8-6.9-34.7-7.8-6.4-.4-12.8-1-19.2-.4-29.1,2.3-58.1,6.5-86.5,13.4-18.4,4.2-36.5,9.4-54.5,14.9-28.9,8.9-57.8,17.6-86.1,28.2,1.7-3.9,1.2-8.2.3-12.3-.2-1.6-1.8-2.3-2.9-3.2.7,0,2-.3,2.6-.4,2.1-9.3,4.7-18.7,10-26.7,6.1-8.6,15.3-14.7,25.2-18,14.2-4.9,29.3-6,44.2-6.7,10-.7,19.8-2.5,29.5-4.5,7.8-1.5,15.2-4.2,23-5.7,14.7-3.2,29.7-4.8,44.6-6.4Z"/>
  <path class="st28" d="M310.3,420.7c28.4-6.9,57.4-11.1,86.5-13.4,6.4-.6,12.8,0,19.2.4,11.9.9,23.3,4.7,34.7,7.8,7.1,1.9,14.2,4.3,21.3,6.4,2.7.9,5.4,1.8,8.1,2.8,0,.7-.3,2-.3,2.7-4.2-.4-8-2.2-11.9-3.4-8.4-2.6-16.8-5.1-25.3-7.5-10.5-2.9-21.1-5.7-32-6-12.3-.8-24.5,1-36.7,2.3-44.7,4.8-88.2,16.5-130.9,30.2-24.6,7.3-49.1,15.4-73.2,24.2-1.3,0-3.1,1.8-4,.3-2.1-2.5,2.5-2.8,4-3.6,28.3-10.7,57.2-19.4,86.1-28.2,18-5.5,36.1-10.8,54.5-14.9Z"/>
</svg>