<?xml version="1.0" encoding="UTF-8"?>
<svg id="Layer_1" xmlns="http://www.w3.org/2000/svg" version="1.1" viewBox="0 0 512 512">
  <!-- Generator: Adobe Illustrator 29.4.0, SVG Export Plug-In . SVG Version: 2.1.0 Build 152)  -->
  <defs>
    <style>
      .st0 {
        fill: #f15931;
        stroke: #f15931;
      }

      .st0, .st1, .st2, .st3, .st4, .st5 {
        stroke-width: .2px;
      }

      .st6, .st1 {
        fill: #fff;
      }

      .st6, .st1, .st4, .st5 {
        stroke: #fff;
      }

      .st6, .st7, .st8, .st9, .st10, .st11 {
        stroke-width: .3px;
      }

      .st2 {
        fill: #52d8fb;
        stroke: #52d8fb;
      }

      .st7 {
        fill: #04365a;
        stroke: #04365a;
      }

      .st8 {
        fill: #f05633;
        stroke: #f05633;
      }

      .st9 {
        fill: #fecfb5;
        stroke: #fecfb5;
      }

      .st3 {
        fill: #032d4b;
        stroke: #032d4b;
      }

      .st4 {
        fill: #fdd8a5;
      }

      .st5 {
        fill: #613900;
      }

      .st10 {
        fill: #7fe5fe;
        stroke: #7fe5fe;
      }

      .st11 {
        fill: #7b564d;
        stroke: #7b564d;
      }
    </style>
  </defs>
  <path class="st2" d="M225.2,12.9c4.6-1.2,9.3-2.9,14.1-2.5-.1,1.6.2,3.6-1.3,4.7-2.8,2.8-5.4,5.8-8.1,8.9,3.2.5,6.4,1.3,9.3,2.7,0,1.2,0,2.4,0,3.5-7.5,5.6-14.7,11.6-22.3,16.9-.8-.4-1.6-.8-2.5-1.2.6-3.3,3.5-5.2,5.8-7.3,3.6-3,7.2-6,10.8-8.9-3.2-.6-6.6-.6-9.7-1.8.2-4.6,4.7-6.9,7.1-10.3-6.2.7-11.9,4-18.2,3.4,0-1.2,0-2.3,0-3.5,4.8-2.1,9.8-3.4,14.8-4.8Z"/>
  <path class="st3" d="M77.6,31.9c1,0,1.9.2,2.9.3,0,4.4-1,9.4,2.1,13.1,3.7,4.2,9.9,4.7,15.2,4.3,14.3-1.6,27.8-6.9,42-8.7,14.2-2.1,29.4-2,42.6,4.4,4.3,2,7.8,5.5,9.3,10,7.6-.6,14.8,3.3,20.4,8.1,15,13.7,20.7,34.8,20.7,54.6.3,1.9-.7,4.3.8,5.9,2.3,2.6,3.7,5.9,4.4,9.2,1.6,7.9,1.3,16.1-.3,24-.9,4.2-2.8,8.2-5.8,11.4-2,2-4.9,3-7.7,3.5-2,9.8-5.6,19.4-10.9,27.9-8.6,14.3-22.2,25.9-38,31.4,4.5.2,9-1,13.4,0,4.4.7,8,3.8,10.7,7.2,4,5.2,7.1,11.1,9.3,17.3,3.6,8.7,5.6,17.8,8,26.8,1,4.4,2.5,8.7,2.6,13.2-.7,0-2.2,0-3,0-1.9-7.5-3.3-15.2-5.5-22.6-2.8-10.1-5.9-20.3-11.5-29.2-2.7-4.2-6.2-8.6-11.5-9.6-4.1-.5-8.2,0-12.2,0-2.3,2.4-4.7,4.6-6.8,7.2-.3,0-1,.1-1.4.2-.3,3.8-2.1,7.5-5.5,9.4-5.1,2.6-11.1,2.8-16.5,1.6-4-.8-8.4-3.1-9.7-7.2-.4-.9-.4-2.2-1.3-2.9-2.9-2.2-5.2-5.1-8-7.5-5.8.3-12-1.3-17.6,1.1-5,2-7.9,6.9-10.3,11.4-7.6,15.3-12.4,31.8-16.7,48.2-1.5.1-3.8.1-2.9-2.1,2.6-10.6,6-21,9.6-31.3,3.3-8.2,6.2-16.6,11.6-23.7,2.3-2.8,5.2-5.2,8.8-6.2,4.5-1.5,9.2-.8,13.9-.9-12.3-4-23.4-11.6-32-21.3-7.8-8.6-13.1-19.2-16.3-30.3-5.8-.2-11.6-3.2-14.2-8.7-4.3-8.4-6.7-18.1-5.5-27.5.6-5.9,4.4-11.3,10-13.5-2-14-2.3-28.4,1.5-42.1,1-4.4,3.2-8.3,4.7-12.5-8.2-6.8-15-15.7-18.5-25.9-.8-2.5-2.6-5.2-1.2-7.8,1.4-.4,2.6.7,3.8,1.2,2.8,1.5,6,2.1,9.2,1.7,3.1-1.1,6.2-2.8,8.2-5.5,1.9-2.6,3.5-5.5,5.1-8.2Z"/>
  <path class="st5" d="M67.6,47.9c3.9-1.7,7.1-4.6,9.3-8.1.7,3.9,2.4,7.9,5.9,10.1,4.5,3,10.2,3.4,15.5,3,10.3-1,20.2-4.3,30.3-6.5,14.8-3.4,30.5-5.1,45.3-.8,4.1,1.5,8.5,2.9,11.7,6,2.3,2,2.5,5.2,3.5,7.9,2.5,0,4.9-1.3,7.3-.5,9,2.1,16.4,8.6,21.4,16.2,8.7,13.3,11.7,29.5,11.6,45.1-2.4-1.1-5-1.7-7.7-1.7-2.6-13.8-12.4-26.6-26.2-30.5-7.5-2.1-15.4-.7-23,.2-9.5,1.5-19.1,2.9-28.6,3.9-11.5,1.5-23.2,1.6-34.5-1.2-9.5-2.4-18.7-6.2-27.1-11.1-7-4.1-13.7-9.1-18.6-15.7-4.1-4.9-6.7-10.8-9-16.7,4,1.9,8.8,2.2,12.9.5Z"/>
  <path class="st2" d="M15.9,80.5c.4-1.3,1.6-2.1,2.5-3.1,3.6,2.8,6.6,6.3,10.2,9.1.3,0,1,0,1.3,0,1.2-2,2-4.6,3.9-6.1,1.5-1.1,2.5.7,3.5,1.6-1.1,3.1-2.6,6-3.4,9.1,3.2,2.6,6.4,5.2,9.2,8.2v3c-4.6,1.9-9.7.6-14.5.8-1.1,2.4-2.3,4.8-3.5,7.1-1.2,0-2.5,0-3.7,0-.2-2.5.3-5,1.1-7.4-2.4-.4-4.9-.6-7.4-.6-.7,2.2-1.6,4.4-2.6,6.4-.8,0-2.3.1-3.1.2-1.2-2.3-.4-4.8,0-7.1-1.1-.4-2.2-.8-3.3-1.3,0-1.2,0-2.4.1-3.6,1.5-.1,3-.2,4.5-.3,1.9-5.3,3.2-10.7,5-16Z"/>
  <path class="st5" d="M67.9,129.7c-2-17.2-2.2-35.6,6-51.3,4.2,2.9,8.7,5.5,13.1,8-9.4,12.5-14.4,27.8-16.3,43.2-.7,0-2.1,0-2.8,0Z"/>
  <path class="st1" d="M19.4,86c2.9,1.7,5.6,4,7.8,6.5-.3,1.8-1.2,3.5-1.9,5.2-3,0-6,0-8.9-.7.9-3.7,2-7.3,3-11Z"/>
  <path class="st4" d="M86.7,92.6c1.3-1.7,2.3-4,4.4-4.8,13.9,7.2,30.1,9.8,45.7,8.4,15.5-1.1,30.8-4.2,46.3-5.9,7.8-.8,16,1.3,22.1,6.2,8,6,12.3,15.7,14.1,25.3,3.3,17.7,5,36.2.7,53.9-4.4,17.2-14.4,33.1-28.8,43.5-15,10.9-34.4,15.5-52.7,13-22.6-2.8-43.8-16.7-54.4-37-7.8-14.1-10.1-30.5-10.8-46.4-.8-19.5,3.1-39.7,13.5-56.5Z"/>
  <path class="st3" d="M165.8,101.6c1.8-1.5,4.2-.3,6.1.3,7.6,3,15.8,3.8,23.9,5.2,3.3.4,6.7,3.8,5.4,7.3-.5,2.5-3.4,2.8-5.4,2.9-9.3-.3-18.4-2.6-26.9-6.1-1.9-.9-3.9-1.8-5.1-3.7-1-2.1.2-4.6,2.1-5.9Z"/>
  <path class="st3" d="M116.9,104.5c2.3-1,4.7-2.1,7.2-2.2,2.5,1.4,4.5,3.9,3.5,6.9-4.5,4.2-10.6,6-16.2,8-6,1.6-12.3,3.4-18.6,2.7-1.9-.1-3-1.9-3.6-3.5.4-3.8,3.9-6.1,7.5-6.6,6.9-1.1,13.7-2.6,20.2-5.3Z"/>
  <path class="st4" d="M222.6,122c5.9-.1,10.6,5,11.8,10.4,2.2,9.5,1.8,19.8-1.7,29-1.3,3.6-4.4,6-7.8,7.5,1.8-15.6.9-31.6-2.3-46.9Z"/>
  <path class="st3" d="M178.3,127.6c4.5-1.7,9.7-2,14.3-.8,5.3,1.4,9.2,6.1,10.6,11.2.6,1.6-1.6,1.1-2.4,1.4-2-2.2-2.7-5.6-5.3-7.4-4.8-3.2-11.3-3-16.5-.8-2.8,1.1-4,3.9-5.3,6.3-.9,1.1-2.3,0-3.3,0,.9-4.3,3.8-8.4,8-9.9Z"/>
  <path class="st3" d="M149.1,128.8c.7-.1,1.5-.3,2.2-.4,2.7,4.4,5.3,8.8,7.9,13.3,2.4,3.3,3.4,8.8-.7,11.2-4.2,2.6-9.5,2.7-14.1,1.1,0-.7.2-2.2.2-2.9,4.5.7,9.7,1.2,13.4-2-.5-7.7-7.9-12.8-8.9-20.3Z"/>
  <path class="st3" d="M92.7,141.9c3.1-8.9,13.3-14,22.3-11.9,5.3.7,9.8,4.6,11.2,9.7-1,.3-2,.6-2.9.9-1.6-3.1-4.1-6.2-7.7-7-4.8-1-10.2-.6-14.2,2.4-2.9,1.9-4.2,5.1-6,7.8-1.2,1.4-3.5-.4-2.7-2Z"/>
  <path class="st4" d="M59.2,141c1.5-4.6,6.3-7.4,11-7.8-1.1,14.8,0,29.6,3.1,44.1-2.3-.6-4.5-1.4-6.6-2.4-4.9-4.7-6.7-11.4-8.1-17.8-1-5.3-1.3-11,.6-16.1Z"/>
  <path class="st3" d="M181.4,163.3c3.2-1.3,5.5,2.3,5.9,5,1.5,18.9-10.6,38.2-28.4,45-10.4,3.9-22.8,3.2-31.9-3.6-10.6-7.7-16.1-20.8-17-33.6,0-2.8-.6-5.9.9-8.5,13.1.6,26.2,1.7,39.3.5,10.5-.8,20.9-2.5,31.1-4.8Z"/>
  <path class="st1" d="M130,171c17.9,1,35.7-1.6,53.1-5.5.7,1,1.3,1.9,2,2.9-12.9,6.7-27.6,9.3-42,9.7-10.3.4-20.5-1.5-30.6-3.5,0-1.6,0-3.2,0-4.8,5.8.5,11.7,1.2,17.6,1.2Z"/>
  <path class="st2" d="M245.4,170.1c4.1-.8,8.4-.6,12.6-.6,3.6,0,7.4-.3,10.9.7,0,1-.2,2-.2,2.9-.9.5-1.7.9-2.6,1.4.4.5,1.2,1.5,1.6,1.9-1.3.7-2.7,1.2-4.1,1-6.1-.2-12.1-1.8-18-3.6,0-1.3-.2-2.5-.2-3.7Z"/>
  <path class="st2" d="M23,172.6c3.7-1.3,7.7-1.2,11.4,0,0,1.1,0,2.2,0,3.3-3.7.2-7.5.1-11.2-.2,0-.7-.2-2.3-.2-3Z"/>
  <path class="st2" d="M229.4,191.4c.7-.8,1.3-1.5,2-2.3,3,.4,5.8,1.4,8.3,3.1,2.6,1.7,5.7,3.2,6.7,6.4-1,2.5-4.3,1-5.7-.3-3.4-2.9-8.1-3.7-11.2-6.9Z"/>
  <path class="st0" d="M123.5,203.9c4.8-6.8,13.3-12.4,22-10.4,3.1,1.9,6.3-.4,9.5-.9,3.8-.5,7.3,1.5,10.3,3.6,2.5,1.7,5,3.6,6.5,6.2-5.9,5.1-13,9.3-20.9,10.4-7.4,1.2-15.6,0-21.8-4.4-1.9-1.5-3.7-3.2-5.8-4.4Z"/>
  <path class="st2" d="M43.3,203.9c1.2-1.3,3.1-1.2,4.7-1.3-.2,1.2,0,2.6-.8,3.6-2.2,2.8-4.9,5.3-7.3,7.9,2.5-.1,5-.2,7.4.5-.1,1-.2,2.1-.3,3.2-2.5.9-5,1.8-7.5,2.4-3.5.9-6.9,2.4-10.6,2.7-1.8-3,1-5.4,2.9-7.5,3.8-3.9,7.7-7.8,11.7-11.5Z"/>
  <path class="st2" d="M223.4,214c2.8-.4,5.3,1.2,6.9,3.3,2.3,2.8,4.8,5.4,7.9,7.4.9,1.9,2.2,4.4,4.6,4.6,2.2-.7,4.4-2.2,6.7-.8,0,.8-.1,1.5-.1,2.3-.9,1.2-2.3,2.5-1.5,4.1,1.2,1.7,2.5,3.3,3.5,5.1-1,1.3-2.3,2.2-4,2-1.7-1.7-3.6-3.4-5.4-5.1-1,.7-1.9,1.5-2.9,2.2,0,4.1.3,8.3,0,12.4-1.2,0-2.5,0-3.7-.1-.6-2.7-1-5.4-1.2-8.2-.6.3-1.7.8-2.3,1.1,0,1.6,0,3.3.1,4.9-.5.5-1,.9-1.5,1.4-.8,0-1.5,0-2.3,0-.4-.7-.9-1.4-1.3-2.2-1.1-.3-2.2-.7-3.3-1,0-1.7.7-3.2,2-4.2-1.2-9.7-4.3-19.4-2.4-29.2Z"/>
  <path class="st1" d="M228,223c1.9,1.7,3.9,3.3,5.5,5.3.4,2.8.2,5.6.2,8.5-1.1.7-2.2,1.5-3.3,2.3-1.1-5.3-2.1-10.7-2.3-16.1Z"/>
  <path class="st2" d="M76.9,233.4c.9,0,1.9,0,2.8,0,.7,4.5-2.8,8-4.9,11.6-2.4,3.3-4.1,7.3-7.6,9.6-2.6,1.4-2.4-2.5-1.6-3.9,3.2-6.1,7.2-11.6,11.2-17.1Z"/>
  <path class="st4" d="M138,235.7c8.7,1.3,17.5.9,26.1-1-.3,4.4.8,9.8-2.6,13.2-4.4,3-10.1,3.3-15.2,2.2-2.8-.5-5.7-1.9-7.2-4.4-1.2-3.2-.9-6.7-1-10Z"/>
  <path class="st7" d="M371.6,206.6c5-.6,7.9,4,10,7.8,3.3,6.5,2.5,14,1.8,21,8.1-5.4,18.4-8.3,27.9-5,7,2.5,9.9,10.6,16.9,13.1,4.9,1.9,10.8,1,14.8-2.4,2.5-2.1,3.8-6.3,7.8-5.7,1.3,7.6-.8,15.2-4.3,22,5.8,2.8,9,8.7,11,14.6,4.9,14.1,5.2,29.2,5.6,43.9,6.7.9,13.9,2.8,18.4,8.3,5.4,7.8,5.9,19.1.4,27-4.2,5.7-10.3,9.6-16.3,13.1-.1,2.4-.3,4.8-.4,7.3,15.2,9.7,23.3,27,28.2,43.8,1,3.8,3.1,7.8,2.7,11.8-10.1,16.9-25.3,30.5-42.6,39.7-19.6,10.9-41.6,16.8-63.8,19.4-28.3,3-57.5.3-84.3-9.3-26.1-9.2-51-25.4-65.2-49.7,2.8-14.5,7.6-29,15.8-41.4,3.2-4.9,7.6-8.8,12.2-12.3.4-3.4,0-6.8-.1-10.1-5-3.3-10.1-6.9-14.1-11.5-5.8-7.6-5.9-18.6-1-26.7,3.3-5,9.2-7.3,14.8-8.8.7-7,1.5-14.1,3.3-20.9.8-3.3,3-6,3.8-9.3,0-4.1-2.6-8.1-1.2-12.3,4.1-1.1,7.6,2.2,11.1,3.7-.6-9.6.5-20.2,6.9-27.9,6-7.1,15.2-10.3,24.2-11.5,14.2-2.4,29.4-3.3,42.1-10.7,7.6-4.2,12.8-12.3,13.3-21Z"/>
  <path class="st11" d="M368,223.9c3.2-3.7,4.9-8.4,7.1-12.7,8.3,8.5,5,20.9,3.6,31.3,5.4-1.6,9.4-5.9,14.6-7.8,5.2-1.9,11.2-3.1,16.4-.7,7.4,2.9,10.7,11.8,18.7,13.5,6.6,1.6,13.4-.5,18.9-4-1.1,4.7-1.8,9.9-5,13.7-2.7,2.5-6.2,4.2-8.7,7,5.1-.1,11.1-5.1,15.4-.6,6.3,7.6,8,17.8,9.3,27.3.5,8.3,1.9,16.5,1.1,24.8-2.6-.6-5.2-1.5-6.2-4.2-4.5-9-10.3-17.5-18.1-24-3.8-2.6-8.8-2.5-12.9-4.8-3.1-1.8-6.1-3.7-9.4-5.1,1.5,4.9,3.6,9.6,4.8,14.5-6.2-3.7-12.7-8.2-20.4-7.5-5.1-.1-9.3,3.7-14.2,4.3-2.7-2-5.2-4.3-8-6.1-1.8,7.4,2.1,14.6,2.6,21.9-8.9,0-17.6-2.5-25.2-7.1-.3,3.6.9,7,2.3,10.3-9.6-3-17.2-9.9-23.9-17.1-3-3.3-7.3-6.5-12.1-5.3-5.9,1.5-10.4,6.3-16.5,7.3-1.5-2.1-2.9-4.3-4.3-6.4-2.2,5.4-5.2,10.3-8.5,15.1-2.9,4.2-4.4,9.5-8,13.2-3,1.4-6.5.8-9.7.9.1-8.6,1.5-17.3,5.3-25.1,2-3.8,1-8.2.6-12.2,3.6,1.3,7.2,2.5,10.8,3.8.6-8-.7-16.5,2.8-24,2.5-5.7,7-10.5,12.8-12.8,15.5-6.6,33.3-4.4,48.8-11.1,5.6-2.5,11.1-5.6,15.1-10.3Z"/>
  <path class="st9" d="M419.2,285.2c5.7,3.3,13.4,2.8,17.9,8.1,13.6,14.9,20.5,34.8,22.9,54.6,1.5,18.7.4,38.5-9.2,55.1-10.3,18.4-29.1,30.7-49.1,36.3-19.9,5.6-41.3,5.6-61.4,1-20.4-4.9-40-16-51.8-33.8-5.8-8.3-9.5-17.9-10.8-27.9-3.9-29.3,2.5-60.6,20.6-84.4,1.3.6,2.6,1.2,3.9,1.7,7.7.8,12.9-8.2,20.5-6.7,7,3.3,10.9,10.6,17.2,15,5.7,4,12.3,8.9,19.7,7.3-.8-2.4-1.7-4.8-2.6-7.2,7.9,2.6,16.2,4.2,24.5,4.7,0-6.6-2.4-12.9-3.4-19.4,1.9,1.4,3.6,3.2,5.8,4.2,4.3-2.4,8.4-5.7,13.5-5.7,7.4-.7,13.4,4.3,19,8.5,1.3,1.3,3.2.7,4.8.8.3-4.1-.9-8.1-2-12Z"/>
  <path class="st7" d="M411.2,300.4c4-1.3,8.3.2,11.2,3.1,2.3,1.6,1.8,6.1-1.1,6.7-14.3,2.5-24.1,14.6-37.4,19.5-3.6,1.5-9.1,0-9.3-4.4-.8-4.6,4.6-5,7.7-6.2,11.3-3.5,18.7-13.5,29-18.6Z"/>
  <path class="st7" d="M315.8,311.5c3.2-.9,6.4.2,9,2.1,6.1,4.2,12.5,8.3,19.8,9.8,3.5.6,7.1,0,10.6.4,3.7,1.8,2.7,10.3-2.1,9.9-10.2-.5-20.2-3.6-29.5-7.8-4.1-2-8.7-2.2-13-3.7-3-4,1-9.6,5.2-10.7Z"/>
  <path class="st9" d="M259,324.5c6-4.5,13.8-5.5,21-5.7-4.9,13.5-8.6,27.6-9.1,42-6.8-4.2-14.7-8.9-17-17-1-6.6-.6-14.7,5.1-19.2Z"/>
  <path class="st9" d="M456.6,319c8,.6,17.7,1.4,22.8,8.6,3.4,6.1,4,14.1.5,20.3-3.3,5.8-9,9.6-14.8,12.5-.6-14.2-3.8-28.1-8.4-41.4Z"/>
  <path class="st7" d="M328.1,336c5-3.6,12.8,1,12.1,7.1.4,4.8-4.7,8.6-9.3,7.6-7.2-.4-9-11.5-2.8-14.7Z"/>
  <path class="st7" d="M396.6,335.6c5.1-2.8,12,1.7,11.3,7.5.6,6.7-8.4,10.1-13,5.9-4.3-3.4-3.2-11.2,1.7-13.3Z"/>
  <path class="st7" d="M363.1,354.1c-1.1-1.3-.8-3-.5-4.5,4.5,3.7,7.2,9,9.7,14.1,1.2,2.3,1.4,5,1.6,7.6-5.7,1.4-11.5,3.2-17.5,2.5-1.6,0-2.7-1.2-3.9-2,5.9-1.6,12.1-1.3,18-3.2-1.8-5.2-4.4-9.9-7.4-14.5Z"/>
  <path class="st10" d="M258.3,390.4c3.4-5.5,8-10.4,13.6-13.7,2.1,11,5.5,21.9,11.7,31.2,11,15.3,27.2,26.7,45.1,32.5,22.6,7.8,47.3,8.6,70.5,3,21-5.2,40.6-17.3,53.5-35,6.6-9.5,10.1-20.7,12-32,10.5,7.5,17,19.1,21.3,31,2.4,6.8,5.5,13.5,6.4,20.7-10.2,16.2-25.8,28.2-42.5,37.2-25.8,13.1-54.9,18.7-83.6,18.7-20-.5-40.1-3.3-58.9-10-22.4-7.7-43.7-20.4-58.5-39.1-2.1-2.7-5.3-5.6-3.8-9.4,3.1-12.2,6.9-24.4,13.4-35.2Z"/>
  <path class="st7" d="M365.6,381.4c9.3-1.3,19.1,1,26.8,6.4,9.6,6.2,15.4,17.2,17.2,28.3.4,3.4.9,7.2-1,10.3-2.4,2.9-6.4,3.1-9.9,2.8-9.1-.8-17.7-4.1-26.8-4.9-13-1.5-26.2,1.6-39-1.2-3.2-.6-6-3.5-4.9-7,2.2-10.3,9.4-18.8,17.2-25.6,5.9-4.7,13-8.2,20.5-9.3Z"/>
  <path class="st6" d="M345,395.2c12.8-13.7,36.8-14.6,50-1.1-16.2,4.8-33.6,4.5-50,1.1Z"/>
  <path class="st8" d="M335,420.2c2.4-5.5,7.3-10.3,13.4-11.1,9.9-1,19.6,1.9,28.9,4.6-1.6,2.6-3.4,5.1-5.3,7.4-12.3-.9-24.8.9-37-1Z"/>
  <path class="st8" d="M375,421.8c1.9-7.2,12.1-12.5,18.4-7.2,2.3,2.3,3.6,5.4,5.2,8.2,1.7-.2,3.4-.4,5.1-.6.5.8.9,1.6,1.4,2.4-5.5,0-11.1.6-16.5-.5-4.5-.9-9-1.7-13.5-2.3Z"/>
</svg>