<?xml version="1.0" encoding="UTF-8"?>
<svg id="Layer_1" xmlns="http://www.w3.org/2000/svg" version="1.1" viewBox="0 0 512 512">
  <!-- Generator: Adobe Illustrator 29.4.0, SVG Export Plug-In . SVG Version: 2.1.0 Build 152)  -->
  <defs>
    <style>
      .st0 {
        fill: #acedff;
        stroke: #acedff;
      }

      .st0, .st1, .st2, .st3, .st4, .st5, .st6, .st7, .st8, .st9, .st10, .st11 {
        stroke-width: .2px;
      }

      .st1 {
        fill: #fff;
        stroke: #fff;
      }

      .st2 {
        fill: #80e8fe;
        stroke: #80e8fe;
      }

      .st3 {
        fill: #5492bb;
        stroke: #5492bb;
      }

      .st4 {
        fill: #1d5176;
        stroke: #1d5176;
      }

      .st5 {
        fill: #89e7ff;
        stroke: #89e7ff;
      }

      .st6 {
        fill: #79e5fe;
        stroke: #79e5fe;
      }

      .st7 {
        fill: #063557;
        stroke: #063557;
      }

      .st8 {
        fill: #073c64;
        stroke: #073c64;
      }

      .st9 {
        fill: #052e4b;
        stroke: #052e4b;
      }

      .st10 {
        fill: #093b61;
        stroke: #093b61;
      }

      .st11 {
        fill: #f35e36;
        stroke: #f35e36;
      }
    </style>
  </defs>
  <g>
    <path class="st8" d="M337.1,32.4c5.3-1.3,10.6-2.8,16-3.9,1.4,8.8,3.6,18.1,9.5,25.1,3.2,3.9,8.6,6.7,13.7,5.1,5.8-2,9.5-7.5,12-12.8,2.4-5.3,3.6-11.1,4.6-16.8,5.3,1.1,10.5,2.9,15.8,4.2-1.5,5.2-2.9,10.5-3.5,16-.7,7.6-.7,15.3-2.7,22.7-2.7,10.3-7.3,19.9-9.7,30.2,12.7,16,22.7,34,31.1,52.6,7.8,17.4,14.5,35.3,20.7,53.4,7.2,20.7,13.9,41.7,19.2,63-3,2.4-5.8,5.2-9.5,6.3-9.9,4.5-20.8,9.3-31.9,7.2-2.5-.6-4.9.7-7.2,1.5-10.3,3.6-21.4,5.7-32.2,3.3-3.5-.4-6.9-2.4-10.4-1-12.2,3.5-25.5,2.3-36.9-3.2-2.2-1.4-4.8-.4-7.2-.2-10.9,1.4-22.2-.6-32-5.5-4.7-1.9-9.2-4.3-13.4-7.1,3.9-18.2,9.7-36,15.4-53.8,8.6-25.5,17.6-50.9,29.4-75.1,7.1-14.2,15-28,24.8-40.6.6-.7.8-1.6.5-2.4-2.7-10.3-7.1-20-9.8-30.3-2.3-9-1.5-18.5-3.4-27.6-.7-3.4-1.7-6.7-2.6-10.1Z"/>
    <path class="st0" d="M353.2,103.7c1-1.9,3.1-.7,4.6-.4-27.1,53.6-42.1,112.2-53.2,170.9-.4,2.3-.8,4.5-1.4,6.8-6.5-2.8-13.2-5.3-19.1-9.3,4.7-20.2,10.9-40.1,17.6-59.8,5.3-15.5,10.8-30.9,17.1-46,9.1-21.9,19.9-43.3,34.4-62.2Z"/>
    <path class="st0" d="M387.9,103.3c1.5,0,3.7-1,4.7.7,19.2,24.4,31.7,53.2,42.7,82.1,10.2,27.7,19.7,55.8,26.9,84.5-1.9,1.8-3.9,3.7-6.4,4.8-4.2,1.9-8.4,3.9-12.8,5.4-6.8-36.3-15-72.5-26.6-107.7-6.3-19-13.2-37.8-21.8-55.8-2-4.7-4.6-9.2-6.6-13.9Z"/>
    <path class="st0" d="M352.3,117.4c2.2-4.8,4.4-9.6,7.1-14.1,9.1,1.4,18.2,1,27.4.5,26.1,51.4,41.3,107.6,52.4,163.9.9,4.5,2,9.1,2.6,13.7-5.5,1.5-11.2,3.2-16.9,2.3-2-.2-4-1-6-.2-8.6,3.1-17.5,5.8-26.7,5.7-5.2,0-10.4-1.2-15.4-2.4-2.7-.6-5.2.7-7.8,1.1-10.7,2.5-22.1,1-32.1-3.4-1.5-.6-2.9-1.6-4.5-1.2-9.2,1.5-18.8,1.3-27.7-1.7,6.8-38.4,15.5-76.5,27.7-113.6,5.8-17.1,12.1-34.1,19.9-50.5Z"/>
  </g>
  <g>
    <path class="st7" d="M167.7,295.2c1-.6,2.2-.8,3.3-.5,18.4,3.1,36.7,6.4,55,9.5,2.4.2,4.8,2.4,4.3,4.9-.4,4.2-1,8.4-1.8,12.6-.3,2-2.9,2.7-3,4.8-4.7,25.3-13.9,49.8-26.6,72.2-3.1,5.4-5.6,11.4-5.9,17.8-1,7.7.5,15.6-1.2,23.2-1,6.2-5.2,11.6-10.8,14.4-6.1,2.9-13,2.6-19.5,2.7-11.6.3-23.6,2-33.6,8.2-5.7,3.3-10.3,8.1-15.7,11.8-6.5,4.2-13.8,6.9-21.3,8.4-8.3,2-17.3-.7-23.6-6.3-4.6-4.1-7-10.5-6.2-16.6.6-5.1,2.8-10,5.7-14.3,5.6-7.7,14.1-12.7,22.5-16.8,8.3-4,17.7-4.8,26.2-8.5,4.3-1.8,8.2-4.3,12.1-6.9,4.8-3.4,9.4-7.1,13-11.7,4.3-5.3,6.6-12,8.1-18.6,2.3-9.7,3.6-19.6,5.6-29.4,2.2-10.9,4.7-21.8,7.9-32.4.7-2.7,1.6-5.4,2.1-8.2.4-2-1.4-3.7-.8-5.7.6-3.8,1.3-7.7,2-11.5.1-1.4,1.1-2.6,2.2-3.3Z"/>
    <path class="st6" d="M170.4,315.2c16.6,2.7,33.1,5.7,49.7,8.5-.4,4.2-1.5,8.3-2.4,12.4-3.9,16.6-9.9,32.7-17.4,48.1-3.6,7.5-8.5,14.4-11.1,22.4-1.4,4.2-1.8,8.6-2.1,13-8.5,0-17.4,1.7-24.4,6.7-3.5,2.5-4.9,6.8-5.9,10.8-1.1,4.6-.4,9.4-.3,14.1-11.1.5-22.3,3.1-31.7,9.1-7.6,4.3-13.3,11.3-21.3,14.9-.5-1-.9-2.1-1-3.1-1.3-7.3-3.7-14.6-8-20.8-2.6-4.1-6.2-7.5-9.7-10.8,6.8-4.5,14.7-7,22.5-8.8,6.8-1.6,13.3-4.5,19.3-8.1,7.5-4.9,14.7-10.5,19.9-17.8,5.4-7.4,7.6-16.6,9.4-25.5,2-11.2,3.9-22.4,6.5-33.5,2.3-10.6,5.4-21.1,8.2-31.6Z"/>
    <path class="st11" d="M164.5,432.6c5.8-5.5,14.3-7.4,22.1-6.8.2,6.6,1.1,14.1-3.7,19.5-4.9,6.3-13.7,6.2-20.9,5.8-.2-6.1-1.5-13.1,2.4-18.5Z"/>
    <path class="st11" d="M77.6,445c1.3-1.2,3-.3,4.1.7,6.3,5.3,11.2,12.4,13.3,20.3,1.1,3.8,2,7.6,2.3,11.6-5.9,2.1-12.5,3.7-18.6,1.5-4.8-1.6-9.4-4.7-11.4-9.5-2.6-9.4,2.9-19,10.2-24.6Z"/>
  </g>
  <g>
    <path class="st9" d="M213,74.5c3.5-.1,7.1-.8,10.6-.5,3.4,16.2,6,32.5,8.5,48.9,1.7,13.5,3.3,27.1,4.4,40.7,1.8,23.1,3.3,46.2,4.7,69.3,0,.9.3,2.1-.6,2.7-24.1,1.5-48.2,4.1-72,8.3-2,.3-3.9,1-6,.9-2-8.6-2.6-17.6-6.1-25.8-6-15.5-11.7-31-17.3-46.6-4.9,13.9-10.2,27.7-15.5,41.4-1.4,4.1-3.3,8.1-4.4,12.4-1.3,6.3-2.1,12.6-3.5,18.9-2.2-.2-4.4-.8-6.6-1.3-15.3-3.5-30.9-5.6-46.5-7.2-8.3-.8-16.7-1.2-25.1-1.8-.2-1.2-.2-2.4-.1-3.6,1.5-26.5,3.1-52.9,5.5-79.3,1.8-21.1,5.1-42,8.7-62.9,1.1-4.9,1.5-9.9,3-14.7,8.1.2,16.1,1,24.1,1.4,22.6,1.2,45.3,2.2,68,1.9,22.1-.3,44.1-1.6,66.1-3.2Z"/>
    <path class="st3" d="M209.6,76.8c1.5-.1,3-.2,4.5-.1-15.5,3.3-31.3,5-47.1,5.9-22.5,1.5-45.2,1.2-67.7-.6-11.8-.8-23.4-2.6-35-4.9,16.2.8,32.5,1.8,48.7,2.2,22.9,1.1,45.8.3,68.7-.7,9.3-.6,18.6-1,27.9-1.8Z"/>
    <path class="st3" d="M149.2,85.4c24.5-.5,49.1-2.6,73-8.4,1.3,5.8,2.2,11.6,3.2,17.4-13.8,1.3-27.5,3.1-41.3,4.2-16.7,1.4-33.5,2.5-50.2,2.4,0-5.2,0-10.3,0-15.5,1.6,0,3.3,0,4.9,0-1.3,2.3-3.1,4.8-2.6,7.6.2,4.8,5.2,8.5,9.9,7.3,4-.8,6.8-4.9,6.3-9,0-2.5-1.6-4.5-3.3-6.2Z"/>
    <path class="st3" d="M55.8,77.4c24.9,5.8,50.5,7.7,76,8.2,0,5.1,0,10.3,0,15.4-26.4-.6-52.7-3.7-78.9-6.5.8-5.7,2.1-11.4,2.9-17.1Z"/>
    <path class="st5" d="M142.4,86.2c4.3-1.8,9.1,2.7,8.2,7.1-.3,3.5-4,6.2-7.5,5.4-3.4-.6-5.7-4.3-4.9-7.6.4-2.2,2-4.1,4.1-4.9Z"/>
    <path class="st9" d="M142.8,88.2c2.3-.6,4.8,1.6,4.5,4,.4,3.1-3.8,5-6,2.9-2.4-1.9-1.6-6.3,1.5-6.9Z"/>
    <path class="st5" d="M142.4,90.2c1.2-.1,2.4.2,3.3,1.1-.3.9-.3,2.1-1.2,2.6-.8.4-1.9,0-2.3-.7-.8-.9,0-2.1.2-3Z"/>
    <path class="st5" d="M52.5,96.4c10.7,1.2,21.5,2.4,32.2,3.4-.9,8.5-4,17-9.9,23.4-4.8,5.3-11.4,8.8-18.3,10,3.9-6.3,8.1-12.6,12.1-18.9,1.1-1.7,2.4-3.3,3.1-5.2-.2-.3-.7-1-.9-1.3-1.9,1.8-3.1,4.1-4.5,6.2-4.1,6.5-8.4,12.9-12.4,19.5-2.3,0-4.6,0-6.9,0,1.4-12.5,3.5-24.9,5.4-37.3Z"/>
    <path class="st5" d="M193.4,99.8c10.8-1.1,21.5-2.4,32.3-3.4,2.1,12.4,4,24.8,5.5,37.3-2.3,0-4.6,0-6.9,0-4.4-7.5-9.5-14.6-14.1-22-.8-1.2-1.6-2.4-2.5-3.6-.4.2-1.1.7-1.5.9,3.2,5.6,7.1,10.8,10.5,16.3,1.7,2.6,3.4,5.2,5.2,7.9-8.5-1.4-16.3-6.4-21.4-13.4-4.2-5.9-6.5-12.9-7.2-20.1Z"/>
    <path class="st5" d="M82.8,114.7c2.2-4.6,3.2-9.8,4-14.8.9.1,1.8.2,2.7.3,0,1.6-1.2,4.7,1.5,4.6.8-1.3,1-2.9,1.3-4.3.6,0,1.3.1,1.9.2,14,1.3,28,2.1,42,2.5,0,15.4,0,30.7,0,46.1,0,2.3-.1,4.6.3,6.9.4,2.9,1.5,5.6,2.2,8.4.5,2-.2,3.9-.8,5.8-3.3,9-6.5,18-10,27-3.3,9-7,17.8-10.1,26.9-1.5,6.1-2.3,12.3-3.4,18.4-17.8-4.2-35.9-6.8-54.1-8.4-6.8-.5-13.6-1.2-20.5-1.2,0-2.6.2-5.3.3-7.9h.2c3.1,0,6.2.5,9.2.2.1-1,.1-2.1.1-3.1-3.1-.2-6.2-.4-9.3-.6,1.7-26.6,3.2-53.3,5.9-79.8,1.7.2,3.4.3,5,.4,0-.9,0-1.8-.2-2.7-1.5-.4-3-.4-4.5-.5.1-1.1.2-2.1.3-3.2,7.4.3,15.2-.8,21.6-4.8,6.3-3.8,11.4-9.6,14.5-16.2Z"/>
    <path class="st4" d="M89.4,100.2c1.6,0,3.2.2,4.7.4-.6,0-1.3-.1-1.9-.2-.3,1.5-.5,3-1.3,4.3-2.7.2-1.6-2.9-1.5-4.6Z"/>
    <path class="st4" d="M183.6,100.6c1.7-.3,3.4-.5,5.1-.5.1.7.3,1.4.4,2.2.2,1.1.3,2.1.5,3.2-.7.2-1.4.5-2.2.7-.6-1.9-.9-3.8-1.2-5.7-.9,0-1.7.1-2.5.2Z"/>
    <path class="st5" d="M188.8,100c.9,0,1.8,0,2.6,0,.8,7.5,3.2,14.9,7.6,21,5.3,7.2,13.2,12.6,22,14.1,3.5.8,7.1.8,10.7.7,0,1,.1,2.1.2,3.1-1.5.2-3,.4-4.5.6.3.8-.2,2.2.9,2.5,1.4.2,2.8,0,4.1,0,3,30.5,4.8,61.1,6.7,91.6-12.4.7-24.8,1.8-37.1,3.3-12.6,1.5-25.3,3.2-37.7,5.7-.6-3.4-1.3-6.8-1.9-10.3,0-.4-.2-1.3-.3-1.8,2.4-.3,4.8-.6,7.3-.9.2-.6.4-1.1.6-1.7-.2-.6-.5-1.2-.7-1.8-2.7.3-5.3.6-8,1-.8-5.8-3.8-11-5.6-16.5-5.2-13.3-10-26.8-14.8-40.3-.6-2,.3-4,0-6-.7-3.3-2-6.5-2.4-9.9-.2-2,0-4.1,0-6.1,4.3-1.2,8.7-2.8,11.7-6.4,3.2-3.7,3.8-8.8,3.3-13.5-.4-8.7-1-17.3-1.3-25.9,10.6-.3,21.2-1.1,31.8-2,.8,0,1.7-.1,2.5-.2.3,1.9.7,3.8,1.2,5.7.7-.2,1.4-.5,2.2-.7-.2-1.1-.3-2.1-.5-3.2-.1-.8-.2-1.5-.3-2.3Z"/>
    <path class="st5" d="M138.2,103.1c3.8,0,7.7-.2,11.5-.2.3,8.6.9,17.2,1.4,25.8.5,4.5-.2,9.5-3.5,12.9-2.6,2.5-6,3.8-9.5,4.6,0-14.4,0-28.7,0-43.1Z"/>
    <path class="st4" d="M88.1,108.9c.4-1.2,1.8-.3,2.6-.2-.9,3-1.7,6-3.2,8.7-.5,1-1.8.3-2.7.3,1-3,2.1-5.9,3.2-8.8Z"/>
    <path class="st9" d="M141.1,108.6c.6-.6,1.6.3,1.4,1,0,6.7,0,13.4,0,20.1,0,1.5,0,3.1-.2,4.6-.4,0-1.1,0-1.5,0-.4-1.3-.4-2.7-.3-4,.2-6.5-.1-13.1,0-19.6.2-.6-.2-1.7.6-2Z"/>
    <path class="st4" d="M188.5,112.1c-.3-.9-.4-1.8,0-2.7.4,0,1.2,0,1.6,0,1.3,2.8,2.2,5.8,3.6,8.6-.5.4-.9.8-1.4,1.3-.3-.2-.9-.5-1.2-.7-.9-2.2-1.8-4.3-2.6-6.6Z"/>
    <path class="st4" d="M82.1,121.7c.6-1,1.7-.5,2.3.2,0,1.1-.7,1.9-1.3,2.8-1.4,2-3,3.9-4.9,5.5-.5-.5-1.1-1-1.6-1.5,1.8-2.3,3.6-4.7,5.5-7Z"/>
    <path class="st4" d="M194.7,122.1c1.4-.7,2.1,1,2.9,1.8,1.1,1.5,2.5,2.8,3.5,4.4.6,1.4-1.3,2.5-2.2,1.2-1.8-2-4.1-4-4.8-6.7.1-.2.4-.5.5-.7Z"/>
    <path class="st4" d="M67.1,135.5c2.3-1.6,4.6-3.2,6.9-4.8.4.7,1.1,1.3,1.1,2.1-1.8,1.8-3.9,3.2-6.1,4.4-1.2.3-1.4-1-2-1.8Z"/>
    <path class="st4" d="M203.6,131.5c1.3-.5,2.3.6,3.2,1.2,1.3,1,2.7,1.7,3.9,2.8,0,.7,0,1.4,0,2.1-2.7-.4-4.8-2.4-6.9-4-.8-.5-.5-1.5,0-2.2Z"/>
    <path class="st4" d="M55,138.8c2.9-.9,6-1.4,9-2,0,.8,0,1.6,0,2.5-2.8,1.2-5.9,1.9-9,1.9,0-.8,0-1.6,0-2.4Z"/>
    <path class="st4" d="M214.4,137.3c3.1,0,6.1.8,9,1.7.4.8,0,1.8-.1,2.7-3.1-.5-6.1-1.2-9.1-2.3,0-.5.1-1.6.1-2.1Z"/>
    <path class="st4" d="M46.4,138.9c1.5.1,3,.1,4.5.5.2.9.2,1.8.2,2.7-1.7,0-3.4-.2-5-.4.1-.9.2-1.9.3-2.8Z"/>
    <path class="st4" d="M227.3,139.5c1.5-.2,3-.4,4.5-.6.2,1,.3,2,.5,3-1.4,0-2.8.2-4.1,0-1.1-.3-.6-1.7-.9-2.5Z"/>
    <path class="st4" d="M229.9,221.6c1.9-.2,3.7-.4,5.6-.5.1,1.2.2,2.3,0,3.5-1.9.1-3.7.3-5.6.3,0-1.1,0-2.2-.1-3.3Z"/>
    <path class="st4" d="M40.1,221.6c3.1.2,6.2.4,9.3.6,0,1,0,2.1-.1,3.1-3.1.3-6.2-.2-9.2-.2,0-1.2,0-2.3,0-3.5Z"/>
    <path class="st4" d="M219.1,222.6c1.8-.2,3.7-.5,5.5-.4,1.1.6,1.2,2.7.1,3.3-1.8.5-3.8.4-5.7.3,0-1.1,0-2.2,0-3.2Z"/>
    <path class="st4" d="M53,225.6c.1-1.1.3-2.1.5-3.1,3.6,0,7.2.4,10.8.8,0,1.1-.1,2.2-.2,3.4-3.7-.4-7.4-.4-11.1-1.1Z"/>
    <path class="st4" d="M207.9,223.5c2.1-.3,4.2-.5,6.3-.4,0,1.1,0,2.1,0,3.2-2.1.3-4.2.5-6.2.5,0-1.1-.1-2.2-.1-3.3Z"/>
    <path class="st4" d="M69.3,223.4c1.5,0,2.9,0,4.4.2,0,1.1,0,2.2,0,3.2-1.5.7-3.1,0-4.7-.1,0-1.1.2-2.2.3-3.3Z"/>
    <path class="st4" d="M197.8,224.2c2-.2,4-.3,6-.2,0,1,0,2.1-.2,3.1-1.9.4-3.9.4-5.8.4,0-1.1,0-2.2,0-3.3Z"/>
    <path class="st4" d="M78.3,224.1c1.9.2,4,0,5.8.8,0,1,0,2,0,3-2,0-3.9,0-5.8-.5-.4-1.1,0-2.2.2-3.3Z"/>
    <path class="st4" d="M88.8,225c2.1.2,4.5-.4,6.3.9,0,1-.2,1.9-.3,2.9-2-.2-4.1-.2-6-.8,0-1,0-2,0-3Z"/>
    <path class="st4" d="M185.9,225.1c2-.3,4.1-.5,6.2-.5.2,1,.3,2.1.4,3.1-2.1.4-4.3.5-6.4.6,0-1.1-.2-2.1-.2-3.2Z"/>
    <path class="st4" d="M99.5,229.2c.1-1.2-.6-3.3,1.2-3.3,3.7.5,7.4.5,11,1.4.4,1,0,2.2,0,3.2-4.1-.4-8.1-.9-12.2-1.3Z"/>
    <path class="st4" d="M174.5,225.8c1.7-.2,3.5-.3,5.2-.5.3.1.9.5,1.2.6,0,.9,0,1.9,0,2.8-2,0-4.3,1-6.2.1-.2-1-.1-2-.1-3Z"/>
    <path class="st4" d="M161.1,227.3c2.6-.4,5.3-.7,8-1,.2.6.5,1.2.7,1.8-.2.6-.4,1.1-.6,1.7-2.4.2-4.8.6-7.3.9,0,.4.2,1.3.3,1.8-.5-1.7-.9-3.4-1.1-5.1Z"/>
  </g>
  <g>
    <path class="st10" d="M326.2,338.7c9.4-7.1,20.5-12.1,32.1-13.7,6.3-.8,12.9,1,17.6,5.4,7.5,6.1,11.1,15.8,12.1,25.2.8,6.2.6,12.5.7,18.8,3.8,11.1,2.9,23.2.2,34.5-.4,2.2-1.7,4.2-1.6,6.4,0,5.8-2.5,11.4-5.8,16.1-.4,2.2-.1,4.4-.1,6.6.5,9.6,1.5,19.2,2.1,28.8.5,4.2.2,8.4-1,12.4-3,8.9-10.4,16.2-19.5,18.9-7.5,2.2-15.8,2-23-1.2-8.8-3.8-14.9-12.6-16.6-21.9-4.6-21.3-9-42.6-13.3-63.9-2.5-13.7-6.5-27.6-4.3-41.6,2.1-12.6,10.3-23.4,20.4-30.9Z"/>
    <path class="st10" d="M426.2,326.8c5-2.5,10.8-2.3,16.1-1.2,13.1,2.8,25.3,9.5,34.9,18.9,4.6,4.9,8.9,10.4,11.2,16.8,3.7,9.1,3.5,19.3,2,28.9-2.2,13.7-5.3,27.2-7.9,40.8-2.6,12.3-5.1,24.7-7.8,37-1.2,5.2-1.8,10.6-4.3,15.4-3.2,6.3-8.6,11.8-15.3,14.3-9.8,3.7-21.5,2.3-30.1-3.7-5.6-4.2-10-10.2-11.5-17.1-1.4-6.4,0-12.9.3-19.4.6-6.8,1.1-13.7,1.5-20.5,0-2,.2-4-.4-6-2.5-3.3-4.1-7.2-5.1-11.1-.7-2.6,0-5.4-1.1-8-2.5-7.2-3.5-14.8-3.4-22.3,0-4.7.6-9.5,2.4-13.9.2-.6.3-1.2.3-1.9-.3-8.1,0-16.2,1.6-24.1,2.1-9.5,7.7-18.6,16.7-22.8Z"/>
    <path class="st1" d="M339.9,340.1c6.1-3.1,12.7-5.4,19.5-6.4,4.5-.7,9.3.9,12.4,4.3,6.5,6.2,8,15.6,8.5,24.2-1.5-1.7-3.4-3.1-5.3-4.4-3.5-2.1-7.5-3.7-11.6-3.8.3-2,.6-4,.5-6.1-.2-.3-.7-.9-.9-1.1-2.3-1-5.1-1.4-7.3,0-1,2.8-1.1,5.7-1.8,8.6-11.7,2.8-22.5,9.8-29.3,19.8-5,7.3-8,15.9-8.5,24.7-1.8-10.9-4.5-22.2-1.1-33.1,3.9-12,13.9-21,24.9-26.6Z"/>
    <path class="st1" d="M422.4,340.6c3.2-4.6,8.7-7.8,14.4-6.9,11.5,1.6,22.5,6.6,31.4,14,7.3,6.2,13.3,14.7,14.6,24.4,1.5,9.4-1.1,18.8-2.2,28.1-1-11.8-5.9-23.5-14.4-31.9-6.5-6.5-14.9-11-23.8-13.1-.7-2.8-.6-5.8-1.6-8.6-2.4-1.2-5.6-1.1-7.7.6-1.3,2,0,4.5-.2,6.7-6.4.3-12.1,3.9-16.7,8.1.7-7.4,1.6-15.3,6.2-21.4Z"/>
    <path class="st2" d="M362.8,358.5c3.4.6,6.8,1.5,9.6,3.6,4.8,3.4,8.8,7.9,11.3,13.1,1.5,3.8,1.9,8,2.3,12,.3,5.7.3,11.4-.7,17-1-6.8-4.6-12.9-8.9-18.1-4.8-6-10.2-11.4-16-16.3,2.3-3.3,2.3-7.5,2.4-11.4Z"/>
    <path class="st2" d="M413.3,374.2c4.3-7.6,11.4-14.4,20.3-15.7.4,3.8.2,8,2.6,11.2-5.4,4.7-10.7,9.6-15.1,15.2-4.8,5.6-8.9,12.1-10.1,19.5-.5-5.3-1-10.7-.5-16,.2-4.8.8-9.8,2.7-14.3Z"/>
    <path class="st2" d="M330.9,375c5.4-7.1,13.7-11.3,22-14.1-.7,4.5-1.5,9-1.9,13.6-2.7,2.3-5,4.9-7.4,7.4-5.1,5.6-10.1,11.5-13.3,18.4-3,7-4.5,14.9-2.6,22.4.8,2.9,1.4,6.5,4.4,7.9,1.5,4.6,3.1,9.2,3,14.1-.2,1.1,0,2.8-1.4,3.3-1.9,0-3.2-1.8-4.1-3.3-3.8-7.5-6.8-15.4-8.8-23.5-.8-3.4-.8-7-.8-10.5.4-12.5,3.5-25.3,10.8-35.7Z"/>
    <path class="st2" d="M443.5,360.9c7.8,2.4,15.6,6.3,21.1,12.6,9.8,12.8,13.1,29.6,11.6,45.4-1.6,8.5-4.8,16.6-8.5,24.4-1,2.1-2.5,4.6-5.2,4.7-1.5-2.2-.9-5.1-.8-7.6.6-3.3,1.6-6.5,2.7-9.7,3.3-2,4-6,4.6-9.5,1.8-9.4-1.1-19.2-6.4-27.1-4.9-7.4-11.3-13.6-17.4-20-.4-4.4-1.2-8.8-1.9-13.2Z"/>
    <path class="st1" d="M356.7,376.1c1.7-1.5,3.5.4,4.8,1.6,6.8,6.6,12.8,14.1,17.6,22.3-.6,3.1-.7,6.4-2.4,9.1-2.8,4.5-7.1,7.9-11.7,10.5-1.7,1-3.9,1.5-5.1,3.3-.3,1.1,0,2.3,0,3.4,1.2,5.7,2.2,11.3,3.4,17,3.2,2.8,7.2,0,9.9-2.2.6,9.6,1.4,19.1,2,28.7.5,6.5-3,13-8.2,16.8-8.9,6.7-22.9,5.7-30.3-2.8-2.3-2.4-3.8-5.5-4.6-8.7-1.7-6.9-3-13.9-4.6-20.9-.3-1.4-.6-2.7-.6-4.1,1.9,1.9,4.7,3.2,7.4,2.9,1.7-.2,2.8-1.7,3.5-3.1,1.5-3.1,1.5-6.7,1-10-.6-3.8-1.5-7.9-4.1-10.9-3-3.4-3.8-8.2-3.4-12.5.7-6.1,2.3-12.1,5.5-17.3,5.4-8.6,12.4-16.1,19.8-23Z"/>
    <path class="st1" d="M436.6,376.5c1-1.1,2.8-1.2,3.8,0,6.3,6,12.3,12.5,17.4,19.6,4.9,6.9,7.6,15.4,7.4,23.8-.3,2.8-.8,5.9-2.7,8.2-4,4.4-5.2,10.7-5.1,16.5,0,3.1,1.3,6.4,4,8.1,3,.9,6.3-.6,8.5-2.6-1.1,6.6-2.8,13.1-4.1,19.7-.9,3.9-1.4,8.2-3.9,11.6-3.1,4.8-8.3,8.2-13.9,9.2-9.9,2.2-21.4-3-25.3-12.6-1.6-3.9-1.5-8.1-1-12.2.5-8.2,1.3-16.3,1.7-24.5,2.1,1.2,4.1,2.9,6.5,3.3,1.2.2,2.2-.5,3.2-1.1,1.5-6.2,2.7-12.5,3.7-18.8.5-2-1.3-3.3-2.9-4-5.7-2.7-11-6.6-14.2-12.1-1.4-2.8-1.8-6-2-9,5.3-8.4,11.4-16.4,19-23Z"/>
    <path class="st2" d="M381.2,408.7c1,5.7-.5,11.5-2.8,16.7-2.6,5.4-6.2,10.5-11.3,13.7-.9-4.9-2-9.7-2.9-14.5,3.6-1.6,6.7-4.2,9.7-6.7,2.8-2.7,5.7-5.6,7.4-9.2Z"/>
    <path class="st2" d="M415.1,408.7c4.2,6.7,10.1,12.3,17.2,15.9-.8,4.9-2,9.7-2.9,14.6-9.5-6.8-15.4-18.8-14.3-30.5Z"/>
  </g>
</svg>