<?xml version="1.0" encoding="UTF-8"?>
<svg id="Layer_1" xmlns="http://www.w3.org/2000/svg" version="1.1" xmlns:xlink="http://www.w3.org/1999/xlink" viewBox="0 0 512 512">
  <!-- Generator: Adobe Illustrator 29.4.0, SVG Export Plug-In . SVG Version: 2.1.0 Build 152)  -->
  <defs>
    <style>
      .st0 {
        fill: #8ddcbc;
        stroke: #8ddcbc;
      }

      .st0, .st1, .st2, .st3, .st4, .st5, .st6, .st7, .st8, .st9, .st10, .st11, .st12, .st13, .st14, .st15, .st16, .st17, .st18, .st19, .st20, .st21, .st22, .st23, .st24, .st25, .st26, .st27, .st28, .st29, .st30, .st31, .st32, .st33, .st34, .st35, .st36, .st37, .st38, .st39, .st40, .st41, .st42, .st43, .st44, .st45, .st46, .st47, .st48, .st49, .st50, .st51, .st52, .st53, .st54 {
        stroke-width: .1px;
      }

      .st1 {
        fill: #96e1bf;
        stroke: #96e1bf;
      }

      .st2 {
        fill: #a0e8ca;
        stroke: #a0e8ca;
      }

      .st3 {
        fill: #9ce8c4;
        stroke: #9ce8c4;
      }

      .st4 {
        fill: #a5dec5;
        stroke: #a5dec5;
      }

      .st5 {
        fill: #adefe6;
        stroke: #adefe6;
      }

      .st6 {
        fill: #95dfc1;
        stroke: #95dfc1;
      }

      .st7 {
        fill: #8dc4d1;
        stroke: #8dc4d1;
      }

      .st8 {
        stroke: #2bb8a0;
      }

      .st8, .st24, .st38, .st39, .st54 {
        fill: #32cd85;
      }

      .st9 {
        fill: #ade0d9;
        stroke: #ade0d9;
      }

      .st10 {
        fill: #91e9c0;
        stroke: #91e9c0;
      }

      .st55, .st56, .st57 {
        display: none;
        stroke-width: .2px;
      }

      .st55, .st58 {
        stroke: #fd6ea0;
      }

      .st55, .st58, .st59, .st60, .st57 {
        fill: #fd6ea0;
      }

      .st11 {
        fill: #a6f8dc;
        stroke: #a6f8dc;
      }

      .st56 {
        fill: #feb5d4;
      }

      .st56, .st57 {
        stroke: #feb5d4;
      }

      .st58, .st59, .st60 {
        stroke-width: 0px;
      }

      .st12 {
        fill: #a8eed5;
        stroke: #a8eed5;
      }

      .st13 {
        fill: #90c1ca;
        stroke: #90c1ca;
      }

      .st14 {
        fill: #87bac3;
        stroke: #87bac3;
      }

      .st15 {
        fill: #a5d7c3;
        stroke: #a5d7c3;
      }

      .st16 {
        fill: #9fe3cf;
        stroke: #9fe3cf;
      }

      .st17 {
        fill: #97e9c3;
        stroke: #97e9c3;
      }

      .st59 {
        stroke: #fff;
      }

      .st18 {
        fill: #95e2c2;
        stroke: #95e2c2;
      }

      .st19 {
        fill: #a4ede1;
        stroke: #a4ede1;
      }

      .st20 {
        fill: #99e3cb;
        stroke: #99e3cb;
      }

      .st21 {
        fill: #a2e2ce;
        stroke: #a2e2ce;
      }

      .st22 {
        fill: #94d7c7;
        stroke: #94d7c7;
      }

      .st23 {
        fill: #9cd7bf;
        stroke: #9cd7bf;
      }

      .st24 {
        stroke: #1a859a;
      }

      .st25 {
        fill: #a9e7ca;
        stroke: #a9e7ca;
      }

      .st26 {
        fill: #a8f8d5;
        stroke: #a8f8d5;
      }

      .st27 {
        fill: #9ee8c7;
        stroke: #9ee8c7;
      }

      .st28 {
        fill: #8ed4bf;
        stroke: #8ed4bf;
      }

      .st29 {
        fill: #a9f2d3;
        stroke: #a9f2d3;
      }

      .st30 {
        fill: #9ae0ca;
        stroke: #9ae0ca;
      }

      .st31 {
        fill: #9be5c7;
        stroke: #9be5c7;
      }

      .st61 {
        fill: #73dcfc;
        stroke: #73dcfc;
        stroke-width: .1px;
      }

      .st32 {
        fill: #97f0c9;
        stroke: #97f0c9;
      }

      .st33 {
        fill: #aeeee3;
        stroke: #aeeee3;
      }

      .st34 {
        fill: #90dfc9;
        stroke: #90dfc9;
      }

      .st60 {
        stroke: url(#linear-gradient);
      }

      .st60, .st62, .st41 {
        stroke-miterlimit: 10;
      }

      .st35 {
        fill: #7bd2ab;
        stroke: #7bd2ab;
      }

      .st36 {
        fill: #a5e6c7;
        stroke: #a5e6c7;
      }

      .st37 {
        fill: #9de2c4;
        stroke: #9de2c4;
      }

      .st38 {
        stroke: #6adba8;
      }

      .st39 {
        stroke: #2c9097;
      }

      .st40 {
        fill: #83c1d6;
        stroke: #83c1d6;
      }

      .st62 {
        fill: url(#linear-gradient3);
        stroke: url(#linear-gradient4);
        stroke-width: .1px;
      }

      .st41 {
        fill: url(#linear-gradient1);
        stroke: url(#linear-gradient2);
      }

      .st42 {
        fill: #a2e1d7;
        stroke: #a2e1d7;
      }

      .st43 {
        fill: #aee2cc;
        stroke: #aee2cc;
      }

      .st44 {
        fill: #c1f6dd;
        stroke: #c1f6dd;
      }

      .st45 {
        fill: #aaeed4;
        stroke: #aaeed4;
      }

      .st63 {
        fill: #fc444e;
        stroke: #fc444e;
        stroke-width: .1px;
      }

      .st46 {
        fill: #8fd7cb;
        stroke: #8fd7cb;
      }

      .st47 {
        fill: #9de4c4;
        stroke: #9de4c4;
      }

      .st48 {
        fill: #81b8c2;
        stroke: #81b8c2;
      }

      .st49 {
        fill: #91e3c2;
        stroke: #91e3c2;
      }

      .st50 {
        fill: #9eefca;
        stroke: #9eefca;
      }

      .st51 {
        fill: #a9e7cb;
        stroke: #a9e7cb;
      }

      .st52 {
        fill: #73b0bf;
        stroke: #73b0bf;
      }

      .st53 {
        fill: #96c2cc;
        stroke: #96c2cc;
      }

      .st54 {
        stroke: #32cd85;
      }
    </style>
    <linearGradient id="linear-gradient" x1="-42.1" y1="789.1" x2="-41.7" y2="789.1" gradientTransform="translate(-239061.2 222887.4) rotate(45.9) scale(412.1 -414.1) skewX(4.2)" gradientUnits="userSpaceOnUse">
      <stop offset="0" stop-color="#fd6ea0"/>
      <stop offset=".2" stop-color="#fd6ea0"/>
      <stop offset=".5" stop-color="#fd6ea0"/>
      <stop offset=".8" stop-color="#fd6ea0"/>
    </linearGradient>
    <linearGradient id="linear-gradient1" x1="-42.1" y1="788.7" x2="-41.6" y2="788.7" gradientTransform="translate(-247118.9 200503.8) rotate(55.9) scale(406.7 -401.8) skewX(-1.8)" gradientUnits="userSpaceOnUse">
      <stop offset="0" stop-color="#32cd85"/>
      <stop offset="0" stop-color="#32cd85"/>
      <stop offset=".2" stop-color="#32cd85"/>
      <stop offset=".2" stop-color="#32cd85"/>
      <stop offset=".3" stop-color="#32cd85"/>
      <stop offset=".4" stop-color="#32cd85"/>
      <stop offset=".5" stop-color="#32cd85"/>
      <stop offset=".6" stop-color="#32cd85"/>
      <stop offset=".7" stop-color="#32cd85"/>
      <stop offset=".8" stop-color="#32cd85"/>
      <stop offset=".8" stop-color="#32cd85"/>
      <stop offset=".9" stop-color="#32cd85"/>
    </linearGradient>
    <linearGradient id="linear-gradient2" x1="-42.1" y1="788.7" x2="-41.6" y2="788.7" xlink:href="#linear-gradient1"/>
    <linearGradient id="linear-gradient3" x1="-43" y1="789.3" x2="-42.5" y2="789.3" gradientTransform="translate(87533.2 359121.9) rotate(-11.3) scale(454.5 -467.8) skewX(.7)" gradientUnits="userSpaceOnUse">
      <stop offset="0" stop-color="#f4763c"/>
      <stop offset=".2" stop-color="#f4763c"/>
      <stop offset=".5" stop-color="#f4763c"/>
      <stop offset=".8" stop-color="#f4763c"/>
    </linearGradient>
    <linearGradient id="linear-gradient4" x1="-43" y1="789.3" x2="-42.5" y2="789.3" xlink:href="#linear-gradient3"/>
  </defs>
  <path class="st56" d="M327.2,56.4c7.8-3.1,16.1-6,24.6-5,2.9,0,4.3,2.9,6.4,4.5,3.6.6,7.4.4,11,1-8.4-.3-16.9-.7-25.2,1.3-12.8,3.2-24.8,8.9-35.8,16.1-12.3,7.3-22.5,17.5-33.2,26.9,1.1-2.1,2.5-4.1,4.2-5.9,4.4-4.6,7.8-10.1,12.8-14.2,3.6-3,7-6.3,10.4-9.6,7-6.8,16.2-10.7,24.8-15Z"/>
  <path class="st55" d="M344.1,58.2c8.2-2,16.8-1.6,25.2-1.3,10.8.6,20.8,4.9,30.4,9.4,6.1,4.2,12.3,8.2,18.4,12.6,5,3.7,10.8,6.4,15.3,10.8,5.3,5.1,9.4,11.3,14.6,16.4.2.3.6.8.8,1.1,3.9,7.4,8.8,14.4,11.9,22.2,4,9.9,7.4,20.3,7.8,31.1.6,16.9,1.7,33.8-.3,50.6-.8,6.7-1.1,13.5-3,20-2,6.8-4.5,13.4-7.2,19.9-3.2,7-6.6,13.9-10.1,20.8-6.6,11.8-13.4,23.6-22,34.1-3.2,3.8-5.6,8.3-9.6,11.4-8.6,5.8-14.1,14.9-21,22.6.7.8,1.3,1.5,2,2.3-3,3.4-5.9,6.9-9.1,10-5.1,4.3-9.4,9.3-14.4,13.7-6.2,5.4-11.6,11.7-17.9,17.1-4.3,3.7-8.2,7.9-12,12.1-4.5,4.9-9.8,8.9-14.9,13.1-6.6,5.9-13.5,11.4-20.9,16.1-12,7.9-23.5,16.6-35.9,23.9-3,1.7-5.8,3.6-8.6,5.6-3.8,3.3-8.4-.7-12.4-1.5-7.9-1.9-14.9-6-21.5-10.5-12.8-8.1-24.8-17.3-37.1-26-6.7-6.3-14-11.9-21.1-17.8-11.7-10.3-22.9-21.1-33.7-32.3-3.2-3.5-7.2-6.1-10.4-9.5-7.8-9.8-16.8-18.6-24.5-28.5-5.4-7-11.2-13.5-16.5-20.6-6.4-9.2-12.6-18.6-19-27.9-2.6-5-5.4-10-8.1-14.9-9.4-19.1-14.5-40.1-16.8-61.2-1.2-9.6-2.1-19.4-1.3-29,1.7-13.4,3.5-26.9,8.3-39.6,3.6-9.3,9.2-17.7,15.3-25.5,9.1-12.8,21.4-23,34.5-31.5,8-5.2,17.3-8.2,25-13.9,11.6-3.2,23.9-3.7,35.8-2.4,5.1,1.8,10,4.2,15.1,5.8,7.6,2.3,14.5,6.3,21.8,9.4,5.5,3.1,11.7,5.6,15.7,10.7-4-1.6-7.8-3.7-11.7-5.7,5.3,4.8,11.6,8.3,17.1,12.8,6.1,4.9,11.3,10.7,16.8,16.2,4.4,4.6,9.2,9,12.5,14.5,2,3.3,4,6.6,6.3,9.7.5-1.2,1-2.5,1.5-3.8,4.4-11.1,11.5-21,19.9-29.4,10.7-9.4,20.9-19.6,33.2-26.9,11-7.1,23-12.9,35.8-16.1Z"/>
  <path class="st57" d="M121.9,76.6c10.6-4.3,22.7-5,33.8-2.2,9,1.3,17.1,5.6,25.7,8.1,4.3,1.4,8.3,3.6,12.1,6,4.7,2.9,8.1,7.1,12.1,10.9,4.4,4.3,9.5,7.8,13.1,12.8,8.5,12.1,21.4,20.3,28.8,33.2.4,3.4-1.5,6.6-1.9,9.9-.6,5-2.6,9.9-1.8,15,4.6-4,8-9.1,11.4-14.2,2.5,3.7,4.1,8.1,7.4,11.2,3.2,1.6,5-2.6,5-5.2-.6-4.8-3.9-8.8-5.2-13.4-.6-2.6,1.1-5,2.2-7.2,5.5-9.6,10.9-19.4,18.3-27.6,3.1-3.5,8-4.4,11.1-7.9,3.7-4,7.1-8.3,11.7-11.2,5.1-3.1,10.4-6,16.1-7.9,5.6-2,10.9-4.6,16.5-6.4,7.1-2.3,14-5.4,21.6-5.7,8.1-1,16,1.5,23.8,3.6,10.4,3.1,20.9,6.6,29.6,13.3,10,8.2,20.1,16.9,26.5,28.5,5.6,10.9,10.8,22.2,12.7,34.4,3.1,13.6,2.3,27.6,2.3,41.4-.7,10.2-1.5,20.5-4.5,30.3-3.6,9.8-7.5,19.6-12,29.1-5.9,10.6-11.2,21.6-18.6,31.3-3,3.8-5.7,7.7-8.4,11.6-4.3,6.3-10,11.6-13.7,18.4-5.1,7.1-10.8,13.8-16.6,20.3-5.5,6.5-10.5,13.4-17.1,18.8-4.2,3.4-7.4,8-11.4,11.6-9.2,8.4-18.3,17.1-28.2,24.9-4,3.4-8.4,6.2-12,10.1-4.5,4.9-10.5,8.3-16,12-6,3.6-11.3,8.2-17.2,11.8-5.5,3.5-11.7,5.7-17.5,8.4-5.6,2.7-12,.6-17.2-2.1-8.7-4.9-17.9-8.8-25.8-15.1-11.8-7.6-22.9-16.3-33.3-25.8-4.3-4.1-9.6-7-13.6-11.4-4.6-4.8-9.6-9.1-14.4-13.6-8.8-9.1-18.3-17.7-26.3-27.6-4.5-5.8-10.2-10.5-14.8-16.3-3-3.5-4.7-7.8-7.5-11.4-3.9-4.9-6.6-10.6-10.6-15.4-1.9-2-2.8-5.4-5.8-6-2.7-3.2-5.1-6.7-7.1-10.4.7,0,2,.1,2.7.2-3.4-7.1-7.4-13.8-10.7-21-1.8-4.1-4.9-7.5-7.9-10.8.3,1.5.5,3,.8,4.6-1.4-1.4-2.8-2.8-4.2-4.2-.2-.2-.6-.6-.8-.9.8-.6,1.5-1.1,2.3-1.7-1.3-7.3-4-14.2-5.8-21.4-1.7-7.3-4.5-14.4-5.2-21.9-2.8-19.1-2.5-39.1,4.2-57.4,4.7-9.8,9.2-19.6,15.3-28.6,10.3-14,24.1-25.1,38.7-34.2,8.2-4.3,17.7-4.5,26.4-7.4-6.5-.3-12.9,1.4-19.3,2.2Z"/>
  <path class="st55" d="M138.4,84.2c3.8-.4,7.6-1.9,11.4-1.3,2.9.6,2.9,4.4,1.5,6.4-3.2,1-6.7,1.6-10.1,1.2-6.9-1.8-13.9.7-20.7,2-4.3.8-7.9,3.3-11.4,5.7-5.4,3.6-12,5.6-16.2,10.9-5.6,6.8-10.4,14.4-13.4,22.7-1.3,0-2.7,0-4-.2-2.2-2.9-.2-6.7,1.5-9.3,5.5-7.7,11.4-15.3,19.1-21,5.3-4.1,10.8-8.1,16.8-11.3,8-3.6,16.8-4.7,25.5-5.7Z"/>
  <path class="st55" d="M120.6,92.4c6.8-1.3,13.8-3.8,20.7-2-.2,2.2.4,4.8-1.3,6.6-1.8,2.1-4.5,3.1-7.2,3.5-4.8.6-9.7,1.2-14.3,3-4.1,1.5-6.6,5.4-10.4,7.5-7.1,3.9-13.4,9.4-17.9,16.2-5.7,9.3-10.1,19.4-13.2,29.9-1.1,5.1-2.6,10.2-5.2,14.8-1.3,0-2.6-.1-3.8-.1,1-14,7-27,11.4-40.1,3-8.3,7.8-15.9,13.4-22.7,4.2-5.2,10.8-7.3,16.2-10.9,3.5-2.4,7.2-4.8,11.4-5.7Z"/>
  <path class="st56" d="M37.1,198c1.4-8.1,2.5-16.1,3.9-24.2-.8,9.7,0,19.4,1.3,29,2.3,21.1,7.4,42.1,16.8,61.2,2.7,5,5.5,9.9,8.1,14.9-11.4-7.9-17.2-21.1-22.7-33.3-6-15-9.9-31.4-7.4-47.6Z"/>
  <g>
    <path class="st58" d="M220,182.1c3.8.1,7.5,1.4,11.1,2.5,3.9,1.5,7.5,3.7,10.6,6.5,2.9,2.9,5.8,5.9,8.1,9.3,2,2.8,3.4,6,6.2,8.1-.2.5-.4,1-.6,1.4-.9-1.2-1.6-2.4-2.4-3.7-1.3-2.1-3.1-3.8-4.7-5.5-2.1-2.1-4.1-4.3-6.4-6.1-2.1-1.7-4.5-3.1-6.5-4.9,1.5.7,2.9,1.5,4.4,2.1-1.5-1.9-3.9-2.9-6-4.1-2.8-1.1-5.4-2.7-8.3-3.6-2-.6-3.8-1.5-5.7-2.2Z"/>
    <path class="st58" d="M310.9,184.1c6.3,1.2,11.9,5.1,15.6,10.2,1.1,1.5,2.3,3,2.8,4.8-2-1.9-3.5-4.3-5.5-6.2-1.7-1.7-3.9-2.7-5.8-4.1-2.3-1.7-4.6-3.2-7-4.8Z"/>
    <path class="st58" d="M293.4,192.2c5.7-1.7,11.9-1.3,17.4.8,2.2,1.1,4.3,2.4,6.1,4.1,2.4,2.5,4.9,4.9,6.4,8,.5.9.5,2.1-.3,2.8-1.4.6-2.5-.5-3.2-1.6-1.6-2.4-3.6-4.5-5.8-6.3-3.4-2.6-7.6-3.9-11.7-4.7-3.2-.3-6.4.4-9.5.1-.3-1.1-.7-2.8.7-3.3Z"/>
    <path class="st58" d="M184.3,253.1c.5.5,1.1,1.1,1.6,1.6,0-.6-.2-1.2-.3-1.7,1.1,1.3,2.3,2.5,3,4.1,1.2,2.7,2.7,5.3,4,8-.3,0-.8,0-1,0,.7,1.4,1.7,2.7,2.7,4,.4.6.7,1.4,1,2.1-2.2-1.9-3.4-4.5-5-6.9-2.2-3.6-4.7-7-6-11.1Z"/>
    <path class="st58" d="M304.7,275.2c.3-.9,1.4-1,2.2-1.1.3.8.5,1.7,0,2.4-2,2.9-4.4,5.4-6.7,8.1-2.9,3.6-5.7,7.4-9.1,10.7-1,.9-1.5,2.1-2.4,3-.6,0-1.2,0-1.8,0-.1-.5-.3-1.1-.4-1.6,2.9-3.9,6.3-7.4,9.7-10.8,1.9-1.9,3.5-4.1,5.2-6.2,1.4-1.3,2.6-2.8,3.5-4.5Z"/>
    <path class="st59" d="M295.5,284.5c2-1.9,3.2-4.6,5.8-5.7,0,.2,0,.6,0,.9-1.6,2.1-3.2,4.3-5.2,6.2-3.4,3.4-6.8,6.9-9.7,10.8-2.6,2.9-5.5,5.6-8.6,7.9-.4-.2-.8-.4-1.2-.6.1-.5.3-1,.7-1.4,2.2-2.4,5-4.1,7.2-6.4,1.8-1.8,3.6-3.4,5.4-5.2,2-2,3.6-4.5,5.7-6.5Z"/>
    <path class="st58" d="M256.4,316.9c2.2-2.1,4-5,7.1-5.8.2.8.3,1.7-.4,2.3-2.3,2.2-5.1,3.9-6.6,6.8-.5-.1-.9-.3-1.4-.4,0-1.1.3-2.2,1.2-2.8Z"/>
    <path id="path-3_1" class="st60" d="M289.8,181c3.1-.8,6.4-.6,9.5-.5,4.1.2,7.9,1.9,11.6,3.6,2.3,1.6,4.7,3.1,7,4.8,1.9,1.4,4.1,2.4,5.8,4.1,2,1.9,3.6,4.3,5.5,6.2,0,.1.2.3.3.4,1.5,2.8,3.3,5.4,4.5,8.4,1.5,3.8,2.8,7.7,2.9,11.8.2,6.4.6,12.8-.1,19.2-.3,2.5-.4,5.1-1.1,7.6-.8,2.6-1.7,5.1-2.7,7.5-1.2,2.7-2.5,5.3-3.8,7.9-2.5,4.5-5.1,8.9-8.3,12.9-1.2,1.4-2.1,3.1-3.6,4.3-3.3,2.2-5.4,5.7-8,8.6.3.3.5.6.8.9-1.1,1.3-2.2,2.6-3.5,3.8-1.9,1.6-3.6,3.5-5.4,5.2-2.4,2.1-4.4,4.4-6.8,6.5-1.6,1.4-3.1,3-4.5,4.6-1.7,1.8-3.7,3.4-5.7,5-2.5,2.2-5.1,4.3-7.9,6.1-4.6,3-8.9,6.3-13.6,9.1-1.1.6-2.2,1.4-3.3,2.1-1.4,1.3-3.2-.3-4.7-.6-3-.7-5.7-2.3-8.2-4-4.9-3.1-9.4-6.6-14.1-9.9-2.5-2.4-5.3-4.5-8-6.7-4.4-3.9-8.7-8-12.8-12.2-1.2-1.3-2.7-2.3-3.9-3.6-3-3.7-6.4-7.1-9.3-10.8-2-2.6-4.3-5.1-6.2-7.8-2.4-3.5-4.8-7.1-7.2-10.6-1-1.9-2-3.8-3.1-5.7-3.6-7.2-5.5-15.2-6.4-23.2-.5-3.7-.8-7.3-.5-11,.6-5.1,1.3-10.2,3.2-15,1.4-3.5,3.5-6.7,5.8-9.7,3.4-4.9,8.1-8.7,13.1-11.9,3.1-2,6.6-3.1,9.5-5.3,4.4-1.2,9.1-1.4,13.6-.9,1.9.7,3.8,1.6,5.7,2.2,2.9.9,5.5,2.4,8.3,3.6,2.1,1.2,4.4,2.1,6,4.1-1.5-.6-3-1.4-4.4-2.1,2,1.8,4.4,3.2,6.5,4.9,2.3,1.9,4.3,4.1,6.4,6.1,1.7,1.7,3.5,3.4,4.7,5.5.8,1.2,1.5,2.5,2.4,3.7.2-.5.4-1,.6-1.4,1.7-4.2,4.4-8,7.5-11.2,4.1-3.5,7.9-7.4,12.6-10.2,4.2-2.7,8.7-4.9,13.6-6.1h0Z"/>
  </g>
  <g>
    <path class="st30" d="M129,296.9c.7-.7,2.5-.4,2.3.8-.8-.2-1.5-.5-2.3-.8Z"/>
    <path class="st54" d="M97.6,300.1c1.8-.8,2.6-3.9,5.1-2.7,2.1,1.6,4.4,2.9,6.6,4.3.6.1,1.9.3,2.6.5.8.8,2.1,1.5,2.2,2.8-1,1.2-1.3,3.2-2.8,3.9.1-1.8-1.6-4.1-2.5-1.5.2-2.4-1.4-1-1.7.4-2.5-2.3-4.4,1.6-5.6,3.5-1.5,3.4-5.5,4.4-7.7,7.3-2,2.5-4,5.4-7.3,6.2-2.4.6-4.1,4.1-6.8,2-3.3.9-.9-3.2-3.3-2.8,1-1,.8-3-.5-3.7-6.5,4.2-11.4,10.3-17.4,15.2,3.2-4.2,7.3-7.5,10.8-11.3,0-.4-.1-.8-.2-1.3.7,0,1.7.8,2-.5,5.5-5.2,10.9-10.4,16.7-15.2,3.2-2.5,5.8-5.9,9.8-7.2Z"/>
    <path class="st20" d="M121.2,301c.3-1.3,2.6-1.1,3.6-2.2-.6,1.6-1.9,2.5-3.6,2.2Z"/>
    <path class="st48" d="M109.3,301.7c.6-.6,2.6-.6,2.6.5-.6-.1-1.9-.3-2.6-.5Z"/>
    <path class="st28" d="M117.9,303c0-1.5,1.5-1.9,1.9-.3-.5,1.2-1.2,1.7-1.9.3Z"/>
    <path class="st16" d="M136.6,303.1c1.6.8-.5,5,1.3,6.8.4.4,1.3,2.5.4,2.1-2.2-2.5-1.7-5.8-1.7-8.9Z"/>
    <path class="st21" d="M114.9,305.4c.4-1.1,1.2-2.7,2.5-1.4-.5.9-1.6,3.3-2.5,1.4Z"/>
    <path class="st8" d="M140.5,318.6c2.5-1.8,2.4-7.5,6.1-6.7,2,0,3.7,1.2,5.6,1.7.9-.2,1.3-1.6,2.3-1.3.6.9,1.2,2.1,2.5,2-.5,2.6,0,5.2,2.4,6.7.6,1,1.4,1.9,2.6,2.3.2,1.6.5,3.2.4,4.8-.4,1.4-.7,2.9-1.6,4.1-2.6.7-4.5,3.8-7.4,2.9-4.4-1.5-6.4,5.8-10.7,5.1-2.4-1.4-3.1,1.1-4.5,2.2,1.7-4.8,7.5-8.8,5.1-14.8-2.1-3.9-6.9-2.3-10.4-2.3,0-1.5.6-3,1.9-3.9,1-.4,2-1.1,2.9-1.7.6,0,.9-.4,1.3-.7.1,2.2,1.1,1,1.6-.3Z"/>
    <path class="st46" d="M157,314.2c.2,1.4.9,4.8,2.4,6.7-2.3-1.6-2.8-4.1-2.4-6.7Z"/>
    <path class="st9" d="M138.9,318.9c0-1.6,1.6-2.6,1.6-.3-.6,1.3-1.5,2.6-1.6.3Z"/>
    <path class="st53" d="M60.9,318.9c-.8-1.6,3.5-1.1,3.2-.5-1.1.1-2.1.3-3.2.5Z"/>
    <path class="st33" d="M134.7,321.3c.3-1.2.8-2.3,1.3-3.4.8.4,2.2.5,1.6,1.7-.9.6-1.9,1.2-2.9,1.7Z"/>
    <path class="st54" d="M58.4,335.5c6-4.8,10.8-11,17.4-15.2,1.3.6,1.5,2.7.5,3.7,2.4-.4,0,3.6,3.3,2.8,2.7,2.1,4.4-1.5,6.8-2-3.6,4.5-7.6,8.5-11.5,12.7-2.3,1.7-4.4,3.7-6.8,5.2-1.1-2.7-4.1-3.8-6.4-1.9-1.8-1.4,0-4.2,1-5.8-7.8,3.4-12.3,11.6-18.9,16.6,4.3-5.8,9.6-10.7,14.5-15.9Z"/>
    <path class="st42" d="M162,323.3c1.9.1,1.4,4.1.4,4.8,0-1.6-.1-3.2-.4-4.8Z"/>
    <path class="st47" d="M176.8,325.7c2-1.1,7.1-3.6,7.7-.4-1.3-.4-2.8-.4-4.2-.1-1.2.2-2.3.4-3.5.5Z"/>
    <path class="st51" d="M186.8,325.6c0-.8,1-1.4,1.8-1.4-.9,2.4-1.9,6.1.5,7.9-.4.5-.8.9-1.2,1.4.7-2.9-1-.5-2-2.1,1.4-1.6,1.4-3.9.9-5.8Z"/>
    <path class="st54" d="M176.8,325.7c1.2,0,2.3-.3,3.5-.5-2,1.7-6.1,1.1-6.9,3.9,1.7-.5,3.2-1.4,5-1.5-4.2,2.2-8.6,4.3-13,6.1-.7-.9-1.5-1.7-2.4-2.3,3.6-2.5,9.1-4.5,13.8-5.7Z"/>
    <path class="st4" d="M189.5,331.6c.5-3.1,4.4-2.4,1.9-.1.2-1.7-1.2-.1-1.9.1Z"/>
    <path class="st38" d="M186.5,334.3c1.7-1.6-2.8-1.2-.7-2.9,1,1.7,2.7-.8,2,2.1-.2,1.2-2.5,2.9-1.3.8Z"/>
    <path class="st54" d="M191.5,333.5c1,.3.9,1.2.3,1.9-1.1,2.2-2.1,4.4-3.7,6.2-2,0-2.6,3.1-4.1,4.1,1.8-4.4,5.5-7.8,7.4-12.2Z"/>
    <path class="st54" d="M188.2,341.5c1.5-1.9,2.6-4.1,3.7-6.2-.3,1.8.5,1.4,1.5.5.6,2.1-.7,3.9-1.9,5.4,0-.7,0-1.4-.1-2.1-1.9,2.2-3.5,4.8-5.6,6.9l-.2-.5c.8-1.4,1.7-2.7,2.7-4Z"/>
    <path class="st54" d="M182.2,350.9c.7-2,2.1-3.7,3.4-5.4l.2.5c-.9,1.8-2.1,3.4-3.5,4.8Z"/>
    <path class="st27" d="M182.5,355.1c.9-2.1,2.3-3.9,3.6-5.7.4,2.4-1.8,4.6-3.6,5.7Z"/>
    <path class="st0" d="M175.4,364.8c.6-.7,1.2-1.3,1.8-1.9,0,1.5,1.3.7,2.2.6,0,1-1.1,1.3-1.7,1.9-.3-1.1-1.5-.5-2.3-.6Z"/>
    <path class="st50" d="M181.3,368.3c.8-.3,1.7.8,1.7,1.5-.9,0-1.5-.6-1.7-1.5Z"/>
    <path class="st36" d="M183,369.8c2-1.2,2.5,0,2.1,1.9-.3-1-1-1.7-2.1-1.9Z"/>
    <path class="st17" d="M184.7,374.2c.8.1.8,2.2,0,2.2,0-.7,0-1.5,0-2.2Z"/>
    <path class="st52" d="M13.4,382.3c-.6-.2-1.3-5.2,0-5.4,0,1.8,0,3.6,0,5.4Z"/>
    <path class="st29" d="M183.6,382.2c.5-.6.9-1.3,1.4-1.9.4.2,1.7,1.2.8,1.3-.8,0-1.5.3-2.2.6Z"/>
    <path class="st54" d="M173,388.1c.3-.3.6-.7,1-1-1.4,3.3-3.9,6.1-4.9,9.7-7.5,13.7-18.6,24.9-27.7,37.5-7.1,10.1-15.9,18.8-22.6,29.2-1.1,1.6-.9,4.2-2.9,5,.3-2.1,1-4.1,2-5.9,6.1-9.5,14.2-17.4,20.7-26.7,8.8-12.4,19.5-23.4,27.6-36.3,2.6-3.7,3.1-8.7,6.8-11.6Z"/>
    <path class="st13" d="M17.7,388.1c1.5,0,3,.2,4.5.3-1.2-.3-4,1-4.5-.3Z"/>
    <path class="st40" d="M22.6,388.3c.9-.6,1.4.6.7,1.2-.2-.3-.5-.9-.7-1.2Z"/>
    <path class="st11" d="M186.6,391c1.2.1-.1,3.5,1.3,3.8-.2.1-.6.4-.8.5-1.5.9-2.5,2.5-3.9,3.6.4-3.1,4.6-4.3,3.5-7.8Z"/>
    <path class="st19" d="M189.1,394c.7-1.4,2.6-2.7,4.3-3-.1,2.5-2.4,2.7-4.3,3Z"/>
    <path class="st24" d="M29.5,391.4c2,.7,3.9,2.1,6.1,1.2.1.3.4.8.6,1-2,3.3-4.3,6.5-6.6,9.7-1.7,1.4.7-2.7-1.1-1.5-1.7,2-3,4.5-3.7,7,.6-.2,2.2-1.5,1.5,0-2.1,5.1-.5,11.9,4.5,14.6,1.9-1.5,2.2,0,2.5,1.8-3.1,2.6-6.6-1.1-9.7-2.9-4.4-4.3-4.1-11.4-1.7-16.9,0-.7.2-2.1.3-2.8,2.2-3.9,4.4-8,7.4-11.4Z"/>
    <path class="st14" d="M22.6,392.3c.4-.3.8-.4,1.3-.4.6.9-1.1,1.5-1.3.4Z"/>
    <path class="st7" d="M21.9,405.5c-.6-.7-.8-2.6.3-2.8,0,.7-.2,2.1-.3,2.8Z"/>
    <path class="st39" d="M38.8,425.2c.8-1.3,5.4-5.1,4.7-1.9-.6.8-3.1,5.2-3,2.6.3-1.3-.9-.6-1.7-.6Z"/>
    <path class="st22" d="M43.8,423.5c.6.9.5,2.3,2.1,1.5-.5,1-.9,2.1-1,3.3l-.4.5c.1-1.8-.2-2.4-1.6-1.1,0-1.5,1.2-2.7,1-4.3Z"/>
    <path class="st34" d="M34.7,425.6c1.2-.7,1.7.6,1.4,1.6-.7-.1-.8-1.2-1.4-1.6Z"/>
    <path class="st18" d="M40.8,434.7c.6-.2,1.1-.4,1.7-.6-1.8,3.6-3.6,7.2-5.8,10.6-.3-2.5,2.9-4.2,2-6.7.7-1.1,1.2-2.5,2.2-3.3Z"/>
    <path class="st37" d="M34.8,448.5c-.6-.6,0-2.1.9-1.8,0,.7-.4,1.3-.9,1.8Z"/>
    <path class="st43" d="M35,451.2c-.2,2.6-2.3-2.2-.2-2.6,0,.9,0,1.8.2,2.6Z"/>
    <path class="st26" d="M35.7,450.5c.7-.7,1.5-1.3,2.3-1.9-.2.9-.4,1.9-.6,2.8-.5-.3-.9-1-1.8-.9Z"/>
    <path class="st35" d="M37.5,452.9c1.1,1.3.8,3.3,1.4,4.9-1.9-.9-1.3-3.1-1.4-4.9Z"/>
    <path class="st32" d="M55.4,457.6c.8-1.5,1.5.3.7,1.1-.2-.3-.5-.8-.7-1.1Z"/>
    <path class="st1" d="M41,459.6c1.3.2,2.7.4,3.9,1-1.2,0-3.4.2-3.9-1Z"/>
    <path class="st25" d="M46.3,461.2c1.5,0,2.9.3,4.4,0-.7,2.2-3.2.3-4.4,0Z"/>
    <path class="st44" d="M55,466.5c-1.9.6-1.4-3.4-.5-3.3-1.7,4,4.2,1.7,2,6.2-1.8.3.7-3.5-1.5-2.9Z"/>
    <path class="st23" d="M80,466.4c0-1.6,2.4-1,2.9.1-.5,1.3-.6,3.9-2.4,3.9.5-1.7,3-5.5-.5-4Z"/>
    <path class="st3" d="M73.8,471.4c.8-1.1,1.7-2.8,3.3-2.1-.5,1-2.3,1.3-3.3,2.1Z"/>
    <path class="st10" d="M61.8,473.5c.6,0,1.7,0,2.3.1-.5.7-1.8.5-2.3-.1Z"/>
    <path class="st12" d="M115,480c-.7-.7-1.2-5.8,0-6.7,0,2.2,0,4.4,0,6.7Z"/>
    <path class="st49" d="M81.5,480.7c1.8-2.8,1.7,2.6.7,3.8.1-1.4-.1-2.7-.7-3.8Z"/>
    <path class="st6" d="M78.8,483.1c.8-.9,1.6-1.9,2.7-2.4,0,1.4-2.6,4.8-2.7,2.4Z"/>
    <path class="st2" d="M82.2,490.5c-.9.4-1.7-4.4-.7-3.7.2,1.2.4,2.5.7,3.7Z"/>
    <path class="st5" d="M139.2,490.1c1.5-1.7,3.6,0,5.3.5-1,.7-3.8.3-5.3-.5Z"/>
    <path class="st15" d="M83.4,495.9c-1.7.6-.6-2.5.1-2.9,0,.2.3.7.4.9.2.7-.3,1.3-.5,1.9Z"/>
    <path class="st45" d="M83.9,494c1.4-1.7,1.5-.3,1.4,1.2-.2,1-1.2-.8-1.4-1.2Z"/>
    <path class="st31" d="M88.9,493.5c.9.5,1.4,1.6,2.4,2-1.6.4-2.7-.4-2.4-2Z"/>
    <path id="path-14_1" class="st41" d="M60.9,318.9c1-.2,2.1-.4,3.2-.5.9,2.2,3.5,3.1,5,4.5.1.4.2.8.2,1.3-3.5,3.9-7.7,7.2-10.8,11.3-5,5.2-10.3,10.2-14.5,15.9,6.6-5,11.1-13.2,18.9-16.6-1.1,1.6-2.9,4.5-1,5.8,2.3-1.9,5.3-.8,6.4,1.9,2.4-1.5,4.5-3.5,6.8-5.2,3.8-4.2,7.9-8.2,11.5-12.7,3.3-.8,5.3-3.7,7.3-6.2,2.2-2.9,6.2-3.9,7.7-7.3,1.1-1.9,3.1-5.8,5.6-3.5.3-1.4,1.9-2.7,1.7-.4.9-2.6,2.6-.3,2.5,1.5,1.5-.7,1.8-2.7,2.8-3.9.2.1.6.4.8.5.8,1.9,2-.5,2.5-1.4.1-.2.4-.7.5-1,.7,1.3,1.4.8,1.9-.3.5-.5.7-1.4,1.4-1.7,1.6.2,3-.7,3.6-2.2.6-1.4,1.6-2.1,1.4,0,.9-.8,1.3-2.7,2.8-1.8.7.3,1.5.6,2.3.8,2.2,1.3,4.8,2.8,5.4,5.5,0,3.1-.5,6.4,1.7,8.9-.8,2-1.5,4-2.3,5.9-.6,1.1-1,2.2-1.3,3.4-1.2.9-1.9,2.3-1.9,3.9,3.5,0,8.3-1.6,10.4,2.3,2.4,6-3.4,10-5.1,14.8,1.5-1.1,2.1-3.6,4.5-2.2,4.3.7,6.3-6.6,10.7-5.1,2.9.9,4.8-2.1,7.4-2.9.8,0,1.5-.4,2.3-.7.9.7,1.8,1.4,2.4,2.3,4.3-1.8,8.8-3.9,13-6.1-1.8,0-3.3,1-5,1.5.8-2.7,4.9-2.1,6.9-3.9,1.4-.3,2.8-.3,4.2.1.7.8,1.5.9,2.3.3.5,2,.4,4.2-.9,5.8-2.1,1.7,2.3,1.3.7,2.9-1.2,2.1,1.1.4,1.3-.8.4-.5.8-1,1.2-1.4.1-.1.4-.4.5-.5.7-.3,2.1-1.8,1.9-.1,0,.6,0,1.3,0,1.9-1.9,4.3-5.5,7.8-7.4,12.2,1.5-1,2.1-4.2,4.1-4.1-1,1.3-1.9,2.6-2.7,4-1.2,1.7-2.7,3.3-3.4,5.4,1.4-1.4,2.6-3.1,3.5-4.8,2.1-2.1,3.7-4.7,5.6-6.9,0,.7,0,1.4.1,2.1-1.8,2.7-3.3,5.6-5.4,8.1-1.3,1.8-2.7,3.7-3.6,5.7-1.7,2.6-3.2,5.5-5.3,7.8-.6.6-1.2,1.2-1.8,1.9.8,0,2-.5,2.3.6.4,2.1,3.1.9,3.6,3,.2.8.7,1.5,1.7,1.5,1,.2,1.8.9,2.1,1.9,0,.8-.3,1.6-.4,2.4-.2.7-.1,1.5,0,2.2-.6,1.7,2,2.5.3,3.9-.5.6-.9,1.3-1.4,1.9.7-.2,1.5-.5,2.2-.6-1.1,1.4-2.4,2.6-3.4,4.1.2,2.5,4.1,2.8,4.2,5.2,1.2,3.5-3.1,4.7-3.5,7.8,1.4-1.1,2.4-2.7,3.9-3.6.2-.1.6-.4.8-.5.4-.2.8-.5,1.2-.7,1.9-.3,4.2-.5,4.3-3,.3-3.5,4.8-5.1,6.4-1.6,4,.7,7,4.3,5.4,8.7-1.2,5.3-3.6,10.4-5.8,15.4-.1,3.9-1.5,8.5-5.4,10.2-8.2,17.2-19.2,33.1-31.4,47.8-4.3,5.5-9.5,10.2-13.6,15.9-.9,1.5-2.1,4.8-4.4,3.3-1.6-.5-3.8-2.3-5.3-.5-.8,1-1.6,2.5-3,1.6-2.1-.8-1,3.6-3.1,2.6-.3-1-1.5-2-1.8-.4-3.7-.4-6.4-3.6-6.9-7.3-.3,0-.8,0-1.1,0-4.6,2-6.5-3.7-8.2-6.8,0-2.2,0-4.4,0-6.7.2-1.3.8-2.6.7-4-5.3,7-10.6,14.1-16.1,20.9-1.1,3.5-4.5,5.8-8.2,5.3-1-.4-1.5-1.5-2.4-2-1.5-.3-2.6.8-3.6,1.7.1-1.5,0-2.9-1.4-1.2,0-.2-.3-.7-.4-.9-.3-.9-.9-1.7-1.3-2.5-.3-1.2-.5-2.5-.7-3.7,0-.8.4-1.6.7-2.3,1-1.2,1.1-6.6-.7-3.8-1.1.5-1.9,1.6-2.7,2.4,1.3-6.5,5.7-12.1,7.2-18.6-.7.4-1.7,1.5-1.6,0-.5.6-.9,1.3-1.4,1.9-.5-1.1-2.9-1.7-2.9-.1-.5,1.2-1.5,2.2-2.7,2.6l-.2.3c-1.6-.8-2.5,1-3.3,2.1-1.5,1.2-3.5,4.3-5.7,2.7-1.3-.5-3.4,1.9-4.1-.5-.6,0-1.7,0-2.3-.1-2.5.8-4.3-2.4-5.3-4.1,2.2-4.5-3.7-2.2-2-6.2.5-1.5,1-3,1.7-4.5.7-.8.1-2.6-.7-1.1-1.4,1.4-3.2,2.5-4.8,3.6-1.5.3-2.9,0-4.4,0-.5-.1-.9-.3-1.3-.5-1.2-.6-2.6-.8-3.9-1-.9-.1-2-.7-2-1.8-.6-1.6-.3-3.6-1.4-4.9-.6-.4-.1-1.1,0-1.6.2-.9.4-1.9.6-2.8-.8.6-1.6,1.2-2.3,1.9-.2.2-.5.5-.7.7-.2-.9-.2-1.7-.2-2.6.5-.5.8-1.1.9-1.8.2-.7.6-1.3,1-2,2.2-3.4,4-7,5.8-10.6-.6.2-1.1.4-1.7.6,1-2.1,2.3-4,3.6-5.9l.4-.5c.1-1.2.5-2.3,1-3.3-1.6.7-1.4-.6-2.1-1.5l-.3-.2c.7-3.2-3.9.7-4.7,1.9-.6.8-2.1,3.7-2.7,2,.3-1-.2-2.3-1.4-1.6-.6.4-1.1.3-1.4-.3-.2-1.8-.6-3.3-2.5-1.8-5-2.7-6.6-9.5-4.5-14.6.7-1.5-.8-.2-1.5,0,.7-2.6,1.9-5,3.7-7,1.8-1.2-.6,2.9,1.1,1.5,2.3-3.2,4.6-6.4,6.6-9.7-.1-.3-.4-.8-.6-1-2.2.9-4.1-.6-6.1-1.2-1.4-.4-1.6-1.9-2.4-2.9-1,1.3-2.1,2.4-3.3,3.4-.5,0-.9.2-1.3.4-2,1.6,0-2,.7-2.8.8-.6.3-1.8-.7-1.2h-.3c-1.5,0-3-.2-4.5-.3-2.4-.6-4.2-3.3-4.4-5.8,0-1.8,0-3.6,0-5.4,10.6-18.9,24.2-36.5,39.5-51.9,2.3-2.6,6-3.1,7.9-6.2h0ZM173,388.1c-3.7,2.9-4.2,7.9-6.8,11.6-8.1,12.9-18.8,23.9-27.6,36.3-6.5,9.2-14.6,17.2-20.7,26.7-1,1.8-1.8,3.8-2,5.9,1.9-.8,1.8-3.5,2.9-5,6.7-10.4,15.5-19.1,22.6-29.2,9.1-12.6,20.3-23.8,27.7-37.5,1-3.6,3.5-6.4,4.9-9.7-.3.3-.6.7-1,1h0ZM55.5,359.5c2.6-3.4,5.4-6.6,7.8-10.1-2.4,3.5-5.3,6.7-7.8,10.1ZM63.3,349.5c-5.7,3.8-8.1,12-15,14,6.9-2,9.3-10.2,15-14ZM48.3,363.4c-.2-3-3.3-5.4-1.8-8.4-1.5,3,1.6,5.4,1.8,8.4ZM46.5,355c.9-1.8-1.9-2.1-2.8-.9.8-1.3,3.7-.9,2.8.9ZM34.4,365.2c-.4.9-1.5,1.2-2.3,1.6.9-.4,1.9-.7,2.3-1.6ZM32.1,366.7c-2.3,3.1-4.7,6.3-6.8,9.6,2.1-3.3,4.4-6.4,6.8-9.6Z"/>
  </g>
  <path class="st63" d="M424.1,20.8c7.3-.1,14.7-.4,22,.5,1,.2,2.7-.1,2.8,1.3,1.2.3,2.4.5,3.6.8,0,.8,0,1.5.1,2.3.4,0,1.3.1,1.7.2-.3,0-.8.3-1,.4,1.4,2.2,0,4.8-1.3,6.6,1.3,1.1,0,2.4-.8,3.3.3,0,.8.2,1.1.3-.4,0-1.1,0-1.5,0,.5.6,1,1.1,1.6,1.6,0,.1.2.4.3.5-2.2,1.1-4.3,2.3-6.6,3.2,2.1.2,4.2-.3,6.4-.3-1.1.4-2.3.8-3.4,1.1-4.8,1.9-9.1,4.8-13.9,6.8-5.5,2.3-11.1,4.7-16.5,7.2-3.1,1.5-6.2,3-9,5.1,0,.3,0,.9,0,1.2,1.2.6,2.3,1.3,3.7,1.3,3.6.2,7.2,0,10.8-.4,13.5-1.1,27-1.8,40.5-1.6,9.5,0,18.9.7,28.3,2,1.8.2,3.4,1.1,5,1.9-.6.1-1.3.2-1.9.3.3.6.5,1.1.8,1.7-.3,0-.9-.2-1.3-.2,0,.5.1,1,.2,1.5.2.2.7.5.9.7-.2.2-.5.6-.6.8,1.4,0,2.8.3,4.1.9-.2.2-.6.7-.8,1,.5.1,1.6.3,2.1.4-1.2.5-2.4.9-3.6,1.2.3.7.7,1.3,1.1,1.9-.3.1-.9.3-1.2.4.6.2,1.2.5,1.8.8-2.3,1.4-5.2.6-7.6,1.4,3.2.3,6.5-.5,9.6.4-4.3.4-8.6.5-12.8,1.5-5.1.8-10.1,1.9-15.1,3.1-.1,1.4.4,2.5,2,2.5-.4,0-1.2.2-1.6.3-.9.1-1.8.2-2.7.4,3.5.4,7,.3,10.4,0h.1c7-.5,14.1-.5,21,.9-2.9.7-5.9,1-8.9,1.6,1.6.1,3.3-.3,4.8.5,0,.1,0,.3,0,.4-2.1.6-4.2.5-6.3,1,3,.2,6,.1,8.9.5,1.8.4,3.7.6,5.5.9-.8.6-1.7,1.1-2.7,1.1-.6.1-1.5,0-1.8.7,1.2-.9,2.8-.2,4.1-.1v.7c-1.2,0-2.4,0-3.4.6,1.1.1,2.2.2,3.3.2.2.4.5.8.7,1.3-2.9,0-5.9.6-8.8.7-.2.2-.5.6-.7.8-7.6.8-15.3,1.7-22.9,3-14.9,2.5-29.7,5.7-44,10.5-5.4,1.8-10.7,3.9-15.6,6.8-1,.6-1.8,1.5-2.5,2.4,1.7.7,3.4,1.4,5.2,1.4,8,.2,15.9-.8,23.9-.3,4.1.4,8.2,0,12.2.8,3.6.3,7,1.4,10.6,1.5-.6.4-1.1.8-1.7,1.2,1.2.1,2.5.1,2.4,1.7-.4,0-1.1,0-1.5,0,.2.1.6.3.8.4,0,.6,0,1.3-.1,1.9,1,0,1.9,0,2.9,0,0,.8,0,1.6.1,2.4-.2,0-.5.3-.7.4.2,0,.7.2.9.3l.6.2c0,.3,0,.8.1,1.1-.4,0-1.1,0-1.5,0-.1.5-.2,1-.3,1.6.6.1,1.2.3,1.8.4,0,.2,0,.6,0,.8-1,.4-1.9.9-2.7,1.5.4,0,1.2.2,1.6.3-1,.6-2.1,1.1-2.6,2.3-.7.3-1.3.7-2,.9-4,.7-7.9,1.4-11.8,2.5,3.8.1,7.5-.5,11.3-.6,2.3-.2,4.6-.3,6.9-.4,2.8,0,5.5-.6,8.3-.6.6,0,1.2.2,1.7.5-4.8,1-9.6,1.6-14.4,2.5,3.1.2,6.3-.3,9.4-.4.5.3,1,.6,1.4.9-1.8.6-3.7.9-5.5,1.3,2,.2,4.1-.5,6.1,0-.7.6-1.5,1.1-2.3,1.6.9-.1,1.7-.5,2.5-.8,1.8,1.1,4.1-.3,6.1.3-3.7,1-7.6,1.4-11.3,2.6,3.1,0,6.2-.3,9.2.2-6.7,1.1-13.4,2-20,3.2-.6.1-1.2.3-1.7.6,4.1-.2,8.1-1,12.2-1,.2.4.5.9.7,1.3-6.4.9-12.7,2.3-19,3.3-3.8.7-7.6,1-11.2,2.2,4.9.1,9.6-1.7,14.4-1.6-.6.5-1.2.9-1.8,1.2,1.3,0,2.6,0,3.9,0-.3.3-1,.8-1.3,1,1.5.3,3.2,0,4.6.9-2.6.6-5.2,1.2-7.9,1.6,0,.3.1,1,.1,1.3-2.1.5-4.3.7-6.3,1.4,4,.2,7.9-1.4,11.9-1.3-.4.3-1.3.8-1.7,1.1.4.2,1.1.5,1.5.6-.3.3-.6.6-.9.9-10.1,2-20.2,4.1-30.2,6.6-18.6,4.5-37.5,7.4-56.1,11.8-7.5,1.9-15,3.8-22.4,6v-1c-1.3,0-2.7.3-4.1.6.6-.8,1.3-1.6,2-2.3-.7,0-1.3.2-2,.3.7-.8,1.4-1.6,2.1-2.4-1.2.1-2.3.3-3.5.5.4-.6.8-1.3,1.2-1.9-1,0-2.1,0-3.1-.1.6-.6,1.2-1.2,1.8-1.7-.3,0-1,0-1.3-.1.3-.5.8-1,.8-1.6-.6-.6-1.7-.2-2.4-.4,6.3-3.4,13-5.9,19.5-9,0-.2,0-.5,0-.7,0-.3,0-1,0-1.3-1.2-.4-2.4-.7-3.7-.7-5.5.7-11,1.7-16.5,2.8-2.7.4-5.9.3-8-1.6-1.6-.8-3.4-.9-5.2-.7-1.5.2-2.8-.6-4.1-1.1,0-.6,0-1.2,0-1.8-.2,0-.6,0-.8,0,.4-.7.9-1.4,1.3-2.1-.4-.7-1.1-1.2-1.7-1.8.1-.4.4-1.1.5-1.5-.2-.8-.4-1.5-.5-2.3-.2,0-.7,0-.9,0,0-.3.2-1,.2-1.4-.3-.2-1-.5-1.3-.6,0-.2-.3-.7-.4-.9-.3-.2-.9-.6-1.2-.8-.4,0-1.1,0-1.4,0,.5-.9,1-1.7,1.6-2.6-.3,0-.8-.3-1-.4,0-1.1,0-2.1,0-3.2-.4-.3-.8-.5-1.2-.8,4.6-3.9,9.7-7.2,14.8-10.4,4.9-2.8,9.6-5.7,14.5-8.4,6.2-3.4,12.5-6.5,18.5-10.1,0-.7-.2-1.3-.3-2-1.6-.6-3.3-.6-5-.6-11.4.5-22.8,1.9-34.1,3.5-1.3.2-2.5.2-3.8.2l.2.5c-2.4.2-4.8.9-7.2,1.1-4.3.1-8.4,1.5-12.7,1.6,0-.3.3-.8.4-1-.5-.4-1.1-.8-1.6-1.2.3-.7.6-1.4.8-2.1-1.3-.2-2.6-.2-3.9-.2.3-2.2,2.1-3.6,3.5-5.1-1.5,0-3,.1-4.6,0-.2-.9-.5-1.9-.6-2.8-.8.2-1.6.5-2.4.7-.8-2,0-4,0-6.1,8.2-4.5,17.1-7.6,26-10.6.4-1,.4-2.1.6-3.2-.7-.2-1.4-.3-2.1-.4.2-1-.7-1-1.4-1.1,0-.3,0-.8,0-1.1-.2-.2-.6-.6-.8-.8.5-.7,1-1.4,1.4-2.2-.6.1-1.7.3-2.3.5,0-.9.1-1.8.2-2.8-.9-.5-1.3-1.2-1-2.2-.3,0-1,0-1.3,0,.5-.6,1-1.3.3-1.9.3-.4.7-.8,1-1.1,0-.7,0-1.3-.1-2-.2-.4-.4-.7-.7-1.1.3-.2.9-.5,1.1-.7,0-.7,0-1.5,0-2.2,3.7-2.7,7.8-4.6,11.9-6.5,3.1-1.6,6.3-3.1,9.4-4.7,1.6-.8,2.4-2.5,3.8-3.6.9-.8,2.1-1.5,2.6-2.7.1-.7-.4-1.7-1.2-1.7-2.6-.3-5.2-.2-7.8.4-3.3.7-6.6,1.4-9.8,2.4-1.3.4-2.7.8-4.1.7-.8-.6-1.5-1.3-2.3-2-.8,0-1.6.2-2.3.2,0-1.1,0-2.2,0-3.3-.9.2-1.9.5-2.8.6,0-.6,0-1.3,0-1.9-.4,0-.8.2-1.3.3,0-.4.2-1.2.3-1.7-.3,0-1,0-1.3,0,.5-1,1-2,1.5-3-.8,0-1.6,0-2.4.1.6-.5,1.4-1,2-1.5-.9,0-1.8,0-2.7,0,.3-1.3.6-2.6.9-3.9-.4,0-1.1,0-1.5,0,.8-1.8,3-2,4.5-2.8,9.9-4.5,20.3-7.8,31-9.8,4.5-.7,9-1.5,13.5-2.4,5.7-1.1,11.5-1.9,17.2-3,10.6-1.4,21.3-2.4,32-3.3,6.5-.5,13.1-.6,19.6-1.1Z"/>
  <path class="st61" d="M405.9,298.9c2-.3,4.1-1,6,0,.9.6,1.8,1.5,1.7,2.6,0,2.2-1.2,4.2-2,6.2-.9,1.8.8,3.7-.2,5.5-1.1,2.2-3.2,3.7-4.7,5.5,8-4.8,16.3-9.3,25-12.6,4.2-1.6,8.3-3.4,12.6-4.5,1.3-.3,2.6-.5,3.9-.2,1,.9,1.6,2.2,2.5,3.2,1.8.5,4.2-1.3,5.6.5.2,1.2.2,2.4.3,3.5,2.7-.4,5.4-.9,8-.3,2.5.6,4.2,3.3,4,5.8-.5,2.4-2,4.4-2.9,6.6.8.6,1.9,1,2.5,1.9.8,2.9-1.6,5.3-2.2,8,1.7-.5,3.3-1.6,5.1-1.8,2,.2,3.2,2.4,3,4.3-.1,2.6.9,5.4-.3,8-1.4,3.4-3.7,6.5-4.5,10.1,4.9-1.7,9.7-4.6,15.1-4.5,1.8,0,2.2,2.4,1.8,3.7-1,2.9-3.3,5-4.9,7.5,1.3,1.4,2.8,2.7,4.4,3.9,1.1.6.7,2.1.5,3.1-.7,2.2-2,4.2-2.8,6.4,3.4-1,6.6-3,10.3-3,.7-.1,1.5.3,1.5,1.1,0,1.4-.8,2.6-1.3,3.9.6,1,1.5,1.9,1.4,3.2-.1,1.3-.4,2.6-.6,4,1.7-.2,4.1-1.2,5.3.6.7,2.4,0,5.1-1.4,7.2-2.8,4.1-6.8,7-9.9,10.8,2.1.3,4.1-.8,6.2-.4,2.1.8,2.1,3.6,1.3,5.3-2.6,4.6-7,7.8-10.7,11.4-4.3,3.8-8.8,7.4-13.2,11.2-3.8,3.2-8.2,5.5-11.5,9.2-5.6,6.3-11.9,11.9-18.4,17.2-5.7,4.7-12.1,8.3-18.5,11.9-6.2,3.2-12.5,6.1-18.6,9.3-1.4.7-2.7,1.6-4.3,1.5-2.5-.2-4.6,1.4-6.3,2.9-4.9,4.8-10.1,9.2-15.3,13.6-1.1,1-2.6,1.5-4.1,1.8-.4-1.1-.7-2.3-1.1-3.4-3.9,2.9-8.3,5.1-13,6.3-2.5.8-5.2,1.3-7.9.8-.9-.4-1.6-1.3-1.6-2.3,0-1.8.1-3.7.2-5.5-2.3-.4-5.2-.7-6.5-2.9-.8-2-.5-4.2-.7-6.2-3.3-.3-5.3,3.2-8.5,3.3,0-2.1.1-4.1.4-6.2-1.7.2-3.5.7-5.2.6-1.6-.3-1.7-2.1-1.9-3.4-.5,0-.9,0-1.4,0-.4-3.5,1.4-6.8,3.4-9.6,1.8-2.4,3.6-4.9,5.3-7.4-2.3-.2-5-.8-6-3.1-.6-2.4.3-4.8.9-7-1.2-1.1-2.3-2.1-3.5-3.2-1.7,1-3.4,2.1-5.3,2.8-1.9.8-4,.3-6,.6-2.4.9-4.3,3.4-7.1,2.9-1.9-.4-3.8-1-5.5-2.1-1.1-1.2-.6-3-.8-4.4-2.4.1-4.8.8-7.1,0-1.7-1.2-1.5-3.9-3.4-4.9-1.4-1.4-3.6-.8-5.2-1.6-1.4-1.8.1-4,.9-5.8-1.2-1.5-3.3-3.1-2.4-5.3,2.1-5.3,5.6-9.8,9-14.3-.6-1.4-1.1-2.8-1.7-4.1-2.5,2-5,5.1-8.6,4.5-1.9-.9-3.5-2.5-4.9-4.1-.8-3.7,2.8-6.2,4.2-9.3,0-2.1-.8-4.4.3-6.4,1.6-3,4.1-5.3,6.2-7.9-.7-1.1-1.7-2.2-1.2-3.6.8-2.5,2-4.9,3.1-7.3,1.7-2.4,4.3-4.1,5.8-6.6,1.7-2.8,4.4-4.6,6.4-6.9,2.5-4.4,5.1-8.9,9.1-12.1,2.5-2.1,5.2-4.3,8.1-5.9,1.9-1.1,4.2-1.5,5.9-2.9,2.1-1.7,4.4-3.2,6.5-4.9,8.8-7.7,18.5-14.3,28.9-19.6,4.7-2.1,9-5,13.7-7.1,9.1-4.4,18.8-7.6,28.7-9.6Z"/>
  <path id="path-5_1" class="st62" d="M140.3,11.7c.9.7,2.1.9,3.2.9-.6.9-1.2,1.8-1.8,2.8.6.7,1.4,1.2,2.4.8-.1.4-.3.8-.4,1.2.9.5.4,1.5.4,2.3.8,0,1.5-.2,2.3-.3-.4.5-.7,1.1-1,1.6,1.6-.3,2.5-1.7,3.8-2.5,2.7-1.6,4.8-4.4,8.1-4.7,0,.7-.1,1.4-.2,2.1.2.1.6.4.8.6-.4.7-.9,1.3-1.3,2,2.6-1.5,4.2-4.5,7.1-5.6,0,.4,0,1.1,0,1.5.8-.7,1.6-1.5,2.2-2.4,1.7,1.3.6,3.3.6,5,.4,0,1.1.2,1.5.2,0,1-.1,1.9-.1,2.9-.1.5-.5,1-.7,1.5.4-.2.8-.5,1.2-.7.2,1,.9,2.3-.1,3.2.2.2.6.6.8.8-.2.3-.6.8-.8,1,2.2.2,2.9-2.9,5.1-2.8-.5,1.2-1.2,2.2-1.9,3.1.2-.2.7-.7.9-.9l.5.3c.4.5.7.9,1.1,1.4,0,.1.2.3.3.4.2,0,.5,0,.6,0,.6-.5,1.2-1,1.9-1.5.5,1.7-1.8,2.2-2.1,3.7,1.4-.8,2.5-2,3.5-3.2h.5c.1.1.3.2.4.2,0,.3,0,1,0,1.3.2,0,.7,0,.9,0-.3.6-.7,1.2,0,1.7-1,2.5-2.6,4.6-3.7,7.1.9-.4,1.7-.9,2.6-1.3,1.2.6,1.4,2,2,3.1,2.1-1.3,3.9-2.9,5.7-4.6,3.4-2.9,7.4-4.9,10.8-7.6,0,.2-.1.7-.2.9.4-.3.8-.6,1.3-.9,1.7,1,2.4,2.8,3.6,4.3.1.1.4.4.5.6l-.4.5c-.4.6-.9,1.1-1.3,1.7.2.1.5.3.7.4,0,.7,0,1.4,0,2.1.6-.2,1.2-.4,1.8-.6,0,.3-.1.9-.2,1.1-.6,1.5-1.2,3.1-.5,4.7-.6,1-1.2,1.9-1.9,2.9.7.7,1.4,1.4,2.1,2.2-.9.9-1.8,1.8-2.2,3-.8-.6-1.3-1.4-1.8-2.3-1,.7-1.9,1.3-2.9,2-.9,1.1-1.8,2.2-2.5,3.4-.1.3-.4.8-.5,1,1.4,1,2.8,2.1,4.1,3.1-.6,2-1.8,4-1.7,6.2.1,2.4-.5,4.7-1,7-.1,1-.8,1.8-1.5,2.5.5,0,1-.2,1.5-.3.1.3.4.8.5,1,.4,0,.9,0,1.3.1,0-2,.5-4.1,0-6.1.4-1,1.2-1.7,1.9-2.5-.4-.5-.9-.9-1.3-1.4.8-1.9.8-4,1.2-6,1.3-.5,2.7-.9,3.9-1.6,1.6-1.6,2.4-3.8,2.9-6-1,.6-1.9,1.2-2.8,1.9,1.1-2,3-3.5,3.8-5.7-.6.1-1.3.2-1.9.3,1.5-1,3-2,4.5-2.8-.3-.9-.6-1.9-.9-2.8-.5.5-1.1,1-1.6,1.5-.6,0-1.3.1-1.9.2.4-.8.9-1.7,1.6-2.4,0,.3,0,.8,0,1.1.8-.2,1.6-.5,2.5-.7.4.9.9,1.8,1.4,2.6-.6,1-1.6,1.7-2.5,2.5-.6.8-1,1.7-1.4,2.6,0,.9-.2,1.9.3,2.6.5.7,1.4,0,2,0,.5,1.6-.7,2.8-1.6,3.9-.5.6-.5,1.6.1,2.2-.4,1-.7,2.1-1,3.1.4,0,1.2,0,1.6,0-1.4,1.8-3.1,3.5-3.5,5.8.7-.2,1.4-.6,2-.9.4.3.9.6,1.3.9-.1.7-.3,1.3-.5,2,.5-.1.9-.2,1.4-.4,0,.4,0,.8.1,1.2,1-.7,2-1.3,3.2-1.7,0,.5,0,1,0,1.5.5.2,1,.3,1.5.5,0,.3.3.8.4,1,.8-.3,1.6-.7,2.4-.5-1.4,1.9-1,4.5-2.1,6.6.3-.2.9-.5,1.2-.6,0,1.7-1.1,3.6.2,5.1.7.1,1.5.3,2.1.6-.5.8-.9,1.6-1.3,2.4,1.2-.3,2.5-.6,3.7-.9-.3,2.5-3.2,3-4.3,5-1.3,2.2-3.3,3.7-4.9,5.7-1,1.2-2.7,2-2.8,3.7,1.3-.7,2.4-1.7,3.8-2.4-1.6,2.5-4.3,4.2-5.3,7.1.2.6,1,.4,1.5.8-1.1,2.1-1.6,4.5-2.4,6.7.5,0,1,.1,1.5.2,0,2.1-2,3.3-2.6,5.2.7.5,1.4-.4,2.1-.6.6-.3.8.4,1.1.8-2.4,1.8-4.2,4.3-6.5,6.3-.2,2.3-2,4.1-3.6,5.6-1.9,1-3.7,2.2-5,3.9-1.2,1.6-3.2,2.4-4.3,4.1-.7,1.1-1.8,1.9-2.8,2.7-2.1,1.7-3.6,4-6.2,5-1.4,1.2-3.1,2.1-4.5,3.3-2.6,3.5-6.5,5.5-9.5,8.6-2,3.9-5.9,6.2-8.5,9.6-.8,1.3-2.5.1-3.5,1.1-2.5,2.1-4.8,4.5-7.5,6.4-2.6,1.7-4.6,4.1-7,6-3,3.5-7,6-10.2,9.2-1.8,1.6-3.3,3.5-5.2,4.9-1.2.8-1.7,2.3-2.7,3.3-1.1,1-2.4,1.7-3.5,2.7-2.9,2.8-5.5,5.9-8.2,8.9-1.4,1.7-2.2,3.9-4.1,5.1-.8.6-1.8.4-2.7.6-1.4.6-1.8,2.5-3.4,2.7-1.3.2-2.6,0-3.9.1-.4.5-.7,1-1.1,1.4-.6,0-1.1-.1-1.6-.2-1.4.2-2.7-.2-4-.6,0-.9,0-1.8,0-2.6-.2.3-.6.8-.9,1.1-.4-.2-.7-.5-1.1-.7-1.1,1.3-2,2.9-3.8,3.3-.6.9-1.3,1.7-2,2.6-.2-.1-.6-.4-.8-.5-1.2.4-2,1.4-2.5,2.5-.4,1.2-1.8,1.1-2.9,1.2-.7.7-1.3,1.5-1.9,2.3-.4,0-.9,0-1.3,0-.5.8-1.1,1.6-1.7,2.3-.6,0-1.2,0-1.8,0-.7.9-1.5,1.7-2.3,2.5-.1-.9-.2-1.9-.2-2.8-.4-.2-.9-.4-1.3-.6,0-.6,0-1.2-.5-1.7.3-.7.5-1.4.7-2.2-1,.3-1.8.9-2.5,1.5-.5-.3-1.1-.6-1.6-.9.2-.5.4-1,.6-1.5-.9-.8-2.1-.9-3.3-1,0-1.4.7-2.6,1.1-3.9-.5-.4-1.1-.9-1.6-1.3.9-1.3,1.8-2.6,2.6-3.9-.2-.1-.6-.3-.8-.5.4-.8.5-1.7.7-2.6,1.3-1.3,2.7-2.4,3.4-4.2-1.2.2-2.5.1-3.5.9-.7.4-1.6,1.5-2.5.7,0-1.5-1.7-.2-.6.5l.2.3c-1.4,1.5-3.3,2.5-4.3,4.3-.7,1.2-1.3,2.5-1.8,3.8-.5.1-1,.3-1.5.4,0,.2-.2.6-.3.8-.1-.3-.3-.6-.4-.9,1.2-.1,2.5-.9,2.4-2.3-.6.2-1.2.5-1.9.7-1.4-.3-3-.7-4.3.2.1-.5.3-1,.4-1.5-.9.6-1.9,1.1-2.9,1.6,1.3-1.7,3.2-3.2,3.3-5.5-.7-.3-1.4-.5-2.1-.8.1-1-.1-2-.7-2.8-.4-.1-.8-.2-1.3-.3.2-.2.6-.5.8-.7,0-.3-.3-1-.4-1.3-.5.2-1,.4-1.5.6.8-.8,1.8-1.6,2.4-2.6.4-1.2.5-2.4,1.2-3.4.7-1.1,1.9-1.6,2.8-2.6.8-1.3,1.2-2.7,2.2-3.9-.9,0-.7-1-.8-1.7-1.6,1.2-3.2,3.4-5.6,2.5.2-.5.3-1.1.5-1.6-.6,0-1.2,0-1.8,0-.3-.7-.6-1.3-.7-2.1.2-.9.8-1.7,1.2-2.6-.4,0-1.3-.1-1.8-.1.3-.8.7-1.6,1.2-2.3-.5,0-1,0-1.5,0-1.2,1-2.5,1.8-3.5,3-1.2.7-1.8-.9-2.3-1.7-.4.2-1.3.5-1.7.7.2-.6.4-1.2.6-1.9-.7-.8-1.5-1.6-2.1-2.5-.6,0-1.2,0-1.7.1,0-.2,0-.7,0-1-.3,0-.9,0-1.2,0,.7-1.1,1.1-2.4,1.6-3.6-.5.2-1.6.5-2.1.7.2-.4.7-1.2,1-1.6-.5,0-1.4.3-1.9.3.5-1.7,2.2-2.5,3.5-3.6l-.2-.7h-.9c1.3-1.1,2.3-2.4,3.4-3.7-.4,0-1.3,0-1.7,0,1.9-1.5,2.8-3.9,4.7-5.5,1.6-1.4,2.7-3.4,4.4-4.7-.2-.9-1.4-.5-2-.8-1.2,1.2-2.4,2.4-3.7,3.4.2-.4.5-1.3.7-1.7-.4.1-1.3.4-1.8.5.6-.4,1.2-.8,1.6-1.5-.9,0-1.8-.4-2.7-.5,0-.8,0-1.6,0-2.3-.8-.3-1.7-.5-2.5-.6.1-1.8,1.3-3.2,2.3-4.6-1.4-.2-2.5.5-3.3,1.7-.2-1.4.9-2.2,1.6-3.1,0-.3,0-.9,0-1.3,2-1.9,3.9-4,5.3-6.4-.5-.3-1.1-.7-1.6-1,.1-1-.2-2-1-2.7.1-.7.5-1.4.7-2.1-.3-.2-.7-.4-1-.6.6-.5,1.2-1,1.9-1.6,0-.2-.2-.5-.3-.7-.5-.3-1-.6-1.5-.9-2.1,1.2-3.2,3.4-5.1,4.8-.8.2-1.7.4-2.4.8,0-.2,0-.7,0-1-.3,0-.9.2-1.1.3,0-.4.3-1.2.3-1.6-1.1.7-2.1,1.5-2.8,2.5-.1-1-1-1-1.8-1.1-.4-.8-.8-1.6-1.2-2.3.5-.8,1-1.6,1.5-2.5,1.7,0,2.9-1.1,4.2-2-.4-.6-.7-1.2-1.1-1.7,2.2-1.8,3.8-4.3,6.1-6.1,0-.3.1-.9.2-1.2-1,.8-2,1.8-3.2,2.4.3-.5.6-.9.9-1.3l.3-.4c-.1-.5-.3-1.1-.5-1.6,2.4-2.9,5.2-5.4,7.8-8.2,1.6-1.8,3.5-3.4,4.7-5.5-1.7.4-2.6,2-3.8,3-2.2,2-4.1,4.3-6.3,6.2-1.9,1.6-3.7,3.4-5.3,5.4-1.1,1.4-2.4,2.7-3.5,4-2.3,2.6-4.7,5-7.2,7.4-.9.1-1.8.2-2.6.3.9-1.3,1.9-2.6,3.5-3.1,1.5-.6,1.6-2.4,2.4-3.5,1-.9,2.4-1.4,3.4-2.2.5-.7.7-1.5,1.1-2.3-.2,0-.7-.2-.9-.2,1.5-1.9,3.2-3.8,4.9-5.6v-.2c.3-1.6,1.4-2.8,1.9-4.3-1,.8-2,1.6-2.9,2.5-.4-.3-.8-.6-1.2-.9,1.4-1.7,3.1-3.2,4.4-5,2.1-2.2,4.4-4.4,6.4-6.7,2.1-1.8,3.6-4.2,5.5-6.2,1.9-2.2,4.2-4.2,5.9-6.6-.2,0-.6-.2-.7-.2l-.7-.4c.9-.9,1.8-1.9,2.6-2.9-1.7.7-2.8,2.3-4.2,3.4.9-1.5,2.2-2.6,3.4-3.8,3.1-3.1,6-6.4,9-9.5,2-1.8,3.5-3.9,5.5-5.8,1.1-1.1,2.1-2.2,3.1-3.3,0-.3-.2-.8-.2-1.1,3.5-3.3,6.5-7.2,10.1-10.4,1.6-1.4,2.6-3.4,4.3-4.6,0-.5.2-1.1.3-1.6,1.4-1.9,3-3.6,4.9-5.1.5,0,.9,0,1.4,0,.5.4,1.1.8,1.7,1.1-1.2,2.5-3,4.6-4.9,6.6-1.2,2-2.9,3.6-4.1,5.6,1.5-1.6,2.8-3.4,4.1-5.1.2,0,.7-.1,1-.2-.4-1.7,1.8-2.5,3.1-3,.4.4.9.8,1.3,1.2-.9,1-1.8,2-2.3,3.3.8-.3,1.5-.7,2.3-1-.6.8-1.2,1.6-1.9,2.3-1,1-.8,2.7-2,3.6-1.7,1.6-3.2,3.4-4.3,5.5-.5.7-.2,1.5-.3,2.2,2-.7,3-2.8,4.5-4.1,2.4-2.8,5.3-5.1,7.7-7.9-1,2.5-3.8,3.8-4.8,6.4,2.5-1.5,4.3-3.9,6.4-5.9,1.4-1.4,2.9-2.7,4.3-4.1,2.5-2.8,5.4-5.3,7.6-8.4-2.9,2.2-5.2,5.1-8.2,7.3l.2-1c5.1-4.7,9.8-9.8,14.7-14.7,1.8-1.4,3.4-2.9,4.9-4.6.2,0,.7,0,.9,0-.8.9-1.6,1.7-2.4,2.5-1.1,1.1-1.7,2.6-2.7,3.7-3.5,3.5-6.3,7.6-9.7,11.1-2.1,1.9-3.9,4-5.6,6.2.9-.3,1.5-1.3,2.5-1.2,0,.7.2,1.4.2,2.1-.8.7-1.5,1.5-2.2,2.3,1.2-.7,2.1-1.7,3.1-2.6,2.4-2.1,4.8-4.2,6.8-6.7,1.9-1.6,3.7-3.4,5.5-5.1,3.6-2.9,6.8-6.3,10.1-9.5,0,.4-.1,1.3-.2,1.7-1.3,1.4-3.1,2.4-3.9,4.2,2.3-1.3,4-3.5,6.1-5.2,1.6-1.2,3-2.6,4.5-3.8,1.9-1.5,3.4-3.5,5.3-5,2-1.7,4-3.4,5.9-5.2.4-.5,1.1-.7,1.7-.7.5-1,1.2-1.9,2-2.7h0ZM52.6,204.1c-1.6-2-.4-4.6-.2-6.9-1.5,1.5-3.6,1.6-5.4,2.3.4-.7.4-1.6.7-2.4.5-1.7,1.4-3.3,1.6-5.2-2.2,2.6-2.3,6.3-4.5,8.9,1.8.2,3.6.2,5.2-.8-.3.6-.6,1.1-.8,1.7.3.4.5.8.8,1.1-.3.3-.6.7-.9,1,.8.1,1.6.2,2.4.4,0,.4,0,.7,0,1.1.4,0,.7,0,1.1-.1,0,.6-.1,1.2-.2,1.8,1.1-.9,2-2,2.6-3.3-.8.2-1.6.3-2.4.5ZM51.2,189.8c-.7.2-1.5.3-2.2.5.5-1.2,1-2.4,1.7-3.4-1.1.7-2.4,1.4-3.7,1.1.5.7,1,1.4,1.5,2.1-.4.9-.7,1.8-1.1,2.7.8-.8,1.7-1.6,2.7-2,.4-.3.8-.7,1.2-1h0ZM48.9,184c.2-.7-.1-1.5-.2-2.2-1,.4-1.9,1-3,1.1-1,0-1.9-.3-2.8-.5.2-1.3.5-2.5,1-3.7-1.3-.2-2.7,0-3.6,1,.4.3.8.7,1.2,1,.4,0,.7,0,1.1-.1-.3.4-.5.9-.8,1.3.3.7.6,1.3,1,2,1.8-.5,3.6-.2,5.1,1.1,0,.3-.2.8-.3,1.1.5-.6,1.1-1.2,1.4-1.9h0ZM196.3,73.4c2-.5,3.5-1.9,5.4-2.7-1.9.8-3.4,2.2-5.4,2.7ZM201.7,70.7c0,.3.2.8.2,1,0-.3-.2-.8-.2-1ZM201.9,71.7c.6-.3,1.1-.6,1.7-.8-.6.3-1.1.6-1.7.8ZM203.6,70.9c0,.3.1.8.1,1,0-.3,0-.8-.1-1ZM207.1,77.1c-.8,1-1.6,1.9-2.4,2.8.8-.9,1.6-1.9,2.4-2.8ZM205.5,88c-1.3,2.1-2.9,4.1-4.1,6.2,1.3-2.1,2.8-4.1,4.1-6.2ZM201.3,94.2c-1.4,2.3-4,3.4-5.9,5.3,1.9-1.9,4.5-2.9,5.9-5.3ZM187.2,106.8c.6.8,1.4,1.4,2.3,2-.8-.6-1.6-1.2-2.3-2ZM189.4,108.9c-1.5,1.8-2.9,3.7-4.4,5.6,1.5-1.9,2.9-3.7,4.4-5.6ZM185,114.4c.4.5.7.9,1.1,1.4-.4-.5-.7-.9-1.1-1.4ZM186.1,115.8c-.5,1.2-.8,2.5-1.1,3.7.3-1.3.7-2.5,1.1-3.7ZM185,119.5c.6-.4,1.2-.8,1.8-1.2-.6.4-1.2.8-1.8,1.2ZM186.8,118.4c0,.2.2.5.3.7-.1-.2-.2-.5-.3-.7ZM182,127.5c-2.1,2.6-4.7,4.8-7.2,7,2.5-2.2,5.1-4.4,7.2-7ZM174.8,134.5c-2.3,2.7-4.9,5.2-7.2,7.9,2.3-2.7,4.9-5.2,7.2-7.9ZM167.6,142.4c-.9.3-1.9.3-2.6.9.7-.6,1.7-.7,2.6-.9ZM165,143.3c-.8,1-1.1,2.3-1.8,3.3.7-1,1-2.3,1.8-3.3ZM157,151.6c-1,.5-2.3.3-3.1,1.1.9-.8,2.1-.6,3.1-1.1ZM148,157.8c-1.2,1-1.8,2.5-2.8,3.8,1-1.2,1.6-2.7,2.8-3.8ZM136.5,168.1c-.2,0-.6-.3-.8-.3.2,0,.6.3.8.3ZM135.7,167.7c-1.8,1.7-3.3,3.7-4.6,5.7,1.4-2,2.8-4,4.6-5.7ZM122.8,181.5c-.6.7-1.4.1-2.1,0,.7.1,1.5.7,2.1,0ZM120.8,181.5c.8-.8,1.5-1.7,2.3-2.5-.8.8-1.5,1.7-2.3,2.5ZM123.1,178.9c-1.9.9-4.2,1.7-5.2,3.7,1.1-2,3.3-2.8,5.2-3.7ZM114.2,185.8c-1.3,1-2.3,2.5-4,2.9,1.7-.3,2.7-1.8,4-2.9ZM110.2,188.7c-.6,1.2-1,2.6-2.1,3.5,1.1-.9,1.5-2.3,2.1-3.5ZM108.1,192.2c-1.7,1.5-3.6,3.1-5.9,3.5,2.3-.4,4.2-2,5.9-3.5ZM102.2,195.7c-2.4,2.2-4.7,4.4-6.9,6.8,2.1-2.5,4.5-4.7,6.9-6.8ZM95.3,202.6c-.3.8-.4,1.7-.9,2.4.5-.7.6-1.6.9-2.4ZM94.4,205c-.8.7-1.8,1-2.7,1.4.9-.4,2-.7,2.7-1.4ZM86.4,208.7c-.8.8-2.1-.2-1.6-1.1-.6.9.8,1.9,1.6,1.1ZM84.8,207.6c1.1-1.3,2.1-2.7,2.4-4.4-.3,1.7-1.3,3.1-2.4,4.4ZM87.2,203.2c-.5-.3-1.1-.6-1.6-.9.5.3,1.1.6,1.6.9ZM85.6,202.2c-1.1,1-2.2,1.9-3.4,2.7,1.2-.8,2.4-1.7,3.4-2.7ZM77.7,209.7c-.3-.7-.6-1.3-.8-2,.2.7.5,1.3.8,2ZM77.8,205.7c-1.6-1.5-3.7-.7-5.5-.5,1.9-.2,4-1,5.5.5ZM71.7,202.6c-1.2-.2-2-.9-2.4-2,.4,1.1,1.2,1.8,2.4,2ZM69.4,200.6c-.6.3-1.2.6-1.8.9.6-.3,1.2-.6,1.8-.9ZM66,197.1c-2.9,1.3-4.4,4.2-6.7,6.3,2.3-2,3.8-4.9,6.7-6.3ZM59.3,203.4c-1.4-.7-2.9-.3-4.3.2,1.4-.5,2.9-.9,4.3-.2ZM49.2,191.9c.2-.3.6-.8.8-1.1-.2.3-.6.8-.8,1.1ZM40.2,179.7c-.8.8-1.5,1.6-2.2,2.4.7-.8,1.4-1.6,2.2-2.4Z"/>
</svg>