<?xml version="1.0" encoding="UTF-8"?>
<svg id="Layer_1" xmlns="http://www.w3.org/2000/svg" version="1.1" xmlns:xlink="http://www.w3.org/1999/xlink" viewBox="0 0 512 512">
  <!-- Generator: Adobe Illustrator 29.4.0, SVG Export Plug-In . SVG Version: 2.1.0 Build 152)  -->
  <defs>
    <style>
      .st0 {
        fill: #6ee1ff;
        stroke: #6ee1ff;
      }

      .st0, .st1 {
        stroke-width: .2px;
      }

      .st2 {
        stroke-width: 0px;
      }

      .st2, .st3 {
        fill: #fff;
        stroke: #fff;
      }

      .st1 {
        fill: #0f476c;
        stroke: #0f476c;
      }

      .st4 {
        stroke: #aef2fe;
      }

      .st4, .st5 {
        fill: #aef2fe;
      }

      .st4, .st5, .st6, .st7, .st8, .st9 {
        stroke-width: .1px;
      }

      .st10 {
        fill: #78cefe;
        stroke: #78cefe;
      }

      .st10, .st3 {
        stroke-width: 0px;
      }

      .st5 {
        stroke: #75dcfd;
      }

      .st6 {
        fill: url(#linear-gradient);
        stroke: url(#linear-gradient1);
      }

      .st6, .st8 {
        stroke-miterlimit: 10;
      }

      .st7 {
        fill: #adf2fd;
        stroke: #adf2fd;
      }

      .st8 {
        fill: url(#linear-gradient2);
        stroke: url(#linear-gradient3);
      }

      .st9 {
        fill: #adf2fe;
        stroke: #adf2fe;
      }
    </style>
    <linearGradient id="linear-gradient" x1="-43.4" y1="790.6" x2="-42.8" y2="790.6" gradientTransform="translate(8710.9 -241330.8) rotate(-175.2) scale(320.8 -305.6) skewX(.5)" gradientUnits="userSpaceOnUse">
      <stop offset="0" stop-color="#aef2fe"/>
      <stop offset=".5" stop-color="#aef2fe"/>
    </linearGradient>
    <linearGradient id="linear-gradient1" x1="-43.4" x2="-42.8" xlink:href="#linear-gradient"/>
    <linearGradient id="linear-gradient2" x1="-41.4" y1="791.1" x2="-40.9" y2="791.1" gradientTransform="translate(-173372.9 -82276.4) rotate(128.3) scale(222.6 -237) skewX(-10.8)" xlink:href="#linear-gradient"/>
    <linearGradient id="linear-gradient3" x1="-41.4" y1="791.1" x2="-40.9" y2="791.1" gradientTransform="translate(-173372.9 -82276.4) rotate(128.3) scale(222.6 -237) skewX(-10.8)" xlink:href="#linear-gradient"/>
  </defs>
  <path class="st2" d="M328.9,30.7c1.9-1.8,4.2-3,6.5-4.1-1.7,1.1-3.3,2.5-4.9,3.8-1.5,1.6-2.9,3.2-4.5,4.7.1-1.9,1.6-3.2,2.9-4.4Z"/>
  <path class="st2" d="M332.8,29.6c-.6,1-1.3,1.8-2.1,2.6-1,1-1.9,2.1-3,3,1.2-2.3,3.1-4,5.1-5.6Z"/>
  <path class="st2" d="M318.5,47.9c.2,2.7-.2,5.3-.2,8-.5-2.6,0-5.3.2-8Z"/>
  <path class="st2" d="M319.9,48.5c.1,2.1-.1,4.3.3,6.4,1,.2,2.1.3,3.1.4-1.4.3-2.8.5-4.2.2,0-2.4.4-4.7.8-7.1Z"/>
  <path class="st2" d="M317.3,56.2c-.3-2.5,0-5,.4-7.5.1,2.5,0,5-.4,7.5Z"/>
  <path class="st2" d="M339.5,56.6c-.4-1.2-.2-2.5,0-3.7.1,1.2.2,2.5,0,3.7Z"/>
  <path class="st2" d="M325.1,55.7c1,0,2,0,3-.1,1.2-.1,2.4.1,3.6.1,1.7,0,3.5,0,5.2,0,0,.1,0,.4,0,.6-1.2,0-2.5-.1-3.7-.2-2.7-.1-5.3,0-8-.4Z"/>
  <g>
    <path class="st10" d="M318.6,46c5.5-.8,11.2-.5,16.7-.5,5.5.3,11,1.1,16.3,2.8,2.8,1,5.8,1.9,8.4,3.3,7.6,3.7,14.3,9.2,19,16.2,4.3,6.6,7,14.4,7.1,22.4.3,9.5-2.4,18.9-6.9,27.2-4.3,7.5-9.6,14.4-15.8,20.4-4.9,5.1-10.4,9.7-15.9,14.2-6.4,5.4-13,10.5-19.4,15.9-1.7,1.4-3.4,2.7-4.9,4.3-2.5,2.6-5.3,4.9-7.4,7.9-1.8,2.4-4.1,4.7-5,7.7,5.1.1,10.1-.4,15.2-.3,13.3,0,26.6.1,39.9,0,6.1,0,12.3-.2,18.4,0,0,.2,0,.7,0,.9,1.4,0,2.6.9,3.4,1.9-.3,0-.8.1-1.1.2.3,3.2-.1,6.4,0,9.6,0,3.7.1,7.4,0,11,0,2-.4,4.4-2.2,5.6-1.7,1.4-4,1.5-6.1,1.5-19.8-.3-39.5,0-59.3,0-11.7.3-23.3.2-35,.2-4.9-.3-9.9,0-14.9-.4-1.9-.2-4.1-.7-5.2-2.4-.3-1.7.2-3.5.3-5.2,2.2-13.5,8.2-26.1,16.1-37.1,6.7-9.1,14.8-17.1,23.3-24.6,8.4-7.5,17.1-14.6,25.5-22,5.6-5.1,11.3-10.4,15.6-16.6,2-3,3.4-6.5,4.1-10,1-5.9,0-12.2-3.2-17.3-3.3-5.2-9.5-7.8-15.4-8.6-4.5-.3-9.1-.2-13.4,1.3-4.9,1.5-9.3,4.9-11.9,9.3-3,4.9-4.1,10.8-4.2,16.4-.4.2-.8.5-1.3.5-3.9.2-7.9,0-11.8.4-2.9.2-5.8-.3-8.7-.2-3.8,0-7.6-.1-11.4,0-.2-.8-.4-1.7-.6-2.5-.4,0-.7,0-1.1.1,0-1.1,0-2.2,0-3.2,1.2-11.1,4.9-22.1,11.8-30.9,2.9-3.4,6.2-6.4,9.9-9,9.1-6,19.8-9.1,30.5-10.4Z"/>
    <path class="st3" d="M220.8,35.5c5.6-2,11.6-3.3,17.7-3.2-4,.5-8,.9-11.9,1.8-1.9.5-3.8,1.1-5.7,1.4Z"/>
    <path class="st3" d="M247,54.4c3.1,0,6,1.3,8.3,3.2-2.9-.9-5.3-2.8-8.3-3.2Z"/>
    <path class="st3" d="M260,61.8c2.5,1.4,4.3,3.9,5.1,6.6-1.4-2.4-3.2-4.5-5.1-6.6Z"/>
    <path class="st3" d="M297,84.3c-.5,3.7-1.4,7.3-3,10.7-.9,2.1-2,4.3-3.5,6,2.6-5.4,5.1-10.9,6.6-16.7Z"/>
    <path class="st3" d="M267.4,178.5c3.6-.4,7.3-.4,11-.7,6.3-.2,12.6-.9,18.9,0-.1.7-.2,1.4-.3,2.1-1.5-.9-3.2-.6-4.9-.6-5.4-.2-10.9-.7-16.4-.4-2.8,0-5.5-.2-8.3-.3Z"/>
  </g>
  <path class="st2" d="M318.8,140c.3-2.3.9-4.5,1.2-6.8,0,2.2-.3,4.3-.4,6.5,1.3,0,2.6,0,3.9.1-1.5.2-3.1.2-4.6.2Z"/>
  <g>
    <path class="st4" d="M301,243.2c1.2,0,2.4-.2,3.7-.2,35.3,0,70.5,0,105.8,0,13.4,0,26.8-.2,40.1.2.1,16.4.1,32.8,0,49.1-35.1.2-70.1,0-105.2,0,.2-1.5.5-2.9.8-4.4,3.8-.7,7.7,0,11.6,0,8.2.3,16.5.3,24.7.5,6.1-.1,12.1.3,18.2-.5,1.9-.2,3.8-.4,5.6-.5,5.8.2,11.4-1.4,17.1-2,2.2-.3,4.5-.3,6.7-.8,1.5-.3,2.3-2,2-3.4-.3-1.3-.9-2.4-1.4-3.6.9-1.1,2.1-2.1,2.4-3.5.4-1.9.6-3.9.5-5.9,0-1.9-.8-3.7-.7-5.5.7-1.9,2.8-3,3.5-4.9-2.2-2.6-4.7-5.8-8.5-5.9-6.5-.4-13.1,0-19.7-.2-11-.3-21.8,1.5-32.8,1.6-13.4.1-26.9-.1-40.3,0-3.9,0-7.6-1.4-11.5-1.1-3.4.2-6.5,1.7-9.6,2.8-3,1.1-6.4,2.4-7.9,5.4-1.5,3-2.2,6.4-3.5,9.5-1.6,4.1-2,8.6-3.2,12.8-1.8,6.6-2.4,13.4-3,20.1-.4,4-1.8,7.8-2.2,11.8-.7,6.1-1.5,12.2-1.8,18.4-.3,8.2,0,16.4,1.6,24.5.3,1.9,1,3.8,2.4,5.1,1.9,1.9,3.9,4.1,6.8,4.3,2.1.2,3.9-1.1,5.7-2,1.1-.5,2.3-1.2,3.5-1.2,1.9.3,3.6,1.4,5.5,1.8,2,0,3.9-1.4,5.9-.9,2.5,1.7,5.2,3.2,7.8,4.7,2.3,1.3,5.1,1.1,7.7.9,2.7-.4,5.4-.8,8-1.3-2.4,2.7-5.8,4.3-8.1,7.1-1.9,1.9-3.2,4.4-5.4,5.9-3.4.2-6.7-1.1-10-1.7-12.2-2.5-24.3-5.3-36.5-7.6-.6-4.6.7-9.2,1-13.8,3.3-29.4,6.2-58.8,9.4-88.1.6-7,1.6-13.9,2.2-20.9.2-2.3.4-4.6.8-6.8Z"/>
    <path class="st4" d="M375.6,253.4c10.9-.2,21.8-1.9,32.8-1.6,6.6.1,13.1-.2,19.7.2,3.7,0,6.3,3.2,8.5,5.9-.7,1.9-2.8,3-3.5,4.9,0,1.9.7,3.7.7,5.5,0,2,0,4-.5,5.9-.3,1.5-1.5,2.4-2.4,3.5.5,1.2,1.1,2.3,1.4,3.6.3,1.4-.5,3.1-2,3.4-2.2.5-4.5.5-6.7.8-5.7.6-11.3,2.2-17.1,2,4.2-1.2,8.6-1.5,12.8-2.5,2.9-.7,6-.6,8.9-.8,1.3,0,2.2-.9,3.2-1.6-1.6-2.6-3.5-5.2-4.1-8.3-.5-2.6.9-5.1.5-7.7-.3-1.7-.6-3.4-1.5-4.9-2.5-1.7-5.7-1.8-8.7-2-5.5,0-10.9-.1-16.4.3-4.7.4-9.5.3-14.3.2-5.8-.1-11.4-1.3-17.2-1.5-9-.1-17.9-1.2-26.9-.5-3.4,0-6.7.5-10.1.2-1.9-.7-3-2.8-4.9-3.5-1.7-.6-3.5-.8-5.3-.8-2.1,0-3.9,1.4-5.8,2-1.9.7-4.2,1-5.6,2.6-3.1,3.4-3.7,8.2-5.5,12.3-2.5,5.7-3.8,11.8-5.1,17.9-.7,4.3-1.2,8.7-2.1,13-1.7,12-3,24.1-3.2,36.2.7,7.1,1,14.2,2.3,21.3.6,2.3,1.1,5.1,3.4,6.2,2.6,1,5.5.3,8.1-.3-1.8.9-3.6,2.2-5.7,2-2.8-.2-4.9-2.4-6.8-4.3-1.4-1.3-2.1-3.2-2.4-5.1-1.6-8-1.9-16.3-1.6-24.5.3-6.2,1.1-12.3,1.8-18.4.4-4,1.9-7.8,2.2-11.8.6-6.8,1.2-13.6,3-20.1,1.2-4.3,1.6-8.7,3.2-12.8,1.3-3.1,2-6.4,3.5-9.5,1.5-3.1,4.9-4.3,7.9-5.4,3.1-1.1,6.2-2.7,9.6-2.8,3.9-.2,7.6,1.2,11.5,1.1,13.4-.2,26.9,0,40.3,0Z"/>
    <path class="st4" d="M337.2,288.4c1.2-.3,2.3-.6,3.6-.6,1.3.2,2.4.8,3.6,1.3.6-.4,1.3-.8,1.9-1.1-.3,1.5-.6,2.9-.8,4.4-.2.9-.3,1.8-.5,2.7-2.1,6.4-3.3,13.1-6,19.3-1.8,4.4-2.7,9.1-3,13.8,1.9.3,3.8.6,5.6,1.1-2.3-.1-5.3,1.5-7.1-.4-.2-2.6.6-5.2.8-7.9.6-7,.1-14.1,1.1-21,.6-3.8.5-7.7.9-11.5Z"/>
    <path class="st4" d="M338.9,314.4c2.7-6.2,3.9-12.9,6-19.3-.3,6.5-1.3,12.9-1.8,19.3-.4,4.8-1.4,9.5-1.2,14.3.4.1,1.1.3,1.5.4-.2,0-.5.2-.7.3-.3,0-.9-.1-1.2-.2-1.9-.4-3.7-.8-5.6-1.1.3-4.7,1.2-9.4,3-13.8Z"/>
    <path class="st7" d="M379.9,316.7c10.4-.7,21-.6,31.2,2.1,11.9,2.8,23.2,8.3,32.5,16.4,7.6,7,14,15.5,17.8,25.2,5.9,14.2,7.6,29.8,6.3,45.1-.6,5.4-1.3,10.8-2.7,16-1.3,5.6-3.6,11-5.8,16.3-3.9,8.3-9.3,15.8-15.7,22.4-5.3,5.4-11.5,9.8-17.9,13.8-8.6,5.1-18.2,8.4-28,10.7-13.6,2.6-27.7,3-41.4.6-2.9-.5-5.9-1-8.7-2.2,6.8.7,13.7.6,20.5.6,6.5,0,12.8-1.3,19.2-2.5,10.1-2.7,20.5-5,29.7-10,5.1-3.3,11.1-5.3,15.4-9.8,3.7-4.2,7.9-8,10.9-12.8,3-3.9,5.8-7.9,8.1-12.3,7.7-12.5,10.3-27.3,10.5-41.8.3-11.6-1.9-23.3-6.5-33.9-2.1-4.4-4.3-8.8-7.3-12.6-3.6-4.6-7-9.5-11.8-13-2.9-2-5.5-4.7-9-5.7-4.5-1.3-8.8-3.5-13.3-4.9-3.7-1.1-7-3.1-10.8-3.8-5.9-1.2-11.9-.7-17.8-.9-5.2-.1-10.5.2-15.7,1-5.2.8-10.4,1.3-15.3,3.4-.3,0-1,.1-1.4.2,2.2-1.5,4.8-2.3,7.3-3.2,6.3-2.3,12.9-3.6,19.6-4.4Z"/>
    <path class="st5" d="M354,342.7c2.7-.6,5.2-1.7,7.9-2.2,2.4-.6,3.2,2.4,5.2,3,3.6,1.2,7.4,1.1,11.1,1.4,2.2.3,4.2-1,6.1-2,4.2,2,8.3,4.4,12.5,6.5,2.8,1.3,4.6,4,6.8,6,1.8,1.6,3.7,3.1,5.2,5.1,2.2,3,5,5.6,6.6,9,2.9,5.3,4.5,11.1,4.9,17.1.2,6.8.2,13.7-1.8,20.3-3.2,10.4-5.8,21.1-10.2,31.1-1.5,3-4,5.3-6.1,7.8-2,2.2-3.3,4.9-5.3,7-3.2,3.3-6.6,6.4-10.3,9.2.4,1.1.9,2.2,1.4,3.3,1.1,2.4,3.1,4.1,4.8,6.2,5-1.4,8.8-5.1,13.6-7.1-4.2,3.7-9,6.8-14.4,8.3-3.7,1-6.8,3.5-10.5,4.4-6,1.6-12.3,2.4-18.5,2.3-6-.5-12.1-1.1-17.8-3-5.2-1.4-10-3.8-14.8-6.2-7.7-4.2-14-10.3-20-16.5-2.8-2.8-4.3-6.7-6.8-9.8-2.1-4-3.9-8.1-5-12.4-.6-2.4-1.8-4.8-1.3-7.3.5-2.8.8-6.2,3.4-8,3.1-2.5,7.2-2.2,10.9-3.1,3.4-.8,6-3.4,9.3-4.6,1.9-.7,3.8.5,5.3,1.6,1.7,1.3,1.7,3.6,2.1,5.5,1.1,5.3,4.2,9.9,6.7,14.7,1.6,3.2,4.8,5,6.5,8,2,3.5,5.8,5.4,9.2,7.4,3.9,2.2,8,4.3,12.4,4.9,3,.2,6,0,9.1.2,5.1.4,9.7-1.9,14.4-3.6,3.4-1.1,6.3-3.4,9.3-5.3,2.1-1.3,3.4-3.4,5.1-5.1,2.4-2.4,4.7-5,6.8-7.7,1.7-2.3,2.5-5.1,3.8-7.6.9-1.8,2-3.4,2.8-5.2,1.1-2.3.8-5,1.8-7.3.7-1.9,1.3-3.9,1.5-6,.6-6.9,1.8-13.8,0-20.6-.5-3.4-3-5.9-4.5-8.9-1.1-2.2-2.3-4.4-3.9-6.3-2.2-2.6-4.3-5.4-7.4-7.1-4.6-2.5-8.9-5.7-13.7-7.7-8-2.4-16.3-.8-24.4,0-3.7.4-6.6,3-10.2,3.7-3.2.7-6.6.9-9.6,2.3-3.7,1.7-7.7,3.1-10.6,6.1,1.2-2.1,2.4-4.1,3.6-6.1,1.5-2.5,1.3-5.5,2.1-8.1.8-1.9,2.5-3.2,4.2-4.2,3.5-1.6,7.3-2.5,11-3.3Z"/>
    <path class="st9" d="M318.9,399c4-1.3,7.9-3.3,12.1-4,1.6,3,2.2,6.4,3.4,9.6,2.1,6.5,5,12.8,9,18.4,3,3.8,6.4,7.4,10.7,9.8,7.5,4.7,16.8,6,25.5,5,5.8-.8,11.7-2.6,16.5-6,2.2-1.5,4.2-3.3,6.4-4.9-1.3,2.1-3.1,3.7-5.1,5-4.3,2.8-7.9,6.7-12.7,8.8-4.9,2.1-10.2,3.4-15.6,3.2-6.8.2-14.2-.4-19.6-5-7.8-6.9-12.8-16.3-16.4-26-1.6-4.2-6.6-4.6-10.4-5.3-2.5-.6-4.7,1-6.8,2.1-3.8,2-8.2,1.9-12.3,3.3-2.1.7-4,2-5.5,3.8-1.5,1.8-.9,4.5-2.3,6.3-1.1,1.4-2.1,3-2.9,4.6-1.2,2.3-3.5,4.2-3.6,7,0,3.1,2,5.8,3.5,8.3,2.9,4.4,5.8,8.8,9.3,12.7,2.8,3.5,6.1,6.5,8.9,9.9-3.5-1.7-6-4.8-8.6-7.5-9.5-10-16.3-22.3-20.5-35.4-.9-3-2.3-5.9-2.5-9,1.6-1.3,3.8-1.6,5.7-2.4,11.2-4.1,22.4-8,33.6-12.1Z"/>
    <path id="path-8_1" class="st6" d="M369.6,320.8c5.2-.8,10.4-1.1,15.7-1,5.9.2,12-.3,17.8.9,3.8.7,7.2,2.7,10.8,3.8,4.5,1.4,8.7,3.6,13.3,4.9,3.5.9,6.1,3.6,9,5.7,4.8,3.4,8.2,8.4,11.8,13,3,3.8,5.2,8.2,7.3,12.6,4.6,10.7,6.8,22.3,6.5,33.9-.2,14.5-2.8,29.3-10.5,41.8-2.3,4.4-5.1,8.4-8.1,12.3-3,4.8-7.1,8.7-10.9,12.8-4.2,4.5-10.3,6.6-15.4,9.8-9.2,5.1-19.6,7.3-29.7,10-6.3,1.2-12.7,2.6-19.2,2.5-6.8,0-13.7,0-20.5-.6-12-2.5-23.3-7.9-33.3-15-1.1-.8-2.2-1.7-3.2-2.7-2.9-3.4-6.1-6.4-8.9-9.9-3.5-4-6.3-8.4-9.3-12.7-1.6-2.6-3.6-5.2-3.5-8.3,0-2.8,2.3-4.7,3.6-7,.8-1.6,1.8-3.2,2.9-4.6,1.4-1.8.9-4.5,2.3-6.3,1.4-1.7,3.3-3.1,5.5-3.8,4-1.3,8.5-1.3,12.3-3.3,2.1-1.1,4.3-2.7,6.8-2.1,3.8.8,8.8,1.1,10.4,5.3,3.6,9.6,8.6,19.1,16.4,26,5.3,4.6,12.8,5.2,19.6,5,5.4.2,10.7-1.1,15.6-3.2,4.7-2.1,8.4-6,12.7-8.8,2-1.3,3.8-3,5.1-5,2.3-3.4,5.1-6.6,6.7-10.5,3.5-7.6,4.4-16.2,3.4-24.4-1-7.7-4.1-15.4-9.9-20.8-6-5.7-14.1-8.9-22.3-9.4-8.5-.6-17.1,1.1-25.1,4-2.6,1-5,2.5-7.7,3.3-2.7.5-5.4,1-8,1.3-2.6.3-5.4.5-7.7-.9-2.6-1.5-5.3-3-7.8-4.7.7,0,1.4.2,2.1.3-1.5-1.2-3.2-2.3-4.3-3.9-1.1-1.9-1.7-4-2.8-5.9-.9-1.5-1.7-3.1-2.5-4.7-.9-1.8-3.2-1.9-4.4-3.4-.7-1.3-1-2.9-.8-4.4.8-1.7,2.5-2.7,3.8-4,2.8-2.5,6.4-3.7,9.7-5.4,2.1-1,4-2.3,6.3-2.9,2.3-.7,4.5.9,6.7.4,1.7-.3,3.3-1,4.9-1.6.2,0,.5-.2.7-.3,3.2-1.6,6-4,9.5-4.8.3,0,1-.1,1.4-.2,4.8-2.1,10.1-2.5,15.3-3.4ZM343.7,358.4c3-1.4,6.4-1.6,9.6-2.3,3.6-.7,6.5-3.3,10.2-3.7,8.1-.8,16.4-2.4,24.4,0,4.9,2,9.1,5.1,13.7,7.7,3.1,1.6,5.2,4.4,7.4,7.1,1.6,1.9,2.7,4.1,3.9,6.3,1.5,3,3.9,5.5,4.5,8.9,1.7,6.8.5,13.8,0,20.6-.1,2.1-.7,4.1-1.5,6-.9,2.4-.7,5-1.8,7.3-.8,1.8-1.9,3.4-2.8,5.2-1.3,2.5-2.1,5.3-3.8,7.6-2.1,2.7-4.4,5.3-6.8,7.7-1.7,1.7-3,3.8-5.1,5.1-3,1.9-5.9,4.1-9.3,5.3-4.7,1.6-9.3,4-14.4,3.6-3-.3-6,0-9.1-.2-4.5-.6-8.5-2.7-12.4-4.9-3.4-2-7.1-3.9-9.2-7.4-1.8-3-4.9-4.9-6.5-8-2.4-4.8-5.5-9.3-6.7-14.7-.5-1.9-.5-4.2-2.1-5.5-1.4-1.2-3.4-2.4-5.3-1.6-3.2,1.2-5.8,3.8-9.3,4.6-3.6.9-7.8.6-10.9,3.1-2.6,1.8-2.9,5.1-3.4,8-.5,2.5.7,4.9,1.3,7.3,1.1,4.3,3,8.5,5,12.4,2.5,3.1,3.9,7,6.8,9.8,6,6.3,12.3,12.4,20,16.5,4.8,2.4,9.6,4.8,14.8,6.2,5.7,1.9,11.8,2.5,17.8,3,6.2.2,12.5-.7,18.5-2.3,3.7-.9,6.8-3.4,10.5-4.4,5.4-1.5,10.2-4.6,14.4-8.3-4.7,2-8.6,5.7-13.6,7.1-1.6-2-3.7-3.8-4.8-6.2-.4-1.1-1-2.2-1.4-3.3,3.7-2.8,7.1-5.9,10.3-9.2,2-2.2,3.4-4.8,5.3-7,2.2-2.5,4.6-4.8,6.1-7.8,4.5-10,7-20.7,10.2-31.1,2-6.6,1.9-13.5,1.8-20.3-.4-6-2.1-11.8-4.9-17.1-1.6-3.4-4.4-6-6.6-9-1.5-1.9-3.3-3.5-5.2-5.1-2.3-2-4-4.7-6.8-6-4.2-2.1-8.3-4.4-12.5-6.5-1.9,1.1-3.8,2.3-6.1,2-3.7-.3-7.5-.2-11.1-1.4-2-.6-2.8-3.7-5.2-3-2.7.5-5.2,1.7-7.9,2.2-3.7.8-7.5,1.6-11,3.3-1.7,1-3.4,2.3-4.2,4.2-.9,2.7-.6,5.7-2.1,8.1-1.2,2-2.4,4.1-3.6,6.1,2.9-2.9,6.9-4.4,10.6-6.1h0ZM326.1,365.2c1.3.4,2.6,1.1,4.1,1.1-1.4,0-2.7-.7-4.1-1.1ZM406.2,464.3c5.4-3.5,10.1-8.2,14.1-13.2-4,5-8.7,9.7-14.1,13.2ZM437.7,414.2c2-7.8,1.5-16,.8-24,.7,8,1.2,16.1-.8,24ZM438.4,390.2c-.6-8.5-2.1-17.1-5.9-24.8,3.8,7.7,5.4,16.3,5.9,24.8ZM422.1,349.1c-3.6-3.2-7.2-6.4-10.7-9.7,3.5,3.3,7.1,6.5,10.7,9.7ZM411.4,339.4c-2.1-1.9-4.4-3.6-6.9-4.9,2.5,1.3,4.9,2.9,6.9,4.9ZM404.5,334.5c-4.1-2.1-8-4.8-12.4-6.4,4.4,1.6,8.3,4.3,12.4,6.4ZM392.1,328.1c-5.1-1.9-10.5-2.8-15.9-4,5.3,1.2,10.7,2.1,15.9,4ZM376.2,324c-5.1-1.2-10.5-1.3-15.7-.4,5.2-.9,10.6-.8,15.7.4ZM360.5,323.7c-2.1.4-4.1.5-6.2.5,2.1,0,4.2-.1,6.2-.5Z"/>
    <path id="path-4_1" class="st8" d="M316.7,256.1c1.9-.6,3.7-2,5.8-2,1.8,0,3.6.2,5.3.8,2,.7,3,2.8,4.9,3.5,3.3.3,6.7-.2,10.1-.2,9-.6,17.9.4,26.9.5,5.7.2,11.4,1.4,17.2,1.5,4.8,0,9.5.2,14.3-.2,5.4-.5,10.9-.4,16.4-.3,3,.2,6.2.3,8.7,2,.9,1.4,1.2,3.2,1.5,4.9.4,2.6-.9,5.1-.5,7.7.6,3.1,2.5,5.6,4.1,8.3-1,.7-2,1.5-3.2,1.6-3,.3-6,.1-8.9.8-4.2,1.1-8.6,1.3-12.8,2.5-1.9.1-3.8.3-5.6.5-6,.9-12.1.4-18.2.5-8.2-.1-16.5-.2-24.7-.5-3.9,0-7.7-.8-11.6,0-.7.3-1.3.7-1.9,1.1-1.2-.5-2.3-1.1-3.6-1.3-1.2,0-2.4.4-3.6.6-.3,3.8-.3,7.7-.9,11.5-1,7-.5,14-1.1,21-.2,2.6-1,5.2-.8,7.9,1.9,1.9,4.8.3,7.1.4.3,0,.9.1,1.2.2-1.6.6-3.2,1.3-4.9,1.6-2.3.5-4.5-1.1-6.7-.4-2.2.7-4.2,1.9-6.3,2.9-3.3,1.8-6.9,2.9-9.7,5.4-1.3,1.2-3,2.3-3.8,4-.2,1.5.1,3.1.8,4.4,1.2,1.5,3.5,1.6,4.4,3.4.8,1.6,1.6,3.1,2.5,4.7,1.1,1.9,1.6,4,2.8,5.9,1.1,1.6,2.8,2.7,4.3,3.9-.7-.1-1.4-.2-2.1-.3-2-.5-3.9.8-5.9.9-1.9-.3-3.6-1.4-5.5-1.8-1.3,0-2.4.7-3.5,1.2-2.6.6-5.5,1.4-8.1.3-2.3-1.2-2.9-4-3.4-6.2-1.3-7-1.6-14.2-2.3-21.3.1-12.1,1.5-24.2,3.2-36.2.9-4.3,1.4-8.6,2.1-13,1.4-6.1,2.7-12.2,5.1-17.9,1.8-4.1,2.4-8.8,5.5-12.3,1.4-1.6,3.7-1.8,5.6-2.6h0Z"/>
  </g>
  <g>
    <path class="st1" d="M66.6,128.1c14.4-6.7,27.5-16.7,36.7-29.7,20.8.1,41.5,0,62.3,0,1.4,0,2.9-.3,4.2.3,7,5,14.1,10,21.4,14.6.3,73.4,0,146.8.1,220.3,4.9.2,9.8-.3,14.7.2,7.5,4.6,14.4,10,21.9,14.7.2,21.7,0,43.4,0,65.1-48.1-.2-96.2,0-144.2,0-1.8,0-3.6,0-5.4.1-7.9-5.2-15.7-10.7-23.7-15.7-.1-21.4-.1-42.8,0-64.3,11.6,0,23.2,0,34.7,0,0-43,0-85.9,0-128.9-7.2,4-15,7.1-22.7,10-7.6-5-15.2-10.1-22.9-15-4.7-20.3-10.1-40.5-14.9-60.8,13-1.8,25.8-5.3,37.7-10.9Z"/>
    <path class="st0" d="M55.4,141.1c20.2-6.4,38.9-18.4,52.2-35,18.8.2,37.5,0,56.3.1,0,78.4.1,156.8,0,235.2,11.9,0,23.8,0,35.7,0,0,16.8,0,33.7,0,50.6-45.7,0-91.3,0-137,0-.1-16.9,0-33.7,0-50.6,11.5,0,23.1.2,34.6,0,0-57.3.1-114.6,0-172-11.7,10.1-25.8,17.1-40.5,21.5-2.2.6-4.3,1.4-6.6,1.4-2.5-12.7-6.2-25.2-9.2-37.8-.6-3.1-1.7-6.1-1.9-9.3,5.6-.5,11-2.4,16.4-4.1Z"/>
  </g>
</svg>