<?xml version="1.0" encoding="UTF-8"?>
<svg id="Layer_1" xmlns="http://www.w3.org/2000/svg" version="1.1" xmlns:xlink="http://www.w3.org/1999/xlink" viewBox="0 0 512 512">
  <!-- Generator: Adobe Illustrator 29.4.0, SVG Export Plug-In . SVG Version: 2.1.0 Build 152)  -->
  <defs>
    <style>
      .st0 {
        stroke: #fda626;
      }

      .st0, .st1, .st2, .st3, .st4, .st5, .st6, .st7, .st8, .st9, .st10, .st11, .st12, .st13, .st14, .st15 {
        stroke-width: .2px;
      }

      .st0, .st16, .st2, .st3, .st6, .st7, .st10 {
        fill: #f7d87e;
      }

      .st0, .st2, .st3, .st4, .st5, .st6, .st7, .st8, .st9, .st10, .st11, .st12, .st13, .st14, .st15 {
        display: none;
      }

      .st1 {
        fill-opacity: 0;
        stroke: #000;
        stroke-opacity: 0;
      }

      .st17 {
        fill: #6acff2;
        stroke: #6acff2;
      }

      .st17, .st18, .st19, .st20, .st21, .st16, .st22, .st23, .st24, .st25, .st26, .st27, .st28, .st29, .st30, .st31, .st32, .st33, .st34, .st35, .st36, .st37, .st38, .st39, .st40, .st41, .st42, .st43, .st44, .st45, .st46, .st47, .st48, .st49, .st50, .st51, .st52, .st53, .st54, .st55, .st56, .st57, .st58, .st59, .st60, .st61, .st62, .st63, .st64, .st65, .st66, .st67, .st68, .st69, .st70, .st71, .st72, .st73, .st74, .st75, .st76, .st77, .st78, .st79, .st80, .st81, .st82, .st83, .st84, .st85, .st86, .st87, .st88, .st89, .st90, .st91, .st92, .st93, .st94, .st95, .st96, .st97, .st98, .st99, .st100, .st101, .st102, .st103, .st104, .st105, .st106, .st107, .st108, .st109 {
        stroke-width: .2px;
      }

      .st18 {
        fill: #85c7e0;
        stroke: #85c7e0;
      }

      .st110 {
        fill: #153557;
        stroke: #153557;
      }

      .st110, .st111, .st112, .st113, .st114, .st115, .st116, .st117, .st118, .st119, .st120, .st121, .st122, .st123, .st124, .st125, .st126, .st127, .st128, .st129, .st130, .st131, .st132, .st133, .st134, .st135, .st136, .st137, .st138, .st139, .st140, .st141, .st142, .st143, .st144, .st145, .st146, .st147, .st148 {
        stroke-width: .2px;
      }

      .st19 {
        fill: #94c3d7;
        stroke: #94c3d7;
      }

      .st20 {
        fill: #4e4244;
        stroke: #4e4244;
      }

      .st21 {
        fill: #5a7890;
        stroke: #5a7890;
      }

      .st111 {
        fill: #d7fbff;
        stroke: #d7fbff;
      }

      .st112 {
        fill: #ee6333;
        stroke: #ee6333;
      }

      .st16, .st6 {
        stroke: #f7d87e;
      }

      .st22 {
        fill: #a1b2c1;
        stroke: #a1b2c1;
      }

      .st113 {
        fill: #fecd6e;
        stroke: #fecd6e;
      }

      .st23 {
        fill: #a0572a;
        stroke: #a0572a;
      }

      .st24 {
        fill: #cdf7fe;
        stroke: #cdf7fe;
      }

      .st25 {
        fill: #6099b2;
        stroke: #6099b2;
      }

      .st26 {
        fill: #afe8f6;
        stroke: #afe8f6;
      }

      .st27 {
        fill: #698ca8;
        stroke: #698ca8;
      }

      .st2 {
        stroke: #fe9b0b;
      }

      .st28 {
        fill: #776838;
        stroke: #776838;
      }

      .st29 {
        fill: #6dacc6;
        stroke: #6dacc6;
      }

      .st30 {
        fill: #7e6676;
        stroke: #7e6676;
      }

      .st114 {
        fill: #f06333;
        stroke: #f06333;
      }

      .st31 {
        fill: #793a1e;
        stroke: #793a1e;
      }

      .st115 {
        fill: #ffffea;
        stroke: #ffffea;
      }

      .st32 {
        fill: #5784ae;
        stroke: #5784ae;
      }

      .st116 {
        fill: #ffffd8;
        stroke: #ffffd8;
      }

      .st33 {
        fill: #6a807f;
        stroke: #6a807f;
      }

      .st34 {
        fill: #c9f1f9;
        stroke: #c9f1f9;
      }

      .st35 {
        fill: #aae3f4;
        stroke: #aae3f4;
      }

      .st36 {
        fill: #83a7c1;
        stroke: #83a7c1;
      }

      .st37 {
        fill: #7c9db5;
        stroke: #7c9db5;
      }

      .st38 {
        fill: #49a9d2;
        stroke: #49a9d2;
      }

      .st39 {
        fill: #6ba9c3;
        stroke: #6ba9c3;
      }

      .st40, .st120 {
        fill: #dbf8ff;
        stroke: #dbf8ff;
      }

      .st41 {
        fill: #7296ac;
        stroke: #7296ac;
      }

      .st3 {
        stroke: #fab13d;
      }

      .st42 {
        fill: #4976a0;
        stroke: #4976a0;
      }

      .st117 {
        stroke: #fff;
      }

      .st117, .st144 {
        fill: #fff;
      }

      .st43 {
        fill: #5ec3e7;
        stroke: #5ec3e7;
      }

      .st44 {
        fill: #b6f2fc;
        stroke: #b6f2fc;
      }

      .st45 {
        fill: #d9fdff;
        stroke: #d9fdff;
      }

      .st118 {
        fill: #0d1e31;
        stroke: #0d1e31;
      }

      .st46 {
        fill: #dbfcff;
        stroke: #dbfcff;
      }

      .st47 {
        fill: #4ca2c7;
        stroke: #4ca2c7;
      }

      .st119 {
        fill: #ffefb2;
        stroke: #ffefb2;
      }

      .st48 {
        fill: #cbf6fd;
        stroke: #cbf6fd;
      }

      .st49 {
        fill: #bff3fb;
        stroke: #bff3fb;
      }

      .st50 {
        fill: #69889f;
        stroke: #69889f;
      }

      .st121 {
        fill: #fee8a3;
        stroke: #fee8a3;
      }

      .st122 {
        fill: #14355a;
        stroke: #14355a;
      }

      .st51 {
        fill: #c1f7fd;
        stroke: #c1f7fd;
      }

      .st4, .st5, .st70, .st8, .st87, .st12, .st13, .st15 {
        fill: #54b6dd;
      }

      .st4, .st87 {
        stroke: #54b6dd;
      }

      .st123 {
        fill: #e7dada;
        stroke: #e7dada;
      }

      .st52 {
        fill: #c4edfd;
        stroke: #c4edfd;
      }

      .st53 {
        fill: #afcbd9;
        stroke: #afcbd9;
      }

      .st124 {
        fill: #ffffcf;
        stroke: #ffffcf;
      }

      .st54 {
        fill: #919a78;
        stroke: #919a78;
      }

      .st55 {
        fill: #7f9fb1;
        stroke: #7f9fb1;
      }

      .st5 {
        stroke: #fb6450;
      }

      .st56 {
        fill: #917458;
        stroke: #917458;
      }

      .st57 {
        fill: url(#linear-gradient6);
        stroke: url(#linear-gradient7);
      }

      .st57, .st59, .st78, .st11, .st96, .st14 {
        stroke-miterlimit: 10;
      }

      .st58 {
        fill: #afdef0;
        stroke: #afdef0;
      }

      .st59 {
        fill: url(#linear-gradient4);
        stroke: url(#linear-gradient5);
      }

      .st125 {
        fill: #feecaf;
        stroke: #feecaf;
      }

      .st126 {
        fill: #fef0b8;
        stroke: #fef0b8;
      }

      .st127 {
        fill: #fffed6;
        stroke: #fffed6;
      }

      .st60 {
        fill: #6fb7d0;
        stroke: #6fb7d0;
      }

      .st128 {
        fill: #fdcdb7;
      }

      .st128, .st144 {
        stroke: #fdcdb7;
      }

      .st129 {
        fill: #f2d9d4;
        stroke: #f2d9d4;
      }

      .st61 {
        fill: #aa7d68;
        stroke: #aa7d68;
      }

      .st62 {
        fill: #686c6e;
        stroke: #686c6e;
      }

      .st63 {
        fill: #304152;
        stroke: #304152;
      }

      .st64 {
        fill: #9db5c5;
        stroke: #9db5c5;
      }

      .st65 {
        fill: #92b2c9;
        stroke: #92b2c9;
      }

      .st66 {
        fill: #5884ac;
        stroke: #5884ac;
      }

      .st67 {
        fill: #a3d5e9;
        stroke: #a3d5e9;
      }

      .st68 {
        fill: #83c3da;
        stroke: #83c3da;
      }

      .st69 {
        fill: #519bc2;
        stroke: #519bc2;
      }

      .st70 {
        stroke: #fa8b5b;
      }

      .st71 {
        fill: #866147;
        stroke: #866147;
      }

      .st72 {
        fill: #bfedf9;
        stroke: #bfedf9;
      }

      .st73 {
        fill: #f5c2ac;
        stroke: #f5c2ac;
      }

      .st74 {
        fill: #e2fbfd;
        stroke: #e2fbfd;
      }

      .st75 {
        fill: #5a87b0;
        stroke: #5a87b0;
      }

      .st76 {
        fill: #717d6c;
        stroke: #717d6c;
      }

      .st77 {
        fill: #c5fbff;
        stroke: #c5fbff;
      }

      .st130 {
        fill: #fffffd;
        stroke: #fffffd;
      }

      .st78 {
        fill: url(#linear-gradient10);
        stroke: url(#linear-gradient11);
      }

      .st79 {
        fill: #7798ae;
        stroke: #7798ae;
      }

      .st80 {
        fill: #865547;
        stroke: #865547;
      }

      .st131 {
        fill: #14365b;
        stroke: #14365b;
      }

      .st7 {
        stroke: #fd840c;
      }

      .st81 {
        fill: #886b70;
        stroke: #886b70;
      }

      .st82 {
        fill: #87b9cf;
        stroke: #87b9cf;
      }

      .st132 {
        fill: #ffcdb6;
        stroke: #ffcdb6;
      }

      .st133 {
        fill: #feffff;
        stroke: #feffff;
      }

      .st83 {
        fill: #9bd4eb;
        stroke: #9bd4eb;
      }

      .st134 {
        fill: #ed6233;
        stroke: #ed6233;
      }

      .st8 {
        stroke: #fe9c5e;
      }

      .st84 {
        fill: #97d2e6;
        stroke: #97d2e6;
      }

      .st85 {
        fill: #865544;
        stroke: #865544;
      }

      .st9 {
        fill: #fccd68;
        stroke: #fccd68;
      }

      .st10 {
        stroke: #febf51;
      }

      .st86 {
        fill: #9db4c2;
        stroke: #9db4c2;
      }

      .st135 {
        fill: #f0fcff;
        stroke: #f0fcff;
      }

      .st88 {
        fill: #a1daef;
        stroke: #a1daef;
      }

      .st89 {
        fill: #826573;
        stroke: #826573;
      }

      .st90 {
        fill: #93c3d6;
        stroke: #93c3d6;
      }

      .st136 {
        fill: #13355b;
        stroke: #13355b;
      }

      .st137 {
        fill: #213145;
        stroke: #213145;
      }

      .st138 {
        fill: #fbd523;
        stroke: #fbd523;
      }

      .st91 {
        fill: #cbf4fb;
        stroke: #cbf4fb;
      }

      .st139 {
        fill: #14365a;
        stroke: #14365a;
      }

      .st140 {
        fill: #37402b;
        stroke: #37402b;
      }

      .st92 {
        fill: #a0ccdd;
        stroke: #a0ccdd;
      }

      .st11 {
        fill: url(#linear-gradient);
        stroke: url(#linear-gradient1);
      }

      .st12 {
        stroke: #fe7653;
      }

      .st93 {
        fill: #827276;
        stroke: #827276;
      }

      .st141 {
        fill: #15365b;
        stroke: #15365b;
      }

      .st94 {
        fill: #557d97;
        stroke: #557d97;
      }

      .st95 {
        fill: #a2d7ed;
        stroke: #a2d7ed;
      }

      .st142 {
        fill: #fffdd8;
        stroke: #fffdd8;
      }

      .st96 {
        fill: url(#linear-gradient8);
        stroke: url(#linear-gradient9);
      }

      .st143 {
        fill: #fecdb7;
        stroke: #fecdb7;
      }

      .st13 {
        stroke: #fe8e59;
      }

      .st97 {
        fill: #737867;
        stroke: #737867;
      }

      .st98 {
        fill: #71767d;
        stroke: #71767d;
      }

      .st14 {
        fill: url(#linear-gradient2);
        stroke: url(#linear-gradient3);
      }

      .st99 {
        fill: #b1e0f5;
        stroke: #b1e0f5;
      }

      .st100 {
        fill: #9abed1;
        stroke: #9abed1;
      }

      .st101 {
        fill: #755b52;
        stroke: #755b52;
      }

      .st102 {
        fill: #87acd0;
        stroke: #87acd0;
      }

      .st103 {
        fill: #f6b18f;
        stroke: #f6b18f;
      }

      .st15 {
        stroke: #fa7e56;
      }

      .st104 {
        fill: #7a9cb2;
        stroke: #7a9cb2;
      }

      .st145 {
        fill: #fcc9b5;
        stroke: #fcc9b5;
      }

      .st146 {
        fill: #d7f6fe;
        stroke: #d7f6fe;
      }

      .st105 {
        fill: #c9ebf9;
        stroke: #c9ebf9;
      }

      .st147 {
        fill: #fccdb7;
        stroke: #fccdb7;
      }

      .st106 {
        fill: #c1ebf5;
        stroke: #c1ebf5;
      }

      .st107 {
        fill: #7b9cb1;
        stroke: #7b9cb1;
      }

      .st108 {
        fill: #0d3a63;
        stroke: #0d3a63;
      }

      .st109 {
        fill: #7c7379;
        stroke: #7c7379;
      }

      .st148 {
        fill: #915f59;
        stroke: #915f59;
      }
    </style>
    <linearGradient id="linear-gradient" x1="-45.9" y1="790.4" x2="-44.9" y2="790.4" gradientTransform="translate(53649.5 -36580.4) rotate(-113.3) scale(89.5 -80.5) skewX(-6.9)" gradientUnits="userSpaceOnUse">
      <stop offset="0" stop-color="#f7d87e"/>
      <stop offset=".2" stop-color="#fccd68"/>
      <stop offset=".3" stop-color="#f7d87e"/>
      <stop offset=".5" stop-color="#f7d87e"/>
      <stop offset=".7" stop-color="#f7d87e"/>
      <stop offset=".8" stop-color="#f7d87e"/>
    </linearGradient>
    <linearGradient id="linear-gradient1" x1="-45.9" y1="790.3" x2="-44.9" y2="790.3" gradientTransform="translate(53649.5 -36580.4) rotate(-113.3) scale(89.5 -80.5) skewX(-6.9)" gradientUnits="userSpaceOnUse">
      <stop offset="0" stop-color="#f7d87e"/>
      <stop offset=".2" stop-color="#fccd68"/>
      <stop offset=".3" stop-color="#f7d87e"/>
      <stop offset=".5" stop-color="#f7d87e"/>
      <stop offset=".7" stop-color="#f7d87e"/>
      <stop offset=".8" stop-color="#f7d87e"/>
    </linearGradient>
    <linearGradient id="linear-gradient2" x1="-38.9" y1="787.5" x2="-37.9" y2="787.5" gradientTransform="translate(-184520 24563.8) rotate(22.6) scale(138.7 -118.7) skewX(56.7)" gradientUnits="userSpaceOnUse">
      <stop offset="0" stop-color="#54b6dd"/>
      <stop offset=".3" stop-color="#54b6dd"/>
      <stop offset=".7" stop-color="#54b6dd"/>
    </linearGradient>
    <linearGradient id="linear-gradient3" x1="-38.9" y1="787.5" x2="-37.9" y2="787.5" gradientTransform="translate(-184520 24563.8) rotate(22.6) scale(138.7 -118.7) skewX(56.7)" gradientUnits="userSpaceOnUse">
      <stop offset="0" stop-color="#54b6dd"/>
      <stop offset=".3" stop-color="#54b6dd"/>
      <stop offset=".7" stop-color="#54b6dd"/>
    </linearGradient>
    <linearGradient id="linear-gradient4" x1="-44.4" y1="790.6" x2="-43.5" y2="790.6" gradientTransform="translate(57022.8 -28616.4) rotate(-107.1) scale(90.7 -79.4) skewX(-5.4)" gradientUnits="userSpaceOnUse">
      <stop offset="0" stop-color="#f7d87e"/>
      <stop offset=".1" stop-color="#fccd68"/>
      <stop offset=".3" stop-color="#f7d87e"/>
      <stop offset=".4" stop-color="#f7d87e"/>
      <stop offset=".6" stop-color="#f7d87e"/>
      <stop offset=".7" stop-color="#f7d87e"/>
      <stop offset=".9" stop-color="#f7d87e"/>
    </linearGradient>
    <linearGradient id="linear-gradient5" x1="-44.4" y1="790.6" x2="-43.5" y2="790.6" gradientTransform="translate(57022.8 -28616.4) rotate(-107.1) scale(90.7 -79.4) skewX(-5.4)" gradientUnits="userSpaceOnUse">
      <stop offset="0" stop-color="#f7d87e"/>
      <stop offset=".1" stop-color="#fccd68"/>
      <stop offset=".3" stop-color="#f7d87e"/>
      <stop offset=".4" stop-color="#f7d87e"/>
      <stop offset=".6" stop-color="#f7d87e"/>
      <stop offset=".7" stop-color="#f7d87e"/>
      <stop offset=".9" stop-color="#f7d87e"/>
    </linearGradient>
    <linearGradient id="linear-gradient6" x1="-41.4" y1="788.1" x2="-40.6" y2="788.1" gradientTransform="translate(-68313.2 33032.9) rotate(58.5) scale(87.1 -96) skewX(9.4)" gradientUnits="userSpaceOnUse">
      <stop offset="0" stop-color="#54b6dd"/>
      <stop offset=".2" stop-color="#54b6dd"/>
      <stop offset=".5" stop-color="#54b6dd"/>
      <stop offset=".8" stop-color="#54b6dd"/>
    </linearGradient>
    <linearGradient id="linear-gradient7" x1="-41.4" y1="788.1" x2="-40.6" y2="788.1" gradientTransform="translate(-68313.2 33032.9) rotate(58.5) scale(87.1 -96) skewX(9.4)" gradientUnits="userSpaceOnUse">
      <stop offset="0" stop-color="#54b6dd"/>
      <stop offset=".2" stop-color="#54b6dd"/>
      <stop offset=".5" stop-color="#54b6dd"/>
      <stop offset=".8" stop-color="#54b6dd"/>
    </linearGradient>
    <linearGradient id="linear-gradient8" x1="-41.3" y1="788.2" x2="-40.5" y2="788.2" gradientTransform="translate(-169572.6 40936) rotate(23.8) scale(171 -134.2) skewX(47.3)" gradientUnits="userSpaceOnUse">
      <stop offset="0" stop-color="#54b6dd"/>
      <stop offset=".2" stop-color="#54b6dd"/>
      <stop offset=".4" stop-color="#54b6dd"/>
      <stop offset=".6" stop-color="#54b6dd"/>
      <stop offset=".8" stop-color="#54b6dd"/>
    </linearGradient>
    <linearGradient id="linear-gradient9" x1="-41.3" y1="788.2" x2="-40.5" y2="788.2" gradientTransform="translate(-169572.6 40936) rotate(23.8) scale(171 -134.2) skewX(47.3)" gradientUnits="userSpaceOnUse">
      <stop offset="0" stop-color="#54b6dd"/>
      <stop offset=".2" stop-color="#54b6dd"/>
      <stop offset=".4" stop-color="#54b6dd"/>
      <stop offset=".6" stop-color="#54b6dd"/>
      <stop offset=".8" stop-color="#54b6dd"/>
    </linearGradient>
    <linearGradient id="linear-gradient10" x1="-40.5" y1="789.2" x2="-39.7" y2="789.2" gradientTransform="translate(-96954.8 4775.3) rotate(86.4) scale(68.8 -123.1) skewX(4.4)" gradientUnits="userSpaceOnUse">
      <stop offset="0" stop-color="#54b6dd"/>
      <stop offset=".3" stop-color="#54b6dd"/>
      <stop offset=".7" stop-color="#54b6dd"/>
    </linearGradient>
    <linearGradient id="linear-gradient11" x1="-40.5" y1="789.3" x2="-39.7" y2="789.3" gradientTransform="translate(-96954.8 4775.3) rotate(86.4) scale(68.8 -123.1) skewX(4.4)" gradientUnits="userSpaceOnUse">
      <stop offset="0" stop-color="#54b6dd"/>
      <stop offset=".3" stop-color="#54b6dd"/>
      <stop offset=".7" stop-color="#54b6dd"/>
    </linearGradient>
  </defs>
  <path class="st1" d="M0,0h512v512H0V0Z"/>
  <path class="st4" d="M136.1,172.2c6.3-7.3,15.6-14.4,25.9-12.3,53.3.4,106.7,0,160,.2,11.9-.1,24.5-1.8,36,2,4.4,4.4,8.8,9.9,11.1,15.9-3.1-1.1-8.6-10.5-10.7-4.4-72.1,2.9-144.7,1.2-216.8.8-6.9-2.1-6.5,6.4-11.5,7.8.5-3.9,3.8-7,6-10Z"/>
  <path class="st4" d="M358.4,173.6c2.1-6.1,7.7,3.3,10.7,4.4,2.4,4.1,6,8.3,6.7,13.2-2.5-2.4-4-6.3-7-7.9-24.6,2.3-49.2,2.2-73.8,2.7-23.3,2.2-46.5-2.7-69.7-.7-8.6,7.1-20.5,6.3-31,8.1-1.9.3-2.8,1.9-3.3,3.6,6.5,2.4,15-.4,21.1,4.2-6.9,6.9-18.9,3.1-27.8,3.5-4.6-.9-3.1-4.7-.3-6.8-8.5,1-17.6-1.7-25.8,1.2-5,8.9-18.2,5.9-26.9,4.7-6.2-4.6,6.4-3.7,6.6-8.9,9.2-3.3,20.2-2.7,30.1-1.8-1.3-5.4-12.2,1.9-15.2-4.7.6-7-9.9-1.6-14.3-3.9-6.3-1.8-7.9,6.9-13.5,7.8,1.4-3.3,2.2-7.7,5.1-9.9,5-1.4,4.6-9.9,11.5-7.8,72.2.5,144.7,2.2,216.8-.8Z"/>
  <path class="st4" d="M295,185.9c24.6-.4,49.3-.4,73.8-2.7,3,1.6,4.4,5.6,7,7.9,2.7,3.8,4,8.4,5.2,12.8-1.7-1.2-3.1-2.9-4.5-4.5-13,3.2-26.8,2.2-40.2,1.9-16.4,1.3-32.9-.2-49.3,1.6-12.8,1.8-25.1-2.3-37.9-.1-18.6-3.6-36.3,3.9-54.7,4.4-4.3,8.3-15.6,5.1-23.2,5.5-2.9-.6-9.3-2.3-6.5-6.1,2.3-2.2,10.2-.5,6.2-4.8-14.1,5.9-30.8,6-45.7,2.8-4.2-1.3-5.4,4.7-7.1,7.4.1-7.1,4.3-14.1,6.9-20,5.5-.9,7.2-9.6,13.5-7.8,4.3,2.3,14.9-3.1,14.3,3.9,3,6.6,13.9-.6,15.2,4.7-9.9-.8-20.9-1.5-30.1,1.8-.2,5.2-12.9,4.3-6.6,8.9,8.7,1.2,22,4.3,26.9-4.7,8.2-2.9,17.3-.3,25.8-1.2-2.7,2.1-4.3,6,.3,6.8,8.9-.4,20.9,3.4,27.8-3.5-6.1-4.6-14.5-1.9-21.1-4.2.6-1.6,1.4-3.2,3.3-3.6,10.4-1.8,22.4-.9,31-8.1,23.3-2,46.4,2.9,69.7.7Z"/>
  <path class="st4" d="M336.3,201.4c13.4.3,27.2,1.3,40.2-1.9,1.4,1.6,2.7,3.2,4.5,4.5,3.9,9.3,5.3,20.2,5.9,30.3-1.7-1.7-2-6.4-5.2-4.8-12.8,4.1-28.7-2.3-38.9,8.4,5.5,2.4,12.5-1.1,17.4,2.8-6.7,3.8-15.9,3.3-23.1,1.1-.2-2.7,3.7-2,5.2-3.7-6.5-2.8-17.2,1.8-21.4-6.1-4.8-2.6-11.1,1.4-16.3-.4-8.5,1.4-9.8-10.8-17.8-10.5-6.4-3.8-12.4-8.6-19.8-10.2-9.6-3.3-19.9-3.7-29.7-.9-11.6.4-19.9,12.5-31.7,10.4-13.1-1.7-26,2.7-39.2,1-15.4,2.4-31.4-6.2-46.1.8-3.1,3.3-4.9,7.6-6.2,11.9v-1c-.1-7.1,1.2-14.4,4-21,1.7-2.7,2.9-8.7,7.1-7.4,15,3.2,31.6,3.1,45.7-2.8,4,4.3-3.9,2.6-6.2,4.8-2.8,3.9,3.6,5.5,6.5,6.1,7.6-.5,18.9,2.8,23.2-5.5,18.4-.5,36.1-8.1,54.7-4.4,12.9-2.2,25.2,1.9,37.9.1,16.4-1.8,32.9-.3,49.3-1.6Z"/>
  <path class="st2" d="M237.2,210.1c9.8-2.9,20.1-2.5,29.7.9,1.4,12.4,9.8,22.1,15.3,32.8,6.9,3.4,14.2,6,20,11.6-2,3.4-6.1,0-8.7-.7.3-2.1.6-4.3-1.7-5.5-6.6,0-13.2,1.1-19.8.9.1,1.5,3.2,3.9.7,4.4-15.1,3.1-24.9,18.6-24.8,33.4-2,.7-2.4-1.6-3.1-2.9-1-9.9,2.8-19,6.1-28.1-3.7-12.3-13.4-21.5-18.7-33-1.4-3.2-3.3-6.3-6.2-8.4,3.7-2,7.8-3.3,11.4-5.5Z"/>
  <path class="st8" d="M205.6,220.5c11.7,2.1,20.1-10,31.7-10.4-3.6,2.2-7.7,3.5-11.4,5.5-3.4,2.1-6.8,4.4-9.8,7.1-3.9,2.5-6.1,6.8-8.8,10.4-4,3.3-8.6,6.6-14.2,5.8-10.6-.4-21.1,1.1-31.7.5-6.6-.8,2.1,4.9-.3,8.7l-1-.4v-.9c1-3.1-2.7-5.2-3.2-1.3-.8,1.6-1.5,3.1-2.2,4.8-.4-2.3.2-4.6.5-6.8-5.9,1.9-11-3.5-17-1.9-6.5,1.3-12.9-2.7-19.2,0-1.6.5-3.3.2-4.9-.3,0-1.7,0-5.2.1-6.9,1.3-4.3,3.1-8.6,6.2-11.9,14.7-7,30.8,1.6,46.1-.8,13.1,1.7,26-2.6,39.2-1Z"/>
  <path class="st7" d="M266.9,210.9c7.4,1.6,13.5,6.4,19.8,10.2,6.3,7.1,11.7,15,15,24,.4,2.6,1.1,5.2,1.7,7.8-.3.6-1,1.9-1.4,2.5-5.7-5.5-13-8.1-20-11.6-5.5-10.8-13.8-20.4-15.3-32.8Z"/>
  <path class="st4" d="M334.3,213.3c10.2,0,21.2-1.8,31,1.4,3.5,3.9-5.8,3-7.4,4.1-12.3,0-23.6,4.1-35.7,5.2.3,1.6,1.6,3.9-.5,4.8-6.4.9-13.9,2.9-19.6-1,.8-6.6,15.8.7,15.6-6.2,4.9-1.6,10.9,0,16.1-.8,2.6-1.9-1.8-2.5-2.7-4.1-.9-2.1,1.8-2.7,3.2-3.5Z"/>
  <path class="st4" d="M286.8,221.1c8-.3,9.3,11.9,17.8,10.5,5.3,1.8,11.6-2.2,16.3.4,4.2,7.9,14.9,3.3,21.4,6.1-1.5,1.7-5.4,1-5.2,3.7,7.2,2.3,16.4,2.7,23.1-1.1-4.9-3.9-12-.4-17.4-2.8,10.2-10.8,26.1-4.4,38.9-8.4,3.2-1.6,3.5,3.1,5.2,4.8.1,6.6.2,13.2,0,19.8-5.2-10.3-17-2.5-25.9-3.1-8.1,1.7-15.9-2.6-24-.3-11.5-1.5-27.1,5.3-35.2-5.7-3.3-9-8.7-16.9-15-24Z"/>
  <path class="st13" d="M193,238.9c5.6.8,10.2-2.5,14.2-5.8-1.4,3.4-3.9,6.3-4.4,10-1.3,4.2-1.8,8.6-2.9,12.9-10.2.9-20.5,2.2-30.7,1.2-.1.7-.3,2-.4,2.7-5.3-1.6-7-7-7.8-11.9,2.4-3.8-6.3-9.4.3-8.7,10.6.5,21.1-1,31.7-.5Z"/>
  <path class="st4" d="M301.8,245.1c8.1,11,23.7,4.2,35.2,5.7,8.1-2.3,15.9,2,24,.3,8.9.6,20.7-7.2,25.9,3.1,0,1.9,0,3.9.1,5.8-1,2.6.9,10.8-1.8,11.8-1-4-3.5-9.4-8.9-6.5-22.9,6.8-46.7-.1-69.9,2-2.1,2.7-3,6.2-5.2,8.9.2-1.4.5-2.8.7-4.2.4-2.9,1-5.9,1.3-8.8.3-3.4,1.3-7,.3-10.4-.6-2.6-1.3-5.1-1.7-7.8Z"/>
  <path class="st0" d="M271.9,250.1c6.6.2,13.2-1,19.8-.9,2.2,1.1,2,3.4,1.7,5.5,2.7.8,6.7,4.1,8.7.7.3-.6,1-1.9,1.4-2.5,1,3.4,0,6.9-.3,10.4-4.7,1.7-8.6-1.2-12.8-2.5-15.9-5.7-33.5,7.2-36.5,23-1.2,2.4-.2,9.8-4.9,8.8-3.5,1-4.1-2.1-4.8-4.8-.3-.9-.6-1.7-1-2.6h1.6c.7,1.3,1.1,3.6,3.1,2.9,0-14.8,9.8-30.3,24.8-33.4,2.5-.5-.6-3-.7-4.4Z"/>
  <path class="st15" d="M169.2,257.2c10.2,1,20.5-.3,30.7-1.2.2,4.1.2,8.3,1.8,12.1.2.4.5,1.3.7,1.7-1,1.5-2.7,2.3-3.5,4-3.7,9.7-17.8,3.3-21.1-3.7-.7-5.2-4.3-8.7-9.1-10.2.1-.7.3-2,.4-2.7Z"/>
  <path class="st3" d="M253.8,283.7c3-15.8,20.6-28.8,36.5-23,4.2,1.4,8.1,4.3,12.8,2.5-.3,3-.8,5.9-1.3,8.8-8.7-6.6-20.8-9.7-30.9-4.1-5.1,2.2-6.4,9.3-12.3,10-1.3.8-1.5,2.4-1.8,3.7-.6,1.8-1.2,3.5-2,5.2-2.7,2.7.3,12.9-4.9,10.1-.3-1.4-.6-2.7-1-4.1v-.5c4.7,1,3.6-6.4,4.8-8.8Z"/>
  <path class="st10" d="M271,268c10.1-5.7,22.2-2.6,30.9,4.1-.2,1.4-.5,2.8-.7,4.2-.7,1.3-1.3,2.6-1.9,4,.9-5.8-6.2-6.3-10.1-8.3-9.2-1.8-21.5,1.7-24.5,11.8-1.6,3.1-3-1.7-4.5-2.8-.5-1-1-1.9-1.4-2.9,5.9-.7,7.2-7.8,12.3-10Z"/>
  <path class="st12" d="M376.3,265.3c5.4-2.8,7.9,2.6,8.9,6.5-.5,2.7-.3,9.5-1.8,9.8-3.6-6.4-7.2,2-11.9.9-20.2-.2-40.4,2.1-60.6.4-6.1-1.3-11.2,2.2-16,5.2.5-1,.9-2,1.4-3,.9-1.7,2-3.3,2.8-5,.6-1.3,1.2-2.6,1.9-4,2.2-2.6,3.1-6.1,5.2-8.9,23.2-2.1,47,4.8,69.9-2Z"/>
  <path class="st9" d="M264.6,283.6c3-10.1,15.3-13.6,24.5-11.8,3.9,2,11,2.5,10.1,8.3-.8,1.7-1.9,3.3-2.8,5-3.6-12.4-26.7-7.9-25.4,4.9,2.8,6.9-1.7,6.2-5.6,5.3h-.8c-.5,0-1.5.5-2,.7,0-4.5-.5-9.1-2.3-13.3,0-.5-.1-1.4-.2-1.9,1.5,1.1,2.9,5.9,4.5,2.8Z"/>
  <path class="st6" d="M271.1,290c-1.3-12.8,21.8-17.2,25.4-4.9-.5,1-.9,2-1.4,3-1.3,1.2-2.6,2.4-3.7,3.7-.5,1-.9,2.1-1.3,3.2-1.1,1.6-2.5,2.4-4,.9-2.8-2.4-2,2.9-2.9,4.5-3.3-1.4-1.7-6.1-3.7-8.7-.8-1.4-.7-4.6-3.1-3.5-1.4,2.9-.9,6.8-3,9.2-2.7-.4-6.4.8-7.7-2.1,3.8.9,8.3,1.6,5.6-5.3Z"/>
  <path class="st5" d="M371.6,282.6c4.6,1,8.2-7.4,11.9-.9-2.1,7.6-4.9,14.9-7.6,22.2-7.9.4-15.9,1.1-23.8.1-3.4-3.9-10.2-1.7-14.7-2.7-6.6,2.7-12.9-3.1-19.3-.3-4.8,2.3-9.7-2.6-14.6-.6-4.2,2.2-9,2.3-9.2-3.5-.4-1.9-.7-4.4-2.8-5,1.1-1.3,2.4-2.5,3.7-3.7,4.8-3,9.9-6.5,16-5.2,20.2,1.7,40.4-.5,60.6-.4Z"/>
  <path id="path-49_1" class="st11" d="M295,288.1c-1.3,1.2-2.6,2.4-3.7,3.7-.5,1-.9,2.1-1.3,3.2-1.1,1.6-2.5,2.4-4,.9-2.8-2.4-2,2.9-2.9,4.5-3.3-1.4-1.7-6.1-3.7-8.7-.8-1.4-.7-4.6-3.1-3.5-1.4,2.9-.9,6.8-3,9.2-2.7-.4-6.4.8-7.7-2.1h-.8c-.5,0-1.5.5-2,.7,0-4.5-.5-9.1-2.3-13.3,0-.5-.1-1.4-.2-1.9-.5-1-1-1.9-1.5-2.9-1.3.8-1.5,2.4-1.8,3.7-.6,1.8-1.2,3.5-2,5.2-2.7,2.7.3,12.9-4.9,10.1-.3-1.4-.6-2.7-1-4.1v-.5c-3.6,1-4.2-2.1-4.9-4.8-.3-.9-.6-1.7-1-2.6h1.6c-1-9.9,2.8-19,6.1-28.1-3.7-12.3-13.4-21.5-18.7-33-1.4-3.2-3.3-6.3-6.2-8.4,3.7-2,7.8-3.3,11.4-5.5,9.8-2.9,20.1-2.5,29.7.9,1.5,12.4,9.8,22.1,15.3,32.9,6.9,3.4,14.2,6,20,11.6.3-.6,1-1.9,1.4-2.5,1,3.4,0,6.9-.3,10.4-.3,3-.8,5.9-1.3,8.8-.2,1.4-.5,2.8-.7,4.2-.7,1.3-1.3,2.6-1.9,4-.8,1.7-1.9,3.3-2.8,5-.5,1-.9,2-1.4,3h0ZM247.8,288c0-14.8,9.8-30.3,24.8-33.4-15.1,3.1-24.9,18.6-24.9,33.4h0ZM272.6,254.6c2.5-.5-.6-3-.7-4.4.1,1.5,3.2,3.9.7,4.4ZM293.4,254.7c2.7.8,6.7,4.1,8.7.7-2,3.4-6,0-8.7-.7Z"/>
  <path id="path-5_1" class="st14" d="M295,185.9c24.6-.4,49.3-.4,73.8-2.7,3,1.6,4.5,5.6,7,7.9,2.7,3.8,4,8.4,5.2,12.8,3.9,9.3,5.3,20.2,5.9,30.3-1.7-1.7-2-6.4-5.2-4.8-12.8,4.1-28.7-2.3-38.9,8.4,5.5,2.4,12.5-1.1,17.4,2.8-6.7,3.8-15.9,3.3-23.1,1.1-.2-2.7,3.7-2,5.2-3.7-6.5-2.8-17.2,1.8-21.4-6.1-4.8-2.6-11.1,1.4-16.4-.4-8.5,1.4-9.8-10.8-17.8-10.5-6.4-3.8-12.4-8.6-19.8-10.2-9.6-3.3-19.9-3.7-29.7-.9-11.6.4-19.9,12.5-31.7,10.4-13.1-1.7-26,2.7-39.2,1-15.4,2.4-31.4-6.2-46.1.8-3.1,3.3-4.9,7.6-6.2,11.9v-1c-.1-7.1,1.2-14.4,4-21,.1-7.1,4.3-14.1,6.9-20,5.5-.9,7.2-9.6,13.5-7.8,4.4,2.4,14.9-3.1,14.3,3.9,3,6.6,13.9-.6,15.2,4.7-9.9-.8-20.9-1.5-30.1,1.8-.2,5.2-12.9,4.3-6.6,8.9,8.7,1.2,22,4.3,26.9-4.7,8.2-2.9,17.3-.3,25.8-1.2-2.7,2.1-4.3,6,.3,6.8,8.9-.4,20.9,3.4,27.8-3.5-6.1-4.6-14.5-1.9-21.1-4.2.6-1.6,1.4-3.2,3.3-3.6,10.4-1.8,22.4-.9,31-8.1,23.3-2,46.4,2.9,69.7.7h0Z"/>
  <g>
    <path class="st87" d="M77,61.6c24-31.1,66-46.5,104.7-41.1,26.6,3.8,52.1,17.2,69.7,37.6-4.2-2.1-6.8-6.3-11-8.3-47.4-.5-94.9.5-142.3-.5-8.9-.8-14.7,7.7-21.1,12.3Z"/>
    <path class="st87" d="M77,61.6c6.4-4.5,12.2-13.1,21.1-12.3,47.4,1,94.9,0,142.3.5,4.2,2,6.9,6.2,11,8.3,2,1,3,3.2,4.2,5-9.7-3.2-20.2-1.8-30.2-1.7-44.7-.1-89.5.2-134.2-.1-8.7-1.8-16.5,4.2-21.8,10.3.9-4,4.6-7.3,7.5-10.1Z"/>
    <path class="st87" d="M110,83c6.2-.9,12.6-.8,18.7.5,1.4.6,1.4,2.7-.3,2.7-12.6,1.5-25.3,1.6-37.9.4-1.4-.6-1.4-2.7.4-2.7,6.3-1.1,12.8,0,19.1-.8Z"/>
    <path class="st16" d="M136.5,114.1c2.6-2.2,5.3-4.2,8.2-5.9,2.4,1.8,4,4.3,5.2,7,4.5,9.6,12.6,17.4,15.7,27.7-2.7,7.6-5.9,15.2-5.1,23.5h-2c-1.4-5.5-.7-11.2-1.2-16.7-3.8-12.2-14.8-20.8-17.8-33.3-.4-1.4-1.9-1.7-2.9-2.3Z"/>
    <path class="st16" d="M136.5,114.1c1.1.6,2.5.9,2.9,2.3,3,12.5,14.1,21.2,17.8,33.3.5,5.5-.2,11.3,1.2,16.7-1,1.4-2.5,2.1-3.9.7-2.2-5.5-5.4-10.5-8.3-15.6-3.9-4.1-10.4-1.3-15-3.6,2.4-3.2,9.8,1.4,10.1-4.1-3.4-5.3-7.4-10.2-10.4-15.7-2.5-1.5-4,1.8-5.6,3.1.4-3.1,2.5-5.6,3.7-8.4,2.3-3.1,4.1-6.6,7.4-8.7Z"/>
    <path class="st87" d="M244.2,115.5c8.6.3,17.9-2.1,26.3.8,2.3.7,0,2.2-1.1,2.5-8.9,1.1-18,1.1-26.9.3-3.2-1.7-.9-3.5,1.8-3.7Z"/>
    <path class="st73" d="M51,147.1c-.7-5.6-2.4-19.2,0-24.2v.9c0,1.5,0,4.4,0,5.8,0,5.8.1,11.7,0,17.5Z"/>
    <path class="st103" d="M279.8,123.9c1.3,4.1,1.9,16.7.1,21.5,0-1.6,0-3.3,0-4.9,0-5.6,0-11.1,0-16.6Z"/>
    <path class="st16" d="M125.5,131.2c1.6-1.4,3.1-4.6,5.6-3.1,3,5.5,7,10.4,10.4,15.7-.3,5.5-7.7.8-10.1,4.1,4.6,2.3,11.1-.4,15,3.6,2.9,5.1,6.1,10.2,8.3,15.6-1.7,1.6-1.2,4.6-2.9,5.9-.6-1.9-1.1-4-1.6-6,0-4.2-6.7-3.1-5-8.5-.3-2.8-3.4-2.8-3.8,0-2,2.5.5,8.9-3.8,7.8-1.1-1.2-1.3-5.6-3.3-3.1-4.5,4.5-5.2-5.6-5.9-8-.4-2.2-1.1-5.3-3.8-3-1.3-3.2-1.3-6.8-1.5-10.2.9-3.6,1.4-7.3,2.4-10.9Z"/>
    <path class="st70" d="M55,129.8c5.3-2.2,10.7,1.2,16.1,0,5-1.4,9.3,3.2,14.2,1.6-.2,1.9-.7,3.8-.4,5.7-.2,1.8-.7,3.5-1.1,5.3-2.4-.3-4.9-.2-7.1-1.4-.4-1.1-1,.3-1.4.6-5.9,7.7-14.8,11.4-24.4,9.6,0-1.4,0-2.8,0-4.2.1-5.8,0-11.7,0-17.5,1.3.4,2.7.7,4.1.2Z"/>
    <path class="st101" d="M86.9,133.2c.4-3.2,3.5-1.5,2.6,1.1-.8-.6-1.7-.9-2.6-1.1Z"/>
    <path class="st108" d="M86.9,133.2c1,.1,1.8.5,2.6,1.1v.8c-.3,5.4,3,10.8,8.3,12.1,3.4.8,4.4,4.5,6.7,6.7.5,8.1,18.3,13.6,17.7,3.1.6-1.4,2.1-2.1,2.9-3.3,1.2.4,2.2.9,3.2,1.6-3,3.9,4,16.8,6.7,8.5,1.1,2.9,2,6.2,6.3,4.1.9-1.1,2-1.2,3.1-.5,2.3,1.3,3.6-4.1,5.6-.3-.5,3-.9,6.4,2.3,7.8,1.7-1.2,1.3-4.2,2-6.1.7,1.8,1.1,3.7,2.1,5.4.9-2.1.3-6.9,3.5-5.5-.6,3.5,1,9.9,4.1,4.4.3,1.1.6,2.3.8,3.4-1.7,4.8,8.9,3,6.1-.1-5.3-.6,1.3-5.8-2.1-8.3.6-1.4,1.2-2.9,1.7-4.4,1.1-.5,2,.3,2.9.8,0,4.3,0,8.5,0,12.8,1.4.3,2.5,0,2-1.6.4-.2,1.3-.5,1.7-.7-.3,4,4.7,2.7,7.2,1.8,1.8-2,1.4-5.3,2.5-7.7,2-.9,2,1.8,2.6,3,0,2.6.2,5.1,0,7.7.6,1.3,3.4,1.6,3.1-.3.8-1.4,0-5.8,2.4-3.8-.6,3.9,3.6,6,3.5,1,1.2-2.7,2.4-1.4,3.3.8,0,2.4.4,6.4,3.6,4.6,6.9-3.4,14.3.7,21.5-1,7.8.4,15.7.7,23.5,1.5,6.6,4.3,14.5,1.3,21.7.7,1.9.8,3.6,1.9,5.3,2.9,1.6,1.1,4,1.1,5.7,0,1.7-.8,3.4-1.6,5.2-2,4.5.8,3.4-3-.3-2.3.3-.3.9-.7,1.1-1,2.1-1.3,2.2-3.9,1.8-6.1,0-1.9.4-4.1,1.5-5.7,2.3.4,1.8,3.9,2.3,5.9-1.3,3.6,1.1,8.1,2.5,2.6,1.6-5.3,4,3.5,4.7,5.7-.4,1-1.1,2.7.3,3.2,4.5,2.4,2.3-8.7,7.5-8.2,1.3,3,2.5,6.1,3.5,9.2.6,2-2.6,1.5-.7,3.5.4,1.4,1.8,1.6,3.1,1.6h.8c2.6.6,5.2,1.1,7.8,1.7.4.2,1.3.7,1.8.9-.3,2.2.6,6-4.3,3.2-101.9-.3-203.8.5-305.7-.4-5.3-.1-3.3-6.8-3.8-10.5.4-1,1.3-1.6,1.9-2.4,1.4-4.5.9-9.5-.2-14.1,1.2-1.7,2.3-3.8,4.4-4.4,1,0,1.8-.6,2.4-1.4.5-.3,1.4-.8,1.9-1.1,2,.4,3.7-1.1,3.1-3.2-.2-1.8.2-3.6,1-5.2,2.4.7,1.4,4,2.4,6,.4,1.6,2.1.2,2.5-.6.9-1,1.8-1.9,2.8-2.8.8-.6,1.5-1.4,1.7-2.4.8-1.1-.2-2-1-2.5,1-3.3,1.7-6.7,2.6-10.1,2.7,0,1.9,4.8,3.2,6.9,0,1.5,0,2.9,0,4.4-1.5.2-1.7.7-.8,1.5.7,1.1,2.4.8,3.3,0,1.7-.9,3.1-2.2,4.5-3.7l.7-.2c10,2.2,22.6.2,26.9-10.4.4-.2,1-1.7,1.4-.6.2,3.8,4.9,3.3,7.1,1.4,4-.8,2.2-6.3,3-9.3Z"/>
    <path class="st62" d="M85,137.2c.6-1.3,1.2-2.7,1.9-4-.7,3,1,8.5-3,9.3.4-1.8.8-3.5,1.1-5.3Z"/>
    <path class="st93" d="M89.6,135.1l.8.3c.7,4.1,2,8.6,6.5,9.9,4,1.2,7,4.1,7.6,8.5-2.3-2.2-3.3-5.9-6.7-6.7-5.3-1.4-8.6-6.8-8.3-12.1Z"/>
    <path class="st98" d="M76.9,141.1c2.2,1.1,4.7,1,7.1,1.4-2.2,1.9-6.9,2.4-7.1-1.4Z"/>
    <path class="st109" d="M51,151.3c9.6,1.8,18.5-1.9,24.4-9.6-4.3,10.6-16.9,12.6-26.9,10.4.1-.9,1-1.2,2.5-.8Z"/>
    <path class="st22" d="M40.9,149.8c1.6.4,2.2,4.4,0,4.4,0-1.5,0-2.9,0-4.4Z"/>
    <path class="st31" d="M124.5,152.2c2.7-2.3,3.4.8,3.8,3-1-.7-2.1-1.2-3.2-1.6-.1-.4-.4-1.1-.6-1.4Z"/>
    <path class="st107" d="M43.4,155.8c.7-1.8,2.2-4,4.5-3.7-1.3,1.4-2.7,2.8-4.5,3.7Z"/>
    <path class="st86" d="M36.2,155.6c-1.2,0-3-2.3-1-2.5.9.6,1.8,1.4,1,2.5Z"/>
    <path class="st81" d="M104.5,153.9c2.7,5.9,14.6,11.2,17.7,3.1.7,10.5-17.2,5-17.7-3.1Z"/>
    <path class="st55" d="M34.5,158c-1-1,.4-3,1.7-2.4-.2,1-.9,1.8-1.7,2.4Z"/>
    <path class="st102" d="M40.1,155.8c1.1-.8,2.2-.7,3.3,0-.9.7-2.6,1.1-3.3,0Z"/>
    <path class="st42" d="M76.3,155.8c4.8,0-.2,4.6,0,0Z"/>
    <path class="st80" d="M128.3,155.3c.7,2.3,1.4,12.5,5.9,8,2-2.5,2.2,1.9,3.3,3.1,4.3,1,1.9-5.4,3.8-7.8-.3,3.1-.6,6.3,0,9.4-4.4,2.1-5.3-1.2-6.3-4.1-2.7,8.3-9.7-4.6-6.7-8.5Z"/>
    <path class="st23" d="M141.3,158.5c.4-2.8,3.4-2.8,3.8,0-1.2-.3-2.5-.3-3.8,0Z"/>
    <path class="st63" d="M141.3,158.5c1.2-.2,2.5-.2,3.8,0-.2,2.9-.5,5.9-.5,8.9-1.2-.7-2.3-.6-3.1.5-.7-3.1-.3-6.3,0-9.4Z"/>
    <path class="st85" d="M145.1,158.5c-1.7,5.5,5.1,4.3,5,8.5-2-3.7-3.3,1.7-5.6.3,0-3,.4-5.9.5-8.9Z"/>
    <path class="st37" d="M22.7,163.9c.5-1.1,2-2.5,3.1-3.2.6,2-1.1,3.6-3.1,3.2Z"/>
    <path class="st36" d="M29.2,161.5c.6-1,1.5-1.3,2.5-.6-.4.9-2.1,2.3-2.5.6Z"/>
    <path class="st28" d="M170.7,163.6c.3-1.1.5-2.4,1.5-3.1.4.8.8,1.6,1.2,2.4,0,.4.1,1.2.2,1.6-.9-.6-1.8-1.4-2.9-.8Z"/>
    <path class="st104" d="M18.4,166.4c-.7-1.3,1.5-2.5,2.4-1.4-.6.8-1.4,1.5-2.4,1.4Z"/>
    <path class="st76" d="M173.7,164.4c1.6,3.5,1.9,7.3,2,11.1.6,1.7-.6,1.9-2,1.6,0-4.3,0-8.5,0-12.8Z"/>
    <path class="st71" d="M158.6,166.4h.7c.3.7.6,1.4.8,2.2-3.3-1.4-2.6,3.4-3.5,5.5-1.1-1.6-1.4-3.6-2.1-5.4-.7,1.9-.3,4.9-2,6.1-3.2-1.3-2.7-4.8-2.3-7.8.5,2,.9,4,1.6,6,1.7-1.3,1.3-4.3,2.9-5.9,1.4,1.4,2.8.7,3.9-.7Z"/>
    <path class="st97" d="M165,176.4c4.3,2.3,1.8-6.2,4.1-8.5,3.3,2.6-3.2,7.7,2.1,8.3,2.8,3.2-7.9,5-6.1.1Z"/>
    <path class="st56" d="M160.1,168.6c.6,2.2,1.1,4.9,4,4v.4c-3,5.5-4.6-1-4-4.4Z"/>
    <path class="st100" d="M14.2,184.9c1.3-3.9-2-12.1-.2-14.1,1.1,4.6,1.5,9.7.2,14.1Z"/>
    <path class="st32" d="M128.3,171.5c3.9-.8-.8,3.9,0,0Z"/>
    <path class="st33" d="M189.7,172c1.7,2.2.3,6.1,3.1,7.3.3,2-2.5,1.6-3.1.3.2-2.6.1-5.1,0-7.7Z"/>
    <path class="st20" d="M199.7,172.1c1.8.6,2.1,2.6,2.4,4.2v.9c-1-2.1-2.2-3.5-3.4-.8,0-.4,0-1.3,0-1.7.3-.9.7-1.8,1.1-2.7Z"/>
    <path class="st54" d="M177.3,174.9h.7c1.1,2.5,4.2,1.5,6.5,1.8-2.5.8-7.5,2.1-7.2-1.8Z"/>
    <path class="st61" d="M195.2,175.5c1.3,1.3,2.5.6,3.4-.7,0,.4,0,1.3,0,1.7.1,5-4.1,2.9-3.5-1Z"/>
    <path class="st21" d="M289.3,180.8c-1.3-2.1.2-4.8,1.8-6.1.5,2.2.4,4.8-1.8,6.1Z"/>
    <path class="st27" d="M294.9,174.9c1.6-.3.5,2.8,2.5,2.6-1.4,5.5-3.9,1-2.5-2.6Z"/>
    <path class="st89" d="M202.1,176.3c.1,4.9,4.2,4.8,7.7,3,4.1-1.7,8.2,2.4,12.3.5,5.4-2.3,10.7,2.6,16.2.3,3.8.8,9.5-1,12.3,2.3-7.8-.7-15.7-1-23.5-1.5-7.2,1.7-14.6-2.5-21.5,1-3.3,1.8-3.7-2.2-3.6-4.6v-.9Z"/>
    <path class="st94" d="M288.4,184.1c-.3-.5-1.9-2.8-.3-2.3,3.7-.7,4.8,3.1.3,2.3Z"/>
    <path class="st66" d="M293.7,181.6c5.3-.6.3,4.9,0,0Z"/>
    <path class="st30" d="M250.6,182.3c6.6.8,13.3.2,20-.1.4.2,1.3.6,1.7.9-7.2.6-15.1,3.5-21.7-.7Z"/>
    <path class="st50" d="M302.4,186.4c-1.4-.5-.6-2.3-.3-3.2,1.5.3,1.8,2.8.3,3.2Z"/>
    <path class="st75" d="M202.9,185.8c3.9-.8-.8,3.9,0,0Z"/>
    <path class="st65" d="M277.6,186c1.6-.9,4-.9,5.7,0-1.6,1-4.1,1-5.7,0Z"/>
    <path class="st69" d="M14.1,200.2c-3.4-2.6-3.5-10.9-1.8-12.8.4,3.7-1.6,10.3,3.8,10.5,101.9.8,203.8,0,305.7.4,4.9,2.8,4-1,4.3-3.2,1.7,1.7,1.7,3.4-.2,5.2-103.9.8-207.9.8-311.8,0Z"/>
    <path class="st79" d="M312.7,190.9c1-.7,3.2.3,3.1,1.6-1.2,0-2.7-.2-3.1-1.6Z"/>
    <path class="st41" d="M316.5,192.5c2.4,0,6.5-1.1,7.8,1.6-2.6-.5-5.2-1.1-7.8-1.6Z"/>
    <path class="st17" d="M14.1,200.2c103.9.9,207.9.8,311.8,0,1.7,1.1,2.9,4.3,0,4.7-4.2.5-8.2-.7-12.3-.7-12.9-.2-25.8-.2-38.8-.1v1.6c6.9,0,13.8.4,20.7-.2,8.7,1,18-1.3,26.4,1.7-1,1.9-4.3,4-6.6,3.4-11.6-2.6-26.1-.7-38.2.3-2.9-.7-5.9-1.1-8.9-1.2-9.3-3.3-19.3.2-28.8-1.3-1.9-.1-2.9,2.2-4.8,2.1-2.4.4-3.2-3.9-5.6-2.8-2.4,6.6-10.5,1.2-15.6,1.8-5.1.9-10.1-.9-15.2-1.4,5.6-.2,7.5-2.1.4-1.8-9.3-.5-18.9-1.5-28.1,0-3.6,1.4-10.7-2.1-12.5,1.9-9.7,1.7-19.6.4-29.4,1-20.3-1.5-40.5-.4-60.8.5-10.7-2.9-23.2.3-34.6,0-6.9-.9-13.6.6-20.4.7-2.1-1.8-3.3-9.1,1.2-10.3Z"/>
    <path class="st45" d="M274.9,204.1c12.9-.1,25.8-.1,38.8.1-6,.8-12.1.5-18,1.3-6.9.6-13.8.2-20.7.2v-1.6Z"/>
    <path class="st26" d="M313.7,204.2c4.1,0,8.2,1.2,12.3.7-.4,1.3-3.5.7-3.9,2.2-8.5-2.9-17.7-.7-26.4-1.7,6-.8,12.1-.4,18-1.3Z"/>
    <path class="st84" d="M170.7,206.4c9.2-1.5,18.8-.5,28.1,0-9.4.3-18.8.4-28.1,0Z"/>
    <path class="st77" d="M158.1,208.3c1.9-4,8.9-.5,12.5-1.9,9.4.4,18.8.3,28.1,0,7.1-.3,5.2,1.5-.4,1.8-1.6,0-3.2.1-4.9.2-11.8,0-23.6,0-35.4,0Z"/>
    <path class="st43" d="M229.2,207.7c2.5-1.1,3.2,3.3,5.6,2.8,1.9.1,2.9-2.2,4.8-2.1,9.5,1.5,19.5-2,28.8,1.3-9.8.5-20.6-.2-29.8,2.7,12.9.5,25.8-.8,38.7-1.5,12.1-1,26.5-3,38.2-.3-3.7,1.1-7.6,1.7-11.4,2.2-2.6-.9-9.7-.2-4,.8,1.4,1-.4,2.2-.8,3.3-12.7,2.6-25.7,2.5-38.5,2.6-22.3,2.7-44.8,2.4-67.1,4.9.2-.4.6-1.2.8-1.6-7.1.7-14-3-21.2-1.2,2.4,7.4-15.6.4-4.2.9,2-2.8-4.7.2-4.4-1.2-7-2.1-12.5,4.5-19.3,2.8-16.7-.5-34.6,2.6-50.5-2.3-24-3.1-48.3,0-72.4-1.5.9.6,1.9,1.1,2.9,1.6-4.2,1.1-6.3-3.5-9.6-4.4-1.2-1.2-.1-5.3-2.5-6.8,6.8,0,13.6-1.6,20.4-.7,11.4.3,23.9-2.9,34.6,0-3.6.4-7.3.9-10.6,2.5,44.2-4.2,88.5.3,132.9-.6,2.4.7,3.1-1.4,3.3-3.4,1.6,0,3.2-.1,4.9-.2,5.1.5,10.1,2.2,15.2,1.4,5.1-.6,13.2,4.7,15.6-1.8Z"/>
    <path class="st51" d="M68,209.8c20.3-.9,40.5-2,60.8-.5,20.7,1.5,41.5.2,62.2.7-.2.4-.6,1.3-.7,1.7-44.3.9-88.6-3.6-132.9.6,3.3-1.5,7-2.1,10.6-2.5Z"/>
    <path class="st68" d="M128.8,209.3c9.8-.6,19.7.6,29.4-1,11.8,0,23.6,0,35.4,0-.2,1.9-.9,4-3.3,3.4.2-.4.5-1.3.7-1.7-20.7-.5-41.5.8-62.2-.7Z"/>
    <path class="st44" d="M238.6,212.4c9.3-2.9,20-2.2,29.8-2.7,3,0,6,.5,8.9,1.2-12.9.7-25.8,2-38.7,1.5Z"/>
    <path class="st72" d="M300,213.5c-5.6-1,1.4-1.7,4-.8,3.4,1.5,9.8-.8,11.9,1.5-5.3,0-10.7.2-16-.7Z"/>
    <path class="st60" d="M300,213.5c5.3.8,10.6.7,16,.7,4.1.1,8.5-.5,12.5,1,1.2,4.3-7.3-.4-8.8,1.8-11.8,3.3-24.1,5.1-36.3,6.4-9.8.5-19.9-1-29.6.5-1,.2-2,.3-3,.4-12.7.1-25.5.2-38,1.8-.4-.1-1.2-.3-1.6-.5-.3-.2-.8-.7-1-.9,26.7-.9,53.2-4,79.8-4,7.5-1.8,14.9-3.8,22.7-4.2-1.3-3.7-9.2.3-13.4.2.5-1,2.2-2.2.8-3.3Z"/>
    <path class="st91" d="M299.2,216.8c4.1,0,12-3.9,13.4-.2-7.7.4-15.2,2.3-22.7,4.2-26.7,0-53.2,3.1-79.8,4-10.2.7-20.5,1.6-30.8,1.1,1-4.3,10.3-.2,14.2-1.7,22.3-2.5,44.8-2.1,67.1-4.9,12.9,0,25.8,0,38.5-2.6Z"/>
    <path class="st87" d="M15.5,217.3c3.4.9,5.5,5.6,9.6,4.4,23.1,3.6,46.3-1.2,69.6-.1,15.9,4.9,33.8,1.9,50.5,2.3,6.8,1.7,12.4-4.9,19.3-2.8-.2,1.4,6.4-1.5,4.4,1.2-11.4-.5,6.6,6.4,4.2-.9,7.2-1.8,14.1,1.9,21.2,1.2-.2.4-.6,1.2-.8,1.6-3.9,1.5-13.2-2.7-14.2,1.7,10.3.5,20.5-.4,30.8-1.1.3.2.8.7,1,.9-.2.5-.6,1.4-.9,1.9,12.4,0,24.7,0,37.1,0,2.8,0,5.6,0,8.3,0,6.7.4,13.6.6,20,2.5,2.9.2,5.2.7,3.6,3.5-26.9,4.9-54.6-1.2-81.1,5.8-28.3-2.2-56.7,4-85-.5-3.3,1.9-4.5-2.2-7.5-1.6-2.4-3.4-7.7-1.3-11.1-2.3-21.2-2.6-42.6-.6-63.9-2.5,0-1.3.1-2.7.2-4,.3-1.3,1.3-3-.9-2.7-5.2-1.3-16.5.4-14.6-8.5Z"/>
    <path class="st48" d="M22.3,220.1c24.1,1.5,48.4-1.6,72.4,1.5-23.3-1.1-46.4,3.7-69.6.1-1-.5-1.9-1-2.9-1.6Z"/>
    <path class="st88" d="M253.6,223.9c9.8-1.5,19.8,0,29.6-.5-8.3,1.5-19.9,1-29.6.5Z"/>
    <path class="st74" d="M212.7,226.1c12.6-1.7,25.4-1.7,38-1.8-1.1,1-2.4,1.7-3.7,2.4-11.4-.2-23,.9-34.3-.6Z"/>
    <path class="st58" d="M210.2,227.5c.2-.5.6-1.4.9-1.9.4.1,1.2.3,1.6.5,11.4,1.5,22.9.4,34.3.6l.3.8c-12.4.1-24.7.1-37.1,0Z"/>
    <path class="st40" d="M247,226.7c2.3.8,7.4-1.2,8.7.9-2.8,0-5.6,0-8.3,0l-.3-.8Z"/>
    <path class="st39" d="M28,233.7c-1.6-2.3,1.1-4.4,3-5.3-.1,1.3-.2,2.7-.2,4-2.9-.3-2,6,2.6,1.9,21.8,1.6,43.7-.4,65.4,2.5-.7,1.2-.2,3.6-1.5,4.1-.4-1.9-2.5-2.2-4-2.6-12-2.3-24.2-1.1-36.3-1.4-4.3,0-8.6-.5-12.8.5-5,0-13.3,2.5-16-3.6Z"/>
    <path class="st29" d="M275.6,230.1c6,.3,12,1.2,17.6,3.6.8,2.2-1,2.6-2.8,2.8-25.3,1-50.5,4-75.7,4.8-7.8.7-15.3,3.5-23.1,3.9,3.4-.3,1.1-2,1.4-3.3,6.7,1.2,13-2.6,19.5-3.7,11,0,22.2,1.2,33.2-.3,14.4-1.2,28.8-1.9,43.1-3.9,0-1.7-7.2-.2-9.7-.5,1.6-2.8-.7-3.3-3.6-3.5Z"/>
    <path class="st49" d="M33.4,234.3c-4.6,4.2-5.5-2.1-2.6-1.9,21.3,1.9,42.7,0,63.9,2.5,3.4,1,8.7-1.1,11.1,2.3-2.3.2-4.6-.4-7-.5-21.7-2.8-43.6-.9-65.4-2.5Z"/>
    <path class="st34" d="M198.1,239.3c26.5-7,54.2-.9,81.1-5.8,2.5.4,9.7-1.1,9.7.5-14.3,1.9-28.7,2.6-43.1,3.9-11,0-22.3-1.2-33.2.3-6.5,1.1-12.7,4.9-19.5,3.7,1.6-1,3.3-1.8,5-2.6Z"/>
    <path class="st99" d="M44,237.3c4.2-1,8.6-.4,12.8-.5-2.6,1.9-8.7.8-12.8.5Z"/>
    <path class="st38" d="M98.7,236.8c2.3.1,4.6.7,7,.5,3-.6,4.2,3.5,7.5,1.6,28.3,4.5,56.7-1.7,85,.5-1.7.7-3.4,1.5-5,2.6-.3,1.3,2,3-1.4,3.3-.5.2-1.5.6-1.9.8-2.5.2-5.2.3-7.5,1.5,4.9.3,9.7.3,14.6.3,16.5,0,33,0,49.5,0,2.5,0,5,.3,7.5,1,.3,3.1-4.8,1.9-6.7,2.4-21,.4-42.2-.9-63.1.5-12.5.6.7,1.5,5.3,1.2v.8c-1.2,0-2.3,0-3.5.2,4.1,5.4,12.2-.4,17.9,2.7-17.5,1.9-36.7,4.8-54.1.1-32.8-.5-65-.8-97.8-.4-2.9-.1-5.8-3.3-8.5-.8-.5-8.5,11.3-4.5,15.3-9.1-.6,0-1.9-.2-2.6-.3,12.1-2,27.7-3.7,41.1-5.1,1.3-.5.9-2.8,1.5-4.1Z"/>
    <path class="st83" d="M212.6,238.2c10.9-1.5,22.2-.3,33.2-.3-11,1.4-22.2.2-33.2.3Z"/>
    <path class="st47" d="M42.6,257.7c-6.4-7.7,7.4-12.2,13.5-11.8.7,0,1.9.2,2.6.3-4,4.6-15.8.6-15.3,9.1,2.7-2.5,5.5.6,8.5.8,32.8-.3,65.1,0,97.8.4,17.4,4.7,36.6,1.7,54.1-.1-5.7-3.1-13.8,2.7-17.9-2.7,1.2,0,2.3-.1,3.5-.2,7,0,14.1.2,21.2-.2,6.9,0,13.8.8,20.6,1,4.9,1.4,11.5-.2,15.4,3.2-3.2,0-6.2,1.1-9.4,1-4.6,0-9.1,0-13.6.6-2.2.2-4.3.2-6.5.3-4.6,0-9.1,0-13.6.6-1.4,0-4.2.2-5.6.2-4.8,0-9.7-.3-14.5.6-.6,0-1.7.2-2.2.3-9.2,0-18.4,0-27.7,0-.2-.2-.7-.5-1-.7.3-.2.8-.7,1.1-1-4.5,0-9,0-13.3-1.1-12.3-.9-25-1.5-37.3,0-19.6-.1-39.4,1.5-58.9-.7-.3,0-.9,0-1.3,0Z"/>
    <path class="st106" d="M182.3,247.5c2.3-1.2,4.9-1.3,7.5-1.5,2.3.3,4.7.7,7.1,1v.8c-4.8,0-9.7,0-14.6-.3Z"/>
    <path class="st19" d="M196.9,247c16.5-.2,33-.1,49.5,0v.8c-16.4,0-32.9,0-49.4,0v-.8Z"/>
    <path class="st35" d="M105.5,250.2c3.9,1,9.9-2.1,12.8,1.5-3.5-1-11.3,3.1-12.8-1.5Z"/>
    <path class="st90" d="M184.1,251.6c20.9-1.4,42.1,0,63.1-.5-3.4,2-10.3.4-15.1.8-16-.2-32,.4-48-.3Z"/>
    <path class="st46" d="M189.3,252.7c-4.6.4-17.8-.5-5.3-1.2,16,.7,32,.2,48,.3-.3.8-.6,1.7-.9,2.5-6.9-.3-13.8-1-20.6-1-7-.9-14.1-.7-21.2-.6Z"/>
    <path class="st18" d="M189.3,252.7c7.1,0,14.1-.3,21.2.6-7,.4-14.1.2-21.2.2v-.8Z"/>
    <path class="st24" d="M43.8,257.6c19.5,2.2,39.3.6,58.9.7,12.4.4,24.9.3,37.3,0,4.4,1,8.9,1,13.3,1.1-.3.2-.8.7-1.1,1-8.1-.3-16.1-.3-24.2-.2-26.8-1.2-53.6.7-80.4,0-1.6-.2-2.7-1.6-3.9-2.6Z"/>
    <path class="st25" d="M42.6,257.7c.3,0,1,0,1.3,0,1.2,1,2.3,2.4,3.9,2.6,26.8.8,53.6-1.1,80.4,0,0,.4,0,1.2,0,1.6-3.9.1-7.8,0-11.7,0-8.4,0-16.8,0-25.1,0-1.3,0-2.7,0-4-.2-7.3-.5-15.1-1.6-22.2,0-6.7,1.6-18.9,2.9-22.5-4.1Z"/>
    <path class="st82" d="M102.7,258.3c12.3-1.4,25-.8,37.3,0-12.5.2-24.9.3-37.3,0Z"/>
    <path class="st67" d="M223.5,259.2c4.5-.6,9.1-.6,13.6-.6-2.6,2.3-9.7,0-13.6.6Z"/>
    <path class="st92" d="M203.4,260c4.5-.6,9.1-.6,13.6-.6-2.6,2.3-9.7,0-13.6.6Z"/>
    <path class="st64" d="M128.1,260.3c8.1,0,16.1-.1,24.2.2.3.2.8.5,1,.7v.7c-8.3,0-16.8.2-25.2,0,0-.4,0-1.2,0-1.6Z"/>
    <path class="st95" d="M183.2,260.8c4.8-.8,9.7-.5,14.5-.6-3.1,2-10,.5-14.5.6Z"/>
    <path class="st53" d="M65.1,261.8c7.1-1.7,14.9-.6,22.2,0-7.4.3-14.8.5-22.2,0Z"/>
    <path class="st105" d="M153.3,261.2c9.2,0,18.4,0,27.7,0-7.6,1.9-18.6.5-27.6.8v-.7Z"/>
    <path class="st52" d="M91.2,262c8.4,0,16.8,0,25.1,0-6.4,1.4-18.7,1.4-25.1,0Z"/>
    <path class="st59" d="M202.8,169c-1.1,1-2.2,2-3.1,3.1-.4.9-.8,1.8-1.1,2.7-.9,1.3-2.1,2-3.4.7-2.3-2-1.6,2.4-2.4,3.8-2.8-1.2-1.5-5.1-3.1-7.3-.6-1.2-.6-3.9-2.6-3-1.2,2.4-.7,5.7-2.5,7.7-2.3-.4-5.4.7-6.5-1.7h-.7c-.4,0-1.3.4-1.7.6,0-3.8-.4-7.6-2-11.1,0-.4-.1-1.2-.2-1.6-.4-.8-.8-1.6-1.2-2.4-1.1.7-1.2,2-1.5,3.1-.5,1.5-1,2.9-1.7,4.4-2.3,2.3.2,10.8-4.1,8.5-.2-1.1-.5-2.3-.8-3.4v-.4c-3,.8-3.5-1.8-4.1-4-.3-.7-.5-1.5-.8-2.2h1.3c-.8-8.3,2.4-16,5.1-23.5-3.1-10.3-11.2-18.1-15.7-27.7-1.2-2.7-2.8-5.3-5.2-7,3.1-1.7,6.5-2.8,9.6-4.6,8.2-2.4,16.8-2.1,24.9.7,6.2,1.3,11.3,5.4,16.6,8.5,5.3,6,9.8,12.6,12.6,20.1.4,2.2.9,4.3,1.4,6.5.8,2.9,0,5.8-.3,8.7-.3,2.5-.7,4.9-1.1,7.4-.2,1.2-.4,2.3-.6,3.5-.6,1.1-1.1,2.2-1.6,3.3-.7,1.4-1.6,2.8-2.4,4.2-.4.8-.8,1.7-1.2,2.5h0ZM192,131.8c5.8,2.9,11.9,5.1,16.7,9.7-4.8-4.6-10.9-6.8-16.7-9.7Z"/>
    <path id="path-13_1" class="st57" d="M195.8,112.8c6.7-.2,7.8,10,14.9,8.8,4.4,1.5,9.7-1.8,13.7.4,3.5,6.6,12.5,2.8,18,5.1-1.2,1.4-4.5.9-4.4,3.1,6.1,1.9,13.7,2.3,19.4-.9-4.1-3.3-10-.3-14.6-2.3,8.5-9,21.9-3.7,32.6-7.1,2.7-1.4,2.9,2.6,4.4,4,.1,5.5.1,11.1,0,16.6,0,1.6,0,3.2,0,4.9-.9,2.2.7,9-1.5,9.9-.4,2.3-.3,8-1.5,8.2-1.7,6.3-4.1,12.5-6.4,18.6-6.7.3-13.3.9-20,.1-2.8-3.3-8.5-1.5-12.3-2.3-5.5,2.3-10.8-2.6-16.2-.3-4.1,1.9-8.1-2.2-12.3-.5-3.5,1.8-7.6,2-7.7-3-.3-1.6-.6-3.7-2.4-4.2.9-1.1,2-2.1,3.1-3.1.4-.8.8-1.7,1.2-2.5.8-1.4,1.7-2.7,2.4-4.2.5-1.1,1-2.2,1.6-3.3.2-1.2.4-2.3.6-3.5.4-2.5.8-4.9,1.1-7.4.3-2.9,1.1-5.9.3-8.7-.5-2.2-1.1-4.3-1.4-6.5-2.8-7.5-7.3-14.1-12.6-20.1h0ZM276.9,163.5c-3-5.4-6,1.6-9.9.8,3.9.8,6.9-6.2,9.9-.8ZM267,164.3c-17-.2-33.9,1.7-50.8.3,16.9,1.4,33.8-.5,50.8-.3ZM216.2,164.6c-5.1-1.1-9.4,1.8-13.4,4.4,4-2.5,8.3-5.4,13.4-4.4Z"/>
    <path id="path-3_1" class="st96" d="M69.5,71.7c5.3-6.1,13-12.1,21.8-10.3,44.7.3,89.5,0,134.2.1,10-.1,20.5-1.5,30.2,1.7,3.7,3.7,7.4,8.3,9.3,13.4,2.1,3.5,5,7,5.6,11.1,2.3,3.2,3.4,7,4.4,10.8,3.3,7.8,4.5,16.9,4.9,25.4-1.4-1.4-1.7-5.4-4.4-4-10.7,3.4-24.1-2-32.6,7.1,4.6,2,10.5-.9,14.6,2.3-5.6,3.2-13.3,2.8-19.4.9-.2-2.2,3.1-1.7,4.4-3.1-5.5-2.4-14.4,1.5-18-5.1-4-2.2-9.3,1.1-13.7-.4-7.1,1.2-8.2-9-14.9-8.8-5.3-3.2-10.4-7.2-16.6-8.5-8.1-2.8-16.7-3.1-24.9-.7-9.7.4-16.7,10.5-26.5,8.7-11-1.4-21.8,2.3-32.8.8-12.9,2-26.4-5.2-38.7.7-2.6,2.7-4.1,6.4-5.2,10v-.9c-.1-6,1-12.1,3.3-17.6.1-5.9,3.6-11.8,5.8-16.8,1.2-2.8,1.8-6.5,4.2-8.3.4-3.3,3.2-5.8,5-8.4h0ZM264.7,81c-20.6,1.9-41.3,1.9-61.9,2.3,20.6-.4,41.3-.3,61.9-2.3ZM202.8,83.3c-19.5,1.9-39-2.2-58.5-.6,19.5-1.7,38.9,2.4,58.5.6ZM144.3,82.7c-7.2,6-17.2,5.3-26,6.8,8.7-1.5,18.8-.8,26-6.8ZM118.3,89.5c-1.6.3-2.3,1.6-2.8,3,.5-1.4,1.2-2.7,2.8-3ZM115.5,92.5c5.5,2,12.6-.3,17.7,3.6-5.1-3.9-12.2-1.6-17.7-3.6ZM133.2,96.1c-5.8,5.8-15.8,2.6-23.3,3,7.5-.4,17.5,2.9,23.3-3ZM88.1,94.3c-4.2,7.5-15.3,4.9-22.6,3.9,7.3,1,18.4,3.6,22.6-3.9ZM65.5,98.2c-5.2-3.9,5.4-3.1,5.6-7.5-.2,4.4-10.8,3.6-5.6,7.5h0ZM83.5,85.2c.5-5.9-8.3-1.3-12-3.3,3.6,2,12.5-2.6,12,3.3ZM71.5,81.9c-5.3-1.5-6.7,5.8-11.3,6.5,4.6-.7,6-8.1,11.3-6.5Z"/>
    <path id="path-9_1" class="st78" d="M127.8,112.3c9.8,1.8,16.8-8.4,26.5-8.7-3.1,1.8-6.4,2.9-9.6,4.6-2.9,1.8-5.7,3.7-8.2,5.9-3.3,2.1-5.1,5.7-7.4,8.7-1.2,2.8-3.2,5.3-3.7,8.4-1.1,3.6-1.5,7.2-2.4,10.9.2,3.4.2,7,1.5,10.2.1.4.4,1.1.6,1.4-.8,1.2-2.3,2-2.9,3.3-3.1,8.1-14.9,2.8-17.7-3.1-.6-4.4-3.6-7.3-7.6-8.5-4.5-1.3-5.8-5.9-6.5-9.9l-.8-.3v-.8c.8-2.6-2.2-4.3-2.7-1.1-.6,1.3-1.3,2.6-1.9,4-.3-1.9.2-3.8.4-5.7-5,1.6-9.2-3-14.2-1.6-5.5,1.1-10.8-2.3-16.1,0-1.4.4-2.8.2-4.1-.2,0-1.5,0-4.4.1-5.8,1.1-3.6,2.6-7.2,5.2-10,12.3-5.9,25.8,1.4,38.7-.7,11,1.5,21.8-2.2,32.8-.8h0ZM97.3,143.1c0,.6-.3,1.7-.4,2.3,0-.6.3-1.7.4-2.3Z"/>
  </g>
  <path class="st131" d="M290.2,191.4c12-4.1,22.7-12.7,35.8-12.8,11.1-.6,21.7,5.3,28.9,13.4,4.6,4.5,8.2,10.2,13.9,13.4,3.1,1.8,7.4,2.2,10.3-.2,2.8-3,3.2-7.3,3.4-11.1.8.1,1.8,0,2.4.6,6.5,5.8,10.3,14.3,10.8,22.9.3,7.5-2.4,15.2-8,20.3,5.7,2,7.8,8.7,7.6,14.2.2,5.2-1.8,10-4.3,14.4.5,1.8,1.9,3.1,2.5,4.8,1.8,3.8,1.8,8,1.4,12.1-1.3,3.1-2.5,6.4-5,8.7-4.1,4.2-9.9,6.3-15.6,6.7-4.6,12.6-13.9,23.2-25.5,29.8.3.7.6,1.4.8,2.1,14.7,1.5,28.5,7.5,40.9,15.3,10.4,6.9,20.1,14.8,29,23.5h.5c1.3-2.4,1.1-5.9,3.6-7.7,3.3-2.2,8.3,0,9,4,.3,4.1-1.4,8.1-1.9,12.1,4.2.1,8.6,2.3,10.1,6.4,1.2,2.1.1,4.6.7,6.7,5.4,5.3,10.5,10.8,15.4,16.6,5.3,6.6,10.9,13.1,14,21,3.2,6.7,4.1,14.4,2.5,21.7-1.8,6.1-5.7,11.9-11.5,14.8-.8.6-2.1.7-2.4,1.8,10.2.1,20.3,0,30.5,0,1.5,0,3.2,1.4,2.9,3,.4,2.1-1.8,3.5-3.6,3.4-20.5,0-41.1,0-61.6,0-2-.2-3.7.8-5.7.8-10.1,0-20.3,0-30.4,0-4,0-8.1.4-12-.8-75.3-.1-150.6,0-225.9,0-2.4-.2-3-2.6-2.8-4.7.9-.7,1.6-1.8,2.9-1.6,24.9,0,49.8,0,74.7,0-4.1-2.9-6.3-7.6-7.1-12.4-.5-.9-.8-2.1-2-2.1-3.1-.3-5.7,2.5-8.9,2,3.1-3.7,8.3-4.2,12.3-6.8,3.6-1.7,5.7-6.3,10.2-5.8-1.5,1.6-3.2,3.1-4.9,4.6,0,.5,0,1.4,0,1.9-.1,0-.4.3-.5.4,4.8,0,9.6.3,14.4-.1.8-.2,1.7-.4,2.5-.6.5.7,1,1.5,1.5,2.2.2-1.4-.7-3.5.6-4.3.8,1.4,1.1,3.1,1.8,4.5.9.1,1.8.2,2.7.3.2-.5.4-1,.6-1.5.5-1.2,1.2-2.4,1.8-3.6.2.5.5,1.4.7,1.8.9-1.9,1.7-3.9,2.6-5.8.8.5,1.5.9,2.3,1.4-2.6,2.9-3,7.7-6.9,9.3-3.3,1.2-7,.6-10.5.7-6.2-.2-12.8,1-18.5-2,.1.4.3,1.3.4,1.7,1,.2,2.1.3,3.1.5,0,.4,0,1.1.1,1.5.2,5.6,5.4,10.1,10.9,9.9,28.5,0,57.1,0,85.6,0,3.9.3,7.4-2,9.7-5.1-1.4-1.3-2.8-2.9-2.1-5l.3-.5c-3.9-1.1-7.9-1-11.9-1.1,1-1.9,3.2-2.2,5.1-2.8.7-1.1.4-3.5,1.8-3.8,1.1,1.3,2,2.8,3,4.3,4.6-1,9.3-.5,14-.9v-.9c-.1-1.8-.6-3.6,0-5.4,1.8-3.4,5.4-5.1,8.9-6.2-2-2-3.2-5.5-1.1-7.8,4.8-5.2,12.8-7.1,19.5-4.9-.5-10.2-1.3-20.5-2.2-30.7-1.3-1.1-3.1-1.7-3.8-3.3-1.7-3.6.2-7.8,3-10.3,3.3-2.4,7.7-2.4,11.7-3.1-1.1-5-3.8-9.7-3.4-15,1.1,0,2.2-.2,3.4-.2,1.9,4.8,3.3,9.7,4.8,14.7,11.4-1.2,22.9-.9,34.3-.7-9-8.7-18.5-17.1-29-24-11.5-7.8-24.6-13.4-38.3-15.6.4,5.5-1.8,11.2-6.1,14.8-5.3,4.8-12.8,6.3-19.8,6.1-6.3-.5-13.3-2.6-17.1-8.1-2.5-3.2-3.2-7.4-3.2-11.3-.2,0-.7,0-1,.1.1-1.1.6-2.6-1.2-2.4.8-1.2,1.7-2.4,2.4-3.7,0-.2-.2-.5-.3-.7-5.1-2.6-10-5.5-14.2-9.5-1.6-1.8-4.1-1.4-6.3-1.5-2.4,0-4.8-.4-7.1-1,.5-.6,1-1.1,1.5-1.7,8.5,1.4,17.2,1,25.7-.4.1-.4.4-1.1.5-1.4-8.7.7-17.6.7-26.1-1.6-3.5-.9-6.9-2.2-10.4-3.4-.5-.7-.9-1.5-1.4-2.2,1.3-.2,2.5-.5,3.8-.7,2,.5,4,1.2,6.1,1.6.4-.9.8-1.9,1.2-2.8-1.2-4.5-2.2-9.1-2.3-13.8-6.8-.9-12.6-6-14.6-12.5-3.6-9.6,2.4-21.5,12.4-24.1-4.3-7.9-7.1-17.5-4.1-26.4,1.2-4.5,4-8.3,6.9-11.9-3,0-5.8,1.2-8.2,2.9-.8.7-1.8.7-2.8.7,1.6-7.5,8.2-13.2,15.8-14-4.8-3.4-9.1-8-10.9-13.8-.4-1.2-.2-2.5,0-3.7,5.8,4,13.4,3.8,19.8,1.5Z"/>
  <path class="st143" d="M290.3,225.6c10,8.2,22.9,12.3,35.8,11.9,11.5.3,22.7-2.9,33.6-6.2,4.9-1.6,10.3,1.3,12.4,5.9-3.6,10.8-4.3,22.6-2.2,33.8.9,3.5,5.4,2.7,8.1,1.8,3-1,3.5-4.2,3.2-7,8.1,2.5,11.9,13.1,7.7,20.3-2.5,4.6-7.7,7.1-12.8,7.4.3-2.4,1.3-4.8.9-7.3-.8-1.3-2.4-.8-3.6-.9-1.2,3.2-1.8,6.6-2.9,9.9-3.8,11.7-12,22-22.8,28-14.8,8.3-34.5,7.9-48.6-1.7,2.7-.6,5.6-.5,8-1.9,1.4-.7,1.5-2.4,2.1-3.7,7.4,1.7,15.5.5,21.8-3.9,7.9-5.5,13.3-15.2,12.6-25-15.2-1.3-30.5-1.5-45.6.1-.3,3.7,0,7.4.7,11.1-5.4-1.2-11.5-.4-15.7,3.4-3-7.9-1.2-16.7-1.9-24.9-1.2-.2-2.4-.3-3.6-.4-1.7,3.7-.8,7.9-1.7,11.7-4.6-1.2-8.7-4.7-9.9-9.5-1.5-5.6,0-12.1,4.8-15.7.7.2,2.1.6,2.8.8.2,1.4.4,2.8.6,4.1,3.3,2.7,7.9,3.6,12,2.5,3-1.1,4.1-4.4,4.9-7.2,1.3-4.4,2.4-9,1.3-13.6,0-7.9.2-16-1.6-23.8Z"/>
  <path class="st141" d="M296.5,243.3c1.1-2,3.7-1.1,5.5-1.2,5.2.7,10.5.5,15.6,1.6.5.5,1,1,1.5,1.6.2,1.9.1,4.2-1.8,5.3-1.7.6-3.6.2-5.4.1-4.8-.6-9.7-.5-14.5-1.6-2-1-2.1-4.1-1.1-5.8Z"/>
  <path class="st131" d="M341.7,247c1.1-.4,2.3-.9,3.5-.8,5.8.2,11.7-.2,17.5.6,1.8,1.4,2.2,4.1,1,6.1-2.7,2-6.5.8-9.7,1.1-4.3-.5-9.3.8-13.1-1.9-.3-1.8-.2-3.6.7-5.1Z"/>
  <path class="st129" d="M291.9,249.4c1.1,4.6,0,9.2-1.3,13.6-.8,2.8-1.9,6.1-4.9,7.2-4.1,1.2-8.7.2-12-2.5-.2-1.4-.4-2.8-.6-4.1-.7-.2-2.1-.6-2.8-.8,1.2-.9,2.5-1.6,4-1.8-.1,1.9,0,3.8.1,5.6,2.8,2.4,6.6,3.3,10.2,2.6,3.6-1.5,4.5-5.7,5.5-9,1.1-3.5,1.2-7.2,1.9-10.8Z"/>
  <path class="st110" d="M329.3,260.8c.6,0,1.2-.1,1.8-.2.6,1.1,1.3,2.2.7,3.5-2.2,4.6-5.7,8.5-8,13.1,3,0,5.9,0,8.9.4.2,1.2.3,2.4.2,3.6-3.3,1.2-6.9.9-10.3.9-2.4-1.6-4.3-4.7-2.6-7.5,2.8-4.8,6.2-9.2,9.3-13.8Z"/>
  <path class="st122" d="M303,261c3.5-1.8,7.9,1.7,6.9,5.5-.3,3.9-5.8,5.7-8.3,2.8-2.9-2.3-1.9-7,1.4-8.3Z"/>
  <path class="st136" d="M344.9,268.1c-.2-4,5.1-6.1,8.1-3.9,3.2,2.1,2.6,8-1.3,8.9-.7-1.1-2.3-1-3.1-.2l-.7.4c-1.4-1.5-3.4-2.9-3-5.3Z"/>
  <path class="st118" d="M348.6,273c.9-.8,2.4-.9,3.1.2-1.1.6-2.1.5-3.1-.2Z"/>
  <path class="st139" d="M196,292.9c-.2-5.4,5.4-10.2,10.8-9,2.5.4,4.3,2.3,6.5,3.2,4.8,1.8,9.7,3.3,14.3,5.3,2.5-2.3,6.1-4.2,9.5-2.8,2.4.8,3.5,3.3,4.6,5.4,1.8-1.4,2.8-3.7,4.7-5,2.9-2.9,8.6-3.8,11.3,0,2.5,4,1.9,8.9,1.6,13.4,3.9,1.4,7.8,2.7,11.6,4.2-1.3.2-2.5.5-3.8.7.5.7.9,1.5,1.4,2.2-8.6-3.1-17.3-6.1-25.9-9.3-.3.3-.9.9-1.2,1.1,2.9.1,4.2,3.2,7,3.7,5.5,1.5,11,3,16.4,4.9,2.6.7,3.6,3.6,6.1,4.5,2.6,1,5.3,1.6,8.1,2.1-.5.6-1,1.1-1.5,1.7,2.3.6,4.7,1,7.1,1,2.2,0,4.7-.3,6.3,1.5-7.2,0-14.6-.5-21.4-3.2-2.1-.8-3.8-2.3-5.2-4-2.3-.8-4.6-1.5-7-2.1-.3,1.3-.7,2.5-1,3.8.2,2.2,1.1,4.4.7,6.7-.9,4.6-4,8.3-6.3,12.2.7,5.1.6,10.4-1.6,15.1-2.1,4.4-4.9,8.5-7.7,12.4-.6.8-.6,1.9-.8,2.8,17.9-16.8,40.2-29.9,64.7-33.6-.7,1.3-1.6,2.5-2.4,3.7,1.8-.2,1.3,1.2,1.2,2.4-24.6,4.1-46.4,18.2-63.9,35.4-.2,6.9-.9,13.8-1.6,20.7,6.4,5.8,12.8,11.4,19,17.3,5.1-6.3,10.5-12.3,15.5-18.5,1.4-1.8,3.3-3.3,4.3-5.4,2.2-7.9,2.7-16.3,6.4-23.7,2.1-.2,4.4,1.3,3.4,3.7-4.6,19.5-7.6,39.3-9.4,59.3,4.9-1.8,10.3-3.8,15.6-2.5,5.1,1.1,9.2,5.1,10.9,10,10.6-.8,20.6,5.5,25.6,14.5,4.5,0,9,0,13.5,0v.9c-4.6.4-9.3-.1-13.9.9-1-1.5-1.8-3-3-4.3-1.4.3-1.1,2.7-1.8,3.8-1.8.6-4,.9-5.1,2.8,4,.1,8,0,11.9,1.1l-.3.5c-34.7.3-69.4-.2-104.1.2,0-.4,0-1.1-.1-1.5-1-.2-2.1-.3-3.1-.5,0-.4-.3-1.3-.4-1.7,5.8,2.9,12.3,1.7,18.5,2,3.5-.1,7.1.5,10.5-.7,3.9-1.6,4.3-6.4,6.9-9.3-.8-.5-1.5-.9-2.3-1.4-.9,1.9-1.7,3.9-2.6,5.8-.2-.4-.5-1.4-.7-1.8,0-.4.3-1.2.4-1.6-2.5.6-4.3,2.6-5.9,4.5,1.2.4,2.4.7,3.7.7-.2.5-.4,1-.6,1.5-.9,0-1.8-.2-2.7-.3-.8-1.5-1.1-3.1-1.8-4.5-1.4.8-.5,2.9-.6,4.3-.5-.7-1-1.5-1.5-2.2-.8.2-1.7.4-2.5.6,5.1-7.9,13.7-13.2,23-14.4,2-1.9,4.3-3.5,6.8-4.8.7-10.4,2.2-20.7,3.3-31.1-5.9,6.6-11.2,13.8-17.4,20.1-.5,0-1.5-.3-2-.4-8.4,10.7-16.8,21.8-27.7,30.2,0-.5,0-1.4,0-1.9,1.7-1.5,3.3-3,4.9-4.6-4.5-.5-6.6,4.1-10.2,5.8-4,2.5-9.2,3-12.3,6.8,3.2.5,5.8-2.3,8.9-2,1.2,0,1.6,1.2,2,2.1-1.7,0-3.4-.3-5,.2-7.8,2.7-16.8,1.8-23.7-2.8-5.4-3.3-9.3-9.1-10.2-15.4-1.8-12,1.8-24,5.9-35.2,5.9-15.6,12.7-30.9,19.8-46-3.6-7.9-7.4-16.5-5.8-25.4,2.3-10.3,8-19.8,15.4-27.3-1.6-1.7-4.3-1.8-6.3-2.6-2.2.7-3.8,3-6.4,2.6-5.2.6-9.5-4.5-9.1-9.4Z"/>
  <path class="st146" d="M200.8,289.3c1.6-2,4.7-2.2,6.9-1.3,5.1,3.4,11.2,4.7,16.8,7.1-1.1,1.3-2.1,2.7-3.1,4-3.8-.7-7.4-2.8-11.3-3-2,1.1-3.8,3.4-6.4,2.6-4.2-.7-5.5-6.6-2.8-9.5Z"/>
  <path class="st117" d="M300.9,290.3c13-1,26-.9,39,0-1.5,6.7-4.4,13.5-10.2,17.5-6.1,4.9-14.5,6-21.9,3.9.4-4.9-1.9-9.5-5.6-12.5-.8-2.9-.8-6-1.3-8.9Z"/>
  <path class="st145" d="M247.2,295.7c1.5-1.9,3.4-4.3,6.1-4.1,2.3,2.8,1.8,6.7,1.9,10.1-3.1-.5-6.1-1.7-9-2.7-.5-1.2.3-2.4,1-3.3Z"/>
  <path class="st132" d="M231.3,295c1.6-1.6,4.3-2.3,5.9-.3,2.6,3.3.4,8.2-3,9.9-5.1,5-10,10.6-12.6,17.3.7.6,1.5,1.2,2.2,1.8.8-.6,1.8-1,2.3-2,3.4-5.3,7.1-10.6,12.1-14.4,1.2-1,2.9-.6,4.3-.3.2,1.9.5,3.9-.2,5.8-2.3,5.5-5.7,10.4-7.6,16.1-.6,1.3,1.1,2,1.7,2.9.5-.3,1.4-.8,1.9-1.1,2.6-4.5,5.1-9.2,9-12.7,1.1-1.2,2.7-1,4.2-.8,2.5,3.2.6,7.2-1.3,10.2-1.5,2.6-3.6,4.9-4.3,7.9,0,4.5.7,9.4-1.6,13.5-2.4,4.3-5.3,8.4-8,12.6-1.2,2.9-.7,6.1-1,9.2-1.3,16.1-2.7,32.3-6,48.2-.5,2.1-1,4.2-1.2,6.3,1.1.6,2.2,1.4,3.6.9,1.4-.9,1.7-2.6,2.1-4,1.8-7.1,2.8-14.4,4.1-21.6,4.7,4.7,9.8,8.9,14.6,13.5-.3,1.5-1.7,2.6-2.6,3.8-7.1,8.8-14.5,17.5-23,25.1-5.6,5-13.1,8.3-20.8,7.9-6.4-.4-13-3.6-16.1-9.3-2.6-4.7-2.3-10.2-2.1-15.3.9-10.5,4.9-20.5,8.7-30.3,5.3-13.3,11.1-26.6,17.2-39.5-1.8-6.2-5.3-11.8-6.2-18.3-1-4.4,0-8.8,1.5-12.9,4.5-11.8,13-21.5,22.3-29.9Z"/>
  <path class="st111" d="M241.4,302.4c.3-.3.9-.9,1.2-1.1,8.6,3.2,17.3,6.2,25.9,9.3,3.4,1.2,6.9,2.5,10.4,3.4,8.5,2.3,17.4,2.3,26.1,1.6-.1.4-.4,1.1-.5,1.4-8.5,1.4-17.2,1.8-25.7.4-2.7-.5-5.4-1.1-8.1-2.1-2.5-.8-3.5-3.7-6.1-4.5-5.4-1.9-10.9-3.3-16.4-4.9-2.8-.4-4.1-3.5-7-3.7Z"/>
  <path class="st114" d="M285.6,303.9c1.8-.4,3.5-1,5.2-1.7,3.4-.4,7.1-.5,10.1,1.4,1.9,2.2,1.6,5.4,1.8,8.1-6.9,0-13.8.3-20.5-.9-.1-2.4,1.4-4.2,2.7-6.1,0,.4.1,1.2.1,1.6.1-.3.4-.9.5-1.2.5-.1,1.4-.4,1.9-.6-.4-.4-1-.7-1.7-.8Z"/>
  <path class="st129" d="M247.3,309.3c1.9.6,3.8,1.2,5.7,1.7,0,.4,0,1.3,0,1.7-2.1-.3-4.2-.4-6.1.5.2-1.3.3-2.6.5-3.9Z"/>
  <path class="st128" d="M337.4,332.8c2.5-.5,4.7-2,7.3-2,.6,4.3,2.2,9.2-.4,13.2-3.7,5.8-11,7.6-17.4,7.6-4.9-.2-10.4-1-13.8-5-3.5-3.6-2.9-9.1-2.1-13.6,8.7,1.5,17.8,2.3,26.3-.2Z"/>
  <path class="st117" d="M351.1,336.4c13.8,2.2,26.8,7.8,38.3,15.6,10.5,6.9,20,15.2,29,24-11.4-.2-22.9-.5-34.3.7-1.5-4.9-3-9.9-4.8-14.7-1.1,0-2.3.1-3.4.2-.4,5.2,2.2,10,3.4,15-3.9.6-8.3.6-11.7,3.1-2.8,2.4-4.7,6.7-3,10.3.7,1.6,2.5,2.3,3.8,3.3.9,10.2,1.8,20.4,2.2,30.7-6.7-2.2-14.7-.3-19.5,4.9-2.1,2.3-.9,5.8,1.1,7.8-3.5,1.1-7.1,2.8-8.9,6.2-.5,1.8,0,3.6,0,5.4-4.5-.1-9,0-13.5,0-5.1-9.1-15.1-15.3-25.6-14.5-1.7-4.9-5.8-8.9-10.9-10-5.3-1.3-10.7.6-15.6,2.5,1.7-19.9,4.8-39.8,9.4-59.3.9-2.3-1.3-3.9-3.4-3.7-3.7,7.4-4.2,15.8-6.4,23.7-1,2.1-2.9,3.5-4.3,5.4-5.1,6.3-10.4,12.3-15.5,18.5-6.2-5.9-12.7-11.5-19-17.3.7-6.9,1.4-13.8,1.6-20.7,17.6-17.2,39.3-31.4,63.9-35.4.2,0,.7-.1,1-.1,0,4,.8,8.1,3.2,11.3,3.8,5.5,10.7,7.6,17.1,8.1,7,.2,14.5-1.3,19.8-6.1,4.3-3.5,6.5-9.2,6.1-14.8Z"/>
  <path class="st120" d="M425.7,365.9c1.1-.2,2.2.1,3.3.4-.9,5.6-3.3,10.9-3.7,16.6,3.7.8,9.7-.6,10.8,4.4-.3.5-.8,1.4-1,1.8-1.1.7-2.3,1.2-3.6,1.3-1.9,24-3.8,48.1-5.8,72.1-.1,3-3,5.3-6,5.1-12,0-24.1.2-36.1,0-5.1-1.5-3.8-7.5-4.4-11.6-2-21.8-3.2-43.7-5-65.6-1.9-.4-4.1-1.2-4.5-3.3.1-1.8,1.7-3.2,3.5-3.4,14.4-2.2,29.1-2.7,43.6-1.7-2.6,9.3-5.4,18.6-7.5,28-9.2,0-18.4,0-27.6,0-.1.5-.4,1.6-.5,2.1-1,.1-2,.2-3,.3.3,4.9,1.2,9.7,1.1,14.7.9,6.4.4,12.8,1.5,19.2,0,5.5.5,10.9.9,16.4,5.4.2,10.8.9,16.2.4,2.7,0,5.4.3,8,0,4.8-.4,10.2,1.8,14.5-1.2.1-12.4.7-24.8,1.9-37.1.1-3.7.1-7.3,0-11,.2-.5.5-1.4.6-1.9-.2-.5-.7-1.4-.9-1.8-2.7,0-5.4,0-8.1,0,3.6-14.8,7.6-29.5,11.5-44.3Z"/>
  <path class="st133" d="M383,389.1c1.7-.1,4.1-.7,5.2.9.4,6.6.7,13.2,1.5,19.7-1.9.2-3.7.2-5.6,0-.1-6.9-1.6-13.7-1.2-20.5Z"/>
  <path class="st132" d="M437.3,394.5c3.5,2,5.7,5.5,8.5,8.4,3.6,3.6,6.7,7.6,10,11.5,7.6,9.4,14.9,21.1,12.6,33.7-1.2,4.5-3.9,8.9-7.9,11.3-8.7,5.6-19.3,6.7-29.4,7.2,1.4-10.2,1.9-20.6,2.8-30.9.2-.1.5-.4.7-.6,4.7.2,9.5.7,14.2.7.9-1.2,1.7-3.9-.4-4.4-4.6-1-9.3-1.4-14-1.4.9-11.8,1.9-23.7,2.9-35.5Z"/>
  <path class="st113" d="M378.3,412.7c1-.1,2-.2,3-.3.5.8,1.1,2,2.3,1.7,13,0,26,0,39,0,0,3.7,0,7.3,0,11-1.2,12.3-1.7,24.7-1.9,37.1-4.3,3.1-9.7.8-14.5,1.2-2.7.3-5.3,0-8,0-5.4.6-10.8-.2-16.2-.4-.4-5.5-1-10.9-.9-16.4-1.1-6.3-.6-12.8-1.5-19.2,0-4.9-.9-9.8-1.1-14.7Z"/>
  <path class="st137" d="M455.6,412.7c4.7,4.4,8.2,10,11.1,15.7,2.9,6.9,5,15.1,2.1,22.3,0-.7-.2-2-.3-2.6,2.3-12.7-5-24.3-12.6-33.7,0-.4-.1-1.2-.2-1.7Z"/>
  <path class="st130" d="M389,421c-1-4.4,6.8-5.2,6.9-.9,0,12.3.3,24.6.2,36.9.2,1.3-.7,2.1-1.6,2.8-1.5,0-2.8-.5-3.9-1.5-.2-5,.2-10.1-.7-15.1-.5-7.4,0-14.9-.9-22.3Z"/>
  <path class="st126" d="M415,417c1-1.1,2.2.4,3.1.8-.5,1.2-1.4,2.2-2.5,2.9-1.2-.9-2.1-2.7-.6-3.7Z"/>
  <path class="st125" d="M406.1,421c1-1.2,2.7-.4,2.8,1,.6,1.5-1.2,2.1-2.2,2.7-1.1-.9-2.2-2.6-.7-3.7Z"/>
  <path class="st127" d="M411.3,427c.8,0,1.7,0,2.6,0,.3,1,.5,2,.6,3.1-1,0-2,.2-3.1,0-1-.9-.8-2.1,0-3.1Z"/>
  <path class="st147" d="M353.5,432c5-3.4,12.2-5.3,17.6-2.1.9,7.1,1.1,14.3,1.8,21.4-.1,1.1.7,2.8-.5,3.4-4,2.5-8,5.3-12.8,5.9-1.4.3-2.8-.1-3.9-1.2,2.4-4.7,7.5-7,10.5-11.1.8-.9.3-2.1.2-3.2-6.2.4-12.2,3-18.5,2.4-1.2-1.3-1.6-3.6.3-4.4,5.3-3,11.5-3.5,17.3-5.1,1.6-.3.8-2.2,1-3.4-3.7-.2-7.4.6-11.1,0-1.5,0-1.6-1.9-2.1-2.8Z"/>
  <path class="st138" d="M279.5,431.7c4.9-1.7,10.3-3.8,15.5-1.5,1.3,1.3,3.2,2.4,2.9,4.5-.4,0-1.2.3-1.6.4-1.5.3-2.9,1-4.2,1.7-.3.2-1,.5-1.4.7-3-3.1-6.9-5.2-11.2-5.8Z"/>
  <path class="st115" d="M400,433.4c1,0,2,.1,3,.2.1.7.2,1.5.4,2.2-.7.5-1.4,1-2.1,1.4-.5-.2-1.6-.6-2.2-.8.1-1.1-.1-2.4.9-3.1Z"/>
  <path class="st142" d="M407.3,433.5c1.1-.1,2.1-.2,3.2-.3,0,.9,0,1.9,0,2.8-1.8.2-3.3-.5-3.2-2.5Z"/>
  <path class="st140" d="M292,436.8c1.4-.7,2.7-1.3,4.2-1.7.4.2,1.3.6,1.8.8-2,.4-4,1.6-6,.8Z"/>
  <path class="st112" d="M262,442.6c2.9-2.7,6.5-4.7,10.4-5.8,4.9-.6,10.4.2,13.9,3.9,2.1,2.3,4.2,4.8,4.5,8.1-10.9,0-21.8,0-32.7,0,.3-2.6,2.2-4.4,4-6.1Z"/>
  <path class="st116" d="M405.6,441.5c-1.7-1.9.7-3.1,2.4-2.5.8,1.7-.6,4.3-2.4,2.5Z"/>
  <path class="st124" d="M412,439.7c1,0,2.1.2,3.1.3,0,1,0,1.9,0,2.9-1.1,0-2.1.2-3.2.3,0-1.2,0-2.3,0-3.4Z"/>
  <path class="st134" d="M294.3,441.6c5-2.2,10.5-2.3,15.8-1.7,4.6.8,8.9,3.4,12,6.9.2.5.5,1.5.7,2-8.6,0-17.2,0-25.8,0-.4-2.6-2.2-4.6-2.6-7.2Z"/>
  <path class="st148" d="M248.3,448.4c1.6-1.9,3.3-3.9,5.9-4.5,0,.4-.3,1.2-.4,1.6-.6,1.2-1.3,2.4-1.8,3.6-1.3,0-2.5-.3-3.7-.7Z"/>
  <path class="st121" d="M405,451.4c-.3-2,2.1-2,3.4-1.6,0,.5-.1,1.6-.1,2.2-.7.3-1.4.6-2,1-.3-.4-.9-1.2-1.2-1.6Z"/>
  <path class="st144" d="M345.9,450.8c4.2,1.6,8.7.8,13-.2-2.7,2.5-6,4.9-6.7,8.8.6,2.1,1.7,4.3,4,5,4.1,1.2,8.4-.6,12-2.5-.5,1.6-1,3.2-1.5,4.9-7.7,0-15.3,0-23,0-2.3-3.9-5.2-7.4-8.3-10.7.1-.5.4-1.6.6-2.1,3.2.2,6.4-.3,9.6-.9,0-.6.3-1.7.3-2.2Z"/>
  <path class="st133" d="M227.1,454.6c34.7-.4,69.4,0,104.1-.2-.7,2.1.7,3.7,2.1,5-2.2,3.1-5.7,5.4-9.7,5.1-28.5,0-57.1,0-85.6,0-5.5.2-10.8-4.3-10.9-9.9Z"/>
  <path class="st119" d="M407.9,455.6c1.2-1.7,3.9,1,2.1,2.2-1.4,1.7-3.9-.9-2.1-2.2Z"/>
  <path class="st123" d="M371.2,466.8c1.1-2.6.4-5.7,2.1-8,.4,2.7.6,5.4.6,8.1-.9,0-1.8,0-2.7-.1Z"/>
  <path class="st135" d="M333.2,466.8c1.2-1,2.1-2.1,3.3-3.1,1.1.7,1.6,2,2.2,3.1-1.8,0-3.7,0-5.5,0Z"/>
</svg>