<svg xmlns="http://www.w3.org/2000/svg" height="512pt" version="1.1" viewBox="0 0 512 512" width="512pt"><defs>
                <linearGradient id="grad-109" gradientTransform="rotate(265 0.5 0.5)">
                
                        <stop stop-color="#ffd223" offset="0"></stop>
                    ,
                        <stop stop-color="#ffd223" offset="0.14285714285714285"></stop>
                    ,
                        <stop stop-color="#ffd223" offset="0.2857142857142857"></stop>
                    ,
                        <stop stop-color="#ffd223" offset="0.42857142857142855"></stop>
                    ,
                        <stop stop-color="#ffd223" offset="0.5714285714285714"></stop>
                    ,
                        <stop stop-color="#ffd223" offset="0.7142857142857143"></stop>
                    ,
                        <stop stop-color="#ffd223" offset="0.8571428571428571"></stop>
                    
                </linearGradient>
          </defs><defs>
                <linearGradient id="grad-108" gradientTransform="rotate(269 0.5 0.5)">
                
                        <stop stop-color="#ffd223" offset="0"></stop>
                    ,
                        <stop stop-color="#ffd223" offset="0.16666666666666666"></stop>
                    ,
                        <stop stop-color="#ffd223" offset="0.3333333333333333"></stop>
                    ,
                        <stop stop-color="#ffd223" offset="0.5"></stop>
                    ,
                        <stop stop-color="#ffd223" offset="0.6666666666666666"></stop>
                    ,
                        <stop stop-color="#ffd223" offset="0.8333333333333334"></stop>
                    
                </linearGradient>
          </defs>
<path d="M 0.00 0.00 L 512.00 0.00 L 512.00 512.00 L 0.00 512.00 L 0.00 0.00 Z" fill="transparent" opacity="1.00" stroke="transparent" stroke-width="0.25" data-index="0" style="opacity: 1;"></path>
<path d="M 248.55 95.80 C 248.38 90.81 248.24 83.29 254.04 81.44 C 255.99 82.76 257.70 84.55 258.37 86.87 C 258.61 95.96 260.60 104.92 260.28 114.05 C 260.23 119.13 260.77 124.21 260.31 129.27 C 256.40 129.33 252.48 129.55 248.57 129.34 C 248.31 129.05 247.80 128.47 247.55 128.17 L 248.73 128.17 C 252.14 128.15 255.59 128.33 258.96 127.67 C 260.02 126.45 259.25 124.57 259.45 123.10 C 259.35 121.17 259.24 119.24 259.09 117.32 C 258.98 115.64 258.90 113.96 258.80 112.28 C 258.57 108.40 259.06 104.26 257.37 100.64 C 255.35 97.95 251.33 99.66 249.21 101.41 C 248.99 99.54 248.74 97.67 248.55 95.80 Z" fill="#ffeb98" opacity="1.00" stroke="#ffeb98" stroke-width="0.25" data-index="1"></path>
<path d="M 309.14 94.16 C 310.89 92.54 313.17 94.10 314.45 95.51 C 316.60 97.53 315.08 100.70 314.47 103.11 C 312.72 107.44 311.97 112.21 309.44 116.19 C 309.79 113.04 310.25 109.90 310.17 106.73 C 309.30 106.61 308.44 106.49 307.58 106.37 C 307.24 105.27 306.92 104.17 306.59 103.08 C 305.37 104.89 304.06 106.68 302.27 107.98 C 302.19 107.49 302.04 106.51 301.96 106.02 C 303.62 101.77 305.37 97.00 309.14 94.16 Z" fill="#feefa7" opacity="1.00" stroke="#feefa7" stroke-width="0.25" data-index="2"></path>
<path d="M 194.56 94.39 C 198.93 93.29 202.35 97.62 203.92 101.21 C 205.26 104.57 208.11 107.50 208.24 111.22 C 206.27 108.71 204.62 105.98 202.84 103.34 C 201.34 103.69 199.83 104.04 198.33 104.39 C 197.66 107.27 197.45 110.23 197.57 113.19 C 195.67 110.74 195.43 107.56 194.27 104.77 C 192.92 101.46 192.80 97.57 194.56 94.39 Z" fill="#ffeea3" opacity="1.00" stroke="#ffeea3" stroke-width="0.25" data-index="3"></path>
<path d="M 221.85 99.75 C 223.04 95.84 227.31 95.67 230.68 96.49 C 234.01 100.64 236.04 106.13 235.53 111.50 C 234.39 109.70 233.14 107.98 231.91 106.26 C 229.71 106.85 227.42 107.32 225.42 108.46 C 223.92 111.08 224.12 114.27 223.72 117.17 C 221.40 111.76 220.81 105.51 221.85 99.75 Z" fill="#fdf3c3" opacity="1.00" stroke="#fdf3c3" stroke-width="0.25" data-index="4"></path>
<path d="M 247.80 108.99 C 248.48 104.62 248.30 100.20 248.55 95.80 C 248.74 97.67 248.99 99.54 249.21 101.41 C 251.33 99.66 255.35 97.95 257.37 100.64 C 259.06 104.26 258.57 108.40 258.80 112.28 C 258.03 109.94 257.16 107.64 256.42 105.30 C 254.73 105.02 252.96 104.68 251.31 105.32 C 249.26 106.88 249.13 109.62 248.89 111.97 C 248.73 114.59 248.65 117.22 248.57 119.85 C 248.50 122.62 248.58 125.40 248.73 128.17 L 247.55 128.17 C 247.75 121.78 247.55 115.38 247.80 108.99 Z" fill="#ffe473" opacity="1.00" stroke="#ffe473" stroke-width="0.25" data-index="5"></path>
<path d="M 275.98 97.98 C 277.90 95.25 281.69 96.74 284.49 96.52 C 286.19 99.02 286.92 101.98 286.45 104.99 C 285.26 113.78 284.06 122.57 282.15 131.24 C 281.52 132.24 280.30 132.44 279.30 132.86 L 279.74 131.95 C 282.37 127.12 282.25 121.45 282.56 116.12 C 282.75 114.56 281.69 113.33 280.88 112.13 C 280.10 112.92 279.31 113.70 278.54 114.49 C 277.26 113.51 275.99 112.53 274.73 111.55 C 272.82 113.85 272.50 116.98 270.71 119.36 C 270.44 114.12 272.56 109.05 273.88 104.03 C 274.46 101.99 274.46 99.63 275.98 97.98 Z" fill="#fdf0ba" opacity="1.00" stroke="#fdf0ba" stroke-width="0.25" data-index="6"></path>
<path d="M 198.33 104.39 C 199.83 104.04 201.34 103.69 202.84 103.34 C 204.62 105.98 206.27 108.71 208.24 111.22 C 212.27 117.64 215.24 124.71 218.07 131.74 C 218.70 132.93 218.59 134.29 218.62 135.59 C 215.77 136.68 213.01 137.96 210.26 139.26 C 209.10 139.84 206.98 140.21 206.54 138.57 C 205.14 135.07 203.52 131.57 203.19 127.78 L 204.20 128.31 C 205.38 131.83 206.25 135.48 208.15 138.70 C 211.37 137.41 214.81 136.43 217.52 134.18 C 216.50 131.12 215.28 128.14 213.85 125.25 C 212.27 119.87 209.17 114.99 205.30 110.97 C 204.63 111.74 203.97 112.52 203.31 113.29 C 202.62 113.50 201.94 113.70 201.26 113.91 C 201.03 116.30 200.78 118.68 200.59 121.07 C 199.02 118.76 198.22 115.88 197.57 113.19 C 197.45 110.23 197.66 107.27 198.33 104.39 Z" fill="#ffe781" opacity="1.00" stroke="#ffe781" stroke-width="0.25" data-index="7"></path>
<path d="M 302.27 107.98 C 304.06 106.68 305.37 104.89 306.59 103.08 C 306.92 104.17 307.24 105.27 307.58 106.37 C 308.44 106.49 309.30 106.61 310.17 106.73 C 310.25 109.90 309.79 113.04 309.44 116.19 C 307.35 124.12 303.75 131.56 301.09 139.31 C 297.88 139.81 295.22 137.38 292.22 136.61 C 290.72 136.00 287.47 135.14 289.10 132.96 C 290.53 131.27 289.83 127.76 292.42 127.38 C 292.36 127.88 292.26 128.89 292.20 129.39 C 291.72 130.91 290.50 132.36 290.77 134.02 C 293.29 136.36 296.88 136.90 300.04 137.98 C 301.69 134.99 302.67 131.70 303.87 128.51 C 305.97 124.22 306.73 119.42 306.68 114.67 C 304.93 113.89 303.18 113.12 301.42 112.37 C 300.19 114.03 298.86 115.63 297.41 117.11 C 297.64 113.06 300.18 109.57 301.96 106.02 C 302.04 106.51 302.19 107.49 302.27 107.98 Z" fill="#ffe780" opacity="1.00" stroke="#ffe780" stroke-width="0.25" data-index="8"></path>
<path d="M 251.31 105.32 C 252.96 104.68 254.73 105.02 256.42 105.30 C 257.16 107.64 258.03 109.94 258.80 112.28 C 258.90 113.96 258.98 115.64 259.09 117.32 C 258.13 115.53 257.19 113.68 255.83 112.16 C 253.73 110.82 251.16 111.79 248.89 111.97 C 249.13 109.62 249.26 106.88 251.31 105.32 Z" fill="#ffdd57" opacity="1.00" stroke="#ffdd57" stroke-width="0.25" data-index="9"></path>
<path d="M 225.42 108.46 C 227.42 107.32 229.71 106.85 231.91 106.26 C 233.14 107.98 234.39 109.70 235.53 111.50 C 236.70 113.85 236.74 116.58 237.43 119.10 C 234.88 116.43 230.84 116.11 228.38 113.35 C 226.90 116.81 225.98 120.47 225.50 124.20 C 223.65 122.46 224.16 119.47 223.72 117.17 C 224.12 114.27 223.92 111.08 225.42 108.46 Z" fill="#fee9a3" opacity="1.00" stroke="#fee9a3" stroke-width="0.25" data-index="10"></path>
<path d="M 203.31 113.29 C 203.97 112.52 204.63 111.74 205.30 110.97 C 209.17 114.99 212.27 119.87 213.85 125.25 C 212.80 123.98 211.70 122.75 210.62 121.50 C 208.52 121.35 206.43 121.70 204.44 122.39 C 204.35 124.36 204.23 126.34 204.20 128.31 L 203.19 127.78 C 201.17 126.63 202.01 123.62 200.54 121.99 L 200.59 121.07 C 200.78 118.68 201.03 116.30 201.26 113.91 C 201.94 113.70 202.62 113.50 203.31 113.29 Z" fill="#ffdd5e" opacity="1.00" stroke="#ffdd5e" stroke-width="0.25" data-index="11"></path>
<path d="M 248.89 111.97 C 251.16 111.79 253.73 110.82 255.83 112.16 C 257.19 113.68 258.13 115.53 259.09 117.32 C 259.24 119.24 259.35 121.17 259.45 123.10 C 257.33 119.39 252.29 116.46 248.57 119.85 C 248.65 117.22 248.73 114.59 248.89 111.97 Z" fill="#fed440" opacity="1.00" stroke="#fed440" stroke-width="0.25" data-index="12"></path>
<path d="M 270.71 119.36 C 272.50 116.98 272.82 113.85 274.73 111.55 C 275.99 112.53 277.26 113.51 278.54 114.49 C 279.31 113.70 280.10 112.92 280.88 112.13 C 281.69 113.33 282.75 114.56 282.56 116.12 C 282.25 121.45 282.37 127.12 279.74 131.95 C 276.06 130.20 271.08 131.52 268.24 128.32 C 269.67 125.49 269.02 122.05 270.71 119.36 Z" fill="#ffde8c" opacity="1.00" stroke="#ffde8c" stroke-width="0.25" data-index="13"></path>
<path d="M 301.42 112.37 C 303.18 113.12 304.93 113.89 306.68 114.67 C 306.73 119.42 305.97 124.22 303.87 128.51 C 304.06 125.16 301.94 122.52 298.87 121.39 C 295.55 122.80 294.36 126.73 292.20 129.39 C 292.26 128.89 292.36 127.88 292.42 127.38 C 293.26 123.71 295.29 120.21 297.41 117.11 C 298.86 115.63 300.19 114.03 301.42 112.37 Z" fill="#ffdc55" opacity="1.00" stroke="#ffdc55" stroke-width="0.25" data-index="14"></path>
<path d="M 228.38 113.35 C 230.84 116.11 234.88 116.43 237.43 119.10 C 238.09 122.61 238.92 126.11 238.80 129.71 C 234.78 130.42 230.78 131.57 226.68 131.68 C 226.27 129.19 225.26 126.75 225.50 124.20 C 225.98 120.47 226.90 116.81 228.38 113.35 Z" fill="#ffdd89" opacity="1.00" stroke="#ffdd89" stroke-width="0.25" data-index="15"></path>
<path d="M 172.99 123.88 C 171.71 120.80 174.68 118.22 176.99 116.71 C 178.93 116.45 180.71 117.69 182.26 118.72 C 186.41 122.05 188.93 126.86 192.23 130.95 C 193.37 132.62 195.10 134.05 195.41 136.15 C 191.74 134.01 190.02 129.66 186.08 127.93 C 185.36 129.15 184.63 130.37 183.91 131.60 C 182.85 131.13 181.80 130.66 180.75 130.19 C 179.22 136.63 185.29 141.41 187.09 147.14 C 186.05 146.46 184.96 145.78 184.41 144.62 C 180.38 137.85 175.35 131.48 172.99 123.88 Z" fill="#fff0bc" opacity="1.00" stroke="#fff0bc" stroke-width="0.25" data-index="16"></path>
<path d="M 322.50 122.77 C 323.54 118.99 327.74 117.62 331.03 116.40 C 332.97 118.21 336.38 119.80 335.75 122.99 C 336.14 127.27 332.52 130.24 330.03 133.21 C 330.86 130.99 331.47 128.69 331.95 126.37 C 329.65 125.20 327.77 123.45 326.58 121.16 C 325.19 121.63 323.82 122.14 322.50 122.77 Z" fill="#fef3c6" opacity="1.00" stroke="#fef3c6" stroke-width="0.25" data-index="17"></path>
<path d="M 248.57 119.85 C 252.29 116.46 257.33 119.39 259.45 123.10 C 259.25 124.57 260.02 126.45 258.96 127.67 C 255.59 128.33 252.14 128.15 248.73 128.17 C 248.58 125.40 248.50 122.62 248.57 119.85 Z" fill="#ffc829" opacity="1.00" stroke="#ffc829" stroke-width="0.25" data-index="18"></path>
<path d="M 204.44 122.39 C 206.43 121.70 208.52 121.35 210.62 121.50 C 211.70 122.75 212.80 123.98 213.85 125.25 C 215.28 128.14 216.50 131.12 217.52 134.18 C 214.81 136.43 211.37 137.41 208.15 138.70 C 206.25 135.48 205.38 131.83 204.20 128.31 C 204.23 126.34 204.35 124.36 204.44 122.39 Z" fill="#ffca2f" opacity="1.00" stroke="#ffca2f" stroke-width="0.25" data-index="19"></path>
<path d="M 292.20 129.39 C 294.36 126.73 295.55 122.80 298.87 121.39 C 301.94 122.52 304.06 125.16 303.87 128.51 C 302.67 131.70 301.69 134.99 300.04 137.98 C 296.88 136.90 293.29 136.36 290.77 134.02 C 290.50 132.36 291.72 130.91 292.20 129.39 Z" fill="#ffcb2f" opacity="1.00" stroke="#ffcb2f" stroke-width="0.25" data-index="20"></path>
<path d="M 322.50 122.77 C 323.82 122.14 325.19 121.63 326.58 121.16 C 327.77 123.45 329.65 125.20 331.95 126.37 C 331.47 128.69 330.86 130.99 330.03 133.21 C 328.88 135.23 328.53 138.55 325.84 139.03 C 326.56 136.13 327.24 133.22 327.83 130.28 C 326.35 130.38 324.88 130.49 323.41 130.59 C 322.71 129.89 322.01 129.20 321.32 128.50 C 319.73 129.33 318.15 130.18 316.67 131.19 C 317.19 127.62 320.10 125.18 322.50 122.77 Z" fill="#ffecb0" opacity="1.00" stroke="#ffecb0" stroke-width="0.25" data-index="21"></path>
<path d="M 144.08 128.78 C 145.36 127.92 146.64 127.08 147.95 126.25 C 152.78 127.76 157.91 130.27 160.10 135.12 C 158.30 134.33 156.58 133.39 154.92 132.35 C 153.14 132.93 151.40 133.62 149.70 134.39 C 149.65 135.65 149.59 136.92 149.54 138.18 C 146.26 136.27 144.96 132.26 144.08 128.78 Z" fill="#feefaa" opacity="1.00" stroke="#feefaa" stroke-width="0.25" data-index="22"></path>
<path d="M 352.04 130.98 C 354.23 128.83 356.89 126.76 360.03 126.48 C 361.68 126.27 362.52 128.02 363.70 128.82 C 363.74 133.55 359.94 136.72 357.31 140.16 C 356.03 141.65 355.09 143.81 352.89 144.02 C 353.76 142.27 354.65 140.53 355.59 138.81 C 353.81 137.76 352.31 136.36 351.33 134.53 C 349.84 135.01 348.35 135.49 346.88 136.03 C 348.08 133.87 350.35 132.69 352.04 130.98 Z" fill="#ffeea3" opacity="1.00" stroke="#ffeea3" stroke-width="0.25" data-index="23"></path>
<path d="M 183.91 131.60 C 184.63 130.37 185.36 129.15 186.08 127.93 C 190.02 129.66 191.74 134.01 195.41 136.15 C 197.41 138.20 198.68 140.83 200.27 143.19 C 196.90 145.82 193.38 148.25 189.95 150.82 C 188.59 149.94 187.63 148.65 187.09 147.14 C 185.29 141.41 179.22 136.63 180.75 130.19 C 181.80 130.66 182.85 131.13 183.91 131.60 Z" fill="#ffdf8b" opacity="1.00" stroke="#ffdf8b" stroke-width="0.25" data-index="24"></path>
<path d="M 316.67 131.19 C 318.15 130.18 319.73 129.33 321.32 128.50 C 322.01 129.20 322.71 129.89 323.41 130.59 C 324.88 130.49 326.35 130.38 327.83 130.28 C 327.24 133.22 326.56 136.13 325.84 139.03 C 324.37 143.23 321.02 146.48 319.07 150.46 C 314.64 149.84 312.14 145.49 308.21 143.72 C 309.33 138.71 313.86 135.33 316.67 131.19 Z" fill="#ffde8c" opacity="1.00" stroke="#ffde8c" stroke-width="0.25" data-index="25"></path>
<path d="M 149.70 134.39 C 151.40 133.62 153.14 132.93 154.92 132.35 C 156.58 133.39 158.30 134.33 160.10 135.12 C 162.18 135.84 163.84 137.42 164.84 139.36 C 163.06 138.90 161.27 138.49 159.49 138.07 C 159.50 139.23 159.51 140.38 159.52 141.54 C 158.85 142.30 158.19 143.05 157.52 143.81 C 158.43 145.48 159.27 147.18 159.99 148.93 C 159.35 148.77 158.08 148.46 157.44 148.30 C 155.24 144.89 152.18 142.21 149.50 139.21 L 149.54 138.18 C 149.59 136.92 149.65 135.65 149.70 134.39 Z" fill="#fee990" opacity="1.00" stroke="#fee990" stroke-width="0.25" data-index="26"></path>
<path d="M 346.88 136.03 C 348.35 135.49 349.84 135.01 351.33 134.53 C 352.31 136.36 353.81 137.76 355.59 138.81 C 354.65 140.53 353.76 142.27 352.89 144.02 C 351.82 146.15 350.35 148.32 347.99 149.12 C 348.47 147.68 348.92 146.23 349.39 144.79 C 348.00 143.23 346.56 141.72 345.08 140.25 C 343.60 140.83 342.12 141.40 340.66 142.00 C 342.01 139.41 344.43 137.52 346.88 136.03 Z" fill="#ffe682" opacity="1.00" stroke="#ffe682" stroke-width="0.25" data-index="27"></path>
<path d="M 159.49 138.07 C 161.27 138.49 163.06 138.90 164.84 139.36 C 166.75 140.23 167.93 142.16 169.63 143.38 C 171.91 145.45 175.06 147.03 176.06 150.13 C 173.51 149.08 171.45 147.14 168.84 146.21 C 168.50 146.81 167.82 148.00 167.48 148.59 C 166.36 148.57 165.24 148.56 164.12 148.55 C 164.70 150.74 165.31 152.93 166.06 155.07 C 163.36 154.01 161.10 151.59 159.99 148.93 C 159.27 147.18 158.43 145.48 157.52 143.81 C 158.19 143.05 158.85 142.30 159.52 141.54 C 159.51 140.38 159.50 139.23 159.49 138.07 Z" fill="#fedf65" opacity="1.00" stroke="#fedf65" stroke-width="0.25" data-index="28"></path>
<path d="M 224.02 141.81 C 228.07 141.18 231.96 139.80 235.98 138.99 C 239.50 137.85 243.30 138.77 246.82 137.62 C 251.94 137.15 257.12 137.54 262.26 137.45 C 264.29 138.61 266.74 138.09 268.98 138.35 C 271.78 138.29 274.33 139.73 277.14 139.67 L 277.94 140.28 C 278.98 140.41 280.02 140.56 281.06 140.74 C 285.27 142.65 289.99 143.46 293.96 145.88 C 291.70 145.90 289.63 146.81 287.67 147.85 C 291.36 149.72 295.00 151.68 298.86 153.16 C 303.14 154.90 305.64 159.01 309.33 161.60 C 311.45 162.83 311.81 165.35 312.51 167.48 C 314.12 168.07 315.84 168.46 317.32 169.37 C 318.24 171.88 318.62 174.62 320.05 176.93 C 321.38 179.21 323.77 180.61 325.18 182.84 C 326.58 185.06 323.38 187.60 325.33 189.64 C 328.93 194.49 330.50 200.84 328.41 206.67 C 326.35 211.50 326.68 216.83 325.65 221.89 C 324.48 224.92 323.63 228.06 323.54 231.33 C 322.60 231.85 321.67 232.38 320.74 232.90 C 319.09 238.01 315.84 242.39 312.15 246.22 C 311.84 248.55 312.13 251.36 309.98 252.93 C 304.75 257.25 299.37 261.44 293.15 264.28 C 289.30 267.35 284.37 268.34 280.56 271.47 C 276.93 271.80 273.31 272.13 269.95 273.68 C 259.79 274.27 249.31 274.21 239.46 271.29 C 235.50 269.49 231.52 267.61 228.12 264.86 C 226.73 263.73 224.82 264.33 223.20 264.24 C 219.63 258.97 213.17 256.59 210.16 250.90 C 208.67 248.29 204.90 248.17 203.70 245.34 C 200.25 238.83 197.37 232.05 194.35 225.34 C 198.01 220.60 193.03 215.17 193.38 210.00 C 193.93 204.99 194.57 199.94 193.96 194.91 C 193.62 192.35 191.38 190.09 192.33 187.39 C 193.21 184.79 195.15 182.73 196.43 180.33 C 198.19 177.34 198.76 173.73 201.01 171.03 C 205.77 165.69 207.89 158.13 214.17 154.16 C 215.85 153.70 217.60 153.55 219.33 153.32 C 220.59 149.32 224.69 147.93 227.90 145.87 C 230.29 144.16 233.37 144.37 236.12 143.76 C 232.93 141.03 228.63 141.66 224.79 142.13 L 224.02 141.81 Z" fill="#ffc023" opacity="1.00" stroke="#ffc023" stroke-width="0.25" data-index="29" style="opacity: 1; visibility: visible; fill: rgb(255, 210, 35); stroke: rgb(255, 210, 35); display: none;"></path>
<path d="M 340.66 142.00 C 342.12 141.40 343.60 140.83 345.08 140.25 C 346.56 141.72 348.00 143.23 349.39 144.79 C 348.92 146.23 348.47 147.68 347.99 149.12 C 347.53 150.77 346.10 151.82 345.01 153.04 C 343.75 154.17 342.79 155.96 340.88 155.95 C 341.68 154.05 342.76 152.28 343.74 150.48 C 341.96 149.40 340.15 148.27 339.02 146.46 C 337.71 146.93 336.38 147.35 335.00 147.48 C 335.77 144.81 338.42 143.34 340.66 142.00 Z" fill="#ffdd60" opacity="1.00" stroke="#ffdd60" stroke-width="0.25" data-index="30"></path>
<path d="M 224.79 142.13 C 228.63 141.66 232.93 141.03 236.12 143.76 C 233.37 144.37 230.29 144.16 227.90 145.87 C 224.69 147.93 220.59 149.32 219.33 153.32 C 217.60 153.55 215.85 153.70 214.17 154.16 C 207.89 158.13 205.77 165.69 201.01 171.03 C 198.76 173.73 198.19 177.34 196.43 180.33 C 195.15 182.73 193.21 184.79 192.33 187.39 C 191.38 190.09 193.62 192.35 193.96 194.91 C 194.57 199.94 193.93 204.99 193.38 210.00 C 193.03 215.17 198.01 220.60 194.35 225.34 C 197.37 232.05 200.25 238.83 203.70 245.34 C 204.90 248.17 208.67 248.29 210.16 250.90 C 213.17 256.59 219.63 258.97 223.20 264.24 C 224.82 264.33 226.73 263.73 228.12 264.86 C 231.52 267.61 235.50 269.49 239.46 271.29 C 249.31 274.21 259.79 274.27 269.95 273.68 C 273.31 272.13 276.93 271.80 280.56 271.47 C 284.37 268.34 289.30 267.35 293.15 264.28 C 299.37 261.44 304.75 257.25 309.98 252.93 C 312.13 251.36 311.84 248.55 312.15 246.22 C 315.84 242.39 319.09 238.01 320.74 232.90 C 321.67 232.38 322.60 231.85 323.54 231.33 C 323.63 228.06 324.48 224.92 325.65 221.89 C 326.68 216.83 326.35 211.50 328.41 206.67 C 330.50 200.84 328.93 194.49 325.33 189.64 C 323.38 187.60 326.58 185.06 325.18 182.84 C 323.77 180.61 321.38 179.21 320.05 176.93 C 318.62 174.62 318.24 171.88 317.32 169.37 C 315.84 168.46 314.12 168.07 312.51 167.48 C 311.81 165.35 311.45 162.83 309.33 161.60 C 305.64 159.01 303.14 154.90 298.86 153.16 C 295.00 151.68 291.36 149.72 287.67 147.85 C 289.63 146.81 291.70 145.90 293.96 145.88 C 314.11 154.90 330.80 171.50 340.21 191.45 C 340.95 192.86 341.73 194.32 341.79 195.96 C 341.75 197.50 341.69 199.04 341.65 200.58 C 340.41 200.51 339.17 200.44 337.93 200.37 C 342.09 206.48 340.91 214.15 339.89 221.00 C 339.85 224.79 337.22 227.78 336.33 231.35 C 335.36 234.73 334.32 238.20 332.07 240.98 C 328.11 245.89 326.77 252.74 321.46 256.56 C 319.96 257.58 319.80 259.54 319.15 261.10 C 317.27 262.23 315.28 263.20 313.52 264.53 C 311.87 266.22 310.90 268.56 308.88 269.89 C 305.56 272.11 301.55 273.00 298.23 275.23 C 291.19 280.08 282.60 281.89 274.24 282.79 C 268.58 285.59 262.27 284.16 256.23 284.52 C 245.57 284.06 235.19 280.85 225.56 276.38 C 222.30 273.36 217.58 273.38 214.00 270.95 C 203.57 263.74 194.52 253.84 190.29 241.73 C 185.82 238.71 184.17 233.18 183.99 228.02 C 183.96 225.20 182.14 222.82 181.97 220.04 C 181.53 214.99 180.57 210.01 180.16 204.97 C 180.16 198.31 182.31 191.77 181.58 185.09 C 182.69 183.63 183.64 182.07 184.41 180.41 C 183.25 180.89 182.09 181.38 180.93 181.85 C 182.20 180.12 183.92 178.82 185.46 177.35 C 186.03 175.11 185.29 172.78 185.06 170.53 C 186.45 171.05 187.86 171.51 189.28 171.94 C 192.01 167.18 193.40 161.30 198.05 157.94 C 201.68 155.13 205.82 153.11 209.63 150.57 C 209.37 150.28 208.85 149.70 208.59 149.41 C 208.46 149.26 208.22 148.95 208.10 148.79 C 213.57 146.36 218.86 143.32 224.79 142.13 Z" fill="#fdb025" opacity="1.00" stroke="#fdb025" stroke-width="0.25" data-index="31" style="opacity: 1; visibility: visible; fill: rgb(255, 210, 35); stroke: rgb(255, 210, 35); display: none;"></path>
<path d="M 168.84 146.21 C 171.45 147.14 173.51 149.08 176.06 150.13 C 178.66 151.04 180.01 153.71 182.43 154.95 C 182.40 155.91 182.77 157.12 181.73 157.71 C 179.30 159.87 177.30 162.43 175.05 164.76 C 172.20 161.42 168.06 159.02 166.06 155.07 C 165.31 152.93 164.70 150.74 164.12 148.55 C 165.24 148.56 166.36 148.57 167.48 148.59 C 167.82 148.00 168.50 146.81 168.84 146.21 Z" fill="#fdca33" opacity="1.00" stroke="#fdca33" stroke-width="0.25" data-index="32"></path>
<path d="M 335.00 147.48 C 336.38 147.35 337.71 146.93 339.02 146.46 C 340.15 148.27 341.96 149.40 343.74 150.48 C 342.76 152.28 341.68 154.05 340.88 155.95 C 339.77 159.26 336.38 161.08 334.17 163.63 C 333.60 163.60 332.46 163.55 331.90 163.52 C 330.01 160.70 327.24 158.66 325.17 155.99 C 327.69 152.76 331.22 150.61 333.96 147.61 L 335.00 147.48 Z" fill="#ffcb2e" opacity="1.00" stroke="#ffcb2e" stroke-width="0.25" data-index="33"></path>
<path d="M 165.24 198.32 C 172.53 177.61 188.20 160.52 206.99 149.49 L 208.59 149.41 C 208.85 149.70 209.37 150.28 209.63 150.57 C 205.82 153.11 201.68 155.13 198.05 157.94 C 193.40 161.30 192.01 167.18 189.28 171.94 C 187.86 171.51 186.45 171.05 185.06 170.53 C 185.29 172.78 186.03 175.11 185.46 177.35 C 183.92 178.82 182.20 180.12 180.93 181.85 C 182.09 181.38 183.25 180.89 184.41 180.41 C 183.64 182.07 182.69 183.63 181.58 185.09 C 182.31 191.77 180.16 198.31 180.16 204.97 C 180.57 210.01 181.53 214.99 181.97 220.04 C 182.14 222.82 183.96 225.20 183.99 228.02 C 184.17 233.18 185.82 238.71 190.29 241.73 C 194.52 253.84 203.57 263.74 214.00 270.95 C 217.58 273.38 222.30 273.36 225.56 276.38 C 235.19 280.85 245.57 284.06 256.23 284.52 C 262.27 284.16 268.58 285.59 274.24 282.79 C 282.60 281.89 291.19 280.08 298.23 275.23 C 301.55 273.00 305.56 272.11 308.88 269.89 C 310.90 268.56 311.87 266.22 313.52 264.53 C 315.28 263.20 317.27 262.23 319.15 261.10 C 319.80 259.54 319.96 257.58 321.46 256.56 C 326.77 252.74 328.11 245.89 332.07 240.98 C 334.32 238.20 335.36 234.73 336.33 231.35 C 337.22 227.78 339.85 224.79 339.89 221.00 C 340.91 214.15 342.09 206.48 337.93 200.37 C 339.17 200.44 340.41 200.51 341.65 200.58 C 341.69 199.04 341.75 197.50 341.79 195.96 C 343.82 198.53 344.00 201.98 345.21 204.94 C 349.63 221.45 349.92 239.17 345.50 255.71 C 343.80 261.04 342.54 266.82 339.60 271.55 C 331.21 271.23 322.72 272.66 315.09 276.24 C 310.08 278.58 305.70 282.45 303.26 287.47 C 297.77 288.02 292.59 289.97 287.25 291.22 C 284.32 292.14 281.44 294.40 278.32 292.73 C 274.80 296.03 270.13 293.54 265.95 293.82 C 257.62 293.93 249.29 293.76 240.96 293.89 C 238.39 294.02 235.95 293.19 233.53 292.50 C 231.08 291.79 228.37 293.20 226.06 291.94 C 223.08 290.33 220.10 288.65 216.75 287.95 C 211.01 285.72 205.31 282.91 199.05 282.57 C 195.35 282.40 191.63 282.45 187.93 282.49 C 183.87 282.45 179.99 284.17 175.91 283.65 C 175.63 283.59 175.07 283.48 174.79 283.43 C 173.03 278.54 169.53 274.40 167.58 269.56 C 164.82 262.93 162.21 256.10 161.27 248.94 L 160.67 248.17 C 158.96 236.83 159.08 225.28 160.67 213.93 L 161.32 213.11 C 161.53 207.97 163.57 203.13 165.24 198.32 Z" fill="#fb9f29" opacity="1.00" stroke="#fb9f29" stroke-width="0.25" data-index="34" style="opacity: 1; visibility: visible; fill: rgb(255, 210, 35); stroke: rgb(255, 210, 35); display: none;"></path>
<path d="M 138.68 154.77 C 142.59 153.84 147.76 154.72 150.08 158.29 C 148.46 158.28 146.85 158.32 145.24 158.35 C 144.57 160.94 143.70 163.48 143.09 166.09 C 143.33 168.00 144.97 169.42 146.02 170.96 C 142.17 170.06 139.44 167.01 136.96 164.15 C 134.83 161.39 134.83 156.03 138.68 154.77 Z" fill="#fdf4c6" opacity="1.00" stroke="#fdf4c6" stroke-width="0.25" data-index="35"></path>
<path d="M 352.67 160.71 C 357.18 158.73 361.19 155.61 366.04 154.49 C 368.20 154.77 370.32 156.05 371.55 157.87 C 372.28 161.36 369.80 164.26 367.50 166.53 C 365.05 168.78 362.73 171.49 359.36 172.31 C 361.63 169.95 363.95 167.61 365.78 164.88 C 364.93 163.88 364.08 162.88 363.23 161.89 C 363.26 160.91 363.29 159.94 363.33 158.97 C 359.40 159.39 355.67 160.72 351.99 162.08 C 352.16 161.74 352.50 161.05 352.67 160.71 Z" fill="#fef3c4" opacity="1.00" stroke="#fef3c4" stroke-width="0.25" data-index="36"></path>
<path d="M 145.24 158.35 C 146.85 158.32 148.46 158.28 150.08 158.29 C 153.77 159.86 157.34 162.28 160.24 165.08 C 157.34 164.16 154.43 163.25 151.51 162.39 C 150.81 165.11 149.13 167.81 149.40 170.64 C 150.98 172.74 153.24 174.22 155.06 176.11 C 151.65 175.30 148.72 173.08 146.02 170.96 C 144.97 169.42 143.33 168.00 143.09 166.09 C 143.70 163.48 144.57 160.94 145.24 158.35 Z" fill="#fdebad" opacity="1.00" stroke="#fdebad" stroke-width="0.25" data-index="37"></path>
<path d="M 351.99 162.08 C 355.67 160.72 359.40 159.39 363.33 158.97 C 363.29 159.94 363.26 160.91 363.23 161.89 C 364.08 162.88 364.93 163.88 365.78 164.88 C 363.95 167.61 361.63 169.95 359.36 172.31 C 357.23 169.58 355.05 166.90 352.73 164.33 C 351.35 164.34 349.97 164.34 348.60 164.38 C 349.54 163.36 350.64 162.49 351.99 162.08 Z" fill="#ffe9a4" opacity="1.00" stroke="#ffe9a4" stroke-width="0.25" data-index="38"></path>
<path d="M 255.91 160.96 C 258.06 159.12 261.01 160.02 263.54 160.23 C 263.78 160.84 264.26 162.07 264.50 162.68 C 267.75 163.25 271.24 162.34 274.34 163.71 C 277.91 165.40 281.99 166.09 284.86 169.01 C 290.74 172.11 294.27 177.75 297.58 183.25 C 297.07 183.87 296.57 184.50 296.07 185.13 C 298.96 187.51 301.77 190.06 303.96 193.12 C 304.28 203.05 304.06 213.03 304.03 222.97 C 300.37 224.61 296.85 227.44 295.28 231.39 C 293.46 233.72 291.95 236.24 291.28 239.15 C 290.38 239.61 289.49 240.08 288.61 240.55 C 287.96 243.44 285.28 244.13 282.80 244.83 C 280.53 246.67 278.32 248.55 275.21 248.48 C 272.54 250.60 269.15 249.95 266.00 250.11 C 264.43 250.20 263.53 251.87 261.99 252.06 C 259.30 252.21 256.31 252.60 253.95 251.04 C 251.44 249.28 248.24 249.71 245.50 248.57 C 242.93 247.42 240.13 247.80 237.43 247.61 C 232.57 244.14 229.53 238.85 225.06 234.93 C 223.20 233.65 224.49 230.69 222.61 229.48 C 220.04 227.73 217.82 225.49 216.14 222.86 C 215.84 220.76 215.87 218.64 215.77 216.53 C 215.15 216.29 213.91 215.81 213.28 215.58 C 212.55 212.42 212.54 209.18 212.85 205.97 C 213.16 202.78 212.26 199.17 214.40 196.45 C 215.83 194.55 216.85 192.37 216.11 189.96 C 220.38 186.68 224.20 182.44 224.65 176.82 C 228.28 175.68 229.85 171.84 233.17 170.23 C 235.25 169.11 237.07 167.58 238.84 166.03 C 239.59 166.63 240.34 167.22 241.09 167.81 C 242.84 165.79 244.61 163.48 247.26 162.64 C 250.22 162.78 253.45 162.93 255.91 160.96 Z" fill="#ffd223" opacity="1.00" stroke="#ffd223" stroke-width="0.25" data-index="39" style="opacity: 1; visibility: visible; fill: rgb(255, 210, 35); stroke: rgb(255, 210, 35);"></path>
<path d="M 151.51 162.39 C 154.43 163.25 157.34 164.16 160.24 165.08 C 163.29 166.68 167.08 167.92 168.91 171.00 C 168.08 174.66 165.15 177.39 163.55 180.73 C 160.09 180.95 157.59 178.03 155.06 176.11 C 153.24 174.22 150.98 172.74 149.40 170.64 C 149.13 167.81 150.81 165.11 151.51 162.39 Z" fill="#ffdf8e" opacity="1.00" stroke="#ffdf8e" stroke-width="0.25" data-index="40"></path>
<path d="M 348.60 164.38 C 349.97 164.34 351.35 164.34 352.73 164.33 C 355.05 166.90 357.23 169.58 359.36 172.31 L 359.62 172.65 C 355.32 175.71 350.15 177.41 346.45 181.33 C 346.02 181.34 345.16 181.36 344.73 181.37 C 342.81 177.96 339.58 174.99 339.11 170.97 C 341.18 167.62 345.34 166.30 348.60 164.38 Z" fill="#fedf8e" opacity="1.00" stroke="#fedf8e" stroke-width="0.25" data-index="41"></path>
<path d="M 113.76 176.77 C 118.49 174.93 124.13 175.65 128.40 178.34 C 125.33 179.05 122.80 181.01 121.80 184.06 C 123.95 185.94 126.31 187.56 128.56 189.31 C 124.53 188.91 121.07 186.32 117.14 185.37 C 113.55 184.25 113.05 179.94 113.76 176.77 Z" fill="#fbf0ab" opacity="1.00" stroke="#fbf0ab" stroke-width="0.25" data-index="42"></path>
<path d="M 379.71 178.43 C 383.36 175.78 388.62 174.90 392.93 176.30 C 395.06 177.10 394.33 179.82 394.48 181.59 C 392.93 183.28 391.38 185.08 389.25 186.06 C 381.52 189.94 373.29 192.67 365.50 196.41 C 362.91 197.49 360.18 198.91 357.29 198.33 C 360.44 196.61 363.64 194.93 367.13 194.01 C 369.79 193.16 372.35 192.06 374.92 190.98 C 379.78 189.32 384.71 187.13 387.81 182.84 C 385.89 180.20 382.67 179.32 379.71 178.43 Z" fill="#fdf0ac" opacity="1.00" stroke="#fdf0ac" stroke-width="0.25" data-index="43"></path>
<path d="M 128.40 178.34 C 133.45 178.93 138.17 181.12 143.05 182.49 C 144.25 183.06 146.07 182.97 146.71 184.34 C 142.32 183.96 138.01 181.84 133.59 182.66 C 131.76 184.30 130.27 188.43 132.94 190.03 C 136.84 193.01 141.54 194.71 146.26 195.88 C 149.00 196.91 151.66 198.80 154.67 198.71 C 156.65 196.16 157.10 192.62 158.48 189.69 C 156.12 188.11 153.22 187.69 150.86 186.13 C 153.89 186.08 156.98 186.79 159.51 188.52 C 160.19 190.98 158.13 193.25 157.61 195.60 C 156.83 197.28 156.58 200.86 153.94 200.11 C 145.14 197.47 136.46 194.03 128.56 189.31 C 126.31 187.56 123.95 185.94 121.80 184.06 C 122.80 181.01 125.33 179.05 128.40 178.34 Z" fill="#ffea92" opacity="1.00" stroke="#ffea92" stroke-width="0.25" data-index="44"></path>
<path d="M 360.95 184.37 C 366.84 181.41 373.48 180.47 379.71 178.43 C 382.67 179.32 385.89 180.20 387.81 182.84 C 384.71 187.13 379.78 189.32 374.92 190.98 C 376.19 189.76 377.36 188.46 378.54 187.15 C 377.50 185.57 376.52 183.95 375.65 182.27 C 370.64 182.17 365.90 184.02 360.95 184.37 Z" fill="#ffe992" opacity="1.00" stroke="#ffe992" stroke-width="0.25" data-index="45"></path>
<path d="M 133.59 182.66 C 138.01 181.84 142.32 183.96 146.71 184.34 C 148.07 184.44 149.26 185.08 150.37 185.84 C 147.49 185.65 144.61 185.52 141.73 185.53 C 141.09 187.79 140.59 190.10 140.32 192.45 C 142.33 193.54 144.29 194.71 146.26 195.88 C 141.54 194.71 136.84 193.01 132.94 190.03 C 130.27 188.43 131.76 184.30 133.59 182.66 Z" fill="#fedf68" opacity="1.00" stroke="#fedf68" stroke-width="0.25" data-index="46"></path>
<path d="M 360.95 184.37 C 365.90 184.02 370.64 182.17 375.65 182.27 C 376.52 183.95 377.50 185.57 378.54 187.15 C 377.36 188.46 376.19 189.76 374.92 190.98 C 372.35 192.06 369.79 193.16 367.13 194.01 C 368.03 191.30 368.66 188.51 369.50 185.78 C 362.91 184.62 356.37 187.05 350.21 189.14 C 350.24 190.30 350.29 191.47 350.35 192.63 C 348.73 192.21 348.62 190.12 348.48 188.74 C 352.47 186.88 356.74 185.61 360.95 184.37 Z" fill="#ffe06a" opacity="1.00" stroke="#ffe06a" stroke-width="0.25" data-index="47"></path>
<path d="M 141.73 185.53 C 144.61 185.52 147.49 185.65 150.37 185.84 L 150.86 186.13 C 153.22 187.69 156.12 188.11 158.48 189.69 C 157.10 192.62 156.65 196.16 154.67 198.71 C 151.66 198.80 149.00 196.91 146.26 195.88 C 144.29 194.71 142.33 193.54 140.32 192.45 C 140.59 190.10 141.09 187.79 141.73 185.53 Z" fill="#ffcd36" opacity="1.00" stroke="#ffcd36" stroke-width="0.25" data-index="48"></path>
<path d="M 350.21 189.14 C 356.37 187.05 362.91 184.62 369.50 185.78 C 368.66 188.51 368.03 191.30 367.13 194.01 C 363.64 194.93 360.44 196.61 357.29 198.33 C 355.85 199.19 354.21 199.56 352.57 199.77 C 352.08 197.31 350.64 195.12 350.35 192.63 C 350.29 191.47 350.24 190.30 350.21 189.14 Z" fill="#fecc33" opacity="1.00" stroke="#fecc33" stroke-width="0.25" data-index="49"></path>
<path d="M 253.04 190.87 C 255.28 190.59 256.44 187.74 258.84 188.14 C 262.58 188.55 266.08 190.26 269.92 190.18 C 271.62 191.80 273.53 193.19 275.26 194.79 C 276.66 198.59 278.09 202.40 279.69 206.13 C 280.90 208.89 278.92 211.46 277.99 213.95 C 276.27 217.50 276.01 222.29 271.95 224.11 C 267.23 225.94 261.95 225.65 257.24 227.56 C 253.56 224.99 247.94 225.69 245.58 221.41 C 244.07 218.98 240.72 217.85 240.38 214.73 C 239.68 210.40 239.66 205.89 240.52 201.58 C 240.75 200.02 242.14 199.16 243.16 198.13 C 244.90 196.72 245.57 194.52 246.80 192.72 C 248.66 191.53 250.95 191.42 253.04 190.87 Z" fill="#ffe51d" opacity="1.00" stroke="#ffe51d" stroke-width="0.25" data-index="50" style="opacity: 1; visibility: visible; fill: rgb(255, 210, 35); stroke: rgb(255, 210, 35);"></path>
<path d="M 117.80 209.00 C 119.20 206.40 121.85 203.99 125.00 204.27 C 129.41 204.27 134.04 204.02 138.16 205.90 C 135.80 206.19 132.32 205.58 131.23 208.33 C 131.04 209.81 131.25 211.30 131.34 212.79 C 130.49 213.60 129.62 214.40 128.77 215.22 C 132.08 216.60 135.51 217.69 139.07 218.22 C 142.71 218.92 146.34 219.67 150.02 220.12 C 150.66 218.68 151.31 217.25 151.87 215.78 C 152.40 217.70 151.97 219.64 151.40 221.50 C 148.17 221.90 145.09 220.59 141.93 220.17 C 135.50 219.34 129.40 217.02 123.04 215.90 C 120.29 214.83 117.64 212.11 117.80 209.00 Z" fill="#fef0bf" opacity="1.00" stroke="#fef0bf" stroke-width="0.25" data-index="51"></path>
<path d="M 374.45 205.35 C 377.71 203.29 381.99 203.59 385.63 204.42 C 389.43 205.16 391.47 210.04 389.35 213.29 C 385.45 215.81 381.01 217.20 376.41 217.74 C 371.13 218.37 366.02 220.68 360.66 220.17 C 365.44 218.20 370.82 218.03 375.34 215.39 C 376.17 212.02 375.78 208.53 374.45 205.35 Z" fill="#ffefbb" opacity="1.00" stroke="#ffefbb" stroke-width="0.25" data-index="52"></path>
<path d="M 355.48 207.83 C 361.77 206.80 368.06 205.62 374.45 205.35 C 375.78 208.53 376.17 212.02 375.34 215.39 C 370.82 218.03 365.44 218.20 360.66 220.17 C 359.33 220.58 357.97 220.64 356.60 220.33 C 356.49 216.13 355.01 212.05 355.48 207.83 Z" fill="#ffe091" opacity="1.00" stroke="#ffe091" stroke-width="0.25" data-index="53"></path>
<path d="M 131.23 208.33 C 132.32 205.58 135.80 206.19 138.16 205.90 C 140.80 206.56 143.90 205.81 146.20 207.45 C 144.27 207.84 142.26 208.03 140.44 208.82 C 138.99 210.23 138.27 212.18 137.36 213.95 C 137.94 215.37 138.50 216.79 139.07 218.22 C 135.51 217.69 132.08 216.60 128.77 215.22 C 129.62 214.40 130.49 213.60 131.34 212.79 C 131.25 211.30 131.04 209.81 131.23 208.33 Z" fill="#fee89f" opacity="1.00" stroke="#fee89f" stroke-width="0.25" data-index="54"></path>
<path d="M 140.44 208.82 C 142.26 208.03 144.27 207.84 146.20 207.45 C 148.26 207.38 150.31 207.63 152.36 207.80 C 152.92 210.44 152.46 213.18 151.87 215.78 C 151.31 217.25 150.66 218.68 150.02 220.12 C 146.34 219.67 142.71 218.92 139.07 218.22 C 138.50 216.79 137.94 215.37 137.36 213.95 C 138.27 212.18 138.99 210.23 140.44 208.82 Z" fill="#fede8c" opacity="1.00" stroke="#fede8c" stroke-width="0.25" data-index="55"></path>
<path d="M 358.56 227.61 C 361.38 228.80 364.44 228.53 367.42 228.66 C 367.64 228.95 368.07 229.54 368.28 229.83 C 364.90 230.10 361.51 229.71 358.12 229.98 C 357.54 232.40 357.39 234.89 357.47 237.38 C 357.46 238.14 357.42 239.65 357.41 240.41 L 358.58 240.56 C 363.29 241.62 368.09 240.70 372.85 240.89 C 375.58 241.02 378.32 241.07 381.06 240.98 C 383.77 240.90 386.48 240.74 389.19 240.49 C 390.07 238.48 390.98 236.49 391.94 234.52 C 389.56 232.49 386.32 232.08 383.58 230.71 C 386.77 230.13 389.83 231.60 393.02 231.46 C 397.14 231.48 401.96 231.65 404.43 235.52 C 405.06 239.71 400.17 240.84 397.22 242.17 C 384.82 242.55 372.39 242.24 359.98 242.42 C 358.44 242.51 356.95 242.17 355.59 241.48 C 355.29 237.41 356.51 233.48 356.68 229.45 C 357.30 228.83 357.93 228.22 358.56 227.61 Z" fill="#feeea9" opacity="1.00" stroke="#feeea9" stroke-width="0.25" data-index="56"></path>
<path d="M 142.02 230.16 C 144.98 230.59 148.62 229.23 151.19 230.89 C 151.44 234.12 151.19 237.37 151.58 240.59 L 151.08 240.63 C 149.47 240.72 147.87 240.83 146.26 240.90 C 143.84 240.08 139.32 240.17 139.50 236.64 C 138.94 234.09 140.36 231.93 142.02 230.16 Z" fill="#fec92e" opacity="1.00" stroke="#fec92e" stroke-width="0.25" data-index="57"></path>
<path d="M 358.12 229.98 C 361.51 229.71 364.90 230.10 368.28 229.83 C 372.17 229.99 376.04 230.66 379.96 230.48 C 378.41 230.67 376.86 230.84 375.32 231.01 C 376.42 233.36 377.03 235.89 376.64 238.50 C 375.37 239.28 374.10 240.08 372.85 240.89 C 368.09 240.70 363.29 241.62 358.58 240.56 C 361.46 240.05 364.92 240.40 367.24 238.31 C 367.69 236.42 367.92 234.49 368.32 232.60 C 365.85 231.32 362.94 230.18 360.15 231.08 C 358.62 232.77 358.43 235.33 357.47 237.38 C 357.39 234.89 357.54 232.40 358.12 229.98 Z" fill="#ffd84c" opacity="1.00" stroke="#ffd84c" stroke-width="0.25" data-index="58"></path>
<path d="M 118.05 231.62 C 122.79 231.26 127.46 230.07 132.25 230.40 C 130.62 231.39 129.06 232.50 127.50 233.59 C 127.42 235.99 127.68 238.39 128.15 240.75 C 130.77 240.92 133.41 241.01 136.04 241.02 C 139.45 241.10 142.86 241.15 146.26 240.90 C 147.87 240.83 149.47 240.72 151.08 240.63 L 150.60 241.78 C 140.86 241.59 131.00 243.17 121.33 241.69 C 119.46 241.23 117.59 240.77 115.71 240.35 C 114.91 238.54 114.16 236.71 113.45 234.87 C 114.80 233.93 116.14 232.98 117.48 232.02 L 118.05 231.62 Z" fill="#fee684" opacity="1.00" stroke="#fee684" stroke-width="0.25" data-index="59"></path>
<path d="M 132.25 230.40 C 132.89 230.39 134.18 230.37 134.82 230.36 C 133.67 232.97 133.11 235.79 133.21 238.65 C 134.15 239.43 135.10 240.22 136.04 241.02 C 133.41 241.01 130.77 240.92 128.15 240.75 C 127.68 238.39 127.42 235.99 127.50 233.59 C 129.06 232.50 130.62 231.39 132.25 230.40 Z" fill="#fedf62" opacity="1.00" stroke="#fedf62" stroke-width="0.25" data-index="60"></path>
<path d="M 134.82 230.36 C 137.22 230.30 139.62 230.20 142.02 230.16 C 140.36 231.93 138.94 234.09 139.50 236.64 C 139.32 240.17 143.84 240.08 146.26 240.90 C 142.86 241.15 139.45 241.10 136.04 241.02 C 135.10 240.22 134.15 239.43 133.21 238.65 C 133.11 235.79 133.67 232.97 134.82 230.36 Z" fill="#ffd748" opacity="1.00" stroke="#ffd748" stroke-width="0.25" data-index="61"></path>
<path d="M 360.15 231.08 C 362.94 230.18 365.85 231.32 368.32 232.60 C 367.92 234.49 367.69 236.42 367.24 238.31 C 364.92 240.40 361.46 240.05 358.58 240.56 L 357.41 240.41 C 357.42 239.65 357.46 238.14 357.47 237.38 C 358.43 235.33 358.62 232.77 360.15 231.08 Z" fill="#ffca29" opacity="1.00" stroke="#ffca29" stroke-width="0.25" data-index="62"></path>
<path d="M 375.32 231.01 C 376.86 230.84 378.41 230.67 379.96 230.48 C 381.50 233.67 384.21 237.87 381.06 240.98 C 378.32 241.07 375.58 241.02 372.85 240.89 C 374.10 240.08 375.37 239.28 376.64 238.50 C 377.03 235.89 376.42 233.36 375.32 231.01 Z" fill="#fee26d" opacity="1.00" stroke="#fee26d" stroke-width="0.25" data-index="63"></path>
<path d="M 379.96 230.48 C 381.20 230.32 382.40 230.40 383.58 230.71 C 386.32 232.08 389.56 232.49 391.94 234.52 C 390.98 236.49 390.07 238.48 389.19 240.49 C 386.48 240.74 383.77 240.90 381.06 240.98 C 384.21 237.87 381.50 233.67 379.96 230.48 Z" fill="#ffe883" opacity="1.00" stroke="#ffe883" stroke-width="0.25" data-index="64"></path>
<path d="M 107.87 232.81 C 110.90 231.79 114.36 230.92 117.48 232.02 C 116.14 232.98 114.80 233.93 113.45 234.87 C 114.16 236.71 114.91 238.54 115.71 240.35 C 117.59 240.77 119.46 241.23 121.33 241.69 C 118.07 242.99 114.59 242.02 111.26 241.67 C 108.66 241.43 105.93 240.41 104.52 238.08 C 105.31 236.18 105.71 233.66 107.87 232.81 Z" fill="#feefa6" opacity="1.00" stroke="#feefa6" stroke-width="0.25" data-index="65"></path>
<path d="M 134.65 254.47 C 140.47 253.30 145.98 250.78 151.89 250.13 C 153.86 253.49 153.77 257.60 155.38 261.14 C 153.90 263.53 150.80 263.54 148.32 263.95 C 144.11 264.14 139.59 265.54 135.63 263.45 C 135.26 260.46 134.90 257.47 134.65 254.47 Z" fill="#ffe08e" opacity="1.00" stroke="#ffe08e" stroke-width="0.25" data-index="66"></path>
<path d="M 355.99 250.17 C 361.15 250.14 365.98 252.19 370.88 253.55 C 371.51 254.39 372.15 255.24 372.80 256.09 C 371.90 258.44 371.32 260.91 371.16 263.43 C 368.67 263.81 366.17 264.17 363.66 264.43 C 360.22 264.21 356.89 263.07 353.54 262.29 C 353.22 258.16 354.73 254.06 355.99 250.17 Z" fill="#fedf90" opacity="1.00" stroke="#fedf90" stroke-width="0.25" data-index="67"></path>
<path d="M 370.88 253.55 C 371.61 253.66 373.07 253.88 373.80 253.99 C 376.09 255.65 379.48 256.49 380.64 259.26 C 379.78 261.36 379.17 263.56 379.52 265.86 C 375.92 266.11 372.31 265.95 368.71 265.82 C 367.03 265.45 364.62 266.26 363.66 264.43 C 366.17 264.17 368.67 263.81 371.16 263.43 C 371.32 260.91 371.90 258.44 372.80 256.09 C 372.15 255.24 371.51 254.39 370.88 253.55 Z" fill="#ffeaad" opacity="1.00" stroke="#ffeaad" stroke-width="0.25" data-index="68"></path>
<path d="M 373.80 253.99 C 377.19 254.21 380.46 255.27 383.60 256.50 C 385.65 258.30 387.35 260.55 388.40 263.07 C 387.71 267.07 382.71 269.17 379.00 268.33 C 375.60 267.43 371.82 267.52 368.71 265.82 C 372.31 265.95 375.92 266.11 379.52 265.86 C 379.17 263.56 379.78 261.36 380.64 259.26 C 379.48 256.49 376.09 255.65 373.80 253.99 Z" fill="#fef4c3" opacity="1.00" stroke="#fef4c3" stroke-width="0.25" data-index="69"></path>
<path d="M 121.47 259.50 C 124.76 255.85 130.09 255.34 134.65 254.47 C 134.90 257.47 135.26 260.46 135.63 263.45 C 139.59 265.54 144.11 264.14 148.32 263.95 C 146.18 265.41 143.55 265.63 141.10 266.21 C 136.11 267.23 131.10 268.53 125.97 268.47 C 123.72 268.51 122.08 266.73 120.50 265.39 C 120.50 263.41 119.78 261.01 121.47 259.50 Z" fill="#ffedb9" opacity="1.00" stroke="#ffedb9" stroke-width="0.25" data-index="70"></path>
<path d="M 348.49 272.96 C 348.67 271.73 349.12 269.84 350.77 270.25 C 357.59 273.45 364.46 276.65 370.79 280.77 C 371.84 282.04 372.82 283.36 373.81 284.69 C 370.79 284.76 367.77 284.84 364.76 284.91 C 363.29 282.55 362.11 279.89 359.84 278.16 C 356.53 275.55 352.48 274.13 348.49 272.96 Z" fill="#fbdd6c" opacity="1.00" stroke="#fbdd6c" stroke-width="0.25" data-index="71"></path>
<path d="M 145.49 276.84 C 149.73 274.65 154.00 272.51 158.21 270.27 C 160.25 271.78 159.96 274.63 161.49 276.50 C 162.83 277.83 162.66 279.76 162.77 281.49 C 161.14 282.35 159.52 283.36 157.65 283.65 C 154.14 284.39 150.76 285.64 147.27 286.47 C 146.30 285.80 145.32 285.13 144.34 284.48 C 144.67 282.15 145.02 279.83 145.38 277.51 L 145.49 276.84 Z" fill="#ffcd34" opacity="1.00" stroke="#ffcd34" stroke-width="0.25" data-index="72"></path>
<path d="M 315.09 276.24 C 322.72 272.66 331.21 271.23 339.60 271.55 C 340.92 271.74 342.32 271.94 343.59 272.39 L 343.86 273.47 C 333.89 272.89 323.36 273.88 314.48 278.80 C 309.67 281.00 306.99 285.67 303.78 289.53 C 297.29 290.00 291.05 291.82 285.37 295.02 C 285.43 293.51 286.34 292.33 287.25 291.22 C 292.59 289.97 297.77 288.02 303.26 287.47 C 305.70 282.45 310.08 278.58 315.09 276.24 Z" fill="#b8b596" opacity="1.00" stroke="#b8b596" stroke-width="0.25" data-index="73"></path>
<path d="M 343.59 272.39 C 345.22 272.51 346.88 272.56 348.49 272.96 C 352.48 274.13 356.53 275.55 359.84 278.16 C 362.11 279.89 363.29 282.55 364.76 284.91 L 365.36 285.56 C 369.00 286.36 372.99 286.65 376.04 289.02 C 378.75 291.29 381.13 294.05 382.67 297.26 C 382.75 297.75 382.91 298.72 383.00 299.20 L 381.66 298.82 C 379.50 295.28 377.16 291.56 373.45 289.47 C 370.49 287.74 366.93 287.94 363.64 287.48 C 362.39 285.06 361.37 282.45 359.62 280.33 C 357.55 278.16 354.76 276.90 352.06 275.74 C 349.39 274.78 346.61 274.15 343.86 273.47 L 343.59 272.39 Z" fill="#9ebfac" opacity="1.00" stroke="#9ebfac" stroke-width="0.25" data-index="74"></path>
<path d="M 314.48 278.80 C 323.36 273.88 333.89 272.89 343.86 273.47 C 346.61 274.15 349.39 274.78 352.06 275.74 C 351.90 276.24 351.58 277.23 351.43 277.72 C 353.72 279.31 356.75 280.30 358.05 282.97 C 358.96 284.54 359.59 286.25 360.26 287.94 C 355.42 290.50 350.34 292.63 345.77 295.68 C 342.47 298.17 338.07 297.92 334.63 300.10 C 330.88 302.37 326.54 303.15 322.42 304.45 C 315.80 308.01 308.62 310.38 302.03 314.03 C 295.30 316.60 288.62 319.45 281.49 320.68 C 276.11 323.22 270.02 323.31 264.57 325.64 C 264.28 324.53 263.98 323.42 263.69 322.31 C 262.83 323.25 261.97 324.17 261.12 325.11 C 261.04 321.30 261.08 317.35 262.85 313.87 C 263.52 312.90 264.22 311.95 264.95 311.03 C 265.27 311.99 265.93 313.89 266.25 314.84 C 267.06 313.50 267.89 312.17 268.72 310.84 C 269.35 311.82 269.99 312.81 270.63 313.81 C 274.47 313.14 277.90 311.05 281.85 310.75 C 286.90 307.80 292.94 307.77 298.13 305.17 C 302.12 303.14 306.92 302.50 310.07 299.06 C 313.02 296.02 318.10 296.19 320.52 292.50 C 322.09 290.30 324.19 288.60 326.38 287.06 C 325.30 286.46 324.23 285.85 323.16 285.25 C 324.96 284.51 326.75 283.74 328.52 282.90 C 326.22 281.60 323.52 281.79 320.99 281.59 C 322.40 280.86 323.74 279.98 324.96 278.95 C 321.44 278.69 317.85 280.40 314.48 278.80 Z" fill="#c7f3ff" opacity="1.00" stroke="#c7f3ff" stroke-width="0.25" data-index="75" style="opacity: 1;"></path>
<path d="M 352.06 275.74 C 354.76 276.90 357.55 278.16 359.62 280.33 C 361.37 282.45 362.39 285.06 363.64 287.48 C 366.93 287.94 370.49 287.74 373.45 289.47 C 377.16 291.56 379.50 295.28 381.66 298.82 C 382.33 301.02 383.09 303.19 384.01 305.30 C 389.20 304.18 394.70 303.32 399.84 305.18 C 408.71 307.93 417.52 316.01 415.93 326.11 C 409.57 323.76 403.34 319.87 396.33 320.43 C 393.67 320.70 391.67 318.40 389.06 318.34 C 383.65 317.85 378.67 315.48 373.31 314.67 C 368.18 313.18 362.79 312.51 357.90 310.27 C 355.93 309.46 353.76 309.61 351.69 309.31 C 345.18 308.46 338.56 306.69 331.99 308.10 C 322.49 309.86 312.90 313.07 305.55 319.57 C 299.75 320.20 295.37 324.36 289.88 325.87 C 284.33 327.58 278.44 327.99 273.01 330.11 C 271.84 330.47 271.27 331.66 270.46 332.48 C 267.98 331.51 265.34 331.23 262.76 331.96 C 262.59 331.55 262.24 330.72 262.07 330.31 C 261.60 328.61 261.21 326.88 261.12 325.11 C 261.97 324.17 262.83 323.25 263.69 322.31 C 263.98 323.42 264.28 324.53 264.57 325.64 C 270.02 323.31 276.11 323.22 281.49 320.68 C 288.62 319.45 295.30 316.60 302.03 314.03 C 308.62 310.38 315.80 308.01 322.42 304.45 C 326.54 303.15 330.88 302.37 334.63 300.10 C 338.07 297.92 342.47 298.17 345.77 295.68 C 350.34 292.63 355.42 290.50 360.26 287.94 C 359.59 286.25 358.96 284.54 358.05 282.97 C 356.75 280.30 353.72 279.31 351.43 277.72 C 351.58 277.23 351.90 276.24 352.06 275.74 Z" fill="#aaedfe" opacity="1.00" stroke="#aaedfe" stroke-width="0.25" data-index="76" style="opacity: 1;"></path>
<path d="M 139.95 279.99 C 141.40 278.67 143.26 276.88 145.38 277.51 C 145.02 279.83 144.67 282.15 144.34 284.48 C 145.32 285.13 146.30 285.80 147.27 286.47 C 150.76 285.64 154.14 284.39 157.65 283.65 C 157.54 283.99 157.30 284.67 157.19 285.01 C 152.62 286.41 148.21 288.30 143.98 290.50 L 143.56 290.43 C 141.36 290.03 139.10 289.80 136.98 289.04 C 135.64 287.95 134.98 286.28 134.17 284.81 C 136.20 283.33 138.18 281.77 139.95 279.99 Z" fill="#ffe06d" opacity="1.00" stroke="#ffe06d" stroke-width="0.25" data-index="77"></path>
<path d="M 303.78 289.53 C 306.99 285.67 309.67 281.00 314.48 278.80 C 317.85 280.40 321.44 278.69 324.96 278.95 C 323.74 279.98 322.40 280.86 320.99 281.59 C 323.52 281.79 326.22 281.60 328.52 282.90 C 326.75 283.74 324.96 284.51 323.16 285.25 C 324.23 285.85 325.30 286.46 326.38 287.06 C 324.19 288.60 322.09 290.30 320.52 292.50 C 318.10 296.19 313.02 296.02 310.07 299.06 C 306.92 302.50 302.12 303.14 298.13 305.17 C 292.94 307.77 286.90 307.80 281.85 310.75 C 277.90 311.05 274.47 313.14 270.63 313.81 C 269.99 312.81 269.35 311.82 268.72 310.84 C 267.89 312.17 267.06 313.50 266.25 314.84 C 265.93 313.89 265.27 311.99 264.95 311.03 C 267.00 308.74 269.79 307.37 272.32 305.70 C 274.66 304.20 277.56 304.67 280.17 304.16 L 280.34 303.76 C 281.47 300.56 282.74 297.32 285.37 295.02 C 291.05 291.82 297.29 290.00 303.78 289.53 Z" fill="#e0f8ff" opacity="1.00" stroke="#e0f8ff" stroke-width="0.25" data-index="78" style="opacity: 1;"></path>
<path d="M 130.48 284.69 C 133.51 282.91 136.33 280.35 139.95 279.99 C 138.18 281.77 136.20 283.33 134.17 284.81 C 134.98 286.28 135.64 287.95 136.98 289.04 C 139.10 289.80 141.36 290.03 143.56 290.43 C 142.62 291.30 141.49 291.78 140.18 291.89 C 135.69 292.52 131.46 294.79 126.85 294.50 C 126.49 292.82 126.12 291.14 125.77 289.47 C 127.39 287.92 128.93 286.29 130.48 284.69 Z" fill="#ffea8d" opacity="1.00" stroke="#ffea8d" stroke-width="0.25" data-index="79"></path>
<path d="M 370.79 280.77 C 373.22 280.81 375.06 282.70 377.12 283.77 C 380.92 286.32 385.65 287.69 388.48 291.50 C 389.90 292.70 390.34 295.43 388.62 296.58 C 387.04 298.24 384.63 297.56 382.67 297.26 C 381.13 294.05 378.75 291.29 376.04 289.02 C 372.99 286.65 369.00 286.36 365.36 285.56 L 364.76 284.91 C 367.77 284.84 370.79 284.76 373.81 284.69 C 372.82 283.36 371.84 282.04 370.79 280.77 Z" fill="#feeb9e" opacity="1.00" stroke="#feeb9e" stroke-width="0.25" data-index="80"></path>
<path d="M 175.91 283.65 C 179.99 284.17 183.87 282.45 187.93 282.49 C 191.63 282.45 195.35 282.40 199.05 282.57 C 205.31 282.91 211.01 285.72 216.75 287.95 C 219.84 290.20 222.97 292.39 225.92 294.83 C 228.10 297.41 230.31 300.00 232.04 302.92 C 232.63 305.41 232.98 307.94 233.29 310.47 C 231.36 307.67 230.50 304.28 228.40 301.59 C 224.05 295.01 217.38 290.22 210.12 287.31 C 203.32 283.84 195.40 284.24 187.99 284.30 C 183.83 284.20 179.85 285.70 175.70 285.64 L 175.91 283.65 Z" fill="#c0a87d" opacity="1.00" stroke="#c0a87d" stroke-width="0.25" data-index="81"></path>
<path d="M 175.70 285.64 C 179.85 285.70 183.83 284.20 187.99 284.30 C 195.40 284.24 203.32 283.84 210.12 287.31 C 203.33 285.96 196.50 284.33 189.53 284.83 C 179.20 285.60 168.79 288.18 160.21 294.22 C 153.41 298.04 148.49 304.26 144.58 310.88 C 138.84 310.47 132.84 309.11 127.31 311.43 C 120.76 314.31 115.47 319.85 112.62 326.40 C 105.80 328.03 97.58 326.72 92.19 332.15 C 87.82 335.92 90.42 343.05 94.93 345.52 C 98.35 348.65 103.20 348.91 107.33 350.59 C 107.57 353.45 107.95 356.29 108.46 359.12 C 111.69 354.44 113.18 348.50 117.96 344.99 C 122.00 341.29 127.56 340.28 132.87 340.68 C 134.46 338.46 135.98 336.19 137.51 333.93 C 146.73 320.78 167.62 320.09 178.71 331.16 C 179.99 332.78 180.96 335.02 183.16 335.55 C 187.67 336.91 191.84 339.51 194.78 343.21 C 196.93 345.91 197.51 349.41 198.41 352.65 C 202.35 353.52 206.45 353.57 210.34 354.66 C 213.79 355.84 217.05 357.53 220.53 358.62 C 221.01 359.75 221.49 360.90 222.02 362.02 C 214.38 356.94 205.32 354.39 196.16 354.58 C 196.03 352.31 195.92 350.02 195.31 347.83 C 192.95 342.30 187.55 338.84 182.05 336.96 C 178.86 336.09 177.57 332.68 175.07 330.82 C 166.99 324.03 154.79 324.06 145.74 328.86 C 140.22 332.43 136.79 338.17 133.35 343.58 C 130.40 342.92 127.28 342.55 124.37 343.58 C 119.90 344.80 116.84 348.59 114.36 352.27 C 112.59 354.99 111.79 358.26 109.82 360.85 C 106.07 364.51 100.32 366.31 98.29 371.55 C 96.93 375.52 99.85 380.01 103.70 381.19 C 109.31 383.37 115.42 382.95 121.30 382.81 C 121.96 382.91 123.26 383.11 123.92 383.21 C 126.07 386.92 128.70 390.72 133.05 391.98 C 137.68 394.01 142.27 390.99 145.96 388.43 C 150.96 393.48 157.73 397.17 165.00 397.02 C 173.46 397.58 182.04 393.71 187.03 386.83 C 193.54 388.38 198.91 383.13 205.41 383.35 C 206.28 382.19 207.13 381.02 208.01 379.88 C 210.84 376.13 214.84 373.32 219.35 371.98 C 221.56 371.56 224.28 372.19 225.93 370.31 C 226.48 370.74 227.59 371.61 228.14 372.05 C 231.13 368.26 233.32 363.29 238.19 361.58 C 235.16 365.34 231.01 368.48 229.84 373.43 C 226.55 373.59 223.19 373.12 219.95 373.91 C 214.19 375.08 209.33 379.42 207.08 384.80 C 200.91 385.27 193.88 386.73 190.08 392.09 C 184.91 399.10 186.07 409.96 193.06 415.37 C 194.04 416.11 195.06 416.78 196.11 417.44 C 202.10 421.02 209.20 419.61 215.76 420.27 C 220.11 423.97 224.95 427.86 230.95 428.02 C 235.58 428.27 239.21 424.93 243.30 423.36 C 248.69 426.74 254.19 430.36 260.62 431.43 C 270.51 433.34 281.41 431.79 289.48 425.48 C 290.50 424.13 290.69 422.36 291.25 420.82 C 300.70 420.71 310.95 421.63 319.23 416.06 C 321.34 414.67 323.27 413.02 325.04 411.21 C 328.55 407.43 331.05 402.33 330.61 397.07 C 329.94 392.33 325.58 389.17 321.35 387.69 C 314.11 385.38 306.40 386.19 298.92 386.05 C 298.48 383.85 298.03 381.65 297.44 379.49 C 295.02 373.52 288.65 369.07 282.07 370.24 C 278.78 364.18 273.03 359.55 266.41 357.61 C 259.03 355.08 251.13 356.53 243.76 358.28 C 245.43 356.41 247.93 355.94 250.29 355.54 C 260.02 353.23 269.94 356.57 277.99 362.00 C 279.78 360.16 281.41 358.12 283.50 356.60 C 286.94 354.34 290.94 353.19 294.77 351.77 C 297.37 351.28 296.36 348.15 296.66 346.28 C 302.10 338.60 310.96 332.15 320.82 333.43 C 325.01 327.70 330.19 322.20 337.27 320.27 C 348.37 316.90 362.51 317.92 370.33 327.45 C 376.67 327.93 383.96 328.39 388.46 333.53 C 390.66 335.53 391.11 338.57 391.83 341.31 C 395.36 341.55 399.46 342.89 402.57 340.55 C 405.21 338.76 408.26 337.65 410.79 335.72 C 413.46 333.19 415.38 329.77 415.93 326.11 C 417.52 316.01 408.71 307.93 399.84 305.18 C 394.70 303.32 389.20 304.18 384.01 305.30 C 383.09 303.19 382.33 301.02 381.66 298.82 L 383.00 299.20 C 384.38 299.61 383.93 301.79 384.51 302.91 C 391.55 302.14 399.12 301.91 405.44 305.64 C 411.66 308.81 416.95 314.74 417.58 321.91 C 418.29 327.91 415.84 334.37 410.84 337.90 C 408.50 339.80 405.64 340.84 402.99 342.19 C 408.06 344.63 413.74 346.09 418.08 349.90 C 423.09 353.50 426.14 359.97 424.77 366.13 C 423.74 372.80 418.26 377.61 412.68 380.77 C 405.61 384.96 397.39 386.59 389.30 387.29 C 388.03 391.80 383.94 395.72 379.02 395.46 C 374.86 396.03 371.24 393.67 367.95 391.45 C 362.73 394.60 357.24 397.92 350.97 398.21 C 344.61 398.77 338.19 396.72 333.13 392.88 C 331.34 391.48 329.95 389.56 327.84 388.59 C 328.51 390.86 330.69 392.21 331.59 394.35 C 332.73 398.06 332.31 402.18 330.65 405.67 C 326.81 413.95 318.61 419.83 309.76 421.64 C 304.29 422.81 298.66 422.43 293.11 422.39 C 292.20 424.29 291.66 426.57 289.70 427.70 C 275.79 437.17 255.89 435.65 243.04 425.02 C 239.97 427.07 236.76 429.31 232.95 429.55 C 226.61 430.37 220.64 427.00 216.15 422.81 C 214.84 421.35 212.73 422.05 211.04 422.00 C 202.89 422.43 193.81 420.04 188.73 413.25 C 185.37 408.97 184.84 403.17 185.80 397.98 C 186.37 394.57 188.59 391.86 190.15 388.89 C 189.64 388.84 188.62 388.73 188.11 388.68 C 182.32 395.22 173.86 399.45 165.00 398.77 C 157.85 399.05 151.25 395.69 145.96 391.14 C 143.70 391.18 142.06 393.41 139.79 393.75 C 132.83 395.82 125.74 391.11 122.96 384.81 C 115.79 384.72 108.39 384.91 101.57 382.36 C 97.25 380.13 95.12 374.43 97.28 369.99 C 99.02 365.39 104.05 363.72 107.52 360.73 C 105.82 357.97 105.91 354.70 105.60 351.59 C 100.97 350.77 96.14 349.64 92.61 346.33 C 87.93 342.90 86.28 334.98 90.95 330.87 C 96.13 325.42 104.28 326.17 111.07 325.18 C 114.80 318.51 120.05 311.94 127.58 309.49 C 132.85 307.72 138.46 308.67 143.88 308.88 C 149.58 298.06 160.19 290.51 171.57 286.56 C 172.88 286.03 174.26 285.59 175.70 285.64 Z" fill="#9ac4d2" opacity="1.00" stroke="#9ac4d2" stroke-width="0.25" data-index="82" style="opacity: 1;"></path>
<path d="M 118.12 295.14 C 119.26 289.50 124.84 287.56 129.07 284.77 L 130.48 284.69 C 128.93 286.29 127.39 287.92 125.77 289.47 C 126.12 291.14 126.49 292.82 126.85 294.50 C 131.46 294.79 135.69 292.52 140.18 291.89 C 137.50 294.62 133.41 295.03 129.99 296.41 C 126.18 297.71 120.78 299.16 118.12 295.14 Z" fill="#ffefa9" opacity="1.00" stroke="#ffefa9" stroke-width="0.25" data-index="83"></path>
<path d="M 160.21 294.22 C 168.79 288.18 179.20 285.60 189.53 284.83 C 190.90 285.50 192.28 286.16 193.67 286.81 C 191.72 287.76 189.05 288.31 188.56 290.80 C 187.83 293.18 186.66 296.25 188.85 298.24 C 198.23 309.43 213.29 312.41 225.25 319.82 C 229.10 320.59 232.57 322.34 236.13 323.90 C 241.26 324.50 245.28 328.75 250.65 327.94 C 250.58 327.04 250.51 326.14 250.45 325.25 C 251.57 325.75 252.69 326.25 253.81 326.75 C 253.89 326.03 254.03 324.58 254.11 323.85 C 256.66 326.00 258.21 329.10 258.45 332.43 C 258.71 336.99 257.65 341.59 255.04 345.38 C 253.28 344.84 251.48 344.76 249.67 344.91 C 245.00 344.57 241.47 341.03 237.06 339.85 C 233.20 338.72 230.14 335.89 226.30 334.70 C 220.64 332.81 216.12 328.75 210.76 326.24 C 201.57 319.78 190.23 316.48 179.02 316.91 C 173.87 318.44 168.60 320.10 163.15 319.60 C 156.41 318.86 150.05 324.49 143.38 321.56 C 141.83 322.63 140.34 323.83 138.62 324.65 C 136.58 324.99 134.68 323.46 132.64 323.68 C 130.59 324.32 128.70 325.73 126.46 325.53 C 124.07 325.22 122.05 326.68 119.84 327.19 C 117.96 326.99 116.07 326.88 114.21 327.34 C 113.81 327.10 113.02 326.64 112.62 326.40 C 115.47 319.85 120.76 314.31 127.31 311.43 C 132.84 309.11 138.84 310.47 144.58 310.88 C 148.49 304.26 153.41 298.04 160.21 294.22 Z" fill="#adeefe" opacity="1.00" stroke="#adeefe" stroke-width="0.25" data-index="84" style="opacity: 1;"></path>
<path d="M 189.53 284.83 C 196.50 284.33 203.33 285.96 210.12 287.31 C 217.38 290.22 224.05 295.01 228.40 301.59 C 230.50 304.28 231.36 307.67 233.29 310.47 C 233.56 312.34 233.64 314.23 233.62 316.11 C 240.94 316.67 248.58 318.79 254.11 323.85 C 254.03 324.58 253.89 326.03 253.81 326.75 C 252.69 326.25 251.57 325.75 250.45 325.25 C 250.51 326.14 250.58 327.04 250.65 327.94 C 245.28 328.75 241.26 324.50 236.13 323.90 C 232.57 322.34 229.10 320.59 225.25 319.82 C 213.29 312.41 198.23 309.43 188.85 298.24 C 186.66 296.25 187.83 293.18 188.56 290.80 C 189.05 288.31 191.72 287.76 193.67 286.81 C 192.28 286.16 190.90 285.50 189.53 284.83 Z" fill="#d7f6fe" opacity="1.00" stroke="#d7f6fe" stroke-width="0.25" data-index="85" style="opacity: 1;"></path>
<path d="M 216.75 287.95 C 220.10 288.65 223.08 290.33 226.06 291.94 C 228.37 293.20 231.08 291.79 233.53 292.50 C 235.95 293.19 238.39 294.02 240.96 293.89 C 249.29 293.76 257.62 293.93 265.95 293.82 C 270.13 293.54 274.80 296.03 278.32 292.73 C 281.44 294.40 284.32 292.14 287.25 291.22 C 286.34 292.33 285.43 293.51 285.37 295.02 C 282.74 297.32 281.47 300.56 280.34 303.76 C 280.09 302.32 280.06 300.85 280.20 299.40 C 278.46 299.42 276.74 299.45 275.01 299.48 C 274.29 300.22 273.57 300.97 272.85 301.72 C 261.73 300.17 250.44 302.09 239.33 300.55 C 237.29 300.31 235.24 300.43 233.20 300.56 C 230.93 298.46 228.85 296.03 225.92 294.83 C 222.97 292.39 219.84 290.20 216.75 287.95 Z" fill="#e7923b" opacity="1.00" stroke="#e7923b" stroke-width="0.25" data-index="86" style="opacity: 1; visibility: visible; fill: rgb(255, 210, 35); stroke: rgb(255, 210, 35); display: none;"></path>
<path d="M 225.92 294.83 C 228.85 296.03 230.93 298.46 233.20 300.56 C 235.24 300.43 237.29 300.31 239.33 300.55 C 250.44 302.09 261.73 300.17 272.85 301.72 C 273.57 300.97 274.29 300.22 275.01 299.48 C 276.74 299.45 278.46 299.42 280.20 299.40 C 280.06 300.85 280.09 302.32 280.34 303.76 L 280.17 304.16 C 277.56 304.67 274.66 304.20 272.32 305.70 C 270.24 305.68 268.07 305.38 266.09 306.15 C 264.27 307.26 262.66 308.67 260.95 309.93 C 256.20 306.38 250.36 309.38 245.11 307.83 C 240.60 306.73 234.97 307.23 232.04 302.92 C 230.31 300.00 228.10 297.41 225.92 294.83 Z" fill="#d28b4c" opacity="1.00" stroke="#d28b4c" stroke-width="0.25" data-index="87" style="opacity: 1; visibility: visible; fill: rgb(255, 210, 35); stroke: rgb(255, 210, 35); display: none;"></path>
<path d="M 232.04 302.92 C 234.97 307.23 240.60 306.73 245.11 307.83 C 250.36 309.38 256.20 306.38 260.95 309.93 C 262.66 308.67 264.27 307.26 266.09 306.15 C 268.07 305.38 270.24 305.68 272.32 305.70 C 269.79 307.37 267.00 308.74 264.95 311.03 C 264.22 311.95 263.52 312.90 262.85 313.87 C 262.64 313.39 262.20 312.42 261.99 311.94 C 260.29 313.69 258.95 316.35 256.22 316.52 C 251.01 317.57 246.22 314.52 241.10 314.26 C 238.52 314.29 235.03 313.20 233.62 316.11 C 233.64 314.23 233.56 312.34 233.29 310.47 C 232.98 307.94 232.63 305.41 232.04 302.92 Z" fill="#bb875d" opacity="1.00" stroke="#bb875d" stroke-width="0.25" data-index="88" style="opacity: 1; visibility: visible; fill: rgb(255, 210, 35); display: none;"></path>
<path d="M 331.99 308.10 C 338.56 306.69 345.18 308.46 351.69 309.31 C 353.76 309.61 355.93 309.46 357.90 310.27 C 362.79 312.51 368.18 313.18 373.31 314.67 C 378.67 315.48 383.65 317.85 389.06 318.34 C 391.67 318.40 393.67 320.70 396.33 320.43 C 403.34 319.87 409.57 323.76 415.93 326.11 C 415.38 329.77 413.46 333.19 410.79 335.72 C 408.26 337.65 405.21 338.76 402.57 340.55 C 399.46 342.89 395.36 341.55 391.83 341.31 C 391.11 338.57 390.66 335.53 388.46 333.53 C 383.96 328.39 376.67 327.93 370.33 327.45 C 362.51 317.92 348.37 316.90 337.27 320.27 C 330.19 322.20 325.01 327.70 320.82 333.43 C 310.96 332.15 302.10 338.60 296.66 346.28 C 295.24 344.64 293.84 343.00 292.44 341.35 C 286.49 342.79 279.96 343.63 274.13 341.24 C 269.52 339.45 264.44 337.02 262.76 331.96 C 265.34 331.23 267.98 331.51 270.46 332.48 C 271.27 331.66 271.84 330.47 273.01 330.11 C 278.44 327.99 284.33 327.58 289.88 325.87 C 295.37 324.36 299.75 320.20 305.55 319.57 C 312.90 313.07 322.49 309.86 331.99 308.10 Z" fill="#91e6fd" opacity="1.00" stroke="#91e6fd" stroke-width="0.25" data-index="89" style="opacity: 1;"></path>
<path d="M 256.22 316.52 C 258.95 316.35 260.29 313.69 261.99 311.94 C 262.20 312.42 262.64 313.39 262.85 313.87 C 261.08 317.35 261.04 321.30 261.12 325.11 C 261.21 326.88 261.60 328.61 262.07 330.31 C 261.90 330.89 261.54 332.04 261.36 332.61 C 260.64 332.57 259.18 332.48 258.45 332.43 C 258.21 329.10 256.66 326.00 254.11 323.85 C 248.58 318.79 240.94 316.67 233.62 316.11 C 235.03 313.20 238.52 314.29 241.10 314.26 C 246.22 314.52 251.01 317.57 256.22 316.52 Z" fill="#96887a" opacity="1.00" stroke="#96887a" stroke-width="0.25" data-index="90" style="opacity: 1; visibility: visible; fill: rgb(255, 210, 35); display: none;"></path>
<path d="M 163.15 319.60 C 168.60 320.10 173.87 318.44 179.02 316.91 C 190.23 316.48 201.57 319.78 210.76 326.24 C 216.12 328.75 220.64 332.81 226.30 334.70 C 230.14 335.89 233.20 338.72 237.06 339.85 C 241.47 341.03 245.00 344.57 249.67 344.91 C 251.48 344.76 253.28 344.84 255.04 345.38 C 253.30 348.00 250.97 350.17 248.56 352.17 C 241.98 355.40 234.32 357.33 227.04 355.85 C 226.59 355.50 225.70 354.82 225.25 354.48 C 226.50 353.69 227.76 352.89 229.02 352.10 C 226.16 348.31 221.29 347.13 217.59 344.39 C 214.32 341.92 209.87 341.54 206.99 338.51 C 206.22 338.42 205.46 338.35 204.70 338.28 C 202.73 333.76 197.91 332.04 193.74 330.19 C 191.16 329.03 188.30 328.86 185.61 328.14 C 183.11 327.45 180.91 325.56 178.20 325.87 C 178.34 327.63 178.49 329.40 178.71 331.16 C 167.62 320.09 146.73 320.78 137.51 333.93 C 137.23 333.52 136.68 332.71 136.40 332.30 C 131.19 332.21 126.16 333.82 121.82 336.64 C 111.73 332.55 102.08 341.64 91.98 339.57 C 93.10 341.48 94.05 343.49 94.93 345.52 C 90.42 343.05 87.82 335.92 92.19 332.15 C 97.58 326.72 105.80 328.03 112.62 326.40 C 113.02 326.64 113.81 327.10 114.21 327.34 C 116.07 326.88 117.96 326.99 119.84 327.19 C 122.05 326.68 124.07 325.22 126.46 325.53 C 128.70 325.73 130.59 324.32 132.64 323.68 C 134.68 323.46 136.58 324.99 138.62 324.65 C 140.34 323.83 141.83 322.63 143.38 321.56 C 150.05 324.49 156.41 318.86 163.15 319.60 Z" fill="#94e6fd" opacity="1.00" stroke="#94e6fd" stroke-width="0.25" data-index="91" style="opacity: 1;"></path>
<path d="M 325.53 330.48 C 336.13 317.78 358.73 316.37 369.53 329.52 C 375.55 330.20 382.65 330.01 387.04 334.94 C 389.43 336.95 389.93 340.13 389.78 343.10 C 390.18 343.46 390.98 344.18 391.38 344.54 C 394.98 345.09 398.73 344.94 402.17 346.37 C 398.76 349.01 393.97 347.32 389.96 347.88 C 387.42 348.58 386.16 346.40 384.92 344.64 C 383.40 345.39 381.86 346.33 380.10 346.20 C 363.99 346.28 347.88 345.87 331.79 346.52 C 326.47 346.75 321.13 345.97 315.84 346.73 C 311.55 347.35 307.05 346.70 302.99 348.53 C 301.80 345.92 303.02 343.34 304.08 340.95 L 304.35 340.29 C 309.30 337.61 315.46 333.26 321.08 336.66 C 323.14 335.07 323.79 332.35 325.53 330.48 Z" fill="#feffff" opacity="1.00" stroke="#feffff" stroke-width="0.25" data-index="92" style="opacity: 1;"></path>
<path d="M 145.74 328.86 C 154.79 324.06 166.99 324.03 175.07 330.82 C 177.57 332.68 178.86 336.09 182.05 336.96 C 187.55 338.84 192.95 342.30 195.31 347.83 C 194.23 350.62 193.39 353.49 192.68 356.39 C 190.43 354.82 187.68 354.71 185.03 354.84 C 173.01 354.99 160.99 355.18 148.97 354.86 C 139.34 355.52 129.65 354.09 120.06 355.53 C 118.28 354.22 116.28 353.33 114.36 352.27 C 116.84 348.59 119.90 344.80 124.37 343.58 C 127.28 342.55 130.40 342.92 133.35 343.58 C 136.79 338.17 140.22 332.43 145.74 328.86 Z" fill="#fcfeff" opacity="1.00" stroke="#fcfeff" stroke-width="0.25" data-index="93"></path>
<path d="M 178.20 325.87 C 180.91 325.56 183.11 327.45 185.61 328.14 C 188.30 328.86 191.16 329.03 193.74 330.19 C 197.91 332.04 202.73 333.76 204.70 338.28 C 205.46 338.35 206.22 338.42 206.99 338.51 C 209.87 341.54 214.32 341.92 217.59 344.39 C 221.29 347.13 226.16 348.31 229.02 352.10 C 227.76 352.89 226.50 353.69 225.25 354.48 C 225.70 354.82 226.59 355.50 227.04 355.85 C 226.25 355.77 224.68 355.62 223.89 355.55 C 222.77 356.58 221.65 357.59 220.53 358.62 C 217.05 357.53 213.79 355.84 210.34 354.66 C 206.45 353.57 202.35 353.52 198.41 352.65 C 197.51 349.41 196.93 345.91 194.78 343.21 C 191.84 339.51 187.67 336.91 183.16 335.55 C 180.96 335.02 179.99 332.78 178.71 331.16 C 178.49 329.40 178.34 327.63 178.20 325.87 Z" fill="#7fe1fc" opacity="1.00" stroke="#7fe1fc" stroke-width="0.25" data-index="94" style="opacity: 1;"></path>
<path d="M 262.07 330.31 C 262.24 330.72 262.59 331.55 262.76 331.96 C 264.44 337.02 269.52 339.45 274.13 341.24 C 279.96 343.63 286.49 342.79 292.44 341.35 C 293.84 343.00 295.24 344.64 296.66 346.28 C 296.36 348.15 297.37 351.28 294.77 351.77 C 290.94 353.19 286.94 354.34 283.50 356.60 C 281.41 358.12 279.78 360.16 277.99 362.00 C 269.94 356.57 260.02 353.23 250.29 355.54 C 250.70 354.78 251.12 354.03 251.54 353.28 C 250.80 353.00 249.31 352.45 248.56 352.17 C 250.97 350.17 253.30 348.00 255.04 345.38 C 257.65 341.59 258.71 336.99 258.45 332.43 C 259.18 332.48 260.64 332.57 261.36 332.61 C 261.54 332.04 261.90 330.89 262.07 330.31 Z" fill="#40acd6" opacity="1.00" stroke="#40acd6" stroke-width="0.25" data-index="95" style="opacity: 1;"></path>
<path d="M 121.82 336.64 C 126.16 333.82 131.19 332.21 136.40 332.30 C 136.68 332.71 137.23 333.52 137.51 333.93 C 135.98 336.19 134.46 338.46 132.87 340.68 C 127.56 340.28 122.00 341.29 117.96 344.99 C 113.18 348.50 111.69 354.44 108.46 359.12 C 107.95 356.29 107.57 353.45 107.33 350.59 C 103.20 348.91 98.35 348.65 94.93 345.52 C 94.05 343.49 93.10 341.48 91.98 339.57 C 102.08 341.64 111.73 332.55 121.82 336.64 Z" fill="#83e2fc" opacity="1.00" stroke="#83e2fc" stroke-width="0.25" data-index="96"></path>
<path d="M 298.11 352.14 C 297.83 347.57 300.52 343.56 304.08 340.95 C 303.02 343.34 301.80 345.92 302.99 348.53 C 307.05 346.70 311.55 347.35 315.84 346.73 C 321.13 345.97 326.47 346.75 331.79 346.52 C 347.88 345.87 363.99 346.28 380.10 346.20 C 381.86 346.33 383.40 345.39 384.92 344.64 C 386.16 346.40 387.42 348.58 389.96 347.88 C 393.97 347.32 398.76 349.01 402.17 346.37 C 398.73 344.94 394.98 345.09 391.38 344.54 C 390.98 344.18 390.18 343.46 389.78 343.10 C 400.63 343.07 412.89 345.28 420.20 354.04 C 424.44 358.76 424.70 366.48 420.62 371.37 C 420.99 368.54 421.15 365.67 420.70 362.85 C 420.30 364.13 419.91 365.42 419.54 366.72 C 417.27 364.74 415.09 362.34 411.99 361.79 C 403.48 359.92 394.71 359.71 386.03 359.86 C 358.69 359.77 331.35 359.93 304.02 359.67 C 296.32 358.99 289.09 362.26 282.58 365.98 C 281.46 364.98 280.36 363.95 279.28 362.93 C 283.40 356.50 290.91 353.51 298.11 352.14 Z" fill="#e8fbff" opacity="1.00" stroke="#e8fbff" stroke-width="0.25" data-index="97" style="opacity: 1;"></path>
<path d="M 195.31 347.83 C 195.92 350.02 196.03 352.31 196.16 354.58 C 205.32 354.39 214.38 356.94 222.02 362.02 C 224.61 364.07 226.01 366.98 225.93 370.31 C 224.28 372.19 221.56 371.56 219.35 371.98 C 214.33 369.72 209.65 366.00 203.91 366.06 C 201.60 365.87 199.32 365.44 197.01 365.26 C 193.62 364.97 190.34 366.19 186.98 366.15 C 185.04 365.66 183.25 364.59 181.23 364.52 C 162.89 364.49 144.52 364.58 126.19 364.42 C 121.58 365.52 116.98 366.99 112.17 366.69 C 108.93 366.39 106.60 369.08 103.92 370.43 C 103.25 370.16 102.58 369.89 101.91 369.63 C 100.89 370.60 99.74 371.41 98.29 371.55 C 100.32 366.31 106.07 364.51 109.82 360.85 C 111.79 358.26 112.59 354.99 114.36 352.27 C 116.28 353.33 118.28 354.22 120.06 355.53 C 129.65 354.09 139.34 355.52 148.97 354.86 C 160.99 355.18 173.01 354.99 185.03 354.84 C 187.68 354.71 190.43 354.82 192.68 356.39 C 193.39 353.49 194.23 350.62 195.31 347.83 Z" fill="#e1f9ff" opacity="1.00" stroke="#e1f9ff" stroke-width="0.25" data-index="98" style="opacity: 1;"></path>
<path d="M 227.04 355.85 C 234.32 357.33 241.98 355.40 248.56 352.17 C 249.31 352.45 250.80 353.00 251.54 353.28 C 251.12 354.03 250.70 354.78 250.29 355.54 C 247.93 355.94 245.43 356.41 243.76 358.28 C 241.81 359.21 239.94 360.31 238.19 361.58 C 233.32 363.29 231.13 368.26 228.14 372.05 C 227.59 371.61 226.48 370.74 225.93 370.31 C 226.01 366.98 224.61 364.07 222.02 362.02 C 221.49 360.90 221.01 359.75 220.53 358.62 C 221.65 357.59 222.77 356.58 223.89 355.55 C 224.68 355.62 226.25 355.77 227.04 355.85 Z" fill="#36a0cb" opacity="1.00" stroke="#36a0cb" stroke-width="0.25" data-index="99"></path>
<path d="M 243.76 358.28 C 251.13 356.53 259.03 355.08 266.41 357.61 C 273.03 359.55 278.78 364.18 282.07 370.24 C 288.65 369.07 295.02 373.52 297.44 379.49 C 296.79 381.24 296.20 383.02 295.39 384.70 C 294.12 385.55 292.55 384.90 291.18 384.80 C 285.82 383.70 280.35 384.16 274.93 384.12 C 265.28 384.11 255.63 384.18 245.97 384.15 C 242.88 384.21 239.92 383.25 236.99 382.40 C 232.27 386.16 226.12 382.78 220.93 384.98 C 213.70 387.88 206.61 391.46 198.70 392.02 C 198.77 391.03 198.83 390.04 198.88 389.06 C 201.77 388.25 204.42 386.33 207.50 386.54 C 207.40 386.11 207.19 385.24 207.08 384.80 C 209.33 379.42 214.19 375.08 219.95 373.91 C 223.19 373.12 226.55 373.59 229.84 373.43 C 231.01 368.48 235.16 365.34 238.19 361.58 C 239.94 360.31 241.81 359.21 243.76 358.28 Z" fill="#fcffff" opacity="1.00" stroke="#fcffff" stroke-width="0.25" data-index="100" style="opacity: 1;"></path>
<path d="M 282.58 365.98 C 289.09 362.26 296.32 358.99 304.02 359.67 C 331.35 359.93 358.69 359.77 386.03 359.86 C 394.71 359.71 403.48 359.92 411.99 361.79 C 415.09 362.34 417.27 364.74 419.54 366.72 C 419.91 365.42 420.30 364.13 420.70 362.85 C 421.15 365.67 420.99 368.54 420.62 371.37 C 420.31 372.10 419.89 372.78 419.37 373.42 C 418.87 372.99 417.86 372.14 417.35 371.72 C 414.81 372.18 412.65 371.11 410.67 369.65 C 405.48 368.87 400.23 368.12 394.97 368.21 C 365.31 368.38 335.65 368.09 305.99 368.37 C 301.90 369.45 297.95 366.39 293.99 368.09 C 292.67 368.48 291.37 368.91 290.07 369.34 C 287.68 368.05 283.12 369.33 282.58 365.98 Z" fill="#cef4fe" opacity="1.00" stroke="#cef4fe" stroke-width="0.25" data-index="101" style="opacity: 1;"></path>
<path d="M 112.17 366.69 C 116.98 366.99 121.58 365.52 126.19 364.42 C 144.52 364.58 162.89 364.49 181.23 364.52 C 183.25 364.59 185.04 365.66 186.98 366.15 C 190.34 366.19 193.62 364.97 197.01 365.26 C 199.32 365.44 201.60 365.87 203.91 366.06 C 209.65 366.00 214.33 369.72 219.35 371.98 C 214.84 373.32 210.84 376.13 208.01 379.88 C 207.37 379.30 206.72 378.74 206.08 378.18 C 202.46 380.46 198.30 378.35 194.39 378.50 C 189.56 378.49 184.73 378.50 179.94 377.81 C 162.73 377.61 145.51 377.93 128.30 377.60 C 126.90 377.65 126.41 379.65 124.94 379.58 C 120.56 379.86 116.14 379.46 111.78 380.15 C 114.01 383.05 118.14 381.93 121.30 382.81 C 115.42 382.95 109.31 383.37 103.70 381.19 C 99.85 380.01 96.93 375.52 98.29 371.55 C 99.74 371.41 100.89 370.60 101.91 369.63 C 102.58 369.89 103.25 370.16 103.92 370.43 C 106.60 369.08 108.93 366.39 112.17 366.69 Z" fill="#c3f2fe" opacity="1.00" stroke="#c3f2fe" stroke-width="0.25" data-index="102" style="opacity: 1;"></path>
<path d="M 293.99 368.09 C 297.95 366.39 301.90 369.45 305.99 368.37 C 335.65 368.09 365.31 368.38 394.97 368.21 C 400.23 368.12 405.48 368.87 410.67 369.65 C 412.65 371.11 414.81 372.18 417.35 371.72 C 417.86 372.14 418.87 372.99 419.37 373.42 C 411.35 381.63 399.57 385.35 388.26 385.30 C 386.79 388.27 385.69 392.11 382.15 393.20 C 377.03 395.56 371.85 392.16 367.93 389.07 C 362.19 393.43 355.33 396.79 347.97 396.59 C 340.54 396.26 333.75 392.25 329.14 386.55 C 325.35 388.38 321.85 385.39 318.08 385.11 C 312.24 384.12 306.30 384.49 300.43 383.93 C 299.82 377.57 295.49 372.38 290.07 369.34 C 291.37 368.91 292.67 368.48 293.99 368.09 Z" fill="#b1effe" opacity="1.00" stroke="#b1effe" stroke-width="0.25" data-index="103" style="opacity: 1;"></path>
<path d="M 124.94 379.58 C 126.41 379.65 126.90 377.65 128.30 377.60 C 145.51 377.93 162.73 377.61 179.94 377.81 C 184.73 378.50 189.56 378.49 194.39 378.50 C 198.30 378.35 202.46 380.46 206.08 378.18 C 206.72 378.74 207.37 379.30 208.01 379.88 C 207.13 381.02 206.28 382.19 205.41 383.35 C 198.91 383.13 193.54 388.38 187.03 386.83 C 182.04 393.71 173.46 397.58 165.00 397.02 C 157.73 397.17 150.96 393.48 145.96 388.43 C 142.27 390.99 137.68 394.01 133.05 391.98 C 128.70 390.72 126.07 386.92 123.92 383.21 C 123.26 383.11 121.96 382.91 121.30 382.81 C 118.14 381.93 114.01 383.05 111.78 380.15 C 116.14 379.46 120.56 379.86 124.94 379.58 Z" fill="#adedff" opacity="1.00" stroke="#adedff" stroke-width="0.25" data-index="104" style="opacity: 1;"></path>
<path d="M 297.44 379.49 C 298.03 381.65 298.48 383.85 298.92 386.05 C 306.40 386.19 314.11 385.38 321.35 387.69 C 325.58 389.17 329.94 392.33 330.61 397.07 C 331.05 402.33 328.55 407.43 325.04 411.21 C 321.02 408.85 318.25 404.79 313.74 403.22 C 307.12 399.21 299.32 398.61 291.95 396.91 C 284.40 395.40 276.65 395.90 269.00 395.84 C 256.00 395.98 243.00 395.58 230.01 395.89 C 226.11 395.85 222.72 397.93 219.11 399.06 C 215.74 400.11 211.96 399.12 208.77 400.84 C 205.50 402.51 201.89 403.66 199.15 406.21 C 197.51 407.72 195.46 408.61 193.40 409.41 C 194.15 410.06 194.90 410.72 195.64 411.38 C 195.11 411.61 194.05 412.07 193.52 412.30 C 193.36 413.32 193.21 414.34 193.06 415.37 C 186.07 409.96 184.91 399.10 190.08 392.09 C 193.88 386.73 200.91 385.27 207.08 384.80 C 207.19 385.24 207.40 386.11 207.50 386.54 C 204.42 386.33 201.77 388.25 198.88 389.06 C 198.83 390.04 198.77 391.03 198.70 392.02 C 206.61 391.46 213.70 387.88 220.93 384.98 C 226.12 382.78 232.27 386.16 236.99 382.40 C 239.92 383.25 242.88 384.21 245.97 384.15 C 255.63 384.18 265.28 384.11 274.93 384.12 C 280.35 384.16 285.82 383.70 291.18 384.80 C 292.55 384.90 294.12 385.55 295.39 384.70 C 296.20 383.02 296.79 381.24 297.44 379.49 Z" fill="#e9fbff" opacity="1.00" stroke="#e9fbff" stroke-width="0.25" data-index="105" style="opacity: 1;"></path>
<path d="M 219.11 399.06 C 222.72 397.93 226.11 395.85 230.01 395.89 C 243.00 395.58 256.00 395.98 269.00 395.84 C 276.65 395.90 284.40 395.40 291.95 396.91 C 299.32 398.61 307.12 399.21 313.74 403.22 C 318.25 404.79 321.02 408.85 325.04 411.21 C 323.27 413.02 321.34 414.67 319.23 416.06 C 316.20 412.94 313.56 409.03 309.18 407.73 C 303.85 404.98 297.77 405.12 292.01 404.04 C 288.67 403.51 285.34 404.41 281.99 404.34 C 266.01 404.30 250.03 404.28 234.05 404.32 C 226.05 404.26 217.84 404.00 210.10 406.30 C 205.06 409.47 200.24 413.11 196.11 417.44 C 195.06 416.78 194.04 416.11 193.06 415.37 C 193.21 414.34 193.36 413.32 193.52 412.30 C 194.05 412.07 195.11 411.61 195.64 411.38 C 194.90 410.72 194.15 410.06 193.40 409.41 C 195.46 408.61 197.51 407.72 199.15 406.21 C 201.89 403.66 205.50 402.51 208.77 400.84 C 211.96 399.12 215.74 400.11 219.11 399.06 Z" fill="#d0f4fe" opacity="1.00" stroke="#d0f4fe" stroke-width="0.25" data-index="106" style="opacity: 1;"></path>
<path d="M 281.99 404.34 C 285.34 404.41 288.67 403.51 292.01 404.04 C 297.77 405.12 303.85 404.98 309.18 407.73 C 313.56 409.03 316.20 412.94 319.23 416.06 C 310.95 421.63 300.70 420.71 291.25 420.82 C 290.69 422.36 290.50 424.13 289.48 425.48 C 281.41 431.79 270.51 433.34 260.62 431.43 C 254.19 430.36 248.69 426.74 243.30 423.36 C 239.21 424.93 235.58 428.27 230.95 428.02 C 224.95 427.86 220.11 423.97 215.76 420.27 C 209.20 419.61 202.10 421.02 196.11 417.44 C 200.24 413.11 205.06 409.47 210.10 406.30 C 217.84 404.00 226.05 404.26 234.05 404.32 C 250.03 404.28 266.01 404.30 281.99 404.34 Z" fill="#b5f0ff" opacity="1.00" stroke="#b5f0ff" stroke-width="0.25" data-index="107" style="opacity: 1;"></path>
<path d="M264.95,311.03c-0.73,0.92 -1.43,1.87 -2.1,2.84c-0.21,-0.48 -0.65,-1.45 -0.86,-1.93c-1.7,1.75 -3.04,4.41 -5.77,4.58c-5.21,1.05 -10,-2 -15.12,-2.26c-2.58,0.03 -6.07,-1.06 -7.48,1.85c0.02,-1.88 -0.06,-3.77 -0.33,-5.64c-0.31,-2.53 -0.66,-5.06 -1.25,-7.55c-1.73,-2.92 -3.94,-5.51 -6.12,-8.09c-2.95,-2.44 -6.08,-4.63 -9.17,-6.88c-5.74,-2.23 -11.44,-5.04 -17.7,-5.38c-3.7,-0.17 -7.42,-0.12 -11.12,-0.08c-4.06,-0.04 -7.94,1.68 -12.02,1.16c-0.28,-0.06 -0.84,-0.17 -1.12,-0.22c-1.76,-4.89 -5.26,-9.03 -7.21,-13.87c-2.76,-6.63 -5.37,-13.46 -6.31,-20.62l-0.6,-0.77c-1.71,-11.34 -1.59,-22.89 0,-34.24l0.65,-0.82c0.21,-5.14 2.25,-9.98 3.92,-14.79c7.29,-20.71 22.96,-37.8 41.75,-48.83l1.6,-0.08c-0.13,-0.15 -0.37,-0.46 -0.49,-0.62c5.47,-2.43 10.76,-5.47 16.69,-6.66l-0.77,-0.32c4.05,-0.63 7.94,-2.01 11.96,-2.82c3.52,-1.14 7.32,-0.22 10.84,-1.37c5.12,-0.47 10.3,-0.08 15.44,-0.17c2.03,1.16 4.48,0.64 6.72,0.9c2.8,-0.06 5.35,1.38 8.16,1.32l0.8,0.61c1.04,0.13 2.08,0.28 3.12,0.46c4.21,1.91 8.93,2.72 12.9,5.14c20.15,9.02 36.84,25.62 46.25,45.57c0.74,1.41 1.52,2.87 1.58,4.51c2.03,2.57 2.21,6.02 3.42,8.98c4.42,16.51 4.71,34.23 0.29,50.77c-1.7,5.33 -2.96,11.11 -5.9,15.84c-8.39,-0.32 -16.88,1.11 -24.51,4.69c-5.01,2.34 -9.39,6.21 -11.83,11.23c-5.49,0.55 -10.67,2.5 -16.01,3.75c-0.91,1.11 -1.82,2.29 -1.88,3.8c-2.63,2.3 -3.9,5.54 -5.03,8.74l-0.17,0.4c-2.61,0.51 -5.51,0.04 -7.85,1.54c-2.53,1.67 -5.32,3.04 -7.37,5.33zM214.17,154.16c-6.28,3.97 -8.4,11.53 -13.16,16.87c4.76,-5.34 6.88,-12.9 13.16,-16.87zM201.01,171.03c-2.25,2.7 -2.82,6.31 -4.58,9.3c1.76,-2.99 2.33,-6.6 4.58,-9.3zM196.43,180.33c-1.28,2.4 -3.22,4.46 -4.1,7.06c0.88,-2.6 2.82,-4.66 4.1,-7.06zM192.33,187.39c-0.95,2.7 1.29,4.96 1.63,7.52c-0.34,-2.56 -2.58,-4.82 -1.63,-7.52zM193.38,210c-0.35,5.17 4.63,10.6 0.97,15.34c3.66,-4.74 -1.32,-10.17 -0.97,-15.34zM194.35,225.34c3.02,6.71 5.9,13.49 9.35,20c-3.45,-6.51 -6.33,-13.29 -9.35,-20zM203.7,245.34c1.2,2.83 4.97,2.95 6.46,5.56c-1.49,-2.61 -5.26,-2.73 -6.46,-5.56zM210.16,250.9c3.01,5.69 9.47,8.07 13.04,13.34c-3.57,-5.27 -10.03,-7.65 -13.04,-13.34zM223.2,264.24c1.62,0.09 3.53,-0.51 4.92,0.62c-1.39,-1.13 -3.3,-0.53 -4.92,-0.62zM320.74,232.9c0.93,-0.52 1.86,-1.05 2.8,-1.57c-0.94,0.52 -1.87,1.05 -2.8,1.57zM323.54,231.33c0.09,-3.27 0.94,-6.41 2.11,-9.44c-1.17,3.03 -2.02,6.17 -2.11,9.44zM325.65,221.89c1.03,-5.06 0.7,-10.39 2.76,-15.22c-2.06,4.83 -1.73,10.16 -2.76,15.22zM320.05,176.93c-1.43,-2.31 -1.81,-5.05 -2.73,-7.56c0.92,2.51 1.3,5.25 2.73,7.56zM312.51,167.48c-0.7,-2.13 -1.06,-4.65 -3.18,-5.88c2.12,1.23 2.48,3.75 3.18,5.88zM309.33,161.6c-3.69,-2.59 -6.19,-6.7 -10.47,-8.44c4.28,1.74 6.78,5.85 10.47,8.44zM298.86,153.16c-3.86,-1.48 -7.5,-3.44 -11.19,-5.31c3.69,1.87 7.33,3.83 11.19,5.31z" id="path-88 1" fill="url(#grad-108)" fill-rule="nonzero" stroke="url(#grad-108)" stroke-width="0.25" stroke-linecap="butt" stroke-linejoin="miter" stroke-miterlimit="10" stroke-dasharray="" stroke-dashoffset="0" font-family="none" font-weight="none" font-size="none" text-anchor="none" style="mix-blend-mode: normal; opacity: 1; display: none;" data-index="108"></path><path d="M261.12,325.11c0.09,1.77 0.48,3.5 0.95,5.2c-0.17,0.58 -0.53,1.73 -0.71,2.3c-0.72,-0.04 -2.18,-0.13 -2.91,-0.18c-0.24,-3.33 -1.79,-6.43 -4.34,-8.58c-5.53,-5.06 -13.17,-7.18 -20.49,-7.74c0.02,-1.88 -0.06,-3.77 -0.33,-5.64c-0.31,-2.53 -0.66,-5.06 -1.25,-7.55c-1.73,-2.92 -3.94,-5.51 -6.12,-8.09c-2.95,-2.44 -6.08,-4.63 -9.17,-6.88c-5.74,-2.23 -11.44,-5.04 -17.7,-5.38c-3.7,-0.17 -7.42,-0.12 -11.12,-0.08c-4.06,-0.04 -7.94,1.68 -12.02,1.16c-0.28,-0.06 -0.84,-0.17 -1.12,-0.22c-1.76,-4.89 -5.26,-9.03 -7.21,-13.87c-2.76,-6.63 -5.37,-13.46 -6.31,-20.62l-0.6,-0.77c-1.71,-11.34 -1.59,-22.89 0,-34.24l0.65,-0.82c0.21,-5.14 2.25,-9.98 3.92,-14.79c7.29,-20.71 22.96,-37.8 41.75,-48.83l1.6,-0.08c-0.13,-0.15 -0.37,-0.46 -0.49,-0.62c5.47,-2.43 10.76,-5.47 16.69,-6.66l-0.77,-0.32c4.05,-0.63 7.94,-2.01 11.96,-2.82c3.52,-1.14 7.32,-0.22 10.84,-1.37c5.12,-0.47 10.3,-0.08 15.44,-0.17c2.03,1.16 4.48,0.64 6.72,0.9c2.8,-0.06 5.35,1.38 8.16,1.32l0.8,0.61c1.04,0.13 2.08,0.28 3.12,0.46c4.21,1.91 8.93,2.72 12.9,5.14c20.15,9.02 36.84,25.62 46.25,45.57c0.74,1.41 1.52,2.87 1.58,4.51c2.03,2.57 2.21,6.02 3.42,8.98c4.42,16.51 4.71,34.23 0.29,50.77c-1.7,5.33 -2.96,11.11 -5.9,15.84c-8.39,-0.32 -16.88,1.11 -24.51,4.69c-5.01,2.34 -9.39,6.21 -11.83,11.23c-5.49,0.55 -10.67,2.5 -16.01,3.75c-0.91,1.11 -1.82,2.29 -1.88,3.8c-2.63,2.3 -3.9,5.54 -5.03,8.74l-0.17,0.4c-2.61,0.51 -5.51,0.04 -7.85,1.54c-2.53,1.67 -5.32,3.04 -7.37,5.33c-0.73,0.92 -1.43,1.87 -2.1,2.84c-1.77,3.48 -1.81,7.43 -1.73,11.24zM256.22,316.52c-5.21,1.05 -10,-2 -15.12,-2.26c5.12,0.26 9.91,3.31 15.12,2.26zM233.62,316.11c1.41,-2.91 4.9,-1.82 7.48,-1.85c-2.58,0.03 -6.07,-1.06 -7.48,1.85z" id="path-90 1" fill="url(#grad-109)" fill-rule="nonzero" stroke="url(#grad-109)" stroke-width="0.25" stroke-linecap="butt" stroke-linejoin="miter" stroke-miterlimit="10" stroke-dasharray="" stroke-dashoffset="0" font-family="none" font-weight="none" font-size="none" text-anchor="none" style="mix-blend-mode: normal; opacity: 1;" data-index="109"></path></svg>