<?xml version="1.0" encoding="utf-8"?>
<svg xmlns="http://www.w3.org/2000/svg" height="512pt" version="1.1" viewBox="0 0 512 512" width="512pt">
<path d="M 0.00 0.00 L 512.00 0.00 L 512.00 512.00 L 0.00 512.00 L 0.00 0.00 Z" fill="transparent" opacity="1.00" stroke="transparent" stroke-width="0.25"/>
<path d="M 251.88 68.94 C 258.63 65.09 266.33 60.96 274.36 62.83 C 281.59 64.83 288.52 68.91 292.70 75.30 C 295.34 78.91 296.07 83.56 298.95 87.01 C 301.88 90.46 305.42 93.35 309.16 95.88 C 320.13 103.76 331.71 111.06 340.92 121.08 C 346.28 127.07 351.01 133.81 353.58 141.49 C 354.44 143.68 354.79 146.05 355.80 148.18 C 359.33 151.65 363.27 155.29 364.19 160.41 C 366.09 172.17 366.72 184.18 365.68 196.07 C 365.53 198.79 365.04 201.49 364.14 204.07 C 362.67 207.17 360.05 209.48 357.23 211.34 C 353.84 213.54 351.95 217.45 348.33 219.35 C 345.73 220.77 342.73 221.06 340.01 222.11 C 337.35 225.18 335.52 228.87 333.04 232.09 C 340.73 237.16 347.79 243.40 352.76 251.23 C 361.84 264.81 365.54 281.27 366.58 297.38 C 366.67 299.27 366.67 301.17 366.68 303.06 C 367.21 329.34 360.51 355.56 348.48 378.85 C 346.90 378.63 345.33 378.37 343.77 378.08 C 344.42 375.58 345.23 373.13 346.31 370.79 C 358.93 344.39 364.26 314.22 359.79 285.19 C 357.31 269.03 350.46 252.98 337.91 242.11 C 335.22 239.98 332.57 237.41 329.20 236.52 C 327.89 237.44 326.72 238.53 325.52 239.59 C 316.74 247.74 305.54 252.78 294.15 256.16 C 277.28 261.02 259.91 263.81 242.64 266.79 C 222.74 270.22 202.75 273.00 182.71 275.46 C 178.58 275.69 174.27 277.08 170.22 275.75 C 170.03 274.43 170.07 273.09 170.08 271.77 C 190.16 269.53 210.23 267.11 230.14 263.68 C 223.38 259.06 215.92 255.37 209.95 249.68 C 211.43 249.25 213.07 248.31 214.46 249.51 C 221.04 253.20 227.22 257.58 233.63 261.55 C 235.48 262.99 237.87 262.33 239.99 262.07 C 246.46 260.93 253.01 260.17 259.43 258.67 C 252.06 257.20 244.59 256.01 237.52 253.37 C 221.11 247.44 206.45 236.39 196.93 221.69 C 173.05 240.73 157.03 268.16 148.40 297.18 C 140.31 324.21 138.76 353.03 142.88 380.90 C 143.38 384.06 143.77 387.24 143.95 390.44 C 142.48 390.67 141.01 390.91 139.54 391.15 C 137.75 385.19 137.16 378.96 136.40 372.81 C 135.93 368.15 135.58 363.48 135.46 358.80 C 134.37 331.34 138.86 303.59 149.32 278.14 C 159.10 254.51 174.10 232.64 194.45 216.92 C 193.59 214.86 192.80 212.77 192.10 210.66 C 189.31 209.73 186.26 209.01 184.14 206.84 C 181.82 204.52 180.87 201.31 179.46 198.44 C 177.85 196.43 175.59 195.04 173.95 193.04 C 171.02 189.81 170.48 185.14 170.86 180.96 C 171.73 170.55 173.31 160.15 176.25 150.11 C 177.96 144.89 183.29 142.34 187.42 139.28 C 188.41 137.78 188.88 136.02 189.55 134.37 C 192.37 126.92 196.81 120.09 202.46 114.46 C 209.39 107.07 218.93 103.06 226.73 96.76 C 236.93 89.15 240.81 75.63 251.88 68.94 Z" fill="#083151" opacity="1.00" stroke="#083151" stroke-width="0.25"/>
<path d="M 255.01 73.08 C 260.48 70.07 266.56 66.63 273.03 67.79 C 280.15 70.03 287.44 74.24 290.34 81.50 C 292.47 86.68 295.42 91.62 299.87 95.13 C 312.68 105.67 327.84 113.52 338.68 126.35 C 343.13 131.23 346.64 136.94 348.97 143.13 C 344.58 140.86 340.53 138.00 336.04 135.91 C 314.95 125.81 291.48 121.77 268.25 120.87 C 268.27 111.33 269.39 101.81 269.17 92.27 C 268.49 92.32 267.14 92.43 266.47 92.48 C 265.23 101.86 264.74 111.31 264.45 120.76 C 249.03 121.17 233.52 122.40 218.60 126.55 C 210.42 128.44 202.69 131.72 194.97 134.96 C 198.71 125.58 205.25 117.29 213.68 111.71 C 220.82 106.94 228.62 102.91 234.56 96.57 C 241.89 89.18 245.77 78.55 255.01 73.08 Z" fill="#acedfe" opacity="1.00" stroke="#acedfe" stroke-width="0.25"/>
<path d="M 208.89 134.91 C 222.42 130.07 236.66 127.34 250.99 126.46 C 272.16 125.18 293.63 126.95 314.01 132.97 C 330.24 137.86 346.50 145.16 358.27 157.68 C 361.24 169.82 361.14 182.55 361.07 194.99 C 350.29 184.28 336.53 177.20 322.60 171.53 C 294.97 160.38 264.42 158.49 235.06 161.84 C 214.56 164.51 193.82 169.42 176.01 180.29 C 176.75 170.99 178.46 161.79 180.64 152.72 C 181.05 150.18 183.21 148.59 185.09 147.11 C 192.31 141.80 200.43 137.81 208.89 134.91 Z" fill="#acedfe" opacity="1.00" stroke="#acedfe" stroke-width="0.25"/>
<path d="M 195.88 176.24 C 218.28 168.08 242.26 164.71 266.05 165.41 C 292.04 165.71 317.71 172.99 340.40 185.58 C 342.63 196.16 342.40 207.63 337.54 217.47 C 331.44 230.64 320.22 241.10 307.06 247.03 C 287.76 256.16 265.18 256.96 244.74 251.49 C 226.11 246.03 208.28 234.48 199.01 217.01 C 192.24 204.62 191.64 189.56 195.88 176.24 Z" fill="#fed3be" opacity="1.00" stroke="#fed3be" stroke-width="0.25"/>
<path d="M 237.38 172.63 C 239.23 172.15 241.08 171.55 243.01 171.40 C 246.38 170.79 248.25 176.93 244.77 177.80 C 239.64 179.75 234.35 181.42 228.96 182.48 C 225.73 183.24 224.30 179.09 225.73 176.74 C 229.29 174.60 233.45 173.84 237.38 172.63 Z" fill="#083151" opacity="1.00" stroke="#083151" stroke-width="0.25"/>
<path d="M 293.58 174.34 C 296.30 174.09 299.05 174.42 301.53 175.62 C 305.84 177.56 310.37 179.14 314.33 181.74 C 314.89 183.30 315.10 185.58 313.43 186.54 C 311.55 188.16 309.14 186.55 307.18 185.94 C 302.82 183.87 298.13 182.47 293.98 179.99 C 291.65 178.85 293.40 176.19 293.58 174.34 Z" fill="#083151" opacity="1.00" stroke="#083151" stroke-width="0.25"/>
<path d="M 183.17 192.99 C 182.97 187.62 185.14 181.51 190.59 179.51 C 189.07 188.16 188.98 196.99 190.34 205.67 C 185.40 203.59 183.07 198.08 183.17 192.99 Z" fill="#fed3be" opacity="1.00" stroke="#fed3be" stroke-width="0.25"/>
<path d="M 175.78 186.62 C 177.78 185.35 179.76 184.04 181.75 182.76 C 180.51 185.64 179.50 188.61 178.54 191.59 C 177.49 190.00 176.56 188.34 175.78 186.62 Z" fill="#acedfe" opacity="1.00" stroke="#acedfe" stroke-width="0.25"/>
<path d="M 236.46 185.27 C 239.44 182.87 244.48 185.18 244.55 189.01 C 245.22 192.18 242.29 195.27 239.09 194.67 C 234.35 194.79 232.64 187.73 236.46 185.27 Z" fill="#083151" opacity="1.00" stroke="#083151" stroke-width="0.25"/>
<path d="M 298.32 188.22 C 302.05 187.32 305.60 191.26 304.29 194.88 C 303.37 198.80 297.48 200.00 295.32 196.50 C 293.00 193.77 294.44 188.43 298.32 188.22 Z" fill="#083151" opacity="1.00" stroke="#083151" stroke-width="0.25"/>
<path d="M 345.30 188.72 C 348.29 190.62 351.93 192.51 352.74 196.30 C 354.19 202.38 353.44 210.04 348.19 214.16 C 346.61 215.49 344.61 216.12 342.73 216.87 C 343.69 212.22 345.14 207.65 345.48 202.89 C 345.88 198.17 345.42 193.44 345.30 188.72 Z" fill="#fed3be" opacity="1.00" stroke="#fed3be" stroke-width="0.25"/>
<path d="M 265.29 190.25 C 265.90 190.40 267.12 190.69 267.73 190.84 C 270.07 195.34 271.59 200.34 272.03 205.40 C 268.18 205.82 264.46 204.60 260.70 204.00 C 261.83 200.11 266.06 202.37 268.81 202.54 C 267.60 198.45 265.99 194.47 265.29 190.25 Z" fill="#083151" opacity="1.00" stroke="#083151" stroke-width="0.25"/>
<path d="M 212.38 194.49 C 218.95 192.02 227.16 195.31 230.11 201.69 C 231.47 205.88 230.91 211.33 226.91 213.91 C 220.30 218.24 209.69 216.10 206.53 208.44 C 203.80 203.23 206.82 196.24 212.38 194.49 Z" fill="#f66337" opacity="1.00" stroke="#f66337" stroke-width="0.25"/>
<path d="M 357.17 197.79 C 358.08 198.89 359.07 199.94 359.83 201.16 C 359.88 203.08 358.24 204.56 357.39 206.19 C 357.21 203.39 357.13 200.59 357.17 197.79 Z" fill="#acedfe" opacity="1.00" stroke="#acedfe" stroke-width="0.25"/>
<path d="M 309.50 200.73 C 315.35 199.00 322.23 201.31 325.01 206.93 C 326.63 211.08 326.23 216.56 322.44 219.43 C 316.06 226.03 301.99 222.79 301.23 212.98 C 300.13 207.38 304.67 202.65 309.50 200.73 Z" fill="#f66337" opacity="1.00" stroke="#f66337" stroke-width="0.25"/>
<path d="M 357.23 211.34 C 360.05 209.48 362.67 207.17 364.14 204.07 C 372.71 206.99 381.84 204.09 390.60 205.64 C 393.20 206.14 395.38 208.52 395.58 211.17 C 395.51 214.01 394.40 216.69 393.61 219.39 C 396.52 220.57 399.60 221.30 402.49 222.56 C 404.02 224.27 403.80 226.84 403.76 228.98 C 403.42 234.60 398.84 238.67 397.60 243.99 C 398.28 247.10 400.99 249.61 400.78 252.94 C 400.58 257.86 397.45 261.91 394.79 265.81 C 389.64 272.90 384.34 279.92 378.21 286.21 C 374.49 290.09 371.60 294.98 366.58 297.38 C 365.54 281.27 361.84 264.81 352.76 251.23 C 347.79 243.40 340.73 237.16 333.04 232.09 C 335.52 228.87 337.35 225.18 340.01 222.11 C 342.73 221.06 345.73 220.77 348.33 219.35 C 351.95 217.45 353.84 213.54 357.23 211.34 Z" fill="#d3f6ff" opacity="1.00" stroke="#d3f6ff" stroke-width="0.25"/>
<path d="M 250.62 211.01 C 253.98 211.75 256.74 214.09 260.18 214.54 C 267.79 215.77 276.17 216.21 282.95 211.93 C 283.99 219.61 282.08 228.07 277.12 234.12 C 271.58 240.98 259.83 240.24 254.71 233.27 C 249.89 226.95 249.71 218.57 250.62 211.01 Z" fill="#083151" opacity="1.00" stroke="#083151" stroke-width="0.25"/>
<path d="M 252.74 215.27 C 261.61 218.57 271.14 218.30 280.40 217.35 C 278.32 219.65 274.89 219.32 272.08 219.77 C 265.48 220.12 257.90 220.01 252.74 215.27 Z" fill="#d3f6ff" opacity="1.00" stroke="#d3f6ff" stroke-width="0.25"/>
<path d="M 253.39 219.92 C 257.57 220.75 261.70 221.96 265.97 222.33 C 270.67 222.73 275.30 221.63 279.97 221.26 C 278.75 226.84 276.24 233.10 270.56 235.39 C 266.84 235.99 262.36 236.48 259.37 233.67 C 255.28 230.39 253.08 225.13 253.39 219.92 Z" fill="#f66337" opacity="1.00" stroke="#f66337" stroke-width="0.25"/>
<path d="M 148.40 297.18 C 157.03 268.16 173.05 240.73 196.93 221.69 C 206.45 236.39 221.11 247.44 237.52 253.37 C 244.59 256.01 252.06 257.20 259.43 258.67 C 253.01 260.17 246.46 260.93 239.99 262.07 C 237.87 262.33 235.48 262.99 233.63 261.55 C 227.22 257.58 221.04 253.20 214.46 249.51 C 213.07 248.31 211.43 249.25 209.95 249.68 C 215.92 255.37 223.38 259.06 230.14 263.68 C 210.23 267.11 190.16 269.53 170.08 271.77 C 170.07 273.09 170.03 274.43 170.22 275.75 C 174.27 277.08 178.58 275.69 182.71 275.46 C 202.75 273.00 222.74 270.22 242.64 266.79 C 259.91 263.81 277.28 261.02 294.15 256.16 C 305.54 252.78 316.74 247.74 325.52 239.59 C 326.72 238.53 327.89 237.44 329.20 236.52 C 332.57 237.41 335.22 239.98 337.91 242.11 C 350.46 252.98 357.31 269.03 359.79 285.19 C 364.26 314.22 358.93 344.39 346.31 370.79 C 343.21 369.82 339.89 368.50 336.64 369.55 C 331.62 371.02 326.90 373.46 321.69 374.24 C 312.71 375.56 304.55 379.73 296.29 383.22 C 289.15 386.89 281.50 389.47 274.48 393.37 C 269.29 396.20 264.00 398.84 258.87 401.79 C 252.23 405.64 245.05 408.45 238.45 412.38 C 234.92 414.32 231.31 416.76 227.11 416.64 C 222.02 416.50 217.18 414.77 212.24 413.70 C 206.77 412.41 201.16 412.01 195.63 411.08 C 184.73 409.14 174.03 406.06 163.01 404.80 C 155.56 403.89 148.11 406.70 140.71 405.28 C 137.47 401.25 138.36 395.77 139.54 391.15 C 141.01 390.91 142.48 390.67 143.95 390.44 C 143.77 387.24 143.38 384.06 142.88 380.90 C 138.76 353.03 140.31 324.21 148.40 297.18 Z" fill="#acedfe" opacity="1.00" stroke="#acedfe" stroke-width="0.25"/>
<path d="M 140.49 284.55 C 143.20 282.12 146.07 279.83 149.32 278.14 C 138.86 303.59 134.37 331.34 135.46 358.80 C 124.34 360.26 114.28 366.23 102.95 366.64 C 97.19 367.03 91.20 365.75 86.32 362.60 C 82.66 360.05 82.61 354.79 84.13 351.00 C 86.14 346.08 89.85 342.16 92.86 337.86 C 92.26 334.84 90.26 331.25 92.55 328.49 C 95.55 324.55 99.43 321.40 102.80 317.80 C 107.83 312.47 113.77 308.12 118.86 302.85 C 125.79 296.44 133.37 290.76 140.49 284.55 Z" fill="#d3f6ff" opacity="1.00" stroke="#d3f6ff" stroke-width="0.25"/>
<path d="M 290.06 299.83 C 296.62 298.53 303.05 296.53 309.73 295.86 C 309.71 296.59 309.67 298.05 309.66 298.78 C 278.06 308.68 246.97 320.11 215.52 330.47 C 209.24 332.28 203.22 335.09 196.70 335.97 C 195.50 332.45 199.29 331.75 201.72 330.72 C 210.51 327.43 219.47 324.66 228.25 321.37 C 232.90 319.56 237.84 318.52 242.25 316.12 C 228.57 318.05 215.35 322.92 201.54 323.97 C 201.19 320.76 204.70 320.54 206.95 319.92 C 234.53 312.70 262.33 306.42 290.06 299.83 Z" fill="#083151" opacity="1.00" stroke="#083151" stroke-width="0.25"/>
<path d="M 366.68 303.06 C 370.64 303.74 374.67 304.63 377.91 307.15 C 377.21 309.99 375.57 312.87 376.07 315.84 C 380.07 316.57 384.17 316.47 388.21 316.81 C 397.80 317.75 407.47 316.69 417.03 318.11 C 420.17 318.63 424.28 318.71 425.90 322.02 C 427.80 325.85 428.98 330.29 428.45 334.57 C 426.85 338.31 423.47 340.85 420.59 343.58 C 397.37 363.49 375.65 386.03 347.95 399.83 C 340.12 403.24 332.37 407.14 323.89 408.65 C 317.22 410.07 310.34 410.03 303.60 409.14 C 299.11 408.45 294.79 410.13 290.61 411.52 C 265.89 420.14 240.46 426.43 215.47 434.20 C 203.03 437.89 190.16 440.06 177.24 441.07 C 173.61 441.43 170.09 440.32 166.68 439.25 C 165.63 434.84 167.29 430.62 169.12 426.68 C 165.71 425.89 162.20 425.80 158.77 425.15 C 156.58 423.68 157.15 420.62 157.70 418.46 C 158.79 414.98 160.18 411.55 160.41 407.87 C 155.91 407.60 151.43 408.13 146.94 408.26 C 143.56 408.33 140.46 406.67 137.11 406.52 C 131.88 406.94 126.55 409.77 121.34 407.79 C 118.80 406.03 117.30 402.98 116.82 400.00 C 117.94 394.86 121.75 390.90 124.61 386.65 C 128.31 381.86 130.79 375.76 136.40 372.81 C 137.16 378.96 137.75 385.19 139.54 391.15 C 138.36 395.77 137.47 401.25 140.71 405.28 C 148.11 406.70 155.56 403.89 163.01 404.80 C 174.03 406.06 184.73 409.14 195.63 411.08 C 201.16 412.01 206.77 412.41 212.24 413.70 C 217.18 414.77 222.02 416.50 227.11 416.64 C 231.31 416.76 234.92 414.32 238.45 412.38 C 245.05 408.45 252.23 405.64 258.87 401.79 C 264.00 398.84 269.29 396.20 274.48 393.37 C 281.50 389.47 289.15 386.89 296.29 383.22 C 304.55 379.73 312.71 375.56 321.69 374.24 C 326.90 373.46 331.62 371.02 336.64 369.55 C 339.89 368.50 343.21 369.82 346.31 370.79 C 345.23 373.13 344.42 375.58 343.77 378.08 C 345.33 378.37 346.90 378.63 348.48 378.85 C 360.51 355.56 367.21 329.34 366.68 303.06 Z" fill="#d3f6ff" opacity="1.00" stroke="#d3f6ff" stroke-width="0.25"/>
<path d="M 311.38 342.29 C 312.92 340.50 316.16 343.06 313.99 344.67 C 311.11 347.33 307.54 349.08 304.29 351.23 C 276.76 368.34 249.45 385.80 221.96 402.97 C 220.87 403.63 218.30 404.62 217.85 402.86 C 216.75 401.11 219.11 400.03 220.21 399.16 C 250.15 379.51 280.13 359.80 311.38 342.29 Z" fill="#083151" opacity="1.00" stroke="#083151" stroke-width="0.25"/>
</svg>