<svg xmlns="http://www.w3.org/2000/svg" height="512pt" version="1.1" viewBox="0 0 512 512" width="512pt"><defs>
                <linearGradient id="grad-85" gradientTransform="rotate(78 0.5 0.5)">
                
                        <stop stop-color="#edfafe" offset="0"></stop>
                    ,
                        <stop stop-color="null" offset="0.25"></stop>
                    ,
                        <stop stop-color="#506b7b" offset="0.5"></stop>
                    ,
                        <stop stop-color="#edfbfe" offset="0.75"></stop>
                    
                </linearGradient>
          </defs>
<path d="M 0.00 0.00 L 512.00 0.00 L 512.00 512.00 L 0.00 512.00 L 0.00 0.00 Z" fill="transparent" opacity="1.00" stroke="transparent" stroke-width="0.25" data-index="0" style="opacity: 1; visibility: visible; display: block;"></path>
<path d="M 218.72 64.84 C 231.05 58.34 243.27 51.58 255.89 45.64 C 299.74 68.00 344.07 89.42 387.51 112.57 C 415.29 127.15 443.06 141.73 470.75 156.48 C 471.02 238.71 470.07 320.96 470.20 403.20 C 469.50 403.00 468.11 402.61 467.41 402.41 C 452.80 395.34 437.98 388.67 423.55 381.24 C 424.14 381.27 425.31 381.31 425.89 381.33 C 440.39 387.61 454.33 395.13 468.82 401.42 C 468.86 397.66 468.82 393.90 468.73 390.14 C 450.79 381.75 433.03 372.97 414.91 364.98 C 414.93 364.51 414.98 363.57 415.01 363.10 C 432.71 371.92 450.93 379.68 468.54 388.68 C 469.10 365.78 468.73 342.87 468.92 319.96 C 469.17 266.65 469.23 213.33 469.47 160.01 C 470.15 157.31 467.32 156.38 465.50 155.31 C 423.65 133.15 381.83 110.95 339.69 89.36 C 312.10 75.43 284.37 61.81 256.86 47.74 C 256.77 56.82 256.87 65.90 256.80 74.98 C 257.01 76.27 256.37 78.27 257.90 78.96 C 273.21 86.76 288.71 94.20 304.07 101.92 C 321.27 110.31 338.24 119.22 355.69 127.08 C 356.61 129.61 356.04 132.43 356.18 135.08 C 356.09 198.84 356.19 262.60 356.14 326.36 C 358.17 325.20 360.22 324.07 362.36 323.09 C 362.90 323.23 363.98 323.52 364.52 323.66 C 356.75 328.59 346.38 331.75 342.91 341.19 C 342.76 340.57 342.46 339.34 342.31 338.72 C 343.07 337.02 344.04 335.42 344.94 333.79 C 334.36 339.21 323.97 344.98 313.35 350.32 C 295.31 359.59 277.58 370.50 257.40 374.43 C 257.44 377.67 257.45 380.92 257.44 384.17 C 281.11 372.49 304.30 359.85 327.90 348.02 C 332.47 345.82 336.75 343.04 341.51 341.24 L 341.17 342.63 C 328.25 349.38 315.22 355.93 302.29 362.67 C 290.98 368.54 279.67 374.44 268.37 380.32 C 264.51 382.07 260.99 384.54 256.97 385.92 C 253.33 384.96 250.11 382.87 246.69 381.35 C 236.13 375.82 225.13 371.13 214.76 365.27 C 215.18 365.22 216.03 365.12 216.45 365.07 C 229.80 371.02 242.64 378.08 255.94 384.15 C 255.93 380.78 255.93 377.41 255.94 374.04 C 241.40 371.31 228.40 363.99 215.11 357.88 C 205.33 353.06 195.43 348.46 185.78 343.35 C 186.21 343.26 187.06 343.07 187.49 342.98 C 195.99 346.57 204.03 351.20 212.53 354.82 C 212.43 338.50 212.52 322.18 212.53 305.86 C 207.36 307.41 203.00 310.71 198.05 312.76 C 189.12 317.47 180.19 322.18 171.26 326.88 C 171.37 329.51 171.34 332.17 170.61 334.72 L 170.14 334.50 C 170.29 332.04 170.41 329.57 170.50 327.11 C 168.02 328.18 165.68 329.55 163.51 331.17 C 163.27 331.06 162.79 330.82 162.55 330.70 C 165.17 329.16 167.85 327.72 170.53 326.26 C 170.26 261.67 170.46 197.08 170.43 132.48 C 170.67 132.52 171.15 132.60 171.39 132.64 C 171.32 136.40 171.30 140.17 171.32 143.94 C 171.37 204.58 171.22 265.22 171.35 325.86 C 184.86 319.09 198.17 311.93 211.57 304.97 L 212.30 304.59 C 212.72 304.36 213.57 303.91 213.99 303.69 C 227.40 297.02 240.50 289.75 253.89 283.04 C 256.82 281.94 256.00 278.46 256.16 276.02 C 255.96 258.68 256.46 241.33 255.85 224.00 C 256.64 199.30 255.69 174.58 256.29 149.88 C 252.25 149.84 248.20 149.84 244.17 149.49 L 245.45 148.38 C 248.88 148.23 252.31 148.32 255.74 148.28 C 255.55 125.12 255.65 101.96 255.69 78.80 C 237.05 87.62 218.97 97.58 200.41 106.54 C 199.91 106.50 198.92 106.41 198.43 106.36 C 204.90 102.75 211.54 99.46 218.15 96.10 C 230.59 89.88 242.82 83.20 255.53 77.53 C 255.54 67.40 255.45 57.27 255.62 47.14 C 223.10 63.97 190.77 81.18 158.46 98.41 C 120.46 119.09 82.28 139.42 44.39 160.30 C 44.67 236.96 44.42 313.62 44.61 390.28 C 48.41 388.71 51.80 386.36 55.52 384.65 C 56.10 384.61 57.25 384.54 57.82 384.50 C 53.44 387.32 48.94 389.95 44.30 392.32 C 44.32 396.11 44.29 399.89 44.21 403.69 C 61.89 394.22 79.23 384.08 97.05 374.86 L 97.01 375.82 C 94.79 377.39 92.41 378.71 90.04 380.03 C 75.18 388.19 60.29 396.31 45.55 404.68 C 44.85 404.93 43.45 405.43 42.75 405.68 C 43.34 376.79 43.02 347.89 43.10 319.00 C 43.11 266.29 43.04 213.58 42.92 160.87 C 42.50 159.38 44.12 158.80 45.08 158.18 C 102.87 126.90 160.52 95.36 218.72 64.84 Z" fill="#506b7b" opacity="1.00" stroke="#506b7b" stroke-width="0.25" data-index="1" style="opacity: 1;"></path>
<path d="M 158.46 98.41 C 190.77 81.18 223.10 63.97 255.62 47.14 C 255.45 57.27 255.54 67.40 255.53 77.53 C 242.82 83.20 230.59 89.88 218.15 96.10 C 211.54 99.46 204.90 102.75 198.43 106.36 C 183.87 113.87 169.28 121.32 154.65 128.68 C 154.70 176.39 154.80 224.11 154.60 271.82 C 145.36 266.70 135.52 262.72 126.26 257.65 C 125.22 253.67 126.34 249.40 125.61 245.35 C 124.61 244.70 123.53 244.19 122.48 243.64 C 121.89 242.49 122.21 240.56 120.82 240.03 C 118.72 239.69 116.59 239.79 114.48 239.48 C 117.86 238.11 121.13 236.46 124.14 234.39 C 123.84 233.37 123.54 232.35 123.24 231.34 C 123.28 227.79 123.89 224.14 122.83 220.68 C 122.62 219.92 122.41 219.17 122.19 218.41 L 123.48 218.71 C 123.44 196.29 123.40 173.87 123.54 151.45 C 122.45 151.64 121.29 151.67 120.28 152.17 C 104.06 160.31 87.93 168.65 71.50 176.37 C 71.50 204.57 71.29 232.78 71.62 260.98 C 80.52 257.40 89.01 252.81 97.49 248.33 C 97.61 247.89 97.84 247.01 97.96 246.57 C 98.30 244.66 99.07 242.85 100.67 241.66 C 101.06 243.46 101.41 245.27 101.74 247.09 C 102.93 246.25 104.13 245.40 105.33 244.57 C 107.93 243.28 110.43 241.82 112.93 240.36 C 113.52 241.06 114.10 241.77 114.68 242.48 C 113.54 243.67 111.47 244.21 110.94 245.89 C 110.81 248.23 111.18 250.57 111.39 252.91 C 107.16 253.47 103.61 255.90 99.84 257.68 C 99.88 261.12 99.85 264.57 99.76 268.02 C 90.48 272.59 81.48 277.72 72.29 282.47 C 71.16 283.21 69.64 283.67 68.98 284.95 C 68.68 288.64 68.95 292.35 68.91 296.05 C 78.37 300.60 87.70 305.43 97.17 309.97 C 96.44 327.42 97.77 344.93 96.71 362.36 C 82.63 369.10 69.44 377.58 55.52 384.65 C 51.80 386.36 48.41 388.71 44.61 390.28 C 44.42 313.62 44.67 236.96 44.39 160.30 C 82.28 139.42 120.46 119.09 158.46 98.41 Z" fill="#ffffff" opacity="1.00" stroke="#ffffff" stroke-width="0.25" data-index="2"></path>
<path d="M 256.86 47.74 C 284.37 61.81 312.10 75.43 339.69 89.36 C 381.83 110.95 423.65 133.15 465.50 155.31 C 467.32 156.38 470.15 157.31 469.47 160.01 C 469.23 213.33 469.17 266.65 468.92 319.96 C 468.73 342.87 469.10 365.78 468.54 388.68 C 450.93 379.68 432.71 371.92 415.01 363.10 C 416.20 349.53 428.21 340.49 431.89 327.76 C 432.35 327.46 433.27 326.85 433.72 326.54 C 434.35 316.39 434.07 306.22 434.13 296.06 C 434.07 291.24 434.40 286.41 433.82 281.61 C 420.10 275.15 406.65 268.08 392.79 261.93 C 388.60 264.60 384.14 267.07 380.88 270.89 C 379.58 272.26 379.91 274.29 379.79 276.01 C 380.13 289.83 380.06 303.66 379.85 317.48 C 373.40 316.90 367.79 320.14 362.36 323.09 C 360.22 324.07 358.17 325.20 356.14 326.36 C 356.19 262.60 356.09 198.84 356.18 135.08 C 356.04 132.43 356.61 129.61 355.69 127.08 C 338.24 119.22 321.27 110.31 304.07 101.92 C 288.71 94.20 273.21 86.76 257.90 78.96 C 256.37 78.27 257.01 76.27 256.80 74.98 C 256.87 65.90 256.77 56.82 256.86 47.74 Z" fill="#ffffff" opacity="1.00" stroke="#ffffff" stroke-width="0.25" data-index="3" style="opacity: 1;"></path>
<path d="M 200.41 106.54 C 218.97 97.58 237.05 87.62 255.69 78.80 C 255.65 101.96 255.55 125.12 255.74 148.28 C 252.31 148.32 248.88 148.23 245.45 148.38 C 235.24 147.91 224.97 146.86 215.08 144.18 C 208.31 142.46 202.71 137.90 195.99 136.06 C 185.18 133.21 173.98 132.34 163.05 130.09 C 161.15 129.69 159.19 129.33 157.53 128.25 C 171.94 121.24 186.05 113.66 200.41 106.54 Z" fill="#ffffff" opacity="1.00" stroke="#ffffff" stroke-width="0.25" data-index="4"></path>
<path d="M 256.90 79.97 C 275.26 89.55 294.16 98.09 312.42 107.84 C 305.92 106.77 298.99 107.18 293.12 110.41 C 288.42 112.75 285.50 117.73 280.38 119.36 C 277.06 120.64 272.88 121.86 271.57 125.57 C 271.02 127.98 274.22 128.40 275.77 129.31 C 279.84 130.70 283.73 133.09 288.04 133.47 C 292.32 131.65 289.25 126.24 289.26 122.80 C 287.94 118.89 291.84 116.44 294.62 114.64 C 299.01 112.12 305.10 110.34 309.57 113.61 C 309.92 114.94 310.29 116.27 310.66 117.60 C 312.10 117.52 313.79 118.08 315.02 117.05 C 316.62 114.18 314.76 111.06 313.64 108.39 C 321.63 111.89 329.24 116.19 337.18 119.81 C 341.75 121.90 345.99 124.77 350.85 126.20 C 350.09 127.66 348.21 127.40 346.87 127.85 C 332.21 130.73 317.62 134.37 303.73 139.96 C 288.62 145.05 272.74 148.19 256.76 148.25 C 256.97 125.49 256.72 102.73 256.90 79.97 Z" fill="#ffffff" opacity="1.00" stroke="#ffffff" stroke-width="0.25" data-index="5"></path>
<path d="M 154.65 128.68 C 169.28 121.32 183.87 113.87 198.43 106.36 C 198.92 106.41 199.91 106.50 200.41 106.54 C 186.05 113.66 171.94 121.24 157.53 128.25 C 159.19 129.33 161.15 129.69 163.05 130.09 C 173.98 132.34 185.18 133.21 195.99 136.06 C 202.71 137.90 208.31 142.46 215.08 144.18 C 224.97 146.86 235.24 147.91 245.45 148.38 L 244.17 149.49 C 234.12 148.62 223.98 147.87 214.20 145.19 C 214.23 147.09 214.28 149.00 214.34 150.91 C 213.97 153.26 213.62 155.62 213.35 157.98 C 213.58 153.65 213.82 149.31 213.69 144.97 L 212.36 144.45 C 206.51 142.60 201.56 138.71 195.60 137.17 C 187.68 134.96 179.43 134.33 171.39 132.64 C 171.15 132.60 170.67 132.52 170.43 132.48 C 165.48 131.79 160.65 130.23 155.62 130.22 C 155.90 177.52 155.67 224.83 155.72 272.13 C 159.41 274.43 164.64 275.06 166.97 279.04 C 168.16 284.72 167.29 291.17 163.98 296.02 C 161.99 299.08 157.89 300.12 155.89 302.92 C 155.70 310.96 155.60 319.03 155.87 327.06 C 157.92 328.56 160.28 329.58 162.55 330.70 C 162.79 330.82 163.27 331.06 163.51 331.17 C 165.71 332.29 167.90 333.45 170.14 334.50 L 170.61 334.72 C 176.27 337.41 181.73 340.50 187.49 342.98 C 187.06 343.07 186.21 343.26 185.78 343.35 C 176.02 338.59 166.40 333.56 156.57 328.94 C 156.54 331.35 156.51 333.76 156.48 336.17 C 176.57 345.61 196.43 355.51 216.45 365.07 C 216.03 365.12 215.18 365.22 214.76 365.27 C 208.63 362.53 202.65 359.33 196.53 356.52 C 185.80 351.12 174.90 346.10 164.16 340.73 C 161.50 339.58 158.97 337.73 156.03 337.56 C 152.68 339.24 149.59 341.42 146.14 342.91 C 145.85 355.62 146.35 368.35 145.85 381.06 C 138.06 385.46 130.30 389.90 122.51 394.29 C 121.21 395.32 119.69 394.74 118.35 394.17 C 111.35 390.98 104.20 388.07 97.41 384.47 C 96.51 381.73 97.11 378.67 97.01 375.82 L 97.05 374.86 C 97.17 370.97 97.11 367.07 97.06 363.17 C 83.72 369.80 71.05 377.68 57.82 384.50 C 57.25 384.54 56.10 384.61 55.52 384.65 C 69.44 377.58 82.63 369.10 96.71 362.36 C 97.77 344.93 96.44 327.42 97.17 309.97 C 87.70 305.43 78.37 300.60 68.91 296.05 C 68.95 292.35 68.68 288.64 68.98 284.95 C 69.64 283.67 71.16 283.21 72.29 282.47 C 81.48 277.72 90.48 272.59 99.76 268.02 C 99.85 264.57 99.88 261.12 99.84 257.68 C 103.61 255.90 107.16 253.47 111.39 252.91 C 111.18 250.57 110.81 248.23 110.94 245.89 C 111.47 244.21 113.54 243.67 114.68 242.48 C 114.10 241.77 113.52 241.06 112.93 240.36 C 110.43 241.82 107.93 243.28 105.33 244.57 C 104.76 244.61 103.61 244.71 103.03 244.76 C 108.90 240.06 116.50 237.97 122.31 233.39 C 122.77 233.64 123.68 234.14 124.14 234.39 C 121.13 236.46 117.86 238.11 114.48 239.48 C 116.59 239.79 118.72 239.69 120.82 240.03 C 122.21 240.56 121.89 242.49 122.48 243.64 C 123.53 244.19 124.61 244.70 125.61 245.35 C 126.34 249.40 125.22 253.67 126.26 257.65 C 135.52 262.72 145.36 266.70 154.60 271.82 C 154.80 224.11 154.70 176.39 154.65 128.68 Z" fill="#1d374d" opacity="1.00" stroke="#1d374d" stroke-width="0.25" data-index="6" style="opacity: 1;"></path>
<path d="M 298.02 109.97 C 302.57 108.52 307.42 108.83 312.09 109.41 C 312.99 111.45 315.26 114.55 312.98 116.41 C 310.99 116.28 311.86 113.54 310.58 112.52 C 306.58 109.02 300.74 110.40 296.27 112.16 C 292.87 113.78 289.05 115.85 287.57 119.52 C 287.25 123.74 289.40 127.92 288.18 132.12 C 283.15 130.50 278.12 128.74 273.29 126.56 C 272.56 124.95 274.41 124.14 275.42 123.29 C 278.94 121.03 283.43 120.53 286.51 117.56 C 289.82 114.34 293.54 111.34 298.02 109.97 Z" fill="#beeaff" opacity="1.00" stroke="#beeaff" stroke-width="0.25" data-index="7"></path>
<path d="M 202.69 119.76 C 204.44 119.56 206.21 119.17 207.98 119.39 C 210.04 120.42 211.76 121.99 213.48 123.50 C 216.13 126.04 219.59 127.93 220.96 131.54 C 218.10 132.39 214.95 132.56 212.56 134.54 C 210.95 136.01 208.76 135.75 206.77 135.52 C 206.56 132.25 206.10 129.01 205.46 125.81 C 204.48 124.86 203.51 123.91 202.54 122.97 C 202.59 121.90 202.64 120.83 202.69 119.76 Z" fill="#506b7b" opacity="1.00" stroke="#506b7b" stroke-width="0.25" data-index="8"></path>
<path d="M 203.34 120.65 C 205.31 119.60 207.89 119.94 209.58 121.37 C 212.68 123.74 215.45 126.50 218.64 128.77 C 218.74 129.71 218.74 130.65 218.64 131.59 C 214.47 130.87 211.70 134.97 207.67 135.18 C 207.18 132.44 206.82 129.68 206.42 126.93 C 206.35 124.38 202.67 123.32 203.34 120.65 Z" fill="#b8e6fc" opacity="1.00" stroke="#b8e6fc" stroke-width="0.25" data-index="9"></path>
<path d="M 335.13 132.07 C 341.56 130.36 348.10 128.89 354.69 127.99 C 354.64 194.30 354.77 260.61 354.62 326.91 C 353.99 327.08 352.73 327.42 352.09 327.59 C 346.76 325.15 341.44 322.70 336.16 320.16 C 336.18 258.77 336.11 197.38 336.21 135.99 C 336.31 134.73 336.03 133.58 335.36 132.53 L 335.13 132.07 Z" fill="#edfbfe" opacity="1.00" stroke="#edfbfe" stroke-width="0.25" data-index="10" style="opacity: 1;"></path>
<path d="M 155.62 130.22 C 160.65 130.23 165.48 131.79 170.43 132.48 C 170.46 197.08 170.26 261.67 170.53 326.26 C 167.85 327.72 165.17 329.16 162.55 330.70 C 160.28 329.58 157.92 328.56 155.87 327.06 C 155.60 319.03 155.70 310.96 155.89 302.92 C 157.89 300.12 161.99 299.08 163.98 296.02 C 167.29 291.17 168.16 284.72 166.97 279.04 C 164.64 275.06 159.41 274.43 155.72 272.13 C 155.67 224.83 155.90 177.52 155.62 130.22 Z" fill="#edfbff" opacity="1.00" stroke="#edfbff" stroke-width="0.25" data-index="11"></path>
<path d="M 301.62 142.17 C 312.62 138.28 323.65 134.29 335.13 132.07 L 335.36 132.53 C 335.15 194.85 335.11 257.18 335.35 319.50 L 333.52 319.33 L 333.65 318.04 C 334.21 313.72 334.05 309.36 334.00 305.01 C 333.89 252.64 334.09 200.26 333.86 147.89 C 327.34 148.97 320.51 150.08 314.96 153.91 C 310.90 156.27 311.01 161.73 307.63 164.71 C 305.27 166.79 304.04 169.67 303.53 172.73 C 302.88 171.32 302.22 169.92 301.60 168.51 C 301.25 159.76 301.29 150.93 301.62 142.17 Z" fill="#edfafe" opacity="1.00" stroke="#edfafe" stroke-width="0.25" data-index="12" style="opacity: 1;"></path>
<path d="M 171.39 132.64 C 179.43 134.33 187.68 134.96 195.60 137.17 C 201.56 138.71 206.51 142.60 212.36 144.45 C 211.99 156.45 212.36 168.47 211.89 180.48 C 210.30 180.69 208.70 180.90 207.12 181.18 C 207.87 178.66 209.17 175.80 207.57 173.32 C 205.97 170.98 203.89 169.02 202.05 166.89 C 200.03 164.45 196.82 163.58 194.51 161.50 C 193.31 158.31 194.74 154.33 192.40 151.58 C 186.84 146.14 179.02 143.60 171.32 143.94 C 171.30 140.17 171.32 136.40 171.39 132.64 Z" fill="#ecfafe" opacity="1.00" stroke="#ecfafe" stroke-width="0.25" data-index="13"></path>
<path d="M 280.33 147.49 C 287.15 146.48 293.80 144.61 300.41 142.69 C 300.51 196.06 300.32 249.43 300.48 302.80 C 293.46 300.89 287.69 295.76 280.56 294.30 C 280.17 245.37 280.64 196.42 280.33 147.49 Z" fill="#f3fcff" opacity="1.00" stroke="#f3fcff" stroke-width="0.25" data-index="14" style="opacity: 1;"></path>
<path d="M 171.32 143.94 C 179.02 143.60 186.84 146.14 192.40 151.58 C 194.74 154.33 193.31 158.31 194.51 161.50 C 196.82 163.58 200.03 164.45 202.05 166.89 C 203.89 169.02 205.97 170.98 207.57 173.32 C 209.17 175.80 207.87 178.66 207.12 181.18 C 204.59 182.09 201.83 183.64 201.53 186.62 C 200.84 189.92 199.73 195.58 204.09 196.71 C 206.93 196.24 209.28 194.25 211.86 193.04 C 211.97 226.04 212.07 259.03 211.96 292.02 C 211.90 296.21 212.10 300.40 212.30 304.59 L 211.57 304.97 C 198.17 311.93 184.86 319.09 171.35 325.86 C 171.22 265.22 171.37 204.58 171.32 143.94 Z" fill="#ffffff" opacity="1.00" stroke="#ffffff" stroke-width="0.25" data-index="15"></path>
<path d="M 212.36 144.45 L 213.69 144.97 C 213.82 149.31 213.58 153.65 213.35 157.98 C 213.62 155.62 213.97 153.26 214.34 150.91 C 216.86 158.67 216.58 167.01 217.96 175.01 C 220.15 175.55 223.17 175.23 224.33 177.64 C 225.95 180.87 224.76 184.89 222.45 187.48 C 220.14 189.72 216.84 190.40 214.16 192.07 C 213.79 229.26 214.10 266.48 213.99 303.69 C 213.57 303.91 212.72 304.36 212.30 304.59 C 212.10 300.40 211.90 296.21 211.96 292.02 C 212.07 259.03 211.97 226.04 211.86 193.04 C 209.28 194.25 206.93 196.24 204.09 196.71 C 199.73 195.58 200.84 189.92 201.53 186.62 C 201.83 183.64 204.59 182.09 207.12 181.18 C 208.70 180.90 210.30 180.69 211.89 180.48 C 212.36 168.47 211.99 156.45 212.36 144.45 Z" fill="#a0b7c6" opacity="1.00" stroke="#a0b7c6" stroke-width="0.25" data-index="16"></path>
<path d="M 389.52 145.08 C 389.84 145.40 390.47 146.03 390.79 146.35 C 399.50 149.60 407.70 154.06 416.11 157.99 C 424.67 161.57 432.64 166.46 441.31 169.78 C 441.58 170.29 442.11 171.30 442.37 171.81 C 442.12 193.20 442.37 214.60 442.26 236.00 C 442.12 240.27 442.80 244.65 441.48 248.79 C 425.02 241.11 408.61 233.33 392.15 225.68 C 390.98 224.99 388.72 224.88 388.81 223.09 C 388.62 200.38 388.82 177.66 388.73 154.95 C 388.65 151.64 389.05 148.35 389.52 145.08 Z" fill="#506b7b" opacity="1.00" stroke="#506b7b" stroke-width="0.25" data-index="17" style="opacity: 1;"></path>
<path d="M 214.20 145.19 C 223.98 147.87 234.12 148.62 244.17 149.49 C 248.20 149.84 252.25 149.84 256.29 149.88 C 255.69 174.58 256.64 199.30 255.85 224.00 C 256.46 241.33 255.96 258.68 256.16 276.02 C 256.00 278.46 256.82 281.94 253.89 283.04 C 240.50 289.75 227.40 297.02 213.99 303.69 C 214.10 266.48 213.79 229.26 214.16 192.07 C 216.84 190.40 220.14 189.72 222.45 187.48 C 224.76 184.89 225.95 180.87 224.33 177.64 C 223.17 175.23 220.15 175.55 217.96 175.01 C 216.58 167.01 216.86 158.67 214.34 150.91 C 214.28 149.00 214.23 147.09 214.20 145.19 Z" fill="#edfbfe" opacity="1.00" stroke="#edfbfe" stroke-width="0.25" data-index="18" style="opacity: 1;"></path>
<path d="M 389.76 146.88 C 398.43 149.66 406.37 154.33 414.64 158.09 C 423.76 161.95 432.38 166.85 441.45 170.83 C 441.45 196.47 441.57 222.12 441.35 247.76 C 429.28 242.77 417.70 236.62 405.77 231.29 C 400.33 229.02 395.29 225.80 389.65 224.03 C 389.41 204.01 389.62 183.99 389.56 163.97 C 389.62 158.27 389.34 152.57 389.76 146.88 Z" fill="#feffff" opacity="1.00" stroke="#feffff" stroke-width="0.25" data-index="19" style="opacity: 1;"></path>
<path d="M 256.77 149.73 C 264.44 149.88 272.07 148.89 279.65 147.82 C 279.36 196.20 279.50 244.58 279.61 292.96 C 271.68 289.97 264.36 285.56 256.56 282.26 C 257.03 258.53 256.46 234.78 256.74 211.05 C 256.78 190.61 256.58 170.17 256.77 149.73 Z" fill="#edfbfe" opacity="1.00" stroke="#edfbfe" stroke-width="0.25" data-index="20" style="opacity: 1;"></path>
<path d="M 314.96 153.91 C 320.51 150.08 327.34 148.97 333.86 147.89 C 334.09 200.26 333.89 252.64 334.00 305.01 C 334.05 309.36 334.21 313.72 333.65 318.04 L 333.33 319.00 C 325.01 314.49 316.27 310.84 307.83 306.57 C 305.82 305.61 303.85 304.32 301.54 304.38 C 301.19 267.57 301.51 230.75 301.39 193.94 C 301.48 185.46 301.21 176.98 301.60 168.51 C 302.22 169.92 302.88 171.32 303.53 172.73 C 304.04 169.67 305.27 166.79 307.63 164.71 C 311.01 161.73 310.90 156.27 314.96 153.91 Z" fill="#ffffff" opacity="1.00" stroke="#ffffff" stroke-width="0.25" data-index="21"></path>
<path d="M 120.28 152.17 C 121.29 151.67 122.45 151.64 123.54 151.45 C 123.40 173.87 123.44 196.29 123.48 218.71 L 122.19 218.41 C 121.36 196.60 122.50 174.71 121.62 152.89 C 105.86 161.63 89.43 169.16 73.37 177.34 C 73.11 178.55 73.00 179.78 73.02 181.03 C 72.97 206.96 73.15 232.90 72.94 258.83 C 81.49 255.18 89.57 250.56 97.96 246.57 C 97.84 247.01 97.61 247.89 97.49 248.33 C 89.01 252.81 80.52 257.40 71.62 260.98 C 71.29 232.78 71.50 204.57 71.50 176.37 C 87.93 168.65 104.06 160.31 120.28 152.17 Z" fill="#1d374d" opacity="1.00" stroke="#1d374d" stroke-width="0.25" data-index="22"></path>
<path d="M 73.37 177.34 C 89.43 169.16 105.86 161.63 121.62 152.89 C 122.50 174.71 121.36 196.60 122.19 218.41 C 122.41 219.17 122.62 219.92 122.83 220.68 C 121.68 223.59 121.71 226.77 121.97 229.84 C 122.28 230.22 122.92 230.96 123.24 231.34 C 123.54 232.35 123.84 233.37 124.14 234.39 C 123.68 234.14 122.77 233.64 122.31 233.39 C 116.50 237.97 108.90 240.06 103.03 244.76 C 103.61 244.71 104.76 244.61 105.33 244.57 C 104.13 245.40 102.93 246.25 101.74 247.09 C 101.41 245.27 101.06 243.46 100.67 241.66 C 99.07 242.85 98.30 244.66 97.96 246.57 C 89.57 250.56 81.49 255.18 72.94 258.83 C 73.15 232.90 72.97 206.96 73.02 181.03 C 73.00 179.78 73.11 178.55 73.37 177.34 Z" fill="#dbf6ff" opacity="1.00" stroke="#dbf6ff" stroke-width="0.25" data-index="23"></path>
<path d="M 214.01 180.93 C 213.93 173.96 214.13 167.00 214.56 160.05 C 214.67 167.08 215.44 174.09 216.23 181.08 C 215.68 181.04 214.56 180.96 214.01 180.93 Z" fill="#d9f4fd" opacity="1.00" stroke="#d9f4fd" stroke-width="0.25" data-index="24"></path>
<path d="M 400.61 169.04 C 400.75 167.81 400.28 166.10 401.69 165.44 C 411.04 170.28 420.64 174.85 430.32 179.05 C 430.39 195.34 430.31 211.64 429.71 227.92 C 425.92 227.21 422.70 224.98 419.19 223.50 C 412.90 220.72 406.84 217.43 400.47 214.83 C 400.17 199.57 400.68 184.30 400.61 169.04 Z" fill="#506b7b" opacity="1.00" stroke="#506b7b" stroke-width="0.25" data-index="25" style="opacity: 1;"></path>
<path d="M 401.37 166.34 C 410.85 170.71 420.16 175.43 429.69 179.68 C 429.34 195.42 429.64 211.16 429.19 226.89 C 425.16 226.25 421.82 223.73 418.09 222.23 C 412.44 219.86 407.14 216.70 401.36 214.63 C 399.83 198.58 401.94 182.44 401.37 166.34 Z" fill="#ebfafe" opacity="1.00" stroke="#ebfafe" stroke-width="0.25" data-index="26" style="opacity: 1;"></path>
<path d="M 106.59 169.58 C 110.82 169.48 113.63 173.41 115.19 176.93 C 112.15 181.39 110.32 186.59 106.72 190.70 C 100.25 200.96 92.92 210.70 87.47 221.57 C 86.69 222.96 85.60 224.51 83.92 224.80 C 82.04 224.69 80.23 224.12 78.40 223.68 C 77.83 218.73 76.60 213.58 78.58 208.76 C 79.50 208.34 80.41 207.92 81.32 207.49 C 82.87 204.19 85.59 201.68 87.53 198.64 C 89.88 195.22 91.40 191.26 94.21 188.16 C 96.29 186.14 95.71 182.82 97.68 180.73 C 100.68 177.07 102.08 171.74 106.59 169.58 Z" fill="#f9feff" opacity="1.00" stroke="#f9feff" stroke-width="0.25" data-index="27"></path>
<path d="M 132.60 180.57 C 134.72 178.48 137.62 177.52 140.27 176.31 C 141.46 178.65 140.96 181.28 140.77 183.78 C 137.85 185.08 134.91 186.38 131.77 187.09 C 131.83 184.92 131.42 182.52 132.60 180.57 Z" fill="#cfe1ed" opacity="1.00" stroke="#cfe1ed" stroke-width="0.25" data-index="28"></path>
<path d="M 218.25 176.82 C 220.34 177.08 223.12 177.30 223.33 180.01 C 223.99 185.50 218.45 188.35 214.09 189.83 C 214.00 187.31 214.00 184.78 214.05 182.26 C 215.44 182.48 216.83 182.71 218.23 182.94 C 218.39 180.90 218.39 178.86 218.25 176.82 Z" fill="#bce8fb" opacity="1.00" stroke="#bce8fb" stroke-width="0.25" data-index="29"></path>
<path d="M 204.41 184.50 C 206.61 182.93 209.34 182.49 211.94 182.00 C 212.01 184.92 212.40 187.90 211.75 190.78 C 209.50 192.68 206.62 193.62 204.03 194.95 C 202.03 191.81 202.75 187.63 204.41 184.50 Z" fill="#c0e8ff" opacity="1.00" stroke="#c0e8ff" stroke-width="0.25" data-index="30"></path>
<path d="M 411.68 182.68 C 413.59 182.05 415.70 181.24 417.52 182.60 C 420.52 185.32 420.06 190.53 416.40 192.47 C 415.79 192.06 415.20 191.65 414.61 191.24 C 410.92 189.84 411.43 185.84 411.68 182.68 Z" fill="#6abacf" opacity="1.00" stroke="#6abacf" stroke-width="0.25" data-index="31"></path>
<path d="M 413.97 183.87 C 417.26 182.17 419.29 189.70 415.36 189.67 C 413.17 188.77 412.50 185.59 413.97 183.87 Z" fill="#c3f5ff" opacity="1.00" stroke="#c3f5ff" stroke-width="0.25" data-index="32"></path>
<path d="M 414.61 191.24 C 415.20 191.65 415.79 192.06 416.40 192.47 C 416.63 193.99 416.88 195.51 417.16 197.03 C 419.63 197.99 423.08 198.58 423.77 201.62 C 421.47 201.23 419.22 200.67 416.98 200.02 C 416.86 201.25 416.76 202.49 416.68 203.74 C 417.71 203.57 418.74 203.41 419.77 203.24 C 419.68 203.80 419.48 204.93 419.38 205.49 C 418.50 205.40 417.62 205.31 416.74 205.23 C 416.63 207.80 416.58 210.38 416.51 212.96 C 416.08 212.74 415.22 212.30 414.79 212.08 C 414.41 207.64 414.69 203.17 414.47 198.73 C 411.97 197.17 407.08 197.34 407.43 193.42 C 409.74 194.39 412.05 195.42 414.55 195.82 C 414.57 194.29 414.59 192.76 414.61 191.24 Z" fill="#84c06f" opacity="1.00" stroke="#84c06f" stroke-width="0.25" data-index="33" style="opacity: 1;"></path>
<path d="M 121.97 229.84 C 121.71 226.77 121.68 223.59 122.83 220.68 C 123.89 224.14 123.28 227.79 123.24 231.34 C 122.92 230.96 122.28 230.22 121.97 229.84 Z" fill="#233b47" opacity="1.00" stroke="#233b47" stroke-width="0.25" data-index="34"></path>
<path d="M 136.54 228.44 C 139.00 227.27 141.01 225.07 143.89 225.01 C 143.57 226.98 144.10 229.73 142.01 230.89 C 139.04 232.67 136.04 234.45 133.52 236.85 C 132.72 235.40 131.71 233.83 132.22 232.09 C 132.43 229.82 134.94 229.41 136.54 228.44 Z" fill="#eaf1f4" opacity="1.00" stroke="#eaf1f4" stroke-width="0.25" data-index="35"></path>
<path d="M 286.55 238.62 C 289.57 237.68 293.60 238.80 294.67 242.04 C 296.03 245.87 295.25 250.03 295.46 254.01 C 295.25 257.95 296.51 262.65 293.30 265.71 C 290.70 265.42 285.72 264.67 286.71 261.01 C 286.97 260.56 287.50 259.68 287.77 259.24 C 288.69 259.58 290.52 260.25 291.44 260.58 C 291.44 255.01 291.60 249.43 291.31 243.87 C 289.55 243.62 287.50 243.55 286.36 241.96 C 286.33 240.84 286.39 239.72 286.55 238.62 Z" fill="#0b3253" opacity="1.00" stroke="#0b3253" stroke-width="0.25" data-index="36"></path>
<path d="M 115.68 241.06 C 117.33 241.12 118.98 241.21 120.63 241.31 C 120.56 241.84 120.43 242.90 120.36 243.43 C 118.48 243.28 115.64 243.82 115.68 241.06 Z" fill="#ecfbff" opacity="1.00" stroke="#ecfbff" stroke-width="0.25" data-index="37"></path>
<path d="M 112.06 246.14 C 116.09 247.28 120.28 247.36 124.19 245.76 C 124.42 250.84 124.42 255.92 124.31 261.01 C 120.41 260.81 116.63 259.51 113.48 257.21 C 113.09 253.51 112.67 249.81 112.06 246.14 Z" fill="#fdfffd" opacity="1.00" stroke="#fdfffd" stroke-width="0.25" data-index="38"></path>
<path d="M 103.91 257.11 C 106.17 255.90 108.59 255.10 111.06 254.47 C 111.29 255.09 111.74 256.33 111.96 256.95 C 110.58 257.71 109.22 258.51 107.87 259.32 C 106.53 258.62 105.23 257.84 103.91 257.11 Z" fill="#f5ffff" opacity="1.00" stroke="#f5ffff" stroke-width="0.25" data-index="39"></path>
<path d="M 86.05 256.32 C 89.38 256.39 84.60 259.34 86.05 256.32 Z" fill="#ced1d3" opacity="1.00" stroke="#ced1d3" stroke-width="0.25" data-index="40"></path>
<path d="M 101.50 258.24 C 105.04 259.19 108.24 261.03 111.62 262.40 C 113.72 263.47 116.54 264.29 117.04 266.96 C 113.19 266.82 110.27 263.69 106.45 263.23 C 106.35 265.51 106.42 267.81 106.20 270.10 C 105.05 271.56 102.92 270.65 101.40 270.45 C 101.52 266.38 101.35 262.31 101.50 258.24 Z" fill="#f8fdfd" opacity="1.00" stroke="#f8fdfd" stroke-width="0.25" data-index="41"></path>
<path d="M 109.69 259.95 C 110.32 259.66 111.59 259.08 112.22 258.80 C 115.96 260.41 119.67 262.63 123.90 262.45 C 125.82 262.87 125.90 260.89 125.95 259.53 C 138.31 265.21 150.46 271.38 162.77 277.17 C 164.54 277.80 165.21 279.67 166.13 281.13 C 163.59 283.34 160.71 285.12 157.69 286.61 C 146.83 292.11 136.15 297.96 125.17 303.23 C 118.87 306.28 111.13 307.75 104.62 304.44 C 92.93 298.58 81.88 291.55 70.49 285.14 C 80.25 280.07 89.75 274.47 99.74 269.88 C 100.39 273.62 105.09 272.47 107.72 271.79 C 107.80 269.60 107.86 267.42 107.93 265.24 C 110.73 265.95 112.97 268.13 115.78 268.67 C 118.26 268.98 119.03 265.94 117.92 264.16 C 115.50 262.20 112.46 261.27 109.69 259.95 Z" fill="#ffffff" opacity="1.00" stroke="#ffffff" stroke-width="0.25" data-index="42"></path>
<path d="M 75.38 263.40 C 77.81 262.41 80.22 261.33 82.59 260.19 C 82.62 260.44 82.68 260.94 82.71 261.19 C 80.43 262.27 77.34 262.70 76.00 265.06 C 75.41 268.36 75.73 271.73 75.93 275.06 C 79.23 273.87 82.47 272.43 85.47 270.60 C 86.53 267.40 85.80 263.95 86.57 260.70 C 86.92 264.20 86.59 267.71 86.42 271.21 C 82.78 273.18 78.92 274.71 75.37 276.84 C 75.06 272.36 74.95 267.87 75.38 263.40 Z" fill="#506b7b" opacity="1.00" stroke="#506b7b" stroke-width="0.25" data-index="43"></path>
<path d="M 380.88 270.89 C 384.14 267.07 388.60 264.60 392.79 261.93 C 406.65 268.08 420.10 275.15 433.82 281.61 C 434.40 286.41 434.07 291.24 434.13 296.06 C 434.07 306.22 434.35 316.39 433.72 326.54 C 433.27 326.85 432.35 327.46 431.89 327.76 C 428.21 340.49 416.20 349.53 415.01 363.10 C 414.98 363.57 414.93 364.51 414.91 364.98 C 414.83 368.66 414.91 372.35 414.87 376.03 C 418.49 377.90 422.16 379.69 425.89 381.33 C 425.31 381.31 424.14 381.27 423.55 381.24 C 420.74 379.82 417.89 378.48 414.98 377.28 C 414.86 379.04 414.92 380.84 414.59 382.60 C 409.24 386.10 403.34 388.69 397.77 391.82 C 392.23 394.66 386.96 398.44 380.68 399.41 C 374.74 400.15 368.46 399.70 363.04 396.98 C 359.88 395.33 356.87 392.57 356.40 388.85 C 356.17 383.25 356.27 377.64 356.28 372.04 C 351.32 370.05 346.05 367.48 343.47 362.51 C 339.88 356.53 340.42 349.27 341.17 342.63 L 341.51 341.24 C 341.74 340.38 342.01 339.55 342.31 338.72 C 342.46 339.34 342.76 340.57 342.91 341.19 C 342.23 345.34 344.90 348.85 348.34 350.81 C 357.00 355.66 367.29 356.29 377.00 355.64 C 385.23 355.05 392.01 349.92 399.17 346.38 C 402.80 344.39 406.83 342.70 409.50 339.39 C 411.54 337.05 411.27 333.08 408.81 331.13 C 404.98 327.83 399.93 326.61 395.45 324.50 C 389.20 322.03 382.91 318.34 375.93 319.14 C 371.74 319.42 368.14 321.76 364.52 323.66 C 363.98 323.52 362.90 323.23 362.36 323.09 C 367.79 320.14 373.40 316.90 379.85 317.48 C 380.06 303.66 380.13 289.83 379.79 276.01 C 379.91 274.29 379.58 272.26 380.88 270.89 Z" fill="#213241" opacity="1.00" stroke="#213241" stroke-width="0.25" data-index="44"></path>
<path d="M 82.05 263.50 C 83.65 262.94 84.20 263.48 83.69 265.12 C 82.07 265.68 81.52 265.14 82.05 263.50 Z" fill="#233b47" opacity="1.00" stroke="#233b47" stroke-width="0.25" data-index="45"></path>
<path d="M 384.37 269.46 C 387.05 267.31 390.00 265.53 392.77 263.49 C 404.74 269.00 416.50 274.98 428.39 280.66 C 429.71 281.22 430.87 282.03 432.02 282.90 C 427.33 284.41 422.95 286.68 418.45 288.62 C 417.09 289.15 415.58 290.14 414.13 289.24 C 405.33 285.71 396.69 281.78 388.02 277.95 C 385.79 276.89 383.40 276.08 381.40 274.60 C 381.01 272.37 382.93 270.82 384.37 269.46 Z" fill="#ffffff" opacity="1.00" stroke="#ffffff" stroke-width="0.25" data-index="46"></path>
<path d="M 78.20 265.42 C 79.61 264.19 81.53 266.53 79.83 267.54 C 78.43 268.78 76.51 266.42 78.20 265.42 Z" fill="#233b47" opacity="1.00" stroke="#233b47" stroke-width="0.25" data-index="47"></path>
<path d="M 82.18 267.42 C 83.60 266.21 85.43 268.60 83.79 269.59 C 82.35 270.84 80.53 268.40 82.18 267.42 Z" fill="#213241" opacity="1.00" stroke="#213241" stroke-width="0.25" data-index="48"></path>
<path d="M 125.92 268.26 C 129.46 266.46 133.27 268.22 136.62 269.59 C 142.65 272.22 148.73 274.77 154.58 277.81 C 154.25 278.31 154.54 279.69 153.57 279.37 C 148.85 276.07 143.32 274.26 138.13 271.83 C 134.33 270.41 130.20 267.71 126.10 269.69 C 118.90 272.66 112.38 277.04 105.28 280.23 C 101.65 282.77 97.37 284.32 94.00 287.22 C 94.08 287.59 94.25 288.33 94.33 288.70 C 96.80 290.37 99.65 291.33 102.34 292.58 C 107.35 294.68 112.27 297.76 117.94 297.33 C 116.79 295.80 116.65 294.21 117.70 292.63 C 120.83 292.04 125.15 291.37 126.66 295.00 C 123.24 299.01 117.29 298.89 112.51 298.28 C 106.26 296.23 100.32 293.25 94.35 290.50 C 92.41 289.78 92.53 287.68 92.78 286.00 C 96.83 283.50 100.87 280.90 105.33 279.19 C 111.96 275.14 118.79 271.34 125.92 268.26 Z" fill="#0f2634" opacity="1.00" stroke="#0f2634" stroke-width="0.25" data-index="49"></path>
<path d="M 79.33 269.18 C 81.13 269.11 80.55 271.94 79.04 271.89 C 77.38 271.83 77.88 269.18 79.33 269.18 Z" fill="#233b47" opacity="1.00" stroke="#233b47" stroke-width="0.25" data-index="50"></path>
<path d="M 381.18 278.59 C 381.25 278.05 381.40 276.96 381.48 276.42 C 391.24 281.30 401.38 285.39 411.39 289.75 C 413.12 290.40 415.02 291.90 416.92 290.86 C 422.38 288.65 427.56 285.68 433.30 284.18 L 432.45 286.16 C 427.01 288.61 421.61 291.21 416.00 293.22 C 413.25 293.29 410.83 291.54 408.28 290.69 C 399.24 286.67 390.04 282.98 381.18 278.59 Z" fill="#ecfbff" opacity="1.00" stroke="#ecfbff" stroke-width="0.25" data-index="51"></path>
<path d="M 381.56 280.29 C 390.73 285.08 400.48 288.64 409.88 292.97 C 412.12 293.75 414.43 295.53 416.89 294.59 C 422.29 292.69 427.17 289.54 432.65 287.83 C 432.45 300.30 432.81 312.83 432.32 325.27 C 427.95 327.71 423.29 329.60 418.92 332.07 C 416.68 333.50 413.28 334.10 411.46 331.72 C 407.89 327.36 402.28 325.85 397.35 323.65 C 392.16 321.56 387.09 319.03 381.57 317.94 C 381.49 305.39 381.46 292.84 381.56 280.29 Z" fill="#ffffff" opacity="1.00" stroke="#ffffff" stroke-width="0.25" data-index="52" style="opacity: 1;"></path>
<path d="M 254.08 283.69 C 255.14 283.11 256.44 282.95 257.59 283.38 C 264.86 286.85 271.97 290.79 279.49 293.67 C 279.52 317.77 279.55 341.86 279.49 365.95 C 272.14 368.70 264.80 371.86 256.96 372.85 C 241.44 369.82 227.48 361.98 213.34 355.25 C 213.69 338.41 213.39 321.55 213.50 304.71 C 227.13 297.89 240.46 290.51 254.08 283.69 Z" fill="#dcf7ff" opacity="1.00" stroke="#dcf7ff" stroke-width="0.25" data-index="53"></path>
<path d="M 140.36 297.26 C 149.05 292.93 157.58 288.30 166.15 283.73 C 165.55 288.98 164.42 294.96 159.63 298.04 C 151.93 303.27 143.27 306.86 135.03 311.14 C 128.18 314.73 120.16 316.95 112.47 315.21 C 111.54 312.82 109.71 311.14 107.22 310.48 C 108.23 310.20 109.23 309.92 110.24 309.64 C 108.86 309.14 107.47 308.71 106.07 308.33 C 106.42 308.09 107.13 307.62 107.49 307.39 C 119.54 309.80 130.10 302.29 140.36 297.26 Z" fill="#feffff" opacity="1.00" stroke="#feffff" stroke-width="0.25" data-index="54"></path>
<path d="M 70.41 286.84 C 82.74 293.72 94.59 301.56 107.49 307.39 C 107.13 307.62 106.42 308.09 106.07 308.33 C 107.47 308.71 108.86 309.14 110.24 309.64 C 109.23 309.92 108.23 310.20 107.22 310.48 C 109.71 311.14 111.54 312.82 112.47 315.21 C 109.07 314.27 105.82 312.84 102.69 311.23 C 92.04 305.69 81.19 300.55 70.48 295.13 C 70.44 292.37 70.42 289.60 70.41 286.84 Z" fill="#daf5fe" opacity="1.00" stroke="#daf5fe" stroke-width="0.25" data-index="55"></path>
<path d="M 118.38 296.69 C 117.26 292.41 123.09 292.74 125.02 294.99 C 123.07 296.39 120.74 296.83 118.38 296.69 Z" fill="#ecfbff" opacity="1.00" stroke="#ecfbff" stroke-width="0.25" data-index="56"></path>
<path d="M 280.49 294.73 C 287.42 297.04 293.51 301.24 300.34 303.78 C 300.58 320.93 300.25 338.08 300.51 355.23 C 294.14 359.10 287.35 362.26 280.52 365.23 C 280.38 341.73 280.40 318.23 280.49 294.73 Z" fill="#dcf7ff" opacity="1.00" stroke="#dcf7ff" stroke-width="0.25" data-index="57" style="opacity: 1;"></path>
<path d="M 67.57 308.22 C 66.79 305.41 64.79 300.69 68.93 299.52 C 72.07 300.02 71.79 303.76 72.25 306.12 C 76.62 306.72 77.74 311.50 80.90 313.83 C 81.01 312.16 82.05 311.46 83.51 311.38 C 83.53 311.90 83.58 312.93 83.60 313.45 C 83.01 313.44 81.83 313.42 81.24 313.41 C 81.89 315.72 83.14 317.78 84.31 319.85 C 84.09 320.47 83.65 321.70 83.43 322.31 C 79.88 324.70 75.81 326.25 71.82 327.73 C 70.59 323.25 67.31 319.80 65.49 315.61 C 64.40 312.96 65.09 309.80 67.57 308.22 Z" fill="#213241" opacity="1.00" stroke="#213241" stroke-width="0.25" data-index="58"></path>
<path d="M 69.32 308.13 C 69.12 306.03 66.29 302.02 69.40 301.25 C 70.12 303.20 72.22 307.18 69.32 308.13 Z" fill="#ecfbff" opacity="1.00" stroke="#ecfbff" stroke-width="0.25" data-index="59"></path>
<path d="M 145.70 307.78 C 148.59 305.92 151.69 304.44 154.74 302.86 C 154.54 311.26 154.92 319.67 154.53 328.06 C 151.36 328.73 148.93 331.09 145.80 331.84 C 145.87 323.82 146.08 315.79 145.70 307.78 Z" fill="#fcffff" opacity="1.00" stroke="#fcffff" stroke-width="0.25" data-index="60"></path>
<path d="M 301.33 305.05 C 303.00 305.29 304.67 305.71 306.17 306.52 C 312.47 309.67 318.79 312.79 325.23 315.63 C 328.55 317.11 331.62 319.22 335.19 320.09 C 335.27 325.75 335.10 331.42 335.27 337.09 C 324.17 343.40 312.67 349.01 301.34 354.91 C 301.38 338.29 301.39 321.67 301.33 305.05 Z" fill="#dbf6ff" opacity="1.00" stroke="#dbf6ff" stroke-width="0.25" data-index="61" style="opacity: 1;"></path>
<path d="M 198.05 312.76 C 203.00 310.71 207.36 307.41 212.53 305.86 C 212.52 322.18 212.43 338.50 212.53 354.82 C 204.03 351.20 195.99 346.57 187.49 342.98 C 181.73 340.50 176.27 337.41 170.61 334.72 C 171.34 332.17 171.37 329.51 171.26 326.88 C 180.19 322.18 189.12 317.47 198.05 312.76 Z" fill="#dcf7ff" opacity="1.00" stroke="#dcf7ff" stroke-width="0.25" data-index="62"></path>
<path d="M 67.98 309.93 C 70.11 309.70 72.09 307.76 74.25 308.50 C 76.05 310.53 77.77 312.64 79.25 314.92 C 76.61 316.74 73.76 318.21 71.01 319.83 C 73.93 318.61 76.74 317.08 79.16 315.01 C 80.88 316.58 81.79 318.75 82.83 320.79 C 79.61 322.66 76.29 324.36 72.81 325.71 C 71.36 321.49 68.17 318.17 66.62 314.00 C 65.87 312.38 67.05 311.09 67.98 309.93 Z" fill="#fbfdfd" opacity="1.00" stroke="#fbfdfd" stroke-width="0.25" data-index="63"></path>
<path d="M 122.49 317.21 C 130.32 315.59 137.36 311.69 144.48 308.22 C 144.64 331.14 144.56 354.06 144.64 376.98 C 144.53 378.14 144.95 379.85 143.63 380.50 C 136.42 384.79 129.04 388.81 121.73 392.94 C 120.32 390.39 119.15 387.64 119.32 384.67 C 118.94 365.45 119.05 346.23 119.08 327.01 C 119.06 324.07 119.74 321.01 118.67 318.19 C 119.94 317.87 121.21 317.53 122.49 317.21 Z" fill="#ffffff" opacity="1.00" stroke="#ffffff" stroke-width="0.25" data-index="64" style="opacity: 1;"></path>
<path d="M 98.60 310.75 C 102.82 312.90 106.96 315.35 111.58 316.58 C 115.14 317.49 118.85 317.21 122.49 317.21 C 121.21 317.53 119.94 317.87 118.67 318.19 C 119.74 321.01 119.06 324.07 119.08 327.01 C 119.05 346.23 118.94 365.45 119.32 384.67 C 119.15 387.64 120.32 390.39 121.73 392.94 C 121.30 393.01 120.45 393.13 120.02 393.19 C 112.81 390.19 105.83 386.66 98.60 383.69 C 98.34 359.38 98.50 335.06 98.60 310.75 Z" fill="#ecfbff" opacity="1.00" stroke="#ecfbff" stroke-width="0.25" data-index="65"></path>
<path d="M 72.35 322.35 C 74.22 319.76 77.47 318.90 80.30 317.80 C 79.35 321.07 75.13 321.42 72.35 322.35 Z" fill="#c8d3d7" opacity="1.00" stroke="#c8d3d7" stroke-width="0.25" data-index="66"></path>
<path d="M 364.52 323.66 C 368.14 321.76 371.74 319.42 375.93 319.14 C 382.91 318.34 389.20 322.03 395.45 324.50 C 399.93 326.61 404.98 327.83 408.81 331.13 C 411.27 333.08 411.54 337.05 409.50 339.39 C 406.83 342.70 402.80 344.39 399.17 346.38 C 392.01 349.92 385.23 355.05 377.00 355.64 C 367.29 356.29 357.00 355.66 348.34 350.81 C 344.90 348.85 342.23 345.34 342.91 341.19 C 346.38 331.75 356.75 328.59 364.52 323.66 Z" fill="#ffffff" opacity="1.00" stroke="#ffffff" stroke-width="0.25" data-index="67"></path>
<path d="M 335.94 321.27 C 341.49 322.81 346.35 326.18 351.79 328.10 C 346.83 331.39 341.36 334.00 335.96 336.54 C 335.84 331.45 335.89 326.36 335.94 321.27 Z" fill="#dbf6ff" opacity="1.00" stroke="#dbf6ff" stroke-width="0.25" data-index="68"></path>
<path d="M 163.51 331.17 C 165.68 329.55 168.02 328.18 170.50 327.11 C 170.41 329.57 170.29 332.04 170.14 334.50 C 167.90 333.45 165.71 332.29 163.51 331.17 Z" fill="#d6f2f9" opacity="1.00" stroke="#d6f2f9" stroke-width="0.25" data-index="69"></path>
<path d="M 146.43 332.62 C 149.76 331.89 152.35 329.45 155.50 328.25 C 155.52 331.18 155.49 334.11 155.46 337.04 C 152.16 338.43 149.35 340.90 145.81 341.72 C 145.84 338.68 145.60 335.58 146.43 332.62 Z" fill="#d9f4fd" opacity="1.00" stroke="#d9f4fd" stroke-width="0.25" data-index="70"></path>
<path d="M 412.40 334.68 C 419.09 335.82 424.14 330.16 430.05 328.06 C 426.87 337.72 419.63 345.25 415.53 354.44 C 411.87 363.14 414.49 372.87 413.01 381.81 C 405.37 386.41 397.26 390.20 389.51 394.61 C 382.67 398.70 374.04 399.18 366.54 396.76 C 362.52 395.48 358.26 392.61 357.92 388.02 C 357.56 382.91 357.92 377.79 357.74 372.68 C 363.82 374.07 370.04 374.62 376.27 374.24 C 376.45 373.82 376.81 372.97 377.00 372.55 C 368.64 373.27 359.85 372.63 352.32 368.62 C 347.03 366.03 342.76 360.73 342.54 354.71 C 342.85 354.28 343.45 353.44 343.75 353.01 C 348.01 357.44 354.21 358.82 360.00 360.03 C 370.03 361.80 380.93 361.83 390.17 356.99 C 396.66 353.61 403.41 350.63 409.52 346.57 C 413.65 344.12 412.59 338.69 412.40 334.68 Z" fill="#ffffff" opacity="1.00" stroke="#ffffff" stroke-width="0.25" data-index="71"></path>
<path d="M 156.57 328.94 C 166.40 333.56 176.02 338.59 185.78 343.35 C 195.43 348.46 205.33 353.06 215.11 357.88 C 228.40 363.99 241.40 371.31 255.94 374.04 C 255.93 377.41 255.93 380.78 255.94 384.15 C 242.64 378.08 229.80 371.02 216.45 365.07 C 196.43 355.51 176.57 345.61 156.48 336.17 C 156.51 333.76 156.54 331.35 156.57 328.94 Z" fill="#dcf7ff" opacity="1.00" stroke="#dcf7ff" stroke-width="0.25" data-index="72"></path>
<path d="M 313.35 350.32 C 323.97 344.98 334.36 339.21 344.94 333.79 C 344.04 335.42 343.07 337.02 342.31 338.72 C 342.01 339.55 341.74 340.38 341.51 341.24 C 336.75 343.04 332.47 345.82 327.90 348.02 C 304.30 359.85 281.11 372.49 257.44 384.17 C 257.45 380.92 257.44 377.67 257.40 374.43 C 277.58 370.50 295.31 359.59 313.35 350.32 Z" fill="#dbf5ff" opacity="1.00" stroke="#dbf5ff" stroke-width="0.25" data-index="73"></path>
<path d="M 146.14 342.91 C 149.59 341.42 152.68 339.24 156.03 337.56 C 158.97 337.73 161.50 339.58 164.16 340.73 C 174.90 346.10 185.80 351.12 196.53 356.52 C 194.36 358.73 191.59 356.89 189.04 357.16 C 184.24 359.25 179.24 360.87 174.78 363.64 C 169.83 364.75 165.82 368.34 160.62 368.52 C 158.66 371.13 155.20 371.68 152.93 373.93 C 151.57 375.39 149.69 376.05 147.92 376.88 C 147.21 378.26 146.68 379.73 145.85 381.06 C 146.35 368.35 145.85 355.62 146.14 342.91 Z" fill="#edfafe" opacity="1.00" stroke="#edfafe" stroke-width="0.25" data-index="74" style="opacity: 1; display: block;"></path>
<path d="M 388.68 353.64 C 396.46 349.34 404.85 345.82 411.56 339.95 C 411.35 343.09 409.29 345.45 406.55 346.76 C 400.33 350.31 393.99 353.67 387.46 356.62 C 379.19 360.44 369.72 359.90 360.93 358.70 C 354.66 357.36 346.99 356.08 343.66 349.94 L 343.20 350.16 C 343.02 351.16 343.20 352.11 343.75 353.01 C 343.45 353.44 342.85 354.28 342.54 354.71 L 342.21 355.18 C 342.53 353.22 341.11 349.23 343.42 348.58 C 347.85 353.52 354.54 355.32 360.82 356.54 C 370.11 357.67 380.18 358.26 388.68 353.64 Z" fill="#ecfbff" opacity="1.00" stroke="#ecfbff" stroke-width="0.25" data-index="75"></path>
<path d="M 302.29 362.67 C 315.22 355.93 328.25 349.38 341.17 342.63 C 340.42 349.27 339.88 356.53 343.47 362.51 C 346.05 367.48 351.32 370.05 356.28 372.04 C 356.27 377.64 356.17 383.25 356.40 388.85 C 355.85 389.10 354.75 389.61 354.20 389.86 C 354.39 388.36 354.98 386.85 354.73 385.34 C 352.46 382.99 349.42 381.61 346.35 380.64 C 342.71 379.51 339.73 376.92 336.05 375.88 C 331.21 374.34 326.57 372.24 322.13 369.79 C 319.23 368.10 315.78 367.81 312.84 366.24 C 309.56 364.36 305.70 364.18 302.29 362.67 Z" fill="#edfbfe" opacity="1.00" stroke="#edfbfe" stroke-width="0.25" data-index="76" style="opacity: 1;"></path>
<path d="M 57.82 384.50 C 71.05 377.68 83.72 369.80 97.06 363.17 C 97.11 367.07 97.17 370.97 97.05 374.86 C 79.23 384.08 61.89 394.22 44.21 403.69 C 44.29 399.89 44.32 396.11 44.30 392.32 C 48.94 389.95 53.44 387.32 57.82 384.50 Z" fill="#dcf7ff" opacity="1.00" stroke="#dcf7ff" stroke-width="0.25" data-index="77"></path>
<path d="M 414.91 364.98 C 433.03 372.97 450.79 381.75 468.73 390.14 C 468.82 393.90 468.86 397.66 468.82 401.42 C 454.33 395.13 440.39 387.61 425.89 381.33 C 422.16 379.69 418.49 377.90 414.87 376.03 C 414.91 372.35 414.83 368.66 414.91 364.98 Z" fill="#dcf7fe" opacity="1.00" stroke="#dcf7fe" stroke-width="0.25" data-index="78" style="opacity: 1;"></path>
<path d="M 90.04 380.03 C 92.41 378.71 94.79 377.39 97.01 375.82 C 97.11 378.67 96.51 381.73 97.41 384.47 C 104.20 388.07 111.35 390.98 118.35 394.17 C 118.05 395.01 117.75 395.86 117.45 396.71 C 116.42 396.93 115.38 397.17 114.35 397.41 C 113.39 398.40 112.49 399.48 111.32 400.23 C 105.29 403.92 98.97 407.12 93.15 411.11 C 90.96 412.24 88.64 413.19 86.81 414.91 C 82.45 415.71 78.48 413.70 74.40 412.56 C 67.32 411.04 60.54 408.24 53.30 407.41 C 50.57 407.01 47.37 407.16 45.55 404.68 C 60.29 396.31 75.18 388.19 90.04 380.03 Z" fill="#edfbfe" opacity="1.00" stroke="#edfbfe" stroke-width="0.25" data-index="79"></path>
<path d="M 414.98 377.28 C 417.89 378.48 420.74 379.82 423.55 381.24 C 437.98 388.67 452.80 395.34 467.41 402.41 C 460.63 405.89 453.11 407.71 446.35 411.28 C 441.98 413.05 437.88 415.50 433.23 416.51 C 428.46 418.62 423.24 420.28 417.98 420.02 C 410.42 416.08 402.41 413.06 394.81 409.20 C 390.29 405.56 384.06 404.42 380.68 399.41 C 386.96 398.44 392.23 394.66 397.77 391.82 C 403.34 388.69 409.24 386.10 414.59 382.60 C 414.92 380.84 414.86 379.04 414.98 377.28 Z" fill="#edfbfe" opacity="1.00" stroke="#edfbfe" stroke-width="0.25" data-index="80" style="opacity: 1;"></path>
<path d="M 143.26 409.43 C 155.62 404.05 167.56 397.77 180.00 392.58 C 194.44 398.76 208.40 406.02 222.87 412.12 C 224.10 412.58 225.30 413.73 224.27 415.04 C 201.77 425.62 179.23 436.19 156.52 446.36 C 153.56 447.38 150.81 445.69 148.23 444.47 C 134.63 438.29 120.69 432.87 107.12 426.63 C 111.32 423.79 116.22 422.32 120.69 419.98 C 128.15 416.32 135.82 413.12 143.26 409.43 Z" fill="#506b7b" opacity="1.00" stroke="#506b7b" stroke-width="0.25" data-index="81" style="opacity: 1; display: block;"></path>
<path d="M 139.37 412.09 C 152.91 405.91 166.23 399.18 179.96 393.48 C 193.47 399.11 206.59 405.77 219.96 411.75 C 221.25 412.52 223.37 412.34 223.85 414.11 C 222.12 415.92 219.41 416.25 217.27 417.45 C 197.35 427.05 177.19 436.19 157.07 445.36 C 152.77 446.84 148.92 443.82 145.13 442.28 C 133.33 437.21 121.54 432.09 109.71 427.14 L 108.94 425.86 C 119.34 421.87 129.15 416.51 139.37 412.09 Z" fill="#edfbfe" opacity="1.00" stroke="#edfbfe" stroke-width="0.25" data-index="82" style="opacity: 1; display: block;"></path>
<path d="M 329.10 408.07 C 330.33 407.22 331.77 407.88 332.99 408.34 C 347.95 414.38 362.87 420.55 377.83 426.58 C 382.21 428.52 386.64 430.36 391.20 431.86 C 392.60 432.22 393.81 433.01 394.84 434.02 C 388.86 437.80 382.35 440.61 376.12 443.95 C 367.13 448.66 358.12 453.31 349.05 457.84 C 347.15 458.84 344.83 458.71 342.91 457.86 C 321.83 449.72 301.04 440.85 279.85 433.00 C 279.75 432.68 279.55 432.04 279.44 431.73 C 295.90 423.64 312.63 416.15 329.10 408.07 Z" fill="#506b7b" opacity="1.00" stroke="#506b7b" stroke-width="0.25" data-index="83" style="opacity: 1;"></path>
<path d="M 280.66 431.87 C 297.03 423.94 313.60 416.41 329.96 408.45 C 331.43 408.41 332.79 409.04 334.14 409.54 C 348.35 415.46 362.66 421.15 376.89 427.00 C 381.95 429.24 387.06 431.36 392.33 433.08 L 392.87 433.98 L 392.17 434.92 C 377.68 442.17 363.46 449.97 348.92 457.10 C 346.02 458.49 342.91 457.13 340.18 456.05 C 322.10 448.92 304.13 441.55 286.04 434.48 C 284.19 433.74 282.14 433.27 280.66 431.87 Z" fill="#edfbfe" opacity="1.00" stroke="#edfbfe" stroke-width="0.25" data-index="84" style="opacity: 1;"></path>
<path d="M0,0h512v512h-512z" id="path-74 1" fill="url(#grad-85)" fill-rule="nonzero" stroke="url(#grad-85)" stroke-width="0.25" stroke-linecap="butt" stroke-linejoin="miter" stroke-miterlimit="10" stroke-dasharray="" stroke-dashoffset="0" font-family="none" font-weight="none" font-size="none" text-anchor="none" style="mix-blend-mode: normal; opacity: 1; display: none;" data-index="85"></path></svg>