<svg xmlns="http://www.w3.org/2000/svg" height="512pt" version="1.1" viewBox="0 0 512 512" width="512pt">
<path d="M 0.00 0.00 L 512.00 0.00 L 512.00 512.00 L 0.00 512.00 L 0.00 0.00 Z" fill="transparent" opacity="1.00" stroke="transparent" stroke-width="0.25" data-index="0"></path>
<path d="M 231.42 154.56 C 240.84 152.16 249.78 160.24 254.21 167.79 C 258.81 175.99 276.92 169.66 274.03 183.00 C 269.63 194.99 254.99 196.30 244.01 198.12 C 233.45 199.64 222.59 199.91 212.38 196.58 C 195.58 191.44 176.71 205.74 161.22 194.78 C 155.70 189.79 161.86 182.46 167.62 181.50 C 175.69 177.17 186.04 180.02 193.83 176.80 C 200.39 162.41 216.28 155.15 231.42 154.56 Z" fill="#effbfe" opacity="1.00" stroke="#effbfe" stroke-width="0.25" data-index="1"></path>
<path d="M 384.42 157.44 C 391.98 156.08 400.42 160.06 404.27 166.74 C 409.11 172.62 418.77 175.66 416.12 185.05 C 422.43 184.32 428.65 180.20 435.00 182.98 C 440.81 181.89 440.70 189.51 436.35 190.35 C 430.36 190.72 421.23 194.59 416.86 188.18 C 415.13 184.12 410.08 186.78 407.32 188.35 C 394.12 193.52 379.67 189.96 365.97 189.04 C 360.02 187.48 359.36 195.92 354.35 197.34 C 338.42 199.53 318.97 204.35 305.76 192.24 C 298.76 182.21 309.98 173.37 318.62 170.51 C 330.31 164.44 343.49 170.13 354.12 175.91 C 367.12 175.53 371.73 159.38 384.42 157.44 Z" fill="#f3fcfe" opacity="1.00" stroke="#f3fcfe" stroke-width="0.25" data-index="2"></path>
<path d="M 226.39 160.38 C 230.96 159.46 235.26 161.44 239.62 162.41 C 242.72 166.49 245.34 170.95 247.48 175.61 C 249.67 180.99 258.59 178.18 260.04 183.88 C 242.84 195.67 219.08 194.45 202.13 183.77 C 202.58 176.72 206.05 168.80 212.99 165.99 C 217.31 163.76 222.11 162.70 226.39 160.38 Z" fill="#e3f8fe" opacity="1.00" stroke="#e3f8fe" stroke-width="0.25" data-index="3"></path>
<path d="M 384.38 161.38 C 392.02 159.68 398.53 165.58 402.83 171.17 C 404.89 174.27 409.95 175.96 407.91 180.79 C 398.21 189.54 384.14 185.41 372.65 183.45 C 369.77 183.28 367.18 181.58 365.91 179.00 C 370.78 172.13 375.45 163.30 384.38 161.38 Z" fill="#e6f8fd" opacity="1.00" stroke="#e6f8fd" stroke-width="0.25" data-index="4"></path>
<path d="M 324.40 174.48 C 333.18 172.56 343.69 174.30 349.83 181.32 C 352.03 188.17 344.82 194.31 338.32 193.40 C 329.89 193.47 313.22 197.68 311.31 185.69 C 311.88 179.40 318.12 174.70 324.40 174.48 Z" fill="#e6f8fe" opacity="1.00" stroke="#e6f8fe" stroke-width="0.25" data-index="5"></path>
<path d="M 105.17 182.06 C 110.08 182.08 108.20 190.22 111.79 191.92 C 112.98 189.83 113.54 182.37 116.66 186.32 C 121.81 195.48 126.69 205.12 129.86 215.12 C 125.50 212.83 124.04 222.18 121.68 225.20 C 119.57 218.69 115.02 214.11 112.53 207.70 C 112.97 210.62 112.18 212.75 110.15 214.11 C 108.09 210.01 107.16 205.30 104.10 201.75 C 101.93 204.38 99.95 207.24 97.17 209.28 C 100.64 200.57 102.65 191.17 105.17 182.06 Z" fill="#77cbee" opacity="1.00" stroke="#77cbee" stroke-width="0.25" data-index="6"></path>
<path d="M 75.35 188.95 C 80.98 199.41 81.55 212.55 86.15 223.81 C 87.92 222.52 90.07 212.35 91.25 220.05 C 94.50 217.67 94.37 212.34 97.17 209.28 C 99.95 207.24 101.93 204.38 104.10 201.75 C 107.16 205.30 108.09 210.01 110.15 214.11 C 112.18 212.75 112.97 210.62 112.53 207.70 C 115.02 214.11 119.57 218.69 121.68 225.20 C 124.04 222.18 125.50 212.83 129.86 215.12 C 130.50 215.82 131.17 216.50 131.88 217.15 C 132.40 217.42 133.44 217.96 133.96 218.23 C 130.71 219.66 133.32 222.48 134.15 224.73 C 135.51 233.58 139.21 241.67 143.31 249.53 C 145.55 249.25 147.67 249.60 149.32 251.28 C 147.35 260.94 147.99 270.76 145.51 279.84 C 144.40 279.36 134.13 281.02 137.20 277.18 C 139.09 274.91 134.33 275.43 133.05 274.64 C 133.34 272.33 136.54 272.65 138.04 271.31 C 135.08 269.07 137.40 265.64 136.32 262.70 C 133.61 248.70 130.34 234.82 127.64 220.81 C 123.66 230.34 121.41 240.69 119.74 250.81 C 117.29 254.74 119.68 262.64 114.31 263.95 C 113.37 260.10 112.30 256.29 111.20 252.48 C 106.49 251.96 113.67 246.72 108.63 246.65 C 109.11 237.03 105.68 227.74 102.71 218.75 C 100.15 225.18 100.55 233.15 98.48 240.05 C 102.20 242.93 95.20 243.21 96.39 246.64 C 97.44 252.45 90.45 260.37 98.12 262.77 C 94.29 262.13 92.83 264.39 95.82 266.99 C 89.72 266.01 94.62 268.85 93.04 271.77 C 89.96 270.40 86.86 269.01 84.23 266.85 C 88.61 272.58 81.13 273.53 81.11 269.89 C 79.50 258.31 78.04 246.67 75.75 235.20 C 75.37 235.14 74.60 235.04 74.22 234.99 C 72.60 246.85 68.37 258.24 67.73 270.25 C 62.66 266.72 63.57 257.76 60.09 254.08 C 57.07 258.93 56.84 266.55 54.23 272.29 C 52.80 266.21 49.53 260.59 48.99 254.30 C 52.91 250.10 51.69 243.23 53.14 238.02 C 56.24 237.39 54.96 241.85 56.86 243.10 C 57.61 238.02 57.71 232.84 59.24 227.91 C 60.74 229.00 61.22 231.09 62.83 232.03 C 66.77 217.61 70.28 203.03 75.35 188.95 Z" fill="#3f8bbb" opacity="1.00" stroke="#3f8bbb" stroke-width="0.25" data-index="7"></path>
<path d="M 406.14 198.19 C 406.35 198.43 406.76 198.92 406.97 199.17 C 407.10 200.60 407.36 203.48 407.49 204.92 C 409.32 210.07 409.43 215.60 410.17 220.96 C 414.09 220.72 418.27 220.34 421.58 217.98 C 422.99 217.95 422.81 218.92 422.40 219.91 C 418.70 221.25 414.87 222.16 411.12 223.32 C 410.89 227.36 412.59 231.18 413.12 235.15 C 413.71 237.67 411.27 242.71 414.89 243.20 C 412.48 252.54 409.24 261.67 407.04 271.05 C 405.25 275.33 403.99 263.49 402.10 270.05 C 400.93 274.50 399.28 275.94 396.91 271.85 C 395.39 278.14 387.74 274.41 383.15 276.41 C 380.66 280.55 373.96 275.67 369.75 279.83 C 367.88 279.92 366.02 279.95 364.15 279.95 C 364.04 279.23 363.83 277.78 363.72 277.06 C 355.09 276.41 346.90 278.96 338.59 280.68 C 341.58 280.84 344.75 281.12 347.79 281.26 C 353.87 282.04 360.01 281.94 366.13 282.07 C 363.44 289.49 354.74 285.80 348.73 286.16 L 348.06 286.00 C 344.79 285.24 340.63 286.62 338.43 283.38 C 330.85 283.66 323.29 283.28 315.71 283.07 C 297.00 282.73 278.28 283.41 259.59 282.74 C 260.89 282.17 262.28 281.77 263.70 281.60 C 279.55 281.95 295.51 282.71 311.31 281.38 C 316.93 282.02 318.48 266.74 321.50 274.63 C 323.42 277.75 328.24 272.71 329.19 270.10 C 332.02 266.48 331.73 274.57 333.89 274.75 C 336.50 272.30 339.74 270.45 341.01 266.59 C 341.95 270.52 346.11 272.64 348.51 273.55 C 349.63 266.58 356.96 274.92 359.18 269.41 C 360.31 269.91 361.85 272.46 362.07 269.02 C 365.69 264.25 364.77 257.31 368.64 252.88 C 369.75 254.56 368.90 259.16 371.68 258.53 C 375.08 257.40 373.95 262.56 375.69 264.36 C 377.12 257.70 379.65 251.11 379.79 244.24 C 381.87 239.91 382.51 244.46 383.00 246.94 C 384.06 249.67 381.77 256.60 385.77 255.85 C 386.48 252.97 386.93 250.03 387.03 247.07 L 387.81 247.14 C 387.33 251.66 390.08 255.26 391.07 249.07 C 391.97 246.96 391.34 240.73 394.12 244.80 C 393.69 248.20 394.58 251.60 396.88 254.18 C 397.58 251.55 397.68 248.80 397.97 246.12 C 398.93 239.14 400.25 232.21 401.24 225.24 C 402.00 224.05 401.60 223.62 400.03 223.94 C 405.40 216.93 402.29 206.15 406.14 198.19 Z" fill="#3077a4" opacity="1.00" stroke="#3077a4" stroke-width="0.25" data-index="8"></path>
<path d="M 406.97 199.17 C 409.17 199.58 408.71 203.55 407.49 204.92 C 407.36 203.48 407.10 200.60 406.97 199.17 Z" fill="#91b2c6" opacity="1.00" stroke="#91b2c6" stroke-width="0.25" data-index="9"></path>
<path d="M 357.99 209.99 C 363.04 207.68 369.14 202.62 374.80 206.25 C 381.29 214.82 386.27 228.70 400.03 223.94 C 401.60 223.62 402.00 224.05 401.24 225.24 C 394.51 226.17 385.74 227.39 382.06 219.97 C 378.06 214.08 372.69 201.01 363.95 208.92 C 351.82 212.70 346.41 224.68 337.67 232.66 C 332.18 236.45 326.75 229.89 321.41 228.50 C 306.00 220.96 286.08 225.59 272.78 213.30 C 259.40 219.25 248.75 229.78 236.33 237.35 C 220.75 244.18 204.08 234.39 188.07 239.29 C 186.10 238.47 183.90 238.51 181.96 239.38 C 171.84 233.30 166.75 220.61 155.12 216.84 C 148.10 214.50 140.37 213.91 133.96 218.23 C 133.44 217.96 132.40 217.42 131.88 217.15 C 147.91 206.62 166.27 218.76 176.23 231.77 C 180.17 238.40 187.39 238.40 194.19 237.09 C 195.62 236.95 198.47 236.65 199.90 236.50 C 202.67 235.68 205.38 235.65 208.01 236.43 C 209.17 237.09 210.52 237.20 211.83 237.02 C 220.05 237.73 228.70 239.48 236.32 235.30 C 248.50 227.39 259.46 217.29 272.80 211.24 C 286.20 223.77 306.47 219.09 322.10 226.87 C 326.77 227.82 330.80 232.72 335.71 231.72 C 344.40 226.02 348.34 214.74 357.99 209.99 Z" fill="#3d687b" opacity="1.00" stroke="#3d687b" stroke-width="0.25" data-index="10"></path>
<path d="M 363.95 208.92 C 372.69 201.01 378.06 214.08 382.06 219.97 C 385.74 227.39 394.51 226.17 401.24 225.24 C 400.25 232.21 398.93 239.14 397.97 246.12 C 396.68 245.70 395.40 245.25 394.12 244.80 C 391.34 240.73 391.97 246.96 391.07 249.07 C 388.70 251.03 389.48 247.51 387.81 247.14 L 387.03 247.07 C 385.68 246.99 384.34 246.95 383.00 246.94 C 382.51 244.46 381.87 239.91 379.79 244.24 C 375.76 242.54 373.79 237.43 370.04 236.03 C 362.75 241.94 356.83 251.37 347.34 254.29 C 336.08 253.85 327.48 263.54 316.01 262.08 C 309.88 264.08 306.65 258.33 302.56 255.29 C 295.43 255.62 287.85 256.09 282.24 261.18 C 272.95 266.37 264.50 256.65 256.16 254.07 C 252.39 256.28 249.13 259.52 244.92 260.94 C 234.27 259.96 229.11 245.58 217.26 250.30 C 212.47 253.41 205.67 255.64 200.94 251.07 C 196.99 245.88 194.17 252.08 191.41 254.50 C 187.92 254.57 184.44 254.42 180.98 254.05 C 180.42 250.27 178.88 251.81 177.19 254.03 C 176.13 251.30 177.41 243.89 173.07 247.73 C 170.15 245.19 169.96 241.08 168.26 237.83 C 167.15 240.10 166.47 243.81 163.14 242.30 C 160.93 241.73 158.76 241.00 156.61 240.27 C 155.80 237.09 153.94 227.53 152.84 235.05 C 145.61 236.76 139.54 228.53 134.15 224.73 C 133.32 222.48 130.71 219.66 133.96 218.23 C 140.37 213.91 148.10 214.50 155.12 216.84 C 166.75 220.61 171.84 233.30 181.96 239.38 C 184.32 241.01 186.35 240.98 188.07 239.29 C 204.08 234.39 220.75 244.18 236.33 237.35 C 248.75 229.78 259.40 219.25 272.78 213.30 C 286.08 225.59 306.00 220.96 321.41 228.50 C 326.75 229.89 332.18 236.45 337.67 232.66 C 346.41 224.68 351.82 212.70 363.95 208.92 Z" fill="#b2eefd" opacity="1.00" stroke="#b2eefd" stroke-width="0.25" data-index="11"></path>
<path d="M 421.58 217.98 C 423.68 216.66 422.86 207.99 426.84 208.03 C 428.39 214.78 431.99 220.95 433.18 227.77 C 433.62 227.61 434.51 227.28 434.96 227.12 C 433.54 233.89 431.41 240.53 429.46 247.15 C 429.02 246.02 428.60 244.89 428.19 243.75 C 427.81 242.53 427.39 241.33 426.96 240.14 C 427.12 237.21 426.53 234.35 425.12 231.77 C 423.93 228.80 424.12 224.88 421.43 222.77 C 421.76 221.82 422.14 220.88 422.40 219.91 C 422.81 218.92 422.99 217.95 421.58 217.98 Z" fill="#7bccee" opacity="1.00" stroke="#7bccee" stroke-width="0.25" data-index="12"></path>
<path d="M 435.98 222.80 C 436.80 221.18 436.14 217.48 438.79 218.06 C 439.22 220.40 439.72 222.73 439.98 225.09 C 438.94 223.72 437.99 221.52 435.98 222.80 Z" fill="#74a3b9" opacity="1.00" stroke="#74a3b9" stroke-width="0.25" data-index="13"></path>
<path d="M 98.48 240.05 C 100.55 233.15 100.15 225.18 102.71 218.75 C 105.68 227.74 109.11 237.03 108.63 246.65 C 113.67 246.72 106.49 251.96 111.20 252.48 C 112.30 256.29 113.37 260.10 114.31 263.95 C 119.68 262.64 117.29 254.74 119.74 250.81 C 121.41 240.69 123.66 230.34 127.64 220.81 C 130.34 234.82 133.61 248.70 136.32 262.70 C 137.40 265.64 135.08 269.07 138.04 271.31 C 136.54 272.65 133.34 272.33 133.05 274.64 C 134.33 275.43 139.09 274.91 137.20 277.18 C 134.13 281.02 144.40 279.36 145.51 279.84 C 147.99 270.76 147.35 260.94 149.32 251.28 C 151.18 246.04 151.92 240.50 152.84 235.05 C 153.94 227.53 155.80 237.09 156.61 240.27 C 157.10 242.77 157.59 245.28 158.03 247.80 C 159.31 257.01 160.30 266.42 164.24 274.97 C 166.30 271.50 167.58 272.79 168.64 276.09 C 169.07 273.81 169.37 271.36 170.97 269.55 C 173.17 272.04 173.43 275.82 175.68 278.14 C 182.97 279.25 190.90 280.44 197.83 277.26 C 201.13 280.54 206.17 278.05 209.31 280.84 C 165.20 281.22 121.10 280.89 77.00 281.00 C 63.93 280.99 50.87 280.88 37.80 281.18 L 36.95 281.12 C 37.17 277.67 40.28 275.54 39.47 271.96 C 40.00 270.40 40.22 268.76 40.27 267.13 C 40.95 265.96 41.17 264.62 41.16 263.30 C 41.47 262.96 42.11 262.28 42.42 261.93 C 44.25 260.87 43.19 258.84 42.87 257.26 C 43.12 253.75 44.96 250.56 45.27 247.04 C 48.84 246.80 48.13 251.92 48.99 254.30 C 49.53 260.59 52.80 266.21 54.23 272.29 C 56.84 266.55 57.07 258.93 60.09 254.08 C 63.57 257.76 62.66 266.72 67.73 270.25 C 68.37 258.24 72.60 246.85 74.22 234.99 C 74.60 235.04 75.37 235.14 75.75 235.20 C 78.04 246.67 79.50 258.31 81.11 269.89 C 81.13 273.53 88.61 272.58 84.23 266.85 C 86.86 269.01 89.96 270.40 93.04 271.77 C 94.62 268.85 89.72 266.01 95.82 266.99 C 92.83 264.39 94.29 262.13 98.12 262.77 C 90.45 260.37 97.44 252.45 96.39 246.64 C 95.20 243.21 102.20 242.93 98.48 240.05 Z" fill="#0d4b76" opacity="1.00" stroke="#0d4b76" stroke-width="0.25" data-index="14"></path>
<path d="M 411.12 223.32 C 414.87 222.16 418.70 221.25 422.40 219.91 C 422.14 220.88 421.76 221.82 421.43 222.77 C 420.49 225.08 419.67 227.44 418.94 229.82 C 416.61 231.14 414.74 233.05 413.12 235.15 C 412.59 231.18 410.89 227.36 411.12 223.32 Z" fill="#9be1f8" opacity="1.00" stroke="#9be1f8" stroke-width="0.25" data-index="15"></path>
<path d="M 435.98 222.80 C 437.99 221.52 438.94 223.72 439.98 225.09 C 440.86 226.26 440.83 227.74 441.09 229.12 C 442.82 236.55 444.17 244.39 447.88 251.14 C 449.40 248.68 450.33 245.91 451.02 243.12 C 452.47 240.02 452.12 233.82 455.69 233.14 C 456.91 236.44 457.90 239.81 458.89 243.19 C 459.86 247.38 463.62 249.96 463.95 244.06 C 464.66 242.43 464.09 238.23 465.88 238.26 C 469.11 250.36 471.62 262.69 474.06 274.96 C 473.62 276.70 475.10 280.26 472.29 280.11 C 469.32 279.00 466.86 277.04 464.35 275.18 C 463.90 279.29 456.53 278.55 455.13 275.04 C 454.67 282.01 451.66 272.38 451.59 269.82 C 450.44 271.44 449.70 273.29 448.82 275.05 C 448.07 271.15 444.50 269.61 441.77 272.94 C 438.42 271.24 438.66 266.83 436.89 263.94 C 432.48 264.05 434.74 275.18 429.94 270.25 C 432.64 268.50 431.16 266.43 429.76 264.35 C 431.73 257.81 426.42 250.87 428.19 243.75 C 428.60 244.89 429.02 246.02 429.46 247.15 C 431.41 240.53 433.54 233.89 434.96 227.12 C 435.15 225.64 435.20 224.11 435.98 222.80 Z" fill="#3279a8" opacity="1.00" stroke="#3279a8" stroke-width="0.25" data-index="16"></path>
<path d="M 421.43 222.77 C 424.12 224.88 423.93 228.80 425.12 231.77 C 425.04 234.68 425.74 237.51 426.96 240.14 C 427.39 241.33 427.81 242.53 428.19 243.75 C 426.42 250.87 431.73 257.81 429.76 264.35 C 431.16 266.43 432.64 268.50 429.94 270.25 C 434.74 275.18 432.48 264.05 436.89 263.94 C 438.66 266.83 438.42 271.24 441.77 272.94 C 444.50 269.61 448.07 271.15 448.82 275.05 C 449.70 273.29 450.44 271.44 451.59 269.82 C 451.66 272.38 454.67 282.01 455.13 275.04 C 456.53 278.55 463.90 279.29 464.35 275.18 C 466.86 277.04 469.32 279.00 472.29 280.11 L 471.38 280.28 C 455.59 279.79 439.79 280.04 424.00 280.01 C 405.91 279.89 387.83 280.20 369.75 279.83 C 373.96 275.67 380.66 280.55 383.15 276.41 C 387.74 274.41 395.39 278.14 396.91 271.85 C 399.28 275.94 400.93 274.50 402.10 270.05 C 403.99 263.49 405.25 275.33 407.04 271.05 C 409.24 261.67 412.48 252.54 414.89 243.20 C 416.22 238.73 417.73 234.32 418.94 229.82 C 419.67 227.44 420.49 225.08 421.43 222.77 Z" fill="#0c4973" opacity="1.00" stroke="#0c4973" stroke-width="0.25" data-index="17"></path>
<path d="M 134.15 224.73 C 139.54 228.53 145.61 236.76 152.84 235.05 C 151.92 240.50 151.18 246.04 149.32 251.28 C 147.67 249.60 145.55 249.25 143.31 249.53 C 139.21 241.67 135.51 233.58 134.15 224.73 Z" fill="#70c7ef" opacity="1.00" stroke="#70c7ef" stroke-width="0.25" data-index="18"></path>
<path d="M 441.09 229.12 C 442.80 230.45 442.78 228.44 444.08 228.13 C 448.24 229.78 445.71 243.62 451.02 243.12 C 450.33 245.91 449.40 248.68 447.88 251.14 C 444.17 244.39 442.82 236.55 441.09 229.12 Z" fill="#7ccbeb" opacity="1.00" stroke="#7ccbeb" stroke-width="0.25" data-index="19"></path>
<path d="M 413.12 235.15 C 414.74 233.05 416.61 231.14 418.94 229.82 C 417.73 234.32 416.22 238.73 414.89 243.20 C 411.27 242.71 413.71 237.67 413.12 235.15 Z" fill="#57a8d1" opacity="1.00" stroke="#57a8d1" stroke-width="0.25" data-index="20"></path>
<path d="M 425.12 231.77 C 426.53 234.35 427.12 237.21 426.96 240.14 C 425.74 237.51 425.04 234.68 425.12 231.77 Z" fill="#4693b9" opacity="1.00" stroke="#4693b9" stroke-width="0.25" data-index="21"></path>
<path d="M 194.19 237.09 C 194.45 234.77 198.55 235.21 199.90 236.50 C 198.47 236.65 195.62 236.95 194.19 237.09 Z" fill="#80a3b6" opacity="1.00" stroke="#80a3b6" stroke-width="0.25" data-index="22"></path>
<path d="M 208.01 236.43 C 208.86 235.34 211.99 235.18 211.83 237.02 C 210.52 237.20 209.17 237.09 208.01 236.43 Z" fill="#95b3c5" opacity="1.00" stroke="#95b3c5" stroke-width="0.25" data-index="23"></path>
<path d="M 347.34 254.29 C 356.83 251.37 362.75 241.94 370.04 236.03 C 373.79 237.43 375.76 242.54 379.79 244.24 C 379.65 251.11 377.12 257.70 375.69 264.36 C 373.95 262.56 375.08 257.40 371.68 258.53 C 368.90 259.16 369.75 254.56 368.64 252.88 C 364.77 257.31 365.69 264.25 362.07 269.02 C 361.85 272.46 360.31 269.91 359.18 269.41 C 356.96 274.92 349.63 266.58 348.51 273.55 C 346.11 272.64 341.95 270.52 341.01 266.59 C 339.74 270.45 336.50 272.30 333.89 274.75 C 331.73 274.57 332.02 266.48 329.19 270.10 C 328.24 272.71 323.42 277.75 321.50 274.63 C 318.48 266.74 316.93 282.02 311.31 281.38 C 295.46 281.02 279.52 280.34 263.70 281.60 C 262.28 281.77 260.89 282.17 259.59 282.74 C 278.28 283.41 297.00 282.73 315.71 283.07 C 317.28 284.75 319.40 290.28 321.57 286.58 C 325.00 281.24 329.04 293.79 332.41 288.39 C 334.85 284.99 338.44 289.05 340.40 290.94 C 322.21 291.23 302.03 290.93 284.82 292.95 C 303.04 292.89 321.28 293.40 339.49 292.68 C 339.72 292.24 340.17 291.37 340.40 290.94 C 340.70 290.97 341.29 291.04 341.58 291.08 C 347.74 295.34 356.59 290.53 363.80 292.05 C 364.87 296.21 365.56 301.09 368.82 304.16 C 372.25 301.80 373.93 298.22 375.72 294.65 C 376.56 298.06 377.43 301.47 378.32 304.87 C 381.91 306.12 384.30 305.40 384.29 302.04 C 389.18 307.98 398.62 302.14 405.18 305.19 C 388.31 306.92 371.26 305.72 354.32 305.86 C 352.09 300.86 345.86 300.31 341.21 299.55 C 331.14 295.46 320.06 293.84 309.27 295.27 C 305.95 297.13 303.75 300.51 300.39 302.30 C 289.11 302.98 278.83 291.79 267.44 297.52 C 261.71 301.01 254.19 304.67 250.21 296.54 C 260.93 291.16 230.70 294.21 244.13 295.30 C 238.77 299.13 232.84 302.59 228.97 308.09 C 228.68 308.31 228.09 308.75 227.79 308.97 C 222.62 309.01 217.46 309.15 212.31 308.85 C 207.56 303.84 199.80 310.26 194.60 306.46 C 188.36 302.36 181.62 305.97 175.69 307.64 C 177.41 305.08 180.58 304.09 182.25 301.44 C 185.32 304.45 187.03 299.37 190.58 300.61 C 190.96 293.30 196.72 298.88 201.05 296.27 C 203.02 297.08 204.30 299.01 206.08 300.18 C 209.87 297.50 209.26 291.87 210.95 287.87 C 212.81 284.96 215.83 285.98 217.33 288.60 C 221.01 288.01 225.83 284.39 228.48 288.64 C 231.01 290.24 231.96 286.71 233.11 285.14 C 233.39 284.88 233.94 284.37 234.21 284.11 C 240.47 286.76 243.63 281.17 237.14 281.91 C 233.52 278.97 232.17 274.52 230.05 270.58 C 228.20 272.80 227.12 275.49 225.74 277.99 C 222.97 278.17 222.43 274.76 221.11 272.99 C 219.86 274.56 218.55 275.15 217.18 273.39 C 215.22 277.87 212.05 275.05 211.11 271.59 C 209.47 268.77 208.39 257.69 204.61 262.62 C 202.59 267.04 197.89 261.52 194.57 264.43 C 190.79 266.39 190.67 251.31 187.95 258.05 C 188.05 264.48 183.95 250.52 184.05 256.95 C 183.59 261.86 180.92 256.26 180.98 254.05 C 184.44 254.42 187.92 254.57 191.41 254.50 C 194.17 252.08 196.99 245.88 200.94 251.07 C 205.67 255.64 212.47 253.41 217.26 250.30 C 229.11 245.58 234.27 259.96 244.92 260.94 C 249.13 259.52 252.39 256.28 256.16 254.07 C 264.50 256.65 272.95 266.37 282.24 261.18 C 287.85 256.09 295.43 255.62 302.56 255.29 C 306.65 258.33 309.88 264.08 316.01 262.08 C 327.48 263.54 336.08 253.85 347.34 254.29 Z" fill="#6cc4ec" opacity="1.00" stroke="#6cc4ec" stroke-width="0.25" data-index="24"></path>
<path d="M 168.26 237.83 C 169.96 241.08 170.15 245.19 173.07 247.73 C 177.41 243.89 176.13 251.30 177.19 254.03 C 178.88 251.81 180.42 250.27 180.98 254.05 C 180.92 256.26 183.59 261.86 184.05 256.95 C 183.95 250.52 188.05 264.48 187.95 258.05 C 190.67 251.31 190.79 266.39 194.57 264.43 C 197.89 261.52 202.59 267.04 204.61 262.62 C 208.39 257.69 209.47 268.77 211.11 271.59 C 207.84 271.53 206.85 274.00 206.62 276.82 C 203.67 276.46 200.59 275.62 197.83 277.26 C 190.90 280.44 182.97 279.25 175.68 278.14 C 173.43 275.82 173.17 272.04 170.97 269.55 C 169.37 271.36 169.07 273.81 168.64 276.09 C 167.58 272.79 166.30 271.50 164.24 274.97 C 160.30 266.42 159.31 257.01 158.03 247.80 C 160.23 255.13 162.97 245.53 163.14 242.30 C 166.47 243.81 167.15 240.10 168.26 237.83 Z" fill="#3986b6" opacity="1.00" stroke="#3986b6" stroke-width="0.25" data-index="25"></path>
<path d="M 181.96 239.38 C 183.90 238.51 186.10 238.47 188.07 239.29 C 186.35 240.98 184.32 241.01 181.96 239.38 Z" fill="#72abc0" opacity="1.00" stroke="#72abc0" stroke-width="0.25" data-index="26"></path>
<path d="M 156.61 240.27 C 158.76 241.00 160.93 241.73 163.14 242.30 C 162.97 245.53 160.23 255.13 158.03 247.80 C 157.59 245.28 157.10 242.77 156.61 240.27 Z" fill="#75c7ed" opacity="1.00" stroke="#75c7ed" stroke-width="0.25" data-index="27"></path>
<path d="M 458.89 243.19 C 460.59 243.37 462.29 243.61 463.95 244.06 C 463.62 249.96 459.86 247.38 458.89 243.19 Z" fill="#84cae8" opacity="1.00" stroke="#84cae8" stroke-width="0.25" data-index="28"></path>
<path d="M 394.12 244.80 C 395.40 245.25 396.68 245.70 397.97 246.12 C 397.68 248.80 397.58 251.55 396.88 254.18 C 394.58 251.60 393.69 248.20 394.12 244.80 Z" fill="#73c3e8" opacity="1.00" stroke="#73c3e8" stroke-width="0.25" data-index="29"></path>
<path d="M 383.00 246.94 C 384.34 246.95 385.68 246.99 387.03 247.07 C 386.93 250.03 386.48 252.97 385.77 255.85 C 381.77 256.60 384.06 249.67 383.00 246.94 Z" fill="#6ebee5" opacity="1.00" stroke="#6ebee5" stroke-width="0.25" data-index="30"></path>
<path d="M 387.81 247.14 C 389.48 247.51 388.70 251.03 391.07 249.07 C 390.08 255.26 387.33 251.66 387.81 247.14 Z" fill="#73bee6" opacity="1.00" stroke="#73bee6" stroke-width="0.25" data-index="31"></path>
<path d="M 42.42 261.93 C 40.94 260.80 40.86 257.64 42.87 257.26 C 43.19 258.84 44.25 260.87 42.42 261.93 Z" fill="#6d8fa7" opacity="1.00" stroke="#6d8fa7" stroke-width="0.25" data-index="32"></path>
<path d="M 40.27 267.13 C 39.27 266.16 39.26 262.96 41.16 263.30 C 41.17 264.62 40.95 265.96 40.27 267.13 Z" fill="#9cb7c9" opacity="1.00" stroke="#9cb7c9" stroke-width="0.25" data-index="33"></path>
<path d="M 39.47 271.96 C 38.37 270.73 38.15 267.23 40.27 267.13 C 40.22 268.76 40.00 270.40 39.47 271.96 Z" fill="#99b6c7" opacity="1.00" stroke="#99b6c7" stroke-width="0.25" data-index="34"></path>
<path d="M 225.74 277.99 C 227.12 275.49 228.20 272.80 230.05 270.58 C 232.17 274.52 233.52 278.97 237.14 281.91 C 235.50 281.87 233.86 281.83 232.22 281.76 C 224.62 280.75 216.94 281.09 209.31 280.84 C 206.17 278.05 201.13 280.54 197.83 277.26 C 200.59 275.62 203.67 276.46 206.62 276.82 C 206.85 274.00 207.84 271.53 211.11 271.59 C 212.05 275.05 215.22 277.87 217.18 273.39 C 218.55 275.15 219.86 274.56 221.11 272.99 C 222.43 274.76 222.97 278.17 225.74 277.99 Z" fill="#2f7aa8" opacity="1.00" stroke="#2f7aa8" stroke-width="0.25" data-index="35"></path>
<path d="M 474.06 274.96 C 473.77 275.98 478.83 282.53 475.00 282.95 C 474.55 282.91 473.66 282.84 473.21 282.80 C 463.27 281.59 453.21 281.75 443.23 282.22 C 418.73 281.86 394.23 281.87 369.74 282.20 C 368.53 282.12 367.33 282.08 366.13 282.07 C 360.01 281.94 353.87 282.04 347.79 281.26 C 349.10 281.07 350.42 280.88 351.74 280.69 C 375.82 281.33 399.91 280.86 424.00 280.99 C 439.78 280.59 455.67 281.91 471.38 280.28 L 472.29 280.11 C 475.10 280.26 473.62 276.70 474.06 274.96 Z" fill="#9cb1a2" opacity="1.00" stroke="#9cb1a2" stroke-width="0.25" data-index="36"></path>
<path d="M 338.59 280.68 C 346.90 278.96 355.09 276.41 363.72 277.06 C 363.83 277.78 364.04 279.23 364.15 279.95 C 360.00 280.06 355.84 280.09 351.74 280.69 C 350.42 280.88 349.10 281.07 347.79 281.26 C 344.75 281.12 341.58 280.84 338.59 280.68 Z" fill="#155073" opacity="1.00" stroke="#155073" stroke-width="0.25" data-index="37"></path>
<path d="M 351.74 280.69 C 355.84 280.09 360.00 280.06 364.15 279.95 C 366.02 279.95 367.88 279.92 369.75 279.83 C 387.83 280.20 405.91 279.89 424.00 280.01 L 424.00 280.99 C 399.91 280.86 375.82 281.33 351.74 280.69 Z" fill="#334e46" opacity="1.00" stroke="#334e46" stroke-width="0.25" data-index="38"></path>
<path d="M 424.00 280.01 C 439.79 280.04 455.59 279.79 471.38 280.28 C 455.67 281.91 439.78 280.59 424.00 280.99 L 424.00 280.01 Z" fill="#5c6c58" opacity="1.00" stroke="#5c6c58" stroke-width="0.25" data-index="39"></path>
<path d="M 36.95 281.12 L 37.80 281.18 C 50.81 282.74 63.94 281.80 77.01 281.98 C 84.26 282.00 91.51 281.98 98.77 282.21 C 136.44 284.07 174.25 282.42 211.97 283.05 L 211.91 283.98 C 200.27 284.07 188.63 283.94 176.99 284.01 C 130.21 284.49 83.25 283.04 36.57 284.66 C 34.92 285.22 36.36 281.88 36.95 281.12 Z" fill="#dcca7d" opacity="1.00" stroke="#dcca7d" stroke-width="0.25" data-index="40"></path>
<path d="M 37.80 281.18 C 50.87 280.88 63.93 280.99 77.00 281.00 L 77.01 281.98 C 63.94 281.80 50.81 282.74 37.80 281.18 Z" fill="#617462" opacity="1.00" stroke="#617462" stroke-width="0.25" data-index="41"></path>
<path d="M 77.00 281.00 C 121.10 280.89 165.20 281.22 209.31 280.84 C 216.94 281.09 224.62 280.75 232.22 281.76 C 225.88 281.92 219.55 281.93 213.22 282.08 C 175.07 282.04 136.92 281.77 98.77 282.21 C 91.51 281.98 84.26 282.00 77.01 281.98 L 77.00 281.00 Z" fill="#214a56" opacity="1.00" stroke="#214a56" stroke-width="0.25" data-index="42"></path>
<path d="M 263.70 281.60 C 279.52 280.34 295.46 281.02 311.31 281.38 C 295.51 282.71 279.55 281.95 263.70 281.60 Z" fill="#4ca2ca" opacity="1.00" stroke="#4ca2ca" stroke-width="0.25" data-index="43"></path>
<path d="M 98.77 282.21 C 136.92 281.77 175.07 282.04 213.22 282.08 C 212.91 282.32 212.29 282.81 211.97 283.05 C 174.25 282.42 136.44 284.07 98.77 282.21 Z" fill="#b2a769" opacity="1.00" stroke="#b2a769" stroke-width="0.25" data-index="44"></path>
<path d="M 213.22 282.08 C 219.55 281.93 225.88 281.92 232.22 281.76 C 233.86 281.83 235.50 281.87 237.14 281.91 C 243.63 281.17 240.47 286.76 234.21 284.11 C 226.78 284.01 219.35 284.01 211.91 283.98 L 211.97 283.05 C 212.29 282.81 212.91 282.32 213.22 282.08 Z" fill="#9eac8f" opacity="1.00" stroke="#9eac8f" stroke-width="0.25" data-index="45"></path>
<path d="M 366.13 282.07 C 367.33 282.08 368.53 282.12 369.74 282.20 C 373.47 283.63 377.45 283.86 381.42 283.99 C 392.27 291.70 406.84 286.49 419.22 288.21 C 410.25 289.54 401.17 288.69 392.16 289.08 C 394.37 291.52 403.50 289.16 407.93 290.02 C 409.00 294.73 410.04 299.49 411.95 303.96 C 410.53 304.17 409.14 304.45 407.75 304.77 C 407.11 304.88 405.82 305.09 405.18 305.19 C 398.62 302.14 389.18 307.98 384.29 302.04 C 384.30 305.40 381.91 306.12 378.32 304.87 C 377.43 301.47 376.56 298.06 375.72 294.65 C 373.93 298.22 372.25 301.80 368.82 304.16 C 365.56 301.09 364.87 296.21 363.80 292.05 C 366.84 291.14 371.82 293.39 374.24 291.07 C 370.22 290.99 366.21 290.94 362.21 290.93 C 362.18 283.47 351.36 290.27 348.73 286.16 C 354.74 285.80 363.44 289.49 366.13 282.07 Z" fill="#448dbb" opacity="1.00" stroke="#448dbb" stroke-width="0.25" data-index="46"></path>
<path d="M 369.74 282.20 C 394.23 281.87 418.73 281.86 443.23 282.22 C 422.71 284.60 401.83 281.23 381.42 283.99 C 377.45 283.86 373.47 283.63 369.74 282.20 Z" fill="#4b798a" opacity="1.00" stroke="#4b798a" stroke-width="0.25" data-index="47"></path>
<path d="M 443.23 282.22 C 453.21 281.75 463.27 281.59 473.21 282.80 C 472.42 282.81 470.85 282.83 470.07 282.84 C 467.55 282.86 463.77 281.53 464.39 284.97 C 458.95 285.17 453.49 285.13 448.14 286.28 C 442.68 286.84 437.21 287.20 431.77 287.78 C 427.57 287.92 423.40 288.03 419.22 288.21 C 406.84 286.49 392.27 291.70 381.42 283.99 C 401.83 281.23 422.71 284.60 443.23 282.22 Z" fill="#2b688d" opacity="1.00" stroke="#2b688d" stroke-width="0.25" data-index="48"></path>
<path d="M 315.71 283.07 C 323.29 283.28 330.85 283.66 338.43 283.38 C 340.63 286.62 344.79 285.24 348.06 286.00 C 345.80 287.57 343.53 289.14 341.58 291.08 C 341.29 291.04 340.70 290.97 340.40 290.94 C 338.44 289.05 334.85 284.99 332.41 288.39 C 329.04 293.79 325.00 281.24 321.57 286.58 C 319.40 290.28 317.28 284.75 315.71 283.07 Z" fill="#438cb7" opacity="1.00" stroke="#438cb7" stroke-width="0.25" data-index="49"></path>
<path d="M 464.39 284.97 C 463.77 281.53 467.55 282.86 470.07 282.84 C 471.59 284.97 469.64 285.31 467.83 285.60 C 463.81 286.17 459.75 286.05 455.75 286.57 C 453.25 286.79 450.77 287.01 448.31 287.25 L 448.14 286.28 C 453.49 285.13 458.95 285.17 464.39 284.97 Z" fill="#7ba7c1" opacity="1.00" stroke="#7ba7c1" stroke-width="0.25" data-index="50"></path>
<path d="M 470.07 282.84 C 470.85 282.83 472.42 282.81 473.21 282.80 C 473.66 282.84 474.55 282.91 475.00 282.95 C 474.22 286.71 475.40 294.80 469.22 292.87 C 466.13 290.70 469.04 287.30 472.12 287.64 C 470.78 286.77 469.29 286.19 467.83 285.60 C 469.64 285.31 471.59 284.97 470.07 282.84 Z" fill="#bed0de" opacity="1.00" stroke="#bed0de" stroke-width="0.25" data-index="51"></path>
<path d="M 36.57 284.66 C 83.25 283.04 130.21 284.49 176.99 284.01 L 177.00 284.99 C 132.91 285.45 88.76 284.10 44.72 285.67 C 43.12 285.82 41.52 285.97 39.92 286.09 C 38.25 286.39 37.13 285.92 36.57 284.66 Z" fill="#6b867c" opacity="1.00" stroke="#6b867c" stroke-width="0.25" data-index="52"></path>
<path d="M 176.99 284.01 C 188.63 283.94 200.27 284.07 211.91 283.98 C 219.35 284.01 226.78 284.01 234.21 284.11 C 233.94 284.37 233.39 284.88 233.11 285.14 C 216.81 284.10 200.56 286.25 184.28 285.33 C 182.46 285.25 178.82 285.08 177.00 284.99 L 176.99 284.01 Z" fill="#447882" opacity="1.00" stroke="#447882" stroke-width="0.25" data-index="53"></path>
<path d="M 44.72 285.67 C 88.76 284.10 132.91 285.45 177.00 284.99 C 178.82 285.08 182.46 285.25 184.28 285.33 C 181.71 286.15 179.04 286.56 176.33 286.53 C 174.23 288.96 173.30 292.09 171.88 294.91 C 169.42 293.26 168.41 289.62 165.09 289.05 C 162.06 293.83 159.70 299.44 160.04 305.21 C 158.42 310.34 158.04 315.74 156.93 320.98 C 155.27 321.02 153.61 321.04 151.95 321.04 C 151.17 318.10 150.44 315.17 149.84 312.21 C 149.27 304.19 148.08 296.22 146.72 288.30 C 143.56 281.94 131.48 288.76 136.40 294.47 C 136.63 303.30 134.94 312.60 132.05 321.03 C 129.02 321.04 126.01 321.07 122.98 321.03 C 121.58 317.37 120.44 313.64 119.02 310.00 C 122.50 309.12 127.80 311.74 130.34 308.16 C 127.54 308.10 121.96 308.00 119.16 307.95 C 118.37 303.97 118.55 299.30 115.88 296.10 C 111.58 297.75 112.47 304.13 112.81 308.05 C 111.17 308.10 107.87 308.19 106.23 308.24 C 104.48 308.14 100.98 307.94 99.23 307.83 C 91.53 307.65 97.38 298.25 93.86 293.95 C 90.40 294.49 87.82 297.32 84.43 297.94 C 80.60 289.09 82.18 305.40 77.95 306.35 L 77.14 306.14 C 74.08 305.49 69.66 301.90 72.70 298.84 C 67.16 296.40 54.88 300.37 47.95 295.06 C 49.99 293.89 52.23 293.15 54.40 292.27 C 59.05 289.04 48.73 284.51 45.71 285.79 L 44.72 285.67 Z" fill="#2e6f9a" opacity="1.00" stroke="#2e6f9a" stroke-width="0.25" data-index="54"></path>
<path d="M 184.28 285.33 C 200.56 286.25 216.81 284.10 233.11 285.14 C 231.96 286.71 231.01 290.24 228.48 288.64 C 225.83 284.39 221.01 288.01 217.33 288.60 C 215.83 285.98 212.81 284.96 210.95 287.87 C 208.15 289.76 207.60 293.25 205.84 295.91 C 196.31 293.93 188.56 286.56 178.10 289.02 C 173.23 289.79 176.05 299.18 171.27 298.79 C 170.12 297.32 167.83 294.37 166.68 292.89 C 163.29 296.26 163.52 301.78 160.04 305.21 C 159.70 299.44 162.06 293.83 165.09 289.05 C 168.41 289.62 169.42 293.26 171.88 294.91 C 173.30 292.09 174.23 288.96 176.33 286.53 C 179.04 286.56 181.71 286.15 184.28 285.33 Z" fill="#438fbb" opacity="1.00" stroke="#438fbb" stroke-width="0.25" data-index="55"></path>
<path d="M 39.92 286.09 C 41.52 285.97 43.12 285.82 44.72 285.67 L 45.71 285.79 C 47.57 289.51 55.41 288.24 54.40 292.27 C 52.23 293.15 49.99 293.89 47.95 295.06 C 54.88 300.37 67.16 296.40 72.70 298.84 C 69.93 299.48 67.07 299.64 64.23 299.77 C 57.72 298.22 49.97 300.23 44.06 296.79 C 42.95 293.64 47.51 293.48 48.00 291.06 C 46.63 287.53 41.97 288.50 39.92 286.09 Z" fill="#a2c4da" opacity="1.00" stroke="#a2c4da" stroke-width="0.25" data-index="56"></path>
<path d="M 45.71 285.79 C 48.73 284.51 59.05 289.04 54.40 292.27 C 55.41 288.24 47.57 289.51 45.71 285.79 Z" fill="#729fbc" opacity="1.00" stroke="#729fbc" stroke-width="0.25" data-index="57"></path>
<path d="M 136.40 294.47 C 131.48 288.76 143.56 281.94 146.72 288.30 C 148.08 296.22 149.27 304.19 149.84 312.21 C 148.50 310.13 149.47 303.48 145.30 305.26 C 139.63 308.08 137.17 315.09 135.81 320.97 C 134.56 321.00 133.30 321.02 132.05 321.03 C 134.94 312.60 136.63 303.30 136.40 294.47 Z" fill="#4895c3" opacity="1.00" stroke="#4895c3" stroke-width="0.25" data-index="58"></path>
<path d="M 341.58 291.08 C 343.53 289.14 345.80 287.57 348.06 286.00 L 348.73 286.16 C 351.36 290.27 362.18 283.47 362.21 290.93 C 355.33 291.03 348.46 290.93 341.58 291.08 Z" fill="#64b0d8" opacity="1.00" stroke="#64b0d8" stroke-width="0.25" data-index="59"></path>
<path d="M 431.77 287.78 C 437.21 287.20 442.68 286.84 448.14 286.28 L 448.31 287.25 C 442.83 288.20 437.27 287.84 431.77 287.78 Z" fill="#6591b4" opacity="1.00" stroke="#6591b4" stroke-width="0.25" data-index="60"></path>
<path d="M 448.31 287.25 C 450.77 287.01 453.25 286.79 455.75 286.57 C 455.21 288.69 453.16 291.17 456.33 292.12 C 453.43 291.78 450.60 291.53 447.74 291.19 C 440.81 290.12 433.78 289.86 426.79 290.12 C 420.49 290.01 414.21 289.95 407.93 290.02 C 403.50 289.16 394.37 291.52 392.16 289.08 C 401.17 288.69 410.25 289.54 419.22 288.21 C 423.40 288.03 427.57 287.92 431.77 287.78 C 437.27 287.84 442.83 288.20 448.31 287.25 Z" fill="#bcdcf0" opacity="1.00" stroke="#bcdcf0" stroke-width="0.25" data-index="61"></path>
<path d="M 205.84 295.91 C 207.60 293.25 208.15 289.76 210.95 287.87 C 209.26 291.87 209.87 297.50 206.08 300.18 C 204.30 299.01 203.02 297.08 201.05 296.27 C 196.72 298.88 190.96 293.30 190.58 300.61 C 187.03 299.37 185.32 304.45 182.25 301.44 C 180.58 304.09 177.41 305.08 175.69 307.64 C 171.38 306.00 170.48 310.98 168.56 313.70 C 165.07 314.25 163.09 309.39 160.15 307.98 C 159.75 312.31 159.30 316.63 158.93 320.97 C 158.43 320.98 157.43 320.98 156.93 320.98 C 158.04 315.74 158.42 310.34 160.04 305.21 C 163.52 301.78 163.29 296.26 166.68 292.89 C 167.83 294.37 170.12 297.32 171.27 298.79 C 176.05 299.18 173.23 289.79 178.10 289.02 C 188.56 286.56 196.31 293.93 205.84 295.91 Z" fill="#4c9cca" opacity="1.00" stroke="#4c9cca" stroke-width="0.25" data-index="62"></path>
<path d="M 407.93 290.02 C 414.21 289.95 420.49 290.01 426.79 290.12 C 438.11 288.04 428.40 296.15 429.97 300.98 C 430.29 303.45 427.33 303.10 425.76 303.88 C 421.14 303.95 416.55 303.96 411.95 303.96 C 410.04 299.49 409.00 294.73 407.93 290.02 Z" fill="#276996" opacity="1.00" stroke="#276996" stroke-width="0.25" data-index="63"></path>
<path d="M 426.79 290.12 C 433.78 289.86 440.81 290.12 447.74 291.19 C 450.24 292.56 457.06 297.00 447.15 295.09 C 442.63 296.63 450.76 295.84 452.87 295.87 C 454.28 296.11 455.68 296.42 457.06 296.78 C 460.77 298.92 457.20 300.57 455.03 302.10 C 447.04 302.80 438.72 301.76 430.92 303.83 C 429.19 303.90 427.47 303.88 425.76 303.88 C 427.33 303.10 430.29 303.45 429.97 300.98 C 428.40 296.15 438.11 288.04 426.79 290.12 Z" fill="#3f82ad" opacity="1.00" stroke="#3f82ad" stroke-width="0.25" data-index="64"></path>
<path d="M 284.82 292.95 C 302.03 290.93 322.21 291.23 340.40 290.94 C 340.17 291.37 339.72 292.24 339.49 292.68 C 321.28 293.40 303.04 292.89 284.82 292.95 Z" fill="#a8eaff" opacity="1.00" stroke="#a8eaff" stroke-width="0.25" data-index="65"></path>
<path d="M 341.58 291.08 C 348.46 290.93 355.33 291.03 362.21 290.93 C 366.21 290.94 370.22 290.99 374.24 291.07 C 371.82 293.39 366.84 291.14 363.80 292.05 C 356.59 290.53 347.74 295.34 341.58 291.08 Z" fill="#acecfe" opacity="1.00" stroke="#acecfe" stroke-width="0.25" data-index="66"></path>
<path d="M 447.74 291.19 C 450.60 291.53 453.43 291.78 456.33 292.12 C 456.18 294.21 454.72 295.28 452.87 295.87 C 450.76 295.84 442.63 296.63 447.15 295.09 C 457.06 297.00 450.24 292.56 447.74 291.19 Z" fill="#83b0cc" opacity="1.00" stroke="#83b0cc" stroke-width="0.25" data-index="67"></path>
<path d="M 456.33 292.12 C 461.64 289.76 459.69 299.39 465.92 296.19 C 469.46 296.36 471.36 299.79 467.56 301.56 C 454.90 304.79 441.66 304.59 428.72 305.84 L 429.29 305.27 C 429.69 304.91 430.51 304.19 430.92 303.83 C 439.01 304.39 447.10 303.85 455.03 302.10 C 457.83 301.12 464.05 302.73 462.57 298.24 C 460.76 297.63 458.91 297.20 457.06 296.78 C 455.68 296.42 454.28 296.11 452.87 295.87 C 454.72 295.28 456.18 294.21 456.33 292.12 Z" fill="#c9ddea" opacity="1.00" stroke="#c9ddea" stroke-width="0.25" data-index="68"></path>
<path d="M 84.43 297.94 C 87.82 297.32 90.40 294.49 93.86 293.95 C 97.38 298.25 91.53 307.65 99.23 307.83 C 92.16 307.31 84.90 307.92 77.95 306.35 C 82.18 305.40 80.60 289.09 84.43 297.94 Z" fill="#4a95c2" opacity="1.00" stroke="#4a95c2" stroke-width="0.25" data-index="69"></path>
<path d="M 244.13 295.30 C 230.70 294.21 260.93 291.16 250.21 296.54 C 254.19 304.67 261.71 301.01 267.44 297.52 C 278.83 291.79 289.11 302.98 300.39 302.30 C 303.75 300.51 305.95 297.13 309.27 295.27 C 320.06 293.84 331.14 295.46 341.21 299.55 C 345.86 300.31 352.09 300.86 354.32 305.86 C 353.57 305.84 352.06 305.80 351.31 305.78 C 346.90 301.25 339.56 304.70 334.93 300.14 C 326.52 297.30 312.87 292.78 305.84 300.83 C 300.92 308.46 290.74 302.64 284.02 300.96 C 275.52 294.66 265.88 301.12 257.85 304.82 C 252.60 304.67 249.32 297.33 243.39 299.34 C 238.11 301.42 234.20 305.88 228.97 308.09 C 232.84 302.59 238.77 299.13 244.13 295.30 Z" fill="#79d5f4" opacity="1.00" stroke="#79d5f4" stroke-width="0.25" data-index="70"></path>
<path d="M 112.81 308.05 C 112.47 304.13 111.58 297.75 115.88 296.10 C 118.55 299.30 118.37 303.97 119.16 307.95 C 117.04 307.99 114.93 308.03 112.81 308.05 Z" fill="#3d85b2" opacity="1.00" stroke="#3d85b2" stroke-width="0.25" data-index="71"></path>
<path d="M 305.84 300.83 C 312.87 292.78 326.52 297.30 334.93 300.14 C 339.56 304.70 346.90 301.25 351.31 305.78 C 349.02 307.49 340.82 303.56 340.98 307.95 C 346.57 308.08 352.17 308.01 357.78 308.09 C 361.89 310.76 363.88 315.55 367.62 318.43 C 372.18 320.72 375.44 314.90 379.93 314.81 C 381.98 321.00 383.62 311.13 384.01 308.01 C 386.64 307.98 389.29 307.98 391.94 308.01 C 390.97 314.31 393.94 312.94 395.25 308.00 C 395.87 308.00 397.11 307.99 397.73 307.98 C 397.70 310.36 398.84 312.54 399.01 314.90 C 397.96 318.84 400.03 321.60 404.10 321.62 C 392.23 322.50 380.33 323.76 368.78 326.74 C 365.59 327.17 362.44 327.83 359.26 328.35 C 346.17 327.27 332.30 328.91 319.74 332.78 C 319.05 332.82 317.68 332.90 317.00 332.94 C 308.20 334.27 297.18 331.31 289.68 335.83 C 302.88 334.97 316.04 336.06 329.23 335.74 C 333.73 335.91 338.24 335.97 342.75 336.19 C 346.15 336.63 356.13 340.68 345.06 340.15 C 342.38 340.89 333.93 339.72 335.08 344.79 C 339.05 347.83 344.97 346.85 348.93 350.13 C 348.38 352.28 345.24 352.68 343.35 353.38 C 315.36 358.55 286.96 360.56 258.68 363.57 C 251.41 363.97 244.28 365.72 237.01 366.04 C 219.00 365.78 200.99 365.11 183.01 364.08 C 178.67 363.22 173.12 365.62 169.62 362.03 C 172.35 357.31 182.77 360.64 180.95 353.18 C 177.38 352.38 166.88 351.49 174.15 348.09 C 185.24 347.86 196.58 347.78 207.43 345.35 C 191.38 344.47 175.33 343.79 159.25 343.80 C 140.66 342.54 122.01 340.92 103.42 340.74 C 103.27 340.36 102.97 339.58 102.82 339.19 C 108.95 341.48 110.46 336.33 112.18 332.06 C 116.07 332.00 119.97 331.99 123.86 332.02 C 124.36 335.87 124.39 341.78 129.85 341.10 C 130.42 338.83 131.54 334.30 132.11 332.04 C 154.68 331.84 177.27 332.21 199.84 331.92 C 187.76 329.74 170.34 331.59 156.10 331.02 C 156.46 328.69 156.79 326.37 157.09 324.05 C 172.07 323.94 186.98 322.44 201.98 322.95 C 201.98 322.48 201.99 321.53 202.00 321.05 C 187.64 320.82 173.28 321.12 158.93 320.97 C 159.30 316.63 159.75 312.31 160.15 307.98 C 163.09 309.39 165.07 314.25 168.56 313.70 C 170.48 310.98 171.38 306.00 175.69 307.64 C 181.62 305.97 188.36 302.36 194.60 306.46 C 199.80 310.26 207.56 303.84 212.31 308.85 C 207.67 311.03 195.22 305.24 193.99 310.99 C 212.40 310.76 230.77 309.44 249.21 309.92 C 243.68 305.37 234.51 310.47 227.79 308.97 C 228.09 308.75 228.68 308.31 228.97 308.09 C 234.20 305.88 238.11 301.42 243.39 299.34 C 249.32 297.33 252.60 304.67 257.85 304.82 C 265.88 301.12 275.52 294.66 284.02 300.96 C 290.74 302.64 300.92 308.46 305.84 300.83 Z" fill="#85e0f8" opacity="1.00" stroke="#85e0f8" stroke-width="0.25" data-index="72"></path>
<path d="M 457.06 296.78 C 458.91 297.20 460.76 297.63 462.57 298.24 C 464.05 302.73 457.83 301.12 455.03 302.10 C 457.20 300.57 460.77 298.92 457.06 296.78 Z" fill="#7ea7c2" opacity="1.00" stroke="#7ea7c2" stroke-width="0.25" data-index="73"></path>
<path d="M 64.23 299.77 C 67.07 299.64 69.93 299.48 72.70 298.84 C 69.66 301.90 74.08 305.49 77.14 306.14 C 70.16 305.39 62.00 307.75 56.22 302.71 C 56.76 301.79 57.40 300.92 58.03 300.06 C 60.10 299.90 62.17 299.89 64.23 299.77 Z" fill="#518baf" opacity="1.00" stroke="#518baf" stroke-width="0.25" data-index="74"></path>
<path d="M 51.09 304.79 C 49.75 300.48 55.32 300.84 58.03 300.06 C 57.40 300.92 56.76 301.79 56.22 302.71 C 62.00 307.75 70.16 305.39 77.14 306.14 L 77.95 306.35 C 84.90 307.92 92.16 307.31 99.23 307.83 C 100.98 307.94 104.48 308.14 106.23 308.24 C 102.42 308.71 98.62 309.19 94.83 309.72 C 87.66 310.04 80.48 310.06 73.31 309.88 C 68.80 302.81 57.10 310.07 51.09 304.79 Z" fill="#bfdded" opacity="1.00" stroke="#bfdded" stroke-width="0.25" data-index="75"></path>
<path d="M 430.92 303.83 C 438.72 301.76 447.04 302.80 455.03 302.10 C 447.10 303.85 439.01 304.39 430.92 303.83 Z" fill="#7eaccb" opacity="1.00" stroke="#7eaccb" stroke-width="0.25" data-index="76"></path>
<path d="M 407.75 304.77 C 409.14 304.45 410.53 304.17 411.95 303.96 C 416.55 303.96 421.14 303.95 425.76 303.88 C 427.47 303.88 429.19 303.90 430.92 303.83 C 430.51 304.19 429.69 304.91 429.29 305.27 C 422.10 305.04 414.92 305.09 407.75 304.77 Z" fill="#84abc4" opacity="1.00" stroke="#84abc4" stroke-width="0.25" data-index="77"></path>
<path d="M 145.30 305.26 C 149.47 303.48 148.50 310.13 149.84 312.21 C 150.44 315.17 151.17 318.10 151.95 321.04 C 146.57 321.03 141.19 321.02 135.81 320.97 C 137.17 315.09 139.63 308.08 145.30 305.26 Z" fill="#72cbef" opacity="1.00" stroke="#72cbef" stroke-width="0.25" data-index="78"></path>
<path d="M 405.18 305.19 C 405.82 305.09 407.11 304.88 407.75 304.77 C 414.92 305.09 422.10 305.04 429.29 305.27 L 428.72 305.84 C 426.49 308.66 418.62 303.36 421.89 309.03 C 413.82 308.86 405.78 308.37 397.73 307.98 C 397.11 307.99 395.87 308.00 395.25 308.00 C 394.42 308.00 392.77 308.01 391.94 308.01 C 389.29 307.98 386.64 307.98 384.01 308.01 C 382.32 307.99 380.63 308.00 378.95 308.02 C 371.89 307.97 364.84 307.94 357.78 308.09 C 352.17 308.01 346.57 308.08 340.98 307.95 C 340.82 303.56 349.02 307.49 351.31 305.78 C 352.06 305.80 353.57 305.84 354.32 305.86 C 371.26 305.72 388.31 306.92 405.18 305.19 Z" fill="#d8f5fb" opacity="1.00" stroke="#d8f5fb" stroke-width="0.25" data-index="79"></path>
<path d="M 106.23 308.24 C 107.87 308.19 111.17 308.10 112.81 308.05 C 114.93 308.03 117.04 307.99 119.16 307.95 C 121.96 308.00 127.54 308.10 130.34 308.16 C 127.80 311.74 122.50 309.12 119.02 310.00 C 117.02 309.95 115.01 309.95 113.00 309.99 C 106.94 310.00 100.89 309.95 94.83 309.72 C 98.62 309.19 102.42 308.71 106.23 308.24 Z" fill="#87b9db" opacity="1.00" stroke="#87b9db" stroke-width="0.25" data-index="80"></path>
<path d="M 227.79 308.97 C 234.51 310.47 243.68 305.37 249.21 309.92 C 230.77 309.44 212.40 310.76 193.99 310.99 C 195.22 305.24 207.67 311.03 212.31 308.85 C 217.46 309.15 222.62 309.01 227.79 308.97 Z" fill="#b4f6ff" opacity="1.00" stroke="#b4f6ff" stroke-width="0.25" data-index="81"></path>
<path d="M 357.78 308.09 C 364.84 307.94 371.89 307.97 378.95 308.02 C 379.36 310.27 379.77 312.52 379.93 314.81 C 375.44 314.90 372.18 320.72 367.62 318.43 C 363.88 315.55 361.89 310.76 357.78 308.09 Z" fill="#70cbed" opacity="1.00" stroke="#70cbed" stroke-width="0.25" data-index="82"></path>
<path d="M 378.95 308.02 C 380.63 308.00 382.32 307.99 384.01 308.01 C 383.62 311.13 381.98 321.00 379.93 314.81 C 379.77 312.52 379.36 310.27 378.95 308.02 Z" fill="#55a7ca" opacity="1.00" stroke="#55a7ca" stroke-width="0.25" data-index="83"></path>
<path d="M 391.94 308.01 C 392.77 308.01 394.42 308.00 395.25 308.00 C 393.94 312.94 390.97 314.31 391.94 308.01 Z" fill="#5eaecc" opacity="1.00" stroke="#5eaecc" stroke-width="0.25" data-index="84"></path>
<path d="M 397.73 307.98 C 405.78 308.37 413.82 308.86 421.89 309.03 C 422.35 309.08 423.29 309.16 423.76 309.20 C 424.80 309.75 426.42 309.68 426.99 310.89 C 419.57 313.53 411.98 307.73 404.48 311.42 C 394.99 311.04 401.06 312.76 403.15 313.73 C 401.75 314.06 400.37 314.46 399.01 314.90 C 398.84 312.54 397.70 310.36 397.73 307.98 Z" fill="#8ab5cc" opacity="1.00" stroke="#8ab5cc" stroke-width="0.25" data-index="85"></path>
<path d="M 423.76 309.20 C 425.79 310.39 433.65 306.72 432.88 310.82 C 426.52 314.90 418.16 312.21 411.03 313.02 C 414.44 316.14 427.51 312.98 427.94 319.83 C 419.99 321.37 411.88 322.01 404.01 323.84 C 392.22 322.70 380.62 326.71 368.78 326.74 C 380.33 323.76 392.23 322.50 404.10 321.62 C 409.74 320.68 415.33 319.48 421.02 318.78 C 418.51 313.14 408.56 316.58 403.15 313.73 C 401.06 312.76 394.99 311.04 404.48 311.42 C 411.98 307.73 419.57 313.53 426.99 310.89 C 426.42 309.68 424.80 309.75 423.76 309.20 Z" fill="#c2dfed" opacity="1.00" stroke="#c2dfed" stroke-width="0.25" data-index="86"></path>
<path d="M 58.09 311.23 C 62.46 309.15 67.57 310.18 72.26 309.96 L 71.81 310.87 C 67.08 309.76 60.23 310.46 62.50 316.60 C 67.08 316.65 71.53 317.87 76.05 318.44 C 83.09 319.54 90.26 319.44 97.27 320.69 C 96.73 320.74 95.65 320.84 95.11 320.89 C 83.77 321.63 72.41 320.01 61.34 317.63 C 58.90 316.67 55.49 315.09 58.09 311.23 Z" fill="#b9d5e6" opacity="1.00" stroke="#b9d5e6" stroke-width="0.25" data-index="87"></path>
<path d="M 72.26 309.96 L 73.31 309.88 C 80.48 310.06 87.66 310.04 94.83 309.72 C 97.53 313.68 95.14 322.86 103.02 320.07 C 110.97 323.39 111.62 315.02 113.00 309.99 C 115.01 309.95 117.02 309.95 119.02 310.00 C 120.44 313.64 121.58 317.37 122.98 321.03 C 114.42 320.83 105.81 321.45 97.27 320.69 C 90.26 319.44 83.09 319.54 76.05 318.44 C 80.19 318.64 79.34 314.00 79.96 311.08 C 77.25 311.00 74.53 310.93 71.81 310.87 L 72.26 309.96 Z" fill="#569ec8" opacity="1.00" stroke="#569ec8" stroke-width="0.25" data-index="88"></path>
<path d="M 94.83 309.72 C 100.89 309.95 106.94 310.00 113.00 309.99 C 111.62 315.02 110.97 323.39 103.02 320.07 C 95.14 322.86 97.53 313.68 94.83 309.72 Z" fill="#3075a0" opacity="1.00" stroke="#3075a0" stroke-width="0.25" data-index="89"></path>
<path d="M 62.50 316.60 C 60.23 310.46 67.08 309.76 71.81 310.87 C 69.43 314.63 73.33 316.67 76.05 318.44 C 71.53 317.87 67.08 316.65 62.50 316.60 Z" fill="#73a7c8" opacity="1.00" stroke="#73a7c8" stroke-width="0.25" data-index="90"></path>
<path d="M 71.81 310.87 C 74.53 310.93 77.25 311.00 79.96 311.08 C 79.34 314.00 80.19 318.64 76.05 318.44 C 73.33 316.67 69.43 314.63 71.81 310.87 Z" fill="#3b7aa3" opacity="1.00" stroke="#3b7aa3" stroke-width="0.25" data-index="91"></path>
<path d="M 294.42 312.59 C 299.15 313.11 306.95 309.19 310.23 313.92 C 293.48 314.08 276.74 314.00 260.00 313.98 C 269.61 311.32 283.19 314.29 294.42 312.59 Z" fill="#bcfafe" opacity="1.00" stroke="#bcfafe" stroke-width="0.25" data-index="92"></path>
<path d="M 399.01 314.90 C 400.37 314.46 401.75 314.06 403.15 313.73 C 408.56 316.58 418.51 313.14 421.02 318.78 C 415.33 319.48 409.74 320.68 404.10 321.62 C 400.03 321.60 397.96 318.84 399.01 314.90 Z" fill="#619dc1" opacity="1.00" stroke="#619dc1" stroke-width="0.25" data-index="93"></path>
<path d="M 95.11 320.89 C 95.65 320.84 96.73 320.74 97.27 320.69 C 105.81 321.45 114.42 320.83 122.98 321.03 C 126.01 321.07 129.02 321.04 132.05 321.03 C 133.30 321.02 134.56 321.00 135.81 320.97 C 141.19 321.02 146.57 321.03 151.95 321.04 C 153.61 321.04 155.27 321.02 156.93 320.98 C 157.43 320.98 158.43 320.98 158.93 320.97 C 173.28 321.12 187.64 320.82 202.00 321.05 C 201.99 321.53 201.98 322.48 201.98 322.95 C 186.98 322.44 172.07 323.94 157.09 324.05 C 155.35 324.02 153.61 324.01 151.87 324.02 C 145.95 323.97 140.04 323.95 134.13 324.03 C 126.89 323.99 119.65 323.99 112.41 323.99 C 109.88 318.27 97.21 325.29 95.11 320.89 Z" fill="#c9f2fb" opacity="1.00" stroke="#c9f2fb" stroke-width="0.25" data-index="94"></path>
<path d="M 265.97 321.01 C 278.63 321.03 291.30 320.86 303.96 321.05 C 293.99 322.08 276.03 323.48 265.97 321.01 Z" fill="#b5faff" opacity="1.00" stroke="#b5faff" stroke-width="0.25" data-index="95"></path>
<path d="M 368.78 326.74 C 380.62 326.71 392.22 322.70 404.01 323.84 C 387.79 328.79 365.31 326.21 348.89 333.82 C 358.58 336.77 370.59 333.29 378.84 340.15 C 375.59 346.80 365.67 342.34 360.22 346.07 C 360.88 347.92 364.84 347.82 364.83 350.79 C 360.08 356.92 351.09 355.16 344.37 357.35 C 335.79 357.74 327.27 360.88 318.67 359.62 C 331.24 356.64 344.76 356.82 356.89 351.74 C 357.47 344.08 342.26 349.92 343.02 343.18 C 350.90 342.29 358.85 342.29 366.75 341.76 C 368.86 341.23 367.50 339.42 366.26 338.80 C 358.93 335.49 350.59 335.94 342.75 336.19 C 338.24 335.97 333.73 335.91 329.23 335.74 C 326.53 333.81 314.58 337.82 317.00 332.94 C 317.68 332.90 319.05 332.82 319.74 332.78 C 332.98 332.57 346.25 330.84 359.26 328.35 C 362.44 327.83 365.59 327.17 368.78 326.74 Z" fill="#def7fc" opacity="1.00" stroke="#def7fc" stroke-width="0.25" data-index="96"></path>
<path d="M 72.11 327.07 C 85.25 324.10 98.98 324.21 112.41 323.99 L 111.86 324.88 C 108.25 324.94 104.65 324.89 101.05 325.03 C 91.98 326.05 82.37 325.52 73.74 328.77 C 70.27 330.54 73.65 333.22 75.01 335.21 C 71.33 335.33 67.80 334.25 65.13 331.75 C 64.08 327.77 69.75 328.58 72.11 327.07 Z" fill="#acd7eb" opacity="1.00" stroke="#acd7eb" stroke-width="0.25" data-index="97"></path>
<path d="M 112.41 323.99 C 119.65 323.99 126.89 323.99 134.13 324.03 L 133.85 324.89 C 128.34 323.75 118.75 324.57 125.05 330.84 C 120.67 329.90 116.24 330.81 111.83 330.95 C 116.99 329.86 119.08 322.86 111.86 324.88 L 112.41 323.99 Z" fill="#75bada" opacity="1.00" stroke="#75bada" stroke-width="0.25" data-index="98"></path>
<path d="M 134.13 324.03 C 140.04 323.95 145.95 323.97 151.87 324.02 C 152.18 326.36 152.64 328.67 153.07 330.99 C 146.06 330.98 139.05 331.03 132.04 331.05 C 132.72 329.02 133.26 326.94 133.85 324.89 L 134.13 324.03 Z" fill="#87dcf3" opacity="1.00" stroke="#87dcf3" stroke-width="0.25" data-index="99"></path>
<path d="M 151.87 324.02 C 153.61 324.01 155.35 324.02 157.09 324.05 C 156.79 326.37 156.46 328.69 156.10 331.02 C 155.35 331.01 153.83 331.00 153.07 330.99 C 152.64 328.67 152.18 326.36 151.87 324.02 Z" fill="#4892b2" opacity="1.00" stroke="#4892b2" stroke-width="0.25" data-index="100"></path>
<path d="M 73.74 328.77 C 82.37 325.52 91.98 326.05 101.05 325.03 C 98.41 326.27 99.19 328.81 100.01 331.01 C 98.29 330.98 94.87 330.92 93.15 330.89 C 89.12 324.28 86.04 331.68 85.62 336.19 C 82.07 336.09 78.45 336.23 75.01 335.21 C 73.65 333.22 70.27 330.54 73.74 328.77 Z" fill="#74bcdf" opacity="1.00" stroke="#74bcdf" stroke-width="0.25" data-index="101"></path>
<path d="M 101.05 325.03 C 104.65 324.89 108.25 324.94 111.86 324.88 C 119.08 322.86 116.99 329.86 111.83 330.95 C 107.89 331.04 103.94 331.06 100.01 331.01 C 99.19 328.81 98.41 326.27 101.05 325.03 Z" fill="#498eb8" opacity="1.00" stroke="#498eb8" stroke-width="0.25" data-index="102"></path>
<path d="M 125.05 330.84 C 118.75 324.57 128.34 323.75 133.85 324.89 C 133.26 326.94 132.72 329.02 132.04 331.05 C 130.29 331.00 126.80 330.89 125.05 330.84 Z" fill="#3d85ab" opacity="1.00" stroke="#3d85ab" stroke-width="0.25" data-index="103"></path>
<path d="M 61.99 328.98 C 65.00 328.21 70.28 324.59 72.11 327.07 C 69.75 328.58 64.08 327.77 65.13 331.75 C 67.80 334.25 71.33 335.33 75.01 335.21 C 78.45 336.23 82.07 336.09 85.62 336.19 C 91.41 336.86 97.13 337.94 102.82 339.19 C 102.97 339.58 103.27 340.36 103.42 340.74 C 122.01 340.92 140.66 342.54 159.25 343.80 C 127.62 343.99 95.61 342.45 64.66 335.45 C 60.54 336.24 57.67 330.61 61.99 328.98 Z" fill="#c9edf7" opacity="1.00" stroke="#c9edf7" stroke-width="0.25" data-index="104"></path>
<path d="M 319.74 332.78 C 332.30 328.91 346.17 327.27 359.26 328.35 C 346.25 330.84 332.98 332.57 319.74 332.78 Z" fill="#ade9f8" opacity="1.00" stroke="#ade9f8" stroke-width="0.25" data-index="105"></path>
<path d="M 85.62 336.19 C 86.04 331.68 89.12 324.28 93.15 330.89 C 95.16 331.72 97.35 332.13 99.74 332.14 C 100.33 334.66 101.49 336.98 102.82 339.19 C 97.13 337.94 91.41 336.86 85.62 336.19 Z" fill="#87daf4" opacity="1.00" stroke="#87daf4" stroke-width="0.25" data-index="106"></path>
<path d="M 111.83 330.95 C 116.24 330.81 120.67 329.90 125.05 330.84 C 126.80 330.89 130.29 331.00 132.04 331.05 C 139.05 331.03 146.06 330.98 153.07 330.99 C 153.83 331.00 155.35 331.01 156.10 331.02 C 170.34 331.59 187.76 329.74 199.84 331.92 C 177.27 332.21 154.68 331.84 132.11 332.04 C 129.36 332.00 126.61 332.00 123.86 332.02 C 119.97 331.99 116.07 332.00 112.18 332.06 C 108.03 332.05 103.88 332.08 99.74 332.14 C 97.35 332.13 95.16 331.72 93.15 330.89 C 94.87 330.92 98.29 330.98 100.01 331.01 C 103.94 331.06 107.89 331.04 111.83 330.95 Z" fill="#b5f6fe" opacity="1.00" stroke="#b5f6fe" stroke-width="0.25" data-index="107"></path>
<path d="M 99.74 332.14 C 103.88 332.08 108.03 332.05 112.18 332.06 C 110.46 336.33 108.95 341.48 102.82 339.19 C 101.49 336.98 100.33 334.66 99.74 332.14 Z" fill="#5199c1" opacity="1.00" stroke="#5199c1" stroke-width="0.25" data-index="108"></path>
<path d="M 123.86 332.02 C 126.61 332.00 129.36 332.00 132.11 332.04 C 131.54 334.30 130.42 338.83 129.85 341.10 C 124.39 341.78 124.36 335.87 123.86 332.02 Z" fill="#448fb4" opacity="1.00" stroke="#448fb4" stroke-width="0.25" data-index="109"></path>
<path d="M 289.68 335.83 C 297.18 331.31 308.20 334.27 317.00 332.94 C 314.58 337.82 326.53 333.81 329.23 335.74 C 316.04 336.06 302.88 334.97 289.68 335.83 Z" fill="#b6f1fa" opacity="1.00" stroke="#b6f1fa" stroke-width="0.25" data-index="110"></path>
<path d="M 342.75 336.19 C 350.59 335.94 358.93 335.49 366.26 338.80 C 367.50 339.42 368.86 341.23 366.75 341.76 C 358.85 342.29 350.90 342.29 343.02 343.18 C 342.26 349.92 357.47 344.08 356.89 351.74 C 344.76 356.82 331.24 356.64 318.67 359.62 C 298.68 359.95 278.71 364.40 258.68 363.57 C 286.96 360.56 315.36 358.55 343.35 353.38 C 345.24 352.68 348.38 352.28 348.93 350.13 C 344.97 346.85 339.05 347.83 335.08 344.79 C 333.93 339.72 342.38 340.89 345.06 340.15 C 356.13 340.68 346.15 336.63 342.75 336.19 Z" fill="#aee9f7" opacity="1.00" stroke="#aee9f7" stroke-width="0.25" data-index="111"></path>
<path d="M 159.25 343.80 C 175.33 343.79 191.38 344.47 207.43 345.35 C 196.58 347.78 185.24 347.86 174.15 348.09 C 172.86 348.05 171.57 348.00 170.28 347.95 C 169.63 342.91 159.43 348.16 159.25 343.80 Z" fill="#d4f8fd" opacity="1.00" stroke="#d4f8fd" stroke-width="0.25" data-index="112"></path>
<path d="M 301.97 345.00 C 311.63 345.05 321.30 344.80 330.96 345.06 C 324.00 345.91 309.03 347.75 301.97 345.00 Z" fill="#aefaff" opacity="1.00" stroke="#aefaff" stroke-width="0.25" data-index="113"></path>
<path d="M 144.77 349.13 C 153.21 347.91 161.76 347.90 170.28 347.95 C 171.57 348.00 172.86 348.05 174.15 348.09 C 166.88 351.49 177.38 352.38 180.95 353.18 C 182.77 360.64 172.35 357.31 169.62 362.03 C 173.12 365.62 178.67 363.22 183.01 364.08 C 200.99 365.11 219.00 365.78 237.01 366.04 C 236.17 368.91 229.82 366.22 227.00 367.00 C 206.34 367.37 185.73 366.75 165.12 365.83 C 162.68 365.36 158.89 364.52 160.04 361.20 C 164.55 358.17 170.56 358.90 175.06 355.88 C 167.88 347.77 149.69 358.85 144.77 349.13 Z" fill="#aee9f8" opacity="1.00" stroke="#aee9f8" stroke-width="0.25" data-index="114"></path>
<path d="M 130.07 352.76 C 129.85 346.66 140.68 349.78 144.77 349.13 C 149.69 358.85 167.88 347.77 175.06 355.88 C 170.56 358.90 164.55 358.17 160.04 361.20 C 158.89 364.52 162.68 365.36 165.12 365.83 C 185.73 366.75 206.34 367.37 227.00 367.00 C 213.96 369.40 196.66 367.28 182.00 368.01 C 172.24 367.32 161.08 369.59 152.04 364.82 C 152.37 358.92 161.75 359.57 163.81 356.20 C 153.35 353.44 141.06 355.68 130.07 352.76 Z" fill="#d8f4fb" opacity="1.00" stroke="#d8f4fb" stroke-width="0.25" data-index="115"></path>
<path d="M 225.77 354.09 C 234.56 353.92 243.35 353.91 252.15 354.06 C 247.28 359.12 237.46 354.36 230.99 356.05 C 228.98 356.09 226.70 356.27 225.77 354.09 Z" fill="#adeffe" opacity="1.00" stroke="#adeffe" stroke-width="0.25" data-index="116"></path>
</svg>