<svg xmlns="http://www.w3.org/2000/svg" height="512pt" version="1.1" viewBox="0 0 512 512" width="512pt">
<path d="M 0.00 0.00 L 512.00 0.00 L 512.00 512.00 L 0.00 512.00 L 0.00 0.00 Z" fill="transparent" opacity="1.00" stroke="transparent" stroke-width="0.25" data-index="0" style="opacity: 1;"></path>
<path d="M 268.10 144.08 C 275.50 135.40 283.80 126.50 294.97 122.90 C 298.59 121.63 302.82 122.83 304.80 126.21 C 311.39 136.52 312.30 149.36 311.40 161.26 C 309.46 175.10 299.74 187.46 287.03 193.09 C 276.07 198.69 265.67 205.26 255.46 212.11 C 259.70 213.48 263.85 215.11 267.91 216.97 C 276.06 213.00 284.01 208.51 292.59 205.45 C 306.61 200.39 321.18 196.76 335.99 194.97 C 350.90 193.42 366.86 194.89 379.75 203.17 C 385.52 207.01 391.35 211.99 393.15 218.98 C 394.73 226.80 390.82 234.87 384.94 239.93 C 374.21 249.76 359.35 253.77 345.06 253.80 C 334.71 253.95 324.47 252.21 314.21 251.13 C 320.23 258.78 325.56 267.09 329.25 276.12 C 329.10 277.49 328.83 278.84 328.42 280.15 C 324.48 270.77 319.60 261.70 313.30 253.69 C 311.15 250.54 307.21 249.88 303.72 249.31 C 305.91 248.92 308.07 248.42 310.26 248.05 C 327.35 250.24 345.01 253.72 362.04 249.22 C 372.00 246.55 381.75 241.37 387.89 232.86 C 391.56 227.79 392.65 220.49 388.87 215.16 C 381.40 204.41 368.37 199.02 355.74 197.47 C 344.92 195.58 333.95 197.56 323.29 199.50 C 312.50 201.86 301.69 204.37 291.42 208.49 C 277.73 214.10 264.58 221.08 252.36 229.42 C 249.87 231.17 247.01 233.57 247.07 236.88 C 246.95 239.09 249.57 239.27 251.11 239.89 C 258.09 241.67 265.30 242.20 272.36 243.58 L 271.68 245.20 C 264.88 244.73 258.06 244.08 251.42 242.49 C 249.01 241.82 246.26 241.07 244.88 238.79 C 243.59 235.28 245.86 231.72 248.43 229.47 C 253.37 225.25 259.24 222.32 264.62 218.73 C 253.04 212.14 238.98 211.33 225.98 212.72 C 222.37 213.65 217.08 214.01 216.02 218.36 C 215.12 217.36 214.21 216.36 213.25 215.43 C 218.73 211.29 225.75 209.95 232.45 209.34 C 241.79 186.36 252.55 163.60 268.10 144.08 Z" fill="#02293d" opacity="1.00" stroke="#02293d" stroke-width="0.25" data-index="1" style="opacity: 1;"></path>
<path d="M 291.13 127.06 C 293.80 125.78 296.79 124.23 299.83 124.91 C 304.06 127.57 305.53 132.72 307.00 137.20 C 309.96 148.17 310.83 160.42 305.99 171.00 C 303.52 176.77 299.06 181.35 294.57 185.61 C 289.99 189.31 284.45 191.53 279.39 194.48 C 269.80 199.40 261.03 205.70 251.91 211.39 C 250.00 211.28 248.18 210.62 246.35 210.18 L 246.99 209.30 C 254.82 197.93 263.84 186.76 276.24 180.16 C 280.42 177.88 285.21 176.76 289.97 177.30 C 291.94 177.23 294.50 178.18 295.80 176.13 C 290.42 174.24 284.46 174.17 279.11 176.17 C 274.93 177.61 271.34 180.22 267.70 182.64 C 273.60 174.94 280.00 167.64 286.08 160.08 C 288.53 156.96 291.21 153.81 292.16 149.85 C 289.11 151.92 287.17 155.09 284.95 157.93 C 271.84 174.10 257.87 189.62 245.86 206.65 C 245.15 207.67 244.44 208.70 243.74 209.73 C 240.87 209.59 238.00 209.49 235.14 209.27 C 243.53 188.94 252.83 168.74 265.89 150.93 C 272.71 141.53 280.83 132.68 291.13 127.06 Z" fill="#8fe8fd" opacity="1.00" stroke="#8fe8fd" stroke-width="0.25" data-index="2" style="opacity: 1;"></path>
<path d="M 287.84 140.85 C 289.93 138.77 290.96 135.36 294.03 134.49 C 293.20 136.94 291.86 139.18 290.14 141.11 C 280.07 152.72 270.57 164.82 259.89 175.90 C 253.93 183.91 249.50 192.95 244.55 201.60 C 243.88 202.66 242.78 203.33 241.83 204.10 C 243.66 197.51 247.76 191.86 250.91 185.86 C 253.64 180.80 256.46 175.68 260.66 171.66 C 270.39 161.99 278.44 150.82 287.84 140.85 Z" fill="#003251" opacity="1.00" stroke="#003251" stroke-width="0.25" data-index="3" style="opacity: 1;"></path>
<path d="M 162.40 147.38 C 165.41 143.93 170.50 142.51 174.85 143.97 C 178.79 145.32 182.00 148.31 184.23 151.76 C 188.57 158.68 191.35 166.48 192.96 174.45 C 191.70 176.29 190.47 178.13 189.24 179.98 C 187.13 171.77 185.53 163.24 181.31 155.77 C 179.37 152.47 176.82 149.05 172.93 148.03 C 169.27 146.86 165.33 149.27 163.60 152.47 C 162.89 155.27 162.73 158.84 165.01 160.98 C 166.76 162.74 169.40 163.81 171.87 163.10 C 174.08 162.07 175.89 160.30 178.28 159.65 C 179.34 164.98 172.52 168.28 167.96 167.07 C 159.18 165.78 156.40 153.24 162.40 147.38 Z" fill="#082d4a" opacity="1.00" stroke="#082d4a" stroke-width="0.25" data-index="4"></path>
<path d="M 284.95 157.93 C 287.17 155.09 289.11 151.92 292.16 149.85 C 291.21 153.81 288.53 156.96 286.08 160.08 C 280.00 167.64 273.60 174.94 267.70 182.64 C 271.34 180.22 274.93 177.61 279.11 176.17 C 284.46 174.17 290.42 174.24 295.80 176.13 C 294.50 178.18 291.94 177.23 289.97 177.30 C 285.21 176.76 280.42 177.88 276.24 180.16 C 263.84 186.76 254.82 197.93 246.99 209.30 C 246.71 208.64 246.15 207.31 245.86 206.65 C 257.87 189.62 271.84 174.10 284.95 157.93 Z" fill="#033658" opacity="1.00" stroke="#033658" stroke-width="0.25" data-index="5" style="opacity: 1;"></path>
<path d="M 189.24 179.98 C 190.47 178.13 191.70 176.29 192.96 174.45 C 195.93 185.50 196.71 196.97 197.45 208.34 C 203.05 209.84 208.39 212.28 213.25 215.43 C 214.21 216.36 215.12 217.36 216.02 218.36 C 228.45 229.58 227.96 250.16 217.78 262.67 C 215.22 266.20 211.56 268.63 208.42 271.57 C 208.12 272.68 208.75 273.68 209.35 274.56 C 213.38 280.38 219.11 284.76 225.19 288.25 C 231.39 284.28 234.71 276.75 241.59 273.87 C 242.53 275.83 243.83 277.74 244.00 279.98 C 242.54 284.33 239.62 288.03 238.16 292.40 C 248.97 293.59 261.05 292.11 269.19 284.21 C 278.84 274.44 281.63 259.92 280.67 246.64 C 277.66 246.20 274.68 245.68 271.68 245.20 L 272.36 243.58 C 275.45 243.51 278.55 243.74 281.62 244.17 C 291.16 245.52 300.75 246.48 310.26 248.05 C 308.07 248.42 305.91 248.92 303.72 249.31 C 301.99 249.38 300.27 249.44 298.55 249.51 C 296.23 265.45 290.20 281.16 279.16 293.12 C 283.45 295.76 288.52 297.23 292.26 300.70 C 294.05 304.00 293.59 308.03 294.58 311.61 C 309.29 305.73 320.86 293.87 328.42 280.15 C 328.83 278.84 329.10 277.49 329.25 276.12 C 337.72 295.32 340.69 317.19 336.77 337.85 C 335.74 341.14 335.64 345.78 331.96 347.28 C 328.87 347.73 325.72 347.26 322.72 346.48 C 312.70 343.81 303.43 338.73 295.38 332.23 C 295.53 348.49 295.38 364.75 295.21 381.00 C 295.11 384.09 295.69 387.79 292.93 389.97 C 291.73 388.86 290.63 387.62 290.39 385.96 C 287.67 375.67 284.44 365.54 281.54 355.32 C 279.41 348.67 281.84 341.75 282.19 335.00 C 282.29 330.39 283.61 325.75 283.08 321.17 C 277.77 316.23 274.02 309.93 268.89 304.85 C 266.96 314.91 264.20 324.82 260.57 334.40 C 259.32 338.15 256.61 341.13 253.75 343.75 C 246.95 349.94 240.50 356.50 233.74 362.73 C 230.71 365.53 228.24 368.92 224.93 371.40 C 222.36 371.31 223.02 368.43 224.05 367.01 C 235.60 346.77 249.87 328.09 259.66 306.86 C 256.54 303.08 253.54 299.21 250.97 295.04 C 246.31 295.44 241.64 295.30 237.00 294.79 C 234.58 296.37 233.43 299.35 231.22 301.23 C 224.25 307.40 216.35 312.38 208.77 317.74 C 204.58 320.55 202.33 325.33 198.29 328.29 C 192.50 332.56 186.61 336.68 180.62 340.67 C 177.60 342.57 174.84 345.25 171.17 345.77 C 171.39 344.32 171.79 342.90 172.80 341.80 C 180.36 332.36 187.84 322.84 195.43 313.43 C 204.94 305.65 215.89 299.44 224.08 290.12 C 221.27 288.57 218.67 286.67 215.85 285.17 C 214.13 285.14 212.81 286.62 211.31 287.31 C 207.06 290.13 201.92 291.00 197.50 293.45 C 192.39 297.99 188.43 303.78 182.92 307.89 C 178.33 310.33 173.23 311.60 168.28 313.15 C 164.46 314.16 160.63 315.68 156.60 315.36 C 156.67 314.82 156.81 313.73 156.88 313.19 C 166.73 307.11 176.56 300.88 185.46 293.43 C 189.46 290.11 192.99 286.10 197.67 283.70 C 201.17 281.80 204.73 280.00 208.10 277.87 C 208.34 276.13 206.46 274.86 205.82 273.35 C 198.49 276.72 190.98 280.08 182.82 280.74 C 164.63 283.12 145.77 276.00 133.03 262.94 C 132.19 262.02 130.49 260.53 132.07 259.40 C 137.94 253.51 143.02 246.77 146.43 239.16 C 149.59 232.37 152.98 225.57 158.24 220.12 C 159.37 221.54 160.37 223.10 161.81 224.24 C 164.26 225.41 167.89 224.47 168.54 221.56 C 169.73 218.78 167.72 216.18 166.11 214.10 C 167.85 213.04 169.59 211.95 171.10 210.57 C 172.10 209.69 173.11 208.82 174.12 207.97 C 176.50 209.52 179.26 208.46 181.79 208.03 C 185.23 207.29 188.77 207.40 192.27 207.41 C 192.03 198.20 190.69 189.07 189.24 179.98 Z" fill="#042f51" opacity="1.00" stroke="#042f51" stroke-width="0.25" data-index="6" style="opacity: 1;"></path>
<path d="M 118.61 196.00 C 118.35 190.07 123.41 184.82 129.13 183.99 C 135.79 182.78 142.39 185.21 148.50 187.62 C 158.51 192.10 167.83 198.92 174.12 207.97 C 173.11 208.82 172.10 209.69 171.10 210.57 C 167.67 207.80 164.85 204.36 161.48 201.52 C 153.85 195.25 144.81 190.45 135.04 188.65 C 130.61 187.91 125.21 188.77 123.00 193.18 C 120.45 198.63 125.94 205.33 131.79 203.69 C 136.81 203.07 137.16 197.19 137.56 193.25 C 138.55 193.31 139.54 193.38 140.54 193.45 C 140.62 196.26 141.28 199.36 139.74 201.91 C 137.88 205.03 134.91 208.24 130.94 207.93 C 124.36 208.65 118.23 202.54 118.61 196.00 Z" fill="#0a2e4d" opacity="1.00" stroke="#0a2e4d" stroke-width="0.25" data-index="7" style="opacity: 1;"></path>
<path d="M 323.29 199.50 C 333.95 197.56 344.92 195.58 355.74 197.47 C 368.37 199.02 381.40 204.41 388.87 215.16 C 392.65 220.49 391.56 227.79 387.89 232.86 C 381.75 241.37 372.00 246.55 362.04 249.22 C 345.01 253.72 327.35 250.24 310.26 248.05 C 300.75 246.48 291.16 245.52 281.62 244.17 C 278.55 243.74 275.45 243.51 272.36 243.58 C 265.30 242.20 258.09 241.67 251.11 239.89 C 249.57 239.27 246.95 239.09 247.07 236.88 C 247.01 233.57 249.87 231.17 252.36 229.42 C 264.58 221.08 277.73 214.10 291.42 208.49 C 301.69 204.37 312.50 201.86 323.29 199.50 Z" fill="#90e9fe" opacity="1.00" stroke="#90e9fe" stroke-width="0.25" data-index="8"></path>
<path d="M 361.02 205.09 C 362.80 204.03 364.66 203.08 366.66 202.48 C 365.49 205.65 362.00 206.74 359.37 208.39 C 349.69 213.84 338.50 215.33 327.67 216.82 C 311.29 218.69 294.07 217.84 278.71 224.71 C 274.65 226.39 270.50 227.86 266.56 229.81 C 284.66 229.55 302.68 227.53 320.74 226.39 C 332.66 225.64 344.44 223.55 356.11 221.13 C 355.22 223.48 352.43 223.69 350.37 224.42 C 340.28 227.02 329.87 228.08 319.53 229.09 C 324.72 231.87 330.44 234.04 334.46 238.53 C 337.23 241.68 340.13 245.05 341.02 249.26 C 339.32 248.61 338.22 247.19 337.30 245.69 C 330.85 235.21 318.16 229.29 306.00 230.17 C 293.34 230.70 280.72 231.81 268.08 232.67 C 263.59 232.89 259.10 234.13 254.59 233.52 C 253.26 231.54 256.12 231.14 257.37 230.42 C 269.69 225.90 281.77 220.76 294.00 216.02 C 298.92 214.09 303.91 212.27 308.47 209.57 C 311.75 207.81 314.62 205.31 318.13 203.98 C 317.37 206.74 314.63 207.99 312.50 209.53 C 308.30 212.43 303.66 214.59 299.01 216.63 C 311.34 215.58 323.72 214.93 335.98 213.13 C 344.68 211.85 353.39 209.58 361.02 205.09 Z" fill="#013455" opacity="1.00" stroke="#013455" stroke-width="0.25" data-index="9"></path>
<path d="M 216.02 218.36 C 217.08 214.01 222.37 213.65 225.98 212.72 C 238.98 211.33 253.04 212.14 264.62 218.73 C 259.24 222.32 253.37 225.25 248.43 229.47 C 245.86 231.72 243.59 235.28 244.88 238.79 C 246.26 241.07 249.01 241.82 251.42 242.49 C 258.06 244.08 264.88 244.73 271.68 245.20 C 274.68 245.68 277.66 246.20 280.67 246.64 C 281.63 259.92 278.84 274.44 269.19 284.21 C 261.05 292.11 248.97 293.59 238.16 292.40 C 239.62 288.03 242.54 284.33 244.00 279.98 C 243.83 277.74 242.53 275.83 241.59 273.87 C 234.71 276.75 231.39 284.28 225.19 288.25 C 219.11 284.76 213.38 280.38 209.35 274.56 C 208.75 273.68 208.12 272.68 208.42 271.57 C 211.56 268.63 215.22 266.20 217.78 262.67 C 227.96 250.16 228.45 229.58 216.02 218.36 Z" fill="#feb415" opacity="1.00" stroke="#feb415" stroke-width="0.25" data-index="10" style="opacity: 1;"></path>
<path d="M 194.36 230.35 C 198.14 228.97 203.14 231.77 202.69 236.10 C 203.22 240.78 197.39 244.36 193.50 241.73 C 189.10 239.39 189.29 231.71 194.36 230.35 Z" fill="#fcfefe" opacity="1.00" stroke="#fcfefe" stroke-width="0.25" data-index="11"></path>
<path d="M 281.41 232.90 C 286.80 233.13 291.96 234.85 297.25 235.82 C 304.36 237.38 311.83 238.15 318.35 241.64 C 320.96 243.07 323.87 244.53 325.13 247.42 C 320.25 245.63 316.06 242.25 310.94 241.00 C 302.04 238.71 292.92 237.29 284.01 234.98 C 282.72 234.80 281.85 234.11 281.41 232.90 Z" fill="#003251" opacity="1.00" stroke="#003251" stroke-width="0.25" data-index="12"></path>
<path d="M 298.55 249.51 C 300.27 249.44 301.99 249.38 303.72 249.31 C 307.21 249.88 311.15 250.54 313.30 253.69 C 319.60 261.70 324.48 270.77 328.42 280.15 C 320.86 293.87 309.29 305.73 294.58 311.61 C 293.59 308.03 294.05 304.00 292.26 300.70 C 288.52 297.23 283.45 295.76 279.16 293.12 C 290.20 281.16 296.23 265.45 298.55 249.51 Z" fill="#f5642d" opacity="1.00" stroke="#f5642d" stroke-width="0.25" data-index="13" style="opacity: 1; visibility: visible; fill: rgb(254, 180, 21);"></path>
<path d="M 320.58 311.62 C 325.78 308.11 329.43 302.92 334.20 298.94 C 335.24 304.99 336.30 311.31 335.28 317.40 C 328.86 326.34 318.96 332.30 308.61 335.65 C 304.43 337.52 300.98 333.36 297.80 331.26 C 295.41 329.91 295.31 327.22 295.30 324.79 C 304.08 321.16 313.34 318.05 320.58 311.62 Z" fill="#f3642e" opacity="1.00" stroke="#f3642e" stroke-width="0.25" data-index="14" style="opacity: 1; visibility: visible; fill: rgb(254, 180, 21);"></path>
<path d="M 271.22 302.28 C 275.32 303.04 278.87 305.38 281.99 308.04 C 284.86 310.13 283.37 314.18 283.58 317.18 C 278.15 313.60 274.12 308.03 271.22 302.28 Z" fill="#ec6533" opacity="1.00" stroke="#ec6533" stroke-width="0.25" data-index="15" style="opacity: 1; visibility: visible; fill: rgb(254, 180, 21);"></path>
</svg>