<svg xmlns="http://www.w3.org/2000/svg" height="512pt" version="1.1" viewBox="0 0 512 512" width="512pt"><defs>
                <linearGradient id="grad-110" gradientTransform="rotate(59 0.5 0.5)">
                
                        <stop stop-color="#083459" offset="0"></stop>
                    ,
                        <stop stop-color="#083459" offset="0.5"></stop>
                    
                </linearGradient>
          </defs>

<path d="M 361.92 72.84 C 363.94 71.45 365.61 69.31 368.15 68.88 C 366.79 72.20 363.54 75.22 359.98 76.08 C 360.07 74.72 360.74 73.55 361.92 72.84 Z" fill="#e9ebea" opacity="1.00" stroke="#e9ebea" stroke-width="0.25" data-index="1" style="opacity: 1; visibility: visible; fill: rgb(4, 25, 42); stroke: rgb(4, 25, 42);"></path>
<path d="M 377.22 74.27 C 379.52 72.70 381.58 70.83 383.68 69.01 C 379.17 73.41 374.91 78.47 369.35 81.51 C 368.65 83.11 367.49 84.40 366.10 85.43 C 365.36 85.13 363.90 84.52 363.16 84.22 C 367.94 81.02 372.55 77.62 377.22 74.27 Z" fill="#103453" opacity="1.00" stroke="#103453" stroke-width="0.25" data-index="2" style="visibility: visible; fill: rgb(4, 25, 42); stroke: rgb(4, 25, 42); opacity: 1;"></path>
<path d="M 368.92 88.39 C 374.08 83.07 380.03 78.55 386.06 74.28 C 385.22 75.76 383.47 76.71 383.32 78.52 C 384.90 78.43 386.47 78.51 388.03 78.76 C 389.74 77.78 391.48 76.77 392.74 75.19 C 392.70 75.91 392.62 77.35 392.58 78.07 L 393.09 76.70 C 393.42 76.58 394.09 76.35 394.42 76.23 C 394.39 75.78 394.32 74.90 394.29 74.45 C 396.14 74.26 397.61 72.75 399.64 73.34 C 398.80 76.00 396.32 77.96 393.86 79.14 C 394.85 79.90 395.43 80.87 395.60 82.07 C 397.49 80.13 400.04 78.83 402.77 78.67 C 401.18 80.65 397.04 81.87 397.72 84.72 L 396.76 84.87 L 396.01 85.20 L 395.46 85.44 C 396.21 85.94 396.98 86.42 397.74 86.93 C 395.45 88.65 392.65 90.08 391.15 92.61 C 395.44 92.48 397.40 87.05 401.81 87.04 C 399.68 89.57 398.34 92.63 396.14 95.09 C 397.51 94.20 398.89 93.33 400.29 92.47 C 399.62 94.42 398.68 96.82 396.65 97.73 C 396.48 99.29 395.87 100.69 394.81 101.96 C 397.87 101.05 398.97 97.55 401.67 96.00 C 400.56 100.41 395.46 102.43 392.79 105.88 C 391.64 107.63 389.53 108.78 389.08 110.94 C 390.55 110.66 391.66 109.56 393.05 109.07 C 392.85 110.07 392.34 110.90 391.54 111.55 C 390.89 112.85 390.39 114.21 389.90 115.56 C 390.66 115.53 392.19 115.47 392.96 115.45 C 391.92 117.15 390.30 118.26 388.71 119.38 C 388.55 119.51 388.22 119.77 388.06 119.91 C 388.24 120.33 388.60 121.19 388.78 121.62 C 387.84 122.60 386.90 123.63 387.10 125.10 C 389.08 123.86 390.52 122.00 391.95 120.19 C 392.80 120.38 393.66 120.57 394.53 120.74 L 395.05 120.47 C 396.54 119.43 398.00 118.35 399.49 117.29 C 399.42 117.84 399.29 118.94 399.22 119.48 C 396.92 121.39 394.00 122.68 392.37 125.29 C 391.17 127.21 389.26 128.46 387.50 129.80 C 386.64 133.55 383.08 135.43 380.52 137.91 C 380.30 139.06 380.20 140.21 380.24 141.38 C 376.56 144.91 374.22 150.01 369.50 152.29 C 368.10 154.30 366.05 155.57 364.12 156.97 C 362.67 159.51 360.27 161.30 358.78 163.79 L 361.75 163.05 L 360.28 164.74 C 359.86 165.12 359.04 165.89 358.62 166.27 C 358.83 166.57 359.25 167.16 359.46 167.46 C 359.18 168.33 358.62 170.07 358.34 170.93 C 363.93 168.77 367.14 163.15 371.86 159.67 C 372.20 159.66 372.87 159.66 373.20 159.66 C 372.65 160.44 371.55 162.01 370.99 162.79 L 372.84 162.39 C 375.55 164.28 373.27 166.92 372.04 168.96 C 371.76 169.49 371.18 170.56 370.89 171.10 C 371.71 171.25 373.34 171.55 374.16 171.70 C 375.24 170.78 376.32 169.86 377.41 168.95 C 384.42 162.67 392.37 157.57 399.58 151.51 C 403.58 147.32 409.06 144.83 412.77 140.30 C 412.30 141.41 411.81 142.49 411.34 143.59 C 409.75 145.30 408.19 147.03 406.73 148.84 C 405.61 150.21 404.39 151.53 403.64 153.15 C 403.25 153.13 402.46 153.10 402.06 153.08 C 403.05 152.39 403.26 149.43 401.45 150.76 C 400.78 151.56 400.34 152.48 400.12 153.50 C 400.61 153.40 401.58 153.19 402.06 153.08 C 400.82 155.35 404.44 155.51 403.64 153.15 C 404.57 152.59 406.42 151.45 407.35 150.89 C 406.65 152.22 405.27 154.89 404.57 156.22 C 406.34 154.81 407.92 153.21 409.31 151.43 C 416.38 144.96 423.54 138.57 430.65 132.14 C 426.40 136.14 423.02 141.00 418.34 144.53 C 416.50 147.10 415.86 150.27 414.27 152.97 C 414.42 153.41 414.73 154.28 414.88 154.72 C 415.39 154.31 416.42 153.48 416.93 153.07 C 416.52 154.10 415.70 156.16 415.29 157.20 C 416.40 156.32 418.63 154.57 419.75 153.70 C 419.32 154.78 418.48 156.93 418.05 158.01 C 420.93 156.67 422.74 152.26 426.39 153.65 C 428.72 150.15 429.72 145.96 432.04 142.48 L 433.56 142.36 C 431.95 146.20 432.17 150.96 428.89 153.94 C 428.25 156.03 426.19 157.15 425.32 159.11 C 424.25 161.10 423.04 163.01 421.68 164.81 C 421.62 165.24 421.51 166.11 421.45 166.55 C 417.92 169.09 416.21 173.16 413.59 176.47 C 409.15 180.94 404.50 185.28 400.89 190.48 C 402.22 191.07 403.60 190.40 404.94 190.23 C 402.50 192.37 400.14 194.59 397.96 196.99 C 396.52 198.63 394.27 199.60 393.73 201.92 C 393.74 201.18 393.76 199.69 393.77 198.95 C 392.01 199.65 392.00 201.01 393.31 202.19 C 391.75 202.44 390.93 203.87 389.83 204.82 C 385.68 209.02 380.51 212.35 377.44 217.51 C 376.54 218.57 375.46 219.46 374.42 220.38 C 372.58 221.89 370.89 223.55 369.25 225.28 C 366.48 227.69 364.06 230.46 361.49 233.08 C 358.50 235.52 355.89 238.38 352.88 240.79 C 349.96 243.22 346.77 245.56 344.99 249.01 C 347.71 248.48 350.23 247.21 352.31 245.38 C 352.83 244.96 353.87 244.11 354.39 243.68 C 356.69 241.48 359.04 239.33 361.49 237.29 C 362.30 236.40 363.48 236.29 364.59 236.62 C 359.42 241.12 355.11 246.54 349.69 250.78 C 347.44 253.09 344.51 254.99 343.10 257.97 C 346.10 256.54 348.23 253.91 350.69 251.75 C 351.22 251.95 352.30 252.35 352.83 252.54 C 353.84 252.11 354.85 251.69 355.86 251.26 C 355.71 251.82 355.42 252.93 355.27 253.48 C 355.76 253.77 356.72 254.34 357.21 254.62 C 357.56 254.61 358.27 254.58 358.62 254.57 C 361.68 251.96 364.48 249.05 367.58 246.49 L 368.36 247.40 C 368.36 247.81 368.36 248.61 368.37 249.02 C 369.58 248.17 370.86 247.44 372.16 246.74 C 372.30 247.22 372.56 248.17 372.70 248.65 C 373.90 248.12 375.13 247.63 376.46 247.55 C 376.92 245.65 378.98 246.97 379.97 245.78 C 382.30 244.24 383.73 241.28 386.42 240.43 C 388.29 239.01 389.49 236.87 391.58 235.73 C 391.44 235.16 391.16 234.01 391.02 233.44 L 392.45 234.75 C 393.10 233.77 393.81 232.83 394.60 231.96 C 393.28 235.12 389.57 236.40 388.71 239.71 C 387.27 243.73 383.15 245.60 380.33 248.46 C 380.36 248.82 380.44 249.52 380.48 249.87 C 382.28 248.54 383.44 246.55 385.13 245.09 C 386.76 246.52 384.94 247.92 384.15 249.10 C 386.52 248.52 387.29 245.57 389.82 245.43 C 393.18 243.80 394.99 240.03 398.31 238.31 C 398.86 237.05 399.69 235.94 400.88 235.22 C 400.55 236.35 399.77 237.22 399.05 238.11 C 399.53 238.97 399.81 239.90 399.91 240.89 C 400.62 240.72 402.02 240.39 402.73 240.23 C 403.17 242.16 402.49 243.71 401.00 244.89 C 407.39 244.51 411.00 237.65 416.66 235.56 C 410.56 241.50 403.93 246.88 398.00 252.99 C 396.70 253.81 396.26 255.18 396.54 256.65 C 394.14 258.57 392.15 260.86 390.16 263.16 C 385.59 266.32 382.65 271.12 378.66 274.88 C 374.42 279.95 368.25 283.42 364.79 289.06 C 365.95 288.30 367.04 287.43 368.13 286.57 C 370.68 286.82 372.15 284.39 373.84 282.92 C 375.76 280.71 378.36 279.23 380.23 276.98 L 380.48 278.64 C 381.11 278.49 382.38 278.21 383.01 278.06 C 387.75 273.92 392.85 270.20 397.66 266.15 C 392.81 271.54 386.59 275.40 381.52 280.53 C 377.94 282.85 375.15 286.03 372.24 289.08 C 372.82 288.97 373.98 288.73 374.56 288.61 C 379.51 285.04 383.24 279.49 388.92 277.11 C 383.72 283.02 377.78 288.24 372.13 293.72 C 371.29 292.87 370.48 292.00 369.68 291.13 C 368.97 291.75 368.26 292.38 367.56 293.01 C 368.64 293.60 369.73 294.21 370.81 294.83 C 369.81 295.71 368.86 296.66 367.96 297.66 C 366.48 300.31 361.24 302.83 364.57 306.06 C 360.56 308.79 357.55 312.74 353.49 315.43 C 353.40 315.78 353.23 316.49 353.14 316.85 C 357.57 315.12 360.21 309.79 365.19 309.35 C 367.75 305.38 371.62 302.41 375.30 299.51 C 377.52 297.35 379.89 295.17 382.88 294.14 C 381.99 295.29 380.07 295.96 380.54 297.78 C 381.83 297.23 383.15 295.49 384.62 296.72 C 384.48 296.32 384.21 295.52 384.08 295.12 L 385.54 295.46 C 387.24 294.40 390.66 292.28 392.37 291.22 L 389.16 295.30 C 388.58 295.62 387.41 296.24 386.82 296.55 C 387.27 296.56 388.16 296.58 388.61 296.59 C 388.03 298.30 387.56 300.03 387.09 301.77 L 387.87 301.72 C 388.30 301.70 389.17 301.66 389.60 301.65 C 389.92 301.14 390.54 300.12 390.85 299.62 C 392.91 300.30 394.41 298.82 395.79 297.54 C 396.43 297.55 397.73 297.58 398.38 297.60 C 400.10 294.96 401.74 292.18 404.38 290.35 C 407.14 288.46 408.73 285.45 411.19 283.26 C 412.72 280.80 415.88 278.75 415.22 275.47 C 416.02 274.78 416.82 274.10 417.63 273.42 C 418.52 273.86 419.39 274.34 420.14 275.01 C 419.59 276.14 419.06 277.28 418.55 278.43 C 420.16 278.95 421.27 278.32 421.88 276.54 C 422.46 276.52 423.63 276.47 424.22 276.44 C 425.29 275.21 426.27 273.78 427.82 273.10 C 427.74 272.47 427.57 271.21 427.49 270.58 C 429.04 270.63 430.60 270.60 432.15 270.31 C 427.25 273.91 424.01 279.21 419.25 282.92 C 412.74 289.85 405.96 296.53 399.85 303.82 C 396.25 307.29 392.86 311.02 390.10 315.18 C 388.49 315.32 388.39 317.26 386.92 317.57 C 377.96 323.17 372.75 332.89 364.25 339.08 C 361.61 340.78 360.47 343.96 357.85 345.66 C 349.46 351.11 342.65 358.51 335.31 365.22 C 332.72 367.95 328.61 368.16 326.17 371.14 C 326.94 371.52 327.72 371.87 328.52 372.21 L 324.94 371.42 L 326.44 374.44 C 325.95 373.72 325.43 373.04 324.89 372.39 C 324.06 373.10 322.41 374.52 321.58 375.23 C 321.64 374.43 321.74 372.83 321.80 372.03 C 323.81 371.59 325.04 369.87 326.62 368.72 C 327.78 367.72 329.64 366.99 329.59 365.19 C 326.81 367.90 323.46 369.98 320.71 372.73 C 320.70 373.32 320.69 374.50 320.69 375.09 L 318.80 374.50 C 319.38 375.01 319.96 375.54 320.54 376.07 C 313.08 381.76 305.71 387.70 297.68 392.59 C 296.36 394.26 294.84 395.77 293.17 397.10 C 287.26 401.52 282.05 407.10 275.12 410.01 C 272.95 410.73 271.48 412.52 269.66 413.80 C 269.53 414.27 269.26 415.20 269.12 415.66 C 263.80 418.05 259.04 421.54 253.64 423.77 C 251.18 424.96 248.70 426.09 246.31 427.40 C 246.10 427.18 245.69 426.75 245.48 426.54 L 246.09 426.24 C 249.74 424.67 252.76 421.97 256.47 420.55 C 258.76 419.58 260.76 418.09 262.75 416.61 C 262.00 416.15 261.27 415.69 260.52 415.27 C 259.68 415.52 257.99 416.01 257.15 416.26 C 257.20 415.76 257.29 414.74 257.34 414.24 C 256.03 414.87 254.67 415.41 253.26 415.76 C 253.10 416.20 252.78 417.09 252.62 417.53 L 256.22 416.20 C 254.66 418.36 251.79 419.88 249.08 419.50 C 250.00 419.09 251.82 418.26 252.73 417.85 C 251.51 417.21 250.22 416.70 248.93 416.26 C 251.60 415.71 253.34 413.39 255.77 412.30 C 254.60 411.36 253.22 411.12 251.78 411.48 C 251.65 411.83 251.37 412.54 251.23 412.89 C 245.20 416.52 239.52 420.71 234.25 425.39 C 232.90 425.65 231.54 425.99 230.17 425.68 C 231.91 423.20 234.85 421.89 236.49 419.37 C 238.63 420.26 239.26 417.67 240.46 416.52 C 241.76 417.12 245.33 413.96 241.05 416.05 C 241.20 415.41 241.50 414.13 241.65 413.49 C 238.38 416.03 234.73 418.04 231.64 420.82 C 230.73 421.79 229.43 422.02 228.17 421.77 C 233.47 417.58 239.70 414.49 244.25 409.41 C 243.02 410.04 240.54 411.31 239.30 411.95 L 239.39 409.58 L 241.03 409.57 C 240.57 409.48 239.64 409.31 239.18 409.22 C 239.31 408.70 239.57 407.65 239.70 407.12 C 235.83 409.40 232.26 412.06 228.77 414.87 C 227.64 414.79 226.50 414.75 225.37 414.75 C 225.36 414.20 225.36 413.10 225.36 412.55 C 224.29 413.42 223.51 414.56 222.82 415.75 C 223.77 415.64 225.66 415.43 226.61 415.32 L 226.85 416.71 C 224.64 418.56 221.71 419.21 219.67 421.31 C 218.12 421.32 216.82 422.10 215.67 423.06 C 214.53 426.26 211.48 428.24 209.53 430.94 C 210.84 429.21 211.39 426.79 213.49 425.76 C 214.31 423.47 216.42 421.98 217.40 419.77 C 216.56 419.72 214.89 419.61 214.06 419.56 C 213.37 420.71 212.07 421.26 210.86 421.68 C 210.05 421.62 209.24 421.55 208.44 421.47 C 208.15 421.44 207.58 421.38 207.29 421.35 C 205.94 423.52 203.94 425.15 201.98 426.76 C 202.59 422.96 206.12 420.65 207.67 417.30 C 206.43 417.62 206.09 418.97 205.42 419.88 C 202.94 418.18 201.12 420.56 199.29 421.91 C 199.45 420.19 200.54 418.86 201.76 417.74 C 200.42 416.40 199.09 415.08 197.54 414.01 C 199.23 412.01 201.34 410.29 202.75 408.01 C 200.78 408.32 198.95 409.43 196.94 409.41 C 197.42 408.08 197.81 406.67 198.69 405.54 C 203.89 401.34 208.78 396.75 214.00 392.61 C 218.87 389.48 223.13 385.45 227.20 381.37 C 226.77 381.26 225.90 381.06 225.47 380.96 C 221.66 384.16 218.62 388.29 214.50 391.10 C 214.07 388.67 216.20 386.99 217.23 385.04 C 215.51 386.13 213.83 387.26 212.16 388.43 C 211.93 387.86 211.47 386.71 211.24 386.13 C 209.75 388.87 207.18 390.54 204.70 392.27 C 204.58 391.68 204.32 390.50 204.20 389.91 C 200.94 394.98 197.74 400.39 192.53 403.72 C 190.02 405.15 188.69 407.95 186.08 409.21 C 186.30 408.32 186.74 406.53 186.96 405.63 C 185.80 407.83 183.31 408.67 181.84 410.62 C 181.17 410.65 179.83 410.70 179.16 410.73 C 178.60 411.03 177.50 411.64 176.94 411.94 C 177.16 409.73 178.72 408.03 179.70 406.13 C 176.68 407.33 175.14 410.54 172.27 411.98 C 174.57 409.61 176.67 407.00 178.15 404.03 C 176.79 404.50 175.50 405.11 174.28 405.86 C 174.41 404.18 174.46 402.49 174.40 400.82 C 172.91 400.38 171.43 399.92 169.95 399.47 C 167.04 405.01 161.79 408.57 158.13 413.51 C 157.88 413.63 157.37 413.89 157.12 414.02 C 157.07 412.73 157.56 411.89 158.58 411.49 L 158.34 410.38 L 159.46 410.61 C 160.22 408.82 162.29 407.98 163.28 406.28 C 164.15 404.82 165.62 403.75 166.12 402.07 C 165.49 402.63 164.23 403.74 163.60 404.29 C 163.64 403.42 163.70 401.68 163.73 400.81 C 161.06 404.44 158.12 407.94 154.73 410.93 C 153.42 412.97 151.13 414.23 149.34 415.86 C 151.43 414.06 153.08 411.91 154.48 409.56 C 158.82 404.66 162.44 399.21 166.41 394.03 C 166.46 393.53 166.56 392.55 166.61 392.06 C 166.90 392.63 167.19 393.20 167.48 393.78 C 166.60 388.15 174.67 385.89 174.67 380.43 C 174.31 380.12 173.59 379.50 173.23 379.19 C 174.61 377.52 176.78 376.21 177.05 373.89 C 172.99 377.87 168.24 381.10 164.81 385.71 C 162.74 386.93 160.53 388.03 159.31 390.27 C 158.56 390.72 157.81 391.18 157.06 391.64 C 159.22 387.43 162.51 384.08 166.02 380.98 C 169.65 376.62 175.07 373.61 176.86 367.92 C 175.06 368.19 174.16 369.90 172.91 371.02 C 167.44 376.19 162.61 382.01 156.72 386.74 C 151.37 390.84 147.37 396.35 142.69 401.13 L 142.09 402.53 C 141.52 402.03 140.96 401.53 140.40 401.04 C 145.41 396.49 149.38 390.91 153.96 385.95 C 151.46 386.95 150.26 389.50 148.55 391.38 C 144.96 393.90 142.48 397.64 138.96 400.24 C 137.96 400.86 137.45 401.91 137.01 402.96 C 136.56 402.80 135.65 402.50 135.20 402.34 C 133.72 403.58 132.42 405.17 130.56 405.84 C 130.54 405.23 130.49 404.01 130.47 403.40 C 129.47 404.27 128.44 404.70 127.50 403.43 C 127.30 403.67 126.90 404.16 126.70 404.41 C 123.53 405.86 121.50 409.08 118.69 411.14 C 118.33 412.78 116.99 414.40 115.23 414.54 C 118.24 412.65 118.92 408.78 121.51 406.45 C 122.62 404.42 120.73 403.90 119.16 404.70 C 120.49 403.53 120.72 401.80 120.44 400.13 C 117.99 402.03 115.95 404.53 112.89 405.53 C 111.59 404.38 110.40 402.48 108.37 403.21 C 108.15 403.65 107.72 404.55 107.50 404.99 C 107.55 404.25 107.65 402.76 107.70 402.02 C 106.10 402.92 104.76 404.23 103.09 405.02 C 103.04 403.15 104.62 401.90 105.46 400.39 C 108.99 395.02 113.72 390.50 117.11 385.06 C 114.28 386.34 112.35 388.89 110.67 391.40 C 108.56 390.72 107.07 392.15 105.79 393.64 C 103.41 393.73 100.87 393.26 98.76 394.70 C 98.17 395.74 97.24 396.49 96.15 396.97 C 96.27 395.91 96.73 395.09 97.56 394.51 C 99.62 393.00 102.25 391.38 102.37 388.54 C 100.54 389.65 99.09 391.25 97.67 392.83 C 95.59 392.67 93.57 393.29 91.58 393.80 C 91.48 392.86 91.27 391.00 91.17 390.07 C 95.19 385.56 101.01 382.67 104.02 377.30 C 101.33 379.51 98.40 381.41 95.77 383.70 C 93.77 382.34 93.41 380.06 93.41 377.81 C 93.93 377.07 94.45 376.34 94.97 375.61 C 93.26 374.97 92.09 373.34 90.17 373.24 C 90.40 371.12 90.96 368.85 93.18 368.03 C 93.57 366.23 93.97 364.44 94.45 362.67 C 98.99 358.74 101.89 353.13 106.52 349.21 C 101.56 348.17 100.57 354.62 96.43 355.99 C 98.22 351.55 102.45 348.84 104.60 344.63 C 103.85 344.92 102.35 345.51 101.60 345.81 C 101.56 346.28 101.49 347.21 101.45 347.68 C 100.35 348.60 98.75 349.19 98.26 350.68 C 96.89 350.07 95.57 350.20 94.31 351.07 L 95.25 352.28 C 93.89 351.75 93.13 352.46 92.64 353.67 C 92.65 353.17 92.66 352.19 92.67 351.70 C 95.43 350.82 95.87 346.99 98.46 345.46 C 98.32 344.39 98.20 343.31 98.09 342.25 C 97.77 343.17 97.13 343.84 96.20 344.21 L 97.05 346.04 L 95.14 345.36 C 92.16 348.11 89.63 351.52 85.95 353.40 C 84.64 353.81 82.00 354.65 80.69 355.07 C 82.58 352.59 83.98 349.85 85.40 347.11 C 83.59 347.34 81.77 347.45 79.95 347.55 C 79.75 345.85 77.52 345.64 77.30 343.97 C 78.20 342.77 79.16 341.63 80.19 340.55 C 78.39 340.51 76.79 341.20 75.10 341.67 C 76.92 339.27 78.92 337.02 80.60 334.53 C 83.60 331.17 87.24 328.37 89.71 324.57 C 91.13 322.30 94.65 320.66 92.96 317.56 C 97.43 317.42 101.10 314.31 102.10 309.98 C 109.43 303.13 115.71 295.30 122.43 287.89 C 120.15 289.04 118.42 291.07 115.98 291.92 C 116.80 289.56 119.52 288.77 120.58 286.53 C 117.34 288.58 114.85 291.56 111.87 293.94 C 112.14 294.52 112.69 295.68 112.96 296.26 C 112.51 295.65 111.60 294.43 111.15 293.82 C 110.05 294.81 108.97 295.83 107.91 296.86 C 107.89 295.41 108.27 294.01 108.73 292.66 C 112.45 290.80 113.88 286.44 117.01 283.81 C 113.27 285.99 110.04 288.99 107.45 292.45 C 107.24 292.48 106.83 292.55 106.62 292.58 C 106.43 292.38 106.04 291.98 105.85 291.78 C 105.64 291.33 105.22 290.45 105.01 290.01 L 105.48 289.56 C 108.14 285.90 111.65 282.83 113.75 278.80 C 111.50 280.14 110.00 282.34 108.00 283.98 C 105.36 285.55 102.57 286.85 99.84 288.22 C 99.97 286.69 100.11 285.17 100.24 283.64 C 99.10 283.78 98.23 284.30 97.62 285.21 C 96.47 286.97 94.71 288.16 93.08 289.44 C 93.60 288.39 94.64 286.29 95.16 285.25 C 94.21 286.01 92.29 287.53 91.34 288.30 C 91.53 287.48 91.90 285.85 92.09 285.03 C 91.22 285.13 89.47 285.34 88.59 285.44 C 90.15 284.36 92.71 283.34 92.54 281.02 C 90.67 281.34 88.76 281.65 87.13 282.70 C 85.25 282.86 84.51 280.82 83.23 279.88 C 83.53 278.76 87.35 276.33 84.28 276.29 C 83.83 273.90 85.95 272.83 87.47 271.51 C 87.94 270.26 88.36 268.89 89.86 268.59 C 91.97 267.78 92.62 265.17 94.66 264.35 C 94.61 263.93 94.51 263.09 94.46 262.67 C 95.61 262.25 96.66 261.66 97.63 260.90 C 97.01 260.51 95.76 259.73 95.14 259.34 C 96.60 258.22 97.88 256.93 97.30 254.94 C 99.42 254.74 98.39 252.58 98.29 251.25 C 98.88 251.37 100.06 251.63 100.65 251.76 C 100.61 251.25 100.52 250.22 100.48 249.70 C 101.04 249.54 102.16 249.20 102.72 249.03 C 101.64 247.54 102.62 246.33 103.85 245.27 C 101.69 245.57 99.95 247.49 99.25 249.46 L 96.93 249.44 C 101.47 244.49 106.35 239.82 111.26 235.25 C 112.08 234.04 112.91 232.84 113.81 231.70 L 112.42 230.75 C 112.81 229.73 113.24 228.73 113.69 227.74 C 113.66 227.07 113.60 225.71 113.57 225.03 C 114.97 223.65 116.59 222.56 118.60 222.38 C 120.09 221.12 121.57 219.84 123.07 218.58 C 123.21 219.15 123.49 220.30 123.63 220.87 C 126.17 218.15 129.32 216.03 131.80 213.29 C 132.03 212.91 132.50 212.17 132.73 211.79 C 139.49 206.61 145.24 200.26 151.50 194.52 C 155.25 189.60 160.15 185.73 163.78 180.71 C 166.94 177.56 170.26 174.54 172.87 170.89 C 180.93 161.92 190.23 154.21 199.04 146.02 C 202.68 141.91 207.75 139.49 211.52 135.52 C 217.86 129.86 224.04 124.00 230.77 118.78 C 235.52 115.15 239.72 110.37 245.43 108.29 C 245.86 108.42 246.73 108.69 247.17 108.82 C 247.90 108.45 248.62 108.06 249.33 107.64 C 249.95 107.64 251.19 107.63 251.81 107.63 C 256.09 105.50 260.08 102.31 264.90 101.60 C 269.11 97.05 274.40 93.33 280.14 91.00 C 279.25 93.85 275.96 94.65 274.20 96.86 C 276.75 95.67 279.40 94.26 280.68 91.59 C 282.55 90.20 283.61 88.04 285.38 86.56 L 285.90 88.31 C 286.82 88.14 288.66 87.80 289.57 87.62 C 289.35 88.41 288.91 89.97 288.69 90.75 C 286.68 90.53 284.95 91.39 283.52 92.70 L 284.91 92.22 L 284.86 94.38 C 285.19 93.32 285.52 92.27 285.78 91.19 C 290.12 92.02 293.30 88.22 297.42 88.26 C 297.80 91.05 296.32 93.47 294.06 95.01 C 295.38 94.64 296.71 94.34 298.07 94.11 C 297.20 95.68 295.19 95.69 293.89 96.75 C 289.71 99.05 286.07 102.14 282.03 104.64 C 282.71 105.27 283.52 105.67 284.46 105.85 C 278.29 108.40 273.66 113.59 267.87 116.83 C 262.62 119.99 258.30 124.38 253.21 127.70 C 254.81 127.17 256.75 125.40 258.23 127.18 C 263.32 127.51 266.78 123.48 271.00 121.34 C 269.48 123.24 267.05 124.26 265.64 126.33 C 265.23 127.26 264.71 128.12 264.08 128.91 C 266.85 128.89 268.94 127.00 270.95 125.33 C 270.78 126.26 270.46 128.13 270.30 129.06 C 272.34 128.38 273.58 126.28 275.96 126.39 C 279.82 123.93 283.05 120.52 287.19 118.45 C 288.42 119.48 289.62 120.55 290.75 121.70 C 291.59 120.56 294.73 119.11 294.73 121.73 C 295.96 120.79 297.36 120.13 298.92 120.02 C 299.77 120.79 300.73 121.40 301.79 121.85 C 301.69 122.37 301.50 123.42 301.41 123.94 C 303.90 122.73 306.17 121.14 308.33 119.40 C 307.12 123.75 301.63 124.98 299.37 128.61 C 302.75 127.69 305.28 124.98 307.84 122.73 C 308.92 121.92 308.30 120.38 308.54 119.24 C 315.26 113.01 322.78 107.70 329.54 101.50 C 337.93 94.54 345.72 86.87 354.56 80.48 C 350.86 84.51 346.09 87.30 342.50 91.43 C 338.16 94.38 334.94 98.61 330.64 101.61 C 323.48 109.11 313.03 113.93 309.02 124.09 C 311.14 122.44 313.05 120.45 315.57 119.40 C 319.39 116.35 321.96 111.39 326.96 110.09 C 324.53 112.89 321.14 114.97 319.58 118.47 C 318.97 120.17 317.17 121.17 316.97 123.06 C 320.43 119.77 324.10 116.68 328.19 114.19 C 332.79 109.82 337.21 105.16 341.97 100.89 C 345.58 97.15 350.39 94.85 353.91 90.99 C 355.64 88.91 358.06 87.67 360.31 86.25 C 361.25 85.96 363.13 85.39 364.07 85.10 C 362.74 88.58 359.03 90.05 356.44 92.43 C 356.49 93.16 356.54 93.90 356.59 94.63 C 355.33 95.82 354.08 97.11 353.91 98.92 C 355.82 97.45 357.50 95.71 359.39 94.21 C 361.55 92.52 364.30 91.64 366.18 89.58 L 366.92 88.75 C 367.42 88.66 368.42 88.48 368.92 88.39 Z" fill="#083459" opacity="1.00" stroke="#083459" stroke-width="0.25" data-index="3" style="opacity: 1; visibility: visible; fill: rgb(8, 52, 89); display: none;"></path>
<path d="M 399.43 82.97 C 401.44 81.85 403.52 80.82 405.77 80.25 C 405.69 80.48 405.53 80.93 405.45 81.16 C 402.85 82.60 400.60 84.55 398.09 86.11 C 398.42 85.33 399.09 83.76 399.43 82.97 Z" fill="#103453" opacity="1.00" stroke="#103453" stroke-width="0.25" data-index="4"></path>
<path d="M 279.52 84.68 C 281.16 83.98 283.27 82.11 284.89 83.85 C 272.14 90.33 260.47 98.73 249.33 107.64 C 248.62 108.06 247.90 108.45 247.17 108.82 C 246.73 108.69 245.86 108.42 245.43 108.29 C 251.12 104.04 256.56 99.44 262.50 95.54 C 267.98 91.62 273.72 88.09 279.52 84.68 Z" fill="#103453" opacity="1.00" stroke="#103453" stroke-width="0.25" data-index="5" style="visibility: visible; fill: rgb(4, 25, 42); stroke: rgb(4, 25, 42); opacity: 1;"></path>
<path d="M 249.33 107.64 C 260.47 98.73 272.14 90.33 284.89 83.85 C 285.56 84.51 286.24 85.16 286.94 85.80 C 286.55 85.99 285.77 86.37 285.38 86.56 C 283.61 88.04 282.55 90.20 280.68 91.59 C 279.40 94.26 276.75 95.67 274.20 96.86 C 275.96 94.65 279.25 93.85 280.14 91.00 C 274.40 93.33 269.11 97.05 264.90 101.60 C 260.08 102.31 256.09 105.50 251.81 107.63 C 251.19 107.63 249.95 107.64 249.33 107.64 Z" fill="#f5fcff" opacity="1.00" stroke="#f5fcff" stroke-width="0.25" data-index="6" style="visibility: visible; fill: rgb(4, 25, 42); stroke: rgb(4, 25, 42); opacity: 1;"></path>
<path d="M 360.31 86.25 C 360.76 85.04 362.15 84.79 363.16 84.22 C 363.90 84.52 365.36 85.13 366.10 85.43 C 365.59 86.87 364.86 88.21 364.12 89.54 L 366.18 89.58 C 364.30 91.64 361.55 92.52 359.39 94.21 C 357.50 95.71 355.82 97.45 353.91 98.92 C 354.08 97.11 355.33 95.82 356.59 94.63 C 356.54 93.90 356.49 93.16 356.44 92.43 C 359.03 90.05 362.74 88.58 364.07 85.10 C 363.13 85.39 361.25 85.96 360.31 86.25 Z" fill="#7da0b6" opacity="1.00" stroke="#7da0b6" stroke-width="0.25" data-index="7" style="visibility: visible; fill: rgb(4, 25, 42); stroke: rgb(4, 25, 42); opacity: 1;"></path>
<path d="M 246.62 98.66 C 249.88 96.40 253.14 93.84 257.18 93.20 C 257.04 93.65 256.77 94.56 256.64 95.01 C 252.93 96.01 249.91 98.56 246.90 100.82 C 238.12 106.90 229.93 113.79 221.87 120.80 C 213.20 127.76 204.72 135.03 197.12 143.16 C 187.16 150.45 177.85 158.55 168.58 166.69 C 154.72 179.87 140.90 193.09 126.62 205.82 C 125.86 205.74 125.11 205.66 124.35 205.59 C 121.33 208.27 118.79 211.46 115.59 213.94 C 116.08 214.42 116.57 214.89 117.07 215.37 C 117.99 214.18 118.95 213.03 119.93 211.90 C 118.78 213.68 117.93 215.69 118.58 217.83 C 118.41 218.12 118.07 218.70 117.90 218.99 C 116.02 220.92 114.08 222.83 111.68 224.12 C 110.48 224.91 113.38 225.72 113.35 226.00 C 112.87 226.38 111.92 227.12 111.45 227.49 C 109.96 227.10 108.79 226.28 107.94 225.03 C 110.90 222.78 113.07 219.76 115.16 216.72 C 115.16 215.57 114.82 214.60 114.11 213.81 C 118.45 208.90 123.22 204.39 127.96 199.88 C 128.84 199.23 129.61 197.98 130.88 198.18 L 129.89 200.26 C 136.06 196.08 140.72 190.15 146.25 185.21 C 148.90 183.00 150.12 179.73 152.09 177.01 C 152.54 177.23 153.43 177.68 153.87 177.90 C 161.41 171.47 168.07 164.01 175.96 157.96 C 181.26 153.56 186.48 149.02 192.30 145.30 C 198.19 141.63 201.48 135.14 207.05 131.08 C 215.51 123.12 224.44 115.64 233.78 108.74 C 237.75 104.99 242.26 101.92 246.62 98.66 Z" fill="#7e91a0" opacity="1.00" stroke="#7e91a0" stroke-width="0.25" data-index="8" style="visibility: visible; fill: rgb(4, 25, 42); opacity: 1; stroke: rgb(4, 25, 42); stroke-width: 2px;"></path>
<path d="M 246.90 100.82 C 249.91 98.56 252.93 96.01 256.64 95.01 C 258.50 95.95 260.57 94.86 262.50 95.54 C 256.56 99.44 251.12 104.04 245.43 108.29 C 239.72 110.37 235.52 115.15 230.77 118.78 C 224.04 124.00 217.86 129.86 211.52 135.52 C 207.75 139.49 202.68 141.91 199.04 146.02 C 190.23 154.21 180.93 161.92 172.87 170.89 C 170.26 174.54 166.94 177.56 163.78 180.71 C 160.15 185.73 155.25 189.60 151.50 194.52 C 145.24 200.26 139.49 206.61 132.73 211.79 C 132.50 212.17 132.03 212.91 131.80 213.29 C 131.78 212.56 131.74 211.12 131.72 210.40 C 128.82 211.79 127.01 215.96 123.44 215.49 C 123.79 215.74 124.49 216.24 124.85 216.50 C 124.37 216.90 123.42 217.70 122.95 218.10 C 122.53 217.95 121.71 217.66 121.30 217.52 C 120.06 218.57 118.82 219.62 117.57 220.65 L 117.90 218.99 C 118.07 218.70 118.41 218.12 118.58 217.83 C 117.93 215.69 118.78 213.68 119.93 211.90 C 118.95 213.03 117.99 214.18 117.07 215.37 C 116.57 214.89 116.08 214.42 115.59 213.94 C 118.79 211.46 121.33 208.27 124.35 205.59 C 125.11 205.66 125.86 205.74 126.62 205.82 C 140.90 193.09 154.72 179.87 168.58 166.69 C 177.85 158.55 187.16 150.45 197.12 143.16 C 204.72 135.03 213.20 127.76 221.87 120.80 C 229.93 113.79 238.12 106.90 246.90 100.82 Z" fill="#f9fdfd" opacity="1.00" stroke="#f9fdfd" stroke-width="0.25" data-index="9" style="visibility: visible; fill: rgb(4, 25, 42); opacity: 1; stroke: rgb(4, 25, 42);"></path>
<path d="M 375.01 110.00 C 377.27 107.87 379.09 105.12 382.01 103.82 C 378.25 109.10 373.40 113.74 368.31 117.70 C 369.57 114.43 372.65 112.44 375.01 110.00 Z" fill="#def2fd" opacity="1.00" stroke="#def2fd" stroke-width="0.25" data-index="10"></path>
<path d="M 400.77 110.60 C 402.09 110.58 403.42 110.58 404.76 110.59 C 404.31 113.09 401.81 114.08 399.98 115.41 L 400.12 116.38 C 400.17 116.67 400.28 117.26 400.33 117.55 C 400.45 118.40 400.45 119.27 400.50 120.13 C 400.18 119.97 399.54 119.64 399.22 119.48 C 399.29 118.94 399.42 117.84 399.49 117.29 C 398.00 118.35 396.54 119.43 395.05 120.47 C 395.63 118.82 395.91 117.10 395.75 115.37 C 396.09 115.04 396.76 114.40 397.10 114.08 C 398.32 112.92 399.59 111.81 400.77 110.60 Z" fill="#a3b1ba" opacity="1.00" stroke="#a3b1ba" stroke-width="0.25" data-index="11" style="visibility: visible; fill: rgb(4, 25, 42); stroke: rgb(4, 25, 42); opacity: 1;"></path>
<path d="M 391.54 111.55 C 393.03 111.52 393.98 112.16 394.38 113.47 C 395.34 113.40 396.26 113.55 397.10 114.08 C 396.76 114.40 396.09 115.04 395.75 115.37 C 393.26 116.91 391.57 119.73 388.60 120.38 L 388.71 119.38 C 390.30 118.26 391.92 117.15 392.96 115.45 C 392.19 115.47 390.66 115.53 389.90 115.56 C 390.39 114.21 390.89 112.85 391.54 111.55 Z" fill="#dde6eb" opacity="1.00" stroke="#dde6eb" stroke-width="0.25" data-index="12" style="opacity: 1;"></path>
<path d="M 444.59 119.36 C 445.75 116.74 447.81 113.40 450.89 113.13 C 450.73 115.69 447.93 116.80 446.61 118.75 C 446.11 118.90 445.10 119.21 444.59 119.36 Z" fill="#e0e1e0" opacity="1.00" stroke="#e0e1e0" stroke-width="0.25" data-index="13"></path>
<path d="M 400.12 116.38 C 400.75 115.44 401.63 115.06 402.74 115.23 C 402.62 116.55 401.82 117.32 400.33 117.55 C 400.28 117.26 400.17 116.67 400.12 116.38 Z" fill="#103453" opacity="1.00" stroke="#103453" stroke-width="0.25" data-index="14" style="visibility: visible; fill: rgb(4, 25, 42); stroke: rgb(4, 25, 42); opacity: 1;"></path>
<path d="M 388.60 120.38 C 391.57 119.73 393.26 116.91 395.75 115.37 C 395.91 117.10 395.63 118.82 395.05 120.47 L 394.53 120.74 C 393.66 120.57 392.80 120.38 391.95 120.19 C 390.52 122.00 389.08 123.86 387.10 125.10 C 386.90 123.63 387.84 122.60 388.78 121.62 C 388.60 121.19 388.24 120.33 388.06 119.91 C 388.22 119.77 388.55 119.51 388.71 119.38 L 388.60 120.38 Z" fill="#4a6b88" opacity="1.00" stroke="#4a6b88" stroke-width="0.25" data-index="15" style="visibility: visible; fill: rgb(4, 25, 42); stroke: rgb(4, 25, 42); opacity: 1;"></path>
<path d="M 307.18 125.19 C 307.82 125.81 307.82 125.81 307.18 125.19 Z" fill="#7498b8" opacity="1.00" stroke="#7498b8" stroke-width="0.25" data-index="16"></path>
<path d="M 415.13 138.24 C 416.17 137.42 417.24 136.65 418.36 135.94 C 418.36 136.86 418.36 137.78 418.36 138.71 C 416.58 140.42 415.77 143.26 413.19 143.96 C 414.44 142.55 415.71 141.15 416.93 139.71 C 416.48 139.35 415.58 138.61 415.13 138.24 Z" fill="#7e91a0" opacity="1.00" stroke="#7e91a0" stroke-width="0.25" data-index="17"></path>
<path d="M 384.11 141.97 C 384.76 139.89 386.59 138.26 388.82 138.13 C 388.05 140.12 386.45 142.11 384.11 141.97 Z" fill="#dae0e0" opacity="1.00" stroke="#dae0e0" stroke-width="0.25" data-index="18" style="visibility: visible; fill: rgb(4, 25, 42); stroke: rgb(4, 25, 42); opacity: 1;"></path>
<path d="M 387.68 142.74 C 388.23 142.65 389.33 142.45 389.88 142.35 C 388.48 146.03 385.12 148.31 382.37 150.90 C 380.01 153.02 377.36 154.93 375.62 157.63 C 374.96 158.46 374.56 159.95 373.20 159.66 C 372.87 159.66 372.20 159.66 371.86 159.67 C 373.61 157.52 375.79 155.67 376.96 153.10 C 374.59 154.22 372.35 155.64 370.49 157.51 C 368.57 159.54 365.74 160.28 363.73 162.23 L 361.09 162.84 C 364.44 159.53 368.84 157.51 371.93 153.93 C 376.98 149.94 382.26 146.22 387.68 142.74 Z" fill="#103453" opacity="1.00" stroke="#103453" stroke-width="0.25" data-index="19" style="opacity: 1; visibility: visible; fill: rgb(4, 25, 42); stroke: rgb(4, 25, 42);"></path>
<path d="M 423.43 147.28 C 424.42 145.73 426.73 147.54 425.61 148.92 C 424.57 150.58 422.00 148.73 423.43 147.28 Z" fill="#7e91a0" opacity="1.00" stroke="#7e91a0" stroke-width="0.25" data-index="20"></path>
<path d="M 403.64 153.15 C 404.39 151.53 405.61 150.21 406.73 148.84 C 407.58 149.70 408.44 150.56 409.31 151.43 C 407.92 153.21 406.34 154.81 404.57 156.22 C 405.27 154.89 406.65 152.22 407.35 150.89 C 406.42 151.45 404.57 152.59 403.64 153.15 Z" fill="#dbe4e9" opacity="1.00" stroke="#dbe4e9" stroke-width="0.25" data-index="21"></path>
<path d="M 377.33 151.49 C 378.80 150.77 379.24 151.14 378.63 152.59 C 377.16 153.32 376.73 152.95 377.33 151.49 Z" fill="#6a91af" opacity="1.00" stroke="#6a91af" stroke-width="0.25" data-index="22"></path>
<path d="M 375.62 157.63 C 377.36 154.93 380.01 153.02 382.37 150.90 C 382.65 151.35 383.22 152.25 383.50 152.70 C 381.46 154.89 379.00 158.37 375.62 157.63 Z" fill="#a5b7c7" opacity="1.00" stroke="#a5b7c7" stroke-width="0.25" data-index="23"></path>
<path d="M 401.45 150.76 C 403.26 149.43 403.05 152.39 402.06 153.08 C 401.58 153.19 400.61 153.40 400.12 153.50 C 400.34 152.48 400.78 151.56 401.45 150.76 Z" fill="#4e7395" opacity="1.00" stroke="#4e7395" stroke-width="0.25" data-index="24"></path>
<path d="M 402.06 153.08 C 402.46 153.10 403.25 153.13 403.64 153.15 C 404.44 155.51 400.82 155.35 402.06 153.08 Z" fill="#587b99" opacity="1.00" stroke="#587b99" stroke-width="0.25" data-index="25"></path>
<path d="M 370.49 157.51 C 372.35 155.64 374.59 154.22 376.96 153.10 C 375.79 155.67 373.61 157.52 371.86 159.67 C 367.14 163.15 363.93 168.77 358.34 170.93 C 358.62 170.07 359.18 168.33 359.46 167.46 C 359.25 167.16 358.83 166.57 358.62 166.27 C 359.04 165.89 359.86 165.12 360.28 164.74 C 361.40 163.87 362.63 163.14 363.73 162.23 C 365.74 160.28 368.57 159.54 370.49 157.51 Z" fill="#cddce1" opacity="1.00" stroke="#cddce1" stroke-width="0.25" data-index="26" style="opacity: 1;"></path>
<path d="M 372.84 162.39 C 375.55 160.66 377.99 158.47 380.94 157.14 C 379.42 159.71 376.57 161.08 374.98 163.63 C 375.24 163.90 375.75 164.44 376.01 164.71 C 374.00 166.06 374.03 167.10 376.09 167.82 C 374.75 168.24 373.40 168.61 372.04 168.96 C 373.27 166.92 375.55 164.28 372.84 162.39 Z" fill="#4a6b88" opacity="1.00" stroke="#4a6b88" stroke-width="0.25" data-index="27"></path>
<path d="M 420.06 158.13 C 423.31 158.27 418.57 161.21 420.06 158.13 Z" fill="#4b7091" opacity="1.00" stroke="#4b7091" stroke-width="0.25" data-index="28"></path>
<path d="M 376.01 164.71 C 377.09 164.30 378.21 163.97 379.34 163.71 C 378.67 165.44 377.72 167.09 377.41 168.95 C 376.32 169.86 375.24 170.78 374.16 171.70 C 373.34 171.55 371.71 171.25 370.89 171.10 C 371.18 170.56 371.76 169.49 372.04 168.96 C 373.40 168.61 374.75 168.24 376.09 167.82 C 374.03 167.10 374.00 166.06 376.01 164.71 Z" fill="#bccedd" opacity="1.00" stroke="#bccedd" stroke-width="0.25" data-index="29"></path>
<path d="M 412.55 167.33 C 412.32 166.27 412.64 165.53 413.51 165.12 C 413.39 165.80 413.16 167.15 413.05 167.83 L 414.81 167.39 C 415.53 170.14 412.92 171.72 411.34 173.49 C 410.34 172.57 409.52 171.51 409.29 170.15 C 410.56 169.45 411.57 168.39 412.55 167.33 Z" fill="#eeffff" opacity="1.00" stroke="#eeffff" stroke-width="0.25" data-index="30"></path>
<path d="M 388.29 191.37 C 394.50 184.01 399.60 175.45 406.86 169.20 C 405.62 171.78 402.97 173.41 401.97 176.16 C 399.60 181.69 394.25 185.29 391.97 190.87 C 393.51 190.59 393.94 188.86 395.23 188.18 C 397.43 185.66 399.27 182.85 401.47 180.33 C 401.86 180.26 402.64 180.12 403.03 180.04 C 402.68 182.36 401.14 184.08 399.10 185.11 C 396.18 186.70 396.03 190.48 393.40 192.37 C 393.60 192.76 393.99 193.55 394.19 193.94 C 390.99 195.44 389.08 198.56 386.49 200.78 C 386.42 201.39 386.28 202.60 386.21 203.20 C 385.47 203.25 383.98 203.34 383.24 203.39 C 383.35 203.89 383.57 204.88 383.68 205.38 L 382.41 205.64 C 382.47 206.12 382.61 207.08 382.68 207.55 C 382.04 207.47 380.77 207.29 380.13 207.20 C 368.47 221.15 354.41 232.81 340.43 244.36 C 337.65 246.25 334.74 247.95 332.39 250.39 C 329.65 251.26 328.14 254.04 325.42 254.77 C 324.88 250.70 330.23 249.83 332.54 247.48 C 336.94 242.50 342.37 238.63 347.38 234.31 C 352.71 230.43 357.40 225.78 362.52 221.64 C 364.74 219.78 366.69 217.61 368.80 215.62 C 368.74 214.93 368.61 213.56 368.55 212.87 C 373.77 206.73 379.71 201.30 384.93 195.18 C 385.68 196.21 386.61 196.73 387.72 196.72 C 387.45 194.93 386.71 192.80 388.29 191.37 Z" fill="#f5fcff" opacity="1.00" stroke="#f5fcff" stroke-width="0.25" data-index="31" style="opacity: 1; visibility: visible; fill: rgb(8, 52, 89); display: none;"></path>
<path d="M 408.58 174.27 C 408.48 172.82 407.83 171.14 409.29 170.15 C 409.52 171.51 410.34 172.57 411.34 173.49 L 411.65 173.81 C 411.35 173.87 410.75 173.99 410.45 174.05 C 409.98 174.11 409.05 174.22 408.58 174.27 Z" fill="#68869f" opacity="1.00" stroke="#68869f" stroke-width="0.25" data-index="32"></path>
<path d="M 410.17 184.87 C 414.80 180.06 419.29 175.13 423.92 170.31 C 420.46 174.43 417.48 178.88 414.06 183.03 C 413.19 184.39 411.66 184.72 410.17 184.87 Z" fill="#7e91a0" opacity="1.00" stroke="#7e91a0" stroke-width="0.25" data-index="33"></path>
<path d="M 408.58 174.27 C 409.05 174.22 409.98 174.11 410.45 174.05 C 408.93 175.25 407.91 177.20 406.15 177.87 C 406.21 176.29 407.43 175.19 408.58 174.27 Z" fill="#def2fd" opacity="1.00" stroke="#def2fd" stroke-width="0.25" data-index="34"></path>
<path d="M 344.92 179.08 C 344.56 176.94 346.99 175.56 348.84 175.42 C 347.91 176.99 346.54 178.25 344.92 179.08 Z" fill="#9ab5c9" opacity="1.00" stroke="#9ab5c9" stroke-width="0.25" data-index="35"></path>
<path d="M 417.66 194.54 C 419.68 192.33 421.19 189.10 424.42 188.56 C 424.16 192.12 420.30 193.72 418.43 196.45 C 417.17 197.96 416.65 195.15 417.66 194.54 Z" fill="#e8eaeb" opacity="1.00" stroke="#e8eaeb" stroke-width="0.25" data-index="36" style="visibility: visible; fill: rgb(4, 25, 42); stroke: rgb(4, 25, 42); opacity: 1;"></path>
<path d="M 394.24 198.27 C 396.56 195.49 398.65 191.75 402.45 190.92 C 399.83 193.44 397.80 196.97 394.24 198.27 Z" fill="#def2fd" opacity="1.00" stroke="#def2fd" stroke-width="0.25" data-index="37"></path>
<path d="M 389.02 208.58 C 392.17 206.57 394.26 203.22 397.44 201.36 C 397.37 201.80 397.24 202.68 397.18 203.12 C 396.64 203.20 395.57 203.37 395.03 203.45 C 393.31 205.46 391.36 207.31 389.02 208.58 Z" fill="#143755" opacity="1.00" stroke="#143755" stroke-width="0.25" data-index="38" style="opacity: 1;"></path>
<path d="M 398.59 215.37 C 402.79 209.84 408.36 205.52 413.66 201.12 C 405.46 209.16 397.83 217.77 389.20 225.36 L 389.46 224.30 C 390.35 223.32 391.33 222.44 392.29 221.53 C 394.65 219.76 395.84 216.54 398.59 215.37 Z" fill="#143755" opacity="1.00" stroke="#143755" stroke-width="0.25" data-index="39" style="visibility: visible; fill: rgb(4, 25, 42); stroke: rgb(4, 25, 42); opacity: 1;"></path>
<path d="M 386.21 203.20 C 387.70 202.61 388.15 203.04 387.56 204.47 C 386.15 205.02 385.70 204.60 386.21 203.20 Z" fill="#5b7e9b" opacity="1.00" stroke="#5b7e9b" stroke-width="0.25" data-index="40"></path>
<path d="M 392.05 215.83 C 393.15 213.10 396.06 210.62 399.01 210.28 C 397.51 212.69 395.08 215.71 392.05 215.83 Z" fill="#8696a4" opacity="1.00" stroke="#8696a4" stroke-width="0.25" data-index="41" style="visibility: visible; fill: rgb(4, 25, 42); stroke: rgb(4, 25, 42); opacity: 1;"></path>
<path d="M 123.44 215.49 C 127.01 215.96 128.82 211.79 131.72 210.40 C 131.74 211.12 131.78 212.56 131.80 213.29 C 129.32 216.03 126.17 218.15 123.63 220.87 C 123.49 220.30 123.21 219.15 123.07 218.58 L 122.95 218.10 C 123.42 217.70 124.37 216.90 124.85 216.50 C 124.49 216.24 123.79 215.74 123.44 215.49 Z" fill="#627d94" opacity="1.00" stroke="#627d94" stroke-width="0.25" data-index="42" style="visibility: visible; fill: rgb(4, 25, 42); opacity: 1; stroke: rgb(4, 25, 42);"></path>
<path d="M 361.15 217.18 C 363.35 215.34 365.80 213.76 368.55 212.87 C 368.61 213.56 368.74 214.93 368.80 215.62 C 366.69 217.61 364.74 219.78 362.52 221.64 C 361.38 221.57 360.33 221.89 359.37 222.60 L 359.50 220.74 C 360.02 219.80 360.49 218.84 360.89 217.85 L 361.15 217.18 Z" fill="#7c95ad" opacity="1.00" stroke="#7c95ad" stroke-width="0.25" data-index="43" style="opacity: 1; visibility: visible; fill: rgb(8, 52, 89); stroke: rgb(8, 52, 89);"></path>
<path d="M 387.69 216.87 C 388.78 216.11 389.88 215.36 391.02 214.67 C 390.69 215.20 390.03 216.27 389.70 216.81 C 388.47 218.02 387.34 219.33 386.50 220.83 C 386.33 221.10 385.98 221.62 385.81 221.89 L 385.82 220.12 C 385.15 220.18 383.80 220.30 383.13 220.36 C 384.85 219.40 388.89 219.82 387.69 216.87 Z" fill="#7e91a0" opacity="1.00" stroke="#7e91a0" stroke-width="0.25" data-index="44" style="visibility: visible; fill: rgb(4, 25, 42); stroke: rgb(4, 25, 42);"></path>
<path d="M 394.26 216.25 C 394.79 216.92 394.79 216.92 394.26 216.25 Z" fill="#083459" opacity="1.00" stroke="#083459" stroke-width="0.25" data-index="45"></path>
<path d="M 121.30 217.52 C 121.71 217.66 122.53 217.95 122.95 218.10 L 123.07 218.58 C 121.57 219.84 120.09 221.12 118.60 222.38 C 116.59 222.56 114.97 223.65 113.57 225.03 C 113.60 225.71 113.66 227.07 113.69 227.74 C 113.24 228.73 112.81 229.73 112.42 230.75 C 112.03 232.13 111.03 232.77 109.42 232.67 C 109.70 232.12 110.27 231.03 110.56 230.48 C 108.31 229.78 110.19 227.95 111.45 227.49 C 111.92 227.12 112.87 226.38 113.35 226.00 C 113.38 225.72 110.48 224.91 111.68 224.12 C 114.08 222.83 116.02 220.92 117.90 218.99 L 117.57 220.65 C 118.82 219.62 120.06 218.57 121.30 217.52 Z" fill="#9ab5c9" opacity="1.00" stroke="#9ab5c9" stroke-width="0.25" data-index="46" style="opacity: 1; visibility: visible; fill: rgb(4, 25, 42); stroke: rgb(4, 25, 42);"></path>
<path d="M 389.70 216.81 C 390.42 216.58 391.88 216.12 392.61 215.90 C 393.32 217.77 392.72 219.68 392.29 221.53 C 391.33 222.44 390.35 223.32 389.46 224.30 L 389.20 225.36 C 389.08 226.88 387.80 229.10 386.09 227.69 C 384.87 226.92 385.30 225.58 386.17 224.72 C 386.82 224.41 388.13 223.79 388.79 223.48 C 388.17 223.26 386.92 222.83 386.30 222.61 L 386.50 220.83 C 387.34 219.33 388.47 218.02 389.70 216.81 Z" fill="#c1d2e2" opacity="1.00" stroke="#c1d2e2" stroke-width="0.25" data-index="47" style="visibility: visible; fill: rgb(4, 25, 42); stroke: rgb(4, 25, 42); opacity: 1;"></path>
<path d="M 344.99 232.04 C 349.84 226.83 355.46 222.43 360.89 217.85 C 360.49 218.84 360.02 219.80 359.50 220.74 C 358.59 221.77 357.60 222.73 356.61 223.69 C 356.90 225.58 354.87 225.97 353.60 226.68 C 350.75 228.49 348.25 231.01 344.99 232.04 Z" fill="#def2fd" opacity="1.00" stroke="#def2fd" stroke-width="0.25" data-index="48" style="opacity: 1; visibility: visible; fill: rgb(8, 52, 89); stroke: rgb(8, 52, 89);"></path>
<path d="M 369.25 225.28 C 370.89 223.55 372.58 221.89 374.42 220.38 C 375.79 221.58 375.42 223.08 375.06 224.61 C 376.12 225.33 377.32 225.89 378.61 226.03 C 379.14 224.22 380.29 222.59 382.38 222.55 C 381.50 223.56 381.36 224.58 381.94 225.60 C 379.41 227.87 376.93 230.20 374.45 232.53 C 374.34 231.87 374.11 230.55 373.99 229.89 C 373.94 230.54 373.83 231.86 373.78 232.52 C 370.80 236.10 366.27 237.70 363.01 240.94 C 359.03 244.70 354.82 248.18 350.69 251.75 C 348.23 253.91 346.10 256.54 343.10 257.97 C 344.51 254.99 347.44 253.09 349.69 250.78 C 355.11 246.54 359.42 241.12 364.59 236.62 C 367.40 234.48 369.10 231.36 370.25 228.08 C 371.82 226.52 373.71 225.07 374.22 222.77 C 372.60 223.66 371.30 225.58 369.25 225.28 Z" fill="#dbe4e9" opacity="1.00" stroke="#dbe4e9" stroke-width="0.25" data-index="49" style="opacity: 1; visibility: visible; fill: rgb(4, 25, 42); stroke: rgb(4, 25, 42);"></path>
<path d="M 385.81 221.89 C 385.98 221.62 386.33 221.10 386.50 220.83 L 386.30 222.61 C 386.92 222.83 388.17 223.26 388.79 223.48 C 388.13 223.79 386.82 224.41 386.17 224.72 C 384.45 223.79 383.62 226.23 382.75 227.24 C 382.64 227.38 382.43 227.66 382.32 227.81 L 381.93 228.11 L 381.98 228.79 L 380.41 228.33 C 377.31 231.26 374.26 234.25 371.12 237.13 C 367.09 240.27 362.57 243.19 360.01 247.76 C 359.03 249.35 357.81 250.78 356.60 252.21 C 357.39 252.20 358.97 252.19 359.77 252.19 C 358.97 253.06 358.12 253.87 357.21 254.62 C 356.72 254.34 355.76 253.77 355.27 253.48 C 355.42 252.93 355.71 251.82 355.86 251.26 C 354.85 251.69 353.84 252.11 352.83 252.54 C 352.30 252.35 351.22 251.95 350.69 251.75 C 354.82 248.18 359.03 244.70 363.01 240.94 C 366.27 237.70 370.80 236.10 373.78 232.52 C 373.83 231.86 373.94 230.54 373.99 229.89 C 374.11 230.55 374.34 231.87 374.45 232.53 C 376.93 230.20 379.41 227.87 381.94 225.60 C 383.28 224.41 384.66 223.26 385.81 221.89 Z" fill="#143755" opacity="1.00" stroke="#143755" stroke-width="0.25" data-index="50" style="opacity: 1; visibility: visible; fill: rgb(4, 25, 42); stroke: rgb(4, 25, 42);"></path>
<path d="M 369.25 225.28 C 371.30 225.58 372.60 223.66 374.22 222.77 C 373.71 225.07 371.82 226.52 370.25 228.08 L 370.06 226.59 C 367.15 228.73 365.35 232.47 361.49 233.08 C 364.06 230.46 366.48 227.69 369.25 225.28 Z" fill="#91adc1" opacity="1.00" stroke="#91adc1" stroke-width="0.25" data-index="51"></path>
<path d="M 105.63 228.75 C 106.55 227.79 107.72 227.16 109.05 226.98 C 104.32 229.77 100.99 234.49 95.88 236.72 C 97.97 232.79 102.66 231.77 105.63 228.75 Z" fill="#7e91a0" opacity="1.00" stroke="#7e91a0" stroke-width="0.25" data-index="52" style="visibility: visible; fill: rgb(4, 25, 42); stroke: rgb(4, 25, 42); opacity: 1;"></path>
<path d="M 361.49 233.08 C 365.35 232.47 367.15 228.73 370.06 226.59 L 370.25 228.08 C 369.10 231.36 367.40 234.48 364.59 236.62 C 363.48 236.29 362.30 236.40 361.49 237.29 C 359.04 239.33 356.69 241.48 354.39 243.68 C 353.51 241.78 351.59 244.07 352.31 245.38 C 350.23 247.21 347.71 248.48 344.99 249.01 C 346.77 245.56 349.96 243.22 352.88 240.79 C 355.89 238.38 358.50 235.52 361.49 233.08 Z" fill="#708fa4" opacity="1.00" stroke="#708fa4" stroke-width="0.25" data-index="53" style="opacity: 1; visibility: visible; fill: rgb(4, 25, 42); stroke: rgb(4, 25, 42);"></path>
<path d="M 382.32 227.81 C 382.43 227.66 382.64 227.38 382.75 227.24 C 382.64 227.38 382.43 227.66 382.32 227.81 Z" fill="#d0e6fb" opacity="1.00" stroke="#d0e6fb" stroke-width="0.25" data-index="54"></path>
<path d="M 382.75 227.24 L 383.39 227.33 C 383.37 227.81 383.32 228.77 383.30 229.25 C 383.16 229.47 382.90 229.90 382.77 230.12 C 382.68 230.22 382.51 230.42 382.42 230.52 C 382.51 230.42 382.68 230.22 382.77 230.12 L 383.17 229.97 L 383.30 229.25 L 384.80 229.34 C 385.16 228.96 385.87 228.20 386.23 227.81 C 386.28 229.39 384.48 229.70 383.66 230.71 C 380.88 233.70 378.17 236.76 375.64 239.96 C 375.69 239.01 375.79 237.11 375.84 236.15 C 373.42 239.14 370.56 241.73 368.03 244.61 L 368.25 245.74 C 369.98 244.04 371.73 242.36 373.56 240.77 L 373.43 242.63 C 371.61 244.04 370.37 246.44 368.36 247.40 L 367.58 246.49 L 366.55 246.01 C 364.26 247.78 362.19 249.81 360.12 251.82 C 360.52 248.06 365.20 247.01 367.27 244.25 C 369.84 240.19 374.21 237.87 377.38 234.35 C 376.99 235.04 376.21 236.42 375.82 237.11 C 378.06 235.62 379.79 233.52 381.99 231.97 C 381.21 231.88 379.67 231.72 378.89 231.64 C 380.15 230.97 381.28 230.07 381.98 228.79 C 382.07 228.54 382.24 228.05 382.32 227.81 C 382.43 227.66 382.64 227.38 382.75 227.24 Z" fill="#143755" opacity="1.00" stroke="#143755" stroke-width="0.25" data-index="55" style="opacity: 1; visibility: visible; fill: rgb(4, 25, 42); stroke: rgb(4, 25, 42);"></path>
<path d="M 381.93 228.11 L 382.32 227.81 C 382.24 228.05 382.07 228.54 381.98 228.79 L 381.93 228.11 Z" fill="#bfd5ec" opacity="1.00" stroke="#bfd5ec" stroke-width="0.25" data-index="56"></path>
<path d="M 380.41 228.33 L 381.98 228.79 C 381.28 230.07 380.15 230.97 378.89 231.64 C 378.84 232.74 378.34 233.64 377.38 234.35 C 374.21 237.87 369.84 240.19 367.27 244.25 C 365.20 247.01 360.52 248.06 360.12 251.82 L 359.74 251.79 L 359.77 252.19 C 358.97 252.19 357.39 252.20 356.60 252.21 C 357.81 250.78 359.03 249.35 360.01 247.76 C 362.57 243.19 367.09 240.27 371.12 237.13 C 374.26 234.25 377.31 231.26 380.41 228.33 Z" fill="#6e8da8" opacity="1.00" stroke="#6e8da8" stroke-width="0.25" data-index="57" style="opacity: 1; visibility: visible; fill: rgb(4, 25, 42); stroke: rgb(4, 25, 42);"></path>
<path d="M 382.77 230.12 C 382.90 229.90 383.16 229.47 383.30 229.25 L 383.17 229.97 L 382.77 230.12 Z" fill="#f0ffff" opacity="1.00" stroke="#f0ffff" stroke-width="0.25" data-index="58"></path>
<path d="M 382.42 230.52 C 382.51 230.42 382.68 230.22 382.77 230.12 C 382.68 230.22 382.51 230.42 382.42 230.52 Z" fill="#f1ffff" opacity="1.00" stroke="#f1ffff" stroke-width="0.25" data-index="59"></path>
<path d="M 377.38 234.35 C 378.34 233.64 378.84 232.74 378.89 231.64 C 379.67 231.72 381.21 231.88 381.99 231.97 C 379.79 233.52 378.06 235.62 375.82 237.11 C 376.21 236.42 376.99 235.04 377.38 234.35 Z" fill="#eeffff" opacity="1.00" stroke="#eeffff" stroke-width="0.25" data-index="60"></path>
<path d="M 114.03 233.94 C 115.30 234.55 115.27 235.23 113.96 236.00 C 112.68 235.39 112.70 234.70 114.03 233.94 Z" fill="#325b7d" opacity="1.00" stroke="#325b7d" stroke-width="0.25" data-index="61"></path>
<path d="M 368.03 244.61 C 370.56 241.73 373.42 239.14 375.84 236.15 C 375.79 237.11 375.69 239.01 375.64 239.96 C 375.78 241.39 374.73 242.36 373.43 242.63 L 373.56 240.77 C 371.73 242.36 369.98 244.04 368.25 245.74 L 368.03 244.61 Z" fill="#dbe4e9" opacity="1.00" stroke="#dbe4e9" stroke-width="0.25" data-index="62" style="visibility: visible; fill: rgb(4, 25, 42); opacity: 1; stroke: rgb(4, 25, 42);"></path>
<path d="M 407.32 238.13 C 410.14 237.20 408.08 240.57 406.54 240.60 C 404.85 240.48 406.32 238.24 407.32 238.13 Z" fill="#9da5a9" opacity="1.00" stroke="#9da5a9" stroke-width="0.25" data-index="63"></path>
<path d="M 378.32 239.12 C 378.98 239.74 378.98 239.74 378.32 239.12 Z" fill="#93a0a9" opacity="1.00" stroke="#93a0a9" stroke-width="0.25" data-index="64"></path>
<path d="M 352.31 245.38 C 351.59 244.07 353.51 241.78 354.39 243.68 C 353.87 244.11 352.83 244.96 352.31 245.38 Z" fill="#9ab5c9" opacity="1.00" stroke="#9ab5c9" stroke-width="0.25" data-index="65" style="opacity: 1;"></path>
<path d="M 360.12 251.82 C 362.19 249.81 364.26 247.78 366.55 246.01 L 367.58 246.49 C 364.48 249.05 361.68 251.96 358.62 254.57 C 358.27 254.58 357.56 254.61 357.21 254.62 C 358.12 253.87 358.97 253.06 359.77 252.19 C 359.85 252.10 360.03 251.92 360.12 251.82 Z" fill="#def2fd" opacity="1.00" stroke="#def2fd" stroke-width="0.25" data-index="66" style="opacity: 1; visibility: visible; fill: rgb(4, 25, 42); stroke: rgb(4, 25, 42);"></path>
<path d="M 84.08 263.68 C 88.50 259.00 92.32 253.65 97.53 249.72 L 97.26 250.92 C 93.92 254.36 91.10 258.27 87.58 261.56 C 86.53 262.40 85.69 264.30 84.08 263.68 Z" fill="#143755" opacity="1.00" stroke="#143755" stroke-width="0.25" data-index="67" style="opacity: 1;"></path>
<path d="M 359.74 251.79 L 360.12 251.82 C 360.03 251.92 359.85 252.10 359.77 252.19 L 359.74 251.79 Z" fill="#143755" opacity="1.00" stroke="#143755" stroke-width="0.25" data-index="68"></path>
<path d="M 94.40 268.83 C 94.24 267.01 96.09 265.48 97.79 265.32 C 97.01 266.78 95.92 268.10 94.40 268.83 Z" fill="#9ab5c9" opacity="1.00" stroke="#9ab5c9" stroke-width="0.25" data-index="69"></path>
<path d="M 384.06 272.76 C 385.07 271.19 386.82 270.37 388.35 269.40 C 388.37 269.57 388.41 269.91 388.43 270.08 C 386.73 270.63 385.97 272.63 384.06 272.76 Z" fill="#143755" opacity="1.00" stroke="#143755" stroke-width="0.25" data-index="70"></path>
<path d="M 103.37 273.26 C 104.94 273.39 103.64 275.78 102.62 275.91 C 100.88 275.80 102.31 273.39 103.37 273.26 Z" fill="#5981a5" opacity="1.00" stroke="#5981a5" stroke-width="0.25" data-index="71" style="opacity: 1;"></path>
<path d="M 364.79 289.06 C 368.25 283.42 374.42 279.95 378.66 274.88 C 379.16 275.27 380.17 276.05 380.68 276.45 L 380.23 276.98 C 378.36 279.23 375.76 280.71 373.84 282.92 C 372.15 284.39 370.68 286.82 368.13 286.57 C 367.04 287.43 365.95 288.30 364.79 289.06 Z" fill="#def2fd" opacity="1.00" stroke="#def2fd" stroke-width="0.25" data-index="72" style="opacity: 1;"></path>
<path d="M 405.06 281.95 C 407.02 281.10 408.33 279.20 410.31 278.45 C 410.49 278.66 410.85 279.10 411.03 279.31 C 407.87 280.41 405.90 283.30 403.51 285.47 C 399.19 291.01 392.98 294.84 389.07 300.73 C 388.77 300.98 388.17 301.47 387.87 301.72 L 387.09 301.77 C 387.56 300.03 388.03 298.30 388.61 296.59 C 390.19 294.86 392.52 293.87 393.72 291.74 C 396.76 290.35 398.71 287.38 401.79 286.10 C 403.36 285.16 404.54 283.71 405.06 281.95 Z" fill="#103453" opacity="1.00" stroke="#103453" stroke-width="0.25" data-index="73"></path>
<path d="M 108.00 283.98 C 110.00 282.34 111.50 280.14 113.75 278.80 C 111.65 282.83 108.14 285.90 105.48 289.56 C 105.21 289.53 104.66 289.47 104.38 289.44 C 99.60 294.50 94.53 299.53 88.59 303.23 C 89.02 301.62 90.34 300.56 91.46 299.44 C 95.13 296.16 98.40 292.45 101.51 288.64 C 99.84 288.09 98.31 288.41 96.93 289.60 C 97.36 288.16 97.59 286.70 97.62 285.21 C 98.23 284.30 99.10 283.78 100.24 283.64 C 100.11 285.17 99.97 286.69 99.84 288.22 C 102.57 286.85 105.36 285.55 108.00 283.98 Z" fill="#487093" opacity="1.00" stroke="#487093" stroke-width="0.25" data-index="74" style="visibility: visible; fill: rgb(4, 25, 42); opacity: 1; stroke: rgb(4, 25, 42);"></path>
<path d="M 128.19 280.38 C 129.83 279.81 130.36 280.33 129.78 281.94 C 128.09 282.53 127.56 282.01 128.19 280.38 Z" fill="#376388" opacity="1.00" stroke="#376388" stroke-width="0.25" data-index="75"></path>
<path d="M 121.85 287.60 C 123.59 286.01 124.85 283.51 127.31 282.94 C 125.95 284.69 124.35 288.46 121.85 287.60 Z" fill="#7da0b6" opacity="1.00" stroke="#7da0b6" stroke-width="0.25" data-index="76" style="visibility: visible; fill: rgb(8, 52, 89); stroke: rgb(8, 52, 89); opacity: 1;"></path>
<path d="M 107.45 292.45 C 110.04 288.99 113.27 285.99 117.01 283.81 C 113.88 286.44 112.45 290.80 108.73 292.66 C 108.41 292.60 107.77 292.50 107.45 292.45 Z" fill="#def2fd" opacity="1.00" stroke="#def2fd" stroke-width="0.25" data-index="77" style="visibility: visible; fill: rgb(8, 52, 89); stroke: rgb(8, 52, 89); opacity: 1;"></path>
<path d="M 111.87 293.94 C 114.85 291.56 117.34 288.58 120.58 286.53 C 119.52 288.77 116.80 289.56 115.98 291.92 C 118.42 291.07 120.15 289.04 122.43 287.89 C 115.71 295.30 109.43 303.13 102.10 309.98 C 100.40 311.19 98.77 312.50 97.26 313.94 C 97.29 313.42 97.34 312.39 97.37 311.87 C 97.39 311.37 97.41 310.87 97.43 310.38 C 98.45 309.31 99.45 308.20 99.96 306.79 C 97.63 307.79 96.07 309.86 94.25 311.54 C 93.66 310.97 93.08 310.40 92.50 309.83 C 92.95 309.31 93.84 308.26 94.29 307.74 C 93.08 307.71 91.88 307.65 90.68 307.57 C 93.99 304.23 97.25 300.83 100.57 297.49 C 99.78 301.59 94.76 302.85 94.12 307.07 C 98.69 305.14 100.68 299.30 105.89 298.90 C 106.60 298.26 107.24 297.55 107.91 296.86 C 108.97 295.83 110.05 294.81 111.15 293.82 C 111.60 294.43 112.51 295.65 112.96 296.26 C 112.69 295.68 112.14 294.52 111.87 293.94 Z" fill="#f6fafc" opacity="1.00" stroke="#f6fafc" stroke-width="0.25" data-index="78" style="opacity: 1; visibility: visible; fill: rgb(4, 25, 42); stroke: rgb(4, 25, 42);"></path>
<path d="M 89.02 306.20 C 94.39 300.85 99.42 295.14 105.01 290.01 C 105.22 290.45 105.64 291.33 105.85 291.78 C 105.54 292.33 104.92 293.43 104.61 293.98 L 104.12 294.12 L 103.85 294.53 C 102.71 295.47 101.58 296.42 100.57 297.49 C 97.25 300.83 93.99 304.23 90.68 307.57 C 90.26 307.23 89.44 306.55 89.02 306.20 Z" fill="#0a2b47" opacity="1.00" stroke="#0a2b47" stroke-width="0.25" data-index="79" style="opacity: 1; visibility: visible; fill: rgb(4, 25, 42); stroke: rgb(4, 25, 42);"></path>
<path d="M 367.56 293.01 C 368.26 292.38 368.97 291.75 369.68 291.13 C 370.48 292.00 371.29 292.87 372.13 293.72 L 372.60 294.21 C 372.04 294.71 371.49 295.22 370.94 295.73 C 371.52 295.78 372.68 295.89 373.26 295.94 C 374.75 298.03 371.58 299.55 370.33 300.81 C 370.04 300.42 369.45 299.65 369.16 299.26 C 368.86 298.86 368.26 298.06 367.96 297.66 C 368.86 296.66 369.81 295.71 370.81 294.83 C 369.73 294.21 368.64 293.60 367.56 293.01 Z" fill="#dde6eb" opacity="1.00" stroke="#dde6eb" stroke-width="0.25" data-index="80"></path>
<path d="M 104.61 293.98 C 104.92 293.43 105.54 292.33 105.85 291.78 C 106.04 291.98 106.43 292.38 106.62 292.58 C 106.83 292.55 107.24 292.48 107.45 292.45 C 107.77 292.50 108.41 292.60 108.73 292.66 C 108.27 294.01 107.89 295.41 107.91 296.86 C 107.24 297.55 106.60 298.26 105.89 298.90 C 100.68 299.30 98.69 305.14 94.12 307.07 C 94.76 302.85 99.78 301.59 100.57 297.49 C 101.58 296.42 102.71 295.47 103.85 294.53 L 104.37 294.42 L 104.61 293.98 Z" fill="#4a6b88" opacity="1.00" stroke="#4a6b88" stroke-width="0.25" data-index="81" style="opacity: 1; visibility: visible; fill: rgb(4, 25, 42); stroke: rgb(4, 25, 42);"></path>
<path d="M 104.12 294.12 L 104.61 293.98 L 104.37 294.42 L 103.85 294.53 L 104.12 294.12 Z" fill="#88aed2" opacity="1.00" stroke="#88aed2" stroke-width="0.25" data-index="82" style="opacity: 1;"></path>
<path d="M 364.57 306.06 C 361.24 302.83 366.48 300.31 367.96 297.66 C 368.26 298.06 368.86 298.86 369.16 299.26 C 367.43 301.39 367.27 304.60 364.57 306.06 Z" fill="#9ab5c9" opacity="1.00" stroke="#9ab5c9" stroke-width="0.25" data-index="83"></path>
<path d="M 69.91 321.94 C 73.99 315.92 78.17 309.51 84.40 305.43 C 84.37 305.84 84.30 306.68 84.27 307.09 C 78.41 311.75 74.31 318.12 69.46 323.75 C 69.57 323.30 69.79 322.40 69.91 321.94 Z" fill="#143755" opacity="1.00" stroke="#143755" stroke-width="0.25" data-index="84" style="visibility: visible; fill: rgb(4, 25, 42); opacity: 1;"></path>
<path d="M 87.73 306.99 C 87.99 306.75 88.53 306.26 88.79 306.01 L 89.02 306.20 C 89.44 306.55 90.26 307.23 90.68 307.57 C 91.88 307.65 93.08 307.71 94.29 307.74 C 93.84 308.26 92.95 309.31 92.50 309.83 C 93.08 310.40 93.66 310.97 94.25 311.54 C 96.07 309.86 97.63 307.79 99.96 306.79 C 99.45 308.20 98.45 309.31 97.43 310.38 C 97.41 310.87 97.39 311.37 97.37 311.87 C 96.33 311.91 95.33 312.13 94.37 312.53 C 93.32 312.24 92.27 311.97 91.21 311.72 C 91.61 311.05 92.40 309.72 92.80 309.06 C 91.95 308.92 90.25 308.63 89.40 308.49 C 89.06 308.19 88.39 307.58 88.05 307.28 L 87.73 306.99 Z" fill="#8398a5" opacity="1.00" stroke="#8398a5" stroke-width="0.25" data-index="85" style="opacity: 1; visibility: visible; fill: rgb(4, 25, 42); stroke: rgb(4, 25, 42);"></path>
<path d="M 80.01 317.10 C 82.69 313.83 85.39 310.57 88.05 307.28 C 88.39 307.58 89.06 308.19 89.40 308.49 C 90.25 308.63 91.95 308.92 92.80 309.06 C 92.40 309.72 91.61 311.05 91.21 311.72 L 90.80 311.68 C 91.49 312.24 92.18 312.80 92.88 313.36 C 91.73 314.31 90.51 315.21 89.53 316.35 C 87.78 318.35 85.40 320.30 82.65 320.54 C 82.78 322.54 80.72 323.21 79.78 324.64 C 78.14 326.73 76.50 329.13 73.92 330.11 C 74.74 328.00 77.21 326.83 77.02 324.31 C 74.84 325.97 73.22 328.22 71.03 329.87 C 72.27 324.63 76.36 320.80 80.01 317.10 Z" fill="#10385c" opacity="1.00" stroke="#10385c" stroke-width="0.25" data-index="86" style="opacity: 1; visibility: visible; fill: rgb(4, 25, 42);"></path>
<path d="M 97.26 313.94 C 98.77 312.50 100.40 311.19 102.10 309.98 C 101.10 314.31 97.43 317.42 92.96 317.56 C 92.08 317.96 90.32 318.76 89.43 319.15 C 89.46 318.45 89.51 317.05 89.53 316.35 C 90.51 315.21 91.73 314.31 92.88 313.36 C 92.18 312.80 91.49 312.24 90.80 311.68 L 91.21 311.72 C 92.27 311.97 93.32 312.24 94.37 312.53 C 95.33 312.13 96.33 311.91 97.37 311.87 C 97.34 312.39 97.29 313.42 97.26 313.94 Z" fill="#527591" opacity="1.00" stroke="#527591" stroke-width="0.25" data-index="87" style="opacity: 1; visibility: visible; fill: rgb(4, 25, 42); stroke: rgb(4, 25, 42);"></path>
<path d="M 94.40 313.90 C 95.91 313.27 96.24 313.72 95.39 315.25 C 94.00 315.82 93.67 315.37 94.40 313.90 Z" fill="#0f3756" opacity="1.00" stroke="#0f3756" stroke-width="0.25" data-index="88"></path>
<path d="M 79.53 338.87 C 81.37 337.91 82.54 334.06 84.88 334.82 C 83.43 336.59 81.44 338.15 81.02 340.54 C 80.52 339.98 80.02 339.43 79.53 338.87 Z" fill="#def2fd" opacity="1.00" stroke="#def2fd" stroke-width="0.25" data-index="89"></path>
<path d="M 79.06 345.12 C 77.90 342.22 82.06 340.24 84.11 338.87 C 82.96 341.28 81.86 344.22 79.06 345.12 Z" fill="#eeffff" opacity="1.00" stroke="#eeffff" stroke-width="0.25" data-index="90"></path>
<path d="M 180.25 364.73 C 180.89 363.05 181.81 360.88 183.95 360.99 C 183.37 362.77 181.96 364.03 180.25 364.73 Z" fill="#9ab5c9" opacity="1.00" stroke="#9ab5c9" stroke-width="0.25" data-index="91"></path>
<path d="M 91.88 379.03 C 92.26 378.72 93.03 378.11 93.41 377.81 C 93.41 380.06 93.77 382.34 95.77 383.70 L 95.92 383.85 C 94.17 385.32 92.42 386.80 90.63 388.22 C 91.01 387.26 91.40 386.31 91.79 385.36 C 90.96 384.80 90.12 384.23 89.28 383.68 C 90.09 382.79 90.90 381.90 91.71 381.03 C 91.75 380.53 91.84 379.53 91.88 379.03 Z" fill="#52718d" opacity="1.00" stroke="#52718d" stroke-width="0.25" data-index="92"></path>
<path d="M 185.20 380.96 C 186.82 380.41 187.35 380.99 186.79 382.68 C 185.23 383.17 184.70 382.60 185.20 380.96 Z" fill="#386288" opacity="1.00" stroke="#386288" stroke-width="0.25" data-index="93"></path>
<path d="M 225.47 380.96 C 225.90 381.06 226.77 381.26 227.20 381.37 C 223.13 385.45 218.87 389.48 214.00 392.61 C 213.88 392.32 213.63 391.73 213.50 391.44 C 212.62 392.13 211.66 392.65 210.61 392.99 L 211.18 391.75 C 211.54 390.98 211.94 390.24 212.38 389.52 C 212.33 389.25 212.22 388.71 212.16 388.43 C 213.83 387.26 215.51 386.13 217.23 385.04 C 216.20 386.99 214.07 388.67 214.50 391.10 C 218.62 388.29 221.66 384.16 225.47 380.96 Z" fill="#c1d2e2" opacity="1.00" stroke="#c1d2e2" stroke-width="0.25" data-index="94" style="opacity: 1;"></path>
<path d="M 110.67 391.40 C 112.35 388.89 114.28 386.34 117.11 385.06 C 113.72 390.50 108.99 395.02 105.46 400.39 C 104.45 398.44 104.83 396.32 105.17 394.27 C 105.32 394.11 105.63 393.80 105.79 393.64 C 107.07 392.15 108.56 390.72 110.67 391.40 Z" fill="#def2fd" opacity="1.00" stroke="#def2fd" stroke-width="0.25" data-index="95"></path>
<path d="M 97.67 392.83 C 99.09 391.25 100.54 389.65 102.37 388.54 C 102.25 391.38 99.62 393.00 97.56 394.51 C 95.37 393.03 93.37 394.82 91.14 394.91 C 90.67 393.17 90.78 391.37 91.11 389.62 L 91.17 390.07 C 91.27 391.00 91.48 392.86 91.58 393.80 C 93.57 393.29 95.59 392.67 97.67 392.83 Z" fill="#9ab5c9" opacity="1.00" stroke="#9ab5c9" stroke-width="0.25" data-index="96"></path>
<path d="M 205.03 396.97 C 207.15 395.32 209.16 393.53 211.18 391.75 L 210.61 392.99 C 209.26 394.93 207.09 395.98 205.03 396.97 Z" fill="#143755" opacity="1.00" stroke="#143755" stroke-width="0.25" data-index="97"></path>
<path d="M 136.08 396.11 C 139.27 394.85 135.95 399.38 136.08 396.11 Z" fill="#6691b4" opacity="1.00" stroke="#6691b4" stroke-width="0.25" data-index="98"></path>
<path d="M 138.87 402.52 C 139.45 402.99 140.02 403.47 140.60 403.96 C 131.14 412.80 123.85 423.65 115.04 433.09 C 112.93 436.06 110.99 439.16 108.20 441.57 C 108.69 442.94 107.31 443.79 106.30 444.28 C 106.05 444.85 105.55 445.97 105.29 446.53 C 105.00 446.27 104.40 445.74 104.10 445.48 C 108.05 441.57 112.12 437.64 114.78 432.71 C 118.81 428.10 122.04 422.83 126.24 418.35 C 130.04 412.74 135.06 408.05 138.87 402.52 Z" fill="#143755" opacity="1.00" stroke="#143755" stroke-width="0.25" data-index="99" style="opacity: 1;"></path>
<path d="M 249.26 409.32 C 250.20 408.38 251.33 407.69 252.65 407.44 C 250.48 410.01 247.46 411.70 244.88 413.82 C 245.92 411.96 247.55 410.55 249.26 409.32 Z" fill="#def2fd" opacity="1.00" stroke="#def2fd" stroke-width="0.25" data-index="100"></path>
<path d="M 212.46 416.48 C 213.37 414.26 215.38 411.39 217.98 411.26 C 216.91 413.14 215.10 414.40 213.65 415.95 C 212.90 416.65 212.37 417.75 211.16 417.67 C 211.49 417.37 212.14 416.78 212.46 416.48 Z" fill="#def2fd" opacity="1.00" stroke="#def2fd" stroke-width="0.25" data-index="101"></path>
<path d="M 253.26 415.76 C 254.67 415.41 256.03 414.87 257.34 414.24 C 257.29 414.74 257.20 415.76 257.15 416.26 C 257.99 416.01 259.68 415.52 260.52 415.27 C 258.35 417.01 255.16 417.54 253.71 420.05 C 254.40 420.18 255.78 420.43 256.47 420.55 C 252.76 421.97 249.74 424.67 246.09 426.24 C 244.08 423.69 245.97 419.77 249.08 419.50 C 251.79 419.88 254.66 418.36 256.22 416.20 L 252.62 417.53 C 252.78 417.09 253.10 416.20 253.26 415.76 Z" fill="#def2fd" opacity="1.00" stroke="#def2fd" stroke-width="0.25" data-index="102" style="opacity: 1;"></path>
<path d="M 228.23 417.80 C 227.47 416.19 230.19 415.30 231.23 414.57 C 232.63 415.70 229.55 418.05 228.23 417.80 Z" fill="#143755" opacity="1.00" stroke="#143755" stroke-width="0.25" data-index="103"></path>
<path d="M 260.52 415.27 C 261.27 415.69 262.00 416.15 262.75 416.61 C 260.76 418.09 258.76 419.58 256.47 420.55 C 255.78 420.43 254.40 420.18 253.71 420.05 C 255.16 417.54 258.35 417.01 260.52 415.27 Z" fill="#345874" opacity="1.00" stroke="#345874" stroke-width="0.25" data-index="104"></path>
<path d="M 252.75 420.70 C 253.30 419.93 253.30 419.93 252.75 420.70 Z" fill="#143755" opacity="1.00" stroke="#143755" stroke-width="0.25" data-index="105"></path>
<path d="M 208.44 421.47 C 209.24 421.55 210.05 421.62 210.86 421.68 C 205.21 429.86 197.49 436.50 192.23 445.00 C 193.15 441.32 195.25 437.49 198.28 435.14 C 201.22 430.29 204.78 425.78 208.44 421.47 Z" fill="#103453" opacity="1.00" stroke="#103453" stroke-width="0.25" data-index="106" style="opacity: 1;"></path>
<path d="M 246.06 423.52 C 248.31 422.65 250.17 420.20 252.75 420.70 C 251.12 422.09 248.89 422.41 247.23 423.73 C 246.93 423.67 246.35 423.57 246.06 423.52 Z" fill="#143755" opacity="1.00" stroke="#143755" stroke-width="0.25" data-index="107"></path>
<path d="M 226.24 422.10 C 229.53 422.19 224.76 425.16 226.24 422.10 Z" fill="#c7c8ca" opacity="1.00" stroke="#c7c8ca" stroke-width="0.25" data-index="108"></path>
<path d="M 197.12 432.76 C 198.36 430.84 199.37 428.63 201.33 427.32 C 200.80 429.69 199.00 431.39 197.12 432.76 Z" fill="#143755" opacity="1.00" stroke="#143755" stroke-width="0.25" data-index="109"></path>
<path d="M368.92,88.39c5.16,-5.32 11.11,-9.84 17.14,-14.11c-0.84,1.48 -2.59,2.43 -2.74,4.24c1.58,-0.09 3.15,-0.01 4.71,0.24c1.71,-0.98 3.45,-1.99 4.71,-3.57c-0.04,0.72 -0.12,2.16 -0.16,2.88l0.51,-1.37c0.33,-0.12 1,-0.35 1.33,-0.47c-0.03,-0.45 -0.1,-1.33 -0.13,-1.78c1.85,-0.19 3.32,-1.7 5.35,-1.11c-0.84,2.66 -3.32,4.62 -5.78,5.8c0.99,0.76 1.57,1.73 1.74,2.93c1.89,-1.94 4.44,-3.24 7.17,-3.4c-1.59,1.98 -5.73,3.2 -5.05,6.05l-0.96,0.15l-0.75,0.33l-0.55,0.24c0.75,0.5 1.52,0.98 2.28,1.49c-2.29,1.72 -5.09,3.15 -6.59,5.68c4.29,-0.13 6.25,-5.56 10.66,-5.57c-2.13,2.53 -3.47,5.59 -5.67,8.05c1.37,-0.89 2.75,-1.76 4.15,-2.62c-0.67,1.95 -1.61,4.35 -3.64,5.26c-0.17,1.56 -0.78,2.96 -1.84,4.23c3.06,-0.91 4.16,-4.41 6.86,-5.96c-1.11,4.41 -6.21,6.43 -8.88,9.88c-1.15,1.75 -3.26,2.9 -3.71,5.06c1.47,-0.28 2.58,-1.38 3.97,-1.87c-0.2,1 -0.71,1.83 -1.51,2.48c-0.65,1.3 -1.15,2.66 -1.64,4.01c0.76,-0.03 2.29,-0.09 3.06,-0.11c-1.04,1.7 -2.66,2.81 -4.25,3.93c-0.16,0.13 -0.49,0.39 -0.65,0.53c0.18,0.42 0.54,1.28 0.72,1.71c-0.94,0.98 -1.88,2.01 -1.68,3.48c1.98,-1.24 3.42,-3.1 4.85,-4.91c0.85,0.19 1.71,0.38 2.58,0.55l0.52,-0.27c1.49,-1.04 2.95,-2.12 4.44,-3.18c-0.07,0.55 -0.2,1.65 -0.27,2.19c-2.3,1.91 -5.22,3.2 -6.85,5.81c-1.2,1.92 -3.11,3.17 -4.87,4.51c-0.86,3.75 -4.42,5.63 -6.98,8.11c-0.22,1.15 -0.32,2.3 -0.28,3.47c-3.68,3.53 -6.02,8.63 -10.74,10.91c-1.4,2.01 -3.45,3.28 -5.38,4.68c-1.45,2.54 -3.85,4.33 -5.34,6.82l2.97,-0.74l-1.47,1.69c-0.42,0.38 -1.24,1.15 -1.66,1.53c0.21,0.3 0.63,0.89 0.84,1.19c-0.28,0.87 -0.84,2.61 -1.12,3.47c5.59,-2.16 8.8,-7.78 13.52,-11.26c0.34,-0.01 1.01,-0.01 1.34,-0.01c-0.55,0.78 -1.65,2.35 -2.21,3.13l1.85,-0.4c2.71,1.89 0.43,4.53 -0.8,6.57c-0.28,0.53 -0.86,1.6 -1.15,2.14c0.82,0.15 2.45,0.45 3.27,0.6c1.08,-0.92 2.16,-1.84 3.25,-2.75c7.01,-6.28 14.96,-11.38 22.17,-17.44c4,-4.19 9.48,-6.68 13.19,-11.21c-0.47,1.11 -0.96,2.19 -1.43,3.29c-1.59,1.71 -3.15,3.44 -4.61,5.25c-1.12,1.37 -2.34,2.69 -3.09,4.31c-0.39,-0.02 -1.18,-0.05 -1.58,-0.07c0.99,-0.69 1.2,-3.65 -0.61,-2.32c-0.67,0.8 -1.11,1.72 -1.33,2.74c0.49,-0.1 1.46,-0.31 1.94,-0.42c-1.24,2.27 2.38,2.43 1.58,0.07c0.93,-0.56 2.78,-1.7 3.71,-2.26c-0.7,1.33 -2.08,4 -2.78,5.33c1.77,-1.41 3.35,-3.01 4.74,-4.79c7.07,-6.47 14.23,-12.86 21.34,-19.29c-4.25,4 -7.63,8.86 -12.31,12.39c-1.84,2.57 -2.48,5.74 -4.07,8.44c0.15,0.44 0.46,1.31 0.61,1.75c0.51,-0.41 1.54,-1.24 2.05,-1.65c-0.41,1.03 -1.23,3.09 -1.64,4.13c1.11,-0.88 3.34,-2.63 4.46,-3.5c-0.43,1.08 -1.27,3.23 -1.7,4.31c2.88,-1.34 4.69,-5.75 8.34,-4.36c2.33,-3.5 3.33,-7.69 5.65,-11.17l1.52,-0.12c-1.61,3.84 -1.39,8.6 -4.67,11.58c-0.64,2.09 -2.7,3.21 -3.57,5.17c-1.07,1.99 -2.28,3.9 -3.64,5.7c-0.06,0.43 -0.17,1.3 -0.23,1.74c-3.53,2.54 -5.24,6.61 -7.86,9.92c-4.44,4.47 -9.09,8.81 -12.7,14.01c1.33,0.59 2.71,-0.08 4.05,-0.25c-2.44,2.14 -4.8,4.36 -6.98,6.76c-1.44,1.64 -3.69,2.61 -4.23,4.93c0.01,-0.74 0.03,-2.23 0.04,-2.97c-1.76,0.7 -1.77,2.06 -0.46,3.24c-1.56,0.25 -2.38,1.68 -3.48,2.63c-4.15,4.2 -9.32,7.53 -12.39,12.69c-0.9,1.06 -1.98,1.95 -3.02,2.87c-1.84,1.51 -3.53,3.17 -5.17,4.9c-2.77,2.41 -5.19,5.18 -7.76,7.8c-2.99,2.44 -5.6,5.3 -8.61,7.71c-2.92,2.43 -6.11,4.77 -7.89,8.22c2.72,-0.53 5.24,-1.8 7.32,-3.63c0.52,-0.42 1.56,-1.27 2.08,-1.7c2.3,-2.2 4.65,-4.35 7.1,-6.39c0.81,-0.89 1.99,-1 3.1,-0.67c-5.17,4.5 -9.48,9.92 -14.9,14.16c-2.25,2.31 -5.18,4.21 -6.59,7.19c3,-1.43 5.13,-4.06 7.59,-6.22c0.53,0.2 1.61,0.6 2.14,0.79c1.01,-0.43 2.02,-0.85 3.03,-1.28c-0.15,0.56 -0.44,1.67 -0.59,2.22c0.49,0.29 1.45,0.86 1.94,1.14c0.35,-0.01 1.06,-0.04 1.41,-0.05c3.06,-2.61 5.86,-5.52 8.96,-8.08l0.78,0.91c0,0.41 0,1.21 0.01,1.62c1.21,-0.85 2.49,-1.58 3.79,-2.28c0.14,0.48 0.4,1.43 0.54,1.91c1.2,-0.53 2.43,-1.02 3.76,-1.1c0.46,-1.9 2.52,-0.58 3.51,-1.77c2.33,-1.54 3.76,-4.5 6.45,-5.35c1.83624,-1.39436 3.02645,-3.48296 5.04766,-4.63728c-1.19457,1.12426 -2.32943,2.26911 -2.75766,3.91728c-1.44,4.02 -5.56,5.89 -8.38,8.75c0.03,0.36 0.11,1.06 0.15,1.41c1.8,-1.33 2.96,-3.32 4.65,-4.78c1.63,1.43 -0.19,2.83 -0.98,4.01c2.37,-0.58 3.14,-3.53 5.67,-3.67c3.36,-1.63 5.17,-5.4 8.49,-7.12c0.55,-1.26 1.38,-2.37 2.57,-3.09c-0.33,1.13 -1.11,2 -1.83,2.89c0.48,0.86 0.76,1.79 0.86,2.78c0.71,-0.17 2.11,-0.5 2.82,-0.66c0.44,1.93 -0.24,3.48 -1.73,4.66c6.39,-0.38 10,-7.24 15.66,-9.33c-6.1,5.94 -12.73,11.32 -18.66,17.43c-1.3,0.82 -1.74,2.19 -1.46,3.66c-2.4,1.92 -4.39,4.21 -6.38,6.51c-4.57,3.16 -7.51,7.96 -11.5,11.72c-4.24,5.07 -10.41,8.54 -13.87,14.18c1.16,-0.76 2.25,-1.63 3.34,-2.49c2.55,0.25 4.02,-2.18 5.71,-3.65c1.92,-2.21 4.52,-3.69 6.39,-5.94l0.25,1.66c0.63,-0.15 1.9,-0.43 2.53,-0.58c4.74,-4.14 9.84,-7.86 14.65,-11.91c-4.85,5.39 -11.07,9.25 -16.14,14.38c-3.58,2.32 -6.37,5.5 -9.28,8.55c0.58,-0.11 1.74,-0.35 2.32,-0.47c4.95,-3.57 8.68,-9.12 14.36,-11.5c-5.2,5.91 -11.14,11.13 -16.79,16.61c-0.84,-0.85 -1.65,-1.72 -2.45,-2.59c-0.71,0.62 -1.42,1.25 -2.12,1.88c1.08,0.59 2.17,1.2 3.25,1.82c-1,0.88 -1.95,1.83 -2.85,2.83c-1.48,2.65 -6.72,5.17 -3.39,8.4c-4.01,2.73 -7.02,6.68 -11.08,9.37c-0.09,0.35 -0.26,1.06 -0.35,1.42c4.43,-1.73 7.07,-7.06 12.05,-7.5c2.56,-3.97 6.43,-6.94 10.11,-9.84c2.22,-2.16 4.59,-4.34 7.58,-5.37c-0.89,1.15 -2.81,1.82 -2.34,3.64c1.29,-0.55 2.61,-2.29 4.08,-1.06c-0.14,-0.4 -0.41,-1.2 -0.54,-1.6l1.46,0.34c1.7,-1.06 5.12,-3.18 6.83,-4.24l-3.21,4.08c-0.58,0.32 -1.75,0.94 -2.34,1.25c0.45,0.01 1.34,0.03 1.79,0.04c-0.58,1.71 -1.05,3.44 -1.52,5.18l0.78,-0.05c0.43,-0.02 1.3,-0.06 1.73,-0.07c0.32,-0.51 0.94,-1.53 1.25,-2.03c2.06,0.68 3.56,-0.8 4.94,-2.08c0.64,0.01 1.94,0.04 2.59,0.06c1.72,-2.64 3.36,-5.42 6,-7.25c2.76,-1.89 4.35,-4.9 6.81,-7.09c1.53,-2.46 4.69,-4.51 4.03,-7.79c0.8,-0.69 1.6,-1.37 2.41,-2.05c0.89,0.44 1.76,0.92 2.51,1.59c-0.55,1.13 -1.08,2.27 -1.59,3.42c1.61,0.52 2.72,-0.11 3.33,-1.89c0.58,-0.02 1.75,-0.07 2.34,-0.1c1.07,-1.23 2.05,-2.66 3.6,-3.34c-0.08,-0.63 -0.25,-1.89 -0.33,-2.52c1.55,0.05 3.11,0.02 4.66,-0.27c-4.9,3.6 -8.14,8.9 -12.9,12.61c-6.51,6.93 -13.29,13.61 -19.4,20.9c-3.6,3.47 -6.99,7.2 -9.75,11.36c-1.61,0.14 -1.71,2.08 -3.18,2.39c-8.96,5.6 -14.17,15.32 -22.67,21.51c-2.64,1.7 -3.78,4.88 -6.4,6.58c-8.39,5.45 -15.2,12.85 -22.54,19.56c-2.59,2.73 -6.7,2.94 -9.14,5.92c0.77,0.38 1.55,0.73 2.35,1.07l-3.58,-0.79l1.5,3.02c-0.49,-0.72 -1.01,-1.4 -1.55,-2.05c-0.83,0.71 -2.48,2.13 -3.31,2.84c0.06,-0.8 0.16,-2.4 0.22,-3.2c2.01,-0.44 3.24,-2.16 4.82,-3.31c1.16,-1 3.02,-1.73 2.97,-3.53c-2.78,2.71 -6.13,4.79 -8.88,7.54c-0.01,0.59 -0.02,1.77 -0.02,2.36l-1.89,-0.59c0.58,0.51 1.16,1.04 1.74,1.57c-7.46,5.69 -14.83,11.63 -22.86,16.52c-1.32,1.67 -2.84,3.18 -4.51,4.51c-5.91,4.42 -11.12,10 -18.05,12.91c-2.17,0.72 -3.64,2.51 -5.46,3.79c-0.13,0.47 -0.4,1.4 -0.54,1.86c-5.32,2.39 -10.08,5.88 -15.48,8.11c-2.46,1.19 -4.94,2.32 -7.33,3.63c-0.21,-0.22 -0.62,-0.65 -0.83,-0.86l0.61,-0.3c3.65,-1.57 6.67,-4.27 10.38,-5.69c2.29,-0.97 4.29,-2.46 6.28,-3.94c-0.75,-0.46 -1.48,-0.92 -2.23,-1.34c-0.84,0.25 -2.53,0.74 -3.37,0.99c0.05,-0.5 0.14,-1.52 0.19,-2.02c-1.31,0.63 -2.67,1.17 -4.08,1.52c-0.16,0.44 -0.48,1.33 -0.64,1.77l3.6,-1.33c-1.56,2.16 -4.43,3.68 -7.14,3.3c0.92,-0.41 2.74,-1.24 3.65,-1.65c-1.22,-0.64 -2.51,-1.15 -3.8,-1.59c2.67,-0.55 4.41,-2.87 6.84,-3.96c-1.17,-0.94 -2.55,-1.18 -3.99,-0.82c-0.13,0.35 -0.41,1.06 -0.55,1.41c-6.03,3.63 -11.71,7.82 -16.98,12.5c-1.35,0.26 -2.71,0.6 -4.08,0.29c1.74,-2.48 4.68,-3.79 6.32,-6.31c2.14,0.89 2.77,-1.7 3.97,-2.85c1.3,0.6 4.87,-2.56 0.59,-0.47c0.15,-0.64 0.45,-1.92 0.6,-2.56c-3.27,2.54 -6.92,4.55 -10.01,7.33c-0.91,0.97 -2.21,1.2 -3.47,0.95c5.3,-4.19 11.53,-7.28 16.08,-12.36c-1.23,0.63 -3.71,1.9 -4.95,2.54l0.09,-2.37l1.64,-0.01c-0.46,-0.09 -1.39,-0.26 -1.85,-0.35c0.13,-0.52 0.39,-1.57 0.52,-2.1c-3.87,2.28 -7.44,4.94 -10.93,7.75c-1.13,-0.08 -2.27,-0.12 -3.4,-0.12c-0.01,-0.55 -0.01,-1.65 -0.01,-2.2c-1.07,0.87 -1.85,2.01 -2.54,3.2c0.95,-0.11 2.84,-0.32 3.79,-0.43l0.24,1.39c-2.21,1.85 -5.14,2.5 -7.18,4.6c-1.55,0.01 -2.85,0.79 -4,1.75c-1.11623,3.13326 -4.06361,5.09688 -6.01659,7.71199c1.22335,-1.71534 1.80374,-4.01493 3.83659,-5.01199c0.82,-2.29 2.93,-3.78 3.91,-5.99c-0.84,-0.05 -2.51,-0.16 -3.34,-0.21c-0.69,1.15 -1.99,1.7 -3.2,2.12c-0.81,-0.06 -1.62,-0.13 -2.42,-0.21c-0.29,-0.03 -0.86,-0.09 -1.15,-0.12c-1.35,2.17 -3.35,3.8 -5.31,5.41c0.61,-3.8 4.14,-6.11 5.69,-9.46c-1.24,0.32 -1.58,1.67 -2.25,2.58c-2.48,-1.7 -4.3,0.68 -6.13,2.03c0.16,-1.72 1.25,-3.05 2.47,-4.17c-1.34,-1.34 -2.67,-2.66 -4.22,-3.73c1.69,-2 3.8,-3.72 5.21,-6c-1.97,0.31 -3.8,1.42 -5.81,1.4c0.48,-1.33 0.87,-2.74 1.75,-3.87c5.2,-4.2 10.09,-8.79 15.31,-12.93c4.87,-3.13 9.13,-7.16 13.2,-11.24c-0.43,-0.11 -1.3,-0.31 -1.73,-0.41c-3.81,3.2 -6.85,7.33 -10.97,10.14c-0.43,-2.43 1.7,-4.11 2.73,-6.06c-1.72,1.09 -3.4,2.22 -5.07,3.39c-0.23,-0.57 -0.69,-1.72 -0.92,-2.3c-1.49,2.74 -4.06,4.41 -6.54,6.14c-0.12,-0.59 -0.38,-1.77 -0.5,-2.36c-3.26,5.07 -6.46,10.48 -11.67,13.81c-2.51,1.43 -3.84,4.23 -6.45,5.49c0.22,-0.89 0.66,-2.68 0.88,-3.58c-1.16,2.2 -3.65,3.04 -5.12,4.99c-0.67,0.03 -2.01,0.08 -2.68,0.11c-0.56,0.3 -1.66,0.91 -2.22,1.21c0.22,-2.21 1.78,-3.91 2.76,-5.81c-3.02,1.2 -4.56,4.41 -7.43,5.85c2.3,-2.37 4.4,-4.98 5.88,-7.95c-1.36,0.47 -2.65,1.08 -3.87,1.83c0.13,-1.68 0.18,-3.37 0.12,-5.04c-1.49,-0.44 -2.97,-0.9 -4.45,-1.35c-2.91,5.54 -8.16,9.1 -11.82,14.04c-0.25,0.12 -0.76,0.38 -1.01,0.51c-0.05,-1.29 0.44,-2.13 1.46,-2.53l-0.24,-1.11l1.12,0.23c0.76,-1.79 2.83,-2.63 3.82,-4.33c0.87,-1.46 2.34,-2.53 2.84,-4.21c-0.63,0.56 -1.89,1.67 -2.52,2.22c0.04,-0.87 0.1,-2.61 0.13,-3.48c-2.67,3.63 -5.61,7.13 -9,10.12c-1.22155,1.90227 -3.29524,3.1263 -5.02106,4.60455c1.9168,-1.73147 3.45447,-3.76457 4.77106,-5.97455c4.34,-4.9 7.96,-10.35 11.93,-15.53c0.05,-0.5 0.15,-1.48 0.2,-1.97c0.29,0.57 0.58,1.14 0.87,1.72c-0.88,-5.63 7.19,-7.89 7.19,-13.35c-0.36,-0.31 -1.08,-0.93 -1.44,-1.24c1.38,-1.67 3.55,-2.98 3.82,-5.3c-4.06,3.98 -8.81,7.21 -12.24,11.82c-2.07,1.22 -4.28,2.32 -5.5,4.56c-0.75,0.45 -1.5,0.91 -2.25,1.37c2.16,-4.21 5.45,-7.56 8.96,-10.66c3.63,-4.36 9.05,-7.37 10.84,-13.06c-1.8,0.27 -2.7,1.98 -3.95,3.1c-5.47,5.17 -10.3,10.99 -16.19,15.72c-5.35,4.1 -9.35,9.61 -14.03,14.39l-0.6,1.4c-0.57,-0.5 -1.13,-1 -1.69,-1.49c5.01,-4.55 8.98,-10.13 13.56,-15.09c-2.5,1 -3.7,3.55 -5.41,5.43c-3.59,2.52 -6.07,6.26 -9.59,8.86c-1,0.62 -1.51,1.67 -1.95,2.72c-0.45,-0.16 -1.36,-0.46 -1.81,-0.62c-1.48,1.24 -2.78,2.83 -4.64,3.5c-0.02,-0.61 -0.07,-1.83 -0.09,-2.44c-1,0.87 -2.03,1.3 -2.97,0.03c-0.2,0.24 -0.6,0.73 -0.8,0.98c-3.17,1.45 -5.2,4.67 -8.01,6.73c-0.36,1.64 -1.7,3.26 -3.46,3.4c3.01,-1.89 3.69,-5.76 6.28,-8.09c1.11,-2.03 -0.78,-2.55 -2.35,-1.75c1.33,-1.17 1.56,-2.9 1.28,-4.57c-2.45,1.9 -4.49,4.4 -7.55,5.4c-1.3,-1.15 -2.49,-3.05 -4.52,-2.32c-0.22,0.44 -0.65,1.34 -0.87,1.78c0.05,-0.74 0.15,-2.23 0.2,-2.97c-1.6,0.9 -2.94,2.21 -4.61,3c-0.05,-1.87 1.53,-3.12 2.37,-4.63c3.53,-5.37 8.26,-9.89 11.65,-15.33c-2.83,1.28 -4.76,3.83 -6.44,6.34c-2.11,-0.68 -3.6,0.75 -4.88,2.24c-2.38,0.09 -4.92,-0.38 -7.03,1.06c-0.59,1.04 -1.52,1.79 -2.61,2.27c0.12,-1.06 0.58,-1.88 1.41,-2.46c2.06,-1.51 4.69,-3.13 4.81,-5.97c-1.83,1.11 -3.28,2.71 -4.7,4.29c-2.08,-0.16 -4.1,0.46 -6.09,0.97c-0.1,-0.94 -0.31,-2.8 -0.41,-3.73c4.02,-4.51 9.84,-7.4 12.85,-12.77c-2.69,2.21 -5.62,4.11 -8.25,6.4c-2,-1.36 -2.36,-3.64 -2.36,-5.89c0.52,-0.74 1.04,-1.47 1.56,-2.2c-1.71,-0.64 -2.88,-2.27 -4.8,-2.37c0.23,-2.12 0.79,-4.39 3.01,-5.21c0.39,-1.8 0.79,-3.59 1.27,-5.36c4.54,-3.93 7.44,-9.54 12.07,-13.46c-4.96,-1.04 -5.95,5.41 -10.09,6.78c1.79,-4.44 6.02,-7.15 8.17,-11.36c-0.75,0.29 -2.25,0.88 -3,1.18c-0.04,0.47 -0.11,1.4 -0.15,1.87c-1.1,0.92 -2.7,1.51 -3.19,3c-1.37,-0.61 -2.69,-0.48 -3.95,0.39l0.94,1.21c-1.36,-0.53 -2.12,0.18 -2.61,1.39c0.01,-0.5 0.02,-1.48 0.03,-1.97c2.76,-0.88 3.2,-4.71 5.79,-6.24c-0.14,-1.07 -0.26,-2.15 -0.37,-3.21c-0.32,0.92 -0.96,1.59 -1.89,1.96l0.85,1.83l-1.91,-0.68c-2.98,2.75 -5.51,6.16 -9.19,8.04c-1.31,0.41 -3.95,1.25 -5.26,1.67c1.89,-2.48 3.29,-5.22 4.71,-7.96c-1.81,0.23 -3.63,0.34 -5.45,0.44c-0.2,-1.7 -2.43,-1.91 -2.65,-3.58c0.9,-1.2 1.86,-2.34 2.89,-3.42c-1.8,-0.04 -3.4,0.65 -5.09,1.12c1.82,-2.4 3.82,-4.65 5.5,-7.14c3,-3.36 6.64,-6.16 9.11,-9.96c1.42,-2.27 4.94,-3.91 3.25,-7.01c4.47,-0.14 8.14,-3.25 9.14,-7.58c7.33,-6.85 13.61,-14.68 20.33,-22.09c-2.28,1.15 -4.01,3.18 -6.45,4.03c0.82,-2.36 3.54,-3.15 4.6,-5.39c-3.24,2.05 -5.73,5.03 -8.71,7.41c0.27,0.58 0.82,1.74 1.09,2.32c-0.45,-0.61 -1.36,-1.83 -1.81,-2.44c-1.1,0.99 -2.18,2.01 -3.24,3.04c-0.02,-1.45 0.36,-2.85 0.82,-4.2c3.72,-1.86 5.15,-6.22 8.28,-8.85c-3.74,2.18 -6.97,5.18 -9.56,8.64c-0.21,0.03 -0.62,0.1 -0.83,0.13c-0.19,-0.2 -0.58,-0.6 -0.77,-0.8c-0.21,-0.45 -0.63,-1.33 -0.84,-1.77l0.47,-0.45c2.66,-3.66 6.17,-6.73 8.27,-10.76c-2.25,1.34 -3.75,3.54 -5.75,5.18c-2.64,1.57 -5.43,2.87 -8.16,4.24c0.13,-1.53 0.27,-3.05 0.4,-4.58c-1.14,0.14 -2.01,0.66 -2.62,1.57c-1.15,1.76 -2.91,2.95 -4.54,4.23c0.52,-1.05 1.56,-3.15 2.08,-4.19c-0.95,0.76 -2.87,2.28 -3.82,3.05c0.19,-0.82 0.56,-2.45 0.75,-3.27c-0.87,0.1 -2.62,0.31 -3.5,0.41c1.56,-1.08 4.12,-2.1 3.95,-4.42c-1.87,0.32 -3.78,0.63 -5.41,1.68c-1.88,0.16 -2.62,-1.88 -3.9,-2.82c0.3,-1.12 4.12,-3.55 1.05,-3.59c-0.45,-2.39 1.67,-3.46 3.19,-4.78c0.47,-1.25 0.89,-2.62 2.39,-2.92c2.11,-0.81 2.76,-3.42 4.8,-4.24c-0.05,-0.42 -0.15,-1.26 -0.2,-1.68c1.15,-0.42 2.2,-1.01 3.17,-1.77c-0.62,-0.39 -1.87,-1.17 -2.49,-1.56c1.46,-1.12 2.74,-2.41 2.16,-4.4c2.12,-0.2 1.09,-2.36 0.99,-3.69c0.59,0.12 1.77,0.38 2.36,0.51c-0.04,-0.51 -0.13,-1.54 -0.17,-2.06c0.56,-0.16 1.68,-0.5 2.24,-0.67c-1.08,-1.49 -0.1,-2.7 1.13,-3.76c-2.16,0.3 -3.9,2.22 -4.6,4.19l-2.32,-0.02c4.54,-4.95 9.42,-9.62 14.33,-14.19c0.82,-1.21 1.65,-2.41 2.55,-3.55l-1.39,-0.95c0.39,-1.02 0.82,-2.02 1.27,-3.01c-0.03,-0.67 -0.09,-2.03 -0.12,-2.71c1.4,-1.38 3.02,-2.47 5.03,-2.65c1.49,-1.26 2.97,-2.54 4.47,-3.8c0.14,0.57 0.42,1.72 0.56,2.29c2.54,-2.72 5.69,-4.84 8.17,-7.58c0.23,-0.38 0.7,-1.12 0.93,-1.5c6.76,-5.18 12.51,-11.53 18.77,-17.27c3.75,-4.92 8.65,-8.79 12.28,-13.81c3.16,-3.15 6.48,-6.17 9.09,-9.82c8.06,-8.97 17.36,-16.68 26.17,-24.87c3.64,-4.11 8.71,-6.53 12.48,-10.5c6.34,-5.66 12.52,-11.52 19.25,-16.74c4.75,-3.63 8.95,-8.41 14.66,-10.49c0.43,0.13 1.3,0.4 1.74,0.53c0.73,-0.37 1.45,-0.76 2.16,-1.18c0.62,0 1.86,-0.01 2.48,-0.01c4.28,-2.13 8.27,-5.32 13.09,-6.03c4.21,-4.55 9.5,-8.27 15.24,-10.6c-0.89,2.85 -4.18,3.65 -5.94,5.86c2.55,-1.19 5.2,-2.6 6.48,-5.27c1.87,-1.39 2.93,-3.55 4.7,-5.03l0.52,1.75c0.92,-0.17 2.76,-0.51 3.67,-0.69c-0.22,0.79 -0.66,2.35 -0.88,3.13c-1.04299,-0.11416 -2.0106,0.06248 -2.90001,0.4419c4.33489,0.82227 7.51317,-2.97187 11.63001,-2.9319c0.38,2.79 -1.1,5.21 -3.36,6.75c1.32,-0.37 2.65,-0.67 4.01,-0.9c-0.87,1.57 -2.88,1.58 -4.18,2.64c-4.18,2.3 -7.82,5.39 -11.86,7.89c0.68,0.63 1.49,1.03 2.43,1.21c-6.17,2.55 -10.8,7.74 -16.59,10.98c-5.25,3.16 -9.57,7.55 -14.66,10.87c1.6,-0.53 3.54,-2.3 5.02,-0.52c5.09,0.33 8.55,-3.7 12.77,-5.84c-1.52,1.9 -3.95,2.92 -5.36,4.99c-0.41,0.93 -0.93,1.79 -1.56,2.58c2.77,-0.02 4.86,-1.91 6.87,-3.58c-0.17,0.93 -0.49,2.8 -0.65,3.73c2.04,-0.68 3.28,-2.78 5.66,-2.67c3.86,-2.46 7.09,-5.87 11.23,-7.94c1.23,1.03 2.43,2.1 3.56,3.25c0.84,-1.14 3.98,-2.59 3.98,0.03c1.23,-0.94 2.63,-1.6 4.19,-1.71c0.85,0.77 1.81,1.38 2.87,1.83c-0.1,0.52 -0.29,1.57 -0.38,2.09c2.49,-1.21 4.76,-2.8 6.92,-4.54c-1.21,4.35 -6.7,5.58 -8.96,9.21c3.38,-0.92 5.91,-3.63 8.47,-5.88c1.08,-0.81 0.46,-2.35 0.7,-3.49c6.72,-6.23 14.24,-11.54 21,-17.74c8.39,-6.96 16.18,-14.63 25.02,-21.02c-3.7,4.03 -8.47,6.82 -12.06,10.95c-4.34,2.95 -7.56,7.18 -11.86,10.18c-7.16,7.5 -17.61,12.32 -21.62,22.48c2.12,-1.65 4.03,-3.64 6.55,-4.69c3.82,-3.05 6.39,-8.01 11.39,-9.31c-2.43,2.8 -5.82,4.88 -7.38,8.38c-0.61,1.7 -2.41,2.7 -2.61,4.59c3.46,-3.29 7.13,-6.38 11.22,-8.87c4.6,-4.37 9.02,-9.03 13.78,-13.3c3.61,-3.74 8.42,-6.04 11.94,-9.9c1.73,-2.08 4.15,-3.32 6.4,-4.74c0.94,-0.29 2.82,-0.86 3.76,-1.15c-1.33,3.48 -5.04,4.95 -7.63,7.33c0.05,0.73 0.1,1.47 0.15,2.2c-1.26,1.19 -2.51,2.48 -2.68,4.29c1.91,-1.47 3.59,-3.21 5.48,-4.71c2.16,-1.69 4.91,-2.57 6.79,-4.63l0.74,-0.83c0.5,-0.09 1.5,-0.27 2,-0.36zM391.46766,235.79272c0.03455,-0.03252 0.06916,-0.06502 0.1038,-0.09752c0.0029,0.01183 0.00575,0.02343 0.00855,0.03481c-0.03773,0.02058 -0.07518,0.04149 -0.11234,0.06272zM391.02,233.44l1.43,1.31c0.65,-0.98 1.36,-1.92 2.15,-2.79c-0.64371,1.541 -1.85579,2.63492 -3.02855,3.73519c-0.14257,-0.58086 -0.41425,-1.69657 -0.55145,-2.25519zM209.65341,430.77199c-0.04041,0.05666 -0.08152,0.11269 -0.12341,0.16801c0.04067,-0.05631 0.08181,-0.1123 0.12341,-0.16801zM149.70894,415.53455c-0.12145,0.1097 -0.24441,0.2182 -0.36894,0.32545c0.12085,-0.11005 0.24399,-0.21841 0.36894,-0.32545zM283.52,92.7l1.39,-0.48l-0.05,2.16c0.3293,-1.05775 0.6586,-2.10554 0.91834,-3.18311c-0.8201,0.35175 -1.57361,0.87585 -2.25834,1.50311z" fill="url(#grad-110)" fill-rule="nonzero" stroke="url(#grad-110)" stroke-width="0.25" stroke-linecap="butt" stroke-linejoin="miter" stroke-miterlimit="10" stroke-dasharray="" stroke-dashoffset="0" font-family="none" font-weight="none" font-size="none" text-anchor="none" style="mix-blend-mode: normal; opacity: 1; visibility: visible; fill: rgb(4, 25, 42);" data-index="110"></path></svg>