<?xml version="1.0" encoding="utf-8"?>
<svg xmlns="http://www.w3.org/2000/svg" height="512pt" version="1.1" viewBox="0 0 512 512" width="512pt">
<path d="M 0.00 0.00 L 512.00 0.00 L 512.00 512.00 L 0.00 512.00 L 0.00 0.00 Z" fill="transparent" opacity="1.00" stroke="transparent" stroke-width="0.25"/>
<path d="M 50.16 72.45 C 52.09 72.11 54.04 71.86 56.01 71.85 C 189.34 71.86 322.67 71.85 456.00 71.86 C 462.01 71.74 468.82 73.51 472.07 79.03 C 475.42 84.03 474.64 90.30 474.71 95.99 C 474.71 194.56 474.67 293.13 474.73 391.70 C 476.01 392.56 477.28 393.46 478.52 394.40 C 479.29 400.15 479.51 406.04 478.84 411.80 C 478.04 417.44 472.71 421.74 467.10 421.79 C 328.72 421.83 190.34 421.78 51.96 421.82 C 47.42 421.70 42.39 422.56 38.44 419.72 C 39.05 419.31 40.28 418.49 40.89 418.08 C 43.23 418.51 45.61 418.63 47.98 418.70 C 180.65 418.69 313.33 418.70 446.00 418.69 C 453.99 418.33 462.12 419.55 470.01 417.91 C 472.94 416.95 475.45 414.19 475.60 411.02 C 476.05 405.92 475.65 400.79 475.55 395.68 C 475.18 395.61 474.44 395.47 474.07 395.40 C 473.24 394.50 472.46 393.59 471.73 392.63 C 472.36 368.75 471.81 344.86 472.01 320.97 C 472.03 244.97 471.91 168.97 472.00 92.97 C 471.94 90.28 471.73 87.58 471.09 84.96 C 470.68 83.72 470.18 82.51 469.60 81.35 C 469.38 80.87 469.10 80.44 468.76 80.06 C 466.37 76.90 462.60 75.42 458.78 75.03 C 456.51 74.59 454.25 74.14 451.95 73.98 C 351.96 73.99 251.94 73.94 151.94 74.00 C 119.06 74.09 86.17 73.60 53.29 74.34 C 52.51 73.87 50.94 72.92 50.16 72.45 Z" fill="#0d2f43" opacity="1.00" stroke="#0d2f43" stroke-width="0.25"/>
<path d="M 37.47 87.88 C 37.35 80.54 42.74 73.45 50.16 72.45 C 50.94 72.92 52.51 73.87 53.29 74.34 L 51.20 75.09 C 47.99 76.10 44.78 77.61 42.80 80.47 C 42.69 80.68 42.46 81.11 42.35 81.32 C 40.34 85.60 40.62 90.40 40.64 94.99 C 40.71 193.98 40.56 292.97 40.71 391.96 C 46.28 391.93 51.92 391.36 57.41 392.61 C 62.38 394.18 68.21 392.20 72.68 395.16 C 63.80 395.24 54.89 395.48 46.02 394.83 C 42.81 394.64 39.61 395.04 36.44 395.46 C 36.34 400.65 35.96 405.86 36.40 411.05 C 36.52 413.06 37.73 414.75 38.84 416.35 C 39.35 416.78 40.38 417.65 40.89 418.08 C 40.28 418.49 39.05 419.31 38.44 419.72 L 38.21 419.88 C 35.12 417.61 33.15 413.99 33.00 410.16 C 32.78 404.72 32.54 399.18 33.85 393.85 C 35.06 393.18 36.25 392.50 37.45 391.84 C 37.47 290.52 37.43 189.20 37.47 87.88 Z" fill="#0d2938" opacity="1.00" stroke="#0d2938" stroke-width="0.25"/>
<path d="M 53.29 74.34 C 86.17 73.60 119.06 74.09 151.94 74.00 C 251.94 73.94 351.96 73.99 451.95 73.98 C 454.25 74.14 456.51 74.59 458.78 75.03 C 430.51 75.62 402.24 75.14 373.97 75.30 C 270.98 75.29 167.98 75.31 64.99 75.30 C 60.39 75.34 55.80 75.26 51.20 75.09 L 53.29 74.34 Z" fill="#142228" opacity="1.00" stroke="#142228" stroke-width="0.25"/>
<path d="M 42.80 80.47 C 44.78 77.61 47.99 76.10 51.20 75.09 C 55.80 75.26 60.39 75.34 64.99 75.30 C 167.98 75.31 270.98 75.29 373.97 75.30 C 402.24 75.14 430.51 75.62 458.78 75.03 C 462.60 75.42 466.37 76.90 468.76 80.06 C 462.51 75.16 454.39 76.06 446.98 76.17 C 316.31 76.15 185.63 76.27 54.96 76.15 C 50.49 75.97 46.40 78.03 42.80 80.47 Z" fill="#b89a7c" opacity="1.00" stroke="#b89a7c" stroke-width="0.25"/>
<path d="M 42.80 80.47 C 46.40 78.03 50.49 75.97 54.96 76.15 C 185.63 76.27 316.31 76.15 446.98 76.17 C 454.39 76.06 462.51 75.16 468.76 80.06 C 469.10 80.44 469.38 80.87 469.60 81.35 C 470.73 93.56 469.67 105.81 470.29 118.04 C 470.25 200.67 470.33 283.30 470.30 365.93 C 470.20 374.12 470.68 382.32 469.91 390.49 C 465.47 390.63 461.03 390.62 456.60 390.45 C 456.12 367.65 456.52 344.83 456.40 322.02 C 456.39 251.37 456.43 180.72 456.41 110.06 C 456.30 104.69 456.97 99.21 455.75 93.93 C 455.19 90.82 451.51 90.61 449.01 90.50 C 319.69 90.61 190.34 90.49 61.02 90.58 C 58.90 90.60 56.82 91.93 56.36 94.09 C 55.05 99.61 55.78 105.35 55.67 110.98 C 55.64 180.67 55.65 250.37 55.65 320.06 C 55.52 343.58 55.90 367.10 55.46 390.61 C 51.10 390.77 46.74 390.75 42.38 390.58 C 42.31 287.50 42.32 184.41 42.35 81.32 C 42.46 81.11 42.69 80.68 42.80 80.47 Z" fill="#feb374" opacity="1.00" stroke="#feb374" stroke-width="0.25"/>
<path d="M 40.64 94.99 C 40.62 90.40 40.34 85.60 42.35 81.32 C 42.32 184.41 42.31 287.50 42.38 390.58 C 46.74 390.75 51.10 390.77 55.46 390.61 C 55.90 367.10 55.52 343.58 55.65 320.06 C 55.65 250.37 55.64 180.67 55.67 110.98 C 55.78 105.35 55.05 99.61 56.36 94.09 C 56.82 91.93 58.90 90.60 61.02 90.58 C 190.34 90.49 319.69 90.61 449.01 90.50 C 451.51 90.61 455.19 90.82 455.75 93.93 C 456.97 99.21 456.30 104.69 456.41 110.06 C 456.43 180.72 456.39 251.37 456.40 322.02 C 456.52 344.83 456.12 367.65 456.60 390.45 C 461.03 390.62 465.47 390.63 469.91 390.49 C 470.68 382.32 470.20 374.12 470.30 365.93 C 470.33 283.30 470.25 200.67 470.29 118.04 C 469.67 105.81 470.73 93.56 469.60 81.35 C 470.18 82.51 470.68 83.72 471.09 84.96 C 470.95 166.97 471.05 248.99 471.01 331.00 C 471.17 351.31 470.66 371.63 471.28 391.92 C 465.96 392.01 460.52 391.18 455.31 392.59 L 455.05 391.74 C 455.00 298.50 455.04 205.26 455.02 112.01 C 454.94 106.35 455.42 100.65 454.52 95.03 C 453.99 93.61 452.63 92.69 451.68 91.57 C 420.46 92.03 389.22 91.64 357.99 91.77 C 264.66 91.77 171.33 91.78 78.01 91.77 C 72.11 91.77 66.21 91.89 60.31 91.58 C 56.17 94.41 57.24 99.68 57.15 103.99 C 57.21 174.98 57.13 245.98 57.17 316.97 C 57.31 342.18 56.86 367.41 57.41 392.61 C 51.92 391.36 46.28 391.93 40.71 391.96 C 40.56 292.97 40.71 193.98 40.64 94.99 Z" fill="#dab28d" opacity="1.00" stroke="#dab28d" stroke-width="0.25"/>
<path d="M 471.09 84.96 C 471.73 87.58 471.94 90.28 472.00 92.97 C 471.91 168.97 472.03 244.97 472.01 320.97 C 471.81 344.86 472.36 368.75 471.73 392.63 L 471.28 391.92 C 470.66 371.63 471.17 351.31 471.01 331.00 C 471.05 248.99 470.95 166.97 471.09 84.96 Z" fill="#6c604a" opacity="1.00" stroke="#6c604a" stroke-width="0.25"/>
<path d="M 57.15 103.99 C 57.24 99.68 56.17 94.41 60.31 91.58 C 66.21 91.89 72.11 91.77 78.01 91.77 C 171.33 91.78 264.66 91.77 357.99 91.77 C 389.22 91.64 420.46 92.03 451.68 91.57 C 452.63 92.69 453.99 93.61 454.52 95.03 L 454.34 96.31 C 451.66 94.31 448.53 92.84 445.11 93.10 C 319.76 93.15 194.41 93.20 69.06 93.13 C 65.77 93.18 62.52 93.70 59.29 94.28 C 58.48 101.16 58.71 108.09 58.80 115.00 C 58.61 195.01 58.79 275.01 58.70 355.01 C 58.80 365.00 58.53 374.99 58.92 384.97 C 59.09 387.60 58.60 390.24 57.41 392.61 C 56.86 367.41 57.31 342.18 57.17 316.97 C 57.13 245.98 57.21 174.98 57.15 103.99 Z" fill="#192d33" opacity="1.00" stroke="#192d33" stroke-width="0.25"/>
<path d="M 59.29 94.28 C 62.52 93.70 65.77 93.18 69.06 93.13 C 194.41 93.20 319.76 93.15 445.11 93.10 C 448.53 92.84 451.66 94.31 454.34 96.31 C 454.04 98.21 453.76 100.12 453.68 102.05 C 453.62 196.71 453.85 291.38 453.64 386.04 C 453.68 388.02 454.42 389.88 455.05 391.74 L 455.31 392.59 C 449.05 394.71 442.43 393.12 436.00 393.28 C 410.66 393.34 385.31 393.30 359.96 393.27 C 301.64 393.77 243.30 393.37 184.97 393.50 C 179.39 393.52 173.79 393.29 168.22 393.69 C 168.00 394.09 167.57 394.89 167.35 395.29 C 166.70 397.68 166.82 400.33 165.64 402.55 C 163.33 405.35 159.33 405.27 156.03 405.36 C 131.67 405.17 107.31 405.49 82.96 405.28 C 77.57 405.56 73.70 400.91 72.95 395.94 L 72.68 395.16 C 68.21 392.20 62.38 394.18 57.41 392.61 C 58.60 390.24 59.09 387.60 58.92 384.97 C 58.53 374.99 58.80 365.00 58.70 355.01 C 58.79 275.01 58.61 195.01 58.80 115.00 C 58.71 108.09 58.48 101.16 59.29 94.28 Z" fill="#0b3853" opacity="1.00" stroke="#0b3853" stroke-width="0.25"/>
<path d="M 454.34 96.31 L 454.52 95.03 C 455.42 100.65 454.94 106.35 455.02 112.01 C 455.04 205.26 455.00 298.50 455.05 391.74 C 454.42 389.88 453.68 388.02 453.64 386.04 C 453.85 291.38 453.62 196.71 453.68 102.05 C 453.76 100.12 454.04 98.21 454.34 96.31 Z" fill="#3e3b31" opacity="1.00" stroke="#3e3b31" stroke-width="0.25"/>
<path d="M 343.85 376.48 C 376.37 376.38 408.89 376.59 441.40 376.36 C 441.46 381.55 441.44 386.74 441.40 391.93 C 408.89 391.64 376.37 391.92 343.86 391.77 C 343.85 386.67 343.84 381.58 343.85 376.48 Z" fill="#fefefe" opacity="1.00" stroke="#fefefe" stroke-width="0.25"/>
<path d="M 93.36 387.38 C 94.36 387.38 95.37 387.40 96.37 387.41 C 96.45 392.45 96.47 397.49 96.32 402.53 C 95.35 402.54 94.37 402.55 93.40 402.57 C 93.31 397.50 93.26 392.44 93.36 387.38 Z" fill="#e16e53" opacity="1.00" stroke="#e16e53" stroke-width="0.25"/>
<path d="M 99.30 387.38 C 119.18 387.49 139.05 387.31 158.93 387.41 C 161.24 387.26 163.60 388.76 164.06 391.11 C 164.63 394.60 164.16 398.16 163.62 401.63 C 161.61 402.15 159.58 402.62 157.55 403.08 C 157.77 399.18 158.58 394.94 156.34 391.44 C 145.50 390.61 134.59 391.83 123.78 390.77 C 116.82 387.22 108.65 389.67 101.19 389.41 C 101.03 393.13 101.02 396.86 101.14 400.60 C 106.32 400.76 111.70 401.71 116.75 400.20 C 117.88 398.38 118.56 396.33 119.40 394.38 C 119.36 397.11 119.48 399.85 119.78 402.57 C 112.95 402.55 106.11 402.52 99.28 402.59 C 99.18 397.52 99.19 392.44 99.30 387.38 Z" fill="#67ddfa" opacity="1.00" stroke="#67ddfa" stroke-width="0.25"/>
<path d="M 76.09 392.00 C 76.84 389.92 78.87 388.81 80.49 387.49 C 83.85 387.48 87.21 387.46 90.58 387.44 C 90.57 392.49 90.55 397.53 90.59 402.58 C 87.24 402.55 83.88 402.55 80.53 402.51 C 79.20 401.49 77.86 400.48 76.53 399.47 C 76.00 397.04 75.05 394.42 76.09 392.00 Z" fill="#fdfeff" opacity="1.00" stroke="#fdfeff" stroke-width="0.25"/>
<path d="M 101.19 389.41 C 108.65 389.67 116.82 387.22 123.78 390.77 C 122.02 391.54 119.89 392.27 119.40 394.38 C 118.56 396.33 117.88 398.38 116.75 400.20 C 111.70 401.71 106.32 400.76 101.14 400.60 C 101.02 396.86 101.03 393.13 101.19 389.41 Z" fill="#5fdfff" opacity="1.00" stroke="#5fdfff" stroke-width="0.25"/>
<path d="M 455.31 392.59 C 460.52 391.18 465.96 392.01 471.28 391.92 L 471.73 392.63 C 472.46 393.59 473.24 394.50 474.07 395.40 C 427.06 395.02 380.03 395.31 333.02 395.25 C 277.79 395.28 222.57 395.19 167.35 395.29 C 167.57 394.89 168.00 394.09 168.22 393.69 C 173.79 393.29 179.39 393.52 184.97 393.50 C 243.30 393.37 301.64 393.77 359.96 393.27 C 385.31 393.30 410.66 393.34 436.00 393.28 C 442.43 393.12 449.05 394.71 455.31 392.59 Z" fill="#192d33" opacity="1.00" stroke="#192d33" stroke-width="0.25"/>
<path d="M 121.59 400.02 C 121.68 397.89 121.95 395.78 122.47 393.72 C 133.20 393.62 143.93 393.68 154.66 393.71 C 155.39 396.27 155.34 398.94 155.29 401.58 C 150.25 402.40 145.14 402.07 140.06 402.11 C 134.31 402.07 128.55 402.31 122.82 401.75 C 122.51 401.32 121.90 400.45 121.59 400.02 Z" fill="#fcfefe" opacity="1.00" stroke="#fcfefe" stroke-width="0.25"/>
<path d="M 36.44 395.46 C 39.61 395.04 42.81 394.64 46.02 394.83 C 54.89 395.48 63.80 395.24 72.68 395.16 L 72.95 395.94 C 73.70 400.91 77.57 405.56 82.96 405.28 C 107.31 405.49 131.67 405.17 156.03 405.36 C 159.33 405.27 163.33 405.35 165.64 402.55 C 166.82 400.33 166.70 397.68 167.35 395.29 C 222.57 395.19 277.79 395.28 333.02 395.25 C 380.03 395.31 427.06 395.02 474.07 395.40 C 474.44 395.47 475.18 395.61 475.55 395.68 C 475.65 400.79 476.05 405.92 475.60 411.02 C 475.45 414.19 472.94 416.95 470.01 417.91 C 424.68 417.48 379.34 417.82 334.01 417.72 C 244.35 417.72 154.69 417.72 65.03 417.73 C 56.29 417.65 47.43 418.39 38.84 416.35 C 37.73 414.75 36.52 413.06 36.40 411.05 C 35.96 405.86 36.34 400.65 36.44 395.46 Z" fill="#be6847" opacity="1.00" stroke="#be6847" stroke-width="0.25"/>
<path d="M 38.84 416.35 C 47.43 418.39 56.29 417.65 65.03 417.73 C 154.69 417.72 244.35 417.72 334.01 417.72 C 379.34 417.82 424.68 417.48 470.01 417.91 C 462.12 419.55 453.99 418.33 446.00 418.69 C 313.33 418.70 180.65 418.69 47.98 418.70 C 45.61 418.63 43.23 418.51 40.89 418.08 C 40.38 417.65 39.35 416.78 38.84 416.35 Z" fill="#8e655a" opacity="1.00" stroke="#8e655a" stroke-width="0.25"/>
</svg>