<?xml version="1.0" encoding="utf-8"?>
<svg xmlns="http://www.w3.org/2000/svg" height="512pt" version="1.1" viewBox="0 0 512 512" width="512pt">
<path d="M 0.00 0.00 L 512.00 0.00 L 512.00 512.00 L 0.00 512.00 L 0.00 0.00 Z" fill="transparent" opacity="1.00" stroke="transparent" stroke-width="0.25"/>
<path d="M 212.64 187.72 C 230.53 177.90 251.78 174.06 271.89 177.88 C 298.35 182.40 323.11 199.83 334.00 224.69 C 351.68 211.95 371.90 202.77 393.29 198.44 C 397.86 206.54 401.18 215.27 405.31 223.60 C 406.47 226.33 408.15 228.96 408.55 231.93 C 404.37 240.09 399.67 247.98 395.41 256.10 C 399.72 265.79 404.82 275.13 408.79 284.97 C 403.72 294.98 398.64 305.00 393.55 315.00 C 385.05 313.09 377.11 309.30 369.16 305.82 C 357.10 300.59 345.96 293.58 334.85 286.62 C 326.29 305.65 310.41 321.25 291.07 329.14 C 275.41 335.97 257.79 337.57 240.99 335.00 C 221.06 331.67 202.11 321.48 189.21 305.79 C 184.37 299.96 180.60 293.35 177.19 286.62 C 158.87 298.72 139.14 308.96 118.05 315.26 C 112.75 304.80 107.07 294.53 101.90 284.00 C 106.61 274.66 111.77 265.56 116.36 256.17 C 112.77 249.29 109.04 242.49 105.22 235.73 C 104.45 233.89 102.61 231.89 103.74 229.83 C 107.88 220.38 112.56 211.17 116.83 201.78 C 117.44 200.69 117.81 199.32 118.97 198.67 C 140.30 202.65 160.21 212.28 177.87 224.71 C 185.05 209.00 197.73 196.23 212.64 187.72 Z" fill="#062e4e" opacity="1.00" stroke="#062e4e" stroke-width="0.25"/>
<path d="M 232.12 186.09 C 237.75 184.46 243.56 183.10 249.46 183.18 C 244.89 188.60 238.22 191.38 232.83 195.82 C 221.47 204.39 212.39 215.53 204.38 227.20 C 204.79 227.20 205.62 227.21 206.04 227.22 C 193.30 234.10 182.08 245.28 178.17 259.54 C 178.02 259.98 177.70 260.84 177.54 261.28 C 175.75 245.52 180.49 229.39 189.49 216.45 C 199.55 201.72 215.10 191.14 232.12 186.09 Z" fill="#fddbd2" opacity="1.00" stroke="#fddbd2" stroke-width="0.25"/>
<path d="M 249.46 183.18 C 255.53 181.02 261.84 184.45 267.45 186.68 C 282.02 193.95 293.37 208.48 294.97 224.93 C 295.73 232.04 295.42 239.98 290.91 245.89 C 286.43 251.44 279.07 253.54 272.18 253.55 C 274.00 244.36 274.28 233.66 267.97 226.04 C 261.44 218.33 250.49 216.86 240.96 217.41 C 228.84 218.39 216.88 221.71 206.04 227.22 C 205.62 227.21 204.79 227.20 204.38 227.20 C 212.39 215.53 221.47 204.39 232.83 195.82 C 238.22 191.38 244.89 188.60 249.46 183.18 Z" fill="#fef1ee" opacity="1.00" stroke="#fef1ee" stroke-width="0.25"/>
<path d="M 269.77 184.17 C 275.39 184.18 280.73 186.19 285.97 188.02 C 306.81 195.87 324.93 212.69 331.52 234.29 C 332.42 236.69 332.53 239.30 331.69 241.74 C 327.86 256.84 318.27 270.73 304.73 278.65 C 293.75 285.30 280.86 289.11 267.97 288.38 C 259.91 287.83 251.47 285.26 245.91 279.08 C 239.78 272.87 238.33 261.94 243.84 254.91 C 245.64 252.46 249.70 252.17 250.72 249.25 C 244.44 244.86 236.29 245.00 228.97 245.56 C 219.03 246.39 210.70 253.67 206.53 262.43 C 202.26 271.70 201.99 282.42 204.58 292.19 C 207.18 303.09 214.06 312.38 221.71 320.33 C 221.98 320.89 222.54 322.03 222.81 322.60 C 218.10 321.79 213.49 319.33 210.16 315.93 C 206.17 308.75 201.96 301.63 199.23 293.84 C 194.91 281.79 193.84 268.71 195.14 256.03 C 195.87 248.40 198.81 241.26 200.91 233.96 C 206.62 229.35 213.59 226.77 220.43 224.37 C 230.68 220.89 241.67 219.28 252.44 220.71 C 259.67 221.99 266.98 226.55 269.13 233.93 C 271.62 241.04 269.80 248.55 269.22 255.81 C 277.07 257.03 285.50 254.81 291.40 249.40 C 296.51 244.39 298.19 236.95 297.88 230.00 C 298.38 214.41 290.11 199.43 277.89 190.09 C 275.44 188.22 272.88 186.52 270.43 184.67 L 269.77 184.17 Z" fill="#f35176" opacity="1.00" stroke="#f35176" stroke-width="0.25"/>
<path d="M 267.45 186.68 C 268.19 186.18 269.68 185.17 270.43 184.67 C 272.88 186.52 275.44 188.22 277.89 190.09 C 290.11 199.43 298.38 214.41 297.88 230.00 C 298.19 236.95 296.51 244.39 291.40 249.40 C 285.50 254.81 277.07 257.03 269.22 255.81 C 269.80 248.55 271.62 241.04 269.13 233.93 C 266.98 226.55 259.67 221.99 252.44 220.71 C 241.67 219.28 230.68 220.89 220.43 224.37 C 213.59 226.77 206.62 229.35 200.91 233.96 C 196.65 237.29 192.24 240.58 188.91 244.90 C 183.68 251.68 180.33 259.83 179.02 268.27 C 178.48 271.49 179.36 274.71 180.11 277.82 C 175.34 272.79 179.72 265.55 178.17 259.54 C 182.08 245.28 193.30 234.10 206.04 227.22 C 216.88 221.71 228.84 218.39 240.96 217.41 C 250.49 216.86 261.44 218.33 267.97 226.04 C 274.28 233.66 274.00 244.36 272.18 253.55 C 279.07 253.54 286.43 251.44 290.91 245.89 C 295.42 239.98 295.73 232.04 294.97 224.93 C 293.37 208.48 282.02 193.95 267.45 186.68 Z" fill="#16253d" opacity="1.00" stroke="#16253d" stroke-width="0.25"/>
<path d="M 111.75 226.72 C 115.21 219.69 118.34 212.52 121.85 205.52 C 141.05 209.98 159.06 218.78 174.99 230.30 C 174.22 235.55 172.59 240.63 171.77 245.87 C 162.38 242.83 153.47 238.43 144.03 235.58 C 141.05 236.05 140.57 240.69 143.61 241.47 C 152.76 245.52 162.36 248.53 171.43 252.78 C 171.28 254.68 171.15 256.59 170.98 258.49 C 160.07 260.71 149.12 262.79 138.29 265.34 C 138.35 266.96 138.26 268.64 138.79 270.22 C 140.28 270.93 141.96 270.69 143.53 270.41 C 152.66 268.56 161.72 266.35 170.89 264.71 C 172.37 265.52 171.82 267.63 172.32 269.01 C 172.89 272.98 174.01 276.83 174.82 280.74 C 158.21 292.15 140.08 301.47 120.91 307.76 C 117.34 300.23 112.89 293.14 109.57 285.50 C 108.42 283.05 110.65 280.78 111.51 278.60 C 115.18 271.04 119.83 263.90 122.87 256.09 C 119.53 248.12 114.70 240.88 110.73 233.22 C 109.29 231.09 110.99 228.75 111.75 226.72 Z" fill="#7de5fe" opacity="1.00" stroke="#7de5fe" stroke-width="0.25"/>
<path d="M 303.91 205.93 C 305.13 206.31 306.89 206.05 307.53 207.46 C 310.59 213.15 312.24 219.46 313.53 225.76 C 314.12 228.56 317.13 231.32 315.11 234.17 C 312.40 238.99 312.50 244.85 309.51 249.55 C 306.57 254.27 303.83 259.14 300.68 263.71 C 296.17 267.58 291.91 273.65 285.18 272.76 C 285.26 271.69 285.42 270.64 285.68 269.61 C 288.98 267.25 293.37 266.37 295.83 262.91 C 298.56 259.31 302.20 256.34 304.02 252.11 C 305.47 248.93 307.58 246.09 308.87 242.85 C 310.47 238.73 309.56 234.26 309.81 229.98 C 310.08 225.37 309.42 220.68 307.41 216.49 C 305.94 213.08 303.04 209.92 303.91 205.93 Z" fill="#fff6fa" opacity="1.00" stroke="#fff6fa" stroke-width="0.25"/>
<path d="M 337.02 230.19 C 352.89 218.60 370.96 209.80 390.19 205.50 C 394.07 213.47 397.75 221.56 401.30 229.69 C 402.53 231.82 400.64 233.86 399.82 235.75 C 395.99 242.48 392.19 249.22 388.54 256.06 C 392.62 264.47 396.74 272.86 400.69 281.33 C 401.16 282.66 402.24 284.11 401.53 285.56 C 398.72 291.93 395.25 297.99 392.29 304.28 C 391.54 305.33 391.37 307.07 389.97 307.44 C 371.30 301.12 353.69 291.89 337.36 280.90 C 338.59 274.98 340.21 269.11 340.61 263.05 C 351.26 264.29 361.56 267.61 372.24 268.68 C 372.54 267.22 374.08 265.64 373.16 264.16 C 372.42 262.52 370.49 262.52 369.00 262.12 C 359.69 260.33 350.41 258.44 341.09 256.72 C 340.93 255.14 340.80 253.57 340.69 251.99 C 350.86 247.43 361.78 244.70 371.75 239.68 C 371.63 238.28 371.51 236.88 371.38 235.48 C 366.83 234.53 362.81 237.33 358.66 238.66 C 352.51 240.76 346.58 243.52 340.28 245.14 C 339.37 240.12 337.91 235.22 337.02 230.19 Z" fill="#7de5fe" opacity="1.00" stroke="#7de5fe" stroke-width="0.25"/>
<path d="M 188.91 244.90 C 192.24 240.58 196.65 237.29 200.91 233.96 C 198.81 241.26 195.87 248.40 195.14 256.03 C 193.84 268.71 194.91 281.79 199.23 293.84 C 201.96 301.63 206.17 308.75 210.16 315.93 C 207.96 315.36 206.07 314.09 204.46 312.52 C 198.02 306.61 191.66 300.39 187.15 292.83 C 184.24 288.12 181.96 283.03 180.11 277.82 C 179.36 274.71 178.48 271.49 179.02 268.27 C 180.33 259.83 183.68 251.68 188.91 244.90 Z" fill="#ce335b" opacity="1.00" stroke="#ce335b" stroke-width="0.25"/>
<path d="M 304.73 278.65 C 318.27 270.73 327.86 256.84 331.69 241.74 C 331.82 244.33 332.07 246.91 332.09 249.51 C 323.09 275.57 295.12 292.65 267.97 291.38 C 259.14 290.73 250.06 287.70 243.84 281.16 C 235.58 272.70 235.34 256.98 245.16 249.58 C 236.82 247.08 227.27 247.39 219.55 251.66 C 214.31 254.95 210.26 260.13 208.10 265.90 C 203.34 279.22 205.91 294.65 213.83 306.23 C 216.96 311.22 221.11 315.44 225.23 319.61 C 224.96 320.25 224.41 321.54 224.14 322.18 C 223.30 321.59 222.49 320.97 221.71 320.33 C 214.06 312.38 207.18 303.09 204.58 292.19 C 201.99 282.42 202.26 271.70 206.53 262.43 C 210.70 253.67 219.03 246.39 228.97 245.56 C 236.29 245.00 244.44 244.86 250.72 249.25 C 249.70 252.17 245.64 252.46 243.84 254.91 C 238.33 261.94 239.78 272.87 245.91 279.08 C 251.47 285.26 259.91 287.83 267.97 288.38 C 280.86 289.11 293.75 285.30 304.73 278.65 Z" fill="#19253f" opacity="1.00" stroke="#19253f" stroke-width="0.25"/>
<path d="M 332.09 249.51 C 332.75 247.61 333.45 245.73 334.27 243.90 C 336.76 261.10 333.87 279.42 324.11 294.02 C 315.66 307.88 302.19 318.22 287.25 324.27 C 270.54 330.66 251.81 332.00 234.49 327.33 C 230.83 325.59 228.28 322.19 225.23 319.61 C 221.11 315.44 216.96 311.22 213.83 306.23 C 205.91 294.65 203.34 279.22 208.10 265.90 C 210.26 260.13 214.31 254.95 219.55 251.66 C 227.27 247.39 236.82 247.08 245.16 249.58 C 235.34 256.98 235.58 272.70 243.84 281.16 C 250.06 287.70 259.14 290.73 267.97 291.38 C 295.12 292.65 323.09 275.57 332.09 249.51 Z" fill="#fef1ed" opacity="1.00" stroke="#fef1ed" stroke-width="0.25"/>
</svg>