<?xml version="1.0" encoding="utf-8"?>
<svg xmlns="http://www.w3.org/2000/svg" height="512pt" version="1.1" viewBox="0 0 512 512" width="512pt">
<path d="M 0.00 0.00 L 512.00 0.00 L 512.00 512.00 L 0.00 512.00 L 0.00 0.00 Z" fill="transparent" opacity="1.00" stroke="transparent" stroke-width="0.25"/>
<path d="M 207.83 186.69 C 226.12 181.99 245.17 182.07 263.92 181.31 C 288.67 180.37 313.43 181.03 338.18 181.82 C 349.84 182.63 361.61 182.97 373.08 185.45 C 378.34 186.83 383.81 188.41 388.08 191.91 C 407.31 210.91 425.66 231.10 439.88 254.21 C 446.15 255.34 453.99 256.22 457.33 262.49 C 460.57 269.58 460.78 277.60 461.53 285.24 L 461.71 286.46 C 463.19 286.96 464.70 287.39 466.23 287.76 C 463.29 287.51 460.33 287.49 457.38 287.57 C 457.27 292.28 457.24 296.99 457.42 301.70 C 456.95 301.33 456.00 300.60 455.53 300.23 C 455.58 294.94 453.38 288.02 458.52 284.40 C 457.94 277.54 457.56 270.48 455.03 264.00 C 453.67 260.22 449.44 259.01 445.92 258.20 C 437.73 256.49 429.36 255.73 421.01 255.34 C 408.44 254.63 394.92 254.98 383.99 262.05 C 375.75 266.85 372.49 276.44 369.90 285.05 C 366.15 284.99 362.10 285.24 358.92 282.89 C 361.95 282.83 364.98 282.80 368.02 282.78 C 369.99 276.40 372.28 269.83 377.03 264.94 C 382.91 258.93 390.96 255.45 399.13 253.87 C 411.54 251.26 424.24 253.22 436.73 254.02 C 433.37 249.14 430.11 244.20 426.69 239.37 C 395.82 239.25 364.95 239.33 334.08 239.29 C 334.16 249.77 334.59 260.24 334.71 270.72 L 332.92 272.74 C 332.62 261.62 332.20 250.51 332.19 239.39 C 299.95 239.16 267.70 239.37 235.46 239.67 C 235.73 248.65 235.70 257.63 236.12 266.60 C 235.52 268.56 234.83 270.48 234.23 272.44 C 233.58 261.50 233.85 250.54 233.66 239.59 C 212.20 240.90 190.59 242.44 169.62 247.44 C 183.83 248.06 198.52 248.45 211.77 254.26 C 216.43 256.38 219.64 260.57 222.44 264.71 C 221.94 265.10 220.95 265.87 220.46 266.26 C 218.14 262.79 215.46 259.38 211.79 257.26 C 207.41 254.77 202.43 253.62 197.54 252.63 C 182.55 249.89 167.14 250.25 152.11 252.45 C 146.90 253.44 141.45 254.16 136.75 256.77 C 133.59 258.52 132.14 262.06 129.45 264.32 C 127.09 265.24 124.46 264.86 121.98 264.75 C 124.69 263.82 127.79 262.89 129.16 260.11 C 131.78 256.45 130.00 251.59 127.73 248.25 C 125.97 245.69 122.53 246.57 119.90 246.39 C 127.49 243.11 136.00 244.46 144.03 244.17 C 152.45 243.93 160.78 246.06 169.17 245.61 C 188.64 240.99 208.64 239.54 228.50 237.68 C 227.91 234.67 227.46 231.64 227.12 228.60 C 212.49 227.00 197.74 227.58 183.05 227.57 C 168.64 227.58 154.22 228.12 139.87 229.47 C 130.25 230.58 120.46 231.26 111.20 234.34 C 105.56 235.98 100.02 238.59 96.01 243.00 C 92.38 246.65 90.39 251.52 88.88 256.36 C 97.75 256.82 106.61 256.07 115.46 255.55 C 115.94 254.01 116.41 252.46 116.96 250.94 C 116.81 253.94 116.92 256.95 117.30 259.93 C 116.98 259.29 116.35 258.01 116.03 257.37 C 102.73 258.83 89.22 259.11 75.95 257.18 C 75.75 257.72 75.34 258.80 75.14 259.34 C 70.76 261.07 66.05 260.76 61.48 260.24 C 59.02 266.70 57.56 273.46 56.32 280.24 C 56.64 280.38 57.28 280.65 57.61 280.79 C 56.16 282.18 54.83 283.68 53.52 285.19 C 54.07 276.00 55.54 266.50 59.92 258.29 L 60.42 257.10 C 62.07 257.60 63.72 258.10 65.37 258.61 C 65.92 257.90 66.46 257.18 67.00 256.46 C 67.63 256.68 68.90 257.13 69.54 257.36 C 70.29 253.07 70.51 248.73 70.46 244.38 C 74.10 248.57 72.08 254.17 71.10 258.93 C 76.36 255.12 76.89 248.17 80.47 243.13 C 76.37 243.12 72.28 243.44 68.18 243.47 C 66.43 242.92 64.68 242.37 62.92 241.90 C 68.84 240.51 74.95 240.42 81.00 240.57 C 83.58 240.87 85.18 238.40 87.25 237.31 C 95.07 232.63 104.20 230.95 113.01 229.14 C 130.76 225.93 148.85 225.36 166.86 225.20 C 176.81 214.69 186.84 204.23 197.16 194.07 C 200.27 191.02 203.64 188.13 207.83 186.69 Z" fill="#002b49" opacity="1.00" stroke="#002b49" stroke-width="0.25"/>
<path d="M 231.85 185.91 C 269.86 183.24 308.03 183.32 346.07 185.36 C 355.80 185.93 365.57 186.63 375.09 188.81 C 380.20 190.02 385.20 192.29 388.87 196.15 C 401.33 209.62 414.32 222.68 425.28 237.46 C 394.77 237.36 364.26 237.46 333.76 237.33 C 333.69 223.41 333.63 209.46 332.76 195.57 C 310.51 195.46 288.25 195.42 265.99 195.51 C 261.00 204.55 254.82 212.91 250.21 222.17 C 248.03 225.47 251.83 228.88 254.97 229.30 C 258.99 229.30 262.95 228.19 267.00 228.40 C 288.55 228.39 310.09 227.50 331.65 227.60 C 331.68 230.86 331.67 234.13 331.88 237.39 C 299.72 237.41 267.57 237.36 235.42 237.57 C 237.64 231.22 240.61 225.15 244.74 219.82 C 249.80 211.39 256.16 203.75 260.67 195.02 C 256.47 198.85 253.88 204.01 250.50 208.52 C 244.52 217.84 237.21 226.62 233.96 237.40 C 233.18 237.40 231.63 237.41 230.86 237.41 C 230.25 233.86 229.64 230.31 229.33 226.72 C 213.33 224.54 197.09 224.58 180.98 225.13 C 177.66 225.17 174.35 224.87 171.04 224.69 C 182.52 213.49 192.96 201.19 205.20 190.78 C 213.48 186.93 222.92 186.95 231.85 185.91 Z" fill="#90e4fe" opacity="1.00" stroke="#90e4fe" stroke-width="0.25"/>
<path d="M 201.73 196.74 C 204.13 193.65 208.44 194.35 211.88 193.65 C 226.83 192.51 242.08 191.81 256.90 194.50 C 248.93 204.03 242.17 214.49 234.26 224.05 C 221.67 221.65 208.79 222.18 196.05 222.49 C 190.07 222.65 184.12 223.86 178.13 223.36 C 185.10 213.73 193.96 205.69 201.73 196.74 Z" fill="#002b49" opacity="1.00" stroke="#002b49" stroke-width="0.25"/>
<path d="M 203.92 196.56 C 211.44 194.65 219.26 194.46 226.98 194.22 C 236.13 194.13 245.34 194.11 254.43 195.46 C 247.21 204.18 240.84 213.56 233.90 222.50 C 216.26 219.74 198.26 220.81 180.56 222.38 C 188.07 213.53 196.40 205.42 203.92 196.56 Z" fill="#f7dccd" opacity="1.00" stroke="#f7dccd" stroke-width="0.25"/>
<path d="M 265.99 195.51 C 288.25 195.42 310.51 195.46 332.76 195.57 C 333.63 209.46 333.69 223.41 333.76 237.33 C 333.21 237.99 332.58 238.01 331.88 237.39 C 331.67 234.13 331.68 230.86 331.65 227.60 C 310.09 227.50 288.55 228.39 267.00 228.40 C 262.95 228.19 258.99 229.30 254.97 229.30 C 251.83 228.88 248.03 225.47 250.21 222.17 C 254.82 212.91 261.00 204.55 265.99 195.51 Z" fill="#062e4f" opacity="1.00" stroke="#062e4f" stroke-width="0.25"/>
<path d="M 336.27 195.57 C 346.20 195.84 356.14 195.73 366.06 196.35 C 372.22 196.90 378.85 198.00 383.57 202.34 C 389.46 207.63 394.04 214.55 396.39 222.12 C 397.51 224.25 395.36 225.83 393.52 226.31 C 390.41 227.09 387.17 227.12 383.99 227.17 C 368.26 227.19 352.53 227.56 336.79 227.53 C 336.90 216.87 336.41 206.22 336.27 195.57 Z" fill="#052d4e" opacity="1.00" stroke="#052d4e" stroke-width="0.25"/>
<path d="M 203.21 207.25 C 206.65 203.94 210.03 199.52 215.38 199.96 C 214.23 202.51 212.28 204.51 210.04 206.13 C 205.18 209.74 201.63 215.18 195.73 217.29 C 196.65 212.97 200.31 210.25 203.21 207.25 Z" fill="#fffdfa" opacity="1.00" stroke="#fffdfa" stroke-width="0.25"/>
<path d="M 202.97 215.13 C 207.16 209.03 213.49 204.95 218.92 200.06 C 219.68 201.23 220.44 202.40 221.20 203.57 C 222.88 202.63 224.57 201.71 226.29 200.85 C 225.98 202.43 225.61 204.11 224.19 205.08 C 219.65 208.91 214.94 212.54 210.16 216.07 C 207.77 215.72 205.37 215.42 202.97 215.13 Z" fill="#fdf5f1" opacity="1.00" stroke="#fdf5f1" stroke-width="0.25"/>
<path d="M 349.53 203.68 C 357.01 198.84 366.57 199.15 374.96 201.02 C 385.01 203.47 390.82 213.21 394.30 222.21 C 380.88 222.05 367.45 222.52 354.03 222.53 C 351.81 218.65 348.67 215.45 346.21 211.76 C 344.11 208.72 347.04 205.33 349.53 203.68 Z" fill="#f7dbcc" opacity="1.00" stroke="#f7dbcc" stroke-width="0.25"/>
<path d="M 268.54 201.39 C 271.69 201.04 274.86 200.72 278.03 200.96 C 289.70 201.63 301.40 200.73 313.06 201.54 C 318.24 201.92 323.95 203.52 326.89 208.17 C 329.41 212.91 328.12 218.47 327.12 223.45 C 312.74 223.55 298.35 223.88 283.96 223.84 C 278.86 223.78 273.73 224.09 268.67 223.32 C 268.36 216.01 268.59 208.70 268.54 201.39 Z" fill="#f7dbcc" opacity="1.00" stroke="#f7dbcc" stroke-width="0.25"/>
<path d="M 251.40 223.73 C 253.57 222.15 256.39 220.29 259.12 221.70 C 261.31 222.53 260.91 226.09 258.80 226.77 C 256.88 227.77 254.74 226.89 252.76 226.63 C 252.42 225.90 251.74 224.45 251.40 223.73 Z" fill="#96e1f7" opacity="1.00" stroke="#96e1f7" stroke-width="0.25"/>
<path d="M 139.87 229.47 C 154.22 228.12 168.64 227.58 183.05 227.57 C 197.74 227.58 212.49 227.00 227.12 228.60 C 227.46 231.64 227.91 234.67 228.50 237.68 C 208.64 239.54 188.64 240.99 169.17 245.61 C 160.78 246.06 152.45 243.93 144.03 244.17 C 136.00 244.46 127.49 243.11 119.90 246.39 C 118.79 247.81 117.62 249.24 116.96 250.94 C 116.41 252.46 115.94 254.01 115.46 255.55 C 106.61 256.07 97.75 256.82 88.88 256.36 C 90.39 251.52 92.38 246.65 96.01 243.00 C 100.02 238.59 105.56 235.98 111.20 234.34 C 120.46 231.26 130.25 230.58 139.87 229.47 Z" fill="#91e5ff" opacity="1.00" stroke="#91e5ff" stroke-width="0.25"/>
<path d="M 94.37 236.65 C 99.01 234.99 103.81 233.66 108.73 233.22 C 102.55 235.13 96.57 238.34 92.69 243.67 C 89.77 247.36 88.16 251.85 86.84 256.31 C 83.91 256.16 81.00 255.88 78.09 255.59 C 79.72 247.02 86.08 239.47 94.37 236.65 Z" fill="#8fe4fe" opacity="1.00" stroke="#8fe4fe" stroke-width="0.25"/>
<path d="M 235.46 239.67 C 267.70 239.37 299.95 239.16 332.19 239.39 C 332.20 250.51 332.62 261.62 332.92 272.74 C 332.96 276.24 333.18 279.73 333.32 283.23 C 301.05 283.56 268.78 283.66 236.51 284.15 C 236.32 278.30 236.31 272.45 236.12 266.60 C 235.70 257.63 235.73 248.65 235.46 239.67 Z" fill="#91e5ff" opacity="1.00" stroke="#91e5ff" stroke-width="0.25"/>
<path d="M 334.08 239.29 C 364.95 239.33 395.82 239.25 426.69 239.37 C 430.11 244.20 433.37 249.14 436.73 254.02 C 424.24 253.22 411.54 251.26 399.13 253.87 C 390.96 255.45 382.91 258.93 377.03 264.94 C 372.28 269.83 369.99 276.40 368.02 282.78 C 364.98 282.80 361.95 282.83 358.92 282.89 C 351.06 283.08 343.21 283.19 335.36 283.10 C 335.15 278.97 334.90 274.85 334.71 270.72 C 334.59 260.24 334.16 249.77 334.08 239.29 Z" fill="#91e5ff" opacity="1.00" stroke="#91e5ff" stroke-width="0.25"/>
<path d="M 169.62 247.44 C 190.59 242.44 212.20 240.90 233.66 239.59 C 233.85 250.54 233.58 261.50 234.23 272.44 C 234.19 276.62 234.34 280.81 234.14 284.99 C 232.65 284.04 231.25 282.91 230.73 281.15 C 228.46 275.43 225.76 269.89 222.44 264.71 C 219.64 260.57 216.43 256.38 211.77 254.26 C 198.52 248.45 183.83 248.06 169.62 247.44 Z" fill="#91e5fe" opacity="1.00" stroke="#91e5fe" stroke-width="0.25"/>
<path d="M 59.31 258.49 C 55.35 253.29 56.06 244.23 62.92 241.90 C 64.68 242.37 66.43 242.92 68.18 243.47 C 68.75 243.70 69.89 244.15 70.46 244.38 C 70.51 248.73 70.29 253.07 69.54 257.36 C 68.90 257.13 67.63 256.68 67.00 256.46 C 69.42 253.77 68.70 250.04 68.56 246.77 C 67.74 245.89 66.93 245.02 66.11 244.15 C 64.03 244.39 61.38 244.02 60.18 246.18 C 57.57 249.49 59.39 253.57 60.42 257.10 L 59.92 258.29 L 59.31 258.49 Z" fill="#05152a" opacity="1.00" stroke="#05152a" stroke-width="0.25"/>
<path d="M 68.18 243.47 C 72.28 243.44 76.37 243.12 80.47 243.13 C 76.89 248.17 76.36 255.12 71.10 258.93 C 72.08 254.17 74.10 248.57 70.46 244.38 C 69.89 244.15 68.75 243.70 68.18 243.47 Z" fill="#8fe5ff" opacity="1.00" stroke="#8fe5ff" stroke-width="0.25"/>
<path d="M 60.18 246.18 C 61.38 244.02 64.03 244.39 66.11 244.15 C 66.93 245.02 67.74 245.89 68.56 246.77 C 68.70 250.04 69.42 253.77 67.00 256.46 C 66.46 257.18 65.92 257.90 65.37 258.61 C 63.72 258.10 62.07 257.60 60.42 257.10 C 59.39 253.57 57.57 249.49 60.18 246.18 Z" fill="#fbbd17" opacity="1.00" stroke="#fbbd17" stroke-width="0.25"/>
<path d="M 119.90 246.39 C 122.53 246.57 125.97 245.69 127.73 248.25 C 130.00 251.59 131.78 256.45 129.16 260.11 C 127.79 262.89 124.69 263.82 121.98 264.75 C 120.19 263.41 118.31 261.99 117.30 259.93 C 116.92 256.95 116.81 253.94 116.96 250.94 C 117.62 249.24 118.79 247.81 119.90 246.39 Z" fill="#141923" opacity="1.00" stroke="#141923" stroke-width="0.25"/>
<path d="M 128.99 246.34 C 140.81 245.72 152.83 245.82 164.49 248.02 C 153.75 249.79 142.06 250.15 132.76 256.46 C 132.51 252.77 131.27 249.26 128.99 246.34 Z" fill="#91e2fd" opacity="1.00" stroke="#91e2fd" stroke-width="0.25"/>
<path d="M 314.27 246.44 C 317.93 245.91 321.77 245.76 325.37 246.73 C 328.18 247.87 328.06 252.43 325.07 253.24 C 321.67 253.61 318.22 253.51 314.83 253.18 C 311.50 252.82 311.38 247.36 314.27 246.44 Z" fill="#002c4a" opacity="1.00" stroke="#002c4a" stroke-width="0.25"/>
<path d="M 121.23 247.98 C 124.60 245.71 128.36 249.71 128.56 253.05 C 129.86 257.28 126.92 264.54 121.56 262.42 C 116.96 259.21 117.01 251.48 121.23 247.98 Z" fill="#d0b544" opacity="1.00" stroke="#d0b544" stroke-width="0.25"/>
<path d="M 314.57 248.03 C 317.87 247.76 321.20 247.90 324.48 248.39 C 324.71 249.11 325.16 250.55 325.39 251.27 C 321.73 251.37 318.06 251.35 314.41 251.24 C 314.45 250.44 314.53 248.83 314.57 248.03 Z" fill="#97ddf8" opacity="1.00" stroke="#97ddf8" stroke-width="0.25"/>
<path d="M 122.32 249.31 C 128.60 248.48 129.50 259.60 123.93 261.30 C 118.43 260.69 118.11 251.66 122.32 249.31 Z" fill="#ffbe11" opacity="1.00" stroke="#ffbe11" stroke-width="0.25"/>
<path d="M 152.11 252.45 C 167.14 250.25 182.55 249.89 197.54 252.63 C 202.43 253.62 207.41 254.77 211.79 257.26 C 215.46 259.38 218.14 262.79 220.46 266.26 C 228.02 277.82 232.09 291.24 234.55 304.73 C 230.70 304.56 225.41 306.02 223.05 301.98 C 218.40 294.45 216.25 285.43 210.24 278.73 C 199.20 265.52 178.71 260.69 163.48 269.34 C 153.99 274.29 149.36 284.42 144.25 293.25 C 143.14 295.45 140.96 296.67 138.97 297.94 C 138.29 294.93 140.16 289.26 135.91 288.48 C 126.41 287.89 116.87 288.43 107.36 288.11 C 107.63 284.81 107.00 281.54 104.53 279.18 C 109.15 279.21 113.78 279.10 118.41 279.19 C 118.90 278.78 119.89 277.96 120.38 277.55 C 105.01 276.94 89.55 277.36 74.25 275.42 C 74.23 275.89 74.18 276.81 74.15 277.28 C 82.28 278.20 90.44 278.68 98.60 278.96 C 97.62 279.83 96.69 280.75 95.81 281.71 C 94.98 283.70 94.69 285.84 94.35 287.96 C 83.05 287.49 71.73 287.26 60.43 286.83 C 60.09 285.07 59.76 283.30 59.34 281.56 C 58.91 281.37 58.04 280.98 57.61 280.79 C 57.28 280.65 56.64 280.38 56.32 280.24 C 57.56 273.46 59.02 266.70 61.48 260.24 C 66.05 260.76 70.76 261.07 75.14 259.34 C 75.34 258.80 75.75 257.72 75.95 257.18 C 89.22 259.11 102.73 258.83 116.03 257.37 C 116.35 258.01 116.98 259.29 117.30 259.93 C 118.31 261.99 120.19 263.41 121.98 264.75 C 124.46 264.86 127.09 265.24 129.45 264.32 C 132.14 262.06 133.59 258.52 136.75 256.77 C 141.45 254.16 146.90 253.44 152.11 252.45 Z" fill="#91e5ff" opacity="1.00" stroke="#91e5ff" stroke-width="0.25"/>
<path d="M 383.99 262.05 C 394.92 254.98 408.44 254.63 421.01 255.34 C 429.36 255.73 437.73 256.49 445.92 258.20 C 449.44 259.01 453.67 260.22 455.03 264.00 C 457.56 270.48 457.94 277.54 458.52 284.40 C 453.38 288.02 455.58 294.94 455.53 300.23 C 452.32 299.78 448.24 300.93 445.91 298.09 C 441.74 292.77 441.80 285.05 436.61 280.38 C 429.52 273.72 419.18 273.43 410.03 272.85 C 401.34 272.74 391.36 271.04 384.12 277.09 C 376.94 283.50 376.84 293.88 374.17 302.49 C 371.55 302.41 368.94 302.30 366.33 302.16 C 367.24 296.41 368.39 290.68 369.90 285.05 C 372.49 276.44 375.75 266.85 383.99 262.05 Z" fill="#91e5ff" opacity="1.00" stroke="#91e5ff" stroke-width="0.25"/>
<path d="M 74.78 263.83 C 88.85 264.76 102.97 265.12 117.08 264.73 C 118.55 264.41 119.60 265.29 120.46 266.35 C 108.37 267.18 96.21 266.93 84.10 266.48 C 80.93 266.05 77.01 266.67 74.78 263.83 Z" fill="#002c4a" opacity="1.00" stroke="#002c4a" stroke-width="0.25"/>
<path d="M 163.48 269.34 C 178.71 260.69 199.20 265.52 210.24 278.73 C 216.25 285.43 218.40 294.45 223.05 301.98 C 225.41 306.02 230.70 304.56 234.55 304.73 C 232.09 291.24 228.02 277.82 220.46 266.26 C 220.95 265.87 221.94 265.10 222.44 264.71 C 225.76 269.89 228.46 275.43 230.73 281.15 C 231.25 282.91 232.65 284.04 234.14 284.99 C 234.34 280.81 234.19 276.62 234.23 272.44 C 234.83 270.48 235.52 268.56 236.12 266.60 C 236.31 272.45 236.32 278.30 236.51 284.15 C 268.78 283.66 301.05 283.56 333.32 283.23 C 333.18 279.73 332.96 276.24 332.92 272.74 L 334.71 270.72 C 334.90 274.85 335.15 278.97 335.36 283.10 C 343.21 283.19 351.06 283.08 358.92 282.89 C 362.10 285.24 366.15 284.99 369.90 285.05 C 368.39 290.68 367.24 296.41 366.33 302.16 C 368.94 302.30 371.55 302.41 374.17 302.49 C 376.84 293.88 376.94 283.50 384.12 277.09 C 391.36 271.04 401.34 272.74 410.03 272.85 C 419.18 273.43 429.52 273.72 436.61 280.38 C 441.80 285.05 441.74 292.77 445.91 298.09 C 448.24 300.93 452.32 299.78 455.53 300.23 C 456.00 300.60 456.95 301.33 457.42 301.70 C 457.63 301.87 458.06 302.20 458.28 302.37 C 460.03 302.59 461.81 302.67 463.58 302.78 C 465.11 303.20 466.62 303.68 468.15 304.12 C 464.36 306.00 460.06 305.00 456.10 304.34 C 449.98 304.65 443.91 305.68 437.77 305.83 C 435.85 317.06 428.55 327.64 417.81 331.98 C 405.14 337.52 389.47 333.91 380.07 323.91 C 376.11 319.67 373.48 314.31 372.01 308.73 C 319.20 310.59 266.38 311.81 213.55 312.55 C 211.34 322.66 204.70 331.74 195.44 336.47 C 187.70 340.52 178.49 341.64 170.03 339.39 C 157.32 336.50 146.92 325.89 143.90 313.26 C 121.56 313.02 99.21 312.59 76.91 311.12 C 70.09 310.41 63.06 310.44 56.50 308.27 C 52.84 306.28 53.73 301.72 54.51 298.37 C 51.52 297.76 48.25 297.90 45.56 296.30 C 43.98 293.26 45.10 289.72 45.55 286.54 C 47.88 285.99 50.27 285.85 52.64 286.19 C 52.86 285.94 53.30 285.44 53.52 285.19 C 54.83 283.68 56.16 282.18 57.61 280.79 C 58.04 280.98 58.91 281.37 59.34 281.56 C 59.76 283.30 60.09 285.07 60.43 286.83 C 71.73 287.26 83.05 287.49 94.35 287.96 C 94.69 285.84 94.98 283.70 95.81 281.71 L 96.06 283.93 C 96.16 284.88 96.25 285.83 96.34 286.79 C 96.26 287.58 96.09 289.15 96.00 289.93 C 83.53 289.08 71.00 289.21 58.50 288.69 C 58.47 291.24 58.46 293.80 58.44 296.36 C 73.07 297.12 87.70 297.93 102.35 298.46 C 102.37 295.97 102.39 293.48 102.42 291.00 C 103.39 288.90 104.64 286.75 104.59 284.38 C 104.09 281.43 100.91 280.25 98.60 278.96 C 90.44 278.68 82.28 278.20 74.15 277.28 C 74.18 276.81 74.23 275.89 74.25 275.42 C 89.55 277.36 105.01 276.94 120.38 277.55 C 119.89 277.96 118.90 278.78 118.41 279.19 C 113.78 279.10 109.15 279.21 104.53 279.18 C 107.00 281.54 107.63 284.81 107.36 288.11 C 116.87 288.43 126.41 287.89 135.91 288.48 C 140.16 289.26 138.29 294.93 138.97 297.94 C 140.96 296.67 143.14 295.45 144.25 293.25 C 149.36 284.42 153.99 274.29 163.48 269.34 Z" fill="#062d4e" opacity="1.00" stroke="#062d4e" stroke-width="0.25"/>
<path d="M 65.26 268.24 C 66.44 267.15 68.81 267.26 69.06 269.19 C 70.07 272.26 69.21 275.93 67.03 278.34 C 61.67 279.17 61.85 270.59 65.26 268.24 Z" fill="#05152a" opacity="1.00" stroke="#05152a" stroke-width="0.25"/>
<path d="M 64.70 269.61 C 65.53 269.64 67.19 269.69 68.03 269.72 C 67.68 272.45 67.55 275.44 65.35 277.46 L 65.20 275.42 C 65.14 274.09 65.06 272.77 64.90 271.46 L 64.70 269.61 Z" fill="#aa5c50" opacity="1.00" stroke="#aa5c50" stroke-width="0.25"/>
<path d="M 73.65 270.61 C 77.77 269.75 81.95 270.64 86.09 270.95 C 97.23 271.91 108.43 271.50 119.59 271.86 C 118.41 273.94 115.94 273.39 113.96 273.53 C 103.95 273.41 93.93 273.56 83.96 272.63 C 80.47 272.34 76.82 272.27 73.65 270.61 Z" fill="#002b49" opacity="1.00" stroke="#002b49" stroke-width="0.25"/>
<path d="M 65.20 275.42 C 63.13 275.80 62.87 271.38 64.90 271.46 C 65.06 272.77 65.14 274.09 65.20 275.42 Z" fill="#652f24" opacity="1.00" stroke="#652f24" stroke-width="0.25"/>
<path d="M 127.76 274.58 C 128.61 272.54 132.03 270.97 133.39 273.31 C 134.41 277.12 132.60 283.77 127.57 282.87 C 127.26 280.13 126.73 277.22 127.76 274.58 Z" fill="#05152a" opacity="1.00" stroke="#05152a" stroke-width="0.25"/>
<path d="M 128.59 274.86 C 129.73 274.38 130.88 273.91 132.03 273.45 C 131.97 276.54 131.46 279.74 128.99 281.87 C 128.78 279.54 128.66 277.20 128.59 274.86 Z" fill="#a8635e" opacity="1.00" stroke="#a8635e" stroke-width="0.25"/>
<path d="M 95.81 281.71 C 96.69 280.75 97.62 279.83 98.60 278.96 C 100.91 280.25 104.09 281.43 104.59 284.38 C 104.64 286.75 103.39 288.90 102.42 291.00 C 100.24 290.89 98.11 290.42 96.00 289.93 C 96.09 289.15 96.26 287.58 96.34 286.79 L 96.37 286.82 C 96.71 287.15 97.40 287.80 97.75 288.13 C 98.59 289.33 100.33 289.25 101.28 288.23 L 102.33 287.52 L 102.49 287.16 C 102.75 286.57 103.26 285.39 103.51 284.80 C 102.62 283.65 101.74 282.50 100.80 281.40 C 100.22 281.45 99.04 281.55 98.46 281.60 C 97.66 282.38 96.86 283.15 96.06 283.93 L 95.81 281.71 Z" fill="#141923" opacity="1.00" stroke="#141923" stroke-width="0.25"/>
<path d="M 400.20 280.17 C 408.20 277.63 417.35 281.03 422.36 287.61 C 429.26 296.65 427.19 311.15 417.66 317.54 C 408.39 324.53 393.46 321.18 388.26 310.73 C 381.88 299.71 387.64 283.55 400.20 280.17 Z" fill="#f6d9cc" opacity="1.00" stroke="#f6d9cc" stroke-width="0.25"/>
<path d="M 98.46 281.60 C 99.04 281.55 100.22 281.45 100.80 281.40 C 101.74 282.50 102.62 283.65 103.51 284.80 C 103.26 285.39 102.75 286.57 102.49 287.16 C 102.51 285.60 101.92 284.23 100.78 283.18 C 100.04 282.96 98.56 282.53 97.82 282.31 C 97.01 283.69 96.63 285.25 96.37 286.82 L 96.34 286.79 C 96.25 285.83 96.16 284.88 96.06 283.93 C 96.86 283.15 97.66 282.38 98.46 281.60 Z" fill="#f5daca" opacity="1.00" stroke="#f5daca" stroke-width="0.25"/>
<path d="M 97.82 282.31 C 98.56 282.53 100.04 282.96 100.78 283.18 C 101.92 284.23 102.51 285.60 102.49 287.16 L 102.33 287.52 L 101.28 288.23 C 100.40 288.21 98.63 288.16 97.75 288.13 C 97.40 287.80 96.71 287.15 96.37 286.82 C 96.63 285.25 97.01 283.69 97.82 282.31 Z" fill="#fdbe08" opacity="1.00" stroke="#fdbe08" stroke-width="0.25"/>
<path d="M 174.99 282.84 C 186.30 280.31 198.92 288.37 200.83 299.92 C 203.76 312.04 194.57 325.38 182.08 326.56 C 174.26 327.57 166.11 323.93 161.76 317.35 C 157.64 311.18 156.60 303.05 159.40 296.13 C 161.90 289.42 168.03 284.36 174.99 282.84 Z" fill="#f5daca" opacity="1.00" stroke="#f5daca" stroke-width="0.25"/>
<path d="M 461.53 285.24 C 464.23 285.28 466.89 285.78 469.36 286.93 C 469.53 292.61 470.78 298.82 468.15 304.12 C 466.62 303.68 465.11 303.20 463.58 302.78 C 464.38 302.73 465.98 302.62 466.78 302.57 C 467.85 297.78 467.57 292.84 467.36 287.97 L 466.23 287.76 C 464.70 287.39 463.19 286.96 461.71 286.46 L 461.53 285.24 Z" fill="#05152a" opacity="1.00" stroke="#05152a" stroke-width="0.25"/>
<path d="M 401.46 287.72 C 407.53 285.81 414.53 289.19 417.03 294.99 C 420.15 301.50 416.73 310.41 409.85 312.84 C 403.59 315.37 395.70 312.18 393.17 305.88 C 390.08 298.85 393.79 289.69 401.46 287.72 Z" fill="#05152a" opacity="1.00" stroke="#05152a" stroke-width="0.25"/>
<path d="M 47.31 295.36 C 47.34 292.88 46.51 290.02 47.83 287.79 C 50.15 287.82 52.45 288.18 54.76 288.41 C 54.75 290.97 54.76 293.54 54.74 296.12 C 52.27 295.79 49.79 295.53 47.31 295.36 Z" fill="#fbffff" opacity="1.00" stroke="#fbffff" stroke-width="0.25"/>
<path d="M 97.75 288.13 C 98.63 288.16 100.40 288.21 101.28 288.23 C 100.33 289.25 98.59 289.33 97.75 288.13 Z" fill="#fcfffd" opacity="1.00" stroke="#fcfffd" stroke-width="0.25"/>
<path d="M 457.38 287.57 C 460.33 287.49 463.29 287.51 466.23 287.76 L 467.36 287.97 C 467.57 292.84 467.85 297.78 466.78 302.57 C 465.98 302.62 464.38 302.73 463.58 302.78 C 461.81 302.67 460.03 302.59 458.28 302.37 C 458.06 302.20 457.63 301.87 457.42 301.70 C 457.24 296.99 457.27 292.28 457.38 287.57 Z" fill="#fcfffd" opacity="1.00" stroke="#fcfffd" stroke-width="0.25"/>
<path d="M 58.44 296.36 C 58.46 293.80 58.47 291.24 58.50 288.69 C 71.00 289.21 83.53 289.08 96.00 289.93 C 98.11 290.42 100.24 290.89 102.42 291.00 C 102.39 293.48 102.37 295.97 102.35 298.46 C 87.70 297.93 73.07 297.12 58.44 296.36 Z" fill="#fcffff" opacity="1.00" stroke="#fcffff" stroke-width="0.25"/>
<path d="M 401.40 289.57 C 408.28 286.85 416.52 292.61 416.48 299.98 C 417.09 307.09 409.97 313.63 402.94 311.79 C 396.44 310.64 392.22 303.26 394.30 297.03 C 395.14 293.51 398.08 290.80 401.40 289.57 Z" fill="#feffff" opacity="1.00" stroke="#feffff" stroke-width="0.25"/>
<path d="M 105.43 298.50 C 105.55 295.58 105.61 292.67 105.70 289.76 C 115.90 290.38 126.11 289.85 136.32 290.24 C 136.84 293.14 136.72 296.12 135.59 298.88 C 125.56 299.41 115.48 298.53 105.43 298.50 Z" fill="#fdffff" opacity="1.00" stroke="#fdffff" stroke-width="0.25"/>
<path d="M 176.56 290.81 C 182.51 289.56 188.86 293.04 191.43 298.46 C 194.66 304.99 192.28 314.20 185.44 317.40 C 177.80 321.71 166.78 316.91 165.43 308.07 C 163.41 300.47 168.71 291.95 176.56 290.81 Z" fill="#141923" opacity="1.00" stroke="#141923" stroke-width="0.25"/>
<path d="M 175.09 293.01 C 181.69 290.41 189.31 295.24 190.81 301.91 C 192.72 308.50 187.90 316.27 181.01 317.11 C 174.89 318.40 168.40 313.86 167.16 307.80 C 165.38 301.76 169.09 294.89 175.09 293.01 Z" fill="#feffff" opacity="1.00" stroke="#feffff" stroke-width="0.25"/>
</svg>