<?xml version="1.0" encoding="utf-8"?>
<svg xmlns="http://www.w3.org/2000/svg" height="512pt" version="1.1" viewBox="0 0 512 512" width="512pt">
<path d="M 0.00 0.00 L 512.00 0.00 L 512.00 512.00 L 0.00 512.00 L 0.00 0.00 Z" fill="transparent" opacity="1.00" stroke="transparent" stroke-width="0.25"/>
<path d="M 261.97 50.93 C 265.07 49.11 268.31 51.42 269.85 54.13 C 285.26 79.23 293.43 108.10 298.29 136.92 C 310.56 155.21 316.66 178.33 311.59 200.10 C 309.11 210.61 303.71 220.39 296.44 228.35 C 292.70 232.69 288.12 236.17 283.85 239.94 C 294.41 250.98 307.54 259.02 319.04 268.98 C 340.58 286.47 358.86 308.20 371.19 333.14 C 380.06 349.82 384.96 368.31 387.49 386.96 C 391.95 381.31 394.20 374.18 394.12 367.01 C 393.80 353.59 389.38 340.71 384.24 328.46 C 379.15 316.92 371.45 306.69 366.95 294.86 C 360.97 280.56 357.68 264.37 361.59 249.07 C 363.59 241.66 367.64 234.46 374.05 230.01 C 379.17 226.10 385.54 223.95 391.96 223.65 C 397.77 223.50 404.35 226.23 406.46 232.03 C 407.18 236.17 406.51 241.19 402.86 243.81 C 398.19 247.45 391.93 250.03 390.02 256.17 C 387.44 265.77 390.53 275.71 393.49 284.86 C 397.10 295.79 404.45 304.90 408.71 315.54 C 414.46 327.37 418.71 339.92 421.38 352.80 C 423.89 366.89 423.33 382.02 417.10 395.12 C 413.98 402.37 408.73 408.66 402.33 413.26 C 398.26 416.25 393.44 417.96 388.80 419.87 C 388.58 420.13 388.13 420.66 387.91 420.92 C 387.54 424.81 387.48 428.76 386.37 432.54 C 385.49 436.42 383.84 440.33 380.44 442.66 C 374.10 445.64 366.86 445.27 360.06 446.19 C 349.55 447.08 339.03 447.67 328.50 448.23 C 315.96 448.43 303.40 449.04 290.85 448.57 C 288.36 448.39 285.52 448.20 283.69 446.27 C 282.62 444.86 282.07 443.16 281.37 441.57 C 276.20 441.66 271.03 441.58 265.87 441.62 C 265.05 445.02 262.90 448.48 259.03 448.66 C 247.04 449.93 234.92 448.72 222.88 448.55 C 218.31 448.80 215.51 444.48 214.97 440.42 C 211.30 440.45 207.63 440.49 203.97 440.56 C 202.72 442.42 201.18 444.05 199.52 445.54 C 186.70 446.19 173.86 445.33 161.04 445.25 C 158.20 445.09 154.77 445.51 152.64 443.21 C 148.69 439.03 150.44 432.34 153.47 428.13 C 156.26 424.94 160.50 423.52 164.67 423.81 C 164.30 404.89 163.31 385.98 161.93 367.11 C 160.59 347.70 156.53 328.53 156.15 309.05 C 155.42 296.63 157.13 284.22 159.38 272.03 C 139.32 269.80 119.10 260.36 107.68 243.18 C 94.00 223.55 92.23 198.16 96.02 175.17 C 90.12 149.22 87.00 122.50 88.43 95.87 C 88.79 92.94 88.66 89.15 91.47 87.37 C 93.33 85.94 95.81 86.56 97.92 86.90 C 110.43 89.32 122.70 92.83 134.90 96.46 C 141.70 98.83 148.62 101.03 154.99 104.45 C 173.70 96.60 194.03 92.13 214.36 92.53 C 227.77 76.11 244.46 62.73 261.97 50.93 Z" fill="#032a47" opacity="1.00" stroke="#032a47" stroke-width="0.25"/>
<path d="M 218.32 98.66 C 230.42 81.76 247.53 69.35 264.09 57.14 C 271.72 69.80 277.71 83.43 282.15 97.52 C 284.90 106.61 287.82 115.71 289.21 125.14 C 285.77 120.92 281.66 117.30 277.38 113.97 C 276.06 100.41 272.71 86.77 266.06 74.80 C 264.82 71.84 260.80 71.21 258.60 73.47 C 249.84 80.73 241.35 88.53 234.71 97.82 C 233.61 99.06 233.58 100.72 233.61 102.28 C 235.95 103.43 238.54 103.71 241.06 104.19 C 253.11 106.78 264.83 111.72 274.34 119.67 C 291.00 133.76 303.32 153.65 306.34 175.45 C 290.88 171.24 274.30 171.92 258.96 176.31 C 255.83 174.90 252.63 173.67 249.56 172.14 C 256.80 170.08 262.77 164.62 266.44 158.18 C 267.58 156.46 267.77 154.40 267.76 152.39 C 263.72 148.07 258.88 144.27 252.94 143.07 C 246.41 141.82 239.42 141.61 233.07 143.83 C 227.55 145.76 223.74 151.10 223.29 156.88 C 215.81 155.35 212.56 148.04 208.72 142.34 C 202.15 131.69 194.25 121.55 183.87 114.39 C 179.41 124.30 177.57 135.13 176.70 145.90 C 176.06 153.32 174.30 161.01 169.12 166.66 C 165.95 163.08 161.28 160.30 156.34 161.00 C 145.48 162.36 134.61 168.80 130.25 179.18 C 129.50 181.28 128.26 184.03 129.97 185.98 C 135.56 192.44 144.75 194.15 152.90 193.77 C 150.38 196.17 147.69 198.41 145.48 201.13 C 134.20 201.59 123.22 204.93 113.09 209.79 C 108.93 194.67 108.55 178.58 111.39 163.18 C 112.19 158.20 114.35 153.36 113.62 148.23 L 113.61 147.90 C 117.31 142.01 121.44 136.34 126.54 131.57 C 129.97 127.89 134.44 125.44 138.11 122.03 C 139.46 121.03 138.56 119.28 138.42 117.96 C 127.48 111.72 115.42 107.03 102.88 105.53 C 102.37 105.90 101.35 106.65 100.84 107.03 C 100.67 107.66 100.32 108.92 100.15 109.55 C 98.00 104.25 96.01 98.85 95.11 93.17 C 109.37 95.70 123.35 99.65 137.10 104.18 C 142.32 106.06 147.65 107.90 152.29 111.01 C 153.70 112.19 155.56 111.51 157.02 110.83 C 171.22 104.56 186.50 100.84 201.96 99.51 C 207.40 98.98 212.91 99.50 218.32 98.66 Z" fill="#a9eefe" opacity="1.00" stroke="#a9eefe" stroke-width="0.25"/>
<path d="M 252.30 86.94 C 255.11 83.79 258.25 80.78 261.95 78.70 C 264.04 82.66 265.66 86.86 266.85 91.19 C 268.47 97.00 270.56 102.81 270.71 108.91 C 265.21 105.54 259.22 103.19 253.27 100.80 C 250.26 99.15 246.94 98.22 243.66 97.27 C 246.18 93.52 249.79 90.69 252.30 86.94 Z" fill="#fd8258" opacity="1.00" stroke="#fd8258" stroke-width="0.25"/>
<path d="M 241.05 98.21 C 244.60 94.29 247.81 89.85 252.30 86.94 C 249.79 90.69 246.18 93.52 243.66 97.27 C 246.94 98.22 250.26 99.15 253.27 100.80 C 249.11 100.42 245.12 99.09 241.05 98.21 Z" fill="#b37766" opacity="1.00" stroke="#b37766" stroke-width="0.25"/>
<path d="M 99.89 162.08 C 95.84 139.39 93.42 116.24 95.11 93.17 C 96.01 98.85 98.00 104.25 100.15 109.55 C 99.58 122.59 101.79 135.61 105.82 147.99 C 103.94 152.71 101.51 157.23 99.89 162.08 Z" fill="#86dcfd" opacity="1.00" stroke="#86dcfd" stroke-width="0.25"/>
<path d="M 105.52 111.46 C 114.01 113.46 122.28 116.32 130.18 120.00 C 126.25 124.13 121.25 127.13 117.68 131.61 C 114.90 134.66 112.74 138.23 109.81 141.14 C 106.94 131.52 105.59 121.48 105.52 111.46 Z" fill="#fb8258" opacity="1.00" stroke="#fb8258" stroke-width="0.25"/>
<path d="M 184.46 116.91 C 195.84 125.22 203.71 137.19 211.04 149.00 C 213.82 153.56 217.91 157.59 223.34 158.63 C 223.24 164.14 225.88 169.59 230.59 172.55 C 235.71 176.12 242.20 174.49 247.87 173.56 C 250.77 174.40 253.51 175.75 256.31 176.89 C 254.22 178.58 251.07 179.14 248.91 181.02 C 249.41 181.16 250.41 181.44 250.91 181.57 C 255.23 178.89 260.21 177.64 265.09 176.43 C 278.72 173.40 293.17 173.40 306.64 177.23 C 307.29 188.45 306.33 200.10 300.99 210.20 C 296.01 220.57 287.71 228.95 278.38 235.50 C 258.94 249.17 236.04 256.97 212.97 261.94 C 193.85 265.60 173.98 268.23 154.66 264.48 C 151.75 260.38 146.71 259.06 142.73 256.34 C 136.84 252.33 130.93 248.13 126.59 242.40 C 121.40 236.78 118.79 229.47 114.80 223.07 C 123.30 215.18 134.46 210.26 146.05 209.54 C 148.81 209.42 151.61 209.76 154.33 209.13 C 152.94 208.47 151.50 207.79 149.93 207.85 C 137.44 207.65 124.84 212.09 115.51 220.45 C 114.78 217.09 113.38 213.24 115.98 210.29 C 127.56 205.16 140.44 201.41 153.18 203.71 C 152.49 201.36 149.55 202.01 147.72 201.38 C 150.07 198.61 152.71 196.08 155.49 193.76 C 160.72 192.85 166.71 191.67 169.80 186.84 C 173.96 181.20 173.06 173.64 170.24 167.63 C 175.97 162.02 177.57 153.73 178.34 146.06 C 179.12 136.12 180.99 126.27 184.46 116.91 Z" fill="#ffffff" opacity="1.00" stroke="#ffffff" stroke-width="0.25"/>
<path d="M 223.86 127.78 C 226.85 125.80 230.57 123.36 234.28 124.83 C 235.36 127.29 233.24 129.14 231.69 130.73 C 228.70 133.51 224.60 135.23 220.48 134.50 C 219.78 131.67 221.53 129.20 223.86 127.78 Z" fill="#002945" opacity="1.00" stroke="#002945" stroke-width="0.25"/>
<path d="M 144.41 143.91 C 149.53 141.70 157.09 141.46 161.03 145.97 C 160.86 146.58 160.50 147.79 160.33 148.39 C 155.82 150.24 150.62 149.65 146.22 147.77 C 144.48 147.32 144.39 145.36 144.41 143.91 Z" fill="#032a47" opacity="1.00" stroke="#032a47" stroke-width="0.25"/>
<path d="M 235.80 146.90 C 240.12 145.82 244.65 144.63 249.12 145.45 C 250.78 148.56 252.91 151.50 253.77 154.98 C 254.92 158.65 254.33 162.55 253.34 166.18 C 250.78 168.30 247.57 169.30 244.54 170.53 C 244.55 170.14 244.57 169.37 244.58 168.99 C 247.63 165.08 247.26 159.55 245.99 155.03 C 244.05 150.94 240.40 147.54 235.80 146.90 Z" fill="#fbfffe" opacity="1.00" stroke="#fbfffe" stroke-width="0.25"/>
<path d="M 102.95 216.13 C 98.25 193.22 101.26 168.32 113.62 148.23 C 114.35 153.36 112.19 158.20 111.39 163.18 C 108.55 178.58 108.93 194.67 113.09 209.79 C 109.62 211.76 106.17 213.76 102.95 216.13 Z" fill="#8be0ff" opacity="1.00" stroke="#8be0ff" stroke-width="0.25"/>
<path d="M 238.51 154.68 C 239.59 153.62 240.95 153.29 242.43 153.48 C 242.82 154.69 243.17 155.92 243.43 157.17 C 242.59 157.58 241.74 157.98 240.91 158.39 C 240.19 157.94 239.48 157.49 238.77 157.04 C 238.68 156.25 238.59 155.46 238.51 154.68 Z" fill="#f8ffff" opacity="1.00" stroke="#f8ffff" stroke-width="0.25"/>
<path d="M 141.74 170.73 C 144.52 166.93 149.85 166.39 154.01 164.81 C 145.88 171.36 148.37 186.08 158.49 189.19 C 154.96 190.11 151.36 190.85 147.69 190.66 C 142.14 185.75 141.20 177.71 141.74 170.73 Z" fill="#fcffff" opacity="1.00" stroke="#fcffff" stroke-width="0.25"/>
<path d="M 155.37 173.81 C 155.02 171.56 158.44 170.51 159.45 172.43 C 160.62 173.98 159.26 175.52 158.10 176.53 C 157.04 175.79 155.20 175.47 155.37 173.81 Z" fill="#f3ffff" opacity="1.00" stroke="#f3ffff" stroke-width="0.25"/>
<path d="M 188.55 179.96 C 195.06 176.93 202.04 174.40 209.31 174.40 C 209.54 175.02 210.01 176.28 210.24 176.90 C 209.07 181.21 207.39 185.49 204.35 188.84 C 205.68 192.50 206.43 196.73 209.44 199.47 C 212.28 201.72 216.17 200.86 219.16 199.43 C 220.08 198.20 221.10 197.04 221.83 195.69 C 223.11 193.45 221.76 190.33 223.89 188.49 C 225.57 188.23 226.83 189.07 227.23 190.71 C 227.83 195.88 225.26 201.54 220.41 203.78 C 220.22 204.04 219.85 204.57 219.66 204.83 C 221.10 210.75 220.69 216.96 220.74 223.01 C 220.85 227.88 218.74 233.32 213.96 235.25 C 209.79 236.58 205.48 234.28 203.22 230.77 C 198.63 224.04 195.89 216.24 193.50 208.50 C 185.72 210.19 177.82 202.40 179.61 194.65 C 180.50 194.67 182.27 194.71 183.15 194.73 C 184.13 198.12 185.27 202.32 189.04 203.55 C 191.85 203.99 195.53 204.18 197.33 201.50 C 199.59 198.00 198.25 193.60 198.31 189.72 C 194.56 187.31 188.36 185.23 188.55 179.96 Z" fill="#052945" opacity="1.00" stroke="#052945" stroke-width="0.25"/>
<path d="M 254.38 189.43 C 261.65 184.73 270.49 183.31 278.99 182.95 C 285.32 183.07 291.92 183.73 297.64 186.67 C 297.46 186.95 297.10 187.50 296.92 187.78 C 283.08 182.53 266.74 183.78 253.97 191.30 C 253.10 191.77 253.48 189.31 254.38 189.43 Z" fill="#112639" opacity="1.00" stroke="#112639" stroke-width="0.25"/>
<path d="M 202.49 200.00 C 205.50 200.81 207.04 204.10 210.17 204.76 C 211.83 205.48 213.70 205.44 215.47 205.25 C 216.80 211.05 216.68 217.07 216.52 222.99 C 216.18 225.72 216.15 229.37 213.32 230.80 C 210.58 232.36 207.32 230.02 206.38 227.39 C 208.47 228.33 210.62 230.26 213.05 229.32 C 214.70 227.28 215.43 224.66 215.58 222.09 C 215.88 217.23 215.77 212.31 214.73 207.54 C 210.45 206.33 206.39 204.48 202.19 203.03 C 202.21 202.77 202.25 202.24 202.28 201.97 C 202.33 201.48 202.44 200.49 202.49 200.00 Z" fill="#b56255" opacity="1.00" stroke="#b56255" stroke-width="0.25"/>
<path d="M 197.46 207.68 C 199.31 206.00 201.13 204.23 202.28 201.97 C 202.25 202.24 202.21 202.77 202.19 203.03 C 206.39 204.48 210.45 206.33 214.73 207.54 C 215.77 212.31 215.88 217.23 215.58 222.09 C 215.43 224.66 214.70 227.28 213.05 229.32 C 210.62 230.26 208.47 228.33 206.38 227.39 C 206.27 227.33 206.05 227.21 205.95 227.15 C 202.12 221.13 199.68 214.42 197.46 207.68 Z" fill="#f1613e" opacity="1.00" stroke="#f1613e" stroke-width="0.25"/>
<path d="M 210.17 204.76 C 211.42 203.44 214.98 203.25 215.47 205.25 C 213.70 205.44 211.83 205.48 210.17 204.76 Z" fill="#1f1b2a" opacity="1.00" stroke="#1f1b2a" stroke-width="0.25"/>
<path d="M 115.51 220.45 C 124.84 212.09 137.44 207.65 149.93 207.85 C 151.50 207.79 152.94 208.47 154.33 209.13 C 151.61 209.76 148.81 209.42 146.05 209.54 C 134.46 210.26 123.30 215.18 114.80 223.07 C 114.63 222.75 114.31 222.12 114.14 221.81 C 114.48 221.47 115.16 220.79 115.51 220.45 Z" fill="#112639" opacity="1.00" stroke="#112639" stroke-width="0.25"/>
<path d="M 103.48 217.84 C 107.46 215.04 111.57 212.37 115.98 210.29 C 113.38 213.24 114.78 217.09 115.51 220.45 C 115.16 220.79 114.48 221.47 114.14 221.81 C 114.31 222.12 114.63 222.75 114.80 223.07 C 118.79 229.47 121.40 236.78 126.59 242.40 C 130.93 248.13 136.84 252.33 142.73 256.34 C 146.71 259.06 151.75 260.38 154.66 264.48 C 142.89 262.39 131.31 257.75 122.21 249.84 C 112.83 241.47 106.21 230.11 103.48 217.84 Z" fill="#ddf3fd" opacity="1.00" stroke="#ddf3fd" stroke-width="0.25"/>
<path d="M 385.93 231.43 C 389.91 230.35 394.60 229.54 398.31 231.87 C 400.22 233.02 401.14 235.84 399.50 237.61 C 396.79 240.95 392.37 242.25 389.48 245.43 C 383.31 250.63 381.90 259.39 382.63 267.03 C 384.00 279.29 388.03 291.22 394.05 301.99 C 401.93 315.17 408.22 329.33 412.47 344.10 C 416.21 356.60 417.50 370.07 414.62 382.88 C 412.23 392.07 407.53 401.03 399.78 406.80 C 396.39 409.44 392.42 411.15 388.49 412.80 C 388.47 406.72 388.06 400.59 388.45 394.55 C 393.42 389.97 398.01 384.43 399.40 377.63 C 402.49 364.88 399.35 351.67 395.46 339.45 C 393.17 332.94 390.97 326.36 387.71 320.25 C 382.88 310.72 376.65 301.89 372.90 291.83 C 367.11 278.09 364.12 262.27 368.86 247.76 C 371.37 239.91 377.96 233.59 385.93 231.43 Z" fill="#89dfff" opacity="1.00" stroke="#89dfff" stroke-width="0.25"/>
<path d="M 245.13 259.65 C 256.57 255.22 268.09 250.46 278.12 243.29 C 285.17 250.79 293.19 257.25 301.39 263.42 C 320.77 277.88 339.11 294.34 352.63 314.55 C 359.63 324.77 365.82 335.61 370.44 347.11 C 380.37 370.66 383.35 396.77 381.12 422.11 C 370.49 425.92 359.57 430.51 348.03 429.52 C 333.47 428.35 318.95 426.13 304.31 426.79 C 302.40 424.32 299.73 422.59 297.83 420.11 C 290.66 411.02 286.17 399.66 286.18 388.01 C 285.93 377.90 289.13 367.50 296.02 359.97 C 300.58 355.15 307.47 352.64 314.06 353.64 C 318.09 354.09 321.45 356.57 325.28 357.68 C 327.20 356.53 328.81 353.98 327.01 352.01 C 320.72 347.09 312.10 346.40 304.47 347.73 C 293.10 350.60 285.61 361.07 282.10 371.69 C 281.71 370.89 280.93 369.30 280.55 368.50 C 281.32 362.11 277.64 356.44 276.67 350.28 C 275.87 350.85 275.08 351.43 274.28 352.02 C 274.15 348.26 276.19 344.24 274.25 340.73 C 273.46 340.66 271.87 340.52 271.08 340.46 C 269.14 331.23 266.69 322.00 262.41 313.55 C 260.39 310.17 258.29 306.82 256.87 303.13 C 251.23 289.16 248.40 274.30 245.13 259.65 Z" fill="#a9eefe" opacity="1.00" stroke="#a9eefe" stroke-width="0.25"/>
<path d="M 174.62 272.78 C 198.05 272.64 221.32 267.92 243.41 260.27 C 247.24 275.29 249.60 290.82 255.96 305.07 C 257.68 309.48 260.54 313.30 262.54 317.57 C 265.62 324.76 267.58 332.36 269.25 339.98 C 265.78 372.93 263.37 406.18 260.05 439.21 C 259.85 440.25 259.62 441.29 259.38 442.32 C 246.83 442.71 234.26 442.52 221.71 442.24 C 220.86 439.51 220.77 436.19 222.91 434.03 C 225.11 431.34 228.80 431.19 231.93 430.44 C 234.13 430.27 233.05 427.40 233.32 425.96 C 231.95 395.33 230.86 364.68 229.44 334.06 C 229.32 332.80 227.92 332.18 227.25 331.23 C 225.01 331.37 223.26 332.81 223.05 335.07 C 219.95 338.88 220.42 344.05 219.34 348.58 C 217.86 355.01 217.18 361.61 215.39 367.98 C 201.20 360.26 190.07 347.70 182.42 333.62 C 178.36 327.34 175.55 320.41 172.38 313.67 C 171.94 300.01 172.80 286.33 174.62 272.78 Z" fill="#ffffff" opacity="1.00" stroke="#ffffff" stroke-width="0.25"/>
<path d="M 163.18 290.11 C 163.77 284.23 165.00 278.45 165.82 272.61 C 168.14 272.70 170.46 272.77 172.78 272.79 C 171.59 284.17 170.39 295.59 170.70 307.06 C 171.23 316.06 167.93 324.64 164.76 332.89 C 162.87 318.74 161.50 304.36 163.18 290.11 Z" fill="#8bdffc" opacity="1.00" stroke="#8bdffc" stroke-width="0.25"/>
<path d="M 172.38 313.67 C 175.55 320.41 178.36 327.34 182.42 333.62 C 190.07 347.70 201.20 360.26 215.39 367.98 C 217.18 361.61 217.86 355.01 219.34 348.58 C 220.42 344.05 219.95 338.88 223.05 335.07 C 223.49 349.60 224.33 364.11 224.79 378.64 C 213.33 371.45 202.15 363.79 191.46 355.50 C 190.18 354.22 188.35 354.47 186.72 354.46 C 186.46 355.08 185.95 356.31 185.70 356.93 C 184.98 360.38 189.49 360.90 190.38 363.71 C 189.69 366.04 189.53 368.48 189.36 370.90 C 187.77 388.94 186.28 407.00 184.87 425.05 C 184.71 426.32 185.84 427.55 187.13 427.36 C 191.34 427.36 195.46 426.33 199.66 426.16 C 199.12 430.21 198.63 434.26 198.34 438.34 C 193.70 439.86 188.78 439.00 184.00 439.14 C 174.86 438.66 165.71 438.87 156.57 438.47 C 156.91 435.39 157.79 432.33 160.57 430.60 C 164.04 429.72 168.50 431.84 171.19 428.93 C 171.78 422.27 170.83 415.60 170.72 408.95 C 169.81 385.88 168.79 362.78 165.57 339.90 C 165.47 338.26 164.93 336.50 165.68 334.94 C 168.56 328.07 170.90 320.98 172.38 313.67 Z" fill="#def4ff" opacity="1.00" stroke="#def4ff" stroke-width="0.25"/>
<path d="M 274.28 352.02 C 275.08 351.43 275.87 350.85 276.67 350.28 C 277.64 356.44 281.32 362.11 280.55 368.50 C 277.68 363.43 273.74 358.09 274.28 352.02 Z" fill="#8cdcf9" opacity="1.00" stroke="#8cdcf9" stroke-width="0.25"/>
<path d="M 270.20 403.19 C 270.83 388.43 272.60 373.75 273.72 359.03 C 275.64 363.38 277.81 367.61 280.45 371.58 C 282.10 373.43 280.80 375.79 280.53 377.88 C 278.45 388.38 280.55 399.13 283.88 409.13 C 279.37 407.03 274.81 405.02 270.20 403.19 Z" fill="#ddf4ff" opacity="1.00" stroke="#ddf4ff" stroke-width="0.25"/>
<path d="M 191.72 364.08 C 195.60 366.92 199.73 369.42 203.45 372.47 C 204.33 374.48 203.53 376.90 203.60 379.06 C 202.28 394.19 200.83 409.31 199.69 424.46 C 195.29 424.88 190.93 425.70 186.51 425.81 C 188.23 405.24 189.61 384.62 191.72 364.08 Z" fill="#8be0fe" opacity="1.00" stroke="#8be0fe" stroke-width="0.25"/>
<path d="M 215.72 380.21 C 218.65 382.65 222.63 383.80 225.16 386.68 C 225.56 399.60 226.37 412.52 226.56 425.46 C 225.66 425.55 223.85 425.75 222.94 425.85 C 221.22 410.54 218.12 395.42 215.72 380.21 Z" fill="#89dcfe" opacity="1.00" stroke="#89dcfe" stroke-width="0.25"/>
<path d="M 206.25 425.63 C 207.10 411.31 208.32 396.99 209.96 382.75 C 211.40 395.87 214.55 408.75 215.89 421.87 C 212.47 422.46 208.59 422.69 206.25 425.63 Z" fill="#faffff" opacity="1.00" stroke="#faffff" stroke-width="0.25"/>
<path d="M 269.10 410.05 C 274.71 411.67 279.78 414.80 285.45 416.29 C 289.60 417.03 290.48 421.88 292.96 424.69 C 288.68 426.54 284.25 429.76 283.16 434.55 C 277.93 435.80 272.50 434.81 267.18 435.23 C 267.15 426.79 268.50 418.44 269.10 410.05 Z" fill="#8bdfff" opacity="1.00" stroke="#8bdfff" stroke-width="0.25"/>
<path d="M 349.08 431.23 C 360.30 431.87 370.86 427.59 381.17 423.82 C 380.54 427.76 380.34 431.93 378.32 435.48 C 376.97 437.72 374.06 437.71 371.79 438.21 C 353.93 440.06 336.00 441.42 318.04 441.83 C 308.03 442.10 297.94 442.78 287.97 441.50 C 287.23 437.41 289.77 433.22 293.39 431.38 C 296.68 429.64 300.44 429.16 304.08 428.67 C 319.14 427.57 334.11 430.12 349.08 431.23 Z" fill="#feffff" opacity="1.00" stroke="#feffff" stroke-width="0.25"/>
<path d="M 208.00 433.67 C 209.78 428.35 216.35 428.15 221.01 427.42 C 218.96 429.18 217.00 431.09 216.11 433.72 C 213.41 433.76 210.70 433.77 208.00 433.67 Z" fill="#cbf1ff" opacity="1.00" stroke="#cbf1ff" stroke-width="0.25"/>
<path d="M 143.05 428.62 C 146.50 428.18 150.01 427.18 153.47 428.13 C 150.44 432.34 148.69 439.03 152.64 443.21 C 154.77 445.51 158.20 445.09 161.04 445.25 C 173.86 445.33 186.70 446.19 199.52 445.54 C 201.18 444.05 202.72 442.42 203.97 440.56 C 207.63 440.49 211.30 440.45 214.97 440.42 C 215.51 444.48 218.31 448.80 222.88 448.55 C 234.92 448.72 247.04 449.93 259.03 448.66 C 262.90 448.48 265.05 445.02 265.87 441.62 C 271.03 441.58 276.20 441.66 281.37 441.57 C 282.07 443.16 282.62 444.86 283.69 446.27 C 285.52 448.20 288.36 448.39 290.85 448.57 C 303.40 449.04 315.96 448.43 328.50 448.23 C 327.92 449.15 327.09 449.58 326.01 449.51 C 322.02 449.72 317.99 449.43 314.02 450.02 C 307.06 451.07 300.00 450.47 293.00 450.78 C 284.01 451.27 275.00 451.04 266.00 451.24 C 244.33 452.40 222.65 451.02 200.99 450.35 C 185.97 450.18 170.95 449.43 155.98 448.21 C 139.63 447.39 123.31 445.18 107.38 441.40 C 104.84 441.05 103.76 438.67 104.32 436.34 C 110.08 432.34 117.35 432.00 124.04 430.82 C 130.32 429.60 136.75 429.67 143.05 428.62 Z" fill="#d9f3ff" opacity="1.00" stroke="#d9f3ff" stroke-width="0.25"/>
<path d="M 386.37 432.54 C 389.39 432.37 391.48 434.87 393.85 436.31 C 393.55 437.68 393.89 439.58 392.27 440.22 C 389.38 441.70 386.23 442.55 383.22 443.73 C 382.52 443.46 381.14 442.93 380.44 442.66 C 383.84 440.33 385.49 436.42 386.37 432.54 Z" fill="#d6f1fe" opacity="1.00" stroke="#d6f1fe" stroke-width="0.25"/>
</svg>