<svg xmlns="http://www.w3.org/2000/svg" height="512pt" version="1.1" viewBox="0 0 512 512" width="512pt">
<path d="M 0.00 0.00 L 512.00 0.00 L 512.00 512.00 L 0.00 512.00 L 0.00 0.00 Z" fill="transparent" opacity="1.00" stroke="transparent" stroke-width="0.25" data-index="0" style="opacity: 1;"></path>
<path d="M 166.20 117.19 C 186.15 87.68 222.88 71.69 258.05 74.09 C 276.83 75.22 295.38 81.39 310.83 92.17 C 329.60 104.88 343.94 124.35 349.38 146.46 C 355.50 171.83 350.70 200.01 335.03 221.11 C 346.58 229.37 358.45 237.67 372.05 242.19 C 380.38 245.09 389.16 246.55 397.96 247.00 C 400.61 246.84 403.21 249.24 402.43 251.99 C 400.52 257.24 396.03 260.85 392.43 264.91 C 402.72 271.22 413.21 277.21 423.50 283.50 C 426.07 284.71 425.80 288.21 423.85 289.87 C 414.93 298.51 401.93 301.47 389.83 300.52 C 381.91 316.16 369.65 329.63 354.33 338.27 C 344.44 344.32 333.46 348.17 322.45 351.59 C 322.61 357.00 322.39 362.42 322.43 367.84 C 322.22 374.19 322.63 380.57 321.98 386.89 C 321.78 390.16 318.28 391.36 316.03 393.07 C 310.18 396.54 305.20 402.53 297.94 402.73 C 294.70 403.12 291.41 402.31 288.96 400.12 C 284.51 395.65 277.63 400.51 272.64 397.32 C 270.56 394.95 272.56 392.08 274.11 390.07 C 280.05 382.84 289.03 379.26 297.47 375.87 C 297.39 372.55 297.29 369.23 297.07 365.91 C 296.83 362.53 296.61 359.15 296.47 355.77 C 287.94 356.17 279.41 356.32 270.87 356.16 C 270.77 359.35 270.67 362.55 270.56 365.75 C 270.14 372.31 270.44 378.97 269.30 385.46 C 265.89 388.94 261.19 390.69 257.07 393.17 C 252.26 395.94 246.99 399.32 241.16 398.05 C 236.93 397.59 234.25 394.04 230.92 391.85 C 226.61 391.68 222.19 392.15 218.02 390.74 C 218.12 385.28 222.29 381.34 226.38 378.33 C 231.89 374.13 238.68 372.33 245.08 369.99 L 245.73 369.76 C 245.79 364.08 245.61 358.41 245.31 352.75 C 223.35 348.41 201.68 339.31 185.41 323.60 C 172.31 311.45 163.59 294.72 160.98 277.06 C 158.50 260.70 159.72 243.61 165.59 228.07 C 161.71 223.07 159.10 217.28 156.17 211.71 C 148.61 212.43 140.72 212.95 133.39 210.56 C 133.20 208.24 133.29 205.79 135.10 204.08 C 139.45 198.95 144.41 194.38 149.22 189.70 C 142.99 185.31 135.75 182.17 130.64 176.34 C 128.69 173.93 129.24 169.46 132.25 168.14 C 137.70 165.19 143.72 163.54 149.66 161.91 C 151.59 145.98 156.89 130.35 166.20 117.19 Z" fill="#042f54" opacity="1.00" stroke="#042f54" stroke-width="0.25" data-index="1" style="opacity: 1;"></path>
<path d="M 235.23 83.60 C 256.77 79.98 279.55 83.71 298.63 94.40 C 317.53 104.61 332.73 121.90 339.52 142.37 C 349.23 170.46 341.93 203.77 320.77 224.77 C 318.55 226.99 315.78 228.66 313.84 231.16 C 312.83 234.14 315.89 237.48 318.95 236.45 C 323.16 234.21 326.30 230.50 329.83 227.37 C 341.68 235.88 353.89 244.24 367.61 249.45 C 374.84 252.33 382.53 253.80 390.22 254.79 C 388.22 258.56 384.41 260.65 381.44 263.52 C 380.84 265.48 381.00 267.99 383.12 268.94 C 389.09 272.66 395.37 275.89 401.31 279.67 C 405.43 282.36 410.07 284.28 413.74 287.61 C 402.39 294.00 388.21 293.46 376.47 288.42 C 372.97 287.12 369.95 284.86 366.58 283.32 C 363.17 281.84 360.02 286.90 362.54 289.38 C 367.71 294.34 374.75 296.47 381.32 298.89 C 372.46 316.21 356.67 329.29 338.93 336.83 C 315.09 347.22 288.47 349.34 262.80 347.15 C 239.43 344.56 215.80 337.61 197.03 322.98 C 182.02 311.35 171.42 293.94 169.02 275.00 C 167.28 261.59 167.66 247.61 172.07 234.72 C 172.87 231.88 174.54 229.24 174.74 226.26 C 171.15 221.29 166.99 216.57 164.92 210.68 C 172.52 209.00 180.38 207.36 187.04 203.12 C 188.63 202.40 188.84 200.54 189.18 199.03 C 190.79 186.19 188.02 173.08 182.38 161.50 C 181.45 159.57 180.11 157.88 178.80 156.21 C 172.00 157.17 165.30 158.75 158.53 159.89 C 160.93 140.22 170.56 121.56 184.99 108.01 C 198.79 95.08 216.58 86.56 235.23 83.60 Z" fill="#fffaac" opacity="1.00" stroke="#fffaac" stroke-width="0.25" data-index="2"></path>
<path d="M 143.40 171.26 C 154.22 168.35 165.27 166.45 176.26 164.36 C 180.93 173.42 182.93 183.82 182.67 193.98 C 170.37 191.48 158.66 186.52 147.73 180.41 C 144.16 178.58 140.78 176.38 137.65 173.86 C 139.42 172.70 141.33 171.76 143.40 171.26 Z" fill="#f46930" opacity="1.00" stroke="#f46930" stroke-width="0.25" data-index="3"></path>
<path d="M 232.32 167.29 C 242.09 165.35 253.04 171.57 255.77 181.27 C 258.04 188.58 256.30 197.29 250.61 202.60 C 245.51 207.96 237.33 209.67 230.30 207.79 C 225.08 206.48 220.69 202.74 217.92 198.21 C 214.37 191.78 214.33 183.41 218.10 177.06 C 221.17 171.99 226.44 168.26 232.32 167.29 Z" fill="#042f54" opacity="1.00" stroke="#042f54" stroke-width="0.25" data-index="4"></path>
<path d="M 238.55 174.65 C 244.28 170.85 252.45 176.32 251.36 183.04 C 251.17 189.76 242.09 193.29 237.35 188.64 C 232.76 185.20 233.36 177.22 238.55 174.65 Z" fill="#ffffff" opacity="1.00" stroke="#ffffff" stroke-width="0.25" data-index="5"></path>
<path d="M 152.78 195.78 C 154.16 194.59 155.65 192.67 157.72 193.42 C 161.17 194.38 164.37 196.03 167.78 197.12 C 170.61 198.19 173.79 198.57 176.17 200.58 C 165.67 203.56 154.70 205.27 143.78 204.97 C 146.24 201.41 149.73 198.79 152.78 195.78 Z" fill="#f46930" opacity="1.00" stroke="#f46930" stroke-width="0.25" data-index="6"></path>
<path d="M 245.26 283.93 C 246.74 282.99 249.19 283.15 250.10 284.83 C 252.65 288.33 254.46 292.36 257.49 295.51 C 272.89 312.30 296.45 320.16 318.90 319.21 C 322.04 319.27 323.33 322.83 322.50 325.49 C 320.56 328.24 316.91 327.45 314.03 327.65 C 296.61 327.51 279.29 321.96 264.79 312.34 C 256.15 306.43 248.66 298.64 243.80 289.33 C 242.83 287.46 243.20 284.88 245.26 283.93 Z" fill="#042f54" opacity="1.00" stroke="#042f54" stroke-width="0.25" data-index="7"></path>
<path d="M 303.65 354.81 C 307.47 354.08 311.31 353.43 315.20 353.18 C 315.65 363.75 315.55 374.37 315.20 384.94 C 313.18 387.40 310.26 388.85 307.74 390.73 C 304.17 393.11 300.56 396.26 296.04 396.33 C 293.81 395.20 292.29 393.14 290.32 391.67 C 288.54 390.25 286.13 390.68 284.03 390.39 C 290.33 386.34 297.24 383.34 304.36 381.05 C 305.26 372.28 303.27 363.57 303.65 354.81 Z" fill="#f46930" opacity="1.00" stroke="#f46930" stroke-width="0.25" data-index="8" style="opacity: 1;"></path>
<path d="M 252.29 354.24 C 256.11 354.36 259.93 354.55 263.70 355.24 C 263.45 364.25 264.01 373.37 262.33 382.28 C 255.69 385.26 249.90 391.66 242.07 390.69 C 239.26 390.66 237.80 387.78 235.74 386.28 C 234.30 384.64 232.09 384.51 230.09 384.22 C 236.95 379.82 244.97 378.03 252.50 375.13 C 252.73 368.17 252.36 361.20 252.29 354.24 Z" fill="#f46930" opacity="1.00" stroke="#f46930" stroke-width="0.25" data-index="9"></path>

<path d="M 208.21 368.34 C 220.55 367.48 232.86 365.94 245.25 366.11 C 245.16 367.40 245.10 368.69 245.08 369.99 C 238.68 372.33 231.89 374.13 226.38 378.33 C 222.29 381.34 218.12 385.28 218.02 390.74 C 222.19 392.15 226.61 391.68 230.92 391.85 C 234.25 394.04 236.93 397.59 241.16 398.05 C 246.99 399.32 252.26 395.94 257.07 393.17 C 261.19 390.69 265.89 388.94 269.30 385.46 C 270.44 378.97 270.14 372.31 270.56 365.75 C 279.40 365.49 288.24 365.65 297.07 365.91 C 297.29 369.23 297.39 372.55 297.47 375.87 C 289.03 379.26 280.05 382.84 274.11 390.07 C 272.56 392.08 270.56 394.95 272.64 397.32 C 277.63 400.51 284.51 395.65 288.96 400.12 C 291.41 402.31 294.70 403.12 297.94 402.73 C 305.20 402.53 310.18 396.54 316.03 393.07 C 318.28 391.36 321.78 390.16 321.98 386.89 C 322.63 380.57 322.22 374.19 322.43 367.84 C 330.19 367.19 337.92 368.35 345.59 369.38 C 356.70 370.77 367.77 372.65 378.64 375.33 C 384.69 377.02 390.97 379.01 395.77 383.23 C 398.13 385.10 398.41 389.01 395.99 390.95 C 390.40 395.99 382.90 397.99 375.77 399.75 C 357.13 404.19 338.00 406.10 318.93 407.63 C 297.64 408.71 276.31 409.47 254.99 408.81 C 225.89 408.40 196.67 406.07 168.24 399.61 C 161.86 397.96 155.50 395.68 149.98 392.03 C 147.10 390.34 146.39 386.18 148.64 383.69 C 152.18 379.72 157.58 378.23 162.43 376.48 C 177.33 372.08 192.81 370.09 208.21 368.34 Z" fill="#9be9fe" opacity="1.00" stroke="#9be9fe" stroke-width="0.25" data-index="11" style="opacity: 1; visibility: hidden;"></path>
</svg>