<svg xmlns="http://www.w3.org/2000/svg" height="512pt" version="1.1" viewBox="0 0 512 512" width="512pt">

<path d="M 237.01 46.97 C 246.37 45.32 262.63 45.31 271.99 46.97 C 260.33 47.01 248.67 47.08 237.01 46.97 Z" fill="#839aac" opacity="1.00" stroke="#839aac" stroke-width="0.25" data-index="1"></path>
<path d="M 225.18 48.06 C 225.48 45.78 229.55 46.23 230.92 47.49 C 229.48 47.63 226.61 47.92 225.18 48.06 Z" fill="#7f919f" opacity="1.00" stroke="#7f919f" stroke-width="0.25" data-index="2"></path>
<path d="M 230.92 47.49 C 232.91 47.04 234.96 46.93 237.01 46.97 C 248.67 47.08 260.33 47.01 271.99 46.97 C 275.01 46.98 278.11 46.78 281.09 47.48 C 282.52 47.62 285.38 47.91 286.81 48.05 C 292.28 46.82 296.16 50.28 297.84 55.12 C 301.47 61.62 304.68 68.34 307.93 75.03 C 309.48 89.06 326.30 85.06 335.99 88.26 C 352.77 94.00 373.56 92.26 384.83 108.26 C 406.52 129.51 427.81 151.22 447.97 173.91 C 447.69 174.23 447.14 174.87 446.87 175.18 C 438.54 182.45 430.97 190.60 423.55 198.74 C 413.96 208.78 404.02 218.49 394.11 228.21 C 388.72 229.72 385.72 222.13 382.21 218.85 C 380.61 216.99 378.84 215.30 377.06 213.63 C 373.40 210.25 370.17 206.49 367.02 202.66 C 362.58 199.18 365.85 208.81 365.25 211.27 C 365.09 212.77 364.96 214.28 364.84 215.79 C 364.51 218.57 364.22 221.40 364.17 224.21 C 363.97 229.40 364.10 234.60 363.82 239.79 C 362.89 245.55 363.05 251.40 363.22 257.22 C 363.04 262.06 363.06 266.93 362.81 271.78 C 361.41 293.53 361.59 315.47 362.72 337.23 C 362.92 341.71 362.94 346.23 363.32 350.72 C 363.30 359.20 362.10 367.86 363.60 376.28 C 363.81 379.40 363.99 382.58 364.32 385.71 C 364.31 390.54 363.49 395.52 364.64 400.30 C 364.84 402.78 365.03 405.27 365.22 407.78 C 365.23 411.59 365.42 415.41 365.78 419.23 C 365.93 420.85 366.22 424.09 366.37 425.72 C 366.19 429.43 366.08 433.21 365.95 436.95 C 351.21 450.36 331.55 456.75 312.10 459.29 C 310.40 458.61 308.30 458.38 306.94 459.85 C 306.54 459.96 305.73 460.17 305.32 460.27 C 292.46 460.16 279.52 459.29 266.70 460.58 C 258.42 461.32 250.28 463.01 242.08 464.28 C 240.38 463.61 238.35 463.43 236.90 464.75 C 235.36 464.95 233.82 465.15 232.28 465.37 C 224.77 464.96 217.26 464.99 209.75 465.28 C 206.42 464.95 203.14 464.57 199.84 464.09 C 188.75 461.92 178.20 457.75 168.13 452.71 C 162.76 449.48 157.53 446.02 152.21 442.72 C 150.09 440.79 148.05 438.79 146.08 436.71 C 146.03 433.44 145.99 430.24 146.01 426.99 C 146.07 426.31 146.19 424.94 146.25 424.26 C 146.57 421.48 147.00 418.78 147.04 416.01 C 147.06 413.32 147.05 410.65 147.01 407.99 C 146.95 405.39 147.04 402.81 147.27 400.26 C 147.99 394.86 148.04 389.41 148.01 384.00 C 147.96 381.40 148.05 378.82 148.28 376.26 C 149.30 369.13 148.96 361.92 148.74 354.77 C 148.88 351.56 149.02 348.41 149.24 345.23 C 149.95 339.51 150.07 333.74 150.02 328.00 C 149.99 310.99 150.00 293.99 150.01 276.99 C 149.98 272.55 150.09 268.09 149.37 263.71 C 149.08 258.54 149.07 253.38 148.79 248.23 C 148.84 242.81 149.17 237.34 148.09 232.00 C 148.01 229.39 147.92 226.80 147.82 224.22 C 147.70 221.36 147.71 218.54 147.40 215.72 C 145.76 212.50 149.57 201.98 145.26 202.32 C 137.50 211.55 128.32 219.48 120.85 228.98 C 108.15 221.73 99.43 208.41 88.22 198.81 C 82.94 193.40 77.62 188.03 72.19 182.77 C 70.10 179.61 64.50 176.97 64.32 173.36 C 88.59 147.41 111.71 119.88 139.35 97.38 C 151.58 94.10 164.02 91.62 176.24 88.31 C 184.10 87.11 191.80 85.06 199.61 83.63 C 200.88 81.67 201.66 79.46 202.43 77.28 C 207.20 67.78 211.41 57.94 217.30 49.06 C 218.88 49.19 220.48 49.08 221.96 48.48 C 222.77 48.37 224.38 48.17 225.18 48.06 C 226.61 47.92 229.48 47.63 230.92 47.49 Z" fill="#0b3655" opacity="1.00" stroke="#0b3655" stroke-width="0.25" data-index="3" style="opacity: 1;"></path>
<path d="M 281.09 47.48 C 282.45 46.26 286.50 45.79 286.81 48.05 C 285.38 47.91 282.52 47.62 281.09 47.48 Z" fill="#80929e" opacity="1.00" stroke="#80929e" stroke-width="0.25" data-index="4"></path>
<path d="M 217.30 49.06 C 217.27 47.01 220.87 47.39 221.96 48.48 C 220.48 49.08 218.88 49.19 217.30 49.06 Z" fill="#7a94aa" opacity="1.00" stroke="#7a94aa" stroke-width="0.25" data-index="5"></path>
<path d="M 222.20 56.08 C 222.99 53.79 227.18 54.43 228.93 55.54 C 226.73 56.08 224.49 56.26 222.20 56.08 Z" fill="#568da9" opacity="1.00" stroke="#568da9" stroke-width="0.25" data-index="6"></path>
<path d="M 228.93 55.54 C 244.80 54.47 260.83 54.97 276.74 55.26 C 280.49 55.63 284.26 55.89 288.04 56.05 C 290.34 59.28 284.24 66.22 281.67 70.00 C 279.85 69.95 278.02 69.96 276.21 70.06 C 274.88 70.04 273.56 69.93 272.25 69.75 C 269.48 69.41 266.77 69.00 264.00 68.96 C 257.32 68.95 250.66 69.03 243.99 68.97 C 240.86 68.97 237.73 68.92 234.67 69.60 C 226.82 72.29 224.21 61.76 222.20 56.08 C 224.49 56.26 226.73 56.08 228.93 55.54 Z" fill="#a4e8fc" opacity="1.00" stroke="#a4e8fc" stroke-width="0.25" data-index="7" style="opacity: 1;"></path>
<path d="M 276.74 55.26 C 281.40 54.44 285.16 54.71 288.04 56.05 C 284.26 55.89 280.49 55.63 276.74 55.26 Z" fill="#70a7c2" opacity="1.00" stroke="#70a7c2" stroke-width="0.25" data-index="8"></path>

<path d="M 216.27 66.91 C 214.43 65.07 218.94 62.68 218.03 65.75 C 217.59 66.04 216.71 66.62 216.27 66.91 Z" fill="#6491a8" opacity="1.00" stroke="#6491a8" stroke-width="0.25" data-index="10"></path>
<path d="M 293.36 65.27 C 298.02 67.87 298.85 77.54 302.63 82.38 C 302.23 94.88 294.72 106.51 292.74 119.03 C 286.12 111.33 277.84 103.62 269.94 97.02 C 277.86 86.56 287.22 77.01 293.36 65.27 Z" fill="#c8f3fa" opacity="1.00" stroke="#c8f3fa" stroke-width="0.25" data-index="11" style="opacity: 1;"></path>
<path d="M 216.27 66.91 C 216.71 66.62 217.59 66.04 218.03 65.75 C 223.99 77.48 234.84 86.49 240.96 97.83 C 231.86 103.10 225.31 112.09 218.26 119.02 C 216.37 106.63 209.94 95.44 208.08 83.11 C 210.68 77.66 213.04 72.03 216.27 66.91 Z" fill="#c7f2f9" opacity="1.00" stroke="#c7f2f9" stroke-width="0.25" data-index="12" style="opacity: 1;"></path>
<path d="M 234.67 69.60 C 237.73 68.92 240.86 68.97 243.99 68.97 C 243.86 72.27 237.12 69.30 234.67 69.60 Z" fill="#4b849e" opacity="1.00" stroke="#4b849e" stroke-width="0.25" data-index="13"></path>
<path d="M 264.00 68.96 C 266.77 69.00 269.48 69.41 272.25 69.75 C 269.80 69.47 264.88 71.32 264.00 68.96 Z" fill="#48809b" opacity="1.00" stroke="#48809b" stroke-width="0.25" data-index="14"></path>
<path d="M 276.21 70.06 C 278.02 69.96 279.85 69.95 281.67 70.00 C 281.35 71.90 276.64 71.87 276.21 70.06 Z" fill="#4b829f" opacity="1.00" stroke="#4b829f" stroke-width="0.25" data-index="15"></path>
<path d="M 244.01 73.97 C 248.57 72.93 261.46 71.36 266.02 73.99 C 258.68 74.02 251.34 74.01 244.01 73.97 Z" fill="#326787" opacity="1.00" stroke="#326787" stroke-width="0.25" data-index="16"></path>
<path d="M 233.19 75.07 C 234.03 72.80 238.17 73.46 239.94 74.54 C 237.74 75.12 235.49 75.30 233.19 75.07 Z" fill="#4b86a4" opacity="1.00" stroke="#4b86a4" stroke-width="0.25" data-index="17"></path>
<path d="M 239.94 74.54 C 241.26 74.13 242.62 73.95 244.01 73.97 C 251.34 74.01 258.68 74.02 266.02 73.99 C 270.07 73.98 274.12 74.35 278.10 75.09 C 271.55 84.74 263.83 93.55 257.05 103.04 C 256.10 104.82 253.40 107.15 252.93 102.06 C 246.63 92.87 238.94 84.64 233.19 75.07 C 235.49 75.30 237.74 75.12 239.94 74.54 Z" fill="#94d7f2" opacity="1.00" stroke="#94d7f2" stroke-width="0.25" data-index="18"></path>

<path d="M 176.24 88.31 C 182.51 83.30 193.34 77.52 202.43 77.28 C 201.66 79.46 200.88 81.67 199.61 83.63 C 191.80 85.06 184.10 87.11 176.24 88.31 Z" fill="#a2ddef" opacity="1.00" stroke="#a2ddef" stroke-width="0.25" data-index="20" style="opacity: 1; visibility: hidden;"></path>
<path d="M 196.16 93.02 C 196.00 91.17 199.15 91.32 199.99 92.44 C 198.81 93.06 197.47 93.19 196.16 93.02 Z" fill="#6791a5" opacity="1.00" stroke="#6791a5" stroke-width="0.25" data-index="21"></path>
<path d="M 199.99 92.44 C 201.23 91.74 202.15 92.02 202.75 93.27 C 205.23 104.21 209.88 114.49 212.62 125.35 C 213.76 129.42 218.58 130.07 221.73 127.70 C 227.23 121.34 232.43 114.71 238.47 108.84 C 241.93 111.33 246.64 112.81 248.40 116.99 C 247.94 119.05 247.20 121.03 246.52 123.02 C 245.82 124.52 245.85 126.18 245.94 127.79 C 245.90 128.27 245.81 129.23 245.77 129.71 C 244.70 138.84 244.45 148.16 245.58 157.31 C 246.09 161.51 246.02 165.77 246.02 170.00 C 245.96 180.00 245.97 190.00 246.00 200.00 C 246.19 212.43 245.39 224.91 246.61 237.30 C 247.28 245.18 246.98 253.10 247.00 261.00 C 246.99 288.67 247.01 316.34 246.99 344.00 C 247.00 361.67 246.99 379.33 247.00 397.00 C 247.31 405.41 246.13 413.98 247.59 422.32 C 248.18 427.50 248.01 432.77 248.00 438.00 C 247.94 443.58 247.98 449.17 247.96 454.76 C 245.33 455.58 242.60 456.29 239.81 456.02 C 238.20 455.78 236.55 455.90 235.04 456.52 C 234.28 456.64 232.77 456.89 232.02 457.01 C 225.00 457.00 217.99 457.00 210.98 457.00 C 194.61 455.73 178.11 450.27 164.66 440.88 C 172.35 425.62 181.54 410.59 184.41 393.39 C 188.75 369.06 183.47 344.55 182.76 320.14 C 178.75 284.18 179.00 247.64 171.86 212.12 C 168.88 201.83 163.56 191.45 154.20 185.65 L 154.09 184.85 C 154.01 181.45 154.11 178.03 153.41 174.69 C 153.08 172.07 152.95 169.44 153.00 166.81 C 153.32 164.48 153.16 162.23 152.53 160.06 C 152.40 159.25 152.13 157.63 151.99 156.82 C 152.19 155.21 152.06 153.58 151.53 152.05 C 151.20 148.27 150.50 144.56 150.01 140.82 C 150.17 139.14 150.01 137.44 149.35 135.88 C 149.25 134.55 149.01 133.23 148.46 132.01 C 146.73 125.32 144.85 118.61 143.82 111.78 C 147.26 109.25 151.33 107.19 153.43 103.29 C 166.64 98.23 181.95 95.99 196.16 93.02 C 197.47 93.19 198.81 93.06 199.99 92.44 Z" fill="#cef7ff" opacity="1.00" stroke="#cef7ff" stroke-width="0.25" data-index="22" style="opacity: 1;"></path>
<path d="M 309.29 92.04 C 309.72 92.15 310.58 92.36 311.01 92.46 C 312.19 93.05 313.53 93.21 314.84 93.01 C 331.74 95.34 348.36 100.11 365.01 103.96 C 369.62 104.02 372.47 107.67 375.75 110.25 C 395.53 129.83 415.19 149.53 433.76 170.23 C 435.00 171.40 436.71 172.80 435.81 174.73 C 422.24 187.72 409.62 201.80 395.64 214.31 C 388.81 195.93 383.89 176.81 376.45 158.62 C 374.44 152.81 371.17 147.27 370.83 141.03 C 371.01 140.25 371.37 138.69 371.55 137.92 C 371.51 136.71 371.42 134.31 371.37 133.11 C 365.13 129.55 366.62 140.47 364.52 143.99 C 363.90 145.18 363.79 146.53 364.00 147.84 C 364.20 150.64 363.23 153.34 362.49 155.99 C 361.91 157.19 361.79 158.53 362.00 159.84 C 362.22 162.66 361.18 165.34 360.48 168.02 C 359.85 169.55 359.83 171.21 360.02 172.82 C 359.90 173.63 359.65 175.23 359.53 176.04 C 358.89 177.55 358.82 179.20 359.00 180.82 C 358.88 181.63 358.64 183.27 358.52 184.09 C 358.38 185.52 358.09 188.38 357.95 189.81 C 358.06 191.91 357.98 194.04 357.56 196.11 C 356.92 198.31 356.72 200.52 356.96 202.77 C 357.06 204.43 356.94 206.09 356.75 207.75 C 356.26 211.47 356.00 215.22 355.99 218.99 C 355.89 223.23 356.11 227.50 355.73 231.74 C 355.26 235.81 355.01 239.90 354.98 244.01 C 355.00 246.58 354.92 249.16 354.73 251.74 C 354.27 255.80 354.00 259.90 353.97 264.00 C 353.93 269.32 353.94 274.67 354.01 280.00 C 353.99 293.66 354.01 307.33 354.00 321.00 C 353.95 328.33 353.97 335.66 353.97 343.00 C 354.07 348.09 353.51 353.29 354.59 358.32 C 355.03 361.49 355.00 364.78 355.00 368.00 C 354.91 373.42 355.06 378.86 355.69 384.26 C 355.89 386.82 355.99 389.40 356.00 392.00 C 356.08 397.08 355.51 402.29 356.58 407.32 C 357.01 410.14 356.90 413.12 357.00 416.00 C 357.05 418.74 357.13 421.57 357.58 424.32 C 357.88 427.41 358.33 430.66 357.82 433.78 C 345.51 441.34 332.49 448.52 317.83 449.97 C 316.52 449.80 315.18 449.92 314.01 450.56 C 313.53 450.66 312.58 450.87 312.11 450.97 C 309.39 450.96 306.69 450.97 303.99 451.00 C 292.25 451.51 280.33 449.93 268.67 451.58 C 265.45 452.15 262.29 453.17 258.99 453.10 C 250.05 455.06 255.38 442.77 253.30 437.74 C 253.10 435.15 253.00 432.57 252.98 430.00 C 253.02 422.66 253.02 415.32 253.01 407.99 C 252.76 399.90 253.74 391.69 252.41 383.68 C 251.80 373.90 251.64 364.03 252.27 354.26 C 253.52 319.15 253.43 283.85 252.31 248.73 C 252.03 245.15 251.95 241.58 251.99 238.00 C 252.04 227.99 252.02 217.99 252.00 208.00 C 251.90 197.23 252.50 186.42 251.39 175.70 C 250.90 170.47 250.96 165.23 251.00 160.00 C 251.07 149.32 250.95 138.64 251.00 127.97 C 251.66 124.70 251.85 120.81 254.02 118.10 C 260.12 114.79 265.73 110.61 272.02 107.64 C 277.85 114.22 283.85 120.76 289.33 127.68 C 291.41 129.08 295.28 130.43 296.82 127.80 C 302.57 116.58 304.74 103.80 309.29 92.04 Z" fill="#cef6fe" opacity="1.00" stroke="#cef6fe" stroke-width="0.25" data-index="23" style="opacity: 1;"></path>
<path d="M 311.01 92.46 C 311.84 91.33 314.99 91.16 314.84 93.01 C 313.53 93.21 312.19 93.05 311.01 92.46 Z" fill="#7ea9bd" opacity="1.00" stroke="#7ea9bd" stroke-width="0.25" data-index="24"></path>
<path d="M 143.82 111.78 C 138.32 107.24 146.96 100.89 153.43 103.29 C 151.33 107.19 147.26 109.25 143.82 111.78 Z" fill="#a3e0f3" opacity="1.00" stroke="#a3e0f3" stroke-width="0.25" data-index="25"></path>
<path d="M 238.47 108.84 C 239.10 106.15 244.70 99.82 247.29 105.70 C 251.98 108.19 251.52 113.45 248.40 116.99 C 246.64 112.81 241.93 111.33 238.47 108.84 Z" fill="#9bddf0" opacity="1.00" stroke="#9bddf0" stroke-width="0.25" data-index="26"></path>
<path d="M 265.27 103.15 C 268.35 102.20 270.15 105.87 272.02 107.64 C 265.73 110.61 260.12 114.79 254.02 118.10 C 256.33 112.16 261.51 108.14 265.27 103.15 Z" fill="#a0dff3" opacity="1.00" stroke="#a0dff3" stroke-width="0.25" data-index="27"></path>

<path d="M 135.32 111.14 C 139.36 107.75 138.83 115.44 139.95 117.90 C 137.56 116.11 136.31 119.48 135.08 121.05 C 119.75 144.52 110.84 171.40 97.92 196.16 C 90.15 188.74 82.34 181.25 75.17 173.27 C 94.76 152.12 114.62 131.20 135.32 111.14 Z" fill="#a6e9fc" opacity="1.00" stroke="#a6e9fc" stroke-width="0.25" data-index="29" style="opacity: 1;"></path>
<path d="M 135.08 121.05 C 136.31 119.48 137.56 116.11 139.95 117.90 C 141.67 123.88 143.13 130.01 143.98 136.17 C 143.81 137.48 143.93 138.83 144.57 140.02 C 144.68 140.55 144.89 141.61 145.00 142.14 C 144.82 143.76 144.90 145.43 145.52 146.96 C 146.10 148.63 146.11 150.44 146.02 152.19 C 145.78 153.80 145.91 155.44 146.51 156.96 C 146.62 157.72 146.85 159.22 146.96 159.98 C 147.11 162.75 147.19 165.55 147.58 168.32 C 147.86 170.87 148.01 173.43 148.04 176.00 C 147.98 179.89 147.93 183.77 147.86 187.66 C 138.55 197.93 129.08 208.18 119.24 217.86 C 112.33 210.44 104.66 203.72 97.92 196.16 C 110.84 171.40 119.75 144.52 135.08 121.05 Z" fill="#ccf6fe" opacity="1.00" stroke="#ccf6fe" stroke-width="0.25" data-index="30" style="opacity: 1;"></path>
<path d="M 245.94 127.79 C 245.85 126.18 245.82 124.52 246.52 123.02 C 247.54 124.18 247.96 127.67 245.94 127.79 Z" fill="#5f889d" opacity="1.00" stroke="#5f889d" stroke-width="0.25" data-index="31"></path>
<path d="M 251.00 160.00 C 249.77 151.92 248.65 136.09 251.00 127.97 C 250.95 138.64 251.07 149.32 251.00 160.00 Z" fill="#578499" opacity="1.00" stroke="#578499" stroke-width="0.25" data-index="32"></path>
<path d="M 245.58 157.31 C 244.45 148.16 244.70 138.84 245.77 129.71 C 246.08 138.90 246.30 148.13 245.58 157.31 Z" fill="#88b2c2" opacity="1.00" stroke="#88b2c2" stroke-width="0.25" data-index="33"></path>
<path d="M 148.46 132.01 C 149.01 133.23 149.25 134.55 149.35 135.88 C 147.42 136.11 147.27 132.97 148.46 132.01 Z" fill="#5a829b" opacity="1.00" stroke="#5a829b" stroke-width="0.25" data-index="34"></path>
<path d="M 371.37 133.11 C 371.42 134.31 371.51 136.71 371.55 137.92 C 370.23 136.82 369.98 134.24 371.37 133.11 Z" fill="#78a4b5" opacity="1.00" stroke="#78a4b5" stroke-width="0.25" data-index="35"></path>
<path d="M 143.98 136.17 C 145.82 136.02 145.66 139.15 144.57 140.02 C 143.93 138.83 143.81 137.48 143.98 136.17 Z" fill="#5b8598" opacity="1.00" stroke="#5b8598" stroke-width="0.25" data-index="36"></path>
<path d="M 149.35 135.88 C 150.01 137.44 150.17 139.14 150.01 140.82 C 148.00 140.60 148.47 137.15 149.35 135.88 Z" fill="#6f97af" opacity="1.00" stroke="#6f97af" stroke-width="0.25" data-index="37"></path>
<path d="M 260.24 141.97 C 259.90 140.14 264.09 140.14 263.76 141.97 C 262.58 142.03 261.41 142.03 260.24 141.97 Z" fill="#7ca5b7" opacity="1.00" stroke="#7ca5b7" stroke-width="0.25" data-index="38"></path>
<path d="M 370.01 144.17 C 369.49 142.36 369.76 141.31 370.83 141.03 C 371.17 147.27 374.44 152.81 376.45 158.62 C 383.89 176.81 388.81 195.93 395.64 214.31 C 395.71 215.77 393.49 217.16 392.18 217.83 C 382.53 208.40 373.98 197.96 364.21 188.66 C 363.83 179.03 365.51 169.40 367.51 160.00 C 368.06 158.79 368.20 157.46 368.00 156.16 C 367.80 153.36 368.76 150.66 369.51 148.00 C 370.07 146.80 370.23 145.47 370.01 144.17 Z" fill="#a6e8fb" opacity="1.00" stroke="#a6e8fb" stroke-width="0.25" data-index="39"></path>
<path d="M 145.00 142.14 C 146.98 142.34 146.56 145.79 145.52 146.96 C 144.90 145.43 144.82 143.76 145.00 142.14 Z" fill="#628c9d" opacity="1.00" stroke="#628c9d" stroke-width="0.25" data-index="40"></path>
<path d="M 265.97 148.65 C 260.93 156.70 251.92 144.59 260.24 141.97 C 261.41 142.03 262.58 142.03 263.76 141.97 C 265.13 142.09 265.90 142.85 266.06 144.24 C 265.97 145.71 265.94 147.18 265.97 148.65 Z" fill="#0f3955" opacity="1.00" stroke="#0f3955" stroke-width="0.25" data-index="41"></path>
<path d="M 266.06 144.24 C 267.90 144.25 267.87 148.79 265.97 148.65 C 265.94 147.18 265.97 145.71 266.06 144.24 Z" fill="#81acbc" opacity="1.00" stroke="#81acbc" stroke-width="0.25" data-index="42"></path>
<path d="M 364.00 147.84 C 363.79 146.53 363.90 145.18 364.52 143.99 C 365.63 144.83 365.84 147.97 364.00 147.84 Z" fill="#6c98ab" opacity="1.00" stroke="#6c98ab" stroke-width="0.25" data-index="43"></path>
<path d="M 369.51 148.00 C 368.37 147.18 368.15 144.02 370.01 144.17 C 370.23 145.47 370.07 146.80 369.51 148.00 Z" fill="#568ba2" opacity="1.00" stroke="#568ba2" stroke-width="0.25" data-index="44"></path>
<path d="M 146.02 152.19 C 147.99 152.35 147.56 155.83 146.51 156.96 C 145.91 155.44 145.78 153.80 146.02 152.19 Z" fill="#80aac0" opacity="1.00" stroke="#80aac0" stroke-width="0.25" data-index="45"></path>
<path d="M 151.53 152.05 C 152.06 153.58 152.19 155.21 151.99 156.82 C 149.99 156.67 150.41 153.14 151.53 152.05 Z" fill="#598698" opacity="1.00" stroke="#598698" stroke-width="0.25" data-index="46"></path>
<path d="M 362.00 159.84 C 361.79 158.53 361.91 157.19 362.49 155.99 C 363.62 156.81 363.85 159.98 362.00 159.84 Z" fill="#6c95aa" opacity="1.00" stroke="#6c95aa" stroke-width="0.25" data-index="47"></path>
<path d="M 367.51 160.00 C 366.35 159.19 366.14 156.00 368.00 156.16 C 368.20 157.46 368.06 158.79 367.51 160.00 Z" fill="#5385a5" opacity="1.00" stroke="#5385a5" stroke-width="0.25" data-index="48"></path>
<path d="M 146.96 159.98 C 149.34 160.94 147.53 165.86 147.58 168.32 C 147.19 165.55 147.11 162.75 146.96 159.98 Z" fill="#628c9f" opacity="1.00" stroke="#628c9f" stroke-width="0.25" data-index="49"></path>
<path d="M 152.53 160.06 C 153.16 162.23 153.32 164.48 153.00 166.81 C 150.82 165.93 151.45 161.81 152.53 160.06 Z" fill="#7ea9bc" opacity="1.00" stroke="#7ea9bc" stroke-width="0.25" data-index="50"></path>
<path d="M 360.02 172.82 C 359.83 171.21 359.85 169.55 360.48 168.02 C 361.53 169.15 362.00 172.63 360.02 172.82 Z" fill="#7aa3b4" opacity="1.00" stroke="#7aa3b4" stroke-width="0.25" data-index="51"></path>
<path d="M 289.02 170.00 C 299.33 167.68 314.01 169.56 326.00 169.04 L 326.00 170.00 C 313.67 170.03 301.35 169.98 289.02 170.00 Z" fill="#7faaba" opacity="1.00" stroke="#7faaba" stroke-width="0.25" data-index="52"></path>
<path d="M 326.00 169.04 C 330.66 169.82 339.00 167.30 341.98 170.00 C 336.64 169.99 331.33 170.04 326.00 170.00 L 326.00 169.04 Z" fill="#467183" opacity="1.00" stroke="#467183" stroke-width="0.25" data-index="53"></path>
<path d="M 246.02 170.00 C 248.12 178.18 246.72 190.13 246.95 199.99 L 246.00 200.00 C 245.97 190.00 245.96 180.00 246.02 170.00 Z" fill="#537a90" opacity="1.00" stroke="#537a90" stroke-width="0.25" data-index="54"></path>
<path d="M 287.99 171.99 C 288.24 171.49 288.76 170.50 289.02 170.00 C 301.35 169.98 313.67 170.03 326.00 170.00 C 331.33 170.04 336.64 169.99 341.98 170.00 C 342.23 170.25 342.73 170.75 342.98 171.01 C 342.95 176.78 342.92 182.57 343.62 188.31 C 343.94 192.20 344.07 196.09 344.02 200.00 C 343.96 205.64 344.00 211.29 343.97 216.94 C 337.52 222.13 328.71 227.41 320.04 229.01 C 317.34 229.01 314.65 229.01 311.97 229.03 C 303.47 228.08 294.50 223.55 288.02 218.88 C 287.95 203.25 288.04 187.62 287.99 171.99 Z" fill="#0d3653" opacity="1.00" stroke="#0d3653" stroke-width="0.25" data-index="55"></path>
<path d="M 342.98 171.01 C 345.45 174.62 343.60 182.95 343.62 188.31 C 342.92 182.57 342.95 176.78 342.98 171.01 Z" fill="#5f8ba0" opacity="1.00" stroke="#5f8ba0" stroke-width="0.25" data-index="56"></path>
<path d="M 287.04 172.04 L 287.99 171.99 C 288.04 187.62 287.95 203.25 288.02 218.88 C 285.67 205.57 287.58 187.26 287.04 172.04 Z" fill="#608a99" opacity="1.00" stroke="#608a99" stroke-width="0.25" data-index="57"></path>
<path d="M 292.06 174.05 C 305.79 174.02 319.53 173.73 333.26 174.30 C 319.95 175.74 306.55 174.58 293.20 175.09 C 292.83 179.47 293.31 183.97 292.38 188.30 C 292.08 183.56 291.75 178.79 292.06 174.05 Z" fill="#a0cadb" opacity="1.00" stroke="#a0cadb" stroke-width="0.25" data-index="58"></path>
<path d="M 333.26 174.30 C 343.97 171.21 337.49 186.46 339.00 193.00 C 338.94 200.27 339.01 207.54 338.97 214.82 C 333.05 218.45 327.00 222.65 320.02 223.98 C 317.33 224.00 314.64 224.01 311.97 224.02 C 305.13 222.59 297.15 219.93 292.03 215.88 C 291.96 209.25 292.05 202.63 291.98 196.00 C 291.82 193.40 291.96 190.84 292.38 188.30 C 293.31 183.97 292.83 179.47 293.20 175.09 C 306.55 174.58 319.95 175.74 333.26 174.30 Z" fill="#cdf6fe" opacity="1.00" stroke="#cdf6fe" stroke-width="0.25" data-index="59"></path>
<path d="M 153.41 174.69 C 154.11 178.03 154.01 181.45 154.09 184.85 C 151.08 184.64 153.57 177.39 153.41 174.69 Z" fill="#6f9ab0" opacity="1.00" stroke="#6f9ab0" stroke-width="0.25" data-index="60"></path>

<path d="M 148.04 176.00 C 149.39 176.52 150.49 187.96 147.86 187.66 C 147.93 183.77 147.98 179.89 148.04 176.00 Z" fill="#769fb3" opacity="1.00" stroke="#769fb3" stroke-width="0.25" data-index="62"></path>
<path d="M 251.39 175.70 C 252.50 186.42 251.90 197.23 252.00 208.00 L 251.05 208.01 C 250.97 197.24 250.71 186.45 251.39 175.70 Z" fill="#7daabd" opacity="1.00" stroke="#7daabd" stroke-width="0.25" data-index="63"></path>
<path d="M 359.00 180.82 C 358.82 179.20 358.89 177.55 359.53 176.04 C 360.56 177.18 360.98 180.66 359.00 180.82 Z" fill="#7499ac" opacity="1.00" stroke="#7499ac" stroke-width="0.25" data-index="64"></path>
<path d="M 72.19 182.77 C 77.62 188.03 82.94 193.40 88.22 198.81 C 88.07 200.15 87.91 201.48 87.74 202.82 C 87.32 204.97 86.88 207.12 86.42 209.27 C 85.52 198.44 70.20 194.97 72.19 182.77 Z" fill="#ebf1f5" opacity="1.00" stroke="#ebf1f5" stroke-width="0.25" data-index="65"></path>
<path d="M 357.95 189.81 C 358.09 188.38 358.38 185.52 358.52 184.09 C 359.74 185.45 360.20 189.49 357.95 189.81 Z" fill="#75a0b1" opacity="1.00" stroke="#75a0b1" stroke-width="0.25" data-index="66"></path>
<path d="M 154.20 185.65 C 163.56 191.45 168.88 201.83 171.86 212.12 C 179.00 247.64 178.75 284.18 182.76 320.14 C 183.47 344.55 188.75 369.06 184.41 393.39 C 181.54 410.59 172.35 425.62 164.66 440.88 C 163.70 440.33 162.37 440.14 161.83 439.08 C 177.36 417.48 185.88 390.67 183.90 363.99 C 180.87 325.99 177.69 288.01 174.90 250.00 C 172.96 228.62 172.51 202.11 154.01 187.79 C 154.06 187.25 154.15 186.18 154.20 185.65 Z" fill="#baf1fd" opacity="1.00" stroke="#baf1fd" stroke-width="0.25" data-index="67"></path>
<path d="M 154.01 187.79 C 172.51 202.11 172.96 228.62 174.90 250.00 C 177.69 288.01 180.87 325.99 183.90 363.99 C 185.88 390.67 177.36 417.48 161.83 439.08 C 157.03 436.93 151.75 433.39 154.25 427.26 C 154.69 423.51 154.94 419.76 155.01 416.01 C 154.99 413.41 155.08 410.82 155.28 408.26 C 155.77 403.51 156.11 398.75 156.02 393.99 C 155.99 390.71 155.87 387.49 156.27 384.26 C 157.02 378.86 157.03 373.42 157.01 368.00 C 156.97 365.40 157.05 362.82 157.27 360.26 C 157.96 354.86 158.05 349.42 158.04 344.00 C 158.03 338.65 158.06 333.33 157.99 328.00 C 158.01 310.33 157.97 292.66 158.01 275.00 C 157.87 268.57 158.60 262.04 157.41 255.68 C 156.81 250.47 156.96 245.23 157.02 240.00 C 156.94 234.89 157.48 229.71 156.42 224.68 C 155.94 221.80 156.11 218.89 156.00 216.00 C 155.91 213.20 155.85 210.43 155.43 207.68 C 155.20 205.12 155.06 202.56 155.01 200.00 C 154.90 197.21 154.92 194.43 154.39 191.69 C 154.16 190.39 154.04 189.09 154.01 187.79 Z" fill="#a7eafd" opacity="1.00" stroke="#a7eafd" stroke-width="0.25" data-index="68" style="opacity: 1;"></path>
<path d="M 154.39 191.69 C 154.92 194.43 154.90 197.21 155.01 200.00 C 152.67 199.05 154.48 194.14 154.39 191.69 Z" fill="#5a93af" opacity="1.00" stroke="#5a93af" stroke-width="0.25" data-index="69"></path>
<path d="M 259.28 192.16 C 260.22 192.46 266.08 191.53 266.03 194.24 C 265.97 195.74 265.98 197.25 266.05 198.76 C 265.90 200.15 265.14 200.91 263.76 201.03 C 262.58 200.97 261.41 200.97 260.24 201.03 C 256.15 200.23 255.69 194.08 259.28 192.16 Z" fill="#113a56" opacity="1.00" stroke="#113a56" stroke-width="0.25" data-index="70"></path>
<path d="M 339.00 193.00 C 340.11 197.20 341.61 211.23 338.97 214.82 C 339.01 207.54 338.94 200.27 339.00 193.00 Z" fill="#618a9d" opacity="1.00" stroke="#618a9d" stroke-width="0.25" data-index="71"></path>
<path d="M 266.03 194.24 C 267.87 194.27 267.88 198.71 266.05 198.76 C 265.98 197.25 265.97 195.74 266.03 194.24 Z" fill="#6895a4" opacity="1.00" stroke="#6895a4" stroke-width="0.25" data-index="72"></path>
<path d="M 292.03 215.88 C 290.27 212.17 290.25 200.02 291.98 196.00 C 292.05 202.63 291.96 209.25 292.03 215.88 Z" fill="#325c74" opacity="1.00" stroke="#325c74" stroke-width="0.25" data-index="73"></path>
<path d="M 356.96 202.77 C 356.72 200.52 356.92 198.31 357.56 196.11 C 358.53 197.86 359.27 202.09 356.96 202.77 Z" fill="#6c95a7" opacity="1.00" stroke="#6c95a7" stroke-width="0.25" data-index="74"></path>

<path d="M 394.11 228.21 C 404.02 218.49 413.96 208.78 423.55 198.74 C 424.00 202.41 424.91 205.98 426.01 209.52 C 425.93 211.92 425.85 214.33 425.78 216.75 C 417.74 219.79 414.14 228.91 406.62 232.75 C 401.63 234.55 397.96 230.50 394.11 228.21 Z" fill="#86c4de" opacity="1.00" stroke="#86c4de" stroke-width="0.25" data-index="76" style="visibility: hidden; opacity: 1;"></path>
<path d="M 246.00 200.00 L 246.95 199.99 C 246.97 212.42 247.33 224.88 246.61 237.30 C 245.39 224.91 246.19 212.43 246.00 200.00 Z" fill="#96c0d1" opacity="1.00" stroke="#96c0d1" stroke-width="0.25" data-index="77"></path>
<path d="M 344.02 200.00 C 345.05 202.68 346.76 214.50 343.97 216.94 C 344.00 211.29 343.96 205.64 344.02 200.00 Z" fill="#96c0d0" opacity="1.00" stroke="#96c0d0" stroke-width="0.25" data-index="78"></path>
<path d="M 260.24 201.03 C 261.41 200.97 262.58 200.97 263.76 201.03 C 264.09 202.85 259.90 202.85 260.24 201.03 Z" fill="#6e98a9" opacity="1.00" stroke="#6e98a9" stroke-width="0.25" data-index="79"></path>

<path d="M 365.25 211.27 C 365.85 208.81 362.58 199.18 367.02 202.66 C 366.42 205.51 365.96 208.43 365.25 211.27 Z" fill="#5c90ad" opacity="1.00" stroke="#5c90ad" stroke-width="0.25" data-index="81"></path>

<path d="M 365.25 211.27 C 365.96 208.43 366.42 205.51 367.02 202.66 C 370.17 206.49 373.40 210.25 377.06 213.63 C 373.56 216.20 371.10 220.04 371.58 224.66 C 369.97 267.19 367.69 309.79 369.60 352.37 C 370.99 355.32 368.19 362.95 364.02 360.09 C 363.88 356.92 364.01 353.80 363.32 350.72 C 362.94 346.23 362.92 341.71 362.72 337.23 C 363.17 315.42 363.13 293.59 362.81 271.78 C 363.06 266.93 363.04 262.06 363.22 257.22 C 364.05 251.44 363.93 245.60 363.82 239.79 C 364.10 234.60 363.97 229.40 364.17 224.21 C 364.39 221.39 364.71 218.61 364.84 215.79 C 364.96 214.28 365.09 212.77 365.25 211.27 Z" fill="#85c4de" opacity="1.00" stroke="#85c4de" stroke-width="0.25" data-index="83" style="opacity: 1; visibility: hidden;"></path>
<path d="M 155.43 207.68 C 155.85 210.43 155.91 213.20 156.00 216.00 C 153.69 215.04 155.45 210.12 155.43 207.68 Z" fill="#5f97b5" opacity="1.00" stroke="#5f97b5" stroke-width="0.25" data-index="84"></path>
<path d="M 251.05 208.01 L 252.00 208.00 C 252.02 217.99 252.04 227.99 251.99 238.00 C 249.87 229.82 251.27 217.87 251.05 208.01 Z" fill="#3a667c" opacity="1.00" stroke="#3a667c" stroke-width="0.25" data-index="85"></path>
<path d="M 355.99 218.99 C 356.00 215.22 356.26 211.47 356.75 207.75 C 357.53 212.43 357.28 216.17 355.99 218.99 Z" fill="#7aa3b5" opacity="1.00" stroke="#7aa3b5" stroke-width="0.25" data-index="86"></path>

<path d="M 147.40 215.72 C 147.71 218.54 147.70 221.36 147.82 224.22 C 147.60 222.59 147.15 219.35 146.93 217.72 C 147.05 217.22 147.29 216.22 147.40 215.72 Z" fill="#477f9d" opacity="1.00" stroke="#477f9d" stroke-width="0.25" data-index="88"></path>
<path d="M 364.17 224.21 C 364.22 221.40 364.51 218.57 364.84 215.79 C 364.71 218.61 364.39 221.39 364.17 224.21 Z" fill="#3a6e8d" opacity="1.00" stroke="#3a6e8d" stroke-width="0.25" data-index="89"></path>

<path d="M 311.97 224.02 C 314.64 224.01 317.33 224.00 320.02 223.98 C 319.31 225.71 312.75 225.70 311.97 224.02 Z" fill="#6a94a6" opacity="1.00" stroke="#6a94a6" stroke-width="0.25" data-index="91"></path>
<path d="M 156.42 224.68 C 157.48 229.71 156.94 234.89 157.02 240.00 C 154.70 236.94 156.02 229.57 156.42 224.68 Z" fill="#659eb6" opacity="1.00" stroke="#659eb6" stroke-width="0.25" data-index="92"></path>

<path d="M 311.97 229.03 C 314.65 229.01 317.34 229.01 320.04 229.01 C 319.23 230.70 312.76 230.69 311.97 229.03 Z" fill="#769fb3" opacity="1.00" stroke="#769fb3" stroke-width="0.25" data-index="94"></path>
<path d="M 148.09 232.00 C 149.17 237.34 148.84 242.81 148.79 248.23 C 148.05 242.84 148.10 237.41 148.09 232.00 Z" fill="#3e7592" opacity="1.00" stroke="#3e7592" stroke-width="0.25" data-index="95"></path>
<path d="M 354.98 244.01 C 355.01 239.90 355.26 235.81 355.73 231.74 C 354.46 234.64 358.44 242.95 354.98 244.01 Z" fill="#5b8699" opacity="1.00" stroke="#5b8699" stroke-width="0.25" data-index="96"></path>
<path d="M 363.22 257.22 C 363.05 251.40 362.89 245.55 363.82 239.79 C 363.93 245.60 364.05 251.44 363.22 257.22 Z" fill="#5489a8" opacity="1.00" stroke="#5489a8" stroke-width="0.25" data-index="97"></path>
<path d="M 252.31 248.73 C 253.43 283.85 253.52 319.15 252.27 354.26 C 251.89 319.10 251.71 283.88 252.31 248.73 Z" fill="#a4cfdf" opacity="1.00" stroke="#a4cfdf" stroke-width="0.25" data-index="98"></path>
<path d="M 353.97 264.00 C 354.00 259.90 354.27 255.80 354.73 251.74 C 354.97 255.82 355.05 259.91 354.97 264.00 L 353.97 264.00 Z" fill="#8bb6c7" opacity="1.00" stroke="#8bb6c7" stroke-width="0.25" data-index="99"></path>
<path d="M 157.41 255.68 C 158.60 262.04 157.87 268.57 158.01 275.00 C 155.90 270.47 156.85 261.94 157.41 255.68 Z" fill="#4c829e" opacity="1.00" stroke="#4c829e" stroke-width="0.25" data-index="100"></path>
<path d="M 257.89 264.71 C 252.20 263.62 261.46 251.87 263.83 257.74 C 259.64 257.26 257.12 260.81 257.89 264.71 Z" fill="#5d879c" opacity="1.00" stroke="#5d879c" stroke-width="0.25" data-index="101"></path>
<path d="M 257.89 264.71 C 257.12 260.81 259.64 257.26 263.83 257.74 C 265.14 258.11 265.88 258.94 266.06 260.24 C 265.97 261.71 265.94 263.18 265.97 264.66 C 264.16 267.86 259.84 267.65 257.89 264.71 Z" fill="#0d3653" opacity="1.00" stroke="#0d3653" stroke-width="0.25" data-index="102"></path>
<path d="M 266.06 260.24 C 267.90 260.25 267.87 264.78 265.97 264.66 C 265.94 263.18 265.97 261.71 266.06 260.24 Z" fill="#5e8b9f" opacity="1.00" stroke="#5e8b9f" stroke-width="0.25" data-index="103"></path>
<path d="M 247.00 261.00 C 249.30 286.72 247.42 316.65 247.95 343.99 L 246.99 344.00 C 247.01 316.34 246.99 288.67 247.00 261.00 Z" fill="#4d7788" opacity="1.00" stroke="#4d7788" stroke-width="0.25" data-index="104"></path>
<path d="M 149.37 263.71 C 150.09 268.09 149.98 272.55 150.01 276.99 L 149.00 277.01 C 149.00 272.57 149.20 268.13 149.37 263.71 Z" fill="#3b728d" opacity="1.00" stroke="#3b728d" stroke-width="0.25" data-index="105"></path>
<path d="M 353.97 264.00 L 354.97 264.00 C 354.18 268.69 356.68 276.95 354.01 280.00 C 353.94 274.67 353.93 269.32 353.97 264.00 Z" fill="#4a7588" opacity="1.00" stroke="#4a7588" stroke-width="0.25" data-index="106"></path>
<path d="M 362.72 337.23 C 361.59 315.47 361.41 293.53 362.81 271.78 C 363.13 293.59 363.17 315.42 362.72 337.23 Z" fill="#4a82a0" opacity="1.00" stroke="#4a82a0" stroke-width="0.25" data-index="107"></path>
<path d="M 149.00 277.01 L 150.01 276.99 C 150.00 293.99 149.99 310.99 150.02 328.00 L 149.01 328.00 C 148.97 311.00 149.00 294.01 149.00 277.01 Z" fill="#6ea7c0" opacity="1.00" stroke="#6ea7c0" stroke-width="0.25" data-index="108"></path>
<path d="M 260.26 314.19 C 266.12 311.77 270.65 321.47 264.37 323.41 C 258.57 326.90 255.03 316.87 260.26 314.19 Z" fill="#18415d" opacity="1.00" stroke="#18415d" stroke-width="0.25" data-index="109"></path>
<path d="M 354.00 321.00 C 356.37 326.31 354.49 336.02 354.95 342.99 L 353.97 343.00 C 353.97 335.66 353.95 328.33 354.00 321.00 Z" fill="#467187" opacity="1.00" stroke="#467187" stroke-width="0.25" data-index="110"></path>
<path d="M 149.01 328.00 L 150.02 328.00 C 150.07 333.74 149.95 339.51 149.24 345.23 C 149.12 339.48 148.98 333.74 149.01 328.00 Z" fill="#3d738e" opacity="1.00" stroke="#3d738e" stroke-width="0.25" data-index="111"></path>
<path d="M 157.07 344.01 C 157.81 339.30 155.30 331.04 157.99 328.00 C 158.06 333.33 158.03 338.65 158.04 344.00 L 157.07 344.01 Z" fill="#366c88" opacity="1.00" stroke="#366c88" stroke-width="0.25" data-index="112"></path>
<path d="M 353.97 343.00 L 354.95 342.99 C 354.97 348.08 355.44 353.26 354.59 358.32 C 353.51 353.29 354.07 348.09 353.97 343.00 Z" fill="#8cb8ca" opacity="1.00" stroke="#8cb8ca" stroke-width="0.25" data-index="113"></path>
<path d="M 157.07 344.01 L 158.04 344.00 C 158.05 349.42 157.96 354.86 157.27 360.26 C 157.09 354.83 156.77 349.42 157.07 344.01 Z" fill="#70a8c2" opacity="1.00" stroke="#70a8c2" stroke-width="0.25" data-index="114"></path>
<path d="M 246.99 344.00 L 247.95 343.99 C 248.04 361.65 248.05 379.32 247.96 396.99 L 247.00 397.00 C 246.99 379.33 247.00 361.67 246.99 344.00 Z" fill="#2f586c" opacity="1.00" stroke="#2f586c" stroke-width="0.25" data-index="115"></path>

<path d="M 363.32 350.72 C 364.01 353.80 363.88 356.92 364.02 360.09 C 364.05 361.48 364.08 362.88 364.12 364.29 C 363.95 368.28 363.77 372.28 363.60 376.28 C 362.10 367.86 363.30 359.20 363.32 350.72 Z" fill="#638fa8" opacity="1.00" stroke="#638fa8" stroke-width="0.25" data-index="117"></path>
<path d="M 147.90 364.05 C 148.06 360.95 148.41 357.83 148.74 354.77 C 148.96 361.92 149.30 369.13 148.28 376.26 C 148.03 372.18 147.91 368.11 147.90 364.05 Z" fill="#749ab0" opacity="1.00" stroke="#749ab0" stroke-width="0.25" data-index="118"></path>

<path d="M 364.12 364.29 C 366.21 363.06 368.12 361.57 370.03 360.09 C 365.69 387.83 373.61 416.34 370.05 444.05 C 348.07 466.76 313.00 464.42 284.00 465.88 C 262.56 466.65 241.38 472.99 219.85 470.26 C 212.92 469.26 204.98 469.65 199.84 464.09 C 203.14 464.57 206.42 464.95 209.75 465.28 C 217.21 466.12 224.83 466.57 232.28 465.37 C 233.82 465.15 235.36 464.95 236.90 464.75 C 238.60 465.38 240.61 465.53 242.08 464.28 C 250.28 463.01 258.42 461.32 266.70 460.58 C 279.53 460.74 292.59 462.03 305.32 460.27 C 305.73 460.17 306.54 459.96 306.94 459.85 C 308.66 460.36 310.63 460.50 312.10 459.29 C 331.55 456.75 351.21 450.36 365.95 436.95 C 368.11 433.78 366.44 429.32 366.37 425.72 C 366.22 424.09 365.93 420.85 365.78 419.23 C 365.73 415.40 365.54 411.58 365.22 407.78 C 365.03 405.27 364.84 402.78 364.64 400.30 C 364.61 395.44 365.60 390.47 364.32 385.71 C 363.99 382.58 363.81 379.40 363.60 376.28 C 363.77 372.28 363.95 368.28 364.12 364.29 Z" fill="#cbd5de" opacity="1.00" stroke="#cbd5de" stroke-width="0.25" data-index="120" style="opacity: 1; visibility: hidden;"></path>
<path d="M 156.27 384.26 C 156.95 379.51 154.20 371.05 157.01 368.00 C 157.03 373.42 157.02 378.86 156.27 384.26 Z" fill="#558ea4" opacity="1.00" stroke="#558ea4" stroke-width="0.25" data-index="121"></path>
<path d="M 355.00 368.00 C 357.77 371.05 355.06 379.51 355.69 384.26 C 355.06 378.86 354.91 373.42 355.00 368.00 Z" fill="#6e9ca9" opacity="1.00" stroke="#6e9ca9" stroke-width="0.25" data-index="122"></path>
<path d="M 147.27 400.26 C 147.95 395.51 145.21 387.04 148.01 384.00 C 148.04 389.41 147.99 394.86 147.27 400.26 Z" fill="#96aab9" opacity="1.00" stroke="#96aab9" stroke-width="0.25" data-index="123"></path>
<path d="M 252.41 383.68 C 253.74 391.69 252.76 399.90 253.01 407.99 L 252.05 408.01 C 252.14 399.91 251.41 391.73 252.41 383.68 Z" fill="#85aebf" opacity="1.00" stroke="#85aebf" stroke-width="0.25" data-index="124"></path>
<path d="M 259.35 394.97 C 251.29 389.92 263.41 380.92 266.03 389.24 C 265.97 390.41 265.97 391.58 266.03 392.76 C 265.90 394.13 265.15 394.90 263.76 395.06 C 262.29 394.97 260.81 394.94 259.35 394.97 Z" fill="#133c58" opacity="1.00" stroke="#133c58" stroke-width="0.25" data-index="125"></path>
<path d="M 364.32 385.71 C 365.60 390.47 364.61 395.44 364.64 400.30 C 363.49 395.52 364.31 390.54 364.32 385.71 Z" fill="#7992a5" opacity="1.00" stroke="#7992a5" stroke-width="0.25" data-index="126"></path>
<path d="M 266.03 389.24 C 267.85 388.90 267.85 393.09 266.03 392.76 C 265.97 391.58 265.97 390.41 266.03 389.24 Z" fill="#75a2b1" opacity="1.00" stroke="#75a2b1" stroke-width="0.25" data-index="127" style="opacity: 1;"></path>
<path d="M 356.00 392.00 C 358.28 395.06 356.98 402.42 356.58 407.32 C 355.51 402.29 356.08 397.08 356.00 392.00 Z" fill="#6893a7" opacity="1.00" stroke="#6893a7" stroke-width="0.25" data-index="128"></path>
<path d="M 155.28 408.26 C 156.14 404.25 153.00 396.35 156.02 393.99 C 156.11 398.75 155.77 403.51 155.28 408.26 Z" fill="#4e86a0" opacity="1.00" stroke="#4e86a0" stroke-width="0.25" data-index="129"></path>
<path d="M 259.35 394.97 C 260.81 394.94 262.29 394.97 263.76 395.06 C 263.75 396.90 259.21 396.87 259.35 394.97 Z" fill="#6b97a7" opacity="1.00" stroke="#6b97a7" stroke-width="0.25" data-index="130"></path>
<path d="M 247.00 397.00 L 247.96 396.99 C 247.80 405.41 248.65 413.93 247.59 422.32 C 246.13 413.98 247.31 405.41 247.00 397.00 Z" fill="#7aa2b3" opacity="1.00" stroke="#7aa2b3" stroke-width="0.25" data-index="131"></path>
<path d="M 146.07 416.00 C 146.43 413.60 144.76 408.90 147.01 407.99 C 147.05 410.65 147.06 413.32 147.04 416.01 L 146.07 416.00 Z" fill="#9fb5c4" opacity="1.00" stroke="#9fb5c4" stroke-width="0.25" data-index="132"></path>
<path d="M 252.05 408.01 L 253.01 407.99 C 253.02 415.32 253.02 422.66 252.98 430.00 C 250.63 424.65 252.50 414.97 252.05 408.01 Z" fill="#497288" opacity="1.00" stroke="#497288" stroke-width="0.25" data-index="133"></path>
<path d="M 365.22 407.78 C 365.54 411.58 365.73 415.40 365.78 419.23 C 365.42 415.41 365.23 411.59 365.22 407.78 Z" fill="#738ea5" opacity="1.00" stroke="#738ea5" stroke-width="0.25" data-index="134"></path>
<path d="M 146.07 416.00 L 147.04 416.01 C 147.00 418.78 146.57 421.48 146.25 424.26 C 145.98 421.52 145.85 418.75 146.07 416.00 Z" fill="#506a7b" opacity="1.00" stroke="#506a7b" stroke-width="0.25" data-index="135"></path>
<path d="M 154.25 427.26 C 153.46 422.57 153.71 418.82 155.01 416.01 C 154.94 419.76 154.69 423.51 154.25 427.26 Z" fill="#4f8ca7" opacity="1.00" stroke="#4f8ca7" stroke-width="0.25" data-index="136"></path>
<path d="M 357.00 416.00 C 359.31 416.95 357.54 421.87 357.58 424.32 C 357.13 421.57 357.05 418.74 357.00 416.00 Z" fill="#608c9c" opacity="1.00" stroke="#608c9c" stroke-width="0.25" data-index="137"></path>
<path d="M 366.37 425.72 C 366.44 429.32 368.11 433.78 365.95 436.95 C 366.08 433.21 366.19 429.43 366.37 425.72 Z" fill="#8196a9" opacity="1.00" stroke="#8196a9" stroke-width="0.25" data-index="138"></path>
<path d="M 146.08 436.71 C 144.21 433.84 144.18 430.59 146.01 426.99 C 145.99 430.24 146.03 433.44 146.08 436.71 Z" fill="#96a8b5" opacity="1.00" stroke="#96a8b5" stroke-width="0.25" data-index="139"></path>
<path d="M 261.24 430.94 C 261.25 429.09 265.79 429.12 265.65 431.03 C 264.18 431.05 262.71 431.02 261.24 430.94 Z" fill="#729aa8" opacity="1.00" stroke="#729aa8" stroke-width="0.25" data-index="140"></path>
<path d="M 258.97 433.24 C 259.09 431.86 259.85 431.09 261.24 430.94 C 262.71 431.02 264.18 431.05 265.65 431.03 C 273.70 436.07 261.59 445.08 258.97 436.76 C 259.02 435.58 259.02 434.41 258.97 433.24 Z" fill="#113b57" opacity="1.00" stroke="#113b57" stroke-width="0.25" data-index="141"></path>
<path d="M 258.97 436.76 C 257.14 437.09 257.14 432.90 258.97 433.24 C 259.02 434.41 259.02 435.58 258.97 436.76 Z" fill="#7ba4b6" opacity="1.00" stroke="#7ba4b6" stroke-width="0.25" data-index="142"></path>
<path d="M 248.00 438.00 C 249.13 440.35 250.66 453.14 247.96 454.76 C 247.98 449.17 247.94 443.58 248.00 438.00 Z" fill="#3d657c" opacity="1.00" stroke="#3d657c" stroke-width="0.25" data-index="143"></path>
<path d="M 253.30 437.74 C 255.38 442.77 250.05 455.06 258.99 453.10 C 249.21 459.63 253.89 442.91 253.30 437.74 Z" fill="#8cb8cb" opacity="1.00" stroke="#8cb8cb" stroke-width="0.25" data-index="144"></path>
<path d="M 314.01 450.56 C 315.18 449.92 316.52 449.80 317.83 449.97 C 318.00 451.81 314.85 451.67 314.01 450.56 Z" fill="#6a97ad" opacity="1.00" stroke="#6a97ad" stroke-width="0.25" data-index="145"></path>
<path d="M 268.67 451.58 C 280.33 449.93 292.25 451.51 303.99 451.00 L 304.01 451.95 C 292.25 451.70 280.39 452.73 268.67 451.58 Z" fill="#b0dbeb" opacity="1.00" stroke="#b0dbeb" stroke-width="0.25" data-index="146" style="opacity: 1;"></path>
<path d="M 303.99 451.00 C 306.69 450.97 309.39 450.96 312.11 450.97 C 310.96 453.23 306.48 451.57 304.01 451.95 L 303.99 451.00 Z" fill="#6795a8" opacity="1.00" stroke="#6795a8" stroke-width="0.25" data-index="147"></path>
<path d="M 235.04 456.52 C 236.55 455.90 238.20 455.78 239.81 456.02 C 239.64 457.98 236.17 457.55 235.04 456.52 Z" fill="#6e97a9" opacity="1.00" stroke="#6e97a9" stroke-width="0.25" data-index="148"></path>
<path d="M 210.98 457.00 C 217.99 457.00 225.00 457.00 232.02 457.01 C 227.71 458.33 215.22 459.29 210.98 457.00 Z" fill="#547f92" opacity="1.00" stroke="#547f92" stroke-width="0.25" data-index="149"></path>
<path d="M 306.94 459.85 C 308.30 458.38 310.40 458.61 312.10 459.29 C 310.63 460.50 308.66 460.36 306.94 459.85 Z" fill="#5e7890" opacity="1.00" stroke="#5e7890" stroke-width="0.25" data-index="150"></path>
<path d="M 266.70 460.58 C 279.52 459.29 292.46 460.16 305.32 460.27 C 292.59 462.03 279.53 460.74 266.70 460.58 Z" fill="#a5bacc" opacity="1.00" stroke="#a5bacc" stroke-width="0.25" data-index="151"></path>
<path d="M 236.90 464.75 C 238.35 463.43 240.38 463.61 242.08 464.28 C 240.61 465.53 238.60 465.38 236.90 464.75 Z" fill="#647d91" opacity="1.00" stroke="#647d91" stroke-width="0.25" data-index="152"></path>
<path d="M 209.75 465.28 C 217.26 464.99 224.77 464.96 232.28 465.37 C 224.83 466.57 217.21 466.12 209.75 465.28 Z" fill="#45637b" opacity="1.00" stroke="#45637b" stroke-width="0.25" data-index="153"></path>
</svg>