<?xml version="1.0" encoding="utf-8"?>
<svg xmlns="http://www.w3.org/2000/svg" height="512pt" version="1.1" viewBox="0 0 512 512" width="512pt">
<path d="M 0.00 0.00 L 512.00 0.00 L 512.00 512.00 L 0.00 512.00 L 0.00 0.00 Z" fill="transparent" opacity="1.00" stroke="transparent" stroke-width="0.25"/>
<path d="M 185.54 55.77 C 186.55 53.26 189.93 53.87 191.44 55.55 C 197.53 61.07 205.84 63.75 213.99 63.72 C 223.55 63.55 232.54 59.95 241.78 58.00 C 255.59 55.24 270.91 54.60 283.61 61.63 C 290.02 64.90 294.70 70.80 297.53 77.32 C 311.64 78.06 323.45 88.20 329.92 100.21 C 341.05 120.15 342.07 144.14 338.22 166.22 C 346.16 171.11 350.60 180.76 349.72 189.99 C 349.39 204.24 336.07 216.22 321.96 215.92 C 317.11 238.35 299.95 257.37 278.51 265.28 C 278.90 272.72 279.53 280.15 279.78 287.60 C 301.13 294.47 323.40 297.86 344.90 304.16 C 357.11 307.75 368.56 314.43 376.86 324.16 C 385.92 334.63 391.08 347.81 394.53 361.06 C 402.91 392.85 406.24 425.69 409.28 458.33 C 408.75 459.40 408.23 460.46 407.71 461.53 C 383.16 462.16 358.58 461.63 334.01 461.78 C 258.35 461.80 182.68 461.87 107.02 461.74 C 104.14 462.35 102.59 459.56 103.15 457.04 C 104.98 433.95 107.56 410.89 111.63 388.08 C 115.53 368.04 119.27 347.12 130.87 329.86 C 139.75 316.64 153.93 307.65 169.18 303.56 C 190.13 297.83 211.56 293.97 232.41 287.84 C 232.66 281.18 233.49 274.56 233.71 267.90 C 208.79 261.82 187.57 241.48 182.06 216.20 C 173.04 215.74 164.18 211.39 159.12 203.77 C 150.68 192.35 153.34 173.88 165.80 166.40 C 167.26 165.82 166.73 164.04 166.83 162.82 C 165.92 149.14 166.15 135.35 168.34 121.80 C 159.83 115.46 153.54 105.83 152.45 95.14 C 151.68 87.35 152.56 78.83 157.45 72.43 C 159.07 70.62 162.31 68.10 164.33 70.72 C 165.48 73.33 165.68 76.81 168.57 78.23 C 176.94 81.22 186.30 74.53 187.46 66.02 C 188.22 62.43 185.89 59.25 185.54 55.77 Z" fill="#063251" opacity="1.00" stroke="#063251" stroke-width="0.25"/>
<path d="M 211.99 69.81 C 226.42 70.46 239.70 63.52 253.94 62.50 C 264.77 61.70 276.80 63.01 285.25 70.50 C 289.42 73.65 291.23 78.75 292.76 83.54 C 301.04 82.88 309.26 86.03 315.30 91.64 C 325.45 100.64 330.14 114.07 332.51 127.07 C 333.95 133.61 333.79 140.33 333.78 146.98 C 333.65 152.30 333.61 157.78 331.61 162.80 C 328.33 162.19 325.04 161.67 321.73 161.31 C 321.18 157.61 320.34 153.97 319.64 150.31 C 318.91 146.95 321.36 143.56 319.77 140.30 C 315.19 128.95 307.74 118.49 297.43 111.67 C 290.49 107.41 281.87 106.62 273.99 108.12 C 262.90 111.15 253.22 117.71 242.45 121.58 C 222.55 129.09 199.61 129.90 179.96 121.15 C 170.89 117.21 162.54 110.03 159.64 100.30 C 157.55 93.68 157.68 86.35 160.11 79.85 C 163.57 82.58 167.26 85.87 171.99 85.59 C 183.15 85.64 192.63 76.11 193.72 65.20 C 199.41 67.96 205.58 70.03 211.99 69.81 Z" fill="#77544e" opacity="1.00" stroke="#77544e" stroke-width="0.25"/>
<path d="M 254.35 123.44 C 263.35 119.38 272.03 113.96 282.00 112.69 C 287.74 111.80 293.72 113.37 298.44 116.70 C 307.72 122.78 313.89 132.54 317.96 142.66 C 319.24 145.92 315.38 148.73 316.44 152.07 C 318.78 165.16 317.75 178.73 314.41 191.56 C 312.34 199.75 308.62 207.62 303.01 213.99 C 300.95 216.40 297.97 217.62 295.06 218.65 C 291.55 213.98 288.61 208.63 283.71 205.24 C 280.04 202.44 275.47 201.18 270.96 200.66 C 264.86 200.10 259.04 202.66 252.98 202.77 C 247.52 202.97 242.50 200.22 237.07 200.17 C 231.58 199.80 225.96 201.28 221.52 204.55 C 216.23 208.23 212.94 213.92 208.99 218.86 C 200.79 216.85 195.83 209.02 192.43 201.87 C 185.57 185.69 184.29 167.48 186.70 150.20 C 188.71 144.02 191.78 138.21 195.10 132.64 C 197.34 132.03 199.70 132.91 201.97 133.08 C 219.87 135.05 238.23 131.36 254.35 123.44 Z" fill="#fecdb4" opacity="1.00" stroke="#fecdb4" stroke-width="0.25"/>
<path d="M 173.68 125.06 C 179.62 127.62 185.61 130.11 191.92 131.63 C 187.03 141.00 182.62 150.77 181.50 161.40 C 178.56 161.76 175.63 162.14 172.70 162.48 C 172.01 150.00 171.99 137.46 173.68 125.06 Z" fill="#77544e" opacity="1.00" stroke="#77544e" stroke-width="0.25"/>
<path d="M 208.69 146.99 C 217.15 145.51 225.65 147.77 234.02 148.87 C 239.27 149.41 239.68 157.49 235.88 160.11 C 232.10 161.68 227.94 160.59 224.02 160.37 C 216.67 159.44 209.25 159.36 201.86 159.38 C 199.23 158.17 199.42 154.59 200.42 152.33 C 201.67 148.90 205.46 147.71 208.69 146.99 Z" fill="#063251" opacity="1.00" stroke="#063251" stroke-width="0.25"/>
<path d="M 271.61 148.74 C 280.04 147.47 288.57 145.40 297.14 146.49 C 300.80 147.14 304.84 149.09 306.08 152.88 C 306.84 154.79 305.93 156.71 305.46 158.56 C 296.62 158.75 287.80 159.38 279.03 160.49 C 275.52 160.77 271.01 161.30 268.62 158.07 C 267.91 154.82 267.29 149.62 271.61 148.74 Z" fill="#063251" opacity="1.00" stroke="#063251" stroke-width="0.25"/>
<path d="M 160.90 181.84 C 163.42 173.26 172.02 167.45 180.82 167.28 C 180.22 178.35 179.00 189.46 180.08 200.55 C 180.41 203.74 180.58 206.96 180.77 210.17 C 174.99 209.44 169.11 207.25 165.39 202.57 C 160.20 197.15 159.02 188.89 160.90 181.84 Z" fill="#fecdb4" opacity="1.00" stroke="#fecdb4" stroke-width="0.25"/>
<path d="M 250.05 172.96 C 249.37 170.51 249.79 166.26 253.26 167.62 C 254.43 170.27 253.96 173.31 254.97 176.00 C 257.14 180.36 261.11 183.59 262.82 188.22 C 264.10 191.04 264.16 194.19 263.85 197.22 C 259.46 200.16 254.19 197.92 249.52 197.07 C 249.48 195.84 249.46 194.62 249.45 193.40 C 252.95 193.56 256.39 194.24 259.86 194.69 C 259.92 186.06 250.54 181.39 250.05 172.96 Z" fill="#063251" opacity="1.00" stroke="#063251" stroke-width="0.25"/>
<path d="M 322.68 167.21 C 331.13 167.16 339.20 172.39 342.60 180.10 C 345.45 187.28 344.43 196.27 339.14 202.08 C 335.31 207.10 329.19 209.34 323.20 210.44 C 323.36 205.95 323.91 201.50 324.23 197.03 C 324.60 187.07 323.92 177.09 322.68 167.21 Z" fill="#fecdb4" opacity="1.00" stroke="#fecdb4" stroke-width="0.25"/>
<path d="M 211.54 176.80 C 212.39 173.26 215.00 169.57 219.04 169.68 C 224.18 169.46 228.31 175.67 225.61 180.22 C 223.87 184.52 217.77 185.92 214.44 182.64 C 212.57 181.25 212.21 178.87 211.54 176.80 Z" fill="#063251" opacity="1.00" stroke="#063251" stroke-width="0.25"/>
<path d="M 282.43 170.75 C 287.62 167.10 295.08 173.13 293.20 179.01 C 292.31 183.94 285.78 186.07 281.95 183.09 C 277.91 180.26 278.04 173.20 282.43 170.75 Z" fill="#063251" opacity="1.00" stroke="#063251" stroke-width="0.25"/>
<path d="M 305.62 214.63 C 314.14 205.49 317.35 192.91 319.27 180.89 C 320.93 188.15 320.29 195.63 319.75 202.98 C 318.40 223.08 307.68 242.46 290.91 253.76 C 278.17 262.57 262.35 265.92 247.04 265.40 C 231.47 264.13 216.10 258.17 204.82 247.17 C 192.05 235.35 185.12 218.18 184.00 201.01 C 183.37 194.71 183.49 188.36 184.12 182.07 C 185.93 194.32 189.81 207.13 199.06 215.89 C 202.10 218.61 206.08 221.90 210.44 220.44 C 214.85 216.14 217.71 210.32 222.87 206.78 C 228.04 203.12 234.78 202.02 240.91 203.38 C 245.39 204.18 249.74 206.47 254.39 205.56 C 262.07 204.17 270.37 201.75 277.93 204.93 C 285.16 207.79 288.89 215.04 293.64 220.69 C 298.54 221.28 302.45 217.89 305.62 214.63 Z" fill="#77544e" opacity="1.00" stroke="#77544e" stroke-width="0.25"/>
<path d="M 87.48 183.33 C 90.37 183.23 92.58 185.63 95.03 186.85 C 108.15 194.34 120.88 202.48 134.04 209.89 C 133.30 211.64 132.56 213.39 131.75 215.12 C 127.44 213.99 124.03 211.04 120.20 208.92 C 113.37 205.10 106.74 200.94 99.96 197.04 C 94.93 193.84 89.40 191.42 84.88 187.48 C 85.58 186.01 86.02 184.26 87.48 183.33 Z" fill="#85e8ff" opacity="1.00" stroke="#85e8ff" stroke-width="0.25"/>
<path d="M 366.36 216.25 C 391.51 206.09 417.06 196.95 442.13 186.60 C 442.90 187.21 443.68 187.83 444.47 188.44 C 444.42 189.95 444.37 191.47 444.32 192.98 C 419.67 201.95 395.30 211.72 370.86 221.23 C 369.52 221.49 368.15 221.39 366.80 221.42 C 366.65 219.70 366.50 217.97 366.36 216.25 Z" fill="#85e8ff" opacity="1.00" stroke="#85e8ff" stroke-width="0.25"/>
<path d="M 269.66 213.79 C 272.35 212.65 274.82 211.02 277.61 210.08 C 278.70 215.70 274.92 220.32 271.20 223.98 C 273.46 226.64 276.46 229.73 275.41 233.56 C 274.41 238.97 269.30 242.41 264.12 243.14 C 255.69 244.57 246.56 244.86 238.58 241.37 C 235.11 240.02 232.73 237.08 230.41 234.32 C 230.36 231.73 230.34 229.15 230.39 226.56 C 231.23 225.96 232.07 225.36 232.91 224.76 C 230.35 220.51 225.54 216.62 226.37 211.17 C 227.95 209.72 229.49 211.48 230.96 212.16 C 237.53 216.20 245.52 216.72 253.04 216.57 C 258.70 216.73 264.34 215.71 269.66 213.79 Z" fill="#063251" opacity="1.00" stroke="#063251" stroke-width="0.25"/>
<path d="M 229.97 215.21 C 243.63 221.15 259.94 221.28 273.61 215.34 C 273.58 215.80 273.52 216.72 273.49 217.18 C 263.93 232.18 237.60 231.85 229.97 215.21 Z" fill="#ffffff" opacity="1.00" stroke="#ffffff" stroke-width="0.25"/>
<path d="M 232.49 226.32 C 237.06 226.01 240.64 229.52 245.01 230.33 C 249.67 230.70 254.41 231.08 259.04 230.21 C 263.31 229.44 266.84 226.38 271.25 226.17 C 273.02 228.68 274.77 231.97 272.93 234.96 C 270.78 239.53 265.28 240.00 261.00 241.27 C 252.00 241.94 241.40 242.29 234.40 235.60 C 231.51 233.35 232.25 229.49 232.49 226.32 Z" fill="#f56034" opacity="1.00" stroke="#f56034" stroke-width="0.25"/>
<path d="M 82.19 246.47 C 82.34 244.39 82.49 242.31 82.66 240.24 C 105.68 245.90 128.55 252.21 151.56 257.93 C 151.58 259.87 151.59 261.80 151.61 263.74 C 149.37 263.64 147.09 263.60 144.90 263.04 C 124.02 257.43 103.11 251.94 82.19 246.47 Z" fill="#85e8ff" opacity="1.00" stroke="#85e8ff" stroke-width="0.25"/>
<path d="M 405.24 250.07 C 409.89 249.18 414.49 247.91 419.23 247.59 C 421.47 248.12 421.38 250.82 422.01 252.55 C 419.10 253.75 416.07 254.62 412.96 255.11 C 394.23 258.45 375.63 262.59 356.82 265.47 C 354.54 264.34 355.61 261.55 355.40 259.54 C 371.97 256.18 388.63 253.26 405.24 250.07 Z" fill="#85e8ff" opacity="1.00" stroke="#85e8ff" stroke-width="0.25"/>
<path d="M 258.72 269.88 C 263.57 269.09 268.46 268.43 273.22 267.16 C 273.28 277.66 274.64 288.12 274.48 298.62 C 268.39 300.81 262.23 302.96 255.95 304.51 C 249.75 302.95 243.87 300.27 237.60 298.93 C 237.55 292.68 238.43 286.47 238.49 280.23 C 245.28 276.88 251.74 272.84 258.72 269.88 Z" fill="#fecdb4" opacity="1.00" stroke="#fecdb4" stroke-width="0.25"/>
<path d="M 239.68 268.73 C 241.63 269.16 242.41 271.02 243.48 272.50 C 243.20 272.64 242.65 272.92 242.37 273.07 C 241.33 272.48 240.18 272.15 239.05 272.66 C 239.21 271.68 239.52 269.71 239.68 268.73 Z" fill="#ffffff" opacity="1.00" stroke="#ffffff" stroke-width="0.25"/>
<path d="M 244.44 270.13 C 245.81 269.73 246.29 270.24 245.89 271.67 C 244.51 272.06 244.03 271.55 244.44 270.13 Z" fill="#77544e" opacity="1.00" stroke="#77544e" stroke-width="0.25"/>
<path d="M 395.50 290.98 C 400.21 291.53 403.87 294.78 407.78 297.15 C 418.46 303.96 429.19 310.69 439.89 317.46 C 439.77 319.63 438.76 321.50 437.29 323.07 C 422.53 314.00 408.06 304.46 393.30 295.38 C 393.94 293.87 394.67 292.40 395.50 290.98 Z" fill="#85e8ff" opacity="1.00" stroke="#85e8ff" stroke-width="0.25"/>
<path d="M 105.36 300.45 C 107.35 299.39 109.42 297.96 111.79 298.23 C 113.62 299.08 113.35 301.55 113.90 303.19 C 97.36 311.83 80.99 320.80 64.60 329.74 C 63.27 328.26 62.14 326.62 61.17 324.88 C 67.59 320.53 74.67 317.30 81.41 313.48 C 89.29 308.95 97.50 305.01 105.36 300.45 Z" fill="#85e8ff" opacity="1.00" stroke="#85e8ff" stroke-width="0.25"/>
<path d="M 213.51 298.54 C 214.71 298.41 215.91 298.29 217.12 298.17 C 228.91 342.50 241.50 386.63 253.28 430.96 C 253.81 434.07 252.48 437.12 252.02 440.17 C 237.45 424.77 223.68 408.64 209.40 392.97 C 214.16 387.89 218.57 382.50 223.29 377.39 C 225.58 374.34 229.10 372.07 230.15 368.24 C 229.59 367.76 228.46 366.81 227.89 366.34 C 224.58 368.11 222.63 371.40 219.94 373.87 L 219.07 373.88 C 211.60 367.34 204.53 360.33 197.20 353.63 C 202.42 335.20 208.04 316.89 213.51 298.54 Z" fill="#85e8ff" opacity="1.00" stroke="#85e8ff" stroke-width="0.25"/>
<path d="M 221.53 297.42 C 230.48 300.77 239.49 303.97 248.53 307.07 C 244.83 313.25 241.25 319.51 237.52 325.67 C 237.20 325.72 236.57 325.82 236.26 325.87 C 233.37 323.45 230.32 321.19 227.65 318.55 C 225.27 311.62 223.64 304.44 221.53 297.42 Z" fill="#ffffff" opacity="1.00" stroke="#ffffff" stroke-width="0.25"/>
<path d="M 263.91 306.91 C 272.86 303.89 281.82 300.85 290.61 297.41 C 289.01 303.28 287.39 309.15 285.70 315.00 C 284.72 320.65 278.84 322.88 275.15 326.54 C 271.75 319.80 266.98 313.82 263.91 306.91 Z" fill="#ffffff" opacity="1.00" stroke="#ffffff" stroke-width="0.25"/>
<path d="M 295.25 298.10 C 296.52 298.29 297.79 298.50 299.06 298.71 C 303.71 317.24 310.39 335.24 314.81 353.83 C 307.38 360.40 300.29 367.35 292.87 373.92 C 289.58 372.44 288.29 368.43 285.07 366.77 C 282.96 365.92 281.16 368.84 282.68 370.44 C 289.30 377.98 295.91 385.55 302.61 393.02 C 297.35 398.71 292.24 404.54 287.04 410.28 C 284.05 410.32 281.00 410.32 278.14 411.32 C 278.15 413.74 278.49 416.15 279.53 418.36 C 271.72 427.52 263.58 436.43 255.37 445.24 C 268.14 396.05 281.91 347.13 295.25 298.10 Z" fill="#85e8ff" opacity="1.00" stroke="#85e8ff" stroke-width="0.25"/>
<path d="M 179.07 307.44 C 188.66 305.05 198.29 302.80 207.90 300.52 C 202.95 317.00 198.01 333.49 192.97 349.94 C 192.52 352.11 191.24 354.95 193.47 356.53 C 201.01 363.77 208.74 370.81 216.28 378.05 C 212.73 382.56 208.45 386.44 204.93 390.97 C 203.66 392.27 204.10 394.36 205.45 395.44 C 220.38 411.87 234.95 428.62 249.94 445.00 C 249.52 448.81 248.74 452.57 248.00 456.34 C 222.75 456.31 197.50 456.46 172.25 456.27 C 172.74 432.53 173.52 408.80 173.81 385.06 C 173.73 378.60 174.97 372.02 173.46 365.64 C 172.50 365.65 170.56 365.66 169.60 365.66 C 168.27 384.38 168.68 403.19 167.99 421.94 C 167.69 433.40 167.47 444.86 167.31 456.32 C 147.98 456.37 128.65 456.36 109.32 456.33 C 111.50 432.26 113.89 408.14 118.64 384.41 C 121.42 369.50 124.67 354.39 131.58 340.77 C 136.18 331.81 142.72 323.63 151.35 318.27 C 159.67 312.65 169.46 309.90 179.07 307.44 Z" fill="#85e8ff" opacity="1.00" stroke="#85e8ff" stroke-width="0.25"/>
<path d="M 304.39 300.56 C 320.70 304.79 337.53 307.50 353.15 314.02 C 368.45 320.60 379.33 334.67 384.72 350.12 C 391.97 370.73 395.20 392.45 398.33 413.98 C 400.02 428.07 401.77 442.17 402.75 456.32 C 383.42 456.36 364.09 456.38 344.76 456.30 C 344.49 429.53 343.61 402.77 343.17 375.99 C 343.09 372.80 343.26 369.54 342.53 366.41 C 341.34 365.80 340.06 365.45 338.69 365.37 C 337.07 369.75 338.20 374.44 338.16 378.97 C 338.64 404.72 339.24 430.47 339.75 456.22 C 315.83 456.53 291.92 456.27 268.00 456.35 C 262.88 456.35 257.76 456.47 252.65 456.12 C 257.87 449.27 263.95 443.14 269.59 436.64 C 273.42 432.65 276.63 428.06 280.92 424.52 C 282.19 429.82 283.65 435.08 284.84 440.40 C 287.06 440.66 289.30 440.59 291.51 440.21 C 301.51 438.50 311.64 437.59 321.58 435.51 C 322.69 426.35 323.60 417.13 323.76 407.90 C 313.83 407.03 303.88 409.00 293.95 409.36 C 298.43 404.67 302.70 399.79 306.94 394.88 C 307.99 393.88 308.06 392.02 307.00 391.00 C 303.40 386.53 299.31 382.47 295.62 378.07 C 303.70 370.31 312.09 362.90 320.09 355.05 C 318.68 346.24 315.18 337.94 312.90 329.34 C 310.20 319.70 307.06 310.20 304.39 300.56 Z" fill="#85e8ff" opacity="1.00" stroke="#85e8ff" stroke-width="0.25"/>
<path d="M 251.61 312.54 C 254.21 312.22 256.98 311.20 259.46 312.54 C 261.67 313.73 263.80 315.57 264.61 318.01 C 264.90 320.97 263.31 323.66 262.30 326.34 C 258.81 326.29 255.31 326.45 251.83 326.35 C 250.16 326.81 249.58 325.04 248.99 323.96 C 248.51 321.87 247.85 319.82 247.22 317.78 C 248.63 315.99 250.09 314.24 251.61 312.54 Z" fill="#f56034" opacity="1.00" stroke="#f56034" stroke-width="0.25"/>
<path d="M 238.44 331.54 C 241.00 328.60 242.36 324.84 244.88 321.86 C 245.83 324.72 246.90 327.57 248.58 330.09 C 246.58 343.62 243.53 356.98 241.92 370.55 C 237.62 355.46 233.41 340.33 229.21 325.20 C 232.08 327.39 234.55 331.74 238.44 331.54 Z" fill="#ffffff" opacity="1.00" stroke="#ffffff" stroke-width="0.25"/>
<path d="M 267.68 321.75 C 269.75 325.07 271.37 328.70 273.89 331.72 C 277.66 331.27 279.86 327.70 282.81 325.68 C 279.06 340.46 274.32 354.98 270.86 369.84 C 267.91 356.95 266.33 343.80 263.81 330.83 C 265.32 327.90 266.52 324.83 267.68 321.75 Z" fill="#ffffff" opacity="1.00" stroke="#ffffff" stroke-width="0.25"/>
<path d="M 251.86 330.52 C 254.67 330.40 257.48 330.36 260.29 330.40 C 262.96 343.87 264.64 357.52 267.15 371.02 C 269.07 378.59 266.16 385.90 264.16 393.09 C 263.10 396.72 262.11 400.37 261.16 404.03 C 260.38 406.66 259.62 409.30 258.84 411.94 C 258.07 414.89 257.18 417.82 256.26 420.73 C 256.11 420.74 255.81 420.76 255.65 420.76 C 255.55 420.08 255.34 418.70 255.23 418.01 C 254.74 416.69 254.27 415.36 253.80 414.04 C 253.50 412.69 253.21 411.35 252.90 410.02 C 252.22 407.69 251.55 405.36 250.87 403.03 C 248.88 396.03 247.02 388.99 244.98 382.00 C 243.36 377.04 245.22 371.94 245.82 366.98 C 247.60 354.79 250.03 342.70 251.86 330.52 Z" fill="#f56034" opacity="1.00" stroke="#f56034" stroke-width="0.25"/>
<path d="M 290.95 413.92 C 300.54 413.05 310.17 412.55 319.76 411.62 C 319.21 418.48 318.52 425.33 318.21 432.21 C 308.15 433.73 298.07 435.11 287.99 436.52 C 287.05 431.15 284.92 425.91 284.51 420.50 C 286.48 418.21 288.14 415.22 290.95 413.92 Z" fill="#85e8ff" opacity="1.00" stroke="#85e8ff" stroke-width="0.25"/>
</svg>