<?xml version="1.0" encoding="UTF-8"?>
<svg id="Layer_1" xmlns="http://www.w3.org/2000/svg" version="1.1" viewBox="0 0 512 512">
  <!-- Generator: Adobe Illustrator 29.4.0, SVG Export Plug-In . SVG Version: 2.1.0 Build 152)  -->
  <defs>
    <style>
      .st0 {
        stroke: #f36532;
      }

      .st0, .st1, .st2, .st3 {
        stroke-width: .2px;
      }

      .st0, .st3 {
        fill: #cb805c;
      }

      .st1 {
        fill: #063050;
        stroke: #063050;
      }

      .st2 {
        fill: #fff;
        stroke: #fff;
      }

      .st3 {
        stroke: #cb805c;
      }
    </style>
  </defs>
  <path class="st1" d="M355,412.1c-2-10.7-4.6-21.3-7.1-31.9-3.8-15.9-6.7-32-10.9-47.8-1.9-7.4-6.8-13.4-9.4-20.5-.7-5,2.2-9.5,4.1-13.9,6.1-11.8,10.1-25.7,6.3-38.9,4.5-1.1,8.4-4.3,9.4-9,4.6-15.6-13.5-31.5-28.4-26.1,0,.8-.3,2.4-.3,3.2,3.1,2.4,6.9,4.6,7.8,8.8,1.4,3.1.2,6.5-.4,9.7-15.6-6.5-32.7-7.5-49.4-7.1-15.7-.4-31.9,1.6-47-3.7-4.6-1.6-10.1-3.9-11.2-9.3-2.7-11.8-4.7-23.8-7.3-35.7,5.4-.2,11.1-2.3,13.8-7.3,1.7-3.7,3.6-8.5.5-12,10-2.1,19.9-4.9,28.7-10.3,4.9-3.2,9.6-6.8,14.8-9.6,3.7-1,7.6-.9,11.2-2,9.8-3.4,17.8-11.2,22.4-20.3,2.7-3.6-2.1-8.9-5.6-5.6-5.8,5.4-10.6,11.9-17.8,15.6,4.3-10.5,6.7-22.1,4.5-33.4-.9-.1-2.8-.4-3.7-.6-.9.5-2.6,1.7-3.5,2.2-1.9,10.1-1.6,21-7.3,29.9-1.9,3.5-5.3,5.7-8.5,7.8,1.3-7.2,1.2-14.5.8-21.8l-1.5-3.8c-2.2.3-5.5-.9-6.4,2-3.2,9.4.6,20-3.8,29.1-4.8,4.9-11.2,7.8-18,8.7.3-6.4,1.6-12.8,1.9-19.2.2-1.9-1.3-3.3-2.1-4.9-1,.5-3.1,1.5-4.1,2-3.2,7.7-4,16-6,24.1-8.3,1.8-16.3,4.6-24.2,7.6,2.9-11.6,7.2-22.8,13.5-33,2.1-3,4.6-6.8,8.8-6.8,7.9-.3,15.7-2.6,22.2-7.3-.2-2.1.8-5.3-1.9-6.1-4.9-1.4-9.8,1-14.4,2.5,2.5-7.9,7.8-16,5-24.5-2.3,0-5.7-.9-6.7,2-5.1,9.3-6.8,20.6-14.7,28.2-1.1-8.4.1-17.1-2.1-25.4-2.1,0-4.2-.1-6.3-.1-3.2,11.5-1.7,23.6,0,35.3-4.6,7.7-8.7,15.7-11.2,24.3-3.9-8.3-7.3-16.9-10.9-25.4-1-3.1-4.1-3.2-6.9-3-.4,2.7-1,5.3-.6,8,2,12.4,8.6,23.2,14.2,34.2-8.4,5-16.3,10.7-24.5,16-6.9,5.1-14.5,9.4-20.5,15.6-1.7,4.2-3.1,9.1-.9,13.4,1.8,4.7,6.6,7.7,11.5,7.9,9.5.3,18.8-1.7,28-3.8-.7,15.3-1.1,30.6,0,45.9.8,9.3,2.2,19.2,7.9,26.8,4.5,6.8,11.9,10.5,19.5,12.6-.8,36.3-5.5,72.4-13.5,107.7-5.3-.3-10.6-.6-15.8-.5,0,1-.1,3-.1,4.1,2.8.9,7.9,2.2,14.4,1.4,6-.7,10.4-2.9,12.9-4.4,1.5-6.9,2.9-13.9,4.3-20.9,4.6-23.1,8.5-45.7,11.9-67.9,8.7,26,11.9,41.3,13.2,50.7.2,1.5,1.4,10.7,3.1,23.9.8,5.8,1.4,10.5,1.9,13.7.2.5,1.6,3.7,5.3,5.1,3.3,1.2,6.1.1,6.8-.1-4.7-6.2-3.5-12.4-4.6-19.7-.6-4-2.2-7.7-2.4-11.8-.2-4-.3-7.9-1.1-11.9-1.9-10-1.5-15.5-2.1-29.2-.4-9.2-.6-22,.3-37.8,1.3.1,3.1.2,5.2.4,9.9.6,17.4.4,19.7.3,6.5-.2,14.9-.8,24.7-2.3,2,2.6,4.6,6.3,6.9,10.9,0,0,5.4,10.7,6.8,21.7,1.3,10.3-1.5,17.7-11.4,41.7-6.7,16.1-12,28.9-15.3,36.5,1.3.5,3,.9,4.8,1.2,2.8.4,5.1.3,7,.1.6-2.3,1.5-5.7,3-9.8,2.4-6.8,4.7-11.1,7.2-16.5,0,0,2-4.1,7.9-18.5,3.3-8,7.8-20.1,12.1-37.3,6.6,10.3,10.6,19.4,13.1,26.1,2.1,5.6,6,17.2,7.8,26.3.3,1.3,1.1,5.6,2.8,11.2.9,2.8,1.7,5.1,2.2,6.7.2,1.8.4,3.6.6,5.5.2,1.8.4,3.5.7,5.2,9.1,0,18.2,0,27.3.4.1-1.4.3-2.9.4-4.3-6.3-.5-12.7-.7-19-1.1Z"/>
  <path class="st3" d="M183.2,177c6.9-4.1,15.3-2,22.8-1.6-1.5,1.4-3.1,2.9-4.7,4.3-.1,2.3-.2,4.7-.1,7,2.4,1.1,4.7,2.2,7,3.5,1.8,12,4.3,24,6.9,35.9,1.2,7.7,9.3,10.9,15.8,12.9,25.3,7.3,52,.5,77.6,5.2,10.8,1.7,23.1,6.3,26.9,17.6,2.6,10.3-.4,21.2-4.7,30.7-2.1-4.1-4.4-8.4-8.2-11.3-6.4,0-12.4,2.7-18.7,2.9-4.6.1-9.1-.8-13.6-1.5,0,2.4,0,4.9,0,7.3-2.1-3.4-4-7-5.8-10.6-.8.1-2.3.3-3.1.4,2.1,4.2,4.3,8.5,6.4,12.8-15,.2-30,.3-45.1-.3,1.1-5.8,2.2-11.6,1.6-17.5-.6.6-1.8,1.7-2.4,2.3-.8,9.9-3.1,19.5-4.4,29.3-1.5,14.3-.8,28.7-.4,43,.6,3.5-2.5,5.4-5,7-3.5-13.6-7-27.1-11.5-40.4-2.9-9.1-6.3-18.1-8.3-27.4.5.4,1.6,1.1,2.2,1.5,7.2,20.7,12.6,42,19.5,62.8,3-10.5-.3-21.4.9-32.1.1-14.1,3-28,5.1-41.9-8-1.4-17.1-6-24.8-1.2-2.8,1.4-3.3,4.8-3.8,7.6-1.3-3.9-2.3-7.9-4-11.6-1.5,5.9,1,11.7,1.8,17.5-5.9-1.5-11.3-5.3-13.9-10.9-5.3-11-4.3-23.5-3.8-35.4,1-10.4,1.4-20.9,1.7-31.4-9.1,2.1-18.3,4.2-27.5,6.1-1.1-3.8-2-8-4.7-11.1-3.3-3.8-8.2-5.5-12.5-7.6,1.7-2,3.6-4,5.9-5.4,9.6-6,18.7-13,28.7-18.3Z"/>
  <path class="st2" d="M205.8,179.6c5.1-4.4,12-5.4,18.4-6-.8,3.5-1,7.7-4.1,10.2-4.5,4.1-11.2,3.1-16.5,1.1.5-1.9.3-4.2,2.2-5.3Z"/>
  <path class="st1" d="M181.2,189.4c2-.1,4.1-.2,6.1-.3,0,2,0,4-.2,6-1.9,0-3.8-.1-5.7-.2-.1-1.8-.2-3.7-.3-5.5Z"/>
  <path class="st2" d="M151.9,204.9c5.7,3,11.2,8,10.5,15.1-4.8.5-9.9,1.7-14.7.3-3.2-.8-4.9-3.8-6.8-6.2,3.3-.5,7.5.6,9.8-2.5,1.3-2,.8-4.5,1.2-6.8Z"/>
  <path class="st2" d="M181.6,219.5c3.1-.8,6.3-1.5,9.4-2.2-.9,15.8-2.8,31.6-2.2,47.5.5,8.6,2.9,17.8,9.6,23.8,3.4,3.2,8,4.3,12.3,5.7.8,3.4,1.8,6.7,2.8,10.1-6.4-2.3-13.5-3.4-18.8-7.9-6.3-4.9-9.9-12.5-11.3-20.2-3.1-18.7-2.4-37.8-1.8-56.7Z"/>
  <path class="st3" d="M322.6,225.8c10.2-.2,20.8,6.8,22.3,17.4.7,4.8-1,12-6.8,12.6-3.8-1.3-6.6-4.6-9.3-7.5,0-4.3,1.9-8.8.3-13-1.1-3.8-4.1-6.5-6.6-9.5Z"/>
  <path class="st0" d="M215.2,277.5c7.7-4.8,16.8-.3,24.8,1.2-2.1,13.9-4.9,27.8-5.1,41.9-1.2,10.7,2.1,21.6-.9,32.1-6.9-20.8-12.3-42.1-19.5-62.8-.5-.4-1.6-1.1-2.2-1.5l-1.3-.8c0-.6.2-1.9.3-2.6.5-2.8,1-6.2,3.8-7.6Z"/>
  <path class="st0" d="M304,284.1c6.4-.2,12.4-2.8,18.7-2.9,3.8,2.9,6.1,7.1,8.2,11.3-3.8,7.7-9.3,16.9-4.1,25.3,8,12.6,9.7,27.7,12.4,42.1-7.8-11.2-15.2-22.8-24.4-32.9-9.7-11-17.5-23.5-24.4-36.3v-.7c0-2.5,0-4.9,0-7.3,4.5.7,9,1.6,13.6,1.5Z"/>
  <path class="st2" d="M242,295.2c16,.3,32,.4,47.9.4,1,2.1,1.9,4.2,2.8,6.4-12,1.6-24.1,3.7-36.3,3-5.1-.5-10.2-.6-15.4-.8.3-3,.6-6.1.9-9.1Z"/>
  <rect class="st1" x="176.7" y="412.9" width="198.9" height="6.2"/>
</svg>