<?xml version="1.0" encoding="utf-8"?>
<svg xmlns="http://www.w3.org/2000/svg" height="512pt" version="1.1" viewBox="0 0 512 512" width="512pt">
<path d="M 0.00 0.00 L 512.00 0.00 L 512.00 512.00 L 0.00 512.00 L 0.00 0.00 Z" fill="transparent" opacity="1.00" stroke="transparent" stroke-width="0.25"/>
<path d="M 169.28 88.33 C 171.09 84.32 172.77 79.54 177.10 77.61 C 181.52 75.83 185.46 79.18 188.81 81.60 C 205.11 94.36 219.60 109.50 231.51 126.43 C 249.13 122.56 267.90 123.11 285.14 128.51 C 296.41 110.01 311.38 93.80 328.82 80.95 C 331.80 79.04 335.13 76.32 338.92 77.47 C 341.71 78.54 343.24 81.34 344.15 84.03 C 349.72 98.69 351.81 114.43 352.23 130.04 C 352.09 144.94 350.20 160.45 342.54 173.54 C 339.31 178.36 335.54 183.18 330.17 185.73 C 333.80 204.74 333.48 224.88 326.43 243.09 C 325.84 245.03 324.37 246.84 324.57 248.93 C 328.28 262.97 333.97 276.39 340.63 289.26 C 345.98 299.92 351.12 310.71 354.93 322.02 C 360.82 338.85 363.01 356.85 361.27 374.60 C 369.80 375.07 378.66 379.31 382.60 387.20 C 383.10 389.31 385.46 388.44 387.00 388.49 C 397.35 387.37 407.66 384.99 417.10 380.54 C 418.73 379.69 420.58 379.54 422.38 379.38 C 425.03 386.02 420.85 392.73 417.12 398.03 C 408.21 410.97 393.31 418.33 378.12 420.93 C 355.97 424.58 333.43 424.43 311.06 425.41 C 308.39 426.70 307.04 429.98 304.10 430.99 C 299.00 433.42 293.10 432.14 288.21 429.83 C 283.92 430.56 279.25 431.48 275.14 429.56 C 273.33 428.89 271.48 427.58 269.49 428.44 C 265.24 429.72 260.58 430.32 256.40 428.47 C 256.28 428.23 256.03 427.75 255.91 427.50 L 255.33 426.39 C 251.88 425.93 248.39 425.97 244.92 426.04 C 239.36 426.23 233.66 425.46 228.26 427.17 C 223.53 427.91 218.53 426.00 213.99 428.01 C 209.40 429.81 204.36 428.79 199.90 427.16 C 194.73 428.33 188.88 429.28 184.32 425.79 C 163.88 425.77 143.43 425.87 123.00 425.33 C 116.60 424.96 109.89 425.42 103.82 423.04 C 107.28 420.42 111.92 420.68 116.00 419.98 C 132.61 418.40 149.26 417.12 165.93 416.63 C 164.88 414.28 163.82 411.93 162.99 409.49 C 150.00 409.41 137.03 410.48 124.04 410.53 C 114.37 410.74 104.71 411.83 95.03 411.32 C 92.58 411.11 89.41 410.77 88.75 407.88 C 96.97 405.76 105.58 406.84 113.96 405.94 C 129.65 405.42 145.35 405.31 161.04 404.78 C 158.21 394.60 158.43 383.47 162.38 373.61 C 164.67 367.33 168.16 361.61 171.57 355.90 C 172.08 351.96 171.40 347.93 171.55 343.95 C 171.28 315.01 180.81 287.06 192.77 261.06 C 181.47 246.64 176.93 228.02 176.65 209.97 C 176.44 201.15 177.97 192.42 179.61 183.79 C 176.25 180.33 172.52 177.10 170.18 172.79 C 163.85 161.70 161.41 148.75 161.30 136.09 C 160.94 119.87 163.66 103.56 169.28 88.33 Z" fill="#022b4b" opacity="1.00" stroke="#022b4b" stroke-width="0.25"/>
<path d="M 185.88 106.05 C 184.57 101.13 183.29 96.19 182.32 91.19 C 190.78 100.00 199.19 109.07 205.30 119.74 C 208.29 124.66 208.42 130.65 208.55 136.23 C 204.50 139.40 200.31 142.41 196.66 146.06 C 193.01 132.74 189.74 119.32 185.88 106.05 Z" fill="#c0e3f7" opacity="1.00" stroke="#c0e3f7" stroke-width="0.25"/>
<path d="M 310.47 121.47 C 317.46 112.26 326.12 104.36 335.24 97.29 C 334.20 117.54 329.32 138.14 318.29 155.36 C 317.50 156.47 316.20 158.88 314.71 157.41 C 311.56 153.21 307.62 149.75 304.06 145.94 C 304.19 137.45 305.03 128.40 310.47 121.47 Z" fill="#c1e3f7" opacity="1.00" stroke="#c1e3f7" stroke-width="0.25"/>
<path d="M 236.77 133.84 C 241.27 130.92 246.84 131.18 251.98 130.91 C 260.05 131.16 268.66 131.99 275.56 136.57 C 280.26 139.66 281.41 146.01 279.72 151.10 C 278.42 156.08 274.51 159.67 271.98 163.99 C 265.77 174.62 265.19 187.75 267.82 199.55 C 269.94 207.37 272.96 215.36 278.92 221.09 C 284.98 227.62 293.55 230.73 301.45 234.38 C 305.63 236.42 310.04 239.39 311.41 244.10 C 312.29 248.02 311.64 252.22 309.76 255.77 C 306.03 263.02 300.74 269.41 294.72 274.87 C 285.35 283.27 273.82 288.76 262.14 293.18 C 254.08 296.32 244.83 296.59 236.79 293.24 C 231.05 291.19 226.58 286.88 222.49 282.53 C 214.50 274.83 205.70 267.91 198.53 259.38 C 192.37 252.11 188.55 242.56 189.18 232.95 C 189.27 228.69 191.95 224.56 195.95 223.01 C 202.29 220.15 209.51 222.75 216.03 220.54 C 227.43 217.40 234.79 206.68 238.37 195.99 C 242.38 182.42 242.37 167.72 238.74 154.06 C 237.28 147.45 234.00 140.56 236.77 133.84 Z" fill="#fefffe" opacity="1.00" stroke="#fefffe" stroke-width="0.25"/>
<path d="M 212.84 171.73 C 218.00 169.67 225.43 168.91 228.97 174.15 C 230.60 176.21 229.63 178.84 228.22 180.70 C 223.58 177.47 218.05 176.79 212.65 175.76 C 212.41 175.29 211.91 174.35 211.67 173.88 C 212.06 173.16 212.45 172.45 212.84 171.73 Z" fill="#faffff" opacity="1.00" stroke="#faffff" stroke-width="0.25"/>
<path d="M 273.43 176.86 C 276.41 171.56 282.59 169.67 288.32 169.52 C 289.70 170.59 291.20 171.92 290.74 173.89 C 290.20 176.00 287.52 175.43 285.94 176.12 C 282.02 176.75 279.02 180.68 274.81 179.51 C 274.46 178.85 273.77 177.53 273.43 176.86 Z" fill="#fbffff" opacity="1.00" stroke="#fbffff" stroke-width="0.25"/>
<path d="M 208.16 193.96 C 210.92 192.06 216.13 193.17 216.40 196.98 C 216.49 200.35 213.09 198.21 211.53 197.36 C 208.31 201.31 211.59 206.00 212.97 209.96 C 205.74 209.67 202.63 198.38 208.16 193.96 Z" fill="#f7ffff" opacity="1.00" stroke="#f7ffff" stroke-width="0.25"/>
<path d="M 278.02 205.12 C 277.32 201.23 279.14 195.18 283.94 195.21 C 287.73 194.55 291.50 198.06 290.70 201.92 C 288.20 201.78 286.38 199.56 283.84 199.74 C 281.62 203.52 282.91 207.99 284.69 211.65 C 280.85 212.73 278.63 208.23 278.02 205.12 Z" fill="#f9ffff" opacity="1.00" stroke="#f9ffff" stroke-width="0.25"/>
<path d="M 224.41 200.90 C 223.84 199.23 225.84 198.38 226.81 197.43 C 227.57 197.95 228.33 198.47 229.10 199.00 C 229.14 199.44 229.22 200.33 229.25 200.77 C 228.86 201.44 228.48 202.10 228.10 202.77 C 226.74 202.53 224.47 202.87 224.41 200.90 Z" fill="#f4ffff" opacity="1.00" stroke="#f4ffff" stroke-width="0.25"/>
<path d="M 299.62 201.91 C 299.14 199.87 301.85 197.53 303.60 199.25 C 305.73 200.58 304.63 202.97 303.52 204.57 C 301.98 204.27 299.79 203.80 299.62 201.91 Z" fill="#f2ffff" opacity="1.00" stroke="#f2ffff" stroke-width="0.25"/>
<path d="M 236.65 226.85 C 245.14 223.74 254.58 224.06 263.31 225.93 C 266.05 226.38 268.38 227.94 270.44 229.73 C 271.76 233.93 270.91 238.63 268.21 242.11 C 264.57 247.39 259.28 251.26 253.49 253.90 C 251.75 258.38 253.40 265.08 258.65 266.25 C 265.43 267.53 273.42 266.76 278.36 261.41 C 282.34 257.76 282.84 252.02 285.75 247.72 C 288.05 244.22 295.15 247.56 292.50 251.43 C 291.79 251.52 290.36 251.68 289.65 251.77 C 287.13 259.34 282.68 266.83 275.11 270.22 C 273.72 270.69 272.34 271.20 270.97 271.74 C 269.12 279.60 264.85 287.66 257.28 291.31 C 250.65 294.75 241.76 294.01 236.39 288.59 C 230.75 283.76 230.02 275.76 230.24 268.82 C 219.75 266.16 211.21 256.82 210.48 245.87 C 210.85 245.24 211.59 243.98 211.97 243.35 C 212.74 243.50 214.28 243.80 215.05 243.95 C 216.37 249.05 217.61 254.60 221.80 258.21 C 227.11 263.55 235.51 264.51 242.63 263.39 C 246.75 262.63 246.77 257.99 247.31 254.71 C 247.07 254.27 246.57 253.40 246.32 252.97 C 241.05 249.71 235.79 245.65 233.29 239.80 C 231.86 235.45 231.81 229.07 236.65 226.85 Z" fill="#032b4a" opacity="1.00" stroke="#032b4a" stroke-width="0.25"/>
<path d="M 241.52 231.26 C 248.78 228.56 257.10 229.35 264.36 231.69 C 268.41 233.15 265.43 238.70 262.02 238.44 C 259.27 238.50 257.12 236.42 254.76 235.29 C 250.71 232.91 245.99 232.38 241.52 231.26 Z" fill="#fbffff" opacity="1.00" stroke="#fbffff" stroke-width="0.25"/>
<path d="M 296.24 281.27 C 305.77 274.29 313.78 265.39 320.32 255.59 C 323.16 271.25 327.24 286.75 333.79 301.30 C 337.77 311.20 340.58 322.84 336.14 333.05 C 331.65 341.80 321.97 346.49 317.72 355.43 C 310.57 368.54 313.50 383.91 311.73 398.12 C 310.79 406.35 309.70 415.02 305.19 422.16 C 302.68 426.53 296.56 427.37 292.53 424.66 C 293.21 419.57 294.57 414.53 294.32 409.35 C 291.81 409.51 290.85 412.09 289.97 414.01 C 288.57 417.13 288.24 420.59 287.00 423.76 C 282.82 424.91 278.11 425.01 274.41 422.45 C 275.00 417.56 276.78 412.88 277.20 407.98 C 276.92 407.50 276.36 406.54 276.08 406.06 C 271.95 410.48 270.42 416.52 269.29 422.29 C 265.40 422.69 261.43 423.92 257.58 422.56 C 253.88 414.48 255.81 405.13 257.84 396.84 C 265.08 376.86 282.50 363.47 296.48 348.41 C 296.71 347.98 297.19 347.13 297.43 346.71 C 292.95 346.70 288.95 348.72 285.29 351.10 C 270.92 360.10 256.96 370.42 246.71 384.12 C 248.88 368.04 256.20 353.18 264.15 339.22 C 270.79 328.33 279.66 319.12 288.10 309.66 C 286.65 310.31 285.17 310.90 283.88 311.84 C 275.29 318.49 268.75 327.27 262.07 335.74 C 249.94 352.23 242.00 371.61 238.41 391.74 C 238.01 391.70 237.21 391.63 236.81 391.59 C 231.26 376.79 219.71 364.92 206.59 356.47 C 202.44 353.65 197.65 350.34 192.37 351.41 C 188.67 353.21 187.31 357.46 186.05 361.07 C 184.44 366.43 181.75 371.48 181.18 377.12 C 180.97 377.27 180.55 377.56 180.35 377.71 C 180.69 370.42 178.35 363.28 178.38 355.97 C 177.26 339.26 178.29 322.30 182.60 306.07 C 185.83 292.50 191.21 279.57 196.79 266.83 C 198.79 268.26 200.53 270.02 202.19 271.83 C 202.86 280.70 204.97 289.43 208.36 297.65 C 211.46 304.95 217.20 311.21 224.49 314.45 C 232.50 318.38 241.87 318.24 250.43 316.44 C 264.20 312.71 276.03 303.90 285.77 293.71 C 288.81 290.83 291.50 287.58 293.42 283.84 C 294.11 282.75 295.25 282.07 296.24 281.27 Z" fill="#fefefe" opacity="1.00" stroke="#fefefe" stroke-width="0.25"/>
<path d="M 235.50 269.57 C 239.49 269.57 243.41 268.83 247.32 268.13 C 247.44 271.01 247.88 273.86 248.58 276.66 C 249.54 276.65 250.50 276.65 251.47 276.65 C 252.28 274.29 252.61 271.81 252.83 269.34 C 256.83 270.53 260.79 271.89 265.01 272.04 C 263.44 278.32 260.01 285.08 253.37 287.12 C 248.52 288.37 242.38 288.28 238.91 284.08 C 235.22 280.25 235.50 274.51 235.50 269.57 Z" fill="#ee5c2e" opacity="1.00" stroke="#ee5c2e" stroke-width="0.25"/>
<path d="M 202.19 271.83 C 208.34 277.71 215.77 282.16 221.21 288.77 C 228.21 297.09 239.08 302.09 249.98 301.60 C 259.65 301.61 268.40 296.94 276.93 292.94 C 282.67 290.35 287.80 286.66 293.42 283.84 C 291.50 287.58 288.81 290.83 285.77 293.71 C 276.03 303.90 264.20 312.71 250.43 316.44 C 241.87 318.24 232.50 318.38 224.49 314.45 C 217.20 311.21 211.46 304.95 208.36 297.65 C 204.97 289.43 202.86 280.70 202.19 271.83 Z" fill="#c0e3f7" opacity="1.00" stroke="#c0e3f7" stroke-width="0.25"/>
<path d="M 283.88 311.84 C 285.17 310.90 286.65 310.31 288.10 309.66 C 279.66 319.12 270.79 328.33 264.15 339.22 C 264.36 338.23 264.56 337.23 264.76 336.24 C 264.09 336.11 262.74 335.86 262.07 335.74 C 268.75 327.27 275.29 318.49 283.88 311.84 Z" fill="#bed8ea" opacity="1.00" stroke="#bed8ea" stroke-width="0.25"/>
<path d="M 238.41 391.74 C 242.00 371.61 249.94 352.23 262.07 335.74 C 262.74 335.86 264.09 336.11 264.76 336.24 C 264.56 337.23 264.36 338.23 264.15 339.22 C 256.20 353.18 248.88 368.04 246.71 384.12 C 256.96 370.42 270.92 360.10 285.29 351.10 C 288.95 348.72 292.95 346.70 297.43 346.71 C 297.19 347.13 296.71 347.98 296.48 348.41 C 295.29 347.58 294.08 348.42 293.11 349.07 C 287.82 353.05 283.35 358.03 277.96 361.90 C 267.85 368.82 259.67 378.51 254.37 389.54 C 250.62 397.03 249.81 405.55 249.79 413.81 C 241.36 413.98 232.91 413.28 224.70 411.31 C 224.92 400.76 222.59 390.30 218.78 380.51 C 216.94 375.80 215.10 370.97 211.87 367.01 C 207.82 362.01 203.17 356.96 196.83 355.01 C 201.58 361.98 207.06 368.59 210.57 376.34 C 214.18 384.53 216.81 393.16 218.19 402.00 C 218.75 408.31 218.64 415.40 214.43 420.55 C 211.84 423.40 207.70 423.23 204.25 422.44 C 203.42 417.61 205.01 412.63 203.37 407.90 L 201.68 407.25 C 200.69 411.58 200.20 416.02 199.29 420.37 C 196.18 422.58 191.94 421.48 188.37 421.40 C 188.12 416.61 189.95 412.02 189.88 407.28 L 189.00 405.86 C 186.28 409.90 185.02 414.67 183.86 419.33 C 181.18 419.46 178.49 419.55 175.81 419.66 C 174.95 418.52 173.32 417.70 173.30 416.12 C 173.09 410.12 174.74 404.29 175.66 398.41 C 176.81 391.50 178.49 384.71 180.08 377.90 L 180.35 377.71 C 180.55 377.56 180.97 377.27 181.18 377.12 C 181.75 371.48 184.44 366.43 186.05 361.07 C 187.31 357.46 188.67 353.21 192.37 351.41 C 197.65 350.34 202.44 353.65 206.59 356.47 C 219.71 364.92 231.26 376.79 236.81 391.59 C 237.21 391.63 238.01 391.70 238.41 391.74 Z" fill="#c2e3f7" opacity="1.00" stroke="#c2e3f7" stroke-width="0.25"/>
<path d="M 374.92 395.59 C 389.43 394.76 404.45 393.01 417.54 386.26 C 415.86 391.11 412.25 394.95 408.65 398.48 L 408.29 398.54 C 396.63 400.79 385.25 406.77 373.09 404.76 C 369.32 404.23 370.50 399.92 370.28 397.26 C 370.28 397.12 370.28 396.83 370.28 396.69 C 371.82 396.28 373.34 395.79 374.92 395.59 Z" fill="#fcffff" opacity="1.00" stroke="#fcffff" stroke-width="0.25"/>
<path d="M 357.15 412.38 C 360.95 406.91 364.57 400.94 370.28 397.26 C 370.50 399.92 369.32 404.23 373.09 404.76 C 385.25 406.77 396.63 400.79 408.29 398.54 C 399.23 408.28 386.04 413.40 372.94 414.38 C 367.64 414.69 361.94 415.11 357.15 412.38 Z" fill="#bfe1f6" opacity="1.00" stroke="#bfe1f6" stroke-width="0.25"/>
<path d="M 228.26 427.17 C 233.66 425.46 239.36 426.23 244.92 426.04 C 248.39 425.97 251.88 425.93 255.33 426.39 L 255.91 427.50 C 246.69 427.41 237.46 427.77 228.26 427.17 Z" fill="#011a31" opacity="1.00" stroke="#011a31" stroke-width="0.25"/>
</svg>