<?xml version="1.0" encoding="utf-8"?>
<svg xmlns="http://www.w3.org/2000/svg" height="512pt" version="1.1" viewBox="0 0 512 512" width="512pt">
<path d="M 0.00 0.00 L 512.00 0.00 L 512.00 512.00 L 0.00 512.00 L 0.00 0.00 Z" fill="transparent" opacity="1.00" stroke="transparent" stroke-width="0.25"/>
<path d="M 242.43 131.58 C 269.18 120.08 297.90 112.55 327.10 111.72 C 342.61 111.43 358.76 113.55 372.38 121.48 C 381.34 126.82 389.05 134.28 394.69 143.06 C 396.12 145.06 397.19 147.39 399.01 149.09 C 405.67 151.71 413.02 151.23 420.03 151.98 C 425.11 152.66 427.00 159.33 424.61 163.37 C 422.69 167.94 417.62 169.56 413.39 171.24 C 404.11 174.75 394.00 174.25 384.47 176.59 C 366.08 182.29 348.83 191.23 332.92 201.98 C 331.08 203.33 331.75 205.96 331.19 207.90 C 328.77 222.64 323.29 237.69 311.99 247.97 C 307.25 252.18 301.60 256.30 295.08 256.79 C 292.45 255.61 293.59 252.28 294.02 250.13 C 296.33 243.46 299.28 236.74 298.93 229.51 C 295.25 232.28 292.14 235.71 288.55 238.59 C 280.43 245.38 271.17 251.00 261.00 254.09 C 256.74 255.46 252.06 255.06 247.99 257.09 C 226.02 267.13 202.26 272.76 180.79 283.96 C 168.49 289.82 156.72 296.76 145.67 304.71 C 129.94 316.34 114.62 329.06 103.18 345.10 C 98.66 351.88 95.48 359.42 91.90 366.71 C 105.07 373.84 114.54 388.10 114.90 403.24 C 111.47 405.88 108.26 402.41 105.40 400.68 C 100.11 397.62 94.05 396.32 88.17 394.95 C 86.01 394.35 83.49 393.86 82.21 391.82 C 79.76 388.24 77.09 384.82 73.96 381.81 C 69.47 383.79 65.82 387.59 60.85 388.46 C 54.93 389.46 48.93 388.13 42.99 388.93 C 38.72 389.19 34.65 390.52 30.51 391.49 C 29.59 391.69 27.18 391.53 27.94 390.03 C 29.96 385.89 33.61 382.82 36.97 379.77 C 48.16 370.24 61.07 362.00 75.67 359.08 C 78.19 343.70 81.24 328.33 86.20 313.53 C 97.36 278.76 114.70 246.28 134.57 215.77 C 136.90 206.86 136.06 196.86 131.34 188.84 C 127.94 182.80 121.73 178.73 115.12 176.96 C 111.19 175.88 106.95 176.34 103.10 174.90 C 100.87 173.32 102.21 170.34 103.69 168.75 C 108.21 163.46 114.82 160.64 121.06 157.92 C 142.55 149.46 166.67 149.00 188.91 154.76 C 191.53 155.19 194.49 156.84 196.96 155.11 C 211.76 146.61 226.84 138.53 242.43 131.58 Z" fill="#467991" opacity="1.00" stroke="#467991" stroke-width="0.25"/>
<path d="M 261.12 126.52 C 283.52 118.62 307.19 113.80 330.99 113.73 C 345.49 113.85 360.49 116.42 372.89 124.33 C 379.98 128.60 385.93 134.50 390.89 141.07 C 393.21 144.14 394.79 147.74 397.39 150.60 C 404.16 153.82 411.94 153.09 419.21 153.91 C 422.57 154.30 424.04 157.84 423.82 160.87 C 414.45 160.44 405.31 164.00 395.93 162.53 C 383.71 161.92 372.26 155.76 359.87 157.16 C 345.45 158.58 330.86 164.14 320.90 174.99 C 321.11 181.40 320.63 187.92 317.88 193.82 C 313.05 207.68 304.61 219.97 294.49 230.49 C 284.65 240.20 273.02 248.64 259.52 252.28 C 254.34 253.59 248.77 254.81 243.54 253.02 C 244.80 248.28 249.79 246.26 252.63 242.62 C 264.32 230.91 270.95 215.52 279.91 201.86 C 281.57 199.14 283.96 196.85 285.11 193.84 C 283.52 192.37 282.62 194.77 281.69 195.63 C 279.34 198.97 277.18 202.45 274.81 205.78 C 257.44 207.52 240.48 212.42 224.54 219.49 C 206.18 227.57 187.61 236.75 173.72 251.60 C 168.43 257.61 163.48 264.19 160.88 271.85 C 160.42 273.94 158.18 274.60 156.60 275.64 C 136.29 287.65 119.92 304.96 104.18 322.27 C 93.58 332.54 88.16 346.80 84.77 360.88 C 87.53 362.39 87.90 365.49 88.78 368.19 C 95.37 369.72 100.08 374.88 104.18 379.93 C 109.22 386.34 112.40 394.17 113.06 402.32 C 108.63 401.11 105.36 397.54 100.94 396.27 C 95.84 394.15 90.15 393.91 85.13 391.67 C 81.18 387.92 78.83 382.43 73.96 379.66 C 67.92 381.94 63.00 387.59 55.99 386.88 C 47.44 385.99 38.85 386.94 30.58 389.25 C 36.34 382.09 43.80 376.50 51.46 371.51 C 59.33 366.24 68.26 362.76 77.41 360.48 C 80.52 342.53 83.99 324.49 90.41 307.38 C 99.50 280.85 112.29 255.72 126.84 231.81 C 132.25 222.67 138.38 213.98 144.70 205.46 C 145.65 204.15 146.56 202.72 146.58 201.03 C 142.39 203.75 140.44 208.54 137.20 212.18 C 138.62 205.67 137.42 198.89 135.43 192.64 C 132.03 182.78 122.48 175.49 112.16 174.37 C 109.30 174.00 106.43 173.73 103.60 173.15 C 105.60 167.88 110.98 165.10 115.67 162.60 C 134.19 153.45 155.68 151.17 175.97 154.25 C 182.40 154.93 188.51 157.29 194.90 158.18 C 199.14 156.68 202.75 153.85 206.75 151.81 C 224.33 142.29 242.11 132.89 261.12 126.52 Z" fill="#5fd9fd" opacity="1.00" stroke="#5fd9fd" stroke-width="0.25"/>
<path d="M 348.42 142.43 C 352.22 139.25 358.40 143.24 357.24 148.02 C 357.68 151.76 353.64 154.10 350.35 152.96 C 345.79 151.93 344.80 145.06 348.42 142.43 Z" fill="#467991" opacity="1.00" stroke="#467991" stroke-width="0.25"/>
<path d="M 351.59 160.45 C 360.25 158.40 369.36 158.73 377.90 161.16 C 386.70 163.72 395.86 165.14 405.03 164.67 C 410.90 164.33 416.66 162.56 422.58 163.13 C 419.59 167.48 414.18 168.93 409.41 170.40 C 401.04 172.88 392.14 172.45 383.74 174.73 C 364.03 180.91 345.47 190.56 328.76 202.66 C 321.19 209.05 313.24 214.95 305.36 220.94 C 310.72 214.34 314.79 206.76 318.13 198.97 C 320.30 193.19 322.92 187.33 322.73 181.02 C 322.98 179.01 322.10 176.44 323.92 174.96 C 331.17 167.15 341.41 162.89 351.59 160.45 Z" fill="#ffffff" opacity="1.00" stroke="#ffffff" stroke-width="0.25"/>
<path d="M 300.42 227.53 C 309.90 219.76 319.97 212.73 329.31 204.79 C 328.90 213.45 326.02 221.77 322.65 229.68 C 317.45 240.99 308.25 251.35 295.99 254.95 C 294.42 253.63 295.74 251.57 296.07 249.98 C 298.65 242.83 302.37 235.31 300.42 227.53 Z" fill="#5fd9fd" opacity="1.00" stroke="#5fd9fd" stroke-width="0.25"/>
<path d="M 199.42 234.17 C 222.51 221.46 247.32 210.69 273.78 207.92 C 266.70 219.86 260.36 232.53 250.20 242.25 C 247.54 245.66 242.63 247.55 241.62 252.03 C 241.12 254.70 244.04 255.19 245.92 255.80 C 230.11 263.11 213.31 267.89 197.14 274.30 C 178.91 282.09 161.10 291.14 145.02 302.82 C 128.08 315.24 111.58 329.05 99.82 346.68 C 96.18 352.69 93.47 359.22 90.31 365.49 C 89.54 363.26 88.98 360.83 87.11 359.22 C 90.81 345.81 96.30 332.27 106.67 322.59 C 123.08 304.66 140.19 286.53 161.96 275.08 C 167.82 256.75 183.30 243.57 199.42 234.17 Z" fill="#ffffff" opacity="1.00" stroke="#ffffff" stroke-width="0.25"/>
</svg>