<?xml version="1.0" encoding="utf-8"?>
<svg xmlns="http://www.w3.org/2000/svg" height="512pt" version="1.1" viewBox="0 0 512 512" width="512pt">
<path d="M 0.00 0.00 L 512.00 0.00 L 512.00 512.00 L 0.00 512.00 L 0.00 0.00 Z" fill="transparent" opacity="1.00" stroke="transparent" stroke-width="0.25"/>
<path d="M 199.95 77.87 C 207.28 76.03 214.57 73.99 221.96 72.43 C 223.95 84.60 226.92 97.32 235.02 106.99 C 239.46 112.42 246.83 116.25 253.90 114.08 C 261.94 111.31 266.99 103.76 270.50 96.43 C 273.80 89.07 275.43 81.10 276.83 73.21 C 284.20 74.73 291.34 77.19 298.65 78.96 C 296.59 86.18 294.72 93.49 293.87 100.98 C 292.92 111.42 292.90 122.07 290.09 132.25 C 286.34 146.38 280.04 159.69 276.66 173.93 C 294.14 196.02 307.89 220.83 319.50 246.43 C 330.27 270.44 339.51 295.10 348.05 319.98 C 357.95 348.56 367.15 377.41 374.46 406.77 C 370.38 410.07 366.52 413.88 361.39 415.50 C 347.69 421.75 332.76 428.37 317.36 425.42 C 313.88 424.58 310.67 426.45 307.46 427.44 C 293.32 432.41 277.90 435.28 263.04 431.96 C 258.26 431.39 253.48 428.72 248.69 430.60 C 231.88 435.40 213.51 433.72 197.77 426.18 C 194.68 424.30 191.12 425.66 187.80 425.89 C 172.77 427.86 157.24 425.07 143.71 418.26 C 137.17 415.69 130.99 412.40 125.19 408.45 C 130.63 383.33 138.50 358.80 146.37 334.35 C 158.23 299.24 170.57 264.17 186.84 230.82 C 196.67 211.30 207.51 192.18 220.95 174.90 C 221.84 174.00 222.05 172.74 221.65 171.57 C 217.99 157.37 211.87 143.94 208.21 129.75 C 205.05 117.30 206.17 104.27 203.52 91.74 C 202.60 87.05 201.12 82.50 199.95 77.87 Z" fill="#073c64" opacity="1.00" stroke="#073c64" stroke-width="0.25"/>
<path d="M 222.13 176.10 C 223.47 173.55 226.39 175.08 228.45 175.57 C 191.14 249.40 170.50 330.26 155.19 411.15 C 154.64 414.29 154.06 417.42 153.26 420.51 C 144.29 416.69 135.08 413.21 126.99 407.67 C 133.52 379.79 142.04 352.42 151.21 325.31 C 158.52 303.96 166.05 282.67 174.77 261.85 C 187.28 231.65 202.23 202.15 222.13 176.10 Z" fill="#acedff" opacity="1.00" stroke="#acedff" stroke-width="0.25"/>
<path d="M 270.07 175.60 C 272.18 175.70 275.15 174.22 276.51 176.52 C 302.94 210.21 320.22 249.87 335.39 289.60 C 349.39 327.84 362.57 366.46 372.45 405.99 C 369.79 408.52 367.03 411.06 363.64 412.57 C 357.83 415.25 352.01 417.96 345.97 420.07 C 336.53 369.98 325.24 320.11 309.26 271.66 C 300.64 245.51 291.12 219.59 279.23 194.73 C 276.50 188.20 272.92 182.08 270.07 175.60 Z" fill="#acedff" opacity="1.00" stroke="#acedff" stroke-width="0.25"/>
<path d="M 220.95 194.98 C 224.01 188.39 226.95 181.71 230.76 175.52 C 243.24 177.46 255.90 176.91 268.46 176.18 C 304.44 247.05 325.32 324.45 340.72 402.11 C 341.99 408.36 343.45 414.59 344.29 420.93 C 336.74 423.06 328.92 425.35 321.00 424.16 C 318.28 423.95 315.46 422.81 312.79 423.85 C 300.96 428.08 288.66 431.84 275.98 431.69 C 268.76 431.66 261.70 430.00 254.71 428.39 C 251.03 427.52 247.50 429.34 243.93 429.95 C 229.19 433.41 213.49 431.36 199.74 425.20 C 197.73 424.43 195.73 423.00 193.47 423.53 C 180.80 425.53 167.54 425.39 155.31 421.14 C 164.66 368.22 176.63 315.65 193.54 264.61 C 201.60 241.00 210.27 217.55 220.95 194.98 Z" fill="#acedff" opacity="1.00" stroke="#acedff" stroke-width="0.25"/>
</svg>