<svg xmlns="http://www.w3.org/2000/svg" height="512pt" version="1.1" viewBox="0 0 512 512" width="512pt"><defs>
                <linearGradient id="grad-23" gradientTransform="rotate(45 0.5 0.5)">
                
                        <stop stop-color="#9ad9fb" offset="0"></stop>
                    ,
                        <stop stop-color="#7928ca" offset="0.5"></stop>
                    
                </linearGradient>
          </defs>
<path d="M 0.00 0.00 L 512.00 0.00 L 512.00 512.00 L 0.00 512.00 L 0.00 0.00 Z" fill="transparent" opacity="1.00" stroke="transparent" stroke-width="0.25" data-index="0" style="opacity: 1;"></path>
<path d="M 139.46 125.72 C 159.30 124.15 180.01 125.89 198.06 134.85 C 214.47 142.89 227.93 157.94 231.80 176.07 C 235.18 192.26 233.26 210.15 224.08 224.20 C 218.56 233.43 209.87 240.10 200.97 245.87 C 215.43 253.73 228.69 265.12 235.45 280.44 C 241.95 294.21 242.82 310.15 240.19 324.98 C 236.17 345.63 222.23 363.80 203.97 374.02 C 184.97 384.71 162.51 387.73 141.01 386.17 C 121.87 384.68 102.50 378.89 87.47 366.59 C 74.40 355.61 65.42 339.62 63.59 322.60 C 61.39 306.58 63.98 289.48 72.79 275.72 C 79.99 264.17 91.06 255.64 102.81 249.09 C 90.38 242.18 80.52 230.89 75.62 217.52 C 71.16 206.60 70.70 194.57 71.44 182.95 C 72.91 165.24 83.20 148.60 98.15 139.07 C 110.47 131.12 124.98 127.21 139.46 125.72 Z" fill="#9ad9fb" opacity="1.00" stroke="#9ad9fb" stroke-width="0.25" data-index="1" style="opacity: 1;"></path>
<path d="M 339.45 125.90 C 360.69 122.19 383.69 125.22 402.02 137.03 C 418.96 148.41 429.23 167.10 435.88 185.92 C 441.52 202.97 443.87 220.93 444.68 238.82 C 445.70 249.48 445.64 260.24 444.70 270.90 C 443.76 291.87 441.01 313.16 432.68 332.61 C 425.74 349.20 415.52 365.18 400.26 375.23 C 384.18 386.00 363.96 388.76 345.01 387.03 C 328.47 385.76 311.91 379.66 299.72 368.18 C 288.69 357.88 280.92 344.54 275.41 330.61 C 264.96 304.08 263.47 275.18 263.62 246.98 C 264.05 220.74 267.85 193.81 280.29 170.36 C 292.17 147.88 313.86 129.74 339.45 125.90 Z" fill="#9ad9fb" opacity="1.00" stroke="#9ad9fb" stroke-width="0.25" data-index="2" style="opacity: 1; display: block; visibility: visible;"></path>

<path d="M 305.89 168.93 C 312.13 160.72 317.23 151.65 323.97 143.83 C 314.47 159.19 303.73 173.76 294.03 189.00 C 288.55 196.88 284.09 205.45 278.17 213.02 C 278.56 210.73 279.24 208.46 280.63 206.55 C 288.99 193.97 297.38 181.41 305.89 168.93 Z" fill="#ffffff" opacity="1.00" stroke="#ffffff" stroke-width="0.25" data-index="4" style="opacity: 1; visibility: hidden;"></path>

<path d="M 105.86 166.74 C 108.58 162.15 110.34 157.04 113.36 152.61 C 113.17 154.44 112.78 156.26 111.89 157.89 C 108.36 164.86 104.71 171.84 99.94 178.06 C 101.42 174.04 103.69 170.41 105.86 166.74 Z" fill="#ffffff" opacity="1.00" stroke="#ffffff" stroke-width="0.25" data-index="6" style="opacity: 1; visibility: hidden;"></path>
<path d="M 143.28 164.31 C 151.45 162.59 160.50 162.86 167.94 167.04 C 173.43 170.14 177.80 175.30 179.66 181.36 C 185.90 199.34 176.39 221.15 158.88 228.70 C 155.87 228.23 153.13 226.81 150.31 225.73 C 143.30 222.83 135.69 220.36 130.42 214.59 C 119.97 203.04 119.74 183.73 130.11 172.05 C 133.60 168.23 138.38 165.80 143.28 164.31 Z" fill="#ffffff" opacity="1.00" stroke="#ffffff" stroke-width="0.25" data-index="7" style="opacity: 1; visibility: visible;"></path>
<path d="M 349.46 166.64 C 355.54 165.58 362.23 165.97 367.44 169.60 C 372.66 173.47 376.74 178.82 379.20 184.84 C 385.01 198.45 386.21 213.41 387.47 227.99 C 387.85 242.00 389.01 256.03 387.80 270.03 C 387.27 286.10 386.06 302.31 381.92 317.91 C 379.07 327.13 375.30 337.33 366.44 342.37 C 358.70 347.18 348.29 346.39 340.99 341.12 C 334.08 336.21 330.41 328.10 327.79 320.29 C 322.29 302.05 321.55 282.87 320.71 263.97 C 320.80 255.32 320.39 246.66 321.23 238.04 C 321.48 226.20 322.55 214.35 324.82 202.73 C 327.12 192.61 330.28 182.19 337.28 174.26 C 340.59 170.76 344.62 167.56 349.46 166.64 Z" fill="#ffffff" opacity="1.00" stroke="#ffffff" stroke-width="0.25" data-index="8" style="opacity: 1; visibility: visible;"></path>

<path d="M 209.51 231.42 C 211.16 224.49 213.93 217.89 216.97 211.47 C 216.71 218.74 213.00 225.25 209.51 231.42 Z" fill="#ffffff" opacity="1.00" stroke="#ffffff" stroke-width="0.25" data-index="10" style="opacity: 1; visibility: hidden;"></path>

<path d="M 274.15 245.08 C 274.94 240.87 277.14 237.14 279.73 233.80 C 278.49 237.83 276.69 241.70 274.15 245.08 Z" fill="#ffffff" opacity="1.00" stroke="#ffffff" stroke-width="0.25" data-index="12" style="opacity: 1; visibility: hidden;"></path>

<path d="M 141.21 269.07 C 143.40 267.45 145.90 269.37 148.11 270.02 C 159.61 275.07 172.01 279.90 180.31 289.76 C 186.72 297.19 189.09 307.44 187.93 317.06 C 187.13 325.65 183.81 334.45 177.06 340.13 C 168.97 347.29 157.51 349.43 147.01 348.20 C 137.01 346.96 126.71 342.13 121.74 332.95 C 116.79 324.59 116.86 314.55 117.56 305.17 C 119.58 290.42 128.49 276.81 141.21 269.07 Z" fill="#ffffff" opacity="1.00" stroke="#ffffff" stroke-width="0.25" data-index="14" style="opacity: 1; visibility: visible;"></path>

<path d="M 237.12 298.75 C 237.54 303.66 233.93 307.73 232.13 312.04 C 232.87 312.05 234.34 312.05 235.08 312.05 C 233.57 317.77 230.72 322.98 228.37 328.37 C 224.53 336.27 221.07 344.35 217.15 352.22 C 216.65 352.41 215.63 352.80 215.13 352.99 C 216.34 348.05 218.85 343.63 221.09 339.11 C 224.81 330.62 229.02 322.35 233.42 314.20 C 232.91 313.60 232.40 313.01 231.88 312.44 C 229.74 317.94 227.54 323.50 224.22 328.42 C 225.34 322.95 227.84 317.93 230.04 312.84 C 232.27 308.08 234.19 303.14 237.12 298.75 Z" fill="#ffffff" opacity="1.00" stroke="#ffffff" stroke-width="0.25" data-index="16" style="opacity: 1; visibility: hidden;"></path>

<path d="M 403.09 315.90 C 403.45 315.72 404.16 315.35 404.52 315.17 C 400.43 325.07 396.26 334.95 391.79 344.69 C 390.25 347.70 390.87 351.33 389.17 354.28 C 386.92 358.33 384.26 362.15 381.51 365.87 C 385.04 354.54 390.73 344.08 395.35 333.19 C 397.89 327.41 400.86 321.81 403.09 315.90 Z" fill="#ffffff" opacity="1.00" stroke="#ffffff" stroke-width="0.25" data-index="18" style="opacity: 1; visibility: hidden;"></path>

<path d="M 375.83 345.77 C 381.79 338.75 387.19 331.21 393.69 324.67 C 393.01 325.70 392.68 326.91 391.93 327.89 C 387.00 334.22 382.19 340.78 375.83 345.77 Z" fill="#ffffff" opacity="1.00" stroke="#ffffff" stroke-width="0.25" data-index="20" style="opacity: 1; visibility: hidden;"></path>

<path d="M 325.48 366.22 C 327.53 362.61 329.05 358.65 331.90 355.57 C 330.50 361.72 326.51 366.88 323.39 372.25 C 323.77 370.14 324.39 368.07 325.48 366.22 Z" fill="#ffffff" opacity="1.00" stroke="#ffffff" stroke-width="0.25" data-index="22" style="opacity: 1; visibility: hidden;"></path>
<path d="M339.45,125.9c21.24,-3.71 44.24,-0.68 62.57,11.13c16.94,11.38 27.21,30.07 33.86,48.89c5.64,17.05 7.99,35.01 8.8,52.9c1.02,10.66 0.96,21.42 0.02,32.08c-0.94,20.97 -3.69,42.26 -12.02,61.71c-6.94,16.59 -17.16,32.57 -32.42,42.62c-16.08,10.77 -36.3,13.53 -55.25,11.8c-16.54,-1.27 -33.1,-7.37 -45.29,-18.85c-11.03,-10.3 -18.8,-23.64 -24.31,-37.57c-10.45,-26.53 -11.94,-55.43 -11.79,-83.63c0.43,-26.24 4.23,-53.17 16.67,-76.62c11.88,-22.48 33.57,-40.62 59.16,-44.46z" id="path-2 1" fill="url(#grad-23)" fill-rule="nonzero" stroke="url(#grad-23)" stroke-width="0.25" stroke-linecap="butt" stroke-linejoin="miter" stroke-miterlimit="10" stroke-dasharray="" stroke-dashoffset="0" font-family="none" font-weight="none" font-size="none" text-anchor="none" style="mix-blend-mode: normal; opacity: 1; display: none;" data-index="23"></path></svg>