<?xml version="1.0" encoding="utf-8"?>
<svg xmlns="http://www.w3.org/2000/svg" height="512pt" version="1.1" viewBox="0 0 512 512" width="512pt">
<path d="M 0.00 0.00 L 512.00 0.00 L 512.00 512.00 L 0.00 512.00 L 0.00 0.00 Z" fill="transparent" opacity="1.00" stroke="transparent" stroke-width="0.25"/>
<path d="M 402.00 75.01 C 404.62 64.75 414.22 56.56 424.92 56.24 C 431.95 56.04 439.48 57.45 445.24 61.69 C 451.38 66.28 451.52 77.89 443.71 80.79 C 438.18 83.25 433.36 77.87 427.83 78.42 C 427.01 79.02 426.19 79.62 425.37 80.21 C 423.68 93.29 428.94 106.02 434.62 117.51 C 442.51 130.68 448.25 145.49 448.81 160.98 C 450.48 183.48 441.78 207.25 423.85 221.45 C 430.80 220.84 437.31 218.19 444.08 216.78 C 445.64 216.32 447.12 217.26 448.60 217.60 C 448.08 219.52 447.54 221.56 446.00 222.94 C 437.93 230.96 427.05 235.59 416.09 238.10 C 417.35 239.56 418.53 241.11 418.83 243.08 C 413.91 246.62 407.75 247.34 401.97 248.43 C 396.18 249.47 390.31 249.77 384.46 250.27 C 384.61 254.20 384.80 258.38 382.88 261.95 C 381.29 265.18 377.29 266.45 373.92 266.07 C 367.57 264.99 362.14 261.04 357.71 256.55 C 351.00 257.43 344.24 257.83 337.48 257.52 C 334.77 306.05 331.29 354.52 327.89 403.00 C 326.87 412.07 327.77 421.26 326.52 430.29 C 319.37 433.14 311.52 432.58 304.02 432.02 C 300.25 431.56 296.67 433.03 293.00 433.57 C 282.21 435.26 271.25 435.82 260.36 435.05 C 252.31 434.44 243.83 434.45 236.55 430.50 C 236.72 421.08 236.36 411.67 236.39 402.25 C 236.23 382.87 236.30 363.50 236.28 344.13 C 229.80 344.60 223.30 344.96 216.80 344.59 C 218.31 363.92 219.99 383.23 221.52 402.55 C 221.63 410.81 224.03 419.10 222.65 427.32 C 209.96 430.98 196.56 430.56 183.51 429.84 C 181.12 431.91 178.09 432.92 174.96 433.18 C 157.98 435.21 140.78 434.64 123.79 433.07 C 119.74 432.54 115.53 432.48 111.70 430.92 C 109.90 423.93 110.73 416.58 109.86 409.46 C 108.72 388.27 106.62 367.14 103.91 346.10 C 101.12 325.60 97.55 305.20 95.53 284.60 C 90.39 297.03 81.52 308.40 69.21 314.32 C 62.20 317.35 53.77 317.85 47.29 313.27 C 46.57 313.59 45.85 313.93 45.15 314.30 C 41.32 315.99 36.86 317.42 32.96 315.05 C 29.14 312.56 25.09 309.47 23.62 304.96 C 26.67 304.69 29.73 304.54 32.79 304.37 C 29.46 301.62 25.89 298.67 24.46 294.43 C 22.70 289.18 22.47 283.56 22.63 278.07 C 22.75 275.14 22.78 272.07 24.14 269.40 C 26.57 271.16 27.76 274.06 29.84 276.17 C 33.09 280.04 38.03 282.01 41.14 286.01 C 43.44 288.74 43.72 292.45 44.43 295.80 C 47.47 292.00 52.17 290.47 56.47 288.61 C 56.88 293.83 56.74 299.19 55.12 304.20 C 54.14 307.20 51.71 309.33 49.65 311.58 C 55.89 314.14 63.27 313.75 68.88 309.86 C 76.39 304.36 81.31 296.11 84.83 287.65 C 90.22 275.32 90.10 261.57 93.81 248.78 C 97.80 235.65 101.58 222.29 108.26 210.21 C 116.94 194.86 129.50 181.74 144.39 172.30 C 161.19 161.79 180.42 155.22 200.12 153.13 C 208.27 152.15 216.50 152.45 224.69 152.38 C 231.28 139.79 241.76 129.13 254.47 122.72 C 266.33 116.73 281.34 116.15 292.96 123.00 C 295.90 124.63 298.35 126.98 301.19 128.77 C 306.73 128.17 312.39 126.94 317.91 128.51 C 322.61 129.39 326.75 131.87 330.80 134.27 C 335.74 128.80 340.91 123.30 347.44 119.71 C 358.19 113.81 371.94 113.15 382.88 118.92 C 391.16 123.27 397.86 130.34 402.28 138.53 C 406.74 146.69 410.19 155.60 411.22 164.89 C 413.57 157.86 413.85 150.34 413.23 143.02 C 411.66 128.77 408.16 114.81 404.09 101.09 C 401.50 92.71 400.03 83.68 402.00 75.01 Z" fill="#043056" opacity="1.00" stroke="#043056" stroke-width="0.25"/>
<path d="M 405.11 76.94 C 406.61 68.98 413.00 62.34 420.89 60.53 C 425.61 59.62 430.51 60.05 435.11 61.39 C 432.79 65.72 431.09 70.47 431.42 75.45 C 428.70 75.62 425.48 75.21 423.44 77.42 C 419.80 80.97 420.91 86.62 421.46 91.13 C 423.06 99.65 425.23 108.20 429.38 115.88 C 432.84 122.67 436.62 129.33 439.61 136.36 C 446.79 155.54 447.00 177.65 438.51 196.46 C 430.21 214.89 411.78 227.54 392.18 231.14 C 380.42 233.24 368.61 230.23 357.10 228.05 C 352.55 227.28 347.68 225.43 343.16 227.17 C 339.47 228.60 338.30 233.44 340.21 236.72 C 342.14 240.17 345.87 241.95 349.10 243.94 C 350.49 246.85 352.16 249.62 353.98 252.28 C 340.28 253.03 326.11 252.94 313.10 248.04 C 306.19 245.68 300.04 241.62 294.42 237.03 C 300.13 227.91 302.78 217.10 302.91 206.40 C 302.32 206.37 301.13 206.31 300.54 206.28 C 298.31 216.02 297.44 226.83 290.71 234.76 C 285.91 240.36 279.55 245.45 271.91 246.02 C 261.92 246.42 251.14 245.42 242.92 239.14 C 234.50 232.49 228.91 222.86 225.31 212.88 C 221.50 200.98 219.32 188.31 220.83 175.82 C 223.29 160.49 230.63 145.74 242.22 135.28 C 250.24 128.15 260.15 122.58 271.02 121.72 C 278.14 121.40 285.45 122.76 291.68 126.34 C 296.58 128.81 300.17 133.07 303.87 137.00 C 304.85 138.22 306.16 138.77 307.80 138.66 C 306.77 136.51 305.62 134.44 304.40 132.40 C 312.69 130.67 321.39 132.94 328.24 137.78 C 344.86 149.49 356.21 168.10 375.45 176.14 C 373.81 180.66 370.45 184.77 370.68 189.79 C 371.30 189.65 372.54 189.37 373.16 189.23 C 375.00 185.25 376.91 181.28 378.63 177.24 C 380.23 177.76 381.83 178.29 383.44 178.80 C 382.88 183.77 381.97 188.70 381.55 193.68 C 382.20 193.54 383.51 193.26 384.17 193.12 C 385.90 188.80 386.27 184.06 386.80 179.47 C 389.21 179.76 391.63 180.05 394.06 180.33 C 393.79 184.87 392.64 189.37 392.83 193.93 C 393.47 194.15 394.75 194.58 395.39 194.79 C 396.66 189.91 397.20 184.88 397.58 179.87 C 406.92 177.92 414.89 170.46 416.60 160.94 C 419.58 144.17 415.05 127.28 410.79 111.13 C 407.85 99.99 402.72 88.69 405.11 76.94 Z" fill="#8de7ff" opacity="1.00" stroke="#8de7ff" stroke-width="0.25"/>
<path d="M 438.91 63.20 C 444.20 63.69 447.24 69.35 446.55 74.27 C 445.43 75.39 444.32 76.51 443.22 77.64 C 440.70 77.54 437.47 77.49 436.31 74.77 C 434.13 70.77 437.08 66.67 438.91 63.20 Z" fill="#f78b78" opacity="1.00" stroke="#f78b78" stroke-width="0.25"/>
<path d="M 334.03 136.56 C 342.26 126.10 355.37 118.55 368.99 119.82 C 377.01 120.29 384.07 124.90 389.71 130.35 C 399.90 139.85 405.52 153.42 407.76 166.96 C 408.97 170.87 404.61 172.44 401.84 173.70 C 393.01 176.75 383.28 174.73 374.93 171.15 C 358.15 163.80 347.95 147.72 334.03 136.56 Z" fill="#7cd9f8" opacity="1.00" stroke="#7cd9f8" stroke-width="0.25"/>
<path d="M 253.76 138.72 C 260.52 134.23 269.49 132.03 277.07 135.79 C 286.81 140.81 292.21 151.95 292.42 162.62 C 291.46 162.66 290.50 162.72 289.54 162.79 C 288.48 155.86 286.81 148.46 281.47 143.49 C 277.11 138.79 270.30 136.25 264.00 138.01 C 259.47 138.77 255.90 142.12 251.37 142.75 C 251.43 141.00 252.16 139.46 253.76 138.72 Z" fill="#003053" opacity="1.00" stroke="#003053" stroke-width="0.25"/>
<path d="M 175.61 164.70 C 190.48 160.35 206.08 158.45 221.55 159.41 C 214.29 174.95 215.52 192.92 220.03 209.05 C 224.14 221.23 230.11 233.53 240.50 241.57 C 247.97 247.48 257.59 249.78 266.94 250.20 C 276.09 250.58 285.23 246.68 291.33 239.85 C 302.32 249.37 316.23 255.00 330.57 256.91 C 327.97 277.37 318.32 296.78 303.90 311.47 C 303.91 303.12 305.01 294.62 303.28 286.39 C 302.64 286.75 301.37 287.46 300.73 287.82 C 298.87 334.26 297.83 380.72 296.48 427.17 C 295.74 424.84 295.44 422.16 293.63 420.36 C 292.19 418.76 290.05 418.23 288.13 417.46 C 285.53 418.55 282.72 419.91 281.67 422.75 C 280.30 424.86 280.51 428.85 277.11 428.57 C 276.49 424.70 274.77 419.09 269.93 419.27 C 265.03 419.14 262.90 424.51 262.05 428.51 C 260.46 428.49 258.87 428.52 257.29 428.38 C 256.29 424.54 255.25 419.71 250.96 418.27 C 246.53 416.27 242.36 420.41 241.33 424.48 C 240.58 387.98 240.81 351.46 239.56 314.97 C 239.19 312.43 240.19 308.49 236.55 307.98 C 236.18 309.63 235.75 311.29 235.75 313.00 C 235.65 321.80 236.20 330.59 236.22 339.38 C 221.24 341.36 206.07 340.73 191.05 339.52 C 191.52 330.06 192.66 320.64 193.38 311.19 C 192.13 311.39 189.67 311.02 189.82 313.00 C 186.21 349.45 183.13 385.96 180.11 422.46 C 179.21 420.29 178.29 418.15 177.27 416.04 C 171.09 416.79 170.08 423.57 168.86 428.48 C 167.84 425.03 166.09 421.84 163.36 419.47 C 162.31 419.41 161.26 419.35 160.21 419.30 C 158.13 421.96 156.77 425.06 156.17 428.38 C 154.78 428.37 153.40 428.36 152.02 428.36 C 151.31 424.63 150.23 420.03 146.20 418.61 C 141.25 417.89 138.67 423.52 137.96 427.57 C 137.59 427.65 136.85 427.80 136.49 427.88 C 136.18 424.45 135.15 420.73 132.18 418.66 C 130.83 418.29 129.43 418.21 128.06 418.03 C 125.96 420.70 124.28 423.67 123.00 426.82 C 120.24 426.74 117.47 426.51 114.75 426.05 C 114.79 413.66 113.45 401.34 112.58 388.99 C 110.75 365.30 108.10 341.68 104.82 318.15 C 102.89 301.73 99.58 285.48 98.48 268.97 C 97.80 245.79 104.19 221.94 118.35 203.36 C 132.21 184.35 153.18 171.20 175.61 164.70 Z" fill="#8de7ff" opacity="1.00" stroke="#8de7ff" stroke-width="0.25"/>
<path d="M 325.47 167.57 C 329.68 161.76 338.38 161.28 344.19 164.85 C 345.11 165.89 344.64 168.02 343.01 167.42 C 338.77 166.00 334.09 165.38 330.04 167.72 C 328.70 170.22 327.28 172.90 324.41 173.90 C 324.36 171.78 323.69 169.20 325.47 167.57 Z" fill="#002c51" opacity="1.00" stroke="#002c51" stroke-width="0.25"/>
<path d="M 338.50 177.75 C 340.71 176.87 343.29 176.24 345.52 177.42 C 351.11 179.71 351.24 189.15 345.70 191.60 C 342.36 193.33 337.84 192.34 335.96 188.98 C 333.38 185.37 334.47 179.78 338.50 177.75 Z" fill="#022f56" opacity="1.00" stroke="#022f56" stroke-width="0.25"/>
<path d="M 420.03 225.68 C 427.90 224.98 435.42 222.45 443.04 220.51 C 435.42 228.57 424.57 232.05 414.20 235.00 C 409.47 236.98 404.39 235.26 399.65 234.30 C 402.20 232.35 405.62 232.00 408.46 230.53 C 412.35 228.98 415.65 225.79 420.03 225.68 Z" fill="#fbfefd" opacity="1.00" stroke="#fbfefd" stroke-width="0.25"/>
<path d="M 251.23 233.78 C 248.60 232.20 245.11 229.73 246.53 226.19 C 249.68 228.68 252.67 232.08 256.99 232.27 C 263.98 232.69 270.27 229.14 276.81 227.27 C 276.99 231.05 272.91 231.98 270.18 233.20 C 264.22 235.35 257.08 237.22 251.23 233.78 Z" fill="#002f53" opacity="1.00" stroke="#002f53" stroke-width="0.25"/>
<path d="M 343.40 231.26 C 344.08 229.42 346.53 230.20 348.04 230.11 C 360.67 232.09 373.10 236.25 386.02 235.86 C 389.78 235.88 393.46 236.72 397.17 237.26 C 403.02 238.14 409.09 238.90 414.29 241.96 C 402.35 246.05 389.56 246.56 377.05 246.14 C 366.99 245.49 356.60 244.18 347.59 239.36 C 344.62 238.02 341.51 234.64 343.40 231.26 Z" fill="#feffff" opacity="1.00" stroke="#feffff" stroke-width="0.25"/>
<path d="M 354.10 246.17 C 360.04 247.39 365.90 249.20 372.00 249.52 C 375.04 249.69 378.07 250.08 381.07 250.68 L 381.02 251.01 C 380.62 254.50 380.36 258.02 379.34 261.40 C 375.88 262.73 372.16 262.14 369.10 260.12 C 363.11 256.68 358.16 251.71 354.10 246.17 Z" fill="#fc8a75" opacity="1.00" stroke="#fc8a75" stroke-width="0.25"/>
<path d="M 381.07 250.68 L 381.74 249.29 C 382.74 252.64 382.30 256.13 381.51 259.47 C 381.16 256.67 380.73 253.84 381.02 251.01 L 381.07 250.68 Z" fill="#232338" opacity="1.00" stroke="#232338" stroke-width="0.25"/>
<path d="M 216.80 344.59 C 223.30 344.96 229.80 344.60 236.28 344.13 C 236.30 363.50 236.23 382.87 236.39 402.25 C 231.43 402.21 226.47 402.31 221.52 402.55 C 219.99 383.23 218.31 363.92 216.80 344.59 Z" fill="#ffffff" opacity="1.00" stroke="#ffffff" stroke-width="0.25"/>
<path d="M 221.52 402.55 C 226.47 402.31 231.43 402.21 236.39 402.25 C 236.36 411.67 236.72 421.08 236.55 430.50 C 243.83 434.45 252.31 434.44 260.36 435.05 C 271.25 435.82 282.21 435.26 293.00 433.57 C 296.67 433.03 300.25 431.56 304.02 432.02 C 311.52 432.58 319.37 433.14 326.52 430.29 C 327.77 421.26 326.87 412.07 327.89 403.00 C 328.36 404.62 327.96 407.42 330.39 407.36 C 344.56 408.55 358.64 410.70 372.59 413.43 C 380.70 415.30 389.13 417.10 396.09 421.89 C 397.82 423.15 399.99 424.98 399.43 427.39 C 399.05 430.07 396.47 431.41 394.36 432.59 C 386.52 436.70 377.90 439.22 369.17 440.55 C 340.46 446.25 311.18 448.30 281.98 449.52 C 266.34 450.73 250.63 450.20 234.96 450.72 C 208.96 450.63 182.94 450.36 156.98 448.63 C 131.55 447.36 106.16 444.59 81.15 439.75 C 73.10 437.78 64.64 436.08 57.72 431.23 C 55.59 429.80 53.54 426.89 55.24 424.38 C 58.06 420.46 63.00 418.98 67.28 417.21 C 78.88 413.42 90.97 411.36 103.03 409.73 C 105.30 409.45 107.58 409.46 109.86 409.46 C 110.73 416.58 109.90 423.93 111.70 430.92 C 115.53 432.48 119.74 432.54 123.79 433.07 C 140.78 434.64 157.98 435.21 174.96 433.18 C 178.09 432.92 181.12 431.91 183.51 429.84 C 196.56 430.56 209.96 430.98 222.65 427.32 C 224.03 419.10 221.63 410.81 221.52 402.55 Z" fill="#deebf3" opacity="1.00" stroke="#deebf3" stroke-width="0.25"/>
<path d="M 196.72 417.61 C 197.58 417.58 198.44 417.55 199.31 417.53 C 200.16 419.23 200.99 420.93 201.82 422.65 C 199.56 422.91 197.30 423.17 195.04 423.41 C 195.44 421.43 196.02 419.50 196.72 417.61 Z" fill="#f99a86" opacity="1.00" stroke="#f99a86" stroke-width="0.25"/>
<path d="M 208.41 416.94 C 209.35 417.23 210.28 417.53 211.23 417.83 C 211.45 419.49 211.65 421.15 211.85 422.83 C 210.18 422.98 208.51 423.12 206.85 423.25 C 207.31 421.13 207.83 419.02 208.41 416.94 Z" fill="#e99e92" opacity="1.00" stroke="#e99e92" stroke-width="0.25"/>
<path d="M 184.81 419.48 C 185.18 419.40 185.93 419.23 186.30 419.15 C 186.76 420.67 187.23 422.21 187.69 423.74 C 186.48 423.64 185.28 423.54 184.08 423.45 C 184.32 422.12 184.56 420.80 184.81 419.48 Z" fill="#d7aeaf" opacity="1.00" stroke="#d7aeaf" stroke-width="0.25"/>
<path d="M 171.94 427.62 C 172.71 425.04 173.85 422.59 175.31 420.32 C 176.84 422.50 177.74 425.00 178.16 427.61 C 176.09 427.64 174.01 427.65 171.94 427.62 Z" fill="#e99280" opacity="1.00" stroke="#e99280" stroke-width="0.25"/>
<path d="M 242.75 427.45 C 243.86 424.79 245.21 420.88 248.79 421.23 C 252.38 421.40 253.23 425.59 253.91 428.39 C 250.18 428.18 246.47 427.79 242.75 427.45 Z" fill="#f48b74" opacity="1.00" stroke="#f48b74" stroke-width="0.25"/>
<path d="M 285.04 422.19 C 286.94 421.50 288.94 421.26 290.96 421.60 C 292.01 423.43 292.99 425.30 293.66 427.32 C 290.18 427.62 286.69 427.84 283.21 427.90 C 283.38 426.65 283.55 425.40 283.71 424.15 L 284.16 424.92 C 284.90 428.67 291.82 428.70 291.51 424.59 C 290.16 422.40 287.24 422.67 285.04 422.19 Z" fill="#d7aeaf" opacity="1.00" stroke="#d7aeaf" stroke-width="0.25"/>
<path d="M 316.07 423.82 C 317.30 422.62 318.53 421.42 319.78 420.23 C 320.80 422.31 321.80 424.40 322.76 426.51 C 321.21 426.38 319.65 426.25 318.11 426.13 C 317.60 425.55 316.58 424.40 316.07 423.82 Z" fill="#e68d78" opacity="1.00" stroke="#e68d78" stroke-width="0.25"/>
<path d="M 126.01 427.38 C 126.92 425.24 127.86 423.12 128.84 421.02 C 129.94 421.64 131.04 422.26 132.14 422.89 C 132.59 424.43 133.06 425.96 133.52 427.51 C 131.02 427.48 128.52 427.44 126.01 427.38 Z" fill="#f28776" opacity="1.00" stroke="#f28776" stroke-width="0.25"/>
<path d="M 142.95 423.04 C 144.12 422.10 145.71 422.55 147.09 422.43 C 147.60 424.41 148.13 426.38 148.67 428.36 C 146.12 428.34 143.58 428.31 141.04 428.28 C 141.53 426.50 141.45 424.33 142.95 423.04 Z" fill="#f38e81" opacity="1.00" stroke="#f38e81" stroke-width="0.25"/>
<path d="M 267.99 422.90 C 269.11 422.36 270.40 422.40 271.61 422.18 C 272.55 424.14 273.37 426.17 273.92 428.29 C 270.98 428.35 268.03 428.35 265.09 428.31 C 265.92 426.45 266.29 424.20 267.99 422.90 Z" fill="#ed9086" opacity="1.00" stroke="#ed9086" stroke-width="0.25"/>
<path d="M 285.04 422.19 C 287.24 422.67 290.16 422.40 291.51 424.59 C 291.82 428.70 284.90 428.67 284.16 424.92 C 284.38 424.24 284.82 422.87 285.04 422.19 Z" fill="#f38566" opacity="1.00" stroke="#f38566" stroke-width="0.25"/>
<path d="M 160.99 423.12 C 163.94 422.87 164.63 426.39 165.96 428.35 C 163.65 428.40 161.33 428.41 159.02 428.42 C 159.59 426.62 160.13 424.80 160.99 423.12 Z" fill="#e7948a" opacity="1.00" stroke="#e7948a" stroke-width="0.25"/>
<path d="M 315.45 427.28 C 315.65 426.12 315.85 424.97 316.07 423.82 C 316.58 424.40 317.60 425.55 318.11 426.13 C 319.65 426.25 321.21 426.38 322.76 426.51 C 320.33 426.81 317.89 427.06 315.45 427.28 Z" fill="#a7888d" opacity="1.00" stroke="#a7888d" stroke-width="0.25"/>
</svg>