<svg xmlns="http://www.w3.org/2000/svg" height="512pt" version="1.1" viewBox="0 0 512 512" width="512pt">
<path d="M 0.00 0.00 L 512.00 0.00 L 512.00 512.00 L 0.00 512.00 L 0.00 0.00 Z" fill="transparent" opacity="1.00" stroke="transparent" stroke-width="0.25" data-index="0" style="opacity: 1;"></path>
<path d="M 56.17 101.21 C 59.79 100.92 63.43 100.79 67.06 100.76 C 114.37 100.73 161.67 100.75 208.98 100.74 C 212.53 100.79 216.17 100.35 219.64 101.28 C 220.39 104.48 220.00 107.79 219.90 111.04 C 219.53 124.66 219.74 138.29 219.26 151.90 C 219.20 153.90 216.35 153.30 215.02 153.62 C 180.83 155.09 146.66 156.79 112.48 158.40 C 111.13 173.91 109.80 189.43 108.48 204.94 C 128.40 199.75 149.74 196.60 169.99 201.89 C 197.12 208.80 220.78 228.04 233.21 253.11 C 243.17 273.41 245.20 296.80 243.05 319.05 C 239.88 354.09 216.28 386.10 184.31 400.45 C 157.86 412.95 127.11 413.61 99.00 406.92 C 83.24 402.99 68.32 395.59 55.77 385.27 C 46.09 377.21 38.06 367.42 30.34 357.54 C 34.12 354.14 38.43 351.43 42.58 348.54 C 54.43 340.35 66.37 332.30 78.32 324.27 C 80.69 322.73 83.00 320.99 85.69 320.06 C 92.56 327.87 98.14 337.05 106.73 343.24 C 117.74 351.54 132.77 354.02 145.89 349.81 C 159.16 345.88 169.78 335.01 174.32 322.05 C 178.22 310.54 179.05 297.56 174.44 286.12 C 170.67 276.80 162.83 269.65 154.10 264.96 C 142.65 259.22 129.66 257.49 116.99 257.51 C 102.22 257.87 87.47 260.50 73.60 265.60 C 69.95 266.89 66.60 268.94 62.87 269.97 C 59.21 269.86 55.93 267.91 52.50 266.84 C 48.14 265.07 43.36 264.31 39.27 261.93 C 39.14 260.23 39.30 258.53 39.44 256.85 C 43.43 217.54 48.03 178.30 51.93 138.98 C 53.45 126.40 54.47 113.77 56.17 101.21 Z" fill="#5bd9fd" opacity="1.00" stroke="#5bd9fd" stroke-width="0.25" data-index="1" style="opacity: 1;"></path>
<path d="M 356.42 102.45 C 377.61 99.54 399.99 101.17 419.53 110.41 C 437.86 119.78 450.77 136.76 460.87 154.22 C 465.58 161.80 467.85 170.54 469.94 179.12 C 475.62 204.67 476.66 230.94 477.60 257.00 C 477.72 281.34 476.78 305.90 471.71 329.78 C 466.60 353.00 454.70 376.23 433.78 388.85 C 423.89 394.68 413.73 400.30 402.62 403.42 C 390.75 406.99 378.28 407.89 365.95 408.16 C 353.69 407.96 341.25 406.58 329.73 402.18 C 312.43 395.45 297.85 382.59 288.09 366.89 C 275.94 348.20 271.00 325.95 268.29 304.11 C 266.87 290.43 265.79 276.70 265.79 262.95 C 265.19 242.65 265.79 222.28 268.50 202.14 C 270.69 188.11 273.27 174.01 278.58 160.79 C 283.06 149.61 288.49 138.57 296.57 129.52 C 303.15 122.61 310.47 115.85 319.64 112.64 C 331.61 108.31 343.79 104.28 356.42 102.45 Z" fill="#5bd9fd" opacity="1.00" stroke="#5bd9fd" stroke-width="0.25" data-index="2" style="opacity: 1;"></path>
<path d="M 365.57 156.86 C 372.75 155.27 380.14 157.37 386.62 160.45 C 392.72 163.51 396.49 169.58 399.31 175.57 C 406.59 192.38 408.94 210.78 410.52 228.89 C 411.22 241.58 412.02 254.30 411.42 267.02 C 410.68 282.73 409.77 298.53 406.35 313.93 C 404.16 323.05 401.51 332.33 396.23 340.20 C 392.32 346.13 385.94 350.28 379.03 351.76 C 369.14 353.80 358.13 351.15 350.67 344.22 C 342.47 337.02 339.67 325.91 337.41 315.66 C 333.51 295.67 332.08 275.29 331.50 254.96 C 331.55 234.18 332.47 213.26 336.85 192.89 C 339.69 182.63 343.31 171.82 351.40 164.44 C 355.33 160.70 360.32 158.16 365.57 156.86 Z" fill="#ffffff" opacity="1.00" stroke="#ffffff" stroke-width="0.25" data-index="3"></path>
<path d="M 330.21 189.24 C 331.63 181.86 333.00 173.35 339.71 168.81 C 338.94 173.93 336.70 178.66 335.61 183.70 C 334.18 190.09 332.54 196.43 331.55 202.90 C 330.94 206.51 330.62 210.52 327.77 213.19 C 326.76 205.11 329.02 197.17 330.21 189.24 Z" fill="#ffffff" opacity="1.00" stroke="#ffffff" stroke-width="0.25" data-index="4"></path>
<path d="M 465.55 184.66 C 467.98 190.17 468.74 196.19 470.08 202.02 C 472.28 212.03 473.86 222.18 474.47 232.42 C 474.79 239.04 475.78 245.78 474.20 252.31 C 473.41 249.23 472.79 246.09 472.56 242.91 C 471.63 230.56 469.80 218.30 468.18 206.02 C 467.36 198.89 465.19 191.89 465.55 184.66 Z" fill="#ffffff" opacity="1.00" stroke="#ffffff" stroke-width="0.25" data-index="5"></path>
<path d="M 323.60 264.92 C 323.41 261.53 323.94 258.15 325.10 254.96 C 328.03 269.17 327.93 283.84 331.17 298.01 C 334.37 312.19 336.91 326.80 343.51 339.90 C 342.01 339.11 340.49 338.35 338.96 337.63 C 334.20 324.96 329.34 312.16 327.23 298.72 C 325.31 287.55 323.92 276.26 323.60 264.92 Z" fill="#ffffff" opacity="1.00" stroke="#ffffff" stroke-width="0.25" data-index="6"></path>
<path d="M 230.40 284.06 C 229.63 279.19 227.30 274.02 229.78 269.27 C 233.24 275.29 233.69 282.34 234.80 289.04 C 236.12 296.95 235.80 305.00 235.70 312.99 C 235.53 318.86 235.27 325.19 231.70 330.14 C 231.36 325.42 232.44 320.78 232.57 316.08 C 232.95 305.37 232.72 294.56 230.40 284.06 Z" fill="#ffffff" opacity="1.00" stroke="#ffffff" stroke-width="0.25" data-index="7"></path>
<path d="M 468.70 318.59 C 469.68 318.56 470.68 318.54 471.67 318.52 C 469.85 332.34 465.76 345.94 459.12 358.22 C 457.58 361.32 455.71 364.27 453.34 366.80 C 455.76 359.01 458.71 351.40 461.78 343.84 C 465.25 335.76 465.55 326.78 468.70 318.59 Z" fill="#ffffff" opacity="1.00" stroke="#ffffff" stroke-width="0.25" data-index="8"></path>
<path d="M 91.71 338.36 C 89.07 335.37 85.75 332.67 84.78 328.63 C 89.85 332.70 94.11 337.66 99.23 341.69 C 103.37 345.09 107.93 348.01 111.62 351.92 C 109.61 351.60 107.47 351.45 105.71 350.31 C 100.46 347.09 95.80 342.95 91.71 338.36 Z" fill="#ffffff" opacity="1.00" stroke="#ffffff" stroke-width="0.25" data-index="9"></path>
<path d="M 456.70 343.61 C 457.36 341.63 459.10 340.35 460.81 339.29 C 460.79 347.43 457.02 354.96 452.68 361.64 C 449.12 367.02 445.91 372.72 441.29 377.30 C 435.85 382.55 431.09 388.71 424.27 392.27 C 424.29 391.56 424.35 390.13 424.37 389.41 C 426.70 387.39 429.06 385.39 431.16 383.12 C 438.24 375.08 445.50 367.03 450.61 357.54 C 453.21 353.16 454.78 348.30 456.70 343.61 Z" fill="#ffffff" opacity="1.00" stroke="#ffffff" stroke-width="0.25" data-index="10"></path>
<path d="M 206.03 375.97 C 207.89 374.49 210.10 373.57 212.28 372.68 C 210.82 379.32 204.54 382.72 199.66 386.64 C 195.00 390.41 189.59 393.12 183.81 394.70 C 191.18 388.41 198.47 382.03 206.03 375.97 Z" fill="#ffffff" opacity="1.00" stroke="#ffffff" stroke-width="0.25" data-index="11"></path>
</svg>