<?xml version="1.0" encoding="utf-8"?>
<svg xmlns="http://www.w3.org/2000/svg" height="512pt" version="1.1" viewBox="0 0 512 512" width="512pt">
<path d="M 0.00 0.00 L 512.00 0.00 L 512.00 512.00 L 0.00 512.00 L 0.00 0.00 Z" fill="transparent" opacity="1.00" stroke="transparent" stroke-width="0.25"/>
<path d="M 170.50 97.44 C 174.99 99.92 180.23 98.43 185.01 97.83 C 193.28 96.86 201.70 96.11 209.98 97.38 C 210.39 103.91 210.32 110.46 209.88 116.99 C 209.67 126.06 210.08 135.17 209.19 144.23 C 208.04 152.09 208.61 160.07 207.96 167.97 C 207.34 187.96 207.34 207.98 207.23 227.98 C 205.90 247.44 205.23 266.93 205.35 286.44 C 217.27 286.25 229.21 286.17 241.13 286.36 C 243.31 286.27 246.62 286.99 246.20 289.89 C 245.64 300.66 245.76 311.45 245.41 322.23 C 240.27 322.35 235.20 323.64 230.06 323.16 C 221.52 322.22 212.91 322.31 204.33 322.26 C 203.91 348.99 205.38 375.71 204.41 402.43 C 192.63 402.95 180.82 402.88 169.05 402.48 C 166.66 402.37 162.75 402.42 162.79 399.10 C 162.32 383.74 161.98 368.33 163.15 352.99 C 163.68 342.90 162.69 332.84 162.57 322.76 C 155.44 324.06 148.16 323.28 140.97 323.94 C 134.65 324.56 128.27 324.20 121.97 325.02 C 111.03 326.28 100.02 325.41 89.04 325.66 C 77.82 326.31 66.69 327.99 55.62 329.93 C 52.62 330.36 48.72 331.19 46.69 328.25 C 45.28 325.77 45.86 322.73 45.76 320.00 C 46.12 313.33 44.93 306.67 45.58 300.00 C 46.17 294.14 44.36 287.72 47.55 282.37 C 49.75 278.12 53.45 274.96 56.13 271.04 C 61.88 262.54 69.57 255.45 74.61 246.44 C 79.33 239.23 83.37 231.55 88.71 224.75 C 97.42 213.05 103.51 199.71 111.58 187.60 C 122.53 169.49 134.50 152.03 146.96 134.93 C 153.79 125.66 159.67 115.72 164.82 105.43 C 166.27 102.49 167.89 99.53 170.50 97.44 Z" fill="#148ecc" opacity="1.00" stroke="#148ecc" stroke-width="0.25"/>
<path d="M 337.67 99.11 C 344.03 97.93 350.55 98.22 356.99 98.25 C 364.08 98.21 370.94 100.22 377.65 102.31 C 384.19 104.23 389.64 108.49 395.76 111.36 C 403.27 114.95 409.63 120.57 414.84 127.01 C 420.98 134.96 424.37 144.51 428.31 153.64 C 432.89 164.32 434.96 175.80 437.67 187.04 C 441.58 202.72 444.23 218.72 445.37 234.85 C 446.21 255.32 444.77 275.82 441.76 296.07 C 438.81 318.95 433.87 341.62 426.40 363.46 C 423.86 371.65 417.68 377.93 411.46 383.51 C 403.58 389.48 395.05 394.52 386.45 399.38 C 380.48 402.82 373.44 403.04 366.85 404.44 C 357.91 406.20 348.71 407.38 339.63 405.95 C 331.63 404.69 323.01 404.51 315.95 400.08 C 310.63 396.74 305.41 393.24 300.27 389.63 C 295.10 386.05 289.45 382.74 285.82 377.45 C 283.11 373.24 281.22 368.58 279.18 364.03 C 274.70 353.89 269.85 343.81 267.50 332.91 C 263.63 317.57 263.71 301.66 262.66 285.98 C 261.40 241.19 262.52 195.71 274.04 152.14 C 275.12 147.46 278.56 143.93 280.76 139.78 C 283.96 133.85 287.83 128.30 291.83 122.88 C 296.16 116.83 302.66 112.91 308.93 109.15 C 317.88 104.28 327.67 101.03 337.67 99.11 Z" fill="#148ecc" opacity="1.00" stroke="#148ecc" stroke-width="0.25"/>
<path d="M 342.55 135.86 C 352.65 133.85 363.87 134.62 372.69 140.35 C 379.38 144.55 384.20 151.28 386.60 158.77 C 393.02 177.49 397.99 196.91 399.09 216.74 C 400.01 232.15 400.33 247.60 400.40 263.04 C 400.98 278.67 399.08 294.31 395.86 309.59 C 394.32 317.32 394.56 325.28 392.81 332.99 C 391.66 339.11 388.99 344.79 386.51 350.47 C 384.27 355.57 380.28 359.59 376.47 363.55 C 368.98 370.72 358.01 372.76 347.98 372.28 C 338.57 371.90 330.50 366.32 323.65 360.35 C 318.50 356.09 315.69 349.80 313.28 343.73 C 307.97 328.81 306.25 312.91 305.31 297.18 C 304.19 285.83 304.40 274.38 304.67 262.99 C 306.14 253.13 305.27 243.15 305.89 233.25 C 307.06 223.54 306.05 213.74 306.72 204.01 C 307.72 195.04 307.59 185.92 309.61 177.08 C 312.15 166.88 316.18 157.03 321.70 148.08 C 326.22 140.91 334.48 137.28 342.55 135.86 Z" fill="#ffffff" opacity="1.00" stroke="#ffffff" stroke-width="0.25"/>
<path d="M 160.11 179.07 C 162.58 175.78 165.05 172.50 167.36 169.10 C 167.44 176.42 167.29 183.73 166.76 191.03 C 166.42 222.54 166.61 254.04 166.48 285.54 C 162.65 284.77 158.82 285.57 155.07 286.39 C 142.97 288.10 130.70 288.96 118.50 287.85 C 108.71 286.92 98.91 289.04 89.14 287.66 C 91.27 283.16 92.44 278.23 94.89 273.88 C 101.53 263.61 107.33 252.72 115.44 243.47 C 119.86 238.69 123.06 232.99 126.65 227.59 C 131.18 220.02 136.75 213.15 142.06 206.13 C 148.35 197.29 153.61 187.76 160.11 179.07 Z" fill="#ffffff" opacity="1.00" stroke="#ffffff" stroke-width="0.25"/>
</svg>