<?xml version="1.0" encoding="utf-8"?>
<svg xmlns="http://www.w3.org/2000/svg" height="512pt" version="1.1" viewBox="0 0 512 512" width="512pt">
<path d="M 0.00 0.00 L 512.00 0.00 L 512.00 512.00 L 0.00 512.00 L 0.00 0.00 Z" fill="transparent" opacity="1.00" stroke="transparent" stroke-width="0.25"/>
<path d="M 283.01 39.72 C 284.21 39.54 285.40 39.37 286.60 39.21 C 286.27 42.84 285.40 46.41 285.45 50.08 C 286.78 48.42 288.06 46.71 289.13 44.87 C 289.93 44.75 290.73 44.64 291.54 44.53 C 292.04 49.64 288.23 54.00 289.45 59.20 C 290.07 56.05 292.72 54.91 295.61 55.13 C 296.97 58.72 296.39 62.62 296.70 66.36 C 298.39 61.73 301.01 57.40 301.84 52.48 C 303.28 52.43 304.74 52.47 306.19 52.56 C 306.92 50.76 307.81 49.04 308.86 47.40 C 309.65 47.46 310.44 47.51 311.23 47.56 C 312.45 50.86 312.72 54.36 312.64 57.85 C 314.57 57.81 314.94 55.82 315.74 54.47 C 317.32 54.44 318.90 54.41 320.49 54.39 C 320.50 54.98 320.52 56.18 320.53 56.78 C 322.24 56.55 323.96 56.32 325.68 56.10 C 325.64 57.88 325.60 59.66 325.57 61.44 C 326.91 61.41 328.25 61.38 329.59 61.36 C 329.66 68.40 329.87 75.51 328.62 82.48 C 327.96 94.00 326.60 105.46 326.23 117.00 C 324.94 126.62 325.96 136.36 324.76 145.98 C 324.86 156.96 324.23 167.99 325.25 178.94 C 325.66 211.18 329.07 243.28 331.73 275.38 C 335.00 276.63 338.57 276.55 341.95 277.41 C 353.44 279.36 364.87 281.82 376.05 285.15 C 377.83 285.64 379.51 286.47 380.93 287.67 C 379.23 287.75 377.54 287.62 375.94 287.06 C 361.69 282.66 346.94 280.35 332.33 277.50 C 331.48 280.74 335.23 280.21 337.34 280.70 C 353.66 283.89 370.33 286.51 385.73 293.01 C 385.71 293.60 385.67 294.77 385.65 295.35 C 378.71 298.12 371.27 299.14 364.06 300.98 C 372.08 302.42 381.09 302.62 387.75 307.88 C 387.37 308.48 386.61 309.68 386.23 310.28 C 380.30 312.69 373.85 313.76 368.22 316.94 C 371.72 319.85 376.30 320.43 380.50 321.79 C 380.57 322.31 380.72 323.36 380.79 323.88 C 377.52 324.45 374.19 324.46 370.88 324.40 C 371.95 325.29 373.01 326.19 374.07 327.10 C 371.51 328.62 368.52 328.35 365.68 328.37 C 366.74 328.84 367.80 329.33 368.86 329.82 C 368.58 330.22 368.02 331.02 367.74 331.41 C 357.73 333.64 347.34 331.97 337.22 331.39 C 337.51 341.93 338.65 352.42 338.83 362.97 C 338.67 364.94 339.64 367.75 337.23 368.68 C 337.05 382.69 338.32 396.67 338.44 410.68 C 338.47 414.33 339.02 418.06 338.05 421.66 C 335.51 416.13 336.61 409.78 335.49 403.91 C 335.33 419.26 335.18 434.62 335.20 449.98 C 335.06 454.19 335.79 458.59 334.03 462.58 C 332.43 458.93 332.85 454.91 332.80 451.05 C 332.75 439.35 332.82 427.64 332.53 415.94 C 331.77 431.08 330.75 446.25 328.09 461.19 C 325.95 462.45 324.83 466.05 321.87 464.37 C 319.55 454.42 318.93 444.21 317.65 434.10 C 316.51 441.07 316.25 448.24 314.12 455.02 C 312.58 454.25 312.52 452.52 312.23 451.09 C 311.77 448.07 311.08 445.09 310.22 442.17 C 309.06 444.55 308.46 447.56 305.78 448.73 C 305.05 440.87 305.92 432.96 304.96 425.11 C 303.75 432.50 303.00 439.96 302.19 447.39 C 301.86 447.71 301.20 448.34 300.87 448.66 C 300.58 446.75 300.34 444.84 300.12 442.92 C 298.25 448.37 297.72 454.22 295.54 459.55 C 293.58 460.86 292.70 458.35 291.78 457.08 C 290.77 459.83 289.80 462.59 288.87 465.37 C 287.75 464.84 286.73 464.02 286.79 462.67 C 285.78 455.29 285.51 447.84 284.58 440.45 C 283.29 440.21 282.04 439.87 280.84 439.36 C 279.85 440.17 278.87 440.97 277.89 441.80 C 275.10 438.22 276.33 433.30 275.30 429.13 C 273.41 428.10 272.85 426.17 272.67 424.17 C 272.61 426.06 272.14 427.88 271.37 429.61 C 270.92 429.65 270.04 429.74 269.60 429.78 C 269.51 423.19 269.87 416.61 270.24 410.03 C 270.78 391.07 270.92 372.10 270.62 353.13 C 270.11 344.81 268.23 336.61 268.21 328.25 C 262.83 327.47 257.38 327.92 251.97 327.74 C 236.66 327.39 221.34 327.57 206.05 326.70 C 194.36 326.41 182.66 326.43 170.99 325.77 C 159.00 325.56 147.01 325.59 135.02 325.62 C 127.06 325.63 119.07 326.18 111.12 325.48 C 111.75 324.78 112.99 323.39 113.61 322.70 C 112.63 320.95 111.97 318.84 110.25 317.67 C 107.04 317.37 103.60 317.85 100.89 315.72 C 101.28 313.82 103.04 313.01 104.56 312.16 C 104.56 306.74 106.83 301.79 108.06 296.62 C 103.82 296.39 99.54 295.96 95.55 294.39 C 95.45 293.96 95.25 293.08 95.14 292.64 C 96.55 292.36 97.99 292.10 99.24 291.35 C 96.95 289.30 94.92 286.91 94.30 283.81 C 95.32 282.69 96.18 281.25 97.77 280.93 C 103.68 279.03 109.85 278.13 115.98 277.26 C 119.91 268.78 123.96 260.35 127.88 251.87 C 124.33 257.37 120.63 262.78 116.72 268.03 C 116.66 267.45 116.55 266.31 116.49 265.73 C 121.71 258.13 125.93 249.86 131.42 242.42 C 154.12 211.68 175.25 179.80 195.60 147.47 C 209.64 125.64 222.92 103.34 236.13 81.00 C 240.65 74.41 243.70 66.78 249.12 60.85 C 249.67 60.78 250.78 60.64 251.34 60.57 C 251.47 62.80 251.51 65.03 251.68 67.26 C 254.02 63.50 257.47 60.66 260.46 57.45 C 264.17 53.85 266.58 49.16 270.30 45.56 C 270.85 45.50 271.97 45.39 272.52 45.33 C 272.54 45.92 272.57 47.09 272.59 47.68 C 273.23 47.64 274.52 47.57 275.17 47.54 L 276.13 48.86 C 278.27 45.69 281.23 43.13 283.01 39.72 Z" fill="#4eb1fd" opacity="1.00" stroke="#4eb1fd" stroke-width="0.25"/>
<path d="M 261.21 142.95 C 261.55 142.19 261.89 141.43 262.23 140.67 C 262.22 150.83 259.97 160.86 259.69 171.04 C 259.07 197.34 258.54 223.75 261.39 249.95 C 261.71 256.26 262.74 262.51 262.91 268.84 C 244.26 268.22 225.59 268.16 206.94 268.67 C 197.89 269.31 188.81 269.82 179.74 269.72 C 204.12 231.44 226.47 191.82 252.36 154.49 C 255.40 150.71 257.58 146.25 261.21 142.95 Z" fill="#ffffff" opacity="1.00" stroke="#ffffff" stroke-width="0.25"/>
<path d="M 262.23 165.00 C 262.63 160.03 262.36 154.96 263.66 150.10 C 263.92 169.05 263.06 188.02 263.85 206.97 C 264.74 216.29 264.21 225.68 265.26 234.98 C 265.46 244.66 266.34 254.31 266.55 263.99 C 266.67 266.00 266.58 268.03 266.12 270.01 C 264.22 263.20 264.07 256.06 263.37 249.06 C 261.22 229.80 261.13 210.39 261.26 191.03 C 261.45 182.35 261.41 173.65 262.23 165.00 Z" fill="#ffffff" opacity="1.00" stroke="#ffffff" stroke-width="0.25"/>
<path d="M 193.82 271.47 C 216.19 269.87 238.64 270.21 261.05 270.73 C 262.54 270.43 263.51 271.59 264.31 272.61 C 244.21 272.45 224.10 271.43 203.99 271.90 C 200.63 271.99 196.96 273.16 193.82 271.47 Z" fill="#ffffff" opacity="1.00" stroke="#ffffff" stroke-width="0.25"/>
</svg>