<?xml version="1.0" encoding="UTF-8"?>
<svg id="Layer_1" xmlns="http://www.w3.org/2000/svg" version="1.1" viewBox="0 0 512 512">
  <!-- Generator: Adobe Illustrator 29.4.0, SVG Export Plug-In . SVG Version: 2.1.0 Build 152)  -->
  <defs>
    <style>
      .st0 {
        fill: #192c42;
        stroke: #192c42;
      }

      .st0, .st1, .st2, .st3, .st4, .st5, .st6, .st7, .st8, .st9, .st10, .st11, .st12, .st13, .st14, .st15, .st16, .st17, .st18, .st19, .st20, .st21, .st22, .st23, .st24, .st25, .st26, .st27, .st28, .st29, .st30, .st31, .st32, .st33, .st34, .st35, .st36, .st37 {
        stroke-width: .2px;
      }

      .st1 {
        fill: #003658;
        stroke: #003658;
      }

      .st2 {
        fill: #d2eaf2;
        stroke: #d2eaf2;
      }

      .st3 {
        fill: #81e6ff;
        stroke: #81e6ff;
      }

      .st4 {
        fill: #7ae2fd;
        stroke: #7ae2fd;
      }

      .st5 {
        fill: #f3d0c4;
        stroke: #f3d0c4;
      }

      .st6 {
        fill: #0a3754;
        stroke: #0a3754;
      }

      .st7 {
        fill: #fecbb4;
        stroke: #fecbb4;
      }

      .st8 {
        fill: #ed4b2f;
        stroke: #ed4b2f;
      }

      .st9 {
        fill: #f1ffff;
        stroke: #f1ffff;
      }

      .st10 {
        fill: #112e49;
        stroke: #112e49;
      }

      .st11 {
        fill: #d9effa;
        stroke: #d9effa;
      }

      .st12 {
        fill: #e5492f;
        stroke: #e5492f;
      }

      .st13 {
        fill: #f9e1d7;
        stroke: #f9e1d7;
      }

      .st14 {
        fill: #efd9d2;
        stroke: #efd9d2;
      }

      .st15 {
        fill: #774a3c;
        stroke: #774a3c;
      }

      .st16 {
        fill: #6c4c49;
        stroke: #6c4c49;
      }

      .st17 {
        fill: #ec4b2f;
        stroke: #ec4b2f;
      }

      .st18 {
        fill: #f5652e;
        stroke: #f5652e;
      }

      .st19 {
        fill: #05365a;
        stroke: #05365a;
      }

      .st20 {
        fill: #bd6c4f;
        stroke: #bd6c4f;
      }

      .st21 {
        fill: azure;
        stroke: azure;
      }

      .st22 {
        fill: #05385f;
        stroke: #05385f;
      }

      .st23 {
        fill: #112035;
        stroke: #112035;
      }

      .st24 {
        fill: #7ee5fd;
        stroke: #7ee5fd;
      }

      .st25 {
        fill: #feccb5;
        stroke: #feccb5;
      }

      .st26 {
        fill: #edd6c8;
        stroke: #edd6c8;
      }

      .st27 {
        fill: #f8ffff;
        stroke: #f8ffff;
      }

      .st28 {
        fill: #0a3354;
        stroke: #0a3354;
      }

      .st29 {
        fill: #ffccb5;
        stroke: #ffccb5;
      }

      .st30 {
        fill: #222d42;
        stroke: #222d42;
      }

      .st31 {
        fill: #f9ffff;
        stroke: #f9ffff;
      }

      .st32 {
        fill: #432021;
        stroke: #432021;
      }

      .st33 {
        fill: #0d2f49;
        stroke: #0d2f49;
      }

      .st34 {
        fill: #1b2f3d;
        stroke: #1b2f3d;
      }

      .st35 {
        fill: #f7ffff;
        stroke: #f7ffff;
      }

      .st36 {
        fill: #013150;
        stroke: #013150;
      }

      .st37 {
        fill: #885240;
        stroke: #885240;
      }
    </style>
  </defs>
  <path class="st33" d="M242.9,35.2c11.1-4.2,23.4-6.6,35.1-3.8,8.6,2,16.2,8.6,18.1,17.4,6.7-1.9,14.3,1.6,17.3,7.8,3.3,6.4,3.7,13.9,2.7,20.9-1.6,9.1-5.6,17.5-10.4,25.3,3.2,5.5,2.2,13-2.7,17.2-3,2.7-7.2,2.4-10.9,2.5-2.8,7.2-8.3,12.7-14.1,17.4,4.5,1.4,9.1,3.2,12.8,6.3,13.1,12.1,23.9,26.9,30.4,43.5,2.7,7.2,6.4,14.3,6.7,22.1-2.1.4-4.3.8-6.4,1.2,0,4.3.5,8.7.9,13,1.2,19.4-1.6,38.8-6.5,57.5-.9,2.7.4,5.3,1.2,7.8,1.9,5.7,2.8,11.7,2.7,17.7-.1,1.5,0,3.3-.9,4.6-1.6.6-3.3,0-4.9-.3-.6,1.8-1.3,3.7-1.9,5.5-1.4,0-2.8-.2-4.2-.2-.5,1.1-1,2.2-1.5,3.2-1.3,0-2.7,0-4,.1-1.5,1.6-3.4,2.2-5.4,1.5.3-.4.8-1.1,1-1.4.4-.4,1.1-1.3,1.4-1.7.9-4.8,1.3-9.7,1.7-14.6.8,0,1.7.1,2.5.2.4,4.5-.7,9.2.5,13.6,1.8-4.9,2.1-10.2,2.8-15.3.9.4,2.1.5,2.4,1.6.3,3.2-.2,6.4-.4,9.5.4.2,1.3.5,1.7.7.8-4.9.8-9.8,1.1-14.8.9.1,1.7.3,2.6.4.3,3.6.8,7.2,2.1,10.6,1.2-7.8-.5-15.8-3.3-23.1-1.6-3.3.2-6.8.8-10.1,5.2-21.1,7.3-43.1,4.4-64.8-8,1.8-16,3.9-24.1,5.4,1,18,1.8,36.1,0,54.1h-2.1c.2-4.6.2-9.2,0-13.9-.5,0-1.5-.3-2-.4l.5-2.1,1.5,2.3c.5-13.4.2-26.8-.9-40.1-.7,0-2.2,0-2.9,0-1-23.8-1.1-47.8,1.1-71.5-3.5-2.1-7.3-3.9-11.2-5.2,1.2,12.1-1.2,24.1-1.2,36.2-.9,17,.1,34.2,3.8,50.9-.3.9-.8,2.6-1.1,3.4-1.1-5.8-2.4-11.5-3.3-17.3-.1-8-.8-16-1-24-.1-10.6.8-21.2.8-31.8.6-4.7,1.9-9.7,0-14.2-.6-.7-1.2-1.4-1.8-2-1.6-.2-3.1-.4-4.7-.6-.6,1.2-1.1,2.5-1.7,3.8-4.1,1.7-8.6,3.1-13.1,2.4-4.1-.4-6.9-5-11.4-3.9-.8.3-1.5.9-2.2,1.3-.4.2-1.1.6-1.4.8-.2-.2-.7-.6-1-.8.5-1,1-2,1.5-2.9-2.3.1-4.6.3-6.8.4-1.9,4.9-4.6,9.5-6.8,14.3-6.8,14.1-10.3,29.7-10.9,45.3-.4-2.2-.9-4.5-1.3-6.7,1.2-10.9,3.1-21.9,7.5-32.1,1.9-4.9,4.5-9.4,5.8-14.5-8.4,3.3-15.8,8.4-23.6,12.8-6.2,3.7-12.7,7-19.1,10.4,4.2,12.7,9.6,24.9,15.5,36.9,4.7-.6,8.6-3.5,12.9-5.1,0,.5-.2,1.6-.3,2.1-.7.7-1.3,1.3-2,1.9-3.7,2.2-7.6,4-11.6,5.8-1.8-3-3.4-6.1-4.9-9.3-7.8,2-15.9,4.3-24,2.7-8.3-1.8-13.9-8.8-18.8-15.2-5.9-7.5-9.1-16.5-11.9-25.4-1.1-3.4-1.5-7.2-3.5-10.3-4.4-6.8-8.5-13.7-12.1-20.9-.5-1.5-.2-3.1-.2-4.6,2.9-.9,5.7-.2,7.6,2.2-1.2-3.9-4.4-8.1-2.6-12.4,1.1-2.1,3.6-.8,4.9.4.1-2-.5-4.5,1.6-5.7,1.1-1.2,2.8.2,4.1.3,2.4,3.2,4.3,6.7,6,10.4-.7-3.8-1.4-7.9,0-11.5.9-2.3,3.4-1.6,5.1-.9.5,1,.9,2,1.3,3,1.9,5.8,3,11.9,5,17.7,2.8-2.1,5.3-4.7,8.6-6,2.1-.9,4.3.1,6.4.4,0,1.6,0,3.2,0,4.7-2.7,2.6-6,5-7.2,8.8-1.3,4-2.6,8-3.9,12,2.6,7.7,8.1,14.2,14.2,19.6,2.2-.2,4.4-.4,6.7-.5,0-.7,0-2,0-2.7,13.2-7,26.1-14.5,39.1-21.9,5.3-2.6,10-6.5,15.7-8.4-6.3-3.5-12.2-8.2-15.9-14.6-2.8-4.1-3.9-8.9-5.4-13.4-1.9-1.5-4.5-2.4-5.7-4.6-3.6-6.4-1.3-16,5.9-18.7.3-1.7.5-3.3.8-4.9.5-3.3,1.5-6.6,1.4-9.9-7.9-2.2-13.7-9.3-15.8-17-.2-2.4-1.4-6.5,1.9-7-3.2-5.2-5.1-11.5-4.1-17.6,1.2,0,2.6-.4,3.7.3,5.9,3.6,12.8,6,19.8,5.6,6.6-.4,12.9-2.7,19-5.1Z"/>
  <path class="st16" d="M243.8,37.9c12.4-4.3,26.5-6.6,39.2-1.7,6.5,3,9.3,10,10.8,16.5,4.1-1,9.1-2.5,12.7.8,7.3,6.1,7.9,16.7,6.4,25.4-2.2,7.3-5.1,14.5-9.1,21.1-.3-.1-.8-.4-1.1-.5-3.4-2.2-7.4-1.9-11.1-.9-1-6.8-1.7-13.8-2.1-20.7-.3-1.7,1.2-2.7,2-3.8.1-.5.4-1.6.5-2.1-4.6,1.9-9,4.2-13.9,5-11.9,2.1-24,1.9-36,1.4-7.5-.3-14.9-2-22-4.5-5.6-2.1-10.1-6.6-13.1-11.7-1.6-2.2-1.4-5.1-1.5-7.7,2.4,2,5.2,3.5,8.1,4.6.4-1.6-.3-3.1-1.6-4.1-5.1-4.5-8.7-11-8.8-17.9,5.1,3.2,10.7,6,16.9,6.4,8.3.5,16.3-2.3,23.7-5.6Z"/>
  <path class="st34" d="M278,77c4.9-.8,9.4-3.2,13.9-5-.1.5-.4,1.6-.5,2.1-.9,1.2-2.3,2.2-2,3.8.4,6.9,1,13.8,2.1,20.7,3.7-1.1,7.7-1.4,11.1.9-.6.3-1.8,1-2.5,1.3-3.7-1.2-7.3.1-10.5,2-.6-5.1-1.1-10.2-1.8-15.3-.3-3.5-.7-6.9-1.2-10.4-10.2,3.2-21,3.9-31.6,4.2-10.3-.3-20.8-.7-30.8-3.4-1.5-1.2-2.9-2.6-4.2-3.9,7.1,2.5,14.5,4.1,22,4.5,12,.5,24.1.7,36-1.4Z"/>
  <path class="st14" d="M255,81.3c10.6-.3,21.4-1,31.6-4.2.5,3.5.9,6.9,1.2,10.4-1.3-2.5-2.4-5.2-3.6-7.8-5.7.8-11.4,2-17.2,2.5-9,.8-18.1-.3-27.2.4-5,0-9.9-1-14.8-1,.1-.4.4-1.3.5-1.8-1,.2-1.9.5-2.9.7-1.8,8-3.1,16.2-3,24.4,0,6.6,2.5,12.8,3.5,19.3-5.7-9.3-5.2-20.7-4.2-31.2.6-5.3,1.7-10.6,2.8-15.9.6.2,1.9.5,2.5.7,10,2.7,20.4,3.1,30.8,3.4Z"/>
  <path class="st25" d="M222.6,80.6c.9-.2,1.9-.5,2.9-.7-.1.4-.3,1.3-.5,1.8-.2.9-.7,2.8-.9,3.8,5.2,1.6,10.8,3,16.3,2,.8-1.6-.2-3.2-.5-4.8,9.1-.8,18.1.4,27.2-.4,5.8-.5,11.5-1.7,17.2-2.5,1.2,2.6,2.3,5.2,3.6,7.8.7,5.1,1.2,10.2,1.8,15.3,3.2-1.9,6.8-3.2,10.5-2,4.5,3.5,6.1,10.3,2.9,15.3-2.7,4-8.3,4.4-12.4,2.4-4.4,12.5-15.6,22.5-28.8,24.4-15.1,2.8-32.1-4.6-38.8-18.6-1-6.5-3.5-12.7-3.5-19.3,0-8.2,1.2-16.4,3-24.4Z"/>
  <path class="st28" d="M225,81.7c5,0,9.9,1,14.8,1,.4,1.6,1.3,3.2.5,4.8-5.5,1-11.1-.4-16.3-2,.2-.9.7-2.8.9-3.8Z"/>
  <path class="st13" d="M261.3,84.4c4.3-1.3,9.1-1.2,13.5-.4.5.4,1.4,1.1,1.9,1.5-5-.5-10.1-.4-15.2,0,0,1,0,3-.1,4,5.8,1.7,11.9,1.2,17.8,1,.3-1.2.6-2.3.9-3.5l.2-1.1c1.8,1.9.7,4.1-.4,6-5.6.9-11.3.7-16.9-.3-3.2-.5-4.9-5.4-1.8-7.1Z"/>
  <path class="st23" d="M261.5,85.5c5.1-.4,10.2-.4,15.2,0,1.2.3,2.3,1,3.4,1.4-.3,1.2-.6,2.3-.9,3.5-5.9.2-12,.7-17.8-1,0-1,0-3,.1-4Z"/>
  <path class="st22" d="M262.8,87.1c4.5-1.1,9.5-1.5,14,0,2.3,2.3-2.2,2.2-3.7,2.1-3.4-.6-8,1.2-10.3-2.1Z"/>
  <path class="st5" d="M215.5,111c-5.5-3.9-4.8-12.2-.5-16.7.3.1.8.3,1.1.5-.7,5.4-.6,10.8-.5,16.3Z"/>
  <path class="st6" d="M229.5,98c0-2.9,3.4-3.7,5.8-3.6.7.8,1.5,1.6,2.2,2.4v3.5c-.8.8-1.5,1.6-2.3,2.5-2.9.5-6.5-1.4-5.8-4.8Z"/>
  <path class="st23" d="M250.2,96.6c.6-.2,1.7-.6,2.2-.8-.8,4.5-3.4,8.2-5.6,12.1-1.1,2.4,4.3.6,3.1,3.8-2.3-.1-4.5-.7-6.7-1.4,2.1-4.7,5.1-9,7.1-13.8Z"/>
  <path class="st23" d="M266.8,96.8c2.5-.6,5.1-.5,6.8,1.7.3,2.3-.1,4.6-1.9,6.2-1.7-.2-3.8.3-5.1-1.2-2.1-1.8-.4-4.6.2-6.7Z"/>
  <path class="st22" d="M269.2,102.9c-3.6-.8-1.4-4.4.7-5.5,2.5,1.2,3,6.1-.7,5.5Z"/>
  <path class="st23" d="M238.9,116.3c3.8-.2,6.2,3.9,10.1,4.1,4.6,1.3,8.5-1.9,12.7-2.8-1.2,3.5-5.3,4.7-8.7,5-5.3.6-11.4-1.4-14.2-6.3Z"/>
  <path class="st13" d="M148.7,116.8c2,3.7,3.1,8.2,3.4,12.4l-.3,1c-.6.2-1.9.7-2.5.9-.8-4.7-1.4-9.5-.7-14.3Z"/>
  <path class="st7" d="M137.1,120.1c.2-.2.8-.5,1-.7,3.1,4.6,5.4,9.7,8.1,14.6.5,1.5,2.1,1.7,3.4,2.1,0-1.6-.1-3.3-.2-4.9.6-.2,1.9-.7,2.5-.9l.5.3c1.8,1.4,1.7,4.3,2.4,6.4-1.6,2.6-5,4-6.2,7,0,1.9.7,3.7,1.2,5.5.5,0,1.6,0,2.2.1-.2-2.3-1.9-4.9-.2-7,2.5-3.5,7.4-3.6,10.4-6.5,2.1-2,4.6-3.5,7.6-3.8,0,.5,0,1.5-.1,2-2.7,2.5-5.6,5-6.8,8.6-1.4,4.4-3.1,8.7-4.4,13.1,2.8,7.9,7.8,15,14,20.6,2.9,3,7.4,1.4,11,1.1,3.2,8.6,5.8,17.4,10.2,25.5-8,2.4-16.8,4.5-25.1,1.9-6.2-3.2-10.5-8.8-14.7-14.1-5.2-6.8-8-14.9-10.5-23-1.4-4.3-1.7-9.1-4.8-12.6-3.9-6.9-8.7-13.5-12-20.8.4,0,1.1,0,1.5,0,3.4,3.1,5.8,7.4,9.9,9.6-.1-1.9-.4-3.7-.8-5.5,1-.5,2-1.1,3-1.5.7,0,2,0,2.6,0-1.7-5.8-5.2-11-5.7-17.1Z"/>
  <path class="st13" d="M131.5,124.1c4.4,2.9,6.1,8.6,8.7,13.1-1,.5-2,1-3,1.5-2.1-4.8-4.3-9.5-5.6-14.6Z"/>
  <path class="st4" d="M233.7,144.5c2.3-.1,4.6-.3,6.8-.4-.5,1-1,2-1.5,2.9-3.3,6.8-5.4,14.1-7.8,21.3-2.5,7.4-4.9,14.9-6.7,22.5-3.4,14-8.7,27.6-11,41.9-.6-9.6,2-19,2.5-28.6.6-15.7,4.1-31.2,10.9-45.3,2.2-4.8,4.8-9.4,6.8-14.3Z"/>
  <path class="st12" d="M268.1,147.1c.6-1.2,1.1-2.5,1.7-3.8,1.6.2,3.1.4,4.7.6-.6,2.3-.9,5.1-2.8,6.8-7,5.9-18.2,6.9-25.7,1.3-2.1-1.4-1.9-4.2-2.4-6.4,4.4-1.1,7.2,3.5,11.4,3.9,4.5.7,9-.7,13.1-2.4Z"/>
  <path class="st32" d="M274.5,144c.6.7,1.2,1.3,1.8,2-1.4,3.9-3.9,7.6-8,9.2-7,3.2-15.9,3.4-22.4-1-2.5-1.6-3.6-4.5-4.4-7.2.7-.4,1.4-1,2.2-1.3.5,2.2.3,5,2.4,6.4,7.4,5.7,18.7,4.6,25.7-1.3,1.9-1.7,2.2-4.4,2.8-6.8Z"/>
  <path class="st24" d="M278.4,142.8c3.9,1.3,7.7,3,11.2,5.2-2.2,23.8-2.1,47.7-1.1,71.5.7,0,2.2,0,2.9,0,1.1,13.3,1.4,26.8.9,40.1l-1.5-2.3c-4.1-8.9-7.6-18-9.8-27.5-3.7-16.7-4.7-33.9-3.8-50.9,0-12.1,2.4-24.1,1.2-36.2Z"/>
  <path class="st2" d="M253.6,146.9c3.6-.7,7.2-1.3,10.8-1.3-3.2,2.2-7.2,1.9-10.8,1.3Z"/>
  <path class="st20" d="M276.2,146c2,4.5.7,9.5,0,14.2-.3-2.6-.7-5.1-1-7.7-4.4,2.8-9,5.7-14.3,6.1-3.3.2-6.8.2-10-.5-4.2-1-7.3-4.1-10.4-6.9-2.8,6.1-4.4,12.6-6.7,18.9-1.9,5.3-3.4,10.7-4.8,16.1-4.5,15.8-9.6,31.5-12.2,47.7-.3,2.4-1.2,4.7-2.2,6.9,1.2-13.7,5.2-27,9-40.2,2.4-8.4,4.4-16.8,6.9-25.1,3-9.3,6.2-18.6,9.5-27.8.4-.2,1.1-.6,1.4-.8.9,2.7,1.9,5.6,4.4,7.2,6.6,4.4,15.4,4.3,22.4,1,4-1.5,6.6-5.2,8-9.2Z"/>
  <path class="st0" d="M231.2,168.3c2.4-7.2,4.4-14.5,7.8-21.3.2.2.7.6,1,.8-3.3,9.2-6.5,18.5-9.5,27.8-2.5,8.3-4.5,16.8-6.9,25.1-3.8,13.2-7.8,26.4-9,40.2-2.4,12.1-3.8,24.4-5.3,36.7,1.7.4,3.4.7,5.2,1.1l.3,1.4c-2.3.4-4.6.6-6.9.1-.4-.1-1.1-.4-1.5-.5.7-11.4,2.1-22.8,4.4-33.9,2.6-3.8,2.6-8.5,2.9-12.9,2.3-14.3,7.6-27.8,11-41.9,1.8-7.6,4.2-15.1,6.7-22.5Z"/>
  <path class="st17" d="M204.5,163.7c7.8-4.4,15.3-9.5,23.6-12.8-1.4,5.1-3.9,9.6-5.8,14.5-4.4,10.1-6.3,21.1-7.5,32.1-.3,2.8-.6,5.6-1,8.4-4.3,1.6-8.2,4.5-12.9,5.1-5.9-12-11.3-24.2-15.5-36.9,6.4-3.5,12.9-6.7,19.1-10.4Z"/>
  <path class="st18" d="M233.8,170.1c2.3-6.3,3.8-12.8,6.7-18.9,3.1,2.7,6.3,5.8,10.4,6.9,3.3.8,6.7.7,10,.5,5.3-.3,9.9-3.3,14.3-6.1.3,2.6.7,5.1,1,7.7-1.9,18.5-2.9,37.4.2,55.8.9,5.8,2.2,11.6,3.3,17.3,1.3,9.8,5.8,18.8,10.2,27.5,3.1,5.3.6,11.5.5,17.1-2.4,1.2-5.1,2-7.8,2.4-17.7,3.1-35.9,3.3-53.7,1.1-5-.6-9.8-2.1-14.7-3-1.7-.3-3.4-.7-5.2-1.1,1.6-12.2,2.9-24.6,5.3-36.7.9-2.2,1.8-4.5,2.2-6.9,2.6-16.2,7.7-31.9,12.2-47.7,1.4-5.4,2.9-10.9,4.8-16.1Z"/>
  <path class="st8" d="M290.6,152.1c.6.2,1.7.5,2.3.7,7.6,7.7,14.4,16.3,19.6,25.8,4.7,9.8,10.1,19.8,11.4,30.8-5,.8-9.9,2.3-14.8,3.6-6.1,1.6-12.4,3.4-18.9,3,0-21.3-.4-42.6.4-63.8Z"/>
  <path class="st15" d="M276.5,216c-3.1-18.4-2.1-37.3-.2-55.8,0,10.6-.9,21.2-.8,31.8.2,8,.9,16,1,24Z"/>
  <path class="st1" d="M214.7,197.4c.4,2.2,1,4.5,1.3,6.7-.5,9.6-3.1,19-2.5,28.6-.3,4.4-.3,9.1-2.9,12.9.3-3.2-.4-6.4-.7-9.6,0-9,1.6-17.9,2.7-26.9l-1.3.8c.7-.6,1.4-1.2,2-1.9,0-.5.2-1.6.3-2.1.4-2.8.7-5.6,1-8.4Z"/>
  <path class="st29" d="M294.1,219.7c8.1-1.5,16.1-3.6,24.1-5.4,2.9,21.6.8,43.6-4.4,64.8-.6,3.3-2.4,6.8-.8,10.1,2.8,7.3,4.5,15.2,3.3,23.1-1.3-3.4-1.8-7-2.1-10.6-.9-.1-1.7-.3-2.6-.4-.3,4.9-.4,9.9-1.1,14.8-.4-.2-1.3-.5-1.7-.7.3-3.2.7-6.4.4-9.5-.2-1.2-1.5-1.2-2.4-1.6-.7,5.1-1,10.4-2.8,15.3-1.2-4.4,0-9.1-.5-13.6-.9,0-1.7-.2-2.5-.2-.6,0-1.8-.2-2.4-.3-.7,0-1.4-.2-2.1-.2-.2.4-.6,1.3-.8,1.8-1,1.4-2,2.9-3.1,4.3.2-3.3,1-6.8-.1-10l-1.5-1.2c-1.5,3.1-1.2,8.3-5.5,8.9,1.1-7.8,2.8-15.8,6.9-22.6,1-4.1,1.4-8.2,1.7-12.4,1.8-18,.9-36.1,0-54.1Z"/>
  <path class="st37" d="M279.8,233.3c.3-.9.8-2.6,1.1-3.4,2.2,9.5,5.7,18.7,9.8,27.5l-.5,2.1c.5,0,1.5.3,2,.4.1,4.7.1,9.3,0,14h2.1c-.4,4.1-.7,8.2-1.7,12.3.3-2.5.3-5,.5-7.4-7.8,3.1-16.3,3.2-24.4,5-.2.4-.5,1.1-.6,1.5h-.3c-2-2.1-5.1-1.1-7.6-1.2-15.2,1.1-30.4-.9-45.3-4.2l-.3-1.4c4.9.9,9.7,2.4,14.7,3,17.8,2.2,36,1.9,53.7-1.1,2.7-.4,5.3-1.2,7.8-2.4,0-5.7,2.6-11.9-.5-17.1-4.4-8.7-8.8-17.7-10.2-27.5Z"/>
  <path class="st19" d="M207.8,280.1c2.3.4,4.6.2,6.9-.1,14.8,3.3,30,5.3,45.3,4.2,2.5,0,5.6-.9,7.6,1.1-.2.1-.6.4-.8.5-4.5,1.2-9.2.8-13.8.9-12.7.3-25.4-1-37.6-4.2.2,45.6.7,91.1,1.1,136.7,5.2,1.3,10.5,2.5,15.9,3-1.2,4.7,1.1,9.1,3.5,13,0-.9.2-2.6.3-3.4,1.2,3.3,2.5,6.7,3.7,10.1,3.9-.7,7.8-1.3,11.8-1.8.4-.2,1.3-.6,1.7-.8.2-4.4.3-8.9,0-13.3-.1-1.6-.7-3.5-2.3-4.1-3.2,0-6.3.7-9.4.7-.2-42.2,0-84.5.9-126.7,1.3,0,2.6,0,3.9,0,5.9,25.6,9,51.7,11.9,77.8-.7,1.6-1.4,3.2-2,4.9,0-.7-.3-2.1-.3-2.8-.7,12.8-.1,25.5-.1,38.3,0,2.4,0,4.8,0,7.3-.4.4-1.2,1.1-1.6,1.5.4,6.3,1,12.6,1.3,19-16.7,3.5-33.5,6.7-50.5,7.8-9.1.5-18.4.6-27.4-1.3-1.5-2.7-.9-5.9,1.6-7.9,10-8.7,22.7-13.3,34.3-19.4,0-1.3,0-2.6,0-3.9-.3-15.3-.2-30.6-.6-45.8-.2-29.8-.4-59.6-.6-89.5-1.5-.5-3-1.1-4.5-1.6Z"/>
  <path class="st19" d="M268.5,283.8c8.1-1.8,16.6-1.9,24.4-5-.1,2.5-.2,5-.5,7.4-4.2,6.8-5.8,14.8-6.9,22.6,4.3-.6,4-5.8,5.5-8.9l1.5,1.2c-.5,6.4-1.8,12.8-1.8,19.3,1-.6,2.1-1.2,2.7-2.3.7-.6,1.5-1.2,2.2-1.8.8,1.6,1.6,3.1,2.3,4.7v.8c-.2.4-.7,1.1-1,1.4-.5-.5-1.5-1.5-2-2,0,3.9,0,7.8-.2,11.8-.8,28.5,1.1,57,3.7,85.4.1,2.3.2,4.6.3,6.9-1.1.5-2.2.9-3.4,1.4,3.4,12.5,7.8,25.1,7.4,38.2,0,.5-.2,1.6-.2,2.1-3.7,3.2-8.8,3.4-13.5,3.7-6,.1-12,.1-17.9-.5-3.1-.4-6.7-.8-8.9-3.4-2.4-4.1-1.9-9.1-1.6-13.7.6-8,3.2-15.6,4.1-23.5.6-.6,1.8-1.8,2.4-2.4,6.6.4,13.2.2,19.7-.8-1.8-23.9-3.9-47.7-4.4-71.6-.5-23.7-1.4-47.4,0-71-4.8.7-9.6,2.1-14.5,1.4.2-.4.5-1.1.6-1.5Z"/>
  <path class="st3" d="M216.4,419.1c-.4-45.6-.9-91.1-1.1-136.7,12.3,3.2,25,4.6,37.6,4.2,4.6-.2,9.3.2,13.8-.9.2-.1.6-.4.8-.5h.3c4.9.8,9.7-.6,14.5-1.3-1.4,23.6-.5,47.4,0,71,.6,23.9,2.6,47.8,4.4,71.6-6.5,1-13.2,1.2-19.7.8-1.9-.2-3.8-.5-5.6-.8,0-17.7-1.5-35.4-3.3-53-2.8-26.1-6-52.2-11.9-77.8-1.3,0-2.6,0-3.9,0-.9,42.2-1.1,84.5-.9,126.7-3,0-6.1-.1-9.1-.4-5.4-.5-10.7-1.7-15.9-3Z"/>
  <path class="st13" d="M292.5,301.2c1.1,3.2.4,6.7.1,10,1-1.4,2.1-2.8,3.1-4.3-.9,3.7-1.6,7.5-2.3,11.3-.6,1.1-1.7,1.7-2.7,2.3,0-6.5,1.4-12.8,1.8-19.3Z"/>
  <path class="st10" d="M296.5,305.1c.7,0,1.4.1,2.1.2-.5,5.2-1.1,10.5-.7,15.7-.7-1.6-1.5-3.1-2.3-4.7-.7.6-1.5,1.2-2.2,1.8.8-3.8,1.4-7.6,2.3-11.3.2-.4.6-1.3.8-1.8Z"/>
  <path class="st26" d="M298.6,305.4c.6,0,1.8.2,2.4.3-.3,4.9-.8,9.8-1.7,14.6-.4.4-1.1,1.3-1.4,1.7v-.8c-.5-5.2.2-10.5.7-15.7Z"/>
  <path class="st36" d="M256.2,378.4c.7-1.6,1.4-3.2,2-4.9,1.9,17.6,3.3,35.3,3.3,53,1.9.3,3.7.6,5.6.8-.6.6-1.8,1.8-2.4,2.4-2-.5-4-1-6-1.5,0-4.1,0-8.1-.1-12.2-.1-12.6-1.6-25.2-2.5-37.8Z"/>
  <path class="st9" d="M255.7,413.9c0-12.8-.6-25.5.1-38.3,0,.7.3,2.1.3,2.8.8,12.6,2.4,25.1,2.5,37.8-1-.8-2-1.5-2.9-2.3Z"/>
  <path class="st11" d="M255.7,413.9c1,.8,2,1.5,2.9,2.3.1,4.1.1,8.1.1,12.2,2,.5,4,1,6,1.5-.9,7.9-3.5,15.5-4.1,23.5-.3,4.6-.8,9.5,1.6,13.7-25.9,1.3-52.1-.5-77.2-7.2-7.9-2-15.6-5-22.4-9.6-3.4-2.2-6-6-5.8-10.3,1-4.3,4.2-7.9,8.1-9.9,4.9-2.7,9.9-5.4,15.4-6.8,10.8-2.8,21.9-5.4,33.1-6.2,0,1.3,0,2.6,0,3.9-11.6,6.1-24.3,10.7-34.3,19.4-2.5,2-3.1,5.2-1.6,7.9,9,1.9,18.3,1.9,27.4,1.3,17-1.1,33.8-4.3,50.5-7.8-.3-6.3-.9-12.6-1.3-19,.4-.4,1.2-1.1,1.6-1.5,0-2.4,0-4.9,0-7.3Z"/>
  <path class="st11" d="M298.3,418.5c4,0,7.9,1.4,11.8,2.3,8.6,2,17.2,4.7,24.8,9.3,3.6,2.4,7.3,5.6,8.3,10,.3,6.3-5.6,10.1-10.3,13-7.8,4.2-16.4,6.8-25,8.7-2.2.3-3.8,1.7-5.2,3.3.4-13.1-4-25.7-7.4-38.2,1.1-.5,2.2-.9,3.4-1.4-.1-2.3-.2-4.6-.3-6.9Z"/>
  <path class="st30" d="M232.4,422.1c3,.2,6.1.3,9.1.4,3.2,0,6.3-.8,9.4-.7,1.6.6,2.2,2.5,2.3,4.1.4,4.4.2,8.9,0,13.3-.4.2-1.3.6-1.7.8.2-5.3,0-10.6-.2-15.8-6.1,0-12.2.4-18.3.4,1,2.4,2.1,4.8,3,7.2,0,.9-.2,2.6-.3,3.4-2.3-4-4.6-8.3-3.5-13Z"/>
  <path class="st9" d="M211,424.8c.9-.5,1.7-1.5,2.8-1.6,1.8,1,3.6,2.2,4.9,3.9.5,1.3-.6,2.5-1.9,2.1-2.1-1.2-3.9-2.9-5.8-4.4Z"/>
  <path class="st19" d="M233.1,424.5c6.1,0,12.2-.3,18.3-.4.2,5.3.4,10.5.2,15.8-4,.6-7.9,1.1-11.8,1.8-1.2-3.4-2.4-6.7-3.7-10.1-.9-2.5-1.9-4.8-3-7.2Z"/>
  <path class="st35" d="M203.1,428.9c1-.7,2-2.1,3.3-1.3,1.5,1.1,2.7,2.5,4,3.9-.5.5-1.4,1.4-1.8,1.9-2-1.2-3.9-2.7-5.5-4.5Z"/>
  <path class="st21" d="M196.4,431.5c2.1-.8,3.5,1.5,5.1,2.4,0,1,0,2,0,3-2.5-.4-6.4-2.3-5.1-5.4Z"/>
  <path class="st31" d="M272.3,434c5.2-.3,10.5-.6,15.8-.2.5.3,1.5,1,2,1.3-.5.4-1.6,1.1-2.1,1.5-5.1.2-10.2.2-15.3,0,0-.6-.3-1.9-.3-2.5Z"/>
  <path class="st27" d="M272.2,441.1c5.2-.5,10.5,0,15.7.4,1.9,0,2.5,3.2,0,2.9-5.2,0-10.4-.5-15.7-.9,0-.6,0-1.8-.1-2.4Z"/>
  <path class="st35" d="M272.3,451.5c.2-1.1.1-3.2,1.8-3,5.2.3,11-1.3,15.9,1.1-.7,1.6-2.1,2.7-3.9,2.5-4.6,0-9.2-.4-13.8-.6Z"/>
  <path class="st35" d="M272,457.1c1.9-2.5,5.2-1.8,8-2.1,3.1,0,6.5-.8,9.4.8,0,.6,0,1.9,0,2.6-4.2-.2-8.3-.5-12.5,0-1.8.3-3.4-.2-4.9-1.1Z"/>
</svg>