<?xml version="1.0" encoding="utf-8"?>
<svg xmlns="http://www.w3.org/2000/svg" height="512pt" version="1.1" viewBox="0 0 512 512" width="512pt">
<path d="M 0.00 0.00 L 512.00 0.00 L 512.00 512.00 L 0.00 512.00 L 0.00 0.00 Z" fill="transparent" opacity="1.00" stroke="transparent" stroke-width="0.25"/>
<path d="M 278.17 132.84 C 286.71 120.12 305.71 115.75 318.87 123.84 C 326.75 128.48 332.19 136.84 333.38 145.89 C 334.11 153.63 332.38 161.57 328.42 168.27 C 333.59 174.80 338.73 182.29 338.43 191.02 C 337.78 200.72 331.85 209.55 324.16 215.20 C 324.53 217.66 326.07 219.65 327.18 221.81 C 334.82 236.96 340.42 253.29 342.61 270.15 C 349.68 265.93 357.14 262.12 365.41 260.98 C 376.35 259.23 388.66 261.48 396.84 269.40 C 404.63 276.24 407.71 287.60 404.79 297.51 C 400.85 311.05 391.25 322.00 381.29 331.58 C 379.20 333.55 377.03 335.41 374.86 337.28 C 382.10 336.14 389.41 335.36 396.57 333.69 C 398.10 333.48 399.65 333.53 401.20 333.49 C 401.38 333.65 401.74 333.96 401.92 334.12 C 403.70 335.70 406.05 337.38 405.87 340.08 C 406.19 343.30 403.58 345.48 401.47 347.44 C 407.18 348.06 413.01 348.26 418.56 349.80 C 423.07 351.48 422.89 359.37 417.96 360.29 C 408.39 362.24 398.56 360.90 388.91 360.46 C 388.40 364.64 387.79 369.44 383.95 371.97 C 378.40 375.74 371.29 374.24 365.03 373.79 C 353.19 372.53 341.45 370.42 329.91 367.46 C 326.77 366.13 325.34 370.06 324.21 372.21 C 321.92 379.63 320.09 387.32 316.38 394.20 C 314.38 398.03 308.29 397.06 306.31 393.68 C 303.88 389.71 303.06 385.03 301.55 380.68 C 297.86 383.96 295.28 388.33 291.32 391.32 C 287.04 394.52 279.37 390.60 280.60 385.01 C 281.73 379.39 283.74 373.93 286.52 368.92 C 281.85 371.19 276.91 375.13 271.43 373.38 C 267.87 372.39 266.39 368.04 267.72 364.81 C 269.72 361.67 272.70 359.34 275.32 356.76 C 260.03 356.95 244.74 357.32 229.45 356.72 C 231.94 359.16 234.78 361.30 236.80 364.18 C 239.02 367.56 236.91 372.77 232.89 373.52 C 227.56 374.60 222.74 371.26 218.31 368.80 C 220.91 373.90 223.29 379.25 224.24 384.94 C 225.27 390.45 217.96 394.44 213.62 391.31 C 209.63 388.27 206.58 384.22 203.54 380.29 C 201.83 384.76 201.06 389.65 198.53 393.77 C 196.47 397.08 190.65 398.01 188.62 394.22 C 184.92 387.49 183.24 379.89 181.10 372.58 C 179.54 369.21 177.22 366.25 175.64 362.89 C 160.31 368.58 144.34 372.91 127.99 374.28 C 123.73 374.43 118.83 374.61 115.41 371.62 C 112.21 368.94 112.51 364.34 111.81 360.60 C 102.62 361.05 93.28 362.06 84.16 360.44 C 78.92 359.71 78.60 350.82 83.69 349.60 C 88.90 348.22 94.36 348.23 99.69 347.47 C 96.59 345.47 93.27 341.71 95.55 337.89 C 97.73 335.64 100.72 333.85 103.97 334.28 C 111.78 334.83 119.50 336.28 127.32 336.77 C 126.42 334.45 124.32 333.04 122.63 331.36 C 113.62 322.97 105.48 313.23 100.76 301.75 C 97.75 294.14 97.06 285.04 101.06 277.66 C 104.81 270.34 111.67 264.65 119.56 262.31 C 132.11 258.15 146.04 261.24 157.20 267.78 C 159.14 250.31 165.53 232.83 177.73 219.90 C 172.31 213.98 167.35 207.16 166.27 198.98 C 163.76 185.77 171.30 173.10 180.71 164.45 C 177.91 157.36 176.46 149.47 178.34 141.97 C 180.73 131.06 190.10 122.08 201.14 120.28 C 212.52 117.88 224.44 123.42 231.50 132.34 C 241.16 130.02 251.18 130.00 261.05 130.50 C 266.82 130.77 272.41 132.49 278.17 132.84 Z" fill="#042b4a" opacity="1.00" stroke="#042b4a" stroke-width="0.25"/>
<path d="M 200.35 136.56 C 209.49 133.40 220.53 141.20 219.82 151.04 C 220.33 159.51 212.64 167.35 204.09 166.54 C 194.79 166.59 187.92 156.52 190.25 147.79 C 191.09 142.47 195.29 138.15 200.35 136.56 Z" fill="#ffffff" opacity="1.00" stroke="#ffffff" stroke-width="0.25"/>
<path d="M 298.60 136.77 C 307.88 133.04 319.10 141.07 318.68 151.01 C 319.24 159.07 312.16 166.67 304.05 166.55 C 296.76 167.05 289.80 161.28 288.85 154.06 C 287.30 146.91 291.65 139.10 298.60 136.77 Z" fill="#ffffff" opacity="1.00" stroke="#ffffff" stroke-width="0.25"/>
<path d="M 202.33 139.54 C 205.97 138.67 210.43 138.84 213.04 141.89 C 217.65 145.95 217.70 154.05 213.05 158.11 C 207.76 163.15 197.68 160.76 195.54 153.64 C 193.52 148.05 196.68 141.36 202.33 139.54 Z" fill="#042b4a" opacity="1.00" stroke="#042b4a" stroke-width="0.25"/>
<path d="M 301.42 139.59 C 305.03 138.74 309.47 138.88 312.12 141.85 C 316.19 145.45 316.73 152.18 313.53 156.50 C 309.69 162.46 299.48 162.21 295.86 156.15 C 292.04 150.48 294.58 141.50 301.42 139.59 Z" fill="#042b4a" opacity="1.00" stroke="#042b4a" stroke-width="0.25"/>
<path d="M 229.60 144.39 C 245.89 140.35 263.25 140.65 279.30 145.65 C 278.96 150.74 278.84 156.09 280.98 160.85 C 284.41 168.42 291.56 174.47 299.88 175.76 C 305.76 176.88 311.93 175.56 317.05 172.53 C 321.02 176.86 324.89 181.60 326.73 187.27 C 328.60 193.28 324.73 198.79 321.83 203.70 C 321.21 199.78 318.44 196.78 314.87 195.26 C 316.05 190.98 311.04 189.57 307.92 191.14 C 272.42 201.86 234.03 203.10 198.04 193.98 C 195.00 193.33 191.41 191.49 188.61 193.67 C 186.86 195.07 187.94 197.32 188.38 199.08 C 184.66 200.29 182.20 203.48 181.12 207.13 C 179.21 203.32 177.06 199.39 177.20 195.00 C 176.55 185.38 183.44 177.63 189.68 171.18 C 192.68 171.95 195.02 174.24 198.04 174.99 C 207.05 178.00 217.60 174.91 223.63 167.59 C 229.37 161.43 231.18 152.51 229.60 144.39 Z" fill="#77e7fe" opacity="1.00" stroke="#77e7fe" stroke-width="0.25"/>
<path d="M 233.00 174.62 C 230.75 169.31 235.82 162.16 241.46 162.51 C 241.83 167.30 239.11 171.57 235.59 174.55 C 234.94 174.57 233.64 174.60 233.00 174.62 Z" fill="#042b4a" opacity="1.00" stroke="#042b4a" stroke-width="0.25"/>
<path d="M 263.43 164.65 C 265.73 163.40 268.36 163.13 270.94 163.08 C 270.80 164.12 270.66 165.16 270.52 166.20 C 266.73 169.31 262.45 172.66 257.26 172.46 C 256.68 168.54 260.38 166.13 263.43 164.65 Z" fill="#042b4a" opacity="1.00" stroke="#042b4a" stroke-width="0.25"/>
<path d="M 310.18 199.11 C 314.36 197.01 318.99 201.86 318.44 206.04 C 318.48 208.01 316.74 209.23 315.51 210.50 C 308.84 216.35 300.92 220.68 292.64 223.82 C 266.77 233.62 237.75 235.02 211.13 227.42 C 202.06 224.57 193.00 220.57 186.19 213.75 C 183.81 211.34 184.88 207.74 185.63 204.86 C 188.01 203.18 190.60 200.28 193.82 201.39 C 211.28 206.92 229.73 208.84 247.99 208.78 C 269.06 209.14 290.27 206.14 310.18 199.11 Z" fill="#ffffff" opacity="1.00" stroke="#ffffff" stroke-width="0.25"/>
<path d="M 298.14 231.11 C 304.00 228.89 309.40 225.67 314.97 222.84 C 326.18 242.75 331.78 265.40 333.50 288.07 C 334.14 301.08 334.16 314.23 331.66 327.06 C 329.38 339.17 326.05 351.58 318.35 361.46 C 316.65 363.67 314.13 365.47 313.63 368.39 C 312.63 373.08 311.12 377.64 309.88 382.27 C 308.06 378.64 307.46 374.14 304.21 371.40 C 299.27 371.38 296.21 376.28 292.52 378.97 C 292.59 373.13 295.14 367.53 294.37 361.64 C 289.75 360.81 285.60 363.25 281.13 363.73 C 286.33 360.19 290.03 354.92 295.31 351.49 C 307.75 324.20 312.26 293.86 311.47 264.03 C 311.31 259.87 310.77 255.71 309.28 251.80 C 307.63 250.07 304.32 249.82 303.78 252.65 C 302.69 257.80 303.55 263.15 302.65 268.34 C 299.25 257.74 288.03 252.78 278.23 249.70 C 258.40 244.21 236.51 245.30 217.66 253.76 C 209.57 257.30 202.75 263.92 200.03 272.44 C 199.12 265.46 200.43 257.84 197.25 251.38 C 196.06 251.37 194.86 251.36 193.68 251.35 C 191.37 254.77 191.28 259.02 190.96 262.99 C 191.16 292.76 196.61 322.77 208.96 349.96 C 210.01 352.16 212.34 353.25 213.98 354.94 C 217.20 358.02 220.33 361.23 223.95 363.86 C 219.52 363.05 215.28 361.01 210.67 361.60 C 209.49 367.46 212.26 373.08 212.53 378.89 C 209.60 376.68 206.97 374.09 203.99 371.95 C 203.00 371.08 201.59 371.13 200.42 371.53 C 197.51 374.36 196.70 378.56 195.11 382.15 C 193.91 377.55 192.51 373.01 191.43 368.38 C 190.68 365.00 187.68 362.88 185.93 360.05 C 180.18 351.47 177.06 341.47 174.53 331.55 C 170.06 314.07 167.98 296.03 168.01 278.00 C 168.25 269.26 169.03 260.41 171.94 252.11 C 175.08 242.60 180.42 233.91 187.05 226.43 C 203.81 236.51 223.74 239.88 243.03 240.52 C 261.76 240.86 280.63 237.85 298.14 231.11 Z" fill="#77e7fe" opacity="1.00" stroke="#77e7fe" stroke-width="0.25"/>
<path d="M 218.95 257.15 C 238.92 248.47 262.26 247.70 282.72 255.19 C 290.21 257.79 297.62 262.92 299.93 270.89 C 302.64 277.02 301.55 283.76 300.55 290.13 C 298.32 309.18 293.17 327.75 286.33 345.64 C 269.59 346.74 252.81 346.43 236.05 346.40 C 230.22 346.53 224.44 345.55 218.62 345.61 C 211.38 328.40 206.37 310.33 203.22 291.94 C 202.33 286.35 201.00 280.50 203.07 275.00 C 205.15 266.87 211.39 260.48 218.95 257.15 Z" fill="#ffffff" opacity="1.00" stroke="#ffffff" stroke-width="0.25"/>
<path d="M 116.43 276.45 C 123.71 271.09 133.67 270.70 142.05 273.45 C 147.39 274.89 151.83 278.25 156.62 280.85 C 157.38 284.84 157.05 288.92 157.33 292.94 C 157.49 298.00 158.43 303.00 158.59 308.06 C 152.77 300.98 146.72 293.23 138.09 289.55 C 134.88 288.51 134.98 292.78 136.86 294.18 C 144.22 302.72 151.76 311.19 160.35 318.52 C 162.09 330.41 165.50 341.98 169.85 353.16 C 155.06 358.77 139.47 362.72 123.65 363.67 C 123.19 361.17 123.39 358.27 121.83 356.15 C 116.14 353.52 109.61 355.13 103.63 353.93 C 106.41 353.23 109.25 352.76 112.06 352.21 C 112.46 351.62 113.26 350.45 113.66 349.86 C 112.67 348.51 111.56 347.25 110.23 346.23 C 122.76 347.95 135.29 349.90 147.95 350.25 C 149.99 350.35 152.00 349.91 153.90 349.20 C 154.29 348.69 155.06 347.67 155.45 347.16 C 155.45 346.36 155.47 344.76 155.48 343.96 C 153.46 342.18 151.47 340.34 149.32 338.71 C 138.28 330.62 127.43 321.92 119.02 311.01 C 115.18 305.88 111.57 300.35 110.22 293.99 C 108.61 287.60 111.01 280.31 116.43 276.45 Z" fill="#77e7fe" opacity="1.00" stroke="#77e7fe" stroke-width="0.25"/>
<path d="M 366.86 272.32 C 376.16 270.38 387.52 273.11 392.47 281.86 C 396.11 288.47 393.97 296.40 390.55 302.62 C 382.47 316.69 369.84 327.33 357.07 336.99 C 354.03 339.14 351.07 341.41 348.38 343.99 C 348.41 344.82 348.45 346.47 348.47 347.29 C 350.05 349.28 352.39 350.62 355.01 350.29 C 367.12 350.14 379.12 348.16 391.05 346.26 C 390.43 347.17 389.79 348.07 389.17 348.98 C 389.22 349.60 389.33 350.83 389.38 351.45 C 391.91 352.56 394.63 353.06 397.29 353.73 C 391.29 355.37 384.31 353.43 378.65 356.68 C 378.08 359.04 377.44 361.38 376.87 363.74 C 362.52 363.36 348.34 360.54 334.38 357.36 C 339.65 344.94 342.76 331.71 344.48 318.36 C 350.11 312.73 356.06 307.30 361.15 301.13 C 363.66 298.08 366.75 295.46 368.65 291.96 C 368.54 291.37 368.30 290.19 368.18 289.61 C 365.47 289.09 363.12 290.79 361.01 292.21 C 354.94 296.73 349.97 302.53 345.27 308.40 C 345.40 299.93 345.11 291.47 344.55 283.01 C 351.46 278.49 358.47 273.53 366.86 272.32 Z" fill="#77e7fe" opacity="1.00" stroke="#77e7fe" stroke-width="0.25"/>
<path d="M 374.86 337.28 C 377.03 335.41 379.20 333.55 381.29 331.58 C 386.07 333.76 391.88 330.97 396.57 333.69 C 389.41 335.36 382.10 336.14 374.86 337.28 Z" fill="#77e7fe" opacity="1.00" stroke="#77e7fe" stroke-width="0.25"/>
<path d="M 401.92 334.12 C 404.52 333.13 407.35 333.57 410.07 333.64 C 417.09 334.30 424.13 334.96 431.07 336.24 C 434.10 337.03 437.37 338.02 439.56 340.40 C 439.95 342.75 437.91 344.31 436.15 345.41 C 433.41 347.03 430.47 348.30 427.63 349.76 C 427.56 350.17 427.42 350.99 427.35 351.39 C 439.90 353.15 453.50 353.51 464.35 360.86 C 464.35 362.83 464.81 364.93 464.08 366.84 C 460.67 371.07 455.81 373.78 450.94 375.99 C 444.93 378.61 438.75 380.82 432.48 382.69 C 398.17 392.61 362.44 396.01 327.01 399.07 C 310.40 400.04 293.83 401.65 277.17 401.66 C 258.49 403.26 239.69 401.90 221.01 403.19 C 216.32 402.33 211.63 402.96 206.94 403.30 C 195.00 402.25 182.98 402.81 171.01 402.42 C 162.32 402.65 153.70 401.53 145.03 401.26 C 138.17 399.93 130.53 401.29 124.41 397.26 C 124.46 396.38 124.55 395.52 124.67 394.66 C 129.18 390.43 135.51 389.22 140.45 385.67 C 130.94 384.24 121.30 384.24 111.76 383.12 C 96.93 381.33 81.91 380.16 67.46 376.16 C 64.59 375.47 62.02 374.00 59.58 372.41 C 59.56 371.08 59.53 369.75 59.51 368.42 C 62.74 365.88 66.29 363.80 70.03 362.11 L 69.23 360.73 C 64.00 358.13 58.31 356.51 53.18 353.69 C 51.66 352.86 50.23 351.75 49.56 350.10 C 49.83 346.67 53.59 345.68 56.26 344.69 C 69.01 340.74 82.41 339.69 95.55 337.89 C 93.27 341.71 96.59 345.47 99.69 347.47 C 94.36 348.23 88.90 348.22 83.69 349.60 C 78.60 350.82 78.92 359.71 84.16 360.44 C 93.28 362.06 102.62 361.05 111.81 360.60 C 112.51 364.34 112.21 368.94 115.41 371.62 C 118.83 374.61 123.73 374.43 127.99 374.28 C 144.34 372.91 160.31 368.58 175.64 362.89 C 177.22 366.25 179.54 369.21 181.10 372.58 C 183.24 379.89 184.92 387.49 188.62 394.22 C 190.65 398.01 196.47 397.08 198.53 393.77 C 201.06 389.65 201.83 384.76 203.54 380.29 C 206.58 384.22 209.63 388.27 213.62 391.31 C 217.96 394.44 225.27 390.45 224.24 384.94 C 223.29 379.25 220.91 373.90 218.31 368.80 C 222.74 371.26 227.56 374.60 232.89 373.52 C 236.91 372.77 239.02 367.56 236.80 364.18 C 234.78 361.30 231.94 359.16 229.45 356.72 C 244.74 357.32 260.03 356.95 275.32 356.76 C 272.70 359.34 269.72 361.67 267.72 364.81 C 266.39 368.04 267.87 372.39 271.43 373.38 C 276.91 375.13 281.85 371.19 286.52 368.92 C 283.74 373.93 281.73 379.39 280.60 385.01 C 279.37 390.60 287.04 394.52 291.32 391.32 C 295.28 388.33 297.86 383.96 301.55 380.68 C 303.06 385.03 303.88 389.71 306.31 393.68 C 308.29 397.06 314.38 398.03 316.38 394.20 C 320.09 387.32 321.92 379.63 324.21 372.21 C 325.34 370.06 326.77 366.13 329.91 367.46 C 341.45 370.42 353.19 372.53 365.03 373.79 C 371.29 374.24 378.40 375.74 383.95 371.97 C 387.79 369.44 388.40 364.64 388.91 360.46 C 398.56 360.90 408.39 362.24 417.96 360.29 C 422.89 359.37 423.07 351.48 418.56 349.80 C 413.01 348.26 407.18 348.06 401.47 347.44 C 403.58 345.48 406.19 343.30 405.87 340.08 C 406.05 337.38 403.70 335.70 401.92 334.12 Z" fill="#77e7fe" opacity="1.00" stroke="#77e7fe" stroke-width="0.25"/>
</svg>