<svg xmlns="http://www.w3.org/2000/svg" height="512pt" version="1.1" viewBox="0 0 512 512" width="512pt">

<path d="M 352.27 79.89 C 360.77 71.84 368.77 63.25 377.41 55.35 C 377.79 56.54 377.65 57.77 376.81 58.72 C 374.37 62.43 371.17 65.53 367.81 68.40 C 367.62 71.52 365.07 73.65 363.90 76.40 C 362.85 78.93 360.94 80.92 359.18 82.97 C 365.39 79.89 369.65 74.28 374.83 69.88 C 378.05 67.05 382.44 66.70 386.51 66.22 C 386.38 67.67 386.24 69.12 386.26 70.58 C 388.25 70.40 389.83 68.60 391.62 67.76 C 391.72 70.38 389.45 72.10 388.09 74.06 C 390.12 72.99 392.09 71.81 394.17 70.81 C 395.84 72.04 393.70 73.23 393.02 74.35 C 391.21 76.46 389.56 78.71 388.04 81.03 C 389.69 80.34 391.34 79.65 392.99 78.95 C 391.69 81.29 390.41 83.64 389.12 85.99 C 391.09 85.78 393.05 85.57 395.02 85.36 C 393.99 88.09 392.91 90.80 391.79 93.49 C 392.40 93.51 393.62 93.56 394.23 93.58 C 392.37 96.84 390.05 99.95 389.30 103.71 C 388.77 106.13 387.61 108.33 386.33 110.44 C 384.06 113.72 384.53 118.56 380.53 120.57 C 380.83 120.79 381.42 121.23 381.72 121.45 C 379.45 124.87 376.68 127.90 373.82 130.84 C 372.42 132.13 372.07 134.05 371.54 135.79 C 372.33 135.96 373.91 136.31 374.71 136.48 C 372.68 138.42 370.90 140.61 369.48 143.02 C 367.46 146.09 364.58 148.43 362.38 151.35 C 357.90 157.18 351.99 161.70 347.38 167.42 C 344.72 170.73 341.60 173.62 338.85 176.85 C 328.94 189.22 317.51 200.27 307.88 212.88 C 304.62 216.47 300.22 219.52 299.49 224.71 C 299.12 224.18 298.76 223.65 298.39 223.13 C 298.18 223.92 297.76 225.50 297.54 226.29 C 295.11 221.08 293.42 215.57 292.71 209.86 L 292.32 209.74 C 292.19 202.60 292.57 195.45 292.26 188.30 C 292.40 188.43 292.69 188.69 292.83 188.82 C 293.05 195.12 292.36 201.54 293.08 207.77 C 293.30 207.80 293.74 207.85 293.95 207.88 C 294.51 202.62 294.33 197.32 294.16 192.05 C 298.91 184.70 305.96 179.26 311.52 172.58 C 315.29 168.03 319.78 164.15 323.59 159.63 C 326.71 155.91 331.02 153.50 334.29 149.93 C 335.25 150.56 336.21 151.20 337.17 151.84 C 340.27 148.59 343.32 145.15 347.45 143.18 C 347.80 142.33 348.16 141.49 348.52 140.64 C 354.48 138.37 360.36 134.64 362.75 128.42 C 364.24 128.07 365.74 127.73 367.24 127.39 C 368.37 124.26 369.34 120.98 371.31 118.25 C 372.94 115.93 376.10 115.26 377.76 113.08 C 377.33 111.69 376.70 110.37 376.30 108.97 C 377.93 104.53 381.16 100.94 384.42 97.61 C 384.62 95.14 383.81 92.64 384.31 90.20 C 385.29 88.04 386.82 86.19 388.22 84.30 C 386.05 85.49 383.70 86.95 381.18 85.88 C 381.69 84.46 382.22 83.05 382.74 81.64 C 379.76 82.54 377.17 84.30 374.34 85.52 C 371.45 86.15 368.61 84.72 365.72 84.82 C 360.43 86.53 355.58 89.66 352.11 94.04 C 354.87 93.57 357.58 92.89 360.28 92.16 C 358.85 95.82 355.49 97.97 352.38 100.07 C 352.17 98.46 351.96 96.85 351.75 95.23 C 350.48 95.71 349.22 96.18 347.96 96.66 C 348.56 97.41 349.16 98.16 349.77 98.92 C 348.04 102.27 346.18 105.81 342.76 107.71 C 339.94 109.74 336.42 110.04 333.26 111.25 C 331.90 112.30 331.01 113.82 329.99 115.18 C 331.84 114.11 333.66 112.99 335.48 111.87 C 335.91 113.23 336.42 114.57 336.69 115.98 C 333.86 120.27 331.20 124.94 326.82 127.84 C 322.36 131.07 319.70 136.04 316.05 140.06 C 316.29 141.04 316.53 142.03 316.77 143.01 C 310.20 150.35 303.25 157.36 296.91 164.91 C 294.77 167.11 292.24 168.88 289.91 170.87 C 290.63 171.96 291.35 173.05 292.08 174.15 C 291.83 174.69 291.32 175.77 291.07 176.31 C 289.34 172.23 285.77 169.46 283.22 165.96 C 281.24 161.09 280.70 155.78 279.66 150.65 C 284.65 148.24 287.95 143.63 291.82 139.84 C 301.00 130.68 309.98 121.33 319.44 112.46 C 322.31 109.70 325.69 107.46 328.24 104.37 C 331.68 99.84 337.23 97.32 340.09 92.29 C 338.68 92.43 337.27 92.57 335.86 92.71 C 338.82 89.39 342.44 86.73 345.15 83.18 C 346.78 80.94 349.06 79.37 351.52 78.17 C 351.71 78.60 352.08 79.46 352.27 79.89 Z" fill="#bdeefe" opacity="1.00" stroke="#bdeefe" stroke-width="0.25" data-index="1" style="opacity: 1; visibility: hidden;"></path>

<path d="M 333.36 87.28 C 337.25 83.89 340.23 79.36 344.88 76.93 C 342.73 81.54 338.51 84.59 335.27 88.37 C 328.69 94.77 322.33 101.43 315.16 107.20 C 314.17 108.01 313.01 108.58 311.87 109.14 C 317.36 100.41 326.42 94.77 333.36 87.28 Z" fill="#d3eef3" opacity="1.00" stroke="#d3eef3" stroke-width="0.25" data-index="3"></path>

<path d="M 253.92 101.59 C 256.95 99.89 261.25 99.36 263.59 102.46 C 268.79 108.77 271.55 116.71 273.74 124.49 C 276.40 133.04 278.11 141.84 279.66 150.65 C 280.70 155.78 281.24 161.09 283.22 165.96 C 285.77 169.46 289.34 172.23 291.07 176.31 C 292.96 181.35 293.85 186.69 294.16 192.05 C 294.33 197.32 294.51 202.62 293.95 207.88 C 293.74 207.85 293.30 207.80 293.08 207.77 C 292.36 201.54 293.05 195.12 292.83 188.82 C 292.69 188.69 292.40 188.43 292.26 188.30 C 291.75 183.33 290.70 178.25 288.01 173.96 C 285.76 170.17 280.15 170.42 276.85 172.61 C 271.59 176.25 267.10 181.71 266.12 188.19 C 264.58 197.33 266.90 206.89 263.38 215.72 C 264.49 216.23 265.61 216.74 266.73 217.25 C 266.26 217.45 265.31 217.84 264.84 218.03 C 263.40 217.50 261.95 216.97 260.52 216.47 L 260.24 215.95 C 259.44 216.48 258.71 217.10 257.98 217.73 C 255.88 208.58 253.16 199.59 251.07 190.43 C 247.66 190.54 244.25 190.72 240.84 190.91 C 240.86 190.29 240.91 189.05 240.94 188.43 C 244.32 190.03 248.15 188.84 251.71 188.70 C 252.89 185.45 253.52 182.00 252.97 178.56 C 252.82 176.55 252.90 174.30 251.46 172.71 C 251.09 174.01 250.92 175.34 250.94 176.70 C 250.45 177.71 251.01 180.35 249.14 179.62 C 246.06 176.50 247.41 171.74 247.34 167.82 C 245.77 167.81 244.43 167.11 243.56 165.76 C 243.28 166.81 243.00 167.86 242.73 168.91 C 241.61 168.23 240.50 167.55 239.41 166.85 C 238.59 164.03 235.57 163.08 233.53 161.35 C 235.85 161.55 238.14 162.01 240.43 162.41 C 240.88 163.58 241.35 164.75 241.86 165.90 C 243.77 164.53 245.35 159.60 241.15 161.15 C 238.64 160.58 236.03 160.26 233.48 160.73 C 234.27 156.57 235.08 152.41 235.44 148.19 C 230.44 144.39 229.42 137.86 228.93 132.03 C 226.80 129.81 224.66 127.29 224.80 123.98 C 224.48 114.40 232.38 107.22 240.24 103.17 C 244.46 100.86 249.32 101.33 253.92 101.59 Z" fill="#0f2242" opacity="1.00" stroke="#0f2242" stroke-width="0.25" data-index="5"></path>
<path d="M 252.87 103.28 C 255.39 103.97 257.46 100.81 259.93 102.01 C 262.59 102.89 264.26 105.22 265.41 107.65 C 275.04 125.35 276.53 145.83 281.09 165.12 C 277.45 163.47 273.99 161.23 270.03 160.45 C 268.11 160.92 266.57 162.31 264.94 163.35 C 262.47 163.12 259.97 163.06 257.57 162.41 C 255.88 161.23 256.25 158.83 255.93 157.04 C 255.84 152.30 255.20 147.39 256.76 142.81 C 257.51 140.48 257.71 137.99 258.55 135.69 C 259.79 134.55 261.35 133.76 262.44 132.46 C 263.20 129.87 263.33 126.00 260.36 124.76 C 258.45 123.84 256.62 125.27 254.91 125.94 C 254.80 124.38 254.69 122.82 254.58 121.26 C 249.80 119.24 244.54 118.17 239.35 118.55 C 239.20 118.45 238.90 118.27 238.75 118.17 C 238.72 115.20 236.59 113.02 234.86 110.83 C 236.66 109.12 238.41 107.36 239.93 105.41 C 240.12 105.17 240.51 104.69 240.70 104.46 C 244.54 102.77 248.77 102.28 252.87 103.28 Z" fill="#674642" opacity="1.00" stroke="#674642" stroke-width="0.25" data-index="6"></path>
<path d="M 226.41 123.92 C 225.82 115.53 232.52 108.27 239.93 105.41 C 238.41 107.36 236.66 109.12 234.86 110.83 C 236.59 113.02 238.72 115.20 238.75 118.17 C 237.05 116.96 235.50 115.54 233.96 114.14 C 232.88 116.30 231.82 118.46 230.80 120.65 C 230.38 120.65 229.52 120.65 229.10 120.65 C 228.08 123.19 228.62 126.04 228.30 128.70 C 226.54 127.73 226.55 125.63 226.41 123.92 Z" fill="#4a404b" opacity="1.00" stroke="#4a404b" stroke-width="0.25" data-index="7"></path>
<path d="M 233.96 114.14 C 235.50 115.54 237.05 116.96 238.75 118.17 C 238.90 118.27 239.20 118.45 239.35 118.55 C 243.72 121.12 249.25 119.76 253.58 122.58 C 253.68 124.67 253.80 126.75 253.92 128.84 C 255.94 127.92 257.89 125.47 260.32 126.52 C 262.00 127.73 261.39 129.94 261.57 131.71 C 260.00 132.75 258.34 133.67 256.79 134.76 C 256.19 138.20 256.40 142.16 253.93 144.94 C 251.00 147.76 247.17 150.13 242.96 149.90 C 239.09 150.00 235.99 147.07 233.71 144.26 C 229.71 138.56 230.53 131.19 230.16 124.60 C 232.13 124.50 234.11 124.43 236.07 124.22 C 235.48 121.34 231.97 122.98 229.94 122.55 C 230.15 122.07 230.59 121.13 230.80 120.65 C 231.82 118.46 232.88 116.30 233.96 114.14 Z" fill="#fccfba" opacity="1.00" stroke="#fccfba" stroke-width="0.25" data-index="8"></path>
<path d="M 239.85 123.00 C 242.50 122.27 246.45 120.18 248.52 122.87 C 245.68 123.38 242.57 124.55 239.85 123.00 Z" fill="#0f2242" opacity="1.00" stroke="#0f2242" stroke-width="0.25" data-index="9"></path>
<path d="M 234.58 134.35 C 235.40 131.17 235.73 127.25 238.43 125.06 C 238.02 127.98 237.16 130.81 236.24 133.60 C 236.61 133.71 237.35 133.93 237.72 134.04 C 237.99 133.60 238.54 132.72 238.81 132.28 C 240.34 131.89 239.50 133.97 239.72 134.78 C 238.38 136.02 235.73 135.76 234.58 134.35 Z" fill="#282836" opacity="1.00" stroke="#282836" stroke-width="0.25" data-index="10"></path>
<path d="M 244.32 125.25 C 245.45 125.22 246.58 125.20 247.71 125.19 C 247.70 125.83 247.68 127.11 247.66 127.75 C 246.58 127.74 245.51 127.72 244.43 127.70 C 244.41 127.08 244.35 125.86 244.32 125.25 Z" fill="#282836" opacity="1.00" stroke="#282836" stroke-width="0.25" data-index="11"></path>
<path d="M 231.70 125.79 C 232.39 125.97 233.77 126.34 234.46 126.52 C 234.32 127.36 234.19 128.20 234.05 129.05 C 233.20 129.16 232.35 129.28 231.50 129.40 C 231.39 128.19 231.43 126.98 231.70 125.79 Z" fill="#282836" opacity="1.00" stroke="#282836" stroke-width="0.25" data-index="12"></path>
<path d="M 234.15 140.49 C 238.85 138.57 244.18 139.12 248.98 137.37 C 247.65 140.42 245.43 143.21 241.96 143.78 C 238.86 145.01 236.13 142.54 234.15 140.49 Z" fill="#282836" opacity="1.00" stroke="#282836" stroke-width="0.25" data-index="13"></path>
<path d="M 236.93 141.16 C 240.01 140.60 243.09 140.09 246.19 139.63 C 244.00 142.15 239.64 143.92 236.93 141.16 Z" fill="#effcff" opacity="1.00" stroke="#effcff" stroke-width="0.25" data-index="14"></path>
<path d="M 246.32 151.37 C 249.25 150.18 251.97 148.54 254.55 146.70 C 254.36 149.48 254.55 152.28 254.27 155.06 C 252.89 157.91 251.44 160.73 250.55 163.79 C 249.09 163.67 247.64 163.54 246.20 163.43 C 246.53 159.42 246.70 155.38 246.32 151.37 Z" fill="#ffffff" opacity="1.00" stroke="#ffffff" stroke-width="0.25" data-index="15"></path>
<path d="M 236.91 150.00 C 239.55 150.69 242.20 151.36 244.85 151.98 C 244.93 153.28 245.01 154.58 245.10 155.88 C 242.03 156.53 238.98 159.50 235.80 158.21 C 235.52 155.43 236.39 152.70 236.91 150.00 Z" fill="#644542" opacity="1.00" stroke="#644542" stroke-width="0.25" data-index="16"></path>
<path d="M 247.48 152.77 C 249.20 151.34 251.08 150.07 253.22 149.32 C 253.08 149.89 252.80 151.03 252.66 151.60 C 252.92 152.18 253.44 153.33 253.69 153.90 C 252.01 156.45 250.64 159.21 249.99 162.21 C 249.20 162.25 247.61 162.32 246.82 162.36 C 247.38 159.20 247.55 155.98 247.48 152.77 Z" fill="#ffceb4" opacity="1.00" stroke="#ffceb4" stroke-width="0.25" data-index="17"></path>

<path d="M 240.82 158.87 C 242.30 158.39 243.77 157.94 245.26 157.50 C 246.80 161.23 242.24 160.24 240.82 158.87 Z" fill="#dff4fb" opacity="1.00" stroke="#dff4fb" stroke-width="0.25" data-index="19"></path>
<path d="M 250.21 169.07 C 251.70 165.33 252.80 161.44 254.53 157.79 C 254.87 159.66 255.23 161.54 255.62 163.41 C 258.28 164.43 261.11 164.64 263.94 164.48 C 262.58 165.96 261.62 168.54 259.16 167.78 C 259.23 168.30 259.36 169.33 259.43 169.85 C 262.04 170.00 263.22 167.50 264.86 165.94 C 266.15 164.61 267.59 163.44 268.97 162.21 C 274.76 163.00 279.90 166.19 284.59 169.50 C 276.53 168.65 270.47 175.21 266.75 181.53 C 261.79 192.06 266.20 204.17 262.17 214.96 C 261.33 214.80 259.65 214.49 258.81 214.34 C 256.50 206.25 254.28 198.11 252.55 189.87 C 255.77 183.88 254.45 176.89 253.00 170.59 C 252.24 170.59 250.72 170.59 249.96 170.59 C 249.36 172.71 249.85 174.97 249.53 177.15 C 249.21 174.49 248.76 171.49 250.21 169.07 Z" fill="#fcfeff" opacity="1.00" stroke="#fcfeff" stroke-width="0.25" data-index="20"></path>
<path d="M 224.01 166.96 C 226.59 164.16 228.55 160.60 232.37 159.26 C 232.81 160.11 232.85 161.15 231.79 161.53 C 229.72 162.54 228.15 164.21 226.75 165.99 C 225.39 167.72 223.73 169.55 224.02 171.94 C 223.67 176.58 228.02 179.31 231.15 181.90 C 231.48 181.57 232.14 180.90 232.47 180.57 C 232.69 180.89 233.11 181.53 233.33 181.85 C 227.94 194.10 223.50 206.74 217.78 218.84 C 219.66 217.58 221.54 216.32 223.45 215.11 C 224.55 211.20 223.86 206.45 226.78 203.29 C 226.60 207.04 225.78 210.71 225.08 214.38 C 222.50 227.65 220.23 240.98 217.54 254.23 C 217.22 253.87 216.60 253.15 216.29 252.80 C 217.33 246.98 218.73 241.24 219.56 235.39 C 220.64 229.28 222.00 223.22 223.11 217.11 C 219.75 219.34 216.24 221.45 213.67 224.62 C 211.06 227.76 207.10 230.06 202.90 229.59 C 199.06 229.29 196.08 225.82 195.40 222.18 C 193.84 215.68 195.34 208.86 198.03 202.88 C 200.17 198.01 203.79 194.04 206.61 189.58 C 211.51 181.43 216.70 173.19 224.01 166.96 Z" fill="#072f48" opacity="1.00" stroke="#072f48" stroke-width="0.25" data-index="21"></path>

<path d="M 231.92 163.09 C 234.81 163.46 237.10 165.24 239.41 166.85 C 240.50 167.55 241.61 168.23 242.73 168.91 C 241.94 171.86 241.36 174.87 240.79 177.87 C 240.28 177.70 239.27 177.34 238.76 177.16 C 236.61 177.21 238.48 180.59 238.01 181.98 C 237.90 182.69 237.68 184.10 237.57 184.80 C 235.74 180.65 236.41 176.11 237.89 171.98 L 236.39 173.94 C 235.81 171.99 236.81 170.27 237.84 168.69 C 236.26 168.71 235.15 169.52 234.82 171.08 C 233.33 169.98 231.85 168.85 230.50 167.58 C 230.28 167.23 229.83 166.53 229.61 166.17 C 231.27 166.41 232.94 166.65 234.61 166.93 C 235.21 167.16 236.41 167.62 237.01 167.85 C 235.50 166.04 232.54 165.53 231.92 163.09 Z" fill="#282836" opacity="1.00" stroke="#282836" stroke-width="0.25" data-index="23"></path>
<path d="M 242.73 168.91 C 243.00 167.86 243.28 166.81 243.56 165.76 C 244.43 167.11 245.77 167.81 247.34 167.82 C 247.41 171.74 246.06 176.50 249.14 179.62 C 251.01 180.35 250.45 177.71 250.94 176.70 C 251.59 177.34 252.26 177.96 252.97 178.56 C 253.52 182.00 252.89 185.45 251.71 188.70 C 248.15 188.84 244.32 190.03 240.94 188.43 C 239.79 186.36 238.80 184.21 238.01 181.98 C 238.48 180.59 236.61 177.21 238.76 177.16 C 239.27 177.34 240.28 177.70 240.79 177.87 C 241.36 174.87 241.94 171.86 242.73 168.91 Z" fill="#fdcfbc" opacity="1.00" stroke="#fdcfbc" stroke-width="0.25" data-index="24"></path>
<path d="M 224.02 171.94 C 223.73 169.55 225.39 167.72 226.75 165.99 C 228.03 166.45 229.28 166.98 230.50 167.58 C 231.85 168.85 233.33 169.98 234.82 171.08 C 234.65 172.02 234.41 172.94 234.10 173.84 C 233.76 173.89 233.09 173.97 232.75 174.02 C 232.62 176.18 232.53 178.34 232.43 180.51 L 232.60 180.46 L 232.47 180.57 C 232.14 180.90 231.48 181.57 231.15 181.90 C 228.02 179.31 223.67 176.58 224.02 171.94 Z" fill="#faceba" opacity="1.00" stroke="#faceba" stroke-width="0.25" data-index="25"></path>
<path d="M 234.82 171.08 C 235.15 169.52 236.26 168.71 237.84 168.69 C 236.81 170.27 235.81 171.99 236.39 173.94 L 237.89 171.98 C 236.41 176.11 235.74 180.65 237.57 184.80 C 231.81 212.70 225.55 240.49 219.44 268.32 C 217.90 267.89 216.36 267.49 214.82 267.07 C 215.78 262.80 216.65 258.51 217.54 254.23 C 220.23 240.98 222.50 227.65 225.08 214.38 C 225.78 210.71 226.60 207.04 226.78 203.29 C 223.86 206.45 224.55 211.20 223.45 215.11 C 221.54 216.32 219.66 217.58 217.78 218.84 C 223.50 206.74 227.94 194.10 233.33 181.85 C 233.11 181.53 232.69 180.89 232.47 180.57 L 232.60 180.46 C 232.97 180.36 233.70 180.15 234.07 180.05 C 233.96 178.03 234.42 176.21 235.47 174.56 C 235.13 174.38 234.45 174.02 234.10 173.84 C 234.41 172.94 234.65 172.02 234.82 171.08 Z" fill="#fbfffe" opacity="1.00" stroke="#fbfffe" stroke-width="0.25" data-index="26"></path>
<path d="M 239.25 175.12 C 238.73 172.69 239.89 170.12 240.87 167.88 C 240.38 170.17 241.07 173.41 239.25 175.12 Z" fill="#ebf8fd" opacity="1.00" stroke="#ebf8fd" stroke-width="0.25" data-index="27"></path>
<path d="M 244.15 168.10 C 245.57 170.75 245.78 175.21 243.05 176.98 C 243.26 174.00 243.76 171.06 244.15 168.10 Z" fill="#282836" opacity="1.00" stroke="#282836" stroke-width="0.25" data-index="28"></path>
<path d="M 212.09 183.98 C 214.82 178.78 218.71 174.22 222.74 169.98 C 222.68 171.53 222.61 173.07 222.55 174.62 C 218.42 176.97 215.64 180.92 212.09 183.98 Z" fill="#e6f8fc" opacity="1.00" stroke="#e6f8fc" stroke-width="0.25" data-index="29"></path>
<path d="M 276.85 172.61 C 280.15 170.42 285.76 170.17 288.01 173.96 C 290.70 178.25 291.75 183.33 292.26 188.30 C 292.57 195.45 292.19 202.60 292.32 209.74 C 290.73 217.34 288.32 225.14 282.91 230.93 C 279.03 235.30 273.72 238.04 268.34 240.11 C 268.09 240.04 267.59 239.90 267.34 239.83 C 264.36 233.79 262.17 227.40 260.37 220.92 C 260.00 219.63 259.84 218.28 260.22 216.98 L 260.52 216.47 C 261.95 216.97 263.40 217.50 264.84 218.03 C 265.31 217.84 266.26 217.45 266.73 217.25 C 265.61 216.74 264.49 216.23 263.38 215.72 C 266.90 206.89 264.58 197.33 266.12 188.19 C 267.10 181.71 271.59 176.25 276.85 172.61 Z" fill="#feffff" opacity="1.00" stroke="#feffff" stroke-width="0.25" data-index="30"></path>
<path d="M 251.46 172.71 C 252.90 174.30 252.82 176.55 252.97 178.56 C 252.26 177.96 251.59 177.34 250.94 176.70 C 250.92 175.34 251.09 174.01 251.46 172.71 Z" fill="#bdc3cc" opacity="1.00" stroke="#bdc3cc" stroke-width="0.25" data-index="31"></path>
<path d="M 232.75 174.02 C 233.09 173.97 233.76 173.89 234.10 173.84 C 234.45 174.02 235.13 174.38 235.47 174.56 C 234.42 176.21 233.96 178.03 234.07 180.05 C 233.70 180.15 232.97 180.36 232.60 180.46 L 232.43 180.51 C 232.53 178.34 232.62 176.18 232.75 174.02 Z" fill="#282836" opacity="1.00" stroke="#282836" stroke-width="0.25" data-index="32"></path>
<path d="M 200.65 200.90 C 206.55 191.28 214.61 183.19 222.94 175.65 C 224.93 178.86 227.68 181.49 230.95 183.40 C 226.88 193.17 223.12 203.07 218.91 212.80 C 216.68 217.87 214.17 223.19 209.52 226.49 C 205.86 229.04 199.78 228.73 197.74 224.28 C 194.56 216.62 197.01 207.95 200.65 200.90 Z" fill="#9beaff" opacity="1.00" stroke="#9beaff" stroke-width="0.25" data-index="33"></path>
<path d="M 238.01 181.98 C 238.80 184.21 239.79 186.36 240.94 188.43 C 240.91 189.05 240.86 190.29 240.84 190.91 C 239.90 203.22 238.93 215.60 239.85 227.96 C 240.09 231.35 241.09 235.10 244.18 237.01 C 250.63 241.05 258.62 241.25 265.97 240.49 C 262.60 233.17 259.91 225.56 257.98 217.73 C 258.71 217.10 259.44 216.48 260.24 215.95 L 260.52 216.47 L 260.22 216.98 C 259.84 218.28 260.00 219.63 260.37 220.92 C 262.17 227.40 264.36 233.79 267.34 239.83 C 267.59 239.90 268.09 240.04 268.34 240.11 C 268.86 240.27 269.90 240.58 270.41 240.74 L 269.11 241.36 C 269.59 242.53 269.51 244.32 271.04 244.68 C 274.18 245.95 277.46 246.81 280.66 247.93 C 280.51 247.22 280.20 245.79 280.04 245.07 C 280.52 245.32 281.48 245.82 281.97 246.07 C 283.53 252.78 285.88 259.27 288.20 265.74 C 289.96 268.36 286.37 268.31 284.74 268.92 C 287.10 317.02 288.87 365.16 291.26 413.26 C 290.56 413.30 289.16 413.38 288.46 413.42 C 288.49 415.96 288.85 418.47 289.69 420.88 C 290.65 426.36 289.91 431.93 289.36 437.42 C 286.86 437.63 284.36 437.79 281.86 437.92 C 281.81 435.92 281.76 433.93 281.70 431.95 C 278.97 435.75 276.53 439.94 272.69 442.76 C 268.52 445.72 263.14 445.43 258.28 445.28 C 258.47 443.74 258.56 442.09 259.61 440.85 C 262.68 436.74 265.71 432.60 268.69 428.42 C 271.48 424.40 275.43 420.46 274.85 415.14 C 273.40 414.88 271.38 415.13 271.55 413.08 C 265.30 378.88 259.02 344.67 252.82 310.47 L 252.72 309.47 C 253.09 308.65 253.48 307.85 253.89 307.06 C 255.66 319.73 258.45 332.23 260.64 344.83 C 264.63 367.74 269.25 390.55 272.96 413.51 C 278.49 413.18 284.01 412.62 289.52 412.11 C 287.63 364.49 285.39 316.88 283.24 269.28 C 271.59 272.18 259.72 274.65 247.66 274.70 C 249.70 285.46 251.56 296.25 253.79 306.97 C 252.62 306.97 251.45 306.97 250.29 306.97 C 250.68 304.04 251.13 301.06 250.51 298.13 C 249.07 290.33 247.57 282.54 246.33 274.70 C 244.26 274.63 242.19 274.56 240.13 274.51 C 239.22 269.01 238.80 263.45 237.85 257.97 C 237.05 262.97 236.56 268.03 235.79 273.04 C 230.06 272.20 224.44 270.77 218.72 269.83 C 219.83 316.70 221.10 363.58 222.50 410.45 C 223.36 410.37 225.09 410.19 225.96 410.11 C 225.92 410.52 225.85 411.33 225.82 411.74 C 224.20 411.73 222.57 411.72 220.96 411.72 C 220.29 389.28 219.71 366.84 219.02 344.40 C 218.86 337.43 218.73 330.46 218.51 323.49 C 218.11 305.40 217.54 287.32 217.25 269.24 C 215.88 268.90 214.52 268.57 213.16 268.25 C 214.23 263.10 215.28 257.95 216.29 252.80 C 216.60 253.15 217.22 253.87 217.54 254.23 C 216.65 258.51 215.78 262.80 214.82 267.07 C 216.36 267.49 217.90 267.89 219.44 268.32 C 225.55 240.49 231.81 212.70 237.57 184.80 C 237.68 184.10 237.90 182.69 238.01 181.98 Z" fill="#012e4f" opacity="1.00" stroke="#012e4f" stroke-width="0.25" data-index="34" style="opacity: 1;"></path>
<path d="M 254.74 185.53 C 257.31 185.84 261.02 184.13 262.36 187.39 C 260.12 187.40 257.44 186.00 255.58 187.86 C 257.78 188.05 260.27 187.52 262.13 189.05 C 259.85 189.98 257.39 189.45 255.03 189.25 C 254.96 188.32 254.81 186.46 254.74 185.53 Z" fill="#0f2242" opacity="1.00" stroke="#0f2242" stroke-width="0.25" data-index="35"></path>
<path d="M 240.84 190.91 C 244.25 190.72 247.66 190.54 251.07 190.43 C 253.16 199.59 255.88 208.58 257.98 217.73 C 259.91 225.56 262.60 233.17 265.97 240.49 C 258.62 241.25 250.63 241.05 244.18 237.01 C 241.09 235.10 240.09 231.35 239.85 227.96 C 238.93 215.60 239.90 203.22 240.84 190.91 Z" fill="#9aeafe" opacity="1.00" stroke="#9aeafe" stroke-width="0.25" data-index="36"></path>

<path d="M 292.32 209.74 L 292.71 209.86 C 293.42 215.57 295.11 221.08 297.54 226.29 C 298.24 227.77 299.00 229.21 299.86 230.61 C 301.26 232.66 302.86 234.58 304.69 236.26 C 305.74 237.12 306.85 237.89 307.97 238.66 C 308.72 239.18 309.47 239.70 310.22 240.22 C 304.29 243.06 297.53 243.01 291.24 241.51 C 292.45 243.63 293.68 245.75 294.90 247.88 C 290.53 249.04 285.91 248.14 281.97 246.07 C 281.48 245.82 280.52 245.32 280.04 245.07 C 279.43 242.34 278.87 239.61 278.37 236.86 C 275.78 238.28 273.16 239.65 270.41 240.74 C 269.90 240.58 268.86 240.27 268.34 240.11 C 273.72 238.04 279.03 235.30 282.91 230.93 C 288.32 225.14 290.73 217.34 292.32 209.74 Z" fill="#0f2242" opacity="1.00" stroke="#0f2242" stroke-width="0.25" data-index="38"></path>
<path d="M 282.51 233.50 C 287.32 229.24 289.50 223.11 292.52 217.65 C 294.98 224.71 297.77 231.83 302.99 237.35 C 303.40 237.89 304.20 238.95 304.60 239.48 C 301.51 240.50 298.24 240.58 295.02 240.32 C 293.08 240.08 291.16 239.69 289.24 239.37 C 289.64 242.05 290.76 244.53 291.93 246.96 C 287.64 246.11 281.09 245.94 280.37 240.40 C 279.32 237.81 280.32 235.10 282.51 233.50 Z" fill="#674542" opacity="1.00" stroke="#674542" stroke-width="0.25" data-index="39" style="opacity: 1;"></path>

<path d="M 270.41 240.74 C 273.16 239.65 275.78 238.28 278.37 236.86 C 278.87 239.61 279.43 242.34 280.04 245.07 C 280.20 245.79 280.51 247.22 280.66 247.93 C 277.46 246.81 274.18 245.95 271.04 244.68 C 269.51 244.32 269.59 242.53 269.11 241.36 L 270.41 240.74 Z" fill="#fcffff" opacity="1.00" stroke="#fcffff" stroke-width="0.25" data-index="41"></path>
<path d="M 302.99 237.35 C 303.90 238.04 304.81 238.73 305.74 239.41 C 302.29 240.57 298.62 240.92 295.02 240.32 C 298.24 240.58 301.51 240.50 304.60 239.48 C 304.20 238.95 303.40 237.89 302.99 237.35 Z" fill="#ffceb4" opacity="1.00" stroke="#ffceb4" stroke-width="0.25" data-index="42"></path>
<path d="M 237.85 257.97 C 238.80 263.45 239.22 269.01 240.13 274.51 C 242.19 274.56 244.26 274.63 246.33 274.70 C 247.57 282.54 249.07 290.33 250.51 298.13 C 251.13 301.06 250.68 304.04 250.29 306.97 C 251.45 306.97 252.62 306.97 253.79 306.97 C 251.56 296.25 249.70 285.46 247.66 274.70 C 259.72 274.65 271.59 272.18 283.24 269.28 C 285.39 316.88 287.63 364.49 289.52 412.11 C 284.01 412.62 278.49 413.18 272.96 413.51 C 269.25 390.55 264.63 367.74 260.64 344.83 C 258.45 332.23 255.66 319.73 253.89 307.06 C 253.48 307.85 253.09 308.65 252.72 309.47 L 252.82 310.47 C 252.40 310.85 251.57 311.63 251.15 312.02 C 251.20 311.38 251.29 310.12 251.34 309.48 C 250.93 308.66 250.51 307.86 250.07 307.07 C 247.74 332.64 242.33 357.90 241.57 383.62 C 241.14 381.09 241.19 378.52 241.23 375.97 C 241.74 344.97 242.32 313.97 242.93 282.97 C 242.99 281.09 242.58 279.26 242.03 277.48 C 241.27 281.26 241.34 285.13 241.29 288.97 C 240.70 323.33 239.90 357.68 239.36 392.04 C 241.10 397.42 241.14 403.04 240.76 408.67 C 239.40 408.80 238.05 408.95 236.70 409.10 C 233.12 409.49 229.54 409.74 225.96 410.11 C 225.09 410.19 223.36 410.37 222.50 410.45 C 221.10 363.58 219.83 316.70 218.72 269.83 C 224.44 270.77 230.06 272.20 235.79 273.04 C 236.56 268.03 237.05 262.97 237.85 257.97 Z" fill="#9cebff" opacity="1.00" stroke="#9cebff" stroke-width="0.25" data-index="43" style="opacity: 1;"></path>

<path d="M 241.29 288.97 C 241.34 285.13 241.27 281.26 242.03 277.48 C 242.58 279.26 242.99 281.09 242.93 282.97 C 242.32 313.97 241.74 344.97 241.23 375.97 C 241.19 378.52 241.14 381.09 241.57 383.62 L 242.45 384.51 C 242.54 380.21 242.69 375.89 243.69 371.69 C 242.87 384.50 242.25 397.30 242.16 410.14 C 241.20 410.19 239.30 410.28 238.34 410.33 C 237.93 410.02 237.11 409.40 236.70 409.10 C 238.05 408.95 239.40 408.80 240.76 408.67 C 241.14 403.04 241.10 397.42 239.36 392.04 C 239.90 357.68 240.70 323.33 241.29 288.97 Z" fill="#012f4f" opacity="1.00" stroke="#012f4f" stroke-width="0.25" data-index="45" style="opacity: 1;"></path>
<path d="M 250.07 307.07 C 250.51 307.86 250.93 308.66 251.34 309.48 C 251.29 310.12 251.20 311.38 251.15 312.02 C 248.77 331.92 245.79 351.75 243.69 371.69 C 242.69 375.89 242.54 380.21 242.45 384.51 L 241.57 383.62 C 242.33 357.90 247.74 332.64 250.07 307.07 Z" fill="#073245" opacity="1.00" stroke="#073245" stroke-width="0.25" data-index="46"></path>

<path d="M 211.23 333.31 C 212.94 329.55 215.51 326.29 218.51 323.49 C 218.73 330.46 218.86 337.43 219.02 344.40 C 217.59 341.68 218.04 338.48 217.45 335.54 C 212.16 342.20 205.45 347.52 199.94 353.95 C 194.62 361.45 187.96 367.85 181.33 374.13 C 176.84 375.59 174.41 379.95 170.22 381.90 C 170.61 379.65 170.59 377.37 170.30 375.11 C 174.80 370.33 179.48 365.72 183.67 360.64 C 185.97 357.73 189.29 355.96 192.86 355.12 C 198.59 347.51 207.13 342.12 211.23 333.31 Z" fill="#e6f8fc" opacity="1.00" stroke="#e6f8fc" stroke-width="0.25" data-index="48" style="visibility: hidden; opacity: 1;"></path>

<path d="M 165.62 375.64 C 169.02 372.47 171.47 367.97 176.17 366.52 C 172.24 372.07 167.00 376.49 162.42 381.47 C 162.44 381.88 162.47 382.69 162.48 383.09 L 162.51 383.81 C 157.58 390.17 150.29 394.01 145.14 400.13 C 144.17 401.36 141.85 403.23 140.91 400.92 C 141.66 398.32 143.99 396.53 145.14 394.11 C 143.17 395.48 141.45 397.32 139.12 398.10 C 139.45 393.37 145.83 392.57 147.16 388.15 C 144.69 386.77 142.81 388.79 140.84 389.98 C 140.61 389.78 140.14 389.38 139.91 389.17 C 141.94 385.77 144.75 382.94 147.21 379.86 C 146.28 379.31 145.36 378.77 144.43 378.23 C 143.19 379.03 142.16 380.80 140.69 380.90 L 139.69 380.37 C 143.18 377.33 146.20 373.59 150.58 371.75 C 149.93 373.46 149.26 375.16 148.58 376.85 C 151.46 376.23 154.31 375.47 157.13 374.63 C 154.92 379.64 152.66 384.65 151.26 389.97 C 157.41 386.65 160.57 380.19 165.62 375.64 Z" fill="#ebf8fd" opacity="1.00" stroke="#ebf8fd" stroke-width="0.25" data-index="50" style="visibility: hidden; opacity: 1;"></path>
<path d="M 225.96 410.11 C 229.54 409.74 233.12 409.49 236.70 409.10 C 237.11 409.40 237.93 410.02 238.34 410.33 C 238.14 416.35 239.97 422.11 241.15 427.94 C 239.91 426.09 238.65 424.22 237.17 422.56 C 234.64 424.41 232.64 427.81 229.11 427.62 C 227.44 427.61 226.64 426.07 226.15 424.72 C 226.42 420.38 225.60 416.07 225.82 411.74 C 225.85 411.33 225.92 410.52 225.96 410.11 Z" fill="#282836" opacity="1.00" stroke="#282836" stroke-width="0.25" data-index="51"></path>
<path d="M 227.23 411.58 C 230.38 411.45 233.51 411.13 236.62 410.64 C 236.40 414.30 238.87 419.06 235.50 421.77 C 236.09 418.75 237.54 415.14 235.49 412.38 C 233.27 411.80 230.96 412.55 228.73 412.72 C 228.63 415.97 228.45 419.22 227.84 422.42 C 227.63 418.80 227.44 415.19 227.23 411.58 Z" fill="#ffffff" opacity="1.00" stroke="#ffffff" stroke-width="0.25" data-index="52"></path>
<path d="M 228.73 412.72 C 230.96 412.55 233.27 411.80 235.49 412.38 C 237.54 415.14 236.09 418.75 235.50 421.77 L 235.41 422.14 C 232.83 423.95 230.37 426.09 227.18 426.73 C 227.38 425.28 227.60 423.85 227.84 422.42 C 228.45 419.22 228.63 415.97 228.73 412.72 Z" fill="#ffd1bb" opacity="1.00" stroke="#ffd1bb" stroke-width="0.25" data-index="53" style="opacity: 1;"></path>
<path d="M 276.43 414.71 C 280.03 414.44 283.62 414.15 287.23 414.07 C 287.27 415.81 287.33 417.55 287.42 419.30 C 284.14 422.41 279.69 424.27 275.12 423.54 C 275.68 420.61 276.31 417.69 276.43 414.71 Z" fill="#fbccba" opacity="1.00" stroke="#fbccba" stroke-width="0.25" data-index="54"></path>

<path d="M 229.11 427.62 C 232.64 427.81 234.64 424.41 237.17 422.56 C 238.65 424.22 239.91 426.09 241.15 427.94 C 241.54 431.44 241.91 434.94 241.92 438.47 C 240.26 438.84 238.62 439.49 236.90 439.46 C 235.74 438.03 235.05 436.20 233.58 435.06 C 231.39 437.76 230.08 441.14 227.48 443.50 C 223.58 446.64 218.42 448.06 213.46 447.36 C 214.28 445.31 215.36 443.37 216.74 441.66 C 219.82 437.79 222.15 433.40 224.22 428.94 C 224.91 427.43 225.45 425.86 225.96 424.29 L 226.15 424.72 C 226.64 426.07 227.44 427.61 229.11 427.62 Z" fill="#012f4f" opacity="1.00" stroke="#012f4f" stroke-width="0.25" data-index="56" style="opacity: 1;"></path>
</svg>