<?xml version="1.0" encoding="utf-8"?>
<svg xmlns="http://www.w3.org/2000/svg" height="512pt" version="1.1" viewBox="0 0 512 512" width="512pt">
<path d="M 0.00 0.00 L 512.00 0.00 L 512.00 512.00 L 0.00 512.00 L 0.00 0.00 Z" fill="transparent" opacity="1.00" stroke="transparent" stroke-width="0.25"/>
<path d="M 126.80 110.93 C 130.25 105.63 137.20 103.99 143.15 104.37 C 148.06 105.43 152.51 109.14 153.90 114.05 C 156.15 121.25 155.57 128.89 156.00 136.31 C 156.76 132.79 157.66 129.31 158.82 125.90 C 161.21 121.33 165.69 117.57 171.05 117.56 C 176.41 117.08 181.48 120.23 184.37 124.59 C 187.66 129.39 187.94 135.42 188.48 141.01 C 189.35 158.11 187.86 175.21 187.31 192.29 C 186.77 207.47 187.31 222.66 187.73 237.84 C 188.70 233.77 190.48 229.98 192.33 226.25 C 196.55 217.84 201.04 209.39 207.58 202.51 C 211.44 198.04 216.97 194.62 223.03 194.69 C 230.03 195.13 237.10 199.59 239.14 206.55 C 241.18 213.81 238.66 221.17 237.23 228.29 L 236.81 228.87 C 230.88 250.43 222.55 271.52 210.26 290.28 C 204.92 299.09 198.48 307.15 192.85 315.76 C 190.48 321.02 189.44 326.77 186.95 332.00 C 189.77 352.75 193.72 373.43 194.36 394.42 L 194.18 394.47 C 186.88 397.00 179.01 395.93 171.44 396.59 C 144.29 396.97 117.13 396.67 89.98 396.75 C 85.49 396.73 80.24 396.64 77.04 392.97 C 74.45 390.34 73.83 386.54 74.04 382.99 C 76.60 366.77 82.68 351.33 85.48 335.14 C 85.71 333.43 85.94 331.68 85.64 329.97 C 81.52 313.93 78.78 297.56 76.34 281.18 C 72.74 254.94 71.56 228.45 70.61 202.00 C 70.46 186.58 71.24 171.11 73.64 155.87 C 74.76 149.30 77.38 141.62 84.23 139.13 C 88.36 137.52 92.58 139.75 95.91 142.10 C 95.82 134.48 94.65 125.86 99.35 119.28 C 105.55 111.12 119.55 112.48 124.35 121.46 C 124.36 117.85 124.47 113.90 126.80 110.93 Z" fill="#072946" opacity="1.00" stroke="#072946" stroke-width="0.25"/>
<path d="M 357.84 113.53 C 359.36 109.01 363.47 105.57 368.05 104.47 C 374.02 103.80 380.86 105.53 384.55 110.60 C 387.07 113.71 387.18 117.92 387.40 121.73 C 391.76 111.84 407.19 111.17 412.97 120.03 C 416.81 126.66 415.78 134.70 415.69 142.04 C 419.35 139.54 424.16 137.27 428.49 139.51 C 434.84 142.47 437.08 149.86 438.21 156.22 C 440.46 171.03 440.97 186.05 441.11 201.02 C 440.36 215.78 439.91 230.58 439.02 245.35 C 436.95 274.19 432.81 302.96 425.77 331.02 C 425.83 335.18 427.05 339.22 427.89 343.28 C 430.59 353.84 433.51 364.34 436.08 374.93 C 437.19 379.38 438.09 384.00 437.55 388.61 C 435.39 393.28 430.98 396.96 425.60 396.66 C 401.72 396.87 377.83 396.72 353.95 396.74 C 344.96 396.81 335.98 396.39 327.00 396.11 C 323.72 396.00 320.46 395.48 317.40 394.29 C 317.86 373.65 321.75 353.28 324.57 332.88 C 323.76 328.90 321.66 325.20 320.80 321.17 C 319.39 315.34 315.20 310.89 311.98 306.03 C 302.02 292.18 292.65 277.72 286.24 261.84 C 281.17 249.85 277.09 237.43 273.70 224.87 C 271.94 217.99 270.20 210.22 273.74 203.59 C 276.37 198.22 282.34 195.29 288.08 194.72 C 294.98 194.31 301.01 198.78 305.18 203.89 C 310.53 209.54 314.03 216.55 317.72 223.33 C 319.97 227.90 322.42 232.44 323.65 237.42 C 324.01 227.60 324.53 217.79 324.51 207.97 C 324.61 186.63 322.11 165.36 322.75 144.03 C 323.42 137.10 323.40 129.54 327.78 123.72 C 332.28 116.81 342.91 115.51 349.04 120.97 C 353.43 124.86 354.44 130.92 355.31 136.42 C 356.06 128.79 355.36 120.90 357.84 113.53 Z" fill="#072946" opacity="1.00" stroke="#072946" stroke-width="0.25"/>
<path d="M 130.99 112.49 C 134.20 109.11 139.48 107.88 143.91 109.00 C 150.03 111.60 150.75 118.81 151.12 124.58 C 152.57 149.61 152.81 174.70 153.43 199.76 C 153.89 200.17 154.81 201.00 155.27 201.42 C 156.03 200.90 156.79 200.38 157.55 199.86 C 157.52 180.58 157.75 161.26 159.58 142.06 C 160.43 136.20 160.76 129.57 164.92 124.95 C 167.55 121.81 172.10 121.65 175.78 122.61 C 180.53 125.22 183.06 130.60 183.64 135.81 C 185.33 148.49 183.83 161.29 183.56 174.01 C 183.35 185.32 182.14 196.61 182.48 207.92 C 182.68 219.96 183.79 231.99 183.75 244.03 C 181.48 249.35 177.12 253.62 174.81 258.97 C 173.81 261.15 177.38 262.76 178.35 260.52 C 183.81 252.02 189.60 243.60 193.46 234.21 C 198.35 224.50 202.84 214.38 210.06 206.11 C 212.63 203.31 215.59 200.56 219.35 199.54 C 225.11 198.13 232.07 200.94 234.30 206.67 C 236.82 212.63 234.58 219.14 233.11 225.07 C 228.45 241.35 223.28 257.60 215.56 272.72 C 210.90 281.42 205.59 289.75 200.15 297.99 C 196.64 303.21 192.55 308.05 189.54 313.60 C 186.83 318.58 185.70 324.18 183.69 329.43 C 181.10 329.62 178.51 329.78 175.92 329.92 C 175.69 329.28 175.21 327.99 174.97 327.35 C 173.13 327.48 171.96 328.38 171.91 330.31 C 170.23 330.42 168.55 330.51 166.88 330.61 C 166.76 330.02 166.53 328.85 166.41 328.27 C 165.83 328.28 164.67 328.30 164.09 328.32 C 163.87 329.25 163.65 330.20 163.44 331.15 C 161.70 331.22 159.96 331.30 158.22 331.37 C 157.90 329.51 156.65 328.62 154.85 328.46 C 154.78 329.35 154.63 331.13 154.56 332.03 C 152.51 332.16 150.46 332.27 148.42 332.41 C 148.38 331.73 148.30 330.36 148.25 329.68 C 147.31 329.66 146.36 329.64 145.41 329.63 C 145.38 330.41 145.32 331.98 145.29 332.76 C 142.96 333.19 140.26 333.93 139.85 330.65 C 138.71 331.44 137.80 332.47 137.02 333.61 C 135.83 333.64 134.64 333.68 133.45 333.72 C 133.09 332.98 132.35 331.50 131.99 330.76 C 130.94 331.71 129.90 332.67 128.88 333.64 C 127.01 333.39 124.91 333.37 123.86 331.52 C 123.43 331.47 122.57 331.38 122.14 331.34 C 121.88 331.73 121.34 332.51 121.08 332.90 C 118.74 332.88 116.33 332.76 114.62 330.93 C 113.70 331.47 112.79 332.04 111.89 332.61 C 110.23 332.34 108.84 331.55 107.88 330.15 C 107.36 330.17 106.32 330.21 105.80 330.23 C 105.64 330.60 105.34 331.33 105.19 331.70 C 104.15 331.57 103.12 331.45 102.09 331.33 C 101.33 330.20 100.33 329.29 99.17 328.59 C 98.73 329.15 97.84 330.27 97.40 330.83 C 95.19 330.40 92.98 329.98 90.78 329.53 C 85.05 305.69 80.81 281.45 79.01 256.98 C 76.79 225.46 74.41 193.70 78.18 162.20 C 78.97 156.32 79.37 149.91 83.10 145.01 C 85.60 142.10 90.31 142.46 92.94 145.03 C 97.17 148.76 97.58 154.73 98.07 159.98 C 98.87 173.23 99.10 186.51 98.76 199.79 C 98.72 203.90 97.67 208.15 98.84 212.19 C 99.75 212.30 101.55 212.54 102.45 212.65 C 104.63 187.45 102.27 162.18 101.25 136.98 C 101.27 131.67 100.76 125.64 104.20 121.18 C 108.23 117.17 115.66 117.18 119.58 121.37 C 122.55 125.27 122.32 130.44 122.84 135.07 C 124.49 157.84 124.47 180.69 125.53 203.49 C 126.23 203.60 127.63 203.83 128.34 203.95 C 128.96 202.35 129.64 200.73 129.58 198.98 C 129.85 173.64 128.52 148.33 128.49 122.99 C 128.61 119.42 128.52 115.36 130.99 112.49 Z" fill="#80e6ff" opacity="1.00" stroke="#80e6ff" stroke-width="0.25"/>
<path d="M 362.01 115.07 C 362.94 111.86 365.92 110.09 368.58 108.44 C 373.67 108.51 380.11 109.74 382.11 115.14 C 384.03 121.94 382.90 129.09 382.84 136.03 C 382.54 155.70 381.91 175.35 381.79 195.01 C 381.83 197.75 381.63 200.66 382.90 203.18 C 383.97 203.58 385.13 203.58 386.27 203.70 C 386.87 180.82 387.31 157.92 388.72 135.07 C 389.32 130.35 389.16 125.07 392.23 121.13 C 396.29 116.81 404.33 117.33 407.96 121.95 C 411.37 128.03 410.32 135.32 410.23 142.00 C 408.68 164.73 407.88 187.52 408.71 210.29 C 408.96 210.85 409.46 211.95 409.71 212.51 C 410.72 212.52 411.74 212.55 412.77 212.57 C 414.21 207.81 412.80 202.85 412.71 198.01 C 412.43 188.36 412.66 178.69 413.21 169.05 C 413.59 162.47 413.33 155.64 415.64 149.36 C 417.27 145.24 422.04 141.36 426.57 143.63 C 431.44 146.53 432.21 152.79 433.06 157.88 C 435.60 178.47 435.97 199.29 434.78 219.98 C 433.71 249.15 431.57 278.40 425.78 307.05 C 424.36 314.57 422.56 322.01 420.94 329.48 C 418.65 329.88 416.36 330.32 414.08 330.71 C 413.10 329.97 412.08 329.34 410.99 328.82 C 410.81 332.58 405.75 332.39 404.41 329.53 C 403.54 330.38 402.74 331.29 402.00 332.25 C 401.32 332.25 399.95 332.26 399.26 332.26 C 397.82 331.46 395.73 330.69 394.63 332.60 C 392.31 333.14 390.24 332.09 388.08 331.59 C 386.25 332.43 384.50 333.54 382.38 333.47 C 381.57 331.11 378.27 330.48 378.15 333.60 C 376.65 333.59 375.16 333.57 373.67 333.55 C 373.54 332.81 373.30 331.34 373.17 330.60 C 371.76 331.05 370.62 331.90 369.91 333.22 C 368.88 333.15 367.86 333.08 366.85 333.02 C 366.21 331.41 365.46 329.68 363.65 329.16 C 363.39 330.24 363.14 331.32 362.89 332.41 C 360.82 332.19 358.75 331.94 356.69 331.68 C 356.60 330.82 356.44 329.10 356.36 328.24 C 354.35 328.38 353.42 329.74 353.10 331.59 C 351.70 331.45 350.32 331.25 348.95 331.00 C 347.79 330.10 347.40 327.74 345.57 328.28 C 345.19 328.84 344.41 329.96 344.02 330.53 C 342.62 330.45 341.22 330.38 339.82 330.31 C 339.43 328.81 339.07 327.12 337.09 327.55 C 336.65 328.11 335.76 329.23 335.31 329.79 C 332.92 329.73 330.53 329.64 328.14 329.55 C 325.40 323.07 324.05 315.96 319.95 310.12 C 313.48 300.81 306.68 291.70 301.15 281.80 C 291.03 265.52 285.12 247.12 279.59 228.90 C 277.85 222.01 275.04 214.86 276.78 207.68 C 279.12 199.79 290.02 196.66 296.45 201.55 C 302.62 206.16 306.85 212.76 310.56 219.39 C 314.63 226.83 318.15 234.55 321.86 242.18 C 325.32 248.22 329.14 254.06 332.87 259.95 C 333.84 262.27 337.36 262.15 336.84 259.21 C 334.69 253.71 330.24 249.47 327.72 244.19 C 328.10 230.81 328.72 217.43 329.18 204.05 C 328.43 184.38 327.17 164.71 327.21 145.01 C 327.57 138.47 327.42 131.09 331.85 125.77 C 333.75 123.30 336.78 121.78 339.93 122.14 C 345.31 121.78 348.69 127.05 350.16 131.55 C 352.59 140.48 352.50 149.84 353.25 159.01 C 353.68 172.59 353.98 186.17 353.87 199.75 C 354.50 200.26 355.74 201.27 356.36 201.78 C 357.44 200.39 358.43 198.87 358.20 197.02 C 358.50 175.68 359.13 154.35 359.94 133.03 C 360.39 127.03 360.34 120.90 362.01 115.07 Z" fill="#80e6ff" opacity="1.00" stroke="#80e6ff" stroke-width="0.25"/>
<path d="M 113.71 234.60 C 122.47 234.23 131.25 234.62 140.00 233.96 C 143.31 233.65 146.62 234.13 149.81 235.01 C 147.04 235.85 144.17 236.42 141.27 236.40 C 132.03 236.46 122.78 236.85 113.54 236.47 C 113.58 236.00 113.67 235.07 113.71 234.60 Z" fill="#ffffff" opacity="1.00" stroke="#ffffff" stroke-width="0.25"/>
<path d="M 362.40 234.73 C 365.57 234.10 368.81 233.71 372.05 233.96 C 380.49 234.53 388.95 234.32 397.40 234.54 C 397.47 235.04 397.62 236.05 397.70 236.55 C 388.45 236.81 379.20 236.44 369.95 236.39 C 367.33 236.44 364.72 235.98 362.40 234.73 Z" fill="#ffffff" opacity="1.00" stroke="#ffffff" stroke-width="0.25"/>
<path d="M 114.34 243.58 C 124.89 242.01 135.60 241.71 146.23 240.94 C 147.84 240.70 147.50 242.34 147.73 243.36 C 136.58 243.88 125.41 244.34 114.32 245.68 C 114.33 245.16 114.33 244.11 114.34 243.58 Z" fill="#ffffff" opacity="1.00" stroke="#ffffff" stroke-width="0.25"/>
<path d="M 362.85 241.57 C 364.16 240.91 365.54 240.66 367.00 240.85 C 375.03 241.64 383.09 242.02 391.13 242.61 C 392.81 242.61 394.17 243.64 395.54 244.47 C 386.56 245.02 377.60 243.96 368.64 243.47 C 366.61 243.27 364.32 243.18 362.85 241.57 Z" fill="#ffffff" opacity="1.00" stroke="#ffffff" stroke-width="0.25"/>
<path d="M 110.53 249.67 C 115.72 248.61 120.97 247.89 126.26 247.46 C 126.41 247.96 126.73 248.96 126.88 249.46 C 121.51 250.47 116.10 251.40 110.62 251.57 C 110.60 251.09 110.55 250.14 110.53 249.67 Z" fill="#ffffff" opacity="1.00" stroke="#ffffff" stroke-width="0.25"/>
<path d="M 329.26 333.59 C 331.11 333.65 332.95 333.69 334.81 333.74 C 334.27 336.32 333.78 338.91 333.51 341.53 C 334.74 341.44 335.98 341.44 337.22 341.52 C 337.71 339.04 338.23 336.57 338.72 334.10 C 340.57 334.20 342.42 334.31 344.28 334.42 C 344.13 336.93 344.16 339.45 344.61 341.94 C 348.08 340.97 347.61 337.43 347.66 334.63 C 349.59 334.89 351.53 335.16 353.48 335.40 C 353.44 337.90 353.47 340.40 353.60 342.90 C 354.32 342.73 355.74 342.41 356.45 342.25 C 356.83 340.05 356.77 337.81 356.84 335.60 C 358.79 335.74 360.75 335.88 362.71 336.02 C 362.93 338.69 362.07 343.41 366.29 342.75 C 366.35 340.68 366.36 338.61 366.37 336.55 C 367.38 336.65 369.40 336.84 370.41 336.94 C 370.61 339.51 370.89 342.08 371.42 344.60 C 372.35 344.50 373.29 344.39 374.23 344.29 C 374.21 341.98 374.17 339.68 374.10 337.38 C 375.55 337.38 377.01 337.38 378.48 337.38 C 379.61 340.00 379.69 345.42 383.74 344.80 C 385.11 342.26 382.81 339.66 382.22 337.17 C 383.69 337.22 385.18 337.21 386.64 337.43 C 388.35 339.22 388.86 343.60 392.16 342.10 C 392.61 340.05 391.45 338.29 390.61 336.54 C 392.09 336.54 393.58 336.53 395.07 336.53 C 395.20 337.30 395.47 338.85 395.60 339.63 C 396.53 339.70 397.46 339.77 398.40 339.85 C 398.72 338.52 399.04 337.20 399.36 335.89 C 400.61 335.84 401.87 335.81 403.13 335.78 C 403.31 338.29 403.80 340.83 405.66 342.68 C 406.17 342.35 407.20 341.71 407.71 341.38 C 407.51 339.35 407.23 337.33 406.80 335.34 C 408.13 335.32 409.47 335.30 410.81 335.29 C 412.03 336.95 413.03 339.16 415.44 339.21 C 415.61 337.60 415.44 335.99 415.29 334.39 C 417.14 334.33 418.98 334.26 420.84 334.21 C 423.37 347.89 427.63 361.14 431.03 374.61 C 431.87 379.08 433.57 383.77 432.28 388.31 C 430.85 391.97 426.27 392.04 422.96 392.22 C 389.41 392.16 355.82 393.14 322.30 391.13 C 321.41 389.90 322.29 388.30 322.22 386.94 C 324.36 369.14 325.95 351.22 329.26 333.59 Z" fill="#80e6ff" opacity="1.00" stroke="#80e6ff" stroke-width="0.25"/>
<path d="M 90.68 334.05 C 92.59 334.21 94.50 334.38 96.41 334.56 C 96.16 336.00 95.88 337.46 96.11 338.93 C 98.69 339.29 99.66 336.76 100.91 335.07 C 102.14 335.17 103.38 335.26 104.61 335.37 C 104.32 337.95 102.56 341.54 106.06 342.61 C 107.99 340.85 108.02 338.08 108.56 335.72 C 109.49 335.76 111.35 335.84 112.28 335.88 C 112.38 337.19 112.49 338.50 112.60 339.81 C 114.99 340.19 116.24 338.66 116.75 336.49 C 117.99 336.52 119.23 336.55 120.47 336.57 C 119.41 338.82 118.83 341.33 120.86 343.30 C 122.35 341.38 123.62 339.32 124.73 337.17 C 126.21 337.25 127.70 337.32 129.18 337.41 C 128.44 339.48 127.59 341.53 127.18 343.71 C 127.90 344.76 129.18 344.77 130.32 344.94 C 131.34 342.50 132.18 339.99 132.91 337.45 C 134.40 337.43 135.89 337.41 137.38 337.40 C 137.31 339.90 137.28 342.40 137.38 344.90 C 138.32 344.63 139.25 344.32 140.17 343.99 C 140.76 341.87 140.68 339.65 140.82 337.48 C 142.12 337.16 143.43 336.84 144.74 336.53 C 144.98 338.68 145.21 340.83 145.49 342.98 C 149.37 342.89 148.39 338.65 148.61 335.97 C 150.60 335.85 152.59 335.75 154.58 335.65 C 154.82 338.41 153.40 343.03 157.56 343.00 C 157.91 340.49 157.97 337.95 157.97 335.42 C 159.85 335.21 161.74 335.00 163.62 334.77 C 164.11 337.46 163.40 341.68 167.33 341.63 C 167.42 339.23 167.39 336.83 167.28 334.44 C 169.04 334.35 170.81 334.25 172.58 334.16 C 173.17 336.69 173.80 339.22 174.55 341.71 C 175.61 341.65 176.68 341.60 177.75 341.54 C 177.71 338.92 177.47 336.29 176.63 333.79 C 178.53 333.72 180.43 333.65 182.33 333.59 C 185.83 352.67 187.66 372.00 189.83 391.27 C 155.90 392.98 121.92 392.26 87.96 392.20 C 85.43 392.06 82.68 391.87 80.61 390.25 C 79.20 388.53 78.55 386.20 78.91 384.01 C 81.32 367.01 88.41 351.08 90.68 334.05 Z" fill="#80e6ff" opacity="1.00" stroke="#80e6ff" stroke-width="0.25"/>
<path d="M 73.72 403.86 C 72.76 396.96 73.41 389.91 74.04 382.99 C 73.83 386.54 74.45 390.34 77.04 392.97 C 80.24 396.64 85.49 396.73 89.98 396.75 C 117.13 396.67 144.29 396.97 171.44 396.59 C 179.01 395.93 186.88 397.00 194.18 394.47 C 195.37 398.94 193.94 404.95 188.87 406.14 C 176.70 408.41 164.26 407.12 151.98 408.12 C 129.33 408.52 106.68 408.40 84.03 408.37 C 80.18 408.49 75.98 407.15 73.72 403.86 Z" fill="#80e6ff" opacity="1.00" stroke="#80e6ff" stroke-width="0.25"/>
<path d="M 425.60 396.66 C 430.98 396.96 435.39 393.28 437.55 388.61 C 438.78 392.65 438.78 396.92 438.48 401.10 C 438.63 404.11 435.92 406.17 433.47 407.32 C 430.15 408.72 426.45 408.32 422.93 408.41 C 400.64 408.43 378.35 408.47 356.06 408.10 C 346.03 407.17 335.90 408.12 325.91 406.76 C 322.81 406.37 319.21 405.36 317.90 402.20 C 317.18 399.63 317.43 396.92 317.40 394.29 C 320.46 395.48 323.72 396.00 327.00 396.11 C 335.98 396.39 344.96 396.81 353.95 396.74 C 377.83 396.72 401.72 396.87 425.60 396.66 Z" fill="#80e6ff" opacity="1.00" stroke="#80e6ff" stroke-width="0.25"/>
</svg>