<svg xmlns="http://www.w3.org/2000/svg" height="512pt" version="1.1" viewBox="0 0 512 512" width="512pt">

<path d="M 259.37 88.44 C 262.82 86.08 267.12 85.67 271.13 86.60 C 273.05 88.81 274.75 91.72 277.93 92.20 C 280.75 92.95 283.39 91.41 286.03 90.67 C 287.72 90.42 288.43 92.54 288.68 93.85 C 289.24 98.48 288.39 103.30 286.26 107.44 C 282.59 107.52 280.24 110.65 277.78 112.93 C 278.32 112.93 279.41 112.94 279.95 112.94 C 276.28 115.33 272.01 116.46 267.82 117.55 C 267.06 120.77 267.99 125.38 265.04 127.55 C 263.38 126.90 261.88 125.82 260.12 125.42 C 258.73 126.03 257.59 127.06 256.46 128.03 C 256.13 128.37 255.47 129.04 255.14 129.38 C 254.76 133.13 257.00 136.15 258.72 139.24 C 256.11 146.01 247.28 142.38 242.64 145.98 C 241.84 150.15 247.95 149.96 250.65 151.25 C 246.35 150.19 241.88 150.84 238.57 153.92 C 237.52 153.73 236.49 153.54 235.44 153.41 C 234.95 153.36 233.99 153.24 233.50 153.19 C 234.73 152.55 235.94 151.89 237.15 151.21 C 234.71 151.30 232.28 151.40 229.86 151.68 C 233.29 150.47 236.95 150.31 240.53 149.85 C 240.98 148.07 241.44 146.29 241.88 144.50 C 232.84 137.61 228.91 126.03 228.62 115.02 C 228.65 109.21 231.30 101.45 238.22 101.24 C 241.27 97.69 243.54 93.20 247.81 90.91 C 251.43 88.91 255.96 90.88 259.37 88.44 Z" fill="#043458" opacity="1.00" stroke="#043458" stroke-width="0.25" data-index="1"></path>
<path d="M 277.78 112.93 C 280.24 110.65 282.59 107.52 286.26 107.44 C 287.38 112.23 288.61 117.07 288.46 122.03 C 287.94 127.07 293.32 130.40 292.82 135.48 C 290.88 136.05 288.93 136.55 286.96 136.97 C 285.69 143.98 280.32 150.56 273.09 151.82 C 270.04 152.68 266.92 151.79 263.89 151.35 C 263.74 152.55 263.61 153.75 263.50 154.96 C 265.57 155.43 267.61 155.98 269.65 156.58 C 269.18 156.90 268.24 157.54 267.77 157.86 C 263.56 157.76 259.21 156.90 255.12 158.34 C 250.72 159.81 246.57 162.06 242.82 164.78 C 241.19 166.00 239.61 167.29 238.04 168.59 C 238.31 168.76 238.84 169.10 239.11 169.27 L 240.11 169.91 C 241.36 170.77 242.58 171.67 243.81 172.57 C 244.11 172.28 244.70 171.70 245.00 171.41 C 250.86 165.71 257.74 160.43 266.02 159.08 C 263.06 161.24 259.84 163.00 256.76 164.97 C 252.73 167.46 249.37 170.82 245.69 173.75 C 244.70 174.35 243.71 174.93 242.71 175.50 C 240.83 173.57 238.60 172.01 236.19 170.82 C 236.33 169.46 236.46 168.11 236.59 166.75 C 243.58 160.73 251.88 155.75 261.25 154.85 C 257.78 153.46 254.28 152.14 250.65 151.25 C 247.95 149.96 241.84 150.15 242.64 145.98 C 247.28 142.38 256.11 146.01 258.72 139.24 C 257.00 136.15 254.76 133.13 255.14 129.38 C 255.47 129.04 256.13 128.37 256.46 128.03 C 256.66 130.40 256.23 133.10 257.87 135.07 C 259.33 136.90 261.90 136.99 263.95 137.76 C 263.80 138.16 263.50 138.97 263.35 139.38 C 262.74 139.43 261.53 139.54 260.92 139.60 C 259.10 141.92 257.00 144.14 254.15 145.14 C 250.71 145.89 247.12 145.37 243.73 146.30 C 243.83 146.67 244.04 147.42 244.15 147.79 C 245.02 148.35 245.99 148.58 247.04 148.49 C 251.92 149.10 256.67 150.47 261.23 152.28 C 261.72 151.07 262.22 149.87 262.71 148.67 C 267.54 149.78 273.23 150.68 277.48 147.45 C 281.87 144.64 284.10 139.67 284.87 134.68 C 286.85 134.53 288.85 134.38 290.84 134.23 C 289.47 131.16 287.40 128.36 286.62 125.07 C 286.11 120.65 285.87 116.20 285.09 111.82 C 285.36 109.26 282.26 109.45 281.93 111.68 C 281.43 111.99 280.44 112.63 279.95 112.94 C 279.41 112.94 278.32 112.93 277.78 112.93 Z" fill="#0d2e37" opacity="1.00" stroke="#0d2e37" stroke-width="0.25" data-index="2"></path>
<path d="M 281.93 111.68 C 282.26 109.45 285.36 109.26 285.09 111.82 C 284.30 111.78 282.72 111.71 281.93 111.68 Z" fill="#94a0b0" opacity="1.00" stroke="#94a0b0" stroke-width="0.25" data-index="3"></path>
<path d="M 279.95 112.94 C 280.44 112.63 281.43 111.99 281.93 111.68 C 282.72 111.71 284.30 111.78 285.09 111.82 C 285.87 116.20 286.11 120.65 286.62 125.07 C 287.40 128.36 289.47 131.16 290.84 134.23 C 288.85 134.38 286.85 134.53 284.87 134.68 C 284.10 139.67 281.87 144.64 277.48 147.45 C 273.23 150.68 267.54 149.78 262.71 148.67 C 262.22 149.87 261.72 151.07 261.23 152.28 C 256.67 150.47 251.92 149.10 247.04 148.49 C 249.33 147.21 251.73 146.14 254.15 145.14 C 257.00 144.14 259.10 141.92 260.92 139.60 C 261.53 139.54 262.74 139.43 263.35 139.38 C 263.50 138.97 263.80 138.16 263.95 137.76 C 261.90 136.99 259.33 136.90 257.87 135.07 C 256.23 133.10 256.66 130.40 256.46 128.03 C 257.59 127.06 258.73 126.03 260.12 125.42 C 261.88 125.82 263.38 126.90 265.04 127.55 C 267.99 125.38 267.06 120.77 267.82 117.55 C 272.01 116.46 276.28 115.33 279.95 112.94 Z" fill="#feccb3" opacity="1.00" stroke="#feccb3" stroke-width="0.25" data-index="4"></path>
<path d="M 272.58 120.52 C 275.75 118.36 279.79 118.36 283.48 118.18 C 283.48 119.56 283.48 120.95 283.47 122.33 C 279.86 123.00 276.21 123.54 272.53 123.49 C 272.50 122.50 272.52 121.51 272.58 120.52 Z" fill="#0b2a4c" opacity="1.00" stroke="#0b2a4c" stroke-width="0.25" data-index="5"></path>
<path d="M 278.23 125.62 C 279.73 125.53 281.23 125.45 282.73 125.40 C 282.47 127.10 283.32 129.71 281.03 130.24 C 278.23 131.19 278.23 127.41 278.23 125.62 Z" fill="#1f354c" opacity="1.00" stroke="#1f354c" stroke-width="0.25" data-index="6"></path>
<path d="M 243.73 146.30 C 247.12 145.37 250.71 145.89 254.15 145.14 C 251.73 146.14 249.33 147.21 247.04 148.49 C 245.99 148.58 245.02 148.35 244.15 147.79 C 244.04 147.42 243.83 146.67 243.73 146.30 Z" fill="#ffffff" opacity="1.00" stroke="#ffffff" stroke-width="0.25" data-index="7"></path>
<path d="M 229.86 151.68 C 232.28 151.40 234.71 151.30 237.15 151.21 C 235.94 151.89 234.73 152.55 233.50 153.19 C 227.53 154.45 222.98 158.65 219.70 163.59 C 221.73 163.92 223.77 164.24 225.81 164.53 C 228.44 160.37 231.37 156.28 235.44 153.41 C 236.49 153.54 237.52 153.73 238.57 153.92 C 234.52 156.70 231.58 160.68 228.38 164.33 C 227.48 165.31 226.54 166.27 225.63 167.25 C 224.53 166.93 223.44 166.62 222.35 166.31 C 220.81 165.50 219.31 164.62 217.81 163.75 C 218.57 162.32 219.32 160.87 220.15 159.48 C 222.54 156.03 226.02 153.34 229.86 151.68 Z" fill="#0d2e37" opacity="1.00" stroke="#0d2e37" stroke-width="0.25" data-index="8"></path>
<path d="M 238.57 153.92 C 241.88 150.84 246.35 150.19 250.65 151.25 C 254.28 152.14 257.78 153.46 261.25 154.85 C 251.88 155.75 243.58 160.73 236.59 166.75 C 233.68 166.69 231.01 165.44 228.38 164.33 C 231.58 160.68 234.52 156.70 238.57 153.92 Z" fill="#71e2fd" opacity="1.00" stroke="#71e2fd" stroke-width="0.25" data-index="9"></path>
<path d="M 219.70 163.59 C 222.98 158.65 227.53 154.45 233.50 153.19 C 233.99 153.24 234.95 153.36 235.44 153.41 C 231.37 156.28 228.44 160.37 225.81 164.53 C 223.77 164.24 221.73 163.92 219.70 163.59 Z" fill="#f5c71f" opacity="1.00" stroke="#f5c71f" stroke-width="0.25" data-index="10"></path>
<path d="M 269.65 156.58 C 273.53 158.28 277.99 159.92 279.98 163.98 C 284.99 173.48 285.73 184.40 286.45 194.90 C 288.14 219.43 290.04 243.93 291.81 268.44 C 288.20 270.96 283.81 269.79 279.83 270.72 C 277.93 270.99 276.03 271.27 274.13 271.53 C 274.26 274.72 274.40 277.91 274.51 281.11 C 275.74 280.50 276.97 279.88 278.21 279.28 C 278.49 280.73 278.76 282.18 279.07 283.63 C 279.30 285.02 279.50 286.43 279.65 287.84 C 281.34 287.51 283.04 287.19 284.75 286.89 C 284.81 287.26 284.92 287.98 284.97 288.34 C 284.86 288.59 284.64 289.08 284.53 289.33 C 281.41 289.88 277.90 290.34 275.96 287.21 C 275.81 289.36 275.62 291.51 275.44 293.67 C 279.68 292.65 283.95 291.79 288.25 291.13 C 284.66 292.00 281.12 293.04 277.57 294.05 C 279.07 294.19 280.58 294.32 282.10 294.42 C 279.48 295.00 276.88 295.64 274.25 296.17 C 278.51 298.63 281.51 302.71 282.54 307.54 C 282.56 315.56 282.69 323.59 282.58 331.62 C 282.30 337.46 282.06 343.32 282.42 349.17 C 282.44 349.78 282.50 351.00 282.52 351.62 C 281.31 351.89 280.10 352.16 278.89 352.44 C 279.75 357.25 281.18 361.93 282.49 366.63 C 285.84 368.28 289.27 369.79 292.50 371.68 C 293.93 372.31 293.63 374.11 294.04 375.37 C 288.42 377.04 282.74 378.52 277.09 380.08 C 270.96 381.67 265.00 383.94 258.70 384.83 C 258.00 381.80 257.54 378.71 257.40 375.60 C 256.93 375.37 255.97 374.89 255.50 374.65 C 254.73 369.71 253.82 364.79 252.85 359.89 C 249.55 367.00 246.56 374.25 243.12 381.28 C 242.32 383.08 241.02 384.79 241.13 386.86 C 241.23 395.41 243.38 403.90 242.27 412.47 C 240.85 412.43 239.26 412.88 238.05 411.93 C 229.80 406.60 222.34 400.17 214.63 394.11 C 213.68 387.25 208.27 382.31 206.40 375.84 C 208.36 373.26 210.76 371.06 213.05 368.78 C 213.77 364.01 217.10 360.26 219.17 356.03 C 223.70 348.39 226.95 340.10 230.24 331.88 C 230.66 330.61 231.37 329.34 231.16 327.96 C 228.91 305.52 226.10 283.12 224.26 260.63 C 223.31 260.19 222.36 259.75 221.41 259.31 C 221.70 257.00 222.03 254.70 222.40 252.40 C 212.28 249.14 202.24 245.67 192.26 242.02 L 192.26 241.80 C 192.22 240.93 192.20 240.06 192.18 239.19 C 192.21 227.11 194.06 215.13 194.68 203.07 C 195.35 196.20 195.60 189.30 196.44 182.45 C 196.76 179.86 197.17 177.18 196.32 174.65 C 195.98 174.02 195.31 172.76 194.97 172.13 C 200.15 165.58 208.77 163.52 216.74 163.40 C 217.88 162.09 219.00 160.77 220.15 159.48 C 219.32 160.87 218.57 162.32 217.81 163.75 C 219.31 164.62 220.81 165.50 222.35 166.31 C 219.87 165.93 217.38 165.73 214.87 165.64 C 221.30 167.50 228.45 168.74 233.31 173.74 C 237.77 178.65 239.14 185.46 240.30 191.78 C 240.74 193.45 239.74 194.98 239.17 196.47 C 236.36 189.37 236.61 180.78 231.02 175.00 C 225.76 170.35 218.54 168.88 211.86 167.47 C 208.06 166.51 204.33 167.85 200.89 169.37 C 208.20 170.73 216.01 171.53 222.43 175.57 C 228.31 180.92 229.73 189.42 230.28 196.99 C 231.03 214.95 229.80 232.91 229.13 250.86 C 233.84 250.64 239.25 251.34 243.19 248.19 C 246.24 245.53 246.09 241.11 246.77 237.44 C 248.21 225.56 247.82 213.56 248.30 201.62 C 247.53 201.71 245.99 201.89 245.22 201.98 C 245.23 204.18 245.24 206.38 245.23 208.59 C 244.79 208.39 243.90 208.01 243.46 207.81 L 242.46 207.34 C 242.47 205.67 242.39 203.98 242.06 202.33 C 239.16 201.47 234.87 202.61 233.84 198.82 C 236.41 198.76 239.00 198.76 241.58 198.80 C 241.87 197.27 242.16 195.74 242.46 194.21 C 243.00 194.25 244.07 194.33 244.61 194.37 C 244.66 196.02 244.70 197.68 244.75 199.34 C 245.94 199.86 247.13 200.37 248.33 200.89 C 247.44 192.32 248.00 182.84 242.71 175.50 C 243.71 174.93 244.70 174.35 245.69 173.75 C 247.32 177.73 248.93 181.76 249.66 186.02 C 252.27 201.02 251.72 216.34 250.75 231.47 C 254.62 226.41 258.16 221.11 261.84 215.91 C 263.19 213.84 264.87 211.72 264.84 209.13 C 265.09 204.05 264.56 198.96 264.84 193.89 C 264.71 192.40 265.68 191.25 266.49 190.14 C 267.26 195.06 267.21 200.06 267.35 205.02 C 267.96 226.54 269.50 248.01 271.53 269.43 C 277.51 268.49 283.52 267.73 289.50 266.76 C 286.84 239.87 285.34 212.89 283.15 185.96 C 282.67 182.35 283.31 178.17 280.77 175.21 C 276.56 169.93 271.17 165.77 266.09 161.37 C 262.93 162.43 259.77 163.52 256.76 164.97 C 259.84 163.00 263.06 161.24 266.02 159.08 C 266.60 158.67 267.18 158.26 267.77 157.86 C 268.24 157.54 269.18 156.90 269.65 156.58 Z" fill="#05355a" opacity="1.00" stroke="#05355a" stroke-width="0.25" data-index="11"></path>
<path d="M 242.82 164.78 C 246.57 162.06 250.72 159.81 255.12 158.34 C 259.21 156.90 263.56 157.76 267.77 157.86 C 267.18 158.26 266.60 158.67 266.02 159.08 C 257.74 160.43 250.86 165.71 245.00 171.41 C 243.36 170.93 241.72 170.46 240.11 169.91 L 239.11 169.27 C 240.32 167.75 241.52 166.23 242.82 164.78 Z" fill="#fcbd12" opacity="1.00" stroke="#fcbd12" stroke-width="0.25" data-index="12"></path>
<path d="M 256.76 164.97 C 259.77 163.52 262.93 162.43 266.09 161.37 C 271.17 165.77 276.56 169.93 280.77 175.21 C 283.31 178.17 282.67 182.35 283.15 185.96 C 285.34 212.89 286.84 239.87 289.50 266.76 C 283.52 267.73 277.51 268.49 271.53 269.43 C 269.50 248.01 267.96 226.54 267.35 205.02 C 267.21 200.06 267.26 195.06 266.49 190.14 C 265.68 191.25 264.71 192.40 264.84 193.89 C 264.56 198.96 265.09 204.05 264.84 209.13 C 264.87 211.72 263.19 213.84 261.84 215.91 C 258.16 221.11 254.62 226.41 250.75 231.47 C 251.72 216.34 252.27 201.02 249.66 186.02 C 248.93 181.76 247.32 177.73 245.69 173.75 C 249.37 170.82 252.73 167.46 256.76 164.97 Z" fill="#72e4ff" opacity="1.00" stroke="#72e4ff" stroke-width="0.25" data-index="13"></path>
<path d="M 225.63 167.25 C 226.54 166.27 227.48 165.31 228.38 164.33 C 231.01 165.44 233.68 166.69 236.59 166.75 C 236.46 168.11 236.33 169.46 236.19 170.82 C 232.75 169.40 229.20 168.27 225.63 167.25 Z" fill="#00394a" opacity="1.00" stroke="#00394a" stroke-width="0.25" data-index="14"></path>
<path d="M 214.87 165.64 C 217.38 165.73 219.87 165.93 222.35 166.31 C 223.44 166.62 224.53 166.93 225.63 167.25 C 229.20 168.27 232.75 169.40 236.19 170.82 C 238.60 172.01 240.83 173.57 242.71 175.50 C 248.00 182.84 247.44 192.32 248.33 200.89 C 247.13 200.37 245.94 199.86 244.75 199.34 C 244.70 197.68 244.66 196.02 244.61 194.37 C 244.07 194.33 243.00 194.25 242.46 194.21 C 242.16 195.74 241.87 197.27 241.58 198.80 C 239.00 198.76 236.41 198.76 233.84 198.82 C 234.87 202.61 239.16 201.47 242.06 202.33 C 242.39 203.98 242.47 205.67 242.46 207.34 C 242.36 211.70 239.77 217.31 243.54 220.78 C 244.25 216.50 244.52 212.07 243.46 207.81 C 243.90 208.01 244.79 208.39 245.23 208.59 C 245.24 206.38 245.23 204.18 245.22 201.98 C 245.99 201.89 247.53 201.71 248.30 201.62 C 247.82 213.56 248.21 225.56 246.77 237.44 C 246.09 241.11 246.24 245.53 243.19 248.19 C 239.25 251.34 233.84 250.64 229.13 250.86 C 229.80 232.91 231.03 214.95 230.28 196.99 C 229.73 189.42 228.31 180.92 222.43 175.57 C 216.01 171.53 208.20 170.73 200.89 169.37 C 204.33 167.85 208.06 166.51 211.86 167.47 C 218.54 168.88 225.76 170.35 231.02 175.00 C 236.61 180.78 236.36 189.37 239.17 196.47 C 239.74 194.98 240.74 193.45 240.30 191.78 C 239.14 185.46 237.77 178.65 233.31 173.74 C 228.45 168.74 221.30 167.50 214.87 165.64 Z" fill="#8ee0bf" opacity="1.00" stroke="#8ee0bf" stroke-width="0.25" data-index="15"></path>
<path d="M 238.04 168.59 C 239.61 167.29 241.19 166.00 242.82 164.78 C 241.52 166.23 240.32 167.75 239.11 169.27 C 238.84 169.10 238.31 168.76 238.04 168.59 Z" fill="#fdcab0" opacity="1.00" stroke="#fdcab0" stroke-width="0.25" data-index="16"></path>
<path d="M 240.11 169.91 C 241.72 170.46 243.36 170.93 245.00 171.41 C 244.70 171.70 244.11 172.28 243.81 172.57 C 242.58 171.67 241.36 170.77 240.11 169.91 Z" fill="#fdcab0" opacity="1.00" stroke="#fdcab0" stroke-width="0.25" data-index="17"></path>
<path d="M 199.48 172.63 C 206.05 172.34 212.64 173.77 218.61 176.47 C 224.02 179.03 226.08 185.41 226.66 190.96 C 227.37 202.99 225.76 214.98 225.28 226.99 C 224.61 234.66 224.48 242.36 223.74 250.02 C 213.81 247.20 204.04 243.81 194.40 240.10 C 195.19 229.45 196.47 218.83 196.72 208.15 C 203.54 212.18 211.49 213.25 219.16 214.54 C 219.68 214.17 220.73 213.43 221.25 213.06 C 222.15 209.63 223.11 206.04 222.42 202.48 C 220.47 200.39 217.45 200.00 214.86 199.15 C 209.92 198.00 205.00 196.01 199.84 196.48 C 198.81 197.89 198.14 199.51 197.41 201.08 C 198.08 191.60 199.16 182.14 199.48 172.63 Z" fill="#73e4ff" opacity="1.00" stroke="#73e4ff" stroke-width="0.25" data-index="18"></path>
<path d="M 194.97 172.13 C 195.31 172.76 195.98 174.02 196.32 174.65 C 195.88 176.04 195.45 177.44 195.03 178.84 C 189.69 197.63 188.26 217.24 186.47 236.61 C 188.35 237.51 190.25 238.37 192.18 239.19 C 192.20 240.06 192.22 240.93 192.26 241.80 C 189.65 240.80 186.85 239.99 184.76 238.05 C 185.01 222.90 188.16 208.00 189.22 192.93 C 189.92 185.75 191.76 178.61 194.97 172.13 Z" fill="#0d2e37" opacity="1.00" stroke="#0d2e37" stroke-width="0.25" data-index="19"></path>
<path d="M 196.32 174.65 C 197.17 177.18 196.76 179.86 196.44 182.45 C 195.99 181.23 195.52 180.03 195.03 178.84 C 195.45 177.44 195.88 176.04 196.32 174.65 Z" fill="#949d71" opacity="1.00" stroke="#949d71" stroke-width="0.25" data-index="20"></path>
<path d="M 186.47 236.61 C 188.26 217.24 189.69 197.63 195.03 178.84 C 195.52 180.03 195.99 181.23 196.44 182.45 C 195.60 189.30 195.35 196.20 194.68 203.07 C 194.06 215.13 192.21 227.11 192.18 239.19 C 190.25 238.37 188.35 237.51 186.47 236.61 Z" fill="#eec544" opacity="1.00" stroke="#eec544" stroke-width="0.25" data-index="21"></path>
<path d="M 192.56 192.33 C 192.85 192.34 193.42 192.34 193.71 192.34 C 193.42 207.29 191.08 222.10 190.64 237.03 C 189.72 236.17 188.13 235.59 188.33 234.07 C 188.96 220.08 191.77 206.29 192.56 192.33 Z" fill="#feb80d" opacity="1.00" stroke="#feb80d" stroke-width="0.25" data-index="22"></path>
<path d="M 185.62 217.90 C 186.74 209.57 187.35 201.14 189.22 192.93 C 188.16 208.00 185.01 222.90 184.76 238.05 C 184.10 231.32 185.13 224.60 185.62 217.90 Z" fill="#05355a" opacity="1.00" stroke="#05355a" stroke-width="0.25" data-index="23"></path>
<path d="M 199.24 202.38 C 199.83 201.10 200.38 199.81 200.93 198.52 C 207.29 199.54 213.67 200.95 219.66 203.34 C 219.68 203.71 219.73 204.44 219.75 204.81 C 219.62 205.39 219.37 206.54 219.25 207.12 C 212.45 206.11 205.96 203.76 199.24 202.38 Z" fill="#7be6fa" opacity="1.00" stroke="#7be6fa" stroke-width="0.25" data-index="24"></path>
<path d="M 199.24 202.38 C 205.96 203.76 212.45 206.11 219.25 207.12 C 219.37 206.54 219.62 205.39 219.75 204.81 C 219.69 207.14 219.57 209.47 219.36 211.79 C 212.55 210.99 205.69 209.95 199.34 207.26 C 199.17 205.64 199.14 204.00 199.24 202.38 Z" fill="#f9ffff" opacity="1.00" stroke="#f9ffff" stroke-width="0.25" data-index="25"></path>
<path d="M 242.46 207.34 L 243.46 207.81 C 244.52 212.07 244.25 216.50 243.54 220.78 C 239.77 217.31 242.36 211.70 242.46 207.34 Z" fill="#dffdf7" opacity="1.00" stroke="#dffdf7" stroke-width="0.25" data-index="26"></path>
<path d="M 251.27 237.24 C 256.18 231.25 260.46 224.78 265.25 218.70 C 265.92 233.60 266.52 248.54 268.35 263.36 C 253.47 263.24 238.71 261.06 224.22 257.75 C 224.24 256.19 224.27 254.64 224.29 253.08 C 231.02 253.89 238.63 254.43 244.52 250.46 C 249.00 247.35 247.59 240.89 251.27 237.24 Z" fill="#71e4fe" opacity="1.00" stroke="#71e4fe" stroke-width="0.25" data-index="27"></path>
<path d="M 253.56 270.01 C 254.06 270.08 255.06 270.22 255.56 270.29 C 255.61 286.84 251.05 303.13 244.05 318.03 C 241.85 323.15 238.82 327.84 236.45 332.87 C 235.93 332.75 234.90 332.52 234.39 332.40 C 242.47 317.72 249.65 302.16 252.15 285.45 C 252.87 280.33 253.52 275.18 253.56 270.01 Z" fill="#f7ffff" opacity="1.00" stroke="#f7ffff" stroke-width="0.25" data-index="28"></path>
<path d="M 274.13 271.53 C 276.03 271.27 277.93 270.99 279.83 270.72 C 282.34 271.20 285.43 269.63 287.55 271.40 C 288.73 274.43 288.96 277.83 288.37 281.02 C 287.91 284.39 284.17 285.38 281.75 287.04 C 280.82 285.91 279.88 284.83 279.07 283.63 C 278.76 282.18 278.49 280.73 278.21 279.28 C 276.97 279.88 275.74 280.50 274.51 281.11 C 274.40 277.91 274.26 274.72 274.13 271.53 Z" fill="#fdcab0" opacity="1.00" stroke="#fdcab0" stroke-width="0.25" data-index="29"></path>
<path d="M 288.36 272.31 C 288.91 271.50 289.48 270.70 290.06 269.91 C 291.33 273.16 291.49 276.63 291.40 280.07 C 295.71 280.95 296.45 285.62 296.85 289.29 C 301.76 289.12 306.97 291.08 309.06 295.82 C 306.81 293.42 304.22 291.35 301.26 289.89 C 301.33 290.29 301.46 291.10 301.53 291.51 C 302.19 295.76 304.06 299.75 304.34 304.07 C 305.02 317.37 304.09 330.67 303.60 343.95 C 303.61 344.32 303.64 345.07 303.65 345.45 C 304.93 345.39 306.20 345.28 307.48 345.14 L 308.15 345.07 C 299.82 348.00 291.05 349.40 282.52 351.62 C 282.50 351.00 282.44 349.78 282.42 349.17 C 287.33 347.65 292.38 346.60 297.38 345.42 C 299.01 332.02 298.78 318.50 298.74 305.03 C 298.68 300.91 298.04 295.86 294.08 293.61 C 290.09 292.76 286.04 293.77 282.10 294.42 C 280.58 294.32 279.07 294.19 277.57 294.05 C 281.12 293.04 284.66 292.00 288.25 291.13 C 288.93 290.99 290.28 290.72 290.95 290.59 C 290.86 288.75 290.78 286.92 290.68 285.10 C 290.21 285.69 289.28 286.89 288.81 287.49 L 288.13 287.39 C 287.55 287.10 286.39 286.52 285.81 286.22 C 288.57 285.90 288.55 283.05 289.00 281.06 C 289.63 278.13 288.98 275.17 288.36 272.31 Z" fill="#0a3652" opacity="1.00" stroke="#0a3652" stroke-width="0.25" data-index="30"></path>
<path d="M 290.68 285.10 C 290.78 286.92 290.86 288.75 290.95 290.59 C 290.28 290.72 288.93 290.99 288.25 291.13 C 283.95 291.79 279.68 292.65 275.44 293.67 C 275.62 291.51 275.81 289.36 275.96 287.21 C 277.90 290.34 281.41 289.88 284.53 289.33 C 284.64 289.08 284.86 288.59 284.97 288.34 C 286.00 287.96 287.06 287.64 288.13 287.39 L 288.81 287.49 C 289.28 286.89 290.21 285.69 290.68 285.10 Z" fill="#f7ffff" opacity="1.00" stroke="#f7ffff" stroke-width="0.25" data-index="31"></path>
<path d="M 301.53 291.51 C 301.46 291.10 301.33 290.29 301.26 289.89 C 304.22 291.35 306.81 293.42 309.06 295.82 L 309.52 296.29 C 310.32 300.15 310.71 304.08 310.67 308.02 C 310.69 319.37 310.71 330.76 309.38 342.05 C 309.22 343.26 308.90 344.81 307.48 345.14 C 306.20 345.28 304.93 345.39 303.65 345.45 C 303.64 345.07 303.61 344.32 303.60 343.95 C 304.58 343.79 305.57 343.64 306.56 343.50 C 307.61 338.40 307.70 333.18 307.86 328.00 C 308.32 320.34 308.45 312.66 308.26 304.99 C 308.04 301.82 307.93 298.45 306.29 295.64 C 305.05 293.90 303.13 292.85 301.53 291.51 Z" fill="#142740" opacity="1.00" stroke="#142740" stroke-width="0.25" data-index="32"></path>
<path d="M 301.53 291.51 C 303.13 292.85 305.05 293.90 306.29 295.64 C 307.93 298.45 308.04 301.82 308.26 304.99 C 308.45 312.66 308.32 320.34 307.86 328.00 C 307.70 333.18 307.61 338.40 306.56 343.50 C 305.57 343.64 304.58 343.79 303.60 343.95 C 304.09 330.67 305.02 317.37 304.34 304.07 C 304.06 299.75 302.19 295.76 301.53 291.51 Z" fill="#e57141" opacity="1.00" stroke="#e57141" stroke-width="0.25" data-index="33"></path>
<path d="M 282.10 294.42 C 286.04 293.77 290.09 292.76 294.08 293.61 C 298.04 295.86 298.68 300.91 298.74 305.03 C 298.78 318.50 299.01 332.02 297.38 345.42 C 292.38 346.60 287.33 347.65 282.42 349.17 C 282.06 343.32 282.30 337.46 282.58 331.62 C 283.62 323.63 282.42 315.56 283.50 307.57 C 285.61 320.62 283.70 333.88 283.26 346.99 C 287.39 346.22 291.49 345.31 295.56 344.31 C 296.93 338.98 297.27 333.47 297.14 327.99 C 297.01 319.33 297.73 310.64 297.02 301.99 C 296.90 298.93 295.24 295.47 291.96 294.85 C 287.51 294.27 283.15 295.80 278.89 296.86 C 281.34 299.91 283.60 303.43 282.54 307.54 C 281.51 302.71 278.51 298.63 274.25 296.17 C 276.88 295.64 279.48 295.00 282.10 294.42 Z" fill="#eec544" opacity="1.00" stroke="#eec544" stroke-width="0.25" data-index="34"></path>
<path d="M 278.89 296.86 C 283.15 295.80 287.51 294.27 291.96 294.85 C 295.24 295.47 296.90 298.93 297.02 301.99 C 297.73 310.64 297.01 319.33 297.14 327.99 C 297.27 333.47 296.93 338.98 295.56 344.31 C 291.49 345.31 287.39 346.22 283.26 346.99 C 283.70 333.88 285.61 320.62 283.50 307.57 C 282.42 315.56 283.62 323.63 282.58 331.62 C 282.69 323.59 282.56 315.56 282.54 307.54 C 283.60 303.43 281.34 299.91 278.89 296.86 Z" fill="#ffbc11" opacity="1.00" stroke="#ffbc11" stroke-width="0.25" data-index="35"></path>
<path d="M 262.39 297.71 C 265.98 297.00 270.25 297.24 273.02 299.92 C 275.94 302.80 277.79 306.86 277.59 311.00 C 277.57 323.65 277.76 336.32 276.48 348.92 C 276.23 351.41 272.96 351.46 271.10 351.98 C 265.43 352.56 259.81 350.45 254.65 348.33 C 251.64 347.18 252.83 343.45 252.83 340.99 C 253.71 334.65 253.23 328.20 254.49 321.92 C 255.53 316.35 255.52 310.63 256.60 305.07 C 257.24 301.92 259.19 298.73 262.39 297.71 Z" fill="#5a4243" opacity="1.00" stroke="#5a4243" stroke-width="0.25" data-index="36"></path>
<path d="M 262.38 299.67 C 264.51 298.24 267.11 298.70 269.32 299.66 C 273.62 301.07 275.59 305.79 276.17 309.93 C 276.88 323.12 275.57 336.30 275.53 349.49 C 275.24 339.31 276.02 329.15 275.89 318.97 C 275.76 313.82 276.56 308.15 273.68 303.57 C 270.94 298.94 263.35 297.41 259.87 302.02 C 258.08 305.44 257.78 309.40 256.92 313.12 C 257.81 308.51 257.32 301.96 262.38 299.67 Z" fill="#fdcab0" opacity="1.00" stroke="#fdcab0" stroke-width="0.25" data-index="37"></path>
<path d="M 259.87 302.02 C 263.35 297.41 270.94 298.94 273.68 303.57 C 276.56 308.15 275.76 313.82 275.89 318.97 C 276.02 329.15 275.24 339.31 275.53 349.49 C 268.44 352.14 261.06 349.65 254.38 347.05 C 253.75 335.69 255.48 324.35 256.92 313.12 C 257.78 309.40 258.08 305.44 259.87 302.02 Z" fill="#f2652e" opacity="1.00" stroke="#f2652e" stroke-width="0.25" data-index="38"></path>
<path d="M 262.73 305.91 C 263.30 305.53 264.43 304.78 265.00 304.40 C 265.63 304.76 266.90 305.47 267.53 305.83 C 267.95 313.12 266.47 320.31 266.35 327.58 C 265.79 333.22 265.59 338.91 264.43 344.48 C 262.70 345.30 260.87 345.22 259.10 344.58 C 259.27 331.62 260.45 318.67 262.73 305.91 Z" fill="#0a3455" opacity="1.00" stroke="#0a3455" stroke-width="0.25" data-index="39"></path>
<path d="M 287.14 328.00 C 289.73 327.24 294.20 326.63 295.14 330.00 C 295.93 332.80 294.43 337.11 291.06 337.24 C 289.30 337.38 287.43 337.01 286.04 335.88 C 285.32 333.38 284.90 329.84 287.14 328.00 Z" fill="#eec544" opacity="1.00" stroke="#eec544" stroke-width="0.25" data-index="40"></path>
<path d="M 287.36 329.28 C 289.08 328.62 291.16 327.69 292.91 328.79 C 293.57 329.86 294.18 330.97 294.74 332.11 C 293.21 333.99 291.68 336.56 288.87 336.35 C 285.67 335.37 286.73 331.70 287.36 329.28 Z" fill="#3a3810" opacity="1.00" stroke="#3a3810" stroke-width="0.25" data-index="41"></path>
<path d="M 288.48 331.78 C 289.54 331.20 290.61 330.62 291.68 330.06 C 291.63 331.21 291.58 332.37 291.53 333.53 C 290.99 333.55 289.92 333.60 289.39 333.63 C 289.08 333.01 288.78 332.39 288.48 331.78 Z" fill="#fdcab0" opacity="1.00" stroke="#fdcab0" stroke-width="0.25" data-index="42"></path>
<path d="M 259.58 374.73 C 266.47 372.95 273.03 370.02 279.91 368.30 C 283.83 369.76 287.73 371.53 291.15 373.99 C 280.82 376.33 270.75 379.68 260.44 382.06 C 260.19 379.61 259.88 377.17 259.58 374.73 Z" fill="#73e2fd" opacity="1.00" stroke="#73e2fd" stroke-width="0.25" data-index="43"></path>
<path d="M 211.60 373.00 C 213.01 371.62 214.35 370.13 215.97 368.99 C 224.57 372.64 232.25 378.58 238.10 385.85 C 239.54 393.71 240.13 401.85 240.16 409.86 C 234.46 399.79 228.49 389.83 221.44 380.64 C 218.85 377.31 215.22 375.05 211.60 373.00 Z" fill="#72e2fe" opacity="1.00" stroke="#72e2fe" stroke-width="0.25" data-index="44"></path>
<path d="M 209.06 374.94 C 215.41 376.90 220.01 382.08 223.57 387.45 C 226.51 391.99 229.79 396.37 231.85 401.41 C 227.53 397.24 221.84 394.99 216.67 392.12 C 215.58 388.32 213.89 384.72 211.60 381.49 C 210.16 379.57 209.26 377.34 209.06 374.94 Z" fill="#88d9f5" opacity="1.00" stroke="#88d9f5" stroke-width="0.25" data-index="45"></path>

<path d="M 255.96 385.79 C 275.96 385.59 295.96 385.20 315.96 384.85 C 315.94 387.25 314.04 387.40 312.13 387.27 C 295.63 387.50 279.11 387.29 262.63 388.11 C 257.90 388.25 253.16 388.26 248.44 388.32 C 248.43 387.81 248.43 386.78 248.43 386.26 C 250.87 385.55 253.45 385.83 255.96 385.79 Z" fill="#122d42" opacity="1.00" stroke="#122d42" stroke-width="0.25" data-index="47" style="visibility: hidden; opacity: 1;"></path>
<path d="M 262.63 388.11 C 279.11 387.29 295.63 387.50 312.13 387.27 C 301.94 388.01 291.70 387.16 281.52 388.12 C 275.22 388.24 268.91 388.69 262.63 388.11 Z" fill="#88d9f5" opacity="1.00" stroke="#88d9f5" stroke-width="0.25" data-index="48"></path>

<path d="M 271.89 406.57 C 275.63 406.02 279.42 406.32 283.18 406.47 C 282.93 406.91 282.42 407.79 282.16 408.23 C 278.70 408.69 275.20 408.37 271.72 408.42 C 271.75 407.80 271.81 407.18 271.89 406.57 Z" fill="#122d42" opacity="1.00" stroke="#122d42" stroke-width="0.25" data-index="50" style="visibility: hidden; opacity: 1;"></path>
</svg>