<?xml version="1.0" encoding="UTF-8"?>
<svg id="Layer_1" xmlns="http://www.w3.org/2000/svg" version="1.1" viewBox="0 0 512 512">
  <!-- Generator: Adobe Illustrator 29.4.0, SVG Export Plug-In . SVG Version: 2.1.0 Build 152)  -->
  <defs>
    <style>
      .st0 {
        fill: #062948;
        stroke: #062948;
      }

      .st0, .st1, .st2, .st3, .st4 {
        stroke-width: .2px;
      }

      .st1 {
        fill: #b9f0fe;
        stroke: #b9f0fe;
      }

      .st2 {
        fill: #fafeff;
        stroke: #fafeff;
      }

      .st3 {
        fill: #fdc2a6;
        stroke: #fdc2a6;
      }

      .st4 {
        fill: #4edbfd;
        stroke: #4edbfd;
      }
    </style>
  </defs>
  <path class="st0" d="M219.1,49c17.9-5.1,36.8-8.9,55.5-6.4,15,2,28.9,8.9,41.1,17.6,2.2,1.5,4.2,3.3,6,5.2,27.6,2.9,52.8,21.1,64.8,46.1,7.5,14.9,9.5,32.1,8.1,48.5-1.2,14.9-7.4,28.9-7.2,43.9-.2,8.9,2.2,17.5,4.9,25.9,5.5,15.3,16.5,28.3,19.5,44.6,2.9,14.7-.4,30.7-9.8,42.5-8.7,12.1-22.7,20.2-37.5,21.8-10.7,1.5-21.4-1.3-31.6-4.1-8.8-2.7-17.7-5.6-27-5.9-1.7-.2-2.9,1.2-4.2,2.1-5.8,4.5-12.1,8.3-18.9,11.1,0,.3-.2.9-.3,1.1,10.5,4.4,20.2,11.4,27.3,20.4,11.6,2.1,23,5.3,34.3,8.5,9.6,2.8,18.9,6.8,26.7,13.2,9.9,8.3,17,19.5,21.9,31.3,2,5.8,4.7,11.5,5,17.6-.4.2-1.3.7-1.7,1-.8.2-2.3.6-3.1.9-4.3-20.2-14.5-41-33-51.6-13.9-7.5-29.6-10.5-44.7-14.2,4.3,6.7,7.9,13.9,10.9,21.3.7,2,1.8,4.7,0,6.5-11.8,11.7-27.7,18.9-44.1,20.9-5.6,18.5-11.4,36.9-16.4,55.5v.3c-1.9-.3-4.3.8-5.6-.8-7.9.9-15.9-.4-23.9,0-1.4-.1-3.1.4-4.4-.4-4.3-16.8-8.3-33.7-12.6-50.5-.6-2-.5-5.4-3.2-5.7-13.8-3.3-26.9-10.1-36.5-20.6-1.2-1.2,0-2.9.2-4.2,2.9-7.9,6.8-15.4,11.6-22.3-15.5,4.3-31.9,6.8-45.8,15.2-12,7.7-20.6,19.8-26,32.9-1.9,5.4-4.3,10.7-5,16.3-.4,0-1.3,0-1.7-.1-1.1-1-2.3-1.8-3.6-2.5,4.3-17.2,12.6-33.9,26-45.8,8.9-7.8,20.1-12.4,31.4-15.3,9.9-2.5,19.8-5.3,29.9-7.2,6.6-8.6,15.9-15.1,25.6-19.8-7.6-3.5-15.2-7.1-21.9-12.2-11.5,2.9-22.3,8.3-34.2,9.3-11.8,1.3-23.9-1.7-33.8-8.3-15.3-10.5-24.6-28-28.6-45.8-3.8-15.5-2.3-31.7,1.2-47,3.7-16,7-32.3,7.2-48.8.3-11.7-.2-23.8,3.5-35.1,5.3-16.9,16.1-32.6,32.1-40.9-4.1-9-4.1-19.7.1-28.6,5.5-11.8,16.7-20.8,29.4-23.5,3.1-.7,6.2,0,9.1,1.4,10.2-6.6,21.2-12.1,33-15.3Z"/>
  <path class="st2" d="M244.8,49.5c9.6-1.5,19.4-2,29.1-.8,16.8,2.6,32.6,10.7,45.2,21.9,2.5,1.1,5.3.8,7.9,1.5,26,5.2,49.1,24.6,57.5,49.9,3.7,10.6,5,21.9,4.4,33-.4,16.3-7.7,31.6-7.4,48-.3,7.5,1,14.9,3,22.1,2.5,9.4,7.3,18.1,11.6,26.8,6,10.3,11.2,21.9,10.7,34.1-.2,13.6-6.7,26.7-17,35.5-8.9,7.7-20.8,12-32.7,11.4-16,.2-30.3-8.6-46.2-9.4,2.9-3.6,6.1-7,8.9-10.7,6.4-8.6,11.2-18.3,14.8-28.4,6.6,1.1,13.9.5,19.6-3.2,8.8-5.2,13.8-15.2,14.3-25.2.4-7.9-.7-16.3-5.4-22.9-2-2.5-4.3-4.8-6.9-6.8,1.3-10.4,2.2-21.1-.9-31.3-1.5-4.2-3.9-8.1-7.3-11-5.9-4.8-13.7-6.5-19.4-11.5-4.8-4.8-7.1-11.7-7.5-18.4-.9-4.8.4-9.7-.7-14.4-4-1.4-8.2.9-12.2,1.7-15.6,4.7-31.8,8-48.1,8-21.3,0-41.9-8.8-57.6-23-.5,0-1.4,0-1.9,0-5.8,4.4-12,8.4-16.6,14-13.8-4.6-25.9-15.3-31.6-28.8-3.2-7.2-2.6-15.6.6-22.8,4.9-9.8,14.2-17.8,25.1-20,3.1-.8,6.1.8,9,1.6,1.3-.2,2.4-1.2,3.5-1.9,16.1-11,35.4-15.8,54.4-19.1Z"/>
  <path class="st2" d="M138.1,129.1c4-3.3,7.7-7.1,12.5-9.1,5.8,10.4,15.3,18.5,26.1,23.5,1.6,0,.9,1.8,0,2.3-9.2,10.1-13.9,23.7-15.4,37.1-1.5,10.5-.6,21.2-1,31.8-1.8,3.2-.8,6.9-.5,10.3-4.2-2.5-9.4-1.7-13.6.4-5.8,3.4-10,9.1-12.2,15.5-2.9,9.4-2.3,20,2.1,28.9,5.2,10.9,18.3,17.9,30.2,14.6,3.9,12,10.1,23.3,18.3,32.9,2.5,3.7,6.5,6.2,9,9.9-8,2-15.5,5.6-23.7,6.9-11.6,2.1-24,.5-33.9-6.1-13.8-8.9-22-24.3-26-39.9-3.3-12.7-3.6-26.2-.9-39.1,3.4-16.5,7.6-33,8.6-49.9.9-8.3.2-16.7.7-25,.7-16.7,7.8-33.1,19.6-45Z"/>
  <path class="st3" d="M186.9,145c3.7-5.3,9.4-8.5,14-12.7,5,3.2,9.4,7.2,14.6,10.1,18.2,11.2,40.6,14.2,61.6,11.3,13.2-1.3,25.8-5.7,38.6-8.6-.3,8.6.5,17.7,4.9,25.4,3.2,5.8,8.8,9.6,14.7,12.3l.2.4c0,9.2-.1,18.4,0,27.5-21.6-3.8-44-5.1-65.7-1.2-5.7.7-10.7,4.5-12.5,10-4.7,2.3-10.8,1.7-15.5-.4-1.2-3.2-3.7-5.9-7-6.9-4.8-1.7-9.9-1.9-15-2.4-17-1.1-34.1-.3-50.9,2.8-1.2.2-2.4.1-3.6,0,.5-15.8-.4-32.1,5.3-47.1,2.9-6.9,6.6-13.7,12.3-18.7,1.4-.4,3-.4,3.8-1.8Z"/>
  <path class="st0" d="M213.1,179.1c7.5-1.1,15.2-.3,22.5,1.6,3.2.8,6.5,3,7,6.5,1.1,4.2.9,9.6-2.9,12.4-2.3,1.4-5.1,1.7-7.7,1.8-11.4.4-22.7-1.5-34.1-2.3-6.9-.7-13.9-.3-20.8-.8-3.1-.2-6.2-3.2-5.4-6.5,2.2-4.3,6-7.6,10.4-9.5,10-3.2,20.7-1.9,31-3.3Z"/>
  <path class="st0" d="M270.5,179.8c10.1-2.1,20.4.4,30.5,1.1,5.9,1,12.1.5,17.9,2.3,4.2,2,8.4,5.2,9.7,10,.6,2.7-1.1,5.5-3.7,6.4-3.2.9-6.6,1-10,1-10.6,0-21.3.1-32-.7-5.8-.4-12.1.1-17.5-2.5-6.4-4.7-2.9-16.8,5-17.6Z"/>
  <path class="st1" d="M196.9,185.3c12.3-.3,24.9-3.5,37.1,0,1.8.3,3.1,1.6,4.4,2.6.2,2.4,0,4.8-.2,7.2-2.7,1.8-6.1,1.5-9.3,1.5-12.1-.3-24-2.1-36-2.7-5.6-.2-11.3,0-16.9-.5,1.3-2.6,3.8-4.4,6.2-6,4.5-2.2,9.7-1.9,14.6-2.2Z"/>
  <path class="st1" d="M274.8,183.9c13.2-.9,26.1,2.8,39.2,3.1,4.3.4,10,3.4,9.6,8.2-16.9.7-33.9,0-50.8-.6-1.9,0-3.6-.6-5.3-1.4-1.2-2.4-1-5.1.2-7.5,2.1-1.1,4.5-1.8,6.9-1.9Z"/>
  <path class="st2" d="M340.6,185.2c6.2,3.2,10,9.9,10.8,16.8.8,7.3.5,14.6-.4,21.9-3.5-.7-7.2-.4-10.5,1.1,1.2-4.5,1.3-9.4,0-13.9,0-8.6,0-17.2,0-25.8Z"/>
  <path class="st3" d="M277.6,214.8c14.7-1.8,29.6-1.4,44.3.9,1.9.4,4.1.5,5.4,2.1,1.6,4.5.6,9.4.2,14-.9,6.6-2,13.3-5.2,19.2-2.8,5.1-8.4,7.5-13.9,8.6-9.7,1.9-19.9,2-29.3-1-8.4-3-12.9-11.6-15.1-19.7-1.6-6.5-2.7-14,1-20,3.1-3.5,8.4-3.2,12.6-4.2Z"/>
  <path class="st3" d="M172.8,219.9c6.7-2.8,14.1-3,21.2-3.6,10.7-1,21.4-.5,32,.7,3.3.6,7.3.7,9.4,3.8,4.1,5.1,3.2,12.1,2.1,18.1-2,8.7-6.2,17.8-14.6,21.9-12.1,4.1-25.9,4.2-37.9-.7-9-4.3-10.2-15.4-12.1-24.1-.5-5.3-2.2-10.9-.2-16.1Z"/>
  <path class="st0" d="M290.4,228.5c5.4-1.8,10.8,4.3,8.3,9.4-1.6,5.5-10.2,5.8-12.4.6-2.1-3.8,0-8.8,4.1-10Z"/>
  <path class="st3" d="M144.1,234.1c3.5-4.1,9.7-6.3,14.8-3.9,1.5.6,1.3,2.6,1.4,3.9,0,13.5.6,27.2,3.6,40.4.4,1.6.7,3.3.8,5-6.8.8-14.1-1-19.1-5.9-6.3-6.4-8.3-15.9-7.3-24.6.4-5.4,2.4-10.8,5.9-15Z"/>
  <path class="st0" d="M206.6,229.8c4.2-1,8.9,2.8,8.2,7.3.6,5.9-7.7,8.8-11.5,4.7-3.8-3.6-2-11,3.4-12Z"/>
  <path class="st3" d="M340.5,230.8c3.8-2.2,8.9-2.3,12.6.2,5.8,3.2,8.4,9.8,9.4,16,1.2,8.8.2,18.6-6,25.4-4.8,5.9-12.9,7.9-20.2,7.2,3.3-16,4.5-32.4,4.2-48.8Z"/>
  <path class="st3" d="M244.6,232.6c3.8-2.3,9.2-3.4,12.5.3,1.2,9.3,4.3,19,11.2,25.8,7.9,8.1,20.1,8.4,30.7,8.7,9.6-.9,20.4-2.6,26.9-10.4,4.3-6.3,5.9-13.9,7.8-21.2l1.8-.3c0,20.6-1.6,42.2-11.4,60.8-7.5,15.2-19.4,28.3-34.2,36.6-16.3,9.7-36.3,12.8-54.9,9.1-14.6-2.8-28-10.2-39-20-15.2-14-25.1-33.4-28.4-53.8-1.7-9.9-2.1-19.9-2.3-29.9.3,0,.8.2,1.1.3,2.5,7.3,3.5,15.4,8.5,21.5,5,5.9,12.6,8.6,20.1,9.6,2,0,3.9.2,5.9.6,10.2-.3,21.4-.8,30-7.2,7.2-6.2,10.7-15.4,12.3-24.5.2-2,.4-4,1.3-5.9Z"/>
  <path class="st0" d="M253.4,238.8c-.8-2.1,2.2-3.3,3.7-1.9,2.3,9.4,6.7,18.1,9.2,27.5.8,4.4.9,10-3.4,12.7-5.8,2.8-12.2-.2-17.5-2.8,0-1-.1-2-.2-3,2.8-.7,5.1,1.1,7.6,1.8,2.9.9,6.5,1,8.7-1.4.1-2.6.4-5.4-.3-7.9-2.3-8.4-5.9-16.4-7.8-24.9Z"/>
  <path class="st0" d="M291,280.9c1.2-1.8,2.7-.3,3.6.9-6.2,11.5-17,20.7-29.6,24.2-16.6,4.9-36.1-.2-47.2-13.7-1.6-2.1-4-4.2-3.4-7.2.6,0,1.9,0,2.5.1,2.3,2.7,4.4,5.5,7,8,11.3,10.1,28.2,13.1,42.5,8.2,10.4-3.5,19.1-11.2,24.8-20.6Z"/>
  <path class="st3" d="M266.8,346.8c3.7-.2,7.1-1.9,10.8-2.7,2.4,7,4.6,14.9,2.1,22.3-3.8,11.8-10.3,22.6-17.7,32.5-2.9,3.4-5.4,7.2-8.8,10.1l-.7-.2c-11.2-12-20.3-26.2-25.7-41.8-2.7-7-.6-14.4,1.1-21.4,2.7.5,5.3,1.2,7.9,1.8,1.1,6.3,4,13.2,10.1,16,4.6,2.4,10.6,2.5,14.7-.9,4.7-3.7,5.5-10.2,6.2-15.7Z"/>
  <path class="st1" d="M184.2,394.1c6.5-18.8,19.9-35.2,37.5-44.8-1.1,6-2.1,12.3,0,18.2,5.6,16.8,15.4,32,27.3,45-22.6,5.6-47.8-1.7-64.7-17.5v-.9Z"/>
  <path class="st1" d="M284.5,349.1c6.9,4.3,13.8,8.9,19.3,14.9,7.9,8.9,14.4,19.4,17.9,30.9-5.4,5.8-12.7,9.9-19.9,13.3-14,5.9-30,8.1-44.9,4.5,11.8-13.4,22.3-28.5,27.7-45.7,2-5.8.9-11.9,0-17.8Z"/>
  <path class="st4" d="M145.3,385.3c13.9-8.5,30.3-10.9,45.8-15.2-4.7,6.9-8.7,14.4-11.6,22.3-.3,1.3-1.4,3-.2,4.2,9.6,10.5,22.8,17.3,36.5,20.6,2.8.4,2.6,3.7,3.2,5.7,4.3,16.8,8.3,33.7,12.6,50.5-13.9-.5-27.6-3.3-41.1-6.2-6-1.8-12.3-2.7-18.1-5.2.4-9.3.7-18.7,0-28-.4-3.4-.8-6.8-2.3-9.8-1.3,0-2.6,0-3.9,0-.1,5.3,1.3,10.5,1.4,15.9.2,6.6,0,13.2-.3,19.8-12.4-2.5-23.7-8.8-35.1-14.3-6.1-2.8-11.4-7.1-17.6-9.6l-.2-1.3c.7-5.7,3.1-11,5-16.3,5.3-13.1,14-25.2,26-32.9Z"/>
  <path class="st4" d="M315.1,370.1c15.2,3.7,30.9,6.7,44.7,14.2,18.6,10.6,28.7,31.4,33,51.6.8-.2,2.3-.7,3.1-.9-8,5.6-16.8,10-25.4,14.5-8.8,4.6-18.3,7.4-27.4,11.3-3.1,1.1-6.4,1.7-9.4,3-.3-10.4-.7-20.9.2-31.3.4-4.2,1.4-8.4,1.7-12.6-.5-1.9-2.5-1.5-4-1.2-1.2,1.4-1.5,3.3-1.8,5.1-2.4,13.6-1.6,27.5-1.2,41.2-15.5,4.5-31.5,7.3-47.6,8.7-5.2,0-10.3,1.4-15.5.7,4.9-18.6,10.8-37,16.4-55.5,16.4-2,32.3-9.2,44.1-20.9,1.8-1.8.8-4.5,0-6.5-2.9-7.4-6.6-14.6-10.9-21.3Z"/>
  <path class="st1" d="M223.2,418.5c7.7,1.6,15.7,1.1,23.4-.2-4.7,13.9-8.4,28.1-12.4,42.2-.2.1-.6.3-.7.5-3.1-14.2-7.4-28.2-10.3-42.5Z"/>
  <path class="st1" d="M255.7,417.4c6.6,1.6,13.4,2.5,20.2,1.9-3.7,14.4-8.7,28.4-12.5,42.7-3-14.8-5.1-29.8-7.7-44.7Z"/>
  <path class="st0" d="M331.6,418.6c1.5-.3,3.4-.6,4,1.2-.3,4.2-1.3,8.4-1.7,12.6-.9,10.4-.5,20.9-.2,31.3-1.7.4-3.4.7-5.1,1.1-.4-13.7-1.1-27.6,1.2-41.2.3-1.8.6-3.7,1.8-5.1Z"/>
  <path class="st4" d="M250.9,420.1c3.3,17.6,6.1,35.3,9,53-3.4,0-6.8,1.6-10.2.5-4.4-1.3-9.9,1.4-13.6-1.8,5.2-17.1,9.8-34.4,14.7-51.6Z"/>
  <path class="st0" d="M166.1,424.2c1.3,0,2.6,0,3.9,0,1.5,3.1,1.9,6.5,2.3,9.8.8,9.3.5,18.6,0,28-1.8-.3-3.5-.7-5.2-1.4v-.8c.4-6.6.6-13.2.4-19.8-.1-5.3-1.6-10.5-1.4-15.9Z"/>
</svg>