<?xml version="1.0" encoding="utf-8"?>
<svg xmlns="http://www.w3.org/2000/svg" height="512pt" version="1.1" viewBox="0 0 512 512" width="512pt">
<path d="M 0.00 0.00 L 512.00 0.00 L 512.00 512.00 L 0.00 512.00 L 0.00 0.00 Z" fill="transparent" opacity="1.00" stroke="transparent" stroke-width="0.25"/>
<path d="M 170.12 70.16 C 183.52 55.76 202.86 48.51 221.96 45.72 C 242.02 42.99 262.98 44.67 281.88 52.19 C 291.54 56.00 300.14 62.12 307.54 69.35 C 315.88 66.86 325.19 69.68 331.43 75.56 C 337.84 81.59 342.86 90.01 342.81 99.03 C 342.79 101.65 342.62 104.25 342.49 106.86 C 347.82 112.47 350.56 120.34 349.56 128.05 C 349.49 132.67 346.76 136.59 345.69 140.94 C 349.00 150.22 351.34 160.16 349.83 170.06 C 349.51 174.68 347.47 178.89 346.26 183.29 C 345.93 186.57 346.97 189.81 347.04 193.09 C 347.21 201.60 344.56 210.44 338.67 216.75 C 336.49 219.16 333.88 221.14 331.26 223.07 C 332.87 233.98 332.71 245.33 329.06 255.83 C 326.34 264.50 320.72 272.53 312.59 276.86 C 310.39 286.50 305.39 295.20 299.36 302.94 C 323.49 328.01 340.86 359.07 352.04 391.89 C 353.63 396.81 355.36 401.70 356.76 406.70 C 376.92 385.57 398.76 365.99 417.58 343.61 C 420.32 339.92 424.25 336.00 423.52 331.01 C 421.46 325.43 414.12 325.24 409.22 326.52 C 404.86 327.58 401.12 330.15 396.97 331.73 C 394.32 332.07 393.72 328.94 395.23 327.29 C 398.22 323.02 400.77 318.42 401.79 313.25 C 392.74 312.62 384.78 317.88 377.63 322.73 C 373.57 325.40 369.58 330.89 364.17 328.31 C 365.21 324.87 366.86 321.67 368.10 318.30 C 372.18 305.03 370.01 290.05 362.56 278.36 C 359.56 273.26 354.13 269.29 348.06 269.31 C 340.88 269.30 333.83 271.93 327.88 275.84 C 324.40 277.99 322.00 282.85 317.27 281.74 C 316.23 277.30 320.21 274.58 323.24 272.22 C 330.60 266.76 339.71 263.31 348.95 263.64 C 357.75 264.12 365.15 270.59 368.83 278.30 C 375.61 290.27 377.20 304.68 374.16 318.02 C 381.46 313.32 389.18 308.39 398.02 307.56 C 401.76 307.08 406.06 309.24 407.04 313.05 C 407.44 316.07 406.09 318.94 405.19 321.75 C 407.74 321.10 410.31 320.53 412.94 320.26 C 418.71 319.76 424.84 322.08 427.95 327.16 C 430.02 330.97 429.43 335.80 427.26 339.44 C 421.72 348.58 413.94 356.01 406.92 363.96 C 391.00 380.36 374.70 396.37 358.54 412.53 C 360.41 419.74 361.94 427.04 363.52 434.32 C 359.79 436.85 355.89 439.15 351.92 441.29 C 348.40 427.33 345.43 413.19 340.69 399.56 C 330.08 367.30 313.79 336.62 290.96 311.32 C 289.41 312.79 287.85 314.25 286.30 315.71 C 289.51 364.80 291.73 413.97 292.26 463.17 C 289.46 463.67 286.65 464.14 283.84 464.52 C 284.17 419.91 281.76 375.36 280.38 330.79 C 279.19 338.41 278.51 346.51 273.94 353.01 C 271.16 357.82 266.15 361.18 260.64 361.88 C 263.18 396.73 264.80 431.65 265.62 466.58 C 263.84 466.58 262.06 466.59 260.29 466.61 C 259.40 431.82 258.08 397.04 255.54 362.33 C 243.60 361.63 233.25 354.14 226.52 344.61 C 229.78 384.58 233.29 424.59 233.48 464.72 C 230.81 464.24 228.14 463.74 225.46 463.35 L 225.46 462.99 C 225.56 436.65 224.46 410.32 222.76 384.04 C 221.26 355.84 218.87 327.70 216.19 299.59 C 209.43 297.10 203.72 292.57 199.09 287.13 C 186.99 298.43 175.64 310.65 166.37 324.41 C 146.32 352.85 134.40 386.47 129.07 420.70 C 125.12 417.81 120.87 415.30 117.28 411.96 C 119.33 398.34 123.02 384.94 127.47 371.90 C 139.87 334.69 162.59 300.90 193.08 276.14 C 192.19 273.15 191.39 270.12 190.65 267.09 C 183.65 263.88 178.78 257.65 175.70 250.75 C 161.25 248.72 148.10 240.09 139.48 228.46 C 134.62 222.06 132.14 214.15 131.43 206.21 C 123.94 201.70 120.11 193.35 118.23 185.13 C 115.93 175.61 115.44 165.42 118.03 155.91 C 118.83 152.54 121.10 149.32 120.26 145.73 C 119.18 140.23 119.01 134.57 119.91 129.04 C 122.42 112.79 130.41 97.56 141.65 85.65 C 148.65 78.85 157.08 72.52 167.08 71.47 C 168.23 71.38 169.38 71.12 170.12 70.16 Z" fill="#05355a" opacity="1.00" stroke="#05355a" stroke-width="0.25"/>
<path d="M 180.42 77.79 C 195.59 61.62 218.50 55.66 240.03 55.46 C 258.84 55.67 278.48 60.44 293.07 72.86 C 305.39 83.35 312.70 98.52 316.28 114.07 C 318.28 122.54 319.49 131.20 319.60 139.91 C 317.38 135.56 314.76 131.27 311.01 128.10 C 309.18 126.69 306.74 127.25 304.72 127.82 C 294.23 131.05 283.20 132.98 272.21 132.31 C 269.59 136.64 267.60 141.81 268.01 146.89 C 271.72 152.60 279.39 151.87 285.21 153.63 C 287.35 154.11 289.49 154.58 291.63 155.06 C 292.30 155.85 292.96 156.66 293.62 157.47 C 291.37 158.04 289.16 158.73 287.04 159.67 C 286.57 159.80 285.62 160.07 285.15 160.20 C 280.25 161.19 275.06 161.99 270.99 165.13 C 267.05 168.38 261.60 165.93 257.01 167.09 C 254.17 167.12 250.01 169.19 248.31 165.84 C 247.33 164.41 246.21 162.88 244.37 162.60 C 234.61 160.28 224.47 160.81 214.57 159.55 C 222.16 156.46 230.39 155.71 238.21 153.40 C 237.65 153.24 236.53 152.91 235.97 152.75 C 237.30 152.20 238.65 151.67 239.99 151.14 C 240.35 150.65 241.06 149.67 241.41 149.18 C 241.64 145.09 241.24 140.95 239.98 137.04 C 239.59 135.92 239.35 134.47 237.97 134.19 C 234.96 134.27 232.07 135.55 229.03 135.26 C 219.77 134.71 210.46 133.77 201.54 131.10 C 198.13 130.26 193.70 129.12 190.94 132.01 C 188.02 134.35 186.28 137.71 184.07 140.64 C 183.01 140.34 182.66 138.97 181.92 138.23 C 179.60 134.73 175.84 132.57 172.07 130.96 C 175.53 124.07 181.71 118.65 183.48 110.90 C 181.68 103.65 173.44 101.34 166.88 101.00 C 168.01 99.30 169.98 98.55 171.77 97.75 C 175.55 96.18 179.36 94.69 183.15 93.15 C 186.24 88.13 183.22 82.22 180.42 77.79 Z" fill="#ffc6a9" opacity="1.00" stroke="#ffc6a9" stroke-width="0.25"/>
<path d="M 313.91 78.82 C 318.76 79.26 323.48 81.31 326.80 84.93 C 332.71 91.34 334.75 100.86 332.36 109.21 C 336.39 113.13 339.44 118.28 339.91 123.98 C 340.75 130.00 338.47 135.92 335.82 141.22 C 337.56 146.73 339.71 152.17 340.45 157.94 C 341.31 163.26 340.81 168.67 340.09 173.97 C 336.35 172.55 333.35 169.55 329.27 168.96 C 329.45 160.96 330.69 153.01 330.37 145.00 C 330.64 122.04 325.98 98.59 313.91 78.82 Z" fill="#feffff" opacity="1.00" stroke="#feffff" stroke-width="0.25"/>
<path d="M 155.18 87.19 C 161.18 82.78 168.59 80.12 176.10 80.39 C 178.05 82.96 179.20 85.99 179.68 89.18 C 171.26 91.89 162.35 95.55 157.04 102.99 C 157.23 103.61 157.59 104.86 157.77 105.48 C 164.59 106.16 171.93 105.65 177.84 109.75 C 177.82 111.47 177.83 113.28 176.73 114.72 C 173.37 120.22 169.57 125.46 165.23 130.23 C 163.96 131.30 165.44 132.89 165.68 134.13 C 171.02 136.00 177.17 138.40 179.60 143.97 C 178.32 148.20 173.59 149.67 170.70 152.58 C 168.69 154.65 169.10 158.06 170.76 160.22 C 172.79 163.21 174.79 166.24 176.13 169.62 C 166.43 170.51 155.69 169.40 147.22 175.08 C 140.11 180.32 137.05 189.45 137.14 198.04 C 132.85 196.52 130.72 192.07 129.31 188.06 C 125.13 174.76 125.03 159.71 131.35 147.05 C 127.33 133.17 131.73 118.48 138.48 106.21 C 142.89 98.99 148.13 92.03 155.18 87.19 Z" fill="#ffffff" opacity="1.00" stroke="#ffffff" stroke-width="0.25"/>
<path d="M 342.81 99.03 C 357.98 107.66 372.14 118.25 384.05 131.06 C 395.79 144.71 405.68 159.88 414.07 175.80 C 421.81 192.68 426.89 210.89 428.36 229.44 C 428.88 238.95 429.98 248.50 428.82 258.01 C 428.54 268.54 425.90 278.76 424.01 289.06 C 421.93 299.98 416.73 309.90 412.94 320.26 C 410.31 320.53 407.74 321.10 405.19 321.75 C 406.09 318.94 407.44 316.07 407.04 313.05 C 406.06 309.24 401.76 307.08 398.02 307.56 C 389.18 308.39 381.46 313.32 374.16 318.02 C 377.20 304.68 375.61 290.27 368.83 278.30 C 365.15 270.59 357.75 264.12 348.95 263.64 C 339.71 263.31 330.60 266.76 323.24 272.22 C 320.21 274.58 316.23 277.30 317.27 281.74 C 322.00 282.85 324.40 277.99 327.88 275.84 C 333.83 271.93 340.88 269.30 348.06 269.31 C 354.13 269.29 359.56 273.26 362.56 278.36 C 370.01 290.05 372.18 305.03 368.10 318.30 C 366.86 321.67 365.21 324.87 364.17 328.31 C 369.58 330.89 373.57 325.40 377.63 322.73 C 384.78 317.88 392.74 312.62 401.79 313.25 C 400.77 318.42 398.22 323.02 395.23 327.29 C 393.72 328.94 394.32 332.07 396.97 331.73 C 401.12 330.15 404.86 327.58 409.22 326.52 C 403.27 339.35 394.48 350.61 385.58 361.50 C 376.92 369.88 368.91 379.17 358.61 385.63 C 356.00 387.22 353.58 389.20 352.04 391.89 C 340.86 359.07 323.49 328.01 299.36 302.94 C 305.39 295.20 310.39 286.50 312.59 276.86 C 320.72 272.53 326.34 264.50 329.06 255.83 C 332.71 245.33 332.87 233.98 331.26 223.07 C 333.88 221.14 336.49 219.16 338.67 216.75 C 344.56 210.44 347.21 201.60 347.04 193.09 C 346.97 189.81 345.93 186.57 346.26 183.29 C 347.47 178.89 349.51 174.68 349.83 170.06 C 351.34 160.16 349.00 150.22 345.69 140.94 C 346.76 136.59 349.49 132.67 349.56 128.05 C 350.56 120.34 347.82 112.47 342.49 106.86 C 342.62 104.25 342.79 101.65 342.81 99.03 Z" fill="#b4efff" opacity="1.00" stroke="#b4efff" stroke-width="0.25"/>
<path d="M 107.28 143.09 C 111.31 138.25 115.66 133.68 119.91 129.04 C 119.01 134.57 119.18 140.23 120.26 145.73 C 121.10 149.32 118.83 152.54 118.03 155.91 C 115.44 165.42 115.93 175.61 118.23 185.13 C 120.11 193.35 123.94 201.70 131.43 206.21 C 132.14 214.15 134.62 222.06 139.48 228.46 C 148.10 240.09 161.25 248.72 175.70 250.75 C 178.78 257.65 183.65 263.88 190.65 267.09 C 191.39 270.12 192.19 273.15 193.08 276.14 C 162.59 300.90 139.87 334.69 127.47 371.90 C 124.91 370.04 122.63 367.84 120.57 365.45 C 117.02 361.34 112.36 358.27 109.33 353.70 C 105.33 347.70 101.12 341.85 97.26 335.76 C 86.03 317.14 78.19 296.49 74.47 275.06 C 72.20 261.83 72.00 248.37 72.52 235.00 C 74.43 206.88 83.85 179.48 98.51 155.50 C 101.78 151.61 104.40 147.25 107.28 143.09 Z" fill="#b4efff" opacity="1.00" stroke="#b4efff" stroke-width="0.25"/>
<path d="M 305.73 133.85 C 306.81 133.59 308.18 132.70 309.02 133.93 C 313.28 138.46 316.56 144.11 317.98 150.19 C 302.59 152.71 287.48 148.03 272.35 146.04 C 273.02 143.53 273.61 140.99 274.00 138.41 C 284.70 138.24 295.52 137.23 305.73 133.85 Z" fill="#feffff" opacity="1.00" stroke="#feffff" stroke-width="0.25"/>
<path d="M 183.57 155.39 C 185.78 148.15 189.32 140.97 194.91 135.78 C 197.68 136.02 200.29 137.07 202.97 137.75 C 213.62 140.76 224.75 141.32 235.75 141.46 C 236.41 143.43 236.53 145.53 236.80 147.57 C 229.51 148.74 222.17 149.83 215.10 152.05 C 204.99 154.98 194.05 158.88 183.57 155.39 Z" fill="#feffff" opacity="1.00" stroke="#feffff" stroke-width="0.25"/>
<path d="M 196.07 162.31 C 209.51 159.70 222.44 154.94 235.97 152.75 C 236.53 152.91 237.65 153.24 238.21 153.40 C 230.39 155.71 222.16 156.46 214.57 159.55 C 224.47 160.81 234.61 160.28 244.37 162.60 C 246.21 162.88 247.33 164.41 248.31 165.84 C 240.87 162.92 232.88 161.66 224.92 161.48 C 214.50 161.15 203.66 161.26 193.94 165.51 C 194.64 164.43 195.32 163.35 196.07 162.31 Z" fill="#f1d7c9" opacity="1.00" stroke="#f1d7c9" stroke-width="0.25"/>
<path d="M 285.21 153.63 C 287.05 152.97 289.00 152.82 290.91 153.19 C 297.89 154.21 304.96 155.95 312.04 154.88 C 314.25 154.79 316.89 153.56 318.63 155.60 C 309.70 157.39 300.52 156.66 291.63 155.06 C 289.49 154.58 287.35 154.11 285.21 153.63 Z" fill="#162e43" opacity="1.00" stroke="#162e43" stroke-width="0.25"/>
<path d="M 175.44 157.57 C 174.27 155.14 178.01 154.78 179.56 154.13 C 179.26 155.11 178.96 156.10 178.65 157.08 C 179.01 158.06 179.37 159.04 179.73 160.02 C 184.94 162.10 190.52 162.55 196.07 162.31 C 195.32 163.35 194.64 164.43 193.94 165.51 C 192.99 166.99 191.82 168.32 190.66 169.64 C 187.36 169.65 184.06 169.66 180.77 169.61 C 179.85 165.24 177.36 161.52 175.44 157.57 Z" fill="#f9caaf" opacity="1.00" stroke="#f9caaf" stroke-width="0.25"/>
<path d="M 291.63 155.06 C 300.52 156.66 309.70 157.39 318.63 155.60 C 318.87 155.56 319.34 155.48 319.58 155.44 C 319.50 157.66 319.40 159.87 319.32 162.09 C 316.42 161.31 313.52 160.49 310.54 160.09 C 302.76 158.83 294.86 159.14 287.04 159.67 C 289.16 158.73 291.37 158.04 293.62 157.47 C 292.96 156.66 292.30 155.85 291.63 155.06 Z" fill="#e9cec1" opacity="1.00" stroke="#e9cec1" stroke-width="0.25"/>
<path d="M 285.15 160.20 C 285.62 160.07 286.57 159.80 287.04 159.67 C 294.86 159.14 302.76 158.83 310.54 160.09 C 306.96 161.90 302.86 160.78 299.04 160.93 C 294.41 160.67 289.63 161.84 285.15 160.20 Z" fill="#102c43" opacity="1.00" stroke="#102c43" stroke-width="0.25"/>
<path d="M 285.46 166.74 C 294.31 165.42 303.38 165.32 312.18 167.02 C 315.15 167.70 318.62 169.13 319.43 172.40 C 320.43 177.71 320.46 183.40 318.79 188.57 C 316.08 194.63 308.70 195.32 302.96 196.24 C 295.80 196.68 288.36 197.09 281.45 194.78 C 276.09 192.46 273.91 186.40 272.90 181.06 C 272.31 177.39 271.57 172.50 275.12 170.04 C 278.24 168.14 281.92 167.42 285.46 166.74 Z" fill="#fec6a9" opacity="1.00" stroke="#fec6a9" stroke-width="0.25"/>
<path d="M 200.20 170.26 C 206.24 168.29 212.69 168.22 218.97 167.89 C 226.41 168.10 233.97 168.25 241.14 170.43 C 243.24 170.93 244.88 172.39 246.55 173.66 C 246.93 179.99 247.08 186.95 243.51 192.49 C 240.57 196.96 234.88 197.64 230.01 198.20 C 220.60 198.92 210.89 199.00 201.78 196.19 C 198.88 195.41 196.68 192.95 195.96 190.08 C 194.58 185.02 194.22 179.56 195.71 174.49 C 196.21 172.27 198.15 170.91 200.20 170.26 Z" fill="#fec6aa" opacity="1.00" stroke="#fec6aa" stroke-width="0.25"/>
<path d="M 292.43 176.56 C 294.73 173.96 299.47 172.85 301.63 176.19 C 304.34 179.95 300.61 185.87 295.98 184.26 C 292.40 183.48 292.17 179.52 292.43 176.56 Z" fill="#073458" opacity="1.00" stroke="#073458" stroke-width="0.25"/>
<path d="M 326.38 174.90 C 331.25 174.93 335.74 177.79 337.93 182.12 C 343.88 193.67 340.56 209.50 329.77 217.05 C 327.58 209.95 324.63 203.02 320.09 197.09 C 326.63 191.78 326.23 182.52 326.38 174.90 Z" fill="#fec5a8" opacity="1.00" stroke="#fec5a8" stroke-width="0.25"/>
<path d="M 162.10 176.53 C 166.96 176.24 171.84 176.15 176.71 175.90 C 176.09 179.59 175.23 183.25 174.18 186.84 C 173.65 186.20 173.13 185.57 172.61 184.93 C 170.07 181.57 166.75 178.87 162.97 177.01 L 162.10 176.53 Z" fill="#fbfffc" opacity="1.00" stroke="#fbfffc" stroke-width="0.25"/>
<path d="M 181.41 176.10 C 183.86 176.11 186.31 176.10 188.77 176.08 C 188.35 182.49 188.64 189.11 191.27 195.07 C 188.41 197.38 185.12 199.51 183.47 202.93 C 183.96 208.68 185.16 215.25 189.86 219.15 C 191.19 220.40 192.55 221.62 193.89 222.87 C 192.94 222.50 192.01 222.13 191.08 221.75 C 186.24 218.39 184.52 212.42 182.93 207.06 C 180.88 201.13 180.81 194.54 177.39 189.11 C 179.32 184.97 180.63 180.59 181.41 176.10 Z" fill="#fbc5aa" opacity="1.00" stroke="#fbc5aa" stroke-width="0.25"/>
<path d="M 219.47 176.57 C 221.54 175.69 223.52 176.99 225.38 177.76 C 225.89 179.91 227.18 182.47 225.45 184.43 C 223.50 188.11 216.98 187.10 216.30 183.00 C 215.66 180.44 216.85 177.43 219.47 176.57 Z" fill="#0a2f4a" opacity="1.00" stroke="#0a2f4a" stroke-width="0.25"/>
<path d="M 151.57 178.59 C 155.16 176.85 159.25 178.22 162.97 177.01 C 166.75 178.87 170.07 181.57 172.61 184.93 C 172.77 188.65 174.98 192.22 173.86 195.96 C 171.88 204.79 170.66 213.87 171.45 222.93 C 171.39 223.92 171.61 226.79 169.63 225.02 C 169.02 215.30 169.73 205.49 172.01 196.02 C 172.29 194.09 173.32 191.92 171.94 190.19 C 168.82 184.37 163.04 178.91 155.96 179.52 C 152.08 179.40 148.97 182.09 146.56 184.82 C 145.34 181.35 149.06 179.71 151.57 178.59 Z" fill="#0a2f4a" opacity="1.00" stroke="#0a2f4a" stroke-width="0.25"/>
<path d="M 220.40 178.52 C 223.24 177.23 226.35 181.72 223.77 183.74 C 222.22 185.46 219.96 184.09 218.12 183.78 C 218.50 181.92 218.04 179.15 220.40 178.52 Z" fill="#00355d" opacity="1.00" stroke="#00355d" stroke-width="0.25"/>
<path d="M 146.56 184.82 C 148.97 182.09 152.08 179.40 155.96 179.52 C 163.04 178.91 168.82 184.37 171.94 190.19 C 173.32 191.92 172.29 194.09 172.01 196.02 C 169.73 205.49 169.02 215.30 169.63 225.02 C 169.65 225.42 169.69 226.21 169.72 226.61 C 161.39 226.86 153.34 222.45 149.01 215.36 C 147.68 212.83 146.39 210.29 145.21 207.71 C 142.40 200.34 142.68 191.76 146.56 184.82 Z" fill="#fec5a9" opacity="1.00" stroke="#fec5a9" stroke-width="0.25"/>
<path d="M 254.15 182.06 C 255.22 178.87 260.77 177.96 262.15 181.31 C 267.44 191.15 272.62 201.05 277.48 211.11 C 278.23 213.05 280.05 216.25 277.12 217.22 C 266.94 218.11 257.00 214.22 248.15 209.55 C 247.07 210.69 246.03 212.12 244.24 211.57 C 243.32 208.48 242.39 205.33 240.40 202.73 C 243.24 200.85 246.50 199.31 248.28 196.24 C 251.39 192.04 252.33 186.84 254.15 182.06 Z" fill="#fec6a9" opacity="1.00" stroke="#fec6a9" stroke-width="0.25"/>
<path d="M 191.27 195.07 C 193.41 199.07 197.16 201.95 201.54 203.10 C 211.39 206.09 221.89 206.00 232.01 204.69 C 234.85 204.32 237.84 204.15 240.40 202.73 C 242.39 205.33 243.32 208.48 244.24 211.57 C 239.51 212.57 233.21 209.14 229.91 214.02 C 221.31 217.46 214.74 225.46 205.04 226.05 C 200.23 226.17 194.63 225.26 191.08 221.75 C 192.01 222.13 192.94 222.50 193.89 222.87 C 192.55 221.62 191.19 220.40 189.86 219.15 C 185.16 215.25 183.96 208.68 183.47 202.93 C 185.12 199.51 188.41 197.38 191.27 195.07 Z" fill="#fe926e" opacity="1.00" stroke="#fe926e" stroke-width="0.25"/>
<path d="M 311.98 201.33 C 313.18 200.87 314.39 200.44 315.60 200.02 C 315.66 209.01 317.40 219.49 311.12 226.94 C 305.42 220.84 298.29 216.22 290.15 214.16 C 295.79 213.72 301.87 214.88 307.07 212.09 C 311.07 210.09 315.51 206.65 314.75 201.58 C 314.06 201.52 312.67 201.39 311.98 201.33 Z" fill="#ffc6ab" opacity="1.00" stroke="#ffc6ab" stroke-width="0.25"/>
<path d="M 175.80 201.61 C 177.00 206.30 177.22 211.24 179.14 215.74 C 182.09 223.59 188.60 230.57 197.04 232.27 C 206.91 234.85 217.30 231.19 225.19 225.21 C 231.98 220.28 240.22 215.52 248.92 217.63 C 252.34 219.99 256.04 221.91 259.97 223.32 C 255.90 229.81 249.92 235.35 242.51 237.70 C 238.32 239.19 233.85 239.40 229.45 239.65 C 229.62 241.28 229.11 243.29 230.77 244.33 C 233.22 245.83 236.25 245.16 238.98 245.48 C 244.25 253.67 251.74 262.07 262.02 263.16 C 270.69 264.32 278.44 257.97 282.10 250.59 C 285.66 251.47 289.29 252.29 292.98 252.24 C 294.90 252.20 297.19 251.86 298.32 250.10 C 298.31 248.81 298.07 247.56 297.59 246.35 C 290.17 246.80 282.45 245.12 276.55 240.42 C 271.36 236.75 268.65 230.82 266.18 225.19 C 272.00 225.43 278.25 226.47 283.65 223.64 C 285.42 222.90 286.24 221.10 287.22 219.59 C 291.29 220.41 295.33 221.80 298.61 224.44 C 302.64 227.28 305.70 231.98 310.93 232.67 C 314.43 233.39 317.28 230.62 318.81 227.79 C 320.87 223.83 320.93 219.25 321.86 214.96 C 324.58 226.76 325.16 239.33 321.46 250.99 C 319.53 257.45 316.24 263.79 310.80 267.97 C 308.36 269.79 305.31 270.36 302.65 271.72 C 300.60 273.19 302.79 276.01 301.95 278.02 C 298.55 290.03 290.34 300.08 280.99 308.09 C 270.17 317.28 257.51 324.07 244.39 329.38 C 248.68 322.80 250.35 314.60 248.73 306.89 C 247.91 301.68 244.47 296.68 239.45 294.79 C 233.99 293.53 228.26 294.09 222.87 292.50 C 214.15 290.41 206.51 284.44 202.33 276.52 C 199.92 271.95 198.89 266.81 198.44 261.71 C 190.40 259.14 184.25 252.54 180.92 244.94 C 174.50 231.51 174.52 216.13 175.80 201.61 Z" fill="#ffffff" opacity="1.00" stroke="#ffffff" stroke-width="0.25"/>
<path d="M 282.77 202.22 C 292.47 204.02 302.38 203.44 311.98 201.33 C 312.67 201.39 314.06 201.52 314.75 201.58 C 315.51 206.65 311.07 210.09 307.07 212.09 C 301.87 214.88 295.79 213.72 290.15 214.16 C 289.07 214.19 287.99 214.24 286.91 214.30 C 286.39 210.01 284.22 206.22 282.77 202.22 Z" fill="#fb916d" opacity="1.00" stroke="#fb916d" stroke-width="0.25"/>
<path d="M 201.54 203.10 C 206.37 201.70 211.18 203.68 216.04 203.66 C 221.37 203.65 226.70 203.57 232.03 203.70 L 232.01 204.69 C 221.89 206.00 211.39 206.09 201.54 203.10 Z" fill="#0a2f4a" opacity="1.00" stroke="#0a2f4a" stroke-width="0.25"/>
<path d="M 145.21 207.71 C 146.39 210.29 147.68 212.83 149.01 215.36 C 146.59 213.52 145.43 210.66 145.21 207.71 Z" fill="#5e636a" opacity="1.00" stroke="#5e636a" stroke-width="0.25"/>
<path d="M 231.10 214.15 C 232.81 213.01 234.81 212.50 236.66 211.63 C 237.53 211.85 239.28 212.28 240.16 212.49 C 237.20 213.34 234.17 213.93 231.10 214.15 Z" fill="#3b3d49" opacity="1.00" stroke="#3b3d49" stroke-width="0.25"/>
<path d="M 252.78 239.34 C 255.95 236.23 259.14 233.12 262.38 230.10 C 264.12 233.19 265.70 236.37 267.73 239.29 C 262.74 239.30 257.76 239.40 252.78 239.34 Z" fill="#fac4ac" opacity="1.00" stroke="#fac4ac" stroke-width="0.25"/>
<path d="M 244.87 244.45 C 254.21 244.48 263.56 244.44 272.90 244.54 C 274.53 245.81 276.19 247.04 277.89 248.22 C 275.59 252.22 272.08 255.63 267.91 257.62 C 262.42 259.76 256.72 256.96 252.47 253.55 C 249.42 251.00 246.57 248.09 244.87 244.45 Z" fill="#f2653e" opacity="1.00" stroke="#f2653e" stroke-width="0.25"/>
<path d="M 166.37 324.41 C 175.64 310.65 186.99 298.43 199.09 287.13 C 203.72 292.57 209.43 297.10 216.19 299.59 C 218.87 327.70 221.26 355.84 222.76 384.04 C 224.46 410.32 225.56 436.65 225.46 462.99 C 208.49 459.91 192.01 454.62 176.14 447.93 L 176.86 448.01 C 177.10 448.04 177.60 448.10 177.85 448.13 C 180.06 431.15 182.71 414.23 184.23 397.17 C 185.62 385.28 185.57 373.16 188.45 361.48 C 187.16 361.43 185.49 360.27 184.44 361.41 C 182.36 364.92 181.31 368.91 179.97 372.73 C 173.05 395.33 168.43 418.59 165.17 441.99 C 154.42 438.58 145.55 431.43 136.02 425.67 C 133.64 424.10 131.42 422.31 129.07 420.70 C 134.40 386.47 146.32 352.85 166.37 324.41 Z" fill="#b4efff" opacity="1.00" stroke="#b4efff" stroke-width="0.25"/>
<path d="M 222.57 310.37 C 227.90 314.99 234.33 318.04 241.00 320.21 C 237.38 326.47 233.66 332.85 228.78 338.21 C 224.16 329.63 224.80 319.61 222.57 310.37 Z" fill="#fb916e" opacity="1.00" stroke="#fb916e" stroke-width="0.25"/>
<path d="M 286.30 315.71 C 287.85 314.25 289.41 312.79 290.96 311.32 C 313.79 336.62 330.08 367.30 340.69 399.56 C 345.43 413.19 348.40 427.33 351.92 441.29 L 352.04 441.73 C 345.02 444.45 338.72 448.97 331.20 450.47 C 329.17 427.13 325.59 403.55 316.02 381.98 C 314.50 378.78 313.06 375.49 310.90 372.66 C 309.24 372.17 308.32 373.58 307.35 374.63 C 311.65 383.07 313.07 392.54 314.75 401.76 C 317.64 419.43 319.66 437.24 320.52 455.12 C 320.83 455.04 321.45 454.87 321.76 454.78 L 321.73 455.49 C 313.11 456.97 305.21 461.19 296.51 462.27 C 295.08 462.50 293.66 462.82 292.26 463.17 C 291.73 413.97 289.51 364.80 286.30 315.71 Z" fill="#b4efff" opacity="1.00" stroke="#b4efff" stroke-width="0.25"/>
<path d="M 262.32 331.25 C 266.93 328.97 271.21 326.09 275.82 323.80 C 275.59 333.20 274.67 343.27 269.26 351.26 C 265.77 356.55 258.80 358.18 252.87 356.95 C 244.38 355.67 237.21 350.15 231.94 343.63 C 242.34 340.23 252.65 336.42 262.32 331.25 Z" fill="#fe9370" opacity="1.00" stroke="#fe9370" stroke-width="0.25"/>
<path d="M 409.22 326.52 C 414.12 325.24 421.46 325.43 423.52 331.01 C 424.25 336.00 420.32 339.92 417.58 343.61 C 398.76 365.99 376.92 385.57 356.76 406.70 C 355.36 401.70 353.63 396.81 352.04 391.89 C 353.58 389.20 356.00 387.22 358.61 385.63 C 368.91 379.17 376.92 369.88 385.58 361.50 C 394.48 350.61 403.27 339.35 409.22 326.52 Z" fill="#ffffff" opacity="1.00" stroke="#ffffff" stroke-width="0.25"/>
<path d="M 184.44 361.41 C 185.49 360.27 187.16 361.43 188.45 361.48 C 185.57 373.16 185.62 385.28 184.23 397.17 C 182.71 414.23 180.06 431.15 177.85 448.13 C 177.60 448.10 177.10 448.04 176.86 448.01 C 172.81 446.43 169.05 444.24 165.11 442.43 L 165.17 441.99 C 168.43 418.59 173.05 395.33 179.97 372.73 C 181.31 368.91 182.36 364.92 184.44 361.41 Z" fill="#043559" opacity="1.00" stroke="#043559" stroke-width="0.25"/>
<path d="M 307.35 374.63 C 308.32 373.58 309.24 372.17 310.90 372.66 C 313.06 375.49 314.50 378.78 316.02 381.98 C 325.59 403.55 329.17 427.13 331.20 450.47 C 331.22 450.64 331.26 450.98 331.28 451.15 C 328.14 452.45 325.06 453.92 321.76 454.78 C 321.45 454.87 320.83 455.04 320.52 455.12 C 319.66 437.24 317.64 419.43 314.75 401.76 C 313.07 392.54 311.65 383.07 307.35 374.63 Z" fill="#033458" opacity="1.00" stroke="#033458" stroke-width="0.25"/>
</svg>