<?xml version="1.0" encoding="utf-8"?>
<svg xmlns="http://www.w3.org/2000/svg" height="512pt" version="1.1" viewBox="0 0 512 512" width="512pt">
<path d="M 0.00 0.00 L 512.00 0.00 L 512.00 512.00 L 0.00 512.00 L 0.00 0.00 Z" fill="transparent" opacity="1.00" stroke="transparent" stroke-width="0.25"/>
<path d="M 279.88 58.68 C 284.39 58.34 288.99 57.71 293.47 58.69 C 296.66 59.40 299.47 61.10 302.29 62.67 C 305.34 65.28 306.73 69.15 306.64 73.12 C 305.65 73.65 304.66 74.19 303.67 74.72 C 298.95 83.36 294.51 92.14 289.94 100.85 C 289.08 102.46 288.40 104.15 287.88 105.89 C 288.90 106.29 289.92 106.70 290.94 107.12 C 294.09 108.94 297.11 110.99 299.81 113.45 C 301.04 112.06 302.31 110.70 303.64 109.41 C 303.22 111.58 302.54 114.38 299.89 114.67 C 297.19 113.88 294.75 112.44 292.29 111.14 C 291.58 110.71 290.86 110.30 290.15 109.89 C 284.43 106.48 278.03 104.50 271.54 103.22 C 265.85 101.57 259.88 102.28 254.07 101.54 C 257.66 94.88 262.31 88.88 266.26 82.44 C 269.74 77.32 272.89 71.99 276.47 66.94 C 275.81 65.62 275.16 64.28 274.53 62.95 C 274.81 62.38 275.38 61.24 275.67 60.67 C 277.06 59.99 278.47 59.33 279.88 58.68 Z" fill="#0b1e33" opacity="1.00" stroke="#0b1e33" stroke-width="0.25"/>
<path d="M 276.80 62.82 C 282.07 59.65 288.68 59.91 294.43 61.49 C 298.82 62.58 302.34 66.21 303.82 70.41 C 296.78 70.60 289.82 69.05 283.20 66.75 C 280.78 65.95 278.74 64.40 276.80 62.82 Z" fill="#7b513f" opacity="1.00" stroke="#7b513f" stroke-width="0.25"/>
<path d="M 278.18 69.00 C 278.88 67.67 280.32 68.60 281.40 68.78 C 285.70 70.10 289.95 71.58 294.25 72.87 C 290.14 80.50 285.62 87.91 281.66 95.62 C 280.47 97.87 279.07 100.00 277.62 102.09 C 270.92 100.47 264.00 100.61 257.17 100.83 C 264.53 90.46 271.05 79.52 278.18 69.00 Z" fill="#815540" opacity="1.00" stroke="#815540" stroke-width="0.25"/>
<path d="M 294.25 72.87 C 296.15 73.33 298.05 73.81 299.93 74.34 C 295.25 84.23 289.49 93.60 285.37 103.76 C 282.77 103.26 280.19 102.69 277.62 102.09 C 279.07 100.00 280.47 97.87 281.66 95.62 C 285.62 87.91 290.14 80.50 294.25 72.87 Z" fill="#56342a" opacity="1.00" stroke="#56342a" stroke-width="0.25"/>
<path d="M 198.45 75.76 C 209.46 72.56 221.94 74.15 231.50 80.60 C 239.60 85.95 245.22 94.44 247.89 103.70 C 249.93 103.01 252.00 102.37 254.00 101.53 L 254.07 101.54 C 259.88 102.28 265.85 101.57 271.54 103.22 C 262.97 102.81 254.12 103.11 246.14 106.62 C 245.88 106.21 245.36 105.38 245.10 104.97 C 242.19 95.19 235.34 86.64 225.96 82.41 C 217.20 78.00 206.66 77.60 197.39 80.59 C 188.09 83.92 179.74 90.59 175.46 99.62 C 172.66 105.08 171.31 111.14 170.84 117.23 C 170.23 125.66 172.86 134.02 177.06 141.27 C 177.88 140.71 178.69 140.15 179.51 139.60 C 180.13 139.99 181.38 140.76 182.00 141.15 C 167.22 151.77 161.41 172.38 167.47 189.38 C 170.73 198.55 177.23 206.51 185.69 211.36 C 202.46 221.65 226.34 218.04 238.97 202.85 C 240.79 199.97 241.44 196.55 242.80 193.45 C 243.16 194.14 243.87 195.51 244.23 196.19 C 238.92 211.55 241.18 230.17 252.85 242.09 C 255.85 245.95 260.84 246.85 264.99 248.95 C 268.06 250.40 270.83 252.55 274.17 253.39 C 285.79 256.16 298.53 253.29 307.92 245.92 C 316.21 239.24 322.09 229.46 323.52 218.85 C 324.09 212.70 324.07 206.37 322.28 200.42 C 319.85 192.17 314.72 184.76 307.93 179.50 C 302.87 174.96 296.62 171.77 290.01 170.21 C 282.43 168.46 274.45 169.68 267.23 172.35 C 266.59 172.01 265.30 171.34 264.65 171.00 C 275.21 165.20 288.43 164.61 299.49 169.35 C 308.59 157.55 310.83 140.80 304.93 127.10 C 302.22 120.73 297.05 115.98 292.29 111.14 C 294.75 112.44 297.19 113.88 299.89 114.67 C 302.54 114.38 303.22 111.58 303.64 109.41 L 303.73 109.07 C 310.80 101.38 320.65 96.37 331.02 95.07 C 351.63 91.95 373.61 104.38 380.83 124.07 C 386.21 139.08 383.60 156.78 373.56 169.27 C 378.00 171.32 382.19 173.92 385.87 177.16 C 396.17 186.63 401.94 201.07 400.10 215.05 C 399.17 226.22 393.60 236.89 385.08 244.14 C 379.12 249.84 371.19 252.77 363.30 254.62 C 377.25 272.33 374.57 300.71 357.31 315.30 C 351.22 320.67 343.35 323.68 335.35 324.64 C 337.62 329.19 339.25 334.02 340.27 339.00 L 340.19 339.28 C 338.39 343.93 338.82 348.97 340.08 353.70 C 338.09 364.26 332.17 374.28 322.95 380.05 C 316.26 384.64 308.06 386.27 300.07 386.39 C 304.56 395.43 306.46 405.90 304.50 415.87 C 302.18 431.13 291.01 444.87 276.16 449.46 C 259.80 455.46 239.96 449.29 229.85 435.12 C 224.32 427.82 221.81 418.50 222.09 409.41 C 211.31 410.77 199.65 408.93 190.95 402.05 C 181.92 395.58 176.22 385.00 175.10 374.00 C 174.27 368.30 175.21 362.55 176.31 356.96 C 163.97 354.11 153.13 345.24 148.36 333.45 C 144.34 323.81 144.08 312.69 147.46 302.83 C 150.50 294.12 156.80 286.75 164.50 281.77 C 154.63 271.02 151.18 255.39 154.59 241.32 C 142.28 244.56 128.46 242.37 118.10 234.88 C 108.46 228.41 102.02 217.35 100.82 205.89 C 102.18 202.38 102.07 198.66 100.75 195.16 C 102.03 180.41 112.44 167.33 125.79 161.29 C 114.98 145.06 117.31 121.12 131.98 107.99 C 142.37 98.21 158.06 94.03 171.78 98.37 C 176.99 87.58 186.85 78.99 198.45 75.76 Z" fill="#031f3c" opacity="1.00" stroke="#031f3c" stroke-width="0.25"/>
<path d="M 197.39 80.59 C 206.66 77.60 217.20 78.00 225.96 82.41 C 227.96 87.46 230.66 92.42 230.96 97.96 C 231.54 107.03 228.75 116.74 221.89 122.99 C 215.59 128.28 206.91 129.54 198.95 129.05 C 188.54 128.35 179.14 123.21 170.84 117.23 C 171.31 111.14 172.66 105.08 175.46 99.62 C 179.74 90.59 188.09 83.92 197.39 80.59 Z" fill="#6ca6d7" opacity="1.00" stroke="#6ca6d7" stroke-width="0.25"/>
<path d="M 225.96 82.41 C 235.34 86.64 242.19 95.19 245.10 104.97 C 237.37 108.78 230.34 114.47 226.28 122.20 C 224.49 125.45 223.35 129.00 222.16 132.49 C 211.13 128.95 198.61 129.09 188.10 134.25 C 185.05 135.72 182.30 137.70 179.51 139.60 C 178.69 140.15 177.88 140.71 177.06 141.27 C 172.86 134.02 170.23 125.66 170.84 117.23 C 179.14 123.21 188.54 128.35 198.95 129.05 C 206.91 129.54 215.59 128.28 221.89 122.99 C 228.75 116.74 231.54 107.03 230.96 97.96 C 230.66 92.42 227.96 87.46 225.96 82.41 Z" fill="#565599" opacity="1.00" stroke="#565599" stroke-width="0.25"/>
<path d="M 202.94 94.06 C 199.38 91.56 200.50 85.47 204.85 84.63 C 208.01 84.71 211.79 85.50 213.62 88.36 C 213.70 89.71 213.63 91.07 213.60 92.42 C 210.68 94.74 206.34 95.96 202.94 94.06 Z" fill="#cff6ff" opacity="1.00" stroke="#cff6ff" stroke-width="0.25"/>
<path d="M 189.63 95.60 C 191.92 92.39 198.12 92.10 199.74 96.12 C 200.75 99.79 198.34 102.99 196.28 105.73 C 193.31 106.25 190.63 105.23 188.47 103.20 C 188.58 100.66 187.88 97.74 189.63 95.60 Z" fill="#cef6ff" opacity="1.00" stroke="#cef6ff" stroke-width="0.25"/>
<path d="M 302.71 116.66 C 309.30 106.82 320.24 99.96 332.04 98.65 C 340.06 97.88 348.42 99.32 355.42 103.41 L 355.63 103.88 C 358.15 109.27 360.90 114.84 360.64 120.96 C 360.90 131.73 352.92 141.61 342.83 144.78 C 332.74 148.35 321.79 146.36 311.94 142.99 C 311.65 140.64 311.39 138.29 311.03 135.95 C 309.92 128.94 307.02 122.28 302.71 116.66 Z" fill="#6ca6d8" opacity="1.00" stroke="#6ca6d8" stroke-width="0.25"/>
<path d="M 123.86 128.96 C 128.09 109.32 150.80 95.75 169.96 102.20 C 166.79 111.91 166.32 122.64 169.68 132.37 L 169.36 132.63 C 165.71 135.79 161.67 138.74 156.88 139.84 C 145.55 142.41 133.71 140.00 123.29 135.23 C 123.46 133.14 123.61 131.04 123.86 128.96 Z" fill="#6ca5d6" opacity="1.00" stroke="#6ca5d6" stroke-width="0.25"/>
<path d="M 246.14 106.62 C 254.12 103.11 262.97 102.81 271.54 103.22 C 278.03 104.50 284.43 106.48 290.15 109.89 C 290.41 117.81 291.31 126.62 286.48 133.48 C 281.21 140.40 272.51 143.77 264.10 144.77 C 255.68 146.11 247.21 144.53 238.92 143.07 C 234.51 139.28 229.56 136.27 224.52 133.43 C 225.88 121.42 235.15 111.18 246.14 106.62 Z" fill="#6ca6d8" opacity="1.00" stroke="#6ca6d8" stroke-width="0.25"/>
<path d="M 355.63 103.88 C 359.14 104.71 361.73 107.32 364.39 109.58 C 372.42 116.45 377.73 126.42 378.80 136.94 C 380.13 147.87 376.69 158.93 370.50 167.90 C 360.24 165.67 349.14 165.23 339.30 169.38 C 333.99 171.57 329.22 174.85 324.99 178.70 C 318.99 176.36 313.21 173.15 308.88 168.29 C 307.71 166.80 305.39 165.24 306.80 163.14 C 311.07 154.77 312.07 145.20 311.03 135.95 C 311.39 138.29 311.65 140.64 311.94 142.99 C 321.79 146.36 332.74 148.35 342.83 144.78 C 352.92 141.61 360.90 131.73 360.64 120.96 C 360.90 114.84 358.15 109.27 355.63 103.88 Z" fill="#57569a" opacity="1.00" stroke="#57569a" stroke-width="0.25"/>
<path d="M 226.28 122.20 C 230.34 114.47 237.37 108.78 245.10 104.97 C 245.36 105.38 245.88 106.21 246.14 106.62 C 235.15 111.18 225.88 121.42 224.52 133.43 C 229.56 136.27 234.51 139.28 238.92 143.07 C 248.35 153.09 252.85 167.16 251.29 180.80 C 255.33 177.02 259.79 173.66 264.65 171.00 C 265.30 171.34 266.59 172.01 267.23 172.35 C 262.69 174.26 258.46 176.92 254.86 180.29 C 250.04 184.60 246.34 190.07 244.23 196.19 C 243.87 195.51 243.16 194.14 242.80 193.45 C 244.37 190.21 246.72 187.40 248.04 184.04 C 252.87 165.35 242.45 144.31 224.76 136.61 C 211.08 129.88 194.02 131.87 182.00 141.15 C 181.38 140.76 180.13 139.99 179.51 139.60 C 182.30 137.70 185.05 135.72 188.10 134.25 C 198.61 129.09 211.13 128.95 222.16 132.49 C 223.35 129.00 224.49 125.45 226.28 122.20 Z" fill="#001b3e" opacity="1.00" stroke="#001b3e" stroke-width="0.25"/>
<path d="M 331.86 107.87 C 333.90 105.89 336.85 106.22 339.44 106.42 C 340.09 109.39 340.79 112.99 338.49 115.45 C 336.57 117.99 331.99 119.00 329.94 116.13 C 327.48 113.59 329.54 109.73 331.86 107.87 Z" fill="#ccf6ff" opacity="1.00" stroke="#ccf6ff" stroke-width="0.25"/>
<path d="M 146.12 112.80 C 147.95 110.83 150.09 108.59 153.08 109.21 C 158.37 109.40 159.64 118.97 153.95 119.63 C 149.58 120.79 147.02 116.34 146.12 112.80 Z" fill="#d0f5ff" opacity="1.00" stroke="#d0f5ff" stroke-width="0.25"/>
<path d="M 264.20 109.30 C 267.99 109.02 272.25 108.95 274.47 112.64 C 274.28 115.36 274.59 118.09 275.68 120.62 C 270.61 121.48 263.88 120.50 261.96 114.94 C 260.76 112.70 263.17 111.03 264.20 109.30 Z" fill="#cff6ff" opacity="1.00" stroke="#cff6ff" stroke-width="0.25"/>
<path d="M 253.88 110.43 C 256.21 109.54 257.98 111.50 259.61 112.81 C 259.89 117.54 257.04 122.90 252.04 123.66 C 249.60 124.27 247.40 122.37 246.85 120.10 C 246.55 115.78 249.29 111.05 253.88 110.43 Z" fill="#cff4ff" opacity="1.00" stroke="#cff4ff" stroke-width="0.25"/>
<path d="M 290.15 109.89 C 290.86 110.30 291.58 110.71 292.29 111.14 C 297.05 115.98 302.22 120.73 304.93 127.10 C 310.83 140.80 308.59 157.55 299.49 169.35 C 288.43 164.61 275.21 165.20 264.65 171.00 C 259.79 173.66 255.33 177.02 251.29 180.80 C 252.85 167.16 248.35 153.09 238.92 143.07 C 247.21 144.53 255.68 146.11 264.10 144.77 C 272.51 143.77 281.21 140.40 286.48 133.48 C 291.31 126.62 290.41 117.81 290.15 109.89 Z" fill="#57569a" opacity="1.00" stroke="#57569a" stroke-width="0.25"/>
<path d="M 139.17 115.16 C 140.91 114.84 143.08 113.96 144.55 115.43 C 148.01 117.66 147.86 124.21 143.63 125.46 C 140.09 126.04 135.85 125.42 133.49 122.47 C 131.81 118.54 135.88 115.90 139.17 115.16 Z" fill="#cff5ff" opacity="1.00" stroke="#cff5ff" stroke-width="0.25"/>
<path d="M 320.39 118.55 C 323.28 117.70 328.06 118.22 328.38 121.98 C 329.11 128.87 318.22 131.86 314.56 126.56 C 312.84 122.54 316.84 119.28 320.39 118.55 Z" fill="#cff6ff" opacity="1.00" stroke="#cff6ff" stroke-width="0.25"/>
<path d="M 131.89 159.05 C 123.54 151.79 121.70 139.33 123.86 128.96 C 123.61 131.04 123.46 133.14 123.29 135.23 C 133.71 140.00 145.55 142.41 156.88 139.84 C 161.67 138.74 165.71 135.79 169.36 132.63 C 171.05 136.40 173.65 139.83 174.80 143.78 C 171.04 149.45 167.11 155.10 164.98 161.65 C 154.62 156.88 142.88 156.43 131.89 159.05 Z" fill="#57569a" opacity="1.00" stroke="#57569a" stroke-width="0.25"/>
<path d="M 182.00 141.15 C 194.02 131.87 211.08 129.88 224.76 136.61 C 227.63 146.11 229.30 156.71 225.22 166.12 C 220.29 177.38 209.35 184.89 197.93 188.54 C 188.09 191.76 177.53 191.16 167.47 189.38 C 161.41 172.38 167.22 151.77 182.00 141.15 Z" fill="#6ca6d8" opacity="1.00" stroke="#6ca6d8" stroke-width="0.25"/>
<path d="M 224.76 136.61 C 242.45 144.31 252.87 165.35 248.04 184.04 C 246.72 187.40 244.37 190.21 242.80 193.45 C 241.44 196.55 240.79 199.97 238.97 202.85 C 226.34 218.04 202.46 221.65 185.69 211.36 C 177.23 206.51 170.73 198.55 167.47 189.38 C 177.53 191.16 188.09 191.76 197.93 188.54 C 209.35 184.89 220.29 177.38 225.22 166.12 C 229.30 156.71 227.63 146.11 224.76 136.61 Z" fill="#57569a" opacity="1.00" stroke="#57569a" stroke-width="0.25"/>
<path d="M 190.31 145.09 C 192.03 140.70 198.97 139.46 201.56 143.66 C 200.75 147.55 199.30 151.96 195.10 153.34 C 190.79 154.12 188.05 148.46 190.31 145.09 Z" fill="#cff5ff" opacity="1.00" stroke="#cff5ff" stroke-width="0.25"/>
<path d="M 184.11 157.13 C 186.80 155.41 189.56 157.80 191.21 159.83 C 193.58 164.17 190.22 172.29 184.44 170.40 C 178.84 168.36 179.31 159.79 184.11 157.13 Z" fill="#cef5ff" opacity="1.00" stroke="#cef5ff" stroke-width="0.25"/>
<path d="M 113.69 175.66 C 120.30 167.24 130.26 161.47 140.91 160.23 C 147.49 159.14 154.13 160.57 160.41 162.47 L 160.47 163.10 C 161.40 173.34 163.02 184.48 158.01 193.98 C 154.12 201.28 145.81 204.54 138.05 205.74 C 127.07 207.71 115.98 205.22 105.54 201.87 C 105.34 192.54 107.91 183.08 113.69 175.66 Z" fill="#6da5d7" opacity="1.00" stroke="#6da5d7" stroke-width="0.25"/>
<path d="M 160.47 163.10 C 162.03 163.34 164.87 163.59 164.01 165.98 C 162.23 175.83 163.16 186.28 167.84 195.23 C 170.71 201.61 175.86 206.49 180.97 211.10 C 171.90 215.83 163.47 222.60 158.75 231.85 C 157.45 233.87 156.96 236.62 155.00 238.09 C 141.02 242.11 125.31 237.10 115.57 226.47 C 109.31 219.88 105.83 210.91 105.54 201.87 C 115.98 205.22 127.07 207.71 138.05 205.74 C 145.81 204.54 154.12 201.28 158.01 193.98 C 163.02 184.48 161.40 173.34 160.47 163.10 Z" fill="#57569a" opacity="1.00" stroke="#57569a" stroke-width="0.25"/>
<path d="M 321.02 186.66 C 332.17 169.59 357.36 163.98 374.61 174.96 C 375.82 181.18 376.18 187.85 373.83 193.86 C 370.80 201.49 364.69 208.28 356.61 210.55 C 347.46 213.20 337.59 211.69 328.88 208.17 C 327.99 200.52 325.78 192.84 321.02 186.66 Z" fill="#6ca6d7" opacity="1.00" stroke="#6ca6d7" stroke-width="0.25"/>
<path d="M 267.23 172.35 C 274.45 169.68 282.43 168.46 290.01 170.21 C 296.62 171.77 302.87 174.96 307.93 179.50 C 310.33 185.32 312.37 191.61 311.32 197.99 C 310.54 205.98 304.85 212.23 299.22 217.45 C 292.26 223.58 283.66 229.06 274.02 228.70 C 263.84 228.97 254.47 224.02 246.59 218.00 C 248.01 213.72 249.80 209.59 251.31 205.36 C 253.97 197.30 255.08 188.76 254.86 180.29 C 258.46 176.92 262.69 174.26 267.23 172.35 Z" fill="#6ca6d8" opacity="1.00" stroke="#6ca6d8" stroke-width="0.25"/>
<path d="M 130.55 174.86 C 131.96 171.20 136.85 170.36 140.07 171.97 C 142.06 172.96 142.68 175.24 143.67 177.04 C 142.59 178.94 141.61 181.78 138.96 181.79 C 135.01 182.49 129.91 179.17 130.55 174.86 Z" fill="#d0f5ff" opacity="1.00" stroke="#d0f5ff" stroke-width="0.25"/>
<path d="M 275.20 175.31 C 277.41 174.26 280.48 173.80 282.05 176.15 C 283.51 179.88 282.35 184.65 279.07 187.07 C 276.91 188.06 274.08 188.20 271.99 187.07 C 268.24 183.49 270.78 177.03 275.20 175.31 Z" fill="#cff4ff" opacity="1.00" stroke="#cff4ff" stroke-width="0.25"/>
<path d="M 374.61 174.96 C 385.21 180.58 392.45 191.72 394.41 203.45 C 395.25 210.71 395.07 218.29 392.41 225.19 C 387.54 238.66 374.60 249.11 360.17 250.03 C 351.73 241.27 340.40 235.37 328.19 234.47 C 327.30 233.32 326.38 232.18 325.63 230.94 C 325.32 229.12 326.35 227.43 326.78 225.71 C 328.83 220.10 328.87 214.06 328.88 208.17 C 337.59 211.69 347.46 213.20 356.61 210.55 C 364.69 208.28 370.80 201.49 373.83 193.86 C 376.18 187.85 375.82 181.18 374.61 174.96 Z" fill="#57569a" opacity="1.00" stroke="#57569a" stroke-width="0.25"/>
<path d="M 307.93 179.50 C 314.72 184.76 319.85 192.17 322.28 200.42 C 324.07 206.37 324.09 212.70 323.52 218.85 C 322.09 229.46 316.21 239.24 307.92 245.92 C 298.53 253.29 285.79 256.16 274.17 253.39 C 270.83 252.55 268.06 250.40 264.99 248.95 C 260.84 246.85 255.85 245.95 252.85 242.09 C 241.18 230.17 238.92 211.55 244.23 196.19 C 246.34 190.07 250.04 184.60 254.86 180.29 C 255.08 188.76 253.97 197.30 251.31 205.36 C 249.80 209.59 248.01 213.72 246.59 218.00 C 254.47 224.02 263.84 228.97 274.02 228.70 C 283.66 229.06 292.26 223.58 299.22 217.45 C 304.85 212.23 310.54 205.98 311.32 197.99 C 312.37 191.61 310.33 185.32 307.93 179.50 Z" fill="#57569a" opacity="1.00" stroke="#57569a" stroke-width="0.25"/>
<path d="M 340.37 180.53 C 344.93 176.80 349.93 183.64 348.08 187.97 C 347.15 192.28 341.02 194.27 337.86 191.18 C 335.18 187.84 336.11 182.08 340.37 180.53 Z" fill="#cff5ff" opacity="1.00" stroke="#cff5ff" stroke-width="0.25"/>
<path d="M 120.51 185.06 C 121.05 181.46 125.56 179.01 128.68 181.20 C 132.53 183.31 132.80 189.00 130.11 192.11 C 128.80 193.64 126.62 193.39 124.84 193.79 C 122.50 191.52 119.38 188.70 120.51 185.06 Z" fill="#cff6ff" opacity="1.00" stroke="#cff6ff" stroke-width="0.25"/>
<path d="M 266.28 190.39 C 268.45 188.61 271.25 190.83 272.07 192.98 C 274.23 197.32 272.74 203.44 268.11 205.48 C 264.97 205.98 262.82 202.77 262.49 200.03 C 262.17 196.55 263.09 192.33 266.28 190.39 Z" fill="#d1f5ff" opacity="1.00" stroke="#d1f5ff" stroke-width="0.25"/>
<path d="M 100.75 195.16 C 102.07 198.66 102.18 202.38 100.82 205.89 C 100.26 202.34 100.25 198.72 100.75 195.16 Z" fill="#000a1d" opacity="1.00" stroke="#000a1d" stroke-width="0.25"/>
<path d="M 176.19 216.39 C 178.47 215.06 180.77 213.76 183.09 212.49 C 195.36 220.37 211.41 222.03 224.89 216.37 C 234.95 222.19 244.43 231.58 245.85 243.63 C 241.25 243.59 236.60 243.56 232.07 244.50 C 226.70 245.47 221.79 247.96 216.77 250.01 C 218.56 245.87 220.14 241.53 220.42 236.99 C 220.68 232.20 219.09 227.61 217.72 223.09 C 209.35 224.46 200.91 225.62 192.42 224.81 C 190.94 224.76 189.46 224.72 187.99 224.68 C 186.69 225.30 185.40 225.92 184.08 226.48 C 183.36 226.25 181.90 225.80 181.18 225.57 C 180.84 224.94 180.51 224.31 180.19 223.68 C 180.25 222.14 180.31 220.59 180.37 219.05 C 178.97 218.16 177.58 217.27 176.19 216.39 Z" fill="#565699" opacity="1.00" stroke="#565699" stroke-width="0.25"/>
<path d="M 164.88 228.02 C 167.86 223.45 171.98 219.79 176.19 216.39 C 177.58 217.27 178.97 218.16 180.37 219.05 C 180.31 220.59 180.25 222.14 180.19 223.68 C 180.51 224.31 180.84 224.94 181.18 225.57 C 182.45 227.42 183.10 230.81 185.93 230.47 C 189.18 230.36 190.73 227.08 192.42 224.81 C 200.91 225.62 209.35 224.46 217.72 223.09 C 219.09 227.61 220.68 232.20 220.42 236.99 C 220.14 241.53 218.56 245.87 216.77 250.01 C 212.77 253.88 208.08 257.10 204.42 261.40 C 204.24 261.46 203.87 261.58 203.69 261.64 C 196.35 264.12 188.91 267.09 181.00 266.51 C 172.86 266.58 165.19 263.41 158.48 259.04 C 156.83 248.42 158.62 236.93 164.88 228.02 Z" fill="#6ca5d7" opacity="1.00" stroke="#6ca5d7" stroke-width="0.25"/>
<path d="M 184.08 226.48 C 185.40 225.92 186.69 225.30 187.99 224.68 C 189.46 224.72 190.94 224.76 192.42 224.81 C 190.73 227.08 189.18 230.36 185.93 230.47 C 183.10 230.81 182.45 227.42 181.18 225.57 C 181.90 225.80 183.36 226.25 184.08 226.48 Z" fill="#d2f5ff" opacity="1.00" stroke="#d2f5ff" stroke-width="0.25"/>
<path d="M 178.22 233.31 C 180.45 232.65 183.38 233.03 184.54 235.33 C 187.59 240.04 184.11 249.39 177.56 247.65 C 171.35 245.61 172.70 235.47 178.22 233.31 Z" fill="#cff5fe" opacity="1.00" stroke="#cff5fe" stroke-width="0.25"/>
<path d="M 320.59 237.30 C 328.76 236.20 336.71 238.61 343.94 242.25 C 338.53 247.89 332.61 253.35 325.24 256.27 C 323.87 256.85 322.36 256.73 320.92 256.72 C 317.30 255.76 314.27 257.95 312.96 261.22 C 308.97 261.52 304.99 261.90 301.01 262.33 C 301.03 272.50 306.58 282.69 315.62 287.54 C 327.22 293.16 342.43 287.60 348.38 276.34 C 353.71 266.50 352.37 254.12 346.65 244.74 C 350.65 245.80 353.65 248.79 356.47 251.65 C 364.08 259.78 369.24 270.71 368.69 282.02 C 368.80 291.03 365.14 299.71 359.84 306.84 C 353.23 315.25 342.50 319.67 331.96 319.89 C 323.49 309.73 310.22 303.76 297.00 304.19 C 294.84 303.94 291.79 304.87 290.71 302.35 C 287.38 298.51 290.05 293.49 289.78 289.05 C 289.59 280.62 290.70 271.25 285.52 263.97 C 286.77 261.48 288.02 258.99 289.26 256.49 C 301.77 254.74 313.65 248.00 320.59 237.30 Z" fill="#57569a" opacity="1.00" stroke="#57569a" stroke-width="0.25"/>
<path d="M 325.24 256.27 C 332.61 253.35 338.53 247.89 343.94 242.25 C 344.84 243.06 345.84 243.81 346.65 244.74 C 352.37 254.12 353.71 266.50 348.38 276.34 C 342.43 287.60 327.22 293.16 315.62 287.54 C 306.58 282.69 301.03 272.50 301.01 262.33 C 304.99 261.90 308.97 261.52 312.96 261.22 C 313.23 264.24 313.83 267.67 316.61 269.44 C 319.30 271.77 324.13 270.44 325.10 266.98 C 326.44 263.01 323.63 259.31 320.92 256.72 C 322.36 256.73 323.87 256.85 325.24 256.27 Z" fill="#6ca6d8" opacity="1.00" stroke="#6ca6d8" stroke-width="0.25"/>
<path d="M 212.82 255.78 C 223.44 247.04 238.42 243.09 251.75 246.97 C 258.43 251.23 265.29 256.34 268.04 264.10 C 272.19 274.68 268.46 286.89 260.93 294.98 C 251.85 304.72 238.32 310.08 225.03 309.52 C 217.36 309.28 209.89 307.00 202.92 303.91 C 194.20 288.34 198.69 266.79 212.82 255.78 Z" fill="#6ca6d6" opacity="1.00" stroke="#6ca6d6" stroke-width="0.25"/>
<path d="M 251.75 246.97 C 256.31 247.31 260.46 249.35 264.40 251.52 C 274.17 256.47 281.76 265.56 284.95 276.03 C 288.05 287.01 286.04 298.93 281.02 309.02 C 274.91 320.85 262.13 328.29 249.01 329.22 C 230.66 330.41 211.14 320.74 202.92 303.91 C 209.89 307.00 217.36 309.28 225.03 309.52 C 238.32 310.08 251.85 304.72 260.93 294.98 C 268.46 286.89 272.19 274.68 268.04 264.10 C 265.29 256.34 258.43 251.23 251.75 246.97 Z" fill="#57569a" opacity="1.00" stroke="#57569a" stroke-width="0.25"/>
<path d="M 312.96 261.22 C 314.27 257.95 317.30 255.76 320.92 256.72 C 323.63 259.31 326.44 263.01 325.10 266.98 C 324.13 270.44 319.30 271.77 316.61 269.44 C 313.83 267.67 313.23 264.24 312.96 261.22 Z" fill="#ccf5ff" opacity="1.00" stroke="#ccf5ff" stroke-width="0.25"/>
<path d="M 158.48 259.04 C 165.19 263.41 172.86 266.58 181.00 266.51 C 188.91 267.09 196.35 264.12 203.69 261.64 C 202.48 266.02 199.47 269.63 198.24 274.00 C 196.40 279.37 196.12 285.09 196.35 290.71 C 178.24 291.37 161.27 276.84 158.48 259.04 Z" fill="#565699" opacity="1.00" stroke="#565699" stroke-width="0.25"/>
<path d="M 216.28 269.35 C 224.21 266.82 226.71 280.33 219.92 282.76 C 212.81 284.05 209.80 272.15 216.28 269.35 Z" fill="#cff5fe" opacity="1.00" stroke="#cff5fe" stroke-width="0.25"/>
<path d="M 148.94 322.22 C 147.15 307.37 154.08 291.74 166.98 283.89 C 168.80 285.24 170.85 286.38 172.26 288.19 C 173.69 290.65 176.08 292.13 178.33 293.75 C 180.59 297.00 181.43 301.04 183.64 304.36 C 185.69 308.19 189.45 310.61 191.98 314.05 C 184.76 329.83 161.75 332.93 148.94 322.22 Z" fill="#6ca5d6" opacity="1.00" stroke="#6ca5d6" stroke-width="0.25"/>
<path d="M 172.26 288.19 C 176.52 289.68 180.53 291.91 184.99 292.80 C 188.75 293.65 192.63 293.53 196.46 293.56 C 198.01 299.33 199.62 305.18 202.66 310.38 C 205.62 315.66 210.00 319.88 214.13 324.23 C 198.32 326.82 183.76 337.45 177.98 352.61 C 163.19 349.79 151.73 336.77 148.94 322.22 C 161.75 332.93 184.76 329.83 191.98 314.05 C 189.45 310.61 185.69 308.19 183.64 304.36 C 181.43 301.04 180.59 297.00 178.33 293.75 C 176.08 292.13 173.69 290.65 172.26 288.19 Z" fill="#57559a" opacity="1.00" stroke="#57559a" stroke-width="0.25"/>
<path d="M 166.23 298.21 C 172.71 296.75 176.03 305.71 171.93 309.97 C 168.13 314.27 160.38 309.20 161.54 303.94 C 162.25 301.59 163.22 298.23 166.23 298.21 Z" fill="#cff4ff" opacity="1.00" stroke="#cff4ff" stroke-width="0.25"/>
<path d="M 288.45 306.71 C 293.36 306.04 298.36 306.14 303.29 306.66 L 302.26 306.93 C 301.82 307.04 300.94 307.27 300.50 307.38 C 297.02 312.49 293.23 317.53 288.21 321.23 C 281.94 325.88 274.81 329.26 267.49 331.90 C 268.48 340.67 269.61 349.43 270.67 358.20 C 279.94 361.65 290.28 362.94 299.85 359.87 C 309.76 356.81 319.40 349.96 322.92 339.86 C 325.81 330.33 322.06 320.28 316.01 312.84 C 323.70 316.00 329.11 323.13 332.23 330.65 C 338.03 343.88 335.73 360.33 326.38 371.38 C 319.35 379.26 308.73 384.39 298.04 383.39 C 292.12 375.49 283.76 369.02 274.02 366.78 C 270.34 365.80 266.54 365.55 262.76 365.35 C 262.65 355.83 258.13 347.19 253.61 339.08 C 254.53 336.72 255.41 334.35 256.27 331.97 C 264.14 329.56 271.82 325.71 277.41 319.53 C 280.34 316.33 282.43 312.51 284.61 308.78 C 285.21 307.20 287.02 307.03 288.45 306.71 Z" fill="#575599" opacity="1.00" stroke="#575599" stroke-width="0.25"/>
<path d="M 300.50 307.38 C 300.94 307.27 301.82 307.04 302.26 306.93 C 307.15 307.96 312.09 309.65 316.01 312.84 C 322.06 320.28 325.81 330.33 322.92 339.86 C 319.40 349.96 309.76 356.81 299.85 359.87 C 290.28 362.94 279.94 361.65 270.67 358.20 C 269.61 349.43 268.48 340.67 267.49 331.90 C 274.81 329.26 281.94 325.88 288.21 321.23 C 293.23 317.53 297.02 312.49 300.50 307.38 Z" fill="#6ca6d8" opacity="1.00" stroke="#6ca6d8" stroke-width="0.25"/>
<path d="M 205.62 328.87 C 209.36 327.80 213.14 326.62 217.07 326.58 C 221.82 328.27 225.95 331.46 230.91 332.67 C 234.48 333.89 238.43 333.68 241.91 335.13 C 251.99 341.96 257.93 353.64 259.60 365.51 C 254.52 367.11 249.07 367.83 244.45 370.65 C 235.77 375.70 228.43 383.55 225.06 393.12 C 223.55 397.50 222.82 402.10 222.32 406.70 C 204.72 409.66 186.73 397.74 180.89 381.20 C 186.17 383.13 191.43 385.30 197.03 386.09 C 206.43 387.55 216.22 385.87 224.71 381.66 C 232.37 377.74 237.58 370.08 239.66 361.87 C 241.20 356.02 239.69 349.57 236.15 344.74 C 234.29 343.00 231.59 342.62 229.29 341.73 C 220.64 339.07 212.64 334.56 205.62 328.87 Z" fill="#565699" opacity="1.00" stroke="#565699" stroke-width="0.25"/>
<path d="M 284.18 327.24 C 287.81 325.73 292.16 329.15 291.83 332.99 C 292.16 335.74 290.66 338.38 288.12 339.47 C 286.07 339.34 283.88 339.01 282.20 337.75 C 279.13 334.85 279.70 328.43 284.18 327.24 Z" fill="#cef5ff" opacity="1.00" stroke="#cef5ff" stroke-width="0.25"/>
<path d="M 183.14 349.05 C 187.65 339.71 196.11 332.71 205.62 328.87 C 212.64 334.56 220.64 339.07 229.29 341.73 C 231.59 342.62 234.29 343.00 236.15 344.74 C 239.69 349.57 241.20 356.02 239.66 361.87 C 237.58 370.08 232.37 377.74 224.71 381.66 C 216.22 385.87 206.43 387.55 197.03 386.09 C 191.43 385.30 186.17 383.13 180.89 381.20 C 177.64 370.68 178.09 358.93 183.14 349.05 Z" fill="#6ca6d6" opacity="1.00" stroke="#6ca6d6" stroke-width="0.25"/>
<path d="M 205.32 340.59 C 207.31 339.76 210.70 338.53 211.95 341.06 C 214.96 346.66 206.58 353.79 201.86 349.00 C 200.74 345.79 202.17 341.97 205.32 340.59 Z" fill="#cef7ff" opacity="1.00" stroke="#cef7ff" stroke-width="0.25"/>
<path d="M 340.08 353.70 C 338.82 348.97 338.39 343.93 340.19 339.28 C 340.72 344.06 340.85 348.93 340.08 353.70 Z" fill="#010f21" opacity="1.00" stroke="#010f21" stroke-width="0.25"/>
<path d="M 194.29 357.93 C 194.39 355.30 196.06 352.00 199.07 352.02 C 201.81 351.56 203.82 354.46 203.74 356.95 C 203.89 359.82 203.73 363.28 201.29 365.22 C 199.96 365.56 198.58 365.69 197.23 365.89 C 195.79 363.46 193.77 360.97 194.29 357.93 Z" fill="#d0f6ff" opacity="1.00" stroke="#d0f6ff" stroke-width="0.25"/>
<path d="M 257.31 368.52 C 265.30 367.28 273.74 368.91 280.47 373.46 C 290.63 380.30 297.88 391.68 298.95 403.98 C 299.84 412.90 297.92 422.30 292.76 429.72 C 283.78 442.94 265.76 448.75 250.75 443.24 C 237.93 439.00 227.77 427.46 225.52 414.10 C 224.63 405.49 224.94 396.24 229.46 388.59 C 234.94 378.00 245.58 370.47 257.31 368.52 Z" fill="#56569a" opacity="1.00" stroke="#56569a" stroke-width="0.25"/>
<path d="M 246.68 379.64 C 251.67 375.41 258.82 374.66 264.97 376.32 C 271.39 378.17 276.97 381.99 282.39 385.77 C 283.97 394.93 283.02 404.83 277.66 412.65 C 269.74 424.83 253.15 429.44 239.65 425.37 C 236.55 417.37 235.93 408.49 236.59 399.97 C 237.69 392.42 240.43 384.48 246.68 379.64 Z" fill="#6ca6d6" opacity="1.00" stroke="#6ca6d6" stroke-width="0.25"/>
</svg>