<svg xmlns="http://www.w3.org/2000/svg" height="512pt" version="1.1" viewBox="0 0 512 512" width="512pt">

<path d="M 369.36 55.49 C 371.12 55.54 376.59 54.23 375.78 56.80 C 372.10 58.88 368.34 60.83 365.15 63.64 C 367.92 64.82 364.56 69.01 366.99 71.69 C 362.35 71.58 356.65 76.15 360.19 80.90 C 363.10 80.04 370.06 79.47 367.41 84.37 C 364.71 91.34 353.76 92.31 351.94 98.98 C 357.31 97.40 362.82 100.02 368.02 97.15 C 371.75 97.11 376.15 93.85 379.69 96.27 C 382.25 98.25 381.47 101.99 380.72 104.69 C 378.15 106.56 374.83 108.29 376.00 112.08 C 380.66 111.69 384.11 107.50 388.81 107.07 C 390.76 108.57 388.85 111.09 389.02 113.08 C 393.63 113.01 397.09 108.34 401.77 109.11 C 404.54 111.16 402.57 114.81 400.00 116.00 C 394.35 118.91 397.43 127.65 390.99 129.98 C 386.37 132.49 382.88 137.25 383.92 142.83 C 397.02 139.72 408.33 131.70 420.81 127.01 C 422.65 129.75 422.07 132.76 418.80 133.83 C 411.23 141.40 400.20 145.54 393.07 154.05 C 390.94 159.34 387.64 165.69 396.86 165.00 C 395.25 167.76 394.14 170.96 398.30 171.72 C 402.96 172.64 407.06 167.58 411.93 169.77 C 420.88 165.52 430.80 164.43 440.03 161.05 C 442.59 158.83 446.40 160.76 446.38 163.97 C 452.51 161.03 459.05 158.79 464.68 154.87 C 463.87 157.38 463.64 159.74 467.09 159.31 C 459.94 166.19 448.76 170.94 446.77 181.88 C 441.14 188.68 431.49 192.68 428.48 201.58 C 427.63 206.63 420.88 208.42 421.96 213.92 C 424.34 213.65 426.72 213.40 429.12 213.15 C 425.44 223.84 413.70 227.76 406.16 235.27 C 402.36 245.47 410.27 239.65 414.95 242.18 C 415.56 252.00 405.19 255.80 400.96 263.11 C 407.06 262.35 411.53 257.34 417.08 255.06 C 428.88 257.54 438.22 245.63 450.06 246.01 C 450.55 251.18 444.08 253.98 445.22 259.33 C 438.83 266.91 427.30 269.94 421.32 278.25 C 420.26 281.25 426.75 277.82 424.73 280.78 C 420.13 283.18 416.72 286.78 414.15 291.17 C 362.54 325.06 310.83 359.15 261.84 396.87 C 248.92 406.36 236.61 418.27 220.09 420.65 C 215.61 419.40 210.47 423.83 206.88 420.14 C 202.11 421.94 198.16 425.28 193.67 427.61 C 190.23 429.25 193.61 424.42 193.84 422.83 C 185.82 425.54 179.84 432.26 171.94 435.13 C 177.60 427.58 183.26 419.72 190.68 413.69 C 193.08 412.01 192.27 408.55 192.98 406.00 C 182.63 405.99 176.06 417.41 165.26 415.72 C 158.03 408.37 175.35 402.76 170.80 396.07 C 158.64 399.80 150.47 411.20 138.91 416.10 C 142.59 408.08 150.53 402.59 155.04 394.89 C 145.28 396.51 140.11 410.07 129.21 408.65 C 120.71 409.95 114.75 417.05 106.66 419.57 C 103.94 421.56 104.93 417.04 106.80 416.75 C 109.77 413.46 114.71 411.55 116.24 407.16 C 113.43 408.36 109.32 411.38 107.11 407.82 C 108.39 404.24 116.34 401.92 112.55 397.56 C 107.72 390.47 117.02 384.95 119.91 378.95 C 120.84 376.70 118.36 377.08 116.94 376.70 C 117.66 373.96 120.28 372.30 121.86 370.06 C 119.52 367.89 119.06 364.76 117.88 361.97 C 115.86 362.51 114.00 363.49 112.00 364.05 C 112.56 360.98 113.64 358.06 114.67 355.13 C 112.52 352.49 109.75 358.15 106.91 358.10 C 107.31 355.01 110.52 353.42 112.09 350.96 C 109.07 350.50 106.82 352.89 103.93 353.11 C 105.96 349.26 109.01 346.12 111.54 342.61 C 114.46 329.16 130.98 324.82 137.07 313.91 C 128.88 317.74 119.61 318.73 112.13 324.19 C 109.90 326.27 102.45 329.93 102.23 325.26 C 106.34 323.20 106.87 319.08 106.81 314.93 C 100.70 316.09 95.96 321.96 88.94 320.01 C 89.64 312.79 97.91 309.33 101.73 303.75 C 107.40 291.65 120.78 284.90 128.94 274.94 C 129.73 272.94 126.50 274.33 125.65 274.65 C 115.41 279.95 106.46 287.82 95.43 291.51 C 93.54 293.08 91.64 294.84 89.90 292.08 C 81.92 295.49 74.78 301.92 65.78 301.91 C 72.89 296.37 72.53 287.06 79.04 281.08 C 83.40 275.71 89.85 272.49 94.13 266.97 C 83.61 268.37 75.14 285.43 64.21 276.80 C 66.80 270.22 56.38 267.26 58.12 260.23 C 66.23 254.90 70.80 246.51 74.91 238.04 C 74.07 236.10 72.10 234.50 72.14 232.28 C 75.72 230.08 79.55 226.85 79.68 222.33 C 83.00 207.03 97.92 199.33 105.56 186.51 C 159.86 136.57 221.21 94.30 286.90 60.84 C 289.52 58.99 291.61 60.86 293.09 63.02 C 299.85 60.39 307.30 60.70 314.29 59.22 C 317.86 58.03 322.27 54.00 325.92 57.08 C 321.10 69.33 306.27 72.81 299.79 83.79 C 308.01 82.73 314.68 77.39 322.68 75.67 C 337.87 73.35 351.60 65.35 363.80 56.65 C 365.75 56.85 367.57 56.19 369.36 55.49 Z" fill="#a4c2d3" opacity="1.00" stroke="#a4c2d3" stroke-width="0.25" data-index="1"></path>
</svg>