<?xml version="1.0" encoding="utf-8"?>
<svg xmlns="http://www.w3.org/2000/svg" height="512pt" version="1.1" viewBox="0 0 512 512" width="512pt">
<path d="M 0.00 0.00 L 512.00 0.00 L 512.00 512.00 L 0.00 512.00 L 0.00 0.00 Z" fill="transparent" opacity="1.00" stroke="transparent" stroke-width="0.25"/>
<path d="M 205.88 85.88 C 209.64 83.42 213.60 79.13 218.52 80.57 C 225.94 84.73 233.40 88.85 240.60 93.39 C 253.72 100.82 265.85 109.88 277.11 119.88 C 282.74 124.95 288.72 129.60 294.62 134.34 C 302.50 140.35 310.94 146.10 316.40 154.58 C 321.32 161.71 323.34 171.05 330.65 176.35 C 337.00 181.36 344.51 186.50 353.01 185.54 C 359.92 184.78 367.31 186.69 372.29 191.71 C 380.30 200.69 385.74 211.57 390.67 222.46 C 393.64 230.02 396.16 237.78 399.81 245.07 C 403.12 252.37 408.26 258.58 412.83 265.09 C 419.49 275.16 425.99 285.34 432.13 295.73 C 434.94 300.93 437.67 306.28 439.13 312.04 C 438.07 318.74 434.71 324.84 431.99 331.00 C 428.55 338.80 423.68 345.81 418.58 352.59 C 409.38 366.63 399.06 379.99 390.97 394.73 C 405.09 396.25 419.32 397.50 433.18 400.73 C 437.64 401.94 442.51 402.98 445.98 406.25 C 447.30 407.46 445.89 409.18 444.74 409.84 C 438.28 413.87 430.54 414.77 423.20 416.13 C 395.65 420.50 367.76 421.91 339.94 423.32 C 307.98 424.87 275.99 425.30 244.00 425.18 C 224.66 425.35 205.35 424.40 186.01 424.22 C 156.35 423.12 126.68 421.77 97.15 418.73 C 86.45 417.33 75.71 416.14 65.17 413.82 C 61.09 412.56 56.35 411.94 53.34 408.61 C 52.39 406.11 55.07 404.74 56.87 403.75 C 61.26 401.69 66.06 400.76 70.78 399.78 C 84.78 396.94 99.05 395.91 113.25 394.59 C 120.16 394.26 127.03 393.29 133.97 393.48 C 131.14 387.70 127.13 382.62 123.97 377.03 C 119.80 370.08 116.19 362.81 112.49 355.60 C 109.32 349.35 105.00 343.80 100.86 338.18 C 97.65 333.96 97.36 328.45 96.37 323.43 C 95.61 317.93 94.18 312.55 93.24 307.08 C 92.49 303.19 93.58 299.30 94.53 295.55 C 99.11 279.32 106.61 264.04 110.66 247.65 C 113.64 235.88 112.78 223.55 115.59 211.76 C 116.91 201.78 126.43 195.95 129.69 186.76 C 132.86 177.62 135.80 168.37 139.49 159.41 C 143.06 151.79 149.61 146.24 154.52 139.55 C 162.21 129.63 169.75 119.54 178.73 110.73 C 187.64 102.30 196.39 93.65 205.88 85.88 Z" fill="#0d345a" opacity="1.00" stroke="#0d345a" stroke-width="0.25"/>
<path d="M 206.21 89.24 C 209.92 86.17 213.86 82.29 219.13 83.04 L 218.40 83.53 C 218.09 83.75 217.47 84.19 217.15 84.41 C 216.98 85.54 216.84 86.67 216.72 87.81 C 205.65 101.11 193.59 113.74 184.64 128.66 C 178.85 137.88 173.94 148.71 175.24 159.84 C 176.28 168.69 186.19 172.41 188.28 180.75 C 191.70 191.94 190.18 204.00 193.82 215.15 C 195.09 219.60 197.54 223.66 198.47 228.21 C 199.25 233.46 198.63 239.15 195.65 243.65 C 190.10 252.70 178.65 256.12 173.75 265.71 C 169.48 274.07 167.80 283.70 168.34 293.03 C 168.62 298.99 171.98 305.02 177.55 307.51 C 185.06 311.10 194.16 308.10 201.36 312.61 C 208.43 317.07 213.30 324.31 220.69 328.34 C 227.84 332.81 236.65 334.34 244.92 332.82 C 255.04 331.36 264.62 326.45 275.03 327.11 C 281.28 327.37 287.43 331.16 289.95 336.98 C 293.80 345.26 291.60 355.30 296.95 363.03 C 301.15 368.88 307.57 372.54 313.31 376.68 C 318.81 380.13 324.13 384.89 330.95 385.17 C 336.47 385.39 342.43 384.42 346.82 380.83 C 350.31 377.96 351.57 373.47 353.70 369.67 C 357.50 362.82 364.99 357.77 373.01 358.26 C 379.26 357.91 385.44 361.53 391.61 359.62 C 394.88 357.25 396.42 353.06 400.05 351.09 C 404.80 348.38 410.83 346.69 413.41 341.39 C 415.50 337.55 414.06 333.16 412.52 329.43 C 411.20 326.48 411.17 323.22 411.23 320.05 C 413.49 319.37 416.39 318.74 418.00 321.05 C 421.24 325.28 423.45 330.24 426.94 334.32 C 423.87 342.41 417.51 348.66 412.78 355.79 C 407.57 364.21 401.33 371.94 396.28 380.46 C 390.90 382.16 386.26 385.60 381.41 388.41 C 377.02 391.65 371.80 393.32 366.75 395.20 C 370.28 398.43 375.12 399.41 379.26 401.63 C 375.25 402.07 371.20 402.71 367.17 402.37 C 363.46 401.53 359.90 399.97 356.04 399.92 C 347.40 399.50 338.58 399.07 330.09 401.05 C 323.71 402.43 317.68 405.63 311.01 405.35 C 283.68 404.26 256.29 404.39 228.99 405.70 C 224.61 405.37 219.68 406.54 215.72 404.27 C 207.62 395.11 202.18 383.96 194.62 374.39 C 188.78 367.83 182.35 361.45 174.37 357.56 C 168.86 354.79 162.35 355.11 156.91 352.14 C 151.58 349.79 148.10 344.93 143.46 341.59 C 136.92 336.51 128.69 334.53 121.55 330.54 C 116.09 327.72 114.06 321.55 111.57 316.36 C 108.98 310.37 104.47 304.84 104.74 297.98 C 104.33 290.34 109.55 284.31 113.10 278.08 C 115.84 273.78 117.57 268.97 119.07 264.13 C 121.68 255.42 125.53 247.03 126.76 237.95 C 127.81 230.30 128.75 222.64 129.88 215.00 C 130.44 211.61 130.39 207.61 133.14 205.13 C 136.24 202.36 140.88 203.35 144.36 201.48 C 146.29 199.52 146.24 196.51 146.94 194.01 C 149.31 181.74 157.99 171.51 159.36 159.02 C 160.28 153.60 156.36 149.54 154.28 145.02 C 155.34 142.15 157.72 140.02 159.48 137.57 C 168.42 125.92 177.69 114.42 188.90 104.85 C 194.56 99.53 200.39 94.39 206.21 89.24 Z" fill="#49749f" opacity="1.00" stroke="#49749f" stroke-width="0.25"/>
<path d="M 217.15 84.41 C 217.47 84.19 218.09 83.75 218.40 83.53 C 235.36 93.66 252.98 102.99 268.02 115.94 C 277.51 124.17 287.03 132.38 297.14 139.85 C 303.62 144.60 309.96 149.87 314.28 156.74 C 317.30 161.20 319.41 166.17 322.03 170.86 C 324.50 175.58 328.96 178.69 333.06 181.88 C 338.33 185.51 344.41 188.71 350.99 188.48 C 355.68 188.34 360.64 187.89 364.97 190.08 C 369.31 191.75 372.00 195.71 374.70 199.26 C 381.23 208.59 386.27 218.90 390.38 229.51 C 393.50 238.31 397.03 247.06 402.03 254.98 C 412.01 268.90 421.68 283.12 429.97 298.10 C 429.96 298.56 429.93 299.47 429.91 299.93 C 424.43 297.11 419.16 293.84 413.37 291.66 C 408.80 289.58 403.74 288.37 399.69 285.31 C 393.56 280.16 393.38 271.41 388.79 265.22 C 385.13 259.51 378.81 256.01 372.28 254.69 C 366.35 253.51 359.58 252.51 355.64 247.38 C 352.62 243.55 353.15 238.39 353.76 233.88 C 354.69 226.76 355.82 219.11 352.71 212.35 C 350.82 207.62 346.15 204.00 341.04 203.62 C 332.55 202.90 325.62 210.01 317.06 208.94 C 313.80 208.87 312.15 205.60 310.87 203.07 C 306.96 194.21 305.76 184.33 301.24 175.70 C 298.36 170.53 295.36 164.96 289.95 162.02 C 281.89 156.98 272.07 157.68 262.99 157.69 C 257.68 157.85 251.79 155.51 249.94 150.14 C 246.65 140.80 248.96 130.32 244.79 121.17 C 238.72 107.54 224.73 100.06 216.72 87.81 C 216.84 86.67 216.98 85.54 217.15 84.41 Z" fill="#ffffff" opacity="1.00" stroke="#ffffff" stroke-width="0.25"/>
<path d="M 184.64 128.66 C 193.59 113.74 205.65 101.11 216.72 87.81 C 224.73 100.06 238.72 107.54 244.79 121.17 C 248.96 130.32 246.65 140.80 249.94 150.14 C 251.79 155.51 257.68 157.85 262.99 157.69 C 272.07 157.68 281.89 156.98 289.95 162.02 C 295.36 164.96 298.36 170.53 301.24 175.70 C 305.76 184.33 306.96 194.21 310.87 203.07 C 312.15 205.60 313.80 208.87 317.06 208.94 C 325.62 210.01 332.55 202.90 341.04 203.62 C 346.15 204.00 350.82 207.62 352.71 212.35 C 355.82 219.11 354.69 226.76 353.76 233.88 C 353.15 238.39 352.62 243.55 355.64 247.38 C 359.58 252.51 366.35 253.51 372.28 254.69 C 378.81 256.01 385.13 259.51 388.79 265.22 C 393.38 271.41 393.56 280.16 399.69 285.31 C 403.74 288.37 408.80 289.58 413.37 291.66 C 419.16 293.84 424.43 297.11 429.91 299.93 C 429.93 299.47 429.96 298.56 429.97 298.10 C 433.16 302.44 435.06 307.80 436.22 313.02 C 434.06 320.48 430.69 327.54 426.94 334.32 C 423.45 330.24 421.24 325.28 418.00 321.05 C 416.39 318.74 413.49 319.37 411.23 320.05 C 411.17 323.22 411.20 326.48 412.52 329.43 C 414.06 333.16 415.50 337.55 413.41 341.39 C 410.83 346.69 404.80 348.38 400.05 351.09 C 396.42 353.06 394.88 357.25 391.61 359.62 C 385.44 361.53 379.26 357.91 373.01 358.26 C 364.99 357.77 357.50 362.82 353.70 369.67 C 351.57 373.47 350.31 377.96 346.82 380.83 C 342.43 384.42 336.47 385.39 330.95 385.17 C 324.13 384.89 318.81 380.13 313.31 376.68 C 307.57 372.54 301.15 368.88 296.95 363.03 C 291.60 355.30 293.80 345.26 289.95 336.98 C 287.43 331.16 281.28 327.37 275.03 327.11 C 264.62 326.45 255.04 331.36 244.92 332.82 C 236.65 334.34 227.84 332.81 220.69 328.34 C 213.30 324.31 208.43 317.07 201.36 312.61 C 194.16 308.10 185.06 311.10 177.55 307.51 C 171.98 305.02 168.62 298.99 168.34 293.03 C 167.80 283.70 169.48 274.07 173.75 265.71 C 178.65 256.12 190.10 252.70 195.65 243.65 C 198.63 239.15 199.25 233.46 198.47 228.21 C 197.54 223.66 195.09 219.60 193.82 215.15 C 190.18 204.00 191.70 191.94 188.28 180.75 C 186.19 172.41 176.28 168.69 175.24 159.84 C 173.94 148.71 178.85 137.88 184.64 128.66 Z" fill="#a7e3fb" opacity="1.00" stroke="#a7e3fb" stroke-width="0.25"/>
<path d="M 213.29 171.98 C 215.72 173.55 216.68 176.43 218.23 178.74 C 221.82 184.39 225.51 190.02 230.02 194.99 C 234.30 200.04 238.61 205.50 244.83 208.22 C 249.14 210.51 253.88 211.92 258.03 214.51 C 245.38 216.55 232.53 222.24 225.24 233.24 C 221.09 239.38 219.37 246.81 215.19 252.95 C 216.68 239.68 219.36 226.38 218.03 212.97 C 216.52 199.30 215.39 185.58 213.29 171.98 Z" fill="#ffffff" opacity="1.00" stroke="#ffffff" stroke-width="0.25"/>
<path d="M 330.37 260.78 C 334.36 263.00 336.29 267.45 340.04 269.97 C 346.86 274.95 355.44 276.42 363.04 279.82 C 357.79 281.73 352.40 283.57 347.77 286.78 C 341.75 291.45 338.31 298.47 333.12 303.92 C 332.84 296.93 334.83 290.08 334.61 283.09 C 334.74 275.42 332.68 268.02 330.37 260.78 Z" fill="#ffffff" opacity="1.00" stroke="#ffffff" stroke-width="0.25"/>
<path d="M 381.41 388.41 C 386.26 385.60 390.90 382.16 396.28 380.46 C 391.64 387.87 387.11 395.34 382.71 402.89 C 381.54 402.51 380.37 402.13 379.26 401.63 C 375.12 399.41 370.28 398.43 366.75 395.20 C 371.80 393.32 377.02 391.65 381.41 388.41 Z" fill="#ffffff" opacity="1.00" stroke="#ffffff" stroke-width="0.25"/>
</svg>