<?xml version="1.0" encoding="utf-8"?>
<svg xmlns="http://www.w3.org/2000/svg" height="512pt" version="1.1" viewBox="0 0 512 512" width="512pt">
<path d="M 0.00 0.00 L 512.00 0.00 L 512.00 512.00 L 0.00 512.00 L 0.00 0.00 Z" fill="transparent" opacity="1.00" stroke="transparent" stroke-width="0.25"/>
<path d="M 314.58 95.95 C 310.54 89.99 307.32 81.45 311.99 74.96 C 315.68 78.42 318.95 82.75 323.99 84.31 C 333.61 88.42 344.16 81.60 353.75 85.94 C 358.57 87.69 361.47 92.29 362.97 96.96 C 368.33 94.87 373.46 91.10 379.43 91.41 C 379.39 94.15 379.01 96.86 378.50 99.55 C 383.97 96.81 389.44 93.87 395.42 92.40 C 395.82 93.57 396.14 94.75 396.40 95.96 C 395.45 101.81 391.85 106.72 388.52 111.45 C 397.15 118.49 402.18 128.64 408.80 137.38 C 412.18 141.93 416.89 145.18 421.04 148.97 C 427.51 154.81 429.67 165.24 425.04 172.84 C 422.88 177.55 417.94 180.37 412.90 180.81 C 403.40 182.13 394.10 177.91 386.96 171.90 C 382.32 167.77 376.19 165.77 370.02 165.82 C 365.59 166.01 361.33 164.60 357.57 162.34 C 351.70 175.91 347.19 190.27 345.89 205.06 C 345.39 209.72 346.65 214.37 348.72 218.52 C 351.89 225.14 351.74 232.64 351.55 239.81 C 359.60 240.08 368.13 239.99 375.52 243.65 C 379.37 245.65 382.35 249.23 383.41 253.47 C 386.13 263.48 385.52 274.03 384.46 284.24 C 387.23 286.21 389.96 288.42 391.55 291.51 C 396.71 300.97 399.41 311.49 403.12 321.55 C 405.80 329.12 408.09 336.82 410.22 344.56 C 410.69 346.50 410.68 348.52 410.77 350.51 C 401.48 351.76 392.32 348.85 383.43 346.54 C 383.30 336.71 381.94 326.80 377.94 317.74 C 374.12 327.19 369.04 336.42 361.42 343.33 C 359.91 344.64 356.29 347.18 355.55 343.95 C 353.67 334.25 351.54 324.60 348.30 315.25 C 353.59 311.46 357.17 305.76 358.83 299.51 C 344.66 296.53 330.87 291.85 317.85 285.50 C 316.71 284.69 315.54 285.84 314.52 286.27 C 295.20 297.70 274.20 306.05 252.79 312.65 C 247.36 314.22 241.91 315.76 236.35 316.83 C 236.16 329.42 234.44 342.10 230.10 353.97 C 227.18 362.39 223.14 370.42 220.78 379.03 C 218.06 389.75 221.24 400.67 223.44 411.18 C 223.93 413.10 224.08 415.79 226.44 416.35 C 247.03 416.13 267.63 416.25 288.23 416.26 C 266.63 416.74 245.02 416.16 223.43 416.63 C 217.51 415.31 211.43 416.25 205.43 416.23 C 204.37 408.86 203.69 401.41 203.88 393.96 C 204.88 369.88 211.99 346.18 209.77 321.95 C 209.35 315.34 207.96 308.46 203.79 303.12 C 201.70 300.26 198.70 298.24 196.46 295.53 C 196.46 294.58 196.56 293.64 196.76 292.72 C 198.40 292.52 200.14 292.50 201.61 293.40 C 207.29 296.02 210.78 301.50 214.04 306.58 C 223.27 309.75 233.38 309.35 242.74 306.95 C 257.31 303.27 271.42 298.00 285.28 292.24 C 293.48 288.56 301.70 284.85 309.27 279.98 C 297.59 273.42 286.97 263.05 284.07 249.53 C 285.19 249.42 286.31 249.31 287.43 249.21 C 292.35 256.89 298.04 264.40 306.14 268.96 C 320.02 277.11 336.53 277.18 352.03 279.15 C 356.56 279.49 360.63 281.85 363.30 285.50 C 366.29 291.93 366.57 299.55 364.19 306.22 C 362.73 310.41 359.49 313.55 357.17 317.23 C 359.13 321.02 362.13 324.15 364.71 327.52 C 369.67 319.42 372.48 310.17 374.03 300.85 C 375.43 290.99 376.22 280.78 373.77 271.03 C 372.71 266.24 368.43 263.02 364.03 261.44 C 351.95 257.17 338.87 257.76 326.51 254.77 C 324.08 254.39 322.38 252.65 321.01 250.75 C 326.39 247.87 332.64 248.90 338.43 249.42 C 341.80 240.41 340.49 230.22 335.95 221.86 C 334.15 218.28 330.67 215.30 331.16 210.91 C 334.43 211.65 336.81 214.01 338.96 216.43 C 338.31 210.36 338.02 204.21 338.93 198.15 C 341.07 184.19 345.54 170.65 351.53 157.87 C 346.88 151.76 345.04 143.65 347.03 136.19 C 347.63 133.65 350.29 132.76 352.27 131.56 C 352.21 138.99 351.80 147.68 357.74 153.21 C 361.83 157.83 368.28 158.49 374.06 158.15 C 382.52 157.92 388.92 164.11 395.41 168.60 C 401.04 172.81 408.63 173.84 415.35 172.13 C 419.97 169.98 420.32 164.01 419.13 159.70 C 417.45 155.12 413.12 152.44 409.64 149.36 C 399.08 140.57 394.57 126.73 384.25 117.73 C 381.10 114.83 377.40 112.65 373.75 110.46 C 370.87 113.25 367.60 117.71 363.03 115.61 C 365.88 110.36 370.12 105.94 372.23 100.28 C 368.17 102.04 364.08 103.86 360.48 106.46 C 357.85 108.29 355.30 110.42 352.17 111.32 C 348.57 110.56 352.06 107.10 352.46 105.07 C 336.76 106.66 322.17 114.12 310.36 124.37 C 302.48 130.51 296.14 138.32 290.39 146.43 C 283.72 156.37 278.65 167.24 272.78 177.64 C 265.97 190.80 257.40 203.45 245.50 212.54 C 227.23 226.92 204.42 233.56 182.14 238.83 C 169.42 241.61 156.92 247.25 147.87 256.82 C 141.42 263.22 137.23 271.94 136.75 281.05 C 136.41 288.71 137.67 296.49 140.72 303.55 C 146.84 318.15 156.54 330.82 164.35 344.51 C 171.95 357.84 179.93 371.37 183.27 386.51 C 185.36 396.56 188.16 406.45 189.97 416.55 C 187.25 416.67 184.55 416.93 181.84 417.16 C 179.48 405.32 177.26 393.41 173.83 381.83 C 166.07 359.46 151.98 340.17 140.20 319.86 C 136.30 313.38 133.55 306.30 130.07 299.60 C 123.03 315.16 121.88 332.98 112.58 347.57 C 106.43 358.29 94.63 366.21 82.00 365.71 C 73.97 365.89 66.01 362.22 60.87 356.07 C 58.34 353.30 56.23 349.90 56.29 346.02 C 61.01 347.01 65.03 350.31 69.96 350.46 C 74.42 350.77 79.31 349.79 82.49 346.42 C 86.34 342.76 88.10 337.60 89.15 332.53 C 73.32 334.94 56.58 327.55 47.97 314.03 C 47.26 312.95 46.95 311.67 47.31 310.42 C 50.67 310.33 53.70 312.02 56.91 312.75 C 66.47 315.27 77.63 312.80 84.44 305.41 C 90.05 299.26 89.99 290.30 94.29 283.41 C 101.38 270.03 117.66 264.62 132.02 265.43 C 136.19 258.36 141.21 251.75 147.54 246.47 C 156.62 238.79 167.82 234.00 179.29 231.18 C 191.27 228.21 203.32 225.28 214.87 220.85 C 228.11 215.58 240.98 208.70 251.31 198.75 C 244.24 199.11 237.06 196.82 231.84 191.99 C 230.42 190.80 229.98 188.93 229.29 187.31 C 234.48 187.82 239.65 190.39 244.90 188.69 C 250.60 187.64 254.18 182.69 256.91 178.01 C 248.65 173.91 244.34 164.80 243.05 156.05 C 242.40 151.68 240.57 147.58 239.94 143.21 C 244.99 143.04 250.44 143.98 255.01 141.22 C 261.42 137.44 265.39 130.64 272.02 127.11 C 261.76 122.24 254.51 110.93 255.87 99.44 C 259.88 101.25 262.73 105.05 267.10 106.16 C 273.66 107.81 280.09 104.82 285.74 101.76 C 294.46 96.93 304.67 94.96 314.58 95.95 Z" fill="#06355b" opacity="1.00" stroke="#06355b" stroke-width="0.25"/>
<path d="M 317.99 87.29 C 322.02 88.87 325.85 91.38 330.33 91.42 C 337.04 92.03 344.10 89.23 350.51 92.23 C 353.97 93.78 355.63 97.55 355.78 101.18 C 353.37 99.24 351.31 96.62 348.22 95.75 C 341.95 93.67 335.34 96.94 329.05 95.06 C 324.64 93.80 320.56 91.12 317.99 87.29 Z" fill="#f7ffff" opacity="1.00" stroke="#f7ffff" stroke-width="0.25"/>
<path d="M 360.48 106.46 C 364.08 103.86 368.17 102.04 372.23 100.28 C 370.12 105.94 365.88 110.36 363.03 115.61 C 367.60 117.71 370.87 113.25 373.75 110.46 C 377.40 112.65 381.10 114.83 384.25 117.73 C 394.57 126.73 399.08 140.57 409.64 149.36 C 413.12 152.44 417.45 155.12 419.13 159.70 C 420.32 164.01 419.97 169.98 415.35 172.13 C 408.63 173.84 401.04 172.81 395.41 168.60 C 388.92 164.11 382.52 157.92 374.06 158.15 C 368.28 158.49 361.83 157.83 357.74 153.21 C 351.80 147.68 352.21 138.99 352.27 131.56 C 350.29 132.76 347.63 133.65 347.03 136.19 C 345.04 143.65 346.88 151.76 351.53 157.87 C 345.54 170.65 341.07 184.19 338.93 198.15 C 338.02 204.21 338.31 210.36 338.96 216.43 C 336.81 214.01 334.43 211.65 331.16 210.91 C 330.67 215.30 334.15 218.28 335.95 221.86 C 340.49 230.22 341.80 240.41 338.43 249.42 C 332.64 248.90 326.39 247.87 321.01 250.75 C 322.38 252.65 324.08 254.39 326.51 254.77 C 338.87 257.76 351.95 257.17 364.03 261.44 C 368.43 263.02 372.71 266.24 373.77 271.03 C 376.22 280.78 375.43 290.99 374.03 300.85 C 372.48 294.54 367.98 289.71 363.30 285.50 C 360.63 281.85 356.56 279.49 352.03 279.15 C 336.53 277.18 320.02 277.11 306.14 268.96 C 298.04 264.40 292.35 256.89 287.43 249.21 C 286.31 249.31 285.19 249.42 284.07 249.53 C 286.97 263.05 297.59 273.42 309.27 279.98 C 301.70 284.85 293.48 288.56 285.28 292.24 C 271.42 298.00 257.31 303.27 242.74 306.95 C 233.38 309.35 223.27 309.75 214.04 306.58 C 210.78 301.50 207.29 296.02 201.61 293.40 C 200.14 292.50 198.40 292.52 196.76 292.72 C 196.56 293.64 196.46 294.58 196.46 295.53 C 198.70 298.24 201.70 300.26 203.79 303.12 C 207.96 308.46 209.35 315.34 209.77 321.95 C 211.99 346.18 204.88 369.88 203.88 393.96 C 203.69 401.41 204.37 408.86 205.43 416.23 C 200.28 416.34 195.12 416.39 189.97 416.55 C 188.16 406.45 185.36 396.56 183.27 386.51 C 179.93 371.37 171.95 357.84 164.35 344.51 C 156.54 330.82 146.84 318.15 140.72 303.55 C 137.67 296.49 136.41 288.71 136.75 281.05 C 137.23 271.94 141.42 263.22 147.87 256.82 C 156.92 247.25 169.42 241.61 182.14 238.83 C 204.42 233.56 227.23 226.92 245.50 212.54 C 257.40 203.45 265.97 190.80 272.78 177.64 C 278.65 167.24 283.72 156.37 290.39 146.43 C 296.14 138.32 302.48 130.51 310.36 124.37 C 322.17 114.12 336.76 106.66 352.46 105.07 C 352.06 107.10 348.57 110.56 352.17 111.32 C 355.30 110.42 357.85 108.29 360.48 106.46 Z" fill="#ffffff" opacity="1.00" stroke="#ffffff" stroke-width="0.25"/>
<path d="M 286.45 109.40 C 294.34 104.38 303.71 101.62 313.09 102.30 C 319.21 102.56 325.19 104.09 330.99 105.98 C 329.09 106.72 327.21 108.05 325.08 107.62 C 320.39 106.79 315.75 105.50 310.95 105.51 C 302.79 105.58 294.83 107.76 287.14 110.33 C 286.97 110.10 286.62 109.63 286.45 109.40 Z" fill="#f7ffff" opacity="1.00" stroke="#f7ffff" stroke-width="0.25"/>
<path d="M 305.87 110.06 C 310.73 109.30 315.78 110.03 320.29 111.98 C 316.30 113.10 312.12 112.18 308.07 112.88 C 297.49 113.91 287.91 120.36 277.06 119.39 C 272.69 118.53 268.10 116.41 265.78 112.43 C 270.46 113.48 275.09 115.07 279.96 114.85 C 288.87 115.06 297.17 111.32 305.87 110.06 Z" fill="#f8ffff" opacity="1.00" stroke="#f8ffff" stroke-width="0.25"/>
<path d="M 376.10 121.78 C 380.84 121.25 385.54 123.84 388.52 127.41 C 389.96 128.77 389.29 130.84 389.46 132.57 C 384.92 132.78 380.64 130.49 377.44 127.42 C 375.77 126.04 376.30 123.67 376.10 121.78 Z" fill="#073558" opacity="1.00" stroke="#073558" stroke-width="0.25"/>
<path d="M 259.97 143.52 C 270.77 131.70 286.45 124.24 302.63 125.10 C 300.92 126.87 299.20 128.62 297.59 130.47 C 291.07 130.28 284.79 132.37 278.79 134.69 C 272.28 137.14 266.79 141.81 259.97 143.52 Z" fill="#f7feff" opacity="1.00" stroke="#f7feff" stroke-width="0.25"/>
<path d="M 265.14 149.06 C 273.11 145.52 279.50 138.21 288.54 137.31 C 285.80 140.06 282.34 141.91 279.30 144.29 C 274.25 148.18 268.64 151.46 262.44 153.12 C 258.35 153.91 254.17 153.86 250.03 153.75 C 254.90 156.04 260.39 155.86 265.60 155.19 C 271.62 154.56 276.40 150.59 281.86 148.41 C 280.07 152.60 275.92 155.01 272.13 157.14 C 263.83 161.45 253.09 159.12 246.87 152.29 C 247.90 152.49 248.94 152.69 249.98 152.90 C 255.14 152.14 260.46 151.57 265.14 149.06 Z" fill="#f7ffff" opacity="1.00" stroke="#f7ffff" stroke-width="0.25"/>
<path d="M 250.03 153.75 C 254.17 153.86 258.35 153.91 262.44 153.12 C 263.23 153.63 264.81 154.67 265.60 155.19 C 260.39 155.86 254.90 156.04 250.03 153.75 Z" fill="#152d46" opacity="1.00" stroke="#152d46" stroke-width="0.25"/>
<path d="M 406.62 161.78 C 408.72 161.05 411.11 160.92 413.17 161.89 C 413.73 163.34 413.72 164.79 413.14 166.23 C 411.59 166.55 410.00 166.53 408.43 166.59 C 407.38 165.16 406.18 163.69 406.62 161.78 Z" fill="#0b2f48" opacity="1.00" stroke="#0b2f48" stroke-width="0.25"/>
<path d="M 249.88 163.17 C 252.85 164.74 255.59 167.04 259.05 167.40 C 264.09 168.32 269.03 166.67 273.80 165.26 C 272.45 167.84 271.21 170.91 268.37 172.16 C 260.98 174.57 252.81 170.16 249.88 163.17 Z" fill="#f8ffff" opacity="1.00" stroke="#f8ffff" stroke-width="0.25"/>
<path d="M 257.13 187.08 C 260.02 184.29 261.35 180.40 262.56 176.68 C 264.66 176.75 266.77 176.74 268.88 176.73 C 265.09 185.10 257.85 193.42 247.87 193.17 C 251.03 191.28 254.60 189.87 257.13 187.08 Z" fill="#f5ffff" opacity="1.00" stroke="#f5ffff" stroke-width="0.25"/>
<path d="M 103.75 282.79 C 108.71 278.31 115.17 274.29 122.11 274.80 C 115.26 277.87 108.32 281.61 103.80 287.81 C 98.12 295.33 97.19 305.60 90.31 312.32 C 86.24 316.22 80.33 318.92 74.64 317.41 C 79.67 315.61 85.06 313.85 88.54 309.52 C 95.94 301.96 95.86 290.01 103.75 282.79 Z" fill="#f5ffff" opacity="1.00" stroke="#f5ffff" stroke-width="0.25"/>
<path d="M 103.13 304.88 C 106.68 292.97 116.69 283.16 128.67 279.83 C 128.00 280.98 127.36 282.22 126.23 283.00 C 120.18 287.94 113.77 292.92 110.03 299.94 C 106.49 306.05 105.95 313.71 100.96 319.00 C 94.22 326.85 81.38 329.93 72.30 324.56 C 78.74 324.24 85.50 323.89 91.17 320.45 C 97.03 317.13 101.09 311.21 103.13 304.88 Z" fill="#f7ffff" opacity="1.00" stroke="#f7ffff" stroke-width="0.25"/>
<path d="M 363.30 285.50 C 367.98 289.71 372.48 294.54 374.03 300.85 C 372.48 310.17 369.67 319.42 364.71 327.52 C 362.13 324.15 359.13 321.02 357.17 317.23 C 359.49 313.55 362.73 310.41 364.19 306.22 C 366.57 299.55 366.29 291.93 363.30 285.50 Z" fill="#85e5fe" opacity="1.00" stroke="#85e5fe" stroke-width="0.25"/>
<path d="M 389.50 337.33 C 393.42 337.33 397.35 337.29 401.28 337.21 C 401.77 339.40 402.30 341.58 402.79 343.77 C 398.40 343.15 394.02 342.40 389.68 341.48 C 389.62 340.09 389.56 338.71 389.50 337.33 Z" fill="#8ae6fe" opacity="1.00" stroke="#8ae6fe" stroke-width="0.25"/>
<path d="M 86.20 351.15 C 92.06 348.31 95.92 342.93 100.59 338.62 C 98.98 349.77 87.04 357.83 76.07 356.50 C 73.27 356.48 70.81 355.06 68.66 353.39 C 74.59 354.27 80.85 354.20 86.20 351.15 Z" fill="#f4ffff" opacity="1.00" stroke="#f4ffff" stroke-width="0.25"/>
<path d="M 189.97 416.55 C 195.12 416.39 200.28 416.34 205.43 416.23 C 211.43 416.25 217.51 415.31 223.43 416.63 C 245.02 416.16 266.63 416.74 288.23 416.26 C 301.13 416.06 314.04 416.36 326.93 416.81 C 332.90 417.51 339.13 417.11 344.87 419.14 C 346.59 419.58 347.01 421.14 346.75 422.74 C 343.00 425.18 338.24 424.85 333.96 425.36 C 329.40 425.30 324.46 426.72 320.26 424.38 C 320.00 424.82 319.47 425.69 319.21 426.13 C 278.47 426.84 237.71 427.02 196.98 426.12 C 186.45 425.10 175.50 426.63 165.37 422.95 C 165.39 422.28 165.43 420.95 165.46 420.29 C 170.42 417.41 176.29 417.50 181.84 417.16 C 184.55 416.93 187.25 416.67 189.97 416.55 Z" fill="#55b2dc" opacity="1.00" stroke="#55b2dc" stroke-width="0.25"/>
</svg>