<?xml version="1.0" encoding="utf-8"?>
<svg xmlns="http://www.w3.org/2000/svg" height="512pt" version="1.1" viewBox="0 0 512 512" width="512pt">
<path d="M 0.00 0.00 L 512.00 0.00 L 512.00 512.00 L 0.00 512.00 L 0.00 0.00 Z" fill="transparent" opacity="1.00" stroke="transparent" stroke-width="0.25"/>
<path d="M 215.45 55.68 C 230.83 52.20 246.90 55.70 261.19 61.73 C 273.41 66.93 284.70 74.61 293.31 84.79 C 297.00 89.38 300.48 94.16 303.43 99.27 C 317.32 123.48 322.41 152.38 318.53 179.96 C 317.12 190.25 314.26 200.60 315.86 211.05 C 316.42 215.52 317.89 219.81 319.80 223.87 L 317.95 223.93 C 312.20 212.99 313.05 200.09 315.34 188.34 C 319.67 165.42 318.62 141.22 310.60 119.20 C 306.27 108.01 301.20 96.89 293.31 87.72 C 287.91 80.41 280.70 74.66 273.12 69.76 C 256.36 60.05 236.60 53.44 217.10 57.09 C 205.26 59.20 194.78 67.92 191.25 79.53 C 188.42 79.59 185.38 79.25 182.82 80.70 C 180.21 82.32 178.24 84.74 175.84 86.63 C 175.40 86.67 174.51 86.74 174.07 86.77 C 177.57 81.28 183.80 77.06 190.52 77.65 C 193.54 66.13 204.30 58.35 215.45 55.68 Z" fill="#02273c" opacity="1.00" stroke="#02273c" stroke-width="0.25"/>
<path d="M 217.10 57.09 C 236.60 53.44 256.36 60.05 273.12 69.76 C 280.70 74.66 287.91 80.41 293.31 87.72 C 301.20 96.89 306.27 108.01 310.60 119.20 C 318.62 141.22 319.67 165.42 315.34 188.34 C 313.05 200.09 312.20 212.99 317.95 223.93 C 319.54 227.00 321.98 229.49 324.20 232.11 C 321.64 233.57 319.00 235.08 316.01 235.41 C 312.23 236.02 308.61 234.41 305.01 233.52 C 302.08 240.23 298.99 246.93 294.80 252.96 C 292.19 256.11 289.89 259.56 286.62 262.10 C 286.63 255.13 285.60 248.20 283.58 241.53 C 283.15 240.30 282.60 238.58 280.98 238.61 C 276.17 237.77 271.27 237.64 266.40 237.46 C 266.43 231.08 265.87 224.66 266.54 218.31 C 268.21 215.97 271.12 214.97 273.40 213.34 C 285.10 205.41 292.90 192.68 296.52 179.18 C 299.22 171.06 298.35 162.38 298.20 153.98 C 296.99 143.78 294.05 133.83 290.85 124.09 C 290.18 120.75 286.56 119.95 283.82 118.98 C 276.79 116.94 269.57 115.60 262.35 114.45 C 262.62 116.59 263.00 118.73 263.54 120.83 C 258.81 125.02 252.05 123.61 246.42 122.57 C 238.25 121.33 230.59 117.82 223.60 113.52 C 219.10 110.91 216.48 106.28 212.79 102.77 C 211.52 109.71 212.24 117.00 209.62 123.66 C 207.90 127.92 205.46 131.99 202.10 135.17 C 199.42 137.76 195.66 138.61 192.63 140.65 C 191.28 142.85 191.85 145.59 191.90 148.03 C 193.26 161.63 195.13 175.16 197.50 188.61 C 197.96 198.81 200.72 208.77 200.57 219.02 C 200.88 232.87 198.32 246.52 196.17 260.14 C 191.43 257.24 187.99 252.78 184.17 248.84 C 181.48 246.15 179.89 241.87 175.85 240.96 C 175.61 242.54 175.38 244.13 175.15 245.72 C 172.49 245.56 169.81 245.36 167.18 244.87 C 162.71 242.93 157.97 241.13 154.51 237.55 C 147.62 230.96 145.40 221.12 144.40 212.00 C 143.14 198.03 148.36 184.68 154.19 172.29 C 160.08 159.74 161.63 145.80 162.45 132.11 C 163.69 117.92 165.78 103.32 173.17 90.86 C 173.01 90.38 172.68 89.42 172.51 88.94 L 172.40 88.63 C 172.89 88.02 173.37 87.40 173.87 86.79 L 174.07 86.77 C 174.51 86.74 175.40 86.67 175.84 86.63 C 178.24 84.74 180.21 82.32 182.82 80.70 C 185.38 79.25 188.42 79.59 191.25 79.53 C 194.78 67.92 205.26 59.20 217.10 57.09 Z" fill="#653a33" opacity="1.00" stroke="#653a33" stroke-width="0.25"/>
<path d="M 162.78 114.41 C 164.66 105.51 167.37 96.54 172.51 88.94 C 172.68 89.42 173.01 90.38 173.17 90.86 C 165.78 103.32 163.69 117.92 162.45 132.11 C 161.63 145.80 160.08 159.74 154.19 172.29 C 148.36 184.68 143.14 198.03 144.40 212.00 C 145.40 221.12 147.62 230.96 154.51 237.55 C 157.97 241.13 162.71 242.93 167.18 244.87 L 167.80 246.80 C 158.92 244.46 150.95 238.57 147.02 230.15 C 142.38 219.82 141.56 208.01 143.50 196.93 C 145.91 182.24 155.03 169.75 158.01 155.22 C 160.56 141.74 160.33 127.91 162.78 114.41 Z" fill="#082c43" opacity="1.00" stroke="#082c43" stroke-width="0.25"/>
<path d="M 303.43 99.27 C 338.58 109.60 370.27 131.33 392.53 160.43 C 395.79 165.09 399.32 169.57 402.45 174.32 C 411.52 189.94 419.91 206.42 423.26 224.31 C 422.03 222.38 420.18 221.26 417.86 221.42 C 415.64 225.44 414.09 229.80 411.47 233.60 C 407.88 239.22 402.26 243.05 397.04 247.00 C 392.13 250.51 388.46 255.65 386.55 261.35 C 384.67 266.63 385.17 272.35 383.89 277.76 C 380.98 291.45 379.05 305.31 376.97 319.13 C 364.67 302.06 352.69 284.78 340.26 267.81 C 332.79 258.37 325.08 248.58 314.42 242.58 C 311.57 240.88 308.31 240.13 305.06 239.65 C 305.25 238.45 305.43 237.26 305.62 236.07 C 313.35 238.85 322.75 237.47 328.14 230.88 C 324.85 229.21 321.70 227.13 319.80 223.87 C 317.89 219.81 316.42 215.52 315.86 211.05 C 314.26 200.60 317.12 190.25 318.53 179.96 C 322.41 152.38 317.32 123.48 303.43 99.27 Z" fill="#9ee9ff" opacity="1.00" stroke="#9ee9ff" stroke-width="0.25"/>
<path d="M 209.62 123.66 C 212.24 117.00 211.52 109.71 212.79 102.77 C 216.48 106.28 219.10 110.91 223.60 113.52 C 230.59 117.82 238.25 121.33 246.42 122.57 C 252.05 123.61 258.81 125.02 263.54 120.83 C 263.00 118.73 262.62 116.59 262.35 114.45 C 269.57 115.60 276.79 116.94 283.82 118.98 C 286.56 119.95 290.18 120.75 290.85 124.09 C 294.05 133.83 296.99 143.78 298.20 153.98 C 298.35 162.38 299.22 171.06 296.52 179.18 C 292.90 192.68 285.10 205.41 273.40 213.34 C 271.12 214.97 268.21 215.97 266.54 218.31 C 265.87 224.66 266.43 231.08 266.40 237.46 C 271.27 237.64 276.17 237.77 280.98 238.61 C 282.60 238.58 283.15 240.30 283.58 241.53 C 285.60 248.20 286.63 255.13 286.62 262.10 C 289.89 259.56 292.19 256.11 294.80 252.96 C 295.36 252.92 296.47 252.83 297.03 252.79 C 294.18 258.11 289.78 262.39 285.55 266.61 C 285.10 266.56 284.21 266.45 283.77 266.40 C 286.01 257.86 283.36 248.98 281.16 240.69 C 278.43 240.51 275.70 240.32 272.98 240.13 C 272.27 245.86 269.69 251.44 264.90 254.86 C 257.42 260.72 247.07 261.16 238.20 258.74 C 229.53 256.38 221.20 251.14 216.95 243.01 C 211.42 243.40 206.04 244.81 200.56 245.60 C 199.77 251.23 198.89 256.85 198.15 262.49 C 197.93 262.86 197.49 263.60 197.27 263.97 C 193.45 261.11 189.97 257.85 186.50 254.59 C 188.14 261.12 189.25 267.82 189.97 274.52 C 189.78 277.44 189.34 280.33 188.89 283.21 L 188.74 283.90 C 188.62 274.49 186.71 265.23 185.07 256.00 C 184.71 250.94 180.35 247.78 177.40 244.13 C 177.35 245.18 177.25 247.28 177.20 248.32 C 175.00 249.14 172.76 248.42 170.65 247.72 C 163.81 253.39 158.81 260.84 153.73 268.03 C 152.97 268.09 152.20 268.16 151.44 268.23 C 156.48 260.82 161.71 253.44 168.29 247.29 C 168.17 247.17 167.93 246.92 167.80 246.80 L 167.18 244.87 C 169.81 245.36 172.49 245.56 175.15 245.72 C 175.38 244.13 175.61 242.54 175.85 240.96 C 179.89 241.87 181.48 246.15 184.17 248.84 C 187.99 252.78 191.43 257.24 196.17 260.14 C 198.32 246.52 200.88 232.87 200.57 219.02 C 200.72 208.77 197.96 198.81 197.50 188.61 C 195.13 175.16 193.26 161.63 191.90 148.03 C 191.85 145.59 191.28 142.85 192.63 140.65 C 195.66 138.61 199.42 137.76 202.10 135.17 C 205.46 131.99 207.90 127.92 209.62 123.66 Z" fill="#222b37" opacity="1.00" stroke="#222b37" stroke-width="0.25"/>
<path d="M 214.47 108.64 C 224.16 118.31 237.52 123.85 251.01 125.35 C 255.94 125.69 261.64 125.79 265.52 122.24 C 266.37 120.49 265.30 118.74 264.49 117.21 C 272.57 117.86 280.52 119.82 288.09 122.68 C 293.37 137.19 297.60 152.63 296.27 168.21 C 295.14 184.40 287.32 200.33 274.30 210.22 C 264.30 217.72 251.47 221.52 239.01 220.05 C 224.87 218.81 211.82 211.60 201.76 201.82 C 201.01 200.72 201.06 199.28 200.79 198.03 C 199.52 186.95 197.52 175.98 195.95 164.94 C 195.04 157.27 193.64 149.55 194.37 141.79 C 201.87 139.75 207.65 133.44 210.67 126.46 C 213.26 120.89 214.17 114.73 214.47 108.64 Z" fill="#ffb494" opacity="1.00" stroke="#ffb494" stroke-width="0.25"/>
<path d="M 152.60 119.56 C 155.89 117.68 158.96 115.06 162.78 114.41 C 160.33 127.91 160.56 141.74 158.01 155.22 C 155.03 169.75 145.91 182.24 143.50 196.93 C 141.56 208.01 142.38 219.82 147.02 230.15 C 150.95 238.57 158.92 244.46 167.80 246.80 C 167.93 246.92 168.17 247.17 168.29 247.29 C 161.71 253.44 156.48 260.82 151.44 268.23 C 141.87 282.46 133.34 297.36 124.87 312.25 C 123.05 298.40 120.66 284.63 117.82 270.96 C 117.01 265.30 116.71 259.33 113.66 254.30 C 108.79 244.66 97.60 241.01 91.36 232.53 C 88.02 228.81 86.77 223.85 84.03 219.78 C 80.51 218.15 78.04 221.94 77.83 225.00 C 76.84 232.05 82.57 237.34 84.72 243.59 C 80.10 244.53 75.36 244.34 70.71 243.75 C 71.38 243.54 72.73 243.11 73.41 242.90 C 73.94 234.78 76.08 226.87 78.40 219.11 C 80.53 209.53 84.78 200.64 88.69 191.69 C 95.05 178.64 102.87 166.30 112.12 155.10 C 124.17 141.74 137.34 129.22 152.60 119.56 Z" fill="#9ee9ff" opacity="1.00" stroke="#9ee9ff" stroke-width="0.25"/>
<path d="M 254.04 130.94 C 260.71 128.35 268.03 129.10 275.03 129.25 C 278.91 129.58 283.24 129.56 286.40 132.19 L 284.71 132.41 C 274.51 129.93 263.63 129.52 253.53 132.68 C 253.24 135.23 253.30 138.21 256.27 139.03 C 261.62 139.98 266.99 137.75 272.41 138.15 C 272.20 138.46 271.77 139.09 271.56 139.41 C 267.43 140.25 263.19 140.64 258.98 140.81 C 256.15 141.04 252.97 139.68 251.89 136.93 C 251.69 134.85 251.67 131.79 254.04 130.94 Z" fill="#f3c3ac" opacity="1.00" stroke="#f3c3ac" stroke-width="0.25"/>
<path d="M 253.53 132.68 C 263.63 129.52 274.51 129.93 284.71 132.41 C 285.85 132.84 286.97 133.35 288.10 133.82 C 288.54 134.90 288.98 135.98 289.43 137.05 C 289.10 137.72 288.45 139.06 288.12 139.73 C 282.84 139.53 277.73 137.84 272.41 138.15 C 266.99 137.75 261.62 139.98 256.27 139.03 C 253.30 138.21 253.24 135.23 253.53 132.68 Z" fill="#073152" opacity="1.00" stroke="#073152" stroke-width="0.25"/>
<path d="M 199.93 144.99 C 209.00 138.81 220.01 134.49 231.14 135.60 C 234.39 136.14 235.08 139.41 234.61 142.20 C 231.94 144.66 228.27 143.73 225.01 143.66 C 218.07 143.21 210.91 145.16 205.28 149.26 C 203.61 150.31 201.95 151.96 199.81 151.59 C 197.15 150.44 197.72 146.33 199.93 144.99 Z" fill="#043154" opacity="1.00" stroke="#043154" stroke-width="0.25"/>
<path d="M 267.57 150.64 C 269.00 147.69 272.60 148.19 275.29 148.47 C 277.02 149.88 277.90 151.87 278.39 154.01 C 277.85 157.13 275.46 160.24 271.94 159.65 C 267.55 159.62 265.07 154.09 267.57 150.64 Z" fill="#192533" opacity="1.00" stroke="#192533" stroke-width="0.25"/>
<path d="M 245.08 150.37 C 245.58 150.34 246.57 150.27 247.07 150.23 L 247.26 150.80 C 249.29 156.71 251.81 162.45 254.20 168.22 C 254.99 169.99 255.60 171.84 255.89 173.77 C 255.01 173.99 254.12 174.19 253.23 174.36 C 249.38 175.00 245.50 175.51 241.67 176.24 C 241.56 175.81 241.35 174.95 241.24 174.52 C 244.26 173.94 247.30 173.49 250.32 172.95 C 251.46 172.74 252.60 172.54 253.75 172.34 C 252.53 169.37 251.29 166.41 250.07 163.44 C 248.42 159.08 246.66 154.76 245.08 150.37 Z" fill="#192533" opacity="1.00" stroke="#192533" stroke-width="0.25"/>
<path d="M 270.28 150.26 C 272.56 148.83 276.05 150.20 276.33 153.01 C 277.17 156.31 272.63 159.43 270.05 156.96 C 267.68 155.43 268.15 151.66 270.28 150.26 Z" fill="#023157" opacity="1.00" stroke="#023157" stroke-width="0.25"/>
<path d="M 247.26 150.80 C 250.13 151.02 250.09 154.12 250.91 156.19 C 251.94 160.25 255.17 163.78 254.20 168.22 C 251.81 162.45 249.29 156.71 247.26 150.80 Z" fill="#f3c3ac" opacity="1.00" stroke="#f3c3ac" stroke-width="0.25"/>
<path d="M 216.00 154.88 C 217.34 154.48 218.67 154.07 220.00 153.64 C 221.12 154.02 222.24 154.38 223.37 154.74 C 226.06 157.18 226.62 161.99 223.43 164.28 C 221.24 166.06 218.37 165.32 216.05 164.23 C 213.56 161.57 213.97 157.66 216.00 154.88 Z" fill="#06304f" opacity="1.00" stroke="#06304f" stroke-width="0.25"/>
<path d="M 250.07 163.44 C 251.29 166.41 252.53 169.37 253.75 172.34 C 252.60 172.54 251.46 172.74 250.32 172.95 C 251.54 169.77 249.64 166.65 250.07 163.44 Z" fill="#f3c3ac" opacity="1.00" stroke="#f3c3ac" stroke-width="0.25"/>
<path d="M 241.67 176.24 C 245.50 175.51 249.38 175.00 253.23 174.36 C 250.92 178.03 245.34 177.13 241.67 176.24 Z" fill="#f3c3ac" opacity="1.00" stroke="#f3c3ac" stroke-width="0.25"/>
<path d="M 255.68 182.75 C 260.20 181.80 264.77 181.03 269.38 180.60 C 269.86 184.15 269.85 187.74 269.27 191.28 L 268.87 191.66 C 267.56 192.89 266.30 194.21 265.36 195.75 C 265.70 194.26 264.48 193.15 263.08 193.12 C 259.33 192.99 255.79 194.43 252.13 194.94 C 247.12 195.66 242.10 196.41 237.03 196.66 L 237.32 198.20 C 235.09 196.46 233.52 194.01 232.69 191.32 C 232.39 189.91 231.11 187.97 232.94 187.11 C 235.02 186.87 237.13 186.98 239.22 186.94 C 237.21 187.25 235.20 187.49 233.18 187.71 C 233.19 188.10 233.19 188.88 233.20 189.26 C 241.70 192.19 251.64 193.39 259.80 188.83 C 262.48 187.70 264.43 185.53 265.83 183.03 C 263.71 183.26 261.61 183.55 259.51 183.84 C 258.23 183.48 256.95 183.12 255.68 182.75 Z" fill="#083255" opacity="1.00" stroke="#083255" stroke-width="0.25"/>
<path d="M 229.43 186.59 C 238.16 185.19 246.92 183.85 255.68 182.75 C 256.95 183.12 258.23 183.48 259.51 183.84 C 252.77 185.02 245.99 185.95 239.22 186.94 C 237.13 186.98 235.02 186.87 232.94 187.11 C 231.11 187.97 232.39 189.91 232.69 191.32 C 233.52 194.01 235.09 196.46 237.32 198.20 C 241.29 201.94 246.31 205.31 252.02 204.86 C 257.83 204.90 263.10 200.99 265.36 195.75 C 266.30 194.21 267.56 192.89 268.87 191.66 C 267.64 198.45 262.41 204.25 255.83 206.28 C 247.17 208.36 238.75 203.47 233.75 196.64 C 231.85 193.50 230.72 189.99 229.43 186.59 Z" fill="#192533" opacity="1.00" stroke="#192533" stroke-width="0.25"/>
<path d="M 259.51 183.84 C 261.61 183.55 263.71 183.26 265.83 183.03 C 264.43 185.53 262.48 187.70 259.80 188.83 C 251.64 193.39 241.70 192.19 233.20 189.26 C 233.19 188.88 233.19 188.10 233.18 187.71 C 235.20 187.49 237.21 187.25 239.22 186.94 C 245.99 185.95 252.77 185.02 259.51 183.84 Z" fill="#fbffff" opacity="1.00" stroke="#fbffff" stroke-width="0.25"/>
<path d="M 252.13 194.94 C 255.79 194.43 259.33 192.99 263.08 193.12 C 264.48 193.15 265.70 194.26 265.36 195.75 C 263.10 200.99 257.83 204.90 252.02 204.86 C 246.31 205.31 241.29 201.94 237.32 198.20 L 237.03 196.66 C 242.10 196.41 247.12 195.66 252.13 194.94 Z" fill="#fcfefe" opacity="1.00" stroke="#fcfefe" stroke-width="0.25"/>
<path d="M 233.75 196.64 C 238.75 203.47 247.17 208.36 255.83 206.28 L 256.99 206.99 C 253.71 209.15 249.50 208.19 245.93 207.36 C 240.72 206.15 236.16 202.78 233.25 198.34 L 233.75 196.64 Z" fill="#f3c3ac" opacity="1.00" stroke="#f3c3ac" stroke-width="0.25"/>
<path d="M 202.37 205.24 C 209.43 212.16 218.31 217.00 227.58 220.26 C 227.74 226.66 227.79 233.06 227.53 239.46 C 218.72 239.64 210.23 242.40 201.47 242.75 C 202.42 235.52 202.55 228.21 203.17 220.96 C 202.53 215.74 202.48 210.49 202.37 205.24 Z" fill="#633831" opacity="1.00" stroke="#633831" stroke-width="0.25"/>
<path d="M 229.61 220.35 C 241.07 223.27 253.29 222.63 264.29 218.27 C 264.49 227.70 263.96 237.15 264.49 246.57 L 265.73 246.22 C 265.19 247.83 265.60 249.89 264.15 251.07 C 260.49 254.20 255.94 256.69 251.02 256.77 C 247.19 256.83 243.36 256.81 239.54 257.14 C 231.12 255.14 223.16 250.16 218.69 242.61 C 221.71 242.03 224.75 241.56 227.82 241.33 C 227.47 243.17 227.89 244.78 229.08 246.17 C 230.04 243.89 229.73 241.41 229.73 239.01 C 229.67 232.79 229.80 226.57 229.61 220.35 Z" fill="#ffb494" opacity="1.00" stroke="#ffb494" stroke-width="0.25"/>
<path d="M 77.83 225.00 C 78.04 221.94 80.51 218.15 84.03 219.78 C 86.77 223.85 88.02 228.81 91.36 232.53 C 97.60 241.01 108.79 244.66 113.66 254.30 C 116.71 259.33 117.01 265.30 117.82 270.96 C 120.66 284.63 123.05 298.40 124.87 312.25 C 133.34 297.36 141.87 282.46 151.44 268.23 C 152.20 268.16 152.97 268.09 153.73 268.03 C 144.09 282.56 135.25 297.61 126.70 312.81 C 126.38 313.36 125.73 314.46 125.40 315.01 C 125.70 317.85 126.11 320.69 126.53 323.52 C 125.98 324.44 125.44 325.37 124.91 326.31 C 122.76 311.36 121.01 296.33 117.98 281.53 C 117.38 276.95 115.93 272.52 115.52 267.92 C 115.04 262.71 113.78 257.41 110.85 253.01 C 105.97 246.21 98.19 242.47 92.45 236.54 C 88.06 232.30 85.53 226.65 82.78 221.31 C 82.27 221.33 81.25 221.38 80.74 221.40 C 78.83 225.53 79.52 230.34 81.92 234.12 C 83.87 237.63 86.39 241.10 86.69 245.23 C 76.50 247.36 66.11 245.18 56.11 243.09 C 51.35 242.25 46.84 240.25 41.98 240.01 C 43.88 241.55 46.15 242.48 48.44 243.28 C 53.78 245.18 58.97 247.52 64.44 249.07 C 65.88 249.49 68.24 249.95 67.41 252.01 C 61.42 250.41 55.68 248.04 49.88 245.87 C 46.22 244.52 42.63 242.43 38.59 242.75 C 43.01 246.69 48.79 248.61 53.99 251.29 C 57.69 253.21 61.82 254.20 65.44 256.24 C 65.57 256.67 65.83 257.53 65.95 257.95 C 60.28 256.42 54.94 253.87 49.66 251.33 C 45.99 249.65 42.59 246.89 38.34 247.04 C 39.57 248.69 40.94 250.24 42.55 251.54 C 54.41 261.30 68.47 268.18 83.14 272.56 C 89.16 274.13 95.69 275.80 101.76 273.56 C 101.77 274.14 101.79 275.30 101.79 275.89 C 97.03 276.85 92.14 276.45 87.40 275.58 C 86.38 291.06 85.71 306.57 84.55 322.05 C 83.74 340.37 81.83 359.01 85.80 377.12 C 87.43 383.71 89.79 391.32 96.36 394.55 C 103.19 397.09 110.91 395.59 117.15 392.14 C 124.85 387.84 130.65 381.04 136.39 374.50 C 152.31 354.96 166.44 334.04 180.74 313.30 C 181.28 313.36 182.38 313.48 182.93 313.54 C 179.23 319.08 175.18 324.40 171.57 330.01 C 171.66 331.77 172.11 333.55 172.89 335.15 C 174.94 336.78 178.41 336.13 180.05 334.12 C 184.95 328.88 186.28 321.45 187.56 314.64 C 189.20 304.27 189.68 293.69 188.89 283.21 C 189.34 280.33 189.78 277.44 189.97 274.52 C 191.58 286.62 191.54 298.93 190.10 311.04 C 188.93 319.38 187.23 328.13 181.97 334.96 C 179.73 337.72 176.02 338.09 172.75 337.47 C 173.22 339.66 173.56 341.87 173.82 344.10 C 173.36 343.95 172.45 343.64 172.00 343.49 C 171.20 339.65 170.66 335.77 170.08 331.89 C 163.08 342.20 155.70 352.25 148.32 362.30 C 139.92 373.08 131.66 384.40 120.36 392.34 C 114.04 396.56 106.09 398.78 98.55 397.19 C 94.29 396.23 90.56 393.38 88.50 389.54 C 84.46 382.38 82.90 374.11 82.09 366.02 C 81.04 353.67 81.46 341.26 82.22 328.92 C 83.27 310.95 84.69 293.00 85.49 275.01 C 79.51 273.57 73.70 271.49 68.04 269.08 C 60.18 265.61 52.57 261.45 45.70 256.26 C 42.18 253.66 38.29 251.04 36.38 246.94 C 36.98 246.52 38.16 245.68 38.76 245.26 C 37.91 244.23 37.26 243.10 37.34 241.74 C 38.10 241.46 39.62 240.92 40.37 240.65 C 40.43 240.10 40.54 239.00 40.59 238.45 C 42.35 238.11 44.15 238.09 45.89 238.58 C 54.08 240.65 62.28 242.86 70.71 243.75 C 75.36 244.34 80.10 244.53 84.72 243.59 C 82.57 237.34 76.84 232.05 77.83 225.00 Z" fill="#1e3140" opacity="1.00" stroke="#1e3140" stroke-width="0.25"/>
<path d="M 80.74 221.40 C 81.25 221.38 82.27 221.33 82.78 221.31 C 85.53 226.65 88.06 232.30 92.45 236.54 C 98.19 242.47 105.97 246.21 110.85 253.01 C 113.78 257.41 115.04 262.71 115.52 267.92 C 115.93 272.52 117.38 276.95 117.98 281.53 C 116.82 289.26 119.45 296.82 120.48 304.42 C 122.41 318.90 124.87 333.38 125.28 348.01 C 125.63 351.75 124.14 356.23 127.13 359.22 C 127.37 359.54 127.84 360.18 128.08 360.50 C 128.33 360.21 128.84 359.63 129.09 359.33 C 131.26 357.52 130.48 354.45 130.50 351.98 C 129.89 345.34 129.22 338.70 128.87 332.04 C 128.62 325.58 127.12 319.26 126.70 312.81 C 135.25 297.61 144.09 282.56 153.73 268.03 C 158.81 260.84 163.81 253.39 170.65 247.72 C 172.76 248.42 175.00 249.14 177.20 248.32 C 177.25 247.28 177.35 245.18 177.40 244.13 C 180.35 247.78 184.71 250.94 185.07 256.00 C 186.71 265.23 188.62 274.49 188.74 283.90 C 186.85 290.25 188.16 296.89 187.48 303.38 C 187.08 307.12 186.88 310.91 187.56 314.64 C 186.28 321.45 184.95 328.88 180.05 334.12 C 178.41 336.13 174.94 336.78 172.89 335.15 C 172.11 333.55 171.66 331.77 171.57 330.01 C 175.18 324.40 179.23 319.08 182.93 313.54 C 182.38 313.48 181.28 313.36 180.74 313.30 C 166.44 334.04 152.31 354.96 136.39 374.50 C 130.65 381.04 124.85 387.84 117.15 392.14 C 110.91 395.59 103.19 397.09 96.36 394.55 C 89.79 391.32 87.43 383.71 85.80 377.12 C 81.83 359.01 83.74 340.37 84.55 322.05 C 85.71 306.57 86.38 291.06 87.40 275.58 C 92.14 276.45 97.03 276.85 101.79 275.89 C 101.79 275.30 101.77 274.14 101.76 273.56 C 95.69 275.80 89.16 274.13 83.14 272.56 C 68.47 268.18 54.41 261.30 42.55 251.54 C 40.94 250.24 39.57 248.69 38.34 247.04 C 42.59 246.89 45.99 249.65 49.66 251.33 C 54.94 253.87 60.28 256.42 65.95 257.95 C 65.83 257.53 65.57 256.67 65.44 256.24 C 61.82 254.20 57.69 253.21 53.99 251.29 C 58.06 249.19 61.94 252.38 65.87 253.24 C 66.25 252.93 67.03 252.32 67.41 252.01 C 68.24 249.95 65.88 249.49 64.44 249.07 C 63.71 248.06 62.98 247.07 62.25 246.07 C 69.75 247.22 77.39 247.72 84.97 247.15 C 85.40 246.67 86.26 245.71 86.69 245.23 C 86.39 241.10 83.87 237.63 81.92 234.12 C 79.52 230.34 78.83 225.53 80.74 221.40 Z" fill="#ffb494" opacity="1.00" stroke="#ffb494" stroke-width="0.25"/>
<path d="M 411.47 233.60 C 414.09 229.80 415.64 225.44 417.86 221.42 C 420.18 221.26 422.03 222.38 423.26 224.31 C 423.61 225.60 423.81 226.93 423.96 228.27 C 424.23 235.03 419.00 240.04 417.27 246.26 C 420.65 246.52 424.04 246.67 427.43 246.43 C 438.51 245.42 449.24 242.45 460.07 240.04 C 460.59 240.27 461.63 240.73 462.16 240.97 C 462.20 241.49 462.29 242.53 462.33 243.05 C 463.71 243.06 464.77 243.67 465.50 244.87 C 464.98 245.70 464.46 246.53 463.95 247.37 C 467.00 249.21 464.22 251.95 462.46 253.48 C 452.74 261.90 441.42 268.43 429.48 273.15 C 425.53 274.65 421.53 276.08 417.42 277.11 C 417.89 299.49 420.20 321.79 420.81 344.17 C 421.01 348.78 421.27 353.40 420.87 358.02 C 420.68 368.50 419.78 379.26 415.46 388.95 C 413.63 393.81 409.43 398.05 404.14 398.79 C 395.53 400.54 386.79 397.27 379.93 392.16 C 367.41 382.40 357.39 369.93 347.15 357.90 C 340.09 349.13 332.97 340.39 325.79 331.71 C 325.39 335.06 324.88 338.40 324.28 341.73 L 322.39 341.66 C 325.18 327.92 324.20 313.11 317.68 300.52 C 314.42 293.65 308.67 287.92 307.49 280.15 C 305.45 267.38 306.35 254.32 307.80 241.53 C 306.48 241.41 305.16 241.29 303.85 241.18 C 301.69 245.11 299.72 249.19 297.03 252.79 C 296.47 252.83 295.36 252.92 294.80 252.96 C 298.99 246.93 302.08 240.23 305.01 233.52 C 308.61 234.41 312.23 236.02 316.01 235.41 C 319.00 235.08 321.64 233.57 324.20 232.11 C 321.98 229.49 319.54 227.00 317.95 223.93 L 319.80 223.87 C 321.70 227.13 324.85 229.21 328.14 230.88 C 322.75 237.47 313.35 238.85 305.62 236.07 C 305.43 237.26 305.25 238.45 305.06 239.65 C 308.31 240.13 311.57 240.88 314.42 242.58 C 325.08 248.58 332.79 258.37 340.26 267.81 C 352.69 284.78 364.67 302.06 376.97 319.13 C 379.05 305.31 380.98 291.45 383.89 277.76 C 385.17 272.35 384.67 266.63 386.55 261.35 C 388.46 255.65 392.13 250.51 397.04 247.00 C 402.26 243.05 407.88 239.22 411.47 233.60 Z" fill="#192533" opacity="1.00" stroke="#192533" stroke-width="0.25"/>
<path d="M 419.20 223.26 C 421.83 223.69 421.87 226.97 422.13 229.03 C 421.94 235.82 416.08 240.80 415.31 247.48 C 420.27 248.74 425.38 248.35 430.44 248.14 C 434.83 248.70 439.25 248.18 443.55 247.22 C 442.93 248.12 442.32 249.02 441.71 249.93 L 441.51 250.22 C 439.01 250.93 436.54 251.70 434.07 252.50 C 434.23 252.98 434.56 253.94 434.72 254.42 C 437.11 253.48 439.54 252.68 442.03 252.06 C 442.66 253.18 443.30 254.31 443.93 255.44 C 441.45 256.50 438.87 257.29 436.42 258.40 C 436.34 258.82 436.17 259.65 436.09 260.07 C 444.20 257.95 451.59 253.80 459.09 250.18 C 460.57 249.48 462.23 248.82 463.83 249.64 C 459.84 253.83 455.21 257.32 450.31 260.36 C 440.40 266.93 429.47 271.92 418.03 275.14 C 412.46 276.84 406.39 277.38 400.76 275.64 C 400.66 276.09 400.44 276.99 400.34 277.44 L 400.06 278.76 C 405.00 280.86 410.48 280.12 415.70 280.23 C 415.75 281.93 415.89 283.65 415.72 285.36 C 414.26 292.74 415.25 300.25 415.42 307.69 C 415.58 311.83 415.46 316.16 417.60 319.89 C 418.99 333.84 419.08 347.94 418.85 361.97 C 418.38 372.18 417.29 382.90 411.92 391.84 C 408.86 396.84 402.36 397.87 396.99 397.27 C 387.98 396.54 380.46 390.82 373.99 384.98 C 356.20 367.82 341.63 347.74 325.74 328.88 C 326.44 314.85 321.35 301.01 313.27 289.69 C 309.85 284.82 308.95 278.74 308.46 272.95 C 307.93 262.78 308.21 252.54 309.66 242.44 C 315.30 244.58 320.34 248.17 324.56 252.46 C 334.37 261.86 341.95 273.21 349.94 284.12 C 357.78 295.28 365.61 306.44 373.58 317.50 C 374.99 319.42 377.28 321.27 376.47 323.95 C 374.70 336.74 373.35 349.63 373.79 362.56 C 374.27 362.60 375.24 362.68 375.73 362.72 C 375.20 350.44 376.45 338.19 378.07 326.04 C 380.25 308.63 382.76 291.25 386.36 274.08 C 386.64 265.34 388.96 255.90 396.00 250.10 C 402.84 244.67 410.51 239.61 414.73 231.69 C 416.34 228.95 417.11 225.70 419.20 223.26 Z" fill="#ffb494" opacity="1.00" stroke="#ffb494" stroke-width="0.25"/>
<path d="M 423.96 228.27 C 425.52 230.91 425.72 234.02 426.24 236.97 C 426.72 240.11 427.69 243.22 427.43 246.43 C 424.04 246.67 420.65 246.52 417.27 246.26 C 419.00 240.04 424.23 235.03 423.96 228.27 Z" fill="#97e5f9" opacity="1.00" stroke="#97e5f9" stroke-width="0.25"/>
<path d="M 41.98 240.01 C 46.84 240.25 51.35 242.25 56.11 243.09 C 66.11 245.18 76.50 247.36 86.69 245.23 C 86.26 245.71 85.40 246.67 84.97 247.15 C 77.39 247.72 69.75 247.22 62.25 246.07 C 62.98 247.07 63.71 248.06 64.44 249.07 C 58.97 247.52 53.78 245.18 48.44 243.28 C 46.15 242.48 43.88 241.55 41.98 240.01 Z" fill="#f3c3ac" opacity="1.00" stroke="#f3c3ac" stroke-width="0.25"/>
<path d="M 266.26 240.03 C 267.89 240.13 269.53 240.23 271.18 240.33 C 270.29 245.22 268.22 250.10 264.15 253.16 C 257.31 258.62 247.77 259.40 239.54 257.14 C 243.36 256.81 247.19 256.83 251.02 256.77 C 255.94 256.69 260.49 254.20 264.15 251.07 C 265.60 249.89 265.19 247.83 265.73 246.22 C 266.29 244.20 266.26 242.10 266.26 240.03 Z" fill="#f0c0a3" opacity="1.00" stroke="#f0c0a3" stroke-width="0.25"/>
<path d="M 430.44 248.14 C 440.46 246.72 450.23 244.01 460.14 242.00 C 460.06 243.60 458.42 243.73 457.26 244.19 C 451.94 245.74 447.08 248.52 441.71 249.93 C 442.32 249.02 442.93 248.12 443.55 247.22 C 439.25 248.18 434.83 248.70 430.44 248.14 Z" fill="#f3c3ac" opacity="1.00" stroke="#f3c3ac" stroke-width="0.25"/>
<path d="M 38.59 242.75 C 42.63 242.43 46.22 244.52 49.88 245.87 C 55.68 248.04 61.42 250.41 67.41 252.01 C 67.03 252.32 66.25 252.93 65.87 253.24 C 61.94 252.38 58.06 249.19 53.99 251.29 C 48.79 248.61 43.01 246.69 38.59 242.75 Z" fill="#ecbda1" opacity="1.00" stroke="#ecbda1" stroke-width="0.25"/>
<path d="M 441.91 251.84 C 448.76 249.83 455.14 246.34 462.11 244.73 L 463.96 244.95 C 462.89 246.24 461.67 247.43 460.05 247.98 C 454.56 250.21 449.43 253.21 443.93 255.44 C 443.30 254.31 442.66 253.18 442.03 252.06 L 441.91 251.84 Z" fill="#e9b699" opacity="1.00" stroke="#e9b699" stroke-width="0.25"/>
<path d="M 68.04 269.08 C 73.70 271.49 79.51 273.57 85.49 275.01 C 84.69 293.00 83.27 310.95 82.22 328.92 C 79.84 327.65 79.90 324.79 79.10 322.55 C 73.99 306.06 70.86 288.77 71.47 271.45 C 70.33 270.65 69.19 269.86 68.04 269.08 Z" fill="#9be8fe" opacity="1.00" stroke="#9be8fe" stroke-width="0.25"/>
<path d="M 417.42 277.11 C 421.53 276.08 425.53 274.65 429.48 273.15 C 428.80 289.87 426.27 306.57 421.55 322.66 C 419.25 329.64 421.01 337.01 420.81 344.17 C 420.20 321.79 417.89 299.49 417.42 277.11 Z" fill="#9ae8fe" opacity="1.00" stroke="#9ae8fe" stroke-width="0.25"/>
<path d="M 400.34 277.44 C 405.33 279.21 410.66 278.63 415.75 277.67 C 415.74 278.31 415.71 279.59 415.70 280.23 C 410.48 280.12 405.00 280.86 400.06 278.76 L 400.34 277.44 Z" fill="#edbca9" opacity="1.00" stroke="#edbca9" stroke-width="0.25"/>
<path d="M 117.98 281.53 C 121.01 296.33 122.76 311.36 124.91 326.31 C 126.38 337.21 127.27 348.21 127.13 359.22 C 124.14 356.23 125.63 351.75 125.28 348.01 C 124.87 333.38 122.41 318.90 120.48 304.42 C 119.45 296.82 116.82 289.26 117.98 281.53 Z" fill="#f3c3ac" opacity="1.00" stroke="#f3c3ac" stroke-width="0.25"/>
<path d="M 188.74 283.90 L 188.89 283.21 C 189.68 293.69 189.20 304.27 187.56 314.64 C 186.88 310.91 187.08 307.12 187.48 303.38 C 188.16 296.89 186.85 290.25 188.74 283.90 Z" fill="#e5b9a8" opacity="1.00" stroke="#e5b9a8" stroke-width="0.25"/>
<path d="M 415.72 285.36 C 416.43 289.90 416.20 294.50 416.53 299.07 C 416.76 306.01 417.68 312.93 417.60 319.89 C 415.46 316.16 415.58 311.83 415.42 307.69 C 415.25 300.25 414.26 292.74 415.72 285.36 Z" fill="#edbba9" opacity="1.00" stroke="#edbba9" stroke-width="0.25"/>
<path d="M 125.40 315.01 C 125.73 314.46 126.38 313.36 126.70 312.81 C 127.12 319.26 128.62 325.58 128.87 332.04 C 129.22 338.70 129.89 345.34 130.50 351.98 C 130.48 354.45 131.26 357.52 129.09 359.33 C 129.49 347.35 128.07 335.38 126.53 323.52 C 126.11 320.69 125.70 317.85 125.40 315.01 Z" fill="#f3c3ac" opacity="1.00" stroke="#f3c3ac" stroke-width="0.25"/>
<path d="M 124.91 326.31 C 125.44 325.37 125.98 324.44 126.53 323.52 C 128.07 335.38 129.49 347.35 129.09 359.33 C 128.84 359.63 128.33 360.21 128.08 360.50 C 127.84 360.18 127.37 359.54 127.13 359.22 C 127.27 348.21 126.38 337.21 124.91 326.31 Z" fill="#392e2b" opacity="1.00" stroke="#392e2b" stroke-width="0.25"/>
<path d="M 148.32 362.30 C 155.70 352.25 163.08 342.20 170.08 331.89 C 170.66 335.77 171.20 339.65 172.00 343.49 C 176.74 372.52 181.92 402.28 176.34 431.59 C 158.34 423.41 141.84 412.13 127.42 398.63 C 125.22 396.36 123.03 394.06 120.36 392.34 C 131.66 384.40 139.92 373.08 148.32 362.30 Z" fill="#9ee9ff" opacity="1.00" stroke="#9ee9ff" stroke-width="0.25"/>
<path d="M 325.79 331.71 C 332.97 340.39 340.09 349.13 347.15 357.90 C 357.39 369.93 367.41 382.40 379.93 392.16 C 363.25 409.47 343.31 423.95 320.89 432.84 C 318.15 419.73 314.88 406.44 315.93 392.95 C 317.15 375.65 320.71 358.65 324.28 341.73 C 324.88 338.40 325.39 335.06 325.79 331.71 Z" fill="#9de9ff" opacity="1.00" stroke="#9de9ff" stroke-width="0.25"/>
<path d="M 322.39 341.66 L 324.28 341.73 C 320.71 358.65 317.15 375.65 315.93 392.95 C 314.88 406.44 318.15 419.73 320.89 432.84 C 321.06 433.65 321.24 434.47 321.43 435.29 C 317.73 437.70 313.37 438.72 309.24 440.15 C 285.06 448.13 259.21 448.87 234.02 447.00 C 234.79 446.42 235.56 445.84 236.33 445.27 C 264.39 447.60 293.42 445.41 319.61 434.41 C 316.59 422.82 314.26 410.94 313.80 398.95 C 314.34 379.58 318.59 360.59 322.39 341.66 Z" fill="#082c43" opacity="1.00" stroke="#082c43" stroke-width="0.25"/>
<path d="M 172.00 343.49 C 172.45 343.64 173.36 343.95 173.82 344.10 C 178.57 373.32 184.13 403.52 177.65 432.93 C 191.09 437.73 205.02 441.17 219.11 443.37 C 223.81 443.93 228.50 444.95 233.25 444.67 C 233.70 445.32 233.63 446.11 233.57 446.87 C 213.97 445.15 194.48 441.01 176.04 434.16 C 176.11 433.52 176.26 432.23 176.34 431.59 C 181.92 402.28 176.74 372.52 172.00 343.49 Z" fill="#02273c" opacity="1.00" stroke="#02273c" stroke-width="0.25"/>
</svg>