<?xml version="1.0" encoding="utf-8"?>
<svg xmlns="http://www.w3.org/2000/svg" height="512pt" version="1.1" viewBox="0 0 512 512" width="512pt">
<path d="M 0.00 0.00 L 512.00 0.00 L 512.00 512.00 L 0.00 512.00 L 0.00 0.00 Z" fill="transparent" opacity="1.00" stroke="transparent" stroke-width="0.25"/>
<path d="M 336.47 33.31 C 337.51 33.34 338.55 33.38 339.59 33.42 C 341.17 42.27 339.59 51.38 337.85 60.10 C 336.84 62.13 339.63 62.63 341.01 62.52 C 352.10 63.05 362.02 69.76 368.22 78.71 C 374.09 87.29 379.23 97.31 378.36 108.01 C 378.34 112.09 376.00 115.88 376.56 119.99 C 378.03 124.26 381.97 127.13 383.36 131.46 C 386.71 139.35 385.27 148.51 381.05 155.78 C 378.33 160.01 378.25 165.19 378.85 170.02 C 379.75 177.27 380.17 184.94 377.33 191.85 C 374.75 199.10 368.79 205.14 361.46 207.56 C 358.77 208.66 355.35 209.40 354.09 212.36 C 352.29 217.44 350.73 222.91 346.65 226.70 C 340.26 234.22 329.13 236.44 320.00 233.17 C 313.01 239.00 304.49 242.76 295.64 244.67 C 295.50 248.81 295.15 252.94 295.15 257.09 C 305.66 258.66 316.12 260.62 326.51 262.84 C 337.35 265.30 348.25 269.72 356.01 277.95 C 364.58 285.88 367.62 297.52 371.85 307.98 C 377.19 322.38 382.63 336.75 387.47 351.34 C 386.07 352.81 384.11 353.41 382.32 354.24 C 381.67 355.72 382.46 357.33 382.68 358.83 C 386.86 376.28 391.24 393.70 394.84 411.28 C 409.57 411.33 424.29 411.27 439.02 411.29 C 442.83 411.30 446.66 411.10 450.46 411.61 C 451.10 413.74 451.17 417.01 448.13 417.01 C 425.45 417.24 402.75 416.99 380.07 417.11 C 375.58 417.26 371.01 416.65 366.59 417.60 C 386.39 420.48 406.59 423.56 424.84 432.21 C 429.53 434.98 435.10 438.44 436.06 444.28 C 436.88 448.75 433.69 452.67 430.47 455.35 C 424.53 459.41 417.85 462.36 410.94 464.33 C 391.13 470.40 370.52 473.11 350.00 475.44 C 308.82 479.71 267.33 480.17 225.96 479.19 C 193.13 477.78 160.19 475.79 127.87 469.54 C 115.29 466.86 102.44 464.13 91.02 457.99 C 86.77 455.63 82.30 452.08 81.39 447.06 C 80.32 439.64 87.55 435.13 93.12 432.04 C 104.55 426.42 117.10 423.47 129.57 421.19 C 129.55 419.76 129.54 418.33 129.52 416.90 C 117.00 416.85 104.49 417.24 91.98 417.10 C 84.51 416.94 76.96 417.54 69.55 416.38 C 69.34 414.80 69.36 413.22 69.65 411.66 C 71.76 411.25 73.91 411.07 76.06 411.13 C 93.64 411.27 111.23 410.97 128.80 411.32 C 128.78 410.15 128.85 408.93 128.15 407.93 C 123.14 399.10 120.95 389.06 118.90 379.21 C 113.66 351.29 110.29 323.07 106.33 294.95 C 98.14 291.49 92.83 283.66 88.59 276.18 C 84.49 268.41 81.53 259.96 76.02 253.00 C 70.94 245.14 65.67 237.40 60.28 229.74 C 57.75 225.81 54.35 221.44 55.61 216.47 C 56.23 213.96 58.84 213.24 61.00 212.60 C 67.26 214.15 70.73 219.96 74.83 224.38 C 77.67 227.35 79.82 230.94 82.91 233.67 C 76.65 220.62 70.25 207.59 65.10 194.04 C 63.05 189.87 64.96 183.96 69.89 183.16 C 74.69 182.21 77.45 186.89 79.53 190.36 C 85.25 200.67 91.08 211.00 95.46 221.97 C 93.10 207.19 89.10 192.66 86.55 177.90 C 85.71 173.97 87.85 169.12 92.09 168.40 C 94.98 167.72 97.49 169.80 99.02 172.02 C 102.04 176.48 103.27 181.83 104.77 186.93 C 107.69 196.60 109.90 206.47 112.31 216.28 C 111.80 204.19 110.78 192.09 111.20 179.97 C 111.35 176.98 111.86 173.44 114.59 171.67 C 117.02 170.81 120.28 170.81 122.05 172.98 C 124.65 175.64 125.31 179.50 125.88 183.03 C 127.72 195.65 128.22 208.40 129.44 221.09 C 134.67 212.18 144.68 206.03 155.08 205.95 C 161.15 206.00 166.62 209.06 171.45 212.46 C 173.02 213.47 173.67 215.27 174.36 216.91 C 173.93 218.22 171.85 219.50 172.79 220.92 C 174.41 221.41 175.89 222.32 176.38 224.05 C 176.96 227.74 175.06 231.16 173.64 234.42 C 168.72 244.48 164.48 254.86 160.32 265.26 C 157.62 271.40 153.87 277.02 149.49 282.08 C 149.31 283.88 150.24 285.52 150.72 287.20 C 152.59 293.17 154.65 299.09 156.72 305.00 C 157.44 304.30 158.15 303.59 158.82 302.86 C 170.42 289.83 182.17 276.87 194.94 264.97 C 202.89 257.92 213.40 254.27 223.91 253.57 C 234.04 252.94 244.18 253.23 254.32 253.26 C 254.34 249.14 254.66 245.02 254.63 240.90 C 244.66 237.44 235.41 231.58 228.14 223.92 C 227.09 223.17 226.50 221.43 225.05 221.48 C 219.94 224.48 213.82 226.33 207.90 224.90 C 201.52 223.79 196.32 219.09 193.32 213.53 C 191.20 209.56 190.94 204.94 189.14 200.86 C 186.97 196.81 183.36 193.73 181.23 189.64 C 176.57 181.19 175.49 170.22 180.30 161.60 C 183.44 156.00 188.97 151.69 190.39 145.19 C 191.21 139.60 187.31 135.04 185.44 130.12 C 182.22 123.18 180.03 115.33 181.85 107.69 C 183.00 103.12 186.51 99.69 190.35 97.21 C 192.82 92.11 191.84 86.25 192.97 80.84 C 194.31 73.13 198.56 65.53 205.54 61.63 C 210.10 58.80 215.64 57.52 220.96 58.31 C 222.82 58.42 224.76 59.02 226.61 58.52 C 230.71 54.89 232.87 49.60 236.92 45.91 C 245.64 36.54 259.24 31.93 271.85 34.30 C 280.31 35.50 287.83 39.86 296.03 41.98 C 309.91 44.99 325.16 42.04 336.47 33.31 Z" fill="#073050" opacity="1.00" stroke="#073050" stroke-width="0.25"/>
<path d="M 238.83 50.89 C 244.97 43.38 254.58 39.67 264.02 38.73 C 273.38 38.30 281.97 42.54 290.60 45.54 C 305.18 50.59 321.77 48.13 334.91 40.30 C 336.44 48.34 332.51 56.44 333.49 64.50 C 336.72 68.35 342.25 67.04 346.53 68.63 C 352.60 69.91 357.56 73.96 361.60 78.47 C 366.67 85.33 371.39 92.70 373.29 101.13 C 373.69 105.20 373.76 109.42 372.47 113.35 C 371.23 117.28 370.94 121.91 373.59 125.35 C 376.82 129.68 380.17 134.35 380.28 140.00 C 381.01 147.71 375.53 153.84 373.90 161.01 C 372.86 167.68 374.97 174.31 374.46 181.00 C 374.09 187.78 371.47 194.64 366.35 199.26 C 361.58 203.55 353.75 203.46 350.19 209.25 C 347.47 215.14 346.15 222.55 340.04 226.05 C 335.75 229.31 330.27 230.08 325.03 229.56 C 326.70 225.65 330.30 223.08 332.42 219.45 C 335.90 214.95 337.11 209.21 340.35 204.58 C 348.30 205.25 355.91 200.38 359.30 193.28 C 364.27 184.46 364.53 172.77 358.55 164.37 C 356.18 160.82 352.07 159.24 348.30 157.67 C 348.09 149.78 348.66 141.87 347.80 134.02 C 347.36 129.04 347.98 123.95 347.07 119.04 C 346.61 118.58 345.68 117.67 345.22 117.21 C 337.04 121.17 327.98 122.64 319.03 123.58 C 308.53 123.77 297.61 124.46 287.69 120.34 C 283.74 118.52 279.57 116.80 276.47 113.64 C 271.32 108.46 266.43 102.98 260.89 98.21 C 255.53 94.31 250.12 90.32 244.04 87.61 C 241.32 86.91 240.53 90.26 240.32 92.27 C 239.27 101.07 234.89 109.39 228.07 115.08 C 224.77 118.04 220.64 119.75 216.69 121.64 C 214.04 132.33 213.51 143.40 211.38 154.17 C 205.83 155.61 201.08 159.67 198.83 164.96 C 194.32 174.90 194.95 187.45 201.62 196.29 C 204.97 200.59 210.32 202.22 215.39 203.46 C 216.81 207.49 218.66 211.35 220.84 215.02 C 221.49 216.08 222.40 217.96 220.66 218.53 C 215.76 220.44 209.97 221.11 205.10 218.73 C 202.59 217.01 200.36 214.84 198.57 212.39 C 194.80 206.38 194.93 198.45 189.99 193.10 C 184.32 187.73 181.46 179.72 182.34 171.97 C 182.04 162.87 190.97 157.74 193.90 149.85 C 196.85 144.94 195.22 138.98 192.88 134.18 C 189.14 126.66 185.15 118.64 186.45 109.97 C 186.56 104.37 192.94 102.61 195.17 98.15 C 198.54 91.26 196.13 83.11 199.33 76.16 C 202.18 69.01 209.14 63.35 217.05 63.40 C 221.15 62.84 225.87 65.18 229.45 62.38 C 233.55 59.43 235.41 54.48 238.83 50.89 Z" fill="#6a443d" opacity="1.00" stroke="#6a443d" stroke-width="0.25"/>
<path d="M 244.82 93.19 C 245.90 93.68 246.94 94.26 247.97 94.87 C 243.16 99.34 245.02 108.29 238.23 111.02 C 241.16 105.38 243.99 99.57 244.82 93.19 Z" fill="#f5e2c1" opacity="1.00" stroke="#f5e2c1" stroke-width="0.25"/>
<path d="M 247.97 94.87 C 254.22 98.87 260.26 103.28 265.38 108.69 C 269.43 112.68 273.01 117.25 277.83 120.36 C 282.73 123.68 288.41 125.54 294.06 127.14 C 293.44 127.23 292.19 127.41 291.57 127.51 C 301.40 130.78 311.98 130.34 322.15 129.33 C 328.80 128.76 335.13 126.36 341.80 125.93 C 342.47 138.60 342.74 151.31 341.72 163.98 C 341.10 170.69 341.08 177.44 341.16 184.18 C 338.43 200.98 331.66 218.09 318.33 229.29 C 305.41 240.24 287.42 243.64 270.97 241.00 C 255.66 238.43 240.33 231.96 230.01 219.99 C 218.31 207.45 214.15 189.71 214.64 172.96 C 215.14 157.55 217.05 142.21 219.66 127.03 C 220.05 124.16 223.61 123.91 225.53 122.36 C 230.67 119.67 234.45 115.26 238.23 111.02 C 245.02 108.29 243.16 99.34 247.97 94.87 Z" fill="#ffc9af" opacity="1.00" stroke="#ffc9af" stroke-width="0.25"/>
<path d="M 294.06 127.14 C 310.49 130.23 327.47 128.20 343.30 123.17 C 343.88 143.51 344.56 164.03 341.16 184.18 C 341.08 177.44 341.10 170.69 341.72 163.98 C 342.74 151.31 342.47 138.60 341.80 125.93 C 335.13 126.36 328.80 128.76 322.15 129.33 C 311.98 130.34 301.40 130.78 291.57 127.51 C 292.19 127.41 293.44 127.23 294.06 127.14 Z" fill="#f5e2c1" opacity="1.00" stroke="#f5e2c1" stroke-width="0.25"/>
<path d="M 238.48 126.80 C 243.81 125.40 249.56 124.99 254.89 126.63 C 257.63 127.60 260.49 129.80 260.48 132.99 C 260.70 134.63 259.99 136.85 258.02 136.86 C 254.17 136.86 250.91 134.09 247.05 134.18 C 241.88 134.15 236.97 136.10 232.44 138.41 C 230.57 139.37 227.69 139.09 226.79 136.92 C 226.15 135.19 226.40 133.11 227.97 131.96 C 231.05 129.52 234.68 127.80 238.48 126.80 Z" fill="#062f53" opacity="1.00" stroke="#062f53" stroke-width="0.25"/>
<path d="M 299.65 133.66 C 309.62 130.52 320.36 134.66 328.46 140.56 C 331.18 142.34 329.62 147.85 326.01 146.69 C 321.19 145.69 316.82 143.12 311.93 142.22 C 312.54 142.02 313.74 141.63 314.35 141.43 C 309.07 140.41 303.65 141.70 298.37 140.50 C 298.74 138.44 299.14 136.38 299.53 134.32 C 299.56 134.16 299.62 133.83 299.65 133.66 Z" fill="#053053" opacity="1.00" stroke="#053053" stroke-width="0.25"/>
<path d="M 300.02 142.51 C 295.64 142.86 295.56 134.98 299.53 134.32 C 299.14 136.38 298.74 138.44 298.37 140.50 C 303.65 141.70 309.07 140.41 314.35 141.43 C 313.74 141.63 312.54 142.02 311.93 142.22 C 307.95 142.06 303.98 142.27 300.02 142.51 Z" fill="#122336" opacity="1.00" stroke="#122336" stroke-width="0.25"/>
<path d="M 244.10 152.92 C 249.11 151.08 255.33 155.63 254.81 161.01 C 255.33 166.69 248.42 171.08 243.42 168.44 C 236.58 166.02 237.15 154.89 244.10 152.92 Z" fill="#032e52" opacity="1.00" stroke="#032e52" stroke-width="0.25"/>
<path d="M 303.42 169.60 C 300.51 164.70 304.21 157.36 310.04 157.31 C 312.97 156.87 315.34 158.78 317.37 160.60 C 319.04 163.77 319.39 168.01 317.03 170.94 C 313.76 175.32 305.69 174.69 303.42 169.60 Z" fill="#042e52" opacity="1.00" stroke="#042e52" stroke-width="0.25"/>
<path d="M 204.79 162.82 C 206.35 160.58 208.97 159.55 211.31 158.35 C 211.52 163.25 210.51 168.10 210.62 172.99 C 210.33 181.66 211.53 190.31 213.68 198.70 C 207.51 197.91 202.76 192.79 201.20 186.96 C 198.96 178.97 199.67 169.59 204.79 162.82 Z" fill="#fcc9af" opacity="1.00" stroke="#fcc9af" stroke-width="0.25"/>
<path d="M 347.57 161.36 C 353.21 163.66 357.92 168.67 358.74 174.86 C 361.00 186.00 353.82 200.17 341.44 200.79 C 345.17 187.97 346.85 174.67 347.57 161.36 Z" fill="#fdc9b0" opacity="1.00" stroke="#fdc9b0" stroke-width="0.25"/>
<path d="M 276.57 165.49 C 277.42 165.61 278.28 165.72 279.13 165.84 C 280.02 174.38 281.56 182.87 281.73 191.47 C 281.07 191.66 279.76 192.02 279.10 192.21 C 275.26 191.22 271.32 190.56 267.57 189.25 C 266.36 188.45 266.27 187.52 267.29 186.45 C 271.07 186.16 274.65 187.64 278.31 188.34 C 277.52 181.24 276.51 174.17 275.94 167.05 C 276.10 166.66 276.42 165.88 276.57 165.49 Z" fill="#0f2945" opacity="1.00" stroke="#0f2945" stroke-width="0.25"/>
<path d="M 90.42 173.98 C 91.03 172.25 93.05 171.92 94.58 172.50 C 96.85 174.85 97.85 178.09 98.91 181.11 C 104.26 197.42 107.42 214.34 112.20 230.81 C 113.63 230.76 115.06 230.71 116.48 230.66 C 116.72 220.37 115.46 210.14 115.29 199.86 C 115.27 192.26 113.92 184.60 115.34 177.04 C 115.30 175.51 117.14 175.22 118.02 174.37 C 121.05 176.53 121.39 180.47 122.08 183.83 C 123.42 193.86 124.05 203.98 124.94 214.06 C 125.76 219.52 125.25 225.14 126.66 230.52 C 130.02 231.41 130.43 227.61 131.62 225.47 C 135.53 216.70 144.49 210.62 153.97 209.66 C 160.07 209.62 165.48 212.91 170.32 216.29 C 170.06 216.78 169.55 217.78 169.29 218.27 C 164.15 219.41 159.17 216.92 154.02 217.42 C 150.76 217.35 147.41 218.84 145.76 221.75 C 142.99 226.30 139.77 230.79 138.60 236.07 C 137.86 239.22 140.36 241.67 141.94 244.08 C 134.76 246.10 127.18 249.87 124.01 257.05 C 121.69 263.56 122.52 271.01 124.84 277.37 C 125.46 277.35 126.68 277.33 127.30 277.31 C 128.10 272.19 125.59 267.02 126.64 261.81 C 127.02 256.04 132.00 252.15 136.79 249.76 C 141.17 247.59 146.25 246.99 150.43 244.47 C 154.15 239.39 155.65 232.75 160.48 228.48 C 163.87 225.86 168.18 224.42 172.46 224.45 C 172.45 226.31 172.36 228.22 171.48 229.92 C 167.01 239.39 162.57 248.89 158.83 258.69 C 157.19 263.19 154.93 267.43 152.54 271.57 C 150.34 275.36 147.05 278.33 144.52 281.89 C 150.19 298.00 154.78 314.50 160.82 330.48 C 160.21 330.42 158.98 330.30 158.37 330.24 C 158.32 332.84 158.47 335.44 158.53 338.05 C 159.49 337.89 160.45 337.74 161.41 337.60 C 161.45 335.57 161.48 333.55 161.47 331.53 C 162.34 334.16 163.26 336.78 163.95 339.47 C 157.27 340.36 150.44 340.16 143.86 341.74 C 142.23 345.73 142.98 350.08 142.56 354.26 C 140.66 354.31 138.54 354.47 137.18 355.98 C 132.65 360.79 131.23 367.49 127.64 372.89 C 126.95 374.48 126.88 376.24 126.63 377.94 C 125.77 377.31 124.90 376.69 124.03 376.08 C 124.03 377.49 124.05 378.90 124.08 380.32 C 123.03 376.98 122.64 373.49 122.07 370.05 C 117.86 346.50 114.72 322.78 111.71 299.05 C 111.43 296.64 111.38 294.13 110.21 291.95 C 99.03 288.62 93.53 277.17 88.58 267.56 C 85.19 258.30 78.91 250.62 73.63 242.41 C 69.80 236.29 65.29 230.63 61.57 224.44 C 60.21 222.36 58.49 219.95 59.45 217.34 C 60.46 215.70 62.12 217.08 63.21 217.79 C 66.15 219.84 68.13 222.90 70.54 225.49 C 74.98 230.72 79.56 235.83 83.72 241.30 C 84.89 242.91 86.31 244.32 87.87 245.57 C 88.81 245.15 89.75 244.73 90.70 244.33 C 90.69 243.36 90.62 242.40 90.49 241.44 C 83.14 225.02 74.84 209.00 68.52 192.14 C 67.88 190.68 68.49 189.09 68.59 187.59 C 69.75 187.38 70.91 187.18 72.08 186.97 C 74.39 189.41 76.11 192.31 77.74 195.23 C 85.20 208.10 90.95 221.86 98.00 234.94 C 98.98 236.59 101.06 235.40 102.51 235.42 C 102.37 233.75 102.21 232.09 101.84 230.46 C 98.24 215.67 95.13 200.77 92.08 185.86 C 91.29 181.94 89.98 178.02 90.42 173.98 Z" fill="#ffc9af" opacity="1.00" stroke="#ffc9af" stroke-width="0.25"/>
<path d="M 234.34 172.41 C 238.58 171.07 243.36 171.11 247.57 172.55 C 252.18 174.33 253.68 181.32 249.05 183.94 C 243.40 187.59 235.09 187.62 229.99 182.98 C 227.75 179.04 229.99 173.66 234.34 172.41 Z" fill="#fe9881" opacity="1.00" stroke="#fe9881" stroke-width="0.25"/>
<path d="M 306.33 175.56 C 311.20 175.81 315.95 178.26 319.15 181.90 C 320.75 184.78 320.55 189.62 316.90 190.82 C 310.13 193.61 301.07 191.13 297.69 184.32 C 295.88 179.24 301.60 174.94 306.33 175.56 Z" fill="#ff9c84" opacity="1.00" stroke="#ff9c84" stroke-width="0.25"/>
<path d="M 249.31 196.51 C 252.56 195.55 255.89 197.01 259.11 197.49 C 271.64 199.67 284.47 201.16 297.16 199.59 C 299.06 199.14 301.25 199.95 301.37 202.13 C 301.40 211.31 295.48 220.26 286.88 223.59 C 274.76 228.69 258.60 225.10 251.49 213.55 C 248.96 208.47 247.12 201.84 249.31 196.51 Z" fill="#0c2a49" opacity="1.00" stroke="#0c2a49" stroke-width="0.25"/>
<path d="M 252.08 199.68 C 267.04 203.42 282.55 204.53 297.91 203.30 C 297.31 211.72 291.05 218.99 282.97 221.18 C 273.26 224.09 261.49 221.15 255.32 212.87 C 252.64 209.02 251.93 204.28 252.08 199.68 Z" fill="#feffff" opacity="1.00" stroke="#feffff" stroke-width="0.25"/>
<path d="M 151.46 221.57 C 155.64 220.78 159.88 221.74 164.07 221.97 C 159.20 224.37 154.58 227.93 152.45 233.09 C 150.46 236.48 149.58 241.11 145.64 242.84 C 144.41 240.53 141.34 238.40 142.64 235.48 C 144.60 230.37 147.31 225.21 151.46 221.57 Z" fill="#fbffff" opacity="1.00" stroke="#fbffff" stroke-width="0.25"/>
<path d="M 259.59 242.50 C 261.86 243.29 264.28 243.61 266.52 244.48 C 273.05 248.57 281.23 246.74 288.53 247.25 C 288.98 249.32 289.45 251.39 289.79 253.49 C 289.84 256.06 289.66 258.63 289.66 261.20 C 292.97 262.22 296.41 262.66 299.80 263.35 C 299.46 273.28 297.01 283.69 290.36 291.37 C 285.35 296.96 277.40 300.35 269.92 298.57 C 264.72 297.40 260.84 293.36 257.72 289.28 C 251.40 280.24 247.62 269.53 246.27 258.61 C 250.30 258.75 254.33 258.76 258.36 258.52 C 259.70 253.29 259.16 247.83 259.59 242.50 Z" fill="#ffc9af" opacity="1.00" stroke="#ffc9af" stroke-width="0.25"/>
<path d="M 266.52 244.48 C 274.46 245.71 282.52 246.23 290.54 245.44 C 290.41 248.13 290.25 250.83 289.79 253.49 C 289.45 251.39 288.98 249.32 288.53 247.25 C 281.23 246.74 273.05 248.57 266.52 244.48 Z" fill="#e9d0c7" opacity="1.00" stroke="#e9d0c7" stroke-width="0.25"/>
<path d="M 214.01 259.12 C 222.49 256.80 231.34 256.79 240.06 256.89 C 241.37 256.75 242.60 257.71 242.73 259.04 C 244.62 269.22 247.14 279.58 252.73 288.43 C 253.39 289.73 254.82 291.09 253.84 292.67 C 246.19 282.84 242.97 270.50 240.52 258.51 C 230.95 258.53 221.19 258.64 211.96 261.42 C 212.59 260.62 212.82 259.27 214.01 259.12 Z" fill="#122336" opacity="1.00" stroke="#122336" stroke-width="0.25"/>
<path d="M 211.96 261.42 C 221.19 258.64 230.95 258.53 240.52 258.51 C 242.97 270.50 246.19 282.84 253.84 292.67 C 256.31 296.70 260.35 299.21 263.82 302.21 C 264.37 302.90 264.95 303.57 265.57 304.22 C 273.65 306.70 283.00 306.01 289.97 300.93 C 297.29 295.51 302.42 287.28 304.28 278.37 C 305.05 274.43 305.82 270.49 306.94 266.63 C 317.96 268.12 329.27 269.77 339.43 274.55 C 343.77 276.37 346.94 280.40 351.64 281.36 L 352.15 281.50 L 352.27 281.81 C 353.17 284.91 355.70 287.09 357.20 289.86 C 358.30 291.87 359.43 293.92 361.33 295.31 L 361.32 295.84 C 361.14 298.17 361.55 300.48 362.43 302.65 C 368.19 317.69 374.05 332.72 379.03 348.05 C 372.44 351.16 365.43 353.21 358.58 355.64 C 349.44 359.11 340.33 362.76 330.92 365.44 C 330.97 356.54 328.72 347.87 328.20 339.01 C 326.84 329.96 326.76 320.65 324.13 311.83 C 321.71 310.47 318.44 311.75 317.48 314.32 C 316.55 319.98 318.58 325.48 319.16 331.04 C 319.59 339.12 321.43 347.03 321.56 355.13 C 322.57 360.63 322.55 366.39 324.54 371.65 L 324.54 371.65 C 324.57 372.16 324.62 373.19 324.65 373.70 C 326.06 375.58 328.17 377.30 327.69 379.94 C 327.37 389.75 329.16 399.47 328.96 409.29 C 327.76 409.11 326.55 408.93 325.36 408.76 C 324.93 404.38 324.86 399.93 323.69 395.66 C 323.48 397.12 323.29 398.57 323.16 400.05 C 322.39 398.84 322.40 397.37 322.18 396.01 C 320.75 395.28 319.80 393.93 320.30 392.29 C 321.23 393.42 322.27 394.44 323.35 395.44 C 322.72 392.54 321.21 390.00 319.24 387.83 C 316.74 385.20 317.03 381.09 314.51 378.49 C 309.93 373.37 303.08 371.45 296.88 369.09 C 295.64 365.27 294.94 360.90 291.85 358.04 C 289.55 355.92 286.15 356.76 283.31 356.54 C 283.00 353.21 282.93 349.82 283.75 346.55 C 284.36 346.50 285.60 346.42 286.22 346.38 C 287.81 344.03 288.75 341.35 288.43 338.48 C 287.75 338.84 286.38 339.55 285.70 339.91 C 284.71 337.67 284.06 335.24 282.69 333.19 C 280.85 332.14 277.71 333.85 279.47 335.95 L 279.88 336.65 C 279.72 337.80 279.60 338.96 279.54 340.13 L 277.73 340.18 C 277.31 340.20 276.48 340.24 276.07 340.26 C 274.50 345.57 275.42 351.14 277.69 356.09 C 275.53 356.77 273.35 357.41 271.16 358.00 C 271.36 358.27 271.75 358.83 271.94 359.10 C 271.22 359.67 270.53 360.25 269.85 360.87 L 270.14 360.09 C 269.55 360.28 268.39 360.66 267.81 360.85 C 266.31 359.14 264.95 357.12 262.81 356.17 C 260.23 355.41 257.56 355.04 254.98 354.29 C 256.31 352.19 258.15 350.37 259.13 348.06 C 258.96 343.50 257.50 339.08 256.06 334.79 C 255.50 332.89 253.46 332.49 251.77 332.28 C 250.70 335.45 249.19 338.58 249.19 342.00 C 248.96 346.34 250.03 350.60 250.28 354.91 C 248.59 357.29 244.95 356.97 243.16 359.29 C 241.15 361.95 240.55 365.33 239.51 368.44 C 235.49 368.92 231.44 369.40 227.61 370.78 C 229.14 370.86 230.68 370.90 232.22 370.92 C 230.27 371.42 228.35 372.47 226.32 372.36 C 225.76 372.25 224.62 372.05 224.05 371.94 C 216.67 374.43 209.74 380.71 209.67 389.00 C 210.02 395.63 211.05 402.24 210.83 408.90 C 205.32 409.48 199.76 409.41 194.25 408.90 C 194.24 402.06 195.66 395.13 194.35 388.35 C 194.39 384.83 194.64 381.32 195.01 377.82 C 194.91 380.38 195.12 382.95 195.48 385.49 C 197.17 378.41 196.53 371.04 197.82 363.90 C 198.76 358.45 199.81 352.81 198.32 347.35 L 198.33 347.27 C 201.42 343.00 201.31 337.22 200.38 332.25 C 201.15 324.71 203.38 317.34 203.61 309.75 C 202.95 309.45 201.62 308.84 200.96 308.53 C 200.40 308.85 199.26 309.50 198.69 309.82 C 197.38 316.82 195.89 323.81 195.17 330.91 C 194.62 330.77 193.53 330.49 192.98 330.34 C 185.32 323.40 176.79 317.39 169.16 310.39 C 168.13 309.34 166.99 308.41 165.73 307.68 C 165.09 307.26 163.80 306.43 163.16 306.01 C 168.57 299.60 174.34 293.52 180.25 287.56 C 182.37 285.59 184.30 283.44 186.21 281.27 C 189.05 278.45 191.78 275.54 194.51 272.62 C 199.50 267.78 205.21 263.45 211.96 261.42 Z" fill="#febb0a" opacity="1.00" stroke="#febb0a" stroke-width="0.25"/>
<path d="M 305.88 264.31 C 306.38 262.63 308.15 263.77 309.27 263.82 C 318.78 266.51 328.98 266.71 337.96 271.16 C 341.64 273.01 347.14 273.88 348.45 278.34 C 340.86 272.99 332.05 269.58 322.94 267.93 C 317.28 266.60 311.43 266.09 305.88 264.31 Z" fill="#384123" opacity="1.00" stroke="#384123" stroke-width="0.25"/>
<path d="M 304.04 265.10 C 304.35 264.85 304.97 264.35 305.27 264.10 C 304.21 275.38 301.76 287.52 293.36 295.77 C 293.22 293.44 295.02 291.79 296.13 289.97 C 301.06 282.61 303.18 273.80 304.04 265.10 Z" fill="#353f22" opacity="1.00" stroke="#353f22" stroke-width="0.25"/>
<path d="M 305.27 264.10 L 305.88 264.31 C 311.43 266.09 317.28 266.60 322.94 267.93 C 332.05 269.58 340.86 272.99 348.45 278.34 C 349.63 279.21 350.63 280.28 351.64 281.36 C 346.94 280.40 343.77 276.37 339.43 274.55 C 329.27 269.77 317.96 268.12 306.94 266.63 C 305.82 270.49 305.05 274.43 304.28 278.37 C 302.42 287.28 297.29 295.51 289.97 300.93 C 283.00 306.01 273.65 306.70 265.57 304.22 C 264.95 303.57 264.37 302.90 263.82 302.21 C 266.98 303.16 270.11 304.47 273.47 304.47 C 280.70 304.83 287.89 301.59 292.80 296.34 C 292.94 296.20 293.22 295.91 293.36 295.77 C 301.76 287.52 304.21 275.38 305.27 264.10 Z" fill="#eec044" opacity="1.00" stroke="#eec044" stroke-width="0.25"/>
<path d="M 187.96 276.99 C 189.86 275.24 191.56 272.35 194.51 272.62 C 191.78 275.54 189.05 278.45 186.21 281.27 C 185.02 279.58 187.11 278.23 187.96 276.99 Z" fill="#2d3b27" opacity="1.00" stroke="#2d3b27" stroke-width="0.25"/>
<path d="M 180.25 287.56 C 180.19 284.57 183.26 281.53 186.21 281.27 C 184.30 283.44 182.37 285.59 180.25 287.56 Z" fill="#3d4025" opacity="1.00" stroke="#3d4025" stroke-width="0.25"/>
<path d="M 352.27 281.81 C 356.54 285.23 359.31 290.30 361.33 295.31 C 359.43 293.92 358.30 291.87 357.20 289.86 C 355.70 287.09 353.17 284.91 352.27 281.81 Z" fill="#ba9f3a" opacity="1.00" stroke="#ba9f3a" stroke-width="0.25"/>
<path d="M 284.49 300.67 C 287.60 299.83 289.45 296.19 292.80 296.34 C 287.89 301.59 280.70 304.83 273.47 304.47 C 276.95 302.72 281.09 302.75 284.49 300.67 Z" fill="#364024" opacity="1.00" stroke="#364024" stroke-width="0.25"/>
<path d="M 361.32 295.84 C 366.10 306.43 369.60 317.57 373.85 328.39 C 376.17 334.78 378.23 341.27 380.79 347.57 C 381.01 348.10 381.25 348.63 381.49 349.17 C 373.36 351.56 365.63 355.14 357.56 357.73 C 349.66 360.41 341.78 363.21 334.01 366.24 C 332.81 366.76 331.63 367.32 330.47 367.90 C 329.53 366.44 329.62 364.66 329.44 363.02 C 327.66 346.89 325.81 330.76 323.79 314.65 C 323.45 311.69 318.88 312.23 318.74 314.95 C 320.15 333.89 323.50 352.69 324.54 371.65 C 322.55 366.39 322.57 360.63 321.56 355.13 C 321.43 347.03 319.59 339.12 319.16 331.04 C 318.58 325.48 316.55 319.98 317.48 314.32 C 318.44 311.75 321.71 310.47 324.13 311.83 C 326.76 320.65 326.84 329.96 328.20 339.01 C 328.72 347.87 330.97 356.54 330.92 365.44 C 340.33 362.76 349.44 359.11 358.58 355.64 C 365.43 353.21 372.44 351.16 379.03 348.05 C 374.05 332.72 368.19 317.69 362.43 302.65 C 361.55 300.48 361.14 298.17 361.32 295.84 Z" fill="#eec044" opacity="1.00" stroke="#eec044" stroke-width="0.25"/>
<path d="M 157.23 307.07 C 159.35 309.46 161.70 311.64 163.88 313.98 C 162.84 315.06 161.77 316.12 160.65 317.12 C 159.58 313.74 158.35 310.42 157.23 307.07 Z" fill="#f8ffff" opacity="1.00" stroke="#f8ffff" stroke-width="0.25"/>
<path d="M 165.73 307.68 C 166.99 308.41 168.13 309.34 169.16 310.39 C 167.62 311.90 164.33 309.51 165.73 307.68 Z" fill="#464922" opacity="1.00" stroke="#464922" stroke-width="0.25"/>
<path d="M 198.69 309.82 C 199.26 309.50 200.40 308.85 200.96 308.53 C 201.62 308.84 202.95 309.45 203.61 309.75 C 203.38 317.34 201.15 324.71 200.38 332.25 C 199.49 337.23 198.56 342.21 198.33 347.27 L 198.32 347.35 C 196.45 357.41 195.97 367.65 195.01 377.82 C 194.64 381.32 194.39 384.83 194.35 388.35 C 193.38 395.17 193.14 402.07 192.35 408.92 C 192.21 409.46 191.94 410.54 191.80 411.08 C 198.73 410.95 205.67 410.77 212.60 411.15 C 211.89 412.12 210.87 412.64 209.67 412.45 C 203.68 412.13 197.68 412.53 191.69 412.21 C 190.17 406.58 191.69 400.68 191.82 394.95 C 193.28 387.71 192.90 380.31 193.67 373.01 C 195.07 364.83 194.81 356.47 196.38 348.30 C 197.93 335.87 200.56 323.59 201.84 311.13 C 201.30 311.27 200.24 311.54 199.71 311.67 C 198.64 317.65 198.19 323.75 196.67 329.63 C 196.30 329.95 195.55 330.59 195.17 330.91 C 195.89 323.81 197.38 316.82 198.69 309.82 Z" fill="#192a35" opacity="1.00" stroke="#192a35" stroke-width="0.25"/>
<path d="M 150.64 312.50 C 152.97 311.09 153.51 313.77 153.44 315.40 C 153.59 317.59 153.57 319.79 153.59 321.99 C 152.52 321.64 150.35 321.80 150.70 320.04 C 150.44 317.54 150.44 315.01 150.64 312.50 Z" fill="#192a40" opacity="1.00" stroke="#192a40" stroke-width="0.25"/>
<path d="M 318.74 314.95 C 318.88 312.23 323.45 311.69 323.79 314.65 C 322.65 314.62 321.52 314.58 320.39 314.55 C 319.93 320.72 320.94 326.85 321.81 332.94 C 322.39 339.99 323.50 346.98 324.36 354.00 C 325.00 360.94 324.35 368.60 328.92 374.40 C 326.80 374.64 325.33 373.54 324.54 371.65 L 324.54 371.65 C 323.50 352.69 320.15 333.89 318.74 314.95 Z" fill="#3b4321" opacity="1.00" stroke="#3b4321" stroke-width="0.25"/>
<path d="M 163.45 324.91 C 161.93 321.18 166.44 319.16 167.87 316.28 C 176.58 323.31 184.84 330.92 193.80 337.64 C 193.72 342.16 192.65 346.57 192.15 351.05 C 191.70 355.65 189.27 359.67 187.35 363.77 C 187.15 363.79 186.74 363.82 186.53 363.84 C 184.56 359.63 183.53 353.38 177.78 352.98 C 177.71 347.93 177.35 341.43 172.50 338.56 C 171.20 338.60 169.89 338.65 168.59 338.69 C 167.00 334.05 165.26 329.47 163.45 324.91 Z" fill="#fec9ae" opacity="1.00" stroke="#fec9ae" stroke-width="0.25"/>
<path d="M 150.74 327.81 C 151.57 327.78 152.41 327.74 153.25 327.71 C 153.63 330.49 153.81 333.30 153.85 336.11 C 152.86 335.69 150.85 336.09 150.84 334.53 C 150.52 332.30 150.65 330.05 150.74 327.81 Z" fill="#122336" opacity="1.00" stroke="#122336" stroke-width="0.25"/>
<path d="M 373.85 328.39 C 377.03 328.90 376.70 332.89 377.87 335.24 C 378.73 339.35 382.10 343.27 380.79 347.57 C 378.23 341.27 376.17 334.78 373.85 328.39 Z" fill="#192a35" opacity="1.00" stroke="#192a35" stroke-width="0.25"/>
<path d="M 251.77 332.28 C 253.46 332.49 255.50 332.89 256.06 334.79 C 257.50 339.08 258.96 343.50 259.13 348.06 C 258.15 350.37 256.31 352.19 254.98 354.29 C 257.56 355.04 260.23 355.41 262.81 356.17 C 264.95 357.12 266.31 359.14 267.81 360.85 C 268.39 360.66 269.55 360.28 270.14 360.09 L 269.85 360.87 C 269.45 361.90 269.11 362.96 268.82 364.04 L 268.02 366.94 L 267.14 364.33 C 266.34 361.38 264.76 358.29 261.66 357.28 C 259.32 356.13 256.80 357.21 254.45 357.68 C 254.35 354.32 254.38 350.95 254.29 347.59 L 254.28 347.11 C 254.25 349.09 257.50 351.40 257.54 348.17 C 257.59 343.78 256.45 339.32 254.63 335.36 C 254.08 334.93 252.98 334.08 252.43 333.65 C 252.45 334.63 252.48 336.59 252.50 337.56 C 252.02 337.96 251.06 338.74 250.59 339.14 C 250.96 345.24 251.52 351.32 251.76 357.43 C 249.38 358.05 246.76 358.28 244.73 359.79 C 242.51 361.73 241.69 364.75 241.61 367.60 C 241.58 368.08 241.52 369.05 241.49 369.53 C 238.37 369.84 235.32 370.53 232.22 370.92 C 230.68 370.90 229.14 370.86 227.61 370.78 C 231.44 369.40 235.49 368.92 239.51 368.44 C 240.55 365.33 241.15 361.95 243.16 359.29 C 244.95 356.97 248.59 357.29 250.28 354.91 C 250.03 350.60 248.96 346.34 249.19 342.00 C 249.19 338.58 250.70 335.45 251.77 332.28 Z" fill="#eec044" opacity="1.00" stroke="#eec044" stroke-width="0.25"/>
<path d="M 198.33 347.27 C 198.56 342.21 199.49 337.23 200.38 332.25 C 201.31 337.22 201.42 343.00 198.33 347.27 Z" fill="#e0ba3b" opacity="1.00" stroke="#e0ba3b" stroke-width="0.25"/>
<path d="M 279.47 335.95 C 277.71 333.85 280.85 332.14 282.69 333.19 C 284.06 335.24 284.71 337.67 285.70 339.91 C 284.91 342.08 284.22 344.28 283.75 346.55 C 282.93 349.82 283.00 353.21 283.31 356.54 C 286.15 356.76 289.55 355.92 291.85 358.04 C 294.94 360.90 295.64 365.27 296.88 369.09 C 303.08 371.45 309.93 373.37 314.51 378.49 C 317.03 381.09 316.74 385.20 319.24 387.83 C 321.21 390.00 322.72 392.54 323.35 395.44 C 322.27 394.44 321.23 393.42 320.30 392.29 C 319.21 390.19 317.57 388.49 315.77 386.99 C 316.26 383.10 313.65 380.19 311.16 377.60 C 310.52 376.68 309.57 376.05 308.53 375.68 C 304.12 373.33 299.54 371.30 294.64 370.24 L 294.62 369.84 C 294.58 366.49 294.29 362.74 291.63 360.34 C 289.07 357.35 284.78 357.74 281.31 358.40 C 281.19 351.01 282.45 343.68 282.33 336.29 C 282.82 334.38 279.90 334.46 279.47 335.95 Z" fill="#ecc032" opacity="1.00" stroke="#ecc032" stroke-width="0.25"/>
<path d="M 252.43 333.65 C 252.98 334.08 254.08 334.93 254.63 335.36 C 256.45 339.32 257.59 343.78 257.54 348.17 C 257.50 351.40 254.25 349.09 254.28 347.11 C 254.32 344.09 254.33 340.93 252.63 338.29 L 252.50 337.56 C 252.48 336.59 252.45 334.63 252.43 333.65 Z" fill="#fcfcdb" opacity="1.00" stroke="#fcfcdb" stroke-width="0.25"/>
<path d="M 279.47 335.95 C 279.90 334.46 282.82 334.38 282.33 336.29 C 281.72 336.38 280.49 336.56 279.88 336.65 L 279.47 335.95 Z" fill="#342d02" opacity="1.00" stroke="#342d02" stroke-width="0.25"/>
<path d="M 279.88 336.65 C 280.49 336.56 281.72 336.38 282.33 336.29 C 282.45 343.68 281.19 351.01 281.31 358.40 C 284.78 357.74 289.07 357.35 291.63 360.34 C 294.29 362.74 294.58 366.49 294.62 369.84 C 293.87 370.01 292.36 370.33 291.61 370.50 C 291.22 368.26 291.52 365.75 290.41 363.73 C 289.67 362.89 288.92 362.07 288.15 361.27 C 285.60 361.63 281.94 360.53 280.53 363.39 C 279.94 365.03 281.48 366.37 282.13 367.74 C 280.75 367.57 279.07 368.20 277.95 367.09 C 276.70 365.85 276.43 363.99 275.62 362.49 C 274.57 362.34 273.51 362.24 272.46 362.19 C 271.12 366.33 271.26 370.73 271.78 374.99 C 268.85 372.19 269.67 367.69 268.82 364.04 C 269.11 362.96 269.45 361.90 269.85 360.87 C 270.53 360.25 271.22 359.67 271.94 359.10 C 273.74 358.44 275.66 358.37 277.55 358.26 C 277.66 358.97 277.89 360.39 278.00 361.10 C 278.16 360.20 278.30 359.30 278.44 358.41 C 282.11 357.31 281.59 352.32 279.12 350.23 C 279.37 346.87 279.42 343.49 279.54 340.13 C 279.60 338.96 279.72 337.80 279.88 336.65 Z" fill="#152a3c" opacity="1.00" stroke="#152a3c" stroke-width="0.25"/>
<path d="M 250.59 339.14 C 251.06 338.74 252.02 337.96 252.50 337.56 L 252.63 338.29 C 253.10 341.40 253.76 344.48 254.29 347.59 C 254.38 350.95 254.35 354.32 254.45 357.68 C 256.80 357.21 259.32 356.13 261.66 357.28 C 264.76 358.29 266.34 361.38 267.14 364.33 C 267.03 367.98 266.33 371.60 265.97 375.24 L 265.01 374.44 C 264.28 369.96 265.64 364.43 261.79 361.07 C 259.42 359.10 256.51 360.97 254.61 362.66 C 254.65 364.60 254.66 366.54 254.66 368.49 C 253.65 368.37 252.65 368.24 251.65 368.12 C 252.13 365.81 252.09 363.46 251.66 361.15 C 248.72 360.91 246.39 362.43 245.04 364.99 C 244.65 364.88 243.87 364.65 243.47 364.53 C 243.33 365.90 242.71 366.92 241.61 367.60 C 241.69 364.75 242.51 361.73 244.73 359.79 C 246.76 358.28 249.38 358.05 251.76 357.43 C 251.52 351.32 250.96 345.24 250.59 339.14 Z" fill="#192a35" opacity="1.00" stroke="#192a35" stroke-width="0.25"/>
<path d="M 285.70 339.91 C 286.38 339.55 287.75 338.84 288.43 338.48 C 288.75 341.35 287.81 344.03 286.22 346.38 C 285.60 346.42 284.36 346.50 283.75 346.55 C 284.22 344.28 284.91 342.08 285.70 339.91 Z" fill="#ffffc8" opacity="1.00" stroke="#ffffc8" stroke-width="0.25"/>
<path d="M 239.46 339.53 C 239.91 339.52 240.81 339.50 241.26 339.48 C 243.39 343.33 244.92 347.46 246.65 351.50 C 245.31 351.78 243.95 351.75 242.60 351.57 C 242.35 347.32 238.93 343.93 239.46 339.53 Z" fill="#fffdd3" opacity="1.00" stroke="#fffdd3" stroke-width="0.25"/>
<path d="M 252.63 338.29 C 254.33 340.93 254.32 344.09 254.28 347.11 L 254.29 347.59 C 253.76 344.48 253.10 341.40 252.63 338.29 Z" fill="#8c9f9f" opacity="1.00" stroke="#8c9f9f" stroke-width="0.25"/>
<path d="M 276.07 340.26 C 276.48 340.24 277.31 340.20 277.73 340.18 C 277.07 343.85 276.60 347.56 276.48 351.29 C 277.09 351.46 278.33 351.79 278.95 351.96 C 278.74 354.10 278.63 356.26 278.44 358.41 C 278.30 359.30 278.16 360.20 278.00 361.10 C 277.89 360.39 277.66 358.97 277.55 358.26 C 275.66 358.37 273.74 358.44 271.94 359.10 C 271.75 358.83 271.36 358.27 271.16 358.00 C 273.35 357.41 275.53 356.77 277.69 356.09 C 275.42 351.14 274.50 345.57 276.07 340.26 Z" fill="#eec044" opacity="1.00" stroke="#eec044" stroke-width="0.25"/>
<path d="M 277.73 340.18 L 279.54 340.13 C 279.42 343.49 279.37 346.87 279.12 350.23 L 278.95 351.96 C 278.33 351.79 277.09 351.46 276.48 351.29 C 276.60 347.56 277.07 343.85 277.73 340.18 Z" fill="#ffffff" opacity="1.00" stroke="#ffffff" stroke-width="0.25"/>
<path d="M 147.41 345.31 C 155.69 345.20 163.93 344.19 172.18 343.56 C 172.69 346.39 173.83 349.12 173.83 352.03 C 173.30 353.04 171.78 352.82 170.82 353.15 C 163.08 354.19 155.25 353.92 147.49 353.41 C 147.30 350.71 147.31 348.00 147.41 345.31 Z" fill="#6ae2fe" opacity="1.00" stroke="#6ae2fe" stroke-width="0.25"/>
<path d="M 291.69 344.69 C 292.60 344.67 293.52 344.65 294.45 344.64 C 294.71 348.61 291.46 351.41 289.60 354.57 C 289.08 354.54 288.06 354.50 287.55 354.48 C 287.47 353.92 287.32 352.82 287.24 352.27 C 288.69 349.72 290.19 347.21 291.69 344.69 Z" fill="#fffec3" opacity="1.00" stroke="#fffec3" stroke-width="0.25"/>
<path d="M 195.01 377.82 C 195.97 367.65 196.45 357.41 198.32 347.35 C 199.81 352.81 198.76 358.45 197.82 363.90 C 196.53 371.04 197.17 378.41 195.48 385.49 C 195.12 382.95 194.91 380.38 195.01 377.82 Z" fill="#e4b939" opacity="1.00" stroke="#e4b939" stroke-width="0.25"/>
<path d="M 279.12 350.23 C 281.59 352.32 282.11 357.31 278.44 358.41 C 278.63 356.26 278.74 354.10 278.95 351.96 L 279.12 350.23 Z" fill="#242e0c" opacity="1.00" stroke="#242e0c" stroke-width="0.25"/>
<path d="M 241.37 357.74 C 239.89 355.91 237.37 354.04 238.65 351.37 C 240.71 352.02 242.40 353.32 243.66 355.06 C 242.89 355.94 242.29 357.00 241.37 357.74 Z" fill="#fffcc1" opacity="1.00" stroke="#fffcc1" stroke-width="0.25"/>
<path d="M 373.25 357.71 C 374.41 357.44 375.71 356.19 376.92 356.88 C 381.27 374.75 385.20 392.74 389.69 410.58 C 388.50 411.03 387.27 411.24 386.01 411.20 C 374.99 411.17 363.97 411.21 352.96 411.17 C 349.82 411.14 346.65 411.41 343.55 410.80 C 341.19 397.68 338.24 384.68 335.57 371.63 C 348.06 366.81 360.76 362.53 373.25 357.71 Z" fill="#ffc9af" opacity="1.00" stroke="#ffc9af" stroke-width="0.25"/>
<path d="M 334.01 366.24 C 341.78 363.21 349.66 360.41 357.56 357.73 C 357.53 359.78 354.94 359.71 353.58 360.49 C 346.18 362.72 339.13 365.96 331.70 368.08 C 332.44 367.43 333.21 366.81 334.01 366.24 Z" fill="#444922" opacity="1.00" stroke="#444922" stroke-width="0.25"/>
<path d="M 140.22 359.27 C 142.47 359.00 144.69 359.81 146.94 359.96 C 157.74 361.11 168.77 360.71 179.39 358.36 C 181.21 362.26 183.11 366.20 183.99 370.44 C 167.55 372.97 150.54 373.85 134.15 370.52 C 135.79 366.60 137.49 362.58 140.22 359.27 Z" fill="#feffff" opacity="1.00" stroke="#feffff" stroke-width="0.25"/>
<path d="M 254.61 362.66 C 256.51 360.97 259.42 359.10 261.79 361.07 C 265.64 364.43 264.28 369.96 265.01 374.44 C 263.80 374.90 262.57 375.30 261.33 375.65 C 260.32 376.45 259.63 378.16 258.02 377.61 C 255.81 377.76 254.58 375.47 252.99 374.32 C 251.35 376.23 249.17 377.08 246.67 376.71 C 245.13 373.28 244.78 369.48 244.47 365.78 L 245.04 364.99 C 246.39 362.43 248.72 360.91 251.66 361.15 C 252.09 363.46 252.13 365.81 251.65 368.12 C 252.65 368.24 253.65 368.37 254.66 368.49 C 254.66 366.54 254.65 364.60 254.61 362.66 Z" fill="#ee522e" opacity="1.00" stroke="#ee522e" stroke-width="0.25"/>
<path d="M 272.46 362.19 C 273.51 362.24 274.57 362.34 275.62 362.49 C 276.43 363.99 276.70 365.85 277.95 367.09 C 279.07 368.20 280.75 367.57 282.13 367.74 C 281.48 366.37 279.94 365.03 280.53 363.39 C 281.94 360.53 285.60 361.63 288.15 361.27 C 288.92 362.07 289.67 362.89 290.41 363.73 C 290.99 367.53 290.79 371.38 290.40 375.19 C 289.86 375.48 288.77 376.05 288.22 376.34 C 286.54 376.65 283.84 375.50 283.10 377.72 C 279.66 376.75 276.17 375.96 272.59 376.68 C 272.39 376.26 271.98 375.41 271.78 374.99 C 271.26 370.73 271.12 366.33 272.46 362.19 Z" fill="#f0522f" opacity="1.00" stroke="#f0522f" stroke-width="0.25"/>
<path d="M 189.51 373.88 C 189.62 372.50 189.87 371.15 190.34 369.86 C 189.71 383.66 188.13 397.44 187.21 411.23 C 186.75 411.32 185.83 411.48 185.37 411.56 C 185.83 398.94 188.04 386.42 189.51 373.88 Z" fill="#f4ffff" opacity="1.00" stroke="#f4ffff" stroke-width="0.25"/>
<path d="M 209.67 389.00 C 209.74 380.71 216.67 374.43 224.05 371.94 C 224.62 372.05 225.76 372.25 226.32 372.36 C 221.09 374.84 215.41 377.46 212.64 382.91 C 211.20 386.42 211.52 390.27 211.59 393.98 C 211.79 399.55 211.72 405.14 212.45 410.69 C 205.70 410.68 198.96 410.67 192.22 410.67 L 192.35 408.92 C 193.14 402.07 193.38 395.17 194.35 388.35 C 195.66 395.13 194.24 402.06 194.25 408.90 C 199.76 409.41 205.32 409.48 210.83 408.90 C 211.05 402.24 210.02 395.63 209.67 389.00 Z" fill="#eec044" opacity="1.00" stroke="#eec044" stroke-width="0.25"/>
<path d="M 324.54 371.65 C 325.33 373.54 326.80 374.64 328.92 374.40 L 329.19 374.43 L 329.19 374.75 C 329.15 386.75 330.00 398.72 330.30 410.70 C 328.39 410.74 326.48 410.77 324.59 410.98 C 323.54 407.43 323.58 403.70 323.16 400.05 C 323.29 398.57 323.48 397.12 323.69 395.66 C 324.86 399.93 324.93 404.38 325.36 408.76 C 326.55 408.93 327.76 409.11 328.96 409.29 C 329.16 399.47 327.37 389.75 327.69 379.94 C 328.17 377.30 326.06 375.58 324.65 373.70 C 324.62 373.19 324.57 372.16 324.54 371.65 Z" fill="#eec044" opacity="1.00" stroke="#eec044" stroke-width="0.25"/>
<path d="M 267.21 377.10 C 267.54 375.65 267.77 374.18 268.20 372.76 C 268.98 375.85 270.05 379.93 273.92 380.19 C 277.87 379.94 282.16 381.84 285.83 379.79 C 289.94 380.67 293.32 377.73 294.02 373.80 C 299.76 375.14 305.84 377.52 310.20 381.75 C 314.06 385.65 311.84 391.54 311.56 396.32 C 307.41 397.08 303.19 398.11 298.97 397.36 C 293.31 396.57 288.89 391.21 282.88 392.31 C 278.17 392.92 275.87 398.61 270.98 398.71 C 266.68 399.04 264.26 394.30 260.08 394.17 C 254.17 393.44 249.92 399.14 244.05 398.89 C 239.80 399.23 237.14 395.04 233.02 394.87 C 228.04 394.59 224.58 398.87 220.10 400.23 C 218.31 400.54 217.10 398.92 215.66 398.18 C 215.45 392.44 213.53 385.04 218.65 380.82 C 225.29 375.54 234.10 374.00 242.34 373.28 C 242.71 376.48 244.53 379.56 247.85 380.37 C 249.63 379.94 251.39 379.38 253.03 378.55 C 255.82 380.64 260.69 382.03 262.97 378.59 C 264.44 378.30 266.22 378.48 267.21 377.10 Z" fill="#feffff" opacity="1.00" stroke="#feffff" stroke-width="0.25"/>
<path d="M 131.28 375.05 C 148.86 378.58 167.04 378.02 184.65 375.00 C 181.98 396.48 179.22 417.95 176.42 439.41 C 167.51 442.02 158.13 442.10 148.94 441.55 C 144.50 441.30 140.10 440.53 135.83 439.30 C 134.22 417.89 132.21 396.50 131.28 375.05 Z" fill="#6be4fe" opacity="1.00" stroke="#6be4fe" stroke-width="0.25"/>
<path d="M 329.19 374.75 L 330.48 375.33 C 331.09 380.53 330.65 385.82 330.97 391.05 C 330.80 397.58 332.19 404.11 331.55 410.62 C 330.18 413.44 326.25 412.59 323.78 411.96 L 324.59 410.98 C 326.48 410.77 328.39 410.74 330.30 410.70 C 330.00 398.72 329.15 386.75 329.19 374.75 Z" fill="#203028" opacity="1.00" stroke="#203028" stroke-width="0.25"/>
<path d="M 124.03 376.08 C 124.90 376.69 125.77 377.31 126.63 377.94 C 126.45 383.34 127.58 388.68 127.38 394.08 C 125.77 389.64 124.68 385.00 124.08 380.32 C 124.05 378.90 124.03 377.49 124.03 376.08 Z" fill="#f5e2c1" opacity="1.00" stroke="#f5e2c1" stroke-width="0.25"/>
<path d="M 308.53 375.68 C 309.57 376.05 310.52 376.68 311.16 377.60 C 310.05 379.06 307.40 377.18 308.53 375.68 Z" fill="#424419" opacity="1.00" stroke="#424419" stroke-width="0.25"/>
<path d="M 211.59 393.98 C 211.52 390.27 211.20 386.42 212.64 382.91 C 213.58 387.86 212.44 392.94 213.06 397.95 C 212.89 402.17 214.38 406.71 212.45 410.69 C 211.72 405.14 211.79 399.55 211.59 393.98 Z" fill="#22331f" opacity="1.00" stroke="#22331f" stroke-width="0.25"/>
<path d="M 168.95 391.52 C 167.61 390.27 166.62 387.18 168.96 386.40 C 169.63 386.66 170.97 387.19 171.64 387.45 C 171.60 388.44 171.57 389.42 171.55 390.41 C 170.90 390.69 169.60 391.24 168.95 391.52 Z" fill="#bff9fe" opacity="1.00" stroke="#bff9fe" stroke-width="0.25"/>
<path d="M 146.56 394.02 C 147.35 393.01 148.18 390.97 149.83 392.01 C 150.94 392.91 150.60 394.38 150.57 395.62 C 148.90 395.97 147.47 395.52 146.56 394.02 Z" fill="#aef6ff" opacity="1.00" stroke="#aef6ff" stroke-width="0.25"/>
<path d="M 315.64 391.62 C 317.64 394.32 319.19 397.45 319.57 400.83 C 321.22 410.24 320.46 419.82 321.23 429.29 C 318.62 430.25 315.92 430.93 313.28 431.82 C 313.17 426.19 313.06 420.57 313.20 414.94 C 313.38 407.11 314.93 399.40 315.64 391.62 Z" fill="#fbffff" opacity="1.00" stroke="#fbffff" stroke-width="0.25"/>
<path d="M 335.54 411.30 C 335.67 404.81 334.77 398.36 334.87 391.88 C 336.00 398.37 337.66 404.77 338.54 411.30 C 337.54 411.30 336.54 411.30 335.54 411.30 Z" fill="#f4ffff" opacity="1.00" stroke="#f4ffff" stroke-width="0.25"/>
<path d="M 282.81 395.57 C 288.14 395.22 292.04 399.61 297.10 400.49 C 301.67 401.85 306.40 400.91 310.99 400.15 C 310.40 406.06 309.53 411.95 308.50 417.80 C 303.42 416.17 298.31 414.45 292.98 413.95 C 287.07 413.52 281.69 416.36 276.02 417.38 C 270.01 418.28 267.93 409.90 261.90 410.63 C 257.57 411.84 254.89 415.67 251.43 418.24 C 250.30 418.94 248.90 419.90 247.53 419.28 C 243.32 417.36 240.82 412.61 236.03 411.78 C 229.41 411.52 223.05 415.69 216.43 413.42 C 215.15 409.96 215.85 406.19 215.43 402.59 C 218.20 404.15 221.71 404.11 224.31 402.23 C 227.69 400.44 231.67 396.67 235.57 399.42 C 239.39 402.12 244.34 403.46 248.85 401.66 C 252.76 400.71 255.90 397.13 260.11 397.61 C 263.84 398.94 266.77 402.67 271.06 402.27 C 275.89 402.05 279.06 398.05 282.81 395.57 Z" fill="#fed9ac" opacity="1.00" stroke="#fed9ac" stroke-width="0.25"/>
<path d="M 168.60 398.44 C 168.96 398.07 169.67 397.33 170.03 396.95 C 171.96 398.86 171.46 401.61 171.05 404.00 C 169.85 410.78 170.75 417.94 168.52 424.52 C 167.99 424.55 166.93 424.62 166.40 424.66 C 166.26 420.74 166.37 416.81 167.07 412.95 C 167.85 408.14 167.42 403.18 168.60 398.44 Z" fill="#edffff" opacity="1.00" stroke="#edffff" stroke-width="0.25"/>
<path d="M 260.91 414.70 C 261.82 414.52 262.72 414.36 263.63 414.19 C 266.55 416.18 268.60 419.51 272.08 420.59 C 279.63 422.18 286.45 416.61 293.99 417.58 C 298.71 418.39 303.24 420.03 307.79 421.50 C 307.51 424.61 307.07 427.71 306.49 430.78 L 305.58 430.62 C 296.51 428.02 286.91 432.51 278.02 429.02 C 273.74 427.54 269.74 424.65 265.01 425.08 C 260.06 424.74 255.96 428.36 251.06 428.24 C 242.61 428.07 234.50 425.16 226.06 424.88 C 222.82 424.85 219.60 425.28 216.37 425.45 C 216.44 422.46 215.62 419.32 216.56 416.42 C 222.43 419.79 228.84 415.13 234.95 415.27 C 239.09 415.61 241.05 419.78 244.37 421.66 C 247.21 423.64 251.22 422.97 253.83 420.90 C 256.27 418.93 258.39 416.59 260.91 414.70 Z" fill="#fcffff" opacity="1.00" stroke="#fcffff" stroke-width="0.25"/>
<path d="M 183.66 420.34 C 193.22 419.40 202.82 418.55 212.43 418.34 C 212.49 421.61 212.63 424.89 212.62 428.17 C 201.57 430.32 190.21 433.75 181.28 440.84 C 181.69 433.97 183.01 427.19 183.66 420.34 Z" fill="#feffff" opacity="1.00" stroke="#feffff" stroke-width="0.25"/>
<path d="M 324.44 419.34 C 346.92 420.80 369.43 423.14 391.52 427.72 C 402.30 430.18 413.22 432.77 423.11 437.86 C 426.06 439.53 429.39 441.46 430.49 444.89 C 430.80 447.50 428.77 449.50 426.89 450.95 C 421.35 455.05 414.62 457.06 408.15 459.19 C 382.43 466.58 355.65 468.97 329.12 471.53 C 335.29 467.91 343.28 464.96 345.40 457.36 C 349.77 454.91 354.56 452.77 357.83 448.82 C 359.84 446.48 359.96 442.92 358.81 440.17 C 357.00 437.29 353.87 435.62 350.96 434.06 C 342.65 430.27 333.65 428.15 324.61 427.11 C 324.44 424.52 324.42 421.92 324.44 419.34 Z" fill="#ffffff" opacity="1.00" stroke="#ffffff" stroke-width="0.25"/>
<path d="M 216.37 425.45 C 219.60 425.28 222.82 424.85 226.06 424.88 C 234.50 425.16 242.61 428.07 251.06 428.24 C 255.96 428.36 260.06 424.74 265.01 425.08 C 269.74 424.65 273.74 427.54 278.02 429.02 C 286.91 432.51 296.51 428.02 305.58 430.62 C 305.62 431.69 305.67 432.77 305.72 433.85 L 305.47 433.83 C 295.96 432.00 286.08 435.93 276.82 432.41 C 272.84 431.22 269.35 428.09 264.99 428.51 C 260.48 428.71 256.55 431.49 252.03 431.63 C 245.93 431.88 239.97 430.26 233.99 429.31 C 228.24 428.19 222.35 428.29 216.55 428.88 C 216.48 434.72 216.92 440.55 217.40 446.37 C 219.04 446.42 220.69 446.48 222.35 446.55 C 223.44 444.13 224.41 441.25 227.05 440.10 C 233.53 436.93 241.19 436.32 248.17 438.00 C 253.03 439.92 258.16 442.80 260.65 447.59 C 260.70 450.34 261.04 453.22 263.10 455.26 C 262.82 456.19 262.53 457.12 262.22 458.05 C 257.62 460.58 252.29 461.77 247.05 461.47 C 243.09 461.25 239.76 458.91 236.02 457.91 C 233.05 457.45 230.08 458.50 227.10 458.24 C 225.21 457.98 223.86 456.48 222.46 455.35 C 222.37 453.53 222.27 451.73 222.16 449.92 C 219.37 449.90 216.58 449.77 213.80 449.47 C 213.49 445.43 213.35 441.39 213.21 437.34 C 215.46 435.90 214.75 433.17 215.07 430.94 C 214.99 429.14 216.58 428.02 217.55 426.73 C 217.16 426.30 216.76 425.87 216.37 425.45 Z" fill="#0f2c44" opacity="1.00" stroke="#0f2c44" stroke-width="0.25"/>
<path d="M 117.02 429.87 C 121.38 428.82 125.74 427.52 130.25 427.31 C 130.41 432.62 130.98 437.90 131.72 443.16 C 146.73 448.56 163.41 447.96 178.74 444.18 C 176.55 447.28 176.57 451.95 179.61 454.51 C 184.84 459.08 191.45 461.73 198.06 463.61 C 212.03 467.50 226.54 469.22 241.00 469.73 C 256.97 470.71 273.02 470.08 288.94 468.66 C 289.10 470.38 289.55 472.07 290.96 473.19 C 243.62 474.73 196.12 473.06 149.11 467.19 C 134.94 465.16 120.83 462.49 107.08 458.49 C 100.86 456.19 94.27 454.27 89.10 449.93 C 87.63 448.66 87.21 446.69 86.56 444.96 C 87.51 443.50 88.23 441.81 89.71 440.81 C 97.75 434.95 107.52 432.29 117.02 429.87 Z" fill="#ffffff" opacity="1.00" stroke="#ffffff" stroke-width="0.25"/>
<path d="M 216.55 428.88 C 222.35 428.29 228.24 428.19 233.99 429.31 C 239.97 430.26 245.93 431.88 252.03 431.63 C 256.55 431.49 260.48 428.71 264.99 428.51 C 269.35 428.09 272.84 431.22 276.82 432.41 C 286.08 435.93 295.96 432.00 305.47 433.83 C 305.41 439.25 303.98 444.54 303.50 449.93 C 293.98 449.48 284.45 449.35 274.94 448.65 C 270.18 448.32 265.34 448.61 260.65 447.59 C 258.16 442.80 253.03 439.92 248.17 438.00 C 241.19 436.32 233.53 436.93 227.05 440.10 C 224.41 441.25 223.44 444.13 222.35 446.55 C 220.69 446.48 219.04 446.42 217.40 446.37 C 216.92 440.55 216.48 434.72 216.55 428.88 Z" fill="#fedaad" opacity="1.00" stroke="#fedaad" stroke-width="0.25"/>
<path d="M 193.90 437.62 C 199.93 435.10 206.20 433.09 212.58 431.70 C 213.08 433.53 213.11 435.45 213.21 437.34 C 213.35 441.39 213.49 445.43 213.80 449.47 C 216.58 449.77 219.37 449.90 222.16 449.92 C 222.27 451.73 222.37 453.53 222.46 455.35 C 223.86 456.48 225.21 457.98 227.10 458.24 C 230.08 458.50 233.05 457.45 236.02 457.91 C 239.76 458.91 243.09 461.25 247.05 461.47 C 252.29 461.77 257.62 460.58 262.22 458.05 C 262.53 457.12 262.82 456.19 263.10 455.26 C 263.28 454.05 263.38 452.83 263.40 451.61 C 274.72 452.54 286.09 452.59 297.42 453.34 C 294.36 457.04 292.12 461.32 289.36 465.23 C 260.58 467.00 231.23 467.95 202.99 461.13 C 195.86 459.14 188.33 457.14 182.58 452.24 C 181.37 450.90 179.78 448.88 181.02 447.08 C 183.58 442.05 189.13 439.94 193.90 437.62 Z" fill="#feffff" opacity="1.00" stroke="#feffff" stroke-width="0.25"/>
<path d="M 324.47 430.58 C 334.63 432.29 345.11 434.40 353.90 440.07 C 356.59 441.47 356.36 445.59 354.25 447.41 C 351.63 449.81 348.61 451.85 345.22 452.99 C 344.83 447.17 341.96 441.17 336.41 438.70 C 332.73 436.44 328.45 438.20 324.61 438.99 C 324.60 436.18 324.56 433.38 324.47 430.58 Z" fill="#fdffff" opacity="1.00" stroke="#fdffff" stroke-width="0.25"/>
<path d="M 313.43 435.18 C 315.81 434.32 318.33 433.96 320.76 433.25 C 321.12 435.50 321.24 437.79 321.17 440.08 C 317.39 441.92 316.38 446.24 313.71 449.16 C 313.07 444.55 313.07 439.81 313.43 435.18 Z" fill="#f9d9ad" opacity="1.00" stroke="#f9d9ad" stroke-width="0.25"/>
<path d="M 307.18 449.40 C 307.75 444.54 308.21 439.61 309.35 434.86 C 310.02 439.39 309.90 444.00 310.44 448.56 C 309.35 448.84 308.26 449.12 307.18 449.40 Z" fill="#f5e2c1" opacity="1.00" stroke="#f5e2c1" stroke-width="0.25"/>
<path d="M 229.57 442.64 C 236.76 439.99 245.66 439.12 252.16 443.96 C 255.88 446.53 260.42 450.14 259.60 455.24 C 255.17 457.80 249.88 458.31 244.90 457.46 C 241.87 456.65 239.25 454.44 236.00 454.48 C 232.49 454.42 228.99 454.64 225.49 454.41 C 225.11 450.19 225.21 444.81 229.57 442.64 Z" fill="#f05231" opacity="1.00" stroke="#f05231" stroke-width="0.25"/>
<path d="M 321.68 443.61 C 326.03 442.73 330.64 439.82 335.09 441.92 C 339.79 444.37 342.22 449.80 341.75 454.99 C 342.24 458.45 339.55 461.05 337.02 462.93 C 334.08 464.99 330.83 466.57 327.83 468.56 C 327.68 467.05 327.69 465.46 326.83 464.16 C 324.04 459.25 321.74 454.08 318.75 449.28 C 319.50 447.29 320.09 445.13 321.68 443.61 Z" fill="#feffff" opacity="1.00" stroke="#feffff" stroke-width="0.25"/>
<path d="M 311.68 454.67 C 313.82 452.61 316.57 451.31 318.75 449.28 C 321.74 454.08 324.04 459.25 326.83 464.16 C 327.69 465.46 327.68 467.05 327.83 468.56 C 323.83 470.97 319.56 473.46 314.79 473.71 C 311.73 470.97 308.28 467.50 308.81 463.02 C 309.33 460.14 309.84 457.04 311.68 454.67 Z" fill="#fed9ac" opacity="1.00" stroke="#fed9ac" stroke-width="0.25"/>
<path d="M 299.84 455.70 C 301.84 452.97 305.57 452.51 308.71 452.42 C 305.69 458.45 303.43 466.51 308.54 472.12 C 305.40 473.00 302.15 473.38 298.89 473.29 C 296.30 472.15 291.47 470.84 292.78 467.07 C 294.81 463.10 297.02 459.17 299.84 455.70 Z" fill="#fdfefe" opacity="1.00" stroke="#fdfefe" stroke-width="0.25"/>
</svg>