<?xml version="1.0" encoding="utf-8"?>
<svg xmlns="http://www.w3.org/2000/svg" height="512pt" version="1.1" viewBox="0 0 512 512" width="512pt">
<path d="M 0.00 0.00 L 512.00 0.00 L 512.00 512.00 L 0.00 512.00 L 0.00 0.00 Z" fill="transparent" opacity="1.00" stroke="transparent" stroke-width="0.25"/>
<path d="M 335.75 74.73 C 344.17 68.35 352.41 61.73 360.88 55.43 C 363.85 59.30 366.83 63.16 369.76 67.06 C 369.69 67.53 369.54 68.47 369.47 68.94 C 356.21 78.80 343.50 89.38 330.26 99.27 C 320.54 107.16 310.44 114.59 300.72 122.48 C 298.75 132.08 298.02 141.90 296.30 151.54 C 310.56 151.99 324.85 151.54 339.12 151.78 C 342.17 151.85 343.85 155.30 343.24 158.01 C 333.69 246.90 323.59 335.74 313.93 424.62 C 313.05 432.01 312.43 439.45 311.31 446.81 C 310.46 452.19 305.40 456.45 299.99 456.53 C 268.99 456.55 237.99 456.50 206.99 456.53 C 203.98 456.59 200.78 456.48 198.17 454.78 C 194.34 452.59 192.40 448.21 192.15 443.95 C 182.06 350.57 171.51 257.24 161.38 163.87 C 161.18 160.37 160.23 156.76 161.52 153.35 C 162.93 152.57 164.35 151.58 166.06 151.73 C 204.15 151.73 242.24 151.71 280.34 151.74 C 281.98 139.06 284.10 126.43 285.74 113.75 C 302.13 100.40 319.25 87.95 335.75 74.73 Z" fill="#0a4673" opacity="1.00" stroke="#0a4673" stroke-width="0.25"/>
<path d="M 162.55 154.89 C 163.66 154.29 164.61 153.09 165.99 153.22 C 203.99 153.18 241.99 153.27 280.00 153.17 C 279.71 155.49 279.40 157.80 279.08 160.11 C 240.31 159.73 201.53 160.13 162.75 159.89 C 162.69 158.22 162.63 156.55 162.55 154.89 Z" fill="#c7f2fe" opacity="1.00" stroke="#c7f2fe" stroke-width="0.25"/>
<path d="M 296.08 153.24 C 310.07 153.19 324.07 153.23 338.07 153.21 C 339.80 152.89 340.65 154.46 341.57 155.59 C 341.45 157.02 341.33 158.44 341.23 159.87 C 325.90 160.37 310.57 159.79 295.25 160.02 C 295.52 157.76 295.80 155.50 296.08 153.24 Z" fill="#c7f2fe" opacity="1.00" stroke="#c7f2fe" stroke-width="0.25"/>
<path d="M 163.42 161.44 C 201.87 161.46 240.32 161.50 278.77 161.42 C 277.66 171.87 275.48 182.18 274.38 192.63 C 241.45 192.78 208.50 192.70 175.57 192.67 C 184.39 268.41 193.14 344.19 201.95 419.94 C 202.35 425.00 205.10 430.29 210.31 431.72 C 233.93 439.03 259.46 439.36 283.57 434.37 C 288.29 432.98 293.70 432.74 297.56 429.39 C 300.80 426.52 301.40 421.96 302.06 417.92 C 310.96 342.87 319.34 267.76 328.32 192.72 C 315.70 192.68 303.07 192.73 290.45 192.70 C 291.76 182.26 293.55 171.89 294.80 161.46 C 310.06 161.50 325.31 161.42 340.57 161.47 C 338.15 180.98 336.41 200.56 334.19 220.09 C 330.64 248.69 328.13 277.41 324.55 306.00 C 319.70 352.06 314.32 398.07 309.46 444.13 C 309.28 447.71 307.58 451.48 304.26 453.15 C 302.04 454.38 299.43 454.33 296.98 454.34 C 266.32 454.24 235.65 454.40 204.99 454.27 C 200.46 454.43 195.96 451.48 194.98 446.93 C 194.11 442.15 193.77 437.28 193.25 432.46 C 183.48 342.10 173.35 251.78 163.42 161.44 Z" fill="#c7f2fe" opacity="1.00" stroke="#c7f2fe" stroke-width="0.25"/>
<path d="M 176.25 194.57 C 177.79 194.18 179.34 193.72 180.96 193.76 C 229.52 193.72 278.09 193.82 326.65 193.72 C 326.31 197.20 326.92 200.95 325.69 204.24 C 323.90 204.37 322.11 204.45 320.32 204.52 C 319.09 208.09 318.60 211.85 318.30 215.61 C 310.85 277.70 303.68 339.83 296.21 401.92 C 295.65 406.46 295.60 411.11 294.39 415.56 C 293.05 419.24 289.43 421.52 285.98 422.98 C 279.25 425.36 272.12 426.26 265.05 426.85 C 251.38 428.32 237.55 427.32 224.06 424.83 C 218.63 423.76 212.60 421.61 209.76 416.51 C 208.23 410.93 208.47 405.05 207.58 399.36 C 202.38 358.25 198.05 317.05 192.84 275.94 C 190.83 255.57 187.89 235.30 185.57 214.96 C 185.18 211.39 184.64 207.84 183.94 204.32 C 182.09 204.34 180.23 204.36 178.39 204.39 L 177.73 204.40 C 177.45 201.12 178.25 197.45 176.25 194.57 Z" fill="#fea422" opacity="1.00" stroke="#fea422" stroke-width="0.25"/>
<path d="M 178.39 204.39 C 180.23 204.36 182.09 204.34 183.94 204.32 C 184.64 207.84 185.18 211.39 185.57 214.96 C 187.89 235.30 190.83 255.57 192.84 275.94 C 198.05 317.05 202.38 358.25 207.58 399.36 C 208.47 405.05 208.23 410.93 209.76 416.51 C 212.60 421.61 218.63 423.76 224.06 424.83 C 237.55 427.32 251.38 428.32 265.05 426.85 C 272.12 426.26 279.25 425.36 285.98 422.98 C 289.43 421.52 293.05 419.24 294.39 415.56 C 295.60 411.11 295.65 406.46 296.21 401.92 C 303.68 339.83 310.85 277.70 318.30 215.61 C 318.60 211.85 319.09 208.09 320.32 204.52 C 322.11 204.45 323.90 204.37 325.69 204.24 C 325.08 211.86 323.66 219.40 323.20 227.05 C 321.95 232.27 321.89 237.75 321.29 243.09 C 320.25 249.05 319.87 255.10 319.31 261.11 C 318.16 267.02 317.77 273.05 317.24 279.05 C 315.72 285.22 316.06 291.74 314.68 297.97 C 314.40 303.01 313.61 307.99 313.19 313.02 C 312.09 315.93 312.60 319.07 312.19 322.09 C 311.74 325.06 311.42 328.04 311.20 331.03 C 309.69 337.65 310.00 344.62 308.67 351.30 C 308.29 353.49 308.32 355.74 308.17 357.96 C 306.23 371.90 304.34 385.96 303.28 400.04 C 301.93 403.13 302.65 406.63 301.86 409.87 C 300.89 415.59 301.36 421.96 298.00 426.95 C 296.67 429.14 294.18 430.04 292.06 431.26 C 290.71 431.54 289.35 431.82 288.00 432.10 C 286.64 432.32 285.28 432.57 284.05 433.19 C 266.61 436.78 248.63 437.40 230.97 435.22 C 227.39 434.00 223.47 434.51 219.89 433.23 C 216.63 431.89 212.97 431.81 209.79 430.22 C 206.65 429.10 204.91 426.01 203.74 423.10 C 202.47 416.13 201.67 409.09 201.22 402.02 C 200.20 397.48 199.81 392.79 199.49 388.15 C 197.77 376.14 196.66 364.00 195.20 352.00 L 194.71 351.05 C 193.41 333.57 190.76 316.24 189.17 298.78 C 187.84 292.62 188.22 286.14 186.73 280.07 C 184.81 260.64 182.24 241.28 180.12 221.88 C 179.66 219.12 179.43 216.34 179.46 213.55 L 178.57 213.45 C 178.52 210.43 178.39 207.41 178.39 204.39 Z" fill="#ee512e" opacity="1.00" stroke="#ee512e" stroke-width="0.25"/>
<path d="M 196.41 204.69 C 201.15 202.82 206.17 204.57 211.06 204.63 C 213.15 204.42 214.79 206.20 214.58 208.24 C 215.60 224.24 215.96 240.27 216.79 256.28 C 217.74 263.49 217.21 270.79 217.97 278.02 C 218.92 287.67 218.08 297.40 219.34 307.02 C 219.58 317.39 220.65 327.71 220.66 338.09 C 221.86 348.05 221.47 358.10 222.42 368.08 C 222.42 375.11 223.05 382.10 223.38 389.11 C 221.79 390.54 219.97 391.72 217.84 392.15 C 216.97 388.55 216.54 384.87 216.30 381.18 C 211.92 342.78 207.80 304.35 203.25 265.97 C 200.58 245.59 198.81 225.10 196.41 204.69 Z" fill="#fed76e" opacity="1.00" stroke="#fed76e" stroke-width="0.25"/>
</svg>