<?xml version="1.0" encoding="utf-8"?>
<svg xmlns="http://www.w3.org/2000/svg" height="512pt" version="1.1" viewBox="0 0 512 512" width="512pt">
<path d="M 0.00 0.00 L 512.00 0.00 L 512.00 512.00 L 0.00 512.00 L 0.00 0.00 Z" fill="transparent" opacity="1.00" stroke="transparent" stroke-width="0.25"/>
<path d="M 220.13 137.09 C 223.25 134.58 227.00 131.64 231.28 132.73 C 232.81 133.56 233.94 134.94 235.18 136.14 C 238.47 145.32 238.18 155.41 235.84 164.77 C 235.45 166.83 234.56 168.83 234.61 170.95 C 236.87 172.03 239.22 173.02 241.13 174.70 C 244.31 169.42 247.25 163.80 251.87 159.58 C 257.77 154.50 265.56 152.49 273.01 150.95 C 278.14 149.84 283.57 150.56 288.21 153.03 C 291.13 158.44 289.29 164.85 287.66 170.38 C 283.71 183.57 272.36 194.39 258.73 196.97 C 259.74 204.40 258.25 211.92 255.69 218.90 C 253.85 224.15 252.29 230.42 255.51 235.46 C 259.50 242.21 267.19 245.09 274.03 248.03 C 285.74 252.99 296.33 260.93 303.51 271.51 C 307.16 277.43 310.90 283.44 312.76 290.21 C 315.94 300.70 317.89 311.54 321.48 321.92 C 324.66 330.29 330.10 338.36 338.41 342.32 C 346.56 346.16 355.68 347.10 364.55 347.88 C 362.47 348.34 360.42 348.87 358.35 349.37 C 359.70 350.15 361.03 350.92 362.40 351.68 C 352.39 350.77 341.90 349.53 333.23 344.01 C 327.29 340.17 322.74 334.40 319.84 327.99 C 314.81 317.21 312.79 305.41 309.95 293.95 C 309.16 290.37 307.68 287.00 305.85 283.84 C 300.68 272.59 292.33 262.82 281.62 256.52 C 274.79 252.33 266.96 250.10 260.20 245.80 C 255.56 242.40 250.93 237.99 249.99 232.04 C 248.53 225.06 251.86 218.50 253.77 211.98 C 255.16 206.23 254.78 200.27 254.47 194.43 C 260.84 192.18 267.60 190.36 272.87 185.89 C 281.46 179.02 284.80 167.92 286.67 157.52 C 283.24 153.62 277.60 154.23 272.98 154.98 C 267.75 156.06 262.47 157.40 257.72 159.90 C 250.85 164.36 246.96 171.89 243.44 179.02 C 240.87 178.37 238.41 177.40 236.06 176.20 C 229.74 172.71 222.19 171.28 215.12 173.02 C 207.12 175.33 201.13 181.52 195.42 187.24 C 195.07 187.70 194.73 188.16 194.41 188.64 C 196.15 193.53 196.05 199.42 192.48 203.49 C 188.72 207.98 182.31 208.66 176.87 207.71 C 183.38 216.12 197.28 216.40 204.06 208.22 C 204.77 208.30 206.19 208.46 206.89 208.54 C 206.23 213.90 200.20 215.69 195.91 217.45 C 193.35 217.85 190.79 218.16 188.23 218.51 C 197.17 226.95 208.64 232.94 220.98 234.11 C 225.36 234.26 229.70 233.41 234.07 233.37 C 233.51 234.69 232.94 236.00 232.35 237.31 C 228.16 237.66 223.97 237.96 219.78 238.33 C 218.22 245.21 216.14 251.97 215.08 258.96 C 213.30 272.27 213.22 285.76 213.96 299.16 C 218.97 293.78 222.64 287.30 227.83 282.05 C 222.79 273.66 220.85 262.90 224.79 253.69 C 226.17 250.08 229.41 247.81 231.77 244.91 C 232.73 244.76 234.66 244.46 235.62 244.31 C 235.62 245.33 235.62 246.35 235.62 247.37 C 231.99 249.71 228.86 252.99 227.51 257.16 C 225.28 264.01 226.82 271.47 229.96 277.78 C 230.45 277.73 231.44 277.63 231.93 277.58 C 232.42 278.16 233.39 279.33 233.88 279.92 C 225.67 290.97 216.74 301.61 210.27 313.84 C 209.14 313.46 207.98 313.14 206.79 313.03 L 205.96 312.91 C 207.24 310.94 208.83 309.11 209.68 306.89 C 209.60 299.78 209.66 292.66 209.47 285.56 C 202.61 286.94 195.55 286.96 188.62 286.24 C 187.18 290.07 185.33 294.35 181.42 296.20 C 177.44 296.93 172.45 297.75 169.47 294.28 C 167.30 288.69 171.02 283.48 174.43 279.38 C 176.69 276.78 178.53 273.48 181.67 271.88 C 190.86 270.00 200.30 270.94 209.59 270.16 C 210.36 267.11 210.34 263.95 210.73 260.84 C 211.78 252.97 214.09 245.35 215.88 237.63 C 202.51 235.01 190.81 227.18 181.38 217.60 C 175.47 212.89 171.44 206.09 169.62 198.81 C 168.50 193.79 170.04 188.38 174.00 185.01 C 179.28 181.01 186.53 181.75 191.89 185.19 C 197.02 179.99 202.26 174.68 208.68 171.09 C 207.76 158.86 211.00 145.74 220.13 137.09 Z" fill="#083455" opacity="1.00" stroke="#083455" stroke-width="0.25"/>
<path d="M 226.94 136.92 C 228.82 135.71 230.49 137.05 231.66 138.51 C 226.34 141.92 224.95 148.34 223.74 154.09 C 223.02 158.63 223.36 163.25 223.53 167.82 C 220.10 168.31 216.64 168.55 213.18 168.77 C 213.29 162.84 212.53 156.53 215.27 151.04 C 217.57 145.30 221.65 140.13 226.94 136.92 Z" fill="#8b4c3e" opacity="1.00" stroke="#8b4c3e" stroke-width="0.25"/>
<path d="M 257.72 159.90 C 262.47 157.40 267.75 156.06 272.98 154.98 C 277.60 154.23 283.24 153.62 286.67 157.52 C 284.80 167.92 281.46 179.02 272.87 185.89 C 267.60 190.36 260.84 192.18 254.47 194.43 C 254.78 200.27 255.16 206.23 253.77 211.98 C 253.35 212.28 252.51 212.88 252.09 213.18 C 252.90 207.37 253.51 201.48 252.66 195.64 C 250.89 194.52 247.97 194.24 247.42 191.89 C 246.46 188.01 243.60 184.94 243.01 180.94 C 241.12 180.25 239.23 179.58 237.34 178.92 C 237.02 178.24 236.38 176.88 236.06 176.20 C 238.41 177.40 240.87 178.37 243.44 179.02 C 246.96 171.89 250.85 164.36 257.72 159.90 Z" fill="#c96841" opacity="1.00" stroke="#c96841" stroke-width="0.25"/>
<path d="M 248.92 175.74 C 254.34 166.92 263.72 160.62 274.00 159.17 C 276.82 158.34 279.73 158.66 282.39 159.87 C 282.31 167.90 279.82 176.25 274.09 182.07 C 268.03 188.71 258.89 192.21 250.00 192.41 C 247.87 192.92 248.41 190.29 248.19 189.10 L 249.77 188.86 C 257.61 187.80 265.82 185.36 271.35 179.38 C 275.76 174.90 277.77 168.67 278.73 162.59 C 271.58 163.06 264.46 165.30 258.95 170.00 C 254.01 174.14 250.72 179.81 247.69 185.40 C 247.06 185.44 245.81 185.51 245.18 185.54 C 245.01 181.87 246.99 178.69 248.92 175.74 Z" fill="#10354e" opacity="1.00" stroke="#10354e" stroke-width="0.25"/>
<path d="M 258.95 170.00 C 264.46 165.30 271.58 163.06 278.73 162.59 C 277.77 168.67 275.76 174.90 271.35 179.38 C 265.82 185.36 257.61 187.80 249.77 188.86 C 249.13 187.67 248.40 186.53 247.69 185.40 C 250.72 179.81 254.01 174.14 258.95 170.00 Z" fill="#fdce98" opacity="1.00" stroke="#fdce98" stroke-width="0.25"/>
<path d="M 195.42 187.24 C 201.13 181.52 207.12 175.33 215.12 173.02 C 222.19 171.28 229.74 172.71 236.06 176.20 C 236.38 176.88 237.02 178.24 237.34 178.92 C 239.23 179.58 241.12 180.25 243.01 180.94 C 243.60 184.94 246.46 188.01 247.42 191.89 C 247.97 194.24 250.89 194.52 252.66 195.64 C 253.51 201.48 252.90 207.37 252.09 213.18 C 252.51 212.88 253.35 212.28 253.77 211.98 C 251.86 218.50 248.53 225.06 249.99 232.04 C 250.93 237.99 255.56 242.40 260.20 245.80 C 266.96 250.10 274.79 252.33 281.62 256.52 C 292.33 262.82 300.68 272.59 305.85 283.84 C 307.81 290.70 310.15 297.73 309.28 304.97 C 308.28 313.82 306.97 323.19 301.56 330.57 C 299.18 333.97 296.36 337.13 292.87 339.44 C 287.36 343.06 281.01 345.49 274.41 345.97 C 274.38 344.50 274.36 343.04 274.35 341.59 C 273.30 341.46 272.26 341.34 271.23 341.23 C 269.72 349.61 270.71 358.19 270.35 366.66 C 262.88 366.41 255.47 365.01 247.98 365.28 C 237.34 365.79 226.69 365.49 216.04 365.51 C 226.88 365.06 237.79 366.25 248.58 364.83 C 238.02 363.92 227.39 364.94 216.82 364.37 C 216.61 363.68 216.18 362.32 215.97 361.63 C 223.58 360.76 231.22 360.33 238.88 360.32 C 246.20 359.69 253.53 359.65 260.87 359.79 C 260.64 355.40 260.16 351.03 259.31 346.73 C 259.21 342.59 257.43 338.20 259.16 334.24 C 258.45 334.54 257.75 334.86 257.07 335.19 C 257.11 334.69 257.20 333.70 257.24 333.20 C 256.97 332.95 256.42 332.44 256.14 332.19 C 254.99 332.69 253.85 333.19 252.70 333.68 C 250.98 332.02 249.17 330.47 247.32 328.96 C 238.15 318.70 236.18 302.30 243.76 290.61 C 247.73 282.19 256.15 276.38 265.20 274.74 C 269.43 274.25 273.69 274.85 277.94 274.52 C 277.39 270.66 272.89 270.79 269.95 270.48 C 259.02 269.75 249.02 276.22 242.29 284.34 C 240.44 286.38 240.00 289.15 239.44 291.74 C 229.31 299.21 220.24 309.41 218.10 322.22 C 218.05 317.95 214.82 314.83 210.76 314.03 L 210.27 313.84 C 216.74 301.61 225.67 290.97 233.88 279.92 C 235.55 278.45 233.66 276.40 231.93 277.58 C 231.44 277.63 230.45 277.73 229.96 277.78 C 226.82 271.47 225.28 264.01 227.51 257.16 C 228.86 252.99 231.99 249.71 235.62 247.37 C 235.62 246.35 235.62 245.33 235.62 244.31 C 234.66 244.46 232.73 244.76 231.77 244.91 C 231.72 242.36 231.46 239.75 232.35 237.31 C 232.94 236.00 233.51 234.69 234.07 233.37 C 229.70 233.41 225.36 234.26 220.98 234.11 C 208.64 232.94 197.17 226.95 188.23 218.51 C 190.79 218.16 193.35 217.85 195.91 217.45 C 203.94 224.01 215.04 225.13 225.02 224.15 C 231.12 223.56 238.33 222.53 241.86 216.83 C 244.29 214.06 244.14 209.95 242.11 207.00 C 240.02 202.92 235.57 201.22 231.63 199.47 C 230.38 197.17 229.36 194.47 226.95 193.13 C 221.69 189.46 213.58 193.22 212.48 199.44 C 208.93 199.97 205.52 201.15 202.52 203.16 C 200.86 200.45 198.27 198.52 196.36 196.02 C 195.14 193.27 195.36 190.17 195.42 187.24 Z" fill="#da6739" opacity="1.00" stroke="#da6739" stroke-width="0.25"/>
<path d="M 181.23 190.40 C 181.43 188.97 181.04 187.09 182.77 186.49 C 184.15 186.44 185.54 186.45 186.92 186.52 C 187.56 187.32 188.21 188.13 188.86 188.93 C 188.83 189.76 188.76 191.41 188.73 192.24 C 186.01 193.17 183.47 191.84 181.23 190.40 Z" fill="#f8fdfd" opacity="1.00" stroke="#f8fdfd" stroke-width="0.25"/>
<path d="M 194.41 188.64 C 194.73 188.16 195.07 187.70 195.42 187.24 C 195.36 190.17 195.14 193.27 196.36 196.02 C 198.27 198.52 200.86 200.45 202.52 203.16 C 203.05 204.84 203.49 206.55 204.06 208.22 C 197.28 216.40 183.38 216.12 176.87 207.71 C 182.31 208.66 188.72 207.98 192.48 203.49 C 196.05 199.42 196.15 193.53 194.41 188.64 Z" fill="#fcce97" opacity="1.00" stroke="#fcce97" stroke-width="0.25"/>
<path d="M 212.48 199.44 C 213.58 193.22 221.69 189.46 226.95 193.13 C 229.36 194.47 230.38 197.17 231.63 199.47 C 230.90 202.09 230.64 204.96 229.11 207.29 C 225.54 211.85 217.58 211.42 214.38 206.65 C 212.91 204.54 212.75 201.90 212.48 199.44 Z" fill="#a3684f" opacity="1.00" stroke="#a3684f" stroke-width="0.25"/>
<path d="M 216.21 194.82 C 219.24 193.61 222.92 192.34 225.88 194.46 C 229.95 196.38 230.77 202.06 228.51 205.64 C 227.43 207.77 225.03 208.53 223.10 209.66 L 222.71 209.45 C 220.32 208.11 217.85 206.94 215.41 205.71 C 215.18 205.39 214.71 204.74 214.47 204.42 C 214.89 201.39 215.48 198.40 216.09 195.41 L 216.21 194.82 Z" fill="#03345a" opacity="1.00" stroke="#03345a" stroke-width="0.25"/>
<path d="M 214.47 204.42 C 213.69 201.40 213.21 197.49 216.09 195.41 C 215.48 198.40 214.89 201.39 214.47 204.42 Z" fill="#342f39" opacity="1.00" stroke="#342f39" stroke-width="0.25"/>
<path d="M 202.52 203.16 C 205.52 201.15 208.93 199.97 212.48 199.44 C 212.75 201.90 212.91 204.54 214.38 206.65 C 217.58 211.42 225.54 211.85 229.11 207.29 C 230.64 204.96 230.90 202.09 231.63 199.47 C 235.57 201.22 240.02 202.92 242.11 207.00 C 244.14 209.95 244.29 214.06 241.86 216.83 C 238.33 222.53 231.12 223.56 225.02 224.15 C 215.04 225.13 203.94 224.01 195.91 217.45 C 200.20 215.69 206.23 213.90 206.89 208.54 C 206.19 208.46 204.77 208.30 204.06 208.22 C 203.49 206.55 203.05 204.84 202.52 203.16 Z" fill="#ff7c36" opacity="1.00" stroke="#ff7c36" stroke-width="0.25"/>
<path d="M 215.41 205.71 C 217.85 206.94 220.32 208.11 222.71 209.45 C 219.98 209.38 216.23 208.84 215.41 205.71 Z" fill="#322d35" opacity="1.00" stroke="#322d35" stroke-width="0.25"/>
<path d="M 219.78 238.33 C 223.97 237.96 228.16 237.66 232.35 237.31 C 231.46 239.75 231.72 242.36 231.77 244.91 C 229.41 247.81 226.17 250.08 224.79 253.69 C 220.85 262.90 222.79 273.66 227.83 282.05 C 222.64 287.30 218.97 293.78 213.96 299.16 C 213.22 285.76 213.30 272.27 215.08 258.96 C 216.14 251.97 218.22 245.21 219.78 238.33 Z" fill="#fdce98" opacity="1.00" stroke="#fdce98" stroke-width="0.25"/>
<path d="M 242.29 284.34 C 249.02 276.22 259.02 269.75 269.95 270.48 C 272.89 270.79 277.39 270.66 277.94 274.52 C 273.69 274.85 269.43 274.25 265.20 274.74 C 256.15 276.38 247.73 282.19 243.76 290.61 C 236.18 302.30 238.15 318.70 247.32 328.96 C 249.38 331.73 251.47 334.53 252.73 337.78 C 251.98 337.73 250.48 337.64 249.73 337.59 C 247.20 334.42 244.24 331.62 241.87 328.34 C 236.42 320.45 234.49 310.70 234.66 301.24 C 231.67 304.45 228.94 307.90 226.35 311.44 C 223.52 315.18 222.84 319.96 221.94 324.44 C 220.68 324.60 219.43 324.77 218.18 324.94 C 216.59 320.77 214.22 316.91 210.76 314.03 C 214.82 314.83 218.05 317.95 218.10 322.22 C 220.24 309.41 229.31 299.21 239.44 291.74 C 240.00 289.15 240.44 286.38 242.29 284.34 Z" fill="#0d334f" opacity="1.00" stroke="#0d334f" stroke-width="0.25"/>
<path d="M 182.66 275.60 C 191.55 273.99 200.61 274.73 209.59 274.38 C 209.56 276.72 209.54 279.07 209.54 281.42 C 201.83 283.67 193.61 282.15 185.69 282.32 C 184.32 286.27 183.69 291.11 179.25 292.83 C 180.06 290.17 181.12 287.18 179.22 284.70 C 178.40 284.62 176.75 284.46 175.93 284.38 C 177.44 280.94 180.31 278.44 182.66 275.60 Z" fill="#8a4b3c" opacity="1.00" stroke="#8a4b3c" stroke-width="0.25"/>
<path d="M 231.93 277.58 C 233.66 276.40 235.55 278.45 233.88 279.92 C 233.39 279.33 232.42 278.16 231.93 277.58 Z" fill="#5e3732" opacity="1.00" stroke="#5e3732" stroke-width="0.25"/>
<path d="M 305.85 283.84 C 307.68 287.00 309.16 290.37 309.95 293.95 C 312.79 305.41 314.81 317.21 319.84 327.99 C 322.74 334.40 327.29 340.17 333.23 344.01 C 341.90 349.53 352.39 350.77 362.40 351.68 C 368.91 352.40 375.45 352.62 381.95 353.42 C 388.96 354.23 396.27 353.95 402.92 356.64 C 402.54 358.92 399.89 359.37 398.09 360.03 C 387.00 363.18 375.41 363.88 363.96 364.50 C 351.13 364.46 337.93 365.82 325.50 361.82 C 315.92 359.29 307.19 353.71 300.90 346.05 C 298.37 343.74 296.84 339.22 292.87 339.44 C 296.36 337.13 299.18 333.97 301.56 330.57 C 306.97 323.19 308.28 313.82 309.28 304.97 C 310.15 297.73 307.81 290.70 305.85 283.84 Z" fill="#924d3b" opacity="1.00" stroke="#924d3b" stroke-width="0.25"/>
<path d="M 226.35 311.44 C 228.94 307.90 231.67 304.45 234.66 301.24 C 234.49 310.70 236.42 320.45 241.87 328.34 C 244.24 331.62 247.20 334.42 249.73 337.59 C 250.48 337.64 251.98 337.73 252.73 337.78 C 252.97 337.13 253.44 335.85 253.68 335.20 C 253.92 336.49 254.15 337.79 254.36 339.09 C 254.49 340.05 254.76 341.98 254.89 342.95 C 245.65 342.12 235.91 341.29 227.85 336.28 C 223.48 333.69 219.95 329.72 218.18 324.94 C 219.43 324.77 220.68 324.60 221.94 324.44 C 222.84 319.96 223.52 315.18 226.35 311.44 Z" fill="#deaa81" opacity="1.00" stroke="#deaa81" stroke-width="0.25"/>
<path d="M 206.79 313.03 C 207.98 313.14 209.14 313.46 210.27 313.84 L 210.76 314.03 C 214.22 316.91 216.59 320.77 218.18 324.94 C 219.95 329.72 223.48 333.69 227.85 336.28 C 235.91 341.29 245.65 342.12 254.89 342.95 C 254.76 341.98 254.49 340.05 254.36 339.09 L 254.28 338.31 C 254.68 339.53 255.09 340.75 255.51 341.97 C 255.57 340.33 255.64 338.69 255.75 337.06 C 257.50 340.06 257.84 343.60 259.31 346.73 C 260.16 351.03 260.64 355.40 260.87 359.79 C 253.53 359.65 246.20 359.69 238.88 360.32 C 231.22 360.33 223.58 360.76 215.97 361.63 C 216.18 362.32 216.61 363.68 216.82 364.37 C 227.39 364.94 238.02 363.92 248.58 364.83 C 237.79 366.25 226.88 365.06 216.04 365.51 C 226.69 365.49 237.34 365.79 247.98 365.28 C 255.47 365.01 262.88 366.41 270.35 366.66 C 270.71 358.19 269.72 349.61 271.23 341.23 C 272.26 341.34 273.30 341.46 274.35 341.59 C 274.36 343.04 274.38 344.50 274.41 345.97 C 281.01 345.49 287.36 343.06 292.87 339.44 C 296.84 339.22 298.37 343.74 300.90 346.05 C 307.19 353.71 315.92 359.29 325.50 361.82 C 337.93 365.82 351.13 364.46 363.96 364.50 C 375.41 363.88 387.00 363.18 398.09 360.03 C 399.89 359.37 402.54 358.92 402.92 356.64 C 396.27 353.95 388.96 354.23 381.95 353.42 C 375.45 352.62 368.91 352.40 362.40 351.68 C 361.03 350.92 359.70 350.15 358.35 349.37 C 360.42 348.87 362.47 348.34 364.55 347.88 C 372.69 348.35 380.84 349.19 388.99 349.71 C 394.94 350.32 401.08 350.82 406.50 353.62 C 407.49 355.51 408.54 358.01 407.10 359.96 C 404.43 363.34 399.79 363.83 395.93 364.97 C 382.47 367.87 368.65 368.48 354.94 369.14 C 339.73 369.22 323.59 368.06 310.47 359.57 C 303.97 355.46 298.28 349.99 293.99 343.61 C 287.74 346.67 281.35 349.67 274.35 350.50 C 274.27 356.38 274.67 362.28 274.18 368.14 C 273.05 371.56 268.84 370.85 266.04 370.81 C 243.38 369.13 220.67 370.08 197.98 370.21 C 194.53 370.07 190.14 370.31 187.93 367.11 C 187.10 364.81 187.80 362.38 188.46 360.15 C 190.52 358.94 192.76 357.98 195.17 357.79 C 207.66 356.55 220.23 356.73 232.77 356.49 C 232.43 351.89 231.71 347.33 231.47 342.72 C 223.89 339.63 216.76 333.95 214.22 325.89 C 210.68 325.97 206.51 326.05 204.17 322.89 C 202.25 319.62 204.57 316.03 205.78 312.96 L 206.79 313.03 Z" fill="#063558" opacity="1.00" stroke="#063558" stroke-width="0.25"/>
<path d="M 247.32 328.96 C 249.17 330.47 250.98 332.02 252.70 333.68 C 253.85 333.19 254.99 332.69 256.14 332.19 C 256.42 332.44 256.97 332.95 257.24 333.20 C 256.51 333.38 255.06 333.74 254.33 333.91 C 254.13 335.36 254.11 336.85 254.28 338.31 L 254.36 339.09 C 254.15 337.79 253.92 336.49 253.68 335.20 C 253.44 335.85 252.97 337.13 252.73 337.78 C 251.47 334.53 249.38 331.73 247.32 328.96 Z" fill="#886253" opacity="1.00" stroke="#886253" stroke-width="0.25"/>
<path d="M 254.33 333.91 C 255.06 333.74 256.51 333.38 257.24 333.20 C 257.20 333.70 257.11 334.69 257.07 335.19 C 257.75 334.86 258.45 334.54 259.16 334.24 C 257.43 338.20 259.21 342.59 259.31 346.73 C 257.84 343.60 257.50 340.06 255.75 337.06 C 255.64 338.69 255.57 340.33 255.51 341.97 C 255.09 340.75 254.68 339.53 254.28 338.31 C 254.11 336.85 254.13 335.36 254.33 333.91 Z" fill="#453e41" opacity="1.00" stroke="#453e41" stroke-width="0.25"/>
<path d="M 244.44 346.14 C 248.19 346.40 251.91 346.89 255.62 347.49 C 255.89 350.28 256.30 353.07 256.72 355.85 C 252.68 355.78 248.65 355.80 244.62 355.73 C 244.58 352.53 244.49 349.33 244.44 346.14 Z" fill="#fbffff" opacity="1.00" stroke="#fbffff" stroke-width="0.25"/>
</svg>