<?xml version="1.0" encoding="utf-8"?>
<svg xmlns="http://www.w3.org/2000/svg" height="512pt" version="1.1" viewBox="0 0 512 512" width="512pt">
<path d="M 0.00 0.00 L 512.00 0.00 L 512.00 512.00 L 0.00 512.00 L 0.00 0.00 Z" fill="transparent" opacity="1.00" stroke="transparent" stroke-width="0.25"/>
<path d="M 184.41 54.51 C 186.03 49.52 189.59 45.56 193.95 42.75 C 200.06 40.99 203.09 47.88 204.60 52.53 C 206.57 52.74 208.87 52.17 210.51 53.57 C 213.15 55.39 213.50 58.79 214.29 61.63 C 218.57 59.55 224.97 62.23 223.94 67.64 C 204.01 67.64 184.07 67.55 164.13 67.68 C 161.70 63.38 166.97 60.33 170.72 60.35 C 172.40 58.17 173.90 55.60 176.55 54.47 C 179.03 53.20 181.82 54.22 184.41 54.51 Z" fill="#c0f1fe" opacity="1.00" stroke="#c0f1fe" stroke-width="0.25"/>
<path d="M 365.58 72.88 C 374.62 71.38 384.19 72.28 392.43 76.47 C 403.09 81.34 411.20 90.90 415.19 101.82 C 419.62 115.16 417.89 130.78 409.46 142.21 C 398.75 158.04 376.99 164.57 359.09 158.33 C 346.45 153.98 336.11 143.52 331.77 130.90 C 328.24 120.65 328.59 109.08 332.82 99.10 C 338.50 85.68 351.17 75.36 365.58 72.88 Z" fill="#032f50" opacity="1.00" stroke="#032f50" stroke-width="0.25"/>
<path d="M 117.54 73.65 C 118.06 73.64 119.10 73.63 119.62 73.62 C 121.01 78.24 120.35 83.12 120.55 87.87 C 119.56 87.74 118.57 87.60 117.58 87.47 C 117.50 82.86 117.37 78.26 117.54 73.65 Z" fill="#f55f2a" opacity="1.00" stroke="#f55f2a" stroke-width="0.25"/>
<path d="M 348.73 83.89 C 355.30 78.50 363.80 75.81 372.22 75.40 C 371.94 78.90 371.88 82.42 372.34 85.91 C 373.36 85.79 374.39 85.66 375.41 85.53 C 375.39 82.14 375.38 78.75 375.39 75.37 C 386.11 75.81 396.19 80.91 403.68 88.46 C 402.84 92.22 396.97 93.44 398.41 97.98 C 401.40 96.50 404.00 94.34 406.05 91.71 C 411.40 98.65 414.24 107.33 414.53 116.06 C 410.21 116.23 405.87 115.92 401.57 116.47 C 401.85 117.42 402.14 118.38 402.43 119.34 C 406.44 119.38 410.46 119.40 414.48 119.50 C 413.52 129.66 409.03 139.60 401.49 146.55 C 394.40 153.06 385.03 156.99 375.38 157.31 C 374.10 154.03 375.13 149.91 374.68 146.31 C 373.62 146.34 372.57 146.37 371.52 146.41 C 371.42 150.05 371.40 153.70 371.42 157.35 C 361.92 156.94 352.89 153.02 345.79 146.77 C 348.43 144.43 350.99 141.99 353.52 139.52 C 353.45 138.89 353.31 137.64 353.24 137.02 C 349.29 138.36 346.60 141.69 343.93 144.70 C 336.85 137.73 333.41 128.02 332.45 118.30 C 336.37 118.07 340.30 118.33 344.21 118.08 C 344.16 117.32 344.06 115.80 344.00 115.04 C 340.18 114.56 336.31 114.94 332.47 114.75 C 333.10 103.83 337.82 93.14 346.14 85.92 C 348.37 88.33 350.67 90.86 353.81 92.08 C 354.26 88.39 351.19 86.06 348.73 83.89 Z" fill="#ffffff" opacity="1.00" stroke="#ffffff" stroke-width="0.25"/>
<path d="M 348.14 83.38 L 348.73 83.89 C 351.19 86.06 354.26 88.39 353.81 92.08 C 350.67 90.86 348.37 88.33 346.14 85.92 C 346.64 85.28 347.64 84.01 348.14 83.38 Z" fill="#6d433e" opacity="1.00" stroke="#6d433e" stroke-width="0.25"/>
<path d="M 145.36 94.36 C 148.06 91.27 150.75 87.99 154.46 86.06 C 154.50 86.78 154.58 88.22 154.62 88.94 C 152.57 91.71 150.02 94.08 147.63 96.56 C 146.73 97.77 145.14 97.67 143.84 98.00 C 144.23 96.75 144.38 95.33 145.36 94.36 Z" fill="#f55f2a" opacity="1.00" stroke="#f55f2a" stroke-width="0.25"/>
<path d="M 403.68 88.46 C 404.56 89.46 405.89 90.28 406.05 91.71 C 404.00 94.34 401.40 96.50 398.41 97.98 C 396.97 93.44 402.84 92.22 403.68 88.46 Z" fill="#6d433e" opacity="1.00" stroke="#6d433e" stroke-width="0.25"/>
<path d="M 84.27 89.27 C 87.11 89.15 88.66 91.75 90.62 93.34 C 92.64 95.35 95.72 96.78 95.99 99.97 C 92.40 100.24 90.28 97.18 87.91 95.05 C 86.28 93.41 84.07 91.87 84.27 89.27 Z" fill="#f55f2a" opacity="1.00" stroke="#f55f2a" stroke-width="0.25"/>
<path d="M 368.64 94.55 C 369.88 94.44 371.12 94.34 372.37 94.24 C 373.50 100.27 374.15 106.38 375.22 112.42 C 380.39 108.92 385.25 104.97 390.52 101.63 C 391.84 100.54 392.95 102.35 393.97 102.91 C 391.01 106.40 386.94 108.63 383.40 111.45 C 380.80 113.51 377.55 114.96 375.96 118.02 C 374.81 120.23 372.28 118.72 370.52 118.35 C 371.31 110.34 369.38 102.48 368.64 94.55 Z" fill="#032f50" opacity="1.00" stroke="#032f50" stroke-width="0.25"/>
<path d="M 110.61 96.51 C 119.53 94.35 130.27 93.96 137.66 100.31 C 141.95 103.22 145.12 107.59 146.66 112.52 C 147.34 116.96 148.24 121.52 147.46 126.01 C 146.01 131.79 142.58 137.23 137.46 140.42 C 130.28 145.10 120.67 145.75 112.94 142.06 C 105.43 138.24 99.57 130.56 99.23 121.98 C 99.05 117.36 99.15 112.49 101.37 108.31 C 103.53 103.92 107.40 100.76 110.30 96.90 L 110.61 96.51 Z" fill="#ffc308" opacity="1.00" stroke="#ffc308" stroke-width="0.25"/>
<path d="M 92.53 120.00 C 93.41 109.77 100.70 100.43 110.30 96.90 C 107.40 100.76 103.53 103.92 101.37 108.31 C 99.15 112.49 99.05 117.36 99.23 121.98 C 99.57 130.56 105.43 138.24 112.94 142.06 C 120.67 145.75 130.28 145.10 137.46 140.42 C 142.58 137.23 146.01 131.79 147.46 126.01 C 148.24 121.52 147.34 116.96 146.66 112.52 L 147.28 112.45 C 148.98 120.05 149.26 128.54 145.41 135.55 C 140.73 145.25 129.75 151.46 119.03 150.65 C 114.47 150.74 110.16 148.92 106.21 146.82 C 96.88 141.65 91.49 130.52 92.53 120.00 Z" fill="#f55f2a" opacity="1.00" stroke="#f55f2a" stroke-width="0.25"/>
<path d="M 156.50 120.86 C 160.57 120.49 164.66 120.61 168.74 120.51 C 168.67 121.53 168.61 122.55 168.55 123.57 C 164.03 123.71 159.52 123.83 155.00 123.71 C 155.48 122.84 155.15 120.92 156.50 120.86 Z" fill="#f55f2a" opacity="1.00" stroke="#f55f2a" stroke-width="0.25"/>
<path d="M 269.23 128.32 C 269.81 125.52 270.02 122.53 271.66 120.10 C 278.96 123.89 282.54 132.10 283.24 139.95 C 283.45 144.65 281.48 150.17 276.58 151.69 C 279.39 155.71 280.97 160.38 282.79 164.88 C 284.37 169.65 290.91 170.71 291.97 175.72 C 290.17 176.49 288.34 177.22 286.51 177.92 C 287.57 185.85 284.82 194.35 278.52 199.47 C 274.62 202.25 270.01 203.97 265.27 204.59 C 265.94 208.89 266.81 213.16 267.61 217.44 C 273.75 223.41 280.05 229.39 287.50 233.72 C 290.67 235.59 294.31 236.66 298.00 236.76 C 307.75 237.08 317.57 236.42 327.11 234.30 C 328.98 233.54 329.57 235.50 329.91 236.84 C 333.61 233.94 334.83 229.20 337.32 225.42 C 338.74 223.54 341.59 224.91 342.10 226.86 C 343.35 230.32 341.82 233.98 341.06 237.38 C 344.94 238.30 352.12 237.18 352.14 242.94 C 352.16 247.32 351.48 251.72 350.47 255.98 C 349.98 257.40 348.75 258.90 347.05 258.40 C 343.26 258.04 339.43 257.95 335.68 257.33 C 333.42 255.86 333.45 252.77 334.15 250.45 C 334.91 248.49 335.12 245.89 336.94 244.60 C 339.17 244.40 341.37 245.01 343.54 245.42 C 343.56 248.90 343.52 252.38 343.59 255.87 C 345.13 256.03 346.67 256.19 348.21 256.35 C 349.40 251.22 350.72 245.89 349.56 240.63 C 345.72 240.15 341.89 239.64 338.05 239.22 C 339.39 234.97 341.91 230.19 339.24 225.90 C 336.87 230.74 334.56 235.76 330.25 239.21 C 330.21 241.48 330.66 243.73 331.16 245.93 C 332.08 249.60 332.74 253.33 332.83 257.12 C 315.66 259.47 297.98 263.62 280.75 259.48 C 280.70 263.02 281.13 266.69 280.15 270.14 C 277.52 273.00 273.07 272.42 269.61 273.46 C 269.37 279.67 270.26 286.05 268.82 292.14 C 275.52 301.70 282.22 311.27 288.98 320.80 C 288.01 321.80 286.79 322.60 286.10 323.83 C 286.88 326.14 288.70 327.91 290.05 329.90 C 297.05 339.55 304.05 349.20 311.27 358.68 C 312.86 360.56 313.88 363.08 315.94 364.47 C 328.74 360.67 342.91 358.56 355.89 362.59 C 350.41 369.81 343.77 375.99 337.64 382.61 C 330.89 390.19 323.61 397.27 316.58 404.58 C 315.53 405.52 314.65 406.92 313.11 406.98 C 308.15 402.18 303.97 396.63 299.02 391.83 C 295.02 389.62 292.55 385.70 289.44 382.50 C 278.86 371.32 269.30 359.25 259.94 347.06 C 258.26 345.17 256.88 342.45 254.06 342.23 C 255.95 330.75 258.98 319.50 261.20 308.08 C 261.54 306.65 261.38 305.17 261.10 303.76 C 258.80 306.29 259.05 309.95 258.09 313.06 C 255.53 325.71 252.57 338.28 250.36 351.00 C 248.80 350.62 247.25 350.19 245.74 349.67 C 237.99 363.61 228.52 376.44 219.32 389.43 C 212.61 398.45 206.47 407.90 199.44 416.69 C 202.56 429.60 205.88 442.95 204.43 456.31 C 203.59 456.36 202.76 456.40 201.92 456.46 C 193.81 448.46 185.42 440.74 177.06 433.00 C 170.27 426.10 162.66 420.07 155.98 413.08 C 161.74 405.79 168.73 399.55 174.23 392.03 C 186.64 375.31 198.79 358.32 208.59 339.89 C 208.25 339.39 207.57 338.38 207.22 337.87 C 210.94 324.81 215.34 311.90 218.11 298.58 C 215.16 298.78 212.23 299.12 209.30 299.47 C 208.82 296.61 208.74 293.71 208.59 290.82 C 202.99 290.78 197.46 289.77 191.93 288.95 C 186.51 288.01 180.92 287.51 175.90 285.11 C 175.06 283.16 174.08 281.24 173.79 279.12 C 172.68 266.99 174.30 254.84 176.34 242.89 C 178.63 229.94 182.29 216.80 190.15 206.04 C 191.52 203.96 193.74 202.79 196.08 202.12 C 196.94 199.87 197.88 197.66 198.78 195.42 C 200.49 195.19 202.25 195.14 203.94 195.54 C 210.64 196.93 217.36 198.25 223.97 200.06 C 225.17 200.59 226.98 200.14 226.82 198.32 C 227.69 198.64 228.41 199.12 229.00 199.78 C 227.15 201.37 225.82 203.42 224.65 205.53 C 233.84 204.85 244.64 207.97 248.56 217.12 C 252.19 227.08 246.87 237.41 241.10 245.38 C 242.54 246.61 244.17 247.65 246.09 247.93 C 250.50 238.68 255.00 228.48 253.09 217.99 C 252.26 212.30 248.66 207.32 243.95 204.15 C 239.73 201.43 234.63 200.80 229.85 199.64 L 229.56 199.53 C 229.77 197.54 231.30 196.08 232.41 194.53 C 221.94 184.97 217.07 170.87 215.32 157.13 C 214.90 152.61 213.64 147.59 215.61 143.33 C 216.81 140.74 219.94 141.79 222.17 141.76 C 222.99 139.62 224.12 137.50 226.06 136.19 C 233.60 130.87 242.69 127.62 251.95 127.44 C 257.73 127.30 263.43 128.90 269.23 128.32 Z" fill="#032f50" opacity="1.00" stroke="#032f50" stroke-width="0.25"/>
<path d="M 72.52 123.57 C 77.21 123.40 81.90 123.22 86.60 123.41 C 86.48 124.36 86.37 125.31 86.26 126.26 C 81.62 126.36 76.99 126.52 72.34 126.54 C 72.41 125.55 72.46 124.56 72.52 123.57 Z" fill="#f55f2a" opacity="1.00" stroke="#f55f2a" stroke-width="0.25"/>
<path d="M 272.45 122.97 C 278.28 127.39 281.60 134.74 281.24 142.02 C 281.00 144.58 280.45 147.59 277.95 148.90 C 274.67 151.31 270.47 146.59 267.42 149.52 C 263.03 152.79 257.74 154.48 252.49 155.79 C 251.42 159.86 251.40 164.09 251.26 168.27 C 248.29 168.17 244.73 166.99 242.27 169.25 C 239.83 171.28 239.86 174.78 240.44 177.63 C 241.71 181.42 245.44 183.37 248.53 185.50 C 247.47 190.58 242.16 195.43 236.63 194.51 C 233.72 193.73 231.71 191.29 229.84 189.09 C 221.35 179.45 218.63 166.34 216.79 153.99 C 216.56 150.61 215.46 146.52 217.92 143.69 C 219.76 143.61 221.60 143.74 223.44 143.85 C 223.81 139.74 227.48 137.55 230.63 135.57 C 236.57 132.22 243.16 129.84 250.03 129.57 C 256.96 128.81 263.90 131.44 270.77 129.68 C 271.33 127.44 271.87 125.20 272.45 122.97 Z" fill="#6d433e" opacity="1.00" stroke="#6d433e" stroke-width="0.25"/>
<path d="M 343.93 144.70 C 346.60 141.69 349.29 138.36 353.24 137.02 C 353.31 137.64 353.45 138.89 353.52 139.52 C 350.99 141.99 348.43 144.43 345.79 146.77 C 345.06 146.20 344.33 145.62 343.61 145.05 L 343.93 144.70 Z" fill="#6d433e" opacity="1.00" stroke="#6d433e" stroke-width="0.25"/>
<path d="M 393.07 140.12 C 396.90 139.66 398.89 143.53 401.52 145.59 C 400.54 146.27 399.59 146.98 398.62 147.66 C 396.64 145.27 393.23 143.58 393.07 140.12 Z" fill="#6d433e" opacity="1.00" stroke="#6d433e" stroke-width="0.25"/>
<path d="M 145.34 146.26 C 150.13 146.97 152.83 151.70 156.48 154.44 C 156.53 155.06 156.61 156.30 156.65 156.93 C 153.26 156.84 151.29 153.96 148.96 151.95 C 147.31 150.36 144.96 148.91 145.34 146.26 Z" fill="#f55f2a" opacity="1.00" stroke="#f55f2a" stroke-width="0.25"/>
<path d="M 94.54 149.51 C 95.39 148.53 96.72 148.43 97.89 148.10 C 97.57 149.52 97.59 151.18 96.36 152.20 C 93.93 154.78 91.65 157.56 88.81 159.71 C 88.13 159.62 86.77 159.43 86.09 159.34 C 88.16 155.49 91.40 152.49 94.54 149.51 Z" fill="#f55f2a" opacity="1.00" stroke="#f55f2a" stroke-width="0.25"/>
<path d="M 254.05 157.52 C 259.64 155.96 265.10 153.83 269.85 150.45 C 271.28 150.99 272.75 151.41 274.26 151.73 C 277.06 155.86 279.12 160.43 280.73 165.14 C 281.88 169.31 286.13 171.21 288.91 174.13 C 287.06 176.47 283.31 176.42 280.88 178.12 C 282.00 178.89 283.24 179.38 284.59 179.60 C 284.94 186.46 282.67 193.85 276.98 198.09 C 271.60 202.11 264.55 202.99 258.01 202.77 C 250.39 202.51 243.30 199.38 235.92 197.80 C 234.73 197.58 233.56 197.25 232.75 196.29 C 236.48 196.34 240.44 197.09 243.85 195.10 C 247.77 193.44 249.18 189.14 250.90 185.62 C 252.03 185.58 253.16 185.56 254.30 185.55 C 255.31 184.54 256.27 183.48 257.07 182.29 C 254.74 182.77 252.52 184.19 250.07 183.70 C 246.97 183.20 244.51 180.92 242.73 178.47 C 240.88 175.71 241.49 170.89 244.97 169.77 C 248.18 168.55 251.02 170.86 253.73 172.21 C 253.47 167.32 253.08 162.36 254.05 157.52 Z" fill="#fec5ae" opacity="1.00" stroke="#fec5ae" stroke-width="0.25"/>
<path d="M 272.23 155.20 C 274.05 153.44 277.18 155.72 276.57 157.99 C 276.71 159.58 274.97 160.19 274.00 161.05 C 271.24 162.85 268.14 164.37 264.79 164.44 C 263.20 163.90 262.12 162.65 262.61 160.91 C 264.97 157.86 268.95 156.93 272.23 155.20 Z" fill="#032f50" opacity="1.00" stroke="#032f50" stroke-width="0.25"/>
<path d="M 121.15 158.26 C 121.76 158.27 122.99 158.29 123.61 158.30 C 124.15 162.50 124.87 166.84 124.08 171.05 C 123.44 171.22 122.18 171.55 121.55 171.72 C 121.54 167.22 120.24 162.74 121.15 158.26 Z" fill="#f55f2a" opacity="1.00" stroke="#f55f2a" stroke-width="0.25"/>
<path d="M 300.32 169.59 C 305.16 167.35 309.68 163.99 315.01 163.08 C 314.59 164.19 314.18 165.40 312.92 165.78 C 308.90 167.75 304.98 169.94 300.84 171.66 L 299.95 171.07 C 300.04 170.70 300.22 169.96 300.32 169.59 Z" fill="#032f50" opacity="1.00" stroke="#032f50" stroke-width="0.25"/>
<path d="M 272.57 166.58 C 273.11 166.55 274.18 166.51 274.72 166.49 C 275.87 167.57 277.12 168.87 276.47 170.60 C 276.28 172.59 273.94 172.30 272.53 172.65 C 271.91 171.91 271.30 171.16 270.69 170.43 C 270.75 169.63 270.81 168.84 270.88 168.05 C 271.31 167.68 272.15 166.94 272.57 166.58 Z" fill="#032f50" opacity="1.00" stroke="#032f50" stroke-width="0.25"/>
<path d="M 243.67 173.68 C 244.83 171.56 247.43 172.62 249.31 172.67 C 249.38 173.15 249.52 174.12 249.60 174.60 C 248.08 174.51 246.57 174.43 245.07 174.36 C 245.27 177.69 249.41 177.88 249.95 180.77 C 246.37 180.68 243.08 177.34 243.67 173.68 Z" fill="#032f50" opacity="1.00" stroke="#032f50" stroke-width="0.25"/>
<path d="M 300.26 180.34 C 305.67 181.19 311.17 181.61 316.52 182.82 C 318.03 183.24 317.20 184.70 316.00 184.81 C 310.67 184.37 305.43 183.23 300.13 182.57 C 300.16 182.01 300.23 180.90 300.26 180.34 Z" fill="#032f50" opacity="1.00" stroke="#032f50" stroke-width="0.25"/>
<path d="M 262.39 195.29 C 262.46 191.53 266.66 189.41 270.03 189.64 C 273.38 189.66 278.15 191.23 277.58 195.40 C 272.52 195.62 267.45 195.53 262.39 195.29 Z" fill="#032f50" opacity="1.00" stroke="#032f50" stroke-width="0.25"/>
<path d="M 77.95 197.99 C 79.72 194.32 82.52 190.17 86.99 189.92 C 91.02 190.72 92.95 194.60 93.88 198.21 C 96.11 198.85 98.48 199.23 100.51 200.42 C 102.51 202.20 102.98 204.96 103.78 207.39 C 106.80 208.04 110.14 209.23 110.08 212.92 C 98.74 213.71 87.34 213.06 75.97 213.27 C 70.01 213.14 64.03 213.61 58.09 212.91 C 58.35 211.10 58.10 208.90 59.75 207.65 C 61.65 205.35 64.87 207.25 67.29 206.30 C 68.72 204.71 69.75 202.78 71.27 201.26 C 73.40 199.87 76.96 200.85 77.95 197.99 Z" fill="#c0f1fe" opacity="1.00" stroke="#c0f1fe" stroke-width="0.25"/>
<path d="M 264.85 193.38 C 267.73 190.81 272.24 190.97 275.20 193.34 C 271.75 193.43 268.29 193.52 264.85 193.38 Z" fill="#ffffff" opacity="1.00" stroke="#ffffff" stroke-width="0.25"/>
<path d="M 297.24 192.07 C 301.00 193.10 303.16 196.60 306.01 198.98 C 307.61 200.71 310.48 202.13 309.59 204.95 C 306.34 202.75 303.81 199.70 300.82 197.19 C 299.32 195.73 297.23 194.45 297.24 192.07 Z" fill="#032f50" opacity="1.00" stroke="#032f50" stroke-width="0.25"/>
<path d="M 200.25 197.27 C 206.46 197.07 212.43 199.08 218.40 200.50 C 220.71 201.24 223.61 201.69 224.71 204.19 C 221.55 203.96 217.97 201.48 215.11 203.97 L 215.78 202.41 C 210.15 201.15 204.50 199.88 198.69 200.10 C 199.04 199.05 199.56 198.11 200.25 197.27 Z" fill="#6d433e" opacity="1.00" stroke="#6d433e" stroke-width="0.25"/>
<path d="M 224.65 205.53 C 225.82 203.42 227.15 201.37 229.00 199.78 L 229.56 199.53 L 229.85 199.64 C 234.63 200.80 239.73 201.43 243.95 204.15 C 248.66 207.32 252.26 212.30 253.09 217.99 C 255.00 228.48 250.50 238.68 246.09 247.93 C 244.17 247.65 242.54 246.61 241.10 245.38 C 246.87 237.41 252.19 227.08 248.56 217.12 C 244.64 207.97 233.84 204.85 224.65 205.53 Z" fill="#f55f2a" opacity="1.00" stroke="#f55f2a" stroke-width="0.25"/>
<path d="M 201.42 201.52 C 206.09 201.15 210.51 203.39 215.11 203.97 C 216.79 204.35 218.47 204.73 220.12 205.23 C 218.87 205.21 217.63 205.11 216.40 204.94 C 211.47 203.91 206.39 203.71 201.50 202.53 C 201.48 202.28 201.44 201.77 201.42 201.52 Z" fill="#ffffff" opacity="1.00" stroke="#ffffff" stroke-width="0.25"/>
<path d="M 246.07 203.21 C 249.79 203.48 253.42 204.36 257.11 204.90 C 257.41 208.85 258.41 212.76 258.24 216.74 C 257.72 217.96 257.18 219.17 256.62 220.37 C 256.20 219.50 255.80 218.63 255.41 217.75 C 253.94 212.01 251.04 206.64 246.07 203.21 Z" fill="#8de8fe" opacity="1.00" stroke="#8de8fe" stroke-width="0.25"/>
<path d="M 190.43 209.17 C 191.80 206.82 193.83 204.08 196.90 204.38 C 202.27 204.54 207.62 205.37 212.88 206.43 C 213.34 206.53 214.26 206.74 214.72 206.84 C 209.31 211.15 207.61 218.10 204.53 223.97 C 200.35 231.67 200.30 240.63 199.04 249.08 C 197.12 261.46 196.65 274.05 197.60 286.54 L 197.68 287.72 C 190.73 286.02 183.31 286.23 176.74 283.12 C 173.94 269.81 176.38 256.11 178.54 242.89 C 178.80 240.77 179.40 238.71 180.05 236.69 L 180.15 237.74 C 180.17 238.06 180.21 238.69 180.22 239.01 C 180.57 236.98 180.53 234.65 182.20 233.16 C 184.74 231.17 185.21 235.43 185.95 237.07 C 187.50 238.45 189.09 239.80 190.88 240.85 C 192.38 238.30 189.59 236.01 187.52 234.99 C 188.42 234.79 189.32 234.57 190.22 234.37 C 191.12 235.63 192.04 236.87 193.00 238.09 C 193.34 236.64 193.68 235.18 194.03 233.73 C 194.53 233.70 195.53 233.64 196.03 233.60 C 196.66 233.57 197.91 233.51 198.54 233.48 C 198.56 232.18 198.59 230.89 198.62 229.59 C 193.34 227.84 187.34 228.85 182.37 226.29 C 184.31 220.27 187.31 214.65 190.43 209.17 Z" fill="#f55f2a" opacity="1.00" stroke="#f55f2a" stroke-width="0.25"/>
<path d="M 259.34 204.76 C 260.31 204.74 262.24 204.69 263.20 204.67 C 265.63 218.71 267.40 232.92 268.09 247.14 C 266.71 250.57 266.48 254.25 266.42 257.92 C 259.42 257.48 252.74 254.48 247.17 250.31 C 249.48 246.32 251.26 242.06 252.93 237.78 C 253.91 235.18 255.17 232.60 257.62 231.07 C 258.12 233.73 256.20 238.38 260.37 238.81 C 262.72 227.58 260.21 216.03 259.34 204.76 Z" fill="#ffffff" opacity="1.00" stroke="#ffffff" stroke-width="0.25"/>
<path d="M 212.88 206.43 C 213.76 206.06 215.52 205.31 216.40 204.94 C 216.36 207.87 220.30 207.10 222.17 208.03 C 220.29 213.22 218.27 218.41 215.33 223.12 C 212.82 227.30 211.77 232.21 212.19 237.07 C 213.00 248.19 210.37 259.17 210.09 270.25 C 210.82 270.33 212.29 270.47 213.02 270.54 C 212.11 272.64 211.79 274.92 211.50 277.18 C 214.12 276.18 216.73 275.13 219.28 273.94 C 216.94 276.98 213.17 278.29 209.49 278.72 C 209.20 281.94 209.87 285.45 208.46 288.45 C 205.03 290.32 200.92 287.79 197.60 286.54 C 196.65 274.05 197.12 261.46 199.04 249.08 C 200.30 240.63 200.35 231.67 204.53 223.97 C 207.61 218.10 209.31 211.15 214.72 206.84 C 214.26 206.74 213.34 206.53 212.88 206.43 Z" fill="#6d433e" opacity="1.00" stroke="#6d433e" stroke-width="0.25"/>
<path d="M 226.15 212.40 C 228.44 210.51 231.06 208.78 234.08 208.46 C 239.87 209.33 244.96 213.66 247.21 219.00 C 247.09 221.28 246.84 223.55 246.61 225.83 C 246.35 225.64 245.83 225.27 245.56 225.08 C 245.53 224.37 245.47 222.95 245.44 222.23 C 244.99 222.20 244.11 222.13 243.67 222.09 C 241.45 228.54 237.14 233.95 234.00 239.93 C 241.63 250.26 252.90 258.61 265.88 260.40 C 265.63 266.34 264.64 272.22 263.53 278.05 C 249.29 275.32 235.97 268.36 225.02 258.90 C 219.25 253.76 214.56 246.89 213.82 239.01 C 212.73 228.70 218.39 218.82 226.15 212.40 Z" fill="#ffffff" opacity="1.00" stroke="#ffffff" stroke-width="0.25"/>
<path d="M 256.62 220.37 C 257.18 219.17 257.72 217.96 258.24 216.74 C 258.31 221.47 258.93 226.52 257.62 231.07 C 255.17 232.60 253.91 235.18 252.93 237.78 C 255.13 231.34 256.10 224.54 255.41 217.75 C 255.80 218.63 256.20 219.50 256.62 220.37 Z" fill="#c0f1fe" opacity="1.00" stroke="#c0f1fe" stroke-width="0.25"/>
<path d="M 247.21 219.00 C 249.01 227.97 244.80 236.62 239.72 243.73 C 238.53 242.44 237.34 241.17 236.15 239.89 C 239.50 235.08 242.30 229.91 245.12 224.77 L 245.56 225.08 C 245.83 225.27 246.35 225.64 246.61 225.83 C 246.84 223.55 247.09 221.28 247.21 219.00 Z" fill="#8de8fe" opacity="1.00" stroke="#8de8fe" stroke-width="0.25"/>
<path d="M 268.03 220.79 C 276.77 228.39 285.56 238.25 297.94 238.90 C 307.87 239.22 317.93 238.64 327.60 236.23 C 328.23 242.71 329.75 249.05 330.78 255.47 C 314.33 257.19 297.45 261.60 281.04 257.30 C 281.07 256.58 281.14 255.14 281.18 254.42 C 283.03 253.73 285.73 252.65 284.69 250.10 C 283.49 246.01 278.53 246.61 275.21 246.28 C 275.01 245.70 274.61 244.53 274.41 243.94 C 272.28 243.86 272.77 246.07 272.42 247.49 C 271.91 247.54 270.91 247.64 270.41 247.69 C 269.86 238.70 268.83 229.75 268.03 220.79 Z" fill="#8de8fe" opacity="1.00" stroke="#8de8fe" stroke-width="0.25"/>
<path d="M 330.25 239.21 C 334.56 235.76 336.87 230.74 339.24 225.90 C 341.91 230.19 339.39 234.97 338.05 239.22 C 341.89 239.64 345.72 240.15 349.56 240.63 C 350.72 245.89 349.40 251.22 348.21 256.35 C 346.67 256.19 345.13 256.03 343.59 255.87 C 343.52 252.38 343.56 248.90 343.54 245.42 C 341.37 245.01 339.17 244.40 336.94 244.60 C 335.12 245.89 334.91 248.49 334.15 250.45 C 332.54 249.41 331.48 247.82 331.16 245.93 C 330.66 243.73 330.21 241.48 330.25 239.21 Z" fill="#fec5ae" opacity="1.00" stroke="#fec5ae" stroke-width="0.25"/>
<path d="M 185.86 231.07 C 187.65 229.63 190.74 228.67 190.82 231.94 C 189.67 231.84 188.52 231.76 187.36 231.69 L 185.86 231.07 Z" fill="#f55f2a" opacity="1.00" stroke="#f55f2a" stroke-width="0.25"/>
<path d="M 180.58 232.20 C 182.85 232.25 185.14 232.29 187.36 231.69 C 188.52 231.76 189.67 231.84 190.82 231.94 C 192.51 232.64 194.18 233.44 196.03 233.60 C 195.53 233.64 194.53 233.70 194.03 233.73 C 193.68 235.18 193.34 236.64 193.00 238.09 C 192.04 236.87 191.12 235.63 190.22 234.37 C 189.32 234.57 188.42 234.79 187.52 234.99 C 189.59 236.01 192.38 238.30 190.88 240.85 C 189.09 239.80 187.50 238.45 185.95 237.07 C 185.21 235.43 184.74 231.17 182.20 233.16 C 180.53 234.65 180.57 236.98 180.22 239.01 C 180.21 238.69 180.17 238.06 180.15 237.74 C 180.29 235.89 180.49 234.05 180.58 232.20 Z" fill="#fec5ae" opacity="1.00" stroke="#fec5ae" stroke-width="0.25"/>
<path d="M 337.58 246.51 C 338.88 246.58 340.18 246.65 341.49 246.73 C 341.44 249.78 341.37 252.83 341.33 255.88 C 339.58 255.67 337.85 255.46 336.12 255.22 C 336.20 252.26 336.59 249.31 337.58 246.51 Z" fill="#fec5ae" opacity="1.00" stroke="#fec5ae" stroke-width="0.25"/>
<path d="M 269.32 249.58 C 273.70 249.46 278.38 247.30 282.55 249.49 C 282.60 250.06 282.69 251.20 282.73 251.78 C 281.39 252.07 280.05 252.35 278.71 252.63 C 278.82 258.20 278.91 263.77 278.51 269.33 C 274.77 270.41 270.88 270.76 267.04 271.32 C 267.71 264.07 268.21 256.77 269.32 249.58 Z" fill="#fec5ae" opacity="1.00" stroke="#fec5ae" stroke-width="0.25"/>
<path d="M 214.85 250.37 C 217.67 254.13 220.62 257.78 224.04 261.02 C 220.70 264.02 216.76 266.40 212.57 268.00 C 213.39 262.13 214.10 256.25 214.85 250.37 Z" fill="#8de8fe" opacity="1.00" stroke="#8de8fe" stroke-width="0.25"/>
<path d="M 213.02 270.54 C 217.42 267.84 222.17 265.64 226.04 262.15 C 227.35 263.45 228.66 264.74 229.96 266.04 C 226.54 268.85 223.23 271.88 219.28 273.94 C 216.73 275.13 214.12 276.18 211.50 277.18 C 211.79 274.92 212.11 272.64 213.02 270.54 Z" fill="#f55f2a" opacity="1.00" stroke="#f55f2a" stroke-width="0.25"/>
<path d="M 211.45 280.56 C 219.21 277.57 225.84 272.36 232.12 267.03 C 241.60 273.17 252.06 277.96 263.13 280.34 C 266.54 280.01 265.54 275.05 266.80 272.69 C 267.75 273.94 267.53 275.57 267.53 277.05 C 267.40 281.44 267.44 285.84 267.27 290.23 C 248.63 292.97 229.95 295.89 211.13 296.98 C 211.14 291.50 211.26 286.03 211.45 280.56 Z" fill="#8de8fe" opacity="1.00" stroke="#8de8fe" stroke-width="0.25"/>
<path d="M 354.41 285.53 C 360.71 282.22 369.28 283.46 374.05 288.87 C 375.95 291.30 375.78 294.57 376.74 297.38 C 379.46 299.03 383.04 299.26 385.17 301.85 C 387.42 303.80 387.39 306.94 388.51 309.49 C 390.89 311.05 394.06 310.19 396.77 310.40 C 399.32 312.69 402.32 315.35 402.37 319.06 C 401.61 321.32 398.84 321.02 396.95 321.25 C 376.31 321.38 355.67 321.22 335.03 321.28 C 332.34 321.15 329.32 321.55 326.98 319.96 C 325.06 318.63 325.39 315.98 325.22 313.95 C 324.97 309.91 326.41 305.33 330.07 303.18 C 334.45 300.17 340.00 301.65 344.95 301.30 C 345.43 294.88 349.94 289.73 354.41 285.53 Z" fill="#c0f1fe" opacity="1.00" stroke="#c0f1fe" stroke-width="0.25"/>
<path d="M 123.82 307.81 C 128.13 305.34 134.48 305.01 137.98 309.08 C 141.50 311.94 142.88 316.32 144.62 320.33 C 147.46 320.27 150.97 319.36 153.00 321.98 C 155.63 324.06 155.43 327.61 155.82 330.61 C 157.33 330.40 159.20 329.04 160.40 330.64 C 161.36 331.93 161.90 333.46 162.58 334.91 C 161.94 335.80 161.30 336.68 160.67 337.57 C 139.45 337.63 118.24 337.64 97.03 337.57 C 97.42 334.06 100.33 331.96 103.64 331.45 C 103.88 328.25 103.49 324.50 106.15 322.16 C 108.61 319.15 112.75 319.41 116.25 319.47 C 117.74 315.05 119.58 310.29 123.82 307.81 Z" fill="#c0f1fe" opacity="1.00" stroke="#c0f1fe" stroke-width="0.25"/>
<path d="M 282.62 325.70 C 282.94 325.59 283.57 325.36 283.88 325.25 C 285.66 327.15 287.11 329.32 288.62 331.44 C 296.92 343.35 305.85 354.80 314.42 366.51 C 315.71 368.09 314.02 369.82 313.05 371.02 C 308.25 376.57 303.39 382.08 298.45 387.50 C 298.12 387.56 297.47 387.68 297.14 387.74 C 285.61 375.59 274.69 362.85 264.51 349.54 C 262.61 346.72 259.60 344.43 258.89 340.96 C 260.53 339.14 262.79 338.09 264.81 336.79 C 270.84 333.24 276.58 329.22 282.62 325.70 Z" fill="#fec5ae" opacity="1.00" stroke="#fec5ae" stroke-width="0.25"/>
<path d="M 210.86 340.14 C 221.68 342.94 232.41 346.08 243.17 349.12 C 241.22 354.17 237.92 358.52 235.09 363.08 C 223.17 380.88 210.22 397.96 198.03 415.56 C 190.67 409.13 183.51 402.42 175.58 396.68 L 175.72 395.84 C 175.73 395.45 175.76 394.65 175.77 394.26 C 176.12 392.44 177.55 391.10 178.56 389.63 C 190.44 373.89 201.60 357.57 210.86 340.14 Z" fill="#fec5ae" opacity="1.00" stroke="#fec5ae" stroke-width="0.25"/>
<path d="M 316.69 369.34 C 317.23 369.34 318.31 369.32 318.85 369.32 C 321.35 372.46 322.98 376.19 325.00 379.64 C 324.51 379.67 323.54 379.73 323.05 379.76 C 320.73 376.42 318.83 372.80 316.69 369.34 Z" fill="#ffffff" opacity="1.00" stroke="#ffffff" stroke-width="0.25"/>
<path d="M 315.13 371.70 C 318.20 373.03 317.30 377.31 317.49 380.02 C 314.73 378.17 315.26 374.59 315.13 371.70 Z" fill="#ffffff" opacity="1.00" stroke="#ffffff" stroke-width="0.25"/>
<path d="M 175.72 395.84 C 174.15 395.32 174.17 394.79 175.77 394.26 C 175.76 394.65 175.73 395.45 175.72 395.84 Z" fill="#c0f1fe" opacity="1.00" stroke="#c0f1fe" stroke-width="0.25"/>
<path d="M 183.92 421.06 C 186.83 418.12 190.27 414.99 194.56 414.57 C 193.17 417.43 189.85 418.23 187.80 420.46 C 190.78 420.19 193.73 419.71 196.73 419.63 C 196.64 422.17 193.72 421.59 192.08 422.16 C 189.32 422.38 185.94 423.66 183.92 421.06 Z" fill="#ffffff" opacity="1.00" stroke="#ffffff" stroke-width="0.25"/>
<path d="M 66.00 461.81 C 67.28 461.22 68.62 460.88 70.01 460.82 C 194.02 460.82 318.04 460.82 442.06 460.82 C 443.41 460.93 444.73 461.23 446.02 461.74 C 445.55 462.16 444.63 463.01 444.16 463.43 C 334.13 463.63 224.08 463.47 114.04 463.51 C 98.62 463.43 83.19 463.66 67.78 463.38 C 67.33 462.99 66.44 462.21 66.00 461.81 Z" fill="#032f50" opacity="1.00" stroke="#032f50" stroke-width="0.25"/>
</svg>