<?xml version="1.0" encoding="utf-8"?>
<svg xmlns="http://www.w3.org/2000/svg" height="512pt" version="1.1" viewBox="0 0 512 512" width="512pt">
<path d="M 0.00 0.00 L 512.00 0.00 L 512.00 512.00 L 0.00 512.00 L 0.00 0.00 Z" fill="transparent" opacity="1.00" stroke="transparent" stroke-width="0.25"/>
<path d="M 273.42 72.67 C 282.59 69.61 292.59 68.90 302.06 70.90 C 312.20 73.04 320.85 79.03 329.61 84.23 C 335.52 87.66 342.79 90.02 349.51 87.58 C 351.06 86.73 352.79 88.26 352.18 89.94 C 352.16 96.34 346.60 100.36 342.06 103.92 C 342.87 112.43 341.70 121.01 339.63 129.26 C 341.35 131.72 344.24 133.57 344.72 136.81 C 346.56 143.12 342.22 149.36 336.27 151.32 C 334.32 158.23 331.79 165.49 326.10 170.26 C 324.64 170.88 323.14 171.40 321.67 171.99 C 326.06 167.39 330.43 162.44 332.16 156.17 C 336.93 140.55 333.36 124.11 332.03 108.25 C 312.57 114.94 291.39 115.61 271.21 112.33 C 271.24 119.19 270.79 126.15 268.79 132.74 C 268.13 134.78 267.24 136.92 265.47 138.24 C 260.89 141.38 255.98 135.12 251.09 137.29 C 244.91 139.37 244.74 148.73 249.44 152.48 C 252.87 155.58 257.88 154.54 261.90 153.47 C 262.17 155.76 260.05 156.23 258.32 156.87 C 261.49 161.38 264.79 165.89 269.11 169.39 C 268.55 169.67 267.42 170.24 266.86 170.52 C 262.30 166.89 259.28 161.85 255.69 157.36 C 252.78 156.51 249.50 156.17 247.31 153.84 C 243.85 150.69 242.82 145.67 244.12 141.26 C 239.40 131.94 238.00 121.33 238.76 111.00 C 237.85 107.57 235.36 104.64 234.68 101.04 C 234.31 95.86 234.21 90.59 235.52 85.53 C 240.59 83.62 245.55 87.03 250.19 88.75 C 255.54 80.69 264.53 75.88 273.42 72.67 Z" fill="#132a3d" opacity="1.00" stroke="#132a3d" stroke-width="0.25"/>
<path d="M 264.35 79.44 C 272.08 74.73 281.15 72.99 290.08 72.42 C 291.23 72.41 292.34 72.60 293.43 73.01 C 297.74 74.72 302.59 74.39 306.82 76.32 C 308.88 77.23 309.64 79.57 310.77 81.35 C 308.45 80.21 306.27 78.83 304.14 77.37 C 302.93 78.89 302.35 80.70 302.33 82.64 C 301.16 82.35 299.99 82.06 298.84 81.75 L 297.70 81.37 C 296.52 80.98 295.35 80.57 294.18 80.17 C 294.00 81.63 293.82 83.09 293.66 84.55 C 291.92 83.81 290.12 82.09 288.15 83.17 C 287.56 82.93 286.97 82.69 286.39 82.44 C 285.56 84.35 284.55 86.18 283.14 87.73 C 283.64 85.86 284.20 84.00 284.80 82.16 C 284.11 82.10 282.72 81.97 282.03 81.90 C 279.86 83.69 277.93 85.74 276.36 88.07 C 277.56 87.81 278.77 87.53 279.97 87.22 C 281.74 91.39 286.33 93.05 290.58 93.06 C 290.42 92.05 290.26 91.04 290.11 90.03 C 292.65 91.81 295.07 93.75 297.37 95.84 C 297.98 94.90 298.62 93.96 299.27 93.05 C 299.50 93.73 299.94 95.07 300.16 95.75 C 301.84 94.53 303.57 93.39 305.36 92.33 C 307.01 92.96 308.67 93.57 310.34 94.17 C 309.79 93.13 309.27 92.09 308.69 91.08 C 309.06 90.27 309.44 89.46 309.83 88.66 C 310.62 89.61 311.43 90.56 312.23 91.51 C 312.63 91.55 313.43 91.62 313.82 91.66 C 313.64 92.74 313.45 93.81 313.27 94.89 C 314.17 94.39 315.08 93.89 315.99 93.40 C 318.23 93.78 320.51 93.73 322.75 93.36 C 326.32 96.07 330.79 96.51 334.94 97.77 C 334.92 95.30 333.59 92.15 335.86 90.26 C 340.27 90.68 344.66 91.25 349.09 91.33 C 348.53 96.11 344.24 98.94 340.53 101.31 C 325.59 109.85 307.93 111.88 291.00 111.62 C 283.40 111.79 275.94 110.07 268.36 109.92 C 268.43 116.22 268.99 122.80 266.88 128.85 C 265.25 131.67 264.45 136.42 260.25 135.93 C 260.93 133.98 261.64 132.05 262.34 130.11 C 261.42 130.27 260.50 130.44 259.59 130.62 C 259.11 129.81 258.63 129.00 258.16 128.19 C 259.74 128.53 261.31 128.91 262.93 129.07 C 265.99 127.29 265.68 123.28 266.07 120.24 C 265.33 120.10 263.85 119.81 263.11 119.66 C 263.27 118.70 263.43 117.73 263.60 116.77 C 261.47 118.01 259.24 119.09 256.83 119.64 C 256.41 120.70 256.00 121.76 255.50 122.78 C 252.27 122.83 249.93 120.26 247.51 118.49 C 247.54 119.08 247.62 120.27 247.65 120.87 C 246.90 121.05 245.41 121.40 244.66 121.58 C 245.36 124.31 247.03 126.52 249.61 127.74 C 248.86 127.90 248.12 128.06 247.38 128.22 C 247.42 128.63 247.49 129.44 247.53 129.85 C 247.00 129.70 245.93 129.40 245.40 129.26 C 244.94 130.61 244.47 131.96 244.07 133.33 L 243.79 134.21 C 240.86 126.13 241.22 117.46 241.58 109.03 C 240.13 106.78 238.04 104.77 237.73 101.96 C 237.05 97.03 237.09 91.99 237.81 87.06 C 242.68 87.97 247.02 90.40 251.68 91.94 C 254.07 86.25 259.28 82.58 264.35 79.44 Z" fill="#845442" opacity="1.00" stroke="#845442" stroke-width="0.25"/>
<path d="M 293.43 73.01 C 300.34 72.76 307.28 74.70 313.46 77.73 C 320.98 81.80 328.12 86.58 335.86 90.26 C 333.59 92.15 334.92 95.30 334.94 97.77 C 330.79 96.51 326.32 96.07 322.75 93.36 C 320.51 93.73 318.23 93.78 315.99 93.40 C 315.08 93.89 314.17 94.39 313.27 94.89 C 313.45 93.81 313.64 92.74 313.82 91.66 C 313.43 91.62 312.63 91.55 312.23 91.51 C 311.43 90.56 310.62 89.61 309.83 88.66 C 310.51 87.19 311.20 85.72 311.88 84.25 C 310.43 84.15 309.00 84.05 307.56 83.96 C 307.47 85.02 307.40 86.08 307.32 87.14 C 306.42 88.16 305.53 89.19 304.64 90.22 C 305.99 90.48 307.34 90.75 308.69 91.08 C 309.27 92.09 309.79 93.13 310.34 94.17 C 308.67 93.57 307.01 92.96 305.36 92.33 C 303.57 93.39 301.84 94.53 300.16 95.75 C 299.94 95.07 299.50 93.73 299.27 93.05 C 298.62 93.96 297.98 94.90 297.37 95.84 C 295.07 93.75 292.65 91.81 290.11 90.03 C 290.26 91.04 290.42 92.05 290.58 93.06 C 286.33 93.05 281.74 91.39 279.97 87.22 C 278.77 87.53 277.56 87.81 276.36 88.07 C 277.93 85.74 279.86 83.69 282.03 81.90 C 282.72 81.97 284.11 82.10 284.80 82.16 C 284.20 84.00 283.64 85.86 283.14 87.73 C 284.55 86.18 285.56 84.35 286.39 82.44 C 286.97 82.69 287.56 82.93 288.15 83.17 C 290.12 82.09 291.92 83.81 293.66 84.55 C 293.82 83.09 294.00 81.63 294.18 80.17 C 295.35 80.57 296.52 80.98 297.70 81.37 C 296.56 83.42 296.34 85.72 296.75 88.00 C 297.63 87.82 298.52 87.63 299.41 87.45 C 299.74 88.68 300.06 89.92 300.36 91.17 C 301.63 89.04 303.15 87.07 304.82 85.23 C 303.70 84.97 302.59 84.72 301.49 84.47 C 301.09 84.82 300.28 85.52 299.88 85.87 C 299.54 84.50 299.21 83.12 298.84 81.75 C 299.99 82.06 301.16 82.35 302.33 82.64 C 302.35 80.70 302.93 78.89 304.14 77.37 C 306.27 78.83 308.45 80.21 310.77 81.35 C 309.64 79.57 308.88 77.23 306.82 76.32 C 302.59 74.39 297.74 74.72 293.43 73.01 Z" fill="#905f4d" opacity="1.00" stroke="#905f4d" stroke-width="0.25"/>
<path d="M 296.75 88.00 C 296.34 85.72 296.56 83.42 297.70 81.37 L 298.84 81.75 C 299.21 83.12 299.54 84.50 299.88 85.87 C 300.28 85.52 301.09 84.82 301.49 84.47 C 302.59 84.72 303.70 84.97 304.82 85.23 C 303.15 87.07 301.63 89.04 300.36 91.17 C 300.06 89.92 299.74 88.68 299.41 87.45 C 298.52 87.63 297.63 87.82 296.75 88.00 Z" fill="#a6735f" opacity="1.00" stroke="#a6735f" stroke-width="0.25"/>
<path d="M 307.56 83.96 C 309.00 84.05 310.43 84.15 311.88 84.25 C 311.20 85.72 310.51 87.19 309.83 88.66 C 309.44 89.46 309.06 90.27 308.69 91.08 C 307.34 90.75 305.99 90.48 304.64 90.22 C 305.53 89.19 306.42 88.16 307.32 87.14 C 307.40 86.08 307.47 85.02 307.56 83.96 Z" fill="#a16f5d" opacity="1.00" stroke="#a16f5d" stroke-width="0.25"/>
<path d="M 306.24 94.20 C 308.29 94.64 306.84 97.73 305.10 97.15 C 303.09 96.64 304.61 93.83 306.24 94.20 Z" fill="#9e6d57" opacity="1.00" stroke="#9e6d57" stroke-width="0.25"/>
<path d="M 301.06 103.14 C 303.08 101.14 300.50 97.87 302.48 95.72 C 302.56 98.48 304.58 99.86 307.04 100.46 C 306.09 101.21 305.14 101.97 304.20 102.74 C 304.85 102.88 306.15 103.15 306.80 103.29 C 306.17 103.89 305.56 104.49 304.94 105.10 C 306.12 105.87 307.89 106.22 308.14 107.86 C 306.54 108.10 304.93 107.96 303.34 107.83 C 301.75 108.24 300.16 108.60 298.55 108.91 C 298.57 107.88 298.58 106.85 298.59 105.82 C 297.34 106.59 296.93 108.06 296.01 109.12 C 295.31 108.54 294.62 107.94 293.96 107.33 C 295.74 105.03 298.54 104.30 301.06 103.14 Z" fill="#925f4a" opacity="1.00" stroke="#925f4a" stroke-width="0.25"/>
<path d="M 334.25 107.61 C 335.85 106.56 337.59 105.74 339.46 105.29 C 339.57 113.23 339.61 121.59 336.63 129.07 C 336.17 121.88 334.89 114.78 334.25 107.61 Z" fill="#825c50" opacity="1.00" stroke="#825c50" stroke-width="0.25"/>
<path d="M 271.21 112.33 C 291.39 115.61 312.57 114.94 332.03 108.25 C 333.36 124.11 336.93 140.55 332.16 156.17 C 330.43 162.44 326.06 167.39 321.67 171.99 C 319.18 173.69 316.66 175.35 313.95 176.70 C 311.13 177.93 308.16 178.76 305.16 179.41 C 292.43 181.23 278.81 178.06 269.11 169.39 C 264.79 165.89 261.49 161.38 258.32 156.87 C 260.05 156.23 262.17 155.76 261.90 153.47 C 257.88 154.54 252.87 155.58 249.44 152.48 C 244.74 148.73 244.91 139.37 251.09 137.29 C 255.98 135.12 260.89 141.38 265.47 138.24 C 267.24 136.92 268.13 134.78 268.79 132.74 C 270.79 126.15 271.24 119.19 271.21 112.33 Z" fill="#feccb1" opacity="1.00" stroke="#feccb1" stroke-width="0.25"/>
<path d="M 256.83 119.64 C 259.24 119.09 261.47 118.01 263.60 116.77 C 263.43 117.73 263.27 118.70 263.11 119.66 C 263.85 119.81 265.33 120.10 266.07 120.24 C 265.68 123.28 265.99 127.29 262.93 129.07 C 261.31 128.91 259.74 128.53 258.16 128.19 C 258.63 129.00 259.11 129.81 259.59 130.62 C 260.50 130.44 261.42 130.27 262.34 130.11 C 261.64 132.05 260.93 133.98 260.25 135.93 C 264.45 136.42 265.25 131.67 266.88 128.85 C 266.39 131.67 265.46 134.42 263.69 136.71 C 259.82 136.54 256.57 133.55 252.59 134.26 C 249.64 134.26 247.25 136.08 245.01 137.77 C 244.66 136.30 244.32 134.82 244.07 133.33 C 244.47 131.96 244.94 130.61 245.40 129.26 C 245.93 129.40 247.00 129.70 247.53 129.85 C 247.49 129.44 247.42 128.63 247.38 128.22 C 248.12 128.06 248.86 127.90 249.61 127.74 C 247.03 126.52 245.36 124.31 244.66 121.58 C 245.41 121.40 246.90 121.05 247.65 120.87 C 247.62 120.27 247.54 119.08 247.51 118.49 C 249.93 120.26 252.27 122.83 255.50 122.78 C 256.00 121.76 256.41 120.70 256.83 119.64 Z" fill="#996955" opacity="1.00" stroke="#996955" stroke-width="0.25"/>
<path d="M 312.70 118.75 C 314.63 117.62 316.93 117.91 319.06 118.08 C 321.18 118.35 323.63 118.18 325.27 119.83 C 325.77 120.89 325.35 122.14 325.43 123.27 C 321.14 123.44 316.81 123.42 312.62 122.39 C 312.64 121.48 312.68 119.66 312.70 118.75 Z" fill="#08314d" opacity="1.00" stroke="#08314d" stroke-width="0.25"/>
<path d="M 282.59 120.81 C 285.35 120.38 289.44 117.88 291.38 120.94 C 291.31 121.47 291.18 122.53 291.11 123.06 C 286.70 125.31 281.78 126.60 276.91 127.37 C 274.79 127.99 274.12 125.57 274.38 123.99 C 276.80 122.27 279.81 121.73 282.59 120.81 Z" fill="#0b2c48" opacity="1.00" stroke="#0b2c48" stroke-width="0.25"/>
<path d="M 257.25 123.21 C 258.28 122.22 260.47 122.73 260.79 124.19 C 260.40 126.09 256.17 125.15 257.25 123.21 Z" fill="#b08269" opacity="1.00" stroke="#b08269" stroke-width="0.25"/>
<path d="M 318.71 132.55 C 321.29 131.68 325.31 132.46 324.61 136.01 C 324.85 139.35 320.89 138.83 318.70 138.32 C 317.74 136.44 318.04 134.47 318.71 132.55 Z" fill="#0b2e43" opacity="1.00" stroke="#0b2e43" stroke-width="0.25"/>
<path d="M 336.79 131.27 C 340.48 132.46 343.01 136.10 342.56 140.01 C 342.77 144.00 339.69 146.96 336.62 148.95 C 337.35 143.07 337.19 137.16 336.79 131.27 Z" fill="#f7d0be" opacity="1.00" stroke="#f7d0be" stroke-width="0.25"/>
<path d="M 427.77 136.00 C 429.93 134.39 431.79 131.06 434.90 131.84 C 437.38 133.08 436.24 136.17 436.34 138.34 C 440.79 136.06 445.42 133.13 450.68 134.39 C 450.63 135.67 450.74 136.98 450.46 138.24 C 446.71 141.49 442.24 143.82 438.02 146.40 C 437.24 146.32 435.66 146.17 434.88 146.10 C 438.47 141.54 444.37 139.65 448.97 136.27 C 443.24 137.01 438.13 140.22 433.40 143.36 C 434.72 145.16 434.14 147.27 433.37 149.12 C 432.40 152.98 428.11 155.68 424.46 153.16 C 426.43 152.33 429.00 152.13 430.20 150.08 C 432.13 147.87 430.84 144.90 430.95 142.29 C 432.35 139.58 434.05 136.97 434.71 133.94 C 431.43 134.87 429.42 137.77 426.92 139.87 C 423.91 142.61 420.35 144.75 417.77 147.95 C 416.42 149.49 415.32 151.48 413.23 152.10 C 397.45 157.99 381.50 163.47 365.29 168.05 C 366.01 172.25 366.82 176.45 367.39 180.68 C 367.27 184.59 366.81 188.48 366.54 192.38 C 365.59 184.20 364.51 175.99 362.26 168.05 C 362.06 168.71 361.88 169.37 361.71 170.04 C 361.01 170.06 359.62 170.11 358.93 170.13 C 348.25 170.73 337.71 172.90 327.04 173.72 C 327.20 173.10 327.50 171.85 327.65 171.23 C 341.13 169.65 354.56 167.52 367.85 164.85 C 383.44 160.20 398.81 154.87 414.05 149.22 C 417.16 143.46 423.32 140.55 427.77 136.00 Z" fill="#112639" opacity="1.00" stroke="#112639" stroke-width="0.25"/>
<path d="M 426.92 139.87 C 429.42 137.77 431.43 134.87 434.71 133.94 C 434.05 136.97 432.35 139.58 430.95 142.29 C 430.84 144.90 432.13 147.87 430.20 150.08 C 429.00 152.13 426.43 152.33 424.46 153.16 C 428.11 155.68 432.40 152.98 433.37 149.12 C 433.58 148.59 434.00 147.54 434.21 147.01 C 435.33 146.98 436.44 146.95 437.57 146.92 C 437.52 147.60 437.42 148.97 437.37 149.66 C 442.30 148.87 447.17 147.18 452.23 147.66 C 447.66 150.35 442.08 150.19 437.38 152.55 C 436.97 153.37 436.69 154.25 436.39 155.13 C 439.82 155.31 443.25 155.38 446.66 155.79 C 441.41 157.96 435.56 157.97 430.30 160.19 C 425.25 162.32 419.30 161.56 414.66 164.74 C 400.17 173.86 384.07 179.85 368.48 186.72 C 368.10 184.71 367.70 182.70 367.39 180.68 C 366.82 176.45 366.01 172.25 365.29 168.05 C 381.50 163.47 397.45 157.99 413.23 152.10 C 415.32 151.48 416.42 149.49 417.77 147.95 C 420.35 144.75 423.91 142.61 426.92 139.87 Z" fill="#feccb1" opacity="1.00" stroke="#feccb1" stroke-width="0.25"/>
<path d="M 284.59 135.48 C 287.49 132.02 292.93 137.36 289.34 140.35 C 286.37 143.77 281.12 138.34 284.59 135.48 Z" fill="#093451" opacity="1.00" stroke="#093451" stroke-width="0.25"/>
<path d="M 302.14 135.71 C 305.65 138.24 308.23 141.79 310.82 145.20 C 308.40 147.28 305.15 146.97 302.20 146.90 C 302.19 146.38 302.17 145.35 302.16 144.83 C 304.09 144.82 306.02 144.77 307.95 144.74 C 307.00 143.60 306.06 142.46 305.11 141.33 C 303.76 139.65 301.65 138.17 302.14 135.71 Z" fill="#192330" opacity="1.00" stroke="#192330" stroke-width="0.25"/>
<path d="M 305.11 141.33 C 306.06 142.46 307.00 143.60 307.95 144.74 C 306.02 144.77 304.09 144.82 302.16 144.83 C 303.25 144.54 304.35 144.26 305.46 143.98 C 305.37 143.32 305.19 142.00 305.11 141.33 Z" fill="#ffffff" opacity="1.00" stroke="#ffffff" stroke-width="0.25"/>
<path d="M 437.67 147.24 C 442.70 145.18 448.29 144.70 453.65 145.51 C 453.67 147.04 453.61 148.57 453.47 150.10 C 450.41 151.22 447.30 152.22 444.09 152.86 C 446.19 153.40 449.27 152.48 450.25 154.96 C 451.04 156.45 449.17 157.43 448.24 158.21 C 444.97 159.36 441.49 159.74 438.15 160.61 C 433.10 161.72 428.31 163.92 423.15 164.50 C 421.54 164.72 419.85 164.72 418.42 165.54 C 402.89 174.99 386.19 182.41 369.20 188.77 C 369.06 192.86 369.39 196.94 369.35 201.04 C 359.39 203.92 349.18 205.82 339.11 208.26 C 338.23 207.65 337.36 207.03 336.51 206.39 C 336.50 206.24 336.47 205.93 336.46 205.78 C 344.67 204.85 352.48 201.80 360.74 201.13 C 363.43 198.82 362.79 194.87 363.29 191.71 C 363.46 194.40 363.62 197.09 363.80 199.79 C 364.55 199.49 366.03 198.89 366.77 198.59 C 366.68 196.52 366.60 194.45 366.54 192.38 C 366.81 188.48 367.27 184.59 367.39 180.68 C 367.70 182.70 368.10 184.71 368.48 186.72 C 384.07 179.85 400.17 173.86 414.66 164.74 C 419.30 161.56 425.25 162.32 430.30 160.19 C 435.56 157.97 441.41 157.96 446.66 155.79 C 443.25 155.38 439.82 155.31 436.39 155.13 C 436.69 154.25 436.97 153.37 437.38 152.55 C 442.08 150.19 447.66 150.35 452.23 147.66 C 447.17 147.18 442.30 148.87 437.37 149.66 C 437.42 148.97 437.52 147.60 437.57 146.92 L 437.67 147.24 Z" fill="#12273e" opacity="1.00" stroke="#12273e" stroke-width="0.25"/>
<path d="M 291.19 153.28 C 298.86 154.10 306.28 152.14 313.63 150.23 C 313.56 152.75 313.39 155.28 312.88 157.75 C 312.57 155.74 312.17 153.75 311.79 151.76 C 309.12 152.32 306.65 153.52 304.57 155.31 C 300.77 155.37 296.97 155.43 293.18 155.41 C 295.27 161.76 297.96 170.53 306.11 170.62 C 306.52 170.83 307.36 171.23 307.78 171.44 C 305.29 172.68 302.32 172.83 300.06 171.02 C 294.65 166.85 291.78 159.96 291.19 153.28 Z" fill="#071c30" opacity="1.00" stroke="#071c30" stroke-width="0.25"/>
<path d="M 304.57 155.31 C 306.65 153.52 309.12 152.32 311.79 151.76 C 312.17 153.75 312.57 155.74 312.88 157.75 C 312.68 162.70 310.77 167.51 307.78 171.44 C 307.36 171.23 306.52 170.83 306.11 170.62 C 307.32 165.62 307.99 160.50 307.66 155.35 C 306.88 155.34 305.34 155.32 304.57 155.31 Z" fill="#073258" opacity="1.00" stroke="#073258" stroke-width="0.25"/>
<path d="M 293.18 155.41 C 296.97 155.43 300.77 155.37 304.57 155.31 C 305.34 155.32 306.88 155.34 307.66 155.35 C 307.99 160.50 307.32 165.62 306.11 170.62 C 297.96 170.53 295.27 161.76 293.18 155.41 Z" fill="#fbffff" opacity="1.00" stroke="#fbffff" stroke-width="0.25"/>
<path d="M 361.71 170.04 C 361.88 169.37 362.06 168.71 362.26 168.05 C 364.51 175.99 365.59 184.20 366.54 192.38 C 366.60 194.45 366.68 196.52 366.77 198.59 C 366.03 198.89 364.55 199.49 363.80 199.79 C 363.62 197.09 363.46 194.40 363.29 191.71 C 363.16 189.27 362.79 186.85 362.52 184.42 C 362.41 179.61 361.55 174.85 361.71 170.04 Z" fill="#d57048" opacity="1.00" stroke="#d57048" stroke-width="0.25"/>
<path d="M 266.86 170.52 C 267.42 170.24 268.55 169.67 269.11 169.39 C 278.81 178.06 292.43 181.23 305.16 179.41 C 303.35 179.85 301.56 180.36 299.78 180.88 C 302.50 181.12 305.22 181.17 307.95 181.19 C 307.01 182.09 306.09 183.01 305.12 183.87 C 305.62 183.23 306.61 181.95 307.11 181.31 C 300.53 182.50 293.84 182.28 287.28 181.10 C 287.37 181.50 287.54 182.28 287.63 182.67 C 287.18 183.09 286.26 183.92 285.81 184.34 C 285.51 184.64 284.90 185.23 284.60 185.53 C 286.04 191.59 285.61 197.88 284.64 203.98 C 283.57 212.12 280.83 220.00 276.85 227.16 C 274.55 230.19 272.79 233.73 271.84 237.43 C 271.72 237.07 271.48 236.36 271.36 236.01 C 269.49 238.74 267.00 240.90 264.41 242.91 C 262.41 244.91 260.32 246.88 257.78 248.18 C 254.50 248.67 250.98 249.15 248.37 251.38 C 246.99 253.37 246.77 255.89 246.10 258.17 C 246.25 256.53 246.40 254.90 246.54 253.27 C 242.59 253.61 237.25 254.23 235.00 250.07 C 232.93 244.70 234.22 238.82 234.71 233.27 C 236.97 232.47 239.26 231.47 240.37 229.17 L 240.68 228.77 C 247.19 224.82 253.99 221.41 260.65 217.73 C 264.32 216.00 264.66 211.51 266.27 208.25 C 266.99 208.37 267.72 208.49 268.45 208.59 L 266.31 207.52 C 268.56 199.06 268.62 188.95 262.30 182.15 C 261.93 181.84 261.21 181.22 260.84 180.91 C 256.34 180.70 252.04 182.19 247.72 183.21 C 250.92 181.99 251.94 178.44 254.42 176.35 C 257.49 173.27 261.78 172.02 265.89 171.02 L 266.86 170.52 Z" fill="#033255" opacity="1.00" stroke="#033255" stroke-width="0.25"/>
<path d="M 321.67 171.99 C 323.14 171.40 324.64 170.88 326.10 170.26 C 326.24 170.61 326.52 171.31 326.66 171.66 L 327.65 171.23 C 327.50 171.85 327.20 173.10 327.04 173.72 C 328.68 178.45 331.94 182.41 333.57 187.15 C 335.85 193.08 336.50 199.47 336.46 205.78 C 336.47 205.93 336.50 206.24 336.51 206.39 C 337.36 207.03 338.23 207.65 339.11 208.26 C 338.02 208.42 336.93 208.57 335.85 208.74 C 335.26 220.35 333.07 232.41 326.55 242.25 C 325.99 241.80 324.88 240.89 324.32 240.44 C 324.53 233.69 325.32 226.97 325.27 220.21 C 325.74 219.87 326.70 219.19 327.17 218.85 C 327.48 219.71 327.82 220.56 328.19 221.41 C 329.55 206.01 327.89 189.23 318.50 176.42 C 318.56 177.07 318.69 178.35 318.76 178.99 C 317.04 178.47 315.42 177.72 313.95 176.70 C 316.66 175.35 319.18 173.69 321.67 171.99 Z" fill="#033255" opacity="1.00" stroke="#033255" stroke-width="0.25"/>
<path d="M 327.04 173.72 C 337.71 172.90 348.25 170.73 358.93 170.13 C 359.75 180.19 360.85 190.25 360.75 200.35 C 360.75 200.55 360.74 200.94 360.74 201.13 C 352.48 201.80 344.67 204.85 336.46 205.78 C 336.50 199.47 335.85 193.08 333.57 187.15 C 331.94 182.41 328.68 178.45 327.04 173.72 Z" fill="#f86732" opacity="1.00" stroke="#f86732" stroke-width="0.25"/>
<path d="M 358.93 170.13 C 359.62 170.11 361.01 170.06 361.71 170.04 C 361.55 174.85 362.41 179.61 362.52 184.42 C 360.94 189.58 360.99 195.01 360.75 200.35 C 360.85 190.25 359.75 180.19 358.93 170.13 Z" fill="#0b2c48" opacity="1.00" stroke="#0b2c48" stroke-width="0.25"/>
<path d="M 261.84 175.22 C 265.86 173.83 269.85 176.82 272.09 179.95 C 277.29 187.23 277.60 197.04 275.25 205.43 C 273.38 212.04 271.17 218.65 267.61 224.57 C 266.55 226.26 265.71 228.27 263.84 229.24 C 265.05 225.31 268.01 222.25 269.43 218.40 C 273.59 208.31 277.67 196.92 273.86 186.07 C 272.39 180.39 267.66 176.06 261.84 175.22 Z" fill="#f7ffff" opacity="1.00" stroke="#f7ffff" stroke-width="0.25"/>
<path d="M 305.16 179.41 C 308.16 178.76 311.13 177.93 313.95 176.70 C 315.42 177.72 317.04 178.47 318.76 178.99 C 326.59 190.62 327.61 205.23 327.17 218.85 C 326.70 219.19 325.74 219.87 325.27 220.21 C 325.32 226.97 324.53 233.69 324.32 240.44 C 324.88 240.89 325.99 241.80 326.55 242.25 C 325.87 243.18 324.48 243.74 324.53 245.06 C 323.89 251.10 322.85 257.08 322.05 263.09 C 322.14 265.05 320.16 265.04 318.77 265.47 C 316.69 281.13 311.37 296.52 302.77 309.82 C 297.48 317.44 291.24 324.68 283.39 329.74 C 282.06 333.39 283.18 337.36 282.41 341.11 C 281.90 341.27 280.88 341.59 280.37 341.74 C 281.86 351.62 283.89 361.41 285.65 371.25 C 284.74 371.35 283.84 371.46 282.94 371.60 C 282.46 367.86 281.88 364.14 280.91 360.51 C 280.11 354.41 278.70 348.40 278.14 342.27 C 270.80 342.85 263.45 343.36 256.13 344.08 C 256.85 353.80 259.11 363.34 260.94 372.91 C 261.18 374.09 261.38 375.26 261.61 376.46 C 267.76 374.67 273.97 373.01 280.32 372.06 C 278.45 374.10 275.63 374.38 273.11 375.02 C 270.13 375.65 267.26 376.71 264.27 377.26 C 262.22 377.67 260.49 376.14 258.76 375.31 C 257.39 366.88 255.51 358.54 254.23 350.09 C 248.48 352.68 243.52 356.66 238.06 359.77 C 236.78 353.50 233.05 347.72 233.64 341.14 C 235.60 346.22 237.09 351.47 238.71 356.68 C 243.64 353.53 248.54 350.31 253.49 347.18 C 253.47 346.24 253.44 345.30 253.42 344.37 C 250.89 344.05 248.36 343.74 245.84 343.43 C 245.19 337.86 244.36 332.32 244.02 326.73 C 239.64 329.03 235.36 331.59 231.52 334.74 C 231.71 335.32 232.08 336.49 232.26 337.07 C 231.39 335.55 230.45 334.08 229.52 332.60 C 230.26 332.27 231.00 331.94 231.74 331.60 C 235.67 329.11 239.56 326.56 243.54 324.15 C 241.86 307.77 242.24 291.20 244.49 274.89 C 244.84 271.12 245.91 267.37 245.38 263.56 C 245.17 261.73 245.71 259.94 246.10 258.17 C 246.77 255.89 246.99 253.37 248.37 251.38 C 250.98 249.15 254.50 248.67 257.78 248.18 C 254.85 249.92 251.79 251.38 248.68 252.74 C 248.50 255.66 248.35 258.58 248.21 261.50 C 268.44 263.09 288.78 264.48 309.08 263.11 C 312.64 262.76 316.22 262.54 319.80 262.45 C 322.37 243.42 324.94 224.20 323.49 204.97 C 322.62 197.03 320.52 189.14 316.83 182.03 C 315.94 180.78 315.12 178.53 313.19 179.22 C 309.32 179.86 308.50 184.59 305.34 186.39 C 299.20 189.95 291.33 188.35 285.81 184.34 C 286.26 183.92 287.18 183.09 287.63 182.67 C 292.42 186.81 299.91 187.80 305.12 183.87 C 306.09 183.01 307.01 182.09 307.95 181.19 C 305.22 181.17 302.50 181.12 299.78 180.88 C 301.56 180.36 303.35 179.85 305.16 179.41 Z" fill="#0f2a34" opacity="1.00" stroke="#0f2a34" stroke-width="0.25"/>
<path d="M 318.76 178.99 C 318.69 178.35 318.56 177.07 318.50 176.42 C 327.89 189.23 329.55 206.01 328.19 221.41 C 327.82 220.56 327.48 219.71 327.17 218.85 C 327.61 205.23 326.59 190.62 318.76 178.99 Z" fill="#f7ffff" opacity="1.00" stroke="#f7ffff" stroke-width="0.25"/>
<path d="M 305.34 186.39 C 308.50 184.59 309.32 179.86 313.19 179.22 C 315.12 178.53 315.94 180.78 316.83 182.03 C 320.52 189.14 322.62 197.03 323.49 204.97 C 324.94 224.20 322.37 243.42 319.80 262.45 C 316.22 262.54 312.64 262.76 309.08 263.11 C 288.78 264.48 268.44 263.09 248.21 261.50 C 248.35 258.58 248.50 255.66 248.68 252.74 C 251.79 251.38 254.85 249.92 257.78 248.18 C 260.32 246.88 262.41 244.91 264.41 242.91 C 266.46 241.35 268.58 239.88 270.76 238.50 C 269.36 242.58 265.47 244.73 262.27 247.22 C 259.18 249.65 255.59 251.30 252.21 253.26 C 249.44 254.52 249.18 259.60 252.34 260.52 C 257.52 261.26 262.80 260.88 268.02 261.34 C 277.67 261.53 287.35 262.87 297.00 261.81 C 304.18 261.12 311.42 261.46 318.61 260.77 C 319.05 253.10 320.91 245.60 321.32 237.93 C 321.61 226.39 323.97 214.79 321.83 203.29 C 321.73 197.42 319.79 191.84 317.52 186.50 C 316.51 184.33 315.44 182.12 313.71 180.43 C 311.20 181.11 310.06 183.68 308.40 185.42 C 306.36 188.06 303.06 189.28 299.90 189.92 C 295.42 190.74 291.11 188.81 286.96 187.40 C 286.99 195.64 287.63 204.10 284.97 212.05 C 283.45 218.80 280.09 224.90 276.90 230.98 C 276.08 232.52 274.72 233.65 273.46 234.80 C 274.08 232.03 275.72 229.71 276.85 227.16 C 280.83 220.00 283.57 212.12 284.64 203.98 C 285.61 197.88 286.04 191.59 284.60 185.53 C 284.90 185.23 285.51 184.64 285.81 184.34 C 291.33 188.35 299.20 189.95 305.34 186.39 Z" fill="#d57048" opacity="1.00" stroke="#d57048" stroke-width="0.25"/>
<path d="M 308.40 185.42 C 310.06 183.68 311.20 181.11 313.71 180.43 C 315.44 182.12 316.51 184.33 317.52 186.50 C 315.43 185.90 313.45 185.01 311.54 184.00 C 310.90 185.65 310.27 187.30 309.64 188.95 C 310.22 189.71 310.81 190.48 311.41 191.24 C 311.12 194.08 311.89 196.82 314.68 198.07 C 315.93 197.03 317.18 196.00 318.44 194.98 C 320.03 197.53 321.15 200.35 321.83 203.29 C 323.97 214.79 321.61 226.39 321.32 237.93 C 320.91 245.60 319.05 253.10 318.61 260.77 C 311.42 261.46 304.18 261.12 297.00 261.81 C 287.35 262.87 277.67 261.53 268.02 261.34 C 262.80 260.88 257.52 261.26 252.34 260.52 C 249.18 259.60 249.44 254.52 252.21 253.26 C 255.59 251.30 259.18 249.65 262.27 247.22 C 265.47 244.73 269.36 242.58 270.76 238.50 C 268.58 239.88 266.46 241.35 264.41 242.91 C 267.00 240.90 269.49 238.74 271.36 236.01 C 271.48 236.36 271.72 237.07 271.84 237.43 C 272.79 233.73 274.55 230.19 276.85 227.16 C 275.72 229.71 274.08 232.03 273.46 234.80 C 274.72 233.65 276.08 232.52 276.90 230.98 C 280.09 224.90 283.45 218.80 284.97 212.05 C 287.63 204.10 286.99 195.64 286.96 187.40 C 291.11 188.81 295.42 190.74 299.90 189.92 C 303.06 189.28 306.36 188.06 308.40 185.42 Z" fill="#f96732" opacity="1.00" stroke="#f96732" stroke-width="0.25"/>
<path d="M 247.72 183.21 C 252.04 182.19 256.34 180.70 260.84 180.91 C 261.21 181.22 261.93 181.84 262.30 182.15 C 259.54 181.92 256.73 182.02 254.13 183.05 C 247.18 185.56 240.26 188.29 233.83 191.93 C 229.59 194.59 224.83 196.52 221.09 199.89 C 222.76 205.12 225.56 209.91 228.13 214.74 C 228.25 214.99 228.48 215.47 228.60 215.72 C 230.69 220.87 233.31 225.78 235.85 230.73 C 237.36 230.22 238.86 229.70 240.37 229.17 C 239.26 231.47 236.97 232.47 234.71 233.27 L 233.95 233.58 C 233.12 232.05 232.29 230.53 231.49 228.99 C 230.48 229.37 229.41 229.69 228.61 230.47 C 220.93 237.22 213.79 244.63 207.84 252.96 C 203.17 258.17 203.96 265.69 202.55 272.10 C 202.53 275.28 200.96 279.45 196.98 278.47 C 193.66 274.14 194.77 268.36 193.39 263.36 C 185.30 263.98 177.17 265.46 169.05 264.39 C 168.16 264.08 167.31 263.70 166.50 263.25 C 166.50 262.39 166.52 260.68 166.52 259.82 C 169.27 257.32 173.05 257.19 176.47 256.31 C 172.77 254.43 168.44 254.26 164.75 252.28 C 164.36 251.46 163.97 250.64 163.57 249.82 C 165.72 245.55 171.31 247.82 175.08 247.61 C 173.18 246.34 171.22 245.17 169.25 244.02 C 169.45 242.43 168.62 240.00 170.82 239.54 C 172.49 239.28 174.16 239.74 175.81 239.97 C 175.57 238.16 174.63 235.65 176.83 234.67 C 181.74 234.66 185.80 238.01 190.13 239.91 C 193.06 236.85 194.55 232.61 196.96 229.12 C 202.64 219.09 209.80 209.73 219.26 202.99 C 218.65 201.90 218.03 200.81 217.39 199.73 C 219.48 196.96 222.91 195.82 225.69 193.92 C 232.81 189.96 239.94 185.73 247.72 183.21 Z" fill="#0e263c" opacity="1.00" stroke="#0e263c" stroke-width="0.25"/>
<path d="M 287.28 181.10 C 293.84 182.28 300.53 182.50 307.11 181.31 C 306.61 181.95 305.62 183.23 305.12 183.87 C 299.91 187.80 292.42 186.81 287.63 182.67 C 287.54 182.28 287.37 181.50 287.28 181.10 Z" fill="#f8d9cb" opacity="1.00" stroke="#f8d9cb" stroke-width="0.25"/>
<path d="M 254.13 183.05 C 256.73 182.02 259.54 181.92 262.30 182.15 C 268.62 188.95 268.56 199.06 266.31 207.52 L 268.45 208.59 C 267.72 208.49 266.99 208.37 266.27 208.25 C 264.66 211.51 264.32 216.00 260.65 217.73 C 253.99 221.41 247.19 224.82 240.68 228.77 C 239.97 228.79 238.55 228.83 237.85 228.85 C 240.16 225.78 243.95 224.68 246.87 222.36 C 251.20 220.07 255.87 218.47 260.15 216.08 C 261.93 215.16 262.61 213.15 263.35 211.43 C 266.37 204.02 267.10 195.37 264.10 187.84 C 263.09 185.19 260.62 182.20 257.45 183.58 C 250.67 185.69 243.85 188.17 237.78 191.91 C 236.46 191.92 235.14 191.93 233.83 191.93 C 240.26 188.29 247.18 185.56 254.13 183.05 Z" fill="#d57048" opacity="1.00" stroke="#d57048" stroke-width="0.25"/>
<path d="M 257.45 183.58 C 260.62 182.20 263.09 185.19 264.10 187.84 C 267.10 195.37 266.37 204.02 263.35 211.43 C 262.61 213.15 261.93 215.16 260.15 216.08 C 255.87 218.47 251.20 220.07 246.87 222.36 C 245.41 221.37 243.95 220.39 242.48 219.41 C 242.02 217.02 241.65 214.61 241.32 212.20 C 239.38 212.80 236.99 212.91 235.73 214.73 C 234.02 217.00 234.03 219.98 233.62 222.68 C 232.45 220.02 230.79 217.63 228.60 215.72 C 228.48 215.47 228.25 214.99 228.13 214.74 C 227.72 211.26 226.32 208.04 224.71 204.96 C 227.43 203.47 230.81 202.42 232.22 199.40 C 233.42 197.02 234.85 194.51 237.78 194.21 C 237.78 193.64 237.78 192.49 237.78 191.91 C 243.85 188.17 250.67 185.69 257.45 183.58 Z" fill="#f96934" opacity="1.00" stroke="#f96934" stroke-width="0.25"/>
<path d="M 311.54 184.00 C 313.45 185.01 315.43 185.90 317.52 186.50 C 319.79 191.84 321.73 197.42 321.83 203.29 C 321.15 200.35 320.03 197.53 318.44 194.98 C 317.18 196.00 315.93 197.03 314.68 198.07 C 311.89 196.82 311.12 194.08 311.41 191.24 C 310.81 190.48 310.22 189.71 309.64 188.95 C 310.27 187.30 310.90 185.65 311.54 184.00 Z" fill="#f67a43" opacity="1.00" stroke="#f67a43" stroke-width="0.25"/>
<path d="M 362.52 184.42 C 362.79 186.85 363.16 189.27 363.29 191.71 C 362.79 194.87 363.43 198.82 360.74 201.13 C 360.74 200.94 360.75 200.55 360.75 200.35 C 360.99 195.01 360.94 189.58 362.52 184.42 Z" fill="#412a2e" opacity="1.00" stroke="#412a2e" stroke-width="0.25"/>
<path d="M 221.09 199.89 C 224.83 196.52 229.59 194.59 233.83 191.93 C 235.14 191.93 236.46 191.92 237.78 191.91 C 237.78 192.49 237.78 193.64 237.78 194.21 C 234.85 194.51 233.42 197.02 232.22 199.40 C 230.81 202.42 227.43 203.47 224.71 204.96 C 226.32 208.04 227.72 211.26 228.13 214.74 C 225.56 209.91 222.76 205.12 221.09 199.89 Z" fill="#f58048" opacity="1.00" stroke="#f58048" stroke-width="0.25"/>
<path d="M 203.00 223.45 C 208.10 216.78 213.41 210.05 220.39 205.23 C 222.08 208.58 223.80 211.93 225.03 215.49 C 222.43 213.48 220.79 210.60 219.17 207.81 C 217.92 209.23 216.34 210.48 215.56 212.24 C 215.70 213.48 216.06 214.67 216.35 215.88 C 216.26 216.31 216.07 217.17 215.97 217.61 C 215.59 217.30 214.81 216.69 214.42 216.39 C 213.86 217.42 213.31 218.45 212.76 219.48 C 212.15 219.07 211.54 218.66 210.94 218.25 C 209.85 219.55 208.77 220.86 207.71 222.18 C 208.42 224.79 207.72 227.04 205.24 228.32 C 205.36 227.06 205.50 225.82 205.64 224.57 C 205.23 224.44 204.42 224.19 204.01 224.06 L 203.00 223.45 Z" fill="#f1d8c9" opacity="1.00" stroke="#f1d8c9" stroke-width="0.25"/>
<path d="M 219.17 207.81 C 220.79 210.60 222.43 213.48 225.03 215.49 L 225.34 215.77 C 227.01 219.13 229.00 222.40 230.01 226.03 C 219.67 234.61 210.12 244.40 202.91 255.80 C 202.34 257.34 202.68 259.25 201.67 260.58 C 201.27 261.01 200.47 261.87 200.07 262.30 C 199.21 264.44 198.84 266.73 198.41 268.99 C 198.12 265.61 198.57 260.66 194.34 259.60 C 190.30 259.18 186.24 259.94 182.18 259.80 C 183.63 258.84 185.07 257.90 186.53 256.96 C 185.94 256.72 184.77 256.23 184.19 255.99 C 183.76 255.80 182.90 255.43 182.47 255.25 C 183.64 254.07 184.81 252.88 185.97 251.69 C 185.83 251.58 185.55 251.34 185.41 251.23 L 184.18 250.13 L 184.98 249.29 C 185.54 248.71 186.09 248.14 186.65 247.57 C 185.65 246.80 184.66 246.03 183.65 245.29 C 185.08 245.78 186.52 246.26 187.96 246.72 C 187.91 244.18 185.27 243.57 184.00 241.84 C 185.82 242.66 187.59 243.60 189.32 244.61 C 192.60 243.96 193.79 241.08 194.61 238.19 C 197.16 233.26 200.23 228.61 202.95 223.77 L 204.01 224.06 C 204.42 224.19 205.23 224.44 205.64 224.57 C 205.50 225.82 205.36 227.06 205.24 228.32 C 207.72 227.04 208.42 224.79 207.71 222.18 C 208.77 220.86 209.85 219.55 210.94 218.25 C 211.54 218.66 212.15 219.07 212.76 219.48 C 213.31 218.45 213.86 217.42 214.42 216.39 C 214.81 216.69 215.59 217.30 215.97 217.61 C 216.07 217.17 216.26 216.31 216.35 215.88 C 216.06 214.67 215.70 213.48 215.56 212.24 C 216.34 210.48 217.92 209.23 219.17 207.81 Z" fill="#fecaaf" opacity="1.00" stroke="#fecaaf" stroke-width="0.25"/>
<path d="M 312.91 211.50 C 313.87 212.52 314.82 213.55 315.77 214.58 C 314.80 216.45 313.98 218.39 313.26 220.36 C 312.18 220.90 311.09 221.44 310.00 221.98 C 309.27 221.16 308.55 220.35 307.82 219.54 C 307.03 219.48 306.25 219.43 305.46 219.38 C 305.47 217.50 305.10 215.54 305.78 213.74 C 307.75 211.95 310.82 213.21 312.91 211.50 Z" fill="#fc7c46" opacity="1.00" stroke="#fc7c46" stroke-width="0.25"/>
<path d="M 235.73 214.73 C 236.99 212.91 239.38 212.80 241.32 212.20 C 241.65 214.61 242.02 217.02 242.48 219.41 C 243.95 220.39 245.41 221.37 246.87 222.36 C 243.95 224.68 240.16 225.78 237.85 228.85 C 238.55 228.83 239.97 228.79 240.68 228.77 L 240.37 229.17 C 238.86 229.70 237.36 230.22 235.85 230.73 C 233.31 225.78 230.69 220.87 228.60 215.72 C 230.79 217.63 232.45 220.02 233.62 222.68 C 234.03 219.98 234.02 217.00 235.73 214.73 Z" fill="#f87742" opacity="1.00" stroke="#f87742" stroke-width="0.25"/>
<path d="M 249.52 231.37 C 253.44 228.64 255.72 224.26 259.33 221.22 C 258.99 221.99 258.66 222.77 258.33 223.55 C 254.44 228.97 249.14 235.64 241.68 234.75 C 244.15 233.27 247.25 233.24 249.52 231.37 Z" fill="#f7ffff" opacity="1.00" stroke="#f7ffff" stroke-width="0.25"/>
<path d="M 293.94 227.24 C 297.82 227.10 301.87 225.77 305.67 227.19 C 305.11 227.96 304.56 228.74 304.02 229.53 C 305.33 229.86 306.64 230.19 307.96 230.53 C 306.44 230.80 304.94 231.09 303.43 231.37 C 303.65 232.56 304.04 233.75 303.88 234.98 C 300.77 235.12 298.40 232.56 295.84 231.14 C 294.26 230.46 294.16 228.70 293.94 227.24 Z" fill="#fa7845" opacity="1.00" stroke="#fa7845" stroke-width="0.25"/>
<path d="M 176.98 237.40 C 181.13 237.10 184.61 239.91 188.08 241.80 C 189.07 242.99 190.26 244.10 191.91 243.24 C 192.85 241.58 193.64 239.84 194.61 238.19 C 193.79 241.08 192.60 243.96 189.32 244.61 C 187.59 243.60 185.82 242.66 184.00 241.84 C 181.50 240.64 179.14 239.14 176.98 237.40 Z" fill="#ffffff" opacity="1.00" stroke="#ffffff" stroke-width="0.25"/>
<path d="M 170.84 241.74 C 175.31 241.58 179.86 242.95 183.65 245.29 C 184.66 246.03 185.65 246.80 186.65 247.57 C 186.09 248.14 185.54 248.71 184.98 249.29 C 180.32 246.69 174.83 245.40 170.84 241.74 Z" fill="#efd1c6" opacity="1.00" stroke="#efd1c6" stroke-width="0.25"/>
<path d="M 99.02 245.61 C 106.33 243.40 114.28 244.84 121.06 248.07 C 124.86 249.73 128.72 251.84 133.01 251.53 C 136.40 251.77 139.12 248.95 142.53 249.40 C 141.24 256.17 137.18 263.52 130.33 265.89 C 134.07 273.67 136.94 282.48 134.77 291.14 C 133.86 295.93 130.57 299.69 127.20 303.00 C 131.52 303.95 135.75 305.29 140.07 306.24 C 141.67 306.61 143.41 306.75 144.92 305.94 C 151.98 302.90 158.41 298.58 165.34 295.28 C 167.38 291.41 169.41 287.50 172.04 284.00 C 173.12 282.53 175.72 283.20 176.28 284.86 C 176.65 287.07 175.65 289.14 175.03 291.20 C 177.65 289.61 180.48 288.16 183.66 288.72 C 183.58 290.01 183.49 291.30 183.39 292.60 C 183.96 292.60 185.09 292.61 185.66 292.61 C 185.93 294.54 185.17 296.18 183.34 296.97 C 183.86 298.05 184.38 299.12 184.90 300.22 C 179.71 302.92 173.79 303.58 168.24 305.23 C 162.88 309.78 157.76 314.72 151.80 318.53 C 148.45 320.76 144.22 321.10 141.02 323.59 C 135.49 323.52 130.06 322.18 124.60 321.39 C 124.51 326.36 123.70 331.40 121.51 335.90 C 120.18 338.52 117.77 341.00 114.60 340.82 C 113.75 342.22 112.93 343.63 112.12 345.06 C 112.45 342.93 112.72 340.80 113.05 338.68 C 115.87 328.49 117.09 317.55 114.54 307.18 C 113.43 308.40 112.81 310.65 110.84 310.57 C 109.11 310.81 107.63 309.78 106.15 309.07 C 105.01 306.01 101.57 306.26 98.94 305.51 C 100.94 316.79 97.93 329.42 89.46 337.46 C 86.57 340.42 82.79 342.40 78.77 343.30 C 75.81 343.29 72.82 343.19 70.00 342.21 C 68.75 335.65 71.66 329.34 73.72 323.26 C 70.46 324.38 67.29 325.73 64.05 326.91 C 64.01 325.22 61.78 324.35 61.23 326.13 C 58.15 331.53 55.70 337.29 53.55 343.12 C 55.22 346.52 58.09 350.27 57.08 354.18 C 54.13 355.47 52.06 352.52 50.40 350.58 C 48.45 352.83 46.33 355.57 43.11 355.82 C 39.56 355.91 35.43 354.55 33.69 351.20 C 33.12 349.63 34.47 348.46 35.23 347.30 C 37.27 344.64 39.84 342.45 42.57 340.53 C 45.53 329.59 47.50 316.33 58.24 310.11 C 58.35 309.55 58.56 308.41 58.67 307.84 C 65.20 305.03 71.96 302.70 78.96 301.38 C 81.59 300.96 83.41 298.70 85.99 298.09 C 82.15 293.94 78.46 289.39 76.90 283.84 C 75.47 279.70 75.50 275.29 75.54 270.98 C 72.41 272.04 69.17 273.33 67.03 275.98 C 64.83 278.67 62.98 281.84 59.80 283.53 C 53.08 287.79 44.37 287.68 37.14 284.82 C 33.21 283.26 29.32 281.56 25.63 279.49 C 25.37 279.11 24.84 278.35 24.58 277.96 C 25.04 277.30 25.50 276.63 25.96 275.97 C 31.89 275.01 37.10 271.47 41.22 267.23 C 45.62 262.56 49.16 256.22 55.86 254.62 C 62.43 252.89 68.57 256.57 73.58 260.42 C 74.77 260.97 76.44 262.85 77.70 261.59 C 79.52 258.23 80.87 254.19 84.51 252.33 C 89.41 250.20 93.75 246.83 99.02 245.61 Z" fill="#14283c" opacity="1.00" stroke="#14283c" stroke-width="0.25"/>
<path d="M 88.76 253.44 C 93.28 248.93 99.67 246.79 105.94 246.53 C 112.99 246.32 119.42 249.64 125.71 252.37 C 129.48 254.05 133.69 253.42 137.68 253.35 C 132.02 255.10 126.03 255.11 120.21 256.08 C 120.68 255.53 121.15 254.98 121.62 254.44 C 118.28 252.51 115.21 250.04 111.58 248.67 C 107.67 247.79 103.55 248.00 99.62 248.73 C 94.87 249.63 91.64 253.57 87.33 255.44 C 81.49 258.11 80.25 265.08 78.21 270.50 C 77.86 264.59 80.48 258.73 84.64 254.62 C 85.65 253.33 87.32 253.53 88.76 253.44 Z" fill="#896055" opacity="1.00" stroke="#896055" stroke-width="0.25"/>
<path d="M 187.44 253.32 C 188.88 250.38 191.50 248.15 194.63 247.19 C 195.22 247.92 195.81 248.66 196.41 249.39 C 197.15 249.38 197.90 249.38 198.64 249.38 C 198.96 251.11 199.27 252.85 199.58 254.60 C 197.31 254.98 195.21 255.90 193.33 257.22 C 190.69 259.03 187.40 256.04 187.44 253.32 Z" fill="#fed8c1" opacity="1.00" stroke="#fed8c1" stroke-width="0.25"/>
<path d="M 99.62 248.73 C 103.55 248.00 107.67 247.79 111.58 248.67 C 115.21 250.04 118.28 252.51 121.62 254.44 C 121.15 254.98 120.68 255.53 120.21 256.08 C 126.03 255.11 132.02 255.10 137.68 253.35 C 138.04 253.23 138.77 253.00 139.13 252.88 C 137.61 260.01 130.89 264.74 124.03 266.02 C 116.39 267.61 108.68 266.06 101.33 263.93 C 101.46 265.18 101.63 266.43 101.63 267.69 C 99.85 268.96 97.45 269.34 95.96 270.97 C 96.54 274.22 98.82 277.73 96.94 280.96 C 95.56 282.23 93.86 280.94 92.36 280.70 C 90.07 279.88 87.59 280.26 85.35 281.03 C 84.95 281.19 84.16 281.51 83.76 281.67 C 82.90 283.39 82.14 285.15 81.39 286.92 C 80.98 285.25 80.56 283.59 80.14 281.93 C 80.51 282.12 81.25 282.52 81.62 282.72 C 81.62 281.66 81.62 280.61 81.61 279.56 C 83.25 278.90 84.89 278.24 86.53 277.58 C 83.66 275.69 80.66 273.99 77.56 272.52 C 77.72 272.02 78.05 271.01 78.21 270.50 C 80.25 265.08 81.49 258.11 87.33 255.44 C 91.64 253.57 94.87 249.63 99.62 248.73 Z" fill="#825240" opacity="1.00" stroke="#825240" stroke-width="0.25"/>
<path d="M 166.00 249.47 C 172.61 248.82 178.83 252.03 185.41 251.23 C 185.55 251.34 185.83 251.58 185.97 251.69 C 184.81 252.88 183.64 254.07 182.47 255.25 C 177.46 253.03 171.90 252.64 166.77 250.87 L 166.00 249.47 Z" fill="#eed7c9" opacity="1.00" stroke="#eed7c9" stroke-width="0.25"/>
<path d="M 371.96 262.63 C 377.93 254.69 388.47 251.69 398.04 252.17 C 403.44 252.15 408.59 253.90 413.77 255.20 C 417.95 256.26 422.29 255.78 426.48 255.03 C 426.42 256.70 426.36 258.38 426.28 260.06 C 424.87 266.49 420.53 271.75 414.81 274.89 C 418.04 283.77 420.59 293.82 417.26 303.05 C 416.18 305.49 415.03 308.37 412.53 309.64 C 411.69 310.02 410.84 310.40 409.99 310.76 C 410.09 310.40 410.31 309.69 410.42 309.34 C 412.69 306.92 415.02 304.34 415.81 301.02 C 418.02 292.79 416.16 284.03 413.24 276.22 C 410.36 276.38 407.66 277.47 404.83 277.90 C 400.21 278.68 395.58 277.63 391.00 277.12 C 390.08 278.61 389.06 280.05 387.75 281.23 C 387.62 284.80 388.04 288.86 385.03 291.46 C 381.39 291.21 376.12 288.41 373.70 292.51 C 371.78 296.40 376.16 301.02 380.25 299.48 C 380.85 300.73 381.36 302.01 381.95 303.29 C 382.67 304.34 383.46 305.34 384.28 306.33 C 383.44 306.39 382.62 306.47 381.79 306.53 C 380.06 302.48 375.77 301.25 372.36 299.09 C 370.56 295.42 370.92 290.66 374.73 288.44 C 378.20 288.47 381.64 288.89 385.09 289.29 L 385.08 288.23 C 385.23 285.27 385.34 282.28 386.01 279.39 C 388.23 279.38 390.16 276.64 387.43 275.59 C 387.43 275.18 387.44 274.36 387.45 273.95 C 395.16 275.98 403.59 277.53 411.20 274.28 C 418.34 271.71 423.70 265.16 424.63 257.60 C 420.21 257.79 415.67 258.09 411.41 256.68 C 405.20 254.64 398.63 253.45 392.09 254.27 C 384.69 255.04 376.89 258.16 373.10 264.96 C 371.85 264.22 370.61 263.46 369.42 262.62 C 368.62 261.72 367.85 260.79 367.02 259.93 C 364.17 262.09 364.52 266.03 365.46 269.07 C 365.67 269.82 366.10 271.34 366.31 272.10 C 365.18 271.70 364.06 271.31 362.94 270.92 C 357.38 281.11 361.15 294.34 369.77 301.58 C 372.70 303.73 375.96 305.39 379.36 306.66 C 377.65 306.72 375.95 306.65 374.26 306.55 C 361.95 301.22 355.19 285.59 359.89 272.98 C 360.27 271.35 361.38 270.09 362.56 268.97 C 362.07 264.75 362.68 260.50 365.82 257.40 C 369.27 256.50 370.30 260.51 371.96 262.63 Z" fill="#192330" opacity="1.00" stroke="#192330" stroke-width="0.25"/>
<path d="M 277.15 258.78 C 274.48 256.45 279.22 256.22 280.85 255.53 C 281.94 255.82 283.02 256.10 284.11 256.39 C 282.28 257.89 279.52 261.05 277.15 258.78 Z" fill="#fb7d48" opacity="1.00" stroke="#fb7d48" stroke-width="0.25"/>
<path d="M 373.10 264.96 C 376.89 258.16 384.69 255.04 392.09 254.27 C 398.63 253.45 405.20 254.64 411.41 256.68 C 415.67 258.09 420.21 257.79 424.63 257.60 C 423.70 265.16 418.34 271.71 411.20 274.28 C 403.59 277.53 395.16 275.98 387.45 273.95 C 387.44 274.36 387.43 275.18 387.43 275.59 C 386.76 276.78 386.29 278.05 386.01 279.39 C 385.34 282.28 385.23 285.27 385.08 288.23 C 384.93 285.82 384.70 283.42 384.49 281.02 C 384.40 283.13 384.31 285.24 384.23 287.35 C 381.05 287.56 377.82 287.59 374.73 288.44 C 370.92 290.66 370.56 295.42 372.36 299.09 C 371.51 299.93 370.65 300.76 369.77 301.58 C 361.15 294.34 357.38 281.11 362.94 270.92 C 364.06 271.31 365.18 271.70 366.31 272.10 C 366.10 271.34 365.67 269.82 365.46 269.07 C 364.99 266.21 365.26 263.29 366.53 260.66 C 367.25 261.15 368.70 262.13 369.42 262.62 C 370.61 263.46 371.85 264.22 373.10 264.96 Z" fill="#c77e3b" opacity="1.00" stroke="#c77e3b" stroke-width="0.25"/>
<path d="M 184.19 255.99 C 184.77 256.23 185.94 256.72 186.53 256.96 C 185.07 257.90 183.63 258.84 182.18 259.80 C 186.24 259.94 190.30 259.18 194.34 259.60 C 198.57 260.66 198.12 265.61 198.41 268.99 C 198.84 266.73 199.21 264.44 200.07 262.30 C 200.47 261.87 201.27 261.01 201.67 260.58 C 201.15 265.81 200.32 271.00 199.48 276.19 L 197.78 275.45 C 196.35 270.92 196.95 266.03 195.32 261.56 C 186.53 260.48 177.66 263.57 168.95 261.82 C 167.00 261.62 169.27 260.05 170.06 260.11 C 174.60 258.27 180.48 259.56 184.19 255.99 Z" fill="#f5cfbd" opacity="1.00" stroke="#f5cfbd" stroke-width="0.25"/>
<path d="M 42.61 268.95 C 46.10 264.03 50.20 258.97 56.01 256.77 C 63.86 254.78 70.35 260.96 76.45 264.89 C 76.18 266.12 75.91 267.36 75.64 268.59 C 71.73 269.96 67.72 271.74 65.17 275.15 C 62.58 278.51 59.70 282.02 55.54 283.43 C 50.46 284.93 44.95 284.87 39.89 283.36 C 45.00 283.79 49.53 281.44 53.88 279.13 C 53.52 278.08 53.17 277.04 52.81 276.00 C 53.92 275.38 55.03 274.76 56.14 274.15 C 55.53 273.45 54.91 272.75 54.30 272.05 C 55.96 271.31 57.64 270.59 59.31 269.86 C 55.63 268.72 50.80 265.47 47.58 269.31 C 46.51 270.27 45.59 271.50 44.23 272.09 C 43.63 271.07 43.09 270.02 42.61 268.95 Z" fill="#805140" opacity="1.00" stroke="#805140" stroke-width="0.25"/>
<path d="M 365.46 269.07 C 364.52 266.03 364.17 262.09 367.02 259.93 C 367.85 260.79 368.62 261.72 369.42 262.62 C 368.70 262.13 367.25 261.15 366.53 260.66 C 365.26 263.29 364.99 266.21 365.46 269.07 Z" fill="#efd1c6" opacity="1.00" stroke="#efd1c6" stroke-width="0.25"/>
<path d="M 248.48 264.25 C 256.44 264.71 264.42 265.04 272.36 265.74 C 264.69 267.20 256.85 266.52 249.10 266.43 C 248.61 275.34 246.87 284.14 246.76 293.07 C 246.65 300.12 246.35 307.20 247.11 314.23 C 248.16 313.09 249.22 311.95 250.16 310.71 C 249.73 309.94 249.01 309.38 248.42 308.76 C 248.38 308.52 248.30 308.05 248.26 307.82 C 248.62 307.68 249.33 307.39 249.69 307.25 C 250.22 303.49 252.24 300.29 254.97 297.74 C 256.78 299.57 258.56 301.43 260.28 303.36 C 259.34 306.05 259.44 308.89 260.19 311.62 C 261.44 311.92 262.69 312.22 263.95 312.53 C 263.08 314.32 262.79 316.83 260.67 317.61 C 259.00 318.31 257.15 319.17 255.30 318.83 C 253.17 317.59 251.39 315.86 249.51 314.28 C 245.63 317.94 247.46 323.48 247.96 328.09 C 248.73 332.72 248.20 338.14 252.03 341.58 C 251.14 341.56 249.36 341.52 248.46 341.50 C 243.97 316.02 244.20 289.75 248.48 264.25 Z" fill="#a2df5f" opacity="1.00" stroke="#a2df5f" stroke-width="0.25"/>
<path d="M 272.36 265.74 C 286.98 265.81 301.64 265.95 316.26 265.11 C 313.64 282.97 307.46 300.77 295.87 314.85 C 291.88 319.28 287.90 323.91 282.81 327.12 L 282.84 326.42 C 283.42 314.19 283.44 301.95 283.89 289.71 C 286.05 289.01 288.27 288.35 290.18 287.07 C 289.45 285.60 287.89 285.75 286.52 285.86 C 284.47 285.95 282.43 286.09 280.40 286.24 C 280.39 287.40 280.37 288.56 280.35 289.73 C 279.34 290.31 278.35 290.90 277.35 291.50 C 277.67 291.80 278.31 292.42 278.63 292.73 C 276.52 292.84 274.42 292.95 272.32 293.07 C 272.25 295.56 272.23 298.05 272.27 300.54 C 273.62 300.51 274.98 300.50 276.34 300.48 C 276.66 301.51 276.99 302.54 277.32 303.58 C 277.84 303.47 278.86 303.26 279.37 303.15 C 279.34 313.43 279.55 323.71 279.38 333.99 C 279.13 335.35 279.55 337.43 278.00 338.14 C 272.64 340.25 266.59 338.69 261.27 341.00 C 258.27 341.82 255.11 341.42 252.03 341.58 C 248.20 338.14 248.73 332.72 247.96 328.09 C 247.46 323.48 245.63 317.94 249.51 314.28 C 251.39 315.86 253.17 317.59 255.30 318.83 C 257.15 319.17 259.00 318.31 260.67 317.61 C 262.79 316.83 263.08 314.32 263.95 312.53 C 262.69 312.22 261.44 311.92 260.19 311.62 C 259.44 308.89 259.34 306.05 260.28 303.36 C 258.56 301.43 256.78 299.57 254.97 297.74 C 252.24 300.29 250.22 303.49 249.69 307.25 C 249.33 307.39 248.62 307.68 248.26 307.82 C 248.30 308.05 248.38 308.52 248.42 308.76 C 249.01 309.38 249.73 309.94 250.16 310.71 C 249.22 311.95 248.16 313.09 247.11 314.23 C 246.35 307.20 246.65 300.12 246.76 293.07 C 246.87 284.14 248.61 275.34 249.10 266.43 C 256.85 266.52 264.69 267.20 272.36 265.74 Z" fill="#90d947" opacity="1.00" stroke="#90d947" stroke-width="0.25"/>
<path d="M 47.58 269.31 C 50.80 265.47 55.63 268.72 59.31 269.86 C 57.64 270.59 55.96 271.31 54.30 272.05 C 54.91 272.75 55.53 273.45 56.14 274.15 C 55.03 274.76 53.92 275.38 52.81 276.00 C 53.17 277.04 53.52 278.08 53.88 279.13 C 49.53 281.44 45.00 283.79 39.89 283.36 C 35.86 282.01 31.87 280.48 28.10 278.53 C 30.15 276.16 34.05 275.63 36.87 274.09 C 37.86 273.89 38.85 273.70 39.85 273.54 C 41.64 274.12 43.51 274.34 45.38 274.52 C 45.14 276.72 45.55 278.84 47.15 280.48 C 51.05 277.80 49.99 272.64 47.58 269.31 Z" fill="#8e5e4d" opacity="1.00" stroke="#8e5e4d" stroke-width="0.25"/>
<path d="M 104.68 267.21 C 112.62 268.96 120.79 269.16 128.74 267.34 C 129.54 269.06 130.12 270.99 131.61 272.28 C 130.49 272.22 129.37 272.17 128.25 272.15 L 130.28 270.98 C 128.24 268.81 125.36 269.38 122.79 269.50 C 122.79 270.17 122.80 271.50 122.81 272.16 C 121.82 271.34 120.90 270.46 119.96 269.59 C 119.23 269.57 117.77 269.53 117.04 269.50 C 116.24 270.55 115.45 271.62 114.61 272.65 C 114.60 272.00 114.57 270.69 114.56 270.03 C 112.52 270.35 110.47 270.66 108.52 271.38 C 108.59 270.65 108.73 269.20 108.80 268.48 C 106.58 268.99 104.35 269.53 102.17 270.23 C 103.05 269.26 103.88 268.24 104.68 267.21 Z" fill="#e8e7e5" opacity="1.00" stroke="#e8e7e5" stroke-width="0.25"/>
<path d="M 36.87 274.09 C 38.66 272.24 40.61 270.57 42.61 268.95 C 43.09 270.02 43.63 271.07 44.23 272.09 C 45.59 271.50 46.51 270.27 47.58 269.31 C 49.99 272.64 51.05 277.80 47.15 280.48 C 45.55 278.84 45.14 276.72 45.38 274.52 C 43.51 274.34 41.64 274.12 39.85 273.54 C 38.85 273.70 37.86 273.89 36.87 274.09 Z" fill="#9e6a54" opacity="1.00" stroke="#9e6a54" stroke-width="0.25"/>
<path d="M 102.17 270.23 C 104.35 269.53 106.58 268.99 108.80 268.48 C 108.73 269.20 108.59 270.65 108.52 271.38 C 107.47 271.80 106.43 272.23 105.39 272.68 C 105.46 273.74 105.52 274.81 105.59 275.87 C 108.71 275.17 111.86 274.34 114.61 272.65 C 115.45 271.62 116.24 270.55 117.04 269.50 C 117.77 269.53 119.23 269.57 119.96 269.59 C 120.90 270.46 121.82 271.34 122.81 272.16 C 125.50 273.63 128.56 273.07 131.44 272.79 C 132.18 278.18 134.29 283.57 133.01 289.07 C 132.14 294.65 128.80 299.96 123.59 302.39 C 115.23 306.48 104.98 304.51 97.63 299.21 C 95.62 297.63 94.38 295.35 93.26 293.12 C 94.36 292.28 95.48 291.42 96.11 290.16 C 93.68 290.50 91.34 291.61 88.85 291.40 C 87.32 290.76 86.39 289.30 85.25 288.19 C 85.21 285.58 86.25 282.75 88.92 281.83 C 91.71 281.80 94.20 284.07 97.02 283.28 C 100.96 280.67 99.72 275.31 98.25 271.62 C 99.55 271.14 100.85 270.64 102.17 270.23 Z" fill="#feccb1" opacity="1.00" stroke="#feccb1" stroke-width="0.25"/>
<path d="M 108.52 271.38 C 110.47 270.66 112.52 270.35 114.56 270.03 C 114.57 270.69 114.60 272.00 114.61 272.65 C 111.86 274.34 108.71 275.17 105.59 275.87 C 105.52 274.81 105.46 273.74 105.39 272.68 C 106.43 272.23 107.47 271.80 108.52 271.38 Z" fill="#0d273c" opacity="1.00" stroke="#0d273c" stroke-width="0.25"/>
<path d="M 77.56 272.52 C 80.66 273.99 83.66 275.69 86.53 277.58 C 84.89 278.24 83.25 278.90 81.61 279.56 C 81.62 280.61 81.62 281.66 81.62 282.72 C 81.25 282.52 80.51 282.12 80.14 281.93 C 79.59 281.64 78.49 281.06 77.94 280.77 C 77.75 278.02 77.62 275.27 77.56 272.52 Z" fill="#9d6e5a" opacity="1.00" stroke="#9d6e5a" stroke-width="0.25"/>
<path d="M 125.57 277.84 C 125.25 275.61 127.91 275.67 129.41 275.65 C 129.56 277.08 129.70 278.52 129.82 279.97 C 128.12 280.79 125.21 280.21 125.57 277.84 Z" fill="#10283c" opacity="1.00" stroke="#10283c" stroke-width="0.25"/>
<path d="M 387.43 275.59 C 390.16 276.64 388.23 279.38 386.01 279.39 C 386.29 278.05 386.76 276.78 387.43 275.59 Z" fill="#84715f" opacity="1.00" stroke="#84715f" stroke-width="0.25"/>
<path d="M 404.83 277.90 C 407.66 277.47 410.36 276.38 413.24 276.22 C 416.16 284.03 418.02 292.79 415.81 301.02 C 415.02 304.34 412.69 306.92 410.42 309.34 C 402.34 314.17 391.30 312.31 384.28 306.33 C 383.46 305.34 382.67 304.34 381.95 303.29 C 382.17 302.28 382.61 300.27 382.83 299.26 C 380.25 298.69 377.11 298.89 375.28 296.65 C 373.31 295.12 374.64 291.39 377.15 291.51 C 379.44 291.54 381.68 292.09 383.95 292.38 C 384.22 292.15 384.76 291.69 385.03 291.46 C 388.04 288.86 387.62 284.80 387.75 281.23 C 389.06 280.05 390.08 278.61 391.00 277.12 C 395.58 277.63 400.21 278.68 404.83 277.90 Z" fill="#fccbb0" opacity="1.00" stroke="#fccbb0" stroke-width="0.25"/>
<path d="M 108.44 282.45 C 108.60 280.82 107.81 278.48 109.87 277.79 C 110.52 277.91 111.81 278.13 112.46 278.24 C 112.66 278.94 113.07 280.33 113.28 281.03 C 112.94 281.50 112.27 282.43 111.93 282.90 C 110.76 282.75 109.60 282.60 108.44 282.45 Z" fill="#162f3f" opacity="1.00" stroke="#162f3f" stroke-width="0.25"/>
<path d="M 407.25 279.29 C 409.06 277.11 411.75 277.64 413.99 278.79 C 412.65 281.37 408.97 281.49 407.25 279.29 Z" fill="#0e263c" opacity="1.00" stroke="#0e263c" stroke-width="0.25"/>
<path d="M 120.23 278.94 C 122.30 280.45 124.13 282.26 125.82 284.19 C 124.22 285.53 122.19 285.92 120.16 286.02 C 120.13 285.60 120.09 284.75 120.07 284.32 C 120.86 284.26 122.43 284.15 123.22 284.10 C 121.90 282.59 119.64 281.28 120.23 278.94 Z" fill="#192330" opacity="1.00" stroke="#192330" stroke-width="0.25"/>
<path d="M 77.94 280.77 C 78.49 281.06 79.59 281.64 80.14 281.93 C 80.56 283.59 80.98 285.25 81.39 286.92 C 82.14 285.15 82.90 283.39 83.76 281.67 C 84.16 281.51 84.95 281.19 85.35 281.03 C 84.42 283.61 82.57 286.40 83.83 289.20 C 84.79 292.49 88.69 292.94 91.53 293.60 C 92.06 294.89 92.59 296.17 93.11 297.47 C 84.53 297.20 79.82 288.13 77.94 280.77 Z" fill="#72544e" opacity="1.00" stroke="#72544e" stroke-width="0.25"/>
<path d="M 384.23 287.35 C 384.31 285.24 384.40 283.13 384.49 281.02 C 384.70 283.42 384.93 285.82 385.08 288.23 L 385.09 289.29 C 381.64 288.89 378.20 288.47 374.73 288.44 C 377.82 287.59 381.05 287.56 384.23 287.35 Z" fill="#8e7055" opacity="1.00" stroke="#8e7055" stroke-width="0.25"/>
<path d="M 392.34 285.63 C 391.45 281.81 396.37 281.98 398.88 281.29 C 400.93 280.50 400.44 283.09 400.49 284.23 C 397.87 285.15 395.14 285.98 392.34 285.63 Z" fill="#082641" opacity="1.00" stroke="#082641" stroke-width="0.25"/>
<path d="M 166.77 296.59 C 169.71 293.09 170.53 287.45 174.72 285.12 C 174.19 287.77 173.09 290.25 171.56 292.47 C 172.54 293.59 173.52 294.70 174.51 295.81 C 175.13 293.28 176.84 291.77 179.62 291.27 C 178.76 292.27 177.06 294.27 176.20 295.27 C 178.52 294.83 180.83 294.33 183.18 294.13 C 180.85 295.28 178.41 296.20 176.11 297.42 C 176.05 300.26 180.38 298.82 182.26 299.47 C 178.19 300.70 174.03 301.61 169.86 302.47 C 167.28 302.84 165.41 304.84 163.54 306.47 C 157.29 311.90 151.05 318.04 142.72 320.02 C 142.62 316.22 142.86 312.41 143.40 308.65 C 151.67 305.64 159.06 300.75 166.77 296.59 Z" fill="#fbcbb0" opacity="1.00" stroke="#fbcbb0" stroke-width="0.25"/>
<path d="M 411.13 287.73 C 411.43 286.52 410.78 283.60 413.02 284.36 C 414.77 283.99 416.57 286.41 414.60 287.52 C 413.58 288.23 412.42 288.29 411.13 287.73 Z" fill="#0f2435" opacity="1.00" stroke="#0f2435" stroke-width="0.25"/>
<path d="M 280.40 286.24 C 282.43 286.09 284.47 285.95 286.52 285.86 C 284.85 286.33 283.19 286.87 281.54 287.40 C 281.11 299.56 280.78 311.73 280.49 323.90 C 280.35 329.00 280.43 334.11 280.50 339.22 C 274.11 339.99 267.72 341.13 261.27 341.00 C 266.59 338.69 272.64 340.25 278.00 338.14 C 279.55 337.43 279.13 335.35 279.38 333.99 C 279.55 323.71 279.34 313.43 279.37 303.15 C 279.50 298.66 280.27 294.22 280.35 289.73 C 280.37 288.56 280.39 287.40 280.40 286.24 Z" fill="#7abb63" opacity="1.00" stroke="#7abb63" stroke-width="0.25"/>
<path d="M 286.52 285.86 C 287.89 285.75 289.45 285.60 290.18 287.07 C 288.27 288.35 286.05 289.01 283.89 289.71 C 283.44 301.95 283.42 314.19 282.84 326.42 C 281.73 325.84 280.94 325.00 280.49 323.90 C 280.78 311.73 281.11 299.56 281.54 287.40 C 283.19 286.87 284.85 286.33 286.52 285.86 Z" fill="#0f4520" opacity="1.00" stroke="#0f4520" stroke-width="0.25"/>
<path d="M 396.39 287.36 C 397.62 287.66 399.79 287.16 399.92 289.04 C 400.57 291.32 397.96 291.59 396.42 291.74 C 396.36 290.28 396.35 288.82 396.39 287.36 Z" fill="#0f2435" opacity="1.00" stroke="#0f2435" stroke-width="0.25"/>
<path d="M 405.16 287.11 C 407.99 287.88 410.33 290.40 409.87 293.49 C 408.43 293.77 407.00 294.06 405.58 294.34 C 405.56 293.75 405.52 292.56 405.50 291.97 C 406.12 292.02 407.38 292.13 408.00 292.19 C 407.76 291.12 407.18 290.28 406.26 289.65 C 405.67 288.92 405.30 288.07 405.16 287.11 Z" fill="#192330" opacity="1.00" stroke="#192330" stroke-width="0.25"/>
<path d="M 277.35 291.50 C 278.35 290.90 279.34 290.31 280.35 289.73 C 280.27 294.22 279.50 298.66 279.37 303.15 C 278.86 303.26 277.84 303.47 277.32 303.58 C 276.99 302.54 276.66 301.51 276.34 300.48 C 274.98 300.50 273.62 300.51 272.27 300.54 C 272.23 298.05 272.25 295.56 272.32 293.07 C 274.42 292.95 276.52 292.84 278.63 292.73 C 278.31 292.42 277.67 291.80 277.35 291.50 Z" fill="#a2df5e" opacity="1.00" stroke="#a2df5e" stroke-width="0.25"/>
<path d="M 373.70 292.51 C 376.12 288.41 381.39 291.21 385.03 291.46 C 384.76 291.69 384.22 292.15 383.95 292.38 C 381.68 292.09 379.44 291.54 377.15 291.51 C 374.64 291.39 373.31 295.12 375.28 296.65 C 377.11 298.89 380.25 298.69 382.83 299.26 C 382.61 300.27 382.17 302.28 381.95 303.29 C 381.36 302.01 380.85 300.73 380.25 299.48 C 376.16 301.02 371.78 296.40 373.70 292.51 Z" fill="#f1d8c9" opacity="1.00" stroke="#f1d8c9" stroke-width="0.25"/>
<path d="M 405.21 291.07 C 405.47 290.71 406.00 290.00 406.26 289.65 C 407.18 290.28 407.76 291.12 408.00 292.19 C 407.38 292.13 406.12 292.02 405.50 291.97 L 405.21 291.07 Z" fill="#ffffff" opacity="1.00" stroke="#ffffff" stroke-width="0.25"/>
<path d="M 117.97 295.86 C 119.02 294.12 119.61 291.34 122.02 291.12 C 124.05 290.60 125.71 292.14 126.07 294.04 C 124.85 293.62 123.66 293.15 122.49 292.62 C 121.00 293.76 120.20 296.25 117.97 295.86 Z" fill="#192330" opacity="1.00" stroke="#192330" stroke-width="0.25"/>
<path d="M 396.96 296.11 C 401.09 296.95 405.23 297.95 409.49 297.76 C 408.72 301.56 407.91 306.00 404.53 308.41 C 402.93 308.87 400.78 309.00 399.65 307.55 C 396.60 304.62 396.15 300.06 396.96 296.11 Z" fill="#112442" opacity="1.00" stroke="#112442" stroke-width="0.25"/>
<path d="M 372.36 299.09 C 375.77 301.25 380.06 302.48 381.79 306.53 C 381.18 306.57 379.97 306.63 379.36 306.66 C 375.96 305.39 372.70 303.73 369.77 301.58 C 370.65 300.76 371.51 299.93 372.36 299.09 Z" fill="#ba7e46" opacity="1.00" stroke="#ba7e46" stroke-width="0.25"/>
<path d="M 398.34 298.21 C 400.85 298.75 403.37 299.33 405.91 299.75 C 404.99 302.02 405.33 306.59 402.15 306.83 C 398.98 305.46 398.64 301.22 398.34 298.21 Z" fill="#f7ffff" opacity="1.00" stroke="#f7ffff" stroke-width="0.25"/>
<path d="M 87.26 299.50 C 89.29 299.47 91.32 299.43 93.35 299.38 C 97.21 304.69 98.37 311.63 96.90 317.99 C 95.50 327.16 90.22 336.63 81.33 340.32 C 78.53 341.62 75.39 341.56 72.37 341.75 C 72.08 340.09 71.79 338.44 71.52 336.79 C 78.81 335.59 84.42 329.82 87.21 323.22 C 90.54 315.88 92.13 306.55 87.26 299.50 Z" fill="#f1622e" opacity="1.00" stroke="#f1622e" stroke-width="0.25"/>
<path d="M 97.17 302.65 C 97.76 300.69 101.39 302.42 101.57 303.83 C 100.17 304.39 97.82 304.24 97.17 302.65 Z" fill="#4c5268" opacity="1.00" stroke="#4c5268" stroke-width="0.25"/>
<path d="M 60.43 309.52 C 68.86 305.80 77.90 302.90 87.17 302.54 C 88.93 307.64 87.97 313.00 87.13 318.17 C 79.44 318.66 72.37 321.98 65.01 323.83 C 63.69 319.00 62.35 314.16 60.43 309.52 Z" fill="#feffff" opacity="1.00" stroke="#feffff" stroke-width="0.25"/>
<path d="M 122.35 306.11 C 121.72 304.56 123.87 304.51 124.81 304.51 C 130.18 305.71 135.41 307.53 140.83 308.55 C 140.77 312.92 140.60 317.29 140.36 321.66 C 135.08 321.08 129.87 320.06 124.61 319.34 C 124.74 314.80 123.49 310.45 122.35 306.11 Z" fill="#fdffff" opacity="1.00" stroke="#fdffff" stroke-width="0.25"/>
<path d="M 98.94 305.51 C 101.57 306.26 105.01 306.01 106.15 309.07 C 107.63 309.78 109.11 310.81 110.84 310.57 C 112.81 310.65 113.43 308.40 114.54 307.18 C 117.09 317.55 115.87 328.49 113.05 338.68 C 112.10 341.97 111.01 345.21 110.08 348.51 C 99.52 347.68 88.99 346.10 78.77 343.30 C 82.79 342.40 86.57 340.42 89.46 337.46 C 97.93 329.42 100.94 316.79 98.94 305.51 Z" fill="#feffff" opacity="1.00" stroke="#feffff" stroke-width="0.25"/>
<path d="M 107.37 305.21 C 107.72 305.50 108.43 306.07 108.78 306.36 C 109.55 306.38 111.09 306.41 111.86 306.42 C 111.74 306.99 111.50 308.12 111.38 308.68 C 109.24 308.79 106.98 307.71 107.37 305.21 Z" fill="#ffffff" opacity="1.00" stroke="#ffffff" stroke-width="0.25"/>
<path d="M 116.50 306.59 C 117.66 306.45 118.83 306.31 120.00 306.18 C 123.38 314.82 122.93 324.56 120.32 333.34 L 120.27 333.39 C 119.19 334.28 118.12 335.17 117.05 336.06 C 116.94 335.46 116.72 334.25 116.62 333.64 C 116.56 333.09 116.46 331.99 116.41 331.44 L 116.86 331.47 C 117.04 331.48 117.41 331.50 117.59 331.51 C 118.23 325.31 119.20 318.98 117.97 312.78 C 117.58 310.69 117.02 308.64 116.50 306.59 Z" fill="#eb5f33" opacity="1.00" stroke="#eb5f33" stroke-width="0.25"/>
<path d="M 374.26 306.55 C 375.95 306.65 377.65 306.72 379.36 306.66 C 379.97 306.63 381.18 306.57 381.79 306.53 C 382.62 306.47 383.44 306.39 384.28 306.33 C 391.30 312.31 402.34 314.17 410.42 309.34 C 410.31 309.69 410.09 310.40 409.99 310.76 C 410.84 310.40 411.69 310.02 412.53 309.64 C 412.28 310.17 411.78 311.23 411.52 311.76 C 413.70 313.06 416.05 314.04 418.40 314.99 L 418.13 315.51 C 416.63 317.86 416.20 320.61 415.98 323.33 C 415.74 324.66 415.53 326.00 415.35 327.34 C 415.17 327.69 414.80 328.40 414.62 328.76 C 414.36 329.29 413.83 330.35 413.56 330.89 C 410.92 329.88 408.39 328.59 405.64 327.92 C 405.08 336.45 402.84 344.74 401.03 353.07 C 405.62 357.11 410.18 361.21 414.56 365.50 C 415.68 366.55 414.14 367.83 413.58 368.74 C 419.42 373.99 424.82 379.71 430.25 385.37 L 430.56 386.35 L 429.61 387.90 C 429.11 387.38 428.62 386.87 428.12 386.38 C 423.43 381.45 418.74 376.50 413.70 371.91 C 413.28 371.47 412.44 370.59 412.03 370.14 C 409.49 373.28 406.92 376.38 404.36 379.48 C 406.97 382.10 409.75 384.56 412.54 387.01 C 411.86 387.07 410.50 387.21 409.83 387.28 C 407.49 385.74 405.80 383.40 403.46 381.86 C 398.10 378.59 394.16 373.50 388.97 370.00 C 386.59 374.19 384.78 379.18 381.77 382.73 C 381.29 382.74 380.33 382.75 379.86 382.75 C 378.58 384.15 377.42 385.66 376.27 387.16 C 377.17 385.83 378.01 384.47 378.87 383.12 C 375.38 380.93 371.64 379.21 367.92 377.45 C 367.46 378.34 366.98 379.23 366.50 380.11 C 366.50 379.03 366.52 377.95 366.48 376.88 L 365.92 376.49 C 364.74 375.71 363.52 375.03 362.31 374.34 C 362.41 373.98 362.60 373.25 362.70 372.89 C 366.29 367.32 369.27 361.41 372.75 355.79 C 371.57 354.53 370.20 353.44 369.25 352.00 C 369.46 342.90 370.82 333.86 371.64 324.80 C 367.59 324.60 363.54 324.52 359.49 324.45 C 359.45 323.80 359.38 322.48 359.34 321.83 L 359.34 319.97 C 359.37 316.48 359.48 312.93 358.52 309.54 C 358.14 309.32 357.40 308.89 357.02 308.68 C 356.24 308.77 354.69 308.96 353.91 309.05 C 360.40 306.53 367.42 306.71 374.26 306.55 Z" fill="#00304e" opacity="1.00" stroke="#00304e" stroke-width="0.25"/>
<path d="M 341.71 320.90 C 343.09 315.03 348.33 310.78 353.91 309.05 C 354.69 308.96 356.24 308.77 357.02 308.68 C 357.40 308.89 358.14 309.32 358.52 309.54 C 352.42 311.13 345.59 314.38 343.76 320.97 C 342.63 328.10 347.02 334.50 351.22 339.83 C 353.00 342.30 355.86 345.17 354.46 348.48 C 352.55 350.30 350.18 351.52 347.98 352.95 C 349.92 355.31 352.21 357.37 354.95 358.77 C 358.23 356.85 362.81 354.55 362.46 350.06 C 361.69 340.99 353.94 334.12 353.29 325.00 C 353.11 321.73 356.88 320.72 359.34 319.97 L 359.34 321.83 C 357.83 322.97 354.66 323.39 355.46 326.00 C 357.13 334.48 364.25 341.19 364.59 350.01 C 365.08 353.39 362.53 355.94 360.27 358.03 C 358.61 359.63 356.26 360.77 353.93 360.22 C 350.76 359.56 348.75 356.84 346.35 354.93 C 344.91 350.34 350.49 349.69 352.82 347.16 C 351.90 342.78 348.12 339.80 345.93 336.05 C 343.09 331.60 340.91 326.26 341.71 320.90 Z" fill="#071c30" opacity="1.00" stroke="#071c30" stroke-width="0.25"/>
<path d="M 361.23 308.92 C 368.16 308.70 375.11 308.53 382.02 308.97 C 385.54 309.05 388.26 311.52 391.35 312.87 C 391.41 313.49 391.54 314.73 391.61 315.36 C 392.43 316.02 393.29 316.66 394.17 317.27 C 394.99 317.72 395.83 318.16 396.68 318.59 C 396.30 324.70 397.15 330.99 395.27 336.93 C 394.24 340.41 394.38 344.07 394.56 347.66 C 392.38 348.12 390.21 348.62 388.02 348.96 C 383.36 349.58 378.65 349.69 373.99 350.22 C 373.32 350.29 372.00 350.43 371.33 350.50 C 371.78 342.10 372.79 333.74 373.61 325.37 C 375.66 325.03 379.33 327.20 380.16 324.49 C 374.01 323.25 367.76 322.37 361.48 322.48 C 361.40 317.95 361.35 313.43 361.23 308.92 Z" fill="#38d7fb" opacity="1.00" stroke="#38d7fb" stroke-width="0.25"/>
<path d="M 343.76 320.97 C 345.59 314.38 352.42 311.13 358.52 309.54 C 359.48 312.93 359.37 316.48 359.34 319.97 C 356.88 320.72 353.11 321.73 353.29 325.00 C 353.94 334.12 361.69 340.99 362.46 350.06 C 362.81 354.55 358.23 356.85 354.95 358.77 C 352.21 357.37 349.92 355.31 347.98 352.95 C 350.18 351.52 352.55 350.30 354.46 348.48 C 355.86 345.17 353.00 342.30 351.22 339.83 C 347.02 334.50 342.63 328.10 343.76 320.97 Z" fill="#fccab0" opacity="1.00" stroke="#fccab0" stroke-width="0.25"/>
<path d="M 441.22 318.50 C 443.26 315.11 445.62 311.83 448.89 309.51 C 453.15 308.20 452.48 313.32 451.22 315.70 C 454.03 314.44 457.02 313.55 460.13 313.42 C 460.53 314.10 461.35 315.46 461.75 316.14 C 460.83 316.84 459.91 317.54 458.99 318.25 C 460.14 318.72 461.28 319.23 462.40 319.79 C 463.24 323.27 458.96 323.57 456.74 324.68 L 455.51 323.55 C 454.63 322.74 453.63 322.05 452.50 321.71 C 455.03 321.12 458.24 322.26 460.34 320.35 C 457.34 320.05 454.19 321.05 451.30 320.30 L 450.66 318.93 C 453.70 318.24 456.82 317.39 459.30 315.40 C 456.21 316.05 453.23 317.11 450.20 317.98 C 449.52 318.16 448.16 318.50 447.47 318.67 C 448.50 316.08 449.60 313.52 450.45 310.86 C 446.92 313.23 444.81 316.96 442.08 320.09 C 437.17 320.94 432.15 320.42 427.24 319.93 C 424.04 319.43 420.93 318.52 417.89 317.46 C 417.47 318.88 417.04 320.31 416.55 321.72 C 416.41 322.12 416.12 322.93 415.98 323.33 C 416.20 320.61 416.63 317.86 418.13 315.51 C 425.55 317.99 433.39 318.96 441.22 318.50 Z" fill="#071c30" opacity="1.00" stroke="#071c30" stroke-width="0.25"/>
<path d="M 442.08 320.09 C 444.81 316.96 446.92 313.23 450.45 310.86 C 449.60 313.52 448.50 316.08 447.47 318.67 C 448.16 318.50 449.52 318.16 450.20 317.98 L 450.66 318.93 L 451.30 320.30 C 451.46 321.97 452.39 324.54 450.13 325.15 C 446.59 325.52 442.82 324.99 439.64 326.94 C 431.76 329.42 423.35 328.77 415.35 327.34 C 415.53 326.00 415.74 324.66 415.98 323.33 C 416.12 322.93 416.41 322.12 416.55 321.72 C 417.64 320.91 418.73 320.11 419.83 319.31 C 422.30 319.51 424.77 319.71 427.24 319.93 C 432.15 320.42 437.17 320.94 442.08 320.09 Z" fill="#fbccb1" opacity="1.00" stroke="#fbccb1" stroke-width="0.25"/>
<path d="M 50.26 322.37 C 51.98 318.07 55.19 314.56 59.13 312.19 C 60.13 315.43 61.34 318.62 61.89 321.98 C 56.81 328.28 53.86 336.01 51.16 343.56 C 53.22 346.35 54.78 349.50 55.59 352.89 C 53.86 351.43 52.41 349.67 51.00 347.91 C 47.46 349.45 45.57 354.80 41.09 353.69 C 38.96 353.14 34.85 352.16 36.36 349.08 C 38.55 345.97 41.78 343.83 44.45 341.21 C 46.61 335.02 47.21 328.28 50.26 322.37 Z" fill="#fccbb0" opacity="1.00" stroke="#fccbb0" stroke-width="0.25"/>
<path d="M 117.97 312.78 C 119.20 318.98 118.23 325.31 117.59 331.51 C 117.41 331.50 117.04 331.48 116.86 331.47 C 117.09 329.19 117.46 326.83 116.42 324.69 C 115.95 321.19 116.33 317.62 116.48 314.10 C 116.85 317.30 116.26 320.64 117.28 323.74 L 117.65 323.88 C 118.17 320.20 117.77 316.48 117.97 312.78 Z" fill="#725253" opacity="1.00" stroke="#725253" stroke-width="0.25"/>
<path d="M 392.94 313.52 C 394.09 313.57 395.24 313.64 396.39 313.72 C 396.44 314.23 396.54 315.23 396.59 315.73 C 395.02 315.63 393.86 314.71 392.94 313.52 Z" fill="#f7ffff" opacity="1.00" stroke="#f7ffff" stroke-width="0.25"/>
<path d="M 399.25 314.33 C 402.56 313.96 405.86 313.43 409.04 312.39 C 411.27 313.71 413.55 314.98 415.87 316.17 C 414.80 320.14 413.69 324.09 412.57 328.05 C 410.18 327.31 407.85 326.38 405.57 325.35 C 405.63 323.57 405.68 321.81 405.74 320.05 C 405.23 320.12 404.23 320.26 403.72 320.33 C 403.91 330.73 401.75 341.00 399.27 351.05 C 398.34 350.22 397.41 349.39 396.48 348.57 C 396.13 348.26 395.41 347.63 395.05 347.32 C 395.31 344.10 395.60 340.88 396.36 337.74 C 398.11 331.19 397.68 324.33 397.20 317.65 C 397.87 316.53 398.56 315.43 399.25 314.33 Z" fill="#33d5fb" opacity="1.00" stroke="#33d5fb" stroke-width="0.25"/>
<path d="M 364.98 315.98 C 366.96 313.40 370.50 314.13 373.06 315.29 C 372.86 317.94 370.99 320.56 368.01 319.83 C 365.56 320.38 364.78 317.91 364.98 315.98 Z" fill="#58ddf9" opacity="1.00" stroke="#58ddf9" stroke-width="0.25"/>
<path d="M 450.20 317.98 C 453.23 317.11 456.21 316.05 459.30 315.40 C 456.82 317.39 453.70 318.24 450.66 318.93 L 450.20 317.98 Z" fill="#f7ffff" opacity="1.00" stroke="#f7ffff" stroke-width="0.25"/>
<path d="M 394.17 317.27 C 394.93 317.36 396.44 317.55 397.20 317.65 C 397.68 324.33 398.11 331.19 396.36 337.74 C 395.60 340.88 395.31 344.10 395.05 347.32 C 395.41 347.63 396.13 348.26 396.48 348.57 C 393.66 348.22 390.82 348.61 388.02 348.96 C 390.21 348.62 392.38 348.12 394.56 347.66 C 394.38 344.07 394.24 340.41 395.27 336.93 C 397.15 330.99 396.30 324.70 396.68 318.59 C 395.83 318.16 394.99 317.72 394.17 317.27 Z" fill="#f7ffff" opacity="1.00" stroke="#f7ffff" stroke-width="0.25"/>
<path d="M 417.89 317.46 C 420.93 318.52 424.04 319.43 427.24 319.93 C 424.77 319.71 422.30 319.51 419.83 319.31 C 418.73 320.11 417.64 320.91 416.55 321.72 C 417.04 320.31 417.47 318.88 417.89 317.46 Z" fill="#ffffff" opacity="1.00" stroke="#ffffff" stroke-width="0.25"/>
<path d="M 76.63 322.58 C 79.31 321.87 81.98 321.09 84.64 320.27 C 85.20 326.76 78.96 332.24 73.17 333.93 C 73.39 329.90 75.08 326.22 76.63 322.58 Z" fill="#f06030" opacity="1.00" stroke="#f06030" stroke-width="0.25"/>
<path d="M 323.03 322.65 C 326.80 321.38 330.82 320.82 334.78 321.34 C 334.48 321.59 333.89 322.07 333.60 322.32 C 329.28 322.30 325.21 323.79 321.04 324.62 C 321.52 323.79 321.95 322.79 323.03 322.65 Z" fill="#14283c" opacity="1.00" stroke="#14283c" stroke-width="0.25"/>
<path d="M 455.51 323.55 C 454.21 324.75 449.99 323.10 452.50 321.71 C 453.63 322.05 454.63 322.74 455.51 323.55 Z" fill="#192330" opacity="1.00" stroke="#192330" stroke-width="0.25"/>
<path d="M 456.21 325.19 C 457.02 324.88 458.63 324.26 459.44 323.95 C 459.40 324.74 459.31 326.30 459.26 327.09 C 454.41 327.92 449.47 327.55 444.59 327.95 C 434.89 330.61 424.36 331.96 414.62 328.76 C 414.80 328.40 415.17 327.69 415.35 327.34 C 423.35 328.77 431.76 329.42 439.64 326.94 C 444.98 325.13 450.68 325.72 456.21 325.19 Z" fill="#071c30" opacity="1.00" stroke="#071c30" stroke-width="0.25"/>
<path d="M 231.52 334.74 C 235.36 331.59 239.64 329.03 244.02 326.73 C 244.36 332.32 245.19 337.86 245.84 343.43 C 248.36 343.74 250.89 344.05 253.42 344.37 C 253.44 345.30 253.47 346.24 253.49 347.18 C 248.54 350.31 243.64 353.53 238.71 356.68 C 237.09 351.47 235.60 346.22 233.64 341.14 C 233.20 339.77 232.75 338.41 232.26 337.07 C 232.08 336.49 231.71 335.32 231.52 334.74 Z" fill="#fbccb4" opacity="1.00" stroke="#fbccb4" stroke-width="0.25"/>
<path d="M 314.16 333.66 C 320.40 331.69 326.83 330.44 333.23 329.16 C 332.00 331.71 328.72 331.55 326.39 332.24 C 320.27 333.13 314.57 335.83 308.37 336.24 C 307.30 336.18 305.36 336.99 305.50 335.24 C 308.26 334.22 311.35 334.60 314.16 333.66 Z" fill="#10283c" opacity="1.00" stroke="#10283c" stroke-width="0.25"/>
<path d="M 211.48 336.73 C 217.81 333.79 224.72 331.74 231.74 331.60 C 231.00 331.94 230.26 332.27 229.52 332.60 C 230.45 334.08 231.39 335.55 232.26 337.07 C 232.75 338.41 233.20 339.77 233.64 341.14 C 233.05 347.72 236.78 353.50 238.06 359.77 C 238.36 366.19 237.52 372.63 236.27 378.92 C 235.78 381.16 235.26 383.91 232.85 384.87 C 229.71 384.90 228.06 381.88 226.66 379.55 C 222.13 371.56 219.40 362.72 216.51 354.05 C 214.92 348.25 211.63 342.88 211.48 336.73 Z" fill="#043458" opacity="1.00" stroke="#043458" stroke-width="0.25"/>
<path d="M 117.05 336.06 C 118.12 335.17 119.19 334.28 120.27 333.39 C 119.70 336.08 117.77 338.20 115.14 338.99 C 115.52 337.18 116.03 335.39 116.62 333.64 C 116.72 334.25 116.94 335.46 117.05 336.06 Z" fill="#8a5752" opacity="1.00" stroke="#8a5752" stroke-width="0.25"/>
<path d="M 224.27 335.12 C 225.98 335.93 226.44 338.00 227.40 339.49 C 228.19 339.44 228.99 339.39 229.80 339.35 C 229.80 340.31 229.80 341.27 229.80 342.24 C 227.40 342.62 226.65 345.19 225.35 346.88 C 226.13 347.42 226.91 347.96 227.69 348.50 C 227.11 349.17 226.53 349.84 225.96 350.51 C 225.13 349.46 223.75 348.66 223.53 347.26 C 223.70 345.85 224.45 344.52 224.25 343.09 C 224.39 340.49 221.99 342.74 221.48 343.68 C 221.00 343.23 220.53 342.79 220.06 342.35 C 219.15 342.55 218.24 342.76 217.34 342.97 C 217.82 340.78 218.35 338.60 218.93 336.44 C 220.15 337.17 221.37 337.91 222.58 338.65 C 223.12 337.46 223.65 336.26 224.27 335.12 Z" fill="#1c4362" opacity="1.00" stroke="#1c4362" stroke-width="0.25"/>
<path d="M 110.08 348.51 C 111.01 345.21 112.10 341.97 113.05 338.68 C 112.72 340.80 112.45 342.93 112.12 345.06 C 112.93 343.63 113.75 342.22 114.60 340.82 C 113.84 343.89 112.67 346.84 112.12 349.97 C 117.80 355.37 123.17 361.23 127.54 367.74 C 126.73 368.38 125.92 369.01 125.10 369.64 C 124.72 369.91 123.94 370.47 123.56 370.75 C 120.28 373.26 115.82 374.63 113.52 378.17 C 113.35 378.57 113.00 379.37 112.82 379.76 C 111.53 379.50 110.22 379.38 108.91 379.31 C 105.24 373.46 101.19 367.84 96.42 362.82 C 94.58 368.62 92.36 374.28 90.56 380.08 C 89.07 385.16 86.04 389.71 81.80 392.90 C 74.40 399.02 64.41 399.85 55.20 400.29 C 54.58 405.07 55.31 410.38 52.60 414.61 C 52.10 414.56 51.09 414.44 50.58 414.38 C 48.64 413.86 48.66 411.67 48.26 410.13 C 46.70 400.97 45.93 391.69 45.52 382.42 C 48.38 381.96 51.29 382.09 54.12 382.70 C 54.17 383.35 54.26 384.65 54.30 385.30 C 60.40 384.22 68.69 384.90 72.17 378.74 C 70.72 378.49 67.68 378.26 68.52 375.95 C 71.25 365.25 74.04 354.56 76.64 343.83 C 74.47 343.46 71.42 344.42 70.00 342.21 C 72.82 343.19 75.81 343.29 78.77 343.30 C 88.99 346.10 99.52 347.68 110.08 348.51 Z" fill="#053254" opacity="1.00" stroke="#053254" stroke-width="0.25"/>
<path d="M 256.13 344.08 C 263.45 343.36 270.80 342.85 278.14 342.27 C 278.70 348.40 280.11 354.41 280.91 360.51 C 278.86 355.23 278.19 349.56 276.38 344.21 C 270.62 344.10 264.86 344.76 259.25 346.05 C 258.84 345.86 258.04 345.49 257.64 345.30 C 259.11 350.53 263.09 354.63 268.01 356.81 C 267.33 358.84 266.97 361.59 264.77 362.54 C 262.98 363.27 261.92 361.41 260.87 360.36 C 261.28 364.51 262.24 368.80 260.94 372.91 C 259.11 363.34 256.85 353.80 256.13 344.08 Z" fill="#fbd9c6" opacity="1.00" stroke="#fbd9c6" stroke-width="0.25"/>
<path d="M 259.25 346.05 C 264.86 344.76 270.62 344.10 276.38 344.21 C 278.19 349.56 278.86 355.23 280.91 360.51 C 281.88 364.14 282.46 367.86 282.94 371.60 C 282.06 371.73 281.19 371.89 280.32 372.06 C 273.97 373.01 267.76 374.67 261.61 376.46 C 261.38 375.26 261.18 374.09 260.94 372.91 C 262.24 368.80 261.28 364.51 260.87 360.36 C 261.92 361.41 262.98 363.27 264.77 362.54 C 266.97 361.59 267.33 358.84 268.01 356.81 C 263.09 354.63 259.11 350.53 257.64 345.30 C 258.04 345.49 258.84 345.86 259.25 346.05 Z" fill="#fecaaf" opacity="1.00" stroke="#fecaaf" stroke-width="0.25"/>
<path d="M 75.22 358.68 C 76.24 354.19 77.29 349.69 78.57 345.26 C 82.50 346.49 86.57 347.22 90.56 348.22 C 88.69 348.60 86.83 349.10 84.98 349.60 C 84.06 351.60 83.06 353.56 82.00 355.49 C 79.53 356.05 77.16 357.00 75.22 358.68 Z" fill="#48d8fa" opacity="1.00" stroke="#48d8fa" stroke-width="0.25"/>
<path d="M 90.56 348.22 C 97.11 348.88 103.59 350.22 110.18 350.64 C 115.63 355.71 120.28 361.55 124.99 367.30 C 119.99 370.55 114.98 373.79 109.97 377.02 C 106.26 371.21 101.94 365.82 97.33 360.71 C 97.59 358.74 97.73 356.76 97.63 354.78 C 96.14 356.19 95.76 358.29 95.08 360.15 C 92.86 367.17 90.17 374.03 88.07 381.09 C 82.15 379.89 76.36 378.14 70.62 376.27 C 71.83 370.42 73.75 364.76 74.91 358.91 L 75.22 358.68 C 77.16 357.00 79.53 356.05 82.00 355.49 C 83.06 353.56 84.06 351.60 84.98 349.60 C 86.83 349.10 88.69 348.60 90.56 348.22 Z" fill="#33d6fb" opacity="1.00" stroke="#33d6fb" stroke-width="0.25"/>
<path d="M 220.40 348.08 C 223.64 347.55 220.07 352.17 218.37 350.68 C 217.54 349.42 219.38 348.34 220.40 348.08 Z" fill="#2f5a78" opacity="1.00" stroke="#2f5a78" stroke-width="0.25"/>
<path d="M 373.99 350.22 C 378.65 349.69 383.36 349.58 388.02 348.96 C 390.82 348.61 393.66 348.22 396.48 348.57 C 397.41 349.39 398.34 350.22 399.27 351.05 C 399.03 351.51 398.55 352.42 398.31 352.88 C 396.78 351.75 395.16 350.27 393.11 350.70 C 387.12 351.27 381.13 351.84 375.13 352.16 C 374.84 351.67 374.27 350.71 373.99 350.22 Z" fill="#004064" opacity="1.00" stroke="#004064" stroke-width="0.25"/>
<path d="M 375.13 352.16 C 381.13 351.84 387.12 351.27 393.11 350.70 C 395.16 350.27 396.78 351.75 398.31 352.88 L 398.12 353.69 C 396.75 355.13 395.37 356.56 394.00 358.01 C 395.82 361.45 398.01 364.70 400.65 367.57 C 399.62 367.93 398.60 368.28 397.58 368.65 C 397.59 369.58 397.61 370.52 397.63 371.46 C 396.79 371.13 395.95 370.80 395.11 370.52 C 394.65 370.48 393.73 370.41 393.27 370.37 C 386.01 364.87 378.76 358.98 372.41 352.34 C 373.09 352.30 374.45 352.20 375.13 352.16 Z" fill="#34d7fc" opacity="1.00" stroke="#34d7fc" stroke-width="0.25"/>
<path d="M 104.76 353.07 C 104.57 350.95 107.09 352.61 107.70 353.30 C 111.14 357.03 114.69 360.93 116.69 365.65 C 113.76 365.51 112.74 362.61 111.25 360.62 C 109.44 357.80 106.69 355.78 104.76 353.07 Z" fill="#8bf6fe" opacity="1.00" stroke="#8bf6fe" stroke-width="0.25"/>
<path d="M 394.00 358.01 C 395.37 356.56 396.75 355.13 398.12 353.69 L 398.88 353.64 C 403.09 357.82 407.91 361.48 411.83 365.99 L 411.90 366.82 C 409.04 371.08 405.29 374.66 402.14 378.70 C 399.25 375.84 396.08 373.30 393.27 370.37 C 393.73 370.41 394.65 370.48 395.11 370.52 C 395.95 370.80 396.79 371.13 397.63 371.46 C 397.61 370.52 397.59 369.58 397.58 368.65 C 398.60 368.28 399.62 367.93 400.65 367.57 C 398.01 364.70 395.82 361.45 394.00 358.01 Z" fill="#41d7fa" opacity="1.00" stroke="#41d7fa" stroke-width="0.25"/>
<path d="M 396.47 357.86 C 397.59 357.24 398.72 356.63 399.85 356.02 C 400.05 357.15 400.27 358.28 400.48 359.41 C 401.05 359.65 402.18 360.12 402.75 360.36 C 403.50 362.57 404.13 364.96 402.98 367.17 C 399.79 364.89 397.19 361.80 396.47 357.86 Z" fill="#6ee4fd" opacity="1.00" stroke="#6ee4fd" stroke-width="0.25"/>
<path d="M 374.04 357.10 C 378.85 360.55 383.15 364.65 387.53 368.62 C 385.11 372.68 383.08 376.95 380.81 381.09 C 376.08 379.47 371.73 376.94 367.22 374.83 C 366.38 374.29 364.46 373.68 365.41 372.35 C 368.01 367.12 371.53 362.39 374.04 357.10 Z" fill="#35d6fb" opacity="1.00" stroke="#35d6fb" stroke-width="0.25"/>
<path d="M 184.93 372.76 C 190.41 372.15 196.02 371.29 200.91 368.55 C 201.05 368.86 201.35 369.47 201.49 369.78 C 196.01 373.32 189.34 373.88 183.03 374.68 C 178.59 375.26 174.39 377.07 169.91 377.40 C 169.68 377.11 169.22 376.52 168.99 376.22 C 174.32 375.13 179.50 373.36 184.93 372.76 Z" fill="#0e263c" opacity="1.00" stroke="#0e263c" stroke-width="0.25"/>
<path d="M 285.65 371.25 C 293.80 370.59 301.91 369.07 310.11 369.22 C 312.05 369.12 313.84 369.92 315.53 370.78 C 315.43 372.58 315.39 374.51 313.98 375.85 C 306.07 385.04 294.38 389.92 282.96 393.15 C 276.74 395.27 270.75 399.11 263.94 398.68 C 261.57 398.77 260.31 396.34 259.94 394.33 C 258.58 388.11 257.81 381.66 258.76 375.31 C 260.49 376.14 262.22 377.67 264.27 377.26 C 267.26 376.71 270.13 375.65 273.11 375.02 C 275.63 374.38 278.45 374.10 280.32 372.06 C 281.19 371.89 282.06 371.73 282.94 371.60 C 283.84 371.46 284.74 371.35 285.65 371.25 Z" fill="#053357" opacity="1.00" stroke="#053357" stroke-width="0.25"/>
<path d="M 329.61 389.39 C 334.47 382.28 339.46 375.07 346.00 369.38 C 347.55 370.88 349.84 372.07 350.68 374.06 C 350.59 374.63 350.41 375.78 350.32 376.35 C 348.66 379.81 346.36 382.89 344.01 385.91 C 344.28 386.10 344.82 386.48 345.09 386.67 L 343.57 386.90 C 344.90 388.28 346.24 389.66 347.68 390.92 C 345.82 389.64 343.97 388.32 342.04 387.14 C 338.25 390.79 333.81 395.16 328.25 395.15 C 326.91 393.22 328.69 391.08 329.61 389.39 Z" fill="#043358" opacity="1.00" stroke="#043358" stroke-width="0.25"/>
<path d="M 123.56 370.75 C 123.94 370.47 124.72 369.91 125.10 369.64 C 127.53 374.19 129.49 378.99 130.88 383.97 C 129.96 383.30 129.05 382.60 128.18 381.89 C 126.81 378.10 125.19 374.42 123.56 370.75 Z" fill="#071c30" opacity="1.00" stroke="#071c30" stroke-width="0.25"/>
<path d="M 113.52 378.17 C 115.82 374.63 120.28 373.26 123.56 370.75 C 125.19 374.42 126.81 378.10 128.18 381.89 C 129.80 386.62 131.06 391.45 132.46 396.25 C 129.11 397.13 125.84 398.27 122.68 399.71 L 122.00 399.27 C 119.46 392.13 117.04 384.91 113.52 378.17 Z" fill="#fccbb1" opacity="1.00" stroke="#fccbb1" stroke-width="0.25"/>
<path d="M 404.36 379.48 C 406.92 376.38 409.49 373.28 412.03 370.14 C 412.44 370.59 413.28 371.47 413.70 371.91 C 415.33 375.38 417.66 378.43 420.27 381.22 C 419.21 381.33 418.14 381.44 417.08 381.56 C 418.40 384.77 421.01 387.07 423.90 388.88 C 423.64 387.31 423.38 385.74 423.10 384.18 C 424.51 385.45 426.05 386.74 428.12 386.38 C 428.62 386.87 429.11 387.38 429.61 387.90 C 430.06 388.58 430.48 389.30 430.90 390.02 C 428.27 392.38 425.77 394.89 423.25 397.37 C 419.71 393.88 416.26 390.30 412.54 387.01 C 409.75 384.56 406.97 382.10 404.36 379.48 Z" fill="#fccab2" opacity="1.00" stroke="#fccab2" stroke-width="0.25"/>
<path d="M 413.70 371.91 C 418.74 376.50 423.43 381.45 428.12 386.38 C 426.05 386.74 424.51 385.45 423.10 384.18 C 423.38 385.74 423.64 387.31 423.90 388.88 C 421.01 387.07 418.40 384.77 417.08 381.56 C 418.14 381.44 419.21 381.33 420.27 381.22 C 417.66 378.43 415.33 375.38 413.70 371.91 Z" fill="#ffdecd" opacity="1.00" stroke="#ffdecd" stroke-width="0.25"/>
<path d="M 325.02 376.51 C 326.37 373.65 330.10 374.81 332.64 374.29 C 332.68 374.64 332.78 375.33 332.83 375.67 C 330.22 375.90 327.63 376.30 325.02 376.51 Z" fill="#162f3f" opacity="1.00" stroke="#162f3f" stroke-width="0.25"/>
<path d="M 350.32 376.35 C 350.41 375.78 350.59 374.63 350.68 374.06 C 354.52 376.81 358.19 380.60 363.19 380.88 C 364.12 379.43 365.05 377.98 365.92 376.49 L 366.48 376.88 C 366.52 377.95 366.50 379.03 366.50 380.11 C 365.08 382.14 362.66 383.46 360.18 382.57 C 356.54 381.14 353.40 378.70 350.32 376.35 Z" fill="#1e2b3c" opacity="1.00" stroke="#1e2b3c" stroke-width="0.25"/>
<path d="M 207.98 378.99 C 211.02 378.29 213.70 376.46 216.83 376.08 C 213.88 379.87 208.69 380.32 204.38 381.51 C 200.49 382.19 196.58 382.91 192.91 384.40 C 189.50 385.99 185.71 384.95 182.13 385.43 C 180.04 385.93 178.00 386.74 175.82 386.75 C 180.05 381.78 187.21 385.13 192.49 382.76 C 197.46 380.78 202.82 380.27 207.98 378.99 Z" fill="#0f2435" opacity="1.00" stroke="#0f2435" stroke-width="0.25"/>
<path d="M 350.32 376.35 C 353.40 378.70 356.54 381.14 360.18 382.57 C 362.66 383.46 365.08 382.14 366.50 380.11 C 366.98 379.23 367.46 378.34 367.92 377.45 C 371.64 379.21 375.38 380.93 378.87 383.12 C 378.01 384.47 377.17 385.83 376.27 387.16 C 373.35 391.19 369.27 395.08 364.01 395.28 C 356.68 395.54 350.67 390.78 345.09 386.67 C 344.82 386.48 344.28 386.10 344.01 385.91 C 346.36 382.89 348.66 379.81 350.32 376.35 Z" fill="#fcccb2" opacity="1.00" stroke="#fcccb2" stroke-width="0.25"/>
<path d="M 112.82 379.76 C 113.00 379.37 113.35 378.57 113.52 378.17 C 117.04 384.91 119.46 392.13 122.00 399.27 C 121.35 398.88 120.06 398.10 119.42 397.71 C 118.74 396.53 118.37 395.23 117.86 393.98 C 116.57 389.12 113.53 384.65 112.82 379.76 Z" fill="#071c30" opacity="1.00" stroke="#071c30" stroke-width="0.25"/>
<path d="M 323.41 380.55 C 325.84 379.51 328.48 379.10 331.12 379.26 C 330.67 380.09 329.99 380.54 329.07 380.62 C 325.26 381.26 321.83 383.09 318.29 384.51 C 318.87 382.14 321.42 381.38 323.41 380.55 Z" fill="#0e263c" opacity="1.00" stroke="#0e263c" stroke-width="0.25"/>
<path d="M 264.67 382.76 C 264.83 380.82 266.83 380.02 268.54 380.13 C 270.30 380.98 271.39 382.65 272.46 384.22 C 270.45 384.56 268.26 384.88 266.56 383.47 C 267.22 383.17 268.52 382.57 269.17 382.27 C 267.66 382.31 266.16 382.48 264.67 382.76 Z" fill="#325773" opacity="1.00" stroke="#325773" stroke-width="0.25"/>
<path d="M 74.03 380.18 C 78.54 380.32 82.72 382.22 87.13 382.98 C 84.07 389.49 77.90 394.23 71.04 396.16 C 65.98 397.79 60.62 397.80 55.37 397.81 C 55.11 394.37 54.74 390.94 54.39 387.51 C 61.23 386.47 69.58 386.38 74.03 380.18 Z" fill="#fccbb2" opacity="1.00" stroke="#fccbb2" stroke-width="0.25"/>
<path d="M 128.18 381.89 C 129.05 382.60 129.96 383.30 130.88 383.97 L 131.20 384.20 C 132.37 387.98 133.54 391.76 134.66 395.55 C 139.08 394.47 143.53 393.48 148.04 392.91 C 149.69 392.34 150.80 393.94 151.81 394.91 C 149.18 399.11 144.29 400.73 140.17 403.03 C 134.57 405.66 129.10 409.15 122.84 409.84 C 121.68 405.80 120.29 401.83 119.42 397.71 C 120.06 398.10 121.35 398.88 122.00 399.27 L 122.68 399.71 C 125.84 398.27 129.11 397.13 132.46 396.25 C 131.06 391.45 129.80 386.62 128.18 381.89 Z" fill="#033256" opacity="1.00" stroke="#033256" stroke-width="0.25"/>
<path d="M 376.27 387.16 C 377.42 385.66 378.58 384.15 379.86 382.75 C 380.33 382.75 381.29 382.74 381.77 382.73 C 377.89 387.93 374.59 394.54 367.89 396.49 C 360.73 398.98 353.31 395.19 347.68 390.92 C 346.24 389.66 344.90 388.28 343.57 386.90 L 345.09 386.67 C 350.67 390.78 356.68 395.54 364.01 395.28 C 369.27 395.08 373.35 391.19 376.27 387.16 Z" fill="#071c30" opacity="1.00" stroke="#071c30" stroke-width="0.25"/>
<path d="M 432.50 388.12 C 437.12 386.16 440.72 380.89 446.23 381.87 C 447.16 384.80 444.48 386.98 443.10 389.25 C 438.34 394.99 433.58 400.80 428.04 405.81 C 426.69 404.54 425.35 403.28 424.20 401.84 C 419.94 396.47 414.42 392.32 409.83 387.28 C 410.50 387.21 411.86 387.07 412.54 387.01 C 416.26 390.30 419.71 393.88 423.25 397.37 C 425.77 394.89 428.27 392.38 430.90 390.02 C 430.48 389.30 430.06 388.58 429.61 387.90 L 430.56 386.35 L 430.92 385.76 C 431.31 386.35 432.10 387.53 432.50 388.12 Z" fill="#033256" opacity="1.00" stroke="#033256" stroke-width="0.25"/>
<path d="M 272.24 385.23 C 272.73 385.77 272.73 385.77 272.24 385.23 Z" fill="#4f7693" opacity="1.00" stroke="#4f7693" stroke-width="0.25"/>
<path d="M 23.18 388.78 C 23.00 386.08 26.05 386.15 27.93 386.25 C 26.42 387.22 24.82 388.04 23.18 388.78 Z" fill="#1e2b3c" opacity="1.00" stroke="#1e2b3c" stroke-width="0.25"/>
<path d="M 263.57 386.94 C 266.46 387.25 269.12 388.42 270.96 390.73 C 271.92 390.39 272.89 390.05 273.85 389.72 C 273.74 390.70 273.64 391.71 273.53 392.71 C 270.87 392.94 268.21 393.13 265.55 393.27 C 265.93 392.04 266.31 390.82 266.70 389.60 C 265.12 389.28 263.36 389.04 263.57 386.94 Z" fill="#395e78" opacity="1.00" stroke="#395e78" stroke-width="0.25"/>
<path d="M 271.20 387.98 C 274.25 386.58 271.16 391.31 271.20 387.98 Z" fill="#4a7192" opacity="1.00" stroke="#4a7192" stroke-width="0.25"/>
<path d="M 36.67 390.59 C 36.92 390.78 37.42 391.16 37.68 391.34 C 31.47 397.08 22.49 397.84 14.99 401.14 C 15.18 400.57 15.56 399.44 15.75 398.88 C 22.85 396.55 30.55 395.09 36.67 390.59 Z" fill="#0f2435" opacity="1.00" stroke="#0f2435" stroke-width="0.25"/>
<path d="M 294.91 396.70 C 303.81 396.63 312.38 394.07 321.00 392.38 C 320.31 393.19 319.51 393.92 318.48 394.26 C 313.54 396.15 308.26 396.81 303.09 397.70 C 298.15 398.58 293.00 397.86 288.21 399.61 C 288.58 396.44 292.59 397.03 294.91 396.70 Z" fill="#102939" opacity="1.00" stroke="#102939" stroke-width="0.25"/>
<path d="M 18.49 405.70 C 26.03 403.31 34.08 403.37 41.67 401.12 C 39.67 404.37 35.27 404.00 31.99 404.85 C 27.34 405.18 22.80 406.55 18.17 406.76 C 18.25 406.50 18.41 405.97 18.49 405.70 Z" fill="#0e2338" opacity="1.00" stroke="#0e2338" stroke-width="0.25"/>
<path d="M 357.98 410.39 C 378.48 409.93 398.99 409.15 419.50 409.65 C 433.20 411.23 447.01 410.72 460.77 411.22 C 460.79 411.84 460.83 413.08 460.85 413.70 C 445.90 414.88 430.86 413.84 415.94 412.74 C 396.62 412.32 377.32 413.29 358.01 413.60 C 328.68 414.78 299.33 413.93 270.00 414.01 C 248.02 413.29 226.03 414.07 204.05 414.13 C 162.69 414.20 121.42 417.34 80.07 417.64 C 76.02 417.66 71.99 418.26 67.94 418.25 C 50.74 417.32 33.52 419.28 16.30 418.69 C 16.32 418.12 16.36 416.97 16.37 416.40 C 27.75 415.34 39.28 416.13 50.58 414.38 C 51.09 414.44 52.10 414.56 52.60 414.61 C 78.39 415.34 104.20 413.75 129.99 413.18 C 139.65 412.26 149.37 412.46 159.06 412.00 C 167.42 411.24 175.82 411.59 184.21 411.36 C 242.11 409.33 300.06 411.80 357.98 410.39 Z" fill="#0a2f4b" opacity="1.00" stroke="#0a2f4b" stroke-width="0.25"/>
</svg>