<svg xmlns="http://www.w3.org/2000/svg" height="512pt" version="1.1" viewBox="0 0 512 512" width="512pt">
<path d="M 0.00 0.00 L 512.00 0.00 L 512.00 512.00 L 0.00 512.00 L 0.00 0.00 Z" fill="transparent" opacity="1.00" stroke="transparent" stroke-width="0.25" data-index="0" style="opacity: 1;"></path>
<path d="M 250.09 104.45 C 271.31 101.60 292.73 103.62 314.03 103.95 C 320.65 104.24 327.38 104.36 333.81 106.15 C 334.28 107.09 334.76 108.03 335.24 108.97 C 327.84 116.32 319.67 122.83 312.01 129.90 C 289.22 150.29 267.09 171.40 245.07 192.60 C 275.54 187.81 305.82 181.83 336.14 176.16 C 341.54 175.32 346.99 173.89 352.50 174.47 C 353.71 176.46 351.94 178.24 350.76 179.70 C 335.38 197.69 319.94 215.67 305.70 234.60 C 292.14 253.98 278.52 273.31 264.88 292.63 C 240.58 328.06 218.66 365.05 197.37 402.36 C 195.71 404.85 194.41 408.70 190.71 408.34 C 191.51 403.95 193.06 399.76 194.29 395.49 C 209.69 345.91 226.17 296.68 242.48 247.40 C 244.62 240.87 247.22 234.49 249.07 227.86 C 226.07 231.09 203.13 234.93 180.00 237.07 C 173.06 237.33 166.07 238.89 159.18 237.33 C 160.18 231.77 163.45 227.05 166.15 222.21 C 175.11 207.31 185.15 193.09 194.67 178.55 C 210.30 155.25 226.05 132.03 241.69 108.72 C 243.38 105.70 246.95 104.95 250.09 104.45 Z" fill="#568ea5" opacity="1.00" stroke="#568ea5" stroke-width="0.25" data-index="1" style="opacity: 1;"></path>
<path d="M 249.08 106.72 C 267.93 103.85 287.07 105.17 306.03 105.94 C 314.99 106.13 324.19 105.59 332.85 108.32 C 315.64 124.28 297.63 139.39 280.73 155.70 C 270.38 165.71 259.64 175.32 249.42 185.47 C 246.37 188.48 242.95 191.21 240.70 194.93 C 242.45 194.93 244.20 194.93 245.94 194.72 C 273.03 190.23 300.01 185.09 327.01 180.05 C 334.89 178.45 342.82 177.06 350.81 176.12 C 335.67 194.58 319.75 212.41 305.42 231.52 C 290.39 252.82 275.31 274.09 260.35 295.44 C 236.39 330.88 214.49 367.66 193.35 404.84 C 195.36 400.00 196.76 394.95 198.23 389.94 C 215.41 335.60 233.20 281.45 251.54 227.49 C 260.65 226.01 269.79 224.67 278.86 222.97 C 270.09 239.63 260.59 255.88 251.10 272.13 C 247.03 280.14 241.54 287.65 239.62 296.57 C 253.82 271.24 269.07 246.47 282.61 220.76 C 278.09 220.87 273.63 221.68 269.18 222.39 C 240.77 226.93 212.32 231.36 183.73 234.61 C 176.27 235.00 168.83 236.44 161.34 235.71 C 167.67 221.90 176.73 209.62 184.93 196.91 C 202.92 169.61 221.49 142.70 239.60 115.48 C 242.06 111.95 244.10 106.98 249.08 106.72 Z" fill="#9ae8fe" opacity="1.00" stroke="#9ae8fe" stroke-width="0.25" data-index="2" style="opacity: 1; visibility: visible; fill: rgb(227, 231, 35);"></path>
<path d="M 249.87 113.88 C 250.85 112.32 252.52 111.50 254.13 110.77 C 252.91 113.29 251.18 115.52 249.27 117.56 C 250.45 119.04 251.64 120.52 252.83 122.00 C 250.61 122.73 247.99 123.16 247.13 125.69 L 246.65 126.27 C 245.24 127.65 243.74 128.97 242.64 130.63 C 239.31 135.36 235.13 139.42 231.79 144.14 C 231.47 143.62 230.83 142.57 230.51 142.05 C 236.77 132.53 243.10 123.05 249.87 113.88 Z" fill="#ffffff" opacity="1.00" stroke="#ffffff" stroke-width="0.25" data-index="3"></path>
<path d="M 239.87 119.92 C 240.95 117.82 242.71 116.28 245.13 116.01 C 239.91 124.07 233.91 131.60 228.63 139.63 C 226.03 143.42 223.61 147.48 219.91 150.32 C 221.34 145.45 225.32 142.04 227.85 137.77 C 231.63 131.67 236.12 126.05 239.87 119.92 Z" fill="#ffffff" opacity="1.00" stroke="#ffffff" stroke-width="0.25" data-index="4"></path>
<path d="M 242.64 130.63 C 243.74 128.97 245.24 127.65 246.65 126.27 C 246.71 126.42 246.82 126.74 246.87 126.89 C 245.27 128.32 244.76 130.45 243.65 132.21 C 242.06 132.67 241.18 134.06 240.34 135.35 C 237.51 139.84 233.62 143.53 230.61 147.89 C 223.82 156.23 217.73 165.08 211.19 173.60 C 208.25 176.55 205.28 179.51 202.98 183.01 C 200.87 185.89 199.45 189.50 196.19 191.33 C 202.53 180.55 210.83 171.15 218.27 161.15 C 220.58 158.17 223.95 156.16 225.92 152.89 C 227.74 149.88 229.66 146.94 231.79 144.14 C 235.13 139.42 239.31 135.36 242.64 130.63 Z" fill="#568ea5" opacity="1.00" stroke="#568ea5" stroke-width="0.25" data-index="5"></path>
<path d="M 230.61 147.89 C 231.26 148.22 232.57 148.87 233.22 149.19 C 232.11 151.63 230.76 153.97 229.08 156.07 C 224.79 161.52 221.44 167.63 217.09 173.04 C 214.13 176.69 212.52 181.56 208.26 184.01 C 204.10 187.03 201.77 191.78 198.95 195.95 C 196.30 199.41 193.97 203.10 192.08 207.03 C 191.14 208.16 190.18 209.29 189.27 210.45 C 191.17 202.88 196.80 197.22 200.60 190.63 C 203.98 184.85 208.37 179.70 211.19 173.60 C 217.73 165.08 223.82 156.23 230.61 147.89 Z" fill="#ffffff" opacity="1.00" stroke="#ffffff" stroke-width="0.25" data-index="6"></path>
<path d="M 198.95 195.95 C 201.77 191.78 204.10 187.03 208.26 184.01 C 205.39 188.85 202.22 193.50 199.01 198.12 C 199.00 197.58 198.97 196.49 198.95 195.95 Z" fill="#568ea5" opacity="1.00" stroke="#568ea5" stroke-width="0.25" data-index="7"></path>
<path d="M 313.23 198.21 C 316.14 194.03 319.05 188.66 324.65 187.95 C 324.75 189.55 325.84 191.34 324.88 192.86 C 314.70 206.03 303.36 218.30 293.94 232.05 C 290.07 237.54 285.43 242.44 281.82 248.10 C 287.62 240.72 294.00 233.82 299.80 226.44 L 299.60 228.39 C 291.68 242.71 280.60 254.88 271.07 268.10 C 262.88 278.98 255.34 290.35 247.84 301.71 C 247.50 301.28 246.81 300.41 246.47 299.97 C 248.00 293.20 253.29 288.21 256.33 282.14 C 261.08 274.44 264.81 265.70 272.35 260.24 C 272.28 257.56 272.27 254.73 274.23 252.66 C 274.53 254.27 274.84 255.88 275.16 257.50 C 277.47 254.66 275.54 250.58 277.81 247.72 C 280.66 243.36 284.16 239.45 286.82 234.95 C 289.62 230.19 293.29 226.03 296.36 221.46 C 301.64 213.46 308.20 206.38 313.23 198.21 Z" fill="#ffffff" opacity="1.00" stroke="#ffffff" stroke-width="0.25" data-index="8"></path>
<path d="M 293.94 232.05 C 303.36 218.30 314.70 206.03 324.88 192.86 L 326.65 192.07 C 324.15 197.41 319.76 201.49 316.20 206.10 C 310.94 213.05 304.70 219.21 299.80 226.44 C 294.00 233.82 287.62 240.72 281.82 248.10 C 285.43 242.44 290.07 237.54 293.94 232.05 Z" fill="#568ea5" opacity="1.00" stroke="#568ea5" stroke-width="0.25" data-index="9"></path>
<path d="M 192.08 207.03 L 193.84 206.03 C 192.05 209.13 190.32 212.75 186.82 214.24 C 187.56 212.93 188.34 211.64 189.27 210.45 C 190.18 209.29 191.14 208.16 192.08 207.03 Z" fill="#568ea5" opacity="1.00" stroke="#568ea5" stroke-width="0.25" data-index="10"></path>
<path d="M 227.43 217.49 C 230.76 216.79 234.50 215.93 237.29 218.51 C 234.50 218.91 231.73 219.45 229.00 220.15 C 228.48 219.26 227.95 218.38 227.43 217.49 Z" fill="#ffffff" opacity="1.00" stroke="#ffffff" stroke-width="0.25" data-index="11"></path>
<path d="M 237.29 218.51 C 242.89 217.89 248.39 216.63 253.99 216.00 C 253.73 216.41 253.21 217.22 252.95 217.63 C 243.62 219.32 234.19 220.47 224.95 222.65 C 218.94 224.09 212.74 224.62 206.76 226.21 C 195.34 229.25 183.73 231.74 171.96 232.98 C 170.18 233.55 169.05 232.23 168.01 231.04 L 169.48 231.03 C 181.14 231.29 192.35 227.45 203.87 226.19 C 212.34 224.61 220.67 222.33 229.00 220.15 C 231.73 219.45 234.50 218.91 237.29 218.51 Z" fill="#568ea5" opacity="1.00" stroke="#568ea5" stroke-width="0.25" data-index="12" style="opacity: 1;"></path>
<path d="M 176.96 220.48 C 177.25 220.56 177.81 220.73 178.10 220.81 C 178.57 222.65 178.20 225.02 179.89 226.30 C 187.39 226.81 194.62 224.06 202.06 223.67 C 202.51 224.30 203.41 225.56 203.87 226.19 C 192.35 227.45 181.14 231.29 169.48 231.03 C 171.55 227.21 174.91 224.31 176.96 220.48 Z" fill="#ffffff" opacity="1.00" stroke="#ffffff" stroke-width="0.25" data-index="13"></path>
<path d="M 299.60 228.39 C 300.65 227.45 301.81 226.64 302.99 225.86 C 301.07 230.93 297.20 234.90 294.43 239.49 C 282.83 256.10 269.58 271.52 258.49 288.50 C 254.81 293.50 252.18 299.49 247.07 303.27 C 247.26 302.88 247.65 302.10 247.84 301.71 C 255.34 290.35 262.88 278.98 271.07 268.10 C 280.60 254.88 291.68 242.71 299.60 228.39 Z" fill="#568ea5" opacity="1.00" stroke="#568ea5" stroke-width="0.25" data-index="14"></path>
<path d="M 235.99 323.11 C 236.53 318.95 239.32 315.64 242.15 312.76 C 240.61 316.48 238.48 319.94 235.99 323.11 Z" fill="#568ea5" opacity="1.00" stroke="#568ea5" stroke-width="0.25" data-index="15"></path>
</svg>