<?xml version="1.0" encoding="utf-8"?>
<svg xmlns="http://www.w3.org/2000/svg" height="512pt" version="1.1" viewBox="0 0 512 512" width="512pt">
<path d="M 0.00 0.00 L 512.00 0.00 L 512.00 512.00 L 0.00 512.00 L 0.00 0.00 Z" fill="transparent" opacity="1.00" stroke="transparent" stroke-width="0.25"/>
<path d="M 195.93 61.02 C 203.30 50.86 216.44 44.44 229.01 46.96 C 234.89 48.15 240.10 51.28 244.93 54.70 C 250.81 49.80 258.38 47.05 266.02 46.87 C 276.50 47.06 286.06 53.19 291.91 61.69 C 300.32 55.88 311.81 54.08 321.06 58.94 C 329.11 62.56 333.93 70.61 336.64 78.67 C 346.83 77.38 357.57 79.12 366.23 84.84 C 370.94 88.13 375.03 92.60 376.84 98.15 C 378.55 102.32 378.89 106.84 379.85 111.19 C 388.81 115.12 397.25 121.25 401.73 130.17 C 407.97 142.02 408.28 156.48 404.19 169.08 C 410.97 174.57 414.80 183.28 414.39 191.97 C 414.14 202.61 408.03 212.34 399.98 218.95 C 398.73 220.04 397.17 220.81 396.18 222.16 C 396.50 224.39 397.69 226.36 398.35 228.49 C 402.15 239.86 401.42 252.89 395.47 263.40 C 391.54 270.84 385.00 276.65 377.45 280.24 C 377.95 290.43 373.42 301.04 364.96 306.96 C 359.27 310.66 352.28 311.21 345.68 311.47 C 339.79 326.86 323.10 337.90 306.48 335.78 C 309.32 347.74 311.02 359.92 311.47 372.20 C 314.84 373.10 317.93 375.28 319.47 378.47 C 323.43 385.89 325.03 394.43 324.45 402.79 C 333.46 404.12 342.88 401.50 350.28 396.29 C 359.49 388.97 365.83 378.90 372.22 369.20 C 373.80 366.83 375.30 364.35 377.51 362.49 C 377.65 362.97 377.94 363.91 378.08 364.39 C 371.09 375.37 364.27 386.74 354.67 395.68 C 346.70 403.23 335.26 405.92 324.54 405.40 C 323.87 409.60 323.02 413.76 322.15 417.92 C 334.93 419.12 348.59 415.92 358.45 407.41 C 363.69 402.64 368.68 397.52 372.67 391.63 C 377.76 384.77 381.14 376.86 385.84 369.75 C 385.77 370.83 385.77 371.93 385.71 373.02 C 385.28 375.73 383.55 378.03 382.36 380.45 C 375.00 393.70 365.95 406.89 352.46 414.49 C 343.06 420.09 331.83 421.22 321.11 420.82 C 318.91 424.16 317.50 428.12 315.79 431.79 C 323.61 432.79 330.71 438.10 333.30 445.64 C 348.76 445.69 364.22 445.39 379.68 445.41 C 379.72 446.02 379.80 447.24 379.84 447.86 C 361.59 448.85 343.28 447.66 325.03 448.82 C 315.97 449.05 306.91 448.68 297.86 448.81 C 299.41 452.98 302.44 457.84 300.31 462.26 C 285.51 465.86 270.07 464.51 254.97 464.74 C 252.01 464.90 249.13 464.19 246.28 463.52 C 245.23 458.20 245.62 452.67 246.04 447.30 C 247.38 435.92 247.39 424.42 248.61 413.03 C 248.77 404.68 248.70 396.31 249.75 388.00 C 250.84 380.04 250.82 371.99 250.70 363.97 C 250.79 362.62 249.94 361.57 249.25 360.52 C 249.44 359.26 249.55 357.99 249.68 356.73 C 241.87 356.35 234.17 354.91 226.50 353.44 C 226.47 356.36 226.54 359.29 226.81 362.20 C 226.42 359.84 225.56 357.59 224.47 355.47 C 224.06 354.59 223.64 353.71 223.21 352.84 C 213.49 350.89 203.16 350.58 194.26 345.82 C 190.63 343.91 187.40 341.36 184.07 339.00 C 178.94 348.19 172.85 356.93 169.04 366.80 C 171.05 368.35 173.04 369.92 175.10 371.40 C 175.24 368.88 175.31 366.37 175.37 363.85 C 176.47 363.88 177.57 363.91 178.67 363.96 C 181.49 379.41 184.00 394.92 187.52 410.23 C 188.69 417.80 191.53 425.06 191.90 432.74 C 191.88 434.51 191.80 436.29 191.72 438.06 C 193.14 438.66 194.55 439.27 195.99 439.81 C 192.20 440.78 188.51 442.16 185.12 444.12 C 185.46 436.32 184.64 428.55 183.23 420.89 C 182.49 411.91 180.78 403.05 180.38 394.04 C 180.33 392.17 179.78 390.37 178.68 388.85 C 174.43 383.31 173.60 375.60 168.19 370.91 C 162.72 368.69 156.41 371.44 153.25 376.22 C 146.48 386.46 146.15 399.81 149.67 411.28 C 151.07 415.94 152.45 420.73 155.12 424.84 C 156.90 426.97 160.04 427.14 162.09 428.95 C 162.91 430.09 162.63 431.63 162.90 432.96 C 160.25 432.48 157.77 431.46 155.26 430.53 C 147.21 430.76 139.19 436.12 137.35 444.23 C 138.68 444.10 140.02 443.96 141.35 443.82 C 141.83 441.34 142.04 438.40 144.13 436.70 C 148.40 435.60 147.19 441.68 147.32 444.22 C 148.69 444.15 150.05 444.08 151.42 444.00 C 151.62 441.29 152.49 438.73 153.95 436.45 C 155.11 436.92 156.28 437.39 157.44 437.87 C 157.58 440.08 157.56 442.38 158.56 444.42 C 158.73 444.86 159.08 445.73 159.26 446.17 C 158.61 446.28 157.31 446.50 156.66 446.61 C 148.12 447.38 139.55 446.92 131.00 446.65 C 115.95 447.04 100.92 447.10 85.88 446.73 C 85.82 446.24 85.71 445.26 85.65 444.76 C 95.68 443.57 105.89 444.39 116.00 444.13 C 121.92 444.05 127.85 443.74 133.78 443.74 C 135.41 434.50 144.05 428.46 152.92 427.25 C 148.17 417.50 143.96 407.03 144.20 395.99 C 144.09 387.05 146.24 377.35 153.16 371.14 C 156.27 367.50 161.12 366.61 165.59 365.86 C 168.68 353.56 174.57 342.20 181.38 331.58 C 173.66 332.15 165.59 331.38 158.96 327.06 C 150.30 321.72 144.41 312.47 142.45 302.57 C 132.49 301.33 122.45 296.86 116.43 288.56 C 109.35 279.40 107.87 267.18 109.46 256.00 C 102.23 253.10 95.67 248.00 92.07 240.98 C 84.41 227.51 87.22 209.82 96.68 197.97 C 90.71 192.05 85.88 184.50 85.04 175.97 C 83.01 160.00 91.94 143.86 105.81 136.02 C 104.44 127.13 105.10 117.56 109.92 109.76 C 117.34 96.38 133.32 89.57 148.20 90.34 C 150.31 83.93 152.72 77.40 157.43 72.40 C 163.20 66.35 170.55 61.29 178.97 60.04 C 184.62 58.76 190.38 59.81 195.93 61.02 Z" fill="#092c46" opacity="1.00" stroke="#092c46" stroke-width="0.25"/>
<path d="M 214.13 52.20 C 223.13 48.59 233.55 51.19 241.07 56.90 C 242.61 57.80 244.51 59.77 246.33 58.38 C 250.89 55.36 255.60 52.05 261.20 51.50 C 266.32 51.08 271.79 50.89 276.39 53.56 C 282.86 56.42 287.68 61.83 291.32 67.75 C 295.98 63.70 301.56 60.17 307.97 60.27 C 320.53 59.19 331.77 70.23 332.80 82.42 C 338.20 82.92 343.64 82.08 349.04 82.72 C 356.19 83.66 362.65 87.40 368.23 91.79 C 372.19 96.23 374.55 102.13 375.13 108.04 C 374.81 108.37 374.16 109.04 373.84 109.37 C 367.93 106.72 361.24 107.34 355.00 108.14 C 342.31 110.26 331.13 117.91 323.16 127.82 C 307.13 115.61 286.98 110.18 267.14 108.67 C 268.23 102.40 271.42 96.86 274.12 91.20 C 274.78 89.72 275.62 86.53 273.25 86.31 C 267.39 92.50 262.50 100.02 261.60 108.70 C 261.00 115.74 260.22 123.57 264.27 129.81 C 262.32 131.84 259.57 132.66 256.99 133.55 C 256.65 131.64 256.30 129.73 255.99 127.82 C 254.73 116.01 254.25 103.09 260.54 92.52 C 262.50 88.78 267.24 86.57 266.93 81.83 C 265.29 81.98 263.51 82.05 262.23 83.23 C 254.33 89.31 250.16 99.21 249.56 108.99 C 249.38 113.06 249.47 117.15 249.67 121.23 C 248.15 115.79 249.07 110.15 248.75 104.60 C 247.44 108.62 247.63 112.89 247.92 117.04 C 248.24 121.21 248.48 125.46 249.89 129.44 C 250.03 127.58 250.14 125.71 250.13 123.85 C 250.86 127.87 251.54 131.91 251.78 135.99 C 243.85 125.72 232.37 117.52 228.57 104.59 C 227.19 100.74 230.36 96.65 228.25 92.99 C 226.65 94.54 224.86 96.11 224.22 98.33 C 222.61 102.81 224.59 107.46 224.57 112.01 C 223.61 113.48 221.61 113.55 220.12 114.19 C 212.69 116.20 205.55 119.22 198.72 122.76 C 195.05 124.65 191.81 127.40 187.89 128.80 C 186.48 127.99 185.43 126.74 184.37 125.55 C 178.34 118.26 170.99 111.77 162.30 107.86 C 154.05 105.09 145.05 106.65 136.86 108.96 C 130.42 110.68 124.60 114.29 119.91 118.98 C 116.56 122.07 113.28 125.41 111.50 129.68 C 111.00 129.55 110.00 129.29 109.51 129.16 C 108.48 118.23 114.07 107.28 123.11 101.20 C 130.15 96.60 138.60 94.02 147.04 94.25 C 148.55 94.20 150.14 94.23 151.51 93.47 C 152.87 90.12 153.56 86.52 155.22 83.28 C 159.77 73.44 169.19 65.69 180.03 64.07 C 185.75 62.89 191.53 64.25 197.09 65.60 C 201.54 59.76 207.12 54.71 214.13 52.20 Z" fill="#f6622a" opacity="1.00" stroke="#f6622a" stroke-width="0.25"/>
<path d="M 262.23 83.23 C 263.51 82.05 265.29 81.98 266.93 81.83 C 267.24 86.57 262.50 88.78 260.54 92.52 C 254.25 103.09 254.73 116.01 255.99 127.82 C 256.40 132.45 257.04 137.22 256.06 141.83 C 255.73 143.59 253.97 144.23 252.44 143.53 C 250.38 141.94 248.87 139.77 247.16 137.85 C 243.97 134.04 240.10 130.91 236.61 127.40 C 233.15 123.92 230.40 119.82 227.84 115.67 C 218.74 117.16 210.16 120.84 201.96 124.94 C 196.46 127.65 191.59 131.43 186.13 134.21 C 184.92 132.25 183.77 130.25 182.50 128.33 C 182.97 127.64 183.90 126.25 184.37 125.55 C 185.43 126.74 186.48 127.99 187.89 128.80 C 191.81 127.40 195.05 124.65 198.72 122.76 C 205.55 119.22 212.69 116.20 220.12 114.19 C 221.61 113.55 223.61 113.48 224.57 112.01 C 224.59 107.46 222.61 102.81 224.22 98.33 C 224.86 96.11 226.65 94.54 228.25 92.99 C 230.36 96.65 227.19 100.74 228.57 104.59 C 232.37 117.52 243.85 125.72 251.78 135.99 C 251.54 131.91 250.86 127.87 250.13 123.85 C 250.02 123.19 249.79 121.88 249.67 121.23 C 249.47 117.15 249.38 113.06 249.56 108.99 C 250.16 99.21 254.33 89.31 262.23 83.23 Z" fill="#082c46" opacity="1.00" stroke="#082c46" stroke-width="0.25"/>
<path d="M 273.25 86.31 C 275.62 86.53 274.78 89.72 274.12 91.20 C 271.42 96.86 268.23 102.40 267.14 108.67 C 286.98 110.18 307.13 115.61 323.16 127.82 C 331.13 117.91 342.31 110.26 355.00 108.14 C 361.24 107.34 367.93 106.72 373.84 109.37 C 375.46 110.38 376.76 111.81 377.80 113.41 C 369.03 109.93 359.10 108.92 350.09 112.10 C 340.23 115.16 331.84 121.94 325.43 129.88 C 330.11 133.96 334.72 138.11 339.05 142.55 C 341.21 139.80 343.47 137.13 345.91 134.64 C 345.09 138.87 342.04 141.92 338.68 144.34 C 338.62 144.86 338.51 145.92 338.45 146.45 C 329.19 136.46 318.53 127.54 306.08 121.83 C 293.59 116.13 280.01 112.46 266.24 112.12 C 265.89 117.38 266.21 122.64 266.28 127.90 C 265.78 128.38 264.77 129.33 264.27 129.81 C 260.22 123.57 261.00 115.74 261.60 108.70 C 262.50 100.02 267.39 92.50 273.25 86.31 Z" fill="#0f2a3c" opacity="1.00" stroke="#0f2a3c" stroke-width="0.25"/>
<path d="M 247.92 117.04 C 247.63 112.89 247.44 108.62 248.75 104.60 C 249.07 110.15 248.15 115.79 249.67 121.23 C 249.79 121.88 250.02 123.19 250.13 123.85 C 250.14 125.71 250.03 127.58 249.89 129.44 C 248.48 125.46 248.24 121.21 247.92 117.04 Z" fill="#db6f4b" opacity="1.00" stroke="#db6f4b" stroke-width="0.25"/>
<path d="M 136.86 108.96 C 145.05 106.65 154.05 105.09 162.30 107.86 C 170.99 111.77 178.34 118.26 184.37 125.55 C 183.90 126.25 182.97 127.64 182.50 128.33 C 176.82 121.37 170.09 114.89 161.82 111.12 C 156.23 108.44 149.88 109.97 144.07 110.94 C 137.32 112.20 130.50 114.26 125.21 118.84 C 124.93 118.49 124.36 117.78 124.08 117.43 C 122.70 117.99 121.31 118.51 119.91 118.98 C 124.60 114.29 130.42 110.68 136.86 108.96 Z" fill="#19292e" opacity="1.00" stroke="#19292e" stroke-width="0.25"/>
<path d="M 144.07 110.94 C 149.88 109.97 156.23 108.44 161.82 111.12 C 170.09 114.89 176.82 121.37 182.50 128.33 C 183.77 130.25 184.92 132.25 186.13 134.21 C 191.59 131.43 196.46 127.65 201.96 124.94 C 210.16 120.84 218.74 117.16 227.84 115.67 C 230.40 119.82 233.15 123.92 236.61 127.40 C 240.10 130.91 243.97 134.04 247.16 137.85 C 248.87 139.77 250.38 141.94 252.44 143.53 C 253.97 144.23 255.73 143.59 256.06 141.83 C 257.04 137.22 256.40 132.45 255.99 127.82 C 256.30 129.73 256.65 131.64 256.99 133.55 C 259.57 132.66 262.32 131.84 264.27 129.81 C 264.77 129.33 265.78 128.38 266.28 127.90 C 266.21 122.64 265.89 117.38 266.24 112.12 C 280.01 112.46 293.59 116.13 306.08 121.83 C 318.53 127.54 329.19 136.46 338.45 146.45 C 346.62 155.64 351.66 166.96 356.53 178.12 C 360.39 190.58 363.63 203.30 364.72 216.34 C 366.28 226.77 365.34 237.45 362.70 247.62 C 361.07 254.20 359.23 260.83 355.77 266.72 C 351.59 273.65 346.68 280.24 340.55 285.56 C 333.87 291.57 325.99 296.00 318.03 300.07 C 316.30 300.99 314.43 301.62 312.51 302.01 L 312.83 300.89 C 316.24 290.73 316.81 279.29 312.77 269.23 C 311.88 266.91 310.87 264.63 309.92 262.35 C 309.40 259.70 308.04 257.47 305.67 256.13 C 304.42 254.75 303.20 253.36 302.00 251.95 C 299.35 248.04 295.97 244.68 292.11 241.97 C 291.03 241.08 289.94 240.21 288.85 239.34 C 288.78 237.76 287.51 236.67 285.95 236.78 C 285.69 236.66 285.16 236.44 284.90 236.32 C 284.84 234.67 283.37 233.63 281.79 233.94 C 277.63 231.51 273.48 228.99 268.98 227.22 C 268.92 225.72 268.20 225.01 266.82 225.08 L 266.75 224.23 C 266.68 218.61 265.59 212.98 262.94 207.98 C 262.25 205.46 261.64 202.91 260.83 200.42 C 259.96 199.55 259.12 198.43 257.82 198.28 C 251.53 197.11 244.48 199.54 238.86 195.62 C 238.30 195.53 237.16 195.36 236.59 195.27 C 233.82 206.46 231.90 217.84 229.27 229.06 C 220.39 231.99 213.68 238.77 206.81 244.77 C 200.47 250.19 195.37 256.91 191.02 263.97 C 186.53 271.87 182.86 281.22 185.56 290.36 C 186.64 296.40 190.52 301.24 194.10 306.02 C 185.91 303.87 178.38 299.81 171.11 295.59 C 165.71 292.18 160.13 288.94 155.41 284.60 C 145.46 275.07 138.63 262.42 136.10 248.88 C 133.54 236.73 133.75 224.05 135.98 211.87 C 140.74 193.09 148.30 174.73 160.60 159.59 C 163.62 155.34 167.72 151.98 170.70 147.73 C 170.46 144.27 168.07 141.40 166.64 138.34 C 163.43 132.03 157.79 127.01 150.98 124.92 C 143.99 122.15 136.04 124.93 130.55 129.58 C 125.60 134.45 121.45 140.82 121.38 148.00 C 120.49 157.31 123.38 166.69 128.61 174.36 C 131.77 178.90 136.26 182.74 141.84 183.78 C 141.39 187.33 140.11 190.69 138.70 193.96 C 132.14 191.95 125.80 188.88 120.52 184.45 C 114.25 178.52 109.71 170.72 107.89 162.27 C 106.73 156.34 107.57 150.26 108.82 144.42 C 111.62 134.55 116.96 125.14 125.21 118.84 C 130.50 114.26 137.32 112.20 144.07 110.94 Z" fill="#fec808" opacity="1.00" stroke="#fec808" stroke-width="0.25"/>
<path d="M 350.09 112.10 C 359.10 108.92 369.03 109.93 377.80 113.41 C 383.85 115.79 389.18 119.70 393.88 124.13 C 401.74 133.01 404.23 145.49 403.19 157.03 C 402.08 170.13 393.89 181.96 382.96 188.94 C 377.37 192.28 371.07 195.21 364.40 194.64 C 363.53 190.34 362.09 186.18 361.43 181.84 C 371.68 179.18 381.21 172.76 385.89 163.04 C 389.66 154.61 391.40 144.45 387.36 135.80 C 384.67 129.60 378.33 125.71 371.89 124.51 C 362.29 123.40 352.42 127.65 345.91 134.64 C 343.47 137.13 341.21 139.80 339.05 142.55 C 334.72 138.11 330.11 133.96 325.43 129.88 C 331.84 121.94 340.23 115.16 350.09 112.10 Z" fill="#fdc809" opacity="1.00" stroke="#fdc809" stroke-width="0.25"/>
<path d="M 130.55 129.58 C 136.04 124.93 143.99 122.15 150.98 124.92 C 157.79 127.01 163.43 132.03 166.64 138.34 C 168.07 141.40 170.46 144.27 170.70 147.73 C 167.72 151.98 163.62 155.34 160.60 159.59 C 148.30 174.73 140.74 193.09 135.98 211.87 C 135.39 212.59 134.79 213.30 134.19 214.01 C 134.03 212.58 133.88 211.15 133.76 209.73 C 134.03 207.81 134.27 205.89 134.48 203.96 C 126.97 200.11 119.68 195.40 114.29 188.80 C 105.14 175.97 102.21 159.17 105.30 143.82 C 105.67 144.36 106.41 145.44 106.78 145.98 C 107.13 144.94 107.48 143.91 107.84 142.88 C 108.08 143.26 108.57 144.04 108.82 144.42 C 107.57 150.26 106.73 156.34 107.89 162.27 C 109.71 170.72 114.25 178.52 120.52 184.45 C 125.80 188.88 132.14 191.95 138.70 193.96 C 140.11 190.69 141.39 187.33 141.84 183.78 C 136.26 182.74 131.77 178.90 128.61 174.36 C 123.38 166.69 120.49 157.31 121.38 148.00 C 121.45 140.82 125.60 134.45 130.55 129.58 Z" fill="#022e50" opacity="1.00" stroke="#022e50" stroke-width="0.25"/>
<path d="M 345.91 134.64 C 352.42 127.65 362.29 123.40 371.89 124.51 C 378.33 125.71 384.67 129.60 387.36 135.80 C 391.40 144.45 389.66 154.61 385.89 163.04 C 381.21 172.76 371.68 179.18 361.43 181.84 C 359.30 181.92 358.04 179.35 356.53 178.12 C 351.66 166.96 346.62 155.64 338.45 146.45 C 338.51 145.92 338.62 144.86 338.68 144.34 C 342.04 141.92 345.09 138.87 345.91 134.64 Z" fill="#022f50" opacity="1.00" stroke="#022f50" stroke-width="0.25"/>
<path d="M 91.05 158.99 C 93.99 151.72 98.97 145.03 105.83 141.06 C 105.70 141.75 105.44 143.13 105.30 143.82 C 102.21 159.17 105.14 175.97 114.29 188.80 C 119.68 195.40 126.97 200.11 134.48 203.96 C 134.27 205.89 134.03 207.81 133.76 209.73 C 128.66 225.65 130.10 243.07 135.21 258.81 C 140.25 275.44 152.21 289.68 167.49 297.91 C 178.18 304.56 189.96 309.23 201.86 313.21 C 214.74 318.06 228.27 321.09 241.98 322.27 C 251.01 322.64 260.07 322.44 269.06 321.41 C 280.18 319.00 291.11 315.68 301.79 311.70 C 318.57 304.20 336.40 296.99 348.82 282.82 C 363.06 267.60 368.58 246.37 369.23 226.00 C 368.92 219.06 367.61 212.21 367.28 205.28 C 374.81 201.93 381.97 197.63 388.05 192.02 C 393.74 186.62 398.06 180.01 402.17 173.42 C 404.15 173.59 405.36 175.96 406.53 177.44 C 411.94 186.07 411.37 197.50 406.02 206.03 C 403.14 210.68 398.99 214.33 394.87 217.86 C 393.62 219.04 391.99 220.16 391.81 222.03 C 392.44 225.41 394.21 228.42 395.16 231.71 C 398.68 244.60 395.79 259.54 386.15 269.14 C 382.99 272.88 378.38 274.77 374.45 277.49 C 372.86 280.45 374.16 284.17 373.14 287.36 C 371.12 293.52 368.09 299.79 362.56 303.53 C 357.45 306.98 351.01 306.62 345.15 307.38 C 343.77 307.26 343.25 308.71 342.61 309.63 C 339.41 315.15 336.05 320.87 330.89 324.80 C 324.55 329.31 316.85 332.49 308.94 331.70 C 304.37 331.87 300.41 329.39 296.30 327.81 C 294.21 327.08 291.29 326.78 289.90 328.90 C 285.85 334.41 281.89 340.35 275.90 343.94 C 268.03 348.71 258.26 351.03 249.22 348.58 C 243.69 346.70 238.34 344.06 234.05 340.03 C 226.84 344.91 217.87 347.92 209.16 345.88 C 201.63 343.23 194.40 338.52 190.50 331.36 C 188.96 328.72 186.54 325.52 183.04 326.70 C 173.52 328.68 162.42 326.87 155.90 319.09 C 150.23 314.02 147.38 306.91 145.11 299.86 C 141.65 297.90 137.49 297.78 133.85 296.23 C 124.93 293.39 117.58 286.14 114.79 277.19 C 112.11 269.59 114.10 261.43 113.33 253.65 C 109.59 250.94 104.94 249.67 101.57 246.40 C 95.93 241.97 93.08 234.96 91.94 228.06 C 90.75 220.48 92.81 212.82 96.01 205.99 C 97.37 203.04 99.85 200.82 101.43 198.01 C 101.16 196.42 99.69 195.43 98.74 194.23 C 93.89 189.35 89.51 183.13 89.41 175.99 C 89.38 170.31 88.80 164.36 91.05 158.99 Z" fill="#f6622a" opacity="1.00" stroke="#f6622a" stroke-width="0.25"/>
<path d="M 180.76 167.71 C 188.04 161.17 198.13 157.06 207.97 158.96 C 212.08 159.79 215.84 163.54 214.48 168.02 C 213.29 172.27 208.20 170.87 204.97 170.62 C 196.82 169.50 189.05 173.10 182.55 177.69 C 179.73 179.37 176.72 182.14 173.22 180.74 C 172.46 175.18 177.04 171.10 180.76 167.71 Z" fill="#042d4e" opacity="1.00" stroke="#042d4e" stroke-width="0.25"/>
<path d="M 283.58 162.43 C 286.76 158.52 292.32 158.21 297.00 158.29 C 308.88 157.81 320.66 163.63 327.85 173.04 C 329.30 174.98 329.24 177.47 328.56 179.69 C 326.51 179.70 324.14 179.98 322.57 178.34 C 316.11 172.14 306.98 168.69 298.02 169.31 C 293.29 169.29 288.26 172.02 283.86 169.14 C 282.94 167.04 283.19 164.62 283.58 162.43 Z" fill="#032e4f" opacity="1.00" stroke="#032e4f" stroke-width="0.25"/>
<path d="M 186.40 189.41 C 191.95 185.06 199.97 185.31 205.80 188.97 C 209.72 192.75 213.39 197.44 213.73 203.10 C 214.36 209.88 211.21 217.86 204.35 220.23 C 199.96 221.43 195.32 220.67 190.91 219.93 C 188.56 218.86 186.29 217.57 184.30 215.93 C 182.50 213.25 180.91 210.44 179.55 207.52 C 178.48 200.81 180.24 193.12 186.40 189.41 Z" fill="#0b1f23" opacity="1.00" stroke="#0b1f23" stroke-width="0.25"/>
<path d="M 288.07 198.99 C 290.36 192.78 296.18 187.46 303.00 187.28 C 311.23 186.65 318.99 193.22 320.43 201.20 C 320.69 204.48 320.90 207.91 319.95 211.10 C 319.20 211.76 318.76 212.58 318.63 213.57 C 317.53 215.65 315.77 217.31 313.97 218.78 C 308.76 221.69 302.76 222.13 296.92 221.79 C 295.55 221.30 294.25 220.63 293.01 219.88 C 291.23 218.41 289.58 216.78 288.12 215.00 C 286.38 209.83 286.02 204.13 288.07 198.99 Z" fill="#0b1f23" opacity="1.00" stroke="#0b1f23" stroke-width="0.25"/>
<path d="M 182.83 196.94 C 186.00 190.00 195.33 186.07 202.23 189.84 C 207.36 192.08 210.33 197.26 211.66 202.48 C 211.71 202.82 211.79 203.51 211.83 203.85 C 209.97 201.86 208.29 199.32 205.48 198.66 C 199.46 197.11 192.67 201.14 191.19 207.19 C 190.06 211.07 191.61 215.26 194.61 217.86 C 194.12 217.88 193.16 217.93 192.68 217.95 C 187.21 216.27 182.78 211.88 181.71 206.16 C 181.79 203.06 182.16 199.97 182.83 196.94 Z" fill="#fdfefd" opacity="1.00" stroke="#fdfefd" stroke-width="0.25"/>
<path d="M 205.80 188.97 C 209.87 189.78 212.17 193.84 213.74 197.33 C 215.94 204.03 215.35 212.14 210.75 217.74 C 207.31 221.52 201.88 222.86 196.92 222.29 C 194.78 222.03 192.25 221.89 190.91 219.93 C 195.32 220.67 199.96 221.43 204.35 220.23 C 211.21 217.86 214.36 209.88 213.73 203.10 C 213.39 197.44 209.72 192.75 205.80 188.97 Z" fill="#c9b23d" opacity="1.00" stroke="#c9b23d" stroke-width="0.25"/>
<path d="M 297.76 190.63 C 301.05 188.31 305.96 188.17 309.19 190.67 C 305.49 189.26 301.46 189.19 297.76 190.63 Z" fill="#022f4f" opacity="1.00" stroke="#022f4f" stroke-width="0.25"/>
<path d="M 297.76 190.63 C 301.46 189.19 305.49 189.26 309.19 190.67 C 313.89 192.16 316.70 196.45 318.37 200.84 C 318.53 203.61 318.51 206.40 318.35 209.18 C 316.72 213.51 313.39 217.20 308.99 218.80 C 308.50 218.84 307.51 218.91 307.02 218.95 C 308.27 216.45 309.83 213.92 309.75 211.01 C 310.28 204.10 302.75 198.17 296.14 199.89 C 293.34 200.80 291.24 202.96 288.78 204.47 C 289.74 198.88 292.74 193.51 297.76 190.63 Z" fill="#fcfdfd" opacity="1.00" stroke="#fcfdfd" stroke-width="0.25"/>
<path d="M 236.59 195.27 C 237.16 195.36 238.30 195.53 238.86 195.62 C 235.62 212.90 231.90 230.13 229.64 247.59 L 228.81 247.58 C 228.48 242.95 229.63 238.36 229.07 233.73 C 229.04 233.22 228.99 232.21 228.96 231.70 C 225.62 232.80 222.51 234.51 219.77 236.71 C 210.83 243.73 202.48 251.72 196.27 261.31 C 191.82 268.06 187.30 275.40 187.08 283.73 C 186.68 285.96 186.08 288.15 185.56 290.36 C 182.86 281.22 186.53 271.87 191.02 263.97 C 195.37 256.91 200.47 250.19 206.81 244.77 C 213.68 238.77 220.39 231.99 229.27 229.06 C 231.90 217.84 233.82 206.46 236.59 195.27 Z" fill="#102423" opacity="1.00" stroke="#102423" stroke-width="0.25"/>
<path d="M 238.86 195.62 C 244.48 199.54 251.53 197.11 257.82 198.28 C 259.12 198.43 259.96 199.55 260.83 200.42 C 259.82 201.62 259.08 203.03 259.62 204.63 C 262.85 218.39 265.45 232.29 268.43 246.10 C 261.67 247.08 254.80 246.29 248.00 246.81 C 241.89 247.32 235.77 247.46 229.64 247.59 C 231.90 230.13 235.62 212.90 238.86 195.62 Z" fill="#fda114" opacity="1.00" stroke="#fda114" stroke-width="0.25"/>
<path d="M 181.71 206.16 C 180.85 203.07 180.98 199.65 182.83 196.94 C 182.16 199.97 181.79 203.06 181.71 206.16 Z" fill="#5e7482" opacity="1.00" stroke="#5e7482" stroke-width="0.25"/>
<path d="M 191.19 207.19 C 192.67 201.14 199.46 197.11 205.48 198.66 C 208.29 199.32 209.97 201.86 211.83 203.85 C 211.79 203.51 211.71 202.82 211.66 202.48 L 212.52 201.84 C 213.46 208.67 210.15 216.72 203.33 219.19 C 199.55 220.40 195.46 219.40 191.83 218.16 L 192.68 217.95 C 193.16 217.93 194.12 217.88 194.61 217.86 C 191.61 215.26 190.06 211.07 191.19 207.19 Z" fill="#042e4f" opacity="1.00" stroke="#042e4f" stroke-width="0.25"/>
<path d="M 288.78 204.47 C 291.24 202.96 293.34 200.80 296.14 199.89 C 302.75 198.17 310.28 204.10 309.75 211.01 C 309.83 213.92 308.27 216.45 307.02 218.95 C 307.51 218.91 308.50 218.84 308.99 218.80 C 307.02 221.05 303.70 220.63 301.01 220.76 C 296.58 220.95 293.13 217.66 290.34 214.65 C 287.88 212.00 288.32 208.11 288.29 204.79 L 288.78 204.47 Z" fill="#032e4f" opacity="1.00" stroke="#032e4f" stroke-width="0.25"/>
<path d="M 259.62 204.63 C 259.08 203.03 259.82 201.62 260.83 200.42 C 261.64 202.91 262.25 205.46 262.94 207.98 C 263.66 213.51 265.04 218.92 266.75 224.23 L 266.82 225.08 C 266.86 226.40 267.58 227.11 268.98 227.22 C 273.48 228.99 277.63 231.51 281.79 233.94 C 282.23 235.33 283.45 236.22 284.90 236.32 C 285.16 236.44 285.69 236.66 285.95 236.78 C 286.17 238.26 287.36 239.27 288.85 239.34 C 289.94 240.21 291.03 241.08 292.11 241.97 C 295.49 245.21 298.79 248.54 302.00 251.95 C 303.20 253.36 304.42 254.75 305.67 256.13 C 306.98 258.27 308.40 260.34 309.92 262.35 C 310.87 264.63 311.88 266.91 312.77 269.23 C 316.81 279.29 316.24 290.73 312.83 300.89 C 311.79 302.23 310.99 302.15 310.43 300.65 C 313.90 291.13 313.83 280.54 310.89 270.90 C 306.51 258.56 296.69 249.32 286.88 241.13 C 280.94 236.77 275.05 232.21 268.26 229.21 C 268.50 231.05 268.76 232.89 269.07 234.73 C 269.22 238.14 269.34 241.56 269.78 244.96 C 269.44 245.25 268.77 245.82 268.43 246.10 C 265.45 232.29 262.85 218.39 259.62 204.63 Z" fill="#152328" opacity="1.00" stroke="#152328" stroke-width="0.25"/>
<path d="M 318.37 200.84 C 319.29 203.48 319.50 206.57 318.35 209.18 C 318.51 206.40 318.53 203.61 318.37 200.84 Z" fill="#022e50" opacity="1.00" stroke="#022e50" stroke-width="0.25"/>
<path d="M 201.32 203.36 C 204.37 200.53 208.63 205.91 205.22 208.22 C 202.28 210.29 198.65 205.87 201.32 203.36 Z" fill="#f7ffff" opacity="1.00" stroke="#f7ffff" stroke-width="0.25"/>
<path d="M 179.55 207.52 C 180.91 210.44 182.50 213.25 184.30 215.93 C 180.35 215.63 179.50 210.72 179.55 207.52 Z" fill="#d5bb3b" opacity="1.00" stroke="#d5bb3b" stroke-width="0.25"/>
<path d="M 262.94 207.98 C 265.59 212.98 266.68 218.61 266.75 224.23 C 265.04 218.92 263.66 213.51 262.94 207.98 Z" fill="#c1a93d" opacity="1.00" stroke="#c1a93d" stroke-width="0.25"/>
<path d="M 303.09 209.13 C 305.62 208.79 307.00 210.22 306.82 212.71 C 305.55 212.75 304.29 212.78 303.03 212.80 C 302.92 211.57 302.94 210.35 303.09 209.13 Z" fill="#efffff" opacity="1.00" stroke="#efffff" stroke-width="0.25"/>
<path d="M 135.21 258.81 C 130.10 243.07 128.66 225.65 133.76 209.73 C 133.88 211.15 134.03 212.58 134.19 214.01 C 134.79 213.30 135.39 212.59 135.98 211.87 C 133.75 224.05 133.54 236.73 136.10 248.88 C 138.63 262.42 145.46 275.07 155.41 284.60 C 160.13 288.94 165.71 292.18 171.11 295.59 C 169.87 296.31 168.66 297.09 167.49 297.91 C 152.21 289.68 140.25 275.44 135.21 258.81 Z" fill="#17292f" opacity="1.00" stroke="#17292f" stroke-width="0.25"/>
<path d="M 318.63 213.57 C 318.76 212.58 319.20 211.76 319.95 211.10 C 320.89 212.67 320.45 213.49 318.63 213.57 Z" fill="#efffff" opacity="1.00" stroke="#efffff" stroke-width="0.25"/>
<path d="M 288.12 215.00 C 289.58 216.78 291.23 218.41 293.01 219.88 C 290.74 219.00 289.01 217.25 288.12 215.00 Z" fill="#efffff" opacity="1.00" stroke="#efffff" stroke-width="0.25"/>
<path d="M 296.92 221.79 C 302.76 222.13 308.76 221.69 313.97 218.78 C 312.06 222.80 306.82 222.62 303.03 223.02 C 301.04 222.82 298.26 223.72 296.92 221.79 Z" fill="#c8b339" opacity="1.00" stroke="#c8b339" stroke-width="0.25"/>
<path d="M 164.37 221.50 C 172.05 219.71 181.56 220.64 186.73 227.27 C 191.28 233.85 191.50 243.32 187.00 249.99 C 183.62 255.38 177.01 257.49 171.01 258.19 C 164.76 257.58 157.91 255.08 154.73 249.25 C 147.94 239.76 153.46 224.96 164.37 221.50 Z" fill="#feb84d" opacity="1.00" stroke="#feb84d" stroke-width="0.25"/>
<path d="M 165.36 222.46 C 171.13 221.14 177.91 221.46 182.62 225.42 C 185.87 229.24 188.96 233.80 189.19 238.97 C 188.50 245.02 185.18 250.75 179.95 253.99 C 177.23 256.45 173.37 256.10 169.97 256.17 C 161.81 256.52 154.96 249.29 153.16 241.80 C 152.51 233.74 157.41 224.96 165.36 222.46 Z" fill="#ffab92" opacity="1.00" stroke="#ffab92" stroke-width="0.25"/>
<path d="M 311.59 235.96 C 311.56 228.17 319.37 221.64 327.00 222.57 C 331.74 223.01 337.30 222.63 341.15 225.85 C 346.09 231.59 347.90 240.19 345.20 247.33 C 343.91 251.25 340.33 253.67 337.21 256.06 C 332.44 257.60 327.11 257.93 322.27 256.53 C 318.80 254.98 315.59 252.35 314.63 248.52 C 314.06 248.90 313.50 249.29 312.95 249.68 C 311.78 245.21 311.32 240.57 311.59 235.96 Z" fill="#ffab92" opacity="1.00" stroke="#ffab92" stroke-width="0.25"/>
<path d="M 266.82 225.08 C 268.20 225.01 268.92 225.72 268.98 227.22 C 267.58 227.11 266.86 226.40 266.82 225.08 Z" fill="#9b9d49" opacity="1.00" stroke="#9b9d49" stroke-width="0.25"/>
<path d="M 268.26 229.21 C 275.05 232.21 280.94 236.77 286.88 241.13 C 296.69 249.32 306.51 258.56 310.89 270.90 C 313.83 280.54 313.90 291.13 310.43 300.65 C 309.22 303.61 306.83 305.92 303.78 306.91 C 290.79 312.01 277.40 316.40 263.52 318.25 C 246.54 319.79 229.15 318.29 212.92 312.91 C 208.68 311.38 204.20 310.12 200.52 307.43 C 197.39 304.60 194.03 301.88 191.68 298.34 C 189.15 293.88 187.50 288.85 187.08 283.73 C 187.30 275.40 191.82 268.06 196.27 261.31 C 202.48 251.72 210.83 243.73 219.77 236.71 C 222.51 234.51 225.62 232.80 228.96 231.70 C 228.99 232.21 229.04 233.22 229.07 233.73 C 228.27 239.07 226.70 244.42 226.92 249.83 C 231.87 260.11 240.83 268.54 251.70 272.26 C 251.70 275.37 251.69 278.49 251.61 281.61 C 242.16 288.10 229.76 286.90 219.39 283.49 C 216.11 282.05 213.20 279.96 210.29 277.93 C 211.83 275.45 213.57 273.06 214.64 270.31 C 210.27 271.62 208.56 276.38 205.86 279.64 C 211.31 279.96 214.90 284.69 220.02 286.05 C 222.47 286.87 224.98 287.47 227.47 288.15 C 228.62 295.36 231.17 303.23 237.75 307.25 C 246.10 312.40 257.68 313.77 266.12 308.08 C 272.39 304.25 275.83 296.91 275.75 289.69 C 280.30 288.37 285.02 286.80 288.38 283.28 C 289.65 281.91 290.83 280.46 292.02 279.02 C 293.49 279.32 294.97 279.60 296.46 279.84 C 293.99 275.16 289.96 270.67 284.84 268.97 C 286.01 271.93 288.69 273.81 290.86 275.99 C 289.62 278.02 288.34 280.02 287.02 282.01 C 277.35 289.07 263.59 287.98 254.38 280.66 C 254.33 277.90 254.30 275.14 254.28 272.39 C 262.91 267.58 268.70 258.85 271.82 249.68 C 272.32 244.57 270.20 239.64 269.07 234.73 C 268.76 232.89 268.50 231.05 268.26 229.21 Z" fill="#fefefe" opacity="1.00" stroke="#fefefe" stroke-width="0.25"/>
<path d="M 226.92 249.83 C 226.70 244.42 228.27 239.07 229.07 233.73 C 229.63 238.36 228.48 242.95 228.81 247.58 L 229.64 247.59 C 235.77 247.46 241.89 247.32 248.00 246.81 C 254.80 246.29 261.67 247.08 268.43 246.10 C 268.77 245.82 269.44 245.25 269.78 244.96 C 269.34 241.56 269.22 238.14 269.07 234.73 C 270.20 239.64 272.32 244.57 271.82 249.68 C 268.70 258.85 262.91 267.58 254.28 272.39 C 254.30 275.14 254.33 277.90 254.38 280.66 C 263.59 287.98 277.35 289.07 287.02 282.01 C 287.36 282.32 288.04 282.96 288.38 283.28 C 285.02 286.80 280.30 288.37 275.75 289.69 C 275.83 296.91 272.39 304.25 266.12 308.08 C 257.68 313.77 246.10 312.40 237.75 307.25 C 231.17 303.23 228.62 295.36 227.47 288.15 C 224.98 287.47 222.47 286.87 220.02 286.05 C 219.86 285.41 219.54 284.13 219.39 283.49 C 229.76 286.90 242.16 288.10 251.61 281.61 C 251.69 278.49 251.70 275.37 251.70 272.26 C 240.83 268.54 231.87 260.11 226.92 249.83 Z" fill="#032e50" opacity="1.00" stroke="#032e50" stroke-width="0.25"/>
<path d="M 281.79 233.94 C 283.37 233.63 284.84 234.67 284.90 236.32 C 283.45 236.22 282.23 235.33 281.79 233.94 Z" fill="#b3a73f" opacity="1.00" stroke="#b3a73f" stroke-width="0.25"/>
<path d="M 285.95 236.78 C 287.51 236.67 288.78 237.76 288.85 239.34 C 287.36 239.27 286.17 238.26 285.95 236.78 Z" fill="#af9c3f" opacity="1.00" stroke="#af9c3f" stroke-width="0.25"/>
<path d="M 292.11 241.97 C 295.97 244.68 299.35 248.04 302.00 251.95 C 298.79 248.54 295.49 245.21 292.11 241.97 Z" fill="#f9fffb" opacity="1.00" stroke="#f9fffb" stroke-width="0.25"/>
<path d="M 305.67 256.13 C 308.04 257.47 309.40 259.70 309.92 262.35 C 308.40 260.34 306.98 258.27 305.67 256.13 Z" fill="#bbaa3b" opacity="1.00" stroke="#bbaa3b" stroke-width="0.25"/>
<path d="M 284.84 268.97 C 289.96 270.67 293.99 275.16 296.46 279.84 C 294.97 279.60 293.49 279.32 292.02 279.02 C 290.83 280.46 289.65 281.91 288.38 283.28 C 288.04 282.96 287.36 282.32 287.02 282.01 C 288.34 280.02 289.62 278.02 290.86 275.99 C 288.69 273.81 286.01 271.93 284.84 268.97 Z" fill="#07273b" opacity="1.00" stroke="#07273b" stroke-width="0.25"/>
<path d="M 205.86 279.64 C 208.56 276.38 210.27 271.62 214.64 270.31 C 213.57 273.06 211.83 275.45 210.29 277.93 C 213.20 279.96 216.11 282.05 219.39 283.49 C 219.54 284.13 219.86 285.41 220.02 286.05 C 214.90 284.69 211.31 279.96 205.86 279.64 Z" fill="#0b263c" opacity="1.00" stroke="#0b263c" stroke-width="0.25"/>
<path d="M 242.77 294.71 C 245.68 292.79 249.35 293.61 252.63 293.37 C 253.01 296.14 253.22 298.93 253.60 301.71 C 254.04 301.95 254.92 302.45 255.37 302.69 C 255.51 299.57 255.40 296.45 255.31 293.33 C 259.92 293.42 265.25 292.40 268.70 296.29 C 268.66 298.68 269.20 301.48 267.40 303.42 C 262.64 308.91 254.41 310.36 247.68 308.16 C 244.70 306.67 241.10 304.71 240.67 301.02 C 240.17 298.77 240.61 295.95 242.77 294.71 Z" fill="#f89e87" opacity="1.00" stroke="#f89e87" stroke-width="0.25"/>
<path d="M 419.98 328.02 C 423.86 327.66 427.75 326.78 431.67 327.24 C 433.68 340.48 429.23 353.79 423.67 365.67 C 420.43 372.91 414.83 378.77 408.68 383.64 C 407.29 384.76 405.33 384.97 403.70 384.30 C 398.20 382.34 393.78 378.34 389.41 374.61 C 388.44 373.56 387.06 373.20 385.71 373.02 C 385.77 371.93 385.77 370.83 385.84 369.75 C 386.99 367.54 388.11 365.32 389.17 363.06 C 387.15 361.42 385.03 359.92 382.87 358.48 C 381.18 360.37 379.54 362.31 378.08 364.39 C 377.94 363.91 377.65 362.97 377.51 362.49 C 374.91 354.77 369.54 347.51 370.58 338.97 C 370.56 335.68 373.62 333.52 376.43 332.57 C 381.80 330.98 387.45 330.61 393.02 330.29 C 402.01 329.58 410.99 328.81 419.98 328.02 Z" fill="#022f50" opacity="1.00" stroke="#022f50" stroke-width="0.25"/>
<path d="M 275.44 353.61 C 286.14 350.27 295.39 343.59 303.42 335.94 C 306.13 347.43 308.18 359.18 308.44 371.00 C 307.80 371.20 306.53 371.61 305.89 371.81 C 303.47 372.25 301.12 372.96 298.89 373.99 L 297.84 374.43 C 297.73 370.86 298.86 367.27 298.17 363.74 C 296.25 362.30 295.70 365.12 295.52 366.40 C 291.17 390.55 286.52 414.63 281.72 438.69 C 272.54 436.84 262.68 437.92 254.46 442.59 C 252.89 443.57 251.08 443.94 249.24 443.91 C 249.04 423.52 250.93 403.20 251.76 382.85 C 252.82 374.35 252.33 365.75 253.42 357.24 C 260.79 356.33 268.50 356.70 275.44 353.61 Z" fill="#ffc908" opacity="1.00" stroke="#ffc908" stroke-width="0.25"/>
<path d="M 184.07 339.00 C 187.40 341.36 190.63 343.91 194.26 345.82 C 203.16 350.58 213.49 350.89 223.21 352.84 C 221.79 352.94 220.38 353.05 218.98 353.17 C 220.27 353.86 221.57 354.55 222.87 355.24 C 223.72 363.05 223.13 370.91 223.45 378.74 C 223.73 391.18 224.91 403.57 225.22 416.00 C 225.21 425.33 225.63 434.66 225.68 444.00 C 219.59 440.39 213.20 436.78 206.01 436.13 C 201.40 435.54 195.94 437.34 192.40 433.39 L 191.90 432.74 C 191.53 425.06 188.69 417.80 187.52 410.23 C 184.00 394.92 181.49 379.41 178.67 363.96 C 177.57 363.91 176.47 363.88 175.37 363.85 C 175.31 366.37 175.24 368.88 175.10 371.40 C 173.04 369.92 171.05 368.35 169.04 366.80 C 172.85 356.93 178.94 348.19 184.07 339.00 Z" fill="#ffc907" opacity="1.00" stroke="#ffc907" stroke-width="0.25"/>
<path d="M 218.98 353.17 C 220.38 353.05 221.79 352.94 223.21 352.84 C 223.64 353.71 224.06 354.59 224.47 355.47 C 223.89 367.31 225.05 379.12 225.47 390.93 C 225.58 402.98 226.37 415.01 226.46 427.06 C 226.55 433.73 227.44 440.37 227.13 447.05 C 221.31 443.10 215.34 438.94 208.23 437.80 C 204.13 436.69 199.87 436.99 195.73 437.68 C 195.12 437.73 193.89 437.82 193.27 437.86 C 192.99 436.36 192.73 434.87 192.40 433.39 C 195.94 437.34 201.40 435.54 206.01 436.13 C 213.20 436.78 219.59 440.39 225.68 444.00 C 225.63 434.66 225.21 425.33 225.22 416.00 C 224.91 403.57 223.73 391.18 223.45 378.74 C 223.13 370.91 223.72 363.05 222.87 355.24 C 221.57 354.55 220.27 353.86 218.98 353.17 Z" fill="#cbb53b" opacity="1.00" stroke="#cbb53b" stroke-width="0.25"/>
<path d="M 226.50 353.44 C 234.17 354.91 241.87 356.35 249.68 356.73 C 249.55 357.99 249.44 359.26 249.25 360.52 C 247.37 368.63 245.23 376.67 243.35 384.77 C 238.54 383.14 233.50 382.26 228.42 382.64 C 228.45 377.65 227.77 372.70 227.33 367.75 C 227.20 365.89 227.02 364.04 226.81 362.20 C 226.54 359.29 226.47 356.36 226.50 353.44 Z" fill="#fdfefe" opacity="1.00" stroke="#fdfefe" stroke-width="0.25"/>
<path d="M 224.47 355.47 C 225.56 357.59 226.42 359.84 226.81 362.20 C 227.02 364.04 227.20 365.89 227.33 367.75 C 226.24 373.79 226.08 379.96 226.72 386.07 C 227.81 397.02 226.74 408.06 227.88 419.00 C 228.35 423.65 228.35 428.32 228.30 432.99 C 228.10 438.47 229.94 444.22 227.29 449.38 C 220.72 445.35 214.19 440.72 206.30 439.79 C 203.17 439.11 199.96 439.28 196.82 439.74 L 195.99 439.81 C 194.55 439.27 193.14 438.66 191.72 438.06 C 191.80 436.29 191.88 434.51 191.90 432.74 L 192.40 433.39 C 192.73 434.87 192.99 436.36 193.27 437.86 C 193.89 437.82 195.12 437.73 195.73 437.68 C 199.90 437.72 204.06 437.67 208.23 437.80 C 215.34 438.94 221.31 443.10 227.13 447.05 C 227.44 440.37 226.55 433.73 226.46 427.06 C 226.37 415.01 225.58 402.98 225.47 390.93 C 225.05 379.12 223.89 367.31 224.47 355.47 Z" fill="#142c2d" opacity="1.00" stroke="#142c2d" stroke-width="0.25"/>
<path d="M 378.08 364.39 C 379.54 362.31 381.18 360.37 382.87 358.48 C 385.03 359.92 387.15 361.42 389.17 363.06 C 388.11 365.32 386.99 367.54 385.84 369.75 C 381.14 376.86 377.76 384.77 372.67 391.63 C 368.68 397.52 363.69 402.64 358.45 407.41 C 348.59 415.92 334.93 419.12 322.15 417.92 C 323.02 413.76 323.87 409.60 324.54 405.40 C 335.26 405.92 346.70 403.23 354.67 395.68 C 364.27 386.74 371.09 375.37 378.08 364.39 Z" fill="#fdc709" opacity="1.00" stroke="#fdc709" stroke-width="0.25"/>
<path d="M 249.25 360.52 C 249.94 361.57 250.79 362.62 250.70 363.97 C 250.82 371.99 250.84 380.04 249.75 388.00 C 248.70 396.31 248.77 404.68 248.61 413.03 C 247.39 424.42 247.38 435.92 246.04 447.30 C 240.97 447.22 235.90 447.32 230.83 447.19 C 230.54 452.37 230.82 457.57 230.67 462.75 C 228.86 463.53 227.01 464.29 225.02 464.39 C 225.36 463.25 225.72 462.12 226.10 461.00 C 226.48 460.88 227.25 460.63 227.63 460.51 C 227.67 456.80 227.74 453.07 227.29 449.38 C 229.94 444.22 228.10 438.47 228.30 432.99 C 228.35 428.32 228.35 423.65 227.88 419.00 C 226.74 408.06 227.81 397.02 226.72 386.07 C 226.08 379.96 226.24 373.79 227.33 367.75 C 227.77 372.70 228.45 377.65 228.42 382.64 C 233.50 382.26 238.54 383.14 243.35 384.77 C 245.23 376.67 247.37 368.63 249.25 360.52 Z" fill="#022f4f" opacity="1.00" stroke="#022f4f" stroke-width="0.25"/>
<path d="M 153.25 376.22 C 156.41 371.44 162.72 368.69 168.19 370.91 C 173.60 375.60 174.43 383.31 178.68 388.85 C 179.35 405.84 182.92 422.58 183.79 439.55 C 184.30 441.86 182.08 443.66 179.93 443.67 C 172.81 444.02 165.65 443.44 158.56 444.42 C 157.56 442.38 157.58 440.08 157.44 437.87 C 156.28 437.39 155.11 436.92 153.95 436.45 C 154.62 434.53 154.90 432.51 155.26 430.53 C 157.77 431.46 160.25 432.48 162.90 432.96 C 162.63 431.63 162.91 430.09 162.09 428.95 C 160.04 427.14 156.90 426.97 155.12 424.84 C 152.45 420.73 151.07 415.94 149.67 411.28 C 146.15 399.81 146.48 386.46 153.25 376.22 Z" fill="#fec809" opacity="1.00" stroke="#fec809" stroke-width="0.25"/>
<path d="M 298.89 373.99 C 301.12 372.96 303.47 372.25 305.89 371.81 C 305.28 372.46 304.67 373.10 304.07 373.75 C 306.07 373.75 308.08 373.75 310.09 373.76 L 310.04 374.72 C 305.30 373.87 300.63 375.52 297.19 378.80 C 297.81 377.21 298.39 375.61 298.89 373.99 Z" fill="#57581e" opacity="1.00" stroke="#57581e" stroke-width="0.25"/>
<path d="M 297.19 378.80 C 300.63 375.52 305.30 373.87 310.04 374.72 C 315.41 376.52 318.60 382.12 318.99 387.57 C 318.87 387.94 318.62 388.68 318.50 389.06 C 317.13 384.73 315.99 379.72 311.71 377.32 C 307.01 373.50 298.16 376.78 298.32 383.20 C 296.21 402.22 294.25 421.27 291.35 440.19 C 291.19 438.41 291.01 436.64 290.88 434.87 C 292.77 416.17 295.83 397.56 297.19 378.80 Z" fill="#cfb83b" opacity="1.00" stroke="#cfb83b" stroke-width="0.25"/>
<path d="M 298.32 383.20 C 298.16 376.78 307.01 373.50 311.71 377.32 C 315.99 379.72 317.13 384.73 318.50 389.06 C 318.62 388.68 318.87 387.94 318.99 387.57 L 319.24 386.83 C 322.02 400.77 320.23 415.82 313.54 428.43 C 312.14 431.68 307.69 431.02 305.66 433.68 C 305.38 434.80 305.18 435.94 305.09 437.11 C 306.85 437.17 308.41 436.33 309.98 435.63 C 312.29 435.50 314.78 435.41 316.70 436.95 C 315.02 438.43 313.04 439.47 310.89 440.06 C 310.69 442.02 310.59 443.99 310.54 445.97 C 306.03 446.51 301.47 446.32 296.94 446.27 C 294.31 446.28 292.25 444.31 290.43 442.65 C 289.98 440.07 290.17 437.38 290.88 434.87 C 291.01 436.64 291.19 438.41 291.35 440.19 C 294.25 421.27 296.21 402.22 298.32 383.20 Z" fill="#fec809" opacity="1.00" stroke="#fec809" stroke-width="0.25"/>
<path d="M 178.68 388.85 C 179.78 390.37 180.33 392.17 180.38 394.04 C 180.78 403.05 182.49 411.91 183.23 420.89 C 184.64 428.55 185.46 436.32 185.12 444.12 C 184.84 444.35 184.27 444.81 183.99 445.05 C 175.75 445.71 167.49 445.62 159.26 446.17 C 159.08 445.73 158.73 444.86 158.56 444.42 C 165.65 443.44 172.81 444.02 179.93 443.67 C 182.08 443.66 184.30 441.86 183.79 439.55 C 182.92 422.58 179.35 405.84 178.68 388.85 Z" fill="#102423" opacity="1.00" stroke="#102423" stroke-width="0.25"/>
<path d="M 137.35 444.23 C 139.19 436.12 147.21 430.76 155.26 430.53 C 154.90 432.51 154.62 434.53 153.95 436.45 C 152.49 438.73 151.62 441.29 151.42 444.00 C 150.05 444.08 148.69 444.15 147.32 444.22 C 147.19 441.68 148.40 435.60 144.13 436.70 C 142.04 438.40 141.83 441.34 141.35 443.82 C 140.02 443.96 138.68 444.10 137.35 444.23 Z" fill="#f9fdfd" opacity="1.00" stroke="#f9fdfd" stroke-width="0.25"/>
<path d="M 309.98 435.63 C 316.44 434.13 322.86 437.04 327.19 441.78 C 326.52 442.53 325.88 443.31 325.25 444.10 C 324.13 442.77 323.56 440.08 321.41 440.32 C 319.38 441.10 320.16 443.72 319.64 445.38 C 318.63 442.58 317.77 439.73 316.70 436.95 C 314.78 435.41 312.29 435.50 309.98 435.63 Z" fill="#f9fffb" opacity="1.00" stroke="#f9fffb" stroke-width="0.25"/>
<path d="M 195.73 437.68 C 199.87 436.99 204.13 436.69 208.23 437.80 C 204.06 437.67 199.90 437.72 195.73 437.68 Z" fill="#6f6613" opacity="1.00" stroke="#6f6613" stroke-width="0.25"/>
<path d="M 316.70 436.95 C 317.77 439.73 318.63 442.58 319.64 445.38 L 319.94 446.25 C 318.75 446.12 317.57 445.99 316.39 445.86 C 315.93 443.98 315.41 442.13 314.80 440.31 C 313.49 440.20 312.19 440.12 310.89 440.06 C 313.04 439.47 315.02 438.43 316.70 436.95 Z" fill="#d8be48" opacity="1.00" stroke="#d8be48" stroke-width="0.25"/>
<path d="M 196.82 439.74 C 199.96 439.28 203.17 439.11 206.30 439.79 C 203.14 439.64 199.98 439.63 196.82 439.74 Z" fill="#61778e" opacity="1.00" stroke="#61778e" stroke-width="0.25"/>
<path d="M 185.12 444.12 C 188.51 442.16 192.20 440.78 195.99 439.81 L 196.82 439.74 C 199.98 439.63 203.14 439.64 206.30 439.79 C 214.19 440.72 220.72 445.35 227.29 449.38 C 227.74 453.07 227.67 456.80 227.63 460.51 C 227.25 460.63 226.48 460.88 226.10 461.00 C 222.23 461.70 218.27 461.59 214.35 461.74 C 213.88 458.39 213.91 454.84 212.34 451.77 C 211.42 451.52 210.50 451.32 209.57 451.16 C 208.89 454.63 208.56 458.15 208.60 461.69 C 205.82 461.61 203.04 461.56 200.26 461.58 C 200.24 458.01 200.11 454.44 199.68 450.90 C 198.36 451.07 197.04 451.26 195.73 451.46 C 195.20 454.55 194.66 457.63 194.36 460.75 C 192.45 460.53 190.44 460.65 188.63 459.92 C 188.52 456.66 188.72 453.41 188.64 450.16 C 187.51 450.18 186.39 450.22 185.27 450.25 C 184.26 453.11 183.40 456.03 182.64 458.96 C 180.43 458.63 178.24 458.25 176.06 457.82 C 176.82 452.64 180.41 448.59 183.99 445.05 C 184.27 444.81 184.84 444.35 185.12 444.12 Z" fill="#fcfefd" opacity="1.00" stroke="#fcfefd" stroke-width="0.25"/>
<path d="M 248.63 450.05 C 257.51 442.31 270.03 438.36 281.60 441.53 C 289.46 444.11 297.18 450.90 297.19 459.75 C 295.65 459.72 294.13 459.73 292.60 459.73 C 292.57 456.79 291.82 453.96 290.70 451.27 C 289.59 451.24 288.48 451.23 287.37 451.22 C 287.17 454.25 287.24 457.28 287.36 460.32 C 284.87 460.38 282.38 460.42 279.90 460.39 C 279.63 457.07 280.25 453.38 278.14 450.53 C 277.48 450.74 276.16 451.17 275.50 451.38 C 274.85 454.47 274.52 457.62 274.59 460.78 C 272.24 460.81 269.88 460.80 267.54 460.74 C 267.86 457.57 267.79 454.34 266.83 451.28 C 266.18 451.28 264.88 451.26 264.23 451.25 C 263.05 454.44 262.32 457.77 262.18 461.18 C 257.68 461.33 253.17 461.55 248.69 461.11 C 248.56 457.42 248.50 453.73 248.63 450.05 Z" fill="#fcfefd" opacity="1.00" stroke="#fcfefd" stroke-width="0.25"/>
<path d="M 327.19 441.78 C 328.13 443.08 328.90 444.51 329.36 446.07 C 328.02 446.12 323.63 446.59 325.25 444.10 C 325.88 443.31 326.52 442.53 327.19 441.78 Z" fill="#c3c575" opacity="1.00" stroke="#c3c575" stroke-width="0.25"/>
<path d="M 159.26 446.17 C 167.49 445.62 175.75 445.71 183.99 445.05 C 180.41 448.59 176.82 452.64 176.06 457.82 C 178.24 458.25 180.43 458.63 182.64 458.96 C 183.40 456.03 184.26 453.11 185.27 450.25 C 186.39 450.22 187.51 450.18 188.64 450.16 C 188.72 453.41 188.52 456.66 188.63 459.92 C 190.44 460.65 192.45 460.53 194.36 460.75 C 194.66 457.63 195.20 454.55 195.73 451.46 C 197.04 451.26 198.36 451.07 199.68 450.90 C 200.11 454.44 200.24 458.01 200.26 461.58 C 203.04 461.56 205.82 461.61 208.60 461.69 C 208.56 458.15 208.89 454.63 209.57 451.16 C 210.50 451.32 211.42 451.52 212.34 451.77 C 213.91 454.84 213.88 458.39 214.35 461.74 C 218.27 461.59 222.23 461.70 226.10 461.00 C 225.72 462.12 225.36 463.25 225.02 464.39 L 224.83 465.00 C 218.58 465.50 212.31 465.93 206.04 465.56 C 195.03 464.75 183.90 463.85 173.29 460.59 C 171.66 455.48 175.09 450.78 177.44 446.54 C 170.51 446.37 163.59 446.87 156.66 446.61 C 157.31 446.50 158.61 446.28 159.26 446.17 Z" fill="#072d4b" opacity="1.00" stroke="#072d4b" stroke-width="0.25"/>
</svg>