<svg xmlns="http://www.w3.org/2000/svg" height="512pt" version="1.1" viewBox="0 0 512 512" width="512pt">
<path d="M 0.00 0.00 L 512.00 0.00 L 512.00 512.00 L 0.00 512.00 L 0.00 0.00 Z" fill="transparent" opacity="1.00" stroke="transparent" stroke-width="0.25" data-index="0" style="opacity: 1;"></path>
<path d="M 325.13 68.36 C 327.27 67.08 330.41 66.69 332.07 68.93 C 334.11 70.54 333.57 73.31 333.59 75.58 C 326.21 80.69 317.75 84.02 310.19 88.88 C 325.87 90.83 340.52 98.24 351.97 109.02 C 371.55 127.47 381.63 154.12 384.35 180.47 C 386.71 199.56 383.58 218.98 387.39 237.94 C 387.97 242.24 389.85 246.37 389.64 250.76 C 389.05 254.29 383.87 254.71 382.02 251.98 C 377.54 246.79 373.19 241.44 368.02 236.91 C 370.84 257.81 368.56 279.10 363.12 299.41 C 358.93 316.42 352.30 332.67 346.07 349.01 C 342.00 360.38 338.58 372.04 336.89 384.02 C 334.95 396.54 335.33 409.61 330.39 421.51 C 327.02 431.09 319.92 438.96 311.58 444.57 C 295.73 455.34 275.84 459.06 256.96 457.07 C 237.07 454.83 219.09 444.54 203.59 432.40 C 187.14 419.10 173.23 402.68 162.56 384.43 C 146.13 356.32 139.18 323.63 137.54 291.38 C 136.41 265.74 139.38 239.40 150.07 215.84 C 165.19 181.94 196.14 154.43 232.88 146.84 C 238.44 145.59 244.12 144.91 249.79 144.32 C 251.48 144.18 252.78 142.96 254.22 142.20 C 256.67 140.66 259.55 140.13 262.30 139.40 C 264.69 126.83 269.87 114.78 277.67 104.61 C 290.00 88.63 307.25 77.27 325.13 68.36 Z" fill="#05385f" opacity="1.00" stroke="#05385f" stroke-width="0.25" data-index="1" style="opacity: 1;"></path>
<path d="M 309.21 96.01 C 323.95 97.95 337.93 105.08 348.44 115.56 C 358.85 125.61 366.19 138.52 370.85 152.14 C 378.92 173.45 378.29 196.60 378.28 219.02 C 378.13 225.45 379.47 231.77 379.97 238.16 C 373.37 232.35 366.89 226.37 359.64 221.34 C 345.78 211.08 331.45 200.99 320.50 187.49 C 307.75 171.79 299.82 152.20 298.19 132.04 C 297.34 120.87 299.13 109.63 302.24 98.92 C 305.10 101.35 307.37 104.37 309.72 107.29 C 329.88 132.68 345.09 161.78 355.74 192.35 C 357.80 197.46 359.05 202.86 361.10 207.96 C 362.23 210.98 366.04 209.70 367.79 207.99 C 365.60 197.92 361.72 188.32 358.26 178.65 C 346.30 148.84 330.67 120.10 309.21 96.01 Z" fill="#63ce4d" opacity="1.00" stroke="#63ce4d" stroke-width="0.25" data-index="2"></path>
<path d="M 272.55 140.04 C 275.55 125.52 282.98 111.96 293.83 101.82 C 291.94 111.76 290.13 121.89 291.12 132.05 C 291.36 137.06 292.42 141.98 293.09 146.95 C 289.13 146.40 285.16 145.83 281.25 145.03 C 278.47 143.16 275.68 141.29 272.55 140.04 Z" fill="#ffffff" opacity="1.00" stroke="#ffffff" stroke-width="0.25" data-index="3" style="opacity: 1; visibility: visible;"></path>
<path d="M 223.63 156.78 C 231.93 154.35 240.40 152.25 249.05 151.66 C 250.96 151.23 251.56 153.37 252.57 154.49 C 254.68 157.79 258.73 158.88 262.33 159.65 C 269.28 161.04 277.58 160.19 282.45 154.47 C 288.40 157.64 294.41 160.91 299.14 165.82 C 301.71 170.06 303.47 174.75 306.02 179.01 C 315.24 194.65 328.78 207.19 343.19 218.01 C 348.10 250.32 345.39 284.02 333.68 314.65 C 325.76 335.29 316.31 355.81 314.10 378.07 C 312.37 389.30 315.18 401.32 309.85 411.85 C 307.02 419.00 300.81 424.22 293.62 426.66 C 274.15 433.82 252.44 431.33 233.12 424.93 C 219.55 420.87 206.88 414.36 194.73 407.18 C 190.62 404.57 186.59 401.81 182.14 399.78 C 179.02 397.58 177.35 393.92 175.12 390.92 C 155.68 362.90 147.01 328.73 145.00 295.04 C 144.25 284.30 144.17 273.46 145.49 262.76 C 147.35 238.07 156.28 213.93 171.25 194.17 C 184.96 177.38 202.82 163.44 223.63 156.78 Z" fill="#ffcb31" opacity="1.00" stroke="#ffcb31" stroke-width="0.25" data-index="4" style="opacity: 1;"></path>
<path d="M 281.55 153.92 C 286.17 152.22 291.04 154.19 295.55 155.35 C 296.86 158.80 298.14 162.26 299.14 165.82 C 294.41 160.91 288.40 157.64 282.45 154.47 L 281.55 153.92 Z" fill="#f8782f" opacity="1.00" stroke="#f8782f" stroke-width="0.25" data-index="5" style="opacity: 1;"></path>
<path d="M 215.30 188.19 C 220.97 186.59 227.36 188.40 231.63 192.38 C 234.02 195.29 235.49 199.17 235.38 202.95 C 234.00 211.79 227.29 218.27 221.89 224.91 C 211.49 235.50 202.87 248.27 198.89 262.70 C 196.35 270.63 195.47 278.99 192.72 286.86 C 191.11 291.01 187.40 294.55 182.90 295.22 C 179.14 294.92 175.55 292.25 174.40 288.60 C 173.04 284.29 172.02 279.67 172.85 275.16 C 174.27 267.12 178.05 259.75 179.73 251.77 C 182.33 241.53 181.93 230.72 185.39 220.67 C 189.94 206.26 199.91 192.04 215.30 188.19 Z" fill="#ffffff" opacity="1.00" stroke="#ffffff" stroke-width="0.25" data-index="6"></path>
<path d="M 343.19 218.01 C 348.43 222.00 354.15 225.44 359.26 229.54 C 361.04 237.91 361.83 246.47 362.28 255.00 C 361.92 280.75 354.84 305.87 345.74 329.79 C 340.01 344.42 334.18 359.16 331.41 374.70 C 329.33 384.95 328.54 395.40 327.34 405.77 C 325.98 414.54 322.95 423.33 317.23 430.23 C 308.78 439.45 297.21 445.45 285.10 448.26 C 271.68 451.75 257.32 451.05 244.12 446.94 C 235.98 444.84 228.71 440.48 221.39 436.49 C 211.63 429.82 201.83 422.97 193.88 414.12 C 189.83 409.49 184.70 405.52 182.14 399.78 C 186.59 401.81 190.62 404.57 194.73 407.18 C 206.88 414.36 219.55 420.87 233.12 424.93 C 252.44 431.33 274.15 433.82 293.62 426.66 C 300.81 424.22 307.02 419.00 309.85 411.85 C 315.18 401.32 312.37 389.30 314.10 378.07 C 316.31 355.81 325.76 335.29 333.68 314.65 C 345.39 284.02 348.10 250.32 343.19 218.01 Z" fill="#f8782f" opacity="1.00" stroke="#f8782f" stroke-width="0.25" data-index="7" style="opacity: 1;"></path>
<path d="M 169.38 308.30 C 173.14 306.03 178.73 307.95 180.39 312.03 C 180.75 314.92 181.33 318.73 178.61 320.69 C 174.79 324.66 166.84 322.46 165.94 316.94 C 164.97 313.68 166.71 310.17 169.38 308.30 Z" fill="#ffffff" opacity="1.00" stroke="#ffffff" stroke-width="0.25" data-index="8"></path>
<path d="M 170.53 339.51 C 172.50 339.56 175.29 338.42 176.51 340.60 C 178.22 342.15 176.65 344.33 175.66 345.81 C 173.97 346.59 172.19 345.65 170.51 345.39 C 170.45 343.43 170.45 341.47 170.53 339.51 Z" fill="#ffffff" opacity="1.00" stroke="#ffffff" stroke-width="0.25" data-index="9"></path>
</svg>