<?xml version="1.0" encoding="UTF-8"?>
<svg id="Layer_1" xmlns="http://www.w3.org/2000/svg" version="1.1" xmlns:xlink="http://www.w3.org/1999/xlink" viewBox="0 0 512 512">
  <!-- Generator: Adobe Illustrator 29.4.0, SVG Export Plug-In . SVG Version: 2.1.0 Build 152)  -->
  <defs>
    <style>
      .st0 {
        filter: url(#drop-shadow-9);
      }

      .st1 {
        filter: url(#drop-shadow-2);
      }

      .st2 {
        fill: #28c865;
        stroke: #91e9fe;
      }

      .st2, .st3, .st4, .st5 {
        stroke-width: 0px;
      }

      .st3 {
        fill: #063a60;
        stroke: #063a60;
      }

      .st6 {
        filter: url(#drop-shadow-6);
      }

      .st4 {
        fill: #fff;
        stroke: #fff;
      }

      .st5 {
        fill: #c82d2d;
        stroke: #fdaeb3;
      }

      .st7 {
        filter: url(#drop-shadow-5);
      }

      .st8 {
        filter: url(#drop-shadow-8);
      }

      .st9 {
        filter: url(#drop-shadow-4);
      }

      .st10 {
        filter: url(#drop-shadow-7);
      }

      .st11 {
        filter: url(#drop-shadow-1);
      }

      .st12 {
        filter: url(#drop-shadow-3);
      }
    </style>
    <filter id="drop-shadow-1" x="96" y="71" width="119" height="137" filterUnits="userSpaceOnUse">
      <feOffset dx="7" dy="7"/>
      <feGaussianBlur result="blur" stdDeviation="5"/>
      <feFlood flood-color="#000" flood-opacity=".5"/>
      <feComposite in2="blur" operator="in"/>
      <feComposite in="SourceGraphic"/>
    </filter>
    <filter id="drop-shadow-2" x="202" y="71" width="119" height="137" filterUnits="userSpaceOnUse">
      <feOffset dx="7" dy="7"/>
      <feGaussianBlur result="blur1" stdDeviation="5"/>
      <feFlood flood-color="#000" flood-opacity=".5"/>
      <feComposite in2="blur1" operator="in"/>
      <feComposite in="SourceGraphic"/>
    </filter>
    <filter id="drop-shadow-3" x="309" y="71" width="119" height="137" filterUnits="userSpaceOnUse">
      <feOffset dx="7" dy="7"/>
      <feGaussianBlur result="blur2" stdDeviation="5"/>
      <feFlood flood-color="#000" flood-opacity=".5"/>
      <feComposite in2="blur2" operator="in"/>
      <feComposite in="SourceGraphic"/>
    </filter>
    <filter id="drop-shadow-4" x="91" y="191" width="120" height="138" filterUnits="userSpaceOnUse">
      <feOffset dx="7" dy="7"/>
      <feGaussianBlur result="blur3" stdDeviation="5"/>
      <feFlood flood-color="#000" flood-opacity=".5"/>
      <feComposite in2="blur3" operator="in"/>
      <feComposite in="SourceGraphic"/>
    </filter>
    <filter id="drop-shadow-5" x="198" y="191" width="119" height="138" filterUnits="userSpaceOnUse">
      <feOffset dx="7" dy="7"/>
      <feGaussianBlur result="blur4" stdDeviation="5"/>
      <feFlood flood-color="#000" flood-opacity=".5"/>
      <feComposite in2="blur4" operator="in"/>
      <feComposite in="SourceGraphic"/>
    </filter>
    <filter id="drop-shadow-6" x="305" y="191" width="119" height="138" filterUnits="userSpaceOnUse">
      <feOffset dx="7" dy="7"/>
      <feGaussianBlur result="blur5" stdDeviation="5"/>
      <feFlood flood-color="#000" flood-opacity=".5"/>
      <feComposite in2="blur5" operator="in"/>
      <feComposite in="SourceGraphic"/>
    </filter>
    <filter id="drop-shadow-7" x="96" y="322" width="120" height="138" filterUnits="userSpaceOnUse">
      <feOffset dx="7" dy="7"/>
      <feGaussianBlur result="blur6" stdDeviation="5"/>
      <feFlood flood-color="#000" flood-opacity=".5"/>
      <feComposite in2="blur6" operator="in"/>
      <feComposite in="SourceGraphic"/>
    </filter>
    <filter id="drop-shadow-8" x="203" y="322" width="119" height="138" filterUnits="userSpaceOnUse">
      <feOffset dx="7" dy="7"/>
      <feGaussianBlur result="blur7" stdDeviation="5"/>
      <feFlood flood-color="#000" flood-opacity=".5"/>
      <feComposite in2="blur7" operator="in"/>
      <feComposite in="SourceGraphic"/>
    </filter>
    <filter id="drop-shadow-9" x="310" y="322" width="119" height="138" filterUnits="userSpaceOnUse">
      <feOffset dx="7" dy="7"/>
      <feGaussianBlur result="blur8" stdDeviation="5"/>
      <feFlood flood-color="#000" flood-opacity=".5"/>
      <feComposite in2="blur8" operator="in"/>
      <feComposite in="SourceGraphic"/>
    </filter>
  </defs>
  <g>
    <path class="st3" d="M108.8,26.4c3.6-3.4,8.8-4.9,13.7-4.8,3.2,0,6.4.7,9.6.9.8,0,1.6.1,2.4.3,0,.5.2,1,0,1.5-2.2,5-5.3,9.7-9.5,13.4-3.8,3.4-8.8,5.6-14,5.5-2.4,0-4.7-.6-6.9-1.5-.1,2.4.2,4.8.5,7.2,5.4-3.4,11.7-5.3,18.1-5.1,3.4.1,6.7.9,9.8,2.3,6.5,3,11.6,8.9,13.9,15.8,2.1,6,2,12.4,1.4,18.7-1.2,10.3-4.2,20.5-9,29.7-2.3,4.3-5,8.6-8.5,12-2.3,2.2-4.9,4.1-8,5-4.2,1.4-9.1.9-12.9-1.3-1.7-.9-3-2.7-5.1-2.8-1.9,0-3.3,1.4-4.7,2.4-3.9,2.5-9,3.2-13.5,1.7-4-1.2-7.3-4-10-7.1-4.6-5.4-7.8-11.8-10.4-18.4-3.4-8.9-5.5-18.4-5.6-28,0-6.5,1.4-13.3,5.2-18.7,3.4-4.9,8.5-8.9,14.4-10.4,6.2-1.7,13-.9,18.9,1.5,1.3.5,2.5,1.2,3.8,1.7-.2-2.7-.4-5.4-.3-8.1.2-3.5.9-7,0-10.4-.2-1-.6-1.8-.9-2.7-.2-.7.5-1.3,1.2-1.2.5,0,.7.5,1,.9.9,1.8,1.1,3.9,1.3,5.9,1-2.2,2.4-4.3,4.1-5.9Z"/>
    <path class="st2" d="M111.7,26.7c3.9-2.8,9-3.3,13.7-2.8,2.1.3,4.3.6,6.4.8-.5,1.3-1.3,2.5-2,3.7-2.5,4.1-5.7,7.7-9.8,10.2-4.3,2.5-9.9,3.2-14.6,1.2,7.1-5.2,15.2-9,23.3-12.2.7-.2,1-1.3.4-1.8-.4-.4-1-.2-1.5,0-5.5,2.2-10.8,4.6-15.9,7.5-2.3,1.3-4.5,2.8-6.7,4.2,1.1-4.1,3.1-8.3,6.7-10.7Z"/>
    <path class="st5" d="M73.3,50c4.6-3.2,10.3-4.5,15.8-3.9,4.9.4,9.5,2.2,13.7,4.7.2,1.4.7,2.8.9,4.3-2.8-.8-5.5-1.9-8-3.4-.9-.5-1.8-1.5-3-1.1-.2.6-.5,1.4.2,1.8,4.8,3.4,10.6,5.4,16.5,5.6.9,0,1.8,0,2.7-.3,0-.5,0-1,0-1.6-.9-.5-2-.4-3.1-.4-1,0-2.1-.1-3.1-.3-.4-1.5-.9-3-1-4.5,4.1-2.6,8.8-4.5,13.7-5,5.2-.7,10.7.4,15.2,3.2,5.3,3.2,9.1,8.5,10.8,14.5,1.3,4.3,1.4,8.9,1.2,13.4-.9,11.8-4.3,23.4-10,33.8-1.6,2.7-3.2,5.4-5.3,7.7-2.8,3.3-6.4,6.2-10.7,6.9-3.9.6-8.2,0-11.2-2.7-1.3-1.1-2.8-1.9-4.5-1.9-1.8,0-3.5.9-4.9,2-3.2,2.7-7.8,3.3-11.8,2.4-3.1-.7-5.7-2.5-7.9-4.6-2.3-2.2-4.3-4.8-6-7.5-6.6-10.8-10.3-23.2-11.3-35.8-.2-4.5-.2-9,1.1-13.3,1.5-5.7,5.1-10.9,10-14.2Z"/>
    <path class="st4" d="M82.2,53.2c1.4-.2,2.8-.3,4.1,0,1.3.4,1.6,2.4.5,3.2-.7.4-1.4.4-2.1.5-2.7.3-5.4,1.2-7.4,3-1.6,1.4-3.1,3.1-4,5.1-.5,1-.8,2.1-1.3,3.1-.5.8-1.7.8-2.5.4-.8-.7-.7-1.9-.4-2.8,1.2-4.5,4.2-8.7,8.4-10.8,1.5-.8,3.2-1.3,4.9-1.6Z"/>
  </g>
  <g>
    <path class="st3" d="M211.2,26.4c3.6-3.4,8.8-4.9,13.7-4.8,3.2,0,6.4.7,9.6.9.8,0,1.6.1,2.4.3,0,.5.2,1,0,1.5-2.2,5-5.3,9.7-9.5,13.4-3.8,3.4-8.8,5.6-14,5.5-2.4,0-4.7-.6-6.9-1.5-.1,2.4.2,4.8.5,7.2,5.4-3.4,11.7-5.3,18.1-5.1,3.4.1,6.7.9,9.8,2.3,6.5,3,11.6,8.9,13.9,15.8,2.1,6,2,12.4,1.4,18.7-1.2,10.3-4.2,20.5-9,29.7-2.3,4.3-5,8.6-8.5,12-2.3,2.2-4.9,4.1-8,5-4.2,1.4-9.1.9-12.9-1.3-1.7-.9-3-2.7-5.1-2.8-1.9,0-3.3,1.4-4.7,2.4-3.9,2.5-9,3.2-13.5,1.7-4-1.2-7.3-4-10-7.1-4.6-5.4-7.8-11.8-10.4-18.4-3.4-8.9-5.5-18.4-5.6-28,0-6.5,1.4-13.3,5.2-18.7,3.4-4.9,8.5-8.9,14.4-10.4,6.2-1.7,13-.9,18.9,1.5,1.3.5,2.5,1.2,3.8,1.7-.2-2.7-.4-5.4-.3-8.1.2-3.5.9-7,0-10.4-.2-1-.6-1.8-.9-2.7-.2-.7.5-1.3,1.2-1.2.5,0,.7.5,1,.9.9,1.8,1.1,3.9,1.3,5.9,1-2.2,2.4-4.3,4.1-5.9Z"/>
    <path class="st2" d="M214.2,26.7c3.9-2.8,9-3.3,13.7-2.8,2.1.3,4.3.6,6.4.8-.5,1.3-1.3,2.5-2,3.7-2.5,4.1-5.7,7.7-9.8,10.2-4.3,2.5-9.9,3.2-14.6,1.2,7.1-5.2,15.2-9,23.3-12.2.7-.2,1-1.3.4-1.8-.4-.4-1-.2-1.5,0-5.5,2.2-10.8,4.6-15.9,7.5-2.3,1.3-4.5,2.8-6.7,4.2,1.1-4.1,3.1-8.3,6.7-10.7Z"/>
    <path class="st5" d="M175.8,50c4.6-3.2,10.3-4.5,15.8-3.9,4.9.4,9.5,2.2,13.7,4.7.2,1.4.7,2.8.9,4.3-2.8-.8-5.5-1.9-8-3.4-.9-.5-1.8-1.5-3-1.1-.2.6-.5,1.4.2,1.8,4.8,3.4,10.6,5.4,16.5,5.6.9,0,1.8,0,2.7-.3,0-.5,0-1,0-1.6-.9-.5-2-.4-3.1-.4-1,0-2.1-.1-3.1-.3-.4-1.5-.9-3-1-4.5,4.1-2.6,8.8-4.5,13.7-5,5.2-.7,10.7.4,15.2,3.2,5.3,3.2,9.1,8.5,10.8,14.5,1.3,4.3,1.4,8.9,1.2,13.4-.9,11.8-4.3,23.4-10,33.8-1.6,2.7-3.2,5.4-5.3,7.7-2.8,3.3-6.4,6.2-10.7,6.9-3.9.6-8.2,0-11.2-2.7-1.3-1.1-2.8-1.9-4.5-1.9-1.8,0-3.5.9-4.9,2-3.2,2.7-7.8,3.3-11.8,2.4-3.1-.7-5.7-2.5-7.9-4.6-2.3-2.2-4.3-4.8-6-7.5-6.6-10.8-10.3-23.2-11.3-35.8-.2-4.5-.2-9,1.1-13.3,1.5-5.7,5.1-10.9,10-14.2Z"/>
    <path class="st4" d="M184.7,53.2c1.4-.2,2.8-.3,4.1,0,1.3.4,1.6,2.4.5,3.2-.7.4-1.4.4-2.1.5-2.7.3-5.4,1.2-7.4,3-1.6,1.4-3.1,3.1-4,5.1-.5,1-.8,2.1-1.3,3.1-.5.8-1.7.8-2.5.4-.8-.7-.7-1.9-.4-2.8,1.2-4.5,4.2-8.7,8.4-10.8,1.5-.8,3.2-1.3,4.9-1.6Z"/>
  </g>
  <g>
    <path class="st3" d="M313.2,26.4c3.6-3.4,8.8-4.9,13.7-4.8,3.2,0,6.4.7,9.6.9.8,0,1.6.1,2.4.3,0,.5.2,1,0,1.5-2.2,5-5.3,9.7-9.5,13.4-3.8,3.4-8.8,5.6-14,5.5-2.4,0-4.7-.6-6.9-1.5-.1,2.4.2,4.8.5,7.2,5.4-3.4,11.7-5.3,18.1-5.1,3.4.1,6.7.9,9.8,2.3,6.5,3,11.6,8.9,13.9,15.8,2.1,6,2,12.4,1.4,18.7-1.2,10.3-4.2,20.5-9,29.7-2.3,4.3-5,8.6-8.5,12-2.3,2.2-4.9,4.1-8,5-4.2,1.4-9.1.9-12.9-1.3-1.7-.9-3-2.7-5.1-2.8-1.9,0-3.3,1.4-4.7,2.4-3.9,2.5-9,3.2-13.5,1.7-4-1.2-7.3-4-10-7.1-4.6-5.4-7.8-11.8-10.4-18.4-3.4-8.9-5.5-18.4-5.6-28,0-6.5,1.4-13.3,5.2-18.7,3.4-4.9,8.5-8.9,14.4-10.4,6.2-1.7,13-.9,18.9,1.5,1.3.5,2.5,1.2,3.8,1.7-.2-2.7-.4-5.4-.3-8.1.2-3.5.9-7,0-10.4-.2-1-.6-1.8-.9-2.7-.2-.7.5-1.3,1.2-1.2.5,0,.7.5,1,.9.9,1.8,1.1,3.9,1.3,5.9,1-2.2,2.4-4.3,4.1-5.9Z"/>
    <path class="st2" d="M316.1,26.7c3.9-2.8,9-3.3,13.7-2.8,2.1.3,4.3.6,6.4.8-.5,1.3-1.3,2.5-2,3.7-2.5,4.1-5.7,7.7-9.8,10.2-4.3,2.5-9.9,3.2-14.6,1.2,7.1-5.2,15.2-9,23.3-12.2.7-.2,1-1.3.4-1.8-.4-.4-1-.2-1.5,0-5.5,2.2-10.8,4.6-15.9,7.5-2.3,1.3-4.5,2.8-6.7,4.2,1.1-4.1,3.1-8.3,6.7-10.7Z"/>
    <path class="st5" d="M277.7,50c4.6-3.2,10.3-4.5,15.8-3.9,4.9.4,9.5,2.2,13.7,4.7.2,1.4.7,2.8.9,4.3-2.8-.8-5.5-1.9-8-3.4-.9-.5-1.8-1.5-3-1.1-.2.6-.5,1.4.2,1.8,4.8,3.4,10.6,5.4,16.5,5.6.9,0,1.8,0,2.7-.3,0-.5,0-1,0-1.6-.9-.5-2-.4-3.1-.4-1,0-2.1-.1-3.1-.3-.4-1.5-.9-3-1-4.5,4.1-2.6,8.8-4.5,13.7-5,5.2-.7,10.7.4,15.2,3.2,5.3,3.2,9.1,8.5,10.8,14.5,1.3,4.3,1.4,8.9,1.2,13.4-.9,11.8-4.3,23.4-10,33.8-1.6,2.7-3.2,5.4-5.3,7.7-2.8,3.3-6.4,6.2-10.7,6.9-3.9.6-8.2,0-11.2-2.7-1.3-1.1-2.8-1.9-4.5-1.9-1.8,0-3.5.9-4.9,2-3.2,2.7-7.8,3.3-11.8,2.4-3.1-.7-5.7-2.5-7.9-4.6-2.3-2.2-4.3-4.8-6-7.5-6.6-10.8-10.3-23.2-11.3-35.8-.2-4.5-.2-9,1.1-13.3,1.5-5.7,5.1-10.9,10-14.2Z"/>
    <path class="st4" d="M286.6,53.2c1.4-.2,2.8-.3,4.1,0,1.3.4,1.6,2.4.5,3.2-.7.4-1.4.4-2.1.5-2.7.3-5.4,1.2-7.4,3-1.6,1.4-3.1,3.1-4,5.1-.5,1-.8,2.1-1.3,3.1-.5.8-1.7.8-2.5.4-.8-.7-.7-1.9-.4-2.8,1.2-4.5,4.2-8.7,8.4-10.8,1.5-.8,3.2-1.3,4.9-1.6Z"/>
  </g>
  <g>
    <path class="st3" d="M415.2,26.4c3.6-3.4,8.8-4.9,13.7-4.8,3.2,0,6.4.7,9.6.9.8,0,1.6.1,2.4.3,0,.5.2,1,0,1.5-2.2,5-5.3,9.7-9.5,13.4-3.8,3.4-8.8,5.6-14,5.5-2.4,0-4.7-.6-6.9-1.5-.1,2.4.2,4.8.5,7.2,5.4-3.4,11.7-5.3,18.1-5.1,3.4.1,6.7.9,9.8,2.3,6.5,3,11.6,8.9,13.9,15.8,2.1,6,2,12.4,1.4,18.7-1.2,10.3-4.2,20.5-9,29.7-2.3,4.3-5,8.6-8.5,12-2.3,2.2-4.9,4.1-8,5-4.2,1.4-9.1.9-12.9-1.3-1.7-.9-3-2.7-5.1-2.8-1.9,0-3.3,1.4-4.7,2.4-3.9,2.5-9,3.2-13.5,1.7-4-1.2-7.3-4-10-7.1-4.6-5.4-7.8-11.8-10.4-18.4-3.4-8.9-5.5-18.4-5.6-28,0-6.5,1.4-13.3,5.2-18.7,3.4-4.9,8.5-8.9,14.4-10.4,6.2-1.7,13-.9,18.9,1.5,1.3.5,2.5,1.2,3.8,1.7-.2-2.7-.4-5.4-.3-8.1.2-3.5.9-7,0-10.4-.2-1-.6-1.8-.9-2.7-.2-.7.5-1.3,1.2-1.2.5,0,.7.5,1,.9.9,1.8,1.1,3.9,1.3,5.9,1-2.2,2.4-4.3,4.1-5.9Z"/>
    <path class="st2" d="M418.1,26.7c3.9-2.8,9-3.3,13.7-2.8,2.1.3,4.3.6,6.4.8-.5,1.3-1.3,2.5-2,3.7-2.5,4.1-5.7,7.7-9.8,10.2-4.3,2.5-9.9,3.2-14.6,1.2,7.1-5.2,15.2-9,23.3-12.2.7-.2,1-1.3.4-1.8-.4-.4-1-.2-1.5,0-5.5,2.2-10.8,4.6-15.9,7.5-2.3,1.3-4.5,2.8-6.7,4.2,1.1-4.1,3.1-8.3,6.7-10.7Z"/>
    <path class="st5" d="M379.7,50c4.6-3.2,10.3-4.5,15.8-3.9,4.9.4,9.5,2.2,13.7,4.7.2,1.4.7,2.8.9,4.3-2.8-.8-5.5-1.9-8-3.4-.9-.5-1.8-1.5-3-1.1-.2.6-.5,1.4.2,1.8,4.8,3.4,10.6,5.4,16.5,5.6.9,0,1.8,0,2.7-.3,0-.5,0-1,0-1.6-.9-.5-2-.4-3.1-.4-1,0-2.1-.1-3.1-.3-.4-1.5-.9-3-1-4.5,4.1-2.6,8.8-4.5,13.7-5,5.2-.7,10.7.4,15.2,3.2,5.3,3.2,9.1,8.5,10.8,14.5,1.3,4.3,1.4,8.9,1.2,13.4-.9,11.8-4.3,23.4-10,33.8-1.6,2.7-3.2,5.4-5.3,7.7-2.8,3.3-6.4,6.2-10.7,6.9-3.9.6-8.2,0-11.2-2.7-1.3-1.1-2.8-1.9-4.5-1.9-1.8,0-3.5.9-4.9,2-3.2,2.7-7.8,3.3-11.8,2.4-3.1-.7-5.7-2.5-7.9-4.6-2.3-2.2-4.3-4.8-6-7.5-6.6-10.8-10.3-23.2-11.3-35.8-.2-4.5-.2-9,1.1-13.3,1.5-5.7,5.1-10.9,10-14.2Z"/>
    <path class="st4" d="M388.6,53.2c1.4-.2,2.8-.3,4.1,0,1.3.4,1.6,2.4.5,3.2-.7.4-1.4.4-2.1.5-2.7.3-5.4,1.2-7.4,3-1.6,1.4-3.1,3.1-4,5.1-.5,1-.8,2.1-1.3,3.1-.5.8-1.7.8-2.5.4-.8-.7-.7-1.9-.4-2.8,1.2-4.5,4.2-8.7,8.4-10.8,1.5-.8,3.2-1.3,4.9-1.6Z"/>
  </g>
  <g>
    <path class="st3" d="M106.2,151.4c3.6-3.4,8.8-4.9,13.7-4.8,3.2,0,6.4.7,9.6.9.8,0,1.6.1,2.4.3,0,.5.2,1,0,1.5-2.2,5-5.3,9.7-9.5,13.4-3.8,3.4-8.8,5.6-14,5.5-2.4,0-4.7-.6-6.9-1.5-.1,2.4.2,4.8.5,7.2,5.4-3.4,11.7-5.3,18.1-5.1,3.4.1,6.7.9,9.8,2.3,6.5,3,11.6,8.9,13.9,15.8,2.1,6,2,12.4,1.4,18.7-1.2,10.3-4.2,20.5-9,29.7-2.3,4.3-5,8.6-8.5,12-2.3,2.2-4.9,4.1-8,5-4.2,1.4-9.1.9-12.9-1.3-1.7-.9-3-2.7-5.1-2.8-1.9,0-3.3,1.4-4.7,2.4-3.9,2.5-9,3.2-13.5,1.7-4-1.2-7.3-4-10-7.1-4.6-5.4-7.8-11.8-10.4-18.4-3.4-8.9-5.5-18.4-5.6-28,0-6.5,1.4-13.3,5.2-18.7,3.4-4.9,8.5-8.9,14.4-10.4,6.2-1.7,13-.9,18.9,1.5,1.3.5,2.5,1.2,3.8,1.7-.2-2.7-.4-5.4-.3-8.1.2-3.5.9-7,0-10.4-.2-1-.6-1.8-.9-2.7-.2-.7.5-1.3,1.2-1.2.5,0,.7.5,1,.9.9,1.8,1.1,3.9,1.3,5.9,1-2.2,2.4-4.3,4.1-5.9Z"/>
    <path class="st2" d="M109.2,151.7c3.9-2.8,9-3.3,13.7-2.8,2.1.3,4.3.6,6.4.8-.5,1.3-1.3,2.5-2,3.7-2.5,4.1-5.7,7.7-9.8,10.2-4.3,2.5-9.9,3.2-14.6,1.2,7.1-5.2,15.2-9,23.3-12.2.7-.2,1-1.3.4-1.8-.4-.4-1-.2-1.5,0-5.5,2.2-10.8,4.6-15.9,7.5-2.3,1.3-4.5,2.8-6.7,4.2,1.1-4.1,3.1-8.3,6.7-10.7Z"/>
    <path class="st5" d="M70.8,175c4.6-3.2,10.3-4.5,15.8-3.9,4.9.4,9.5,2.2,13.7,4.7.2,1.4.7,2.8.9,4.3-2.8-.8-5.5-1.9-8-3.4-.9-.5-1.8-1.5-3-1.1-.2.6-.5,1.4.2,1.8,4.8,3.4,10.6,5.4,16.5,5.6.9,0,1.8,0,2.7-.3,0-.5,0-1,0-1.6-.9-.5-2-.4-3.1-.4-1,0-2.1-.1-3.1-.3-.4-1.5-.9-3-1-4.5,4.1-2.6,8.8-4.5,13.7-5,5.2-.7,10.7.4,15.2,3.2,5.3,3.2,9.1,8.5,10.8,14.5,1.3,4.3,1.4,8.9,1.2,13.4-.9,11.8-4.3,23.4-10,33.8-1.6,2.7-3.2,5.4-5.3,7.7-2.8,3.3-6.4,6.2-10.7,6.9-3.9.6-8.2,0-11.2-2.7-1.3-1.1-2.8-1.9-4.5-1.9-1.8,0-3.5.9-4.9,2-3.2,2.7-7.8,3.3-11.8,2.4-3.1-.7-5.7-2.5-7.9-4.6-2.3-2.2-4.3-4.8-6-7.5-6.6-10.8-10.3-23.2-11.3-35.8-.2-4.5-.2-9,1.1-13.3,1.5-5.7,5.1-10.9,10-14.2Z"/>
    <path class="st4" d="M79.6,178.2c1.4-.2,2.8-.3,4.1,0,1.3.4,1.6,2.4.5,3.2-.7.4-1.4.4-2.1.5-2.7.3-5.4,1.2-7.4,3-1.6,1.4-3.1,3.1-4,5.1-.5,1-.8,2.1-1.3,3.1-.5.8-1.7.8-2.5.4-.8-.7-.7-1.9-.4-2.8,1.2-4.5,4.2-8.7,8.4-10.8,1.5-.8,3.2-1.3,4.9-1.6Z"/>
  </g>
  <g>
    <path class="st3" d="M208.6,151.4c3.6-3.4,8.8-4.9,13.7-4.8,3.2,0,6.4.7,9.6.9.8,0,1.6.1,2.4.3,0,.5.2,1,0,1.5-2.2,5-5.3,9.7-9.5,13.4-3.8,3.4-8.8,5.6-14,5.5-2.4,0-4.7-.6-6.9-1.5-.1,2.4.2,4.8.5,7.2,5.4-3.4,11.7-5.3,18.1-5.1,3.4.1,6.7.9,9.8,2.3,6.5,3,11.6,8.9,13.9,15.8,2.1,6,2,12.4,1.4,18.7-1.2,10.3-4.2,20.5-9,29.7-2.3,4.3-5,8.6-8.5,12-2.3,2.2-4.9,4.1-8,5-4.2,1.4-9.1.9-12.9-1.3-1.7-.9-3-2.7-5.1-2.8-1.9,0-3.3,1.4-4.7,2.4-3.9,2.5-9,3.2-13.5,1.7-4-1.2-7.3-4-10-7.1-4.6-5.4-7.8-11.8-10.4-18.4-3.4-8.9-5.5-18.4-5.6-28,0-6.5,1.4-13.3,5.2-18.7,3.4-4.9,8.5-8.9,14.4-10.4,6.2-1.7,13-.9,18.9,1.5,1.3.5,2.5,1.2,3.8,1.7-.2-2.7-.4-5.4-.3-8.1.2-3.5.9-7,0-10.4-.2-1-.6-1.8-.9-2.7-.2-.7.5-1.3,1.2-1.2.5,0,.7.5,1,.9.9,1.8,1.1,3.9,1.3,5.9,1-2.2,2.4-4.3,4.1-5.9Z"/>
    <path class="st2" d="M211.6,151.7c3.9-2.8,9-3.3,13.7-2.8,2.1.3,4.3.6,6.4.8-.5,1.3-1.3,2.5-2,3.7-2.5,4.1-5.7,7.7-9.8,10.2-4.3,2.5-9.9,3.2-14.6,1.2,7.1-5.2,15.2-9,23.3-12.2.7-.2,1-1.3.4-1.8-.4-.4-1-.2-1.5,0-5.5,2.2-10.8,4.6-15.9,7.5-2.3,1.3-4.5,2.8-6.7,4.2,1.1-4.1,3.1-8.3,6.7-10.7Z"/>
    <path class="st5" d="M173.2,175c4.6-3.2,10.3-4.5,15.8-3.9,4.9.4,9.5,2.2,13.7,4.7.2,1.4.7,2.8.9,4.3-2.8-.8-5.5-1.9-8-3.4-.9-.5-1.8-1.5-3-1.1-.2.6-.5,1.4.2,1.8,4.8,3.4,10.6,5.4,16.5,5.6.9,0,1.8,0,2.7-.3,0-.5,0-1,0-1.6-.9-.5-2-.4-3.1-.4-1,0-2.1-.1-3.1-.3-.4-1.5-.9-3-1-4.5,4.1-2.6,8.8-4.5,13.7-5,5.2-.7,10.7.4,15.2,3.2,5.3,3.2,9.1,8.5,10.8,14.5,1.3,4.3,1.4,8.9,1.2,13.4-.9,11.8-4.3,23.4-10,33.8-1.6,2.7-3.2,5.4-5.3,7.7-2.8,3.3-6.4,6.2-10.7,6.9-3.9.6-8.2,0-11.2-2.7-1.3-1.1-2.8-1.9-4.5-1.9-1.8,0-3.5.9-4.9,2-3.2,2.7-7.8,3.3-11.8,2.4-3.1-.7-5.7-2.5-7.9-4.6-2.3-2.2-4.3-4.8-6-7.5-6.6-10.8-10.3-23.2-11.3-35.8-.2-4.5-.2-9,1.1-13.3,1.5-5.7,5.1-10.9,10-14.2Z"/>
    <path class="st4" d="M182.1,178.2c1.4-.2,2.8-.3,4.1,0,1.3.4,1.6,2.4.5,3.2-.7.4-1.4.4-2.1.5-2.7.3-5.4,1.2-7.4,3-1.6,1.4-3.1,3.1-4,5.1-.5,1-.8,2.1-1.3,3.1-.5.8-1.7.8-2.5.4-.8-.7-.7-1.9-.4-2.8,1.2-4.5,4.2-8.7,8.4-10.8,1.5-.8,3.2-1.3,4.9-1.6Z"/>
  </g>
  <g>
    <path class="st3" d="M310.6,151.4c3.6-3.4,8.8-4.9,13.7-4.8,3.2,0,6.4.7,9.6.9.8,0,1.6.1,2.4.3,0,.5.2,1,0,1.5-2.2,5-5.3,9.7-9.5,13.4-3.8,3.4-8.8,5.6-14,5.5-2.4,0-4.7-.6-6.9-1.5-.1,2.4.2,4.8.5,7.2,5.4-3.4,11.7-5.3,18.1-5.1,3.4.1,6.7.9,9.8,2.3,6.5,3,11.6,8.9,13.9,15.8,2.1,6,2,12.4,1.4,18.7-1.2,10.3-4.2,20.5-9,29.7-2.3,4.3-5,8.6-8.5,12-2.3,2.2-4.9,4.1-8,5-4.2,1.4-9.1.9-12.9-1.3-1.7-.9-3-2.7-5.1-2.8-1.9,0-3.3,1.4-4.7,2.4-3.9,2.5-9,3.2-13.5,1.7-4-1.2-7.3-4-10-7.1-4.6-5.4-7.8-11.8-10.4-18.4-3.4-8.9-5.5-18.4-5.6-28,0-6.5,1.4-13.3,5.2-18.7,3.4-4.9,8.5-8.9,14.4-10.4,6.2-1.7,13-.9,18.9,1.5,1.3.5,2.5,1.2,3.8,1.7-.2-2.7-.4-5.4-.3-8.1.2-3.5.9-7,0-10.4-.2-1-.6-1.8-.9-2.7-.2-.7.5-1.3,1.2-1.2.5,0,.7.5,1,.9.9,1.8,1.1,3.9,1.3,5.9,1-2.2,2.4-4.3,4.1-5.9Z"/>
    <path class="st2" d="M313.6,151.7c3.9-2.8,9-3.3,13.7-2.8,2.1.3,4.3.6,6.4.8-.5,1.3-1.3,2.5-2,3.7-2.5,4.1-5.7,7.7-9.8,10.2-4.3,2.5-9.9,3.2-14.6,1.2,7.1-5.2,15.2-9,23.3-12.2.7-.2,1-1.3.4-1.8-.4-.4-1-.2-1.5,0-5.5,2.2-10.8,4.6-15.9,7.5-2.3,1.3-4.5,2.8-6.7,4.2,1.1-4.1,3.1-8.3,6.7-10.7Z"/>
    <path class="st5" d="M275.2,175c4.6-3.2,10.3-4.5,15.8-3.9,4.9.4,9.5,2.2,13.7,4.7.2,1.4.7,2.8.9,4.3-2.8-.8-5.5-1.9-8-3.4-.9-.5-1.8-1.5-3-1.1-.2.6-.5,1.4.2,1.8,4.8,3.4,10.6,5.4,16.5,5.6.9,0,1.8,0,2.7-.3,0-.5,0-1,0-1.6-.9-.5-2-.4-3.1-.4-1,0-2.1-.1-3.1-.3-.4-1.5-.9-3-1-4.5,4.1-2.6,8.8-4.5,13.7-5,5.2-.7,10.7.4,15.2,3.2,5.3,3.2,9.1,8.5,10.8,14.5,1.3,4.3,1.4,8.9,1.2,13.4-.9,11.8-4.3,23.4-10,33.8-1.6,2.7-3.2,5.4-5.3,7.7-2.8,3.3-6.4,6.2-10.7,6.9-3.9.6-8.2,0-11.2-2.7-1.3-1.1-2.8-1.9-4.5-1.9-1.8,0-3.5.9-4.9,2-3.2,2.7-7.8,3.3-11.8,2.4-3.1-.7-5.7-2.5-7.9-4.6-2.3-2.2-4.3-4.8-6-7.5-6.6-10.8-10.3-23.2-11.3-35.8-.2-4.5-.2-9,1.1-13.3,1.5-5.7,5.1-10.9,10-14.2Z"/>
    <path class="st4" d="M284.1,178.2c1.4-.2,2.8-.3,4.1,0,1.3.4,1.6,2.4.5,3.2-.7.4-1.4.4-2.1.5-2.7.3-5.4,1.2-7.4,3-1.6,1.4-3.1,3.1-4,5.1-.5,1-.8,2.1-1.3,3.1-.5.8-1.7.8-2.5.4-.8-.7-.7-1.9-.4-2.8,1.2-4.5,4.2-8.7,8.4-10.8,1.5-.8,3.2-1.3,4.9-1.6Z"/>
  </g>
  <g>
    <path class="st3" d="M412.6,151.4c3.6-3.4,8.8-4.9,13.7-4.8,3.2,0,6.4.7,9.6.9.8,0,1.6.1,2.4.3,0,.5.2,1,0,1.5-2.2,5-5.3,9.7-9.5,13.4-3.8,3.4-8.8,5.6-14,5.5-2.4,0-4.7-.6-6.9-1.5-.1,2.4.2,4.8.5,7.2,5.4-3.4,11.7-5.3,18.1-5.1,3.4.1,6.7.9,9.8,2.3,6.5,3,11.6,8.9,13.9,15.8,2.1,6,2,12.4,1.4,18.7-1.2,10.3-4.2,20.5-9,29.7-2.3,4.3-5,8.6-8.5,12-2.3,2.2-4.9,4.1-8,5-4.2,1.4-9.1.9-12.9-1.3-1.7-.9-3-2.7-5.1-2.8-1.9,0-3.3,1.4-4.7,2.4-3.9,2.5-9,3.2-13.5,1.7-4-1.2-7.3-4-10-7.1-4.6-5.4-7.8-11.8-10.4-18.4-3.4-8.9-5.5-18.4-5.6-28,0-6.5,1.4-13.3,5.2-18.7,3.4-4.9,8.5-8.9,14.4-10.4,6.2-1.7,13-.9,18.9,1.5,1.3.5,2.5,1.2,3.8,1.7-.2-2.7-.4-5.4-.3-8.1.2-3.5.9-7,0-10.4-.2-1-.6-1.8-.9-2.7-.2-.7.5-1.3,1.2-1.2.5,0,.7.5,1,.9.9,1.8,1.1,3.9,1.3,5.9,1-2.2,2.4-4.3,4.1-5.9Z"/>
    <path class="st2" d="M415.5,151.7c3.9-2.8,9-3.3,13.7-2.8,2.1.3,4.3.6,6.4.8-.5,1.3-1.3,2.5-2,3.7-2.5,4.1-5.7,7.7-9.8,10.2-4.3,2.5-9.9,3.2-14.6,1.2,7.1-5.2,15.2-9,23.3-12.2.7-.2,1-1.3.4-1.8-.4-.4-1-.2-1.5,0-5.5,2.2-10.8,4.6-15.9,7.5-2.3,1.3-4.5,2.8-6.7,4.2,1.1-4.1,3.1-8.3,6.7-10.7Z"/>
    <path class="st5" d="M377.1,175c4.6-3.2,10.3-4.5,15.8-3.9,4.9.4,9.5,2.2,13.7,4.7.2,1.4.7,2.8.9,4.3-2.8-.8-5.5-1.9-8-3.4-.9-.5-1.8-1.5-3-1.1-.2.6-.5,1.4.2,1.8,4.8,3.4,10.6,5.4,16.5,5.6.9,0,1.8,0,2.7-.3,0-.5,0-1,0-1.6-.9-.5-2-.4-3.1-.4-1,0-2.1-.1-3.1-.3-.4-1.5-.9-3-1-4.5,4.1-2.6,8.8-4.5,13.7-5,5.2-.7,10.7.4,15.2,3.2,5.3,3.2,9.1,8.5,10.8,14.5,1.3,4.3,1.4,8.9,1.2,13.4-.9,11.8-4.3,23.4-10,33.8-1.6,2.7-3.2,5.4-5.3,7.7-2.8,3.3-6.4,6.2-10.7,6.9-3.9.6-8.2,0-11.2-2.7-1.3-1.1-2.8-1.9-4.5-1.9-1.8,0-3.5.9-4.9,2-3.2,2.7-7.8,3.3-11.8,2.4-3.1-.7-5.7-2.5-7.9-4.6-2.3-2.2-4.3-4.8-6-7.5-6.6-10.8-10.3-23.2-11.3-35.8-.2-4.5-.2-9,1.1-13.3,1.5-5.7,5.1-10.9,10-14.2Z"/>
    <path class="st4" d="M386,178.2c1.4-.2,2.8-.3,4.1,0,1.3.4,1.6,2.4.5,3.2-.7.4-1.4.4-2.1.5-2.7.3-5.4,1.2-7.4,3-1.6,1.4-3.1,3.1-4,5.1-.5,1-.8,2.1-1.3,3.1-.5.8-1.7.8-2.5.4-.8-.7-.7-1.9-.4-2.8,1.2-4.5,4.2-8.7,8.4-10.8,1.5-.8,3.2-1.3,4.9-1.6Z"/>
  </g>
  <g>
    <path class="st3" d="M108.8,263.7c3.6-3.4,8.8-4.9,13.7-4.8,3.2,0,6.4.7,9.6.9.8,0,1.6.1,2.4.3,0,.5.2,1,0,1.5-2.2,5-5.3,9.7-9.5,13.4-3.8,3.4-8.8,5.6-14,5.5-2.4,0-4.7-.6-6.9-1.5-.1,2.4.2,4.8.5,7.2,5.4-3.4,11.7-5.3,18.1-5.1,3.4.1,6.7.9,9.8,2.3,6.5,3,11.6,8.9,13.9,15.8,2.1,6,2,12.4,1.4,18.7-1.2,10.3-4.2,20.5-9,29.7-2.3,4.3-5,8.6-8.5,12-2.3,2.2-4.9,4.1-8,5-4.2,1.4-9.1.9-12.9-1.3-1.7-.9-3-2.7-5.1-2.8-1.9,0-3.3,1.4-4.7,2.4-3.9,2.5-9,3.2-13.5,1.7-4-1.2-7.3-4-10-7.1-4.6-5.4-7.8-11.8-10.4-18.4-3.4-8.9-5.5-18.4-5.6-28,0-6.5,1.4-13.3,5.2-18.7,3.4-4.9,8.5-8.9,14.4-10.4,6.2-1.7,13-.9,18.9,1.5,1.3.5,2.5,1.2,3.8,1.7-.2-2.7-.4-5.4-.3-8.1.2-3.5.9-7,0-10.4-.2-1-.6-1.8-.9-2.7-.2-.7.5-1.3,1.2-1.2.5,0,.7.5,1,.9.9,1.8,1.1,3.9,1.3,5.9,1-2.2,2.4-4.3,4.1-5.9Z"/>
    <path class="st2" d="M111.7,264c3.9-2.8,9-3.3,13.7-2.8,2.1.3,4.3.6,6.4.8-.5,1.3-1.3,2.5-2,3.7-2.5,4.1-5.7,7.7-9.8,10.2-4.3,2.5-9.9,3.2-14.6,1.2,7.1-5.2,15.2-9,23.3-12.2.7-.2,1-1.3.4-1.8-.4-.4-1-.2-1.5,0-5.5,2.2-10.8,4.6-15.9,7.5-2.3,1.3-4.5,2.8-6.7,4.2,1.1-4.1,3.1-8.3,6.7-10.7Z"/>
    <path class="st5" d="M73.3,287.3c4.6-3.2,10.3-4.5,15.8-3.9,4.9.4,9.5,2.2,13.7,4.7.2,1.4.7,2.8.9,4.3-2.8-.8-5.5-1.9-8-3.4-.9-.5-1.8-1.5-3-1.1-.2.6-.5,1.4.2,1.8,4.8,3.4,10.6,5.4,16.5,5.6.9,0,1.8,0,2.7-.3,0-.5,0-1,0-1.6-.9-.5-2-.4-3.1-.4-1,0-2.1-.1-3.1-.3-.4-1.5-.9-3-1-4.5,4.1-2.6,8.8-4.5,13.7-5,5.2-.7,10.7.4,15.2,3.2,5.3,3.2,9.1,8.5,10.8,14.5,1.3,4.3,1.4,8.9,1.2,13.4-.9,11.8-4.3,23.4-10,33.8-1.6,2.7-3.2,5.4-5.3,7.7-2.8,3.3-6.4,6.2-10.7,6.9-3.9.6-8.2,0-11.2-2.7-1.3-1.1-2.8-1.9-4.5-1.9-1.8,0-3.5.9-4.9,2-3.2,2.7-7.8,3.3-11.8,2.4-3.1-.7-5.7-2.5-7.9-4.6-2.3-2.2-4.3-4.8-6-7.5-6.6-10.8-10.3-23.2-11.3-35.8-.2-4.5-.2-9,1.1-13.3,1.5-5.7,5.1-10.9,10-14.2Z"/>
    <path class="st4" d="M82.2,290.5c1.4-.2,2.8-.3,4.1,0,1.3.4,1.6,2.4.5,3.2-.7.4-1.4.4-2.1.5-2.7.3-5.4,1.2-7.4,3-1.6,1.4-3.1,3.1-4,5.1-.5,1-.8,2.1-1.3,3.1-.5.8-1.7.8-2.5.4-.8-.7-.7-1.9-.4-2.8,1.2-4.5,4.2-8.7,8.4-10.8,1.5-.8,3.2-1.3,4.9-1.6Z"/>
  </g>
  <g>
    <path class="st3" d="M211.2,263.7c3.6-3.4,8.8-4.9,13.7-4.8,3.2,0,6.4.7,9.6.9.8,0,1.6.1,2.4.3,0,.5.2,1,0,1.5-2.2,5-5.3,9.7-9.5,13.4-3.8,3.4-8.8,5.6-14,5.5-2.4,0-4.7-.6-6.9-1.5-.1,2.4.2,4.8.5,7.2,5.4-3.4,11.7-5.3,18.1-5.1,3.4.1,6.7.9,9.8,2.3,6.5,3,11.6,8.9,13.9,15.8,2.1,6,2,12.4,1.4,18.7-1.2,10.3-4.2,20.5-9,29.7-2.3,4.3-5,8.6-8.5,12-2.3,2.2-4.9,4.1-8,5-4.2,1.4-9.1.9-12.9-1.3-1.7-.9-3-2.7-5.1-2.8-1.9,0-3.3,1.4-4.7,2.4-3.9,2.5-9,3.2-13.5,1.7-4-1.2-7.3-4-10-7.1-4.6-5.4-7.8-11.8-10.4-18.4-3.4-8.9-5.5-18.4-5.6-28,0-6.5,1.4-13.3,5.2-18.7,3.4-4.9,8.5-8.9,14.4-10.4,6.2-1.7,13-.9,18.9,1.5,1.3.5,2.5,1.2,3.8,1.7-.2-2.7-.4-5.4-.3-8.1.2-3.5.9-7,0-10.4-.2-1-.6-1.8-.9-2.7-.2-.7.5-1.3,1.2-1.2.5,0,.7.5,1,.9.9,1.8,1.1,3.9,1.3,5.9,1-2.2,2.4-4.3,4.1-5.9Z"/>
    <path class="st2" d="M214.2,264c3.9-2.8,9-3.3,13.7-2.8,2.1.3,4.3.6,6.4.8-.5,1.3-1.3,2.5-2,3.7-2.5,4.1-5.7,7.7-9.8,10.2-4.3,2.5-9.9,3.2-14.6,1.2,7.1-5.2,15.2-9,23.3-12.2.7-.2,1-1.3.4-1.8-.4-.4-1-.2-1.5,0-5.5,2.2-10.8,4.6-15.9,7.5-2.3,1.3-4.5,2.8-6.7,4.2,1.1-4.1,3.1-8.3,6.7-10.7Z"/>
    <path class="st5" d="M175.8,287.3c4.6-3.2,10.3-4.5,15.8-3.9,4.9.4,9.5,2.2,13.7,4.7.2,1.4.7,2.8.9,4.3-2.8-.8-5.5-1.9-8-3.4-.9-.5-1.8-1.5-3-1.1-.2.6-.5,1.4.2,1.8,4.8,3.4,10.6,5.4,16.5,5.6.9,0,1.8,0,2.7-.3,0-.5,0-1,0-1.6-.9-.5-2-.4-3.1-.4-1,0-2.1-.1-3.1-.3-.4-1.5-.9-3-1-4.5,4.1-2.6,8.8-4.5,13.7-5,5.2-.7,10.7.4,15.2,3.2,5.3,3.2,9.1,8.5,10.8,14.5,1.3,4.3,1.4,8.9,1.2,13.4-.9,11.8-4.3,23.4-10,33.8-1.6,2.7-3.2,5.4-5.3,7.7-2.8,3.3-6.4,6.2-10.7,6.9-3.9.6-8.2,0-11.2-2.7-1.3-1.1-2.8-1.9-4.5-1.9-1.8,0-3.5.9-4.9,2-3.2,2.7-7.8,3.3-11.8,2.4-3.1-.7-5.7-2.5-7.9-4.6-2.3-2.2-4.3-4.8-6-7.5-6.6-10.8-10.3-23.2-11.3-35.8-.2-4.5-.2-9,1.1-13.3,1.5-5.7,5.1-10.9,10-14.2Z"/>
    <path class="st4" d="M184.7,290.5c1.4-.2,2.8-.3,4.1,0,1.3.4,1.6,2.4.5,3.2-.7.4-1.4.4-2.1.5-2.7.3-5.4,1.2-7.4,3-1.6,1.4-3.1,3.1-4,5.1-.5,1-.8,2.1-1.3,3.1-.5.8-1.7.8-2.5.4-.8-.7-.7-1.9-.4-2.8,1.2-4.5,4.2-8.7,8.4-10.8,1.5-.8,3.2-1.3,4.9-1.6Z"/>
  </g>
  <g>
    <path class="st3" d="M313.2,263.7c3.6-3.4,8.8-4.9,13.7-4.8,3.2,0,6.4.7,9.6.9.8,0,1.6.1,2.4.3,0,.5.2,1,0,1.5-2.2,5-5.3,9.7-9.5,13.4-3.8,3.4-8.8,5.6-14,5.5-2.4,0-4.7-.6-6.9-1.5-.1,2.4.2,4.8.5,7.2,5.4-3.4,11.7-5.3,18.1-5.1,3.4.1,6.7.9,9.8,2.3,6.5,3,11.6,8.9,13.9,15.8,2.1,6,2,12.4,1.4,18.7-1.2,10.3-4.2,20.5-9,29.7-2.3,4.3-5,8.6-8.5,12-2.3,2.2-4.9,4.1-8,5-4.2,1.4-9.1.9-12.9-1.3-1.7-.9-3-2.7-5.1-2.8-1.9,0-3.3,1.4-4.7,2.4-3.9,2.5-9,3.2-13.5,1.7-4-1.2-7.3-4-10-7.1-4.6-5.4-7.8-11.8-10.4-18.4-3.4-8.9-5.5-18.4-5.6-28,0-6.5,1.4-13.3,5.2-18.7,3.4-4.9,8.5-8.9,14.4-10.4,6.2-1.7,13-.9,18.9,1.5,1.3.5,2.5,1.2,3.8,1.7-.2-2.7-.4-5.4-.3-8.1.2-3.5.9-7,0-10.4-.2-1-.6-1.8-.9-2.7-.2-.7.5-1.3,1.2-1.2.5,0,.7.5,1,.9.9,1.8,1.1,3.9,1.3,5.9,1-2.2,2.4-4.3,4.1-5.9Z"/>
    <path class="st2" d="M316.1,264c3.9-2.8,9-3.3,13.7-2.8,2.1.3,4.3.6,6.4.8-.5,1.3-1.3,2.5-2,3.7-2.5,4.1-5.7,7.7-9.8,10.2-4.3,2.5-9.9,3.2-14.6,1.2,7.1-5.2,15.2-9,23.3-12.2.7-.2,1-1.3.4-1.8-.4-.4-1-.2-1.5,0-5.5,2.2-10.8,4.6-15.9,7.5-2.3,1.3-4.5,2.8-6.7,4.2,1.1-4.1,3.1-8.3,6.7-10.7Z"/>
    <path class="st5" d="M277.7,287.3c4.6-3.2,10.3-4.5,15.8-3.9,4.9.4,9.5,2.2,13.7,4.7.2,1.4.7,2.8.9,4.3-2.8-.8-5.5-1.9-8-3.4-.9-.5-1.8-1.5-3-1.1-.2.6-.5,1.4.2,1.8,4.8,3.4,10.6,5.4,16.5,5.6.9,0,1.8,0,2.7-.3,0-.5,0-1,0-1.6-.9-.5-2-.4-3.1-.4-1,0-2.1-.1-3.1-.3-.4-1.5-.9-3-1-4.5,4.1-2.6,8.8-4.5,13.7-5,5.2-.7,10.7.4,15.2,3.2,5.3,3.2,9.1,8.5,10.8,14.5,1.3,4.3,1.4,8.9,1.2,13.4-.9,11.8-4.3,23.4-10,33.8-1.6,2.7-3.2,5.4-5.3,7.7-2.8,3.3-6.4,6.2-10.7,6.9-3.9.6-8.2,0-11.2-2.7-1.3-1.1-2.8-1.9-4.5-1.9-1.8,0-3.5.9-4.9,2-3.2,2.7-7.8,3.3-11.8,2.4-3.1-.7-5.7-2.5-7.9-4.6-2.3-2.2-4.3-4.8-6-7.5-6.6-10.8-10.3-23.2-11.3-35.8-.2-4.5-.2-9,1.1-13.3,1.5-5.7,5.1-10.9,10-14.2Z"/>
    <path class="st4" d="M286.6,290.5c1.4-.2,2.8-.3,4.1,0,1.3.4,1.6,2.4.5,3.2-.7.4-1.4.4-2.1.5-2.7.3-5.4,1.2-7.4,3-1.6,1.4-3.1,3.1-4,5.1-.5,1-.8,2.1-1.3,3.1-.5.8-1.7.8-2.5.4-.8-.7-.7-1.9-.4-2.8,1.2-4.5,4.2-8.7,8.4-10.8,1.5-.8,3.2-1.3,4.9-1.6Z"/>
  </g>
  <g>
    <path class="st3" d="M415.2,263.7c3.6-3.4,8.8-4.9,13.7-4.8,3.2,0,6.4.7,9.6.9.8,0,1.6.1,2.4.3,0,.5.2,1,0,1.5-2.2,5-5.3,9.7-9.5,13.4-3.8,3.4-8.8,5.6-14,5.5-2.4,0-4.7-.6-6.9-1.5-.1,2.4.2,4.8.5,7.2,5.4-3.4,11.7-5.3,18.1-5.1,3.4.1,6.7.9,9.8,2.3,6.5,3,11.6,8.9,13.9,15.8,2.1,6,2,12.4,1.4,18.7-1.2,10.3-4.2,20.5-9,29.7-2.3,4.3-5,8.6-8.5,12-2.3,2.2-4.9,4.1-8,5-4.2,1.4-9.1.9-12.9-1.3-1.7-.9-3-2.7-5.1-2.8-1.9,0-3.3,1.4-4.7,2.4-3.9,2.5-9,3.2-13.5,1.7-4-1.2-7.3-4-10-7.1-4.6-5.4-7.8-11.8-10.4-18.4-3.4-8.9-5.5-18.4-5.6-28,0-6.5,1.4-13.3,5.2-18.7,3.4-4.9,8.5-8.9,14.4-10.4,6.2-1.7,13-.9,18.9,1.5,1.3.5,2.5,1.2,3.8,1.7-.2-2.7-.4-5.4-.3-8.1.2-3.5.9-7,0-10.4-.2-1-.6-1.8-.9-2.7-.2-.7.5-1.3,1.2-1.2.5,0,.7.5,1,.9.9,1.8,1.1,3.9,1.3,5.9,1-2.2,2.4-4.3,4.1-5.9Z"/>
    <path class="st2" d="M418.1,264c3.9-2.8,9-3.3,13.7-2.8,2.1.3,4.3.6,6.4.8-.5,1.3-1.3,2.5-2,3.7-2.5,4.1-5.7,7.7-9.8,10.2-4.3,2.5-9.9,3.2-14.6,1.2,7.1-5.2,15.2-9,23.3-12.2.7-.2,1-1.3.4-1.8-.4-.4-1-.2-1.5,0-5.5,2.2-10.8,4.6-15.9,7.5-2.3,1.3-4.5,2.8-6.7,4.2,1.1-4.1,3.1-8.3,6.7-10.7Z"/>
    <path class="st5" d="M379.7,287.3c4.6-3.2,10.3-4.5,15.8-3.9,4.9.4,9.5,2.2,13.7,4.7.2,1.4.7,2.8.9,4.3-2.8-.8-5.5-1.9-8-3.4-.9-.5-1.8-1.5-3-1.1-.2.6-.5,1.4.2,1.8,4.8,3.4,10.6,5.4,16.5,5.6.9,0,1.8,0,2.7-.3,0-.5,0-1,0-1.6-.9-.5-2-.4-3.1-.4-1,0-2.1-.1-3.1-.3-.4-1.5-.9-3-1-4.5,4.1-2.6,8.8-4.5,13.7-5,5.2-.7,10.7.4,15.2,3.2,5.3,3.2,9.1,8.5,10.8,14.5,1.3,4.3,1.4,8.9,1.2,13.4-.9,11.8-4.3,23.4-10,33.8-1.6,2.7-3.2,5.4-5.3,7.7-2.8,3.3-6.4,6.2-10.7,6.9-3.9.6-8.2,0-11.2-2.7-1.3-1.1-2.8-1.9-4.5-1.9-1.8,0-3.5.9-4.9,2-3.2,2.7-7.8,3.3-11.8,2.4-3.1-.7-5.7-2.5-7.9-4.6-2.3-2.2-4.3-4.8-6-7.5-6.6-10.8-10.3-23.2-11.3-35.8-.2-4.5-.2-9,1.1-13.3,1.5-5.7,5.1-10.9,10-14.2Z"/>
    <path class="st4" d="M388.6,290.5c1.4-.2,2.8-.3,4.1,0,1.3.4,1.6,2.4.5,3.2-.7.4-1.4.4-2.1.5-2.7.3-5.4,1.2-7.4,3-1.6,1.4-3.1,3.1-4,5.1-.5,1-.8,2.1-1.3,3.1-.5.8-1.7.8-2.5.4-.8-.7-.7-1.9-.4-2.8,1.2-4.5,4.2-8.7,8.4-10.8,1.5-.8,3.2-1.3,4.9-1.6Z"/>
  </g>
  <g>
    <path class="st3" d="M106.2,388.7c3.6-3.4,8.8-4.9,13.7-4.8,3.2,0,6.4.7,9.6.9.8,0,1.6.1,2.4.3,0,.5.2,1,0,1.5-2.2,5-5.3,9.7-9.5,13.4-3.8,3.4-8.8,5.6-14,5.5-2.4,0-4.7-.6-6.9-1.5-.1,2.4.2,4.8.5,7.2,5.4-3.4,11.7-5.3,18.1-5.1,3.4.1,6.7.9,9.8,2.3,6.5,3,11.6,8.9,13.9,15.8,2.1,6,2,12.4,1.4,18.7-1.2,10.3-4.2,20.5-9,29.7-2.3,4.3-5,8.6-8.5,12-2.3,2.2-4.9,4.1-8,5-4.2,1.4-9.1.9-12.9-1.3-1.7-.9-3-2.7-5.1-2.8-1.9,0-3.3,1.4-4.7,2.4-3.9,2.5-9,3.2-13.5,1.7-4-1.2-7.3-4-10-7.1-4.6-5.4-7.8-11.8-10.4-18.4-3.4-8.9-5.5-18.4-5.6-28,0-6.5,1.4-13.3,5.2-18.7,3.4-4.9,8.5-8.9,14.4-10.4,6.2-1.7,13-.9,18.9,1.5,1.3.5,2.5,1.2,3.8,1.7-.2-2.7-.4-5.4-.3-8.1.2-3.5.9-7,0-10.4-.2-1-.6-1.8-.9-2.7-.2-.7.5-1.3,1.2-1.2.5,0,.7.5,1,.9.9,1.8,1.1,3.9,1.3,5.9,1-2.2,2.4-4.3,4.1-5.9Z"/>
    <path class="st2" d="M109.2,389c3.9-2.8,9-3.3,13.7-2.8,2.1.3,4.3.6,6.4.8-.5,1.3-1.3,2.5-2,3.7-2.5,4.1-5.7,7.7-9.8,10.2-4.3,2.5-9.9,3.2-14.6,1.2,7.1-5.2,15.2-9,23.3-12.2.7-.2,1-1.3.4-1.8-.4-.4-1-.2-1.5,0-5.5,2.2-10.8,4.6-15.9,7.5-2.3,1.3-4.5,2.8-6.7,4.2,1.1-4.1,3.1-8.3,6.7-10.7Z"/>
    <path class="st5" d="M70.8,412.3c4.6-3.2,10.3-4.5,15.8-3.9,4.9.4,9.5,2.2,13.7,4.7.2,1.4.7,2.8.9,4.3-2.8-.8-5.5-1.9-8-3.4-.9-.5-1.8-1.5-3-1.1-.2.6-.5,1.4.2,1.8,4.8,3.4,10.6,5.4,16.5,5.6.9,0,1.8,0,2.7-.3,0-.5,0-1,0-1.6-.9-.5-2-.4-3.1-.4-1,0-2.1-.1-3.1-.3-.4-1.5-.9-3-1-4.5,4.1-2.6,8.8-4.5,13.7-5,5.2-.7,10.7.4,15.2,3.2,5.3,3.2,9.1,8.5,10.8,14.5,1.3,4.3,1.4,8.9,1.2,13.4-.9,11.8-4.3,23.4-10,33.8-1.6,2.7-3.2,5.4-5.3,7.7-2.8,3.3-6.4,6.2-10.7,6.9-3.9.6-8.2,0-11.2-2.7-1.3-1.1-2.8-1.9-4.5-1.9-1.8,0-3.5.9-4.9,2-3.2,2.7-7.8,3.3-11.8,2.4-3.1-.7-5.7-2.5-7.9-4.6-2.3-2.2-4.3-4.8-6-7.5-6.6-10.8-10.3-23.2-11.3-35.8-.2-4.5-.2-9,1.1-13.3,1.5-5.7,5.1-10.9,10-14.2Z"/>
    <path class="st4" d="M79.6,415.5c1.4-.2,2.8-.3,4.1,0,1.3.4,1.6,2.4.5,3.2-.7.4-1.4.4-2.1.5-2.7.3-5.4,1.2-7.4,3-1.6,1.4-3.1,3.1-4,5.1-.5,1-.8,2.1-1.3,3.1-.5.8-1.7.8-2.5.4-.8-.7-.7-1.9-.4-2.8,1.2-4.5,4.2-8.7,8.4-10.8,1.5-.8,3.2-1.3,4.9-1.6Z"/>
  </g>
  <g>
    <path class="st3" d="M208.6,388.7c3.6-3.4,8.8-4.9,13.7-4.8,3.2,0,6.4.7,9.6.9.8,0,1.6.1,2.4.3,0,.5.2,1,0,1.5-2.2,5-5.3,9.7-9.5,13.4-3.8,3.4-8.8,5.6-14,5.5-2.4,0-4.7-.6-6.9-1.5-.1,2.4.2,4.8.5,7.2,5.4-3.4,11.7-5.3,18.1-5.1,3.4.1,6.7.9,9.8,2.3,6.5,3,11.6,8.9,13.9,15.8,2.1,6,2,12.4,1.4,18.7-1.2,10.3-4.2,20.5-9,29.7-2.3,4.3-5,8.6-8.5,12-2.3,2.2-4.9,4.1-8,5-4.2,1.4-9.1.9-12.9-1.3-1.7-.9-3-2.7-5.1-2.8-1.9,0-3.3,1.4-4.7,2.4-3.9,2.5-9,3.2-13.5,1.7-4-1.2-7.3-4-10-7.1-4.6-5.4-7.8-11.8-10.4-18.4-3.4-8.9-5.5-18.4-5.6-28,0-6.5,1.4-13.3,5.2-18.7,3.4-4.9,8.5-8.9,14.4-10.4,6.2-1.7,13-.9,18.9,1.5,1.3.5,2.5,1.2,3.8,1.7-.2-2.7-.4-5.4-.3-8.1.2-3.5.9-7,0-10.4-.2-1-.6-1.8-.9-2.7-.2-.7.5-1.3,1.2-1.2.5,0,.7.5,1,.9.9,1.8,1.1,3.9,1.3,5.9,1-2.2,2.4-4.3,4.1-5.9Z"/>
    <path class="st2" d="M211.6,389c3.9-2.8,9-3.3,13.7-2.8,2.1.3,4.3.6,6.4.8-.5,1.3-1.3,2.5-2,3.7-2.5,4.1-5.7,7.7-9.8,10.2-4.3,2.5-9.9,3.2-14.6,1.2,7.1-5.2,15.2-9,23.3-12.2.7-.2,1-1.3.4-1.8-.4-.4-1-.2-1.5,0-5.5,2.2-10.8,4.6-15.9,7.5-2.3,1.3-4.5,2.8-6.7,4.2,1.1-4.1,3.1-8.3,6.7-10.7Z"/>
    <path class="st5" d="M173.2,412.3c4.6-3.2,10.3-4.5,15.8-3.9,4.9.4,9.5,2.2,13.7,4.7.2,1.4.7,2.8.9,4.3-2.8-.8-5.5-1.9-8-3.4-.9-.5-1.8-1.5-3-1.1-.2.6-.5,1.4.2,1.8,4.8,3.4,10.6,5.4,16.5,5.6.9,0,1.8,0,2.7-.3,0-.5,0-1,0-1.6-.9-.5-2-.4-3.1-.4-1,0-2.1-.1-3.1-.3-.4-1.5-.9-3-1-4.5,4.1-2.6,8.8-4.5,13.7-5,5.2-.7,10.7.4,15.2,3.2,5.3,3.2,9.1,8.5,10.8,14.5,1.3,4.3,1.4,8.9,1.2,13.4-.9,11.8-4.3,23.4-10,33.8-1.6,2.7-3.2,5.4-5.3,7.7-2.8,3.3-6.4,6.2-10.7,6.9-3.9.6-8.2,0-11.2-2.7-1.3-1.1-2.8-1.9-4.5-1.9-1.8,0-3.5.9-4.9,2-3.2,2.7-7.8,3.3-11.8,2.4-3.1-.7-5.7-2.5-7.9-4.6-2.3-2.2-4.3-4.8-6-7.5-6.6-10.8-10.3-23.2-11.3-35.8-.2-4.5-.2-9,1.1-13.3,1.5-5.7,5.1-10.9,10-14.2Z"/>
    <path class="st4" d="M182.1,415.5c1.4-.2,2.8-.3,4.1,0,1.3.4,1.6,2.4.5,3.2-.7.4-1.4.4-2.1.5-2.7.3-5.4,1.2-7.4,3-1.6,1.4-3.1,3.1-4,5.1-.5,1-.8,2.1-1.3,3.1-.5.8-1.7.8-2.5.4-.8-.7-.7-1.9-.4-2.8,1.2-4.5,4.2-8.7,8.4-10.8,1.5-.8,3.2-1.3,4.9-1.6Z"/>
  </g>
  <g>
    <path class="st3" d="M310.6,388.7c3.6-3.4,8.8-4.9,13.7-4.8,3.2,0,6.4.7,9.6.9.8,0,1.6.1,2.4.3,0,.5.2,1,0,1.5-2.2,5-5.3,9.7-9.5,13.4-3.8,3.4-8.8,5.6-14,5.5-2.4,0-4.7-.6-6.9-1.5-.1,2.4.2,4.8.5,7.2,5.4-3.4,11.7-5.3,18.1-5.1,3.4.1,6.7.9,9.8,2.3,6.5,3,11.6,8.9,13.9,15.8,2.1,6,2,12.4,1.4,18.7-1.2,10.3-4.2,20.5-9,29.7-2.3,4.3-5,8.6-8.5,12-2.3,2.2-4.9,4.1-8,5-4.2,1.4-9.1.9-12.9-1.3-1.7-.9-3-2.7-5.1-2.8-1.9,0-3.3,1.4-4.7,2.4-3.9,2.5-9,3.2-13.5,1.7-4-1.2-7.3-4-10-7.1-4.6-5.4-7.8-11.8-10.4-18.4-3.4-8.9-5.5-18.4-5.6-28,0-6.5,1.4-13.3,5.2-18.7,3.4-4.9,8.5-8.9,14.4-10.4,6.2-1.7,13-.9,18.9,1.5,1.3.5,2.5,1.2,3.8,1.7-.2-2.7-.4-5.4-.3-8.1.2-3.5.9-7,0-10.4-.2-1-.6-1.8-.9-2.7-.2-.7.5-1.3,1.2-1.2.5,0,.7.5,1,.9.9,1.8,1.1,3.9,1.3,5.9,1-2.2,2.4-4.3,4.1-5.9Z"/>
    <path class="st2" d="M313.6,389c3.9-2.8,9-3.3,13.7-2.8,2.1.3,4.3.6,6.4.8-.5,1.3-1.3,2.5-2,3.7-2.5,4.1-5.7,7.7-9.8,10.2-4.3,2.5-9.9,3.2-14.6,1.2,7.1-5.2,15.2-9,23.3-12.2.7-.2,1-1.3.4-1.8-.4-.4-1-.2-1.5,0-5.5,2.2-10.8,4.6-15.9,7.5-2.3,1.3-4.5,2.8-6.7,4.2,1.1-4.1,3.1-8.3,6.7-10.7Z"/>
    <path class="st5" d="M275.2,412.3c4.6-3.2,10.3-4.5,15.8-3.9,4.9.4,9.5,2.2,13.7,4.7.2,1.4.7,2.8.9,4.3-2.8-.8-5.5-1.9-8-3.4-.9-.5-1.8-1.5-3-1.1-.2.6-.5,1.4.2,1.8,4.8,3.4,10.6,5.4,16.5,5.6.9,0,1.8,0,2.7-.3,0-.5,0-1,0-1.6-.9-.5-2-.4-3.1-.4-1,0-2.1-.1-3.1-.3-.4-1.5-.9-3-1-4.5,4.1-2.6,8.8-4.5,13.7-5,5.2-.7,10.7.4,15.2,3.2,5.3,3.2,9.1,8.5,10.8,14.5,1.3,4.3,1.4,8.9,1.2,13.4-.9,11.8-4.3,23.4-10,33.8-1.6,2.7-3.2,5.4-5.3,7.7-2.8,3.3-6.4,6.2-10.7,6.9-3.9.6-8.2,0-11.2-2.7-1.3-1.1-2.8-1.9-4.5-1.9-1.8,0-3.5.9-4.9,2-3.2,2.7-7.8,3.3-11.8,2.4-3.1-.7-5.7-2.5-7.9-4.6-2.3-2.2-4.3-4.8-6-7.5-6.6-10.8-10.3-23.2-11.3-35.8-.2-4.5-.2-9,1.1-13.3,1.5-5.7,5.1-10.9,10-14.2Z"/>
    <path class="st4" d="M284.1,415.5c1.4-.2,2.8-.3,4.1,0,1.3.4,1.6,2.4.5,3.2-.7.4-1.4.4-2.1.5-2.7.3-5.4,1.2-7.4,3-1.6,1.4-3.1,3.1-4,5.1-.5,1-.8,2.1-1.3,3.1-.5.8-1.7.8-2.5.4-.8-.7-.7-1.9-.4-2.8,1.2-4.5,4.2-8.7,8.4-10.8,1.5-.8,3.2-1.3,4.9-1.6Z"/>
  </g>
  <g>
    <path class="st3" d="M412.6,388.7c3.6-3.4,8.8-4.9,13.7-4.8,3.2,0,6.4.7,9.6.9.8,0,1.6.1,2.4.3,0,.5.2,1,0,1.5-2.2,5-5.3,9.7-9.5,13.4-3.8,3.4-8.8,5.6-14,5.5-2.4,0-4.7-.6-6.9-1.5-.1,2.4.2,4.8.5,7.2,5.4-3.4,11.7-5.3,18.1-5.1,3.4.1,6.7.9,9.8,2.3,6.5,3,11.6,8.9,13.9,15.8,2.1,6,2,12.4,1.4,18.7-1.2,10.3-4.2,20.5-9,29.7-2.3,4.3-5,8.6-8.5,12-2.3,2.2-4.9,4.1-8,5-4.2,1.4-9.1.9-12.9-1.3-1.7-.9-3-2.7-5.1-2.8-1.9,0-3.3,1.4-4.7,2.4-3.9,2.5-9,3.2-13.5,1.7-4-1.2-7.3-4-10-7.1-4.6-5.4-7.8-11.8-10.4-18.4-3.4-8.9-5.5-18.4-5.6-28,0-6.5,1.4-13.3,5.2-18.7,3.4-4.9,8.5-8.9,14.4-10.4,6.2-1.7,13-.9,18.9,1.5,1.3.5,2.5,1.2,3.8,1.7-.2-2.7-.4-5.4-.3-8.1.2-3.5.9-7,0-10.4-.2-1-.6-1.8-.9-2.7-.2-.7.5-1.3,1.2-1.2.5,0,.7.5,1,.9.9,1.8,1.1,3.9,1.3,5.9,1-2.2,2.4-4.3,4.1-5.9Z"/>
    <path class="st2" d="M415.5,389c3.9-2.8,9-3.3,13.7-2.8,2.1.3,4.3.6,6.4.8-.5,1.3-1.3,2.5-2,3.7-2.5,4.1-5.7,7.7-9.8,10.2-4.3,2.5-9.9,3.2-14.6,1.2,7.1-5.2,15.2-9,23.3-12.2.7-.2,1-1.3.4-1.8-.4-.4-1-.2-1.5,0-5.5,2.2-10.8,4.6-15.9,7.5-2.3,1.3-4.5,2.8-6.7,4.2,1.1-4.1,3.1-8.3,6.7-10.7Z"/>
    <path class="st5" d="M377.1,412.3c4.6-3.2,10.3-4.5,15.8-3.9,4.9.4,9.5,2.2,13.7,4.7.2,1.4.7,2.8.9,4.3-2.8-.8-5.5-1.9-8-3.4-.9-.5-1.8-1.5-3-1.1-.2.6-.5,1.4.2,1.8,4.8,3.4,10.6,5.4,16.5,5.6.9,0,1.8,0,2.7-.3,0-.5,0-1,0-1.6-.9-.5-2-.4-3.1-.4-1,0-2.1-.1-3.1-.3-.4-1.5-.9-3-1-4.5,4.1-2.6,8.8-4.5,13.7-5,5.2-.7,10.7.4,15.2,3.2,5.3,3.2,9.1,8.5,10.8,14.5,1.3,4.3,1.4,8.9,1.2,13.4-.9,11.8-4.3,23.4-10,33.8-1.6,2.7-3.2,5.4-5.3,7.7-2.8,3.3-6.4,6.2-10.7,6.9-3.9.6-8.2,0-11.2-2.7-1.3-1.1-2.8-1.9-4.5-1.9-1.8,0-3.5.9-4.9,2-3.2,2.7-7.8,3.3-11.8,2.4-3.1-.7-5.7-2.5-7.9-4.6-2.3-2.2-4.3-4.8-6-7.5-6.6-10.8-10.3-23.2-11.3-35.8-.2-4.5-.2-9,1.1-13.3,1.5-5.7,5.1-10.9,10-14.2Z"/>
    <path class="st4" d="M386,415.5c1.4-.2,2.8-.3,4.1,0,1.3.4,1.6,2.4.5,3.2-.7.4-1.4.4-2.1.5-2.7.3-5.4,1.2-7.4,3-1.6,1.4-3.1,3.1-4,5.1-.5,1-.8,2.1-1.3,3.1-.5.8-1.7.8-2.5.4-.8-.7-.7-1.9-.4-2.8,1.2-4.5,4.2-8.7,8.4-10.8,1.5-.8,3.2-1.3,4.9-1.6Z"/>
  </g>
  <g class="st11">
    <path class="st3" d="M152.9,84.1c3.6-3.4,8.8-4.9,13.7-4.8,3.2,0,6.4.7,9.6.9.8,0,1.6.1,2.4.3,0,.5.2,1,0,1.5-2.2,5-5.3,9.7-9.5,13.4-3.8,3.4-8.8,5.6-14,5.5-2.4,0-4.7-.6-6.9-1.5-.1,2.4.2,4.8.5,7.2,5.4-3.4,11.7-5.3,18.1-5.1,3.4.1,6.7.9,9.8,2.3,6.5,3,11.6,8.9,13.9,15.8,2.1,6,2,12.4,1.4,18.7-1.2,10.3-4.2,20.5-9,29.7-2.3,4.3-5,8.6-8.5,12-2.3,2.2-4.9,4.1-8,5-4.2,1.4-9.1.9-12.9-1.3-1.7-.9-3-2.7-5.1-2.8-1.9,0-3.3,1.4-4.7,2.4-3.9,2.5-9,3.2-13.5,1.7-4-1.2-7.3-4-10-7.1-4.6-5.4-7.8-11.8-10.4-18.4-3.4-8.9-5.5-18.4-5.6-28,0-6.5,1.4-13.3,5.2-18.7,3.4-4.9,8.5-8.9,14.4-10.4,6.2-1.7,13-.9,18.9,1.5,1.3.5,2.5,1.2,3.8,1.7-.2-2.7-.4-5.4-.3-8.1.2-3.5.9-7,0-10.4-.2-1-.6-1.8-.9-2.7-.2-.7.5-1.3,1.2-1.2.5,0,.7.5,1,.9.9,1.8,1.1,3.9,1.3,5.9,1-2.2,2.4-4.3,4.1-5.9Z"/>
    <path class="st2" d="M155.8,84.4c3.9-2.8,9-3.3,13.7-2.8,2.1.3,4.3.6,6.4.8-.5,1.3-1.3,2.5-2,3.7-2.5,4.1-5.7,7.7-9.8,10.2-4.3,2.5-9.9,3.2-14.6,1.2,7.1-5.2,15.2-9,23.3-12.2.7-.2,1-1.3.4-1.8-.4-.4-1-.2-1.5,0-5.5,2.2-10.8,4.6-15.9,7.5-2.3,1.3-4.5,2.8-6.7,4.2,1.1-4.1,3.1-8.3,6.7-10.7Z"/>
    <path class="st5" d="M117.4,107.7c4.6-3.2,10.3-4.5,15.8-3.9,4.9.4,9.5,2.2,13.7,4.7.2,1.4.7,2.8.9,4.3-2.8-.8-5.5-1.9-8-3.4-.9-.5-1.8-1.5-3-1.1-.2.6-.5,1.4.2,1.8,4.8,3.4,10.6,5.4,16.5,5.6.9,0,1.8,0,2.7-.3,0-.5,0-1,0-1.6-.9-.5-2-.4-3.1-.4-1,0-2.1-.1-3.1-.3-.4-1.5-.9-3-1-4.5,4.1-2.6,8.8-4.5,13.7-5,5.2-.7,10.7.4,15.2,3.2,5.3,3.2,9.1,8.5,10.8,14.5,1.3,4.3,1.4,8.9,1.2,13.4-.9,11.8-4.3,23.4-10,33.8-1.6,2.7-3.2,5.4-5.3,7.7-2.8,3.3-6.4,6.2-10.7,6.9-3.9.6-8.2,0-11.2-2.7-1.3-1.1-2.8-1.9-4.5-1.9-1.8,0-3.5.9-4.9,2-3.2,2.7-7.8,3.3-11.8,2.4-3.1-.7-5.7-2.5-7.9-4.6-2.3-2.2-4.3-4.8-6-7.5-6.6-10.8-10.3-23.2-11.3-35.8-.2-4.5-.2-9,1.1-13.3,1.5-5.7,5.1-10.9,10-14.2Z"/>
    <path class="st4" d="M126.3,110.9c1.4-.2,2.8-.3,4.1,0,1.3.4,1.6,2.4.5,3.2-.7.4-1.4.4-2.1.5-2.7.3-5.4,1.2-7.4,3-1.6,1.4-3.1,3.1-4,5.1-.5,1-.8,2.1-1.3,3.1-.5.8-1.7.8-2.5.4-.8-.7-.7-1.9-.4-2.8,1.2-4.5,4.2-8.7,8.4-10.8,1.5-.8,3.2-1.3,4.9-1.6Z"/>
  </g>
  <g class="st1">
    <path class="st3" d="M259.4,84.1c3.6-3.4,8.8-4.9,13.7-4.8,3.2,0,6.4.7,9.6.9.8,0,1.6.1,2.4.3,0,.5.2,1,0,1.5-2.2,5-5.3,9.7-9.5,13.4-3.8,3.4-8.8,5.6-14,5.5-2.4,0-4.7-.6-6.9-1.5-.1,2.4.2,4.8.5,7.2,5.4-3.4,11.7-5.3,18.1-5.1,3.4.1,6.7.9,9.8,2.3,6.5,3,11.6,8.9,13.9,15.8,2.1,6,2,12.4,1.4,18.7-1.2,10.3-4.2,20.5-9,29.7-2.3,4.3-5,8.6-8.5,12-2.3,2.2-4.9,4.1-8,5-4.2,1.4-9.1.9-12.9-1.3-1.7-.9-3-2.7-5.1-2.8-1.9,0-3.3,1.4-4.7,2.4-3.9,2.5-9,3.2-13.5,1.7-4-1.2-7.3-4-10-7.1-4.6-5.4-7.8-11.8-10.4-18.4-3.4-8.9-5.5-18.4-5.6-28,0-6.5,1.4-13.3,5.2-18.7,3.4-4.9,8.5-8.9,14.4-10.4,6.2-1.7,13-.9,18.9,1.5,1.3.5,2.5,1.2,3.8,1.7-.2-2.7-.4-5.4-.3-8.1.2-3.5.9-7,0-10.4-.2-1-.6-1.8-.9-2.7-.2-.7.5-1.3,1.2-1.2.5,0,.7.5,1,.9.9,1.8,1.1,3.9,1.3,5.9,1-2.2,2.4-4.3,4.1-5.9Z"/>
    <path class="st2" d="M262.3,84.4c3.9-2.8,9-3.3,13.7-2.8,2.1.3,4.3.6,6.4.8-.5,1.3-1.3,2.5-2,3.7-2.5,4.1-5.7,7.7-9.8,10.2-4.3,2.5-9.9,3.2-14.6,1.2,7.1-5.2,15.2-9,23.3-12.2.7-.2,1-1.3.4-1.8-.4-.4-1-.2-1.5,0-5.5,2.2-10.8,4.6-15.9,7.5-2.3,1.3-4.5,2.8-6.7,4.2,1.1-4.1,3.1-8.3,6.7-10.7Z"/>
    <path class="st5" d="M223.9,107.7c4.6-3.2,10.3-4.5,15.8-3.9,4.9.4,9.5,2.2,13.7,4.7.2,1.4.7,2.8.9,4.3-2.8-.8-5.5-1.9-8-3.4-.9-.5-1.8-1.5-3-1.1-.2.6-.5,1.4.2,1.8,4.8,3.4,10.6,5.4,16.5,5.6.9,0,1.8,0,2.7-.3,0-.5,0-1,0-1.6-.9-.5-2-.4-3.1-.4-1,0-2.1-.1-3.1-.3-.4-1.5-.9-3-1-4.5,4.1-2.6,8.8-4.5,13.7-5,5.2-.7,10.7.4,15.2,3.2,5.3,3.2,9.1,8.5,10.8,14.5,1.3,4.3,1.4,8.9,1.2,13.4-.9,11.8-4.3,23.4-10,33.8-1.6,2.7-3.2,5.4-5.3,7.7-2.8,3.3-6.4,6.2-10.7,6.9-3.9.6-8.2,0-11.2-2.7-1.3-1.1-2.8-1.9-4.5-1.9-1.8,0-3.5.9-4.9,2-3.2,2.7-7.8,3.3-11.8,2.4-3.1-.7-5.7-2.5-7.9-4.6-2.3-2.2-4.3-4.8-6-7.5-6.6-10.8-10.3-23.2-11.3-35.8-.2-4.5-.2-9,1.1-13.3,1.5-5.7,5.1-10.9,10-14.2Z"/>
    <path class="st4" d="M232.8,110.9c1.4-.2,2.8-.3,4.1,0,1.3.4,1.6,2.4.5,3.2-.7.4-1.4.4-2.1.5-2.7.3-5.4,1.2-7.4,3-1.6,1.4-3.1,3.1-4,5.1-.5,1-.8,2.1-1.3,3.1-.5.8-1.7.8-2.5.4-.8-.7-.7-1.9-.4-2.8,1.2-4.5,4.2-8.7,8.4-10.8,1.5-.8,3.2-1.3,4.9-1.6Z"/>
  </g>
  <g class="st12">
    <path class="st3" d="M365.9,84.1c3.6-3.4,8.8-4.9,13.7-4.8,3.2,0,6.4.7,9.6.9.8,0,1.6.1,2.4.3,0,.5.2,1,0,1.5-2.2,5-5.3,9.7-9.5,13.4-3.8,3.4-8.8,5.6-14,5.5-2.4,0-4.7-.6-6.9-1.5-.1,2.4.2,4.8.5,7.2,5.4-3.4,11.7-5.3,18.1-5.1,3.4.1,6.7.9,9.8,2.3,6.5,3,11.6,8.9,13.9,15.8,2.1,6,2,12.4,1.4,18.7-1.2,10.3-4.2,20.5-9,29.7-2.3,4.3-5,8.6-8.5,12-2.3,2.2-4.9,4.1-8,5-4.2,1.4-9.1.9-12.9-1.3-1.7-.9-3-2.7-5.1-2.8-1.9,0-3.3,1.4-4.7,2.4-3.9,2.5-9,3.2-13.5,1.7-4-1.2-7.3-4-10-7.1-4.6-5.4-7.8-11.8-10.4-18.4-3.4-8.9-5.5-18.4-5.6-28,0-6.5,1.4-13.3,5.2-18.7,3.4-4.9,8.5-8.9,14.4-10.4,6.2-1.7,13-.9,18.9,1.5,1.3.5,2.5,1.2,3.8,1.7-.2-2.7-.4-5.4-.3-8.1.2-3.5.9-7,0-10.4-.2-1-.6-1.8-.9-2.7-.2-.7.5-1.3,1.2-1.2.5,0,.7.5,1,.9.9,1.8,1.1,3.9,1.3,5.9,1-2.2,2.4-4.3,4.1-5.9Z"/>
    <path class="st2" d="M368.9,84.4c3.9-2.8,9-3.3,13.7-2.8,2.1.3,4.3.6,6.4.8-.5,1.3-1.3,2.5-2,3.7-2.5,4.1-5.7,7.7-9.8,10.2-4.3,2.5-9.9,3.2-14.6,1.2,7.1-5.2,15.2-9,23.3-12.2.7-.2,1-1.3.4-1.8-.4-.4-1-.2-1.5,0-5.5,2.2-10.8,4.6-15.9,7.5-2.3,1.3-4.5,2.8-6.7,4.2,1.1-4.1,3.1-8.3,6.7-10.7Z"/>
    <path class="st5" d="M330.5,107.7c4.6-3.2,10.3-4.5,15.8-3.9,4.9.4,9.5,2.2,13.7,4.7.2,1.4.7,2.8.9,4.3-2.8-.8-5.5-1.9-8-3.4-.9-.5-1.8-1.5-3-1.1-.2.6-.5,1.4.2,1.8,4.8,3.4,10.6,5.4,16.5,5.6.9,0,1.8,0,2.7-.3,0-.5,0-1,0-1.6-.9-.5-2-.4-3.1-.4-1,0-2.1-.1-3.1-.3-.4-1.5-.9-3-1-4.5,4.1-2.6,8.8-4.5,13.7-5,5.2-.7,10.7.4,15.2,3.2,5.3,3.2,9.1,8.5,10.8,14.5,1.3,4.3,1.4,8.9,1.2,13.4-.9,11.8-4.3,23.4-10,33.8-1.6,2.7-3.2,5.4-5.3,7.7-2.8,3.3-6.4,6.2-10.7,6.9-3.9.6-8.2,0-11.2-2.7-1.3-1.1-2.8-1.9-4.5-1.9-1.8,0-3.5.9-4.9,2-3.2,2.7-7.8,3.3-11.8,2.4-3.1-.7-5.7-2.5-7.9-4.6-2.3-2.2-4.3-4.8-6-7.5-6.6-10.8-10.3-23.2-11.3-35.8-.2-4.5-.2-9,1.1-13.3,1.5-5.7,5.1-10.9,10-14.2Z"/>
    <path class="st4" d="M339.4,110.9c1.4-.2,2.8-.3,4.1,0,1.3.4,1.6,2.4.5,3.2-.7.4-1.4.4-2.1.5-2.7.3-5.4,1.2-7.4,3-1.6,1.4-3.1,3.1-4,5.1-.5,1-.8,2.1-1.3,3.1-.5.8-1.7.8-2.5.4-.8-.7-.7-1.9-.4-2.8,1.2-4.5,4.2-8.7,8.4-10.8,1.5-.8,3.2-1.3,4.9-1.6Z"/>
  </g>
  <g class="st9">
    <path class="st3" d="M148.7,204.6c3.6-3.4,8.8-4.9,13.7-4.8,3.2,0,6.4.7,9.6.9.8,0,1.6.1,2.4.3,0,.5.2,1,0,1.5-2.2,5-5.3,9.7-9.5,13.4-3.8,3.4-8.8,5.6-14,5.5-2.4,0-4.7-.6-6.9-1.5-.1,2.4.2,4.8.5,7.2,5.4-3.4,11.7-5.3,18.1-5.1,3.4.1,6.7.9,9.8,2.3,6.5,3,11.6,8.9,13.9,15.8,2.1,6,2,12.4,1.4,18.7-1.2,10.3-4.2,20.5-9,29.7-2.3,4.3-5,8.6-8.5,12-2.3,2.2-4.9,4.1-8,5-4.2,1.4-9.1.9-12.9-1.3-1.7-.9-3-2.7-5.1-2.8-1.9,0-3.3,1.4-4.7,2.4-3.9,2.5-9,3.2-13.5,1.7-4-1.2-7.3-4-10-7.1-4.6-5.4-7.8-11.8-10.4-18.4-3.4-8.9-5.5-18.4-5.6-28,0-6.5,1.4-13.3,5.2-18.7,3.4-4.9,8.5-8.9,14.4-10.4,6.2-1.7,13-.9,18.9,1.5,1.3.5,2.5,1.2,3.8,1.7-.2-2.7-.4-5.4-.3-8.1.2-3.5.9-7,0-10.4-.2-1-.6-1.8-.9-2.7-.2-.7.5-1.3,1.2-1.2.5,0,.7.5,1,.9.9,1.8,1.1,3.9,1.3,5.9,1-2.2,2.4-4.3,4.1-5.9Z"/>
    <path class="st2" d="M151.7,204.9c3.9-2.8,9-3.3,13.7-2.8,2.1.3,4.3.6,6.4.8-.5,1.3-1.3,2.5-2,3.7-2.5,4.1-5.7,7.7-9.8,10.2-4.3,2.5-9.9,3.2-14.6,1.2,7.1-5.2,15.2-9,23.3-12.2.7-.2,1-1.3.4-1.8-.4-.4-1-.2-1.5,0-5.5,2.2-10.8,4.6-15.9,7.5-2.3,1.3-4.5,2.8-6.7,4.2,1.1-4.1,3.1-8.3,6.7-10.7Z"/>
    <path class="st5" d="M113.3,228.2c4.6-3.2,10.3-4.5,15.8-3.9,4.9.4,9.5,2.2,13.7,4.7.2,1.4.7,2.8.9,4.3-2.8-.8-5.5-1.9-8-3.4-.9-.5-1.8-1.5-3-1.1-.2.6-.5,1.4.2,1.8,4.8,3.4,10.6,5.4,16.5,5.6.9,0,1.8,0,2.7-.3,0-.5,0-1,0-1.6-.9-.5-2-.4-3.1-.4-1,0-2.1-.1-3.1-.3-.4-1.5-.9-3-1-4.5,4.1-2.6,8.8-4.5,13.7-5,5.2-.7,10.7.4,15.2,3.2,5.3,3.2,9.1,8.5,10.8,14.5,1.3,4.3,1.4,8.9,1.2,13.4-.9,11.8-4.3,23.4-10,33.8-1.6,2.7-3.2,5.4-5.3,7.7-2.8,3.3-6.4,6.2-10.7,6.9-3.9.6-8.2,0-11.2-2.7-1.3-1.1-2.8-1.9-4.5-1.9-1.8,0-3.5.9-4.9,2-3.2,2.7-7.8,3.3-11.8,2.4-3.1-.7-5.7-2.5-7.9-4.6-2.3-2.2-4.3-4.8-6-7.5-6.6-10.8-10.3-23.2-11.3-35.8-.2-4.5-.2-9,1.1-13.3,1.5-5.7,5.1-10.9,10-14.2Z"/>
    <path class="st4" d="M122.2,231.4c1.4-.2,2.8-.3,4.1,0,1.3.4,1.6,2.4.5,3.2-.7.4-1.4.4-2.1.5-2.7.3-5.4,1.2-7.4,3-1.6,1.4-3.1,3.1-4,5.1-.5,1-.8,2.1-1.3,3.1-.5.8-1.7.8-2.5.4-.8-.7-.7-1.9-.4-2.8,1.2-4.5,4.2-8.7,8.4-10.8,1.5-.8,3.2-1.3,4.9-1.6Z"/>
  </g>
  <g class="st7">
    <path class="st3" d="M255.3,204.6c3.6-3.4,8.8-4.9,13.7-4.8,3.2,0,6.4.7,9.6.9.8,0,1.6.1,2.4.3,0,.5.2,1,0,1.5-2.2,5-5.3,9.7-9.5,13.4-3.8,3.4-8.8,5.6-14,5.5-2.4,0-4.7-.6-6.9-1.5-.1,2.4.2,4.8.5,7.2,5.4-3.4,11.7-5.3,18.1-5.1,3.4.1,6.7.9,9.8,2.3,6.5,3,11.6,8.9,13.9,15.8,2.1,6,2,12.4,1.4,18.7-1.2,10.3-4.2,20.5-9,29.7-2.3,4.3-5,8.6-8.5,12-2.3,2.2-4.9,4.1-8,5-4.2,1.4-9.1.9-12.9-1.3-1.7-.9-3-2.7-5.1-2.8-1.9,0-3.3,1.4-4.7,2.4-3.9,2.5-9,3.2-13.5,1.7-4-1.2-7.3-4-10-7.1-4.6-5.4-7.8-11.8-10.4-18.4-3.4-8.9-5.5-18.4-5.6-28,0-6.5,1.4-13.3,5.2-18.7,3.4-4.9,8.5-8.9,14.4-10.4,6.2-1.7,13-.9,18.9,1.5,1.3.5,2.5,1.2,3.8,1.7-.2-2.7-.4-5.4-.3-8.1.2-3.5.9-7,0-10.4-.2-1-.6-1.8-.9-2.7-.2-.7.5-1.3,1.2-1.2.5,0,.7.5,1,.9.9,1.8,1.1,3.9,1.3,5.9,1-2.2,2.4-4.3,4.1-5.9Z"/>
    <path class="st2" d="M258.2,204.9c3.9-2.8,9-3.3,13.7-2.8,2.1.3,4.3.6,6.4.8-.5,1.3-1.3,2.5-2,3.7-2.5,4.1-5.7,7.7-9.8,10.2-4.3,2.5-9.9,3.2-14.6,1.2,7.1-5.2,15.2-9,23.3-12.2.7-.2,1-1.3.4-1.8-.4-.4-1-.2-1.5,0-5.5,2.2-10.8,4.6-15.9,7.5-2.3,1.3-4.5,2.8-6.7,4.2,1.1-4.1,3.1-8.3,6.7-10.7Z"/>
    <path class="st5" d="M219.8,228.2c4.6-3.2,10.3-4.5,15.8-3.9,4.9.4,9.5,2.2,13.7,4.7.2,1.4.7,2.8.9,4.3-2.8-.8-5.5-1.9-8-3.4-.9-.5-1.8-1.5-3-1.1-.2.6-.5,1.4.2,1.8,4.8,3.4,10.6,5.4,16.5,5.6.9,0,1.8,0,2.7-.3,0-.5,0-1,0-1.6-.9-.5-2-.4-3.1-.4-1,0-2.1-.1-3.1-.3-.4-1.5-.9-3-1-4.5,4.1-2.6,8.8-4.5,13.7-5,5.2-.7,10.7.4,15.2,3.2,5.3,3.2,9.1,8.5,10.8,14.5,1.3,4.3,1.4,8.9,1.2,13.4-.9,11.8-4.3,23.4-10,33.8-1.6,2.7-3.2,5.4-5.3,7.7-2.8,3.3-6.4,6.2-10.7,6.9-3.9.6-8.2,0-11.2-2.7-1.3-1.1-2.8-1.9-4.5-1.9-1.8,0-3.5.9-4.9,2-3.2,2.7-7.8,3.3-11.8,2.4-3.1-.7-5.7-2.5-7.9-4.6-2.3-2.2-4.3-4.8-6-7.5-6.6-10.8-10.3-23.2-11.3-35.8-.2-4.5-.2-9,1.1-13.3,1.5-5.7,5.1-10.9,10-14.2Z"/>
    <path class="st4" d="M228.7,231.4c1.4-.2,2.8-.3,4.1,0,1.3.4,1.6,2.4.5,3.2-.7.4-1.4.4-2.1.5-2.7.3-5.4,1.2-7.4,3-1.6,1.4-3.1,3.1-4,5.1-.5,1-.8,2.1-1.3,3.1-.5.8-1.7.8-2.5.4-.8-.7-.7-1.9-.4-2.8,1.2-4.5,4.2-8.7,8.4-10.8,1.5-.8,3.2-1.3,4.9-1.6Z"/>
  </g>
  <g class="st6">
    <path class="st3" d="M361.8,204.6c3.6-3.4,8.8-4.9,13.7-4.8,3.2,0,6.4.7,9.6.9.8,0,1.6.1,2.4.3,0,.5.2,1,0,1.5-2.2,5-5.3,9.7-9.5,13.4-3.8,3.4-8.8,5.6-14,5.5-2.4,0-4.7-.6-6.9-1.5-.1,2.4.2,4.8.5,7.2,5.4-3.4,11.7-5.3,18.1-5.1,3.4.1,6.7.9,9.8,2.3,6.5,3,11.6,8.9,13.9,15.8,2.1,6,2,12.4,1.4,18.7-1.2,10.3-4.2,20.5-9,29.7-2.3,4.3-5,8.6-8.5,12-2.3,2.2-4.9,4.1-8,5-4.2,1.4-9.1.9-12.9-1.3-1.7-.9-3-2.7-5.1-2.8-1.9,0-3.3,1.4-4.7,2.4-3.9,2.5-9,3.2-13.5,1.7-4-1.2-7.3-4-10-7.1-4.6-5.4-7.8-11.8-10.4-18.4-3.4-8.9-5.5-18.4-5.6-28,0-6.5,1.4-13.3,5.2-18.7,3.4-4.9,8.5-8.9,14.4-10.4,6.2-1.7,13-.9,18.9,1.5,1.3.5,2.5,1.2,3.8,1.7-.2-2.7-.4-5.4-.3-8.1.2-3.5.9-7,0-10.4-.2-1-.6-1.8-.9-2.7-.2-.7.5-1.3,1.2-1.2.5,0,.7.5,1,.9.9,1.8,1.1,3.9,1.3,5.9,1-2.2,2.4-4.3,4.1-5.9Z"/>
    <path class="st2" d="M364.8,204.9c3.9-2.8,9-3.3,13.7-2.8,2.1.3,4.3.6,6.4.8-.5,1.3-1.3,2.5-2,3.7-2.5,4.1-5.7,7.7-9.8,10.2-4.3,2.5-9.9,3.2-14.6,1.2,7.1-5.2,15.2-9,23.3-12.2.7-.2,1-1.3.4-1.8-.4-.4-1-.2-1.5,0-5.5,2.2-10.8,4.6-15.9,7.5-2.3,1.3-4.5,2.8-6.7,4.2,1.1-4.1,3.1-8.3,6.7-10.7Z"/>
    <path class="st5" d="M326.4,228.2c4.6-3.2,10.3-4.5,15.8-3.9,4.9.4,9.5,2.2,13.7,4.7.2,1.4.7,2.8.9,4.3-2.8-.8-5.5-1.9-8-3.4-.9-.5-1.8-1.5-3-1.1-.2.6-.5,1.4.2,1.8,4.8,3.4,10.6,5.4,16.5,5.6.9,0,1.8,0,2.7-.3,0-.5,0-1,0-1.6-.9-.5-2-.4-3.1-.4-1,0-2.1-.1-3.1-.3-.4-1.5-.9-3-1-4.5,4.1-2.6,8.8-4.5,13.7-5,5.2-.7,10.7.4,15.2,3.2,5.3,3.2,9.1,8.5,10.8,14.5,1.3,4.3,1.4,8.9,1.2,13.4-.9,11.8-4.3,23.4-10,33.8-1.6,2.7-3.2,5.4-5.3,7.7-2.8,3.3-6.4,6.2-10.7,6.9-3.9.6-8.2,0-11.2-2.7-1.3-1.1-2.8-1.9-4.5-1.9-1.8,0-3.5.9-4.9,2-3.2,2.7-7.8,3.3-11.8,2.4-3.1-.7-5.7-2.5-7.9-4.6-2.3-2.2-4.3-4.8-6-7.5-6.6-10.8-10.3-23.2-11.3-35.8-.2-4.5-.2-9,1.1-13.3,1.5-5.7,5.1-10.9,10-14.2Z"/>
    <path class="st4" d="M335.3,231.4c1.4-.2,2.8-.3,4.1,0,1.3.4,1.6,2.4.5,3.2-.7.4-1.4.4-2.1.5-2.7.3-5.4,1.2-7.4,3-1.6,1.4-3.1,3.1-4,5.1-.5,1-.8,2.1-1.3,3.1-.5.8-1.7.8-2.5.4-.8-.7-.7-1.9-.4-2.8,1.2-4.5,4.2-8.7,8.4-10.8,1.5-.8,3.2-1.3,4.9-1.6Z"/>
  </g>
  <g class="st10">
    <path class="st3" d="M153.8,335.4c3.6-3.4,8.8-4.9,13.7-4.8,3.2,0,6.4.7,9.6.9.8,0,1.6.1,2.4.3,0,.5.2,1,0,1.5-2.2,5-5.3,9.7-9.5,13.4-3.8,3.4-8.8,5.6-14,5.5-2.4,0-4.7-.6-6.9-1.5-.1,2.4.2,4.8.5,7.2,5.4-3.4,11.7-5.3,18.1-5.1,3.4.1,6.7.9,9.8,2.3,6.5,3,11.6,8.9,13.9,15.8,2.1,6,2,12.4,1.4,18.7-1.2,10.3-4.2,20.5-9,29.7-2.3,4.3-5,8.6-8.5,12-2.3,2.2-4.9,4.1-8,5-4.2,1.4-9.1.9-12.9-1.3-1.7-.9-3-2.7-5.1-2.8-1.9,0-3.3,1.4-4.7,2.4-3.9,2.5-9,3.2-13.5,1.7-4-1.2-7.3-4-10-7.1-4.6-5.4-7.8-11.8-10.4-18.4-3.4-8.9-5.5-18.4-5.6-28,0-6.5,1.4-13.3,5.2-18.7,3.4-4.9,8.5-8.9,14.4-10.4,6.2-1.7,13-.9,18.9,1.5,1.3.5,2.5,1.2,3.8,1.7-.2-2.7-.4-5.4-.3-8.1.2-3.5.9-7,0-10.4-.2-1-.6-1.8-.9-2.7-.2-.7.5-1.3,1.2-1.2.5,0,.7.5,1,.9.9,1.8,1.1,3.9,1.3,5.9,1-2.2,2.4-4.3,4.1-5.9Z"/>
    <path class="st2" d="M156.7,335.8c3.9-2.8,9-3.3,13.7-2.8,2.1.3,4.3.6,6.4.8-.5,1.3-1.3,2.5-2,3.7-2.5,4.1-5.7,7.7-9.8,10.2-4.3,2.5-9.9,3.2-14.6,1.2,7.1-5.2,15.2-9,23.3-12.2.7-.2,1-1.3.4-1.8-.4-.4-1-.2-1.5,0-5.5,2.2-10.8,4.6-15.9,7.5-2.3,1.3-4.5,2.8-6.7,4.2,1.1-4.1,3.1-8.3,6.7-10.7Z"/>
    <path class="st5" d="M118.3,359c4.6-3.2,10.3-4.5,15.8-3.9,4.9.4,9.5,2.2,13.7,4.7.2,1.4.7,2.8.9,4.3-2.8-.8-5.5-1.9-8-3.4-.9-.5-1.8-1.5-3-1.1-.2.6-.5,1.4.2,1.8,4.8,3.4,10.6,5.4,16.5,5.6.9,0,1.8,0,2.7-.3,0-.5,0-1,0-1.6-.9-.5-2-.4-3.1-.4-1,0-2.1-.1-3.1-.3-.4-1.5-.9-3-1-4.5,4.1-2.6,8.8-4.5,13.7-5,5.2-.7,10.7.4,15.2,3.2,5.3,3.2,9.1,8.5,10.8,14.5,1.3,4.3,1.4,8.9,1.2,13.4-.9,11.8-4.3,23.4-10,33.8-1.6,2.7-3.2,5.4-5.3,7.7-2.8,3.3-6.4,6.2-10.7,6.9-3.9.6-8.2,0-11.2-2.7-1.3-1.1-2.8-1.9-4.5-1.9-1.8,0-3.5.9-4.9,2-3.2,2.7-7.8,3.3-11.8,2.4-3.1-.7-5.7-2.5-7.9-4.6-2.3-2.2-4.3-4.8-6-7.5-6.6-10.8-10.3-23.2-11.3-35.8-.2-4.5-.2-9,1.1-13.3,1.5-5.7,5.1-10.9,10-14.2Z"/>
    <path class="st4" d="M127.2,362.2c1.4-.2,2.8-.3,4.1,0,1.3.4,1.6,2.4.5,3.2-.7.4-1.4.4-2.1.5-2.7.3-5.4,1.2-7.4,3-1.6,1.4-3.1,3.1-4,5.1-.5,1-.8,2.1-1.3,3.1-.5.8-1.7.8-2.5.4-.8-.7-.7-1.9-.4-2.8,1.2-4.5,4.2-8.7,8.4-10.8,1.5-.8,3.2-1.3,4.9-1.6Z"/>
  </g>
  <g class="st8">
    <path class="st3" d="M260.3,335.4c3.6-3.4,8.8-4.9,13.7-4.8,3.2,0,6.4.7,9.6.9.8,0,1.6.1,2.4.3,0,.5.2,1,0,1.5-2.2,5-5.3,9.7-9.5,13.4-3.8,3.4-8.8,5.6-14,5.5-2.4,0-4.7-.6-6.9-1.5-.1,2.4.2,4.8.5,7.2,5.4-3.4,11.7-5.3,18.1-5.1,3.4.1,6.7.9,9.8,2.3,6.5,3,11.6,8.9,13.9,15.8,2.1,6,2,12.4,1.4,18.7-1.2,10.3-4.2,20.5-9,29.7-2.3,4.3-5,8.6-8.5,12-2.3,2.2-4.9,4.1-8,5-4.2,1.4-9.1.9-12.9-1.3-1.7-.9-3-2.7-5.1-2.8-1.9,0-3.3,1.4-4.7,2.4-3.9,2.5-9,3.2-13.5,1.7-4-1.2-7.3-4-10-7.1-4.6-5.4-7.8-11.8-10.4-18.4-3.4-8.9-5.5-18.4-5.6-28,0-6.5,1.4-13.3,5.2-18.7,3.4-4.9,8.5-8.9,14.4-10.4,6.2-1.7,13-.9,18.9,1.5,1.3.5,2.5,1.2,3.8,1.7-.2-2.7-.4-5.4-.3-8.1.2-3.5.9-7,0-10.4-.2-1-.6-1.8-.9-2.7-.2-.7.5-1.3,1.2-1.2.5,0,.7.5,1,.9.9,1.8,1.1,3.9,1.3,5.9,1-2.2,2.4-4.3,4.1-5.9Z"/>
    <path class="st2" d="M263.2,335.8c3.9-2.8,9-3.3,13.7-2.8,2.1.3,4.3.6,6.4.8-.5,1.3-1.3,2.5-2,3.7-2.5,4.1-5.7,7.7-9.8,10.2-4.3,2.5-9.9,3.2-14.6,1.2,7.1-5.2,15.2-9,23.3-12.2.7-.2,1-1.3.4-1.8-.4-.4-1-.2-1.5,0-5.5,2.2-10.8,4.6-15.9,7.5-2.3,1.3-4.5,2.8-6.7,4.2,1.1-4.1,3.1-8.3,6.7-10.7Z"/>
    <path class="st5" d="M224.8,359c4.6-3.2,10.3-4.5,15.8-3.9,4.9.4,9.5,2.2,13.7,4.7.2,1.4.7,2.8.9,4.3-2.8-.8-5.5-1.9-8-3.4-.9-.5-1.8-1.5-3-1.1-.2.6-.5,1.4.2,1.8,4.8,3.4,10.6,5.4,16.5,5.6.9,0,1.8,0,2.7-.3,0-.5,0-1,0-1.6-.9-.5-2-.4-3.1-.4-1,0-2.1-.1-3.1-.3-.4-1.5-.9-3-1-4.5,4.1-2.6,8.8-4.5,13.7-5,5.2-.7,10.7.4,15.2,3.2,5.3,3.2,9.1,8.5,10.8,14.5,1.3,4.3,1.4,8.9,1.2,13.4-.9,11.8-4.3,23.4-10,33.8-1.6,2.7-3.2,5.4-5.3,7.7-2.8,3.3-6.4,6.2-10.7,6.9-3.9.6-8.2,0-11.2-2.7-1.3-1.1-2.8-1.9-4.5-1.9-1.8,0-3.5.9-4.9,2-3.2,2.7-7.8,3.3-11.8,2.4-3.1-.7-5.7-2.5-7.9-4.6-2.3-2.2-4.3-4.8-6-7.5-6.6-10.8-10.3-23.2-11.3-35.8-.2-4.5-.2-9,1.1-13.3,1.5-5.7,5.1-10.9,10-14.2Z"/>
    <path class="st4" d="M233.7,362.2c1.4-.2,2.8-.3,4.1,0,1.3.4,1.6,2.4.5,3.2-.7.4-1.4.4-2.1.5-2.7.3-5.4,1.2-7.4,3-1.6,1.4-3.1,3.1-4,5.1-.5,1-.8,2.1-1.3,3.1-.5.8-1.7.8-2.5.4-.8-.7-.7-1.9-.4-2.8,1.2-4.5,4.2-8.7,8.4-10.8,1.5-.8,3.2-1.3,4.9-1.6Z"/>
  </g>
  <g class="st0">
    <path class="st3" d="M366.8,335.4c3.6-3.4,8.8-4.9,13.7-4.8,3.2,0,6.4.7,9.6.9.8,0,1.6.1,2.4.3,0,.5.2,1,0,1.5-2.2,5-5.3,9.7-9.5,13.4-3.8,3.4-8.8,5.6-14,5.5-2.4,0-4.7-.6-6.9-1.5-.1,2.4.2,4.8.5,7.2,5.4-3.4,11.7-5.3,18.1-5.1,3.4.1,6.7.9,9.8,2.3,6.5,3,11.6,8.9,13.9,15.8,2.1,6,2,12.4,1.4,18.7-1.2,10.3-4.2,20.5-9,29.7-2.3,4.3-5,8.6-8.5,12-2.3,2.2-4.9,4.1-8,5-4.2,1.4-9.1.9-12.9-1.3-1.7-.9-3-2.7-5.1-2.8-1.9,0-3.3,1.4-4.7,2.4-3.9,2.5-9,3.2-13.5,1.7-4-1.2-7.3-4-10-7.1-4.6-5.4-7.8-11.8-10.4-18.4-3.4-8.9-5.5-18.4-5.6-28,0-6.5,1.4-13.3,5.2-18.7,3.4-4.9,8.5-8.9,14.4-10.4,6.2-1.7,13-.9,18.9,1.5,1.3.5,2.5,1.2,3.8,1.7-.2-2.7-.4-5.4-.3-8.1.2-3.5.9-7,0-10.4-.2-1-.6-1.8-.9-2.7-.2-.7.5-1.3,1.2-1.2.5,0,.7.5,1,.9.9,1.8,1.1,3.9,1.3,5.9,1-2.2,2.4-4.3,4.1-5.9Z"/>
    <path class="st2" d="M369.8,335.8c3.9-2.8,9-3.3,13.7-2.8,2.1.3,4.3.6,6.4.8-.5,1.3-1.3,2.5-2,3.7-2.5,4.1-5.7,7.7-9.8,10.2-4.3,2.5-9.9,3.2-14.6,1.2,7.1-5.2,15.2-9,23.3-12.2.7-.2,1-1.3.4-1.8-.4-.4-1-.2-1.5,0-5.5,2.2-10.8,4.6-15.9,7.5-2.3,1.3-4.5,2.8-6.7,4.2,1.1-4.1,3.1-8.3,6.7-10.7Z"/>
    <path class="st5" d="M331.4,359c4.6-3.2,10.3-4.5,15.8-3.9,4.9.4,9.5,2.2,13.7,4.7.2,1.4.7,2.8.9,4.3-2.8-.8-5.5-1.9-8-3.4-.9-.5-1.8-1.5-3-1.1-.2.6-.5,1.4.2,1.8,4.8,3.4,10.6,5.4,16.5,5.6.9,0,1.8,0,2.7-.3,0-.5,0-1,0-1.6-.9-.5-2-.4-3.1-.4-1,0-2.1-.1-3.1-.3-.4-1.5-.9-3-1-4.5,4.1-2.6,8.8-4.5,13.7-5,5.2-.7,10.7.4,15.2,3.2,5.3,3.2,9.1,8.5,10.8,14.5,1.3,4.3,1.4,8.9,1.2,13.4-.9,11.8-4.3,23.4-10,33.8-1.6,2.7-3.2,5.4-5.3,7.7-2.8,3.3-6.4,6.2-10.7,6.9-3.9.6-8.2,0-11.2-2.7-1.3-1.1-2.8-1.9-4.5-1.9-1.8,0-3.5.9-4.9,2-3.2,2.7-7.8,3.3-11.8,2.4-3.1-.7-5.7-2.5-7.9-4.6-2.3-2.2-4.3-4.8-6-7.5-6.6-10.8-10.3-23.2-11.3-35.8-.2-4.5-.2-9,1.1-13.3,1.5-5.7,5.1-10.9,10-14.2Z"/>
    <path class="st4" d="M340.3,362.2c1.4-.2,2.8-.3,4.1,0,1.3.4,1.6,2.4.5,3.2-.7.4-1.4.4-2.1.5-2.7.3-5.4,1.2-7.4,3-1.6,1.4-3.1,3.1-4,5.1-.5,1-.8,2.1-1.3,3.1-.5.8-1.7.8-2.5.4-.8-.7-.7-1.9-.4-2.8,1.2-4.5,4.2-8.7,8.4-10.8,1.5-.8,3.2-1.3,4.9-1.6Z"/>
  </g>
</svg>