<?xml version="1.0" encoding="utf-8"?>
<svg xmlns="http://www.w3.org/2000/svg" height="512pt" version="1.1" viewBox="0 0 512 512" width="512pt">
<path d="M 0.00 0.00 L 512.00 0.00 L 512.00 512.00 L 0.00 512.00 L 0.00 0.00 Z" fill="transparent" opacity="1.00" stroke="transparent" stroke-width="0.25"/>
<path d="M 239.57 20.94 C 265.88 17.97 293.03 22.61 316.85 34.17 C 350.13 50.37 376.92 78.35 393.96 110.99 C 402.94 127.41 408.73 145.28 414.60 162.97 C 418.43 176.74 421.88 190.75 422.55 205.08 C 422.65 236.39 422.58 267.71 422.61 299.02 C 422.96 309.29 420.77 319.41 418.87 329.44 C 414.13 352.75 406.39 375.47 395.66 396.70 C 379.56 428.43 354.56 456.11 322.92 472.83 C 306.16 481.65 287.76 487.45 268.91 489.45 C 245.99 492.25 222.60 488.05 201.20 479.70 C 166.96 466.03 138.35 439.93 119.59 408.39 C 110.43 393.38 103.26 377.09 99.15 359.96 C 94.48 341.55 90.18 322.95 88.59 303.99 C 88.61 275.66 88.58 247.34 88.58 219.01 C 87.86 198.38 92.44 178.01 97.55 158.15 C 106.37 121.97 125.42 88.12 152.49 62.48 C 176.24 40.02 206.94 24.59 239.57 20.94 Z" fill="#052c48" opacity="1.00" stroke="#052c48" stroke-width="0.25"/>
<path d="M 241.03 25.50 C 268.14 22.47 296.06 28.17 320.11 40.98 C 348.10 55.97 371.10 79.56 386.63 107.15 C 394.79 121.00 400.73 136.02 405.66 151.28 C 406.52 154.10 406.17 157.08 406.22 159.99 C 406.19 187.93 406.16 215.87 406.23 243.82 C 399.83 248.22 393.12 252.10 386.43 256.01 C 386.45 222.69 386.38 189.38 386.45 156.06 C 386.63 152.35 385.07 148.94 383.97 145.49 C 376.17 122.42 364.13 100.50 347.12 82.93 C 331.24 66.10 311.38 52.56 289.00 46.19 C 263.54 38.63 235.70 40.20 211.05 49.95 C 177.10 63.51 150.33 91.46 134.02 123.74 C 132.27 127.55 129.52 130.78 127.70 134.53 C 127.27 137.66 127.56 140.85 127.51 144.01 C 127.48 185.84 127.51 227.67 127.52 269.50 C 121.27 267.70 115.47 264.76 109.74 261.75 C 109.46 299.88 109.98 338.01 109.50 376.14 C 109.06 346.41 109.52 316.67 109.29 286.94 C 109.10 278.15 109.90 269.30 108.60 260.56 C 108.28 229.05 108.57 197.53 108.48 166.01 C 108.64 156.39 108.19 146.74 108.67 137.13 C 116.06 118.05 126.19 99.99 138.84 83.88 C 163.70 52.35 200.77 29.73 241.03 25.50 Z" fill="#bff3ff" opacity="1.00" stroke="#bff3ff" stroke-width="0.25"/>
<path d="M 190.14 45.14 C 208.41 34.03 229.59 27.72 250.97 27.24 C 276.63 26.22 303.18 32.16 324.19 47.39 C 323.68 47.60 322.65 48.03 322.14 48.24 C 314.17 45.74 307.00 41.12 298.86 39.06 C 284.55 35.20 269.87 31.79 254.94 32.22 C 242.70 32.10 230.59 34.46 218.79 37.54 C 206.27 40.29 194.89 46.46 182.96 50.90 C 185.12 48.71 187.51 46.74 190.14 45.14 Z" fill="#fcffff" opacity="1.00" stroke="#fcffff" stroke-width="0.25"/>
<path d="M 211.05 49.95 C 235.70 40.20 263.54 38.63 289.00 46.19 C 311.38 52.56 331.24 66.10 347.12 82.93 C 364.13 100.50 376.17 122.42 383.97 145.49 C 385.07 148.94 386.63 152.35 386.45 156.06 C 386.38 189.38 386.45 222.69 386.43 256.01 C 386.46 287.35 386.44 318.69 386.44 350.02 C 386.26 354.66 387.18 359.57 385.23 363.95 C 377.89 382.24 368.66 399.93 356.36 415.40 C 345.04 429.33 331.59 441.81 315.85 450.60 C 297.10 461.39 275.61 467.48 253.95 467.60 C 234.13 467.30 214.43 462.25 196.89 453.02 C 175.10 441.60 156.67 424.18 143.25 403.62 C 138.39 396.89 134.66 389.45 130.66 382.20 C 129.57 380.14 128.38 378.10 127.73 375.85 C 127.22 372.25 127.57 368.61 127.51 364.99 C 127.46 333.16 127.50 301.33 127.52 269.50 C 127.51 227.67 127.48 185.84 127.51 144.01 C 127.56 140.85 127.27 137.66 127.70 134.53 C 129.52 130.78 132.27 127.55 134.02 123.74 C 150.33 91.46 177.10 63.51 211.05 49.95 Z" fill="#052d4a" opacity="1.00" stroke="#052d4a" stroke-width="0.25"/>
<path d="M 198.19 61.20 C 232.46 41.48 277.08 40.93 311.49 60.62 C 325.98 68.75 338.99 79.58 349.55 92.42 C 363.31 108.30 372.82 127.42 379.67 147.17 C 380.67 150.02 382.00 152.87 381.79 155.97 C 381.61 163.64 382.14 171.33 381.40 178.97 C 380.31 172.00 377.53 165.48 375.31 158.83 C 364.61 130.86 346.83 105.28 323.05 86.91 C 305.89 73.41 284.94 64.59 263.16 62.50 C 241.18 60.65 219.09 67.13 200.23 78.23 C 172.84 94.81 151.53 120.68 138.97 150.01 C 136.44 155.99 133.80 161.99 132.62 168.41 C 131.95 157.69 132.21 146.90 132.37 136.16 C 137.23 127.74 141.54 118.96 146.76 110.75 C 159.67 90.51 177.05 72.80 198.19 61.20 Z" fill="#8ce4fe" opacity="1.00" stroke="#8ce4fe" stroke-width="0.25"/>
<path d="M 222.85 72.84 C 236.24 68.27 250.61 65.76 264.75 67.48 C 258.44 77.34 249.52 85.06 241.79 93.74 C 235.06 101.67 227.46 108.80 220.79 116.79 C 217.01 121.32 212.32 124.98 208.47 129.44 C 200.05 142.38 188.41 152.73 178.21 164.21 C 173.75 169.70 168.25 174.21 163.75 179.66 C 156.24 188.33 147.10 196.23 143.21 207.36 C 139.54 215.78 138.78 225.41 140.95 234.32 C 141.94 238.90 145.64 242.49 149.86 244.25 C 152.71 245.48 155.30 243.07 157.30 241.35 C 167.89 230.92 178.26 220.27 188.70 209.69 C 196.81 202.47 204.11 194.39 210.98 185.99 C 216.16 179.84 222.96 175.35 228.21 169.25 C 236.05 160.41 245.61 153.22 252.84 143.82 C 254.83 141.19 257.00 138.70 259.39 136.42 C 272.79 123.50 285.16 109.55 298.67 96.74 C 303.24 92.98 307.24 88.59 310.68 83.78 C 333.09 98.46 351.12 119.37 363.30 143.16 C 361.77 143.96 360.08 144.60 358.87 145.89 C 350.32 155.76 343.70 167.20 334.56 176.58 C 332.80 178.45 331.21 180.47 329.76 182.59 C 324.50 190.52 317.82 197.41 312.70 205.45 C 308.75 211.79 303.53 217.24 299.69 223.66 C 292.00 236.40 279.59 245.68 273.16 259.26 C 266.06 268.78 257.88 277.54 251.47 287.59 C 247.69 293.63 242.83 298.88 238.33 304.38 C 232.69 311.46 227.08 318.62 222.27 326.30 C 218.17 332.74 212.32 337.82 208.20 344.25 C 203.83 351.01 197.25 356.94 196.37 365.39 C 195.54 373.02 195.88 381.77 201.10 387.91 C 204.07 391.61 207.07 395.59 211.52 397.60 C 218.34 401.39 226.71 401.35 233.99 399.03 C 240.32 396.79 243.88 390.74 248.35 386.17 C 251.49 382.94 254.38 379.46 256.68 375.57 C 264.67 362.86 274.83 351.73 283.43 339.46 C 291.37 329.33 298.61 318.69 306.53 308.55 C 320.40 289.15 334.07 269.60 348.96 250.95 C 356.64 240.34 364.61 229.95 372.32 219.36 C 376.18 213.19 382.88 207.81 381.48 199.68 C 381.97 203.11 381.90 206.58 381.80 210.03 C 381.72 241.67 381.84 273.32 381.73 304.97 C 380.82 314.42 378.40 323.65 375.80 332.76 C 369.76 352.90 360.98 372.40 348.27 389.24 C 338.44 402.59 326.30 414.27 312.44 423.37 C 294.29 435.11 272.68 441.94 250.98 441.23 C 228.69 439.83 207.06 431.20 189.56 417.39 C 170.71 402.91 155.74 383.69 145.75 362.14 C 139.61 347.65 134.32 332.62 132.27 316.95 C 132.09 277.32 132.32 237.68 132.19 198.04 C 132.28 192.66 131.82 187.17 133.26 181.92 C 137.77 162.62 145.56 144.03 156.38 127.41 C 172.25 103.04 195.19 82.62 222.85 72.84 Z" fill="#d8f9ff" opacity="1.00" stroke="#d8f9ff" stroke-width="0.25"/>
<path d="M 264.75 67.48 C 281.05 69.36 296.68 75.32 310.68 83.78 C 307.24 88.59 303.24 92.98 298.67 96.74 C 285.16 109.55 272.79 123.50 259.39 136.42 C 257.00 138.70 254.83 141.19 252.84 143.82 C 245.61 153.22 236.05 160.41 228.21 169.25 C 222.96 175.35 216.16 179.84 210.98 185.99 C 204.11 194.39 196.81 202.47 188.70 209.69 C 178.26 220.27 167.89 230.92 157.30 241.35 C 155.30 243.07 152.71 245.48 149.86 244.25 C 145.64 242.49 141.94 238.90 140.95 234.32 C 138.78 225.41 139.54 215.78 143.21 207.36 C 147.10 196.23 156.24 188.33 163.75 179.66 C 168.25 174.21 173.75 169.70 178.21 164.21 C 188.41 152.73 200.05 142.38 208.47 129.44 C 212.32 124.98 217.01 121.32 220.79 116.79 C 227.46 108.80 235.06 101.67 241.79 93.74 C 249.52 85.06 258.44 77.34 264.75 67.48 Z" fill="#ffffff" opacity="1.00" stroke="#ffffff" stroke-width="0.25"/>
<path d="M 275.41 144.40 C 280.10 144.31 281.78 150.13 279.49 153.62 C 264.34 170.38 249.54 187.51 233.85 203.80 C 227.01 212.26 219.15 219.79 211.91 227.89 C 210.13 229.78 208.01 232.14 205.11 231.67 C 201.66 231.64 199.23 227.07 201.15 224.24 C 203.73 219.65 207.67 216.09 211.24 212.31 C 229.24 192.32 247.41 172.51 265.62 152.72 C 268.55 149.68 271.01 145.36 275.41 144.40 Z" fill="#ffffff" opacity="1.00" stroke="#ffffff" stroke-width="0.25"/>
<path d="M 358.87 145.89 C 360.08 144.60 361.77 143.96 363.30 143.16 C 372.16 160.93 378.45 180.05 381.48 199.68 C 382.88 207.81 376.18 213.19 372.32 219.36 C 364.61 229.95 356.64 240.34 348.96 250.95 C 334.07 269.60 320.40 289.15 306.53 308.55 C 298.61 318.69 291.37 329.33 283.43 339.46 C 274.83 351.73 264.67 362.86 256.68 375.57 C 254.38 379.46 251.49 382.94 248.35 386.17 C 243.88 390.74 240.32 396.79 233.99 399.03 C 226.71 401.35 218.34 401.39 211.52 397.60 C 207.07 395.59 204.07 391.61 201.10 387.91 C 195.88 381.77 195.54 373.02 196.37 365.39 C 197.25 356.94 203.83 351.01 208.20 344.25 C 212.32 337.82 218.17 332.74 222.27 326.30 C 227.08 318.62 232.69 311.46 238.33 304.38 C 242.83 298.88 247.69 293.63 251.47 287.59 C 257.88 277.54 266.06 268.78 273.16 259.26 C 279.59 245.68 292.00 236.40 299.69 223.66 C 303.53 217.24 308.75 211.79 312.70 205.45 C 317.82 197.41 324.50 190.52 329.76 182.59 C 331.21 180.47 332.80 178.45 334.56 176.58 C 343.70 167.20 350.32 155.76 358.87 145.89 Z" fill="#ffffff" opacity="1.00" stroke="#ffffff" stroke-width="0.25"/>
<path d="M 103.56 152.68 C 104.13 187.53 103.70 222.40 103.82 257.26 C 100.32 255.17 96.88 253.01 93.46 250.79 C 93.51 235.83 93.45 220.88 93.49 205.93 C 94.92 187.87 99.22 170.22 103.56 152.68 Z" fill="#bff3ff" opacity="1.00" stroke="#bff3ff" stroke-width="0.25"/>
<path d="M 410.82 239.02 C 410.96 215.18 410.55 191.34 411.04 167.52 C 414.44 179.03 416.68 190.90 417.68 202.86 C 417.98 213.23 417.77 223.60 417.83 233.97 C 415.48 235.64 413.14 237.32 410.82 239.02 Z" fill="#bdf1ff" opacity="1.00" stroke="#bdf1ff" stroke-width="0.25"/>
<path d="M 410.82 239.02 C 413.14 237.32 415.48 235.64 417.83 233.97 C 417.84 254.32 417.84 274.68 417.84 295.03 C 418.49 311.23 414.96 327.25 410.98 342.85 C 410.63 308.24 410.87 273.63 410.82 239.02 Z" fill="#8be2fe" opacity="1.00" stroke="#8be2fe" stroke-width="0.25"/>
<path d="M 386.43 256.01 C 393.12 252.10 399.83 248.22 406.23 243.82 C 406.22 279.54 406.23 315.27 406.19 350.99 C 406.10 354.26 406.58 357.62 405.70 360.82 C 398.75 381.32 389.60 401.24 376.94 418.88 C 366.54 433.25 354.30 446.47 339.83 456.82 C 320.31 471.33 297.11 480.84 273.04 484.31 C 229.64 490.54 184.77 473.68 153.44 443.61 C 135.53 426.63 121.35 405.83 111.61 383.18 C 110.41 379.83 108.14 376.71 108.47 373.00 C 108.58 335.52 108.27 298.03 108.60 260.56 C 109.90 269.30 109.10 278.15 109.29 286.94 C 109.52 316.67 109.06 346.41 109.50 376.14 C 109.98 338.01 109.46 299.88 109.74 261.75 C 115.47 264.76 121.27 267.70 127.52 269.50 C 127.50 301.33 127.46 333.16 127.51 364.99 C 127.57 368.61 127.22 372.25 127.73 375.85 C 128.38 378.10 129.57 380.14 130.66 382.20 C 134.66 389.45 138.39 396.89 143.25 403.62 C 156.67 424.18 175.10 441.60 196.89 453.02 C 214.43 462.25 234.13 467.30 253.95 467.60 C 275.61 467.48 297.10 461.39 315.85 450.60 C 331.59 441.81 345.04 429.33 356.36 415.40 C 368.66 399.93 377.89 382.24 385.23 363.95 C 387.18 359.57 386.26 354.66 386.44 350.02 C 386.44 318.69 386.46 287.35 386.43 256.01 Z" fill="#8ce4ff" opacity="1.00" stroke="#8ce4ff" stroke-width="0.25"/>
<path d="M 93.46 250.79 C 96.88 253.01 100.32 255.17 103.82 257.26 C 103.72 291.61 104.06 325.96 103.63 360.31 C 99.81 341.96 94.84 323.75 93.48 304.99 C 93.42 286.92 93.49 268.85 93.46 250.79 Z" fill="#8de4fe" opacity="1.00" stroke="#8de4fe" stroke-width="0.25"/>
<path d="M 381.44 327.40 C 382.14 337.24 381.59 347.11 381.78 356.97 C 382.02 361.58 379.18 365.51 377.76 369.73 C 368.41 391.44 355.71 412.10 338.35 428.34 C 317.03 448.54 288.59 461.31 259.17 462.79 C 224.55 464.31 190.49 449.07 166.17 424.82 C 151.89 410.70 141.37 393.33 132.42 375.49 C 132.06 363.04 132.11 350.52 132.51 338.05 C 140.88 372.19 161.83 403.04 190.16 423.79 C 208.91 437.44 231.70 445.82 254.99 446.18 C 285.04 445.74 313.93 431.98 335.24 411.15 C 352.22 394.89 365.08 374.63 373.80 352.86 C 376.88 344.56 380.24 336.23 381.44 327.40 Z" fill="#bff3ff" opacity="1.00" stroke="#bff3ff" stroke-width="0.25"/>
</svg>