<?xml version="1.0" encoding="utf-8"?>
<svg xmlns="http://www.w3.org/2000/svg" height="512pt" version="1.1" viewBox="0 0 512 512" width="512pt">
<path d="M 0.00 0.00 L 512.00 0.00 L 512.00 512.00 L 0.00 512.00 L 0.00 0.00 Z" fill="transparent" opacity="1.00" stroke="transparent" stroke-width="0.25"/>
<path d="M 263.66 34.80 C 276.40 32.99 289.85 34.94 301.09 41.39 C 305.05 39.49 309.87 39.71 313.17 42.81 C 326.64 53.77 333.17 71.93 331.77 89.04 C 331.76 96.88 328.91 104.24 327.00 111.72 C 331.32 113.32 335.62 116.13 337.18 120.68 C 338.64 126.20 338.12 132.75 334.16 137.14 C 331.82 139.95 328.59 141.82 325.16 142.96 C 323.73 143.23 323.54 144.83 323.06 145.93 C 318.20 161.18 307.04 174.65 292.24 181.07 C 287.52 183.29 282.34 184.13 277.30 185.26 C 277.19 189.33 277.19 193.41 277.39 197.47 C 286.61 197.67 295.85 197.76 305.01 198.94 C 315.57 200.60 325.88 204.91 333.82 212.17 C 342.00 219.93 346.79 230.36 351.36 240.47 C 353.86 247.03 357.51 253.14 359.46 259.91 C 356.25 261.25 353.00 262.50 349.82 263.91 C 351.38 273.90 352.26 283.99 353.24 294.06 C 354.02 305.15 354.52 316.45 352.17 327.40 C 350.40 336.16 345.21 344.49 337.53 349.23 C 337.08 348.60 336.18 347.34 335.74 346.72 C 344.65 340.89 349.13 330.36 350.03 320.05 C 351.34 305.21 349.47 290.34 347.98 275.58 C 347.58 272.09 347.06 268.61 346.49 265.14 C 336.38 268.64 326.43 272.60 316.42 276.38 C 311.69 277.82 314.74 283.71 314.44 287.24 C 314.80 291.99 313.99 296.93 315.27 301.56 C 317.33 303.47 320.86 304.21 321.27 307.44 C 317.31 307.30 314.02 304.92 310.44 303.55 C 302.30 300.01 293.62 298.07 285.02 296.02 C 270.09 292.71 255.18 289.27 240.27 285.87 C 235.90 284.96 231.50 283.96 227.02 283.82 C 217.69 283.91 208.21 287.92 202.26 295.23 C 199.68 298.39 199.55 302.63 199.37 306.51 C 208.91 306.48 218.57 307.36 228.00 305.59 C 230.77 306.27 233.07 308.15 235.55 309.49 C 245.63 315.69 255.90 321.57 266.16 327.47 C 265.10 328.60 264.04 329.74 262.99 330.88 C 263.59 331.31 264.78 332.17 265.38 332.60 C 250.22 337.57 234.91 342.15 219.43 346.00 C 214.80 344.86 210.26 346.88 205.61 346.57 C 221.19 341.95 236.99 338.06 252.49 333.13 C 255.83 332.17 259.17 331.17 262.41 329.88 C 256.23 324.64 248.72 321.33 241.89 317.05 C 237.83 314.81 234.29 311.61 229.93 309.95 C 226.52 309.38 223.07 310.05 219.66 310.22 C 210.02 309.93 200.24 310.93 190.70 309.31 C 190.44 308.97 189.92 308.29 189.67 307.95 C 190.32 301.84 192.44 296.00 194.30 290.17 C 195.23 287.01 196.97 283.90 196.69 280.51 C 190.01 275.36 182.72 271.03 175.77 266.24 C 171.82 263.79 168.20 260.76 163.97 258.78 C 161.91 259.68 161.86 262.78 160.89 264.68 C 155.33 281.32 150.49 298.43 149.52 316.03 C 149.09 325.03 150.01 334.86 155.83 342.15 C 160.08 347.79 166.97 351.17 173.98 351.47 C 179.65 351.74 185.30 350.78 190.86 349.79 C 191.17 350.37 191.80 351.53 192.12 352.10 L 191.89 352.80 C 184.52 354.89 176.60 355.42 169.01 354.32 C 156.87 351.94 148.14 340.53 146.62 328.60 C 144.91 313.78 147.52 298.85 151.39 284.56 C 153.78 274.82 156.93 265.29 160.40 255.88 C 157.66 253.67 154.69 251.80 151.80 249.79 C 153.56 246.37 156.07 243.43 158.23 240.27 C 165.68 229.89 173.14 219.27 182.98 210.98 C 190.62 204.10 200.46 200.04 210.54 198.39 C 223.37 196.28 236.41 197.02 249.35 196.87 C 249.59 192.63 249.57 188.38 249.40 184.14 C 240.20 181.60 232.08 176.48 224.34 171.07 C 218.18 182.14 210.23 192.53 199.49 199.51 C 192.04 204.01 183.82 207.77 175.02 208.33 C 169.13 208.73 162.76 207.76 158.11 203.87 C 156.15 202.24 153.83 200.54 153.58 197.78 C 158.53 197.45 164.47 198.35 168.05 194.04 C 173.60 187.07 173.84 177.52 173.29 169.02 C 171.56 153.80 165.77 139.35 164.31 124.08 C 161.81 101.78 167.28 78.54 179.99 59.99 C 187.01 50.13 196.86 41.23 209.17 39.15 C 218.47 37.26 228.11 39.68 235.99 44.78 C 244.78 40.43 253.93 36.45 263.66 34.80 Z" fill="#0c2e48" opacity="1.00" stroke="#0c2e48" stroke-width="0.25"/>
<path d="M 241.66 45.61 C 250.62 41.45 260.09 37.50 270.14 37.45 C 274.71 37.53 279.31 37.51 283.84 38.19 C 289.32 39.07 294.18 41.90 299.37 43.69 C 302.72 44.99 306.57 41.85 309.65 44.33 C 317.36 49.55 322.20 57.93 325.59 66.40 C 329.41 76.00 329.39 86.66 327.51 96.69 C 323.70 91.21 319.26 86.15 313.98 82.06 C 310.02 79.10 304.64 78.84 299.98 79.94 C 293.92 81.30 289.59 86.06 284.31 88.99 C 284.08 86.59 283.85 84.20 283.58 81.80 C 279.35 83.59 276.99 87.88 272.95 89.94 C 269.89 91.56 266.44 92.16 263.09 92.86 C 263.94 88.69 265.37 84.29 263.95 80.07 C 261.99 74.26 257.40 69.58 251.96 66.88 C 251.02 71.70 251.51 76.84 249.52 81.41 C 246.24 88.15 240.28 93.30 233.69 96.69 C 231.01 98.17 227.84 99.31 226.21 102.10 C 223.15 107.07 221.05 112.58 217.92 117.53 C 215.92 116.38 213.97 115.08 211.75 114.39 C 208.89 114.03 206.01 114.54 203.16 114.79 C 202.29 100.25 204.78 85.49 209.78 71.83 C 212.85 63.19 218.29 55.25 226.16 50.33 C 231.42 49.13 236.87 48.27 241.66 45.61 Z" fill="#6a4944" opacity="1.00" stroke="#6a4944" stroke-width="0.25"/>
<path d="M 191.65 51.64 C 198.40 45.91 206.93 41.45 216.00 41.85 C 220.70 41.69 225.53 42.75 229.21 45.82 C 227.67 46.50 226.11 47.13 224.57 47.80 C 218.00 50.41 214.45 56.95 210.11 62.11 C 199.94 66.98 193.09 76.60 188.70 86.69 C 186.61 91.73 186.06 97.21 185.46 102.57 C 184.11 115.29 185.22 128.22 188.29 140.62 C 190.01 148.78 194.34 156.07 199.47 162.53 C 201.15 164.72 202.92 167.10 202.96 169.98 C 203.36 177.65 202.67 185.33 202.27 192.99 C 196.02 198.59 188.15 202.24 180.02 204.13 C 173.33 205.53 165.85 205.18 160.00 201.31 C 163.55 200.00 167.65 199.29 170.10 196.12 C 174.39 191.95 175.96 185.96 176.39 180.17 C 177.91 168.81 174.65 157.65 172.25 146.67 C 167.63 130.68 165.65 113.70 168.25 97.18 C 171.49 80.21 179.12 63.74 191.65 51.64 Z" fill="#694844" opacity="1.00" stroke="#694844" stroke-width="0.25"/>
<path d="M 210.11 62.11 C 214.45 56.95 218.00 50.41 224.57 47.80 C 224.97 48.43 225.76 49.70 226.16 50.33 C 218.29 55.25 212.85 63.19 209.78 71.83 C 204.78 85.49 202.29 100.25 203.16 114.79 C 206.01 114.54 208.89 114.03 211.75 114.39 C 213.97 115.08 215.92 116.38 217.92 117.53 C 221.05 112.58 223.15 107.07 226.21 102.10 C 227.84 99.31 231.01 98.17 233.69 96.69 C 240.28 93.30 246.24 88.15 249.52 81.41 C 251.51 76.84 251.02 71.70 251.96 66.88 C 257.40 69.58 261.99 74.26 263.95 80.07 C 265.37 84.29 263.94 88.69 263.09 92.86 C 266.44 92.16 269.89 91.56 272.95 89.94 C 276.99 87.88 279.35 83.59 283.58 81.80 C 283.85 84.20 284.08 86.59 284.31 88.99 C 289.59 86.06 293.92 81.30 299.98 79.94 C 304.64 78.84 310.02 79.10 313.98 82.06 C 319.26 86.15 323.70 91.21 327.51 96.69 C 329.34 98.94 325.53 99.89 324.01 100.67 C 323.83 100.20 323.47 99.25 323.29 98.78 C 322.92 97.11 322.67 95.39 322.05 93.79 C 320.17 91.40 317.53 89.76 315.36 87.65 C 312.51 85.01 309.23 82.01 305.03 82.41 C 294.10 82.59 287.74 93.94 277.03 95.14 C 278.05 93.01 279.22 90.97 280.32 88.88 C 273.64 93.50 265.58 97.83 257.20 96.31 C 259.09 92.16 262.34 88.10 261.63 83.27 C 260.95 78.68 257.34 75.43 254.47 72.08 C 255.15 84.94 244.48 94.39 234.25 100.19 C 226.27 104.06 224.53 113.57 220.45 120.59 C 217.35 121.89 214.77 119.07 212.11 117.96 C 208.35 115.81 204.09 119.15 202.61 122.60 C 200.00 128.92 202.40 137.10 208.22 140.80 C 212.12 143.09 216.73 141.77 220.90 141.15 C 225.61 151.14 231.08 161.10 239.56 168.43 C 244.34 172.91 250.14 176.10 256.12 178.67 C 253.43 179.55 250.77 180.54 247.98 181.03 L 248.75 180.41 C 249.08 180.15 249.74 179.65 250.07 179.40 C 245.76 176.61 240.99 174.36 237.40 170.60 C 234.63 167.70 231.97 164.68 229.34 161.66 C 224.94 156.63 222.77 150.19 219.01 144.74 C 216.03 144.93 213.06 145.19 210.10 145.58 C 211.13 149.65 213.70 153.03 215.97 156.47 C 215.56 156.87 214.74 157.67 214.32 158.06 C 215.40 159.66 216.30 161.37 216.86 163.22 C 212.40 159.04 209.39 153.68 206.88 148.17 C 204.78 143.46 201.35 139.48 199.31 134.74 C 197.57 130.70 198.13 126.20 199.02 122.03 C 200.19 116.76 199.40 111.36 199.63 106.03 C 200.05 90.90 203.32 75.69 210.11 62.11 Z" fill="#132e44" opacity="1.00" stroke="#132e44" stroke-width="0.25"/>
<path d="M 188.70 86.69 C 193.09 76.60 199.94 66.98 210.11 62.11 C 203.32 75.69 200.05 90.90 199.63 106.03 C 199.40 111.36 200.19 116.76 199.02 122.03 C 198.13 126.20 197.57 130.70 199.31 134.74 C 201.35 139.48 204.78 143.46 206.88 148.17 C 209.39 153.68 212.40 159.04 216.86 163.22 C 218.54 165.00 219.92 167.03 221.27 169.06 C 216.85 178.33 210.15 186.44 202.27 192.99 C 202.67 185.33 203.36 177.65 202.96 169.98 C 202.92 167.10 201.15 164.72 199.47 162.53 C 194.34 156.07 190.01 148.78 188.29 140.62 C 185.22 128.22 184.11 115.29 185.46 102.57 C 186.06 97.21 186.61 91.73 188.70 86.69 Z" fill="#553b3a" opacity="1.00" stroke="#553b3a" stroke-width="0.25"/>
<path d="M 254.47 72.08 C 257.34 75.43 260.95 78.68 261.63 83.27 C 262.34 88.10 259.09 92.16 257.20 96.31 C 265.58 97.83 273.64 93.50 280.32 88.88 C 279.22 90.97 278.05 93.01 277.03 95.14 C 287.74 93.94 294.10 82.59 305.03 82.41 C 309.23 82.01 312.51 85.01 315.36 87.65 C 317.53 89.76 320.17 91.40 322.05 93.79 C 322.67 95.39 322.92 97.11 323.29 98.78 C 324.21 113.19 324.91 127.93 321.01 142.00 C 316.98 157.06 306.80 170.91 292.40 177.44 C 281.17 182.80 267.69 183.18 256.12 178.67 C 250.14 176.10 244.34 172.91 239.56 168.43 C 231.08 161.10 225.61 151.14 220.90 141.15 C 216.73 141.77 212.12 143.09 208.22 140.80 C 202.40 137.10 200.00 128.92 202.61 122.60 C 204.09 119.15 208.35 115.81 212.11 117.96 C 214.77 119.07 217.35 121.89 220.45 120.59 C 224.53 113.57 226.27 104.06 234.25 100.19 C 244.48 94.39 255.15 84.94 254.47 72.08 Z" fill="#fec0a0" opacity="1.00" stroke="#fec0a0" stroke-width="0.25"/>
<path d="M 362.57 75.61 C 367.78 74.15 373.94 75.20 377.75 79.23 C 382.16 83.95 387.28 87.89 392.07 92.18 C 396.10 91.29 400.26 89.16 404.42 90.60 C 409.27 92.02 414.37 95.00 415.86 100.15 C 416.92 103.85 417.66 108.14 415.70 111.68 C 413.66 115.48 410.37 118.68 406.38 120.37 C 403.87 121.11 401.23 121.24 398.64 121.59 C 397.51 130.09 394.62 138.27 391.09 146.04 C 386.97 153.00 381.66 159.32 375.14 164.15 C 367.19 170.99 357.58 175.33 347.94 179.16 C 346.80 179.15 345.71 178.88 344.67 178.34 C 347.46 175.25 350.88 172.68 353.02 169.05 C 355.80 164.49 359.56 160.51 361.43 155.43 C 367.86 142.20 371.01 126.89 367.50 112.39 C 366.26 108.30 364.41 103.60 360.13 101.89 C 354.78 99.92 352.29 94.24 347.26 91.73 C 349.36 84.37 355.11 77.80 362.57 75.61 Z" fill="#e6f5fe" opacity="1.00" stroke="#e6f5fe" stroke-width="0.25"/>
<path d="M 297.98 106.84 C 293.10 107.86 292.51 98.49 297.17 98.46 C 304.23 98.19 311.35 97.74 318.39 98.61 C 318.51 101.11 319.73 104.52 317.30 106.28 C 310.92 107.21 304.41 106.83 297.98 106.84 Z" fill="#083151" opacity="1.00" stroke="#083151" stroke-width="0.25"/>
<path d="M 256.44 99.53 C 259.36 99.35 262.62 97.86 265.27 99.76 C 266.95 101.74 267.13 105.21 265.20 107.09 C 258.49 108.31 251.74 109.60 244.94 110.25 C 241.14 110.25 240.67 105.43 241.67 102.66 C 246.17 100.30 251.53 100.53 256.44 99.53 Z" fill="#093050" opacity="1.00" stroke="#093050" stroke-width="0.25"/>
<path d="M 327.40 114.97 C 332.06 116.51 335.15 121.06 334.78 125.98 C 335.48 132.23 330.97 138.01 325.19 139.94 C 326.19 131.64 327.29 123.35 327.40 114.97 Z" fill="#fac2a4" opacity="1.00" stroke="#fac2a4" stroke-width="0.25"/>
<path d="M 300.57 123.00 C 300.02 118.90 304.96 115.37 308.61 117.42 C 312.63 119.21 312.72 125.12 309.76 127.94 C 309.35 128.05 308.54 128.27 308.14 128.38 C 304.52 129.45 300.63 126.81 300.57 123.00 Z" fill="#083151" opacity="1.00" stroke="#083151" stroke-width="0.25"/>
<path d="M 254.44 118.43 C 258.10 116.09 263.48 119.61 262.74 123.92 C 263.25 129.55 254.67 131.38 252.19 126.76 C 250.78 123.97 251.31 119.78 254.44 118.43 Z" fill="#073252" opacity="1.00" stroke="#073252" stroke-width="0.25"/>
<path d="M 99.18 128.18 C 103.29 123.68 108.96 120.62 115.04 119.94 C 117.96 119.94 120.41 122.22 121.25 124.92 C 122.34 127.91 124.40 131.41 122.52 134.51 C 120.72 137.68 118.76 140.77 117.11 144.03 C 114.65 148.84 110.67 152.83 109.23 158.14 C 107.98 162.56 105.74 166.58 103.83 170.73 C 100.77 177.49 100.24 184.99 98.12 192.03 C 96.44 197.96 96.39 204.18 95.48 210.25 C 94.79 213.90 96.34 217.96 94.41 221.33 C 92.40 222.74 89.58 222.53 87.36 221.78 C 81.71 215.10 79.62 206.31 78.03 197.92 C 77.65 190.11 77.23 182.11 79.19 174.46 C 79.76 172.09 78.06 170.00 77.14 167.96 C 79.88 169.68 82.44 172.45 85.96 172.13 C 91.50 172.09 97.76 171.02 101.40 166.42 C 105.16 161.60 107.83 155.80 108.75 149.74 C 109.33 142.99 106.42 134.96 99.61 132.45 C 94.12 131.36 88.47 132.44 82.97 132.98 C 87.40 128.54 95.03 133.06 99.18 128.18 Z" fill="#e8f6ff" opacity="1.00" stroke="#e8f6ff" stroke-width="0.25"/>
<path d="M 280.01 125.21 C 280.48 124.95 281.41 124.43 281.87 124.17 C 284.35 128.11 286.68 132.16 288.52 136.44 C 289.26 137.81 289.10 139.37 288.86 140.85 C 284.53 142.21 279.98 141.33 275.68 140.35 C 275.55 139.80 275.29 138.71 275.16 138.17 C 278.80 138.30 282.42 138.75 286.07 138.83 C 284.91 133.92 281.22 130.11 280.01 125.21 Z" fill="#112735" opacity="1.00" stroke="#112735" stroke-width="0.25"/>
<path d="M 232.33 127.22 C 236.70 125.15 242.86 127.96 243.28 133.05 C 244.23 137.67 239.42 141.37 235.17 140.95 C 232.76 140.39 230.06 139.18 229.16 136.68 C 227.73 133.29 229.34 129.18 232.33 127.22 Z" fill="#fc937d" opacity="1.00" stroke="#fc937d" stroke-width="0.25"/>
<path d="M 309.76 127.94 C 311.64 127.59 313.61 127.17 315.53 127.53 C 317.70 128.91 319.58 130.95 320.48 133.39 C 321.39 137.49 319.49 142.44 315.45 144.12 C 311.15 144.60 305.83 143.39 304.31 138.78 C 302.32 134.88 305.05 130.71 308.14 128.38 C 308.54 128.27 309.35 128.05 309.76 127.94 Z" fill="#fd937c" opacity="1.00" stroke="#fd937c" stroke-width="0.25"/>
<path d="M 82.97 132.98 C 88.47 132.44 94.12 131.36 99.61 132.45 C 106.42 134.96 109.33 142.99 108.75 149.74 C 107.83 155.80 105.16 161.60 101.40 166.42 C 97.76 171.02 91.50 172.09 85.96 172.13 C 82.44 172.45 79.88 169.68 77.14 167.96 C 73.59 166.03 71.59 162.32 70.34 158.63 C 67.36 148.55 73.21 136.81 82.97 132.98 Z" fill="#dff1fd" opacity="1.00" stroke="#dff1fd" stroke-width="0.25"/>
<path d="M 210.10 145.58 C 213.06 145.19 216.03 144.93 219.01 144.74 C 222.77 150.19 224.94 156.63 229.34 161.66 C 231.97 164.68 234.63 167.70 237.40 170.60 C 240.99 174.36 245.76 176.61 250.07 179.40 C 249.74 179.65 249.08 180.15 248.75 180.41 C 242.42 177.52 235.89 174.91 230.22 170.78 C 224.69 166.89 219.94 161.92 215.97 156.47 C 213.70 153.03 211.13 149.65 210.10 145.58 Z" fill="#644745" opacity="1.00" stroke="#644745" stroke-width="0.25"/>
<path d="M 257.17 149.12 C 261.67 149.16 265.59 151.75 270.02 152.27 C 276.72 153.13 283.68 153.13 290.23 151.26 C 292.41 150.62 294.65 150.16 296.93 150.10 C 296.93 154.00 294.18 157.04 291.94 159.95 C 284.82 168.91 269.91 170.47 261.51 162.49 C 258.50 158.88 255.20 153.97 257.17 149.12 Z" fill="#152839" opacity="1.00" stroke="#152839" stroke-width="0.25"/>
<path d="M 259.05 152.03 C 264.59 153.58 270.10 155.67 275.94 155.61 C 281.73 155.91 287.44 154.83 293.03 153.41 C 290.71 158.87 285.60 163.14 279.83 164.50 C 274.20 165.26 267.54 165.07 263.40 160.59 C 260.93 158.37 259.77 155.18 259.05 152.03 Z" fill="#fcfdfd" opacity="1.00" stroke="#fcfdfd" stroke-width="0.25"/>
<path d="M 252.58 184.63 C 255.42 185.09 258.28 185.41 261.15 185.67 C 258.36 185.71 255.57 185.84 252.79 186.01 C 252.57 188.95 252.59 191.90 252.86 194.84 C 259.93 195.35 267.03 195.13 274.11 194.92 C 274.15 198.28 274.05 201.66 274.26 205.02 C 276.80 207.36 277.02 202.78 277.45 201.19 C 280.37 201.13 283.29 201.14 286.21 201.19 C 286.71 206.95 284.06 213.04 279.04 216.08 C 272.68 219.61 264.93 219.68 258.01 218.00 C 249.50 215.91 242.15 209.20 239.48 200.86 C 242.73 200.68 245.98 200.69 249.22 200.81 C 249.33 202.19 249.42 203.56 249.51 204.94 C 250.19 205.06 251.56 205.30 252.24 205.42 C 252.89 198.50 252.21 191.56 252.58 184.63 Z" fill="#fec1a0" opacity="1.00" stroke="#fec1a0" stroke-width="0.25"/>
<path d="M 252.79 186.01 C 255.57 185.84 258.36 185.71 261.15 185.67 C 265.46 185.64 269.77 185.61 274.08 185.80 C 274.25 188.84 274.25 191.88 274.11 194.92 C 267.03 195.13 259.93 195.35 252.86 194.84 C 252.59 191.90 252.57 188.95 252.79 186.01 Z" fill="#de825f" opacity="1.00" stroke="#de825f" stroke-width="0.25"/>
<path d="M 193.91 207.88 C 204.02 202.35 215.71 200.92 227.06 200.87 C 229.03 214.60 234.11 228.80 244.97 238.01 C 254.74 246.01 268.57 247.30 280.38 243.66 C 278.64 259.24 277.41 274.91 275.12 290.43 C 261.91 287.14 248.55 284.52 235.27 281.52 C 226.96 279.51 218.01 280.73 210.42 284.59 C 207.89 285.93 205.58 287.62 203.10 289.04 C 206.95 276.71 210.48 264.29 214.07 251.89 C 215.11 248.36 216.29 244.86 216.85 241.22 C 216.24 241.27 215.01 241.37 214.39 241.41 C 209.45 252.71 204.96 264.20 200.12 275.54 C 185.78 266.55 171.32 257.75 156.93 248.86 C 160.02 243.75 163.64 239.01 167.16 234.19 C 174.64 224.16 182.82 214.09 193.91 207.88 Z" fill="#ffffff" opacity="1.00" stroke="#ffffff" stroke-width="0.25"/>
<path d="M 230.07 200.79 C 232.02 200.72 233.98 200.67 235.94 200.65 C 238.78 207.08 242.68 213.45 248.86 217.16 C 257.40 222.63 268.59 223.69 278.04 220.02 C 282.82 218.20 286.71 214.09 288.06 209.13 C 288.77 206.54 289.03 203.86 289.38 201.21 C 291.61 201.24 293.84 201.28 296.07 201.30 C 297.04 210.42 296.59 220.10 292.57 228.49 C 288.41 237.31 278.63 242.64 269.05 242.63 C 260.62 242.86 251.64 240.52 245.45 234.53 C 236.04 225.93 231.79 213.12 230.07 200.79 Z" fill="#fefefe" opacity="1.00" stroke="#fefefe" stroke-width="0.25"/>
<path d="M 299.32 202.06 C 312.80 202.58 326.62 208.04 335.33 218.65 C 339.11 223.44 342.08 228.82 344.66 234.33 C 348.11 242.25 352.08 249.94 355.01 258.08 C 352.99 259.12 350.92 260.09 348.79 260.87 C 337.68 264.94 326.69 269.33 315.58 273.37 C 315.06 273.44 314.03 273.60 313.51 273.68 C 312.83 263.19 312.26 252.70 311.48 242.23 C 310.81 242.13 309.47 241.93 308.79 241.83 C 309.24 257.65 310.53 273.47 311.33 289.29 C 311.53 292.92 311.61 296.56 311.41 300.19 C 305.88 298.65 300.65 296.16 295.01 294.99 C 289.48 293.40 283.72 292.72 278.28 290.81 C 279.49 279.49 280.73 268.18 281.87 256.86 C 282.59 252.06 282.40 247.14 283.54 242.40 C 286.33 239.58 290.07 237.73 292.35 234.37 C 299.16 225.12 299.78 213.12 299.32 202.06 Z" fill="#76e6fe" opacity="1.00" stroke="#76e6fe" stroke-width="0.25"/>
<path d="M 308.79 241.83 C 309.47 241.93 310.81 242.13 311.48 242.23 C 312.26 252.70 312.83 263.19 313.51 273.68 C 314.03 273.60 315.06 273.44 315.58 273.37 C 314.24 275.53 311.82 277.53 312.43 280.36 C 312.32 283.31 313.78 286.95 311.33 289.29 C 310.53 273.47 309.24 257.65 308.79 241.83 Z" fill="#003658" opacity="1.00" stroke="#003658" stroke-width="0.25"/>
<path d="M 160.89 264.68 C 161.86 262.78 161.91 259.68 163.97 258.78 C 168.20 260.76 171.82 263.79 175.77 266.24 C 182.72 271.03 190.01 275.36 196.69 280.51 C 196.97 283.90 195.23 287.01 194.30 290.17 C 182.97 281.93 172.20 272.95 160.89 264.68 Z" fill="#de805c" opacity="1.00" stroke="#de805c" stroke-width="0.25"/>
<path d="M 422.70 259.90 C 424.23 259.17 426.00 259.47 427.64 259.38 C 430.18 263.03 431.13 267.39 431.39 271.77 C 432.56 278.86 431.28 286.02 430.03 293.01 C 429.12 298.08 426.67 302.75 425.97 307.85 C 428.11 311.11 433.03 311.35 435.54 314.45 C 438.59 318.24 438.13 323.46 437.89 328.02 C 437.60 333.60 434.08 338.42 430.14 342.11 C 425.39 345.39 419.70 347.33 413.99 347.95 C 409.44 348.57 405.26 346.43 401.10 344.99 C 395.02 349.17 389.36 354.64 382.05 356.49 C 378.64 355.57 375.14 355.06 371.70 354.28 C 368.75 351.27 369.94 346.17 370.42 342.37 C 373.38 336.90 377.71 332.28 381.02 327.01 C 383.49 323.37 385.54 319.48 387.71 315.67 C 390.19 311.29 394.58 308.55 397.66 304.67 C 399.58 302.23 401.31 299.66 403.24 297.24 C 406.49 293.16 408.32 288.23 410.55 283.57 C 412.43 279.33 416.22 276.30 418.01 272.01 C 419.87 268.09 420.09 263.45 422.70 259.90 Z" fill="#e7f6fe" opacity="1.00" stroke="#e7f6fe" stroke-width="0.25"/>
<path d="M 160.89 264.68 C 172.20 272.95 182.97 281.93 194.30 290.17 C 192.44 296.00 190.32 301.84 189.67 307.95 C 189.92 308.29 190.44 308.97 190.70 309.31 C 200.24 310.93 210.02 309.93 219.66 310.22 C 220.96 311.60 222.30 312.98 223.84 314.12 C 233.19 320.75 243.21 326.39 252.49 333.13 C 236.99 338.06 221.19 341.95 205.61 346.57 C 200.65 347.46 195.78 348.75 190.86 349.79 C 185.30 350.78 179.65 351.74 173.98 351.47 C 166.97 351.17 160.08 347.79 155.83 342.15 C 150.01 334.86 149.09 325.03 149.52 316.03 C 150.49 298.43 155.33 281.32 160.89 264.68 Z" fill="#ffc1a0" opacity="1.00" stroke="#ffc1a0" stroke-width="0.25"/>
<path d="M 316.42 276.38 C 326.43 272.60 336.38 268.64 346.49 265.14 C 347.06 268.61 347.58 272.09 347.98 275.58 C 343.46 275.46 339.50 277.90 335.38 279.36 C 328.36 281.90 321.68 285.33 314.44 287.24 C 314.74 283.71 311.69 277.82 316.42 276.38 Z" fill="#de815f" opacity="1.00" stroke="#de815f" stroke-width="0.25"/>
<path d="M 335.38 279.36 C 339.50 277.90 343.46 275.46 347.98 275.58 C 349.47 290.34 351.34 305.21 350.03 320.05 C 349.13 330.36 344.65 340.89 335.74 346.72 C 328.29 350.53 319.54 351.03 311.58 348.60 C 295.45 343.95 280.91 335.26 266.16 327.47 C 255.90 321.57 245.63 315.69 235.55 309.49 C 233.07 308.15 230.77 306.27 228.00 305.59 C 218.57 307.36 208.91 306.48 199.37 306.51 C 199.55 302.63 199.68 298.39 202.26 295.23 C 208.21 287.92 217.69 283.91 227.02 283.82 C 231.50 283.96 235.90 284.96 240.27 285.87 C 255.18 289.27 270.09 292.71 285.02 296.02 C 293.62 298.07 302.30 300.01 310.44 303.55 C 314.02 304.92 317.31 307.30 321.27 307.44 C 320.86 304.21 317.33 303.47 315.27 301.56 C 313.99 296.93 314.80 291.99 314.44 287.24 C 321.68 285.33 328.36 281.90 335.38 279.36 Z" fill="#ffc1a0" opacity="1.00" stroke="#ffc1a0" stroke-width="0.25"/>
<path d="M 219.66 310.22 C 223.07 310.05 226.52 309.38 229.93 309.95 C 234.29 311.61 237.83 314.81 241.89 317.05 C 248.72 321.33 256.23 324.64 262.41 329.88 C 259.17 331.17 255.83 332.17 252.49 333.13 C 243.21 326.39 233.19 320.75 223.84 314.12 C 222.30 312.98 220.96 311.60 219.66 310.22 Z" fill="#df815d" opacity="1.00" stroke="#df815d" stroke-width="0.25"/>
<path d="M 262.99 330.88 C 264.04 329.74 265.10 328.60 266.16 327.47 C 280.91 335.26 295.45 343.95 311.58 348.60 C 319.54 351.03 328.29 350.53 335.74 346.72 C 336.18 347.34 337.08 348.60 337.53 349.23 C 334.34 351.79 330.16 352.15 326.47 353.62 C 329.49 375.04 332.55 396.47 335.25 417.94 C 334.01 418.58 332.75 419.19 331.51 419.84 C 333.66 440.10 335.75 460.37 337.67 480.66 L 338.12 481.31 C 345.90 481.63 353.69 481.14 361.46 481.58 C 361.55 482.58 361.64 483.59 361.73 484.60 C 346.50 485.16 331.24 484.77 316.00 484.90 C 268.66 484.84 221.33 484.99 174.00 484.88 C 165.74 484.78 157.47 485.13 149.23 484.62 C 149.32 483.60 149.41 482.57 149.51 481.55 C 157.95 481.12 166.40 481.58 174.84 481.30 L 175.40 480.73 C 178.25 459.65 181.97 438.69 184.89 417.63 C 184.07 417.50 182.43 417.26 181.61 417.13 C 181.65 415.38 181.82 413.64 182.16 411.93 C 185.46 393.66 188.59 375.36 192.09 357.12 C 192.20 355.48 193.06 353.63 192.12 352.10 C 191.80 351.53 191.17 350.37 190.86 349.79 C 195.78 348.75 200.65 347.46 205.61 346.57 C 210.26 346.88 214.80 344.86 219.43 346.00 C 211.93 348.58 204.13 350.06 196.51 352.22 C 195.73 356.76 194.78 361.28 194.23 365.86 C 205.27 369.23 216.62 371.43 228.01 373.25 C 243.15 375.57 258.39 377.57 273.72 377.91 C 273.63 364.27 273.14 350.65 272.64 337.03 C 272.87 333.49 268.29 331.92 265.38 332.60 C 264.78 332.17 263.59 331.31 262.99 330.88 Z" fill="#073354" opacity="1.00" stroke="#073354" stroke-width="0.25"/>
<path d="M 265.38 332.60 C 268.29 331.92 272.87 333.49 272.64 337.03 C 273.14 350.65 273.63 364.27 273.72 377.91 C 258.39 377.57 243.15 375.57 228.01 373.25 C 216.62 371.43 205.27 369.23 194.23 365.86 C 194.78 361.28 195.73 356.76 196.51 352.22 C 204.13 350.06 211.93 348.58 219.43 346.00 C 234.91 342.15 250.22 337.57 265.38 332.60 Z" fill="#ffffff" opacity="1.00" stroke="#ffffff" stroke-width="0.25"/>
<path d="M 275.97 336.82 C 290.97 343.64 305.71 353.49 322.78 353.47 C 324.83 365.58 326.28 377.78 328.08 389.93 C 329.04 398.60 330.72 407.19 331.13 415.91 C 303.29 419.82 275.12 420.95 247.03 420.37 C 226.67 419.52 206.23 418.36 186.15 414.73 L 185.59 413.98 C 187.90 398.97 191.16 384.11 193.44 369.08 C 209.15 373.25 225.16 376.12 241.25 378.42 C 253.03 379.68 264.85 381.23 276.72 380.94 C 276.79 366.23 276.01 351.52 275.97 336.82 Z" fill="#76e6fe" opacity="1.00" stroke="#76e6fe" stroke-width="0.25"/>
<path d="M 109.14 353.13 C 111.92 347.94 118.01 345.88 123.59 346.47 C 127.09 347.49 129.89 350.50 130.86 353.99 C 132.74 360.26 133.57 367.08 137.43 372.57 C 140.69 377.22 143.72 382.23 148.36 385.67 C 151.70 388.49 156.14 389.22 160.00 391.08 C 158.47 394.81 154.67 396.54 151.34 398.33 C 145.11 401.65 137.64 402.69 130.74 401.20 C 124.34 399.28 120.48 393.47 116.26 388.75 C 113.29 387.33 109.83 390.57 106.69 389.28 C 104.60 388.34 101.77 387.36 101.32 384.80 C 100.61 381.65 99.90 378.22 101.11 375.10 C 102.31 371.87 105.25 369.73 106.75 366.67 C 107.82 362.21 106.02 357.00 109.14 353.13 Z" fill="#e8f6fe" opacity="1.00" stroke="#e8f6fe" stroke-width="0.25"/>
<path d="M 258.58 481.40 C 259.26 474.86 259.95 468.28 261.42 461.86 C 262.32 468.36 263.62 474.81 264.06 481.36 C 262.23 481.38 260.40 481.39 258.58 481.40 Z" fill="#f6fdfd" opacity="1.00" stroke="#f6fdfd" stroke-width="0.25"/>
</svg>