<?xml version="1.0" encoding="utf-8"?>
<svg xmlns="http://www.w3.org/2000/svg" height="512pt" version="1.1" viewBox="0 0 512 512" width="512pt">
<path d="M 0.00 0.00 L 512.00 0.00 L 512.00 512.00 L 0.00 512.00 L 0.00 0.00 Z" fill="transparent" opacity="1.00" stroke="transparent" stroke-width="0.25"/>
<path d="M 317.05 184.20 C 322.71 179.79 329.69 176.10 337.09 176.99 C 342.37 177.53 346.51 181.55 349.16 185.89 C 352.34 192.19 352.60 199.48 352.52 206.40 C 374.29 211.90 390.87 229.55 400.64 249.09 C 403.46 249.63 405.56 252.09 405.30 255.04 C 404.38 260.83 400.82 265.76 397.31 270.30 C 384.01 285.43 364.37 294.44 344.35 295.61 C 343.50 299.26 342.64 302.92 341.22 306.39 C 339.68 309.09 341.96 311.76 342.84 314.27 C 344.09 317.62 347.47 319.22 350.46 320.70 C 350.47 321.12 350.50 321.96 350.51 322.38 C 349.38 322.77 348.25 323.16 347.13 323.56 C 347.61 324.40 348.08 325.26 348.53 326.13 C 347.39 328.98 344.49 326.86 342.70 325.94 C 342.43 329.70 338.70 328.27 336.23 328.40 C 335.65 329.59 335.72 330.94 335.53 332.23 C 334.93 332.53 333.73 333.14 333.13 333.44 C 326.04 329.09 317.65 331.16 309.85 330.71 C 305.24 330.54 301.56 327.42 298.21 324.60 C 287.09 328.04 275.82 330.97 264.43 333.38 C 263.61 334.56 262.94 336.01 261.53 336.61 C 256.50 339.13 250.87 340.07 245.39 341.09 C 226.76 343.99 207.82 344.27 189.02 343.42 C 175.43 342.10 161.52 340.71 148.88 335.18 C 142.65 332.70 137.07 328.29 134.12 322.16 C 130.16 324.12 126.30 326.43 123.37 329.81 C 122.11 335.44 127.03 339.38 131.43 341.71 C 145.99 349.33 162.83 351.16 179.04 350.53 C 194.11 350.16 208.86 346.24 223.95 346.24 C 233.63 345.80 243.67 347.79 251.86 353.14 C 253.45 353.87 253.41 355.70 253.83 357.15 C 253.15 357.50 251.77 358.19 251.08 358.54 C 243.71 355.73 236.00 353.23 228.02 353.34 C 216.80 352.96 206.02 356.59 195.09 358.49 C 174.69 362.06 153.14 361.54 133.60 354.23 C 123.78 350.46 113.46 345.35 108.00 335.90 C 106.56 331.89 106.62 326.85 109.72 323.59 C 114.97 317.30 122.96 314.24 130.44 311.50 C 126.17 296.70 124.79 280.53 129.90 265.75 C 136.80 244.97 152.77 228.71 170.05 215.98 C 202.16 192.80 246.28 185.52 283.22 201.09 C 284.73 194.45 288.89 188.42 294.84 185.02 C 301.52 181.05 310.03 181.17 317.05 184.20 Z" fill="#084570" opacity="1.00" stroke="#084570" stroke-width="0.25"/>
<path d="M 321.80 187.00 C 326.23 183.53 332.17 181.89 337.64 183.66 C 338.01 185.21 338.40 186.76 338.84 188.30 C 338.54 188.27 337.94 188.21 337.64 188.18 C 334.44 184.33 329.33 188.55 326.78 191.18 C 325.08 189.82 323.43 188.42 321.80 187.00 Z" fill="#7ea5c5" opacity="1.00" stroke="#7ea5c5" stroke-width="0.25"/>
<path d="M 337.64 183.66 C 342.32 185.56 344.74 192.56 341.36 196.65 C 340.64 193.83 339.67 191.08 338.84 188.30 C 338.40 186.76 338.01 185.21 337.64 183.66 Z" fill="#27587d" opacity="1.00" stroke="#27587d" stroke-width="0.25"/>
<path d="M 337.64 188.18 C 337.94 188.21 338.54 188.27 338.84 188.30 C 339.67 191.08 340.64 193.83 341.36 196.65 C 341.96 199.49 342.30 202.37 342.64 205.24 C 340.39 205.26 338.14 205.32 335.89 205.40 C 334.05 200.47 330.86 196.28 327.77 192.10 C 330.55 189.70 333.79 187.66 337.64 188.18 Z" fill="#fcffff" opacity="1.00" stroke="#fcffff" stroke-width="0.25"/>
<path d="M 290.05 202.68 C 291.38 195.14 298.18 188.70 305.97 188.65 C 312.81 188.54 318.76 193.08 322.65 198.37 C 325.59 202.35 329.63 206.21 329.69 211.50 C 327.53 206.33 323.63 202.13 319.55 198.40 C 316.31 195.45 312.17 193.42 307.71 193.46 C 307.62 193.92 307.42 194.84 307.32 195.30 C 311.17 195.17 314.79 196.79 317.64 199.31 C 324.33 205.09 329.25 212.68 333.00 220.62 C 335.05 220.09 336.92 219.11 338.53 217.72 C 338.36 214.25 337.77 210.82 337.19 207.40 C 354.91 206.57 371.83 215.46 383.41 228.49 C 389.01 235.13 394.31 242.22 397.83 250.21 C 397.25 250.62 396.09 251.43 395.51 251.84 C 395.53 253.72 394.87 256.00 396.52 257.42 C 397.56 257.97 398.63 258.48 399.73 258.95 C 390.79 274.95 373.67 284.81 356.11 288.47 C 345.30 291.05 333.91 290.17 323.54 286.28 C 323.05 287.51 322.60 288.77 322.28 290.06 C 326.69 293.37 332.06 294.79 337.43 295.62 C 336.70 299.61 336.29 303.75 334.50 307.44 C 333.26 309.81 331.40 311.75 329.78 313.85 C 326.86 307.89 325.06 301.43 321.91 295.59 C 321.27 297.29 320.87 299.14 321.45 300.93 C 323.06 307.53 326.42 313.57 327.95 320.21 C 328.47 321.61 327.95 323.02 327.58 324.39 C 321.40 325.15 315.14 325.69 308.93 324.98 C 307.15 324.71 305.21 324.50 303.87 323.17 C 300.36 320.10 296.56 317.22 294.03 313.24 C 292.49 313.26 290.95 313.31 289.41 313.37 C 289.39 317.43 292.80 319.88 295.56 322.26 C 285.35 325.00 275.19 327.98 264.80 329.92 C 265.03 323.41 262.61 317.13 259.35 311.61 C 254.27 302.84 247.85 294.16 238.61 289.48 C 231.54 285.80 223.05 286.28 215.69 288.77 C 213.84 289.22 212.01 291.85 214.88 292.42 C 223.04 291.29 232.11 289.68 239.51 294.38 C 247.62 299.76 253.46 308.14 257.06 317.08 C 258.67 321.25 259.91 325.83 258.53 330.25 C 254.06 333.63 248.43 334.57 243.08 335.66 C 224.28 339.32 205.03 339.15 185.98 338.40 C 174.52 337.23 162.94 335.66 152.15 331.44 C 146.82 329.33 142.23 325.24 140.08 319.86 C 134.99 306.94 131.06 292.98 132.79 278.98 C 135.42 262.74 144.91 248.65 155.57 236.53 C 167.20 223.57 181.85 213.10 198.40 207.46 C 217.41 200.99 237.76 197.26 257.84 199.83 C 266.34 200.99 274.47 203.80 282.46 206.80 C 282.71 214.57 285.14 222.61 290.87 228.10 C 297.50 235.08 307.64 237.88 317.03 236.62 C 318.82 236.78 319.76 235.47 320.04 233.85 C 311.81 234.33 302.89 232.91 296.61 227.15 C 290.13 220.93 288.63 211.20 290.05 202.68 Z" fill="#feffff" opacity="1.00" stroke="#feffff" stroke-width="0.25"/>
<path d="M 367.36 232.40 C 370.74 230.40 375.71 232.92 375.88 236.90 C 376.25 238.92 375.18 240.70 374.42 242.48 C 371.90 243.53 368.65 244.53 366.37 242.39 C 363.02 240.08 363.40 233.89 367.36 232.40 Z" fill="#094571" opacity="1.00" stroke="#094571" stroke-width="0.25"/>
</svg>