<?xml version="1.0" encoding="UTF-8"?>
<svg id="Layer_1" xmlns="http://www.w3.org/2000/svg" version="1.1" viewBox="0 0 512 512">
  <!-- Generator: Adobe Illustrator 29.4.0, SVG Export Plug-In . SVG Version: 2.1.0 Build 152)  -->
  <defs>
    <style>
      .st0 {
        fill: #fff;
        stroke: #fff;
      }

      .st0, .st1, .st2 {
        stroke-width: .2px;
      }

      .st1 {
        fill: #75e0ff;
        stroke: #75e0ff;
      }

      .st2 {
        fill: #043353;
        stroke: #043353;
      }
    </style>
  </defs>
  <path class="st2" d="M196.4,103.7c13.4-1.7,27,2.4,38.1,9.9,4.5,2.7,8.2,6.4,12.4,9.5,1.4,1.3,3.5.9,4.8-.3,5.3-4.1,11.1-7.5,16.9-11.1,12.4-7.3,27.4-11.3,41.6-7.6,18.9,4.8,34.5,17.3,49.1,29.7,11.4,9.9,22.2,20.4,32.8,31.2,10.8,10.6,21.2,21.7,33.7,30.3,6.1,4.1,13.4,7.8,21,6.3,2-.2,4.6-2.2,5.9.3-.6,2.5-1.6,4.8-2.8,7-4.9,8.9-10.2,17.7-15.5,26.4-11.7,20.2-21.2,41.8-35.6,60.4-11.4,13.9-23.8,27-38.4,37.6-24.8,18.5-54.5,30.9-85.5,33.1-8.6.5-17.3,1.1-25.9.5-21.2-1.4-43-1.6-63.2-8.9-27.6-10.4-52.2-28.1-71.9-50-11.1-11.7-20.2-25.3-27.2-39.8-9.3-19.3-17.5-39.3-28.2-57.9-.9-1.9-2.5-4.1-1.3-6.2,3-1.9,6.4-2.8,9.5-4.6,9.6-5.2,18-12.5,25.9-20.1,15-14.4,28.1-30.6,43.7-44.3,16.8-15.4,36.9-29.2,60.1-31.7Z"/>
  <path class="st1" d="M257.1,123.1c11.7-7.8,24.5-15.4,38.9-16.1,9.8-.6,19.5,2.5,28.1,6.9,15.8,8.1,29,20.2,42,32,17.8,15.9,33.3,34.1,51.8,49.3,5.3,4.3,11.1,8.1,17.7,10.3,4,1.4,8.2.9,12.3.6-8.4,14.9-17.5,29.4-25.2,44.7-7.3,13.5-14.3,27.2-23.4,39.6-22.2,29.8-52.8,54-88.1,66-20.3,6.6-41.9,8.5-63.2,7.7-20.6-1.8-41.7-1.8-61.4-8.7-12.9-4.9-25.2-11.4-36.6-19.3-17.6-11.7-32.5-27-45.5-43.5-14-18.9-21.8-41.2-32-62.2-3.5-8-8.1-15.5-12-23.3,9.2-2.7,17.1-8.3,24.5-14.2,18.2-15.1,32.8-33.9,50.1-49.9,12.6-11.9,26.5-22.8,42.6-29.4,9-3.7,18.7-6.2,28.4-5.9,10.8.8,21.3,4.9,30,11.3,4.2,2.5,7.4,6.7,12,8.4,3.6.7,6.3-2.5,9.1-4.3Z"/>
  <path class="st2" d="M173.1,181.1c17.1-5.9,36.2-8.3,53.5-1.8,8.6,2.7,16,9.3,25.4,9.2,10.9.4,19.9-6.7,30.1-9.5,10-3.5,21.1-4,31.1-.3,16.6,5.9,31.4,15.7,47.6,22.5,15.3,7.1,31.1,12.8,47.1,17.9,4.9,1.5,9.9,2.6,14.6,4.7.1,3.7-.8,7.5-3.4,10.2-16.6,19-38.4,32.4-61.1,42.8-10.1,4.2-20.2,8.4-30.8,11.3-18,5.5-36.4,10.1-55.2,11.8-11.8,1.2-23.8,1-35.6.7-33.8-1.8-66.7-11.7-97.3-25.7-19.6-8.7-36.2-22.7-50.7-38.3-3.6-4.1-7.5-7.9-10.3-12.6-1-1.6-1.1-4.2.8-5.2,2-.9,4.1-1.3,6.2-1.9,10.1-2.7,19.5-7.1,29.2-10.8,19.8-7.9,38.8-17.9,58.9-25Z"/>
  <path class="st0" d="M185.8,180.8c13.4-2.9,27.6-3,40.5,2,6.3,2.2,11.8,6.1,18.3,7.8,0,11.3.2,22.7-.2,34,.1,4-4.3,4.7-7.4,5-9.6.4-19.1,0-28.7-.8-6.2-.5-12.6-.8-18.6-2.6-3.6-2-3.5-6.7-4-10.2-.4-11.7-.2-23.5.1-35.2Z"/>
  <path class="st0" d="M288.4,180.3c8.5-1.9,17.5-1.1,25.7,1.6,1.4.5,3.4,1.2,3.2,3,.2,10.7.6,21.4,0,32.1-.5,3.9-1,9.7-6,10.1-16.3,2.7-32.8,2.9-49.3,2.6-2.8-.4-7-.1-8.2-3.4-2.2-11.3-1.2-22.9-1.5-34.3,13-.7,23.6-9.2,36.1-11.7Z"/>
  <path class="st0" d="M138.9,199.1c13-6.1,26-12.5,39.9-16.3,0,9.4,0,18.9-.7,28.3-.6,2.7-.2,6.7-3.2,8-9.2,3.3-19.4,2.9-28.6-.4-3.7-1.1-3.7-5.6-4.8-8.6-.6-3.7-2.8-7.3-2.7-11Z"/>
  <path class="st0" d="M324.5,186.6c12.2,5.8,23.9,12.7,36.4,17.9-.8,4-2.1,8.2-5.3,11-4.6,3.2-10.1,4.9-15.5,5.8-4,.4-8.3.7-11.9-1.5-1.9-1.3-1.9-3.9-2.3-5.9-1-9.1-1.7-18.2-1.4-27.4Z"/>
  <path class="st0" d="M314.7,243.8c7.3-2,14.7-3.8,22.1-4.6,2.7-.3,3.4,2.7,3.5,4.8.2,10.7,0,21.4,0,32.1-.2,1.3.5,3.5-1.4,3.9-8.8,3.1-17.6,6.3-26.7,8.3.1-11.8,0-23.5,0-35.3,0-3.2,1.1-6.3,2.4-9.2Z"/>
  <path class="st0" d="M164.7,240.6c5-1,10,.8,14.9,1.6,3.2.8,6.7,1,9.4,2.8,1.9,2.2,1.7,5.3,1.8,8,0,12.3,0,24.7-.1,37-9.2-2.6-18.2-5.5-27.2-8.8,0-11.4,0-22.8,0-34.2,0-2.2.6-4.3,1.2-6.4Z"/>
  <path class="st0" d="M197.9,247.8c1.6-3.6,6.1-2.5,9.2-2.3,11.5,1.5,23.1,2.4,34.7,3.1,2.4,0,4.8,1.5,5.6,3.9.9,3.1,1,6.4,1.1,9.7.2,11.7,0,23.4.2,35.2-16.5.6-33.1-1.7-49.2-5.4-1-7.9-2.5-15.8-2.5-23.8,0-6.8-.9-13.7.7-20.3Z"/>
  <path class="st0" d="M267.3,247.8c11-.5,21.8-2.2,32.7-3.2,3-.7,6,1.5,6.3,4.5.5,13.9.3,27.9-2,41.7-16.2,4-32.9,6.3-49.6,6.7,0-13.2-.1-26.3.1-39.5.2-3.1.2-7.1,3.3-8.9,2.9-1.1,6.2-1,9.2-1.4Z"/>
</svg>