<?xml version="1.0" encoding="utf-8"?>
<svg xmlns="http://www.w3.org/2000/svg" height="512pt" version="1.1" viewBox="0 0 512 512" width="512pt">
<path d="M 0.00 0.00 L 512.00 0.00 L 512.00 512.00 L 0.00 512.00 L 0.00 0.00 Z" fill="transparent" opacity="1.00" stroke="transparent" stroke-width="0.25"/>
<path d="M 301.06 40.44 C 308.43 40.48 315.89 40.04 323.13 41.71 C 318.82 42.85 314.34 42.32 309.94 42.44 C 318.63 44.57 327.70 42.62 336.49 44.17 C 351.43 45.11 366.41 45.90 381.23 48.25 C 377.92 48.43 374.62 48.67 371.32 49.01 C 379.28 51.68 387.80 52.06 396.04 53.48 C 400.16 54.02 404.18 55.10 408.27 55.87 C 408.36 56.72 408.46 57.57 408.56 58.43 C 411.79 59.35 415.02 60.28 418.19 61.38 C 411.86 62.93 405.36 60.61 398.91 61.48 C 399.96 62.24 400.96 63.17 402.25 63.52 C 409.16 65.44 416.27 66.56 423.16 68.52 C 415.71 68.77 408.38 66.81 400.91 67.26 C 406.33 68.39 411.80 69.38 417.14 70.85 C 417.41 71.78 417.58 72.74 417.78 73.70 C 418.51 74.39 419.25 75.09 419.99 75.78 C 414.68 75.47 409.34 75.54 404.07 74.77 C 401.50 74.29 398.99 75.13 396.57 75.89 C 398.06 77.24 399.99 77.75 401.90 78.16 C 401.47 78.51 400.60 79.21 400.17 79.55 C 403.72 81.09 407.57 81.60 411.28 82.63 C 406.85 84.05 402.19 83.33 397.65 83.80 C 399.45 85.49 401.91 86.01 404.19 86.74 C 402.79 87.03 401.40 87.34 400.02 87.66 C 398.42 88.93 396.65 89.96 394.87 90.95 C 405.15 92.35 415.43 93.80 425.57 96.05 C 425.12 97.01 424.75 97.99 424.36 98.97 C 430.24 101.49 436.05 104.93 442.68 104.65 C 442.65 106.19 441.39 106.72 440.05 106.96 C 445.01 108.04 449.84 109.71 454.55 111.61 C 456.06 112.15 457.21 113.31 458.26 114.49 C 449.63 113.78 441.36 110.47 432.65 110.63 C 433.65 111.45 434.65 112.31 435.68 113.12 C 434.79 113.62 433.91 114.11 433.03 114.61 C 436.22 116.56 439.58 118.18 443.00 119.67 C 435.60 119.96 428.72 116.33 421.34 116.77 C 422.89 118.12 424.76 118.99 426.71 119.64 C 425.11 120.09 423.52 120.59 421.95 121.12 C 423.48 123.54 426.20 124.28 428.88 124.57 C 430.94 124.27 433.37 126.76 431.15 128.35 C 428.45 128.26 425.59 126.84 423.03 128.30 C 418.30 130.57 412.94 129.10 407.92 129.58 C 399.88 129.35 391.83 129.75 383.93 131.09 C 390.84 132.36 397.78 133.51 404.70 134.79 C 404.70 135.36 404.69 136.50 404.69 137.07 C 409.80 139.22 415.49 139.03 420.73 140.68 C 422.33 141.72 423.85 142.89 425.35 144.08 C 419.28 145.81 413.12 143.00 406.98 144.11 C 407.97 146.12 409.34 147.89 410.98 149.41 C 406.23 149.36 401.46 149.25 396.75 149.88 C 389.73 151.19 382.75 148.48 375.71 149.47 C 378.75 152.21 383.26 151.52 387.02 152.18 C 393.34 152.28 399.14 155.17 405.42 155.49 C 407.32 155.63 409.19 156.01 411.04 156.47 C 402.98 157.03 395.03 155.13 386.97 155.28 C 391.31 156.66 395.81 157.36 400.19 158.54 C 400.49 159.01 401.08 159.94 401.38 160.41 C 397.23 160.78 393.06 160.51 388.90 160.70 C 401.00 163.24 413.50 164.51 425.08 169.00 C 421.44 171.75 417.07 169.71 413.02 169.62 C 407.97 169.57 403.03 168.04 397.96 168.64 C 400.95 169.99 404.47 168.97 407.34 170.60 C 405.29 171.14 403.19 171.48 401.08 171.52 C 397.01 171.50 393.07 172.73 389.00 172.61 C 392.40 173.97 396.62 172.40 399.52 174.88 C 395.69 175.55 391.81 175.36 387.95 175.40 C 391.38 176.07 394.85 176.49 398.30 177.05 C 396.17 179.29 392.80 178.26 390.06 178.78 C 384.40 179.72 378.75 178.36 373.07 178.42 C 365.67 178.37 358.24 177.99 350.85 178.54 C 353.05 180.47 356.32 179.78 359.01 180.36 C 369.13 181.11 378.73 184.45 388.63 186.40 C 394.22 187.87 399.99 188.65 405.47 190.51 C 406.31 190.82 407.15 191.14 407.99 191.47 C 406.08 191.65 404.16 191.83 402.26 192.04 C 407.96 195.69 414.98 195.97 421.08 198.70 C 416.76 197.85 412.45 196.90 408.05 196.58 C 408.17 197.62 408.31 198.66 408.44 199.70 C 410.71 200.75 412.98 201.84 415.17 203.08 C 419.91 206.10 425.80 206.84 430.15 210.57 C 424.48 211.46 419.35 208.40 413.79 208.25 C 416.17 209.51 418.62 210.61 421.08 211.73 C 413.84 212.16 407.12 209.10 400.05 208.22 C 400.67 210.03 400.97 212.44 403.09 213.12 C 407.05 214.55 411.46 214.90 414.94 217.50 C 408.31 216.51 401.85 212.80 395.05 214.58 C 395.23 214.94 395.58 215.66 395.75 216.01 C 397.63 217.03 399.19 218.51 400.16 220.43 C 392.04 220.60 383.91 220.33 375.79 220.60 C 378.61 221.33 381.46 221.98 384.28 222.76 C 384.39 223.64 384.50 224.54 384.63 225.43 C 400.10 227.27 415.39 230.76 430.02 236.12 C 438.25 237.87 445.01 243.14 452.79 246.02 C 456.74 247.56 460.41 249.70 464.13 251.72 C 467.52 253.57 471.43 254.99 473.58 258.43 C 467.51 257.89 461.65 255.63 455.93 253.56 C 455.35 253.58 454.21 253.62 453.63 253.64 C 454.38 255.16 455.75 256.16 457.25 256.85 C 464.45 260.38 471.44 264.36 478.08 268.86 C 472.77 267.44 468.29 263.83 462.78 263.03 C 467.26 267.23 473.48 268.85 478.00 273.01 C 480.84 275.59 484.49 277.09 487.18 279.85 C 481.29 279.11 476.48 275.26 471.04 273.18 C 470.32 273.79 469.60 274.40 468.89 275.01 C 465.56 274.40 462.26 273.54 458.89 273.18 C 461.73 276.79 466.47 278.20 469.20 281.86 C 466.13 281.08 463.05 280.21 459.86 280.28 C 465.04 284.45 471.50 286.88 476.14 291.75 C 472.19 292.04 468.81 289.56 464.92 289.48 C 461.41 289.27 458.36 287.29 454.96 286.60 C 456.17 290.48 457.78 294.55 461.60 296.55 C 461.51 299.71 460.79 303.13 462.66 305.96 C 460.74 304.98 458.67 304.35 456.56 303.96 C 456.45 304.97 456.34 305.98 456.24 307.00 C 451.95 305.98 448.06 303.73 443.70 302.97 C 443.73 301.18 443.95 298.98 442.13 297.94 C 439.07 296.12 435.34 296.19 431.92 295.63 C 422.84 294.74 414.20 290.65 407.52 284.50 C 402.24 279.59 399.06 273.03 394.59 267.47 C 391.84 263.95 387.66 261.18 383.03 261.48 C 372.80 261.98 365.00 270.02 354.96 271.26 C 348.61 272.24 342.31 269.94 335.95 270.77 C 329.89 271.14 325.27 276.69 318.99 275.84 C 303.22 274.50 287.96 268.53 271.98 269.42 C 265.04 269.71 258.95 274.42 251.89 273.71 C 243.30 272.99 237.61 264.86 229.04 263.94 C 219.71 263.11 211.34 269.69 201.95 268.37 C 197.70 267.74 196.27 262.26 192.02 261.63 C 187.52 261.84 186.89 269.19 182.00 267.42 C 172.03 264.52 166.86 253.90 156.91 250.97 C 151.89 249.55 146.19 249.97 141.70 252.76 C 134.35 256.97 130.21 264.66 124.80 270.87 C 120.00 276.42 114.56 282.27 107.11 283.96 C 102.74 285.16 98.30 283.79 93.90 283.69 C 89.57 284.73 90.85 289.85 90.54 293.14 C 90.37 292.50 90.04 291.21 89.87 290.56 C 87.35 292.42 83.90 292.35 81.59 294.54 C 78.74 297.20 75.21 299.16 71.28 299.59 C 71.61 298.92 72.28 297.57 72.62 296.90 C 70.64 297.66 68.57 298.42 67.12 300.05 C 64.33 303.06 60.40 304.66 57.60 307.66 C 56.15 309.14 54.67 310.61 53.02 311.88 C 56.08 306.82 60.31 302.57 64.98 298.98 C 67.53 296.70 70.87 294.82 71.96 291.37 C 69.24 292.65 66.79 294.40 64.12 295.76 C 63.48 295.80 62.20 295.88 61.56 295.92 C 61.98 294.72 62.41 293.52 62.83 292.33 C 61.70 292.05 60.56 291.78 59.43 291.52 C 61.98 286.58 66.07 282.77 69.72 278.67 C 72.43 275.55 76.68 273.81 78.28 269.78 C 72.33 271.51 67.96 276.29 63.29 280.12 C 60.40 282.98 57.34 285.70 53.90 287.89 C 57.10 281.66 63.29 277.87 68.04 272.95 C 71.08 269.71 74.93 267.36 77.92 264.06 C 75.96 264.46 74.09 265.27 72.65 266.71 C 67.23 271.70 61.97 276.95 55.78 281.00 C 57.59 277.53 60.78 275.14 63.32 272.25 C 67.03 268.02 71.50 264.59 75.59 260.77 C 75.28 260.41 74.67 259.69 74.36 259.33 C 75.92 257.57 77.71 256.01 79.16 254.15 C 72.09 257.23 67.08 263.35 60.93 267.80 C 57.43 270.21 54.56 273.35 51.36 276.12 C 53.84 271.76 57.06 267.90 60.00 263.86 C 57.60 264.51 55.71 266.11 53.93 267.76 C 53.27 267.01 52.60 266.26 51.94 265.51 C 48.68 268.66 46.05 272.59 42.06 274.90 C 45.58 268.69 51.70 264.32 54.35 257.52 C 53.75 257.50 52.55 257.46 51.95 257.44 C 47.81 260.39 44.51 264.56 39.80 266.70 C 39.44 266.66 38.73 266.58 38.37 266.53 C 42.65 258.97 49.68 253.63 54.96 246.86 C 56.14 245.76 55.99 243.23 54.10 243.08 C 49.09 246.58 45.44 251.64 40.78 255.56 C 40.57 255.41 40.16 255.12 39.95 254.97 C 42.70 251.50 45.38 247.98 48.27 244.64 C 48.46 243.12 48.23 241.37 49.35 240.14 C 53.14 235.32 58.09 231.62 62.32 227.24 C 66.74 221.98 72.33 217.93 77.48 213.45 C 79.78 211.61 79.68 208.39 81.02 205.98 C 83.16 203.77 85.87 202.22 88.12 200.13 C 86.61 200.50 85.10 200.90 83.60 201.31 C 83.22 199.80 82.69 198.34 82.10 196.91 C 84.05 194.04 84.50 190.45 86.43 187.60 C 84.85 185.63 85.41 183.01 85.47 180.70 C 87.31 179.13 89.17 177.58 91.10 176.12 C 95.12 172.99 99.17 169.88 102.91 166.40 C 101.57 166.34 100.16 166.08 98.91 166.72 C 92.19 169.76 85.81 173.62 78.77 175.91 C 80.02 172.93 82.93 171.34 84.96 168.98 C 85.10 166.42 84.76 163.82 85.49 161.31 C 81.89 162.99 78.01 162.74 74.28 161.76 C 70.90 162.42 68.66 165.63 65.90 167.52 C 62.61 169.46 59.37 171.51 55.89 173.10 C 56.36 171.36 56.64 169.37 58.22 168.24 C 62.34 164.68 66.73 161.45 71.14 158.27 C 73.54 156.61 76.09 155.14 78.30 153.22 C 80.48 151.32 81.31 148.32 83.57 146.50 C 90.09 141.47 97.85 138.37 104.38 133.36 C 109.39 129.79 114.64 126.55 119.37 122.60 C 124.02 119.42 129.33 117.37 134.05 114.32 C 130.68 114.17 127.45 115.07 124.31 116.17 C 119.57 115.14 114.70 114.84 109.93 115.84 C 108.80 113.67 107.00 111.51 107.34 108.91 C 109.84 105.82 113.49 103.71 115.24 99.99 C 107.53 101.08 101.53 106.59 94.27 108.99 C 93.86 107.97 93.46 106.95 93.05 105.94 C 96.31 103.16 100.37 101.42 103.28 98.22 C 101.39 98.13 99.49 98.03 97.59 98.06 C 110.90 89.62 125.41 83.40 139.41 76.25 C 155.66 70.03 171.94 63.67 188.83 59.31 C 201.31 55.34 214.20 52.89 227.05 50.50 C 220.22 50.05 213.55 51.85 206.88 52.99 C 193.05 56.80 178.92 59.56 165.44 64.54 C 155.68 67.58 146.45 71.95 137.20 76.23 C 129.30 79.59 121.26 82.67 113.66 86.68 C 110.48 88.32 107.33 90.15 103.79 90.90 C 134.05 71.94 168.23 59.90 202.93 52.02 C 210.23 50.05 217.65 48.60 225.13 47.47 C 238.91 44.55 252.94 43.06 266.94 41.63 C 270.95 41.40 274.97 41.68 278.97 41.19 C 286.29 40.22 293.69 40.57 301.06 40.44 Z" fill="#b7effe" opacity="1.00" stroke="#b7effe" stroke-width="0.25"/>
<path d="M 381.23 48.25 C 385.48 48.05 389.80 48.72 393.81 50.13 C 394.83 51.03 395.33 52.35 396.04 53.48 C 387.80 52.06 379.28 51.68 371.32 49.01 C 374.62 48.67 377.92 48.43 381.23 48.25 Z" fill="#e4fdff" opacity="1.00" stroke="#e4fdff" stroke-width="0.25"/>
<path d="M 425.57 96.05 C 427.27 95.33 429.28 96.42 431.03 96.75 C 438.16 99.21 445.76 100.17 452.68 103.25 C 454.02 103.78 455.05 104.83 456.09 105.80 C 454.33 105.76 452.57 105.69 450.82 105.63 C 455.54 108.94 460.52 112.10 463.97 116.83 C 456.15 117.67 448.92 113.21 441.11 113.18 C 440.00 113.80 439.09 114.68 438.12 115.48 C 441.52 117.41 445.24 118.67 448.71 120.44 C 449.63 120.75 450.33 122.22 448.97 122.47 C 441.85 121.35 434.33 119.88 427.24 121.80 C 427.78 122.73 428.32 123.65 428.88 124.57 C 426.20 124.28 423.48 123.54 421.95 121.12 C 423.52 120.59 425.11 120.09 426.71 119.64 C 424.76 118.99 422.89 118.12 421.34 116.77 C 428.72 116.33 435.60 119.96 443.00 119.67 C 439.58 118.18 436.22 116.56 433.03 114.61 C 433.91 114.11 434.79 113.62 435.68 113.12 C 434.65 112.31 433.65 111.45 432.65 110.63 C 441.36 110.47 449.63 113.78 458.26 114.49 C 457.21 113.31 456.06 112.15 454.55 111.61 C 449.84 109.71 445.01 108.04 440.05 106.96 C 441.39 106.72 442.65 106.19 442.68 104.65 C 436.05 104.93 430.24 101.49 424.36 98.97 C 424.75 97.99 425.12 97.01 425.57 96.05 Z" fill="#e5f8fc" opacity="1.00" stroke="#e5f8fc" stroke-width="0.25"/>
<path d="M 89.75 104.02 C 91.63 101.37 93.97 97.99 97.59 98.06 C 99.49 98.03 101.39 98.13 103.28 98.22 C 100.37 101.42 96.31 103.16 93.05 105.94 C 93.46 106.95 93.86 107.97 94.27 108.99 C 101.53 106.59 107.53 101.08 115.24 99.99 C 113.49 103.71 109.84 105.82 107.34 108.91 C 107.00 111.51 108.80 113.67 109.93 115.84 C 114.70 114.84 119.57 115.14 124.31 116.17 C 122.21 118.05 119.40 118.40 116.70 118.52 C 116.64 118.89 116.50 119.64 116.44 120.02 C 114.42 119.64 112.55 118.78 110.85 117.65 C 108.39 119.09 105.61 120.09 102.75 119.31 C 103.45 118.07 104.18 116.84 104.91 115.62 C 103.58 115.91 102.25 116.19 100.92 116.47 C 101.43 115.41 101.95 114.36 102.47 113.30 C 101.63 112.72 100.79 112.14 99.95 111.56 C 102.23 108.55 107.17 108.18 108.14 104.19 C 100.83 106.85 94.47 111.78 86.92 113.78 C 86.68 113.62 86.19 113.29 85.95 113.13 C 87.29 109.64 90.07 107.05 92.66 104.48 C 91.93 104.37 90.48 104.14 89.75 104.02 Z" fill="#d5f5fb" opacity="1.00" stroke="#d5f5fb" stroke-width="0.25"/>
<path d="M 108.76 126.82 C 112.11 125.03 115.40 122.59 119.37 122.60 C 114.64 126.55 109.39 129.79 104.38 133.36 C 97.85 138.37 90.09 141.47 83.57 146.50 C 81.31 148.32 80.48 151.32 78.30 153.22 C 76.09 155.14 73.54 156.61 71.14 158.27 C 71.76 157.17 72.34 156.06 72.92 154.95 C 72.68 154.45 72.21 153.47 71.98 152.98 C 69.56 154.06 67.20 155.28 64.77 156.33 C 64.39 156.16 63.64 155.83 63.27 155.66 C 69.25 151.46 74.82 146.65 81.28 143.18 C 90.28 137.47 99.43 131.98 108.76 126.82 Z" fill="#cdf2fb" opacity="1.00" stroke="#cdf2fb" stroke-width="0.25"/>
<path d="M 420.73 140.68 C 428.67 141.87 438.41 140.66 443.95 147.73 C 440.88 148.62 437.75 147.80 434.65 147.78 C 435.96 148.89 437.39 149.88 438.87 150.78 C 433.40 150.75 428.09 149.33 422.65 149.03 C 422.55 149.44 422.35 150.26 422.25 150.67 C 420.31 150.81 418.37 150.96 416.43 151.08 C 416.97 152.15 417.54 153.26 417.25 154.51 C 413.41 153.71 408.53 152.22 405.42 155.49 C 399.14 155.17 393.34 152.28 387.02 152.18 C 383.26 151.52 378.75 152.21 375.71 149.47 C 382.75 148.48 389.73 151.19 396.75 149.88 C 401.46 149.25 406.23 149.36 410.98 149.41 C 409.34 147.89 407.97 146.12 406.98 144.11 C 413.12 143.00 419.28 145.81 425.35 144.08 C 423.85 142.89 422.33 141.72 420.73 140.68 Z" fill="#dcf6fc" opacity="1.00" stroke="#dcf6fc" stroke-width="0.25"/>
<path d="M 64.77 156.33 C 67.20 155.28 69.56 154.06 71.98 152.98 C 72.21 153.47 72.68 154.45 72.92 154.95 C 72.34 156.06 71.76 157.17 71.14 158.27 C 66.73 161.45 62.34 164.68 58.22 168.24 C 56.64 169.37 56.36 171.36 55.89 173.10 C 59.37 171.51 62.61 169.46 65.90 167.52 C 64.98 170.25 62.05 171.26 59.93 172.85 C 55.94 175.24 52.30 178.23 48.04 180.13 C 48.07 179.40 48.12 177.92 48.14 177.18 C 50.74 172.94 54.20 169.34 58.12 166.30 C 58.43 164.69 59.00 163.14 59.82 161.71 C 58.94 161.40 58.06 161.08 57.18 160.77 C 59.13 159.00 60.78 156.69 63.27 155.66 C 63.64 155.83 64.39 156.16 64.77 156.33 Z" fill="#e7f9fc" opacity="1.00" stroke="#e7f9fc" stroke-width="0.25"/>
<path d="M 74.28 161.76 C 78.01 162.74 81.89 162.99 85.49 161.31 C 84.76 163.82 85.10 166.42 84.96 168.98 C 82.93 171.34 80.02 172.93 78.77 175.91 C 85.81 173.62 92.19 169.76 98.91 166.72 C 100.16 166.08 101.57 166.34 102.91 166.40 C 99.17 169.88 95.12 172.99 91.10 176.12 C 91.66 174.70 92.22 173.28 92.76 171.85 C 81.26 174.91 72.60 183.41 63.31 190.32 C 62.10 191.30 60.56 191.61 59.07 191.92 C 64.04 185.96 70.14 181.09 75.78 175.80 C 76.70 174.86 78.02 173.82 77.34 172.34 C 73.52 174.52 69.98 177.19 65.96 179.02 C 67.41 174.61 72.21 172.90 75.02 169.51 C 74.40 169.32 73.16 168.95 72.54 168.76 C 72.52 168.25 72.48 167.21 72.45 166.69 C 70.26 166.91 68.08 167.20 65.90 167.52 C 68.66 165.63 70.90 162.42 74.28 161.76 Z" fill="#d7f4f9" opacity="1.00" stroke="#d7f4f9" stroke-width="0.25"/>
<path d="M 405.47 190.51 C 408.71 189.55 411.72 191.32 414.73 192.20 C 418.26 193.41 422.29 194.13 424.78 197.18 C 426.66 199.50 429.58 200.36 432.09 201.77 C 429.75 201.74 427.42 201.58 425.10 201.33 C 424.35 201.77 423.59 202.21 422.85 202.65 C 420.30 201.22 417.50 201.13 415.17 203.08 C 412.98 201.84 410.71 200.75 408.44 199.70 C 408.31 198.66 408.17 197.62 408.05 196.58 C 412.45 196.90 416.76 197.85 421.08 198.70 C 414.98 195.97 407.96 195.69 402.26 192.04 C 404.16 191.83 406.08 191.65 407.99 191.47 C 407.15 191.14 406.31 190.82 405.47 190.51 Z" fill="#e8fbff" opacity="1.00" stroke="#e8fbff" stroke-width="0.25"/>
<path d="M 67.26 226.30 C 76.23 216.78 86.64 208.55 98.02 202.14 C 94.46 206.57 89.82 210.01 85.16 213.21 C 82.03 215.71 79.37 218.75 76.19 221.20 C 72.07 224.38 68.57 228.40 63.97 230.96 C 64.55 229.08 65.85 227.60 67.26 226.30 Z" fill="#e4fdff" opacity="1.00" stroke="#e4fdff" stroke-width="0.25"/>
<path d="M 40.78 255.56 C 45.44 251.64 49.09 246.58 54.10 243.08 C 55.99 243.23 56.14 245.76 54.96 246.86 C 49.68 253.63 42.65 258.97 38.37 266.53 C 38.73 266.58 39.44 266.66 39.80 266.70 C 39.84 269.53 36.53 270.34 34.69 271.85 C 34.95 267.71 37.98 264.29 39.03 260.31 C 37.39 261.01 35.71 261.64 34.00 262.17 C 35.30 259.32 37.17 256.79 39.21 254.42 L 39.95 254.97 C 40.16 255.12 40.57 255.41 40.78 255.56 Z" fill="#e6f9ff" opacity="1.00" stroke="#e6f9ff" stroke-width="0.25"/>
<path d="M 141.70 252.76 C 146.19 249.97 151.89 249.55 156.91 250.97 C 166.86 253.90 172.03 264.52 182.00 267.42 C 186.89 269.19 187.52 261.84 192.02 261.63 C 196.27 262.26 197.70 267.74 201.95 268.37 C 211.34 269.69 219.71 263.11 229.04 263.94 C 237.61 264.86 243.30 272.99 251.89 273.71 C 258.95 274.42 265.04 269.71 271.98 269.42 C 287.96 268.53 303.22 274.50 318.99 275.84 C 325.27 276.69 329.89 271.14 335.95 270.77 C 342.31 269.94 348.61 272.24 354.96 271.26 C 365.00 270.02 372.80 261.98 383.03 261.48 C 387.66 261.18 391.84 263.95 394.59 267.47 C 399.06 273.03 402.24 279.59 407.52 284.50 C 414.20 290.65 422.84 294.74 431.92 295.63 C 435.34 296.19 439.07 296.12 442.13 297.94 C 443.95 298.98 443.73 301.18 443.70 302.97 C 443.60 303.77 443.39 305.35 443.29 306.14 C 447.17 306.93 451.35 307.19 454.86 309.17 C 457.63 311.63 458.34 315.58 460.57 318.47 C 465.21 324.65 472.69 327.56 479.66 330.29 C 483.15 331.85 487.35 333.28 489.05 337.03 C 489.89 339.24 488.50 341.45 486.88 342.87 C 481.45 347.38 474.23 348.56 468.18 351.94 C 465.37 353.48 463.81 356.75 464.39 359.91 C 465.50 365.93 471.36 369.82 472.21 375.93 C 472.64 378.44 470.38 380.21 468.44 381.26 C 465.07 382.67 461.41 383.04 457.88 383.85 C 450.86 385.43 443.94 387.70 437.59 391.11 C 438.23 395.40 441.38 398.75 442.34 402.97 C 441.92 407.14 438.32 409.68 434.57 410.72 C 420.92 415.71 406.22 412.79 392.09 413.77 C 389.03 414.48 385.03 414.28 383.06 417.12 C 381.65 421.50 382.73 426.81 379.60 430.56 C 377.05 433.83 372.40 432.79 368.94 431.94 C 359.82 429.73 350.45 424.83 340.92 427.85 C 329.28 431.52 323.30 443.64 312.54 448.71 C 300.09 453.51 286.55 450.63 273.88 448.36 C 265.69 447.19 257.38 445.35 249.08 446.55 C 243.34 447.39 238.50 450.75 233.57 453.53 C 223.18 459.40 210.70 461.72 199.02 458.80 C 193.38 457.24 186.31 456.54 183.13 450.92 C 181.30 446.18 179.87 440.66 175.20 437.86 C 169.21 433.54 161.52 435.65 154.97 437.28 C 144.04 440.06 132.29 440.89 121.32 437.87 C 116.55 436.29 110.84 433.68 109.78 428.20 C 109.58 424.56 111.24 421.13 111.62 417.54 C 103.58 417.09 96.88 423.11 88.89 422.76 C 85.75 422.92 83.28 420.04 82.91 417.11 C 82.04 411.88 86.46 407.24 85.26 402.01 C 84.09 398.65 80.70 396.02 77.07 396.12 C 69.26 395.51 59.93 396.33 54.07 390.07 C 50.58 386.56 53.42 381.61 54.93 377.87 C 57.09 372.58 61.06 366.68 58.15 360.89 C 53.38 354.25 44.49 353.36 36.99 352.72 C 31.98 351.89 25.57 352.17 22.58 347.24 C 22.58 346.42 22.56 344.78 22.55 343.96 C 28.20 335.75 38.85 332.67 44.13 324.09 C 44.62 322.77 44.63 321.34 44.84 319.98 C 49.10 317.31 54.18 317.17 59.03 316.84 C 61.20 316.53 64.29 316.79 65.10 314.18 C 65.09 310.93 64.47 307.63 65.61 304.48 C 70.63 300.45 77.12 299.32 83.10 297.40 C 85.81 296.52 88.96 295.76 90.54 293.14 C 90.85 289.85 89.57 284.73 93.90 283.69 C 98.30 283.79 102.74 285.16 107.11 283.96 C 114.56 282.27 120.00 276.42 124.80 270.87 C 130.21 264.66 134.35 256.97 141.70 252.76 Z" fill="#1c232b" opacity="1.00" stroke="#1c232b" stroke-width="0.25"/>
<path d="M 136.39 259.38 C 140.82 254.57 147.22 250.78 153.98 252.17 C 165.87 253.90 171.27 267.67 183.15 269.46 C 187.51 270.35 188.52 264.54 192.04 263.39 C 195.68 265.00 197.47 270.18 202.03 270.12 C 210.36 271.15 217.90 266.61 225.99 265.64 C 232.33 265.11 237.64 269.26 242.76 272.38 C 246.91 275.14 252.11 276.11 256.99 275.17 C 262.40 274.17 267.35 271.17 272.95 271.07 C 288.52 270.67 303.40 276.18 318.77 277.70 C 324.65 278.41 329.37 274.25 334.73 272.72 C 342.05 271.24 349.42 274.65 356.73 272.78 C 365.75 271.29 372.80 264.33 381.95 263.37 C 385.86 262.72 389.74 264.66 392.27 267.55 C 397.67 273.91 401.27 281.81 407.84 287.15 C 414.05 292.59 421.93 295.96 430.07 297.16 C 433.58 297.88 437.38 297.67 440.66 299.23 C 443.37 301.24 440.46 304.63 441.52 307.27 C 445.71 308.94 450.81 308.41 454.49 311.40 C 456.23 313.45 456.89 316.19 458.37 318.43 C 460.90 323.01 465.57 325.74 470.03 328.15 C 475.47 331.07 481.90 332.20 486.61 336.40 C 487.44 337.16 487.44 338.39 487.82 339.39 C 483.55 344.31 477.25 346.18 471.38 348.38 C 467.18 349.92 462.48 353.01 462.51 358.01 C 462.44 364.64 468.08 369.18 470.27 375.02 C 470.96 377.28 469.02 379.37 466.94 379.90 C 462.17 381.41 457.11 381.77 452.39 383.45 C 446.66 385.36 440.08 386.45 435.74 390.97 C 435.35 395.57 439.94 398.57 440.57 402.98 C 439.62 407.77 434.11 409.23 430.01 410.25 C 416.21 413.89 401.83 410.19 387.92 412.60 C 384.62 413.11 380.58 415.12 380.66 418.97 C 379.84 422.87 380.76 428.23 376.60 430.43 C 373.36 431.63 369.86 430.17 366.68 429.40 C 358.42 426.83 349.64 423.73 340.93 425.86 C 329.03 429.47 322.64 441.46 311.94 447.01 C 299.07 452.03 285.13 448.54 272.07 446.21 C 264.68 445.33 257.23 443.73 249.76 444.64 C 241.64 445.34 235.44 451.23 228.10 454.13 C 217.06 459.45 204.12 459.06 192.63 455.38 C 189.04 454.14 184.67 452.27 183.94 448.07 C 182.24 441.00 176.53 434.29 168.94 433.65 C 160.07 432.91 151.79 437.04 143.04 437.66 C 136.79 437.96 130.41 438.22 124.30 436.66 C 119.78 435.76 114.82 433.92 112.20 429.93 C 109.38 425.39 115.71 419.78 111.97 415.90 C 105.40 415.20 99.51 418.72 93.41 420.47 C 90.50 421.09 86.18 421.45 85.01 417.93 C 83.49 412.18 88.82 406.84 86.83 401.09 C 85.31 396.67 80.64 394.11 76.11 394.25 C 69.05 393.59 60.36 394.51 55.23 388.58 C 52.97 386.33 54.65 383.11 55.54 380.64 C 57.66 375.22 61.51 370.01 61.03 363.95 C 60.50 358.47 55.30 355.23 50.64 353.40 C 42.90 350.39 34.10 351.88 26.49 348.54 C 24.17 347.85 23.33 344.82 25.24 343.21 C 30.91 337.11 38.90 333.65 44.21 327.15 C 45.99 325.33 46.40 322.74 47.36 320.48 C 53.38 317.50 60.80 320.33 66.45 316.30 C 67.59 312.47 65.32 307.63 68.33 304.50 C 74.97 300.78 82.92 300.28 89.62 296.73 C 93.66 294.67 92.18 289.47 92.87 285.82 C 97.60 285.42 102.35 287.00 107.05 285.90 C 111.66 285.03 115.63 282.31 119.06 279.23 C 125.84 273.54 130.47 265.86 136.39 259.38 Z" fill="#805749" opacity="1.00" stroke="#805749" stroke-width="0.25"/>
<path d="M 63.29 280.12 C 67.96 276.29 72.33 271.51 78.28 269.78 C 76.68 273.81 72.43 275.55 69.72 278.67 C 66.07 282.77 61.98 286.58 59.43 291.52 C 60.56 291.78 61.70 292.05 62.83 292.33 C 62.41 293.52 61.98 294.72 61.56 295.92 C 62.20 295.88 63.48 295.80 64.12 295.76 C 62.97 298.39 60.18 299.52 58.04 301.19 C 55.25 303.08 53.23 306.03 49.97 307.21 C 51.89 301.77 57.79 299.22 60.07 294.03 C 56.71 295.71 54.31 298.88 50.70 300.12 C 50.39 297.10 53.07 295.13 54.48 292.77 C 56.90 288.88 60.69 286.16 63.43 282.55 C 63.40 281.94 63.33 280.73 63.29 280.12 Z" fill="#d4f6f8" opacity="1.00" stroke="#d4f6f8" stroke-width="0.25"/>
<path d="M 229.19 282.25 C 236.49 280.95 244.05 281.09 251.30 282.63 C 264.04 285.18 277.01 286.34 289.98 286.67 C 303.95 287.46 317.03 293.33 330.95 294.50 C 335.95 294.85 341.02 294.97 345.98 294.12 C 352.49 293.08 358.63 290.54 365.08 289.24 C 372.18 287.91 379.81 288.46 386.29 291.84 C 391.51 294.56 396.85 297.10 402.60 298.51 C 411.72 300.96 420.37 305.24 427.47 311.51 C 432.19 316.42 435.75 322.62 441.75 326.17 C 444.21 327.28 445.30 330.47 443.57 332.70 C 440.47 337.70 437.88 343.40 432.78 346.73 C 427.96 349.95 423.69 353.99 418.44 356.53 C 413.04 359.23 407.91 362.43 403.19 366.20 C 398.41 369.70 394.41 374.16 389.45 377.43 C 387.03 379.28 384.22 380.87 382.59 383.52 C 381.85 387.09 381.03 390.72 378.62 393.60 C 378.46 393.09 378.15 392.06 378.00 391.54 C 379.39 388.49 379.78 385.08 381.12 382.04 C 385.27 377.10 391.37 374.36 395.87 369.75 C 403.25 363.04 411.63 357.55 420.58 353.18 C 422.17 351.96 423.64 350.61 425.20 349.35 C 428.68 346.45 433.14 344.61 435.75 340.75 C 437.97 337.51 439.77 334.01 441.78 330.65 C 439.79 328.46 437.63 326.44 435.46 324.44 C 431.16 320.41 428.38 314.98 423.72 311.31 C 417.70 306.64 410.81 303.06 403.38 301.31 C 392.59 298.65 383.47 290.66 371.98 290.72 C 361.38 291.10 351.61 296.17 341.03 296.88 C 321.51 298.23 303.43 288.33 284.02 288.31 C 272.45 288.46 260.98 286.66 249.65 284.53 C 239.75 282.62 229.39 283.71 219.86 286.91 C 213.30 288.75 206.89 291.43 200.04 291.99 C 190.43 292.92 180.84 291.19 171.45 289.30 C 165.24 287.82 158.79 286.49 152.39 287.50 C 150.66 287.80 149.08 288.66 147.68 289.70 C 140.95 294.92 135.29 301.41 128.46 306.50 C 122.43 310.97 114.97 312.46 108.13 315.20 C 104.54 316.40 103.41 320.45 100.58 322.57 C 93.44 325.80 85.00 322.24 78.01 326.03 C 73.31 328.63 68.16 330.44 63.93 333.81 C 68.52 335.21 73.31 335.53 78.04 336.13 C 79.90 336.27 82.32 337.69 81.72 339.87 C 80.31 344.85 74.47 346.69 72.28 351.18 C 70.61 355.42 74.49 358.97 77.88 360.78 C 81.31 362.06 85.04 361.45 88.10 359.52 C 89.10 361.32 89.81 363.34 91.20 364.90 C 93.45 365.76 95.96 365.16 98.32 365.22 C 99.77 370.23 97.13 376.10 100.29 380.62 C 103.61 384.90 109.26 381.65 113.57 381.25 C 113.49 384.06 113.62 386.89 114.08 389.67 C 118.10 389.81 122.00 388.81 125.96 388.32 C 129.50 387.62 131.97 390.60 134.61 392.36 C 137.29 394.54 140.67 395.56 144.07 395.85 C 151.65 396.97 159.68 394.08 166.88 397.45 C 167.61 402.25 162.28 405.25 163.14 410.04 C 162.77 413.08 166.02 413.94 168.27 414.70 C 167.57 414.95 166.18 415.46 165.48 415.71 C 162.36 415.35 160.73 411.85 161.05 408.98 C 160.45 404.86 164.76 402.37 164.90 398.44 C 156.69 396.46 148.15 399.38 139.96 397.02 C 135.21 396.31 132.08 392.33 127.93 390.39 C 122.84 389.74 117.30 393.41 112.51 390.50 C 111.45 388.14 111.85 385.50 111.88 383.01 C 108.17 384.64 103.33 386.08 99.87 383.16 C 95.10 379.30 97.31 372.54 96.87 367.29 C 94.40 367.11 91.85 367.24 89.48 366.45 C 88.35 365.59 88.32 363.95 87.71 362.78 C 83.35 363.40 78.46 364.06 74.57 361.50 C 71.27 359.33 68.43 355.07 70.16 351.06 C 72.01 345.92 77.74 343.77 80.19 339.02 C 74.54 336.27 67.61 339.17 62.32 335.54 C 62.31 334.49 62.29 333.45 62.26 332.41 C 66.01 328.74 71.20 327.33 75.58 324.64 C 82.25 320.62 90.31 322.31 97.65 321.50 C 102.13 320.73 102.22 314.71 106.38 313.44 C 115.27 310.17 125.12 307.94 132.03 300.98 C 135.91 296.86 140.31 293.29 144.48 289.47 C 147.42 286.94 151.10 285.01 155.04 284.88 C 163.63 284.68 171.87 287.38 180.28 288.61 C 187.39 290.10 194.73 290.03 201.94 289.46 C 211.27 288.10 219.99 284.19 229.19 282.25 Z" fill="#232631" opacity="1.00" stroke="#232631" stroke-width="0.25"/>
<path d="M 219.86 286.91 C 229.39 283.71 239.75 282.62 249.65 284.53 C 260.98 286.66 272.45 288.46 284.02 288.31 C 303.43 288.33 321.51 298.23 341.03 296.88 C 351.61 296.17 361.38 291.10 371.98 290.72 C 383.47 290.66 392.59 298.65 403.38 301.31 C 410.81 303.06 417.70 306.64 423.72 311.31 C 428.38 314.98 431.16 320.41 435.46 324.44 C 437.63 326.44 439.79 328.46 441.78 330.65 C 439.77 334.01 437.97 337.51 435.75 340.75 C 433.14 344.61 428.68 346.45 425.20 349.35 C 424.66 346.24 424.17 343.14 423.69 340.03 C 422.37 339.94 421.06 339.87 419.75 339.82 C 417.90 339.74 416.05 339.76 414.21 339.78 C 413.02 335.47 410.98 330.35 406.31 328.94 C 403.12 324.44 401.00 318.91 396.05 315.96 C 389.16 310.36 380.98 305.85 371.97 305.27 C 361.96 305.15 351.89 304.22 341.96 305.99 C 330.27 307.99 317.60 307.92 306.99 302.01 C 295.72 295.91 282.18 295.80 270.07 299.18 C 266.02 300.43 262.15 302.23 258.00 303.12 C 253.17 304.18 248.08 303.66 243.36 305.30 C 236.55 307.60 230.14 311.25 222.91 312.12 C 213.05 314.00 202.92 314.31 192.97 312.97 C 184.63 311.79 176.05 311.10 167.73 312.80 C 155.58 315.66 142.80 317.30 131.98 323.99 C 121.58 328.49 115.14 339.81 115.40 350.96 C 115.71 350.60 116.34 349.90 116.66 349.54 C 116.65 351.86 116.67 354.18 116.64 356.51 C 112.06 357.82 107.23 359.87 102.42 358.47 C 97.20 356.98 92.31 354.41 86.92 353.54 C 86.52 353.80 85.71 354.32 85.31 354.59 C 82.60 356.35 80.04 358.36 77.88 360.78 C 74.49 358.97 70.61 355.42 72.28 351.18 C 74.47 346.69 80.31 344.85 81.72 339.87 C 82.32 337.69 79.90 336.27 78.04 336.13 C 73.31 335.53 68.52 335.21 63.93 333.81 C 68.16 330.44 73.31 328.63 78.01 326.03 C 85.00 322.24 93.44 325.80 100.58 322.57 C 103.41 320.45 104.54 316.40 108.13 315.20 C 114.97 312.46 122.43 310.97 128.46 306.50 C 135.29 301.41 140.95 294.92 147.68 289.70 C 149.08 288.66 150.66 287.80 152.39 287.50 C 158.79 286.49 165.24 287.82 171.45 289.30 C 180.84 291.19 190.43 292.92 200.04 291.99 C 206.89 291.43 213.30 288.75 219.86 286.91 Z" fill="#483434" opacity="1.00" stroke="#483434" stroke-width="0.25"/>
<path d="M 227.70 291.25 C 234.68 290.05 241.96 290.61 248.82 292.28 C 248.80 292.54 248.76 293.08 248.73 293.35 C 244.81 293.05 240.97 292.09 237.03 292.02 C 233.91 291.87 230.67 292.47 227.70 291.25 Z" fill="#ae9b97" opacity="1.00" stroke="#ae9b97" stroke-width="0.25"/>
<path d="M 270.07 299.18 C 282.18 295.80 295.72 295.91 306.99 302.01 C 317.60 307.92 330.27 307.99 341.96 305.99 C 351.89 304.22 361.96 305.15 371.97 305.27 C 380.98 305.85 389.16 310.36 396.05 315.96 C 401.00 318.91 403.12 324.44 406.31 328.94 C 404.58 329.46 402.85 330.15 401.02 330.16 C 398.25 328.44 398.17 323.04 394.18 323.36 C 388.86 323.95 385.85 329.04 382.80 332.84 C 378.00 330.30 373.66 326.38 368.18 325.49 C 364.88 325.94 365.60 330.16 365.09 332.54 C 360.47 331.52 355.83 330.44 351.47 328.57 C 347.82 327.13 344.01 325.01 339.96 326.06 C 334.08 327.27 327.91 328.85 321.95 327.10 C 313.50 324.74 308.62 316.07 299.99 314.02 C 286.65 309.92 274.09 318.33 261.10 319.96 C 255.80 321.05 250.36 319.48 245.11 320.84 C 240.54 319.85 236.30 316.68 231.44 317.59 C 225.58 318.61 220.98 322.78 216.83 326.76 C 213.37 330.08 211.74 335.06 207.63 337.72 C 204.12 339.56 200.13 340.16 196.37 341.32 C 194.82 340.08 193.30 338.80 191.73 337.59 C 192.35 337.58 193.58 337.56 194.19 337.55 C 191.34 335.60 187.73 333.53 184.28 335.29 C 182.01 336.91 180.68 339.47 179.02 341.65 C 174.14 338.04 170.65 332.95 165.93 329.17 C 164.76 328.08 162.31 327.58 161.48 329.32 C 160.16 332.42 159.50 335.76 158.16 338.85 C 156.14 337.84 154.17 336.65 151.94 336.17 C 150.12 336.30 149.08 338.21 147.69 339.20 C 145.10 338.75 142.50 338.36 139.89 338.06 C 138.65 341.98 140.90 346.64 138.14 350.04 C 134.37 347.98 130.44 345.56 125.97 345.87 C 122.60 346.03 118.53 346.25 116.66 349.54 C 116.34 349.90 115.71 350.60 115.40 350.96 C 115.14 339.81 121.58 328.49 131.98 323.99 C 142.80 317.30 155.58 315.66 167.73 312.80 C 176.05 311.10 184.63 311.79 192.97 312.97 C 202.92 314.31 213.05 314.00 222.91 312.12 C 230.14 311.25 236.55 307.60 243.36 305.30 C 248.08 303.66 253.17 304.18 258.00 303.12 C 262.15 302.23 266.02 300.43 270.07 299.18 Z" fill="#5d413e" opacity="1.00" stroke="#5d413e" stroke-width="0.25"/>
<path d="M 363.77 298.98 C 366.57 297.72 369.63 297.48 372.67 297.51 C 372.65 297.71 372.61 298.12 372.59 298.33 C 369.59 297.87 366.71 299.31 363.77 298.98 Z" fill="#ffffff" opacity="1.00" stroke="#ffffff" stroke-width="0.25"/>
<path d="M 215.69 300.96 C 222.10 299.48 228.75 299.16 235.29 299.66 C 231.94 300.55 228.41 300.11 224.98 300.38 C 221.86 300.32 218.80 301.33 215.69 300.96 Z" fill="#ffffff" opacity="1.00" stroke="#ffffff" stroke-width="0.25"/>
<path d="M 141.97 309.98 C 147.54 306.92 154.06 305.46 160.39 305.76 C 155.32 306.60 150.23 307.43 145.24 308.76 C 144.77 309.21 143.84 310.09 143.38 310.54 C 142.91 310.35 142.44 310.16 141.97 309.98 Z" fill="#ffffff" opacity="1.00" stroke="#ffffff" stroke-width="0.25"/>
<path d="M 261.10 319.96 C 274.09 318.33 286.65 309.92 299.99 314.02 C 308.62 316.07 313.50 324.74 321.95 327.10 C 327.91 328.85 334.08 327.27 339.96 326.06 C 344.01 325.01 347.82 327.13 351.47 328.57 C 355.83 330.44 360.47 331.52 365.09 332.54 C 365.60 330.16 364.88 325.94 368.18 325.49 C 373.66 326.38 378.00 330.30 382.80 332.84 C 385.85 329.04 388.86 323.95 394.18 323.36 C 398.17 323.04 398.25 328.44 401.02 330.16 C 402.85 330.15 404.58 329.46 406.31 328.94 C 410.98 330.35 413.02 335.47 414.21 339.78 C 416.05 339.76 417.90 339.74 419.75 339.82 C 417.78 341.23 415.59 342.30 413.16 342.56 C 411.49 338.69 409.86 334.81 407.78 331.15 C 405.20 331.45 402.63 331.89 400.03 331.82 C 397.63 330.24 396.62 327.35 395.14 325.01 C 389.29 326.01 386.37 331.46 383.02 335.70 C 378.05 332.51 373.33 328.42 367.35 327.34 C 367.38 329.81 367.46 332.30 367.55 334.78 C 364.04 334.48 360.61 333.69 357.28 332.56 C 353.40 331.40 349.70 329.75 345.89 328.42 C 342.34 327.00 338.60 328.35 335.06 329.07 C 330.49 330.14 325.68 330.00 321.14 328.87 C 316.48 327.30 312.57 324.26 308.92 321.07 C 303.29 316.14 295.48 313.62 288.05 314.90 C 280.89 316.08 274.20 319.09 267.13 320.71 C 259.88 322.15 252.30 323.13 245.11 320.84 C 250.36 319.48 255.80 321.05 261.10 319.96 Z" fill="#1c232b" opacity="1.00" stroke="#1c232b" stroke-width="0.25"/>
<path d="M 267.13 320.71 C 274.20 319.09 280.89 316.08 288.05 314.90 C 295.48 313.62 303.29 316.14 308.92 321.07 C 312.57 324.26 316.48 327.30 321.14 328.87 C 322.59 332.09 324.03 335.96 327.68 337.24 C 332.06 338.55 336.57 336.67 341.01 336.87 C 345.55 338.63 350.16 342.95 355.29 340.22 C 356.60 337.88 356.76 335.13 357.28 332.56 C 360.61 333.69 364.04 334.48 367.55 334.78 C 367.46 332.30 367.38 329.81 367.35 327.34 C 373.33 328.42 378.05 332.51 383.02 335.70 C 386.37 331.46 389.29 326.01 395.14 325.01 C 396.62 327.35 397.63 330.24 400.03 331.82 C 402.63 331.89 405.20 331.45 407.78 331.15 C 409.86 334.81 411.49 338.69 413.16 342.56 C 415.67 342.97 418.24 343.33 420.57 344.43 C 422.34 347.09 421.81 350.42 420.58 353.18 C 411.63 357.55 403.25 363.04 395.87 369.75 C 389.83 369.16 382.88 369.75 378.60 374.58 C 374.77 378.80 370.82 383.38 365.19 385.13 C 360.33 386.58 355.26 388.01 350.15 387.62 C 344.34 386.47 338.92 383.89 333.63 381.31 C 326.02 377.47 317.18 377.29 309.55 373.50 C 303.66 371.03 299.50 365.71 293.43 363.60 C 289.08 361.95 284.86 359.98 280.47 358.47 C 275.01 356.65 269.13 357.63 263.64 358.80 C 257.51 360.12 253.66 365.61 248.09 368.06 C 244.90 369.52 241.42 370.09 238.07 371.07 C 233.75 372.27 229.77 374.44 225.38 375.42 C 217.72 377.14 209.84 377.58 202.01 377.56 C 195.66 377.55 189.34 375.69 182.99 376.86 C 176.45 377.99 169.51 378.91 164.01 382.95 C 157.49 387.44 150.95 391.90 144.07 395.85 C 140.67 395.56 137.29 394.54 134.61 392.36 C 131.97 390.60 129.50 387.62 125.96 388.32 C 122.00 388.81 118.10 389.81 114.08 389.67 C 113.62 386.89 113.49 384.06 113.57 381.25 C 109.26 381.65 103.61 384.90 100.29 380.62 C 97.13 376.10 99.77 370.23 98.32 365.22 C 97.69 364.50 97.06 363.78 96.42 363.08 C 97.47 361.47 99.17 360.75 101.07 360.79 C 106.20 361.87 111.56 361.00 116.46 359.34 C 120.16 357.63 118.45 352.85 118.68 349.68 C 123.16 347.36 128.77 347.23 133.12 349.94 C 135.51 351.23 139.77 353.50 141.30 349.94 C 141.84 346.72 141.43 343.44 141.34 340.20 C 143.57 340.80 145.79 341.50 148.11 341.68 C 149.58 340.74 150.80 339.45 152.06 338.26 C 153.82 339.32 155.57 340.41 157.37 341.43 C 162.76 344.24 169.66 344.76 174.60 340.73 C 176.20 341.87 177.74 343.71 179.82 343.77 C 182.45 342.03 183.56 338.70 186.06 336.75 C 187.98 336.56 189.86 337.24 191.73 337.59 C 193.30 338.80 194.82 340.08 196.37 341.32 C 202.77 347.55 215.59 343.60 217.53 334.85 C 218.74 330.26 219.87 324.86 224.33 322.30 C 228.98 321.20 232.78 324.49 236.73 326.25 C 239.49 326.76 242.28 325.87 245.06 326.06 C 248.21 327.01 250.32 330.86 253.96 330.09 C 259.54 329.09 262.91 323.99 267.13 320.71 Z" fill="#9d6e59" opacity="1.00" stroke="#9d6e59" stroke-width="0.25"/>
<path d="M 231.44 317.59 C 236.30 316.68 240.54 319.85 245.11 320.84 C 252.30 323.13 259.88 322.15 267.13 320.71 C 262.91 323.99 259.54 329.09 253.96 330.09 C 250.32 330.86 248.21 327.01 245.06 326.06 C 242.28 325.87 239.49 326.76 236.73 326.25 C 232.78 324.49 228.98 321.20 224.33 322.30 C 219.87 324.86 218.74 330.26 217.53 334.85 C 215.59 343.60 202.77 347.55 196.37 341.32 C 200.13 340.16 204.12 339.56 207.63 337.72 C 211.74 335.06 213.37 330.08 216.83 326.76 C 220.98 322.78 225.58 318.61 231.44 317.59 Z" fill="#775043" opacity="1.00" stroke="#775043" stroke-width="0.25"/>
<path d="M 161.48 329.32 C 162.31 327.58 164.76 328.08 165.93 329.17 C 170.65 332.95 174.14 338.04 179.02 341.65 C 180.68 339.47 182.01 336.91 184.28 335.29 C 187.73 333.53 191.34 335.60 194.19 337.55 C 193.58 337.56 192.35 337.58 191.73 337.59 C 189.86 337.24 187.98 336.56 186.06 336.75 C 183.56 338.70 182.45 342.03 179.82 343.77 C 177.74 343.71 176.20 341.87 174.60 340.73 C 170.72 337.22 167.53 332.99 163.31 329.86 C 161.70 333.81 162.01 339.62 157.37 341.43 C 155.57 340.41 153.82 339.32 152.06 338.26 C 150.80 339.45 149.58 340.74 148.11 341.68 C 145.79 341.50 143.57 340.80 141.34 340.20 C 141.43 343.44 141.84 346.72 141.30 349.94 C 139.77 353.50 135.51 351.23 133.12 349.94 C 128.77 347.23 123.16 347.36 118.68 349.68 C 118.45 352.85 120.16 357.63 116.46 359.34 C 111.56 361.00 106.20 361.87 101.07 360.79 C 97.54 359.40 94.16 357.68 90.62 356.32 C 88.87 355.69 87.08 355.15 85.31 354.59 C 85.71 354.32 86.52 353.80 86.92 353.54 C 92.31 354.41 97.20 356.98 102.42 358.47 C 107.23 359.87 112.06 357.82 116.64 356.51 C 116.67 354.18 116.65 351.86 116.66 349.54 C 118.53 346.25 122.60 346.03 125.97 345.87 C 130.44 345.56 134.37 347.98 138.14 350.04 C 140.90 346.64 138.65 341.98 139.89 338.06 C 142.50 338.36 145.10 338.75 147.69 339.20 C 149.08 338.21 150.12 336.30 151.94 336.17 C 154.17 336.65 156.14 337.84 158.16 338.85 C 159.50 335.76 160.16 332.42 161.48 329.32 Z" fill="#2a262f" opacity="1.00" stroke="#2a262f" stroke-width="0.25"/>
<path d="M 335.06 329.07 C 338.60 328.35 342.34 327.00 345.89 328.42 C 349.70 329.75 353.40 331.40 357.28 332.56 C 356.76 335.13 356.60 337.88 355.29 340.22 C 350.16 342.95 345.55 338.63 341.01 336.87 C 336.57 336.67 332.06 338.55 327.68 337.24 C 324.03 335.96 322.59 332.09 321.14 328.87 C 325.68 330.00 330.49 330.14 335.06 329.07 Z" fill="#764f43" opacity="1.00" stroke="#764f43" stroke-width="0.25"/>
<path d="M 163.31 329.86 C 167.53 332.99 170.72 337.22 174.60 340.73 C 169.66 344.76 162.76 344.24 157.37 341.43 C 162.01 339.62 161.70 333.81 163.31 329.86 Z" fill="#755043" opacity="1.00" stroke="#755043" stroke-width="0.25"/>
<path d="M 266.00 331.75 C 270.56 330.50 275.33 330.98 280.00 330.92 L 280.02 332.11 C 267.72 330.90 255.82 338.11 243.59 334.62 C 246.66 333.72 249.87 334.25 253.01 334.06 C 257.40 333.77 261.74 332.86 266.00 331.75 Z" fill="#d5ab94" opacity="1.00" stroke="#d5ab94" stroke-width="0.25"/>
<path d="M 301.69 335.08 C 303.88 335.42 305.93 336.25 307.96 337.10 C 313.02 339.22 318.60 339.50 323.76 341.32 C 325.48 341.99 327.64 342.40 328.41 344.36 C 324.78 343.66 321.36 342.19 317.76 341.41 C 312.15 340.16 306.20 338.89 301.69 335.08 Z" fill="#d0a38c" opacity="1.00" stroke="#d0a38c" stroke-width="0.25"/>
<path d="M 419.75 339.82 C 421.06 339.87 422.37 339.94 423.69 340.03 C 424.17 343.14 424.66 346.24 425.20 349.35 C 423.64 350.61 422.17 351.96 420.58 353.18 C 421.81 350.42 422.34 347.09 420.57 344.43 C 418.24 343.33 415.67 342.97 413.16 342.56 C 415.59 342.30 417.78 341.23 419.75 339.82 Z" fill="#724f45" opacity="1.00" stroke="#724f45" stroke-width="0.25"/>
<path d="M 203.94 353.14 C 208.16 352.75 211.66 350.29 215.00 347.89 C 215.12 349.16 214.65 350.12 213.58 350.76 C 209.17 354.08 203.58 355.29 198.16 355.26 C 199.21 353.11 202.01 353.78 203.94 353.14 Z" fill="#d2a791" opacity="1.00" stroke="#d2a791" stroke-width="0.25"/>
<path d="M 221.68 359.51 C 227.40 356.81 232.12 352.38 238.04 350.07 C 237.71 352.48 234.86 352.95 233.21 354.26 C 227.55 358.15 221.62 361.90 214.90 363.63 C 204.88 365.73 194.49 361.30 184.62 364.74 C 182.86 365.94 181.26 367.36 179.40 368.42 C 179.64 365.49 182.59 363.87 185.06 363.00 C 191.53 361.34 198.33 361.85 204.87 362.74 C 210.65 363.64 216.49 361.97 221.68 359.51 Z" fill="#d4a993" opacity="1.00" stroke="#d4a993" stroke-width="0.25"/>
<path d="M 77.88 360.78 C 80.04 358.36 82.60 356.35 85.31 354.59 C 87.08 355.15 88.87 355.69 90.62 356.32 C 89.76 357.36 88.91 358.43 88.10 359.52 C 85.04 361.45 81.31 362.06 77.88 360.78 Z" fill="#744f3c" opacity="1.00" stroke="#744f3c" stroke-width="0.25"/>
<path d="M 88.10 359.52 C 88.91 358.43 89.76 357.36 90.62 356.32 C 94.16 357.68 97.54 359.40 101.07 360.79 C 99.17 360.75 97.47 361.47 96.42 363.08 C 97.06 363.78 97.69 364.50 98.32 365.22 C 95.96 365.16 93.45 365.76 91.20 364.90 C 89.81 363.34 89.10 361.32 88.10 359.52 Z" fill="#886152" opacity="1.00" stroke="#886152" stroke-width="0.25"/>
<path d="M 263.64 358.80 C 269.13 357.63 275.01 356.65 280.47 358.47 C 284.86 359.98 289.08 361.95 293.43 363.60 C 299.50 365.71 303.66 371.03 309.55 373.50 C 317.18 377.29 326.02 377.47 333.63 381.31 C 338.92 383.89 344.34 386.47 350.15 387.62 C 355.26 388.01 360.33 386.58 365.19 385.13 C 370.82 383.38 374.77 378.80 378.60 374.58 C 382.88 369.75 389.83 369.16 395.87 369.75 C 391.37 374.36 385.27 377.10 381.12 382.04 C 379.78 385.08 379.39 388.49 378.00 391.54 C 375.84 394.89 372.18 396.75 368.48 397.89 C 362.32 398.44 356.12 398.77 349.96 398.09 C 345.81 397.62 341.57 397.64 337.52 398.81 C 330.87 399.75 326.06 405.06 319.63 406.57 C 314.47 407.98 309.24 406.04 304.04 406.02 C 301.00 409.47 301.17 414.14 300.30 418.37 C 299.73 421.71 295.90 422.49 293.08 422.74 C 287.26 423.43 281.69 421.36 276.00 420.69 C 271.81 420.09 268.46 423.07 264.80 424.52 C 259.54 426.64 253.92 427.82 248.30 428.42 C 240.17 428.48 232.04 428.42 223.92 428.15 C 214.67 427.04 205.05 425.18 197.31 419.66 C 193.90 417.25 190.40 414.31 185.97 414.35 C 180.07 414.31 174.18 414.97 168.27 414.70 C 166.02 413.94 162.77 413.08 163.14 410.04 C 162.28 405.25 167.61 402.25 166.88 397.45 C 159.68 394.08 151.65 396.97 144.07 395.85 C 150.95 391.90 157.49 387.44 164.01 382.95 C 169.51 378.91 176.45 377.99 182.99 376.86 C 189.34 375.69 195.66 377.55 202.01 377.56 C 209.84 377.58 217.72 377.14 225.38 375.42 C 229.77 374.44 233.75 372.27 238.07 371.07 C 241.42 370.09 244.90 369.52 248.09 368.06 C 253.66 365.61 257.51 360.12 263.64 358.80 Z" fill="#cc916c" opacity="1.00" stroke="#cc916c" stroke-width="0.25"/>
<path d="M 340.07 361.58 C 345.34 362.53 349.70 357.91 355.00 358.91 C 357.80 359.34 362.37 359.60 363.00 362.97 C 358.90 361.47 354.27 358.76 349.93 360.91 C 345.06 363.38 338.29 364.44 333.66 361.07 C 335.80 361.03 337.94 361.32 340.07 361.58 Z" fill="#d1a48f" opacity="1.00" stroke="#d1a48f" stroke-width="0.25"/>
<path d="M 271.93 373.82 C 273.89 374.46 275.72 375.41 277.48 376.49 C 281.50 379.08 286.76 379.19 290.10 382.92 C 292.01 385.18 296.13 384.90 297.13 387.83 C 294.11 387.38 291.17 386.33 288.89 384.26 C 284.08 379.51 275.09 380.37 271.93 373.82 Z" fill="#e3af8a" opacity="1.00" stroke="#e3af8a" stroke-width="0.25"/>
<path d="M 258.99 394.08 C 262.14 392.53 265.23 390.25 268.90 390.34 C 277.71 390.51 286.41 392.14 294.99 394.03 C 297.78 394.71 300.84 394.87 303.21 396.67 C 295.61 397.14 288.48 393.67 280.97 393.09 C 275.49 392.76 269.51 390.46 264.35 393.29 C 259.07 395.95 253.93 399.26 247.99 400.24 C 242.42 401.45 236.14 400.91 231.42 397.52 C 231.26 397.13 230.95 396.34 230.79 395.95 C 234.22 396.89 237.30 399.15 240.97 399.04 C 247.37 399.51 253.46 397.03 258.99 394.08 Z" fill="#e3b08b" opacity="1.00" stroke="#e3b08b" stroke-width="0.25"/>
<path d="M 368.48 397.89 C 372.18 396.75 375.84 394.89 378.00 391.54 C 378.15 392.06 378.46 393.09 378.62 393.60 C 376.59 396.57 373.05 398.31 369.70 399.45 C 360.35 402.13 350.58 400.14 341.05 400.39 C 336.32 400.49 331.83 402.34 327.97 404.99 C 323.09 408.41 316.86 409.31 311.05 408.51 C 308.81 408.18 306.56 407.96 304.30 408.17 C 302.68 411.93 302.95 416.10 301.85 419.96 C 299.61 424.68 293.43 424.66 288.94 424.68 C 282.59 424.90 275.91 420.20 269.94 423.96 C 263.79 427.72 256.58 429.02 249.58 430.19 C 239.53 431.18 229.36 430.92 219.37 429.44 C 212.08 428.16 204.65 426.55 198.32 422.52 C 194.32 420.33 191.02 416.27 186.15 416.20 C 179.26 416.03 172.27 417.54 165.48 415.71 C 166.18 415.46 167.57 414.95 168.27 414.70 C 174.18 414.97 180.07 414.31 185.97 414.35 C 190.40 414.31 193.90 417.25 197.31 419.66 C 205.05 425.18 214.67 427.04 223.92 428.15 C 232.02 428.87 240.19 428.93 248.30 428.42 C 253.92 427.82 259.54 426.64 264.80 424.52 C 268.46 423.07 271.81 420.09 276.00 420.69 C 281.69 421.36 287.26 423.43 293.08 422.74 C 295.90 422.49 299.73 421.71 300.30 418.37 C 301.17 414.14 301.00 409.47 304.04 406.02 C 309.24 406.04 314.47 407.98 319.63 406.57 C 326.06 405.06 330.87 399.75 337.52 398.81 C 347.82 398.20 358.39 400.72 368.48 397.89 Z" fill="#1c232b" opacity="1.00" stroke="#1c232b" stroke-width="0.25"/>
<path d="M 337.52 398.81 C 341.57 397.64 345.81 397.62 349.96 398.09 C 356.12 398.77 362.32 398.44 368.48 397.89 C 358.39 400.72 347.82 398.20 337.52 398.81 Z" fill="#8d7a71" opacity="1.00" stroke="#8d7a71" stroke-width="0.25"/>
<path d="M 202.79 405.15 C 209.01 403.45 215.62 403.38 222.02 403.87 C 227.26 404.15 231.85 406.99 236.95 407.90 C 240.59 408.79 244.35 408.72 248.03 409.26 L 248.72 410.39 C 236.38 411.66 225.32 403.68 212.96 405.06 C 209.59 404.74 205.75 407.47 202.79 405.15 Z" fill="#e8b590" opacity="1.00" stroke="#e8b590" stroke-width="0.25"/>
<path d="M 223.92 428.15 C 232.04 428.42 240.17 428.48 248.30 428.42 C 240.19 428.93 232.02 428.87 223.92 428.15 Z" fill="#ffffff" opacity="1.00" stroke="#ffffff" stroke-width="0.25"/>
</svg>