<?xml version="1.0" encoding="utf-8"?>
<svg xmlns="http://www.w3.org/2000/svg" height="512pt" version="1.1" viewBox="0 0 512 512" width="512pt">
<path d="M 0.00 0.00 L 512.00 0.00 L 512.00 512.00 L 0.00 512.00 L 0.00 0.00 Z" fill="transparent" opacity="1.00" stroke="transparent" stroke-width="0.25"/>
<path d="M 298.20 83.66 C 315.00 78.83 332.50 76.65 349.96 76.64 C 371.56 77.95 393.86 81.84 412.38 93.69 C 418.92 97.19 424.43 102.23 430.04 107.03 C 435.56 112.88 440.36 119.38 444.97 125.96 C 453.65 139.27 458.48 154.57 462.25 169.88 C 466.41 184.68 466.10 200.27 465.00 215.46 C 463.11 239.05 461.43 263.11 452.99 285.45 C 449.74 293.85 446.45 302.26 442.29 310.26 C 436.36 323.90 429.35 337.04 421.90 349.89 C 417.28 356.61 412.20 363.02 407.98 370.00 C 405.58 373.82 402.17 376.83 399.27 380.24 C 388.63 390.75 377.27 400.67 364.47 408.47 C 353.47 415.31 341.36 420.08 329.18 424.37 C 310.87 430.74 291.37 434.31 271.96 432.79 C 272.22 431.99 272.48 431.19 272.75 430.40 C 271.71 429.84 270.68 429.30 269.65 428.75 C 272.08 428.26 274.51 427.74 276.92 427.15 C 275.57 427.20 272.89 427.31 271.55 427.36 C 271.53 426.81 271.51 426.26 271.51 425.72 C 277.72 427.03 283.81 424.79 289.96 424.23 C 303.48 422.67 316.68 418.72 328.96 412.88 C 335.90 409.32 343.06 405.98 349.08 400.93 C 334.55 409.14 319.10 415.96 302.81 419.77 C 292.33 421.93 281.42 423.90 270.87 421.05 C 270.31 420.80 269.20 420.29 268.64 420.03 C 268.94 418.08 269.32 416.14 269.70 414.20 C 268.79 412.98 267.89 411.77 266.99 410.56 C 268.78 409.60 270.58 408.66 272.39 407.75 C 269.50 408.17 266.54 408.20 263.75 407.19 C 265.03 406.75 266.32 406.34 267.61 405.95 C 267.51 404.74 267.41 403.55 267.32 402.35 C 266.48 402.43 264.79 402.61 263.95 402.69 C 263.61 399.99 266.42 400.48 268.00 399.81 C 267.74 399.59 267.21 399.15 266.95 398.93 C 265.92 398.06 264.89 397.21 263.85 396.38 C 263.90 395.53 263.94 394.70 264.00 393.87 C 263.37 393.27 262.74 392.68 262.12 392.10 C 284.43 390.79 306.75 385.40 326.23 374.19 C 331.53 371.00 336.31 367.07 341.09 363.16 C 352.97 353.81 364.24 343.59 374.15 332.15 C 382.09 321.75 388.93 310.54 395.16 299.05 C 396.46 296.99 396.74 294.56 396.28 292.19 C 393.46 294.18 391.73 297.18 390.06 300.11 C 387.92 303.84 384.60 306.64 381.36 309.37 C 382.06 307.19 382.75 305.00 383.40 302.80 C 380.19 305.98 377.96 309.97 374.78 313.17 C 377.10 306.94 383.65 302.09 383.21 295.03 C 385.23 290.58 387.48 286.25 389.40 281.76 C 391.00 276.98 391.79 271.95 391.81 266.91 C 382.56 276.37 371.77 284.68 359.32 289.41 C 330.95 300.14 297.28 296.90 272.01 279.89 C 259.11 270.49 248.23 258.05 241.51 243.51 C 239.03 237.60 236.29 231.78 234.34 225.67 C 230.12 212.21 231.21 197.99 231.37 184.11 C 231.49 180.85 231.35 177.45 232.69 174.39 C 233.57 172.30 234.61 170.26 235.04 168.01 C 237.28 156.03 240.88 144.25 246.28 133.31 C 251.07 122.83 257.53 112.88 266.38 105.37 C 274.49 98.22 283.24 91.62 293.28 87.41 C 292.51 86.98 290.98 86.14 290.21 85.71 C 292.94 85.33 295.58 84.51 298.20 83.66 Z" fill="#42a7db" opacity="1.00" stroke="#42a7db" stroke-width="0.25"/>
<path d="M 155.73 77.81 C 156.42 79.00 157.26 80.09 158.16 81.14 L 158.63 79.11 C 162.24 79.04 161.72 82.78 162.21 85.28 C 162.70 83.41 162.35 80.98 164.18 79.77 C 164.52 80.87 164.85 81.97 165.19 83.07 C 165.39 82.25 165.81 80.62 166.02 79.81 C 167.67 81.04 168.38 83.41 170.60 83.82 C 170.65 84.43 170.73 85.64 170.77 86.25 C 172.28 86.12 173.70 86.21 173.80 88.08 C 174.35 85.65 175.97 83.72 177.39 81.75 C 178.02 85.88 178.03 90.07 177.31 94.18 C 176.01 121.25 175.65 148.43 176.89 175.52 C 176.10 175.04 175.30 174.55 174.50 174.07 C 173.94 177.35 173.62 180.67 173.70 184.01 C 173.89 194.81 173.52 205.63 174.08 216.43 L 175.30 216.35 C 175.21 210.16 174.98 203.96 175.51 197.78 C 176.48 204.81 176.27 211.92 176.89 218.98 C 177.84 229.02 177.17 239.13 178.21 249.17 C 178.54 261.77 178.54 274.38 178.73 286.99 C 178.76 306.34 177.47 325.68 178.25 345.03 C 178.82 358.36 178.84 371.70 178.91 385.04 C 179.69 395.04 178.30 405.00 177.96 414.98 C 177.81 417.87 177.83 420.98 176.00 423.42 C 175.50 417.91 176.38 412.43 176.69 406.95 C 175.58 412.86 174.55 418.81 174.25 424.83 L 174.13 426.62 C 173.17 426.67 171.24 426.75 170.28 426.80 C 170.23 426.06 170.13 424.58 170.08 423.85 C 169.94 426.59 167.11 426.20 166.81 423.84 C 166.70 424.53 166.49 425.92 166.38 426.61 C 164.02 427.91 164.08 424.88 163.65 423.57 C 163.36 420.76 163.47 417.90 162.68 415.17 C 162.55 418.96 162.42 422.78 161.41 426.47 C 160.24 426.48 159.08 426.50 157.92 426.52 C 157.63 424.36 157.14 422.23 156.50 420.16 C 154.29 421.17 151.23 421.54 151.10 424.58 C 149.37 424.43 147.49 424.24 146.77 426.31 C 146.28 423.56 145.68 420.84 145.10 418.12 C 144.82 419.59 144.54 421.07 144.27 422.56 C 143.78 422.50 142.80 422.39 142.31 422.33 C 142.29 422.91 142.24 424.07 142.22 424.65 C 140.37 424.62 138.52 424.56 136.68 424.36 C 136.52 425.94 136.36 427.52 136.20 429.11 C 135.70 428.53 135.20 427.96 134.71 427.39 C 134.03 427.47 132.68 427.62 132.01 427.70 C 131.50 427.25 130.48 426.36 129.97 425.91 C 129.61 424.82 129.25 423.75 128.88 422.68 C 128.66 423.82 128.21 426.11 127.98 427.26 C 127.05 425.64 126.01 423.99 125.90 422.07 C 124.10 405.42 124.50 388.65 124.16 371.93 C 123.65 361.31 123.62 350.65 124.18 340.03 C 124.45 323.37 124.43 306.70 124.78 290.04 C 125.70 270.03 125.33 249.99 126.17 229.97 C 126.73 196.84 127.04 163.71 127.91 130.59 C 112.85 142.86 99.24 156.78 85.57 170.55 C 80.72 175.71 74.55 179.49 70.30 185.23 C 70.15 184.65 69.84 183.49 69.68 182.90 C 69.34 183.14 68.65 183.61 68.31 183.84 C 67.64 184.12 66.31 184.67 65.64 184.94 C 67.99 181.31 70.52 177.78 72.65 174.01 C 70.48 175.69 68.47 177.58 66.20 179.13 C 63.95 179.70 62.04 177.64 60.07 176.81 C 65.62 172.39 70.61 167.21 76.82 163.69 C 82.62 160.38 86.74 155.02 91.37 150.37 C 103.20 138.88 114.88 127.21 127.05 116.07 C 133.48 110.46 139.88 104.72 145.32 98.12 C 138.11 103.63 131.10 109.60 125.20 116.52 C 124.60 115.93 124.01 115.33 123.42 114.73 C 124.75 113.96 126.08 113.20 127.41 112.43 C 126.49 112.42 124.64 112.41 123.72 112.41 C 127.26 109.04 131.04 105.91 134.21 102.16 C 127.10 106.49 121.74 113.00 115.33 118.21 C 99.72 131.22 85.91 146.18 71.62 160.59 C 72.81 160.40 74.01 160.22 75.20 160.03 C 70.82 164.79 66.01 169.12 61.46 173.71 C 60.82 173.64 59.54 173.50 58.90 173.43 L 57.07 173.25 C 58.97 170.82 60.78 168.31 62.28 165.62 C 59.49 167.53 56.22 169.69 55.61 173.30 C 53.57 174.81 52.46 172.70 51.23 171.65 C 52.71 168.76 54.22 165.88 55.58 162.93 C 54.77 163.77 53.96 164.62 53.16 165.48 C 52.15 165.61 51.14 165.75 50.13 165.90 C 50.44 164.67 50.74 163.44 51.05 162.21 C 50.03 163.04 47.99 164.70 46.97 165.53 C 47.77 164.01 49.37 160.98 50.17 159.46 L 44.31 164.42 C 45.30 162.98 47.28 160.11 48.27 158.68 C 47.71 158.64 46.58 158.55 46.01 158.51 C 48.87 155.18 51.70 151.83 54.58 148.52 C 62.31 138.38 72.01 130.01 80.89 120.92 C 87.66 114.34 93.76 107.09 100.94 100.93 C 105.89 96.13 111.65 92.15 115.88 86.65 C 117.78 84.20 120.75 82.95 123.64 82.11 C 123.10 84.41 122.47 86.73 122.51 89.11 C 123.72 88.09 124.91 87.06 126.11 86.02 C 126.63 85.05 127.15 84.08 127.67 83.11 C 127.56 81.89 127.45 80.66 127.34 79.44 C 127.54 80.01 127.94 81.14 128.13 81.70 C 129.18 81.60 130.23 81.50 131.27 81.40 C 131.36 83.00 131.46 84.60 131.57 86.21 C 133.62 83.93 135.35 81.41 137.11 78.91 C 137.72 80.69 138.33 82.47 138.90 84.26 C 139.85 83.66 140.79 83.05 141.73 82.45 C 143.30 82.43 144.88 82.41 146.46 82.38 C 146.51 82.80 146.62 83.63 146.68 84.05 C 148.17 83.72 149.64 83.25 150.97 82.48 C 151.85 82.86 153.61 83.61 154.49 83.99 C 154.94 81.93 155.38 79.88 155.73 77.81 Z" fill="#42a7db" opacity="1.00" stroke="#42a7db" stroke-width="0.25"/>
<path d="M 255.03 110.95 C 265.09 100.44 278.26 93.75 290.21 85.71 C 290.98 86.14 292.51 86.98 293.28 87.41 C 283.24 91.62 274.49 98.22 266.38 105.37 C 257.53 112.88 251.07 122.83 246.28 133.31 C 240.88 144.25 237.28 156.03 235.04 168.01 C 234.61 170.26 233.57 172.30 232.69 174.39 C 231.35 177.45 231.49 180.85 231.37 184.11 C 231.21 197.99 230.12 212.21 234.34 225.67 C 236.29 231.78 239.03 237.60 241.51 243.51 C 248.23 258.05 259.11 270.49 272.01 279.89 C 297.28 296.90 330.95 300.14 359.32 289.41 C 371.77 284.68 382.56 276.37 391.81 266.91 C 391.79 271.95 391.00 276.98 389.40 281.76 C 389.15 281.31 388.66 280.39 388.42 279.94 C 382.35 285.24 375.73 290.03 368.45 293.52 C 358.81 297.53 348.56 300.37 338.07 300.70 C 328.06 301.99 317.89 301.10 308.02 299.19 C 294.21 296.39 281.71 289.46 270.24 281.51 C 256.34 271.02 245.08 257.21 236.70 241.99 C 232.22 230.90 228.70 219.32 226.87 207.49 C 225.32 187.32 226.42 166.52 233.80 147.48 C 239.20 134.45 245.61 121.58 255.03 110.95 Z" fill="#6fcff4" opacity="1.00" stroke="#6fcff4" stroke-width="0.25"/>
<path d="M 149.00 101.98 C 149.25 97.66 148.60 93.20 149.96 89.01 C 151.86 94.35 150.85 100.15 151.41 105.71 C 151.83 105.20 152.65 104.17 153.07 103.66 C 153.75 117.76 152.95 131.88 153.77 145.98 C 153.89 156.10 154.67 166.29 153.45 176.37 C 151.73 159.54 152.92 142.55 151.57 125.70 C 150.38 131.73 151.23 137.90 151.20 143.99 C 151.72 159.32 151.30 174.66 151.37 190.00 C 152.88 224.33 151.80 258.71 152.23 293.06 C 152.23 304.37 152.00 315.68 151.99 326.99 C 151.95 328.83 151.93 330.77 150.98 332.42 C 150.42 321.96 150.74 311.46 150.37 300.99 C 149.87 283.70 150.55 266.41 150.22 249.11 C 149.92 217.06 150.12 185.02 149.77 152.97 C 149.88 135.97 148.95 118.98 149.00 101.98 Z" fill="#6fcff4" opacity="1.00" stroke="#6fcff4" stroke-width="0.25"/>
<path d="M 177.31 94.18 C 178.40 91.76 177.99 88.35 181.32 87.76 C 183.14 93.06 181.70 98.60 181.73 104.03 C 181.69 112.06 181.23 120.07 180.61 128.07 C 180.50 145.06 180.23 162.05 180.73 179.03 C 182.00 193.64 181.21 208.34 182.23 222.96 C 182.63 237.98 182.43 253.01 182.54 268.04 C 183.17 281.02 182.21 294.04 183.24 307.01 C 183.58 337.99 183.04 368.98 183.34 399.97 C 183.06 406.92 183.81 413.94 182.58 420.82 C 181.87 420.74 181.17 420.66 180.47 420.58 C 180.48 421.28 180.51 422.67 180.52 423.36 C 177.98 423.58 176.38 425.61 174.64 427.19 C 174.54 426.60 174.34 425.42 174.25 424.83 C 174.55 418.81 175.58 412.86 176.69 406.95 C 176.38 412.43 175.50 417.91 176.00 423.42 C 177.83 420.98 177.81 417.87 177.96 414.98 C 178.30 405.00 179.69 395.04 178.91 385.04 C 178.84 371.70 178.82 358.36 178.25 345.03 C 177.47 325.68 178.76 306.34 178.73 286.99 C 178.54 274.38 178.54 261.77 178.21 249.17 C 177.17 239.13 177.84 229.02 176.89 218.98 C 176.27 211.92 176.48 204.81 175.51 197.78 C 174.98 203.96 175.21 210.16 175.30 216.35 L 174.08 216.43 C 173.52 205.63 173.89 194.81 173.70 184.01 C 173.62 180.67 173.94 177.35 174.50 174.07 C 175.30 174.55 176.10 175.04 176.89 175.52 C 175.65 148.43 176.01 121.25 177.31 94.18 Z" fill="#6fcff4" opacity="1.00" stroke="#6fcff4" stroke-width="0.25"/>
<path d="M 146.60 97.07 C 146.59 95.31 146.86 93.56 147.32 91.86 C 148.09 98.85 147.36 105.90 147.73 112.92 C 148.29 124.60 147.55 136.31 148.16 148.00 C 149.12 171.66 148.52 195.34 148.84 219.01 C 148.89 240.67 149.44 262.33 149.28 283.99 C 149.08 302.96 149.80 321.94 149.31 340.91 C 148.94 344.67 149.19 348.61 147.80 352.19 C 146.02 342.56 146.57 332.75 146.37 323.01 C 146.41 304.67 146.38 286.32 147.08 267.99 C 147.07 247.99 147.41 227.98 147.55 207.97 C 147.47 203.61 146.26 199.36 146.33 194.99 C 146.42 162.35 146.60 129.71 146.60 97.07 Z" fill="#6fcff4" opacity="1.00" stroke="#6fcff4" stroke-width="0.25"/>
<path d="M 125.20 116.52 C 131.10 109.60 138.11 103.63 145.32 98.12 C 139.88 104.72 133.48 110.46 127.05 116.07 C 114.88 127.21 103.20 138.88 91.37 150.37 C 86.74 155.02 82.62 160.38 76.82 163.69 C 70.61 167.21 65.62 172.39 60.07 176.81 C 60.42 176.03 61.11 174.48 61.46 173.71 C 66.01 169.12 70.82 164.79 75.20 160.03 C 74.01 160.22 72.81 160.40 71.62 160.59 C 85.91 146.18 99.72 131.22 115.33 118.21 C 121.74 113.00 127.10 106.49 134.21 102.16 C 131.04 105.91 127.26 109.04 123.72 112.41 C 124.64 112.41 126.49 112.42 127.41 112.43 C 126.08 113.20 124.75 113.96 123.42 114.73 C 124.01 115.33 124.60 115.93 125.20 116.52 Z" fill="#6fcff4" opacity="1.00" stroke="#6fcff4" stroke-width="0.25"/>
<path d="M 302.37 105.38 C 321.26 98.15 342.36 94.91 362.26 99.63 C 354.13 100.76 346.00 98.69 337.86 99.50 C 321.03 100.67 303.41 104.37 289.85 114.98 C 294.10 114.03 297.38 110.97 301.36 109.38 C 307.49 106.81 313.90 104.63 320.57 104.12 C 314.21 107.13 307.00 107.95 300.80 111.43 C 301.81 111.54 303.82 111.78 304.83 111.90 C 302.62 115.25 298.24 115.85 295.14 118.12 C 285.93 124.38 278.03 132.68 272.42 142.30 C 267.70 152.61 262.25 162.77 260.04 173.99 C 256.09 194.67 257.86 217.04 268.18 235.69 C 272.14 242.51 277.02 248.94 283.28 253.81 C 287.29 256.94 292.05 258.88 296.16 261.85 C 292.10 261.01 288.62 258.74 285.16 256.60 L 284.95 257.16 C 284.91 258.51 286.11 259.14 287.09 259.80 C 293.09 263.46 299.19 267.10 305.96 269.16 C 319.24 273.74 333.50 273.24 347.30 272.16 C 346.30 272.86 345.32 273.71 344.06 273.88 C 329.16 276.96 313.40 275.24 299.36 269.43 C 292.36 266.42 286.34 261.53 280.99 256.18 C 281.42 256.07 282.30 255.83 282.74 255.72 C 282.84 253.27 279.07 252.57 277.51 251.10 C 278.50 252.66 279.50 254.23 280.48 255.80 C 277.73 254.09 275.45 251.78 273.48 249.24 C 274.01 247.21 273.27 245.35 271.85 243.86 C 271.83 244.70 271.78 246.39 271.76 247.23 C 265.35 238.69 259.61 229.42 256.64 219.08 C 249.00 196.71 249.05 171.40 258.49 149.58 C 261.89 141.50 266.25 133.69 272.44 127.41 C 280.52 117.89 290.76 110.08 302.37 105.38 Z" fill="#6fcff4" opacity="1.00" stroke="#6fcff4" stroke-width="0.25"/>
<path d="M 121.15 117.16 C 121.84 117.09 123.22 116.94 123.91 116.87 C 113.48 126.45 103.25 136.25 92.56 145.54 C 87.68 150.19 82.70 154.86 76.81 158.21 C 86.61 147.51 98.48 138.96 108.96 128.96 C 113.02 125.02 117.51 121.51 121.15 117.16 Z" fill="#42a7db" opacity="1.00" stroke="#42a7db" stroke-width="0.25"/>
<path d="M 318.66 128.55 C 326.13 125.61 333.81 122.57 341.98 122.51 C 352.46 121.97 362.88 125.01 371.99 130.08 C 378.08 133.37 382.84 138.51 388.52 142.40 C 392.38 145.04 394.67 149.21 397.30 152.95 C 405.01 164.18 410.78 176.80 413.77 190.11 C 413.87 186.60 413.51 183.05 412.09 179.80 C 409.71 174.19 407.85 168.34 404.76 163.06 C 402.93 159.31 400.13 156.02 399.16 151.90 C 412.97 167.84 419.32 190.15 415.75 210.99 C 414.93 218.63 412.53 226.10 408.68 232.75 C 398.59 247.70 381.97 258.22 363.98 260.31 C 353.23 262.27 342.22 260.64 331.92 257.28 C 307.23 250.38 286.92 229.17 282.09 203.84 C 279.81 197.39 280.94 190.50 279.72 183.90 C 279.38 187.62 279.76 191.65 277.42 194.83 C 277.05 186.60 276.37 178.05 279.11 170.13 C 279.70 168.41 279.91 166.60 279.86 164.80 C 276.14 171.71 275.60 179.69 275.45 187.38 C 275.10 199.31 277.72 211.10 281.87 222.23 C 283.24 225.57 285.00 228.76 285.99 232.25 C 281.68 227.53 280.04 221.18 277.78 215.36 C 273.21 201.50 272.18 186.38 275.27 172.09 C 277.87 163.44 281.61 155.09 286.35 147.40 C 290.74 140.32 296.71 134.39 302.93 128.92 C 304.05 127.85 305.59 127.47 307.02 127.00 C 303.78 132.09 298.10 134.74 294.29 139.29 C 289.75 144.63 285.60 150.42 283.01 156.97 C 285.31 157.00 285.84 154.55 286.76 152.94 C 288.59 148.96 291.05 145.22 294.26 142.22 C 295.13 141.34 296.48 141.47 297.60 141.20 C 303.52 135.41 310.78 131.10 318.66 128.55 Z" fill="#6fcff4" opacity="1.00" stroke="#6fcff4" stroke-width="0.25"/>
<path d="M 85.57 170.55 C 99.24 156.78 112.85 142.86 127.91 130.59 C 127.04 163.71 126.73 196.84 126.17 229.97 C 125.33 249.99 125.70 270.03 124.78 290.04 C 124.43 306.70 124.45 323.37 124.18 340.03 C 123.62 350.65 123.65 361.31 124.16 371.93 C 124.50 388.65 124.10 405.42 125.90 422.07 C 126.01 423.99 127.05 425.64 127.98 427.26 C 127.75 428.65 127.51 430.06 127.27 431.46 C 126.47 431.33 125.68 431.21 124.89 431.10 C 124.84 429.09 124.21 427.34 122.99 425.85 C 122.56 427.94 122.18 430.12 121.79 432.24 C 119.49 425.40 119.84 418.14 119.28 411.05 C 118.01 403.98 118.93 396.73 117.47 389.69 C 117.58 393.47 117.15 397.23 116.71 400.98 C 116.40 407.10 116.69 413.23 116.93 419.34 C 116.41 419.53 115.37 419.91 114.85 420.09 C 114.45 405.07 113.51 390.06 113.74 375.03 C 113.90 360.01 113.40 344.98 114.25 329.99 C 114.79 314.66 114.23 299.30 115.23 283.99 C 115.66 261.66 115.79 239.33 115.75 217.00 C 116.41 198.72 116.60 180.41 116.55 162.12 C 107.80 171.51 98.54 180.43 89.50 189.54 C 86.87 192.40 83.54 194.49 79.90 195.82 C 79.71 196.11 79.34 196.70 79.16 196.99 C 77.84 196.15 76.27 196.62 74.83 196.68 C 74.51 196.41 73.88 195.88 73.56 195.61 C 72.51 195.32 71.46 195.02 70.41 194.72 C 70.10 191.69 70.72 188.71 72.43 186.17 C 70.11 187.00 68.74 186.22 68.31 183.84 C 68.65 183.61 69.34 183.14 69.68 182.90 C 69.84 183.49 70.15 184.65 70.30 185.23 C 74.55 179.49 80.72 175.71 85.57 170.55 Z" fill="#6fcff4" opacity="1.00" stroke="#6fcff4" stroke-width="0.25"/>
<path d="M 340.04 130.90 C 352.55 128.97 365.55 132.85 375.71 140.19 C 386.13 147.21 393.32 158.09 398.19 169.50 C 400.10 173.75 400.38 178.47 401.13 183.01 C 403.23 195.40 403.03 209.16 396.00 220.04 C 392.03 227.90 385.60 234.61 377.57 238.35 C 369.39 242.61 360.10 244.06 350.98 244.34 C 339.04 244.12 326.83 241.76 316.51 235.51 C 311.36 232.03 306.05 228.20 303.13 222.54 C 298.23 214.15 296.42 204.48 295.20 194.97 C 293.11 182.54 295.21 169.48 301.03 158.30 C 305.93 149.89 312.18 141.80 320.74 136.87 C 326.77 133.81 333.34 131.79 340.04 130.90 Z" fill="#ffffff" opacity="1.00" stroke="#ffffff" stroke-width="0.25"/>
<path d="M 443.77 133.57 C 447.67 136.79 449.84 141.47 452.42 145.70 C 454.49 149.55 457.01 153.34 457.58 157.78 C 454.46 153.93 452.54 149.32 450.04 145.09 C 448.03 141.20 445.38 137.66 443.77 133.57 Z" fill="#6fcff4" opacity="1.00" stroke="#6fcff4" stroke-width="0.25"/>
<path d="M 265.83 149.02 C 266.92 146.64 267.99 144.05 270.41 142.72 C 268.15 147.94 265.38 152.93 263.36 158.25 C 256.58 172.40 255.68 188.58 256.92 203.99 C 257.25 210.45 259.63 216.54 260.43 222.93 C 258.66 220.49 258.12 217.50 257.42 214.64 C 253.61 201.11 254.19 186.69 256.91 173.02 C 258.44 164.54 262.30 156.79 265.83 149.02 Z" fill="#42a7db" opacity="1.00" stroke="#42a7db" stroke-width="0.25"/>
<path d="M 55.61 173.30 C 56.22 169.69 59.49 167.53 62.28 165.62 C 60.78 168.31 58.97 170.82 57.07 173.25 L 58.90 173.43 C 57.84 174.35 56.77 175.26 55.70 176.16 C 54.04 175.06 52.06 175.51 50.21 175.54 C 50.44 174.11 50.67 172.69 50.92 171.27 C 50.97 172.39 51.00 173.51 51.03 174.64 C 52.12 174.59 54.31 174.48 55.40 174.43 L 55.61 173.30 Z" fill="#6fcff4" opacity="1.00" stroke="#6fcff4" stroke-width="0.25"/>
<path d="M 66.20 179.13 C 68.47 177.58 70.48 175.69 72.65 174.01 C 70.52 177.78 67.99 181.31 65.64 184.94 L 65.54 185.10 C 65.61 184.17 65.75 182.31 65.82 181.38 C 64.44 181.43 63.05 181.48 61.67 181.53 C 61.46 180.23 61.09 178.98 60.48 177.81 C 60.37 177.56 60.17 177.06 60.07 176.81 C 62.04 177.64 63.95 179.70 66.20 179.13 Z" fill="#6fcff4" opacity="1.00" stroke="#6fcff4" stroke-width="0.25"/>
<path d="M 233.82 216.20 C 233.05 210.78 232.10 205.22 233.44 199.81 C 233.81 205.19 234.21 210.57 235.04 215.90 C 235.47 219.26 237.98 221.77 239.13 224.87 C 241.54 231.57 243.14 238.64 246.80 244.83 C 243.60 244.15 242.38 240.73 240.85 238.25 C 237.48 231.29 234.88 223.88 233.82 216.20 Z" fill="#6fcff4" opacity="1.00" stroke="#6fcff4" stroke-width="0.25"/>
<path d="M 447.51 221.80 C 448.61 233.48 446.85 245.25 444.40 256.65 C 443.72 253.09 444.56 249.51 445.10 245.99 C 446.41 237.98 446.46 229.83 447.51 221.80 Z" fill="#6fcff4" opacity="1.00" stroke="#6fcff4" stroke-width="0.25"/>
<path d="M 448.64 238.05 C 449.27 234.57 448.54 230.58 450.75 227.59 C 451.81 234.42 450.54 241.28 449.80 248.07 C 447.98 263.34 444.00 278.29 438.73 292.72 C 436.98 297.32 435.69 302.15 433.03 306.34 C 433.86 301.10 435.79 296.13 437.26 291.05 C 442.87 273.83 446.39 255.99 448.64 238.05 Z" fill="#6fcff4" opacity="1.00" stroke="#6fcff4" stroke-width="0.25"/>
<path d="M 153.43 291.68 C 155.52 298.91 154.56 306.56 154.82 313.98 C 155.08 331.89 154.99 349.81 154.44 367.72 C 154.19 367.73 153.69 367.73 153.44 367.73 C 153.89 342.38 152.51 317.01 153.43 291.68 Z" fill="#6fcff4" opacity="1.00" stroke="#6fcff4" stroke-width="0.25"/>
<path d="M 390.06 300.11 C 391.73 297.18 393.46 294.18 396.28 292.19 C 396.74 294.56 396.46 296.99 395.16 299.05 C 388.93 310.54 382.09 321.75 374.15 332.15 C 364.24 343.59 352.97 353.81 341.09 363.16 C 336.31 367.07 331.53 371.00 326.23 374.19 C 306.75 385.40 284.43 390.79 262.12 392.10 C 262.74 392.68 263.37 393.27 264.00 393.87 C 263.94 394.70 263.90 395.53 263.85 396.38 C 264.89 397.21 265.92 398.06 266.95 398.93 C 264.67 398.57 262.54 397.70 260.42 396.82 C 260.49 395.37 260.56 393.93 260.63 392.49 C 259.69 392.00 258.75 391.52 257.82 391.04 C 263.54 390.15 269.30 389.39 274.89 387.85 C 272.65 387.08 270.35 386.50 268.03 386.04 C 269.79 385.77 271.49 385.40 273.27 385.14 C 271.42 384.16 269.59 383.19 267.77 382.18 C 269.82 381.35 271.83 380.45 273.81 379.47 C 272.07 379.55 270.32 379.64 268.58 379.76 C 268.60 378.64 268.41 377.59 267.57 376.82 C 268.68 375.34 269.96 373.75 271.96 373.57 C 277.80 372.57 283.27 370.17 289.06 368.99 C 298.89 367.10 308.44 363.86 317.53 359.70 C 341.38 347.58 362.04 329.00 375.83 306.00 C 378.08 302.22 379.93 298.07 383.21 295.03 C 383.65 302.09 377.10 306.94 374.78 313.17 C 377.96 309.97 380.19 305.98 383.40 302.80 C 382.75 305.00 382.06 307.19 381.36 309.37 C 384.60 306.64 387.92 303.84 390.06 300.11 Z" fill="#6fcff4" opacity="1.00" stroke="#6fcff4" stroke-width="0.25"/>
<path d="M 302.81 419.77 C 319.10 415.96 334.55 409.14 349.08 400.93 C 343.06 405.98 335.90 409.32 328.96 412.88 C 316.68 418.72 303.48 422.67 289.96 424.23 C 283.81 424.79 277.72 427.03 271.51 425.72 C 271.51 426.26 271.53 426.81 271.55 427.36 C 272.89 427.31 275.57 427.20 276.92 427.15 C 274.51 427.74 272.08 428.26 269.65 428.75 C 270.68 429.30 271.71 429.84 272.75 430.40 C 272.48 431.19 272.22 431.99 271.96 432.79 C 270.48 432.40 269.13 431.71 267.88 430.86 C 265.50 430.32 263.13 429.75 260.80 429.08 C 263.35 428.68 265.89 428.08 268.18 426.83 C 267.16 425.40 266.06 424.03 264.93 422.70 C 266.98 422.45 269.07 422.15 270.87 421.05 C 281.42 423.90 292.33 421.93 302.81 419.77 Z" fill="#6fcff4" opacity="1.00" stroke="#6fcff4" stroke-width="0.25"/>
<path d="M 262.17 412.31 C 262.70 410.60 263.24 408.90 263.75 407.19 C 266.54 408.20 269.50 408.17 272.39 407.75 C 270.58 408.66 268.78 409.60 266.99 410.56 C 267.89 411.77 268.79 412.98 269.70 414.20 C 269.32 416.14 268.94 418.08 268.64 420.03 C 269.20 420.29 270.31 420.80 270.87 421.05 C 267.48 421.82 268.94 417.78 266.43 417.12 C 268.10 416.76 269.23 415.91 268.59 414.04 C 266.63 412.91 264.40 412.49 262.17 412.31 Z" fill="#6fcff4" opacity="1.00" stroke="#6fcff4" stroke-width="0.25"/>
<path d="M 325.18 418.46 C 329.43 416.95 333.55 415.03 338.00 414.13 C 333.80 416.39 329.23 417.79 324.82 419.56 C 321.49 420.82 318.64 423.13 315.20 424.14 C 305.37 426.87 295.12 427.95 284.93 428.01 C 282.96 427.86 280.70 428.31 279.02 426.99 C 294.70 426.47 310.52 424.24 325.18 418.46 Z" fill="#6fcff4" opacity="1.00" stroke="#6fcff4" stroke-width="0.25"/>
<path d="M 275.47 430.25 C 276.49 429.46 279.22 429.25 279.58 430.71 C 278.54 431.44 275.83 431.71 275.47 430.25 Z" fill="#6fcff4" opacity="1.00" stroke="#6fcff4" stroke-width="0.25"/>
</svg>