<svg xmlns="http://www.w3.org/2000/svg" height="512pt" version="1.1" viewBox="0 0 512 512" width="512pt"><defs>
                <linearGradient id="grad-40" gradientTransform="rotate(349 0.5 0.5)">
                
                        <stop stop-color="#f4763c" offset="0"></stop>
                    ,
                        <stop stop-color="#f4763c" offset="0.25"></stop>
                    ,
                        <stop stop-color="#f4763c" offset="0.5"></stop>
                    ,
                        <stop stop-color="#f4763c" offset="0.75"></stop>
                    
                </linearGradient>
          </defs>
<path d="M 0.00 0.00 L 512.00 0.00 L 512.00 512.00 L 0.00 512.00 L 0.00 0.00 Z" fill="transparent" opacity="1.00" stroke="transparent" stroke-width="0.25" data-index="0" style="opacity: 1;"></path>
<path d="M 369.76 20.11 C 370.30 20.58 370.85 21.06 371.40 21.55 C 372.68 21.67 373.98 21.68 375.28 21.59 C 374.42 24.09 373.51 26.65 371.62 28.58 C 371.51 30.04 371.41 31.50 371.33 32.96 C 372.08 32.69 372.84 32.43 373.60 32.16 C 373.38 34.06 373.57 35.80 375.89 35.84 C 374.99 38.46 373.64 40.92 371.48 42.72 C 371.55 40.62 371.62 38.53 371.77 36.44 C 370.96 36.31 369.35 36.06 368.55 35.94 C 368.58 32.25 370.91 27.87 367.30 25.11 C 368.07 23.42 368.91 21.76 369.76 20.11 Z" fill="#fba681" opacity="1.00" stroke="#fba681" stroke-width="0.25" data-index="1"></path>
<path d="M 312.02 24.66 C 314.04 26.14 316.46 26.67 318.94 26.50 C 317.67 28.48 316.42 30.47 315.12 32.44 C 316.46 34.01 318.15 35.07 320.25 34.27 C 319.97 35.12 319.70 35.98 319.44 36.83 C 321.32 37.87 320.30 40.04 320.21 41.71 C 321.87 41.52 323.54 41.34 325.21 41.14 C 324.44 42.28 323.68 43.43 322.99 44.61 C 326.44 44.04 328.47 40.95 331.24 39.15 C 336.98 35.65 341.50 29.72 348.67 29.10 C 348.57 30.59 348.45 32.07 348.32 33.56 C 348.77 33.87 349.66 34.49 350.11 34.80 C 349.17 36.24 348.22 37.67 347.30 39.11 C 352.99 35.81 356.27 29.35 362.58 26.97 C 362.57 27.78 362.57 29.40 362.57 30.21 C 364.29 28.65 365.92 26.99 367.30 25.11 C 370.91 27.87 368.58 32.25 368.55 35.94 C 369.35 36.06 370.96 36.31 371.77 36.44 C 371.62 38.53 371.55 40.62 371.48 42.72 C 371.18 43.89 370.46 44.90 369.92 45.96 C 370.81 45.44 371.71 44.93 372.61 44.42 C 373.08 46.66 374.50 49.48 372.29 51.26 C 372.70 51.69 373.51 52.56 373.92 52.99 C 373.48 53.55 372.61 54.65 372.18 55.20 C 376.87 55.53 378.52 49.06 383.22 49.21 C 382.24 51.70 380.66 53.85 379.03 55.95 C 379.53 55.47 380.52 54.52 381.02 54.05 L 382.03 54.63 C 382.83 55.61 383.61 56.60 384.38 57.61 C 384.54 57.83 384.88 58.27 385.05 58.50 C 385.39 58.48 386.09 58.44 386.43 58.42 C 387.76 57.28 389.10 56.17 390.48 55.09 C 391.46 58.79 386.65 59.82 385.97 63.09 C 389.02 61.40 391.40 58.84 393.60 56.19 L 394.64 56.40 C 394.87 56.45 395.32 56.55 395.54 56.60 C 395.53 57.30 395.52 58.72 395.51 59.43 C 395.98 59.38 396.91 59.29 397.37 59.24 C 396.79 60.46 395.85 61.78 397.20 62.88 C 395.11 68.26 391.52 72.85 389.31 78.17 C 391.17 77.25 392.98 76.19 394.93 75.45 C 397.50 76.69 397.95 79.86 399.13 82.19 C 403.64 79.41 407.58 75.85 411.38 72.19 C 418.60 65.99 427.21 61.70 434.67 55.87 C 434.59 56.36 434.42 57.34 434.34 57.83 C 435.25 57.16 436.17 56.49 437.10 55.82 C 440.66 57.99 442.31 61.91 444.87 65.01 C 445.16 65.32 445.73 65.96 446.02 66.27 L 445.19 67.34 C 444.23 68.55 443.25 69.74 442.29 70.95 C 442.67 71.18 443.43 71.64 443.81 71.87 C 443.78 73.41 443.77 74.94 443.75 76.48 C 445.06 76.04 446.37 75.60 447.68 75.16 C 447.58 75.78 447.38 77.00 447.28 77.61 C 446.00 80.87 444.78 84.38 446.25 87.81 C 444.95 89.92 443.58 91.98 442.20 94.05 C 443.72 95.55 445.28 97.02 446.62 98.70 C 444.69 100.61 442.78 102.61 441.87 105.23 C 440.24 103.89 439.00 102.18 438.02 100.32 C 435.95 101.76 433.85 103.16 431.77 104.57 C 434.37 100.59 437.41 96.90 439.67 92.70 C 440.94 90.29 443.28 88.14 443.14 85.24 C 442.58 78.61 441.74 71.55 437.00 66.44 C 434.59 66.46 432.10 66.13 429.77 66.87 C 421.84 69.97 415.74 76.07 409.03 81.08 C 405.99 83.95 403.41 87.34 399.84 89.62 C 399.23 88.08 398.63 86.54 398.06 84.99 C 394.88 86.16 392.20 88.23 389.75 90.51 C 389.01 89.59 387.86 88.92 387.50 87.76 C 387.14 82.23 386.71 76.59 388.47 71.23 C 387.27 68.16 385.64 65.26 384.66 62.10 C 381.36 61.98 377.62 61.57 374.99 64.00 C 371.42 67.10 367.48 69.75 363.81 72.73 C 358.27 78.42 353.69 86.15 345.53 88.32 C 347.22 85.38 349.40 82.76 351.23 79.92 C 348.66 81.08 346.22 82.52 343.84 84.01 C 344.52 79.70 345.21 75.29 347.26 71.37 C 348.31 69.01 349.93 66.83 350.39 64.25 C 350.39 61.69 347.95 60.22 346.43 58.52 C 346.65 54.12 346.60 49.01 342.29 46.50 C 342.33 44.93 342.38 43.37 342.44 41.81 C 339.36 43.53 336.37 45.44 333.05 46.69 C 331.49 45.93 330.01 44.78 328.25 44.61 C 323.72 46.44 318.86 47.93 315.13 51.24 C 311.74 54.16 307.69 56.25 304.55 59.48 C 300.77 63.55 295.64 65.89 291.19 69.10 C 290.38 67.98 289.58 66.87 288.77 65.75 C 287.44 65.90 286.11 66.05 284.78 66.20 C 283.48 62.57 284.30 58.78 285.71 55.32 C 284.59 55.36 283.48 55.40 282.36 55.43 C 277.91 58.44 276.03 63.89 271.51 66.72 C 271.13 67.62 270.76 68.53 270.40 69.44 C 270.04 69.16 269.32 68.60 268.96 68.32 C 266.13 70.60 263.36 72.96 260.72 75.45 C 260.99 75.69 261.52 76.15 261.78 76.39 C 258.06 78.49 255.33 81.59 253.49 85.39 C 245.01 91.52 239.04 100.57 230.09 106.10 C 227.74 107.69 225.87 109.88 223.54 111.49 C 221.83 111.43 220.19 110.89 218.50 110.71 C 214.66 113.40 213.76 119.44 208.47 120.20 C 209.01 118.77 209.57 117.35 210.12 115.93 C 207.95 117.29 205.80 118.68 203.68 120.12 C 203.97 121.50 204.35 122.88 204.39 124.30 C 201.82 128.03 197.94 130.56 194.70 133.65 C 191.08 136.70 188.69 140.95 184.92 143.83 C 179.70 147.95 175.53 153.18 170.73 157.75 C 167.92 160.42 163.99 161.46 161.11 164.05 C 157.98 166.89 153.98 169.16 152.40 173.31 C 148.52 181.98 140.35 187.34 133.37 193.29 C 129.04 196.70 126.83 202.07 122.35 205.31 C 118.96 207.91 115.88 210.88 113.07 214.09 C 109.34 218.45 105.06 222.44 102.48 227.65 C 103.39 227.22 104.29 226.80 105.20 226.37 C 101.93 232.17 103.93 238.74 103.66 244.99 C 103.47 248.14 105.26 251.06 105.20 254.15 C 100.72 258.15 97.51 263.25 94.49 268.39 C 92.85 271.25 92.97 274.64 92.40 277.80 C 91.92 282.22 86.00 284.41 87.02 289.20 C 86.45 293.99 84.85 298.69 85.58 303.59 C 88.55 304.13 91.79 305.29 94.65 303.73 C 97.47 302.40 100.42 301.36 103.54 301.04 C 103.64 304.85 103.70 308.91 101.21 312.07 C 101.67 313.05 102.14 314.03 102.61 315.02 C 101.12 317.71 98.79 320.69 100.54 323.85 C 101.76 322.64 102.97 321.43 104.18 320.21 C 102.49 324.16 99.41 327.33 98.04 331.43 C 100.82 329.63 103.76 328.08 106.80 326.76 C 106.48 329.60 107.25 333.41 104.46 335.26 C 99.39 339.07 93.05 342.35 90.80 348.69 C 95.04 348.54 99.28 348.44 103.52 348.25 C 106.63 345.56 110.66 344.62 114.45 343.32 C 113.37 347.12 113.82 351.11 114.64 354.91 C 115.06 357.63 118.17 358.62 120.44 359.34 C 123.15 359.52 125.67 358.09 128.20 357.31 C 128.49 361.37 128.31 365.46 127.43 369.45 C 130.09 368.90 132.82 368.82 135.52 369.12 C 137.42 367.64 139.16 365.54 141.73 365.42 C 145.73 365.13 149.21 363.08 152.67 361.26 C 154.93 363.81 157.95 365.31 161.41 364.63 C 162.59 363.36 163.63 361.89 165.15 361.01 C 168.42 359.68 172.30 360.33 175.31 358.30 C 178.28 356.13 182.27 357.13 185.43 355.42 C 192.92 351.61 197.20 343.90 204.04 339.19 C 204.78 335.65 205.59 331.88 208.10 329.12 C 209.44 328.01 211.04 327.27 212.52 326.37 C 215.36 325.11 215.71 321.64 217.58 319.47 C 220.40 317.36 224.08 316.85 226.98 314.88 C 228.81 313.05 230.03 310.73 231.66 308.74 C 234.27 305.36 238.03 303.12 240.66 299.76 C 242.66 297.40 244.24 294.53 247.02 292.97 C 249.49 291.48 252.42 290.60 254.30 288.29 C 258.73 283.45 263.70 278.21 270.58 277.41 C 274.50 271.51 279.87 266.84 284.47 261.48 C 286.90 258.93 290.50 258.26 293.52 256.69 C 297.72 254.72 300.25 250.47 304.41 248.45 C 307.98 246.57 312.88 249.27 315.61 245.58 C 319.90 242.47 320.54 236.71 324.27 233.20 C 327.50 231.46 331.61 232.62 334.91 230.95 C 340.33 227.91 345.19 223.93 349.31 219.27 C 353.23 214.77 358.44 211.63 362.23 207.02 C 365.75 202.88 370.34 199.90 374.65 196.68 C 378.08 194.36 379.12 189.86 382.67 187.68 C 386.62 184.99 391.06 182.93 394.36 179.37 C 397.51 175.80 402.81 174.57 405.04 170.14 C 406.62 167.17 406.01 163.69 406.77 160.53 C 408.67 156.44 411.09 152.61 413.59 148.87 C 413.11 148.15 412.63 147.44 412.15 146.73 C 415.66 142.99 419.59 139.59 422.20 135.11 C 421.02 135.23 419.86 135.36 418.69 135.49 C 417.95 133.64 417.22 131.80 416.50 129.96 C 417.91 128.12 419.31 126.27 420.66 124.38 C 418.42 124.06 416.15 124.17 413.93 124.52 C 417.12 119.61 420.21 113.65 426.30 111.97 C 426.04 112.52 425.52 113.63 425.26 114.18 C 428.30 116.34 431.25 118.63 434.17 120.95 C 432.82 125.34 430.29 129.53 430.58 134.26 C 430.80 139.35 429.50 144.31 428.53 149.27 C 428.21 151.45 426.71 153.12 425.35 154.76 C 426.41 154.56 427.48 154.38 428.56 154.20 C 428.85 154.75 429.44 155.85 429.73 156.41 C 430.65 156.50 431.58 156.60 432.52 156.70 L 432.60 157.61 C 432.66 157.69 432.79 157.85 432.86 157.94 C 433.49 158.64 434.12 159.36 434.74 160.09 C 433.94 162.64 432.76 165.06 431.84 167.57 C 433.03 167.16 434.22 166.75 435.41 166.34 C 437.07 169.79 439.08 173.05 441.16 176.26 C 441.87 178.95 439.71 181.26 438.40 183.39 C 434.91 188.08 434.82 194.45 431.00 198.97 C 428.62 201.72 426.73 204.88 426.16 208.52 C 421.41 210.00 419.68 215.12 415.96 217.98 C 407.30 225.29 400.20 234.33 390.96 240.97 C 387.45 244.14 384.09 247.50 380.20 250.22 C 375.07 255.09 369.56 259.53 364.33 264.28 C 357.92 267.92 349.12 270.19 346.27 277.75 C 348.26 276.73 350.20 275.60 352.09 274.40 C 351.12 276.56 350.39 278.92 348.68 280.64 C 344.62 284.66 340.52 288.82 335.31 291.33 C 330.14 293.92 326.10 298.41 324.03 303.80 C 325.35 303.61 326.67 303.43 328.00 303.25 C 326.70 305.45 325.20 307.58 323.02 308.99 C 318.87 311.78 315.39 315.40 311.54 318.56 C 303.11 325.07 294.85 331.79 286.76 338.70 C 284.55 340.50 280.87 338.61 279.06 341.03 C 277.31 343.96 276.41 347.42 273.87 349.85 C 270.59 353.13 267.94 357.26 263.84 359.59 C 262.54 359.40 261.29 359.02 260.03 358.67 C 258.96 358.92 257.89 359.18 256.83 359.44 C 258.55 354.44 262.72 351.01 266.23 347.27 C 270.74 342.69 276.51 339.66 281.22 335.31 C 285.34 331.37 291.01 328.75 293.16 323.11 C 290.37 325.01 287.54 326.86 284.56 328.46 C 287.13 324.68 291.06 322.02 293.29 317.98 C 288.90 320.14 285.97 324.18 282.19 327.15 C 278.26 330.66 273.69 333.61 270.72 338.06 C 273.23 336.54 275.82 335.15 278.40 333.73 C 274.77 338.98 269.18 342.34 264.22 346.18 C 258.56 350.08 254.43 355.74 248.92 359.82 C 245.98 362.08 241.93 362.53 239.37 365.33 C 233.04 371.68 227.23 378.55 220.75 384.76 C 218.11 387.43 214.45 388.54 211.18 390.19 C 208.49 391.46 207.16 394.29 205.30 396.45 C 203.71 398.95 200.41 398.21 197.91 398.51 C 202.15 392.36 208.51 388.15 213.33 382.51 C 208.15 381.96 204.59 386.26 200.33 388.38 C 197.09 390.30 192.92 390.47 190.17 393.22 C 186.78 396.48 183.60 399.96 180.11 403.11 C 176.10 406.86 171.05 409.35 167.39 413.49 C 165.33 415.82 162.91 417.79 160.19 419.30 C 159.99 418.53 159.59 417.00 159.38 416.24 C 156.02 417.93 153.85 420.99 151.86 424.06 C 145.67 426.96 142.40 433.17 137.47 437.57 C 134.42 436.05 131.17 436.85 128.14 437.94 C 126.46 438.33 124.77 438.65 123.07 438.98 C 119.63 434.63 122.30 429.00 122.63 424.11 C 119.48 427.39 114.95 427.63 110.92 429.05 C 111.86 427.44 111.79 425.54 112.37 423.82 C 113.50 420.11 115.36 416.62 115.77 412.72 C 116.20 412.14 117.06 410.98 117.49 410.40 C 118.30 409.65 119.15 408.95 119.99 408.23 C 118.42 408.61 116.85 408.98 115.28 409.37 C 116.33 406.83 117.43 404.29 118.90 401.96 C 116.45 403.40 113.79 404.94 110.83 404.28 C 111.09 402.83 111.46 401.42 111.90 400.02 C 112.97 398.67 114.17 397.39 115.01 395.88 C 115.34 394.27 114.70 392.65 114.52 391.07 C 112.39 391.97 110.33 393.19 108.01 393.48 C 105.93 393.45 103.94 392.83 101.94 392.35 C 102.28 389.62 103.06 386.97 104.09 384.43 C 101.28 384.04 98.35 384.22 96.33 386.48 C 94.65 388.10 93.18 389.92 91.61 391.64 C 89.07 393.77 86.30 395.61 84.00 398.03 C 81.40 399.60 80.21 395.99 79.04 394.40 C 78.12 394.76 76.28 395.50 75.36 395.86 C 75.82 394.53 76.23 393.20 76.61 391.86 C 75.08 390.10 73.41 388.45 72.15 386.48 C 70.90 386.55 69.64 386.62 68.39 386.71 C 68.41 386.18 68.45 385.11 68.47 384.58 C 67.85 384.60 66.60 384.64 65.98 384.66 C 67.48 382.23 68.39 379.50 69.50 376.89 C 68.39 377.28 66.15 378.04 65.04 378.42 C 65.55 377.57 66.58 375.86 67.10 375.01 C 66.08 375.19 64.05 375.56 63.03 375.74 C 64.03 371.99 67.87 370.37 70.61 368.09 C 70.51 367.69 70.31 366.89 70.21 366.49 C 69.74 366.49 68.81 366.49 68.35 366.49 C 71.17 364.22 73.39 361.34 75.62 358.51 C 74.68 358.56 72.81 358.67 71.87 358.72 C 76.04 355.46 78.00 350.30 82.02 346.92 C 85.57 343.90 87.83 339.68 91.51 336.76 C 91.06 334.89 88.52 335.59 87.13 335.03 C 84.50 337.51 81.99 340.13 79.09 342.30 C 79.46 341.38 80.20 339.52 80.57 338.60 C 79.62 338.89 77.73 339.47 76.78 339.76 C 78.11 338.88 79.46 337.93 80.25 336.50 C 78.24 336.43 76.37 335.60 74.37 335.45 C 74.45 333.77 74.51 332.09 74.56 330.42 C 72.77 329.86 70.95 329.43 69.10 329.17 C 69.36 325.22 71.85 322.26 74.15 319.26 C 71.09 318.77 68.75 320.37 67.08 322.86 C 66.62 319.93 68.96 318.09 70.58 316.14 C 70.56 315.46 70.52 314.11 70.50 313.43 C 74.77 309.26 78.85 304.84 82.00 299.75 C 80.84 299.05 79.69 298.35 78.54 297.65 C 78.78 295.40 78.03 293.37 76.42 291.82 C 76.73 290.24 77.39 288.75 77.91 287.24 C 77.20 286.81 76.49 286.39 75.78 285.97 C 77.11 284.84 78.44 283.71 79.77 282.58 C 79.61 282.20 79.31 281.45 79.16 281.07 C 78.09 280.38 77.00 279.72 75.89 279.10 C 71.40 281.66 68.96 286.43 64.88 289.47 C 63.11 289.95 61.28 290.29 59.62 291.13 C 59.65 290.61 59.69 289.59 59.72 289.08 C 59.10 289.23 57.88 289.54 57.27 289.69 C 57.45 288.82 57.81 287.08 57.99 286.21 C 55.67 287.65 53.51 289.35 51.86 291.56 C 51.60 289.49 49.61 289.44 47.99 289.09 C 47.15 287.41 46.33 285.72 45.49 284.04 C 46.65 282.31 47.70 280.51 48.72 278.70 C 52.34 278.72 55.03 276.23 57.81 274.29 C 57.04 273.02 56.23 271.78 55.40 270.56 C 60.15 266.58 63.51 261.20 68.53 257.52 C 68.61 256.85 68.78 255.51 68.87 254.84 C 66.63 256.67 64.47 258.62 61.92 260.01 C 62.55 259.04 63.20 258.09 63.88 257.15 L 64.42 256.36 C 64.12 255.18 63.75 254.02 63.40 252.86 C 68.55 246.57 74.70 241.21 80.15 235.20 C 83.66 231.39 87.59 227.87 90.17 223.32 C 86.58 224.26 84.53 227.55 81.91 229.88 C 77.19 234.15 73.11 239.08 68.25 243.21 C 64.13 246.75 60.27 250.60 56.79 254.78 C 54.37 257.75 51.70 260.51 49.24 263.46 C 44.29 268.97 39.13 274.29 33.71 279.35 C 31.82 279.58 29.93 279.82 28.05 280.05 C 29.97 277.20 32.17 274.43 35.56 273.28 C 38.80 272.08 38.92 268.19 40.76 265.75 C 42.91 263.72 45.84 262.81 48.17 261.03 C 49.32 259.58 49.72 257.70 50.44 256.02 C 49.97 255.89 49.04 255.63 48.57 255.50 C 51.88 251.31 55.45 247.34 59.16 243.50 L 59.27 243.17 C 59.89 239.78 62.16 237.06 63.24 233.83 C 61.04 235.47 59.01 237.32 57.00 239.19 C 56.15 238.52 55.30 237.86 54.45 237.20 C 57.52 233.53 61.10 230.31 63.93 226.43 C 68.56 221.62 73.31 216.93 77.76 211.95 C 82.24 207.98 85.58 202.98 89.56 198.56 C 93.74 193.78 98.51 189.51 102.31 184.40 C 101.91 184.27 101.11 184.01 100.71 183.88 L 99.20 183.10 C 101.21 181.11 103.14 179.04 104.83 176.77 C 101.13 178.29 98.74 181.62 95.71 184.06 C 97.58 180.90 100.43 178.56 102.97 175.98 C 109.60 169.32 115.80 162.25 122.27 155.45 C 126.53 151.63 129.90 146.99 134.02 143.04 C 136.35 140.76 138.57 138.36 140.72 135.90 C 140.59 135.32 140.34 134.15 140.21 133.56 C 147.85 126.45 154.18 118.01 162.01 111.06 C 165.45 108.07 167.51 103.82 171.20 101.07 C 171.33 99.89 171.54 98.73 171.85 97.60 C 174.85 93.51 178.36 89.80 182.32 86.63 C 183.29 86.58 184.27 86.54 185.25 86.50 C 186.35 87.45 187.54 88.30 188.85 88.95 C 186.21 94.32 182.36 98.90 178.29 103.23 C 175.71 107.50 172.05 110.96 169.42 115.20 C 172.58 111.69 175.47 107.94 178.28 104.14 C 178.81 104.04 179.89 103.84 180.42 103.74 C 179.57 100.01 184.37 98.35 187.12 97.21 C 188.06 98.11 189.01 99.00 189.97 99.90 C 187.96 101.99 186.02 104.22 184.93 106.95 C 186.56 106.24 188.17 105.49 189.82 104.79 C 188.59 106.55 187.16 108.13 185.70 109.68 C 183.50 111.81 183.88 115.41 181.50 117.43 C 177.87 120.93 174.52 124.77 172.32 129.35 C 171.35 130.80 171.81 132.57 171.76 134.19 C 176.06 132.70 178.15 128.23 181.50 125.41 C 186.67 119.42 192.89 114.46 197.99 108.42 C 195.74 113.87 189.74 116.55 187.73 122.15 C 193.09 118.84 196.94 113.76 201.47 109.51 C 204.58 106.57 207.82 103.76 210.69 100.58 C 216.13 94.54 222.24 89.10 227.03 82.50 C 220.79 87.32 215.79 93.55 209.41 98.21 L 209.80 96.13 C 220.81 86.04 230.85 74.95 241.50 64.49 C 245.30 61.51 248.89 58.28 252.03 54.60 C 252.50 54.61 253.45 54.63 253.93 54.64 C 252.31 56.52 250.53 58.25 248.76 59.98 C 246.38 62.31 245.16 65.51 242.96 67.97 C 235.39 75.43 229.38 84.29 222.00 91.92 C 217.52 95.97 213.51 100.50 209.87 105.31 C 211.74 104.70 213.10 102.57 215.16 102.76 C 215.37 104.26 215.53 105.77 215.66 107.28 C 214.03 108.84 212.44 110.45 210.99 112.18 C 213.51 110.68 215.54 108.55 217.66 106.56 C 222.81 102.07 227.94 97.47 232.22 92.12 C 236.36 88.66 240.12 84.80 243.97 81.03 C 251.71 74.73 258.61 67.47 265.76 60.52 C 265.66 61.42 265.47 63.24 265.38 64.14 C 262.62 67.20 258.72 69.28 256.99 73.20 C 262.03 70.32 265.60 65.62 270.11 62.05 C 273.45 59.44 276.50 56.49 279.79 53.83 C 283.88 50.55 287.12 46.37 291.20 43.09 C 295.61 39.53 299.85 35.75 303.99 31.87 C 304.92 30.74 306.31 30.46 307.71 30.41 C 308.72 28.20 310.34 26.38 312.02 24.66 Z" fill="#f68959" opacity="1.00" stroke="#f68959" stroke-width="0.25" data-index="2" style="opacity: 1; visibility: visible; fill: rgb(244, 118, 60); display: none;"></path>
<path d="M 284.40 44.59 C 287.66 39.39 292.61 35.50 296.88 31.14 C 297.10 32.19 297.53 33.24 297.47 34.33 C 296.48 36.10 294.41 36.75 292.86 37.90 C 289.74 39.78 288.07 43.55 284.40 44.59 Z" fill="#fcccb7" opacity="1.00" stroke="#fcccb7" stroke-width="0.25" data-index="3"></path>
<path d="M 381.28 53.66 C 386.97 49.67 391.81 44.67 396.94 40.03 C 396.60 41.50 396.37 43.08 395.32 44.25 C 391.86 48.85 388.22 53.32 384.38 57.61 C 383.61 56.60 382.83 55.61 382.03 54.63 L 381.28 53.66 Z" fill="#fba681" opacity="1.00" stroke="#fba681" stroke-width="0.25" data-index="4"></path>
<path d="M 333.05 46.69 C 336.37 45.44 339.36 43.53 342.44 41.81 C 342.38 43.37 342.33 44.93 342.29 46.50 C 346.60 49.01 346.65 54.12 346.43 58.52 C 347.95 60.22 350.39 61.69 350.39 64.25 C 349.93 66.83 348.31 69.01 347.26 71.37 C 345.21 75.29 344.52 79.70 343.84 84.01 C 346.22 82.52 348.66 81.08 351.23 79.92 C 349.40 82.76 347.22 85.38 345.53 88.32 C 353.69 86.15 358.27 78.42 363.81 72.73 C 367.48 69.75 371.42 67.10 374.99 64.00 C 377.62 61.57 381.36 61.98 384.66 62.10 C 385.64 65.26 387.27 68.16 388.47 71.23 C 386.71 76.59 387.14 82.23 387.50 87.76 C 387.86 88.92 389.01 89.59 389.75 90.51 C 392.20 88.23 394.88 86.16 398.06 84.99 C 398.63 86.54 399.23 88.08 399.84 89.62 C 403.41 87.34 405.99 83.95 409.03 81.08 C 415.74 76.07 421.84 69.97 429.77 66.87 C 432.10 66.13 434.59 66.46 437.00 66.44 C 441.74 71.55 442.58 78.61 443.14 85.24 C 443.28 88.14 440.94 90.29 439.67 92.70 C 437.41 96.90 434.37 100.59 431.77 104.57 C 429.85 106.97 427.88 109.34 426.30 111.97 C 420.21 113.65 417.12 119.61 413.93 124.52 C 416.15 124.17 418.42 124.06 420.66 124.38 C 419.31 126.27 417.91 128.12 416.50 129.96 C 417.22 131.80 417.95 133.64 418.69 135.49 C 419.86 135.36 421.02 135.23 422.20 135.11 C 419.59 139.59 415.66 142.99 412.15 146.73 C 412.63 147.44 413.11 148.15 413.59 148.87 C 411.09 152.61 408.67 156.44 406.77 160.53 C 406.01 163.69 406.62 167.17 405.04 170.14 C 402.81 174.57 397.51 175.80 394.36 179.37 C 391.06 182.93 386.62 184.99 382.67 187.68 C 379.12 189.86 378.08 194.36 374.65 196.68 C 370.34 199.90 365.75 202.88 362.23 207.02 C 358.44 211.63 353.23 214.77 349.31 219.27 C 345.19 223.93 340.33 227.91 334.91 230.95 C 331.61 232.62 327.50 231.46 324.27 233.20 C 320.54 236.71 319.90 242.47 315.61 245.58 C 312.88 249.27 307.98 246.57 304.41 248.45 C 300.25 250.47 297.72 254.72 293.52 256.69 C 290.50 258.26 286.90 258.93 284.47 261.48 C 279.87 266.84 274.50 271.51 270.58 277.41 C 263.70 278.21 258.73 283.45 254.30 288.29 C 252.42 290.60 249.49 291.48 247.02 292.97 C 244.24 294.53 242.66 297.40 240.66 299.76 C 238.03 303.12 234.27 305.36 231.66 308.74 C 230.03 310.73 228.81 313.05 226.98 314.88 C 224.08 316.85 220.40 317.36 217.58 319.47 C 215.71 321.64 215.36 325.11 212.52 326.37 C 211.04 327.27 209.44 328.01 208.10 329.12 C 205.59 331.88 204.78 335.65 204.04 339.19 C 197.20 343.90 192.92 351.61 185.43 355.42 C 182.27 357.13 178.28 356.13 175.31 358.30 C 172.30 360.33 168.42 359.68 165.15 361.01 C 163.63 361.89 162.59 363.36 161.41 364.63 C 157.95 365.31 154.93 363.81 152.67 361.26 C 149.21 363.08 145.73 365.13 141.73 365.42 C 139.16 365.54 137.42 367.64 135.52 369.12 C 132.82 368.82 130.09 368.90 127.43 369.45 C 128.31 365.46 128.49 361.37 128.20 357.31 C 125.67 358.09 123.15 359.52 120.44 359.34 C 118.17 358.62 115.06 357.63 114.64 354.91 C 113.82 351.11 113.37 347.12 114.45 343.32 C 110.66 344.62 106.63 345.56 103.52 348.25 C 99.28 348.44 95.04 348.54 90.80 348.69 C 93.05 342.35 99.39 339.07 104.46 335.26 C 107.25 333.41 106.48 329.60 106.80 326.76 C 103.76 328.08 100.82 329.63 98.04 331.43 C 99.41 327.33 102.49 324.16 104.18 320.21 C 102.97 321.43 101.76 322.64 100.54 323.85 C 98.79 320.69 101.12 317.71 102.61 315.02 C 102.14 314.03 101.67 313.05 101.21 312.07 C 103.70 308.91 103.64 304.85 103.54 301.04 C 100.42 301.36 97.47 302.40 94.65 303.73 C 91.79 305.29 88.55 304.13 85.58 303.59 C 84.85 298.69 86.45 293.99 87.02 289.20 C 86.00 284.41 91.92 282.22 92.40 277.80 C 92.97 274.64 92.85 271.25 94.49 268.39 C 97.51 263.25 100.72 258.15 105.20 254.15 C 105.26 251.06 103.47 248.14 103.66 244.99 C 103.93 238.74 101.93 232.17 105.20 226.37 C 104.29 226.80 103.39 227.22 102.48 227.65 C 105.06 222.44 109.34 218.45 113.07 214.09 C 115.88 210.88 118.96 207.91 122.35 205.31 C 126.83 202.07 129.04 196.70 133.37 193.29 C 140.35 187.34 148.52 181.98 152.40 173.31 C 153.98 169.16 157.98 166.89 161.11 164.05 C 163.99 161.46 167.92 160.42 170.73 157.75 C 175.53 153.18 179.70 147.95 184.92 143.83 C 188.69 140.95 191.08 136.70 194.70 133.65 C 197.94 130.56 201.82 128.03 204.39 124.30 C 204.35 122.88 203.97 121.50 203.68 120.12 C 205.80 118.68 207.95 117.29 210.12 115.93 C 209.57 117.35 209.01 118.77 208.47 120.20 C 213.76 119.44 214.66 113.40 218.50 110.71 C 220.19 110.89 221.83 111.43 223.54 111.49 C 225.87 109.88 227.74 107.69 230.09 106.10 C 239.04 100.57 245.01 91.52 253.49 85.39 C 255.33 81.59 258.06 78.49 261.78 76.39 C 261.52 76.15 260.99 75.69 260.72 75.45 C 263.36 72.96 266.13 70.60 268.96 68.32 C 269.32 68.60 270.04 69.16 270.40 69.44 C 270.76 68.53 271.13 67.62 271.51 66.72 C 276.03 63.89 277.91 58.44 282.36 55.43 C 283.48 55.40 284.59 55.36 285.71 55.32 C 284.30 58.78 283.48 62.57 284.78 66.20 C 286.11 66.05 287.44 65.90 288.77 65.75 C 289.58 66.87 290.38 67.98 291.19 69.10 C 295.64 65.89 300.77 63.55 304.55 59.48 C 307.69 56.25 311.74 54.16 315.13 51.24 C 318.86 47.93 323.72 46.44 328.25 44.61 C 330.01 44.78 331.49 45.93 333.05 46.69 Z" fill="#f4763c" opacity="1.00" stroke="#f4763c" stroke-width="0.25" data-index="5" style="opacity: 1; visibility: visible; fill: rgb(244, 118, 60); display: none;"></path>
<path d="M 434.67 55.87 C 436.86 53.76 439.53 54.70 441.49 56.51 C 442.11 56.38 442.74 56.25 443.38 56.12 C 443.48 57.26 443.54 58.40 443.47 59.55 C 444.75 58.87 446.03 58.20 447.33 57.54 C 447.42 58.90 447.56 60.25 447.74 61.61 C 446.79 62.75 445.83 63.88 444.87 65.01 C 442.31 61.91 440.66 57.99 437.10 55.82 C 436.17 56.49 435.25 57.16 434.34 57.83 C 434.42 57.34 434.59 56.36 434.67 55.87 Z" fill="#fcccb7" opacity="1.00" stroke="#fcccb7" stroke-width="0.25" data-index="6"></path>
<path d="M 393.76 54.81 C 396.35 54.69 398.07 56.65 399.59 58.46 C 399.94 58.48 400.64 58.51 400.99 58.53 C 400.55 60.12 400.10 61.71 399.66 63.31 C 401.54 65.82 398.07 68.56 398.45 71.35 C 400.81 71.41 403.18 71.42 405.55 71.41 C 405.26 71.94 404.66 72.99 404.36 73.52 C 406.63 72.77 408.99 72.35 411.38 72.19 C 407.58 75.85 403.64 79.41 399.13 82.19 C 397.95 79.86 397.50 76.69 394.93 75.45 C 392.98 76.19 391.17 77.25 389.31 78.17 C 391.52 72.85 395.11 68.26 397.20 62.88 C 395.85 61.78 396.79 60.46 397.37 59.24 C 396.91 59.29 395.98 59.38 395.51 59.43 C 395.52 58.72 395.53 57.30 395.54 56.60 C 395.32 56.55 394.87 56.45 394.64 56.40 L 393.76 54.81 Z" fill="#fcccb7" opacity="1.00" stroke="#fcccb7" stroke-width="0.25" data-index="7" style="visibility: visible; fill: rgb(244, 118, 60); stroke: rgb(244, 118, 60); opacity: 1;"></path>
<path d="M 445.19 67.34 C 450.18 67.04 452.90 62.08 457.14 60.06 C 454.76 64.25 450.26 66.59 447.23 70.27 C 447.26 70.95 447.32 72.31 447.35 72.99 C 448.15 73.64 448.95 74.29 449.75 74.95 C 448.74 77.59 448.59 80.42 447.99 83.15 C 447.77 83.33 447.32 83.68 447.10 83.86 C 447.12 81.77 447.15 79.69 447.28 77.61 C 447.38 77.00 447.58 75.78 447.68 75.16 C 446.37 75.60 445.06 76.04 443.75 76.48 C 443.77 74.94 443.78 73.41 443.81 71.87 C 443.43 71.64 442.67 71.18 442.29 70.95 C 443.25 69.74 444.23 68.55 445.19 67.34 Z" fill="#fcccb7" opacity="1.00" stroke="#fcccb7" stroke-width="0.25" data-index="8"></path>
<path d="M 248.64 80.60 C 251.22 77.96 253.28 74.69 256.71 73.05 C 256.57 76.14 253.95 77.96 251.96 79.93 C 248.65 82.91 245.53 86.14 241.81 88.61 C 243.31 85.34 246.25 83.17 248.64 80.60 Z" fill="#fcccb7" opacity="1.00" stroke="#fcccb7" stroke-width="0.25" data-index="9"></path>
<path d="M 226.81 93.66 C 232.30 87.04 238.52 81.00 245.44 75.89 C 245.49 76.55 245.60 77.87 245.65 78.54 C 241.12 83.66 236.14 88.44 230.75 92.67 C 229.68 93.68 228.17 93.64 226.81 93.66 Z" fill="#fba681" opacity="1.00" stroke="#fba681" stroke-width="0.25" data-index="10"></path>
<path d="M 446.25 87.81 C 444.78 84.38 446.00 80.87 447.28 77.61 C 447.15 79.69 447.12 81.77 447.10 83.86 C 447.32 83.68 447.77 83.33 447.99 83.15 C 449.75 82.05 451.66 81.19 453.54 80.29 C 453.28 81.76 453.70 83.57 452.47 84.68 C 451.12 86.23 450.07 88.00 449.12 89.82 C 450.48 89.66 451.85 89.51 453.23 89.36 C 454.44 88.36 455.60 87.30 456.73 86.19 C 457.42 88.20 458.11 90.21 458.73 92.25 C 455.40 94.15 452.16 96.22 448.98 98.36 C 450.36 98.10 451.75 97.86 453.14 97.62 C 451.56 102.38 447.48 105.61 445.06 109.91 C 446.88 108.33 448.96 107.09 451.03 105.83 C 449.82 110.45 448.12 115.24 444.74 118.72 C 442.09 120.22 439.16 121.10 436.36 122.22 C 435.67 126.54 435.61 131.03 433.85 135.10 C 434.78 136.09 435.73 137.08 436.69 138.08 C 435.28 139.84 433.60 141.46 432.69 143.55 C 433.53 147.93 432.73 152.31 432.52 156.70 C 431.58 156.60 430.65 156.50 429.73 156.41 C 429.44 155.85 428.85 154.75 428.56 154.20 C 427.48 154.38 426.41 154.56 425.35 154.76 C 426.71 153.12 428.21 151.45 428.53 149.27 C 429.50 144.31 430.80 139.35 430.58 134.26 C 430.29 129.53 432.82 125.34 434.17 120.95 C 431.25 118.63 428.30 116.34 425.26 114.18 C 425.52 113.63 426.04 112.52 426.30 111.97 C 427.88 109.34 429.85 106.97 431.77 104.57 C 433.85 103.16 435.95 101.76 438.02 100.32 C 439.00 102.18 440.24 103.89 441.87 105.23 C 442.78 102.61 444.69 100.61 446.62 98.70 C 445.28 97.02 443.72 95.55 442.20 94.05 C 443.58 91.98 444.95 89.92 446.25 87.81 Z" fill="#fba681" opacity="1.00" stroke="#fba681" stroke-width="0.25" data-index="11" style="opacity: 1; visibility: visible; fill: rgb(244, 118, 60);"></path>
<path d="M 209.41 98.21 C 215.79 93.55 220.79 87.32 227.03 82.50 C 222.24 89.10 216.13 94.54 210.69 100.58 C 207.82 103.76 204.58 106.57 201.47 109.51 C 196.94 113.76 193.09 118.84 187.73 122.15 C 189.74 116.55 195.74 113.87 197.99 108.42 C 199.37 105.52 202.00 103.58 204.17 101.32 C 205.94 99.48 207.64 97.53 209.80 96.13 L 209.41 98.21 Z" fill="#fcccb7" opacity="1.00" stroke="#fcccb7" stroke-width="0.25" data-index="12" style="opacity: 1; visibility: visible; fill: rgb(244, 118, 60);"></path>
<path d="M 449.12 89.82 C 450.07 88.00 451.12 86.23 452.47 84.68 C 452.49 85.28 452.52 86.49 452.53 87.09 C 454.30 86.56 456.07 86.04 457.85 85.53 C 458.77 87.44 459.74 89.33 460.79 91.18 C 459.44 93.38 457.33 94.88 455.50 96.63 C 454.22 98.32 453.40 100.31 452.44 102.19 C 452.60 104.05 452.04 106.20 453.10 107.86 C 454.28 109.30 456.09 107.73 457.49 107.67 C 458.58 111.08 455.96 113.61 454.14 116.11 C 452.97 117.49 453.05 119.55 454.40 120.79 C 453.64 123.01 452.93 125.26 452.28 127.52 C 453.14 127.49 454.87 127.42 455.73 127.38 C 452.68 131.16 449.01 134.82 448.15 139.81 C 449.72 139.41 451.15 138.59 452.54 137.77 C 453.49 138.42 454.44 139.07 455.40 139.73 C 455.09 141.15 454.76 142.57 454.43 144.00 C 455.41 143.74 456.40 143.49 457.39 143.24 C 457.48 144.06 457.58 144.89 457.68 145.72 C 459.79 144.21 462.07 142.92 464.52 142.02 C 464.52 143.10 464.53 144.19 464.54 145.27 C 465.61 145.64 466.69 146.01 467.77 146.38 C 467.97 146.93 468.35 148.02 468.55 148.56 C 470.19 147.89 471.90 147.14 473.73 147.54 C 470.75 151.73 471.58 157.17 469.27 161.71 C 469.90 161.37 471.15 160.70 471.78 160.36 C 471.62 164.10 469.37 168.03 472.18 171.36 C 473.75 171.62 475.31 172.00 476.77 172.69 C 475.79 174.39 474.84 176.12 473.93 177.87 C 476.62 177.26 479.31 176.66 481.99 176.03 C 481.32 181.31 475.12 182.56 472.72 186.82 C 469.97 191.57 465.54 194.88 462.08 199.05 C 459.94 201.65 456.27 203.34 455.95 207.07 C 458.82 205.62 461.22 203.42 464.06 201.92 C 460.71 207.38 454.71 211.01 452.58 217.21 C 452.95 218.55 454.83 218.16 455.74 218.85 C 453.47 223.43 452.32 228.46 450.53 233.24 C 451.59 233.39 452.64 233.55 453.71 233.73 C 453.74 238.22 449.36 240.89 448.04 244.93 C 449.44 246.03 451.05 243.97 452.53 243.71 C 453.74 243.00 454.36 244.62 454.83 245.44 C 449.62 249.33 445.69 254.61 440.89 258.96 C 440.36 263.98 436.65 267.79 433.12 271.06 C 429.05 273.16 425.22 275.77 422.43 279.45 C 419.85 282.92 415.51 284.53 413.15 288.20 C 411.54 290.56 409.26 292.30 407.09 294.12 C 402.63 297.72 399.25 302.74 393.74 304.89 C 390.73 307.58 387.06 309.42 384.03 312.05 C 378.45 319.52 369.98 324.00 363.54 330.60 C 359.17 338.94 350.92 344.03 345.25 351.32 C 343.54 354.12 339.83 351.54 337.77 353.78 C 332.39 358.37 327.40 363.47 321.65 367.63 C 316.08 371.29 311.71 376.38 306.56 380.54 C 300.02 388.06 291.53 393.42 284.51 400.43 C 280.67 403.90 277.44 408.02 273.25 411.09 C 270.64 412.88 269.66 416.07 267.51 418.29 C 265.16 420.40 262.37 421.97 259.98 424.04 C 253.75 430.10 248.14 436.74 242.26 443.14 C 239.26 446.76 237.60 451.59 233.47 454.20 C 231.75 455.46 229.54 455.09 227.56 455.42 C 224.60 456.66 223.63 460.70 220.23 461.21 C 217.48 461.73 214.67 461.41 211.89 461.44 C 211.10 462.44 210.35 463.49 209.48 464.44 C 208.29 464.53 207.13 464.17 205.97 464.02 C 203.04 464.51 200.16 463.68 197.42 462.70 C 197.57 460.80 197.58 458.91 197.34 457.03 C 196.88 457.64 195.96 458.86 195.49 459.48 C 194.71 458.95 193.93 458.43 193.16 457.92 C 190.75 460.64 188.84 464.15 185.02 465.04 C 183.64 466.90 182.24 468.75 180.78 470.55 C 180.33 470.28 179.43 469.74 178.99 469.48 C 176.34 470.35 174.63 472.41 173.55 474.89 C 172.59 477.37 169.63 477.32 167.41 477.53 C 165.99 479.11 164.62 480.74 163.28 482.39 C 162.33 482.46 161.40 482.52 160.46 482.60 C 159.29 484.30 158.05 485.96 156.73 487.56 C 155.45 487.58 154.18 487.60 152.91 487.63 C 151.34 489.47 149.70 491.26 147.98 492.97 C 147.74 490.95 147.50 488.92 147.48 486.89 C 146.52 486.46 145.56 486.03 144.60 485.60 C 144.55 484.34 144.50 483.02 143.58 482.04 C 144.12 480.49 144.66 478.94 145.16 477.38 C 143.06 477.93 141.37 479.30 139.73 480.65 C 138.57 480.02 137.41 479.38 136.26 478.75 C 136.65 477.68 137.06 476.62 137.48 475.57 C 135.49 473.90 132.88 473.58 130.39 473.36 C 130.29 470.39 131.88 467.82 132.66 465.05 C 131.49 464.12 130.34 463.17 129.21 462.20 C 131.17 459.46 133.02 456.65 134.89 453.85 C 134.45 453.61 133.58 453.12 133.15 452.88 C 133.93 451.13 134.31 449.26 134.65 447.38 C 137.42 444.67 140.52 442.14 141.98 438.39 C 139.40 438.75 136.51 438.68 134.34 440.34 C 132.73 441.29 130.94 443.66 129.03 441.89 C 128.97 438.60 125.46 441.49 127.67 443.01 L 128.17 443.59 C 125.18 446.82 121.07 449.01 118.86 452.93 C 117.27 455.46 116.07 458.22 115.04 461.02 C 113.99 461.30 112.94 461.58 111.90 461.87 C 111.75 462.32 111.45 463.21 111.30 463.66 C 111.01 462.99 110.72 462.33 110.42 461.67 C 112.95 461.43 115.91 459.63 115.59 456.73 C 114.25 457.20 112.91 457.70 111.57 458.19 C 108.50 457.48 105.10 456.59 102.34 458.68 C 102.61 457.59 102.89 456.51 103.17 455.43 C 101.22 456.74 99.10 457.77 96.99 458.80 C 99.81 455.08 103.78 451.95 104.09 446.91 C 102.57 446.36 101.06 445.75 99.56 445.12 C 99.84 442.94 99.29 440.86 98.06 439.06 C 97.15 438.83 96.23 438.60 95.32 438.38 C 95.75 438.02 96.62 437.28 97.05 436.91 C 96.85 436.23 96.44 434.86 96.23 434.18 C 95.15 434.62 94.07 435.06 92.99 435.50 C 94.74 433.68 96.81 432.10 98.06 429.88 C 98.82 427.38 99.12 424.65 100.73 422.50 C 102.20 420.14 104.92 419.04 106.68 416.98 C 108.35 414.23 109.33 411.09 111.40 408.59 C 109.43 408.39 109.81 406.45 109.61 405.01 C 106.06 407.64 102.63 412.36 97.64 410.34 C 98.00 409.16 98.32 407.98 98.61 406.79 C 97.33 406.77 96.05 406.71 94.77 406.65 C 94.22 405.19 93.53 403.75 93.28 402.20 C 93.72 400.20 94.99 398.48 95.93 396.68 C 94.99 396.61 93.10 396.45 92.16 396.38 C 92.85 394.63 93.73 392.97 94.84 391.46 C 93.76 391.52 92.68 391.58 91.61 391.64 C 93.18 389.92 94.65 388.10 96.33 386.48 C 97.19 387.18 98.05 387.89 98.90 388.62 C 99.67 388.53 100.44 388.45 101.21 388.38 C 100.66 389.32 100.11 390.26 99.56 391.21 C 100.25 392.61 100.95 394.01 101.65 395.41 C 105.52 394.25 109.51 394.90 112.53 397.68 C 112.37 398.26 112.06 399.44 111.90 400.02 C 111.46 401.42 111.09 402.83 110.83 404.28 C 111.86 405.77 112.94 407.24 113.98 408.73 C 113.19 410.71 112.40 412.68 111.61 414.65 C 113.34 412.95 115.17 411.26 117.49 410.40 C 117.06 410.98 116.20 412.14 115.77 412.72 C 111.13 418.38 110.82 426.24 106.04 431.82 C 109.84 432.23 113.84 432.28 117.22 430.19 C 116.62 431.41 115.95 432.61 115.52 433.91 C 116.07 434.74 116.66 435.55 117.28 436.34 C 116.63 437.06 115.98 437.79 115.34 438.52 C 117.07 438.77 118.80 439.04 120.53 439.30 C 120.57 440.07 120.61 440.84 120.65 441.61 C 121.41 441.51 122.17 441.41 122.94 441.31 C 122.81 442.58 122.68 443.85 122.57 445.13 C 124.91 443.15 126.85 440.73 128.14 437.94 C 131.17 436.85 134.42 436.05 137.47 437.57 C 142.40 433.17 145.67 426.96 151.86 424.06 C 153.21 423.42 154.58 422.82 155.94 422.21 C 155.48 425.95 155.25 429.72 155.26 433.49 C 156.55 432.85 157.85 432.21 159.14 431.58 C 159.94 433.94 161.73 435.46 164.22 435.81 C 164.36 437.72 164.03 439.91 165.41 441.48 C 169.45 441.03 173.93 439.35 177.34 442.57 C 176.64 444.00 175.84 445.39 175.36 446.92 C 175.80 448.38 176.50 449.76 177.12 451.16 C 180.35 447.76 182.86 443.60 186.84 440.97 C 189.45 439.20 191.91 437.21 194.21 435.06 C 195.34 435.73 196.48 436.42 197.61 437.10 C 197.02 440.84 194.72 443.78 192.39 446.62 C 191.18 448.66 194.09 450.70 195.74 449.05 C 199.31 446.56 202.34 443.34 206.15 441.18 C 206.40 441.90 206.89 443.35 207.14 444.07 C 209.14 443.17 211.36 442.53 212.99 441.00 C 214.10 439.45 214.37 437.49 215.00 435.73 C 219.56 430.45 224.61 425.67 229.77 420.99 C 234.79 420.06 238.82 416.79 242.52 413.49 C 244.82 411.49 245.81 408.53 247.07 405.86 C 250.76 405.14 252.94 401.90 255.70 399.69 C 258.35 397.42 261.76 395.89 263.55 392.76 C 265.83 388.48 270.64 386.76 274.79 384.85 C 273.15 386.68 271.50 388.49 269.86 390.31 C 271.33 390.58 273.05 391.71 274.29 390.29 C 280.68 385.09 287.02 379.61 292.08 373.07 C 295.00 368.66 298.15 364.38 302.04 360.75 C 302.48 360.93 303.35 361.30 303.78 361.48 C 307.58 359.51 309.44 355.33 312.76 352.78 C 315.69 350.48 319.49 349.67 322.46 347.46 C 324.52 344.80 325.81 341.54 328.50 339.38 C 332.72 335.69 336.77 331.80 341.08 328.23 C 342.96 326.54 345.70 326.97 347.84 325.89 C 350.44 323.85 352.20 320.90 355.00 319.07 C 357.02 317.69 359.37 316.79 361.23 315.17 C 362.76 312.95 363.41 310.24 365.05 308.09 C 366.61 306.83 368.74 306.69 370.60 306.09 C 375.65 300.30 381.18 294.94 386.14 289.07 C 391.60 284.34 397.16 279.67 401.71 274.00 C 400.72 273.26 399.73 272.52 398.75 271.78 C 400.63 267.75 404.87 265.83 407.58 262.49 C 409.36 260.38 410.97 258.15 412.64 255.97 C 412.42 255.44 412.21 254.92 412.00 254.40 C 410.71 255.22 409.43 256.06 408.17 256.91 C 408.82 254.21 409.58 251.53 410.55 248.92 C 409.78 247.92 409.01 246.92 408.25 245.93 C 411.38 241.92 414.49 237.88 417.73 233.95 C 415.98 232.65 414.24 231.32 412.86 229.62 C 414.93 227.49 416.12 224.78 416.81 221.91 C 421.69 219.68 426.69 217.41 430.67 213.71 C 434.71 209.70 440.36 207.42 443.36 202.37 C 446.12 197.78 449.39 193.53 452.27 189.02 C 450.84 184.59 452.59 180.24 454.26 176.17 C 452.13 177.29 450.02 178.43 448.08 179.84 C 449.56 177.42 453.08 174.60 450.66 171.70 C 452.44 169.72 454.18 167.69 455.85 165.60 C 455.19 165.19 453.87 164.37 453.21 163.96 C 454.88 160.71 456.44 157.27 456.17 153.52 C 453.64 153.87 451.10 154.15 448.57 154.40 C 448.50 153.86 448.36 152.76 448.28 152.22 C 447.08 152.82 445.88 153.41 444.68 154.02 C 444.55 153.46 444.30 152.36 444.17 151.81 C 440.15 153.45 436.89 156.58 432.60 157.61 L 432.52 156.70 C 432.73 152.31 433.53 147.93 432.69 143.55 C 433.60 141.46 435.28 139.84 436.69 138.08 C 435.73 137.08 434.78 136.09 433.85 135.10 C 435.61 131.03 435.67 126.54 436.36 122.22 C 439.16 121.10 442.09 120.22 444.74 118.72 C 448.12 115.24 449.82 110.45 451.03 105.83 C 448.96 107.09 446.88 108.33 445.06 109.91 C 447.48 105.61 451.56 102.38 453.14 97.62 C 451.75 97.86 450.36 98.10 448.98 98.36 C 452.16 96.22 455.40 94.15 458.73 92.25 C 458.11 90.21 457.42 88.20 456.73 86.19 C 455.60 87.30 454.44 88.36 453.23 89.36 C 451.85 89.51 450.48 89.66 449.12 89.82 Z" fill="#fcccb7" opacity="1.00" stroke="#fcccb7" stroke-width="0.25" data-index="13" style="opacity: 1; visibility: visible; fill: rgb(244, 118, 60); display: none;"></path>
<path d="M 225.40 95.23 C 227.81 94.31 226.33 98.13 224.70 97.88 C 223.20 97.56 224.54 95.56 225.40 95.23 Z" fill="#fcccb7" opacity="1.00" stroke="#fcccb7" stroke-width="0.25" data-index="14"></path>
<path d="M 170.08 140.75 C 173.76 137.84 175.15 132.07 180.04 130.95 C 178.00 134.22 175.65 137.28 173.61 140.55 C 172.43 140.61 171.25 140.68 170.08 140.75 Z" fill="#fcccb7" opacity="1.00" stroke="#fcccb7" stroke-width="0.25" data-index="15" style="visibility: visible; fill: rgb(244, 118, 60); opacity: 1;"></path>
<path d="M 127.39 146.39 C 131.69 142.15 134.98 136.80 140.21 133.56 C 140.34 134.15 140.59 135.32 140.72 135.90 C 138.57 138.36 136.35 140.76 134.02 143.04 C 129.90 146.99 126.53 151.63 122.27 155.45 C 122.07 151.63 124.97 148.92 127.39 146.39 Z" fill="#fcccb7" opacity="1.00" stroke="#fcccb7" stroke-width="0.25" data-index="16"></path>
<path d="M 432.60 157.61 C 436.89 156.58 440.15 153.45 444.17 151.81 C 444.30 152.36 444.55 153.46 444.68 154.02 C 445.88 153.41 447.08 152.82 448.28 152.22 C 448.36 152.76 448.50 153.86 448.57 154.40 C 451.10 154.15 453.64 153.87 456.17 153.52 C 456.44 157.27 454.88 160.71 453.21 163.96 C 453.87 164.37 455.19 165.19 455.85 165.60 C 454.18 167.69 452.44 169.72 450.66 171.70 C 453.08 174.60 449.56 177.42 448.08 179.84 C 450.02 178.43 452.13 177.29 454.26 176.17 C 452.59 180.24 450.84 184.59 452.27 189.02 C 449.39 193.53 446.12 197.78 443.36 202.37 C 440.36 207.42 434.71 209.70 430.67 213.71 C 426.69 217.41 421.69 219.68 416.81 221.91 C 416.12 224.78 414.93 227.49 412.86 229.62 C 414.24 231.32 415.98 232.65 417.73 233.95 C 414.49 237.88 411.38 241.92 408.25 245.93 C 409.01 246.92 409.78 247.92 410.55 248.92 C 409.58 251.53 408.82 254.21 408.17 256.91 C 409.43 256.06 410.71 255.22 412.00 254.40 C 412.21 254.92 412.42 255.44 412.64 255.97 C 410.97 258.15 409.36 260.38 407.58 262.49 C 404.87 265.83 400.63 267.75 398.75 271.78 C 399.73 272.52 400.72 273.26 401.71 274.00 C 397.16 279.67 391.60 284.34 386.14 289.07 C 381.18 294.94 375.65 300.30 370.60 306.09 C 368.74 306.69 366.61 306.83 365.05 308.09 C 363.41 310.24 362.76 312.95 361.23 315.17 C 359.37 316.79 357.02 317.69 355.00 319.07 C 352.20 320.90 350.44 323.85 347.84 325.89 C 345.70 326.97 342.96 326.54 341.08 328.23 C 336.77 331.80 332.72 335.69 328.50 339.38 C 325.81 341.54 324.52 344.80 322.46 347.46 C 319.49 349.67 315.69 350.48 312.76 352.78 C 309.44 355.33 307.58 359.51 303.78 361.48 C 303.35 361.30 302.48 360.93 302.04 360.75 C 298.15 364.38 295.00 368.66 292.08 373.07 C 287.02 379.61 280.68 385.09 274.29 390.29 C 273.05 391.71 271.33 390.58 269.86 390.31 C 271.50 388.49 273.15 386.68 274.79 384.85 C 270.64 386.76 265.83 388.48 263.55 392.76 C 261.76 395.89 258.35 397.42 255.70 399.69 C 252.94 401.90 250.76 405.14 247.07 405.86 C 245.81 408.53 244.82 411.49 242.52 413.49 C 238.82 416.79 234.79 420.06 229.77 420.99 C 224.61 425.67 219.56 430.45 215.00 435.73 C 214.37 437.49 214.10 439.45 212.99 441.00 C 211.36 442.53 209.14 443.17 207.14 444.07 C 206.89 443.35 206.40 441.90 206.15 441.18 C 202.34 443.34 199.31 446.56 195.74 449.05 C 194.09 450.70 191.18 448.66 192.39 446.62 C 194.72 443.78 197.02 440.84 197.61 437.10 C 196.48 436.42 195.34 435.73 194.21 435.06 C 191.91 437.21 189.45 439.20 186.84 440.97 C 182.86 443.60 180.35 447.76 177.12 451.16 C 176.50 449.76 175.80 448.38 175.36 446.92 C 175.84 445.39 176.64 444.00 177.34 442.57 C 173.93 439.35 169.45 441.03 165.41 441.48 C 164.03 439.91 164.36 437.72 164.22 435.81 C 161.73 435.46 159.94 433.94 159.14 431.58 C 157.85 432.21 156.55 432.85 155.26 433.49 C 155.25 429.72 155.48 425.95 155.94 422.21 C 154.58 422.82 153.21 423.42 151.86 424.06 C 153.85 420.99 156.02 417.93 159.38 416.24 C 159.59 417.00 159.99 418.53 160.19 419.30 C 162.91 417.79 165.33 415.82 167.39 413.49 C 171.05 409.35 176.10 406.86 180.11 403.11 C 183.60 399.96 186.78 396.48 190.17 393.22 C 192.92 390.47 197.09 390.30 200.33 388.38 C 204.59 386.26 208.15 381.96 213.33 382.51 C 208.51 388.15 202.15 392.36 197.91 398.51 C 200.41 398.21 203.71 398.95 205.30 396.45 C 207.16 394.29 208.49 391.46 211.18 390.19 C 214.45 388.54 218.11 387.43 220.75 384.76 C 227.23 378.55 233.04 371.68 239.37 365.33 C 241.93 362.53 245.98 362.08 248.92 359.82 C 254.43 355.74 258.56 350.08 264.22 346.18 C 269.18 342.34 274.77 338.98 278.40 333.73 C 275.82 335.15 273.23 336.54 270.72 338.06 C 273.69 333.61 278.26 330.66 282.19 327.15 C 285.97 324.18 288.90 320.14 293.29 317.98 C 291.06 322.02 287.13 324.68 284.56 328.46 C 287.54 326.86 290.37 325.01 293.16 323.11 C 291.01 328.75 285.34 331.37 281.22 335.31 C 276.51 339.66 270.74 342.69 266.23 347.27 C 262.72 351.01 258.55 354.44 256.83 359.44 C 257.89 359.18 258.96 358.92 260.03 358.67 C 261.29 359.02 262.54 359.40 263.84 359.59 C 267.94 357.26 270.59 353.13 273.87 349.85 C 276.41 347.42 277.31 343.96 279.06 341.03 C 280.87 338.61 284.55 340.50 286.76 338.70 C 294.85 331.79 303.11 325.07 311.54 318.56 C 315.39 315.40 318.87 311.78 323.02 308.99 C 325.20 307.58 326.70 305.45 328.00 303.25 C 326.67 303.43 325.35 303.61 324.03 303.80 C 326.10 298.41 330.14 293.92 335.31 291.33 C 340.52 288.82 344.62 284.66 348.68 280.64 C 350.39 278.92 351.12 276.56 352.09 274.40 C 350.20 275.60 348.26 276.73 346.27 277.75 C 349.12 270.19 357.92 267.92 364.33 264.28 C 369.56 259.53 375.07 255.09 380.20 250.22 C 384.09 247.50 387.45 244.14 390.96 240.97 C 400.20 234.33 407.30 225.29 415.96 217.98 C 419.68 215.12 421.41 210.00 426.16 208.52 C 426.73 204.88 428.62 201.72 431.00 198.97 C 434.82 194.45 434.91 188.08 438.40 183.39 C 439.71 181.26 441.87 178.95 441.16 176.26 C 439.08 173.05 437.07 169.79 435.41 166.34 C 434.22 166.75 433.03 167.16 431.84 167.57 C 432.76 165.06 433.94 162.64 434.74 160.09 C 434.12 159.36 433.49 158.64 432.86 157.94 C 432.79 157.85 432.66 157.69 432.60 157.61 Z" fill="#fba681" opacity="1.00" stroke="#fba681" stroke-width="0.25" data-index="17" style="opacity: 1; visibility: visible; fill: rgb(244, 118, 60); display: none;"></path>
<path d="M 88.64 194.51 C 92.54 191.05 95.49 186.73 99.20 183.10 L 100.71 183.88 C 92.24 192.07 84.76 201.30 75.79 208.95 C 79.53 203.68 84.23 199.20 88.64 194.51 Z" fill="#fba681" opacity="1.00" stroke="#fba681" stroke-width="0.25" data-index="18" style="opacity: 1;"></path>
<path d="M 100.71 183.88 C 101.11 184.01 101.91 184.27 102.31 184.40 C 98.51 189.51 93.74 193.78 89.56 198.56 C 85.58 202.98 82.24 207.98 77.76 211.95 C 76.11 211.16 74.51 211.59 73.09 212.56 C 73.80 210.88 74.48 209.19 75.15 207.50 C 73.85 207.96 72.55 208.44 71.25 208.91 C 73.15 205.99 75.50 203.41 78.03 201.02 C 81.41 197.82 83.79 193.53 87.98 191.25 C 88.15 192.06 88.47 193.69 88.64 194.51 C 84.23 199.20 79.53 203.68 75.79 208.95 C 84.76 201.30 92.24 192.07 100.71 183.88 Z" fill="#fcccb7" opacity="1.00" stroke="#fcccb7" stroke-width="0.25" data-index="19" style="opacity: 1; visibility: visible; fill: rgb(244, 118, 60);"></path>
<path d="M 124.09 194.73 C 126.88 191.29 130.06 188.08 134.02 186.01 C 132.43 189.62 129.02 191.79 126.32 194.48 C 125.76 194.54 124.65 194.67 124.09 194.73 Z" fill="#fcccb7" opacity="1.00" stroke="#fcccb7" stroke-width="0.25" data-index="20" style="opacity: 1; visibility: visible; fill: rgb(244, 118, 60); stroke: rgb(244, 118, 60);"></path>
<path d="M 107.00 203.12 C 108.11 200.54 109.93 198.36 112.25 196.79 C 112.77 200.07 109.80 202.29 107.00 203.12 Z" fill="#fba681" opacity="1.00" stroke="#fba681" stroke-width="0.25" data-index="21" style="opacity: 1; visibility: visible; fill: rgb(244, 118, 60); stroke: rgb(244, 118, 60);"></path>
<path d="M 112.27 208.09 C 114.41 207.21 114.67 210.60 112.72 210.89 C 110.63 211.69 110.44 208.43 112.27 208.09 Z" fill="#fba681" opacity="1.00" stroke="#fba681" stroke-width="0.25" data-index="22" style="opacity: 1; visibility: visible; fill: rgb(244, 118, 60); stroke: rgb(244, 118, 60);"></path>
<path d="M 98.05 222.49 C 98.91 223.30 99.76 224.12 100.62 224.93 C 96.09 229.65 92.45 235.17 87.47 239.45 C 84.95 241.58 82.76 244.75 79.10 244.73 C 84.42 236.50 91.65 229.81 98.05 222.49 Z" fill="#fcccb7" opacity="1.00" stroke="#fcccb7" stroke-width="0.25" data-index="23" style="opacity: 1; visibility: visible; fill: rgb(244, 118, 60); stroke: rgb(244, 118, 60);"></path>
<path d="M 81.91 229.88 C 84.53 227.55 86.58 224.26 90.17 223.32 C 87.59 227.87 83.66 231.39 80.15 235.20 C 74.70 241.21 68.55 246.57 63.40 252.86 C 63.75 254.02 64.12 255.18 64.42 256.36 L 63.88 257.15 C 62.93 255.92 61.97 254.71 61.02 253.49 C 60.22 254.21 59.42 254.93 58.62 255.66 C 58.16 255.44 57.25 255.00 56.79 254.78 C 60.27 250.60 64.13 246.75 68.25 243.21 C 73.11 239.08 77.19 234.15 81.91 229.88 Z" fill="#fcccb7" opacity="1.00" stroke="#fcccb7" stroke-width="0.25" data-index="24" style="opacity: 1; visibility: visible; fill: rgb(244, 118, 60); stroke: rgb(244, 118, 60);"></path>
<path d="M 57.14 226.74 C 57.75 225.98 58.36 225.22 58.96 224.46 C 59.45 224.66 60.44 225.05 60.93 225.24 C 61.60 224.94 62.94 224.34 63.60 224.03 C 63.69 224.63 63.85 225.83 63.93 226.43 C 61.10 230.31 57.52 233.53 54.45 237.20 C 54.01 237.94 53.61 238.70 53.20 239.46 C 49.37 239.39 45.97 241.00 42.93 243.20 C 43.11 240.53 45.18 238.74 46.86 236.90 C 49.47 234.15 51.79 231.07 54.94 228.89 C 54.23 232.05 52.80 234.97 51.17 237.74 C 55.52 234.98 59.01 231.10 61.49 226.61 C 60.04 226.64 58.59 226.69 57.14 226.74 Z" fill="#fcccb7" opacity="1.00" stroke="#fcccb7" stroke-width="0.25" data-index="25" style="opacity: 1;"></path>
<path d="M 57.14 226.74 C 58.59 226.69 60.04 226.64 61.49 226.61 C 59.01 231.10 55.52 234.98 51.17 237.74 C 52.80 234.97 54.23 232.05 54.94 228.89 C 55.67 228.17 56.40 227.45 57.14 226.74 Z" fill="#fba681" opacity="1.00" stroke="#fba681" stroke-width="0.25" data-index="26" style="visibility: visible; fill: rgb(244, 118, 60); opacity: 1;"></path>
<path d="M 57.00 239.19 C 59.01 237.32 61.04 235.47 63.24 233.83 C 62.16 237.06 59.89 239.78 59.27 243.17 L 59.16 243.50 C 58.58 243.28 57.44 242.82 56.86 242.59 C 51.74 246.50 48.68 252.26 44.27 256.83 C 43.69 256.52 42.55 255.90 41.97 255.59 C 44.01 253.46 45.93 251.23 47.94 249.08 C 47.78 248.61 47.46 247.68 47.30 247.22 C 49.49 244.81 51.86 242.48 53.20 239.46 C 53.61 238.70 54.01 237.94 54.45 237.20 C 55.30 237.86 56.15 238.52 57.00 239.19 Z" fill="#fba681" opacity="1.00" stroke="#fba681" stroke-width="0.25" data-index="27" style="opacity: 1; visibility: visible; fill: rgb(244, 118, 60); stroke: rgb(244, 118, 60);"></path>
<path d="M 44.27 256.83 C 48.68 252.26 51.74 246.50 56.86 242.59 C 57.44 242.82 58.58 243.28 59.16 243.50 C 55.45 247.34 51.88 251.31 48.57 255.50 C 49.04 255.63 49.97 255.89 50.44 256.02 C 49.72 257.70 49.32 259.58 48.17 261.03 C 45.84 262.81 42.91 263.72 40.76 265.75 C 38.92 268.19 38.80 272.08 35.56 273.28 C 32.17 274.43 29.97 277.20 28.05 280.05 C 29.93 279.82 31.82 279.58 33.71 279.35 C 39.13 274.29 44.29 268.97 49.24 263.46 C 50.91 263.03 52.57 262.42 53.89 261.27 C 52.88 263.35 51.64 265.33 49.93 266.91 C 46.70 269.94 44.05 273.51 40.86 276.59 L 40.17 276.54 C 37.93 275.99 36.91 278.40 36.56 280.18 C 36.40 282.31 34.26 281.36 32.95 281.06 C 32.01 282.02 31.08 282.99 30.15 283.96 C 28.59 282.45 27.00 280.97 25.43 279.47 C 27.92 277.61 30.25 275.43 31.54 272.54 C 28.43 274.07 26.57 277.00 24.89 279.89 C 24.64 280.22 24.15 280.88 23.91 281.20 C 22.63 278.27 25.71 276.07 25.83 273.21 C 27.31 271.05 29.16 269.16 31.37 267.75 C 31.56 269.32 31.73 270.91 31.89 272.49 C 35.10 269.98 38.48 267.32 40.11 263.46 C 41.13 261.04 42.28 258.62 44.27 256.83 Z" fill="#fcccb7" opacity="1.00" stroke="#fcccb7" stroke-width="0.25" data-index="28" style="opacity: 1; visibility: visible; fill: rgb(244, 118, 60);"></path>
<path d="M 31.37 267.75 C 35.20 263.96 38.13 259.38 41.97 255.59 C 42.55 255.90 43.69 256.52 44.27 256.83 C 42.28 258.62 41.13 261.04 40.11 263.46 C 38.48 267.32 35.10 269.98 31.89 272.49 C 31.73 270.91 31.56 269.32 31.37 267.75 Z" fill="#f68959" opacity="1.00" stroke="#f68959" stroke-width="0.25" data-index="29"></path>
<path d="M 69.01 275.08 C 71.10 271.44 74.10 267.98 77.92 266.12 C 75.13 269.24 72.87 273.15 69.01 275.08 Z" fill="#fcccb7" opacity="1.00" stroke="#fcccb7" stroke-width="0.25" data-index="30"></path>
<path d="M 24.89 279.89 C 26.57 277.00 28.43 274.07 31.54 272.54 C 30.25 275.43 27.92 277.61 25.43 279.47 L 24.89 279.89 Z" fill="#fba681" opacity="1.00" stroke="#fba681" stroke-width="0.25" data-index="31"></path>
<path d="M 36.56 280.18 C 36.91 278.40 37.93 275.99 40.17 276.54 C 40.07 278.32 38.35 280.06 36.56 280.18 Z" fill="#fba681" opacity="1.00" stroke="#fba681" stroke-width="0.25" data-index="32"></path>
<path d="M 59.93 305.91 C 64.45 298.67 70.03 292.23 75.78 285.97 C 76.49 286.39 77.20 286.81 77.91 287.24 C 76.50 288.03 75.16 288.98 74.21 290.32 C 69.79 295.82 65.31 301.31 59.93 305.91 Z" fill="#fba681" opacity="1.00" stroke="#fba681" stroke-width="0.25" data-index="33"></path>
<path d="M 24.22 287.04 C 27.20 285.51 24.34 290.38 24.22 287.04 Z" fill="#fcccb7" opacity="1.00" stroke="#fcccb7" stroke-width="0.25" data-index="34"></path>
<path d="M 234.75 359.72 C 237.02 357.23 239.92 355.47 243.01 354.19 C 242.23 356.44 241.22 358.71 239.09 359.99 C 233.26 364.02 229.09 370.00 223.14 373.84 C 222.74 373.73 221.93 373.53 221.53 373.43 C 224.60 367.65 230.44 364.41 234.75 359.72 Z" fill="#fba681" opacity="1.00" stroke="#fba681" stroke-width="0.25" data-index="35" style="opacity: 1; visibility: visible; fill: rgb(244, 118, 60); stroke: rgb(244, 118, 60);"></path>
<path d="M 96.33 386.48 C 98.35 384.22 101.28 384.04 104.09 384.43 C 103.06 386.97 102.28 389.62 101.94 392.35 C 103.94 392.83 105.93 393.45 108.01 393.48 C 110.33 393.19 112.39 391.97 114.52 391.07 C 114.70 392.65 115.34 394.27 115.01 395.88 C 114.17 397.39 112.97 398.67 111.90 400.02 C 112.06 399.44 112.37 398.26 112.53 397.68 C 109.51 394.90 105.52 394.25 101.65 395.41 C 100.95 394.01 100.25 392.61 99.56 391.21 C 100.11 390.26 100.66 389.32 101.21 388.38 C 100.44 388.45 99.67 388.53 98.90 388.62 C 98.05 387.89 97.19 387.18 96.33 386.48 Z" fill="#fba681" opacity="1.00" stroke="#fba681" stroke-width="0.25" data-index="36" style="opacity: 1; visibility: visible; fill: rgb(244, 118, 60); stroke: rgb(244, 118, 60);"></path>
<path d="M 110.83 404.28 C 113.79 404.94 116.45 403.40 118.90 401.96 C 117.43 404.29 116.33 406.83 115.28 409.37 C 116.85 408.98 118.42 408.61 119.99 408.23 C 119.15 408.95 118.30 409.65 117.49 410.40 C 115.17 411.26 113.34 412.95 111.61 414.65 C 112.40 412.68 113.19 410.71 113.98 408.73 C 112.94 407.24 111.86 405.77 110.83 404.28 Z" fill="#fba681" opacity="1.00" stroke="#fba681" stroke-width="0.25" data-index="37" style="visibility: visible; fill: rgb(244, 118, 60); opacity: 1;"></path>
<path d="M 106.04 431.82 C 110.82 426.24 111.13 418.38 115.77 412.72 C 115.36 416.62 113.50 420.11 112.37 423.82 C 111.79 425.54 111.86 427.44 110.92 429.05 C 114.95 427.63 119.48 427.39 122.63 424.11 C 122.30 429.00 119.63 434.63 123.07 438.98 C 124.77 438.65 126.46 438.33 128.14 437.94 C 126.85 440.73 124.91 443.15 122.57 445.13 C 122.68 443.85 122.81 442.58 122.94 441.31 C 122.17 441.41 121.41 441.51 120.65 441.61 C 120.61 440.84 120.57 440.07 120.53 439.30 C 118.80 439.04 117.07 438.77 115.34 438.52 C 115.98 437.79 116.63 437.06 117.28 436.34 C 116.66 435.55 116.07 434.74 115.52 433.91 C 115.95 432.61 116.62 431.41 117.22 430.19 C 113.84 432.28 109.84 432.23 106.04 431.82 Z" fill="#fba681" opacity="1.00" stroke="#fba681" stroke-width="0.25" data-index="38" style="visibility: visible; fill: rgb(244, 118, 60); stroke: rgb(244, 118, 60); opacity: 1;"></path>
<path d="M 127.67 443.01 C 125.46 441.49 128.97 438.60 129.03 441.89 C 128.69 442.17 128.01 442.73 127.67 443.01 Z" fill="#fba681" opacity="1.00" stroke="#fba681" stroke-width="0.25" data-index="39"></path>
<path d="M312.02,24.66c2.02,1.48 4.44,2.01 6.92,1.84c-1.27,1.98 -2.52,3.97 -3.82,5.94c1.34,1.57 3.03,2.63 5.13,1.83c-0.28,0.85 -0.55,1.71 -0.81,2.56c1.88,1.04 0.86,3.21 0.77,4.88c1.66,-0.19 3.33,-0.37 5,-0.57c-0.77,1.14 -1.53,2.29 -2.22,3.47c3.45,-0.57 5.48,-3.66 8.25,-5.46c5.74,-3.5 10.26,-9.43 17.43,-10.05c-0.1,1.49 -0.22,2.97 -0.35,4.46c0.45,0.31 1.34,0.93 1.79,1.24c-0.94,1.44 -1.89,2.87 -2.81,4.31c5.69,-3.3 8.97,-9.76 15.28,-12.14c-0.01,0.81 -0.01,2.43 -0.01,3.24c1.72,-1.56 3.35,-3.22 4.73,-5.1c3.61,2.76 1.28,7.14 1.25,10.83c0.8,0.12 2.41,0.37 3.22,0.5c-0.15,2.09 -0.22,4.18 -0.29,6.28c-0.3,1.17 -1.02,2.18 -1.56,3.24c0.89,-0.52 1.79,-1.03 2.69,-1.54c0.47,2.24 1.89,5.06 -0.32,6.84c0.41,0.43 1.22,1.3 1.63,1.73c-0.44,0.56 -1.31,1.66 -1.74,2.21c4.69,0.33 6.34,-6.14 11.04,-5.99c-0.98,2.49 -2.56,4.64 -4.19,6.74c0.5,-0.48 1.49,-1.43 1.99,-1.9l1.01,0.58c0.8,0.98 1.58,1.97 2.35,2.98c0.16,0.22 0.5,0.66 0.67,0.89c0.34,-0.02 1.04,-0.06 1.38,-0.08c1.33,-1.14 2.67,-2.25 4.05,-3.33c0.98,3.7 -3.83,4.73 -4.51,8c3.05,-1.69 5.43,-4.25 7.63,-6.9l1.04,0.21c0.23,0.05 0.68,0.15 0.9,0.2c-0.01,0.7 -0.02,2.12 -0.03,2.83c0.47,-0.05 1.4,-0.14 1.86,-0.19c-0.58,1.22 -1.52,2.54 -0.17,3.64c-2.09,5.38 -5.68,9.97 -7.89,15.29c1.86,-0.92 3.67,-1.98 5.62,-2.72c2.57,1.24 3.02,4.41 4.2,6.74c4.51,-2.78 8.45,-6.34 12.25,-10c7.22,-6.2 15.83,-10.49 23.29,-16.32c-0.08,0.49 -0.25,1.47 -0.33,1.96c0.91,-0.67 1.83,-1.34 2.76,-2.01c3.56,2.17 5.21,6.09 7.77,9.19c0.29,0.31 0.86,0.95 1.15,1.26l-0.83,1.07c-0.96,1.21 -1.94,2.4 -2.9,3.61c0.38,0.23 1.14,0.69 1.52,0.92c-0.03,1.54 -0.04,3.07 -0.06,4.61c1.31,-0.44 2.62,-0.88 3.93,-1.32c-0.1,0.62 -0.3,1.84 -0.4,2.45c-1.28,3.26 -2.5,6.77 -1.03,10.2c-1.3,2.11 -2.67,4.17 -4.05,6.24c1.52,1.5 3.08,2.97 4.42,4.65c-1.93,1.91 -3.84,3.91 -4.75,6.53c-1.63,-1.34 -2.87,-3.05 -3.85,-4.91c-2.07,1.44 -4.17,2.84 -6.25,4.25c-1.92,2.4 -3.89,4.77 -5.47,7.4c-0.26,0.55 -0.78,1.66 -1.04,2.21c3.04,2.16 5.99,4.45 8.91,6.77c-1.35,4.39 -3.88,8.58 -3.59,13.31c0.22,5.09 -1.08,10.05 -2.05,15.01c-0.32,2.18 -1.82,3.85 -3.18,5.49c1.06,-0.2 2.13,-0.38 3.21,-0.56c0.29,0.55 0.88,1.65 1.17,2.21c0.92,0.09 1.85,0.19 2.79,0.29c0.21,-4.39 1.01,-8.77 0.17,-13.15c0.91,-2.09 2.59,-3.71 4,-5.47c-0.96,-1 -1.91,-1.99 -2.84,-2.98c1.76,-4.07 1.82,-8.56 2.51,-12.88c2.8,-1.12 5.73,-2 8.38,-3.5c3.38,-3.48 5.08,-8.27 6.29,-12.89c-2.07,1.26 -4.15,2.5 -5.97,4.08c2.42,-4.3 6.5,-7.53 8.08,-12.29c-1.39,0.24 -2.78,0.48 -4.16,0.74c3.18,-2.14 6.42,-4.21 9.75,-6.11c-0.62,-2.04 -1.31,-4.05 -2,-6.06c-1.13,1.11 -2.29,2.17 -3.5,3.17c-1.38,0.15 -2.75,0.3 -4.11,0.46c0.95,-1.82 2,-3.59 3.35,-5.14c0.02,0.6 0.05,1.81 0.06,2.41c1.77,-0.53 3.54,-1.05 5.32,-1.56c0.92,1.91 1.89,3.8 2.94,5.65c-1.35,2.2 -3.46,3.7 -5.29,5.45c-1.28,1.69 -2.1,3.68 -3.06,5.56c0.16,1.86 -0.4,4.01 0.66,5.67c1.18,1.44 2.99,-0.13 4.39,-0.19c1.09,3.41 -1.53,5.94 -3.35,8.44c-1.17,1.38 -1.09,3.44 0.26,4.68c-0.76,2.22 -1.47,4.47 -2.12,6.73c0.86,-0.03 2.59,-0.1 3.45,-0.14c-3.05,3.78 -6.72,7.44 -7.58,12.43c1.57,-0.4 3,-1.22 4.39,-2.04c0.95,0.65 1.9,1.3 2.86,1.96c-0.31,1.42 -0.64,2.84 -0.97,4.27c0.98,-0.26 1.97,-0.51 2.96,-0.76c0.09,0.82 0.19,1.65 0.29,2.48c2.11,-1.51 4.39,-2.8 6.84,-3.7c0,1.08 0.01,2.17 0.02,3.25c1.07,0.37 2.15,0.74 3.23,1.11c0.2,0.55 0.58,1.64 0.78,2.18c1.64,-0.67 3.35,-1.42 5.18,-1.02c-2.98,4.19 -2.15,9.63 -4.46,14.17c0.63,-0.34 1.88,-1.01 2.51,-1.35c-0.16,3.74 -2.41,7.67 0.4,11c1.57,0.26 3.13,0.64 4.59,1.33c-0.98,1.7 -1.93,3.43 -2.84,5.18c2.69,-0.61 5.38,-1.21 8.06,-1.84c-0.67,5.28 -6.87,6.53 -9.27,10.79c-2.75,4.75 -7.18,8.06 -10.64,12.23c-2.14,2.6 -5.81,4.29 -6.13,8.02c2.87,-1.45 5.27,-3.65 8.11,-5.15c-3.35,5.46 -9.35,9.09 -11.48,15.29c0.37,1.34 2.25,0.95 3.16,1.64c-2.27,4.58 -3.42,9.61 -5.21,14.39c1.06,0.15 2.11,0.31 3.18,0.49c0.03,4.49 -4.35,7.16 -5.67,11.2c1.4,1.1 3.01,-0.96 4.49,-1.22c1.21,-0.71 1.83,0.91 2.3,1.73c-5.21,3.89 -9.14,9.17 -13.94,13.52c-0.53,5.02 -4.24,8.83 -7.77,12.1c-4.07,2.1 -7.9,4.71 -10.69,8.39c-2.58,3.47 -6.92,5.08 -9.28,8.75c-1.61,2.36 -3.89,4.1 -6.06,5.92c-4.46,3.6 -7.84,8.62 -13.35,10.77c-3.01,2.69 -6.68,4.53 -9.71,7.16c-5.58,7.47 -14.05,11.95 -20.49,18.55c-4.37,8.34 -12.62,13.43 -18.29,20.72c-1.71,2.8 -5.42,0.22 -7.48,2.46c-5.38,4.59 -10.37,9.69 -16.12,13.85c-5.57,3.66 -9.94,8.75 -15.09,12.91c-6.54,7.52 -15.03,12.88 -22.05,19.89c-3.84,3.47 -7.07,7.59 -11.26,10.66c-2.61,1.79 -3.59,4.98 -5.74,7.2c-2.35,2.11 -5.14,3.68 -7.53,5.75c-6.23,6.06 -11.84,12.7 -17.72,19.1c-3,3.62 -4.66,8.45 -8.79,11.06c-1.72,1.26 -3.93,0.89 -5.91,1.22c-2.96,1.24 -3.93,5.28 -7.33,5.79c-2.75,0.52 -5.56,0.2 -8.34,0.23c-0.79,1 -1.54,2.05 -2.41,3c-1.19,0.09 -2.35,-0.27 -3.51,-0.42c-2.93,0.49 -5.81,-0.34 -8.55,-1.32c0.15,-1.9 0.16,-3.79 -0.08,-5.67c-0.46,0.61 -1.38,1.83 -1.85,2.45c-0.78,-0.53 -1.56,-1.05 -2.33,-1.56c-2.41,2.72 -4.32,6.23 -8.14,7.12c-1.38,1.86 -2.78,3.71 -4.24,5.51c-0.45,-0.27 -1.35,-0.81 -1.79,-1.07c-2.65,0.87 -4.36,2.93 -5.44,5.41c-0.96,2.48 -3.92,2.43 -6.14,2.64c-1.42,1.58 -2.79,3.21 -4.13,4.86c-0.95,0.07 -1.88,0.13 -2.82,0.21c-1.17,1.7 -2.41,3.36 -3.73,4.96c-1.28,0.02 -2.55,0.04 -3.82,0.07c-1.57,1.84 -3.21,3.63 -4.93,5.34c-0.24,-2.02 -0.48,-4.05 -0.5,-6.08c-0.96,-0.43 -1.92,-0.86 -2.88,-1.29c-0.05,-1.26 -0.1,-2.58 -1.02,-3.56c0.54,-1.55 1.08,-3.1 1.58,-4.66c-2.1,0.55 -3.79,1.92 -5.43,3.27c-1.16,-0.63 -2.32,-1.27 -3.47,-1.9c0.39,-1.07 0.8,-2.13 1.22,-3.18c-1.99,-1.67 -4.6,-1.99 -7.09,-2.21c-0.1,-2.97 1.49,-5.54 2.27,-8.31c-1.17,-0.93 -2.32,-1.88 -3.45,-2.85c1.96,-2.74 3.81,-5.55 5.68,-8.35c-0.44,-0.24 -1.31,-0.73 -1.74,-0.97c0.78,-1.75 1.16,-3.62 1.5,-5.5c2.77,-2.71 5.87,-5.24 7.33,-8.99c-2.58,0.36 -5.47,0.29 -7.64,1.95c-1.61,0.95 -3.4,3.32 -5.31,1.55c-0.06,-3.29 -3.57,-0.4 -1.36,1.12l0.5,0.58c-2.99,3.23 -7.1,5.42 -9.31,9.34c-1.59,2.53 -2.79,5.29 -3.82,8.09c-1.05,0.28 -2.1,0.56 -3.14,0.85c-0.15,0.45 -0.45,1.34 -0.6,1.79c-0.29,-0.67 -0.58,-1.33 -0.88,-1.99c2.53,-0.24 5.49,-2.04 5.17,-4.94c-1.34,0.47 -2.68,0.97 -4.02,1.46c-3.07,-0.71 -6.47,-1.6 -9.23,0.49c0.27,-1.09 0.55,-2.17 0.83,-3.25c-1.95,1.31 -4.07,2.34 -6.18,3.37c2.82,-3.72 6.79,-6.85 7.1,-11.89c-1.52,-0.55 -3.03,-1.16 -4.53,-1.79c0.28,-2.18 -0.27,-4.26 -1.5,-6.06c-0.91,-0.23 -1.83,-0.46 -2.74,-0.68c0.43,-0.36 1.3,-1.1 1.73,-1.47c-0.2,-0.68 -0.61,-2.05 -0.82,-2.73c-1.08,0.44 -2.16,0.88 -3.24,1.32c1.75,-1.82 3.82,-3.4 5.07,-5.62c0.76,-2.5 1.06,-5.23 2.67,-7.38c1.47,-2.36 4.19,-3.46 5.95,-5.52c1.67,-2.75 2.65,-5.89 4.72,-8.39c-1.97,-0.2 -1.59,-2.14 -1.79,-3.58c-3.55,2.63 -6.98,7.35 -11.97,5.33c0.36,-1.18 0.68,-2.36 0.97,-3.55c-1.28,-0.02 -2.56,-0.08 -3.84,-0.14c-0.55,-1.46 -1.24,-2.9 -1.49,-4.45c0.44,-2 1.71,-3.72 2.65,-5.52c-0.94,-0.07 -2.83,-0.23 -3.77,-0.3c0.69,-1.75 1.57,-3.41 2.68,-4.92c-1.08,0.06 -2.16,0.12 -3.23,0.18c-2.54,2.13 -5.31,3.97 -7.61,6.39c-2.6,1.57 -3.79,-2.04 -4.96,-3.63c-0.92,0.36 -2.76,1.1 -3.68,1.46c0.46,-1.33 0.87,-2.66 1.25,-4c-1.53,-1.76 -3.2,-3.41 -4.46,-5.38c-1.25,0.07 -2.51,0.14 -3.76,0.23c0.02,-0.53 0.06,-1.6 0.08,-2.13c-0.62,0.02 -1.87,0.06 -2.49,0.08c1.5,-2.43 2.41,-5.16 3.52,-7.77c-1.11,0.39 -3.35,1.15 -4.46,1.53c0.51,-0.85 1.54,-2.56 2.06,-3.41c-1.02,0.18 -3.05,0.55 -4.07,0.73c1,-3.75 4.84,-5.37 7.58,-7.65c-0.1,-0.4 -0.3,-1.2 -0.4,-1.6c-0.47,0 -1.4,0 -1.86,0c2.82,-2.27 5.04,-5.15 7.27,-7.98c-0.94,0.05 -2.81,0.16 -3.75,0.21c4.17,-3.26 6.13,-8.42 10.15,-11.8c3.55,-3.02 5.81,-7.24 9.49,-10.16c-0.45,-1.87 -2.99,-1.17 -4.38,-1.73c-2.63,2.48 -5.14,5.1 -8.04,7.27c0.37,-0.92 1.11,-2.78 1.48,-3.7c-0.95,0.29 -2.84,0.87 -3.79,1.16c1.33,-0.88 2.68,-1.83 3.47,-3.26c-2.01,-0.07 -3.88,-0.9 -5.88,-1.05c0.08,-1.68 0.14,-3.36 0.19,-5.03c-1.79,-0.56 -3.61,-0.99 -5.46,-1.25c0.26,-3.95 2.75,-6.91 5.05,-9.91c-3.06,-0.49 -5.4,1.11 -7.07,3.6c-0.46,-2.93 1.88,-4.77 3.5,-6.72c-0.02,-0.68 -0.06,-2.03 -0.08,-2.71c4.27,-4.17 8.35,-8.59 11.5,-13.68c-1.16,-0.7 -2.31,-1.4 -3.46,-2.1c0.24,-2.25 -0.51,-4.28 -2.12,-5.83c0.31,-1.58 0.97,-3.07 1.49,-4.58c-0.71,-0.43 -1.42,-0.85 -2.13,-1.27c1.33,-1.13 2.66,-2.26 3.99,-3.39c-0.16,-0.38 -0.46,-1.13 -0.61,-1.51c-1.07,-0.69 -2.16,-1.35 -3.27,-1.97c-4.49,2.56 -6.93,7.33 -11.01,10.37c-1.77,0.48 -3.6,0.82 -5.26,1.66c0.03,-0.52 0.07,-1.54 0.1,-2.05c-0.62,0.15 -1.84,0.46 -2.45,0.61c0.18,-0.87 0.54,-2.61 0.72,-3.48c-2.32,1.44 -4.48,3.14 -6.13,5.35c-0.26,-2.07 -2.25,-2.12 -3.87,-2.47c-0.84,-1.68 -1.66,-3.37 -2.5,-5.05c1.16,-1.73 2.21,-3.53 3.23,-5.34c3.62,0.02 6.31,-2.47 9.09,-4.41c-0.77,-1.27 -1.58,-2.51 -2.41,-3.73c4.75,-3.98 8.11,-9.36 13.13,-13.04c0.08,-0.67 0.25,-2.01 0.34,-2.68c-2.24,1.83 -4.4,3.78 -6.95,5.17c0.63,-0.97 1.28,-1.92 1.96,-2.86l0.54,-0.79c-0.3,-1.18 -0.67,-2.34 -1.02,-3.5c5.15,-6.29 11.3,-11.65 16.75,-17.66c3.51,-3.81 7.44,-7.33 10.02,-11.88c-3.59,0.94 -5.64,4.23 -8.26,6.56c-4.72,4.27 -8.8,9.2 -13.66,13.33c-4.12,3.54 -7.98,7.39 -11.46,11.57c-2.42,2.97 -5.09,5.73 -7.55,8.68c-4.95,5.51 -10.11,10.83 -15.53,15.89c-1.89,0.23 -3.78,0.47 -5.66,0.7c1.92,-2.85 4.12,-5.62 7.51,-6.77c3.24,-1.2 3.36,-5.09 5.2,-7.53c2.15,-2.03 5.08,-2.94 7.41,-4.72c1.15,-1.45 1.55,-3.33 2.27,-5.01c-0.47,-0.13 -1.4,-0.39 -1.87,-0.52c3.31,-4.19 6.88,-8.16 10.59,-12l0.11,-0.33c0.62,-3.39 2.89,-6.11 3.97,-9.34c-2.2,1.64 -4.23,3.49 -6.24,5.36c-0.85,-0.67 -1.7,-1.33 -2.55,-1.99c3.07,-3.67 6.65,-6.89 9.48,-10.77c4.63,-4.81 9.38,-9.5 13.83,-14.48c4.48,-3.97 7.82,-8.97 11.8,-13.39c4.18,-4.78 8.95,-9.05 12.75,-14.16c-0.4,-0.13 -1.2,-0.39 -1.6,-0.52l-1.51,-0.78c2.01,-1.99 3.94,-4.06 5.63,-6.33c-3.7,1.52 -6.09,4.85 -9.12,7.29c1.87,-3.16 4.72,-5.5 7.26,-8.08c6.63,-6.66 12.83,-13.73 19.3,-20.53c4.26,-3.82 7.63,-8.46 11.75,-12.41c2.33,-2.28 4.55,-4.68 6.7,-7.14c-0.13,-0.58 -0.38,-1.75 -0.51,-2.34c7.64,-7.11 13.97,-15.55 21.8,-22.5c3.44,-2.99 5.5,-7.24 9.19,-9.99c0.13,-1.18 0.34,-2.34 0.65,-3.47c3,-4.09 6.51,-7.8 10.47,-10.97c0.97,-0.05 1.95,-0.09 2.93,-0.13c1.1,0.95 2.29,1.8 3.6,2.45c-2.64,5.37 -6.49,9.95 -10.56,14.28c-2.58,4.27 -6.24,7.73 -8.87,11.97c3.16,-3.51 6.05,-7.26 8.86,-11.06c0.53,-0.1 1.61,-0.3 2.14,-0.4c-0.85,-3.73 3.95,-5.39 6.7,-6.53c0.94,0.9 1.89,1.79 2.85,2.69c-2.01,2.09 -3.95,4.32 -5.04,7.05c1.63,-0.71 3.24,-1.46 4.89,-2.16c-1.23,1.76 -2.66,3.34 -4.12,4.89c-2.2,2.13 -1.82,5.73 -4.2,7.75c-3.63,3.5 -6.98,7.34 -9.18,11.92c-0.97,1.45 -0.51,3.22 -0.56,4.84c4.3,-1.49 6.39,-5.96 9.74,-8.78c5.17,-5.99 11.39,-10.95 16.49,-16.99c-2.25,5.45 -8.25,8.13 -10.26,13.73c5.36,-3.31 9.21,-8.39 13.74,-12.64c3.11,-2.94 6.35,-5.75 9.22,-8.93c5.44,-6.04 11.55,-11.48 16.34,-18.08c-6.24,4.82 -11.24,11.05 -17.62,15.71l0.39,-2.08c11.01,-10.09 21.05,-21.18 31.7,-31.64c3.8,-2.98 7.39,-6.21 10.53,-9.89c0.47,0.01 1.42,0.03 1.9,0.04c-1.62,1.88 -3.4,3.61 -5.17,5.34c-2.38,2.33 -3.6,5.53 -5.8,7.99c-7.57,7.46 -13.58,16.32 -20.96,23.95c-4.48,4.05 -8.49,8.58 -12.13,13.39c1.87,-0.61 3.23,-2.74 5.29,-2.55c0.21,1.5 0.37,3.01 0.5,4.52c-1.63,1.56 -3.22,3.17 -4.67,4.9c2.52,-1.5 4.55,-3.63 6.67,-5.62c5.15,-4.49 10.28,-9.09 14.56,-14.44c4.14,-3.46 7.9,-7.32 11.75,-11.09c7.74,-6.3 14.64,-13.56 21.79,-20.51c-0.1,0.9 -0.29,2.72 -0.38,3.62c-2.76,3.06 -6.66,5.14 -8.39,9.06c5.04,-2.88 8.61,-7.58 13.12,-11.15c3.34,-2.61 6.39,-5.56 9.68,-8.22c4.09,-3.28 7.33,-7.46 11.41,-10.74c4.41,-3.56 8.65,-7.34 12.79,-11.22c0.93,-1.13 2.32,-1.41 3.72,-1.46c1.01,-2.21 2.63,-4.03 4.31,-5.75zM123.07,438.98c-3.44,-4.35 -0.77,-9.98 -0.44,-14.87c-3.15,3.28 -7.68,3.52 -11.71,4.94c0.94,-1.61 0.87,-3.51 1.45,-5.23c1.13,-3.71 2.99,-7.2 3.4,-11.1c-4.64,5.66 -4.95,13.52 -9.73,19.1c3.8,0.41 7.8,0.46 11.18,-1.63c-0.6,1.22 -1.27,2.42 -1.7,3.72c0.55,0.83 1.14,1.64 1.76,2.43c-0.65,0.72 -1.3,1.45 -1.94,2.18c1.73,0.25 3.46,0.52 5.19,0.78c0.04,0.77 0.08,1.54 0.12,2.31c0.76,-0.1 1.52,-0.2 2.29,-0.3c-0.13,1.27 -0.26,2.54 -0.37,3.82c2.34,-1.98 4.28,-4.4 5.57,-7.19c-1.68,0.39 -3.37,0.71 -5.07,1.04zM119.99,408.23c-1.57,0.38 -3.14,0.75 -4.71,1.14c1.05,-2.54 2.15,-5.08 3.62,-7.41c-2.45,1.44 -5.11,2.98 -8.07,2.32c1.03,1.49 2.11,2.96 3.15,4.45c-0.79,1.98 -1.58,3.95 -2.37,5.92c1.73,-1.7 3.56,-3.39 5.88,-4.25c0.81,-0.75 1.66,-1.45 2.5,-2.17zM115.01,395.88c0.33,-1.61 -0.31,-3.23 -0.49,-4.81c-2.13,0.9 -4.19,2.12 -6.51,2.41c-2.08,-0.03 -4.07,-0.65 -6.07,-1.13c0.34,-2.73 1.12,-5.38 2.15,-7.92c-2.81,-0.39 -5.74,-0.21 -7.76,2.05c0.86,0.7 1.72,1.41 2.57,2.14c0.77,-0.09 1.54,-0.17 2.31,-0.24c-0.55,0.94 -1.1,1.88 -1.65,2.83c0.69,1.4 1.39,2.8 2.09,4.2c3.87,-1.16 7.86,-0.51 10.88,2.27c-0.16,0.58 -0.47,1.76 -0.63,2.34c1.07,-1.35 2.27,-2.63 3.11,-4.14zM432.6,157.61c4.29,-1.03 7.55,-4.16 11.57,-5.8c-4.02,1.64 -7.28,4.77 -11.57,5.8zM444.17,151.81c0.13,0.55 0.38,1.65 0.51,2.21c-0.13,-0.56 -0.38,-1.66 -0.51,-2.21zM444.68,154.02c1.2,-0.61 2.4,-1.2 3.6,-1.8c-1.2,0.6 -2.4,1.19 -3.6,1.8zM448.28,152.22c0.08,0.54 0.22,1.64 0.29,2.18c-0.07,-0.54 -0.21,-1.64 -0.29,-2.18zM455.85,165.6c-1.67,2.09 -3.41,4.12 -5.19,6.1c1.78,-1.98 3.52,-4.01 5.19,-6.1zM452.27,189.02c-2.88,4.51 -6.15,8.76 -8.91,13.35c2.76,-4.59 6.03,-8.84 8.91,-13.35zM443.36,202.37c-3,5.05 -8.65,7.33 -12.69,11.34c4.04,-4.01 9.69,-6.29 12.69,-11.34zM412.86,229.62c1.38,1.7 3.12,3.03 4.87,4.33c-1.75,-1.3 -3.49,-2.63 -4.87,-4.33zM417.73,233.95c-3.24,3.93 -6.35,7.97 -9.48,11.98c3.13,-4.01 6.24,-8.05 9.48,-11.98zM408.25,245.93c0.76,0.99 1.53,1.99 2.3,2.99c-0.77,-1 -1.54,-2 -2.3,-2.99zM410.55,248.92c-0.97,2.61 -1.73,5.29 -2.38,7.99c0.65,-2.7 1.41,-5.38 2.38,-7.99zM408.17,256.91c1.26,-0.85 2.54,-1.69 3.83,-2.51c-1.29,0.82 -2.57,1.66 -3.83,2.51zM412,254.4c0.21,0.52 0.42,1.04 0.64,1.57c-0.22,-0.53 -0.43,-1.05 -0.64,-1.57zM401.71,274c-4.55,5.67 -10.11,10.34 -15.57,15.07c5.46,-4.73 11.02,-9.4 15.57,-15.07zM386.14,289.07c-4.96,5.87 -10.49,11.23 -15.54,17.02c5.05,-5.79 10.58,-11.15 15.54,-17.02zM370.6,306.09c-1.86,0.6 -3.99,0.74 -5.55,2c1.56,-1.26 3.69,-1.4 5.55,-2zM365.05,308.09c-1.64,2.15 -2.29,4.86 -3.82,7.08c1.53,-2.22 2.18,-4.93 3.82,-7.08zM347.84,325.89c-2.14,1.08 -4.88,0.65 -6.76,2.34c1.88,-1.69 4.62,-1.26 6.76,-2.34zM328.5,339.38c-2.69,2.16 -3.98,5.42 -6.04,8.08c2.06,-2.66 3.35,-5.92 6.04,-8.08zM303.78,361.48c-0.43,-0.18 -1.3,-0.55 -1.74,-0.73c0.44,0.18 1.31,0.55 1.74,0.73zM302.04,360.75c-3.89,3.63 -7.04,7.91 -9.96,12.32c2.92,-4.41 6.07,-8.69 9.96,-12.32zM274.29,390.29c-1.24,1.42 -2.96,0.29 -4.43,0.02c1.47,0.27 3.19,1.4 4.43,-0.02zM269.86,390.31c1.64,-1.82 3.29,-3.63 4.93,-5.46c-1.64,1.83 -3.29,3.64 -4.93,5.46zM274.79,384.85c-4.15,1.91 -8.96,3.63 -11.24,7.91c2.28,-4.28 7.09,-6 11.24,-7.91zM255.7,399.69c-2.76,2.21 -4.94,5.45 -8.63,6.17c3.69,-0.72 5.87,-3.96 8.63,-6.17zM247.07,405.86c-1.26,2.67 -2.25,5.63 -4.55,7.63c2.3,-2 3.29,-4.96 4.55,-7.63zM242.52,413.49c-3.7,3.3 -7.73,6.57 -12.75,7.5c5.02,-0.93 9.05,-4.2 12.75,-7.5zM229.77,420.99c-5.16,4.68 -10.21,9.46 -14.77,14.74c4.56,-5.28 9.61,-10.06 14.77,-14.74zM215,435.73c-0.63,1.76 -0.9,3.72 -2.01,5.27c1.11,-1.55 1.38,-3.51 2.01,-5.27zM212.99,441c-1.63,1.53 -3.85,2.17 -5.85,3.07c2,-0.9 4.22,-1.54 5.85,-3.07zM195.74,449.05c-1.65,1.65 -4.56,-0.39 -3.35,-2.43c-1.21,2.04 1.7,4.08 3.35,2.43zM192.39,446.62c2.33,-2.84 4.63,-5.78 5.22,-9.52c-0.59,3.74 -2.89,6.68 -5.22,9.52zM197.61,437.1c-1.13,-0.68 -2.27,-1.37 -3.4,-2.04c1.13,0.67 2.27,1.36 3.4,2.04zM194.21,435.06c-2.3,2.15 -4.76,4.14 -7.37,5.91c2.61,-1.77 5.07,-3.76 7.37,-5.91zM177.12,451.16c-0.62,-1.4 -1.32,-2.78 -1.76,-4.24c0.44,1.46 1.14,2.84 1.76,4.24zM177.34,442.57c-3.41,-3.22 -7.89,-1.54 -11.93,-1.09c4.04,-0.45 8.52,-2.13 11.93,1.09zM164.22,435.81c-2.49,-0.35 -4.28,-1.87 -5.08,-4.23c0.8,2.36 2.59,3.88 5.08,4.23zM159.14,431.58c-1.29,0.63 -2.59,1.27 -3.88,1.91c1.29,-0.64 2.59,-1.28 3.88,-1.91zM151.86,424.06c-6.19,2.9 -9.46,9.11 -14.39,13.51c4.93,-4.4 8.2,-10.61 14.39,-13.51zM137.47,437.57c-3.05,-1.52 -6.3,-0.72 -9.33,0.37c3.03,-1.09 6.28,-1.89 9.33,-0.37zM115.77,412.72c0.43,-0.58 1.29,-1.74 1.72,-2.32c-0.43,0.58 -1.29,1.74 -1.72,2.32zM96.33,386.48c-1.68,1.62 -3.15,3.44 -4.72,5.16c1.57,-1.72 3.04,-3.54 4.72,-5.16z" id="path-5 1" fill="url(#grad-40)" fill-rule="nonzero" stroke="url(#grad-40)" stroke-width="0.25" stroke-linecap="butt" stroke-linejoin="miter" stroke-miterlimit="10" stroke-dasharray="" stroke-dashoffset="0" font-family="none" font-weight="none" font-size="none" text-anchor="none" style="mix-blend-mode: normal; opacity: 1;" data-index="40"></path></svg>