<?xml version="1.0" encoding="utf-8"?>
<svg xmlns="http://www.w3.org/2000/svg" height="512pt" version="1.1" viewBox="0 0 512 512" width="512pt">
<path d="M 0.00 0.00 L 512.00 0.00 L 512.00 512.00 L 0.00 512.00 L 0.00 0.00 Z" fill="transparent" opacity="1.00" stroke="transparent" stroke-width="0.25"/>
<path d="M 176.29 137.32 C 185.46 127.15 199.60 122.71 213.03 123.21 C 227.56 123.28 242.41 128.80 252.14 139.87 C 260.41 148.75 263.92 160.67 267.16 172.08 C 270.28 182.21 273.22 192.40 276.27 202.55 C 277.07 205.49 279.68 207.41 280.97 210.11 C 291.00 228.21 299.26 247.26 309.81 265.08 C 319.57 282.15 331.17 298.12 343.87 313.12 C 347.97 318.32 352.88 322.81 357.53 327.51 C 358.45 328.22 358.52 329.39 358.76 330.43 C 348.50 331.38 338.66 327.60 328.98 324.79 C 339.59 342.58 353.57 358.33 369.73 371.26 C 377.45 377.41 385.54 383.23 394.45 387.55 C 397.03 388.83 399.98 389.65 401.89 391.96 C 396.67 394.04 390.95 392.95 385.59 392.17 C 361.74 388.03 340.49 374.38 323.89 357.17 C 326.17 365.81 329.79 374.11 331.19 382.98 C 331.62 384.45 331.24 385.66 330.05 386.62 C 327.12 386.04 325.16 383.57 322.77 381.98 C 325.52 388.06 329.03 393.87 330.76 400.35 C 331.58 402.90 329.31 405.31 326.86 405.53 C 324.82 405.90 323.76 403.69 322.52 402.49 C 307.26 382.52 292.87 361.89 279.09 340.88 C 276.86 337.79 275.11 334.32 272.52 331.51 C 261.29 329.22 250.14 326.48 239.00 323.71 C 236.02 325.93 233.09 329.11 229.12 329.17 C 225.45 328.58 225.91 324.42 225.46 321.65 C 222.69 322.99 219.60 323.79 216.70 322.33 C 216.17 320.96 215.67 319.58 215.21 318.20 C 212.71 317.63 211.32 319.57 209.73 321.12 C 207.06 322.25 205.85 318.99 203.91 317.88 C 202.03 316.84 201.05 314.88 199.56 313.44 C 193.38 311.77 186.97 310.97 180.87 309.01 C 177.90 308.21 178.40 304.45 178.89 302.14 C 179.53 300.21 180.28 296.99 182.95 297.47 C 188.87 298.20 194.59 300.07 200.35 301.56 C 201.47 299.99 202.59 298.41 203.72 296.85 C 199.14 291.52 194.49 286.18 191.10 279.99 C 185.11 269.68 182.40 257.77 181.63 245.96 C 181.17 230.87 184.40 216.03 186.60 201.19 C 182.53 201.55 178.48 202.19 174.42 202.67 C 172.79 204.88 171.42 208.17 168.08 207.51 C 161.92 195.65 162.83 181.14 167.96 169.08 C 169.86 166.07 167.09 163.07 166.99 159.96 C 166.43 151.50 170.51 143.29 176.29 137.32 Z" fill="#053151" opacity="1.00" stroke="#053151" stroke-width="0.25"/>
<path d="M 192.42 135.52 C 204.54 130.22 218.72 130.26 231.00 135.00 C 239.80 138.34 247.40 144.85 251.76 153.21 C 255.61 159.87 257.30 167.43 259.57 174.70 C 262.50 184.09 265.25 193.54 267.89 203.01 C 263.95 200.94 259.54 198.86 254.97 200.02 C 245.74 201.68 239.43 210.18 237.09 218.79 C 233.39 232.56 236.89 246.99 241.95 259.94 C 248.37 274.98 258.65 288.39 271.73 298.24 C 277.39 302.97 283.92 306.40 290.30 310.01 C 276.70 315.32 261.53 315.55 247.40 312.35 C 248.17 309.05 249.11 305.50 247.90 302.18 C 246.07 297.07 240.29 293.99 235.01 294.79 C 230.10 295.62 225.59 298.15 221.96 301.50 C 221.56 299.07 221.61 296.18 219.49 294.51 C 217.33 292.38 214.14 292.65 211.36 292.55 C 204.16 285.41 197.90 277.16 194.13 267.68 C 191.57 261.08 190.35 254.05 189.73 247.03 C 189.03 235.57 191.10 224.21 192.85 212.94 C 193.62 208.44 194.18 203.89 195.32 199.47 C 199.20 198.35 203.24 197.61 206.90 195.85 C 208.39 195.26 209.23 193.57 209.20 192.03 C 209.07 185.38 206.71 179.10 204.85 172.80 C 207.92 173.55 210.99 174.33 214.11 174.88 C 214.79 178.53 215.57 182.93 219.17 184.87 C 225.36 188.04 233.84 186.84 238.43 181.43 C 241.37 178.06 241.89 172.56 239.04 168.99 C 236.93 166.58 233.54 166.22 230.55 165.98 C 231.72 160.83 232.42 154.67 228.61 150.40 C 226.09 147.01 221.99 145.35 217.86 145.14 C 218.23 147.77 221.56 147.35 223.36 148.53 C 231.93 152.85 231.23 166.74 223.15 171.16 C 216.96 173.88 209.38 172.75 203.72 169.28 C 201.14 165.49 199.41 161.13 196.37 157.63 C 193.31 153.99 190.62 149.47 185.96 147.73 C 181.14 148.27 178.44 153.01 175.04 155.95 C 177.13 146.89 183.88 139.11 192.42 135.52 Z" fill="#fdfffe" opacity="1.00" stroke="#fdfffe" stroke-width="0.25"/>
<path d="M 210.49 149.48 C 213.86 147.39 219.41 148.26 221.05 152.17 C 222.46 156.29 220.42 161.83 215.93 162.96 C 212.95 164.00 209.67 162.44 207.96 159.94 C 206.27 156.45 206.95 151.58 210.49 149.48 Z" fill="#05304e" opacity="1.00" stroke="#05304e" stroke-width="0.25"/>
<path d="M 214.45 155.55 C 211.88 153.62 215.19 148.96 217.74 150.99 C 220.17 151.75 219.43 154.43 219.35 156.34 C 217.74 156.25 215.57 157.19 214.45 155.55 Z" fill="#f8fcfd" opacity="1.00" stroke="#f8fcfd" stroke-width="0.25"/>
<path d="M 181.57 160.70 C 182.89 159.33 184.05 156.46 186.39 157.59 C 194.12 166.50 199.28 177.48 201.47 189.06 C 192.03 192.86 181.81 194.78 171.69 195.51 C 170.28 183.17 173.73 170.38 181.57 160.70 Z" fill="#f9842c" opacity="1.00" stroke="#f9842c" stroke-width="0.25"/>
<path d="M 225.82 171.72 C 227.58 170.45 229.01 168.67 231.05 167.82 C 234.53 167.79 238.79 170.10 238.68 173.99 C 239.20 180.63 232.08 185.29 225.98 184.53 C 220.57 185.08 216.04 180.35 216.16 175.06 C 219.45 174.24 223.07 173.91 225.82 171.72 Z" fill="#ed5631" opacity="1.00" stroke="#ed5631" stroke-width="0.25"/>
<path d="M 245.57 208.51 C 248.45 204.11 253.76 201.53 258.98 201.85 C 264.30 202.41 268.39 206.44 271.48 210.48 C 277.63 220.01 282.36 230.35 287.60 240.38 C 301.08 268.18 317.34 294.77 337.74 318.05 C 328.84 316.25 320.21 313.36 311.66 310.33 C 298.51 305.43 285.56 299.33 274.72 290.28 C 256.25 275.22 244.14 252.70 241.73 229.00 C 241.16 222.03 241.55 214.49 245.57 208.51 Z" fill="#72e5ff" opacity="1.00" stroke="#72e5ff" stroke-width="0.25"/>
<path d="M 208.50 300.49 C 210.37 298.64 214.89 298.94 215.15 302.07 C 215.38 306.38 212.87 310.45 209.80 313.32 C 210.25 309.60 211.27 305.80 210.26 302.08 C 207.96 304.17 206.71 307.01 205.85 309.92 C 205.48 311.19 204.73 312.29 203.98 313.37 C 201.78 308.63 205.12 303.66 208.50 300.49 Z" fill="#de6647" opacity="1.00" stroke="#de6647" stroke-width="0.25"/>
<path d="M 219.26 315.96 C 221.48 309.24 226.82 303.02 234.03 301.67 C 237.00 301.09 240.06 302.91 241.38 305.54 C 242.26 309.11 240.38 312.58 238.42 315.43 C 236.10 318.48 233.72 321.94 229.84 323.06 C 228.98 316.95 234.61 312.76 235.96 307.16 C 229.69 308.74 226.47 314.89 221.12 318.01 C 220.66 317.49 219.73 316.47 219.26 315.96 Z" fill="#e85a36" opacity="1.00" stroke="#e85a36" stroke-width="0.25"/>
<path d="M 205.85 309.92 C 206.71 307.01 207.96 304.17 210.26 302.08 C 211.27 305.80 210.25 309.60 209.80 313.32 C 209.39 311.71 209.02 310.11 208.65 308.50 C 207.72 308.97 206.78 309.45 205.85 309.92 Z" fill="#3c2b33" opacity="1.00" stroke="#3c2b33" stroke-width="0.25"/>
<path d="M 287.14 319.45 C 290.70 318.37 294.19 317.11 297.73 315.97 C 303.25 329.31 309.50 342.38 314.17 356.04 C 307.44 347.33 300.78 338.57 294.29 329.69 C 291.77 326.37 289.19 323.08 287.14 319.45 Z" fill="#fafdfd" opacity="1.00" stroke="#fafdfd" stroke-width="0.25"/>
<path d="M 306.58 317.05 C 310.22 318.13 313.85 319.25 317.38 320.64 C 318.59 321.02 318.94 322.41 319.58 323.36 C 328.02 340.03 340.19 354.53 353.51 367.50 C 357.31 371.38 361.79 374.47 365.92 377.96 C 347.28 369.25 331.19 355.57 318.74 339.26 C 313.62 332.52 309.41 325.03 306.58 317.05 Z" fill="#73e2fc" opacity="1.00" stroke="#73e2fc" stroke-width="0.25"/>
</svg>