<svg xmlns="http://www.w3.org/2000/svg" height="512pt" version="1.1" viewBox="0 0 512 512" width="512pt">

<path d="M 338.60 78.61 C 340.70 77.82 343.90 77.52 344.98 79.99 C 348.78 87.01 352.12 94.29 355.37 101.59 C 361.53 99.26 368.16 102.09 372.89 106.13 C 375.66 108.52 377.88 112.19 377.11 115.98 C 376.56 120.13 371.53 120.42 369.13 123.13 C 364.93 127.65 364.48 134.24 364.42 140.10 C 364.35 156.40 365.57 172.75 363.65 188.99 C 360.81 219.85 349.66 249.73 332.32 275.35 C 322.06 289.84 310.30 303.22 297.56 315.56 C 275.02 338.01 248.97 357.68 219.00 368.98 C 198.43 376.79 175.77 381.35 153.89 377.01 C 147.18 375.93 140.60 371.26 133.69 373.84 C 127.28 376.56 122.04 381.87 118.78 387.98 C 121.21 391.79 124.76 395.28 125.19 400.01 C 125.54 402.76 123.94 405.90 120.98 406.28 C 117.18 406.59 113.52 405.22 109.89 404.32 C 108.82 406.46 107.77 408.61 106.59 410.70 C 105.51 412.08 102.26 412.46 101.40 410.55 C 99.26 406.11 96.67 401.89 94.71 397.37 C 93.59 395.24 95.73 393.41 96.73 391.73 C 101.64 385.41 103.40 377.39 107.58 370.65 C 109.79 366.33 114.13 363.82 117.07 360.08 C 121.60 354.80 122.92 347.65 127.21 342.21 C 132.87 334.63 139.31 327.66 145.93 320.91 C 148.97 318.23 148.85 313.86 150.49 310.41 C 153.99 302.64 160.96 296.35 169.31 294.32 C 174.54 293.33 177.72 288.77 181.41 285.41 C 192.50 274.15 204.77 264.13 215.39 252.40 C 228.73 238.64 241.06 223.94 252.74 208.75 C 262.31 197.24 271.28 185.26 280.54 173.51 C 284.03 169.52 282.38 163.58 285.23 159.22 C 288.29 152.75 294.92 149.08 301.71 147.74 C 303.85 143.40 305.99 138.93 309.44 135.44 C 316.56 128.40 322.14 119.98 327.25 111.43 C 329.22 108.49 329.99 104.29 327.65 101.33 C 326.34 99.23 323.36 97.32 324.44 94.49 C 326.57 91.64 330.02 90.54 333.01 88.93 C 335.13 85.63 335.85 81.50 338.60 78.61 Z" fill="#042f4a" opacity="1.00" stroke="#042f4a" stroke-width="0.25" data-index="1" style="opacity: 1;"></path>
<path d="M 341.11 81.85 C 343.24 84.61 344.57 87.85 346.06 90.97 C 350.12 99.06 354.10 107.24 357.02 115.82 C 353.91 119.37 351.54 123.46 349.70 127.78 C 341.32 124.14 331.96 123.60 323.12 125.80 C 326.15 120.32 330.16 115.33 332.39 109.45 C 334.11 104.49 331.41 99.73 328.54 95.86 C 330.55 93.68 333.93 93.94 336.09 92.12 C 337.97 88.80 338.72 84.91 341.11 81.85 Z" fill="#6fb043" opacity="1.00" stroke="#6fb043" stroke-width="0.25" data-index="2"></path>
<path d="M 358.99 104.14 C 362.91 104.35 366.34 106.39 369.52 108.51 C 369.26 109.37 369.00 110.23 368.79 111.10 C 365.40 109.20 359.64 108.69 358.99 104.14 Z" fill="#89cb60" opacity="1.00" stroke="#89cb60" stroke-width="0.25" data-index="3"></path>
<path d="M 368.79 111.10 C 369.00 110.23 369.26 109.37 369.52 108.51 C 371.28 110.36 374.48 112.82 372.94 115.68 C 370.46 117.62 367.45 118.91 365.49 121.45 C 362.55 124.62 361.80 129.00 360.26 132.89 C 359.11 135.43 358.64 138.21 358.76 140.99 C 358.94 152.65 359.34 164.32 358.99 175.99 C 358.84 179.48 359.04 182.98 359.48 186.44 C 359.71 188.69 359.53 190.95 359.23 193.17 C 356.16 216.58 348.84 239.54 337.03 260.02 C 327.12 278.29 313.12 293.90 298.81 308.81 C 279.02 328.48 257.37 346.93 232.00 359.00 C 209.24 370.02 183.59 377.01 158.17 373.74 C 151.18 373.13 144.97 369.18 137.97 368.76 C 130.04 369.22 123.46 374.77 118.73 380.74 C 116.67 383.70 113.93 387.04 114.74 390.89 C 117.63 394.22 121.78 397.20 121.31 402.21 C 116.85 402.65 112.78 400.17 108.36 400.32 C 106.32 401.78 105.39 404.31 103.97 406.32 C 102.08 403.23 100.43 400.02 98.69 396.86 C 103.98 388.69 106.98 379.34 112.08 371.08 C 115.54 365.57 122.56 365.12 128.15 363.17 C 140.91 359.79 153.00 354.42 164.98 348.98 C 189.75 337.18 214.60 324.58 235.35 306.34 C 248.25 295.62 259.93 283.51 270.57 270.55 C 299.25 237.26 320.50 198.46 340.42 159.52 C 345.43 149.26 350.11 138.83 353.99 128.09 C 356.42 121.40 361.60 115.69 368.47 113.47 C 368.55 112.88 368.71 111.69 368.79 111.10 Z" fill="#92d73c" opacity="1.00" stroke="#92d73c" stroke-width="0.25" data-index="4" style="opacity: 1;"></path>

<path d="M 318.07 133.00 C 326.61 126.78 338.54 127.15 347.88 131.52 C 347.63 133.26 347.31 135.01 346.59 136.64 C 341.58 148.33 335.97 159.76 330.02 171.01 C 329.40 172.04 328.93 173.22 327.97 173.99 C 324.16 174.55 320.23 175.21 316.41 174.45 C 312.88 173.39 309.93 171.07 306.98 168.97 C 303.81 164.13 303.89 157.94 304.65 152.41 C 305.87 146.67 308.13 140.63 312.96 136.96 C 312.45 139.61 312.13 142.30 311.79 144.98 C 312.72 145.17 313.62 145.45 314.51 145.82 C 315.86 143.54 317.00 140.77 319.66 139.72 C 322.79 138.25 326.07 136.84 328.33 134.10 C 325.14 132.48 321.53 132.28 318.07 133.00 Z" fill="#92d73c" opacity="1.00" stroke="#92d73c" stroke-width="0.25" data-index="6"></path>
<path d="M 318.07 133.00 C 321.53 132.28 325.14 132.48 328.33 134.10 C 326.07 136.84 322.79 138.25 319.66 139.72 C 317.00 140.77 315.86 143.54 314.51 145.82 C 313.62 145.45 312.72 145.17 311.79 144.98 C 312.13 142.30 312.45 139.61 312.96 136.96 C 314.36 135.30 316.19 134.06 318.07 133.00 Z" fill="#c7f0ab" opacity="1.00" stroke="#c7f0ab" stroke-width="0.25" data-index="7"></path>
<path d="M 358.76 140.99 C 358.64 138.21 359.11 135.43 360.26 132.89 C 360.66 137.92 360.19 142.96 360.29 148.00 C 360.21 160.80 361.33 173.72 359.48 186.44 C 359.04 182.98 358.84 179.48 358.99 175.99 C 359.34 164.32 358.94 152.65 358.76 140.99 Z" fill="#99d860" opacity="1.00" stroke="#99d860" stroke-width="0.25" data-index="8"></path>

<path d="M 286.56 166.96 C 287.48 159.75 293.18 152.95 300.60 152.01 C 300.52 156.14 300.50 160.28 300.61 164.41 C 299.69 162.26 298.80 160.09 297.86 157.94 C 297.63 157.44 297.17 156.44 296.94 155.94 C 293.83 157.53 291.05 159.78 289.33 162.87 C 287.10 166.99 288.31 171.65 289.59 175.84 C 286.30 174.21 286.38 170.11 286.56 166.96 Z" fill="#8ecc5d" opacity="1.00" stroke="#8ecc5d" stroke-width="0.25" data-index="10"></path>
<path d="M 289.33 162.87 C 291.05 159.78 293.83 157.53 296.94 155.94 C 297.17 156.44 297.63 157.44 297.86 157.94 C 295.96 159.95 293.94 161.84 291.85 163.65 C 291.22 163.45 289.96 163.07 289.33 162.87 Z" fill="#bbef93" opacity="1.00" stroke="#bbef93" stroke-width="0.25" data-index="11"></path>
<path d="M 291.85 163.65 C 293.94 161.84 295.96 159.95 297.86 157.94 C 298.80 160.09 299.69 162.26 300.61 164.41 C 302.04 167.78 303.40 171.18 304.82 174.56 C 299.70 174.29 294.67 175.38 289.59 175.84 C 288.31 171.65 287.10 166.99 289.33 162.87 C 289.96 163.07 291.22 163.45 291.85 163.65 Z" fill="#92d73e" opacity="1.00" stroke="#92d73e" stroke-width="0.25" data-index="12"></path>
<path d="M 306.98 168.97 C 309.93 171.07 312.88 173.39 316.41 174.45 C 320.23 175.21 324.16 174.55 327.97 173.99 C 326.83 177.11 325.22 180.02 323.54 182.88 C 319.80 180.82 316.21 178.51 312.42 176.56 C 309.49 175.05 308.07 171.90 306.98 168.97 Z" fill="#68a442" opacity="1.00" stroke="#68a442" stroke-width="0.25" data-index="13"></path>
<path d="M 276.41 185.72 C 278.12 182.06 280.81 178.70 283.83 175.98 C 284.17 177.23 284.58 178.49 284.74 179.79 C 282.39 182.62 279.51 184.98 276.64 187.26 C 276.58 186.88 276.47 186.11 276.41 185.72 Z" fill="#629b5b" opacity="1.00" stroke="#629b5b" stroke-width="0.25" data-index="14"></path>
<path d="M 285.47 184.56 C 289.82 181.75 294.66 179.18 299.96 179.05 C 307.18 178.59 314.64 181.12 319.90 186.10 C 321.68 187.25 320.29 189.23 319.59 190.59 C 313.86 200.54 308.12 210.50 302.13 220.30 C 295.59 224.49 287.61 222.91 280.88 220.12 C 276.30 219.50 275.95 214.47 275.25 210.83 C 273.33 201.12 277.49 190.42 285.47 184.56 Z" fill="#92d73c" opacity="1.00" stroke="#92d73c" stroke-width="0.25" data-index="15"></path>
<path d="M 282.08 197.01 C 280.61 190.78 287.22 187.34 291.06 183.75 C 292.68 184.85 294.09 186.73 292.71 188.64 C 290.34 192.52 286.45 195.67 282.08 197.01 Z" fill="#caf1ac" opacity="1.00" stroke="#caf1ac" stroke-width="0.25" data-index="16"></path>
<path d="M 266.06 198.03 C 269.59 193.99 272.51 189.42 276.41 185.72 C 276.47 186.11 276.58 186.88 276.64 187.26 C 276.51 188.88 275.29 190.19 274.64 191.64 C 272.05 195.99 271.12 201.05 270.79 206.03 C 270.91 210.49 266.77 213.28 263.66 215.76 C 257.81 217.36 251.55 218.36 246.88 222.63 C 252.86 214.11 259.82 206.35 266.06 198.03 Z" fill="#6dac46" opacity="1.00" stroke="#6dac46" stroke-width="0.25" data-index="17"></path>
<path d="M 265.86 216.04 C 267.13 213.87 268.95 212.14 271.11 210.87 C 271.43 212.82 271.71 214.78 271.96 216.74 C 269.92 216.55 267.89 216.32 265.86 216.04 Z" fill="#62995c" opacity="1.00" stroke="#62995c" stroke-width="0.25" data-index="18"></path>
<path d="M 280.88 220.12 C 287.61 222.91 295.59 224.49 302.13 220.30 C 299.27 224.48 296.70 228.86 293.82 233.03 C 289.76 228.48 285.76 223.84 280.88 220.12 Z" fill="#68a844" opacity="1.00" stroke="#68a844" stroke-width="0.25" data-index="19"></path>
<path d="M 237.00 242.07 C 240.78 228.97 254.37 219.38 268.03 220.66 C 273.88 221.35 279.69 223.60 283.99 227.73 C 279.57 238.60 275.31 250.25 266.11 258.09 C 259.75 263.16 252.70 268.89 244.05 268.39 C 237.46 261.56 234.99 251.24 237.00 242.07 Z" fill="#92d73c" opacity="1.00" stroke="#92d73c" stroke-width="0.25" data-index="20"></path>
<path d="M 244.29 240.04 C 243.67 233.35 249.07 226.35 255.98 226.08 C 256.07 229.80 252.92 232.16 250.61 234.59 C 248.57 236.48 247.11 239.21 244.29 240.04 Z" fill="#c9f1ad" opacity="1.00" stroke="#c9f1ad" stroke-width="0.25" data-index="21"></path>
<path d="M 283.99 227.73 C 287.02 230.23 289.22 233.49 290.88 237.02 C 287.46 243.04 282.99 248.36 278.93 253.95 C 272.73 261.68 266.63 269.51 259.85 276.75 C 253.84 275.71 248.27 272.80 244.05 268.39 C 252.70 268.89 259.75 263.16 266.11 258.09 C 275.31 250.25 279.57 238.60 283.99 227.73 Z" fill="#6dac43" opacity="1.00" stroke="#6dac43" stroke-width="0.25" data-index="22"></path>
<path d="M 223.33 249.36 C 226.53 246.05 229.41 242.39 233.16 239.66 C 232.38 244.69 232.64 249.80 232.09 254.84 C 230.69 256.58 228.96 258.16 226.91 259.10 C 222.57 259.46 218.20 259.31 213.86 259.68 C 216.54 255.82 220.16 252.78 223.33 249.36 Z" fill="#6dac44" opacity="1.00" stroke="#6dac44" stroke-width="0.25" data-index="23"></path>
<path d="M 204.29 269.29 C 210.42 263.89 219.10 262.47 226.97 263.64 C 238.67 265.56 248.13 276.16 249.13 287.92 C 243.68 293.87 237.62 299.26 231.41 304.42 C 229.76 305.62 228.24 307.22 226.23 307.77 C 217.24 308.75 208.15 307.65 199.80 304.12 C 191.51 294.07 194.04 277.17 204.29 269.29 Z" fill="#92d83c" opacity="1.00" stroke="#92d83c" stroke-width="0.25" data-index="24"></path>
<path d="M 202.21 273.22 C 205.64 270.33 210.41 269.34 214.75 270.44 C 215.33 273.75 211.94 275.16 209.71 276.70 C 206.71 278.49 203.85 281.04 200.14 280.97 C 200.26 278.32 200.08 275.19 202.21 273.22 Z" fill="#ccf0ad" opacity="1.00" stroke="#ccf0ad" stroke-width="0.25" data-index="25"></path>
<path d="M 250.91 278.54 C 252.53 279.15 254.07 279.96 255.54 280.90 C 254.65 281.83 253.77 282.76 252.89 283.70 C 252.15 282.01 251.48 280.29 250.91 278.54 Z" fill="#5b9366" opacity="1.00" stroke="#5b9366" stroke-width="0.25" data-index="26"></path>
<path d="M 179.92 292.70 C 183.35 288.37 187.42 284.57 191.64 281.01 C 191.13 285.72 191.02 290.48 191.51 295.20 C 187.65 294.35 183.78 293.53 179.92 292.70 Z" fill="#6ba947" opacity="1.00" stroke="#6ba947" stroke-width="0.25" data-index="27"></path>
<path d="M 152.59 316.37 C 155.37 303.54 169.19 294.96 181.97 297.01 C 186.33 297.84 191.77 298.62 194.05 302.96 C 196.05 306.25 198.33 309.38 201.10 312.07 C 201.09 316.41 201.19 320.76 200.96 325.10 C 200.39 326.72 198.35 327.14 197.05 328.07 C 192.38 330.32 188.11 333.51 183.09 335.00 C 174.80 336.54 166.42 338.73 157.94 337.18 C 152.52 331.94 151.53 323.52 152.59 316.37 Z" fill="#92d73c" opacity="1.00" stroke="#92d73c" stroke-width="0.25" data-index="28"></path>
<path d="M 157.86 311.77 C 160.11 308.06 163.10 303.50 168.01 303.80 C 170.01 307.58 166.89 310.94 164.89 313.88 C 163.02 316.34 162.35 320.02 159.06 321.05 C 156.71 318.60 156.82 314.78 157.86 311.77 Z" fill="#cef1b2" opacity="1.00" stroke="#cef1b2" stroke-width="0.25" data-index="29"></path>
<path d="M 199.80 304.12 C 208.15 307.65 217.24 308.75 226.23 307.77 C 223.39 311.23 219.73 313.86 215.95 316.20 C 209.46 314.33 202.68 310.51 199.80 304.12 Z" fill="#6aaa41" opacity="1.00" stroke="#6aaa41" stroke-width="0.25" data-index="30"></path>
<path d="M 201.10 312.07 C 205.06 313.99 205.76 318.73 205.68 322.69 C 204.59 324.23 202.63 324.54 200.96 325.10 C 201.19 320.76 201.09 316.41 201.10 312.07 Z" fill="#63a140" opacity="1.00" stroke="#63a140" stroke-width="0.25" data-index="31"></path>
<path d="M 209.27 318.08 C 210.91 317.57 211.46 318.13 210.94 319.76 C 209.30 320.26 208.75 319.70 209.27 318.08 Z" fill="#548278" opacity="1.00" stroke="#548278" stroke-width="0.25" data-index="32"></path>
<path d="M 131.33 343.39 C 136.47 336.97 141.74 330.56 147.86 325.05 C 149.25 329.19 150.37 333.52 152.80 337.21 C 155.09 340.71 158.47 343.27 161.50 346.09 C 148.69 352.48 135.13 357.26 121.33 360.99 C 125.15 355.38 126.94 348.63 131.33 343.39 Z" fill="#6eb044" opacity="1.00" stroke="#6eb044" stroke-width="0.25" data-index="33" style="opacity: 1;"></path>
<path d="M 157.94 337.18 C 166.42 338.73 174.80 336.54 183.09 335.00 C 177.92 338.76 171.97 341.35 166.00 343.55 C 162.93 341.96 159.93 340.07 157.94 337.18 Z" fill="#68a846" opacity="1.00" stroke="#68a846" stroke-width="0.25" data-index="34"></path>
</svg>