<svg xmlns="http://www.w3.org/2000/svg" height="512pt" version="1.1" viewBox="0 0 512 512" width="512pt">

<path d="M 380.28 72.39 C 391.00 67.11 404.60 68.76 413.94 76.14 C 418.67 80.13 423.29 84.71 425.20 90.77 C 428.72 99.72 428.11 110.54 422.42 118.48 C 404.00 137.37 386.33 157.01 368.28 176.27 C 331.17 216.49 293.30 255.99 256.20 296.22 C 251.59 301.57 246.43 306.43 241.75 311.72 C 236.88 317.42 231.18 322.42 226.84 328.57 C 224.38 333.13 222.24 337.86 219.64 342.35 C 208.34 347.39 197.25 352.86 186.12 358.25 C 172.52 364.56 159.14 371.34 145.62 377.84 C 143.20 379.06 140.77 380.93 137.89 380.39 C 133.44 379.80 129.18 375.66 129.64 370.97 C 130.22 367.81 131.83 364.98 133.22 362.13 C 140.17 347.44 146.97 332.67 153.81 317.93 C 157.20 310.80 160.58 303.66 163.70 296.41 C 164.62 294.51 165.22 292.27 167.08 291.04 C 171.75 287.36 176.75 284.07 181.02 279.90 C 229.38 229.30 277.76 178.74 326.02 128.05 C 341.20 112.24 356.41 96.46 371.37 80.44 C 374.14 77.56 376.60 74.18 380.28 72.39 Z" fill="#053153" opacity="1.00" stroke="#053153" stroke-width="0.25" data-index="1" style="opacity: 1;"></path>
<path d="M 381.55 80.64 C 386.85 76.76 393.74 77.05 399.96 77.65 C 401.00 78.04 402.06 78.42 403.12 78.79 C 408.02 80.48 411.71 84.25 415.06 88.04 C 417.25 90.58 417.96 93.93 419.29 96.92 C 420.04 102.73 420.04 109.33 415.96 114.00 C 404.28 126.47 392.36 138.74 381.05 151.56 C 380.64 151.58 379.83 151.60 379.42 151.61 C 368.50 140.26 357.02 129.44 346.14 118.04 C 354.33 109.90 361.79 101.09 369.97 92.96 C 373.97 88.99 377.23 84.30 381.55 80.64 Z" fill="#f35a30" opacity="1.00" stroke="#f35a30" stroke-width="0.25" data-index="2"></path>

<path d="M 331.52 133.67 C 334.59 130.21 337.72 126.81 340.85 123.41 C 350.99 134.12 361.73 144.25 372.19 154.65 C 373.02 155.81 375.30 156.60 374.71 158.33 C 371.71 161.47 368.71 164.61 366.00 168.01 C 354.35 156.72 343.12 145.00 331.52 133.67 Z" fill="#feffff" opacity="1.00" stroke="#feffff" stroke-width="0.25" data-index="4"></path>
<path d="M 188.19 283.14 C 233.97 234.93 280.39 187.31 325.98 138.91 C 337.65 150.21 348.86 161.99 360.68 173.14 C 355.44 179.68 349.27 185.41 343.70 191.67 C 303.79 234.25 263.92 276.87 224.15 319.57 C 219.29 318.59 214.21 318.98 209.46 317.60 C 211.12 310.16 211.65 302.46 213.11 295.02 C 222.95 283.92 233.70 273.65 243.70 262.70 C 275.33 229.98 306.66 196.97 337.96 163.95 C 339.04 163.00 338.70 161.46 338.92 160.19 C 338.25 160.12 336.91 159.98 336.23 159.90 C 332.45 163.20 329.29 167.12 325.87 170.78 C 289.62 208.57 253.66 246.63 217.17 284.18 C 214.18 287.19 211.58 290.69 208.11 293.18 C 201.67 295.30 194.57 297.89 187.88 295.22 C 188.09 291.23 187.08 286.97 188.19 283.14 Z" fill="#87e6ff" opacity="1.00" stroke="#87e6ff" stroke-width="0.25" data-index="5" style="opacity: 1;"></path>

<path d="M 133.81 254.39 C 138.65 252.69 143.76 251.03 148.97 251.56 C 155.11 252.62 160.54 257.72 161.46 263.96 C 161.30 269.85 157.94 274.92 154.93 279.76 C 148.92 289.69 141.72 298.86 135.81 308.86 C 134.51 311.50 130.58 311.08 128.73 309.28 C 126.07 306.82 122.96 304.94 120.10 302.76 C 120.44 298.50 123.86 295.48 125.94 291.98 C 130.14 285.27 135.17 279.09 138.96 272.13 C 126.44 277.59 115.99 286.71 105.62 295.40 C 102.59 297.59 100.75 301.99 96.49 301.80 C 93.94 298.02 89.59 296.39 86.38 293.36 C 86.39 292.46 86.43 290.66 86.45 289.76 C 99.73 275.10 115.16 261.67 133.81 254.39 Z" fill="#9eebff" opacity="1.00" stroke="#9eebff" stroke-width="0.25" data-index="7" style="visibility: hidden; opacity: 1;"></path>

<path d="M 169.72 301.56 C 171.40 295.23 178.19 292.95 182.52 288.75 C 182.69 292.22 182.22 295.88 183.86 299.09 C 186.76 300.35 189.75 301.73 192.99 301.67 C 198.00 301.98 202.67 299.90 207.54 299.19 C 206.09 304.32 205.54 309.67 204.79 314.94 C 204.51 317.87 204.46 322.05 207.78 323.27 C 211.77 324.21 215.87 324.50 219.94 324.80 C 218.51 328.80 216.13 332.36 214.42 336.24 C 199.15 343.02 184.33 350.83 169.04 357.55 C 163.82 351.38 157.84 345.90 152.13 340.19 C 157.74 327.20 163.99 314.50 169.72 301.56 Z" fill="#fdbe9f" opacity="1.00" stroke="#fdbe9f" stroke-width="0.25" data-index="9"></path>

<path d="M 163.64 390.62 C 178.55 382.95 195.00 377.00 211.96 377.30 C 216.74 376.91 220.80 380.43 223.34 384.13 C 226.54 391.03 221.89 397.92 221.20 404.77 C 231.03 402.87 239.83 394.72 250.31 397.82 C 257.46 400.23 258.39 409.39 256.30 415.62 C 257.88 415.63 259.56 415.95 261.06 415.27 C 273.10 410.07 282.92 401.01 291.50 391.28 C 295.01 388.01 295.29 382.92 295.77 378.45 C 299.08 378.34 302.81 377.59 305.69 379.70 C 308.68 381.67 311.88 384.20 312.30 388.04 C 313.56 396.95 309.47 405.50 305.16 413.03 C 303.89 415.49 301.32 416.70 299.15 418.21 C 296.33 419.93 295.43 423.63 292.42 425.11 C 290.98 425.45 289.49 425.51 288.03 425.68 C 286.83 427.99 286.16 430.73 284.24 432.57 C 280.76 433.34 278.11 430.98 276.01 428.59 C 271.98 427.88 268.82 430.91 265.17 431.98 C 257.80 434.82 248.54 436.20 241.75 431.28 C 238.16 427.47 238.27 421.77 239.65 417.05 C 230.06 419.66 220.64 424.95 210.39 423.31 C 206.41 421.81 202.78 418.42 202.07 414.07 C 200.63 407.39 204.16 401.11 205.45 394.71 C 190.94 396.59 177.21 402.28 164.66 409.64 C 162.52 411.04 160.09 411.89 157.52 411.80 C 156.14 409.26 154.37 406.88 153.58 404.08 C 153.95 401.48 154.49 398.90 154.59 396.28 C 157.35 394.01 160.40 392.13 163.64 390.62 Z" fill="#9febff" opacity="1.00" stroke="#9febff" stroke-width="0.25" data-index="11" style="visibility: hidden; opacity: 1;"></path>
</svg>