<svg xmlns="http://www.w3.org/2000/svg" height="512pt" version="1.1" viewBox="0 0 512 512" width="512pt"><defs>
                <linearGradient id="grad-43" gradientTransform="rotate(221 0.5 0.5)">
                
                        <stop stop-color="#fb9fc8" offset="0"></stop>
                    ,
                        <stop stop-color="#fb9fc8" offset="0.1"></stop>
                    ,
                        <stop stop-color="#fb9fc8" offset="0.2"></stop>
                    ,
                        <stop stop-color="#fb9fc8" offset="0.3"></stop>
                    ,
                        <stop stop-color="#fb9fc8" offset="0.4"></stop>
                    ,
                        <stop stop-color="#fb9fc8" offset="0.5"></stop>
                    ,
                        <stop stop-color="#fb9fc8" offset="0.6"></stop>
                    ,
                        <stop stop-color="#fb9fc8" offset="0.7"></stop>
                    ,
                        <stop stop-color="#fb9fc8" offset="0.8"></stop>
                    ,
                        <stop stop-color="#fb9fc8" offset="0.9"></stop>
                    
                </linearGradient>
          </defs><defs>
                <linearGradient id="grad-42" gradientTransform="rotate(219 0.5 0.5)">
                
                        <stop stop-color="#fb9fc8" offset="0"></stop>
                    ,
                        <stop stop-color="#fb9fc8" offset="0.1111111111111111"></stop>
                    ,
                        <stop stop-color="#fb9fc8" offset="0.2222222222222222"></stop>
                    ,
                        <stop stop-color="#fb9fc8" offset="0.3333333333333333"></stop>
                    ,
                        <stop stop-color="#fb9fc8" offset="0.4444444444444444"></stop>
                    ,
                        <stop stop-color="#fb9fc8" offset="0.5555555555555556"></stop>
                    ,
                        <stop stop-color="#fb9fc8" offset="0.6666666666666666"></stop>
                    ,
                        <stop stop-color="#fb9fc8" offset="0.7777777777777778"></stop>
                    ,
                        <stop stop-color="#fb9fc8" offset="0.8888888888888888"></stop>
                    
                </linearGradient>
          </defs><defs>
                <linearGradient id="grad-41" gradientTransform="rotate(0 0.5 0.5)">
                
                        <stop stop-color="#fb9fc8" offset="0"></stop>
                    ,
                        <stop stop-color="#fb9fc8" offset="0.125"></stop>
                    ,
                        <stop stop-color="#fb9fc8" offset="0.25"></stop>
                    ,
                        <stop stop-color="#fb9fc8" offset="0.375"></stop>
                    ,
                        <stop stop-color="#fb9fc8" offset="0.5"></stop>
                    ,
                        <stop stop-color="#fb9fc8" offset="0.625"></stop>
                    ,
                        <stop stop-color="#fb9fc8" offset="0.75"></stop>
                    ,
                        <stop stop-color="#fb9fc8" offset="0.875"></stop>
                    
                </linearGradient>
          </defs>

<path d="M 160.45 71.40 C 176.14 73.55 190.24 81.45 204.81 87.14 C 205.76 83.61 203.79 74.72 209.91 75.11 C 224.92 80.62 237.24 91.89 252.70 96.33 C 277.56 109.22 301.17 124.31 325.03 138.87 C 333.11 148.39 341.64 157.53 349.79 166.99 C 355.76 167.58 353.82 176.43 358.57 179.42 C 363.16 190.71 369.46 202.68 367.27 215.29 C 363.95 221.88 358.98 230.82 350.69 230.89 C 344.69 235.80 346.36 245.84 353.93 248.06 C 360.94 250.34 361.72 258.24 365.78 263.14 C 371.85 262.64 372.98 270.40 370.17 274.55 C 375.92 275.68 371.12 283.55 373.61 287.38 C 378.94 287.02 384.43 288.95 387.00 293.87 C 380.43 301.34 384.97 311.68 391.15 317.81 C 392.88 319.92 396.06 321.65 394.98 324.87 C 389.00 329.67 381.05 327.72 374.01 328.04 C 360.11 331.73 376.53 308.75 362.98 312.04 C 356.36 313.60 350.58 307.60 344.10 309.97 C 336.60 312.45 328.56 312.73 321.07 315.19 C 321.60 317.67 324.20 322.55 319.65 322.39 C 312.94 324.10 310.32 332.67 311.74 338.96 C 311.36 344.77 299.76 338.65 302.52 345.37 C 301.69 347.62 295.25 342.66 294.57 346.60 C 293.77 349.76 298.60 351.50 298.07 354.84 C 292.16 358.55 285.24 359.94 279.00 362.95 C 272.16 365.93 265.64 361.04 258.99 359.85 C 251.26 353.56 241.18 356.63 232.58 352.82 C 221.02 350.69 212.45 339.88 200.90 339.00 C 204.49 344.94 212.87 347.40 218.92 351.22 C 220.11 354.49 216.32 354.52 214.08 354.96 C 209.68 352.16 206.29 347.73 201.13 346.10 C 200.33 347.23 197.61 349.03 199.96 350.03 C 211.48 356.95 223.19 363.55 234.82 370.31 C 240.27 373.74 246.00 376.84 251.03 380.90 C 254.82 386.48 270.51 390.69 262.55 398.76 C 247.99 399.17 235.29 391.44 222.81 385.31 C 210.87 384.39 201.60 375.25 189.89 373.99 C 172.06 364.75 154.30 355.34 136.24 346.59 C 121.03 337.58 104.79 331.00 89.36 322.59 C 78.37 315.52 64.28 311.61 56.01 301.13 C 58.65 301.67 58.86 300.17 58.21 298.02 C 64.81 299.16 70.72 302.57 77.17 304.11 C 73.43 301.77 72.19 297.48 69.09 294.78 C 71.83 291.56 69.77 288.28 66.13 287.07 C 62.73 287.32 65.18 282.43 61.90 282.16 C 56.20 280.06 56.51 271.94 50.96 269.01 C 47.85 267.12 44.10 266.68 41.01 264.81 C 40.45 257.54 43.90 243.68 54.11 248.85 C 62.20 254.02 73.51 255.67 80.09 262.29 C 76.17 266.44 72.00 270.34 68.00 274.42 C 75.06 278.59 84.12 280.33 89.95 286.14 C 90.42 291.19 84.08 287.83 81.08 287.51 C 78.54 289.75 76.02 292.08 73.99 294.80 C 79.52 296.48 77.95 306.37 86.64 304.43 C 91.99 313.36 98.00 329.23 111.62 327.14 C 111.77 328.31 111.15 330.00 112.85 330.18 C 117.61 331.89 121.36 336.98 126.82 335.17 C 126.78 336.59 126.58 338.01 126.59 339.44 C 138.51 340.11 147.74 350.49 158.82 353.77 C 161.52 351.31 163.54 353.02 165.39 355.46 C 169.40 353.82 174.19 351.49 175.56 357.37 C 173.98 363.03 181.68 363.20 185.62 361.81 C 190.80 357.91 192.93 366.42 198.25 364.00 C 197.80 360.46 185.78 359.63 197.93 360.19 C 201.04 359.72 206.22 362.51 207.93 359.14 C 199.99 351.82 190.04 347.15 181.76 340.28 C 179.42 339.48 179.89 337.01 180.13 335.23 C 183.84 332.42 187.15 337.27 191.04 337.13 C 191.50 334.03 187.50 333.87 185.55 332.53 C 176.00 327.52 164.10 323.52 160.80 312.16 C 180.80 318.67 197.73 332.18 216.52 341.54 C 220.61 345.00 226.36 346.95 231.50 344.51 C 234.54 341.16 239.71 344.28 241.45 339.21 C 249.55 339.60 259.99 336.88 265.82 343.85 C 269.52 339.57 271.91 350.77 277.03 347.07 C 289.75 344.63 295.37 330.25 289.56 318.69 C 297.42 305.59 312.86 289.24 329.90 295.01 C 330.45 291.22 331.87 288.05 335.38 286.37 C 332.52 278.77 344.61 281.36 340.93 274.00 C 337.85 266.52 349.16 258.85 341.20 252.82 C 329.47 240.78 338.98 221.64 351.79 214.62 C 352.71 204.67 351.35 191.37 341.29 186.66 C 338.45 185.05 340.36 179.55 336.33 179.73 C 331.17 179.62 325.32 178.16 322.25 173.67 C 320.40 166.23 324.37 158.91 322.62 151.49 C 323.56 144.22 315.04 142.49 313.43 136.45 C 312.14 133.30 307.68 132.47 305.19 134.70 C 305.70 130.23 300.95 129.10 297.87 127.16 C 285.96 120.32 276.40 109.42 263.35 104.63 C 255.67 105.05 245.10 99.73 240.21 108.24 C 239.62 111.01 244.11 111.09 244.15 113.84 C 242.51 113.78 240.89 113.58 239.26 113.56 C 239.89 115.78 244.94 117.36 241.94 119.75 C 238.89 119.00 235.82 118.06 233.14 116.41 C 233.80 113.57 231.21 110.69 233.79 108.30 C 210.60 96.61 187.86 82.31 162.32 76.50 C 160.32 75.08 158.28 79.47 157.23 76.75 C 156.83 74.66 159.47 73.15 160.45 71.40 Z" fill="#fbb8d6" opacity="1.00" stroke="#fbb8d6" stroke-width="0.25" data-index="1" style="opacity: 1; visibility: visible; fill: rgb(251, 159, 200); display: none;"></path>

<path d="M 324.11 81.00 C 325.72 82.52 326.51 92.40 320.92 91.99 C 322.33 88.41 324.32 85.05 324.11 81.00 Z" fill="#a6dcee" opacity="1.00" stroke="#a6dcee" stroke-width="0.25" data-index="3" style="visibility: hidden; opacity: 1;"></path>
<path d="M 117.18 82.05 C 122.10 83.43 127.43 80.59 131.61 84.43 C 145.25 90.53 158.41 97.72 171.99 104.02 C 173.33 104.07 180.70 108.57 178.19 103.89 C 181.52 105.30 184.84 105.16 185.86 101.17 C 180.75 97.88 178.44 93.56 180.22 88.05 C 185.00 87.05 189.64 94.94 193.09 90.18 C 207.16 97.66 219.61 107.96 233.14 116.41 C 235.82 118.06 238.89 119.00 241.94 119.75 C 244.94 117.36 239.89 115.78 239.26 113.56 C 240.89 113.58 242.51 113.78 244.15 113.84 C 244.11 111.09 239.62 111.01 240.21 108.24 C 245.10 99.73 255.67 105.05 263.35 104.63 C 276.40 109.42 285.96 120.32 297.87 127.16 C 300.95 129.10 305.70 130.23 305.19 134.70 C 307.68 132.47 312.14 133.30 313.43 136.45 C 315.04 142.49 323.56 144.22 322.62 151.49 C 324.37 158.91 320.40 166.23 322.25 173.67 C 325.32 178.16 331.17 179.62 336.33 179.73 C 340.36 179.55 338.45 185.05 341.29 186.66 C 351.35 191.37 352.71 204.67 351.79 214.62 C 338.98 221.64 329.47 240.78 341.20 252.82 C 349.16 258.85 337.85 266.52 340.93 274.00 C 344.61 281.36 332.52 278.77 335.38 286.37 C 331.87 288.05 330.45 291.22 329.90 295.01 C 312.86 289.24 297.42 305.59 289.56 318.69 C 295.37 330.25 289.75 344.63 277.03 347.07 C 271.91 350.77 269.52 339.57 265.82 343.85 C 259.99 336.88 249.55 339.60 241.45 339.21 C 239.71 344.28 234.54 341.16 231.50 344.51 C 226.36 346.95 220.61 345.00 216.52 341.54 C 197.73 332.18 180.80 318.67 160.80 312.16 C 164.10 323.52 176.00 327.52 185.55 332.53 C 187.50 333.87 191.50 334.03 191.04 337.13 C 187.15 337.27 183.84 332.42 180.13 335.23 C 179.89 337.01 179.42 339.48 181.76 340.28 C 190.04 347.15 199.99 351.82 207.93 359.14 C 206.22 362.51 201.04 359.72 197.93 360.19 C 185.78 359.63 197.80 360.46 198.25 364.00 C 192.93 366.42 190.80 357.91 185.62 361.81 C 181.68 363.20 173.98 363.03 175.56 357.37 C 174.19 351.49 169.40 353.82 165.39 355.46 C 163.54 353.02 161.52 351.31 158.82 353.77 C 147.74 350.49 138.51 340.11 126.59 339.44 C 126.58 338.01 126.78 336.59 126.82 335.17 C 121.36 336.98 117.61 331.89 112.85 330.18 C 111.15 330.00 111.77 328.31 111.62 327.14 C 98.00 329.23 91.99 313.36 86.64 304.43 C 77.95 306.37 79.52 296.48 73.99 294.80 C 76.02 292.08 78.54 289.75 81.08 287.51 C 84.08 287.83 90.42 291.19 89.95 286.14 C 84.12 280.33 75.06 278.59 68.00 274.42 C 72.00 270.34 76.17 266.44 80.09 262.29 L 80.58 262.25 C 84.74 268.76 92.34 260.74 85.21 258.84 C 80.14 256.80 69.77 252.10 74.86 245.92 C 72.58 241.40 77.48 238.03 77.79 234.34 C 73.20 232.09 69.27 228.86 65.31 225.68 C 62.09 222.35 66.89 218.91 65.58 215.19 C 65.05 211.62 70.38 211.42 69.91 208.19 C 65.67 204.55 59.75 203.31 55.82 199.20 C 60.95 200.47 58.88 196.16 60.20 193.03 C 65.40 192.13 76.33 202.66 72.02 190.97 C 73.79 187.47 75.54 183.25 78.25 180.11 C 82.41 178.99 85.30 182.33 89.01 183.11 C 88.40 180.27 88.14 177.17 86.29 174.83 C 83.36 170.18 76.51 169.95 73.80 164.99 C 77.40 160.96 81.11 156.99 85.16 153.41 C 88.05 154.36 92.00 157.91 94.35 154.29 C 96.63 150.67 89.63 147.63 92.39 143.43 C 94.95 138.59 97.43 133.71 99.95 128.87 C 101.14 120.25 86.94 119.87 90.10 111.12 C 90.54 108.14 92.80 103.22 96.53 105.52 C 99.97 108.07 108.46 110.19 107.08 103.14 C 107.78 100.13 106.25 95.22 110.07 94.05 C 115.65 92.43 114.31 85.91 117.18 82.05 Z" fill="#fcaed1" opacity="1.00" stroke="#fcaed1" stroke-width="0.25" data-index="4" style="opacity: 1; visibility: visible; fill: rgb(251, 159, 200); display: none;"></path>

<path d="M 396.29 87.32 C 400.48 86.52 403.94 91.25 401.36 95.33 C 394.51 107.45 384.93 118.67 373.04 126.07 C 368.98 129.32 363.69 122.39 366.61 118.66 C 374.28 106.35 382.32 93.15 396.29 87.32 Z" fill="#3db9e4" opacity="1.00" stroke="#3db9e4" stroke-width="0.25" data-index="6" style="opacity: 1; visibility: hidden;"></path>
<path d="M 252.70 96.33 C 268.13 94.44 278.51 109.68 291.91 115.15 C 302.71 124.24 317.20 129.02 326.97 139.15 C 326.49 139.08 325.52 138.94 325.03 138.87 C 301.17 124.31 277.56 109.22 252.70 96.33 Z" fill="#fdecf5" opacity="1.00" stroke="#fdecf5" stroke-width="0.25" data-index="7"></path>

<path d="M 193.19 101.17 C 198.03 101.44 203.14 101.59 207.00 104.95 C 210.04 105.45 209.84 110.72 206.68 110.71 C 202.80 112.89 202.86 104.34 198.97 107.93 C 191.82 111.47 200.53 116.51 203.78 119.31 C 206.27 123.83 198.67 123.66 200.03 127.82 C 202.56 129.79 206.49 128.64 208.71 131.27 C 213.01 135.96 220.81 128.74 224.82 134.12 C 230.55 135.04 237.93 136.14 241.30 141.71 C 243.28 144.86 249.23 141.86 250.38 145.68 C 251.93 150.94 256.28 154.45 259.04 158.94 C 264.84 160.33 263.86 166.62 266.30 170.73 C 272.72 176.51 274.81 185.41 279.67 192.35 C 278.67 207.80 284.36 223.17 281.34 238.33 C 278.06 244.14 277.79 250.87 272.44 255.37 C 272.85 264.89 264.40 270.48 258.36 276.31 C 252.04 288.43 237.96 293.41 227.61 301.64 C 223.05 303.55 217.18 302.83 214.73 307.85 C 200.01 307.29 184.77 310.22 170.50 305.62 C 169.31 298.81 160.96 301.31 157.65 296.38 C 147.25 295.28 140.41 286.50 131.70 281.30 C 127.55 279.20 128.49 273.45 124.36 271.59 C 119.53 268.41 119.46 261.60 114.76 258.28 C 106.82 251.51 111.34 237.74 101.33 232.70 C 92.87 231.64 84.86 228.08 76.25 227.77 C 72.61 223.24 65.67 216.71 70.82 210.81 C 75.37 204.90 63.51 203.70 62.25 199.19 C 65.21 193.57 71.26 201.91 74.86 197.83 C 73.86 195.10 74.00 192.18 76.21 190.06 C 82.18 188.31 87.45 193.78 92.89 190.05 C 97.41 194.18 109.78 192.47 105.06 183.94 C 103.76 180.42 112.07 177.33 106.85 175.16 C 104.34 168.97 107.77 159.86 102.53 154.49 C 102.09 147.59 109.08 140.57 116.88 143.06 C 122.12 147.71 129.61 149.55 133.24 155.88 C 138.34 155.05 144.26 152.85 147.64 148.65 C 151.04 141.48 151.21 133.21 154.16 126.13 C 158.93 118.92 168.23 123.66 173.72 118.73 C 173.59 115.66 174.15 112.42 176.20 110.06 C 180.12 108.68 183.03 112.93 186.78 111.87 C 189.61 108.78 191.22 104.82 193.19 101.17 Z" fill="#fba6cd" opacity="1.00" stroke="#fba6cd" stroke-width="0.25" data-index="9" style="opacity: 1; visibility: visible; fill: rgb(251, 159, 200); display: none;"></path>
<path d="M 90.30 103.31 C 93.95 97.98 100.72 109.66 103.87 103.92 C 104.59 102.98 106.06 103.44 107.08 103.14 C 108.46 110.19 99.97 108.07 96.53 105.52 C 92.80 103.22 90.54 108.14 90.10 111.12 C 86.94 119.87 101.14 120.25 99.95 128.87 C 97.43 133.71 94.95 138.59 92.39 143.43 C 89.63 147.63 96.63 150.67 94.35 154.29 C 92.00 157.91 88.05 154.36 85.16 153.41 C 81.11 156.99 77.40 160.96 73.80 164.99 C 76.51 169.95 83.36 170.18 86.29 174.83 C 81.18 174.66 76.83 170.91 72.39 168.58 C 69.05 163.13 73.83 157.59 75.32 152.32 C 77.60 147.44 82.94 152.01 86.58 151.77 C 86.80 147.79 92.43 154.58 90.85 150.15 C 86.62 145.16 92.01 139.43 92.99 134.16 C 90.80 131.64 85.05 132.71 84.98 128.94 C 88.62 128.60 91.19 132.35 94.80 131.94 C 98.18 126.89 95.69 119.50 89.27 119.66 C 87.04 114.70 88.07 108.16 90.30 103.31 Z" fill="#f6bdd7" opacity="1.00" stroke="#f6bdd7" stroke-width="0.25" data-index="10" style="opacity: 1; visibility: visible; fill: rgb(251, 159, 200); display: none;"></path>

<path d="M 168.35 133.34 C 178.81 141.84 194.00 138.41 206.00 143.13 C 218.54 142.26 228.31 150.75 238.44 156.53 C 248.67 167.34 262.62 177.34 265.20 192.72 C 266.76 198.16 265.52 204.43 268.41 209.49 C 271.69 219.96 265.59 226.82 266.59 237.61 C 263.01 245.20 260.54 253.28 256.68 260.73 C 253.98 265.91 247.02 268.60 246.69 274.85 C 239.21 278.29 232.87 283.75 225.46 287.36 C 223.86 294.42 214.61 291.87 209.28 291.81 C 206.18 285.93 197.44 290.30 192.21 289.07 C 192.92 297.20 182.02 292.47 177.30 292.72 C 164.48 293.10 157.30 280.09 145.35 277.58 C 142.72 271.09 136.30 267.27 134.68 260.31 C 123.87 251.34 122.70 234.86 111.46 225.54 C 106.26 224.24 109.94 217.99 106.37 215.40 C 104.08 212.17 107.55 202.45 111.89 206.80 C 118.49 201.52 122.98 193.91 120.21 185.28 C 129.33 182.15 126.55 170.49 135.31 167.35 C 144.52 165.66 158.66 158.67 155.10 147.09 C 157.29 140.92 160.16 132.13 168.35 133.34 Z" fill="#fb9fc8" opacity="1.00" stroke="#fb9fc8" stroke-width="0.25" data-index="12" style="opacity: 1; visibility: visible; fill: rgb(251, 159, 200); display: none;"></path>
<path d="M 325.03 138.87 C 325.52 138.94 326.49 139.08 326.97 139.15 C 332.98 142.23 339.34 145.04 344.73 149.17 C 351.32 156.74 363.44 158.44 367.49 168.25 C 367.22 172.51 369.07 176.28 372.69 178.34 C 385.06 192.94 386.43 213.71 382.72 231.74 C 381.32 237.56 374.40 240.21 376.01 246.79 C 378.03 247.94 380.30 248.56 382.33 249.70 C 380.78 254.63 383.56 258.63 388.03 259.97 C 392.23 265.72 398.32 270.30 401.91 276.36 C 404.60 277.10 402.75 281.12 400.70 281.72 C 394.78 285.12 399.89 294.45 392.85 296.85 C 390.56 298.61 394.05 300.39 395.49 301.28 C 399.42 305.64 411.86 306.31 409.01 313.96 C 410.26 317.32 414.43 318.56 416.97 320.97 C 422.47 326.63 429.39 333.75 425.07 342.02 C 427.38 347.56 430.42 356.80 422.03 359.02 C 416.98 362.57 412.70 355.35 407.35 357.18 C 401.54 363.96 394.94 373.02 385.01 373.02 C 379.96 371.81 377.81 376.94 373.77 378.48 C 362.91 376.93 354.72 368.66 344.32 365.77 C 342.03 364.96 338.71 365.78 337.82 363.14 C 336.76 358.16 326.92 363.16 328.59 357.21 C 325.98 355.49 324.38 355.82 325.66 359.12 C 315.92 356.11 307.65 349.60 297.84 346.95 C 302.17 355.34 314.30 355.61 320.90 361.99 C 328.21 365.89 334.00 371.98 340.83 376.47 C 341.61 377.27 342.50 377.97 343.62 378.21 C 346.60 379.99 349.67 381.68 352.26 384.02 C 351.07 387.18 347.39 385.95 345.10 384.86 C 336.59 380.18 328.49 374.76 320.15 369.83 C 318.43 369.16 313.84 367.60 315.05 370.97 C 320.09 378.51 330.37 379.86 336.82 386.12 C 341.96 390.20 348.93 392.00 353.19 397.11 C 342.05 393.59 330.05 392.25 318.55 392.09 C 302.44 385.69 288.11 375.66 272.13 368.83 C 268.02 365.76 260.64 365.38 258.99 359.85 C 265.64 361.04 272.16 365.93 279.00 362.95 C 285.24 359.94 292.16 358.55 298.07 354.84 C 298.60 351.50 293.77 349.76 294.57 346.60 C 295.25 342.66 301.69 347.62 302.52 345.37 C 299.76 338.65 311.36 344.77 311.74 338.96 C 310.32 332.67 312.94 324.10 319.65 322.39 C 324.20 322.55 321.60 317.67 321.07 315.19 C 328.56 312.73 336.60 312.45 344.10 309.97 C 350.58 307.60 356.36 313.60 362.98 312.04 C 376.53 308.75 360.11 331.73 374.01 328.04 C 381.05 327.72 389.00 329.67 394.98 324.87 C 396.06 321.65 392.88 319.92 391.15 317.81 C 384.97 311.68 380.43 301.34 387.00 293.87 C 384.43 288.95 378.94 287.02 373.61 287.38 C 371.12 283.55 375.92 275.68 370.17 274.55 C 372.98 270.40 371.85 262.64 365.78 263.14 C 361.72 258.24 360.94 250.34 353.93 248.06 C 346.36 245.84 344.69 235.80 350.69 230.89 C 358.98 230.82 363.95 221.88 367.27 215.29 C 369.46 202.68 363.16 190.71 358.57 179.42 C 353.82 176.43 355.76 167.58 349.79 166.99 C 341.64 157.53 333.11 148.39 325.03 138.87 Z" fill="#fcc4dd" opacity="1.00" stroke="#fcc4dd" stroke-width="0.25" data-index="13" style="opacity: 1; visibility: visible; fill: rgb(251, 159, 200); display: none;"></path>
<path d="M 362.81 145.10 C 365.20 146.62 370.35 146.43 370.02 150.09 C 367.29 149.32 363.79 147.96 362.81 145.10 Z" fill="#fcf8fb" opacity="1.00" stroke="#fcf8fb" stroke-width="0.25" data-index="14"></path>
<path d="M 344.73 149.17 C 371.88 161.03 397.79 177.37 420.86 196.27 C 421.58 201.07 422.19 209.04 413.99 206.15 C 414.21 213.08 423.85 213.49 427.94 217.98 C 431.36 221.55 436.56 223.95 438.09 228.98 C 440.92 234.81 430.94 232.87 427.94 231.14 C 419.90 229.54 410.00 222.77 402.02 228.21 C 402.26 232.71 406.04 239.06 401.59 242.64 C 398.90 249.84 413.16 250.91 411.27 258.88 C 412.57 265.84 421.55 267.34 424.31 272.78 C 423.45 279.13 433.39 279.38 431.02 286.04 C 421.25 289.09 415.58 280.68 407.97 277.03 C 405.34 279.06 406.56 284.50 404.79 287.75 C 400.54 290.07 400.82 294.11 403.01 297.85 C 399.61 297.56 396.24 297.07 392.85 296.85 C 399.89 294.45 394.78 285.12 400.70 281.72 C 402.75 281.12 404.60 277.10 401.91 276.36 C 398.32 270.30 392.23 265.72 388.03 259.97 C 383.56 258.63 380.78 254.63 382.33 249.70 C 380.30 248.56 378.03 247.94 376.01 246.79 C 374.40 240.21 381.32 237.56 382.72 231.74 C 386.43 213.71 385.06 192.94 372.69 178.34 C 369.07 176.28 367.22 172.51 367.49 168.25 C 363.44 158.44 351.32 156.74 344.73 149.17 Z" fill="#fccfe4" opacity="1.00" stroke="#fccfe4" stroke-width="0.25" data-index="15" style="opacity: 1; visibility: visible; fill: rgb(251, 159, 200); display: none;"></path>
<path d="M 207.31 181.22 C 211.95 185.87 215.03 192.52 222.75 192.21 C 221.24 196.68 224.95 201.78 229.94 200.13 C 233.70 201.00 232.94 205.85 234.61 208.69 C 229.31 210.66 233.16 217.70 231.97 221.98 C 229.69 226.72 227.93 234.73 231.82 239.03 C 230.13 240.48 227.14 244.12 225.91 241.11 C 223.44 243.44 221.34 247.98 217.20 249.21 C 215.19 256.29 208.11 260.21 201.25 257.12 C 198.38 262.91 190.86 261.38 185.45 260.62 C 183.75 257.41 181.09 255.62 177.08 257.00 C 179.84 262.50 171.21 260.54 172.46 256.35 C 175.26 248.31 162.78 249.09 160.92 242.53 C 155.86 243.05 160.18 236.17 158.23 233.80 C 152.67 229.23 159.31 219.78 153.78 215.19 C 146.80 206.05 162.90 210.18 158.99 201.99 C 157.52 195.51 160.71 190.29 165.91 186.87 C 173.59 178.29 184.49 186.58 194.00 182.99 C 198.04 181.43 205.78 187.32 207.31 181.22 Z" fill="#fa98c6" opacity="1.00" stroke="#fa98c6" stroke-width="0.25" data-index="16" style="opacity: 1; visibility: visible; fill: rgb(251, 159, 200); stroke: rgb(251, 159, 200); display: none;"></path>
<path d="M 427.94 217.98 C 432.23 219.06 435.53 222.48 439.59 224.29 C 441.68 229.49 444.58 234.38 445.96 239.85 C 438.71 242.94 431.46 233.74 424.16 232.47 C 419.09 235.19 414.27 228.89 408.91 229.98 C 408.08 237.84 418.57 236.12 420.08 242.84 C 409.08 241.29 419.83 250.35 418.73 254.88 C 421.16 257.67 423.34 260.69 423.63 264.60 C 427.15 270.04 433.18 272.87 437.89 277.06 C 441.20 280.46 443.18 285.55 447.98 287.16 C 451.84 288.34 451.73 293.37 451.81 296.54 C 448.64 297.20 446.02 301.11 442.63 299.47 C 436.54 297.51 432.36 292.12 426.27 290.19 C 425.89 291.49 425.67 292.88 424.85 294.00 C 418.59 293.14 414.25 288.18 409.83 284.17 C 407.00 283.94 407.57 287.67 405.76 287.82 L 404.79 287.75 C 406.56 284.50 405.34 279.06 407.97 277.03 C 415.58 280.68 421.25 289.09 431.02 286.04 C 433.39 279.38 423.45 279.13 424.31 272.78 C 421.55 267.34 412.57 265.84 411.27 258.88 C 413.16 250.91 398.90 249.84 401.59 242.64 C 406.04 239.06 402.26 232.71 402.02 228.21 C 410.00 222.77 419.90 229.54 427.94 231.14 C 430.94 232.87 440.92 234.81 438.09 228.98 C 436.56 223.95 431.36 221.55 427.94 217.98 Z" fill="#fbddec" opacity="1.00" stroke="#fbddec" stroke-width="0.25" data-index="17" style="visibility: visible; fill: rgb(251, 159, 200); opacity: 1; stroke: rgb(251, 159, 200); display: none;"></path>
<path d="M 439.59 224.29 C 443.05 224.69 444.40 228.77 445.44 231.65 C 446.83 236.27 453.17 238.55 452.01 244.00 C 443.03 245.96 436.26 237.63 427.33 238.58 C 425.42 238.38 420.06 235.00 421.20 238.78 C 425.67 244.72 435.33 247.28 438.01 254.00 C 434.09 257.65 428.02 249.79 422.97 249.98 C 422.98 253.96 440.21 261.51 426.01 260.11 C 426.79 272.02 444.92 275.31 447.98 287.16 C 443.18 285.55 441.20 280.46 437.89 277.06 C 433.18 272.87 427.15 270.04 423.63 264.60 C 423.34 260.69 421.16 257.67 418.73 254.88 C 419.83 250.35 409.08 241.29 420.08 242.84 C 418.57 236.12 408.08 237.84 408.91 229.98 C 414.27 228.89 419.09 235.19 424.16 232.47 C 431.46 233.74 438.71 242.94 445.96 239.85 C 444.58 234.38 441.68 229.49 439.59 224.29 Z" fill="#fbedf5" opacity="1.00" stroke="#fbedf5" stroke-width="0.25" data-index="18" style="opacity: 1; visibility: visible; fill: rgb(251, 159, 200); stroke: rgb(251, 159, 200);"></path>
<path d="M 85.21 258.84 C 92.34 260.74 84.74 268.76 80.58 262.25 C 83.50 263.83 87.40 262.50 85.21 258.84 Z" fill="#fac5de" opacity="1.00" stroke="#fac5de" stroke-width="0.25" data-index="19"></path>
<path d="M 66.13 287.07 C 69.77 288.28 71.83 291.56 69.09 294.78 C 72.19 297.48 73.43 301.77 77.17 304.11 C 70.72 302.57 64.81 299.16 58.21 298.02 C 58.86 300.17 58.65 301.67 56.01 301.13 C 56.00 298.88 56.60 296.79 58.67 295.63 C 54.16 284.44 70.84 295.95 66.13 287.07 Z" fill="#f9e3f0" opacity="1.00" stroke="#f9e3f0" stroke-width="0.25" data-index="20" style="opacity: 1; visibility: visible; fill: rgb(251, 159, 200); display: none;"></path>
<path d="M 403.01 297.85 C 400.82 294.11 400.54 290.07 404.79 287.75 L 405.76 287.82 C 405.57 289.85 402.64 290.72 403.04 292.91 C 408.11 299.72 421.04 302.11 423.04 311.00 C 413.99 310.04 406.71 302.26 398.92 298.04 C 396.66 297.18 396.39 299.92 395.49 301.28 C 394.05 300.39 390.56 298.61 392.85 296.85 C 396.24 297.07 399.61 297.56 403.01 297.85 Z" fill="#fae6ef" opacity="1.00" stroke="#fae6ef" stroke-width="0.25" data-index="21" style="opacity: 1; visibility: visible; fill: rgb(251, 159, 200);"></path>
<path d="M 416.97 320.97 C 424.45 322.20 425.11 329.93 430.74 333.19 C 431.38 336.42 432.98 339.43 433.36 342.70 C 432.80 349.79 441.04 352.31 444.66 357.26 C 445.61 359.64 441.36 358.85 441.17 361.15 C 437.05 368.47 427.09 354.99 423.87 362.84 C 423.20 363.82 423.46 365.77 422.05 366.04 C 418.52 367.42 415.24 365.94 411.90 364.88 C 412.67 370.12 417.28 373.81 418.84 378.84 C 413.32 382.89 405.28 384.03 403.73 391.93 C 400.01 392.47 395.74 390.04 392.50 392.55 C 382.79 394.08 375.28 385.29 366.01 383.94 C 359.39 383.08 355.16 377.17 349.10 374.87 C 338.90 370.50 330.37 362.79 319.92 359.08 C 320.22 360.05 320.55 361.02 320.90 361.99 C 314.30 355.61 302.17 355.34 297.84 346.95 C 307.65 349.60 315.92 356.11 325.66 359.12 C 324.38 355.82 325.98 355.49 328.59 357.21 C 326.92 363.16 336.76 358.16 337.82 363.14 C 338.71 365.78 342.03 364.96 344.32 365.77 C 354.72 368.66 362.91 376.93 373.77 378.48 C 377.81 376.94 379.96 371.81 385.01 373.02 C 394.94 373.02 401.54 363.96 407.35 357.18 C 412.70 355.35 416.98 362.57 422.03 359.02 C 430.42 356.80 427.38 347.56 425.07 342.02 C 429.39 333.75 422.47 326.63 416.97 320.97 Z" fill="#fbd6e8" opacity="1.00" stroke="#fbd6e8" stroke-width="0.25" data-index="22" style="visibility: visible; fill: rgb(251, 159, 200); opacity: 1; stroke: rgb(251, 159, 200);"></path>
<path d="M 159.95 321.95 C 162.36 321.94 166.38 322.94 166.04 326.00 C 163.28 326.69 159.81 325.13 159.95 321.95 Z" fill="#fcb4d4" opacity="1.00" stroke="#fcb4d4" stroke-width="0.25" data-index="23" style="visibility: visible; fill: rgb(251, 159, 200); stroke: rgb(251, 159, 200); opacity: 1;"></path>
<path d="M 174.76 322.07 C 178.81 321.35 192.13 325.98 186.84 330.92 C 182.58 328.36 178.10 325.81 174.76 322.07 Z" fill="#fcdaee" opacity="1.00" stroke="#fcdaee" stroke-width="0.25" data-index="24" style="opacity: 1; visibility: visible; fill: rgb(251, 159, 200); stroke: rgb(251, 159, 200);"></path>
<path d="M 430.74 333.19 C 436.54 333.95 435.84 343.43 440.04 346.94 C 448.93 351.79 452.74 361.52 459.01 369.01 C 455.87 378.92 446.89 364.51 439.98 366.94 C 434.03 367.72 429.71 361.26 423.87 362.84 C 427.09 354.99 437.05 368.47 441.17 361.15 C 441.36 358.85 445.61 359.64 444.66 357.26 C 441.04 352.31 432.80 349.79 433.36 342.70 C 432.98 339.43 431.38 336.42 430.74 333.19 Z" fill="#fcebf3" opacity="1.00" stroke="#fcebf3" stroke-width="0.25" data-index="25" style="visibility: visible; fill: rgb(251, 159, 200); stroke: rgb(251, 159, 200); opacity: 1;"></path>
<path d="M 200.90 339.00 C 212.45 339.88 221.02 350.69 232.58 352.82 C 232.99 353.31 233.81 354.29 234.22 354.78 C 229.45 352.19 224.12 358.53 230.79 360.21 C 228.89 364.40 233.51 366.80 234.82 370.31 C 223.19 363.55 211.48 356.95 199.96 350.03 C 197.61 349.03 200.33 347.23 201.13 346.10 C 206.29 347.73 209.68 352.16 214.08 354.96 C 216.32 354.52 220.11 354.49 218.92 351.22 C 212.87 347.40 204.49 344.94 200.90 339.00 Z" fill="#fae0ef" opacity="1.00" stroke="#fae0ef" stroke-width="0.25" data-index="26" style="opacity: 1; visibility: visible; fill: rgb(251, 159, 200); stroke: rgb(251, 159, 200);"></path>
<path d="M 104.18 344.11 C 112.69 344.29 119.65 350.85 127.68 353.31 C 142.66 358.42 156.53 365.99 170.25 373.81 C 180.39 379.45 192.21 383.15 200.02 392.08 C 171.90 377.01 142.07 363.82 112.29 351.73 C 109.28 349.48 100.93 349.56 104.18 344.11 Z" fill="#f4c3d9" opacity="1.00" stroke="#f4c3d9" stroke-width="0.25" data-index="27" style="opacity: 1; visibility: visible; fill: rgb(251, 159, 200); stroke: rgb(251, 159, 200);"></path>
<path d="M 136.24 346.59 C 154.30 355.34 172.06 364.75 189.89 373.99 C 200.25 380.76 212.53 383.41 223.00 389.94 C 218.12 395.45 226.34 395.97 230.58 397.44 C 236.27 401.96 243.86 403.80 248.83 409.25 C 249.35 410.40 248.38 412.24 247.03 411.86 C 240.20 410.23 234.84 405.19 228.31 403.00 C 228.43 406.91 223.92 407.93 220.99 409.02 C 214.49 407.31 208.45 404.04 202.13 401.72 C 201.04 398.89 204.06 398.56 205.97 397.71 C 204.16 395.67 201.36 394.60 200.02 392.08 C 192.21 383.15 180.39 379.45 170.25 373.81 C 156.53 365.99 142.66 358.42 127.68 353.31 C 130.95 351.60 136.64 356.65 137.59 351.52 C 140.33 350.22 136.02 348.53 136.24 346.59 Z" fill="#fbf2f8" opacity="1.00" stroke="#fbf2f8" stroke-width="0.25" data-index="28" style="opacity: 1; visibility: visible; fill: rgb(251, 159, 200);"></path>
<path d="M 232.58 352.82 C 241.18 356.63 251.26 353.56 258.99 359.85 C 256.33 360.55 253.07 361.58 251.24 358.78 C 248.58 355.07 244.44 358.66 241.07 359.18 C 238.87 357.58 236.42 356.37 234.22 354.78 C 233.81 354.29 232.99 353.31 232.58 352.82 Z" fill="#f7c8dd" opacity="1.00" stroke="#f7c8dd" stroke-width="0.25" data-index="29" style="opacity: 1; visibility: visible; fill: rgb(251, 159, 200);"></path>
<path d="M 241.07 359.18 C 244.44 358.66 248.58 355.07 251.24 358.78 C 253.07 361.58 256.33 360.55 258.99 359.85 C 260.64 365.38 268.02 365.76 272.13 368.83 C 288.11 375.66 302.44 385.69 318.55 392.09 C 322.99 397.13 329.96 398.66 335.98 401.05 C 336.14 398.90 333.32 394.12 337.35 395.44 C 345.00 393.74 350.81 399.76 357.28 402.76 C 350.10 403.24 345.61 394.63 337.96 396.97 C 340.42 403.35 349.01 403.82 353.31 408.69 C 355.50 410.20 356.83 415.75 350.37 411.66 C 336.29 404.09 321.41 398.04 308.21 388.81 C 285.39 380.50 263.21 367.63 241.07 359.18 Z" fill="#fbe9f2" opacity="1.00" stroke="#fbe9f2" stroke-width="0.25" data-index="30" style="opacity: 1; visibility: visible; fill: rgb(251, 159, 200);"></path>
<path d="M 411.90 364.88 C 415.24 365.94 418.52 367.42 422.05 366.04 C 421.26 368.63 416.58 367.27 418.23 370.71 C 423.54 376.13 428.34 382.02 433.77 387.33 C 437.31 393.81 430.59 392.15 427.20 392.47 C 421.47 390.89 416.22 387.34 410.00 387.96 C 406.71 387.26 407.18 393.04 403.73 391.93 C 405.28 384.03 413.32 382.89 418.84 378.84 C 417.28 373.81 412.67 370.12 411.90 364.88 Z" fill="#fce9f3" opacity="1.00" stroke="#fce9f3" stroke-width="0.25" data-index="31" style="visibility: visible; fill: rgb(251, 159, 200); opacity: 1; stroke: rgb(251, 159, 200);"></path>
<path d="M 126.08 369.86 C 129.05 363.35 138.84 373.85 133.05 375.73 C 133.91 371.35 131.37 368.05 126.08 369.86 Z" fill="#88cfe4" opacity="1.00" stroke="#88cfe4" stroke-width="0.25" data-index="32" style="opacity: 1;"></path>
<path d="M 315.05 370.97 C 313.84 367.60 318.43 369.16 320.15 369.83 C 328.49 374.76 336.59 380.18 345.10 384.86 C 347.39 385.95 351.07 387.18 352.26 384.02 C 349.67 381.68 346.60 379.99 343.62 378.21 C 349.82 378.38 361.29 386.12 354.04 391.96 C 360.52 396.74 367.22 402.30 373.14 408.05 C 367.54 407.65 362.42 404.84 357.28 402.76 C 350.81 399.76 345.00 393.74 337.35 395.44 C 333.32 394.12 336.14 398.90 335.98 401.05 C 329.96 398.66 322.99 397.13 318.55 392.09 C 330.05 392.25 342.05 393.59 353.19 397.11 C 348.93 392.00 341.96 390.20 336.82 386.12 C 330.37 379.86 320.09 378.51 315.05 370.97 Z" fill="#fadaea" opacity="1.00" stroke="#fadaea" stroke-width="0.25" data-index="33" style="opacity: 1; visibility: visible; fill: rgb(251, 159, 200); stroke: rgb(251, 159, 200);"></path>

<path d="M 189.89 373.99 C 201.60 375.25 210.87 384.39 222.81 385.31 C 235.29 391.44 247.99 399.17 262.55 398.76 C 270.51 390.69 254.82 386.48 251.03 380.90 C 265.82 387.55 279.87 396.80 294.16 404.85 C 300.19 410.50 313.29 411.14 311.98 421.82 C 308.08 424.03 303.62 426.35 299.96 422.08 C 291.73 416.90 280.73 419.32 272.71 413.43 C 263.81 413.79 256.69 407.49 249.10 403.85 C 240.73 398.60 231.73 394.52 223.00 389.94 C 212.53 383.41 200.25 380.76 189.89 373.99 Z" fill="#facbe0" opacity="1.00" stroke="#facbe0" stroke-width="0.25" data-index="35" style="opacity: 1; visibility: visible; fill: rgb(251, 159, 200);"></path>
<path d="M 340.83 376.47 C 341.89 375.03 344.68 376.63 343.62 378.21 C 342.50 377.97 341.61 377.27 340.83 376.47 Z" fill="#f8d6e5" opacity="1.00" stroke="#f8d6e5" stroke-width="0.25" data-index="36"></path>

<path d="M 165.20 412.40 C 170.41 406.86 168.58 394.08 175.80 391.84 C 173.85 399.23 172.15 407.97 165.20 412.40 Z" fill="#9cdaef" opacity="1.00" stroke="#9cdaef" stroke-width="0.25" data-index="38" style="visibility: hidden; opacity: 1;"></path>
<path d="M 177.91 405.83 C 179.45 401.91 181.68 398.35 183.82 394.75 C 184.09 398.42 181.99 408.69 177.91 405.83 Z" fill="#8bd0e7" opacity="1.00" stroke="#8bd0e7" stroke-width="0.25" data-index="39"></path>

<path d="M117.18,82.05c4.92,1.38 10.25,-1.46 14.43,2.38c13.64,6.1 26.8,13.29 40.38,19.59c1.34,0.05 8.71,4.55 6.2,-0.13c3.33,1.41 6.65,1.27 7.67,-2.72c-5.11,-3.29 -7.42,-7.61 -5.64,-13.12c4.78,-1 9.42,6.89 12.87,2.13c14.07,7.48 26.52,17.78 40.05,26.23c0.66,-2.84 -1.93,-5.72 0.65,-8.11c-23.19,-11.69 -45.93,-25.99 -71.47,-31.8c-2,-1.42 -4.04,2.97 -5.09,0.25c-0.4,-2.09 2.24,-3.6 3.22,-5.35c15.69,2.15 29.79,10.05 44.36,15.74c0.95,-3.53 -1.02,-12.42 5.1,-12.03c15.01,5.51 27.33,16.78 42.79,21.22c24.86,12.89 48.47,27.98 72.33,42.54c0.49,0.07 1.46,0.21 1.94,0.28c6.01,3.08 12.37,5.89 17.76,10.02c27.15,11.86 53.06,28.2 76.13,47.1c0.72,4.8 1.33,12.77 -6.87,9.88c0.22,6.93 9.86,7.34 13.95,11.83c4.29,1.08 7.59,4.5 11.65,6.31c2.09,5.2 4.99,10.09 6.37,15.56c-7.25,3.09 -14.5,-6.11 -21.8,-7.38c-5.07,2.72 -9.89,-3.58 -15.25,-2.49c-0.83,7.86 9.66,6.14 11.17,12.86c-11,-1.55 -0.25,7.51 -1.35,12.04c2.43,2.79 4.61,5.81 4.9,9.72c3.52,5.44 9.55,8.27 14.26,12.46c3.31,3.4 5.29,8.49 10.09,10.1c3.86,1.18 3.75,6.21 3.83,9.38c-3.17,0.66 -5.79,4.57 -9.18,2.93c-6.09,-1.96 -10.27,-7.35 -16.36,-9.28c-0.38,1.3 -0.6,2.69 -1.42,3.81c-6.26,-0.86 -10.6,-5.82 -15.02,-9.83c-2.83,-0.23 -2.26,3.5 -4.07,3.65l-0.97,-0.07c-4.25,2.32 -3.97,6.36 -1.78,10.1c-3.4,-0.29 -6.77,-0.78 -10.16,-1c-2.29,1.76 1.2,3.54 2.64,4.43c3.93,4.36 16.37,5.03 13.52,12.68c1.25,3.36 5.42,4.6 7.96,7.01c5.5,5.66 12.42,12.78 8.1,21.05c2.31,5.54 5.35,14.78 -3.04,17c-5.05,3.55 -9.33,-3.67 -14.68,-1.84c-5.81,6.78 -12.41,15.84 -22.34,15.84c-5.05,-1.21 -7.2,3.92 -11.24,5.46c-10.86,-1.55 -19.05,-9.82 -29.45,-12.71c-2.29,-0.81 -5.61,0.01 -6.5,-2.63c-1.06,-4.98 -10.9,0.02 -9.23,-5.93c-2.61,-1.72 -4.21,-1.39 -2.93,1.91c-9.74,-3.01 -18.01,-9.52 -27.82,-12.17c4.33,8.39 16.46,8.66 23.06,15.04c7.31,3.9 13.1,9.99 19.93,14.48c0.78,0.8 1.67,1.5 2.79,1.74c2.98,1.78 6.05,3.47 8.64,5.81c-1.19,3.16 -4.87,1.93 -7.16,0.84c-8.51,-4.68 -16.61,-10.1 -24.95,-15.03c-1.72,-0.67 -6.31,-2.23 -5.1,1.14c5.04,7.54 15.32,8.89 21.77,15.15c5.14,4.08 12.11,5.88 16.37,10.99c-11.14,-3.52 -23.14,-4.86 -34.64,-5.02c-16.11,-6.4 -30.44,-16.43 -46.42,-23.26c-4.11,-3.07 -11.49,-3.45 -13.14,-8.98c-7.73,-6.29 -17.81,-3.22 -26.41,-7.03c-11.56,-2.13 -20.13,-12.94 -31.68,-13.82c3.59,5.94 11.97,8.4 18.02,12.22c1.19,3.27 -2.6,3.3 -4.84,3.74c-4.4,-2.8 -7.79,-7.23 -12.95,-8.86c-0.8,1.13 -3.52,2.93 -1.17,3.93c11.52,6.92 23.23,13.52 34.86,20.28c5.45,3.43 11.18,6.53 16.21,10.59c3.79,5.58 19.48,9.79 11.52,17.86c-14.56,0.41 -27.26,-7.32 -39.74,-13.45c-11.94,-0.92 -21.21,-10.06 -32.92,-11.32c-17.83,-9.24 -35.59,-18.65 -53.65,-27.4c-15.21,-9.01 -31.45,-15.59 -46.88,-24c-10.99,-7.07 -25.08,-10.98 -33.35,-21.46c2.64,0.54 2.85,-0.96 2.2,-3.11c6.6,1.14 12.51,4.55 18.96,6.09c-3.74,-2.34 -4.98,-6.63 -8.08,-9.33c2.74,-3.22 0.68,-6.5 -2.96,-7.71c-3.4,0.25 -0.95,-4.64 -4.23,-4.91c-5.7,-2.1 -5.39,-10.22 -10.94,-13.15c-3.11,-1.89 -6.86,-2.33 -9.95,-4.2c-0.56,-7.27 2.89,-21.13 13.1,-15.96c8.09,5.17 19.4,6.82 25.98,13.44l0.49,-0.04c4.16,6.51 11.76,-1.51 4.63,-3.41c-5.07,-2.04 -15.44,-6.74 -10.35,-12.92c-2.28,-4.52 2.62,-7.89 2.93,-11.58c-4.59,-2.25 -8.52,-5.48 -12.48,-8.66c-3.22,-3.33 1.58,-6.77 0.27,-10.49c-0.53,-3.57 4.8,-3.77 4.33,-7c-4.24,-3.64 -10.16,-4.88 -14.09,-8.99c5.13,1.27 3.06,-3.04 4.38,-6.17c5.2,-0.9 16.13,9.63 11.82,-2.06c1.77,-3.5 3.52,-7.72 6.23,-10.86c4.16,-1.12 7.05,2.22 10.76,3c-0.61,-2.84 -0.87,-5.94 -2.72,-8.28c-2.93,-4.65 -9.78,-4.88 -12.49,-9.84c3.6,-4.03 7.31,-8 11.36,-11.58c2.89,0.95 6.84,4.5 9.19,0.88c2.28,-3.62 -4.72,-6.66 -1.96,-10.86c2.56,-4.84 5.04,-9.72 7.56,-14.56c1.19,-8.62 -13.01,-9 -9.85,-17.75c0.44,-2.98 2.7,-7.9 6.43,-5.6c3.44,2.55 11.93,4.67 10.55,-2.38c0.7,-3.01 -0.83,-7.92 2.99,-9.09c5.58,-1.62 4.24,-8.14 7.11,-12zM438.09,228.98c2.83,5.83 -7.15,3.89 -10.15,2.16c3,1.73 12.98,3.67 10.15,-2.16zM402.02,228.21c0.24,4.5 4.02,10.85 -0.43,14.43c4.45,-3.58 0.67,-9.93 0.43,-14.43zM401.59,242.64c-2.69,7.2 11.57,8.27 9.68,16.24c1.89,-7.97 -12.37,-9.04 -9.68,-16.24zM411.27,258.88c1.3,6.96 10.28,8.46 13.04,13.9c-2.76,-5.44 -11.74,-6.94 -13.04,-13.9zM424.31,272.78c-0.86,6.35 9.08,6.6 6.71,13.26c2.37,-6.66 -7.57,-6.91 -6.71,-13.26zM431.02,286.04c-9.77,3.05 -15.44,-5.36 -23.05,-9.01c7.61,3.65 13.28,12.06 23.05,9.01zM407.97,277.03c-2.63,2.03 -1.41,7.47 -3.18,10.72c1.77,-3.25 0.55,-8.69 3.18,-10.72z" id="path-16 1" fill="url(#grad-41)" fill-rule="nonzero" stroke="url(#grad-41)" stroke-width="0.25" stroke-linecap="butt" stroke-linejoin="miter" stroke-miterlimit="10" stroke-dasharray="" stroke-dashoffset="0" font-family="none" font-weight="none" font-size="none" text-anchor="none" style="mix-blend-mode: normal; opacity: 1; display: none;" data-index="41"></path><path d="M117.18,82.05c4.92,1.38 10.25,-1.46 14.43,2.38c13.64,6.1 26.8,13.29 40.38,19.59c1.34,0.05 8.71,4.55 6.2,-0.13c3.33,1.41 6.65,1.27 7.67,-2.72c-5.11,-3.29 -7.42,-7.61 -5.64,-13.12c4.78,-1 9.42,6.89 12.87,2.13c14.07,7.48 26.52,17.78 40.05,26.23c0.66,-2.84 -1.93,-5.72 0.65,-8.11c-23.19,-11.69 -45.93,-25.99 -71.47,-31.8c-2,-1.42 -4.04,2.97 -5.09,0.25c-0.4,-2.09 2.24,-3.6 3.22,-5.35c15.69,2.15 29.79,10.05 44.36,15.74c0.95,-3.53 -1.02,-12.42 5.1,-12.03c15.01,5.51 27.33,16.78 42.79,21.22c24.86,12.89 48.47,27.98 72.33,42.54c0.49,0.07 1.46,0.21 1.94,0.28c6.01,3.08 12.37,5.89 17.76,10.02c27.15,11.86 53.06,28.2 76.13,47.1c0.72,4.8 1.33,12.77 -6.87,9.88c0.22,6.93 9.86,7.34 13.95,11.83c4.29,1.08 7.59,4.5 11.65,6.31c2.09,5.2 4.99,10.09 6.37,15.56c-7.25,3.09 -14.5,-6.11 -21.8,-7.38c-5.07,2.72 -9.89,-3.58 -15.25,-2.49c-0.83,7.86 9.66,6.14 11.17,12.86c-11,-1.55 -0.25,7.51 -1.35,12.04c2.43,2.79 4.61,5.81 4.9,9.72c3.52,5.44 9.55,8.27 14.26,12.46c3.31,3.4 5.29,8.49 10.09,10.1c3.86,1.18 3.75,6.21 3.83,9.38c-3.17,0.66 -5.79,4.57 -9.18,2.93c-6.09,-1.96 -10.27,-7.35 -16.36,-9.28c-0.38,1.3 -0.6,2.69 -1.42,3.81c-6.26,-0.86 -10.6,-5.82 -15.02,-9.83c-2.83,-0.23 -2.26,3.5 -4.07,3.65l-0.97,-0.07c-4.25,2.32 -3.97,6.36 -1.78,10.1c-3.4,-0.29 -6.77,-0.78 -10.16,-1c-2.29,1.76 1.2,3.54 2.64,4.43c3.93,4.36 16.37,5.03 13.52,12.68c1.25,3.36 5.42,4.6 7.96,7.01c5.5,5.66 12.42,12.78 8.1,21.05c2.31,5.54 5.35,14.78 -3.04,17c-5.05,3.55 -9.33,-3.67 -14.68,-1.84c-5.81,6.78 -12.41,15.84 -22.34,15.84c-5.05,-1.21 -7.2,3.92 -11.24,5.46c-10.86,-1.55 -19.05,-9.82 -29.45,-12.71c-2.29,-0.81 -5.61,0.01 -6.5,-2.63c-1.06,-4.98 -10.9,0.02 -9.23,-5.93c-2.61,-1.72 -4.21,-1.39 -2.93,1.91c-9.74,-3.01 -18.01,-9.52 -27.82,-12.17c4.33,8.39 16.46,8.66 23.06,15.04c7.31,3.9 13.1,9.99 19.93,14.48c0.78,0.8 1.67,1.5 2.79,1.74c2.98,1.78 6.05,3.47 8.64,5.81c-1.19,3.16 -4.87,1.93 -7.16,0.84c-8.51,-4.68 -16.61,-10.1 -24.95,-15.03c-1.72,-0.67 -6.31,-2.23 -5.1,1.14c5.04,7.54 15.32,8.89 21.77,15.15c5.14,4.08 12.11,5.88 16.37,10.99c-11.14,-3.52 -23.14,-4.86 -34.64,-5.02c-16.11,-6.4 -30.44,-16.43 -46.42,-23.26c-4.11,-3.07 -11.49,-3.45 -13.14,-8.98c-7.73,-6.29 -17.81,-3.22 -26.41,-7.03c-11.56,-2.13 -20.13,-12.94 -31.68,-13.82c3.59,5.94 11.97,8.4 18.02,12.22c1.19,3.27 -2.6,3.3 -4.84,3.74c-4.4,-2.8 -7.79,-7.23 -12.95,-8.86c-0.8,1.13 -3.52,2.93 -1.17,3.93c11.52,6.92 23.23,13.52 34.86,20.28c5.45,3.43 11.18,6.53 16.21,10.59c3.79,5.58 19.48,9.79 11.52,17.86c-14.56,0.41 -27.26,-7.32 -39.74,-13.45c-11.94,-0.92 -21.21,-10.06 -32.92,-11.32c-17.83,-9.24 -35.59,-18.65 -53.65,-27.4c-15.21,-9.01 -31.45,-15.59 -46.88,-24c-10.99,-7.07 -25.08,-10.98 -33.35,-21.46c2.64,0.54 2.85,-0.96 2.2,-3.11c6.6,1.14 12.51,4.55 18.96,6.09c-3.74,-2.34 -4.98,-6.63 -8.08,-9.33c2.74,-3.22 0.68,-6.5 -2.96,-7.71c-3.4,0.25 -0.95,-4.64 -4.23,-4.91c-5.7,-2.1 -5.39,-10.22 -10.94,-13.15c-3.11,-1.89 -6.86,-2.33 -9.95,-4.2c-0.56,-7.27 2.89,-21.13 13.1,-15.96c8.09,5.17 19.4,6.82 25.98,13.44l0.49,-0.04c4.16,6.51 11.76,-1.51 4.63,-3.41c-5.07,-2.04 -15.44,-6.74 -10.35,-12.92c-2.28,-4.52 2.62,-7.89 2.93,-11.58c-4.59,-2.25 -8.52,-5.48 -12.48,-8.66c-3.22,-3.33 1.58,-6.77 0.27,-10.49c-0.53,-3.57 4.8,-3.77 4.33,-7c-4.24,-3.64 -10.16,-4.88 -14.09,-8.99c5.13,1.27 3.06,-3.04 4.38,-6.17c5.2,-0.9 16.13,9.63 11.82,-2.06c1.77,-3.5 3.52,-7.72 6.23,-10.86c4.16,-1.12 7.05,2.22 10.76,3c-0.61,-2.84 -0.87,-5.94 -2.72,-8.28c-5.11,-0.17 -9.46,-3.92 -13.9,-6.25c-3.34,-5.45 1.44,-10.99 2.93,-16.26c2.28,-4.88 7.62,-0.31 11.26,-0.55c0.22,-3.98 5.85,2.81 4.27,-1.62c-4.23,-4.99 1.16,-10.72 2.14,-15.99c-2.19,-2.52 -7.94,-1.45 -8.01,-5.22c3.64,-0.34 6.21,3.41 9.82,3c3.38,-5.05 0.89,-12.44 -5.53,-12.28c-2.23,-4.96 -1.2,-11.5 1.03,-16.35c3.65,-5.33 10.42,6.35 13.57,0.61c0.72,-0.94 2.19,-0.48 3.21,-0.78c0.7,-3.01 -0.83,-7.92 2.99,-9.09c5.58,-1.62 4.24,-8.14 7.11,-12zM86.29,174.83c-2.93,-4.65 -9.78,-4.88 -12.49,-9.84c2.71,4.96 9.56,5.19 12.49,9.84zM73.8,164.99c3.6,-4.03 7.31,-8 11.36,-11.58c-4.05,3.58 -7.76,7.55 -11.36,11.58zM94.35,154.29c2.28,-3.62 -4.72,-6.66 -1.96,-10.86c-2.76,4.2 4.24,7.24 1.96,10.86zM90.1,111.12c0.44,-2.98 2.7,-7.9 6.43,-5.6c-3.73,-2.3 -5.99,2.62 -6.43,5.6zM96.53,105.52c3.44,2.55 11.93,4.67 10.55,-2.38c1.38,7.05 -7.11,4.93 -10.55,2.38z" fill="url(#grad-42)" fill-rule="nonzero" stroke="url(#grad-42)" stroke-width="0.25" stroke-linecap="butt" stroke-linejoin="miter" stroke-miterlimit="10" stroke-dasharray="" stroke-dashoffset="0" font-family="none" font-weight="none" font-size="none" text-anchor="none" style="mix-blend-mode: normal; opacity: 1; display: none;" data-index="42"></path><path d="M117.18,82.05c4.92,1.38 10.25,-1.46 14.43,2.38c13.64,6.1 26.8,13.29 40.38,19.59c1.34,0.05 8.71,4.55 6.2,-0.13c3.33,1.41 6.65,1.27 7.67,-2.72c-5.11,-3.29 -7.42,-7.61 -5.64,-13.12c4.78,-1 9.42,6.89 12.87,2.13c14.07,7.48 26.52,17.78 40.05,26.23c0.66,-2.84 -1.93,-5.72 0.65,-8.11c-23.19,-11.69 -45.93,-25.99 -71.47,-31.8c-2,-1.42 -4.04,2.97 -5.09,0.25c-0.4,-2.09 2.24,-3.6 3.22,-5.35c15.69,2.15 29.79,10.05 44.36,15.74c0.95,-3.53 -1.02,-12.42 5.1,-12.03c15.01,5.51 27.33,16.78 42.79,21.22c24.86,12.89 48.47,27.98 72.33,42.54c0.49,0.07 1.46,0.21 1.94,0.28c6.01,3.08 12.37,5.89 17.76,10.02c27.15,11.86 53.06,28.2 76.13,47.1c0.72,4.8 1.33,12.77 -6.87,9.88c0.22,6.93 9.86,7.34 13.95,11.83c4.29,1.08 7.59,4.5 11.65,6.31c2.09,5.2 4.99,10.09 6.37,15.56c-7.25,3.09 -14.5,-6.11 -21.8,-7.38c-5.07,2.72 -9.89,-3.58 -15.25,-2.49c-0.83,7.86 9.66,6.14 11.17,12.86c-11,-1.55 -0.25,7.51 -1.35,12.04c2.43,2.79 4.61,5.81 4.9,9.72c3.52,5.44 9.55,8.27 14.26,12.46c3.31,3.4 5.29,8.49 10.09,10.1c3.86,1.18 3.75,6.21 3.83,9.38c-3.17,0.66 -5.79,4.57 -9.18,2.93c-6.09,-1.96 -10.27,-7.35 -16.36,-9.28c-0.38,1.3 -0.6,2.69 -1.42,3.81c-6.26,-0.86 -10.6,-5.82 -15.02,-9.83c-2.83,-0.23 -2.26,3.5 -4.07,3.65l-0.97,-0.07c-4.25,2.32 -3.97,6.36 -1.78,10.1c-3.4,-0.29 -6.77,-0.78 -10.16,-1c-2.29,1.76 1.2,3.54 2.64,4.43c3.93,4.36 16.37,5.03 13.52,12.68c1.25,3.36 5.42,4.6 7.96,7.01c5.5,5.66 12.42,12.78 8.1,21.05c2.31,5.54 5.35,14.78 -3.04,17c-5.05,3.55 -9.33,-3.67 -14.68,-1.84c-5.81,6.78 -12.41,15.84 -22.34,15.84c-5.05,-1.21 -7.2,3.92 -11.24,5.46c-10.86,-1.55 -19.05,-9.82 -29.45,-12.71c-2.29,-0.81 -5.61,0.01 -6.5,-2.63c-1.06,-4.98 -10.9,0.02 -9.23,-5.93c-2.61,-1.72 -4.21,-1.39 -2.93,1.91c-9.74,-3.01 -18.01,-9.52 -27.82,-12.17c4.33,8.39 16.46,8.66 23.06,15.04c7.31,3.9 13.1,9.99 19.93,14.48c0.78,0.8 1.67,1.5 2.79,1.74c2.98,1.78 6.05,3.47 8.64,5.81c-1.19,3.16 -4.87,1.93 -7.16,0.84c-8.51,-4.68 -16.61,-10.1 -24.95,-15.03c-1.72,-0.67 -6.31,-2.23 -5.1,1.14c5.04,7.54 15.32,8.89 21.77,15.15c5.14,4.08 12.11,5.88 16.37,10.99c-11.14,-3.52 -23.14,-4.86 -34.64,-5.02c-16.11,-6.4 -30.44,-16.43 -46.42,-23.26c-4.11,-3.07 -11.49,-3.45 -13.14,-8.98c-7.73,-6.29 -17.81,-3.22 -26.41,-7.03c-11.56,-2.13 -20.13,-12.94 -31.68,-13.82c3.59,5.94 11.97,8.4 18.02,12.22c1.19,3.27 -2.6,3.3 -4.84,3.74c-4.4,-2.8 -7.79,-7.23 -12.95,-8.86c-0.8,1.13 -3.52,2.93 -1.17,3.93c11.52,6.92 23.23,13.52 34.86,20.28c5.45,3.43 11.18,6.53 16.21,10.59c3.79,5.58 19.48,9.79 11.52,17.86c-14.56,0.41 -27.26,-7.32 -39.74,-13.45c-11.94,-0.92 -21.21,-10.06 -32.92,-11.32c-17.83,-9.24 -35.59,-18.65 -53.65,-27.4c-15.21,-9.01 -31.45,-15.59 -46.88,-24c-10.99,-7.07 -25.08,-10.98 -33.35,-21.46c-0.01,-2.25 0.59,-4.34 2.66,-5.5c-4.51,-11.19 12.17,0.32 7.46,-8.56c-3.4,0.25 -0.95,-4.64 -4.23,-4.91c-5.7,-2.1 -5.39,-10.22 -10.94,-13.15c-3.11,-1.89 -6.86,-2.33 -9.95,-4.2c-0.56,-7.27 2.89,-21.13 13.1,-15.96c8.09,5.17 19.4,6.82 25.98,13.44l0.49,-0.04c4.16,6.51 11.76,-1.51 4.63,-3.41c-5.07,-2.04 -15.44,-6.74 -10.35,-12.92c-2.28,-4.52 2.62,-7.89 2.93,-11.58c-4.59,-2.25 -8.52,-5.48 -12.48,-8.66c-3.22,-3.33 1.58,-6.77 0.27,-10.49c-0.53,-3.57 4.8,-3.77 4.33,-7c-4.24,-3.64 -10.16,-4.88 -14.09,-8.99c5.13,1.27 3.06,-3.04 4.38,-6.17c5.2,-0.9 16.13,9.63 11.82,-2.06c1.77,-3.5 3.52,-7.72 6.23,-10.86c4.16,-1.12 7.05,2.22 10.76,3c-0.61,-2.84 -0.87,-5.94 -2.72,-8.28c-5.11,-0.17 -9.46,-3.92 -13.9,-6.25c-3.34,-5.45 1.44,-10.99 2.93,-16.26c2.28,-4.88 7.62,-0.31 11.26,-0.55c0.22,-3.98 5.85,2.81 4.27,-1.62c-4.23,-4.99 1.16,-10.72 2.14,-15.99c-2.19,-2.52 -7.94,-1.45 -8.01,-5.22c3.64,-0.34 6.21,3.41 9.82,3c3.38,-5.05 0.89,-12.44 -5.53,-12.28c-2.23,-4.96 -1.2,-11.5 1.03,-16.35c3.65,-5.33 10.42,6.35 13.57,0.61c0.72,-0.94 2.19,-0.48 3.21,-0.78c0.7,-3.01 -0.83,-7.92 2.99,-9.09c5.58,-1.62 4.24,-8.14 7.11,-12zM77.17,304.11c-3.74,-2.34 -4.98,-6.63 -8.08,-9.33c3.1,2.7 4.34,6.99 8.08,9.33z" fill="url(#grad-43)" fill-rule="nonzero" stroke="url(#grad-43)" stroke-width="0.25" stroke-linecap="butt" stroke-linejoin="miter" stroke-miterlimit="10" stroke-dasharray="" stroke-dashoffset="0" font-family="none" font-weight="none" font-size="none" text-anchor="none" style="mix-blend-mode: normal; opacity: 1;" data-index="43"></path></svg>