<svg xmlns="http://www.w3.org/2000/svg" height="512pt" version="1.1" viewBox="0 0 512 512" width="512pt">

<path d="M 213.12 29.12 C 229.17 22.41 247.24 22.06 264.16 25.16 C 285.66 29.10 305.89 40.25 320.20 56.83 C 334.85 73.66 343.45 95.67 343.97 117.98 C 344.61 135.63 344.16 153.33 345.25 170.96 C 345.68 192.35 347.83 213.63 349.37 234.95 C 349.85 247.30 350.74 259.64 350.81 272.01 C 350.43 272.38 349.67 273.13 349.29 273.50 L 348.50 273.06 C 347.88 259.74 347.56 246.40 346.64 233.10 C 346.10 218.68 344.10 204.38 343.51 189.97 C 343.56 184.62 342.87 179.31 342.53 173.98 C 342.27 164.99 342.45 155.99 341.84 147.02 C 341.54 135.67 341.90 124.31 341.40 112.97 C 339.52 91.67 330.71 70.76 315.62 55.44 C 303.91 42.74 288.38 33.95 271.85 29.21 C 254.90 25.05 236.80 24.05 219.91 29.02 C 211.75 31.62 203.84 35.63 197.88 41.91 C 196.06 43.79 194.69 46.08 192.74 47.83 C 189.61 48.87 186.11 47.85 182.97 48.99 C 174.39 51.75 167.62 58.35 162.48 65.53 C 155.83 75.29 152.90 86.95 150.61 98.38 C 147.86 117.80 147.38 137.45 147.53 157.04 C 147.34 184.02 147.55 211.01 147.74 238.00 C 148.37 250.76 148.45 263.54 148.46 276.31 C 147.96 276.59 146.95 277.14 146.45 277.42 C 145.88 263.31 145.63 249.17 145.40 235.04 C 145.22 208.02 144.70 181.01 144.85 153.99 C 145.52 132.94 145.07 111.60 149.83 90.94 C 152.59 79.34 156.73 67.56 165.00 58.68 C 171.73 51.14 181.26 44.68 191.82 45.74 C 197.06 38.25 204.62 32.46 213.12 29.12 Z" fill="#0d2034" opacity="1.00" stroke="#0d2034" stroke-width="0.25" data-index="1"></path>
<path d="M 219.91 29.02 C 236.80 24.05 254.90 25.05 271.85 29.21 C 288.38 33.95 303.91 42.74 315.62 55.44 C 330.71 70.76 339.52 91.67 341.40 112.97 C 341.90 124.31 341.54 135.67 341.84 147.02 C 342.45 155.99 342.27 164.99 342.53 173.98 C 342.87 179.31 343.56 184.62 343.51 189.97 C 344.10 204.38 346.10 218.68 346.64 233.10 C 347.56 246.40 347.88 259.74 348.50 273.06 C 333.50 265.58 317.63 259.90 301.21 256.52 C 292.01 254.78 282.73 253.53 273.38 253.08 C 273.37 246.23 273.39 239.37 273.53 232.52 C 286.85 226.96 298.49 217.38 306.11 205.07 C 309.40 200.17 311.30 194.49 314.60 189.60 C 319.25 189.96 324.22 189.92 328.27 187.27 C 340.10 179.95 341.72 160.89 331.15 151.76 C 328.32 148.74 324.07 148.30 320.53 146.63 C 320.45 132.75 319.32 118.92 317.45 105.17 C 311.95 106.01 306.79 108.26 301.33 109.32 C 294.93 110.56 288.47 111.82 281.92 111.79 C 263.70 112.39 244.74 108.98 229.31 98.82 C 222.95 94.30 217.96 88.09 214.48 81.14 C 203.35 81.50 193.81 88.68 187.44 97.35 C 182.43 104.23 178.78 112.01 176.11 120.07 C 173.19 128.76 172.78 138.04 172.64 147.13 C 165.33 148.35 159.12 154.05 157.06 161.13 C 154.03 170.67 157.19 182.64 166.29 187.68 C 170.73 190.03 175.89 189.77 180.73 190.31 C 186.95 205.46 197.32 219.15 211.50 227.62 C 216.49 230.61 221.86 232.88 227.32 234.84 C 227.44 240.90 227.63 246.96 227.68 253.02 C 222.42 253.73 217.14 254.16 211.88 254.78 C 189.68 258.00 167.94 265.13 148.46 276.31 C 148.45 263.54 148.37 250.76 147.74 238.00 C 147.55 211.01 147.34 184.02 147.53 157.04 C 147.38 137.45 147.86 117.80 150.61 98.38 C 152.90 86.95 155.83 75.29 162.48 65.53 C 167.62 58.35 174.39 51.75 182.97 48.99 C 186.11 47.85 189.61 48.87 192.74 47.83 C 194.69 46.08 196.06 43.79 197.88 41.91 C 203.84 35.63 211.75 31.62 219.91 29.02 Z" fill="#6e4438" opacity="1.00" stroke="#6e4438" stroke-width="0.25" data-index="2" style="opacity: 1;"></path>
<path d="M 187.44 97.35 C 193.81 88.68 203.35 81.50 214.48 81.14 C 217.96 88.09 222.95 94.30 229.31 98.82 C 244.74 108.98 263.70 112.39 281.92 111.79 C 288.47 111.82 294.93 110.56 301.33 109.32 C 306.79 108.26 311.95 106.01 317.45 105.17 C 319.32 118.92 320.45 132.75 320.53 146.63 C 324.07 148.30 328.32 148.74 331.15 151.76 C 341.72 160.89 340.10 179.95 328.27 187.27 C 324.22 189.92 319.25 189.96 314.60 189.60 C 311.30 194.49 309.40 200.17 306.11 205.07 C 298.49 217.38 286.85 226.96 273.53 232.52 C 273.39 239.37 273.37 246.23 273.38 253.08 C 282.73 253.53 292.01 254.78 301.21 256.52 C 299.39 257.04 297.61 257.65 295.81 258.17 C 288.30 257.06 280.77 256.07 273.19 255.58 C 273.23 259.92 273.19 264.28 272.57 268.59 C 272.08 268.50 271.09 268.32 270.60 268.23 C 270.59 256.81 270.72 245.38 270.79 233.96 C 257.42 237.77 243.18 238.59 229.62 235.21 C 230.19 246.30 230.53 257.39 230.65 268.50 C 230.09 268.51 228.97 268.53 228.40 268.54 C 228.31 264.25 228.29 259.95 227.82 255.68 C 219.68 256.30 211.63 257.64 203.55 258.71 C 200.83 268.93 204.97 280.32 212.79 287.25 C 219.18 293.24 228.05 295.04 236.40 296.45 C 237.82 288.81 238.89 281.07 240.78 273.52 C 241.26 271.48 243.44 271.48 245.12 271.28 C 245.31 270.06 245.51 268.85 245.70 267.65 C 247.77 266.98 249.78 267.02 251.08 268.99 C 251.55 266.34 253.73 265.97 256.03 266.08 C 256.24 266.60 256.66 267.65 256.87 268.18 C 258.34 268.21 259.81 268.26 261.28 268.31 C 263.76 277.42 265.32 286.74 267.24 295.97 C 276.75 295.03 286.29 290.82 292.14 283.06 C 295.42 279.32 297.19 274.57 298.32 269.79 C 298.91 270.67 299.51 271.55 300.12 272.43 C 298.25 278.94 294.68 285.01 289.41 289.34 C 283.35 294.75 275.38 297.19 267.54 298.68 C 269.47 308.13 271.70 317.52 273.93 326.91 C 276.03 335.42 276.34 344.21 277.29 352.88 C 294.17 364.51 311.14 376.03 328.10 387.55 C 327.78 387.98 327.12 388.85 326.79 389.28 C 310.03 378.06 293.39 366.62 276.74 355.22 C 275.14 354.41 274.72 352.67 274.72 351.02 C 274.03 340.36 272.81 329.68 269.75 319.41 C 265.43 303.03 263.55 286.11 259.11 269.77 C 258.49 271.01 258.40 272.40 258.65 273.76 C 260.63 286.79 262.64 299.81 264.77 312.82 L 264.21 313.95 C 263.67 313.74 262.57 313.32 262.03 313.11 C 260.46 301.85 257.53 290.83 255.65 279.62 C 255.09 275.65 254.94 271.63 254.09 267.71 C 253.22 271.17 253.33 274.76 253.33 278.31 C 249.78 276.26 248.77 272.42 247.93 268.73 C 247.37 271.08 246.89 273.45 246.48 275.84 C 247.61 275.72 248.74 275.60 249.87 275.48 C 250.68 276.36 251.48 277.26 252.26 278.18 L 250.04 278.87 C 249.70 278.70 249.01 278.37 248.66 278.21 C 248.63 278.56 248.55 279.26 248.51 279.62 C 247.79 281.26 247.01 282.87 246.29 284.51 C 246.07 283.59 245.82 282.67 245.54 281.78 C 245.01 280.35 244.34 278.98 243.75 277.58 C 243.65 276.25 243.54 274.92 243.42 273.60 C 242.52 276.29 241.91 279.08 241.47 281.88 C 239.66 293.03 237.28 304.07 235.03 315.14 C 231.61 327.93 228.75 340.89 226.99 354.01 C 217.64 361.43 207.25 367.53 197.61 374.60 C 183.83 383.80 170.32 393.40 156.32 402.27 C 149.40 406.54 142.75 411.32 135.34 414.74 C 135.36 414.16 135.41 412.98 135.44 412.40 C 145.48 406.44 155.38 400.23 165.17 393.85 C 166.81 386.52 169.05 379.34 170.54 371.98 C 156.52 369.56 142.75 365.87 128.80 363.13 C 127.07 373.73 124.60 384.19 122.77 394.78 C 120.79 406.13 117.68 417.55 118.77 429.17 C 119.40 435.99 122.19 442.95 127.74 447.22 C 136.00 453.22 147.52 452.79 156.42 448.47 C 162.87 444.96 168.35 439.97 174.02 435.38 C 174.13 436.10 174.23 436.83 174.33 437.57 C 172.67 439.79 170.36 441.38 168.23 443.11 C 163.76 446.61 159.30 450.42 153.76 452.10 C 144.76 454.99 133.95 454.89 126.17 448.93 C 121.05 445.16 118.29 439.07 116.97 433.00 C 115.16 422.61 116.98 412.07 119.06 401.87 C 121.31 388.75 123.99 375.71 126.61 362.66 C 124.48 362.15 122.36 361.59 120.23 361.06 C 122.57 349.80 125.76 338.74 128.35 327.53 C 131.02 316.51 133.76 305.49 136.95 294.60 C 138.57 289.77 140.38 284.77 143.99 281.03 C 144.96 279.94 146.21 278.96 146.45 277.42 C 146.95 277.14 147.96 276.59 148.46 276.31 C 167.94 265.13 189.68 258.00 211.88 254.78 C 217.14 254.16 222.42 253.73 227.68 253.02 C 227.63 246.96 227.44 240.90 227.32 234.84 C 221.86 232.88 216.49 230.61 211.50 227.62 C 197.32 219.15 186.95 205.46 180.73 190.31 C 175.89 189.77 170.73 190.03 166.29 187.68 C 157.19 182.64 154.03 170.67 157.06 161.13 C 159.12 154.05 165.33 148.35 172.64 147.13 C 172.78 138.04 173.19 128.76 176.11 120.07 C 178.78 112.01 182.43 104.23 187.44 97.35 Z" fill="#102034" opacity="1.00" stroke="#102034" stroke-width="0.25" data-index="3" style="opacity: 1;"></path>
<path d="M 192.71 94.63 C 197.87 88.48 205.26 84.62 213.13 83.29 C 218.57 95.24 229.78 103.58 241.88 108.03 C 260.63 114.89 281.38 116.46 300.85 111.87 C 305.82 110.98 310.53 109.05 315.48 108.12 C 317.54 122.98 318.63 138.02 317.74 153.01 C 317.42 166.95 315.16 181.01 309.57 193.86 C 302.06 210.80 287.83 225.03 270.27 231.32 C 256.77 236.10 241.80 236.31 228.09 232.25 C 211.85 228.06 198.34 216.43 189.48 202.46 C 178.44 184.46 175.50 162.78 175.29 142.03 C 174.83 124.74 181.70 107.77 192.71 94.63 Z" fill="#ffc5ad" opacity="1.00" stroke="#ffc5ad" stroke-width="0.25" data-index="4"></path>
<path d="M 214.91 121.48 C 219.03 120.81 223.17 119.82 227.37 120.25 C 228.49 122.23 228.66 124.50 227.33 126.42 C 217.43 127.66 207.62 129.52 197.91 131.79 C 194.21 132.59 190.54 134.21 186.68 133.52 C 185.71 131.65 185.52 129.57 186.49 127.66 C 195.80 124.92 205.35 123.12 214.91 121.48 Z" fill="#042848" opacity="1.00" stroke="#042848" stroke-width="0.25" data-index="5"></path>
<path d="M 267.61 127.57 C 265.77 125.95 266.67 123.35 267.79 121.60 C 281.73 121.25 295.79 122.20 309.50 124.73 C 309.85 126.63 309.85 128.57 309.51 130.48 C 303.70 131.16 298.02 129.28 292.22 129.15 C 284.06 127.99 275.76 128.69 267.61 127.57 Z" fill="#042a4b" opacity="1.00" stroke="#042a4b" stroke-width="0.25" data-index="6"></path>
<path d="M 209.65 144.07 C 212.00 142.25 215.07 140.58 218.02 142.21 C 222.93 144.14 223.36 152.30 218.66 154.68 C 215.41 156.69 210.79 155.24 209.19 151.80 C 207.77 149.34 208.80 146.52 209.65 144.07 Z" fill="#032749" opacity="1.00" stroke="#032749" stroke-width="0.25" data-index="7"></path>
<path d="M 275.96 154.10 C 271.94 151.31 272.65 144.28 277.12 142.33 C 281.10 139.91 286.88 143.32 286.75 147.94 C 287.07 150.15 286.11 152.17 285.08 154.04 C 282.30 155.45 278.49 156.61 275.96 154.10 Z" fill="#022846" opacity="1.00" stroke="#022846" stroke-width="0.25" data-index="8"></path>
<path d="M 163.52 154.56 C 166.06 151.85 169.52 150.02 173.21 149.53 C 173.57 162.46 175.78 175.35 179.80 187.65 C 174.00 187.97 167.68 186.98 163.51 182.58 C 156.58 175.03 156.57 162.11 163.52 154.56 Z" fill="#fec7ad" opacity="1.00" stroke="#fec7ad" stroke-width="0.25" data-index="9"></path>
<path d="M 320.27 149.59 C 326.60 149.68 331.78 154.46 334.30 159.96 C 337.19 168.07 335.83 178.19 328.99 183.93 C 325.24 187.44 319.82 187.69 314.97 187.51 C 315.63 182.94 317.28 178.59 318.04 174.05 C 319.46 165.98 320.23 157.78 320.27 149.59 Z" fill="#fec5ad" opacity="1.00" stroke="#fec5ad" stroke-width="0.25" data-index="10"></path>
<path d="M 239.28 167.14 C 241.83 162.16 244.52 157.26 246.95 152.21 L 248.24 152.66 C 248.38 152.98 248.65 153.63 248.79 153.95 C 246.49 159.51 242.53 164.38 241.13 170.28 C 244.57 170.30 248.02 170.19 251.46 170.55 C 251.37 170.98 251.20 171.86 251.11 172.30 C 246.85 172.47 242.13 173.59 238.23 171.35 C 238.43 169.91 238.53 168.42 239.28 167.14 Z" fill="#0f1728" opacity="1.00" stroke="#0f1728" stroke-width="0.25" data-index="11"></path>
<path d="M 248.98 184.03 C 255.25 183.11 261.60 183.42 267.91 183.38 C 270.03 183.24 272.06 185.43 271.36 187.53 C 270.27 192.64 268.76 197.68 268.47 202.93 C 268.44 204.17 267.85 206.38 266.03 205.41 C 267.84 198.59 269.01 191.58 269.62 184.55 C 254.55 185.37 239.47 185.84 224.39 186.28 L 225.32 185.47 C 233.08 183.80 241.14 184.97 248.98 184.03 Z" fill="#e4cac0" opacity="1.00" stroke="#e4cac0" stroke-width="0.25" data-index="12"></path>
<path d="M 224.39 186.28 C 239.47 185.84 254.55 185.37 269.62 184.55 C 269.01 191.58 267.84 198.59 266.03 205.41 C 264.56 210.85 260.93 215.77 255.88 218.36 C 247.21 222.32 235.76 219.87 230.11 212.00 C 224.68 204.70 223.58 195.13 223.56 186.30 L 224.39 186.28 Z" fill="#282230" opacity="1.00" stroke="#282230" stroke-width="0.25" data-index="13"></path>
<path d="M 243.99 186.46 C 251.79 186.24 259.60 186.57 267.41 186.55 C 267.53 189.70 267.97 192.93 267.11 196.01 C 265.98 196.88 264.41 196.64 263.10 196.97 C 257.05 197.71 251.16 199.76 244.99 199.36 C 238.50 199.75 232.12 198.59 225.84 197.06 C 225.44 193.96 224.11 190.77 225.24 187.68 L 225.46 188.55 C 226.12 191.12 226.43 193.76 226.62 196.41 C 239.42 200.32 252.98 198.72 265.75 195.62 C 266.26 192.82 266.65 189.99 266.94 187.16 C 257.75 187.44 248.56 187.62 239.40 188.27 C 240.18 186.38 242.34 186.60 243.99 186.46 Z" fill="#002239" opacity="1.00" stroke="#002239" stroke-width="0.25" data-index="14"></path>
<path d="M 225.46 188.55 C 230.10 188.36 234.75 188.47 239.40 188.27 C 248.56 187.62 257.75 187.44 266.94 187.16 C 266.65 189.99 266.26 192.82 265.75 195.62 C 252.98 198.72 239.42 200.32 226.62 196.41 C 226.43 193.76 226.12 191.12 225.46 188.55 Z" fill="#fdfefd" opacity="1.00" stroke="#fdfefd" stroke-width="0.25" data-index="15"></path>

<path d="M 390.54 196.19 C 391.64 195.31 392.73 194.42 393.84 193.53 C 394.70 193.50 396.44 193.43 397.30 193.39 C 400.47 195.98 400.42 200.35 400.70 204.08 C 400.91 212.21 401.13 220.54 398.71 228.40 C 395.45 240.28 389.66 251.90 380.41 260.21 C 376.94 262.06 375.11 258.17 373.46 255.89 C 375.42 252.44 378.32 249.68 380.59 246.45 C 390.88 232.07 394.12 213.39 390.54 196.19 Z" fill="#6be0fd" opacity="1.00" stroke="#6be0fd" stroke-width="0.25" data-index="17" style="opacity: 1; visibility: hidden;"></path>

<path d="M 241.88 201.12 C 249.65 201.27 257.24 199.36 264.86 198.20 C 264.78 199.36 264.71 200.52 264.66 201.68 C 264.18 201.35 263.22 200.69 262.74 200.36 C 257.05 199.78 251.70 202.68 246.01 202.48 C 240.25 202.88 234.55 201.92 229.03 200.32 C 228.90 201.71 228.77 203.11 228.64 204.51 C 228.06 202.75 227.56 200.98 227.14 199.19 C 232.07 199.75 236.92 200.92 241.88 201.12 Z" fill="#ba5e52" opacity="1.00" stroke="#ba5e52" stroke-width="0.25" data-index="19"></path>

<path d="M 229.03 200.32 C 234.55 201.92 240.25 202.88 246.01 202.48 C 251.70 202.68 257.05 199.78 262.74 200.36 C 263.22 200.69 264.18 201.35 264.66 201.68 C 263.18 206.57 261.17 211.77 256.84 214.83 C 249.44 219.91 238.52 218.04 232.79 211.29 C 231.01 209.29 229.91 206.83 228.64 204.51 C 228.77 203.11 228.90 201.71 229.03 200.32 Z" fill="#f2532e" opacity="1.00" stroke="#f2532e" stroke-width="0.25" data-index="21"></path>
<path d="M 229.62 235.21 C 243.18 238.59 257.42 237.77 270.79 233.96 C 270.72 245.38 270.59 256.81 270.60 268.23 C 271.09 268.32 272.08 268.50 272.57 268.59 C 273.19 264.28 273.23 259.92 273.19 255.58 C 280.77 256.07 288.30 257.06 295.81 258.17 C 296.44 258.26 297.69 258.44 298.32 258.54 C 298.61 262.28 298.85 266.06 298.32 269.79 C 297.19 274.57 295.42 279.32 292.14 283.06 C 286.29 290.82 276.75 295.03 267.24 295.97 C 265.32 286.74 263.76 277.42 261.28 268.31 C 259.81 268.26 258.34 268.21 256.87 268.18 C 256.66 267.65 256.24 266.60 256.03 266.08 C 253.73 265.97 251.55 266.34 251.08 268.99 C 249.78 267.02 247.77 266.98 245.70 267.65 C 245.51 268.85 245.31 270.06 245.12 271.28 C 243.44 271.48 241.26 271.48 240.78 273.52 C 238.89 281.07 237.82 288.81 236.40 296.45 C 228.05 295.04 219.18 293.24 212.79 287.25 C 204.97 280.32 200.83 268.93 203.55 258.71 C 211.63 257.64 219.68 256.30 227.82 255.68 C 228.29 259.95 228.31 264.25 228.40 268.54 C 228.97 268.53 230.09 268.51 230.65 268.50 C 230.53 257.39 230.19 246.30 229.62 235.21 Z" fill="#fec5ac" opacity="1.00" stroke="#fec5ac" stroke-width="0.25" data-index="22" style="opacity: 1;"></path>
<path d="M 295.81 258.17 C 297.61 257.65 299.39 257.04 301.21 256.52 C 317.63 259.90 333.50 265.58 348.50 273.06 L 349.29 273.50 C 349.67 273.13 350.43 272.38 350.81 272.01 C 351.04 273.04 351.28 274.07 351.52 275.10 C 355.12 277.05 358.85 279.22 361.09 282.78 C 366.21 289.90 368.06 298.62 370.21 306.96 C 372.85 318.28 375.53 329.59 378.11 340.93 C 379.69 347.66 381.50 354.37 382.63 361.20 C 380.45 361.65 378.29 362.20 376.14 362.76 C 375.65 362.88 374.67 363.13 374.18 363.26 C 360.15 366.12 346.19 369.38 332.21 372.50 C 332.72 374.68 333.27 376.86 333.83 379.04 C 333.42 379.88 332.61 381.57 332.21 382.42 C 331.99 381.15 331.79 379.88 331.60 378.62 C 331.22 382.39 330.99 386.19 331.31 389.98 C 329.95 389.83 328.59 389.69 327.24 389.57 L 326.79 389.28 C 327.12 388.85 327.78 387.98 328.10 387.55 C 328.25 365.59 328.93 343.64 329.45 321.69 C 329.99 321.65 331.07 321.58 331.61 321.55 C 331.74 337.85 331.22 354.14 330.70 370.43 C 347.06 366.71 363.44 363.07 379.84 359.50 C 376.19 341.76 371.66 324.22 367.65 306.56 C 365.78 299.18 364.03 291.54 359.86 285.05 C 355.66 278.92 348.53 276.01 342.21 272.63 C 328.88 266.68 315.07 261.33 300.58 259.12 C 301.51 263.53 301.15 268.07 300.12 272.43 C 299.51 271.55 298.91 270.67 298.32 269.79 C 298.85 266.06 298.61 262.28 298.32 258.54 C 297.69 258.44 296.44 258.26 295.81 258.17 Z" fill="#002443" opacity="1.00" stroke="#002443" stroke-width="0.25" data-index="23" style="opacity: 1;"></path>
<path d="M 160.78 272.60 C 173.55 266.62 187.01 261.99 200.84 259.24 C 198.96 269.33 202.53 280.00 209.60 287.33 C 216.38 294.53 226.29 297.53 235.83 298.71 C 233.36 315.30 227.91 331.28 225.57 347.89 C 225.22 349.76 225.43 351.87 224.28 353.50 C 208.00 364.84 191.52 375.92 175.18 387.18 C 175.11 375.56 174.57 363.95 174.40 352.33 C 174.71 341.95 173.62 331.58 173.67 321.20 C 173.18 320.89 172.18 320.26 171.68 319.95 C 169.73 323.41 170.96 327.49 171.13 331.23 C 171.51 344.13 171.98 357.02 172.42 369.91 C 172.13 369.87 171.53 369.80 171.24 369.76 C 155.12 366.71 139.16 362.77 123.09 359.43 C 127.52 339.46 132.74 319.67 137.78 299.85 C 139.46 294.21 141.15 288.40 144.57 283.54 C 148.88 278.51 154.96 275.52 160.78 272.60 Z" fill="#73e5ff" opacity="1.00" stroke="#73e5ff" stroke-width="0.25" data-index="24" style="opacity: 1;"></path>
<path d="M 300.58 259.12 C 315.07 261.33 328.88 266.68 342.21 272.63 C 348.53 276.01 355.66 278.92 359.86 285.05 C 364.03 291.54 365.78 299.18 367.65 306.56 C 371.66 324.22 376.19 341.76 379.84 359.50 C 363.44 363.07 347.06 366.71 330.70 370.43 C 331.22 354.14 331.74 337.85 331.61 321.55 C 331.07 321.58 329.99 321.65 329.45 321.69 C 328.93 343.64 328.25 365.59 328.10 387.55 C 311.14 376.03 294.17 364.51 277.29 352.88 C 276.34 344.21 276.03 335.42 273.93 326.91 C 271.70 317.52 269.47 308.13 267.54 298.68 C 275.38 297.19 283.35 294.75 289.41 289.34 C 294.68 285.01 298.25 278.94 300.12 272.43 C 301.15 268.07 301.51 263.53 300.58 259.12 Z" fill="#73e5ff" opacity="1.00" stroke="#73e5ff" stroke-width="0.25" data-index="25" style="opacity: 1;"></path>
<path d="M 253.33 278.31 C 253.33 274.76 253.22 271.17 254.09 267.71 C 254.94 271.63 255.09 275.65 255.65 279.62 C 257.53 290.83 260.46 301.85 262.03 313.11 C 262.57 313.32 263.67 313.74 264.21 313.95 C 264.02 314.24 263.63 314.83 263.44 315.13 C 262.26 315.51 261.07 315.84 259.89 316.22 C 257.91 303.44 254.87 290.84 252.26 278.18 C 251.48 277.26 250.68 276.36 249.87 275.48 C 248.74 275.60 247.61 275.72 246.48 275.84 C 246.89 273.45 247.37 271.08 247.93 268.73 C 248.77 272.42 249.78 276.26 253.33 278.31 Z" fill="#efd1be" opacity="1.00" stroke="#efd1be" stroke-width="0.25" data-index="26"></path>
<path d="M 258.65 273.76 C 258.40 272.40 258.49 271.01 259.11 269.77 C 263.55 286.11 265.43 303.03 269.75 319.41 C 268.27 317.76 267.17 315.84 266.38 313.78 C 265.98 313.54 265.17 313.06 264.77 312.82 C 262.64 299.81 260.63 286.79 258.65 273.76 Z" fill="#ecd4cb" opacity="1.00" stroke="#ecd4cb" stroke-width="0.25" data-index="27" style="opacity: 1;"></path>
<path d="M 241.47 281.88 C 241.91 279.08 242.52 276.29 243.42 273.60 C 243.54 274.92 243.65 276.25 243.75 277.58 C 242.38 287.33 241.23 297.10 239.94 306.86 C 239.19 310.08 238.43 313.71 235.03 315.14 C 237.28 304.07 239.66 293.03 241.47 281.88 Z" fill="#f3d4cc" opacity="1.00" stroke="#f3d4cc" stroke-width="0.25" data-index="28"></path>
<path d="M 243.75 277.58 C 244.34 278.98 245.01 280.35 245.54 281.78 C 245.55 291.89 243.41 301.90 242.31 311.94 C 241.96 313.22 241.60 314.50 241.23 315.78 C 237.83 314.16 240.03 309.72 239.94 306.86 C 241.23 297.10 242.38 287.33 243.75 277.58 Z" fill="#0d1e30" opacity="1.00" stroke="#0d1e30" stroke-width="0.25" data-index="29"></path>
<path d="M 248.51 279.62 C 248.55 279.26 248.63 278.56 248.66 278.21 C 249.01 278.37 249.70 278.70 250.04 278.87 C 250.72 283.56 251.82 288.18 252.83 292.81 C 251.93 292.31 251.03 291.82 250.14 291.33 C 250.28 300.55 250.78 309.78 250.34 319.00 L 249.91 320.46 C 249.57 306.84 248.70 293.24 248.51 279.62 Z" fill="#ecd4cb" opacity="1.00" stroke="#ecd4cb" stroke-width="0.25" data-index="30"></path>
<path d="M 250.04 278.87 L 252.26 278.18 C 254.87 290.84 257.91 303.44 259.89 316.22 C 259.82 316.57 259.68 317.28 259.61 317.63 C 259.13 317.59 258.16 317.52 257.68 317.48 C 256.46 309.18 254.44 301.03 252.83 292.81 C 251.82 288.18 250.72 283.56 250.04 278.87 Z" fill="#1b1926" opacity="1.00" stroke="#1b1926" stroke-width="0.25" data-index="31"></path>
<path d="M 246.29 284.51 C 247.01 282.87 247.79 281.26 248.51 279.62 C 248.70 293.24 249.57 306.84 249.91 320.46 C 250.45 333.84 250.58 347.23 251.55 360.59 C 251.56 362.22 251.59 363.86 251.59 365.49 C 250.84 366.00 250.10 366.53 249.37 367.07 C 248.58 350.04 247.72 333.01 247.31 315.96 C 246.64 305.49 246.28 295.00 246.29 284.51 Z" fill="#131b26" opacity="1.00" stroke="#131b26" stroke-width="0.25" data-index="32"></path>
<path d="M 245.54 281.78 C 245.82 282.67 246.07 283.59 246.29 284.51 C 246.28 295.00 246.64 305.49 247.31 315.96 C 247.72 333.01 248.58 350.04 249.37 367.07 C 247.05 369.01 244.90 371.15 242.69 373.21 C 244.00 370.78 245.81 368.71 247.40 366.48 C 248.15 364.04 247.64 361.41 247.64 358.89 C 247.08 350.27 247.65 341.62 246.86 333.01 C 246.22 325.36 246.41 317.67 246.26 310.00 C 245.80 309.78 244.88 309.34 244.42 309.13 C 243.70 310.05 243.00 310.99 242.31 311.94 C 243.41 301.90 245.55 291.89 245.54 281.78 Z" fill="#f4d8cf" opacity="1.00" stroke="#f4d8cf" stroke-width="0.25" data-index="33"></path>
<path d="M 250.14 291.33 C 251.03 291.82 251.93 292.31 252.83 292.81 C 254.44 301.03 256.46 309.18 257.68 317.48 C 258.16 317.52 259.13 317.59 259.61 317.63 C 259.68 317.28 259.82 316.57 259.89 316.22 C 261.07 315.84 262.26 315.51 263.44 315.13 C 263.63 314.83 264.02 314.24 264.21 313.95 L 264.77 312.82 C 265.17 313.06 265.98 313.54 266.38 313.78 C 267.17 315.84 268.27 317.76 269.75 319.41 C 272.81 329.68 274.03 340.36 274.72 351.02 C 274.72 352.67 275.14 354.41 276.74 355.22 C 293.39 366.62 310.03 378.06 326.79 389.28 L 327.24 389.57 C 336.04 395.92 345.24 401.69 354.36 407.57 C 358.00 409.77 361.52 412.25 365.47 413.88 C 365.52 413.30 365.63 412.13 365.68 411.55 C 359.92 408.07 354.02 404.81 348.50 400.96 C 347.03 396.64 342.37 395.51 339.40 392.63 C 337.01 388.60 336.75 383.66 334.03 379.76 L 333.83 379.04 C 333.27 376.86 332.72 374.68 332.21 372.50 C 346.19 369.38 360.15 366.12 374.18 363.26 C 375.63 374.79 378.25 386.15 379.88 397.67 C 379.81 408.78 382.97 419.81 381.51 430.96 C 381.54 435.90 378.63 440.01 376.96 444.47 C 370.99 451.64 360.63 452.87 352.02 450.79 C 344.32 449.18 338.45 443.65 332.47 438.96 C 309.12 419.26 286.70 398.50 264.22 377.83 C 259.89 373.85 255.55 369.85 251.59 365.49 C 251.59 363.86 251.56 362.22 251.55 360.59 C 253.22 352.49 251.96 344.18 251.81 336.00 C 251.55 330.31 251.33 324.61 250.34 319.00 C 250.78 309.78 250.28 300.55 250.14 291.33 Z" fill="#fec4ac" opacity="1.00" stroke="#fec4ac" stroke-width="0.25" data-index="34" style="opacity: 1;"></path>
<path d="M 235.03 315.14 C 238.43 313.71 239.19 310.08 239.94 306.86 C 240.03 309.72 237.83 314.16 241.23 315.78 C 241.60 314.50 241.96 313.22 242.31 311.94 C 243.00 310.99 243.70 310.05 244.42 309.13 C 244.88 309.34 245.80 309.78 246.26 310.00 C 246.41 317.67 246.22 325.36 246.86 333.01 C 247.65 341.62 247.08 350.27 247.64 358.89 C 247.64 361.41 248.15 364.04 247.40 366.48 C 245.81 368.71 244.00 370.78 242.69 373.21 C 229.15 386.51 214.75 398.93 200.89 411.91 C 191.94 419.73 183.15 427.75 174.02 435.38 C 168.35 439.97 162.87 444.96 156.42 448.47 C 147.52 452.79 136.00 453.22 127.74 447.22 C 122.19 442.95 119.40 435.99 118.77 429.17 C 117.68 417.55 120.79 406.13 122.77 394.78 C 124.60 384.19 127.07 373.73 128.80 363.13 C 142.75 365.87 156.52 369.56 170.54 371.98 C 169.05 379.34 166.81 386.52 165.17 393.85 C 155.38 400.23 145.48 406.44 135.44 412.40 C 135.41 412.98 135.36 414.16 135.34 414.74 C 142.75 411.32 149.40 406.54 156.32 402.27 C 170.32 393.40 183.83 383.80 197.61 374.60 C 207.25 367.53 217.64 361.43 226.99 354.01 C 228.75 340.89 231.61 327.93 235.03 315.14 Z" fill="#fec4ac" opacity="1.00" stroke="#fec4ac" stroke-width="0.25" data-index="35"></path>
<path d="M 171.13 331.23 C 170.96 327.49 169.73 323.41 171.68 319.95 C 172.18 320.26 173.18 320.89 173.67 321.20 C 173.62 331.58 174.71 341.95 174.40 352.33 C 173.36 342.57 173.96 332.70 173.04 322.93 C 172.73 322.31 172.11 321.07 171.80 320.44 C 170.98 323.98 171.14 327.63 171.13 331.23 Z" fill="#4490ae" opacity="1.00" stroke="#4490ae" stroke-width="0.25" data-index="36"></path>
<path d="M 249.91 320.46 L 250.34 319.00 C 251.33 324.61 251.55 330.31 251.81 336.00 C 251.96 344.18 253.22 352.49 251.55 360.59 C 250.58 347.23 250.45 333.84 249.91 320.46 Z" fill="#e4cac0" opacity="1.00" stroke="#e4cac0" stroke-width="0.25" data-index="37"></path>
<path d="M 171.13 331.23 C 171.14 327.63 170.98 323.98 171.80 320.44 C 172.11 321.07 172.73 322.31 173.04 322.93 C 173.96 332.70 173.36 342.57 174.40 352.33 C 174.57 363.95 175.11 375.56 175.18 387.18 C 172.64 385.29 174.51 381.13 172.63 378.58 C 172.46 377.48 172.29 376.39 172.14 375.30 C 171.86 373.44 171.56 371.60 171.24 369.76 C 171.53 369.80 172.13 369.87 172.42 369.91 C 171.98 357.02 171.51 344.13 171.13 331.23 Z" fill="#002d4c" opacity="1.00" stroke="#002d4c" stroke-width="0.25" data-index="38"></path>
<path d="M 374.18 363.26 C 374.67 363.13 375.65 362.88 376.14 362.76 C 378.55 375.46 380.81 388.19 383.06 400.92 C 384.77 412.33 387.21 424.12 384.26 435.54 C 382.44 442.91 377.14 449.44 369.98 452.17 C 364.25 454.51 357.91 454.09 351.92 453.27 L 351.33 452.82 C 344.86 451.69 339.44 447.68 334.52 443.58 C 332.98 442.27 331.07 441.27 330.16 439.37 C 330.74 439.27 331.89 439.06 332.47 438.96 C 338.45 443.65 344.32 449.18 352.02 450.79 C 360.63 452.87 370.99 451.64 376.96 444.47 C 382.14 438.69 383.33 430.50 383.31 423.01 C 382.93 414.48 381.42 406.05 379.88 397.67 C 378.25 386.15 375.63 374.79 374.18 363.26 Z" fill="#12212f" opacity="1.00" stroke="#12212f" stroke-width="0.25" data-index="39"></path>
<path d="M 249.37 367.07 C 250.10 366.53 250.84 366.00 251.59 365.49 C 255.55 369.85 259.89 373.85 264.22 377.83 C 286.70 398.50 309.12 419.26 332.47 438.96 C 331.89 439.06 330.74 439.27 330.16 439.37 C 329.77 439.43 328.99 439.54 328.60 439.60 C 329.13 446.71 329.47 453.84 329.69 460.97 C 330.19 469.04 331.11 477.16 330.57 485.25 C 284.06 485.33 237.53 486.29 191.01 485.45 C 185.13 485.06 179.19 485.74 173.36 484.67 C 173.38 468.96 175.13 453.25 174.33 437.57 C 174.23 436.83 174.13 436.10 174.02 435.38 C 183.15 427.75 191.94 419.73 200.89 411.91 C 214.75 398.93 229.15 386.51 242.69 373.21 C 244.90 371.15 247.05 369.01 249.37 367.07 Z" fill="#002239" opacity="1.00" stroke="#002239" stroke-width="0.25" data-index="40"></path>
<path d="M 239.52 379.48 C 243.27 375.67 247.24 372.10 250.99 368.29 C 275.48 391.74 300.90 414.21 326.16 436.81 C 326.80 452.06 327.71 467.32 328.53 482.57 C 277.60 482.85 226.63 484.44 175.71 482.58 C 176.91 466.84 176.44 451.03 177.40 435.28 C 198.64 417.28 218.98 398.27 239.52 379.48 Z" fill="#73e5ff" opacity="1.00" stroke="#73e5ff" stroke-width="0.25" data-index="41" style="opacity: 1;"></path>
<path d="M 168.34 392.03 C 168.99 386.33 171.00 380.90 172.14 375.30 C 172.29 376.39 172.46 377.48 172.63 378.58 C 172.51 381.95 172.44 385.32 172.62 388.69 C 171.18 389.79 169.77 390.92 168.34 392.03 Z" fill="#f4ffff" opacity="1.00" stroke="#f4ffff" stroke-width="0.25" data-index="42"></path>
<path d="M 331.60 378.62 C 331.79 379.88 331.99 381.15 332.21 382.42 C 332.72 385.65 333.66 388.79 334.45 391.97 C 333.42 391.28 332.37 390.61 331.31 389.98 C 330.99 386.19 331.22 382.39 331.60 378.62 Z" fill="#f4ffff" opacity="1.00" stroke="#f4ffff" stroke-width="0.25" data-index="43"></path>
<path d="M 333.83 379.04 L 334.03 379.76 C 335.16 384.55 336.05 389.41 337.67 394.07 C 341.34 396.27 344.84 398.74 348.50 400.96 C 354.02 404.81 359.92 408.07 365.68 411.55 C 365.63 412.13 365.52 413.30 365.47 413.88 C 361.52 412.25 358.00 409.77 354.36 407.57 C 345.24 401.69 336.04 395.92 327.24 389.57 C 328.59 389.69 329.95 389.83 331.31 389.98 C 332.37 390.61 333.42 391.28 334.45 391.97 C 333.66 388.79 332.72 385.65 332.21 382.42 C 332.61 381.57 333.42 379.88 333.83 379.04 Z" fill="#0b2035" opacity="1.00" stroke="#0b2035" stroke-width="0.25" data-index="44"></path>
<path d="M 334.03 379.76 C 336.75 383.66 337.01 388.60 339.40 392.63 C 342.37 395.51 347.03 396.64 348.50 400.96 C 344.84 398.74 341.34 396.27 337.67 394.07 C 336.05 389.41 335.16 384.55 334.03 379.76 Z" fill="#f3d4cc" opacity="1.00" stroke="#f3d4cc" stroke-width="0.25" data-index="45"></path>
<path d="M 379.88 397.67 C 381.42 406.05 382.93 414.48 383.31 423.01 C 383.33 430.50 382.14 438.69 376.96 444.47 C 378.63 440.01 381.54 435.90 381.51 430.96 C 382.97 419.81 379.81 408.78 379.88 397.67 Z" fill="#f3d4cc" opacity="1.00" stroke="#f3d4cc" stroke-width="0.25" data-index="46"></path>
</svg>