<svg xmlns="http://www.w3.org/2000/svg" height="512pt" version="1.1" viewBox="0 0 512 512" width="512pt">
<path d="M 0.00 0.00 L 512.00 0.00 L 512.00 512.00 L 0.00 512.00 L 0.00 0.00 Z" fill="transparent" opacity="1.00" stroke="transparent" stroke-width="0.25" data-index="0" style="opacity: 1;"></path>
<path d="M 307.62 47.46 C 312.05 44.16 317.33 40.02 323.23 41.68 C 326.11 43.41 325.76 47.06 325.38 49.93 C 323.56 61.95 321.43 73.92 319.82 85.97 C 316.52 113.50 308.87 140.88 294.88 164.96 C 285.97 180.19 272.81 192.80 257.44 201.40 C 256.82 203.85 259.37 206.39 260.08 208.86 C 265.65 222.98 270.51 237.95 269.63 253.34 C 294.77 253.81 321.21 261.31 339.12 279.81 C 350.22 291.13 357.48 305.80 361.78 320.95 C 366.56 336.27 368.13 352.33 369.17 368.26 C 376.92 366.74 386.05 368.21 390.81 375.13 C 394.64 380.43 393.18 387.12 392.77 393.14 C 394.02 396.73 396.74 399.94 396.35 403.97 C 396.50 411.37 391.30 417.31 386.12 421.95 C 379.36 427.49 370.82 431.26 361.95 430.93 C 357.47 431.04 353.31 429.16 348.99 428.29 C 347.39 428.65 346.25 429.99 344.92 430.88 C 336.72 437.50 326.11 439.98 315.87 441.23 C 305.93 442.12 295.94 442.37 285.97 441.97 C 273.63 441.51 261.31 442.34 248.98 442.66 C 237.94 443.55 226.83 444.00 215.76 443.30 C 210.08 443.04 204.76 440.31 199.04 440.66 C 188.92 441.26 178.69 441.93 168.62 440.45 C 168.51 439.79 168.30 438.48 168.20 437.83 C 159.99 437.28 151.46 438.08 143.55 435.42 C 140.63 434.42 140.53 431.29 141.50 428.85 C 143.88 422.74 147.24 416.44 153.13 413.08 C 158.02 410.24 163.87 410.01 169.35 410.51 C 174.32 399.42 178.79 388.00 180.61 375.92 C 172.79 367.47 166.43 357.45 163.85 346.11 C 160.82 332.80 161.39 318.68 165.39 305.64 C 155.59 302.11 146.67 295.95 140.06 287.88 C 137.56 284.44 134.68 280.70 134.96 276.21 C 135.90 276.30 137.78 276.49 138.72 276.59 C 141.89 286.26 149.98 293.47 158.68 298.24 C 178.15 308.31 201.71 308.35 222.28 301.78 C 238.69 297.12 254.64 286.82 261.74 270.78 C 267.30 257.56 266.55 242.53 262.84 228.91 C 260.25 219.94 257.45 210.94 252.98 202.69 C 251.30 202.49 249.62 202.29 247.94 202.09 C 255.14 197.26 262.85 193.12 269.45 187.43 C 277.23 180.48 284.40 172.71 289.85 163.77 C 304.40 139.99 312.97 112.84 316.68 85.31 C 318.83 74.57 320.15 63.68 322.04 52.90 C 322.66 50.00 322.31 47.04 321.40 44.24 C 318.33 44.76 315.30 45.79 312.88 47.82 C 307.00 52.59 301.29 57.58 295.54 62.51 C 287.02 69.62 278.07 76.36 270.87 84.88 C 245.90 111.77 232.37 147.02 223.84 182.19 C 222.44 181.87 221.05 181.56 219.65 181.26 C 219.54 180.16 219.42 179.07 219.31 177.98 C 207.12 174.96 193.81 175.76 182.43 181.24 C 171.26 186.21 161.99 195.05 155.80 205.52 C 151.91 211.42 149.48 218.10 147.31 224.78 C 149.93 226.56 151.67 229.25 151.86 232.46 C 151.21 233.88 150.56 235.31 149.94 236.75 C 148.10 237.80 146.10 238.50 144.09 239.12 C 143.18 246.38 140.84 253.31 138.28 260.13 C 137.14 259.02 136.01 257.92 134.87 256.83 C 131.60 257.16 129.28 254.58 127.49 252.24 C 123.28 249.19 118.96 246.28 115.02 242.88 C 112.93 240.87 109.93 240.17 107.96 238.03 C 106.86 236.92 105.54 236.08 104.26 235.20 C 106.96 236.62 109.62 238.12 112.03 240.00 C 117.14 244.70 122.73 248.88 128.62 252.54 C 130.00 253.56 131.12 254.87 132.27 256.14 C 133.26 256.16 134.24 256.18 135.23 256.19 C 139.84 240.81 140.97 224.33 148.08 209.75 C 153.88 197.78 163.32 187.45 174.92 180.90 C 174.24 171.31 170.79 162.23 168.20 153.05 C 158.85 123.71 153.14 92.86 154.68 61.98 C 155.07 57.38 155.43 52.66 157.15 48.34 C 158.08 45.99 160.45 44.59 162.95 45.42 C 167.77 46.86 168.70 52.48 170.39 56.52 C 174.78 70.37 180.35 84.06 189.23 95.69 C 193.61 102.14 198.47 108.45 200.88 115.97 C 208.20 133.76 208.27 153.45 207.08 172.35 C 211.64 172.56 216.13 173.46 220.50 174.74 C 223.96 159.51 228.88 144.57 235.58 130.45 C 245.93 108.85 259.08 88.12 277.11 72.11 C 287.19 63.78 297.48 55.71 307.62 47.46 Z" fill="#032640" opacity="1.00" stroke="#032640" stroke-width="0.25" data-index="1"></path>
<path d="M 312.88 47.82 C 315.30 45.79 318.33 44.76 321.40 44.24 C 322.31 47.04 322.66 50.00 322.04 52.90 C 320.15 63.68 318.83 74.57 316.68 85.31 C 311.95 94.84 312.45 105.90 308.79 115.79 C 307.23 119.95 305.68 124.12 304.49 128.41 C 302.63 135.33 298.60 141.38 296.34 148.15 C 294.27 154.81 289.39 159.93 285.62 165.63 C 278.67 175.87 269.13 184.09 258.80 190.78 C 254.21 194.06 248.22 196.20 246.12 201.93 C 246.57 201.97 247.49 202.05 247.94 202.09 C 249.62 202.29 251.30 202.49 252.98 202.69 C 257.45 210.94 260.25 219.94 262.84 228.91 C 266.55 242.53 267.30 257.56 261.74 270.78 C 254.64 286.82 238.69 297.12 222.28 301.78 C 214.86 302.43 207.45 303.79 199.97 303.45 C 193.36 303.17 186.77 302.29 180.34 300.75 C 177.71 300.16 175.43 298.68 173.24 297.19 C 175.53 296.71 177.78 296.08 179.99 295.34 C 179.28 292.31 177.91 289.50 176.42 286.79 C 178.46 284.76 180.93 282.90 182.01 280.13 C 182.73 278.07 182.99 275.89 183.36 273.75 C 182.54 273.63 181.72 273.50 180.90 273.39 C 180.04 276.90 179.56 281.02 176.47 283.38 C 171.94 286.78 165.33 285.27 161.48 281.55 C 158.64 278.62 157.08 274.76 155.53 271.07 L 156.49 270.42 C 160.76 267.88 165.96 263.84 164.45 258.15 C 163.53 254.77 159.37 254.93 156.59 255.09 C 156.16 255.28 155.28 255.67 154.84 255.86 C 152.66 256.99 150.33 257.80 147.91 256.86 C 146.40 256.56 144.88 256.22 143.38 255.91 C 143.37 248.81 148.25 243.37 149.94 236.75 C 150.56 235.31 151.21 233.88 151.86 232.46 C 153.68 229.06 155.01 225.39 155.19 221.50 C 155.52 216.19 157.11 210.82 155.80 205.52 C 161.99 195.05 171.26 186.21 182.43 181.24 C 193.81 175.76 207.12 174.96 219.31 177.98 C 219.42 179.07 219.54 180.16 219.65 181.26 C 221.05 181.56 222.44 181.87 223.84 182.19 C 232.37 147.02 245.90 111.77 270.87 84.88 C 278.07 76.36 287.02 69.62 295.54 62.51 C 301.29 57.58 307.00 52.59 312.88 47.82 Z" fill="#ffffff" opacity="1.00" stroke="#ffffff" stroke-width="0.25" data-index="2"></path>
<path d="M 161.63 49.57 C 162.16 49.56 163.22 49.55 163.75 49.54 C 167.31 54.38 168.25 60.44 170.32 65.95 C 174.97 80.34 183.15 93.20 191.13 105.93 C 197.78 117.55 201.12 130.84 202.30 144.10 C 202.80 151.51 202.59 158.94 202.49 166.36 C 195.92 166.53 189.70 168.65 183.62 170.94 C 181.62 155.72 176.92 141.03 173.54 126.10 C 169.86 114.04 165.21 102.21 163.13 89.73 C 162.28 84.85 161.68 79.85 159.54 75.31 C 159.24 68.90 159.33 62.46 159.75 56.06 C 159.83 53.77 160.71 51.63 161.63 49.57 Z" fill="#ffffff" opacity="1.00" stroke="#ffffff" stroke-width="0.25" data-index="3"></path>
<path d="M 304.59 60.50 C 308.22 57.01 311.64 53.18 315.90 50.44 C 316.48 50.51 317.64 50.66 318.22 50.73 C 318.98 55.26 317.30 59.71 316.55 64.14 C 314.85 73.23 311.79 81.96 309.11 90.78 C 305.72 100.88 302.79 111.18 298.61 120.98 C 297.92 120.91 296.52 120.75 295.82 120.67 C 299.97 110.86 303.04 100.66 306.53 90.61 C 310.90 77.98 315.24 65.15 316.59 51.78 C 308.07 59.21 300.84 67.97 292.90 75.98 C 282.93 85.87 274.36 97.22 267.92 109.71 C 264.92 115.66 263.34 122.17 261.09 128.40 C 261.23 122.72 262.76 117.24 264.09 111.76 C 265.70 106.63 268.97 102.28 271.76 97.76 C 280.78 83.77 292.76 72.08 304.59 60.50 Z" fill="#0c1625" opacity="1.00" stroke="#0c1625" stroke-width="0.25" data-index="4"></path>
<path d="M 292.90 75.98 C 300.84 67.97 308.07 59.21 316.59 51.78 C 315.24 65.15 310.90 77.98 306.53 90.61 C 303.04 100.66 299.97 110.86 295.82 120.67 C 289.07 137.35 281.71 154.80 267.56 166.62 C 261.49 171.30 256.06 176.91 249.12 180.34 C 252.43 162.89 256.70 145.62 261.09 128.40 C 263.34 122.17 264.92 115.66 267.92 109.71 C 274.36 97.22 282.93 85.87 292.90 75.98 Z" fill="#f56d53" opacity="1.00" stroke="#f56d53" stroke-width="0.25" data-index="5"></path>
<path d="M 159.54 75.31 C 161.68 79.85 162.28 84.85 163.13 89.73 C 165.21 102.21 169.86 114.04 173.54 126.10 C 176.92 141.03 181.62 155.72 183.62 170.94 C 189.70 168.65 195.92 166.53 202.49 166.36 C 202.40 168.36 202.32 170.37 202.25 172.38 C 194.78 173.17 187.50 175.16 180.57 178.03 C 176.85 159.51 170.19 141.75 165.85 123.39 C 162.04 107.66 159.45 91.52 159.54 75.31 Z" fill="#a5eafd" opacity="1.00" stroke="#a5eafd" stroke-width="0.25" data-index="6"></path>
<path d="M 308.79 115.79 C 312.45 105.90 311.95 94.84 316.68 85.31 C 312.97 112.84 304.40 139.99 289.85 163.77 C 284.40 172.71 277.23 180.48 269.45 187.43 C 262.85 193.12 255.14 197.26 247.94 202.09 C 247.49 202.05 246.57 201.97 246.12 201.93 C 248.22 196.20 254.21 194.06 258.80 190.78 C 269.13 184.09 278.67 175.87 285.62 165.63 C 289.39 159.93 294.27 154.81 296.34 148.15 C 298.60 141.38 302.63 135.33 304.49 128.41 C 305.68 124.12 307.23 119.95 308.79 115.79 Z" fill="#afe9fa" opacity="1.00" stroke="#afe9fa" stroke-width="0.25" data-index="7"></path>
<path d="M 257.74 129.09 C 259.48 123.18 261.48 117.34 264.09 111.76 C 262.76 117.24 261.23 122.72 261.09 128.40 C 256.70 145.62 252.43 162.89 249.12 180.34 C 256.06 176.91 261.49 171.30 267.56 166.62 C 281.71 154.80 289.07 137.35 295.82 120.67 C 296.52 120.75 297.92 120.91 298.61 120.98 C 293.38 136.03 286.39 150.75 275.93 162.91 C 269.54 170.29 261.44 175.91 253.17 180.97 C 250.41 182.67 247.42 183.96 244.33 184.95 C 248.26 166.21 252.36 147.47 257.74 129.09 Z" fill="#0c1e32" opacity="1.00" stroke="#0c1e32" stroke-width="0.25" data-index="8"></path>
<path d="M 198.69 204.80 C 203.26 200.73 209.99 199.82 215.77 201.28 C 217.77 201.25 218.53 204.73 216.30 205.06 C 212.91 205.40 209.46 204.77 206.11 205.51 C 203.39 206.14 201.13 207.88 199.17 209.78 C 198.28 209.27 196.02 209.85 196.56 208.12 C 196.06 206.54 197.83 205.75 198.69 204.80 Z" fill="#0b2641" opacity="1.00" stroke="#0b2641" stroke-width="0.25" data-index="9"></path>
<path d="M 147.31 224.78 C 149.48 218.10 151.91 211.42 155.80 205.52 C 157.11 210.82 155.52 216.19 155.19 221.50 C 155.01 225.39 153.68 229.06 151.86 232.46 C 151.67 229.25 149.93 226.56 147.31 224.78 Z" fill="#a4e9fb" opacity="1.00" stroke="#a4e9fb" stroke-width="0.25" data-index="10"></path>
<path d="M 209.51 222.67 C 212.69 221.59 216.66 222.86 218.02 226.09 C 220.53 231.67 219.50 239.65 213.92 243.00 C 210.16 244.64 205.28 243.60 202.96 240.07 C 199.52 233.84 202.90 225.20 209.51 222.67 Z" fill="#02243f" opacity="1.00" stroke="#02243f" stroke-width="0.25" data-index="11"></path>
<path d="M 207.13 229.13 C 207.21 227.17 209.25 227.56 210.62 227.29 C 210.85 228.65 212.19 231.45 209.91 231.63 C 208.41 232.36 206.18 230.76 207.13 229.13 Z" fill="#f5ffff" opacity="1.00" stroke="#f5ffff" stroke-width="0.25" data-index="12"></path>
<path d="M 144.09 239.12 C 146.10 238.50 148.10 237.80 149.94 236.75 C 148.25 243.37 143.37 248.81 143.38 255.91 C 144.88 256.22 146.40 256.56 147.91 256.86 C 145.55 256.61 142.62 256.98 141.52 259.39 C 140.62 263.47 143.53 267.40 146.99 269.25 C 148.92 270.53 150.94 271.72 152.56 273.39 C 154.56 275.60 155.17 278.64 156.03 281.40 C 153.92 282.58 151.56 284.23 149.04 283.12 C 147.10 281.60 145.98 279.30 144.04 277.78 C 143.37 281.30 146.30 284.21 149.23 285.58 C 151.38 286.70 153.78 285.82 156.01 285.51 C 159.24 292.05 165.49 297.75 173.24 297.19 C 175.43 298.68 177.71 300.16 180.34 300.75 C 186.77 302.29 193.36 303.17 199.97 303.45 C 207.45 303.79 214.86 302.43 222.28 301.78 C 201.71 308.35 178.15 308.31 158.68 298.24 C 149.98 293.47 141.89 286.26 138.72 276.59 C 137.78 276.49 135.90 276.30 134.96 276.21 L 135.85 275.95 C 136.51 275.78 137.82 275.42 138.47 275.25 C 138.21 273.86 137.95 272.49 137.70 271.11 C 136.58 271.16 134.34 271.26 133.23 271.31 C 134.80 271.05 136.37 270.79 137.95 270.54 C 137.92 268.77 137.91 267.01 137.81 265.25 C 137.75 264.90 137.63 264.21 137.58 263.86 C 136.44 262.91 135.26 262.02 134.14 261.08 L 134.12 260.18 C 135.03 261.52 136.77 261.91 138.27 261.47 C 137.25 260.27 136.14 258.71 134.40 258.70 L 134.87 256.83 C 136.01 257.92 137.14 259.02 138.28 260.13 C 140.84 253.31 143.18 246.38 144.09 239.12 Z" fill="#a4eafd" opacity="1.00" stroke="#a4eafd" stroke-width="0.25" data-index="13"></path>
<path d="M 182.27 251.23 C 186.88 248.99 191.31 246.20 196.38 245.10 C 193.85 248.39 189.50 249.16 186.10 251.23 C 179.61 254.36 173.56 258.40 166.83 261.03 C 170.86 256.26 176.96 254.19 182.27 251.23 Z" fill="#e2e3e3" opacity="1.00" stroke="#e2e3e3" stroke-width="0.25" data-index="14"></path>
<path d="M 98.82 246.17 C 103.90 247.26 108.49 249.75 113.25 251.73 C 119.81 254.48 126.29 257.46 132.56 260.84 C 132.94 260.46 133.71 259.70 134.09 259.33 L 134.12 260.18 L 134.14 261.08 C 133.91 261.89 133.46 263.52 133.24 264.34 C 134.76 264.64 136.28 264.95 137.81 265.25 C 137.91 267.01 137.92 268.77 137.95 270.54 C 136.37 270.79 134.80 271.05 133.23 271.31 C 133.32 271.97 133.50 273.30 133.59 273.97 C 133.15 273.29 132.71 272.61 132.28 271.94 C 120.85 274.13 109.40 276.24 98.07 278.94 C 95.40 279.63 92.63 279.71 89.88 279.72 C 96.91 277.13 104.38 276.19 111.64 274.52 C 118.84 272.88 126.18 271.96 133.42 270.54 C 131.32 269.89 129.16 269.37 126.95 269.28 C 114.81 268.56 102.64 268.22 90.51 267.29 C 94.06 265.52 98.14 266.79 101.92 266.79 C 111.79 267.17 121.66 267.49 131.50 268.48 C 133.61 268.87 132.56 265.68 131.07 265.76 C 122.20 263.87 113.09 263.51 104.15 262.05 L 103.48 261.06 C 113.42 261.58 123.34 262.80 133.08 264.83 C 132.98 264.13 132.77 262.73 132.67 262.03 C 124.22 258.30 115.91 254.24 107.42 250.61 C 104.39 249.46 101.42 248.13 98.82 246.17 Z" fill="#d6d9db" opacity="1.00" stroke="#d6d9db" stroke-width="0.25" data-index="15"></path>
<path d="M 193.96 253.68 C 198.60 252.51 203.24 250.19 208.14 251.18 C 200.30 253.87 192.26 255.90 184.36 258.41 C 179.22 259.99 174.30 262.51 168.84 262.87 C 176.57 258.31 185.51 256.47 193.96 253.68 Z" fill="#e1e3e2" opacity="1.00" stroke="#e1e3e2" stroke-width="0.25" data-index="16"></path>
<path d="M 154.84 255.86 C 155.28 255.67 156.16 255.28 156.59 255.09 C 157.83 255.54 159.08 255.98 160.31 256.47 C 155.56 259.21 150.18 260.02 144.77 259.83 C 142.82 265.08 149.23 266.76 152.82 268.31 C 156.06 266.24 159.32 264.21 162.37 261.86 C 160.54 265.72 156.42 267.46 153.14 269.83 C 152.77 269.76 152.03 269.60 151.66 269.53 C 149.05 268.17 146.20 266.98 144.23 264.70 C 142.72 262.94 142.28 259.93 144.37 258.42 C 146.74 258.04 149.09 258.84 151.38 259.34 C 153.23 258.17 155.06 256.99 156.85 255.74 L 154.84 255.86 Z" fill="#aa635c" opacity="1.00" stroke="#aa635c" stroke-width="0.25" data-index="17"></path>
<path d="M 156.59 255.09 C 159.37 254.93 163.53 254.77 164.45 258.15 C 165.96 263.84 160.76 267.88 156.49 270.42 C 155.66 270.27 153.98 269.98 153.14 269.83 C 156.42 267.46 160.54 265.72 162.37 261.86 C 163.04 259.71 162.07 257.72 160.31 256.47 C 159.08 255.98 157.83 255.54 156.59 255.09 Z" fill="#0e1121" opacity="1.00" stroke="#0e1121" stroke-width="0.25" data-index="18"></path>
<path d="M 147.91 256.86 C 150.33 257.80 152.66 256.99 154.84 255.86 L 156.85 255.74 C 155.06 256.99 153.23 258.17 151.38 259.34 C 149.09 258.84 146.74 258.04 144.37 258.42 C 142.28 259.93 142.72 262.94 144.23 264.70 C 146.20 266.98 149.05 268.17 151.66 269.53 C 150.10 269.41 148.54 269.36 146.99 269.25 C 143.53 267.40 140.62 263.47 141.52 259.39 C 142.62 256.98 145.55 256.61 147.91 256.86 Z" fill="#0e1121" opacity="1.00" stroke="#0e1121" stroke-width="0.25" data-index="19"></path>
<path d="M 144.77 259.83 C 150.18 260.02 155.56 259.21 160.31 256.47 C 162.07 257.72 163.04 259.71 162.37 261.86 C 159.32 264.21 156.06 266.24 152.82 268.31 C 149.23 266.76 142.82 265.08 144.77 259.83 Z" fill="#f3684c" opacity="1.00" stroke="#f3684c" stroke-width="0.25" data-index="20"></path>
<path d="M 134.40 258.70 C 136.14 258.71 137.25 260.27 138.27 261.47 C 136.77 261.91 135.03 261.52 134.12 260.18 L 134.09 259.33 L 134.40 258.70 Z" fill="#0e1121" opacity="1.00" stroke="#0e1121" stroke-width="0.25" data-index="21"></path>
<path d="M 268.78 259.47 C 270.62 259.31 272.45 259.16 274.29 259.04 C 272.83 264.82 271.69 270.96 267.79 275.71 C 254.46 295.04 233.93 309.25 211.10 314.80 C 206.76 315.78 202.37 316.55 198.00 317.44 C 191.08 318.96 183.94 318.40 176.92 318.96 C 177.07 329.16 177.78 339.68 182.14 349.06 C 184.46 354.59 188.62 359.08 192.97 363.10 C 194.76 365.04 197.59 364.98 200.01 364.75 C 204.84 364.41 206.83 357.52 211.94 358.64 C 212.88 359.87 213.40 361.38 212.97 362.92 C 211.95 369.56 209.82 375.97 207.29 382.18 C 207.57 377.71 208.81 373.30 208.43 368.80 C 204.77 373.74 205.07 380.43 202.76 386.01 C 193.75 380.80 185.71 373.92 179.17 365.83 C 171.79 355.76 167.42 343.51 167.17 331.00 C 166.54 322.99 168.36 315.14 169.93 307.36 C 186.87 311.42 204.89 310.66 221.55 305.70 C 235.79 301.77 249.12 293.96 258.73 282.67 C 264.45 276.22 267.10 267.75 268.78 259.47 Z" fill="#a5ebfe" opacity="1.00" stroke="#a5ebfe" stroke-width="0.25" data-index="22"></path>
<path d="M 274.29 259.04 C 291.55 259.23 309.09 263.34 323.86 272.47 C 333.19 278.48 341.21 286.48 347.07 295.93 C 355.43 308.84 358.96 324.13 361.50 339.10 C 363.25 349.00 363.85 359.05 364.18 369.08 C 364.24 372.14 364.02 375.21 363.46 378.22 C 361.84 383.20 360.84 388.34 359.71 393.45 C 356.69 404.32 349.69 414.23 340.00 420.13 C 332.92 424.06 325.14 426.81 317.08 427.80 C 297.49 430.64 277.60 429.01 257.97 431.52 C 247.60 432.10 237.28 433.97 226.86 433.37 C 226.82 431.98 226.77 430.59 226.72 429.22 C 228.20 427.63 229.68 426.04 231.13 424.42 C 226.17 422.84 223.61 428.82 222.52 432.60 C 219.96 432.77 217.40 433.01 214.84 433.16 C 215.23 431.87 215.62 430.60 216.05 429.34 C 217.83 425.93 221.74 424.29 224.46 421.70 C 217.41 421.24 211.91 426.95 209.58 433.09 C 208.51 432.74 207.44 432.39 206.37 432.05 C 206.53 430.71 206.70 429.37 206.90 428.05 C 209.03 420.25 216.22 414.71 223.84 412.79 C 234.10 410.34 245.28 410.89 254.93 415.35 C 258.82 416.91 262.06 419.79 266.11 421.02 C 264.44 416.78 259.62 415.36 256.13 412.99 L 256.05 412.70 C 254.89 406.98 250.93 402.50 248.75 397.20 C 245.65 389.91 242.66 382.04 244.03 373.98 C 245.51 365.10 248.30 356.20 253.70 348.89 C 260.13 339.27 269.78 332.40 279.55 326.51 C 285.52 322.74 292.19 319.51 299.41 319.53 C 299.40 319.01 299.39 317.97 299.38 317.44 C 297.90 317.47 296.43 317.50 294.96 317.55 C 295.20 316.78 295.69 315.24 295.94 314.47 C 287.40 314.10 279.45 317.73 272.64 322.58 C 254.88 333.62 242.90 352.14 236.74 371.83 C 232.90 384.08 228.38 396.11 224.88 408.46 C 214.03 411.21 203.66 419.42 202.02 431.05 C 200.24 433.85 196.73 433.44 193.84 433.78 C 193.90 433.05 194.00 431.60 194.05 430.87 C 194.94 428.41 197.37 426.80 197.82 424.13 C 193.90 425.89 191.80 429.81 190.32 433.63 C 187.60 433.41 184.88 433.17 182.17 432.91 C 182.67 427.76 187.24 425.04 190.06 421.25 C 184.45 422.64 180.13 427.35 178.89 432.95 C 177.34 432.71 175.79 432.47 174.25 432.23 C 176.19 422.20 186.55 415.22 196.55 416.36 C 201.04 405.28 204.28 393.73 207.29 382.18 C 209.82 375.97 211.95 369.56 212.97 362.92 C 213.40 361.38 212.88 359.87 211.94 358.64 C 206.83 357.52 204.84 364.41 200.01 364.75 C 197.59 364.98 194.76 365.04 192.97 363.10 C 188.62 359.08 184.46 354.59 182.14 349.06 C 177.78 339.68 177.07 329.16 176.92 318.96 C 183.94 318.40 191.08 318.96 198.00 317.44 C 202.37 316.55 206.76 315.78 211.10 314.80 C 233.93 309.25 254.46 295.04 267.79 275.71 C 271.69 270.96 272.83 264.82 274.29 259.04 Z" fill="#ffffff" opacity="1.00" stroke="#ffffff" stroke-width="0.25" data-index="23"></path>
<path d="M 134.14 261.08 C 135.26 262.02 136.44 262.91 137.58 263.86 C 137.63 264.21 137.75 264.90 137.81 265.25 C 136.28 264.95 134.76 264.64 133.24 264.34 C 133.46 263.52 133.91 261.89 134.14 261.08 Z" fill="#001f37" opacity="1.00" stroke="#001f37" stroke-width="0.25" data-index="24"></path>
<path d="M 177.04 263.73 C 183.81 262.66 190.68 260.85 197.56 262.18 C 193.18 263.63 188.52 263.52 184.01 264.25 C 178.89 264.86 173.84 266.34 168.65 265.87 C 171.38 264.90 174.18 264.14 177.04 263.73 Z" fill="#e5e7e6" opacity="1.00" stroke="#e5e7e6" stroke-width="0.25" data-index="25"></path>
<path d="M 214.30 262.35 C 217.80 262.09 221.54 260.99 224.87 262.65 C 216.28 264.01 207.59 264.56 198.97 265.66 C 195.17 265.90 191.18 267.13 187.50 265.64 C 196.37 264.14 205.37 263.54 214.30 262.35 Z" fill="#e0e2e1" opacity="1.00" stroke="#e0e2e1" stroke-width="0.25" data-index="26"></path>
<path d="M 133.14 265.54 C 134.28 265.62 136.55 265.78 137.69 265.85 C 137.69 267.34 137.70 268.83 137.70 270.32 C 136.56 270.36 134.30 270.43 133.16 270.47 C 133.16 268.82 133.16 267.18 133.14 265.54 Z" fill="#02243f" opacity="1.00" stroke="#02243f" stroke-width="0.25" data-index="27"></path>
<path d="M 146.99 269.25 C 148.54 269.36 150.10 269.41 151.66 269.53 C 152.03 269.60 152.77 269.76 153.14 269.83 C 153.98 269.98 155.66 270.27 156.49 270.42 L 155.53 271.07 C 157.08 274.76 158.64 278.62 161.48 281.55 C 165.33 285.27 171.94 286.78 176.47 283.38 C 179.56 281.02 180.04 276.90 180.90 273.39 C 181.72 273.50 182.54 273.63 183.36 273.75 C 182.99 275.89 182.73 278.07 182.01 280.13 C 180.93 282.90 178.46 284.76 176.42 286.79 C 177.91 289.50 179.28 292.31 179.99 295.34 C 177.78 296.08 175.53 296.71 173.24 297.19 C 165.49 297.75 159.24 292.05 156.01 285.51 C 153.78 285.82 151.38 286.70 149.23 285.58 C 146.30 284.21 143.37 281.30 144.04 277.78 C 145.98 279.30 147.10 281.60 149.04 283.12 C 151.56 284.23 153.92 282.58 156.03 281.40 C 155.17 278.64 154.56 275.60 152.56 273.39 C 150.94 271.72 148.92 270.53 146.99 269.25 Z" fill="#001f37" opacity="1.00" stroke="#001f37" stroke-width="0.25" data-index="28"></path>
<path d="M 183.04 269.83 C 190.55 269.74 198.06 267.88 205.54 269.35 C 199.88 271.32 193.82 270.72 187.95 271.19 C 183.19 271.31 178.38 272.72 173.66 271.44 C 176.65 270.26 179.85 269.85 183.04 269.83 Z" fill="#e0e2e1" opacity="1.00" stroke="#e0e2e1" stroke-width="0.25" data-index="29"></path>
<path d="M 133.23 271.31 C 134.34 271.26 136.58 271.16 137.70 271.11 C 137.95 272.49 138.21 273.86 138.47 275.25 C 137.82 275.42 136.51 275.78 135.85 275.95 C 135.37 276.08 134.42 276.35 133.94 276.48 C 133.85 275.85 133.68 274.60 133.59 273.97 C 133.50 273.30 133.32 271.97 133.23 271.31 Z" fill="#0a2137" opacity="1.00" stroke="#0a2137" stroke-width="0.25" data-index="30"></path>
<path d="M 118.42 286.39 C 123.60 283.08 128.92 279.95 133.78 276.16 C 133.90 276.83 134.14 278.17 134.26 278.84 C 127.04 282.16 121.08 287.59 113.97 291.09 C 115.09 289.22 116.51 287.50 118.42 286.39 Z" fill="#e5e6e5" opacity="1.00" stroke="#e5e6e5" stroke-width="0.25" data-index="31"></path>
<path d="M 158.17 282.95 C 163.28 284.51 164.99 289.74 166.89 294.15 C 162.53 291.97 158.81 287.93 158.17 282.95 Z" fill="#f8ffff" opacity="1.00" stroke="#f8ffff" stroke-width="0.25" data-index="32"></path>
<path d="M 166.02 287.56 C 168.82 287.78 171.63 287.77 174.44 287.63 C 175.38 289.64 176.32 291.66 177.19 293.71 C 174.58 294.33 171.90 294.56 169.21 294.58 C 168.24 292.20 167.16 289.87 166.02 287.56 Z" fill="#fbfffe" opacity="1.00" stroke="#fbfffe" stroke-width="0.25" data-index="33"></path>
<path d="M 272.64 322.58 C 279.45 317.73 287.40 314.10 295.94 314.47 C 295.69 315.24 295.20 316.78 294.96 317.55 C 287.52 318.81 280.55 321.93 274.24 326.01 C 260.77 333.86 248.15 344.98 242.90 360.08 C 239.93 368.77 238.75 377.98 238.58 387.13 C 235.77 393.72 233.38 400.49 231.47 407.41 C 229.27 407.75 227.08 408.13 224.88 408.46 C 228.38 396.11 232.90 384.08 236.74 371.83 C 242.90 352.14 254.88 333.62 272.64 322.58 Z" fill="#a6ebfd" opacity="1.00" stroke="#a6ebfd" stroke-width="0.25" data-index="34"></path>
<path d="M 369.59 372.79 C 371.10 372.57 372.60 372.33 374.13 372.11 C 373.68 372.27 372.78 372.60 372.33 372.76 C 374.06 375.28 376.68 377.73 376.48 381.05 C 375.86 384.42 373.68 387.21 372.43 390.35 C 371.14 393.17 371.98 396.32 372.22 399.27 C 374.12 400.08 377.44 399.52 377.96 402.07 C 379.14 405.28 377.15 408.66 374.65 410.60 C 371.92 413.02 367.05 414.16 367.72 418.72 C 374.01 419.04 381.21 418.80 385.63 413.61 C 390.23 409.58 390.81 403.26 390.63 397.53 C 394.31 402.97 392.48 410.52 388.06 414.97 C 379.20 424.86 364.20 429.73 351.53 424.95 C 359.80 413.83 365.22 400.71 367.62 387.08 C 368.50 382.35 368.91 377.55 369.59 372.79 Z" fill="#a3ebfe" opacity="1.00" stroke="#a3ebfe" stroke-width="0.25" data-index="35"></path>
<path d="M 374.13 372.11 C 380.29 370.63 386.72 374.80 389.33 380.34 C 388.54 383.58 387.34 386.72 386.85 390.03 C 386.44 392.47 388.12 394.47 389.67 396.11 L 390.63 397.13 L 390.63 397.53 C 390.81 403.26 390.23 409.58 385.63 413.61 C 381.21 418.80 374.01 419.04 367.72 418.72 C 367.05 414.16 371.92 413.02 374.65 410.60 C 377.15 408.66 379.14 405.28 377.96 402.07 C 377.44 399.52 374.12 400.08 372.22 399.27 C 371.98 396.32 371.14 393.17 372.43 390.35 C 373.68 387.21 375.86 384.42 376.48 381.05 C 376.68 377.73 374.06 375.28 372.33 372.76 C 372.78 372.60 373.68 372.27 374.13 372.11 Z" fill="#feffff" opacity="1.00" stroke="#feffff" stroke-width="0.25" data-index="36"></path>
<path d="M 247.52 409.20 C 243.21 398.08 242.10 385.77 244.03 373.98 C 242.66 382.04 245.65 389.91 248.75 397.20 C 250.93 402.50 254.89 406.98 256.05 412.70 C 253.20 411.53 250.25 410.61 247.52 409.20 Z" fill="#a2ebfb" opacity="1.00" stroke="#a2ebfb" stroke-width="0.25" data-index="37"></path>
<path d="M 183.61 378.68 C 188.32 382.99 193.31 387.06 198.87 390.24 C 199.69 390.86 201.41 391.44 200.82 392.82 C 199.17 399.55 196.46 405.97 194.29 412.54 C 185.68 413.19 177.82 418.07 172.63 424.83 C 170.70 427.42 170.06 430.66 169.29 433.73 C 166.20 433.68 163.11 433.51 160.02 433.35 C 160.34 430.25 160.24 426.87 162.14 424.23 C 163.17 422.57 165.01 421.17 164.63 418.99 C 159.88 422.00 157.37 427.37 157.57 432.94 C 156.16 432.79 154.76 432.65 153.36 432.51 C 154.35 428.80 156.26 425.47 158.38 422.30 C 153.88 423.12 152.37 427.96 151.19 431.72 C 150.17 431.61 149.15 431.49 148.14 431.39 C 148.76 426.30 151.09 421.34 154.44 417.50 C 159.68 413.65 166.75 413.23 172.99 414.15 C 177.10 402.52 180.85 390.72 183.61 378.68 Z" fill="#a3ebff" opacity="1.00" stroke="#a3ebff" stroke-width="0.25" data-index="38"></path>
<path d="M 359.71 393.45 C 360.84 388.34 361.84 383.20 363.46 378.22 C 363.96 384.28 362.07 390.16 360.82 396.01 C 357.28 409.82 349.83 424.03 336.16 430.03 C 317.16 438.18 296.01 434.91 275.95 436.11 C 258.97 436.24 242.11 438.77 225.14 438.84 C 225.30 435.58 225.67 432.32 226.72 429.22 C 226.77 430.59 226.82 431.98 226.86 433.37 C 237.28 433.97 247.60 432.10 257.97 431.52 C 277.60 429.01 297.49 430.64 317.08 427.80 C 325.14 426.81 332.92 424.06 340.00 420.13 C 349.69 414.23 356.69 404.32 359.71 393.45 Z" fill="#a5eafc" opacity="1.00" stroke="#a5eafc" stroke-width="0.25" data-index="39"></path>
<path d="M 389.33 380.34 C 390.86 385.51 389.37 390.84 389.67 396.11 C 388.12 394.47 386.44 392.47 386.85 390.03 C 387.34 386.72 388.54 383.58 389.33 380.34 Z" fill="#b1eefa" opacity="1.00" stroke="#b1eefa" stroke-width="0.25" data-index="40"></path>

<path d="M 206.34 436.47 C 206.09 433.64 206.05 430.78 206.90 428.05 C 206.70 429.37 206.53 430.71 206.37 432.05 C 207.44 432.39 208.51 432.74 209.58 433.09 C 209.37 434.32 209.17 435.56 208.96 436.79 C 208.31 436.71 206.99 436.55 206.34 436.47 Z" fill="#bcf5ff" opacity="1.00" stroke="#bcf5ff" stroke-width="0.25" data-index="42"></path>
<path d="M 214.79 430.48 C 215.10 430.20 215.73 429.63 216.05 429.34 C 215.62 430.60 215.23 431.87 214.84 433.16 C 217.40 433.01 219.96 432.77 222.52 432.60 C 222.23 434.64 221.88 436.66 221.56 438.70 C 218.82 438.52 216.08 438.38 213.34 438.22 C 213.61 435.60 214.14 433.03 214.79 430.48 Z" fill="#a8eaf8" opacity="1.00" stroke="#a8eaf8" stroke-width="0.25" data-index="43"></path>
<path d="M 192.38 436.48 C 192.88 434.59 193.37 432.70 194.05 430.87 C 194.00 431.60 193.90 433.05 193.84 433.78 C 196.73 433.44 200.24 433.85 202.02 431.05 C 201.83 432.85 201.64 434.66 201.44 436.47 C 198.42 436.48 195.40 436.53 192.38 436.48 Z" fill="#aae0eb" opacity="1.00" stroke="#aae0eb" stroke-width="0.25" data-index="44"></path>
<path d="M 174.13 432.22 L 174.25 432.23 C 175.79 432.47 177.34 432.71 178.89 432.95 C 178.85 434.11 178.81 435.28 178.77 436.45 C 177.26 436.35 175.76 436.26 174.25 436.19 C 174.20 434.86 174.17 433.54 174.13 432.22 Z" fill="#b4ecfd" opacity="1.00" stroke="#b4ecfd" stroke-width="0.25" data-index="45"></path>
<path d="M 182.17 432.91 C 184.88 433.17 187.60 433.41 190.32 433.63 C 190.12 434.38 189.72 435.88 189.52 436.63 C 187.11 436.57 184.71 436.53 182.30 436.49 C 182.27 435.60 182.20 433.81 182.17 432.91 Z" fill="#a9dff2" opacity="1.00" stroke="#a9dff2" stroke-width="0.25" data-index="46"></path>
</svg>