<?xml version="1.0" encoding="utf-8"?>
<svg xmlns="http://www.w3.org/2000/svg" height="512pt" version="1.1" viewBox="0 0 512 512" width="512pt">
<path d="M 0.00 0.00 L 512.00 0.00 L 512.00 512.00 L 0.00 512.00 L 0.00 0.00 Z" fill="transparent" opacity="1.00" stroke="transparent" stroke-width="0.25"/>
<path d="M 160.24 155.23 C 210.67 128.37 272.60 123.57 326.24 143.66 C 373.95 161.38 416.18 194.99 441.71 239.27 C 456.63 265.13 466.07 294.21 468.89 323.91 C 468.66 324.15 468.19 324.63 467.95 324.87 C 459.26 322.12 450.58 324.86 445.11 332.07 C 447.16 310.72 439.84 289.57 432.12 269.90 C 412.88 223.23 374.04 185.40 327.16 166.80 C 274.15 144.87 211.61 149.40 161.94 177.87 C 108.99 207.28 72.43 263.66 67.12 324.00 C 66.02 326.96 66.73 328.86 69.22 329.71 C 60.79 328.66 47.96 333.25 50.03 344.00 C 50.79 347.73 47.43 347.42 44.34 347.35 C 40.73 328.92 45.64 309.09 49.70 290.70 C 64.52 232.26 106.65 182.26 160.24 155.23 Z" fill="#f4798f" opacity="1.00" stroke="#f4798f" stroke-width="0.25"/>
<path d="M 161.94 177.87 C 211.61 149.40 274.15 144.87 327.16 166.80 C 374.04 185.40 412.88 223.23 432.12 269.90 C 439.84 289.57 447.16 310.72 445.11 332.07 C 443.37 334.80 441.87 337.70 439.99 340.35 C 435.62 336.09 433.84 329.48 428.10 326.50 C 426.80 326.51 424.19 326.52 422.88 326.53 C 421.47 326.89 420.06 327.24 418.66 327.61 C 421.10 324.88 427.70 324.93 424.59 319.40 C 422.23 305.77 419.52 291.83 412.19 279.88 C 405.02 258.78 391.51 240.69 376.81 224.21 C 364.69 210.00 349.75 198.28 333.03 189.93 C 312.65 179.98 290.07 176.37 267.88 172.29 C 217.61 170.41 164.51 189.42 131.38 228.40 C 106.64 258.97 89.39 297.08 88.01 336.80 C 89.37 336.21 90.71 335.56 92.10 335.01 L 93.10 335.07 C 89.49 338.31 86.00 341.69 82.36 344.91 C 81.38 337.58 76.69 331.21 69.22 329.71 C 66.73 328.86 66.02 326.96 67.12 324.00 C 72.43 263.66 108.99 207.28 161.94 177.87 Z" fill="#fc9971" opacity="1.00" stroke="#fc9971" stroke-width="0.25"/>
<path d="M 131.38 228.40 C 164.51 189.42 217.61 170.41 267.88 172.29 C 290.07 176.37 312.65 179.98 333.03 189.93 C 349.75 198.28 364.69 210.00 376.81 224.21 C 391.51 240.69 405.02 258.78 412.19 279.88 C 419.52 291.83 422.23 305.77 424.59 319.40 C 427.70 324.93 421.10 324.88 418.66 327.61 L 418.07 328.06 C 414.48 281.34 387.95 238.09 351.06 209.95 C 312.04 181.41 259.87 171.76 213.42 185.50 C 147.89 204.74 95.93 266.12 92.10 335.01 C 90.71 335.56 89.37 336.21 88.01 336.80 C 89.39 297.08 106.64 258.97 131.38 228.40 Z" fill="#fa9e59" opacity="1.00" stroke="#fa9e59" stroke-width="0.25"/>
<path d="M 213.42 185.50 C 259.87 171.76 312.04 181.41 351.06 209.95 C 387.95 238.09 414.48 281.34 418.07 328.06 C 415.04 331.15 412.46 334.60 410.71 338.56 C 406.83 337.37 403.01 335.88 399.09 334.83 C 394.51 331.97 396.97 325.30 395.89 320.99 C 392.35 301.84 385.66 283.23 375.44 266.61 C 347.09 219.74 289.44 191.54 234.99 200.96 C 196.73 208.11 160.18 229.89 138.72 262.73 C 126.88 280.96 118.67 301.58 115.08 323.04 C 115.05 324.98 113.21 325.84 111.86 326.84 C 105.10 328.21 98.82 331.27 93.10 335.07 L 92.10 335.01 C 95.93 266.12 147.89 204.74 213.42 185.50 Z" fill="#fcd758" opacity="1.00" stroke="#fcd758" stroke-width="0.25"/>
<path d="M 234.99 200.96 C 289.44 191.54 347.09 219.74 375.44 266.61 C 385.66 283.23 392.35 301.84 395.89 320.99 C 396.97 325.30 394.51 331.97 399.09 334.83 C 394.84 334.59 390.99 336.09 387.14 337.58 C 380.26 291.90 354.76 246.88 313.03 224.93 C 264.36 201.58 200.32 212.23 164.22 253.23 C 145.34 274.89 132.86 302.37 128.89 330.82 C 124.04 327.00 117.77 326.86 111.86 326.84 C 113.21 325.84 115.05 324.98 115.08 323.04 C 118.67 301.58 126.88 280.96 138.72 262.73 C 160.18 229.89 196.73 208.11 234.99 200.96 Z" fill="#a0dc98" opacity="1.00" stroke="#a0dc98" stroke-width="0.25"/>
<path d="M 164.22 253.23 C 200.32 212.23 264.36 201.58 313.03 224.93 C 354.76 246.88 380.26 291.90 387.14 337.58 C 390.99 336.09 394.84 334.59 399.09 334.83 C 403.01 335.88 406.83 337.37 410.71 338.56 C 412.46 334.60 415.04 331.15 418.07 328.06 L 418.66 327.61 C 420.06 327.24 421.47 326.89 422.88 326.53 C 424.38 327.73 426.62 327.79 428.10 326.50 C 433.84 329.48 435.62 336.09 439.99 340.35 C 441.87 337.70 443.37 334.80 445.11 332.07 C 450.58 324.86 459.26 322.12 467.95 324.87 C 468.89 325.56 469.85 326.24 470.87 326.82 C 481.27 332.91 475.01 344.93 472.94 354.01 C 480.94 350.17 486.01 362.05 481.62 367.96 C 480.95 368.86 480.44 369.87 480.09 370.95 C 475.09 380.69 460.32 375.38 454.23 369.10 C 446.09 381.16 427.72 380.09 417.88 371.30 C 416.06 371.30 415.21 373.49 414.06 374.64 C 413.14 376.16 411.35 376.11 409.80 376.08 C 407.93 375.95 406.06 375.96 404.20 376.07 C 400.00 376.34 397.75 371.43 399.49 367.95 C 400.74 366.69 399.63 363.68 397.98 365.64 C 392.11 370.29 386.21 376.64 378.00 376.01 C 370.87 377.64 359.54 373.38 363.44 363.98 C 364.00 362.78 364.18 361.45 364.03 360.16 C 363.80 355.00 364.60 349.75 363.37 344.69 C 363.06 343.41 362.93 342.12 362.98 340.81 C 363.13 339.21 363.27 337.49 362.42 336.05 C 361.00 333.55 360.86 330.63 360.78 327.83 C 360.91 327.33 361.17 326.33 361.30 325.83 C 364.92 337.04 364.54 349.28 365.03 360.93 C 368.57 357.42 373.41 356.24 377.89 358.71 C 378.18 350.94 380.89 343.71 385.96 337.87 C 378.70 291.06 351.65 243.81 307.13 223.84 C 259.79 203.63 199.48 215.02 165.31 254.30 C 147.12 274.78 135.30 300.72 130.58 327.62 C 129.05 333.66 133.37 338.83 134.15 344.64 C 139.49 342.77 145.03 341.32 150.70 342.76 C 152.75 305.20 172.83 267.64 206.78 249.80 C 209.04 247.87 207.38 250.83 207.02 251.99 C 200.30 254.89 195.32 260.35 189.12 264.10 C 185.28 266.90 181.88 270.27 179.03 274.08 C 165.07 292.11 155.82 313.35 152.48 336.03 C 151.92 337.56 151.71 339.20 151.95 340.82 C 151.66 343.36 152.53 345.37 154.94 346.37 C 155.76 347.34 156.68 348.24 157.69 349.03 C 163.00 355.81 162.21 366.81 154.99 371.98 C 146.88 376.66 137.44 379.57 128.02 380.00 C 122.67 380.00 117.34 379.97 111.99 380.03 C 110.62 380.10 109.29 379.94 107.99 379.55 C 106.80 378.93 105.46 378.79 104.15 379.00 C 100.29 379.18 96.59 377.51 92.95 376.48 C 91.52 375.59 89.37 375.57 88.74 377.43 C 87.20 380.13 83.72 380.11 81.00 380.04 C 77.65 379.98 74.31 380.00 70.97 380.02 C 66.80 380.53 64.65 375.85 60.84 375.06 C 59.60 374.38 58.21 375.02 57.05 375.54 C 48.91 376.41 38.91 376.97 31.99 371.64 C 30.92 370.30 29.71 369.08 28.37 368.01 C 22.06 357.22 34.40 348.41 44.34 347.35 C 47.43 347.42 50.79 347.73 50.03 344.00 C 47.96 333.25 60.79 328.66 69.22 329.71 C 76.69 331.21 81.38 337.58 82.36 344.91 C 86.00 341.69 89.49 338.31 93.10 335.07 C 98.82 331.27 105.10 328.21 111.86 326.84 C 117.77 326.86 124.04 327.00 128.89 330.82 C 132.86 302.37 145.34 274.89 164.22 253.23 Z" fill="#537e86" opacity="1.00" stroke="#537e86" stroke-width="0.25"/>
<path d="M 165.31 254.30 C 199.48 215.02 259.79 203.63 307.13 223.84 C 351.65 243.81 378.70 291.06 385.96 337.87 C 380.89 343.71 378.18 350.94 377.89 358.71 C 373.41 356.24 368.57 357.42 365.03 360.93 C 364.54 349.28 364.92 337.04 361.30 325.83 C 361.17 326.33 360.91 327.33 360.78 327.83 C 359.81 327.87 359.69 327.03 360.42 325.31 C 361.82 323.50 359.46 315.25 358.86 319.81 C 357.82 319.93 357.67 319.09 358.42 317.30 C 359.06 312.50 357.19 305.40 353.02 302.85 C 351.78 302.62 351.69 301.10 351.17 300.19 C 354.42 300.40 351.17 297.31 351.06 295.98 C 348.51 292.83 348.30 286.27 343.70 285.50 C 342.11 285.31 340.42 284.91 341.00 282.87 C 346.65 286.78 340.96 277.45 337.78 277.58 C 335.81 276.72 332.65 275.53 333.07 272.89 C 334.31 273.78 335.62 274.58 337.04 275.17 C 333.34 271.16 330.15 266.00 324.99 263.77 C 325.66 264.84 326.40 265.87 327.17 266.88 C 324.26 267.50 323.50 263.90 322.13 262.05 C 322.61 261.99 323.58 261.87 324.06 261.81 C 294.49 236.38 250.47 229.52 214.86 245.80 C 213.34 246.68 210.20 246.90 210.49 249.25 C 210.13 250.66 208.50 251.84 207.02 251.99 C 207.38 250.83 209.04 247.87 206.78 249.80 C 172.83 267.64 152.75 305.20 150.70 342.76 C 145.03 341.32 139.49 342.77 134.15 344.64 C 133.37 338.83 129.05 333.66 130.58 327.62 C 135.30 300.72 147.12 274.78 165.31 254.30 Z" fill="#6dddfa" opacity="1.00" stroke="#6dddfa" stroke-width="0.25"/>
<path d="M 214.86 245.80 C 250.47 229.52 294.49 236.38 324.06 261.81 C 323.58 261.87 322.61 261.99 322.13 262.05 C 305.69 250.05 286.73 240.96 266.27 238.69 C 260.13 237.99 253.78 237.30 247.67 238.58 C 234.70 239.94 222.54 244.57 210.49 249.25 C 210.20 246.90 213.34 246.68 214.86 245.80 Z" fill="#537e86" opacity="1.00" stroke="#537e86" stroke-width="0.25"/>
<path d="M 247.67 238.58 C 253.78 237.30 260.13 237.99 266.27 238.69 C 260.08 238.95 253.83 239.44 247.67 238.58 Z" fill="#6dddfa" opacity="1.00" stroke="#6dddfa" stroke-width="0.25"/>
<path d="M 179.03 274.08 C 181.88 270.27 185.28 266.90 189.12 264.10 C 186.98 268.30 183.34 272.10 179.03 274.08 Z" fill="#6dddfa" opacity="1.00" stroke="#6dddfa" stroke-width="0.25"/>
<path d="M 324.99 263.77 C 330.15 266.00 333.34 271.16 337.04 275.17 C 335.62 274.58 334.31 273.78 333.07 272.89 C 331.10 270.88 329.13 268.89 327.17 266.88 C 326.40 265.87 325.66 264.84 324.99 263.77 Z" fill="#537e86" opacity="1.00" stroke="#537e86" stroke-width="0.25"/>
<path d="M 337.78 277.58 C 340.96 277.45 346.65 286.78 341.00 282.87 L 340.70 281.99 C 340.44 280.56 339.29 279.63 338.23 278.78 L 337.78 277.58 Z" fill="#537e86" opacity="1.00" stroke="#537e86" stroke-width="0.25"/>
<path d="M 338.23 278.78 C 339.29 279.63 340.44 280.56 340.70 281.99 C 339.02 282.88 337.15 280.23 338.23 278.78 Z" fill="#6dddfa" opacity="1.00" stroke="#6dddfa" stroke-width="0.25"/>
<path d="M 343.70 285.50 C 348.30 286.27 348.51 292.83 351.06 295.98 C 351.17 297.31 354.42 300.40 351.17 300.19 C 348.76 295.26 345.90 290.50 343.70 285.50 Z" fill="#537e86" opacity="1.00" stroke="#537e86" stroke-width="0.25"/>
<path d="M 353.02 302.85 C 357.19 305.40 359.06 312.50 358.42 317.30 C 355.76 312.91 353.99 307.86 353.02 302.85 Z" fill="#537e86" opacity="1.00" stroke="#537e86" stroke-width="0.25"/>
<path d="M 358.86 319.81 C 359.46 315.25 361.82 323.50 360.42 325.31 C 358.91 323.87 358.77 321.76 358.86 319.81 Z" fill="#537e86" opacity="1.00" stroke="#537e86" stroke-width="0.25"/>
<path d="M 467.95 324.87 C 468.19 324.63 468.66 324.15 468.89 323.91 C 470.32 323.61 471.68 325.60 470.87 326.82 C 469.85 326.24 468.89 325.56 467.95 324.87 Z" fill="#a0dc98" opacity="1.00" stroke="#a0dc98" stroke-width="0.25"/>
<path d="M 422.88 326.53 C 424.19 326.52 426.80 326.51 428.10 326.50 C 426.62 327.79 424.38 327.73 422.88 326.53 Z" fill="#f4798f" opacity="1.00" stroke="#f4798f" stroke-width="0.25"/>
<path d="M 446.86 333.90 C 451.53 325.76 464.15 322.88 471.14 329.85 C 478.79 335.87 472.54 346.28 470.69 353.73 C 466.93 360.25 472.76 360.29 474.23 356.03 C 481.33 353.88 482.41 363.14 479.94 367.93 C 477.36 376.27 463.17 375.98 459.17 368.93 C 457.63 362.38 450.17 367.50 448.69 371.77 C 443.09 377.53 432.65 377.41 426.08 373.66 C 425.38 372.70 424.43 371.95 423.22 371.91 C 420.68 371.79 418.40 367.30 416.27 370.26 C 414.25 372.23 411.89 374.53 408.80 374.06 C 407.60 373.97 406.40 373.96 405.20 374.04 C 401.51 374.33 400.14 371.46 401.30 368.24 C 403.42 362.91 401.95 361.44 396.88 363.82 C 396.31 364.08 395.17 364.60 394.60 364.85 C 392.72 365.29 391.37 366.70 390.82 368.52 C 385.02 374.96 374.58 375.84 366.99 372.04 C 360.49 367.36 370.46 354.89 375.98 361.01 C 376.88 362.30 378.46 362.04 379.83 362.00 C 379.83 355.92 380.87 349.58 384.37 344.48 C 386.38 343.11 388.12 341.38 389.47 339.35 C 395.09 335.28 403.27 336.60 408.62 340.49 C 414.31 343.69 413.23 336.84 415.45 334.22 C 416.83 333.87 417.85 332.81 418.22 331.45 C 425.43 324.11 434.23 332.68 435.94 340.33 C 436.12 341.72 437.08 343.44 438.76 343.02 C 444.24 344.03 442.98 336.14 446.86 333.90 Z" fill="#feffff" opacity="1.00" stroke="#feffff" stroke-width="0.25"/>
<path d="M 113.20 328.92 C 113.72 327.14 118.30 327.12 118.79 328.94 C 116.93 329.03 115.06 329.04 113.20 328.92 Z" fill="#a0dc98" opacity="1.00" stroke="#a0dc98" stroke-width="0.25"/>
<path d="M 95.22 336.46 C 100.37 332.88 106.69 329.24 113.20 328.92 C 115.06 329.04 116.93 329.03 118.79 328.94 C 128.33 329.45 131.78 339.68 132.25 347.98 C 135.34 348.44 137.13 344.76 140.20 344.94 C 141.85 344.94 145.15 344.96 146.79 344.96 C 148.88 345.42 151.50 345.58 152.82 347.49 C 153.37 349.28 154.70 350.62 156.48 351.20 C 159.62 355.55 160.74 362.90 156.54 366.78 C 155.17 367.18 154.08 368.20 153.72 369.60 L 152.85 369.87 C 151.61 369.94 150.64 370.70 149.92 371.66 C 143.68 376.18 135.53 377.57 128.01 378.01 C 123.00 378.00 118.00 377.98 112.99 378.01 C 106.19 378.13 99.40 376.77 93.02 374.49 C 91.81 373.76 90.02 373.39 89.02 374.67 C 86.92 376.83 84.15 378.50 81.01 378.04 C 77.99 377.99 74.98 378.02 71.96 378.01 C 68.55 378.16 65.48 375.97 63.69 373.21 C 52.94 373.35 38.48 376.98 30.33 367.69 C 23.92 356.58 38.61 348.06 48.03 349.45 C 49.18 350.00 51.29 350.91 52.02 349.35 C 50.20 341.43 54.60 331.48 64.20 331.94 C 65.40 332.02 66.59 332.03 67.79 331.96 C 71.14 332.53 75.20 334.44 76.97 337.19 C 76.91 338.43 77.70 339.39 78.65 340.10 C 80.58 342.94 79.45 349.84 84.62 347.76 C 86.10 344.19 88.70 340.63 92.29 339.06 C 93.81 339.01 94.86 337.85 95.22 336.46 Z" fill="#feffff" opacity="1.00" stroke="#feffff" stroke-width="0.25"/>
<path d="M 64.20 331.94 C 63.94 330.15 68.06 330.17 67.79 331.96 C 66.59 332.03 65.40 332.02 64.20 331.94 Z" fill="#a0dc98" opacity="1.00" stroke="#a0dc98" stroke-width="0.25"/>
<path d="M 415.45 334.22 C 414.54 332.77 416.76 330.55 418.22 331.45 C 417.85 332.81 416.83 333.87 415.45 334.22 Z" fill="#a0dc98" opacity="1.00" stroke="#a0dc98" stroke-width="0.25"/>
<path d="M 92.29 339.06 C 91.63 337.61 93.84 335.63 95.22 336.46 C 94.86 337.85 93.81 339.01 92.29 339.06 Z" fill="#a0dc98" opacity="1.00" stroke="#a0dc98" stroke-width="0.25"/>
<path d="M 151.95 340.82 C 151.71 339.20 151.92 337.56 152.48 336.03 C 153.52 337.18 153.96 340.66 151.95 340.82 Z" fill="#6dddfa" opacity="1.00" stroke="#6dddfa" stroke-width="0.25"/>
<path d="M 362.42 336.05 C 363.27 337.49 363.13 339.21 362.98 340.81 C 361.05 340.60 361.47 337.22 362.42 336.05 Z" fill="#6dddfa" opacity="1.00" stroke="#6dddfa" stroke-width="0.25"/>
<path d="M 76.97 337.19 C 78.50 336.42 79.85 339.04 78.65 340.10 C 77.70 339.39 76.91 338.43 76.97 337.19 Z" fill="#a0dc98" opacity="1.00" stroke="#a0dc98" stroke-width="0.25"/>
<path d="M 384.37 344.48 C 384.60 342.12 387.12 339.62 389.47 339.35 C 388.12 341.38 386.38 343.11 384.37 344.48 Z" fill="#a0dc98" opacity="1.00" stroke="#a0dc98" stroke-width="0.25"/>
<path d="M 435.94 340.33 C 437.26 339.85 439.22 341.65 438.76 343.02 C 437.08 343.44 436.12 341.72 435.94 340.33 Z" fill="#a0dc98" opacity="1.00" stroke="#a0dc98" stroke-width="0.25"/>
<path d="M 140.20 344.94 C 141.04 343.08 145.98 343.07 146.79 344.96 C 145.15 344.96 141.85 344.94 140.20 344.94 Z" fill="#a0dc98" opacity="1.00" stroke="#a0dc98" stroke-width="0.25"/>
<path d="M 363.37 344.69 C 364.60 349.75 363.80 355.00 364.03 360.16 L 363.31 360.12 C 362.90 354.99 362.61 349.79 363.37 344.69 Z" fill="#6dddfa" opacity="1.00" stroke="#6dddfa" stroke-width="0.25"/>
<path d="M 154.94 346.37 C 156.49 344.86 159.13 347.44 157.69 349.03 C 156.68 348.24 155.76 347.34 154.94 346.37 Z" fill="#a0dc98" opacity="1.00" stroke="#a0dc98" stroke-width="0.25"/>
<path d="M 152.82 347.49 C 154.63 346.93 157.07 349.40 156.48 351.20 C 154.70 350.62 153.37 349.28 152.82 347.49 Z" fill="#a0dc98" opacity="1.00" stroke="#a0dc98" stroke-width="0.25"/>
<path d="M 48.03 349.45 C 49.35 348.49 50.68 348.45 52.02 349.35 C 51.29 350.91 49.18 350.00 48.03 349.45 Z" fill="#a0dc98" opacity="1.00" stroke="#a0dc98" stroke-width="0.25"/>
<path d="M 474.23 356.03 C 472.76 360.29 466.93 360.25 470.69 353.73 C 470.78 358.26 470.79 357.71 474.23 356.03 Z" fill="#a0dc98" opacity="1.00" stroke="#a0dc98" stroke-width="0.25"/>
<path d="M 363.31 360.12 L 364.03 360.16 C 364.18 361.45 364.00 362.78 363.44 363.98 C 362.39 362.70 362.35 361.41 363.31 360.12 Z" fill="#a0dc98" opacity="1.00" stroke="#a0dc98" stroke-width="0.25"/>
<path d="M 396.88 363.82 C 401.95 361.44 403.42 362.91 401.30 368.24 C 401.70 364.89 400.29 363.23 396.88 363.82 Z" fill="#a0dc98" opacity="1.00" stroke="#a0dc98" stroke-width="0.25"/>
<path d="M 390.82 368.52 C 391.37 366.70 392.72 365.29 394.60 364.85 C 395.00 366.65 392.61 369.00 390.82 368.52 Z" fill="#a0dc98" opacity="1.00" stroke="#a0dc98" stroke-width="0.25"/>
<path d="M 397.98 365.64 C 399.63 363.68 400.74 366.69 399.49 367.95 C 399.11 367.37 398.36 366.22 397.98 365.64 Z" fill="#a0dc98" opacity="1.00" stroke="#a0dc98" stroke-width="0.25"/>
<path d="M 448.69 371.77 C 450.17 367.50 457.63 362.38 459.17 368.93 C 455.30 364.67 452.02 369.63 448.69 371.77 Z" fill="#a0dc98" opacity="1.00" stroke="#a0dc98" stroke-width="0.25"/>
<path d="M 153.72 369.60 C 154.08 368.20 155.17 367.18 156.54 366.78 C 157.40 368.25 155.19 370.43 153.72 369.60 Z" fill="#a0dc98" opacity="1.00" stroke="#a0dc98" stroke-width="0.25"/>
<path d="M 28.37 368.01 C 29.71 369.08 30.92 370.30 31.99 371.64 C 30.02 372.87 27.12 369.97 28.37 368.01 Z" fill="#a0dc98" opacity="1.00" stroke="#a0dc98" stroke-width="0.25"/>
<path d="M 480.09 370.95 C 480.44 369.87 480.95 368.86 481.62 367.96 C 483.06 368.97 481.88 372.07 480.09 370.95 Z" fill="#a0dc98" opacity="1.00" stroke="#a0dc98" stroke-width="0.25"/>
<path d="M 149.92 371.66 C 150.64 370.70 151.61 369.94 152.85 369.87 C 153.60 371.41 151.02 372.86 149.92 371.66 Z" fill="#a0dc98" opacity="1.00" stroke="#a0dc98" stroke-width="0.25"/>
<path d="M 414.06 374.64 C 415.21 373.49 416.06 371.30 417.88 371.30 C 418.59 373.18 415.86 375.59 414.06 374.64 Z" fill="#a0dc98" opacity="1.00" stroke="#a0dc98" stroke-width="0.25"/>
<path d="M 423.22 371.91 C 424.43 371.95 425.38 372.70 426.08 373.66 C 425.00 374.89 422.38 373.43 423.22 371.91 Z" fill="#a0dc98" opacity="1.00" stroke="#a0dc98" stroke-width="0.25"/>
<path d="M 89.02 374.67 C 90.02 373.39 91.81 373.76 93.02 374.49 C 91.72 375.54 90.38 375.60 89.02 374.67 Z" fill="#a0dc98" opacity="1.00" stroke="#a0dc98" stroke-width="0.25"/>
<path d="M 405.20 374.04 C 406.40 373.96 407.60 373.97 408.80 374.06 C 409.05 375.84 404.93 375.83 405.20 374.04 Z" fill="#a0dc98" opacity="1.00" stroke="#a0dc98" stroke-width="0.25"/>
<path d="M 57.05 375.54 C 58.21 375.02 59.60 374.38 60.84 375.06 C 60.87 376.81 57.91 376.50 57.05 375.54 Z" fill="#a0dc98" opacity="1.00" stroke="#a0dc98" stroke-width="0.25"/>
<path d="M 88.74 377.43 C 89.37 375.57 91.52 375.59 92.95 376.48 C 91.91 377.42 90.05 378.17 88.74 377.43 Z" fill="#a0dc98" opacity="1.00" stroke="#a0dc98" stroke-width="0.25"/>
<path d="M 404.20 376.07 C 406.06 375.96 407.93 375.95 409.80 376.08 C 409.28 377.86 404.71 377.86 404.20 376.07 Z" fill="#a0dc98" opacity="1.00" stroke="#a0dc98" stroke-width="0.25"/>
<path d="M 71.96 378.01 C 74.98 378.02 77.99 377.99 81.01 378.04 C 81.34 379.83 72.55 379.78 71.96 378.01 Z" fill="#a0dc98" opacity="1.00" stroke="#a0dc98" stroke-width="0.25"/>
<path d="M 112.99 378.01 C 118.00 377.98 123.00 378.00 128.01 378.01 C 125.88 379.77 115.12 379.77 112.99 378.01 Z" fill="#a0dc98" opacity="1.00" stroke="#a0dc98" stroke-width="0.25"/>
<path d="M 104.15 379.00 C 105.46 378.79 106.80 378.93 107.99 379.55 C 107.15 380.66 104.01 380.83 104.15 379.00 Z" fill="#a0dc98" opacity="1.00" stroke="#a0dc98" stroke-width="0.25"/>
<path d="M 70.97 380.02 C 74.31 380.00 77.65 379.98 81.00 380.04 C 77.69 381.85 74.34 381.84 70.97 380.02 Z" fill="#a0dc98" opacity="1.00" stroke="#a0dc98" stroke-width="0.25"/>
<path d="M 111.99 380.03 C 117.34 379.97 122.67 380.00 128.02 380.00 C 125.65 381.25 114.28 382.47 111.99 380.03 Z" fill="#a0dc98" opacity="1.00" stroke="#a0dc98" stroke-width="0.25"/>
</svg>