<?xml version="1.0" encoding="utf-8"?>
<svg xmlns="http://www.w3.org/2000/svg" height="512pt" version="1.1" viewBox="0 0 512 512" width="512pt">
<path d="M 0.00 0.00 L 512.00 0.00 L 512.00 512.00 L 0.00 512.00 L 0.00 0.00 Z" fill="transparent" opacity="1.00" stroke="transparent" stroke-width="0.25"/>
<path d="M 150.78 140.86 C 156.60 125.72 170.73 113.71 187.01 111.74 C 202.46 109.72 218.60 119.76 222.98 134.84 C 227.39 134.31 231.61 132.75 236.06 132.48 C 248.89 131.31 262.19 132.18 274.36 136.61 C 278.59 128.85 284.59 121.82 292.51 117.69 C 301.33 112.77 312.28 111.88 321.84 115.04 C 329.62 117.38 335.91 122.93 340.81 129.24 C 348.56 140.38 350.50 155.18 346.28 168.03 C 342.73 177.19 333.99 183.66 324.29 184.82 C 329.65 197.46 334.19 210.48 337.57 223.79 C 343.41 222.15 349.44 221.40 355.44 220.66 C 355.56 221.16 355.78 222.17 355.89 222.67 C 350.02 223.21 344.23 224.30 338.48 225.60 C 338.54 226.59 338.61 227.59 338.67 228.58 C 348.39 228.36 358.25 228.42 367.77 230.57 C 367.20 231.03 366.63 231.48 366.06 231.94 C 357.26 230.81 348.38 230.05 339.52 230.66 C 340.15 233.20 340.70 235.78 341.48 238.29 C 342.64 238.48 344.94 238.86 346.09 239.05 C 344.84 239.72 343.60 241.06 342.02 240.24 C 347.67 267.79 351.36 295.84 351.55 323.99 C 351.79 334.00 350.80 343.98 350.42 353.97 C 355.27 354.83 359.71 357.62 362.43 361.74 C 367.83 369.70 368.75 379.74 368.32 389.10 C 384.52 393.44 401.14 396.83 417.99 396.69 C 427.35 396.79 436.74 396.38 446.00 394.89 C 447.28 394.73 448.50 395.01 449.65 395.74 C 450.12 398.54 448.08 400.56 445.76 401.72 C 431.76 409.71 415.27 411.15 399.53 412.55 C 405.02 415.07 410.41 417.99 414.87 422.11 C 416.63 423.64 416.88 426.03 416.15 428.14 C 415.13 428.48 414.11 428.83 413.10 429.20 C 389.87 431.99 366.46 433.06 343.08 433.74 C 297.73 435.18 252.34 435.15 206.98 433.95 C 180.96 433.58 154.94 433.22 128.94 432.03 C 114.28 430.99 99.46 430.87 84.98 428.13 C 84.60 427.63 83.84 426.62 83.47 426.12 C 83.83 424.50 84.35 422.84 85.59 421.68 C 89.36 417.86 94.12 415.27 98.81 412.77 C 110.94 407.19 124.43 405.49 137.67 405.38 C 131.73 395.43 131.20 383.06 133.73 371.98 C 135.26 364.69 139.49 357.57 146.49 354.42 C 141.90 315.11 145.60 275.22 153.90 236.65 C 145.58 238.93 137.39 241.78 129.76 245.84 C 127.69 246.88 125.73 248.33 123.33 248.43 C 123.46 246.64 125.26 246.12 126.51 245.33 C 135.28 240.45 144.79 236.95 154.52 234.55 C 154.97 232.55 155.43 230.56 155.84 228.56 C 148.78 228.98 141.99 231.11 135.44 233.64 C 135.59 232.57 135.65 231.32 136.91 230.98 C 143.03 228.25 149.72 226.92 156.39 226.44 C 156.78 225.21 157.18 223.98 157.59 222.76 C 157.15 222.50 156.25 221.97 155.81 221.71 L 156.59 220.86 C 157.01 220.63 157.86 220.18 158.28 219.95 C 161.78 206.83 165.97 193.79 171.85 181.52 C 162.99 178.69 153.71 174.11 149.74 165.13 C 146.47 157.35 147.41 148.43 150.78 140.86 Z" fill="#042947" opacity="1.00" stroke="#042947" stroke-width="0.25"/>
<path d="M 157.77 138.65 C 163.25 128.12 173.47 120.00 185.17 117.63 C 190.99 116.76 197.11 117.10 202.51 119.62 C 211.38 123.24 217.99 131.97 218.88 141.53 C 215.77 142.42 212.71 143.49 209.50 143.97 L 208.78 144.09 C 206.61 137.50 201.23 132.28 194.81 129.82 C 187.63 127.48 179.10 130.90 175.62 137.62 C 170.05 146.42 170.63 160.84 180.85 165.99 C 178.61 169.47 176.42 172.98 174.21 176.47 C 166.81 173.97 158.39 170.90 154.85 163.31 C 151.42 155.32 153.69 145.98 157.77 138.65 Z" fill="#feada5" opacity="1.00" stroke="#feada5" stroke-width="0.25"/>
<path d="M 304.31 119.38 C 311.46 117.95 319.13 119.14 325.49 122.72 C 334.84 128.19 341.51 138.06 342.60 148.90 C 343.35 156.69 343.06 165.44 337.71 171.68 C 333.81 176.70 327.51 178.83 321.47 179.81 C 319.85 175.79 317.27 172.29 315.03 168.61 C 319.35 164.18 324.42 159.83 325.99 153.57 C 328.59 142.41 318.40 130.50 306.99 131.30 C 297.78 131.28 290.50 138.85 287.62 147.09 C 284.25 145.91 281.01 144.42 277.63 143.27 C 279.48 140.68 280.01 137.40 281.88 134.81 C 287.05 127.13 295.04 120.96 304.31 119.38 Z" fill="#feaea5" opacity="1.00" stroke="#feaea5" stroke-width="0.25"/>
<path d="M 218.88 141.53 C 227.81 139.57 236.80 137.08 246.03 137.33 C 256.82 137.38 267.40 140.00 277.63 143.27 C 281.01 144.42 284.25 145.91 287.62 147.09 C 293.05 151.38 298.97 155.11 303.58 160.38 C 314.17 172.69 320.14 188.08 325.68 203.14 C 336.26 234.02 342.72 266.30 344.96 298.88 C 346.81 317.11 346.47 335.49 344.64 353.72 C 340.53 353.85 336.34 354.10 332.47 355.58 C 332.56 356.00 332.74 356.84 332.83 357.25 C 340.03 357.01 347.98 356.65 354.21 360.88 C 361.25 366.19 362.90 375.68 362.87 383.97 C 363.41 396.95 356.57 409.64 346.14 417.18 C 339.35 422.33 331.31 425.57 323.13 427.79 C 317.26 429.67 311.01 428.33 304.98 429.04 C 282.66 429.54 260.32 429.35 238.00 429.18 C 217.58 428.39 197.13 428.85 176.73 427.68 C 163.15 423.63 149.53 416.21 142.43 403.43 C 136.83 394.04 136.65 382.45 139.20 372.08 C 140.63 366.98 143.27 361.65 148.28 359.26 C 153.93 356.58 160.39 356.13 166.55 356.77 C 166.57 356.26 166.62 355.23 166.64 354.71 C 161.99 352.64 156.72 352.65 151.75 353.28 C 149.94 336.24 149.06 319.04 150.36 301.93 C 151.69 276.32 155.79 250.89 162.12 226.05 C 167.00 208.30 172.38 190.51 181.20 174.26 C 186.95 164.15 194.11 154.47 203.98 148.06 C 205.93 146.85 207.92 145.66 209.50 143.97 C 212.71 143.49 215.77 142.42 218.88 141.53 Z" fill="#9fecff" opacity="1.00" stroke="#9fecff" stroke-width="0.25"/>
<path d="M 208.69 201.44 C 209.41 199.68 211.48 199.32 212.98 198.51 C 215.54 199.17 218.32 200.95 217.85 204.01 C 218.29 207.36 214.39 209.75 211.48 208.36 C 208.71 207.43 207.67 204.00 208.69 201.44 Z" fill="#012948" opacity="1.00" stroke="#012948" stroke-width="0.25"/>
<path d="M 271.35 199.45 C 274.35 198.06 278.37 200.50 277.89 203.96 C 278.44 207.62 273.78 209.97 270.91 208.04 C 267.43 206.46 267.74 200.62 271.35 199.45 Z" fill="#02294a" opacity="1.00" stroke="#02294a" stroke-width="0.25"/>
<path d="M 232.06 212.99 C 236.69 210.82 242.00 210.98 246.99 211.29 C 249.96 211.64 254.20 213.18 253.76 216.90 C 253.35 222.36 249.08 227.50 243.78 228.89 C 243.66 231.49 243.59 234.11 244.12 236.68 C 243.57 237.56 243.00 238.42 242.41 239.26 C 238.55 242.15 239.91 247.11 239.70 251.25 C 239.58 253.57 239.42 255.89 239.50 258.22 C 236.99 253.93 237.53 248.86 237.31 244.10 C 229.48 249.42 217.93 249.86 210.73 243.23 C 206.21 239.68 204.47 233.10 206.76 227.82 C 207.20 228.04 208.08 228.47 208.52 228.68 C 208.34 232.04 208.04 235.74 210.27 238.56 C 217.45 248.65 235.29 246.69 240.68 235.75 C 241.29 233.53 241.08 231.19 241.17 228.92 C 235.23 228.09 230.56 222.78 229.69 216.98 C 229.36 215.28 230.84 213.91 232.06 212.99 Z" fill="#022a4a" opacity="1.00" stroke="#022a4a" stroke-width="0.25"/>
<path d="M 130.06 218.82 C 134.53 217.16 139.37 217.93 144.01 218.20 C 148.43 218.44 152.78 219.28 157.14 220.01 L 156.59 220.86 L 155.81 221.71 C 149.55 220.87 143.29 219.70 136.95 219.71 C 134.62 219.65 132.15 220.07 130.06 218.82 Z" fill="#0c1e2c" opacity="1.00" stroke="#0c1e2c" stroke-width="0.25"/>
<path d="M 277.46 225.37 C 277.98 225.41 279.01 225.48 279.53 225.52 C 280.93 236.23 271.14 245.45 261.00 246.45 C 257.99 246.74 254.98 246.26 252.05 245.60 C 251.86 244.55 251.67 243.51 251.46 242.48 C 258.74 244.84 267.41 243.48 272.66 237.62 C 276.19 234.55 276.65 229.67 277.46 225.37 Z" fill="#002742" opacity="1.00" stroke="#002742" stroke-width="0.25"/>
<path d="M 242.41 239.26 C 243.00 238.42 243.57 237.56 244.12 236.68 C 246.13 238.94 248.50 240.91 251.36 241.98 L 251.46 242.48 C 251.67 243.51 251.86 244.55 252.05 245.60 C 252.61 249.10 251.83 252.63 251.46 256.12 C 249.45 260.68 242.87 262.12 239.50 258.22 C 239.42 255.89 239.58 253.57 239.70 251.25 C 240.40 253.40 240.82 255.78 242.36 257.53 C 244.02 257.84 245.71 257.64 247.39 257.60 C 249.58 253.49 249.78 248.79 249.49 244.23 C 246.82 243.05 244.36 241.46 242.41 239.26 Z" fill="#1a1e33" opacity="1.00" stroke="#1a1e33" stroke-width="0.25"/>
<path d="M 239.70 251.25 C 239.91 247.11 238.55 242.15 242.41 239.26 C 244.36 241.46 246.82 243.05 249.49 244.23 C 249.78 248.79 249.58 253.49 247.39 257.60 C 245.71 257.64 244.02 257.84 242.36 257.53 C 240.82 255.78 240.40 253.40 239.70 251.25 Z" fill="#fb7962" opacity="1.00" stroke="#fb7962" stroke-width="0.25"/>
<path d="M 344.89 240.90 C 345.74 240.43 346.59 239.96 347.46 239.50 C 352.68 241.58 358.21 243.08 362.98 246.16 C 361.92 246.44 360.74 247.11 359.70 246.32 C 354.90 244.16 349.96 242.31 344.89 240.90 Z" fill="#0c1e2c" opacity="1.00" stroke="#0c1e2c" stroke-width="0.25"/>
<path d="M 248.37 265.43 C 250.14 261.43 255.13 261.39 258.28 263.77 C 264.13 268.16 269.24 273.54 273.43 279.54 C 278.67 286.74 286.72 292.93 296.01 292.75 C 299.05 292.92 302.16 291.58 303.83 288.98 C 307.18 283.86 308.52 277.79 310.46 272.06 C 310.92 270.41 311.90 269.00 313.41 268.18 C 314.64 274.25 312.32 280.28 310.90 286.12 C 309.36 292.42 303.80 297.81 297.14 298.11 C 288.40 298.56 280.00 294.23 274.00 288.09 C 269.51 292.72 264.14 296.44 258.38 299.34 C 258.55 301.71 260.39 303.49 261.50 305.47 C 268.61 317.74 281.01 327.04 295.08 329.51 C 303.57 331.41 312.69 329.60 320.05 325.03 C 325.59 321.43 330.69 317.05 334.61 311.71 C 335.74 310.36 336.66 308.45 338.71 308.39 C 338.33 312.80 334.69 315.91 331.91 319.03 C 326.02 324.89 320.02 331.45 311.79 333.87 C 300.93 337.09 289.10 334.72 279.28 329.48 C 286.01 343.76 290.65 359.20 291.32 375.04 C 291.77 386.10 288.85 397.93 280.93 406.02 C 273.32 414.37 262.13 418.56 251.08 419.63 C 239.08 420.48 226.09 418.25 216.67 410.28 C 208.77 404.12 204.50 394.28 203.36 384.51 C 201.83 373.75 203.67 362.83 206.61 352.46 C 208.93 344.72 211.50 336.95 215.69 329.99 C 206.56 334.59 196.17 337.69 185.90 335.70 C 178.30 334.53 171.83 329.89 166.44 324.64 C 163.03 321.25 158.92 318.36 156.60 314.04 C 156.59 313.45 156.57 312.26 156.56 311.67 C 159.00 312.30 159.96 314.73 161.58 316.39 C 169.06 324.23 178.92 330.58 190.00 331.27 C 205.61 331.63 220.62 322.82 228.90 309.76 C 230.54 307.03 232.73 304.33 232.78 301.01 C 228.71 299.96 225.26 297.42 222.01 294.87 C 220.29 293.55 218.95 291.56 216.72 291.08 C 211.98 296.26 204.93 299.03 197.97 299.07 C 191.54 298.96 185.69 294.60 183.20 288.76 C 180.87 283.38 179.21 277.61 178.98 271.72 C 180.09 271.77 181.80 271.02 182.20 272.57 C 184.78 279.06 185.78 286.87 191.55 291.50 C 196.46 294.96 203.11 293.74 208.14 291.15 C 211.38 289.13 214.51 286.76 216.75 283.61 C 221.84 276.88 226.99 269.88 234.31 265.42 C 236.03 264.36 238.08 264.41 240.01 264.34 C 240.45 264.66 241.33 265.30 241.77 265.62 C 243.97 265.53 246.16 265.47 248.37 265.43 Z" fill="#022a47" opacity="1.00" stroke="#022a47" stroke-width="0.25"/>
<path d="M 252.78 267.47 C 253.74 267.62 254.78 267.69 255.57 268.34 C 262.21 273.08 267.02 279.79 272.05 286.10 C 267.28 290.07 262.38 293.92 256.78 296.68 C 253.51 287.34 252.59 277.30 252.78 267.47 Z" fill="#fdada5" opacity="1.00" stroke="#fdada5" stroke-width="0.25"/>
<path d="M 243.26 268.55 C 244.74 268.63 246.22 268.73 247.71 268.85 C 247.14 281.87 249.19 295.49 256.03 306.79 C 259.07 311.97 262.84 316.72 267.07 320.97 C 269.82 323.88 274.18 325.31 275.75 329.25 C 283.48 345.67 289.05 363.75 287.73 382.08 C 287.26 392.64 281.71 402.94 272.81 408.75 C 262.12 415.77 248.53 417.78 236.07 415.41 C 226.98 413.66 217.98 409.13 212.76 401.24 C 206.62 392.72 205.73 381.75 206.37 371.59 C 207.56 355.67 213.45 340.51 220.58 326.40 C 232.64 317.33 240.63 303.11 242.58 288.18 C 243.74 281.70 243.90 275.09 243.26 268.55 Z" fill="#ffffff" opacity="1.00" stroke="#ffffff" stroke-width="0.25"/>
<path d="M 234.61 271.49 C 235.61 270.49 237.03 270.34 238.34 270.04 C 239.09 279.69 237.46 289.43 234.82 298.70 C 234.32 298.61 233.31 298.43 232.81 298.34 C 228.22 296.26 224.21 293.24 220.37 290.03 C 219.50 287.58 221.78 285.81 222.99 283.97 C 226.29 279.32 230.34 275.24 234.61 271.49 Z" fill="#fdaca4" opacity="1.00" stroke="#fdaca4" stroke-width="0.25"/>
<path d="M 367.29 395.03 C 376.39 396.28 385.19 399.46 394.40 400.30 C 406.25 402.55 418.31 402.56 430.32 402.46 C 408.66 407.95 386.10 406.78 364.09 404.53 C 365.23 401.38 366.41 398.26 367.29 395.03 Z" fill="#fbada5" opacity="1.00" stroke="#fbada5" stroke-width="0.25"/>
<path d="M 105.00 416.17 C 116.63 412.05 129.26 410.31 141.50 411.55 C 145.42 416.92 150.62 421.23 156.27 424.71 C 156.42 425.37 156.71 426.70 156.86 427.36 C 149.56 426.70 142.22 426.67 134.93 425.85 C 122.26 425.70 109.54 425.10 96.98 423.32 C 96.47 422.93 95.44 422.14 94.92 421.75 C 97.78 419.11 101.49 417.70 105.00 416.17 Z" fill="#feada4" opacity="1.00" stroke="#feada4" stroke-width="0.25"/>
<path d="M 357.30 414.36 C 358.41 413.27 359.02 411.10 360.90 411.25 C 374.10 411.04 387.44 413.26 399.51 418.72 C 402.60 420.29 405.89 421.72 408.33 424.26 C 390.94 426.37 373.44 427.40 355.94 427.83 C 349.60 428.26 343.25 428.58 336.90 428.37 C 344.75 425.56 351.85 420.67 357.30 414.36 Z" fill="#feada5" opacity="1.00" stroke="#feada5" stroke-width="0.25"/>
<path d="M 91.19 424.04 C 92.30 423.17 93.43 422.32 94.54 421.46 L 94.92 421.75 C 95.44 422.14 96.47 422.93 96.98 423.32 C 109.54 425.10 122.26 425.70 134.93 425.85 C 142.22 426.67 149.56 426.70 156.86 427.36 C 156.71 426.70 156.42 425.37 156.27 424.71 C 158.45 425.87 160.70 426.89 163.04 427.69 C 139.06 427.95 115.07 426.20 91.19 424.04 Z" fill="#c39fa9" opacity="1.00" stroke="#c39fa9" stroke-width="0.25"/>
</svg>