<?xml version="1.0" encoding="utf-8"?>
<svg xmlns="http://www.w3.org/2000/svg" height="512pt" version="1.1" viewBox="0 0 512 512" width="512pt">
<path d="M 0.00 0.00 L 512.00 0.00 L 512.00 512.00 L 0.00 512.00 L 0.00 0.00 Z" fill="transparent" opacity="1.00" stroke="transparent" stroke-width="0.25"/>
<path d="M 429.22 137.96 C 433.88 136.08 438.38 140.14 439.40 144.52 C 443.54 144.79 445.99 148.51 445.63 152.46 C 447.83 154.20 449.43 156.94 448.77 159.82 C 447.88 163.87 443.86 166.18 440.25 167.48 C 440.15 171.34 440.52 175.23 439.86 179.06 C 438.54 187.80 434.67 195.87 430.53 203.59 C 419.49 222.77 404.30 239.18 387.92 253.91 C 332.52 303.03 258.06 330.61 183.94 327.80 C 162.61 327.09 141.39 323.45 121.06 317.00 C 108.42 312.59 95.83 307.20 85.40 298.63 C 76.31 291.32 69.51 280.49 69.43 268.55 C 65.80 268.29 61.47 268.20 59.05 265.01 C 56.84 262.90 57.80 259.72 57.91 257.06 C 57.62 255.33 56.76 253.73 56.58 251.98 C 56.57 249.99 57.89 248.42 58.99 246.91 C 58.69 244.71 58.07 242.38 58.96 240.24 C 60.41 236.21 65.44 234.08 69.38 235.67 C 71.87 237.06 73.99 239.01 76.00 241.01 C 81.49 231.62 91.52 225.36 102.29 224.13 C 119.77 221.65 136.26 229.42 153.02 232.91 C 178.96 238.96 206.07 239.14 232.34 235.12 C 262.98 229.85 292.74 219.31 319.74 203.88 C 340.42 192.30 359.05 177.43 376.47 161.43 C 384.28 154.56 392.76 147.64 403.17 145.35 C 409.59 143.83 416.41 144.31 422.56 146.70 C 423.80 143.22 425.30 139.14 429.22 137.96 Z" fill="#501e1c" opacity="1.00" stroke="#501e1c" stroke-width="0.25"/>
<path d="M 430.39 141.38 C 434.15 140.62 435.98 144.75 436.22 147.83 C 437.95 148.13 439.69 148.40 441.44 148.64 C 441.59 150.42 441.72 152.20 441.86 153.99 C 443.32 155.28 445.37 156.68 444.96 158.94 C 444.94 162.27 441.15 163.24 438.53 163.82 C 436.23 157.56 431.84 152.07 426.11 148.64 C 426.49 145.81 427.70 142.74 430.39 141.38 Z" fill="#eb7e2b" opacity="1.00" stroke="#eb7e2b" stroke-width="0.25"/>
<path d="M 393.12 153.21 C 400.81 149.06 410.06 146.52 418.66 149.31 C 422.87 150.68 427.59 152.81 429.67 156.90 C 429.65 163.24 430.62 169.69 429.01 175.93 C 425.26 190.66 416.52 203.44 407.10 215.12 C 399.22 224.83 390.25 233.55 381.06 242.00 C 371.56 249.77 361.95 257.43 351.87 264.44 C 347.77 265.74 344.90 269.11 341.28 271.24 C 305.34 293.46 264.14 306.60 222.26 311.43 C 216.04 312.25 209.71 311.42 203.55 312.72 C 189.75 313.23 175.87 312.75 162.19 310.81 C 154.78 308.69 146.95 308.79 139.59 306.39 C 122.43 302.18 105.05 296.25 91.41 284.60 C 82.62 277.57 76.08 267.18 74.82 255.90 C 75.97 246.72 80.83 237.88 88.70 232.79 C 96.54 228.39 105.79 226.70 114.71 227.66 C 127.56 229.35 139.77 233.92 152.39 236.66 C 166.40 239.57 180.65 241.85 195.00 241.73 C 222.27 242.25 249.35 236.70 275.13 228.11 C 307.92 216.89 338.40 199.27 364.68 176.72 C 374.20 168.93 382.59 159.71 393.12 153.21 Z" fill="#ff9d3f" opacity="1.00" stroke="#ff9d3f" stroke-width="0.25"/>
<path d="M 429.67 156.90 C 435.46 161.59 437.52 169.79 436.57 176.97 C 434.88 189.16 428.74 200.08 422.20 210.29 C 410.16 228.14 394.74 243.43 378.42 257.36 C 352.41 278.71 322.79 295.69 291.13 307.10 C 252.83 320.77 211.65 327.08 171.07 323.12 C 165.62 322.70 160.12 322.59 154.80 321.17 C 133.72 317.72 112.59 312.01 94.27 300.68 C 84.47 294.22 75.25 284.92 73.48 272.82 C 73.11 267.19 72.85 261.27 74.82 255.90 C 76.08 267.18 82.62 277.57 91.41 284.60 C 105.05 296.25 122.43 302.18 139.59 306.39 C 146.95 308.79 154.78 308.69 162.19 310.81 C 161.04 311.02 159.89 311.26 158.75 311.51 C 163.35 311.83 167.90 312.64 172.47 313.31 C 183.30 314.37 194.18 313.41 205.04 313.61 C 204.67 313.39 203.92 312.94 203.55 312.72 C 209.71 311.42 216.04 312.25 222.26 311.43 C 264.14 306.60 305.34 293.46 341.28 271.24 C 344.90 269.11 347.77 265.74 351.87 264.44 C 356.04 263.80 359.17 260.80 362.48 258.46 C 369.11 253.54 376.03 248.62 381.06 242.00 C 390.25 233.55 399.22 224.83 407.10 215.12 C 416.52 203.44 425.26 190.66 429.01 175.93 C 430.62 169.69 429.65 163.24 429.67 156.90 Z" fill="#eb7e2b" opacity="1.00" stroke="#eb7e2b" stroke-width="0.25"/>
<path d="M 98.92 231.57 C 101.87 229.60 105.53 229.45 108.97 229.38 C 112.53 229.35 116.20 229.26 119.63 230.42 C 120.94 230.83 122.57 231.21 122.93 232.77 C 115.11 230.51 106.92 231.93 98.92 231.57 Z" fill="#ffffff" opacity="1.00" stroke="#ffffff" stroke-width="0.25"/>
<path d="M 63.77 239.82 C 67.72 237.49 72.53 241.55 73.88 245.03 C 72.03 251.52 69.94 258.02 69.62 264.83 C 66.85 264.58 63.38 265.03 61.47 262.54 C 60.72 260.30 62.13 258.33 62.65 256.25 C 61.91 254.81 60.92 253.50 60.31 251.99 C 60.62 250.16 62.56 249.13 63.71 247.79 C 62.87 245.32 60.78 241.64 63.77 239.82 Z" fill="#eb7e2b" opacity="1.00" stroke="#eb7e2b" stroke-width="0.25"/>
<path d="M 351.87 264.44 C 361.95 257.43 371.56 249.77 381.06 242.00 C 376.03 248.62 369.11 253.54 362.48 258.46 C 359.17 260.80 356.04 263.80 351.87 264.44 Z" fill="#501e1c" opacity="1.00" stroke="#501e1c" stroke-width="0.25"/>
<path d="M 158.75 311.51 C 159.89 311.26 161.04 311.02 162.19 310.81 C 175.87 312.75 189.75 313.23 203.55 312.72 C 203.92 312.94 204.67 313.39 205.04 313.61 C 194.18 313.41 183.30 314.37 172.47 313.31 C 167.90 312.64 163.35 311.83 158.75 311.51 Z" fill="#501e1c" opacity="1.00" stroke="#501e1c" stroke-width="0.25"/>
</svg>