<?xml version="1.0" encoding="utf-8"?>
<svg xmlns="http://www.w3.org/2000/svg" height="512pt" version="1.1" viewBox="0 0 512 512" width="512pt">
<path d="M 0.00 0.00 L 512.00 0.00 L 512.00 512.00 L 0.00 512.00 L 0.00 0.00 Z" fill="transparent" opacity="1.00" stroke="transparent" stroke-width="0.25"/>
<path d="M 250.69 26.79 C 252.43 26.29 255.19 25.86 255.94 28.08 C 257.19 31.24 256.25 34.76 256.24 38.07 C 255.56 37.35 254.89 36.63 254.22 35.91 C 253.85 35.51 253.09 34.69 252.72 34.29 C 252.12 34.31 250.93 34.36 250.33 34.39 C 249.93 35.40 249.54 36.41 249.17 37.43 C 248.75 36.93 247.92 35.93 247.50 35.43 C 247.49 32.30 248.35 28.99 250.69 26.79 Z" fill="#43caf0" opacity="1.00" stroke="#43caf0" stroke-width="0.25"/>
<path d="M 250.33 34.39 C 250.93 34.36 252.12 34.31 252.72 34.29 C 253.09 34.69 253.85 35.51 254.22 35.91 C 253.71 40.99 253.42 46.08 253.35 51.19 C 252.67 53.99 252.04 56.97 250.14 59.23 C 249.09 60.49 249.04 62.20 248.61 63.71 C 246.02 63.46 242.30 61.69 244.75 58.64 C 244.85 58.98 245.03 59.66 245.13 60.00 C 247.41 52.66 247.27 44.86 249.17 37.43 C 249.54 36.41 249.93 35.40 250.33 34.39 Z" fill="#eefdff" opacity="1.00" stroke="#eefdff" stroke-width="0.25"/>
<path d="M 245.70 45.08 C 246.30 41.86 246.17 38.46 247.50 35.43 C 247.92 35.93 248.75 36.93 249.17 37.43 C 247.27 44.86 247.41 52.66 245.13 60.00 C 245.03 59.66 244.85 58.98 244.75 58.64 C 244.16 54.11 245.44 49.59 245.70 45.08 Z" fill="#6ec0d8" opacity="1.00" stroke="#6ec0d8" stroke-width="0.25"/>
<path d="M 254.22 35.91 C 254.89 36.63 255.56 37.35 256.24 38.07 C 255.60 42.48 255.73 47.24 253.35 51.19 C 253.42 46.08 253.71 40.99 254.22 35.91 Z" fill="#77c1d1" opacity="1.00" stroke="#77c1d1" stroke-width="0.25"/>
<path d="M 320.44 39.27 C 322.06 36.40 325.78 37.59 328.45 37.58 C 328.62 39.56 329.19 41.97 327.45 43.45 C 320.83 49.98 315.38 57.65 308.16 63.54 C 308.58 60.52 310.64 58.34 312.60 56.25 C 315.07 53.83 316.80 50.80 318.33 47.73 C 316.54 49.14 314.79 50.59 313.03 52.04 L 312.60 50.86 C 315.35 47.09 317.87 43.16 320.44 39.27 Z" fill="#46cef7" opacity="1.00" stroke="#46cef7" stroke-width="0.25"/>
<path d="M 196.83 38.64 C 198.42 38.50 200.05 38.13 201.65 38.50 C 204.73 41.66 205.75 46.20 207.12 50.24 C 203.64 49.19 205.37 43.90 202.01 43.17 C 199.27 44.40 200.28 48.08 200.70 50.37 C 199.80 50.82 198.90 51.26 197.99 51.70 C 195.58 47.79 194.66 42.89 196.83 38.64 Z" fill="#49cdf0" opacity="1.00" stroke="#49cdf0" stroke-width="0.25"/>
<path d="M 313.03 52.04 C 314.79 50.59 316.54 49.14 318.33 47.73 C 316.80 50.80 315.07 53.83 312.60 56.25 C 311.19 57.01 309.76 57.71 308.29 58.32 C 308.28 55.22 310.91 53.16 312.60 50.86 L 313.03 52.04 Z" fill="#7be0f0" opacity="1.00" stroke="#7be0f0" stroke-width="0.25"/>
<path d="M 200.70 50.37 C 203.02 55.89 205.98 61.13 207.70 66.89 C 206.56 66.24 205.29 65.65 204.63 64.45 C 202.05 60.40 200.13 55.99 197.99 51.70 C 198.90 51.26 199.80 50.82 200.70 50.37 Z" fill="#5cbfd9" opacity="1.00" stroke="#5cbfd9" stroke-width="0.25"/>
<path d="M 131.34 56.99 C 132.44 52.76 136.65 51.29 140.55 52.61 C 139.44 53.23 138.32 53.83 137.21 54.47 C 135.11 56.40 137.01 58.92 138.87 60.09 C 146.59 65.92 155.20 70.85 161.34 78.51 C 159.90 77.92 158.40 77.52 156.88 77.18 C 152.07 74.49 147.62 71.07 143.07 67.94 C 139.01 64.47 133.33 62.34 131.34 56.99 Z" fill="#4fcaea" opacity="1.00" stroke="#4fcaea" stroke-width="0.25"/>
<path d="M 140.55 52.61 C 145.57 56.89 150.71 61.03 155.47 65.61 C 159.20 68.90 162.34 72.87 166.52 75.63 C 165.19 75.35 163.83 75.03 162.78 74.12 C 155.82 68.84 149.85 62.39 142.97 57.01 C 141.30 55.68 139.21 55.10 137.21 54.47 C 138.32 53.83 139.44 53.23 140.55 52.61 Z" fill="#73c3d3" opacity="1.00" stroke="#73c3d3" stroke-width="0.25"/>
<path d="M 138.87 60.09 C 137.01 58.92 135.11 56.40 137.21 54.47 C 139.21 55.10 141.30 55.68 142.97 57.01 C 149.85 62.39 155.82 68.84 162.78 74.12 C 163.83 75.03 165.19 75.35 166.52 75.63 C 169.68 76.11 166.07 79.08 166.46 80.97 C 162.82 82.19 158.49 80.81 156.88 77.18 C 158.40 77.52 159.90 77.92 161.34 78.51 C 155.20 70.85 146.59 65.92 138.87 60.09 Z" fill="#f3feff" opacity="1.00" stroke="#f3feff" stroke-width="0.25"/>
<path d="M 380.15 63.11 C 382.99 60.82 386.86 61.00 390.27 61.44 C 392.81 62.00 393.17 65.32 392.37 67.38 C 390.62 69.47 388.31 71.01 386.05 72.50 L 384.86 71.39 L 384.62 71.17 C 386.58 69.81 386.87 67.57 386.51 65.37 C 381.04 65.96 376.94 70.35 372.34 73.04 C 365.05 77.36 359.43 84.06 351.92 87.98 C 353.14 85.08 355.80 83.19 358.04 81.11 C 365.40 75.10 372.36 68.56 380.15 63.11 Z" fill="#49c9eb" opacity="1.00" stroke="#49c9eb" stroke-width="0.25"/>
<path d="M 356.70 91.56 C 365.74 84.36 375.93 78.74 384.86 71.39 L 386.05 72.50 C 384.81 74.45 382.64 75.53 380.83 76.87 C 373.00 81.92 365.51 87.51 357.37 92.06 C 357.20 91.94 356.87 91.69 356.70 91.56 Z" fill="#77c1d1" opacity="1.00" stroke="#77c1d1" stroke-width="0.25"/>
<path d="M 238.41 80.61 C 248.61 78.03 259.86 78.85 269.30 83.68 C 278.62 88.14 286.96 94.72 297.11 97.36 C 310.83 101.32 325.71 100.29 338.93 106.13 C 346.63 109.45 354.06 114.88 357.15 122.96 C 360.29 130.37 358.07 138.51 357.73 146.20 C 358.81 149.03 362.47 148.53 364.82 147.88 C 368.67 146.90 371.25 143.78 373.99 141.15 C 376.00 141.26 375.74 143.58 376.12 145.01 C 377.42 154.30 373.82 163.27 370.67 171.81 C 365.72 183.02 365.34 195.46 362.62 207.26 C 365.14 206.69 367.78 207.90 368.71 210.37 C 371.88 217.68 369.41 225.86 366.36 232.76 C 369.06 243.94 365.03 258.24 353.72 262.99 C 350.32 272.94 347.67 283.16 343.90 292.99 C 343.10 294.75 342.17 296.45 341.22 298.13 C 341.12 297.53 340.91 296.33 340.80 295.73 C 345.55 282.54 349.42 269.06 353.43 255.64 C 353.79 256.41 354.51 257.96 354.88 258.74 C 354.73 259.35 354.60 259.96 354.46 260.58 C 365.34 253.56 368.02 237.35 361.10 226.71 C 361.14 226.28 361.22 225.43 361.26 225.01 C 361.75 225.18 362.73 225.52 363.23 225.69 C 363.88 227.07 364.54 228.45 365.21 229.84 C 367.60 224.63 368.49 218.77 367.54 213.11 C 367.23 211.79 366.12 210.89 365.26 209.93 C 363.87 208.61 361.59 208.97 360.40 210.36 C 358.55 211.65 359.45 214.11 359.36 215.98 C 358.81 215.75 357.69 215.31 357.14 215.08 C 356.50 211.95 356.75 208.08 353.93 205.94 C 351.91 208.33 350.08 210.97 349.37 214.07 C 347.82 218.57 348.80 223.36 348.26 227.99 C 347.19 237.69 345.30 247.32 342.40 256.64 C 341.87 256.61 340.80 256.53 340.26 256.50 C 343.25 246.20 345.30 235.63 346.30 224.96 C 346.51 223.02 345.83 221.17 345.37 219.32 C 341.82 219.12 340.59 222.89 339.39 225.51 C 334.38 238.19 332.06 252.35 323.19 263.16 C 317.96 269.40 311.96 275.22 308.60 282.78 C 304.32 291.36 305.04 301.27 305.84 310.53 C 303.44 307.54 303.92 303.64 303.98 300.08 C 303.36 299.38 302.75 298.68 302.15 297.99 C 303.62 296.15 303.26 293.64 303.72 291.47 C 304.97 281.46 311.41 273.18 318.00 265.97 C 323.13 260.45 327.12 253.94 329.85 246.93 C 332.53 240.75 332.09 233.88 333.03 227.35 C 333.96 217.01 334.91 206.68 335.68 196.33 C 331.73 196.18 327.67 195.62 324.21 193.59 C 318.40 190.55 315.65 183.90 309.79 180.93 C 302.84 177.33 294.70 177.22 287.10 178.12 C 276.72 178.92 266.30 177.86 256.07 176.14 C 247.23 174.64 238.32 172.18 230.77 167.19 C 223.30 161.98 218.72 153.39 216.96 144.60 C 214.77 154.05 210.06 163.28 202.13 169.15 C 197.52 173.03 191.69 175.10 185.74 175.59 C 184.43 186.73 182.82 197.83 181.43 208.95 C 181.30 210.59 181.77 212.19 182.08 213.78 C 184.71 225.45 185.41 237.48 188.11 249.14 C 189.83 256.13 196.04 260.55 201.77 264.23 C 209.14 268.91 212.94 278.06 211.94 286.61 C 211.72 288.53 211.59 290.48 211.75 292.42 C 210.83 293.30 209.91 294.24 208.69 294.69 C 209.96 287.69 210.81 280.02 207.37 273.48 C 204.07 266.57 196.10 264.28 191.26 258.79 C 184.85 252.70 185.01 243.26 183.50 235.18 C 181.38 223.77 180.98 211.67 175.56 201.18 C 174.64 201.27 173.72 201.37 172.81 201.47 C 169.83 213.63 170.55 226.36 172.75 238.59 C 172.22 238.64 171.15 238.75 170.61 238.81 C 168.35 227.02 167.64 214.75 170.21 202.96 C 170.52 199.24 169.33 195.46 167.84 192.08 C 167.15 190.41 165.43 190.18 163.85 190.34 C 160.38 200.53 161.24 211.44 161.18 222.02 C 161.10 226.75 161.64 231.45 162.15 236.14 C 161.89 236.64 161.37 237.62 161.11 238.11 C 160.77 237.53 160.11 236.36 159.77 235.78 C 158.53 221.82 157.77 207.64 160.53 193.80 C 161.44 191.06 158.63 189.38 156.85 187.95 C 153.15 192.37 153.68 198.60 153.27 204.01 C 152.63 215.34 155.28 226.43 157.87 237.36 C 160.44 247.01 161.91 257.00 165.82 266.24 C 168.50 272.82 172.52 278.72 175.63 285.09 C 173.88 284.45 172.45 283.28 171.53 281.67 C 166.14 272.80 161.60 263.27 159.43 253.07 C 156.19 239.87 152.78 226.65 150.83 213.22 C 146.79 207.74 144.68 200.32 146.57 193.64 C 148.17 192.18 150.29 191.96 152.37 192.02 C 152.81 189.87 153.62 187.47 155.86 186.59 C 158.50 185.87 160.81 187.94 162.17 189.97 C 161.93 169.09 162.46 146.74 173.78 128.42 C 177.93 122.65 183.06 117.26 190.02 115.03 C 183.99 113.69 181.90 107.42 180.74 102.12 C 179.97 96.66 179.72 90.89 181.55 85.60 C 182.00 85.60 182.90 85.59 183.35 85.58 C 189.68 93.19 200.95 95.08 210.07 92.15 C 220.11 89.80 228.39 83.00 238.41 80.61 Z" fill="#172a3d" opacity="1.00" stroke="#172a3d" stroke-width="0.25"/>
<path d="M 227.12 87.28 C 237.41 81.96 249.72 79.63 261.00 82.95 C 271.32 85.50 279.43 92.90 289.17 96.83 C 304.83 103.93 322.95 101.38 338.60 108.50 C 345.29 111.53 351.98 116.07 354.79 123.15 C 357.85 129.71 356.07 137.08 355.69 143.98 C 355.66 146.08 355.74 149.05 358.11 149.90 C 363.73 151.71 369.48 148.80 373.49 144.93 C 375.46 153.83 371.43 162.60 368.74 170.92 C 364.55 179.03 363.82 188.24 362.24 197.08 C 361.55 201.26 361.22 205.84 358.49 209.30 C 358.02 207.77 357.59 206.23 357.19 204.69 C 355.68 204.48 354.11 203.95 352.60 204.47 C 348.42 207.41 347.16 212.66 346.31 217.39 C 344.39 217.45 341.91 216.73 340.65 218.64 C 338.42 221.15 337.66 224.53 336.05 227.42 C 335.15 223.97 336.32 220.48 336.30 217.01 C 336.11 209.21 338.67 201.44 337.28 193.66 C 332.02 194.48 326.46 193.13 322.38 189.66 C 318.24 186.40 315.96 181.05 310.92 178.93 C 302.91 174.87 293.68 175.30 284.98 175.88 C 279.09 176.66 273.20 175.50 267.31 175.47 C 255.15 173.73 242.14 172.39 231.83 165.10 C 225.17 160.71 221.10 153.22 219.48 145.56 C 218.94 143.43 218.79 140.98 216.95 139.49 C 214.48 142.80 214.37 147.11 212.74 150.81 C 209.24 160.60 201.43 169.31 191.30 172.32 C 188.94 173.14 185.56 171.85 183.89 173.99 C 182.53 184.03 180.86 194.02 179.51 204.05 C 178.42 200.90 176.01 198.07 172.37 198.34 C 171.60 193.72 169.60 188.26 164.37 187.29 C 164.09 176.16 164.65 165.01 166.50 154.02 C 168.94 142.14 173.26 129.82 182.72 121.69 C 186.19 118.43 191.00 117.47 194.98 115.04 C 192.19 112.58 187.53 112.92 185.70 109.33 C 181.95 103.10 181.55 95.25 182.97 88.25 C 189.81 95.25 200.67 97.12 209.88 94.55 C 215.87 92.78 221.69 90.37 227.12 87.28 Z" fill="#724b44" opacity="1.00" stroke="#724b44" stroke-width="0.25"/>
<path d="M 99.67 107.10 C 98.55 103.47 102.78 100.46 106.05 101.85 C 118.54 104.72 130.44 109.66 142.81 112.99 C 141.17 113.60 139.52 114.17 137.83 114.63 C 132.80 113.41 127.64 112.59 122.82 110.68 C 117.75 109.77 113.00 107.02 107.72 107.43 C 116.42 111.02 125.65 113.00 134.42 116.32 C 135.84 117.14 138.67 118.78 140.08 119.60 C 128.83 117.27 117.69 114.38 106.56 111.53 C 104.05 110.56 100.82 109.85 99.67 107.10 Z" fill="#49caee" opacity="1.00" stroke="#49caee" stroke-width="0.25"/>
<path d="M 416.36 107.82 C 419.46 106.28 422.90 105.87 426.30 106.43 C 430.01 112.56 423.93 118.78 418.12 120.08 C 416.12 120.36 414.11 120.41 412.11 120.42 C 415.01 118.15 417.91 115.86 420.50 113.24 C 420.52 112.30 420.55 111.36 420.58 110.43 C 419.14 110.52 417.70 110.62 416.27 110.72 C 416.29 110.12 416.33 108.92 416.35 108.32 L 416.36 107.82 Z" fill="#45cef0" opacity="1.00" stroke="#45cef0" stroke-width="0.25"/>
<path d="M 388.71 121.74 C 397.90 117.24 406.85 112.13 416.35 108.32 C 416.33 108.92 416.29 110.12 416.27 110.72 C 414.31 112.12 411.76 112.31 409.65 113.44 C 409.56 113.48 409.38 113.56 409.29 113.60 C 402.64 116.87 395.85 119.84 389.15 123.00 C 388.12 123.40 387.05 123.68 385.96 123.83 C 386.42 122.65 387.68 122.27 388.71 121.74 Z" fill="#6ec0d8" opacity="1.00" stroke="#6ec0d8" stroke-width="0.25"/>
<path d="M 142.81 112.99 L 143.11 112.88 C 145.81 113.63 148.46 114.62 150.89 116.04 C 149.33 116.60 147.73 117.78 146.01 117.20 C 143.29 116.37 140.21 116.29 137.83 114.63 C 139.52 114.17 141.17 113.60 142.81 112.99 Z" fill="#9edeef" opacity="1.00" stroke="#9edeef" stroke-width="0.25"/>
<path d="M 409.29 113.60 C 409.38 113.56 409.56 113.48 409.65 113.44 C 409.56 113.48 409.38 113.56 409.29 113.60 Z" fill="#73e2fe" opacity="1.00" stroke="#73e2fe" stroke-width="0.25"/>
<path d="M 410.05 120.95 C 410.69 120.61 411.38 120.43 412.11 120.42 C 414.11 120.41 416.12 120.36 418.12 120.08 C 409.60 124.53 400.42 127.69 391.44 131.13 C 389.21 132.08 386.83 132.59 384.40 132.50 C 384.55 132.13 384.85 131.39 385.00 131.03 C 393.51 128.08 401.94 124.88 410.05 120.95 Z" fill="#85c5d5" opacity="1.00" stroke="#85c5d5" stroke-width="0.25"/>
<path d="M 92.50 147.87 C 94.50 146.55 96.40 144.59 98.94 144.53 C 104.98 144.34 110.94 145.74 116.99 145.62 C 122.82 146.47 128.82 146.01 134.55 147.43 C 124.38 148.89 114.09 146.91 103.90 146.60 C 102.62 146.65 100.11 147.14 100.54 148.95 C 99.98 150.94 102.58 151.56 104.02 151.58 C 115.09 152.26 126.10 149.48 137.15 150.90 C 136.90 151.22 136.39 151.88 136.14 152.20 C 130.57 152.81 124.90 151.95 119.33 152.80 C 114.59 153.64 109.75 153.16 105.01 154.01 C 101.24 154.45 96.69 155.31 93.73 152.26 C 92.35 151.22 92.75 149.36 92.50 147.87 Z" fill="#4bc8ea" opacity="1.00" stroke="#4bc8ea" stroke-width="0.25"/>
<path d="M 202.13 169.15 C 210.06 163.28 214.77 154.05 216.96 144.60 C 218.72 153.39 223.30 161.98 230.77 167.19 C 238.32 172.18 247.23 174.64 256.07 176.14 C 266.30 177.86 276.72 178.92 287.10 178.12 C 294.70 177.22 302.84 177.33 309.79 180.93 C 315.65 183.90 318.40 190.55 324.21 193.59 C 327.67 195.62 331.73 196.18 335.68 196.33 C 334.91 206.68 333.96 217.01 333.03 227.35 C 332.09 233.88 332.53 240.75 329.85 246.93 C 327.12 253.94 323.13 260.45 318.00 265.97 C 311.41 273.18 304.97 281.46 303.72 291.47 C 303.26 293.64 303.62 296.15 302.15 297.99 C 297.87 300.11 293.74 302.57 289.20 304.13 C 273.88 310.05 256.77 310.27 240.88 306.64 C 232.77 304.58 224.72 301.60 217.95 296.57 C 215.93 295.11 213.92 293.64 211.75 292.42 C 211.59 290.48 211.72 288.53 211.94 286.61 C 212.94 278.06 209.14 268.91 201.77 264.23 C 196.04 260.55 189.83 256.13 188.11 249.14 C 185.41 237.48 184.71 225.45 182.08 213.78 C 181.77 212.19 181.30 210.59 181.43 208.95 C 182.82 197.83 184.43 186.73 185.74 175.59 C 191.69 175.10 197.52 173.03 202.13 169.15 Z" fill="#ffccb4" opacity="1.00" stroke="#ffccb4" stroke-width="0.25"/>
<path d="M 401.12 160.87 C 414.26 157.26 427.77 155.27 441.12 152.62 C 443.24 152.19 445.42 152.39 447.58 152.48 C 449.51 154.37 449.81 156.98 449.62 159.56 C 446.86 161.38 443.65 162.26 440.40 162.65 C 440.02 162.18 439.27 161.24 438.89 160.77 C 440.15 160.36 441.41 159.93 442.67 159.49 C 442.63 158.98 442.53 157.97 442.49 157.46 C 429.88 158.55 417.58 161.93 405.02 163.43 C 402.28 163.51 399.52 163.54 396.84 162.95 C 398.54 162.86 400.01 162.17 401.12 160.87 Z" fill="#4cccef" opacity="1.00" stroke="#4cccef" stroke-width="0.25"/>
<path d="M 417.96 165.44 C 424.75 163.15 431.89 162.17 438.89 160.77 C 439.27 161.24 440.02 162.18 440.40 162.65 C 436.30 163.75 431.99 163.59 427.87 164.60 C 424.63 165.39 421.29 165.92 417.96 165.44 Z" fill="#73c3d3" opacity="1.00" stroke="#73c3d3" stroke-width="0.25"/>
<path d="M 114.91 182.62 C 119.66 181.85 124.29 180.07 129.17 180.35 C 127.50 182.11 124.80 181.95 122.61 182.55 C 111.65 184.19 101.02 187.52 90.08 189.22 C 89.41 189.03 88.06 188.64 87.39 188.44 C 96.43 185.92 105.77 184.68 114.91 182.62 Z" fill="#5cbfd9" opacity="1.00" stroke="#5cbfd9" stroke-width="0.25"/>
<path d="M 90.08 189.22 C 101.02 187.52 111.65 184.19 122.61 182.55 C 123.11 183.02 124.09 183.96 124.59 184.42 C 120.32 186.17 115.63 186.32 111.30 187.87 C 106.41 188.44 101.43 188.37 96.62 189.56 C 93.56 190.32 90.45 190.93 87.31 191.29 C 88.21 190.57 89.14 189.89 90.08 189.22 Z" fill="#98f1fe" opacity="1.00" stroke="#98f1fe" stroke-width="0.25"/>
<path d="M 124.59 184.42 C 126.97 183.25 129.66 183.46 132.23 183.40 C 127.56 185.21 122.80 186.81 117.99 188.23 C 115.76 188.73 113.48 188.45 111.30 187.87 C 115.63 186.32 120.32 186.17 124.59 184.42 Z" fill="#5cbfd9" opacity="1.00" stroke="#5cbfd9" stroke-width="0.25"/>
<path d="M 204.20 192.18 C 214.50 189.18 224.67 185.76 235.00 182.87 C 236.60 182.38 238.28 182.40 239.93 182.34 C 241.43 184.36 241.82 186.80 241.71 189.26 C 240.17 190.04 238.59 190.75 236.93 191.23 C 224.00 195.26 211.06 199.44 197.68 201.73 C 195.62 200.27 195.25 197.92 195.27 195.56 C 198.04 193.93 201.16 193.13 204.20 192.18 Z" fill="#053356" opacity="1.00" stroke="#053356" stroke-width="0.25"/>
<path d="M 76.70 190.90 C 80.23 189.99 83.74 188.58 87.39 188.44 C 88.06 188.64 89.41 189.03 90.08 189.22 C 89.14 189.89 88.21 190.57 87.31 191.29 C 90.45 190.93 93.56 190.32 96.62 189.56 C 101.43 188.37 106.41 188.44 111.30 187.87 C 113.48 188.45 115.76 188.73 117.99 188.23 C 115.21 189.72 111.97 189.83 109.04 190.89 C 102.32 192.49 95.79 194.83 88.98 196.06 C 85.39 196.76 81.62 198.24 77.97 197.07 C 75.48 196.03 76.76 192.93 76.70 190.90 Z" fill="#4cccf2" opacity="1.00" stroke="#4cccf2" stroke-width="0.25"/>
<path d="M 268.29 194.44 C 267.91 191.45 269.81 189.04 271.84 187.12 C 281.49 190.72 290.46 195.96 299.82 200.26 C 304.25 202.60 308.85 204.65 313.18 207.17 C 314.90 209.13 313.03 211.84 312.08 213.75 C 310.45 213.62 308.75 213.75 307.26 213.00 C 294.11 207.15 281.04 201.11 268.29 194.44 Z" fill="#043255" opacity="1.00" stroke="#043255" stroke-width="0.25"/>
<path d="M 153.27 204.01 C 153.68 198.60 153.15 192.37 156.85 187.95 C 158.63 189.38 161.44 191.06 160.53 193.80 C 157.77 207.64 158.53 221.82 159.77 235.78 C 159.30 236.18 158.35 236.97 157.87 237.36 C 155.28 226.43 152.63 215.34 153.27 204.01 Z" fill="#f8ceb8" opacity="1.00" stroke="#f8ceb8" stroke-width="0.25"/>
<path d="M 163.85 190.34 C 165.43 190.18 167.15 190.41 167.84 192.08 C 169.33 195.46 170.52 199.24 170.21 202.96 C 167.64 214.75 168.35 227.02 170.61 238.81 C 171.15 238.75 172.22 238.64 172.75 238.59 C 170.55 226.36 169.83 213.63 172.81 201.47 C 173.72 201.37 174.64 201.27 175.56 201.18 C 180.98 211.67 181.38 223.77 183.50 235.18 C 185.01 243.26 184.85 252.70 191.26 258.79 C 196.10 264.28 204.07 266.57 207.37 273.48 C 210.81 280.02 209.96 287.69 208.69 294.69 C 205.69 309.42 200.63 323.62 196.21 337.96 C 185.59 332.84 175.63 326.45 166.10 319.53 C 169.80 312.16 173.74 304.92 177.59 297.64 C 178.44 295.76 180.62 293.74 179.28 291.59 C 178.20 289.34 176.82 287.27 175.63 285.09 C 172.52 278.72 168.50 272.82 165.82 266.24 C 161.91 257.00 160.44 247.01 157.87 237.36 C 158.35 236.97 159.30 236.18 159.77 235.78 C 160.11 236.36 160.77 237.53 161.11 238.11 C 161.37 237.62 161.89 236.64 162.15 236.14 C 161.64 231.45 161.10 226.75 161.18 222.02 C 161.24 211.44 160.38 200.53 163.85 190.34 Z" fill="#ffcdb4" opacity="1.00" stroke="#ffcdb4" stroke-width="0.25"/>
<path d="M 148.51 194.60 C 149.63 194.38 150.75 194.17 151.87 193.96 C 151.29 199.10 151.21 204.28 150.42 209.39 C 148.85 204.64 147.46 199.62 148.51 194.60 Z" fill="#f0d8ca" opacity="1.00" stroke="#f0d8ca" stroke-width="0.25"/>
<path d="M 397.78 199.66 C 401.22 198.61 404.68 200.12 408.09 200.61 C 415.98 202.39 424.15 202.69 432.00 204.72 C 429.24 204.72 426.48 204.94 423.72 204.95 C 414.97 203.81 406.12 202.62 397.78 199.66 Z" fill="#73c3d3" opacity="1.00" stroke="#73c3d3" stroke-width="0.25"/>
<path d="M 388.96 205.33 C 390.28 205.28 391.59 205.38 392.88 205.63 C 401.89 208.32 410.79 211.46 420.03 213.26 C 423.44 214.07 426.96 214.39 430.29 215.52 C 428.89 216.04 427.52 216.64 426.17 217.24 C 414.23 214.39 402.43 210.99 390.86 206.88 C 390.01 206.63 389.38 206.11 388.96 205.33 Z" fill="#73c3d3" opacity="1.00" stroke="#73c3d3" stroke-width="0.25"/>
<path d="M 423.72 204.95 C 426.48 204.94 429.24 204.72 432.00 204.72 C 435.44 205.65 440.00 205.05 442.15 208.54 C 443.38 211.32 441.62 213.96 440.15 216.21 C 439.42 217.01 439.10 218.49 437.89 218.64 C 433.93 219.12 430.00 218.08 426.17 217.24 C 427.52 216.64 428.89 216.04 430.29 215.52 C 432.35 215.22 434.96 216.36 436.48 214.45 C 436.71 213.36 436.75 212.26 436.61 211.15 C 435.22 208.65 431.72 209.03 429.92 206.98 C 428.43 205.01 425.84 205.53 423.72 204.95 Z" fill="#4dc9e9" opacity="1.00" stroke="#4dc9e9" stroke-width="0.25"/>
<path d="M 222.43 206.57 C 225.59 204.61 229.71 206.76 230.83 210.06 C 232.44 214.17 232.45 219.71 229.03 222.93 C 226.11 225.69 221.00 224.16 219.62 220.55 C 217.50 216.07 217.88 209.41 222.43 206.57 Z" fill="#053154" opacity="1.00" stroke="#053154" stroke-width="0.25"/>
<path d="M 349.37 214.07 C 350.08 210.97 351.91 208.33 353.93 205.94 C 356.75 208.08 356.50 211.95 357.14 215.08 C 358.03 228.66 356.82 242.45 353.43 255.64 C 349.42 269.06 345.55 282.54 340.80 295.73 C 338.84 300.58 336.83 305.42 334.78 310.23 C 337.46 320.73 342.62 330.38 345.74 340.73 C 339.19 343.81 332.48 346.60 325.61 348.89 C 321.77 350.13 317.93 351.40 314.00 352.31 C 311.61 338.32 307.94 324.57 305.84 310.53 C 305.04 301.27 304.32 291.36 308.60 282.78 C 311.96 275.22 317.96 269.40 323.19 263.16 C 332.06 252.35 334.38 238.19 339.39 225.51 C 340.59 222.89 341.82 219.12 345.37 219.32 C 345.83 221.17 346.51 223.02 346.30 224.96 C 345.30 235.63 343.25 246.20 340.26 256.50 C 340.80 256.53 341.87 256.61 342.40 256.64 C 345.30 247.32 347.19 237.69 348.26 227.99 C 348.80 223.36 347.82 218.57 349.37 214.07 Z" fill="#ffcdb4" opacity="1.00" stroke="#ffcdb4" stroke-width="0.25"/>
<path d="M 245.97 222.92 C 249.32 217.81 252.25 212.37 256.26 207.73 C 256.83 208.01 257.98 208.58 258.56 208.87 C 256.52 210.40 255.27 212.66 253.92 214.76 C 251.30 218.98 248.53 223.11 245.96 227.37 C 244.33 229.67 243.15 232.32 243.33 235.21 C 246.93 238.15 251.72 238.37 256.11 239.01 C 256.21 239.59 256.40 240.76 256.50 241.35 C 251.30 240.51 245.40 240.23 241.51 236.21 C 240.25 231.21 243.59 226.96 245.97 222.92 Z" fill="#112937" opacity="1.00" stroke="#112937" stroke-width="0.25"/>
<path d="M 258.56 208.87 C 258.88 208.69 259.52 208.33 259.84 208.15 C 257.99 211.87 254.50 214.44 252.83 218.26 C 250.94 221.55 248.95 224.97 245.96 227.37 C 248.53 223.11 251.30 218.98 253.92 214.76 C 255.27 212.66 256.52 210.40 258.56 208.87 Z" fill="#ffffff" opacity="1.00" stroke="#ffffff" stroke-width="0.25"/>
<path d="M 360.40 210.36 C 361.59 208.97 363.87 208.61 365.26 209.93 C 365.58 210.82 365.90 211.72 366.21 212.62 C 364.80 212.15 363.39 211.68 361.99 211.21 C 360.35 215.66 361.52 220.41 361.26 225.01 C 361.22 225.43 361.14 226.28 361.10 226.71 C 368.02 237.35 365.34 253.56 354.46 260.58 C 354.60 259.96 354.73 259.35 354.88 258.74 C 358.74 244.88 360.19 230.33 359.36 215.98 C 359.45 214.11 358.55 211.65 360.40 210.36 Z" fill="#f9cfbb" opacity="1.00" stroke="#f9cfbb" stroke-width="0.25"/>
<path d="M 197.14 214.65 C 197.89 212.63 199.48 211.18 201.24 210.02 C 201.37 210.52 201.61 211.52 201.74 212.02 C 204.46 210.39 207.44 211.28 210.33 211.73 C 211.93 213.25 213.85 214.34 215.79 215.37 C 217.01 217.35 216.68 220.01 217.92 222.06 C 218.97 224.68 221.47 227.00 221.04 230.02 C 219.09 233.86 216.59 237.42 213.68 240.60 C 210.68 239.61 208.26 241.22 206.62 243.65 C 203.21 243.86 199.73 244.23 196.35 243.56 C 193.50 242.35 194.20 238.48 191.77 236.84 C 190.95 238.93 190.63 241.31 189.12 243.08 C 187.73 238.43 187.61 233.50 187.28 228.69 C 186.94 226.64 188.31 225.03 189.19 223.33 C 189.71 221.75 189.33 219.85 190.51 218.51 C 191.86 216.99 193.52 215.80 194.98 214.38 C 195.69 214.47 196.41 214.56 197.14 214.65 Z" fill="#ffc1a4" opacity="1.00" stroke="#ffc1a4" stroke-width="0.25"/>
<path d="M 365.26 209.93 C 366.12 210.89 367.23 211.79 367.54 213.11 C 368.49 218.77 367.60 224.63 365.21 229.84 C 364.54 228.45 363.88 227.07 363.23 225.69 C 362.73 225.52 361.75 225.18 361.26 225.01 C 361.52 220.41 360.35 215.66 361.99 211.21 C 363.39 211.68 364.80 212.15 366.21 212.62 C 365.90 211.72 365.58 210.82 365.26 209.93 Z" fill="#fdceb5" opacity="1.00" stroke="#fdceb5" stroke-width="0.25"/>
<path d="M 118.08 215.05 C 119.29 214.38 120.70 214.61 122.02 214.54 C 120.42 216.56 117.79 217.23 115.60 218.42 C 110.01 220.96 104.86 224.34 99.55 227.40 C 98.92 226.97 97.64 226.12 97.00 225.69 C 104.09 222.26 111.03 218.56 118.08 215.05 Z" fill="#5cbfd9" opacity="1.00" stroke="#5cbfd9" stroke-width="0.25"/>
<path d="M 276.50 216.25 C 278.58 213.22 283.39 211.99 286.00 215.03 C 289.37 219.06 289.09 225.75 285.46 229.54 C 283.37 231.62 279.46 231.75 277.53 229.38 C 274.22 225.87 274.95 220.40 276.50 216.25 Z" fill="#033257" opacity="1.00" stroke="#033257" stroke-width="0.25"/>
<path d="M 357.14 215.08 C 357.69 215.31 358.81 215.75 359.36 215.98 C 360.19 230.33 358.74 244.88 354.88 258.74 C 354.51 257.96 353.79 256.41 353.43 255.64 C 356.82 242.45 358.03 228.66 357.14 215.08 Z" fill="#161f2b" opacity="1.00" stroke="#161f2b" stroke-width="0.25"/>
<path d="M 192.60 232.06 C 192.72 227.28 192.07 222.17 193.88 217.65 L 195.40 217.39 C 195.59 223.26 195.78 229.21 194.95 235.04 C 193.27 234.95 192.26 233.72 192.60 232.06 Z" fill="#e07149" opacity="1.00" stroke="#e07149" stroke-width="0.25"/>
<path d="M 309.66 219.69 C 312.64 220.69 315.37 222.46 318.09 224.03 C 319.65 224.80 319.34 226.71 319.87 228.11 C 320.75 228.69 321.68 229.21 322.64 229.66 C 323.59 233.95 322.47 238.35 321.46 242.52 C 319.93 244.23 317.49 244.60 315.60 245.78 C 314.36 246.79 313.42 248.11 312.20 249.14 C 308.71 250.39 304.96 250.74 301.29 250.31 C 300.01 249.06 298.73 247.83 297.40 246.65 C 297.49 241.72 298.35 236.84 298.35 231.92 C 298.70 230.28 297.69 229.00 296.01 229.02 C 294.77 234.91 295.48 241.01 295.51 246.99 C 294.45 247.31 293.40 247.64 292.35 247.96 C 291.48 242.64 292.30 237.20 291.44 231.90 C 291.13 234.65 291.01 237.41 290.69 240.16 C 289.96 237.58 289.87 234.90 289.83 232.24 C 289.46 232.60 288.71 233.33 288.33 233.69 C 288.21 232.63 288.10 231.58 287.99 230.52 C 289.21 230.60 290.44 230.68 291.67 230.77 C 291.87 228.94 292.08 227.12 292.30 225.29 C 292.62 224.99 293.27 224.38 293.60 224.07 C 293.85 225.68 294.11 227.30 294.37 228.92 C 295.03 226.74 295.68 224.57 296.32 222.39 C 300.79 221.59 305.10 219.89 309.66 219.69 Z" fill="#ffc1a5" opacity="1.00" stroke="#ffc1a5" stroke-width="0.25"/>
<path d="M 197.48 236.65 C 197.41 230.67 196.94 224.48 198.91 218.73 C 199.25 219.26 199.94 220.32 200.28 220.85 C 200.33 225.99 200.63 231.24 199.36 236.27 C 198.89 236.37 197.95 236.56 197.48 236.65 Z" fill="#eb643b" opacity="1.00" stroke="#eb643b" stroke-width="0.25"/>
<path d="M 203.77 220.78 C 204.19 220.73 205.02 220.64 205.44 220.59 C 205.94 225.75 205.82 231.00 205.23 236.14 C 204.91 236.66 204.28 237.69 203.96 238.21 C 201.31 232.77 203.11 226.50 203.77 220.78 Z" fill="#e36739" opacity="1.00" stroke="#e36739" stroke-width="0.25"/>
<path d="M 208.83 219.67 L 210.54 219.25 C 210.75 224.17 210.70 229.09 210.65 234.01 C 210.73 235.80 210.12 237.48 209.23 239.00 C 206.90 238.41 207.96 235.66 207.64 233.98 C 207.61 229.19 208.05 224.40 208.83 219.67 Z" fill="#e96c40" opacity="1.00" stroke="#e96c40" stroke-width="0.25"/>
<path d="M 116.51 226.71 C 120.22 225.02 123.75 222.13 128.07 222.62 C 126.83 223.05 125.57 223.44 124.36 223.96 C 114.29 229.69 104.04 235.15 93.84 240.66 C 90.58 242.08 87.54 243.95 84.28 245.36 C 83.34 245.89 82.42 244.92 81.52 244.73 C 93.09 238.54 104.75 232.52 116.51 226.71 Z" fill="#5cbfd9" opacity="1.00" stroke="#5cbfd9" stroke-width="0.25"/>
<path d="M 211.66 227.92 C 211.52 226.21 212.74 224.98 214.20 224.34 C 214.67 229.17 213.57 233.95 213.36 238.77 C 212.92 238.60 212.03 238.28 211.58 238.11 C 211.24 234.72 211.33 231.30 211.66 227.92 Z" fill="#e76434" opacity="1.00" stroke="#e76434" stroke-width="0.25"/>
<path d="M 71.39 239.28 C 79.70 234.33 88.40 230.08 97.00 225.69 C 97.64 226.12 98.92 226.97 99.55 227.40 C 92.95 231.45 86.39 235.60 79.85 239.76 C 77.99 241.22 75.02 242.64 75.53 245.47 C 77.42 245.48 79.35 245.44 81.06 244.53 L 81.52 244.73 C 82.42 244.92 83.34 245.89 84.28 245.36 C 87.54 243.95 90.58 242.08 93.84 240.66 C 89.69 243.32 85.12 245.23 80.80 247.60 C 76.58 250.15 71.57 251.67 66.67 250.29 C 65.12 245.95 67.52 241.40 71.39 239.28 Z" fill="#47cff3" opacity="1.00" stroke="#47cff3" stroke-width="0.25"/>
<path d="M 306.65 226.62 C 307.04 226.69 307.82 226.81 308.20 226.88 C 308.48 232.86 309.02 239.01 307.54 244.88 C 307.03 244.74 306.01 244.45 305.50 244.30 C 305.85 238.41 305.17 232.40 306.65 226.62 Z" fill="#ee693e" opacity="1.00" stroke="#ee693e" stroke-width="0.25"/>
<path d="M 301.66 227.30 C 302.09 227.39 302.95 227.58 303.37 227.68 C 303.66 233.23 303.30 238.79 303.29 244.35 C 302.66 244.51 301.39 244.84 300.76 245.00 C 300.15 239.11 300.51 233.11 301.66 227.30 Z" fill="#e46e43" opacity="1.00" stroke="#e46e43" stroke-width="0.25"/>
<path d="M 315.64 227.16 C 316.15 227.15 317.18 227.13 317.70 227.12 C 317.52 230.80 317.86 234.58 317.00 238.20 C 316.42 238.32 315.24 238.58 314.65 238.70 C 314.39 234.82 314.77 230.94 315.64 227.16 Z" fill="#e0693e" opacity="1.00" stroke="#e0693e" stroke-width="0.25"/>
<path d="M 311.35 228.30 C 311.92 228.28 313.05 228.24 313.62 228.22 C 313.75 232.91 313.69 237.60 313.31 242.27 C 312.83 242.39 311.88 242.62 311.40 242.73 C 311.07 237.92 311.23 233.11 311.35 228.30 Z" fill="#e06539" opacity="1.00" stroke="#e06539" stroke-width="0.25"/>
<path d="M 296.01 229.02 C 297.69 229.00 298.70 230.28 298.35 231.92 C 298.35 236.84 297.49 241.72 297.40 246.65 C 296.94 246.94 296.01 247.53 295.54 247.82 L 295.51 246.99 C 295.48 241.01 294.77 234.91 296.01 229.02 Z" fill="#e76434" opacity="1.00" stroke="#e76434" stroke-width="0.25"/>
<path d="M 240.45 249.06 C 241.68 246.14 245.21 245.38 248.04 245.01 C 253.35 244.64 258.70 244.90 263.97 245.60 L 263.32 246.73 C 255.67 245.73 247.59 245.78 240.45 249.06 Z" fill="#e3cbc3" opacity="1.00" stroke="#e3cbc3" stroke-width="0.25"/>
<path d="M 391.26 250.39 C 390.30 248.70 388.16 245.76 391.05 244.73 C 393.05 245.18 395.69 246.00 395.72 248.50 C 394.21 247.75 392.62 247.15 391.05 246.58 C 394.08 250.05 398.06 252.45 401.54 255.42 C 407.86 260.43 413.21 266.49 419.14 271.92 C 420.47 272.91 420.75 274.54 420.95 276.09 C 419.58 275.50 418.21 274.88 417.06 273.92 C 412.20 269.88 407.20 266.02 402.56 261.73 L 401.84 263.02 C 401.66 263.35 401.28 264.00 401.09 264.33 C 396.42 262.21 394.17 257.49 390.86 253.88 C 390.99 252.71 391.13 251.55 391.26 250.39 Z" fill="#e8fdff" opacity="1.00" stroke="#e8fdff" stroke-width="0.25"/>
<path d="M 240.45 249.06 C 247.59 245.78 255.67 245.73 263.32 246.73 C 272.85 248.81 281.60 254.94 286.29 263.57 C 288.45 267.65 289.25 272.48 288.39 277.03 C 287.40 282.80 282.63 287.71 276.93 288.96 C 268.17 291.21 259.01 290.75 250.06 290.34 C 243.56 289.50 236.30 289.41 231.06 284.92 C 227.82 282.31 226.44 278.07 226.37 274.02 C 225.72 263.90 231.50 253.78 240.45 249.06 Z" fill="#033356" opacity="1.00" stroke="#033356" stroke-width="0.25"/>
<path d="M 391.05 246.58 C 392.62 247.15 394.21 247.75 395.72 248.50 C 406.31 256.45 417.47 263.79 427.03 273.00 C 428.59 275.44 427.52 278.60 427.23 281.29 C 425.01 281.35 422.41 282.30 420.58 280.60 C 413.85 275.29 408.06 268.90 401.84 263.02 L 402.56 261.73 C 407.20 266.02 412.20 269.88 417.06 273.92 C 418.21 274.88 419.58 275.50 420.95 276.09 C 420.75 274.54 420.47 272.91 419.14 271.92 C 413.21 266.49 407.86 260.43 401.54 255.42 C 398.06 252.45 394.08 250.05 391.05 246.58 Z" fill="#48ccef" opacity="1.00" stroke="#48ccef" stroke-width="0.25"/>
<path d="M 246.42 249.39 C 255.99 246.96 266.89 248.07 274.97 254.07 C 277.26 255.82 280.09 257.38 280.93 260.36 C 269.89 261.11 258.78 260.94 247.74 260.25 C 247.51 259.97 247.05 259.41 246.82 259.13 C 246.70 255.88 246.82 252.62 246.42 249.39 Z" fill="#feffff" opacity="1.00" stroke="#feffff" stroke-width="0.25"/>
<path d="M 108.60 284.79 C 113.99 278.28 119.56 271.89 125.35 265.75 C 125.35 266.57 125.33 268.20 125.33 269.02 C 126.18 268.56 127.88 267.62 128.73 267.16 C 125.99 272.12 121.99 276.17 118.46 280.55 C 112.96 287.09 108.25 294.39 101.89 300.15 C 99.35 301.79 99.12 298.09 99.40 296.46 C 103.28 293.25 105.31 288.52 108.60 284.79 Z" fill="#54d5f5" opacity="1.00" stroke="#54d5f5" stroke-width="0.25"/>
<path d="M 244.47 285.45 C 247.09 282.52 250.42 280.43 253.85 278.59 C 257.24 278.25 260.70 277.91 264.07 278.60 C 268.50 280.08 271.68 283.59 274.27 287.30 C 264.40 289.16 254.14 288.88 244.24 287.42 C 244.29 286.93 244.41 285.95 244.47 285.45 Z" fill="#f5622f" opacity="1.00" stroke="#f5622f" stroke-width="0.25"/>
<path d="M 171.53 281.67 C 172.45 283.28 173.88 284.45 175.63 285.09 C 176.82 287.27 178.20 289.34 179.28 291.59 C 180.62 293.74 178.44 295.76 177.59 297.64 C 173.74 304.92 169.80 312.16 166.10 319.53 C 175.63 326.45 185.59 332.84 196.21 337.96 C 200.63 323.62 205.69 309.42 208.69 294.69 C 209.91 294.24 210.83 293.30 211.75 292.42 C 213.92 293.64 215.93 295.11 217.95 296.57 C 217.59 297.15 217.25 297.75 216.92 298.36 C 211.20 309.89 207.94 322.44 205.23 334.98 C 214.76 329.90 226.28 327.40 236.77 330.85 C 236.65 330.06 236.41 328.48 236.29 327.69 C 236.74 329.64 237.18 331.60 237.57 333.57 C 239.02 334.61 240.47 335.65 241.97 336.62 C 241.41 336.46 240.30 336.15 239.74 336.00 C 241.73 346.90 244.42 357.67 246.12 368.63 C 249.54 358.29 252.91 347.93 256.40 337.61 C 255.76 337.72 254.47 337.95 253.83 338.06 C 254.84 337.23 255.83 336.37 256.77 335.46 C 256.94 335.03 257.26 334.19 257.43 333.76 C 257.99 333.72 259.12 333.63 259.68 333.59 C 270.03 333.93 279.52 339.41 286.14 347.18 C 288.97 333.88 289.30 320.24 288.41 306.72 C 288.61 306.07 289.00 304.78 289.20 304.13 C 293.74 302.57 297.87 300.11 302.15 297.99 C 302.75 298.68 303.36 299.38 303.98 300.08 C 303.92 303.64 303.44 307.54 305.84 310.53 C 307.94 324.57 311.61 338.32 314.00 352.31 C 317.93 351.40 321.77 350.13 325.61 348.89 L 326.49 350.92 C 320.87 352.74 315.22 354.49 309.46 355.85 C 312.42 370.28 315.45 384.69 319.07 398.97 C 320.74 406.02 322.85 413.00 325.83 419.63 C 318.41 420.89 310.72 418.73 303.47 421.03 C 264.97 420.15 226.40 419.15 187.88 418.08 C 180.92 417.61 173.95 417.53 166.98 417.51 C 161.74 424.33 156.28 431.79 147.96 435.00 C 139.03 439.02 128.71 438.45 119.48 435.82 C 108.61 432.81 98.67 425.82 93.06 415.92 C 86.03 415.42 78.98 415.53 71.94 415.15 C 71.94 414.66 71.92 413.70 71.92 413.22 C 78.55 413.20 85.19 413.49 91.82 413.46 C 85.60 402.11 86.35 388.35 90.26 376.38 C 94.58 363.44 101.84 351.76 109.32 340.44 C 122.88 321.04 138.31 302.32 158.24 289.15 C 162.42 286.23 167.17 284.29 171.53 281.67 Z" fill="#043457" opacity="1.00" stroke="#043457" stroke-width="0.25"/>
<path d="M 128.15 319.17 C 139.46 306.20 152.21 294.04 167.64 286.13 C 169.38 291.32 171.83 296.34 172.84 301.74 C 170.44 307.31 166.99 312.41 164.55 317.98 C 163.00 317.19 161.78 315.61 160.00 315.42 C 158.37 316.28 157.80 318.26 156.64 319.60 C 144.51 336.29 132.44 353.23 117.51 367.58 C 115.90 369.22 113.81 370.53 112.92 372.74 C 113.53 372.67 114.75 372.52 115.36 372.45 C 129.20 360.12 140.32 345.20 151.47 330.50 C 154.43 326.22 157.75 322.19 160.27 317.62 C 173.39 327.93 187.72 336.59 202.70 343.92 C 195.01 363.09 185.86 381.66 175.63 399.61 C 170.15 408.61 164.81 417.83 157.61 425.60 C 151.21 432.69 141.40 436.33 131.93 435.74 C 118.52 435.04 104.81 429.20 96.89 418.02 C 92.67 411.44 89.61 403.84 89.38 395.96 C 89.08 380.73 95.78 366.42 103.50 353.66 C 110.52 341.34 119.37 330.25 128.15 319.17 Z" fill="#73e2fe" opacity="1.00" stroke="#73e2fe" stroke-width="0.25"/>
<path d="M 379.52 287.52 C 381.69 287.28 383.06 289.22 384.46 290.53 C 389.57 296.13 394.67 301.78 399.05 307.98 C 401.42 311.35 404.31 314.40 406.06 318.18 C 405.00 317.78 403.93 317.41 402.87 317.05 C 398.58 309.32 392.89 302.50 387.00 295.95 C 384.48 293.16 381.51 290.75 379.52 287.52 Z" fill="#73c3d3" opacity="1.00" stroke="#73c3d3" stroke-width="0.25"/>
<path d="M 376.03 290.00 C 378.94 291.19 380.58 294.04 382.34 296.48 C 385.26 301.07 388.47 305.47 391.85 309.73 C 391.73 310.42 391.48 311.78 391.36 312.46 C 387.99 309.09 385.73 304.84 382.81 301.12 C 380.09 297.74 377.51 294.12 376.03 290.00 Z" fill="#5cbfd9" opacity="1.00" stroke="#5cbfd9" stroke-width="0.25"/>
<path d="M 341.22 298.13 C 342.17 296.45 343.10 294.75 343.90 292.99 C 343.78 293.70 343.53 295.12 343.41 295.83 C 355.25 301.95 365.17 311.18 373.77 321.25 C 385.26 334.96 395.60 349.60 405.39 364.56 C 411.19 373.73 416.68 383.13 421.09 393.06 C 424.94 402.11 424.89 412.34 422.00 421.65 C 428.17 422.40 434.40 422.01 440.57 422.58 C 440.83 422.97 441.36 423.77 441.63 424.16 C 434.72 425.01 427.75 423.85 420.81 424.28 C 416.85 435.61 406.60 443.20 396.03 447.93 C 383.57 453.44 369.19 454.70 356.00 451.23 C 344.69 447.54 334.62 439.77 328.71 429.36 C 326.96 426.99 326.28 423.85 324.20 421.79 C 317.30 421.35 310.37 421.54 303.47 421.03 C 310.72 418.73 318.41 420.89 325.83 419.63 C 329.56 426.98 333.52 434.57 339.99 439.90 C 345.36 444.22 351.40 447.93 358.15 449.60 C 376.11 453.59 395.91 448.98 409.78 436.75 C 418.57 428.89 422.72 416.56 421.70 404.95 C 421.35 398.84 418.81 393.16 416.28 387.69 C 408.59 372.61 399.12 358.53 389.30 344.77 C 378.23 329.58 366.73 314.30 351.52 302.99 C 346.19 305.28 343.39 310.74 339.96 315.09 C 338.51 316.45 339.53 318.32 340.13 319.82 C 342.95 326.31 345.13 333.05 347.83 339.59 C 349.12 338.91 350.43 338.23 351.73 337.56 C 364.30 360.23 378.68 383.00 400.43 397.94 C 400.51 398.46 400.66 399.51 400.74 400.03 C 400.23 399.86 399.22 399.52 398.71 399.35 C 385.23 389.62 373.81 377.15 364.77 363.20 C 359.89 355.75 354.98 348.28 351.09 340.25 C 343.18 344.44 334.91 347.91 326.49 350.92 L 325.61 348.89 C 332.48 346.60 339.19 343.81 345.74 340.73 C 342.62 330.38 337.46 320.73 334.78 310.23 C 336.83 305.42 338.84 300.58 340.80 295.73 C 340.91 296.33 341.12 297.53 341.22 298.13 Z" fill="#053259" opacity="1.00" stroke="#053259" stroke-width="0.25"/>
<path d="M 217.95 296.57 C 224.72 301.60 232.77 304.58 240.88 306.64 C 256.77 310.27 273.88 310.05 289.20 304.13 C 289.00 304.78 288.61 306.07 288.41 306.72 C 281.97 308.72 275.39 310.59 268.61 310.81 C 265.14 318.19 262.56 325.96 259.68 333.59 C 259.12 333.63 257.99 333.72 257.43 333.76 C 259.81 326.11 263.10 318.78 265.93 311.29 C 255.38 311.67 244.79 310.26 234.68 307.20 C 236.35 315.91 237.89 324.64 239.45 333.37 C 244.91 335.80 250.89 336.82 256.77 335.46 C 255.83 336.37 254.84 337.23 253.83 338.06 C 249.83 338.78 245.75 337.96 241.97 336.62 C 240.47 335.65 239.02 334.61 237.57 333.57 C 237.18 331.60 236.74 329.64 236.29 327.69 C 234.90 320.64 233.66 313.56 232.48 306.47 C 226.91 304.56 221.73 301.74 216.92 298.36 C 217.25 297.75 217.59 297.15 217.95 296.57 Z" fill="#1a2b3a" opacity="1.00" stroke="#1a2b3a" stroke-width="0.25"/>
<path d="M 216.92 298.36 C 221.73 301.74 226.91 304.56 232.48 306.47 C 233.66 313.56 234.90 320.64 236.29 327.69 C 236.41 328.48 236.65 330.06 236.77 330.85 C 226.28 327.40 214.76 329.90 205.23 334.98 C 207.94 322.44 211.20 309.89 216.92 298.36 Z" fill="#feffff" opacity="1.00" stroke="#feffff" stroke-width="0.25"/>
<path d="M 339.96 315.09 C 343.39 310.74 346.19 305.28 351.52 302.99 C 366.73 314.30 378.23 329.58 389.30 344.77 C 399.12 358.53 408.59 372.61 416.28 387.69 C 418.81 393.16 421.35 398.84 421.70 404.95 C 422.72 416.56 418.57 428.89 409.78 436.75 C 395.91 448.98 376.11 453.59 358.15 449.60 C 351.40 447.93 345.36 444.22 339.99 439.90 C 333.52 434.57 329.56 426.98 325.83 419.63 C 322.85 413.00 320.74 406.02 319.07 398.97 C 315.45 384.69 312.42 370.28 309.46 355.85 C 315.22 354.49 320.87 352.74 326.49 350.92 C 334.91 347.91 343.18 344.44 351.09 340.25 C 354.98 348.28 359.89 355.75 364.77 363.20 C 373.81 377.15 385.23 389.62 398.71 399.35 C 399.22 399.52 400.23 399.86 400.74 400.03 C 400.66 399.51 400.51 398.46 400.43 397.94 C 378.68 383.00 364.30 360.23 351.73 337.56 C 350.43 338.23 349.12 338.91 347.83 339.59 C 345.13 333.05 342.95 326.31 340.13 319.82 C 339.53 318.32 338.51 316.45 339.96 315.09 Z" fill="#73e2fe" opacity="1.00" stroke="#73e2fe" stroke-width="0.25"/>
<path d="M 268.61 310.81 C 275.39 310.59 281.97 308.72 288.41 306.72 C 289.30 320.24 288.97 333.88 286.14 347.18 C 279.52 339.41 270.03 333.93 259.68 333.59 C 262.56 325.96 265.14 318.19 268.61 310.81 Z" fill="#ffffff" opacity="1.00" stroke="#ffffff" stroke-width="0.25"/>
<path d="M 234.68 307.20 C 244.79 310.26 255.38 311.67 265.93 311.29 C 263.10 318.78 259.81 326.11 257.43 333.76 C 257.26 334.19 256.94 335.03 256.77 335.46 C 250.89 336.82 244.91 335.80 239.45 333.37 C 237.89 324.64 236.35 315.91 234.68 307.20 Z" fill="#fecdb4" opacity="1.00" stroke="#fecdb4" stroke-width="0.25"/>
<path d="M 391.36 312.46 C 391.48 311.78 391.73 310.42 391.85 309.73 C 394.64 312.75 397.42 315.77 400.37 318.63 C 400.89 318.70 401.94 318.82 402.46 318.89 C 402.57 318.43 402.77 317.51 402.87 317.05 C 403.93 317.41 405.00 317.78 406.06 318.18 C 408.28 320.47 410.44 324.37 408.10 327.40 C 405.25 327.69 401.86 327.56 400.08 324.93 C 397.15 320.84 393.42 316.98 391.36 312.46 Z" fill="#4ad0f7" opacity="1.00" stroke="#4ad0f7" stroke-width="0.25"/>
<path d="M 227.42 416.74 C 228.46 388.28 229.35 359.83 230.59 331.38 C 232.88 331.93 235.15 332.62 237.33 333.53 C 239.38 346.44 242.65 359.15 244.64 372.06 C 244.82 379.07 243.59 386.02 243.39 393.02 C 242.57 401.15 242.45 409.33 241.56 417.45 C 236.85 417.01 232.11 417.36 227.42 416.74 Z" fill="#72e1fd" opacity="1.00" stroke="#72e1fd" stroke-width="0.25"/>
<path d="M 246.97 372.86 C 251.11 360.47 255.07 347.97 259.24 335.57 C 262.16 336.03 265.09 336.47 267.91 337.40 C 264.56 364.24 258.94 390.76 255.64 417.61 C 251.77 417.58 247.90 417.52 244.03 417.48 C 244.58 402.58 246.09 387.74 246.97 372.86 Z" fill="#72e1fd" opacity="1.00" stroke="#72e1fd" stroke-width="0.25"/>
<path d="M 239.74 336.00 C 240.30 336.15 241.41 336.46 241.97 336.62 C 245.75 337.96 249.83 338.78 253.83 338.06 C 254.47 337.95 255.76 337.72 256.40 337.61 C 252.91 347.93 249.54 358.29 246.12 368.63 C 244.42 357.67 241.73 346.90 239.74 336.00 Z" fill="#fcffff" opacity="1.00" stroke="#fcffff" stroke-width="0.25"/>
</svg>