<svg xmlns="http://www.w3.org/2000/svg" height="512pt" version="1.1" viewBox="0 0 512 512" width="512pt"><defs>
                <linearGradient id="grad-16" gradientTransform="rotate(180 0.5 0.5)">
                
                        <stop stop-color="#50d5fa" offset="0"></stop>
                    ,
                        <stop stop-color="#50d5fa" offset="0.5"></stop>
                    
                </linearGradient>
          </defs>
<path d="M 0.00 0.00 L 512.00 0.00 L 512.00 512.00 L 0.00 512.00 L 0.00 0.00 Z" fill="transparent" opacity="1.00" stroke="transparent" stroke-width="0.25" data-index="0" style="opacity: 1;"></path>
<path d="M 245.95 90.75 C 248.98 89.86 252.11 89.31 255.28 89.28 C 257.28 91.48 259.64 93.77 259.57 96.99 C 259.45 99.01 260.82 100.46 262.38 101.50 C 262.73 102.44 263.06 103.38 263.40 104.33 C 264.46 104.74 265.52 105.15 266.58 105.56 C 266.57 106.41 266.56 108.09 266.55 108.94 C 269.06 108.12 270.27 104.37 273.26 105.71 C 274.23 108.37 272.43 111.15 271.97 113.81 C 272.76 113.51 274.34 112.93 275.14 112.64 C 273.86 116.76 270.48 119.81 269.34 123.99 C 268.31 127.43 267.12 130.84 265.16 133.87 C 267.05 131.89 267.86 128.23 271.03 128.03 C 269.67 132.59 266.82 136.44 264.83 140.71 L 264.83 140.34 C 264.83 140.03 264.83 139.41 264.83 139.10 C 262.09 142.29 258.14 144.41 256.21 148.27 C 253.86 152.64 251.86 157.18 249.48 161.54 C 247.49 164.89 248.14 169.03 246.46 172.49 C 244.61 176.33 242.26 180.09 241.74 184.41 C 241.44 187.05 241.39 189.72 241.12 192.37 C 241.92 190.48 242.79 188.63 243.83 186.87 C 241.86 191.15 240.28 195.63 238.15 199.83 C 236.49 202.16 235.06 204.64 233.77 207.20 C 232.01 207.01 231.55 208.73 230.88 209.89 C 228.07 215.93 225.58 222.10 223.10 228.28 C 221.63 231.84 221.59 235.73 221.40 239.52 C 219.21 245.42 216.53 251.15 214.26 257.04 C 210.07 266.51 206.80 276.34 202.63 285.82 C 201.19 288.97 201.09 292.53 199.72 295.71 C 191.36 317.09 184.58 339.07 176.26 360.46 C 173.21 366.03 171.37 372.12 169.27 378.08 C 167.48 379.80 166.07 381.88 165.26 384.24 C 160.37 397.12 155.31 409.97 151.01 423.06 C 146.08 426.76 139.89 425.42 134.61 423.33 C 134.40 422.87 133.97 421.95 133.76 421.48 C 132.48 422.70 131.25 424.01 129.71 424.92 C 127.57 426.25 125.28 424.55 123.19 423.95 C 123.35 421.27 123.58 418.60 123.77 415.93 C 121.69 417.26 119.93 419.07 117.68 420.14 C 117.66 419.49 117.62 418.18 117.60 417.53 C 115.63 416.92 113.69 416.25 111.76 415.55 C 111.14 413.61 110.63 411.63 110.39 409.62 C 109.12 409.08 107.84 408.55 106.56 408.05 C 106.46 405.76 106.51 403.48 106.65 401.21 C 105.29 401.45 103.93 401.69 102.58 401.94 C 101.62 395.64 104.81 389.73 105.95 383.65 C 119.67 346.32 134.33 309.34 149.32 272.50 C 151.91 266.01 154.47 259.51 157.39 253.17 C 160.85 245.59 163.36 237.61 167.02 230.12 C 171.54 220.28 175.27 210.11 178.54 199.80 C 182.97 191.39 185.49 182.15 190.06 173.81 C 191.22 171.65 192.02 169.33 193.11 167.14 C 194.09 166.22 195.11 165.35 196.13 164.48 C 195.36 167.46 194.54 170.44 193.96 173.47 C 196.94 171.56 198.11 168.12 199.25 164.96 C 200.85 160.63 199.87 155.85 201.45 151.50 C 202.37 149.68 203.70 148.14 204.94 146.55 C 196.64 146.32 188.35 146.81 180.05 146.64 C 161.42 148.55 142.60 146.52 123.98 148.45 C 111.63 149.07 99.19 148.06 86.89 149.48 C 87.06 148.81 87.40 147.47 87.57 146.80 C 81.70 146.69 75.75 147.00 69.95 145.90 C 68.15 145.64 67.15 143.98 65.99 142.78 C 65.42 142.68 64.27 142.47 63.70 142.37 C 62.68 141.23 61.66 140.10 60.64 138.98 C 60.50 136.80 60.38 134.62 60.27 132.44 C 62.59 132.25 64.90 132.00 67.21 131.68 C 67.42 130.74 67.89 129.95 68.63 129.33 C 67.85 129.42 66.27 129.61 65.48 129.70 C 65.50 128.07 65.58 126.44 65.72 124.81 C 64.39 124.68 63.05 124.55 61.72 124.42 C 61.92 119.00 58.57 113.09 61.49 108.02 C 61.52 106.18 61.51 104.34 61.48 102.50 C 62.88 102.50 64.29 102.49 65.70 102.49 C 66.15 100.33 65.16 98.73 63.34 97.63 C 65.32 97.64 67.30 97.62 69.28 97.50 C 68.33 96.47 67.25 95.57 66.13 94.74 C 69.15 91.98 73.41 94.57 77.00 94.05 C 82.32 93.44 87.67 93.46 93.02 93.29 C 102.28 92.28 111.61 92.94 120.90 92.73 C 147.91 93.85 174.99 93.75 202.03 93.32 C 212.64 92.00 223.38 92.97 234.02 91.82 C 237.99 91.47 242.07 91.92 245.95 90.75 Z" fill="#50d5fa" opacity="1.00" stroke="#50d5fa" stroke-width="0.25" data-index="1" style="opacity: 1;"></path>
<path d="M 320.26 99.23 C 330.78 94.19 342.49 92.64 353.98 91.53 C 371.13 91.70 387.88 97.30 402.78 105.55 C 408.39 109.61 414.92 112.84 418.98 118.66 C 424.84 128.80 431.77 138.32 437.11 148.76 C 440.56 156.28 443.17 164.15 445.44 172.10 C 450.52 196.73 454.17 221.83 453.62 247.04 C 453.52 256.36 453.55 265.69 453.22 275.00 C 452.51 280.67 452.52 286.39 452.32 292.09 C 451.35 306.48 449.24 320.77 446.53 334.92 C 444.58 346.05 440.53 356.68 436.19 367.06 C 437.04 361.50 439.96 356.56 441.37 351.15 C 446.60 330.86 450.27 309.90 449.51 288.88 C 448.71 297.95 449.00 307.14 447.00 316.06 C 444.56 333.30 440.58 350.46 433.66 366.50 C 427.24 381.55 417.83 395.47 405.33 406.12 C 395.22 414.17 382.58 418.08 370.00 420.12 C 348.92 422.22 326.32 419.64 308.50 407.32 C 300.94 401.75 293.70 395.51 288.01 387.99 C 276.44 373.43 270.27 355.40 266.28 337.45 C 263.05 322.83 261.89 307.88 260.62 293.01 C 260.05 278.68 260.59 264.34 260.42 250.00 C 260.10 236.66 260.13 223.28 261.50 210.00 C 263.82 181.05 270.26 151.36 287.14 127.17 C 290.47 122.24 294.69 118.01 298.65 113.59 C 305.06 107.74 312.47 103.02 320.26 99.23 Z" fill="#81e0fc" opacity="1.00" stroke="#81e0fc" stroke-width="0.25" data-index="2" style="opacity: 1; visibility: visible; fill: rgb(80, 213, 250); display: block;"></path>
<path d="M 426.11 134.09 C 439.19 149.19 443.94 169.42 447.40 188.62 C 450.36 206.64 452.74 224.90 451.45 243.20 C 450.47 215.12 446.65 186.94 437.91 160.16 C 434.79 151.12 430.85 142.39 426.11 134.09 Z" fill="#ffffff" opacity="1.00" stroke="#ffffff" stroke-width="0.25" data-index="3" style="opacity: 1; visibility: visible; fill: rgb(80, 213, 250);"></path>
<path d="M 160.98 137.51 C 165.99 137.13 171.07 136.74 176.07 137.49 C 171.05 137.84 165.99 138.05 160.98 137.51 Z" fill="#81e0fc" opacity="1.00" stroke="#81e0fc" stroke-width="0.25" data-index="4"></path>
<path d="M 256.21 148.27 C 258.14 144.41 262.09 142.29 264.83 139.10 C 264.83 139.41 264.83 140.03 264.83 140.34 C 264.16 143.99 261.94 147.04 259.88 150.04 C 259.12 155.89 255.70 160.87 253.98 166.44 C 250.61 173.25 247.52 180.21 243.83 186.87 C 242.79 188.63 241.92 190.48 241.12 192.37 C 241.39 189.72 241.44 187.05 241.74 184.41 C 242.26 180.09 244.61 176.33 246.46 172.49 C 248.14 169.03 247.49 164.89 249.48 161.54 C 251.86 157.18 253.86 152.64 256.21 148.27 Z" fill="#81e0fc" opacity="1.00" stroke="#81e0fc" stroke-width="0.25" data-index="5"></path>
<path d="M 350.21 146.85 C 358.20 145.14 367.21 146.94 373.05 152.92 C 380.82 161.10 384.29 172.21 386.89 182.93 C 390.64 200.02 391.85 217.54 392.36 234.98 C 392.46 265.83 393.47 296.97 387.79 327.44 C 385.09 340.98 380.83 355.59 369.46 364.45 C 362.59 369.09 353.04 369.79 345.76 365.65 C 338.48 361.61 333.61 354.31 330.39 346.82 C 323.35 329.09 321.77 309.87 320.47 291.03 C 319.17 258.88 318.83 226.54 322.88 194.57 C 324.60 184.98 326.78 175.40 330.52 166.38 C 334.56 157.95 340.57 149.19 350.21 146.85 Z" fill="#ffffff" opacity="1.00" stroke="#ffffff" stroke-width="0.25" data-index="6"></path>
<path d="M 193.11 167.14 C 194.91 161.48 198.06 156.33 201.45 151.50 C 199.87 155.85 200.85 160.63 199.25 164.96 C 198.11 168.12 196.94 171.56 193.96 173.47 C 194.54 170.44 195.36 167.46 196.13 164.48 C 195.11 165.35 194.09 166.22 193.11 167.14 Z" fill="#81e0fc" opacity="1.00" stroke="#81e0fc" stroke-width="0.25" data-index="7"></path>
<path d="M 201.57 164.86 C 201.93 168.14 200.10 170.99 198.93 173.91 C 196.23 180.50 194.01 187.30 191.11 193.82 C 188.11 200.69 187.21 208.24 184.31 215.15 C 181.80 222.38 178.07 229.08 175.23 236.18 C 174.57 237.88 173.52 239.41 171.89 240.30 C 172.75 235.61 175.56 231.62 176.92 227.10 C 178.20 222.85 180.79 218.93 180.56 214.34 C 181.72 210.30 184.47 206.88 185.82 202.87 C 187.87 198.75 187.42 193.90 189.62 189.84 C 193.74 181.58 197.08 172.93 201.57 164.86 Z" fill="#81e0fc" opacity="1.00" stroke="#81e0fc" stroke-width="0.25" data-index="8"></path>
<path d="M 203.50 175.33 C 204.16 173.62 205.24 172.13 206.53 170.84 C 205.15 177.58 201.72 183.63 199.05 189.92 C 193.54 202.69 188.32 215.61 182.13 228.07 C 182.82 223.62 184.78 219.54 186.39 215.38 C 191.63 201.84 197.83 188.69 203.50 175.33 Z" fill="#81e0fc" opacity="1.00" stroke="#81e0fc" stroke-width="0.25" data-index="9"></path>
<path d="M 233.77 207.20 C 235.06 204.64 236.49 202.16 238.15 199.83 C 237.05 204.73 234.36 209.05 232.56 213.70 C 228.56 222.18 225.79 231.23 221.40 239.52 C 221.59 235.73 221.63 231.84 223.10 228.28 C 225.58 222.10 228.07 215.93 230.88 209.89 C 231.55 208.73 232.01 207.01 233.77 207.20 Z" fill="#81e0fc" opacity="1.00" stroke="#81e0fc" stroke-width="0.25" data-index="10"></path>
<path d="M 169.04 233.01 C 170.54 229.86 171.23 226.19 173.96 223.79 C 172.75 228.03 170.45 231.85 169.21 236.08 C 167.85 239.67 167.34 243.74 164.69 246.69 C 164.96 241.83 167.04 237.36 169.04 233.01 Z" fill="#81e0fc" opacity="1.00" stroke="#81e0fc" stroke-width="0.25" data-index="11"></path>
<path d="M 199.08 287.87 C 201.45 283.00 202.76 277.65 205.54 272.99 C 202.77 279.37 201.20 286.18 198.40 292.55 C 193.86 302.49 191.65 313.30 187.06 323.23 C 184.98 327.43 183.60 331.94 181.32 336.05 C 182.88 331.07 184.93 326.25 186.22 321.18 C 190.19 309.96 195.43 299.21 199.08 287.87 Z" fill="#ffffff" opacity="1.00" stroke="#ffffff" stroke-width="0.25" data-index="12" style="opacity: 1;"></path>
<path d="M 118.41 363.73 C 116.96 361.73 119.30 359.89 120.94 359.17 C 121.37 361.31 120.66 363.35 118.63 364.35 C 115.63 372.32 112.98 380.42 109.44 388.18 C 109.35 385.47 109.19 382.64 110.45 380.15 C 112.90 374.58 115.15 368.89 118.41 363.73 Z" fill="#ffffff" opacity="1.00" stroke="#ffffff" stroke-width="0.25" data-index="13"></path>
<path d="M 281.34 364.96 C 286.20 373.97 291.53 382.83 298.55 390.34 C 302.25 394.50 306.68 397.89 310.94 401.44 C 308.38 400.95 306.56 398.87 304.49 397.47 C 297.57 392.44 291.76 385.94 287.56 378.50 C 285.13 374.19 281.85 370.03 281.34 364.96 Z" fill="#ffffff" opacity="1.00" stroke="#ffffff" stroke-width="0.25" data-index="14" style="opacity: 1; visibility: visible; display: block;"></path>
<path d="M 132.48 424.22 C 134.36 424.32 132.85 427.85 131.45 427.54 C 130.84 426.44 131.32 424.75 132.48 424.22 Z" fill="#81e0fc" opacity="1.00" stroke="#81e0fc" stroke-width="0.25" data-index="15"></path>
<path d="M320.26,99.23c10.52,-5.04 22.23,-6.59 33.72,-7.7c17.15,0.17 33.9,5.77 48.8,14.02c5.61,4.06 12.14,7.29 16.2,13.11c5.86,10.14 12.79,19.66 18.13,30.1c3.45,7.52 6.06,15.39 8.33,23.34c5.08,24.63 8.73,49.73 8.18,74.94c-0.1,9.32 -0.07,18.65 -0.4,27.96c-0.71,5.67 -0.7,11.39 -0.9,17.09c-0.97,14.39 -3.08,28.68 -5.79,42.83c-1.95,11.13 -6,21.76 -10.34,32.14c0.85,-5.56 3.77,-10.5 5.18,-15.91c5.23,-20.29 8.9,-41.25 8.14,-62.27c-0.8,9.07 -0.51,18.26 -2.51,27.18c-2.44,17.24 -6.42,34.4 -13.34,50.44c-6.42,15.05 -15.83,28.97 -28.33,39.62c-10.11,8.05 -22.75,11.96 -35.33,14c-21.08,2.1 -43.68,-0.48 -61.5,-12.8c-7.56,-5.57 -14.8,-11.81 -20.49,-19.33c-11.57,-14.56 -17.74,-32.59 -21.73,-50.54c-3.23,-14.62 -4.39,-29.57 -5.66,-44.44c-0.57,-14.33 -0.03,-28.67 -0.2,-43.01c-0.32,-13.34 -0.29,-26.72 1.08,-40c2.32,-28.95 8.76,-58.64 25.64,-82.83c3.33,-4.93 7.55,-9.16 11.51,-13.58c6.41,-5.85 13.82,-10.57 21.61,-14.36z" id="path-2 1" fill="url(#grad-16)" fill-rule="nonzero" stroke="url(#grad-16)" stroke-width="0.25" stroke-linecap="butt" stroke-linejoin="miter" stroke-miterlimit="10" stroke-dasharray="" stroke-dashoffset="0" font-family="none" font-weight="none" font-size="none" text-anchor="none" style="mix-blend-mode: normal; opacity: 1; display: none;" data-index="16"></path></svg>