<?xml version="1.0" encoding="utf-8"?>
<svg xmlns="http://www.w3.org/2000/svg" height="512pt" version="1.1" viewBox="0 0 512 512" width="512pt">
<path d="M 0.00 0.00 L 512.00 0.00 L 512.00 512.00 L 0.00 512.00 L 0.00 0.00 Z" fill="transparent" opacity="1.00" stroke="transparent" stroke-width="0.25"/>
<path d="M 256.42 158.46 C 258.59 157.53 260.97 157.49 263.31 157.54 C 264.33 158.54 265.36 159.54 266.38 160.56 C 266.86 166.10 265.07 171.44 264.38 176.88 C 262.35 190.08 262.73 204.55 269.97 216.22 C 272.18 219.33 274.22 222.86 277.40 225.05 C 292.02 227.00 306.62 229.29 321.02 232.57 L 321.94 232.25 C 327.93 226.21 334.41 219.80 342.94 217.71 C 344.06 218.06 345.19 218.38 346.33 218.70 C 350.61 224.59 349.18 232.41 349.70 239.25 C 356.25 240.69 362.77 242.36 369.13 244.51 C 374.89 227.64 385.08 212.28 398.73 200.76 C 413.86 187.97 432.37 179.60 451.50 174.80 C 457.56 173.50 463.79 171.92 470.02 172.60 C 473.42 173.39 474.22 177.57 472.01 180.03 C 466.86 186.77 460.14 192.14 454.39 198.37 C 444.47 208.09 435.54 219.03 429.31 231.52 C 425.43 238.83 422.09 246.64 421.22 254.94 C 420.79 265.07 422.71 275.11 424.30 285.08 C 426.23 297.24 430.07 308.98 434.23 320.53 C 435.21 323.19 435.53 327.59 431.99 328.42 C 427.93 328.95 423.87 327.91 420.01 326.75 C 398.98 319.16 382.14 301.50 374.87 280.43 C 368.35 281.17 361.56 281.66 355.26 283.17 C 353.05 289.65 351.28 296.61 346.22 301.57 C 344.53 301.47 342.55 302.13 341.11 301.00 C 336.90 297.82 333.60 293.64 330.23 289.62 C 296.65 302.92 260.61 308.96 224.73 311.64 C 224.62 328.09 225.00 344.54 225.21 360.99 C 225.23 363.89 225.56 367.72 222.58 369.40 C 219.22 370.73 215.77 368.65 212.72 367.35 C 199.65 360.30 188.78 349.45 181.03 336.84 C 179.96 340.26 179.31 344.13 176.33 346.49 C 175.45 346.47 173.70 346.43 172.82 346.41 C 160.57 338.84 153.99 325.02 149.72 311.77 C 130.83 310.39 111.96 308.08 93.50 303.81 C 90.34 303.04 87.01 302.56 84.18 300.90 C 82.00 299.24 82.53 296.23 82.27 293.85 C 67.47 292.32 54.13 283.60 44.95 272.17 C 41.76 268.34 39.04 263.96 37.70 259.13 C 37.26 256.05 39.77 253.60 42.01 251.91 C 49.33 246.69 58.41 245.28 66.90 243.00 C 107.65 232.94 149.05 224.51 191.08 222.59 C 200.91 202.81 215.00 184.93 232.90 171.87 C 240.17 166.51 247.88 161.54 256.42 158.46 Z" fill="#083455" opacity="1.00" stroke="#083455" stroke-width="0.25"/>
<path d="M 242.76 173.77 C 248.03 170.40 253.48 167.12 259.50 165.30 C 255.58 180.10 254.46 196.25 259.51 210.93 C 261.78 217.25 265.40 223.09 270.03 227.94 C 262.45 227.77 254.90 226.89 247.32 226.76 C 247.36 227.58 247.40 228.41 247.45 229.24 C 272.15 231.56 296.83 234.64 321.07 240.04 C 322.35 240.37 323.61 240.76 324.85 241.23 C 314.14 240.17 303.76 237.10 293.06 236.00 C 285.37 235.17 277.75 233.58 270.00 233.54 C 261.03 233.48 252.01 232.69 243.09 233.92 C 250.19 236.16 257.71 235.14 265.01 236.04 C 297.06 237.73 328.52 244.54 360.17 249.41 C 364.86 250.32 369.26 252.54 374.10 252.72 C 378.76 236.01 387.77 220.36 400.74 208.72 C 417.97 193.11 440.31 183.88 463.03 179.94 C 449.39 192.04 436.61 205.43 426.86 220.91 C 421.40 230.33 416.38 240.25 414.55 251.09 C 413.14 256.65 414.07 262.36 414.52 267.98 C 416.37 286.06 420.49 303.87 426.62 320.98 C 409.21 316.57 394.75 303.70 386.03 288.28 C 383.34 283.86 381.99 278.82 379.86 274.15 C 378.70 271.86 375.80 273.08 373.81 273.16 C 365.74 274.57 357.58 275.26 349.47 276.35 C 348.09 282.38 346.27 288.35 343.41 293.85 C 339.63 289.64 335.53 285.71 332.01 281.27 C 327.12 282.44 322.09 281.73 317.15 282.45 C 286.57 285.72 255.83 287.86 225.07 287.59 C 224.66 285.88 225.16 283.49 223.16 282.66 C 221.49 282.21 219.94 283.12 218.43 283.66 C 217.25 295.74 217.70 307.90 217.53 320.01 C 217.65 333.92 217.51 347.85 218.24 361.74 C 204.50 355.42 193.31 344.06 185.95 330.95 C 179.65 319.20 176.48 305.92 176.17 292.62 C 174.49 292.21 172.80 291.82 171.10 291.48 C 170.63 292.08 169.67 293.28 169.19 293.88 C 162.18 293.39 154.18 290.53 151.19 283.63 C 148.21 277.83 146.25 271.23 141.46 266.59 C 137.32 262.86 131.49 261.28 126.01 261.95 C 121.00 262.38 116.72 265.24 112.21 267.18 C 103.29 271.17 93.89 275.17 83.92 274.85 C 69.40 274.75 56.04 267.49 44.84 258.81 C 51.08 254.09 58.91 252.48 66.33 250.60 C 108.65 240.07 151.68 231.40 195.37 229.71 C 206.24 207.58 221.73 187.12 242.76 173.77 Z" fill="#6dcffe" opacity="1.00" stroke="#6dcffe" stroke-width="0.25"/>
<path d="M 415.04 205.27 C 418.60 202.88 422.19 199.84 426.78 200.13 C 423.69 204.34 419.19 207.06 415.18 210.26 C 405.82 217.42 398.03 226.30 390.99 235.68 C 391.55 230.37 394.77 225.94 397.66 221.64 C 402.17 214.98 408.46 209.78 415.04 205.27 Z" fill="#ffffff" opacity="1.00" stroke="#ffffff" stroke-width="0.25"/>
<path d="M 329.28 234.36 C 333.79 231.75 337.04 227.24 342.20 225.76 C 342.44 229.71 342.57 233.67 342.61 237.63 C 338.15 236.59 333.68 235.62 329.28 234.36 Z" fill="#6dcffe" opacity="1.00" stroke="#6dcffe" stroke-width="0.25"/>
<path d="M 243.09 233.92 C 252.01 232.69 261.03 233.48 270.00 233.54 C 277.75 233.58 285.37 235.17 293.06 236.00 C 303.76 237.10 314.14 240.17 324.85 241.23 C 336.73 243.40 348.49 246.31 360.17 249.41 C 328.52 244.54 297.06 237.73 265.01 236.04 C 257.71 235.14 250.19 236.16 243.09 233.92 Z" fill="#ffffff" opacity="1.00" stroke="#ffffff" stroke-width="0.25"/>
<path d="M 94.39 247.55 C 97.12 246.80 100.38 247.39 102.28 249.61 C 104.30 252.00 104.55 255.57 103.27 258.38 C 100.86 262.72 93.60 263.34 90.83 259.07 C 87.59 255.35 89.75 248.89 94.39 247.55 Z" fill="#083455" opacity="1.00" stroke="#083455" stroke-width="0.25"/>
<path d="M 161.37 249.20 C 164.96 250.12 165.93 253.94 167.08 256.98 C 169.72 264.44 169.88 272.74 167.15 280.20 C 166.72 281.24 165.99 282.03 164.98 282.58 C 162.18 281.81 163.46 278.72 163.77 276.73 C 165.51 269.77 164.74 262.35 162.18 255.70 C 161.27 253.64 161.17 251.40 161.37 249.20 Z" fill="#083455" opacity="1.00" stroke="#083455" stroke-width="0.25"/>
<path d="M 153.10 250.21 C 154.27 250.50 156.19 249.67 156.80 251.14 C 161.59 260.03 162.45 270.94 158.40 280.29 C 157.72 280.64 156.34 281.36 155.65 281.71 C 153.69 277.90 156.69 273.99 156.57 270.04 C 157.30 263.19 154.84 256.70 153.10 250.21 Z" fill="#083455" opacity="1.00" stroke="#083455" stroke-width="0.25"/>
<path d="M 171.76 253.99 C 171.59 252.34 172.44 251.36 174.29 251.04 C 178.40 261.34 178.92 273.12 175.28 283.63 C 173.99 283.55 172.70 283.47 171.41 283.38 C 171.98 278.24 173.39 273.19 173.27 267.99 C 173.35 263.27 172.21 258.66 171.76 253.99 Z" fill="#083455" opacity="1.00" stroke="#083455" stroke-width="0.25"/>
<path d="M 48.16 264.85 C 57.69 271.96 69.08 276.93 80.96 278.19 C 94.66 279.09 107.61 273.35 119.57 267.33 C 125.27 264.36 132.80 263.84 138.00 268.12 C 143.42 271.85 144.85 278.59 147.84 284.06 C 150.54 289.85 155.77 294.24 161.81 296.23 C 163.52 296.47 165.22 296.75 166.91 297.11 C 167.53 297.17 168.79 297.29 169.41 297.35 C 169.44 300.03 169.59 302.70 169.76 305.38 C 166.52 305.25 163.26 305.38 160.06 304.87 C 144.33 304.11 128.66 302.43 113.11 299.97 C 111.10 299.64 109.08 299.35 107.10 298.89 C 102.65 298.37 98.31 297.22 93.92 296.38 C 108.52 291.96 123.25 284.61 132.63 272.18 C 132.27 271.43 131.55 269.94 131.19 269.19 C 127.33 268.89 124.65 271.96 121.55 273.72 C 119.10 275.17 116.94 277.03 114.91 279.01 C 114.55 278.59 113.85 277.73 113.49 277.30 C 112.06 277.33 110.63 277.39 109.20 277.50 C 107.80 279.41 105.97 280.97 103.81 281.96 C 94.21 286.66 82.64 288.21 72.51 284.29 C 62.66 280.43 54.60 273.09 48.16 264.85 Z" fill="#ffffff" opacity="1.00" stroke="#ffffff" stroke-width="0.25"/>
<path d="M 307.04 287.12 C 311.68 286.42 316.34 285.77 321.04 285.65 C 317.28 286.57 313.60 287.78 309.88 288.83 C 308.33 289.31 306.77 289.79 305.23 290.30 C 301.87 291.29 298.47 292.13 295.15 293.24 C 294.05 293.42 292.96 293.61 291.87 293.81 C 283.39 296.14 274.69 297.50 266.08 299.21 C 264.36 299.45 262.64 299.68 260.92 299.92 C 249.10 301.86 237.16 303.36 225.18 303.90 C 225.28 299.68 225.25 295.46 225.19 291.24 C 233.14 291.36 241.09 291.40 249.02 290.67 C 260.39 290.68 271.71 289.65 283.07 289.13 C 291.04 288.35 299.04 287.64 307.04 287.12 Z" fill="#ffffff" opacity="1.00" stroke="#ffffff" stroke-width="0.25"/>
<path d="M 161.64 322.45 C 160.24 319.14 158.85 315.83 157.86 312.39 C 162.44 312.68 167.05 312.65 171.61 313.26 C 171.64 313.72 171.71 314.64 171.74 315.10 C 172.61 317.67 173.39 320.27 174.33 322.82 C 176.47 326.42 175.25 330.34 173.90 333.98 C 173.35 334.89 173.84 337.18 172.20 336.79 C 169.75 334.55 167.79 331.84 165.88 329.14 C 165.14 328.12 164.39 327.10 163.66 326.09 C 163.17 324.95 162.66 323.83 162.19 322.69 L 161.64 322.45 Z" fill="#ffffff" opacity="1.00" stroke="#ffffff" stroke-width="0.25"/>
</svg>