<svg xmlns="http://www.w3.org/2000/svg" height="512pt" version="1.1" viewBox="0 0 512 512" width="512pt">
<path d="M 0.00 0.00 L 512.00 0.00 L 512.00 512.00 L 0.00 512.00 L 0.00 0.00 Z" fill="transparent" opacity="1.00" stroke="transparent" stroke-width="0.25" data-index="0" style="opacity: 1;"></path>
<path d="M 209.32 173.54 C 222.69 155.33 251.58 152.19 269.25 165.80 C 269.94 166.24 270.64 166.67 271.35 167.10 C 279.41 160.28 290.68 156.98 301.06 159.45 C 306.19 160.53 310.79 163.28 314.83 166.54 C 324.01 162.09 335.68 161.80 344.29 167.71 C 348.89 170.73 351.88 175.72 352.67 181.15 C 355.62 181.32 358.52 181.99 361.15 183.39 C 363.93 181.93 366.74 180.32 369.90 179.88 C 375.49 179.15 381.31 182.77 382.92 188.22 C 384.66 188.54 386.54 188.77 387.94 189.99 C 390.27 191.60 390.06 194.72 390.43 197.22 C 394.52 198.31 398.69 201.33 398.84 205.92 C 399.60 210.32 396.02 214.74 391.55 214.84 C 390.81 217.91 389.38 221.28 386.13 222.37 C 382.17 223.08 379.27 219.69 377.99 216.38 C 377.56 216.43 376.68 216.52 376.25 216.57 C 377.80 221.63 377.72 227.05 375.66 231.96 C 384.05 236.10 387.13 247.04 383.33 255.32 C 382.01 259.05 378.59 261.29 375.54 263.51 C 375.42 267.32 377.02 271.23 375.80 275.06 C 375.07 280.27 371.32 284.27 366.83 286.67 C 366.15 305.79 364.40 324.85 363.25 343.93 C 362.66 349.10 363.16 354.30 363.39 359.48 L 363.99 360.30 C 364.18 361.99 364.34 363.67 364.51 365.37 C 358.99 366.42 353.40 366.93 347.83 367.56 C 347.47 367.06 346.74 366.05 346.38 365.54 C 341.12 366.30 335.80 366.53 330.48 366.53 C 330.33 360.63 330.38 354.73 330.35 348.84 C 330.38 331.66 330.19 314.48 330.25 297.30 C 325.12 302.80 316.59 304.25 309.96 300.65 C 302.48 308.14 289.70 308.27 281.82 301.32 C 277.02 304.12 271.63 306.34 265.95 305.88 C 261.14 305.82 256.73 303.56 253.09 300.57 C 249.32 302.41 245.09 303.88 240.85 303.01 C 237.45 302.53 234.81 300.21 232.28 298.09 C 232.67 314.83 232.57 331.57 232.69 348.31 C 232.71 353.49 232.72 358.67 232.67 363.86 C 225.60 364.04 218.53 363.85 211.47 363.78 C 211.14 365.30 210.81 366.83 210.48 368.35 C 203.07 368.42 195.69 367.74 188.30 367.28 C 188.39 361.87 189.33 356.52 190.02 351.17 C 192.14 332.91 194.64 314.69 196.77 296.44 C 192.59 297.16 187.97 296.21 184.98 293.05 C 181.60 289.73 180.41 284.93 180.26 280.33 C 177.09 279.28 174.57 277.04 172.94 274.15 C 164.90 277.93 155.93 280.36 147.00 278.95 C 137.36 277.88 127.43 272.62 123.72 263.20 C 121.10 252.22 124.22 241.01 127.59 230.56 C 118.95 233.97 108.27 237.52 99.76 231.95 C 98.30 229.50 97.97 226.67 98.44 223.89 C 104.75 218.01 113.30 215.63 121.32 213.07 C 118.69 208.32 121.24 203.20 124.20 199.34 C 121.87 192.32 127.97 186.02 134.27 184.16 C 138.54 179.83 143.80 175.89 150.10 175.49 C 153.01 175.19 155.62 176.69 158.19 177.82 C 162.15 172.73 169.33 170.90 175.37 172.86 C 177.67 173.99 179.30 176.06 180.72 178.14 C 183.99 178.01 187.19 178.77 189.90 180.65 C 193.37 173.84 202.29 170.89 209.32 173.54 Z" fill="#072f4b" opacity="1.00" stroke="#072f4b" stroke-width="0.25" data-index="1" style="opacity: 1;"></path>
<path d="M 212.70 176.47 C 225.81 159.13 254.48 157.21 269.88 172.47 C 270.30 172.57 271.16 172.76 271.58 172.86 C 279.64 165.21 291.68 161.05 302.51 164.83 C 306.78 166.64 311.24 168.65 314.17 172.41 C 320.86 168.32 329.16 166.57 336.73 169.13 C 340.70 170.42 343.95 173.16 346.49 176.40 C 347.67 179.19 348.31 182.17 348.68 185.17 C 355.14 185.31 362.03 188.07 365.25 193.98 C 368.24 199.58 366.68 206.41 363.97 211.80 C 363.60 212.49 362.86 213.87 362.49 214.56 C 364.12 218.50 366.53 222.60 365.52 227.02 C 364.87 230.81 361.39 233.07 359.54 236.22 C 360.22 239.57 364.60 240.92 365.28 244.42 C 366.36 249.86 366.07 256.64 361.11 260.15 C 352.11 267.19 339.82 264.94 329.70 262.01 C 326.32 264.84 326.16 269.46 324.37 273.21 C 321.81 278.85 318.53 284.97 312.32 287.19 C 307.50 288.52 301.86 288.23 297.66 285.29 C 294.94 283.46 292.58 281.18 290.11 279.04 C 285.09 283.12 279.82 287.42 273.24 288.55 C 267.75 289.95 261.67 289.14 256.82 286.19 C 252.90 283.38 250.46 279.07 247.12 275.67 C 242.82 279.75 239.17 285.48 232.83 286.40 C 227.24 287.09 220.85 287.31 216.04 283.93 C 213.14 280.72 212.77 276.10 211.62 272.11 C 205.91 270.60 199.88 274.50 194.39 271.64 C 191.97 270.42 192.08 267.31 192.18 265.01 C 192.39 261.21 196.19 259.06 197.37 255.65 C 197.77 253.80 197.82 251.91 197.98 250.04 C 201.59 250.48 205.90 252.75 209.10 250.03 C 210.95 248.70 211.49 246.37 212.37 244.40 C 213.29 242.33 214.82 240.36 214.55 237.97 C 214.45 233.89 211.70 230.66 209.12 227.79 C 208.99 224.40 207.73 221.26 205.79 218.52 C 207.12 216.22 208.04 213.57 207.27 210.90 C 206.64 206.63 202.93 203.99 200.10 201.13 C 201.76 197.27 202.42 192.59 200.14 188.83 C 198.79 185.88 195.66 184.57 192.97 183.13 C 195.31 180.45 198.25 177.92 201.94 177.52 C 205.14 177.07 208.31 177.86 211.40 178.62 C 211.73 178.08 212.38 177.01 212.70 176.47 Z" fill="#e5faff" opacity="1.00" stroke="#e5faff" stroke-width="0.25" data-index="2" style="opacity: 1;"></path>
<path d="M 165.62 177.68 C 168.63 176.46 172.41 175.91 175.15 178.06 C 176.16 179.67 176.25 181.64 176.68 183.46 C 180.41 181.40 186.76 182.01 186.76 187.32 C 186.69 191.27 188.03 197.77 182.84 198.88 C 179.28 199.53 176.68 201.99 174.73 204.90 C 171.71 203.71 169.04 201.84 166.19 200.32 C 164.17 201.63 162.76 203.85 160.51 204.74 C 156.78 205.59 153.74 202.86 151.23 200.54 C 149.39 202.98 147.85 206.27 144.49 206.80 C 140.85 207.64 137.16 208.83 133.39 208.57 C 129.97 208.12 128.92 204.49 127.61 201.87 C 128.19 201.05 128.77 200.23 129.34 199.40 C 127.99 197.54 127.66 194.96 129.08 193.03 C 130.83 190.13 134.38 189.59 137.22 188.31 C 140.61 184.55 144.70 180.78 150.00 180.36 C 153.73 179.66 156.41 182.78 159.11 184.77 C 160.91 182.12 162.63 179.15 165.62 177.68 Z" fill="#e5f9ff" opacity="1.00" stroke="#e5f9ff" stroke-width="0.25" data-index="3"></path>
<path d="M 365.94 186.26 C 368.45 185.17 371.21 183.79 374.00 184.77 C 377.79 185.73 378.39 190.13 379.47 193.27 C 381.56 193.22 383.65 193.28 385.74 193.44 C 385.80 195.67 385.61 197.90 385.29 200.11 C 388.66 201.34 392.80 202.26 394.43 205.87 C 395.02 208.14 393.17 209.69 391.28 210.38 C 389.76 210.09 388.24 209.85 386.72 209.65 C 386.51 212.56 386.95 215.75 384.97 218.19 C 383.04 216.11 381.62 213.66 380.28 211.19 C 378.08 210.92 376.10 211.87 374.14 212.71 C 372.72 211.98 371.58 210.82 370.29 209.89 C 371.08 205.27 372.17 200.49 370.94 195.83 C 370.29 192.18 367.68 189.40 365.94 186.26 Z" fill="#b0ecff" opacity="1.00" stroke="#b0ecff" stroke-width="0.25" data-index="4"></path>
<path d="M 186.76 187.32 C 190.64 187.12 195.03 188.44 196.76 192.24 C 198.40 195.85 195.94 199.45 195.10 202.93 C 198.90 206.11 204.13 209.91 202.57 215.63 C 200.74 216.64 199.14 218.62 196.90 218.47 C 193.61 216.97 190.57 214.97 187.66 212.84 C 184.39 215.29 181.80 220.09 177.02 219.05 C 172.58 218.22 170.63 213.90 168.64 210.41 C 166.62 210.76 165.00 212.30 162.96 212.57 C 160.71 212.60 158.63 210.43 156.40 211.69 C 153.96 212.79 151.31 212.98 148.70 212.40 C 146.73 214.17 144.89 216.90 141.91 216.77 C 139.38 217.05 137.86 214.83 136.31 213.26 C 132.33 215.18 127.20 214.05 125.07 210.00 C 123.58 207.03 126.21 204.30 127.61 201.87 C 128.92 204.49 129.97 208.12 133.39 208.57 C 137.16 208.83 140.85 207.64 144.49 206.80 C 147.85 206.27 149.39 202.98 151.23 200.54 C 153.74 202.86 156.78 205.59 160.51 204.74 C 162.76 203.85 164.17 201.63 166.19 200.32 C 169.04 201.84 171.71 203.71 174.73 204.90 C 176.68 201.99 179.28 199.53 182.84 198.88 C 188.03 197.77 186.69 191.27 186.76 187.32 Z" fill="#b0ebfe" opacity="1.00" stroke="#b0ebfe" stroke-width="0.25" data-index="5" style="opacity: 1;"></path>
<path d="M 362.49 214.56 C 362.86 213.87 363.60 212.49 363.97 211.80 C 368.82 213.22 372.63 217.92 372.63 223.05 C 372.94 226.77 371.45 230.37 369.28 233.32 C 372.51 235.43 375.96 237.33 378.51 240.31 C 381.12 245.32 381.20 251.86 377.36 256.28 C 375.58 258.73 371.94 258.82 370.15 261.07 C 371.61 267.30 373.33 275.10 368.10 280.12 C 362.57 284.76 354.92 282.27 349.09 279.60 C 347.78 282.63 346.94 286.40 343.81 288.09 C 339.65 289.68 335.59 287.01 331.66 285.95 C 329.88 290.34 327.51 295.05 322.87 296.97 C 318.33 299.32 313.23 297.19 308.93 295.35 C 305.51 298.86 301.17 302.07 296.01 301.72 C 290.65 302.07 285.94 299.17 282.17 295.69 C 277.94 298.54 273.22 301.04 268.03 301.31 C 262.66 301.60 257.39 299.05 253.97 294.94 C 250.55 296.65 247.03 298.86 243.04 298.53 C 238.37 298.66 235.12 294.82 232.62 291.39 C 229.82 294.58 226.61 298.42 221.93 298.24 C 218.79 297.53 216.51 295.06 215.12 292.27 C 213.27 293.13 211.29 295.22 209.11 294.10 C 206.76 292.56 205.55 289.93 204.14 287.60 C 201.10 290.43 197.10 292.33 192.88 292.13 C 189.94 291.63 187.56 289.42 186.02 286.98 C 184.50 283.68 184.47 279.97 183.96 276.44 C 180.85 275.78 177.99 274.21 176.53 271.27 C 186.05 264.79 192.35 254.74 196.76 244.30 C 201.74 246.19 207.38 246.37 212.37 244.40 C 211.49 246.37 210.95 248.70 209.10 250.03 C 205.90 252.75 201.59 250.48 197.98 250.04 C 197.82 251.91 197.77 253.80 197.37 255.65 C 196.19 259.06 192.39 261.21 192.18 265.01 C 192.08 267.31 191.97 270.42 194.39 271.64 C 199.88 274.50 205.91 270.60 211.62 272.11 C 212.77 276.10 213.14 280.72 216.04 283.93 C 220.85 287.31 227.24 287.09 232.83 286.40 C 239.17 285.48 242.82 279.75 247.12 275.67 C 250.46 279.07 252.90 283.38 256.82 286.19 C 261.67 289.14 267.75 289.95 273.24 288.55 C 279.82 287.42 285.09 283.12 290.11 279.04 C 292.58 281.18 294.94 283.46 297.66 285.29 C 301.86 288.23 307.50 288.52 312.32 287.19 C 318.53 284.97 321.81 278.85 324.37 273.21 C 326.16 269.46 326.32 264.84 329.70 262.01 C 339.82 264.94 352.11 267.19 361.11 260.15 C 366.07 256.64 366.36 249.86 365.28 244.42 C 364.60 240.92 360.22 239.57 359.54 236.22 C 361.39 233.07 364.87 230.81 365.52 227.02 C 366.53 222.60 364.12 218.50 362.49 214.56 Z" fill="#b1ecff" opacity="1.00" stroke="#b1ecff" stroke-width="0.25" data-index="6" style="opacity: 1;"></path>
<path d="M 105.94 223.85 C 111.97 220.67 118.56 218.79 125.01 216.65 C 127.07 217.94 129.38 218.69 131.81 218.88 C 131.27 221.10 130.36 223.20 129.18 225.15 C 124.15 226.80 119.37 229.38 114.02 229.93 C 110.19 230.48 105.80 230.57 102.57 228.09 C 101.90 225.73 104.29 224.78 105.94 223.85 Z" fill="#ef9176" opacity="1.00" stroke="#ef9176" stroke-width="0.25" data-index="7"></path>
<path d="M 156.47 216.63 C 158.66 215.82 160.75 217.60 162.96 217.21 C 164.44 216.99 165.87 216.53 167.32 216.19 C 169.07 220.01 172.49 222.62 176.53 223.64 C 176.72 232.91 183.82 240.47 192.41 243.08 C 192.03 244.40 191.64 245.73 191.25 247.05 L 190.77 246.98 C 185.57 246.95 181.93 242.72 179.13 238.86 C 176.77 235.64 176.21 231.61 175.77 227.76 C 172.49 226.84 169.55 225.09 167.31 222.51 C 163.89 222.58 160.47 222.17 157.36 220.67 C 154.92 219.38 152.52 221.46 150.28 222.26 C 145.94 224.55 140.91 224.25 136.17 224.06 C 136.11 223.14 135.98 221.30 135.91 220.38 C 140.73 221.14 145.86 221.02 149.74 217.67 C 152.02 217.58 154.28 217.26 156.47 216.63 Z" fill="#ed9379" opacity="1.00" stroke="#ed9379" stroke-width="0.25" data-index="8"></path>
<path d="M 202.35 222.40 C 201.30 220.34 204.77 219.79 205.79 218.52 C 207.73 221.26 208.99 224.40 209.12 227.79 C 207.01 225.81 204.63 224.16 202.35 222.40 Z" fill="#aceaff" opacity="1.00" stroke="#aceaff" stroke-width="0.25" data-index="9"></path>
<path d="M 150.28 222.26 C 152.52 221.46 154.92 219.38 157.36 220.67 C 160.47 222.17 163.89 222.58 167.31 222.51 C 169.55 225.09 172.49 226.84 175.77 227.76 C 176.21 231.61 176.77 235.64 179.13 238.86 C 181.93 242.72 185.57 246.95 190.77 246.98 C 185.05 259.31 174.72 270.33 161.11 273.54 C 149.52 276.33 135.07 273.71 128.40 262.90 C 131.59 263.89 134.38 266.66 137.95 265.44 C 141.11 264.52 146.23 262.08 144.32 258.00 C 141.73 260.78 138.49 262.93 134.54 262.96 C 133.43 260.78 133.06 258.35 132.69 255.96 C 135.14 254.80 136.31 252.31 137.51 250.04 C 137.10 249.58 136.29 248.64 135.89 248.18 C 133.89 249.23 132.30 250.81 131.04 252.66 C 129.98 251.41 128.91 250.18 127.81 248.98 C 128.47 238.96 132.61 229.71 135.91 220.38 C 135.98 221.30 136.11 223.14 136.17 224.06 C 140.91 224.25 145.94 224.55 150.28 222.26 Z" fill="#ffcfb8" opacity="1.00" stroke="#ffcfb8" stroke-width="0.25" data-index="10"></path>
<path d="M 181.24 222.88 C 183.38 222.11 185.33 220.91 186.85 219.20 C 189.95 219.48 192.22 221.78 194.79 223.28 C 199.65 226.18 204.73 229.13 208.22 233.71 C 209.76 235.47 209.77 237.88 210.08 240.08 C 206.30 241.94 202.09 240.74 198.21 239.88 C 193.34 238.71 188.35 236.89 184.78 233.23 C 182.14 230.49 180.99 226.63 181.24 222.88 Z" fill="#fecfb6" opacity="1.00" stroke="#fecfb6" stroke-width="0.25" data-index="11"></path>
<path d="M 137.72 227.43 C 139.80 227.50 142.85 226.60 143.86 229.10 C 146.07 232.45 141.70 237.26 138.26 234.80 C 135.33 233.30 136.32 229.65 137.72 227.43 Z" fill="#062b47" opacity="1.00" stroke="#062b47" stroke-width="0.25" data-index="12"></path>
<path d="M 159.81 228.83 C 161.39 226.46 164.61 227.59 166.63 228.69 C 166.67 230.55 166.66 232.41 166.60 234.27 C 165.21 234.88 163.83 235.96 162.22 235.59 C 159.13 235.37 157.48 230.98 159.81 228.83 Z" fill="#062b47" opacity="1.00" stroke="#062b47" stroke-width="0.25" data-index="13"></path>
<path d="M 139.59 229.27 C 140.58 229.66 141.57 230.05 142.57 230.45 C 142.50 230.96 142.36 231.99 142.30 232.51 C 140.95 232.40 139.60 232.28 138.26 232.17 C 138.70 231.20 139.14 230.24 139.59 229.27 Z" fill="#1d425c" opacity="1.00" stroke="#1d425c" stroke-width="0.25" data-index="14"></path>
<path d="M 127.20 254.90 C 130.00 255.73 130.62 258.44 130.64 261.05 C 127.32 260.79 127.06 257.56 127.20 254.90 Z" fill="#e0c1b8" opacity="1.00" stroke="#e0c1b8" stroke-width="0.25" data-index="15"></path>
<path d="M 349.18 289.31 C 350.04 288.09 350.73 286.78 351.45 285.48 C 353.22 286.09 355.02 286.67 356.84 287.19 C 359.23 287.92 362.53 288.22 361.95 291.63 C 359.35 291.56 356.75 291.25 354.17 291.56 C 351.16 293.16 349.09 296.03 346.65 298.34 C 346.60 296.48 346.56 294.63 346.52 292.79 C 347.41 291.63 348.31 290.48 349.18 289.31 Z" fill="#e99078" opacity="1.00" stroke="#e99078" stroke-width="0.25" data-index="16"></path>
<path d="M 356.84 287.19 C 358.75 287.38 360.68 287.50 362.60 287.60 L 362.52 288.41 C 361.60 300.34 360.88 312.29 360.20 324.23 C 359.47 332.22 359.22 340.25 358.50 348.24 C 355.61 348.32 352.72 348.43 349.83 348.52 C 349.74 341.56 349.42 334.60 349.23 327.65 C 349.17 321.49 348.69 315.34 348.58 309.19 C 347.11 305.76 346.55 302.07 346.65 298.34 C 349.09 296.03 351.16 293.16 354.17 291.56 C 356.75 291.25 359.35 291.56 361.95 291.63 C 362.53 288.22 359.23 287.92 356.84 287.19 Z" fill="#fed0b8" opacity="1.00" stroke="#fed0b8" stroke-width="0.25" data-index="17"></path>
<path d="M 362.52 288.41 L 363.89 287.49 C 363.83 298.01 362.49 308.50 362.00 319.02 C 361.66 320.78 362.24 323.31 360.20 324.23 C 360.88 312.29 361.60 300.34 362.52 288.41 Z" fill="#102434" opacity="1.00" stroke="#102434" stroke-width="0.25" data-index="18"></path>
<path d="M 342.99 293.16 C 345.25 292.23 347.10 290.56 349.18 289.31 C 348.31 290.48 347.41 291.63 346.52 292.79 C 346.56 294.63 346.60 296.48 346.65 298.34 C 346.55 302.07 347.11 305.76 348.58 309.19 C 348.69 315.34 349.17 321.49 349.23 327.65 C 349.14 328.23 348.95 329.40 348.86 329.98 C 348.34 323.07 348.93 316.02 347.91 309.19 C 347.37 308.63 346.30 307.52 345.76 306.97 C 344.97 308.17 344.01 309.40 344.25 310.95 C 344.43 323.14 344.94 335.33 345.49 347.51 C 341.78 347.76 338.06 347.82 334.35 347.73 C 334.25 329.16 334.19 310.59 334.16 292.02 C 337.07 292.55 340.01 293.56 342.99 293.16 Z" fill="#745657" opacity="1.00" stroke="#745657" stroke-width="0.25" data-index="19"></path>
<path d="M 201.51 294.59 C 201.84 294.55 202.51 294.48 202.85 294.45 C 204.14 295.82 205.28 297.47 207.05 298.27 C 208.85 298.58 210.69 298.45 212.52 298.46 C 211.21 304.46 209.98 310.63 210.99 316.77 C 210.88 323.36 209.43 329.82 208.90 336.37 C 209.26 336.74 209.98 337.47 210.34 337.84 C 209.73 338.12 209.13 338.41 208.53 338.71 C 208.01 342.58 207.50 346.46 207.21 350.37 C 202.94 350.26 198.66 350.20 194.38 350.27 C 196.09 335.03 198.00 319.82 199.94 304.61 C 200.37 301.26 200.43 297.82 201.51 294.59 Z" fill="#f19378" opacity="1.00" stroke="#f19378" stroke-width="0.25" data-index="20" style="opacity: 1;"></path>
<path d="M 202.85 294.45 C 206.15 295.57 209.39 296.89 212.52 298.46 C 210.69 298.45 208.85 298.58 207.05 298.27 C 205.28 297.47 204.14 295.82 202.85 294.45 Z" fill="#212531" opacity="1.00" stroke="#212531" stroke-width="0.25" data-index="21" style="opacity: 1;"></path>

<path d="M 212.52 298.46 L 212.82 297.18 C 214.28 298.54 215.96 299.74 217.06 301.45 C 217.54 306.13 216.89 310.83 215.84 315.39 C 214.22 315.85 212.61 316.31 210.99 316.77 C 209.98 310.63 211.21 304.46 212.52 298.46 Z" fill="#937876" opacity="1.00" stroke="#937876" stroke-width="0.25" data-index="23"></path>
<path d="M 217.06 301.45 C 217.80 301.67 219.28 302.10 220.02 302.32 C 220.99 302.57 221.97 302.83 222.95 303.08 C 222.71 318.87 221.13 334.59 220.38 350.36 C 219.81 350.35 218.66 350.33 218.09 350.33 C 216.77 350.31 215.45 350.30 214.14 350.29 C 214.17 345.62 214.48 340.92 213.61 336.31 C 212.79 336.69 211.16 337.46 210.34 337.84 C 209.98 337.47 209.26 336.74 208.90 336.37 C 209.43 329.82 210.88 323.36 210.99 316.77 C 212.61 316.31 214.22 315.85 215.84 315.39 C 216.89 310.83 217.54 306.13 217.06 301.45 Z" fill="#aa9495" opacity="1.00" stroke="#aa9495" stroke-width="0.25" data-index="24"></path>
<path d="M 220.02 302.32 C 222.83 302.41 225.63 302.03 228.38 301.43 C 228.33 317.75 228.68 334.07 228.72 350.39 C 225.94 350.37 223.16 350.35 220.38 350.36 C 221.13 334.59 222.71 318.87 222.95 303.08 C 221.97 302.83 220.99 302.57 220.02 302.32 Z" fill="#725354" opacity="1.00" stroke="#725354" stroke-width="0.25" data-index="25"></path>
<path d="M 210.34 337.84 C 211.16 337.46 212.79 336.69 213.61 336.31 C 214.48 340.92 214.17 345.62 214.14 350.29 C 215.45 350.30 216.77 350.31 218.09 350.33 C 219.14 353.34 219.82 356.66 218.77 359.79 C 217.66 361.16 215.72 359.83 214.39 359.49 C 212.67 356.86 213.17 353.44 212.22 350.53 C 211.15 347.25 210.61 343.83 210.73 340.38 C 210.18 339.96 209.08 339.12 208.53 338.71 C 209.13 338.41 209.73 338.12 210.34 337.84 Z" fill="#1d425c" opacity="1.00" stroke="#1d425c" stroke-width="0.25" data-index="26" style="opacity: 1;"></path>

</svg>