<?xml version="1.0" encoding="utf-8"?>
<svg xmlns="http://www.w3.org/2000/svg" height="512pt" version="1.1" viewBox="0 0 512 512" width="512pt">
<path d="M 0.00 0.00 L 512.00 0.00 L 512.00 512.00 L 0.00 512.00 L 0.00 0.00 Z" fill="transparent" opacity="1.00" stroke="transparent" stroke-width="0.25"/>
<path d="M 203.87 50.27 C 236.83 56.35 270.83 55.94 303.83 50.35 C 306.53 53.28 309.29 56.16 311.52 59.47 C 340.98 65.08 369.75 73.91 398.04 83.80 C 407.60 95.57 418.34 106.32 429.44 116.63 C 441.08 127.99 453.13 138.93 464.62 150.45 C 472.90 157.65 480.41 165.66 488.63 172.91 C 475.90 201.67 458.52 228.59 436.13 250.79 C 423.27 243.38 410.33 236.13 397.51 228.65 C 393.94 226.72 390.59 224.36 386.79 222.87 C 385.26 293.25 384.05 363.64 382.59 434.02 C 348.84 449.01 311.90 456.51 275.00 456.63 C 249.52 457.07 224.06 454.47 199.02 449.89 C 180.82 446.53 162.73 442.38 145.21 436.40 C 144.71 402.29 144.39 368.17 142.81 334.10 C 142.29 312.23 141.43 290.38 140.70 268.52 C 118.73 267.60 96.98 262.39 76.69 253.99 C 71.04 251.69 65.73 248.67 60.14 246.23 C 60.22 244.54 60.33 242.85 60.60 241.18 C 67.73 204.76 73.77 168.13 80.31 131.59 C 81.87 121.27 86.29 111.28 93.68 103.83 C 119.86 90.59 147.76 81.33 175.07 70.81 C 186.20 66.50 196.47 59.72 203.87 50.27 Z" fill="#03385e" opacity="1.00" stroke="#03385e" stroke-width="0.25"/>
<path d="M 313.21 70.15 C 314.99 70.47 316.78 70.78 318.56 71.13 C 317.35 75.68 318.11 80.39 317.89 85.03 C 317.52 93.86 316.43 102.72 313.92 111.21 C 312.62 115.65 309.21 118.94 306.03 122.11 C 297.25 131.35 285.64 137.08 274.45 142.79 C 273.23 143.34 273.72 144.94 273.52 145.96 C 273.41 155.13 273.65 164.33 272.75 173.47 C 272.23 178.17 273.13 183.12 271.24 187.60 C 268.35 178.39 267.47 168.69 264.61 159.48 C 262.17 151.12 259.74 142.71 256.33 134.68 C 254.44 134.03 252.55 133.36 250.63 132.81 C 264.42 133.63 278.54 129.90 289.54 121.39 C 305.68 109.85 313.44 89.55 313.21 70.15 Z" fill="#c7f2fe" opacity="1.00" stroke="#c7f2fe" stroke-width="0.25"/>
<path d="M 176.13 81.07 C 182.34 78.41 188.88 76.20 194.32 72.08 C 194.92 87.87 200.80 103.72 212.03 115.03 C 222.13 125.45 236.18 131.83 250.63 132.81 C 252.55 133.36 254.44 134.03 256.33 134.68 C 259.74 142.71 262.17 151.12 264.61 159.48 C 267.47 168.69 268.35 178.39 271.24 187.60 C 273.13 183.12 272.23 178.17 272.75 173.47 C 273.65 164.33 273.41 155.13 273.52 145.96 C 273.72 144.94 273.23 143.34 274.45 142.79 C 285.64 137.08 297.25 131.35 306.03 122.11 C 309.21 118.94 312.62 115.65 313.92 111.21 C 316.43 102.72 317.52 93.86 317.89 85.03 C 318.11 80.39 317.35 75.68 318.56 71.13 C 342.79 76.17 366.52 83.39 389.91 91.44 C 393.60 92.21 394.98 96.09 397.48 98.46 C 421.02 123.20 446.50 145.96 470.85 169.87 C 461.36 187.67 450.28 204.60 437.61 220.32 C 431.68 219.38 425.72 214.43 426.08 208.00 C 426.11 200.99 425.73 193.99 425.66 186.98 C 425.76 174.64 423.09 162.24 417.76 151.10 C 416.26 147.82 414.98 144.19 411.83 142.10 C 411.22 143.66 410.46 145.28 410.98 146.99 C 414.52 164.42 416.19 182.59 412.90 200.18 C 411.60 191.66 411.29 182.84 408.31 174.68 C 407.69 172.26 403.94 171.25 402.76 173.75 C 400.23 179.26 400.87 185.60 399.40 191.40 C 396.26 180.91 398.04 169.78 397.38 159.00 C 396.59 148.34 396.26 137.65 395.78 126.97 C 395.71 124.02 395.02 121.14 394.36 118.28 C 394.62 112.44 395.40 106.57 396.40 100.80 C 394.63 99.55 392.77 98.14 390.48 98.32 C 389.68 99.78 389.25 101.40 388.77 102.98 C 384.80 116.39 381.12 129.97 379.63 143.91 C 379.30 146.49 379.52 149.17 378.77 151.69 C 372.23 165.26 366.61 179.42 357.87 191.79 C 351.78 201.50 345.02 210.82 337.38 219.37 C 333.45 223.99 328.67 228.14 326.24 233.81 C 331.07 230.85 335.45 227.23 340.17 224.11 C 341.72 223.15 343.48 221.85 345.41 222.56 C 347.12 223.94 346.68 226.30 346.36 228.19 C 343.09 243.26 339.49 258.25 336.44 273.37 C 335.30 278.58 334.02 283.84 334.33 289.22 C 337.02 287.70 337.57 284.44 338.69 281.83 C 341.32 275.26 343.58 268.56 345.66 261.80 C 351.25 245.96 356.03 229.84 360.48 213.65 C 361.49 210.29 361.83 206.52 364.08 203.69 C 365.93 201.73 366.54 205.74 366.58 206.94 C 366.81 214.62 365.98 222.27 365.64 229.94 C 365.56 245.98 363.52 261.94 363.57 277.99 C 363.72 287.00 362.33 295.94 362.59 304.95 C 362.80 313.21 361.81 321.43 361.82 329.68 C 363.51 328.83 365.12 327.66 367.02 327.31 C 370.00 327.94 369.47 331.67 369.70 333.96 C 369.81 351.64 369.48 369.33 369.54 387.01 C 370.31 391.37 365.22 392.32 362.68 394.65 C 358.12 398.53 353.00 401.66 348.25 405.28 C 346.75 406.14 346.37 407.77 346.15 409.35 C 351.01 410.70 356.66 409.68 360.86 412.89 C 356.75 417.60 351.14 420.61 345.69 423.49 C 324.35 433.08 301.18 437.91 277.99 440.24 C 273.48 440.44 268.70 441.38 264.47 439.33 C 265.00 436.40 265.73 433.42 265.42 430.43 C 264.19 428.86 262.23 428.17 260.45 427.48 C 250.65 424.26 240.89 420.90 231.42 416.81 C 221.97 413.65 212.73 409.91 203.45 406.29 C 197.92 404.18 192.96 400.91 187.77 398.12 C 179.81 393.99 174.73 386.18 170.23 378.72 C 166.27 370.74 161.22 363.04 159.82 354.07 C 157.74 342.96 156.58 331.41 158.59 320.21 C 159.96 320.43 161.72 319.97 162.70 321.25 C 167.96 327.58 170.38 335.62 174.33 342.74 C 177.52 348.51 179.87 354.76 183.79 360.11 C 183.58 353.67 180.46 347.88 178.95 341.72 C 175.30 330.74 173.83 319.22 170.84 308.08 C 168.71 299.78 167.50 291.29 165.82 282.90 C 164.68 277.89 166.93 273.06 168.31 268.35 C 170.34 262.35 171.27 256.06 173.02 249.99 C 175.46 241.52 177.42 232.94 179.44 224.37 C 181.47 216.67 183.66 208.90 183.81 200.89 C 181.43 205.38 179.92 210.24 177.97 214.91 C 173.66 224.67 169.28 234.45 163.65 243.54 C 162.51 245.46 160.66 246.74 158.90 248.02 C 154.71 241.55 153.23 233.82 151.52 226.42 C 150.44 220.06 148.34 213.95 146.32 207.85 C 144.09 196.22 141.87 184.57 138.74 173.14 C 139.45 156.45 139.51 139.71 140.36 123.00 C 140.38 118.83 140.81 114.53 139.65 110.46 C 139.25 108.68 137.28 108.19 135.99 107.23 C 131.82 111.40 132.80 117.65 132.21 122.99 C 131.34 129.99 132.50 137.24 130.02 143.99 C 125.97 132.78 120.80 122.00 115.08 111.56 C 112.09 112.11 109.58 113.78 107.44 115.86 C 109.70 120.42 112.14 124.93 113.81 129.74 C 113.90 130.51 114.10 132.05 114.19 132.82 C 112.83 132.29 111.48 131.76 110.12 131.23 C 112.09 141.27 115.31 151.03 116.95 161.14 C 119.02 170.55 120.04 180.13 121.55 189.63 C 122.46 195.65 123.57 201.74 122.85 207.85 C 122.26 207.80 121.07 207.69 120.48 207.63 C 116.18 198.33 112.94 188.44 107.06 179.97 C 104.12 175.61 101.94 170.54 97.66 167.28 C 99.84 183.24 101.81 199.25 105.10 215.04 C 106.54 221.91 109.76 228.27 111.09 235.16 C 111.77 237.33 110.22 239.40 108.43 240.47 C 105.93 241.96 103.12 242.84 100.35 243.70 C 90.70 241.57 81.42 238.02 72.10 234.79 C 73.52 223.45 76.11 212.28 78.06 201.03 C 82.19 177.89 86.26 154.75 90.26 131.59 C 91.18 125.08 93.97 118.97 97.74 113.63 C 100.10 111.18 103.48 110.15 106.45 108.65 C 129.08 97.99 152.82 90.04 176.13 81.07 Z" fill="#ffffff" opacity="1.00" stroke="#ffffff" stroke-width="0.25"/>
<path d="M 212.60 72.18 C 240.80 76.88 269.73 76.22 297.97 72.16 C 297.85 84.29 292.24 96.24 282.71 103.78 C 273.38 111.34 260.79 114.91 248.91 112.84 C 237.64 111.18 227.13 104.74 220.58 95.41 C 215.51 88.74 213.40 80.39 212.60 72.18 Z" fill="#c7f2fe" opacity="1.00" stroke="#c7f2fe" stroke-width="0.25"/>
<path d="M 132.21 122.99 C 132.80 117.65 131.82 111.40 135.99 107.23 C 137.28 108.19 139.25 108.68 139.65 110.46 C 140.81 114.53 140.38 118.83 140.36 123.00 C 139.51 139.71 139.45 156.45 138.74 173.14 C 136.27 163.29 133.45 153.54 130.02 143.99 C 132.50 137.24 131.34 129.99 132.21 122.99 Z" fill="#c7f2fe" opacity="1.00" stroke="#c7f2fe" stroke-width="0.25"/>
<path d="M 394.36 118.28 C 395.02 121.14 395.71 124.02 395.78 126.97 C 396.26 137.65 396.59 148.34 397.38 159.00 C 398.04 169.78 396.26 180.91 399.40 191.40 C 400.87 185.60 400.23 179.26 402.76 173.75 C 403.94 171.25 407.69 172.26 408.31 174.68 C 411.29 182.84 411.60 191.66 412.90 200.18 C 416.19 182.59 414.52 164.42 410.98 146.99 C 410.46 145.28 411.22 143.66 411.83 142.10 C 414.98 144.19 416.26 147.82 417.76 151.10 C 423.09 162.24 425.76 174.64 425.66 186.98 C 425.73 193.99 426.11 200.99 426.08 208.00 C 425.72 214.43 431.68 219.38 437.61 220.32 C 433.76 224.74 430.01 229.26 426.03 233.58 C 412.93 226.59 400.34 218.69 387.30 211.59 C 387.22 192.72 388.11 173.87 388.65 155.01 C 389.57 142.65 391.55 130.35 394.36 118.28 Z" fill="#c7f2fe" opacity="1.00" stroke="#c7f2fe" stroke-width="0.25"/>
<path d="M 113.81 129.74 C 127.26 159.58 133.79 192.08 137.19 224.49 C 137.77 232.88 138.58 241.26 138.42 249.67 C 125.61 248.73 112.81 246.84 100.35 243.70 C 103.12 242.84 105.93 241.96 108.43 240.47 C 110.22 239.40 111.77 237.33 111.09 235.16 C 109.76 228.27 106.54 221.91 105.10 215.04 C 101.81 199.25 99.84 183.24 97.66 167.28 C 101.94 170.54 104.12 175.61 107.06 179.97 C 112.94 188.44 116.18 198.33 120.48 207.63 C 121.07 207.69 122.26 207.80 122.85 207.85 C 123.57 201.74 122.46 195.65 121.55 189.63 C 120.04 180.13 119.02 170.55 116.95 161.14 C 115.31 151.03 112.09 141.27 110.12 131.23 C 111.48 131.76 112.83 132.29 114.19 132.82 C 114.10 132.05 113.90 130.51 113.81 129.74 Z" fill="#c7f2fe" opacity="1.00" stroke="#c7f2fe" stroke-width="0.25"/>
<path d="M 357.87 191.79 C 366.61 179.42 372.23 165.26 378.77 151.69 C 376.22 224.08 375.47 296.52 373.96 368.93 C 373.27 388.34 373.66 407.79 372.72 427.19 C 329.53 445.69 281.38 449.39 235.01 444.86 C 208.02 442.14 181.28 436.91 155.21 429.40 C 154.46 405.94 154.66 382.45 153.75 359.00 C 153.16 332.34 151.80 305.70 151.21 279.04 C 150.11 255.28 149.87 231.41 146.32 207.85 C 148.34 213.95 150.44 220.06 151.52 226.42 C 153.23 233.82 154.71 241.55 158.90 248.02 C 160.66 246.74 162.51 245.46 163.65 243.54 C 169.28 234.45 173.66 224.67 177.97 214.91 C 179.92 210.24 181.43 205.38 183.81 200.89 C 183.66 208.90 181.47 216.67 179.44 224.37 C 177.42 232.94 175.46 241.52 173.02 249.99 C 171.27 256.06 170.34 262.35 168.31 268.35 C 166.93 273.06 164.68 277.89 165.82 282.90 C 167.50 291.29 168.71 299.78 170.84 308.08 C 173.83 319.22 175.30 330.74 178.95 341.72 C 180.46 347.88 183.58 353.67 183.79 360.11 C 179.87 354.76 177.52 348.51 174.33 342.74 C 170.38 335.62 167.96 327.58 162.70 321.25 C 161.72 319.97 159.96 320.43 158.59 320.21 C 156.58 331.41 157.74 342.96 159.82 354.07 C 161.22 363.04 166.27 370.74 170.23 378.72 C 174.73 386.18 179.81 393.99 187.77 398.12 C 192.96 400.91 197.92 404.18 203.45 406.29 C 212.73 409.91 221.97 413.65 231.42 416.81 C 240.89 420.90 250.65 424.26 260.45 427.48 C 262.23 428.17 264.19 428.86 265.42 430.43 C 265.73 433.42 265.00 436.40 264.47 439.33 C 268.70 441.38 273.48 440.44 277.99 440.24 C 301.18 437.91 324.35 433.08 345.69 423.49 C 351.14 420.61 356.75 417.60 360.86 412.89 C 356.66 409.68 351.01 410.70 346.15 409.35 C 346.37 407.77 346.75 406.14 348.25 405.28 C 353.00 401.66 358.12 398.53 362.68 394.65 C 365.22 392.32 370.31 391.37 369.54 387.01 C 369.48 369.33 369.81 351.64 369.70 333.96 C 369.47 331.67 370.00 327.94 367.02 327.31 C 365.12 327.66 363.51 328.83 361.82 329.68 C 361.81 321.43 362.80 313.21 362.59 304.95 C 362.33 295.94 363.72 287.00 363.57 277.99 C 363.52 261.94 365.56 245.98 365.64 229.94 C 365.98 222.27 366.81 214.62 366.58 206.94 C 366.54 205.74 365.93 201.73 364.08 203.69 C 361.83 206.52 361.49 210.29 360.48 213.65 C 356.03 229.84 351.25 245.96 345.66 261.80 C 343.58 268.56 341.32 275.26 338.69 281.83 C 337.57 284.44 337.02 287.70 334.33 289.22 C 334.02 283.84 335.30 278.58 336.44 273.37 C 339.49 258.25 343.09 243.26 346.36 228.19 C 346.68 226.30 347.12 223.94 345.41 222.56 C 343.48 221.85 341.72 223.15 340.17 224.11 C 335.45 227.23 331.07 230.85 326.24 233.81 C 328.67 228.14 333.45 223.99 337.38 219.37 C 345.02 210.82 351.78 201.50 357.87 191.79 Z" fill="#c7f2fe" opacity="1.00" stroke="#c7f2fe" stroke-width="0.25"/>
<path d="M 167.52 399.53 C 168.70 397.19 171.87 398.39 173.67 399.28 C 182.44 403.94 190.47 409.82 198.80 415.19 C 204.86 419.03 210.53 423.43 216.15 427.87 C 217.48 428.62 217.62 430.15 217.79 431.51 C 209.81 432.29 201.83 431.00 193.94 429.89 C 186.71 428.68 179.26 427.66 172.60 424.41 C 168.86 422.63 165.73 419.13 165.42 414.86 C 165.12 409.72 165.18 404.24 167.52 399.53 Z" fill="#ffffff" opacity="1.00" stroke="#ffffff" stroke-width="0.25"/>
</svg>