<?xml version="1.0" encoding="utf-8"?>
<svg xmlns="http://www.w3.org/2000/svg" height="512pt" version="1.1" viewBox="0 0 512 512" width="512pt">
<path d="M 0.00 0.00 L 512.00 0.00 L 512.00 512.00 L 0.00 512.00 L 0.00 0.00 Z" fill="transparent" opacity="1.00" stroke="transparent" stroke-width="0.25"/>
<path d="M 250.16 103.91 C 250.66 102.99 250.86 101.59 252.03 101.27 C 253.01 101.79 253.38 102.89 253.79 103.85 C 260.50 122.14 266.98 140.51 273.35 158.92 C 274.23 161.68 275.75 164.33 275.82 167.29 C 275.82 167.79 275.80 168.79 275.79 169.29 C 273.66 168.50 271.30 166.81 268.99 168.00 C 266.58 168.91 264.69 171.22 265.05 173.91 C 264.94 225.59 265.03 277.28 265.01 328.96 C 264.91 334.29 265.33 339.65 264.61 344.96 C 262.91 340.47 263.61 335.63 263.54 330.95 C 263.61 278.63 263.50 226.30 263.58 173.98 C 263.81 171.82 262.76 168.55 260.06 169.02 C 257.29 169.55 256.87 172.64 257.00 174.96 C 257.00 225.31 257.00 275.66 257.00 326.01 C 256.98 332.36 257.16 338.73 256.67 345.07 C 255.86 343.16 255.15 341.17 255.27 339.06 C 255.36 286.38 255.16 233.70 255.33 181.02 C 255.15 177.55 256.30 173.26 253.01 170.87 C 253.28 170.62 253.84 170.12 254.11 169.87 C 254.46 170.15 255.16 170.72 255.51 171.01 C 256.59 169.65 257.71 168.33 258.84 167.00 C 260.79 167.53 262.73 168.14 264.67 168.76 C 267.38 166.39 270.82 165.63 274.33 166.34 C 269.84 153.89 265.69 141.32 260.97 128.96 C 258.93 129.36 256.89 129.74 254.84 130.05 C 250.70 130.28 246.58 129.71 242.52 128.98 L 241.94 128.19 C 241.64 126.12 242.75 124.17 243.33 122.23 C 245.71 116.16 247.83 110.00 250.16 103.91 Z" fill="#647a8a" opacity="1.00" stroke="#647a8a" stroke-width="0.25"/>
<path d="M 251.65 104.74 C 253.06 106.10 253.73 108.10 253.73 110.04 C 253.29 115.35 253.51 120.67 254.12 125.96 C 254.82 126.70 255.51 127.45 256.19 128.22 C 252.02 128.76 247.84 128.28 243.71 127.66 C 245.48 119.75 248.82 112.30 251.65 104.74 Z" fill="#90e8ff" opacity="1.00" stroke="#90e8ff" stroke-width="0.25"/>
<path d="M 254.12 125.96 C 253.51 120.67 253.29 115.35 253.73 110.04 C 256.81 115.50 258.73 121.58 260.18 127.66 C 258.85 127.84 257.52 128.03 256.19 128.22 C 255.51 127.45 254.82 126.70 254.12 125.96 Z" fill="#78d5ee" opacity="1.00" stroke="#78d5ee" stroke-width="0.25"/>
<path d="M 241.53 127.65 L 241.94 128.19 L 242.52 128.98 C 238.40 141.88 233.55 154.54 229.11 167.34 C 230.76 168.17 232.38 169.06 233.95 170.04 C 235.28 169.05 236.42 167.65 238.06 167.18 C 239.74 167.37 241.30 168.09 242.88 168.65 C 246.56 166.51 251.14 166.52 254.11 169.87 C 253.84 170.12 253.28 170.62 253.01 170.87 C 250.69 168.69 247.39 167.95 244.49 169.48 C 243.13 172.43 243.78 175.80 243.65 178.95 C 243.78 232.66 243.62 286.37 243.73 340.07 C 243.75 341.79 243.33 343.48 242.50 344.99 C 241.87 340.01 242.14 334.99 242.11 329.99 C 242.11 277.64 242.12 225.29 242.11 172.94 C 242.49 170.57 240.46 168.49 238.11 168.68 C 235.57 169.67 234.91 172.55 235.08 175.00 C 235.13 226.65 235.10 278.31 235.09 329.97 C 235.09 334.27 235.27 338.59 234.68 342.87 C 233.24 338.37 233.81 333.61 233.77 328.97 C 233.81 280.29 233.75 231.62 233.79 182.94 C 233.72 179.51 234.13 176.02 233.47 172.63 C 232.54 170.92 230.75 169.89 229.32 168.63 C 228.76 195.74 229.25 222.86 229.07 249.98 C 229.07 283.36 229.09 316.75 229.07 350.13 L 229.07 350.97 C 244.70 351.05 260.34 350.80 275.97 350.75 C 276.03 301.82 275.98 252.89 276.00 203.97 C 275.93 192.40 276.18 180.84 275.79 169.29 C 275.80 168.79 275.82 167.79 275.82 167.29 C 276.65 169.07 277.75 170.87 277.63 172.92 C 277.53 238.19 277.68 303.45 277.56 368.72 L 276.01 368.72 C 275.99 366.86 275.98 365.01 275.96 363.16 C 269.61 363.17 263.26 363.16 256.91 363.16 C 247.64 363.11 238.38 363.17 229.11 363.13 L 229.11 361.91 C 238.50 361.88 247.88 361.94 257.26 361.86 C 263.50 361.84 269.75 361.86 275.99 361.78 C 275.99 361.14 275.98 359.85 275.98 359.21 C 269.34 359.16 262.70 359.15 256.07 359.12 C 247.06 359.00 238.05 359.37 229.05 358.94 L 227.70 358.81 C 227.63 295.89 227.70 232.96 227.66 170.03 C 227.71 168.36 227.84 166.68 228.34 165.07 C 232.69 152.58 237.22 140.15 241.53 127.65 Z" fill="#5f717f" opacity="1.00" stroke="#5f717f" stroke-width="0.25"/>
<path d="M 242.52 128.98 C 246.58 129.71 250.70 130.28 254.84 130.05 C 255.09 135.03 255.50 140.00 256.11 144.95 C 257.03 152.30 257.17 159.76 258.84 167.00 C 257.71 168.33 256.59 169.65 255.51 171.01 C 255.16 170.72 254.46 170.15 254.11 169.87 C 251.14 166.52 246.56 166.51 242.88 168.65 C 241.30 168.09 239.74 167.37 238.06 167.18 C 236.42 167.65 235.28 169.05 233.95 170.04 C 232.38 169.06 230.76 168.17 229.11 167.34 C 233.55 154.54 238.40 141.88 242.52 128.98 Z" fill="#fefdf9" opacity="1.00" stroke="#fefdf9" stroke-width="0.25"/>
<path d="M 254.84 130.05 C 256.89 129.74 258.93 129.36 260.97 128.96 C 265.69 141.32 269.84 153.89 274.33 166.34 C 270.82 165.63 267.38 166.39 264.67 168.76 C 262.73 168.14 260.79 167.53 258.84 167.00 C 257.17 159.76 257.03 152.30 256.11 144.95 C 255.50 140.00 255.09 135.03 254.84 130.05 Z" fill="#e2ddd9" opacity="1.00" stroke="#e2ddd9" stroke-width="0.25"/>
<path d="M 268.99 168.00 C 271.30 166.81 273.66 168.50 275.79 169.29 C 276.18 180.84 275.93 192.40 276.00 203.97 C 275.98 252.89 276.03 301.82 275.97 350.75 C 260.34 350.80 244.70 351.05 229.07 350.97 L 229.07 350.13 C 238.35 350.43 247.65 350.49 256.94 350.16 C 256.85 348.46 256.77 346.76 256.67 345.07 C 257.16 338.73 256.98 332.36 257.00 326.01 C 257.00 275.66 257.00 225.31 257.00 174.96 C 256.87 172.64 257.29 169.55 260.06 169.02 C 262.76 168.55 263.81 171.82 263.58 173.98 C 263.50 226.30 263.61 278.63 263.54 330.95 C 263.61 335.63 262.91 340.47 264.61 344.96 C 265.33 339.65 264.91 334.29 265.01 328.96 C 265.03 277.28 264.94 225.59 265.05 173.91 C 264.69 171.22 266.58 168.91 268.99 168.00 Z" fill="#c5d7e4" opacity="1.00" stroke="#c5d7e4" stroke-width="0.25"/>
<path d="M 229.32 168.63 C 230.75 169.89 232.54 170.92 233.47 172.63 C 234.13 176.02 233.72 179.51 233.79 182.94 C 233.75 231.62 233.81 280.29 233.77 328.97 C 233.81 333.61 233.24 338.37 234.68 342.87 C 235.27 338.59 235.09 334.27 235.09 329.97 C 235.10 278.31 235.13 226.65 235.08 175.00 C 234.91 172.55 235.57 169.67 238.11 168.68 C 240.46 168.49 242.49 170.57 242.11 172.94 C 242.12 225.29 242.11 277.64 242.11 329.99 C 242.14 334.99 241.87 340.01 242.50 344.99 C 243.33 343.48 243.75 341.79 243.73 340.07 C 243.62 286.37 243.78 232.66 243.65 178.95 C 243.78 175.80 243.13 172.43 244.49 169.48 C 247.39 167.95 250.69 168.69 253.01 170.87 C 256.30 173.26 255.15 177.55 255.33 181.02 C 255.16 233.70 255.36 286.38 255.27 339.06 C 255.15 341.17 255.86 343.16 256.67 345.07 C 256.77 346.76 256.85 348.46 256.94 350.16 C 247.65 350.49 238.35 350.43 229.07 350.13 C 229.09 316.75 229.07 283.36 229.07 249.98 C 229.25 222.86 228.76 195.74 229.32 168.63 Z" fill="#fbffff" opacity="1.00" stroke="#fbffff" stroke-width="0.25"/>
<path d="M 229.08 352.15 C 238.38 352.37 247.69 352.14 256.99 352.23 C 256.93 353.89 256.88 355.56 256.83 357.23 C 247.57 357.46 238.30 357.47 229.04 357.21 C 229.06 355.51 229.07 353.83 229.08 352.15 Z" fill="#fafeff" opacity="1.00" stroke="#fafeff" stroke-width="0.25"/>
<path d="M 256.99 352.23 C 263.32 352.27 269.66 352.29 276.00 352.19 C 276.01 354.02 275.95 355.86 275.96 357.71 C 260.32 357.64 244.69 357.94 229.05 357.87 L 229.04 357.21 C 238.30 357.47 247.57 357.46 256.83 357.23 C 256.88 355.56 256.93 353.89 256.99 352.23 Z" fill="#c4d9e7" opacity="1.00" stroke="#c4d9e7" stroke-width="0.25"/>
<path d="M 227.70 358.81 L 229.05 358.94 C 229.07 359.68 229.10 361.17 229.11 361.91 L 229.11 363.13 C 229.10 364.80 229.08 366.46 229.11 368.13 L 229.15 368.81 C 244.76 369.15 260.39 368.64 276.01 368.72 L 277.56 368.72 C 277.42 378.81 277.62 388.90 277.48 398.98 C 277.54 402.45 274.45 405.53 270.96 405.37 C 258.67 405.43 246.37 405.45 234.07 405.35 C 230.68 405.61 227.61 402.39 227.71 399.06 C 227.67 385.64 227.64 372.23 227.70 358.81 Z" fill="#3c6b7f" opacity="1.00" stroke="#3c6b7f" stroke-width="0.25"/>
<path d="M 229.05 358.94 C 238.05 359.37 247.06 359.00 256.07 359.12 C 256.46 360.03 256.86 360.94 257.26 361.86 C 247.88 361.94 238.50 361.88 229.11 361.91 C 229.10 361.17 229.07 359.68 229.05 358.94 Z" fill="#f7ffff" opacity="1.00" stroke="#f7ffff" stroke-width="0.25"/>
<path d="M 256.07 359.12 C 262.70 359.15 269.34 359.16 275.98 359.21 C 275.98 359.85 275.99 361.14 275.99 361.78 C 269.75 361.86 263.50 361.84 257.26 361.86 C 256.86 360.94 256.46 360.03 256.07 359.12 Z" fill="#c5dce9" opacity="1.00" stroke="#c5dce9" stroke-width="0.25"/>
<path d="M 229.11 363.13 C 238.38 363.17 247.64 363.11 256.91 363.16 C 256.91 364.85 256.91 366.55 256.91 368.25 C 247.65 368.43 238.37 368.46 229.11 368.13 C 229.08 366.46 229.10 364.80 229.11 363.13 Z" fill="#fafeff" opacity="1.00" stroke="#fafeff" stroke-width="0.25"/>
<path d="M 256.91 363.16 C 263.26 363.16 269.61 363.17 275.96 363.16 C 275.98 365.01 275.99 366.86 276.01 368.72 C 260.39 368.64 244.76 369.15 229.15 368.81 L 229.11 368.13 C 238.37 368.46 247.65 368.43 256.91 368.25 C 256.91 366.55 256.91 364.85 256.91 363.16 Z" fill="#c5d9e8" opacity="1.00" stroke="#c5d9e8" stroke-width="0.25"/>
<path d="M 229.09 370.11 C 238.38 370.13 247.67 370.05 256.96 370.10 C 257.02 372.69 256.87 375.33 257.44 377.88 C 258.75 381.64 261.82 384.82 261.80 389.00 C 262.23 393.93 260.82 398.85 258.01 402.91 C 262.90 403.01 267.77 403.34 272.65 403.56 C 259.14 404.44 245.56 403.96 232.02 403.98 C 230.72 402.18 228.81 400.45 229.06 398.01 C 228.99 388.71 229.04 379.41 229.09 370.11 Z" fill="#8fe7ff" opacity="1.00" stroke="#8fe7ff" stroke-width="0.25"/>
<path d="M 256.96 370.10 C 263.29 370.03 269.62 370.07 275.96 370.10 C 275.99 379.41 276.07 388.73 275.96 398.05 C 275.94 400.17 274.98 403.14 272.65 403.56 C 267.77 403.34 262.90 403.01 258.01 402.91 C 260.82 398.85 262.23 393.93 261.80 389.00 C 261.82 384.82 258.75 381.64 257.44 377.88 C 256.87 375.33 257.02 372.69 256.96 370.10 Z" fill="#7bd6f3" opacity="1.00" stroke="#7bd6f3" stroke-width="0.25"/>
</svg>