<svg xmlns="http://www.w3.org/2000/svg" height="512pt" version="1.1" viewBox="0 0 512 512" width="512pt">

<path d="M 245.13 26.04 C 247.94 25.70 250.80 25.59 253.58 26.24 C 253.41 37.18 253.52 48.12 253.60 59.06 C 253.40 60.10 253.99 61.92 252.59 62.30 C 250.08 62.71 247.53 62.32 245.03 62.07 C 245.07 50.06 244.99 38.05 245.13 26.04 Z" fill="#99a6b5" opacity="1.00" stroke="#99a6b5" stroke-width="0.25" data-index="1" style="visibility: hidden;"></path>

<path d="M 246.93 28.31 C 248.37 27.97 249.83 27.72 251.29 27.45 C 250.88 38.39 250.97 49.35 251.27 60.29 C 250.30 60.32 248.36 60.38 247.39 60.40 C 246.70 49.72 247.46 39.00 246.93 28.31 Z" fill="#b95b50" opacity="1.00" stroke="#b95b50" stroke-width="0.25" data-index="3" style="visibility: hidden; opacity: 1;"></path>

<path d="M 245.66 29.00 L 246.93 28.31 C 247.46 39.00 246.70 49.72 247.39 60.40 L 247.44 61.41 L 246.79 61.81 L 245.87 61.20 C 245.46 50.48 245.88 39.73 245.66 29.00 Z" fill="#34131c" opacity="1.00" stroke="#34131c" stroke-width="0.25" data-index="5" style="visibility: hidden; opacity: 1;"></path>

<path d="M 304.28 34.48 C 307.04 34.54 309.40 36.26 311.61 37.75 C 306.34 48.57 301.69 59.69 297.09 70.80 C 294.49 70.51 292.22 69.16 289.91 68.06 C 291.49 62.68 294.14 57.70 296.32 52.55 C 298.85 46.48 301.51 40.46 304.28 34.48 Z" fill="#112945" opacity="1.00" stroke="#112945" stroke-width="0.25" data-index="7" style="visibility: hidden; opacity: 1;"></path>

<path d="M 304.76 37.33 C 306.09 37.39 307.42 37.45 308.77 37.51 C 307.83 42.95 304.60 47.61 302.73 52.75 C 300.05 57.99 298.46 63.75 295.47 68.82 C 294.65 68.41 293.01 67.59 292.19 67.18 C 295.64 56.95 301.05 47.47 304.76 37.33 Z" fill="#ea4825" opacity="1.00" stroke="#ea4825" stroke-width="0.25" data-index="9" style="visibility: hidden; opacity: 1;"></path>
<path d="M 190.89 39.21 C 191.18 36.98 194.89 38.57 193.44 40.31 C 192.57 39.99 191.72 39.62 190.89 39.21 Z" fill="#ffc7ae" opacity="1.00" stroke="#ffc7ae" stroke-width="0.25" data-index="10"></path>
<path d="M 195.13 37.85 C 197.34 40.98 199.15 44.47 199.77 48.29 C 198.12 44.85 196.50 41.41 195.13 37.85 Z" fill="#91e9ff" opacity="1.00" stroke="#91e9ff" stroke-width="0.25" data-index="11"></path>

<path d="M 326.21 88.18 C 333.89 78.63 340.93 68.58 348.85 59.22 C 350.40 60.45 351.96 61.69 353.55 62.89 C 353.65 63.36 353.86 64.29 353.96 64.76 C 346.84 74.55 339.06 83.85 332.07 93.72 C 329.81 93.27 328.31 91.37 326.50 90.11 C 326.43 89.63 326.28 88.66 326.21 88.18 Z" fill="#281d2c" opacity="1.00" stroke="#281d2c" stroke-width="0.25" data-index="13" style="visibility: hidden; opacity: 1;"></path>
<path d="M 348.25 63.66 C 348.43 63.14 348.78 62.10 348.96 61.58 C 349.22 61.79 349.75 62.20 350.02 62.40 C 349.58 62.72 348.69 63.34 348.25 63.66 Z" fill="#91e9ff" opacity="1.00" stroke="#91e9ff" stroke-width="0.25" data-index="14"></path>

<path d="M 142.87 68.31 C 144.52 66.57 146.25 64.91 148.09 63.37 C 156.55 71.38 164.10 80.34 171.88 89.01 C 171.47 91.67 168.51 92.85 166.95 94.79 C 160.92 88.25 154.85 81.76 148.94 75.12 C 146.90 72.86 144.44 70.96 142.87 68.31 Z" fill="#112945" opacity="1.00" stroke="#112945" stroke-width="0.25" data-index="16" style="visibility: hidden; opacity: 1;"></path>

<path d="M 205.36 66.11 C 207.24 67.68 202.52 69.95 201.57 68.09 L 201.78 67.53 C 202.91 66.91 204.10 66.43 205.36 66.11 Z" fill="#fcc6ab" opacity="1.00" stroke="#fcc6ab" stroke-width="0.25" data-index="18"></path>
<path d="M 225.98 91.05 C 238.90 88.19 252.37 86.63 265.54 88.66 C 280.69 90.95 294.69 98.09 306.63 107.51 C 316.05 114.55 324.67 122.66 332.29 131.62 C 342.79 144.30 346.79 160.92 348.22 176.99 C 349.72 197.32 347.33 217.63 346.29 237.92 C 345.30 244.37 345.51 251.43 342.09 257.19 C 338.09 258.27 337.25 252.95 334.75 250.99 C 333.91 254.04 334.21 257.64 332.10 260.19 C 329.21 261.05 328.05 257.08 326.43 255.42 C 324.96 257.72 324.21 260.36 323.54 262.98 C 321.59 261.75 319.32 261.30 317.06 261.12 C 317.27 246.91 317.23 232.68 316.42 218.50 L 317.59 219.31 C 317.56 215.28 317.51 211.25 317.32 207.23 C 317.48 207.46 317.81 207.94 317.98 208.18 C 318.33 213.18 318.00 218.21 318.65 223.20 C 319.56 230.47 318.70 237.80 319.20 245.10 L 320.34 244.72 C 327.73 243.26 333.46 237.59 335.97 230.62 C 339.58 228.77 339.38 224.43 339.30 220.96 C 339.29 215.60 336.57 209.94 331.68 207.45 C 327.59 206.41 322.62 206.36 319.35 209.43 C 318.25 204.44 315.02 200.35 313.30 195.60 C 311.66 191.61 311.07 187.09 308.23 183.68 C 304.81 183.60 301.38 183.46 298.01 182.90 C 283.55 180.09 270.56 171.52 261.30 160.20 C 265.27 169.17 270.31 177.61 275.94 185.63 C 282.28 185.43 288.58 183.86 294.93 184.43 C 297.78 185.11 297.86 188.51 297.43 190.87 C 295.75 192.47 293.34 192.56 291.18 192.93 C 283.13 193.90 275.04 195.11 266.92 194.30 C 266.42 193.11 265.92 191.92 265.41 190.73 C 244.37 190.00 226.01 176.32 214.06 159.78 C 216.59 171.40 222.65 181.81 227.71 192.45 C 229.63 192.52 231.55 192.80 233.30 193.66 C 233.66 194.78 234.02 195.91 234.40 197.03 C 234.00 198.01 233.61 198.98 233.22 199.96 C 223.57 203.80 213.01 206.43 202.58 205.41 C 202.42 203.67 202.20 201.91 202.30 200.16 C 203.67 198.43 206.01 198.02 208.04 197.50 C 212.64 196.56 217.23 195.48 221.90 194.91 C 209.39 191.88 200.77 181.22 195.78 169.94 C 194.09 181.09 190.95 192.03 186.23 202.29 C 185.25 204.12 185.97 206.19 186.34 208.09 C 188.06 215.79 189.84 223.48 191.60 231.17 C 191.62 231.89 191.67 233.31 191.70 234.03 C 190.46 233.52 189.23 232.99 187.99 232.52 C 184.31 231.66 179.83 232.04 177.57 235.47 C 173.84 241.48 175.06 249.29 178.47 255.16 C 178.50 255.64 178.56 256.59 178.59 257.07 C 180.89 260.26 184.54 262.98 188.68 261.73 C 188.77 265.04 189.35 268.32 189.33 271.63 C 188.71 272.28 188.07 272.91 187.40 273.52 C 185.66 271.57 184.56 269.17 183.01 267.08 C 181.57 269.44 180.69 272.06 179.45 274.52 C 179.08 275.68 177.66 275.38 176.76 275.69 C 175.01 272.66 174.03 269.30 173.14 265.95 C 171.01 269.14 169.40 272.80 166.56 275.44 C 164.57 276.59 163.08 274.29 161.92 273.03 C 157.40 266.60 154.77 259.04 152.84 251.48 C 147.66 230.82 147.10 209.19 149.50 188.10 C 152.33 163.89 159.12 139.51 173.45 119.46 C 177.53 113.68 182.97 108.48 189.87 106.36 C 193.49 105.07 197.39 105.57 201.15 105.76 C 206.40 97.07 216.70 93.60 225.98 91.05 Z" fill="#042f52" opacity="1.00" stroke="#042f52" stroke-width="0.25" data-index="19"></path>

<path d="M 112.05 112.03 C 108.25 110.30 112.36 106.21 113.65 104.01 C 123.17 109.44 132.20 115.64 141.56 121.31 C 142.55 122.09 144.02 122.58 144.32 123.97 C 143.60 126.04 142.32 127.84 141.15 129.66 C 138.52 129.04 136.32 127.39 134.05 126.00 C 126.76 121.27 119.41 116.64 112.05 112.03 Z" fill="#5c363c" opacity="1.00" stroke="#5c363c" stroke-width="0.25" data-index="21" style="visibility: hidden; opacity: 1;"></path>
<path d="M 385.00 105.73 C 385.20 103.88 388.41 105.47 387.12 106.79 C 386.59 106.52 385.53 105.99 385.00 105.73 Z" fill="#91e9ff" opacity="1.00" stroke="#91e9ff" stroke-width="0.25" data-index="22"></path>

<path d="M 113.55 108.45 C 112.51 106.62 116.39 106.24 115.81 108.21 C 115.24 108.27 114.12 108.39 113.55 108.45 Z" fill="#a76363" opacity="1.00" stroke="#a76363" stroke-width="0.25" data-index="24"></path>

<path d="M 94.13 166.82 C 94.36 164.30 94.56 161.72 95.70 159.42 C 104.35 160.84 112.93 162.59 121.53 164.22 C 124.25 164.85 126.97 165.46 129.70 165.99 C 129.48 168.23 129.40 170.53 128.63 172.67 C 122.98 172.98 117.52 170.43 111.84 170.17 C 105.93 169.11 100.03 167.98 94.13 166.82 Z" fill="#2b1827" opacity="1.00" stroke="#2b1827" stroke-width="0.25" data-index="26" style="visibility: hidden; opacity: 1;"></path>
<path d="M 214.06 159.78 C 226.01 176.32 244.37 190.00 265.41 190.73 C 265.92 191.92 266.42 193.11 266.92 194.30 C 275.04 195.11 283.13 193.90 291.18 192.93 C 293.34 192.56 295.75 192.47 297.43 190.87 C 297.64 190.63 298.04 190.17 298.24 189.93 C 298.25 187.59 298.12 185.24 298.01 182.90 C 301.38 183.46 304.81 183.60 308.23 183.68 C 309.66 191.97 312.05 200.50 317.32 207.23 C 317.51 211.25 317.56 215.28 317.59 219.31 L 316.42 218.50 C 315.60 216.16 314.84 212.84 311.91 212.42 C 309.58 211.84 308.35 214.21 307.76 216.05 C 305.92 221.83 305.54 227.94 304.80 233.93 C 304.07 225.53 303.52 217.03 301.24 208.87 C 300.42 206.12 299.20 203.13 296.63 201.58 C 294.99 200.99 292.57 201.03 291.77 202.88 C 289.67 206.43 290.53 210.83 290.14 214.76 C 288.26 212.53 285.66 211.81 282.85 212.49 C 278.13 217.94 276.60 225.21 275.44 232.12 C 275.64 228.18 275.86 224.09 274.08 220.43 C 271.89 220.51 269.20 219.61 267.52 221.47 C 265.22 223.42 264.25 226.38 263.27 229.13 C 261.06 235.98 259.60 243.05 258.29 250.12 C 250.95 251.38 243.73 253.22 236.41 254.55 C 234.48 257.56 237.38 260.46 239.69 262.17 C 244.54 265.79 250.83 266.15 256.64 265.66 C 256.12 273.76 255.52 281.86 255.36 289.98 C 250.32 289.64 245.36 288.61 240.46 287.43 C 236.97 279.28 231.90 271.89 228.69 263.62 C 225.33 252.31 225.37 240.21 221.38 229.06 C 220.50 226.77 218.85 223.75 215.93 224.30 C 212.88 224.35 212.64 227.93 211.70 230.11 C 210.93 225.71 209.89 221.29 207.66 217.37 C 205.16 217.49 201.68 216.35 200.24 219.12 C 197.30 223.80 197.77 229.61 197.33 234.90 C 196.04 232.80 194.41 230.66 191.60 231.17 C 189.84 223.48 188.06 215.79 186.34 208.09 C 185.97 206.19 185.25 204.12 186.23 202.29 C 190.95 192.03 194.09 181.09 195.78 169.94 C 200.77 181.22 209.39 191.88 221.90 194.91 C 217.23 195.48 212.64 196.56 208.04 197.50 C 206.01 198.02 203.67 198.43 202.30 200.16 C 202.20 201.91 202.42 203.67 202.58 205.41 C 213.01 206.43 223.57 203.80 233.22 199.96 C 233.61 198.98 234.00 198.01 234.40 197.03 C 234.02 195.91 233.66 194.78 233.30 193.66 C 231.55 192.80 229.63 192.52 227.71 192.45 C 222.65 181.81 216.59 171.40 214.06 159.78 Z" fill="#ffc7ae" opacity="1.00" stroke="#ffc7ae" stroke-width="0.25" data-index="27"></path>
<path d="M 261.30 160.20 C 270.56 171.52 283.55 180.09 298.01 182.90 C 298.12 185.24 298.25 187.59 298.24 189.93 C 298.04 190.17 297.64 190.63 297.43 190.87 C 297.86 188.51 297.78 185.11 294.93 184.43 C 288.58 183.86 282.28 185.43 275.94 185.63 C 270.31 177.61 265.27 169.17 261.30 160.20 Z" fill="#fbc6ab" opacity="1.00" stroke="#fbc6ab" stroke-width="0.25" data-index="28"></path>

<path d="M 399.88 163.86 C 402.12 163.24 404.42 162.62 406.76 162.89 C 407.14 165.23 407.63 167.57 407.73 169.96 C 405.75 171.99 402.46 171.34 399.90 171.82 C 402.40 171.19 404.91 170.58 407.43 169.99 C 406.81 169.02 408.00 165.89 406.21 166.29 C 405.79 167.17 405.38 168.06 404.97 168.95 L 404.54 169.12 C 404.52 168.24 404.47 166.49 404.45 165.61 C 402.90 165.64 401.37 165.69 399.83 165.78 C 401.88 165.49 403.93 165.23 405.93 164.69 L 406.76 164.20 C 404.60 163.09 402.16 163.64 399.88 163.86 Z" fill="#91848c" opacity="1.00" stroke="#91848c" stroke-width="0.25" data-index="30" style="visibility: hidden; opacity: 1;"></path>
<path d="M 121.53 164.22 C 124.38 164.63 127.78 164.29 130.20 165.94 C 130.61 168.36 130.27 171.62 128.66 173.57 C 122.99 172.91 117.29 171.92 111.84 170.17 C 117.52 170.43 122.98 172.98 128.63 172.67 C 129.40 170.53 129.48 168.23 129.70 165.99 C 126.97 165.46 124.25 164.85 121.53 164.22 Z" fill="#93a2af" opacity="1.00" stroke="#93a2af" stroke-width="0.25" data-index="31"></path>

<path d="M 373.09 170.50 C 382.08 169.35 390.87 167.07 399.83 165.78 C 401.37 165.69 402.90 165.64 404.45 165.61 C 404.47 166.49 404.52 168.24 404.54 169.12 C 394.24 171.19 383.87 172.95 373.53 174.78 C 373.38 173.35 373.23 171.93 373.09 170.50 Z" fill="#e5492a" opacity="1.00" stroke="#e5492a" stroke-width="0.25" data-index="33" style="visibility: hidden; opacity: 1;"></path>

<path d="M 308.23 183.68 C 311.07 187.09 311.66 191.61 313.30 195.60 C 315.02 200.35 318.25 204.44 319.35 209.43 C 322.62 206.36 327.59 206.41 331.68 207.45 C 336.57 209.94 339.29 215.60 339.30 220.96 C 339.38 224.43 339.58 228.77 335.97 230.62 C 337.52 223.92 338.82 215.18 332.75 210.28 C 329.40 207.07 324.49 208.38 320.64 209.77 C 320.95 221.42 321.65 233.10 320.34 244.72 L 319.20 245.10 C 318.70 237.80 319.56 230.47 318.65 223.20 C 318.00 218.21 318.33 213.18 317.98 208.18 C 317.81 207.94 317.48 207.46 317.32 207.23 C 312.05 200.50 309.66 191.97 308.23 183.68 Z" fill="#112945" opacity="1.00" stroke="#112945" stroke-width="0.25" data-index="35"></path>
<path d="M 270.46 213.48 C 266.04 209.65 268.12 201.33 273.98 200.31 C 278.78 199.03 283.37 203.28 283.43 207.99 C 283.52 210.20 282.08 212.03 281.19 213.95 C 277.98 216.04 273.28 216.45 270.46 213.48 Z" fill="#042e53" opacity="1.00" stroke="#042e53" stroke-width="0.25" data-index="36"></path>
<path d="M 291.77 202.88 C 292.57 201.03 294.99 200.99 296.63 201.58 C 299.20 203.13 300.42 206.12 301.24 208.87 C 303.52 217.03 304.07 225.53 304.80 233.93 C 305.54 227.94 305.92 221.83 307.76 216.05 C 308.35 214.21 309.58 211.84 311.91 212.42 C 314.84 212.84 315.60 216.16 316.42 218.50 C 317.23 232.68 317.27 246.91 317.06 261.12 C 319.32 261.30 321.59 261.75 323.54 262.98 C 328.23 268.23 328.95 276.25 327.47 282.96 C 326.59 283.63 325.72 284.31 324.85 284.98 C 324.76 284.22 324.58 282.70 324.49 281.94 C 325.74 274.83 323.77 267.50 319.17 261.95 C 318.02 272.56 318.71 283.53 315.93 293.89 C 315.29 294.08 314.01 294.46 313.37 294.65 C 314.51 275.78 316.53 256.85 315.42 237.92 C 314.82 230.42 314.48 222.73 311.80 215.61 C 311.02 216.94 310.44 218.38 310.17 219.90 C 308.41 228.50 308.02 237.28 306.77 245.95 C 305.96 252.08 304.72 258.14 303.99 264.29 C 303.20 264.28 301.61 264.28 300.81 264.27 C 300.70 260.85 300.65 257.42 300.94 254.00 C 302.15 240.31 301.39 226.45 298.82 212.96 C 298.33 209.58 296.87 206.46 294.81 203.76 C 293.18 207.28 293.68 211.22 293.49 214.97 C 293.46 220.49 292.53 225.95 292.28 231.46 C 290.87 239.85 290.03 248.33 288.93 256.76 C 288.48 260.01 287.95 263.24 287.43 266.48 C 286.46 266.42 285.49 266.37 284.53 266.31 C 285.74 253.22 287.07 240.14 288.01 227.02 C 288.34 223.36 287.92 219.70 287.48 216.08 C 286.31 215.71 284.97 214.84 284.00 216.09 C 282.22 218.28 281.65 221.16 280.83 223.79 C 277.54 236.69 274.97 249.77 273.26 262.98 C 272.61 265.09 273.23 269.48 269.73 268.26 C 269.27 253.14 273.11 238.16 272.11 223.02 C 268.40 223.93 267.22 227.87 266.04 231.02 C 259.37 253.38 259.10 276.92 258.51 300.05 C 257.77 316.56 264.86 331.87 270.61 346.93 C 273.63 345.80 276.65 344.66 279.66 343.52 C 280.05 344.25 280.83 345.71 281.22 346.44 C 278.30 347.56 275.41 348.74 272.49 349.82 C 270.50 348.40 268.47 347.01 266.42 345.69 C 265.58 342.78 264.40 339.99 263.37 337.15 C 261.78 337.20 260.20 337.24 258.61 337.30 C 257.24 346.99 255.26 356.59 253.47 366.21 C 251.22 367.05 248.97 367.88 246.72 368.72 C 240.57 366.66 234.27 365.07 228.12 362.99 C 225.34 358.97 219.68 360.56 216.03 357.91 C 215.10 357.21 214.20 356.48 213.33 355.71 C 214.05 352.13 214.98 348.56 215.19 344.91 C 214.08 340.42 211.68 336.40 210.11 332.07 C 205.74 320.64 200.65 309.50 196.11 298.14 C 190.83 298.95 185.75 300.66 180.57 301.93 C 179.86 301.31 178.43 300.07 177.72 299.44 C 183.22 297.48 188.93 296.08 194.67 295.03 C 193.32 290.33 191.27 285.85 190.13 281.09 C 189.37 278.51 189.36 275.55 187.40 273.52 C 188.07 272.91 188.71 272.28 189.33 271.63 C 189.35 268.32 188.77 265.04 188.68 261.73 C 184.54 262.98 180.89 260.26 178.59 257.07 C 178.56 256.59 178.50 255.64 178.47 255.16 C 180.83 257.60 183.61 259.59 186.59 261.20 C 186.52 251.63 186.04 241.96 187.99 232.52 C 189.23 232.99 190.46 233.52 191.70 234.03 C 191.67 233.31 191.62 231.89 191.60 231.17 C 194.41 230.66 196.04 232.80 197.33 234.90 C 197.77 229.61 197.30 223.80 200.24 219.12 C 201.68 216.35 205.16 217.49 207.66 217.37 C 209.89 221.29 210.93 225.71 211.70 230.11 C 212.64 227.93 212.88 224.35 215.93 224.30 C 218.85 223.75 220.50 226.77 221.38 229.06 C 225.37 240.21 225.33 252.31 228.69 263.62 C 231.90 271.89 236.97 279.28 240.46 287.43 C 245.36 288.61 250.32 289.64 255.36 289.98 C 255.52 281.86 256.12 273.76 256.64 265.66 C 250.83 266.15 244.54 265.79 239.69 262.17 C 237.38 260.46 234.48 257.56 236.41 254.55 C 243.73 253.22 250.95 251.38 258.29 250.12 C 259.60 243.05 261.06 235.98 263.27 229.13 C 264.25 226.38 265.22 223.42 267.52 221.47 C 269.20 219.61 271.89 220.51 274.08 220.43 C 275.86 224.09 275.64 228.18 275.44 232.12 C 276.60 225.21 278.13 217.94 282.85 212.49 C 285.66 211.81 288.26 212.53 290.14 214.76 C 290.53 210.83 289.67 206.43 291.77 202.88 Z" fill="#0b2a45" opacity="1.00" stroke="#0b2a45" stroke-width="0.25" data-index="37"></path>
<path d="M 293.49 214.97 C 293.68 211.22 293.18 207.28 294.81 203.76 C 296.87 206.46 298.33 209.58 298.82 212.96 C 301.39 226.45 302.15 240.31 300.94 254.00 C 300.65 257.42 300.70 260.85 300.81 264.27 C 301.61 264.28 303.20 264.28 303.99 264.29 C 304.72 258.14 305.96 252.08 306.77 245.95 C 308.02 237.28 308.41 228.50 310.17 219.90 C 310.44 218.38 311.02 216.94 311.80 215.61 C 314.48 222.73 314.82 230.42 315.42 237.92 C 316.53 256.85 314.51 275.78 313.37 294.65 C 314.01 294.46 315.29 294.08 315.93 293.89 C 318.71 283.53 318.02 272.56 319.17 261.95 C 323.77 267.50 325.74 274.83 324.49 281.94 C 323.11 287.62 321.47 293.24 320.64 299.04 C 319.91 303.65 319.37 308.59 316.38 312.39 C 314.52 315.18 311.51 317.42 310.89 320.89 C 310.47 324.71 310.71 328.57 310.65 332.42 C 300.14 335.61 289.92 339.63 279.66 343.52 C 276.65 344.66 273.63 345.80 270.61 346.93 C 264.86 331.87 257.77 316.56 258.51 300.05 C 259.10 276.92 259.37 253.38 266.04 231.02 C 267.22 227.87 268.40 223.93 272.11 223.02 C 273.11 238.16 269.27 253.14 269.73 268.26 C 273.23 269.48 272.61 265.09 273.26 262.98 C 274.97 249.77 277.54 236.69 280.83 223.79 C 281.65 221.16 282.22 218.28 284.00 216.09 C 284.97 214.84 286.31 215.71 287.48 216.08 C 287.92 219.70 288.34 223.36 288.01 227.02 C 287.07 240.14 285.74 253.22 284.53 266.31 C 285.49 266.37 286.46 266.42 287.43 266.48 C 287.95 263.24 288.48 260.01 288.93 256.76 C 289.03 258.83 289.24 260.90 289.46 262.96 C 290.91 257.40 290.30 251.56 291.66 245.98 C 292.84 241.22 292.89 236.30 292.28 231.46 C 292.53 225.95 293.46 220.49 293.49 214.97 Z" fill="#ffc7ae" opacity="1.00" stroke="#ffc7ae" stroke-width="0.25" data-index="38"></path>
<path d="M 222.32 208.52 C 227.65 206.29 233.87 211.22 232.83 216.92 C 232.46 223.00 223.87 225.62 219.97 221.11 C 215.77 217.65 217.28 210.32 222.32 208.52 Z" fill="#052d51" opacity="1.00" stroke="#052d51" stroke-width="0.25" data-index="39"></path>
<path d="M 320.64 209.77 C 324.49 208.38 329.40 207.07 332.75 210.28 C 338.82 215.18 337.52 223.92 335.97 230.62 C 333.46 237.59 327.73 243.26 320.34 244.72 C 321.65 233.10 320.95 221.42 320.64 209.77 Z" fill="#fec7ad" opacity="1.00" stroke="#fec7ad" stroke-width="0.25" data-index="40"></path>

<path d="M 244.83 215.68 C 246.14 215.57 248.21 214.55 248.00 216.78 C 247.56 222.60 245.94 228.25 245.29 234.05 C 248.35 233.61 251.76 231.00 254.68 232.83 C 253.38 236.13 249.02 236.67 245.96 237.45 C 243.31 238.30 241.27 235.39 241.88 233.00 C 242.72 227.20 244.33 221.53 244.83 215.68 Z" fill="#0e2944" opacity="1.00" stroke="#0e2944" stroke-width="0.25" data-index="42"></path>

<path d="M 201.18 227.95 C 201.49 225.04 201.67 220.35 205.52 220.11 C 206.12 221.69 206.76 223.28 207.15 224.93 C 207.25 225.78 207.43 227.47 207.52 228.31 C 206.92 228.41 206.32 228.49 205.71 228.56 C 205.76 226.31 205.68 223.99 204.14 222.19 C 203.05 224.67 202.56 227.36 202.43 230.06 C 201.00 242.64 201.43 255.37 202.58 267.95 C 202.77 271.36 203.00 274.90 201.76 278.16 C 200.60 261.47 199.79 244.65 201.18 227.95 Z" fill="#dcd1ce" opacity="1.00" stroke="#dcd1ce" stroke-width="0.25" data-index="44"></path>
<path d="M 204.14 222.19 C 205.68 223.99 205.76 226.31 205.71 228.56 C 206.32 228.49 206.92 228.41 207.52 228.31 C 207.43 227.47 207.25 225.78 207.15 224.93 C 210.75 240.87 209.87 257.66 214.87 273.29 C 215.54 273.37 216.86 273.54 217.53 273.62 C 214.64 258.89 213.06 243.65 215.75 228.78 C 216.05 228.48 216.67 227.88 216.98 227.58 C 221.95 238.39 221.88 250.55 224.73 261.94 C 225.88 267.46 229.14 272.16 231.56 277.16 C 236.18 286.69 241.52 295.85 247.05 304.88 C 250.55 310.89 254.24 317.07 255.23 324.08 C 255.79 328.85 255.88 333.72 255.16 338.48 C 253.59 347.61 251.82 356.71 250.15 365.83 C 238.85 363.08 227.85 359.15 216.54 356.41 C 217.38 352.32 218.46 348.16 218.30 343.97 C 211.01 323.43 201.19 303.85 194.08 283.23 C 190.82 274.18 190.61 264.45 189.75 254.98 C 189.39 248.44 190.39 241.93 190.69 235.41 C 194.28 233.99 194.62 238.74 195.34 241.08 C 198.36 252.96 196.51 265.35 198.60 277.35 C 199.39 277.55 200.97 277.96 201.76 278.16 C 203.00 274.90 202.77 271.36 202.58 267.95 C 201.43 255.37 201.00 242.64 202.43 230.06 C 202.56 227.36 203.05 224.67 204.14 222.19 Z" fill="#ffc7ae" opacity="1.00" stroke="#ffc7ae" stroke-width="0.25" data-index="45"></path>
<path d="M 96.42 226.59 C 98.19 224.77 100.68 224.28 103.09 223.91 C 101.13 224.83 98.73 225.19 97.24 226.85 C 97.45 229.41 98.53 231.81 100.42 233.57 C 99.87 233.55 99.31 233.55 98.76 233.54 C 98.03 231.20 97.26 228.88 96.42 226.59 Z" fill="#91e9ff" opacity="1.00" stroke="#91e9ff" stroke-width="0.25" data-index="46"></path>
<path d="M 177.57 235.47 C 179.83 232.04 184.31 231.66 187.99 232.52 C 186.04 241.96 186.52 251.63 186.59 261.20 C 183.61 259.59 180.83 257.60 178.47 255.16 C 175.06 249.29 173.84 241.48 177.57 235.47 Z" fill="#fcc6ab" opacity="1.00" stroke="#fcc6ab" stroke-width="0.25" data-index="47"></path>
<path d="M 292.28 231.46 C 292.89 236.30 292.84 241.22 291.66 245.98 C 290.30 251.56 290.91 257.40 289.46 262.96 C 289.24 260.90 289.03 258.83 288.93 256.76 C 290.03 248.33 290.87 239.85 292.28 231.46 Z" fill="#dcd1ce" opacity="1.00" stroke="#dcd1ce" stroke-width="0.25" data-index="48"></path>
<path d="M 239.67 256.82 C 245.73 255.63 251.72 254.09 257.80 253.03 C 257.69 254.40 257.58 255.77 257.47 257.14 C 252.44 258.51 247.30 259.76 242.06 259.60 C 241.15 259.26 240.27 258.86 239.42 258.42 C 239.48 258.02 239.61 257.22 239.67 256.82 Z" fill="#f8ffff" opacity="1.00" stroke="#f8ffff" stroke-width="0.25" data-index="49"></path>
<path d="M 249.09 261.51 C 251.44 260.17 254.26 259.96 256.89 259.51 C 257.67 260.58 257.58 261.58 256.61 262.52 C 254.18 263.71 251.36 263.42 248.83 262.81 C 248.89 262.48 249.02 261.84 249.09 261.51 Z" fill="#cd644f" opacity="1.00" stroke="#cd644f" stroke-width="0.25" data-index="50"></path>
<path d="M 245.22 261.85 C 245.73 260.39 248.13 260.62 249.09 261.51 C 249.02 261.84 248.89 262.48 248.83 262.81 C 247.76 263.72 245.73 263.10 245.22 261.85 Z" fill="#6a5566" opacity="1.00" stroke="#6a5566" stroke-width="0.25" data-index="51"></path>
<path d="M 320.64 299.04 C 321.47 293.24 323.11 287.62 324.49 281.94 C 324.58 282.70 324.76 284.22 324.85 284.98 C 325.72 284.31 326.59 283.63 327.47 282.96 C 327.46 283.52 327.46 284.64 327.46 285.20 C 329.64 285.30 331.82 285.53 333.97 285.97 C 349.80 288.89 365.96 290.97 381.07 296.80 C 392.69 301.26 402.80 309.62 409.11 320.37 C 419.94 338.04 425.19 358.35 429.99 378.31 C 434.32 398.07 438.35 417.93 440.99 437.99 C 443.16 453.41 445.69 468.92 445.39 484.54 C 444.09 484.18 442.82 483.86 441.53 483.53 C 441.67 483.11 441.95 482.26 442.09 481.84 C 441.42 461.56 438.26 441.46 434.91 421.48 C 431.87 402.18 427.67 383.08 422.92 364.14 C 419.64 352.80 416.30 341.39 410.97 330.82 C 407.15 322.85 402.27 315.17 395.46 309.43 C 387.94 302.60 378.17 298.93 368.51 296.29 C 354.59 292.85 340.42 290.53 326.31 288.08 C 323.77 296.95 324.29 306.94 318.81 314.78 C 317.22 317.35 314.15 319.17 313.88 322.40 C 313.60 325.29 313.95 328.19 314.26 331.06 C 317.88 330.01 321.52 329.04 325.22 328.30 C 329.09 331.71 331.82 336.14 334.81 340.29 C 341.92 350.98 348.35 362.09 355.11 373.00 C 358.20 377.84 360.88 382.95 364.51 387.42 C 366.23 374.01 367.86 360.58 369.31 347.13 C 369.95 347.15 371.23 347.19 371.88 347.22 C 372.05 365.86 373.74 384.44 374.75 403.05 C 374.81 404.15 375.20 405.14 375.90 406.02 C 384.96 418.89 394.71 431.25 404.01 443.94 C 405.43 445.26 405.24 449.22 402.73 447.39 C 386.84 427.32 371.36 406.77 358.41 384.63 C 347.33 367.92 338.17 349.95 326.06 333.93 C 325.18 333.19 324.33 331.51 322.94 332.25 C 308.73 336.01 295.01 341.39 281.22 346.44 C 280.83 345.71 280.05 344.25 279.66 343.52 C 289.92 339.63 300.14 335.61 310.65 332.42 C 310.71 328.57 310.47 324.71 310.89 320.89 C 311.51 317.42 314.52 315.18 316.38 312.39 C 319.37 308.59 319.91 303.65 320.64 299.04 Z" fill="#022e4e" opacity="1.00" stroke="#022e4e" stroke-width="0.25" data-index="52" style="opacity: 1;"></path>
<path d="M 326.31 288.08 C 340.42 290.53 354.59 292.85 368.51 296.29 C 378.17 298.93 387.94 302.60 395.46 309.43 C 402.27 315.17 407.15 322.85 410.97 330.82 C 416.30 341.39 419.64 352.80 422.92 364.14 C 427.67 383.08 431.87 402.18 434.91 421.48 C 438.26 441.46 441.42 461.56 442.09 481.84 C 396.00 481.89 349.90 481.88 303.81 481.85 C 291.08 450.08 280.21 417.56 271.26 384.53 C 268.37 374.30 266.35 363.85 263.58 353.60 C 266.44 352.10 269.45 350.91 272.49 349.82 C 275.41 348.74 278.30 347.56 281.22 346.44 C 295.01 341.39 308.73 336.01 322.94 332.25 C 324.33 331.51 325.18 333.19 326.06 333.93 C 338.17 349.95 347.33 367.92 358.41 384.63 C 371.36 406.77 386.84 427.32 402.73 447.39 C 405.24 449.22 405.43 445.26 404.01 443.94 C 394.71 431.25 384.96 418.89 375.90 406.02 C 375.20 405.14 374.81 404.15 374.75 403.05 C 373.74 384.44 372.05 365.86 371.88 347.22 C 371.23 347.19 369.95 347.15 369.31 347.13 C 367.86 360.58 366.23 374.01 364.51 387.42 C 360.88 382.95 358.20 377.84 355.11 373.00 C 348.35 362.09 341.92 350.98 334.81 340.29 C 331.82 336.14 329.09 331.71 325.22 328.30 C 321.52 329.04 317.88 330.01 314.26 331.06 C 313.95 328.19 313.60 325.29 313.88 322.40 C 314.15 319.17 317.22 317.35 318.81 314.78 C 324.29 306.94 323.77 296.95 326.31 288.08 Z" fill="#91e9ff" opacity="1.00" stroke="#91e9ff" stroke-width="0.25" data-index="53" style="opacity: 1;"></path>
<path d="M 243.16 291.41 C 247.13 292.49 251.19 293.20 255.29 293.61 C 255.10 300.23 255.08 306.86 255.61 313.47 C 251.84 305.90 246.84 299.00 243.16 291.41 Z" fill="#fbc8af" opacity="1.00" stroke="#fbc8af" stroke-width="0.25" data-index="54"></path>
<path d="M 180.57 301.93 C 185.75 300.66 190.83 298.95 196.11 298.14 C 200.65 309.50 205.74 320.64 210.11 332.07 C 211.68 336.40 214.08 340.42 215.19 344.91 C 214.98 348.56 214.05 352.13 213.33 355.71 C 211.58 355.42 209.82 355.19 208.06 354.98 C 196.96 372.28 188.23 390.99 179.58 409.61 C 175.96 418.13 171.83 426.43 168.52 435.08 C 168.17 418.80 169.44 402.55 169.53 386.28 C 167.78 386.37 166.57 387.35 166.45 389.06 C 161.25 414.51 157.01 440.14 152.93 465.78 C 152.46 468.52 152.24 471.30 152.15 474.08 C 153.27 473.60 155.03 473.97 155.64 472.68 C 158.12 468.48 159.66 463.82 161.65 459.38 C 176.60 425.21 190.59 390.48 209.64 358.31 C 215.85 359.66 221.94 361.52 228.12 362.99 C 234.27 365.07 240.57 366.66 246.72 368.72 C 250.28 369.89 253.84 371.08 257.45 372.06 C 256.52 381.85 254.59 391.50 252.75 401.15 C 247.51 428.28 240.76 455.09 234.27 481.94 C 179.36 481.80 124.45 481.89 69.54 481.88 C 75.08 440.76 85.31 400.38 98.13 360.96 C 102.58 349.15 106.36 336.57 114.93 326.96 C 122.35 318.49 132.65 312.76 143.61 310.33 C 155.92 307.48 168.34 305.14 180.57 301.93 Z" fill="#91e9ff" opacity="1.00" stroke="#91e9ff" stroke-width="0.25" data-index="55" style="opacity: 1;"></path>
<path d="M 140.13 307.68 C 152.44 304.42 165.14 302.78 177.35 299.13 L 177.72 299.44 C 178.43 300.07 179.86 301.31 180.57 301.93 C 168.34 305.14 155.92 307.48 143.61 310.33 C 132.65 312.76 122.35 318.49 114.93 326.96 C 106.36 336.57 102.58 349.15 98.13 360.96 C 85.31 400.38 75.08 440.76 69.54 481.88 C 124.45 481.89 179.36 481.80 234.27 481.94 C 235.21 481.98 237.10 482.05 238.04 482.09 C 258.73 481.50 279.44 482.20 300.13 481.75 C 300.56 482.39 301.00 483.05 301.45 483.70 C 302.04 483.24 303.22 482.31 303.81 481.85 C 349.90 481.88 396.00 481.89 442.09 481.84 C 441.95 482.26 441.67 483.11 441.53 483.53 C 442.82 483.86 444.09 484.18 445.39 484.54 C 429.96 485.21 414.48 484.64 399.03 484.83 C 289.37 484.81 179.71 484.82 70.05 484.83 C 68.86 484.79 67.67 484.71 66.48 484.60 C 66.27 475.64 68.29 466.84 69.77 458.05 C 71.83 447.72 73.60 437.32 76.11 427.08 C 81.77 401.81 89.03 376.89 97.57 352.45 C 101.47 342.39 105.60 332.04 113.04 324.01 C 120.23 316.07 129.89 310.64 140.13 307.68 Z" fill="#002a43" opacity="1.00" stroke="#002a43" stroke-width="0.25" data-index="56" style="opacity: 1;"></path>
<path d="M 258.68 333.68 C 258.86 330.13 258.74 326.57 258.55 323.02 C 259.34 326.68 260.66 330.19 261.92 333.71 C 260.84 333.70 259.76 333.69 258.68 333.68 Z" fill="#dcd1ce" opacity="1.00" stroke="#dcd1ce" stroke-width="0.25" data-index="57"></path>
<path d="M 258.61 337.30 C 260.20 337.24 261.78 337.20 263.37 337.15 C 264.40 339.99 265.58 342.78 266.42 345.69 C 266.55 346.34 266.82 347.64 266.95 348.28 C 264.62 349.24 262.38 350.39 260.24 351.73 C 263.58 371.51 269.27 390.79 274.87 410.02 C 280.95 429.64 287.45 449.13 294.82 468.30 C 296.54 472.80 297.89 477.46 300.13 481.75 C 279.44 482.20 258.73 481.50 238.04 482.09 C 239.95 471.94 242.80 462.01 245.16 451.96 C 251.09 426.80 256.96 401.57 260.57 375.95 C 260.69 373.97 261.02 371.85 260.19 369.99 C 258.06 368.74 255.64 368.11 253.36 367.24 C 253.39 366.98 253.45 366.47 253.47 366.21 C 255.26 356.59 257.24 346.99 258.61 337.30 Z" fill="#91e9ff" opacity="1.00" stroke="#91e9ff" stroke-width="0.25" data-index="58" style="opacity: 1;"></path>
<path d="M 266.42 345.69 C 268.47 347.01 270.50 348.40 272.49 349.82 C 269.45 350.91 266.44 352.10 263.58 353.60 C 266.35 363.85 268.37 374.30 271.26 384.53 C 280.21 417.56 291.08 450.08 303.81 481.85 C 303.22 482.31 302.04 483.24 301.45 483.70 C 301.00 483.05 300.56 482.39 300.13 481.75 C 297.89 477.46 296.54 472.80 294.82 468.30 C 287.45 449.13 280.95 429.64 274.87 410.02 C 269.27 390.79 263.58 371.51 260.24 351.73 C 262.38 350.39 264.62 349.24 266.95 348.28 C 266.82 347.64 266.55 346.34 266.42 345.69 Z" fill="#002f50" opacity="1.00" stroke="#002f50" stroke-width="0.25" data-index="59" style="opacity: 1;"></path>
<path d="M 208.06 354.98 C 209.82 355.19 211.58 355.42 213.33 355.71 C 214.20 356.48 215.10 357.21 216.03 357.91 C 219.68 360.56 225.34 358.97 228.12 362.99 C 221.94 361.52 215.85 359.66 209.64 358.31 C 190.59 390.48 176.60 425.21 161.65 459.38 C 159.66 463.82 158.12 468.48 155.64 472.68 C 155.03 473.97 153.27 473.60 152.15 474.08 C 152.24 471.30 152.46 468.52 152.93 465.78 C 157.01 440.14 161.25 414.51 166.45 389.06 C 166.57 387.35 167.78 386.37 169.53 386.28 C 169.44 402.55 168.17 418.80 168.52 435.08 C 171.83 426.43 175.96 418.13 179.58 409.61 C 188.23 390.99 196.96 372.28 208.06 354.98 Z" fill="#032f52" opacity="1.00" stroke="#032f52" stroke-width="0.25" data-index="60"></path>
<path d="M 246.72 368.72 C 248.97 367.88 251.22 367.05 253.47 366.21 C 253.45 366.47 253.39 366.98 253.36 367.24 C 255.64 368.11 258.06 368.74 260.19 369.99 C 261.02 371.85 260.69 373.97 260.57 375.95 C 256.96 401.57 251.09 426.80 245.16 451.96 C 242.80 462.01 239.95 471.94 238.04 482.09 C 237.10 482.05 235.21 481.98 234.27 481.94 C 240.76 455.09 247.51 428.28 252.75 401.15 C 254.59 391.50 256.52 381.85 257.45 372.06 C 253.84 371.08 250.28 369.89 246.72 368.72 Z" fill="#002f4f" opacity="1.00" stroke="#002f4f" stroke-width="0.25" data-index="61"></path>
</svg>