<?xml version="1.0" encoding="utf-8"?>
<svg xmlns="http://www.w3.org/2000/svg" height="512pt" version="1.1" viewBox="0 0 512 512" width="512pt">
<path d="M 0.00 0.00 L 512.00 0.00 L 512.00 512.00 L 0.00 512.00 L 0.00 0.00 Z" fill="transparent" opacity="1.00" stroke="transparent" stroke-width="0.25"/>
<path d="M 291.31 137.25 C 304.23 127.93 320.22 123.77 335.98 123.10 C 355.74 122.21 376.59 126.15 392.62 138.36 C 408.42 150.30 418.74 168.31 423.90 187.22 C 430.14 209.24 430.76 232.30 431.14 255.03 C 430.77 279.99 429.44 305.42 421.22 329.21 C 414.51 348.03 402.45 365.88 384.43 375.39 C 366.42 385.24 345.02 386.82 324.99 384.10 C 303.86 381.38 284.00 369.36 272.29 351.49 C 275.04 352.65 277.10 354.81 278.87 357.14 C 285.26 365.24 293.95 371.20 303.06 375.86 C 321.61 384.15 342.83 385.69 362.63 381.63 C 381.70 377.73 399.23 366.05 409.40 349.36 C 420.33 332.93 424.95 313.31 427.29 293.97 C 429.33 280.39 429.26 266.63 429.39 252.94 C 429.49 236.58 428.67 220.17 425.99 204.02 C 422.72 185.86 416.94 167.45 404.95 153.06 C 396.33 141.22 383.34 133.17 369.62 128.50 C 352.67 123.65 334.49 123.42 317.32 127.33 C 297.01 132.18 279.26 146.13 269.54 164.59 C 262.26 177.30 258.59 191.67 255.97 205.97 C 254.06 219.90 252.67 233.96 253.12 248.04 C 252.80 272.70 253.66 297.75 260.49 321.61 C 262.60 329.23 265.40 336.73 269.50 343.53 C 270.86 345.70 271.81 348.13 271.87 350.73 C 262.46 337.58 258.00 321.58 255.17 305.85 C 253.09 293.34 251.74 280.68 251.66 267.99 C 250.93 240.22 251.21 211.90 259.05 185.02 C 264.84 166.47 275.00 148.44 291.31 137.25 Z" fill="#74b2d8" opacity="1.00" stroke="#74b2d8" stroke-width="0.25"/>
<path d="M 317.32 127.33 C 334.49 123.42 352.67 123.65 369.62 128.50 C 383.34 133.17 396.33 141.22 404.95 153.06 C 416.94 167.45 422.72 185.86 425.99 204.02 C 428.67 220.17 429.49 236.58 429.39 252.94 C 429.26 266.63 429.33 280.39 427.29 293.97 C 424.95 313.31 420.33 332.93 409.40 349.36 C 399.23 366.05 381.70 377.73 362.63 381.63 C 342.83 385.69 321.61 384.15 303.06 375.86 C 293.95 371.20 285.26 365.24 278.87 357.14 C 277.10 354.81 275.04 352.65 272.29 351.49 L 271.94 351.29 C 271.92 351.15 271.89 350.87 271.87 350.73 C 271.81 348.13 270.86 345.70 269.50 343.53 C 265.40 336.73 262.60 329.23 260.49 321.61 C 253.66 297.75 252.80 272.70 253.12 248.04 C 252.67 233.96 254.06 219.90 255.97 205.97 C 258.59 191.67 262.26 177.30 269.54 164.59 C 279.26 146.13 297.01 132.18 317.32 127.33 Z" fill="#64c2ff" opacity="1.00" stroke="#64c2ff" stroke-width="0.25"/>
<path d="M 139.95 172.01 C 149.37 157.22 158.51 142.26 168.00 127.52 C 187.22 127.54 206.45 127.38 225.67 127.62 C 205.06 161.05 183.95 194.18 163.56 227.74 C 175.49 228.33 187.78 229.64 198.51 235.29 C 210.88 241.13 221.57 250.64 228.58 262.40 C 237.34 276.56 240.92 293.46 240.47 309.98 C 240.09 331.99 229.93 353.89 212.59 367.61 C 199.68 377.85 183.40 383.32 167.08 384.55 C 144.66 386.72 120.71 383.11 101.96 369.92 C 87.52 359.89 77.64 344.11 73.99 327.00 C 70.12 308.33 71.65 288.22 79.80 270.86 C 82.48 264.50 86.47 258.83 89.79 252.81 C 106.15 225.65 123.28 198.97 139.95 172.01 Z" fill="#73b1d7" opacity="1.00" stroke="#73b1d7" stroke-width="0.25"/>
<path d="M 168.89 129.63 C 170.39 128.75 172.35 129.15 174.04 128.98 C 190.27 129.20 206.50 128.81 222.73 129.18 C 212.69 144.78 203.29 160.77 193.28 176.38 C 185.55 188.34 178.43 200.68 170.67 212.62 C 167.59 218.21 163.69 223.34 161.00 229.15 C 167.28 230.14 173.69 229.81 179.94 230.99 C 189.25 232.47 197.88 236.57 206.00 241.18 C 214.36 247.29 222.11 254.59 227.32 263.64 C 232.86 272.27 235.99 282.24 237.62 292.31 C 241.23 309.97 238.20 328.84 229.61 344.65 C 221.72 359.29 208.43 370.73 193.02 376.88 C 172.90 384.92 150.25 385.44 129.32 380.44 C 109.79 375.52 91.31 363.16 82.27 344.76 C 74.76 330.85 72.84 314.55 74.13 298.97 C 75.05 286.18 79.30 273.73 85.88 262.76 C 104.81 230.97 124.79 199.85 144.32 168.44 C 152.68 155.61 160.33 142.31 168.89 129.63 Z" fill="#64c2ff" opacity="1.00" stroke="#64c2ff" stroke-width="0.25"/>
<path d="M 356.41 137.41 C 359.69 136.44 361.63 140.72 360.30 143.31 C 358.88 146.20 356.09 148.02 353.72 150.07 C 352.42 147.89 350.32 145.86 350.26 143.18 C 351.70 140.73 353.90 138.72 356.41 137.41 Z" fill="#42a2e0" opacity="1.00" stroke="#42a2e0" stroke-width="0.25"/>
<path d="M 173.84 157.79 C 176.66 153.66 178.45 148.47 183.15 146.02 C 186.08 147.63 186.27 151.11 184.89 153.86 C 180.00 164.39 172.46 173.35 165.75 182.73 C 164.74 184.04 163.73 185.44 162.32 186.36 C 159.60 187.45 156.39 184.80 156.75 181.96 C 157.83 179.47 159.69 177.44 161.34 175.32 C 165.89 169.76 169.87 163.77 173.84 157.79 Z" fill="#3ea0df" opacity="1.00" stroke="#3ea0df" stroke-width="0.25"/>
<path d="M 297.30 156.29 C 301.29 153.11 305.74 149.95 310.93 149.31 C 314.07 148.96 315.70 153.35 313.29 155.30 C 310.24 157.84 306.43 159.21 303.05 161.22 C 300.62 160.24 298.85 158.32 297.30 156.29 Z" fill="#40a2df" opacity="1.00" stroke="#40a2df" stroke-width="0.25"/>
<path d="M 290.37 166.29 C 291.58 162.33 294.82 159.47 297.30 156.29 C 298.85 158.32 300.62 160.24 303.05 161.22 L 303.76 161.59 C 299.82 165.09 298.00 170.64 293.14 173.11 C 291.75 171.10 289.58 168.99 290.37 166.29 Z" fill="#52b2ef" opacity="1.00" stroke="#52b2ef" stroke-width="0.25"/>
<path d="M 378.35 158.46 C 381.20 157.54 383.06 160.48 384.99 162.04 C 393.09 169.37 400.16 177.88 405.60 187.38 C 406.43 189.25 408.27 191.68 406.46 193.54 C 404.87 195.21 401.28 195.30 400.19 192.93 C 394.43 183.61 387.87 174.63 379.46 167.51 C 377.98 165.96 375.59 164.45 375.99 161.98 C 376.00 160.45 376.99 159.09 378.35 158.46 Z" fill="#3d9fde" opacity="1.00" stroke="#3d9fde" stroke-width="0.25"/>
<path d="M 337.35 167.40 C 345.40 166.94 354.27 167.90 360.65 173.30 C 365.97 177.37 368.89 183.65 371.40 189.68 C 376.31 203.55 377.05 218.45 377.43 233.04 C 378.53 247.35 378.19 261.73 377.31 276.05 C 376.75 290.34 376.26 304.96 371.57 318.62 C 368.63 327.30 362.17 335.08 353.37 338.21 C 344.98 340.59 335.65 341.13 327.52 337.51 C 321.90 334.85 316.69 330.82 313.76 325.23 C 310.60 318.88 308.00 312.13 307.13 305.05 C 304.49 289.18 304.81 273.05 304.30 257.03 C 304.00 248.70 304.31 240.36 304.79 232.05 C 305.07 218.87 305.90 205.52 309.82 192.85 C 311.82 185.73 315.51 178.97 321.05 174.01 C 325.49 169.97 331.43 167.89 337.35 167.40 Z" fill="#73b3db" opacity="1.00" stroke="#73b3db" stroke-width="0.25"/>
<path d="M 336.23 169.22 C 346.05 167.60 356.96 170.68 363.37 178.55 C 369.62 186.43 371.95 196.56 373.69 206.25 C 377.17 230.66 376.17 255.40 375.72 279.96 C 374.79 293.27 374.26 306.97 369.28 319.53 C 366.49 326.72 361.22 333.25 353.88 336.09 C 345.47 339.30 335.71 339.29 327.46 335.57 C 319.66 331.90 314.33 324.35 311.69 316.32 C 307.93 304.99 307.26 292.97 306.49 281.14 C 305.68 260.46 305.41 239.72 307.02 219.07 C 307.81 207.09 309.77 194.87 315.23 184.06 C 319.21 176.00 327.30 170.26 336.23 169.22 Z" fill="#ffffff" opacity="1.00" stroke="#ffffff" stroke-width="0.25"/>
<path d="M 280.20 203.12 C 281.81 199.38 283.15 195.06 287.04 193.05 C 288.42 194.33 290.94 195.44 290.52 197.74 C 289.69 201.20 287.92 204.35 286.73 207.69 C 281.53 221.09 279.93 235.47 278.52 249.65 C 276.78 249.97 274.74 251.29 273.14 249.92 C 271.38 248.51 271.84 245.93 271.72 243.95 C 272.37 230.01 274.86 216.05 280.20 203.12 Z" fill="#3ea0df" opacity="1.00" stroke="#3ea0df" stroke-width="0.25"/>
<path d="M 146.56 204.46 C 148.30 204.39 150.05 204.32 151.79 204.26 C 152.77 207.55 153.36 211.39 151.61 214.52 C 149.81 216.29 147.30 215.54 145.30 214.65 C 144.99 211.19 145.12 207.68 146.56 204.46 Z" fill="#40a0de" opacity="1.00" stroke="#40a0de" stroke-width="0.25"/>
<path d="M 408.37 226.29 C 410.84 225.61 412.63 227.79 412.70 230.08 C 413.40 234.50 408.28 237.86 404.27 236.68 C 402.23 235.22 400.56 232.41 401.85 229.93 C 402.96 227.42 405.87 226.58 408.37 226.29 Z" fill="#4babe8" opacity="1.00" stroke="#4babe8" stroke-width="0.25"/>
<path d="M 128.22 234.59 C 130.93 234.26 134.12 234.89 135.88 237.14 C 137.18 240.25 134.14 243.50 131.03 243.18 C 128.07 243.15 124.68 242.11 123.74 238.95 C 123.57 236.34 125.97 234.95 128.22 234.59 Z" fill="#409fdf" opacity="1.00" stroke="#409fdf" stroke-width="0.25"/>
<path d="M 179.03 261.26 C 175.65 260.05 176.79 255.52 179.09 253.80 C 181.49 253.67 183.53 255.20 185.62 256.16 C 183.70 258.09 182.50 262.51 179.03 261.26 Z" fill="#52b2ef" opacity="1.00" stroke="#52b2ef" stroke-width="0.25"/>
<path d="M 405.52 259.46 C 408.07 258.37 411.30 259.89 411.28 262.88 C 411.40 276.00 409.41 289.07 406.67 301.89 C 406.23 303.51 405.91 305.41 404.46 306.47 C 402.33 307.07 399.06 306.78 398.56 304.14 C 398.65 301.38 399.31 298.69 399.84 296.00 C 402.11 285.47 403.43 274.70 403.40 263.91 C 403.29 262.16 404.12 260.50 405.52 259.46 Z" fill="#3fa1e0" opacity="1.00" stroke="#3fa1e0" stroke-width="0.25"/>
<path d="M 110.35 262.33 C 112.76 259.80 118.16 262.96 116.34 266.30 C 112.91 271.93 109.08 277.42 106.93 283.73 C 106.08 286.34 105.32 288.99 104.44 291.59 C 101.83 291.75 97.74 292.47 97.52 288.74 C 97.91 283.92 100.01 279.40 102.00 275.05 C 104.41 270.60 106.74 265.94 110.35 262.33 Z" fill="#3ea1df" opacity="1.00" stroke="#3ea1df" stroke-width="0.25"/>
<path d="M 193.45 264.01 C 195.49 264.30 197.51 264.67 199.51 265.14 C 198.90 271.61 202.64 278.06 208.58 280.71 C 211.38 281.96 210.48 285.61 210.99 288.06 C 206.88 288.30 203.35 286.18 200.16 283.84 C 199.97 280.75 200.03 277.61 199.41 274.57 C 197.16 273.33 194.74 272.41 192.41 271.34 C 192.77 268.89 193.11 266.45 193.45 264.01 Z" fill="#4aa8e6" opacity="1.00" stroke="#4aa8e6" stroke-width="0.25"/>
<path d="M 149.31 272.35 C 158.59 270.52 168.62 272.38 176.63 277.43 C 185.63 283.01 190.57 293.62 190.99 303.98 C 191.30 310.97 191.35 318.43 187.85 324.73 C 183.12 334.57 172.69 340.98 161.99 342.06 C 150.35 343.67 137.41 340.74 129.26 331.82 C 123.14 325.58 121.28 316.51 121.21 308.05 C 121.32 300.20 122.37 291.82 127.52 285.53 C 132.27 278.00 140.80 273.94 149.31 272.35 Z" fill="#76b4d9" opacity="1.00" stroke="#76b4d9" stroke-width="0.25"/>
<path d="M 147.30 274.44 C 157.13 272.01 167.98 273.71 176.39 279.42 C 183.01 283.79 187.10 291.24 188.64 298.89 C 190.54 308.48 189.82 319.07 184.33 327.41 C 179.52 334.01 172.16 338.82 164.05 340.06 C 154.48 341.83 144.14 340.42 135.83 335.22 C 129.15 330.93 124.93 323.58 123.52 315.88 C 122.20 306.88 122.76 297.22 127.19 289.09 C 131.32 281.55 139.08 276.50 147.30 274.44 Z" fill="#ffffff" opacity="1.00" stroke="#ffffff" stroke-width="0.25"/>
<path d="M 275.40 274.53 C 278.60 273.25 280.38 277.37 278.88 279.81 C 278.05 284.67 267.92 285.90 268.34 279.95 C 268.03 276.19 272.60 275.25 275.40 274.53 Z" fill="#43a3e2" opacity="1.00" stroke="#43a3e2" stroke-width="0.25"/>
<path d="M 89.78 314.84 C 91.40 312.37 93.47 309.09 96.84 309.28 C 98.61 309.18 99.63 310.83 100.88 311.79 C 97.54 316.44 96.07 322.67 91.06 325.92 C 89.94 325.07 88.58 324.48 87.69 323.36 C 86.29 320.38 88.37 317.38 89.78 314.84 Z" fill="#3e9fde" opacity="1.00" stroke="#3e9fde" stroke-width="0.25"/>
<path d="M 276.99 318.15 C 278.92 315.06 283.24 317.30 284.23 320.05 C 284.82 322.42 284.50 324.90 284.57 327.31 C 282.69 329.58 278.51 331.39 276.66 328.09 C 276.26 324.83 275.91 321.31 276.99 318.15 Z" fill="#3fa2de" opacity="1.00" stroke="#3fa2de" stroke-width="0.25"/>
<path d="M 205.10 334.13 C 206.58 330.88 212.82 331.98 212.54 335.79 C 211.41 341.59 207.14 346.12 202.90 349.96 C 202.31 347.41 201.45 344.91 201.22 342.29 C 202.00 339.37 203.54 336.70 205.10 334.13 Z" fill="#46a5e4" opacity="1.00" stroke="#46a5e4" stroke-width="0.25"/>
<path d="M 392.28 332.27 C 394.28 331.90 398.12 332.01 397.77 334.92 C 398.64 338.62 395.02 340.58 392.84 342.80 C 390.80 344.38 389.06 347.38 386.07 346.73 C 383.29 346.79 382.77 342.88 383.96 341.01 C 386.31 337.75 389.05 334.68 392.28 332.27 Z" fill="#3fa0e0" opacity="1.00" stroke="#3fa0e0" stroke-width="0.25"/>
<path d="M 298.29 346.42 C 300.52 346.08 302.10 348.04 303.70 349.25 C 310.49 355.44 318.73 360.11 327.70 362.24 C 329.64 362.90 331.96 363.06 333.46 364.60 C 333.82 366.13 333.79 367.77 333.37 369.30 C 331.88 370.65 329.81 370.64 327.97 370.21 C 316.47 367.77 305.62 362.00 297.40 353.59 C 295.14 351.74 295.20 347.33 298.29 346.42 Z" fill="#3ea0df" opacity="1.00" stroke="#3ea0df" stroke-width="0.25"/>
<path d="M 115.42 349.36 C 117.71 349.34 120.24 349.10 121.92 350.99 C 128.06 356.65 135.89 359.84 143.71 362.39 C 146.87 362.94 147.85 367.46 145.30 369.31 C 141.37 370.37 137.51 368.44 133.89 367.12 C 127.48 364.32 121.15 360.81 116.21 355.80 C 114.16 354.15 115.21 351.54 115.42 349.36 Z" fill="#3ea0de" opacity="1.00" stroke="#3ea0de" stroke-width="0.25"/>
<path d="M 178.74 356.71 C 181.52 354.68 185.16 355.57 188.35 355.53 C 188.48 357.33 188.62 359.14 188.77 360.95 C 185.73 362.48 182.07 365.61 178.64 363.38 C 177.10 361.58 176.41 358.18 178.74 356.71 Z" fill="#4daeed" opacity="1.00" stroke="#4daeed" stroke-width="0.25"/>
</svg>