<?xml version="1.0" encoding="utf-8"?>
<svg xmlns="http://www.w3.org/2000/svg" height="512pt" version="1.1" viewBox="0 0 512 512" width="512pt">
<path d="M 0.00 0.00 L 512.00 0.00 L 512.00 512.00 L 0.00 512.00 L 0.00 0.00 Z" fill="transparent" opacity="1.00" stroke="transparent" stroke-width="0.25"/>
<path d="M 205.90 50.14 C 222.43 44.06 240.21 38.62 257.99 41.60 C 275.29 44.34 290.77 55.46 299.48 70.56 C 303.32 71.13 307.29 70.69 311.14 71.47 C 323.15 73.34 332.47 83.26 336.48 94.33 C 344.57 116.99 339.40 142.50 327.61 162.89 C 334.81 166.32 339.87 173.98 339.50 182.03 C 339.33 189.88 336.48 198.28 329.88 203.01 C 325.75 206.40 320.14 206.98 315.00 206.71 C 313.83 212.35 312.09 217.85 310.22 223.29 C 306.28 232.71 301.25 241.71 294.34 249.30 C 293.06 250.40 291.57 251.36 290.65 252.82 C 291.04 260.88 291.62 268.93 291.78 276.99 C 295.46 278.45 298.19 281.42 301.07 284.01 C 305.53 288.50 310.05 292.97 314.01 297.93 C 316.49 301.12 320.60 302.11 324.12 303.74 C 344.30 313.16 365.22 320.91 385.66 329.75 C 393.66 333.66 402.36 336.93 408.70 343.43 C 413.64 349.94 415.66 358.09 416.89 366.02 C 417.25 370.30 417.93 374.58 417.94 378.88 C 418.02 380.14 416.38 380.40 415.66 381.18 C 414.83 370.39 413.14 359.61 409.45 349.40 C 407.75 345.35 404.17 342.52 400.46 340.39 C 391.34 334.77 381.15 331.32 371.46 326.86 C 354.63 320.61 338.43 312.82 321.82 306.06 C 327.40 313.59 334.13 320.20 339.57 327.85 C 333.14 335.17 325.43 341.25 319.07 348.62 C 327.29 355.52 336.02 361.84 343.91 369.10 C 342.81 374.82 339.35 379.76 337.07 385.07 C 328.32 404.07 316.84 421.61 306.62 439.81 C 305.72 440.15 304.82 440.51 303.94 440.88 C 303.51 440.78 302.65 440.57 302.22 440.47 C 315.96 417.53 330.36 394.79 340.66 370.04 C 330.79 362.33 321.19 354.30 311.31 346.61 C 311.27 345.96 311.17 344.66 311.13 344.01 C 312.95 344.65 314.76 345.47 316.71 345.70 C 318.40 344.75 319.72 343.29 321.09 341.95 C 325.83 336.97 331.04 332.47 335.58 327.29 C 328.43 318.82 321.35 310.30 313.96 302.03 C 309.34 297.23 305.41 291.74 300.12 287.61 C 300.30 293.73 300.73 299.87 300.10 305.98 C 298.06 324.94 294.04 343.64 289.10 362.05 C 282.42 388.49 274.77 414.68 267.91 441.08 C 267.35 442.74 267.17 444.76 265.72 445.95 C 265.10 446.18 263.84 446.63 263.21 446.86 C 264.18 438.42 269.04 430.45 267.34 421.81 C 265.03 404.77 262.65 387.75 260.19 370.74 C 259.12 363.67 258.59 356.51 256.97 349.53 C 252.62 349.10 248.27 348.70 243.90 348.52 C 240.86 370.18 237.71 391.83 234.79 413.51 C 234.29 418.23 232.69 423.07 234.09 427.79 C 235.39 432.68 236.95 437.51 237.97 442.48 L 238.13 443.41 C 237.52 443.63 236.31 444.08 235.71 444.31 C 233.72 439.68 232.49 434.80 231.21 429.96 C 223.16 401.43 215.67 372.75 208.23 344.06 C 203.96 325.40 197.99 306.36 201.29 287.03 C 196.88 291.77 192.83 296.83 188.89 301.95 C 180.68 311.17 173.65 321.33 166.11 331.08 C 172.42 336.34 178.59 341.78 185.14 346.75 C 186.53 346.69 187.92 346.64 189.31 346.59 C 189.39 347.10 189.55 348.12 189.62 348.62 C 180.08 355.51 171.15 363.23 162.12 370.77 C 168.69 386.88 177.74 401.79 185.65 417.23 L 184.09 417.52 C 182.35 416.82 181.08 415.45 180.25 413.80 C 173.18 400.69 165.68 387.75 160.11 373.90 C 159.53 372.10 158.19 369.53 160.30 368.22 C 167.63 361.90 175.21 355.88 182.76 349.83 C 176.47 343.30 169.29 337.67 162.20 332.04 C 167.27 323.08 174.81 315.85 180.21 307.13 C 171.16 310.94 162.51 315.62 153.34 319.17 C 141.51 324.01 129.72 328.94 117.96 333.93 C 110.88 336.86 103.12 339.99 98.82 346.71 C 92.37 357.81 92.22 370.97 91.15 383.40 C 92.10 383.93 93.07 384.45 94.05 384.96 C 93.32 384.79 91.87 384.45 91.14 384.28 L 91.23 386.46 C 89.27 386.90 87.29 387.23 85.29 387.45 C 84.93 387.46 84.22 387.48 83.86 387.49 C 80.80 385.75 77.13 385.87 73.88 384.64 C 78.75 384.16 83.24 386.68 88.09 386.64 C 88.20 384.27 88.29 381.91 88.42 379.55 C 81.98 379.54 76.01 376.62 69.98 374.71 C 69.23 374.50 67.74 374.08 66.99 373.88 C 67.76 373.84 68.52 373.77 69.29 373.83 C 75.63 375.64 81.84 378.09 88.41 379.02 C 89.41 369.90 90.09 360.53 93.48 351.92 C 95.41 347.95 96.84 343.39 100.54 340.66 C 102.96 338.76 105.32 336.72 108.13 335.41 C 133.26 323.30 159.90 314.51 184.70 301.75 C 187.60 298.61 189.99 295.03 192.93 291.91 C 197.92 286.24 202.16 279.09 209.55 276.31 C 209.52 268.87 209.34 261.43 209.41 254.00 C 195.61 242.31 187.74 225.06 183.73 207.73 C 178.21 208.27 172.29 207.57 167.73 204.16 C 161.94 200.00 159.20 192.90 158.14 186.08 C 157.16 180.33 158.09 173.72 162.28 169.37 C 164.49 166.95 167.60 165.69 170.44 164.19 C 161.94 147.33 159.11 127.23 164.65 108.98 C 156.52 102.97 149.50 95.44 144.25 86.79 C 141.47 81.98 138.58 77.09 137.50 71.57 C 140.73 71.61 142.15 74.81 144.39 76.57 C 147.75 79.35 151.50 82.10 155.90 82.83 C 147.00 76.09 142.74 64.83 141.87 54.00 C 141.80 51.09 141.33 48.03 142.36 45.24 C 142.77 45.25 143.59 45.26 144.00 45.27 C 147.27 51.83 152.87 57.20 159.96 59.40 C 175.91 63.18 191.40 55.90 205.90 50.14 Z" fill="#052746" opacity="1.00" stroke="#052746" stroke-width="0.25"/>
<path d="M 207.39 52.47 C 224.16 46.58 242.19 41.12 260.06 44.79 C 270.16 47.34 280.08 52.09 287.22 59.83 C 291.52 63.97 295.04 68.81 298.54 73.63 C 307.22 73.54 316.87 74.10 323.71 80.11 C 328.51 85.66 333.06 91.80 335.04 98.97 C 340.32 119.75 336.41 142.47 325.45 160.79 C 323.10 160.20 320.80 159.41 318.58 158.46 C 317.99 154.27 317.19 149.97 314.61 146.50 C 311.74 141.41 305.74 139.21 302.87 134.11 C 299.63 129.73 298.73 124.31 297.21 119.22 C 293.28 121.47 290.11 124.78 286.24 127.13 C 279.75 131.20 272.43 133.72 265.07 135.69 C 260.30 137.56 255.19 138.12 250.15 138.78 C 254.37 134.81 259.21 131.32 262.25 126.27 C 266.38 119.32 268.99 111.09 267.87 102.96 C 267.41 98.78 267.36 94.13 264.35 90.83 C 263.94 98.21 267.00 105.59 264.84 112.92 C 264.13 116.52 260.25 117.73 257.43 119.30 C 250.58 122.17 243.33 124.22 235.97 125.27 C 216.59 126.73 197.08 122.38 179.46 114.40 C 164.41 107.24 150.45 95.78 143.96 80.08 C 149.74 83.56 156.16 87.67 163.24 86.05 C 159.99 81.64 154.50 79.43 151.39 74.87 C 149.03 70.85 146.85 66.62 145.96 62.00 C 145.35 58.71 144.02 55.36 144.91 52.00 C 152.29 61.99 166.29 65.29 177.95 62.25 C 188.19 60.40 197.83 56.43 207.39 52.47 Z" fill="#68433b" opacity="1.00" stroke="#68433b" stroke-width="0.25"/>
<path d="M 165.73 115.97 C 165.87 114.20 166.78 112.67 167.68 111.20 C 173.01 114.36 178.41 117.47 184.28 119.54 C 185.37 120.13 186.91 120.21 187.64 121.31 C 188.04 124.56 187.34 127.81 186.85 131.01 C 185.41 140.58 183.20 150.01 181.46 159.53 C 178.50 160.80 175.42 161.86 172.16 161.82 C 169.47 154.66 166.26 147.55 165.29 139.89 C 163.89 131.97 164.77 123.88 165.73 115.97 Z" fill="#68433b" opacity="1.00" stroke="#68433b" stroke-width="0.25"/>
<path d="M 229.08 128.54 C 240.79 128.67 252.28 125.30 262.61 119.92 C 260.50 124.16 257.76 128.09 254.50 131.52 C 250.57 135.44 245.60 138.01 241.02 141.04 C 243.19 143.11 246.32 142.21 248.99 142.05 C 265.68 139.84 282.19 134.23 295.65 123.91 C 296.66 128.48 298.52 132.90 301.28 136.70 C 304.23 140.75 308.84 143.14 311.90 147.08 C 314.07 149.90 314.80 153.47 315.68 156.85 C 310.10 156.29 304.75 154.05 299.08 154.36 C 300.77 154.07 302.45 153.74 304.14 153.41 C 305.97 151.04 306.37 147.17 303.04 145.94 C 297.41 145.10 291.71 146.03 286.05 146.19 C 278.90 146.35 271.74 146.49 264.58 146.58 C 263.88 147.24 263.18 147.90 262.48 148.55 C 262.27 150.68 262.35 152.88 264.14 154.35 C 264.86 154.49 266.30 154.78 267.03 154.92 C 264.33 155.62 261.58 156.06 258.93 156.90 C 255.72 158.08 254.16 161.44 251.44 163.28 C 247.50 164.94 241.92 164.31 239.71 160.24 C 238.55 158.21 236.21 157.47 234.04 157.11 C 217.53 154.58 200.56 155.13 184.28 158.95 C 187.02 146.82 189.98 134.64 190.85 122.20 C 203.35 125.47 216.05 128.69 229.08 128.54 Z" fill="#feccb0" opacity="1.00" stroke="#feccb0" stroke-width="0.25"/>
<path d="M 196.50 146.79 C 208.18 145.32 219.91 143.99 231.67 143.50 C 234.55 145.38 235.07 151.27 231.05 151.99 C 220.54 152.81 210.04 153.81 199.55 154.85 C 196.79 154.91 192.56 155.42 191.57 152.06 C 190.99 149.00 193.77 146.99 196.50 146.79 Z" fill="#052746" opacity="1.00" stroke="#052746" stroke-width="0.25"/>
<path d="M 259.13 162.98 C 263.40 159.82 269.00 160.39 274.00 160.02 C 279.69 159.58 285.37 160.26 291.06 160.34 C 295.64 160.60 300.35 160.73 304.65 162.54 C 304.55 168.12 303.17 173.57 302.08 179.02 C 301.53 182.12 300.06 184.96 297.97 187.29 C 289.44 189.08 280.63 188.43 272.02 187.62 C 268.69 187.32 265.18 187.30 262.05 185.98 C 259.26 183.28 258.88 179.11 257.56 175.63 C 255.99 171.53 255.89 166.30 259.13 162.98 Z" fill="#feccb0" opacity="1.00" stroke="#feccb0" stroke-width="0.25"/>
<path d="M 192.84 163.90 C 200.15 162.44 207.61 162.24 215.02 161.58 C 222.12 161.45 229.64 160.80 236.29 163.79 C 237.75 167.79 237.68 172.19 236.28 176.20 C 234.83 180.19 233.63 184.60 230.30 187.48 C 221.37 189.42 212.10 189.17 203.05 188.30 C 200.05 187.79 196.30 187.46 194.67 184.48 C 191.78 178.61 191.48 171.94 190.44 165.59 C 191.20 164.96 192.00 164.40 192.84 163.90 Z" fill="#feccb0" opacity="1.00" stroke="#feccb0" stroke-width="0.25"/>
<path d="M 276.50 163.69 C 281.08 161.83 286.57 166.20 285.63 171.06 C 285.67 175.84 279.47 178.81 275.54 176.41 C 270.75 173.78 271.16 165.52 276.50 163.69 Z" fill="#052746" opacity="1.00" stroke="#052746" stroke-width="0.25"/>
<path d="M 212.34 165.57 C 217.14 163.32 223.18 167.54 222.14 172.86 C 221.91 178.17 214.58 180.76 210.91 177.11 C 207.28 174.22 207.78 167.30 212.34 165.57 Z" fill="#052746" opacity="1.00" stroke="#052746" stroke-width="0.25"/>
<path d="M 274.61 168.50 C 274.16 166.87 276.19 166.19 277.02 165.18 C 279.27 166.37 279.84 168.59 278.31 170.61 C 276.94 170.39 274.80 170.24 274.61 168.50 Z" fill="#ffffff" opacity="1.00" stroke="#ffffff" stroke-width="0.25"/>
<path d="M 210.34 168.71 C 211.58 167.96 212.91 167.39 214.38 167.36 C 214.59 168.58 214.79 169.81 214.98 171.03 C 214.28 171.52 213.59 172.01 212.90 172.50 C 211.43 171.67 210.46 170.42 210.34 168.71 Z" fill="#ffffff" opacity="1.00" stroke="#ffffff" stroke-width="0.25"/>
<path d="M 320.76 169.65 C 323.45 167.18 328.01 166.58 330.85 169.14 C 335.69 173.17 337.03 179.95 336.06 185.93 C 335.41 181.71 333.95 177.35 330.53 174.56 C 328.08 172.20 324.68 171.50 321.52 170.63 C 321.33 170.39 320.95 169.90 320.76 169.65 Z" fill="#feccb0" opacity="1.00" stroke="#feccb0" stroke-width="0.25"/>
<path d="M 309.85 169.55 C 312.48 169.33 315.13 169.54 317.62 170.48 C 316.33 183.79 314.17 197.02 311.25 210.07 C 306.83 228.50 296.83 246.13 281.04 257.08 C 267.84 266.30 250.48 269.72 234.92 265.22 C 216.44 259.74 201.43 245.30 193.51 227.94 C 186.18 211.24 183.58 192.97 181.60 174.99 C 180.95 172.84 183.56 172.25 185.14 172.49 C 186.10 175.32 187.09 178.14 187.80 181.04 C 189.30 185.66 191.70 190.99 197.00 192.03 C 208.26 194.60 220.26 195.12 231.53 192.37 C 237.69 190.01 238.85 182.56 241.00 177.11 C 241.98 173.89 245.37 172.46 248.49 172.44 C 250.32 173.83 252.54 175.15 253.08 177.57 C 255.32 185.02 256.88 192.67 258.32 200.31 C 253.75 201.52 249.02 201.17 244.36 201.28 C 244.44 201.81 244.62 202.85 244.70 203.37 C 249.91 205.17 255.74 204.37 260.77 202.35 C 261.03 198.35 260.26 194.39 259.28 190.53 C 271.02 192.84 283.02 193.74 294.98 193.37 C 298.05 193.06 301.45 191.96 303.09 189.12 C 306.67 183.13 307.65 176.09 309.85 169.55 Z" fill="#feccb0" opacity="1.00" stroke="#feccb0" stroke-width="0.25"/>
<path d="M 320.40 169.16 L 320.76 169.65 C 320.95 169.90 321.33 170.39 321.52 170.63 C 324.68 171.50 328.08 172.20 330.53 174.56 C 333.95 177.35 335.41 181.71 336.06 185.93 C 335.26 190.71 333.18 195.32 330.01 198.98 C 326.43 202.71 321.08 203.97 316.06 203.70 C 317.29 192.18 320.35 180.81 320.40 169.16 Z" fill="#df937e" opacity="1.00" stroke="#df937e" stroke-width="0.25"/>
<path d="M 166.32 170.32 C 170.30 167.98 175.15 170.40 177.88 173.57 C 170.85 174.00 163.60 177.43 161.04 184.42 C 160.19 179.28 161.46 173.06 166.32 170.32 Z" fill="#feccb0" opacity="1.00" stroke="#feccb0" stroke-width="0.25"/>
<path d="M 177.88 173.57 C 178.03 173.54 178.34 173.48 178.50 173.45 C 179.15 183.98 181.51 194.29 182.78 204.73 C 178.15 204.97 173.12 204.73 169.41 201.58 C 163.91 197.70 161.58 190.87 161.04 184.42 C 163.60 177.43 170.85 174.00 177.88 173.57 Z" fill="#df937e" opacity="1.00" stroke="#df937e" stroke-width="0.25"/>
<path d="M 220.24 214.28 C 223.92 214.18 227.06 216.32 230.54 217.14 C 245.72 221.35 261.77 219.45 276.93 216.20 C 275.38 223.79 270.71 231.17 263.73 234.86 C 254.56 239.43 243.29 238.20 234.53 233.25 C 227.33 229.28 223.20 221.65 220.24 214.28 Z" fill="#052746" opacity="1.00" stroke="#052746" stroke-width="0.25"/>
<path d="M 222.98 216.30 C 239.05 223.88 257.51 221.83 274.47 219.00 C 271.96 225.62 267.26 232.02 260.24 234.21 C 251.36 237.42 241.22 235.42 233.44 230.34 C 228.50 226.96 225.62 221.50 222.98 216.30 Z" fill="#ffffff" opacity="1.00" stroke="#ffffff" stroke-width="0.25"/>
<path d="M 266.87 270.85 C 274.28 268.88 280.99 265.09 287.77 261.61 C 287.89 267.43 288.61 273.24 288.34 279.07 C 284.53 281.64 281.18 284.81 277.60 287.68 C 268.66 295.47 259.33 302.81 250.70 310.94 C 250.55 311.23 250.23 311.79 250.07 312.07 C 249.90 312.34 249.57 312.88 249.40 313.15 C 249.62 312.60 250.07 311.50 250.29 310.95 C 244.26 304.14 236.63 298.89 229.89 292.78 C 239.18 288.78 248.04 283.87 256.77 278.79 C 260.25 276.66 264.00 274.70 266.46 271.33 C 266.56 271.21 266.76 270.97 266.87 270.85 Z" fill="#feccb0" opacity="1.00" stroke="#feccb0" stroke-width="0.25"/>
<path d="M 213.23 263.99 C 224.95 269.79 237.88 273.41 251.02 273.20 C 256.21 272.96 261.28 271.75 266.46 271.33 C 264.00 274.70 260.25 276.66 256.77 278.79 C 248.04 283.87 239.18 288.78 229.89 292.78 L 229.80 292.82 C 224.39 288.38 219.16 283.68 213.43 279.64 C 213.27 274.42 213.15 269.21 213.23 263.99 Z" fill="#df937e" opacity="1.00" stroke="#df937e" stroke-width="0.25"/>
<path d="M 205.34 286.09 C 206.08 283.64 207.70 281.55 209.96 280.33 C 222.79 289.93 234.64 300.76 246.96 310.99 C 238.81 322.00 229.54 332.15 221.13 342.97 C 217.61 337.43 214.13 331.88 210.64 326.33 C 208.31 322.46 205.63 318.61 204.84 314.07 C 203.13 304.87 202.29 295.10 205.34 286.09 Z" fill="#adeffe" opacity="1.00" stroke="#adeffe" stroke-width="0.25"/>
<path d="M 254.06 311.47 C 266.35 301.09 278.36 290.37 291.00 280.40 C 292.79 281.00 294.33 282.17 294.85 284.06 C 298.62 294.09 296.81 304.99 295.57 315.32 C 295.17 319.04 292.92 322.14 291.21 325.36 C 287.77 331.57 284.08 337.65 280.41 343.73 C 280.19 343.70 279.76 343.63 279.54 343.60 C 273.03 335.40 266.38 327.33 259.88 319.14 C 257.82 316.67 255.51 314.37 254.06 311.47 Z" fill="#adeffe" opacity="1.00" stroke="#adeffe" stroke-width="0.25"/>
<path d="M 188.89 301.95 C 192.83 296.83 196.88 291.77 201.29 287.03 C 197.99 306.36 203.96 325.40 208.23 344.06 C 215.67 372.75 223.16 401.43 231.21 429.96 C 232.49 434.80 233.72 439.68 235.71 444.31 C 229.63 446.21 224.01 449.38 217.80 450.84 C 217.60 449.76 217.41 448.70 217.22 447.63 C 215.27 447.14 213.34 446.64 211.37 446.27 C 217.36 444.18 223.55 442.62 229.43 440.26 C 227.25 440.34 225.14 440.86 223.05 441.43 C 215.93 443.34 208.66 444.72 201.74 447.32 C 201.43 446.78 200.80 445.69 200.48 445.14 C 187.89 448.49 174.97 450.56 161.97 451.43 C 158.58 451.57 155.16 451.92 151.79 451.36 C 154.16 450.69 156.61 450.31 159.06 450.06 C 166.07 449.26 173.10 448.39 179.98 446.76 C 182.23 446.25 184.48 445.68 186.80 445.67 C 193.80 446.98 200.24 442.86 207.08 442.06 C 207.27 441.56 207.67 440.55 207.86 440.04 C 205.56 440.40 203.26 440.79 200.95 441.12 C 200.77 440.61 200.39 439.59 200.21 439.07 C 206.43 439.18 212.05 436.18 217.92 434.56 C 219.09 434.02 221.70 433.29 220.34 431.64 C 218.47 431.44 216.59 431.57 214.72 431.60 C 217.69 429.71 221.28 428.48 223.33 425.46 C 217.92 423.22 212.63 426.22 207.40 427.42 C 203.02 428.65 198.29 428.94 194.35 431.42 C 193.02 429.51 191.98 427.41 190.98 425.32 C 191.61 424.35 192.24 423.40 192.85 422.43 C 191.52 422.49 190.19 422.56 188.86 422.66 C 188.29 420.63 187.43 418.64 184.96 418.66 C 187.25 417.87 189.65 417.50 192.03 417.08 C 189.91 416.79 187.75 416.75 185.65 417.23 C 177.74 401.79 168.69 386.88 162.12 370.77 C 171.15 363.23 180.08 355.51 189.62 348.62 C 189.55 348.12 189.39 347.10 189.31 346.59 C 187.92 346.64 186.53 346.69 185.14 346.75 C 178.59 341.78 172.42 336.34 166.11 331.08 C 173.65 321.33 180.68 311.17 188.89 301.95 Z" fill="#206793" opacity="1.00" stroke="#206793" stroke-width="0.25"/>
<path d="M 300.12 287.61 C 305.41 291.74 309.34 297.23 313.96 302.03 C 321.35 310.30 328.43 318.82 335.58 327.29 C 331.04 332.47 325.83 336.97 321.09 341.95 C 319.72 343.29 318.40 344.75 316.71 345.70 C 314.76 345.47 312.95 344.65 311.13 344.01 C 311.17 344.66 311.27 345.96 311.31 346.61 C 321.19 354.30 330.79 362.33 340.66 370.04 C 330.36 394.79 315.96 417.53 302.22 440.47 C 302.65 440.57 303.51 440.78 303.94 440.88 C 290.69 445.76 277.22 450.09 264.13 455.38 C 264.55 453.68 264.89 451.96 265.24 450.26 C 264.34 450.29 262.53 450.35 261.63 450.37 C 261.64 449.86 261.66 448.84 261.67 448.32 C 263.03 447.55 264.41 446.81 265.72 445.95 C 267.17 444.76 267.35 442.74 267.91 441.08 C 274.77 414.68 282.42 388.49 289.10 362.05 C 294.04 343.64 298.06 324.94 300.10 305.98 C 300.73 299.87 300.30 293.73 300.12 287.61 Z" fill="#206793" opacity="1.00" stroke="#206793" stroke-width="0.25"/>
<path d="M 321.82 306.06 C 338.43 312.82 354.63 320.61 371.46 326.86 C 381.15 331.32 391.34 334.77 400.46 340.39 C 404.17 342.52 407.75 345.35 409.45 349.40 C 413.14 359.61 414.83 370.39 415.66 381.18 C 416.38 380.40 418.02 380.14 417.94 378.88 C 417.93 374.58 417.25 370.30 416.89 366.02 C 417.75 370.32 418.10 374.70 418.71 379.04 C 422.71 377.13 425.44 373.48 428.98 370.92 C 438.93 362.56 448.13 353.38 457.01 343.92 C 454.92 347.76 451.32 350.45 448.72 353.91 C 439.52 363.98 429.19 372.95 418.65 381.56 C 418.73 382.43 418.90 384.17 418.99 385.03 C 418.26 384.00 417.60 382.92 416.93 381.88 C 416.21 384.67 415.13 387.93 417.69 390.20 C 415.99 392.24 414.13 394.12 412.30 396.04 C 414.34 394.20 416.28 392.26 418.42 390.54 C 418.70 390.47 419.25 390.33 419.53 390.26 C 419.63 392.17 419.97 394.04 420.51 395.89 C 419.39 397.51 417.77 398.64 416.10 399.64 C 416.02 398.87 415.85 397.32 415.77 396.54 C 411.76 400.37 407.14 403.44 402.69 406.72 C 390.65 415.76 378.20 424.30 365.14 431.79 C 365.18 427.68 365.38 423.58 365.68 419.49 C 364.58 420.06 363.49 420.63 362.40 421.22 C 361.82 425.44 361.09 429.71 361.72 433.97 C 356.33 437.81 350.79 441.44 345.14 444.87 C 346.86 441.83 350.00 440.16 352.63 438.03 C 349.93 436.93 347.02 437.61 344.21 437.61 C 346.70 435.62 349.42 433.97 352.03 432.16 C 345.69 434.50 339.98 438.34 333.56 440.60 C 332.86 439.91 332.17 439.24 331.47 438.57 C 332.57 437.91 333.68 437.27 334.74 436.54 C 334.50 435.10 333.25 434.19 332.42 433.11 C 336.31 431.00 342.36 430.14 343.11 424.91 C 336.14 426.81 330.10 430.98 323.31 433.36 C 317.68 435.33 312.24 437.79 306.62 439.81 C 316.84 421.61 328.32 404.07 337.07 385.07 C 339.35 379.76 342.81 374.82 343.91 369.10 C 336.02 361.84 327.29 355.52 319.07 348.62 C 325.43 341.25 333.14 335.17 339.57 327.85 C 334.13 320.20 327.40 313.59 321.82 306.06 Z" fill="#206793" opacity="1.00" stroke="#206793" stroke-width="0.25"/>
<path d="M 153.34 319.17 C 162.51 315.62 171.16 310.94 180.21 307.13 C 174.81 315.85 167.27 323.08 162.20 332.04 C 169.29 337.67 176.47 343.30 182.76 349.83 C 175.21 355.88 167.63 361.90 160.30 368.22 C 158.19 369.53 159.53 372.10 160.11 373.90 C 165.68 387.75 173.18 400.69 180.25 413.80 C 181.08 415.45 182.35 416.82 184.09 417.52 C 181.72 418.16 179.29 417.83 176.93 417.32 C 171.91 416.22 166.83 418.02 161.80 417.32 C 160.45 415.44 164.14 414.29 165.08 412.87 C 163.75 412.38 162.43 411.89 161.10 411.42 C 161.66 410.34 162.23 409.27 162.80 408.21 C 157.15 408.18 151.70 406.62 146.18 405.64 C 147.02 404.81 147.86 403.99 148.71 403.17 C 141.87 401.89 134.89 402.75 128.02 401.96 C 127.18 399.50 126.34 397.05 125.54 394.58 C 126.39 393.58 127.25 392.60 128.10 391.61 C 126.08 391.81 124.05 392.01 122.02 391.89 C 120.62 391.56 119.87 390.15 118.68 389.44 C 110.51 387.75 102.13 387.13 94.05 384.96 C 93.07 384.45 92.10 383.93 91.15 383.40 C 92.22 370.97 92.37 357.81 98.82 346.71 C 103.12 339.99 110.88 336.86 117.96 333.93 C 129.72 328.94 141.51 324.01 153.34 319.17 Z" fill="#206793" opacity="1.00" stroke="#206793" stroke-width="0.25"/>
<path d="M 249.40 313.15 C 249.57 312.88 249.90 312.34 250.07 312.07 C 251.86 314.00 253.54 316.05 254.87 318.34 C 251.90 318.10 248.93 317.87 245.96 317.67 C 247.06 316.13 248.34 314.72 249.40 313.15 Z" fill="#adeffe" opacity="1.00" stroke="#adeffe" stroke-width="0.25"/>
<path d="M 242.46 321.41 C 247.89 321.35 253.31 321.72 258.69 322.43 C 260.93 325.25 263.11 328.12 265.16 331.09 C 263.16 336.05 261.36 341.11 258.65 345.74 C 253.21 345.80 247.86 344.69 242.44 344.53 C 239.88 339.58 238.17 334.27 236.77 328.89 C 238.32 326.15 240.32 323.71 242.46 321.41 Z" fill="#67626b" opacity="1.00" stroke="#67626b" stroke-width="0.25"/>
<path d="M 208.14 328.83 C 211.82 334.49 215.44 340.20 219.38 345.68 C 219.92 346.73 221.26 346.43 222.21 346.77 C 225.84 341.61 229.99 336.82 234.02 331.97 C 235.29 336.19 236.72 340.40 238.80 344.30 C 239.51 345.78 240.64 347.24 240.26 348.99 C 238.57 363.20 236.27 377.33 234.34 391.51 C 232.98 399.84 232.32 408.27 230.76 416.56 C 222.96 387.39 214.68 358.32 208.14 328.83 Z" fill="#adeffe" opacity="1.00" stroke="#adeffe" stroke-width="0.25"/>
<path d="M 293.12 329.01 C 292.39 336.49 290.32 343.77 288.68 351.08 C 283.33 373.90 276.23 396.27 270.74 419.05 C 266.91 395.74 264.27 372.24 260.63 348.91 C 263.62 344.31 265.58 339.17 267.63 334.12 C 271.96 338.09 275.14 343.41 279.06 347.89 C 280.29 347.64 281.87 347.89 282.50 346.52 C 286.31 340.86 289.57 334.84 293.12 329.01 Z" fill="#adeffe" opacity="1.00" stroke="#adeffe" stroke-width="0.25"/>
<path d="M 459.34 351.23 C 462.26 348.97 464.20 345.63 467.38 343.70 C 464.75 349.06 459.82 352.65 456.30 357.34 C 445.27 369.07 432.96 379.50 420.77 389.98 L 419.53 390.26 C 419.25 390.33 418.70 390.47 418.42 390.54 C 416.28 392.26 414.34 394.20 412.30 396.04 C 414.13 394.12 415.99 392.24 417.69 390.20 C 418.45 388.57 418.67 386.78 418.99 385.03 C 419.55 384.93 420.67 384.72 421.24 384.62 C 422.90 381.54 426.00 379.68 428.50 377.35 C 429.32 377.45 430.14 377.56 430.97 377.67 C 440.79 369.25 450.01 360.18 459.34 351.23 Z" fill="#86afc2" opacity="1.00" stroke="#86afc2" stroke-width="0.25"/>
<path d="M 461.73 355.79 C 465.05 352.30 467.69 348.18 471.21 344.90 C 461.07 359.60 450.32 374.20 436.56 385.75 C 436.00 386.18 435.44 386.62 434.89 387.07 C 435.33 387.53 436.21 388.46 436.64 388.92 C 434.39 390.23 432.09 391.46 429.80 392.69 C 431.46 392.14 433.07 391.52 434.76 391.00 C 429.73 396.17 423.54 400.20 419.25 406.09 C 420.44 405.23 421.61 404.35 422.80 403.49 C 423.40 404.02 424.00 404.56 424.60 405.11 L 423.26 406.10 C 415.96 411.85 408.36 417.20 400.99 422.86 C 391.97 428.57 383.00 434.36 374.01 440.12 C 363.52 446.46 353.52 453.90 341.90 458.08 C 345.11 454.88 348.92 452.42 352.66 449.91 C 348.27 450.87 344.80 453.94 340.77 455.77 C 331.54 460.90 322.23 465.86 312.80 470.63 C 303.31 475.15 294.18 480.76 284.06 483.69 C 301.62 473.86 319.71 465.00 337.34 455.32 C 343.80 452.04 349.92 448.15 355.99 444.22 C 341.09 451.44 326.65 459.60 311.69 466.72 C 303.63 470.62 295.52 474.41 287.73 478.81 L 287.53 478.47 L 286.87 477.37 L 285.95 475.91 C 287.30 475.44 288.67 475.00 290.00 474.50 C 287.17 474.50 284.52 475.51 281.92 476.54 C 281.60 475.93 280.95 474.70 280.63 474.09 C 287.87 470.55 295.48 467.69 302.25 463.24 C 312.67 456.62 323.20 450.16 333.70 443.65 C 337.16 441.56 340.49 439.23 344.21 437.61 C 347.02 437.61 349.93 436.93 352.63 438.03 C 350.00 440.16 346.86 441.83 345.14 444.87 C 343.52 446.39 341.75 447.71 339.95 449.01 C 367.90 436.87 391.60 417.35 416.10 399.64 C 417.77 398.64 419.39 397.51 420.51 395.89 C 421.11 395.05 421.79 394.28 422.53 393.57 C 436.73 382.22 449.52 369.23 461.73 355.79 Z" fill="#2b88b7" opacity="1.00" stroke="#2b88b7" stroke-width="0.25"/>
<path d="M 243.90 348.52 C 248.27 348.70 252.62 349.10 256.97 349.53 C 258.59 356.51 259.12 363.67 260.19 370.74 C 262.65 387.75 265.03 404.77 267.34 421.81 C 269.04 430.45 264.18 438.42 263.21 446.86 C 263.84 446.63 265.10 446.18 265.72 445.95 C 264.41 446.81 263.03 447.55 261.67 448.32 C 261.66 448.84 261.64 449.86 261.63 450.37 C 261.35 452.69 260.71 454.94 260.10 457.19 C 254.81 459.33 249.31 460.94 244.09 463.28 C 243.54 461.47 242.98 459.66 242.43 457.86 C 245.56 456.37 248.49 454.33 250.40 451.39 C 252.58 447.83 256.89 446.91 260.27 444.91 C 258.21 442.55 255.41 444.39 253.17 445.42 C 249.35 447.13 246.39 451.14 241.80 450.48 C 243.48 448.02 245.28 445.53 245.78 442.52 C 243.17 442.47 240.57 442.46 237.97 442.48 C 236.95 437.51 235.39 432.68 234.09 427.79 C 232.69 423.07 234.29 418.23 234.79 413.51 C 237.71 391.83 240.86 370.18 243.90 348.52 Z" fill="#67626b" opacity="1.00" stroke="#67626b" stroke-width="0.25"/>
<path d="M 114.33 365.21 C 117.79 365.21 118.04 369.30 119.21 371.68 C 121.86 377.99 122.91 384.87 125.79 391.06 C 124.50 391.03 123.21 391.02 121.93 391.03 C 119.83 385.06 118.57 378.82 116.29 372.92 C 115.28 370.45 114.59 367.86 114.33 365.21 Z" fill="#052746" opacity="1.00" stroke="#052746" stroke-width="0.25"/>
<path d="M 457.57 372.49 C 459.94 370.15 462.03 367.45 464.96 365.76 C 462.53 370.81 457.35 373.80 454.86 378.80 C 456.24 378.07 457.60 377.29 458.94 376.49 C 457.90 377.84 457.47 379.45 457.11 381.08 C 455.95 382.55 454.37 383.61 452.89 384.72 C 454.34 384.37 455.87 384.10 457.10 385.19 C 459.91 382.12 462.48 378.81 465.61 376.04 C 465.77 379.13 462.75 380.84 461.02 382.97 C 456.63 386.88 453.75 392.11 449.28 395.95 C 449.61 396.47 450.26 397.51 450.59 398.03 C 448.63 400.22 446.38 402.16 444.66 404.56 C 439.91 411.09 433.34 415.90 427.53 421.42 C 409.74 436.87 391.43 451.83 371.81 464.93 C 371.47 463.65 370.60 463.03 369.18 463.08 L 369.37 461.27 C 378.21 454.25 387.40 447.42 395.96 439.97 C 410.08 427.69 424.20 415.39 437.36 402.07 C 439.99 399.56 443.15 397.56 444.96 394.31 C 444.58 394.61 443.82 395.21 443.43 395.51 C 441.86 395.75 440.77 396.79 440.50 398.36 C 439.39 399.47 438.25 400.55 437.11 401.61 L 435.86 401.39 C 433.73 400.68 432.27 402.90 432.32 404.80 L 432.19 405.71 C 417.98 418.76 403.27 431.32 387.44 442.40 C 384.57 444.51 381.91 446.95 378.71 448.60 C 378.47 447.64 378.25 446.68 378.04 445.72 C 378.06 444.16 379.57 443.49 380.59 442.65 C 386.97 438.47 392.59 433.28 398.44 428.42 C 407.00 421.27 415.52 414.08 423.87 406.68 C 429.75 401.43 435.94 396.53 441.41 390.83 C 435.79 394.92 430.93 399.97 425.52 404.33 C 424.95 403.74 424.39 403.15 423.82 402.58 C 428.59 399.71 432.53 395.73 436.62 392.01 C 443.65 385.56 450.89 379.32 457.57 372.49 Z" fill="#2b88b7" opacity="1.00" stroke="#2b88b7" stroke-width="0.25"/>
<path d="M 452.31 380.35 C 453.60 381.42 450.87 384.47 449.37 383.78 C 448.78 382.12 450.93 380.75 452.31 380.35 Z" fill="#86afc2" opacity="1.00" stroke="#86afc2" stroke-width="0.25"/>
<path d="M 416.93 381.88 C 417.60 382.92 418.26 384.00 418.99 385.03 C 418.67 386.78 418.45 388.57 417.69 390.20 C 415.13 387.93 416.21 384.67 416.93 381.88 Z" fill="#052746" opacity="1.00" stroke="#052746" stroke-width="0.25"/>
<path d="M 135.96 384.50 C 139.99 384.33 144.02 384.03 148.04 384.28 C 148.92 384.28 149.60 384.66 150.09 385.41 C 146.10 385.91 142.03 386.36 138.02 385.79 C 137.08 385.75 136.40 385.32 135.96 384.50 Z" fill="#2b88b7" opacity="1.00" stroke="#2b88b7" stroke-width="0.25"/>
<path d="M 368.05 383.88 C 368.68 383.75 369.93 383.48 370.55 383.34 C 370.07 390.96 367.90 398.36 367.48 406.00 C 367.55 408.60 366.39 411.65 363.41 411.83 C 364.92 402.51 365.79 393.08 368.05 383.88 Z" fill="#052746" opacity="1.00" stroke="#052746" stroke-width="0.25"/>
<path d="M 91.14 384.28 C 91.87 384.45 93.32 384.79 94.05 384.96 C 102.13 387.13 110.51 387.75 118.68 389.44 C 109.48 390.20 100.13 388.78 91.23 386.46 L 91.14 384.28 Z" fill="#ffffff" opacity="1.00" stroke="#ffffff" stroke-width="0.25"/>
<path d="M 57.51 386.64 C 60.55 386.60 63.52 387.21 66.47 387.88 C 73.45 389.44 80.63 389.20 87.72 389.73 C 87.63 392.61 88.07 395.52 89.53 398.05 C 89.90 396.78 90.25 395.50 90.54 394.21 C 97.23 396.02 104.18 395.99 111.05 396.00 C 113.12 395.69 114.57 397.26 116.01 398.45 C 114.59 399.11 113.17 399.77 111.76 400.42 C 115.68 400.85 119.61 401.11 123.54 401.46 C 125.04 401.61 126.52 401.79 128.02 401.96 C 134.89 402.75 141.87 401.89 148.71 403.17 C 147.86 403.99 147.02 404.81 146.18 405.64 C 151.70 406.62 157.15 408.18 162.80 408.21 C 162.23 409.27 161.66 410.34 161.10 411.42 C 162.43 411.89 163.75 412.38 165.08 412.87 C 164.14 414.29 160.45 415.44 161.80 417.32 C 166.83 418.02 171.91 416.22 176.93 417.32 C 179.29 417.83 181.72 418.16 184.09 417.52 L 185.65 417.23 C 187.75 416.75 189.91 416.79 192.03 417.08 C 189.65 417.50 187.25 417.87 184.96 418.66 L 183.86 419.05 C 179.05 421.11 173.64 420.70 168.61 421.90 C 154.98 422.65 141.31 421.95 127.69 422.84 C 140.16 424.21 152.81 424.31 165.28 422.82 C 168.12 423.80 171.12 423.74 174.03 423.11 C 177.64 422.29 181.30 422.92 184.95 422.96 C 185.92 422.88 187.88 422.74 188.86 422.66 C 190.19 422.56 191.52 422.49 192.85 422.43 C 192.24 423.40 191.61 424.35 190.98 425.32 C 190.07 425.34 188.24 425.37 187.32 425.39 C 184.69 427.25 182.45 429.60 180.19 431.89 C 184.27 431.50 188.59 431.47 191.97 434.14 C 193.52 435.23 195.38 435.68 197.06 434.53 C 196.38 433.76 195.03 432.20 194.35 431.42 C 198.29 428.94 203.02 428.65 207.40 427.42 C 212.63 426.22 217.92 423.22 223.33 425.46 C 221.28 428.48 217.69 429.71 214.72 431.60 C 216.59 431.57 218.47 431.44 220.34 431.64 C 221.70 433.29 219.09 434.02 217.92 434.56 C 212.05 436.18 206.43 439.18 200.21 439.07 L 199.75 437.97 C 198.03 438.24 196.31 438.52 194.60 438.83 C 195.91 441.32 198.41 441.78 200.95 441.12 C 203.26 440.79 205.56 440.40 207.86 440.04 C 207.67 440.55 207.27 441.56 207.08 442.06 C 200.24 442.86 193.80 446.98 186.80 445.67 C 187.03 445.34 187.49 444.68 187.72 444.35 C 178.44 445.58 169.27 447.52 159.94 448.33 C 158.22 448.51 156.49 448.62 154.77 448.69 C 153.51 447.18 151.40 447.26 149.67 446.73 C 154.90 445.23 160.21 443.82 165.68 443.60 C 170.63 443.25 175.75 442.70 180.32 440.64 C 174.52 440.75 168.68 439.93 162.91 440.78 C 147.34 442.33 131.65 441.80 116.04 441.31 C 106.30 440.61 96.46 439.92 87.01 437.32 C 86.02 437.17 85.45 436.36 84.97 435.58 C 98.66 436.32 112.37 437.17 126.09 436.57 C 120.59 435.58 114.96 435.83 109.46 434.88 C 101.32 433.59 93.20 432.11 85.01 431.13 C 80.29 430.45 75.51 429.96 70.95 428.53 C 69.83 428.35 69.19 427.54 69.12 426.45 C 72.74 427.17 76.37 427.91 80.05 428.33 C 91.03 429.61 101.98 431.41 113.05 431.68 C 112.66 430.95 112.27 430.23 111.87 429.51 C 102.85 428.26 93.82 426.76 85.11 424.05 C 83.64 423.57 82.47 422.49 81.60 421.25 C 81.85 421.32 82.34 421.47 82.59 421.54 C 82.51 419.13 79.46 419.17 77.77 418.34 C 85.21 420.52 92.77 418.55 100.32 418.59 C 97.71 418.13 94.23 418.89 93.12 415.77 C 90.11 415.35 87.09 415.09 84.07 414.80 L 84.15 414.23 C 86.28 414.24 88.48 414.25 90.43 413.24 C 86.60 411.98 82.85 410.48 79.36 408.45 C 84.20 408.44 88.29 411.69 93.13 412.11 C 93.50 411.67 94.25 410.78 94.63 410.34 C 99.11 411.47 103.73 412.10 108.35 411.56 C 102.97 410.28 97.48 409.14 91.92 409.23 C 90.52 406.22 86.61 406.92 83.94 406.01 C 78.84 404.49 73.31 403.69 68.83 400.67 C 69.88 400.62 71.99 400.51 73.04 400.45 C 71.73 399.43 70.42 398.42 69.09 397.43 C 70.02 396.12 71.14 394.95 72.33 393.89 C 67.24 392.48 62.17 390.95 57.29 388.91 C 57.34 388.34 57.45 387.21 57.51 386.64 Z" fill="#2b88b7" opacity="1.00" stroke="#2b88b7" stroke-width="0.25"/>
<path d="M 91.23 386.46 C 100.13 388.78 109.48 390.20 118.68 389.44 C 119.87 390.15 120.62 391.56 122.02 391.89 C 124.05 392.01 126.08 391.81 128.10 391.61 C 127.25 392.60 126.39 393.58 125.54 394.58 C 125.00 394.53 123.93 394.43 123.39 394.37 C 112.39 393.43 101.64 390.82 90.74 389.18 C 89.98 389.04 88.46 388.74 87.70 388.60 C 87.09 388.31 85.89 387.74 85.29 387.45 C 87.29 387.23 89.27 386.90 91.23 386.46 Z" fill="#2b88b7" opacity="1.00" stroke="#2b88b7" stroke-width="0.25"/>
<path d="M 434.89 387.07 C 435.44 386.62 436.00 386.18 436.56 385.75 C 436.83 386.28 437.37 387.33 437.64 387.86 C 436.85 389.11 436.51 390.52 436.62 392.01 C 432.53 395.73 428.59 399.71 423.82 402.58 C 424.39 403.15 424.95 403.74 425.52 404.33 C 430.93 399.97 435.79 394.92 441.41 390.83 C 435.94 396.53 429.75 401.43 423.87 406.68 C 423.72 406.53 423.41 406.24 423.26 406.10 L 424.60 405.11 C 424.00 404.56 423.40 404.02 422.80 403.49 C 421.61 404.35 420.44 405.23 419.25 406.09 C 423.54 400.20 429.73 396.17 434.76 391.00 C 433.07 391.52 431.46 392.14 429.80 392.69 C 432.09 391.46 434.39 390.23 436.64 388.92 C 436.21 388.46 435.33 387.53 434.89 387.07 Z" fill="#adeffe" opacity="1.00" stroke="#adeffe" stroke-width="0.25"/>
<path d="M 87.70 388.60 C 88.46 388.74 89.98 389.04 90.74 389.18 C 90.69 390.86 90.65 392.53 90.54 394.21 C 90.25 395.50 89.90 396.78 89.53 398.05 C 88.07 395.52 87.63 392.61 87.72 389.73 L 87.70 388.60 Z" fill="#052746" opacity="1.00" stroke="#052746" stroke-width="0.25"/>
<path d="M 90.74 389.18 C 101.64 390.82 112.39 393.43 123.39 394.37 C 123.45 396.73 123.50 399.09 123.54 401.46 C 119.61 401.11 115.68 400.85 111.76 400.42 C 113.17 399.77 114.59 399.11 116.01 398.45 C 114.57 397.26 113.12 395.69 111.05 396.00 C 104.18 395.99 97.23 396.02 90.54 394.21 C 90.65 392.53 90.69 390.86 90.74 389.18 Z" fill="#206793" opacity="1.00" stroke="#206793" stroke-width="0.25"/>
<path d="M 123.39 394.37 C 123.93 394.43 125.00 394.53 125.54 394.58 C 126.34 397.05 127.18 399.50 128.02 401.96 C 126.52 401.79 125.04 401.61 123.54 401.46 C 123.50 399.09 123.45 396.73 123.39 394.37 Z" fill="#052746" opacity="1.00" stroke="#052746" stroke-width="0.25"/>
<path d="M 126.93 395.39 C 130.68 395.47 134.54 394.95 138.18 396.15 C 135.55 398.92 131.31 396.84 128.00 397.00 C 127.73 396.59 127.19 395.79 126.93 395.39 Z" fill="#2b88b7" opacity="1.00" stroke="#2b88b7" stroke-width="0.25"/>
<path d="M 402.69 406.72 C 407.14 403.44 411.76 400.37 415.77 396.54 C 415.85 397.32 416.02 398.87 416.10 399.64 C 391.60 417.35 367.90 436.87 339.95 449.01 C 341.75 447.71 343.52 446.39 345.14 444.87 C 350.79 441.44 356.33 437.81 361.72 433.97 C 362.82 433.20 363.97 432.47 365.14 431.79 C 378.20 424.30 390.65 415.76 402.69 406.72 Z" fill="#ffffff" opacity="1.00" stroke="#ffffff" stroke-width="0.25"/>
<path d="M 432.32 404.80 C 432.27 402.90 433.73 400.68 435.86 401.39 C 436.03 402.92 433.70 404.59 432.32 404.80 Z" fill="#206793" opacity="1.00" stroke="#206793" stroke-width="0.25"/>
<path d="M 127.41 410.56 C 127.90 410.49 128.86 410.34 129.35 410.26 C 129.83 412.37 130.28 414.50 130.67 416.64 C 130.08 416.60 128.92 416.52 128.34 416.48 C 127.43 414.62 127.30 412.59 127.41 410.56 Z" fill="#052746" opacity="1.00" stroke="#052746" stroke-width="0.25"/>
<path d="M 364.72 412.46 C 365.27 412.43 366.37 412.36 366.92 412.33 C 366.49 413.46 366.07 414.58 365.66 415.71 C 364.94 415.75 363.51 415.82 362.79 415.86 C 363.40 414.70 364.05 413.57 364.72 412.46 Z" fill="#052746" opacity="1.00" stroke="#052746" stroke-width="0.25"/>
<path d="M 60.81 414.43 C 66.67 414.30 72.08 417.22 77.77 418.34 C 79.46 419.17 82.51 419.13 82.59 421.54 C 82.34 421.47 81.85 421.32 81.60 421.25 C 74.65 419.09 67.30 417.85 60.81 414.43 Z" fill="#206793" opacity="1.00" stroke="#206793" stroke-width="0.25"/>
<path d="M 168.61 421.90 C 173.64 420.70 179.05 421.11 183.86 419.05 C 184.22 420.35 184.58 421.65 184.95 422.96 C 181.30 422.92 177.64 422.29 174.03 423.11 C 171.12 423.74 168.12 423.80 165.28 422.82 C 166.11 422.59 167.78 422.13 168.61 421.90 Z" fill="#206793" opacity="1.00" stroke="#206793" stroke-width="0.25"/>
<path d="M 183.86 419.05 L 184.96 418.66 C 187.43 418.64 188.29 420.63 188.86 422.66 C 187.88 422.74 185.92 422.88 184.95 422.96 C 184.58 421.65 184.22 420.35 183.86 419.05 Z" fill="#052746" opacity="1.00" stroke="#052746" stroke-width="0.25"/>
<path d="M 362.40 421.22 C 363.49 420.63 364.58 420.06 365.68 419.49 C 365.38 423.58 365.18 427.68 365.14 431.79 C 363.97 432.47 362.82 433.20 361.72 433.97 C 361.09 429.71 361.82 425.44 362.40 421.22 Z" fill="#052746" opacity="1.00" stroke="#052746" stroke-width="0.25"/>
<path d="M 127.69 422.84 C 141.31 421.95 154.98 422.65 168.61 421.90 C 167.78 422.13 166.11 422.59 165.28 422.82 C 152.81 424.31 140.16 424.21 127.69 422.84 Z" fill="#ffffff" opacity="1.00" stroke="#ffffff" stroke-width="0.25"/>
<path d="M 180.19 431.89 C 182.45 429.60 184.69 427.25 187.32 425.39 C 188.38 427.64 189.72 429.76 191.56 431.46 C 191.70 432.35 191.83 433.23 191.97 434.14 C 188.59 431.47 184.27 431.50 180.19 431.89 Z" fill="#206793" opacity="1.00" stroke="#206793" stroke-width="0.25"/>
<path d="M 187.32 425.39 C 188.24 425.37 190.07 425.34 190.98 425.32 C 191.98 427.41 193.02 429.51 194.35 431.42 C 195.03 432.20 196.38 433.76 197.06 434.53 C 195.38 435.68 193.52 435.23 191.97 434.14 C 191.83 433.23 191.70 432.35 191.56 431.46 C 189.72 429.76 188.38 427.64 187.32 425.39 Z" fill="#052746" opacity="1.00" stroke="#052746" stroke-width="0.25"/>
<path d="M 323.31 433.36 C 330.10 430.98 336.14 426.81 343.11 424.91 C 342.36 430.14 336.31 431.00 332.42 433.11 C 333.25 434.19 334.50 435.10 334.74 436.54 C 333.68 437.27 332.57 437.91 331.47 438.57 C 332.17 439.24 332.86 439.91 333.56 440.60 L 333.78 440.81 C 325.48 445.78 317.15 450.73 309.00 455.94 C 299.02 461.29 289.33 467.23 278.93 471.77 C 280.63 468.64 284.27 467.60 287.22 466.06 C 287.48 465.57 287.99 464.61 288.24 464.12 C 291.57 462.28 294.69 460.04 298.18 458.48 C 297.27 458.47 295.45 458.43 294.54 458.41 C 297.74 453.82 300.29 448.81 303.56 444.26 C 302.54 444.37 301.52 444.48 300.50 444.59 C 297.60 449.29 292.90 453.43 292.36 459.18 L 292.26 460.04 C 284.64 462.37 277.11 465.02 269.41 467.11 C 269.48 467.67 269.61 468.79 269.68 469.35 C 261.99 471.29 254.78 474.76 247.04 476.53 C 248.06 475.77 249.09 475.03 250.13 474.29 C 248.09 474.45 245.60 474.73 245.40 471.98 C 239.47 473.80 233.57 475.69 227.61 477.39 C 224.99 478.10 222.12 477.08 219.66 478.48 C 216.31 480.07 212.62 480.68 208.93 480.48 C 209.77 479.41 210.83 478.61 212.13 478.07 C 209.42 478.29 206.59 478.99 203.96 477.97 C 208.91 473.42 215.75 471.90 221.63 468.91 C 222.73 468.65 223.83 468.40 224.93 468.16 C 225.13 467.92 225.51 467.44 225.70 467.20 C 228.57 465.32 231.56 463.63 234.68 462.21 C 236.19 461.72 237.71 461.30 239.24 460.87 C 239.83 462.14 240.42 463.41 241.01 464.68 C 242.03 464.21 243.06 463.74 244.09 463.28 C 249.31 460.94 254.81 459.33 260.10 457.19 C 261.46 456.62 262.81 456.03 264.13 455.38 C 277.22 450.09 290.69 445.76 303.94 440.88 C 304.82 440.51 305.72 440.15 306.62 439.81 C 312.24 437.79 317.68 435.33 323.31 433.36 Z" fill="#2b88b7" opacity="1.00" stroke="#2b88b7" stroke-width="0.25"/>
<path d="M 367.22 438.98 C 368.51 438.27 369.88 437.75 371.26 437.24 C 369.00 440.96 364.72 442.76 361.14 444.98 C 363.25 443.06 365.28 441.06 367.22 438.98 Z" fill="#86afc2" opacity="1.00" stroke="#86afc2" stroke-width="0.25"/>
<path d="M 194.60 438.83 C 196.31 438.52 198.03 438.24 199.75 437.97 L 200.21 439.07 C 200.39 439.59 200.77 440.61 200.95 441.12 C 198.41 441.78 195.91 441.32 194.60 438.83 Z" fill="#052746" opacity="1.00" stroke="#052746" stroke-width="0.25"/>
<path d="M 363.42 439.65 C 363.23 437.88 366.82 437.17 367.22 438.98 C 366.14 439.62 364.64 440.02 363.42 439.65 Z" fill="#86afc2" opacity="1.00" stroke="#86afc2" stroke-width="0.25"/>
<path d="M 162.91 440.78 C 168.68 439.93 174.52 440.75 180.32 440.64 C 175.75 442.70 170.63 443.25 165.68 443.60 C 163.14 443.15 160.57 443.26 158.02 443.49 C 158.94 441.14 161.98 442.04 163.93 441.49 C 163.68 441.32 163.16 440.96 162.91 440.78 Z" fill="#86afc2" opacity="1.00" stroke="#86afc2" stroke-width="0.25"/>
<path d="M 237.97 442.48 C 240.57 442.46 243.17 442.47 245.78 442.52 C 245.28 445.53 243.48 448.02 241.80 450.48 C 246.39 451.14 249.35 447.13 253.17 445.42 C 255.41 444.39 258.21 442.55 260.27 444.91 C 256.89 446.91 252.58 447.83 250.40 451.39 C 248.49 454.33 245.56 456.37 242.43 457.86 L 241.80 457.87 C 242.90 456.61 243.99 455.34 245.08 454.07 C 243.06 454.52 241.05 454.98 239.04 455.45 C 238.03 454.80 237.03 454.17 236.03 453.54 C 231.88 455.22 227.48 456.57 222.95 455.87 C 229.44 453.71 235.44 450.44 241.64 447.61 C 243.29 447.01 244.43 445.10 243.61 443.42 C 241.79 443.10 239.94 443.18 238.13 443.41 L 237.97 442.48 Z" fill="#206793" opacity="1.00" stroke="#206793" stroke-width="0.25"/>
<path d="M 238.13 443.41 C 239.94 443.18 241.79 443.10 243.61 443.42 C 244.43 445.10 243.29 447.01 241.64 447.61 C 235.44 450.44 229.44 453.71 222.95 455.87 C 227.48 456.57 231.88 455.22 236.03 453.54 C 237.03 454.17 238.03 454.80 239.04 455.45 C 241.05 454.98 243.06 454.52 245.08 454.07 C 243.99 455.34 242.90 456.61 241.80 457.87 C 241.14 457.87 239.81 457.85 239.14 457.85 C 232.48 458.71 226.20 461.59 219.61 462.94 C 218.43 463.46 217.27 463.44 216.12 462.89 C 214.98 461.96 214.63 460.60 214.42 459.23 C 215.34 458.53 216.26 457.82 217.17 457.11 C 215.58 457.80 214.00 458.51 212.46 459.32 C 209.84 460.74 206.87 461.23 204.03 462.00 C 191.22 465.31 178.16 467.58 165.04 469.18 C 162.70 469.48 160.37 468.41 158.04 468.95 C 155.31 469.44 152.55 469.73 149.77 469.69 C 150.14 468.71 150.84 468.15 151.88 468.01 C 162.72 466.07 173.61 464.13 184.27 461.30 C 173.60 461.60 162.99 463.60 152.32 463.39 C 150.43 462.97 148.56 462.48 146.66 462.14 C 156.13 460.75 165.76 460.08 174.97 457.25 C 187.36 454.44 199.13 449.55 211.37 446.27 C 213.34 446.64 215.27 447.14 217.22 447.63 C 217.41 448.70 217.60 449.76 217.80 450.84 C 224.01 449.38 229.63 446.21 235.71 444.31 C 236.31 444.08 237.52 443.63 238.13 443.41 Z" fill="#2b88b7" opacity="1.00" stroke="#2b88b7" stroke-width="0.25"/>
<path d="M 159.94 448.33 C 169.27 447.52 178.44 445.58 187.72 444.35 C 187.49 444.68 187.03 445.34 186.80 445.67 C 184.48 445.68 182.23 446.25 179.98 446.76 C 173.10 448.39 166.07 449.26 159.06 450.06 C 159.28 449.63 159.72 448.76 159.94 448.33 Z" fill="#adeffe" opacity="1.00" stroke="#adeffe" stroke-width="0.25"/>
<path d="M 300.50 444.59 C 301.52 444.48 302.54 444.37 303.56 444.26 C 300.29 448.81 297.74 453.82 294.54 458.41 C 293.80 458.66 293.08 458.92 292.36 459.18 C 292.90 453.43 297.60 449.29 300.50 444.59 Z" fill="#052746" opacity="1.00" stroke="#052746" stroke-width="0.25"/>
<path d="M 377.87 444.95 L 378.04 445.72 C 378.25 446.68 378.47 447.64 378.71 448.60 C 374.30 451.73 369.85 454.99 364.86 457.14 C 368.93 454.00 372.75 450.44 377.27 447.97 C 377.42 447.22 377.72 445.71 377.87 444.95 Z" fill="#206793" opacity="1.00" stroke="#206793" stroke-width="0.25"/>
<path d="M 224.01 450.83 C 227.86 448.14 232.42 446.07 237.20 446.23 C 233.32 448.86 228.74 450.68 224.01 450.83 Z" fill="#206793" opacity="1.00" stroke="#206793" stroke-width="0.25"/>
<path d="M 261.63 450.37 C 262.53 450.35 264.34 450.29 265.24 450.26 C 264.89 451.96 264.55 453.68 264.13 455.38 C 262.81 456.03 261.46 456.62 260.10 457.19 C 260.71 454.94 261.35 452.69 261.63 450.37 Z" fill="#052746" opacity="1.00" stroke="#052746" stroke-width="0.25"/>
<path d="M 212.46 459.32 C 214.00 458.51 215.58 457.80 217.17 457.11 C 216.26 457.82 215.34 458.53 214.42 459.23 C 214.63 460.60 214.98 461.96 216.12 462.89 C 217.27 463.44 218.43 463.46 219.61 462.94 C 221.26 464.48 222.84 466.09 224.38 467.75 C 224.71 467.61 225.37 467.34 225.70 467.20 C 225.51 467.44 225.13 467.92 224.93 468.16 C 223.83 468.40 222.73 468.65 221.63 468.91 C 219.87 467.87 218.62 466.20 217.03 464.96 C 216.02 464.04 214.55 463.34 214.46 461.80 C 214.17 461.44 213.60 460.74 213.31 460.38 L 211.91 460.36 L 212.46 459.32 Z" fill="#052746" opacity="1.00" stroke="#052746" stroke-width="0.25"/>
<path d="M 219.61 462.94 C 226.20 461.59 232.48 458.71 239.14 457.85 C 239.23 458.49 239.41 459.76 239.50 460.40 C 237.87 460.93 236.25 461.49 234.68 462.21 C 231.56 463.63 228.57 465.32 225.70 467.20 C 225.37 467.34 224.71 467.61 224.38 467.75 C 222.84 466.09 221.26 464.48 219.61 462.94 Z" fill="#ffffff" opacity="1.00" stroke="#ffffff" stroke-width="0.25"/>
<path d="M 239.14 457.85 C 239.81 457.85 241.14 457.87 241.80 457.87 L 242.43 457.86 C 242.98 459.66 243.54 461.47 244.09 463.28 C 243.06 463.74 242.03 464.21 241.01 464.68 C 240.42 463.41 239.83 462.14 239.24 460.87 C 237.71 461.30 236.19 461.72 234.68 462.21 C 236.25 461.49 237.87 460.93 239.50 460.40 C 239.41 459.76 239.23 458.49 239.14 457.85 Z" fill="#052746" opacity="1.00" stroke="#052746" stroke-width="0.25"/>
<path d="M 336.45 461.40 C 338.79 462.43 333.74 465.80 333.25 463.48 C 333.73 462.21 335.16 461.49 336.45 461.40 Z" fill="#86afc2" opacity="1.00" stroke="#86afc2" stroke-width="0.25"/>
<path d="M 128.88 463.70 C 134.60 461.95 140.75 462.70 146.66 462.14 C 148.56 462.48 150.43 462.97 152.32 463.39 C 144.55 463.96 136.59 465.38 128.88 463.70 Z" fill="#206793" opacity="1.00" stroke="#206793" stroke-width="0.25"/>
<path d="M 334.94 486.27 C 346.30 477.78 358.09 469.88 369.37 461.27 L 369.18 463.08 C 368.85 464.32 367.47 464.84 366.62 465.69 C 358.51 471.92 350.11 477.76 341.82 483.75 C 339.06 485.72 336.17 487.50 333.08 488.91 C 333.41 487.85 333.97 486.86 334.94 486.27 Z" fill="#206793" opacity="1.00" stroke="#206793" stroke-width="0.25"/>
<path d="M 257.46 465.44 C 258.59 465.38 259.72 465.32 260.85 465.27 C 260.65 466.63 260.46 468.00 260.28 469.38 C 258.90 469.89 257.52 470.37 256.12 470.81 C 256.51 469.00 256.97 467.22 257.46 465.44 Z" fill="#052746" opacity="1.00" stroke="#052746" stroke-width="0.25"/>
<path d="M 236.85 490.66 C 251.65 485.71 266.36 480.42 280.63 474.09 C 280.95 474.70 281.60 475.93 281.92 476.54 C 272.78 479.11 264.10 483.05 255.12 486.12 C 249.15 488.06 243.26 490.76 236.85 490.66 Z" fill="#206793" opacity="1.00" stroke="#206793" stroke-width="0.25"/>
<path d="M 283.50 477.33 C 284.62 477.30 285.75 477.31 286.87 477.37 L 287.53 478.47 C 279.58 483.90 270.13 486.62 261.45 490.65 C 261.36 490.43 261.19 489.98 261.11 489.75 C 265.15 487.58 269.15 485.32 273.23 483.22 C 276.61 481.53 279.74 479.21 283.50 478.40 L 283.50 477.33 Z" fill="#206793" opacity="1.00" stroke="#206793" stroke-width="0.25"/>
</svg>