<svg xmlns="http://www.w3.org/2000/svg" height="512pt" version="1.1" viewBox="0 0 512 512" width="512pt">

<path d="M 301.83 137.64 C 306.92 135.34 313.34 135.19 317.54 139.36 C 323.18 143.67 322.90 152.14 319.58 157.80 C 312.10 170.89 304.32 183.83 296.63 196.81 C 285.57 216.04 273.53 234.82 264.58 255.18 C 263.05 259.84 260.43 264.47 260.85 269.52 C 261.39 274.33 265.71 277.18 268.34 280.83 C 272.13 286.70 272.63 294.31 270.52 300.89 C 267.51 310.87 260.73 319.18 253.32 326.28 C 242.38 335.36 229.54 343.32 215.10 344.75 C 208.63 345.30 201.01 344.94 196.50 339.57 C 190.20 332.60 190.72 322.30 192.82 313.76 C 197.91 294.61 211.45 278.18 228.48 268.30 C 232.50 265.85 237.08 264.69 241.53 263.32 C 247.71 260.72 250.79 254.35 253.80 248.80 C 256.36 243.64 258.86 238.44 261.21 233.18 C 272.44 205.19 282.86 176.90 293.88 148.84 C 295.44 144.45 297.99 140.37 301.83 137.64 Z" fill="#063152" opacity="1.00" stroke="#063152" stroke-width="0.25" data-index="1"></path>
<path d="M 304.58 152.66 C 305.77 151.81 308.32 152.18 308.49 153.93 C 309.03 158.44 306.21 162.41 304.70 166.48 C 303.51 169.39 301.43 173.92 297.48 172.46 C 294.69 170.45 295.47 166.32 296.53 163.57 C 298.63 159.58 301.09 155.58 304.58 152.66 Z" fill="#ffffff" opacity="1.00" stroke="#ffffff" stroke-width="0.25" data-index="2"></path>
<path d="M 259.39 246.38 C 262.02 241.56 263.53 236.14 266.82 231.70 C 267.58 231.89 269.10 232.29 269.86 232.48 C 269.43 237.00 266.67 240.76 264.98 244.86 C 261.56 252.66 256.52 260.22 256.31 269.00 C 256.14 273.94 259.62 277.81 262.85 281.11 C 268.61 287.26 268.34 296.79 264.87 304.01 C 260.97 311.96 254.73 318.57 247.83 324.02 C 242.69 326.01 238.23 329.54 232.82 330.89 C 227.63 332.17 222.35 333.54 216.97 333.46 C 212.63 333.25 207.76 331.58 205.61 327.52 C 202.47 321.63 204.20 314.68 205.12 308.45 C 205.15 309.89 205.19 311.33 205.25 312.78 C 208.07 301.10 217.07 292.02 227.17 286.11 C 232.76 282.42 239.67 280.44 246.33 281.73 C 252.38 283.12 257.52 288.52 257.75 294.87 C 258.58 299.20 256.06 303.27 256.58 307.57 C 260.63 303.90 261.05 298.05 260.76 292.94 C 260.55 287.40 256.82 282.45 252.07 279.86 C 246.12 276.57 238.82 276.68 232.51 278.79 C 226.65 280.84 221.91 284.96 216.93 288.50 C 216.44 288.57 215.47 288.70 214.99 288.77 C 208.74 294.20 204.57 301.50 200.20 308.42 C 204.82 293.00 216.47 280.36 230.05 272.13 C 235.83 268.45 243.38 268.37 248.51 263.56 C 253.73 258.99 256.19 252.34 259.39 246.38 Z" fill="#91e8fe" opacity="1.00" stroke="#91e8fe" stroke-width="0.25" data-index="3"></path>
<path d="M 232.51 278.79 C 238.82 276.68 246.12 276.57 252.07 279.86 C 256.82 282.45 260.55 287.40 260.76 292.94 C 261.05 298.05 260.63 303.90 256.58 307.57 C 256.06 303.27 258.58 299.20 257.75 294.87 C 257.52 288.52 252.38 283.12 246.33 281.73 C 239.67 280.44 232.76 282.42 227.17 286.11 C 217.07 292.02 208.07 301.10 205.25 312.78 C 205.19 311.33 205.15 309.89 205.12 308.45 C 206.93 300.78 211.35 293.97 216.93 288.50 C 221.91 284.96 226.65 280.84 232.51 278.79 Z" fill="#063152" opacity="1.00" stroke="#063152" stroke-width="0.25" data-index="4"></path>
<path d="M 214.99 288.77 C 215.47 288.70 216.44 288.57 216.93 288.50 C 211.35 293.97 206.93 300.78 205.12 308.45 C 204.20 314.68 202.47 321.63 205.61 327.52 C 207.76 331.58 212.63 333.25 216.97 333.46 C 222.35 333.54 227.63 332.17 232.82 330.89 C 238.23 329.54 242.69 326.01 247.83 324.02 C 240.12 330.63 230.90 335.45 221.13 338.21 C 215.26 339.76 208.70 340.53 202.97 338.07 C 199.01 336.49 197.41 332.03 196.77 328.15 C 196.21 321.45 197.29 314.50 200.20 308.42 C 204.57 301.50 208.74 294.20 214.99 288.77 Z" fill="#ffffff" opacity="1.00" stroke="#ffffff" stroke-width="0.25" data-index="5"></path>

</svg>