<?xml version="1.0" encoding="utf-8"?>
<svg xmlns="http://www.w3.org/2000/svg" height="512pt" version="1.1" viewBox="0 0 512 512" width="512pt">
<path d="M 0.00 0.00 L 512.00 0.00 L 512.00 512.00 L 0.00 512.00 L 0.00 0.00 Z" fill="transparent" opacity="1.00" stroke="transparent" stroke-width="0.25"/>
<path d="M 245.42 69.67 C 256.02 66.60 268.06 68.44 276.94 75.11 C 283.49 79.66 288.46 86.24 291.45 93.60 C 298.00 109.58 304.76 125.48 311.43 141.42 C 313.48 146.09 314.76 151.22 317.95 155.29 C 321.53 159.79 327.23 162.39 332.94 162.58 C 353.33 163.69 373.68 165.31 394.07 166.42 C 404.84 167.23 415.51 172.14 422.28 180.69 C 426.86 186.79 430.06 194.26 429.81 202.00 C 430.27 212.48 425.41 222.71 417.74 229.70 C 403.24 243.24 388.12 256.08 373.50 269.47 C 370.31 272.36 366.54 274.87 364.56 278.83 C 362.34 283.08 362.55 288.08 363.60 292.63 C 368.15 311.55 372.46 330.52 376.78 349.49 C 378.06 354.54 379.11 359.74 378.82 364.98 C 378.51 376.69 372.84 388.52 362.88 394.98 C 350.26 403.88 332.47 403.31 319.47 395.47 C 302.93 385.81 286.77 375.52 270.38 365.61 C 265.62 362.75 260.92 358.59 254.96 359.20 C 249.94 359.09 245.99 362.50 241.93 364.92 C 224.97 375.29 208.18 385.93 191.04 395.99 C 180.86 402.04 168.07 402.98 156.92 399.26 C 147.72 396.04 139.78 389.04 135.88 380.06 C 132.38 372.27 131.41 363.38 133.19 355.03 C 137.86 334.30 142.72 313.61 147.52 292.91 C 148.69 288.37 148.93 283.33 146.68 279.08 C 145.15 275.84 142.42 273.44 139.67 271.25 C 126.71 259.55 113.68 247.93 100.62 236.35 C 94.52 230.72 87.81 225.21 84.37 217.44 C 80.53 208.97 80.64 199.07 83.54 190.34 C 87.49 179.78 96.74 171.46 107.55 168.37 C 113.54 166.48 119.84 166.17 126.07 165.99 C 143.73 164.84 161.39 163.69 179.05 162.57 C 185.95 162.22 192.80 158.23 195.56 151.71 C 202.29 135.43 209.14 119.19 216.01 102.96 C 218.30 97.65 219.86 91.97 223.14 87.14 C 228.31 79.06 236.07 72.30 245.42 69.67 Z" fill="#012f4d" opacity="1.00" stroke="#012f4d" stroke-width="0.25"/>
<path d="M 222.63 91.41 C 228.47 79.26 241.09 69.67 255.00 69.88 C 271.13 69.24 285.85 81.27 290.73 96.25 C 297.75 112.90 304.60 129.63 311.70 146.25 C 313.26 149.97 314.43 154.00 317.20 157.04 C 321.43 161.66 327.65 164.01 333.83 164.18 C 353.89 165.12 373.88 167.23 393.96 167.83 C 393.27 168.64 392.60 169.44 391.92 170.25 C 395.07 171.85 398.46 172.86 401.94 173.43 C 401.33 173.59 400.11 173.90 399.49 174.05 C 399.82 175.13 400.15 176.21 400.48 177.29 C 401.82 177.64 403.27 177.79 404.46 178.56 C 403.88 181.31 402.50 183.77 401.40 186.32 C 400.91 187.51 400.41 188.71 400.19 189.99 C 400.68 192.16 403.29 191.69 404.95 191.86 C 405.51 191.80 406.62 191.68 407.18 191.62 C 407.14 188.33 406.79 185.07 406.34 181.82 C 408.15 183.06 409.97 184.31 411.77 185.58 C 412.21 183.94 412.65 182.31 413.09 180.68 C 413.43 184.38 413.96 188.06 414.60 191.72 C 415.65 191.72 416.71 191.74 417.77 191.75 C 418.24 194.12 418.73 196.49 419.23 198.86 C 418.73 200.32 418.23 201.77 417.73 203.22 C 419.11 202.32 420.50 201.42 421.88 200.52 C 421.81 203.57 421.78 206.62 421.79 209.68 C 422.56 209.21 423.33 208.73 424.11 208.26 C 424.85 209.99 425.59 211.71 426.35 213.44 L 426.57 213.95 C 422.06 226.38 410.37 233.54 401.43 242.48 C 390.36 252.00 379.82 262.13 368.57 271.45 C 368.69 270.06 367.98 268.29 369.28 267.25 C 372.01 264.61 375.62 263.04 378.15 260.17 C 381.42 256.76 382.05 251.87 383.69 247.63 C 382.92 247.61 382.15 247.60 381.39 247.59 C 379.85 246.12 378.18 244.75 376.97 242.99 C 375.64 240.56 375.73 237.38 373.53 235.46 C 371.83 233.79 369.92 232.36 368.06 230.88 C 367.88 228.95 367.71 227.03 367.54 225.11 C 366.78 226.06 366.03 227.02 365.28 227.97 C 364.50 226.70 363.72 225.43 362.95 224.16 C 364.46 223.97 365.97 223.79 367.50 223.61 C 367.03 222.15 366.04 220.59 367.11 219.14 C 368.21 217.37 366.54 215.80 365.71 214.31 C 363.57 215.70 361.50 217.26 359.14 218.27 C 358.01 217.49 357.02 216.54 356.00 215.64 C 354.56 215.48 353.13 215.32 351.70 215.17 C 354.36 213.32 356.84 211.24 359.19 209.01 C 357.03 208.80 354.86 208.61 352.70 208.38 C 346.62 206.05 340.05 206.43 333.71 205.51 C 336.24 204.43 339.00 204.29 341.71 204.56 C 342.09 204.10 342.86 203.20 343.25 202.74 C 339.94 202.28 336.59 202.41 333.32 203.12 C 335.42 201.64 336.97 199.64 336.87 196.95 C 335.05 195.92 332.43 195.49 331.69 193.24 C 329.60 189.59 333.91 187.06 335.48 184.21 C 334.00 185.02 332.53 185.87 331.07 186.72 C 330.33 186.22 329.62 185.73 328.90 185.23 C 328.52 186.60 328.07 187.95 327.68 189.33 C 326.79 188.60 325.90 187.88 325.02 187.15 C 326.79 184.27 328.27 181.13 327.87 177.64 C 327.28 178.93 326.72 180.24 326.18 181.55 C 324.73 181.94 323.28 182.33 321.83 182.73 C 321.31 184.26 320.81 185.80 320.23 187.32 C 319.84 187.33 319.06 187.36 318.67 187.38 C 318.65 186.21 318.63 185.03 318.61 183.87 C 317.79 183.75 316.14 183.51 315.31 183.39 C 315.00 183.16 314.37 182.71 314.05 182.48 C 315.30 181.77 316.56 181.06 317.82 180.36 C 316.66 180.15 315.50 179.94 314.36 179.74 C 314.90 178.97 315.45 178.20 316.00 177.44 C 314.76 177.67 313.53 177.91 312.30 178.15 C 312.49 177.82 312.87 177.16 313.06 176.83 C 312.38 174.03 311.93 171.19 311.56 168.34 C 306.41 168.92 302.50 165.12 297.59 164.59 C 297.81 163.86 298.04 163.14 298.28 162.42 C 297.42 161.42 296.58 160.42 295.73 159.42 C 296.43 159.58 297.83 159.92 298.53 160.08 C 299.52 160.33 300.50 160.54 301.50 160.77 C 301.44 159.27 301.37 157.78 301.30 156.29 C 300.02 156.82 298.74 157.35 297.46 157.88 C 297.17 157.81 296.57 157.69 296.27 157.63 C 297.25 156.06 298.26 154.51 299.08 152.85 C 298.82 152.71 298.29 152.41 298.03 152.26 C 295.89 153.52 293.54 154.20 291.05 154.20 C 292.18 152.00 295.94 149.82 293.69 147.21 C 290.07 146.19 289.38 150.05 289.39 152.70 C 289.02 153.03 288.27 153.69 287.90 154.02 C 287.72 151.52 287.94 149.02 288.43 146.56 C 286.43 146.52 284.43 146.45 282.43 146.39 C 279.90 143.69 276.95 141.38 274.67 138.46 C 272.71 135.32 271.80 131.68 270.49 128.25 C 267.50 128.09 264.42 128.32 261.52 127.46 C 258.10 125.11 256.30 121.17 255.29 117.28 C 253.67 118.27 252.04 119.26 250.42 120.25 C 250.99 118.64 251.57 117.04 252.17 115.44 C 249.72 117.15 247.01 119.11 243.90 117.75 C 243.85 117.14 243.75 115.93 243.70 115.32 C 244.95 115.84 246.23 116.32 247.51 116.79 C 248.38 114.75 248.00 112.84 246.41 111.29 C 245.70 111.71 244.27 112.55 243.56 112.96 C 243.59 113.49 243.63 114.55 243.66 115.08 C 243.38 114.64 242.82 113.76 242.55 113.32 C 242.54 111.71 242.68 110.11 242.77 108.51 C 240.64 106.73 239.79 104.20 239.67 101.50 C 238.33 102.26 236.99 103.02 235.55 103.59 C 235.89 101.99 236.24 100.39 236.57 98.79 C 235.24 98.58 233.92 98.36 232.59 98.16 C 231.97 97.30 231.35 96.45 230.74 95.60 C 229.60 97.33 228.17 98.85 226.16 99.54 C 227.10 98.02 228.10 96.53 229.12 95.06 C 227.96 93.98 227.05 92.37 225.37 92.07 C 224.54 92.94 223.79 93.88 223.03 94.81 C 222.93 93.96 222.73 92.26 222.63 91.41 Z" fill="#3072b2" opacity="1.00" stroke="#3072b2" stroke-width="0.25"/>
<path d="M 275.10 85.55 C 276.42 84.46 277.95 86.75 276.58 87.67 C 275.26 88.77 273.72 86.45 275.10 85.55 Z" fill="#71ade5" opacity="1.00" stroke="#71ade5" stroke-width="0.25"/>
<path d="M 200.22 144.31 C 207.74 126.70 215.08 109.01 222.63 91.41 C 222.73 92.26 222.93 93.96 223.03 94.81 C 223.79 93.88 224.54 92.94 225.37 92.07 C 227.05 92.37 227.96 93.98 229.12 95.06 C 228.10 96.53 227.10 98.02 226.16 99.54 C 228.17 98.85 229.60 97.33 230.74 95.60 C 231.35 96.45 231.97 97.30 232.59 98.16 C 232.40 99.61 232.22 101.06 232.06 102.52 C 233.22 102.89 234.38 103.24 235.55 103.59 C 236.99 103.02 238.33 102.26 239.67 101.50 C 239.79 104.20 240.64 106.73 242.77 108.51 C 242.68 110.11 242.54 111.71 242.55 113.32 C 242.82 113.76 243.38 114.64 243.66 115.08 C 243.67 115.14 243.69 115.26 243.70 115.32 C 243.75 115.93 243.85 117.14 243.90 117.75 C 247.01 119.11 249.72 117.15 252.17 115.44 C 251.57 117.04 250.99 118.64 250.42 120.25 C 252.04 119.26 253.67 118.27 255.29 117.28 C 256.30 121.17 258.10 125.11 261.52 127.46 C 264.42 128.32 267.50 128.09 270.49 128.25 C 271.80 131.68 272.71 135.32 274.67 138.46 C 276.95 141.38 279.90 143.69 282.43 146.39 C 284.43 146.45 286.43 146.52 288.43 146.56 C 287.94 149.02 287.72 151.52 287.90 154.02 C 288.27 153.69 289.02 153.03 289.39 152.70 C 289.38 150.05 290.07 146.19 293.69 147.21 C 295.94 149.82 292.18 152.00 291.05 154.20 C 293.54 154.20 295.89 153.52 298.03 152.26 C 298.29 152.41 298.82 152.71 299.08 152.85 C 298.26 154.51 297.25 156.06 296.27 157.63 C 296.57 157.69 297.17 157.81 297.46 157.88 C 297.73 158.43 298.27 159.53 298.53 160.08 C 297.83 159.92 296.43 159.58 295.73 159.42 C 296.58 160.42 297.42 161.42 298.28 162.42 C 298.04 163.14 297.81 163.86 297.59 164.59 C 302.50 165.12 306.41 168.92 311.56 168.34 C 311.93 171.19 312.38 174.03 313.06 176.83 C 312.87 177.16 312.49 177.82 312.30 178.15 C 313.53 177.91 314.76 177.67 316.00 177.44 C 315.45 178.20 314.90 178.97 314.36 179.74 C 315.50 179.94 316.66 180.15 317.82 180.36 C 316.56 181.06 315.30 181.77 314.05 182.48 C 314.37 182.71 315.00 183.16 315.31 183.39 C 315.42 184.72 315.46 186.06 315.53 187.40 C 316.57 187.40 317.62 187.39 318.67 187.38 C 319.06 187.36 319.84 187.33 320.23 187.32 C 320.81 185.80 321.31 184.26 321.83 182.73 C 323.28 182.33 324.73 181.94 326.18 181.55 C 326.72 180.24 327.28 178.93 327.87 177.64 C 328.27 181.13 326.79 184.27 325.02 187.15 C 325.90 187.88 326.79 188.60 327.68 189.33 C 328.07 187.95 328.52 186.60 328.90 185.23 C 329.62 185.73 330.33 186.22 331.07 186.72 C 332.53 185.87 334.00 185.02 335.48 184.21 C 333.91 187.06 329.60 189.59 331.69 193.24 C 332.43 195.49 335.05 195.92 336.87 196.95 C 336.97 199.64 335.42 201.64 333.32 203.12 C 336.59 202.41 339.94 202.28 343.25 202.74 C 342.86 203.20 342.09 204.10 341.71 204.56 C 339.00 204.29 336.24 204.43 333.71 205.51 C 340.05 206.43 346.62 206.05 352.70 208.38 C 348.14 208.46 343.58 208.44 339.02 208.24 C 328.02 207.73 316.99 208.11 305.99 207.57 C 297.76 207.15 289.51 207.02 281.27 206.87 C 274.02 187.90 266.16 169.18 258.85 150.24 C 257.94 147.90 256.73 145.70 255.43 143.56 C 248.41 160.10 241.99 176.89 235.12 193.49 C 232.90 191.22 232.03 188.27 232.45 185.15 C 231.46 184.52 230.46 183.90 229.47 183.29 C 229.24 182.06 229.01 180.83 228.79 179.60 C 230.28 180.03 231.77 180.46 233.27 180.88 C 232.58 179.46 231.89 178.04 231.21 176.62 C 230.50 176.77 229.09 177.08 228.39 177.24 C 227.97 179.74 227.51 182.24 226.96 184.72 C 226.11 181.15 226.53 177.14 224.61 173.91 C 222.26 170.09 216.42 171.61 214.11 167.74 C 213.01 165.59 213.13 163.02 212.03 160.88 C 210.05 159.31 207.68 160.78 205.69 161.48 C 206.37 162.35 207.05 163.21 207.74 164.08 C 206.99 164.00 205.51 163.83 204.77 163.74 C 204.35 163.83 203.50 164.01 203.08 164.10 C 202.16 162.70 201.38 161.08 199.94 160.13 C 197.52 159.25 194.91 159.20 192.38 158.86 C 196.48 154.91 198.13 149.42 200.22 144.31 Z" fill="#347cb9" opacity="1.00" stroke="#347cb9" stroke-width="0.25"/>
<path d="M 257.10 93.13 C 258.21 93.24 259.33 93.36 260.45 93.47 C 260.39 94.41 260.33 95.34 260.28 96.28 C 259.30 96.38 258.33 96.49 257.36 96.60 C 257.27 95.44 257.18 94.29 257.10 93.13 Z" fill="#e4ffff" opacity="1.00" stroke="#e4ffff" stroke-width="0.25"/>
<path d="M 269.36 97.19 C 272.21 96.52 275.21 99.36 272.07 101.56 C 269.06 102.00 269.03 99.32 269.36 97.19 Z" fill="#619fd4" opacity="1.00" stroke="#619fd4" stroke-width="0.25"/>
<path d="M 232.59 98.16 C 233.92 98.36 235.24 98.58 236.57 98.79 C 236.24 100.39 235.89 101.99 235.55 103.59 C 234.38 103.24 233.22 102.89 232.06 102.52 C 232.22 101.06 232.40 99.61 232.59 98.16 Z" fill="#f1ffff" opacity="1.00" stroke="#f1ffff" stroke-width="0.25"/>
<path d="M 243.56 112.96 C 244.27 112.55 245.70 111.71 246.41 111.29 C 248.00 112.84 248.38 114.75 247.51 116.79 C 246.23 116.32 244.95 115.84 243.70 115.32 C 243.69 115.26 243.67 115.14 243.66 115.08 C 243.63 114.55 243.59 113.49 243.56 112.96 Z" fill="#ebffff" opacity="1.00" stroke="#ebffff" stroke-width="0.25"/>
<path d="M 274.27 112.32 C 275.43 112.33 276.58 112.34 277.74 112.36 C 277.55 113.66 278.14 116.56 276.04 116.27 C 273.85 116.71 274.41 113.66 274.27 112.32 Z" fill="#e9ffff" opacity="1.00" stroke="#e9ffff" stroke-width="0.25"/>
<path d="M 282.55 121.14 C 283.14 121.15 284.32 121.17 284.91 121.17 C 284.74 122.94 284.57 124.70 284.41 126.46 C 286.28 126.41 288.16 126.37 290.04 126.38 C 289.23 127.24 288.40 128.10 287.58 128.95 C 287.55 129.21 287.49 129.72 287.46 129.98 C 288.88 130.84 290.04 131.99 290.80 133.49 C 288.52 133.39 286.27 133.08 284.03 132.68 C 283.30 134.36 282.82 136.41 280.62 136.68 C 280.88 134.91 281.18 133.16 281.51 131.40 C 279.90 130.97 278.29 130.54 276.68 130.14 C 276.47 129.56 276.05 128.39 275.84 127.81 C 277.64 127.59 279.43 127.40 281.24 127.22 C 281.65 125.19 282.09 123.16 282.55 121.14 Z" fill="#f8ffff" opacity="1.00" stroke="#f8ffff" stroke-width="0.25"/>
<path d="M 251.04 131.55 C 251.75 129.36 253.70 129.09 255.75 129.33 C 255.56 130.93 255.54 132.77 253.84 133.54 C 252.79 133.06 251.94 132.25 251.04 131.55 Z" fill="#e7ffff" opacity="1.00" stroke="#e7ffff" stroke-width="0.25"/>
<path d="M 219.37 142.29 C 219.32 140.15 216.92 133.90 221.09 135.73 C 221.46 137.55 221.67 139.40 221.89 141.24 C 224.07 141.36 226.29 141.59 228.06 143.01 C 226.51 144.02 224.92 144.97 223.31 145.87 C 223.63 147.53 223.94 149.20 224.25 150.87 C 221.97 150.75 221.29 148.30 220.10 146.79 C 218.41 146.71 215.84 148.19 215.04 145.99 C 215.08 143.71 217.89 143.43 219.37 142.29 Z" fill="#f8ffff" opacity="1.00" stroke="#f8ffff" stroke-width="0.25"/>
<path d="M 255.43 143.56 C 256.73 145.70 257.94 147.90 258.85 150.24 C 266.16 169.18 274.02 187.90 281.27 206.87 C 289.51 207.02 297.76 207.15 305.99 207.57 C 316.99 208.11 328.02 207.73 339.02 208.24 C 343.58 208.44 348.14 208.46 352.70 208.38 C 354.86 208.61 357.03 208.80 359.19 209.01 C 356.84 211.24 354.36 213.32 351.70 215.17 C 334.05 227.90 316.58 240.89 298.88 253.55 C 304.14 270.69 310.10 287.60 315.76 304.60 C 318.43 312.61 321.18 320.61 323.54 328.72 C 317.91 325.76 313.03 321.63 307.65 318.28 C 291.38 307.19 275.16 296.02 258.83 285.01 C 257.83 284.31 256.83 283.61 255.83 282.92 C 253.40 284.42 250.99 285.95 248.64 287.58 C 229.94 300.64 210.80 313.06 192.19 326.26 C 190.91 327.04 189.66 328.13 188.19 327.88 C 195.83 303.16 204.53 278.59 212.64 253.94 C 208.48 250.52 204.12 247.36 199.71 244.28 C 185.64 233.97 171.60 223.62 157.38 213.53 C 155.45 212.13 153.67 210.55 151.91 208.96 C 162.07 208.38 172.26 208.37 182.43 207.90 C 198.25 208.08 214.07 207.35 229.88 206.82 C 231.67 202.39 233.37 197.93 235.12 193.49 C 241.99 176.89 248.41 160.10 255.43 143.56 Z" fill="#103960" opacity="1.00" stroke="#103960" stroke-width="0.25"/>
<path d="M 242.36 147.95 C 243.99 147.46 244.55 148.02 244.03 149.65 C 242.40 150.14 241.84 149.57 242.36 147.95 Z" fill="#87caf9" opacity="1.00" stroke="#87caf9" stroke-width="0.25"/>
<path d="M 255.67 147.35 C 263.93 167.69 272.06 188.09 280.14 208.50 C 305.17 209.32 330.22 209.53 355.25 210.51 C 335.63 224.55 316.33 239.03 296.67 253.00 C 304.70 277.05 312.89 301.05 320.69 325.18 C 299.01 310.31 277.37 295.38 255.50 280.79 C 234.06 295.82 212.18 310.19 190.69 325.15 C 198.60 301.07 206.78 277.07 214.79 253.02 C 195.17 238.86 175.65 224.56 156.08 210.33 C 181.11 209.67 206.16 209.45 231.18 208.45 C 239.13 188.00 247.39 167.67 255.67 147.35 Z" fill="#ffffff" opacity="1.00" stroke="#ffffff" stroke-width="0.25"/>
<path d="M 276.49 155.48 C 277.54 155.44 278.59 155.41 279.64 155.38 C 279.62 156.44 279.61 157.50 279.59 158.56 C 278.60 158.51 277.61 158.46 276.62 158.41 C 276.57 157.43 276.53 156.45 276.49 155.48 Z" fill="#d9ffff" opacity="1.00" stroke="#d9ffff" stroke-width="0.25"/>
<path d="M 297.46 157.88 C 298.74 157.35 300.02 156.82 301.30 156.29 C 301.37 157.78 301.44 159.27 301.50 160.77 C 300.50 160.54 299.52 160.33 298.53 160.08 C 298.27 159.53 297.73 158.43 297.46 157.88 Z" fill="#e4ffff" opacity="1.00" stroke="#e4ffff" stroke-width="0.25"/>
<path d="M 181.09 163.93 C 185.32 163.54 188.98 161.21 192.38 158.86 C 194.91 159.20 197.52 159.25 199.94 160.13 C 201.38 161.08 202.16 162.70 203.08 164.10 C 204.07 165.41 204.63 165.29 204.77 163.74 C 205.51 163.83 206.99 164.00 207.74 164.08 C 207.05 163.21 206.37 162.35 205.69 161.48 C 207.68 160.78 210.05 159.31 212.03 160.88 C 213.13 163.02 213.01 165.59 214.11 167.74 C 216.42 171.61 222.26 170.09 224.61 173.91 C 226.53 177.14 226.11 181.15 226.96 184.72 C 227.51 182.24 227.97 179.74 228.39 177.24 C 229.09 177.08 230.50 176.77 231.21 176.62 C 231.89 178.04 232.58 179.46 233.27 180.88 C 231.77 180.46 230.28 180.03 228.79 179.60 C 229.01 180.83 229.24 182.06 229.47 183.29 C 230.46 183.90 231.46 184.52 232.45 185.15 C 232.03 188.27 232.90 191.22 235.12 193.49 C 233.37 197.93 231.67 202.39 229.88 206.82 C 214.07 207.35 198.25 208.08 182.43 207.90 C 175.61 206.28 168.59 206.33 161.66 205.60 C 164.62 204.22 167.87 203.74 171.11 203.59 C 168.13 203.33 165.20 202.68 162.45 201.49 C 165.39 200.39 169.01 199.79 170.14 196.38 C 166.94 196.58 163.60 197.61 160.45 196.60 C 158.79 194.04 158.26 190.97 157.54 188.06 C 156.86 190.69 156.84 193.85 154.69 195.79 C 153.06 196.40 151.41 194.98 149.83 194.57 C 151.24 194.16 152.65 193.77 154.06 193.38 C 153.82 192.73 153.58 192.08 153.33 191.43 C 152.66 190.13 150.91 188.66 149.68 190.24 C 149.59 191.06 149.41 192.69 149.32 193.51 C 148.90 193.60 148.05 193.79 147.63 193.88 C 147.41 192.64 147.18 191.39 147.20 190.13 C 147.93 188.74 149.58 188.16 150.75 187.21 C 147.58 187.76 144.36 187.57 141.22 186.92 C 142.77 185.76 145.08 185.19 145.84 183.24 C 144.24 180.85 141.74 179.28 140.01 177.02 C 139.59 175.04 140.00 173.02 140.23 171.05 C 136.55 170.02 132.93 168.79 129.30 167.61 C 146.51 165.86 163.84 165.28 181.09 163.93 Z" fill="#3b8bc5" opacity="1.00" stroke="#3b8bc5" stroke-width="0.25"/>
<path d="M 203.08 164.10 C 203.50 164.01 204.35 163.83 204.77 163.74 C 204.63 165.29 204.07 165.41 203.08 164.10 Z" fill="#85d1ff" opacity="1.00" stroke="#85d1ff" stroke-width="0.25"/>
<path d="M 98.32 174.36 C 107.40 168.37 118.72 167.36 129.30 167.61 C 132.93 168.79 136.55 170.02 140.23 171.05 C 140.00 173.02 139.59 175.04 140.01 177.02 C 141.74 179.28 144.24 180.85 145.84 183.24 C 145.08 185.19 142.77 185.76 141.22 186.92 C 144.36 187.57 147.58 187.76 150.75 187.21 C 149.58 188.16 147.93 188.74 147.20 190.13 C 147.18 191.39 147.41 192.64 147.63 193.88 C 148.05 193.79 148.90 193.60 149.32 193.51 C 150.70 192.89 152.02 192.17 153.33 191.43 C 153.58 192.08 153.82 192.73 154.06 193.38 C 152.65 193.77 151.24 194.16 149.83 194.57 C 151.41 194.98 153.06 196.40 154.69 195.79 C 156.84 193.85 156.86 190.69 157.54 188.06 C 158.26 190.97 158.79 194.04 160.45 196.60 C 163.60 197.61 166.94 196.58 170.14 196.38 C 169.01 199.79 165.39 200.39 162.45 201.49 C 165.20 202.68 168.13 203.33 171.11 203.59 C 167.87 203.74 164.62 204.22 161.66 205.60 C 168.59 206.33 175.61 206.28 182.43 207.90 C 172.26 208.37 162.07 208.38 151.91 208.96 C 153.67 210.55 155.45 212.13 157.38 213.53 C 171.60 223.62 185.64 233.97 199.71 244.28 C 204.12 247.36 208.48 250.52 212.64 253.94 C 204.53 278.59 195.83 303.16 188.19 327.88 C 189.66 328.13 190.91 327.04 192.19 326.26 C 210.80 313.06 229.94 300.64 248.64 287.58 C 250.99 285.95 253.40 284.42 255.83 282.92 C 256.83 283.61 257.83 284.31 258.83 285.01 C 258.11 286.22 256.62 287.50 257.34 289.08 C 258.10 290.18 259.20 291.00 260.17 291.92 C 260.96 293.67 261.54 295.56 262.69 297.13 C 264.08 298.54 265.91 299.39 267.38 300.70 C 268.15 302.43 266.78 304.18 266.37 305.85 C 267.72 305.79 269.08 305.73 270.44 305.68 C 270.48 306.65 270.52 307.62 270.56 308.59 C 274.34 306.75 279.60 305.72 282.74 309.25 C 285.55 311.52 284.88 315.35 284.91 318.54 C 283.40 318.70 281.91 318.88 280.41 319.05 C 280.41 319.29 280.41 319.75 280.41 319.98 C 280.37 321.79 280.40 323.61 280.74 325.40 C 281.05 325.77 281.69 326.50 282.01 326.86 C 283.66 326.93 285.38 326.50 286.99 326.99 C 288.79 327.99 290.27 329.46 291.82 330.81 C 291.92 331.54 292.13 333.01 292.24 333.74 C 292.86 333.91 294.11 334.24 294.74 334.40 C 296.71 334.93 298.62 334.21 300.43 333.46 C 298.94 331.59 297.44 329.74 295.99 327.85 C 298.91 327.96 301.72 328.80 304.03 330.64 C 303.42 332.27 302.27 333.83 302.27 335.62 C 302.79 337.47 304.72 338.41 306.03 339.67 C 306.26 341.92 305.61 344.87 308.18 345.93 C 309.36 346.63 310.56 347.33 311.76 348.02 C 311.58 349.18 311.41 350.35 311.24 351.52 C 312.49 350.86 313.75 350.20 315.01 349.53 C 316.80 350.09 318.60 350.65 320.43 351.10 C 322.76 351.73 325.39 352.04 327.14 353.89 C 328.84 355.62 330.23 357.63 331.69 359.57 C 329.89 360.04 328.10 360.51 326.32 360.98 C 326.71 361.57 327.10 362.16 327.49 362.76 C 326.89 362.99 325.67 363.43 325.07 363.65 C 326.93 364.68 328.87 365.62 331.01 365.89 C 335.48 366.45 339.45 368.76 343.82 369.74 C 343.84 371.62 343.86 373.51 343.88 375.40 C 342.36 375.94 340.85 376.49 339.35 377.06 C 342.44 381.10 347.66 378.80 351.91 379.02 C 351.94 379.74 352.02 381.18 352.06 381.90 C 350.20 383.24 348.35 384.59 346.50 385.94 C 347.98 387.91 349.30 390.51 352.00 390.95 C 353.58 389.85 354.97 388.51 356.43 387.27 C 355.65 389.61 354.14 391.53 351.96 392.73 C 350.54 392.36 349.14 391.84 347.66 391.80 C 345.94 392.20 344.62 393.54 343.16 394.45 C 346.58 393.81 350.17 393.35 353.20 395.50 C 350.36 395.41 347.52 395.64 344.78 396.41 C 347.73 396.93 350.69 397.42 353.68 397.74 C 347.17 400.37 339.82 400.50 333.01 399.11 C 326.24 397.75 320.24 394.15 314.39 390.65 C 299.71 381.65 284.95 372.78 270.34 363.68 C 265.71 360.78 260.86 357.06 255.07 357.65 C 249.67 357.68 245.18 360.99 240.84 363.78 C 236.30 366.80 231.52 369.42 226.87 372.26 C 226.07 369.08 226.34 365.73 225.44 362.59 C 223.70 359.11 221.05 356.17 219.20 352.73 C 218.41 352.25 217.62 351.76 216.83 351.29 C 215.78 349.20 214.67 347.16 213.47 345.16 C 216.56 343.10 216.19 339.41 216.03 336.17 C 212.79 335.84 209.53 335.67 206.29 335.93 C 207.40 337.31 208.51 338.69 209.62 340.07 C 206.83 341.86 203.78 343.17 200.61 344.10 C 200.06 342.04 199.62 339.92 199.88 337.79 C 200.43 334.03 198.61 330.43 196.49 327.47 C 194.34 327.06 192.97 329.22 191.41 330.32 C 189.67 329.64 187.92 328.98 186.35 327.97 C 185.70 328.12 185.06 328.29 184.42 328.47 C 185.75 324.63 187.59 320.95 188.17 316.90 C 187.15 318.63 186.19 320.39 185.22 322.16 C 184.65 319.55 184.13 316.93 183.65 314.31 C 181.25 314.12 178.84 313.93 176.44 313.75 C 176.19 312.15 175.94 310.56 175.70 308.97 C 173.12 307.11 170.31 305.49 167.11 305.04 C 164.61 301.81 161.80 298.54 157.93 296.94 C 155.67 296.33 154.25 298.42 152.93 299.84 C 150.60 302.64 147.54 304.80 145.63 307.95 C 147.18 299.68 150.82 291.57 149.72 283.01 C 149.22 278.51 146.21 274.87 142.94 271.98 C 133.67 263.61 124.29 255.36 114.97 247.04 C 106.54 239.06 97.14 232.05 89.60 223.16 C 83.66 215.25 81.74 204.68 83.88 195.08 C 85.65 186.58 91.14 179.12 98.32 174.36 Z" fill="#4098d0" opacity="1.00" stroke="#4098d0" stroke-width="0.25"/>
<path d="M 293.18 168.18 C 293.95 168.08 295.48 167.87 296.25 167.76 C 296.17 168.56 296.02 170.16 295.94 170.95 C 295.29 170.88 293.98 170.74 293.32 170.67 C 293.29 170.05 293.22 168.80 293.18 168.18 Z" fill="#66abe4" opacity="1.00" stroke="#66abe4" stroke-width="0.25"/>
<path d="M 393.96 167.83 C 406.06 168.81 417.94 175.34 424.00 186.07 C 428.30 194.36 429.69 204.58 426.35 213.44 C 425.59 211.71 424.85 209.99 424.11 208.26 C 423.33 208.73 422.56 209.21 421.79 209.68 C 421.78 206.62 421.81 203.57 421.88 200.52 C 420.50 201.42 419.11 202.32 417.73 203.22 C 418.23 201.77 418.73 200.32 419.23 198.86 C 418.73 196.49 418.24 194.12 417.77 191.75 C 416.71 191.74 415.65 191.72 414.60 191.72 C 413.96 188.06 413.43 184.38 413.09 180.68 C 412.65 182.31 412.21 183.94 411.77 185.58 C 409.97 184.31 408.15 183.06 406.34 181.82 C 406.79 185.07 407.14 188.33 407.18 191.62 C 406.62 191.68 405.51 191.80 404.95 191.86 C 404.99 190.39 406.20 188.42 404.54 187.44 C 403.59 186.83 402.45 186.65 401.40 186.32 C 402.50 183.77 403.88 181.31 404.46 178.56 C 403.27 177.79 401.82 177.64 400.48 177.29 C 400.15 176.21 399.82 175.13 399.49 174.05 C 400.11 173.90 401.33 173.59 401.94 173.43 C 398.46 172.86 395.07 171.85 391.92 170.25 C 392.60 169.44 393.27 168.64 393.96 167.83 Z" fill="#2a65a6" opacity="1.00" stroke="#2a65a6" stroke-width="0.25"/>
<path d="M 226.62 169.66 C 227.81 169.67 229.01 169.63 230.21 169.76 C 231.37 170.92 232.23 172.47 231.22 174.04 C 229.92 175.38 227.97 174.56 226.36 174.62 C 226.43 172.96 226.51 171.31 226.62 169.66 Z" fill="#f2ffff" opacity="1.00" stroke="#f2ffff" stroke-width="0.25"/>
<path d="M 171.68 173.70 C 172.16 173.59 173.10 173.37 173.57 173.25 C 174.08 175.48 174.33 177.76 174.38 180.05 C 176.24 179.47 178.11 178.90 179.99 178.40 C 179.61 180.93 177.38 182.14 175.50 183.46 C 177.13 184.51 178.90 185.58 179.09 187.73 C 177.51 187.57 175.93 187.39 174.36 187.21 C 174.35 189.03 174.35 190.86 174.35 192.69 C 170.82 193.42 171.92 188.99 171.54 186.79 C 169.43 186.27 167.46 185.36 165.80 183.95 C 167.23 182.85 168.70 181.80 170.21 180.82 C 170.72 178.45 171.22 176.08 171.68 173.70 Z" fill="#f7ffff" opacity="1.00" stroke="#f7ffff" stroke-width="0.25"/>
<path d="M 352.57 177.81 C 353.52 177.74 354.47 177.66 355.42 177.59 C 356.12 178.38 356.83 179.18 357.54 179.97 C 356.88 180.79 356.23 181.60 355.58 182.42 C 354.59 182.35 353.60 182.28 352.63 182.22 C 352.60 180.75 352.58 179.28 352.57 177.81 Z" fill="#82b7e9" opacity="1.00" stroke="#82b7e9" stroke-width="0.25"/>
<path d="M 301.57 178.34 C 303.27 178.66 304.63 179.67 305.73 180.98 C 304.71 182.18 304.06 184.36 302.06 183.88 C 300.20 184.09 299.74 181.97 299.39 180.63 C 300.12 179.87 300.84 179.11 301.57 178.34 Z" fill="#f1ffff" opacity="1.00" stroke="#f1ffff" stroke-width="0.25"/>
<path d="M 212.85 181.83 C 213.95 181.71 215.06 181.70 216.17 181.67 C 216.19 182.91 216.22 184.15 216.24 185.40 C 214.94 185.46 213.64 185.51 212.35 185.56 C 212.44 184.31 212.43 183.03 212.85 181.83 Z" fill="#e7ffff" opacity="1.00" stroke="#e7ffff" stroke-width="0.25"/>
<path d="M 338.73 182.60 C 339.26 182.51 340.32 182.32 340.85 182.23 C 341.19 183.96 341.51 185.69 341.79 187.44 C 344.24 187.08 346.85 186.35 349.12 187.80 C 347.45 188.98 345.74 190.11 344.01 191.17 C 344.69 191.45 346.06 192.02 346.74 192.31 C 346.71 192.86 346.65 193.97 346.62 194.52 C 344.98 194.39 343.34 194.27 341.70 194.18 C 341.24 195.92 340.75 197.66 340.27 199.41 C 339.79 199.48 338.82 199.62 338.34 199.69 C 338.27 197.65 338.24 195.61 338.24 193.57 C 336.60 192.96 334.97 192.37 333.34 191.76 C 333.39 191.23 333.50 190.18 333.55 189.65 C 334.91 189.20 336.28 188.74 337.66 188.32 C 338.09 186.42 338.44 184.51 338.73 182.60 Z" fill="#fbfeff" opacity="1.00" stroke="#fbfeff" stroke-width="0.25"/>
<path d="M 315.31 183.39 C 316.14 183.51 317.79 183.75 318.61 183.87 C 318.63 185.03 318.65 186.21 318.67 187.38 C 317.62 187.39 316.57 187.40 315.53 187.40 C 315.46 186.06 315.42 184.72 315.31 183.39 Z" fill="#e4ffff" opacity="1.00" stroke="#e4ffff" stroke-width="0.25"/>
<path d="M 126.06 184.18 C 127.77 183.68 131.09 183.34 130.67 186.05 C 130.89 188.34 128.17 188.37 126.60 188.55 C 126.41 187.09 126.23 185.63 126.06 184.18 Z" fill="#e7ffff" opacity="1.00" stroke="#e7ffff" stroke-width="0.25"/>
<path d="M 192.22 186.49 C 194.13 184.45 196.96 185.71 196.84 188.46 C 196.06 188.76 194.49 189.35 193.71 189.65 C 193.34 188.86 192.59 187.28 192.22 186.49 Z" fill="#ddffff" opacity="1.00" stroke="#ddffff" stroke-width="0.25"/>
<path d="M 401.40 186.32 C 402.45 186.65 403.59 186.83 404.54 187.44 C 406.20 188.42 404.99 190.39 404.95 191.86 C 403.29 191.69 400.68 192.16 400.19 189.99 C 400.41 188.71 400.91 187.51 401.40 186.32 Z" fill="#f2ffff" opacity="1.00" stroke="#f2ffff" stroke-width="0.25"/>
<path d="M 100.55 189.87 C 101.18 189.59 102.43 189.02 103.06 188.74 C 103.69 188.99 104.96 189.49 105.59 189.74 C 105.56 191.30 105.51 192.87 105.47 194.43 C 103.87 194.38 102.28 194.32 100.68 194.26 C 100.64 192.79 100.58 191.33 100.55 189.87 Z" fill="#ebffff" opacity="1.00" stroke="#ebffff" stroke-width="0.25"/>
<path d="M 149.68 190.24 C 150.91 188.66 152.66 190.13 153.33 191.43 C 152.02 192.17 150.70 192.89 149.32 193.51 C 149.41 192.69 149.59 191.06 149.68 190.24 Z" fill="#d9ffff" opacity="1.00" stroke="#d9ffff" stroke-width="0.25"/>
<path d="M 288.52 190.49 C 289.54 190.47 290.56 190.46 291.58 190.46 C 291.60 191.54 291.63 192.62 291.66 193.70 C 290.55 193.67 289.45 193.63 288.36 193.60 C 288.41 192.56 288.46 191.52 288.52 190.49 Z" fill="#ddffff" opacity="1.00" stroke="#ddffff" stroke-width="0.25"/>
<path d="M 371.45 192.68 C 372.62 191.54 374.02 190.73 375.58 190.28 C 376.67 191.43 377.41 192.81 377.67 194.38 C 376.91 195.07 376.16 195.77 375.42 196.47 C 374.49 196.15 373.56 195.83 372.63 195.52 C 372.33 194.81 371.74 193.39 371.45 192.68 Z" fill="#eeffff" opacity="1.00" stroke="#eeffff" stroke-width="0.25"/>
<path d="M 135.01 192.07 C 135.76 192.01 137.27 191.88 138.02 191.82 C 138.23 192.37 138.65 193.49 138.85 194.05 C 137.85 194.46 136.86 194.87 135.86 195.27 C 135.58 194.20 135.29 193.14 135.01 192.07 Z" fill="#72bfef" opacity="1.00" stroke="#72bfef" stroke-width="0.25"/>
<path d="M 413.19 200.29 C 413.87 200.23 415.24 200.10 415.92 200.04 C 415.93 200.82 415.96 202.39 415.98 203.17 C 415.29 203.09 413.93 202.92 413.24 202.83 C 413.23 202.20 413.20 200.93 413.19 200.29 Z" fill="#5391cc" opacity="1.00" stroke="#5391cc" stroke-width="0.25"/>
<path d="M 96.24 205.48 C 97.93 202.94 101.00 206.25 98.93 207.91 C 97.54 209.66 95.55 207.03 96.24 205.48 Z" fill="#e0ffff" opacity="1.00" stroke="#e0ffff" stroke-width="0.25"/>
<path d="M 404.24 211.73 C 404.53 210.28 403.89 208.02 406.02 207.85 C 407.99 207.95 408.48 210.21 407.65 211.70 C 406.51 211.75 405.37 211.76 404.24 211.73 Z" fill="#ebffff" opacity="1.00" stroke="#ebffff" stroke-width="0.25"/>
<path d="M 116.56 212.06 C 116.48 210.00 118.95 210.02 120.26 209.38 C 120.32 210.85 121.44 212.80 119.95 213.94 C 118.57 215.03 116.85 213.43 116.56 212.06 Z" fill="#b9eafc" opacity="1.00" stroke="#b9eafc" stroke-width="0.25"/>
<path d="M 139.14 209.99 C 140.76 209.45 141.33 209.99 140.83 211.63 C 139.21 212.17 138.65 211.63 139.14 209.99 Z" fill="#94e6ff" opacity="1.00" stroke="#94e6ff" stroke-width="0.25"/>
<path d="M 374.98 213.11 C 373.37 211.10 377.10 208.56 378.65 210.57 C 378.69 211.88 378.57 213.19 378.50 214.51 C 377.26 214.24 375.62 214.53 374.98 213.11 Z" fill="#e9ffff" opacity="1.00" stroke="#e9ffff" stroke-width="0.25"/>
<path d="M 365.71 214.31 C 366.54 215.80 368.21 217.37 367.11 219.14 C 366.04 220.59 367.03 222.15 367.50 223.61 C 365.97 223.79 364.46 223.97 362.95 224.16 C 363.72 225.43 364.50 226.70 365.28 227.97 C 366.03 227.02 366.78 226.06 367.54 225.11 C 367.71 227.03 367.88 228.95 368.06 230.88 C 369.92 232.36 371.83 233.79 373.53 235.46 C 375.73 237.38 375.64 240.56 376.97 242.99 C 378.18 244.75 379.85 246.12 381.39 247.59 C 382.15 247.60 382.92 247.61 383.69 247.63 C 382.05 251.87 381.42 256.76 378.15 260.17 C 375.62 263.04 372.01 264.61 369.28 267.25 C 367.98 268.29 368.69 270.06 368.57 271.45 C 363.57 275.39 360.45 281.56 361.29 288.02 C 362.85 299.98 366.93 311.43 369.05 323.29 C 368.62 323.34 367.76 323.43 367.32 323.48 C 366.78 321.29 366.23 319.11 365.67 316.93 C 363.90 317.71 362.23 318.68 360.61 319.72 C 359.98 318.33 359.36 316.95 358.74 315.57 C 357.84 315.91 356.95 316.25 356.07 316.60 C 354.17 315.41 352.15 313.86 349.76 314.37 C 346.65 314.91 343.56 315.83 340.37 315.36 C 340.75 314.42 341.13 313.48 341.51 312.54 C 339.43 312.58 337.37 312.87 335.36 313.37 C 337.04 308.00 335.43 302.38 335.84 296.89 C 333.06 296.66 330.40 297.21 328.79 299.66 C 327.89 298.73 327.00 297.80 326.11 296.88 C 325.56 297.74 325.01 298.60 324.47 299.47 C 322.98 299.10 321.50 298.74 320.01 298.39 C 319.76 298.81 319.26 299.65 319.01 300.07 C 319.56 301.45 320.12 302.83 320.69 304.21 C 319.04 304.34 317.40 304.47 315.76 304.60 C 310.10 287.60 304.14 270.69 298.88 253.55 C 316.58 240.89 334.05 227.90 351.70 215.17 C 353.13 215.32 354.56 215.48 356.00 215.64 C 357.02 216.54 358.01 217.49 359.14 218.27 C 361.50 217.26 363.57 215.70 365.71 214.31 Z" fill="#3782be" opacity="1.00" stroke="#3782be" stroke-width="0.25"/>
<path d="M 102.31 217.35 C 103.59 215.89 106.02 218.00 104.59 219.41 C 103.35 220.86 100.89 218.72 102.31 217.35 Z" fill="#7ccff5" opacity="1.00" stroke="#7ccff5" stroke-width="0.25"/>
<path d="M 388.28 219.91 C 389.46 219.93 390.65 219.94 391.84 219.92 C 392.23 222.28 391.00 224.23 388.44 223.76 C 388.37 222.47 388.32 221.19 388.28 219.91 Z" fill="#e0ffff" opacity="1.00" stroke="#e0ffff" stroke-width="0.25"/>
<path d="M 116.46 228.64 C 117.57 228.58 118.69 228.53 119.81 228.48 C 119.89 229.85 119.88 231.22 119.76 232.60 C 118.69 232.49 117.63 232.39 116.56 232.29 C 116.52 231.07 116.49 229.85 116.46 228.64 Z" fill="#dfffff" opacity="1.00" stroke="#dfffff" stroke-width="0.25"/>
<path d="M 354.35 229.21 C 354.90 229.20 355.99 229.16 356.54 229.15 C 356.89 230.85 357.25 232.55 357.61 234.25 C 359.42 234.64 361.29 235.21 362.02 237.15 C 360.62 237.67 359.24 238.23 357.84 238.74 C 357.64 240.94 357.22 243.14 356.15 245.12 C 354.13 243.45 354.22 240.85 353.97 238.50 C 351.46 238.09 348.90 237.64 346.84 236.05 C 348.58 234.02 350.97 233.26 353.58 233.55 C 353.82 232.10 354.09 230.66 354.35 229.21 Z" fill="#f5ffff" opacity="1.00" stroke="#f5ffff" stroke-width="0.25"/>
<path d="M 143.41 230.13 C 143.89 230.18 144.86 230.30 145.35 230.35 C 145.45 232.22 145.55 234.08 145.67 235.96 C 148.50 235.32 150.86 232.85 153.92 233.51 C 151.97 236.32 149.54 238.76 146.84 240.87 C 146.79 242.57 146.74 244.27 146.69 245.97 C 145.69 245.85 144.72 245.65 143.76 245.37 C 143.29 243.70 143.06 241.98 142.76 240.29 C 142.12 240.10 140.84 239.73 140.19 239.54 C 140.27 239.07 140.42 238.11 140.50 237.63 C 140.96 237.26 141.87 236.51 142.32 236.13 C 142.65 234.12 143.02 232.12 143.41 230.13 Z" fill="#f7ffff" opacity="1.00" stroke="#f7ffff" stroke-width="0.25"/>
<path d="M 387.02 233.89 C 388.74 233.22 392.28 233.19 391.76 235.90 C 391.76 237.76 389.52 237.61 388.27 238.03 C 387.85 236.65 387.43 235.27 387.02 233.89 Z" fill="#4688c4" opacity="1.00" stroke="#4688c4" stroke-width="0.25"/>
<path d="M 325.35 244.17 C 326.64 242.62 329.14 244.94 327.57 246.28 C 326.27 247.63 324.03 245.52 325.35 244.17 Z" fill="#9ad7fa" opacity="1.00" stroke="#9ad7fa" stroke-width="0.25"/>
<path d="M 171.60 248.59 C 173.28 248.28 176.22 248.48 175.51 250.94 C 175.52 253.08 173.00 252.39 171.62 252.42 C 171.61 251.14 171.60 249.87 171.60 248.59 Z" fill="#dfffff" opacity="1.00" stroke="#dfffff" stroke-width="0.25"/>
<path d="M 367.27 256.48 C 367.72 255.99 368.61 255.01 369.06 254.52 C 369.61 254.82 370.69 255.42 371.24 255.73 C 371.23 256.57 371.23 257.41 371.24 258.26 C 370.22 258.38 369.22 258.49 368.21 258.61 C 367.90 257.89 367.58 257.18 367.27 256.48 Z" fill="#ebffff" opacity="1.00" stroke="#ebffff" stroke-width="0.25"/>
<path d="M 191.22 259.41 C 192.83 258.85 193.39 259.39 192.90 261.03 C 191.28 261.59 190.72 261.05 191.22 259.41 Z" fill="#78ccfb" opacity="1.00" stroke="#78ccfb" stroke-width="0.25"/>
<path d="M 317.58 259.72 C 318.83 259.71 320.07 259.71 321.32 259.72 C 321.42 261.03 321.50 262.35 321.59 263.67 C 320.27 263.69 318.87 263.98 317.67 263.28 C 317.58 262.09 317.59 260.90 317.58 259.72 Z" fill="#e3ffff" opacity="1.00" stroke="#e3ffff" stroke-width="0.25"/>
<path d="M 340.34 260.34 C 341.52 260.25 342.69 260.22 343.88 260.22 C 345.16 261.47 344.14 264.65 342.01 263.78 C 340.28 263.74 340.75 261.46 340.34 260.34 Z" fill="#e2ffff" opacity="1.00" stroke="#e2ffff" stroke-width="0.25"/>
<path d="M 161.63 266.48 C 163.12 266.89 166.08 266.65 165.69 269.02 C 166.10 271.34 163.53 271.81 161.88 271.08 C 160.64 269.79 161.57 268.00 161.63 266.48 Z" fill="#e3ffff" opacity="1.00" stroke="#e3ffff" stroke-width="0.25"/>
<path d="M 178.36 272.87 C 179.00 271.88 179.83 271.10 180.85 270.53 C 182.55 271.24 182.54 273.01 182.68 274.56 C 181.02 274.55 179.09 274.82 178.36 272.87 Z" fill="#d9ffff" opacity="1.00" stroke="#d9ffff" stroke-width="0.25"/>
<path d="M 328.25 281.96 C 327.87 280.07 329.91 279.32 330.99 278.25 C 332.02 279.33 334.10 280.03 333.62 281.89 C 333.95 285.27 328.04 285.36 328.25 281.96 Z" fill="#f4ffff" opacity="1.00" stroke="#f4ffff" stroke-width="0.25"/>
<path d="M 257.34 289.08 C 256.62 287.50 258.11 286.22 258.83 285.01 C 275.16 296.02 291.38 307.19 307.65 318.28 C 313.03 321.63 317.91 325.76 323.54 328.72 C 321.18 320.61 318.43 312.61 315.76 304.60 C 317.40 304.47 319.04 304.34 320.69 304.21 C 320.12 302.83 319.56 301.45 319.01 300.07 C 319.26 299.65 319.76 298.81 320.01 298.39 C 321.50 298.74 322.98 299.10 324.47 299.47 C 325.01 298.60 325.56 297.74 326.11 296.88 C 327.00 297.80 327.89 298.73 328.79 299.66 C 330.40 297.21 333.06 296.66 335.84 296.89 C 335.43 302.38 337.04 308.00 335.36 313.37 C 337.37 312.87 339.43 312.58 341.51 312.54 C 341.13 313.48 340.75 314.42 340.37 315.36 C 343.56 315.83 346.65 314.91 349.76 314.37 C 352.15 313.86 354.17 315.41 356.07 316.60 C 356.95 316.25 357.84 315.91 358.74 315.57 C 359.36 316.95 359.98 318.33 360.61 319.72 C 362.23 318.68 363.90 317.71 365.67 316.93 C 366.23 319.11 366.78 321.29 367.32 323.48 C 367.76 323.43 368.62 323.34 369.05 323.29 C 371.00 331.50 372.76 339.75 374.81 347.93 C 377.10 356.41 378.47 365.51 375.91 374.09 C 372.76 384.78 364.65 394.66 353.68 397.74 C 350.69 397.42 347.73 396.93 344.78 396.41 C 347.52 395.64 350.36 395.41 353.20 395.50 C 350.17 393.35 346.58 393.81 343.16 394.45 C 344.62 393.54 345.94 392.20 347.66 391.80 C 349.14 391.84 350.54 392.36 351.96 392.73 C 354.14 391.53 355.65 389.61 356.43 387.27 C 354.97 388.51 353.58 389.85 352.00 390.95 C 349.30 390.51 347.98 387.91 346.50 385.94 C 348.35 384.59 350.20 383.24 352.06 381.90 C 352.02 381.18 351.94 379.74 351.91 379.02 C 347.66 378.80 342.44 381.10 339.35 377.06 C 340.85 376.49 342.36 375.94 343.88 375.40 C 343.86 373.51 343.84 371.62 343.82 369.74 C 339.45 368.76 335.48 366.45 331.01 365.89 C 328.87 365.62 326.93 364.68 325.07 363.65 C 325.67 363.43 326.89 362.99 327.49 362.76 C 327.10 362.16 326.71 361.57 326.32 360.98 C 328.10 360.51 329.89 360.04 331.69 359.57 C 330.23 357.63 328.84 355.62 327.14 353.89 C 325.39 352.04 322.76 351.73 320.43 351.10 C 320.44 350.52 320.45 349.35 320.46 348.77 C 319.34 347.88 318.23 346.99 317.12 346.11 C 319.05 345.55 320.99 344.86 322.46 343.43 C 320.80 343.34 319.14 343.31 317.48 343.30 C 317.08 341.25 317.90 338.55 316.11 337.07 C 313.89 338.44 314.55 341.60 313.85 343.82 C 311.95 344.50 310.06 345.20 308.18 345.93 C 305.61 344.87 306.26 341.92 306.03 339.67 C 304.72 338.41 302.79 337.47 302.27 335.62 C 302.27 333.83 303.42 332.27 304.03 330.64 C 301.72 328.80 298.91 327.96 295.99 327.85 C 297.44 329.74 298.94 331.59 300.43 333.46 C 298.62 334.21 296.71 334.93 294.74 334.40 C 294.90 333.49 295.21 331.66 295.36 330.74 C 294.48 330.76 292.71 330.79 291.82 330.81 C 290.27 329.46 288.79 327.99 286.99 326.99 C 285.38 326.50 283.66 326.93 282.01 326.86 C 281.69 326.50 281.05 325.77 280.74 325.40 C 281.98 325.34 283.23 325.29 284.48 325.23 C 284.57 323.71 284.67 322.18 284.76 320.66 C 283.30 320.44 281.85 320.21 280.41 319.98 C 280.41 319.75 280.41 319.29 280.41 319.05 C 281.91 318.88 283.40 318.70 284.91 318.54 C 284.88 315.35 285.55 311.52 282.74 309.25 C 279.60 305.72 274.34 306.75 270.56 308.59 C 270.52 307.62 270.48 306.65 270.44 305.68 C 269.08 305.73 267.72 305.79 266.37 305.85 C 266.78 304.18 268.15 302.43 267.38 300.70 C 265.91 299.39 264.08 298.54 262.69 297.13 C 261.54 295.56 260.96 293.67 260.17 291.92 C 259.20 291.00 258.10 290.18 257.34 289.08 Z" fill="#3b8dc7" opacity="1.00" stroke="#3b8dc7" stroke-width="0.25"/>
<path d="M 180.72 293.65 C 181.99 293.55 183.26 293.44 184.54 293.43 C 184.83 294.82 184.41 296.18 184.07 297.52 C 182.95 297.42 181.83 297.32 180.72 297.23 C 180.71 296.03 180.71 294.84 180.72 293.65 Z" fill="#e2ffff" opacity="1.00" stroke="#e2ffff" stroke-width="0.25"/>
<path d="M 322.07 295.28 C 323.61 294.73 324.64 297.28 322.87 297.61 C 321.32 298.18 320.27 295.59 322.07 295.28 Z" fill="#79c4f0" opacity="1.00" stroke="#79c4f0" stroke-width="0.25"/>
<path d="M 152.93 299.84 C 154.25 298.42 155.67 296.33 157.93 296.94 C 161.80 298.54 164.61 301.81 167.11 305.04 C 170.31 305.49 173.12 307.11 175.70 308.97 C 175.94 310.56 176.19 312.15 176.44 313.75 C 178.84 313.93 181.25 314.12 183.65 314.31 C 184.13 316.93 184.65 319.55 185.22 322.16 C 186.19 320.39 187.15 318.63 188.17 316.90 C 187.59 320.95 185.75 324.63 184.42 328.47 C 185.06 328.29 185.70 328.12 186.35 327.97 C 187.92 328.98 189.67 329.64 191.41 330.32 C 192.97 329.22 194.34 327.06 196.49 327.47 C 198.61 330.43 200.43 334.03 199.88 337.79 C 199.62 339.92 200.06 342.04 200.61 344.10 C 203.78 343.17 206.83 341.86 209.62 340.07 C 208.51 338.69 207.40 337.31 206.29 335.93 C 209.53 335.67 212.79 335.84 216.03 336.17 C 216.19 339.41 216.56 343.10 213.47 345.16 C 214.67 347.16 215.78 349.20 216.83 351.29 C 217.62 351.76 218.41 352.25 219.20 352.73 C 221.05 356.17 223.70 359.11 225.44 362.59 C 226.34 365.73 226.07 369.08 226.87 372.26 C 221.09 376.09 215.04 379.52 209.20 383.26 C 201.50 387.80 194.10 392.89 186.00 396.70 L 185.77 396.67 C 183.31 396.23 180.81 396.40 178.37 396.82 C 178.85 396.22 179.34 395.62 179.83 395.03 C 178.24 392.69 176.49 390.46 174.62 388.34 C 175.77 388.03 176.92 387.71 178.08 387.40 C 176.14 386.44 174.06 385.59 171.85 386.03 C 168.62 381.92 164.33 378.92 160.46 375.49 C 158.80 374.23 159.72 371.94 159.55 370.18 C 158.89 370.82 158.23 371.46 157.56 372.11 C 155.70 372.00 153.84 372.12 152.00 372.38 C 152.60 371.75 153.20 371.13 153.79 370.49 C 154.65 368.48 153.90 366.48 153.24 364.56 C 153.99 363.24 154.75 361.92 155.52 360.61 C 153.09 360.31 150.65 360.06 148.21 359.88 C 148.56 360.37 149.26 361.35 149.62 361.85 C 149.25 361.86 148.52 361.87 148.15 361.88 C 145.83 358.92 143.61 355.88 141.33 352.89 C 139.26 352.48 137.38 351.56 135.75 350.23 C 139.27 336.19 142.24 322.02 145.63 307.95 C 147.54 304.80 150.60 302.64 152.93 299.84 Z" fill="#46a6d9" opacity="1.00" stroke="#46a6d9" stroke-width="0.25"/>
<path d="M 342.43 305.97 C 342.39 303.42 342.64 300.54 345.51 299.68 C 345.60 301.33 345.68 302.99 345.75 304.65 C 348.53 303.97 351.33 303.30 354.21 303.17 C 352.98 305.64 350.40 306.76 348.22 308.20 C 349.88 309.30 351.88 310.18 352.36 312.35 C 350.26 312.25 348.19 312.00 346.12 311.73 C 345.02 312.78 343.91 313.81 342.80 314.85 C 342.72 313.44 342.66 312.04 342.62 310.65 C 340.96 310.26 338.27 310.82 338.34 308.43 C 339.64 307.51 341.04 306.75 342.43 305.97 Z" fill="#f8ffff" opacity="1.00" stroke="#f8ffff" stroke-width="0.25"/>
<path d="M 259.34 301.44 C 260.42 301.50 261.50 301.57 262.58 301.64 C 262.48 303.05 262.96 305.16 261.01 305.54 C 258.72 305.32 259.41 303.01 259.34 301.44 Z" fill="#ddffff" opacity="1.00" stroke="#ddffff" stroke-width="0.25"/>
<path d="M 158.46 304.80 C 159.44 305.99 160.38 307.22 161.48 308.31 C 162.98 308.57 164.49 308.73 166.02 308.80 C 165.05 309.85 164.06 310.89 163.17 312.02 C 164.34 313.42 165.63 314.75 166.34 316.47 C 164.46 316.16 162.60 315.83 160.72 315.53 C 160.69 316.37 160.64 318.03 160.61 318.87 C 160.06 318.78 158.96 318.61 158.42 318.53 C 158.44 317.75 158.49 316.18 158.51 315.40 C 156.51 314.87 154.53 314.20 152.79 313.06 C 154.58 312.19 156.39 311.36 158.18 310.51 C 158.22 308.60 158.32 306.70 158.46 304.80 Z" fill="#f9ffff" opacity="1.00" stroke="#f9ffff" stroke-width="0.25"/>
<path d="M 257.41 316.38 C 258.41 316.43 259.41 316.49 260.42 316.56 C 260.41 317.52 260.41 318.48 260.40 319.45 C 259.35 319.59 258.29 319.73 257.24 319.87 C 257.29 318.70 257.35 317.54 257.41 316.38 Z" fill="#d9ffff" opacity="1.00" stroke="#d9ffff" stroke-width="0.25"/>
<path d="M 330.07 316.09 C 330.74 316.14 332.07 316.25 332.74 316.30 C 332.62 316.80 332.36 317.81 332.24 318.31 C 331.78 318.37 330.88 318.48 330.42 318.54 C 330.33 317.92 330.16 316.70 330.07 316.09 Z" fill="#d9ffff" opacity="1.00" stroke="#d9ffff" stroke-width="0.25"/>
<path d="M 280.41 319.98 C 281.85 320.21 283.30 320.44 284.76 320.66 C 284.67 322.18 284.57 323.71 284.48 325.23 C 283.23 325.29 281.98 325.34 280.74 325.40 C 280.40 323.61 280.37 321.79 280.41 319.98 Z" fill="#eaffff" opacity="1.00" stroke="#eaffff" stroke-width="0.25"/>
<path d="M 228.15 330.08 C 228.83 326.95 228.11 322.72 231.35 320.82 C 231.67 323.21 231.82 325.62 231.91 328.03 C 234.25 327.54 236.57 326.97 238.91 326.45 C 238.11 329.55 234.66 330.51 232.25 332.07 C 234.47 333.21 236.81 334.32 238.31 336.43 C 235.81 336.73 233.31 336.52 230.83 336.25 C 230.48 337.85 230.70 340.45 228.56 340.76 C 227.33 338.97 227.80 336.75 227.71 334.73 C 226.16 334.16 224.61 333.59 223.08 333.00 C 224.31 331.31 226.20 330.57 228.15 330.08 Z" fill="#f7ffff" opacity="1.00" stroke="#f7ffff" stroke-width="0.25"/>
<path d="M 153.17 329.34 C 154.56 328.26 155.92 330.69 154.53 331.53 C 153.14 332.61 151.78 330.18 153.17 329.34 Z" fill="#6cccf8" opacity="1.00" stroke="#6cccf8" stroke-width="0.25"/>
<path d="M 291.82 330.81 C 292.71 330.79 294.48 330.76 295.36 330.74 C 295.21 331.66 294.90 333.49 294.74 334.40 C 294.11 334.24 292.86 333.91 292.24 333.74 C 292.13 333.01 291.92 331.54 291.82 330.81 Z" fill="#a9e6fb" opacity="1.00" stroke="#a9e6fb" stroke-width="0.25"/>
<path d="M 337.96 331.60 C 339.25 330.52 340.79 332.79 339.52 333.75 C 338.21 334.86 336.67 332.55 337.96 331.60 Z" fill="#71c0f2" opacity="1.00" stroke="#71c0f2" stroke-width="0.25"/>
<path d="M 261.32 332.36 C 263.24 329.87 267.17 333.59 264.38 335.43 C 262.22 336.67 260.65 334.38 261.32 332.36 Z" fill="#67b8e9" opacity="1.00" stroke="#67b8e9" stroke-width="0.25"/>
<path d="M 172.21 337.68 C 172.45 336.24 171.77 333.66 173.96 333.66 C 176.20 333.15 175.56 336.24 175.81 337.60 C 174.61 337.63 173.41 337.65 172.21 337.68 Z" fill="#e0ffff" opacity="1.00" stroke="#e0ffff" stroke-width="0.25"/>
<path d="M 202.56 337.46 C 203.97 336.75 206.88 338.63 204.97 339.96 C 203.50 342.14 199.46 338.90 202.56 337.46 Z" fill="#d9ffff" opacity="1.00" stroke="#d9ffff" stroke-width="0.25"/>
<path d="M 313.85 343.82 C 314.55 341.60 313.89 338.44 316.11 337.07 C 317.90 338.55 317.08 341.25 317.48 343.30 C 319.14 343.31 320.80 343.34 322.46 343.43 C 320.99 344.86 319.05 345.55 317.12 346.11 C 318.23 346.99 319.34 347.88 320.46 348.77 C 320.45 349.35 320.44 350.52 320.43 351.10 C 318.60 350.65 316.80 350.09 315.01 349.53 C 313.75 350.20 312.49 350.86 311.24 351.52 C 311.41 350.35 311.58 349.18 311.76 348.02 C 310.56 347.33 309.36 346.63 308.18 345.93 C 310.06 345.20 311.95 344.50 313.85 343.82 Z" fill="#f8ffff" opacity="1.00" stroke="#f8ffff" stroke-width="0.25"/>
<path d="M 347.44 340.68 C 348.16 340.35 349.61 339.71 350.34 339.39 C 351.30 340.88 351.51 342.61 351.31 344.36 C 349.99 344.24 348.69 344.11 347.39 343.99 C 347.40 342.88 347.42 341.77 347.44 340.68 Z" fill="#e4ffff" opacity="1.00" stroke="#e4ffff" stroke-width="0.25"/>
<path d="M 158.33 344.96 C 158.98 343.09 160.91 343.31 162.52 343.18 C 162.51 344.37 162.50 345.56 162.50 346.76 C 160.95 346.51 158.93 346.87 158.33 344.96 Z" fill="#86d5fc" opacity="1.00" stroke="#86d5fc" stroke-width="0.25"/>
<path d="M 244.38 346.39 C 246.39 344.43 248.24 348.24 246.01 349.26 C 243.80 350.34 242.77 347.52 244.38 346.39 Z" fill="#a2e4fa" opacity="1.00" stroke="#a2e4fa" stroke-width="0.25"/>
<path d="M 135.75 350.23 C 137.38 351.56 139.26 352.48 141.33 352.89 C 143.61 355.88 145.83 358.92 148.15 361.88 C 148.52 361.87 149.25 361.86 149.62 361.85 C 149.26 361.35 148.56 360.37 148.21 359.88 C 150.65 360.06 153.09 360.31 155.52 360.61 C 154.75 361.92 153.99 363.24 153.24 364.56 C 151.90 364.96 150.55 365.35 149.21 365.75 C 149.39 367.21 149.20 368.81 149.87 370.17 C 151.17 370.32 152.47 370.43 153.79 370.49 C 153.20 371.13 152.60 371.75 152.00 372.38 C 153.84 372.12 155.70 372.00 157.56 372.11 C 158.23 371.46 158.89 370.82 159.55 370.18 C 159.72 371.94 158.80 374.23 160.46 375.49 C 164.33 378.92 168.62 381.92 171.85 386.03 C 174.06 385.59 176.14 386.44 178.08 387.40 C 176.92 387.71 175.77 388.03 174.62 388.34 C 176.49 390.46 178.24 392.69 179.83 395.03 C 179.34 395.62 178.85 396.22 178.37 396.82 C 180.81 396.40 183.31 396.23 185.77 396.67 C 178.46 400.25 169.94 400.59 162.05 399.08 C 149.08 396.54 138.01 386.04 135.12 373.08 C 132.99 365.57 134.08 357.71 135.75 350.23 Z" fill="#4ab0e0" opacity="1.00" stroke="#4ab0e0" stroke-width="0.25"/>
<path d="M 284.53 352.37 C 286.18 352.26 287.83 352.30 289.48 352.52 C 289.46 353.50 289.42 355.45 289.40 356.43 C 287.79 356.58 286.18 356.62 284.56 356.56 C 284.54 355.16 284.53 353.76 284.53 352.37 Z" fill="#eeffff" opacity="1.00" stroke="#eeffff" stroke-width="0.25"/>
<path d="M 188.65 355.60 C 189.65 355.55 190.65 355.51 191.65 355.48 C 191.76 356.14 191.98 357.48 192.09 358.14 C 191.39 359.34 189.66 358.47 188.52 358.75 C 188.56 357.69 188.60 356.64 188.65 355.60 Z" fill="#e0ffff" opacity="1.00" stroke="#e0ffff" stroke-width="0.25"/>
<path d="M 166.58 362.98 C 167.42 362.06 168.27 361.15 169.13 360.24 C 170.60 361.32 171.89 362.63 172.93 364.15 C 171.50 365.63 169.58 365.87 167.64 365.75 C 167.38 365.06 166.84 363.68 166.58 362.98 Z" fill="#f0ffff" opacity="1.00" stroke="#f0ffff" stroke-width="0.25"/>
<path d="M 206.15 361.64 C 207.57 361.51 208.98 361.38 210.41 361.28 C 210.33 362.33 210.25 363.39 210.18 364.45 C 208.01 364.89 206.67 363.78 206.15 361.64 Z" fill="#d9ffff" opacity="1.00" stroke="#d9ffff" stroke-width="0.25"/>
<path d="M 339.37 363.06 C 340.73 362.77 342.11 362.57 343.49 362.30 C 343.59 363.89 343.68 365.49 343.79 367.09 C 342.32 367.07 340.87 366.93 339.43 366.67 C 339.41 365.46 339.39 364.26 339.37 363.06 Z" fill="#81c5ef" opacity="1.00" stroke="#81c5ef" stroke-width="0.25"/>
<path d="M 149.21 365.75 C 150.55 365.35 151.90 364.96 153.24 364.56 C 153.90 366.48 154.65 368.48 153.79 370.49 C 152.47 370.43 151.17 370.32 149.87 370.17 C 149.20 368.81 149.39 367.21 149.21 365.75 Z" fill="#eeffff" opacity="1.00" stroke="#eeffff" stroke-width="0.25"/>
<path d="M 356.48 366.34 C 357.62 366.30 358.76 366.28 359.91 366.26 C 359.76 367.35 359.61 368.45 359.46 369.55 C 358.51 369.47 357.57 369.40 356.64 369.33 C 356.58 368.33 356.53 367.33 356.48 366.34 Z" fill="#d9ffff" opacity="1.00" stroke="#d9ffff" stroke-width="0.25"/>
<path d="M 323.69 372.70 C 322.98 371.06 321.89 368.53 324.04 367.48 C 326.91 366.33 329.10 370.10 326.95 372.16 C 326.13 372.30 324.50 372.57 323.69 372.70 Z" fill="#edffff" opacity="1.00" stroke="#edffff" stroke-width="0.25"/>
<path d="M 181.17 375.17 C 182.05 374.34 183.40 374.53 184.49 374.22 C 184.49 375.62 184.50 377.03 184.50 378.44 C 183.35 378.53 182.21 378.61 181.07 378.70 C 180.91 377.53 179.95 376.10 181.17 375.17 Z" fill="#83d1ff" opacity="1.00" stroke="#83d1ff" stroke-width="0.25"/>
<path d="M 330.00 377.28 C 331.69 376.77 332.44 379.57 330.75 380.03 C 328.98 380.66 328.19 377.66 330.00 377.28 Z" fill="#73c0f0" opacity="1.00" stroke="#73c0f0" stroke-width="0.25"/>
<path d="M 350.18 384.94 C 351.33 385.13 352.44 385.43 353.54 385.84 C 353.56 387.64 352.04 388.30 350.60 388.69 C 350.45 387.44 350.31 386.18 350.18 384.94 Z" fill="#d9ffff" opacity="1.00" stroke="#d9ffff" stroke-width="0.25"/>
<path d="M 157.20 388.36 C 157.61 387.08 158.31 385.89 159.11 384.82 C 159.84 385.99 160.41 387.27 160.86 388.59 C 159.64 388.52 158.42 388.44 157.20 388.36 Z" fill="#d9ffff" opacity="1.00" stroke="#d9ffff" stroke-width="0.25"/>
</svg>