<?xml version="1.0" encoding="utf-8"?>
<svg xmlns="http://www.w3.org/2000/svg" height="512pt" version="1.1" viewBox="0 0 512 512" width="512pt">
<path d="M 0.00 0.00 L 512.00 0.00 L 512.00 512.00 L 0.00 512.00 L 0.00 0.00 Z" fill="transparent" opacity="1.00" stroke="transparent" stroke-width="0.25"/>
<path d="M 253.52 127.15 C 254.28 124.80 256.27 121.95 259.12 122.77 C 261.43 123.92 262.62 126.50 262.36 129.01 C 262.06 136.58 260.71 144.08 259.34 151.51 C 258.50 155.00 257.85 158.77 255.46 161.58 C 254.24 163.02 252.12 162.39 250.48 162.69 C 248.49 157.88 249.47 152.57 249.83 147.55 C 250.76 140.71 251.40 133.75 253.52 127.15 Z" fill="#ae7929" opacity="1.00" stroke="#ae7929" stroke-width="0.25"/>
<path d="M 251.66 145.07 C 252.70 137.88 253.28 130.37 256.78 123.85 C 258.44 124.73 260.84 125.60 260.67 127.93 C 260.87 135.71 259.14 143.38 257.89 151.02 C 256.97 155.03 256.59 160.44 251.82 161.71 C 249.76 156.34 251.16 150.59 251.66 145.07 Z" fill="#ffae0e" opacity="1.00" stroke="#ffae0e" stroke-width="0.25"/>
<path d="M 304.95 130.79 C 306.50 128.31 309.17 126.08 312.31 126.70 C 314.49 127.92 314.82 130.70 313.89 132.85 C 311.01 141.05 305.73 148.08 301.54 155.63 C 298.28 160.31 295.77 165.70 291.30 169.40 C 290.33 169.43 288.39 169.50 287.42 169.54 C 286.53 167.93 285.18 166.13 286.14 164.24 C 288.07 158.28 291.73 153.11 294.65 147.63 C 297.69 141.78 301.32 136.28 304.95 130.79 Z" fill="#ae7929" opacity="1.00" stroke="#ae7929" stroke-width="0.25"/>
<path d="M 302.44 137.58 C 304.92 133.76 307.20 128.08 312.57 128.17 C 312.68 131.10 312.23 134.04 310.75 136.61 C 305.89 145.65 300.62 154.47 294.90 163.00 C 293.32 165.57 291.06 167.75 287.96 168.23 C 287.40 166.09 287.29 163.76 288.50 161.81 C 292.95 153.62 297.42 145.43 302.44 137.58 Z" fill="#fb7d05" opacity="1.00" stroke="#fb7d05" stroke-width="0.25"/>
<path d="M 196.83 135.89 C 197.75 134.86 198.85 134.03 199.91 133.16 C 202.82 135.27 205.32 137.98 206.57 141.41 C 209.91 149.61 213.24 157.89 215.14 166.57 C 215.70 168.81 215.26 171.11 214.61 173.28 C 213.90 173.63 212.49 174.33 211.78 174.68 C 210.07 173.25 208.36 171.71 207.49 169.60 C 203.43 160.92 199.99 151.93 197.33 142.72 C 196.77 140.52 196.12 138.12 196.83 135.89 Z" fill="#ae7929" opacity="1.00" stroke="#ae7929" stroke-width="0.25"/>
<path d="M 197.88 136.27 C 199.12 136.22 200.38 136.17 201.63 136.12 C 206.97 144.13 209.76 153.45 212.58 162.56 C 213.49 166.05 215.09 170.37 212.08 173.34 C 208.56 169.59 206.88 164.67 204.96 160.01 C 201.97 152.31 198.67 144.58 197.88 136.27 Z" fill="#ffab0a" opacity="1.00" stroke="#ffab0a" stroke-width="0.25"/>
<path d="M 346.97 157.90 C 349.11 156.21 351.87 156.42 354.43 156.45 C 356.81 160.96 353.03 165.03 349.98 168.00 C 342.39 174.78 334.28 180.96 326.02 186.89 C 323.32 189.12 319.94 190.16 316.48 189.42 C 316.35 187.70 316.02 185.96 316.31 184.24 C 318.08 181.47 320.65 179.32 323.05 177.10 C 330.69 170.30 338.54 163.70 346.97 157.90 Z" fill="#ae7929" opacity="1.00" stroke="#ae7929" stroke-width="0.25"/>
<path d="M 323.06 179.08 C 331.92 171.38 340.69 163.35 350.93 157.52 C 351.70 157.81 353.23 158.41 354.00 158.70 C 353.26 161.14 352.29 163.57 350.40 165.36 C 344.23 171.65 336.93 176.67 330.02 182.11 C 326.60 184.86 322.81 187.12 318.76 188.81 C 315.53 184.77 320.51 181.68 323.06 179.08 Z" fill="#fead09" opacity="1.00" stroke="#fead09" stroke-width="0.25"/>
<path d="M 152.81 162.86 C 155.58 160.53 159.21 162.44 161.66 164.27 C 168.99 169.88 175.50 176.45 182.11 182.87 C 184.85 185.89 188.33 188.92 188.68 193.27 C 187.82 194.04 186.97 194.81 186.12 195.59 C 181.72 195.40 178.34 192.28 174.97 189.82 C 167.44 183.80 159.76 177.82 153.35 170.58 C 151.38 168.61 150.22 164.79 152.81 162.86 Z" fill="#ae7929" opacity="1.00" stroke="#ae7929" stroke-width="0.25"/>
<path d="M 152.00 165.80 C 153.66 163.86 156.36 162.49 158.72 164.17 C 166.56 169.12 172.87 176.06 179.56 182.40 C 182.30 185.33 185.61 188.10 186.73 192.12 C 186.03 194.30 183.63 193.95 182.09 192.97 C 177.55 190.32 173.65 186.74 169.52 183.51 C 163.17 178.17 156.45 172.94 152.00 165.80 Z" fill="#fb7c07" opacity="1.00" stroke="#fb7c07" stroke-width="0.25"/>
<path d="M 250.33 175.47 C 268.14 174.14 286.29 179.68 300.44 190.56 C 313.11 200.23 322.25 214.34 326.15 229.78 C 330.02 245.61 328.41 262.81 321.26 277.50 C 314.08 293.22 300.79 306.04 284.78 312.59 C 268.17 319.89 248.78 320.64 231.72 314.41 C 217.81 309.98 205.74 300.66 197.09 289.01 C 178.89 264.52 178.86 227.95 198.01 203.99 C 210.22 187.44 229.87 176.95 250.33 175.47 Z" fill="#ae7929" opacity="1.00" stroke="#ae7929" stroke-width="0.25"/>
<path d="M 240.15 178.56 C 255.30 174.47 271.50 177.07 285.65 183.40 C 299.82 189.90 311.56 201.27 318.95 214.96 C 326.75 230.28 328.79 248.52 324.21 265.12 C 321.90 274.85 316.74 283.68 310.70 291.55 C 297.44 307.64 276.72 316.95 255.97 317.08 C 239.33 316.86 222.48 311.30 209.85 300.29 C 194.23 287.71 185.63 267.80 184.69 248.01 C 185.28 231.88 189.83 214.92 201.16 202.97 C 202.51 202.26 203.90 201.61 205.28 200.95 C 202.48 207.23 202.43 214.24 202.19 220.99 C 202.50 233.48 207.09 245.39 212.65 256.41 C 221.31 270.15 234.67 281.15 250.36 285.78 C 258.92 288.72 268.12 288.40 277.04 287.89 C 284.42 287.08 291.87 285.27 298.25 281.34 C 301.40 279.45 304.68 277.76 307.75 275.72 C 311.57 273.19 313.84 269.10 316.67 265.62 C 318.89 262.86 320.87 259.87 322.12 256.54 C 322.97 254.44 323.62 252.21 323.64 249.93 C 323.46 248.33 321.78 247.57 320.82 246.47 C 321.44 233.29 317.80 219.75 309.93 209.08 C 299.88 195.10 284.16 185.29 267.17 182.45 C 257.26 181.05 246.99 181.59 237.41 184.64 C 238.32 182.61 239.24 180.58 240.15 178.56 Z" fill="#fc800a" opacity="1.00" stroke="#fc800a" stroke-width="0.25"/>
<path d="M 216.26 188.46 C 223.63 183.94 231.66 180.34 240.15 178.56 C 239.24 180.58 238.32 182.61 237.41 184.64 C 235.85 185.43 234.36 186.35 232.87 187.26 C 233.59 187.23 235.03 187.15 235.75 187.11 C 234.86 188.44 233.95 189.75 233.04 191.07 C 232.92 190.20 232.67 188.47 232.54 187.60 C 231.42 200.42 233.44 213.83 240.13 224.98 C 249.81 243.04 269.40 255.62 290.02 255.79 C 300.93 255.86 311.67 252.33 320.82 246.47 C 321.78 247.57 323.46 248.33 323.64 249.93 C 323.62 252.21 322.97 254.44 322.12 256.54 C 316.15 262.49 310.25 269.20 301.97 271.88 C 295.00 274.06 287.78 276.03 280.40 275.61 C 272.32 275.21 264.15 274.14 256.58 271.16 C 243.20 265.40 231.13 255.96 223.67 243.31 C 218.39 234.05 214.61 223.73 214.12 213.01 C 213.40 205.15 214.59 197.31 216.06 189.61 C 216.11 189.32 216.21 188.75 216.26 188.46 Z" fill="#ff9b0b" opacity="1.00" stroke="#ff9b0b" stroke-width="0.25"/>
<path d="M 237.41 184.64 C 246.99 181.59 257.26 181.05 267.17 182.45 C 284.16 185.29 299.88 195.10 309.93 209.08 C 317.80 219.75 321.44 233.29 320.82 246.47 C 311.67 252.33 300.93 255.86 290.02 255.79 C 269.40 255.62 249.81 243.04 240.13 224.98 C 233.44 213.83 231.42 200.42 232.54 187.60 C 232.67 188.47 232.92 190.20 233.04 191.07 C 233.34 202.65 235.37 214.50 241.32 224.62 C 249.06 237.82 261.53 248.73 276.54 252.64 C 290.53 256.21 306.34 254.52 318.42 246.29 C 319.22 244.29 319.03 242.07 318.95 239.96 C 317.78 223.78 309.44 208.37 296.84 198.21 C 284.77 188.04 268.67 182.99 252.96 183.96 C 247.05 183.84 241.44 185.83 235.75 187.11 C 235.03 187.15 233.59 187.23 232.87 187.26 C 234.36 186.35 235.85 185.43 237.41 184.64 Z" fill="#d58604" opacity="1.00" stroke="#d58604" stroke-width="0.25"/>
<path d="M 235.75 187.11 C 241.44 185.83 247.05 183.84 252.96 183.96 C 268.67 182.99 284.77 188.04 296.84 198.21 C 309.44 208.37 317.78 223.78 318.95 239.96 C 319.03 242.07 319.22 244.29 318.42 246.29 C 306.34 254.52 290.53 256.21 276.54 252.64 C 261.53 248.73 249.06 237.82 241.32 224.62 C 235.37 214.50 233.34 202.65 233.04 191.07 C 233.95 189.75 234.86 188.44 235.75 187.11 Z" fill="#ffc907" opacity="1.00" stroke="#ffc907" stroke-width="0.25"/>
<path d="M 201.16 202.97 C 205.12 197.59 210.01 192.60 216.06 189.61 C 214.59 197.31 213.40 205.15 214.12 213.01 C 214.61 223.73 218.39 234.05 223.67 243.31 C 231.13 255.96 243.20 265.40 256.58 271.16 C 264.15 274.14 272.32 275.21 280.40 275.61 C 287.78 276.03 295.00 274.06 301.97 271.88 C 310.25 269.20 316.15 262.49 322.12 256.54 C 320.87 259.87 318.89 262.86 316.67 265.62 C 313.84 269.10 311.57 273.19 307.75 275.72 C 304.68 277.76 301.40 279.45 298.25 281.34 C 291.87 285.27 284.42 287.08 277.04 287.89 C 268.12 288.40 258.92 288.72 250.36 285.78 C 234.67 281.15 221.31 270.15 212.65 256.41 C 207.09 245.39 202.50 233.48 202.19 220.99 C 202.43 214.24 202.48 207.23 205.28 200.95 C 203.90 201.61 202.51 202.26 201.16 202.97 Z" fill="#fe8a0f" opacity="1.00" stroke="#fe8a0f" stroke-width="0.25"/>
<path d="M 365.63 201.52 C 370.66 200.19 376.21 197.88 381.23 200.45 C 381.63 201.67 382.03 202.89 382.45 204.11 C 381.54 205.92 380.63 207.99 378.49 208.60 C 371.05 211.69 363.21 213.72 355.38 215.59 C 348.90 216.91 342.45 219.24 335.73 218.38 C 334.58 216.30 334.82 214.05 335.81 211.98 C 345.22 207.13 355.59 204.66 365.63 201.52 Z" fill="#ae7929" opacity="1.00" stroke="#ae7929" stroke-width="0.25"/>
<path d="M 361.31 204.44 C 365.85 203.15 370.33 201.53 375.00 200.75 C 376.50 200.59 378.36 200.10 379.47 201.50 C 381.49 203.00 379.54 205.29 379.18 207.15 C 369.12 210.29 359.03 213.38 348.74 215.71 C 344.67 216.65 340.51 217.28 336.33 216.81 C 336.35 215.69 336.38 214.56 336.41 213.44 C 344.16 209.06 352.87 207.02 361.31 204.44 Z" fill="#fc7e06" opacity="1.00" stroke="#fc7e06" stroke-width="0.25"/>
<path d="M 133.77 211.72 C 136.07 210.81 138.51 210.07 141.01 210.49 C 147.08 211.32 153.06 212.68 159.03 214.01 C 163.82 215.24 168.91 216.14 173.02 219.07 C 174.61 219.99 174.48 221.92 174.76 223.48 C 173.86 224.10 172.96 224.73 172.07 225.36 C 168.74 225.45 165.40 225.44 162.11 224.91 C 153.33 223.41 144.31 222.32 136.19 218.43 C 134.75 217.66 133.68 216.37 132.53 215.25 C 132.95 214.07 133.36 212.89 133.77 211.72 Z" fill="#ae7929" opacity="1.00" stroke="#ae7929" stroke-width="0.25"/>
<path d="M 133.84 213.72 C 135.77 212.83 137.72 211.44 139.97 211.89 C 148.67 212.96 157.26 214.96 165.68 217.37 C 168.75 218.44 173.35 219.51 172.94 223.69 C 163.47 224.52 154.22 222.06 145.10 219.90 C 140.94 218.75 136.22 217.73 133.84 213.72 Z" fill="#ffac09" opacity="1.00" stroke="#ffac09" stroke-width="0.25"/>
<path d="M 338.46 245.62 C 343.91 242.74 350.16 244.33 355.98 244.69 C 364.34 245.76 372.94 246.18 380.92 249.14 C 383.32 249.78 384.44 252.08 385.66 254.01 C 384.78 255.03 383.98 256.11 382.98 257.02 C 379.45 257.80 375.77 257.53 372.19 257.29 C 363.43 256.30 354.64 255.29 346.04 253.35 C 343.23 252.76 340.61 251.50 338.37 249.72 C 338.40 248.35 338.43 246.98 338.46 245.62 Z" fill="#ae7929" opacity="1.00" stroke="#ae7929" stroke-width="0.25"/>
<path d="M 341.11 246.05 C 345.28 244.80 349.76 245.66 354.03 245.95 C 362.36 247.03 370.90 247.36 378.91 250.07 C 380.73 250.88 383.38 251.57 383.73 253.88 C 383.59 255.21 382.17 255.79 380.99 255.75 C 372.14 256.42 363.36 254.73 354.63 253.52 C 349.86 252.59 344.69 252.22 340.51 249.50 C 340.38 248.44 339.55 246.37 341.11 246.05 Z" fill="#fead09" opacity="1.00" stroke="#fead09" stroke-width="0.25"/>
<path d="M 127.92 254.94 C 135.80 253.15 143.96 253.56 151.98 252.93 C 158.52 252.82 165.32 252.17 171.57 254.51 C 172.57 257.03 172.21 260.32 169.22 261.19 C 161.45 263.81 153.04 263.54 144.96 264.47 C 137.83 264.32 130.14 266.96 123.53 263.22 C 122.73 259.73 124.26 255.95 127.92 254.94 Z" fill="#ae7929" opacity="1.00" stroke="#ae7929" stroke-width="0.25"/>
<path d="M 128.32 256.38 C 140.03 253.87 152.10 254.50 164.01 254.34 C 166.74 254.07 169.17 255.29 171.29 256.88 C 167.86 261.84 161.31 261.26 156.03 262.01 C 145.79 262.67 135.31 265.06 125.14 262.69 C 125.29 260.27 125.38 257.05 128.32 256.38 Z" fill="#fb7f09" opacity="1.00" stroke="#fb7f09" stroke-width="0.25"/>
<path d="M 330.48 278.80 C 331.65 278.39 332.82 277.98 333.99 277.56 C 338.26 278.76 342.32 280.61 346.17 282.79 C 353.08 286.61 360.34 289.79 367.03 293.99 C 369.70 295.75 372.72 298.25 372.48 301.81 C 372.67 304.28 369.62 304.52 368.02 305.48 C 360.51 303.12 354.06 298.48 347.09 294.98 C 341.81 291.68 336.00 288.95 331.68 284.37 C 330.00 282.97 330.55 280.70 330.48 278.80 Z" fill="#ae7929" opacity="1.00" stroke="#ae7929" stroke-width="0.25"/>
<path d="M 332.20 279.59 C 337.71 279.25 342.31 282.66 347.00 285.01 C 354.09 288.88 361.82 291.78 368.15 296.90 C 370.21 298.33 370.60 300.86 371.05 303.14 C 364.85 304.99 359.87 299.76 354.64 297.37 C 347.09 292.69 338.38 289.38 332.36 282.61 C 332.32 281.86 332.24 280.35 332.20 279.59 Z" fill="#fc7c06" opacity="1.00" stroke="#fc7c06" stroke-width="0.25"/>
<path d="M 169.30 289.32 C 173.42 287.25 178.03 284.37 182.74 286.42 C 183.00 289.01 182.43 291.66 180.27 293.33 C 173.02 299.57 164.49 304.09 156.38 309.10 C 151.80 311.45 146.42 315.54 141.25 312.38 C 141.16 309.14 142.75 306.17 145.33 304.25 C 152.80 298.49 161.04 293.83 169.30 289.32 Z" fill="#ae7929" opacity="1.00" stroke="#ae7929" stroke-width="0.25"/>
<path d="M 165.33 293.23 C 169.41 290.92 173.47 288.30 178.09 287.23 C 179.63 286.70 180.79 288.10 182.00 288.75 C 179.61 291.74 176.90 294.51 173.66 296.59 C 165.71 301.86 157.59 306.93 149.01 311.12 C 147.07 312.13 144.83 311.91 142.72 312.04 C 143.27 309.99 143.57 307.63 145.41 306.27 C 151.49 301.14 158.52 297.29 165.33 293.23 Z" fill="#ffae0a" opacity="1.00" stroke="#ffae0a" stroke-width="0.25"/>
<path d="M 105.63 345.01 C 120.84 333.14 139.87 326.89 158.96 325.31 C 175.44 324.07 192.13 325.35 208.19 329.29 C 226.12 333.49 243.48 339.85 261.54 343.57 C 271.85 345.99 282.54 347.02 293.10 345.97 C 305.40 344.77 317.06 340.40 328.89 337.09 C 348.76 331.61 370.31 329.83 390.30 335.69 C 395.86 337.84 401.94 339.86 406.12 344.27 C 390.39 340.19 373.79 340.35 357.89 343.39 C 344.16 345.76 331.15 350.86 317.93 355.05 C 294.22 362.42 268.74 360.50 244.89 354.88 C 216.72 348.97 189.04 339.28 160.01 338.67 C 141.50 337.92 122.92 340.82 105.42 346.84 C 105.47 346.38 105.58 345.47 105.63 345.01 Z" fill="#27566f" opacity="1.00" stroke="#27566f" stroke-width="0.25"/>
<path d="M 109.33 344.31 C 123.49 333.37 141.43 328.31 159.05 326.71 C 173.55 325.91 188.26 326.29 202.48 329.49 C 217.13 332.53 231.38 337.13 245.76 341.21 C 259.53 344.81 273.60 348.38 287.96 347.64 C 302.14 347.42 315.49 342.27 328.98 338.54 C 344.85 334.03 361.63 332.34 378.03 334.43 C 385.45 335.32 392.53 337.83 399.35 340.78 C 394.21 340.75 389.13 339.94 384.00 339.76 C 372.22 339.70 360.43 340.97 349.00 343.88 C 335.75 346.86 323.36 352.71 310.09 355.62 C 287.98 360.84 264.88 358.21 243.02 353.05 C 217.69 347.62 192.81 339.33 166.82 337.56 C 147.49 336.42 127.69 337.77 109.33 344.31 Z" fill="#5bd2fa" opacity="1.00" stroke="#5bd2fa" stroke-width="0.25"/>
<path d="M 341.11 359.45 C 357.78 355.03 374.52 349.03 392.02 349.89 C 402.39 350.19 412.55 353.08 421.89 357.50 C 422.99 357.98 423.70 358.96 424.51 359.81 C 408.03 357.99 391.37 360.56 375.56 365.24 C 355.27 371.24 336.07 380.93 315.11 384.58 C 299.32 387.66 283.06 387.64 267.16 385.39 C 243.41 382.60 220.34 376.21 196.96 371.46 C 162.60 363.90 126.17 364.36 92.51 375.05 C 94.12 372.12 97.31 370.79 100.00 369.09 C 123.76 355.41 151.82 350.55 178.98 352.02 C 194.32 353.26 209.43 356.63 224.23 360.80 C 246.49 367.41 269.59 373.22 293.01 371.36 C 309.55 369.73 325.14 363.64 341.11 359.45 Z" fill="#396f8a" opacity="1.00" stroke="#396f8a" stroke-width="0.25"/>
<path d="M 351.13 358.27 C 362.91 355.23 374.72 351.62 387.00 351.51 C 397.73 351.09 408.46 353.37 418.26 357.73 C 408.45 356.91 398.65 358.43 389.03 360.20 C 364.89 364.85 343.00 377.04 318.98 382.15 C 304.90 385.44 290.30 385.72 275.93 384.80 C 247.16 382.20 219.31 374.13 191.03 368.64 C 166.05 363.75 140.14 363.30 115.07 367.86 C 110.10 368.65 105.24 369.94 100.28 370.76 C 117.55 360.73 137.25 355.33 157.10 353.91 C 181.25 351.53 205.30 356.89 228.34 363.68 C 247.07 369.12 266.37 373.73 286.01 373.21 C 297.21 373.25 308.21 370.72 318.88 367.50 C 329.66 364.53 340.33 361.16 351.13 358.27 Z" fill="#5ad1fa" opacity="1.00" stroke="#5ad1fa" stroke-width="0.25"/>
</svg>