<?xml version="1.0" encoding="utf-8"?>
<svg xmlns="http://www.w3.org/2000/svg" height="512pt" version="1.1" viewBox="0 0 512 512" width="512pt">
<path d="M 0.00 0.00 L 512.00 0.00 L 512.00 512.00 L 0.00 512.00 L 0.00 0.00 Z" fill="transparent" opacity="1.00" stroke="transparent" stroke-width="0.25"/>
<path d="M 221.21 61.07 C 222.81 60.34 224.45 61.43 225.98 61.85 C 242.87 68.57 262.04 69.46 279.46 64.24 C 283.03 63.24 286.38 61.50 290.03 60.78 C 299.16 65.62 306.52 73.82 316.72 76.55 C 330.99 81.49 345.12 87.11 358.04 95.00 C 367.68 101.10 375.04 110.05 381.75 119.13 C 400.44 145.19 412.94 175.11 422.68 205.52 C 429.06 225.98 434.23 246.83 437.91 267.95 C 441.64 290.41 441.82 313.27 441.14 335.98 C 439.96 355.66 438.94 375.47 435.14 394.86 C 434.22 398.94 432.89 404.86 427.64 404.84 C 426.14 412.02 424.57 419.18 423.10 426.37 C 421.40 426.50 419.67 426.75 417.99 426.36 C 405.47 423.53 392.94 420.70 380.42 417.85 C 378.80 417.47 377.26 416.83 375.75 416.17 C 377.02 408.85 378.22 401.49 380.20 394.31 C 378.36 391.94 377.04 389.11 377.46 386.03 C 378.56 367.69 378.67 349.29 377.79 330.94 C 376.82 303.51 373.92 275.91 365.86 249.58 C 364.12 244.04 362.62 238.42 360.80 232.91 C 360.41 240.94 360.95 248.98 360.86 257.01 C 361.51 283.02 361.24 309.05 362.21 335.05 C 362.47 353.36 363.47 371.77 361.22 390.00 C 360.49 393.79 359.81 398.77 355.61 400.27 C 355.40 408.56 355.86 416.89 355.34 425.17 C 354.98 428.76 351.12 430.07 348.00 429.96 C 285.99 429.76 223.95 429.94 161.92 429.85 C 158.84 429.97 155.07 428.44 155.07 424.85 C 154.41 416.68 155.01 408.45 154.75 400.26 C 153.10 399.26 151.52 398.01 150.87 396.12 C 148.23 389.45 148.44 382.16 147.90 375.13 C 147.10 354.77 148.47 334.41 148.65 314.05 C 149.10 293.70 149.47 273.35 149.55 253.00 C 149.53 246.29 150.00 239.58 149.49 232.89 C 146.68 243.72 142.93 254.30 140.46 265.23 C 135.18 287.39 134.01 310.24 132.75 332.91 C 132.38 344.90 132.44 356.91 132.60 368.91 C 132.65 375.28 133.64 381.60 133.59 387.97 C 133.69 390.16 132.50 392.06 131.66 394.00 C 133.37 401.34 135.35 408.64 136.44 416.11 C 135.02 416.72 133.60 417.35 132.07 417.61 C 122.52 419.68 113.06 422.15 103.50 424.15 C 98.67 425.08 93.90 427.09 88.90 426.41 C 87.32 419.23 85.65 412.07 84.04 404.90 C 80.53 404.90 77.96 402.20 77.00 399.02 C 74.76 391.85 73.99 384.35 72.94 376.95 C 69.68 350.46 68.41 323.69 69.58 297.01 C 70.52 277.75 73.74 258.66 78.44 239.97 C 84.99 211.28 94.26 183.16 106.73 156.48 C 115.52 138.55 125.60 120.96 139.23 106.23 C 153.78 91.01 174.19 83.78 193.54 76.81 C 204.13 74.29 211.72 65.85 221.21 61.07 Z" fill="#062e4b" opacity="1.00" stroke="#062e4b" stroke-width="0.25"/>
<path d="M 221.93 64.40 C 228.21 66.46 234.36 69.03 240.95 70.03 C 257.05 72.65 274.26 71.53 289.13 64.41 C 294.58 67.92 299.89 71.66 305.17 75.40 C 305.29 77.03 305.16 78.67 305.14 80.31 C 301.31 79.10 297.72 77.28 294.01 75.76 C 292.39 74.91 290.57 75.36 288.92 75.81 C 267.83 82.08 244.69 82.48 223.81 75.17 C 217.66 72.59 211.53 76.67 205.35 77.02 C 206.13 75.35 207.46 74.05 209.03 73.11 C 213.45 70.39 217.72 67.44 221.93 64.40 Z" fill="#93e8ff" opacity="1.00" stroke="#93e8ff" stroke-width="0.25"/>
<path d="M 180.03 85.81 C 187.32 82.63 194.94 80.37 202.39 77.61 C 203.96 88.30 207.28 99.14 214.40 107.51 C 224.32 119.91 240.18 127.10 256.02 126.73 C 275.75 127.03 295.07 115.07 303.41 97.17 C 306.09 90.89 307.84 84.25 308.81 77.50 C 324.32 83.18 339.94 88.80 354.36 96.97 C 350.43 114.02 348.15 131.50 348.49 149.01 C 348.98 172.15 351.92 195.21 356.16 217.94 C 356.91 222.92 356.60 227.98 356.73 233.00 C 356.83 260.33 357.50 287.65 357.79 314.98 C 358.33 335.96 359.23 356.97 358.51 377.96 C 358.03 384.24 358.16 390.84 355.34 396.64 C 324.88 396.71 294.41 396.16 263.95 397.03 C 245.95 397.45 227.96 396.28 209.96 396.55 C 191.58 396.35 173.19 396.93 154.82 396.47 C 152.31 390.63 152.23 384.21 151.80 377.98 C 150.79 349.63 152.96 321.31 152.77 292.96 C 153.40 270.98 153.62 248.99 153.70 227.00 C 153.70 224.04 153.62 221.05 154.11 218.12 C 157.91 198.95 160.56 179.53 161.62 160.01 C 162.64 142.92 161.84 125.67 158.62 108.84 C 157.87 104.88 156.81 100.99 156.22 97.01 C 164.05 93.04 171.74 88.74 180.03 85.81 Z" fill="#93e8ff" opacity="1.00" stroke="#93e8ff" stroke-width="0.25"/>
<path d="M 206.50 81.37 C 210.73 79.75 215.21 79.02 219.60 77.97 C 219.94 80.73 220.27 83.49 220.55 86.26 C 216.54 87.15 212.61 88.31 208.70 89.53 C 207.95 86.81 207.26 84.08 206.50 81.37 Z" fill="#93e8ff" opacity="1.00" stroke="#93e8ff" stroke-width="0.25"/>
<path d="M 223.52 79.18 C 244.30 86.01 267.03 85.98 288.00 80.03 C 286.92 89.50 282.31 98.83 274.22 104.19 C 260.29 114.02 238.32 110.56 228.99 95.99 C 225.29 91.18 224.11 85.07 223.52 79.18 Z" fill="#93e8ff" opacity="1.00" stroke="#93e8ff" stroke-width="0.25"/>
<path d="M 291.81 79.30 C 295.95 80.86 299.91 82.86 303.90 84.76 C 303.33 86.93 302.75 89.11 302.18 91.28 C 298.40 89.85 294.77 88.08 291.06 86.49 C 291.35 84.09 291.60 81.70 291.81 79.30 Z" fill="#93e8ff" opacity="1.00" stroke="#93e8ff" stroke-width="0.25"/>
<path d="M 210.17 93.71 C 214.06 92.48 217.87 90.93 221.93 90.32 C 222.82 92.77 223.89 95.15 225.18 97.42 C 222.09 99.56 218.95 101.62 215.86 103.76 C 213.65 100.60 211.72 97.24 210.17 93.71 Z" fill="#93e8ff" opacity="1.00" stroke="#93e8ff" stroke-width="0.25"/>
<path d="M 286.89 96.00 C 287.79 94.10 288.70 92.22 289.64 90.35 C 293.07 92.25 296.58 94.01 300.09 95.75 C 298.95 98.21 297.59 100.56 296.09 102.82 C 293.09 100.44 289.95 98.28 286.89 96.00 Z" fill="#93e8ff" opacity="1.00" stroke="#93e8ff" stroke-width="0.25"/>
<path d="M 357.77 99.18 C 371.89 109.25 381.24 124.31 390.18 138.84 C 404.81 164.25 415.08 191.93 423.11 220.05 C 429.30 242.99 434.99 266.23 436.62 290.01 C 438.58 317.43 437.38 345.00 434.47 372.30 C 433.48 381.63 432.59 391.02 430.14 400.11 C 426.44 401.79 422.66 399.66 418.98 399.02 C 406.56 395.83 393.84 393.83 381.51 390.32 C 380.97 384.56 381.66 378.81 381.91 373.05 C 382.53 363.72 382.28 354.37 382.19 345.02 C 381.63 318.68 379.81 292.24 374.24 266.43 C 370.64 251.02 365.46 236.03 360.85 220.90 C 356.72 202.94 354.50 184.58 353.10 166.23 C 351.41 143.81 352.32 121.06 357.77 99.18 Z" fill="#93e8ff" opacity="1.00" stroke="#93e8ff" stroke-width="0.25"/>
<path d="M 120.06 138.99 C 128.80 124.42 138.32 109.45 152.61 99.72 C 162.02 135.53 157.93 173.04 152.01 209.07 C 150.52 219.58 146.77 229.56 143.82 239.71 C 139.92 251.92 136.38 264.29 134.25 276.95 C 129.15 306.99 128.15 337.59 128.74 368.00 C 128.78 375.46 130.16 382.89 129.59 390.36 C 123.24 392.44 116.59 393.34 110.13 395.00 C 101.04 396.91 92.05 399.27 82.99 401.30 C 80.94 399.92 80.07 397.65 79.72 395.30 C 76.48 378.38 74.89 361.19 73.67 344.03 C 72.64 322.35 72.48 300.55 74.89 278.95 C 77.79 256.29 83.41 234.09 89.51 212.11 C 97.29 186.83 106.80 161.94 120.06 138.99 Z" fill="#93e8ff" opacity="1.00" stroke="#93e8ff" stroke-width="0.25"/>
<path d="M 280.17 104.08 C 281.60 102.56 283.11 101.10 284.73 99.78 C 287.25 102.01 289.97 103.98 292.78 105.84 C 292.73 106.18 292.64 106.88 292.59 107.22 C 290.63 108.95 288.71 110.71 286.80 112.49 C 284.48 109.77 282.26 106.97 280.17 104.08 Z" fill="#93e8ff" opacity="1.00" stroke="#93e8ff" stroke-width="0.25"/>
<path d="M 219.05 107.07 C 222.11 105.21 225.07 103.20 227.99 101.13 C 231.45 104.80 235.34 108.12 240.02 110.10 C 238.81 113.19 237.43 116.20 236.09 119.24 C 229.51 116.71 223.46 112.62 219.05 107.07 Z" fill="#93e8ff" opacity="1.00" stroke="#93e8ff" stroke-width="0.25"/>
<path d="M 271.50 109.91 C 273.25 108.88 275.04 107.91 276.93 107.16 C 278.77 109.96 280.83 112.62 283.07 115.13 C 280.51 116.85 277.80 118.40 274.79 119.17 C 273.64 116.10 272.50 113.03 271.50 109.91 Z" fill="#93e8ff" opacity="1.00" stroke="#93e8ff" stroke-width="0.25"/>
<path d="M 244.14 112.02 C 247.59 112.49 251.02 113.13 254.47 113.59 C 254.47 116.86 254.47 120.13 254.44 123.41 C 249.71 122.79 244.93 122.32 240.38 120.84 C 241.69 117.93 242.99 115.00 244.14 112.02 Z" fill="#93e8ff" opacity="1.00" stroke="#93e8ff" stroke-width="0.25"/>
<path d="M 258.63 113.46 C 261.42 113.00 264.20 112.45 266.96 111.87 C 268.12 114.95 269.32 118.03 270.12 121.24 C 266.35 122.15 262.51 122.81 258.62 122.90 C 258.69 119.76 258.70 116.61 258.63 113.46 Z" fill="#93e8ff" opacity="1.00" stroke="#93e8ff" stroke-width="0.25"/>
<path d="M 118.92 398.73 C 120.74 398.33 122.56 397.91 124.38 397.49 C 125.56 403.19 127.08 408.82 128.20 414.54 C 126.29 414.92 124.38 415.31 122.47 415.70 C 121.37 410.02 120.03 404.40 118.92 398.73 Z" fill="#93e8ff" opacity="1.00" stroke="#93e8ff" stroke-width="0.25"/>
<path d="M 383.93 414.68 C 385.07 408.96 386.13 403.22 387.44 397.54 C 389.24 398.00 391.04 398.44 392.85 398.87 C 391.98 404.55 390.64 410.14 389.45 415.76 C 387.60 415.40 385.76 415.04 383.93 414.68 Z" fill="#93e8ff" opacity="1.00" stroke="#93e8ff" stroke-width="0.25"/>
<path d="M 105.27 401.55 C 107.33 401.10 109.38 400.68 111.43 400.23 C 112.55 406.17 114.49 411.98 114.76 418.06 C 112.80 418.25 110.85 418.47 108.89 418.69 C 107.97 412.92 106.28 407.30 105.27 401.55 Z" fill="#93e8ff" opacity="1.00" stroke="#93e8ff" stroke-width="0.25"/>
<path d="M 158.78 400.13 C 162.40 400.35 166.03 400.47 169.67 400.43 C 169.55 409.02 169.59 417.61 169.68 426.20 C 166.19 425.82 162.01 427.13 159.02 424.94 C 158.54 416.69 158.88 408.40 158.78 400.13 Z" fill="#93e8ff" opacity="1.00" stroke="#93e8ff" stroke-width="0.25"/>
<path d="M 267.52 400.53 C 269.74 400.53 271.97 400.52 274.20 400.46 C 274.47 409.01 274.31 417.58 274.37 426.14 C 272.11 426.14 269.85 426.15 267.59 426.20 C 267.37 417.64 267.52 409.08 267.52 400.53 Z" fill="#93e8ff" opacity="1.00" stroke="#93e8ff" stroke-width="0.25"/>
<path d="M 278.89 400.42 C 282.52 400.49 286.16 400.49 289.79 400.41 C 289.70 409.00 289.86 417.60 289.69 426.19 C 286.20 426.09 282.72 426.09 279.24 426.26 C 278.41 417.68 279.02 409.03 278.89 400.42 Z" fill="#93e8ff" opacity="1.00" stroke="#93e8ff" stroke-width="0.25"/>
<path d="M 294.42 400.44 C 298.00 400.49 301.59 400.49 305.18 400.39 C 305.36 408.87 305.13 417.35 305.35 425.82 C 301.74 426.18 298.11 426.17 294.49 426.19 C 294.33 417.61 294.48 409.02 294.42 400.44 Z" fill="#93e8ff" opacity="1.00" stroke="#93e8ff" stroke-width="0.25"/>
<path d="M 325.54 400.42 C 329.13 400.52 332.72 400.53 336.31 400.48 C 336.32 409.07 336.35 417.65 336.32 426.24 C 332.71 426.21 329.10 426.22 325.49 426.31 C 325.53 417.68 325.53 409.05 325.54 400.42 Z" fill="#93e8ff" opacity="1.00" stroke="#93e8ff" stroke-width="0.25"/>
<path d="M 340.71 400.37 C 344.37 400.56 348.02 400.39 351.67 400.20 C 351.53 408.62 351.84 417.06 351.45 425.47 C 347.90 426.10 344.30 426.27 340.71 426.25 C 340.76 417.62 340.72 409.00 340.71 400.37 Z" fill="#93e8ff" opacity="1.00" stroke="#93e8ff" stroke-width="0.25"/>
<path d="M 174.16 400.43 C 177.70 400.53 181.25 400.55 184.79 400.43 C 184.87 409.02 184.90 417.61 184.77 426.20 C 181.26 426.13 177.74 426.14 174.23 426.25 C 174.11 417.64 174.19 409.04 174.16 400.43 Z" fill="#93e8ff" opacity="1.00" stroke="#93e8ff" stroke-width="0.25"/>
<path d="M 189.53 400.39 C 193.15 400.50 196.78 400.51 200.40 400.45 C 200.42 409.01 200.44 417.58 200.39 426.15 C 196.78 426.11 193.18 426.13 189.58 426.19 C 189.49 417.59 189.58 408.99 189.53 400.39 Z" fill="#93e8ff" opacity="1.00" stroke="#93e8ff" stroke-width="0.25"/>
<path d="M 205.01 400.43 C 208.70 400.53 212.39 400.52 216.08 400.56 C 216.04 409.14 216.08 417.73 216.08 426.32 C 212.42 426.32 208.77 426.33 205.12 426.39 C 205.06 417.74 205.26 409.08 205.01 400.43 Z" fill="#93e8ff" opacity="1.00" stroke="#93e8ff" stroke-width="0.25"/>
<path d="M 220.63 400.43 C 224.25 400.52 227.86 400.51 231.47 400.42 C 231.62 408.97 231.40 417.52 231.64 426.06 C 227.97 426.14 224.29 426.12 220.62 426.12 C 220.67 417.55 220.65 408.99 220.63 400.43 Z" fill="#93e8ff" opacity="1.00" stroke="#93e8ff" stroke-width="0.25"/>
<path d="M 236.17 400.43 C 239.98 400.61 243.80 400.60 247.61 400.73 C 247.48 409.18 247.50 417.63 247.64 426.07 C 243.89 426.11 240.15 426.09 236.40 426.21 C 235.92 417.62 236.34 409.02 236.17 400.43 Z" fill="#93e8ff" opacity="1.00" stroke="#93e8ff" stroke-width="0.25"/>
<path d="M 252.10 400.51 C 255.67 400.60 259.24 400.62 262.82 400.55 C 262.83 409.10 262.97 417.65 262.77 426.21 C 259.28 426.18 255.79 426.18 252.31 426.26 C 251.90 417.68 252.22 409.09 252.10 400.51 Z" fill="#93e8ff" opacity="1.00" stroke="#93e8ff" stroke-width="0.25"/>
<path d="M 309.82 400.46 C 313.46 400.54 317.11 400.53 320.75 400.43 C 320.84 409.08 320.79 417.72 320.79 426.38 C 317.10 426.35 313.41 426.36 309.73 426.36 C 309.89 417.72 309.79 409.09 309.82 400.46 Z" fill="#93e8ff" opacity="1.00" stroke="#93e8ff" stroke-width="0.25"/>
<path d="M 397.18 417.79 C 397.39 411.83 399.37 406.08 400.53 400.25 C 402.49 400.76 404.45 401.26 406.43 401.72 C 405.33 407.40 403.89 413.01 402.96 418.72 C 401.02 418.52 399.06 418.32 397.18 417.79 Z" fill="#93e8ff" opacity="1.00" stroke="#93e8ff" stroke-width="0.25"/>
<path d="M 91.52 404.79 C 93.51 404.35 95.50 403.87 97.48 403.37 C 99.12 409.00 100.19 414.78 101.61 420.47 C 99.55 420.93 97.49 421.37 95.43 421.81 C 94.03 416.16 92.84 410.46 91.52 404.79 Z" fill="#93e8ff" opacity="1.00" stroke="#93e8ff" stroke-width="0.25"/>
<path d="M 410.26 420.44 C 411.41 414.76 412.79 409.12 413.86 403.43 C 415.88 403.88 417.91 404.30 419.95 404.73 C 419.16 410.51 417.64 416.16 416.38 421.86 C 414.34 421.37 412.30 420.90 410.26 420.44 Z" fill="#93e8ff" opacity="1.00" stroke="#93e8ff" stroke-width="0.25"/>
</svg>