<svg xmlns="http://www.w3.org/2000/svg" height="512pt" version="1.1" viewBox="0 0 512 512" width="512pt">

<path d="M 168.72 57.68 C 170.90 57.61 173.09 57.54 175.28 57.51 C 176.50 63.25 176.40 69.14 176.76 74.97 C 181.47 155.61 185.81 236.26 190.74 316.88 C 193.47 318.37 196.32 319.94 198.09 322.60 C 200.68 323.15 203.27 322.43 205.79 321.83 C 226.56 317.17 247.43 312.97 268.20 308.30 C 268.35 307.63 268.64 306.28 268.79 305.61 C 270.32 305.62 271.80 305.91 273.22 306.49 C 274.75 299.64 279.23 292.56 286.59 291.18 C 287.98 243.80 288.87 196.41 289.86 149.02 C 290.86 126.02 290.00 102.98 289.79 79.97 C 289.68 77.89 290.06 75.84 290.55 73.83 C 292.82 73.55 295.09 73.31 297.38 73.24 C 297.63 73.94 298.14 75.33 298.39 76.02 C 296.84 76.41 295.31 76.82 293.79 77.28 C 294.71 77.44 296.53 77.76 297.44 77.92 C 298.04 92.28 297.16 106.64 297.38 121.00 C 297.21 166.69 297.51 212.38 296.60 258.06 C 296.35 269.72 296.15 281.39 296.17 293.06 C 308.95 302.75 312.59 319.75 312.94 334.96 C 314.69 336.80 316.88 338.15 318.78 339.84 C 318.61 345.61 318.68 351.46 317.41 357.13 C 312.54 359.39 307.16 360.08 302.00 361.41 C 274.63 367.89 247.26 374.37 219.88 380.80 C 214.95 381.84 210.12 383.56 205.07 383.82 C 203.23 383.20 201.87 381.74 200.36 380.60 C 187.82 370.77 175.24 361.01 162.67 351.24 C 159.28 348.93 160.41 344.40 160.44 340.95 C 160.86 337.86 160.24 333.92 162.92 331.69 C 164.79 330.64 166.97 330.44 169.04 330.06 C 169.88 326.51 171.74 323.36 173.71 320.34 C 176.29 318.07 179.24 316.09 182.79 315.97 C 182.51 297.41 180.94 278.88 180.00 260.35 C 176.49 197.19 172.75 134.04 169.24 70.88 C 168.83 66.49 168.53 62.09 168.72 57.68 Z" fill="#06355a" opacity="1.00" stroke="#06355a" stroke-width="0.25" data-index="1"></path>
<path d="M 292.41 267.99 C 293.48 249.79 293.07 231.55 294.08 213.35 C 296.05 230.84 294.67 248.45 294.53 265.99 C 294.34 274.25 293.71 282.61 292.48 290.73 C 293.10 283.15 291.90 275.57 292.41 267.99 Z" fill="#ffffff" opacity="1.00" stroke="#ffffff" stroke-width="0.25" data-index="2"></path>
<path d="M 280.15 312.00 C 279.56 306.87 281.99 301.98 286.17 299.05 C 286.26 304.75 285.87 310.44 285.65 316.14 C 283.80 314.78 281.70 313.72 280.15 312.00 Z" fill="#ffffff" opacity="1.00" stroke="#ffffff" stroke-width="0.25" data-index="3"></path>
<path d="M 294.92 303.52 C 300.37 310.77 303.15 319.73 303.74 328.72 C 300.56 326.71 297.50 324.50 294.38 322.40 C 294.50 316.11 294.51 309.80 294.92 303.52 Z" fill="#ffffff" opacity="1.00" stroke="#ffffff" stroke-width="0.25" data-index="4"></path>
<path d="M 265.98 310.92 C 268.09 310.38 270.51 310.06 272.23 311.73 C 286.49 322.41 301.31 332.40 314.99 343.82 C 314.78 346.53 314.57 349.25 314.35 351.97 C 278.75 359.64 243.18 367.46 207.67 375.60 C 207.71 373.27 207.74 370.94 207.77 368.62 C 208.67 368.24 209.57 367.86 210.48 367.49 C 210.65 365.78 210.83 364.07 211.02 362.37 C 218.35 363.53 225.42 360.50 232.43 358.84 C 237.90 357.04 243.57 356.08 249.32 355.81 C 236.62 355.22 224.37 359.32 211.86 360.76 L 210.74 360.95 C 210.78 348.52 207.91 335.40 200.18 325.42 C 222.04 320.28 244.08 315.90 265.98 310.92 Z" fill="#84d442" opacity="1.00" stroke="#84d442" stroke-width="0.25" data-index="5"></path>
<path d="M 309.16 329.03 C 308.92 323.90 307.48 318.90 307.55 313.74 C 309.65 320.41 311.27 327.40 310.70 334.43 C 309.14 333.06 309.40 330.89 309.16 329.03 Z" fill="#7fe1fd" opacity="1.00" stroke="#7fe1fd" stroke-width="0.25" data-index="6"></path>
<path d="M 179.02 327.84 C 180.02 326.78 181.05 325.77 182.09 324.75 C 182.51 325.12 183.35 325.86 183.77 326.23 C 182.21 326.82 180.63 327.38 179.02 327.84 Z" fill="#ffffff" opacity="1.00" stroke="#ffffff" stroke-width="0.25" data-index="7"></path>
<path d="M 177.80 330.67 C 179.22 329.20 181.53 329.65 183.36 329.19 C 183.62 334.44 183.83 339.68 184.25 344.92 C 181.25 343.14 178.42 341.11 175.63 339.02 C 176.28 336.22 176.72 333.34 177.80 330.67 Z" fill="#84d442" opacity="1.00" stroke="#84d442" stroke-width="0.25" data-index="8"></path>
<path d="M 192.37 328.95 C 198.71 337.33 201.56 347.76 202.34 358.11 C 199.07 356.56 195.86 354.50 193.49 351.77 C 192.54 344.21 192.26 336.56 192.37 328.95 Z" fill="#84d442" opacity="1.00" stroke="#84d442" stroke-width="0.25" data-index="9"></path>
<path d="M 211.86 360.76 C 224.37 359.32 236.62 355.22 249.32 355.81 C 243.57 356.08 237.90 357.04 232.43 358.84 C 225.42 360.50 218.35 363.53 211.02 362.37 L 209.93 362.13 L 211.86 360.76 Z" fill="#ffffff" opacity="1.00" stroke="#ffffff" stroke-width="0.25" data-index="10"></path>

<path d="M 226.95 403.87 C 237.66 403.71 248.30 402.05 259.03 402.46 C 237.97 403.51 217.09 406.31 196.00 406.68 C 189.39 407.92 182.66 407.39 175.98 407.60 C 164.98 408.77 153.87 408.56 142.83 408.13 C 152.55 407.03 162.42 408.23 172.10 406.57 C 180.55 406.48 188.96 405.80 197.39 405.30 C 207.19 403.92 217.13 405.03 226.95 403.87 Z" fill="#7fe1fd" opacity="1.00" stroke="#7fe1fd" stroke-width="0.25" data-index="12" style="visibility: hidden; opacity: 1;"></path>

</svg>