<?xml version="1.0" encoding="utf-8"?>
<svg xmlns="http://www.w3.org/2000/svg" height="512pt" version="1.1" viewBox="0 0 512 512" width="512pt">
<path d="M 0.00 0.00 L 512.00 0.00 L 512.00 512.00 L 0.00 512.00 L 0.00 0.00 Z" fill="transparent" opacity="1.00" stroke="transparent" stroke-width="0.25"/>
<path d="M 311.96 152.15 C 319.14 150.32 327.64 151.58 332.64 157.47 C 340.82 165.94 339.88 178.59 339.74 189.46 C 343.41 189.45 347.07 189.41 350.74 189.52 C 350.86 184.96 350.86 180.40 350.83 175.84 C 354.27 175.49 357.72 175.55 361.17 175.64 C 360.38 183.73 360.85 191.88 360.73 200.01 C 361.13 213.68 360.59 227.36 360.83 241.04 C 360.88 244.95 360.85 248.88 360.42 252.77 L 359.25 252.53 C 358.24 238.38 359.21 224.19 358.81 210.03 C 359.34 199.45 359.02 188.87 358.76 178.29 C 357.00 178.34 355.25 178.39 353.50 178.44 C 353.49 183.09 353.37 187.75 353.74 192.39 C 348.05 192.61 342.34 192.46 336.65 192.42 C 336.50 185.62 336.95 178.79 336.37 172.00 C 335.69 164.41 330.59 156.77 323.04 154.65 C 317.00 153.58 310.20 154.24 305.33 158.29 C 299.00 163.35 296.50 171.69 295.96 179.50 C 293.94 176.56 294.84 172.94 295.09 169.66 C 295.51 167.21 296.76 165.01 297.75 162.76 C 301.12 157.80 305.95 153.44 311.96 152.15 Z" fill="#1f2437" opacity="1.00" stroke="#1f2437" stroke-width="0.25"/>
<path d="M 305.33 158.29 C 310.20 154.24 317.00 153.58 323.04 154.65 C 330.59 156.77 335.69 164.41 336.37 172.00 C 336.95 178.79 336.50 185.62 336.65 192.42 C 342.34 192.46 348.05 192.61 353.74 192.39 C 355.43 188.31 354.69 183.77 355.16 179.48 C 358.17 180.76 357.14 184.45 357.44 187.03 C 357.22 208.03 357.73 229.04 357.15 250.04 C 356.62 249.74 355.55 249.14 355.02 248.83 C 354.54 231.66 355.11 214.47 354.73 197.29 C 349.01 196.94 343.22 196.46 337.53 197.48 C 342.78 198.33 348.11 198.15 353.40 197.81 L 353.37 198.38 C 348.01 198.24 342.65 198.28 337.29 198.29 C 337.22 200.59 337.15 202.88 337.13 205.18 C 337.06 202.62 336.76 200.08 336.31 197.57 C 335.93 200.27 335.68 202.99 335.47 205.71 C 334.43 205.67 333.39 205.64 332.36 205.61 C 332.24 196.08 332.28 186.55 332.21 177.03 C 331.90 171.28 330.94 163.72 324.69 161.44 C 319.95 158.96 313.74 158.82 309.60 162.55 C 304.03 166.50 303.15 173.63 300.69 179.48 C 299.11 179.60 297.53 179.50 295.96 179.50 C 296.50 171.69 299.00 163.35 305.33 158.29 Z" fill="#ef6029" opacity="1.00" stroke="#ef6029" stroke-width="0.25"/>
<path d="M 309.60 162.55 C 313.74 158.82 319.95 158.96 324.69 161.44 C 327.91 164.89 330.34 169.19 330.53 174.00 C 331.11 184.90 330.41 195.84 330.93 206.75 C 333.00 206.76 335.06 206.76 337.13 206.76 C 337.13 206.37 337.13 205.58 337.13 205.18 C 337.15 202.88 337.22 200.59 337.29 198.29 C 342.65 198.28 348.01 198.24 353.37 198.38 C 352.72 215.59 353.67 232.82 352.97 250.03 C 352.44 249.93 351.38 249.72 350.85 249.61 C 350.86 233.51 350.90 217.40 350.84 201.29 C 347.16 201.24 343.48 201.19 339.81 201.43 C 339.89 204.12 339.86 206.81 339.63 209.50 C 335.75 209.62 331.86 209.54 327.98 209.46 C 327.49 197.66 328.03 185.83 327.73 174.01 C 327.64 170.18 326.29 166.19 322.93 164.02 C 320.63 162.01 317.49 162.39 314.68 162.50 C 312.59 163.76 310.50 165.11 308.97 167.06 C 305.67 170.94 304.96 176.16 303.10 180.75 C 300.62 181.07 297.89 181.46 295.96 179.50 C 297.53 179.50 299.11 179.60 300.69 179.48 C 303.15 173.63 304.03 166.50 309.60 162.55 Z" fill="#152938" opacity="1.00" stroke="#152938" stroke-width="0.25"/>
<path d="M 324.69 161.44 C 330.94 163.72 331.90 171.28 332.21 177.03 C 332.28 186.55 332.24 196.08 332.36 205.61 C 333.39 205.64 334.43 205.67 335.47 205.71 C 335.68 202.99 335.93 200.27 336.31 197.57 C 336.76 200.08 337.06 202.62 337.13 205.18 C 337.13 205.58 337.13 206.37 337.13 206.76 C 335.06 206.76 333.00 206.76 330.93 206.75 C 330.41 195.84 331.11 184.90 330.53 174.00 C 330.34 169.19 327.91 164.89 324.69 161.44 Z" fill="#af6450" opacity="1.00" stroke="#af6450" stroke-width="0.25"/>
<path d="M 291.89 178.00 C 294.00 175.74 293.99 172.43 295.09 169.66 C 294.84 172.94 293.94 176.56 295.96 179.50 C 297.89 181.46 300.62 181.07 303.10 180.75 C 303.36 182.08 304.64 182.51 305.71 183.04 C 304.64 188.21 301.97 192.86 300.11 197.77 C 295.30 196.31 290.84 193.91 286.25 191.90 C 287.72 187.11 289.66 182.48 291.89 178.00 Z" fill="#042c4c" opacity="1.00" stroke="#042c4c" stroke-width="0.25"/>
<path d="M 361.17 175.64 C 361.32 176.73 361.41 177.82 361.46 178.92 C 361.58 203.88 361.29 228.84 361.59 253.80 C 362.62 254.73 363.81 255.56 364.60 256.74 C 365.35 262.55 363.68 268.29 362.52 273.93 C 361.17 280.42 359.22 286.76 357.17 293.05 C 356.16 295.72 355.18 298.41 354.20 301.09 C 346.64 320.32 334.74 338.36 317.78 350.50 C 303.73 360.42 286.99 366.08 270.00 368.20 C 247.79 371.31 225.32 369.80 202.98 370.17 C 200.16 369.94 196.60 370.98 194.53 368.48 C 183.91 357.65 173.94 346.05 166.01 333.08 C 158.09 320.32 152.22 306.33 148.23 291.86 C 147.35 288.10 146.08 283.56 148.96 280.33 C 153.35 275.60 159.31 272.73 165.13 270.16 C 165.27 267.21 165.47 264.26 165.97 261.35 C 166.61 265.24 166.94 269.18 166.77 273.13 C 166.53 275.45 166.29 277.77 166.05 280.10 C 173.08 285.76 182.72 284.35 190.43 288.45 C 194.21 290.19 197.39 293.12 201.40 294.38 C 203.99 295.22 206.60 296.01 209.09 297.13 C 214.41 297.42 219.72 296.94 225.02 296.64 C 228.63 296.63 231.49 294.16 234.62 292.72 C 238.60 290.81 242.34 288.45 246.22 286.35 C 245.38 286.23 243.72 286.00 242.89 285.88 C 243.52 285.39 244.16 284.90 244.81 284.42 C 243.12 283.99 241.44 283.56 239.74 283.21 C 249.93 284.75 260.37 284.89 270.42 282.35 C 277.62 274.78 285.73 268.01 291.96 259.57 C 286.98 258.45 282.54 261.05 277.95 262.37 C 274.57 262.38 272.51 258.32 269.02 258.31 C 263.07 258.08 259.30 263.67 254.02 265.41 C 250.25 265.71 246.75 263.15 242.95 263.87 C 239.26 264.42 236.62 267.51 233.00 268.20 C 228.75 267.72 225.52 263.63 221.02 264.45 C 217.37 264.57 215.08 267.64 212.89 270.13 C 208.39 266.99 202.39 265.02 197.36 268.23 C 196.34 268.07 195.30 267.94 194.28 267.80 C 193.99 266.45 193.70 265.11 193.40 263.78 C 193.29 265.38 193.20 266.98 193.10 268.59 L 192.60 268.34 C 192.51 263.54 192.64 258.73 192.47 253.93 L 193.24 253.94 C 193.25 256.64 193.26 259.36 193.27 262.07 C 193.65 261.59 194.42 260.65 194.80 260.17 L 195.05 259.87 C 212.24 255.60 229.67 252.07 247.30 250.23 C 246.89 247.66 247.56 243.80 250.98 244.16 C 254.19 243.59 255.04 246.79 255.60 249.20 C 270.00 247.14 284.57 246.57 299.08 246.00 C 303.53 243.96 306.40 238.04 312.02 238.43 C 315.38 239.69 314.01 243.57 313.46 246.18 C 316.52 245.80 319.68 246.13 322.71 245.51 C 326.23 244.12 329.88 241.50 333.84 242.80 C 335.62 243.52 335.92 245.48 336.52 247.07 C 341.38 247.39 346.12 248.48 350.85 249.61 C 351.38 249.72 352.44 249.93 352.97 250.03 C 353.67 232.82 352.72 215.59 353.37 198.38 L 353.40 197.81 C 353.49 215.36 353.52 232.91 353.41 250.47 C 355.33 251.21 357.26 251.94 359.25 252.53 L 360.42 252.77 C 360.85 248.88 360.88 244.95 360.83 241.04 C 360.59 227.36 361.13 213.68 360.73 200.01 C 360.85 191.88 360.38 183.73 361.17 175.64 Z" fill="#002d49" opacity="1.00" stroke="#002d49" stroke-width="0.25"/>
<path d="M 174.35 178.46 C 181.08 176.87 188.53 179.88 193.04 184.96 C 196.68 189.14 195.41 194.97 194.28 199.85 C 198.27 205.02 201.03 210.98 204.66 216.38 C 207.31 218.29 210.87 218.62 213.28 220.91 C 214.05 223.24 210.94 224.41 209.71 225.97 C 211.86 232.64 211.24 240.44 207.03 246.20 C 204.25 250.38 199.41 252.47 194.71 253.65 C 194.75 255.82 194.78 257.99 194.80 260.17 C 194.42 260.65 193.65 261.59 193.27 262.07 C 193.26 259.36 193.25 256.64 193.24 253.94 L 192.47 253.93 C 188.97 253.92 185.37 253.89 182.11 252.43 C 182.45 252.02 183.11 251.18 183.45 250.77 C 190.50 252.68 199.04 251.73 204.12 246.01 C 207.05 242.93 208.02 238.67 208.62 234.59 C 206.30 235.31 203.98 235.99 201.65 236.66 C 201.48 235.75 201.30 234.84 201.14 233.94 C 203.62 233.50 206.08 232.96 208.53 232.35 C 208.37 230.85 208.21 229.35 208.05 227.86 C 206.97 227.28 205.91 226.70 204.84 226.12 C 206.98 224.78 209.10 223.41 211.18 221.99 C 208.33 220.54 204.98 219.78 202.61 217.58 C 199.28 212.49 196.56 207.01 193.07 202.01 C 191.11 204.70 188.98 207.34 186.19 209.21 C 183.11 211.54 179.36 212.91 176.51 215.56 C 173.48 218.85 173.77 223.67 173.78 227.84 C 174.94 229.32 177.29 230.49 176.78 232.71 C 173.32 232.33 171.61 228.00 168.01 228.34 C 165.04 229.09 164.68 232.90 165.67 235.32 C 166.98 237.63 169.70 238.45 171.93 239.58 C 173.73 238.85 175.54 238.12 177.33 237.37 C 177.49 238.13 177.66 238.89 177.83 239.65 C 176.61 240.36 175.40 241.06 174.18 241.76 C 174.56 245.85 175.50 250.18 174.14 254.19 C 173.29 256.68 170.49 257.29 168.37 258.30 C 167.95 263.25 167.46 268.20 166.77 273.13 C 166.94 269.18 166.61 265.24 165.97 261.35 C 165.83 260.20 165.75 259.06 165.66 257.91 C 158.44 256.65 153.97 250.14 150.79 244.11 C 146.40 235.38 142.47 225.96 142.57 216.01 C 142.77 206.17 149.55 197.68 157.63 192.68 C 162.46 189.62 168.28 188.87 173.34 186.35 C 176.04 184.62 174.81 181.01 174.35 178.46 Z" fill="#192b3d" opacity="1.00" stroke="#192b3d" stroke-width="0.25"/>
<path d="M 353.50 178.44 C 355.25 178.39 357.00 178.34 358.76 178.29 C 359.02 188.87 359.34 199.45 358.81 210.03 C 359.21 224.19 358.24 238.38 359.25 252.53 C 357.26 251.94 355.33 251.21 353.41 250.47 C 353.52 232.91 353.49 215.36 353.40 197.81 C 348.11 198.15 342.78 198.33 337.53 197.48 C 343.22 196.46 349.01 196.94 354.73 197.29 C 355.11 214.47 354.54 231.66 355.02 248.83 C 355.55 249.14 356.62 249.74 357.15 250.04 C 357.73 229.04 357.22 208.03 357.44 187.03 C 357.14 184.45 358.17 180.76 355.16 179.48 C 354.69 183.77 355.43 188.31 353.74 192.39 C 353.37 187.75 353.49 183.09 353.50 178.44 Z" fill="#d06c46" opacity="1.00" stroke="#d06c46" stroke-width="0.25"/>
<path d="M 177.64 180.17 C 182.30 180.69 187.18 182.03 190.49 185.57 C 193.68 188.80 192.86 193.90 192.20 197.96 C 189.48 205.59 181.33 208.75 175.46 213.48 C 171.63 216.60 171.41 221.76 171.37 226.31 C 169.29 226.40 166.96 225.82 165.12 227.02 C 162.45 229.59 161.86 234.04 164.04 237.12 C 166.06 240.54 172.09 240.25 172.20 244.94 C 172.67 247.98 173.05 251.52 171.19 254.18 C 168.45 256.96 164.40 255.10 161.59 253.47 C 156.59 251.08 154.60 245.56 151.85 241.13 C 147.11 231.59 143.48 220.65 145.96 209.94 C 147.98 204.29 152.22 199.62 156.95 196.04 C 162.31 192.01 169.22 191.15 174.97 187.91 C 177.70 186.28 177.61 182.95 177.64 180.17 Z" fill="#6b4947" opacity="1.00" stroke="#6b4947" stroke-width="0.25"/>
<path d="M 294.72 181.15 C 296.18 181.78 297.64 182.42 299.13 183.04 C 298.09 186.07 296.94 189.06 295.73 192.03 C 294.20 191.47 292.67 190.90 291.14 190.34 C 292.35 187.28 293.56 184.22 294.72 181.15 Z" fill="#64d7fa" opacity="1.00" stroke="#64d7fa" stroke-width="0.25"/>
<path d="M 280.68 198.52 C 283.29 198.21 285.08 200.00 285.70 202.39 C 284.44 203.87 282.68 205.38 280.62 204.37 C 278.37 202.98 279.42 200.21 280.68 198.52 Z" fill="#0d2d3f" opacity="1.00" stroke="#0d2d3f" stroke-width="0.25"/>
<path d="M 241.16 200.04 C 245.84 197.91 251.89 201.76 251.67 206.97 C 252.22 213.32 243.51 217.63 238.96 213.04 C 234.43 209.76 235.78 201.67 241.16 200.04 Z" fill="#0b2133" opacity="1.00" stroke="#0b2133" stroke-width="0.25"/>
<path d="M 292.68 206.33 C 292.14 204.15 292.32 201.99 293.87 200.27 C 295.55 200.44 297.15 200.95 298.66 201.71 C 298.26 203.33 299.12 206.19 296.87 206.61 C 295.48 207.04 294.06 206.46 292.68 206.33 Z" fill="#0b2133" opacity="1.00" stroke="#0b2133" stroke-width="0.25"/>
<path d="M 186.19 209.21 C 188.98 207.34 191.11 204.70 193.07 202.01 C 196.56 207.01 199.28 212.49 202.61 217.58 C 204.98 219.78 208.33 220.54 211.18 221.99 C 209.10 223.41 206.98 224.78 204.84 226.12 C 205.91 226.70 206.97 227.28 208.05 227.86 C 208.21 229.35 208.37 230.85 208.53 232.35 C 206.08 232.96 203.62 233.50 201.14 233.94 C 201.30 234.84 201.48 235.75 201.65 236.66 C 203.98 235.99 206.30 235.31 208.62 234.59 C 208.02 238.67 207.05 242.93 204.12 246.01 C 199.04 251.73 190.50 252.68 183.45 250.77 C 183.11 251.18 182.45 252.02 182.11 252.43 C 185.37 253.89 188.97 253.92 192.47 253.93 C 192.64 258.73 192.51 263.54 192.60 268.34 L 193.10 268.59 C 200.84 271.59 207.68 276.47 215.47 279.37 C 224.23 282.92 233.55 284.69 242.89 285.88 C 243.72 286.00 245.38 286.23 246.22 286.35 C 242.34 288.45 238.60 290.81 234.62 292.72 C 231.49 294.16 228.63 296.63 225.02 296.64 C 219.72 296.94 214.41 297.42 209.09 297.13 C 206.60 296.01 203.99 295.22 201.40 294.38 C 197.39 293.12 194.21 290.19 190.43 288.45 C 182.72 284.35 173.08 285.76 166.05 280.10 C 166.29 277.77 166.53 275.45 166.77 273.13 C 167.46 268.20 167.95 263.25 168.37 258.30 C 170.49 257.29 173.29 256.68 174.14 254.19 C 175.50 250.18 174.56 245.85 174.18 241.76 C 175.40 241.06 176.61 240.36 177.83 239.65 C 177.66 238.89 177.49 238.13 177.33 237.37 C 175.54 238.12 173.73 238.85 171.93 239.58 C 169.70 238.45 166.98 237.63 165.67 235.32 C 164.68 232.90 165.04 229.09 168.01 228.34 C 171.61 228.00 173.32 232.33 176.78 232.71 C 177.29 230.49 174.94 229.32 173.78 227.84 C 173.77 223.67 173.48 218.85 176.51 215.56 C 179.36 212.91 183.11 211.54 186.19 209.21 Z" fill="#ffc0a1" opacity="1.00" stroke="#ffc0a1" stroke-width="0.25"/>
<path d="M 242.07 202.00 C 245.46 200.54 249.56 203.33 249.54 207.01 C 250.24 211.99 243.12 214.75 239.97 211.13 C 237.04 208.56 238.31 203.03 242.07 202.00 Z" fill="#fbfeff" opacity="1.00" stroke="#fbfeff" stroke-width="0.25"/>
<path d="M 294.62 202.99 C 296.23 202.38 296.81 202.91 296.35 204.56 C 294.73 205.15 294.15 204.63 294.62 202.99 Z" fill="#edffff" opacity="1.00" stroke="#edffff" stroke-width="0.25"/>
<path d="M 268.44 204.62 C 270.29 204.09 273.02 203.93 273.92 206.06 C 275.13 207.74 274.05 209.71 273.43 211.36 C 271.78 211.65 269.94 213.06 268.43 211.71 C 265.61 210.41 265.68 205.96 268.44 204.62 Z" fill="#0b2133" opacity="1.00" stroke="#0b2133" stroke-width="0.25"/>
<path d="M 268.51 206.71 C 269.66 206.57 270.80 206.44 271.95 206.32 C 272.76 207.88 272.25 210.74 269.96 210.22 C 268.28 209.73 268.54 208.07 268.51 206.71 Z" fill="#edffff" opacity="1.00" stroke="#edffff" stroke-width="0.25"/>
<path d="M 192.26 210.35 C 192.85 210.43 194.05 210.60 194.64 210.68 C 194.54 211.74 194.89 213.05 193.87 213.78 C 191.70 216.03 189.36 218.09 187.00 220.13 C 185.56 221.67 181.92 220.50 183.78 218.17 C 186.33 215.29 189.36 212.88 192.26 210.35 Z" fill="#0c2640" opacity="1.00" stroke="#0c2640" stroke-width="0.25"/>
<path d="M 286.49 218.44 C 287.94 216.83 289.52 214.83 291.98 215.14 C 296.38 214.82 298.91 220.41 296.86 223.91 C 294.93 227.04 289.79 227.50 287.56 224.48 C 285.99 222.86 286.64 220.46 286.49 218.44 Z" fill="#0c1d2d" opacity="1.00" stroke="#0c1d2d" stroke-width="0.25"/>
<path d="M 289.69 217.47 C 291.88 217.09 294.68 217.31 295.42 219.87 C 296.68 223.14 291.75 226.21 289.54 223.38 C 287.42 221.89 288.74 219.23 289.69 217.47 Z" fill="#f5fffd" opacity="1.00" stroke="#f5fffd" stroke-width="0.25"/>
<path d="M 193.44 222.32 C 193.53 219.62 195.77 218.12 198.34 218.58 C 198.46 220.17 199.39 222.05 197.99 223.35 C 196.34 224.01 194.86 223.02 193.44 222.32 Z" fill="#1b2031" opacity="1.00" stroke="#1b2031" stroke-width="0.25"/>
<path d="M 303.26 219.29 C 304.85 217.79 306.98 218.99 308.65 219.63 C 308.73 221.17 308.77 222.70 308.81 224.24 C 307.43 224.75 306.04 225.19 304.63 225.55 C 303.83 224.93 303.03 224.31 302.23 223.70 C 302.57 222.27 301.87 220.25 303.26 219.29 Z" fill="#0b2133" opacity="1.00" stroke="#0b2133" stroke-width="0.25"/>
<path d="M 304.37 220.35 C 306.16 220.58 307.14 221.54 306.67 223.42 C 306.14 223.38 305.10 223.31 304.57 223.27 C 304.50 222.29 304.43 221.32 304.37 220.35 Z" fill="#edffff" opacity="1.00" stroke="#edffff" stroke-width="0.25"/>
<path d="M 232.52 225.52 C 234.44 224.55 236.50 224.86 238.46 225.51 C 238.74 227.22 239.86 229.11 238.56 230.68 C 237.26 232.81 234.34 232.69 232.47 231.42 C 230.88 229.71 231.85 227.39 232.52 225.52 Z" fill="#0b2133" opacity="1.00" stroke="#0b2133" stroke-width="0.25"/>
<path d="M 233.43 227.51 C 234.60 227.23 236.65 225.96 236.81 228.06 C 236.76 228.65 236.66 229.83 236.61 230.42 C 235.67 230.31 234.74 230.20 233.81 230.08 C 233.67 229.23 233.54 228.37 233.43 227.51 Z" fill="#edffff" opacity="1.00" stroke="#edffff" stroke-width="0.25"/>
<path d="M 258.54 229.75 C 259.28 228.33 260.65 227.40 261.83 226.38 C 263.41 227.21 266.03 227.55 265.86 229.92 C 266.88 233.72 262.30 235.22 259.54 233.59 C 259.10 232.33 258.77 231.05 258.54 229.75 Z" fill="#0b2133" opacity="1.00" stroke="#0b2133" stroke-width="0.25"/>
<path d="M 261.34 229.50 C 261.98 229.37 263.27 229.11 263.91 228.99 C 263.83 229.68 263.66 231.06 263.58 231.75 C 262.79 234.14 259.11 230.29 261.34 229.50 Z" fill="#edffff" opacity="1.00" stroke="#edffff" stroke-width="0.25"/>
<path d="M 303.01 245.91 C 305.35 243.43 308.32 241.67 311.37 240.21 C 313.17 245.95 306.63 249.42 305.24 254.51 C 308.68 256.09 311.99 253.37 315.11 252.19 C 321.25 249.71 326.53 244.65 333.46 244.54 C 333.53 246.36 333.73 248.32 332.57 249.88 C 327.58 258.32 320.09 265.73 310.67 268.94 C 307.60 270.15 303.24 270.66 302.74 274.68 C 298.71 274.55 294.45 274.65 290.94 276.89 C 288.15 278.50 286.31 281.24 284.30 283.67 C 281.65 281.54 278.36 280.50 274.98 280.51 C 281.03 275.42 286.26 269.45 291.80 263.83 C 293.24 262.55 293.36 260.52 294.00 258.81 C 295.33 253.56 299.34 249.65 303.01 245.91 Z" fill="#febe9f" opacity="1.00" stroke="#febe9f" stroke-width="0.25"/>
<path d="M 249.41 246.29 C 250.45 246.32 251.50 246.39 252.54 246.50 C 252.68 247.52 252.79 248.54 252.86 249.57 C 251.72 249.61 250.57 249.64 249.43 249.67 C 249.41 248.54 249.41 247.41 249.41 246.29 Z" fill="#edffff" opacity="1.00" stroke="#edffff" stroke-width="0.25"/>
<path d="M 311.84 248.70 C 313.60 248.66 315.36 248.70 317.13 248.84 C 315.45 250.10 313.56 249.60 311.84 248.70 Z" fill="#9ae9fe" opacity="1.00" stroke="#9ae9fe" stroke-width="0.25"/>
<path d="M 200.19 261.13 C 231.87 253.43 264.45 249.71 297.00 248.64 C 295.19 251.45 293.42 254.30 291.98 257.32 C 286.96 255.99 282.25 258.51 277.77 260.41 C 274.67 258.67 271.81 255.68 267.97 256.08 C 262.15 256.37 258.35 261.62 253.00 263.24 C 248.79 262.49 244.48 260.34 240.21 262.19 C 237.22 262.74 235.25 266.02 232.11 265.77 C 228.42 264.51 225.08 261.54 220.92 262.24 C 217.45 262.20 214.77 264.56 212.63 267.03 C 207.24 264.12 199.64 262.55 195.01 267.65 C 194.97 266.07 194.88 264.48 194.91 262.91 C 196.57 262.05 198.38 261.57 200.19 261.13 Z" fill="#70e0fd" opacity="1.00" stroke="#70e0fd" stroke-width="0.25"/>
<path d="M 330.94 256.43 C 332.54 254.11 333.94 251.65 335.66 249.41 C 344.71 250.31 353.73 252.41 361.85 256.61 C 361.60 257.90 361.69 259.37 360.78 260.43 C 360.32 261.07 359.41 262.34 358.96 262.98 C 356.34 258.78 352.74 253.88 347.10 254.48 C 342.89 253.87 339.94 258.70 335.79 257.35 C 335.16 257.23 333.90 257.00 333.26 256.89 C 332.68 256.77 331.52 256.55 330.94 256.43 Z" fill="#72e1fc" opacity="1.00" stroke="#72e1fc" stroke-width="0.25"/>
<path d="M 309.38 251.09 C 310.68 251.72 310.66 252.39 309.34 253.11 C 308.03 252.48 308.05 251.81 309.38 251.09 Z" fill="#4f82a4" opacity="1.00" stroke="#4f82a4" stroke-width="0.25"/>
<path d="M 335.79 257.35 C 339.94 258.70 342.89 253.87 347.10 254.48 C 352.74 253.88 356.34 258.78 358.96 262.98 C 359.41 262.34 360.32 261.07 360.78 260.43 C 361.64 261.94 362.44 263.50 363.02 265.15 L 361.92 264.07 C 361.79 263.94 361.53 263.66 361.40 263.53 C 354.67 269.69 346.18 273.45 337.81 276.81 C 309.04 287.64 278.66 293.65 248.19 297.11 C 242.31 297.72 236.45 298.50 230.55 298.65 C 230.68 297.26 231.31 296.45 232.43 296.23 C 251.00 294.63 269.61 292.56 287.80 288.38 C 286.69 287.67 285.59 286.95 284.49 286.24 C 285.18 286.11 286.56 285.85 287.25 285.72 C 288.30 286.42 289.32 287.17 290.34 287.92 C 298.30 286.57 306.07 284.37 313.87 282.34 C 310.77 281.17 307.80 279.70 304.82 278.25 C 305.42 277.95 306.61 277.33 307.21 277.03 C 310.31 278.74 313.51 280.29 316.88 281.43 C 319.03 280.69 321.25 280.13 323.29 279.13 C 325.35 277.64 326.54 275.16 328.87 273.98 C 332.10 272.28 335.00 270.07 337.96 267.95 C 337.26 273.56 330.77 274.25 327.44 277.76 C 337.85 274.82 348.11 270.65 356.94 264.33 C 354.97 260.90 352.55 256.70 348.03 256.69 C 344.28 256.02 341.41 258.78 338.42 260.47 C 335.36 260.19 332.47 258.78 329.35 258.75 C 330.62 258.08 331.89 257.35 333.26 256.89 C 333.90 257.00 335.16 257.23 335.79 257.35 Z" fill="#002d4d" opacity="1.00" stroke="#002d4d" stroke-width="0.25"/>
<path d="M 338.42 260.47 C 341.41 258.78 344.28 256.02 348.03 256.69 C 352.55 256.70 354.97 260.90 356.94 264.33 C 348.11 270.65 337.85 274.82 327.44 277.76 C 330.77 274.25 337.26 273.56 337.96 267.95 C 335.00 270.07 332.10 272.28 328.87 273.98 C 326.54 275.16 325.35 277.64 323.29 279.13 C 321.25 280.13 319.03 280.69 316.88 281.43 C 313.51 280.29 310.31 278.74 307.21 277.03 C 306.73 276.77 305.77 276.27 305.29 276.02 C 305.69 274.86 306.11 273.71 306.53 272.57 C 315.47 270.58 323.00 265.14 329.35 258.75 C 332.47 258.78 335.36 260.19 338.42 260.47 Z" fill="#9ae9fe" opacity="1.00" stroke="#9ae9fe" stroke-width="0.25"/>
<path d="M 254.02 265.41 C 259.30 263.67 263.07 258.08 269.02 258.31 C 272.51 258.32 274.57 262.38 277.95 262.37 C 282.54 261.05 286.98 258.45 291.96 259.57 C 285.73 268.01 277.62 274.78 270.42 282.35 C 260.37 284.89 249.93 284.75 239.74 283.21 C 228.84 281.73 218.01 278.86 208.25 273.70 C 204.63 271.85 201.15 269.73 197.36 268.23 C 202.39 265.02 208.39 266.99 212.89 270.13 C 215.08 267.64 217.37 264.57 221.02 264.45 C 225.52 263.63 228.75 267.72 233.00 268.20 C 236.62 267.51 239.26 264.42 242.95 263.87 C 246.75 263.15 250.25 265.71 254.02 265.41 Z" fill="#9beafe" opacity="1.00" stroke="#9beafe" stroke-width="0.25"/>
<path d="M 193.40 263.78 C 193.70 265.11 193.99 266.45 194.28 267.80 C 195.30 267.94 196.34 268.07 197.36 268.23 C 201.15 269.73 204.63 271.85 208.25 273.70 C 218.01 278.86 228.84 281.73 239.74 283.21 C 241.44 283.56 243.12 283.99 244.81 284.42 C 244.16 284.90 243.52 285.39 242.89 285.88 C 233.55 284.69 224.23 282.92 215.47 279.37 C 207.68 276.47 200.84 271.59 193.10 268.59 C 193.20 266.98 193.29 265.38 193.40 263.78 Z" fill="#0b2133" opacity="1.00" stroke="#0b2133" stroke-width="0.25"/>
<path d="M 260.20 264.04 C 264.67 262.98 269.83 267.27 268.83 272.06 C 268.60 277.71 260.53 280.34 256.74 276.30 C 252.57 272.61 254.96 265.26 260.20 264.04 Z" fill="#002d49" opacity="1.00" stroke="#002d49" stroke-width="0.25"/>
<path d="M 337.81 276.81 C 346.18 273.45 354.67 269.69 361.40 263.53 C 361.53 263.66 361.79 263.94 361.92 264.07 C 359.12 282.08 353.24 299.60 344.76 315.72 C 336.20 331.16 324.17 345.11 308.48 353.59 C 288.95 364.54 266.12 367.33 244.07 367.53 C 228.31 367.47 212.54 367.67 196.78 367.46 C 181.35 351.94 167.54 334.45 158.68 314.31 C 155.67 306.76 152.18 299.26 150.85 291.18 C 158.89 295.68 168.16 297.04 177.15 298.35 C 194.88 300.14 212.80 300.07 230.55 298.65 C 236.45 298.50 242.31 297.72 248.19 297.11 C 278.66 293.65 309.04 287.64 337.81 276.81 Z" fill="#71e3fe" opacity="1.00" stroke="#71e3fe" stroke-width="0.25"/>
<path d="M 257.43 274.46 C 255.78 271.29 257.00 266.74 260.94 266.33 C 265.59 265.21 268.96 272.17 265.03 274.98 C 262.72 277.12 259.73 275.89 257.43 274.46 Z" fill="#f8fffd" opacity="1.00" stroke="#f8fffd" stroke-width="0.25"/>
<path d="M 149.99 283.00 C 153.20 278.08 158.96 276.01 163.89 273.32 C 164.46 275.09 164.09 276.93 163.86 278.73 C 160.06 278.41 155.90 279.26 153.41 282.39 C 151.98 283.78 151.41 286.11 149.46 286.90 C 149.39 285.58 149.07 284.10 149.99 283.00 Z" fill="#7bdffd" opacity="1.00" stroke="#7bdffd" stroke-width="0.25"/>
<path d="M 293.09 278.13 C 296.74 276.29 301.17 276.51 304.82 278.25 C 307.80 279.70 310.77 281.17 313.87 282.34 C 306.07 284.37 298.30 286.57 290.34 287.92 C 289.32 287.17 288.30 286.42 287.25 285.72 L 286.25 285.03 C 288.28 282.52 290.09 279.60 293.09 278.13 Z" fill="#9ae9fe" opacity="1.00" stroke="#9ae9fe" stroke-width="0.25"/>
<path d="M 152.29 289.25 C 153.15 284.66 157.20 280.37 162.13 280.83 C 165.79 281.82 168.52 284.76 172.17 285.79 C 177.46 287.31 183.09 287.60 188.18 289.84 C 192.46 291.50 196.16 294.29 199.63 297.25 C 193.01 297.47 186.42 296.73 179.84 296.25 C 170.48 294.97 160.56 294.23 152.29 289.25 Z" fill="#9aeafe" opacity="1.00" stroke="#9aeafe" stroke-width="0.25"/>
<path d="M 261.99 291.58 C 266.56 288.19 270.77 282.87 277.00 283.18 C 279.92 282.77 282.19 284.83 284.49 286.24 C 285.59 286.95 286.69 287.67 287.80 288.38 C 269.61 292.56 251.00 294.63 232.43 296.23 C 235.36 294.44 238.65 293.36 241.59 291.61 C 244.46 289.63 247.25 287.06 250.88 286.72 C 255.31 285.91 258.34 289.87 261.99 291.58 Z" fill="#9be9fd" opacity="1.00" stroke="#9be9fd" stroke-width="0.25"/>
<path d="M 257.83 286.65 C 260.24 286.32 262.67 286.14 265.10 286.07 C 264.04 287.03 263.17 288.30 261.81 288.85 C 260.36 288.37 259.12 287.43 257.83 286.65 Z" fill="#ffc0a1" opacity="1.00" stroke="#ffc0a1" stroke-width="0.25"/>
</svg>