<?xml version="1.0" encoding="utf-8"?>
<svg xmlns="http://www.w3.org/2000/svg" height="512pt" version="1.1" viewBox="0 0 512 512" width="512pt">
<path d="M 0.00 0.00 L 512.00 0.00 L 512.00 512.00 L 0.00 512.00 L 0.00 0.00 Z" fill="transparent" opacity="1.00" stroke="transparent" stroke-width="0.25"/>
<path d="M 283.87 84.38 C 287.21 85.73 290.60 87.24 293.24 89.76 C 296.75 93.22 300.92 96.36 302.70 101.14 C 305.39 106.47 304.44 112.64 303.01 118.18 C 300.91 122.98 297.50 127.12 293.97 130.95 C 286.73 137.68 278.11 143.13 272.34 151.31 C 269.88 155.49 267.22 159.97 267.38 164.99 C 267.18 169.47 268.98 173.65 269.72 178.01 C 267.76 170.59 262.34 164.02 263.35 156.01 C 263.23 147.42 269.77 140.99 275.41 135.36 C 281.96 129.31 287.98 122.33 291.01 113.81 C 292.67 106.86 292.92 99.19 289.47 92.72 C 288.08 89.63 285.74 87.16 283.87 84.38 Z" fill="#caf2fd" opacity="1.00" stroke="#caf2fd" stroke-width="0.25"/>
<path d="M 272.26 95.90 C 276.70 98.22 278.33 103.59 279.42 108.14 C 280.63 120.15 273.01 130.89 264.47 138.52 C 259.39 144.35 254.33 150.70 252.04 158.21 C 250.83 164.05 251.49 170.09 251.66 176.01 C 250.89 172.88 249.50 169.94 248.71 166.83 C 247.92 158.71 247.99 150.14 252.02 142.80 C 255.94 136.01 261.02 129.97 265.73 123.73 C 268.65 119.39 272.02 115.12 272.96 109.83 C 274.47 105.20 272.84 100.52 272.26 95.90 Z" fill="#caf2fd" opacity="1.00" stroke="#caf2fd" stroke-width="0.25"/>
<path d="M 236.03 101.37 C 241.39 101.44 247.25 102.86 250.72 107.27 C 254.24 111.42 253.77 117.26 253.16 122.30 C 251.95 129.23 246.76 134.30 242.16 139.20 C 237.12 145.67 231.26 152.36 230.68 160.95 C 229.09 169.42 232.34 177.67 236.82 184.69 C 234.76 184.57 232.57 184.44 230.91 183.04 C 226.01 179.40 221.07 175.23 218.49 169.55 C 217.03 166.58 217.50 163.16 217.43 159.96 C 217.15 155.02 220.41 150.92 223.01 147.04 C 227.25 142.29 231.81 137.81 236.41 133.40 C 241.41 127.68 246.56 120.94 246.40 112.97 C 245.94 107.13 240.77 103.75 236.03 101.37 Z" fill="#caf2fd" opacity="1.00" stroke="#caf2fd" stroke-width="0.25"/>
<path d="M 236.03 193.57 C 263.97 192.12 292.18 193.64 319.56 199.66 C 333.26 203.06 347.07 207.23 358.98 215.04 C 363.86 218.42 368.52 222.54 370.92 228.10 C 371.49 228.22 372.63 228.45 373.20 228.57 C 374.98 230.88 375.89 233.63 376.01 236.53 C 386.53 233.09 398.51 231.89 408.79 236.77 C 416.43 240.19 421.76 247.82 423.05 256.01 C 424.57 265.35 423.02 275.18 418.50 283.51 C 412.11 296.24 400.38 305.68 387.32 310.96 C 378.26 314.37 368.70 316.67 358.98 316.59 C 351.53 328.73 341.17 339.23 328.75 346.28 C 328.20 348.32 327.84 350.63 326.08 352.04 C 320.02 357.56 311.97 359.98 304.23 362.12 C 290.45 365.71 276.18 367.09 261.97 367.50 C 239.75 367.81 217.04 366.36 195.95 358.80 C 189.87 356.38 182.63 353.24 181.22 346.07 C 171.35 340.24 162.78 332.30 155.90 323.16 C 154.94 321.88 153.97 320.62 153.07 319.32 C 149.76 314.25 146.75 308.96 144.45 303.35 C 136.10 283.78 134.08 262.11 134.70 241.03 C 135.11 236.10 134.58 229.36 140.23 227.23 C 142.08 222.51 146.27 219.19 150.16 216.15 C 157.79 210.85 166.36 207.01 175.19 204.19 C 194.80 197.57 215.50 195.15 236.03 193.57 Z" fill="#063252" opacity="1.00" stroke="#063252" stroke-width="0.25"/>
<path d="M 192.51 204.67 C 212.66 200.19 233.32 198.11 253.95 198.23 C 276.14 197.99 298.42 199.93 320.04 205.06 C 329.28 207.55 338.62 210.07 347.15 214.52 C 353.68 217.48 360.02 221.54 364.20 227.50 C 367.17 231.48 367.12 237.19 364.58 241.37 C 364.18 241.51 363.37 241.79 362.97 241.93 C 362.44 237.64 359.32 234.39 356.12 231.79 C 348.09 225.78 338.70 221.88 329.13 219.08 C 290.82 208.22 250.24 207.56 210.95 212.70 C 192.93 215.71 174.42 219.29 158.58 228.90 C 153.72 232.05 148.12 236.26 147.96 242.63 L 146.80 242.45 C 144.24 238.86 143.68 234.04 145.05 229.90 C 147.59 224.12 153.03 220.46 158.24 217.28 C 168.84 211.15 180.66 207.52 192.51 204.67 Z" fill="#a8eafe" opacity="1.00" stroke="#a8eafe" stroke-width="0.25"/>
<path d="M 210.95 212.70 C 250.24 207.56 290.82 208.22 329.13 219.08 C 338.70 221.88 348.09 225.78 356.12 231.79 C 359.32 234.39 362.44 237.64 362.97 241.93 C 363.37 241.79 364.18 241.51 364.58 241.37 C 361.17 247.05 355.47 250.78 349.75 253.83 C 332.53 262.86 313.15 266.55 294.06 269.14 C 264.51 272.52 234.51 272.06 205.11 267.44 C 195.91 265.95 186.86 263.60 177.94 260.92 C 166.31 257.07 154.34 252.04 146.34 242.38 L 146.80 242.45 L 147.96 242.63 C 148.12 236.26 153.72 232.05 158.58 228.90 C 174.42 219.29 192.93 215.71 210.95 212.70 Z" fill="#85cf3c" opacity="1.00" stroke="#85cf3c" stroke-width="0.25"/>
<path d="M 207.75 223.83 C 213.16 222.86 218.58 221.83 224.07 221.50 C 225.13 221.58 226.59 221.22 227.37 222.18 C 227.15 223.74 225.10 223.58 223.97 224.05 C 218.93 224.53 213.98 225.75 208.94 226.12 C 208.56 225.95 207.79 225.63 207.41 225.46 C 207.49 225.05 207.67 224.24 207.75 223.83 Z" fill="#ffffff" opacity="1.00" stroke="#ffffff" stroke-width="0.25"/>
<path d="M 184.24 229.10 C 187.98 228.12 191.57 226.21 195.55 226.48 C 195.60 227.41 195.66 228.34 195.72 229.27 C 191.51 231.52 186.34 229.64 182.42 232.55 C 176.37 235.97 168.93 237.82 164.79 243.84 C 163.02 245.56 163.66 248.31 162.02 250.11 C 161.01 248.87 160.21 247.49 159.52 246.06 C 160.58 240.97 165.16 238.00 169.02 235.09 C 173.69 232.22 179.04 230.73 184.24 229.10 Z" fill="#ffffff" opacity="1.00" stroke="#ffffff" stroke-width="0.25"/>
<path d="M 385.00 240.53 C 393.83 239.00 404.26 239.26 410.99 246.00 C 417.35 251.74 418.17 261.17 416.74 269.14 C 414.41 283.26 404.15 294.93 391.90 301.73 C 392.12 298.29 391.18 294.94 389.21 292.11 L 389.13 291.97 C 397.27 287.86 403.88 280.30 405.62 271.22 C 406.17 266.24 406.24 260.80 403.23 256.52 C 402.02 255.61 400.83 254.68 399.66 253.72 C 395.86 251.97 391.63 252.51 387.60 252.65 C 387.94 248.43 387.12 244.21 385.00 240.53 Z" fill="#caf2fd" opacity="1.00" stroke="#caf2fd" stroke-width="0.25"/>
<path d="M 376.42 242.96 C 379.30 242.22 382.13 241.32 385.00 240.53 C 387.12 244.21 387.94 248.43 387.60 252.65 L 387.59 253.14 C 383.05 253.60 379.30 256.34 375.72 258.94 C 376.07 253.61 376.11 248.28 376.42 242.96 Z" fill="#a8eafe" opacity="1.00" stroke="#a8eafe" stroke-width="0.25"/>
<path d="M 353.46 258.02 C 359.72 254.32 366.29 250.11 369.77 243.49 C 370.48 269.96 365.75 297.94 349.45 319.53 C 338.51 334.32 322.32 344.62 304.92 350.15 C 289.47 355.18 273.16 356.87 256.98 357.20 C 235.89 357.12 214.34 354.60 194.89 346.00 C 179.69 339.43 166.53 328.34 157.51 314.47 C 143.89 293.70 140.37 268.13 140.77 243.77 C 145.21 250.86 152.35 255.67 159.60 259.41 C 160.88 265.29 161.61 271.35 164.27 276.84 C 168.22 285.51 170.04 295.92 177.75 302.26 C 181.56 305.86 183.72 310.81 187.57 314.38 C 192.80 320.09 200.09 323.13 205.95 328.07 C 210.83 332.14 217.11 333.69 222.75 336.39 C 225.99 337.96 229.41 339.22 232.99 339.76 C 241.32 341.06 249.61 342.97 258.09 342.75 C 274.32 343.31 290.81 340.98 305.82 334.61 C 319.49 328.83 331.54 319.37 340.56 307.60 C 346.50 298.45 351.25 288.15 352.16 277.15 C 352.89 270.80 353.43 264.42 353.46 258.02 Z" fill="#a8eafe" opacity="1.00" stroke="#a8eafe" stroke-width="0.25"/>
<path d="M 274.96 276.26 C 301.79 274.41 329.27 270.46 353.46 258.02 C 353.43 264.42 352.89 270.80 352.16 277.15 C 351.25 288.15 346.50 298.45 340.56 307.60 C 331.54 319.37 319.49 328.83 305.82 334.61 C 290.81 340.98 274.32 343.31 258.09 342.75 C 249.61 342.97 241.32 341.06 232.99 339.76 C 229.41 339.22 225.99 337.96 222.75 336.39 C 217.11 333.69 210.83 332.14 205.95 328.07 C 200.09 323.13 192.80 320.09 187.57 314.38 C 183.72 310.81 181.56 305.86 177.75 302.26 C 170.04 295.92 168.22 285.51 164.27 276.84 C 161.61 271.35 160.88 265.29 159.60 259.41 C 178.57 268.41 199.44 272.41 220.16 274.89 C 238.35 276.82 256.69 277.11 274.96 276.26 Z" fill="#caf2fd" opacity="1.00" stroke="#caf2fd" stroke-width="0.25"/>
<path d="M 374.93 269.21 C 379.29 263.60 385.57 258.54 393.04 258.67 C 395.11 258.44 396.82 259.72 398.53 260.67 C 401.14 267.35 398.91 275.00 394.21 280.16 C 388.65 286.90 379.84 290.54 371.17 290.35 C 371.96 283.23 374.38 276.38 374.93 269.21 Z" fill="#ffffff" opacity="1.00" stroke="#ffffff" stroke-width="0.25"/>
<path d="M 368.84 295.78 C 375.85 297.31 382.97 295.26 389.21 292.11 C 391.18 294.94 392.12 298.29 391.90 301.73 L 391.91 302.08 C 382.83 306.24 373.30 309.47 363.29 310.35 C 364.90 305.41 367.47 300.82 368.84 295.78 Z" fill="#a8eafe" opacity="1.00" stroke="#a8eafe" stroke-width="0.25"/>
<path d="M 144.45 303.35 C 146.75 308.96 149.76 314.25 153.07 319.32 C 146.24 321.08 138.93 319.54 132.29 322.34 C 132.32 322.92 132.37 324.06 132.40 324.63 C 140.26 324.62 148.04 323.33 155.90 323.16 C 162.78 332.30 171.35 340.24 181.22 346.07 C 182.63 353.24 189.87 356.38 195.95 358.80 C 217.04 366.36 239.75 367.81 261.97 367.50 C 276.18 367.09 290.45 365.71 304.23 362.12 C 311.97 359.98 320.02 357.56 326.08 352.04 C 327.84 350.63 328.20 348.32 328.75 346.28 C 341.17 339.23 351.53 328.73 358.98 316.59 C 368.70 316.67 378.26 314.37 387.32 310.96 C 394.34 314.82 402.24 317.00 408.57 322.06 C 415.74 326.10 420.94 333.69 421.40 341.99 C 420.08 348.83 415.87 355.05 410.20 359.05 C 405.04 362.83 399.65 366.39 393.66 368.72 C 377.33 376.31 359.55 379.88 342.04 383.61 C 317.90 387.84 293.45 390.37 268.95 390.71 C 247.96 390.77 226.90 391.00 206.01 388.79 C 173.44 385.42 140.32 380.57 110.44 366.44 C 102.86 362.12 95.11 357.48 89.84 350.35 C 85.53 343.42 86.74 333.45 93.02 328.08 C 105.94 315.27 123.87 309.76 140.95 304.97 C 142.17 304.55 143.30 303.93 144.45 303.35 Z" fill="#a8eafe" opacity="1.00" stroke="#a8eafe" stroke-width="0.25"/>
<path d="M 153.07 319.32 C 153.97 320.62 154.94 321.88 155.90 323.16 C 148.04 323.33 140.26 324.62 132.40 324.63 C 132.37 324.06 132.32 322.92 132.29 322.34 C 138.93 319.54 146.24 321.08 153.07 319.32 Z" fill="#ffffff" opacity="1.00" stroke="#ffffff" stroke-width="0.25"/>
<path d="M 363.39 324.03 C 364.54 322.06 367.15 322.64 369.04 322.44 C 371.27 322.66 375.15 321.73 374.51 325.26 C 370.91 325.20 366.32 326.60 363.39 324.03 Z" fill="#caf2fd" opacity="1.00" stroke="#caf2fd" stroke-width="0.25"/>
<path d="M 378.03 329.65 C 383.53 329.74 388.91 328.06 394.42 328.53 C 394.48 329.09 394.61 330.22 394.67 330.78 C 388.25 332.31 381.52 332.09 374.97 332.81 C 367.46 334.18 359.75 333.03 352.27 334.69 C 352.25 334.05 352.21 332.76 352.20 332.11 C 356.72 329.51 362.03 330.64 366.98 330.29 C 370.66 330.00 374.33 329.59 378.03 329.65 Z" fill="#ffffff" opacity="1.00" stroke="#ffffff" stroke-width="0.25"/>
<path d="M 371.22 338.52 C 379.10 338.27 386.99 338.20 394.88 338.38 C 394.71 338.89 394.37 339.93 394.20 340.44 C 388.13 340.45 382.06 340.42 375.99 340.56 C 374.26 340.43 371.37 340.99 371.22 338.52 Z" fill="#ffffff" opacity="1.00" stroke="#ffffff" stroke-width="0.25"/>
<path d="M 132.94 339.71 C 141.30 339.67 149.68 339.15 158.05 339.58 C 155.45 342.17 151.28 341.22 147.98 341.80 C 141.71 342.71 135.37 342.44 129.06 342.66 C 124.76 343.13 120.47 343.74 116.13 343.57 C 116.27 343.11 116.53 342.18 116.67 341.71 C 121.95 340.14 127.53 340.55 132.94 339.71 Z" fill="#ffffff" opacity="1.00" stroke="#ffffff" stroke-width="0.25"/>
<path d="M 370.63 346.10 C 375.04 345.86 380.14 344.36 384.09 346.95 C 381.23 349.27 377.32 348.45 373.93 348.35 C 372.31 348.52 371.37 347.31 370.63 346.10 Z" fill="#caf2fd" opacity="1.00" stroke="#caf2fd" stroke-width="0.25"/>
<path d="M 357.14 352.96 C 354.22 352.39 356.92 348.77 358.94 349.89 C 363.29 351.19 367.97 351.34 372.18 353.03 L 372.86 354.39 C 367.60 354.80 362.19 354.59 357.14 352.96 Z" fill="#caf2fd" opacity="1.00" stroke="#caf2fd" stroke-width="0.25"/>
<path d="M 151.96 353.10 C 156.96 352.42 162.10 351.81 167.10 352.86 C 166.67 353.25 165.83 354.03 165.40 354.41 C 156.23 353.96 146.96 357.65 137.93 355.15 C 142.48 353.74 147.28 353.72 151.96 353.10 Z" fill="#ffffff" opacity="1.00" stroke="#ffffff" stroke-width="0.25"/>
<path d="M 327.60 365.58 C 332.87 363.37 338.25 360.98 344.03 360.63 C 345.40 360.53 346.58 360.99 347.58 362.00 C 344.65 365.26 340.11 365.74 336.19 367.11 C 327.12 369.77 318.21 373.31 308.80 374.54 C 309.10 373.15 309.71 371.71 311.26 371.40 C 316.62 369.22 322.30 367.93 327.60 365.58 Z" fill="#ffffff" opacity="1.00" stroke="#ffffff" stroke-width="0.25"/>
<path d="M 161.69 364.00 C 162.30 362.75 163.36 361.75 164.86 361.89 C 169.72 361.56 174.62 361.42 179.46 361.99 C 178.48 362.89 177.48 363.97 176.04 364.04 C 171.29 364.68 166.44 364.76 161.69 364.00 Z" fill="#caf2fd" opacity="1.00" stroke="#caf2fd" stroke-width="0.25"/>
<path d="M 218.54 373.64 C 221.64 373.44 225.14 373.52 227.42 375.97 C 224.57 376.43 221.64 376.72 218.80 376.10 C 218.73 375.49 218.61 374.26 218.54 373.64 Z" fill="#caf2fd" opacity="1.00" stroke="#caf2fd" stroke-width="0.25"/>
<path d="M 246.26 376.14 C 250.82 374.80 255.43 376.46 260.04 376.43 C 269.26 376.56 278.48 376.39 287.69 376.65 C 287.67 377.08 287.63 377.93 287.61 378.35 C 279.49 379.91 271.23 379.74 263.01 379.70 C 257.56 379.62 252.02 379.74 246.74 378.19 C 246.62 377.68 246.38 376.65 246.26 376.14 Z" fill="#ffffff" opacity="1.00" stroke="#ffffff" stroke-width="0.25"/>
</svg>