<?xml version="1.0" encoding="UTF-8"?>
<svg id="Layer_1" xmlns="http://www.w3.org/2000/svg" version="1.1" viewBox="0 0 512 512">
  <!-- Generator: Adobe Illustrator 29.4.0, SVG Export Plug-In . SVG Version: 2.1.0 Build 152)  -->
  <defs>
    <style>
      .st0 {
        fill: #a88d7f;
        stroke: #a88d7f;
      }

      .st0, .st1, .st2, .st3, .st4, .st5, .st6, .st7, .st8, .st9, .st10, .st11, .st12, .st13, .st14, .st15, .st16, .st17, .st18, .st19, .st20, .st21, .st22, .st23, .st24, .st25, .st26, .st27, .st28, .st29, .st30, .st31, .st32, .st33, .st34, .st35, .st36, .st37, .st38, .st39, .st40, .st41, .st42, .st43, .st44, .st45, .st46, .st47 {
        stroke-width: .2px;
      }

      .st1 {
        fill: #ecccc0;
        stroke: #ecccc0;
      }

      .st2 {
        fill: #6a859b;
        stroke: #6a859b;
      }

      .st3 {
        fill: #f2612e;
        stroke: #f2612e;
      }

      .st4 {
        fill: #1a283b;
        stroke: #1a283b;
      }

      .st5 {
        fill: #feffff;
        stroke: #feffff;
      }

      .st6 {
        fill: #e05e35;
        stroke: #e05e35;
      }

      .st7 {
        fill: #febe9f;
        stroke: #febe9f;
      }

      .st8 {
        fill: #fff;
        stroke: #fff;
      }

      .st9 {
        fill: #e96434;
        stroke: #e96434;
      }

      .st10 {
        fill: #e6eef1;
        stroke: #e6eef1;
      }

      .st11 {
        fill: #f7c3ac;
        stroke: #f7c3ac;
      }

      .st12 {
        fill: #acecfd;
        stroke: #acecfd;
      }

      .st13 {
        fill: #1c2c3c;
        stroke: #1c2c3c;
      }

      .st14 {
        fill: #fdbfa0;
        stroke: #fdbfa0;
      }

      .st15 {
        fill: #082f4e;
        stroke: #082f4e;
      }

      .st16 {
        fill: #f8bb9f;
        stroke: #f8bb9f;
      }

      .st17 {
        fill: #67dfff;
        stroke: #67dfff;
      }

      .st18 {
        fill: #f4ffff;
        stroke: #f4ffff;
      }

      .st19 {
        fill: #003058;
        stroke: #003058;
      }

      .st20 {
        fill: #998783;
        stroke: #998783;
      }

      .st21 {
        fill: #a9ecff;
        stroke: #a9ecff;
      }

      .st22 {
        fill: #132c43;
        stroke: #132c43;
      }

      .st23 {
        fill: #083152;
        stroke: #083152;
      }

      .st24 {
        fill: #073255;
        stroke: #073255;
      }

      .st25 {
        fill: #69ddfe;
        stroke: #69ddfe;
      }

      .st26 {
        fill: #e5eef0;
        stroke: #e5eef0;
      }

      .st27 {
        fill: #ffbfa0;
        stroke: #ffbfa0;
      }

      .st28 {
        fill: #122842;
        stroke: #122842;
      }

      .st29 {
        fill: #0b2640;
        stroke: #0b2640;
      }

      .st30 {
        fill: #66dffe;
        stroke: #66dffe;
      }

      .st31 {
        fill: #febe9e;
        stroke: #febe9e;
      }

      .st32 {
        fill: #093254;
        stroke: #093254;
      }

      .st33 {
        fill: #71dcf9;
        stroke: #71dcf9;
      }

      .st34 {
        fill: #052f4d;
        stroke: #052f4d;
      }

      .st35 {
        fill: #6adcfb;
        stroke: #6adcfb;
      }

      .st36 {
        fill: #b4705e;
        stroke: #b4705e;
      }

      .st37 {
        fill: #e5edef;
        stroke: #e5edef;
      }

      .st38 {
        fill: #fefffd;
        stroke: #fefffd;
      }

      .st39 {
        fill: #febc9c;
        stroke: #febc9c;
      }

      .st40 {
        fill: #fbffff;
        stroke: #fbffff;
      }

      .st41 {
        fill: #f3612d;
        stroke: #f3612d;
      }

      .st42 {
        fill: #453631;
        stroke: #453631;
      }

      .st43 {
        fill: #1c2c39;
        stroke: #1c2c39;
      }

      .st44 {
        fill: #aeebfe;
        stroke: #aeebfe;
      }

      .st45 {
        fill: #e7eeef;
        stroke: #e7eeef;
      }

      .st46 {
        fill: #ffbea0;
        stroke: #ffbea0;
      }

      .st47 {
        fill: #fdfeff;
        stroke: #fdfeff;
      }
    </style>
  </defs>
  <path class="st24" d="M238.1,49.1c10.2-2.1,22-1.2,29.8,6.4,12-5.5,26.4-5.8,38.4-.1,10.1,4.8,17.9,13.6,23,23.4,6,10.5,7.5,22.7,9.8,34.3,2.5,19.3,7,38.4,7.9,57.9,0,9.7-1.5,20.8-9.8,27-10.9,7.9-25.2,11-38.4,8.3l-.3-.4c-.6-.7-1.2-1.4-1.8-2,0-1.1,0-2.2,0-3.3,2.1-2.7,3.8-5.7,5.5-8.6.5-.3,1.5-.9,2-1.2,2-3.6,2.3-7.9,4.3-11.5,2.3-1.1,5.2,0,7.7,0,.5-.3,1.3-.8,1.8-1.1,5-2.9,9-8.3,8.5-14.3,0-4.9-3.1-8.8-6.3-12.1-2.5-3.2-7.7-4.8-11-1.8-.5-.4-1.1-.8-1.6-1.2,0-5.7,0-11.4,0-17-5.2,2.5-10.6,4.7-16.2,6.1-5.6.9-11.5.9-16.9-1-12.4-5.2-18.7-18.2-21.3-30.7-2.6,10.3-9.4,19.8-18.9,24.9-6.8,3.9-14.7,5.5-22.5,5.1.1,12.5-.6,25.1.8,37.6,1.1,8.6,3.9,17.1,8.7,24.3.6,2.2,1,4.5,1.8,6.6-.5-.4-1.5-1.1-1.9-1.4-13.6,5.7-28.3,10.1-43.2,8.9-5.5-.7-11.3-2.2-15.4-6.1-3.5-3.9-5.3-8.9-6.6-13.9,9.4-6.5,14.2-17.5,17.2-28.1,3.9-14.8,3.6-30.3,5.9-45.4,2.6-16.1,9-31.8,19.9-44.1,10-12.3,23.6-22.2,39.3-25.7Z"/>
  <path class="st5" d="M207.8,82.8c11.9-13.5,29.1-22.4,47.1-23.5,15.4-1.2,31.3,2.8,43.8,11.9,11.9,8.7,20.7,21.6,23.8,36,2.8,10.8,1.6,22.2-.9,33-.5-4.7-.8-9.4-1.4-14.1-1.6-12.3-6.4-24.4-14.3-34.1-9.8-13.1-25.7-21.2-41.9-22-12.7-.7-25.4,2.9-36.1,9.8-15.7,9.5-26.7,25.2-33.1,42.2-2.3-14.2,3.8-28.6,12.9-39.3Z"/>
  <path class="st27" d="M234.3,131.3c9.5-5.1,16.3-14.5,18.9-24.9,2.6,12.4,9,25.5,21.3,30.7,0,1.1-.2,2.2-.2,3.3-.5,0-1.5,0-2,0-2.7,1.6-3.1,6.7.4,7.6,6.8.9,13.7,1.2,20.5,2.3.6-.2,1.9-.7,2.5-.9.5-2.1,1.7-5-.6-6.5-4.9-1.3-10.1-1.1-15.1-1.8,4.1.4,8.2-.2,11.4-2.8,5.6-1.5,11-3.6,16.2-6.1,0,5.7,0,11.4,0,17,0,14.5.6,29.6-5.4,43.1-1.8,2.9-3.5,5.9-5.5,8.6-6.3,8.7-15.8,14.7-26.1,17.3-6.7,1.2-13.6,1.2-20.3.1-11.8-2.5-22.2-9.8-29-19.7-4.8-7.3-7.6-15.7-8.7-24.3-1.4-12.5-.6-25.1-.8-37.6,7.8.4,15.7-1.2,22.5-5.1Z"/>
  <path class="st1" d="M274.5,137.1c5.4,1.9,11.3,1.8,16.9,1-3.2,2.6-7.4,3.3-11.4,2.8-1.9-.2-3.8-.4-5.7-.5,0-1.1.1-2.2.2-3.3Z"/>
  <path class="st32" d="M225.8,141.8c5.4-1.1,10.8-2.8,16.2-3.9,1.5-.5,3,.3,4.4.8.8,2.2,1.5,5.4-1.2,6.4-6.7,2.1-13.7,3.1-20.4,5.2-1.7-.9-3.9-2-3.5-4.4-.6-2.8,2.4-3.8,4.6-4.2Z"/>
  <path class="st23" d="M272.2,140.4c.5,0,1.5,0,2,0,1.9.1,3.8.3,5.7.5,5,.8,10.2.5,15.1,1.8,2.2,1.6,1,4.4.6,6.5-.6.2-1.9.7-2.5.9-6.8-1-13.7-1.3-20.5-2.3-3.4-.8-3.1-6-.4-7.6Z"/>
  <path class="st22" d="M307.6,149c.5.4,1,.8,1.6,1.2,3.2-2.9,8.5-1.3,11,1.8-2.5-1.1-5.1-1.9-7.7-2.7-.7.7-1.4,1.4-2,2.1.5,9,.1,18-.8,26.9,2.8,0,5.6.6,8.4,0-.4.3-1.3.8-1.8,1.1-2.5,0-5.4-1.1-7.7,0-2,3.6-2.3,7.9-4.3,11.5-.5.3-1.5.9-2,1.2,6-13.6,5.5-28.6,5.4-43.1Z"/>
  <path class="st14" d="M310.4,151.4c.7-.7,1.3-1.4,2-2.1,2.6.8,5.2,1.6,7.7,2.7,3.3,3.2,6.4,7.2,6.3,12.1.5,6-3.5,11.4-8.5,14.3-2.8.6-5.6,0-8.4,0,.9-8.9,1.4-18,.8-26.9Z"/>
  <path class="st15" d="M233.3,162.1c-1-3.3,2.1-7,5.5-6.3,1.3.5,2.4,1.3,3.7,2,.1,2,1,4.5-.5,6.2-2.1,3.1-8.4,2.2-8.7-1.9Z"/>
  <path class="st1" d="M259.5,155.4c.6-1.5,3.3-.9,3.3.7.8,5.8-2,11.5-1.3,17.2,2.7-.2,5.5-1.1,8.2,0,1.5.9.1,2.6-.3,3.7,0-.7.2-2.2.3-2.9-3.5,0-7.1.2-10.6.5,1-6,2.5-12,3.1-18-.6-.4-1.9-1.1-2.5-1.5-.6,3-1.1,6.1-1.8,9.1-.9-3-.5-6.4,1.5-8.9Z"/>
  <path class="st4" d="M259.7,155.2c.6.4,1.9,1.1,2.5,1.5-.6,6.1-2.1,12-3.1,18,3.5-.3,7-.5,10.6-.5,0,.7-.2,2.2-.3,2.9-.3,0-.9,0-1.2.1-3.8,0-7.6.8-11.4,0-1.8-3.7.7-7.9.9-11.8l.2-1.1c.6-3,1.1-6.1,1.8-9.1Z"/>
  <path class="st13" d="M276.6,156.7c2.7-1.4,5.7-1.2,7.7,1.2.3,2.4.6,5.4-1.7,6.9-2.8,2.4-7.4-.3-7.4-3.8.2-1.5.9-2.9,1.4-4.4Z"/>
  <path class="st20" d="M274.9,158c.5-.3,1.4-1,1.8-1.4-.5,1.4-1.2,2.8-1.4,4.4,0,3.4,4.6,6.1,7.4,3.8,2.4-1.5,2-4.5,1.7-6.9,3,3.6-.7,9.8-5.4,8.4-4.2-.3-4.8-5-4.1-8.3Z"/>
  <path class="st19" d="M277.3,158.4c1.7-.4,3.7-1.3,5.1.2,1.9,2.5-1.2,6.4-4,5-1.4-1.4-1-3.4-1-5.2Z"/>
  <path class="st1" d="M255.8,178.3c-1.2-4.6-.5-9.6,1.3-14l.7,1.1c-.2,3.9-2.7,8.1-.9,11.8,3.7.8,7.6,0,11.4,0-.6,1.9-2.8,1.4-4.2,1.6-2.8,0-5.6,0-8.3-.6Z"/>
  <path class="st29" d="M243.3,178.3c2.5,0,3.9,2.4,6,3.4,5.8,2.9,12.4,3.8,18.8,4.5,3.2.4,6.7-.2,9.6,1.4-2.6,7.1-8.6,13-15.8,15.4-4.2,1.1-9.4,1.1-12.5-2.5-5.6-5.8-6.6-14.6-6.1-22.3Z"/>
  <path class="st47" d="M245.6,183c8.6,4.9,18.5,6.2,28.1,6.5,0,.4-.3,1.3-.4,1.7-4.2,5.3-10.4,10.2-17.5,9.6-3.3,0-5.8-2.8-7.1-5.5-1.8-3.9-2.3-8.2-3.2-12.3Z"/>
  <path class="st34" d="M221.3,198.4c6.8,9.9,17.2,17.2,29,19.7-2.1-.3-4.1-.6-6.2-.8.6.9,1.2,1.9,1.8,2.8-.5-.1-1.6-.4-2.1-.5-.5,1.6-.9,3.2-1.3,4.7-.4,0-1.2,0-1.6,0-1.1,0-2.2-.1-3.4-.2,0,5.7-.1,11.3,0,17,0,2.4,1.3,4.5,2.2,6.6,12.2,0,24.4,0,36.6,0,.1-7.1,0-14.1.2-21.2-2-.4-3.9-.8-5.9-1.2,0,1.4,0,2.8-.1,4.2-.8-2.6-1.5-5.2-2-7.9,0,3.6-.3,7.3-1,10.8.2-3.6.2-7.2.1-10.9-5,.8-10.2.8-15.2-.1,5.8-2.8,13.2,1.2,18.2-3.5,10.3-2.6,19.8-8.6,26.1-17.3,0,1.1,0,2.2,0,3.3.6.7,1.2,1.4,1.8,2-1.5-.1-2.9.4-3.9,1.6-5.4,5.5-12.2,10-19.7,12.1-1.5.6-3.6.6-4.2,2.3,8.6,1.4,17.4,2.5,25.6,5.8,13.9,5.2,25.2,15.7,33.5,27.7,29.2-1.1,58.5-1.8,87.8-3.1.1.6.4,1.9.6,2.5-1,6.6-2.4,13.1-3.7,19.6,4.3.4,8.8-.5,13,.9-1.1,6.8-3.1,13.4-4.3,20.2,3.4.2,7.3-1,10.4.9,0,2.5-1.2,4.7-2.1,7-2.3,5.2-4.5,10.4-6.9,15.6,3.6,6.6,6.6,14.2,4.8,21.8-5.2,16.5-10.4,33-18.1,48.5-4.7,10.3-15.4,16.8-26.3,18.6-2.8,0-2.8,3.5-3.9,5.3-.6,0-1.9.2-2.5.3,0,2.2,0,4.4,0,6.6,22.8,0,45.5-.1,68.3,0,7.5.9,9.4,12.3,3.2,16.1-2.4,1.8-5.5,1.2-8.2,1.4-122.3,0-244.6,0-367,0-3.6,0-7.2.2-10.8-.2-5.4-1.9-7-8.5-4.9-13.4,2-1.6,3.8-4.1,6.6-3.9,19.2,0,38.5-.1,57.7,0-.8-17.9-2.1-35.9-3-53.8,1.7-.2,3.4-.4,5.1-.4-1.2-5-4-9.5-4.7-14.6.3-1,.7-2,1.1-3,3,5.7,4.7,11.9,7.3,17.8,2.8,0,5.6,0,8.4,0,1.9,0,3.9,0,5.8,0,0-11.6-.4-23.1-.4-34.7-7-.5-14.3.7-21.2-1,.9-6.1,3.8-11.6,5.7-17.4,3.6-10.3,7.6-20.5,11.7-30.6,5-10.7,9-22.1,16.7-31.2,9.3-10.8,22.1-17.9,35.4-22.5,16.1-5.6,33.2-7.5,50.1-8.5-.8-1.2-1.6-2.4-3.1-2.9-6-2.9-11.6-7-15.7-12.3-.7-2.2-1.2-4.4-1.8-6.6Z"/>
  <path class="st43" d="M244.1,217.2c2.1.3,4.1.6,6.2.8,6.7,1.1,13.6,1,20.3-.1-5,4.7-12.4.7-18.2,3.5-2.2-.3-4.3-.8-6.4-1.4-.6-1-1.2-1.9-1.8-2.8Z"/>
  <path class="st28" d="M242.5,224.3c.4-1.6.8-3.2,1.3-4.7.3,6.8-1.4,14.6,3.2,20.3,3.7,5.3,12.3,5.4,16.5.8,2.2-2.2,3.2-5.2,3.9-8.2.8-3.6,1-7.2,1-10.8.6,2.6,1.3,5.2,2,7.9,0,2-.2,3.9-.4,5.9v.3c-1.8,4.3-4.6,8.8-9.2,10.3-5,1.6-11.3,1.2-15-3-5.1-4.8-5.5-12.4-5-18.9.4,0,1.2,0,1.6,0Z"/>
  <path class="st27" d="M243.8,219.5c.5.1,1.6.4,2.1.5,2.1.6,4.2,1.1,6.4,1.4,5,.9,10.2.9,15.2.1,0,3.6.1,7.2-.1,10.9-.6,3-1.7,6-3.9,8.2-4.3,4.6-12.9,4.5-16.5-.8-4.6-5.8-3-13.5-3.2-20.3Z"/>
  <path class="st5" d="M225.6,224.7c2.9-.1,5.9-.4,8.8-.7,0,34.3-.2,68.6-.3,102.9,0,1.9-.2,3.8-.5,5.7-10.9-3.5-22.8-1.1-32.7,4.1-.5-1-1-2-1.5-3,5.2-3.8,9.9-8.3,14.7-12.6,2.3-2,4.9-3.9,6.8-6.3,0-2.4-2.2-3.7-3.4-5.5-3.6-4.9-7.2-9.8-11-14.6,3.7-4.1,7.7-7.9,11.1-12.2,1.4-1.9,3.8-3.2,4.3-5.6-5.8-3.5-12.6-4.9-18.8-7.6,7.5-14.9,15-29.8,22.5-44.7Z"/>
  <path class="st11" d="M237.5,224c1.1,0,2.2.1,3.4.2-.5,6.6-.1,14.1,5,18.9,3.7,4.1,10,4.5,15,3,4.6-1.6,7.5-6,9.2-10.3,1,4.1-1.8,7.1-4.1,9.9,2.9,0,5.8,0,8.7,0-.1-6.1,1-12.4-.7-18.3-2.8.2-1.2,4.6-2,6.6-.5.4-1.4,1-1.9,1.4.1-2,.3-3.9.4-5.9,0-1.4,0-2.8.1-4.2,2,.4,3.9.8,5.9,1.2-.1,7.1,0,14.1-.2,21.2-12.2,0-24.4,0-36.6,0-.9-2.1-2.3-4.2-2.2-6.6-.1-5.7,0-11.3,0-17Z"/>
  <path class="st8" d="M161.5,250.5c16-15.7,38.5-22.3,60.2-25-7.8,14.5-15,29.2-22.2,44-.8,1.1,0,2.5,1.3,2.6,5.5,2.1,10.9,4.3,16.4,6.1-4.8,5.7-10.2,10.8-14.8,16.7,4.4,5.5,8.4,11.3,12.8,16.8.8.9,1.4,2,1.6,3.3-4.4,3.2-8.4,6.8-12.4,10.4-3.1,2.7-6.5,5.2-9.1,8.4,1.3,1.5,2.4,3.3,2.6,5.3-3.6,1.9-7,4.2-10.3,6.6,1.8-14.9,2.8-29.8,3.8-44.7.4-12.9,2.1-25.9,0-38.7-.9,0-1.9.2-2.8.3,1.8,22.9-1.8,45.8-2.6,68.6-5.9-1.1-12-.8-17.9-1.9-1.4-.5-2.7-1.1-4-1.7-1.2.4-2.3.8-3.5,1.1-11.5-.8-23-1.2-34.5-1,6.4-18.8,13.3-37.4,21.5-55.4,3.6-7.9,7.5-15.8,13.8-21.9Z"/>
  <path class="st39" d="M272,234c.7-2-.9-6.4,2-6.6,1.7,5.9.6,12.2.7,18.3-2.9,0-5.8,0-8.7,0,2.4-2.9,5.2-5.9,4.1-9.9v-.3c.5-.3,1.4-1,1.9-1.4Z"/>
  <path class="st8" d="M279.7,226.9c5.3.9,10.9,2.1,15.7,4.4,2.8,8.4,6.1,16.7,8.6,25.2-8.1,0-16.3.6-24.4.8,0-10.1,0-20.3,0-30.4Z"/>
  <path class="st38" d="M300.1,233c10.2,5.5,19.1,13.3,25.6,22.9-6,.1-12,.4-18.1.4-2.4-7.8-6-15.3-7.6-23.4Z"/>
  <path class="st5" d="M240.2,251.3c12.1-.4,24.2-.2,36.3-.1,0,2.1,0,4.2,0,6.3-4.6.1-9.2-.2-13.7.9-1.5,9.2-3.4,18.3-4.9,27.5-.9,3.4-.8,7.2-2.5,10.4-4.4-13.8-8.9-27.5-13.4-41.3-.5-1.3-1.1-2.5-1.7-3.8Z"/>
  <path class="st17" d="M237.7,252c5.1,17.4,11.4,34.5,16.5,51.9-1.1,11-4.2,21.8-5.2,32.9-4.2-.3-7.8-2.6-11.8-3.4-.1-25.4.1-50.9,0-76.3,0-1.7.2-3.4.4-5.1Z"/>
  <path class="st8" d="M265.6,261.1c49.7-1.7,99.4-3.4,149.1-5.1-1.1,6.2-2.5,12.4-3.4,18.6-39.5-.6-78.9-1.4-118.4-2-2.8,0-5.7-.5-8.2.9-6.9,26.1-14.3,52.1-20.5,78.4-2-5.9-6.9-10.4-12.6-12.8,4.2-26.1,9.4-52,13.9-78Z"/>
  <path class="st5" d="M287.9,275.8c20,.8,40.1.6,60.2,1,18.9.2,37.9.7,56.8.9-.4,6.1-2.1,12-3,18-35.7,0-71.3-.1-107,0-9.3,21.4-18.3,43-27.6,64.4-.4,1.1-.8,2.3-1.1,3.4-.1,0-.4,0-.6,0,1.3-7.9,3-15.8,5.1-23.5,5.4-21.5,11.2-43,17.3-64.3Z"/>
  <path class="st3" d="M407.8,278.4c5-.4,10.1-.1,15.1-.2.2,5.9-2.2,11.5-2.8,17.3-5,.3-10,.1-14.9.1.4-5.8,2.3-11.4,2.6-17.2Z"/>
  <path class="st26" d="M317.5,289c1.6-2.6,4.9-2.2,7.5-2.2,22.4,0,44.9,0,67.4-.2.7,1.4,1,3.1-.6,4.1-4.9.7-9.8.3-14.8.4-17.3.2-34.7,0-52,0-2.6-.1-5.7.2-7.6-2.1Z"/>
  <path class="st45" d="M294.9,290c1.5-3.3,6.2-1.8,9.1-1.8,0,2.1-1.3,5-3.8,4.6-1.9-.4-4.5-.6-5.2-2.8Z"/>
  <path class="st21" d="M296.7,299.2c36.5-.3,72.9,0,109.4-.1,7.9-.3,15.9,0,23.8.2-4.6,9.7-8.6,19.6-12.6,29.4-10.6-4.2-22.6-3.8-33.4-.8-3.9,1.3-8.8,3.5-9.4,8.1-.5,3.6,2.9,5.9,5.8,7-5.6.6-12,2.6-14.6,8.1-.6,3.2,1.8,6.1,4,8.2,4.1,3,9.3,3.6,14.2,3.7-1,1.5-3.1,3.2-1.9,5.2,1.9,4.5,6.8,6.4,10.5,9.2.6,1.5-.7,3-1.1,4.4-4.4,9.5-8.3,19.1-12.3,28.8-43.3,0-86.5,0-129.8,0,13.8-32,27.3-64.2,41-96.2,2.2-5,4.5-9.9,6.3-15Z"/>
  <path class="st37" d="M142.4,310.5c1.6-2.1,4.4-1,6.6-.6,8.3,2.1,16.8,3.6,25.1,5.9,1.8.3,2.7,1.8,3.7,3.1-1.3,1.1-2.7,2.8-4.6,1.9-10-2.2-19.9-4.5-29.6-7.6-1.1-.2-2.4-2-1.1-2.8Z"/>
  <path class="st7" d="M420.3,331c0-3,1.5-5.6,2.8-8.2,2.5,5.5,4.7,11.6,3.2,17.6-5.3,17.2-11,34.5-19.2,50.5-4.8,7.5-13.2,12.4-22,13.9,3.1-8.7,7.3-16.9,10.7-25.5,1.6.5,3.1,1,4.8,1.5,0-.5.1-1.6.2-2.1-5.4-3.9-12.5-6.1-16-12,0-.5.3-1.5.3-2,7.6-1,14.9,2.9,21.2,6.9.5-.4,1.4-1.1,1.9-1.5-5.1-4.3-11.6-6.5-17.9-8.3-5.5-1.7-11.4-1.4-16.8-3.5-2.6-1.1-5.3-3.6-4.8-6.7,2.8-3.4,7.3-4.9,11.4-5.8,11.3-1.4,22.7,2.1,32.3,8,.1-.7.4-2.1.5-2.7-6.1-3.9-12.6-7.4-19.8-8.7-4.7-1.1-9.7-.9-14.1-3-2-.8-1.5-2.9-1.6-4.6,2.9-2.3,6.3-3.8,10-4.5,11.4-2.3,24.5-2.7,34.2,4.7.1-1.5,1-3.4-1.1-3.9Z"/>
  <path class="st36" d="M160.7,328.8c1.2-.4,2.3-.7,3.5-1.1,1.3.6,2.7,1.2,4,1.7.3,1.3.7,2.6,1.1,4-.4,0-1.2,0-1.6,0-.4-1.5-1-3-1.5-4.4-3.5-.3-4.8,3.2-6.1,5.8,0-.6.2-1.7.3-2.2-1.2.2-3.6.5-4.8.7,0-.3-.2-.8-.3-1.1,1.4-.3,2.7-.2,4.1.2,1.3-.7,1.2-2.2,1.3-3.5Z"/>
  <path class="st41" d="M160.1,334.9c1.3-2.6,2.6-6.1,6.1-5.8.5,1.5,1,2.9,1.5,4.4.9,4.8,2,9.8,1.4,14.7-.6,0-1.8.2-2.4.2-3.2-.9-6.4-2-9.6-3,.8-3.6,2-7.1,3-10.6Z"/>
  <path class="st44" d="M146.7,331.5c2.8.2,5.6.3,8.5.3-1.8,8.5-1,17.2-.6,25.8-.2,2.7-.5,5.3-.5,8-2.2.4-4.4.6-6.7.8-.8-11.6-.7-23.2-.7-34.9Z"/>
  <path class="st16" d="M155.2,331.8v.4c.2.3.4.8.4,1.1,1.2-.2,3.6-.5,4.8-.7,0,.6-.2,1.7-.3,2.2-1.1,3.5-2.2,7-3,10.6,0,.3-.2.8-.2,1.1-.7,3.7-1.1,7.5-2.3,11.1-.5-8.6-1.2-17.3.6-25.8Z"/>
  <path class="st9" d="M126.5,333c.7,0,2.2.3,2.9.3,1.8,5.3,4.2,10.4,5.2,15.9-1,0-3.1.3-4.1.3-.9-1.1-1.9-2.2-2.8-3.3-.3-4.4-1.3-8.8-1.1-13.3Z"/>
  <path class="st31" d="M167.7,333.5c.4,0,1.2,0,1.6,0,5.4-.2,10.9.5,16.3,1.1-.9,4.6-.4,9.7-2.2,14-6.7,5.4-13.2,11.2-18.9,17.7-.8-6,1-11.8,1-17.8.3,0,.9,0,1.2,0,.6,0,1.8-.2,2.4-.2.6-4.9-.6-9.9-1.4-14.7Z"/>
  <path class="st6" d="M92.1,335.5c.2-1.5,1.2-2.8,2.7-1.5,5.9,4.4,10.7,10.1,16.3,14.8,2.2-.5,3.8-3.3,6.3-2.4,1.7.9,3.3,2.5,5.5,1.8l-.7.3c-.4,1-.8,2-1.1,3-1.7-.5-3.3-1-5-1.3-1.7.5-3,1.7-4.4,2.6-.5,0-1.4-.2-1.9-.3-5.9-5.6-11.8-11.3-17.7-16.9Z"/>
  <path class="st46" d="M197.5,342.6c6.5-4,13.6-7.5,21.4-8.2,8.9-.9,17.8,1.6,26,4.8,5.9,2.4,12.3,5.4,15.6,11.2,2.1,2.9,2.4,6.4,2.2,9.8-2.4-1.7-3.9-4.6-6.6-6-.4.4-1.1,1.2-1.4,1.6,3.6,3.9,6.7,8.2,9,13-1.4,2.9-2.6,5.9-3.6,8.9-5.3-4.6-10.3-9.7-15.9-13.9-1.1-1.5-3.9.7-1.9,1.8,5.6,4.9,10.7,10.3,16.5,14.9-.9,2-1.7,4.1-2.5,6.1-1.5-.4-2.9-1-4.2-1.8-9.4-5.5-18.6-11.4-27.2-18.1-2.4-1.8-4.6,1.2-6.4,2.5-5.9.9-11.6-1-16.5-4.2-.7-.7-1.8-1.7-2.8-.9-1.1,1.1.4,2.3,1.4,2.6.4.2,1.2.7,1.6,1-2.4,11.5-7,22.7-14.1,32.1-4.1,5.8-9.8,10-15.6,14-.5-4.8-.1-9.6.3-14.3.3,2.8.6,5.6.8,8.4.4-8.4,1.2-16.7,1.1-25.1,0-5.5.8-11-.2-16.4-1.6-.2-3.2-.4-4.8-.6.9-2.3,3-3.8,4.7-5.5,6.9-6.9,14.9-12.6,23.1-17.9Z"/>
  <path class="st0" d="M157.1,345.4c3.2,1,6.4,2,9.6,3-.3,0-.9,0-1.2,0-1.7,0-3.3,0-4.9,0-.1.4-.4,1.1-.5,1.5,0-.6-.1-1.8-.2-2.4-.8-.2-2.3-.8-3-1,0-.3.2-.8.2-1.1Z"/>
  <path class="st25" d="M127.6,346.3c.9,1.1,1.9,2.2,2.8,3.3,1.6,1.7,2.4,3.9,3.3,6,1.4,3.5,3.7,6.7,4.2,10.6-2.8,0-5.6,0-8.4,0-2.6-5.9-4.3-12.1-7.3-17.8l.7-.3c1.5-.7,3.1-1.2,4.7-1.8Z"/>
  <path class="st33" d="M160.6,348.4c1.6,0,3.3,0,4.9,0,0,5.9-1.8,11.8-1,17.8h0c-2.4,0-4.8,0-7.3,0,.8-5.5,1.7-10.9,2.8-16.3.1-.4.4-1.1.5-1.5Z"/>
  <path class="st42" d="M199,364.4c1-.8,2.1.2,2.8.9-.4.4-1.1,1.3-1.4,1.7-1-.3-2.5-1.5-1.4-2.6Z"/>
  <path class="st1" d="M174.5,366.6c1,5.4.2,11,.2,16.4,0,8.4-.7,16.7-1.1,25.1-.2-2.8-.6-5.6-.8-8.4-.2-4.6.3-9.1.5-13.7.3-6.5.3-13,1.2-19.4Z"/>
  <path class="st17" d="M124.2,369.3c15.6,0,31.1,0,46.6,0-.6,17-1.7,34-2.3,50.9-13.7,0-27.5-.2-41.2,0-.8-3.8-.7-7.6-.8-11.5-.8-13.2-1.8-26.4-2.3-39.6Z"/>
  <path class="st5" d="M211.1,372.5c4.2.2,9.1.4,12-3.2,3.5,2.6,6.8,5.4,10.5,7.6.2,11.4,0,22.7,0,34-.7,0-2.1-.1-2.8-.2-6.4-12.8-13-25.5-19.7-38.2Z"/>
  <path class="st8" d="M205,370c2.4,2,3.8,4.8,5.2,7.5,5.5,11.1,11.6,22,16.9,33.3-13,0-26.1,0-39.1,0-2,0-4,.3-5.9.7,4.9-5.3,9.8-10.6,13.3-17,4.5-7.6,7.1-16.1,9.6-24.5Z"/>
  <path class="st35" d="M237.4,379.1c1.4,1,2.9,2,4.4,3-.7,8.9-2.9,17.5-4.2,26.3-1.1-5.1-.7-10.2-.7-15.4,0-4.6-.4-9.3.5-13.9Z"/>
  <path class="st40" d="M245.1,384.3c3,2.1,6.3,4,9.7,5.5-2.6,7-6.1,13.7-8.6,20.8-1.9,0-3.8.1-5.7.1,1.5-8.8,3.4-17.5,4.6-26.4Z"/>
  <path class="st10" d="M204.4,399.6c-.8-2.9-.6-6,2.3-7.7,1.7,1.6,3.7,2.8,5.8,3.6-2.5,1.8-4.6,5.5-8.1,4.1Z"/>
  <path class="st18" d="M171.7,417.7c2.8-1.8,5.7-3.5,8.5-5.4,0,2.7-.2,5.4-.4,8.1-2.8,0-5.5,0-8.3,0,0-.7.2-2,.2-2.7Z"/>
  <path class="st2" d="M182.3,414.3c1.3.9,1.3,4.6,0,5.4-.7-1.6-.7-3.8,0-5.4Z"/>
  <path class="st21" d="M185.6,414.4c3.8-.9,7.6-.4,11.4-.5,18.2,0,36.4.2,54.6-.2,0,2.2.1,4.4.1,6.6-21.8-.1-43.6,0-65.4,0-.2-2-.5-4-.7-5.9Z"/>
  <path class="st12" d="M254.7,413.6c40.3.2,80.6,0,120.9.1,0,2.1,0,4.3,0,6.4-40.3.2-80.6,0-120.9.1,0-2.2,0-4.4,0-6.6Z"/>
  <path class="st30" d="M61.7,430c-.4-3.1,1.6-7.3,5.3-6.6,127,0,253.9,0,380.8,0,3.8,2.7,3.4,8.2.1,11.2-127.8,0-255.7,0-383.5,0-1-1.4-2.7-2.6-2.7-4.5Z"/>
</svg>