<?xml version="1.0" encoding="UTF-8"?>
<svg id="Layer_1" xmlns="http://www.w3.org/2000/svg" version="1.1" viewBox="0 0 512 512">
  <!-- Generator: Adobe Illustrator 29.4.0, SVG Export Plug-In . SVG Version: 2.1.0 Build 152)  -->
  <defs>
    <style>
      .st0 {
        fill: #fff;
        stroke: #fff;
      }

      .st0, .st1, .st2 {
        stroke-width: .2px;
      }

      .st1 {
        fill: #53b6e2;
        stroke: #53b6e2;
      }

      .st2 {
        fill: #a9eafe;
        stroke: #a9eafe;
      }
    </style>
  </defs>
  <path class="st1" d="M176.4,110.5c7.8-7.4,19.2-9.5,29.6-8.5,11.1.6,21.1,5.8,31.2,9.8,6.1,2.6,12.3,5.4,19,6,6.1.6,11.5-2.7,17-4.8,10.4-4,20.5-9.6,31.8-10.7,9.4-1.3,19.5-.3,27.6,5,2.6,1.6,4.4,4.3,7.5,5.1,14.5,4.3,27,14.7,34.2,28.1,5.6,11,8.1,23.4,8.1,35.6,0,13.7-3.2,27.2-6.8,40.4-2.7,9.7-6.7,18.9-9.1,28.7-3.3,14.7-3.4,29.8-3.4,44.8-.5,14-.4,28.1-2.4,42.1-2.5,18.4-7.4,36.8-16.6,53.1-2.7,5-6.3,9.4-10.1,13.6-7.6,6.8-17.7,10.8-27.9,11.5-5.3.3-10-3.3-11.7-8.2-5.5,1.6-11.1,3.6-16.9,2.2-3.3-1.1-5.1-4.6-5.7-7.8-2.3-11.7-2.3-23.6-2.5-35.5-1.1-9.6-.2-19.4-1.5-29-.8-13.2-3.7-26.7-10.8-38-2,4.1-4.3,8.2-6,12.5-3.2,9.4-4.3,19.3-4.8,29.1-1.2,12.1-.2,24.4-1.4,36.5-.1,8-.5,16-2,23.9-.6,3.3-2.2,7-5.5,8.3-6.3,1.5-12.8-.4-18.5-2.9-2.2,4.3-5.4,8.5-10.6,8.9-14.9.2-29.4-8.1-37.4-20.7-14.8-23.7-19.6-52-21-79.5-.8-24.4,1.2-49.5-6.4-73.1-3.8-10.8-7.4-21.6-9.9-32.8-4.5-18-5.6-37.5.9-55.1,5.7-17.1,19.8-31.2,37.1-36.3,1.7-.6,3.7-.9,5.1-2.2Z"/>
  <path class="st2" d="M183.6,109.6c6.7-2.9,14.1-4.8,21.5-4,15.3,1.5,28.3,10.7,43.1,14.1-16.2-.7-31.2-7.6-47.2-9.8-5.8-.8-11.6-.2-17.4-.3Z"/>
  <path class="st2" d="M285.7,111.9c10.5-4.1,21.9-8,33.2-5.8,3.6,1,7.5,1.7,10.5,4.2-5-1.5-10.3-.8-15.4-.7-16.4,1.3-31.5,9.1-47.9,10,6.7-2.1,13.3-4.5,19.7-7.6Z"/>
  <path class="st0" d="M148.9,143.8c7.2-12.6,20.8-21,35.1-22.7,15.4-2.5,30.8,2.6,44.5,9.3,17.4,8.9,34.7,19.2,54.4,21.5-5.1,1.9-10.4,3.1-15.5,4.8-2.8.9-2.4,5.9.6,6.1,4.5.2,8.8-1.4,13.1-2.5,10-3.2,20-7.3,28.2-14,1.9-1,1.7-4.6-.6-4.9-3.2-.7-6.1,1.4-9.2,2.1-9.5,3-19.4.4-28.7-2.1-9.1-2.4-17.4-6.9-26-10.8,5.1-.2,10,1,15.1.8,12.6-.4,25.1-3.2,37.1-7,13.4-3.9,28.5-6.3,41.6-.5,9.4,11,11.5,26.2,11.9,40.2.2,12.1,0,24.6-4.6,35.9-3.9,10.8-11.5,19.8-17.1,29.7-3.6,6.7-7.1,13.7-8.5,21.3-2,9.9-1,20.2,2.1,29.8,3.8,12.4,6.8,25.2,6.7,38.3-1.9,22.9-6.7,45.8-16.1,66.8-1.9,4.4-4.7,8.4-8.7,11.1-3.5-17.2-3.4-34.9-7.3-52-3.5-16.5-10-32.4-18-47.2-2-3.7-4.8-6.8-6.8-10.5-1.5-3-2.9-6.1-5.1-8.7-2.2-2.8-4.9-5.3-6.2-8.7,1.7-2.2,4.8-3.7,5.3-6.6-1.9-5.9-8.3-9.6-14.4-8.9-9.3.8-17.5,6.2-24.1,12.6-5.2,4.8-8.9,10.9-12.1,17.1-5.3,9-9.1,18.7-11.9,28.7-4.4,14.3-7,29.2-7.4,44.2,0,8.8,1.3,17.6,2.9,26.2,1.1,5.6,3.7,10.7,4.6,16.3-6.5-1.5-13.1-3.9-18-8.6-7-6.6-10.8-15.8-14.6-24.5-7.4-19.6-10-40.7-10.8-61.5-.3-21.5.8-43.4-4.5-64.4-5.7-18.5-13.1-36.8-14.7-56.3-.9-13.8.3-28.4,7.4-40.6Z"/>
  <path class="st2" d="M338.8,123.9c16.5,5.1,28.6,21.2,30.9,38.1,4.3,23.8-3.1,47.5-10.9,69.7-7.6,20.2-6.7,42.1-7.2,63.3.2,22.2-2,44.6-8.8,65.8-3.6,9.7-7.6,19.6-14.3,27.7-5.8,6.8-14.6,9.9-23.2,11.3-.3-.9-.6-1.9-.9-2.8,4-2.7,6.9-6.7,8.7-11.1,9.4-21,14.2-43.9,16.1-66.8.1-13.1-2.9-25.9-6.7-38.3-3-9.6-4-19.9-2.1-29.8,1.4-7.6,4.8-14.6,8.5-21.3,5.6-9.9,13.2-18.9,17.1-29.7,4.7-11.3,4.9-23.8,4.6-35.9-.4-14-2.5-29.1-11.9-40.2Z"/>
  <path class="st1" d="M162.9,156.6c3.5-10.1,12.3-18.5,23-20.3,6.1-1.2,12.8-.5,17.8,3.3.2,2.4-.4,4.6-2.5,6-6.7-2.3-14.5-3.1-20.8.8-8.8,5.2-12.6,15.8-12,25.6-.3,2.8,1.1,6.7-1.9,8.4-2.3.8-5,0-5.4-2.7-1.4-7-.2-14.4,1.7-21.2Z"/>
  <path class="st2" d="M227.9,266.9c6.6-6.3,14.8-11.8,24.1-12.6,6.1-.7,12.5,3,14.4,8.9-.5,3-3.6,4.4-5.3,6.6,1.3,3.4,4.1,5.9,6.2,8.7,2.2,2.6,3.6,5.7,5.1,8.7-3.5-2.5-6.6-5.9-11-6.8-5.4-1.1-11.6-.8-16.1,2.7-6.2,4.6-10.3,11.4-13.8,18.2-9.9,18.2-16.5,38.3-19,59-1.9,13.1-2.2,26.5-5.2,39.4-.8,0-2.5-.1-3.3-.2-.9-5.6-3.5-10.8-4.6-16.3-1.6-8.6-2.9-17.4-2.9-26.2.4-15,3-29.9,7.4-44.2,2.8-10,6.6-19.8,11.9-28.7,3.2-6.2,6.9-12.3,12.1-17.1Z"/>
  <path class="st2" d="M234.5,322.3c4-9.3,8-19,14.7-26.8-1.2,4.1-3.5,7.8-4.7,11.9-2.6,8.6-4.1,17.6-4.1,26.6-.2,5.7.1,11.4-.6,17-.8,10.7.3,21.4-1.2,32-.1,4.8-.3,9.8-2.3,14.3-.5,1.2-2,1.8-3.2,1.8-4.4-.2-8.7-1.3-12.9-2.7,0-5.5,1.1-10.9,1.6-16.4,1-10.2,1.9-20.5,3.9-30.5,2.3-9.2,4.9-18.5,8.7-27.2Z"/>
  <path class="st2" d="M268.5,303.2c3,4,4.7,8.8,6.9,13.2,5,10.7,8.7,22,11.3,33.6,3,15.3,2.9,31,5.9,46.2-4.5,1.6-9.3,3.9-14.1,2.3-3.6-8-2.5-17-3.5-25.5-.9-10.6.1-21.3-1-32-.3-12.8-1.7-25.6-5.4-37.9Z"/>
</svg>