<svg xmlns="http://www.w3.org/2000/svg" height="512pt" version="1.1" viewBox="0 0 512 512" width="512pt">

<path d="M 260.25 38.27 C 265.22 35.46 270.82 34.01 276.16 32.04 C 276.65 39.37 276.47 46.73 275.87 54.04 C 275.30 60.37 275.83 66.86 273.95 73.02 C 270.38 66.88 268.47 59.98 265.59 53.53 C 263.76 48.47 261.01 43.66 260.25 38.27 Z" fill="#feca9b" opacity="1.00" stroke="#feca9b" stroke-width="0.25" data-index="1" style="opacity: 1; visibility: hidden;"></path>

<path d="M 308.09 76.15 C 314.29 72.35 321.64 69.67 329.00 70.85 C 339.68 72.36 348.52 79.82 354.67 88.31 C 365.57 102.92 367.78 123.58 360.05 140.11 C 357.76 145.25 352.52 147.91 349.03 152.06 C 347.66 154.26 347.01 156.80 346.06 159.19 C 339.44 156.31 337.33 148.54 336.35 142.02 C 333.99 142.81 331.57 143.46 329.31 144.51 C 327.24 147.90 326.60 151.95 324.96 155.55 C 321.75 156.24 319.96 153.47 318.14 151.38 C 312.26 154.52 305.73 157.08 298.94 156.42 C 295.13 155.98 292.12 153.46 289.53 150.83 C 288.01 162.45 286.00 174.03 285.05 185.71 C 294.49 183.77 303.85 181.41 313.27 179.37 C 313.39 180.03 313.63 181.33 313.74 181.98 C 316.80 181.18 319.88 180.45 322.92 179.56 C 326.45 177.56 329.80 174.79 334.02 174.48 C 337.64 173.76 341.72 175.15 345.01 173.08 C 348.08 171.27 350.42 168.49 353.19 166.27 C 356.04 167.57 355.92 170.50 355.72 173.19 C 358.75 171.94 361.77 170.44 365.12 170.28 C 365.57 171.19 366.03 172.11 366.50 173.02 C 365.70 174.76 364.88 176.50 364.06 178.23 C 371.43 179.44 378.91 180.56 385.97 183.08 C 387.64 183.41 387.69 185.14 388.11 186.47 C 386.48 187.05 384.85 187.59 383.20 188.05 C 387.13 188.50 391.13 189.80 393.62 193.08 C 392.62 195.30 390.67 196.68 388.25 196.89 C 388.33 198.09 388.43 199.29 388.52 200.49 C 384.94 204.45 379.31 203.73 374.60 204.78 C 364.17 209.83 352.23 208.53 341.14 207.04 C 342.53 210.31 343.90 213.61 344.90 217.04 C 326.02 224.46 307.00 231.58 287.71 237.85 C 281.34 239.79 274.34 241.78 267.81 239.40 C 264.71 238.41 262.54 235.89 260.24 233.75 C 252.87 233.99 244.90 233.49 238.60 229.24 C 235.69 227.34 233.67 224.44 231.90 221.51 C 225.51 233.16 219.80 245.19 213.13 256.69 C 212.25 256.25 211.37 255.81 210.49 255.37 C 213.92 296.14 216.01 337.03 215.70 377.96 C 215.76 395.45 215.61 412.94 215.38 430.43 C 212.99 432.05 209.74 430.78 207.00 431.21 C 207.69 434.56 208.67 438.16 211.43 440.44 C 216.58 444.89 222.72 447.95 228.50 451.48 C 232.56 453.99 237.23 456.19 239.77 460.45 C 242.33 464.61 241.36 469.68 241.50 474.30 C 298.67 474.25 355.85 474.32 413.03 474.27 C 414.54 474.28 416.07 474.40 417.59 474.55 C 417.79 476.57 418.09 479.63 415.08 479.29 C 310.04 479.33 205.01 479.25 99.97 479.31 C 98.01 479.38 96.09 478.99 94.23 478.41 C 94.46 476.62 94.39 473.86 97.01 474.31 C 115.46 474.27 133.91 474.23 152.36 474.35 C 176.24 474.65 200.13 474.32 224.01 474.58 C 224.00 472.56 223.99 470.55 223.98 468.55 C 213.32 468.11 202.65 468.36 191.99 468.33 C 178.80 468.44 165.60 468.13 152.42 468.80 L 151.63 468.83 C 152.32 460.66 153.19 452.37 155.76 444.55 C 157.13 440.17 161.06 437.28 165.40 436.25 C 165.40 434.36 165.41 432.48 165.43 430.61 C 159.83 431.87 154.14 432.58 148.46 433.32 C 147.12 428.24 146.60 423.00 145.75 417.83 C 136.61 356.02 126.78 294.26 120.77 232.05 C 120.02 221.49 118.12 210.41 122.04 200.23 C 124.69 193.97 129.51 188.88 134.98 184.96 C 142.16 178.73 149.85 173.12 157.16 167.05 C 174.87 152.73 188.26 134.13 203.59 117.49 C 216.64 104.12 232.85 92.08 251.93 89.89 C 257.87 89.22 263.94 89.35 269.74 90.87 C 268.85 89.24 268.08 87.54 268.21 85.63 C 274.49 85.15 280.87 86.11 287.07 84.67 C 294.60 83.38 301.61 80.11 308.09 76.15 Z" fill="#082c4a" opacity="1.00" stroke="#082c4a" stroke-width="0.25" data-index="3" style="opacity: 1;"></path>
<path d="M 295.67 85.70 C 305.15 82.70 312.67 74.57 323.01 74.18 C 331.80 73.24 340.20 77.71 346.22 83.82 C 354.20 91.84 360.08 102.51 360.63 113.98 C 361.10 122.83 360.57 132.22 355.98 140.04 C 354.17 143.41 350.97 145.62 348.36 148.30 C 346.36 150.25 345.64 153.03 344.66 155.56 C 341.31 151.27 339.14 145.86 340.14 140.36 C 342.24 138.67 344.75 137.57 346.77 135.78 C 346.96 131.60 344.26 126.63 339.52 127.08 C 338.20 123.45 337.42 119.66 337.06 115.83 C 332.45 117.76 327.80 119.59 322.96 120.84 C 323.80 119.13 324.67 117.44 325.54 115.75 C 325.37 114.91 325.20 114.07 325.03 113.23 C 319.40 114.13 313.76 115.09 308.29 116.72 C 310.45 113.55 313.03 110.60 314.52 107.03 C 315.13 104.92 313.96 102.80 311.93 102.08 C 306.98 100.47 301.09 101.69 297.38 105.41 C 293.47 108.93 293.14 114.75 289.44 118.44 C 285.66 122.32 282.34 127.57 276.47 128.24 C 275.46 120.32 278.67 112.96 280.93 105.57 C 277.90 106.01 274.87 106.42 271.82 106.62 C 273.88 102.03 277.31 98.31 281.11 95.09 C 277.29 93.41 273.78 91.11 270.80 88.19 C 279.14 88.61 287.76 88.82 295.67 85.70 Z" fill="#6e4b4a" opacity="1.00" stroke="#6e4b4a" stroke-width="0.25" data-index="4"></path>
<path d="M 247.60 95.40 C 254.76 93.63 262.24 93.93 269.51 94.68 C 268.68 97.48 267.68 100.48 269.33 103.20 C 268.64 105.19 268.25 107.27 268.01 109.36 C 268.83 109.36 270.47 109.35 271.28 109.34 C 271.79 111.05 272.35 112.74 273.09 114.37 C 273.73 112.75 273.90 111.02 273.82 109.30 C 274.69 109.33 275.56 109.36 276.44 109.40 C 273.54 116.50 272.07 124.47 274.03 132.01 C 275.02 136.12 277.63 139.77 281.13 142.10 C 282.92 143.38 285.04 142.29 286.63 141.25 C 286.75 144.04 289.19 147.43 286.71 149.72 C 280.91 156.21 274.81 162.44 268.85 168.79 C 269.41 161.20 269.44 153.60 269.61 146.00 C 269.60 140.89 269.56 135.72 268.34 130.72 C 267.40 130.73 266.46 130.74 265.53 130.76 C 265.33 150.54 264.69 170.33 263.73 190.10 C 262.37 190.44 261.03 190.78 259.69 191.16 C 258.89 191.00 257.28 190.67 256.48 190.51 C 255.06 192.39 255.09 194.59 255.88 196.73 C 274.01 192.97 292.08 188.86 310.10 184.59 C 312.52 193.72 315.15 202.79 317.61 211.91 C 307.65 215.58 297.80 219.57 287.71 222.87 C 277.78 226.19 267.64 230.00 256.99 229.57 C 250.91 229.49 244.21 228.64 239.64 224.23 C 235.02 219.58 232.75 213.18 231.42 206.89 C 228.06 191.80 225.70 176.45 225.17 160.98 C 224.31 148.77 224.93 136.30 228.29 124.48 C 228.64 123.05 228.58 121.57 228.60 120.12 C 227.24 120.94 225.27 121.38 225.07 123.26 C 219.27 141.97 220.47 161.92 222.58 181.13 C 224.01 193.19 225.80 205.31 229.58 216.90 C 222.93 227.84 217.30 239.36 211.30 250.66 C 197.88 239.14 184.85 227.16 172.16 214.85 C 162.03 204.73 152.84 193.73 144.17 182.35 C 154.23 174.81 164.29 167.13 172.96 157.97 C 185.29 145.19 195.86 130.78 208.79 118.58 C 219.84 108.23 232.64 98.92 247.60 95.40 Z" fill="#cdf2fe" opacity="1.00" stroke="#cdf2fe" stroke-width="0.25" data-index="5" style="opacity: 1;"></path>

<path d="M 296.12 114.92 C 296.38 107.45 305.71 101.65 312.35 105.53 C 309.17 110.10 304.96 114.62 305.14 120.58 C 310.94 119.30 316.42 116.66 322.45 116.40 C 320.90 117.96 319.30 119.46 317.67 120.92 C 317.61 121.50 317.49 122.67 317.44 123.25 C 323.34 124.56 329.00 122.08 334.31 119.80 C 335.67 124.42 337.24 129.07 340.05 133.04 C 340.71 131.79 341.39 130.53 342.04 129.27 C 342.61 130.95 343.29 132.60 343.72 134.34 C 338.80 137.09 333.58 139.26 328.56 141.83 C 324.42 143.91 324.54 149.12 323.10 152.94 C 321.80 151.45 320.50 149.96 319.22 148.45 C 318.75 148.45 317.80 148.46 317.33 148.46 C 314.27 150.06 310.99 151.15 307.77 152.34 C 307.81 148.43 307.71 144.51 307.38 140.62 C 306.84 140.51 305.75 140.31 305.21 140.20 C 304.67 144.59 304.88 149.02 304.75 153.43 C 300.64 153.82 295.72 153.86 293.11 150.02 C 287.27 142.01 289.75 131.67 289.47 122.49 C 290.43 121.34 291.38 120.17 292.32 119.00 C 293.62 120.73 295.40 121.81 297.58 121.94 C 296.90 119.65 295.73 117.38 296.12 114.92 Z" fill="#feca9b" opacity="1.00" stroke="#feca9b" stroke-width="0.25" data-index="7"></path>
<path d="M 326.18 125.51 C 327.61 125.38 329.04 125.27 330.48 125.19 C 332.08 128.26 334.16 131.06 335.66 134.17 C 336.46 136.79 332.62 137.70 331.32 135.77 C 328.92 132.76 326.96 129.30 326.18 125.51 Z" fill="#082c4a" opacity="1.00" stroke="#082c4a" stroke-width="0.25" data-index="8"></path>
<path d="M 278.29 131.23 C 281.35 129.97 284.14 128.16 286.49 125.83 C 285.70 130.53 284.96 135.24 284.10 139.94 C 281.88 137.79 279.92 135.40 278.11 132.90 C 278.15 132.49 278.25 131.65 278.29 131.23 Z" fill="#6dbeff" opacity="1.00" stroke="#6dbeff" stroke-width="0.25" data-index="9"></path>
<path d="M 321.08 136.77 C 321.90 135.00 322.37 132.08 324.99 132.56 C 328.54 132.08 328.51 136.36 327.53 138.64 C 325.14 138.95 322.91 138.34 321.08 136.77 Z" fill="#082c4a" opacity="1.00" stroke="#082c4a" stroke-width="0.25" data-index="10"></path>
<path d="M 268.75 174.34 C 274.61 168.46 280.22 162.34 285.59 156.00 C 284.30 166.21 282.29 176.32 281.14 186.55 C 276.83 187.62 272.51 188.62 268.21 189.72 C 268.33 184.59 268.54 179.47 268.75 174.34 Z" fill="#5392c7" opacity="1.00" stroke="#5392c7" stroke-width="0.25" data-index="11"></path>
<path d="M 344.06 176.74 C 347.46 174.41 350.60 171.74 353.72 169.04 C 353.20 170.92 353.00 173.12 351.55 174.54 C 346.06 177.42 339.60 177.78 333.53 177.15 C 337.03 176.77 340.54 176.80 344.06 176.74 Z" fill="#feca9b" opacity="1.00" stroke="#feca9b" stroke-width="0.25" data-index="12"></path>
<path d="M 348.84 178.55 C 354.15 177.23 358.70 173.85 364.12 172.90 C 361.45 178.68 354.91 180.34 349.96 183.54 C 361.44 186.05 373.01 188.08 384.49 190.58 C 374.60 190.04 364.67 186.78 354.77 188.87 C 356.78 190.64 359.32 191.55 361.95 191.90 C 369.49 193.11 377.06 194.16 384.56 195.60 C 374.82 195.98 365.16 193.23 355.42 194.48 C 356.49 195.98 358.23 196.61 359.92 197.06 C 366.15 198.69 372.55 199.58 378.75 201.30 C 373.48 202.11 368.20 201.19 362.98 200.52 C 356.38 199.62 349.68 201.20 343.11 199.91 C 338.35 199.08 334.14 196.58 329.55 195.21 C 327.79 191.07 325.86 187.01 324.01 182.91 C 326.52 181.65 328.91 179.33 331.93 179.85 C 337.60 180.68 343.36 180.19 348.84 178.55 Z" fill="#feca9b" opacity="1.00" stroke="#feca9b" stroke-width="0.25" data-index="13"></path>
<path d="M 357.73 182.04 C 359.70 181.20 361.71 180.03 363.93 180.56 C 371.28 181.52 378.51 183.30 385.59 185.44 C 376.16 186.33 366.92 183.80 357.73 182.04 Z" fill="#feca9b" opacity="1.00" stroke="#feca9b" stroke-width="0.25" data-index="14"></path>
<path d="M 315.33 185.69 C 316.58 185.20 317.84 184.71 319.09 184.22 C 321.27 188.81 323.28 193.47 325.22 198.17 C 323.22 198.95 321.23 199.74 319.24 200.51 C 318.09 195.53 316.68 190.62 315.33 185.69 Z" fill="#cdf2fe" opacity="1.00" stroke="#cdf2fe" stroke-width="0.25" data-index="15"></path>
<path d="M 128.75 197.68 C 132.06 192.98 136.68 189.44 141.24 186.02 C 156.52 206.70 174.91 224.86 194.16 241.81 C 192.69 297.86 193.51 353.95 193.34 410.02 C 193.24 413.08 192.74 416.11 192.27 419.15 C 186.59 366.36 180.34 313.62 172.22 261.14 C 171.65 257.92 171.58 254.54 170.18 251.53 C 168.55 251.26 167.45 252.40 166.34 253.37 C 175.27 309.58 182.14 366.10 187.77 422.72 C 175.88 424.64 163.98 426.65 152.01 428.00 C 142.14 358.76 130.48 289.70 124.60 219.97 C 124.19 212.40 124.45 204.22 128.75 197.68 Z" fill="#6dbeff" opacity="1.00" stroke="#6dbeff" stroke-width="0.25" data-index="16" style="opacity: 1;"></path>
<path d="M 386.30 191.16 C 387.91 192.07 389.47 193.02 391.04 194.00 C 389.50 194.14 387.95 194.25 386.42 194.34 C 386.37 193.28 386.33 192.22 386.30 191.16 Z" fill="#feca9b" opacity="1.00" stroke="#feca9b" stroke-width="0.25" data-index="17"></path>
<path d="M 378.20 197.80 C 381.10 198.07 384.01 198.55 386.65 199.88 C 384.82 200.62 382.95 201.26 381.06 201.81 C 380.13 200.45 379.16 199.13 378.20 197.80 Z" fill="#feca9b" opacity="1.00" stroke="#feca9b" stroke-width="0.25" data-index="18"></path>
<path d="M 320.52 204.91 C 323.91 203.45 327.29 201.92 330.43 199.95 C 331.65 200.47 332.87 200.99 334.10 201.52 C 335.62 205.79 337.27 210.01 338.89 214.25 C 321.44 220.77 304.05 227.49 286.46 233.63 C 279.72 236.16 271.79 237.93 265.32 233.67 C 280.74 230.49 295.48 224.87 310.25 219.55 C 314.42 217.95 318.77 216.72 322.71 214.60 C 322.69 211.25 321.35 208.11 320.52 204.91 Z" fill="#cdf2fe" opacity="1.00" stroke="#cdf2fe" stroke-width="0.25" data-index="19"></path>
<path d="M 337.20 202.77 C 341.49 202.48 345.73 203.63 350.03 203.39 C 355.72 203.17 361.45 202.83 367.08 203.90 C 357.18 205.32 346.85 205.88 337.20 202.77 Z" fill="#feca9b" opacity="1.00" stroke="#feca9b" stroke-width="0.25" data-index="20"></path>
<path d="M 194.16 241.81 C 195.55 243.08 196.93 244.37 198.31 245.67 C 199.24 268.78 201.42 291.83 201.81 314.97 C 202.76 341.63 202.00 368.31 202.14 394.98 C 202.22 405.51 201.52 416.04 201.70 426.58 C 198.59 426.58 195.47 426.60 192.36 426.67 C 192.30 424.16 192.07 421.64 192.27 419.15 C 192.74 416.11 193.24 413.08 193.34 410.02 C 193.51 353.95 192.69 297.86 194.16 241.81 Z" fill="#5392c7" opacity="1.00" stroke="#5392c7" stroke-width="0.25" data-index="21" style="opacity: 1;"></path>
<path d="M 202.73 258.96 C 202.43 255.52 202.28 252.06 202.32 248.60 C 203.74 250.34 206.33 251.59 206.51 254.06 C 207.61 266.60 208.43 279.16 208.93 291.74 C 210.11 309.14 210.72 326.57 210.85 344.01 C 211.88 371.53 210.97 399.06 210.34 426.57 C 208.95 426.57 207.55 426.57 206.16 426.58 C 206.26 370.70 207.50 314.70 202.73 258.96 Z" fill="#6dbeff" opacity="1.00" stroke="#6dbeff" stroke-width="0.25" data-index="22" style="opacity: 1;"></path>
<path d="M 169.30 429.95 C 174.65 429.50 179.97 428.75 185.24 427.73 C 185.42 431.39 185.93 435.02 186.51 438.64 C 180.67 438.61 174.80 438.21 169.13 436.70 C 169.15 434.45 169.20 432.20 169.30 429.95 Z" fill="#feca9b" opacity="1.00" stroke="#feca9b" stroke-width="0.25" data-index="23"></path>
<path d="M 190.06 431.66 C 194.48 431.54 198.90 431.49 203.33 431.44 C 203.44 433.12 203.57 434.81 203.70 436.50 C 199.22 436.43 194.76 435.99 190.32 435.49 C 190.23 434.20 190.15 432.93 190.06 431.66 Z" fill="#feca9b" opacity="1.00" stroke="#feca9b" stroke-width="0.25" data-index="24"></path>
<path d="M 158.90 445.82 C 159.83 442.81 162.51 439.79 165.96 440.42 C 171.92 441.57 177.85 443.64 184.00 442.99 C 186.02 442.97 188.42 442.07 190.02 443.77 C 197.24 449.67 205.92 453.30 213.83 458.13 C 216.38 459.62 218.11 462.08 219.63 464.54 C 198.20 465.22 176.72 464.22 155.30 465.20 C 156.01 458.67 156.79 452.06 158.90 445.82 Z" fill="#cdf2fe" opacity="1.00" stroke="#cdf2fe" stroke-width="0.25" data-index="25" style="opacity: 1;"></path>
<path d="M 190.89 440.56 C 196.21 440.73 201.53 441.56 206.85 440.88 C 211.94 446.47 218.81 449.81 225.03 453.92 C 230.02 456.81 235.33 459.80 238.05 465.17 C 233.33 465.24 228.62 465.20 223.91 465.19 C 221.85 461.42 219.52 457.57 215.75 455.29 C 207.58 450.19 198.35 446.77 190.89 440.56 Z" fill="#5392c7" opacity="1.00" stroke="#5392c7" stroke-width="0.25" data-index="26" style="opacity: 1;"></path>
<path d="M 152.42 468.80 C 165.60 468.13 178.80 468.44 191.99 468.33 C 202.65 468.36 213.32 468.11 223.98 468.55 C 223.99 470.55 224.00 472.56 224.01 474.58 C 200.13 474.32 176.24 474.65 152.36 474.35 C 152.38 472.49 152.40 470.64 152.42 468.80 Z" fill="#5392c7" opacity="1.00" stroke="#5392c7" stroke-width="0.25" data-index="27" style="opacity: 1;"></path>
</svg>