<?xml version="1.0" encoding="utf-8"?>
<svg xmlns="http://www.w3.org/2000/svg" height="512pt" version="1.1" viewBox="0 0 512 512" width="512pt">
<path d="M 0.00 0.00 L 512.00 0.00 L 512.00 512.00 L 0.00 512.00 L 0.00 0.00 Z" fill="transparent" opacity="1.00" stroke="transparent" stroke-width="0.25"/>
<path d="M 336.45 129.71 C 354.92 126.37 374.93 128.79 391.10 138.71 C 404.61 146.60 414.73 159.19 422.00 172.87 C 433.79 196.09 438.33 222.31 439.34 248.14 C 440.11 271.10 437.87 294.28 431.54 316.41 C 425.74 335.33 416.26 353.88 400.80 366.69 C 374.37 388.66 332.80 389.55 305.45 368.76 C 289.51 357.05 279.31 339.19 273.34 320.63 C 265.40 295.64 262.93 269.10 264.27 242.99 C 265.28 224.83 268.25 206.71 274.19 189.49 C 280.43 172.36 289.69 155.64 304.22 144.18 C 313.45 136.63 324.72 131.71 336.45 129.71 Z" fill="#203f5b" opacity="1.00" stroke="#203f5b" stroke-width="0.25"/>
<path d="M 304.94 145.87 C 320.72 133.10 342.10 128.17 362.02 130.66 C 361.30 130.73 359.88 130.85 359.16 130.92 C 362.47 132.87 366.35 133.22 370.02 134.08 C 369.36 134.56 368.71 135.05 368.06 135.54 C 368.54 135.88 369.49 136.57 369.96 136.91 C 367.52 136.64 365.07 136.42 362.62 136.32 C 366.47 138.06 370.69 138.85 374.40 140.94 C 368.04 139.90 361.86 136.97 355.30 137.87 C 357.23 138.66 359.25 139.24 361.31 139.63 C 369.14 141.10 376.81 143.98 383.34 148.61 C 385.30 149.99 387.35 151.27 389.54 152.27 C 387.63 149.17 384.43 147.32 381.85 144.87 C 386.35 146.87 389.81 150.43 393.39 153.69 C 399.05 158.98 403.72 165.24 407.57 171.94 C 407.18 172.21 406.38 172.73 405.99 173.00 C 404.88 171.20 403.65 169.48 402.24 167.90 C 402.93 170.02 403.60 172.15 404.14 174.32 C 401.37 173.61 400.31 170.91 399.25 168.57 C 396.81 168.16 394.38 167.62 392.05 166.76 C 391.89 168.81 391.72 170.85 391.50 172.89 C 388.82 171.14 387.09 168.43 385.58 165.68 C 384.87 165.91 384.16 166.15 383.46 166.40 C 382.49 164.79 381.79 162.89 380.25 161.72 C 378.92 160.76 377.23 161.35 375.74 161.34 C 375.50 162.56 375.25 163.78 375.01 165.00 C 363.11 157.50 347.62 156.40 334.65 161.66 C 326.81 164.89 320.79 171.24 316.05 178.09 C 306.96 192.81 303.27 210.03 300.95 226.97 C 299.35 240.58 299.60 254.31 299.73 267.99 C 300.34 282.47 302.46 296.89 306.02 310.94 C 307.31 316.30 309.50 321.39 311.79 326.38 C 310.37 329.37 308.52 332.16 307.43 335.29 C 306.86 338.19 306.96 341.17 306.78 344.11 C 303.52 342.69 299.92 340.87 296.34 342.38 C 294.94 345.52 293.65 350.61 297.58 352.49 C 299.86 354.40 302.35 358.20 299.40 360.63 C 292.29 354.85 287.20 346.96 283.04 338.89 C 277.66 329.09 274.65 318.26 271.55 307.59 C 263.88 272.97 263.84 236.53 272.29 202.04 C 275.55 191.54 278.83 180.90 284.37 171.33 C 289.46 161.59 296.74 153.12 304.94 145.87 Z" fill="#215582" opacity="1.00" stroke="#215582" stroke-width="0.25"/>
<path d="M 84.74 131.15 C 97.47 130.60 110.22 131.17 122.95 130.95 C 154.62 130.90 186.29 131.01 217.96 130.94 C 221.73 131.04 225.57 130.56 229.29 131.42 C 229.06 139.32 229.15 147.22 229.21 155.11 C 229.61 157.14 227.67 158.30 226.62 159.69 C 207.26 182.37 188.28 205.39 169.05 228.18 C 185.28 228.78 201.81 233.88 214.12 244.80 C 228.15 256.79 236.11 274.83 237.31 293.09 C 238.96 314.86 232.77 337.65 218.35 354.32 C 211.63 362.51 202.87 368.76 193.54 373.65 C 174.31 383.20 152.00 385.77 130.93 382.17 C 111.72 378.56 93.56 369.11 79.97 355.02 C 78.06 352.95 75.84 351.20 74.06 349.01 C 74.88 347.27 76.53 346.13 77.78 344.72 C 84.49 337.61 91.31 330.61 97.89 323.38 C 106.97 334.43 118.06 344.56 131.93 348.99 C 148.14 354.32 167.24 353.58 181.53 343.58 C 193.76 335.19 200.31 320.45 201.39 305.97 C 201.98 295.65 200.99 284.60 195.10 275.78 C 189.20 265.76 178.13 259.97 167.01 257.78 C 153.64 255.30 139.75 257.28 126.97 261.60 C 122.41 256.10 117.80 250.64 113.34 245.05 C 135.85 217.78 158.48 190.62 180.85 163.23 C 178.88 163.06 176.91 162.91 174.93 162.90 C 144.91 162.90 114.88 163.03 84.85 162.88 C 84.69 152.30 84.88 141.72 84.74 131.15 Z" fill="#203f5b" opacity="1.00" stroke="#203f5b" stroke-width="0.25"/>
<path d="M 359.16 130.92 C 359.88 130.85 361.30 130.73 362.02 130.66 C 379.62 132.80 396.09 141.84 407.72 155.18 C 421.78 171.38 429.27 192.22 433.42 213.00 C 436.91 231.44 437.79 250.29 437.13 269.03 C 436.36 268.28 435.60 267.55 434.85 266.81 C 434.73 271.33 434.52 275.99 432.37 280.09 C 431.83 271.32 432.30 262.51 431.42 253.76 C 429.71 258.85 431.19 264.54 429.02 269.45 C 428.59 266.24 428.98 262.84 427.61 259.81 C 427.43 261.41 427.30 263.01 427.23 264.61 C 426.81 269.15 426.55 273.72 425.38 278.15 C 424.68 277.42 423.97 276.70 423.28 275.98 C 422.97 276.54 422.36 277.64 422.06 278.19 C 421.27 270.82 421.40 263.39 421.09 256.00 C 420.71 239.19 417.87 222.58 416.36 205.88 C 418.05 210.39 418.53 215.21 419.28 219.93 C 420.74 230.64 422.10 241.38 422.45 252.19 C 423.61 244.13 422.13 236.03 421.84 227.96 C 421.67 221.91 420.24 215.96 420.35 209.90 C 422.32 219.54 423.72 229.28 425.16 239.00 C 425.04 239.87 424.79 241.60 424.67 242.47 C 425.29 242.45 425.91 242.43 426.54 242.40 C 425.94 230.03 424.38 217.64 421.36 205.61 C 420.23 200.50 416.93 196.23 415.74 191.14 C 413.93 184.39 411.07 177.97 407.57 171.94 C 403.72 165.24 399.05 158.98 393.39 153.69 C 389.81 150.43 386.35 146.87 381.85 144.87 C 384.43 147.32 387.63 149.17 389.54 152.27 C 387.35 151.27 385.30 149.99 383.34 148.61 C 376.81 143.98 369.14 141.10 361.31 139.63 C 359.25 139.24 357.23 138.66 355.30 137.87 C 361.86 136.97 368.04 139.90 374.40 140.94 C 370.69 138.85 366.47 138.06 362.62 136.32 C 365.07 136.42 367.52 136.64 369.96 136.91 C 369.49 136.57 368.54 135.88 368.06 135.54 C 368.71 135.05 369.36 134.56 370.02 134.08 C 366.35 133.22 362.47 132.87 359.16 130.92 Z" fill="#4b84b8" opacity="1.00" stroke="#4b84b8" stroke-width="0.25"/>
<path d="M 86.35 133.10 C 87.90 132.95 89.45 132.80 91.00 132.78 C 136.34 132.89 181.68 132.77 227.02 132.94 C 226.93 140.62 227.56 148.33 226.89 155.98 C 221.65 163.25 215.36 169.75 209.79 176.78 C 195.80 193.21 182.03 209.83 168.28 226.45 C 167.53 227.45 167.09 228.63 166.59 229.76 C 179.20 230.29 192.00 232.80 203.00 239.24 C 222.19 249.99 234.20 271.28 235.34 293.05 C 238.27 322.73 224.14 354.74 197.41 369.23 C 197.69 366.31 200.95 364.90 200.93 361.81 C 204.00 359.99 207.40 358.31 209.05 354.94 C 210.53 352.04 214.16 350.40 214.45 346.95 C 214.87 342.72 217.49 339.20 218.84 335.25 C 220.40 332.04 221.01 328.53 222.00 325.14 C 222.93 324.21 224.31 324.01 225.45 323.42 C 225.29 321.85 224.88 320.27 225.43 318.73 C 226.94 312.95 227.19 306.95 227.00 301.02 C 226.58 297.15 229.49 293.86 228.96 290.00 C 228.67 285.62 227.51 281.33 227.49 276.93 C 225.06 276.42 224.37 273.89 223.38 271.96 L 224.75 272.01 C 222.16 267.28 218.47 263.29 215.84 258.58 C 215.39 258.83 214.49 259.34 214.04 259.59 C 213.79 258.60 213.54 257.61 213.28 256.62 C 209.95 256.02 208.67 252.66 206.51 250.50 C 205.30 249.70 203.93 249.22 202.62 248.64 C 202.85 247.88 203.09 247.13 203.33 246.38 C 202.45 245.46 201.58 244.56 200.70 243.65 C 200.08 243.97 199.46 244.30 198.85 244.63 C 196.80 242.43 194.58 239.67 191.29 239.69 C 188.70 239.47 185.54 240.58 183.60 238.27 C 177.90 237.95 172.45 234.69 166.73 236.12 C 164.36 234.65 162.20 232.79 159.52 231.86 C 160.32 229.08 160.64 225.96 162.64 223.71 C 164.46 221.54 166.26 219.36 167.89 217.03 C 168.85 217.99 169.82 218.94 170.79 219.90 C 172.75 218.00 174.28 215.73 175.13 213.13 C 173.76 214.06 172.41 215.03 171.07 216.00 C 169.87 215.52 168.67 215.04 167.47 214.56 C 169.31 212.85 170.71 210.72 171.53 208.34 C 168.00 210.13 165.94 213.66 162.86 216.02 C 167.12 209.27 173.62 204.13 177.23 196.97 C 170.96 202.05 166.33 208.77 160.73 214.51 C 158.34 215.96 156.05 218.25 153.06 218.12 C 148.98 218.30 145.69 220.97 142.10 222.59 C 139.87 223.63 137.14 223.56 135.23 225.25 C 133.69 226.62 131.92 227.65 130.01 228.39 C 136.60 218.99 144.61 210.61 151.69 201.57 C 161.76 189.64 171.38 177.34 181.60 165.54 C 182.52 164.42 183.31 163.19 184.09 161.98 C 181.84 161.05 179.39 161.01 177.00 161.00 C 148.00 160.96 119.00 161.07 90.00 161.14 C 88.77 161.08 87.54 161.00 86.31 160.89 C 86.43 151.63 86.27 142.37 86.35 133.10 Z" fill="#316595" opacity="1.00" stroke="#316595" stroke-width="0.25"/>
<path d="M 376.76 138.98 C 382.64 140.97 387.89 144.55 392.58 148.56 C 398.47 153.88 404.09 159.75 407.86 166.79 C 403.89 162.23 400.45 157.17 395.94 153.09 C 390.82 148.39 385.20 144.18 379.06 140.93 C 378.19 140.39 377.43 139.74 376.76 138.98 Z" fill="#215582" opacity="1.00" stroke="#215582" stroke-width="0.25"/>
<path d="M 383.57 139.72 C 388.59 140.85 392.37 144.67 396.43 147.58 C 400.70 151.89 405.78 155.77 408.44 161.35 C 404.88 159.81 402.92 156.32 400.39 153.58 C 395.50 148.14 389.26 144.22 383.57 139.72 Z" fill="#2a6397" opacity="1.00" stroke="#2a6397" stroke-width="0.25"/>
<path d="M 334.65 161.66 C 347.62 156.40 363.11 157.50 375.01 165.00 C 383.12 170.77 389.00 179.27 392.82 188.37 C 397.63 198.52 399.48 209.71 401.53 220.67 C 404.50 235.94 404.07 251.56 403.94 267.04 C 403.17 283.57 400.82 300.10 395.97 315.95 C 392.19 326.50 386.91 336.92 378.32 344.40 C 374.42 348.19 369.30 350.24 364.32 352.19 C 354.80 353.91 344.60 354.52 335.51 350.65 C 324.40 346.64 316.81 336.64 311.79 326.38 C 309.50 321.39 307.31 316.30 306.02 310.94 C 302.46 296.89 300.34 282.47 299.73 267.99 C 299.60 254.31 299.35 240.58 300.95 226.97 C 303.27 210.03 306.96 192.81 316.05 178.09 C 320.79 171.24 326.81 164.89 334.65 161.66 Z" fill="#203f5b" opacity="1.00" stroke="#203f5b" stroke-width="0.25"/>
<path d="M 332.08 165.12 C 344.99 157.85 361.97 158.48 374.22 166.88 C 384.02 173.80 390.04 184.79 393.86 195.93 C 400.99 217.12 402.35 239.73 402.16 261.93 C 401.51 279.78 399.95 297.83 394.31 314.89 C 390.63 326.63 384.21 337.96 374.16 345.36 C 363.37 352.61 349.07 353.63 337.00 349.18 C 328.75 346.20 321.97 339.96 317.44 332.55 C 314.99 328.53 312.39 324.45 311.25 319.84 C 311.04 317.76 310.50 315.70 309.16 314.05 C 304.02 298.59 302.37 282.13 301.60 265.91 C 300.99 241.32 302.21 216.07 310.94 192.81 C 315.08 181.85 321.47 170.89 332.08 165.12 Z" fill="#ffffff" opacity="1.00" stroke="#ffffff" stroke-width="0.25"/>
<path d="M 375.74 161.34 C 377.23 161.35 378.92 160.76 380.25 161.72 C 381.79 162.89 382.49 164.79 383.46 166.40 C 384.16 166.15 384.87 165.91 385.58 165.68 C 387.09 168.43 388.82 171.14 391.50 172.89 C 391.72 170.85 391.89 168.81 392.05 166.76 C 394.38 167.62 396.81 168.16 399.25 168.57 C 400.31 170.91 401.37 173.61 404.14 174.32 C 403.60 172.15 402.93 170.02 402.24 167.90 C 403.65 169.48 404.88 171.20 405.99 173.00 C 406.38 172.73 407.18 172.21 407.57 171.94 C 411.07 177.97 413.93 184.39 415.74 191.14 C 416.93 196.23 420.23 200.50 421.36 205.61 C 424.38 217.64 425.94 230.03 426.54 242.40 C 425.91 242.43 425.29 242.45 424.67 242.47 C 424.79 241.60 425.04 239.87 425.16 239.00 C 423.72 229.28 422.32 219.54 420.35 209.90 C 420.24 215.96 421.67 221.91 421.84 227.96 C 422.13 236.03 423.61 244.13 422.45 252.19 C 422.10 241.38 420.74 230.64 419.28 219.93 C 418.53 215.21 418.05 210.39 416.36 205.88 C 417.87 222.58 420.71 239.19 421.09 256.00 C 421.40 263.39 421.27 270.82 422.06 278.19 C 422.36 277.64 422.97 276.54 423.28 275.98 C 423.97 276.70 424.68 277.42 425.38 278.15 C 426.55 273.72 426.81 269.15 427.23 264.61 C 427.60 267.43 427.81 270.25 428.11 273.08 C 428.41 275.79 429.86 278.25 430.02 281.00 C 430.29 285.93 428.77 290.69 427.48 295.38 C 426.44 295.77 425.41 296.16 424.39 296.57 C 424.11 301.71 421.88 306.45 421.50 311.59 C 418.15 319.60 415.05 327.73 411.91 335.84 C 410.49 339.76 406.63 341.97 404.55 345.47 C 401.82 350.27 397.37 353.66 393.62 357.60 C 387.88 362.22 381.59 366.43 377.46 372.69 C 378.04 374.14 379.53 374.95 380.62 375.98 C 379.44 376.67 378.28 377.42 376.96 377.83 C 364.61 381.64 351.24 383.52 338.51 380.58 C 346.52 378.10 355.25 380.54 363.10 377.41 C 361.97 377.42 359.71 377.44 358.57 377.45 C 358.56 376.84 358.56 376.23 358.58 375.62 C 363.56 376.78 366.49 371.92 370.92 370.96 C 372.56 370.45 374.20 369.97 375.84 369.45 C 375.40 368.65 374.97 367.86 374.54 367.06 C 376.52 365.06 378.37 362.93 380.05 360.67 C 373.18 358.22 365.69 359.03 358.51 358.57 C 358.42 357.24 358.34 355.91 358.26 354.59 C 360.29 353.82 362.31 353.02 364.32 352.19 C 369.30 350.24 374.42 348.19 378.32 344.40 C 386.91 336.92 392.19 326.50 395.97 315.95 C 400.82 300.10 403.17 283.57 403.94 267.04 C 404.07 251.56 404.50 235.94 401.53 220.67 C 399.48 209.71 397.63 198.52 392.82 188.37 C 389.00 179.27 383.12 170.77 375.01 165.00 C 375.25 163.78 375.50 162.56 375.74 161.34 Z" fill="#2a5e8e" opacity="1.00" stroke="#2a5e8e" stroke-width="0.25"/>
<path d="M 412.95 165.99 C 415.48 169.83 418.40 173.47 420.29 177.70 C 424.16 186.70 426.53 196.22 428.67 205.75 C 428.40 206.03 427.87 206.60 427.60 206.88 C 425.43 194.81 421.39 183.07 415.94 172.10 C 415.23 169.97 411.77 168.41 412.95 165.99 Z" fill="#2a5e8e" opacity="1.00" stroke="#2a5e8e" stroke-width="0.25"/>
<path d="M 174.65 185.83 C 177.79 182.29 180.50 178.28 184.36 175.46 C 181.69 182.70 174.63 187.16 170.93 193.82 C 172.57 192.48 174.06 190.95 175.82 189.75 C 177.49 189.16 179.30 189.19 181.04 189.02 C 177.83 193.71 173.71 197.67 169.92 201.89 C 165.65 206.31 161.95 211.34 157.00 215.06 C 156.91 214.56 156.74 213.56 156.65 213.06 C 159.26 210.51 162.16 208.23 164.31 205.23 C 163.73 205.18 162.57 205.08 162.00 205.03 C 161.97 204.48 161.91 203.38 161.88 202.83 C 160.83 203.75 159.78 204.67 158.73 205.60 C 158.51 205.19 158.08 204.37 157.86 203.96 C 163.33 197.80 169.42 192.20 174.65 185.83 Z" fill="#427caf" opacity="1.00" stroke="#427caf" stroke-width="0.25"/>
<path d="M 160.73 214.51 C 166.33 208.77 170.96 202.05 177.23 196.97 C 173.62 204.13 167.12 209.27 162.86 216.02 C 165.94 213.66 168.00 210.13 171.53 208.34 C 170.71 210.72 169.31 212.85 167.47 214.56 C 164.08 217.55 161.78 221.62 158.02 224.19 C 158.18 221.46 160.25 219.63 162.05 217.84 C 161.61 216.73 161.17 215.62 160.73 214.51 Z" fill="#4a83b6" opacity="1.00" stroke="#4a83b6" stroke-width="0.25"/>
<path d="M 171.07 216.00 C 172.41 215.03 173.76 214.06 175.13 213.13 C 174.28 215.73 172.75 218.00 170.79 219.90 C 169.82 218.94 168.85 217.99 167.89 217.03 C 166.26 219.36 164.46 221.54 162.64 223.71 C 160.64 225.96 160.32 229.08 159.52 231.86 C 162.20 232.79 164.36 234.65 166.73 236.12 C 172.45 234.69 177.90 237.95 183.60 238.27 C 185.54 240.58 188.70 239.47 191.29 239.69 C 194.58 239.67 196.80 242.43 198.85 244.63 C 199.46 244.30 200.08 243.97 200.70 243.65 C 201.58 244.56 202.45 245.46 203.33 246.38 C 203.09 247.13 202.85 247.88 202.62 248.64 C 203.93 249.22 205.30 249.70 206.51 250.50 C 208.67 252.66 209.95 256.02 213.28 256.62 C 213.54 257.61 213.79 258.60 214.04 259.59 C 214.49 259.34 215.39 258.83 215.84 258.58 C 218.47 263.29 222.16 267.28 224.75 272.01 L 223.38 271.96 C 224.37 273.89 225.06 276.42 227.49 276.93 C 227.51 281.33 228.67 285.62 228.96 290.00 C 229.49 293.86 226.58 297.15 227.00 301.02 C 227.19 306.95 226.94 312.95 225.43 318.73 C 224.88 320.27 225.29 321.85 225.45 323.42 C 224.31 324.01 222.93 324.21 222.00 325.14 C 221.01 328.53 220.40 332.04 218.84 335.25 C 217.49 339.20 214.87 342.72 214.45 346.95 C 214.16 350.40 210.53 352.04 209.05 354.94 C 207.40 358.31 204.00 359.99 200.93 361.81 C 200.95 364.90 197.69 366.31 197.41 369.23 C 187.69 375.53 176.31 378.50 165.08 380.74 C 162.90 381.12 160.67 381.31 158.49 380.83 C 161.11 377.83 165.35 377.88 168.86 376.65 C 175.45 374.49 182.47 373.58 188.73 370.47 C 192.44 367.31 196.38 364.28 199.03 360.10 C 208.31 348.83 217.95 336.78 220.72 322.06 C 221.47 317.65 223.77 313.55 223.59 309.00 C 223.51 304.90 223.94 300.76 223.31 296.70 C 222.47 295.68 221.47 294.81 220.51 293.92 C 220.00 297.38 221.16 301.37 219.19 304.45 C 218.55 295.69 217.78 286.88 215.49 278.36 C 214.11 273.34 210.11 269.59 208.61 264.63 C 207.80 262.19 207.45 259.35 205.19 257.75 C 200.14 253.56 194.70 249.58 188.42 247.46 C 182.46 245.31 176.72 242.24 170.31 241.69 C 163.16 240.63 156.09 242.79 148.96 242.61 C 144.90 241.72 142.86 237.46 142.01 233.75 C 141.06 231.31 143.11 229.17 143.92 227.01 C 140.18 227.82 136.63 229.60 132.73 229.58 C 132.48 230.18 132.23 230.78 131.99 231.39 C 130.62 230.99 129.24 230.59 127.88 230.18 C 128.56 229.56 129.12 228.74 130.01 228.39 C 131.92 227.65 133.69 226.62 135.23 225.25 C 137.14 223.56 139.87 223.63 142.10 222.59 C 145.69 220.97 148.98 218.30 153.06 218.12 C 156.05 218.25 158.34 215.96 160.73 214.51 C 161.17 215.62 161.61 216.73 162.05 217.84 C 160.25 219.63 158.18 221.46 158.02 224.19 C 161.78 221.62 164.08 217.55 167.47 214.56 C 168.67 215.04 169.87 215.52 171.07 216.00 Z" fill="#3a6fa0" opacity="1.00" stroke="#3a6fa0" stroke-width="0.25"/>
<path d="M 413.59 215.12 C 413.80 214.88 414.21 214.40 414.41 214.16 C 417.23 229.65 419.59 245.28 420.05 261.04 C 419.57 267.37 420.63 273.75 419.51 280.04 C 418.52 258.35 417.27 236.56 413.59 215.12 Z" fill="#4e89b8" opacity="1.00" stroke="#4e89b8" stroke-width="0.25"/>
<path d="M 132.73 229.58 C 136.63 229.60 140.18 227.82 143.92 227.01 C 143.11 229.17 141.06 231.31 142.01 233.75 C 142.86 237.46 144.90 241.72 148.96 242.61 C 156.09 242.79 163.16 240.63 170.31 241.69 C 176.72 242.24 182.46 245.31 188.42 247.46 C 194.70 249.58 200.14 253.56 205.19 257.75 C 207.45 259.35 207.80 262.19 208.61 264.63 C 210.11 269.59 214.11 273.34 215.49 278.36 C 217.78 286.88 218.55 295.69 219.19 304.45 C 221.16 301.37 220.00 297.38 220.51 293.92 C 221.47 294.81 222.47 295.68 223.31 296.70 C 223.94 300.76 223.51 304.90 223.59 309.00 C 223.77 313.55 221.47 317.65 220.72 322.06 C 217.95 336.78 208.31 348.83 199.03 360.10 C 196.38 364.28 192.44 367.31 188.73 370.47 C 182.47 373.58 175.45 374.49 168.86 376.65 C 165.35 377.88 161.11 377.83 158.49 380.83 L 157.91 381.36 C 138.07 383.08 117.56 379.01 100.39 368.73 C 91.21 363.72 83.82 356.20 76.52 348.85 C 78.78 345.93 81.90 343.73 83.79 340.52 C 93.21 350.70 104.71 359.06 117.71 364.04 C 122.37 366.84 128.07 366.79 132.81 369.24 C 133.75 369.00 135.64 368.51 136.59 368.27 C 127.12 368.42 118.40 364.07 110.05 360.09 C 102.15 356.14 94.99 350.77 88.60 344.69 C 87.77 343.34 84.83 341.78 87.61 340.22 C 87.01 340.11 85.82 339.89 85.23 339.77 C 89.41 335.19 93.64 330.65 97.83 326.07 C 108.51 339.66 123.60 350.63 141.03 353.15 C 156.40 355.78 173.50 353.08 185.58 342.65 C 196.48 333.74 202.09 319.79 203.20 306.02 C 203.24 298.68 203.47 291.17 201.01 284.15 C 197.54 271.67 186.93 262.12 174.92 257.95 C 160.60 253.19 144.93 254.34 130.62 258.52 C 129.48 258.78 128.34 258.99 127.19 259.16 C 123.71 254.21 119.41 249.92 115.80 245.06 C 119.73 240.02 124.11 235.34 127.88 230.18 C 129.24 230.59 130.62 230.99 131.99 231.39 C 132.23 230.78 132.48 230.18 132.73 229.58 Z" fill="#4d85ba" opacity="1.00" stroke="#4d85ba" stroke-width="0.25"/>
<path d="M 289.52 232.30 C 289.78 232.29 290.29 232.28 290.55 232.27 C 289.82 248.27 288.76 264.46 291.63 280.32 C 293.46 290.56 295.47 300.78 296.90 311.08 C 296.43 310.30 295.97 309.52 295.51 308.74 C 295.19 308.63 294.56 308.41 294.24 308.30 C 292.81 303.34 291.55 298.33 290.67 293.24 C 288.57 276.95 286.77 260.44 288.41 244.02 C 288.88 240.12 289.41 236.22 289.52 232.30 Z" fill="#4e89b8" opacity="1.00" stroke="#4e89b8" stroke-width="0.25"/>
<path d="M 285.50 241.03 C 285.78 247.68 285.68 254.34 285.71 261.00 C 286.12 276.38 288.06 291.71 291.34 306.73 C 292.26 312.29 294.06 317.64 296.01 322.91 C 297.01 325.60 298.55 328.14 298.82 331.06 C 296.18 329.54 295.77 326.16 294.48 323.65 C 292.13 318.85 291.59 313.30 288.47 308.89 C 286.97 304.33 287.95 299.45 287.22 294.78 C 286.08 288.19 285.59 281.52 284.71 274.89 C 283.46 264.99 284.08 255.00 284.61 245.08 C 284.72 243.69 285.14 242.36 285.50 241.03 Z" fill="#497fae" opacity="1.00" stroke="#497fae" stroke-width="0.25"/>
<path d="M 431.42 253.76 C 432.30 262.51 431.83 271.32 432.37 280.09 C 434.52 275.99 434.73 271.33 434.85 266.81 C 435.60 267.55 436.36 268.28 437.13 269.03 C 437.12 276.44 435.75 283.74 434.89 291.08 C 432.73 309.49 427.06 327.59 417.69 343.61 C 410.66 355.49 400.94 366.08 388.66 372.62 C 386.05 373.86 383.65 375.95 380.62 375.98 C 379.53 374.95 378.04 374.14 377.46 372.69 C 381.59 366.43 387.88 362.22 393.62 357.60 C 397.37 353.66 401.82 350.27 404.55 345.47 C 406.63 341.97 410.49 339.76 411.91 335.84 C 415.05 327.73 418.15 319.60 421.50 311.59 C 421.88 306.45 424.11 301.71 424.39 296.57 C 425.41 296.16 426.44 295.77 427.48 295.38 C 428.77 290.69 430.29 285.93 430.02 281.00 C 429.86 278.25 428.41 275.79 428.11 273.08 C 427.81 270.25 427.60 267.43 427.23 264.61 C 427.30 263.01 427.43 261.41 427.61 259.81 C 428.98 262.84 428.59 266.24 429.02 269.45 C 431.19 264.54 429.71 258.85 431.42 253.76 Z" fill="#306595" opacity="1.00" stroke="#306595" stroke-width="0.25"/>
<path d="M 288.85 319.26 C 281.76 298.97 279.11 277.20 280.52 255.79 C 281.45 263.51 281.22 271.31 281.98 279.04 C 283.42 291.99 285.31 304.99 289.33 317.41 C 289.21 317.87 288.97 318.80 288.85 319.26 Z" fill="#4e89b8" opacity="1.00" stroke="#4e89b8" stroke-width="0.25"/>
<path d="M 279.13 298.74 C 280.35 300.24 281.02 302.04 281.35 303.94 C 283.09 312.59 285.86 320.99 288.69 329.33 C 289.32 330.54 289.09 331.80 288.58 333.00 C 283.30 322.31 280.56 310.50 279.13 298.74 Z" fill="#4175a4" opacity="1.00" stroke="#4175a4" stroke-width="0.25"/>
<path d="M 309.16 314.05 C 310.50 315.70 311.04 317.76 311.25 319.84 C 309.21 319.57 308.44 315.80 309.16 314.05 Z" fill="#7893a6" opacity="1.00" stroke="#7893a6" stroke-width="0.25"/>
<path d="M 307.43 335.29 C 308.52 332.16 310.37 329.37 311.79 326.38 C 316.81 336.64 324.40 346.64 335.51 350.65 C 344.60 354.52 354.80 353.91 364.32 352.19 C 362.31 353.02 360.29 353.82 358.26 354.59 C 358.34 355.91 358.42 357.24 358.51 358.57 C 365.69 359.03 373.18 358.22 380.05 360.67 C 378.37 362.93 376.52 365.06 374.54 367.06 C 374.97 367.86 375.40 368.65 375.84 369.45 C 374.20 369.97 372.56 370.45 370.92 370.96 C 366.49 371.92 363.56 376.78 358.58 375.62 C 358.56 376.23 358.56 376.84 358.57 377.45 C 359.71 377.44 361.97 377.42 363.10 377.41 C 355.25 380.54 346.52 378.10 338.51 380.58 C 323.76 378.80 309.87 371.20 299.15 360.97 L 299.40 360.63 C 302.35 358.20 299.86 354.40 297.58 352.49 C 293.65 350.61 294.94 345.52 296.34 342.38 C 299.92 340.87 303.52 342.69 306.78 344.11 C 306.96 341.17 306.86 338.19 307.43 335.29 Z" fill="#255887" opacity="1.00" stroke="#255887" stroke-width="0.25"/>
<path d="M 92.98 345.00 C 94.39 344.87 95.75 345.25 96.82 346.20 C 104.37 352.16 112.79 357.23 122.00 360.18 C 124.21 361.07 126.99 361.28 128.47 363.38 C 121.67 362.62 115.39 359.68 109.34 356.67 C 103.38 353.58 97.66 349.84 92.98 345.00 Z" fill="#356ca1" opacity="1.00" stroke="#356ca1" stroke-width="0.25"/>
</svg>