<svg xmlns="http://www.w3.org/2000/svg" height="512pt" version="1.1" viewBox="0 0 512 512" width="512pt">
<path d="M 0.00 0.00 L 512.00 0.00 L 512.00 512.00 L 0.00 512.00 L 0.00 0.00 Z" fill="transparent" opacity="1.00" stroke="transparent" stroke-width="0.25" data-index="0" style="opacity: 1;"></path>
<path d="M 187.49 39.64 C 192.57 38.27 197.80 37.51 202.90 36.15 C 203.39 36.45 204.38 37.05 204.87 37.35 C 207.00 37.19 209.14 37.08 211.28 37.07 C 211.37 37.77 211.54 39.17 211.62 39.88 C 208.38 42.37 204.49 43.72 200.52 44.51 C 204.13 47.57 208.28 50.30 210.71 54.47 C 209.46 55.29 208.02 56.36 206.45 55.48 C 206.40 56.60 207.26 58.85 205.60 59.22 C 199.37 60.52 193.45 62.99 187.21 64.25 C 186.05 79.49 186.88 94.79 187.89 110.01 C 187.88 112.14 189.65 113.60 190.68 115.29 C 193.95 119.70 196.78 124.50 200.43 128.61 C 205.28 131.83 208.66 136.94 213.99 139.47 C 218.96 140.83 224.20 141.08 229.33 140.72 C 229.67 138.86 229.51 136.81 230.46 135.13 C 232.38 135.32 234.30 135.47 236.24 135.62 C 234.72 135.92 233.18 136.11 231.65 136.31 C 231.20 139.58 230.66 142.84 230.10 146.10 C 233.53 146.46 236.86 145.52 239.95 144.11 C 239.97 141.46 240.01 138.81 240.08 136.16 C 245.53 135.30 251.75 134.69 255.16 129.70 C 253.64 129.20 252.12 128.71 250.60 128.23 C 250.30 127.55 249.69 126.20 249.39 125.53 C 251.36 126.26 253.33 127.01 255.32 127.75 C 255.93 126.28 256.55 124.81 257.17 123.34 C 257.87 123.31 259.28 123.24 259.99 123.21 C 257.89 119.04 256.98 114.43 256.71 109.80 C 257.19 110.11 258.16 110.72 258.65 111.02 L 259.15 111.35 C 258.36 115.89 260.63 119.89 262.21 123.93 C 261.22 125.24 259.58 125.32 258.12 125.62 C 256.96 128.69 256.07 132.20 253.28 134.25 C 250.02 136.67 245.85 136.86 242.02 137.69 C 241.90 138.35 241.65 139.69 241.53 140.36 C 248.75 140.83 256.06 141.12 263.06 143.09 C 271.61 144.97 279.80 148.14 288.36 149.94 C 288.49 150.47 288.74 151.53 288.87 152.06 C 298.41 154.47 308.10 156.75 317.90 157.62 C 333.13 149.35 347.67 139.76 360.94 128.60 C 361.80 120.92 364.98 113.72 369.17 107.32 C 372.63 105.65 376.35 104.51 379.91 103.02 C 380.42 103.09 381.45 103.23 381.96 103.29 C 383.38 102.56 384.81 100.93 386.50 102.05 C 386.63 102.75 386.88 104.14 387.00 104.84 C 385.05 106.84 383.15 109.01 382.48 111.81 C 383.93 113.60 385.22 115.56 386.98 117.08 C 389.31 116.18 391.41 113.60 394.12 114.69 C 395.47 117.44 392.33 119.14 390.94 121.03 C 388.48 123.30 387.92 127.37 384.48 128.54 C 379.69 130.64 375.00 133.00 370.58 135.81 C 359.78 149.14 348.60 162.77 333.58 171.56 C 329.42 173.78 325.36 176.92 320.47 177.12 C 318.17 176.84 315.90 176.47 313.60 176.27 C 319.22 175.93 324.87 174.73 329.67 171.67 C 344.67 163.63 356.24 150.78 366.62 137.57 C 370.92 131.63 378.51 129.92 384.55 126.39 C 387.42 123.03 389.59 119.08 392.68 115.87 C 389.77 117.51 387.35 119.79 385.08 122.19 C 382.21 125.54 377.24 124.50 373.58 126.48 C 373.40 126.12 373.06 125.40 372.88 125.04 C 374.16 122.53 375.64 119.92 378.73 119.51 C 379.15 118.99 379.99 117.97 380.41 117.46 C 378.49 118.01 376.57 118.57 374.66 119.13 C 374.60 118.52 374.47 117.29 374.41 116.68 C 376.79 116.25 379.09 115.45 381.42 114.81 C 382.56 116.73 383.62 118.69 384.62 120.69 C 384.60 119.93 384.55 118.40 384.53 117.64 C 383.52 116.50 382.52 115.36 381.53 114.21 C 379.42 114.50 377.33 114.92 375.30 115.55 C 374.47 114.97 373.66 114.38 372.85 113.78 C 375.24 112.71 377.70 111.79 380.22 111.04 C 380.63 110.50 381.05 109.96 381.47 109.41 C 378.32 110.71 375.15 111.93 372.12 113.46 C 371.83 113.08 371.26 112.31 370.98 111.92 C 374.07 109.27 377.70 107.37 380.85 104.80 C 377.30 106.23 373.29 106.97 370.20 109.29 C 365.91 115.26 363.51 122.45 362.51 129.70 C 348.67 141.03 333.92 151.46 317.92 159.48 C 307.68 158.52 297.54 156.28 287.58 153.68 C 286.94 155.01 286.29 156.34 285.65 157.68 L 283.03 157.84 C 284.07 155.79 285.00 153.70 285.95 151.62 C 276.18 149.08 266.69 145.20 256.62 144.01 C 255.74 146.12 254.85 148.21 253.98 150.32 C 250.22 157.30 248.87 165.57 250.75 173.31 C 251.53 176.08 253.26 178.93 256.10 179.90 C 258.10 180.22 259.95 178.99 261.82 178.45 C 261.68 177.26 261.54 176.07 261.40 174.88 C 261.82 174.32 262.67 173.19 263.09 172.63 C 263.83 181.32 265.71 189.84 267.13 198.43 C 266.78 198.49 266.06 198.59 265.70 198.64 C 251.95 199.51 238.19 200.31 224.43 200.91 L 222.77 199.41 C 236.97 197.76 251.36 198.36 265.54 196.52 C 264.71 195.34 263.58 194.50 262.06 194.87 C 254.34 195.41 246.61 195.87 238.87 195.84 L 238.79 194.24 C 247.26 193.78 255.73 193.46 264.20 192.92 C 263.47 188.78 262.76 184.63 262.17 180.47 C 259.38 181.23 255.98 182.83 253.46 180.57 C 248.27 176.79 248.14 169.70 248.35 163.90 C 248.44 156.51 252.06 149.90 254.99 143.32 C 252.58 143.04 250.18 142.78 247.77 142.55 C 243.30 149.27 235.04 152.72 227.14 152.57 C 224.19 152.46 222.50 149.86 221.56 147.38 C 222.05 145.49 222.51 143.58 222.88 141.66 C 216.47 149.53 213.22 159.39 210.70 169.08 C 209.60 170.07 208.44 171.00 207.30 171.95 C 202.80 168.23 199.37 163.46 195.37 159.24 L 195.97 157.28 C 200.22 161.50 203.92 166.24 208.28 170.36 C 210.48 160.59 214.44 151.37 219.27 142.62 C 212.71 142.39 207.91 137.86 203.17 133.92 C 202.53 135.31 201.89 136.69 201.28 138.09 C 201.16 137.40 200.91 136.03 200.79 135.34 C 199.91 135.43 199.05 135.52 198.18 135.60 C 199.26 134.03 200.29 132.43 201.27 130.80 C 199.27 131.59 197.27 132.40 195.41 133.50 C 179.53 143.59 166.98 158.41 158.51 175.14 C 157.36 176.77 156.20 178.41 154.77 179.81 C 146.28 187.87 137.36 195.54 127.58 202.00 C 129.46 208.06 131.13 214.61 135.86 219.17 C 142.77 225.94 152.73 228.38 162.15 228.48 C 168.64 217.37 174.20 205.70 178.49 193.56 C 183.46 180.10 184.54 165.55 189.72 152.15 C 190.40 152.99 191.05 153.84 191.69 154.72 C 191.35 154.97 190.68 155.46 190.34 155.71 C 187.32 165.99 185.33 176.53 182.69 186.91 C 178.23 202.28 171.05 216.68 163.31 230.62 C 152.59 230.38 140.94 227.84 133.54 219.48 C 128.83 214.67 127.69 207.83 125.43 201.76 C 126.24 200.37 127.78 199.65 129.01 198.68 C 137.60 192.90 145.29 185.95 152.91 178.98 C 157.52 174.35 159.95 168.12 163.58 162.78 C 168.69 155.14 174.49 147.91 181.46 141.88 C 176.13 133.08 170.34 124.17 168.01 114.02 C 166.65 97.54 170.20 81.14 174.22 65.25 C 175.86 57.78 180.41 51.46 183.51 44.57 C 184.52 42.74 185.11 40.11 187.49 39.64 Z" fill="#3c353a" opacity="1.00" stroke="#3c353a" stroke-width="0.25" data-index="1" style="opacity: 1; visibility: visible;"></path>
<path d="M 187.23 41.49 C 190.79 40.65 194.36 39.93 198.00 39.44 C 196.61 40.37 193.84 42.23 192.45 43.17 C 195.48 42.96 198.46 42.44 201.47 42.03 C 199.05 43.22 196.55 44.21 194.08 45.27 C 199.24 46.23 204.39 48.59 206.95 53.48 C 203.56 51.27 200.46 48.57 196.66 47.04 C 196.45 48.87 195.36 50.27 193.74 51.08 C 193.34 51.88 192.94 52.69 192.54 53.50 C 191.35 53.94 190.15 54.38 188.96 54.83 C 191.27 55.65 193.48 56.95 195.94 57.23 C 199.02 56.95 202.44 55.37 205.20 57.48 C 198.40 58.66 192.00 61.35 185.36 63.16 C 184.34 79.38 184.88 95.67 186.21 111.85 C 190.15 117.86 194.42 123.70 198.54 129.60 C 192.84 132.43 187.91 136.50 182.91 140.38 C 177.55 132.14 172.30 123.52 169.81 113.92 C 168.75 100.51 171.00 87.05 174.01 74.00 C 175.31 68.51 175.96 62.73 178.80 57.75 C 181.78 52.42 184.03 46.71 187.23 41.49 Z" fill="#d2917b" opacity="1.00" stroke="#d2917b" stroke-width="0.25" data-index="2" style="opacity: 1;"></path>
<path d="M 197.15 50.12 C 197.50 50.13 198.18 50.15 198.52 50.16 L 198.32 51.09 L 197.38 51.41 C 197.33 51.09 197.21 50.45 197.15 50.12 Z" fill="#a3a8b1" opacity="1.00" stroke="#a3a8b1" stroke-width="0.25" data-index="3"></path>
<path d="M 200.66 51.48 C 202.08 52.56 203.51 53.64 204.93 54.72 C 201.71 54.39 198.52 54.80 195.38 55.49 C 193.25 55.27 194.69 53.48 195.04 52.27 C 197.02 53.12 199.52 54.01 200.66 51.48 Z" fill="#ffffff" opacity="1.00" stroke="#ffffff" stroke-width="0.25" data-index="4"></path>
<path d="M 219.03 102.80 C 221.83 94.86 229.35 88.42 237.99 88.40 C 241.22 87.93 244.01 89.90 247.11 90.30 C 255.79 90.99 262.31 99.76 262.47 108.08 C 262.83 110.24 260.09 110.47 258.65 111.02 C 258.16 110.72 257.19 110.11 256.71 109.80 C 255.26 109.04 253.73 108.34 252.08 108.22 C 250.21 109.33 248.52 110.81 247.25 112.58 C 245.79 116.20 245.61 120.93 241.90 123.15 C 239.79 123.00 237.73 122.48 235.66 122.07 C 236.02 123.12 236.38 124.17 236.74 125.22 C 238.18 125.72 239.62 126.21 241.07 126.70 C 239.64 129.77 238.24 132.87 236.24 135.62 C 234.30 135.47 232.38 135.32 230.46 135.13 C 226.15 133.07 223.14 129.15 220.65 125.21 C 219.51 122.25 218.67 119.17 218.28 116.02 C 215.82 120.30 209.23 120.52 206.20 116.77 C 201.33 111.54 204.03 101.69 210.89 99.70 C 214.04 98.77 216.89 100.70 219.03 102.80 Z" fill="#072a48" opacity="1.00" stroke="#072a48" stroke-width="0.25" data-index="5" style="opacity: 1;"></path>
<path d="M 380.36 107.67 C 382.00 106.28 383.54 104.76 385.15 103.32 C 384.21 104.73 383.22 106.09 382.23 107.46 C 381.76 107.51 380.83 107.62 380.36 107.67 Z" fill="#ffffff" opacity="1.00" stroke="#ffffff" stroke-width="0.25" data-index="6" style="opacity: 1; visibility: visible; fill: rgb(209, 144, 122); stroke: rgb(209, 144, 122);"></path>
<path d="M 370.20 109.29 C 373.29 106.97 377.30 106.23 380.85 104.80 C 377.70 107.37 374.07 109.27 370.98 111.92 C 371.26 112.31 371.83 113.08 372.12 113.46 C 372.68 114.49 373.15 115.56 373.69 116.61 L 374.41 116.68 C 374.47 117.29 374.60 118.52 374.66 119.13 C 376.57 118.57 378.49 118.01 380.41 117.46 C 379.99 117.97 379.15 118.99 378.73 119.51 C 375.64 119.92 374.16 122.53 372.88 125.04 C 373.06 125.40 373.40 126.12 373.58 126.48 C 377.24 124.50 382.21 125.54 385.08 122.19 C 387.35 119.79 389.77 117.51 392.68 115.87 C 389.59 119.08 387.42 123.03 384.55 126.39 C 378.51 129.92 370.92 131.63 366.62 137.57 C 356.24 150.78 344.67 163.63 329.67 171.67 C 324.87 174.73 319.22 175.93 313.60 176.27 C 302.99 176.79 292.49 174.93 282.17 172.67 C 283.12 167.63 284.27 162.62 285.65 157.68 C 286.29 156.34 286.94 155.01 287.58 153.68 C 297.54 156.28 307.68 158.52 317.92 159.48 C 333.92 151.46 348.67 141.03 362.51 129.70 C 363.51 122.45 365.91 115.26 370.20 109.29 Z" fill="#d1907a" opacity="1.00" stroke="#d1907a" stroke-width="0.25" data-index="7" style="opacity: 1;"></path>
<path d="M 247.25 112.58 C 248.52 110.81 250.21 109.33 252.08 108.22 C 253.73 108.34 255.26 109.04 256.71 109.80 C 256.98 114.43 257.89 119.04 259.99 123.21 C 259.28 123.24 257.87 123.31 257.17 123.34 C 256.55 124.81 255.93 126.28 255.32 127.75 C 253.33 127.01 251.36 126.26 249.39 125.53 C 249.69 126.20 250.30 127.55 250.60 128.23 C 252.12 128.71 253.64 129.20 255.16 129.70 C 251.75 134.69 245.53 135.30 240.08 136.16 C 240.01 138.81 239.97 141.46 239.95 144.11 C 236.86 145.52 233.53 146.46 230.10 146.10 C 230.66 142.84 231.20 139.58 231.65 136.31 C 233.18 136.11 234.72 135.92 236.24 135.62 C 238.24 132.87 239.64 129.77 241.07 126.70 C 239.62 126.21 238.18 125.72 236.74 125.22 C 236.38 124.17 236.02 123.12 235.66 122.07 C 237.73 122.48 239.79 123.00 241.90 123.15 C 245.61 120.93 245.79 116.20 247.25 112.58 Z" fill="#cf907b" opacity="1.00" stroke="#cf907b" stroke-width="0.25" data-index="8"></path>
<path d="M 372.12 113.46 C 375.15 111.93 378.32 110.71 381.47 109.41 C 381.05 109.96 380.63 110.50 380.22 111.04 C 377.70 111.79 375.24 112.71 372.85 113.78 C 373.66 114.38 374.47 114.97 375.30 115.55 C 377.33 114.92 379.42 114.50 381.53 114.21 C 382.52 115.36 383.52 116.50 384.53 117.64 C 384.55 118.40 384.60 119.93 384.62 120.69 C 383.62 118.69 382.56 116.73 381.42 114.81 C 379.09 115.45 376.79 116.25 374.41 116.68 L 373.69 116.61 C 373.15 115.56 372.68 114.49 372.12 113.46 Z" fill="#ffffff" opacity="1.00" stroke="#ffffff" stroke-width="0.25" data-index="9" style="visibility: visible; fill: rgb(209, 144, 122); opacity: 1;"></path>
<path d="M 247.50 113.51 C 249.34 111.28 253.72 109.48 255.92 112.16 C 255.48 112.69 254.61 113.75 254.18 114.28 C 254.66 114.77 255.62 115.75 256.10 116.24 C 255.35 117.16 255.15 119.13 253.57 118.70 C 253.20 117.51 252.86 116.32 252.57 115.11 C 250.98 115.44 249.38 115.69 247.77 115.84 C 249.24 114.76 250.86 113.91 252.51 113.13 C 250.84 113.30 249.17 113.43 247.50 113.51 Z" fill="#2d3236" opacity="1.00" stroke="#2d3236" stroke-width="0.25" data-index="10"></path>
<path d="M 380.30 120.06 C 381.65 118.97 382.90 121.46 381.89 122.43 C 380.55 123.48 379.23 121.03 380.30 120.06 Z" fill="#7d828f" opacity="1.00" stroke="#7d828f" stroke-width="0.25" data-index="11" style="opacity: 1;"></path>

<path d="M 195.41 133.50 C 197.27 132.40 199.27 131.59 201.27 130.80 C 200.29 132.43 199.26 134.03 198.18 135.60 L 197.64 136.39 C 197.45 135.81 197.06 134.64 196.87 134.05 C 185.99 140.77 176.62 149.74 169.08 160.05 C 165.26 164.89 163.03 170.84 158.51 175.14 C 166.98 158.41 179.53 143.59 195.41 133.50 Z" fill="#cba74a" opacity="1.00" stroke="#cba74a" stroke-width="0.25" data-index="13"></path>
<path d="M 169.08 160.05 C 176.62 149.74 185.99 140.77 196.87 134.05 C 197.06 134.64 197.45 135.81 197.64 136.39 C 196.94 137.48 196.22 138.56 195.55 139.67 C 193.71 137.96 192.73 140.95 193.61 142.36 C 192.31 145.62 190.94 148.86 189.72 152.15 C 184.54 165.55 183.46 180.10 178.49 193.56 C 174.20 205.70 168.64 217.37 162.15 228.48 C 152.73 228.38 142.77 225.94 135.86 219.17 C 131.13 214.61 129.46 208.06 127.58 202.00 C 137.36 195.54 146.28 187.87 154.77 179.81 C 156.20 178.41 157.36 176.77 158.51 175.14 C 163.03 170.84 165.26 164.89 169.08 160.05 Z" fill="#ffb120" opacity="1.00" stroke="#ffb120" stroke-width="0.25" data-index="14"></path>
<path d="M 203.17 133.92 C 207.91 137.86 212.71 142.39 219.27 142.62 C 214.44 151.37 210.48 160.59 208.28 170.36 C 203.92 166.24 200.22 161.50 195.97 157.28 C 197.84 150.91 198.58 144.21 201.28 138.09 C 201.89 136.69 202.53 135.31 203.17 133.92 Z" fill="#f25230" opacity="1.00" stroke="#f25230" stroke-width="0.25" data-index="15" style="opacity: 1;"></path>
<path d="M 198.18 135.60 C 199.05 135.52 199.91 135.43 200.79 135.34 C 200.91 136.03 201.16 137.40 201.28 138.09 C 198.58 144.21 197.84 150.91 195.97 157.28 L 195.37 159.24 C 193.99 157.87 192.78 156.33 191.69 154.72 C 191.05 153.84 190.40 152.99 189.72 152.15 C 190.94 148.86 192.31 145.62 193.61 142.36 C 194.37 141.54 195.01 140.65 195.55 139.67 C 196.22 138.56 196.94 137.48 197.64 136.39 L 198.18 135.60 Z" fill="#092a44" opacity="1.00" stroke="#092a44" stroke-width="0.25" data-index="16"></path>
<path d="M 193.61 142.36 C 192.73 140.95 193.71 137.96 195.55 139.67 C 195.01 140.65 194.37 141.54 193.61 142.36 Z" fill="#deb047" opacity="1.00" stroke="#deb047" stroke-width="0.25" data-index="17"></path>
<path d="M 210.70 169.08 C 213.22 159.39 216.47 149.53 222.88 141.66 C 222.51 143.58 222.05 145.49 221.56 147.38 C 222.50 149.86 224.19 152.46 227.14 152.57 C 235.04 152.72 243.30 149.27 247.77 142.55 C 250.18 142.78 252.58 143.04 254.99 143.32 C 252.06 149.90 248.44 156.51 248.35 163.90 C 248.14 169.70 248.27 176.79 253.46 180.57 C 255.98 182.83 259.38 181.23 262.17 180.47 C 262.76 184.63 263.47 188.78 264.20 192.92 C 255.73 193.46 247.26 193.78 238.79 194.24 C 230.03 194.74 221.24 194.60 212.50 195.35 C 209.12 187.05 208.07 177.74 210.70 169.08 Z" fill="#5ba3d5" opacity="1.00" stroke="#5ba3d5" stroke-width="0.25" data-index="18" style="opacity: 1;"></path>
<path d="M 224.33 143.51 C 225.11 143.21 226.66 142.59 227.44 142.28 C 227.85 143.98 228.27 145.69 228.68 147.40 C 231.80 148.18 235.01 148.35 238.21 148.42 C 233.79 149.95 228.75 151.84 224.25 149.49 C 224.26 147.50 224.28 145.51 224.33 143.51 Z" fill="#e95234" opacity="1.00" stroke="#e95234" stroke-width="0.25" data-index="19"></path>
<path d="M 256.62 144.01 C 266.69 145.20 276.18 149.08 285.95 151.62 C 285.00 153.70 284.07 155.79 283.03 157.84 C 279.96 163.01 277.20 168.35 274.46 173.70 C 274.13 173.72 273.47 173.77 273.14 173.79 C 271.72 173.09 270.35 172.32 268.96 171.58 C 266.24 170.15 263.32 169.15 260.40 168.24 C 260.08 171.29 260.08 174.37 260.30 177.43 C 258.13 179.01 254.89 179.10 253.55 176.39 C 248.68 168.28 252.19 158.78 253.98 150.32 C 254.85 148.21 255.74 146.12 256.62 144.01 Z" fill="#f25130" opacity="1.00" stroke="#f25130" stroke-width="0.25" data-index="20"></path>
<path d="M 250.75 173.31 C 248.87 165.57 250.22 157.30 253.98 150.32 C 252.19 158.78 248.68 168.28 253.55 176.39 C 254.89 179.10 258.13 179.01 260.30 177.43 C 260.08 174.37 260.08 171.29 260.40 168.24 C 260.77 170.44 261.10 172.66 261.40 174.88 C 261.54 176.07 261.68 177.26 261.82 178.45 C 259.95 178.99 258.10 180.22 256.10 179.90 C 253.26 178.93 251.53 176.08 250.75 173.31 Z" fill="#bd5a4e" opacity="1.00" stroke="#bd5a4e" stroke-width="0.25" data-index="21"></path>
<path d="M 274.46 173.70 C 277.20 168.35 279.96 163.01 283.03 157.84 L 285.65 157.68 C 284.27 162.62 283.12 167.63 282.17 172.67 C 292.49 174.93 302.99 176.79 313.60 176.27 C 315.90 176.47 318.17 176.84 320.47 177.12 C 305.77 179.63 290.91 176.46 276.64 173.00 C 276.05 174.31 275.48 175.62 274.84 176.90 C 272.92 186.25 271.63 195.74 269.51 205.03 C 273.10 216.18 275.20 227.74 278.30 239.03 C 279.46 242.62 279.27 247.08 282.43 249.68 C 291.21 258.35 300.42 267.03 311.64 272.46 C 311.70 272.81 311.82 273.51 311.88 273.86 C 306.02 278.93 299.30 282.85 292.56 286.63 C 297.18 296.72 301.41 306.98 305.72 317.20 C 325.83 317.22 345.94 317.10 366.04 317.27 C 366.13 318.43 366.22 319.58 366.32 320.74 C 375.62 319.35 384.82 317.30 394.17 316.32 C 396.73 326.67 400.15 336.78 402.82 347.10 L 403.20 347.82 C 405.24 355.97 408.49 363.86 409.63 372.21 C 408.99 372.33 407.72 372.57 407.08 372.69 C 400.24 364.91 393.18 357.32 386.12 349.73 C 383.02 346.36 380.20 342.59 376.51 339.85 C 373.69 339.77 370.88 340.06 368.08 340.23 C 368.15 342.23 368.22 344.24 368.26 346.25 C 357.61 346.18 346.95 346.27 336.32 345.70 C 334.75 345.21 333.22 344.64 331.66 344.15 C 343.31 344.18 354.95 344.54 366.60 344.53 C 365.87 335.96 365.36 327.37 364.25 318.84 C 344.34 318.77 324.42 319.05 304.51 318.74 C 299.91 308.29 295.85 297.62 290.96 287.31 C 288.25 288.45 285.55 289.60 282.81 290.68 C 282.18 290.52 280.92 290.19 280.29 290.03 C 290.74 285.97 300.88 280.75 309.46 273.46 C 292.83 263.99 279.23 249.97 267.70 234.85 C 269.62 222.83 268.71 210.41 265.70 198.64 C 266.06 198.59 266.78 198.49 267.13 198.43 C 267.31 197.98 267.65 197.06 267.83 196.61 C 270.79 189.52 268.20 181.70 269.15 174.28 C 270.48 174.10 271.80 173.94 273.14 173.79 C 273.47 173.77 274.13 173.72 274.46 173.70 Z" fill="#082a48" opacity="1.00" stroke="#082a48" stroke-width="0.25" data-index="22" style="opacity: 1;"></path>
<path d="M 207.30 171.95 C 208.44 171.00 209.60 170.07 210.70 169.08 C 208.07 177.74 209.12 187.05 212.50 195.35 C 221.24 194.60 230.03 194.74 238.79 194.24 L 238.87 195.84 C 230.08 196.22 221.28 196.42 212.49 196.62 C 212.60 197.39 212.82 198.93 212.94 199.70 C 216.21 199.65 219.49 199.55 222.77 199.41 L 224.43 200.91 C 220.71 201.13 216.99 201.28 213.28 201.39 C 212.57 206.93 212.10 212.50 211.64 218.07 C 211.38 219.70 211.56 221.73 210.02 222.79 C 193.01 237.68 173.13 248.74 153.26 259.31 C 163.63 261.38 173.14 266.26 182.22 271.51 C 180.88 271.83 179.54 272.15 178.20 272.47 C 178.17 273.79 178.13 275.12 178.10 276.44 C 175.53 280.12 173.29 284.02 170.56 287.58 C 168.56 288.96 166.92 290.75 165.64 292.80 C 156.27 285.46 149.00 275.02 147.59 262.98 C 148.02 262.00 148.45 261.01 148.88 260.03 C 169.74 248.20 191.48 237.27 209.41 221.08 C 210.27 215.07 210.52 208.99 211.31 202.97 C 211.65 200.64 211.31 198.29 210.60 196.07 C 208.86 190.20 207.16 184.16 207.58 177.98 C 207.64 175.97 208.25 173.85 207.30 171.95 Z" fill="#072b49" opacity="1.00" stroke="#072b49" stroke-width="0.25" data-index="23"></path>
<path d="M 260.40 168.24 C 263.32 169.15 266.24 170.15 268.96 171.58 C 268.67 171.98 268.09 172.79 267.80 173.19 C 266.18 172.63 264.60 172.00 263.01 171.36 C 263.03 171.68 263.07 172.31 263.09 172.63 C 262.67 173.19 261.82 174.32 261.40 174.88 C 261.10 172.66 260.77 170.44 260.40 168.24 Z" fill="#673417" opacity="1.00" stroke="#673417" stroke-width="0.25" data-index="24"></path>
<path d="M 263.01 171.36 C 264.60 172.00 266.18 172.63 267.80 173.19 C 267.57 180.99 267.87 188.80 267.83 196.61 C 267.65 197.06 267.31 197.98 267.13 198.43 C 265.71 189.84 263.83 181.32 263.09 172.63 C 263.07 172.31 263.03 171.68 263.01 171.36 Z" fill="#f6b82e" opacity="1.00" stroke="#f6b82e" stroke-width="0.25" data-index="25"></path>
<path d="M 267.80 173.19 C 268.09 172.79 268.67 171.98 268.96 171.58 C 270.35 172.32 271.72 173.09 273.14 173.79 C 271.80 173.94 270.48 174.10 269.15 174.28 C 268.20 181.70 270.79 189.52 267.83 196.61 C 267.87 188.80 267.57 180.99 267.80 173.19 Z" fill="#26281c" opacity="1.00" stroke="#26281c" stroke-width="0.25" data-index="26"></path>
<path d="M 238.87 195.84 C 246.61 195.87 254.34 195.41 262.06 194.87 C 263.58 194.50 264.71 195.34 265.54 196.52 C 251.36 198.36 236.97 197.76 222.77 199.41 C 219.49 199.55 216.21 199.65 212.94 199.70 C 212.82 198.93 212.60 197.39 212.49 196.62 C 221.28 196.42 230.08 196.22 238.87 195.84 Z" fill="#d75f4b" opacity="1.00" stroke="#d75f4b" stroke-width="0.25" data-index="27"></path>
<path d="M 224.43 200.91 C 238.19 200.31 251.95 199.51 265.70 198.64 C 268.71 210.41 269.62 222.83 267.70 234.85 C 279.23 249.97 292.83 263.99 309.46 273.46 C 300.88 280.75 290.74 285.97 280.29 290.03 C 268.85 293.41 257.00 296.02 245.00 295.34 C 234.50 294.70 224.05 292.58 214.22 288.80 C 202.79 284.56 192.45 278.04 182.22 271.51 C 173.14 266.26 163.63 261.38 153.26 259.31 C 173.13 248.74 193.01 237.68 210.02 222.79 C 211.56 221.73 211.38 219.70 211.64 218.07 C 212.10 212.50 212.57 206.93 213.28 201.39 C 216.99 201.28 220.71 201.13 224.43 200.91 Z" fill="#5ba3d5" opacity="1.00" stroke="#5ba3d5" stroke-width="0.25" data-index="28" style="opacity: 1;"></path>
<path d="M 178.20 272.47 C 179.54 272.15 180.88 271.83 182.22 271.51 C 192.45 278.04 202.79 284.56 214.22 288.80 C 215.11 289.71 215.97 290.67 216.88 291.57 L 215.53 290.93 C 214.56 301.99 213.68 313.05 212.78 324.12 C 212.46 322.41 212.02 320.72 211.65 319.03 C 211.36 316.44 211.93 313.86 212.24 311.30 C 195.48 309.32 178.89 303.43 165.64 292.80 C 166.92 290.75 168.56 288.96 170.56 287.58 C 169.68 289.26 168.84 290.97 168.01 292.67 C 181.10 301.60 196.31 308.28 212.32 308.92 C 212.68 302.62 213.10 296.30 212.81 289.99 C 207.02 287.75 201.29 285.27 195.96 282.05 C 190.74 279.14 185.93 275.53 180.54 272.90 C 179.73 274.08 178.91 275.26 178.10 276.44 C 178.13 275.12 178.17 273.79 178.20 272.47 Z" fill="#2c2032" opacity="1.00" stroke="#2c2032" stroke-width="0.25" data-index="29"></path>
<path d="M 180.54 272.90 C 185.93 275.53 190.74 279.14 195.96 282.05 C 201.29 285.27 207.02 287.75 212.81 289.99 C 213.10 296.30 212.68 302.62 212.32 308.92 C 196.31 308.28 181.10 301.60 168.01 292.67 C 168.84 290.97 169.68 289.26 170.56 287.58 C 173.29 284.02 175.53 280.12 178.10 276.44 C 178.91 275.26 179.73 274.08 180.54 272.90 Z" fill="#f3502f" opacity="1.00" stroke="#f3502f" stroke-width="0.25" data-index="30" style="opacity: 1;"></path>
<path d="M 282.81 290.68 C 285.55 289.60 288.25 288.45 290.96 287.31 C 295.85 297.62 299.91 308.29 304.51 318.74 C 324.42 319.05 344.34 318.77 364.25 318.84 C 365.36 327.37 365.87 335.96 366.60 344.53 C 354.95 344.54 343.31 344.18 331.66 344.15 C 314.48 343.71 297.29 343.43 280.12 342.71 C 270.03 330.81 263.35 316.49 257.00 302.37 C 266.18 299.94 274.84 295.80 282.81 290.68 Z" fill="#5ba3d5" opacity="1.00" stroke="#5ba3d5" stroke-width="0.25" data-index="31" style="opacity: 1;"></path>
<path d="M 214.22 288.80 C 224.05 292.58 234.50 294.70 245.00 295.34 C 257.00 296.02 268.85 293.41 280.29 290.03 C 280.92 290.19 282.18 290.52 282.81 290.68 C 274.84 295.80 266.18 299.94 257.00 302.37 C 263.35 316.49 270.03 330.81 280.12 342.71 C 297.29 343.43 314.48 343.71 331.66 344.15 C 333.22 344.64 334.75 345.21 336.32 345.70 C 319.18 345.69 302.05 345.21 284.92 344.63 C 282.42 344.36 279.29 344.81 277.57 342.53 C 268.70 331.26 262.34 318.30 256.35 305.35 C 254.74 305.80 253.14 306.28 251.52 306.69 C 248.88 316.85 247.20 327.24 244.77 337.46 C 243.10 345.75 240.87 353.92 239.51 362.27 C 237.87 384.41 235.57 406.49 234.18 428.64 C 231.23 428.44 228.31 427.96 225.42 427.37 C 224.46 434.40 223.81 441.47 223.04 448.53 C 222.23 454.80 221.57 461.10 220.73 467.38 C 205.49 467.52 190.25 467.55 175.03 468.21 C 170.22 468.22 165.27 468.93 160.64 467.30 C 169.11 460.66 178.68 455.56 187.62 449.57 C 191.82 446.73 196.36 444.40 200.49 441.46 C 202.87 437.59 202.49 432.53 204.48 428.49 L 205.70 427.31 C 211.99 427.63 218.17 428.95 224.44 429.42 C 223.28 425.40 218.15 426.73 215.01 425.67 L 216.60 424.23 C 221.94 424.92 227.21 426.03 232.53 426.92 C 234.09 406.27 235.71 385.62 237.56 364.99 C 238.06 357.66 240.40 350.64 241.68 343.43 C 244.41 329.51 248.25 315.80 250.19 301.74 C 238.47 300.96 227.27 296.87 216.88 291.57 C 215.97 290.67 215.11 289.71 214.22 288.80 Z" fill="#072b49" opacity="1.00" stroke="#072b49" stroke-width="0.25" data-index="32" style="opacity: 1;"></path>
<path d="M 215.53 290.93 L 216.88 291.57 C 227.27 296.87 238.47 300.96 250.19 301.74 C 248.25 315.80 244.41 329.51 241.68 343.43 C 240.40 350.64 238.06 357.66 237.56 364.99 C 235.71 385.62 234.09 406.27 232.53 426.92 C 227.21 426.03 221.94 424.92 216.60 424.23 C 211.98 423.49 207.37 422.73 202.75 422.07 C 206.58 389.48 210.22 356.84 212.78 324.12 C 213.68 313.05 214.56 301.99 215.53 290.93 Z" fill="#5ba3d5" opacity="1.00" stroke="#5ba3d5" stroke-width="0.25" data-index="33" style="opacity: 1;"></path>
<path d="M 251.48 305.10 C 251.76 302.92 252.18 300.77 252.90 298.70 C 254.21 300.26 255.17 302.06 255.97 303.93 C 254.47 304.33 252.97 304.71 251.48 305.10 Z" fill="#a3635b" opacity="1.00" stroke="#a3635b" stroke-width="0.25" data-index="34"></path>
<path d="M 211.65 319.03 C 212.02 320.72 212.46 322.41 212.78 324.12 C 210.22 356.84 206.58 389.48 202.75 422.07 C 207.37 422.73 211.98 423.49 216.60 424.23 L 215.01 425.67 C 212.31 425.35 209.64 424.87 206.97 424.42 C 206.57 425.39 206.14 426.35 205.70 427.31 L 204.48 428.49 C 204.62 426.97 204.78 425.46 204.96 423.96 C 203.66 423.80 202.36 423.64 201.07 423.49 C 203.88 395.67 207.54 367.94 209.72 340.06 C 210.50 333.06 210.62 326.00 211.65 319.03 Z" fill="#00223f" opacity="1.00" stroke="#00223f" stroke-width="0.25" data-index="35"></path>
<path d="M 205.70 427.31 C 206.14 426.35 206.57 425.39 206.97 424.42 C 209.64 424.87 212.31 425.35 215.01 425.67 C 218.15 426.73 223.28 425.40 224.44 429.42 C 218.17 428.95 211.99 427.63 205.70 427.31 Z" fill="#d5a79c" opacity="1.00" stroke="#d5a79c" stroke-width="0.25" data-index="36"></path>
<path d="M 107.94 456.54 C 134.24 451.89 160.99 450.80 187.62 449.57 C 178.68 455.56 169.11 460.66 160.64 467.30 C 165.27 468.93 170.22 468.22 175.03 468.21 C 190.25 467.55 205.49 467.52 220.73 467.38 C 221.57 461.10 222.23 454.80 223.04 448.53 C 243.38 448.84 263.75 448.11 284.07 449.16 C 313.73 449.91 343.43 450.85 372.88 454.66 C 380.92 455.92 389.24 456.86 396.69 460.33 C 398.68 460.86 399.69 463.59 397.91 464.96 C 394.06 467.22 389.60 468.18 385.29 469.17 C 365.44 473.20 345.14 473.79 325.00 475.35 C 317.82 475.54 310.65 475.78 303.49 476.34 C 274.67 476.59 245.83 478.14 217.01 476.76 C 199.33 476.75 181.66 476.00 164.01 475.14 C 145.21 473.71 126.31 472.70 107.76 469.12 C 102.61 467.84 96.82 467.18 92.97 463.13 C 96.40 458.35 102.68 457.86 107.94 456.54 Z" fill="#5da4d6" opacity="1.00" stroke="#5da4d6" stroke-width="0.25" data-index="37" style="opacity: 1;"></path>
</svg>