<svg xmlns="http://www.w3.org/2000/svg" height="512pt" version="1.1" viewBox="0 0 512 512" width="512pt">

<path d="M 229.62 58.83 C 233.17 53.37 240.04 50.04 246.50 50.58 L 246.44 52.23 C 242.05 56.40 237.27 61.46 237.40 67.94 C 240.57 65.27 244.39 63.44 248.45 62.61 C 261.78 59.87 275.54 60.82 288.90 62.77 C 305.55 65.40 321.78 71.59 335.43 81.55 C 341.45 86.20 346.84 91.67 350.83 98.17 C 359.06 112.52 359.50 129.88 357.61 145.90 C 356.37 157.95 352.78 169.61 349.55 181.18 C 353.41 187.14 353.68 195.45 349.45 201.29 C 345.19 206.48 338.16 208.06 331.73 207.95 C 331.45 208.93 331.16 209.91 330.87 210.89 C 330.59 211.92 330.27 212.94 329.91 213.94 C 327.39 222.48 322.89 230.38 317.10 237.12 C 315.58 238.84 314.04 240.73 311.82 241.54 C 310.93 241.52 309.14 241.49 308.25 241.47 C 316.69 234.31 322.92 224.69 326.41 214.21 C 331.99 197.65 331.44 179.94 332.12 162.71 C 332.01 161.49 330.75 160.91 330.04 160.07 C 322.94 153.73 317.44 145.73 312.91 137.43 C 309.08 137.78 305.69 139.85 301.96 140.68 C 292.21 143.15 282.08 145.11 272.00 143.83 C 255.58 142.08 239.19 135.06 228.35 122.30 C 226.41 126.17 223.00 129.14 221.20 133.04 C 218.82 146.05 215.55 158.88 213.15 171.88 C 210.49 187.10 210.36 203.27 216.28 217.79 C 222.20 232.46 234.30 244.20 248.80 250.39 C 245.28 251.69 242.36 248.89 239.42 247.46 C 236.11 245.75 233.50 242.93 230.10 241.39 C 228.90 240.84 227.56 240.45 226.71 239.37 C 221.49 233.65 216.81 227.35 213.69 220.22 C 212.70 217.85 211.74 215.46 211.10 212.97 C 209.33 207.00 208.38 200.79 208.21 194.57 C 201.38 193.72 194.65 190.21 190.94 184.28 C 188.84 180.58 187.92 176.10 188.89 171.91 C 190.13 165.42 196.05 159.87 202.75 159.60 C 202.26 149.42 201.20 139.22 202.08 129.03 C 202.12 124.55 202.55 120.08 202.53 115.60 C 201.88 116.21 200.58 117.42 199.93 118.03 C 198.12 115.76 198.58 112.73 198.41 110.03 C 198.21 99.84 200.73 88.85 208.22 81.49 C 214.61 74.92 225.46 73.87 233.18 78.67 C 230.55 72.48 228.11 65.62 229.62 58.83 Z" fill="#0b2940" opacity="1.00" stroke="#0b2940" stroke-width="0.25" data-index="1" style="opacity: 1;"></path>
<path d="M 231.48 60.89 C 233.63 57.87 236.61 55.45 240.06 54.07 C 236.77 59.48 232.44 66.08 235.34 72.58 C 235.90 72.69 237.03 72.90 237.59 73.00 C 236.58 75.00 236.45 77.24 237.06 79.39 C 235.96 78.65 235.15 77.59 234.82 76.30 C 233.23 71.28 231.93 66.15 231.48 60.89 Z" fill="#5c4945" opacity="1.00" stroke="#5c4945" stroke-width="0.25" data-index="2"></path>
<path d="M 237.59 73.00 C 240.98 66.63 248.80 65.77 255.15 64.56 C 278.52 62.99 302.75 66.31 323.63 77.41 C 326.75 79.32 329.61 81.63 332.79 83.46 C 343.37 91.32 351.97 102.64 354.02 115.95 C 354.83 123.93 356.32 132.02 354.77 140.02 C 354.02 152.91 350.94 165.54 346.74 177.72 C 343.56 174.86 339.54 173.37 335.39 172.57 C 335.25 168.66 335.28 164.75 335.25 160.85 C 329.18 156.11 324.97 149.64 320.14 143.77 C 317.75 140.79 316.36 137.09 313.76 134.30 C 310.74 133.82 307.97 135.38 305.16 136.19 C 289.70 141.43 272.52 142.59 256.94 137.18 C 246.93 133.49 237.00 128.19 230.43 119.52 C 229.85 118.28 227.74 117.51 227.01 119.04 C 224.63 122.62 222.16 126.13 219.46 129.47 C 216.72 132.85 217.92 137.50 216.51 141.37 C 214.52 147.60 214.00 154.17 212.17 160.43 C 209.87 160.26 207.46 159.97 205.59 158.50 C 205.48 143.02 205.07 127.52 205.63 112.04 C 204.07 112.04 202.75 112.75 201.60 113.74 C 200.86 104.17 202.14 93.92 208.02 86.04 C 212.25 80.89 219.27 77.11 226.00 79.18 C 229.58 79.49 232.46 81.91 235.85 82.69 C 237.77 82.93 237.45 80.54 237.06 79.39 C 236.45 77.24 236.58 75.00 237.59 73.00 Z" fill="#6b453c" opacity="1.00" stroke="#6b453c" stroke-width="0.25" data-index="3"></path>
<path d="M 228.35 122.30 C 239.19 135.06 255.58 142.08 272.00 143.83 C 282.08 145.11 292.21 143.15 301.96 140.68 C 305.69 139.85 309.08 137.78 312.91 137.43 C 317.44 145.73 322.94 153.73 330.04 160.07 C 330.75 160.91 332.01 161.49 332.12 162.71 C 331.44 179.94 331.99 197.65 326.41 214.21 C 322.92 224.69 316.69 234.31 308.25 241.47 C 305.08 244.14 301.62 246.43 298.00 248.42 C 287.67 253.85 275.82 255.82 264.25 254.46 C 258.95 253.73 253.83 252.17 248.80 250.39 C 234.30 244.20 222.20 232.46 216.28 217.79 C 210.36 203.27 210.49 187.10 213.15 171.88 C 215.55 158.88 218.82 146.05 221.20 133.04 C 223.00 129.14 226.41 126.17 228.35 122.30 Z" fill="#ffc5ad" opacity="1.00" stroke="#ffc5ad" stroke-width="0.25" data-index="4" style="opacity: 1;"></path>

<path d="M 400.26 145.31 C 402.27 144.60 404.37 144.32 406.50 144.42 C 406.70 146.01 406.73 147.63 406.46 149.22 C 398.26 150.84 390.14 152.84 381.95 154.52 C 379.84 154.94 377.68 154.72 375.57 154.46 C 375.68 153.11 376.00 151.82 376.55 150.57 C 384.43 148.73 392.34 146.98 400.26 145.31 Z" fill="#1bcef2" opacity="1.00" stroke="#1bcef2" stroke-width="0.25" data-index="6" style="opacity: 1; visibility: hidden;"></path>
<path d="M 227.63 149.87 C 229.03 149.27 230.44 148.52 232.03 148.66 C 239.78 148.66 247.54 148.63 255.30 148.78 C 259.74 149.12 260.02 156.35 255.62 156.95 C 246.90 156.72 238.16 157.24 229.46 156.65 C 226.35 156.02 227.08 152.14 227.63 149.87 Z" fill="#052e4d" opacity="1.00" stroke="#052e4d" stroke-width="0.25" data-index="7"></path>
<path d="M 288.33 154.74 C 293.61 154.30 298.71 156.11 303.87 156.91 C 308.27 157.96 312.91 158.15 317.10 159.92 C 319.45 161.93 318.83 166.12 316.03 167.44 C 309.47 167.28 303.17 165.08 296.70 164.17 C 296.59 164.05 296.37 163.83 296.26 163.71 C 294.57 161.21 291.34 161.20 288.83 160.04 C 287.89 158.68 288.54 156.71 288.33 155.12 L 288.33 154.74 Z" fill="#052d4e" opacity="1.00" stroke="#052d4e" stroke-width="0.25" data-index="8"></path>
<path d="M 288.05 162.13 C 286.04 160.15 286.12 156.91 288.33 155.12 C 288.54 156.71 287.89 158.68 288.83 160.04 C 291.34 161.20 294.57 161.21 296.26 163.71 C 293.45 163.64 290.80 162.63 288.05 162.13 Z" fill="#0a263a" opacity="1.00" stroke="#0a263a" stroke-width="0.25" data-index="9"></path>
<path d="M 229.46 156.65 C 238.16 157.24 246.90 156.72 255.62 156.95 L 257.20 157.25 C 254.37 158.68 251.12 158.12 248.08 158.21 C 241.82 157.99 235.50 158.77 229.28 157.68 L 229.46 156.65 Z" fill="#d3bfba" opacity="1.00" stroke="#d3bfba" stroke-width="0.25" data-index="10"></path>
<path d="M 199.42 163.55 C 203.31 162.19 207.45 162.68 211.31 163.83 C 209.65 172.80 208.12 181.84 208.12 190.99 C 201.82 190.67 195.86 186.76 192.94 181.21 C 189.86 174.75 192.80 166.37 199.42 163.55 Z" fill="#fec6ae" opacity="1.00" stroke="#fec6ae" stroke-width="0.25" data-index="11" style="opacity: 1;"></path>
<path d="M 241.65 166.55 C 243.60 165.29 246.63 164.69 248.23 166.84 C 250.55 169.99 249.53 174.52 247.26 177.44 C 244.88 178.22 241.86 178.02 240.61 175.52 C 239.70 172.55 239.91 169.19 241.65 166.55 Z" fill="#052c4a" opacity="1.00" stroke="#052c4a" stroke-width="0.25" data-index="12"></path>
<path d="M 270.07 172.04 C 270.91 170.92 273.10 171.11 273.37 172.67 C 272.58 178.05 271.40 183.40 271.24 188.86 C 273.16 189.45 273.26 191.98 271.16 192.45 C 267.18 191.09 264.12 188.02 260.40 186.15 C 260.37 185.63 260.31 184.60 260.28 184.09 C 263.57 180.10 266.69 175.96 270.07 172.04 Z" fill="#0a263a" opacity="1.00" stroke="#0a263a" stroke-width="0.25" data-index="13"></path>
<path d="M 298.54 171.54 C 300.27 171.67 302.30 171.87 303.37 173.45 C 305.30 176.49 304.47 180.60 302.34 183.30 C 300.40 185.22 297.03 184.68 295.80 182.26 C 294.36 178.53 294.96 173.81 298.54 171.54 Z" fill="#032c4c" opacity="1.00" stroke="#032c4c" stroke-width="0.25" data-index="14"></path>
<path d="M 263.46 184.89 C 265.38 182.21 267.39 179.59 269.36 176.95 C 269.55 180.59 268.21 184.09 268.30 187.73 C 266.80 186.59 265.19 185.62 263.46 184.89 Z" fill="#f4d4cb" opacity="1.00" stroke="#f4d4cb" stroke-width="0.25" data-index="15"></path>
<path d="M 335.24 176.05 C 340.93 177.02 346.73 180.58 348.44 186.37 C 349.95 190.72 349.37 195.89 346.54 199.57 C 343.16 203.72 337.52 204.53 332.50 204.68 C 334.22 195.22 334.55 185.61 335.24 176.05 Z" fill="#fdc4ac" opacity="1.00" stroke="#fdc4ac" stroke-width="0.25" data-index="16"></path>

<path d="M 374.57 195.60 C 382.32 194.35 389.98 197.36 397.56 198.66 C 397.53 199.96 397.52 201.27 397.51 202.59 C 390.10 203.19 382.95 200.63 375.73 199.38 C 374.93 198.23 374.54 196.97 374.57 195.60 Z" fill="#1dcaec" opacity="1.00" stroke="#1dcaec" stroke-width="0.25" data-index="18" style="visibility: hidden; opacity: 1;"></path>
<path d="M 243.77 197.83 C 249.61 195.73 256.02 197.32 262.07 197.50 C 258.99 199.28 255.28 198.21 251.92 198.37 C 248.95 198.18 245.67 197.89 243.31 200.08 C 243.30 203.74 243.20 207.42 243.85 211.04 L 242.45 212.11 C 241.84 207.60 239.75 201.24 243.77 197.83 Z" fill="#efcdc0" opacity="1.00" stroke="#efcdc0" stroke-width="0.25" data-index="19"></path>
<path d="M 243.31 200.08 C 245.67 197.89 248.95 198.18 251.92 198.37 C 263.98 199.44 276.04 200.42 288.10 201.55 C 291.29 201.94 294.86 201.75 297.50 203.92 C 298.12 211.83 294.36 219.72 288.88 225.28 L 287.92 225.65 C 288.88 220.99 292.69 217.72 294.28 213.33 C 295.64 210.53 295.90 207.42 295.55 204.37 C 293.89 204.33 292.23 204.38 290.58 204.52 C 285.70 205.04 280.86 204.03 276.01 203.70 C 266.90 203.22 257.85 201.92 248.74 201.42 C 248.90 201.03 249.23 200.26 249.39 199.87 C 248.17 200.13 246.94 200.39 245.72 200.65 C 244.81 205.13 246.19 209.68 245.40 214.15 L 245.01 214.92 C 244.58 213.64 244.19 212.34 243.85 211.04 C 243.20 207.42 243.30 203.74 243.31 200.08 Z" fill="#0b2942" opacity="1.00" stroke="#0b2942" stroke-width="0.25" data-index="20" style="opacity: 1;"></path>
<path d="M 245.72 200.65 C 246.94 200.39 248.17 200.13 249.39 199.87 C 249.23 200.26 248.90 201.03 248.74 201.42 C 248.55 202.78 248.46 204.16 248.37 205.55 C 250.03 207.34 251.84 209.15 254.26 209.84 C 260.92 212.07 268.07 211.50 274.98 211.43 C 279.99 210.90 285.52 210.71 289.75 207.65 C 290.95 207.02 290.53 205.60 290.58 204.52 C 292.23 204.38 293.89 204.33 295.55 204.37 C 295.90 207.42 295.64 210.53 294.28 213.33 C 292.69 217.72 288.88 220.99 287.92 225.65 C 287.79 226.67 286.94 227.23 286.21 227.83 C 285.03 226.07 284.47 221.92 281.53 223.35 C 273.08 216.01 260.44 214.57 249.96 217.76 C 249.05 217.79 247.24 217.83 246.34 217.86 C 245.90 216.66 244.87 215.50 245.40 214.15 C 246.19 209.68 244.81 205.13 245.72 200.65 Z" fill="#042e4e" opacity="1.00" stroke="#042e4e" stroke-width="0.25" data-index="21" style="opacity: 1;"></path>
<path d="M 248.37 205.55 C 248.46 204.16 248.55 202.78 248.74 201.42 C 257.85 201.92 266.90 203.22 276.01 203.70 C 280.86 204.03 285.70 205.04 290.58 204.52 C 290.53 205.60 290.95 207.02 289.75 207.65 C 285.52 210.71 279.99 210.90 274.98 211.43 C 268.07 211.50 260.92 212.07 254.26 209.84 C 251.84 209.15 250.03 207.34 248.37 205.55 Z" fill="#fcffff" opacity="1.00" stroke="#fcffff" stroke-width="0.25" data-index="22"></path>
<path d="M 249.96 217.76 C 260.44 214.57 273.08 216.01 281.53 223.35 C 282.48 224.18 282.84 225.18 282.61 226.35 C 271.75 232.90 255.88 229.23 249.96 217.76 Z" fill="#f0532d" opacity="1.00" stroke="#f0532d" stroke-width="0.25" data-index="23"></path>
<path d="M 246.34 217.86 C 247.24 217.83 249.05 217.79 249.96 217.76 C 255.88 229.23 271.75 232.90 282.61 226.35 C 282.84 225.18 282.48 224.18 281.53 223.35 C 284.47 221.92 285.03 226.07 286.21 227.83 C 280.47 232.03 273.05 233.57 266.06 232.46 C 257.53 231.41 249.97 225.58 246.34 217.86 Z" fill="#1e273c" opacity="1.00" stroke="#1e273c" stroke-width="0.25" data-index="24"></path>
<path d="M 170.86 237.16 C 173.53 234.27 176.99 231.86 180.87 230.95 C 182.50 231.16 183.49 232.48 184.05 233.91 C 185.73 237.71 188.31 240.99 190.45 244.53 C 191.83 246.72 193.19 249.26 195.91 249.94 L 196.16 250.24 C 196.12 252.09 196.10 253.94 196.07 255.79 C 197.89 256.15 199.70 256.52 201.53 256.83 C 196.16 257.61 190.88 258.95 185.78 260.79 C 181.37 254.40 176.94 247.97 171.64 242.27 C 170.00 241.00 170.64 238.89 170.86 237.16 Z" fill="#1c2d35" opacity="1.00" stroke="#1c2d35" stroke-width="0.25" data-index="25"></path>
<path d="M 177.72 235.60 C 178.41 234.65 179.53 234.41 180.60 234.17 C 181.69 235.42 182.84 236.66 183.40 238.27 C 181.83 236.79 180.11 235.00 177.72 235.60 Z" fill="#866c3c" opacity="1.00" stroke="#866c3c" stroke-width="0.25" data-index="26"></path>
<path d="M 184.05 233.91 C 186.02 236.32 187.96 238.78 189.64 241.41 C 190.90 242.39 192.50 242.14 193.99 242.17 C 204.31 242.09 214.64 242.13 224.97 242.13 C 226.72 242.24 228.39 241.69 230.10 241.39 C 233.50 242.93 236.11 245.75 239.42 247.46 C 242.36 248.89 245.28 251.69 248.80 250.39 C 253.83 252.17 258.95 253.73 264.25 254.46 C 263.64 254.72 262.42 255.23 261.81 255.48 C 264.54 256.00 267.29 256.31 270.06 256.53 C 264.65 258.60 258.94 260.57 253.06 260.03 C 249.90 259.71 246.75 259.33 243.59 259.10 C 238.66 256.26 235.61 251.15 233.15 246.19 C 229.45 246.05 229.85 250.44 229.92 253.00 C 230.36 259.44 228.93 266.19 231.67 272.30 C 233.98 283.25 243.17 292.02 253.97 294.52 C 268.21 298.31 284.86 292.33 292.59 279.58 C 296.63 272.08 296.17 263.21 295.35 255.01 C 295.21 253.70 294.46 253.40 293.09 254.11 C 294.92 252.39 296.42 250.37 298.00 248.42 C 301.62 246.43 305.08 244.14 308.25 241.47 C 309.14 241.49 310.93 241.52 311.82 241.54 C 313.86 241.88 315.91 242.25 318.00 242.16 C 330.43 242.07 343.12 241.84 355.15 245.49 C 365.66 248.47 375.10 254.56 382.93 262.09 C 391.80 271.32 399.29 281.73 407.16 291.78 C 421.73 310.94 436.02 330.31 449.68 350.13 C 447.52 353.00 444.59 355.21 441.46 356.93 C 440.30 357.58 439.18 358.30 438.14 359.12 C 423.66 371.57 408.48 383.21 394.08 395.78 C 394.43 398.02 394.78 400.28 394.92 402.56 C 394.72 403.35 394.47 404.12 394.25 404.91 C 392.47 404.91 390.68 404.74 389.23 403.62 C 388.88 402.43 388.53 401.26 388.19 400.09 C 387.18 401.13 386.00 401.98 384.77 402.74 C 381.34 396.85 378.17 390.83 374.84 384.89 C 374.97 392.14 374.44 399.42 375.30 406.63 C 373.03 408.35 369.35 408.05 368.15 411.01 C 366.05 410.19 363.32 410.24 361.94 408.19 C 364.21 409.46 366.65 408.03 368.94 407.57 C 368.60 400.89 369.12 394.15 368.28 387.52 C 362.48 372.35 356.81 357.10 350.89 341.97 C 349.76 339.58 348.98 337.02 349.11 334.35 C 349.65 334.37 350.74 334.39 351.28 334.41 C 363.40 355.14 374.49 376.50 386.76 397.12 C 402.62 384.21 418.37 371.16 434.25 358.28 C 437.45 355.59 440.81 353.09 443.83 350.18 C 423.42 323.61 404.17 296.11 382.35 270.65 C 374.32 261.79 364.10 254.64 352.47 251.47 C 336.70 247.11 320.19 248.71 304.04 248.52 C 302.15 249.80 300.19 250.98 298.20 252.08 C 299.99 262.21 300.29 273.47 294.57 282.47 C 285.28 296.23 266.45 302.75 250.71 297.21 C 239.68 293.38 230.55 283.76 228.37 272.16 C 226.97 264.32 227.86 256.33 227.68 248.43 C 216.88 248.48 206.07 248.45 195.27 248.47 L 195.91 249.94 C 193.19 249.26 191.83 246.72 190.45 244.53 C 188.31 240.99 185.73 237.71 184.05 233.91 Z" fill="#032f4f" opacity="1.00" stroke="#032f4f" stroke-width="0.25" data-index="27"></path>
<path d="M 173.25 238.96 C 174.80 237.92 176.27 236.78 177.72 235.60 C 180.11 235.00 181.83 236.79 183.40 238.27 C 186.68 243.18 190.58 247.63 193.77 252.61 C 191.88 252.79 191.77 255.18 193.75 255.29 L 193.90 255.52 C 191.76 255.51 189.69 256.19 187.56 256.17 C 186.90 256.23 185.58 256.34 184.92 256.40 C 181.09 251.38 177.28 246.32 173.69 241.13 C 173.58 240.59 173.36 239.50 173.25 238.96 Z" fill="#fb9512" opacity="1.00" stroke="#fb9512" stroke-width="0.25" data-index="28"></path>
<path d="M 171.65 245.04 C 171.33 242.54 167.41 239.25 170.86 237.16 C 170.64 238.89 170.00 241.00 171.64 242.27 C 176.94 247.97 181.37 254.40 185.78 260.79 C 182.74 262.03 179.27 262.59 176.70 264.74 C 172.64 269.86 170.74 276.30 169.40 282.59 C 167.24 293.10 166.08 303.81 163.30 314.19 C 162.39 317.30 159.65 319.28 157.51 321.54 C 143.47 335.77 128.51 349.02 113.89 362.64 C 114.18 362.10 114.76 361.02 115.05 360.48 C 112.84 361.91 110.51 363.15 108.07 364.15 C 102.08 360.50 96.08 356.86 89.95 353.46 C 83.87 364.81 76.53 375.53 71.60 387.48 C 67.31 397.54 62.51 407.90 62.64 419.07 C 62.78 426.83 64.92 434.89 70.25 440.75 C 69.19 441.23 68.08 441.64 66.91 441.75 C 62.64 437.65 60.83 431.57 59.76 425.89 C 58.72 418.94 59.06 411.71 61.15 404.98 C 66.59 385.91 76.75 368.71 86.88 351.83 C 82.67 349.28 78.46 346.74 74.19 344.31 C 78.27 336.97 84.16 330.81 89.08 324.03 C 102.78 306.44 116.81 289.11 131.06 271.97 C 138.07 264.00 145.53 256.09 154.99 251.01 C 160.26 248.34 165.81 246.04 171.65 245.04 Z" fill="#032f4e" opacity="1.00" stroke="#032f4e" stroke-width="0.25" data-index="29" style="opacity: 1;"></path>
<path d="M 229.92 253.00 C 229.85 250.44 229.45 246.05 233.15 246.19 C 230.52 247.99 231.21 251.26 231.13 254.00 C 231.17 260.10 230.90 266.23 231.67 272.30 C 228.93 266.19 230.36 259.44 229.92 253.00 Z" fill="#333847" opacity="1.00" stroke="#333847" stroke-width="0.25" data-index="30"></path>
<path d="M 231.13 254.00 C 231.21 251.26 230.52 247.99 233.15 246.19 C 235.61 251.15 238.66 256.26 243.59 259.10 C 251.77 263.92 261.81 261.70 270.20 258.62 C 277.95 257.99 285.86 257.24 293.09 254.11 C 294.46 253.40 295.21 253.70 295.35 255.01 C 296.17 263.21 296.63 272.08 292.59 279.58 C 284.86 292.33 268.21 298.31 253.97 294.52 C 243.17 292.02 233.98 283.25 231.67 272.30 C 230.90 266.23 231.17 260.10 231.13 254.00 Z" fill="#ffc5ad" opacity="1.00" stroke="#ffc5ad" stroke-width="0.25" data-index="31"></path>
<path d="M 195.27 248.47 C 206.07 248.45 216.88 248.48 227.68 248.43 C 227.86 256.33 226.97 264.32 228.37 272.16 C 230.55 283.76 239.68 293.38 250.71 297.21 C 266.45 302.75 285.28 296.23 294.57 282.47 C 300.29 273.47 299.99 262.21 298.20 252.08 C 300.19 250.98 302.15 249.80 304.04 248.52 C 320.19 248.71 336.70 247.11 352.47 251.47 C 364.10 254.64 374.32 261.79 382.35 270.65 C 404.17 296.11 423.42 323.61 443.83 350.18 C 440.81 353.09 437.45 355.59 434.25 358.28 C 418.37 371.16 402.62 384.21 386.76 397.12 C 374.49 376.50 363.40 355.14 351.28 334.41 C 350.74 334.39 349.65 334.37 349.11 334.35 C 348.98 337.02 349.76 339.58 350.89 341.97 C 356.81 357.10 362.48 372.35 368.28 387.52 C 369.12 394.15 368.60 400.89 368.94 407.57 C 366.65 408.03 364.21 409.46 361.94 408.19 C 355.83 400.28 345.39 397.91 335.93 396.98 C 328.82 396.26 321.70 395.68 314.56 395.43 C 315.47 388.49 316.26 381.54 317.07 374.59 C 317.38 373.16 316.91 371.78 316.42 370.46 C 316.03 370.40 315.25 370.26 314.85 370.20 C 289.93 369.48 264.95 370.09 240.00 369.88 C 233.19 370.12 226.29 369.27 219.55 370.54 C 219.15 372.70 219.04 374.92 219.41 377.10 C 222.32 398.84 225.46 420.55 227.78 442.35 C 199.40 442.30 171.02 442.34 142.63 442.34 C 142.68 439.86 142.70 437.38 142.71 434.91 C 155.70 414.28 168.15 393.29 180.01 371.99 C 181.67 369.05 181.76 365.48 183.63 362.65 C 190.39 352.32 196.41 341.52 203.50 331.41 C 205.84 328.04 206.62 323.93 208.11 320.18 C 210.22 314.73 210.80 307.77 216.87 305.11 C 219.17 308.45 221.49 311.80 224.00 314.99 C 224.83 316.14 226.43 316.14 227.65 316.66 C 229.97 320.70 233.12 324.38 234.33 328.96 C 235.10 332.02 232.44 334.93 233.68 338.00 C 235.10 342.03 237.75 345.47 239.84 349.17 C 241.67 352.03 243.27 355.15 245.82 357.47 C 247.71 357.44 249.10 355.96 250.66 355.07 C 249.78 358.21 249.15 361.42 249.25 364.69 C 250.31 364.64 251.38 364.60 252.46 364.57 C 254.12 360.53 254.90 356.23 254.95 351.88 C 255.52 351.69 256.67 351.31 257.24 351.12 C 257.22 349.57 256.83 348.10 256.07 346.71 C 256.30 346.28 256.77 345.43 257.00 345.00 C 258.14 349.07 265.03 348.63 264.47 344.05 C 262.18 337.87 257.85 332.68 254.33 327.16 C 254.38 325.76 254.39 324.36 254.22 322.98 C 253.06 321.52 250.93 322.33 249.89 323.51 C 247.86 323.28 245.88 322.76 243.90 322.30 C 240.68 319.04 238.22 315.16 235.40 311.58 C 235.99 307.16 231.88 304.38 229.88 300.94 C 229.55 300.67 228.90 300.14 228.58 299.88 C 228.61 299.40 228.68 298.44 228.71 297.96 C 231.42 296.93 233.93 294.30 233.55 291.22 C 233.53 288.55 231.62 286.53 229.76 284.86 C 231.53 281.32 228.81 278.34 226.26 276.21 C 227.05 271.52 222.91 268.46 219.49 266.20 C 219.68 261.90 217.85 257.22 213.84 255.21 C 209.23 252.58 203.77 253.73 198.74 253.67 C 197.91 252.49 197.07 251.34 196.16 250.24 L 195.91 249.94 L 195.27 248.47 Z" fill="#6ee4fe" opacity="1.00" stroke="#6ee4fe" stroke-width="0.25" data-index="32"></path>
<path d="M 264.25 254.46 C 275.82 255.82 287.67 253.85 298.00 248.42 C 296.42 250.37 294.92 252.39 293.09 254.11 C 285.86 257.24 277.95 257.99 270.20 258.62 C 261.81 261.70 251.77 263.92 243.59 259.10 C 246.75 259.33 249.90 259.71 253.06 260.03 C 258.94 260.57 264.65 258.60 270.06 256.53 C 267.29 256.31 264.54 256.00 261.81 255.48 C 262.42 255.23 263.64 254.72 264.25 254.46 Z" fill="#0e273e" opacity="1.00" stroke="#0e273e" stroke-width="0.25" data-index="33"></path>
<path d="M 139.24 272.23 C 148.69 261.02 161.86 253.08 176.34 250.52 C 177.95 253.31 181.12 255.42 181.70 258.65 C 180.13 259.71 178.01 259.60 176.44 260.73 C 172.35 263.57 170.23 268.30 168.58 272.82 C 164.50 285.76 163.36 299.36 160.40 312.56 C 160.27 313.79 159.45 314.73 158.63 315.59 C 143.60 330.88 127.87 345.47 111.85 359.70 C 111.53 359.63 110.90 359.48 110.58 359.40 C 100.92 354.35 91.75 348.38 82.07 343.37 C 82.43 342.10 83.12 340.98 83.99 340.00 C 102.19 317.23 120.13 294.24 139.24 272.23 Z" fill="#70e3fe" opacity="1.00" stroke="#70e3fe" stroke-width="0.25" data-index="34" style="opacity: 1;"></path>
<path d="M 196.16 250.24 C 197.07 251.34 197.91 252.49 198.74 253.67 C 203.77 253.73 209.23 252.58 213.84 255.21 C 217.85 257.22 219.68 261.90 219.49 266.20 C 222.91 268.46 227.05 271.52 226.26 276.21 C 228.81 278.34 231.53 281.32 229.76 284.86 C 231.62 286.53 233.53 288.55 233.55 291.22 C 233.93 294.30 231.42 296.93 228.71 297.96 C 228.68 298.44 228.61 299.40 228.58 299.88 C 226.72 299.34 225.47 298.01 224.62 296.34 C 226.65 295.30 228.63 294.15 230.59 292.98 C 231.15 290.11 229.24 286.89 226.01 287.34 C 220.61 286.56 215.31 289.96 210.06 288.39 C 210.48 285.54 213.60 285.45 215.71 284.60 C 219.70 284.22 223.69 283.77 227.70 283.52 C 226.98 281.14 225.46 278.84 222.87 278.29 C 216.98 276.62 210.92 278.01 204.98 278.32 C 204.87 277.67 204.66 276.37 204.56 275.71 C 210.49 273.73 216.86 274.08 223.00 274.69 C 222.37 271.14 218.84 269.24 215.72 268.21 C 211.65 267.19 207.34 267.34 203.26 268.21 C 201.05 268.56 198.82 268.73 196.58 268.73 C 196.59 268.23 196.62 267.22 196.63 266.72 C 202.68 263.83 209.59 263.80 216.13 264.54 C 215.71 262.66 215.72 260.38 213.95 259.19 C 210.50 256.26 205.74 256.55 201.53 256.83 C 199.70 256.52 197.89 256.15 196.07 255.79 C 196.10 253.94 196.12 252.09 196.16 250.24 Z" fill="#0c293e" opacity="1.00" stroke="#0c293e" stroke-width="0.25" data-index="35"></path>
<path d="M 193.75 255.29 C 191.77 255.18 191.88 252.79 193.77 252.61 C 195.25 253.57 195.24 254.46 193.75 255.29 Z" fill="#af8649" opacity="1.00" stroke="#af8649" stroke-width="0.25" data-index="36"></path>
<path d="M 184.92 256.40 C 185.58 256.34 186.90 256.23 187.56 256.17 C 188.26 257.77 184.66 258.03 184.92 256.40 Z" fill="#af9356" opacity="1.00" stroke="#af9356" stroke-width="0.25" data-index="37"></path>
<path d="M 201.53 256.83 C 205.74 256.55 210.50 256.26 213.95 259.19 C 215.72 260.38 215.71 262.66 216.13 264.54 C 209.59 263.80 202.68 263.83 196.63 266.72 C 196.62 267.22 196.59 268.23 196.58 268.73 C 198.82 268.73 201.05 268.56 203.26 268.21 C 208.91 269.40 216.10 267.95 220.19 273.01 C 214.93 273.81 209.42 272.19 204.36 274.16 C 204.41 274.55 204.51 275.33 204.56 275.71 C 204.66 276.37 204.87 277.67 204.98 278.32 C 205.07 278.70 205.26 279.46 205.35 279.84 C 211.67 279.09 218.44 277.56 224.43 280.62 C 224.63 281.16 225.03 282.23 225.23 282.77 C 222.00 283.05 218.65 283.07 215.71 284.60 C 213.60 285.45 210.48 285.54 210.06 288.39 C 215.31 289.96 220.61 286.56 226.01 287.34 C 229.24 286.89 231.15 290.11 230.59 292.98 C 228.63 294.15 226.65 295.30 224.62 296.34 C 221.60 297.88 218.66 299.57 215.90 301.53 C 213.21 303.58 209.99 305.47 208.83 308.85 C 206.51 315.16 204.27 321.50 201.78 327.75 C 177.69 365.20 154.27 403.10 129.91 440.40 C 118.64 441.38 107.33 440.67 96.03 440.89 C 87.68 441.18 79.27 440.26 70.97 441.47 C 70.79 441.29 70.43 440.93 70.25 440.75 C 64.92 434.89 62.78 426.83 62.64 419.07 C 62.51 407.90 67.31 397.54 71.60 387.48 C 76.53 375.53 83.87 364.81 89.95 353.46 C 96.08 356.86 102.08 360.50 108.07 364.15 C 104.13 366.35 101.36 370.07 97.93 372.93 C 91.64 378.29 85.79 384.15 79.58 389.60 C 77.56 391.56 74.39 393.43 75.30 396.75 C 76.58 396.36 77.86 395.87 78.83 394.92 C 90.45 384.09 102.33 373.55 113.89 362.64 C 128.51 349.02 143.47 335.77 157.51 321.54 C 159.65 319.28 162.39 317.30 163.30 314.19 C 166.08 303.81 167.24 293.10 169.40 282.59 C 170.74 276.30 172.64 269.86 176.70 264.74 C 179.27 262.59 182.74 262.03 185.78 260.79 C 190.88 258.95 196.16 257.61 201.53 256.83 Z" fill="#ffc5ad" opacity="1.00" stroke="#ffc5ad" stroke-width="0.25" data-index="38" style="opacity: 1;"></path>
<path d="M 203.26 268.21 C 207.34 267.34 211.65 267.19 215.72 268.21 C 218.84 269.24 222.37 271.14 223.00 274.69 C 216.86 274.08 210.49 273.73 204.56 275.71 C 204.51 275.33 204.41 274.55 204.36 274.16 C 209.42 272.19 214.93 273.81 220.19 273.01 C 216.10 267.95 208.91 269.40 203.26 268.21 Z" fill="#f4d4cb" opacity="1.00" stroke="#f4d4cb" stroke-width="0.25" data-index="39"></path>
<path d="M 204.98 278.32 C 210.92 278.01 216.98 276.62 222.87 278.29 C 225.46 278.84 226.98 281.14 227.70 283.52 C 223.69 283.77 219.70 284.22 215.71 284.60 C 218.65 283.07 222.00 283.05 225.23 282.77 C 225.03 282.23 224.63 281.16 224.43 280.62 C 218.44 277.56 211.67 279.09 205.35 279.84 C 205.26 279.46 205.07 278.70 204.98 278.32 Z" fill="#f4d4cb" opacity="1.00" stroke="#f4d4cb" stroke-width="0.25" data-index="40"></path>
<path d="M 215.90 301.53 C 218.66 299.57 221.60 297.88 224.62 296.34 C 225.47 298.01 226.72 299.34 228.58 299.88 C 228.90 300.14 229.55 300.67 229.88 300.94 C 230.22 302.70 230.44 304.48 230.66 306.27 L 229.75 306.40 C 228.06 304.22 226.94 301.51 224.53 299.99 L 224.24 300.10 C 222.05 300.65 220.19 301.91 218.63 303.51 C 217.73 302.83 216.81 302.18 215.90 301.53 Z" fill="#21323a" opacity="1.00" stroke="#21323a" stroke-width="0.25" data-index="41"></path>
<path d="M 218.63 303.51 C 220.19 301.91 222.05 300.65 224.24 300.10 C 223.01 301.07 221.81 302.07 220.64 303.11 C 220.66 303.66 220.71 304.76 220.73 305.31 C 220.20 304.86 219.15 303.96 218.63 303.51 Z" fill="#7d683b" opacity="1.00" stroke="#7d683b" stroke-width="0.25" data-index="42"></path>
<path d="M 224.24 300.10 L 224.53 299.99 C 226.28 301.90 228.37 303.87 227.80 306.73 L 227.60 307.68 C 226.79 308.37 225.96 309.05 225.11 309.69 C 225.27 309.25 225.61 308.37 225.77 307.93 C 224.97 307.39 224.15 307.23 223.29 307.47 C 223.23 307.77 223.11 308.37 223.05 308.67 C 222.28 307.55 221.51 306.41 220.73 305.31 C 220.71 304.76 220.66 303.66 220.64 303.11 C 221.81 302.07 223.01 301.07 224.24 300.10 Z" fill="#fb8b0a" opacity="1.00" stroke="#fb8b0a" stroke-width="0.25" data-index="43"></path>
<path d="M 224.53 299.99 C 226.94 301.51 228.06 304.22 229.75 306.40 C 229.26 306.48 228.29 306.64 227.80 306.73 C 228.37 303.87 226.28 301.90 224.53 299.99 Z" fill="#fdc4ac" opacity="1.00" stroke="#fdc4ac" stroke-width="0.25" data-index="44"></path>
<path d="M 229.88 300.94 C 231.88 304.38 235.99 307.16 235.40 311.58 C 238.22 315.16 240.68 319.04 243.90 322.30 C 245.88 322.76 247.86 323.28 249.89 323.51 C 249.79 324.59 249.70 325.68 249.61 326.78 C 247.14 325.67 244.47 325.12 241.98 324.06 C 238.40 321.20 236.83 316.57 233.44 313.52 C 232.46 313.47 231.48 313.48 230.51 313.54 C 230.48 314.72 230.07 316.05 230.98 317.03 C 233.57 320.70 236.09 324.59 237.03 329.05 C 237.15 332.34 235.27 335.81 236.92 338.98 C 239.84 344.32 243.30 349.35 246.33 354.63 C 247.15 354.12 247.97 353.61 248.80 353.11 C 248.08 352.41 247.37 351.71 246.67 351.00 C 247.04 350.62 247.80 349.86 248.17 349.48 C 248.77 349.47 249.96 349.43 250.55 349.42 L 250.56 349.41 C 250.24 351.30 250.75 353.18 250.66 355.07 C 249.10 355.96 247.71 357.44 245.82 357.47 C 243.27 355.15 241.67 352.03 239.84 349.17 C 237.75 345.47 235.10 342.03 233.68 338.00 C 232.44 334.93 235.10 332.02 234.33 328.96 C 233.12 324.38 229.97 320.70 227.65 316.66 C 226.43 316.14 224.83 316.14 224.00 314.99 C 221.49 311.80 219.17 308.45 216.87 305.11 C 210.80 307.77 210.22 314.73 208.11 320.18 C 206.62 323.93 205.84 328.04 203.50 331.41 C 196.41 341.52 190.39 352.32 183.63 362.65 C 181.76 365.48 181.67 369.05 180.01 371.99 C 168.15 393.29 155.70 414.28 142.71 434.91 C 142.70 437.38 142.68 439.86 142.63 442.34 C 171.02 442.34 199.40 442.30 227.78 442.35 C 225.46 420.55 222.32 398.84 219.41 377.10 C 219.04 374.92 219.15 372.70 219.55 370.54 C 226.29 369.27 233.19 370.12 240.00 369.88 C 264.95 370.09 289.93 369.48 314.85 370.20 C 314.28 371.16 313.81 372.19 313.63 373.31 C 283.19 373.83 252.73 373.36 222.29 373.53 C 225.75 396.86 228.59 420.28 231.61 443.67 C 255.76 443.67 279.92 443.68 304.07 443.66 C 303.99 441.91 304.93 439.82 303.45 438.46 C 304.47 438.10 305.58 437.64 306.59 438.35 C 309.68 439.66 312.27 441.91 315.34 443.25 C 316.72 443.77 318.14 444.20 319.61 444.45 C 321.70 444.85 323.83 445.07 325.97 445.11 C 365.98 445.02 405.99 445.02 445.99 445.14 C 455.54 446.71 465.20 445.52 474.80 446.31 C 472.64 448.22 469.60 447.35 466.99 447.54 C 354.11 447.49 241.22 447.49 128.34 447.52 C 128.47 446.38 128.60 445.25 128.73 444.13 C 116.49 443.60 104.22 444.06 91.97 443.90 C 85.28 443.72 78.55 444.45 71.89 443.58 C 89.91 443.07 107.97 443.54 126.00 443.37 C 127.06 443.45 127.93 443.11 128.63 442.38 C 128.95 441.88 129.59 440.89 129.91 440.40 C 154.27 403.10 177.69 365.20 201.78 327.75 C 204.27 321.50 206.51 315.16 208.83 308.85 C 209.99 305.47 213.21 303.58 215.90 301.53 C 216.81 302.18 217.73 302.83 218.63 303.51 C 219.15 303.96 220.20 304.86 220.73 305.31 C 221.51 306.41 222.28 307.55 223.05 308.67 C 223.56 308.92 224.59 309.43 225.11 309.69 C 225.96 309.05 226.79 308.37 227.60 307.68 L 227.80 306.73 C 228.29 306.64 229.26 306.48 229.75 306.40 L 230.66 306.27 C 230.44 304.48 230.22 302.70 229.88 300.94 Z" fill="#05304f" opacity="1.00" stroke="#05304f" stroke-width="0.25" data-index="45" style="opacity: 1;"></path>
<path d="M 223.29 307.47 C 224.15 307.23 224.97 307.39 225.77 307.93 C 225.61 308.37 225.27 309.25 225.11 309.69 C 224.59 309.43 223.56 308.92 223.05 308.67 C 223.11 308.37 223.23 307.77 223.29 307.47 Z" fill="#b88d54" opacity="1.00" stroke="#b88d54" stroke-width="0.25" data-index="46"></path>
<path d="M 230.51 313.54 C 231.48 313.48 232.46 313.47 233.44 313.52 C 236.83 316.57 238.40 321.20 241.98 324.06 C 244.47 325.12 247.14 325.67 249.61 326.78 C 250.27 327.21 251.57 328.06 252.22 328.49 L 252.72 329.35 C 252.20 329.72 251.16 330.46 250.64 330.83 C 248.91 332.16 247.15 333.43 245.28 334.55 C 245.03 335.06 244.52 336.08 244.27 336.59 C 243.12 336.26 241.96 335.93 240.81 335.61 C 240.18 336.90 238.94 338.36 239.92 339.84 C 241.79 343.76 243.90 347.64 246.67 351.00 C 247.37 351.71 248.08 352.41 248.80 353.11 C 247.97 353.61 247.15 354.12 246.33 354.63 C 243.30 349.35 239.84 344.32 236.92 338.98 C 235.27 335.81 237.15 332.34 237.03 329.05 C 236.09 324.59 233.57 320.70 230.98 317.03 C 230.07 316.05 230.48 314.72 230.51 313.54 Z" fill="#6c4943" opacity="1.00" stroke="#6c4943" stroke-width="0.25" data-index="47"></path>
<path d="M 270.65 316.37 C 271.45 315.59 272.26 314.81 273.07 314.04 C 275.01 315.47 274.60 317.85 274.50 319.95 C 274.28 326.25 270.68 332.18 271.88 338.59 C 273.09 345.55 273.43 352.96 270.52 359.57 C 269.45 359.63 268.38 359.70 267.31 359.78 C 266.60 355.06 269.58 350.70 268.62 345.94 C 267.60 340.43 266.57 334.65 268.01 329.11 C 269.45 325.01 270.30 320.71 270.65 316.37 Z" fill="#f6ffff" opacity="1.00" stroke="#f6ffff" stroke-width="0.25" data-index="48"></path>
<path d="M 284.95 329.12 C 286.02 326.07 286.57 322.60 288.87 320.19 C 291.47 320.46 290.72 323.62 290.51 325.36 C 288.31 331.04 289.46 337.20 290.46 342.99 C 290.43 348.64 289.92 354.50 287.96 359.83 C 287.29 359.80 285.96 359.74 285.29 359.71 C 283.87 357.76 285.06 355.43 285.31 353.31 C 285.69 350.21 286.23 347.11 286.32 343.98 C 285.77 339.04 283.45 334.12 284.95 329.12 Z" fill="#f7ffff" opacity="1.00" stroke="#f7ffff" stroke-width="0.25" data-index="49"></path>
<path d="M 249.89 323.51 C 250.93 322.33 253.06 321.52 254.22 322.98 C 254.39 324.36 254.38 325.76 254.33 327.16 L 253.57 328.50 L 252.22 328.49 C 251.57 328.06 250.27 327.21 249.61 326.78 C 249.70 325.68 249.79 324.59 249.89 323.51 Z" fill="#f2ffff" opacity="1.00" stroke="#f2ffff" stroke-width="0.25" data-index="50"></path>
<path d="M 252.22 328.49 L 253.57 328.50 L 254.33 327.16 C 257.85 332.68 262.18 337.87 264.47 344.05 C 265.03 348.63 258.14 349.07 257.00 345.00 C 255.22 342.03 252.33 339.65 251.61 336.12 C 251.72 333.47 248.25 335.08 249.27 336.99 C 250.27 340.22 251.87 343.25 253.68 346.10 C 252.65 347.21 251.61 348.32 250.56 349.41 L 250.55 349.42 C 249.93 344.87 247.11 340.67 243.00 338.56 C 244.48 342.32 246.64 345.75 248.17 349.48 C 247.80 349.86 247.04 350.62 246.67 351.00 C 243.90 347.64 241.79 343.76 239.92 339.84 C 238.94 338.36 240.18 336.90 240.81 335.61 C 241.96 335.93 243.12 336.26 244.27 336.59 C 244.52 336.08 245.03 335.06 245.28 334.55 C 247.15 333.43 248.91 332.16 250.64 330.83 C 253.66 335.94 256.50 341.77 261.79 344.87 C 259.86 339.10 255.65 334.59 252.72 329.35 L 252.22 328.49 Z" fill="#0c2c47" opacity="1.00" stroke="#0c2c47" stroke-width="0.25" data-index="51"></path>
<path d="M 252.72 329.35 C 255.65 334.59 259.86 339.10 261.79 344.87 C 256.50 341.77 253.66 335.94 250.64 330.83 C 251.16 330.46 252.20 329.72 252.72 329.35 Z" fill="#524a56" opacity="1.00" stroke="#524a56" stroke-width="0.25" data-index="52"></path>
<path d="M 249.27 336.99 C 248.25 335.08 251.72 333.47 251.61 336.12 C 252.33 339.65 255.22 342.03 257.00 345.00 C 256.77 345.43 256.30 346.28 256.07 346.71 L 255.97 346.89 C 255.56 348.53 255.10 350.18 254.95 351.88 C 254.90 356.23 254.12 360.53 252.46 364.57 C 251.38 364.60 250.31 364.64 249.25 364.69 C 249.15 361.42 249.78 358.21 250.66 355.07 C 250.75 353.18 250.24 351.30 250.56 349.41 C 251.61 348.32 252.65 347.21 253.68 346.10 C 251.87 343.25 250.27 340.22 249.27 336.99 Z" fill="#f7ffff" opacity="1.00" stroke="#f7ffff" stroke-width="0.25" data-index="53"></path>
<path d="M 243.00 338.56 C 247.11 340.67 249.93 344.87 250.55 349.42 C 249.96 349.43 248.77 349.47 248.17 349.48 C 246.64 345.75 244.48 342.32 243.00 338.56 Z" fill="#6e5c5a" opacity="1.00" stroke="#6e5c5a" stroke-width="0.25" data-index="54"></path>
<path d="M 255.97 346.89 L 256.07 346.71 C 256.83 348.10 257.22 349.57 257.24 351.12 C 256.67 351.31 255.52 351.69 254.95 351.88 C 255.10 350.18 255.56 348.53 255.97 346.89 Z" fill="#022c42" opacity="1.00" stroke="#022c42" stroke-width="0.25" data-index="55"></path>
<path d="M 438.14 359.12 C 439.18 358.30 440.30 357.58 441.46 356.93 C 441.62 359.20 443.50 360.77 444.56 362.67 C 453.46 376.80 460.47 392.40 463.05 408.99 C 464.38 419.48 463.28 430.94 457.04 439.79 C 456.58 440.15 455.68 440.88 455.22 441.25 C 453.03 442.55 450.78 444.16 448.10 444.00 C 415.73 443.98 383.35 443.99 350.98 443.93 C 340.52 444.12 330.03 443.47 319.61 444.45 C 318.14 444.20 316.72 443.77 315.34 443.25 L 316.54 442.28 L 316.68 442.22 C 334.78 442.78 352.90 442.30 371.00 442.46 C 397.48 442.49 423.95 442.40 450.43 442.49 C 452.58 440.40 454.52 438.06 455.85 435.35 C 460.60 426.51 460.80 415.95 459.12 406.26 C 455.77 389.22 447.92 373.36 438.14 359.12 Z" fill="#08263d" opacity="1.00" stroke="#08263d" stroke-width="0.25" data-index="56"></path>
<path d="M 394.08 395.78 C 408.48 383.21 423.66 371.57 438.14 359.12 C 447.92 373.36 455.77 389.22 459.12 406.26 C 460.80 415.95 460.60 426.51 455.85 435.35 C 453.62 436.92 451.73 438.89 449.62 440.59 C 447.49 441.30 445.20 441.12 443.00 441.18 C 402.66 440.85 362.32 441.11 321.97 440.96 C 320.11 440.88 318.30 441.29 316.68 442.22 L 316.54 442.28 C 312.30 439.52 307.77 437.23 303.64 434.30 C 298.77 430.87 293.20 427.87 290.12 422.55 C 293.10 422.75 295.48 424.78 298.14 425.95 C 303.33 428.31 308.35 431.27 314.03 432.34 C 314.64 432.06 315.86 431.51 316.47 431.24 C 316.52 429.99 316.56 428.74 316.61 427.50 C 308.68 422.06 299.79 418.00 292.62 411.47 C 292.59 410.96 292.53 409.93 292.50 409.42 C 296.93 409.02 300.76 411.54 304.85 412.78 C 309.62 414.10 314.66 416.13 319.66 414.93 C 319.71 414.16 319.80 412.63 319.84 411.87 C 309.76 407.70 298.68 405.66 289.47 399.55 C 289.51 398.57 289.56 397.60 289.61 396.63 C 294.55 396.45 299.44 397.18 304.34 397.67 C 316.54 399.13 328.89 399.13 341.04 401.04 C 349.05 402.29 357.28 405.84 362.02 412.70 C 364.08 412.22 366.12 411.63 368.15 411.01 C 378.00 408.58 388.05 406.89 398.16 405.95 C 404.96 408.00 412.06 406.10 419.01 406.65 C 423.40 406.47 428.00 408.36 432.21 406.51 C 432.31 405.55 432.43 404.60 432.55 403.65 C 426.44 402.54 420.21 402.32 414.03 401.89 C 407.65 401.78 401.30 402.78 394.92 402.56 C 394.78 400.28 394.43 398.02 394.08 395.78 Z" fill="#ffc5ad" opacity="1.00" stroke="#ffc5ad" stroke-width="0.25" data-index="57"></path>
<path d="M 108.07 364.15 C 110.51 363.15 112.84 361.91 115.05 360.48 C 114.76 361.02 114.18 362.10 113.89 362.64 C 102.33 373.55 90.45 384.09 78.83 394.92 C 77.86 395.87 76.58 396.36 75.30 396.75 C 74.39 393.43 77.56 391.56 79.58 389.60 C 85.79 384.15 91.64 378.29 97.93 372.93 C 101.36 370.07 104.13 366.35 108.07 364.15 Z" fill="#102e41" opacity="1.00" stroke="#102e41" stroke-width="0.25" data-index="58"></path>
<path d="M 314.85 370.20 C 315.25 370.26 316.03 370.40 316.42 370.46 C 316.91 371.78 317.38 373.16 317.07 374.59 C 316.26 381.54 315.47 388.49 314.56 395.43 C 321.70 395.68 328.82 396.26 335.93 396.98 C 345.39 397.91 355.83 400.28 361.94 408.19 C 363.32 410.24 366.05 410.19 368.15 411.01 C 366.12 411.63 364.08 412.22 362.02 412.70 C 357.28 405.84 349.05 402.29 341.04 401.04 C 328.89 399.13 316.54 399.13 304.34 397.67 C 299.44 397.18 294.55 396.45 289.61 396.63 C 289.56 397.60 289.51 398.57 289.47 399.55 C 298.68 405.66 309.76 407.70 319.84 411.87 C 319.80 412.63 319.71 414.16 319.66 414.93 C 314.66 416.13 309.62 414.10 304.85 412.78 C 300.76 411.54 296.93 409.02 292.50 409.42 C 292.53 409.93 292.59 410.96 292.62 411.47 C 299.79 418.00 308.68 422.06 316.61 427.50 C 316.56 428.74 316.52 429.99 316.47 431.24 C 315.86 431.51 314.64 432.06 314.03 432.34 C 308.35 431.27 303.33 428.31 298.14 425.95 C 295.48 424.78 293.10 422.75 290.12 422.55 C 293.20 427.87 298.77 430.87 303.64 434.30 C 307.77 437.23 312.30 439.52 316.54 442.28 L 315.34 443.25 C 312.27 441.91 309.68 439.66 306.59 438.35 C 305.58 437.64 304.47 438.10 303.45 438.46 C 296.75 435.01 290.13 429.97 286.69 423.10 C 286.99 422.50 287.61 421.29 287.92 420.69 C 289.57 420.23 291.37 419.15 293.08 420.04 C 298.80 422.50 304.06 426.00 310.04 427.87 C 303.45 422.29 294.70 419.33 289.37 412.22 C 289.41 411.36 289.48 409.65 289.52 408.80 C 289.96 408.28 290.84 407.23 291.28 406.71 C 291.91 406.60 293.16 406.37 293.78 406.26 C 293.65 405.93 293.39 405.27 293.26 404.95 C 290.51 404.15 288.21 402.39 286.42 400.19 C 286.39 397.67 286.77 393.86 290.01 393.65 C 297.13 393.22 304.23 394.60 311.31 395.23 C 311.99 387.91 313.29 380.65 313.63 373.31 C 313.81 372.19 314.28 371.16 314.85 370.20 Z" fill="#072c47" opacity="1.00" stroke="#072c47" stroke-width="0.25" data-index="59"></path>
<path d="M 222.29 373.53 C 252.73 373.36 283.19 373.83 313.63 373.31 C 313.29 380.65 311.99 387.91 311.31 395.23 C 304.23 394.60 297.13 393.22 290.01 393.65 C 286.77 393.86 286.39 397.67 286.42 400.19 C 288.21 402.39 290.51 404.15 293.26 404.95 C 293.39 405.27 293.65 405.93 293.78 406.26 C 293.16 406.37 291.91 406.60 291.28 406.71 C 290.84 407.23 289.96 408.28 289.52 408.80 C 289.48 409.65 289.41 411.36 289.37 412.22 C 294.70 419.33 303.45 422.29 310.04 427.87 C 304.06 426.00 298.80 422.50 293.08 420.04 C 291.37 419.15 289.57 420.23 287.92 420.69 C 287.61 421.29 286.99 422.50 286.69 423.10 C 290.13 429.97 296.75 435.01 303.45 438.46 C 304.93 439.82 303.99 441.91 304.07 443.66 C 279.92 443.68 255.76 443.67 231.61 443.67 C 228.59 420.28 225.75 396.86 222.29 373.53 Z" fill="#ffffff" opacity="1.00" stroke="#ffffff" stroke-width="0.25" data-index="60"></path>
<path d="M 374.84 384.89 C 378.17 390.83 381.34 396.85 384.77 402.74 C 386.00 401.98 387.18 401.13 388.19 400.09 C 388.53 401.26 388.88 402.43 389.23 403.62 C 384.59 404.52 379.67 404.77 375.30 406.63 C 374.44 399.42 374.97 392.14 374.84 384.89 Z" fill="#f9ffff" opacity="1.00" stroke="#f9ffff" stroke-width="0.25" data-index="61"></path>
<path d="M 77.21 393.36 C 78.76 393.36 78.11 395.88 76.84 395.87 C 75.26 395.77 75.98 393.44 77.21 393.36 Z" fill="#11111d" opacity="1.00" stroke="#11111d" stroke-width="0.25" data-index="62"></path>
<path d="M 394.92 402.56 C 401.30 402.78 407.65 401.78 414.03 401.89 C 420.21 402.32 426.44 402.54 432.55 403.65 C 432.43 404.60 432.31 405.55 432.21 406.51 C 420.90 405.41 409.49 404.80 398.16 405.95 C 388.05 406.89 378.00 408.58 368.15 411.01 C 369.35 408.05 373.03 408.35 375.30 406.63 C 379.67 404.77 384.59 404.52 389.23 403.62 C 390.68 404.74 392.47 404.91 394.25 404.91 C 394.47 404.12 394.72 403.35 394.92 402.56 Z" fill="#0f283d" opacity="1.00" stroke="#0f283d" stroke-width="0.25" data-index="63"></path>
<path d="M 398.16 405.95 C 409.49 404.80 420.90 405.41 432.21 406.51 C 428.00 408.36 423.40 406.47 419.01 406.65 C 412.06 406.10 404.96 408.00 398.16 405.95 Z" fill="#f4d4cb" opacity="1.00" stroke="#f4d4cb" stroke-width="0.25" data-index="64"></path>
<path d="M 449.62 440.59 C 451.73 438.89 453.62 436.92 455.85 435.35 C 454.52 438.06 452.58 440.40 450.43 442.49 C 423.95 442.40 397.48 442.49 371.00 442.46 C 352.90 442.30 334.78 442.78 316.68 442.22 C 318.30 441.29 320.11 440.88 321.97 440.96 C 362.32 441.11 402.66 440.85 443.00 441.18 C 445.20 441.12 447.49 441.30 449.62 440.59 Z" fill="#f4d4cb" opacity="1.00" stroke="#f4d4cb" stroke-width="0.25" data-index="65"></path>
<path d="M 135.23 439.33 C 137.02 439.57 136.60 442.79 134.76 442.70 C 132.44 442.80 133.89 439.69 135.23 439.33 Z" fill="#f2ffff" opacity="1.00" stroke="#f2ffff" stroke-width="0.25" data-index="66"></path>
<path d="M 70.25 440.75 C 70.43 440.93 70.79 441.29 70.97 441.47 L 71.95 442.37 C 90.84 442.50 109.74 442.50 128.63 442.38 C 127.93 443.11 127.06 443.45 126.00 443.37 C 107.97 443.54 89.91 443.07 71.89 443.58 C 78.55 444.45 85.28 443.72 91.97 443.90 C 104.22 444.06 116.49 443.60 128.73 444.13 C 128.60 445.25 128.47 446.38 128.34 447.52 C 98.87 447.46 69.39 447.60 39.93 447.44 C 37.03 447.73 36.56 442.82 39.34 442.38 C 48.50 441.65 57.77 442.79 66.91 441.75 C 68.08 441.64 69.19 441.23 70.25 440.75 Z" fill="#032e4d" opacity="1.00" stroke="#032e4d" stroke-width="0.25" data-index="67"></path>
<path d="M 96.03 440.89 C 107.33 440.67 118.64 441.38 129.91 440.40 C 129.59 440.89 128.95 441.88 128.63 442.38 C 109.74 442.50 90.84 442.50 71.95 442.37 L 70.97 441.47 C 79.27 440.26 87.68 441.18 96.03 440.89 Z" fill="#eecec4" opacity="1.00" stroke="#eecec4" stroke-width="0.25" data-index="68"></path>
<path d="M 307.09 441.09 C 308.10 439.96 310.86 441.28 309.71 442.76 C 308.66 443.96 305.89 442.62 307.09 441.09 Z" fill="#356687" opacity="1.00" stroke="#356687" stroke-width="0.25" data-index="69"></path>
<path d="M 448.10 444.00 C 450.78 444.16 453.03 442.55 455.22 441.25 C 461.23 443.45 468.13 441.06 474.38 442.73 C 474.48 443.62 474.69 445.41 474.80 446.31 C 465.20 445.52 455.54 446.71 445.99 445.14 C 405.99 445.02 365.98 445.02 325.97 445.11 C 323.83 445.07 321.70 444.85 319.61 444.45 C 330.03 443.47 340.52 444.12 350.98 443.93 C 383.35 443.99 415.73 443.98 448.10 444.00 Z" fill="#042f4f" opacity="1.00" stroke="#042f4f" stroke-width="0.25" data-index="70"></path>
</svg>