<svg xmlns="http://www.w3.org/2000/svg" height="512pt" version="1.1" viewBox="0 0 512 512" width="512pt"><defs>
                <linearGradient id="grad-52" gradientTransform="rotate(87 0.5 0.5)">
                
                        <stop stop-color="#ffffff" offset="0"></stop>
                    ,
                        <stop stop-color="#ffffff" offset="0.5"></stop>
                    
                </linearGradient>
          </defs>

<path d="M 305.13 80.32 C 314.11 77.11 323.20 72.19 333.05 73.60 C 336.13 74.57 338.50 76.99 340.96 78.99 C 343.75 81.22 344.20 85.06 344.52 88.38 C 344.88 93.79 341.13 98.07 338.69 102.53 C 345.00 101.59 350.40 97.02 357.01 97.60 C 361.09 97.49 363.85 100.92 366.15 103.82 C 369.11 107.41 368.72 112.47 367.67 116.71 C 366.64 121.09 361.99 123.44 361.27 127.98 C 360.74 126.25 360.20 124.43 358.97 123.05 C 356.58 120.93 352.93 120.60 351.10 117.76 C 347.94 113.54 342.35 111.18 337.15 112.60 C 333.48 113.61 329.70 113.73 325.92 113.80 C 321.65 114.26 319.29 118.18 317.42 121.58 C 316.68 121.58 315.20 121.59 314.47 121.59 C 314.42 123.34 314.09 125.13 314.49 126.87 C 315.24 128.41 316.74 129.41 317.90 130.63 C 317.28 136.70 316.13 142.68 313.07 148.02 C 314.24 148.48 315.42 148.94 316.60 149.40 C 316.70 154.50 317.08 160.30 320.91 164.11 C 324.27 166.90 328.93 165.47 332.77 164.68 C 333.45 167.08 334.18 169.46 334.88 171.85 C 324.55 184.80 318.90 200.65 310.75 214.91 C 306.86 217.83 301.88 219.29 297.01 219.19 C 290.69 219.13 284.38 219.50 278.06 219.44 C 272.07 219.61 268.53 213.21 262.41 213.64 C 262.11 213.12 261.51 212.09 261.21 211.58 C 259.95 211.46 258.68 211.34 257.42 211.24 C 257.03 213.31 256.69 215.40 256.31 217.48 C 256.19 214.77 256.09 212.06 255.96 209.36 C 256.68 209.15 258.12 208.75 258.84 208.54 C 258.95 205.15 258.92 201.75 258.73 198.36 C 255.28 198.22 251.82 198.20 248.36 198.24 C 249.08 196.30 250.29 194.32 249.81 192.17 C 248.30 189.83 245.62 188.50 243.02 187.77 C 240.09 186.95 239.09 190.35 237.76 192.17 C 236.12 192.21 234.47 192.27 232.83 192.36 C 231.71 190.62 230.66 188.79 229.08 187.43 C 224.93 188.19 219.54 190.73 220.56 195.85 C 221.41 196.61 222.26 197.37 223.12 198.13 C 219.27 198.16 215.41 198.22 211.57 198.46 C 211.49 201.79 211.49 205.13 211.53 208.47 C 212.30 208.57 213.83 208.77 214.60 208.87 C 214.61 211.10 214.62 213.32 214.64 215.55 C 212.25 215.51 209.87 215.49 207.49 215.50 C 199.61 204.32 193.95 191.73 185.69 180.80 C 186.36 178.83 187.03 176.86 187.71 174.89 C 191.37 175.97 195.67 177.58 199.23 175.29 C 203.57 172.77 204.24 167.30 205.01 162.82 C 205.70 162.42 207.06 161.62 207.74 161.23 C 206.82 157.43 205.00 153.86 205.03 149.86 C 206.62 149.71 208.70 149.98 208.94 147.89 C 210.24 142.88 209.13 137.17 205.99 133.04 C 202.51 128.84 196.57 129.47 191.86 127.87 C 186.45 126.03 180.86 124.54 175.09 124.60 C 180.71 121.93 185.84 118.38 191.18 115.21 C 195.70 112.25 200.81 110.36 205.36 107.45 C 211.77 103.35 218.48 99.77 225.19 96.19 C 236.05 91.01 246.41 84.68 257.91 80.96 C 263.68 78.55 270.18 77.39 276.35 78.84 C 281.05 80.58 282.03 86.03 284.54 89.81 C 291.06 85.95 297.98 82.82 305.13 80.32 Z" fill="#cbf3ff" opacity="1.00" stroke="#cbf3ff" stroke-width="0.25" data-index="1" style="opacity: 1; visibility: hidden;"></path>
<path d="M 325.92 113.80 C 329.70 113.73 333.48 113.61 337.15 112.60 C 342.35 111.18 347.94 113.54 351.10 117.76 C 352.93 120.60 356.58 120.93 358.97 123.05 C 360.20 124.43 360.74 126.25 361.27 127.98 C 362.72 134.11 362.93 140.70 360.03 146.46 C 358.29 151.09 354.45 155.25 355.11 160.49 C 355.06 164.61 358.39 167.43 360.47 170.61 C 365.20 177.08 367.65 185.03 367.77 193.01 C 368.19 209.68 366.59 226.32 366.68 242.99 C 366.66 249.57 367.47 256.12 367.33 262.70 C 365.58 266.96 366.56 271.71 365.33 276.10 C 364.41 281.13 361.14 285.24 359.43 289.95 C 358.61 306.05 358.57 322.21 357.72 338.32 C 362.58 345.57 367.61 352.69 372.47 359.93 C 379.55 370.01 386.48 380.19 393.68 390.18 C 392.41 391.08 391.14 391.98 389.86 392.88 C 391.14 394.81 392.39 396.77 393.69 398.70 C 394.76 398.70 395.83 398.71 396.92 398.72 C 400.96 403.13 405.14 407.63 407.87 413.01 C 397.00 420.71 386.45 428.87 375.75 436.81 C 392.61 436.97 409.46 436.91 426.32 436.82 C 426.43 437.30 426.67 438.24 426.78 438.71 C 341.53 438.84 256.27 438.60 171.02 438.86 C 143.66 438.66 116.30 438.79 88.94 438.74 C 87.50 438.68 86.07 438.53 84.65 438.28 C 85.20 437.94 86.32 437.28 86.88 436.95 C 111.78 436.76 136.68 437.01 161.58 436.84 C 161.78 432.57 160.79 427.94 162.67 423.97 C 163.21 423.83 164.28 423.54 164.82 423.40 C 164.87 419.06 165.00 414.73 165.21 410.40 C 163.70 410.30 162.19 410.22 160.69 410.15 C 160.59 404.22 160.39 398.30 160.16 392.38 C 160.03 385.58 159.49 378.80 159.33 372.01 C 154.71 376.36 149.81 380.41 145.20 384.77 C 139.37 389.90 133.73 395.23 127.95 400.42 C 125.95 398.25 123.97 396.05 122.09 393.78 C 119.88 391.05 117.57 388.39 115.10 385.89 C 111.20 389.38 107.28 392.86 103.49 396.49 C 105.57 399.66 108.71 403.52 113.02 402.43 C 116.50 400.07 119.03 396.61 122.09 393.78 L 122.91 395.26 C 121.09 397.00 119.34 398.83 117.59 400.64 C 119.63 405.45 121.79 410.22 123.45 415.18 L 122.66 417.01 C 120.55 412.49 118.71 407.85 116.86 403.22 C 114.00 404.01 111.05 404.48 108.07 404.33 C 112.99 408.55 117.68 413.03 122.11 417.77 C 122.25 417.58 122.52 417.20 122.66 417.01 L 123.85 415.35 C 125.29 419.53 127.37 423.54 128.17 427.93 C 128.60 429.72 127.44 431.25 126.08 432.23 C 124.26 432.69 122.82 431.45 121.55 430.38 C 111.51 421.62 101.17 413.20 91.42 404.11 C 94.29 400.87 96.98 397.47 99.87 394.25 C 100.66 394.39 102.22 394.68 103.00 394.82 C 106.49 391.26 110.22 387.96 113.96 384.67 C 113.21 383.68 112.46 382.68 111.70 381.70 C 112.87 380.60 114.03 379.50 115.22 378.42 C 128.99 366.11 142.58 353.57 156.56 341.49 C 156.51 325.97 155.88 310.46 155.39 294.95 C 154.56 291.05 151.94 287.74 151.14 283.80 C 149.76 276.98 148.38 269.86 150.16 262.98 C 153.07 244.19 152.10 225.07 152.59 206.13 C 150.65 205.64 148.23 205.87 146.87 204.12 C 143.63 200.36 142.94 194.73 144.46 190.09 C 145.98 186.08 148.87 182.81 151.31 179.35 C 149.80 174.88 148.49 169.93 150.07 165.29 C 151.81 159.81 157.60 156.82 159.14 151.23 C 160.77 145.14 161.14 138.54 164.72 133.13 C 167.11 129.17 170.82 126.29 175.09 124.60 C 180.86 124.54 186.45 126.03 191.86 127.87 C 196.57 129.47 202.51 128.84 205.99 133.04 C 209.13 137.17 210.24 142.88 208.94 147.89 C 208.70 149.98 206.62 149.71 205.03 149.86 C 205.00 153.86 206.82 157.43 207.74 161.23 C 207.06 161.62 205.70 162.42 205.01 162.82 C 204.24 167.30 203.57 172.77 199.23 175.29 C 195.67 177.58 191.37 175.97 187.71 174.89 C 187.03 176.86 186.36 178.83 185.69 180.80 C 193.95 191.73 199.61 204.32 207.49 215.50 C 209.87 215.49 212.25 215.51 214.64 215.55 C 214.62 213.32 214.61 211.10 214.60 208.87 C 213.83 208.77 212.30 208.57 211.53 208.47 C 211.49 205.13 211.49 201.79 211.57 198.46 C 215.41 198.22 219.27 198.16 223.12 198.13 C 222.26 197.37 221.41 196.61 220.56 195.85 C 219.54 190.73 224.93 188.19 229.08 187.43 C 230.66 188.79 231.71 190.62 232.83 192.36 C 234.47 192.27 236.12 192.21 237.76 192.17 C 239.09 190.35 240.09 186.95 243.02 187.77 C 245.62 188.50 248.30 189.83 249.81 192.17 C 250.29 194.32 249.08 196.30 248.36 198.24 C 251.82 198.20 255.28 198.22 258.73 198.36 C 258.92 201.75 258.95 205.15 258.84 208.54 C 258.12 208.75 256.68 209.15 255.96 209.36 C 256.09 212.06 256.19 214.77 256.31 217.48 C 256.69 215.40 257.03 213.31 257.42 211.24 C 258.68 211.34 259.95 211.46 261.21 211.58 C 261.51 212.09 262.11 213.12 262.41 213.64 C 268.53 213.21 272.07 219.61 278.06 219.44 C 284.38 219.50 290.69 219.13 297.01 219.19 C 301.88 219.29 306.86 217.83 310.75 214.91 C 318.90 200.65 324.55 184.80 334.88 171.85 C 334.18 169.46 333.45 167.08 332.77 164.68 C 328.93 165.47 324.27 166.90 320.91 164.11 C 317.08 160.30 316.70 154.50 316.60 149.40 C 315.42 148.94 314.24 148.48 313.07 148.02 C 316.13 142.68 317.28 136.70 317.90 130.63 C 316.74 129.41 315.24 128.41 314.49 126.87 C 314.09 125.13 314.42 123.34 314.47 121.59 C 315.20 121.59 316.68 121.58 317.42 121.58 C 319.29 118.18 321.65 114.26 325.92 113.80 Z" fill="#053254" opacity="1.00" stroke="#053254" stroke-width="0.25" data-index="2" style="opacity: 1; visibility: visible;"></path>
<path d="M 177.95 133.80 C 175.27 133.85 176.35 129.26 178.27 128.73 C 178.29 130.42 178.20 132.12 177.95 133.80 Z" fill="#81d43e" opacity="1.00" stroke="#81d43e" stroke-width="0.25" data-index="3"></path>
<path d="M 178.27 128.73 C 179.31 128.75 180.20 129.09 180.93 129.77 C 181.78 130.76 182.62 131.76 183.44 132.78 L 183.24 134.04 C 182.05 133.91 180.86 133.86 179.67 133.90 L 177.95 133.80 C 178.20 132.12 178.29 130.42 178.27 128.73 Z" fill="#f7672a" opacity="1.00" stroke="#f7672a" stroke-width="0.25" data-index="4"></path>
<path d="M 180.93 129.77 C 181.87 127.03 186.35 132.23 183.44 132.78 C 182.62 131.76 181.78 130.76 180.93 129.77 Z" fill="#81d43e" opacity="1.00" stroke="#81d43e" stroke-width="0.25" data-index="5"></path>
<path d="M 319.80 131.11 C 325.06 131.60 330.35 131.65 335.64 131.56 C 335.41 136.13 335.28 140.71 335.57 145.29 C 336.82 145.70 338.08 146.12 339.34 146.53 C 341.24 143.37 342.13 139.77 342.85 136.18 C 344.68 136.29 346.27 137.12 347.64 138.31 C 348.00 141.40 347.40 144.40 345.26 146.75 C 344.06 146.74 342.86 146.72 341.66 146.71 C 341.65 147.10 341.61 147.89 341.60 148.28 C 342.23 148.41 343.48 148.66 344.11 148.78 C 345.59 152.94 348.51 157.36 353.22 158.05 C 353.46 160.42 353.73 162.78 353.95 165.15 C 347.92 166.35 341.96 167.88 335.91 168.98 C 335.36 167.26 334.80 165.55 334.25 163.83 C 336.97 162.11 339.44 159.95 341.20 157.23 C 338.71 157.05 337.51 159.46 335.78 160.77 C 332.32 163.44 327.61 164.63 323.33 163.57 C 319.89 162.44 319.40 158.32 318.85 155.27 C 318.09 152.94 318.33 150.48 318.58 148.09 C 317.34 147.75 316.10 147.41 314.86 147.08 C 316.17 144.87 318.06 142.79 318.17 140.10 C 318.46 137.06 318.88 134.03 319.80 131.11 Z" fill="#fdcdb5" opacity="1.00" stroke="#fdcdb5" stroke-width="0.25" data-index="6"></path>

<path d="M 179.67 133.90 C 180.86 133.86 182.05 133.91 183.24 134.04 C 183.79 136.74 177.89 136.74 179.67 133.90 Z" fill="#81d43e" opacity="1.00" stroke="#81d43e" stroke-width="0.25" data-index="8"></path>
<path d="M 319.70 133.88 C 322.71 132.88 325.94 134.16 328.92 134.82 C 327.90 136.00 326.77 137.31 325.03 136.83 C 323.09 136.46 318.80 137.13 319.70 133.88 Z" fill="#053254" opacity="1.00" stroke="#053254" stroke-width="0.25" data-index="9"></path>
<path d="M 180.87 137.23 C 181.88 137.41 182.89 137.59 183.89 137.79 C 183.19 140.23 180.41 140.55 178.52 141.72 C 178.20 141.09 177.54 139.83 177.22 139.20 C 178.58 138.80 179.80 138.15 180.87 137.23 Z" fill="#cbf3ff" opacity="1.00" stroke="#cbf3ff" stroke-width="0.25" data-index="10"></path>
<path d="M 322.14 139.56 C 323.29 139.58 324.44 139.61 325.59 139.64 C 325.97 141.95 324.99 143.64 322.53 143.74 C 322.38 142.34 322.25 140.95 322.14 139.56 Z" fill="#053254" opacity="1.00" stroke="#053254" stroke-width="0.25" data-index="11"></path>
<path d="M 196.92 146.20 C 198.80 144.53 200.64 142.82 202.44 141.07 C 204.49 147.54 202.39 154.75 206.05 160.77 C 204.96 160.62 203.87 160.47 202.78 160.32 C 202.94 162.88 202.81 165.44 202.50 167.98 C 198.86 168.24 196.18 165.89 194.69 162.81 C 194.28 162.70 193.46 162.48 193.05 162.37 C 193.69 166.81 197.74 169.43 201.99 169.71 C 200.58 171.44 199.48 173.86 197.11 174.45 C 191.61 175.57 185.99 172.51 182.64 168.26 C 181.84 167.10 180.72 166.36 179.23 166.62 C 179.38 163.28 179.60 159.93 179.38 156.59 C 178.93 156.20 178.03 155.43 177.57 155.04 C 176.00 151.79 175.97 146.76 180.47 146.12 C 181.56 150.36 180.48 155.21 183.10 158.98 C 184.67 156.01 185.54 152.76 186.05 149.46 C 188.69 149.04 191.34 148.66 193.98 148.20 C 194.43 148.47 195.34 149.02 195.79 149.30 C 198.08 149.35 200.36 149.38 202.66 149.36 C 202.62 145.85 199.47 146.30 196.92 146.20 Z" fill="#fdcdb5" opacity="1.00" stroke="#fdcdb5" stroke-width="0.25" data-index="12"></path>

<path d="M 195.98 151.90 C 197.17 151.55 198.42 151.48 199.65 151.34 C 199.55 152.62 199.49 153.91 199.24 155.17 C 198.07 155.28 196.89 155.29 195.72 155.33 C 195.78 154.18 195.82 153.03 195.98 151.90 Z" fill="#053254" opacity="1.00" stroke="#053254" stroke-width="0.25" data-index="14"></path>
<path d="M 319.32 155.06 C 321.82 154.98 323.86 153.77 325.31 151.79 C 325.69 151.98 326.46 152.36 326.84 152.56 C 325.56 154.53 323.68 155.94 321.43 156.64 C 320.72 156.12 320.02 155.59 319.32 155.06 Z" fill="#053254" opacity="1.00" stroke="#053254" stroke-width="0.25" data-index="15"></path>
<path d="M 337.02 170.73 C 343.05 169.27 349.10 167.87 355.12 166.38 C 358.79 171.08 362.62 175.90 364.24 181.75 C 366.30 188.95 366.32 196.56 366.20 203.99 C 365.21 216.31 365.75 228.69 364.73 241.00 C 365.03 247.95 365.53 254.89 365.65 261.85 C 358.82 262.99 351.89 262.43 345.01 262.51 C 336.46 262.60 327.97 261.39 319.51 260.32 C 318.06 252.47 318.75 244.46 318.51 236.53 C 326.21 233.68 332.58 227.77 336.44 220.57 C 342.77 209.08 348.38 197.21 353.83 185.29 C 353.36 185.36 352.44 185.50 351.98 185.58 C 346.56 197.16 340.81 208.58 334.97 219.96 C 331.65 226.12 326.36 231.08 320.10 234.19 C 307.29 237.86 294.04 240.53 280.67 240.68 C 279.79 237.27 279.06 233.81 278.20 230.40 C 279.46 229.87 280.72 229.35 281.99 228.84 C 283.70 228.32 285.39 227.76 287.10 227.23 C 291.67 225.35 296.39 223.84 300.92 221.87 C 304.63 219.65 309.30 218.71 312.31 215.51 C 318.46 204.78 323.31 193.34 329.55 182.65 C 331.93 178.61 334.92 174.94 337.02 170.73 Z" fill="#f7672a" opacity="1.00" stroke="#f7672a" stroke-width="0.25" data-index="16" style="opacity: 1;"></path>
<path d="M 179.34 166.69 C 181.13 169.44 183.79 171.63 186.11 173.99 C 185.57 175.85 185.04 177.72 184.52 179.59 C 181.99 177.40 179.20 175.52 176.19 174.07 C 177.52 171.74 178.59 169.27 179.34 166.69 Z" fill="#fdcdb5" opacity="1.00" stroke="#fdcdb5" stroke-width="0.25" data-index="17"></path>
<path d="M 169.31 180.17 C 171.46 178.85 173.28 176.80 175.74 176.06 C 178.43 176.57 180.59 178.52 182.55 180.31 C 187.49 185.34 191.00 191.54 194.41 197.66 C 199.11 205.57 203.71 213.57 209.08 221.05 C 212.57 222.02 216.29 221.54 219.87 221.32 C 230.40 220.05 240.95 218.94 251.46 217.48 C 252.25 222.66 253.49 227.78 253.94 233.01 C 240.78 235.82 227.42 237.98 213.96 238.46 C 207.13 238.83 200.37 236.21 195.43 231.53 C 187.57 224.21 181.98 214.91 175.65 206.33 C 173.10 203.05 171.50 198.88 167.89 196.56 C 168.79 200.59 171.77 203.61 173.95 206.98 C 177.05 211.71 180.97 216.07 182.56 221.62 C 185.01 229.58 187.01 238.04 192.30 244.69 C 193.67 246.64 195.81 247.75 197.83 248.89 C 198.06 256.10 197.48 263.30 197.49 270.51 C 186.76 272.24 175.86 271.81 165.04 271.64 C 160.20 271.59 155.42 270.79 150.61 270.31 C 153.69 256.43 153.92 242.20 154.20 228.06 C 154.42 217.89 153.70 207.62 155.58 197.56 C 158.87 194.51 160.83 190.45 162.49 186.36 C 163.51 183.19 166.89 182.05 169.31 180.17 Z" fill="#81d43e" opacity="1.00" stroke="#81d43e" stroke-width="0.25" data-index="18" style="opacity: 1;"></path>
<path d="M 226.95 189.73 C 227.36 189.61 228.19 189.37 228.60 189.25 C 230.17 191.29 231.15 193.67 231.83 196.13 C 230.60 195.31 229.38 194.47 228.16 193.63 C 227.18 193.55 226.19 193.47 225.21 193.40 C 225.36 193.80 225.66 194.61 225.81 195.01 C 227.31 195.89 228.85 196.72 230.42 197.48 C 228.57 197.54 226.72 197.60 224.87 197.64 C 224.09 196.81 223.31 195.99 222.52 195.17 C 222.45 194.26 222.39 193.35 222.33 192.45 C 223.84 191.50 225.38 190.59 226.95 189.73 Z" fill="#f7672a" opacity="1.00" stroke="#f7672a" stroke-width="0.25" data-index="19" style="opacity: 1; visibility: visible; fill: rgb(203, 243, 255);"></path>
<path d="M 238.95 196.14 C 239.47 193.78 239.76 191.08 241.78 189.46 C 244.45 189.69 246.54 191.55 248.71 192.94 C 247.93 194.47 247.24 196.10 246.04 197.36 C 243.95 197.79 241.80 197.53 239.70 197.45 C 241.58 196.68 243.45 195.91 245.31 195.10 C 245.41 194.66 245.61 193.79 245.70 193.35 C 244.70 193.41 243.69 193.47 242.69 193.53 C 241.45 194.40 240.20 195.28 238.95 196.14 Z" fill="#f7672a" opacity="1.00" stroke="#f7672a" stroke-width="0.25" data-index="20" style="opacity: 1; visibility: visible; fill: rgb(203, 243, 255);"></path>
<path d="M 233.22 197.59 C 233.49 195.91 233.62 193.90 235.81 194.25 C 236.07 195.10 236.58 196.80 236.83 197.65 C 235.63 197.63 234.42 197.61 233.22 197.59 Z" fill="#f7672a" opacity="1.00" stroke="#f7672a" stroke-width="0.25" data-index="21" style="opacity: 1; visibility: visible; fill: rgb(203, 243, 255);"></path>
<path d="M 213.26 200.17 C 219.06 199.64 224.89 199.64 230.70 199.98 C 230.70 202.23 230.70 204.49 230.68 206.75 C 224.90 206.75 219.13 206.80 213.35 206.72 C 213.31 204.53 213.28 202.35 213.26 200.17 Z" fill="#f7672a" opacity="1.00" stroke="#f7672a" stroke-width="0.25" data-index="22" style="opacity: 1; visibility: visible; fill: rgb(203, 243, 255);"></path>
<path d="M 232.36 217.72 C 232.67 211.72 231.99 205.68 232.71 199.71 C 234.65 199.40 236.54 199.94 238.39 200.48 C 238.10 206.20 238.67 211.96 237.70 217.64 C 235.92 217.66 234.14 217.68 232.36 217.72 Z" fill="#f7672a" opacity="1.00" stroke="#f7672a" stroke-width="0.25" data-index="23" style="opacity: 1; visibility: visible; fill: rgb(203, 243, 255);"></path>
<path d="M 239.62 200.35 C 245.46 199.19 251.49 199.71 257.38 200.27 C 257.36 202.40 257.34 204.54 257.34 206.68 C 251.52 207.19 245.69 206.48 239.86 206.73 C 239.78 204.60 239.71 202.48 239.62 200.35 Z" fill="#f7672a" opacity="1.00" stroke="#f7672a" stroke-width="0.25" data-index="24" style="opacity: 1; visibility: visible; fill: rgb(203, 243, 255);"></path>
<path d="M 216.32 208.51 C 221.05 208.55 225.77 208.57 230.50 208.55 C 230.56 211.83 230.59 215.11 230.57 218.38 C 225.82 219.08 221.04 219.61 216.24 219.81 C 216.26 216.04 216.26 212.28 216.32 208.51 Z" fill="#f7672a" opacity="1.00" stroke="#f7672a" stroke-width="0.25" data-index="25" style="opacity: 1; visibility: visible; fill: rgb(203, 243, 255);"></path>
<path d="M 239.71 216.90 C 239.79 214.08 240.02 211.27 240.30 208.46 C 244.97 208.52 249.65 208.54 254.32 208.49 C 254.33 211.10 254.34 213.72 254.33 216.33 C 249.45 216.01 244.59 216.76 239.71 216.90 Z" fill="#f7672a" opacity="1.00" stroke="#f7672a" stroke-width="0.25" data-index="26" style="opacity: 1; visibility: visible; fill: rgb(203, 243, 255);"></path>
<path d="M 258.64 212.50 C 259.34 213.30 260.19 213.95 261.28 214.10 C 260.31 214.66 259.34 215.23 258.38 215.81 C 258.45 214.98 258.57 213.33 258.64 212.50 Z" fill="#ffffff" opacity="1.00" stroke="#ffffff" stroke-width="0.25" data-index="27"></path>
<path d="M 253.83 220.74 C 257.93 217.59 263.89 214.12 269.04 217.01 C 266.70 218.54 264.27 219.94 261.67 220.97 C 261.53 221.34 261.24 222.08 261.10 222.45 C 264.83 222.71 268.60 222.89 272.24 223.82 C 272.45 224.52 272.86 225.91 273.07 226.61 C 274.08 225.38 275.12 224.18 276.19 223.00 C 272.58 222.41 269.06 221.42 265.47 220.81 C 267.20 220.15 268.94 219.50 270.71 218.95 C 272.63 219.77 274.60 220.44 276.49 221.32 C 276.71 224.16 276.75 227.02 276.69 229.87 C 275.41 229.02 274.74 227.83 274.67 226.32 C 274.07 226.58 272.87 227.09 272.28 227.35 C 270.01 226.37 267.56 226.49 265.17 226.84 C 265.24 227.68 265.38 229.36 265.45 230.19 C 264.38 230.40 262.22 230.81 261.15 231.01 C 261.89 231.54 262.64 232.06 263.39 232.58 C 264.66 232.10 265.94 231.62 267.21 231.15 C 267.25 230.32 267.32 228.67 267.35 227.85 C 270.72 228.26 273.73 229.91 276.59 231.63 C 277.77 234.46 278.26 237.52 278.91 240.51 C 268.72 242.78 256.53 245.37 247.44 238.70 C 251.78 237.48 256.28 238.64 260.69 238.67 C 260.63 238.19 260.51 237.24 260.45 236.76 C 256.83 236.68 253.25 236.20 249.63 236.11 C 253.76 235.10 257.73 233.55 261.94 232.89 C 260.21 231.45 258.05 231.38 255.90 231.44 C 254.92 227.94 254.25 224.35 253.83 220.74 Z" fill="#fdcdb5" opacity="1.00" stroke="#fdcdb5" stroke-width="0.25" data-index="28" style="opacity: 1;"></path>
<path d="M 242.71 220.74 C 244.99 220.38 247.29 220.19 249.60 220.17 C 248.09 222.49 244.72 222.12 242.71 220.74 Z" fill="#053254" opacity="1.00" stroke="#053254" stroke-width="0.25" data-index="29"></path>
<path d="M 242.83 225.37 C 245.00 224.04 247.92 222.68 250.10 224.84 C 247.71 225.37 245.26 225.46 242.83 225.37 Z" fill="#053254" opacity="1.00" stroke="#053254" stroke-width="0.25" data-index="30" style="opacity: 1;"></path>
<path d="M 244.09 228.12 C 246.21 227.71 248.34 227.39 250.49 227.27 C 249.22 228.78 247.29 229.21 245.45 229.61 C 245.11 229.24 244.43 228.49 244.09 228.12 Z" fill="#053254" opacity="1.00" stroke="#053254" stroke-width="0.25" data-index="31" style="opacity: 1;"></path>
<path d="M 220.89 239.87 C 229.47 239.00 238.07 238.16 246.49 236.28 C 245.89 238.87 247.38 241.18 249.74 242.17 C 258.33 246.13 268.12 244.43 277.06 242.74 C 290.43 242.39 303.82 240.54 316.75 237.03 C 317.12 245.02 317.31 253.02 317.47 261.02 C 319.33 261.58 320.12 263.05 319.92 264.94 C 320.50 286.60 321.11 308.26 321.70 329.92 C 321.87 333.82 321.48 337.82 322.52 341.64 C 323.57 344.80 326.21 347.06 327.72 349.98 C 328.37 355.06 328.02 360.21 328.17 365.32 C 321.56 367.91 316.48 372.98 310.57 376.74 C 305.57 380.14 300.93 384.53 294.80 385.76 C 289.58 387.34 283.79 384.53 280.87 380.15 C 277.97 375.74 278.42 370.25 278.57 365.23 C 265.35 372.30 251.21 377.56 236.92 382.00 C 226.90 384.67 217.31 374.74 217.59 365.04 C 217.53 360.26 221.27 356.80 223.74 353.10 C 218.68 354.11 213.84 355.94 209.27 358.30 C 202.35 361.78 194.86 364.02 188.05 367.72 C 190.87 336.03 194.32 304.39 197.47 272.73 C 199.70 271.62 199.14 269.01 199.28 266.99 C 199.53 257.11 199.96 247.23 200.09 237.35 C 206.53 240.55 213.89 240.73 220.89 239.87 Z" fill="#cbf3ff" opacity="1.00" stroke="#cbf3ff" stroke-width="0.25" data-index="32" style="opacity: 1; visibility: visible; fill: rgb(255, 255, 255); display: none;"></path>
<path d="M 157.64 269.27 C 157.41 266.24 157.12 262.91 159.15 260.37 C 159.71 263.45 159.37 266.62 157.64 269.27 Z" fill="#053254" opacity="1.00" stroke="#053254" stroke-width="0.25" data-index="33"></path>
<path d="M 179.82 261.73 C 180.26 261.62 181.16 261.41 181.61 261.30 C 181.50 264.00 181.36 266.71 181.26 269.41 C 180.82 269.53 179.94 269.77 179.49 269.89 C 179.61 267.17 179.73 264.45 179.82 261.73 Z" fill="#053254" opacity="1.00" stroke="#053254" stroke-width="0.25" data-index="34"></path>
<path d="M 160.53 268.36 C 161.02 266.01 161.16 263.43 162.73 261.49 C 162.77 263.92 162.61 266.35 162.43 268.78 C 161.96 268.67 161.01 268.46 160.53 268.36 Z" fill="#053254" opacity="1.00" stroke="#053254" stroke-width="0.25" data-index="35"></path>
<path d="M 166.81 261.62 C 168.79 264.12 167.60 267.57 166.58 270.28 C 165.80 267.41 166.18 264.47 166.81 261.62 Z" fill="#053254" opacity="1.00" stroke="#053254" stroke-width="0.25" data-index="36" style="opacity: 1;"></path>
<path d="M 170.53 262.23 C 171.01 262.27 171.98 262.36 172.46 262.40 C 172.21 265.10 171.82 267.82 170.59 270.27 C 170.36 267.59 170.41 264.91 170.53 262.23 Z" fill="#053254" opacity="1.00" stroke="#053254" stroke-width="0.25" data-index="37"></path>
<path d="M 176.10 270.26 C 174.90 267.62 174.18 263.66 176.66 261.58 C 176.75 264.48 176.55 267.39 176.10 270.26 Z" fill="#053254" opacity="1.00" stroke="#053254" stroke-width="0.25" data-index="38"></path>
<path d="M 209.27 358.30 C 213.84 355.94 218.68 354.11 223.74 353.10 C 221.27 356.80 217.53 360.26 217.59 365.04 C 217.31 374.74 226.90 384.67 236.92 382.00 C 251.21 377.56 265.35 372.30 278.57 365.23 C 278.42 370.25 277.97 375.74 280.87 380.15 C 283.79 384.53 289.58 387.34 294.80 385.76 C 300.93 384.53 305.57 380.14 310.57 376.74 C 316.48 372.98 321.56 367.91 328.17 365.32 C 328.33 381.29 328.73 397.26 328.81 413.23 C 330.05 413.25 331.30 413.27 332.56 413.31 C 332.51 414.66 332.46 416.02 332.43 417.38 C 324.45 421.79 316.55 426.33 308.63 430.84 C 306.44 432.01 307.01 434.82 306.79 436.87 C 272.06 436.89 237.33 436.95 202.60 436.82 C 202.54 435.08 202.62 433.32 202.35 431.61 C 195.76 426.17 187.46 423.41 180.40 418.68 C 179.95 415.89 180.36 413.04 180.41 410.24 C 181.51 410.21 182.61 410.19 183.72 410.18 C 185.32 396.05 186.31 381.82 188.05 367.72 C 194.86 364.02 202.35 361.78 209.27 358.30 Z" fill="#ffffff" opacity="1.00" stroke="#ffffff" stroke-width="0.25" data-index="39" style="opacity: 1; visibility: visible; display: none;"></path>

<path d="M 103.49 396.49 C 107.28 392.86 111.20 389.38 115.10 385.89 C 117.57 388.39 119.88 391.05 122.09 393.78 C 119.03 396.61 116.50 400.07 113.02 402.43 C 108.71 403.52 105.57 399.66 103.49 396.49 Z" fill="#fdcdb5" opacity="1.00" stroke="#fdcdb5" stroke-width="0.25" data-index="41"></path>
<path d="M 357.57 391.20 C 361.95 396.79 365.98 402.65 369.94 408.54 C 371.85 407.22 373.75 405.89 375.63 404.53 C 376.56 405.78 377.42 407.10 378.18 408.47 C 375.06 415.79 372.53 423.34 369.93 430.86 C 368.93 432.90 369.88 435.04 370.58 437.01 C 364.33 436.76 358.08 436.93 351.84 436.88 C 351.91 429.12 351.93 421.35 350.48 413.70 C 352.49 413.70 354.50 413.70 356.51 413.71 C 356.62 406.19 357.31 398.70 357.57 391.20 Z" fill="#ffffff" opacity="1.00" stroke="#ffffff" stroke-width="0.25" data-index="42" style="opacity: 1; visibility: visible;"></path>
<path d="M 380.98 415.15 C 387.09 411.37 390.75 404.66 396.93 401.03 C 398.14 402.83 400.12 404.32 400.58 406.54 C 395.47 410.57 390.22 414.43 385.26 418.66 C 382.44 418.35 379.65 417.88 376.87 417.38 C 377.43 415.81 378.04 414.27 378.80 412.79 C 379.34 413.38 380.43 414.56 380.98 415.15 Z" fill="#f7672a" opacity="1.00" stroke="#f7672a" stroke-width="0.25" data-index="43"></path>
<path d="M 108.07 404.33 C 111.05 404.48 114.00 404.01 116.86 403.22 C 118.71 407.85 120.55 412.49 122.66 417.01 C 122.52 417.20 122.25 417.58 122.11 417.77 C 117.68 413.03 112.99 408.55 108.07 404.33 Z" fill="#81d43e" opacity="1.00" stroke="#81d43e" stroke-width="0.25" data-index="44"></path>
<path d="M 370.89 432.69 C 380.79 423.69 391.66 415.86 401.97 407.36 C 403.25 408.98 404.53 410.59 405.84 412.19 C 395.36 419.98 384.96 427.89 374.39 435.56 C 372.48 436.96 371.44 434.05 370.89 432.69 Z" fill="#ffffff" opacity="1.00" stroke="#ffffff" stroke-width="0.25" data-index="45" style="opacity: 1;"></path>
<path d="M 166.69 410.32 C 170.67 410.22 174.65 410.20 178.64 410.14 C 178.43 414.74 179.05 419.79 175.91 423.62 C 172.82 424.04 169.70 424.24 166.58 424.12 C 166.58 419.52 166.67 414.92 166.69 410.32 Z" fill="#fdcdb5" opacity="1.00" stroke="#fdcdb5" stroke-width="0.25" data-index="46"></path>
<path d="M 334.35 417.39 C 339.36 417.51 344.37 417.65 349.38 417.64 C 349.71 421.89 350.51 426.16 349.81 430.43 C 342.80 429.91 335.69 430.98 328.75 429.62 C 328.41 427.01 327.93 424.44 327.45 421.86 C 329.33 420.92 331.21 419.97 333.10 419.03 C 333.41 418.62 334.04 417.80 334.35 417.39 Z" fill="#f7672a" opacity="1.00" stroke="#f7672a" stroke-width="0.25" data-index="47" style="opacity: 1;"></path>
<path d="M 376.00 419.00 C 378.32 419.34 380.63 419.71 382.97 420.04 C 379.53 423.13 376.01 426.12 372.42 429.02 C 373.59 425.67 374.76 422.32 376.00 419.00 Z" fill="#ffffff" opacity="1.00" stroke="#ffffff" stroke-width="0.25" data-index="48"></path>
<path d="M 176.22 425.28 C 178.02 424.23 178.76 422.13 179.87 420.48 C 184.38 423.00 188.88 425.56 193.28 428.27 C 185.22 427.50 176.75 429.55 169.01 426.73 C 171.40 426.21 173.86 425.97 176.22 425.28 Z" fill="#81d43e" opacity="1.00" stroke="#81d43e" stroke-width="0.25" data-index="49"></path>
<path d="M 313.05 430.17 C 317.46 427.98 321.61 425.34 325.99 423.10 C 326.43 425.47 326.97 427.83 327.54 430.18 C 322.71 430.09 317.88 430.11 313.05 430.17 Z" fill="#ffffff" opacity="1.00" stroke="#ffffff" stroke-width="0.25" data-index="50" style="opacity: 1;"></path>
<path d="M 309.19 432.40 C 310.95 431.38 313.04 431.88 314.97 431.82 C 326.68 431.98 338.39 431.87 350.10 431.88 C 350.19 433.51 350.28 435.14 350.38 436.78 C 336.94 436.90 323.49 437.00 310.05 436.74 C 307.96 436.87 308.43 433.56 309.19 432.40 Z" fill="#ffffff" opacity="1.00" stroke="#ffffff" stroke-width="0.25" data-index="51" style="opacity: 1;"></path>
<path d="M220.89,239.87c8.58,-0.87 17.18,-1.71 25.6,-3.59c-0.6,2.59 0.89,4.9 3.25,5.89c8.59,3.96 18.38,2.26 27.32,0.57c13.37,-0.35 26.76,-2.2 39.69,-5.71c0.37,7.99 0.56,15.99 0.72,23.99c1.86,0.56 2.65,2.03 2.45,3.92c0.58,21.66 1.19,43.32 1.78,64.98c0.17,3.9 -0.22,7.9 0.82,11.72c1.05,3.16 3.69,5.42 5.2,8.34c0.65,5.08 0.3,10.23 0.45,15.34c0.16,15.97 0.56,31.94 0.64,47.91c1.24,0.02 2.49,0.04 3.75,0.08c-0.05,1.35 -0.1,2.71 -0.13,4.07c-7.98,4.41 -15.88,8.95 -23.8,13.46c-2.19,1.17 -1.62,3.98 -1.84,6.03c-34.73,0.02 -69.46,0.08 -104.19,-0.05c-0.06,-1.74 0.02,-3.5 -0.25,-5.21c-6.59,-5.44 -14.89,-8.2 -21.95,-12.93c-0.45,-2.79 -0.04,-5.64 0.01,-8.44c1.1,-0.03 2.2,-0.05 3.31,-0.06c1.6,-14.13 2.59,-28.36 4.33,-42.46c2.82,-31.69 6.27,-63.33 9.42,-94.99c2.23,-1.11 1.67,-3.72 1.81,-5.74c0.25,-9.88 0.68,-19.76 0.81,-29.64c6.44,3.2 13.8,3.38 20.8,2.52zM328.17,365.32c-6.61,2.59 -11.69,7.66 -17.6,11.42c5.91,-3.76 10.99,-8.83 17.6,-11.42zM280.87,380.15c-2.9,-4.41 -2.45,-9.9 -2.3,-14.92c-0.15,5.02 -0.6,10.51 2.3,14.92zM278.57,365.23c-13.22,7.07 -27.36,12.33 -41.65,16.77c14.29,-4.44 28.43,-9.7 41.65,-16.77zM209.27,358.3c-6.92,3.48 -14.41,5.72 -21.22,9.42c6.81,-3.7 14.3,-5.94 21.22,-9.42z" id="path-32 1" fill="url(#grad-52)" fill-rule="nonzero" stroke="url(#grad-52)" stroke-width="0.25" stroke-linecap="butt" stroke-linejoin="miter" stroke-miterlimit="10" stroke-dasharray="" stroke-dashoffset="0" font-family="none" font-weight="none" font-size="none" text-anchor="none" style="mix-blend-mode: normal; opacity: 1;" data-index="52"></path></svg>