<svg xmlns="http://www.w3.org/2000/svg" height="512pt" version="1.1" viewBox="0 0 512 512" width="512pt"><defs>
                <linearGradient id="grad-63" gradientTransform="rotate(0 0.5 0.5)">
                
                        <stop stop-color="#e69b80" offset="0"></stop>
                    ,
                        <stop stop-color="#e69b80" offset="0.5"></stop>
                    
                </linearGradient>
          </defs>

<path d="M 243.11 98.33 C 249.66 94.54 257.38 91.72 265.00 93.68 C 268.00 94.41 270.38 96.54 271.72 99.28 C 274.52 99.57 276.49 102.02 277.21 104.59 C 278.58 109.94 278.53 115.76 276.47 120.93 C 278.74 124.75 276.20 129.24 272.08 130.07 C 271.40 133.93 271.31 138.92 267.62 141.24 L 266.42 141.09 C 268.97 137.65 269.71 133.45 270.43 129.35 C 272.01 127.89 274.81 127.43 275.24 125.01 C 275.71 123.41 274.64 121.73 273.47 120.72 C 271.72 120.87 270.04 121.42 268.34 121.78 C 268.30 119.04 268.38 116.28 268.03 113.54 C 267.92 112.93 267.70 111.71 267.59 111.10 C 264.45 110.29 261.09 108.65 257.87 110.02 C 254.06 111.51 250.08 112.47 245.99 112.74 C 246.37 113.02 247.12 113.58 247.50 113.86 C 247.14 114.32 246.44 115.25 246.09 115.72 C 243.87 115.56 241.63 115.44 239.46 114.94 C 239.38 114.09 239.22 112.39 239.14 111.54 L 238.77 111.79 C 237.94 111.60 237.11 111.42 236.29 111.22 C 235.70 109.16 233.97 107.72 233.20 105.75 C 231.92 102.67 232.30 99.24 232.43 96.00 C 235.36 98.47 239.42 100.71 243.11 98.33 Z" fill="#1c2b43" opacity="1.00" stroke="#1c2b43" stroke-width="0.25" data-index="1" style="opacity: 1;"></path>
<path d="M 241.92 100.76 C 247.13 99.36 251.44 95.29 257.01 95.17 C 260.55 94.99 264.36 94.87 267.58 96.59 C 268.57 97.95 269.25 99.51 270.23 100.89 C 271.77 101.99 274.24 102.09 274.89 104.16 C 276.53 108.58 275.79 113.44 275.69 118.05 C 273.95 117.92 272.22 117.76 270.50 117.54 C 269.96 114.84 270.34 111.66 268.55 109.40 C 265.01 107.98 260.87 106.59 257.14 108.11 C 252.29 109.78 247.04 110.65 241.93 109.97 C 237.30 109.53 233.99 104.91 234.21 100.43 C 236.75 100.80 239.39 101.60 241.92 100.76 Z" fill="#533936" opacity="1.00" stroke="#533936" stroke-width="0.25" data-index="2"></path>

<path d="M 141.45 107.61 C 142.49 107.08 144.26 106.82 144.57 108.35 C 145.15 110.19 143.51 111.30 142.26 112.27 C 135.18 117.72 129.62 125.09 126.22 133.35 C 125.73 135.40 122.78 135.98 121.72 134.03 C 121.62 132.57 122.39 131.26 122.90 129.94 C 126.85 120.98 133.39 113.15 141.45 107.61 Z" fill="#9be8f9" opacity="1.00" stroke="#9be8f9" stroke-width="0.25" data-index="4" style="visibility: hidden; opacity: 1;"></path>
<path d="M 257.87 110.02 C 261.09 108.65 264.45 110.29 267.59 111.10 C 267.70 111.71 267.92 112.93 268.03 113.54 C 266.78 113.14 265.55 112.72 264.28 112.38 C 261.30 112.07 258.41 112.97 255.65 113.98 C 253.60 112.59 251.29 113.19 249.07 113.69 C 248.68 113.73 247.89 113.82 247.50 113.86 C 247.12 113.58 246.37 113.02 245.99 112.74 C 250.08 112.47 254.06 111.51 257.87 110.02 Z" fill="#e5b09f" opacity="1.00" stroke="#e5b09f" stroke-width="0.25" data-index="5"></path>

<path d="M 237.90 113.09 C 238.12 112.77 238.55 112.11 238.77 111.79 L 239.14 111.54 C 239.22 112.39 239.38 114.09 239.46 114.94 C 241.63 115.44 243.87 115.56 246.09 115.72 C 247.58 116.78 249.78 115.63 249.07 113.69 C 251.29 113.19 253.60 112.59 255.65 113.98 C 255.05 114.89 254.46 115.81 253.90 116.75 C 257.13 116.44 260.56 116.37 263.48 114.79 C 263.68 114.19 264.08 112.98 264.28 112.38 C 265.55 112.72 266.78 113.14 268.03 113.54 C 268.38 116.28 268.30 119.04 268.34 121.78 C 270.04 121.42 271.72 120.87 273.47 120.72 C 274.64 121.73 275.71 123.41 275.24 125.01 C 274.81 127.43 272.01 127.89 270.43 129.35 C 269.71 133.45 268.97 137.65 266.42 141.09 C 263.83 144.35 260.05 146.61 255.96 147.39 C 248.34 148.47 240.05 143.37 238.47 135.64 C 237.01 128.21 237.89 120.60 237.90 113.09 Z" fill="#e69b80" opacity="1.00" stroke="#e69b80" stroke-width="0.25" data-index="7" style="opacity: 1; display: block;"></path>
<path d="M 255.65 113.98 C 258.41 112.97 261.30 112.07 264.28 112.38 C 264.08 112.98 263.68 114.19 263.48 114.79 C 260.56 116.37 257.13 116.44 253.90 116.75 C 254.46 115.81 255.05 114.89 255.65 113.98 Z" fill="#362a2e" opacity="1.00" stroke="#362a2e" stroke-width="0.25" data-index="8"></path>
<path d="M 236.16 113.55 C 236.60 113.43 237.46 113.21 237.90 113.09 C 237.89 120.60 237.01 128.21 238.47 135.64 C 240.05 143.37 248.34 148.47 255.96 147.39 C 260.05 146.61 263.83 144.35 266.42 141.09 L 267.62 141.24 C 271.45 141.87 275.07 139.69 278.88 139.47 C 289.93 137.22 301.01 140.25 311.92 141.87 C 311.75 143.73 311.60 145.58 311.46 147.44 C 313.73 147.73 315.98 148.23 318.15 148.99 C 316.11 148.65 314.06 148.40 312.01 148.17 C 312.75 148.66 313.50 149.14 314.26 149.60 C 313.48 149.55 311.93 149.45 311.15 149.40 C 310.61 154.60 309.99 159.80 309.42 165.00 C 316.77 166.37 321.94 172.15 326.25 177.82 C 332.23 185.03 336.88 193.18 342.21 200.85 C 342.59 201.53 343.37 202.89 343.76 203.58 C 343.19 204.35 342.64 205.12 342.08 205.90 C 341.68 204.41 341.10 203.01 340.34 201.68 C 334.59 191.99 328.25 182.61 320.88 174.08 C 317.78 170.55 313.79 167.34 308.90 167.10 C 308.78 168.55 308.65 170.00 308.52 171.45 C 303.91 170.63 299.23 170.35 294.63 169.53 C 292.77 187.64 290.95 205.78 288.78 223.85 C 288.49 225.10 288.17 226.34 287.82 227.57 L 286.64 227.83 C 286.95 224.76 287.29 221.69 287.60 218.63 C 275.65 218.38 263.03 218.65 252.39 224.83 C 246.23 227.77 239.33 228.02 232.63 227.72 C 232.63 229.23 232.62 230.75 232.63 232.27 C 239.68 232.17 246.71 231.39 253.77 231.48 C 252.26 232.27 250.77 233.33 248.98 233.22 C 242.98 233.34 236.98 233.39 230.99 233.14 C 231.12 230.92 231.26 228.71 231.40 226.49 C 232.95 226.36 234.49 226.23 236.04 226.14 C 242.32 226.15 248.66 225.01 254.20 221.96 C 264.52 216.43 276.57 216.70 287.94 216.78 C 289.40 200.88 291.44 185.02 292.76 169.11 C 286.92 167.52 279.67 165.89 276.88 159.85 C 280.39 161.45 283.17 164.34 286.87 165.57 C 293.35 167.96 300.28 168.51 307.08 169.38 C 308.00 160.75 309.22 152.15 310.00 143.50 C 304.37 142.28 298.68 141.38 292.96 140.71 C 283.99 139.67 275.02 141.68 266.53 144.42 C 265.68 147.82 264.78 151.58 261.82 153.80 C 259.10 155.99 254.89 157.39 251.78 155.20 C 249.39 153.69 248.66 150.81 247.94 148.27 C 245.23 146.84 242.29 144.73 239.13 146.19 C 226.19 149.11 218.26 160.57 209.24 169.24 C 214.89 175.09 221.23 180.23 227.09 185.87 C 229.21 183.74 231.33 181.60 233.37 179.40 C 233.38 180.00 233.39 181.20 233.40 181.80 C 231.59 183.76 230.05 185.98 227.98 187.68 C 226.71 188.11 225.69 186.88 224.60 186.46 C 224.20 185.93 223.81 185.42 223.40 184.92 C 218.73 180.86 214.33 176.49 209.58 172.52 C 209.23 172.23 208.54 171.64 208.19 171.35 C 207.80 170.55 207.42 169.75 207.03 168.96 C 214.41 162.04 220.63 153.75 229.29 148.32 C 232.83 146.02 236.91 144.77 241.04 144.01 C 233.47 135.68 236.54 123.71 236.16 113.55 Z" fill="#072a40" opacity="1.00" stroke="#072a40" stroke-width="0.25" data-index="9" style="opacity: 1;"></path>
<path d="M 247.50 113.86 C 247.89 113.82 248.68 113.73 249.07 113.69 C 249.78 115.63 247.58 116.78 246.09 115.72 C 246.44 115.25 247.14 114.32 247.50 113.86 Z" fill="#4a3029" opacity="1.00" stroke="#4a3029" stroke-width="0.25" data-index="10"></path>
<path d="M 242.19 120.17 C 242.94 118.55 245.08 119.68 246.38 119.78 C 246.52 121.25 246.65 122.72 246.79 124.19 C 246.05 124.59 244.57 125.39 243.84 125.79 C 241.83 124.66 240.67 122.22 242.19 120.17 Z" fill="#172e4d" opacity="1.00" stroke="#172e4d" stroke-width="0.25" data-index="11"></path>
<path d="M 257.57 119.55 C 259.08 119.78 261.28 119.17 261.96 121.03 C 263.51 123.02 260.30 126.87 258.24 124.74 C 256.38 123.73 257.55 121.21 257.57 119.55 Z" fill="#082135" opacity="1.00" stroke="#082135" stroke-width="0.25" data-index="12"></path>
<path d="M 246.01 131.57 C 245.25 127.62 247.02 123.49 248.64 119.93 C 249.43 121.66 248.94 123.52 248.53 125.28 C 248.25 126.49 247.71 127.74 248.03 129.00 L 248.64 129.13 C 249.26 129.29 250.50 129.59 251.12 129.75 L 251.25 130.41 C 251.13 130.66 250.87 131.14 250.74 131.38 C 249.16 131.46 247.58 131.52 246.01 131.57 Z" fill="#1e1d2d" opacity="1.00" stroke="#1e1d2d" stroke-width="0.25" data-index="13" style="opacity: 1;"></path>

<path d="M 145.62 127.71 C 147.83 125.52 149.98 122.55 153.37 122.40 C 153.25 123.84 154.24 125.72 152.96 126.84 C 148.37 131.05 143.93 135.73 141.67 141.65 C 140.48 144.20 140.26 147.68 137.21 148.76 C 136.37 147.33 134.93 145.85 135.82 144.07 C 137.84 137.99 141.57 132.61 145.62 127.71 Z" fill="#97e8f8" opacity="1.00" stroke="#97e8f8" stroke-width="0.25" data-index="15" style="opacity: 1; visibility: hidden;"></path>

<path d="M 342.20 126.21 C 347.43 126.21 350.29 131.29 353.25 134.85 C 361.13 143.88 366.30 155.20 368.23 167.01 C 368.39 168.93 369.07 171.37 367.07 172.59 C 365.36 173.26 364.25 171.34 364.20 169.93 C 362.74 159.63 358.88 149.64 352.81 141.18 C 349.70 137.32 346.30 133.70 343.09 129.92 C 342.07 128.95 342.36 127.45 342.20 126.21 Z" fill="#98e8fa" opacity="1.00" stroke="#98e8fa" stroke-width="0.25" data-index="17" style="visibility: hidden; opacity: 1;"></path>

<path d="M 256.11 131.34 C 256.47 131.27 257.19 131.12 257.55 131.05 C 257.43 133.24 257.92 135.66 256.72 137.65 C 254.80 141.62 248.40 143.16 245.36 139.66 C 244.04 138.37 243.40 136.60 242.62 134.97 C 242.93 134.40 243.56 133.27 243.87 132.70 C 248.00 132.83 252.10 132.34 256.11 131.34 Z" fill="#1e1d2d" opacity="1.00" stroke="#1e1d2d" stroke-width="0.25" data-index="19" style="opacity: 1; visibility: visible;"></path>
<path d="M 244.38 134.94 C 248.29 134.72 252.25 134.50 255.97 133.13 C 256.27 136.58 253.65 139.97 250.01 139.81 C 247.07 140.00 245.74 136.98 244.38 134.94 Z" fill="#fbfbfa" opacity="1.00" stroke="#fbfbfa" stroke-width="0.25" data-index="20" style="opacity: 1;"></path>

<path d="M 364.93 145.08 C 363.39 142.92 360.09 138.90 364.01 137.28 C 368.55 141.03 370.67 146.76 372.98 151.99 C 376.90 162.35 378.59 173.54 377.46 184.59 C 376.01 184.29 373.08 185.27 373.48 182.87 C 373.75 169.86 371.27 156.53 364.93 145.08 Z" fill="#98e7f8" opacity="1.00" stroke="#98e7f8" stroke-width="0.25" data-index="22" style="visibility: hidden; opacity: 1;"></path>
<path d="M 266.53 144.42 C 275.02 141.68 283.99 139.67 292.96 140.71 C 298.68 141.38 304.37 142.28 310.00 143.50 C 309.22 152.15 308.00 160.75 307.08 169.38 C 300.28 168.51 293.35 167.96 286.87 165.57 C 283.17 164.34 280.39 161.45 276.88 159.85 C 279.67 165.89 286.92 167.52 292.76 169.11 C 291.44 185.02 289.40 200.88 287.94 216.78 C 276.57 216.70 264.52 216.43 254.20 221.96 C 248.66 225.01 242.32 226.15 236.04 226.14 C 234.96 226.01 233.87 225.87 232.79 225.72 C 234.24 203.81 236.56 181.85 234.93 159.89 C 234.66 159.01 234.15 158.28 233.40 157.68 C 232.96 164.92 234.09 172.17 233.37 179.40 C 231.33 181.60 229.21 183.74 227.09 185.87 C 221.23 180.23 214.89 175.09 209.24 169.24 C 218.26 160.57 226.19 149.11 239.13 146.19 C 242.29 144.73 245.23 146.84 247.94 148.27 C 248.66 150.81 249.39 153.69 251.78 155.20 C 254.89 157.39 259.10 155.99 261.82 153.80 C 264.78 151.58 265.68 147.82 266.53 144.42 Z" fill="#81e7fe" opacity="1.00" stroke="#81e7fe" stroke-width="0.25" data-index="23" style="opacity: 1;"></path>
<path d="M 250.21 148.72 C 255.13 150.15 259.94 148.07 264.32 146.02 C 263.54 150.13 260.33 154.22 255.90 154.44 C 252.73 155.05 250.05 151.70 250.21 148.72 Z" fill="#e19b85" opacity="1.00" stroke="#e19b85" stroke-width="0.25" data-index="24" style="opacity: 1;"></path>
<path d="M 312.01 148.17 C 314.06 148.40 316.11 148.65 318.15 148.99 C 325.54 150.98 330.88 156.95 334.95 163.12 C 341.49 173.27 346.91 184.10 351.94 195.06 C 354.17 198.11 357.22 200.45 359.62 203.37 C 363.56 207.99 368.39 211.90 371.57 217.14 C 371.00 217.38 369.87 217.86 369.30 218.10 C 369.28 219.86 369.54 222.37 367.07 222.43 C 365.35 222.52 365.03 225.16 363.02 224.37 C 358.94 222.56 355.89 219.16 352.20 216.74 C 352.01 219.53 353.91 223.27 351.12 225.31 C 349.57 226.22 348.33 224.61 347.51 223.56 C 344.58 218.61 343.70 212.81 342.25 207.33 C 342.83 206.58 343.40 205.83 343.99 205.08 C 344.18 206.76 344.44 208.43 344.76 210.10 C 345.10 211.96 345.60 213.79 346.16 215.61 C 347.15 218.79 348.48 221.91 350.68 224.46 C 350.69 221.60 350.49 218.75 350.21 215.91 C 350.65 215.47 351.53 214.58 351.97 214.14 C 352.94 214.88 353.91 215.63 354.88 216.39 C 357.81 218.74 360.65 221.51 364.50 222.21 C 362.66 219.38 360.18 217.03 357.47 215.03 C 358.05 214.47 358.63 213.92 359.22 213.37 C 362.11 215.96 364.61 219.14 368.26 220.73 C 365.94 217.40 362.80 214.81 360.10 211.82 C 360.27 211.17 360.60 209.86 360.76 209.21 C 363.21 212.14 366.40 214.30 369.26 216.79 C 363.70 210.97 358.41 204.89 352.85 199.06 C 350.91 196.89 349.40 194.39 348.28 191.71 C 344.62 183.36 340.21 175.36 335.63 167.48 C 332.26 162.31 328.88 156.79 323.53 153.44 C 320.72 151.55 317.47 150.54 314.26 149.60 C 313.50 149.14 312.75 148.66 312.01 148.17 Z" fill="#1e1d2d" opacity="1.00" stroke="#1e1d2d" stroke-width="0.25" data-index="25" style="opacity: 1;"></path>
<path d="M 311.15 149.40 C 311.93 149.45 313.48 149.55 314.26 149.60 C 317.47 150.54 320.72 151.55 323.53 153.44 C 328.88 156.79 332.26 162.31 335.63 167.48 C 340.21 175.36 344.62 183.36 348.28 191.71 C 349.40 194.39 350.91 196.89 352.85 199.06 C 355.29 202.60 358.54 205.51 360.76 209.21 C 360.60 209.86 360.27 211.17 360.10 211.82 C 359.35 211.94 357.86 212.19 357.11 212.32 C 357.05 212.94 356.93 214.17 356.87 214.78 C 356.37 215.18 355.38 215.99 354.88 216.39 C 353.91 215.63 352.94 214.88 351.97 214.14 C 351.53 214.58 350.65 215.47 350.21 215.91 C 349.83 216.30 349.05 217.07 348.66 217.46 C 347.82 216.84 346.99 216.22 346.16 215.61 C 345.60 213.79 345.10 211.96 344.76 210.10 C 344.34 206.91 344.86 203.22 342.21 200.85 C 336.88 193.18 332.23 185.03 326.25 177.82 C 321.94 172.15 316.77 166.37 309.42 165.00 C 309.99 159.80 310.61 154.60 311.15 149.40 Z" fill="#e9997e" opacity="1.00" stroke="#e9997e" stroke-width="0.25" data-index="26" style="opacity: 1;"></path>
<path d="M 233.40 157.68 C 234.15 158.28 234.66 159.01 234.93 159.89 C 236.56 181.85 234.24 203.81 232.79 225.72 C 233.87 225.87 234.96 226.01 236.04 226.14 C 234.49 226.23 232.95 226.36 231.40 226.49 C 231.26 228.71 231.12 230.92 230.99 233.14 C 236.98 233.39 242.98 233.34 248.98 233.22 C 250.77 233.33 252.26 232.27 253.77 231.48 C 263.92 230.35 274.17 230.17 284.22 228.27 C 284.83 228.16 286.04 227.94 286.64 227.83 L 287.82 227.57 C 288.17 226.34 288.49 225.10 288.78 223.85 C 289.24 239.95 294.48 255.57 300.86 270.24 C 302.17 269.81 302.59 268.36 303.35 267.36 C 308.04 259.62 313.41 252.31 318.02 244.53 C 317.10 244.55 315.25 244.59 314.33 244.61 C 314.21 237.91 315.64 231.33 315.86 224.65 C 327.68 225.84 339.65 226.91 351.03 230.57 C 353.99 231.58 357.14 232.33 359.73 234.17 C 360.42 235.70 359.21 237.11 357.86 237.68 C 353.54 239.69 348.92 240.88 344.29 241.90 C 342.58 246.07 340.22 249.93 338.38 254.05 C 339.53 254.61 340.68 255.18 341.82 255.76 C 335.26 267.39 329.26 279.45 321.11 290.09 C 314.61 298.90 302.81 304.19 292.02 300.85 C 283.81 298.85 278.07 292.15 273.50 285.48 C 269.25 278.59 265.04 271.66 260.91 264.70 C 257.80 267.34 255.77 270.93 253.29 274.11 C 244.88 285.55 235.85 296.64 228.99 309.12 C 226.23 313.94 224.42 319.42 224.62 325.03 C 223.90 344.12 223.02 363.20 222.20 382.28 C 221.54 382.25 220.24 382.18 219.59 382.15 C 219.46 393.81 219.03 405.48 219.44 417.14 C 218.70 417.12 217.97 417.07 217.24 417.02 C 217.40 410.83 217.36 404.65 217.54 398.47 C 210.76 397.82 203.96 396.77 197.15 396.90 C 196.22 391.49 197.66 386.02 197.57 380.57 C 196.75 380.57 195.13 380.56 194.32 380.55 C 194.33 362.68 194.41 344.80 193.75 326.93 C 192.86 313.59 197.68 300.83 202.86 288.79 C 210.97 270.67 221.00 253.49 230.30 235.97 C 231.37 222.36 232.16 208.66 233.04 195.01 C 233.35 190.61 233.69 186.20 233.40 181.80 C 233.39 181.20 233.38 180.00 233.37 179.40 C 234.09 172.17 232.96 164.92 233.40 157.68 Z" fill="#062e51" opacity="1.00" stroke="#062e51" stroke-width="0.25" data-index="27" style="opacity: 1;"></path>
<path d="M 146.32 174.98 C 145.87 171.29 145.34 166.84 148.68 164.27 C 151.58 164.81 151.83 167.66 152.42 170.00 C 153.67 175.13 158.38 178.72 158.87 184.12 C 168.50 185.84 178.41 185.68 188.05 184.15 C 191.74 183.38 195.62 182.86 198.94 180.99 C 202.41 178.18 205.30 174.73 208.19 171.35 C 208.54 171.64 209.23 172.23 209.58 172.52 C 206.39 176.32 203.27 180.36 199.01 183.01 C 195.18 184.81 190.94 185.47 186.81 186.20 C 176.86 187.45 166.58 187.95 156.80 185.36 C 156.66 182.86 156.07 180.41 154.59 178.36 C 152.13 174.75 150.53 170.68 149.24 166.54 C 146.54 169.60 148.50 173.98 148.37 177.61 C 141.74 175.87 135.58 172.30 128.62 171.95 C 131.61 176.09 138.17 174.96 141.04 179.39 C 135.97 179.29 131.74 175.68 126.64 175.89 C 129.71 179.96 136.90 178.51 138.69 183.57 C 134.25 182.57 130.07 180.59 125.54 179.95 C 128.05 184.00 133.69 183.82 137.65 185.72 C 137.60 186.20 137.50 187.16 137.45 187.63 C 133.86 186.63 130.22 185.73 126.51 185.33 C 135.27 191.07 145.70 193.84 155.92 195.87 C 170.15 199.20 185.02 202.73 199.60 199.36 C 208.93 197.51 217.36 192.22 223.40 184.92 C 223.81 185.42 224.20 185.93 224.60 186.46 C 218.53 193.23 210.76 198.78 201.76 200.74 C 188.33 204.41 174.35 201.91 161.06 198.97 C 152.63 196.84 143.92 195.63 135.88 192.15 C 131.94 190.39 127.22 189.66 124.33 186.17 C 124.74 185.61 125.56 184.49 125.97 183.92 C 123.89 182.50 123.58 179.76 125.64 178.16 C 125.41 176.45 125.65 174.91 127.44 174.26 C 127.31 172.92 127.06 170.26 129.07 170.29 C 135.13 170.26 140.63 173.29 146.32 174.98 Z" fill="#1f2433" opacity="1.00" stroke="#1f2433" stroke-width="0.25" data-index="28" style="opacity: 1;"></path>
<path d="M 148.37 177.61 C 148.50 173.98 146.54 169.60 149.24 166.54 C 150.53 170.68 152.13 174.75 154.59 178.36 C 156.07 180.41 156.66 182.86 156.80 185.36 L 156.02 185.03 C 154.22 180.55 151.87 176.32 149.35 172.21 C 149.03 174.01 148.71 175.81 148.37 177.61 Z" fill="#e5b09f" opacity="1.00" stroke="#e5b09f" stroke-width="0.25" data-index="29"></path>
<path d="M 128.62 171.95 C 135.58 172.30 141.74 175.87 148.37 177.61 C 148.71 175.81 149.03 174.01 149.35 172.21 C 151.87 176.32 154.22 180.55 156.02 185.03 L 156.80 185.36 C 166.58 187.95 176.86 187.45 186.81 186.20 C 190.94 185.47 195.18 184.81 199.01 183.01 C 203.27 180.36 206.39 176.32 209.58 172.52 C 214.33 176.49 218.73 180.86 223.40 184.92 C 217.36 192.22 208.93 197.51 199.60 199.36 C 185.02 202.73 170.15 199.20 155.92 195.87 C 145.70 193.84 135.27 191.07 126.51 185.33 C 130.22 185.73 133.86 186.63 137.45 187.63 C 137.50 187.16 137.60 186.20 137.65 185.72 C 133.69 183.82 128.05 184.00 125.54 179.95 C 130.07 180.59 134.25 182.57 138.69 183.57 C 136.90 178.51 129.71 179.96 126.64 175.89 C 131.74 175.68 135.97 179.29 141.04 179.39 C 138.17 174.96 131.61 176.09 128.62 171.95 Z" fill="#ea9b80" opacity="1.00" stroke="#ea9b80" stroke-width="0.25" data-index="30" style="opacity: 1;"></path>
<path d="M 249.90 181.09 C 250.93 178.06 250.94 174.42 253.38 172.09 C 254.07 175.93 252.23 179.62 251.20 183.24 C 249.36 185.35 249.28 182.37 249.90 181.09 Z" fill="#062e51" opacity="1.00" stroke="#062e51" stroke-width="0.25" data-index="31" style="opacity: 1;"></path>
<path d="M 265.27 193.36 C 266.05 192.23 266.23 189.78 268.30 190.64 C 266.14 197.14 262.31 202.94 258.42 208.51 C 257.85 208.49 256.72 208.44 256.16 208.42 C 259.49 203.59 262.92 198.76 265.27 193.36 Z" fill="#062e51" opacity="1.00" stroke="#062e51" stroke-width="0.25" data-index="32" style="opacity: 1;"></path>

<path d="M 360.10 211.82 C 362.80 214.81 365.94 217.40 368.26 220.73 C 364.61 219.14 362.11 215.96 359.22 213.37 C 358.63 213.92 358.05 214.47 357.47 215.03 C 360.18 217.03 362.66 219.38 364.50 222.21 C 360.65 221.51 357.81 218.74 354.88 216.39 C 355.38 215.99 356.37 215.18 356.87 214.78 C 356.93 214.17 357.05 212.94 357.11 212.32 C 357.86 212.19 359.35 211.94 360.10 211.82 Z" fill="#e5b09f" opacity="1.00" stroke="#e5b09f" stroke-width="0.25" data-index="34" style="opacity: 1;"></path>
<path d="M 346.16 215.61 C 346.99 216.22 347.82 216.84 348.66 217.46 C 349.05 217.07 349.83 216.30 350.21 215.91 C 350.49 218.75 350.69 221.60 350.68 224.46 C 348.48 221.91 347.15 218.79 346.16 215.61 Z" fill="#e5b09f" opacity="1.00" stroke="#e5b09f" stroke-width="0.25" data-index="35"></path>
<path d="M 252.39 224.83 C 263.03 218.65 275.65 218.38 287.60 218.63 C 287.29 221.69 286.95 224.76 286.64 227.83 C 286.04 227.94 284.83 228.16 284.22 228.27 C 284.43 225.76 286.71 222.47 284.79 220.36 C 279.17 219.84 273.49 220.36 267.92 221.10 C 262.58 221.70 257.81 224.67 252.39 224.83 Z" fill="#e5b09f" opacity="1.00" stroke="#e5b09f" stroke-width="0.25" data-index="36"></path>
<path d="M 267.92 221.10 C 273.49 220.36 279.17 219.84 284.79 220.36 C 286.71 222.47 284.43 225.76 284.22 228.27 C 274.17 230.17 263.92 230.35 253.77 231.48 C 246.71 231.39 239.68 232.17 232.63 232.27 C 232.62 230.75 232.63 229.23 232.63 227.72 C 239.33 228.02 246.23 227.77 252.39 224.83 C 257.81 224.67 262.58 221.70 267.92 221.10 Z" fill="#e89a80" opacity="1.00" stroke="#e89a80" stroke-width="0.25" data-index="37" style="opacity: 1;"></path>
<path d="M 317.59 226.62 C 331.23 228.28 345.56 229.09 358.01 235.45 C 351.48 238.83 344.22 240.31 336.97 241.14 C 330.06 241.85 323.15 242.85 316.19 242.77 C 316.51 237.37 317.19 232.01 317.59 226.62 Z" fill="#81e7fe" opacity="1.00" stroke="#81e7fe" stroke-width="0.25" data-index="38" style="opacity: 1;"></path>

<path d="M 178.79 229.81 C 180.46 228.37 181.87 230.59 182.66 231.85 C 179.85 235.28 176.57 238.29 173.83 241.77 C 162.17 256.80 155.60 275.95 156.35 295.02 C 156.37 297.97 156.74 301.04 155.55 303.85 C 154.50 303.51 153.45 303.18 152.40 302.85 C 151.34 291.53 151.88 279.98 155.22 269.05 C 155.99 263.87 159.09 259.57 160.69 254.68 C 165.04 245.32 171.31 236.90 178.79 229.81 Z" fill="#96e9f9" opacity="1.00" stroke="#96e9f9" stroke-width="0.25" data-index="40" style="opacity: 1; visibility: hidden;"></path>

<path d="M 319.83 244.58 C 327.20 244.15 334.54 243.30 341.85 242.29 C 340.43 245.90 338.56 249.31 336.80 252.77 C 332.55 250.72 328.30 248.64 323.88 246.98 C 322.44 246.36 320.75 245.97 319.83 244.58 Z" fill="#f9ffff" opacity="1.00" stroke="#f9ffff" stroke-width="0.25" data-index="42" style="opacity: 1;"></path>
<path d="M 244.50 249.41 C 243.53 247.82 246.10 247.86 247.04 247.98 C 252.73 248.39 258.21 253.30 258.77 259.03 C 256.25 258.04 256.05 254.72 254.00 253.12 C 251.58 250.40 247.89 249.91 244.50 249.41 Z" fill="#ebffff" opacity="1.00" stroke="#ebffff" stroke-width="0.25" data-index="43"></path>
<path d="M 300.41 272.25 C 300.82 272.20 301.64 272.10 302.05 272.05 C 303.89 275.58 304.73 279.59 304.68 283.57 C 304.25 283.44 303.39 283.19 302.96 283.06 C 302.85 279.31 301.74 275.72 300.41 272.25 Z" fill="#ebffff" opacity="1.00" stroke="#ebffff" stroke-width="0.25" data-index="44" style="opacity: 1;"></path>

<path d="M 357.67 364.86 C 360.24 360.65 362.12 356.07 363.90 351.49 C 364.76 351.57 366.47 351.74 367.32 351.83 C 368.07 354.21 366.58 356.63 365.84 358.87 C 359.09 373.32 346.94 385.25 332.11 391.23 C 330.14 392.54 327.29 389.95 328.87 387.98 C 332.55 385.86 336.73 384.68 340.23 382.23 C 346.90 377.40 353.06 371.73 357.67 364.86 Z" fill="#96e8f8" opacity="1.00" stroke="#96e8f8" stroke-width="0.25" data-index="46" style="visibility: hidden; opacity: 1;"></path>
<path d="M 270.98 369.14 C 280.53 363.25 294.50 366.37 300.23 376.12 C 299.46 375.97 297.92 375.69 297.14 375.55 C 293.91 370.54 287.76 368.27 282.01 368.09 C 282.85 370.32 284.04 372.42 285.60 374.23 C 284.07 372.54 282.33 371.05 280.59 369.58 C 280.46 369.22 280.19 368.50 280.05 368.14 C 273.01 368.84 265.93 373.56 263.95 380.57 C 267.00 382.30 271.15 384.00 271.58 387.99 C 271.58 391.69 269.46 394.95 268.22 398.34 C 267.37 398.42 265.67 398.57 264.82 398.65 C 267.94 402.75 271.94 406.54 277.09 407.78 C 280.81 408.89 284.70 408.33 288.41 407.52 C 287.75 407.20 287.10 406.88 286.45 406.58 C 284.86 405.62 283.31 404.62 281.84 403.51 C 284.77 404.65 288.05 405.36 291.12 404.29 C 292.86 402.63 293.43 400.19 294.16 397.98 C 294.00 399.20 293.88 400.44 293.80 401.68 L 294.72 402.60 C 295.02 402.89 295.62 403.46 295.92 403.75 C 295.83 404.13 295.66 404.91 295.57 405.30 C 294.34 407.45 291.56 408.15 289.39 409.09 C 278.70 413.12 265.49 406.95 261.76 396.13 C 257.76 386.53 261.81 374.20 270.98 369.14 Z" fill="#142c43" opacity="1.00" stroke="#142c43" stroke-width="0.25" data-index="47" style="opacity: 1;"></path>

<path d="M 280.05 368.14 C 280.19 368.50 280.46 369.22 280.59 369.58 C 282.47 374.21 286.04 377.92 289.12 381.79 C 292.46 380.93 295.07 378.49 298.25 377.25 C 300.35 378.21 300.71 381.02 301.42 383.00 C 302.33 388.20 302.23 393.97 299.27 398.55 C 298.58 398.66 297.20 398.88 296.51 398.99 C 297.03 395.84 298.43 392.17 295.80 389.57 C 291.88 389.75 287.97 389.45 284.09 388.92 C 282.16 390.91 279.80 392.64 278.54 395.17 C 278.21 398.23 279.05 401.28 280.05 404.15 C 280.38 404.46 281.04 405.09 281.37 405.41 L 281.47 405.54 L 281.64 405.56 C 283.23 405.90 284.84 406.24 286.45 406.58 C 287.10 406.88 287.75 407.20 288.41 407.52 C 284.70 408.33 280.81 408.89 277.09 407.78 C 271.94 406.54 267.94 402.75 264.82 398.65 C 265.67 398.57 267.37 398.42 268.22 398.34 C 269.46 394.95 271.58 391.69 271.58 387.99 C 271.15 384.00 267.00 382.30 263.95 380.57 C 265.93 373.56 273.01 368.84 280.05 368.14 Z" fill="#f15b2f" opacity="1.00" stroke="#f15b2f" stroke-width="0.25" data-index="49"></path>
<path d="M 282.01 368.09 C 287.76 368.27 293.91 370.54 297.14 375.55 C 294.74 377.12 292.24 378.53 289.75 379.95 C 288.40 378.01 287.09 376.05 285.60 374.23 C 284.04 372.42 282.85 370.32 282.01 368.09 Z" fill="#fefeff" opacity="1.00" stroke="#fefeff" stroke-width="0.25" data-index="50"></path>
<path d="M 280.59 369.58 C 282.33 371.05 284.07 372.54 285.60 374.23 C 287.09 376.05 288.40 378.01 289.75 379.95 C 292.24 378.53 294.74 377.12 297.14 375.55 C 297.92 375.69 299.46 375.97 300.23 376.12 C 301.89 377.55 302.28 380.04 303.20 382.00 C 303.93 386.02 303.94 390.15 303.26 394.18 C 301.88 398.55 299.39 402.66 295.57 405.30 C 295.66 404.91 295.83 404.13 295.92 403.75 C 296.82 401.88 298.09 400.24 299.27 398.55 C 302.23 393.97 302.33 388.20 301.42 383.00 C 300.71 381.02 300.35 378.21 298.25 377.25 C 295.07 378.49 292.46 380.93 289.12 381.79 C 286.04 377.92 282.47 374.21 280.59 369.58 Z" fill="#1e1d2d" opacity="1.00" stroke="#1e1d2d" stroke-width="0.25" data-index="51"></path>
<path d="M 217.74 381.79 C 217.98 381.32 218.44 380.36 218.68 379.89 C 219.42 385.91 218.92 392.00 218.75 398.05 C 218.46 404.02 219.04 410.00 218.47 415.96 C 217.72 409.51 218.57 402.98 217.61 396.54 C 217.49 391.62 217.59 386.70 217.74 381.79 Z" fill="#052439" opacity="1.00" stroke="#052439" stroke-width="0.25" data-index="52"></path>
<path d="M 199.46 380.75 C 205.53 381.44 211.64 381.52 217.74 381.79 C 217.59 386.70 217.49 391.62 217.61 396.54 C 211.31 395.93 204.98 395.56 198.68 394.91 C 198.81 390.18 199.20 385.47 199.46 380.75 Z" fill="#fefeff" opacity="1.00" stroke="#fefeff" stroke-width="0.25" data-index="53" style="opacity: 1;"></path>
<path d="M 263.03 382.16 C 265.25 383.48 267.97 384.39 269.34 386.75 C 270.63 390.10 267.79 393.17 267.24 396.41 C 266.17 396.51 265.11 396.61 264.05 396.72 C 261.93 392.19 261.57 386.94 263.03 382.16 Z" fill="#f9ffff" opacity="1.00" stroke="#f9ffff" stroke-width="0.25" data-index="54"></path>
<path d="M 303.20 382.00 C 304.51 385.92 304.47 390.24 303.26 394.18 C 303.94 390.15 303.93 386.02 303.20 382.00 Z" fill="#98e6f8" opacity="1.00" stroke="#98e6f8" stroke-width="0.25" data-index="55"></path>
<path d="M 278.54 395.17 C 279.80 392.64 282.16 390.91 284.09 388.92 C 287.97 389.45 291.88 389.75 295.80 389.57 C 298.43 392.17 297.03 395.84 296.51 398.99 C 297.20 398.88 298.58 398.66 299.27 398.55 C 298.09 400.24 296.82 401.88 295.92 403.75 C 295.62 403.46 295.02 402.89 294.72 402.60 C 295.64 398.87 297.54 394.71 296.04 390.96 C 291.83 390.41 287.57 390.34 283.34 390.07 C 281.88 392.12 280.25 394.04 278.59 395.93 C 279.39 398.60 279.80 401.37 280.05 404.15 C 279.05 401.28 278.21 398.23 278.54 395.17 Z" fill="#e9997e" opacity="1.00" stroke="#e9997e" stroke-width="0.25" data-index="56" style="opacity: 1;"></path>
<path d="M 283.34 390.07 C 287.57 390.34 291.83 390.41 296.04 390.96 C 297.54 394.71 295.64 398.87 294.72 402.60 L 293.80 401.68 C 293.88 400.44 294.00 399.20 294.16 397.98 C 294.42 396.29 294.60 394.58 294.78 392.89 C 291.66 392.83 288.60 392.18 285.51 391.85 C 283.34 392.65 282.11 394.92 280.60 396.56 C 281.25 398.83 281.52 401.17 281.84 403.51 C 283.31 404.62 284.86 405.62 286.45 406.58 C 284.84 406.24 283.23 405.90 281.64 405.56 C 281.57 405.52 281.43 405.44 281.37 405.41 C 281.04 405.09 280.38 404.46 280.05 404.15 C 279.80 401.37 279.39 398.60 278.59 395.93 C 280.25 394.04 281.88 392.12 283.34 390.07 Z" fill="#1e1d2d" opacity="1.00" stroke="#1e1d2d" stroke-width="0.25" data-index="57"></path>
<path d="M 285.51 391.85 C 288.60 392.18 291.66 392.83 294.78 392.89 C 294.60 394.58 294.42 396.29 294.16 397.98 C 293.43 400.19 292.86 402.63 291.12 404.29 C 288.05 405.36 284.77 404.65 281.84 403.51 C 281.52 401.17 281.25 398.83 280.60 396.56 C 282.11 394.92 283.34 392.65 285.51 391.85 Z" fill="#fbfefd" opacity="1.00" stroke="#fbfefd" stroke-width="0.25" data-index="58"></path>
<path d="M 172.14 411.85 C 178.90 404.52 188.04 400.26 196.42 395.16 L 197.15 396.90 C 189.07 401.52 180.65 405.83 173.95 412.43 C 177.85 414.85 182.51 415.23 186.95 415.86 C 197.00 417.20 207.16 416.26 217.24 417.02 C 217.97 417.07 218.70 417.12 219.44 417.14 C 277.23 416.91 335.01 417.51 392.79 417.38 C 392.83 417.85 392.89 418.80 392.93 419.27 C 320.53 419.27 248.12 419.03 175.72 418.71 C 175.85 418.24 176.10 417.31 176.23 416.84 C 176.96 416.78 178.43 416.66 179.16 416.61 C 176.43 415.80 172.54 415.38 172.14 411.85 Z" fill="#072a48" opacity="1.00" stroke="#072a48" stroke-width="0.25" data-index="59" style="opacity: 1;"></path>
<path d="M 197.15 396.90 C 203.96 396.77 210.76 397.82 217.54 398.47 C 217.36 404.65 217.40 410.83 217.24 417.02 C 207.16 416.26 197.00 417.20 186.95 415.86 C 182.51 415.23 177.85 414.85 173.95 412.43 C 180.65 405.83 189.07 401.52 197.15 396.90 Z" fill="#83e7ff" opacity="1.00" stroke="#83e7ff" stroke-width="0.25" data-index="60" style="opacity: 1;"></path>
<path d="M 281.37 405.41 C 281.43 405.44 281.57 405.52 281.64 405.56 L 281.47 405.54 L 281.37 405.41 Z" fill="#e5b09f" opacity="1.00" stroke="#e5b09f" stroke-width="0.25" data-index="61"></path>
<path d="M 118.26 416.89 C 137.57 416.41 156.91 416.93 176.23 416.84 C 176.10 417.31 175.85 418.24 175.72 418.71 C 157.47 418.58 139.22 418.62 120.97 418.55 C 119.73 418.64 118.83 418.08 118.26 416.89 Z" fill="#082135" opacity="1.00" stroke="#082135" stroke-width="0.25" data-index="62"></path>
<path d="M237.9,113.09c0.22,-0.32 0.65,-0.98 0.87,-1.3l0.37,-0.25c0.08,0.85 0.24,2.55 0.32,3.4c2.17,0.5 4.41,0.62 6.63,0.78c1.49,1.06 3.69,-0.09 2.98,-2.03c2.22,-0.5 4.53,-1.1 6.58,0.29c-0.6,0.91 -1.19,1.83 -1.75,2.77c3.23,-0.31 6.66,-0.38 9.58,-1.96c0.2,-0.6 0.6,-1.81 0.8,-2.41c1.27,0.34 2.5,0.76 3.75,1.16c0.35,2.74 0.27,5.5 0.31,8.24c1.7,-0.36 3.38,-0.91 5.13,-1.06c1.17,1.01 2.24,2.69 1.77,4.29c-0.43,2.42 -3.23,2.88 -4.81,4.34c-0.72,4.1 -1.46,8.3 -4.01,11.74c-2.59,3.26 -6.37,5.52 -10.46,6.3c-7.62,1.08 -15.91,-4.02 -17.49,-11.75c-1.46,-7.43 -0.58,-15.04 -0.57,-22.55z" id="path-16 1" fill="url(#grad-63)" fill-rule="nonzero" stroke="url(#grad-63)" stroke-width="0.25" stroke-linecap="butt" stroke-linejoin="miter" stroke-miterlimit="10" stroke-dasharray="" stroke-dashoffset="0" font-family="none" font-weight="none" font-size="none" text-anchor="none" style="mix-blend-mode: normal; opacity: 1; display: none;" data-index="63"></path></svg>