<svg xmlns="http://www.w3.org/2000/svg" height="512pt" version="1.1" viewBox="0 0 512 512" width="512pt"><defs>
                <linearGradient id="grad-51" gradientTransform="rotate(31 0.5 0.5)">
                
                        <stop stop-color="#93e9fe" offset="0"></stop>
                    ,
                        <stop stop-color="#84e6fe" offset="0.5"></stop>
                    
                </linearGradient>
          </defs><defs>
                <linearGradient id="grad-50" gradientTransform="rotate(80 0.5 0.5)">
                
                        <stop stop-color="#93e9fe" offset="0"></stop>
                    ,
                        <stop stop-color="#84e6fe" offset="0.5"></stop>
                    
                </linearGradient>
          </defs>

<path d="M 319.63 252.58 C 324.47 247.46 332.17 244.92 338.99 247.18 C 342.96 248.30 345.84 251.43 348.49 254.42 C 350.00 256.33 351.75 258.49 351.67 261.07 C 350.60 261.20 349.54 261.33 348.49 261.46 C 344.36 261.69 340.23 261.35 336.11 261.61 C 333.74 261.58 331.71 263.52 331.19 265.76 C 330.97 266.45 330.53 267.82 330.31 268.51 C 328.70 268.08 327.12 267.29 325.41 267.51 C 324.54 268.53 324.59 269.94 324.31 271.19 C 325.51 271.94 326.72 272.71 327.93 273.47 C 327.63 275.93 326.76 278.24 325.37 280.30 C 324.25 280.13 323.15 279.97 322.02 279.88 C 321.78 279.45 321.28 278.58 321.04 278.15 C 319.76 275.02 317.28 272.47 316.42 269.16 C 314.74 263.62 315.44 256.87 319.63 252.58 Z" fill="#052f52" opacity="1.00" stroke="#052f52" stroke-width="0.25" data-index="1"></path>
<path d="M 331.19 265.76 C 331.71 263.52 333.74 261.58 336.11 261.61 C 340.23 261.35 344.36 261.69 348.49 261.46 C 348.79 264.10 349.15 266.73 349.56 269.37 C 348.27 267.29 347.15 265.12 346.29 262.83 L 346.04 263.81 C 342.47 263.85 338.90 263.69 335.34 263.82 C 333.83 265.12 332.44 266.55 331.03 267.96 C 331.07 267.41 331.15 266.31 331.19 265.76 Z" fill="#eed4c6" opacity="1.00" stroke="#eed4c6" stroke-width="0.25" data-index="2"></path>
<path d="M 348.49 261.46 C 349.54 261.33 350.60 261.20 351.67 261.07 C 349.46 265.27 351.55 270.57 353.70 274.45 C 352.49 275.43 351.00 275.86 349.53 276.30 C 349.22 279.58 347.46 282.39 345.10 284.60 C 380.32 284.98 415.56 284.76 450.78 285.50 C 450.81 285.80 450.87 286.40 450.90 286.70 C 450.15 286.70 448.65 286.71 447.90 286.72 C 444.49 286.74 441.09 286.80 437.68 286.79 C 435.43 286.73 433.17 286.73 430.93 286.72 C 425.77 286.70 420.62 286.67 415.46 286.76 C 410.09 286.51 404.71 286.62 399.33 286.73 C 382.89 286.40 366.44 286.60 350.00 286.49 C 344.57 286.32 339.20 287.22 333.78 287.29 C 343.93 293.12 353.26 300.56 361.19 309.17 C 365.42 310.45 369.74 308.30 373.91 307.59 C 381.14 305.70 389.29 307.19 395.17 311.87 C 396.35 312.67 396.37 314.20 396.76 315.43 C 391.43 315.02 386.29 313.41 380.96 313.04 C 375.94 312.52 370.94 313.39 365.99 314.03 C 358.95 314.95 351.48 313.54 345.57 309.51 C 342.32 307.32 339.09 305.04 335.46 303.50 C 332.54 302.80 329.63 303.85 326.89 304.74 C 321.97 306.24 317.91 309.66 313.00 311.12 C 305.79 312.63 298.81 309.55 291.96 307.78 C 286.97 306.46 282.70 310.11 278.03 311.12 C 275.77 311.27 273.43 311.50 271.23 310.86 C 268.30 308.29 268.45 303.87 268.79 300.32 C 269.12 299.92 269.79 299.12 270.13 298.72 C 270.04 302.53 270.67 306.30 271.64 309.97 C 277.81 310.30 283.02 306.57 288.93 305.72 C 295.81 305.89 302.03 309.87 308.98 309.67 C 314.36 309.91 318.52 305.98 323.32 304.25 C 327.60 302.70 332.35 300.30 336.89 302.34 C 341.30 304.27 345.17 307.22 349.25 309.74 C 350.91 308.14 352.54 306.52 354.18 304.90 C 348.58 298.79 341.47 294.46 334.84 289.62 C 333.91 288.92 332.98 287.99 331.74 287.99 C 331.86 287.13 332.09 285.40 332.21 284.53 C 335.61 285.20 339.35 286.00 342.59 284.31 C 345.60 282.44 347.37 279.10 347.63 275.60 C 347.69 275.33 347.81 274.78 347.86 274.50 C 348.63 274.45 350.17 274.33 350.94 274.28 C 350.48 272.63 350.02 271.00 349.56 269.37 C 349.15 266.73 348.79 264.10 348.49 261.46 Z" fill="#172c42" opacity="1.00" stroke="#172c42" stroke-width="0.25" data-index="3"></path>

<path d="M 245.94 270.67 C 254.56 265.17 264.93 263.00 275.05 262.80 C 284.42 263.24 293.30 266.74 302.05 269.84 C 308.44 272.44 315.30 274.23 321.04 278.15 C 321.28 278.58 321.78 279.45 322.02 279.88 C 321.93 282.23 321.41 284.73 322.33 286.99 C 323.36 289.51 326.80 290.78 329.12 289.24 C 330.53 287.96 331.25 286.13 332.21 284.53 C 332.09 285.40 331.86 287.13 331.74 287.99 C 331.67 288.61 331.54 289.85 331.47 290.47 C 328.58 291.15 325.05 292.72 322.48 290.39 C 319.18 287.85 320.41 283.20 320.36 279.63 C 309.58 274.36 298.30 269.85 286.63 266.97 C 286.13 270.11 285.49 273.23 284.62 276.29 C 291.00 279.25 297.75 281.38 303.91 284.82 C 293.61 291.34 282.28 296.56 270.20 298.63 L 269.99 297.22 C 279.42 294.83 288.76 291.61 297.09 286.52 C 280.88 286.32 264.66 286.52 248.45 286.44 C 247.74 289.04 247.15 291.72 245.95 294.16 C 241.79 295.24 243.20 289.35 241.53 287.19 C 238.74 289.52 236.38 293.35 232.21 292.77 C 232.72 290.38 233.29 288.01 233.65 285.60 C 234.23 285.22 235.40 284.47 235.98 284.09 L 235.56 283.82 C 235.29 283.01 235.02 282.20 234.76 281.40 C 236.70 281.58 237.76 282.91 238.29 284.59 C 236.55 286.68 235.06 288.96 234.03 291.48 C 235.87 290.04 237.51 288.36 239.18 286.73 C 240.86 285.36 242.73 285.40 244.34 286.81 C 244.37 288.67 244.46 290.53 244.61 292.39 C 245.37 290.35 245.99 288.27 246.61 286.20 C 247.24 284.21 247.72 281.83 249.68 280.69 C 254.59 277.60 260.41 276.55 265.95 275.17 C 271.12 274.10 276.43 272.58 281.73 273.67 C 282.10 273.72 282.85 273.82 283.22 273.88 C 283.89 271.34 284.39 268.77 284.84 266.19 C 277.88 264.24 270.57 264.45 263.54 265.89 C 261.84 266.16 260.14 266.50 258.50 267.04 C 254.60 268.18 250.87 269.84 247.43 272.01 C 241.47 275.46 235.39 278.69 229.45 282.18 C 229.30 281.70 228.98 280.75 228.82 280.28 C 234.48 276.98 240.54 274.41 245.94 270.67 Z" fill="#2a2032" opacity="1.00" stroke="#2a2032" stroke-width="0.25" data-index="5"></path>
<path d="M 346.29 262.83 C 347.15 265.12 348.27 267.29 349.56 269.37 C 350.02 271.00 350.48 272.63 350.94 274.28 C 350.17 274.33 348.63 274.45 347.86 274.50 C 347.81 274.78 347.69 275.33 347.63 275.60 C 345.90 278.16 344.28 280.97 341.73 282.81 C 338.79 284.24 335.38 284.01 332.21 284.53 C 331.25 286.13 330.53 287.96 329.12 289.24 C 326.80 290.78 323.36 289.51 322.33 286.99 C 321.41 284.73 321.93 282.23 322.02 279.88 C 323.15 279.97 324.25 280.13 325.37 280.30 C 326.76 278.24 327.63 275.93 327.93 273.47 C 326.72 272.71 325.51 271.94 324.31 271.19 C 324.59 269.94 324.54 268.53 325.41 267.51 C 327.12 267.29 328.70 268.08 330.31 268.51 C 330.53 267.82 330.97 266.45 331.19 265.76 C 331.15 266.31 331.07 267.41 331.03 267.96 C 332.44 266.55 333.83 265.12 335.34 263.82 C 335.39 264.48 335.50 265.80 335.55 266.46 C 336.99 266.65 338.43 266.86 339.89 267.03 C 339.87 267.38 339.84 268.09 339.82 268.44 C 339.77 269.46 339.73 270.48 339.68 271.51 C 340.29 271.73 341.50 272.16 342.11 272.38 L 343.48 271.96 C 343.71 271.88 344.15 271.72 344.37 271.65 C 344.73 270.05 345.00 268.43 345.34 266.84 C 345.57 265.82 345.80 264.82 346.04 263.81 L 346.29 262.83 Z" fill="#feba9a" opacity="1.00" stroke="#feba9a" stroke-width="0.25" data-index="6"></path>
<path d="M 335.34 263.82 C 338.90 263.69 342.47 263.85 346.04 263.81 C 345.80 264.82 345.57 265.82 345.34 266.84 C 343.52 266.99 341.70 267.11 339.89 267.03 C 338.43 266.86 336.99 266.65 335.55 266.46 C 335.50 265.80 335.39 264.48 335.34 263.82 Z" fill="#112442" opacity="1.00" stroke="#112442" stroke-width="0.25" data-index="7"></path>
<path d="M 263.54 265.89 C 270.57 264.45 277.88 264.24 284.84 266.19 C 284.39 268.77 283.89 271.34 283.22 273.88 C 282.85 273.82 282.10 273.72 281.73 273.67 C 282.30 271.50 282.82 269.31 283.28 267.12 C 276.85 264.97 270.12 266.60 263.54 265.89 Z" fill="#eed4c6" opacity="1.00" stroke="#eed4c6" stroke-width="0.25" data-index="8"></path>
<path d="M 258.50 267.04 C 260.14 266.50 261.84 266.16 263.54 265.89 C 270.12 266.60 276.85 264.97 283.28 267.12 C 282.82 269.31 282.30 271.50 281.73 273.67 C 276.43 272.58 271.12 274.10 265.95 275.17 C 260.41 276.55 254.59 277.60 249.68 280.69 C 247.72 281.83 247.24 284.21 246.61 286.20 C 245.85 286.40 245.09 286.61 244.34 286.81 C 242.73 285.40 240.86 285.36 239.18 286.73 C 238.96 286.19 238.51 285.13 238.29 284.59 C 237.76 282.91 236.70 281.58 234.76 281.40 C 235.02 282.20 235.29 283.01 235.56 283.82 C 235.24 283.79 234.58 283.73 234.26 283.71 C 233.89 283.44 233.16 282.91 232.80 282.65 C 231.70 282.99 230.61 283.33 229.52 283.68 C 229.50 283.30 229.47 282.55 229.45 282.18 C 235.39 278.69 241.47 275.46 247.43 272.01 C 251.59 271.61 255.44 269.88 258.50 267.04 Z" fill="#fdba99" opacity="1.00" stroke="#fdba99" stroke-width="0.25" data-index="9"></path>
<path d="M 247.43 272.01 C 250.87 269.84 254.60 268.18 258.50 267.04 C 255.44 269.88 251.59 271.61 247.43 272.01 Z" fill="#eed4c6" opacity="1.00" stroke="#eed4c6" stroke-width="0.25" data-index="10"></path>
<path d="M 286.63 266.97 C 298.30 269.85 309.58 274.36 320.36 279.63 C 320.41 283.20 319.18 287.85 322.48 290.39 C 325.05 292.72 328.58 291.15 331.47 290.47 C 332.61 290.27 333.74 289.98 334.84 289.62 C 341.47 294.46 348.58 298.79 354.18 304.90 C 352.54 306.52 350.91 308.14 349.25 309.74 C 345.17 307.22 341.30 304.27 336.89 302.34 C 332.35 300.30 327.60 302.70 323.32 304.25 C 318.52 305.98 314.36 309.91 308.98 309.67 C 302.03 309.87 295.81 305.89 288.93 305.72 C 283.02 306.57 277.81 310.30 271.64 309.97 C 270.67 306.30 270.04 302.53 270.13 298.72 L 270.20 298.63 C 282.28 296.56 293.61 291.34 303.91 284.82 C 297.75 281.38 291.00 279.25 284.62 276.29 C 285.49 273.23 286.13 270.11 286.63 266.97 Z" fill="#f4552c" opacity="1.00" stroke="#f4552c" stroke-width="0.25" data-index="11"></path>
<path d="M 339.89 267.03 C 341.70 267.11 343.52 266.99 345.34 266.84 C 345.00 268.43 344.73 270.05 344.37 271.65 C 344.15 271.72 343.71 271.88 343.48 271.96 C 343.42 271.20 343.30 269.70 343.23 268.95 C 342.38 268.82 340.68 268.57 339.82 268.44 C 339.84 268.09 339.87 267.38 339.89 267.03 Z" fill="#eed4c6" opacity="1.00" stroke="#eed4c6" stroke-width="0.25" data-index="12"></path>
<path d="M 339.68 271.51 C 339.73 270.48 339.77 269.46 339.82 268.44 C 340.68 268.57 342.38 268.82 343.23 268.95 C 343.30 269.70 343.42 271.20 343.48 271.96 L 342.11 272.38 C 341.50 272.16 340.29 271.73 339.68 271.51 Z" fill="#2a2032" opacity="1.00" stroke="#2a2032" stroke-width="0.25" data-index="13"></path>

<path d="M 169.50 276.95 C 169.48 274.84 170.35 272.36 172.79 272.19 C 172.21 274.10 171.22 275.87 169.50 276.95 Z" fill="#172c42" opacity="1.00" stroke="#172c42" stroke-width="0.25" data-index="15" style="visibility: hidden; opacity: 1;"></path>
<path d="M 268.11 276.49 C 272.70 275.44 277.50 274.33 282.18 275.51 C 282.32 275.98 282.59 276.93 282.72 277.40 C 288.10 280.16 293.88 282.07 299.35 284.66 C 282.62 284.87 265.89 284.73 249.16 284.71 C 249.23 284.22 249.37 283.23 249.44 282.73 C 255.18 279.41 261.72 278.02 268.11 276.49 Z" fill="#fcffff" opacity="1.00" stroke="#fcffff" stroke-width="0.25" data-index="16"></path>
<path d="M 341.73 282.81 C 344.28 280.97 345.90 278.16 347.63 275.60 C 347.37 279.10 345.60 282.44 342.59 284.31 C 339.35 286.00 335.61 285.20 332.21 284.53 C 335.38 284.01 338.79 284.24 341.73 282.81 Z" fill="#eed4c6" opacity="1.00" stroke="#eed4c6" stroke-width="0.25" data-index="17"></path>
<path d="M 226.52 284.84 C 226.87 283.12 227.36 281.39 228.82 280.28 C 228.98 280.75 229.30 281.70 229.45 282.18 C 229.47 282.55 229.50 283.30 229.52 283.68 C 230.61 283.33 231.70 282.99 232.80 282.65 C 233.16 282.91 233.89 283.44 234.26 283.71 C 233.25 284.56 232.79 286.24 231.38 286.44 C 185.79 286.58 140.18 286.34 94.59 286.77 C 87.21 286.65 79.82 286.71 72.44 286.75 C 67.83 286.35 62.89 287.60 58.51 285.80 C 69.96 284.95 81.46 285.43 92.93 284.98 C 137.46 284.86 181.99 284.55 226.52 284.84 Z" fill="#052f52" opacity="1.00" stroke="#052f52" stroke-width="0.25" data-index="18" style="opacity: 1;"></path>
<path d="M 231.38 286.44 C 232.79 286.24 233.25 284.56 234.26 283.71 C 234.58 283.73 235.24 283.79 235.56 283.82 L 235.98 284.09 C 235.40 284.47 234.23 285.22 233.65 285.60 C 233.29 288.01 232.72 290.38 232.21 292.77 C 236.38 293.35 238.74 289.52 241.53 287.19 C 243.20 289.35 241.79 295.24 245.95 294.16 C 247.15 291.72 247.74 289.04 248.45 286.44 C 264.66 286.52 280.88 286.32 297.09 286.52 C 288.76 291.61 279.42 294.83 269.99 297.22 C 263.44 298.54 257.53 293.61 250.99 294.92 C 240.68 296.57 230.32 297.84 219.90 298.51 C 208.90 298.80 197.87 298.83 186.91 297.74 C 174.62 296.76 162.31 300.09 150.07 297.99 C 145.12 297.26 143.02 291.03 137.73 291.17 C 135.89 294.15 134.31 297.31 132.13 300.07 C 129.61 303.26 125.68 304.94 123.29 308.25 C 121.80 310.17 121.01 312.49 120.28 314.78 C 124.84 314.69 128.59 311.83 132.93 310.88 C 141.26 308.91 149.29 304.96 158.04 305.38 C 162.76 305.55 166.85 308.13 171.05 310.01 C 173.91 311.57 177.11 309.87 180.10 309.66 C 186.91 308.56 193.27 312.21 199.97 312.48 C 205.94 311.31 211.60 306.59 217.92 309.11 C 223.33 311.29 229.19 313.33 235.08 311.97 C 241.07 311.11 246.14 307.44 251.94 306.00 C 255.58 305.08 258.67 307.67 261.71 309.21 C 266.61 312.09 272.59 312.12 278.03 311.12 C 282.70 310.11 286.97 306.46 291.96 307.78 C 298.81 309.55 305.79 312.63 313.00 311.12 C 317.91 309.66 321.97 306.24 326.89 304.74 C 327.53 304.62 328.82 304.38 329.47 304.26 C 329.44 306.48 327.28 309.40 328.95 311.30 C 330.23 308.99 331.33 306.59 332.64 304.30 C 332.57 306.33 332.39 308.36 332.25 310.39 C 333.49 308.18 334.59 305.88 335.46 303.50 C 339.09 305.04 342.32 307.32 345.57 309.51 C 351.48 313.54 358.95 314.95 365.99 314.03 C 370.94 313.39 375.94 312.52 380.96 313.04 C 386.29 313.41 391.43 315.02 396.76 315.43 C 396.37 314.20 396.35 312.67 395.17 311.87 C 389.29 307.19 381.14 305.70 373.91 307.59 C 369.74 308.30 365.42 310.45 361.19 309.17 C 353.26 300.56 343.93 293.12 333.78 287.29 C 339.20 287.22 344.57 286.32 350.00 286.49 C 366.44 286.60 382.89 286.40 399.33 286.73 C 402.44 288.38 405.98 288.37 409.41 288.34 C 412.04 293.73 413.66 299.59 412.81 305.64 C 410.12 306.55 407.41 307.35 404.70 308.17 C 402.44 309.05 404.31 311.39 404.50 313.01 C 402.56 314.59 400.56 316.09 398.49 317.50 C 398.79 317.81 399.38 318.45 399.68 318.76 C 392.04 320.12 383.89 319.40 376.90 323.37 C 372.65 322.36 368.21 322.53 364.48 324.99 C 364.61 323.70 364.75 322.42 364.77 321.14 C 363.67 320.31 362.35 320.64 361.14 320.95 C 350.89 323.90 340.09 321.59 329.62 322.59 C 334.09 325.33 339.57 324.32 344.55 324.86 C 342.06 325.94 339.51 326.89 336.94 327.74 C 334.21 331.12 329.38 330.02 325.61 331.14 C 317.31 332.20 308.93 330.92 300.61 331.60 C 302.34 332.48 304.15 333.33 306.14 333.45 C 313.21 334.06 320.32 333.52 327.40 333.52 C 326.69 336.14 324.81 338.18 323.10 340.21 C 321.20 339.53 319.31 338.86 317.40 338.23 C 315.09 339.49 312.68 340.80 309.99 340.89 C 302.40 341.28 294.58 340.65 287.30 343.28 C 282.39 345.15 276.93 342.94 272.05 344.98 C 267.03 346.90 261.57 345.78 256.34 346.11 C 256.09 347.38 255.84 348.65 255.58 349.93 C 250.83 349.96 246.00 350.60 241.30 349.75 C 239.74 348.21 238.71 345.59 236.05 346.06 C 220.04 345.94 204.01 346.17 188.00 346.03 C 178.22 344.09 167.78 339.16 157.98 343.76 C 154.25 343.34 151.78 340.13 148.74 338.29 C 145.64 337.36 141.97 340.15 139.17 337.81 C 136.21 335.54 132.75 334.13 129.11 333.43 C 131.38 332.87 133.65 332.31 135.91 331.74 C 134.23 330.93 132.54 330.14 130.86 329.34 C 131.49 329.05 132.75 328.46 133.38 328.17 C 134.97 327.47 136.48 326.61 137.98 325.74 C 133.95 325.56 130.00 326.54 125.98 326.62 C 121.37 326.69 116.75 326.59 112.14 326.53 C 114.10 325.95 116.13 325.64 118.15 325.31 C 113.04 324.64 107.88 324.92 102.76 324.57 C 99.23 324.33 97.02 321.28 94.64 319.08 C 89.81 317.41 84.68 319.33 79.72 318.87 C 81.14 318.43 82.56 317.99 83.99 317.57 C 82.67 317.19 81.34 316.80 80.02 316.42 C 86.30 314.72 92.83 314.91 99.26 314.40 C 101.35 314.25 103.42 313.93 105.50 313.61 C 99.94 311.71 94.01 312.25 88.27 311.41 C 85.67 310.78 83.11 311.44 80.79 312.65 C 78.21 308.42 76.31 303.36 77.47 298.36 C 78.37 295.13 79.52 291.95 81.06 288.96 C 85.49 287.81 90.27 288.59 94.59 286.77 C 140.18 286.34 185.79 286.58 231.38 286.44 Z" fill="#84e6fe" opacity="1.00" stroke="#84e6fe" stroke-width="0.25" data-index="19" style="opacity: 1; display: none;"></path>
<path d="M 57.76 285.47 L 58.51 285.80 C 62.89 287.60 67.83 286.35 72.44 286.75 C 71.96 286.97 70.99 287.40 70.50 287.61 C 69.91 287.89 68.73 288.44 68.14 288.71 C 66.79 291.14 65.70 293.74 63.84 295.85 C 61.58 298.51 59.01 301.32 58.79 305.00 C 58.44 309.57 58.09 314.28 59.13 318.78 C 60.58 321.32 64.01 319.80 66.34 320.12 C 74.57 320.66 82.82 319.96 91.05 320.40 C 86.51 321.34 81.90 321.85 77.28 322.13 C 72.99 322.23 68.71 322.37 64.44 322.73 C 62.06 322.86 59.66 322.93 57.27 322.89 C 54.40 322.80 51.54 322.46 48.70 322.07 C 49.24 323.49 49.79 324.91 50.34 326.34 C 50.15 326.71 49.96 327.08 49.77 327.46 C 53.04 330.90 53.00 335.90 55.02 339.98 C 57.08 344.15 58.71 348.69 62.01 352.09 C 64.20 354.21 64.40 357.47 66.11 359.90 C 69.18 364.12 73.29 367.39 76.83 371.18 C 80.10 374.92 84.57 377.41 87.55 381.45 C 89.15 383.74 92.11 384.11 94.27 385.66 C 101.96 391.61 112.34 391.69 120.69 396.42 C 125.77 398.67 131.40 399.24 136.82 400.31 C 144.05 401.23 150.62 405.21 158.04 405.00 C 164.74 404.74 171.34 406.25 178.04 406.09 C 184.74 406.11 191.27 407.96 197.97 407.97 C 200.87 408.06 203.85 407.67 206.68 408.49 C 212.35 410.33 218.94 411.18 224.53 408.73 C 228.31 409.49 231.83 411.66 232.65 415.68 C 234.55 416.00 236.45 416.30 238.35 416.64 C 238.99 417.61 239.59 418.63 240.37 419.53 C 247.37 420.45 254.09 422.75 261.04 423.99 C 266.69 424.71 272.15 422.54 277.77 422.48 C 280.96 422.43 284.13 421.98 287.31 421.81 C 292.83 421.74 298.10 419.77 303.63 419.72 C 303.83 419.09 304.22 417.82 304.42 417.18 C 313.28 416.73 322.64 417.73 330.89 413.81 C 334.01 412.29 337.14 415.87 340.35 414.43 C 349.04 410.36 358.98 411.76 368.02 409.00 C 371.33 408.00 374.96 407.86 377.91 405.90 C 381.96 403.08 387.10 404.25 391.71 403.90 C 391.91 402.69 392.12 401.47 392.33 400.27 C 395.39 400.10 398.61 400.08 401.30 398.38 C 405.85 395.73 411.25 395.32 415.95 393.00 C 423.90 389.91 430.15 383.93 436.87 378.89 C 441.70 376.21 446.32 373.13 450.54 369.56 C 453.12 364.13 455.45 358.56 458.47 353.34 C 460.41 350.22 460.10 346.47 460.07 342.97 C 459.96 336.01 462.11 329.03 460.70 322.11 C 459.70 319.17 458.75 316.19 458.78 313.05 C 458.03 312.22 457.28 311.39 456.55 310.57 C 456.12 308.66 455.89 306.67 455.07 304.88 C 451.89 298.28 443.51 295.96 441.49 288.55 C 440.22 287.94 438.96 287.34 437.68 286.79 C 441.09 286.80 444.49 286.74 447.90 286.72 C 448.01 287.46 448.23 288.93 448.34 289.67 C 453.73 292.24 458.12 296.47 461.76 301.15 C 463.56 303.47 464.10 306.40 464.67 309.21 C 467.63 310.40 469.91 312.65 471.95 315.04 C 471.97 316.32 472.00 317.61 472.03 318.90 C 472.65 319.64 473.28 320.39 473.92 321.14 C 474.00 331.03 474.20 340.93 473.89 350.81 C 471.76 352.96 471.95 356.04 471.77 358.84 C 469.63 362.38 468.31 366.44 465.46 369.53 C 463.47 371.67 464.15 374.85 463.78 377.51 C 460.41 377.94 457.78 380.32 457.52 383.80 C 456.03 383.91 454.54 384.02 453.06 384.15 C 450.91 386.38 448.17 388.31 447.42 391.51 C 443.55 392.49 440.41 395.67 439.52 399.57 C 434.96 399.68 432.01 403.38 428.06 405.04 C 423.66 406.95 419.65 409.85 414.89 410.84 C 412.13 411.50 409.03 411.79 407.02 414.04 C 405.36 416.06 402.72 416.05 400.34 416.26 C 400.13 417.46 399.92 418.67 399.72 419.88 C 394.92 420.29 390.08 419.68 385.31 420.30 C 384.35 421.24 384.10 422.65 383.53 423.82 C 378.72 424.19 373.89 423.92 369.07 424.02 C 368.34 424.67 367.62 425.32 366.90 425.98 C 362.05 426.09 357.19 425.88 352.35 426.17 C 352.12 427.41 351.90 428.65 351.69 429.89 C 346.81 430.19 341.93 430.01 337.05 430.04 C 336.31 430.66 335.58 431.30 334.86 431.94 C 325.97 431.78 317.13 432.69 308.25 432.47 C 305.41 432.58 302.82 434.07 299.96 434.04 C 296.32 434.13 292.69 433.99 289.06 434.04 C 288.33 434.67 287.60 435.30 286.88 435.93 C 282.60 435.94 278.28 436.33 274.02 435.82 C 272.15 435.40 271.87 432.34 269.74 432.48 C 256.91 432.24 244.00 433.29 231.27 431.30 C 224.86 426.94 217.61 424.05 210.80 420.39 C 209.05 419.44 207.95 417.74 206.51 416.45 C 204.76 415.81 202.84 416.07 201.03 416.00 C 193.03 416.23 185.02 415.96 177.02 416.04 C 176.31 416.69 175.60 417.35 174.89 418.01 C 170.63 418.00 166.37 418.05 162.12 417.98 C 161.10 416.99 160.22 415.75 158.80 415.33 C 154.34 413.58 149.87 411.73 145.09 411.07 C 144.03 412.26 142.85 413.34 141.46 414.12 C 136.82 410.53 131.02 409.38 125.27 409.93 C 121.30 407.34 116.85 405.64 112.77 403.23 C 112.26 402.36 111.74 401.49 111.22 400.63 C 104.55 400.12 97.82 400.19 91.25 398.75 C 87.59 393.60 82.80 388.97 76.46 387.49 C 76.05 386.54 75.64 385.59 75.23 384.65 C 73.76 384.22 72.29 383.79 70.82 383.36 C 69.82 380.39 67.60 378.19 64.62 377.23 C 63.87 374.71 63.42 372.06 62.22 369.72 C 61.02 367.81 58.48 368.14 56.57 367.65 C 54.48 362.34 51.58 357.41 48.86 352.42 C 49.62 352.19 51.15 351.74 51.92 351.52 C 50.02 349.14 47.14 347.99 44.92 346.02 C 43.49 342.93 42.16 339.79 40.22 336.96 C 39.89 330.33 39.83 323.64 40.15 317.01 C 41.41 312.90 43.13 308.88 44.90 304.97 C 49.34 303.26 49.34 298.09 51.61 294.56 C 52.55 292.52 54.74 291.66 56.53 290.55 C 56.87 288.84 57.28 287.14 57.76 285.47 Z" fill="#f2fdff" opacity="1.00" stroke="#f2fdff" stroke-width="0.25" data-index="20" style="opacity: 1;"></path>
<path d="M 238.29 284.59 C 238.51 285.13 238.96 286.19 239.18 286.73 C 237.51 288.36 235.87 290.04 234.03 291.48 C 235.06 288.96 236.55 286.68 238.29 284.59 Z" fill="#ffffff" opacity="1.00" stroke="#ffffff" stroke-width="0.25" data-index="21"></path>
<path d="M 244.34 286.81 C 245.09 286.61 245.85 286.40 246.61 286.20 C 245.99 288.27 245.37 290.35 244.61 292.39 C 244.46 290.53 244.37 288.67 244.34 286.81 Z" fill="#ffffff" opacity="1.00" stroke="#ffffff" stroke-width="0.25" data-index="22"></path>
<path d="M 72.44 286.75 C 79.82 286.71 87.21 286.65 94.59 286.77 C 90.27 288.59 85.49 287.81 81.06 288.96 C 79.52 291.95 78.37 295.13 77.47 298.36 C 76.31 303.36 78.21 308.42 80.79 312.65 C 83.11 311.44 85.67 310.78 88.27 311.41 C 86.34 311.99 84.45 312.75 82.65 313.66 C 88.15 314.44 93.72 314.23 99.26 314.40 C 92.83 314.91 86.30 314.72 80.02 316.42 C 81.34 316.80 82.67 317.19 83.99 317.57 C 82.56 317.99 81.14 318.43 79.72 318.87 C 84.68 319.33 89.81 317.41 94.64 319.08 C 92.60 320.85 90.64 322.70 88.80 324.67 C 90.85 324.92 92.89 325.15 94.94 325.39 C 93.59 325.69 92.24 325.99 90.89 326.30 C 92.69 327.17 94.51 328.03 96.16 329.17 C 95.92 330.73 95.03 332.05 94.26 333.38 C 96.16 333.31 98.28 332.81 99.99 333.95 C 103.68 336.27 105.01 340.95 108.70 343.29 C 111.76 345.26 115.27 346.49 118.07 348.86 C 123.80 353.73 130.61 357.33 137.97 359.01 C 144.02 361.27 150.50 362.15 156.45 364.68 C 165.67 369.18 176.29 366.91 186.04 369.03 C 190.08 369.78 193.79 371.97 197.98 371.94 C 209.97 371.88 221.97 371.87 233.96 371.92 C 237.79 372.07 241.19 369.71 245.02 369.89 C 248.56 369.91 252.11 369.97 255.62 369.47 C 261.43 368.61 267.34 369.12 273.15 368.28 C 278.99 367.35 285.19 367.65 290.50 364.66 C 301.72 362.11 313.33 361.04 324.25 357.19 C 326.94 356.14 328.89 353.86 331.43 352.53 C 334.72 351.60 338.47 351.63 341.10 349.10 C 344.06 346.43 347.53 344.55 351.20 343.08 C 354.52 340.44 358.62 339.34 362.44 337.65 C 366.40 336.04 370.77 336.27 374.95 335.79 C 376.56 334.38 378.01 332.67 380.04 331.86 C 381.85 332.05 383.46 332.98 385.11 333.68 C 391.04 332.56 396.92 329.69 400.08 324.34 C 400.80 323.89 401.53 323.47 402.28 323.06 C 406.33 323.01 410.96 324.09 414.36 321.27 C 410.68 321.37 406.99 321.50 403.34 320.91 C 408.22 320.22 412.51 317.88 415.63 314.07 C 415.58 313.23 415.54 312.38 415.50 311.55 C 412.07 311.37 408.64 311.12 405.22 310.80 C 405.09 310.14 404.83 308.83 404.70 308.17 C 407.41 307.35 410.12 306.55 412.81 305.64 C 413.66 299.59 412.04 293.73 409.41 288.34 C 405.98 288.37 402.44 288.38 399.33 286.73 C 404.71 286.62 410.09 286.51 415.46 286.76 C 417.47 287.37 419.46 288.02 421.46 288.67 C 423.26 292.37 426.21 295.35 427.97 299.08 C 429.05 301.31 430.50 303.32 432.14 305.17 C 430.32 305.96 428.56 306.89 427.06 308.20 C 419.90 309.38 412.50 307.66 405.48 309.64 C 409.93 310.36 414.45 310.42 418.93 310.87 C 422.69 311.23 426.55 311.47 430.22 310.38 C 432.81 313.69 432.46 318.31 430.89 321.99 C 429.18 324.23 426.85 326.29 427.32 329.41 C 425.77 331.25 424.35 333.21 423.18 335.32 C 415.86 339.50 407.88 342.40 399.83 344.85 C 393.95 346.59 389.18 350.94 383.09 352.09 C 377.50 353.29 372.63 356.63 366.96 357.53 C 362.07 358.35 358.16 361.64 353.55 363.24 C 349.26 364.60 345.82 368.13 341.14 368.24 C 335.29 368.65 330.39 372.22 324.79 373.58 C 321.22 374.25 318.54 377.02 315.00 377.71 C 311.02 378.61 307.15 380.23 302.99 379.95 C 298.92 379.42 296.06 383.24 292.04 383.11 C 284.36 383.67 276.63 383.65 268.99 384.80 C 263.03 385.72 256.99 386.18 250.96 385.95 C 243.23 385.68 235.52 386.83 227.79 386.45 C 214.54 385.54 201.25 386.14 187.99 385.99 C 184.92 385.82 182.14 384.20 179.08 384.03 C 173.65 383.75 168.19 384.31 162.78 383.64 C 161.17 383.42 160.02 382.13 158.74 381.26 C 153.43 380.52 148.01 380.03 143.01 377.93 C 132.18 374.17 119.86 372.95 110.96 365.05 C 106.78 360.44 100.74 358.11 96.60 353.46 C 88.59 344.87 79.88 336.89 72.49 327.75 C 72.89 327.24 73.30 326.74 73.70 326.24 C 72.99 326.03 71.57 325.60 70.86 325.39 C 72.59 323.60 74.84 322.54 77.28 322.13 C 81.90 321.85 86.51 321.34 91.05 320.40 C 82.82 319.96 74.57 320.66 66.34 320.12 C 65.40 319.57 64.47 319.02 63.54 318.46 C 63.59 314.28 62.74 310.18 62.56 306.03 C 63.34 299.12 70.37 294.70 70.50 287.61 C 70.99 287.40 71.96 286.97 72.44 286.75 Z" fill="#adeefe" opacity="1.00" stroke="#adeefe" stroke-width="0.25" data-index="23" style="opacity: 1;"></path>
<path d="M 415.46 286.76 C 420.62 286.67 425.77 286.70 430.93 286.72 C 431.05 287.03 431.30 287.67 431.42 287.99 C 432.38 293.77 438.25 296.39 440.85 301.26 C 444.63 307.84 443.85 315.71 443.95 323.00 C 444.29 329.00 441.11 334.30 439.73 339.98 C 439.14 342.62 436.99 344.43 435.20 346.28 C 430.13 351.15 425.05 356.24 418.75 359.49 C 415.41 360.22 411.96 359.93 408.58 360.12 C 407.63 362.91 406.67 366.28 403.63 367.46 C 401.50 367.99 399.28 367.92 397.11 368.07 C 393.88 370.92 390.30 373.30 386.78 375.77 C 384.23 375.81 381.65 375.68 379.13 376.14 C 376.90 377.09 375.71 379.92 373.09 379.98 C 370.48 380.37 368.05 379.24 365.73 378.23 C 362.68 380.36 359.72 382.87 355.99 383.72 C 351.90 384.54 348.78 387.59 344.80 388.68 C 340.57 389.91 336.39 391.39 332.00 391.94 C 328.40 392.18 325.63 395.00 322.01 395.16 C 318.06 395.56 313.98 396.08 310.77 398.64 C 298.81 399.67 286.99 402.31 274.95 402.00 C 268.93 404.57 262.35 403.96 255.97 403.87 C 251.77 403.95 249.33 399.85 245.66 398.50 C 238.74 395.96 231.28 397.17 224.09 396.69 C 215.74 396.11 207.34 396.98 199.00 396.12 C 184.91 395.51 170.66 395.83 156.72 393.31 C 151.63 391.85 146.08 392.16 141.35 389.52 C 137.02 387.27 131.69 388.24 127.61 385.41 C 125.30 383.82 122.40 383.97 119.83 383.13 C 109.18 377.51 97.74 372.54 89.32 363.64 C 86.04 359.59 82.02 356.13 79.32 351.63 C 77.70 348.97 75.92 346.39 73.73 344.17 C 70.80 341.15 68.67 337.46 65.57 334.60 C 65.98 334.11 66.40 333.62 66.82 333.13 C 65.16 331.23 63.75 329.15 62.55 326.94 C 63.19 325.54 63.82 324.13 64.44 322.73 C 68.71 322.37 72.99 322.23 77.28 322.13 C 74.84 322.54 72.59 323.60 70.86 325.39 C 71.57 325.60 72.99 326.03 73.70 326.24 C 73.30 326.74 72.89 327.24 72.49 327.75 C 79.88 336.89 88.59 344.87 96.60 353.46 C 100.74 358.11 106.78 360.44 110.96 365.05 C 119.86 372.95 132.18 374.17 143.01 377.93 C 148.01 380.03 153.43 380.52 158.74 381.26 C 160.02 382.13 161.17 383.42 162.78 383.64 C 168.19 384.31 173.65 383.75 179.08 384.03 C 182.14 384.20 184.92 385.82 187.99 385.99 C 201.25 386.14 214.54 385.54 227.79 386.45 C 235.52 386.83 243.23 385.68 250.96 385.95 C 256.99 386.18 263.03 385.72 268.99 384.80 C 276.63 383.65 284.36 383.67 292.04 383.11 C 296.06 383.24 298.92 379.42 302.99 379.95 C 307.15 380.23 311.02 378.61 315.00 377.71 C 318.54 377.02 321.22 374.25 324.79 373.58 C 330.39 372.22 335.29 368.65 341.14 368.24 C 345.82 368.13 349.26 364.60 353.55 363.24 C 358.16 361.64 362.07 358.35 366.96 357.53 C 372.63 356.63 377.50 353.29 383.09 352.09 C 389.18 350.94 393.95 346.59 399.83 344.85 C 407.88 342.40 415.86 339.50 423.18 335.32 C 424.35 333.21 425.77 331.25 427.32 329.41 C 426.85 326.29 429.18 324.23 430.89 321.99 C 432.46 318.31 432.81 313.69 430.22 310.38 C 430.78 310.10 431.35 309.82 431.91 309.54 C 430.30 309.05 428.69 308.58 427.06 308.20 C 428.56 306.89 430.32 305.96 432.14 305.17 C 430.50 303.32 429.05 301.31 427.97 299.08 C 426.21 295.35 423.26 292.37 421.46 288.67 C 419.46 288.02 417.47 287.37 415.46 286.76 Z" fill="#c5f4ff" opacity="1.00" stroke="#c5f4ff" stroke-width="0.25" data-index="24" style="opacity: 1;"></path>
<path d="M 430.93 286.72 C 433.17 286.73 435.43 286.73 437.68 286.79 C 438.96 287.34 440.22 287.94 441.49 288.55 C 443.51 295.96 451.89 298.28 455.07 304.88 C 455.89 306.67 456.12 308.66 456.55 310.57 C 457.28 311.39 458.03 312.22 458.78 313.05 C 458.75 316.19 459.70 319.17 460.70 322.11 C 462.11 329.03 459.96 336.01 460.07 342.97 C 460.10 346.47 460.41 350.22 458.47 353.34 C 455.45 358.56 453.12 364.13 450.54 369.56 C 446.32 373.13 441.70 376.21 436.87 378.89 C 430.15 383.93 423.90 389.91 415.95 393.00 C 411.25 395.32 405.85 395.73 401.30 398.38 C 398.61 400.08 395.39 400.10 392.33 400.27 C 392.12 401.47 391.91 402.69 391.71 403.90 C 387.10 404.25 381.96 403.08 377.91 405.90 C 374.96 407.86 371.33 408.00 368.02 409.00 C 358.98 411.76 349.04 410.36 340.35 414.43 C 337.14 415.87 334.01 412.29 330.89 413.81 C 322.64 417.73 313.28 416.73 304.42 417.18 C 304.22 417.82 303.83 419.09 303.63 419.72 C 298.10 419.77 292.83 421.74 287.31 421.81 C 284.13 421.98 280.96 422.43 277.77 422.48 C 272.15 422.54 266.69 424.71 261.04 423.99 C 254.09 422.75 247.37 420.45 240.37 419.53 C 239.59 418.63 238.99 417.61 238.35 416.64 C 236.45 416.30 234.55 416.00 232.65 415.68 C 231.83 411.66 228.31 409.49 224.53 408.73 C 218.94 411.18 212.35 410.33 206.68 408.49 C 203.85 407.67 200.87 408.06 197.97 407.97 C 191.27 407.96 184.74 406.11 178.04 406.09 C 171.34 406.25 164.74 404.74 158.04 405.00 C 150.62 405.21 144.05 401.23 136.82 400.31 C 131.40 399.24 125.77 398.67 120.69 396.42 C 112.34 391.69 101.96 391.61 94.27 385.66 C 92.11 384.11 89.15 383.74 87.55 381.45 C 84.57 377.41 80.10 374.92 76.83 371.18 C 73.29 367.39 69.18 364.12 66.11 359.90 C 64.40 357.47 64.20 354.21 62.01 352.09 C 58.71 348.69 57.08 344.15 55.02 339.98 C 53.00 335.90 53.04 330.90 49.77 327.46 C 49.96 327.08 50.15 326.71 50.34 326.34 C 49.79 324.91 49.24 323.49 48.70 322.07 C 51.54 322.46 54.40 322.80 57.27 322.89 C 57.43 325.25 57.27 327.69 58.01 329.97 C 59.09 332.07 60.82 333.76 61.97 335.83 C 63.06 337.95 63.49 340.36 64.60 342.48 C 66.53 344.83 69.56 346.33 70.60 349.36 C 71.98 352.73 72.91 356.58 76.12 358.75 C 79.46 360.94 80.17 365.30 83.38 367.59 C 86.98 370.36 89.99 373.90 94.03 376.08 C 97.18 377.82 100.35 379.54 103.23 381.72 C 106.76 384.51 111.73 383.88 115.38 386.54 C 123.11 391.54 132.27 393.46 141.21 394.95 C 151.22 397.91 161.66 398.95 172.02 399.92 C 178.95 400.64 186.06 399.02 192.85 400.99 C 194.94 401.54 197.11 401.64 199.26 401.55 C 207.52 401.32 215.80 401.83 224.06 401.21 C 228.64 400.84 233.03 402.48 237.29 403.93 C 242.95 405.84 247.74 409.99 253.79 410.73 C 259.25 412.10 264.88 412.13 270.47 412.16 C 271.76 413.38 272.64 415.66 274.73 415.51 C 278.06 415.58 281.41 415.59 284.75 415.48 C 286.72 415.46 287.99 413.75 289.42 412.65 C 297.06 409.39 305.44 408.83 313.39 406.69 C 318.97 405.36 324.79 404.70 329.90 401.91 C 334.63 399.45 340.89 401.73 345.00 397.97 C 345.95 397.26 346.84 396.41 347.99 396.01 C 350.32 395.80 352.30 397.63 354.60 397.67 C 356.96 396.82 358.97 395.21 361.34 394.38 C 365.29 393.49 369.46 394.59 373.35 393.27 C 379.39 391.35 385.76 390.36 391.49 387.52 C 391.72 386.94 392.20 385.79 392.44 385.21 C 397.48 383.76 403.53 385.45 407.67 381.60 C 413.40 377.40 420.71 375.88 426.04 371.06 C 428.48 368.81 431.83 368.21 434.66 366.65 C 440.21 361.40 445.35 355.36 447.79 347.99 C 448.11 343.26 447.89 338.45 449.74 333.97 C 450.74 324.34 449.85 314.51 447.60 305.10 C 446.08 299.98 441.88 296.42 438.28 292.76 C 436.93 291.56 436.54 289.78 436.09 288.13 C 434.53 288.09 432.97 288.04 431.42 287.99 C 431.30 287.67 431.05 287.03 430.93 286.72 Z" fill="#e6faff" opacity="1.00" stroke="#e6faff" stroke-width="0.25" data-index="25" style="opacity: 1;"></path>
<path d="M 68.14 288.71 C 68.73 288.44 69.91 287.89 70.50 287.61 C 70.37 294.70 63.34 299.12 62.56 306.03 C 62.74 310.18 63.59 314.28 63.54 318.46 C 64.47 319.02 65.40 319.57 66.34 320.12 C 64.01 319.80 60.58 321.32 59.13 318.78 C 58.09 314.28 58.44 309.57 58.79 305.00 C 59.01 301.32 61.58 298.51 63.84 295.85 C 65.70 293.74 66.79 291.14 68.14 288.71 Z" fill="#cef5ff" opacity="1.00" stroke="#cef5ff" stroke-width="0.25" data-index="26"></path>
<path d="M 331.74 287.99 C 332.98 287.99 333.91 288.92 334.84 289.62 C 333.74 289.98 332.61 290.27 331.47 290.47 C 331.54 289.85 331.67 288.61 331.74 287.99 Z" fill="#965850" opacity="1.00" stroke="#965850" stroke-width="0.25" data-index="27"></path>
<path d="M 431.42 287.99 C 432.97 288.04 434.53 288.09 436.09 288.13 C 436.54 289.78 436.93 291.56 438.28 292.76 C 441.88 296.42 446.08 299.98 447.60 305.10 C 449.85 314.51 450.74 324.34 449.74 333.97 C 447.89 338.45 448.11 343.26 447.79 347.99 C 445.35 355.36 440.21 361.40 434.66 366.65 C 431.83 368.21 428.48 368.81 426.04 371.06 C 420.71 375.88 413.40 377.40 407.67 381.60 C 403.53 385.45 397.48 383.76 392.44 385.21 C 392.20 385.79 391.72 386.94 391.49 387.52 C 385.76 390.36 379.39 391.35 373.35 393.27 C 369.46 394.59 365.29 393.49 361.34 394.38 C 358.97 395.21 356.96 396.82 354.60 397.67 C 352.30 397.63 350.32 395.80 347.99 396.01 C 346.84 396.41 345.95 397.26 345.00 397.97 C 340.89 401.73 334.63 399.45 329.90 401.91 C 324.79 404.70 318.97 405.36 313.39 406.69 C 305.44 408.83 297.06 409.39 289.42 412.65 C 287.99 413.75 286.72 415.46 284.75 415.48 C 281.41 415.59 278.06 415.58 274.73 415.51 C 272.64 415.66 271.76 413.38 270.47 412.16 C 264.88 412.13 259.25 412.10 253.79 410.73 C 247.74 409.99 242.95 405.84 237.29 403.93 C 233.03 402.48 228.64 400.84 224.06 401.21 C 215.80 401.83 207.52 401.32 199.26 401.55 C 197.11 401.64 194.94 401.54 192.85 400.99 C 186.06 399.02 178.95 400.64 172.02 399.92 C 161.66 398.95 151.22 397.91 141.21 394.95 C 132.27 393.46 123.11 391.54 115.38 386.54 C 111.73 383.88 106.76 384.51 103.23 381.72 C 100.35 379.54 97.18 377.82 94.03 376.08 C 89.99 373.90 86.98 370.36 83.38 367.59 C 80.17 365.30 79.46 360.94 76.12 358.75 C 72.91 356.58 71.98 352.73 70.60 349.36 C 69.56 346.33 66.53 344.83 64.60 342.48 C 63.49 340.36 63.06 337.95 61.97 335.83 C 60.82 333.76 59.09 332.07 58.01 329.97 C 57.27 327.69 57.43 325.25 57.27 322.89 C 59.66 322.93 62.06 322.86 64.44 322.73 C 63.82 324.13 63.19 325.54 62.55 326.94 C 63.75 329.15 65.16 331.23 66.82 333.13 C 66.40 333.62 65.98 334.11 65.57 334.60 C 68.67 337.46 70.80 341.15 73.73 344.17 C 75.92 346.39 77.70 348.97 79.32 351.63 C 82.02 356.13 86.04 359.59 89.32 363.64 C 97.74 372.54 109.18 377.51 119.83 383.13 C 122.40 383.97 125.30 383.82 127.61 385.41 C 131.69 388.24 137.02 387.27 141.35 389.52 C 146.08 392.16 151.63 391.85 156.72 393.31 C 170.66 395.83 184.91 395.51 199.00 396.12 C 207.34 396.98 215.74 396.11 224.09 396.69 C 231.28 397.17 238.74 395.96 245.66 398.50 C 249.33 399.85 251.77 403.95 255.97 403.87 C 262.35 403.96 268.93 404.57 274.95 402.00 C 286.99 402.31 298.81 399.67 310.77 398.64 C 313.98 396.08 318.06 395.56 322.01 395.16 C 325.63 395.00 328.40 392.18 332.00 391.94 C 336.39 391.39 340.57 389.91 344.80 388.68 C 348.78 387.59 351.90 384.54 355.99 383.72 C 359.72 382.87 362.68 380.36 365.73 378.23 C 368.05 379.24 370.48 380.37 373.09 379.98 C 375.71 379.92 376.90 377.09 379.13 376.14 C 381.65 375.68 384.23 375.81 386.78 375.77 C 390.30 373.30 393.88 370.92 397.11 368.07 C 399.28 367.92 401.50 367.99 403.63 367.46 C 406.67 366.28 407.63 362.91 408.58 360.12 C 411.96 359.93 415.41 360.22 418.75 359.49 C 425.05 356.24 430.13 351.15 435.20 346.28 C 436.99 344.43 439.14 342.62 439.73 339.98 C 441.11 334.30 444.29 329.00 443.95 323.00 C 443.85 315.71 444.63 307.84 440.85 301.26 C 438.25 296.39 432.38 293.77 431.42 287.99 Z" fill="#d9f8ff" opacity="1.00" stroke="#d9f8ff" stroke-width="0.25" data-index="28" style="opacity: 1;"></path>
<path d="M 137.73 291.17 C 143.02 291.03 145.12 297.26 150.07 297.99 C 162.31 300.09 174.62 296.76 186.91 297.74 C 197.87 298.83 208.90 298.80 219.90 298.51 C 220.01 301.22 220.06 303.94 219.91 306.65 C 218.67 304.77 218.75 302.49 218.66 300.34 L 218.23 300.35 C 200.82 301.27 183.42 298.11 166.05 300.22 C 160.70 300.61 155.28 300.60 149.97 299.78 C 145.31 299.46 143.31 294.26 139.05 292.99 C 136.27 296.26 134.90 300.66 131.33 303.27 C 127.81 305.89 124.26 308.79 122.70 313.05 C 125.76 311.76 128.72 310.16 131.95 309.34 C 140.56 307.24 148.92 303.45 157.94 303.64 C 162.91 303.74 167.25 306.36 171.66 308.33 C 174.23 309.57 177.04 308.14 179.64 307.74 C 185.26 307.42 190.72 308.85 196.09 310.28 C 200.19 311.60 204.25 309.63 207.72 307.59 C 211.20 306.68 214.80 306.57 218.36 306.89 C 218.24 307.63 218.09 308.37 217.92 309.11 C 211.60 306.59 205.94 311.31 199.97 312.48 C 193.27 312.21 186.91 308.56 180.10 309.66 C 177.11 309.87 173.91 311.57 171.05 310.01 C 166.85 308.13 162.76 305.55 158.04 305.38 C 149.29 304.96 141.26 308.91 132.93 310.88 C 128.59 311.83 124.84 314.69 120.28 314.78 C 121.01 312.49 121.80 310.17 123.29 308.25 C 125.68 304.94 129.61 303.26 132.13 300.07 C 134.31 297.31 135.89 294.15 137.73 291.17 Z" fill="#042232" opacity="1.00" stroke="#042232" stroke-width="0.25" data-index="29" style="opacity: 1;"></path>
<path d="M 131.33 303.27 C 134.90 300.66 136.27 296.26 139.05 292.99 C 143.31 294.26 145.31 299.46 149.97 299.78 C 155.28 300.60 160.70 300.61 166.05 300.22 C 183.42 298.11 200.82 301.27 218.23 300.35 C 218.32 302.52 218.43 304.71 218.36 306.89 C 214.80 306.57 211.20 306.68 207.72 307.59 C 209.91 305.48 212.87 304.94 215.77 304.59 C 215.81 303.95 215.90 302.69 215.94 302.05 C 207.25 301.82 198.52 302.57 189.89 301.30 C 181.56 301.00 172.99 300.17 164.86 302.44 C 168.65 306.58 174.45 306.93 179.64 307.74 C 177.04 308.14 174.23 309.57 171.66 308.33 C 167.25 306.36 162.91 303.74 157.94 303.64 C 148.92 303.45 140.56 307.24 131.95 309.34 C 128.72 310.16 125.76 311.76 122.70 313.05 C 124.26 308.79 127.81 305.89 131.33 303.27 Z" fill="#fbba99" opacity="1.00" stroke="#fbba99" stroke-width="0.25" data-index="30" style="opacity: 1;"></path>
<path d="M 219.90 298.51 C 230.32 297.84 240.68 296.57 250.99 294.92 C 257.53 293.61 263.44 298.54 269.99 297.22 L 270.20 298.63 L 270.13 298.72 C 269.79 299.12 269.12 299.92 268.79 300.32 C 268.45 303.87 268.30 308.29 271.23 310.86 C 273.43 311.50 275.77 311.27 278.03 311.12 C 272.59 312.12 266.61 312.09 261.71 309.21 C 258.67 307.67 255.58 305.08 251.94 306.00 C 246.14 307.44 241.07 311.11 235.08 311.97 C 229.19 313.33 223.33 311.29 217.92 309.11 C 218.09 308.37 218.24 307.63 218.36 306.89 C 218.43 304.71 218.32 302.52 218.23 300.35 L 218.66 300.34 C 218.75 302.49 218.67 304.77 219.91 306.65 C 220.06 303.94 220.01 301.22 219.90 298.51 Z" fill="#043157" opacity="1.00" stroke="#043157" stroke-width="0.25" data-index="31" style="opacity: 1;"></path>
<path d="M 99.21 298.29 C 102.78 298.28 107.46 296.77 110.34 299.10 C 108.39 300.11 106.14 299.99 104.02 300.17 C 96.05 300.40 88.05 302.25 80.11 300.76 C 80.03 300.28 79.85 299.33 79.77 298.86 C 86.22 298.15 92.75 299.10 99.21 298.29 Z" fill="#cbfcff" opacity="1.00" stroke="#cbfcff" stroke-width="0.25" data-index="32"></path>
<path d="M 369.77 298.44 C 374.77 297.36 379.90 297.97 384.97 297.85 C 391.38 297.91 397.85 297.33 404.21 298.48 C 398.29 301.25 391.39 299.93 385.05 300.25 C 379.99 299.76 374.37 301.03 369.77 298.44 Z" fill="#d1fdff" opacity="1.00" stroke="#d1fdff" stroke-width="0.25" data-index="33"></path>
<path d="M 164.86 302.44 C 172.99 300.17 181.56 301.00 189.89 301.30 C 198.52 302.57 207.25 301.82 215.94 302.05 C 215.90 302.69 215.81 303.95 215.77 304.59 C 212.87 304.94 209.91 305.48 207.72 307.59 C 204.25 309.63 200.19 311.60 196.09 310.28 C 190.72 308.85 185.26 307.42 179.64 307.74 C 174.45 306.93 168.65 306.58 164.86 302.44 Z" fill="#fdba99" opacity="1.00" stroke="#fdba99" stroke-width="0.25" data-index="34"></path>
<path d="M 326.89 304.74 C 329.63 303.85 332.54 302.80 335.46 303.50 C 334.59 305.88 333.49 308.18 332.25 310.39 C 332.39 308.36 332.57 306.33 332.64 304.30 C 331.33 306.59 330.23 308.99 328.95 311.30 C 327.28 309.40 329.44 306.48 329.47 304.26 C 328.82 304.38 327.53 304.62 326.89 304.74 Z" fill="#2d7591" opacity="1.00" stroke="#2d7591" stroke-width="0.25" data-index="35" style="opacity: 1; visibility: visible; fill: rgb(147, 233, 254); display: none;"></path>
<path d="M 105.32 306.46 C 108.46 306.57 111.95 305.59 114.82 307.26 C 111.99 309.79 107.49 308.26 104.08 307.76 C 104.39 307.43 105.01 306.78 105.32 306.46 Z" fill="#d4ffff" opacity="1.00" stroke="#d4ffff" stroke-width="0.25" data-index="36"></path>
<path d="M 351.70 310.76 C 352.74 308.90 354.14 307.28 355.87 306.03 C 357.89 308.15 359.48 311.64 362.93 311.41 C 370.41 311.30 377.63 306.90 385.15 309.21 C 388.28 310.25 392.07 310.76 394.14 313.60 C 385.98 311.35 377.41 310.34 369.02 311.85 C 363.25 312.95 357.27 312.66 351.70 310.76 Z" fill="#ffc8a9" opacity="1.00" stroke="#ffc8a9" stroke-width="0.25" data-index="37"></path>
<path d="M 404.50 313.01 C 404.31 311.39 402.44 309.05 404.70 308.17 C 404.83 308.83 405.09 310.14 405.22 310.80 C 408.64 311.12 412.07 311.37 415.50 311.55 C 415.54 312.38 415.58 313.23 415.63 314.07 C 412.51 317.88 408.22 320.22 403.34 320.91 C 399.31 320.64 395.24 320.58 391.22 321.09 C 394.70 322.62 398.55 322.75 402.28 323.06 C 401.53 323.47 400.80 323.89 400.08 324.34 C 396.92 329.69 391.04 332.56 385.11 333.68 C 383.46 332.98 381.85 332.05 380.04 331.86 C 378.01 332.67 376.56 334.38 374.95 335.79 C 370.77 336.27 366.40 336.04 362.44 337.65 C 358.62 339.34 354.52 340.44 351.20 343.08 C 347.53 344.55 344.06 346.43 341.10 349.10 C 338.47 351.63 334.72 351.60 331.43 352.53 C 328.89 353.86 326.94 356.14 324.25 357.19 C 313.33 361.04 301.72 362.11 290.50 364.66 C 285.19 367.65 278.99 367.35 273.15 368.28 C 267.34 369.12 261.43 368.61 255.62 369.47 C 252.11 369.97 248.56 369.91 245.02 369.89 C 241.19 369.71 237.79 372.07 233.96 371.92 C 221.97 371.87 209.97 371.88 197.98 371.94 C 193.79 371.97 190.08 369.78 186.04 369.03 C 176.29 366.91 165.67 369.18 156.45 364.68 C 150.50 362.15 144.02 361.27 137.97 359.01 C 130.61 357.33 123.80 353.73 118.07 348.86 C 115.27 346.49 111.76 345.26 108.70 343.29 C 105.01 340.95 103.68 336.27 99.99 333.95 C 98.28 332.81 96.16 333.31 94.26 333.38 C 95.03 332.05 95.92 330.73 96.16 329.17 C 94.51 328.03 92.69 327.17 90.89 326.30 C 92.24 325.99 93.59 325.69 94.94 325.39 C 92.89 325.15 90.85 324.92 88.80 324.67 C 90.64 322.70 92.60 320.85 94.64 319.08 C 97.02 321.28 99.23 324.33 102.76 324.57 C 107.88 324.92 113.04 324.64 118.15 325.31 C 116.13 325.64 114.10 325.95 112.14 326.53 L 111.43 327.67 C 118.67 329.21 126.07 328.90 133.38 328.17 C 132.75 328.46 131.49 329.05 130.86 329.34 C 132.54 330.14 134.23 330.93 135.91 331.74 C 133.65 332.31 131.38 332.87 129.11 333.43 C 132.75 334.13 136.21 335.54 139.17 337.81 C 141.97 340.15 145.64 337.36 148.74 338.29 C 151.78 340.13 154.25 343.34 157.98 343.76 C 167.78 339.16 178.22 344.09 188.00 346.03 C 204.01 346.17 220.04 345.94 236.05 346.06 C 238.71 345.59 239.74 348.21 241.30 349.75 C 246.00 350.60 250.83 349.96 255.58 349.93 C 255.84 348.65 256.09 347.38 256.34 346.11 C 261.57 345.78 267.03 346.90 272.05 344.98 C 276.93 342.94 282.39 345.15 287.30 343.28 C 294.58 340.65 302.40 341.28 309.99 340.89 C 312.68 340.80 315.09 339.49 317.40 338.23 C 319.31 338.86 321.20 339.53 323.10 340.21 C 324.81 338.18 326.69 336.14 327.40 333.52 C 327.49 333.23 327.67 332.65 327.76 332.36 C 327.23 332.06 326.15 331.45 325.61 331.14 C 329.38 330.02 334.21 331.12 336.94 327.74 C 339.51 326.89 342.06 325.94 344.55 324.86 C 350.32 324.48 356.14 324.28 361.81 323.00 C 361.64 322.49 361.31 321.47 361.14 320.95 C 362.35 320.64 363.67 320.31 364.77 321.14 C 364.75 322.42 364.61 323.70 364.48 324.99 C 368.21 322.53 372.65 322.36 376.90 323.37 C 383.89 319.40 392.04 320.12 399.68 318.76 C 399.38 318.45 398.79 317.81 398.49 317.50 C 400.56 316.09 402.56 314.59 404.50 313.01 Z" fill="#93e9fe" opacity="1.00" stroke="#93e9fe" stroke-width="0.25" data-index="38" style="opacity: 1;"></path>
<path d="M 405.48 309.64 C 412.50 307.66 419.90 309.38 427.06 308.20 C 428.69 308.58 430.30 309.05 431.91 309.54 C 431.35 309.82 430.78 310.10 430.22 310.38 C 426.55 311.47 422.69 311.23 418.93 310.87 C 414.45 310.42 409.93 310.36 405.48 309.64 Z" fill="#d8fdff" opacity="1.00" stroke="#d8fdff" stroke-width="0.25" data-index="39"></path>
<path d="M 82.65 313.66 C 84.45 312.75 86.34 311.99 88.27 311.41 C 94.01 312.25 99.94 311.71 105.50 313.61 C 103.42 313.93 101.35 314.25 99.26 314.40 C 93.72 314.23 88.15 314.44 82.65 313.66 Z" fill="#d0f9fe" opacity="1.00" stroke="#d0f9fe" stroke-width="0.25" data-index="40"></path>
<path d="M 217.93 320.56 C 223.97 320.46 230.01 320.49 236.05 320.50 C 235.63 321.18 235.19 321.86 234.73 322.53 C 229.85 322.87 224.93 322.77 220.04 322.52 C 218.85 322.64 218.54 321.26 217.93 320.56 Z" fill="#d3ffff" opacity="1.00" stroke="#d3ffff" stroke-width="0.25" data-index="41"></path>
<path d="M 145.11 320.90 C 150.00 320.16 154.95 321.00 159.87 320.84 C 166.06 320.97 172.31 320.02 178.45 321.18 C 167.74 324.25 156.12 323.98 145.26 321.74 L 145.11 320.90 Z" fill="#c4fcff" opacity="1.00" stroke="#c4fcff" stroke-width="0.25" data-index="42"></path>
<path d="M 329.62 322.59 C 340.09 321.59 350.89 323.90 361.14 320.95 C 361.31 321.47 361.64 322.49 361.81 323.00 C 356.14 324.28 350.32 324.48 344.55 324.86 C 339.57 324.32 334.09 325.33 329.62 322.59 Z" fill="#dfffff" opacity="1.00" stroke="#dfffff" stroke-width="0.25" data-index="43" style="opacity: 1;"></path>
<path d="M 391.22 321.09 C 395.24 320.58 399.31 320.64 403.34 320.91 C 406.99 321.50 410.68 321.37 414.36 321.27 C 410.96 324.09 406.33 323.01 402.28 323.06 C 398.55 322.75 394.70 322.62 391.22 321.09 Z" fill="#c1fbff" opacity="1.00" stroke="#c1fbff" stroke-width="0.25" data-index="44"></path>
<path d="M 304.03 322.97 C 308.36 322.38 312.74 322.18 317.10 322.48 C 316.83 322.78 316.30 323.38 316.03 323.69 C 306.80 325.48 297.34 325.68 287.96 325.20 C 285.80 325.09 283.65 324.64 281.84 323.40 C 289.23 322.89 296.66 323.87 304.03 322.97 Z" fill="#d4ffff" opacity="1.00" stroke="#d4ffff" stroke-width="0.25" data-index="45"></path>
<path d="M 125.98 326.62 C 130.00 326.54 133.95 325.56 137.98 325.74 C 136.48 326.61 134.97 327.47 133.38 328.17 C 126.07 328.90 118.67 329.21 111.43 327.67 L 112.14 326.53 C 116.75 326.59 121.37 326.69 125.98 326.62 Z" fill="#c8fcff" opacity="1.00" stroke="#c8fcff" stroke-width="0.25" data-index="46"></path>
<path d="M 165.75 329.40 C 171.07 328.10 176.55 328.79 181.96 328.63 C 184.48 328.71 187.29 328.16 189.50 329.72 C 183.07 330.90 176.50 330.98 169.98 330.74 C 168.45 330.78 166.99 330.29 165.75 329.40 Z" fill="#b7faff" opacity="1.00" stroke="#b7faff" stroke-width="0.25" data-index="47"></path>
<path d="M 232.65 329.82 C 233.90 328.90 235.36 328.33 236.94 328.52 C 246.30 328.70 255.67 329.02 265.04 328.56 C 267.44 328.62 270.17 327.97 272.22 329.60 C 267.51 330.47 262.75 331.25 257.96 331.38 C 249.51 331.47 240.92 331.85 232.65 329.82 Z" fill="#cdfdff" opacity="1.00" stroke="#cdfdff" stroke-width="0.25" data-index="48"></path>
<path d="M 300.61 331.60 C 308.93 330.92 317.31 332.20 325.61 331.14 C 326.15 331.45 327.23 332.06 327.76 332.36 C 327.67 332.65 327.49 333.23 327.40 333.52 C 320.32 333.52 313.21 334.06 306.14 333.45 C 304.15 333.33 302.34 332.48 300.61 331.60 Z" fill="#e0ffff" opacity="1.00" stroke="#e0ffff" stroke-width="0.25" data-index="49" style="opacity: 1;"></path>
<path d="M231.38,286.44c1.41,-0.2 1.87,-1.88 2.88,-2.73c0.32,0.02 0.98,0.08 1.3,0.11l0.42,0.27c-0.58,0.38 -1.75,1.13 -2.33,1.51c-0.36,2.41 -0.93,4.78 -1.44,7.17c4.17,0.58 6.53,-3.25 9.32,-5.58c1.67,2.16 0.26,8.05 4.42,6.97c1.2,-2.44 1.79,-5.12 2.5,-7.72c16.21,0.08 32.43,-0.12 48.64,0.08c-8.33,5.09 -17.67,8.31 -27.1,10.7c-6.55,1.32 -12.46,-3.61 -19,-2.3c-10.31,1.65 -20.67,2.92 -31.09,3.59c-11,0.29 -22.03,0.32 -32.99,-0.77c-12.29,-0.98 -24.6,2.35 -36.84,0.25c-4.95,-0.73 -7.05,-6.96 -12.34,-6.82c-1.84,2.98 -3.42,6.14 -5.6,8.9c-2.52,3.19 -6.45,4.87 -8.84,8.18c-1.49,1.92 -2.28,4.24 -3.01,6.53c4.56,-0.09 8.31,-2.95 12.65,-3.9c8.33,-1.97 16.36,-5.92 25.11,-5.5c4.72,0.17 8.81,2.75 13.01,4.63c2.86,1.56 6.06,-0.14 9.05,-0.35c6.81,-1.1 13.17,2.55 19.87,2.82c5.97,-1.17 11.63,-5.89 17.95,-3.37c5.41,2.18 11.27,4.22 17.16,2.86c5.99,-0.86 11.06,-4.53 16.86,-5.97c3.64,-0.92 6.73,1.67 9.77,3.21c4.9,2.88 10.88,2.91 16.32,1.91c4.67,-1.01 8.94,-4.66 13.93,-3.34c6.85,1.77 13.83,4.85 21.04,3.34c4.91,-1.46 8.97,-4.88 13.89,-6.38c2.74,-0.89 5.65,-1.94 8.57,-1.24c3.63,1.54 6.86,3.82 10.11,6.01c5.91,4.03 13.38,5.44 20.42,4.52c4.95,-0.64 9.95,-1.51 14.97,-0.99c5.33,0.37 10.47,1.98 15.8,2.39c-0.39,-1.23 -0.41,-2.76 -1.59,-3.56c-5.88,-4.68 -14.03,-6.17 -21.26,-4.28c-4.17,0.71 -8.49,2.86 -12.72,1.58c-7.93,-8.61 -17.26,-16.05 -27.41,-21.88c5.42,-0.07 10.79,-0.97 16.22,-0.8c16.44,0.11 32.89,-0.09 49.33,0.24c3.11,1.65 6.65,1.64 10.08,1.61c2.63,5.39 4.25,11.25 3.4,17.3c-2.69,0.91 -5.4,1.71 -8.11,2.53c-2.26,0.88 -0.39,3.22 -0.2,4.84c-1.94,1.58 -3.94,3.08 -6.01,4.49c0.3,0.31 0.89,0.95 1.19,1.26c-7.64,1.36 -15.79,0.64 -22.78,4.61c-4.25,-1.01 -8.69,-0.84 -12.42,1.62c0.13,-1.29 0.27,-2.57 0.29,-3.85c-1.1,-0.83 -2.42,-0.5 -3.63,-0.19c-10.25,2.95 -21.05,0.64 -31.52,1.64c4.47,2.74 9.95,1.73 14.93,2.27c-2.49,1.08 -5.04,2.03 -7.61,2.88c-2.73,3.38 -7.56,2.28 -11.33,3.4c-8.3,1.06 -16.68,-0.22 -25,0.46c1.73,0.88 3.54,1.73 5.53,1.85c7.07,0.61 14.18,0.07 21.26,0.07c-0.71,2.62 -2.59,4.66 -4.3,6.69c-1.9,-0.68 -3.79,-1.35 -5.7,-1.98c-2.31,1.26 -4.72,2.57 -7.41,2.66c-7.59,0.39 -15.41,-0.24 -22.69,2.39c-4.91,1.87 -10.37,-0.34 -15.25,1.7c-5.02,1.92 -10.48,0.8 -15.71,1.13c-0.25,1.27 -0.5,2.54 -0.76,3.82c-4.75,0.03 -9.58,0.67 -14.28,-0.18c-1.56,-1.54 -2.59,-4.16 -5.25,-3.69c-16.01,-0.12 -32.04,0.11 -48.05,-0.03c-9.78,-1.94 -20.22,-6.87 -30.02,-2.27c-3.73,-0.42 -6.2,-3.63 -9.24,-5.47c-3.1,-0.93 -6.77,1.86 -9.57,-0.48c-2.96,-2.27 -6.42,-3.68 -10.06,-4.38c2.27,-0.56 4.54,-1.12 6.8,-1.69c-1.68,-0.81 -3.37,-1.6 -5.05,-2.4c0.63,-0.29 1.89,-0.88 2.52,-1.17c1.59,-0.7 3.1,-1.56 4.6,-2.43c-4.03,-0.18 -7.98,0.8 -12,0.88c-4.61,0.07 -9.23,-0.03 -13.84,-0.09c1.96,-0.58 3.99,-0.89 6.01,-1.22c-5.11,-0.67 -10.27,-0.39 -15.39,-0.74c-3.53,-0.24 -5.74,-3.29 -8.12,-5.49c-4.83,-1.67 -9.96,0.25 -14.92,-0.21c1.42,-0.44 2.84,-0.88 4.27,-1.3c-1.32,-0.38 -2.65,-0.77 -3.97,-1.15c6.28,-1.7 12.81,-1.51 19.24,-2.02c2.09,-0.15 4.16,-0.47 6.24,-0.79c-5.56,-1.9 -11.49,-1.36 -17.23,-2.2c-2.6,-0.63 -5.16,0.03 -7.48,1.24c-2.58,-4.23 -4.48,-9.29 -3.32,-14.29c0.9,-3.23 2.05,-6.41 3.59,-9.4c4.43,-1.15 9.21,-0.37 13.53,-2.19c45.59,-0.43 91.2,-0.19 136.79,-0.33zM332.25,310.39c0.14,-2.03 0.32,-4.06 0.39,-6.09c-0.07,2.03 -0.25,4.06 -0.39,6.09zM332.64,304.3c-1.31,2.29 -2.41,4.69 -3.69,7c1.28,-2.31 2.38,-4.71 3.69,-7zM328.95,311.3c-1.67,-1.9 0.49,-4.82 0.52,-7.04c-0.03,2.22 -2.19,5.14 -0.52,7.04zM329.47,304.26c-0.65,0.12 -1.94,0.36 -2.58,0.48c0.64,-0.12 1.93,-0.36 2.58,-0.48z" id="path-35 1" fill="url(#grad-50)" fill-rule="nonzero" stroke="url(#grad-50)" stroke-width="0.25" stroke-linecap="butt" stroke-linejoin="miter" stroke-miterlimit="10" stroke-dasharray="" stroke-dashoffset="0" font-family="none" font-weight="none" font-size="none" text-anchor="none" style="mix-blend-mode: normal; opacity: 1; display: none;" data-index="50"></path><path d="M231.38,286.44c1.41,-0.2 1.87,-1.88 2.88,-2.73c0.32,0.02 0.98,0.08 1.3,0.11l0.42,0.27c-0.58,0.38 -1.75,1.13 -2.33,1.51c-0.36,2.41 -0.93,4.78 -1.44,7.17c4.17,0.58 6.53,-3.25 9.32,-5.58c1.67,2.16 0.26,8.05 4.42,6.97c1.2,-2.44 1.79,-5.12 2.5,-7.72c16.21,0.08 32.43,-0.12 48.64,0.08c-8.33,5.09 -17.67,8.31 -27.1,10.7c-6.55,1.32 -12.46,-3.61 -19,-2.3c-10.31,1.65 -20.67,2.92 -31.09,3.59c-11,0.29 -22.03,0.32 -32.99,-0.77c-12.29,-0.98 -24.6,2.35 -36.84,0.25c-4.95,-0.73 -7.05,-6.96 -12.34,-6.82c-1.84,2.98 -3.42,6.14 -5.6,8.9c-2.52,3.19 -6.45,4.87 -8.84,8.18c-1.49,1.92 -2.28,4.24 -3.01,6.53c4.56,-0.09 8.31,-2.95 12.65,-3.9c8.33,-1.97 16.36,-5.92 25.11,-5.5c4.72,0.17 8.81,2.75 13.01,4.63c2.86,1.56 6.06,-0.14 9.05,-0.35c6.81,-1.1 13.17,2.55 19.87,2.82c5.97,-1.17 11.63,-5.89 17.95,-3.37c5.41,2.18 11.27,4.22 17.16,2.86c5.99,-0.86 11.06,-4.53 16.86,-5.97c3.64,-0.92 6.73,1.67 9.77,3.21c4.9,2.88 10.88,2.91 16.32,1.91c4.67,-1.01 8.94,-4.66 13.93,-3.34c6.85,1.77 13.83,4.85 21.04,3.34c4.91,-1.46 8.97,-4.88 13.89,-6.38c2.74,-0.89 5.65,-1.94 8.57,-1.24c3.63,1.54 6.86,3.82 10.11,6.01c5.91,4.03 13.38,5.44 20.42,4.52c4.95,-0.64 9.95,-1.51 14.97,-0.99c5.33,0.37 10.47,1.98 15.8,2.39c-0.39,-1.23 -0.41,-2.76 -1.59,-3.56c-5.88,-4.68 -14.03,-6.17 -21.26,-4.28c-4.17,0.71 -8.49,2.86 -12.72,1.58c-7.93,-8.61 -17.26,-16.05 -27.41,-21.88c5.42,-0.07 10.79,-0.97 16.22,-0.8c16.44,0.11 32.89,-0.09 49.33,0.24c3.11,1.65 6.65,1.64 10.08,1.61c2.63,5.39 4.25,11.25 3.4,17.3c-2.69,0.91 -5.4,1.71 -8.11,2.53c-2.26,0.88 -0.39,3.22 -0.2,4.84c-1.94,1.58 -3.94,3.08 -6.01,4.49c0.3,0.31 0.89,0.95 1.19,1.26c-7.64,1.36 -15.79,0.64 -22.78,4.61c-4.25,-1.01 -8.69,-0.84 -12.42,1.62c0.13,-1.29 0.27,-2.57 0.29,-3.85c-1.1,-0.83 -2.42,-0.5 -3.63,-0.19c-10.25,2.95 -21.05,0.64 -31.52,1.64c4.47,2.74 9.95,1.73 14.93,2.27c-2.49,1.08 -5.04,2.03 -7.61,2.88c-2.73,3.38 -7.56,2.28 -11.33,3.4c-8.3,1.06 -16.68,-0.22 -25,0.46c1.73,0.88 3.54,1.73 5.53,1.85c7.07,0.61 14.18,0.07 21.26,0.07c-0.71,2.62 -2.59,4.66 -4.3,6.69c-1.9,-0.68 -3.79,-1.35 -5.7,-1.98c-2.31,1.26 -4.72,2.57 -7.41,2.66c-7.59,0.39 -15.41,-0.24 -22.69,2.39c-4.91,1.87 -10.37,-0.34 -15.25,1.7c-5.02,1.92 -10.48,0.8 -15.71,1.13c-0.25,1.27 -0.5,2.54 -0.76,3.82c-4.75,0.03 -9.58,0.67 -14.28,-0.18c-1.56,-1.54 -2.59,-4.16 -5.25,-3.69c-16.01,-0.12 -32.04,0.11 -48.05,-0.03c-9.78,-1.94 -20.22,-6.87 -30.02,-2.27c-3.73,-0.42 -6.2,-3.63 -9.24,-5.47c-3.1,-0.93 -6.77,1.86 -9.57,-0.48c-2.96,-2.27 -6.42,-3.68 -10.06,-4.38c2.27,-0.56 4.54,-1.12 6.8,-1.69c-1.68,-0.81 -3.37,-1.6 -5.05,-2.4c0.63,-0.29 1.89,-0.88 2.52,-1.17c1.59,-0.7 3.1,-1.56 4.6,-2.43c-4.03,-0.18 -7.98,0.8 -12,0.88c-4.61,0.07 -9.23,-0.03 -13.84,-0.09c1.96,-0.58 3.99,-0.89 6.01,-1.22c-5.11,-0.67 -10.27,-0.39 -15.39,-0.74c-3.53,-0.24 -5.74,-3.29 -8.12,-5.49c-4.83,-1.67 -9.96,0.25 -14.92,-0.21c1.42,-0.44 2.84,-0.88 4.27,-1.3c-1.32,-0.38 -2.65,-0.77 -3.97,-1.15c6.28,-1.7 12.81,-1.51 19.24,-2.02c2.09,-0.15 4.16,-0.47 6.24,-0.79c-5.56,-1.9 -11.49,-1.36 -17.23,-2.2c-2.6,-0.63 -5.16,0.03 -7.48,1.24c-2.58,-4.23 -4.48,-9.29 -3.32,-14.29c0.9,-3.23 2.05,-6.41 3.59,-9.4c4.43,-1.15 9.21,-0.37 13.53,-2.19c45.59,-0.43 91.2,-0.19 136.79,-0.33zM332.25,310.39c0.14,-2.03 0.32,-4.06 0.39,-6.09c-0.07,2.03 -0.25,4.06 -0.39,6.09zM332.64,304.3c-1.31,2.29 -2.41,4.69 -3.69,7c1.28,-2.31 2.38,-4.71 3.69,-7zM328.95,311.3c-1.67,-1.9 0.49,-4.82 0.52,-7.04c-0.03,2.22 -2.19,5.14 -0.52,7.04zM329.47,304.26c-0.65,0.12 -1.94,0.36 -2.58,0.48c0.64,-0.12 1.93,-0.36 2.58,-0.48z" id="path-35 1" fill="url(#grad-51)" fill-rule="nonzero" stroke="url(#grad-51)" stroke-width="0.25" stroke-linecap="butt" stroke-linejoin="miter" stroke-miterlimit="10" stroke-dasharray="" stroke-dashoffset="0" font-family="none" font-weight="none" font-size="none" text-anchor="none" style="mix-blend-mode: normal; opacity: 1;" data-index="51"></path></svg>