<svg xmlns="http://www.w3.org/2000/svg" height="512pt" version="1.1" viewBox="0 0 512 512" width="512pt"><defs>
                <linearGradient id="grad-55" gradientTransform="rotate(0 0.5 0.5)">
                
                        <stop stop-color="#362630" offset="0"></stop>
                    ,
                        <stop stop-color="#012a4a" offset="0.3333333333333333"></stop>
                    ,
                        <stop stop-color="#04192e" offset="0.6666666666666666"></stop>
                    
                </linearGradient>
          </defs><defs>
                <linearGradient id="grad-54" gradientTransform="rotate(240 0.5 0.5)">
                
                        <stop stop-color="#012a4a" offset="0"></stop>
                    ,
                        <stop stop-color="#362630" offset="0.3333333333333333"></stop>
                    ,
                        <stop stop-color="#012a4a" offset="0.6666666666666666"></stop>
                    
                </linearGradient>
          </defs><defs>
                <linearGradient id="grad-53" gradientTransform="rotate(135 0.5 0.5)">
                
                        <stop stop-color="#012a4a" offset="0"></stop>
                    
                </linearGradient>
          </defs><defs>
                <linearGradient id="grad-52" gradientTransform="rotate(146 0.5 0.5)">
                
                        <stop stop-color="#012a4a" offset="0"></stop>
                    ,
                        <stop stop-color="#012a4a" offset="0.5"></stop>
                    
                </linearGradient>
          </defs>
<path d="M 0.00 0.00 L 512.00 0.00 L 512.00 512.00 L 0.00 512.00 L 0.00 0.00 Z" fill="transparent" opacity="1.00" stroke="transparent" stroke-width="0.25" data-index="0" style="opacity: 1;"></path>
<path d="M 289.85 57.88 C 305.52 52.99 322.74 51.96 338.60 56.59 C 349.40 59.85 360.15 66.73 364.19 77.74 C 366.46 85.76 365.08 94.31 361.02 101.51 C 353.06 114.40 337.79 120.77 323.35 123.05 C 314.55 123.61 305.69 123.80 296.90 122.96 L 296.21 122.80 C 294.23 122.33 292.30 121.54 290.25 121.40 C 285.11 122.88 280.45 125.61 275.63 127.86 L 274.86 128.13 C 273.06 128.39 271.26 128.52 269.45 128.65 C 274.44 126.09 279.69 124.08 284.59 121.35 C 287.25 120.39 290.04 119.04 292.93 119.92 C 310.23 123.93 329.12 122.15 344.87 113.70 C 353.33 109.13 360.54 101.43 362.71 91.87 C 364.57 84.69 362.55 76.79 357.92 71.08 C 352.48 64.25 344.20 60.33 335.92 58.16 C 326.22 55.40 316.00 55.94 306.05 56.51 C 295.32 58.27 283.51 60.50 275.85 68.94 C 268.47 76.31 266.64 87.81 269.49 97.61 C 271.13 104.10 275.50 109.38 280.53 113.61 C 280.51 114.00 280.48 114.78 280.46 115.18 C 280.17 115.51 279.59 116.18 279.29 116.51 C 275.82 120.07 272.44 123.74 269.39 127.68 C 269.33 127.01 269.21 125.68 269.15 125.02 C 271.78 121.44 275.00 118.35 277.81 114.92 C 277.69 113.79 276.62 113.16 275.95 112.36 C 272.43 109.08 269.70 104.92 268.09 100.39 C 266.13 93.02 265.98 85.23 267.76 77.81 C 271.15 67.88 280.08 60.95 289.85 57.88 Z" fill="#29262f" opacity="1.00" stroke="#29262f" stroke-width="0.25" data-index="1"></path>
<path d="M 275.85 68.94 C 283.51 60.50 295.32 58.27 306.05 56.51 C 316.00 55.94 326.22 55.40 335.92 58.16 C 344.20 60.33 352.48 64.25 357.92 71.08 C 362.55 76.79 364.57 84.69 362.71 91.87 C 360.54 101.43 353.33 109.13 344.87 113.70 C 329.12 122.15 310.23 123.93 292.93 119.92 C 290.04 119.04 287.25 120.39 284.59 121.35 C 281.23 122.15 277.89 123.06 274.71 124.41 C 276.30 121.81 277.76 119.14 279.29 116.51 C 279.59 116.18 280.17 115.51 280.46 115.18 C 280.48 114.78 280.51 114.00 280.53 113.61 C 275.50 109.38 271.13 104.10 269.49 97.61 C 266.64 87.81 268.47 76.31 275.85 68.94 Z" fill="#f1552f" opacity="1.00" stroke="#f1552f" stroke-width="0.25" data-index="2"></path>
<path d="M 268.09 100.39 C 264.97 93.34 265.21 84.99 267.76 77.81 C 265.98 85.23 266.13 93.02 268.09 100.39 Z" fill="#7a8f9f" opacity="1.00" stroke="#7a8f9f" stroke-width="0.25" data-index="3"></path>
<path d="M 364.19 77.74 C 367.35 85.36 366.25 95.04 361.02 101.51 C 365.08 94.31 366.46 85.76 364.19 77.74 Z" fill="#a5b7c0" opacity="1.00" stroke="#a5b7c0" stroke-width="0.25" data-index="4"></path>
<path d="M 328.74 86.68 C 330.31 86.63 331.88 86.59 333.45 86.55 C 333.50 88.27 333.55 89.98 333.60 91.70 C 331.90 91.63 330.20 91.55 328.51 91.47 C 328.58 89.87 328.66 88.28 328.74 86.68 Z" fill="#ffd927" opacity="1.00" stroke="#ffd927" stroke-width="0.25" data-index="5"></path>
<path d="M 295.50 88.94 C 295.87 88.28 296.59 86.96 296.95 86.29 C 298.91 86.42 300.60 87.22 301.83 88.77 C 301.47 89.48 300.74 90.91 300.37 91.62 C 299.10 91.64 297.82 91.66 296.55 91.68 C 296.29 90.99 295.77 89.62 295.50 88.94 Z" fill="#ffdb11" opacity="1.00" stroke="#ffdb11" stroke-width="0.25" data-index="6"></path>
<path d="M 312.57 87.67 C 313.68 86.09 316.38 85.89 317.36 87.72 C 317.58 88.98 317.58 90.26 317.66 91.53 C 315.89 91.55 314.13 91.57 312.37 91.58 C 312.40 90.28 312.40 88.97 312.57 87.67 Z" fill="#ffdb12" opacity="1.00" stroke="#ffdb12" stroke-width="0.25" data-index="7"></path>
<path d="M 239.78 108.45 C 241.33 106.30 242.63 103.97 244.06 101.74 C 246.99 107.31 248.18 114.60 245.00 120.31 C 243.10 123.09 245.98 126.12 246.20 129.03 C 246.79 133.06 250.02 136.04 250.71 140.01 C 249.56 140.49 248.41 140.96 247.27 141.43 C 248.17 146.15 248.48 151.82 244.84 155.52 C 242.40 158.23 238.59 158.61 235.17 158.77 C 234.75 158.60 233.90 158.26 233.48 158.09 C 229.29 156.19 224.46 153.50 223.75 148.47 C 227.63 151.90 231.29 156.62 236.98 156.64 C 240.83 157.30 243.44 154.14 245.63 151.53 C 242.01 150.72 237.23 150.08 235.77 146.04 C 235.93 145.57 236.25 144.64 236.41 144.17 C 239.60 144.35 242.70 145.29 245.86 145.74 C 245.37 143.64 244.85 141.54 244.31 139.46 C 245.79 139.37 247.28 139.29 248.77 139.21 C 247.00 136.01 245.33 132.75 243.99 129.35 C 240.19 130.81 236.19 131.64 232.14 131.95 C 232.26 131.40 232.52 130.31 232.64 129.76 C 233.93 129.12 235.23 128.49 236.54 127.86 C 238.90 127.39 241.25 126.87 243.62 126.40 C 243.14 125.47 242.66 124.55 242.19 123.62 C 236.79 126.46 230.59 125.59 224.93 124.17 C 225.37 125.44 225.82 126.72 226.30 127.99 C 226.75 131.00 227.30 134.03 227.18 137.09 C 227.00 137.68 226.64 138.84 226.47 139.42 C 222.92 139.13 221.49 134.57 217.73 135.40 C 217.61 137.10 217.49 138.81 217.37 140.51 C 219.14 142.73 221.79 143.02 224.44 142.62 C 221.78 147.22 220.62 152.56 217.55 156.93 C 216.64 156.93 215.73 156.92 214.83 156.90 L 213.97 156.87 C 211.42 151.61 207.43 147.09 205.70 141.43 C 203.67 135.15 203.36 127.78 206.81 121.93 C 209.19 117.89 213.40 115.14 217.98 114.27 C 223.59 107.86 232.87 112.01 239.78 108.45 Z" fill="#0f2032" opacity="1.00" stroke="#0f2032" stroke-width="0.25" data-index="8"></path>
<path d="M 238.27 111.19 C 240.60 110.39 242.27 108.49 244.05 106.90 C 244.71 111.74 245.79 117.99 241.46 121.48 C 235.58 125.14 228.69 122.29 222.34 122.35 C 224.16 126.98 225.06 131.90 224.94 136.89 C 223.20 134.38 220.64 132.83 217.51 133.26 C 216.56 135.39 215.05 137.61 215.78 140.06 C 216.01 142.94 218.83 144.19 220.81 145.76 C 219.41 149.27 217.86 152.72 216.09 156.06 C 212.32 149.65 207.27 143.57 206.23 135.97 C 205.78 130.85 206.01 124.89 209.86 120.99 C 211.73 118.78 214.28 117.30 217.08 116.57 C 219.87 115.82 221.89 113.52 224.59 112.58 C 229.12 111.82 233.85 112.61 238.27 111.19 Z" fill="#5f4440" opacity="1.00" stroke="#5f4440" stroke-width="0.25" data-index="9"></path>
<path d="M 269.39 127.68 C 272.44 123.74 275.82 120.07 279.29 116.51 C 277.76 119.14 276.30 121.81 274.71 124.41 C 277.89 123.06 281.23 122.15 284.59 121.35 C 279.69 124.08 274.44 126.09 269.45 128.65 C 269.44 128.40 269.40 127.92 269.39 127.68 Z" fill="#ac5b4b" opacity="1.00" stroke="#ac5b4b" stroke-width="0.25" data-index="10"></path>
<path d="M 275.63 127.86 C 280.45 125.61 285.11 122.88 290.25 121.40 C 292.30 121.54 294.23 122.33 296.21 122.80 C 293.55 122.59 290.68 121.38 288.13 122.72 C 283.99 124.49 280.05 126.82 275.63 127.86 Z" fill="#9eaebc" opacity="1.00" stroke="#9eaebc" stroke-width="0.25" data-index="11"></path>
<path d="M 224.93 124.17 C 230.59 125.59 236.79 126.46 242.19 123.62 C 242.66 124.55 243.14 125.47 243.62 126.40 C 241.25 126.87 238.90 127.39 236.54 127.86 C 233.59 126.47 230.38 125.92 227.15 125.90 C 227.35 129.60 228.43 133.46 227.18 137.09 C 227.30 134.03 226.75 131.00 226.30 127.99 C 225.82 126.72 225.37 125.44 224.93 124.17 Z" fill="#fefffd" opacity="1.00" stroke="#fefffd" stroke-width="0.25" data-index="12"></path>
<path d="M 296.90 122.96 C 305.69 123.80 314.55 123.61 323.35 123.05 C 314.63 124.72 305.61 124.80 296.90 122.96 Z" fill="#002a51" opacity="1.00" stroke="#002a51" stroke-width="0.25" data-index="13"></path>
<path d="M 265.16 129.19 C 266.48 127.79 267.78 126.36 269.15 125.02 C 269.21 125.68 269.33 127.01 269.39 127.68 C 269.40 127.92 269.44 128.40 269.45 128.65 C 271.26 128.52 273.06 128.39 274.86 128.13 C 270.81 130.07 266.73 131.97 262.55 133.62 C 262.65 131.76 264.11 130.54 265.16 129.19 Z" fill="#092742" opacity="1.00" stroke="#092742" stroke-width="0.25" data-index="14"></path>
<path d="M 227.15 125.90 C 230.38 125.92 233.59 126.47 236.54 127.86 C 235.23 128.49 233.93 129.12 232.64 129.76 C 232.52 130.31 232.26 131.40 232.14 131.95 C 236.19 131.64 240.19 130.81 243.99 129.35 C 245.33 132.75 247.00 136.01 248.77 139.21 C 247.28 139.29 245.79 139.37 244.31 139.46 C 244.85 141.54 245.37 143.64 245.86 145.74 C 242.70 145.29 239.60 144.35 236.41 144.17 C 236.25 144.64 235.93 145.57 235.77 146.04 C 237.23 150.08 242.01 150.72 245.63 151.53 C 243.44 154.14 240.83 157.30 236.98 156.64 C 231.29 156.62 227.63 151.90 223.75 148.47 C 224.46 153.50 229.29 156.19 233.48 158.09 C 233.52 158.42 233.60 159.06 233.64 159.39 C 233.60 161.13 233.52 162.87 233.42 164.61 C 227.76 164.03 222.44 161.98 217.49 159.26 C 217.50 158.48 217.52 157.70 217.55 156.93 C 220.62 152.56 221.78 147.22 224.44 142.62 C 221.79 143.02 219.14 142.73 217.37 140.51 C 217.49 138.81 217.61 137.10 217.73 135.40 C 221.49 134.57 222.92 139.13 226.47 139.42 C 226.64 138.84 227.00 137.68 227.18 137.09 C 228.43 133.46 227.35 129.60 227.15 125.90 Z" fill="#fdccb7" opacity="1.00" stroke="#fdccb7" stroke-width="0.25" data-index="15"></path>
<path d="M 237.07 135.76 C 237.32 133.91 237.69 131.92 240.12 132.43 C 240.53 133.16 241.35 134.62 241.76 135.35 C 240.20 135.56 238.64 135.70 237.07 135.76 Z" fill="#04192e" opacity="1.00" stroke="#04192e" stroke-width="0.25" data-index="16"></path>
<path d="M 344.45 137.50 C 346.27 136.54 348.04 134.93 350.24 135.30 C 350.42 135.89 350.78 137.08 350.96 137.68 C 351.63 137.66 352.97 137.64 353.65 137.62 C 353.60 139.78 353.93 141.89 354.56 143.96 C 352.79 145.66 350.83 147.13 348.85 148.56 C 349.77 148.59 351.61 148.65 352.53 148.68 C 352.07 152.08 348.78 153.58 346.42 155.55 C 341.48 159.16 337.09 163.56 331.80 166.68 L 330.80 166.53 C 330.41 166.44 329.63 166.26 329.23 166.18 C 331.85 164.57 334.42 162.86 336.78 160.88 C 340.85 157.27 345.27 154.07 349.57 150.75 C 347.00 151.73 344.54 152.94 342.18 154.35 L 340.03 155.17 C 340.12 154.68 340.30 153.71 340.39 153.23 C 344.50 149.73 348.86 146.53 352.85 142.90 C 348.49 145.16 344.59 148.17 340.77 151.23 C 340.12 151.35 338.82 151.59 338.16 151.72 C 338.41 151.22 338.91 150.21 339.16 149.71 C 343.63 146.34 348.35 143.23 352.20 139.13 C 347.80 141.23 343.87 144.17 340.17 147.33 C 338.82 147.82 337.44 148.26 336.05 148.64 C 339.79 144.00 345.52 141.67 349.46 137.25 C 343.24 139.73 338.04 144.06 332.26 147.36 C 330.85 147.82 329.45 148.31 328.06 148.82 L 327.58 148.46 C 327.37 145.03 327.72 141.46 326.25 138.25 C 325.32 141.90 324.37 145.55 323.20 149.14 C 321.85 152.93 321.56 156.97 321.19 160.94 C 320.06 157.33 320.50 153.50 320.91 149.81 C 322.16 145.22 323.72 140.72 324.85 136.10 C 330.02 136.69 329.31 143.08 329.47 146.91 C 334.38 143.64 339.46 140.64 344.45 137.50 Z" fill="#04192e" opacity="1.00" stroke="#04192e" stroke-width="0.25" data-index="17"></path>
<path d="M 332.26 147.36 C 338.04 144.06 343.24 139.73 349.46 137.25 C 345.52 141.67 339.79 144.00 336.05 148.64 C 337.44 148.26 338.82 147.82 340.17 147.33 C 339.92 147.93 339.42 149.12 339.16 149.71 C 338.91 150.21 338.41 151.22 338.16 151.72 C 338.82 151.59 340.12 151.35 340.77 151.23 L 340.39 153.23 C 340.30 153.71 340.12 154.68 340.03 155.17 L 342.18 154.35 C 340.40 156.54 338.74 158.83 336.78 160.88 C 334.42 162.86 331.85 164.57 329.23 166.18 C 326.01 165.46 323.70 162.89 321.19 160.94 C 321.56 156.97 321.85 152.93 323.20 149.14 C 323.20 149.88 323.19 151.36 323.19 152.10 C 324.02 149.96 324.78 147.80 325.59 145.66 C 326.23 146.61 326.89 147.54 327.58 148.46 L 328.06 148.82 C 329.46 150.52 332.23 149.58 332.26 147.36 Z" fill="#ffcab4" opacity="1.00" stroke="#ffcab4" stroke-width="0.25" data-index="18"></path>
<path d="M 326.25 138.25 C 327.72 141.46 327.37 145.03 327.58 148.46 C 326.89 147.54 326.23 146.61 325.59 145.66 C 324.78 147.80 324.02 149.96 323.19 152.10 C 323.19 151.36 323.20 149.88 323.20 149.14 C 324.37 145.55 325.32 141.90 326.25 138.25 Z" fill="#fefffd" opacity="1.00" stroke="#fefffd" stroke-width="0.25" data-index="19"></path>
<path d="M 340.17 147.33 C 343.87 144.17 347.80 141.23 352.20 139.13 C 348.35 143.23 343.63 146.34 339.16 149.71 C 339.42 149.12 339.92 147.93 340.17 147.33 Z" fill="#ffffff" opacity="1.00" stroke="#ffffff" stroke-width="0.25" data-index="20"></path>
<path d="M 340.77 151.23 C 344.59 148.17 348.49 145.16 352.85 142.90 C 348.86 146.53 344.50 149.73 340.39 153.23 L 340.77 151.23 Z" fill="#feffff" opacity="1.00" stroke="#feffff" stroke-width="0.25" data-index="21"></path>
<path d="M 237.26 146.25 C 240.19 146.39 243.02 147.19 245.91 147.55 C 245.81 148.02 245.60 148.96 245.50 149.43 C 242.53 149.09 239.37 148.59 237.26 146.25 Z" fill="#feffff" opacity="1.00" stroke="#feffff" stroke-width="0.25" data-index="22"></path>
<path d="M 328.06 148.82 C 329.45 148.31 330.85 147.82 332.26 147.36 C 332.23 149.58 329.46 150.52 328.06 148.82 Z" fill="#fefffd" opacity="1.00" stroke="#fefffd" stroke-width="0.25" data-index="23"></path>
<path d="M 319.49 159.09 C 319.71 155.97 320.17 152.86 320.91 149.81 C 320.50 153.50 320.06 157.33 321.19 160.94 C 323.70 162.89 326.01 165.46 329.23 166.18 C 329.63 166.26 330.41 166.44 330.80 166.53 C 330.50 168.49 330.64 170.62 329.33 172.27 C 321.74 184.00 314.02 195.93 303.48 205.28 C 299.92 208.91 294.41 207.91 289.88 207.41 C 279.18 205.34 268.96 201.43 258.64 198.01 C 258.76 209.35 259.28 220.68 259.21 232.03 C 259.98 246.86 261.97 261.60 262.72 276.44 C 262.13 276.67 260.95 277.13 260.36 277.36 C 263.03 330.36 265.31 383.39 268.24 436.37 C 267.57 436.73 266.24 437.45 265.58 437.81 C 267.48 438.65 269.34 439.63 270.99 440.92 C 276.73 445.40 282.97 449.57 287.05 455.75 C 278.57 457.56 269.86 456.56 261.28 456.99 C 261.38 452.02 261.61 447.03 261.28 442.06 C 261.29 440.40 260.67 438.86 259.70 437.56 C 255.86 437.51 252.03 437.49 248.20 437.70 C 247.79 437.99 246.97 438.56 246.56 438.85 C 246.60 443.39 246.55 447.95 246.95 452.49 C 247.26 453.08 247.89 454.26 248.20 454.85 L 248.48 455.43 C 247.61 455.45 246.75 455.47 245.89 455.49 C 245.81 449.58 245.83 443.67 245.70 437.77 C 244.33 437.71 242.97 437.65 241.60 437.59 C 240.11 415.39 238.48 393.21 236.93 371.02 C 235.64 351.27 233.83 331.56 232.96 311.79 C 230.16 325.49 227.89 339.29 225.37 353.04 C 222.34 371.32 218.42 389.50 217.16 408.02 C 216.46 417.96 215.56 427.88 215.20 437.84 C 214.34 438.15 213.47 438.45 212.61 438.76 C 219.57 443.20 226.37 448.08 232.14 454.00 C 231.77 454.25 231.02 454.73 230.64 454.98 C 223.37 448.94 216.09 442.78 207.81 438.16 C 207.51 442.22 207.04 446.28 206.67 450.34 C 206.54 446.00 206.24 441.67 206.10 437.34 C 200.98 436.78 195.67 436.14 190.68 437.80 C 190.11 437.98 188.97 438.32 188.39 438.50 C 188.26 437.89 188.00 436.68 187.87 436.07 C 190.99 384.97 194.24 333.83 199.26 282.86 C 197.61 282.70 195.95 282.53 194.30 282.35 C 194.59 276.80 196.36 271.48 196.83 265.96 C 194.73 264.94 192.78 263.66 190.94 262.23 C 190.20 262.43 188.73 262.84 188.00 263.04 C 174.96 254.49 163.02 244.07 153.72 231.50 C 150.96 227.29 147.02 223.19 146.77 217.91 C 147.79 212.15 152.01 207.77 155.07 203.01 C 164.97 189.77 174.88 176.34 187.29 165.31 C 194.56 159.18 204.65 159.61 213.54 158.38 C 213.86 158.01 214.51 157.27 214.83 156.90 C 215.73 156.92 216.64 156.93 217.55 156.93 C 217.52 157.70 217.50 158.48 217.49 159.26 L 217.50 160.87 C 217.50 161.28 217.51 162.09 217.51 162.50 C 221.70 168.02 225.36 174.12 226.88 180.95 C 228.79 189.14 231.77 197.40 230.62 205.92 C 228.73 224.75 227.13 243.61 225.29 262.45 C 232.05 262.27 238.81 262.17 245.57 262.17 C 243.11 237.17 241.61 212.07 238.62 187.12 C 237.90 179.75 237.59 172.25 235.55 165.09 C 234.93 163.18 234.25 161.29 233.64 159.39 C 233.60 159.06 233.52 158.42 233.48 158.09 C 233.90 158.26 234.75 158.60 235.17 158.77 C 242.96 161.42 251.82 160.57 259.14 164.80 C 269.88 170.91 280.50 177.29 290.68 184.29 C 299.51 176.98 308.23 169.45 315.72 160.73 C 316.52 159.35 318.03 159.18 319.49 159.09 Z" fill="#012a4a" opacity="1.00" stroke="#012a4a" stroke-width="0.25" data-index="24" style="opacity: 1; visibility: visible; display: block;"></path>
<path d="M 342.18 154.35 C 344.54 152.94 347.00 151.73 349.57 150.75 C 345.27 154.07 340.85 157.27 336.78 160.88 C 338.74 158.83 340.40 156.54 342.18 154.35 Z" fill="#ffffff" opacity="1.00" stroke="#ffffff" stroke-width="0.25" data-index="25"></path>
<path d="M 217.49 159.26 C 222.44 161.98 227.76 164.03 233.42 164.61 C 233.52 162.87 233.60 161.13 233.64 159.39 C 234.25 161.29 234.93 163.18 235.55 165.09 C 234.89 165.49 233.57 166.30 232.92 166.70 C 227.58 165.49 221.77 164.61 217.50 160.87 L 217.49 159.26 Z" fill="#04192e" opacity="1.00" stroke="#04192e" stroke-width="0.25" data-index="26"></path>
<path d="M 187.65 167.70 C 194.16 161.49 203.77 161.70 212.11 160.51 C 211.02 164.72 209.72 168.89 209.31 173.23 C 213.15 173.95 217.04 174.47 220.94 174.74 C 219.26 176.81 217.42 178.79 216.19 181.18 C 216.62 183.53 218.37 185.40 219.55 187.43 C 222.72 191.91 225.03 196.98 228.67 201.12 C 227.07 224.67 224.43 248.16 222.36 271.67 C 221.98 275.32 221.60 278.96 221.25 282.61 C 214.13 282.02 207.01 281.39 199.89 280.85 C 198.73 280.77 197.57 280.70 196.42 280.64 C 197.78 276.10 197.34 270.90 199.78 266.78 C 201.60 268.73 203.24 271.55 206.35 270.43 C 208.70 271.03 210.44 269.71 211.06 267.47 C 211.88 267.75 213.53 268.32 214.35 268.60 C 217.17 265.13 214.21 261.22 212.48 258.04 C 214.50 256.94 216.49 255.80 218.47 254.65 C 218.77 253.87 219.37 252.33 219.66 251.56 C 214.60 248.86 208.57 251.37 203.10 250.93 C 203.33 244.59 204.60 238.20 203.09 231.91 C 200.53 219.58 198.20 207.21 195.38 194.94 C 198.10 192.08 200.94 189.33 203.26 186.12 C 201.88 186.17 200.45 186.38 199.59 187.58 C 190.16 197.18 180.91 206.97 171.90 216.97 C 171.23 217.86 170.24 218.69 170.12 219.88 C 170.76 221.17 171.72 222.26 172.66 223.34 C 180.80 232.13 188.77 241.11 197.70 249.12 C 194.83 253.07 192.14 257.18 188.86 260.81 C 185.23 259.08 182.15 256.43 178.98 254.00 C 170.05 247.01 161.74 239.10 155.12 229.85 C 152.69 226.43 149.86 223.05 148.88 218.88 C 149.18 214.27 152.28 210.56 154.78 206.91 C 164.84 193.15 175.08 179.31 187.65 167.70 Z" fill="#5e9ece" opacity="1.00" stroke="#5e9ece" stroke-width="0.25" data-index="27" style="opacity: 1;"></path>
<path d="M 217.51 162.50 C 217.51 162.09 217.50 161.28 217.50 160.87 C 221.77 164.61 227.58 165.49 232.92 166.70 C 233.57 166.30 234.89 165.49 235.55 165.09 C 237.59 172.25 237.90 179.75 238.62 187.12 C 241.61 212.07 243.11 237.17 245.57 262.17 C 238.81 262.17 232.05 262.27 225.29 262.45 C 227.13 243.61 228.73 224.75 230.62 205.92 C 231.77 197.40 228.79 189.14 226.88 180.95 C 225.36 174.12 221.70 168.02 217.51 162.50 Z" fill="#fefffd" opacity="1.00" stroke="#fefffd" stroke-width="0.25" data-index="28" style="opacity: 1;"></path>
<path d="M 239.73 162.19 C 246.05 162.98 252.62 163.60 258.32 166.65 C 263.95 169.59 269.14 173.26 274.67 176.37 C 279.92 179.69 285.47 182.63 290.13 186.79 C 291.31 186.08 292.52 185.38 293.60 184.52 C 302.30 177.28 310.59 169.56 318.17 161.15 C 321.74 163.89 325.09 166.89 328.52 169.80 C 320.66 181.62 313.10 193.95 302.41 203.47 C 298.67 206.94 293.17 205.70 288.63 205.06 C 278.38 202.63 268.33 199.37 258.48 195.65 C 258.32 189.15 258.18 182.64 257.72 176.16 C 257.49 174.67 257.77 172.62 255.82 172.10 C 255.63 175.40 255.68 178.70 255.89 182.00 C 256.92 198.65 256.73 215.33 256.95 231.99 C 257.98 246.28 259.27 260.55 260.50 274.82 C 256.49 274.77 252.48 274.77 248.47 274.81 C 246.97 253.87 245.18 232.95 243.33 212.04 C 243.06 208.46 242.44 204.82 243.25 201.27 C 244.83 194.26 245.95 187.15 246.57 179.99 C 244.40 178.56 242.31 177.02 240.31 175.37 C 242.57 174.55 244.76 173.50 246.81 172.23 C 244.73 168.69 242.16 165.49 239.73 162.19 Z" fill="#5e9ece" opacity="1.00" stroke="#5e9ece" stroke-width="0.25" data-index="29" style="opacity: 1;"></path>
<path d="M 229.57 169.49 C 230.33 168.19 231.83 166.19 233.54 167.24 C 236.00 167.94 236.03 170.81 235.66 172.87 C 234.65 179.13 236.72 185.35 236.47 191.62 C 236.32 192.39 236.04 193.92 235.90 194.69 C 234.23 204.02 235.42 213.55 235.16 222.97 C 234.84 232.38 235.46 241.84 234.34 251.21 C 230.23 233.07 232.46 214.40 232.11 196.01 C 232.04 189.66 232.51 183.32 232.67 176.98 C 233.19 173.93 228.65 172.48 229.57 169.49 Z" fill="#803243" opacity="1.00" stroke="#803243" stroke-width="0.25" data-index="30" style="opacity: 1;"></path>
<path d="M 236.47 191.62 L 236.55 192.85 C 236.75 199.11 237.40 205.36 237.15 211.63 C 236.69 222.54 237.51 233.49 236.44 244.38 C 236.21 239.26 236.02 234.14 236.26 229.03 C 236.75 217.58 235.70 206.14 235.90 194.69 C 236.04 193.92 236.32 192.39 236.47 191.62 Z" fill="#a6641b" opacity="1.00" stroke="#a6641b" stroke-width="0.25" data-index="31"></path>
<path d="M 236.55 192.85 L 237.08 191.58 C 238.29 198.66 239.06 205.82 239.72 212.97 C 239.08 212.64 237.79 211.97 237.15 211.63 C 237.40 205.36 236.75 199.11 236.55 192.85 Z" fill="#fbdb86" opacity="1.00" stroke="#fbdb86" stroke-width="0.25" data-index="32"></path>
<path d="M 235.16 222.97 C 235.42 213.55 234.23 204.02 235.90 194.69 C 235.70 206.14 236.75 217.58 236.26 229.03 C 236.02 234.14 236.21 239.26 236.44 244.38 C 236.29 248.38 236.17 252.38 235.85 256.38 C 234.75 254.88 234.06 253.08 234.34 251.21 C 235.46 241.84 234.84 232.38 235.16 222.97 Z" fill="#813a2d" opacity="1.00" stroke="#813a2d" stroke-width="0.25" data-index="33"></path>
<path d="M 172.24 219.90 C 178.98 211.90 186.30 204.41 193.42 196.74 C 196.56 208.72 198.78 220.93 201.09 233.10 C 202.43 238.91 201.12 244.81 200.77 250.64 C 199.46 246.78 195.78 244.69 193.08 241.91 C 185.73 234.96 179.29 227.14 172.24 219.90 Z" fill="#feffff" opacity="1.00" stroke="#feffff" stroke-width="0.25" data-index="34" style="opacity: 1; visibility: visible;"></path>
<path d="M 244.24 202.53 C 247.45 201.89 251.44 200.66 254.32 202.65 C 254.40 204.67 254.13 206.69 253.88 208.69 C 251.06 208.82 248.24 208.81 245.42 208.70 C 245.01 206.64 244.62 204.59 244.24 202.53 Z" fill="#032e50" opacity="1.00" stroke="#032e50" stroke-width="0.25" data-index="35" style="opacity: 1;"></path>
<path d="M 221.46 206.67 C 222.78 206.64 224.11 206.62 225.44 206.61 C 225.38 207.87 225.33 209.14 225.27 210.41 C 222.64 211.03 221.35 209.10 221.46 206.67 Z" fill="#00274f" opacity="1.00" stroke="#00274f" stroke-width="0.25" data-index="36"></path>
<path d="M 237.15 211.63 C 237.79 211.97 239.08 212.64 239.72 212.97 C 240.02 216.45 240.38 219.94 240.28 223.44 C 239.71 220.90 239.02 218.40 238.35 215.89 C 237.84 226.31 238.79 236.79 237.37 247.16 C 237.13 249.48 236.68 251.98 237.99 254.09 L 238.61 255.51 C 237.92 255.73 236.54 256.16 235.85 256.38 C 236.17 252.38 236.29 248.38 236.44 244.38 C 237.51 233.49 236.69 222.54 237.15 211.63 Z" fill="#f3c344" opacity="1.00" stroke="#f3c344" stroke-width="0.25" data-index="37"></path>
<path d="M 221.65 214.35 C 222.83 214.86 224.02 215.38 225.21 215.90 C 224.90 216.79 224.60 217.68 224.30 218.58 C 223.33 218.52 222.36 218.47 221.40 218.41 C 221.47 217.06 221.55 215.70 221.65 214.35 Z" fill="#002952" opacity="1.00" stroke="#002952" stroke-width="0.25" data-index="38"></path>
<path d="M 238.35 215.89 C 239.02 218.40 239.71 220.90 240.28 223.44 C 241.70 231.95 241.72 240.61 242.44 249.19 C 241.07 251.13 239.83 253.15 238.60 255.17 L 237.99 254.09 C 236.68 251.98 237.13 249.48 237.37 247.16 C 238.79 236.79 237.84 226.31 238.35 215.89 Z" fill="#fadb21" opacity="1.00" stroke="#fadb21" stroke-width="0.25" data-index="39" style="opacity: 1;"></path>
<path d="M 206.87 241.27 C 207.15 240.83 207.71 239.97 207.99 239.54 C 212.33 239.66 216.58 240.64 220.91 240.91 C 220.74 243.39 220.53 245.87 220.30 248.35 C 215.83 247.82 211.31 247.51 206.89 246.62 C 206.74 246.10 206.45 245.05 206.30 244.53 C 210.43 245.17 214.58 245.81 218.77 245.95 C 218.80 244.82 218.84 243.69 218.87 242.56 C 214.86 242.24 210.86 241.77 206.87 241.27 Z" fill="#00274f" opacity="1.00" stroke="#00274f" stroke-width="0.25" data-index="40"></path>
<path d="M 197.94 252.22 C 204.35 253.18 210.78 252.34 217.21 252.44 C 215.26 254.28 212.72 255.22 210.58 256.78 C 210.43 260.19 213.14 262.83 214.18 265.95 C 210.11 266.24 210.33 259.98 206.33 260.13 C 207.32 262.39 208.57 264.54 209.25 266.93 C 208.96 267.24 208.37 267.87 208.07 268.18 C 206.42 266.10 205.69 261.75 202.30 262.31 C 203.50 264.45 205.03 266.58 204.78 269.17 C 201.79 264.41 195.64 264.24 191.95 260.28 C 194.15 257.75 196.18 255.07 197.94 252.22 Z" fill="#fcccb6" opacity="1.00" stroke="#fcccb6" stroke-width="0.25" data-index="41" style="opacity: 1;"></path>
<path d="M 224.87 264.59 C 231.79 264.58 238.71 264.34 245.64 264.16 C 246.04 268.32 246.45 272.48 246.61 276.67 C 250.46 276.79 254.31 276.91 258.15 277.25 C 260.29 330.06 263.63 382.80 265.71 435.60 C 258.33 435.56 250.95 435.55 243.57 435.65 C 241.87 406.76 239.25 377.92 237.93 349.00 C 237.34 333.98 236.63 318.96 235.75 303.96 C 234.47 294.89 238.12 286.20 238.89 277.26 C 238.37 277.35 237.35 277.53 236.84 277.62 C 232.52 301.08 228.21 324.55 224.11 348.05 C 220.31 369.26 216.08 390.47 214.64 412.01 C 214.20 420.20 213.32 428.36 213.09 436.56 C 205.42 436.53 197.75 436.22 190.07 436.25 C 192.83 387.74 196.25 339.27 200.63 290.88 C 200.86 288.27 201.19 285.67 201.51 283.08 C 202.11 283.16 203.31 283.32 203.92 283.40 C 201.48 312.96 198.54 342.48 195.97 372.04 C 195.65 376.89 194.36 381.89 195.99 386.66 C 196.62 384.80 197.21 382.93 197.42 380.98 C 200.36 348.45 203.07 315.90 206.41 283.42 C 211.99 283.89 217.56 284.50 223.16 284.55 C 223.48 281.10 223.83 277.64 224.18 274.19 C 224.49 271.00 224.70 267.79 224.87 264.59 Z" fill="#5f9fcf" opacity="1.00" stroke="#5f9fcf" stroke-width="0.25" data-index="42" style="opacity: 1; visibility: visible;"></path>
<path d="M 221.25 282.61 C 221.60 278.96 221.98 275.32 222.36 271.67 C 222.81 272.30 223.72 273.56 224.18 274.19 C 223.83 277.64 223.48 281.10 223.16 284.55 C 217.56 284.50 211.99 283.89 206.41 283.42 C 203.07 315.90 200.36 348.45 197.42 380.98 C 197.21 382.93 196.62 384.80 195.99 386.66 C 194.36 381.89 195.65 376.89 195.97 372.04 C 198.54 342.48 201.48 312.96 203.92 283.40 C 203.31 283.32 202.11 283.16 201.51 283.08 C 201.10 282.52 200.29 281.41 199.89 280.85 C 207.01 281.39 214.13 282.02 221.25 282.61 Z" fill="#002a51" opacity="1.00" stroke="#002a51" stroke-width="0.25" data-index="43" style="opacity: 1;"></path>

<path d="M 190.68 437.80 C 195.67 436.14 200.98 436.78 206.10 437.34 C 206.24 441.67 206.54 446.00 206.67 450.34 C 206.63 452.03 206.58 453.71 206.54 455.41 C 214.38 455.21 222.24 455.56 230.08 455.31 L 230.64 454.98 C 231.02 454.73 231.77 454.25 232.14 454.00 C 232.46 454.39 233.10 455.15 233.42 455.53 C 237.57 455.48 241.73 455.52 245.89 455.49 C 246.75 455.47 247.61 455.45 248.48 455.43 C 252.47 455.30 256.46 455.33 260.46 455.36 C 260.60 449.41 259.94 443.49 259.70 437.56 C 260.67 438.86 261.29 440.40 261.28 442.06 C 261.61 447.03 261.38 452.02 261.28 456.99 C 269.86 456.56 278.57 457.56 287.05 455.75 C 299.38 455.14 311.76 455.71 324.10 455.45 C 325.72 455.16 327.07 455.89 328.02 457.20 C 325.38 457.76 322.67 457.72 319.98 457.72 C 266.33 457.59 212.66 457.98 159.01 457.53 C 159.47 456.59 159.66 455.15 161.06 455.52 C 170.53 455.47 180.01 455.48 189.48 455.49 C 189.82 449.59 190.70 443.73 190.68 437.80 Z" fill="#04192e" opacity="1.00" stroke="#04192e" stroke-width="0.25" data-index="45" style="opacity: 1; visibility: visible; display: none;"></path>
<path d="M 192.53 437.96 C 196.88 437.81 201.23 438.08 205.58 438.23 C 205.61 443.98 205.32 449.73 204.54 455.43 C 200.16 455.47 195.78 455.49 191.41 455.54 C 191.60 449.67 191.97 443.81 192.53 437.96 Z" fill="#a45245" opacity="1.00" stroke="#a45245" stroke-width="0.25" data-index="46" style="opacity: 1; visibility: visible; fill: rgb(1, 42, 74); display: none;"></path>
<path d="M 207.81 438.16 C 216.09 442.78 223.37 448.94 230.64 454.98 L 230.08 455.31 C 222.24 455.56 214.38 455.21 206.54 455.41 C 206.58 453.71 206.63 452.03 206.67 450.34 C 207.04 446.28 207.51 442.22 207.81 438.16 Z" fill="#5f9ed0" opacity="1.00" stroke="#5f9ed0" stroke-width="0.25" data-index="47" style="opacity: 1;"></path>
<path d="M 246.56 438.85 C 246.97 438.56 247.79 437.99 248.20 437.70 C 248.23 443.42 248.21 449.13 248.20 454.85 C 247.89 454.26 247.26 453.08 246.95 452.49 C 246.55 447.95 246.60 443.39 246.56 438.85 Z" fill="#362630" opacity="1.00" stroke="#362630" stroke-width="0.25" data-index="48" style="opacity: 1; display: none;"></path>
<path d="M 248.20 437.70 C 252.03 437.49 255.86 437.51 259.70 437.56 C 259.94 443.49 260.60 449.41 260.46 455.36 C 256.46 455.33 252.47 455.30 248.48 455.43 L 248.20 454.85 C 248.21 449.13 248.23 443.42 248.20 437.70 Z" fill="#ed5630" opacity="1.00" stroke="#ed5630" stroke-width="0.25" data-index="49" style="opacity: 1; visibility: visible; fill: rgb(1, 42, 74); display: none;"></path>
<path d="M 261.90 437.60 C 264.53 438.56 266.65 440.46 268.92 442.04 C 274.25 446.10 279.84 449.98 284.09 455.24 C 276.92 455.29 269.75 455.13 262.58 455.32 C 262.53 449.40 261.87 443.51 261.90 437.60 Z" fill="#5e9fce" opacity="1.00" stroke="#5e9fce" stroke-width="0.25" data-index="50"></path>
<path d="M 193.70 440.88 C 194.70 438.95 197.14 439.23 198.96 439.14 C 201.02 439.16 204.11 439.10 204.33 441.84 C 204.05 445.72 203.46 449.58 203.54 453.49 C 199.91 454.21 196.20 454.42 192.51 454.31 C 192.56 449.81 192.62 445.26 193.70 440.88 Z" fill="#ef552f" opacity="1.00" stroke="#ef552f" stroke-width="0.25" data-index="51" style="opacity: 1; visibility: visible; fill: rgb(1, 42, 74); display: none;"></path>
<path d="M192.53,437.96c4.35,-0.15 8.7,0.12 13.05,0.27c0.03,5.75 -0.26,11.5 -1.04,17.2c-4.38,0.04 -8.76,0.06 -13.13,0.11c0.19,-5.87 0.56,-11.73 1.12,-17.58z" id="path-46 1" fill="url(#grad-52)" fill-rule="nonzero" stroke="url(#grad-52)" stroke-width="0.25" stroke-linecap="butt" stroke-linejoin="miter" stroke-miterlimit="10" stroke-dasharray="" stroke-dashoffset="0" font-family="none" font-weight="none" font-size="none" text-anchor="none" style="mix-blend-mode: normal; opacity: 1;" data-index="52"></path><path d="M248.2,437.7c3.83,-0.21 7.66,-0.19 11.5,-0.14c0.24,5.93 0.9,11.85 0.76,17.8c-4,-0.03 -7.99,-0.06 -11.98,0.07l-0.28,-0.58c0.01,-5.72 0.03,-11.43 0,-17.15z" id="path-49 1" fill="url(#grad-53)" fill-rule="nonzero" stroke="url(#grad-53)" stroke-width="0.25" stroke-linecap="butt" stroke-linejoin="miter" stroke-miterlimit="10" stroke-dasharray="" stroke-dashoffset="0" font-family="none" font-weight="none" font-size="none" text-anchor="none" style="mix-blend-mode: normal; opacity: 1; display: none; visibility: visible;" data-index="53"></path><path d="M260.46,455.36c-4,-0.03 -7.99,-0.06 -11.98,0.07c-0.87,0.02 -1.73,0.04 -2.59,0.06c-0.08,-5.91 -0.06,-11.82 -0.19,-17.72c-1.37,-0.06 -2.73,-0.12 -4.1,-0.18c-1.49,-22.2 -3.12,-44.38 -4.67,-66.57c-1.29,-19.75 -3.1,-39.46 -3.97,-59.23c-2.8,13.7 -5.07,27.5 -7.59,41.25c-3.03,18.28 -6.95,36.46 -8.21,54.98c-0.7,9.94 -1.6,19.86 -1.96,29.82c-0.86,0.31 -1.73,0.61 -2.59,0.92c6.96,4.44 13.76,9.32 19.53,15.24c-0.37,0.25 -1.12,0.73 -1.5,0.98c-7.27,-6.04 -14.55,-12.2 -22.83,-16.82c-0.3,4.06 -0.77,8.12 -1.14,12.18c-0.13,-4.34 -0.43,-8.67 -0.57,-13c-5.12,-0.56 -10.43,-1.2 -15.42,0.46c-0.57,0.18 -1.71,0.52 -2.29,0.7c-0.13,-0.61 -0.39,-1.82 -0.52,-2.43c3.12,-51.1 6.37,-102.24 11.39,-153.21c-1.65,-0.16 -3.31,-0.33 -4.96,-0.51c0.29,-5.55 2.06,-10.87 2.53,-16.39c-2.1,-1.02 -4.05,-2.3 -5.89,-3.73c-0.74,0.2 -2.21,0.61 -2.94,0.81c-13.04,-8.55 -24.98,-18.97 -34.28,-31.54c-2.76,-4.21 -6.7,-8.31 -6.95,-13.59c1.02,-5.76 5.24,-10.14 8.3,-14.9c9.9,-13.24 19.81,-26.67 32.22,-37.7c7.27,-6.13 17.36,-5.7 26.25,-6.93c0.32,-0.37 0.97,-1.11 1.29,-1.48c0.9,0.02 1.81,0.03 2.72,0.03c-0.03,0.77 -0.05,1.55 -0.06,2.33l0.01,1.61c0,0.41 0.01,1.22 0.01,1.63c4.19,5.52 7.85,11.62 9.37,18.45c1.91,8.19 4.89,16.45 3.74,24.97c-1.89,18.83 -3.49,37.69 -5.33,56.53c6.76,-0.18 13.52,-0.28 20.28,-0.28c-2.46,-25 -3.96,-50.1 -6.95,-75.05c-0.72,-7.37 -1.03,-14.87 -3.07,-22.03c-0.62,-1.91 -1.3,-3.8 -1.91,-5.7c-0.04,-0.33 -0.12,-0.97 -0.16,-1.3c0.42,0.17 1.27,0.51 1.69,0.68c7.79,2.65 16.65,1.8 23.97,6.03c10.74,6.11 21.36,12.49 31.54,19.49c8.83,-7.31 17.55,-14.84 25.04,-23.56c0.8,-1.38 2.31,-1.55 3.77,-1.64c0.22,-3.12 0.68,-6.23 1.42,-9.28c-0.41,3.69 -0.85,7.52 0.28,11.13c2.51,1.95 4.82,4.52 8.04,5.24c0.4,0.08 1.18,0.26 1.57,0.35c-0.3,1.96 -0.16,4.09 -1.47,5.74c-7.59,11.73 -15.31,23.66 -25.85,33.01c-3.56,3.63 -9.07,2.63 -13.6,2.13c-10.7,-2.07 -20.92,-5.98 -31.24,-9.4c0.12,11.34 0.64,22.67 0.57,34.02c0.77,14.83 2.76,29.57 3.51,44.41c-0.59,0.23 -1.77,0.69 -2.36,0.92c2.67,53 4.95,106.03 7.88,159.01c-0.67,0.36 -2,1.08 -2.66,1.44c1.9,0.84 3.76,1.82 5.41,3.11c5.74,4.48 11.98,8.65 16.06,14.83c-8.48,1.81 -17.19,0.81 -25.77,1.24c0.1,-4.97 0.33,-9.96 0,-14.93c0.01,-1.66 -0.61,-3.2 -1.58,-4.5c0.24,5.93 0.9,11.85 0.76,17.8zM246.56,438.85c0.41,-0.29 1.23,-0.86 1.64,-1.15c-0.41,0.29 -1.23,0.86 -1.64,1.15z" id="path-53 1" fill="url(#grad-54)" fill-rule="nonzero" stroke="url(#grad-54)" stroke-width="0.25" stroke-linecap="butt" stroke-linejoin="miter" stroke-miterlimit="10" stroke-dasharray="" stroke-dashoffset="0" font-family="none" font-weight="none" font-size="none" text-anchor="none" style="mix-blend-mode: normal; opacity: 1; display: none;" data-index="54"></path><path d="M246.56,438.85c0.41,-0.29 1.23,-0.86 1.64,-1.15c3.83,-0.21 7.66,-0.19 11.5,-0.14c0.97,1.3 1.59,2.84 1.58,4.5c0.33,4.97 0.1,9.96 0,14.93c8.58,-0.43 17.29,0.57 25.77,-1.24c12.33,-0.61 24.71,-0.04 37.05,-0.3c1.62,-0.29 2.97,0.44 3.92,1.75c-2.64,0.56 -5.35,0.52 -8.04,0.52c-53.65,-0.13 -107.32,0.26 -160.97,-0.19c0.46,-0.94 0.65,-2.38 2.05,-2.01c9.47,-0.05 18.95,-0.04 28.42,-0.03c0.34,-5.9 1.22,-11.76 1.2,-17.69c4.99,-1.66 10.3,-1.02 15.42,-0.46c0.14,4.33 0.44,8.66 0.57,13c-0.04,1.69 -0.09,3.37 -0.13,5.07c7.84,-0.2 15.7,0.15 23.54,-0.1l0.56,-0.33c0.38,-0.25 1.13,-0.73 1.5,-0.98c0.32,0.39 0.96,1.15 1.28,1.53c4.15,-0.05 8.31,-0.01 12.47,-0.04c0.86,-0.02 1.72,-0.04 2.59,-0.06l-0.28,-0.58c-0.31,-0.59 -0.94,-1.77 -1.25,-2.36c-0.4,-4.54 -0.35,-9.1 -0.39,-13.64zM259.7,437.56c0.24,5.93 0.9,11.85 0.76,17.8c0.14,-5.95 -0.52,-11.87 -0.76,-17.8zM260.46,455.36c-4,-0.03 -7.99,-0.06 -11.98,0.07c3.99,-0.13 7.98,-0.1 11.98,-0.07z" id="path-48 1" fill="url(#grad-55)" fill-rule="nonzero" stroke="url(#grad-55)" stroke-width="0.25" stroke-linecap="butt" stroke-linejoin="miter" stroke-miterlimit="10" stroke-dasharray="" stroke-dashoffset="0" font-family="none" font-weight="none" font-size="none" text-anchor="none" style="mix-blend-mode: normal; opacity: 1;" data-index="55"></path></svg>