<svg xmlns="http://www.w3.org/2000/svg" height="512pt" version="1.1" viewBox="0 0 512 512" width="512pt">

<path d="M 268.98 62.83 C 279.59 61.37 290.34 62.20 301.02 62.01 C 307.83 63.21 314.72 63.87 321.62 64.35 C 325.26 64.48 328.40 66.61 332.00 66.90 C 336.93 67.49 341.73 68.81 346.39 70.46 C 354.41 72.69 362.49 75.06 369.81 79.11 C 376.72 81.93 383.80 84.71 389.83 89.22 C 393.11 91.72 397.27 92.76 400.41 95.50 C 403.34 97.96 406.35 100.31 409.57 102.40 C 413.32 104.91 415.45 109.18 419.31 111.54 C 422.63 113.52 424.68 116.93 427.72 119.27 C 431.59 122.18 433.06 127.10 436.98 129.98 C 439.71 133.89 442.41 137.81 445.69 141.30 C 449.05 147.54 452.77 153.58 456.12 159.83 C 459.01 164.97 459.94 170.96 462.99 176.02 C 463.71 177.21 464.00 178.59 464.34 179.93 C 465.85 186.71 469.35 192.99 469.98 199.98 C 470.31 203.10 469.39 206.69 471.82 209.19 C 472.14 214.02 471.65 218.90 472.46 223.70 C 473.50 230.09 472.96 236.59 472.05 242.95 C 472.31 250.16 471.92 257.45 469.50 264.32 C 468.82 270.69 467.69 277.11 465.10 283.03 C 463.72 286.88 461.54 290.58 461.86 294.82 C 459.82 297.44 459.41 300.87 457.57 303.61 C 455.79 305.93 456.36 309.24 454.43 311.45 C 451.74 314.35 451.67 318.69 448.74 321.45 C 445.78 328.80 440.98 335.16 436.72 341.78 C 433.57 345.65 431.38 350.18 427.71 353.62 C 424.02 359.48 419.19 364.43 414.35 369.33 C 409.70 376.26 401.99 380.39 397.22 387.17 C 393.90 388.67 391.32 391.30 389.51 394.42 C 388.52 394.57 387.51 394.70 386.53 394.86 C 387.20 387.72 387.47 380.55 388.47 373.46 C 390.15 373.76 391.84 374.07 393.53 374.38 C 393.07 360.26 390.79 346.26 389.56 332.19 C 384.11 331.47 378.61 331.88 373.14 331.79 C 371.19 322.97 373.36 314.18 373.91 305.36 C 363.50 304.44 353.07 303.20 342.61 303.31 C 342.37 307.11 341.91 310.90 341.44 314.68 C 340.42 314.69 339.42 314.70 338.41 314.72 C 337.55 302.94 337.55 291.12 336.69 279.34 C 326.37 279.71 316.08 280.61 305.75 280.89 C 306.72 292.14 306.91 303.45 307.65 314.72 C 305.05 314.69 302.45 314.66 299.86 314.65 C 298.25 309.94 296.55 305.26 295.08 300.51 C 286.63 302.83 278.30 305.56 269.95 308.20 C 268.60 308.68 267.12 308.99 266.00 309.93 C 266.53 314.87 269.21 319.27 270.08 324.14 C 270.19 326.70 269.73 329.24 269.55 331.79 C 262.22 332.03 254.84 331.24 247.56 332.27 C 245.71 345.13 244.50 358.09 242.94 370.99 C 242.39 370.73 241.31 370.21 240.76 369.95 C 233.80 349.57 226.12 329.44 218.39 309.33 L 219.36 309.20 C 218.28 291.76 216.82 274.35 215.45 256.93 C 231.21 256.14 245.44 247.09 255.19 235.06 C 258.92 247.36 262.26 259.78 265.85 272.13 C 267.89 271.66 269.91 271.14 271.88 270.42 C 284.12 265.96 296.55 262.03 308.83 257.68 C 309.75 257.36 310.60 256.89 311.37 256.29 C 309.94 249.79 307.66 243.50 305.99 237.06 L 305.54 237.60 C 304.32 228.73 300.81 220.31 298.54 211.66 C 297.93 209.32 297.05 207.08 296.16 204.84 C 292.57 204.59 289.01 204.03 285.45 203.56 C 286.81 202.79 288.41 202.29 289.32 200.91 C 288.12 200.84 285.74 200.70 284.55 200.63 C 284.49 201.36 284.37 202.81 284.31 203.53 C 281.77 203.12 279.22 202.73 276.67 202.40 C 278.17 201.80 279.69 201.23 281.19 200.61 C 284.75 197.96 280.91 194.27 279.25 191.73 C 277.70 189.80 276.44 187.01 273.93 186.29 C 270.45 186.68 267.17 187.98 263.79 188.78 C 262.51 190.78 261.47 193.18 259.10 194.11 C 246.84 200.26 234.64 206.77 221.49 210.88 C 219.03 211.80 216.43 211.06 213.96 210.63 C 206.05 209.03 198.29 206.75 190.69 204.03 C 190.68 203.34 190.68 202.66 190.68 201.98 C 191.39 201.75 192.82 201.27 193.53 201.03 C 198.13 198.79 201.28 194.10 201.90 189.05 C 202.87 184.30 201.34 179.57 200.03 175.04 C 202.89 173.31 205.80 170.71 205.69 167.06 C 206.29 160.35 199.25 155.02 192.89 156.31 C 187.18 156.57 184.80 163.09 179.42 164.11 C 175.20 165.33 170.87 167.55 168.70 171.56 C 165.56 178.12 166.81 186.22 170.73 192.18 C 172.60 195.29 175.61 197.41 178.07 200.01 C 179.30 204.53 174.01 206.68 172.07 210.04 C 161.76 224.58 163.27 243.33 163.79 260.21 L 163.88 261.28 C 163.76 261.00 163.52 260.44 163.39 260.15 C 163.15 259.72 162.66 258.85 162.42 258.42 C 160.28 258.23 158.13 258.17 155.99 258.08 C 155.01 251.93 152.06 245.44 145.69 243.35 C 140.46 240.54 134.66 242.24 129.26 243.02 C 125.85 238.69 122.55 234.11 117.80 231.13 C 112.35 227.48 104.91 227.14 99.08 230.07 C 95.85 232.04 93.26 234.92 90.95 237.89 C 87.90 241.97 87.22 247.14 85.67 251.86 C 81.11 253.40 75.15 251.55 71.47 255.48 C 67.81 258.57 67.41 264.23 69.74 268.22 C 71.02 270.34 73.88 269.96 76.00 270.18 C 105.52 270.29 135.04 270.37 164.55 270.29 C 165.33 280.50 166.14 290.71 167.31 300.88 C 167.83 304.60 167.56 308.51 168.87 312.08 C 171.20 312.29 173.54 312.19 175.88 312.15 C 175.87 352.96 169.92 393.58 161.21 433.38 C 161.79 433.71 162.94 434.38 163.51 434.72 C 162.47 438.94 161.64 443.21 160.94 447.50 C 156.99 446.97 152.99 447.26 149.02 447.22 C 126.38 447.22 103.74 447.27 81.10 447.17 C 81.65 445.48 83.64 446.02 84.95 445.87 C 101.21 445.75 117.49 446.21 133.75 445.69 C 130.79 442.68 126.03 443.70 123.14 440.75 C 118.94 436.47 113.29 434.05 108.44 430.63 C 104.52 426.51 99.08 423.97 96.05 418.99 C 94.75 416.54 91.78 415.97 90.11 413.88 C 86.19 409.46 81.99 405.21 78.85 400.19 C 75.15 397.60 74.14 393.01 71.16 389.83 C 65.75 383.14 62.73 375.01 58.42 367.66 C 56.23 364.39 55.93 360.33 54.05 356.92 C 49.23 347.74 47.20 337.52 44.32 327.64 C 42.31 321.38 41.85 314.80 40.55 308.38 C 39.26 302.34 40.31 296.13 39.70 290.03 C 38.34 280.73 38.70 271.24 39.86 261.94 C 39.59 256.18 41.26 250.64 41.98 244.98 C 42.99 237.09 46.10 229.70 48.02 222.02 C 50.65 215.02 53.57 208.13 56.32 201.17 C 58.89 195.66 62.91 190.92 65.12 185.22 C 67.06 180.45 70.59 176.69 73.57 172.60 C 75.70 168.79 79.07 165.85 80.89 161.85 C 83.67 159.07 86.59 156.35 88.31 152.72 C 111.12 152.61 133.92 152.71 156.72 152.63 C 156.72 152.08 156.72 150.97 156.72 150.41 C 153.19 150.47 149.66 150.44 146.14 150.36 C 148.26 146.18 148.91 140.40 145.25 136.87 C 143.66 134.93 140.92 135.51 138.74 135.06 C 138.38 134.84 137.64 134.42 137.28 134.21 C 168.52 134.47 199.78 134.20 231.02 134.28 C 233.09 134.32 235.10 133.86 237.09 133.35 C 239.45 129.04 241.63 123.95 239.61 119.06 C 237.43 112.53 229.52 109.92 223.31 111.84 C 224.45 105.72 223.86 99.07 220.15 93.88 C 215.67 86.48 206.39 82.15 197.89 84.28 C 192.51 85.33 187.81 88.55 184.28 92.68 C 180.25 90.11 175.34 89.08 170.64 90.09 C 173.05 88.52 176.00 88.04 178.38 86.37 C 181.80 83.93 186.33 84.23 189.69 81.68 C 207.37 74.17 225.90 68.42 244.99 65.90 C 252.84 63.99 260.89 62.86 268.98 62.83 Z" fill="#edfbfe" opacity="1.00" stroke="#edfbfe" stroke-width="0.25" data-index="1" style="opacity: 1; visibility: hidden;"></path>

<path d="M 184.85 95.57 C 189.34 88.76 197.89 84.53 206.02 86.26 C 217.49 88.38 225.15 102.50 220.33 113.15 C 220.39 113.76 220.52 114.98 220.58 115.60 C 222.89 114.39 225.33 113.18 228.02 113.31 C 232.58 113.19 236.97 116.57 238.01 121.02 C 239.03 124.65 237.60 128.52 235.38 131.40 C 234.16 132.39 232.48 132.11 231.04 132.21 C 200.23 132.18 169.42 132.28 138.61 132.19 C 138.34 127.74 138.38 122.89 141.22 119.18 C 144.90 114.11 151.50 112.41 157.47 112.49 C 158.05 106.82 158.56 100.31 163.25 96.37 C 168.95 90.58 178.64 90.52 184.85 95.57 Z" fill="#7de5ff" opacity="1.00" stroke="#7de5ff" stroke-width="0.25" data-index="3" style="visibility: hidden; opacity: 1;"></path>

<path d="M 108.39 104.48 C 117.18 100.82 127.26 105.49 132.11 113.22 C 134.03 115.92 135.62 118.91 136.16 122.21 C 132.39 121.83 131.95 117.47 130.25 114.84 C 126.33 106.89 115.35 102.79 107.55 107.52 C 103.96 109.47 102.34 113.43 100.53 116.87 C 97.69 116.08 94.93 114.76 91.96 114.60 C 87.29 117.31 88.79 123.32 87.77 127.72 C 84.07 128.96 79.78 127.24 76.27 129.26 C 74.05 130.48 73.87 133.30 73.01 135.43 C 69.47 134.66 64.96 134.41 62.79 137.95 C 59.84 141.48 60.98 146.25 61.96 150.29 C 87.30 150.56 112.66 150.32 138.01 150.36 C 142.00 150.75 146.17 147.10 145.48 142.96 C 145.32 139.09 141.60 136.96 138.74 135.06 C 140.92 135.51 143.66 134.93 145.25 136.87 C 148.91 140.40 148.26 146.18 146.14 150.36 C 149.66 150.44 153.19 150.47 156.72 150.41 C 156.72 150.97 156.72 152.08 156.72 152.63 C 133.92 152.71 111.12 152.61 88.31 152.72 C 78.69 152.66 69.07 152.78 59.45 152.69 C 59.40 147.36 57.17 141.48 60.72 136.75 C 62.77 132.75 67.66 132.52 71.60 132.60 C 72.98 126.16 80.35 125.43 85.76 125.74 C 86.12 121.36 86.48 116.20 90.21 113.25 C 92.95 111.25 96.14 113.18 98.96 113.86 C 101.83 110.54 103.93 106.07 108.39 104.48 Z" fill="#bec9ce" opacity="1.00" stroke="#bec9ce" stroke-width="0.25" data-index="5" style="visibility: hidden; opacity: 1;"></path>

<path d="M 122.00 134.33 C 127.02 134.57 131.40 131.12 136.49 131.82 C 136.56 132.34 136.69 133.38 136.75 133.90 C 132.24 134.21 127.90 135.64 124.16 138.20 C 120.65 135.73 116.37 136.95 112.42 136.74 C 114.56 133.47 118.71 134.54 122.00 134.33 Z" fill="#c4ced1" opacity="1.00" stroke="#c4ced1" stroke-width="0.25" data-index="7"></path>

<path d="M 359.52 151.03 C 363.75 144.73 370.40 139.85 377.98 138.71 C 383.75 137.93 389.57 141.63 391.57 147.04 C 393.50 151.38 393.27 156.20 393.24 160.84 C 397.20 160.84 401.93 159.78 405.10 162.85 C 408.40 165.44 408.75 169.86 409.61 173.65 C 376.56 173.77 343.51 173.17 310.46 173.15 C 311.61 163.32 321.41 155.60 331.27 157.50 C 333.17 154.16 334.72 150.23 338.25 148.28 C 342.66 145.64 348.47 144.26 353.26 146.73 C 355.60 147.82 356.87 150.53 359.52 151.03 Z" fill="#7de5fe" opacity="1.00" stroke="#7de5fe" stroke-width="0.25" data-index="9" style="visibility: hidden; opacity: 1;"></path>
<path d="M 179.42 164.11 C 184.80 163.09 187.18 156.57 192.89 156.31 C 199.25 155.02 206.29 160.35 205.69 167.06 C 205.80 170.71 202.89 173.31 200.03 175.04 C 201.34 179.57 202.87 184.30 201.90 189.05 C 201.28 194.10 198.13 198.79 193.53 201.03 C 193.12 200.65 192.31 199.89 191.90 199.51 C 196.38 197.55 199.52 192.98 199.79 188.10 C 200.36 183.91 199.42 179.75 197.93 175.85 C 194.60 176.55 191.14 177.20 188.19 178.98 C 186.23 180.24 186.01 182.80 185.14 184.77 C 183.26 183.21 181.14 181.88 178.58 182.42 C 178.56 184.50 177.69 186.96 179.24 188.71 C 180.72 190.81 183.51 190.76 185.76 191.32 C 185.66 191.85 185.46 192.91 185.36 193.44 C 184.16 193.46 182.95 193.48 181.75 193.50 C 181.22 195.92 180.62 198.32 180.06 200.73 C 180.26 200.87 180.65 201.14 180.85 201.27 C 181.69 202.30 182.52 203.35 183.35 204.39 C 185.35 204.73 187.36 205.07 189.31 205.64 C 185.31 204.89 181.42 206.13 177.97 208.08 C 175.77 211.90 173.17 216.36 174.86 220.88 C 176.82 225.48 181.42 228.18 185.66 230.40 C 193.09 234.07 201.29 235.95 209.47 237.02 C 209.78 236.45 210.40 235.30 210.71 234.72 C 211.28 234.68 212.41 234.58 212.98 234.54 C 219.15 234.55 225.52 234.18 231.16 231.44 C 242.47 226.00 251.50 216.96 259.86 207.80 L 260.57 208.52 C 261.19 209.19 261.84 209.83 262.54 210.42 L 262.90 210.87 C 261.01 213.23 258.97 215.54 258.00 218.46 C 256.55 218.99 255.04 219.31 253.55 219.68 C 253.82 219.41 254.34 218.88 254.60 218.61 C 254.66 217.98 254.76 216.73 254.82 216.10 C 247.01 223.27 239.06 230.98 228.82 234.50 C 223.52 236.33 217.86 236.68 212.30 236.49 C 211.94 237.60 211.58 238.71 211.23 239.82 C 202.75 238.14 194.07 236.74 186.22 232.95 C 181.18 230.64 175.95 227.66 173.34 222.54 C 171.56 218.90 172.61 214.81 173.71 211.14 C 164.16 225.10 165.29 242.82 165.97 258.91 C 165.42 259.24 164.33 259.89 163.79 260.21 C 163.27 243.33 161.76 224.58 172.07 210.04 C 174.01 206.68 179.30 204.53 178.07 200.01 C 175.61 197.41 172.60 195.29 170.73 192.18 C 166.81 186.22 165.56 178.12 168.70 171.56 C 170.87 167.55 175.20 165.33 179.42 164.11 Z" fill="#072844" opacity="1.00" stroke="#072844" stroke-width="0.25" data-index="10"></path>
<path d="M 192.35 158.46 C 196.03 157.80 200.88 158.74 202.46 162.59 C 204.05 165.12 203.97 168.62 201.94 170.90 C 196.60 175.04 188.08 174.23 184.35 180.54 C 181.89 180.42 178.43 179.32 177.16 182.23 C 175.20 185.24 176.52 188.87 178.68 191.35 C 180.40 193.00 178.95 195.26 178.41 197.10 C 171.89 192.85 168.22 184.69 169.18 176.98 C 169.23 173.13 172.09 170.07 175.10 168.04 C 177.47 166.36 180.47 166.20 183.07 165.05 C 186.22 162.93 188.44 159.33 192.35 158.46 Z" fill="#614542" opacity="1.00" stroke="#614542" stroke-width="0.25" data-index="11"></path>
<path d="M 188.19 178.98 C 191.14 177.20 194.60 176.55 197.93 175.85 C 199.42 179.75 200.36 183.91 199.79 188.10 C 199.52 192.98 196.38 197.55 191.90 199.51 C 189.55 199.75 188.42 201.39 188.43 203.66 C 185.97 202.66 183.41 201.96 180.85 201.27 C 180.65 201.14 180.26 200.87 180.06 200.73 C 180.62 198.32 181.22 195.92 181.75 193.50 C 182.95 193.48 184.16 193.46 185.36 193.44 C 185.46 192.91 185.66 191.85 185.76 191.32 C 183.51 190.76 180.72 190.81 179.24 188.71 C 177.69 186.96 178.56 184.50 178.58 182.42 C 181.14 181.88 183.26 183.21 185.14 184.77 C 186.01 182.80 186.23 180.24 188.19 178.98 Z" fill="#fcc9b4" opacity="1.00" stroke="#fcc9b4" stroke-width="0.25" data-index="12"></path>
<path d="M 263.79 188.78 C 267.17 187.98 270.45 186.68 273.93 186.29 C 276.44 187.01 277.70 189.80 279.25 191.73 C 279.08 192.32 278.74 193.49 278.57 194.07 C 277.49 192.75 276.41 191.43 275.35 190.09 C 274.58 190.72 273.77 191.30 273.00 191.94 C 275.03 192.85 276.96 193.98 278.71 195.38 C 278.60 195.74 278.40 196.48 278.30 196.85 C 277.85 196.94 276.94 197.13 276.49 197.23 L 275.43 195.90 C 275.32 195.70 275.12 195.29 275.02 195.09 C 273.22 194.47 271.46 193.74 269.89 192.65 C 271.11 190.99 272.51 189.49 273.99 188.06 C 270.96 189.02 267.90 189.90 264.83 190.71 C 264.08 192.15 263.36 193.64 262.25 194.85 C 248.07 201.69 234.26 209.64 218.95 213.76 C 217.13 220.73 214.97 227.61 212.98 234.54 C 212.41 234.58 211.28 234.68 210.71 234.72 C 212.73 227.59 215.00 220.52 216.79 213.33 C 207.41 211.63 198.20 209.09 189.31 205.64 C 187.36 205.07 185.35 204.73 183.35 204.39 C 182.52 203.35 181.69 202.30 180.85 201.27 C 183.41 201.96 185.97 202.66 188.43 203.66 C 188.42 201.39 189.55 199.75 191.90 199.51 C 192.31 199.89 193.12 200.65 193.53 201.03 C 192.82 201.27 191.39 201.75 190.68 201.98 C 190.68 202.66 190.68 203.34 190.69 204.03 C 198.29 206.75 206.05 209.03 213.96 210.63 C 216.43 211.06 219.03 211.80 221.49 210.88 C 234.64 206.77 246.84 200.26 259.10 194.11 C 261.47 193.18 262.51 190.78 263.79 188.78 Z" fill="#0f1d2b" opacity="1.00" stroke="#0f1d2b" stroke-width="0.25" data-index="13"></path>
<path d="M 264.83 190.71 C 267.90 189.90 270.96 189.02 273.99 188.06 C 272.51 189.49 271.11 190.99 269.89 192.65 C 267.20 189.94 264.65 193.61 262.25 194.85 C 263.36 193.64 264.08 192.15 264.83 190.71 Z" fill="#ffffff" opacity="1.00" stroke="#ffffff" stroke-width="0.25" data-index="14"></path>
<path d="M 273.00 191.94 C 273.77 191.30 274.58 190.72 275.35 190.09 C 276.41 191.43 277.49 192.75 278.57 194.07 C 278.60 194.40 278.67 195.05 278.71 195.38 C 276.96 193.98 275.03 192.85 273.00 191.94 Z" fill="#ffffff" opacity="1.00" stroke="#ffffff" stroke-width="0.25" data-index="15"></path>
<path d="M 262.25 194.85 C 264.65 193.61 267.20 189.94 269.89 192.65 C 271.46 193.74 273.22 194.47 275.02 195.09 C 275.12 195.29 275.32 195.70 275.43 195.90 C 274.65 197.51 275.02 199.16 275.60 200.75 C 273.92 201.28 272.22 201.77 270.55 202.32 C 269.55 202.13 268.53 201.99 267.52 201.90 C 267.24 202.35 266.69 203.26 266.41 203.71 C 265.48 204.59 264.10 204.50 262.96 204.84 C 261.89 205.80 260.85 206.77 259.86 207.80 C 251.50 216.96 242.47 226.00 231.16 231.44 C 225.52 234.18 219.15 234.55 212.98 234.54 C 214.97 227.61 217.13 220.73 218.95 213.76 C 234.26 209.64 248.07 201.69 262.25 194.85 Z" fill="#fdc9b2" opacity="1.00" stroke="#fdc9b2" stroke-width="0.25" data-index="16"></path>
<path d="M 279.25 191.73 C 280.91 194.27 284.75 197.96 281.19 200.61 C 279.42 199.79 277.66 198.85 276.49 197.23 C 276.94 197.13 277.85 196.94 278.30 196.85 C 278.40 196.48 278.60 195.74 278.71 195.38 C 278.67 195.05 278.60 194.40 278.57 194.07 C 278.74 193.49 279.08 192.32 279.25 191.73 Z" fill="#1b2936" opacity="1.00" stroke="#1b2936" stroke-width="0.25" data-index="17"></path>
<path d="M 275.60 200.75 C 275.02 199.16 274.65 197.51 275.43 195.90 L 276.49 197.23 C 277.66 198.85 279.42 199.79 281.19 200.61 C 279.69 201.23 278.17 201.80 276.67 202.40 C 279.22 202.73 281.77 203.12 284.31 203.53 C 284.37 202.81 284.49 201.36 284.55 200.63 C 285.74 200.70 288.12 200.84 289.32 200.91 C 288.41 202.29 286.81 202.79 285.45 203.56 C 289.01 204.03 292.57 204.59 296.16 204.84 C 297.05 207.08 297.93 209.32 298.54 211.66 C 298.22 212.32 297.57 213.64 297.24 214.29 C 296.59 212.06 296.00 209.81 295.41 207.56 L 295.34 207.31 C 293.69 207.19 292.04 207.18 290.43 206.85 C 285.67 205.41 280.68 204.99 275.75 204.61 C 278.32 206.40 281.23 207.59 284.04 208.92 C 283.71 209.61 283.04 210.99 282.71 211.67 C 279.92 212.53 277.17 213.45 274.42 214.41 C 273.68 214.00 272.19 213.17 271.44 212.75 C 272.07 212.43 273.33 211.79 273.97 211.47 C 273.48 209.24 272.10 207.43 270.48 205.90 L 272.43 205.62 C 271.78 204.53 271.15 203.43 270.55 202.32 C 272.22 201.77 273.92 201.28 275.60 200.75 Z" fill="#0a2946" opacity="1.00" stroke="#0a2946" stroke-width="0.25" data-index="18"></path>
<path d="M 267.52 201.90 C 268.53 201.99 269.55 202.13 270.55 202.32 C 271.15 203.43 271.78 204.53 272.43 205.62 L 270.48 205.90 C 272.10 207.43 273.48 209.24 273.97 211.47 C 273.33 211.79 272.07 212.43 271.44 212.75 C 270.00 213.27 268.52 213.64 267.04 214.01 C 267.75 211.97 268.65 209.99 269.94 208.26 C 269.74 207.08 269.48 205.92 269.24 204.77 L 270.80 203.75 C 269.80 203.36 268.79 202.97 267.77 202.66 L 266.41 203.71 C 266.69 203.26 267.24 202.35 267.52 201.90 Z" fill="#f7d5c3" opacity="1.00" stroke="#f7d5c3" stroke-width="0.25" data-index="19"></path>

<path d="M 267.77 202.66 C 268.79 202.97 269.80 203.36 270.80 203.75 L 269.24 204.77 C 269.48 205.92 269.74 207.08 269.94 208.26 C 268.65 209.99 267.75 211.97 267.04 214.01 C 268.52 213.64 270.00 213.27 271.44 212.75 C 272.19 213.17 273.68 214.00 274.42 214.41 C 271.48 215.42 268.61 216.59 265.72 217.73 C 261.82 219.01 257.95 220.41 253.99 221.52 C 254.38 224.15 254.93 226.75 255.77 229.28 C 259.91 242.64 263.06 256.31 267.57 269.55 C 280.94 265.12 294.17 260.27 307.61 256.04 C 307.94 255.93 308.58 255.71 308.91 255.61 C 308.07 249.84 305.55 244.50 304.59 238.77 L 305.54 237.60 L 305.99 237.06 C 307.66 243.50 309.94 249.79 311.37 256.29 C 310.60 256.89 309.75 257.36 308.83 257.68 C 296.55 262.03 284.12 265.96 271.88 270.42 C 269.91 271.14 267.89 271.66 265.85 272.13 C 262.26 259.78 258.92 247.36 255.19 235.06 C 255.23 232.47 254.74 229.92 253.40 227.68 C 252.55 225.43 251.80 223.15 251.09 220.85 C 251.71 220.56 252.94 219.97 253.55 219.68 C 255.04 219.31 256.55 218.99 258.00 218.46 C 260.04 217.43 262.33 216.68 264.01 215.08 C 265.87 212.44 266.45 209.20 266.92 206.08 C 265.61 207.67 264.19 209.17 262.54 210.42 C 263.29 209.36 263.71 208.20 263.79 206.92 C 262.58 207.15 261.51 207.68 260.57 208.52 L 259.86 207.80 C 260.85 206.77 261.89 205.80 262.96 204.84 C 264.10 204.50 265.48 204.59 266.41 203.71 L 267.77 202.66 Z" fill="#0f1d2b" opacity="1.00" stroke="#0f1d2b" stroke-width="0.25" data-index="21"></path>
<path d="M 275.75 204.61 C 280.68 204.99 285.67 205.41 290.43 206.85 C 288.30 207.55 286.19 208.29 284.04 208.92 C 281.23 207.59 278.32 206.40 275.75 204.61 Z" fill="#f7d5c3" opacity="1.00" stroke="#f7d5c3" stroke-width="0.25" data-index="22"></path>

<path d="M 177.97 208.08 C 181.42 206.13 185.31 204.89 189.31 205.64 C 198.20 209.09 207.41 211.63 216.79 213.33 C 215.00 220.52 212.73 227.59 210.71 234.72 C 210.40 235.30 209.78 236.45 209.47 237.02 C 201.29 235.95 193.09 234.07 185.66 230.40 C 181.42 228.18 176.82 225.48 174.86 220.88 C 173.17 216.36 175.77 211.90 177.97 208.08 Z" fill="#f25a30" opacity="1.00" stroke="#f25a30" stroke-width="0.25" data-index="24"></path>
<path d="M 262.54 210.42 C 264.19 209.17 265.61 207.67 266.92 206.08 C 266.45 209.20 265.87 212.44 264.01 215.08 C 262.33 216.68 260.04 217.43 258.00 218.46 C 258.97 215.54 261.01 213.23 262.90 210.87 L 262.54 210.42 Z" fill="#9c8372" opacity="1.00" stroke="#9c8372" stroke-width="0.25" data-index="25"></path>
<path d="M 290.43 206.85 C 292.04 207.18 293.69 207.19 295.34 207.31 L 295.41 207.56 C 291.16 208.88 286.98 210.42 282.71 211.67 C 283.04 210.99 283.71 209.61 284.04 208.92 C 286.19 208.29 288.30 207.55 290.43 206.85 Z" fill="#0f1d2b" opacity="1.00" stroke="#0f1d2b" stroke-width="0.25" data-index="26"></path>
<path d="M 260.57 208.52 C 261.51 207.68 262.58 207.15 263.79 206.92 C 263.71 208.20 263.29 209.36 262.54 210.42 C 261.84 209.83 261.19 209.19 260.57 208.52 Z" fill="#e7fbff" opacity="1.00" stroke="#e7fbff" stroke-width="0.25" data-index="27"></path>
<path d="M 178.36 208.37 C 179.78 207.78 180.21 208.21 179.66 209.65 C 178.23 210.22 177.79 209.80 178.36 208.37 Z" fill="#b9614f" opacity="1.00" stroke="#b9614f" stroke-width="0.25" data-index="28"></path>
<path d="M 282.71 211.67 C 286.98 210.42 291.16 208.88 295.41 207.56 C 296.00 209.81 296.59 212.06 297.24 214.29 C 299.38 222.37 302.03 230.29 304.27 238.34 L 305.54 237.60 L 304.59 238.77 C 305.55 244.50 308.07 249.84 308.91 255.61 C 308.58 255.71 307.94 255.93 307.61 256.04 C 307.68 251.35 305.64 247.03 304.62 242.54 C 303.12 236.27 300.78 230.26 299.09 224.05 C 297.78 219.12 295.29 214.47 295.22 209.27 C 285.09 210.98 275.94 216.45 265.72 217.73 C 268.61 216.59 271.48 215.42 274.42 214.41 C 277.17 213.45 279.92 212.53 282.71 211.67 Z" fill="#9c8372" opacity="1.00" stroke="#9c8372" stroke-width="0.25" data-index="29"></path>
<path d="M 265.72 217.73 C 275.94 216.45 285.09 210.98 295.22 209.27 C 295.29 214.47 297.78 219.12 299.09 224.05 C 300.78 230.26 303.12 236.27 304.62 242.54 C 305.64 247.03 307.68 251.35 307.61 256.04 C 294.17 260.27 280.94 265.12 267.57 269.55 C 263.06 256.31 259.91 242.64 255.77 229.28 C 254.93 226.75 254.38 224.15 253.99 221.52 C 257.95 220.41 261.82 219.01 265.72 217.73 Z" fill="#f35a2e" opacity="1.00" stroke="#f35a2e" stroke-width="0.25" data-index="30"></path>
<path d="M 165.97 258.91 C 165.29 242.82 164.16 225.10 173.71 211.14 C 172.61 214.81 171.56 218.90 173.34 222.54 C 175.95 227.66 181.18 230.64 186.22 232.95 C 194.07 236.74 202.75 238.14 211.23 239.82 C 211.58 238.71 211.94 237.60 212.30 236.49 C 217.86 236.68 223.52 236.33 228.82 234.50 C 239.06 230.98 247.01 223.27 254.82 216.10 C 254.76 216.73 254.66 217.98 254.60 218.61 C 254.34 218.88 253.82 219.41 253.55 219.68 C 252.94 219.97 251.71 220.56 251.09 220.85 C 251.80 223.15 252.55 225.43 253.40 227.68 C 253.80 229.20 254.19 230.72 254.58 232.25 C 246.93 242.44 236.12 250.54 223.60 253.52 C 212.13 256.34 199.96 255.08 188.81 251.47 C 185.06 250.28 181.68 248.17 177.94 246.96 C 178.45 248.06 178.77 249.44 180.03 249.96 C 190.22 255.38 201.93 257.34 213.39 257.33 C 214.67 274.24 216.23 291.14 216.91 308.09 C 201.43 308.57 185.98 309.94 170.48 309.90 C 168.35 292.97 166.97 275.95 165.97 258.91 Z" fill="#7de5fe" opacity="1.00" stroke="#7de5fe" stroke-width="0.25" data-index="31"></path>
<path d="M 298.54 211.66 C 300.81 220.31 304.32 228.73 305.54 237.60 L 304.27 238.34 C 302.03 230.29 299.38 222.37 297.24 214.29 C 297.57 213.64 298.22 212.32 298.54 211.66 Z" fill="#0f1d2b" opacity="1.00" stroke="#0f1d2b" stroke-width="0.25" data-index="32"></path>

<path d="M 253.40 227.68 C 254.74 229.92 255.23 232.47 255.19 235.06 C 245.44 247.09 231.21 256.14 215.45 256.93 C 216.82 274.35 218.28 291.76 219.36 309.20 L 218.39 309.33 C 215.87 309.23 213.37 309.04 210.86 308.94 C 211.27 309.28 212.10 309.96 212.51 310.30 C 212.71 327.47 210.44 344.61 207.68 361.54 C 203.88 364.33 204.68 369.46 205.82 373.40 C 201.76 394.08 197.65 414.78 192.29 435.19 C 196.82 438.01 200.10 442.38 201.85 447.40 C 195.01 449.04 187.97 447.90 181.03 448.26 C 174.33 448.07 167.54 449.00 160.94 447.50 C 161.64 443.21 162.47 438.94 163.51 434.72 C 162.94 434.38 161.79 433.71 161.21 433.38 C 169.92 393.58 175.87 352.96 175.88 312.15 C 173.54 312.19 171.20 312.29 168.87 312.08 C 167.56 308.51 167.83 304.60 167.31 300.88 C 166.14 290.71 165.33 280.50 164.55 270.29 C 164.52 269.76 164.47 268.70 164.44 268.17 C 164.32 265.86 164.16 263.56 163.88 261.28 L 163.79 260.21 C 164.33 259.89 165.42 259.24 165.97 258.91 C 166.97 275.95 168.35 292.97 170.48 309.90 C 185.98 309.94 201.43 308.57 216.91 308.09 C 216.23 291.14 214.67 274.24 213.39 257.33 C 201.93 257.34 190.22 255.38 180.03 249.96 C 178.77 249.44 178.45 248.06 177.94 246.96 C 181.68 248.17 185.06 250.28 188.81 251.47 C 199.96 255.08 212.13 256.34 223.60 253.52 C 236.12 250.54 246.93 242.44 254.58 232.25 C 254.19 230.72 253.80 229.20 253.40 227.68 Z" fill="#042c4f" opacity="1.00" stroke="#042c4f" stroke-width="0.25" data-index="34" style="opacity: 1;"></path>

<path d="M 305.75 280.89 C 316.08 280.61 326.37 279.71 336.69 279.34 C 337.55 291.12 337.55 302.94 338.41 314.72 C 339.42 314.70 340.42 314.69 341.44 314.68 C 341.91 310.90 342.37 307.11 342.61 303.31 C 353.07 303.20 363.50 304.44 373.91 305.36 C 373.36 314.18 371.19 322.97 373.14 331.79 C 378.61 331.88 384.11 331.47 389.56 332.19 C 390.79 346.26 393.07 360.26 393.53 374.38 C 391.84 374.07 390.15 373.76 388.47 373.46 C 387.47 380.55 387.20 387.72 386.53 394.86 C 386.34 399.33 385.81 403.77 385.34 408.23 C 385.19 404.29 385.09 400.34 384.46 396.45 C 384.43 393.24 384.65 390.03 384.93 386.84 C 385.09 389.54 385.31 392.24 385.45 394.95 C 385.94 389.74 386.52 384.52 386.12 379.29 C 386.06 377.10 386.00 374.91 385.91 372.73 C 386.99 372.21 388.06 371.66 389.15 371.15 C 389.72 371.15 390.86 371.16 391.44 371.16 C 390.14 358.78 388.87 346.41 387.61 334.03 C 341.79 333.93 295.96 333.98 250.14 333.86 C 251.21 346.24 253.97 358.41 255.61 370.73 L 254.53 370.68 C 254.01 369.72 253.53 368.75 253.07 367.78 C 251.50 359.19 250.31 350.54 248.72 341.97 C 247.07 351.98 245.95 362.10 245.15 372.22 C 247.13 372.01 249.11 371.80 251.09 371.56 C 251.64 373.28 252.21 375.00 252.79 376.72 C 252.92 377.13 253.18 377.95 253.30 378.37 C 254.13 385.82 255.04 393.28 256.27 400.68 C 256.40 403.16 256.62 405.63 256.94 408.10 C 258.54 421.14 260.11 434.19 261.53 447.25 C 261.17 446.89 260.44 446.17 260.07 445.81 C 258.61 439.35 258.84 432.64 256.85 426.28 C 256.34 423.48 255.81 420.68 254.86 418.00 C 242.90 381.81 230.37 345.80 216.42 310.33 C 215.11 310.32 213.81 310.34 212.51 310.30 C 212.10 309.96 211.27 309.28 210.86 308.94 C 213.37 309.04 215.87 309.23 218.39 309.33 C 226.12 329.44 233.80 349.57 240.76 369.95 C 242.89 377.03 245.80 383.83 248.01 390.89 C 250.71 398.15 252.78 405.63 255.67 412.83 C 253.36 400.05 252.39 387.05 250.55 374.20 C 247.87 374.25 245.19 374.32 242.52 374.38 C 242.62 373.54 242.83 371.84 242.94 370.99 C 244.50 358.09 245.71 345.13 247.56 332.27 C 254.84 331.24 262.22 332.03 269.55 331.79 C 269.73 329.24 270.19 326.70 270.08 324.14 C 269.21 319.27 266.53 314.87 266.00 309.93 C 267.12 308.99 268.60 308.68 269.95 308.20 C 278.30 305.56 286.63 302.83 295.08 300.51 C 296.55 305.26 298.25 309.94 299.86 314.65 C 302.45 314.66 305.05 314.69 307.65 314.72 C 306.91 303.45 306.72 292.14 305.75 280.89 Z" fill="#0c253c" opacity="1.00" stroke="#0c253c" stroke-width="0.25" data-index="36" style="opacity: 1;"></path>
<path d="M 310.21 282.59 C 316.42 282.70 322.60 282.07 328.78 281.58 C 328.69 283.90 328.31 286.21 327.67 288.44 C 322.49 289.05 317.29 289.69 312.06 289.51 C 311.37 287.72 310.63 285.94 309.77 284.23 C 309.47 284.55 308.86 285.20 308.55 285.52 L 308.35 285.68 C 307.80 284.14 308.64 282.84 310.21 282.59 Z" fill="#fbffff" opacity="1.00" stroke="#fbffff" stroke-width="0.25" data-index="37"></path>
<path d="M 330.92 282.92 C 330.87 280.83 333.48 281.83 334.75 281.62 C 335.68 298.32 335.99 315.06 336.59 331.77 C 327.93 331.80 319.26 331.80 310.59 331.76 C 309.94 316.44 309.02 301.13 308.17 285.82 L 308.35 285.68 L 308.55 285.52 L 308.76 285.37 C 309.58 287.36 309.44 290.64 311.91 291.51 C 317.43 291.68 323.01 291.26 328.45 290.37 C 330.52 288.47 330.27 285.42 330.92 282.92 Z" fill="#8de5cd" opacity="1.00" stroke="#8de5cd" stroke-width="0.25" data-index="38"></path>
<path d="M 274.40 308.87 C 280.35 307.26 286.17 305.20 292.12 303.58 C 292.29 306.09 292.47 308.59 292.51 311.11 C 287.75 312.67 282.97 314.46 277.96 314.94 C 275.77 313.74 275.38 310.95 274.40 308.87 Z" fill="#fbfffe" opacity="1.00" stroke="#fbfffe" stroke-width="0.25" data-index="39"></path>
<path d="M 294.46 312.19 C 294.53 309.81 294.57 307.44 294.44 305.08 C 296.76 313.61 300.55 321.78 302.48 330.36 C 302.19 330.37 301.63 330.38 301.35 330.39 C 299.10 324.95 297.60 319.26 296.04 313.60 C 289.98 315.19 284.09 318.32 277.73 318.26 C 273.39 318.12 273.64 312.37 269.86 311.41 C 270.98 315.40 273.29 319.21 272.35 323.52 C 270.83 319.32 269.49 315.06 268.24 310.78 C 269.62 310.76 271.17 309.75 272.49 310.40 C 274.17 312.92 275.00 317.46 278.95 316.92 C 284.30 316.19 289.63 314.62 294.46 312.19 Z" fill="#fbfffe" opacity="1.00" stroke="#fbfffe" stroke-width="0.25" data-index="40" style="opacity: 1;"></path>
<path d="M 344.60 305.37 C 344.75 305.39 345.06 305.43 345.21 305.45 C 345.59 308.37 345.02 312.18 347.55 314.24 C 352.11 315.08 356.82 315.52 361.46 315.19 C 365.58 314.72 365.50 309.70 366.54 306.66 C 368.24 306.73 369.94 306.80 371.65 306.87 C 370.98 315.21 369.78 323.50 368.70 331.80 C 359.56 331.80 350.41 331.79 341.27 331.81 C 342.49 323.01 343.66 314.20 344.60 305.37 Z" fill="#7ee4fe" opacity="1.00" stroke="#7ee4fe" stroke-width="0.25" data-index="41" style="opacity: 1;"></path>
<path d="M 347.26 305.35 C 353.03 305.44 358.75 306.29 364.51 306.55 C 363.87 308.86 363.24 311.20 362.12 313.34 C 357.57 313.33 352.95 313.41 348.48 312.45 C 347.08 310.38 347.63 307.70 347.26 305.35 Z" fill="#fcffff" opacity="1.00" stroke="#fcffff" stroke-width="0.25" data-index="42" style="opacity: 1;"></path>
<path d="M 212.51 310.30 C 213.81 310.34 215.11 310.32 216.42 310.33 C 230.37 345.80 242.90 381.81 254.86 418.00 C 255.81 420.68 256.34 423.48 256.85 426.28 C 249.57 429.38 242.39 432.72 235.04 435.66 C 234.76 434.98 234.20 433.63 233.93 432.95 C 225.20 412.22 216.15 391.61 206.93 371.09 C 205.86 367.97 207.41 364.68 207.68 361.54 C 210.44 344.61 212.71 327.47 212.51 310.30 Z" fill="#fdc9b3" opacity="1.00" stroke="#fdc9b3" stroke-width="0.25" data-index="43" style="opacity: 1; visibility: visible; fill: rgb(4, 44, 79);"></path>
<path d="M 269.86 311.41 C 273.64 312.37 273.39 318.12 277.73 318.26 C 284.09 318.32 289.98 315.19 296.04 313.60 C 297.60 319.26 299.10 324.95 301.35 330.39 C 301.63 330.38 302.19 330.37 302.48 330.36 C 302.88 330.56 303.68 330.97 304.08 331.17 C 302.76 331.64 301.40 331.85 300.00 331.81 C 291.63 331.78 283.26 331.79 274.89 331.81 C 274.14 329.02 272.68 326.39 272.35 323.52 C 273.29 319.21 270.98 315.40 269.86 311.41 Z" fill="#fbf7c2" opacity="1.00" stroke="#fbf7c2" stroke-width="0.25" data-index="44" style="opacity: 1;"></path>
<path d="M 300.50 316.79 C 302.92 316.73 305.35 316.81 307.77 317.01 C 308.01 322.05 308.48 327.09 308.35 332.14 C 307.76 332.02 306.57 331.78 305.98 331.66 C 303.71 326.89 302.43 321.71 300.50 316.79 Z" fill="#9c8372" opacity="1.00" stroke="#9c8372" stroke-width="0.25" data-index="45"></path>
<path d="M 338.47 317.19 C 339.09 317.12 340.34 316.98 340.97 316.91 C 340.23 321.25 340.71 326.08 338.74 330.07 C 338.61 325.78 338.82 321.48 338.47 317.19 Z" fill="#97959c" opacity="1.00" stroke="#97959c" stroke-width="0.25" data-index="46"></path>
<path d="M 250.14 333.86 C 295.96 333.98 341.79 333.93 387.61 334.03 C 388.87 346.41 390.14 358.78 391.44 371.16 C 390.86 371.16 389.72 371.15 389.15 371.15 C 363.45 370.48 337.72 371.06 312.01 370.76 C 293.21 370.76 274.41 370.69 255.61 370.73 C 253.97 358.41 251.21 346.24 250.14 333.86 Z" fill="#cca78d" opacity="1.00" stroke="#cca78d" stroke-width="0.25" data-index="47" style="opacity: 1;"></path>
<path d="M 248.72 341.97 C 250.31 350.54 251.50 359.19 253.07 367.78 C 253.17 368.65 253.35 370.39 253.45 371.26 C 252.86 371.33 251.68 371.48 251.09 371.56 C 249.11 371.80 247.13 372.01 245.15 372.22 C 245.95 362.10 247.07 351.98 248.72 341.97 Z" fill="#b1927e" opacity="1.00" stroke="#b1927e" stroke-width="0.25" data-index="48"></path>
<path d="M 205.82 373.40 C 204.68 369.46 203.88 364.33 207.68 361.54 C 207.41 364.68 205.86 367.97 206.93 371.09 C 216.15 391.61 225.20 412.22 233.93 432.95 C 234.09 433.58 234.41 434.85 234.57 435.48 C 235.16 435.78 236.32 436.39 236.91 436.69 C 236.44 436.83 235.51 437.12 235.04 437.27 L 233.76 437.65 C 224.62 416.16 215.10 394.82 205.82 373.40 Z" fill="#0f1d2b" opacity="1.00" stroke="#0f1d2b" stroke-width="0.25" data-index="49" style="opacity: 1;"></path>
<path d="M 253.07 367.78 C 253.53 368.75 254.01 369.72 254.53 370.68 L 255.61 370.73 C 274.41 370.69 293.21 370.76 312.01 370.76 C 337.72 371.06 363.45 370.48 389.15 371.15 C 388.06 371.66 386.99 372.21 385.91 372.73 C 384.62 372.94 383.33 373.08 382.03 373.14 C 358.49 373.30 334.93 372.76 311.40 373.25 C 298.26 372.82 285.10 373.17 271.95 373.02 C 265.51 372.85 258.98 373.57 252.64 372.15 C 252.67 373.67 252.72 375.19 252.79 376.72 C 252.21 375.00 251.64 373.28 251.09 371.56 C 251.68 371.48 252.86 371.33 253.45 371.26 C 253.35 370.39 253.17 368.65 253.07 367.78 Z" fill="#2d2e27" opacity="1.00" stroke="#2d2e27" stroke-width="0.25" data-index="50"></path>
<path d="M 240.76 369.95 C 241.31 370.21 242.39 370.73 242.94 370.99 C 242.83 371.84 242.62 373.54 242.52 374.38 C 245.19 374.32 247.87 374.25 250.55 374.20 C 252.39 387.05 253.36 400.05 255.67 412.83 C 252.78 405.63 250.71 398.15 248.01 390.89 C 245.80 383.83 242.89 377.03 240.76 369.95 Z" fill="#e7fbff" opacity="1.00" stroke="#e7fbff" stroke-width="0.25" data-index="51" style="opacity: 1;"></path>
<path d="M 252.64 372.15 C 258.98 373.57 265.51 372.85 271.95 373.02 C 285.10 373.17 298.26 372.82 311.40 373.25 L 312.71 373.66 C 293.11 374.26 273.48 373.85 253.88 373.86 C 253.68 375.35 253.47 376.86 253.30 378.37 C 253.18 377.95 252.92 377.13 252.79 376.72 C 252.72 375.19 252.67 373.67 252.64 372.15 Z" fill="#a58f65" opacity="1.00" stroke="#a58f65" stroke-width="0.25" data-index="52"></path>
<path d="M 311.40 373.25 C 334.93 372.76 358.49 373.30 382.03 373.14 C 383.33 373.08 384.62 372.94 385.91 372.73 C 386.00 374.91 386.06 377.10 386.12 379.29 L 385.45 380.13 C 385.40 378.05 385.28 375.98 385.18 373.92 C 361.03 373.51 336.86 374.20 312.71 373.66 L 311.40 373.25 Z" fill="#9a8458" opacity="1.00" stroke="#9a8458" stroke-width="0.25" data-index="53"></path>

<path d="M 253.88 373.86 C 273.48 373.85 293.11 374.26 312.71 373.66 C 336.86 374.20 361.03 373.51 385.18 373.92 C 385.28 375.98 385.40 378.05 385.45 380.13 C 385.23 382.36 385.05 384.60 384.93 386.84 C 384.65 390.03 384.43 393.24 384.46 396.45 C 384.27 397.48 383.88 399.54 383.69 400.58 C 382.00 392.16 383.90 383.62 384.14 375.16 C 370.44 374.59 356.72 375.19 343.01 374.99 C 313.62 375.00 284.22 374.82 254.83 374.94 C 254.08 383.61 258.36 392.09 256.27 400.68 C 255.04 393.28 254.13 385.82 253.30 378.37 C 253.47 376.86 253.68 375.35 253.88 373.86 Z" fill="#e5a44b" opacity="1.00" stroke="#e5a44b" stroke-width="0.25" data-index="55"></path>
<path d="M 254.83 374.94 C 284.22 374.82 313.62 375.00 343.01 374.99 C 356.72 375.19 370.44 374.59 384.14 375.16 C 383.90 383.62 382.00 392.16 383.69 400.58 C 383.69 404.16 383.42 407.73 383.13 411.30 L 382.91 409.78 C 382.75 407.53 382.65 405.27 382.56 403.02 C 380.60 411.37 381.95 419.99 380.60 428.40 C 379.63 434.13 379.47 439.94 378.93 445.72 C 340.30 445.59 301.68 445.63 263.05 445.68 C 261.90 434.43 260.18 423.24 258.98 411.98 C 258.75 408.62 258.44 405.24 257.52 401.99 C 257.27 404.01 257.04 406.05 256.94 408.10 C 256.62 405.63 256.40 403.16 256.27 400.68 C 258.36 392.09 254.08 383.61 254.83 374.94 Z" fill="#fea128" opacity="1.00" stroke="#fea128" stroke-width="0.25" data-index="56" style="opacity: 1;"></path>
<path d="M 385.45 380.13 L 386.12 379.29 C 386.52 384.52 385.94 389.74 385.45 394.95 C 385.31 392.24 385.09 389.54 384.93 386.84 C 385.05 384.60 385.23 382.36 385.45 380.13 Z" fill="#372f19" opacity="1.00" stroke="#372f19" stroke-width="0.25" data-index="57"></path>
<path d="M 384.46 396.45 C 385.09 400.34 385.19 404.29 385.34 408.23 C 384.75 418.79 383.70 429.34 382.88 439.89 C 382.64 441.52 382.33 443.13 381.92 444.73 C 381.54 445.17 380.80 446.03 380.42 446.46 C 380.87 439.03 381.55 431.61 382.16 424.19 C 382.61 419.90 383.13 415.61 383.13 411.30 C 383.42 407.73 383.69 404.16 383.69 400.58 C 383.88 399.54 384.27 397.48 384.46 396.45 Z" fill="#0f1d2b" opacity="1.00" stroke="#0f1d2b" stroke-width="0.25" data-index="58"></path>
<path d="M 257.52 401.99 C 258.44 405.24 258.75 408.62 258.98 411.98 C 260.18 423.24 261.90 434.43 263.05 445.68 C 301.68 445.63 340.30 445.59 378.93 445.72 C 379.47 439.94 379.63 434.13 380.60 428.40 C 381.95 419.99 380.60 411.37 382.56 403.02 C 382.65 405.27 382.75 407.53 382.91 409.78 C 382.31 414.56 382.24 419.37 382.16 424.19 C 381.55 431.61 380.87 439.03 380.42 446.46 C 380.37 446.63 380.27 446.98 380.22 447.15 C 340.66 447.07 301.09 446.97 261.53 447.25 C 260.11 434.19 258.54 421.14 256.94 408.10 C 257.04 406.05 257.27 404.01 257.52 401.99 Z" fill="#d19c4f" opacity="1.00" stroke="#d19c4f" stroke-width="0.25" data-index="59"></path>
<path d="M 382.16 424.19 C 382.24 419.37 382.31 414.56 382.91 409.78 L 383.13 411.30 C 383.13 415.61 382.61 419.90 382.16 424.19 Z" fill="#8e754b" opacity="1.00" stroke="#8e754b" stroke-width="0.25" data-index="60"></path>
<path d="M 235.04 435.66 C 242.39 432.72 249.57 429.38 256.85 426.28 C 258.84 432.64 258.61 439.35 260.07 445.81 C 260.44 446.17 261.17 446.89 261.53 447.25 L 262.34 448.01 C 254.52 448.47 246.54 448.84 238.80 447.49 C 237.63 444.05 236.23 440.70 235.04 437.27 C 235.51 437.12 236.44 436.83 236.91 436.69 C 236.32 436.39 235.16 435.78 234.57 435.48 C 234.41 434.85 234.09 433.58 233.93 432.95 C 234.20 433.63 234.76 434.98 235.04 435.66 Z" fill="#032b4e" opacity="1.00" stroke="#032b4e" stroke-width="0.25" data-index="61" style="opacity: 1;"></path>
<path d="M 381.92 444.73 C 382.33 443.13 382.64 441.52 382.88 439.89 C 382.69 442.34 382.56 444.79 382.43 447.24 C 396.28 447.08 410.13 447.25 423.97 447.17 C 426.66 447.15 429.39 446.97 432.02 447.67 L 431.00 449.41 C 413.86 449.30 396.72 449.57 379.59 449.28 L 379.96 447.98 L 380.22 447.15 C 380.27 446.98 380.37 446.63 380.42 446.46 C 380.80 446.03 381.54 445.17 381.92 444.73 Z" fill="#0c253c" opacity="1.00" stroke="#0c253c" stroke-width="0.25" data-index="62"></path>
<path d="M 81.10 447.17 C 103.74 447.27 126.38 447.22 149.02 447.22 C 152.99 447.26 156.99 446.97 160.94 447.50 C 167.54 449.00 174.33 448.07 181.03 448.26 C 187.97 447.90 195.01 449.04 201.85 447.40 C 214.15 447.15 226.51 446.97 238.80 447.49 C 246.54 448.84 254.52 448.47 262.34 448.01 L 262.18 449.27 C 201.84 449.58 141.49 449.20 81.15 449.46 C 81.13 448.88 81.11 447.74 81.10 447.17 Z" fill="#0f1d2b" opacity="1.00" stroke="#0f1d2b" stroke-width="0.25" data-index="63" style="opacity: 1;"></path>
<path d="M 261.53 447.25 C 301.09 446.97 340.66 447.07 380.22 447.15 L 379.96 447.98 C 356.97 447.55 333.96 447.92 310.96 447.68 C 294.75 448.00 278.54 447.27 262.34 448.01 L 261.53 447.25 Z" fill="#4f3e1a" opacity="1.00" stroke="#4f3e1a" stroke-width="0.25" data-index="64"></path>
<path d="M 262.34 448.01 C 278.54 447.27 294.75 448.00 310.96 447.68 C 333.96 447.92 356.97 447.55 379.96 447.98 L 379.59 449.28 C 369.75 448.89 359.89 449.13 350.04 449.01 C 339.71 449.90 329.37 448.81 319.04 449.34 C 304.70 448.39 290.35 449.85 276.01 449.38 C 271.40 449.24 266.79 448.97 262.18 449.27 L 262.34 448.01 Z" fill="#141d28" opacity="1.00" stroke="#141d28" stroke-width="0.25" data-index="65" style="opacity: 1;"></path>
<path d="M 81.15 449.46 C 141.49 449.20 201.84 449.58 262.18 449.27 C 266.79 448.97 271.40 449.24 276.01 449.38 C 290.35 449.85 304.70 448.39 319.04 449.34 C 329.37 448.81 339.71 449.90 350.04 449.01 C 359.89 449.13 369.75 448.89 379.59 449.28 C 396.72 449.57 413.86 449.30 431.00 449.41 C 411.34 449.95 391.66 449.12 372.01 449.93 C 363.02 449.43 354.01 450.18 345.02 449.69 C 337.00 449.35 328.99 450.18 320.98 449.65 C 304.34 450.17 287.70 449.31 271.05 449.72 C 207.75 449.36 144.44 449.87 81.15 449.46 Z" fill="#7ee4fe" opacity="1.00" stroke="#7ee4fe" stroke-width="0.25" data-index="66" style="opacity: 1;"></path>
</svg>