<?xml version="1.0" encoding="utf-8"?>
<svg xmlns="http://www.w3.org/2000/svg" height="512pt" version="1.1" viewBox="0 0 512 512" width="512pt">
<path d="M 0.00 0.00 L 512.00 0.00 L 512.00 512.00 L 0.00 512.00 L 0.00 0.00 Z" fill="transparent" opacity="1.00" stroke="transparent" stroke-width="0.25"/>
<path d="M 262.37 112.48 C 272.75 107.93 283.39 102.54 295.04 102.89 C 301.71 103.27 307.34 108.16 309.22 114.48 C 317.22 113.65 324.77 118.49 328.69 125.25 C 332.80 131.67 333.18 139.69 332.11 147.04 C 330.34 158.41 326.74 169.42 322.43 180.06 C 323.37 181.17 324.31 182.28 325.24 183.41 C 324.64 183.53 323.44 183.77 322.84 183.89 C 321.94 183.22 321.03 182.56 320.14 181.90 C 319.47 182.61 318.82 183.32 318.16 184.04 C 321.84 195.63 318.18 208.89 309.14 217.01 C 308.39 217.06 306.87 217.17 306.11 217.22 C 313.94 209.49 319.70 197.83 316.29 186.78 C 313.66 185.00 310.79 183.54 307.84 182.40 C 305.36 182.98 303.11 184.26 300.69 185.01 C 303.73 180.95 307.93 177.64 309.69 172.73 C 311.03 168.85 311.23 164.32 309.38 160.58 C 307.02 156.40 299.88 156.41 297.99 161.01 C 295.41 167.15 297.35 174.13 294.86 180.33 C 292.97 179.68 290.55 179.50 289.57 177.47 C 285.95 170.84 284.63 163.27 282.73 156.03 C 270.80 159.73 258.43 162.68 245.84 161.71 C 247.30 167.42 248.87 173.15 251.57 178.42 C 252.50 180.67 254.39 182.97 253.42 185.54 C 252.20 190.06 250.84 194.57 250.41 199.25 C 253.69 198.80 256.84 197.74 259.78 196.22 C 259.25 199.15 258.73 202.96 262.04 204.51 C 268.49 204.35 271.81 198.37 276.02 194.50 C 275.26 201.28 268.97 205.34 262.93 207.03 C 264.88 209.11 266.81 211.20 268.89 213.14 C 267.43 213.16 265.97 213.24 264.52 213.31 C 262.00 209.25 258.73 205.66 256.80 201.25 C 253.86 201.40 250.90 201.30 248.06 200.48 C 247.67 194.74 250.23 189.41 251.37 183.91 C 247.86 176.54 244.98 168.87 243.16 160.90 C 237.36 159.92 232.70 155.62 230.67 150.19 C 227.00 140.43 228.31 129.60 230.79 119.72 C 232.30 114.79 233.46 109.12 238.01 106.01 C 239.35 109.28 239.96 113.63 243.71 115.08 C 249.98 117.04 256.54 114.88 262.37 112.48 Z" fill="#192d47" opacity="1.00" stroke="#192d47" stroke-width="0.25"/>
<path d="M 261.26 117.16 C 270.98 113.30 280.34 107.67 290.97 106.77 C 295.63 106.47 301.67 107.38 303.80 112.17 C 304.93 114.03 305.40 116.47 307.14 117.86 C 311.03 119.27 315.88 117.71 319.12 120.86 C 322.95 124.50 327.60 128.38 328.12 134.01 C 330.50 146.57 325.17 158.68 321.56 170.45 C 320.48 174.52 318.13 178.04 315.75 181.45 C 314.30 180.38 311.75 179.96 311.49 177.88 C 312.19 173.92 315.11 170.44 314.67 166.28 C 314.27 163.07 313.72 159.73 312.07 156.90 C 309.45 154.35 305.51 153.80 302.01 153.99 C 299.27 154.09 296.16 155.25 295.15 158.03 C 293.67 161.83 292.80 165.86 291.02 169.55 C 287.61 164.75 286.86 158.76 286.54 153.04 C 284.01 152.61 281.38 152.02 278.84 152.69 C 275.13 153.67 271.93 156.45 267.92 156.23 C 262.34 156.00 257.00 158.49 251.41 157.74 C 247.66 157.24 243.71 157.32 240.17 155.89 C 237.78 153.88 236.06 151.21 234.43 148.58 C 231.71 144.24 231.88 138.92 231.73 133.99 C 231.51 128.48 233.06 123.12 234.88 117.98 C 235.30 116.79 235.83 115.58 236.89 114.82 C 239.30 116.20 241.49 118.33 244.42 118.47 C 250.04 119.04 255.93 119.36 261.26 117.16 Z" fill="#303146" opacity="1.00" stroke="#303146" stroke-width="0.25"/>
<path d="M 245.84 161.71 C 258.43 162.68 270.80 159.73 282.73 156.03 C 284.63 163.27 285.95 170.84 289.57 177.47 C 290.55 179.50 292.97 179.68 294.86 180.33 C 297.35 174.13 295.41 167.15 297.99 161.01 C 299.88 156.41 307.02 156.40 309.38 160.58 C 311.23 164.32 311.03 168.85 309.69 172.73 C 307.93 177.64 303.73 180.95 300.69 185.01 C 303.11 184.26 305.36 182.98 307.84 182.40 C 310.79 183.54 313.66 185.00 316.29 186.78 C 319.70 197.83 313.94 209.49 306.11 217.22 C 303.74 218.55 301.23 220.16 298.38 219.78 C 295.75 217.07 294.51 213.40 293.04 210.00 C 296.91 204.90 303.12 200.04 302.58 193.01 C 299.02 197.96 296.43 203.69 291.66 207.67 C 285.86 213.52 276.73 217.00 268.89 213.14 C 266.81 211.20 264.88 209.11 262.93 207.03 C 268.97 205.34 275.26 201.28 276.02 194.50 C 271.81 198.37 268.49 204.35 262.04 204.51 C 258.73 202.96 259.25 199.15 259.78 196.22 C 256.84 197.74 253.69 198.80 250.41 199.25 C 250.84 194.57 252.20 190.06 253.42 185.54 C 254.39 182.97 252.50 180.67 251.57 178.42 C 248.87 173.15 247.30 167.42 245.84 161.71 Z" fill="#fdbfa4" opacity="1.00" stroke="#fdbfa4" stroke-width="0.25"/>
<path d="M 256.25 170.48 C 262.41 169.82 268.78 169.51 274.84 171.01 C 276.89 171.27 276.52 173.62 277.02 175.10 C 269.77 175.69 261.77 176.61 255.06 173.24 C 255.45 172.32 255.85 171.40 256.25 170.48 Z" fill="#082a47" opacity="1.00" stroke="#082a47" stroke-width="0.25"/>
<path d="M 264.38 182.13 C 266.88 180.17 271.48 182.58 270.57 185.89 C 270.82 189.02 265.62 190.92 264.01 188.01 C 262.70 186.39 262.63 183.43 264.38 182.13 Z" fill="#072747" opacity="1.00" stroke="#072747" stroke-width="0.25"/>
<path d="M 320.14 181.90 C 321.03 182.56 321.94 183.22 322.84 183.89 C 325.32 185.91 328.24 187.52 330.16 190.14 C 330.82 196.36 328.96 202.51 327.43 208.48 C 324.77 217.26 321.63 225.90 318.21 234.41 C 313.91 229.78 309.58 225.17 304.81 221.01 C 306.27 219.69 307.73 218.37 309.14 217.01 C 318.18 208.89 321.84 195.63 318.16 184.04 C 318.82 183.32 319.47 182.61 320.14 181.90 Z" fill="#69ddfc" opacity="1.00" stroke="#69ddfc" stroke-width="0.25"/>
<path d="M 325.24 183.41 C 339.70 192.28 356.06 198.06 369.83 208.19 C 374.46 211.90 378.09 216.69 381.32 221.63 C 386.76 230.34 391.04 239.92 392.80 250.09 C 394.94 261.61 394.82 273.39 394.06 285.05 C 393.02 298.87 390.99 312.79 385.94 325.77 C 384.15 330.07 382.21 334.51 378.75 337.75 C 375.12 341.20 370.36 343.03 365.79 344.89 C 345.23 352.88 323.25 356.40 301.39 358.49 C 296.67 359.23 291.81 357.53 287.23 359.24 C 261.14 367.10 234.90 374.43 208.80 382.23 C 207.58 382.58 206.41 382.43 205.29 381.78 C 169.05 365.83 132.77 349.97 96.31 334.52 C 96.33 334.01 96.36 333.00 96.38 332.50 C 102.30 330.77 108.37 329.64 114.37 328.23 C 141.40 322.24 168.44 316.26 195.50 310.39 C 196.64 306.47 197.72 302.42 200.01 298.99 C 201.88 296.64 204.81 295.56 207.36 294.13 C 205.14 284.71 202.80 275.32 200.72 265.88 C 199.53 261.85 208.27 259.75 208.79 264.19 C 210.73 273.10 212.87 281.96 214.89 290.85 C 222.16 287.19 229.24 283.16 236.45 279.38 C 237.40 278.76 238.71 278.47 239.26 277.39 C 249.61 256.83 255.91 234.59 264.52 213.31 C 265.97 213.24 267.43 213.16 268.89 213.14 C 276.73 217.00 285.86 213.52 291.66 207.67 C 296.43 203.69 299.02 197.96 302.58 193.01 C 303.12 200.04 296.91 204.90 293.04 210.00 C 294.51 213.40 295.75 217.07 298.38 219.78 C 301.23 220.16 303.74 218.55 306.11 217.22 C 306.87 217.17 308.39 217.06 309.14 217.01 C 307.73 218.37 306.27 219.69 304.81 221.01 C 309.58 225.17 313.91 229.78 318.21 234.41 C 321.63 225.90 324.77 217.26 327.43 208.48 C 328.96 202.51 330.82 196.36 330.16 190.14 C 328.24 187.52 325.32 185.91 322.84 183.89 C 323.44 183.77 324.64 183.53 325.24 183.41 Z" fill="#042b4a" opacity="1.00" stroke="#042b4a" stroke-width="0.25"/>
<path d="M 325.07 223.12 C 328.71 212.54 332.98 201.83 332.66 190.45 C 344.15 196.00 355.62 201.68 366.35 208.63 C 376.29 216.16 382.74 227.38 387.17 238.85 C 391.07 249.09 391.90 260.14 392.21 270.99 C 391.88 286.28 390.61 301.67 386.45 316.45 C 384.63 322.76 382.42 329.14 378.44 334.45 C 376.12 337.65 372.46 339.37 368.95 340.93 C 351.80 348.33 333.34 352.06 314.92 354.57 C 307.63 355.11 300.35 356.80 293.02 356.20 C 291.03 352.36 290.79 347.93 289.94 343.77 C 288.78 336.11 287.16 328.48 287.06 320.71 C 300.36 317.64 313.47 313.72 326.83 310.87 C 334.46 309.29 342.10 307.11 349.97 307.38 C 351.55 307.02 354.42 308.31 354.90 306.04 C 352.49 305.05 349.76 305.17 347.40 304.11 C 349.20 286.88 350.64 269.61 352.61 252.40 C 353.31 245.03 355.80 238.03 357.76 230.95 C 357.14 231.02 355.89 231.17 355.27 231.24 C 352.28 239.64 350.25 248.36 349.56 257.26 C 348.09 273.19 346.46 289.10 344.65 304.99 C 332.74 306.71 321.13 309.96 309.37 312.37 C 309.24 302.25 308.41 292.14 308.39 282.01 C 308.19 270.33 307.20 258.66 307.18 246.97 C 307.39 240.57 308.71 234.26 308.77 227.85 C 311.66 230.46 313.94 233.63 316.52 236.53 C 317.15 237.51 318.29 237.82 319.40 237.54 C 321.92 233.01 323.25 227.95 325.07 223.12 Z" fill="#69deff" opacity="1.00" stroke="#69deff" stroke-width="0.25"/>
<path d="M 285.30 215.43 C 287.03 213.84 289.12 212.73 291.07 211.45 C 292.35 214.07 293.66 216.68 294.94 219.30 C 290.09 220.90 286.57 224.67 283.01 228.12 C 283.55 223.87 283.83 219.48 285.30 215.43 Z" fill="#6cdbfb" opacity="1.00" stroke="#6cdbfb" stroke-width="0.25"/>
<path d="M 242.93 275.62 C 252.30 255.82 258.55 234.76 266.61 214.43 C 271.45 216.98 277.03 218.18 282.35 216.40 C 281.33 221.51 280.08 226.67 280.35 231.92 C 280.78 232.11 281.66 232.48 282.10 232.67 C 285.47 229.77 288.16 226.13 291.78 223.50 C 289.50 254.93 286.28 286.30 283.39 317.68 C 277.77 315.61 272.12 313.67 266.45 311.74 C 265.93 282.85 266.20 253.90 268.79 225.11 C 268.22 225.16 267.07 225.28 266.50 225.33 C 263.76 252.33 263.31 279.53 263.80 306.65 C 253.68 310.68 243.79 315.25 233.99 320.00 C 233.87 318.02 233.67 316.04 233.80 314.06 C 234.71 312.19 236.22 310.71 237.19 308.87 C 238.18 304.61 235.79 300.10 232.24 297.75 C 227.69 294.62 222.03 294.12 216.83 292.71 C 224.84 288.47 232.71 283.98 240.65 279.63 C 243.93 277.34 247.68 280.16 251.26 279.97 C 249.26 277.31 245.91 276.60 242.93 275.62 Z" fill="#69defe" opacity="1.00" stroke="#69defe" stroke-width="0.25"/>
<path d="M 294.47 222.19 C 297.99 222.16 302.04 221.46 304.86 224.12 C 307.64 225.82 306.27 229.37 306.28 232.01 C 305.57 235.74 305.99 239.79 304.37 243.27 C 300.54 243.62 296.70 243.27 292.88 243.37 C 292.82 236.28 293.92 229.25 294.47 222.19 Z" fill="#83ded4" opacity="1.00" stroke="#83ded4" stroke-width="0.25"/>
<path d="M 286.13 318.48 C 287.49 294.43 290.23 270.46 292.51 246.48 C 296.55 247.03 300.61 247.34 304.69 247.36 C 305.41 269.36 306.63 291.36 306.70 313.38 C 299.78 314.82 293.06 317.09 286.13 318.48 Z" fill="#83dfd4" opacity="1.00" stroke="#83dfd4" stroke-width="0.25"/>
<path d="M 320.39 258.84 C 329.34 258.31 338.32 258.59 347.29 258.73 C 347.31 263.94 347.62 269.26 346.38 274.36 C 340.94 274.89 335.46 274.54 330.02 274.91 C 326.94 274.90 323.65 275.59 320.74 274.30 C 320.27 269.17 320.51 263.99 320.39 258.84 Z" fill="#042b4a" opacity="1.00" stroke="#042b4a" stroke-width="0.25"/>
<path d="M 322.44 260.29 C 324.21 260.29 325.98 260.28 327.75 260.29 C 327.83 260.79 327.99 261.79 328.07 262.29 C 326.87 262.59 325.31 262.41 324.62 263.67 C 322.79 265.43 324.61 267.74 325.24 269.62 C 326.49 269.62 327.74 269.63 328.99 269.65 C 329.95 266.63 329.47 263.43 330.27 260.39 C 335.33 260.72 340.41 260.58 345.48 260.67 C 345.43 264.66 345.26 268.66 344.88 272.65 C 337.44 272.38 330.04 273.48 322.61 273.11 C 322.65 268.84 322.51 264.56 322.44 260.29 Z" fill="#6bddfc" opacity="1.00" stroke="#6bddfc" stroke-width="0.25"/>
<path d="M 326.98 265.47 C 328.38 265.64 328.63 266.30 327.73 267.47 C 326.31 267.29 326.06 266.62 326.98 265.47 Z" fill="#83ded4" opacity="1.00" stroke="#83ded4" stroke-width="0.25"/>
<path d="M 216.19 295.15 C 217.46 295.21 218.74 295.28 220.02 295.35 C 219.05 296.86 218.07 298.37 217.12 299.91 C 216.81 298.32 216.51 296.73 216.19 295.15 Z" fill="#83ded4" opacity="1.00" stroke="#83ded4" stroke-width="0.25"/>
<path d="M 204.50 298.23 C 205.25 297.74 206.74 296.76 207.49 296.27 C 208.35 298.83 209.13 301.42 209.85 304.03 C 208.03 302.13 206.27 300.17 204.50 298.23 Z" fill="#83ded4" opacity="1.00" stroke="#83ded4" stroke-width="0.25"/>
<path d="M 220.06 299.08 C 221.38 296.37 224.86 296.95 227.21 297.72 C 231.37 299.26 235.77 302.96 235.09 307.84 C 233.03 311.45 228.86 313.02 225.27 314.66 C 226.90 310.43 230.10 306.67 230.35 302.01 C 229.90 302.13 229.01 302.37 228.56 302.49 C 226.32 307.09 224.56 312.51 219.86 315.23 C 218.71 315.30 217.57 315.31 216.43 315.26 C 215.95 309.65 217.46 304.01 220.06 299.08 Z" fill="#fabda6" opacity="1.00" stroke="#fabda6" stroke-width="0.25"/>
<path d="M 202.14 299.54 C 205.85 302.18 208.11 306.19 211.11 309.52 C 209.54 309.62 207.99 309.75 206.43 309.93 C 207.74 311.26 209.31 312.29 210.94 313.21 C 210.63 314.30 210.31 315.38 210.02 316.48 C 213.69 317.60 216.09 320.53 216.97 324.20 C 210.99 321.78 202.86 321.98 199.38 315.65 C 196.23 310.37 199.82 304.39 202.14 299.54 Z" fill="#f9bfa6" opacity="1.00" stroke="#f9bfa6" stroke-width="0.25"/>
<path d="M 260.65 310.27 C 261.87 309.85 263.11 309.46 264.34 309.08 C 264.32 309.78 264.27 311.20 264.24 311.91 C 263.00 311.45 261.80 310.89 260.65 310.27 Z" fill="#f8fdfe" opacity="1.00" stroke="#f8fdfe" stroke-width="0.25"/>
<path d="M 255.76 312.85 C 258.32 311.60 261.10 312.77 263.67 313.35 C 270.69 315.40 277.46 318.19 284.37 320.59 C 284.56 322.74 284.77 324.90 284.93 327.06 C 276.79 324.99 270.11 319.64 262.46 316.47 C 255.97 314.13 250.21 319.25 243.95 320.05 C 240.31 320.36 238.19 323.85 234.83 324.91 C 231.03 326.23 227.18 327.57 223.17 328.07 C 222.82 325.47 224.19 323.37 226.21 321.88 C 229.46 321.32 232.97 323.95 236.03 321.96 C 242.40 318.50 249.02 315.49 255.76 312.85 Z" fill="#f8fdfe" opacity="1.00" stroke="#f8fdfe" stroke-width="0.25"/>
<path d="M 182.78 315.65 C 187.09 314.82 191.32 313.31 195.74 313.21 C 197.58 315.59 194.42 318.70 195.66 321.36 C 198.38 326.97 204.44 331.44 210.88 330.81 C 213.33 330.68 215.17 328.88 217.25 327.80 C 217.11 328.51 216.83 329.93 216.69 330.63 C 204.24 334.22 191.79 337.86 179.29 341.28 C 172.32 343.26 164.84 344.35 158.93 348.85 L 158.25 348.77 C 153.60 339.32 143.02 333.52 132.68 333.35 C 132.97 333.81 133.56 334.73 133.85 335.19 C 142.79 337.14 153.85 341.38 156.01 351.40 C 150.22 349.83 144.88 347.05 139.35 344.80 C 129.11 340.60 118.78 336.57 108.71 331.96 C 133.40 326.54 158.07 320.99 182.78 315.65 Z" fill="#fcfefe" opacity="1.00" stroke="#fcfefe" stroke-width="0.25"/>
<path d="M 225.90 316.96 C 227.74 316.02 229.58 315.07 231.44 314.14 C 231.60 316.06 231.73 317.98 231.86 319.90 C 230.06 319.80 228.25 319.70 226.45 319.61 C 226.31 318.95 226.03 317.62 225.90 316.96 Z" fill="#7fd9cd" opacity="1.00" stroke="#7fd9cd" stroke-width="0.25"/>
<path d="M 223.84 322.25 C 221.22 321.30 220.81 316.81 223.47 315.60 C 223.78 317.80 223.89 320.02 223.84 322.25 Z" fill="#f3c2b0" opacity="1.00" stroke="#f3c2b0" stroke-width="0.25"/>
<path d="M 255.14 318.22 C 258.23 318.27 261.56 317.98 264.31 319.70 C 271.08 323.48 277.82 327.51 285.39 329.55 C 286.19 335.93 287.60 342.22 287.99 348.65 C 277.13 350.15 265.60 348.94 256.26 342.82 C 248.50 340.99 240.25 343.50 232.37 341.83 C 239.20 336.97 247.82 336.86 255.80 335.80 C 247.69 331.25 238.67 337.89 230.23 336.06 C 234.76 332.29 240.51 330.46 246.19 329.26 C 248.46 328.81 250.66 327.99 252.52 326.59 C 246.65 325.55 241.32 328.57 235.72 329.64 C 238.30 327.22 240.89 324.73 244.00 322.99 C 247.68 320.94 252.03 321.52 256.07 321.32 C 255.75 320.28 255.44 319.25 255.14 318.22 Z" fill="#fdbfa5" opacity="1.00" stroke="#fdbfa5" stroke-width="0.25"/>
<path d="M 197.19 318.45 C 201.46 321.37 206.00 324.00 211.22 324.75 C 210.20 326.08 209.20 327.43 208.02 328.62 C 202.99 327.40 198.37 323.65 197.19 318.45 Z" fill="#f3c2b0" opacity="1.00" stroke="#f3c2b0" stroke-width="0.25"/>
<path d="M 170.58 324.56 C 172.94 321.96 176.81 322.52 179.93 322.93 C 184.30 323.79 188.39 325.74 192.09 328.19 C 188.47 327.94 185.11 326.58 181.76 325.34 C 178.18 323.99 174.31 324.65 170.58 324.56 Z" fill="#e4e5e7" opacity="1.00" stroke="#e4e5e7" stroke-width="0.25"/>
<path d="M 213.24 325.38 C 214.96 325.37 214.56 328.11 213.02 328.07 C 211.29 328.09 211.71 325.34 213.24 325.38 Z" fill="#8091a2" opacity="1.00" stroke="#8091a2" stroke-width="0.25"/>
<path d="M 151.59 325.85 C 157.44 325.93 162.37 329.33 167.67 331.31 C 170.24 332.28 172.86 333.40 174.52 335.71 C 170.89 334.95 167.47 333.47 164.17 331.80 C 160.04 329.67 155.46 328.48 151.59 325.85 Z" fill="#e0e2e4" opacity="1.00" stroke="#e0e2e4" stroke-width="0.25"/>
<path d="M 235.72 329.64 C 241.32 328.57 246.65 325.55 252.52 326.59 C 250.66 327.99 248.46 328.81 246.19 329.26 C 240.51 330.46 234.76 332.29 230.23 336.06 C 238.67 337.89 247.69 331.25 255.80 335.80 C 247.82 336.86 239.20 336.97 232.37 341.83 C 240.25 343.50 248.50 340.99 256.26 342.82 C 265.60 348.94 277.13 350.15 287.99 348.65 C 287.75 349.29 287.25 350.56 287.01 351.20 C 279.03 351.73 270.76 351.85 263.21 348.81 C 259.90 347.65 257.07 345.36 253.70 344.40 C 247.02 344.07 240.27 345.52 233.63 344.28 C 229.04 343.70 230.27 337.91 228.36 334.84 C 230.10 332.89 231.74 330.87 233.28 328.77 C 234.08 329.10 234.89 329.39 235.72 329.64 Z" fill="#0f2238" opacity="1.00" stroke="#0f2238" stroke-width="0.25"/>
<path d="M 224.20 330.63 C 227.43 329.72 230.60 328.61 233.89 327.95 L 233.28 328.77 C 231.74 330.87 230.10 332.89 228.36 334.84 C 230.27 337.91 229.04 343.70 233.63 344.28 C 240.27 345.52 247.02 344.07 253.70 344.40 C 257.07 345.36 259.90 347.65 263.21 348.81 C 270.76 351.85 279.03 351.73 287.01 351.20 C 287.55 351.19 288.63 351.18 289.17 351.17 C 262.99 358.48 236.88 366.12 210.72 373.51 C 208.64 374.17 206.71 372.85 204.83 372.17 C 189.59 365.43 174.10 359.31 158.81 352.71 C 161.83 349.30 166.29 346.57 171.01 347.90 C 181.15 350.41 190.57 355.29 199.69 360.30 C 200.73 360.84 203.33 362.57 203.41 360.22 C 193.87 353.70 183.02 349.10 172.02 345.63 C 187.47 341.48 202.90 337.20 218.20 332.52 C 219.77 336.53 221.71 340.39 223.65 344.24 C 224.09 339.71 224.33 335.17 224.20 330.63 Z" fill="#fdfefe" opacity="1.00" stroke="#fdfefe" stroke-width="0.25"/>
<path d="M 142.60 330.28 C 150.24 328.64 158.30 331.14 164.20 336.11 C 160.31 336.05 157.04 333.88 153.52 332.57 C 149.94 331.55 146.16 331.44 142.60 330.28 Z" fill="#dee1e4" opacity="1.00" stroke="#dee1e4" stroke-width="0.25"/>
<path d="M 101.53 333.22 C 103.18 333.21 104.93 332.91 106.50 333.60 C 138.31 347.32 170.70 359.67 202.43 373.58 C 205.31 374.78 208.36 376.67 211.58 375.55 C 237.47 368.22 263.34 360.80 289.18 353.29 C 289.42 354.18 289.66 355.06 289.91 355.95 C 264.49 363.72 238.87 370.78 213.44 378.50 C 210.70 379.25 207.69 380.62 204.97 379.06 C 172.45 364.93 140.05 350.52 107.42 336.65 C 105.30 335.79 103.25 334.75 101.53 333.22 Z" fill="#72d9fb" opacity="1.00" stroke="#72d9fb" stroke-width="0.25"/>
<path d="M 235.71 346.79 C 240.73 347.55 245.43 349.88 249.22 353.26 C 244.21 352.43 239.52 350.12 235.71 346.79 Z" fill="#d9dee1" opacity="1.00" stroke="#d9dee1" stroke-width="0.25"/>
<path d="M 232.04 350.11 C 236.57 352.47 241.92 353.69 245.43 357.65 C 240.42 356.37 235.84 353.94 231.23 351.68 C 231.43 351.29 231.83 350.50 232.04 350.11 Z" fill="#dde2e5" opacity="1.00" stroke="#dde2e5" stroke-width="0.25"/>
<path d="M 223.54 352.10 C 228.74 354.52 234.53 356.58 238.39 361.00 C 232.71 359.60 227.54 356.34 223.54 352.10 Z" fill="#dadede" opacity="1.00" stroke="#dadede" stroke-width="0.25"/>
<path d="M 215.07 352.84 C 220.55 354.06 225.28 357.37 229.28 361.19 C 223.66 360.29 219.44 356.14 215.07 352.84 Z" fill="#dfe2e3" opacity="1.00" stroke="#dfe2e3" stroke-width="0.25"/>
</svg>