<svg xmlns="http://www.w3.org/2000/svg" height="512pt" version="1.1" viewBox="0 0 512 512" width="512pt">

<path d="M 173.27 98.37 C 179.29 91.09 194.12 93.30 196.47 102.97 C 196.54 105.17 195.86 107.30 195.56 109.47 C 206.38 108.89 217.22 108.66 228.04 108.91 C 231.28 108.88 235.22 109.88 236.20 113.43 C 238.26 120.78 239.36 128.67 237.53 136.19 C 234.25 136.61 230.97 137.00 227.70 137.38 C 227.86 149.61 226.61 161.80 226.12 174.01 C 224.24 203.11 223.39 232.26 221.50 261.35 C 223.81 261.37 226.12 261.40 228.44 261.44 C 229.37 256.78 230.59 252.20 232.05 247.69 C 243.89 245.30 256.02 245.71 268.02 244.81 C 291.35 244.24 314.71 243.99 338.03 244.91 C 345.44 245.69 353.03 245.17 360.31 246.89 C 364.34 249.15 364.51 254.59 365.99 258.52 C 370.13 258.09 374.25 258.70 378.36 259.10 C 379.52 266.02 381.80 272.95 380.88 280.04 C 380.08 286.65 378.05 293.12 374.87 298.97 C 369.42 309.12 360.15 316.45 350.96 323.06 C 344.82 327.56 337.82 330.67 330.49 332.65 C 329.48 347.35 329.57 362.10 328.51 376.79 C 331.02 377.08 333.54 377.35 336.06 377.59 C 338.92 385.91 340.12 394.70 343.51 402.85 C 344.66 406.33 346.68 411.30 342.97 413.92 C 337.74 415.10 332.33 414.27 327.03 414.32 C 311.03 414.23 295.03 414.46 279.05 415.13 C 263.05 415.37 247.04 415.37 231.04 415.79 C 216.69 416.37 202.33 416.58 187.97 416.87 C 182.35 416.94 176.75 417.85 171.13 417.55 C 168.73 417.57 166.74 415.49 166.78 413.11 C 166.59 407.89 167.85 402.76 168.25 397.58 C 168.64 392.25 169.45 386.97 170.65 381.78 C 172.54 381.28 174.43 380.78 176.32 380.28 C 176.34 358.56 176.49 336.83 176.22 315.10 C 164.96 311.24 153.42 305.47 146.94 295.03 C 140.81 284.82 141.38 272.48 141.37 261.01 C 141.69 245.66 140.53 230.33 140.84 214.97 C 140.19 190.17 141.07 165.30 139.29 140.55 C 136.96 139.44 134.06 139.74 131.90 138.19 C 130.14 135.51 130.82 132.06 130.82 129.02 C 131.31 123.91 131.01 118.73 131.76 113.64 C 132.46 110.50 136.34 110.35 138.93 110.20 C 150.50 110.09 162.06 109.52 173.64 109.37 C 172.34 105.89 170.46 101.63 173.27 98.37 Z" fill="#8fbbe5" opacity="1.00" stroke="#8fbbe5" stroke-width="0.25" data-index="1"></path>
<path d="M 176.18 103.58 C 178.05 101.47 179.75 98.35 183.02 98.53 C 185.67 98.78 188.37 99.90 190.17 101.90 C 190.62 103.77 190.71 105.71 190.88 107.62 C 186.58 108.84 182.13 108.91 177.81 107.71 C 177.26 106.33 176.72 104.95 176.18 103.58 Z" fill="#fdfeff" opacity="1.00" stroke="#fdfeff" stroke-width="0.25" data-index="2"></path>
<path d="M 138.70 114.63 C 156.84 113.66 175.02 115.01 193.13 113.60 C 205.55 113.37 217.95 112.35 230.38 112.61 C 231.26 119.08 231.77 125.60 231.84 132.13 C 213.91 132.54 195.97 132.97 178.03 132.54 C 164.84 132.39 151.65 132.77 138.47 132.43 C 138.57 126.50 138.66 120.56 138.70 114.63 Z" fill="#fdfeff" opacity="1.00" stroke="#fdfeff" stroke-width="0.25" data-index="3"></path>
<path d="M 172.36 138.60 C 188.72 138.70 205.03 137.24 221.39 137.36 C 220.91 168.28 218.08 199.11 217.30 230.02 C 216.36 240.60 216.80 251.24 215.85 261.82 C 209.37 261.60 202.88 261.68 196.42 262.19 C 196.43 263.33 196.46 265.61 196.47 266.75 C 204.97 268.11 213.47 266.30 222.00 266.49 C 238.99 266.59 255.99 266.36 272.98 266.19 C 282.96 265.44 292.97 266.53 302.95 265.65 C 326.40 265.34 349.85 265.48 373.29 265.44 C 374.30 271.50 375.05 277.69 374.30 283.83 C 373.42 289.79 370.18 295.03 366.95 299.98 C 362.61 306.17 357.25 311.76 350.87 315.86 C 341.87 321.31 332.23 325.60 322.37 329.24 C 324.61 335.95 323.55 343.06 323.21 349.96 C 322.45 359.19 322.42 368.47 321.55 377.69 C 310.68 377.26 299.83 378.96 288.98 377.83 C 275.41 377.72 261.81 377.24 248.26 378.26 C 239.24 378.61 230.22 378.31 221.20 378.61 C 221.61 370.00 222.54 361.40 224.10 352.93 C 225.94 343.15 233.73 335.71 242.24 331.25 C 256.71 322.86 273.68 321.54 289.39 316.67 C 303.23 312.09 316.92 307.02 330.49 301.69 C 332.74 300.69 335.22 299.87 336.99 298.07 C 337.68 296.68 337.64 295.03 337.96 293.53 C 315.94 292.36 294.03 295.43 272.05 296.14 C 248.37 297.03 224.57 296.66 201.01 294.01 C 191.12 293.24 183.41 285.53 179.83 276.71 C 177.96 276.24 176.09 275.76 174.22 275.28 C 172.98 261.90 172.30 248.46 172.30 235.02 C 171.03 211.71 171.81 188.35 171.63 165.02 C 171.40 156.20 172.36 147.42 172.36 138.60 Z" fill="#fdfeff" opacity="1.00" stroke="#fdfeff" stroke-width="0.25" data-index="4"></path>
<path d="M 184.57 143.69 C 185.18 143.40 186.39 142.80 187.00 142.50 C 189.97 144.64 192.98 146.82 195.36 149.63 C 198.47 154.88 194.22 162.58 188.07 162.60 C 182.98 163.38 177.25 159.54 177.51 154.06 C 176.97 149.84 181.17 147.85 184.06 145.87 C 184.18 145.32 184.44 144.24 184.57 143.69 Z" fill="#8fbbe5" opacity="1.00" stroke="#8fbbe5" stroke-width="0.25" data-index="5"></path>
<path d="M 181.28 151.93 C 184.13 150.99 187.09 150.38 190.10 150.22 C 190.61 150.77 191.65 151.86 192.17 152.40 C 191.78 154.70 191.17 158.18 188.03 157.72 C 184.16 158.55 182.29 154.99 181.28 151.93 Z" fill="#fdfeff" opacity="1.00" stroke="#fdfeff" stroke-width="0.25" data-index="6"></path>
<path d="M 176.49 386.40 C 195.66 385.83 214.82 385.06 233.96 383.75 C 257.42 382.69 280.91 384.29 304.39 383.51 C 313.05 383.15 321.72 383.51 330.39 383.63 C 332.62 391.29 335.04 398.89 337.04 406.62 C 317.04 406.95 297.01 406.03 277.04 407.36 C 261.02 407.49 244.99 407.50 228.97 407.87 C 219.33 408.48 209.66 408.57 200.00 408.64 C 191.44 408.65 182.91 409.64 174.35 409.60 C 174.92 401.85 175.81 394.13 176.49 386.40 Z" fill="#fdfeff" opacity="1.00" stroke="#fdfeff" stroke-width="0.25" data-index="7"></path>
</svg>