<svg xmlns="http://www.w3.org/2000/svg" height="512pt" version="1.1" viewBox="0 0 512 512" width="512pt">

<path d="M 270.64 53.92 C 271.55 52.05 273.85 52.25 275.54 52.66 C 278.38 53.54 281.00 55.01 283.51 56.58 C 292.73 62.66 300.52 70.62 307.68 78.96 L 307.41 79.18 C 307.00 79.51 306.18 80.17 305.77 80.50 C 303.82 82.03 301.80 83.45 299.86 84.98 C 299.68 85.12 299.32 85.41 299.14 85.55 C 296.90 87.40 293.87 88.70 292.37 91.21 C 292.63 96.32 294.00 101.40 293.21 106.56 C 293.01 107.29 292.62 108.77 292.42 109.50 C 291.46 111.77 289.92 113.72 288.33 115.57 C 287.96 114.95 287.60 114.33 287.24 113.72 C 292.89 107.84 291.78 98.99 290.11 91.74 C 286.58 79.36 279.65 68.23 271.95 58.02 C 271.03 56.85 270.19 55.49 270.64 53.92 Z" fill="#111f2d" opacity="1.00" stroke="#111f2d" stroke-width="0.25" data-index="1"></path>
<path d="M 272.19 54.50 C 275.41 54.16 278.47 55.56 281.05 57.38 C 280.57 57.59 279.60 58.02 279.11 58.23 C 281.17 61.02 283.40 63.68 285.83 66.15 C 290.48 70.88 294.03 76.53 298.12 81.72 C 296.05 84.04 294.13 86.62 291.31 88.08 C 287.25 77.71 281.88 67.80 275.02 59.01 C 273.90 57.63 272.99 56.08 272.19 54.50 Z" fill="#bf4425" opacity="1.00" stroke="#bf4425" stroke-width="0.25" data-index="2"></path>
<path d="M 279.11 58.23 C 279.60 58.02 280.57 57.59 281.05 57.38 C 283.29 58.69 285.37 60.23 287.56 61.63 C 287.68 61.95 287.91 62.61 288.02 62.94 C 288.43 63.26 289.25 63.91 289.66 64.24 C 294.04 66.99 298.41 70.72 301.02 75.27 C 301.08 75.94 301.19 77.27 301.25 77.94 L 301.35 78.70 C 300.26 79.70 299.19 80.71 298.12 81.72 C 294.03 76.53 290.48 70.88 285.83 66.15 C 283.40 63.68 281.17 61.02 279.11 58.23 Z" fill="#f76029" opacity="1.00" stroke="#f76029" stroke-width="0.25" data-index="3"></path>
<path d="M 141.78 82.80 C 147.93 72.43 156.44 62.67 168.11 58.55 C 168.79 58.83 170.14 59.39 170.82 59.67 C 170.65 60.85 170.81 62.14 170.20 63.21 C 164.32 73.48 159.46 84.92 159.51 96.95 C 159.66 105.00 162.42 113.94 169.56 118.46 C 174.75 122.02 181.33 121.67 187.20 123.05 C 187.82 123.38 189.08 124.05 189.70 124.39 C 189.23 124.47 188.27 124.63 187.79 124.71 C 184.35 124.43 180.95 123.71 177.51 123.48 C 177.57 126.45 177.64 129.43 177.99 132.39 C 177.89 137.41 177.93 142.45 177.46 147.46 C 176.35 142.03 176.57 136.49 176.61 130.99 C 176.63 134.70 175.92 138.36 174.29 141.71 C 174.38 135.49 175.10 129.28 174.69 123.06 C 171.18 122.05 168.34 119.56 164.97 118.32 C 160.25 120.21 156.12 123.35 152.05 126.34 C 149.68 128.28 147.16 130.05 145.03 132.26 C 143.96 133.16 144.54 134.73 145.27 135.65 C 147.89 139.28 151.06 142.51 154.47 145.40 C 159.00 149.23 164.62 151.31 170.06 153.50 C 170.61 153.27 171.72 152.82 172.27 152.59 C 172.01 153.63 171.74 154.66 171.45 155.69 C 158.24 152.89 146.54 143.73 140.67 131.57 C 133.14 116.39 134.19 97.75 141.78 82.80 Z" fill="#12283a" opacity="1.00" stroke="#12283a" stroke-width="0.25" data-index="4"></path>
<path d="M 158.43 66.30 C 161.41 63.76 164.82 61.41 168.85 61.08 C 165.64 66.88 162.54 72.79 160.48 79.11 C 159.39 82.37 158.84 85.79 157.44 88.95 C 154.78 86.81 151.88 84.97 148.67 83.74 C 149.30 80.43 149.90 77.10 150.79 73.85 C 152.68 70.76 155.72 68.62 158.43 66.30 Z" fill="#f75f2c" opacity="1.00" stroke="#f75f2c" stroke-width="0.25" data-index="5"></path>
<path d="M 288.02 62.94 L 288.89 62.68 L 289.72 63.34 L 289.66 64.24 C 289.25 63.91 288.43 63.26 288.02 62.94 Z" fill="#986c61" opacity="1.00" stroke="#986c61" stroke-width="0.25" data-index="6"></path>
<path d="M 145.09 82.70 C 145.62 79.06 148.30 76.33 150.79 73.85 C 149.90 77.10 149.30 80.43 148.67 83.74 C 147.48 83.40 146.28 83.05 145.09 82.70 Z" fill="#b9432e" opacity="1.00" stroke="#b9432e" stroke-width="0.25" data-index="7"></path>
<path d="M 301.02 75.27 C 302.84 73.90 303.97 78.06 301.84 78.26 L 301.25 77.94 C 301.19 77.27 301.08 75.94 301.02 75.27 Z" fill="#a26155" opacity="1.00" stroke="#a26155" stroke-width="0.25" data-index="8"></path>
<path d="M 305.77 80.50 C 306.18 80.17 307.00 79.51 307.41 79.18 C 310.17 82.11 311.96 85.75 313.85 89.27 C 315.80 92.94 317.06 96.92 318.23 100.90 C 319.45 107.44 319.98 114.22 318.53 120.77 L 317.23 120.09 C 318.45 108.03 316.51 95.19 309.35 85.15 C 308.26 83.52 307.02 82.00 305.77 80.50 Z" fill="#0e0c1c" opacity="1.00" stroke="#0e0c1c" stroke-width="0.25" data-index="9"></path>
<path d="M 299.86 84.98 C 301.80 83.45 303.82 82.03 305.77 80.50 C 307.02 82.00 308.26 83.52 309.35 85.15 C 310.23 90.52 313.85 94.90 314.81 100.25 C 315.88 105.74 317.69 111.64 315.39 117.07 C 312.77 114.66 309.67 112.47 308.21 109.10 C 307.34 100.50 302.67 93.00 299.86 84.98 Z" fill="#f75c28" opacity="1.00" stroke="#f75c28" stroke-width="0.25" data-index="10"></path>
<path d="M 299.14 85.55 C 299.32 85.41 299.68 85.12 299.86 84.98 C 302.67 93.00 307.34 100.50 308.21 109.10 C 304.12 107.20 299.71 106.16 295.30 105.35 C 294.91 100.74 293.96 96.10 294.45 91.48 C 296.09 89.57 297.88 87.76 299.14 85.55 Z" fill="#c64623" opacity="1.00" stroke="#c64623" stroke-width="0.25" data-index="11"></path>
<path d="M 292.37 91.21 C 293.87 88.70 296.90 87.40 299.14 85.55 C 297.88 87.76 296.09 89.57 294.45 91.48 C 293.96 96.10 294.91 100.74 295.30 105.35 C 299.71 106.16 304.12 107.20 308.21 109.10 C 309.67 112.47 312.77 114.66 315.39 117.07 C 317.69 111.64 315.88 105.74 314.81 100.25 C 313.85 94.90 310.23 90.52 309.35 85.15 C 316.51 95.19 318.45 108.03 317.23 120.09 C 311.04 116.80 307.86 109.09 300.43 107.74 C 298.06 107.13 295.63 106.84 293.21 106.56 C 294.00 101.40 292.63 96.32 292.37 91.21 Z" fill="#a25546" opacity="1.00" stroke="#a25546" stroke-width="0.25" data-index="12"></path>
<path d="M 142.04 87.42 C 144.72 87.54 147.40 87.84 150.01 88.52 C 149.22 88.64 147.66 88.89 146.88 89.01 C 144.63 99.16 145.48 110.06 149.29 119.72 C 149.81 121.62 151.72 120.30 152.98 120.12 C 149.03 123.28 146.19 127.46 142.70 131.05 C 140.54 126.26 138.57 121.23 138.25 115.94 C 137.95 106.33 137.50 96.22 142.04 87.42 Z" fill="#c54624" opacity="1.00" stroke="#c54624" stroke-width="0.25" data-index="13"></path>
<path d="M 205.99 101.09 C 215.89 93.71 227.79 88.92 240.09 87.69 C 255.79 86.93 271.19 94.73 281.40 106.43 C 283.56 108.68 284.73 111.79 287.24 113.72 C 287.60 114.33 287.96 114.95 288.33 115.57 C 288.97 116.67 289.64 117.75 290.33 118.84 C 290.33 119.47 290.35 120.73 290.36 121.36 C 290.36 123.43 290.35 125.50 290.51 127.57 C 290.88 133.14 290.92 138.75 289.94 144.26 L 288.50 142.90 C 290.18 131.94 288.82 120.03 282.25 110.81 C 274.95 100.96 264.08 93.82 252.19 90.90 C 239.85 87.71 226.92 91.65 215.94 97.35 C 210.04 100.37 204.55 104.23 199.83 108.89 C 196.00 112.68 192.21 116.73 190.17 121.81 C 192.04 122.99 193.82 124.54 194.14 126.87 C 196.13 137.30 193.28 147.79 193.30 158.26 C 196.76 159.00 200.37 159.60 203.36 161.62 C 206.93 163.67 209.42 167.46 213.57 168.48 C 221.14 170.47 228.79 172.60 236.67 172.68 C 249.25 174.07 262.93 173.04 273.68 165.74 C 281.57 160.63 286.49 151.92 288.50 142.90 C 289.16 144.83 289.47 146.86 289.69 148.89 C 291.95 148.88 294.21 148.61 296.40 148.01 C 293.97 149.54 291.10 149.99 288.37 150.65 C 286.99 153.23 285.64 155.83 284.24 158.41 C 297.74 154.84 312.57 157.56 324.44 164.74 C 327.55 166.77 330.69 168.97 332.91 172.00 C 332.96 173.27 331.93 174.18 331.29 175.17 C 328.81 178.27 326.52 181.56 323.69 184.36 C 325.41 186.94 327.76 189.15 328.82 192.13 C 329.95 194.73 330.00 197.60 330.63 200.32 C 338.46 207.94 346.73 215.16 353.82 223.51 C 356.91 222.59 359.73 223.85 361.79 226.13 C 363.23 226.25 364.84 226.04 366.07 226.98 C 375.64 232.85 382.79 241.82 388.95 251.05 C 392.04 256.16 395.17 261.41 396.74 267.22 C 397.40 271.11 392.92 273.50 392.41 276.99 C 398.01 282.89 401.96 290.12 405.07 297.59 C 408.66 306.63 408.85 317.76 402.98 325.91 C 402.11 327.27 400.57 327.92 398.98 327.70 C 398.03 326.69 397.43 325.50 397.18 324.12 C 395.56 325.99 393.55 328.51 390.76 327.35 C 390.32 325.74 389.86 324.14 389.46 322.53 C 388.13 323.44 386.74 325.15 384.93 324.26 C 382.35 322.48 382.93 318.78 382.72 316.05 C 382.89 309.28 382.08 302.54 380.51 295.96 C 380.29 300.34 379.90 304.72 379.71 309.11 C 379.61 311.35 379.22 314.04 377.13 315.32 C 374.61 316.41 372.41 314.13 371.66 311.92 C 369.98 306.07 370.75 299.94 370.70 293.95 C 370.63 292.36 369.75 290.96 369.24 289.50 C 364.99 290.95 359.55 291.32 356.28 287.70 C 350.52 281.94 346.27 274.86 342.67 267.62 C 339.77 261.97 337.31 256.03 336.21 249.75 C 326.29 242.46 316.68 234.71 307.44 226.58 C 305.08 225.93 302.63 225.58 300.39 224.55 C 299.15 229.09 299.50 234.57 295.69 237.97 C 295.04 242.19 293.93 246.31 292.56 250.35 C 293.22 250.37 294.52 250.41 295.17 250.43 C 293.23 250.83 290.92 250.85 289.78 252.76 C 287.06 256.36 283.56 259.23 280.56 262.57 C 278.70 265.49 278.46 269.12 277.13 272.30 C 277.68 269.95 278.14 267.58 278.60 265.21 C 273.32 267.39 267.80 269.36 262.02 269.46 C 257.33 269.68 252.74 268.61 248.18 267.65 L 247.98 268.58 C 247.89 268.91 247.73 269.56 247.65 269.89 C 247.30 268.63 246.96 267.37 246.63 266.11 C 245.92 266.03 244.52 265.86 243.81 265.78 C 240.61 265.22 237.78 263.58 234.98 262.02 C 235.63 262.70 236.27 263.38 236.92 264.07 C 234.68 262.40 232.42 260.72 229.93 259.45 C 225.52 257.01 220.72 254.91 215.55 255.55 C 217.06 255.06 218.57 254.61 220.08 254.14 C 218.33 254.14 216.58 254.14 214.83 254.19 C 216.01 253.87 217.20 253.57 218.39 253.30 C 216.63 249.45 215.33 245.44 214.26 241.36 C 209.27 238.65 204.86 235.00 200.94 230.88 C 199.54 231.43 197.91 231.68 196.88 232.89 C 189.37 240.63 182.26 248.93 173.53 255.36 C 173.07 263.13 170.67 270.60 168.54 278.04 C 166.32 285.93 163.41 293.73 158.93 300.64 C 158.32 300.34 157.08 299.74 156.46 299.44 C 156.06 298.61 155.66 297.79 155.25 296.97 C 157.19 303.86 161.37 311.03 158.42 318.31 C 156.58 319.49 154.58 319.00 152.64 318.38 C 149.51 313.30 147.85 307.54 145.33 302.18 C 145.16 302.18 144.82 302.17 144.64 302.17 C 141.41 308.55 138.81 316.07 141.51 323.13 C 142.75 328.32 147.33 332.71 146.36 338.30 C 143.68 339.34 140.83 338.94 138.46 337.35 C 138.98 339.82 140.51 344.44 136.74 344.85 C 134.93 344.25 133.43 343.03 131.83 342.05 C 131.53 344.04 130.36 346.38 127.92 345.46 C 122.12 342.57 119.94 335.78 117.83 330.10 C 114.01 316.32 117.58 301.74 123.78 289.24 C 121.83 289.51 120.24 290.68 118.85 291.99 C 117.81 292.31 116.75 292.52 115.68 292.66 C 115.52 286.71 115.55 280.66 117.33 274.93 C 121.33 261.81 127.32 248.89 136.90 238.90 C 138.75 236.62 141.74 236.29 144.34 235.44 C 145.94 232.23 149.13 230.77 152.19 229.33 C 158.28 220.16 164.80 211.26 172.07 202.97 C 172.17 200.57 172.38 198.18 172.65 195.80 C 172.91 195.56 173.44 195.10 173.70 194.87 C 169.06 193.18 163.70 193.13 159.58 190.26 C 163.13 180.30 168.37 170.27 177.49 164.37 C 181.76 161.25 186.91 159.91 191.94 158.61 C 190.60 157.88 189.26 157.17 187.91 156.45 C 182.42 156.72 176.87 156.78 171.45 155.69 C 171.74 154.66 172.01 153.63 172.27 152.59 C 172.97 148.97 173.21 145.25 174.29 141.71 C 175.92 138.36 176.63 134.70 176.61 130.99 C 176.57 136.49 176.35 142.03 177.46 147.46 C 177.38 149.90 177.26 152.34 177.15 154.78 C 181.14 154.87 185.34 155.33 189.08 153.59 C 189.75 154.53 190.42 155.47 191.12 156.40 C 192.26 149.98 192.50 143.46 193.07 136.98 C 193.50 132.73 192.72 128.49 191.64 124.39 C 191.16 124.39 190.19 124.39 189.70 124.39 C 189.08 124.05 187.82 123.38 187.20 123.05 C 191.15 114.10 198.19 106.82 205.99 101.09 Z" fill="#022b49" opacity="1.00" stroke="#022b49" stroke-width="0.25" data-index="14"></path>
<path d="M 146.88 89.01 C 147.66 88.89 149.22 88.64 150.01 88.52 C 152.46 89.73 155.01 90.74 157.56 91.71 C 157.54 95.98 157.24 100.32 158.30 104.50 C 159.07 108.14 160.88 111.42 162.00 114.95 C 158.72 116.18 155.90 118.26 152.98 120.12 C 151.72 120.30 149.81 121.62 149.29 119.72 C 145.48 110.06 144.63 99.16 146.88 89.01 Z" fill="#f75d28" opacity="1.00" stroke="#f75d28" stroke-width="0.25" data-index="15"></path>
<path d="M 215.94 97.35 C 226.92 91.65 239.85 87.71 252.19 90.90 C 264.08 93.82 274.95 100.96 282.25 110.81 C 288.82 120.03 290.18 131.94 288.50 142.90 C 286.49 151.92 281.57 160.63 273.68 165.74 C 262.93 173.04 249.25 174.07 236.67 172.68 C 233.25 167.07 226.16 164.61 223.91 158.09 C 234.77 162.45 247.05 163.96 258.45 160.85 C 265.70 159.03 272.73 155.55 277.77 149.93 C 277.36 149.58 276.53 148.87 276.12 148.51 C 269.05 155.13 259.41 157.94 249.96 158.76 C 239.74 159.46 229.20 158.01 219.93 153.49 C 216.35 144.79 211.45 136.41 210.51 126.87 C 210.15 121.34 208.39 115.56 210.37 110.16 C 211.80 105.71 214.32 101.72 215.94 97.35 Z" fill="#74e6fe" opacity="1.00" stroke="#74e6fe" stroke-width="0.25" data-index="16"></path>
<path d="M 199.83 108.89 C 204.55 104.23 210.04 100.37 215.94 97.35 C 214.32 101.72 211.80 105.71 210.37 110.16 C 208.39 115.56 210.15 121.34 210.51 126.87 C 211.45 136.41 216.35 144.79 219.93 153.49 C 218.44 152.83 216.91 152.26 215.38 151.73 C 216.38 155.59 220.90 156.30 223.91 158.09 C 226.16 164.61 233.25 167.07 236.67 172.68 C 228.79 172.60 221.14 170.47 213.57 168.48 C 209.42 167.46 206.93 163.67 203.36 161.62 C 200.37 159.60 196.76 159.00 193.30 158.26 C 193.28 147.79 196.13 137.30 194.14 126.87 C 193.82 124.54 192.04 122.99 190.17 121.81 C 192.21 116.73 196.00 112.68 199.83 108.89 Z" fill="#5fc0e5" opacity="1.00" stroke="#5fc0e5" stroke-width="0.25" data-index="17"></path>
<path d="M 259.45 107.92 C 260.59 105.43 262.97 103.01 265.94 103.32 C 271.50 103.29 275.42 108.99 274.62 114.25 C 272.93 115.83 271.64 118.54 269.03 118.60 C 263.27 119.52 258.59 113.25 259.45 107.92 Z" fill="#ffffff" opacity="1.00" stroke="#ffffff" stroke-width="0.25" data-index="18"></path>
<path d="M 293.21 106.56 C 295.63 106.84 298.06 107.13 300.43 107.74 C 298.45 108.16 296.49 108.65 294.52 109.08 C 293.99 109.19 292.94 109.40 292.42 109.50 C 292.62 108.77 293.01 107.29 293.21 106.56 Z" fill="#482a2f" opacity="1.00" stroke="#482a2f" stroke-width="0.25" data-index="19"></path>
<path d="M 294.52 109.08 C 296.49 108.65 298.45 108.16 300.43 107.74 C 307.86 109.09 311.04 116.80 317.23 120.09 L 318.53 120.77 L 318.78 120.90 C 317.41 125.29 315.96 129.75 313.27 133.54 C 313.18 132.84 312.99 131.43 312.90 130.73 C 313.47 129.15 314.44 127.65 314.46 125.93 C 311.40 121.02 307.16 116.95 302.80 113.20 C 300.26 111.42 297.46 110.04 294.52 109.08 Z" fill="#092a41" opacity="1.00" stroke="#092a41" stroke-width="0.25" data-index="20"></path>
<path d="M 292.42 109.50 C 292.94 109.40 293.99 109.19 294.52 109.08 C 297.46 110.04 300.26 111.42 302.80 113.20 C 300.39 117.83 295.37 120.74 293.81 125.80 C 292.95 123.34 291.74 121.02 290.33 118.84 C 289.64 117.75 288.97 116.67 288.33 115.57 C 289.92 113.72 291.46 111.77 292.42 109.50 Z" fill="#c04423" opacity="1.00" stroke="#c04423" stroke-width="0.25" data-index="21"></path>
<path d="M 302.80 113.20 C 307.16 116.95 311.40 121.02 314.46 125.93 C 314.44 127.65 313.47 129.15 312.90 130.73 C 309.26 136.71 304.43 142.24 297.84 145.00 C 296.85 138.53 295.83 132.03 293.81 125.80 C 295.37 120.74 300.39 117.83 302.80 113.20 Z" fill="#f75d28" opacity="1.00" stroke="#f75d28" stroke-width="0.25" data-index="22"></path>
<path d="M 152.05 126.34 C 156.12 123.35 160.25 120.21 164.97 118.32 C 168.34 119.56 171.18 122.05 174.69 123.06 C 175.10 129.28 174.38 135.49 174.29 141.71 C 169.58 141.50 165.94 138.32 162.26 135.76 C 158.32 133.21 156.10 128.78 152.05 126.34 Z" fill="#f75d28" opacity="1.00" stroke="#f75d28" stroke-width="0.25" data-index="23"></path>
<path d="M 290.33 118.84 C 291.74 121.02 292.95 123.34 293.81 125.80 C 295.83 132.03 296.85 138.53 297.84 145.00 C 304.43 142.24 309.26 136.71 312.90 130.73 C 312.99 131.43 313.18 132.84 313.27 133.54 C 310.00 139.29 304.73 143.80 298.91 146.87 C 298.08 147.27 297.24 147.65 296.40 148.01 C 294.21 148.61 291.95 148.88 289.69 148.89 C 291.71 148.06 293.77 147.31 295.84 146.59 C 295.70 143.45 295.15 140.34 294.47 137.27 C 294.41 136.74 294.28 135.67 294.21 135.13 C 293.77 130.34 292.04 125.82 290.36 121.36 C 290.35 120.73 290.33 119.47 290.33 118.84 Z" fill="#0e0c1c" opacity="1.00" stroke="#0e0c1c" stroke-width="0.25" data-index="24"></path>
<path d="M 290.36 121.36 C 292.04 125.82 293.77 130.34 294.21 135.13 C 293.63 134.50 293.05 133.87 292.48 133.25 C 292.14 135.66 291.70 138.06 291.25 140.46 C 291.52 136.15 291.35 131.82 290.51 127.57 C 290.35 125.50 290.36 123.43 290.36 121.36 Z" fill="#744d4d" opacity="1.00" stroke="#744d4d" stroke-width="0.25" data-index="25"></path>
<path d="M 177.51 123.48 C 180.95 123.71 184.35 124.43 187.79 124.71 C 187.85 125.48 187.97 127.02 188.03 127.79 C 188.14 130.87 188.27 133.96 187.99 137.03 L 187.62 137.17 C 187.47 133.73 187.94 130.00 186.27 126.85 C 184.52 124.70 181.27 125.57 178.83 125.07 C 178.70 127.95 178.54 130.82 178.43 133.69 L 177.99 132.39 C 177.64 129.43 177.57 126.45 177.51 123.48 Z" fill="#b35f45" opacity="1.00" stroke="#b35f45" stroke-width="0.25" data-index="26"></path>
<path d="M 189.70 124.39 C 190.19 124.39 191.16 124.39 191.64 124.39 C 192.72 128.49 193.50 132.73 193.07 136.98 C 192.50 143.46 192.26 149.98 191.12 156.40 C 190.42 155.47 189.75 154.53 189.08 153.59 C 187.96 145.02 189.80 136.32 188.03 127.79 C 187.97 127.02 187.85 125.48 187.79 124.71 C 188.27 124.63 189.23 124.47 189.70 124.39 Z" fill="#804031" opacity="1.00" stroke="#804031" stroke-width="0.25" data-index="27"></path>
<path d="M 178.83 125.07 C 181.27 125.57 184.52 124.70 186.27 126.85 C 187.94 130.00 187.47 133.73 187.62 137.17 C 184.75 138.11 181.79 138.76 178.84 139.40 C 178.79 137.49 178.65 135.58 178.43 133.69 C 178.54 130.82 178.70 127.95 178.83 125.07 Z" fill="#f55e2a" opacity="1.00" stroke="#f55e2a" stroke-width="0.25" data-index="28"></path>
<path d="M 145.03 132.26 C 147.16 130.05 149.68 128.28 152.05 126.34 C 156.10 128.78 158.32 133.21 162.26 135.76 C 165.94 138.32 169.58 141.50 174.29 141.71 C 173.21 145.25 172.97 148.97 172.27 152.59 C 171.72 152.82 170.61 153.27 170.06 153.50 C 164.62 151.31 159.00 149.23 154.47 145.40 C 151.06 142.51 147.89 139.28 145.27 135.65 C 144.54 134.73 143.96 133.16 145.03 132.26 Z" fill="#c54523" opacity="1.00" stroke="#c54523" stroke-width="0.25" data-index="29"></path>
<path d="M 188.03 127.79 C 189.80 136.32 187.96 145.02 189.08 153.59 C 185.34 155.33 181.14 154.87 177.15 154.78 C 177.26 152.34 177.38 149.90 177.46 147.46 C 177.93 142.45 177.89 137.41 177.99 132.39 L 178.43 133.69 C 178.65 135.58 178.79 137.49 178.84 139.40 C 178.80 144.06 178.59 148.72 178.62 153.38 C 181.37 152.97 185.33 154.63 187.16 151.96 C 187.77 147.01 187.28 141.98 187.99 137.03 C 188.27 133.96 188.14 130.87 188.03 127.79 Z" fill="#924c3f" opacity="1.00" stroke="#924c3f" stroke-width="0.25" data-index="30"></path>
<path d="M 290.51 127.57 C 291.35 131.82 291.52 136.15 291.25 140.46 C 291.07 142.68 291.00 144.90 290.99 147.12 C 291.93 146.39 293.58 146.29 294.00 145.03 C 294.32 142.46 294.32 139.86 294.47 137.27 C 295.15 140.34 295.70 143.45 295.84 146.59 C 293.77 147.31 291.71 148.06 289.69 148.89 C 289.47 146.86 289.16 144.83 288.50 142.90 L 289.94 144.26 C 290.92 138.75 290.88 133.14 290.51 127.57 Z" fill="#804031" opacity="1.00" stroke="#804031" stroke-width="0.25" data-index="31"></path>
<path d="M 292.48 133.25 C 293.05 133.87 293.63 134.50 294.21 135.13 C 294.28 135.67 294.41 136.74 294.47 137.27 C 294.32 139.86 294.32 142.46 294.00 145.03 C 293.58 146.29 291.93 146.39 290.99 147.12 C 291.00 144.90 291.07 142.68 291.25 140.46 C 291.70 138.06 292.14 135.66 292.48 133.25 Z" fill="#ba4427" opacity="1.00" stroke="#ba4427" stroke-width="0.25" data-index="32"></path>
<path d="M 258.65 139.93 C 259.44 134.42 267.08 134.10 269.64 138.48 C 269.66 140.81 270.51 143.70 268.44 145.44 C 264.68 149.25 256.85 145.52 258.65 139.93 Z" fill="#032d4b" opacity="1.00" stroke="#032d4b" stroke-width="0.25" data-index="33"></path>
<path d="M 187.62 137.17 L 187.99 137.03 C 187.28 141.98 187.77 147.01 187.16 151.96 C 185.33 154.63 181.37 152.97 178.62 153.38 C 178.59 148.72 178.80 144.06 178.84 139.40 C 181.79 138.76 184.75 138.11 187.62 137.17 Z" fill="#c84623" opacity="1.00" stroke="#c84623" stroke-width="0.25" data-index="34"></path>
<path d="M 228.34 138.57 C 232.12 135.56 238.44 139.24 237.76 144.02 C 238.35 148.48 232.61 151.84 228.95 149.46 C 224.68 147.61 224.20 140.88 228.34 138.57 Z" fill="#032d4d" opacity="1.00" stroke="#032d4d" stroke-width="0.25" data-index="35"></path>
<path d="M 249.96 158.76 C 259.41 157.94 269.05 155.13 276.12 148.51 C 276.53 148.87 277.36 149.58 277.77 149.93 C 272.73 155.55 265.70 159.03 258.45 160.85 C 247.05 163.96 234.77 162.45 223.91 158.09 C 220.90 156.30 216.38 155.59 215.38 151.73 C 216.91 152.26 218.44 152.83 219.93 153.49 C 229.20 158.01 239.74 159.46 249.96 158.76 Z" fill="#002e50" opacity="1.00" stroke="#002e50" stroke-width="0.25" data-index="36"></path>
<path d="M 284.01 160.34 C 290.25 158.93 296.75 158.29 303.09 159.39 C 301.83 159.58 300.57 159.78 299.33 160.00 C 300.01 169.71 301.25 179.37 302.14 189.06 C 302.20 193.22 306.16 195.44 308.97 197.81 C 305.72 200.75 303.14 204.37 299.66 207.07 C 297.14 191.16 289.58 176.27 278.89 164.31 C 280.47 162.87 281.76 160.75 284.01 160.34 Z" fill="#5ebfe5" opacity="1.00" stroke="#5ebfe5" stroke-width="0.25" data-index="37"></path>
<path d="M 299.33 160.00 C 300.57 159.78 301.83 159.58 303.09 159.39 C 313.23 160.91 323.68 164.82 330.73 172.57 C 323.88 181.33 316.46 189.60 308.97 197.81 C 306.16 195.44 302.20 193.22 302.14 189.06 C 301.25 179.37 300.01 169.71 299.33 160.00 Z" fill="#73e7ff" opacity="1.00" stroke="#73e7ff" stroke-width="0.25" data-index="38"></path>
<path d="M 180.76 164.73 C 187.38 160.91 196.53 158.83 203.09 163.88 C 208.13 167.56 213.85 172.15 214.62 178.74 C 213.23 183.94 212.18 189.47 208.82 193.83 C 206.54 196.76 204.01 199.48 201.76 202.44 C 190.11 194.33 176.02 191.04 162.11 189.53 C 165.60 179.65 171.37 169.97 180.76 164.73 Z" fill="#73e7ff" opacity="1.00" stroke="#73e7ff" stroke-width="0.25" data-index="39"></path>
<path d="M 272.98 168.83 C 274.56 167.64 277.00 164.75 278.69 167.41 C 288.04 177.98 294.42 191.20 297.14 205.04 C 298.72 215.18 299.18 226.00 295.35 235.71 C 290.78 234.49 287.04 231.44 283.80 228.12 C 282.31 226.15 279.78 227.62 277.96 228.18 C 267.78 232.08 256.64 231.91 246.04 230.15 C 238.92 235.63 231.14 242.49 221.43 241.53 C 219.91 232.99 217.24 224.65 216.75 215.94 C 219.54 202.99 220.41 189.25 216.41 176.45 C 215.69 174.29 214.51 172.32 213.34 170.39 C 215.94 171.28 218.59 172.02 221.28 172.65 C 220.97 176.37 223.04 179.86 226.26 181.66 C 230.73 184.20 236.05 184.46 241.07 184.71 C 249.89 184.98 258.84 184.56 267.36 182.09 C 271.29 180.75 275.53 178.99 277.66 175.18 C 276.85 172.56 275.24 170.36 272.98 168.83 Z" fill="#73e7ff" opacity="1.00" stroke="#73e7ff" stroke-width="0.25" data-index="40"></path>
<path d="M 251.78 175.61 C 258.46 174.52 264.96 172.70 271.20 170.10 C 272.52 171.61 274.96 172.69 274.98 174.98 C 274.92 176.71 273.14 177.37 271.86 178.06 C 265.65 180.94 258.75 181.77 252.00 182.38 C 244.35 182.60 236.55 182.73 229.10 180.72 C 225.72 179.72 223.30 176.71 222.99 173.21 C 226.73 173.68 230.42 174.52 234.19 174.81 C 235.65 182.47 245.55 183.47 251.34 180.20 C 251.48 178.67 251.63 177.14 251.78 175.61 Z" fill="#57b1d6" opacity="1.00" stroke="#57b1d6" stroke-width="0.25" data-index="41"></path>
<path d="M 214.62 178.74 C 215.87 180.64 216.04 182.97 216.36 185.16 C 217.43 195.20 217.18 205.50 214.48 215.28 C 210.60 210.67 206.77 205.92 201.76 202.44 C 204.01 199.48 206.54 196.76 208.82 193.83 C 212.18 189.47 213.23 183.94 214.62 178.74 Z" fill="#60bfe4" opacity="1.00" stroke="#60bfe4" stroke-width="0.25" data-index="42"></path>
<path d="M 278.47 202.75 C 280.60 202.12 284.10 201.23 285.19 203.87 C 285.90 205.54 286.03 208.08 284.09 208.97 C 278.69 212.12 272.79 214.36 266.95 216.55 C 263.13 216.58 263.15 210.91 264.52 208.36 C 268.92 205.99 273.81 204.58 278.47 202.75 Z" fill="#062112" opacity="1.00" stroke="#062112" stroke-width="0.25" data-index="43"></path>
<path d="M 275.92 205.84 C 278.32 204.77 280.91 204.10 283.56 204.18 C 283.42 205.41 283.30 206.65 283.18 207.89 C 282.83 207.23 282.11 205.91 281.76 205.26 C 279.97 203.84 277.80 205.46 275.92 205.84 Z" fill="#ffffff" opacity="1.00" stroke="#ffffff" stroke-width="0.25" data-index="44"></path>
<path d="M 275.92 205.84 C 277.80 205.46 279.97 203.84 281.76 205.26 C 282.11 205.91 282.83 207.23 283.18 207.89 C 279.70 209.09 276.43 210.81 272.97 212.06 C 270.72 212.85 268.44 213.54 266.14 214.17 C 266.46 212.73 265.77 210.83 266.86 209.66 C 268.80 208.53 270.94 207.83 273.00 206.96 C 273.97 206.57 274.94 206.20 275.92 205.84 Z" fill="#f5bc0e" opacity="1.00" stroke="#f5bc0e" stroke-width="0.25" data-index="45"></path>
<path d="M 330.60 203.23 C 337.99 210.09 345.37 217.04 351.94 224.71 C 350.19 226.20 348.55 227.83 347.02 229.55 C 340.86 223.56 335.20 217.04 328.66 211.44 L 328.41 211.23 C 329.30 208.61 330.12 205.96 330.60 203.23 Z" fill="#72e6ff" opacity="1.00" stroke="#72e6ff" stroke-width="0.25" data-index="46"></path>
<path d="M 154.77 229.46 C 159.99 221.14 165.87 213.22 172.39 205.89 C 173.95 211.62 176.68 216.95 180.30 221.65 C 176.38 227.04 173.32 233.10 168.36 237.66 C 165.12 233.22 160.35 229.93 154.77 229.46 Z" fill="#73e6ff" opacity="1.00" stroke="#73e6ff" stroke-width="0.25" data-index="47"></path>
<path d="M 233.67 206.56 C 238.14 206.40 242.50 207.57 246.91 208.13 C 249.51 208.58 252.23 208.55 254.74 209.46 C 256.45 211.80 256.67 214.93 256.69 217.76 C 248.88 217.61 241.09 216.20 233.49 214.43 C 233.16 211.81 233.16 209.16 233.67 206.56 Z" fill="#062112" opacity="1.00" stroke="#062112" stroke-width="0.25" data-index="48"></path>
<path d="M 265.70 209.79 C 268.09 208.73 270.50 207.72 273.00 206.96 C 270.94 207.83 268.80 208.53 266.86 209.66 C 265.77 210.83 266.46 212.73 266.14 214.17 C 268.44 213.54 270.72 212.85 272.97 212.06 C 270.63 213.01 268.31 214.05 265.83 214.55 C 265.78 212.96 265.74 211.37 265.70 209.79 Z" fill="#ffffff" opacity="1.00" stroke="#ffffff" stroke-width="0.25" data-index="49"></path>
<path d="M 235.01 208.11 C 240.85 208.89 246.64 210.01 252.49 210.72 C 255.00 211.19 254.55 214.30 254.99 216.18 C 254.40 216.19 253.22 216.22 252.63 216.24 L 252.71 215.68 C 252.81 214.94 253.01 213.47 253.12 212.74 C 248.06 210.58 242.30 210.06 236.89 209.87 L 235.98 211.04 C 239.01 213.39 243.22 213.03 246.65 214.59 C 242.85 214.68 239.11 213.86 235.36 213.39 C 235.10 211.64 235.00 209.88 235.01 208.11 Z" fill="#bda73e" opacity="1.00" stroke="#bda73e" stroke-width="0.25" data-index="50"></path>
<path d="M 236.89 209.87 C 242.30 210.06 248.06 210.58 253.12 212.74 C 253.01 213.47 252.81 214.94 252.71 215.68 C 250.66 215.51 248.60 215.28 246.65 214.59 C 243.22 213.03 239.01 213.39 235.98 211.04 L 236.89 209.87 Z" fill="#fecf0d" opacity="1.00" stroke="#fecf0d" stroke-width="0.25" data-index="51"></path>
<path d="M 310.18 226.14 C 318.60 225.19 325.39 219.02 328.66 211.44 C 335.20 217.04 340.86 223.56 347.02 229.55 C 343.16 234.97 339.77 240.79 337.31 246.98 C 334.03 246.31 331.73 243.67 329.11 241.79 C 322.84 236.53 316.10 231.81 310.18 226.14 Z" fill="#5fbfe5" opacity="1.00" stroke="#5fbfe5" stroke-width="0.25" data-index="52"></path>
<path d="M 211.86 222.53 C 214.80 221.62 215.78 218.53 216.75 215.94 C 217.24 224.65 219.91 232.99 221.43 241.53 C 214.85 239.71 208.50 236.26 204.16 230.90 C 204.35 229.41 206.19 229.03 207.09 228.04 C 209.17 226.61 209.24 223.30 211.86 222.53 Z" fill="#5dbde3" opacity="1.00" stroke="#5dbde3" stroke-width="0.25" data-index="53"></path>
<path d="M 180.30 221.65 C 184.19 226.22 189.07 230.26 195.02 231.70 C 188.44 238.87 181.83 246.16 174.15 252.17 C 173.72 246.87 171.95 241.66 168.36 237.66 C 173.32 233.10 176.38 227.04 180.30 221.65 Z" fill="#5ebfe5" opacity="1.00" stroke="#5ebfe5" stroke-width="0.25" data-index="54"></path>
<path d="M 363.36 227.85 C 373.62 233.44 381.20 242.86 387.36 252.59 C 390.44 257.45 393.18 262.56 394.95 268.06 C 391.51 275.41 385.48 281.79 377.86 284.79 C 372.47 273.28 366.71 261.93 360.73 250.71 C 361.86 248.63 363.97 247.08 364.77 244.74 C 367.47 239.37 366.63 232.76 363.36 227.85 Z" fill="#74e6ff" opacity="1.00" stroke="#74e6ff" stroke-width="0.25" data-index="55"></path>
<path d="M 276.89 230.70 C 278.54 230.20 280.11 229.33 281.86 229.20 C 284.40 231.58 286.95 233.97 289.94 235.78 C 287.55 238.89 284.09 240.81 280.89 242.94 C 278.41 241.17 275.96 239.02 272.88 238.46 C 270.58 238.27 268.33 238.95 266.07 239.28 C 261.13 240.20 256.04 239.60 251.10 240.48 C 248.70 240.91 247.35 243.20 245.71 244.77 C 246.33 245.05 247.55 245.61 248.16 245.89 C 243.47 245.46 239.16 243.47 234.73 242.04 C 234.61 241.72 234.36 241.08 234.23 240.76 C 238.51 238.77 242.25 235.87 245.73 232.72 C 246.59 231.84 247.94 232.44 249.00 232.47 C 258.24 234.14 267.97 233.79 276.89 230.70 Z" fill="#5dbce2" opacity="1.00" stroke="#5dbce2" stroke-width="0.25" data-index="56"></path>
<path d="M 135.02 244.06 C 137.28 241.46 139.61 238.29 143.35 237.99 C 141.84 247.93 148.91 257.81 158.66 259.89 C 160.07 260.33 161.48 260.77 162.89 261.22 C 162.14 272.10 158.89 282.70 154.92 292.80 C 151.43 288.56 146.85 284.60 141.12 284.24 C 133.04 283.72 124.58 285.34 117.73 289.80 C 117.60 284.12 118.23 278.40 120.05 273.00 C 123.49 262.66 128.22 252.62 135.02 244.06 Z" fill="#74e6fe" opacity="1.00" stroke="#74e6fe" stroke-width="0.25" data-index="57"></path>
<path d="M 266.07 239.28 C 268.33 238.95 270.58 238.27 272.88 238.46 C 275.96 239.02 278.41 241.17 280.89 242.94 C 270.75 247.64 258.98 248.52 248.16 245.89 C 247.55 245.61 246.33 245.05 245.71 244.77 C 247.35 243.20 248.70 240.91 251.10 240.48 C 256.04 239.60 261.13 240.20 266.07 239.28 Z" fill="#72e6ff" opacity="1.00" stroke="#72e6ff" stroke-width="0.25" data-index="58"></path>
<path d="M 289.78 252.76 C 290.92 250.85 293.23 250.83 295.17 250.43 C 297.36 253.59 297.70 257.45 297.41 261.18 C 296.46 262.45 295.50 263.72 294.44 264.90 C 291.60 268.31 287.54 271.28 286.91 275.99 C 285.93 281.13 284.00 286.02 282.18 290.91 C 281.70 292.30 280.56 293.28 279.64 294.38 C 281.63 288.06 283.93 281.83 285.38 275.36 C 285.92 272.28 287.94 269.86 289.84 267.51 C 291.85 265.34 294.07 263.25 295.35 260.54 C 296.56 257.51 295.17 254.33 294.00 251.53 C 291.87 252.18 290.47 253.86 289.26 255.63 C 287.03 258.61 283.98 260.82 281.54 263.60 C 278.99 267.83 280.92 275.40 275.17 277.22 C 267.04 279.68 258.25 279.91 249.94 278.23 C 248.49 277.94 247.62 276.57 246.53 275.71 C 246.44 273.13 246.30 270.55 246.17 267.98 C 245.38 267.24 244.60 266.51 243.81 265.78 C 244.52 265.86 245.92 266.03 246.63 266.11 C 246.96 267.37 247.30 268.63 247.65 269.89 C 247.73 269.56 247.89 268.91 247.98 268.58 C 248.22 271.20 248.80 273.78 249.54 276.31 C 258.45 277.82 267.85 277.69 276.41 274.55 C 276.59 273.99 276.95 272.86 277.13 272.30 C 278.46 269.12 278.70 265.49 280.56 262.57 C 283.56 259.23 287.06 256.36 289.78 252.76 Z" fill="#17242c" opacity="1.00" stroke="#17242c" stroke-width="0.25" data-index="59"></path>
<path d="M 339.31 254.19 C 346.53 257.26 354.44 254.74 360.73 250.71 C 366.71 261.93 372.47 273.28 377.86 284.79 L 378.00 285.10 C 372.51 287.00 366.75 288.97 360.86 288.38 C 357.41 286.61 355.02 283.35 352.68 280.35 C 347.10 272.28 342.39 263.53 339.31 254.19 Z" fill="#5fbfe5" opacity="1.00" stroke="#5fbfe5" stroke-width="0.25" data-index="60"></path>
<path d="M 289.26 255.63 C 290.47 253.86 291.87 252.18 294.00 251.53 C 295.17 254.33 296.56 257.51 295.35 260.54 C 294.07 263.25 291.85 265.34 289.84 267.51 C 291.07 263.54 295.46 260.48 294.37 255.99 C 294.19 252.84 290.87 255.08 289.26 255.63 Z" fill="#ae5f47" opacity="1.00" stroke="#ae5f47" stroke-width="0.25" data-index="61"></path>
<path d="M 213.51 254.23 C 213.84 254.22 214.50 254.20 214.83 254.19 C 216.58 254.14 218.33 254.14 220.08 254.14 C 218.57 254.61 217.06 255.06 215.55 255.55 C 214.80 257.59 215.00 259.76 215.22 261.89 C 218.05 262.26 220.89 262.55 223.74 262.80 C 223.35 262.92 222.58 263.15 222.19 263.27 C 221.11 263.59 220.02 263.89 218.92 264.16 L 218.26 264.23 C 218.30 265.45 218.34 266.67 218.39 267.89 L 217.48 267.56 C 216.94 266.38 216.47 265.19 215.95 264.02 C 215.38 263.97 214.26 263.87 213.69 263.83 L 213.36 263.80 C 213.06 260.61 213.04 257.40 213.51 254.23 Z" fill="#1f2334" opacity="1.00" stroke="#1f2334" stroke-width="0.25" data-index="62"></path>
<path d="M 289.26 255.63 C 290.87 255.08 294.19 252.84 294.37 255.99 C 295.46 260.48 291.07 263.54 289.84 267.51 C 287.94 269.86 285.92 272.28 285.38 275.36 C 283.93 281.83 281.63 288.06 279.64 294.38 C 278.88 296.02 278.18 297.70 277.57 299.41 C 275.97 303.80 273.91 308.00 272.15 312.32 C 272.40 310.83 272.60 309.34 272.81 307.85 C 268.42 308.05 263.93 308.43 259.63 307.31 C 256.50 306.41 253.68 304.75 250.81 303.27 C 250.83 307.74 250.95 312.21 250.95 316.68 L 250.95 317.69 L 250.68 317.69 C 250.66 317.38 250.61 316.75 250.59 316.43 C 249.79 311.29 251.08 306.09 250.14 300.97 C 248.04 290.39 243.32 280.10 235.44 272.58 C 232.36 269.72 228.80 267.44 225.25 265.21 C 226.18 262.83 226.77 259.59 229.93 259.45 C 232.42 260.72 234.68 262.40 236.92 264.07 C 236.27 263.38 235.63 262.70 234.98 262.02 C 237.78 263.58 240.61 265.22 243.81 265.78 C 244.60 266.51 245.38 267.24 246.17 267.98 C 246.30 270.55 246.44 273.13 246.53 275.71 C 247.62 276.57 248.49 277.94 249.94 278.23 C 258.25 279.91 267.04 279.68 275.17 277.22 C 280.92 275.40 278.99 267.83 281.54 263.60 C 283.98 260.82 287.03 258.61 289.26 255.63 Z" fill="#f95e28" opacity="1.00" stroke="#f95e28" stroke-width="0.25" data-index="63"></path>
<path d="M 215.22 261.89 C 215.00 259.76 214.80 257.59 215.55 255.55 C 220.72 254.91 225.52 257.01 229.93 259.45 C 226.77 259.59 226.18 262.83 225.25 265.21 C 224.23 264.56 223.20 263.91 222.19 263.27 C 222.58 263.15 223.35 262.92 223.74 262.80 C 220.89 262.55 218.05 262.26 215.22 261.89 Z" fill="#bf4624" opacity="1.00" stroke="#bf4624" stroke-width="0.25" data-index="64"></path>
<path d="M 158.66 259.89 C 162.77 259.73 167.76 260.84 170.82 257.35 C 170.76 259.55 170.69 261.78 170.13 263.93 C 167.34 275.58 164.03 287.23 158.46 297.90 C 157.30 296.19 156.12 294.49 154.92 292.80 C 158.89 282.70 162.14 272.10 162.89 261.22 C 161.48 260.77 160.07 260.33 158.66 259.89 Z" fill="#5dbde2" opacity="1.00" stroke="#5dbde2" stroke-width="0.25" data-index="65"></path>
<path d="M 218.92 264.16 C 220.02 263.89 221.11 263.59 222.19 263.27 C 223.20 263.91 224.23 264.56 225.25 265.21 C 228.80 267.44 232.36 269.72 235.44 272.58 C 243.32 280.10 248.04 290.39 250.14 300.97 C 251.08 306.09 249.79 311.29 250.59 316.43 L 249.00 316.41 C 248.75 309.23 249.38 301.74 246.53 294.96 C 245.58 291.95 244.42 289.00 242.96 286.21 C 238.65 275.76 228.98 268.59 218.92 264.16 Z" fill="#0e0c1c" opacity="1.00" stroke="#0e0c1c" stroke-width="0.25" data-index="66"></path>
<path d="M 213.69 263.83 C 214.26 263.87 215.38 263.97 215.95 264.02 C 216.47 265.19 216.94 266.38 217.48 267.56 L 218.39 267.89 C 227.46 269.86 233.85 277.35 237.67 285.40 C 239.60 290.01 240.09 295.02 239.62 299.97 C 237.84 301.36 235.96 302.82 235.27 305.08 C 235.13 305.53 234.83 306.42 234.69 306.87 C 231.40 313.96 227.33 320.65 223.36 327.37 C 221.87 329.90 219.99 332.32 219.54 335.31 C 216.60 339.33 212.05 341.61 208.66 345.17 C 208.53 345.28 208.29 345.49 208.17 345.60 L 206.32 346.34 C 206.52 345.76 206.93 344.60 207.13 344.02 C 208.61 339.76 210.32 335.44 210.41 330.88 C 207.78 324.47 200.10 321.85 193.63 322.58 C 191.22 328.00 189.69 333.75 188.36 339.52 C 188.22 340.01 187.95 341.00 187.81 341.49 C 186.88 336.46 185.05 331.67 183.50 326.82 C 185.24 321.04 186.33 315.06 188.57 309.43 C 191.97 300.81 196.51 292.57 202.56 285.53 C 204.53 283.59 203.89 280.55 204.68 278.12 C 206.55 273.11 210.83 268.77 216.32 268.10 C 216.31 267.29 216.28 265.66 216.26 264.85 C 215.62 264.60 214.34 264.08 213.69 263.83 Z" fill="#032b49" opacity="1.00" stroke="#032b49" stroke-width="0.25" data-index="67"></path>
<path d="M 218.26 264.23 L 218.92 264.16 C 228.98 268.59 238.65 275.76 242.96 286.21 C 240.49 284.64 238.84 282.23 237.32 279.80 C 237.39 281.67 237.45 283.54 237.67 285.40 C 233.85 277.35 227.46 269.86 218.39 267.89 C 218.34 266.67 218.30 265.45 218.26 264.23 Z" fill="#964c41" opacity="1.00" stroke="#964c41" stroke-width="0.25" data-index="68"></path>
<path d="M 286.91 275.99 C 287.54 271.28 291.60 268.31 294.44 264.90 C 294.32 265.45 294.08 266.56 293.96 267.11 C 300.22 268.17 305.66 272.98 306.70 279.37 C 310.03 281.33 312.10 284.67 314.26 287.75 C 321.26 298.57 326.15 310.76 328.76 323.38 C 329.13 325.10 329.46 326.96 331.09 327.97 C 330.23 330.65 329.51 333.40 329.44 336.24 C 329.11 333.66 328.66 331.10 328.25 328.54 C 323.11 326.71 316.32 327.77 313.40 332.80 C 310.59 337.09 312.14 342.31 312.55 347.04 C 313.06 350.92 313.49 355.60 317.03 358.01 C 320.27 359.02 323.57 357.34 326.17 355.50 C 326.75 354.65 327.31 353.79 327.84 352.90 C 327.20 355.24 326.37 357.52 325.25 359.67 L 325.65 358.50 C 322.42 359.43 318.83 361.18 315.58 359.32 C 310.90 356.76 312.88 349.58 308.48 347.06 C 308.46 349.79 308.56 352.52 308.79 355.24 C 308.42 353.79 307.96 352.37 307.52 350.96 C 307.35 351.33 307.00 352.05 306.82 352.42 C 306.43 350.85 306.58 348.94 305.46 347.69 C 302.99 346.40 300.13 345.84 297.98 343.99 C 294.90 341.45 293.78 337.36 290.86 334.68 C 290.60 334.39 290.07 333.83 289.80 333.54 C 290.24 333.42 291.11 333.17 291.55 333.05 C 286.22 324.04 281.64 314.55 277.91 304.78 C 277.78 302.99 277.64 301.20 277.57 299.41 C 278.18 297.70 278.88 296.02 279.64 294.38 C 280.56 293.28 281.70 292.30 282.18 290.91 C 284.00 286.02 285.93 281.13 286.91 275.99 Z" fill="#032a49" opacity="1.00" stroke="#032a49" stroke-width="0.25" data-index="69"></path>
<path d="M 262.02 269.46 C 267.80 269.36 273.32 267.39 278.60 265.21 C 278.14 267.58 277.68 269.95 277.13 272.30 C 276.95 272.86 276.59 273.99 276.41 274.55 C 267.85 277.69 258.45 277.82 249.54 276.31 C 248.80 273.78 248.22 271.20 247.98 268.58 L 248.18 267.65 C 252.74 268.61 257.33 269.68 262.02 269.46 Z" fill="#71e4fc" opacity="1.00" stroke="#71e4fc" stroke-width="0.25" data-index="70"></path>
<path d="M 237.32 279.80 C 238.84 282.23 240.49 284.64 242.96 286.21 C 244.42 289.00 245.58 291.95 246.53 294.96 C 246.58 301.41 248.43 307.73 247.64 314.23 C 243.88 312.21 241.41 308.35 237.27 307.00 C 236.59 306.36 235.93 305.72 235.27 305.08 C 235.96 302.82 237.84 301.36 239.62 299.97 C 240.09 295.02 239.60 290.01 237.67 285.40 C 237.45 283.54 237.39 281.67 237.32 279.80 Z" fill="#c54524" opacity="1.00" stroke="#c54524" stroke-width="0.25" data-index="71"></path>
<path d="M 307.45 282.20 C 316.77 293.09 322.50 306.75 325.88 320.58 C 322.93 320.37 319.91 320.05 317.02 320.83 C 312.09 322.01 308.24 325.51 303.75 327.67 C 298.92 318.71 296.08 308.89 291.87 299.66 C 296.89 298.05 301.87 295.23 304.60 290.55 C 306.25 288.05 306.81 285.07 307.45 282.20 Z" fill="#73e7ff" opacity="1.00" stroke="#73e7ff" stroke-width="0.25" data-index="72"></path>
<path d="M 189.08 314.68 C 192.06 304.34 197.44 294.68 204.41 286.51 C 210.61 293.14 219.91 295.01 227.41 299.67 C 224.77 307.83 220.55 315.36 215.47 322.24 C 208.84 315.25 198.45 311.81 189.08 314.68 Z" fill="#73e6ff" opacity="1.00" stroke="#73e6ff" stroke-width="0.25" data-index="73"></path>
<path d="M 246.53 294.96 C 249.38 301.74 248.75 309.23 249.00 316.41 C 244.00 315.18 240.75 310.51 237.27 307.00 C 241.41 308.35 243.88 312.21 247.64 314.23 C 248.43 307.73 246.58 301.41 246.53 294.96 Z" fill="#8a4b43" opacity="1.00" stroke="#8a4b43" stroke-width="0.25" data-index="74"></path>
<path d="M 227.41 299.67 C 229.69 300.72 231.96 301.79 234.24 302.85 C 230.35 311.85 225.24 320.28 220.12 328.62 C 218.77 326.35 217.20 324.23 215.47 322.24 C 220.55 315.36 224.77 307.83 227.41 299.67 Z" fill="#5bbce1" opacity="1.00" stroke="#5bbce1" stroke-width="0.25" data-index="75"></path>
<path d="M 272.15 312.32 C 273.91 308.00 275.97 303.80 277.57 299.41 C 277.64 301.20 277.78 302.99 277.91 304.78 C 276.15 309.16 274.38 313.62 271.46 317.39 C 264.74 319.01 257.82 319.96 250.90 319.81 C 248.34 319.81 246.47 317.86 244.59 316.41 C 241.15 313.39 237.47 310.55 234.69 306.87 C 234.83 306.42 235.13 305.53 235.27 305.08 C 235.93 305.72 236.59 306.36 237.27 307.00 C 240.75 310.51 244.00 315.18 249.00 316.41 L 250.59 316.43 C 250.61 316.75 250.66 317.38 250.68 317.69 L 250.95 317.69 C 254.76 317.78 258.57 317.56 262.32 316.94 C 265.33 316.59 268.30 315.96 271.25 315.26 C 271.55 314.28 271.85 313.30 272.15 312.32 Z" fill="#111f2d" opacity="1.00" stroke="#111f2d" stroke-width="0.25" data-index="76"></path>
<path d="M 279.20 300.60 C 283.45 300.84 287.73 300.73 291.87 299.66 C 296.08 308.89 298.92 318.71 303.75 327.67 C 299.73 328.75 295.49 329.17 291.36 328.56 C 287.49 322.22 284.67 315.28 281.59 308.54 C 280.38 306.03 279.57 303.36 279.20 300.60 Z" fill="#5fbfe4" opacity="1.00" stroke="#5fbfe4" stroke-width="0.25" data-index="77"></path>
<path d="M 250.81 303.27 C 253.68 304.75 256.50 306.41 259.63 307.31 C 263.93 308.43 268.42 308.05 272.81 307.85 C 272.60 309.34 272.40 310.83 272.15 312.32 C 271.85 313.30 271.55 314.28 271.25 315.26 C 268.30 315.96 265.33 316.59 262.32 316.94 C 258.54 316.64 254.74 316.52 250.95 316.68 C 250.95 312.21 250.83 307.74 250.81 303.27 Z" fill="#c34525" opacity="1.00" stroke="#c34525" stroke-width="0.25" data-index="78"></path>

<path d="M 250.95 316.68 C 254.74 316.52 258.54 316.64 262.32 316.94 C 258.57 317.56 254.76 317.78 250.95 317.69 L 250.95 316.68 Z" fill="#b9432e" opacity="1.00" stroke="#b9432e" stroke-width="0.25" data-index="80"></path>
<path d="M 193.63 322.58 C 200.10 321.85 207.78 324.47 210.41 330.88 C 210.32 335.44 208.61 339.76 207.13 344.02 C 203.80 346.88 200.44 352.13 195.37 350.53 C 190.59 349.06 189.86 343.55 188.36 339.52 C 189.69 333.75 191.22 328.00 193.63 322.58 Z" fill="#73e6fe" opacity="1.00" stroke="#73e6fe" stroke-width="0.25" data-index="81"></path>
<path d="M 176.92 331.77 C 178.23 329.21 180.47 326.99 183.50 326.82 C 185.05 331.67 186.88 336.46 187.81 341.49 C 187.54 342.54 187.26 343.59 186.99 344.64 C 185.52 348.68 184.60 353.03 185.92 357.25 C 186.64 361.79 191.75 364.23 195.96 363.62 C 199.12 362.00 200.32 358.33 202.20 355.54 C 203.44 353.48 204.36 351.26 205.22 349.02 C 205.59 348.12 205.94 347.23 206.32 346.34 L 208.17 345.60 C 205.89 352.02 203.45 358.68 198.78 363.77 C 194.77 367.73 188.84 364.39 185.27 361.47 C 182.26 354.49 184.61 347.04 185.73 339.95 C 186.52 336.88 183.14 334.87 183.42 331.81 C 183.35 330.99 183.21 329.34 183.14 328.52 C 179.30 330.29 177.64 334.33 175.74 337.81 C 174.22 340.60 173.01 343.54 172.06 346.57 L 172.01 346.68 C 168.68 352.62 166.68 359.17 164.67 365.63 C 161.94 375.56 159.29 385.62 158.68 395.94 C 161.21 392.77 163.46 389.38 165.59 385.93 C 168.02 383.56 169.59 379.56 172.97 378.65 C 182.47 379.93 191.67 383.56 199.81 388.60 C 200.83 395.27 203.07 401.67 205.29 408.02 C 206.81 402.54 208.78 397.17 209.81 391.56 C 209.91 391.30 210.10 390.78 210.19 390.51 C 215.00 378.70 218.40 366.36 221.29 353.96 C 221.61 348.42 221.92 342.45 219.42 337.33 C 219.03 337.78 218.23 338.67 217.84 339.12 C 216.90 340.19 216.02 341.32 215.09 342.40 C 212.97 343.38 210.80 344.23 208.66 345.17 C 212.05 341.61 216.60 339.33 219.54 335.31 C 222.39 336.74 222.95 339.86 223.12 342.73 C 223.19 351.24 223.32 359.76 223.11 368.28 C 222.23 382.25 219.58 396.04 216.13 409.59 C 215.91 410.40 215.69 411.20 215.48 412.02 C 213.13 413.18 210.85 414.55 208.31 415.29 C 206.75 415.45 205.32 414.50 203.86 414.09 C 204.72 410.88 203.16 407.85 202.13 404.90 C 200.28 400.03 199.63 394.80 197.73 389.95 C 194.75 387.39 190.97 386.11 187.41 384.62 C 182.72 382.83 177.93 381.01 172.89 380.53 C 170.82 381.85 169.76 384.19 168.36 386.12 C 164.93 390.18 162.02 394.63 159.23 399.13 C 158.56 396.79 157.57 394.48 157.58 392.02 C 159.05 379.67 162.55 367.69 166.10 355.81 C 168.76 347.41 172.55 339.41 176.92 331.77 Z" fill="#19202e" opacity="1.00" stroke="#19202e" stroke-width="0.25" data-index="82"></path>
<path d="M 313.40 332.80 C 316.32 327.77 323.11 326.71 328.25 328.54 C 328.66 331.10 329.11 333.66 329.44 336.24 C 329.90 341.83 329.54 347.53 327.84 352.90 C 327.31 353.79 326.75 354.65 326.17 355.50 C 323.52 354.04 320.09 353.28 318.51 350.45 C 315.12 345.13 315.66 338.53 313.40 332.80 Z" fill="#75e6ff" opacity="1.00" stroke="#75e6ff" stroke-width="0.25" data-index="83"></path>
<path d="M 331.09 327.97 C 333.89 329.33 334.57 332.77 335.21 335.52 C 336.10 340.83 337.52 346.11 337.55 351.52 C 337.14 354.45 336.58 357.36 336.35 360.32 C 336.24 357.98 335.93 355.67 335.65 353.36 C 335.64 353.18 335.62 352.82 335.62 352.64 C 335.53 346.76 334.26 341.00 333.08 335.28 C 332.77 333.70 332.47 332.11 332.17 330.54 C 331.59 331.09 331.01 331.64 330.44 332.20 C 331.11 336.79 331.53 341.43 331.12 346.07 C 330.46 351.72 327.91 356.86 326.20 362.23 C 323.57 366.24 318.89 369.21 313.96 368.14 C 309.88 367.44 308.38 363.05 307.42 359.58 C 307.24 357.19 306.99 354.80 306.82 352.42 C 307.00 352.05 307.35 351.33 307.52 350.96 C 307.96 352.37 308.42 353.79 308.79 355.24 C 309.61 358.90 309.65 363.59 313.06 365.92 C 318.06 368.02 323.38 364.29 325.25 359.67 C 326.37 357.52 327.20 355.24 327.84 352.90 C 329.54 347.53 329.90 341.83 329.44 336.24 C 329.51 333.40 330.23 330.65 331.09 327.97 Z" fill="#0e0c1c" opacity="1.00" stroke="#0e0c1c" stroke-width="0.25" data-index="84"></path>
<path d="M 175.74 337.81 C 177.64 334.33 179.30 330.29 183.14 328.52 C 183.21 329.34 183.35 330.99 183.42 331.81 C 182.63 331.95 181.06 332.24 180.28 332.39 C 177.04 336.84 175.87 342.54 172.06 346.57 C 173.01 343.54 174.22 340.60 175.74 337.81 Z" fill="#b3624c" opacity="1.00" stroke="#b3624c" stroke-width="0.25" data-index="85"></path>
<path d="M 330.44 332.20 C 331.01 331.64 331.59 331.09 332.17 330.54 C 332.47 332.11 332.77 333.70 333.08 335.28 C 331.40 338.63 331.65 342.45 331.12 346.07 C 331.53 341.43 331.11 336.79 330.44 332.20 Z" fill="#8f5f57" opacity="1.00" stroke="#8f5f57" stroke-width="0.25" data-index="86"></path>
<path d="M 180.28 332.39 C 181.06 332.24 182.63 331.95 183.42 331.81 C 183.14 334.87 186.52 336.88 185.73 339.95 C 184.61 347.04 182.26 354.49 185.27 361.47 C 186.21 365.82 191.26 366.65 195.02 366.66 C 198.75 366.99 200.99 363.48 202.84 360.81 C 205.69 356.67 206.80 351.65 209.32 347.36 C 211.19 345.64 213.61 344.54 215.09 342.40 C 216.02 341.32 216.90 340.19 217.84 339.12 C 218.24 339.63 219.05 340.64 219.46 341.14 C 220.01 346.41 220.74 351.88 219.29 357.07 C 218.00 361.83 216.85 366.63 215.45 371.36 C 213.58 377.71 210.55 383.80 210.19 390.51 C 210.10 390.78 209.91 391.30 209.81 391.56 C 207.32 394.83 207.01 399.07 205.04 402.61 C 202.75 398.13 203.13 392.54 199.81 388.60 C 191.67 383.56 182.47 379.93 172.97 378.65 C 169.59 379.56 168.02 383.56 165.59 385.93 C 163.69 387.40 161.96 389.06 160.32 390.81 C 160.56 386.10 162.33 381.65 162.86 376.97 C 164.53 366.47 169.86 357.02 172.01 346.68 L 172.06 346.57 C 175.87 342.54 177.04 336.84 180.28 332.39 Z" fill="#f95d29" opacity="1.00" stroke="#f95d29" stroke-width="0.25" data-index="87"></path>
<path d="M 278.12 357.36 C 280.90 348.94 284.58 340.75 289.80 333.54 C 290.07 333.83 290.60 334.39 290.86 334.68 C 288.66 339.57 290.10 344.91 290.25 350.03 C 290.59 360.00 290.71 369.98 290.36 379.95 C 290.11 387.10 288.54 394.12 288.04 401.25 L 287.92 400.25 C 287.38 401.24 286.83 402.23 286.29 403.23 C 285.26 402.49 284.22 401.74 283.17 401.04 C 283.71 401.17 284.79 401.43 285.33 401.56 C 287.91 388.89 288.20 375.89 288.28 363.00 C 288.29 355.65 288.18 348.29 287.41 340.97 C 278.42 356.85 274.27 375.06 272.59 393.09 C 274.62 396.54 279.51 397.55 282.33 400.54 C 278.43 399.25 274.41 397.53 271.67 394.35 C 271.00 392.61 271.01 390.70 270.91 388.87 C 272.29 378.18 274.30 367.48 278.12 357.36 Z" fill="#1f2334" opacity="1.00" stroke="#1f2334" stroke-width="0.25" data-index="88"></path>
<path d="M 312.55 347.04 C 312.14 342.31 310.59 337.09 313.40 332.80 C 315.66 338.53 315.12 345.13 318.51 350.45 C 320.09 353.28 323.52 354.04 326.17 355.50 C 323.57 357.34 320.27 359.02 317.03 358.01 C 313.49 355.60 313.06 350.92 312.55 347.04 Z" fill="#5fbde0" opacity="1.00" stroke="#5fbde0" stroke-width="0.25" data-index="89"></path>
<path d="M 290.86 334.68 C 293.78 337.36 294.90 341.45 297.98 343.99 C 300.13 345.84 302.99 346.40 305.46 347.69 C 306.58 348.94 306.43 350.85 306.82 352.42 C 306.99 354.80 307.24 357.19 307.42 359.58 C 305.30 368.98 303.98 378.55 301.94 387.97 C 301.47 389.91 301.55 391.91 301.71 393.89 C 299.68 396.20 297.50 398.38 295.30 400.53 C 293.05 401.59 290.67 402.40 288.19 402.65 L 288.04 401.25 C 288.54 394.12 290.11 387.10 290.36 379.95 C 290.71 369.98 290.59 360.00 290.25 350.03 C 290.10 344.91 288.66 339.57 290.86 334.68 Z" fill="#c84625" opacity="1.00" stroke="#c84625" stroke-width="0.25" data-index="90"></path>
<path d="M 331.12 346.07 C 331.65 342.45 331.40 338.63 333.08 335.28 C 334.26 341.00 335.53 346.76 335.62 352.64 C 334.32 350.57 333.67 348.22 333.13 345.87 C 331.07 351.36 330.88 358.13 326.20 362.23 C 327.91 356.86 330.46 351.72 331.12 346.07 Z" fill="#d36d4d" opacity="1.00" stroke="#d36d4d" stroke-width="0.25" data-index="91"></path>
<path d="M 217.84 339.12 C 218.23 338.67 219.03 337.78 219.42 337.33 C 221.92 342.45 221.61 348.42 221.29 353.96 C 218.40 366.36 215.00 378.70 210.19 390.51 C 210.55 383.80 213.58 377.71 215.45 371.36 C 216.85 366.63 218.00 361.83 219.29 357.07 C 220.74 351.88 220.01 346.41 219.46 341.14 C 219.05 340.64 218.24 339.63 217.84 339.12 Z" fill="#ba6145" opacity="1.00" stroke="#ba6145" stroke-width="0.25" data-index="92"></path>
<path d="M 187.81 341.49 C 187.95 341.00 188.22 340.01 188.36 339.52 C 189.86 343.55 190.59 349.06 195.37 350.53 C 200.44 352.13 203.80 346.88 207.13 344.02 C 206.93 344.60 206.52 345.76 206.32 346.34 C 205.94 347.23 205.59 348.12 205.22 349.02 C 202.88 352.60 199.19 356.95 194.37 355.56 C 189.47 354.45 186.59 349.48 186.99 344.64 C 187.26 343.59 187.54 342.54 187.81 341.49 Z" fill="#5cb7dc" opacity="1.00" stroke="#5cb7dc" stroke-width="0.25" data-index="93"></path>
<path d="M 287.41 340.97 C 288.18 348.29 288.29 355.65 288.28 363.00 C 288.20 375.89 287.91 388.89 285.33 401.56 C 284.79 401.43 283.71 401.17 283.17 401.04 C 282.96 400.91 282.54 400.67 282.33 400.54 C 279.51 397.55 274.62 396.54 272.59 393.09 C 274.27 375.06 278.42 356.85 287.41 340.97 Z" fill="#934b3e" opacity="1.00" stroke="#934b3e" stroke-width="0.25" data-index="94"></path>
<path d="M 208.66 345.17 C 210.80 344.23 212.97 343.38 215.09 342.40 C 213.61 344.54 211.19 345.64 209.32 347.36 C 206.80 351.65 205.69 356.67 202.84 360.81 C 200.99 363.48 198.75 366.99 195.02 366.66 C 191.26 366.65 186.21 365.82 185.27 361.47 C 188.84 364.39 194.77 367.73 198.78 363.77 C 203.45 358.68 205.89 352.02 208.17 345.60 C 208.29 345.49 208.53 345.28 208.66 345.17 Z" fill="#b65f4a" opacity="1.00" stroke="#b65f4a" stroke-width="0.25" data-index="95"></path>
<path d="M 223.12 342.73 C 223.78 351.20 224.39 359.83 223.11 368.28 C 223.32 359.76 223.19 351.24 223.12 342.73 Z" fill="#a8b9c6" opacity="1.00" stroke="#a8b9c6" stroke-width="0.25" data-index="96"></path>
<path d="M 185.92 357.25 C 184.60 353.03 185.52 348.68 186.99 344.64 C 186.59 349.48 189.47 354.45 194.37 355.56 C 199.19 356.95 202.88 352.60 205.22 349.02 C 204.36 351.26 203.44 353.48 202.20 355.54 C 199.82 356.80 197.15 358.58 194.34 357.55 C 190.69 356.69 187.94 353.98 185.67 351.16 C 185.75 353.18 185.80 355.22 185.92 357.25 Z" fill="#002e50" opacity="1.00" stroke="#002e50" stroke-width="0.25" data-index="97"></path>
<path d="M 283.66 351.67 C 284.44 349.58 285.59 347.67 286.97 345.92 C 287.49 357.62 287.72 369.37 286.95 381.06 C 285.76 387.12 285.31 393.26 285.06 399.43 C 281.26 397.77 277.30 395.65 274.38 392.79 C 273.99 385.35 276.06 378.10 277.37 370.85 C 278.96 364.31 281.17 357.92 283.66 351.67 Z" fill="#c74623" opacity="1.00" stroke="#c74623" stroke-width="0.25" data-index="98"></path>
<path d="M 326.20 362.23 C 330.88 358.13 331.07 351.36 333.13 345.87 C 333.67 348.22 334.32 350.57 335.62 352.64 C 335.62 352.82 335.64 353.18 335.65 353.36 C 334.89 362.38 335.70 371.45 335.05 380.49 C 333.92 380.10 332.78 379.72 331.65 379.38 C 325.59 379.01 319.94 381.48 314.37 383.45 C 311.66 384.50 308.67 385.39 306.71 387.67 C 304.94 389.66 303.44 391.87 301.71 393.89 C 301.55 391.91 301.47 389.91 301.94 387.97 C 303.98 378.55 305.30 368.98 307.42 359.58 C 308.38 363.05 309.88 367.44 313.96 368.14 C 318.89 369.21 323.57 366.24 326.20 362.23 Z" fill="#f85e28" opacity="1.00" stroke="#f85e28" stroke-width="0.25" data-index="99"></path>
<path d="M 164.67 365.63 C 166.68 359.17 168.68 352.62 172.01 346.68 C 169.86 357.02 164.53 366.47 162.86 376.97 C 162.33 381.65 160.56 386.10 160.32 390.81 C 161.96 389.06 163.69 387.40 165.59 385.93 C 163.46 389.38 161.21 392.77 158.68 395.94 C 159.29 385.62 161.94 375.56 164.67 365.63 Z" fill="#ac5c45" opacity="1.00" stroke="#ac5c45" stroke-width="0.25" data-index="100"></path>
<path d="M 308.48 347.06 C 312.88 349.58 310.90 356.76 315.58 359.32 C 318.83 361.18 322.42 359.43 325.65 358.50 L 325.25 359.67 C 323.38 364.29 318.06 368.02 313.06 365.92 C 309.65 363.59 309.61 358.90 308.79 355.24 C 308.56 352.52 308.46 349.79 308.48 347.06 Z" fill="#59bae1" opacity="1.00" stroke="#59bae1" stroke-width="0.25" data-index="101"></path>
<path d="M 185.67 351.16 C 187.94 353.98 190.69 356.69 194.34 357.55 C 197.15 358.58 199.82 356.80 202.20 355.54 C 200.32 358.33 199.12 362.00 195.96 363.62 C 191.75 364.23 186.64 361.79 185.92 357.25 C 185.80 355.22 185.75 353.18 185.67 351.16 Z" fill="#5eb7e0" opacity="1.00" stroke="#5eb7e0" stroke-width="0.25" data-index="102"></path>
<path d="M 337.55 351.52 C 339.23 365.18 338.81 379.19 336.72 392.80 C 332.25 393.22 327.72 393.40 323.30 392.40 C 326.79 391.57 330.39 391.36 333.97 391.44 C 333.92 390.86 333.81 389.71 333.76 389.13 C 334.08 388.40 334.71 386.96 335.03 386.24 C 337.12 377.80 336.05 368.94 336.35 360.32 C 336.58 357.36 337.14 354.45 337.55 351.52 Z" fill="#1b273b" opacity="1.00" stroke="#1b273b" stroke-width="0.25" data-index="103"></path>
<path d="M 335.65 353.36 C 335.93 355.67 336.24 357.98 336.35 360.32 C 336.05 368.94 337.12 377.80 335.03 386.24 C 333.91 383.94 332.79 381.66 331.65 379.38 C 332.78 379.72 333.92 380.10 335.05 380.49 C 335.70 371.45 334.89 362.38 335.65 353.36 Z" fill="#bd6247" opacity="1.00" stroke="#bd6247" stroke-width="0.25" data-index="104"></path>
<path d="M 155.62 402.34 C 157.64 386.57 160.09 370.64 166.10 355.81 C 162.55 367.69 159.05 379.67 157.58 392.02 C 157.57 394.48 158.56 396.79 159.23 399.13 C 158.37 400.70 158.43 402.49 158.48 404.22 C 164.26 404.57 170.01 405.29 175.74 406.16 C 185.22 407.99 193.77 412.70 202.80 415.91 C 203.07 415.46 203.60 414.55 203.86 414.09 C 205.32 414.50 206.75 415.45 208.31 415.29 C 210.85 414.55 213.13 413.18 215.48 412.02 C 214.33 415.88 214.01 419.94 212.86 423.79 C 209.00 427.20 204.01 429.07 199.66 431.79 C 195.95 433.60 192.43 436.71 188.06 436.30 C 171.65 435.18 155.17 433.02 139.43 428.12 C 140.37 425.18 141.50 422.31 142.89 419.56 C 146.50 413.48 149.42 406.21 155.62 402.34 Z" fill="#032b48" opacity="1.00" stroke="#032b48" stroke-width="0.25" data-index="105"></path>
<path d="M 220.56 364.96 C 221.02 368.31 221.00 371.71 220.39 375.04 L 220.11 375.39 C 218.62 377.26 217.17 379.18 215.95 381.25 C 216.88 375.67 219.07 370.40 220.56 364.96 Z" fill="#784d49" opacity="1.00" stroke="#784d49" stroke-width="0.25" data-index="106"></path>
<path d="M 215.95 381.25 C 217.17 379.18 218.62 377.26 220.11 375.39 C 219.28 386.65 216.82 397.73 213.83 408.61 C 212.99 411.99 209.24 413.41 206.16 414.08 C 208.52 402.90 211.70 391.84 215.95 381.25 Z" fill="#c14526" opacity="1.00" stroke="#c14526" stroke-width="0.25" data-index="107"></path>
<path d="M 314.37 383.45 C 319.94 381.48 325.59 379.01 331.65 379.38 C 332.79 381.66 333.91 383.94 335.03 386.24 C 334.71 386.96 334.08 388.40 333.76 389.13 C 332.80 386.53 331.91 383.79 330.05 381.68 C 324.45 381.87 319.19 384.23 313.96 386.05 C 307.69 387.87 304.77 394.22 300.87 398.88 C 305.38 397.90 309.71 396.29 314.19 395.20 C 309.00 399.99 301.68 399.12 295.30 400.53 C 297.50 398.38 299.68 396.20 301.71 393.89 C 303.44 391.87 304.94 389.66 306.71 387.67 C 308.67 385.39 311.66 384.50 314.37 383.45 Z" fill="#301925" opacity="1.00" stroke="#301925" stroke-width="0.25" data-index="108"></path>
<path d="M 168.36 386.12 C 169.76 384.19 170.82 381.85 172.89 380.53 C 177.93 381.01 182.72 382.83 187.41 384.62 C 190.97 386.11 194.75 387.39 197.73 389.95 C 189.45 388.23 182.31 382.25 173.54 382.28 C 171.91 383.69 170.16 384.94 168.36 386.12 Z" fill="#934d44" opacity="1.00" stroke="#934d44" stroke-width="0.25" data-index="109"></path>
<path d="M 173.54 382.28 C 182.31 382.25 189.45 388.23 197.73 389.95 C 199.63 394.80 200.28 400.03 202.13 404.90 C 203.16 407.85 204.72 410.88 203.86 414.09 C 203.60 414.55 203.07 415.46 202.80 415.91 C 193.77 412.70 185.22 407.99 175.74 406.16 C 170.01 405.29 164.26 404.57 158.48 404.22 C 158.43 402.49 158.37 400.70 159.23 399.13 C 162.02 394.63 164.93 390.18 168.36 386.12 C 170.16 384.94 171.91 383.69 173.54 382.28 Z" fill="#c74623" opacity="1.00" stroke="#c74623" stroke-width="0.25" data-index="110"></path>
<path d="M 313.96 386.05 C 319.19 384.23 324.45 381.87 330.05 381.68 C 331.91 383.79 332.80 386.53 333.76 389.13 C 333.81 389.71 333.92 390.86 333.97 391.44 C 330.39 391.36 326.79 391.57 323.30 392.40 C 320.17 393.01 317.11 393.92 314.19 395.20 C 309.71 396.29 305.38 397.90 300.87 398.88 C 304.77 394.22 307.69 387.87 313.96 386.05 Z" fill="#c54624" opacity="1.00" stroke="#c54624" stroke-width="0.25" data-index="111"></path>
<path d="M 199.81 388.60 C 203.13 392.54 202.75 398.13 205.04 402.61 C 207.01 399.07 207.32 394.83 209.81 391.56 C 208.78 397.17 206.81 402.54 205.29 408.02 C 203.07 401.67 200.83 395.27 199.81 388.60 Z" fill="#ba5f43" opacity="1.00" stroke="#ba5f43" stroke-width="0.25" data-index="112"></path>
<path d="M 269.24 407.75 C 269.22 401.41 270.43 395.17 270.91 388.87 C 271.01 390.70 271.00 392.61 271.67 394.35 C 274.41 397.53 278.43 399.25 282.33 400.54 C 282.54 400.67 282.96 400.91 283.17 401.04 C 284.22 401.74 285.26 402.49 286.29 403.23 C 286.83 402.23 287.38 401.24 287.92 400.25 L 288.04 401.25 L 288.19 402.65 C 290.67 402.40 293.05 401.59 295.30 400.53 C 301.68 399.12 309.00 399.99 314.19 395.20 C 317.11 393.92 320.17 393.01 323.30 392.40 C 327.72 393.40 332.25 393.22 336.72 392.80 C 344.19 397.68 350.86 404.16 354.93 412.17 C 354.74 412.42 354.37 412.93 354.18 413.18 C 343.65 416.41 332.73 418.09 322.07 420.82 C 319.15 421.52 316.10 422.53 313.12 421.58 C 299.79 418.46 286.32 415.46 273.65 410.18 C 272.15 409.42 270.69 408.58 269.24 407.75 Z" fill="#022c49" opacity="1.00" stroke="#022c49" stroke-width="0.25" data-index="113"></path>
<path d="M 316.59 402.38 C 321.94 400.73 327.38 399.29 332.90 398.27 C 335.54 397.67 338.11 398.81 340.29 400.21 C 343.32 402.74 346.06 405.61 348.70 408.56 C 348.80 409.70 347.43 409.79 346.73 410.33 C 346.53 406.92 343.68 404.72 341.33 402.65 C 339.28 400.99 336.85 399.21 334.08 399.56 C 326.45 400.54 318.82 402.38 312.01 406.03 C 312.02 403.44 314.67 403.08 316.59 402.38 Z" fill="#a85843" opacity="1.00" stroke="#a85843" stroke-width="0.25" data-index="114"></path>
<path d="M 312.01 406.03 C 318.82 402.38 326.45 400.54 334.08 399.56 C 336.85 399.21 339.28 400.99 341.33 402.65 C 343.68 404.72 346.53 406.92 346.73 410.33 C 336.59 412.75 326.34 415.47 315.83 415.35 C 315.33 415.03 314.32 414.41 313.81 414.09 C 313.13 411.42 312.59 408.72 312.01 406.03 Z" fill="#f75d28" opacity="1.00" stroke="#f75d28" stroke-width="0.25" data-index="115"></path>
<path d="M 340.29 400.21 C 344.03 399.92 346.46 403.66 348.48 406.30 C 348.53 406.86 348.65 407.99 348.70 408.56 C 346.06 405.61 343.32 402.74 340.29 400.21 Z" fill="#241e27" opacity="1.00" stroke="#241e27" stroke-width="0.25" data-index="116"></path>

<path d="M 383.84 413.36 C 386.30 413.26 388.76 413.11 391.22 413.00 C 393.52 413.23 395.90 413.62 397.80 415.07 C 393.21 416.94 388.03 416.70 383.18 417.26 C 381.44 417.02 379.71 416.73 377.99 416.45 C 381.67 416.10 385.34 415.57 388.93 414.66 C 387.23 414.21 385.54 413.78 383.84 413.36 Z" fill="#8cdcee" opacity="1.00" stroke="#8cdcee" stroke-width="0.25" data-index="118" style="visibility: hidden; opacity: 1;"></path>
<path d="M 153.10 418.47 C 154.53 416.25 156.97 415.05 158.93 413.38 C 165.83 413.12 172.68 414.70 179.23 416.74 C 174.02 417.21 169.02 415.77 163.98 414.78 C 159.71 413.50 157.05 418.01 153.10 418.47 Z" fill="#cb6544" opacity="1.00" stroke="#cb6544" stroke-width="0.25" data-index="119"></path>
<path d="M 153.10 418.47 C 157.05 418.01 159.71 413.50 163.98 414.78 C 169.02 415.77 174.02 417.21 179.23 416.74 C 182.99 417.38 186.53 418.97 190.27 419.72 C 192.11 422.65 191.62 426.22 191.81 429.51 C 184.64 430.92 177.23 430.60 170.00 429.88 C 161.87 429.30 153.68 428.08 146.03 425.16 C 148.10 422.92 150.19 420.71 152.40 418.63 C 152.58 418.59 152.93 418.51 153.10 418.47 Z" fill="#f85e2a" opacity="1.00" stroke="#f85e2a" stroke-width="0.25" data-index="120"></path>

<path d="M 426.30 430.46 C 431.88 430.06 437.64 430.34 442.81 432.67 C 441.60 433.47 440.42 434.35 439.07 434.90 C 432.03 436.47 425.02 438.53 417.75 438.64 C 423.62 435.65 430.65 435.91 436.44 432.65 C 433.03 432.10 429.23 432.63 426.30 430.46 Z" fill="#7cddee" opacity="1.00" stroke="#7cddee" stroke-width="0.25" data-index="122" style="visibility: hidden; opacity: 1;"></path>

<path d="M 128.01 453.00 C 130.54 451.91 133.36 451.79 136.07 451.60 C 134.89 452.49 133.75 453.43 132.62 454.37 C 138.21 455.68 143.98 454.93 149.66 455.47 C 155.94 456.10 162.33 454.98 168.54 456.47 C 165.17 457.83 161.46 457.19 157.93 457.33 C 148.56 457.50 139.19 456.79 129.91 455.63 C 128.75 455.69 126.06 454.19 128.01 453.00 Z" fill="#82d9e6" opacity="1.00" stroke="#82d9e6" stroke-width="0.25" data-index="124" style="visibility: hidden; opacity: 1;"></path>

</svg>