<svg xmlns="http://www.w3.org/2000/svg" height="512pt" version="1.1" viewBox="0 0 512 512" width="512pt">

<path d="M 255.49 60.34 C 261.46 59.89 267.73 60.02 273.23 62.68 C 276.77 64.20 279.65 66.86 283.10 68.54 C 286.32 68.24 289.06 66.25 291.98 65.02 C 300.08 61.05 309.34 59.30 318.27 60.93 C 326.69 62.71 333.69 69.00 337.42 76.62 C 339.86 81.50 342.77 87.01 348.36 88.76 C 355.81 91.23 363.44 87.92 370.99 88.40 C 375.22 88.55 379.21 90.91 381.54 94.42 C 383.94 97.73 384.12 101.97 384.62 105.89 C 390.13 103.98 396.52 102.08 402.00 105.08 C 406.65 107.31 408.35 112.48 410.21 116.89 C 414.15 115.94 418.30 114.45 422.34 115.71 C 425.47 117.17 426.97 120.54 428.66 123.34 C 431.26 123.77 433.86 124.23 436.46 124.72 C 436.83 125.68 437.20 126.64 437.58 127.59 C 437.23 127.59 436.52 127.60 436.17 127.60 C 432.88 127.44 429.61 128.38 426.34 127.94 C 424.41 125.36 423.84 121.71 421.10 119.81 C 416.77 117.84 413.11 122.17 408.98 122.71 C 404.66 119.52 404.97 112.73 400.16 109.94 C 396.30 108.44 391.91 109.38 388.36 111.30 C 385.57 112.50 381.73 114.99 379.37 111.72 C 377.47 107.69 379.02 102.51 376.38 98.65 C 375.03 96.53 372.37 95.90 370.03 95.70 C 364.60 95.37 359.40 97.56 353.98 97.56 C 347.07 97.73 339.85 95.05 335.45 89.57 C 331.09 84.42 329.62 77.14 324.10 72.93 C 317.69 67.88 308.60 68.69 301.31 71.21 C 295.03 73.15 289.70 77.89 283.02 78.44 C 278.78 77.54 275.85 73.89 272.24 71.71 C 264.19 65.90 251.25 67.00 245.44 75.49 C 242.20 79.58 242.73 85.39 239.60 89.48 C 233.89 91.27 227.40 90.68 222.25 94.16 C 215.95 97.85 212.01 105.64 213.95 112.87 C 215.29 117.39 220.16 119.02 223.83 121.20 C 227.96 123.48 232.42 126.93 232.60 132.08 C 232.90 136.20 233.23 141.60 229.15 144.06 C 223.43 147.92 216.14 150.52 213.08 157.24 C 209.21 163.86 215.01 170.94 213.66 177.92 C 213.53 182.89 209.09 185.71 205.41 188.18 C 206.94 184.65 208.76 180.97 208.35 177.01 C 207.82 171.91 205.16 167.21 205.29 162.00 C 205.02 153.52 210.80 146.16 217.35 141.40 C 219.59 139.78 222.11 138.55 224.21 136.75 C 224.89 134.88 225.07 132.08 223.05 130.99 C 218.69 127.98 213.24 126.51 209.67 122.40 C 205.91 117.87 203.92 111.83 204.53 105.95 C 205.49 96.90 211.51 88.56 219.82 84.83 C 223.47 83.07 227.50 82.44 231.35 81.28 C 233.80 80.79 234.06 77.85 235.07 76.00 C 238.00 67.33 246.45 61.10 255.49 60.34 Z" fill="#32caf9" opacity="1.00" stroke="#32caf9" stroke-width="0.25" data-index="1" style="opacity: 1; visibility: hidden;"></path>

<path d="M 436.46 124.72 C 438.67 127.16 440.56 129.85 442.59 132.43 C 444.40 135.25 448.23 133.92 450.80 135.52 C 453.53 137.21 456.68 137.69 459.75 138.41 C 461.37 140.21 462.30 142.52 463.85 144.39 C 465.61 145.90 467.85 146.68 469.95 147.60 C 468.33 147.12 466.71 146.34 464.97 146.54 C 461.29 146.93 457.63 146.25 454.00 145.71 C 450.14 145.13 446.06 146.26 442.40 144.53 C 438.92 143.02 434.89 143.26 431.61 141.26 C 426.91 138.20 421.01 138.24 416.08 135.62 C 417.01 134.75 417.89 133.84 418.78 132.93 C 419.97 134.19 421.07 135.63 422.60 136.52 C 424.90 137.02 427.26 136.63 429.58 136.48 C 430.84 138.18 431.84 140.28 433.77 141.34 C 436.00 141.77 438.31 141.36 440.53 141.83 C 442.85 142.84 444.88 144.83 447.58 144.57 C 451.92 144.42 456.05 145.86 460.31 146.41 C 460.69 146.27 461.47 145.99 461.86 145.85 C 463.67 143.82 461.03 141.47 459.80 139.84 C 457.66 139.09 455.32 139.78 453.12 139.78 C 452.06 138.63 451.00 137.49 449.94 136.36 C 447.31 136.21 444.09 137.11 442.04 134.97 C 439.85 132.70 438.13 130.05 436.17 127.60 C 436.52 127.60 437.23 127.59 437.58 127.59 C 437.20 126.64 436.83 125.68 436.46 124.72 Z" fill="#34c6f3" opacity="1.00" stroke="#34c6f3" stroke-width="0.25" data-index="3" style="opacity: 1; visibility: hidden;"></path>
<path d="M 464.59 155.70 C 468.97 155.00 473.33 154.13 477.78 153.95 C 469.45 165.10 460.84 176.04 451.97 186.76 C 445.31 193.56 439.60 201.19 433.32 208.33 C 411.27 233.47 388.39 257.87 364.88 281.65 C 330.26 316.32 293.07 348.36 254.30 378.30 C 218.00 406.86 180.68 434.08 143.52 461.50 C 135.06 467.77 126.33 473.71 118.24 480.48 C 116.43 481.19 114.40 480.15 112.52 480.03 C 129.38 466.30 147.01 453.56 164.22 440.28 C 183.21 425.92 202.47 411.92 221.00 396.99 C 215.29 397.59 209.69 399.04 203.94 399.37 C 182.84 400.83 161.85 397.36 140.83 396.16 C 136.90 395.67 132.99 394.74 129.02 394.77 C 125.03 395.61 121.79 398.33 118.29 400.27 C 83.84 420.63 49.37 440.94 15.06 461.51 C 12.70 462.11 10.28 460.73 7.95 460.35 C 45.03 438.09 82.24 416.04 119.33 393.80 C 112.66 393.05 105.99 392.21 99.29 391.70 C 99.33 387.64 99.31 383.57 99.47 379.51 C 88.46 373.77 82.62 361.76 80.04 350.11 C 76.73 335.99 79.92 321.50 82.94 307.63 C 89.29 281.55 98.01 255.77 111.53 232.48 C 118.24 220.77 127.10 209.61 139.48 203.61 C 202.42 195.32 265.17 185.39 327.99 176.13 C 373.54 169.47 419.09 162.73 464.59 155.70 Z" fill="#043052" opacity="1.00" stroke="#043052" stroke-width="0.25" data-index="4" style="opacity: 1;"></path>
<path d="M 467.91 158.12 C 468.98 157.61 470.09 157.15 471.22 156.75 C 463.45 162.00 455.11 166.32 446.98 170.98 C 439.19 175.32 431.63 180.08 423.77 184.31 C 423.99 182.57 422.91 179.91 425.31 179.39 C 439.52 172.33 453.87 165.53 467.91 158.12 Z" fill="#f1fdff" opacity="1.00" stroke="#f1fdff" stroke-width="0.25" data-index="5" style="opacity: 1;"></path>
<path d="M 443.77 161.98 C 450.01 161.02 456.18 159.47 462.51 159.09 C 449.59 165.85 436.33 172.01 423.01 177.97 C 417.26 173.94 410.75 171.30 404.31 168.62 C 417.48 166.53 430.60 164.12 443.77 161.98 Z" fill="#30c9f8" opacity="1.00" stroke="#30c9f8" stroke-width="0.25" data-index="6" style="opacity: 1;"></path>
<path d="M 424.17 187.15 C 439.63 178.08 454.70 168.34 470.27 159.46 C 455.66 176.19 440.62 192.57 424.86 208.24 C 424.62 201.21 424.30 194.18 424.17 187.15 Z" fill="#fcfdfd" opacity="1.00" stroke="#fcfdfd" stroke-width="0.25" data-index="7" style="opacity: 1;"></path>
<path d="M 212.82 199.16 C 272.20 189.63 331.67 180.55 390.98 170.64 C 400.44 170.80 410.34 173.97 417.22 180.69 C 374.36 198.38 331.38 215.82 287.81 231.72 C 281.36 227.30 277.99 219.90 272.22 214.76 C 266.56 208.99 258.97 205.65 251.23 203.75 C 238.67 200.63 225.73 199.38 212.82 199.16 Z" fill="#2ecbfc" opacity="1.00" stroke="#2ecbfc" stroke-width="0.25" data-index="8" style="opacity: 1;"></path>
<path d="M 307.69 230.80 C 344.37 216.44 380.75 201.23 416.32 184.29 C 416.36 185.30 416.43 187.31 416.47 188.31 C 414.27 189.52 412.07 190.70 409.88 191.91 C 386.86 205.11 363.82 218.28 340.81 231.49 C 329.80 237.68 318.99 244.28 307.57 249.70 C 302.65 252.11 296.97 253.62 291.52 252.26 C 285.44 250.34 282.33 243.85 276.38 241.66 C 271.63 240.33 266.35 241.48 262.47 244.49 C 255.22 249.74 251.66 258.32 248.31 266.31 C 243.88 276.97 240.16 287.91 235.64 298.54 C 230.83 310.13 226.25 322.24 217.61 331.61 C 209.54 340.80 198.59 348.07 186.15 349.16 C 168.99 350.70 151.69 349.23 134.71 346.55 C 117.47 343.51 99.79 339.35 85.46 328.75 C 89.80 299.37 98.87 270.67 112.06 244.06 C 117.77 233.04 124.40 222.05 134.20 214.19 C 136.54 212.40 138.95 210.44 141.92 209.87 C 172.35 205.09 203.46 202.52 234.13 206.63 C 243.08 207.94 252.32 209.19 260.35 213.64 C 268.22 217.40 273.49 224.62 278.65 231.36 C 281.07 234.60 284.55 238.06 289.00 237.14 C 295.42 235.65 301.47 232.92 307.69 230.80 Z" fill="#fefffe" opacity="1.00" stroke="#fefffe" stroke-width="0.25" data-index="9" style="opacity: 1;"></path>
<path d="M 433.32 208.33 C 439.60 201.19 445.31 193.56 451.97 186.76 C 449.24 192.47 444.61 196.89 440.90 201.93 C 427.58 218.51 413.99 234.88 399.88 250.79 C 388.70 263.56 377.64 276.49 365.58 288.45 C 366.45 286.53 367.17 284.54 367.92 282.56 C 367.16 282.33 365.64 281.88 364.88 281.65 C 388.39 257.87 411.27 233.47 433.32 208.33 Z" fill="#34c6f3" opacity="1.00" stroke="#34c6f3" stroke-width="0.25" data-index="10" style="opacity: 1;"></path>
<path d="M 340.81 231.49 C 363.82 218.28 386.86 205.11 409.88 191.91 C 409.96 193.12 410.06 194.33 410.15 195.55 C 388.67 208.55 367.07 221.38 345.51 234.25 C 343.94 233.32 342.37 232.40 340.81 231.49 Z" fill="#0b2e4b" opacity="1.00" stroke="#0b2e4b" stroke-width="0.25" data-index="11"></path>
<path d="M 410.15 195.55 C 412.34 194.23 414.54 192.93 416.74 191.62 C 417.14 199.43 417.63 207.25 417.47 215.08 C 416.63 216.64 415.23 217.79 414.02 219.05 C 386.70 245.42 359.38 271.86 330.19 296.20 C 321.05 304.12 311.67 311.81 301.62 318.56 C 297.51 321.19 293.43 324.01 288.78 325.62 L 288.70 324.55 C 288.26 310.47 286.88 296.43 286.20 282.35 C 285.50 275.78 285.80 269.11 284.49 262.61 C 286.70 261.11 289.00 259.74 291.43 258.62 C 294.45 258.21 297.52 258.30 300.51 257.69 C 307.17 256.59 313.03 253.10 318.85 249.89 C 327.81 244.81 336.65 239.53 345.51 234.25 C 367.07 221.38 388.67 208.55 410.15 195.55 Z" fill="#fdfefe" opacity="1.00" stroke="#fdfefe" stroke-width="0.25" data-index="12" style="opacity: 1;"></path>
<path d="M 399.90 212.94 C 399.91 208.86 404.55 207.35 407.46 205.51 C 407.72 209.81 408.10 214.20 407.51 218.49 C 405.49 220.82 402.97 222.64 400.42 224.34 C 399.89 220.57 399.67 216.75 399.90 212.94 Z" fill="#052f4f" opacity="1.00" stroke="#052f4f" stroke-width="0.25" data-index="13"></path>
<path d="M 385.87 220.14 C 388.10 217.35 391.46 215.85 394.48 214.09 C 394.94 218.89 395.10 223.78 394.52 228.57 C 392.51 231.75 389.23 233.93 385.90 235.53 C 385.59 230.42 385.32 225.24 385.87 220.14 Z" fill="#063052" opacity="1.00" stroke="#063052" stroke-width="0.25" data-index="14"></path>
<path d="M 136.49 219.87 C 144.82 217.63 153.53 218.91 162.02 219.25 C 178.17 219.72 194.28 220.77 210.40 221.82 C 216.33 222.51 222.36 222.58 228.20 223.94 C 232.52 224.69 235.70 229.67 234.21 233.89 C 233.28 236.89 231.83 239.68 230.51 242.52 C 222.44 259.22 214.60 276.02 206.76 292.82 C 203.24 299.43 194.89 301.32 187.97 301.04 C 162.74 298.96 137.55 296.34 112.29 294.68 C 105.15 294.73 101.50 285.92 104.11 280.00 C 109.24 265.29 115.73 251.08 121.92 236.78 C 123.66 233.00 125.17 229.07 127.45 225.56 C 129.58 222.58 133.12 221.02 136.49 219.87 Z" fill="#043052" opacity="1.00" stroke="#043052" stroke-width="0.25" data-index="15"></path>
<path d="M 370.96 228.96 C 373.69 227.03 376.56 225.27 379.49 223.66 C 380.51 229.02 380.48 234.52 380.18 239.95 C 377.51 243.68 373.45 246.28 369.45 248.44 C 368.57 243.32 368.64 238.10 368.80 232.93 C 368.80 231.32 369.60 229.82 370.96 228.96 Z" fill="#062f50" opacity="1.00" stroke="#062f50" stroke-width="0.25" data-index="16"></path>
<path d="M 159.85 226.38 C 166.59 226.15 173.24 227.57 179.97 227.57 C 186.23 227.68 192.45 228.47 198.70 228.72 C 196.95 232.01 195.29 235.34 193.43 238.58 C 180.95 238.11 168.54 236.76 156.07 236.35 C 157.20 232.98 158.50 229.67 159.85 226.38 Z" fill="#ee562c" opacity="1.00" stroke="#ee562c" stroke-width="0.25" data-index="17"></path>
<path d="M 349.61 243.46 C 353.00 239.51 357.90 237.17 362.36 234.62 C 362.78 240.66 363.68 246.80 362.77 252.82 C 362.64 254.64 361.03 255.70 359.75 256.75 C 356.56 259.08 353.41 261.52 349.83 263.23 C 349.22 256.68 348.78 250.00 349.61 243.46 Z" fill="#053051" opacity="1.00" stroke="#053051" stroke-width="0.25" data-index="18"></path>
<path d="M 254.13 265.14 C 257.21 257.05 262.12 248.21 271.11 245.84 C 275.27 244.61 278.38 248.42 281.01 251.01 C 283.90 254.27 287.68 256.49 291.43 258.62 C 289.00 259.74 286.70 261.11 284.49 262.61 C 284.42 262.33 284.30 261.77 284.24 261.49 C 284.17 261.16 284.01 260.51 283.94 260.18 C 277.98 259.74 273.10 263.57 267.90 265.81 C 264.22 267.78 259.88 268.86 256.92 271.96 C 255.22 273.50 255.63 275.92 255.71 277.97 C 257.26 295.33 258.29 312.74 259.93 330.09 C 260.43 334.09 260.69 338.12 260.41 342.14 C 255.42 339.16 254.53 332.48 249.47 329.63 C 246.87 328.92 243.76 328.85 241.54 330.59 C 238.82 332.71 237.22 335.92 236.11 339.11 C 232.90 348.47 230.78 358.18 227.19 367.41 C 225.88 370.69 223.93 374.04 220.56 375.56 C 212.02 379.78 202.37 380.75 193.03 381.79 C 167.45 384.59 141.56 382.75 116.28 378.36 C 108.96 376.78 100.84 375.26 95.62 369.40 C 87.24 359.89 84.48 346.70 84.66 334.34 C 89.90 337.48 95.06 340.83 100.73 343.17 C 116.30 349.79 133.25 352.09 149.94 353.93 C 164.84 355.30 180.15 356.77 194.83 352.99 C 206.56 350.01 216.33 342.07 223.91 332.89 C 231.32 323.47 235.96 312.26 240.22 301.16 C 245.12 289.25 249.21 277.04 254.13 265.14 Z" fill="#2ecbfc" opacity="1.00" stroke="#2ecbfc" stroke-width="0.25" data-index="19" style="opacity: 1;"></path>
<path d="M 330.18 254.19 C 333.94 251.89 337.47 249.13 341.63 247.58 C 342.82 252.64 342.44 257.89 342.63 263.06 C 342.52 265.66 343.13 268.93 340.86 270.83 C 337.90 273.24 334.68 275.32 331.71 277.72 C 330.23 278.76 328.61 280.45 326.64 279.61 C 325.77 273.10 325.60 266.50 325.65 259.94 C 325.59 257.20 328.19 255.56 330.18 254.19 Z" fill="#042f50" opacity="1.00" stroke="#042f50" stroke-width="0.25" data-index="20"></path>
<path d="M 280.60 266.57 C 281.84 264.90 283.05 263.20 284.24 261.49 C 284.30 261.77 284.42 262.33 284.49 262.61 C 285.80 269.11 285.50 275.78 286.20 282.35 C 286.88 296.43 288.26 310.47 288.70 324.55 C 288.53 325.05 288.18 326.04 288.00 326.54 C 286.88 323.74 286.00 320.86 285.30 317.94 C 285.34 321.67 286.92 326.68 283.26 329.27 C 281.47 331.07 278.87 331.14 276.50 331.12 C 277.61 330.32 278.71 329.51 279.81 328.70 C 281.06 327.77 282.31 326.86 283.57 325.95 C 282.97 311.49 282.08 297.05 281.29 282.60 C 280.84 277.26 280.46 271.92 280.60 266.57 Z" fill="#062b48" opacity="1.00" stroke="#062b48" stroke-width="0.25" data-index="21" style="opacity: 1;"></path>
<path d="M 314.39 263.02 C 316.50 261.27 318.10 264.11 317.70 266.06 C 317.40 273.12 319.25 280.37 317.37 287.29 C 312.82 291.58 307.37 294.84 302.33 298.54 C 301.06 299.65 298.28 300.46 298.23 297.91 C 297.39 290.97 297.26 283.92 297.19 276.94 C 296.82 273.90 299.61 272.16 301.88 270.87 C 306.18 268.45 310.05 265.35 314.39 263.02 Z" fill="#042f52" opacity="1.00" stroke="#042f52" stroke-width="0.25" data-index="22"></path>
<path d="M 277.52 266.06 C 278.54 266.23 279.57 266.40 280.60 266.57 C 280.46 271.92 280.84 277.26 281.29 282.60 C 282.08 297.05 282.97 311.49 283.57 325.95 C 282.31 326.86 281.06 327.77 279.81 328.70 C 279.74 327.97 279.61 326.53 279.54 325.80 C 279.28 317.79 278.96 309.78 278.57 301.78 C 278.42 290.10 277.77 278.43 277.54 266.76 L 277.52 266.06 Z" fill="#e05c3b" opacity="1.00" stroke="#e05c3b" stroke-width="0.25" data-index="23" style="opacity: 1;"></path>
<path d="M 259.30 275.37 C 265.36 272.46 271.43 269.56 277.54 266.76 C 277.77 278.43 278.42 290.10 278.57 301.78 C 277.85 302.05 276.42 302.60 275.70 302.87 L 275.69 301.85 C 275.58 291.66 275.47 281.46 275.24 271.27 C 271.07 273.17 267.01 275.29 262.80 277.10 C 263.76 287.01 264.79 296.91 265.47 306.83 C 265.93 315.57 266.75 324.29 267.66 333.00 C 270.44 331.20 273.23 329.42 276.11 327.78 C 277.25 327.11 278.39 326.46 279.54 325.80 C 279.61 326.53 279.74 327.97 279.81 328.70 C 278.71 329.51 277.61 330.32 276.50 331.12 C 272.58 333.84 268.58 336.45 264.60 339.10 C 262.71 317.87 260.85 296.62 259.30 275.37 Z" fill="#fafdfe" opacity="1.00" stroke="#fafdfe" stroke-width="0.25" data-index="24" style="opacity: 1;"></path>
<path d="M 262.80 277.10 C 267.01 275.29 271.07 273.17 275.24 271.27 C 275.47 281.46 275.58 291.66 275.69 301.85 C 272.19 303.32 268.77 304.96 265.47 306.83 C 264.79 296.91 263.76 287.01 262.80 277.10 Z" fill="#042f50" opacity="1.00" stroke="#042f50" stroke-width="0.25" data-index="25" style="opacity: 1;"></path>
<path d="M 364.88 281.65 C 365.64 281.88 367.16 282.33 367.92 282.56 C 367.17 284.54 366.45 286.53 365.58 288.45 C 362.90 292.68 358.88 295.85 355.55 299.55 C 338.61 317.94 320.38 335.08 301.82 351.82 C 290.40 361.68 279.35 371.98 267.67 381.54 C 246.83 399.20 225.36 416.10 203.80 432.88 C 183.37 449.15 162.38 464.71 141.93 480.95 C 139.86 482.29 137.82 484.58 135.13 484.15 C 129.43 483.30 123.76 482.14 118.24 480.48 C 126.33 473.71 135.06 467.77 143.52 461.50 C 180.68 434.08 218.00 406.86 254.30 378.30 C 293.07 348.36 330.26 316.32 364.88 281.65 Z" fill="#2ecafb" opacity="1.00" stroke="#2ecafb" stroke-width="0.25" data-index="26" style="opacity: 1;"></path>
<path d="M 265.47 306.83 C 268.77 304.96 272.19 303.32 275.69 301.85 L 275.70 302.87 C 275.71 311.18 276.01 319.48 276.11 327.78 C 273.23 329.42 270.44 331.20 267.66 333.00 C 266.75 324.29 265.93 315.57 265.47 306.83 Z" fill="#f2572e" opacity="1.00" stroke="#f2572e" stroke-width="0.25" data-index="27" style="opacity: 1;"></path>
<path d="M 275.70 302.87 C 276.42 302.60 277.85 302.05 278.57 301.78 C 278.96 309.78 279.28 317.79 279.54 325.80 C 278.39 326.46 277.25 327.11 276.11 327.78 C 276.01 319.48 275.71 311.18 275.70 302.87 Z" fill="#fff6ea" opacity="1.00" stroke="#fff6ea" stroke-width="0.25" data-index="28"></path>
<path d="M 104.45 306.53 C 108.36 305.82 112.74 306.40 115.60 309.40 C 121.58 314.11 121.10 324.61 114.71 328.74 C 110.35 331.86 103.92 331.65 99.76 328.27 C 96.19 325.52 94.73 320.63 95.45 316.28 C 96.15 311.61 100.01 307.79 104.45 306.53 Z" fill="#062f4f" opacity="1.00" stroke="#062f4f" stroke-width="0.25" data-index="29"></path>
<path d="M 182.47 313.67 C 189.96 311.57 198.10 318.23 197.70 325.95 C 197.96 333.67 189.64 340.05 182.23 337.58 C 174.47 335.83 170.74 325.62 175.08 319.11 C 176.84 316.54 179.42 314.44 182.47 313.67 Z" fill="#072f50" opacity="1.00" stroke="#072f50" stroke-width="0.25" data-index="30"></path>
<path d="M 104.51 314.33 C 107.15 312.31 111.55 313.91 112.41 317.09 C 112.83 319.19 112.11 321.30 111.06 323.10 C 108.31 324.00 104.27 324.45 102.73 321.36 C 101.96 318.93 102.02 315.75 104.51 314.33 Z" fill="#eb562a" opacity="1.00" stroke="#eb562a" stroke-width="0.25" data-index="31"></path>
<path d="M 183.37 321.14 C 186.75 319.09 191.63 322.85 190.51 326.68 C 190.22 332.08 180.58 332.28 180.35 326.85 C 179.78 324.39 180.98 322.02 183.37 321.14 Z" fill="#e8572c" opacity="1.00" stroke="#e8572c" stroke-width="0.25" data-index="32"></path>
<path d="M 245.15 369.45 C 250.92 365.68 256.31 361.36 262.28 357.89 C 262.45 358.69 262.78 360.29 262.95 361.09 C 256.88 364.89 251.21 369.30 245.35 373.41 C 245.27 372.09 245.20 370.77 245.15 369.45 Z" fill="#f1fdff" opacity="1.00" stroke="#f1fdff" stroke-width="0.25" data-index="33"></path>
<path d="M 118.29 400.27 C 121.79 398.33 125.03 395.61 129.02 394.77 C 132.99 394.74 136.90 395.67 140.83 396.16 C 139.25 397.80 137.53 399.30 135.62 400.56 C 104.29 420.91 72.91 441.19 41.56 461.52 C 38.77 463.26 36.10 465.34 32.93 466.34 C 26.87 465.26 20.76 463.90 15.06 461.51 C 49.37 440.94 83.84 420.63 118.29 400.27 Z" fill="#2fcbfb" opacity="1.00" stroke="#2fcbfb" stroke-width="0.25" data-index="34"></path>
</svg>