<svg xmlns="http://www.w3.org/2000/svg" height="512pt" version="1.1" viewBox="0 0 512 512" width="512pt"><defs>
                <linearGradient id="grad-15" gradientTransform="rotate(238 0.5 0.5)">
                
                        <stop stop-color="#fe7f3e" offset="0"></stop>
                    ,
                        <stop stop-color="#fe7f3e" offset="0.2"></stop>
                    ,
                        <stop stop-color="#fe7f3e" offset="0.4"></stop>
                    ,
                        <stop stop-color="#fe7f3e" offset="0.6"></stop>
                    ,
                        <stop stop-color="#fe7f3e" offset="0.8"></stop>
                    
                </linearGradient>
          </defs><defs>
                <linearGradient id="grad-14" gradientTransform="rotate(215 0.5 0.5)">
                
                        <stop stop-color="#fe7f3e" offset="0"></stop>
                    ,
                        <stop stop-color="#fe8547" offset="0.14285714285714285"></stop>
                    ,
                        <stop stop-color="#fe8b50" offset="0.2857142857142857"></stop>
                    ,
                        <stop stop-color="#fe935b" offset="0.42857142857142855"></stop>
                    ,
                        <stop stop-color="#fe9c68" offset="0.5714285714285714"></stop>
                    ,
                        <stop stop-color="#fea576" offset="0.7142857142857143"></stop>
                    ,
                        <stop stop-color="#fdaf84" offset="0.8571428571428571"></stop>
                    
                </linearGradient>
          </defs>

<path d="M 267.03 53.26 C 271.18 52.57 272.47 59.86 277.74 57.31 C 280.60 61.35 286.95 59.70 287.78 65.27 C 291.04 69.47 295.50 72.87 299.23 76.77 C 301.31 78.63 297.94 81.98 300.26 83.73 C 304.44 87.39 303.49 96.45 310.40 96.45 C 321.08 94.37 314.86 106.19 317.72 111.30 C 324.51 114.52 325.09 122.69 329.13 127.90 C 333.80 129.51 333.28 134.76 335.41 138.43 C 335.22 148.38 348.75 151.48 347.27 161.84 C 349.29 164.94 351.53 167.99 352.37 171.66 C 352.97 179.72 368.35 173.49 364.96 184.01 C 362.62 189.48 367.50 191.59 370.60 194.35 C 369.37 198.41 373.44 199.44 374.58 202.34 C 372.85 208.83 379.90 210.12 382.68 214.29 C 384.17 218.59 383.41 225.75 389.74 225.34 C 392.93 232.89 400.00 238.99 400.77 247.21 C 409.15 245.28 404.46 254.87 410.06 256.93 C 419.83 261.64 406.54 273.17 414.28 277.76 C 417.43 279.91 416.47 271.29 418.54 275.36 C 418.73 279.94 424.57 281.43 423.40 286.66 C 425.64 290.39 434.45 287.38 430.97 294.99 C 427.78 303.38 434.71 303.34 439.74 306.26 C 437.61 315.43 448.68 319.35 449.30 327.70 C 457.46 325.22 452.22 335.55 458.04 336.95 C 464.40 339.59 458.30 347.68 462.20 351.80 C 465.85 356.61 472.84 359.49 471.14 366.91 C 478.36 374.81 477.69 388.50 477.93 399.02 C 476.64 407.31 479.08 416.83 472.22 423.13 C 474.23 429.57 470.69 432.40 465.25 433.25 C 464.37 439.17 459.94 444.84 452.99 442.97 C 447.75 441.84 448.44 451.57 442.01 448.00 C 316.42 447.88 190.81 448.24 65.24 447.82 C 62.78 442.85 57.41 442.43 52.85 440.30 C 45.23 439.42 48.07 428.62 43.54 424.43 C 40.12 422.07 42.06 416.75 37.85 415.15 C 36.84 401.74 31.91 386.50 39.45 373.60 C 38.50 369.33 42.25 367.87 44.59 365.63 C 46.43 358.59 50.11 352.33 51.22 345.22 C 58.00 344.00 56.11 333.83 64.64 335.63 C 64.24 328.33 68.80 321.51 74.77 317.67 C 74.83 313.87 74.98 310.08 75.22 306.30 C 80.94 304.67 84.02 299.87 87.35 295.43 C 86.64 291.13 88.73 288.13 92.07 286.12 C 95.26 281.07 94.47 271.30 102.73 271.63 C 105.03 265.63 102.04 254.50 112.19 255.19 C 112.74 248.36 116.76 241.60 122.60 237.65 C 120.61 231.75 129.57 232.16 127.37 226.18 C 135.51 214.47 140.37 201.95 150.66 191.67 C 152.84 185.80 150.63 176.29 159.15 175.17 C 159.69 166.11 171.08 162.09 171.31 153.31 C 173.39 151.37 176.89 150.23 175.33 146.16 C 178.69 140.80 184.91 136.42 184.28 129.25 C 189.70 126.74 188.17 120.09 193.65 117.65 C 194.30 111.90 202.20 110.94 200.36 104.31 C 198.39 98.02 203.73 96.54 207.94 95.00 C 211.10 88.82 212.37 81.08 218.65 76.68 C 220.50 69.23 228.44 66.60 233.38 61.48 C 238.07 62.36 239.62 57.19 243.64 56.59 C 251.42 55.16 259.93 57.82 267.03 53.26 Z" fill="#fefefa" opacity="1.00" stroke="#fefefa" stroke-width="0.25" data-index="1" style="opacity: 1; visibility: hidden;"></path>

<path d="M 253.40 78.47 C 265.16 76.55 276.36 83.66 283.76 92.23 C 325.78 159.01 365.51 227.83 406.93 295.03 C 418.17 315.25 431.49 334.24 442.46 354.59 C 452.02 368.51 459.32 384.57 457.00 402.01 C 453.55 414.24 442.55 423.12 430.61 426.52 C 406.90 429.99 382.87 428.81 359.00 429.00 C 286.99 428.91 215.00 429.27 143.00 429.00 C 120.44 428.58 97.09 431.11 75.34 423.60 C 60.02 418.25 53.13 399.64 56.72 384.69 C 72.20 347.34 96.02 314.21 116.62 279.67 C 140.46 238.42 166.26 198.30 189.94 156.97 C 199.32 140.48 210.86 125.19 219.15 108.10 C 228.01 95.58 236.64 80.77 253.40 78.47 Z" fill="#ffefe5" opacity="1.00" stroke="#ffefe5" stroke-width="0.25" data-index="3" style="opacity: 1; visibility: hidden;"></path>

<path d="M 253.40 88.48 C 265.50 86.64 276.42 96.21 281.22 106.73 C 332.75 190.77 382.54 275.91 434.15 359.90 C 442.22 372.55 451.37 387.61 445.17 403.12 C 442.56 409.38 436.30 413.80 430.10 416.11 C 412.38 420.29 394.04 418.75 376.00 419.00 C 284.33 419.00 192.66 419.00 100.98 419.00 C 90.31 418.27 78.14 416.99 71.13 407.86 C 64.56 399.90 64.32 387.76 68.75 378.76 C 120.82 290.98 174.12 203.95 226.06 116.04 C 234.01 106.10 238.57 89.76 253.40 88.48 Z" fill="#ffdcc6" opacity="1.00" stroke="#ffdcc6" stroke-width="0.25" data-index="5" style="opacity: 1; visibility: visible; fill: rgb(254, 127, 62); display: none;"></path>
<path d="M 253.39 90.41 C 268.10 87.43 275.62 102.71 281.62 113.34 C 334.25 200.99 387.19 288.45 439.87 376.08 C 451.43 390.78 440.18 415.82 421.00 414.94 C 311.00 415.06 200.99 415.01 90.99 414.96 C 79.84 415.36 70.03 406.38 68.44 395.61 C 65.90 383.53 74.42 373.71 80.07 364.06 C 133.14 276.11 186.13 188.13 239.04 100.03 C 242.10 94.89 247.72 91.82 253.39 90.41 Z" fill="#fab893" opacity="1.00" stroke="#fab893" stroke-width="0.25" data-index="6" style="opacity: 1; visibility: visible; fill: rgb(254, 127, 62); display: none;"></path>
<path d="M 250.39 93.32 C 265.21 89.27 274.19 103.06 279.49 114.40 C 331.28 198.86 381.86 284.04 433.26 368.75 C 438.70 377.25 444.65 387.84 440.16 398.11 C 437.08 409.21 424.14 412.73 414.00 412.88 C 308.66 413.15 203.32 412.95 97.98 412.98 C 88.90 412.29 77.08 410.27 73.36 400.68 C 69.11 389.99 73.42 379.10 78.92 369.89 C 131.12 283.69 182.75 197.21 235.03 111.05 C 239.19 104.39 243.43 97.39 250.39 93.32 Z" fill="#fdaf84" opacity="1.00" stroke="#fdaf84" stroke-width="0.25" data-index="7" style="opacity: 1; display: none; visibility: visible; fill: rgb(254, 127, 62);"></path>
<path d="M 252.36 97.34 C 260.97 95.18 269.73 101.22 272.93 109.03 C 326.67 198.00 381.07 286.57 433.87 376.08 C 438.85 383.12 439.04 392.53 435.05 400.06 C 429.42 408.78 418.78 407.92 409.88 409.70 C 366.02 408.44 321.94 409.18 277.99 409.03 C 239.71 412.07 201.33 408.05 163.01 409.18 C 149.06 410.72 135.00 409.73 121.00 410.00 C 108.54 409.73 95.44 411.56 83.65 406.37 C 74.51 401.89 72.59 389.44 77.04 381.01 C 95.11 345.36 118.13 312.62 137.84 277.90 C 171.24 222.69 204.10 167.04 238.15 112.17 C 241.83 106.40 245.48 99.68 252.36 97.34 Z" fill="#fea576" opacity="1.00" stroke="#fea576" stroke-width="0.25" data-index="8" style="opacity: 1; display: none; visibility: visible; fill: rgb(254, 127, 62);"></path>
<path d="M 253.38 100.38 C 259.60 99.03 266.28 102.25 268.87 108.08 C 321.01 194.04 372.95 280.02 424.86 366.09 C 429.33 375.28 437.26 384.37 433.44 395.39 C 428.78 407.34 413.42 406.07 403.01 407.03 C 358.51 405.90 313.90 405.31 269.37 406.57 C 223.62 406.81 177.75 405.47 132.00 407.02 C 116.74 406.28 100.70 409.09 86.04 403.93 C 73.80 398.20 77.90 382.77 83.73 373.75 C 133.30 291.05 182.90 208.35 232.88 125.91 C 239.35 117.36 242.23 103.91 253.38 100.38 Z" fill="#fe9c68" opacity="1.00" stroke="#fe9c68" stroke-width="0.25" data-index="9" style="opacity: 1; display: none; visibility: visible; fill: rgb(254, 127, 62);"></path>
<path d="M 252.33 103.27 C 263.12 99.96 268.16 111.12 272.29 118.74 C 321.61 200.49 371.23 281.95 419.97 364.03 C 425.42 372.98 432.48 382.67 430.69 393.71 C 426.54 406.00 411.77 402.40 401.61 403.61 C 306.45 402.24 211.18 403.29 115.99 403.08 C 104.30 402.96 89.28 406.75 81.18 395.71 C 78.57 384.74 86.06 375.76 90.67 366.68 C 143.49 280.59 194.11 193.20 247.38 107.36 C 248.65 105.61 250.26 104.03 252.33 103.27 Z" fill="#fe935b" opacity="1.00" stroke="#fe935b" stroke-width="0.25" data-index="10" style="opacity: 1; display: block; visibility: visible; fill: rgb(254, 127, 62);"></path>
<path d="M 253.34 106.26 C 257.71 104.28 261.31 107.03 263.75 110.23 C 300.62 171.34 337.57 232.45 374.35 293.67 C 390.23 318.09 403.40 344.15 419.60 368.36 C 423.30 376.39 431.85 386.21 426.25 395.26 C 416.34 404.59 401.25 399.86 389.01 400.02 C 297.76 399.64 206.32 400.17 114.98 400.09 C 105.72 401.54 96.00 401.55 87.29 397.72 C 82.08 393.83 83.67 385.97 85.81 380.76 C 115.53 330.00 147.22 280.42 176.48 229.42 C 198.69 193.52 220.29 157.22 242.00 121.00 C 245.93 116.25 247.17 108.80 253.34 106.26 Z" fill="#fe8b50" opacity="1.00" stroke="#fe8b50" stroke-width="0.25" data-index="11" style="opacity: 1; display: block; visibility: visible; fill: rgb(254, 127, 62);"></path>
<path d="M 254.29 109.27 C 256.80 108.28 259.72 109.75 261.06 111.96 C 314.11 199.12 366.33 286.59 419.04 373.98 C 421.98 379.74 428.29 387.85 422.83 393.86 C 412.57 400.71 399.48 397.00 388.01 396.84 C 352.04 393.53 315.95 398.93 280.01 395.97 C 222.08 398.03 164.00 396.54 105.99 397.03 C 99.85 396.71 91.79 397.92 87.13 392.73 C 85.31 385.24 90.79 379.17 93.91 372.95 C 145.23 288.51 196.09 203.75 246.99 119.00 C 249.10 115.60 249.98 110.60 254.29 109.27 Z" fill="#fe8547" opacity="1.00" stroke="#fe8547" stroke-width="0.25" data-index="12" style="opacity: 1; display: block; visibility: visible; fill: rgb(254, 127, 62);"></path>
<path d="M 254.34 113.17 C 261.79 115.37 262.99 126.17 269.11 130.85 C 274.69 145.07 284.05 157.17 291.84 170.12 C 296.40 175.84 298.11 183.34 303.80 188.20 C 310.66 203.06 321.56 215.66 328.46 230.61 C 334.96 237.80 337.44 247.29 342.88 255.15 C 362.89 286.33 380.81 318.86 400.71 350.27 C 404.45 360.98 413.90 368.33 418.05 378.97 C 420.64 382.94 423.95 392.00 417.03 393.09 C 397.44 395.06 377.66 391.53 357.99 391.99 C 318.39 394.56 278.59 391.47 239.00 394.06 C 191.50 391.37 143.76 394.46 96.30 392.64 C 87.76 390.61 93.38 380.41 96.61 375.66 C 129.20 322.85 160.48 268.91 192.82 215.89 C 213.78 181.84 234.37 147.51 254.34 113.17 Z" fill="#fe7f3e" opacity="1.00" stroke="#fe7f3e" stroke-width="0.25" data-index="13" style="opacity: 1; display: block; visibility: visible; fill: rgb(254, 127, 62);"></path>
<path d="M250.39,93.32c14.82,-4.05 23.8,9.74 29.1,21.08c51.79,84.46 102.37,169.64 153.77,254.35c5.44,8.5 11.39,19.09 6.9,29.36c-3.08,11.1 -16.02,14.62 -26.16,14.77c-105.34,0.27 -210.68,0.07 -316.02,0.1c-9.08,-0.69 -20.9,-2.71 -24.62,-12.3c-4.25,-10.69 0.06,-21.58 5.56,-30.79c52.2,-86.2 103.83,-172.68 156.11,-258.84c4.16,-6.66 8.4,-13.66 15.36,-17.73z" id="path-13 1" fill="url(#grad-14)" fill-rule="nonzero" stroke="url(#grad-14)" stroke-width="0.25" stroke-linecap="butt" stroke-linejoin="miter" stroke-miterlimit="10" stroke-dasharray="" stroke-dashoffset="0" font-family="none" font-weight="none" font-size="none" text-anchor="none" style="mix-blend-mode: normal; opacity: 1; display: none;" data-index="14"></path><path d="M253.4,88.48c12.1,-1.84 23.02,7.73 27.82,18.25c51.53,84.04 101.32,169.18 152.93,253.17c8.07,12.65 17.22,27.71 11.02,43.22c-2.61,6.26 -8.87,10.68 -15.07,12.99c-17.72,4.18 -36.06,2.64 -54.1,2.89c-91.67,0 -183.34,0 -275.02,0c-10.67,-0.73 -22.84,-2.01 -29.85,-11.14c-6.57,-7.96 -6.81,-20.1 -2.38,-29.1c52.07,-87.78 105.37,-174.81 157.31,-262.72c7.95,-9.94 12.51,-26.28 27.34,-27.56z" id="path-9 1" fill="url(#grad-15)" fill-rule="nonzero" stroke="url(#grad-15)" stroke-width="0.25" stroke-linecap="butt" stroke-linejoin="miter" stroke-miterlimit="10" stroke-dasharray="" stroke-dashoffset="0" font-family="none" font-weight="none" font-size="none" text-anchor="none" style="mix-blend-mode: normal; opacity: 1;" data-index="15"></path></svg>