<?xml version="1.0" encoding="utf-8"?>
<svg xmlns="http://www.w3.org/2000/svg" height="512pt" version="1.1" viewBox="0 0 512 512" width="512pt">
<path d="M 0.00 0.00 L 512.00 0.00 L 512.00 512.00 L 0.00 512.00 L 0.00 0.00 Z" fill="transparent" opacity="1.00" stroke="transparent" stroke-width="0.25"/>
<path d="M 124.44 69.44 C 137.39 55.54 160.64 54.29 175.83 65.18 C 182.93 70.39 186.61 79.31 186.61 87.97 C 186.86 96.81 183.76 105.30 180.22 113.26 C 176.45 122.00 175.77 131.62 174.95 140.99 C 173.76 156.33 172.05 171.63 171.62 187.02 C 171.33 197.41 172.49 207.97 176.36 217.69 C 178.28 222.54 182.66 226.52 187.91 227.31 C 192.17 227.75 196.42 226.70 200.48 225.51 C 211.52 221.98 222.62 218.47 234.12 216.78 C 250.66 214.22 267.62 214.95 284.01 218.20 C 285.81 218.89 287.16 217.39 288.56 216.54 C 294.18 212.74 300.40 209.91 305.81 205.80 C 312.11 201.11 317.20 195.03 321.93 188.81 C 323.76 187.00 325.78 189.86 327.37 190.71 C 340.97 171.31 353.44 151.05 363.71 129.68 C 367.87 121.47 371.67 112.87 378.02 106.06 C 379.61 104.30 382.19 102.98 384.43 104.44 C 386.24 107.26 386.26 110.83 385.93 114.06 C 385.40 120.11 383.78 125.98 382.20 131.83 C 386.81 127.22 391.14 122.05 396.97 118.94 C 398.95 117.93 402.55 117.34 403.35 120.09 C 404.54 125.58 401.62 130.62 399.38 135.40 C 393.75 146.10 386.75 155.99 379.81 165.86 C 387.70 158.64 396.13 151.97 405.18 146.27 C 409.50 143.63 414.63 141.17 419.80 142.17 C 423.80 142.78 424.46 147.68 424.16 150.97 C 423.03 160.31 415.96 167.29 409.58 173.58 C 405.98 177.46 401.49 180.34 397.79 184.11 C 406.07 180.31 414.82 177.03 424.01 176.57 C 428.49 176.44 433.98 177.17 436.35 181.54 C 437.84 186.19 435.02 190.69 432.02 194.02 C 423.19 203.61 411.01 208.85 399.64 214.71 C 410.25 213.40 421.54 212.20 431.65 216.51 C 434.93 218.20 439.16 220.72 438.72 225.01 C 438.47 229.57 433.86 232.20 430.26 234.14 C 423.86 237.31 416.78 238.60 409.85 240.04 C 416.36 242.20 424.15 243.93 427.96 250.24 C 430.06 254.33 426.47 258.20 422.90 259.76 C 413.42 264.06 402.75 264.34 392.52 264.60 C 398.13 267.44 404.51 269.37 408.95 274.06 C 411.05 276.42 412.69 280.49 410.09 283.09 C 407.45 286.50 402.89 287.04 398.91 287.52 C 384.46 288.77 369.98 285.51 356.54 280.37 C 356.00 281.84 355.49 283.32 354.99 284.80 C 364.51 297.45 366.46 315.17 361.18 329.98 C 369.10 339.44 376.72 349.66 380.16 361.69 C 381.34 366.11 381.34 371.42 377.99 374.93 C 374.28 378.46 368.98 379.61 364.04 380.12 C 351.72 380.87 339.40 379.19 327.34 376.79 C 325.69 376.61 323.64 375.75 322.40 377.33 C 311.40 387.04 298.35 394.31 284.36 398.69 C 283.65 401.74 285.64 404.90 286.16 407.95 C 289.74 423.42 294.70 438.56 297.53 454.20 C 284.68 454.36 271.84 454.22 259.00 454.26 C 252.42 454.33 245.83 453.94 239.27 454.63 C 240.60 451.99 242.37 449.50 244.96 447.97 C 252.96 443.02 261.38 438.80 269.80 434.62 C 268.95 423.79 266.89 413.08 265.55 402.30 C 252.10 402.72 238.65 401.74 225.31 400.06 C 222.77 418.14 219.95 436.19 217.15 454.24 C 197.80 454.53 178.45 454.65 159.11 455.21 C 160.16 451.81 163.23 449.75 166.25 448.23 C 175.76 443.51 186.25 441.13 196.77 440.11 C 199.95 425.65 203.66 411.30 206.78 396.83 C 181.50 390.88 158.00 378.47 138.00 362.02 C 121.25 348.59 107.72 330.25 103.05 309.03 C 97.99 288.66 101.24 267.26 107.45 247.52 C 111.71 234.32 118.07 221.96 122.76 208.93 C 126.79 198.85 130.29 188.56 133.13 178.09 C 136.57 166.34 139.07 154.24 139.41 141.98 C 139.51 135.63 139.11 129.07 136.56 123.17 C 133.76 130.51 134.45 139.08 129.74 145.70 C 126.56 150.70 120.37 154.83 114.28 152.98 C 109.93 151.96 109.00 146.80 109.18 143.01 C 108.93 136.31 112.69 130.50 115.66 124.79 C 118.80 119.27 121.06 113.32 123.16 107.35 C 116.98 109.49 110.85 111.87 105.12 115.05 C 101.68 116.95 98.67 119.87 94.61 120.38 C 95.40 114.18 98.30 108.55 101.07 103.05 C 104.86 96.09 109.22 89.40 114.52 83.50 C 118.61 79.37 120.05 73.34 124.44 69.44 Z" fill="#0e3453" opacity="1.00" stroke="#0e3453" stroke-width="0.25"/>
<path d="M 121.15 80.05 C 127.15 66.83 142.64 59.67 156.75 61.59 C 166.33 62.58 176.36 67.27 180.55 76.43 C 185.73 87.17 182.54 99.56 177.87 109.88 C 172.38 121.98 171.95 135.43 170.72 148.44 C 170.15 156.93 169.13 165.39 168.89 173.91 C 167.64 173.13 166.40 172.35 165.14 171.60 C 160.70 175.32 156.24 179.21 150.74 181.31 C 150.72 178.03 150.81 174.75 150.64 171.48 C 145.09 172.16 141.42 176.99 136.71 179.54 C 137.93 172.93 139.93 166.50 141.11 159.90 C 142.78 150.79 143.27 141.46 142.40 132.24 C 141.72 127.42 141.20 121.67 136.48 118.99 C 137.18 113.30 138.05 107.63 138.43 101.91 C 138.60 97.59 134.86 94.63 131.80 92.20 C 127.48 88.94 123.50 84.99 121.15 80.05 Z" fill="#74e3fe" opacity="1.00" stroke="#74e3fe" stroke-width="0.25"/>
<path d="M 143.40 73.54 C 147.91 71.64 154.00 73.04 156.26 77.67 C 158.68 82.05 157.40 88.27 152.87 90.73 C 147.58 94.13 139.45 91.62 137.30 85.65 C 135.60 80.80 138.79 75.35 143.40 73.54 Z" fill="#0e3453" opacity="1.00" stroke="#0e3453" stroke-width="0.25"/>
<path d="M 144.36 75.24 C 150.25 72.11 157.45 78.66 155.27 84.85 C 153.90 90.05 147.15 91.67 142.86 89.11 C 139.53 87.82 137.89 83.59 139.30 80.37 C 140.15 78.01 142.11 76.25 144.36 75.24 Z" fill="#ffffff" opacity="1.00" stroke="#ffffff" stroke-width="0.25"/>
<path d="M 146.22 77.81 C 148.46 77.03 151.21 77.90 152.06 80.24 C 152.90 83.15 150.09 86.39 147.05 85.51 C 143.59 84.64 143.30 79.52 146.22 77.81 Z" fill="#0e3453" opacity="1.00" stroke="#0e3453" stroke-width="0.25"/>
<path d="M 116.47 86.42 C 117.36 85.58 118.08 84.05 119.55 84.41 C 121.62 86.69 123.22 89.39 125.55 91.44 C 128.95 94.52 133.10 96.98 135.28 101.18 C 129.56 102.31 123.78 103.31 118.29 105.31 C 112.03 107.49 106.29 110.85 100.15 113.30 C 103.98 103.47 109.77 94.51 116.47 86.42 Z" fill="#feb10f" opacity="1.00" stroke="#feb10f" stroke-width="0.25"/>
<path d="M 127.37 106.35 C 129.76 105.93 132.17 105.58 134.59 105.32 C 134.01 116.21 131.89 126.98 129.58 137.61 C 128.11 144.30 122.06 151.50 114.51 149.62 C 112.25 147.39 112.23 143.94 112.57 141.00 C 113.51 135.03 117.09 130.00 119.67 124.67 C 122.77 118.80 125.10 112.57 127.37 106.35 Z" fill="#f15430" opacity="1.00" stroke="#f15430" stroke-width="0.25"/>
<path d="M 362.33 140.34 C 368.43 129.58 372.19 117.05 381.35 108.34 C 383.45 113.56 381.69 119.18 380.37 124.36 C 377.55 134.56 372.79 144.12 366.73 152.78 C 356.04 168.40 346.99 185.05 336.65 200.90 C 334.17 198.59 331.95 196.02 330.06 193.20 C 341.96 176.31 352.97 158.77 362.33 140.34 Z" fill="#71453c" opacity="1.00" stroke="#71453c" stroke-width="0.25"/>
<path d="M 392.56 126.54 C 394.77 124.60 397.38 123.19 400.01 121.91 C 399.63 128.52 395.92 134.13 392.78 139.73 C 382.00 158.35 368.17 174.93 354.29 191.28 C 349.68 196.56 345.87 202.52 340.84 207.44 C 340.02 205.33 339.63 203.03 341.08 201.10 C 350.90 185.24 360.48 169.21 370.50 153.48 C 377.21 144.01 383.85 134.32 392.56 126.54 Z" fill="#71453c" opacity="1.00" stroke="#71453c" stroke-width="0.25"/>
<path d="M 410.52 147.52 C 413.15 146.12 416.09 145.53 418.97 144.92 C 421.12 149.38 420.53 154.63 417.69 158.66 C 412.74 165.89 406.53 172.28 399.60 177.64 C 388.64 186.46 377.04 194.44 365.58 202.60 C 359.20 207.12 353.22 212.29 346.25 215.93 C 345.51 214.27 344.78 212.62 344.05 210.96 C 352.34 199.15 361.85 188.23 371.91 177.91 C 383.86 166.71 395.94 155.26 410.52 147.52 Z" fill="#71453c" opacity="1.00" stroke="#71453c" stroke-width="0.25"/>
<path d="M 148.75 184.41 C 155.04 185.35 159.76 179.81 164.83 176.99 C 169.09 183.80 167.70 192.00 168.50 199.59 C 169.51 208.50 170.94 218.02 176.88 225.14 C 179.19 227.93 182.38 230.26 186.10 230.60 C 194.17 231.61 202.09 229.17 209.62 226.53 C 232.29 218.73 256.98 216.70 280.55 221.34 C 284.09 222.06 287.67 222.62 291.27 223.01 C 292.01 221.21 292.00 218.84 293.74 217.64 C 296.90 215.38 300.57 213.96 303.80 211.78 C 311.38 206.75 317.61 200.00 323.34 193.00 C 339.03 205.96 348.46 225.21 351.92 245.05 C 353.37 253.63 354.85 262.32 354.07 271.05 C 353.63 275.62 353.46 280.68 350.35 284.36 C 349.48 285.71 347.96 286.91 348.18 288.68 C 350.06 289.22 352.02 289.40 353.97 289.60 C 360.19 300.26 362.65 313.81 358.33 325.58 C 353.06 320.86 348.64 315.32 343.52 310.45 C 335.44 302.17 326.34 294.99 318.00 286.99 C 307.74 276.96 296.03 268.35 283.24 261.82 C 257.42 248.77 227.39 246.36 199.05 250.15 C 186.75 251.86 173.75 256.87 166.69 267.67 C 159.09 279.17 158.70 293.96 162.14 306.95 C 164.00 315.23 168.44 322.68 174.04 328.97 C 182.07 338.28 192.16 346.08 203.87 350.15 C 217.70 354.90 232.41 356.56 246.97 356.78 C 252.99 356.90 259.28 355.63 265.05 357.94 C 275.03 361.65 284.80 365.93 295.01 368.98 C 302.50 371.54 310.31 373.00 317.71 375.83 C 314.31 379.10 310.69 382.18 306.59 384.54 C 298.38 389.20 289.80 393.30 280.67 395.80 C 270.45 399.07 259.59 398.47 249.02 398.36 C 222.52 397.45 195.60 392.57 172.02 379.96 C 160.40 374.08 149.59 366.69 139.45 358.55 C 130.19 350.44 121.37 341.46 115.42 330.58 C 106.94 315.65 102.86 298.24 104.25 281.09 C 105.77 263.43 110.99 246.24 118.03 230.03 C 122.51 219.98 126.31 209.63 130.28 199.37 C 132.18 194.75 132.82 189.62 135.31 185.27 C 138.35 182.00 142.49 180.05 146.12 177.52 C 146.88 179.85 147.42 182.31 148.75 184.41 Z" fill="#71453c" opacity="1.00" stroke="#71453c" stroke-width="0.25"/>
<path d="M 408.60 183.60 C 414.97 181.51 421.70 179.45 428.46 180.51 C 430.64 180.77 433.34 182.32 432.92 184.88 C 432.12 190.13 427.46 193.48 423.66 196.66 C 410.53 206.52 394.91 212.09 380.33 219.36 C 371.09 223.62 362.35 228.89 353.07 233.03 C 351.42 228.72 350.00 224.32 348.72 219.89 C 354.52 214.84 361.09 210.82 367.30 206.31 C 380.25 197.42 393.65 188.74 408.60 183.60 Z" fill="#71453c" opacity="1.00" stroke="#71453c" stroke-width="0.25"/>
<path d="M 406.73 217.56 C 415.18 216.98 424.35 216.68 431.93 221.07 C 433.11 221.99 435.32 222.84 434.61 224.71 C 433.55 229.01 428.87 230.76 425.17 232.21 C 414.52 235.85 403.31 238.45 391.99 237.87 C 379.47 237.40 367.14 239.80 354.87 241.87 C 354.67 239.65 354.65 237.09 357.05 236.06 C 372.29 227.04 388.89 219.24 406.73 217.56 Z" fill="#71453c" opacity="1.00" stroke="#71453c" stroke-width="0.25"/>
<path d="M 393.41 243.42 C 402.94 242.88 413.25 243.23 421.57 248.47 C 423.63 249.61 425.80 252.48 423.72 254.62 C 420.09 257.73 415.13 258.59 410.60 259.61 C 397.87 261.63 384.71 260.91 372.20 257.89 C 367.51 256.71 362.62 256.46 358.04 254.90 C 356.61 252.52 355.36 247.96 358.95 246.89 C 362.94 246.16 367.05 246.74 371.06 246.02 C 378.46 244.81 385.90 243.79 393.41 243.42 Z" fill="#71453c" opacity="1.00" stroke="#71453c" stroke-width="0.25"/>
<path d="M 207.61 252.85 C 230.54 251.12 254.35 253.00 275.57 262.45 C 290.49 268.72 303.66 278.55 315.30 289.70 C 321.89 296.13 329.17 301.80 335.75 308.24 C 340.54 313.00 345.87 317.34 349.51 323.12 C 343.35 323.55 337.17 323.34 331.00 323.35 C 323.82 323.46 316.63 321.95 309.50 323.29 C 309.42 324.02 309.27 325.46 309.19 326.18 C 322.45 326.89 335.77 327.49 349.06 326.91 C 351.24 326.98 353.84 326.77 355.40 328.63 C 359.49 332.87 362.86 337.75 366.26 342.56 C 351.08 342.27 336.29 338.30 321.19 337.22 C 321.25 338.31 321.31 339.41 321.39 340.51 C 337.06 342.90 352.68 345.91 368.53 346.65 C 373.10 351.33 375.22 357.94 377.01 364.11 C 357.45 361.74 338.84 354.73 319.51 351.19 C 319.52 352.26 319.52 353.34 319.64 354.41 C 324.20 356.21 329.09 356.93 333.80 358.24 C 348.15 362.14 362.58 365.78 377.21 368.51 C 375.86 373.31 371.10 375.82 366.42 376.25 C 356.97 377.19 347.42 376.46 338.06 374.98 C 321.93 372.59 305.89 369.17 290.55 363.57 C 276.65 358.55 262.59 353.63 249.74 346.20 C 246.89 344.51 243.90 343.05 240.74 342.04 C 241.29 343.47 241.35 345.30 242.76 346.23 C 246.03 348.69 249.73 350.51 253.14 352.78 C 239.41 353.89 225.62 351.72 212.23 348.79 C 195.66 345.00 181.54 333.87 171.93 320.10 C 166.32 311.90 164.15 301.81 163.80 292.01 C 163.69 281.54 167.02 270.23 175.54 263.55 C 184.49 256.09 196.32 253.87 207.61 252.85 Z" fill="#a16a56" opacity="1.00" stroke="#a16a56" stroke-width="0.25"/>
<path d="M 358.31 263.15 C 370.62 263.04 382.87 265.50 394.46 269.55 C 399.46 271.58 405.24 273.89 407.74 279.03 C 407.56 282.14 403.81 282.65 401.43 283.36 C 390.97 285.05 380.23 283.70 370.08 280.90 C 365.91 279.65 361.29 278.83 357.95 275.84 C 357.41 271.62 358.05 267.37 358.31 263.15 Z" fill="#71453c" opacity="1.00" stroke="#71453c" stroke-width="0.25"/>
<path d="M 210.33 398.08 C 214.16 398.26 217.95 398.84 221.69 399.67 C 219.19 416.60 216.53 433.52 214.27 450.49 C 207.18 450.61 200.09 450.49 193.00 450.74 C 185.13 451.40 177.18 451.75 169.29 451.13 C 178.31 445.68 189.20 444.47 199.49 443.51 C 203.11 428.37 206.56 413.18 210.33 398.08 Z" fill="#feb10f" opacity="1.00" stroke="#feb10f" stroke-width="0.25"/>
<path d="M 269.35 401.78 C 272.99 401.49 276.57 400.75 280.17 400.20 C 284.02 413.21 287.24 426.39 290.62 439.53 C 291.61 443.11 292.47 446.75 292.91 450.45 C 278.35 450.31 263.78 450.76 249.23 450.18 C 256.41 444.07 265.94 441.70 273.34 435.95 C 273.12 424.49 270.00 413.23 269.35 401.78 Z" fill="#feb10f" opacity="1.00" stroke="#feb10f" stroke-width="0.25"/>
</svg>