<?xml version="1.0" encoding="utf-8"?>
<svg xmlns="http://www.w3.org/2000/svg" height="512pt" version="1.1" viewBox="0 0 512 512" width="512pt">
<path d="M 0.00 0.00 L 512.00 0.00 L 512.00 512.00 L 0.00 512.00 L 0.00 0.00 Z" fill="transparent" opacity="1.00" stroke="transparent" stroke-width="0.25"/>
<path d="M 117.50 141.64 C 119.44 139.87 122.23 140.37 124.59 140.68 C 163.96 148.16 204.08 150.41 244.05 151.53 C 257.35 151.34 270.68 151.96 283.95 150.94 C 317.39 150.21 350.83 147.47 383.80 141.65 C 387.18 140.81 390.64 140.20 394.14 140.54 C 395.89 141.92 397.79 143.32 398.60 145.50 C 409.58 172.21 420.08 199.31 426.20 227.61 C 426.97 231.40 428.08 235.42 426.76 239.22 C 422.17 252.72 414.71 265.02 406.77 276.78 C 392.33 297.10 374.03 314.58 353.50 328.66 C 341.83 337.27 329.16 344.40 316.69 351.77 C 312.71 353.92 309.25 356.96 306.51 360.55 C 304.26 363.49 302.91 367.31 299.60 369.30 C 295.20 371.98 289.90 370.92 285.03 371.11 C 263.69 371.11 242.34 371.13 221.00 371.10 C 217.48 371.22 213.84 370.22 211.25 367.75 C 208.66 364.88 207.23 361.19 204.66 358.31 C 200.63 353.45 194.68 350.96 189.49 347.61 C 164.34 333.43 140.33 316.58 120.90 295.07 C 108.14 281.00 97.46 264.98 89.62 247.67 C 87.64 242.66 84.73 237.39 86.17 231.84 C 91.71 203.28 102.11 175.95 113.09 149.10 C 114.24 146.47 115.00 143.37 117.50 141.64 Z" fill="#07375a" opacity="1.00" stroke="#07375a" stroke-width="0.25"/>
<path d="M 229.03 179.25 C 284.44 180.34 340.23 178.57 394.82 168.31 C 400.81 184.84 406.66 201.45 411.34 218.41 C 367.72 220.00 325.36 244.58 303.35 282.46 C 293.56 298.99 287.82 317.84 286.28 336.97 C 285.48 344.23 285.75 351.54 285.74 358.82 C 266.25 358.89 246.75 358.90 227.25 358.81 C 227.90 339.17 225.88 319.13 218.53 300.77 C 211.14 281.53 198.74 264.33 183.23 250.81 C 160.76 231.05 131.38 219.73 101.57 218.30 C 106.52 201.49 112.35 184.95 118.03 168.37 C 154.65 175.04 191.86 177.98 229.03 179.25 Z" fill="#bef1ff" opacity="1.00" stroke="#bef1ff" stroke-width="0.25"/>
<path d="M 98.83 230.38 C 136.10 231.29 172.90 249.95 194.26 280.74 C 202.81 292.81 208.80 306.65 212.02 321.08 C 214.54 331.16 214.91 341.59 215.16 351.93 C 212.21 348.82 209.19 345.70 205.55 343.38 C 194.18 336.06 182.13 329.81 171.01 322.08 C 139.93 301.50 113.09 273.11 98.85 238.28 C 97.66 235.75 98.34 232.97 98.83 230.38 Z" fill="#7fe5fe" opacity="1.00" stroke="#7fe5fe" stroke-width="0.25"/>
<path d="M 326.64 270.56 C 348.66 245.86 381.22 231.17 414.25 230.34 C 414.68 232.99 415.38 235.81 414.16 238.36 C 402.77 265.61 383.79 289.31 360.99 307.90 C 345.84 320.27 329.13 330.52 312.25 340.31 C 306.86 343.28 302.10 347.23 297.83 351.64 C 298.38 345.10 298.10 338.50 299.11 332.00 C 301.96 309.40 311.54 287.65 326.64 270.56 Z" fill="#7fe5fe" opacity="1.00" stroke="#7fe5fe" stroke-width="0.25"/>
</svg>