<?xml version="1.0" encoding="utf-8"?>
<svg xmlns="http://www.w3.org/2000/svg" height="512pt" version="1.1" viewBox="0 0 512 512" width="512pt">
<path d="M 0.00 0.00 L 512.00 0.00 L 512.00 512.00 L 0.00 512.00 L 0.00 0.00 Z" fill="transparent" opacity="1.00" stroke="transparent" stroke-width="0.25"/>
<path d="M 283.02 63.30 C 289.60 61.88 296.37 62.82 303.01 61.99 C 314.42 60.98 325.82 62.31 337.23 62.51 C 350.08 63.91 363.00 65.80 375.24 70.14 C 378.62 71.24 380.18 74.64 380.49 77.97 L 377.53 77.52 C 378.14 78.44 378.77 79.35 379.39 80.28 C 380.80 77.89 384.84 80.24 384.04 82.70 C 382.96 82.74 380.81 82.82 379.74 82.86 C 381.39 83.07 383.04 83.24 384.70 83.41 C 384.36 85.40 385.07 87.88 383.55 89.49 C 380.32 91.11 376.57 91.31 373.36 93.00 C 375.52 93.65 377.18 95.14 378.56 96.87 C 378.60 97.77 378.68 99.56 378.72 100.46 C 376.98 101.63 375.29 102.88 373.73 104.28 C 373.73 106.35 373.59 108.40 373.32 110.45 C 372.68 110.52 371.40 110.66 370.76 110.73 C 370.76 112.27 370.77 113.81 370.79 115.34 C 367.69 118.67 363.44 120.84 360.95 124.73 C 367.78 124.46 374.17 121.57 380.89 120.49 C 388.91 119.34 396.85 117.25 405.00 117.42 C 412.96 117.51 421.17 116.45 428.81 119.26 C 433.55 121.46 438.76 118.29 443.48 120.66 C 444.97 121.14 444.42 123.09 444.75 124.28 C 442.93 125.09 441.13 125.93 439.33 126.77 C 439.34 127.20 439.37 128.08 439.39 128.52 C 440.35 129.42 441.31 130.32 442.27 131.23 C 442.47 133.06 442.80 134.92 443.79 136.52 C 445.37 139.02 444.93 142.15 444.51 144.92 C 443.03 147.45 440.90 149.60 439.79 152.37 C 437.78 157.19 433.58 160.49 429.78 163.86 C 425.55 167.98 418.65 167.33 414.95 172.21 C 417.08 173.59 419.51 174.72 420.85 177.01 C 419.76 177.81 418.68 178.61 417.59 179.40 C 419.63 179.54 421.65 179.93 423.58 180.61 C 424.16 185.35 422.31 190.06 418.89 193.35 C 420.76 193.74 422.62 194.20 424.49 194.67 C 424.40 196.60 424.33 198.53 424.27 200.46 C 428.42 200.20 432.73 200.52 436.33 202.82 C 439.59 204.80 443.35 206.05 446.15 208.76 C 446.53 210.81 447.62 212.59 448.83 214.26 C 450.25 214.54 451.68 214.83 453.10 215.14 C 452.38 215.22 450.94 215.40 450.22 215.49 C 450.36 218.49 450.38 221.51 450.31 224.52 C 450.85 224.55 451.93 224.60 452.47 224.63 C 450.32 226.96 448.55 229.61 446.30 231.84 C 446.21 233.34 446.21 234.83 446.30 236.34 C 447.40 237.89 448.66 239.34 449.77 240.90 C 441.98 256.70 428.87 268.75 417.63 281.99 C 417.47 282.63 417.16 283.92 417.00 284.56 C 420.10 284.76 423.68 283.78 426.36 285.84 C 427.80 286.86 429.37 287.88 430.31 289.42 C 430.88 291.67 430.32 294.01 430.34 296.30 C 432.18 297.35 433.95 298.52 435.64 299.82 C 434.26 301.81 433.90 304.28 435.08 306.46 C 436.36 309.39 432.14 311.16 432.43 314.05 C 432.61 316.71 432.91 319.39 432.48 322.06 C 427.64 325.37 424.88 330.69 420.60 334.58 C 402.16 353.17 382.64 370.64 364.00 389.03 C 355.65 397.34 346.79 405.12 338.44 413.42 C 330.42 419.55 323.76 427.56 314.60 432.11 C 307.97 435.87 301.72 440.46 294.51 443.10 C 290.86 444.65 287.49 446.82 283.80 448.29 C 281.17 448.72 278.50 448.27 275.86 448.21 C 275.12 447.29 274.39 446.39 273.66 445.49 C 270.97 445.44 268.33 445.01 265.71 444.46 C 263.03 440.24 261.69 435.31 258.14 431.66 C 256.97 426.07 257.15 420.06 258.01 414.41 C 257.77 414.13 257.28 413.59 257.04 413.31 C 241.07 424.34 224.47 434.46 207.57 443.98 C 202.89 446.35 198.59 450.53 192.95 449.82 C 190.47 450.12 188.27 448.83 185.91 448.50 C 183.69 449.61 181.26 450.01 178.78 449.76 C 177.61 447.47 176.45 445.14 176.19 442.55 C 177.32 441.58 178.45 440.60 179.57 439.62 C 179.57 438.51 179.57 437.40 179.58 436.29 C 176.23 436.94 173.00 436.23 169.78 435.35 C 168.36 436.74 166.64 437.74 164.58 437.65 C 164.41 435.30 164.36 432.94 164.44 430.60 C 165.16 429.77 165.88 428.96 166.60 428.14 C 166.62 425.30 166.33 422.46 166.66 419.64 C 167.95 413.83 170.94 408.61 173.05 403.10 C 170.94 403.13 168.91 403.73 167.27 405.08 C 162.41 408.66 156.93 411.28 152.05 414.82 C 150.36 416.34 147.96 415.39 145.95 415.44 C 143.57 414.93 141.35 416.13 139.02 416.30 C 136.60 415.60 134.12 415.12 131.59 415.22 C 132.27 412.29 133.57 408.97 131.15 406.45 C 130.07 406.38 128.99 406.31 127.91 406.24 C 127.40 403.54 126.71 400.69 124.46 398.88 C 124.43 397.21 124.42 395.53 124.43 393.87 C 123.43 393.11 122.42 392.37 121.42 391.62 C 120.95 385.44 123.82 379.87 125.96 374.28 C 127.99 370.10 131.84 367.24 134.98 363.95 C 132.78 361.70 130.11 359.76 128.64 356.93 C 128.81 355.50 129.84 354.41 130.54 353.22 C 130.73 350.87 130.14 348.18 131.80 346.23 C 136.48 340.17 140.64 333.60 146.42 328.50 C 157.95 318.90 169.58 309.42 181.48 300.30 C 183.84 298.17 186.07 295.82 189.05 294.54 C 184.59 295.41 180.93 298.29 176.93 300.26 C 166.84 305.21 157.62 311.68 147.95 317.36 C 142.01 320.78 136.28 324.55 130.46 328.17 C 128.54 329.30 127.14 331.04 125.82 332.80 C 124.18 335.14 121.64 336.55 119.49 338.35 C 118.87 338.43 117.64 338.59 117.03 338.67 C 113.80 341.92 108.86 342.62 105.90 346.13 C 103.12 346.06 100.31 346.61 99.14 349.45 C 96.16 349.45 93.16 349.50 90.19 349.17 C 89.94 348.77 89.43 347.98 89.18 347.58 C 83.51 347.53 83.27 340.68 83.77 336.53 C 80.21 334.44 80.41 329.72 76.91 327.54 C 77.18 311.53 84.86 296.75 92.41 282.95 C 96.87 274.54 104.25 268.36 110.26 261.17 C 106.29 260.53 103.06 262.77 99.77 264.51 C 92.01 267.69 84.97 272.39 77.11 275.31 C 75.40 275.49 73.69 275.38 71.98 275.36 C 68.92 273.20 66.70 270.11 63.65 267.96 C 63.50 265.37 64.22 262.87 64.78 260.38 C 64.24 260.10 63.16 259.54 62.62 259.26 C 62.29 256.64 61.47 254.06 59.39 252.30 C 59.80 248.43 60.57 244.60 60.60 240.69 C 61.39 239.56 62.72 238.56 62.57 237.02 C 62.70 233.47 64.06 229.97 66.16 227.12 C 69.88 223.15 72.91 218.60 76.68 214.68 C 84.02 206.33 92.63 199.24 101.28 192.31 C 110.79 185.15 120.56 178.28 131.05 172.61 C 135.89 169.33 141.10 166.63 146.29 163.94 C 146.52 163.23 146.98 161.79 147.22 161.07 C 140.20 160.99 133.98 164.54 127.23 165.82 C 123.88 166.51 120.83 168.09 117.58 169.08 C 109.54 171.39 101.87 175.87 93.26 175.40 C 92.01 173.92 90.65 172.41 88.62 172.13 C 88.61 171.56 88.59 170.41 88.58 169.84 C 87.58 168.60 86.62 167.34 85.68 166.05 C 87.27 163.68 88.90 161.33 90.75 159.16 C 90.71 158.21 90.64 156.30 90.61 155.35 C 89.19 155.04 87.79 154.70 86.39 154.35 C 86.44 153.03 86.49 151.71 86.55 150.39 C 87.06 150.09 88.09 149.50 88.61 149.20 C 88.34 144.80 89.34 140.62 89.72 136.29 C 92.35 133.97 94.34 131.09 96.19 128.14 C 104.05 117.33 115.88 110.36 127.51 104.26 C 167.13 85.61 209.73 73.84 252.86 66.82 C 262.92 65.68 272.88 63.66 283.02 63.30 Z" fill="#ffdd4d" opacity="1.00" stroke="#ffdd4d" stroke-width="0.25"/>
<path d="M 273.64 425.80 C 274.94 428.12 276.21 430.46 277.54 432.77 C 279.97 432.65 282.41 432.49 284.84 432.33 C 284.71 433.25 284.46 435.09 284.33 436.01 C 281.96 437.36 279.27 437.72 276.58 437.48 C 272.77 434.72 273.26 429.93 273.64 425.80 Z" fill="#ffffff" opacity="1.00" stroke="#ffffff" stroke-width="0.25"/>
</svg>